<?xml version="1.0" encoding="utf-8" standalone="no"?>
<!DOCTYPE svg PUBLIC "-//W3C//DTD SVG 1.1//EN"
  "http://www.w3.org/Graphics/SVG/1.1/DTD/svg11.dtd">
<!-- Created with matplotlib (http://matplotlib.org/) -->
<svg height="576pt" version="1.1" viewBox="0 0 576 576" width="576pt" xmlns="http://www.w3.org/2000/svg" xmlns:xlink="http://www.w3.org/1999/xlink">
 <defs>
  <style type="text/css">
*{stroke-linecap:butt;stroke-linejoin:round;}
  </style>
 </defs>
 <g id="figure_1">
  <g id="patch_1">
   <path d="
M0 576
L576 576
L576 0
L0 0
z
" style="fill:#ffffff;"/>
  </g>
  <g id="axes_1">
   <g id="patch_2">
    <path d="
M57.6 258.75
L558.049 258.75
L558.049 15.3
L57.6 15.3
L57.6 258.75" style="fill:none;"/>
   </g>
   <g id="patch_3">
    <path clip-path="url(#pf6197845de)" d="
M57.6 258.75
L57.6 258.75
L60.9363 258.75
L60.9363 258.75
L64.2727 258.75
L64.2727 258.75
L67.609 258.75
L67.609 258.75
L70.9453 258.75
L70.9453 258.75
L74.2816 258.75
L74.2816 258.75
L77.618 258.75
L77.618 258.75
L80.9543 258.75
L80.9543 258.75
L84.2906 258.75
L84.2906 137.074
L87.627 137.074
L87.627 223.093
L90.9633 223.093
L90.9633 227.053
L94.2996 227.053
L94.2996 229.796
L97.6359 229.796
L97.6359 232.068
L100.972 232.068
L100.972 230.12
L104.309 230.12
L104.309 234.129
L107.645 234.129
L107.645 235.509
L110.981 235.509
L110.981 210.758
L114.318 210.758
L114.318 215.286
L117.654 215.286
L117.654 217.639
L120.99 217.639
L120.99 218.743
L124.327 218.743
L124.327 181.268
L127.663 181.268
L127.663 223.417
L130.999 223.417
L130.999 224.213
L134.336 224.213
L134.336 224.294
L137.672 224.294
L137.672 224.294
L141.008 224.294
L141.008 226.68
L144.345 226.68
L144.345 227.816
L147.681 227.816
L147.681 229.455
L151.017 229.455
L151.017 229.893
L154.354 229.893
L154.354 231.435
L157.69 231.435
L157.69 232.409
L161.026 232.409
L161.026 232.993
L164.363 232.993
L164.363 235.119
L167.699 235.119
L167.699 234.032
L171.035 234.032
L171.035 236.369
L174.371 236.369
L174.371 236.207
L177.708 236.207
L177.708 238.252
L181.044 238.252
L181.044 239.209
L184.38 239.209
L184.38 239.712
L187.717 239.712
L187.717 240.215
L191.053 240.215
L191.053 240.654
L194.389 240.654
L194.389 241.027
L197.726 241.027
L197.726 242.082
L201.062 242.082
L201.062 242.293
L204.398 242.293
L204.398 242.406
L207.735 242.406
L207.735 243.559
L211.071 243.559
L211.071 243.835
L214.407 243.835
L214.407 243.332
L217.744 243.332
L217.744 245.247
L221.08 245.247
L221.08 246.431
L224.416 246.431
L224.416 247.194
L227.753 247.194
L227.753 247.438
L231.089 247.438
L231.089 247.827
L234.425 247.827
L234.425 247.357
L237.762 247.357
L237.762 247.34
L241.098 247.34
L241.098 247.34
L244.434 247.34
L244.434 248.671
L247.771 248.671
L247.771 249.239
L251.107 249.239
L251.107 249.353
L254.443 249.353
L254.443 249.385
L257.78 249.385
L257.78 250.392
L261.116 250.392
L261.116 250.197
L264.452 250.197
L264.452 249.45
L267.789 249.45
L267.789 249.402
L271.125 249.402
L271.125 249.84
L274.461 249.84
L274.461 249.255
L277.798 249.255
L277.798 249.986
L281.134 249.986
L281.134 250.749
L284.47 250.749
L284.47 251.625
L287.807 251.625
L287.807 245.165
L291.143 245.165
L291.143 221.405
L294.479 221.405
L294.479 199.397
L297.816 199.397
L297.816 209.817
L301.152 209.817
L301.152 236.271
L304.488 236.271
L304.488 248.038
L307.825 248.038
L307.825 251.122
L311.161 251.122
L311.161 252.648
L314.497 252.648
L314.497 252.631
L317.834 252.631
L317.834 252.777
L321.17 252.777
L321.17 252.372
L324.506 252.372
L324.506 253.459
L327.843 253.459
L327.843 254.157
L331.179 254.157
L331.179 254.563
L334.515 254.563
L334.515 254.871
L337.852 254.871
L337.852 255.017
L341.188 255.017
L341.188 255.147
L344.524 255.147
L344.524 255.017
L347.861 255.017
L347.861 255.001
L351.197 255.001
L351.197 255.423
L354.533 255.423
L354.533 255.163
L357.87 255.163
L357.87 258.75
L361.206 258.75
L361.206 255.196
L364.542 255.196
L364.542 255.699
L367.879 255.699
L367.879 255.683
L371.215 255.683
L371.215 255.325
L374.551 255.325
L374.551 255.601
L377.888 255.601
L377.888 255.65
L381.224 255.65
L381.224 256.023
L384.56 256.023
L384.56 255.261
L387.896 255.261
L387.896 254.806
L391.233 254.806
L391.233 28.7384
L394.569 28.7384
L394.569 257.598
L397.905 257.598
L397.905 257.776
L401.242 257.776
L401.242 258.003
L404.578 258.003
L404.578 257.809
L407.914 257.809
L407.914 257.728
L411.251 257.728
L411.251 257.825
L414.587 257.825
L414.587 257.874
L417.923 257.874
L417.923 257.938
L421.26 257.938
L421.26 257.679
L424.596 257.679
L424.596 257.841
L427.932 257.841
L427.932 257.874
L431.269 257.874
L431.269 257.906
L434.605 257.906
L434.605 258.198
L437.941 258.198
L437.941 258.02
L441.278 258.02
L441.278 258.003
L444.614 258.003
L444.614 257.922
L447.95 257.922
L447.95 258.231
L451.287 258.231
L451.287 258.231
L454.623 258.231
L454.623 258.085
L457.959 258.085
L457.959 257.435
L461.296 257.435
L461.296 258.149
L464.632 258.149
L464.632 258.166
L467.968 258.166
L467.968 258.133
L471.305 258.133
L471.305 258.247
L474.641 258.247
L474.641 258.214
L477.977 258.214
L477.977 258.279
L481.314 258.279
L481.314 258.149
L484.65 258.149
L484.65 211.602
L487.986 211.602
L487.986 258.75
L491.323 258.75
L491.323 258.75
L494.659 258.75
L494.659 258.734
L497.995 258.734
L497.995 258.718
L501.332 258.718
L501.332 258.75
L504.668 258.75
L504.668 258.75
L508.004 258.75
L508.004 258.75
L511.341 258.75
L511.341 258.734
L514.677 258.734
L514.677 258.75
L518.013 258.75
L518.013 258.75
L521.35 258.75
L521.35 258.734
L524.686 258.734
L524.686 258.669
L528.022 258.669
L528.022 258.75
L531.359 258.75
L531.359 258.75
L534.695 258.75
L534.695 258.75
L538.031 258.75
L538.031 258.75
L541.368 258.75
L541.368 258.75
L544.704 258.75
L544.704 258.75
L548.04 258.75
L548.04 258.75
L551.377 258.75
L551.377 258.75
L554.713 258.75
L554.713 258.75
L558.049 258.75
L558.049 258.75
L554.713 258.75
L554.713 258.75
L551.377 258.75
L551.377 258.75
L548.04 258.75
L548.04 258.75
L544.704 258.75
L544.704 258.75
L541.368 258.75
L541.368 258.75
L538.031 258.75
L538.031 258.75
L534.695 258.75
L534.695 258.75
L531.359 258.75
L531.359 258.75
L528.022 258.75
L528.022 258.75
L524.686 258.75
L524.686 258.75
L521.35 258.75
L521.35 258.75
L518.013 258.75
L518.013 258.75
L514.677 258.75
L514.677 258.75
L511.341 258.75
L511.341 258.75
L508.004 258.75
L508.004 258.75
L504.668 258.75
L504.668 258.75
L501.332 258.75
L501.332 258.75
L497.995 258.75
L497.995 258.75
L494.659 258.75
L494.659 258.75
L491.323 258.75
L491.323 258.75
L487.986 258.75
L487.986 258.75
L484.65 258.75
L484.65 258.75
L481.314 258.75
L481.314 258.75
L477.977 258.75
L477.977 258.75
L474.641 258.75
L474.641 258.75
L471.305 258.75
L471.305 258.75
L467.968 258.75
L467.968 258.75
L464.632 258.75
L464.632 258.75
L461.296 258.75
L461.296 258.75
L457.959 258.75
L457.959 258.75
L454.623 258.75
L454.623 258.75
L451.287 258.75
L451.287 258.75
L447.95 258.75
L447.95 258.75
L444.614 258.75
L444.614 258.75
L441.278 258.75
L441.278 258.75
L437.941 258.75
L437.941 258.75
L434.605 258.75
L434.605 258.75
L431.269 258.75
L431.269 258.75
L427.932 258.75
L427.932 258.75
L424.596 258.75
L424.596 258.75
L421.26 258.75
L421.26 258.75
L417.923 258.75
L417.923 258.75
L414.587 258.75
L414.587 258.75
L411.251 258.75
L411.251 258.75
L407.914 258.75
L407.914 258.75
L404.578 258.75
L404.578 258.75
L401.242 258.75
L401.242 258.75
L397.905 258.75
L397.905 258.75
L394.569 258.75
L394.569 258.75
L391.233 258.75
L391.233 258.75
L387.896 258.75
L387.896 258.75
L384.56 258.75
L384.56 258.75
L381.224 258.75
L381.224 258.75
L377.888 258.75
L377.888 258.75
L374.551 258.75
L374.551 258.75
L371.215 258.75
L371.215 258.75
L367.879 258.75
L367.879 258.75
L364.542 258.75
L364.542 258.75
L361.206 258.75
L361.206 258.75
L357.87 258.75
L357.87 258.75
L354.533 258.75
L354.533 258.75
L351.197 258.75
L351.197 258.75
L347.861 258.75
L347.861 258.75
L344.524 258.75
L344.524 258.75
L341.188 258.75
L341.188 258.75
L337.852 258.75
L337.852 258.75
L334.515 258.75
L334.515 258.75
L331.179 258.75
L331.179 258.75
L327.843 258.75
L327.843 258.75
L324.506 258.75
L324.506 258.75
L321.17 258.75
L321.17 258.75
L317.834 258.75
L317.834 258.75
L314.497 258.75
L314.497 258.75
L311.161 258.75
L311.161 258.75
L307.825 258.75
L307.825 258.75
L304.488 258.75
L304.488 258.75
L301.152 258.75
L301.152 258.75
L297.816 258.75
L297.816 258.75
L294.479 258.75
L294.479 258.75
L291.143 258.75
L291.143 258.75
L287.807 258.75
L287.807 258.75
L284.47 258.75
L284.47 258.75
L281.134 258.75
L281.134 258.75
L277.798 258.75
L277.798 258.75
L274.461 258.75
L274.461 258.75
L271.125 258.75
L271.125 258.75
L267.789 258.75
L267.789 258.75
L264.452 258.75
L264.452 258.75
L261.116 258.75
L261.116 258.75
L257.78 258.75
L257.78 258.75
L254.443 258.75
L254.443 258.75
L251.107 258.75
L251.107 258.75
L247.771 258.75
L247.771 258.75
L244.434 258.75
L244.434 258.75
L241.098 258.75
L241.098 258.75
L237.762 258.75
L237.762 258.75
L234.425 258.75
L234.425 258.75
L231.089 258.75
L231.089 258.75
L227.753 258.75
L227.753 258.75
L224.416 258.75
L224.416 258.75
L221.08 258.75
L221.08 258.75
L217.744 258.75
L217.744 258.75
L214.407 258.75
L214.407 258.75
L211.071 258.75
L211.071 258.75
L207.735 258.75
L207.735 258.75
L204.398 258.75
L204.398 258.75
L201.062 258.75
L201.062 258.75
L197.726 258.75
L197.726 258.75
L194.389 258.75
L194.389 258.75
L191.053 258.75
L191.053 258.75
L187.717 258.75
L187.717 258.75
L184.38 258.75
L184.38 258.75
L181.044 258.75
L181.044 258.75
L177.708 258.75
L177.708 258.75
L174.371 258.75
L174.371 258.75
L171.035 258.75
L171.035 258.75
L167.699 258.75
L167.699 258.75
L164.363 258.75
L164.363 258.75
L161.026 258.75
L161.026 258.75
L157.69 258.75
L157.69 258.75
L154.354 258.75
L154.354 258.75
L151.017 258.75
L151.017 258.75
L147.681 258.75
L147.681 258.75
L144.345 258.75
L144.345 258.75
L141.008 258.75
L141.008 258.75
L137.672 258.75
L137.672 258.75
L134.336 258.75
L134.336 258.75
L130.999 258.75
L130.999 258.75
L127.663 258.75
L127.663 258.75
L124.327 258.75
L124.327 258.75
L120.99 258.75
L120.99 258.75
L117.654 258.75
L117.654 258.75
L114.318 258.75
L114.318 258.75
L110.981 258.75
L110.981 258.75
L107.645 258.75
L107.645 258.75
L104.309 258.75
L104.309 258.75
L100.972 258.75
L100.972 258.75
L97.6359 258.75
L97.6359 258.75
L94.2996 258.75
L94.2996 258.75
L90.9633 258.75
L90.9633 258.75
L87.627 258.75
L87.627 258.75
L84.2906 258.75
L84.2906 258.75
L80.9543 258.75
L80.9543 258.75
L77.618 258.75
L77.618 258.75
L74.2816 258.75
L74.2816 258.75
L70.9453 258.75
L70.9453 258.75
L67.609 258.75
L67.609 258.75
L64.2727 258.75
L64.2727 258.75
L60.9363 258.75
L60.9363 258.75
z
" style="fill:#0000ff;stroke:#000000;stroke-linejoin:miter;"/>
   </g>
   <g id="patch_4">
    <path d="
M57.6 15.3
L558.049 15.3" style="fill:none;stroke:#000000;stroke-linecap:square;stroke-linejoin:miter;"/>
   </g>
   <g id="patch_5">
    <path d="
M558.049 258.75
L558.049 15.3" style="fill:none;stroke:#000000;stroke-linecap:square;stroke-linejoin:miter;"/>
   </g>
   <g id="patch_6">
    <path d="
M57.6 258.75
L558.049 258.75" style="fill:none;stroke:#000000;stroke-linecap:square;stroke-linejoin:miter;"/>
   </g>
   <g id="patch_7">
    <path d="
M57.6 258.75
L57.6 15.3" style="fill:none;stroke:#000000;stroke-linecap:square;stroke-linejoin:miter;"/>
   </g>
   <g id="matplotlib.axis_1">
    <g id="xtick_1">
     <g id="line2d_1">
      <defs>
       <path d="
M0 0
L0 -4" id="m93b0483c22" style="stroke:#000000;stroke-width:0.5;"/>
      </defs>
      <g>
       <use style="stroke:#000000;stroke-width:0.5;" x="57.6" xlink:href="#m93b0483c22" y="258.75"/>
      </g>
     </g>
     <g id="line2d_2">
      <defs>
       <path d="
M0 0
L0 4" id="m741efc42ff" style="stroke:#000000;stroke-width:0.5;"/>
      </defs>
      <g>
       <use style="stroke:#000000;stroke-width:0.5;" x="57.6" xlink:href="#m741efc42ff" y="15.3"/>
      </g>
     </g>
    </g>
    <g id="xtick_2">
     <g id="line2d_3">
      <g>
       <use style="stroke:#000000;stroke-width:0.5;" x="157.68984375" xlink:href="#m93b0483c22" y="258.75"/>
      </g>
     </g>
     <g id="line2d_4">
      <g>
       <use style="stroke:#000000;stroke-width:0.5;" x="157.68984375" xlink:href="#m741efc42ff" y="15.3"/>
      </g>
     </g>
    </g>
    <g id="xtick_3">
     <g id="line2d_5">
      <g>
       <use style="stroke:#000000;stroke-width:0.5;" x="257.7796875" xlink:href="#m93b0483c22" y="258.75"/>
      </g>
     </g>
     <g id="line2d_6">
      <g>
       <use style="stroke:#000000;stroke-width:0.5;" x="257.7796875" xlink:href="#m741efc42ff" y="15.3"/>
      </g>
     </g>
    </g>
    <g id="xtick_4">
     <g id="line2d_7">
      <g>
       <use style="stroke:#000000;stroke-width:0.5;" x="357.86953125" xlink:href="#m93b0483c22" y="258.75"/>
      </g>
     </g>
     <g id="line2d_8">
      <g>
       <use style="stroke:#000000;stroke-width:0.5;" x="357.86953125" xlink:href="#m741efc42ff" y="15.3"/>
      </g>
     </g>
    </g>
    <g id="xtick_5">
     <g id="line2d_9">
      <g>
       <use style="stroke:#000000;stroke-width:0.5;" x="457.959375" xlink:href="#m93b0483c22" y="258.75"/>
      </g>
     </g>
     <g id="line2d_10">
      <g>
       <use style="stroke:#000000;stroke-width:0.5;" x="457.959375" xlink:href="#m741efc42ff" y="15.3"/>
      </g>
     </g>
    </g>
    <g id="xtick_6">
     <g id="line2d_11">
      <g>
       <use style="stroke:#000000;stroke-width:0.5;" x="558.04921875" xlink:href="#m93b0483c22" y="258.75"/>
      </g>
     </g>
     <g id="line2d_12">
      <g>
       <use style="stroke:#000000;stroke-width:0.5;" x="558.04921875" xlink:href="#m741efc42ff" y="15.3"/>
      </g>
     </g>
    </g>
   </g>
   <g id="matplotlib.axis_2">
    <g id="ytick_1">
     <g id="line2d_13">
      <defs>
       <path d="
M0 0
L4 0" id="m728421d6d4" style="stroke:#000000;stroke-width:0.5;"/>
      </defs>
      <g>
       <use style="stroke:#000000;stroke-width:0.5;" x="57.6" xlink:href="#m728421d6d4" y="258.75"/>
      </g>
     </g>
     <g id="line2d_14">
      <defs>
       <path d="
M0 0
L-4 0" id="mcb0005524f" style="stroke:#000000;stroke-width:0.5;"/>
      </defs>
      <g>
       <use style="stroke:#000000;stroke-width:0.5;" x="558.04921875" xlink:href="#mcb0005524f" y="258.75"/>
      </g>
     </g>
     <g id="text_1">
      <!-- 0 -->
      <defs>
       <path d="
M31.7812 66.4062
Q24.1719 66.4062 20.3281 58.9062
Q16.5 51.4219 16.5 36.375
Q16.5 21.3906 20.3281 13.8906
Q24.1719 6.39062 31.7812 6.39062
Q39.4531 6.39062 43.2812 13.8906
Q47.125 21.3906 47.125 36.375
Q47.125 51.4219 43.2812 58.9062
Q39.4531 66.4062 31.7812 66.4062
M31.7812 74.2188
Q44.0469 74.2188 50.5156 64.5156
Q56.9844 54.8281 56.9844 36.375
Q56.9844 17.9688 50.5156 8.26562
Q44.0469 -1.42188 31.7812 -1.42188
Q19.5312 -1.42188 13.0625 8.26562
Q6.59375 17.9688 6.59375 36.375
Q6.59375 54.8281 13.0625 64.5156
Q19.5312 74.2188 31.7812 74.2188" id="BitstreamVeraSans-Roman-30"/>
      </defs>
      <g transform="translate(48.5609375 261.509375)scale(0.1 -0.1)">
       <use xlink:href="#BitstreamVeraSans-Roman-30"/>
      </g>
     </g>
    </g>
    <g id="ytick_2">
     <g id="line2d_15">
      <g>
       <use style="stroke:#000000;stroke-width:0.5;" x="57.6" xlink:href="#m728421d6d4" y="177.6"/>
      </g>
     </g>
     <g id="line2d_16">
      <g>
       <use style="stroke:#000000;stroke-width:0.5;" x="558.04921875" xlink:href="#mcb0005524f" y="177.6"/>
      </g>
     </g>
     <g id="text_2">
      <!-- 5000 -->
      <defs>
       <path d="
M10.7969 72.9062
L49.5156 72.9062
L49.5156 64.5938
L19.8281 64.5938
L19.8281 46.7344
Q21.9688 47.4688 24.1094 47.8281
Q26.2656 48.1875 28.4219 48.1875
Q40.625 48.1875 47.75 41.5
Q54.8906 34.8125 54.8906 23.3906
Q54.8906 11.625 47.5625 5.09375
Q40.2344 -1.42188 26.9062 -1.42188
Q22.3125 -1.42188 17.5469 -0.640625
Q12.7969 0.140625 7.71875 1.70312
L7.71875 11.625
Q12.1094 9.23438 16.7969 8.0625
Q21.4844 6.89062 26.7031 6.89062
Q35.1562 6.89062 40.0781 11.3281
Q45.0156 15.7656 45.0156 23.3906
Q45.0156 31 40.0781 35.4375
Q35.1562 39.8906 26.7031 39.8906
Q22.75 39.8906 18.8125 39.0156
Q14.8906 38.1406 10.7969 36.2812
z
" id="BitstreamVeraSans-Roman-35"/>
      </defs>
      <g transform="translate(29.5859375 180.359375)scale(0.1 -0.1)">
       <use xlink:href="#BitstreamVeraSans-Roman-35"/>
       <use x="63.623046875" xlink:href="#BitstreamVeraSans-Roman-30"/>
       <use x="127.24609375" xlink:href="#BitstreamVeraSans-Roman-30"/>
       <use x="190.869140625" xlink:href="#BitstreamVeraSans-Roman-30"/>
      </g>
     </g>
    </g>
    <g id="ytick_3">
     <g id="line2d_17">
      <g>
       <use style="stroke:#000000;stroke-width:0.5;" x="57.6" xlink:href="#m728421d6d4" y="96.45"/>
      </g>
     </g>
     <g id="line2d_18">
      <g>
       <use style="stroke:#000000;stroke-width:0.5;" x="558.04921875" xlink:href="#mcb0005524f" y="96.45"/>
      </g>
     </g>
     <g id="text_3">
      <!-- 10000 -->
      <defs>
       <path d="
M12.4062 8.29688
L28.5156 8.29688
L28.5156 63.9219
L10.9844 60.4062
L10.9844 69.3906
L28.4219 72.9062
L38.2812 72.9062
L38.2812 8.29688
L54.3906 8.29688
L54.3906 0
L12.4062 0
z
" id="BitstreamVeraSans-Roman-31"/>
      </defs>
      <g transform="translate(23.55 99.209375)scale(0.1 -0.1)">
       <use xlink:href="#BitstreamVeraSans-Roman-31"/>
       <use x="63.623046875" xlink:href="#BitstreamVeraSans-Roman-30"/>
       <use x="127.24609375" xlink:href="#BitstreamVeraSans-Roman-30"/>
       <use x="190.869140625" xlink:href="#BitstreamVeraSans-Roman-30"/>
       <use x="254.4921875" xlink:href="#BitstreamVeraSans-Roman-30"/>
      </g>
     </g>
    </g>
    <g id="ytick_4">
     <g id="line2d_19">
      <g>
       <use style="stroke:#000000;stroke-width:0.5;" x="57.6" xlink:href="#m728421d6d4" y="15.3"/>
      </g>
     </g>
     <g id="line2d_20">
      <g>
       <use style="stroke:#000000;stroke-width:0.5;" x="558.04921875" xlink:href="#mcb0005524f" y="15.3"/>
      </g>
     </g>
     <g id="text_4">
      <!-- 15000 -->
      <g transform="translate(23.55 18.059375)scale(0.1 -0.1)">
       <use xlink:href="#BitstreamVeraSans-Roman-31"/>
       <use x="63.623046875" xlink:href="#BitstreamVeraSans-Roman-35"/>
       <use x="127.24609375" xlink:href="#BitstreamVeraSans-Roman-30"/>
       <use x="190.869140625" xlink:href="#BitstreamVeraSans-Roman-30"/>
       <use x="254.4921875" xlink:href="#BitstreamVeraSans-Roman-30"/>
      </g>
     </g>
    </g>
   </g>
   <g id="text_5">
    <!-- Jester -->
    <defs>
     <path d="
M56.2031 29.5938
L56.2031 25.2031
L14.8906 25.2031
Q15.4844 15.9219 20.4844 11.0625
Q25.4844 6.20312 34.4219 6.20312
Q39.5938 6.20312 44.4531 7.46875
Q49.3125 8.73438 54.1094 11.2812
L54.1094 2.78125
Q49.2656 0.734375 44.1875 -0.34375
Q39.1094 -1.42188 33.8906 -1.42188
Q20.7969 -1.42188 13.1562 6.1875
Q5.51562 13.8125 5.51562 26.8125
Q5.51562 40.2344 12.7656 48.1094
Q20.0156 56 32.3281 56
Q43.3594 56 49.7812 48.8906
Q56.2031 41.7969 56.2031 29.5938
M47.2188 32.2344
Q47.125 39.5938 43.0938 43.9844
Q39.0625 48.3906 32.4219 48.3906
Q24.9062 48.3906 20.3906 44.1406
Q15.875 39.8906 15.1875 32.1719
z
" id="BitstreamVeraSans-Roman-65"/>
     <path d="
M18.3125 70.2188
L18.3125 54.6875
L36.8125 54.6875
L36.8125 47.7031
L18.3125 47.7031
L18.3125 18.0156
Q18.3125 11.3281 20.1406 9.42188
Q21.9688 7.51562 27.5938 7.51562
L36.8125 7.51562
L36.8125 0
L27.5938 0
Q17.1875 0 13.2344 3.875
Q9.28125 7.76562 9.28125 18.0156
L9.28125 47.7031
L2.6875 47.7031
L2.6875 54.6875
L9.28125 54.6875
L9.28125 70.2188
z
" id="BitstreamVeraSans-Roman-74"/>
     <path d="
M41.1094 46.2969
Q39.5938 47.1719 37.8125 47.5781
Q36.0312 48 33.8906 48
Q26.2656 48 22.1875 43.0469
Q18.1094 38.0938 18.1094 28.8125
L18.1094 0
L9.07812 0
L9.07812 54.6875
L18.1094 54.6875
L18.1094 46.1875
Q20.9531 51.1719 25.4844 53.5781
Q30.0312 56 36.5312 56
Q37.4531 56 38.5781 55.875
Q39.7031 55.7656 41.0625 55.5156
z
" id="BitstreamVeraSans-Roman-72"/>
     <path d="
M44.2812 53.0781
L44.2812 44.5781
Q40.4844 46.5312 36.375 47.5
Q32.2812 48.4844 27.875 48.4844
Q21.1875 48.4844 17.8438 46.4375
Q14.5 44.3906 14.5 40.2812
Q14.5 37.1562 16.8906 35.375
Q19.2812 33.5938 26.5156 31.9844
L29.5938 31.2969
Q39.1562 29.25 43.1875 25.5156
Q47.2188 21.7812 47.2188 15.0938
Q47.2188 7.46875 41.1875 3.01562
Q35.1562 -1.42188 24.6094 -1.42188
Q20.2188 -1.42188 15.4531 -0.5625
Q10.6875 0.296875 5.42188 2
L5.42188 11.2812
Q10.4062 8.6875 15.2344 7.39062
Q20.0625 6.10938 24.8125 6.10938
Q31.1562 6.10938 34.5625 8.28125
Q37.9844 10.4531 37.9844 14.4062
Q37.9844 18.0625 35.5156 20.0156
Q33.0625 21.9688 24.7031 23.7812
L21.5781 24.5156
Q13.2344 26.2656 9.51562 29.9062
Q5.8125 33.5469 5.8125 39.8906
Q5.8125 47.6094 11.2812 51.7969
Q16.75 56 26.8125 56
Q31.7812 56 36.1719 55.2656
Q40.5781 54.5469 44.2812 53.0781" id="BitstreamVeraSans-Roman-73"/>
     <path d="
M9.8125 72.9062
L19.6719 72.9062
L19.6719 5.07812
Q19.6719 -8.10938 14.6719 -14.0625
Q9.67188 -20.0156 -1.42188 -20.0156
L-5.17188 -20.0156
L-5.17188 -11.7188
L-2.09375 -11.7188
Q4.4375 -11.7188 7.125 -8.04688
Q9.8125 -4.39062 9.8125 5.07812
z
" id="BitstreamVeraSans-Roman-4a"/>
    </defs>
    <g transform="translate(471.73671875 46.8175)scale(0.25 -0.25)">
     <use xlink:href="#BitstreamVeraSans-Roman-4a"/>
     <use x="29.4921875" xlink:href="#BitstreamVeraSans-Roman-65"/>
     <use x="91.015625" xlink:href="#BitstreamVeraSans-Roman-73"/>
     <use x="143.115234375" xlink:href="#BitstreamVeraSans-Roman-74"/>
     <use x="182.32421875" xlink:href="#BitstreamVeraSans-Roman-65"/>
     <use x="243.84765625" xlink:href="#BitstreamVeraSans-Roman-72"/>
    </g>
   </g>
  </g>
  <g id="axes_2">
   <g id="patch_8">
    <path d="
M57.6 522
L558.049 522
L558.049 278.55
L57.6 278.55
L57.6 522" style="fill:none;"/>
   </g>
   <g id="patch_9">
    <path clip-path="url(#p9ac44c7d18)" d="
M57.6 522
L57.6 442.311
L60.9363 442.311
L60.9363 303.869
L64.2727 303.869
L64.2727 392.16
L67.609 392.16
L67.609 428.515
L70.9453 428.515
L70.9453 446.368
L74.2816 446.368
L74.2816 466.493
L77.618 466.493
L77.618 475.582
L80.9543 475.582
L80.9543 485.645
L84.2906 485.645
L84.2906 490.838
L87.627 490.838
L87.627 498.791
L90.9633 498.791
L90.9633 500.414
L94.2996 500.414
L94.2996 498.953
L97.6359 498.953
L97.6359 503.822
L100.972 503.822
L100.972 509.016
L104.309 509.016
L104.309 510.964
L107.645 510.964
L107.645 507.393
L110.981 507.393
L110.981 513.56
L114.318 513.56
L114.318 514.859
L117.654 514.859
L117.654 514.372
L120.99 514.372
L120.99 513.885
L124.327 513.885
L124.327 516.157
L127.663 516.157
L127.663 516.157
L130.999 516.157
L130.999 518.267
L134.336 518.267
L134.336 518.105
L137.672 518.105
L137.672 517.618
L141.008 517.618
L141.008 519.403
L144.345 519.403
L144.345 518.916
L147.681 518.916
L147.681 519.241
L151.017 519.241
L151.017 518.754
L154.354 518.754
L154.354 519.566
L157.69 519.566
L157.69 519.728
L161.026 519.728
L161.026 519.728
L164.363 519.728
L164.363 519.728
L167.699 519.728
L167.699 520.052
L171.035 520.052
L171.035 520.377
L174.371 520.377
L174.371 521.026
L177.708 521.026
L177.708 520.864
L181.044 520.864
L181.044 521.188
L184.38 521.188
L184.38 521.026
L187.717 521.026
L187.717 521.188
L191.053 521.188
L191.053 521.513
L194.389 521.513
L194.389 521.838
L197.726 521.838
L197.726 522
L201.062 522
L201.062 521.838
L204.398 521.838
L204.398 521.513
L207.735 521.513
L207.735 521.675
L211.071 521.675
L211.071 521.513
L214.407 521.513
L214.407 521.351
L217.744 521.351
L217.744 521.513
L221.08 521.513
L221.08 521.513
L224.416 521.513
L224.416 521.838
L227.753 521.838
L227.753 521.675
L231.089 521.675
L231.089 522
L234.425 522
L234.425 522
L237.762 522
L237.762 522
L241.098 522
L241.098 522
L244.434 522
L244.434 522
L247.771 522
L247.771 522
L251.107 522
L251.107 521.675
L254.443 521.675
L254.443 522
L257.78 522
L257.78 522
L261.116 522
L261.116 521.838
L264.452 521.838
L264.452 522
L267.789 522
L267.789 522
L271.125 522
L271.125 522
L274.461 522
L274.461 522
L277.798 522
L277.798 522
L281.134 522
L281.134 521.838
L284.47 521.838
L284.47 522
L287.807 522
L287.807 522
L291.143 522
L291.143 522
L294.479 522
L294.479 521.838
L297.816 521.838
L297.816 522
L301.152 522
L301.152 522
L304.488 522
L304.488 522
L307.825 522
L307.825 522
L311.161 522
L311.161 522
L314.497 522
L314.497 522
L317.834 522
L317.834 522
L321.17 522
L321.17 522
L324.506 522
L324.506 522
L327.843 522
L327.843 522
L331.179 522
L331.179 522
L334.515 522
L334.515 522
L337.852 522
L337.852 522
L341.188 522
L341.188 522
L344.524 522
L344.524 522
L347.861 522
L347.861 522
L351.197 522
L351.197 522
L354.533 522
L354.533 521.838
L357.87 521.838
L357.87 522
L361.206 522
L361.206 522
L364.542 522
L364.542 522
L367.879 522
L367.879 522
L371.215 522
L371.215 522
L374.551 522
L374.551 522
L377.888 522
L377.888 522
L381.224 522
L381.224 522
L384.56 522
L384.56 522
L387.896 522
L387.896 522
L391.233 522
L391.233 522
L394.569 522
L394.569 522
L397.905 522
L397.905 522
L401.242 522
L401.242 522
L404.578 522
L404.578 522
L407.914 522
L407.914 522
L411.251 522
L411.251 522
L414.587 522
L414.587 522
L417.923 522
L417.923 522
L421.26 522
L421.26 522
L424.596 522
L424.596 522
L427.932 522
L427.932 522
L431.269 522
L431.269 522
L434.605 522
L434.605 522
L437.941 522
L437.941 522
L441.278 522
L441.278 522
L444.614 522
L444.614 522
L447.95 522
L447.95 522
L451.287 522
L451.287 522
L454.623 522
L454.623 522
L457.959 522
L457.959 522
L461.296 522
L461.296 522
L464.632 522
L464.632 522
L467.968 522
L467.968 522
L471.305 522
L471.305 522
L474.641 522
L474.641 522
L477.977 522
L477.977 522
L481.314 522
L481.314 522
L484.65 522
L484.65 522
L487.986 522
L487.986 522
L491.323 522
L491.323 522
L494.659 522
L494.659 522
L497.995 522
L497.995 522
L501.332 522
L501.332 522
L504.668 522
L504.668 522
L508.004 522
L508.004 522
L511.341 522
L511.341 522
L514.677 522
L514.677 522
L518.013 522
L518.013 522
L521.35 522
L521.35 522
L524.686 522
L524.686 522
L528.022 522
L528.022 522
L531.359 522
L531.359 522
L534.695 522
L534.695 522
L538.031 522
L538.031 522
L541.368 522
L541.368 522
L544.704 522
L544.704 522
L548.04 522
L548.04 522
L551.377 522
L551.377 522
L554.713 522
L554.713 522
L558.049 522
L558.049 522
L554.713 522
L554.713 522
L551.377 522
L551.377 522
L548.04 522
L548.04 522
L544.704 522
L544.704 522
L541.368 522
L541.368 522
L538.031 522
L538.031 522
L534.695 522
L534.695 522
L531.359 522
L531.359 522
L528.022 522
L528.022 522
L524.686 522
L524.686 522
L521.35 522
L521.35 522
L518.013 522
L518.013 522
L514.677 522
L514.677 522
L511.341 522
L511.341 522
L508.004 522
L508.004 522
L504.668 522
L504.668 522
L501.332 522
L501.332 522
L497.995 522
L497.995 522
L494.659 522
L494.659 522
L491.323 522
L491.323 522
L487.986 522
L487.986 522
L484.65 522
L484.65 522
L481.314 522
L481.314 522
L477.977 522
L477.977 522
L474.641 522
L474.641 522
L471.305 522
L471.305 522
L467.968 522
L467.968 522
L464.632 522
L464.632 522
L461.296 522
L461.296 522
L457.959 522
L457.959 522
L454.623 522
L454.623 522
L451.287 522
L451.287 522
L447.95 522
L447.95 522
L444.614 522
L444.614 522
L441.278 522
L441.278 522
L437.941 522
L437.941 522
L434.605 522
L434.605 522
L431.269 522
L431.269 522
L427.932 522
L427.932 522
L424.596 522
L424.596 522
L421.26 522
L421.26 522
L417.923 522
L417.923 522
L414.587 522
L414.587 522
L411.251 522
L411.251 522
L407.914 522
L407.914 522
L404.578 522
L404.578 522
L401.242 522
L401.242 522
L397.905 522
L397.905 522
L394.569 522
L394.569 522
L391.233 522
L391.233 522
L387.896 522
L387.896 522
L384.56 522
L384.56 522
L381.224 522
L381.224 522
L377.888 522
L377.888 522
L374.551 522
L374.551 522
L371.215 522
L371.215 522
L367.879 522
L367.879 522
L364.542 522
L364.542 522
L361.206 522
L361.206 522
L357.87 522
L357.87 522
L354.533 522
L354.533 522
L351.197 522
L351.197 522
L347.861 522
L347.861 522
L344.524 522
L344.524 522
L341.188 522
L341.188 522
L337.852 522
L337.852 522
L334.515 522
L334.515 522
L331.179 522
L331.179 522
L327.843 522
L327.843 522
L324.506 522
L324.506 522
L321.17 522
L321.17 522
L317.834 522
L317.834 522
L314.497 522
L314.497 522
L311.161 522
L311.161 522
L307.825 522
L307.825 522
L304.488 522
L304.488 522
L301.152 522
L301.152 522
L297.816 522
L297.816 522
L294.479 522
L294.479 522
L291.143 522
L291.143 522
L287.807 522
L287.807 522
L284.47 522
L284.47 522
L281.134 522
L281.134 522
L277.798 522
L277.798 522
L274.461 522
L274.461 522
L271.125 522
L271.125 522
L267.789 522
L267.789 522
L264.452 522
L264.452 522
L261.116 522
L261.116 522
L257.78 522
L257.78 522
L254.443 522
L254.443 522
L251.107 522
L251.107 522
L247.771 522
L247.771 522
L244.434 522
L244.434 522
L241.098 522
L241.098 522
L237.762 522
L237.762 522
L234.425 522
L234.425 522
L231.089 522
L231.089 522
L227.753 522
L227.753 522
L224.416 522
L224.416 522
L221.08 522
L221.08 522
L217.744 522
L217.744 522
L214.407 522
L214.407 522
L211.071 522
L211.071 522
L207.735 522
L207.735 522
L204.398 522
L204.398 522
L201.062 522
L201.062 522
L197.726 522
L197.726 522
L194.389 522
L194.389 522
L191.053 522
L191.053 522
L187.717 522
L187.717 522
L184.38 522
L184.38 522
L181.044 522
L181.044 522
L177.708 522
L177.708 522
L174.371 522
L174.371 522
L171.035 522
L171.035 522
L167.699 522
L167.699 522
L164.363 522
L164.363 522
L161.026 522
L161.026 522
L157.69 522
L157.69 522
L154.354 522
L154.354 522
L151.017 522
L151.017 522
L147.681 522
L147.681 522
L144.345 522
L144.345 522
L141.008 522
L141.008 522
L137.672 522
L137.672 522
L134.336 522
L134.336 522
L130.999 522
L130.999 522
L127.663 522
L127.663 522
L124.327 522
L124.327 522
L120.99 522
L120.99 522
L117.654 522
L117.654 522
L114.318 522
L114.318 522
L110.981 522
L110.981 522
L107.645 522
L107.645 522
L104.309 522
L104.309 522
L100.972 522
L100.972 522
L97.6359 522
L97.6359 522
L94.2996 522
L94.2996 522
L90.9633 522
L90.9633 522
L87.627 522
L87.627 522
L84.2906 522
L84.2906 522
L80.9543 522
L80.9543 522
L77.618 522
L77.618 522
L74.2816 522
L74.2816 522
L70.9453 522
L70.9453 522
L67.609 522
L67.609 522
L64.2727 522
L64.2727 522
L60.9363 522
L60.9363 522
z
" style="fill:#ff0000;stroke:#000000;stroke-linejoin:miter;"/>
   </g>
   <g id="patch_10">
    <path d="
M57.6 278.55
L558.049 278.55" style="fill:none;stroke:#000000;stroke-linecap:square;stroke-linejoin:miter;"/>
   </g>
   <g id="patch_11">
    <path d="
M558.049 522
L558.049 278.55" style="fill:none;stroke:#000000;stroke-linecap:square;stroke-linejoin:miter;"/>
   </g>
   <g id="patch_12">
    <path d="
M57.6 522
L558.049 522" style="fill:none;stroke:#000000;stroke-linecap:square;stroke-linejoin:miter;"/>
   </g>
   <g id="patch_13">
    <path d="
M57.6 522
L57.6 278.55" style="fill:none;stroke:#000000;stroke-linecap:square;stroke-linejoin:miter;"/>
   </g>
   <g id="matplotlib.axis_3">
    <g id="xtick_7">
     <g id="line2d_21">
      <g>
       <use style="stroke:#000000;stroke-width:0.5;" x="57.6" xlink:href="#m93b0483c22" y="522.0"/>
      </g>
     </g>
     <g id="line2d_22">
      <g>
       <use style="stroke:#000000;stroke-width:0.5;" x="57.6" xlink:href="#m741efc42ff" y="278.55"/>
      </g>
     </g>
     <g id="text_6">
      <!-- 0.0 -->
      <defs>
       <path d="
M10.6875 12.4062
L21 12.4062
L21 0
L10.6875 0
z
" id="BitstreamVeraSans-Roman-2e"/>
      </defs>
      <g transform="translate(50.31015625 533.5984375)scale(0.1 -0.1)">
       <use xlink:href="#BitstreamVeraSans-Roman-30"/>
       <use x="63.623046875" xlink:href="#BitstreamVeraSans-Roman-2e"/>
       <use x="95.41015625" xlink:href="#BitstreamVeraSans-Roman-30"/>
      </g>
     </g>
    </g>
    <g id="xtick_8">
     <g id="line2d_23">
      <g>
       <use style="stroke:#000000;stroke-width:0.5;" x="157.68984375" xlink:href="#m93b0483c22" y="522.0"/>
      </g>
     </g>
     <g id="line2d_24">
      <g>
       <use style="stroke:#000000;stroke-width:0.5;" x="157.68984375" xlink:href="#m741efc42ff" y="278.55"/>
      </g>
     </g>
     <g id="text_7">
      <!-- 0.2 -->
      <defs>
       <path d="
M19.1875 8.29688
L53.6094 8.29688
L53.6094 0
L7.32812 0
L7.32812 8.29688
Q12.9375 14.1094 22.625 23.8906
Q32.3281 33.6875 34.8125 36.5312
Q39.5469 41.8438 41.4219 45.5312
Q43.3125 49.2188 43.3125 52.7812
Q43.3125 58.5938 39.2344 62.25
Q35.1562 65.9219 28.6094 65.9219
Q23.9688 65.9219 18.8125 64.3125
Q13.6719 62.7031 7.8125 59.4219
L7.8125 69.3906
Q13.7656 71.7812 18.9375 73
Q24.125 74.2188 28.4219 74.2188
Q39.75 74.2188 46.4844 68.5469
Q53.2188 62.8906 53.2188 53.4219
Q53.2188 48.9219 51.5312 44.8906
Q49.8594 40.875 45.4062 35.4062
Q44.1875 33.9844 37.6406 27.2188
Q31.1094 20.4531 19.1875 8.29688" id="BitstreamVeraSans-Roman-32"/>
      </defs>
      <g transform="translate(150.56875 533.5984375)scale(0.1 -0.1)">
       <use xlink:href="#BitstreamVeraSans-Roman-30"/>
       <use x="63.623046875" xlink:href="#BitstreamVeraSans-Roman-2e"/>
       <use x="95.41015625" xlink:href="#BitstreamVeraSans-Roman-32"/>
      </g>
     </g>
    </g>
    <g id="xtick_9">
     <g id="line2d_25">
      <g>
       <use style="stroke:#000000;stroke-width:0.5;" x="257.7796875" xlink:href="#m93b0483c22" y="522.0"/>
      </g>
     </g>
     <g id="line2d_26">
      <g>
       <use style="stroke:#000000;stroke-width:0.5;" x="257.7796875" xlink:href="#m741efc42ff" y="278.55"/>
      </g>
     </g>
     <g id="text_8">
      <!-- 0.4 -->
      <defs>
       <path d="
M37.7969 64.3125
L12.8906 25.3906
L37.7969 25.3906
z

M35.2031 72.9062
L47.6094 72.9062
L47.6094 25.3906
L58.0156 25.3906
L58.0156 17.1875
L47.6094 17.1875
L47.6094 0
L37.7969 0
L37.7969 17.1875
L4.89062 17.1875
L4.89062 26.7031
z
" id="BitstreamVeraSans-Roman-34"/>
      </defs>
      <g transform="translate(250.43828125 533.5984375)scale(0.1 -0.1)">
       <use xlink:href="#BitstreamVeraSans-Roman-30"/>
       <use x="63.623046875" xlink:href="#BitstreamVeraSans-Roman-2e"/>
       <use x="95.41015625" xlink:href="#BitstreamVeraSans-Roman-34"/>
      </g>
     </g>
    </g>
    <g id="xtick_10">
     <g id="line2d_27">
      <g>
       <use style="stroke:#000000;stroke-width:0.5;" x="357.86953125" xlink:href="#m93b0483c22" y="522.0"/>
      </g>
     </g>
     <g id="line2d_28">
      <g>
       <use style="stroke:#000000;stroke-width:0.5;" x="357.86953125" xlink:href="#m741efc42ff" y="278.55"/>
      </g>
     </g>
     <g id="text_9">
      <!-- 0.6 -->
      <defs>
       <path d="
M33.0156 40.375
Q26.375 40.375 22.4844 35.8281
Q18.6094 31.2969 18.6094 23.3906
Q18.6094 15.5312 22.4844 10.9531
Q26.375 6.39062 33.0156 6.39062
Q39.6562 6.39062 43.5312 10.9531
Q47.4062 15.5312 47.4062 23.3906
Q47.4062 31.2969 43.5312 35.8281
Q39.6562 40.375 33.0156 40.375
M52.5938 71.2969
L52.5938 62.3125
Q48.875 64.0625 45.0938 64.9844
Q41.3125 65.9219 37.5938 65.9219
Q27.8281 65.9219 22.6719 59.3281
Q17.5312 52.7344 16.7969 39.4062
Q19.6719 43.6562 24.0156 45.9219
Q28.375 48.1875 33.5938 48.1875
Q44.5781 48.1875 50.9531 41.5156
Q57.3281 34.8594 57.3281 23.3906
Q57.3281 12.1562 50.6875 5.35938
Q44.0469 -1.42188 33.0156 -1.42188
Q20.3594 -1.42188 13.6719 8.26562
Q6.98438 17.9688 6.98438 36.375
Q6.98438 53.6562 15.1875 63.9375
Q23.3906 74.2188 37.2031 74.2188
Q40.9219 74.2188 44.7031 73.4844
Q48.4844 72.75 52.5938 71.2969" id="BitstreamVeraSans-Roman-36"/>
      </defs>
      <g transform="translate(350.5625 533.5984375)scale(0.1 -0.1)">
       <use xlink:href="#BitstreamVeraSans-Roman-30"/>
       <use x="63.623046875" xlink:href="#BitstreamVeraSans-Roman-2e"/>
       <use x="95.41015625" xlink:href="#BitstreamVeraSans-Roman-36"/>
      </g>
     </g>
    </g>
    <g id="xtick_11">
     <g id="line2d_29">
      <g>
       <use style="stroke:#000000;stroke-width:0.5;" x="457.959375" xlink:href="#m93b0483c22" y="522.0"/>
      </g>
     </g>
     <g id="line2d_30">
      <g>
       <use style="stroke:#000000;stroke-width:0.5;" x="457.959375" xlink:href="#m741efc42ff" y="278.55"/>
      </g>
     </g>
     <g id="text_10">
      <!-- 0.8 -->
      <defs>
       <path d="
M31.7812 34.625
Q24.75 34.625 20.7188 30.8594
Q16.7031 27.0938 16.7031 20.5156
Q16.7031 13.9219 20.7188 10.1562
Q24.75 6.39062 31.7812 6.39062
Q38.8125 6.39062 42.8594 10.1719
Q46.9219 13.9688 46.9219 20.5156
Q46.9219 27.0938 42.8906 30.8594
Q38.875 34.625 31.7812 34.625
M21.9219 38.8125
Q15.5781 40.375 12.0312 44.7188
Q8.5 49.0781 8.5 55.3281
Q8.5 64.0625 14.7188 69.1406
Q20.9531 74.2188 31.7812 74.2188
Q42.6719 74.2188 48.875 69.1406
Q55.0781 64.0625 55.0781 55.3281
Q55.0781 49.0781 51.5312 44.7188
Q48 40.375 41.7031 38.8125
Q48.8281 37.1562 52.7969 32.3125
Q56.7812 27.4844 56.7812 20.5156
Q56.7812 9.90625 50.3125 4.23438
Q43.8438 -1.42188 31.7812 -1.42188
Q19.7344 -1.42188 13.25 4.23438
Q6.78125 9.90625 6.78125 20.5156
Q6.78125 27.4844 10.7812 32.3125
Q14.7969 37.1562 21.9219 38.8125
M18.3125 54.3906
Q18.3125 48.7344 21.8438 45.5625
Q25.3906 42.3906 31.7812 42.3906
Q38.1406 42.3906 41.7188 45.5625
Q45.3125 48.7344 45.3125 54.3906
Q45.3125 60.0625 41.7188 63.2344
Q38.1406 66.4062 31.7812 66.4062
Q25.3906 66.4062 21.8438 63.2344
Q18.3125 60.0625 18.3125 54.3906" id="BitstreamVeraSans-Roman-38"/>
      </defs>
      <g transform="translate(450.6796875 533.5984375)scale(0.1 -0.1)">
       <use xlink:href="#BitstreamVeraSans-Roman-30"/>
       <use x="63.623046875" xlink:href="#BitstreamVeraSans-Roman-2e"/>
       <use x="95.41015625" xlink:href="#BitstreamVeraSans-Roman-38"/>
      </g>
     </g>
    </g>
    <g id="xtick_12">
     <g id="line2d_31">
      <g>
       <use style="stroke:#000000;stroke-width:0.5;" x="558.04921875" xlink:href="#m93b0483c22" y="522.0"/>
      </g>
     </g>
     <g id="line2d_32">
      <g>
       <use style="stroke:#000000;stroke-width:0.5;" x="558.04921875" xlink:href="#m741efc42ff" y="278.55"/>
      </g>
     </g>
     <g id="text_11">
      <!-- 1.0 -->
      <g transform="translate(550.97890625 533.5984375)scale(0.1 -0.1)">
       <use xlink:href="#BitstreamVeraSans-Roman-31"/>
       <use x="63.623046875" xlink:href="#BitstreamVeraSans-Roman-2e"/>
       <use x="95.41015625" xlink:href="#BitstreamVeraSans-Roman-30"/>
      </g>
     </g>
    </g>
    <g id="text_12">
     <!-- Fraction of Dataset Rated -->
     <defs>
      <path id="BitstreamVeraSans-Roman-20"/>
      <path d="
M54.8906 33.0156
L54.8906 0
L45.9062 0
L45.9062 32.7188
Q45.9062 40.4844 42.875 44.3281
Q39.8438 48.1875 33.7969 48.1875
Q26.5156 48.1875 22.3125 43.5469
Q18.1094 38.9219 18.1094 30.9062
L18.1094 0
L9.07812 0
L9.07812 54.6875
L18.1094 54.6875
L18.1094 46.1875
Q21.3438 51.125 25.7031 53.5625
Q30.0781 56 35.7969 56
Q45.2188 56 50.0469 50.1719
Q54.8906 44.3438 54.8906 33.0156" id="BitstreamVeraSans-Roman-6e"/>
      <path d="
M30.6094 48.3906
Q23.3906 48.3906 19.1875 42.75
Q14.9844 37.1094 14.9844 27.2969
Q14.9844 17.4844 19.1562 11.8438
Q23.3438 6.20312 30.6094 6.20312
Q37.7969 6.20312 41.9844 11.8594
Q46.1875 17.5312 46.1875 27.2969
Q46.1875 37.0156 41.9844 42.7031
Q37.7969 48.3906 30.6094 48.3906
M30.6094 56
Q42.3281 56 49.0156 48.375
Q55.7188 40.7656 55.7188 27.2969
Q55.7188 13.875 49.0156 6.21875
Q42.3281 -1.42188 30.6094 -1.42188
Q18.8438 -1.42188 12.1719 6.21875
Q5.51562 13.875 5.51562 27.2969
Q5.51562 40.7656 12.1719 48.375
Q18.8438 56 30.6094 56" id="BitstreamVeraSans-Roman-6f"/>
      <path d="
M9.8125 72.9062
L51.7031 72.9062
L51.7031 64.5938
L19.6719 64.5938
L19.6719 43.1094
L48.5781 43.1094
L48.5781 34.8125
L19.6719 34.8125
L19.6719 0
L9.8125 0
z
" id="BitstreamVeraSans-Roman-46"/>
      <path d="
M44.3906 34.1875
Q47.5625 33.1094 50.5625 29.5938
Q53.5625 26.0781 56.5938 19.9219
L66.6094 0
L56 0
L46.6875 18.7031
Q43.0625 26.0312 39.6719 28.4219
Q36.2812 30.8125 30.4219 30.8125
L19.6719 30.8125
L19.6719 0
L9.8125 0
L9.8125 72.9062
L32.0781 72.9062
Q44.5781 72.9062 50.7344 67.6719
Q56.8906 62.4531 56.8906 51.9062
Q56.8906 45.0156 53.6875 40.4688
Q50.4844 35.9375 44.3906 34.1875
M19.6719 64.7969
L19.6719 38.9219
L32.0781 38.9219
Q39.2031 38.9219 42.8438 42.2188
Q46.4844 45.5156 46.4844 51.9062
Q46.4844 58.2969 42.8438 61.5469
Q39.2031 64.7969 32.0781 64.7969
z
" id="BitstreamVeraSans-Roman-52"/>
      <path d="
M19.6719 64.7969
L19.6719 8.10938
L31.5938 8.10938
Q46.6875 8.10938 53.6875 14.9375
Q60.6875 21.7812 60.6875 36.5312
Q60.6875 51.1719 53.6875 57.9844
Q46.6875 64.7969 31.5938 64.7969
z

M9.8125 72.9062
L30.0781 72.9062
Q51.2656 72.9062 61.1719 64.0938
Q71.0938 55.2812 71.0938 36.5312
Q71.0938 17.6719 61.125 8.82812
Q51.1719 0 30.0781 0
L9.8125 0
z
" id="BitstreamVeraSans-Roman-44"/>
      <path d="
M9.42188 54.6875
L18.4062 54.6875
L18.4062 0
L9.42188 0
z

M9.42188 75.9844
L18.4062 75.9844
L18.4062 64.5938
L9.42188 64.5938
z
" id="BitstreamVeraSans-Roman-69"/>
      <path d="
M45.4062 46.3906
L45.4062 75.9844
L54.3906 75.9844
L54.3906 0
L45.4062 0
L45.4062 8.20312
Q42.5781 3.32812 38.25 0.953125
Q33.9375 -1.42188 27.875 -1.42188
Q17.9688 -1.42188 11.7344 6.48438
Q5.51562 14.4062 5.51562 27.2969
Q5.51562 40.1875 11.7344 48.0938
Q17.9688 56 27.875 56
Q33.9375 56 38.25 53.625
Q42.5781 51.2656 45.4062 46.3906
M14.7969 27.2969
Q14.7969 17.3906 18.875 11.75
Q22.9531 6.10938 30.0781 6.10938
Q37.2031 6.10938 41.2969 11.75
Q45.4062 17.3906 45.4062 27.2969
Q45.4062 37.2031 41.2969 42.8438
Q37.2031 48.4844 30.0781 48.4844
Q22.9531 48.4844 18.875 42.8438
Q14.7969 37.2031 14.7969 27.2969" id="BitstreamVeraSans-Roman-64"/>
      <path d="
M37.1094 75.9844
L37.1094 68.5
L28.5156 68.5
Q23.6875 68.5 21.7969 66.5469
Q19.9219 64.5938 19.9219 59.5156
L19.9219 54.6875
L34.7188 54.6875
L34.7188 47.7031
L19.9219 47.7031
L19.9219 0
L10.8906 0
L10.8906 47.7031
L2.29688 47.7031
L2.29688 54.6875
L10.8906 54.6875
L10.8906 58.5
Q10.8906 67.625 15.1406 71.7969
Q19.3906 75.9844 28.6094 75.9844
z
" id="BitstreamVeraSans-Roman-66"/>
      <path d="
M34.2812 27.4844
Q23.3906 27.4844 19.1875 25
Q14.9844 22.5156 14.9844 16.5
Q14.9844 11.7188 18.1406 8.90625
Q21.2969 6.10938 26.7031 6.10938
Q34.1875 6.10938 38.7031 11.4062
Q43.2188 16.7031 43.2188 25.4844
L43.2188 27.4844
z

M52.2031 31.2031
L52.2031 0
L43.2188 0
L43.2188 8.29688
Q40.1406 3.32812 35.5469 0.953125
Q30.9531 -1.42188 24.3125 -1.42188
Q15.9219 -1.42188 10.9531 3.29688
Q6 8.01562 6 15.9219
Q6 25.1406 12.1719 29.8281
Q18.3594 34.5156 30.6094 34.5156
L43.2188 34.5156
L43.2188 35.4062
Q43.2188 41.6094 39.1406 45
Q35.0625 48.3906 27.6875 48.3906
Q23 48.3906 18.5469 47.2656
Q14.1094 46.1406 10.0156 43.8906
L10.0156 52.2031
Q14.9375 54.1094 19.5781 55.0469
Q24.2188 56 28.6094 56
Q40.4844 56 46.3438 49.8438
Q52.2031 43.7031 52.2031 31.2031" id="BitstreamVeraSans-Roman-61"/>
      <path d="
M48.7812 52.5938
L48.7812 44.1875
Q44.9688 46.2969 41.1406 47.3438
Q37.3125 48.3906 33.4062 48.3906
Q24.6562 48.3906 19.8125 42.8438
Q14.9844 37.3125 14.9844 27.2969
Q14.9844 17.2812 19.8125 11.7344
Q24.6562 6.20312 33.4062 6.20312
Q37.3125 6.20312 41.1406 7.25
Q44.9688 8.29688 48.7812 10.4062
L48.7812 2.09375
Q45.0156 0.34375 40.9844 -0.53125
Q36.9688 -1.42188 32.4219 -1.42188
Q20.0625 -1.42188 12.7812 6.34375
Q5.51562 14.1094 5.51562 27.2969
Q5.51562 40.6719 12.8594 48.3281
Q20.2188 56 33.0156 56
Q37.1562 56 41.1094 55.1406
Q45.0625 54.2969 48.7812 52.5938" id="BitstreamVeraSans-Roman-63"/>
     </defs>
     <g transform="translate(149.555078125 559.67421875)scale(0.25 -0.25)">
      <use xlink:href="#BitstreamVeraSans-Roman-46"/>
      <use x="50.26953125" xlink:href="#BitstreamVeraSans-Roman-72"/>
      <use x="91.3828125" xlink:href="#BitstreamVeraSans-Roman-61"/>
      <use x="152.662109375" xlink:href="#BitstreamVeraSans-Roman-63"/>
      <use x="207.642578125" xlink:href="#BitstreamVeraSans-Roman-74"/>
      <use x="246.8515625" xlink:href="#BitstreamVeraSans-Roman-69"/>
      <use x="274.634765625" xlink:href="#BitstreamVeraSans-Roman-6f"/>
      <use x="335.81640625" xlink:href="#BitstreamVeraSans-Roman-6e"/>
      <use x="399.1953125" xlink:href="#BitstreamVeraSans-Roman-20"/>
      <use x="430.982421875" xlink:href="#BitstreamVeraSans-Roman-6f"/>
      <use x="492.1640625" xlink:href="#BitstreamVeraSans-Roman-66"/>
      <use x="527.369140625" xlink:href="#BitstreamVeraSans-Roman-20"/>
      <use x="559.15625" xlink:href="#BitstreamVeraSans-Roman-44"/>
      <use x="636.158203125" xlink:href="#BitstreamVeraSans-Roman-61"/>
      <use x="697.4375" xlink:href="#BitstreamVeraSans-Roman-74"/>
      <use x="736.646484375" xlink:href="#BitstreamVeraSans-Roman-61"/>
      <use x="797.92578125" xlink:href="#BitstreamVeraSans-Roman-73"/>
      <use x="850.025390625" xlink:href="#BitstreamVeraSans-Roman-65"/>
      <use x="911.548828125" xlink:href="#BitstreamVeraSans-Roman-74"/>
      <use x="950.7578125" xlink:href="#BitstreamVeraSans-Roman-20"/>
      <use x="982.544921875" xlink:href="#BitstreamVeraSans-Roman-52"/>
      <use x="1049.77734375" xlink:href="#BitstreamVeraSans-Roman-61"/>
      <use x="1111.05664062" xlink:href="#BitstreamVeraSans-Roman-74"/>
      <use x="1150.265625" xlink:href="#BitstreamVeraSans-Roman-65"/>
      <use x="1211.7890625" xlink:href="#BitstreamVeraSans-Roman-64"/>
     </g>
    </g>
   </g>
   <g id="matplotlib.axis_4">
    <g id="ytick_5">
     <g id="line2d_33">
      <g>
       <use style="stroke:#000000;stroke-width:0.5;" x="57.6" xlink:href="#m728421d6d4" y="522.0"/>
      </g>
     </g>
     <g id="line2d_34">
      <g>
       <use style="stroke:#000000;stroke-width:0.5;" x="558.04921875" xlink:href="#mcb0005524f" y="522.0"/>
      </g>
     </g>
     <g id="text_13">
      <!-- 0 -->
      <g transform="translate(48.5609375 524.759375)scale(0.1 -0.1)">
       <use xlink:href="#BitstreamVeraSans-Roman-30"/>
      </g>
     </g>
    </g>
    <g id="ytick_6">
     <g id="line2d_35">
      <g>
       <use style="stroke:#000000;stroke-width:0.5;" x="57.6" xlink:href="#m728421d6d4" y="440.85"/>
      </g>
     </g>
     <g id="line2d_36">
      <g>
       <use style="stroke:#000000;stroke-width:0.5;" x="558.04921875" xlink:href="#mcb0005524f" y="440.85"/>
      </g>
     </g>
     <g id="text_14">
      <!-- 500 -->
      <g transform="translate(35.9484375 443.609375)scale(0.1 -0.1)">
       <use xlink:href="#BitstreamVeraSans-Roman-35"/>
       <use x="63.623046875" xlink:href="#BitstreamVeraSans-Roman-30"/>
       <use x="127.24609375" xlink:href="#BitstreamVeraSans-Roman-30"/>
      </g>
     </g>
    </g>
    <g id="ytick_7">
     <g id="line2d_37">
      <g>
       <use style="stroke:#000000;stroke-width:0.5;" x="57.6" xlink:href="#m728421d6d4" y="359.7"/>
      </g>
     </g>
     <g id="line2d_38">
      <g>
       <use style="stroke:#000000;stroke-width:0.5;" x="558.04921875" xlink:href="#mcb0005524f" y="359.7"/>
      </g>
     </g>
     <g id="text_15">
      <!-- 1000 -->
      <g transform="translate(29.9125 362.459375)scale(0.1 -0.1)">
       <use xlink:href="#BitstreamVeraSans-Roman-31"/>
       <use x="63.623046875" xlink:href="#BitstreamVeraSans-Roman-30"/>
       <use x="127.24609375" xlink:href="#BitstreamVeraSans-Roman-30"/>
       <use x="190.869140625" xlink:href="#BitstreamVeraSans-Roman-30"/>
      </g>
     </g>
    </g>
    <g id="ytick_8">
     <g id="line2d_39">
      <g>
       <use style="stroke:#000000;stroke-width:0.5;" x="57.6" xlink:href="#m728421d6d4" y="278.55"/>
      </g>
     </g>
     <g id="line2d_40">
      <g>
       <use style="stroke:#000000;stroke-width:0.5;" x="558.04921875" xlink:href="#mcb0005524f" y="278.55"/>
      </g>
     </g>
     <g id="text_16">
      <!-- 1500 -->
      <g transform="translate(29.9125 281.309375)scale(0.1 -0.1)">
       <use xlink:href="#BitstreamVeraSans-Roman-31"/>
       <use x="63.623046875" xlink:href="#BitstreamVeraSans-Roman-35"/>
       <use x="127.24609375" xlink:href="#BitstreamVeraSans-Roman-30"/>
       <use x="190.869140625" xlink:href="#BitstreamVeraSans-Roman-30"/>
      </g>
     </g>
    </g>
   </g>
   <g id="text_17">
    <!-- MovieLens 1M -->
    <defs>
     <path d="
M2.98438 54.6875
L12.5 54.6875
L29.5938 8.79688
L46.6875 54.6875
L56.2031 54.6875
L35.6875 0
L23.4844 0
z
" id="BitstreamVeraSans-Roman-76"/>
     <path d="
M9.8125 72.9062
L24.5156 72.9062
L43.1094 23.2969
L61.8125 72.9062
L76.5156 72.9062
L76.5156 0
L66.8906 0
L66.8906 64.0156
L48.0938 14.0156
L38.1875 14.0156
L19.3906 64.0156
L19.3906 0
L9.8125 0
z
" id="BitstreamVeraSans-Roman-4d"/>
     <path d="
M9.8125 72.9062
L19.6719 72.9062
L19.6719 8.29688
L55.1719 8.29688
L55.1719 0
L9.8125 0
z
" id="BitstreamVeraSans-Roman-4c"/>
    </defs>
    <g transform="translate(370.601953125 310.0675)scale(0.25 -0.25)">
     <use xlink:href="#BitstreamVeraSans-Roman-4d"/>
     <use x="86.279296875" xlink:href="#BitstreamVeraSans-Roman-6f"/>
     <use x="147.4609375" xlink:href="#BitstreamVeraSans-Roman-76"/>
     <use x="206.640625" xlink:href="#BitstreamVeraSans-Roman-69"/>
     <use x="234.423828125" xlink:href="#BitstreamVeraSans-Roman-65"/>
     <use x="295.947265625" xlink:href="#BitstreamVeraSans-Roman-4c"/>
     <use x="349.91015625" xlink:href="#BitstreamVeraSans-Roman-65"/>
     <use x="411.43359375" xlink:href="#BitstreamVeraSans-Roman-6e"/>
     <use x="474.8125" xlink:href="#BitstreamVeraSans-Roman-73"/>
     <use x="526.912109375" xlink:href="#BitstreamVeraSans-Roman-20"/>
     <use x="558.69921875" xlink:href="#BitstreamVeraSans-Roman-31"/>
     <use x="622.322265625" xlink:href="#BitstreamVeraSans-Roman-4d"/>
    </g>
   </g>
  </g>
  <g id="text_18">
   <!-- Number of Users -->
   <defs>
    <path d="
M52 44.1875
Q55.375 50.25 60.0625 53.125
Q64.75 56 71.0938 56
Q79.6406 56 84.2812 50.0156
Q88.9219 44.0469 88.9219 33.0156
L88.9219 0
L79.8906 0
L79.8906 32.7188
Q79.8906 40.5781 77.0938 44.375
Q74.3125 48.1875 68.6094 48.1875
Q61.625 48.1875 57.5625 43.5469
Q53.5156 38.9219 53.5156 30.9062
L53.5156 0
L44.4844 0
L44.4844 32.7188
Q44.4844 40.625 41.7031 44.4062
Q38.9219 48.1875 33.1094 48.1875
Q26.2188 48.1875 22.1562 43.5312
Q18.1094 38.875 18.1094 30.9062
L18.1094 0
L9.07812 0
L9.07812 54.6875
L18.1094 54.6875
L18.1094 46.1875
Q21.1875 51.2188 25.4844 53.6094
Q29.7812 56 35.6875 56
Q41.6562 56 45.8281 52.9688
Q50 49.9531 52 44.1875" id="BitstreamVeraSans-Roman-6d"/>
    <path d="
M9.8125 72.9062
L23.0938 72.9062
L55.4219 11.9219
L55.4219 72.9062
L64.9844 72.9062
L64.9844 0
L51.7031 0
L19.3906 60.9844
L19.3906 0
L9.8125 0
z
" id="BitstreamVeraSans-Roman-4e"/>
    <path d="
M8.5 21.5781
L8.5 54.6875
L17.4844 54.6875
L17.4844 21.9219
Q17.4844 14.1562 20.5 10.2656
Q23.5312 6.39062 29.5938 6.39062
Q36.8594 6.39062 41.0781 11.0312
Q45.3125 15.6719 45.3125 23.6875
L45.3125 54.6875
L54.2969 54.6875
L54.2969 0
L45.3125 0
L45.3125 8.40625
Q42.0469 3.42188 37.7188 1
Q33.4062 -1.42188 27.6875 -1.42188
Q18.2656 -1.42188 13.375 4.4375
Q8.5 10.2969 8.5 21.5781" id="BitstreamVeraSans-Roman-75"/>
    <path d="
M8.6875 72.9062
L18.6094 72.9062
L18.6094 28.6094
Q18.6094 16.8906 22.8438 11.7344
Q27.0938 6.59375 36.625 6.59375
Q46.0938 6.59375 50.3438 11.7344
Q54.5938 16.8906 54.5938 28.6094
L54.5938 72.9062
L64.5 72.9062
L64.5 27.3906
Q64.5 13.1406 57.4375 5.85938
Q50.3906 -1.42188 36.625 -1.42188
Q22.7969 -1.42188 15.7344 5.85938
Q8.6875 13.1406 8.6875 27.3906
z
" id="BitstreamVeraSans-Roman-55"/>
    <path d="
M48.6875 27.2969
Q48.6875 37.2031 44.6094 42.8438
Q40.5312 48.4844 33.4062 48.4844
Q26.2656 48.4844 22.1875 42.8438
Q18.1094 37.2031 18.1094 27.2969
Q18.1094 17.3906 22.1875 11.75
Q26.2656 6.10938 33.4062 6.10938
Q40.5312 6.10938 44.6094 11.75
Q48.6875 17.3906 48.6875 27.2969
M18.1094 46.3906
Q20.9531 51.2656 25.2656 53.625
Q29.5938 56 35.5938 56
Q45.5625 56 51.7812 48.0938
Q58.0156 40.1875 58.0156 27.2969
Q58.0156 14.4062 51.7812 6.48438
Q45.5625 -1.42188 35.5938 -1.42188
Q29.5938 -1.42188 25.2656 0.953125
Q20.9531 3.32812 18.1094 8.20312
L18.1094 0
L9.07812 0
L9.07812 75.9844
L18.1094 75.9844
z
" id="BitstreamVeraSans-Roman-62"/>
   </defs>
   <g transform="translate(24.75609375 392.6015625)rotate(-90.0)scale(0.25 -0.25)">
    <use xlink:href="#BitstreamVeraSans-Roman-4e"/>
    <use x="74.8046875" xlink:href="#BitstreamVeraSans-Roman-75"/>
    <use x="138.18359375" xlink:href="#BitstreamVeraSans-Roman-6d"/>
    <use x="235.595703125" xlink:href="#BitstreamVeraSans-Roman-62"/>
    <use x="299.072265625" xlink:href="#BitstreamVeraSans-Roman-65"/>
    <use x="360.595703125" xlink:href="#BitstreamVeraSans-Roman-72"/>
    <use x="401.708984375" xlink:href="#BitstreamVeraSans-Roman-20"/>
    <use x="433.49609375" xlink:href="#BitstreamVeraSans-Roman-6f"/>
    <use x="494.677734375" xlink:href="#BitstreamVeraSans-Roman-66"/>
    <use x="529.8828125" xlink:href="#BitstreamVeraSans-Roman-20"/>
    <use x="561.669921875" xlink:href="#BitstreamVeraSans-Roman-55"/>
    <use x="634.86328125" xlink:href="#BitstreamVeraSans-Roman-73"/>
    <use x="686.962890625" xlink:href="#BitstreamVeraSans-Roman-65"/>
    <use x="748.486328125" xlink:href="#BitstreamVeraSans-Roman-72"/>
    <use x="789.599609375" xlink:href="#BitstreamVeraSans-Roman-73"/>
   </g>
  </g>
 </g>
 <defs>
  <clipPath id="p9ac44c7d18">
   <rect height="243.45" width="500.44921875" x="57.6" y="278.55"/>
  </clipPath>
  <clipPath id="pf6197845de">
   <rect height="243.45" width="500.44921875" x="57.6" y="15.3"/>
  </clipPath>
 </defs>
</svg>
