<?xml version="1.0" encoding="utf-8" standalone="no"?>
<!DOCTYPE svg PUBLIC "-//W3C//DTD SVG 1.1//EN"
  "http://www.w3.org/Graphics/SVG/1.1/DTD/svg11.dtd">
<!-- Created with matplotlib (http://matplotlib.org/) -->
<svg height="404pt" version="1.1" viewBox="0 0 734 404" width="734pt" xmlns="http://www.w3.org/2000/svg" xmlns:xlink="http://www.w3.org/1999/xlink">
 <defs>
  <style type="text/css">
*{stroke-linecap:butt;stroke-linejoin:round;stroke-miterlimit:100000;}
  </style>
 </defs>
 <g id="figure_1">
  <g id="patch_1">
   <path d="M 0 404.76525 
L 734.04685 404.76525 
L 734.04685 0 
L 0 0 
z
" style="fill:#ffffff;"/>
  </g>
  <g id="axes_1">
   <g id="patch_2">
    <path d="M 57.24685 377.427125 
L 726.84685 377.427125 
L 726.84685 42.627125 
L 57.24685 42.627125 
z
" style="fill:#ffffff;"/>
   </g>
   <g id="matplotlib.axis_1">
    <g id="xtick_1">
     <g id="line2d_1"/>
     <g id="line2d_2"/>
     <g id="text_1">
      <!-- Monday -->
      <defs>
       <path d="M 40.4375 6.390625 
Q 35.546875 2.25 31.03125 0.53125 
Q 26.515625 -1.171875 21.34375 -1.171875 
Q 12.796875 -1.171875 8.203125 3 
Q 3.609375 7.171875 3.609375 13.671875 
Q 3.609375 17.484375 5.34375 20.625 
Q 7.078125 23.78125 9.890625 25.6875 
Q 12.703125 27.59375 16.21875 28.5625 
Q 18.796875 29.25 24.03125 29.890625 
Q 34.671875 31.15625 39.703125 32.90625 
Q 39.75 34.71875 39.75 35.203125 
Q 39.75 40.578125 37.25 42.78125 
Q 33.890625 45.75 27.25 45.75 
Q 21.046875 45.75 18.09375 43.578125 
Q 15.140625 41.40625 13.71875 35.890625 
L 5.125 37.0625 
Q 6.296875 42.578125 8.984375 45.96875 
Q 11.671875 49.359375 16.75 51.1875 
Q 21.828125 53.03125 28.515625 53.03125 
Q 35.15625 53.03125 39.296875 51.46875 
Q 43.453125 49.90625 45.40625 47.53125 
Q 47.359375 45.171875 48.140625 41.546875 
Q 48.578125 39.3125 48.578125 33.453125 
L 48.578125 21.734375 
Q 48.578125 9.46875 49.140625 6.21875 
Q 49.703125 2.984375 51.375 0 
L 42.1875 0 
Q 40.828125 2.734375 40.4375 6.390625 
M 39.703125 26.03125 
Q 34.90625 24.078125 25.34375 22.703125 
Q 19.921875 21.921875 17.671875 20.9375 
Q 15.4375 19.96875 14.203125 18.09375 
Q 12.984375 16.21875 12.984375 13.921875 
Q 12.984375 10.40625 15.640625 8.0625 
Q 18.3125 5.71875 23.4375 5.71875 
Q 28.515625 5.71875 32.46875 7.9375 
Q 36.421875 10.15625 38.28125 14.015625 
Q 39.703125 17 39.703125 22.796875 
z
" id="ArialMT-61"/>
       <path d="M 6.203125 -19.96875 
L 5.21875 -11.71875 
Q 8.109375 -12.5 10.25 -12.5 
Q 13.1875 -12.5 14.9375 -11.515625 
Q 16.703125 -10.546875 17.828125 -8.796875 
Q 18.65625 -7.46875 20.515625 -2.25 
Q 20.75 -1.515625 21.296875 -0.09375 
L 1.609375 51.859375 
L 11.078125 51.859375 
L 21.875 21.828125 
Q 23.96875 16.109375 25.640625 9.8125 
Q 27.15625 15.875 29.25 21.625 
L 40.328125 51.859375 
L 49.125 51.859375 
L 29.390625 -0.875 
Q 26.21875 -9.421875 24.46875 -12.640625 
Q 22.125 -17 19.09375 -19.015625 
Q 16.0625 -21.046875 11.859375 -21.046875 
Q 9.328125 -21.046875 6.203125 -19.96875 
" id="ArialMT-79"/>
       <path d="M 40.234375 0 
L 40.234375 6.546875 
Q 35.296875 -1.171875 25.734375 -1.171875 
Q 19.53125 -1.171875 14.328125 2.25 
Q 9.125 5.671875 6.265625 11.796875 
Q 3.421875 17.921875 3.421875 25.875 
Q 3.421875 33.640625 6 39.96875 
Q 8.59375 46.296875 13.765625 49.65625 
Q 18.953125 53.03125 25.34375 53.03125 
Q 30.03125 53.03125 33.6875 51.046875 
Q 37.359375 49.078125 39.65625 45.90625 
L 39.65625 71.578125 
L 48.390625 71.578125 
L 48.390625 0 
z
M 12.453125 25.875 
Q 12.453125 15.921875 16.640625 10.984375 
Q 20.84375 6.0625 26.5625 6.0625 
Q 32.328125 6.0625 36.34375 10.765625 
Q 40.375 15.484375 40.375 25.140625 
Q 40.375 35.796875 36.265625 40.765625 
Q 32.171875 45.75 26.171875 45.75 
Q 20.3125 45.75 16.375 40.96875 
Q 12.453125 36.1875 12.453125 25.875 
" id="ArialMT-64"/>
       <path d="M 3.328125 25.921875 
Q 3.328125 40.328125 11.328125 47.265625 
Q 18.015625 53.03125 27.640625 53.03125 
Q 38.328125 53.03125 45.109375 46.015625 
Q 51.90625 39.015625 51.90625 26.65625 
Q 51.90625 16.65625 48.90625 10.90625 
Q 45.90625 5.171875 40.15625 2 
Q 34.421875 -1.171875 27.640625 -1.171875 
Q 16.75 -1.171875 10.03125 5.8125 
Q 3.328125 12.796875 3.328125 25.921875 
M 12.359375 25.921875 
Q 12.359375 15.96875 16.703125 11.015625 
Q 21.046875 6.0625 27.640625 6.0625 
Q 34.1875 6.0625 38.53125 11.03125 
Q 42.875 16.015625 42.875 26.21875 
Q 42.875 35.84375 38.5 40.796875 
Q 34.125 45.75 27.640625 45.75 
Q 21.046875 45.75 16.703125 40.8125 
Q 12.359375 35.890625 12.359375 25.921875 
" id="ArialMT-6f"/>
       <path d="M 6.59375 0 
L 6.59375 51.859375 
L 14.5 51.859375 
L 14.5 44.484375 
Q 20.21875 53.03125 31 53.03125 
Q 35.6875 53.03125 39.625 51.34375 
Q 43.5625 49.65625 45.515625 46.921875 
Q 47.46875 44.1875 48.25 40.4375 
Q 48.734375 37.984375 48.734375 31.890625 
L 48.734375 0 
L 39.9375 0 
L 39.9375 31.546875 
Q 39.9375 36.921875 38.90625 39.578125 
Q 37.890625 42.234375 35.28125 43.8125 
Q 32.671875 45.40625 29.15625 45.40625 
Q 23.53125 45.40625 19.453125 41.84375 
Q 15.375 38.28125 15.375 28.328125 
L 15.375 0 
z
" id="ArialMT-6e"/>
       <path d="M 7.421875 0 
L 7.421875 71.578125 
L 21.6875 71.578125 
L 38.625 20.90625 
Q 40.96875 13.8125 42.046875 10.296875 
Q 43.265625 14.203125 45.84375 21.78125 
L 62.984375 71.578125 
L 75.734375 71.578125 
L 75.734375 0 
L 66.609375 0 
L 66.609375 59.90625 
L 45.796875 0 
L 37.25 0 
L 16.546875 60.9375 
L 16.546875 0 
z
" id="ArialMT-4d"/>
      </defs>
      <g style="fill:#262626;" transform="translate(80.1740151786 394.4480625)scale(0.14 -0.14)">
       <use xlink:href="#ArialMT-4d"/>
       <use x="83.30078125" xlink:href="#ArialMT-6f"/>
       <use x="138.916015625" xlink:href="#ArialMT-6e"/>
       <use x="194.53125" xlink:href="#ArialMT-64"/>
       <use x="250.146484375" xlink:href="#ArialMT-61"/>
       <use x="305.76171875" xlink:href="#ArialMT-79"/>
      </g>
     </g>
    </g>
    <g id="xtick_2">
     <g id="line2d_3"/>
     <g id="line2d_4"/>
     <g id="text_2">
      <!-- Tuesday -->
      <defs>
       <path d="M 40.578125 0 
L 40.578125 7.625 
Q 34.515625 -1.171875 24.125 -1.171875 
Q 19.53125 -1.171875 15.546875 0.578125 
Q 11.578125 2.34375 9.640625 5 
Q 7.71875 7.671875 6.9375 11.53125 
Q 6.390625 14.109375 6.390625 19.734375 
L 6.390625 51.859375 
L 15.1875 51.859375 
L 15.1875 23.09375 
Q 15.1875 16.21875 15.71875 13.8125 
Q 16.546875 10.359375 19.234375 8.375 
Q 21.921875 6.390625 25.875 6.390625 
Q 29.828125 6.390625 33.296875 8.421875 
Q 36.765625 10.453125 38.203125 13.9375 
Q 39.65625 17.4375 39.65625 24.078125 
L 39.65625 51.859375 
L 48.4375 51.859375 
L 48.4375 0 
z
" id="ArialMT-75"/>
       <path d="M 42.09375 16.703125 
L 51.171875 15.578125 
Q 49.03125 7.625 43.21875 3.21875 
Q 37.40625 -1.171875 28.375 -1.171875 
Q 17 -1.171875 10.328125 5.828125 
Q 3.65625 12.84375 3.65625 25.484375 
Q 3.65625 38.578125 10.390625 45.796875 
Q 17.140625 53.03125 27.875 53.03125 
Q 38.28125 53.03125 44.875 45.953125 
Q 51.46875 38.875 51.46875 26.03125 
Q 51.46875 25.25 51.421875 23.6875 
L 12.75 23.6875 
Q 13.234375 15.140625 17.578125 10.59375 
Q 21.921875 6.0625 28.421875 6.0625 
Q 33.25 6.0625 36.671875 8.59375 
Q 40.09375 11.140625 42.09375 16.703125 
M 13.234375 30.90625 
L 42.1875 30.90625 
Q 41.609375 37.453125 38.875 40.71875 
Q 34.671875 45.796875 27.984375 45.796875 
Q 21.921875 45.796875 17.796875 41.75 
Q 13.671875 37.703125 13.234375 30.90625 
" id="ArialMT-65"/>
       <path d="M 25.921875 0 
L 25.921875 63.140625 
L 2.34375 63.140625 
L 2.34375 71.578125 
L 59.078125 71.578125 
L 59.078125 63.140625 
L 35.40625 63.140625 
L 35.40625 0 
z
" id="ArialMT-54"/>
       <path d="M 3.078125 15.484375 
L 11.765625 16.84375 
Q 12.5 11.625 15.84375 8.84375 
Q 19.1875 6.0625 25.203125 6.0625 
Q 31.25 6.0625 34.171875 8.515625 
Q 37.109375 10.984375 37.109375 14.3125 
Q 37.109375 17.28125 34.515625 19 
Q 32.71875 20.171875 25.53125 21.96875 
Q 15.875 24.421875 12.140625 26.203125 
Q 8.40625 27.984375 6.46875 31.125 
Q 4.546875 34.28125 4.546875 38.09375 
Q 4.546875 41.546875 6.125 44.5 
Q 7.71875 47.46875 10.453125 49.421875 
Q 12.5 50.921875 16.03125 51.96875 
Q 19.578125 53.03125 23.640625 53.03125 
Q 29.734375 53.03125 34.34375 51.265625 
Q 38.96875 49.515625 41.15625 46.5 
Q 43.359375 43.5 44.1875 38.484375 
L 35.59375 37.3125 
Q 35.015625 41.3125 32.203125 43.546875 
Q 29.390625 45.796875 24.265625 45.796875 
Q 18.21875 45.796875 15.625 43.796875 
Q 13.03125 41.796875 13.03125 39.109375 
Q 13.03125 37.40625 14.109375 36.03125 
Q 15.1875 34.625 17.484375 33.6875 
Q 18.796875 33.203125 25.25 31.453125 
Q 34.578125 28.953125 38.25 27.359375 
Q 41.9375 25.78125 44.03125 22.75 
Q 46.140625 19.734375 46.140625 15.234375 
Q 46.140625 10.84375 43.578125 6.953125 
Q 41.015625 3.078125 36.171875 0.953125 
Q 31.34375 -1.171875 25.25 -1.171875 
Q 15.140625 -1.171875 9.84375 3.03125 
Q 4.546875 7.234375 3.078125 15.484375 
" id="ArialMT-73"/>
      </defs>
      <g style="fill:#262626;" transform="translate(173.889751786 394.4480625)scale(0.14 -0.14)">
       <use xlink:href="#ArialMT-54"/>
       <use x="61.037109375" xlink:href="#ArialMT-75"/>
       <use x="116.65234375" xlink:href="#ArialMT-65"/>
       <use x="172.267578125" xlink:href="#ArialMT-73"/>
       <use x="222.267578125" xlink:href="#ArialMT-64"/>
       <use x="277.8828125" xlink:href="#ArialMT-61"/>
       <use x="333.498046875" xlink:href="#ArialMT-79"/>
      </g>
     </g>
    </g>
    <g id="xtick_3">
     <g id="line2d_5"/>
     <g id="line2d_6"/>
     <g id="text_3">
      <!-- Wednesday -->
      <defs>
       <path d="M 20.21875 0 
L 1.21875 71.578125 
L 10.9375 71.578125 
L 21.828125 24.65625 
Q 23.578125 17.28125 24.859375 10.015625 
Q 27.59375 21.484375 28.078125 23.25 
L 41.703125 71.578125 
L 53.125 71.578125 
L 63.375 35.359375 
Q 67.234375 21.875 68.953125 10.015625 
Q 70.3125 16.796875 72.515625 25.59375 
L 83.734375 71.578125 
L 93.265625 71.578125 
L 73.640625 0 
L 64.5 0 
L 49.421875 54.546875 
Q 47.515625 61.375 47.171875 62.9375 
Q 46.046875 58.015625 45.0625 54.546875 
L 29.890625 0 
z
" id="ArialMT-57"/>
      </defs>
      <g style="fill:#262626;" transform="translate(259.427519643 394.4480625)scale(0.14 -0.14)">
       <use xlink:href="#ArialMT-57"/>
       <use x="94.369140625" xlink:href="#ArialMT-65"/>
       <use x="149.984375" xlink:href="#ArialMT-64"/>
       <use x="205.599609375" xlink:href="#ArialMT-6e"/>
       <use x="261.21484375" xlink:href="#ArialMT-65"/>
       <use x="316.830078125" xlink:href="#ArialMT-73"/>
       <use x="366.830078125" xlink:href="#ArialMT-64"/>
       <use x="422.4453125" xlink:href="#ArialMT-61"/>
       <use x="478.060546875" xlink:href="#ArialMT-79"/>
      </g>
     </g>
    </g>
    <g id="xtick_4">
     <g id="line2d_7"/>
     <g id="line2d_8"/>
     <g id="text_4">
      <!-- Thursday -->
      <defs>
       <path d="M 6.59375 0 
L 6.59375 71.578125 
L 15.375 71.578125 
L 15.375 45.90625 
Q 21.53125 53.03125 30.90625 53.03125 
Q 36.671875 53.03125 40.921875 50.75 
Q 45.171875 48.484375 47 44.484375 
Q 48.828125 40.484375 48.828125 32.859375 
L 48.828125 0 
L 40.046875 0 
L 40.046875 32.859375 
Q 40.046875 39.453125 37.1875 42.453125 
Q 34.328125 45.453125 29.109375 45.453125 
Q 25.203125 45.453125 21.75 43.421875 
Q 18.3125 41.40625 16.84375 37.9375 
Q 15.375 34.46875 15.375 28.375 
L 15.375 0 
z
" id="ArialMT-68"/>
       <path d="M 6.5 0 
L 6.5 51.859375 
L 14.40625 51.859375 
L 14.40625 44 
Q 17.4375 49.515625 20 51.265625 
Q 22.5625 53.03125 25.640625 53.03125 
Q 30.078125 53.03125 34.671875 50.203125 
L 31.640625 42.046875 
Q 28.421875 43.953125 25.203125 43.953125 
Q 22.3125 43.953125 20.015625 42.21875 
Q 17.71875 40.484375 16.75 37.40625 
Q 15.28125 32.71875 15.28125 27.15625 
L 15.28125 0 
z
" id="ArialMT-72"/>
      </defs>
      <g style="fill:#262626;" transform="translate(362.869975 394.4480625)scale(0.14 -0.14)">
       <use xlink:href="#ArialMT-54"/>
       <use x="61.083984375" xlink:href="#ArialMT-68"/>
       <use x="116.69921875" xlink:href="#ArialMT-75"/>
       <use x="172.314453125" xlink:href="#ArialMT-72"/>
       <use x="205.615234375" xlink:href="#ArialMT-73"/>
       <use x="255.615234375" xlink:href="#ArialMT-64"/>
       <use x="311.23046875" xlink:href="#ArialMT-61"/>
       <use x="366.845703125" xlink:href="#ArialMT-79"/>
      </g>
     </g>
    </g>
    <g id="xtick_5">
     <g id="line2d_9"/>
     <g id="line2d_10"/>
     <g id="text_5">
      <!-- Friday -->
      <defs>
       <path d="M 6.640625 61.46875 
L 6.640625 71.578125 
L 15.4375 71.578125 
L 15.4375 61.46875 
z
M 6.640625 0 
L 6.640625 51.859375 
L 15.4375 51.859375 
L 15.4375 0 
z
" id="ArialMT-69"/>
       <path d="M 8.203125 0 
L 8.203125 71.578125 
L 56.5 71.578125 
L 56.5 63.140625 
L 17.671875 63.140625 
L 17.671875 40.96875 
L 51.265625 40.96875 
L 51.265625 32.515625 
L 17.671875 32.515625 
L 17.671875 0 
z
" id="ArialMT-46"/>
      </defs>
      <g style="fill:#262626;" transform="translate(468.257117857 394.4480625)scale(0.14 -0.14)">
       <use xlink:href="#ArialMT-46"/>
       <use x="61.083984375" xlink:href="#ArialMT-72"/>
       <use x="94.384765625" xlink:href="#ArialMT-69"/>
       <use x="116.6015625" xlink:href="#ArialMT-64"/>
       <use x="172.216796875" xlink:href="#ArialMT-61"/>
       <use x="227.83203125" xlink:href="#ArialMT-79"/>
      </g>
     </g>
    </g>
    <g id="xtick_6">
     <g id="line2d_11"/>
     <g id="line2d_12"/>
     <g id="text_6">
      <!-- Saturday -->
      <defs>
       <path d="M 25.78125 7.859375 
L 27.046875 0.09375 
Q 23.34375 -0.6875 20.40625 -0.6875 
Q 15.625 -0.6875 12.984375 0.828125 
Q 10.359375 2.34375 9.28125 4.8125 
Q 8.203125 7.28125 8.203125 15.1875 
L 8.203125 45.015625 
L 1.765625 45.015625 
L 1.765625 51.859375 
L 8.203125 51.859375 
L 8.203125 64.703125 
L 16.9375 69.96875 
L 16.9375 51.859375 
L 25.78125 51.859375 
L 25.78125 45.015625 
L 16.9375 45.015625 
L 16.9375 14.703125 
Q 16.9375 10.9375 17.40625 9.859375 
Q 17.875 8.796875 18.921875 8.15625 
Q 19.96875 7.515625 21.921875 7.515625 
Q 23.390625 7.515625 25.78125 7.859375 
" id="ArialMT-74"/>
       <path d="M 4.5 23 
L 13.421875 23.78125 
Q 14.0625 18.40625 16.375 14.96875 
Q 18.703125 11.53125 23.578125 9.40625 
Q 28.46875 7.28125 34.578125 7.28125 
Q 39.984375 7.28125 44.140625 8.890625 
Q 48.296875 10.5 50.3125 13.296875 
Q 52.34375 16.109375 52.34375 19.4375 
Q 52.34375 22.796875 50.390625 25.3125 
Q 48.4375 27.828125 43.953125 29.546875 
Q 41.0625 30.671875 31.203125 33.03125 
Q 21.34375 35.40625 17.390625 37.5 
Q 12.25 40.1875 9.734375 44.15625 
Q 7.234375 48.140625 7.234375 53.078125 
Q 7.234375 58.5 10.296875 63.203125 
Q 13.375 67.921875 19.28125 70.359375 
Q 25.203125 72.796875 32.421875 72.796875 
Q 40.375 72.796875 46.453125 70.234375 
Q 52.546875 67.671875 55.8125 62.6875 
Q 59.078125 57.71875 59.328125 51.421875 
L 50.25 50.734375 
Q 49.515625 57.515625 45.28125 60.984375 
Q 41.0625 64.453125 32.8125 64.453125 
Q 24.21875 64.453125 20.28125 61.296875 
Q 16.359375 58.15625 16.359375 53.71875 
Q 16.359375 49.859375 19.140625 47.359375 
Q 21.875 44.875 33.421875 42.265625 
Q 44.96875 39.65625 49.265625 37.703125 
Q 55.515625 34.8125 58.484375 30.390625 
Q 61.46875 25.984375 61.46875 20.21875 
Q 61.46875 14.5 58.203125 9.4375 
Q 54.9375 4.390625 48.796875 1.578125 
Q 42.671875 -1.21875 35.015625 -1.21875 
Q 25.296875 -1.21875 18.71875 1.609375 
Q 12.15625 4.4375 8.421875 10.125 
Q 4.6875 15.828125 4.5 23 
" id="ArialMT-53"/>
      </defs>
      <g style="fill:#262626;" transform="translate(555.345823214 394.6186875)scale(0.14 -0.14)">
       <use xlink:href="#ArialMT-53"/>
       <use x="66.69921875" xlink:href="#ArialMT-61"/>
       <use x="122.314453125" xlink:href="#ArialMT-74"/>
       <use x="150.09765625" xlink:href="#ArialMT-75"/>
       <use x="205.712890625" xlink:href="#ArialMT-72"/>
       <use x="239.013671875" xlink:href="#ArialMT-64"/>
       <use x="294.62890625" xlink:href="#ArialMT-61"/>
       <use x="350.244140625" xlink:href="#ArialMT-79"/>
      </g>
     </g>
    </g>
    <g id="xtick_7">
     <g id="line2d_13"/>
     <g id="line2d_14"/>
     <g id="text_7">
      <!-- Sunday -->
      <g style="fill:#262626;" transform="translate(655.278434821 394.6186875)scale(0.14 -0.14)">
       <use xlink:href="#ArialMT-53"/>
       <use x="66.69921875" xlink:href="#ArialMT-75"/>
       <use x="122.314453125" xlink:href="#ArialMT-6e"/>
       <use x="177.9296875" xlink:href="#ArialMT-64"/>
       <use x="233.544921875" xlink:href="#ArialMT-61"/>
       <use x="289.16015625" xlink:href="#ArialMT-79"/>
      </g>
     </g>
    </g>
   </g>
   <g id="matplotlib.axis_2">
    <g id="ytick_1">
     <g id="line2d_15"/>
     <g id="line2d_16"/>
     <g id="text_8">
      <!-- 0 -->
      <defs>
       <path d="M 4.15625 35.296875 
Q 4.15625 48 6.765625 55.734375 
Q 9.375 63.484375 14.515625 67.671875 
Q 19.671875 71.875 27.484375 71.875 
Q 33.25 71.875 37.59375 69.546875 
Q 41.9375 67.234375 44.765625 62.859375 
Q 47.609375 58.5 49.21875 52.21875 
Q 50.828125 45.953125 50.828125 35.296875 
Q 50.828125 22.703125 48.234375 14.96875 
Q 45.65625 7.234375 40.5 3 
Q 35.359375 -1.21875 27.484375 -1.21875 
Q 17.140625 -1.21875 11.234375 6.203125 
Q 4.15625 15.140625 4.15625 35.296875 
M 13.1875 35.296875 
Q 13.1875 17.671875 17.3125 11.828125 
Q 21.4375 6 27.484375 6 
Q 33.546875 6 37.671875 11.859375 
Q 41.796875 17.71875 41.796875 35.296875 
Q 41.796875 52.984375 37.671875 58.78125 
Q 33.546875 64.59375 27.390625 64.59375 
Q 21.34375 64.59375 17.71875 59.46875 
Q 13.1875 52.9375 13.1875 35.296875 
" id="ArialMT-30"/>
      </defs>
      <g style="fill:#262626;" transform="translate(44.6859125 380.01228125)scale(0.1 -0.1)">
       <use xlink:href="#ArialMT-30"/>
      </g>
     </g>
    </g>
    <g id="ytick_2">
     <g id="line2d_17"/>
     <g id="line2d_18"/>
     <g id="text_9">
      <!-- 500 -->
      <defs>
       <path d="M 4.15625 18.75 
L 13.375 19.53125 
Q 14.40625 12.796875 18.140625 9.390625 
Q 21.875 6 27.15625 6 
Q 33.5 6 37.890625 10.78125 
Q 42.28125 15.578125 42.28125 23.484375 
Q 42.28125 31 38.0625 35.34375 
Q 33.84375 39.703125 27 39.703125 
Q 22.75 39.703125 19.328125 37.765625 
Q 15.921875 35.84375 13.96875 32.765625 
L 5.71875 33.84375 
L 12.640625 70.609375 
L 48.25 70.609375 
L 48.25 62.203125 
L 19.671875 62.203125 
L 15.828125 42.96875 
Q 22.265625 47.46875 29.34375 47.46875 
Q 38.71875 47.46875 45.15625 40.96875 
Q 51.609375 34.46875 51.609375 24.265625 
Q 51.609375 14.546875 45.953125 7.46875 
Q 39.0625 -1.21875 27.15625 -1.21875 
Q 17.390625 -1.21875 11.203125 4.25 
Q 5.03125 9.71875 4.15625 18.75 
" id="ArialMT-35"/>
      </defs>
      <g style="fill:#262626;" transform="translate(33.5640375 324.21228125)scale(0.1 -0.1)">
       <use xlink:href="#ArialMT-35"/>
       <use x="55.615234375" xlink:href="#ArialMT-30"/>
       <use x="111.23046875" xlink:href="#ArialMT-30"/>
      </g>
     </g>
    </g>
    <g id="ytick_3">
     <g id="line2d_19"/>
     <g id="line2d_20"/>
     <g id="text_10">
      <!-- 1000 -->
      <defs>
       <path d="M 37.25 0 
L 28.46875 0 
L 28.46875 56 
Q 25.296875 52.984375 20.140625 49.953125 
Q 14.984375 46.921875 10.890625 45.40625 
L 10.890625 53.90625 
Q 18.265625 57.375 23.78125 62.296875 
Q 29.296875 67.234375 31.59375 71.875 
L 37.25 71.875 
z
" id="ArialMT-31"/>
      </defs>
      <g style="fill:#262626;" transform="translate(28.0031 268.41228125)scale(0.1 -0.1)">
       <use xlink:href="#ArialMT-31"/>
       <use x="55.615234375" xlink:href="#ArialMT-30"/>
       <use x="111.23046875" xlink:href="#ArialMT-30"/>
       <use x="166.845703125" xlink:href="#ArialMT-30"/>
      </g>
     </g>
    </g>
    <g id="ytick_4">
     <g id="line2d_21"/>
     <g id="line2d_22"/>
     <g id="text_11">
      <!-- 1500 -->
      <g style="fill:#262626;" transform="translate(28.0031 212.61228125)scale(0.1 -0.1)">
       <use xlink:href="#ArialMT-31"/>
       <use x="55.615234375" xlink:href="#ArialMT-35"/>
       <use x="111.23046875" xlink:href="#ArialMT-30"/>
       <use x="166.845703125" xlink:href="#ArialMT-30"/>
      </g>
     </g>
    </g>
    <g id="ytick_5">
     <g id="line2d_23"/>
     <g id="line2d_24"/>
     <g id="text_12">
      <!-- 2000 -->
      <defs>
       <path d="M 50.34375 8.453125 
L 50.34375 0 
L 3.03125 0 
Q 2.9375 3.171875 4.046875 6.109375 
Q 5.859375 10.9375 9.828125 15.625 
Q 13.8125 20.3125 21.34375 26.46875 
Q 33.015625 36.03125 37.109375 41.625 
Q 41.21875 47.21875 41.21875 52.203125 
Q 41.21875 57.421875 37.46875 61 
Q 33.734375 64.59375 27.734375 64.59375 
Q 21.390625 64.59375 17.578125 60.78125 
Q 13.765625 56.984375 13.71875 50.25 
L 4.6875 51.171875 
Q 5.609375 61.28125 11.65625 66.578125 
Q 17.71875 71.875 27.9375 71.875 
Q 38.234375 71.875 44.234375 66.15625 
Q 50.25 60.453125 50.25 52 
Q 50.25 47.703125 48.484375 43.546875 
Q 46.734375 39.40625 42.65625 34.8125 
Q 38.578125 30.21875 29.109375 22.21875 
Q 21.1875 15.578125 18.9375 13.203125 
Q 16.703125 10.84375 15.234375 8.453125 
z
" id="ArialMT-32"/>
      </defs>
      <g style="fill:#262626;" transform="translate(28.0031 156.81228125)scale(0.1 -0.1)">
       <use xlink:href="#ArialMT-32"/>
       <use x="55.615234375" xlink:href="#ArialMT-30"/>
       <use x="111.23046875" xlink:href="#ArialMT-30"/>
       <use x="166.845703125" xlink:href="#ArialMT-30"/>
      </g>
     </g>
    </g>
    <g id="ytick_6">
     <g id="line2d_25"/>
     <g id="line2d_26"/>
     <g id="text_13">
      <!-- 2500 -->
      <g style="fill:#262626;" transform="translate(28.0031 101.01228125)scale(0.1 -0.1)">
       <use xlink:href="#ArialMT-32"/>
       <use x="55.615234375" xlink:href="#ArialMT-35"/>
       <use x="111.23046875" xlink:href="#ArialMT-30"/>
       <use x="166.845703125" xlink:href="#ArialMT-30"/>
      </g>
     </g>
    </g>
    <g id="ytick_7">
     <g id="line2d_27"/>
     <g id="line2d_28"/>
     <g id="text_14">
      <!-- 3000 -->
      <defs>
       <path d="M 4.203125 18.890625 
L 12.984375 20.0625 
Q 14.5 12.59375 18.140625 9.296875 
Q 21.78125 6 27 6 
Q 33.203125 6 37.46875 10.296875 
Q 41.75 14.59375 41.75 20.953125 
Q 41.75 27 37.796875 30.921875 
Q 33.84375 34.859375 27.734375 34.859375 
Q 25.25 34.859375 21.53125 33.890625 
L 22.515625 41.609375 
Q 23.390625 41.5 23.921875 41.5 
Q 29.546875 41.5 34.03125 44.421875 
Q 38.53125 47.359375 38.53125 53.46875 
Q 38.53125 58.296875 35.25 61.46875 
Q 31.984375 64.65625 26.8125 64.65625 
Q 21.6875 64.65625 18.265625 61.421875 
Q 14.84375 58.203125 13.875 51.765625 
L 5.078125 53.328125 
Q 6.6875 62.15625 12.390625 67.015625 
Q 18.109375 71.875 26.609375 71.875 
Q 32.46875 71.875 37.390625 69.359375 
Q 42.328125 66.84375 44.9375 62.5 
Q 47.5625 58.15625 47.5625 53.265625 
Q 47.5625 48.640625 45.0625 44.828125 
Q 42.578125 41.015625 37.703125 38.765625 
Q 44.046875 37.3125 47.5625 32.6875 
Q 51.078125 28.078125 51.078125 21.140625 
Q 51.078125 11.765625 44.234375 5.25 
Q 37.40625 -1.265625 26.953125 -1.265625 
Q 17.53125 -1.265625 11.296875 4.34375 
Q 5.078125 9.96875 4.203125 18.890625 
" id="ArialMT-33"/>
      </defs>
      <g style="fill:#262626;" transform="translate(28.0031 45.21228125)scale(0.1 -0.1)">
       <use xlink:href="#ArialMT-33"/>
       <use x="55.615234375" xlink:href="#ArialMT-30"/>
       <use x="111.23046875" xlink:href="#ArialMT-30"/>
       <use x="166.845703125" xlink:href="#ArialMT-30"/>
      </g>
     </g>
    </g>
    <g id="text_15">
     <!-- Accidents -->
     <defs>
      <path d="M -0.140625 0 
L 27.34375 71.578125 
L 37.546875 71.578125 
L 66.84375 0 
L 56.0625 0 
L 47.703125 21.6875 
L 17.78125 21.6875 
L 9.90625 0 
z
M 20.515625 29.390625 
L 44.78125 29.390625 
L 37.3125 49.21875 
Q 33.890625 58.25 32.234375 64.0625 
Q 30.859375 57.171875 28.375 50.390625 
z
" id="ArialMT-41"/>
      <path d="M 40.4375 19 
L 49.078125 17.875 
Q 47.65625 8.9375 41.8125 3.875 
Q 35.984375 -1.171875 27.484375 -1.171875 
Q 16.84375 -1.171875 10.375 5.78125 
Q 3.90625 12.75 3.90625 25.734375 
Q 3.90625 34.125 6.6875 40.421875 
Q 9.46875 46.734375 15.15625 49.875 
Q 20.84375 53.03125 27.546875 53.03125 
Q 35.984375 53.03125 41.359375 48.75 
Q 46.734375 44.484375 48.25 36.625 
L 39.703125 35.296875 
Q 38.484375 40.53125 35.375 43.15625 
Q 32.28125 45.796875 27.875 45.796875 
Q 21.234375 45.796875 17.078125 41.03125 
Q 12.9375 36.28125 12.9375 25.984375 
Q 12.9375 15.53125 16.9375 10.796875 
Q 20.953125 6.0625 27.390625 6.0625 
Q 32.5625 6.0625 36.03125 9.234375 
Q 39.5 12.40625 40.4375 19 
" id="ArialMT-63"/>
     </defs>
     <g style="fill:#262626;" transform="translate(19.5687 247.484225)rotate(-90.0)scale(0.1728 -0.1728)">
      <use xlink:href="#ArialMT-41"/>
      <use x="66.69921875" xlink:href="#ArialMT-63"/>
      <use x="116.69921875" xlink:href="#ArialMT-63"/>
      <use x="166.69921875" xlink:href="#ArialMT-69"/>
      <use x="188.916015625" xlink:href="#ArialMT-64"/>
      <use x="244.53125" xlink:href="#ArialMT-65"/>
      <use x="300.146484375" xlink:href="#ArialMT-6e"/>
      <use x="355.76171875" xlink:href="#ArialMT-74"/>
      <use x="383.544921875" xlink:href="#ArialMT-73"/>
     </g>
    </g>
   </g>
   <g id="PolyCollection_1">
    <defs>
     <path d="M 105.340967 -97.757725 
L 104.809876 -97.757725 
L 104.721927 -99.550089 
L 104.591688 -101.342452 
L 104.400808 -103.134816 
L 104.132212 -104.92718 
L 103.774873 -106.719543 
L 103.328472 -108.511907 
L 102.806532 -110.30427 
L 102.236561 -112.096634 
L 101.656127 -113.888998 
L 101.104596 -115.681361 
L 100.611719 -117.473725 
L 100.185627 -119.266089 
L 99.80369 -121.058452 
L 99.409426 -122.850816 
L 98.917285 -124.64318 
L 98.225282 -126.435543 
L 97.233562 -128.227907 
L 95.865566 -130.02027 
L 94.087527 -131.812634 
L 91.92178 -133.604998 
L 89.45017 -135.397361 
L 86.805887 -137.189725 
L 84.155092 -138.982089 
L 81.672531 -140.774452 
L 79.516797 -142.566816 
L 77.81042 -144.35918 
L 76.627967 -146.151543 
L 75.99291 -147.943907 
L 75.88203 -149.73627 
L 76.234755 -151.528634 
L 76.964172 -153.320998 
L 77.966686 -155.113361 
L 79.1288 -156.905725 
L 80.331905 -158.698089 
L 81.457868 -160.490452 
L 82.397971 -162.282816 
L 83.065236 -164.07518 
L 83.406872 -165.867543 
L 83.412203 -167.659907 
L 83.112822 -169.45227 
L 82.574968 -171.244634 
L 81.886864 -173.036998 
L 81.144561 -174.829361 
L 80.439195 -176.621725 
L 79.847615 -178.414089 
L 79.427961 -180.206452 
L 79.221055 -181.998816 
L 79.256663 -183.79118 
L 79.560946 -185.583543 
L 80.159734 -187.375907 
L 81.07372 -189.16827 
L 82.3064 -190.960634 
L 83.830923 -192.752998 
L 85.584344 -194.545361 
L 87.474798 -196.337725 
L 89.400352 -198.130089 
L 91.271736 -199.922452 
L 93.028931 -201.714816 
L 94.64501 -203.50718 
L 96.117429 -205.299543 
L 97.453074 -207.091907 
L 98.655365 -208.88427 
L 99.719113 -210.676634 
L 100.633693 -212.468998 
L 101.390765 -214.261361 
L 101.991355 -216.053725 
L 102.448724 -217.846089 
L 102.786424 -219.638452 
L 103.03329 -221.430816 
L 103.217891 -223.22318 
L 103.364261 -225.015543 
L 103.489628 -226.807907 
L 103.603981 -228.60027 
L 103.711048 -230.392634 
L 103.810219 -232.184998 
L 103.898949 -233.977361 
L 103.975084 -235.769725 
L 104.038512 -237.562089 
L 104.091719 -239.354452 
L 104.139187 -241.146816 
L 104.185984 -242.93918 
L 104.236165 -244.731543 
L 104.29166 -246.523907 
L 104.352088 -248.31627 
L 104.415529 -250.108634 
L 104.479811 -251.900998 
L 104.543577 -253.693361 
L 104.606561 -255.485725 
L 104.668925 -257.278089 
L 104.730159 -259.070452 
L 104.788267 -260.862816 
L 104.839842 -262.65518 
L 104.881084 -264.447543 
L 104.909284 -266.239907 
L 104.924096 -268.03227 
L 104.927994 -269.824634 
L 104.925714 -271.616998 
L 104.922892 -273.409361 
L 104.924413 -275.201725 
L 105.22643 -275.201725 
L 105.22643 -275.201725 
L 105.227951 -273.409361 
L 105.225129 -271.616998 
L 105.222849 -269.824634 
L 105.226747 -268.03227 
L 105.241559 -266.239907 
L 105.269759 -264.447543 
L 105.311001 -262.65518 
L 105.362576 -260.862816 
L 105.420684 -259.070452 
L 105.481917 -257.278089 
L 105.544282 -255.485725 
L 105.607266 -253.693361 
L 105.671032 -251.900998 
L 105.735314 -250.108634 
L 105.798755 -248.31627 
L 105.859183 -246.523907 
L 105.914678 -244.731543 
L 105.964859 -242.93918 
L 106.011656 -241.146816 
L 106.059124 -239.354452 
L 106.112331 -237.562089 
L 106.175759 -235.769725 
L 106.251894 -233.977361 
L 106.340624 -232.184998 
L 106.439795 -230.392634 
L 106.546862 -228.60027 
L 106.661215 -226.807907 
L 106.786581 -225.015543 
L 106.932952 -223.22318 
L 107.117553 -221.430816 
L 107.364419 -219.638452 
L 107.702118 -217.846089 
L 108.159488 -216.053725 
L 108.760078 -214.261361 
L 109.51715 -212.468998 
L 110.43173 -210.676634 
L 111.495478 -208.88427 
L 112.697769 -207.091907 
L 114.033414 -205.299543 
L 115.505833 -203.50718 
L 117.121912 -201.714816 
L 118.879107 -199.922452 
L 120.750491 -198.130089 
L 122.676045 -196.337725 
L 124.566499 -194.545361 
L 126.319919 -192.752998 
L 127.844442 -190.960634 
L 129.077123 -189.16827 
L 129.991109 -187.375907 
L 130.589896 -185.583543 
L 130.89418 -183.79118 
L 130.929788 -181.998816 
L 130.722882 -180.206452 
L 130.303227 -178.414089 
L 129.711648 -176.621725 
L 129.006282 -174.829361 
L 128.263979 -173.036998 
L 127.575874 -171.244634 
L 127.038021 -169.45227 
L 126.738639 -167.659907 
L 126.743971 -165.867543 
L 127.085607 -164.07518 
L 127.752872 -162.282816 
L 128.692975 -160.490452 
L 129.818937 -158.698089 
L 131.022043 -156.905725 
L 132.184157 -155.113361 
L 133.186671 -153.320998 
L 133.916088 -151.528634 
L 134.268813 -149.73627 
L 134.157933 -147.943907 
L 133.522876 -146.151543 
L 132.340422 -144.35918 
L 130.634046 -142.566816 
L 128.478312 -140.774452 
L 125.995751 -138.982089 
L 123.344956 -137.189725 
L 120.700673 -135.397361 
L 118.229063 -133.604998 
L 116.063316 -131.812634 
L 114.285276 -130.02027 
L 112.917281 -128.227907 
L 111.925561 -126.435543 
L 111.233558 -124.64318 
L 110.741417 -122.850816 
L 110.347152 -121.058452 
L 109.965216 -119.266089 
L 109.539124 -117.473725 
L 109.046247 -115.681361 
L 108.494716 -113.888998 
L 107.914281 -112.096634 
L 107.344311 -110.30427 
L 106.82237 -108.511907 
L 106.37597 -106.719543 
L 106.018631 -104.92718 
L 105.750035 -103.134816 
L 105.559155 -101.342452 
L 105.428916 -99.550089 
L 105.340967 -97.757725 
z
" id="m96f9939a14" style="stroke:#353535;stroke-width:1.75;"/>
    </defs>
    <g clip-path="url(#p8636d4d34d)">
     <use style="fill:#367182;stroke:#353535;stroke-width:1.75;" x="0.0" xlink:href="#m96f9939a14" y="404.76525"/>
    </g>
   </g>
   <g id="PolyCollection_2">
    <defs>
     <path d="M 200.991518 -96.753325 
L 200.473611 -96.753325 
L 200.449252 -98.49947 
L 200.436689 -100.245616 
L 200.434826 -101.991761 
L 200.439994 -103.737907 
L 200.446822 -105.484052 
L 200.4494 -107.230198 
L 200.442195 -108.976343 
L 200.420372 -110.722489 
L 200.379497 -112.468634 
L 200.314975 -114.21478 
L 200.221467 -115.960925 
L 200.092207 -117.70707 
L 199.917673 -119.453216 
L 199.683194 -121.199361 
L 199.365791 -122.945507 
L 198.931598 -124.691652 
L 198.335746 -126.437798 
L 197.52609 -128.183943 
L 196.450778 -129.930089 
L 195.068063 -131.676234 
L 193.355874 -133.42238 
L 191.318887 -135.168525 
L 188.99198 -136.91467 
L 186.440319 -138.660816 
L 183.757054 -140.406961 
L 181.05926 -142.153107 
L 178.481521 -143.899252 
L 176.165598 -145.645398 
L 174.245165 -147.391543 
L 172.827056 -149.137689 
L 171.973422 -150.883834 
L 171.690481 -152.62998 
L 171.927637 -154.376125 
L 172.586646 -156.12227 
L 173.536893 -157.868416 
L 174.632068 -159.614561 
L 175.725572 -161.360707 
L 176.684571 -163.106852 
L 177.403329 -164.852998 
L 177.814908 -166.599143 
L 177.898281 -168.345289 
L 177.677672 -170.091434 
L 177.21322 -171.83758 
L 176.585523 -173.583725 
L 175.879074 -175.32987 
L 175.169617 -177.076016 
L 174.518183 -178.822161 
L 173.971446 -180.568307 
L 173.565634 -182.314452 
L 173.330639 -184.060598 
L 173.292173 -185.806743 
L 173.47185 -187.552889 
L 173.886462 -189.299034 
L 174.547449 -191.04518 
L 175.460057 -192.791325 
L 176.6206 -194.53747 
L 178.011374 -196.283616 
L 179.595545 -198.029761 
L 181.316474 -199.775907 
L 183.104616 -201.522052 
L 184.890661 -203.268198 
L 186.619062 -205.014343 
L 188.255402 -206.760489 
L 189.784869 -208.506634 
L 191.204541 -210.25278 
L 192.515024 -211.998925 
L 193.715704 -213.74507 
L 194.804146 -215.491216 
L 195.777484 -217.237361 
L 196.633546 -218.983507 
L 197.371169 -220.729652 
L 197.990554 -222.475798 
L 198.494409 -224.221943 
L 198.889537 -225.968089 
L 199.187764 -227.714234 
L 199.405356 -229.46038 
L 199.561088 -231.206525 
L 199.673817 -232.95267 
L 199.76042 -234.698816 
L 199.834424 -236.444961 
L 199.905142 -238.191107 
L 199.977196 -239.937252 
L 200.050541 -241.683398 
L 200.121276 -243.429543 
L 200.183308 -245.175689 
L 200.230514 -246.921834 
L 200.258826 -248.66798 
L 200.267634 -250.414125 
L 200.260137 -252.16027 
L 200.242553 -253.906416 
L 200.222381 -255.652561 
L 200.206314 -257.398707 
L 200.198588 -259.144852 
L 200.200521 -260.890998 
L 200.21141 -262.637143 
L 200.23019 -264.383289 
L 200.256785 -266.129434 
L 200.292269 -267.87558 
L 200.337746 -269.621725 
L 201.127382 -269.621725 
L 201.127382 -269.621725 
L 201.17286 -267.87558 
L 201.208343 -266.129434 
L 201.234939 -264.383289 
L 201.253719 -262.637143 
L 201.264608 -260.890998 
L 201.266541 -259.144852 
L 201.258815 -257.398707 
L 201.242747 -255.652561 
L 201.222576 -253.906416 
L 201.204991 -252.16027 
L 201.197495 -250.414125 
L 201.206302 -248.66798 
L 201.234614 -246.921834 
L 201.28182 -245.175689 
L 201.343852 -243.429543 
L 201.414588 -241.683398 
L 201.487933 -239.937252 
L 201.559987 -238.191107 
L 201.630705 -236.444961 
L 201.704708 -234.698816 
L 201.791312 -232.95267 
L 201.90404 -231.206525 
L 202.059773 -229.46038 
L 202.277365 -227.714234 
L 202.575591 -225.968089 
L 202.97072 -224.221943 
L 203.474575 -222.475798 
L 204.093959 -220.729652 
L 204.831582 -218.983507 
L 205.687644 -217.237361 
L 206.660982 -215.491216 
L 207.749424 -213.74507 
L 208.950104 -211.998925 
L 210.260588 -210.25278 
L 211.680259 -208.506634 
L 213.209727 -206.760489 
L 214.846066 -205.014343 
L 216.574467 -203.268198 
L 218.360512 -201.522052 
L 220.148655 -199.775907 
L 221.869584 -198.029761 
L 223.453755 -196.283616 
L 224.844528 -194.53747 
L 226.005072 -192.791325 
L 226.917679 -191.04518 
L 227.578667 -189.299034 
L 227.993278 -187.552889 
L 228.172955 -185.806743 
L 228.13449 -184.060598 
L 227.899495 -182.314452 
L 227.493683 -180.568307 
L 226.946946 -178.822161 
L 226.295511 -177.076016 
L 225.586054 -175.32987 
L 224.879606 -173.583725 
L 224.251909 -171.83758 
L 223.787456 -170.091434 
L 223.566847 -168.345289 
L 223.65022 -166.599143 
L 224.0618 -164.852998 
L 224.780558 -163.106852 
L 225.739557 -161.360707 
L 226.833061 -159.614561 
L 227.928236 -157.868416 
L 228.878483 -156.12227 
L 229.537492 -154.376125 
L 229.774648 -152.62998 
L 229.491707 -150.883834 
L 228.638073 -149.137689 
L 227.219964 -147.391543 
L 225.299531 -145.645398 
L 222.983607 -143.899252 
L 220.405868 -142.153107 
L 217.708074 -140.406961 
L 215.02481 -138.660816 
L 212.473149 -136.91467 
L 210.146242 -135.168525 
L 208.109254 -133.42238 
L 206.397066 -131.676234 
L 205.014351 -129.930089 
L 203.939039 -128.183943 
L 203.129382 -126.437798 
L 202.53353 -124.691652 
L 202.099338 -122.945507 
L 201.781935 -121.199361 
L 201.547456 -119.453216 
L 201.372922 -117.70707 
L 201.243662 -115.960925 
L 201.150154 -114.21478 
L 201.085631 -112.468634 
L 201.044757 -110.722489 
L 201.022933 -108.976343 
L 201.015729 -107.230198 
L 201.018307 -105.484052 
L 201.025135 -103.737907 
L 201.030303 -101.991761 
L 201.02844 -100.245616 
L 201.015877 -98.49947 
L 200.991518 -96.753325 
z
" id="m1a48268a4d" style="stroke:#353535;stroke-width:1.75;"/>
    </defs>
    <g clip-path="url(#p8636d4d34d)">
     <use style="fill:#2f837f;stroke:#353535;stroke-width:1.75;" x="0.0" xlink:href="#m1a48268a4d" y="404.76525"/>
    </g>
   </g>
   <g id="PolyCollection_3">
    <defs>
     <path d="M 296.548578 -89.387725 
L 296.230836 -89.387725 
L 296.238055 -91.261252 
L 296.257751 -93.13478 
L 296.284318 -95.008307 
L 296.310739 -96.881834 
L 296.330619 -98.755361 
L 296.339417 -100.628889 
L 296.334724 -102.502416 
L 296.316061 -104.375943 
L 296.284624 -106.24947 
L 296.242983 -108.122998 
L 296.194398 -109.996525 
L 296.141663 -111.870052 
L 296.085828 -113.74358 
L 296.025314 -115.617107 
L 295.955363 -117.490634 
L 295.866845 -119.364161 
L 295.743263 -121.237689 
L 295.555942 -123.111216 
L 295.259481 -124.984743 
L 294.791075 -126.85827 
L 294.076723 -128.731798 
L 293.044317 -130.605325 
L 291.639708 -132.478852 
L 289.839603 -134.35238 
L 287.656415 -136.225907 
L 285.134673 -138.099434 
L 282.343567 -139.972961 
L 279.37216 -141.846489 
L 276.330731 -143.720016 
L 273.355125 -145.593543 
L 270.605683 -147.46707 
L 268.253215 -149.340598 
L 266.451991 -151.214125 
L 265.308618 -153.087652 
L 264.859087 -154.96118 
L 265.062219 -156.834707 
L 265.809982 -158.708234 
L 266.949028 -160.581761 
L 268.305554 -162.455289 
L 269.706583 -164.328816 
L 270.994122 -166.202343 
L 272.033346 -168.07587 
L 272.719727 -169.949398 
L 272.989912 -171.822925 
L 272.836197 -173.696452 
L 272.317287 -175.56998 
L 271.554316 -177.443507 
L 270.70551 -179.317034 
L 269.925337 -181.190561 
L 269.326589 -183.064089 
L 268.965846 -184.937616 
L 268.859444 -186.811143 
L 269.016886 -188.68467 
L 269.467116 -190.558198 
L 270.259459 -192.431725 
L 271.439621 -194.305252 
L 273.017103 -196.17878 
L 274.943235 -198.052307 
L 277.110481 -199.925834 
L 279.372429 -201.799361 
L 281.576774 -203.672889 
L 283.600677 -205.546416 
L 285.376949 -207.419943 
L 286.901287 -209.29347 
L 288.217181 -211.166998 
L 289.385291 -213.040525 
L 290.452016 -214.914052 
L 291.431905 -216.78758 
L 292.309972 -218.661107 
L 293.058751 -220.534634 
L 293.658334 -222.408161 
L 294.108807 -224.281689 
L 294.431015 -226.155216 
L 294.658302 -228.028743 
L 294.825207 -229.90227 
L 294.958711 -231.775798 
L 295.074988 -233.649325 
L 295.181476 -235.522852 
L 295.281504 -237.39638 
L 295.3779 -239.269907 
L 295.473491 -241.143434 
L 295.56923 -243.016961 
L 295.662562 -244.890489 
L 295.748144 -246.764016 
L 295.820721 -248.637543 
L 295.878146 -250.51107 
L 295.922571 -252.384598 
L 295.959371 -254.258125 
L 295.994747 -256.131652 
L 296.033298 -258.00518 
L 296.0764 -259.878707 
L 296.121747 -261.752234 
L 296.16417 -263.625761 
L 296.197653 -265.499289 
L 296.217987 -267.372816 
L 296.224969 -269.246343 
L 296.222977 -271.11987 
L 296.219428 -272.993398 
L 296.221724 -274.866925 
L 296.557691 -274.866925 
L 296.557691 -274.866925 
L 296.559987 -272.993398 
L 296.556437 -271.11987 
L 296.554446 -269.246343 
L 296.561427 -267.372816 
L 296.581761 -265.499289 
L 296.615244 -263.625761 
L 296.657667 -261.752234 
L 296.703014 -259.878707 
L 296.746116 -258.00518 
L 296.784667 -256.131652 
L 296.820043 -254.258125 
L 296.856843 -252.384598 
L 296.901268 -250.51107 
L 296.958693 -248.637543 
L 297.031271 -246.764016 
L 297.116852 -244.890489 
L 297.210184 -243.016961 
L 297.305923 -241.143434 
L 297.401514 -239.269907 
L 297.49791 -237.39638 
L 297.597939 -235.522852 
L 297.704427 -233.649325 
L 297.820703 -231.775798 
L 297.954207 -229.90227 
L 298.121112 -228.028743 
L 298.348399 -226.155216 
L 298.670607 -224.281689 
L 299.121081 -222.408161 
L 299.720663 -220.534634 
L 300.469442 -218.661107 
L 301.347509 -216.78758 
L 302.327398 -214.914052 
L 303.394123 -213.040525 
L 304.562234 -211.166998 
L 305.878128 -209.29347 
L 307.402465 -207.419943 
L 309.178737 -205.546416 
L 311.20264 -203.672889 
L 313.406985 -201.799361 
L 315.668933 -199.925834 
L 317.83618 -198.052307 
L 319.762312 -196.17878 
L 321.339793 -194.305252 
L 322.519956 -192.431725 
L 323.312298 -190.558198 
L 323.762528 -188.68467 
L 323.91997 -186.811143 
L 323.813568 -184.937616 
L 323.452825 -183.064089 
L 322.854077 -181.190561 
L 322.073904 -179.317034 
L 321.225099 -177.443507 
L 320.462127 -175.56998 
L 319.943218 -173.696452 
L 319.789502 -171.822925 
L 320.059688 -169.949398 
L 320.746068 -168.07587 
L 321.785292 -166.202343 
L 323.072831 -164.328816 
L 324.47386 -162.455289 
L 325.830387 -160.581761 
L 326.969432 -158.708234 
L 327.717195 -156.834707 
L 327.920328 -154.96118 
L 327.470797 -153.087652 
L 326.327423 -151.214125 
L 324.526199 -149.340598 
L 322.173731 -147.46707 
L 319.424289 -145.593543 
L 316.448683 -143.720016 
L 313.407254 -141.846489 
L 310.435847 -139.972961 
L 307.644741 -138.099434 
L 305.122999 -136.225907 
L 302.939811 -134.35238 
L 301.139706 -132.478852 
L 299.735097 -130.605325 
L 298.702691 -128.731798 
L 297.988339 -126.85827 
L 297.519934 -124.984743 
L 297.223473 -123.111216 
L 297.036152 -121.237689 
L 296.912569 -119.364161 
L 296.824051 -117.490634 
L 296.7541 -115.617107 
L 296.693587 -113.74358 
L 296.637751 -111.870052 
L 296.585016 -109.996525 
L 296.536431 -108.122998 
L 296.49479 -106.24947 
L 296.463353 -104.375943 
L 296.44469 -102.502416 
L 296.439997 -100.628889 
L 296.448795 -98.755361 
L 296.468675 -96.881834 
L 296.495096 -95.008307 
L 296.521664 -93.13478 
L 296.541359 -91.261252 
L 296.548578 -89.387725 
z
" id="m0f3e25dece" style="stroke:#353535;stroke-width:1.75;"/>
    </defs>
    <g clip-path="url(#p8636d4d34d)">
     <use style="fill:#33977c;stroke:#353535;stroke-width:1.75;" x="0.0" xlink:href="#m0f3e25dece" y="404.76525"/>
    </g>
   </g>
   <g id="PolyCollection_4">
    <defs>
     <path d="M 392.710644 -102.779725 
L 391.383056 -102.779725 
L 391.244982 -104.536016 
L 391.125577 -106.292307 
L 391.033657 -108.048598 
L 390.972104 -109.804889 
L 390.93842 -111.56118 
L 390.926888 -113.31747 
L 390.93042 -115.073761 
L 390.940459 -116.830052 
L 390.944962 -118.586343 
L 390.926168 -120.342634 
L 390.860066 -122.098925 
L 390.717957 -123.855216 
L 390.468642 -125.611507 
L 390.079452 -127.367798 
L 389.515809 -129.124089 
L 388.740943 -130.88038 
L 387.717873 -132.63667 
L 386.414309 -134.392961 
L 384.809098 -136.149252 
L 382.898122 -137.905543 
L 380.698672 -139.661834 
L 378.252915 -141.418125 
L 375.63126 -143.174416 
L 372.934572 -144.930707 
L 370.291651 -146.686998 
L 367.847906 -148.443289 
L 365.744051 -150.19958 
L 364.089251 -151.95587 
L 362.938259 -153.712161 
L 362.283035 -155.468452 
L 362.064099 -157.224743 
L 362.197078 -158.981034 
L 362.601148 -160.737325 
L 363.214592 -162.493616 
L 363.990853 -164.249907 
L 364.881287 -166.006198 
L 365.819216 -167.762489 
L 366.717431 -169.51878 
L 367.480514 -171.27507 
L 368.023319 -173.031361 
L 368.285265 -174.787652 
L 368.236563 -176.543943 
L 367.879747 -178.300234 
L 367.251492 -180.056525 
L 366.425303 -181.812816 
L 365.51069 -183.569107 
L 364.64389 -185.325398 
L 363.969459 -187.081689 
L 363.61743 -188.83798 
L 363.68303 -190.59427 
L 364.214088 -192.350561 
L 365.207564 -194.106852 
L 366.613936 -195.863143 
L 368.34779 -197.619434 
L 370.303263 -199.375725 
L 372.372195 -201.132016 
L 374.460982 -202.888307 
L 376.501163 -204.644598 
L 378.450626 -206.400889 
L 380.286385 -208.15718 
L 381.993649 -209.91347 
L 383.55698 -211.669761 
L 384.957315 -213.426052 
L 386.175095 -215.182343 
L 387.196897 -216.938634 
L 388.021822 -218.694925 
L 388.664568 -220.451216 
L 389.153742 -222.207507 
L 389.525988 -223.963798 
L 389.81822 -225.720089 
L 390.061001 -227.47638 
L 390.275382 -229.23267 
L 390.473624 -230.988961 
L 390.662228 -232.745252 
L 390.844905 -234.501543 
L 391.023842 -236.257834 
L 391.199269 -238.014125 
L 391.368554 -239.770416 
L 391.526168 -241.526707 
L 391.664996 -243.282998 
L 391.778439 -245.039289 
L 391.86231 -246.79558 
L 391.915801 -248.55187 
L 391.941471 -250.308161 
L 391.944646 -252.064452 
L 391.932606 -253.820743 
L 391.913641 -255.577034 
L 391.895799 -257.333325 
L 391.885334 -259.089616 
L 391.885228 -260.845907 
L 391.894464 -262.602198 
L 391.908569 -264.358489 
L 391.921398 -266.11478 
L 391.927545 -267.87107 
L 391.924458 -269.627361 
L 391.91343 -271.383652 
L 391.899118 -273.139943 
L 391.887769 -274.896234 
L 391.884879 -276.652525 
L 392.208821 -276.652525 
L 392.208821 -276.652525 
L 392.205931 -274.896234 
L 392.194582 -273.139943 
L 392.18027 -271.383652 
L 392.169242 -269.627361 
L 392.166155 -267.87107 
L 392.172302 -266.11478 
L 392.185131 -264.358489 
L 392.199236 -262.602198 
L 392.208472 -260.845907 
L 392.208366 -259.089616 
L 392.197901 -257.333325 
L 392.180059 -255.577034 
L 392.161094 -253.820743 
L 392.149054 -252.064452 
L 392.152229 -250.308161 
L 392.177899 -248.55187 
L 392.23139 -246.79558 
L 392.315261 -245.039289 
L 392.428704 -243.282998 
L 392.567532 -241.526707 
L 392.725146 -239.770416 
L 392.894431 -238.014125 
L 393.069858 -236.257834 
L 393.248795 -234.501543 
L 393.431472 -232.745252 
L 393.620076 -230.988961 
L 393.818318 -229.23267 
L 394.032699 -227.47638 
L 394.27548 -225.720089 
L 394.567712 -223.963798 
L 394.939958 -222.207507 
L 395.429132 -220.451216 
L 396.071878 -218.694925 
L 396.896803 -216.938634 
L 397.918605 -215.182343 
L 399.136385 -213.426052 
L 400.53672 -211.669761 
L 402.100051 -209.91347 
L 403.807315 -208.15718 
L 405.643074 -206.400889 
L 407.592537 -204.644598 
L 409.632718 -202.888307 
L 411.721505 -201.132016 
L 413.790437 -199.375725 
L 415.74591 -197.619434 
L 417.479764 -195.863143 
L 418.886136 -194.106852 
L 419.879612 -192.350561 
L 420.41067 -190.59427 
L 420.47627 -188.83798 
L 420.124241 -187.081689 
L 419.44981 -185.325398 
L 418.58301 -183.569107 
L 417.668397 -181.812816 
L 416.842208 -180.056525 
L 416.213953 -178.300234 
L 415.857137 -176.543943 
L 415.808435 -174.787652 
L 416.070381 -173.031361 
L 416.613186 -171.27507 
L 417.376269 -169.51878 
L 418.274484 -167.762489 
L 419.212413 -166.006198 
L 420.102847 -164.249907 
L 420.879108 -162.493616 
L 421.492552 -160.737325 
L 421.896622 -158.981034 
L 422.029601 -157.224743 
L 421.810665 -155.468452 
L 421.155441 -153.712161 
L 420.004449 -151.95587 
L 418.349649 -150.19958 
L 416.245794 -148.443289 
L 413.802049 -146.686998 
L 411.159128 -144.930707 
L 408.46244 -143.174416 
L 405.840785 -141.418125 
L 403.395028 -139.661834 
L 401.195578 -137.905543 
L 399.284602 -136.149252 
L 397.679391 -134.392961 
L 396.375827 -132.63667 
L 395.352757 -130.88038 
L 394.577891 -129.124089 
L 394.014248 -127.367798 
L 393.625058 -125.611507 
L 393.375743 -123.855216 
L 393.233634 -122.098925 
L 393.167532 -120.342634 
L 393.148738 -118.586343 
L 393.153241 -116.830052 
L 393.16328 -115.073761 
L 393.166812 -113.31747 
L 393.15528 -111.56118 
L 393.121596 -109.804889 
L 393.060043 -108.048598 
L 392.968123 -106.292307 
L 392.848718 -104.536016 
L 392.710644 -102.779725 
z
" id="m6adf0163c2" style="stroke:#353535;stroke-width:1.75;"/>
    </defs>
    <g clip-path="url(#p8636d4d34d)">
     <use style="fill:#53b075;stroke:#353535;stroke-width:1.75;" x="0.0" xlink:href="#m6adf0163c2" y="404.76525"/>
    </g>
   </g>
   <g id="PolyCollection_5">
    <defs>
     <path d="M 488.186811 -107.690125 
L 487.221175 -107.690125 
L 487.044307 -110.16787 
L 486.843482 -112.645616 
L 486.631159 -115.123361 
L 486.422364 -117.601107 
L 486.231385 -120.078852 
L 486.069167 -122.556598 
L 485.941289 -125.034343 
L 485.8447 -127.512089 
L 485.76214 -129.989834 
L 485.656273 -132.46758 
L 485.468057 -134.945325 
L 485.122487 -137.42307 
L 484.539999 -139.900816 
L 483.64805 -142.378561 
L 482.38872 -144.856307 
L 480.723999 -147.334052 
L 478.644992 -149.811798 
L 476.189028 -152.289543 
L 473.459749 -154.767289 
L 470.636438 -157.245034 
L 467.958589 -159.72278 
L 465.682515 -162.200525 
L 464.022647 -164.67827 
L 463.100402 -167.156016 
L 462.920719 -169.633761 
L 463.382598 -172.111507 
L 464.314535 -174.589252 
L 465.518379 -177.066998 
L 466.807631 -179.544743 
L 468.033074 -182.022489 
L 469.093141 -184.500234 
L 469.928151 -186.97798 
L 470.500676 -189.455725 
L 470.77147 -191.93347 
L 470.686839 -194.411216 
L 470.191187 -196.888961 
L 469.264761 -199.366707 
L 467.968623 -201.844452 
L 466.469188 -204.322198 
L 465.021641 -206.799943 
L 463.912305 -209.277689 
L 463.382187 -211.755434 
L 463.563984 -214.23318 
L 464.457292 -216.710925 
L 465.947183 -219.18867 
L 467.851948 -221.666416 
L 469.976782 -224.144161 
L 472.153926 -226.621907 
L 474.261003 -229.099652 
L 476.220404 -231.577398 
L 477.988592 -234.055143 
L 479.544374 -236.532889 
L 480.881674 -239.010634 
L 482.007591 -241.48838 
L 482.942709 -243.966125 
L 483.71936 -246.44387 
L 484.37541 -248.921616 
L 484.944869 -251.399361 
L 485.449425 -253.877107 
L 485.894966 -256.354852 
L 486.274526 -258.832598 
L 486.575969 -261.310343 
L 486.790933 -263.788089 
L 486.921522 -266.265834 
L 486.982428 -268.74358 
L 486.997974 -271.221325 
L 486.995482 -273.69907 
L 486.997934 -276.176816 
L 487.019105 -278.654561 
L 487.062825 -281.132307 
L 487.12564 -283.610052 
L 487.200489 -286.087798 
L 487.279338 -288.565543 
L 487.354422 -291.043289 
L 487.419132 -293.521034 
L 487.469345 -295.99878 
L 487.504792 -298.476525 
L 487.529213 -300.95427 
L 487.548648 -303.432016 
L 487.568603 -305.909761 
L 487.591729 -308.387507 
L 487.617296 -310.865252 
L 487.642436 -313.342998 
L 487.664096 -315.820743 
L 487.680476 -318.298489 
L 487.691394 -320.776234 
L 487.697804 -323.25398 
L 487.701018 -325.731725 
L 487.702078 -328.20947 
L 487.701422 -330.687216 
L 487.698775 -333.164961 
L 487.693223 -335.642707 
L 487.683504 -338.120452 
L 487.668611 -340.598198 
L 487.648657 -343.075943 
L 487.625632 -345.553689 
L 487.603527 -348.031434 
L 487.587373 -350.50918 
L 487.58143 -352.986925 
L 487.826555 -352.986925 
L 487.826555 -352.986925 
L 487.820613 -350.50918 
L 487.804459 -348.031434 
L 487.782354 -345.553689 
L 487.759329 -343.075943 
L 487.739374 -340.598198 
L 487.724482 -338.120452 
L 487.714763 -335.642707 
L 487.709211 -333.164961 
L 487.706564 -330.687216 
L 487.705908 -328.20947 
L 487.706968 -325.731725 
L 487.710182 -323.25398 
L 487.716592 -320.776234 
L 487.72751 -318.298489 
L 487.743889 -315.820743 
L 487.76555 -313.342998 
L 487.79069 -310.865252 
L 487.816257 -308.387507 
L 487.839383 -305.909761 
L 487.859338 -303.432016 
L 487.878773 -300.95427 
L 487.903193 -298.476525 
L 487.93864 -295.99878 
L 487.988854 -293.521034 
L 488.053563 -291.043289 
L 488.128648 -288.565543 
L 488.207496 -286.087798 
L 488.282346 -283.610052 
L 488.345161 -281.132307 
L 488.38888 -278.654561 
L 488.410051 -276.176816 
L 488.412504 -273.69907 
L 488.410011 -271.221325 
L 488.425557 -268.74358 
L 488.486464 -266.265834 
L 488.617052 -263.788089 
L 488.832017 -261.310343 
L 489.13346 -258.832598 
L 489.51302 -256.354852 
L 489.95856 -253.877107 
L 490.463117 -251.399361 
L 491.032576 -248.921616 
L 491.688626 -246.44387 
L 492.465277 -243.966125 
L 493.400395 -241.48838 
L 494.526311 -239.010634 
L 495.863611 -236.532889 
L 497.419393 -234.055143 
L 499.187582 -231.577398 
L 501.146983 -229.099652 
L 503.25406 -226.621907 
L 505.431204 -224.144161 
L 507.556038 -221.666416 
L 509.460803 -219.18867 
L 510.950694 -216.710925 
L 511.844001 -214.23318 
L 512.025799 -211.755434 
L 511.495681 -209.277689 
L 510.386345 -206.799943 
L 508.938798 -204.322198 
L 507.439363 -201.844452 
L 506.143225 -199.366707 
L 505.216799 -196.888961 
L 504.721147 -194.411216 
L 504.636516 -191.93347 
L 504.90731 -189.455725 
L 505.479835 -186.97798 
L 506.314844 -184.500234 
L 507.374912 -182.022489 
L 508.600354 -179.544743 
L 509.889607 -177.066998 
L 511.09345 -174.589252 
L 512.025388 -172.111507 
L 512.487267 -169.633761 
L 512.307584 -167.156016 
L 511.385338 -164.67827 
L 509.725471 -162.200525 
L 507.449396 -159.72278 
L 504.771548 -157.245034 
L 501.948237 -154.767289 
L 499.218958 -152.289543 
L 496.762994 -149.811798 
L 494.683986 -147.334052 
L 493.019266 -144.856307 
L 491.759936 -142.378561 
L 490.867986 -139.900816 
L 490.285499 -137.42307 
L 489.939929 -134.945325 
L 489.751713 -132.46758 
L 489.645846 -129.989834 
L 489.563286 -127.512089 
L 489.466697 -125.034343 
L 489.338818 -122.556598 
L 489.176601 -120.078852 
L 488.985621 -117.601107 
L 488.776826 -115.123361 
L 488.564504 -112.645616 
L 488.363679 -110.16787 
L 488.186811 -107.690125 
z
" id="m6d056b1e12" style="stroke:#353535;stroke-width:1.75;"/>
    </defs>
    <g clip-path="url(#p8636d4d34d)">
     <use style="fill:#80c161;stroke:#353535;stroke-width:1.75;" x="0.0" xlink:href="#m6d056b1e12" y="404.76525"/>
    </g>
   </g>
   <g id="PolyCollection_6">
    <defs>
     <path d="M 584.989904 -110.703325 
L 581.732368 -110.703325 
L 581.394658 -112.261216 
L 581.04298 -113.819107 
L 580.669744 -115.376998 
L 580.256384 -116.934889 
L 579.775048 -118.49278 
L 579.192653 -120.05067 
L 578.475882 -121.608561 
L 577.595436 -123.166452 
L 576.528325 -124.724343 
L 575.258095 -126.282234 
L 573.774057 -127.840125 
L 572.071241 -129.398016 
L 570.152589 -130.955907 
L 568.033731 -132.513798 
L 565.749117 -134.071689 
L 563.357133 -135.62958 
L 560.941668 -137.18747 
L 558.608582 -138.745361 
L 556.477059 -140.303252 
L 554.667114 -141.861143 
L 553.285216 -143.419034 
L 552.410147 -144.976925 
L 552.081174 -146.534816 
L 552.290644 -148.092707 
L 552.98277 -149.650598 
L 554.05949 -151.208489 
L 555.39278 -152.76638 
L 556.84121 -154.32427 
L 558.267551 -155.882161 
L 559.554189 -157.440052 
L 560.613908 -158.997943 
L 561.394737 -160.555834 
L 561.878851 -162.113725 
L 562.076528 -163.671616 
L 562.017101 -165.229507 
L 561.739312 -166.787398 
L 561.283482 -168.345289 
L 560.68715 -169.90318 
L 559.984644 -171.46107 
L 559.209719 -173.018961 
L 558.399521 -174.576852 
L 557.598002 -176.134743 
L 556.85742 -177.692634 
L 556.237389 -179.250525 
L 555.801654 -180.808416 
L 555.61315 -182.366307 
L 555.727946 -183.924198 
L 556.188681 -185.482089 
L 557.018174 -187.03998 
L 558.214181 -188.59787 
L 559.746454 -190.155761 
L 561.557278 -191.713652 
L 563.566164 -193.271543 
L 565.678517 -194.829434 
L 567.796955 -196.387325 
L 569.833064 -197.945216 
L 571.717076 -199.503107 
L 573.403485 -201.060998 
L 574.871847 -202.618889 
L 576.123418 -204.17678 
L 577.175282 -205.73467 
L 578.053871 -207.292561 
L 578.789313 -208.850452 
L 579.411196 -210.408343 
L 579.945711 -211.966234 
L 580.4138 -213.524125 
L 580.830114 -215.082016 
L 581.202839 -216.639907 
L 581.534575 -218.197798 
L 581.824281 -219.755689 
L 582.06986 -221.31358 
L 582.270646 -222.87147 
L 582.429018 -224.429361 
L 582.550684 -225.987252 
L 582.64371 -227.545143 
L 582.716809 -229.103034 
L 582.777593 -230.660925 
L 582.831349 -232.218816 
L 582.880622 -233.776707 
L 582.925523 -235.334598 
L 582.964501 -236.892489 
L 582.995295 -238.45038 
L 583.015896 -240.00827 
L 583.025436 -241.566161 
L 583.024898 -243.124052 
L 583.017438 -244.681943 
L 583.008061 -246.239834 
L 583.002548 -247.797725 
L 583.005836 -249.355616 
L 583.020431 -250.913507 
L 583.045519 -252.471398 
L 583.077213 -254.029289 
L 583.109921 -255.58718 
L 583.138281 -257.14507 
L 583.158939 -258.702961 
L 583.17147 -260.260852 
L 583.1782 -261.818743 
L 583.183084 -263.376634 
L 583.190161 -264.934525 
L 583.53211 -264.934525 
L 583.53211 -264.934525 
L 583.539187 -263.376634 
L 583.544071 -261.818743 
L 583.550802 -260.260852 
L 583.563332 -258.702961 
L 583.58399 -257.14507 
L 583.612351 -255.58718 
L 583.645058 -254.029289 
L 583.676753 -252.471398 
L 583.70184 -250.913507 
L 583.716435 -249.355616 
L 583.719723 -247.797725 
L 583.71421 -246.239834 
L 583.704834 -244.681943 
L 583.697373 -243.124052 
L 583.696835 -241.566161 
L 583.706376 -240.00827 
L 583.726977 -238.45038 
L 583.75777 -236.892489 
L 583.796748 -235.334598 
L 583.841649 -233.776707 
L 583.890923 -232.218816 
L 583.944679 -230.660925 
L 584.005462 -229.103034 
L 584.078562 -227.545143 
L 584.171587 -225.987252 
L 584.293253 -224.429361 
L 584.451626 -222.87147 
L 584.652412 -221.31358 
L 584.89799 -219.755689 
L 585.187696 -218.197798 
L 585.519432 -216.639907 
L 585.892157 -215.082016 
L 586.308472 -213.524125 
L 586.776561 -211.966234 
L 587.311075 -210.408343 
L 587.932959 -208.850452 
L 588.6684 -207.292561 
L 589.54699 -205.73467 
L 590.598853 -204.17678 
L 591.850424 -202.618889 
L 593.318786 -201.060998 
L 595.005196 -199.503107 
L 596.889208 -197.945216 
L 598.925316 -196.387325 
L 601.043754 -194.829434 
L 603.156107 -193.271543 
L 605.164993 -191.713652 
L 606.975817 -190.155761 
L 608.508091 -188.59787 
L 609.704098 -187.03998 
L 610.533591 -185.482089 
L 610.994325 -183.924198 
L 611.109122 -182.366307 
L 610.920618 -180.808416 
L 610.484883 -179.250525 
L 609.864851 -177.692634 
L 609.124269 -176.134743 
L 608.32275 -174.576852 
L 607.512552 -173.018961 
L 606.737627 -171.46107 
L 606.035122 -169.90318 
L 605.43879 -168.345289 
L 604.98296 -166.787398 
L 604.705171 -165.229507 
L 604.645743 -163.671616 
L 604.84342 -162.113725 
L 605.327534 -160.555834 
L 606.108364 -158.997943 
L 607.168082 -157.440052 
L 608.454721 -155.882161 
L 609.881061 -154.32427 
L 611.329492 -152.76638 
L 612.662782 -151.208489 
L 613.739502 -149.650598 
L 614.431627 -148.092707 
L 614.641098 -146.534816 
L 614.312125 -144.976925 
L 613.437055 -143.419034 
L 612.055158 -141.861143 
L 610.245212 -140.303252 
L 608.11369 -138.745361 
L 605.780604 -137.18747 
L 603.365138 -135.62958 
L 600.973154 -134.071689 
L 598.68854 -132.513798 
L 596.569682 -130.955907 
L 594.651031 -129.398016 
L 592.948215 -127.840125 
L 591.464177 -126.282234 
L 590.193947 -124.724343 
L 589.126835 -123.166452 
L 588.246389 -121.608561 
L 587.529619 -120.05067 
L 586.947224 -118.49278 
L 586.465888 -116.934889 
L 586.052527 -115.376998 
L 585.679291 -113.819107 
L 585.327614 -112.261216 
L 584.989904 -110.703325 
z
" id="m989c66dd5a" style="stroke:#353535;stroke-width:1.75;"/>
    </defs>
    <g clip-path="url(#p8636d4d34d)">
     <use style="fill:#aec83d;stroke:#353535;stroke-width:1.75;" x="0.0" xlink:href="#m989c66dd5a" y="404.76525"/>
    </g>
   </g>
   <g id="PolyCollection_7">
    <defs>
     <path d="M 680.285117 -97.980925 
L 677.75144 -97.980925 
L 677.289961 -99.356198 
L 676.741197 -100.73147 
L 676.121921 -102.106743 
L 675.457221 -103.482016 
L 674.770478 -104.857289 
L 674.068907 -106.232561 
L 673.329827 -107.607834 
L 672.49403 -108.983107 
L 671.47083 -110.35838 
L 670.155115 -111.733652 
L 668.452075 -113.108925 
L 666.302359 -114.484198 
L 663.700466 -115.85947 
L 660.701921 -117.234743 
L 657.418833 -118.610016 
L 654.006902 -119.985289 
L 650.648442 -121.360561 
L 647.535004 -122.735834 
L 644.850804 -124.111107 
L 642.756218 -125.48638 
L 641.370576 -126.861652 
L 640.755421 -128.236925 
L 640.901788 -129.612198 
L 641.725942 -130.98747 
L 643.076776 -132.362743 
L 644.755133 -133.738016 
L 646.542185 -135.113289 
L 648.231602 -136.488561 
L 649.658891 -137.863834 
L 650.721321 -139.239107 
L 651.38367 -140.61438 
L 651.668914 -141.989652 
L 651.637765 -143.364925 
L 651.364721 -144.740198 
L 650.918567 -146.11547 
L 650.352042 -147.490743 
L 649.700584 -148.866016 
L 648.987011 -150.241289 
L 648.229194 -151.616561 
L 647.449878 -152.991834 
L 646.688617 -154.367107 
L 646.013476 -155.74238 
L 645.526517 -157.117652 
L 645.356196 -158.492925 
L 645.634387 -159.868198 
L 646.463921 -161.24347 
L 647.88886 -162.618743 
L 649.879374 -163.994016 
L 652.336093 -165.369289 
L 655.110033 -166.744561 
L 658.02925 -168.119834 
L 660.924234 -169.495107 
L 663.648244 -170.87038 
L 666.091981 -172.245652 
L 668.192394 -173.620925 
L 669.934278 -174.996198 
L 671.343419 -176.37147 
L 672.472377 -177.746743 
L 673.38319 -179.122016 
L 674.132715 -180.497289 
L 674.764688 -181.872561 
L 675.308931 -183.247834 
L 675.784824 -184.623107 
L 676.205249 -185.99838 
L 676.578777 -187.373652 
L 676.910266 -188.748925 
L 677.201451 -190.124198 
L 677.452684 -191.49947 
L 677.665504 -192.874743 
L 677.84462 -194.250016 
L 677.998023 -195.625289 
L 678.135061 -197.000561 
L 678.263534 -198.375834 
L 678.387291 -199.751107 
L 678.505358 -201.12638 
L 678.612745 -202.501652 
L 678.702365 -203.876925 
L 678.767297 -205.252198 
L 678.802803 -206.62747 
L 678.807856 -208.002743 
L 678.786033 -209.378016 
L 678.745593 -210.753289 
L 678.698456 -212.128561 
L 678.657955 -213.503834 
L 678.635739 -214.879107 
L 678.638755 -216.25438 
L 678.667471 -217.629652 
L 678.716104 -219.004925 
L 678.774727 -220.380198 
L 678.832317 -221.75547 
L 678.879539 -223.130743 
L 678.910425 -224.506016 
L 678.922828 -225.881289 
L 678.918063 -227.256561 
L 678.900215 -228.631834 
L 678.875346 -230.007107 
L 678.8505 -231.38238 
L 678.832404 -232.757652 
L 678.826013 -234.132925 
L 679.210544 -234.132925 
L 679.210544 -234.132925 
L 679.204153 -232.757652 
L 679.186058 -231.38238 
L 679.161211 -230.007107 
L 679.136342 -228.631834 
L 679.118494 -227.256561 
L 679.113729 -225.881289 
L 679.126132 -224.506016 
L 679.157018 -223.130743 
L 679.20424 -221.75547 
L 679.26183 -220.380198 
L 679.320453 -219.004925 
L 679.369086 -217.629652 
L 679.397802 -216.25438 
L 679.400818 -214.879107 
L 679.378602 -213.503834 
L 679.338101 -212.128561 
L 679.290964 -210.753289 
L 679.250525 -209.378016 
L 679.228702 -208.002743 
L 679.233755 -206.62747 
L 679.269261 -205.252198 
L 679.334192 -203.876925 
L 679.423812 -202.501652 
L 679.531199 -201.12638 
L 679.649266 -199.751107 
L 679.773023 -198.375834 
L 679.901496 -197.000561 
L 680.038534 -195.625289 
L 680.191937 -194.250016 
L 680.371054 -192.874743 
L 680.583873 -191.49947 
L 680.835106 -190.124198 
L 681.126291 -188.748925 
L 681.45778 -187.373652 
L 681.831308 -185.99838 
L 682.251734 -184.623107 
L 682.727626 -183.247834 
L 683.271869 -181.872561 
L 683.903842 -180.497289 
L 684.653367 -179.122016 
L 685.56418 -177.746743 
L 686.693138 -176.37147 
L 688.102279 -174.996198 
L 689.844164 -173.620925 
L 691.944576 -172.245652 
L 694.388313 -170.87038 
L 697.112323 -169.495107 
L 700.007308 -168.119834 
L 702.926524 -166.744561 
L 705.700465 -165.369289 
L 708.157183 -163.994016 
L 710.147697 -162.618743 
L 711.572637 -161.24347 
L 712.40217 -159.868198 
L 712.680361 -158.492925 
L 712.510041 -157.117652 
L 712.023081 -155.74238 
L 711.347941 -154.367107 
L 710.586679 -152.991834 
L 709.807363 -151.616561 
L 709.049546 -150.241289 
L 708.335973 -148.866016 
L 707.684515 -147.490743 
L 707.11799 -146.11547 
L 706.671836 -144.740198 
L 706.398792 -143.364925 
L 706.367643 -141.989652 
L 706.652887 -140.61438 
L 707.315236 -139.239107 
L 708.377666 -137.863834 
L 709.804956 -136.488561 
L 711.494372 -135.113289 
L 713.281424 -133.738016 
L 714.959781 -132.362743 
L 716.310615 -130.98747 
L 717.134769 -129.612198 
L 717.281136 -128.236925 
L 716.665982 -126.861652 
L 715.280339 -125.48638 
L 713.185753 -124.111107 
L 710.501553 -122.735834 
L 707.388115 -121.360561 
L 704.029655 -119.985289 
L 700.617724 -118.610016 
L 697.334636 -117.234743 
L 694.336091 -115.85947 
L 691.734198 -114.484198 
L 689.584482 -113.108925 
L 687.881442 -111.733652 
L 686.565727 -110.35838 
L 685.542527 -108.983107 
L 684.706731 -107.607834 
L 683.96765 -106.232561 
L 683.266079 -104.857289 
L 682.579336 -103.482016 
L 681.914637 -102.106743 
L 681.29536 -100.73147 
L 680.746596 -99.356198 
L 680.285117 -97.980925 
z
" id="m65e491d33f" style="stroke:#353535;stroke-width:1.75;"/>
    </defs>
    <g clip-path="url(#p8636d4d34d)">
     <use style="fill:#e2d240;stroke:#353535;stroke-width:1.75;" x="0.0" xlink:href="#m65e491d33f" y="404.76525"/>
    </g>
   </g>
   <g id="line2d_29">
    <path clip-path="url(#p8636d4d34d)" d="M 76.283735 256.564325 
L 133.867107 256.564325 
" style="fill:none;stroke:#353535;stroke-dasharray:2.625000,2.625000;stroke-dashoffset:0.0;stroke-width:1.75;"/>
   </g>
   <g id="line2d_30">
    <path clip-path="url(#p8636d4d34d)" d="M 83.623557 238.261925 
L 126.527285 238.261925 
" style="fill:none;stroke:#353535;stroke-dasharray:5.250000,5.250000;stroke-dashoffset:0.0;stroke-width:1.75;"/>
   </g>
   <g id="line2d_31">
    <path clip-path="url(#p8636d4d34d)" d="M 79.816091 219.345725 
L 130.334752 219.345725 
" style="fill:none;stroke:#353535;stroke-dasharray:2.625000,2.625000;stroke-dashoffset:0.0;stroke-width:1.75;"/>
   </g>
   <g id="line2d_32">
    <path clip-path="url(#p8636d4d34d)" d="M 171.980902 251.486525 
L 229.484227 251.486525 
" style="fill:none;stroke:#353535;stroke-dasharray:2.625000,2.625000;stroke-dashoffset:0.0;stroke-width:1.75;"/>
   </g>
   <g id="line2d_33">
    <path clip-path="url(#p8636d4d34d)" d="M 176.826993 231.565925 
L 224.638136 231.565925 
" style="fill:none;stroke:#353535;stroke-dasharray:5.250000,5.250000;stroke-dashoffset:0.0;stroke-width:1.75;"/>
   </g>
   <g id="line2d_34">
    <path clip-path="url(#p8636d4d34d)" d="M 174.8093 214.435325 
L 226.655828 214.435325 
" style="fill:none;stroke:#353535;stroke-dasharray:2.625000,2.625000;stroke-dashoffset:0.0;stroke-width:1.75;"/>
   </g>
   <g id="line2d_35">
    <path clip-path="url(#p8636d4d34d)" d="M 265.174393 249.700925 
L 327.605021 249.700925 
" style="fill:none;stroke:#353535;stroke-dasharray:2.625000,2.625000;stroke-dashoffset:0.0;stroke-width:1.75;"/>
   </g>
   <g id="line2d_36">
    <path clip-path="url(#p8636d4d34d)" d="M 273.22391 232.012325 
L 319.555504 232.012325 
" style="fill:none;stroke:#353535;stroke-dasharray:5.250000,5.250000;stroke-dashoffset:0.0;stroke-width:1.75;"/>
   </g>
   <g id="line2d_37">
    <path clip-path="url(#p8636d4d34d)" d="M 269.736342 214.267925 
L 323.043072 214.267925 
" style="fill:none;stroke:#353535;stroke-dasharray:2.625000,2.625000;stroke-dashoffset:0.0;stroke-width:1.75;"/>
   </g>
   <g id="line2d_38">
    <path clip-path="url(#p8636d4d34d)" d="M 362.580674 248.863925 
L 421.513026 248.863925 
" style="fill:none;stroke:#353535;stroke-dasharray:2.625000,2.625000;stroke-dashoffset:0.0;stroke-width:1.75;"/>
   </g>
   <g id="line2d_39">
    <path clip-path="url(#p8636d4d34d)" d="M 368.263554 231.454325 
L 415.830146 231.454325 
" style="fill:none;stroke:#353535;stroke-dasharray:5.250000,5.250000;stroke-dashoffset:0.0;stroke-width:1.75;"/>
   </g>
   <g id="line2d_40">
    <path clip-path="url(#p8636d4d34d)" d="M 363.966668 213.654125 
L 420.127032 213.654125 
" style="fill:none;stroke:#353535;stroke-dasharray:2.625000,2.625000;stroke-dashoffset:0.0;stroke-width:1.75;"/>
   </g>
   <g id="line2d_41">
    <path clip-path="url(#p8636d4d34d)" d="M 463.168552 236.002025 
L 512.239434 236.002025 
" style="fill:none;stroke:#353535;stroke-dasharray:2.625000,2.625000;stroke-dashoffset:0.0;stroke-width:1.75;"/>
   </g>
   <g id="line2d_42">
    <path clip-path="url(#p8636d4d34d)" d="M 470.940795 212.928725 
L 504.467191 212.928725 
" style="fill:none;stroke:#353535;stroke-dasharray:5.250000,5.250000;stroke-dashoffset:0.0;stroke-width:1.75;"/>
   </g>
   <g id="line2d_43">
    <path clip-path="url(#p8636d4d34d)" d="M 463.805384 190.525025 
L 511.602601 190.525025 
" style="fill:none;stroke:#353535;stroke-dasharray:2.625000,2.625000;stroke-dashoffset:0.0;stroke-width:1.75;"/>
   </g>
   <g id="line2d_44">
    <path clip-path="url(#p8636d4d34d)" d="M 552.393973 258.656825 
L 614.328298 258.656825 
" style="fill:none;stroke:#353535;stroke-dasharray:2.625000,2.625000;stroke-dashoffset:0.0;stroke-width:1.75;"/>
   </g>
   <g id="line2d_45">
    <path clip-path="url(#p8636d4d34d)" d="M 562.289374 240.661325 
L 604.432897 240.661325 
" style="fill:none;stroke:#353535;stroke-dasharray:5.250000,5.250000;stroke-dashoffset:0.0;stroke-width:1.75;"/>
   </g>
   <g id="line2d_46">
    <path clip-path="url(#p8636d4d34d)" d="M 556.004278 221.549825 
L 610.717993 221.549825 
" style="fill:none;stroke:#353535;stroke-dasharray:2.625000,2.625000;stroke-dashoffset:0.0;stroke-width:1.75;"/>
   </g>
   <g id="line2d_47">
    <path clip-path="url(#p8636d4d34d)" d="M 641.13805 276.540725 
L 716.898507 276.540725 
" style="fill:none;stroke:#353535;stroke-dasharray:2.625000,2.625000;stroke-dashoffset:0.0;stroke-width:1.75;"/>
   </g>
   <g id="line2d_48">
    <path clip-path="url(#p8636d4d34d)" d="M 651.91157 261.642125 
L 706.124987 261.642125 
" style="fill:none;stroke:#353535;stroke-dasharray:5.250000,5.250000;stroke-dashoffset:0.0;stroke-width:1.75;"/>
   </g>
   <g id="line2d_49">
    <path clip-path="url(#p8636d4d34d)" d="M 645.692817 245.878625 
L 712.34374 245.878625 
" style="fill:none;stroke:#353535;stroke-dasharray:2.625000,2.625000;stroke-dashoffset:0.0;stroke-width:1.75;"/>
   </g>
   <g id="patch_3">
    <path d="M 57.24685 42.627125 
L 726.84685 42.627125 
" style="fill:none;stroke:#262626;stroke-linecap:square;stroke-linejoin:miter;stroke-width:1.25;"/>
   </g>
   <g id="patch_4">
    <path d="M 726.84685 377.427125 
L 726.84685 42.627125 
" style="fill:none;stroke:#262626;stroke-linecap:square;stroke-linejoin:miter;stroke-width:1.25;"/>
   </g>
   <g id="patch_5">
    <path d="M 57.24685 377.427125 
L 726.84685 377.427125 
" style="fill:none;stroke:#262626;stroke-linecap:square;stroke-linejoin:miter;stroke-width:1.25;"/>
   </g>
   <g id="patch_6">
    <path d="M 57.24685 377.427125 
L 57.24685 42.627125 
" style="fill:none;stroke:#262626;stroke-linecap:square;stroke-linejoin:miter;stroke-width:1.25;"/>
   </g>
   <g id="text_16">
    <!-- Violin Plot: Accidents by Day of the Week 20012015 -->
    <defs>
     <path d="M 14.703125 0 
L 6.546875 0 
L 6.546875 71.578125 
L 15.328125 71.578125 
L 15.328125 46.046875 
Q 20.90625 53.03125 29.546875 53.03125 
Q 34.328125 53.03125 38.59375 51.09375 
Q 42.875 49.171875 45.625 45.671875 
Q 48.390625 42.1875 49.953125 37.25 
Q 51.515625 32.328125 51.515625 26.703125 
Q 51.515625 13.375 44.921875 6.09375 
Q 38.328125 -1.171875 29.109375 -1.171875 
Q 19.921875 -1.171875 14.703125 6.5 
z
M 14.59375 26.3125 
Q 14.59375 17 17.140625 12.84375 
Q 21.296875 6.0625 28.375 6.0625 
Q 34.125 6.0625 38.328125 11.0625 
Q 42.53125 16.0625 42.53125 25.984375 
Q 42.53125 36.140625 38.5 40.96875 
Q 34.46875 45.796875 28.765625 45.796875 
Q 23 45.796875 18.796875 40.796875 
Q 14.59375 35.796875 14.59375 26.3125 
" id="ArialMT-62"/>
     <path d="M 8.6875 0 
L 8.6875 45.015625 
L 0.921875 45.015625 
L 0.921875 51.859375 
L 8.6875 51.859375 
L 8.6875 57.375 
Q 8.6875 62.59375 9.625 65.140625 
Q 10.890625 68.5625 14.078125 70.671875 
Q 17.28125 72.796875 23.046875 72.796875 
Q 26.765625 72.796875 31.25 71.921875 
L 29.9375 64.265625 
Q 27.203125 64.75 24.75 64.75 
Q 20.75 64.75 19.09375 63.03125 
Q 17.4375 61.328125 17.4375 56.640625 
L 17.4375 51.859375 
L 27.546875 51.859375 
L 27.546875 45.015625 
L 17.4375 45.015625 
L 17.4375 0 
z
" id="ArialMT-66"/>
     <path d="M 9.03125 41.84375 
L 9.03125 51.859375 
L 19.046875 51.859375 
L 19.046875 41.84375 
z
M 9.03125 0 
L 9.03125 10.015625 
L 19.046875 10.015625 
L 19.046875 0 
z
" id="ArialMT-3a"/>
     <path d="M 7.71875 0 
L 7.71875 71.578125 
L 34.71875 71.578125 
Q 41.84375 71.578125 45.609375 70.90625 
Q 50.875 70.015625 54.4375 67.546875 
Q 58.015625 65.09375 60.1875 60.640625 
Q 62.359375 56.203125 62.359375 50.875 
Q 62.359375 41.75 56.546875 35.421875 
Q 50.734375 29.109375 35.546875 29.109375 
L 17.1875 29.109375 
L 17.1875 0 
z
M 17.1875 37.546875 
L 35.6875 37.546875 
Q 44.875 37.546875 48.734375 40.96875 
Q 52.59375 44.390625 52.59375 50.59375 
Q 52.59375 55.078125 50.3125 58.265625 
Q 48.046875 61.46875 44.34375 62.5 
Q 41.9375 63.140625 35.5 63.140625 
L 17.1875 63.140625 
z
" id="ArialMT-50"/>
     <path d="M 28.171875 0 
L 0.4375 71.578125 
L 10.6875 71.578125 
L 29.296875 19.578125 
Q 31.546875 13.328125 33.0625 7.859375 
Q 34.71875 13.71875 36.921875 19.578125 
L 56.25 71.578125 
L 65.921875 71.578125 
L 37.890625 0 
z
" id="ArialMT-56"/>
     <path d="M 7.71875 0 
L 7.71875 71.578125 
L 32.375 71.578125 
Q 40.71875 71.578125 45.125 70.5625 
Q 51.265625 69.140625 55.609375 65.4375 
Q 61.28125 60.640625 64.078125 53.1875 
Q 66.890625 45.75 66.890625 36.1875 
Q 66.890625 28.03125 64.984375 21.734375 
Q 63.09375 15.4375 60.109375 11.296875 
Q 57.125 7.171875 53.578125 4.796875 
Q 50.046875 2.4375 45.046875 1.21875 
Q 40.046875 0 33.546875 0 
z
M 17.1875 8.453125 
L 32.46875 8.453125 
Q 39.546875 8.453125 43.578125 9.765625 
Q 47.609375 11.078125 50 13.484375 
Q 53.375 16.84375 55.25 22.53125 
Q 57.125 28.21875 57.125 36.328125 
Q 57.125 47.5625 53.4375 53.59375 
Q 49.75 59.625 44.484375 61.671875 
Q 40.671875 63.140625 32.234375 63.140625 
L 17.1875 63.140625 
z
" id="ArialMT-44"/>
     <path d="M 6.390625 0 
L 6.390625 71.578125 
L 15.1875 71.578125 
L 15.1875 0 
z
" id="ArialMT-6c"/>
     <path d="M 6.640625 0 
L 6.640625 71.578125 
L 15.4375 71.578125 
L 15.4375 30.765625 
L 36.234375 51.859375 
L 47.609375 51.859375 
L 27.78125 32.625 
L 49.609375 0 
L 38.765625 0 
L 21.625 26.515625 
L 15.4375 20.5625 
L 15.4375 0 
z
" id="ArialMT-6b"/>
     <path d="M -0.203125 22.359375 
L -0.203125 29.4375 
L 55.421875 29.4375 
L 55.421875 22.359375 
z
" id="ArialMT-2013"/>
     <path id="ArialMT-20"/>
    </defs>
    <g style="fill:#262626;" transform="translate(61.3296625 27.583125)scale(0.28 -0.28)">
     <use xlink:href="#ArialMT-56"/>
     <use x="66.68359375" xlink:href="#ArialMT-69"/>
     <use x="88.900390625" xlink:href="#ArialMT-6f"/>
     <use x="144.515625" xlink:href="#ArialMT-6c"/>
     <use x="166.732421875" xlink:href="#ArialMT-69"/>
     <use x="188.94921875" xlink:href="#ArialMT-6e"/>
     <use x="244.564453125" xlink:href="#ArialMT-20"/>
     <use x="272.34765625" xlink:href="#ArialMT-50"/>
     <use x="339.046875" xlink:href="#ArialMT-6c"/>
     <use x="361.263671875" xlink:href="#ArialMT-6f"/>
     <use x="416.87890625" xlink:href="#ArialMT-74"/>
     <use x="444.662109375" xlink:href="#ArialMT-3a"/>
     <use x="472.4453125" xlink:href="#ArialMT-20"/>
     <use x="500.150390625" xlink:href="#ArialMT-41"/>
     <use x="566.849609375" xlink:href="#ArialMT-63"/>
     <use x="616.849609375" xlink:href="#ArialMT-63"/>
     <use x="666.849609375" xlink:href="#ArialMT-69"/>
     <use x="689.06640625" xlink:href="#ArialMT-64"/>
     <use x="744.681640625" xlink:href="#ArialMT-65"/>
     <use x="800.296875" xlink:href="#ArialMT-6e"/>
     <use x="855.912109375" xlink:href="#ArialMT-74"/>
     <use x="883.6953125" xlink:href="#ArialMT-73"/>
     <use x="933.6953125" xlink:href="#ArialMT-20"/>
     <use x="961.478515625" xlink:href="#ArialMT-62"/>
     <use x="1017.09375" xlink:href="#ArialMT-79"/>
     <use x="1067.09375" xlink:href="#ArialMT-20"/>
     <use x="1094.87695312" xlink:href="#ArialMT-44"/>
     <use x="1167.09375" xlink:href="#ArialMT-61"/>
     <use x="1222.70898438" xlink:href="#ArialMT-79"/>
     <use x="1272.70898438" xlink:href="#ArialMT-20"/>
     <use x="1300.4921875" xlink:href="#ArialMT-6f"/>
     <use x="1356.10742188" xlink:href="#ArialMT-66"/>
     <use x="1383.890625" xlink:href="#ArialMT-20"/>
     <use x="1411.67382812" xlink:href="#ArialMT-74"/>
     <use x="1439.45703125" xlink:href="#ArialMT-68"/>
     <use x="1495.07226562" xlink:href="#ArialMT-65"/>
     <use x="1550.6875" xlink:href="#ArialMT-20"/>
     <use x="1578.47070312" xlink:href="#ArialMT-57"/>
     <use x="1672.83984375" xlink:href="#ArialMT-65"/>
     <use x="1728.45507812" xlink:href="#ArialMT-65"/>
     <use x="1784.0703125" xlink:href="#ArialMT-6b"/>
     <use x="1834.0703125" xlink:href="#ArialMT-20"/>
     <use x="1861.85351562" xlink:href="#ArialMT-32"/>
     <use x="1917.46875" xlink:href="#ArialMT-30"/>
     <use x="1973.08398438" xlink:href="#ArialMT-30"/>
     <use x="2028.69921875" xlink:href="#ArialMT-31"/>
     <use x="2084.31445312" xlink:href="#ArialMT-2013"/>
     <use x="2139.9296875" xlink:href="#ArialMT-32"/>
     <use x="2195.54492188" xlink:href="#ArialMT-30"/>
     <use x="2251.16015625" xlink:href="#ArialMT-31"/>
     <use x="2306.77539062" xlink:href="#ArialMT-35"/>
    </g>
   </g>
  </g>
 </g>
 <defs>
  <clipPath id="p8636d4d34d">
   <rect height="334.8" width="669.6" x="57.24685" y="42.627125"/>
  </clipPath>
 </defs>
</svg>
