<?xml version="1.0" encoding="utf-8" standalone="no"?>
<!DOCTYPE svg PUBLIC "-//W3C//DTD SVG 1.1//EN"
  "http://www.w3.org/Graphics/SVG/1.1/DTD/svg11.dtd">
<!-- Created with matplotlib (http://matplotlib.org/) -->
<svg height="399.6123pt" version="1.1" viewBox="0 0 739.54685 399.6123" width="739.54685pt" xmlns="http://www.w3.org/2000/svg" xmlns:xlink="http://www.w3.org/1999/xlink">
 <defs>
  <style type="text/css">
*{stroke-linecap:butt;stroke-linejoin:round;}
  </style>
 </defs>
 <g id="figure_1">
  <g id="patch_1">
   <path d="M 0 399.6123 
L 739.54685 399.6123 
L 739.54685 0 
L 0 0 
z
" style="fill:#ffffff;"/>
  </g>
  <g id="axes_1">
   <g id="patch_2">
    <path d="M 62.74685 369.527925 
L 732.34685 369.527925 
L 732.34685 43.367925 
L 62.74685 43.367925 
z
" style="fill:#ffffff;"/>
   </g>
   <g id="matplotlib.axis_1">
    <g id="xtick_1">
     <g id="line2d_1"/>
     <g id="text_1">
      <!-- Monday -->
      <defs>
       <path d="M 7.421875 0 
L 7.421875 71.578125 
L 21.6875 71.578125 
L 38.625 20.90625 
Q 40.96875 13.8125 42.046875 10.296875 
Q 43.265625 14.203125 45.84375 21.78125 
L 62.984375 71.578125 
L 75.734375 71.578125 
L 75.734375 0 
L 66.609375 0 
L 66.609375 59.90625 
L 45.796875 0 
L 37.25 0 
L 16.546875 60.9375 
L 16.546875 0 
z
" id="ArialMT-4d"/>
       <path d="M 3.328125 25.921875 
Q 3.328125 40.328125 11.328125 47.265625 
Q 18.015625 53.03125 27.640625 53.03125 
Q 38.328125 53.03125 45.109375 46.015625 
Q 51.90625 39.015625 51.90625 26.65625 
Q 51.90625 16.65625 48.90625 10.90625 
Q 45.90625 5.171875 40.15625 2 
Q 34.421875 -1.171875 27.640625 -1.171875 
Q 16.75 -1.171875 10.03125 5.8125 
Q 3.328125 12.796875 3.328125 25.921875 
z
M 12.359375 25.921875 
Q 12.359375 15.96875 16.703125 11.015625 
Q 21.046875 6.0625 27.640625 6.0625 
Q 34.1875 6.0625 38.53125 11.03125 
Q 42.875 16.015625 42.875 26.21875 
Q 42.875 35.84375 38.5 40.796875 
Q 34.125 45.75 27.640625 45.75 
Q 21.046875 45.75 16.703125 40.8125 
Q 12.359375 35.890625 12.359375 25.921875 
z
" id="ArialMT-6f"/>
       <path d="M 6.59375 0 
L 6.59375 51.859375 
L 14.5 51.859375 
L 14.5 44.484375 
Q 20.21875 53.03125 31 53.03125 
Q 35.6875 53.03125 39.625 51.34375 
Q 43.5625 49.65625 45.515625 46.921875 
Q 47.46875 44.1875 48.25 40.4375 
Q 48.734375 37.984375 48.734375 31.890625 
L 48.734375 0 
L 39.9375 0 
L 39.9375 31.546875 
Q 39.9375 36.921875 38.90625 39.578125 
Q 37.890625 42.234375 35.28125 43.8125 
Q 32.671875 45.40625 29.15625 45.40625 
Q 23.53125 45.40625 19.453125 41.84375 
Q 15.375 38.28125 15.375 28.328125 
L 15.375 0 
z
" id="ArialMT-6e"/>
       <path d="M 40.234375 0 
L 40.234375 6.546875 
Q 35.296875 -1.171875 25.734375 -1.171875 
Q 19.53125 -1.171875 14.328125 2.25 
Q 9.125 5.671875 6.265625 11.796875 
Q 3.421875 17.921875 3.421875 25.875 
Q 3.421875 33.640625 6 39.96875 
Q 8.59375 46.296875 13.765625 49.65625 
Q 18.953125 53.03125 25.34375 53.03125 
Q 30.03125 53.03125 33.6875 51.046875 
Q 37.359375 49.078125 39.65625 45.90625 
L 39.65625 71.578125 
L 48.390625 71.578125 
L 48.390625 0 
z
M 12.453125 25.875 
Q 12.453125 15.921875 16.640625 10.984375 
Q 20.84375 6.0625 26.5625 6.0625 
Q 32.328125 6.0625 36.34375 10.765625 
Q 40.375 15.484375 40.375 25.140625 
Q 40.375 35.796875 36.265625 40.765625 
Q 32.171875 45.75 26.171875 45.75 
Q 20.3125 45.75 16.375 40.96875 
Q 12.453125 36.1875 12.453125 25.875 
z
" id="ArialMT-64"/>
       <path d="M 40.4375 6.390625 
Q 35.546875 2.25 31.03125 0.53125 
Q 26.515625 -1.171875 21.34375 -1.171875 
Q 12.796875 -1.171875 8.203125 3 
Q 3.609375 7.171875 3.609375 13.671875 
Q 3.609375 17.484375 5.34375 20.625 
Q 7.078125 23.78125 9.890625 25.6875 
Q 12.703125 27.59375 16.21875 28.5625 
Q 18.796875 29.25 24.03125 29.890625 
Q 34.671875 31.15625 39.703125 32.90625 
Q 39.75 34.71875 39.75 35.203125 
Q 39.75 40.578125 37.25 42.78125 
Q 33.890625 45.75 27.25 45.75 
Q 21.046875 45.75 18.09375 43.578125 
Q 15.140625 41.40625 13.71875 35.890625 
L 5.125 37.0625 
Q 6.296875 42.578125 8.984375 45.96875 
Q 11.671875 49.359375 16.75 51.1875 
Q 21.828125 53.03125 28.515625 53.03125 
Q 35.15625 53.03125 39.296875 51.46875 
Q 43.453125 49.90625 45.40625 47.53125 
Q 47.359375 45.171875 48.140625 41.546875 
Q 48.578125 39.3125 48.578125 33.453125 
L 48.578125 21.734375 
Q 48.578125 9.46875 49.140625 6.21875 
Q 49.703125 2.984375 51.375 0 
L 42.1875 0 
Q 40.828125 2.734375 40.4375 6.390625 
z
M 39.703125 26.03125 
Q 34.90625 24.078125 25.34375 22.703125 
Q 19.921875 21.921875 17.671875 20.9375 
Q 15.4375 19.96875 14.203125 18.09375 
Q 12.984375 16.21875 12.984375 13.921875 
Q 12.984375 10.40625 15.640625 8.0625 
Q 18.3125 5.71875 23.4375 5.71875 
Q 28.515625 5.71875 32.46875 7.9375 
Q 36.421875 10.15625 38.28125 14.015625 
Q 39.703125 17 39.703125 22.796875 
z
" id="ArialMT-61"/>
       <path d="M 6.203125 -19.96875 
L 5.21875 -11.71875 
Q 8.109375 -12.5 10.25 -12.5 
Q 13.1875 -12.5 14.9375 -11.515625 
Q 16.703125 -10.546875 17.828125 -8.796875 
Q 18.65625 -7.46875 20.515625 -2.25 
Q 20.75 -1.515625 21.296875 -0.09375 
L 1.609375 51.859375 
L 11.078125 51.859375 
L 21.875 21.828125 
Q 23.96875 16.109375 25.640625 9.8125 
Q 27.15625 15.875 29.25 21.625 
L 40.328125 51.859375 
L 49.125 51.859375 
L 29.390625 -0.875 
Q 26.21875 -9.421875 24.46875 -12.640625 
Q 22.125 -17 19.09375 -19.015625 
Q 16.0625 -21.046875 11.859375 -21.046875 
Q 9.328125 -21.046875 6.203125 -19.96875 
z
" id="ArialMT-79"/>
      </defs>
      <g style="fill:#262626;" transform="translate(92.788703 390.185738)scale(0.1 -0.1)">
       <use xlink:href="#ArialMT-4d"/>
       <use x="83.300781" xlink:href="#ArialMT-6f"/>
       <use x="138.916016" xlink:href="#ArialMT-6e"/>
       <use x="194.53125" xlink:href="#ArialMT-64"/>
       <use x="250.146484" xlink:href="#ArialMT-61"/>
       <use x="305.761719" xlink:href="#ArialMT-79"/>
      </g>
     </g>
    </g>
    <g id="xtick_2">
     <g id="line2d_2"/>
     <g id="text_2">
      <!-- Tuesday -->
      <defs>
       <path d="M 25.921875 0 
L 25.921875 63.140625 
L 2.34375 63.140625 
L 2.34375 71.578125 
L 59.078125 71.578125 
L 59.078125 63.140625 
L 35.40625 63.140625 
L 35.40625 0 
z
" id="ArialMT-54"/>
       <path d="M 40.578125 0 
L 40.578125 7.625 
Q 34.515625 -1.171875 24.125 -1.171875 
Q 19.53125 -1.171875 15.546875 0.578125 
Q 11.578125 2.34375 9.640625 5 
Q 7.71875 7.671875 6.9375 11.53125 
Q 6.390625 14.109375 6.390625 19.734375 
L 6.390625 51.859375 
L 15.1875 51.859375 
L 15.1875 23.09375 
Q 15.1875 16.21875 15.71875 13.8125 
Q 16.546875 10.359375 19.234375 8.375 
Q 21.921875 6.390625 25.875 6.390625 
Q 29.828125 6.390625 33.296875 8.421875 
Q 36.765625 10.453125 38.203125 13.9375 
Q 39.65625 17.4375 39.65625 24.078125 
L 39.65625 51.859375 
L 48.4375 51.859375 
L 48.4375 0 
z
" id="ArialMT-75"/>
       <path d="M 42.09375 16.703125 
L 51.171875 15.578125 
Q 49.03125 7.625 43.21875 3.21875 
Q 37.40625 -1.171875 28.375 -1.171875 
Q 17 -1.171875 10.328125 5.828125 
Q 3.65625 12.84375 3.65625 25.484375 
Q 3.65625 38.578125 10.390625 45.796875 
Q 17.140625 53.03125 27.875 53.03125 
Q 38.28125 53.03125 44.875 45.953125 
Q 51.46875 38.875 51.46875 26.03125 
Q 51.46875 25.25 51.421875 23.6875 
L 12.75 23.6875 
Q 13.234375 15.140625 17.578125 10.59375 
Q 21.921875 6.0625 28.421875 6.0625 
Q 33.25 6.0625 36.671875 8.59375 
Q 40.09375 11.140625 42.09375 16.703125 
z
M 13.234375 30.90625 
L 42.1875 30.90625 
Q 41.609375 37.453125 38.875 40.71875 
Q 34.671875 45.796875 27.984375 45.796875 
Q 21.921875 45.796875 17.796875 41.75 
Q 13.671875 37.703125 13.234375 30.90625 
z
" id="ArialMT-65"/>
       <path d="M 3.078125 15.484375 
L 11.765625 16.84375 
Q 12.5 11.625 15.84375 8.84375 
Q 19.1875 6.0625 25.203125 6.0625 
Q 31.25 6.0625 34.171875 8.515625 
Q 37.109375 10.984375 37.109375 14.3125 
Q 37.109375 17.28125 34.515625 19 
Q 32.71875 20.171875 25.53125 21.96875 
Q 15.875 24.421875 12.140625 26.203125 
Q 8.40625 27.984375 6.46875 31.125 
Q 4.546875 34.28125 4.546875 38.09375 
Q 4.546875 41.546875 6.125 44.5 
Q 7.71875 47.46875 10.453125 49.421875 
Q 12.5 50.921875 16.03125 51.96875 
Q 19.578125 53.03125 23.640625 53.03125 
Q 29.734375 53.03125 34.34375 51.265625 
Q 38.96875 49.515625 41.15625 46.5 
Q 43.359375 43.5 44.1875 38.484375 
L 35.59375 37.3125 
Q 35.015625 41.3125 32.203125 43.546875 
Q 29.390625 45.796875 24.265625 45.796875 
Q 18.21875 45.796875 15.625 43.796875 
Q 13.03125 41.796875 13.03125 39.109375 
Q 13.03125 37.40625 14.109375 36.03125 
Q 15.1875 34.625 17.484375 33.6875 
Q 18.796875 33.203125 25.25 31.453125 
Q 34.578125 28.953125 38.25 27.359375 
Q 41.9375 25.78125 44.03125 22.75 
Q 46.140625 19.734375 46.140625 15.234375 
Q 46.140625 10.84375 43.578125 6.953125 
Q 41.015625 3.078125 36.171875 0.953125 
Q 31.34375 -1.171875 25.25 -1.171875 
Q 15.140625 -1.171875 9.84375 3.03125 
Q 4.546875 7.234375 3.078125 15.484375 
z
" id="ArialMT-73"/>
      </defs>
      <g style="fill:#262626;" transform="translate(187.059127 390.185738)scale(0.1 -0.1)">
       <use xlink:href="#ArialMT-54"/>
       <use x="61.037109" xlink:href="#ArialMT-75"/>
       <use x="116.652344" xlink:href="#ArialMT-65"/>
       <use x="172.267578" xlink:href="#ArialMT-73"/>
       <use x="222.267578" xlink:href="#ArialMT-64"/>
       <use x="277.882812" xlink:href="#ArialMT-61"/>
       <use x="333.498047" xlink:href="#ArialMT-79"/>
      </g>
     </g>
    </g>
    <g id="xtick_3">
     <g id="line2d_3"/>
     <g id="text_3">
      <!-- Wednesday -->
      <defs>
       <path d="M 20.21875 0 
L 1.21875 71.578125 
L 10.9375 71.578125 
L 21.828125 24.65625 
Q 23.578125 17.28125 24.859375 10.015625 
Q 27.59375 21.484375 28.078125 23.25 
L 41.703125 71.578125 
L 53.125 71.578125 
L 63.375 35.359375 
Q 67.234375 21.875 68.953125 10.015625 
Q 70.3125 16.796875 72.515625 25.59375 
L 83.734375 71.578125 
L 93.265625 71.578125 
L 73.640625 0 
L 64.5 0 
L 49.421875 54.546875 
Q 47.515625 61.375 47.171875 62.9375 
Q 46.046875 58.015625 45.0625 54.546875 
L 29.890625 0 
z
" id="ArialMT-57"/>
      </defs>
      <g style="fill:#262626;" transform="translate(275.488145 390.185738)scale(0.1 -0.1)">
       <use xlink:href="#ArialMT-57"/>
       <use x="94.369141" xlink:href="#ArialMT-65"/>
       <use x="149.984375" xlink:href="#ArialMT-64"/>
       <use x="205.599609" xlink:href="#ArialMT-6e"/>
       <use x="261.214844" xlink:href="#ArialMT-65"/>
       <use x="316.830078" xlink:href="#ArialMT-73"/>
       <use x="366.830078" xlink:href="#ArialMT-64"/>
       <use x="422.445312" xlink:href="#ArialMT-61"/>
       <use x="478.060547" xlink:href="#ArialMT-79"/>
      </g>
     </g>
    </g>
    <g id="xtick_4">
     <g id="line2d_4"/>
     <g id="text_4">
      <!-- Thursday -->
      <defs>
       <path d="M 6.59375 0 
L 6.59375 71.578125 
L 15.375 71.578125 
L 15.375 45.90625 
Q 21.53125 53.03125 30.90625 53.03125 
Q 36.671875 53.03125 40.921875 50.75 
Q 45.171875 48.484375 47 44.484375 
Q 48.828125 40.484375 48.828125 32.859375 
L 48.828125 0 
L 40.046875 0 
L 40.046875 32.859375 
Q 40.046875 39.453125 37.1875 42.453125 
Q 34.328125 45.453125 29.109375 45.453125 
Q 25.203125 45.453125 21.75 43.421875 
Q 18.3125 41.40625 16.84375 37.9375 
Q 15.375 34.46875 15.375 28.375 
L 15.375 0 
z
" id="ArialMT-68"/>
       <path d="M 6.5 0 
L 6.5 51.859375 
L 14.40625 51.859375 
L 14.40625 44 
Q 17.4375 49.515625 20 51.265625 
Q 22.5625 53.03125 25.640625 53.03125 
Q 30.078125 53.03125 34.671875 50.203125 
L 31.640625 42.046875 
Q 28.421875 43.953125 25.203125 43.953125 
Q 22.3125 43.953125 20.015625 42.21875 
Q 17.71875 40.484375 16.75 37.40625 
Q 15.28125 32.71875 15.28125 27.15625 
L 15.28125 0 
z
" id="ArialMT-72"/>
      </defs>
      <g style="fill:#262626;" transform="translate(376.706225 390.185738)scale(0.1 -0.1)">
       <use xlink:href="#ArialMT-54"/>
       <use x="61.083984" xlink:href="#ArialMT-68"/>
       <use x="116.699219" xlink:href="#ArialMT-75"/>
       <use x="172.314453" xlink:href="#ArialMT-72"/>
       <use x="205.615234" xlink:href="#ArialMT-73"/>
       <use x="255.615234" xlink:href="#ArialMT-64"/>
       <use x="311.230469" xlink:href="#ArialMT-61"/>
       <use x="366.845703" xlink:href="#ArialMT-79"/>
      </g>
     </g>
    </g>
    <g id="xtick_5">
     <g id="line2d_5"/>
     <g id="text_5">
      <!-- Friday -->
      <defs>
       <path d="M 8.203125 0 
L 8.203125 71.578125 
L 56.5 71.578125 
L 56.5 63.140625 
L 17.671875 63.140625 
L 17.671875 40.96875 
L 51.265625 40.96875 
L 51.265625 32.515625 
L 17.671875 32.515625 
L 17.671875 0 
z
" id="ArialMT-46"/>
       <path d="M 6.640625 61.46875 
L 6.640625 71.578125 
L 15.4375 71.578125 
L 15.4375 61.46875 
z
M 6.640625 0 
L 6.640625 51.859375 
L 15.4375 51.859375 
L 15.4375 0 
z
" id="ArialMT-69"/>
      </defs>
      <g style="fill:#262626;" transform="translate(479.313368 390.185738)scale(0.1 -0.1)">
       <use xlink:href="#ArialMT-46"/>
       <use x="61.083984" xlink:href="#ArialMT-72"/>
       <use x="94.384766" xlink:href="#ArialMT-69"/>
       <use x="116.601562" xlink:href="#ArialMT-64"/>
       <use x="172.216797" xlink:href="#ArialMT-61"/>
       <use x="227.832031" xlink:href="#ArialMT-79"/>
      </g>
     </g>
    </g>
    <g id="xtick_6">
     <g id="line2d_6"/>
     <g id="text_6">
      <!-- Saturday -->
      <defs>
       <path d="M 4.5 23 
L 13.421875 23.78125 
Q 14.0625 18.40625 16.375 14.96875 
Q 18.703125 11.53125 23.578125 9.40625 
Q 28.46875 7.28125 34.578125 7.28125 
Q 39.984375 7.28125 44.140625 8.890625 
Q 48.296875 10.5 50.3125 13.296875 
Q 52.34375 16.109375 52.34375 19.4375 
Q 52.34375 22.796875 50.390625 25.3125 
Q 48.4375 27.828125 43.953125 29.546875 
Q 41.0625 30.671875 31.203125 33.03125 
Q 21.34375 35.40625 17.390625 37.5 
Q 12.25 40.1875 9.734375 44.15625 
Q 7.234375 48.140625 7.234375 53.078125 
Q 7.234375 58.5 10.296875 63.203125 
Q 13.375 67.921875 19.28125 70.359375 
Q 25.203125 72.796875 32.421875 72.796875 
Q 40.375 72.796875 46.453125 70.234375 
Q 52.546875 67.671875 55.8125 62.6875 
Q 59.078125 57.71875 59.328125 51.421875 
L 50.25 50.734375 
Q 49.515625 57.515625 45.28125 60.984375 
Q 41.0625 64.453125 32.8125 64.453125 
Q 24.21875 64.453125 20.28125 61.296875 
Q 16.359375 58.15625 16.359375 53.71875 
Q 16.359375 49.859375 19.140625 47.359375 
Q 21.875 44.875 33.421875 42.265625 
Q 44.96875 39.65625 49.265625 37.703125 
Q 55.515625 34.8125 58.484375 30.390625 
Q 61.46875 25.984375 61.46875 20.21875 
Q 61.46875 14.5 58.203125 9.4375 
Q 54.9375 4.390625 48.796875 1.578125 
Q 42.671875 -1.21875 35.015625 -1.21875 
Q 25.296875 -1.21875 18.71875 1.609375 
Q 12.15625 4.4375 8.421875 10.125 
Q 4.6875 15.828125 4.5 23 
z
" id="ArialMT-53"/>
       <path d="M 25.78125 7.859375 
L 27.046875 0.09375 
Q 23.34375 -0.6875 20.40625 -0.6875 
Q 15.625 -0.6875 12.984375 0.828125 
Q 10.359375 2.34375 9.28125 4.8125 
Q 8.203125 7.28125 8.203125 15.1875 
L 8.203125 45.015625 
L 1.765625 45.015625 
L 1.765625 51.859375 
L 8.203125 51.859375 
L 8.203125 64.703125 
L 16.9375 69.96875 
L 16.9375 51.859375 
L 25.78125 51.859375 
L 25.78125 45.015625 
L 16.9375 45.015625 
L 16.9375 14.703125 
Q 16.9375 10.9375 17.40625 9.859375 
Q 17.875 8.796875 18.921875 8.15625 
Q 19.96875 7.515625 21.921875 7.515625 
Q 23.390625 7.515625 25.78125 7.859375 
z
" id="ArialMT-74"/>
      </defs>
      <g style="fill:#262626;" transform="translate(568.850198 390.307613)scale(0.1 -0.1)">
       <use xlink:href="#ArialMT-53"/>
       <use x="66.699219" xlink:href="#ArialMT-61"/>
       <use x="122.314453" xlink:href="#ArialMT-74"/>
       <use x="150.097656" xlink:href="#ArialMT-75"/>
       <use x="205.712891" xlink:href="#ArialMT-72"/>
       <use x="239.013672" xlink:href="#ArialMT-64"/>
       <use x="294.628906" xlink:href="#ArialMT-61"/>
       <use x="350.244141" xlink:href="#ArialMT-79"/>
      </g>
     </g>
    </g>
    <g id="xtick_7">
     <g id="line2d_7"/>
     <g id="text_7">
      <!-- Sunday -->
      <g style="fill:#262626;" transform="translate(667.561247 390.307613)scale(0.1 -0.1)">
       <use xlink:href="#ArialMT-53"/>
       <use x="66.699219" xlink:href="#ArialMT-75"/>
       <use x="122.314453" xlink:href="#ArialMT-6e"/>
       <use x="177.929688" xlink:href="#ArialMT-64"/>
       <use x="233.544922" xlink:href="#ArialMT-61"/>
       <use x="289.160156" xlink:href="#ArialMT-79"/>
      </g>
     </g>
    </g>
   </g>
   <g id="matplotlib.axis_2">
    <g id="ytick_1">
     <g id="line2d_8"/>
     <g id="text_8">
      <!-- 0 -->
      <defs>
       <path d="M 4.15625 35.296875 
Q 4.15625 48 6.765625 55.734375 
Q 9.375 63.484375 14.515625 67.671875 
Q 19.671875 71.875 27.484375 71.875 
Q 33.25 71.875 37.59375 69.546875 
Q 41.9375 67.234375 44.765625 62.859375 
Q 47.609375 58.5 49.21875 52.21875 
Q 50.828125 45.953125 50.828125 35.296875 
Q 50.828125 22.703125 48.234375 14.96875 
Q 45.65625 7.234375 40.5 3 
Q 35.359375 -1.21875 27.484375 -1.21875 
Q 17.140625 -1.21875 11.234375 6.203125 
Q 4.15625 15.140625 4.15625 35.296875 
z
M 13.1875 35.296875 
Q 13.1875 17.671875 17.3125 11.828125 
Q 21.4375 6 27.484375 6 
Q 33.546875 6 37.671875 11.859375 
Q 41.796875 17.71875 41.796875 35.296875 
Q 41.796875 52.984375 37.671875 58.78125 
Q 33.546875 64.59375 27.390625 64.59375 
Q 21.34375 64.59375 17.71875 59.46875 
Q 13.1875 52.9375 13.1875 35.296875 
z
" id="ArialMT-30"/>
      </defs>
      <g style="fill:#262626;" transform="translate(43.685913 373.106831)scale(0.1 -0.1)">
       <use xlink:href="#ArialMT-30"/>
      </g>
     </g>
    </g>
    <g id="ytick_2">
     <g id="line2d_9"/>
     <g id="text_9">
      <!-- 500 -->
      <defs>
       <path d="M 4.15625 18.75 
L 13.375 19.53125 
Q 14.40625 12.796875 18.140625 9.390625 
Q 21.875 6 27.15625 6 
Q 33.5 6 37.890625 10.78125 
Q 42.28125 15.578125 42.28125 23.484375 
Q 42.28125 31 38.0625 35.34375 
Q 33.84375 39.703125 27 39.703125 
Q 22.75 39.703125 19.328125 37.765625 
Q 15.921875 35.84375 13.96875 32.765625 
L 5.71875 33.84375 
L 12.640625 70.609375 
L 48.25 70.609375 
L 48.25 62.203125 
L 19.671875 62.203125 
L 15.828125 42.96875 
Q 22.265625 47.46875 29.34375 47.46875 
Q 38.71875 47.46875 45.15625 40.96875 
Q 51.609375 34.46875 51.609375 24.265625 
Q 51.609375 14.546875 45.953125 7.46875 
Q 39.0625 -1.21875 27.15625 -1.21875 
Q 17.390625 -1.21875 11.203125 4.25 
Q 5.03125 9.71875 4.15625 18.75 
z
" id="ArialMT-35"/>
      </defs>
      <g style="fill:#262626;" transform="translate(32.564038 318.746831)scale(0.1 -0.1)">
       <use xlink:href="#ArialMT-35"/>
       <use x="55.615234" xlink:href="#ArialMT-30"/>
       <use x="111.230469" xlink:href="#ArialMT-30"/>
      </g>
     </g>
    </g>
    <g id="ytick_3">
     <g id="line2d_10"/>
     <g id="text_10">
      <!-- 1000 -->
      <defs>
       <path d="M 37.25 0 
L 28.46875 0 
L 28.46875 56 
Q 25.296875 52.984375 20.140625 49.953125 
Q 14.984375 46.921875 10.890625 45.40625 
L 10.890625 53.90625 
Q 18.265625 57.375 23.78125 62.296875 
Q 29.296875 67.234375 31.59375 71.875 
L 37.25 71.875 
z
" id="ArialMT-31"/>
      </defs>
      <g style="fill:#262626;" transform="translate(27.0031 264.386831)scale(0.1 -0.1)">
       <use xlink:href="#ArialMT-31"/>
       <use x="55.615234" xlink:href="#ArialMT-30"/>
       <use x="111.230469" xlink:href="#ArialMT-30"/>
       <use x="166.845703" xlink:href="#ArialMT-30"/>
      </g>
     </g>
    </g>
    <g id="ytick_4">
     <g id="line2d_11"/>
     <g id="text_11">
      <!-- 1500 -->
      <g style="fill:#262626;" transform="translate(27.0031 210.026831)scale(0.1 -0.1)">
       <use xlink:href="#ArialMT-31"/>
       <use x="55.615234" xlink:href="#ArialMT-35"/>
       <use x="111.230469" xlink:href="#ArialMT-30"/>
       <use x="166.845703" xlink:href="#ArialMT-30"/>
      </g>
     </g>
    </g>
    <g id="ytick_5">
     <g id="line2d_12"/>
     <g id="text_12">
      <!-- 2000 -->
      <defs>
       <path d="M 50.34375 8.453125 
L 50.34375 0 
L 3.03125 0 
Q 2.9375 3.171875 4.046875 6.109375 
Q 5.859375 10.9375 9.828125 15.625 
Q 13.8125 20.3125 21.34375 26.46875 
Q 33.015625 36.03125 37.109375 41.625 
Q 41.21875 47.21875 41.21875 52.203125 
Q 41.21875 57.421875 37.46875 61 
Q 33.734375 64.59375 27.734375 64.59375 
Q 21.390625 64.59375 17.578125 60.78125 
Q 13.765625 56.984375 13.71875 50.25 
L 4.6875 51.171875 
Q 5.609375 61.28125 11.65625 66.578125 
Q 17.71875 71.875 27.9375 71.875 
Q 38.234375 71.875 44.234375 66.15625 
Q 50.25 60.453125 50.25 52 
Q 50.25 47.703125 48.484375 43.546875 
Q 46.734375 39.40625 42.65625 34.8125 
Q 38.578125 30.21875 29.109375 22.21875 
Q 21.1875 15.578125 18.9375 13.203125 
Q 16.703125 10.84375 15.234375 8.453125 
z
" id="ArialMT-32"/>
      </defs>
      <g style="fill:#262626;" transform="translate(27.0031 155.666831)scale(0.1 -0.1)">
       <use xlink:href="#ArialMT-32"/>
       <use x="55.615234" xlink:href="#ArialMT-30"/>
       <use x="111.230469" xlink:href="#ArialMT-30"/>
       <use x="166.845703" xlink:href="#ArialMT-30"/>
      </g>
     </g>
    </g>
    <g id="ytick_6">
     <g id="line2d_13"/>
     <g id="text_13">
      <!-- 2500 -->
      <g style="fill:#262626;" transform="translate(27.0031 101.306831)scale(0.1 -0.1)">
       <use xlink:href="#ArialMT-32"/>
       <use x="55.615234" xlink:href="#ArialMT-35"/>
       <use x="111.230469" xlink:href="#ArialMT-30"/>
       <use x="166.845703" xlink:href="#ArialMT-30"/>
      </g>
     </g>
    </g>
    <g id="ytick_7">
     <g id="line2d_14"/>
     <g id="text_14">
      <!-- 3000 -->
      <defs>
       <path d="M 4.203125 18.890625 
L 12.984375 20.0625 
Q 14.5 12.59375 18.140625 9.296875 
Q 21.78125 6 27 6 
Q 33.203125 6 37.46875 10.296875 
Q 41.75 14.59375 41.75 20.953125 
Q 41.75 27 37.796875 30.921875 
Q 33.84375 34.859375 27.734375 34.859375 
Q 25.25 34.859375 21.53125 33.890625 
L 22.515625 41.609375 
Q 23.390625 41.5 23.921875 41.5 
Q 29.546875 41.5 34.03125 44.421875 
Q 38.53125 47.359375 38.53125 53.46875 
Q 38.53125 58.296875 35.25 61.46875 
Q 31.984375 64.65625 26.8125 64.65625 
Q 21.6875 64.65625 18.265625 61.421875 
Q 14.84375 58.203125 13.875 51.765625 
L 5.078125 53.328125 
Q 6.6875 62.15625 12.390625 67.015625 
Q 18.109375 71.875 26.609375 71.875 
Q 32.46875 71.875 37.390625 69.359375 
Q 42.328125 66.84375 44.9375 62.5 
Q 47.5625 58.15625 47.5625 53.265625 
Q 47.5625 48.640625 45.0625 44.828125 
Q 42.578125 41.015625 37.703125 38.765625 
Q 44.046875 37.3125 47.5625 32.6875 
Q 51.078125 28.078125 51.078125 21.140625 
Q 51.078125 11.765625 44.234375 5.25 
Q 37.40625 -1.265625 26.953125 -1.265625 
Q 17.53125 -1.265625 11.296875 4.34375 
Q 5.078125 9.96875 4.203125 18.890625 
z
" id="ArialMT-33"/>
      </defs>
      <g style="fill:#262626;" transform="translate(27.0031 46.946831)scale(0.1 -0.1)">
       <use xlink:href="#ArialMT-33"/>
       <use x="55.615234" xlink:href="#ArialMT-30"/>
       <use x="111.230469" xlink:href="#ArialMT-30"/>
       <use x="166.845703" xlink:href="#ArialMT-30"/>
      </g>
     </g>
    </g>
    <g id="text_15">
     <!-- Accidents -->
     <defs>
      <path d="M -0.140625 0 
L 27.34375 71.578125 
L 37.546875 71.578125 
L 66.84375 0 
L 56.0625 0 
L 47.703125 21.6875 
L 17.78125 21.6875 
L 9.90625 0 
z
M 20.515625 29.390625 
L 44.78125 29.390625 
L 37.3125 49.21875 
Q 33.890625 58.25 32.234375 64.0625 
Q 30.859375 57.171875 28.375 50.390625 
z
" id="ArialMT-41"/>
      <path d="M 40.4375 19 
L 49.078125 17.875 
Q 47.65625 8.9375 41.8125 3.875 
Q 35.984375 -1.171875 27.484375 -1.171875 
Q 16.84375 -1.171875 10.375 5.78125 
Q 3.90625 12.75 3.90625 25.734375 
Q 3.90625 34.125 6.6875 40.421875 
Q 9.46875 46.734375 15.15625 49.875 
Q 20.84375 53.03125 27.546875 53.03125 
Q 35.984375 53.03125 41.359375 48.75 
Q 46.734375 44.484375 48.25 36.625 
L 39.703125 35.296875 
Q 38.484375 40.53125 35.375 43.15625 
Q 32.28125 45.796875 27.875 45.796875 
Q 21.234375 45.796875 17.078125 41.03125 
Q 12.9375 36.28125 12.9375 25.984375 
Q 12.9375 15.53125 16.9375 10.796875 
Q 20.953125 6.0625 27.390625 6.0625 
Q 32.5625 6.0625 36.03125 9.234375 
Q 39.5 12.40625 40.4375 19 
z
" id="ArialMT-63"/>
     </defs>
     <g style="fill:#262626;" transform="translate(19.5687 243.905025)rotate(-90)scale(0.1728 -0.1728)">
      <use xlink:href="#ArialMT-41"/>
      <use x="66.699219" xlink:href="#ArialMT-63"/>
      <use x="116.699219" xlink:href="#ArialMT-63"/>
      <use x="166.699219" xlink:href="#ArialMT-69"/>
      <use x="188.916016" xlink:href="#ArialMT-64"/>
      <use x="244.53125" xlink:href="#ArialMT-65"/>
      <use x="300.146484" xlink:href="#ArialMT-6e"/>
      <use x="355.761719" xlink:href="#ArialMT-74"/>
      <use x="383.544922" xlink:href="#ArialMT-73"/>
     </g>
    </g>
   </g>
   <g id="PolyCollection_1">
    <defs>
     <path d="M 110.840967 -98.686695 
L 110.309876 -98.686695 
L 110.221927 -100.432804 
L 110.091688 -102.178913 
L 109.900808 -103.925022 
L 109.632212 -105.671131 
L 109.274873 -107.41724 
L 108.828472 -109.16335 
L 108.306532 -110.909459 
L 107.736561 -112.655568 
L 107.156127 -114.401677 
L 106.604596 -116.147786 
L 106.111719 -117.893895 
L 105.685627 -119.640004 
L 105.30369 -121.386113 
L 104.909426 -123.132222 
L 104.417285 -124.878331 
L 103.725282 -126.62444 
L 102.733562 -128.37055 
L 101.365566 -130.116659 
L 99.587527 -131.862768 
L 97.42178 -133.608877 
L 94.95017 -135.354986 
L 92.305887 -137.101095 
L 89.655092 -138.847204 
L 87.172531 -140.593313 
L 85.016797 -142.339422 
L 83.31042 -144.085531 
L 82.127967 -145.83164 
L 81.49291 -147.57775 
L 81.38203 -149.323859 
L 81.734755 -151.069968 
L 82.464172 -152.816077 
L 83.466686 -154.562186 
L 84.6288 -156.308295 
L 85.831905 -158.054404 
L 86.957868 -159.800513 
L 87.897971 -161.546622 
L 88.565236 -163.292731 
L 88.906872 -165.03884 
L 88.912203 -166.78495 
L 88.612822 -168.531059 
L 88.074968 -170.277168 
L 87.386864 -172.023277 
L 86.644561 -173.769386 
L 85.939195 -175.515495 
L 85.347615 -177.261604 
L 84.927961 -179.007713 
L 84.721055 -180.753822 
L 84.756663 -182.499931 
L 85.060946 -184.24604 
L 85.659734 -185.99215 
L 86.57372 -187.738259 
L 87.8064 -189.484368 
L 89.330923 -191.230477 
L 91.084344 -192.976586 
L 92.974798 -194.722695 
L 94.900352 -196.468804 
L 96.771736 -198.214913 
L 98.528931 -199.961022 
L 100.14501 -201.707131 
L 101.617429 -203.45324 
L 102.953074 -205.19935 
L 104.155365 -206.945459 
L 105.219113 -208.691568 
L 106.133693 -210.437677 
L 106.890765 -212.183786 
L 107.491355 -213.929895 
L 107.948724 -215.676004 
L 108.286424 -217.422113 
L 108.53329 -219.168222 
L 108.717891 -220.914331 
L 108.864261 -222.66044 
L 108.989628 -224.40655 
L 109.103981 -226.152659 
L 109.211048 -227.898768 
L 109.310219 -229.644877 
L 109.398949 -231.390986 
L 109.475084 -233.137095 
L 109.538512 -234.883204 
L 109.591719 -236.629313 
L 109.639187 -238.375422 
L 109.685984 -240.121531 
L 109.736165 -241.86764 
L 109.79166 -243.61375 
L 109.852088 -245.359859 
L 109.915529 -247.105968 
L 109.979811 -248.852077 
L 110.043577 -250.598186 
L 110.106561 -252.344295 
L 110.168925 -254.090404 
L 110.230159 -255.836513 
L 110.288267 -257.582622 
L 110.339842 -259.328731 
L 110.381084 -261.07484 
L 110.409284 -262.82095 
L 110.424096 -264.567059 
L 110.427994 -266.313168 
L 110.425714 -268.059277 
L 110.422892 -269.805386 
L 110.424413 -271.551495 
L 110.72643 -271.551495 
L 110.72643 -271.551495 
L 110.727951 -269.805386 
L 110.725129 -268.059277 
L 110.722849 -266.313168 
L 110.726747 -264.567059 
L 110.741559 -262.82095 
L 110.769759 -261.07484 
L 110.811001 -259.328731 
L 110.862576 -257.582622 
L 110.920684 -255.836513 
L 110.981917 -254.090404 
L 111.044282 -252.344295 
L 111.107266 -250.598186 
L 111.171032 -248.852077 
L 111.235314 -247.105968 
L 111.298755 -245.359859 
L 111.359183 -243.61375 
L 111.414678 -241.86764 
L 111.464859 -240.121531 
L 111.511656 -238.375422 
L 111.559124 -236.629313 
L 111.612331 -234.883204 
L 111.675759 -233.137095 
L 111.751894 -231.390986 
L 111.840624 -229.644877 
L 111.939795 -227.898768 
L 112.046862 -226.152659 
L 112.161215 -224.40655 
L 112.286581 -222.66044 
L 112.432952 -220.914331 
L 112.617553 -219.168222 
L 112.864419 -217.422113 
L 113.202118 -215.676004 
L 113.659488 -213.929895 
L 114.260078 -212.183786 
L 115.01715 -210.437677 
L 115.93173 -208.691568 
L 116.995478 -206.945459 
L 118.197769 -205.19935 
L 119.533414 -203.45324 
L 121.005833 -201.707131 
L 122.621912 -199.961022 
L 124.379107 -198.214913 
L 126.250491 -196.468804 
L 128.176045 -194.722695 
L 130.066499 -192.976586 
L 131.819919 -191.230477 
L 133.344442 -189.484368 
L 134.577123 -187.738259 
L 135.491109 -185.99215 
L 136.089896 -184.24604 
L 136.39418 -182.499931 
L 136.429788 -180.753822 
L 136.222882 -179.007713 
L 135.803227 -177.261604 
L 135.211648 -175.515495 
L 134.506282 -173.769386 
L 133.763979 -172.023277 
L 133.075874 -170.277168 
L 132.538021 -168.531059 
L 132.238639 -166.78495 
L 132.243971 -165.03884 
L 132.585607 -163.292731 
L 133.252872 -161.546622 
L 134.192975 -159.800513 
L 135.318937 -158.054404 
L 136.522043 -156.308295 
L 137.684157 -154.562186 
L 138.686671 -152.816077 
L 139.416088 -151.069968 
L 139.768813 -149.323859 
L 139.657933 -147.57775 
L 139.022876 -145.83164 
L 137.840422 -144.085531 
L 136.134046 -142.339422 
L 133.978312 -140.593313 
L 131.495751 -138.847204 
L 128.844956 -137.101095 
L 126.200673 -135.354986 
L 123.729063 -133.608877 
L 121.563316 -131.862768 
L 119.785276 -130.116659 
L 118.417281 -128.37055 
L 117.425561 -126.62444 
L 116.733558 -124.878331 
L 116.241417 -123.132222 
L 115.847152 -121.386113 
L 115.465216 -119.640004 
L 115.039124 -117.893895 
L 114.546247 -116.147786 
L 113.994716 -114.401677 
L 113.414281 -112.655568 
L 112.844311 -110.909459 
L 112.32237 -109.16335 
L 111.87597 -107.41724 
L 111.518631 -105.671131 
L 111.250035 -103.925022 
L 111.059155 -102.178913 
L 110.928916 -100.432804 
L 110.840967 -98.686695 
z
" id="m8c969d6596" style="stroke:#353535;stroke-width:1.5;"/>
    </defs>
    <g clip-path="url(#p8b782899e4)">
     <use style="fill:#367182;stroke:#353535;stroke-width:1.5;" x="0" xlink:href="#m8c969d6596" y="399.6123"/>
    </g>
   </g>
   <g id="PolyCollection_2">
    <defs>
     <path d="M 206.491518 -97.708215 
L 205.973611 -97.708215 
L 205.949252 -99.409299 
L 205.936689 -101.110382 
L 205.934826 -102.811466 
L 205.939994 -104.51255 
L 205.946822 -106.213633 
L 205.9494 -107.914717 
L 205.942195 -109.6158 
L 205.920372 -111.316884 
L 205.879497 -113.017968 
L 205.814975 -114.719051 
L 205.721467 -116.420135 
L 205.592207 -118.121219 
L 205.417673 -119.822302 
L 205.183194 -121.523386 
L 204.865791 -123.22447 
L 204.431598 -124.925553 
L 203.835746 -126.626637 
L 203.02609 -128.32772 
L 201.950778 -130.028804 
L 200.568063 -131.729888 
L 198.855874 -133.430971 
L 196.818887 -135.132055 
L 194.49198 -136.833139 
L 191.940319 -138.534222 
L 189.257054 -140.235306 
L 186.55926 -141.93639 
L 183.981521 -143.637473 
L 181.665598 -145.338557 
L 179.745165 -147.03964 
L 178.327056 -148.740724 
L 177.473422 -150.441808 
L 177.190481 -152.142891 
L 177.427637 -153.843975 
L 178.086646 -155.545059 
L 179.036893 -157.246142 
L 180.132068 -158.947226 
L 181.225572 -160.64831 
L 182.184571 -162.349393 
L 182.903329 -164.050477 
L 183.314908 -165.75156 
L 183.398281 -167.452644 
L 183.177672 -169.153728 
L 182.71322 -170.854811 
L 182.085523 -172.555895 
L 181.379074 -174.256979 
L 180.669617 -175.958062 
L 180.018183 -177.659146 
L 179.471446 -179.36023 
L 179.065634 -181.061313 
L 178.830639 -182.762397 
L 178.792173 -184.46348 
L 178.97185 -186.164564 
L 179.386462 -187.865648 
L 180.047449 -189.566731 
L 180.960057 -191.267815 
L 182.1206 -192.968899 
L 183.511374 -194.669982 
L 185.095545 -196.371066 
L 186.816474 -198.07215 
L 188.604616 -199.773233 
L 190.390661 -201.474317 
L 192.119062 -203.1754 
L 193.755402 -204.876484 
L 195.284869 -206.577568 
L 196.704541 -208.278651 
L 198.015024 -209.979735 
L 199.215704 -211.680819 
L 200.304146 -213.381902 
L 201.277484 -215.082986 
L 202.133546 -216.78407 
L 202.871169 -218.485153 
L 203.490554 -220.186237 
L 203.994409 -221.88732 
L 204.389537 -223.588404 
L 204.687764 -225.289488 
L 204.905356 -226.990571 
L 205.061088 -228.691655 
L 205.173817 -230.392739 
L 205.26042 -232.093822 
L 205.334424 -233.794906 
L 205.405142 -235.49599 
L 205.477196 -237.197073 
L 205.550541 -238.898157 
L 205.621276 -240.59924 
L 205.683308 -242.300324 
L 205.730514 -244.001408 
L 205.758826 -245.702491 
L 205.767634 -247.403575 
L 205.760137 -249.104659 
L 205.742553 -250.805742 
L 205.722381 -252.506826 
L 205.706314 -254.20791 
L 205.698588 -255.908993 
L 205.700521 -257.610077 
L 205.71141 -259.31116 
L 205.73019 -261.012244 
L 205.756785 -262.713328 
L 205.792269 -264.414411 
L 205.837746 -266.115495 
L 206.627382 -266.115495 
L 206.627382 -266.115495 
L 206.67286 -264.414411 
L 206.708343 -262.713328 
L 206.734939 -261.012244 
L 206.753719 -259.31116 
L 206.764608 -257.610077 
L 206.766541 -255.908993 
L 206.758815 -254.20791 
L 206.742747 -252.506826 
L 206.722576 -250.805742 
L 206.704991 -249.104659 
L 206.697495 -247.403575 
L 206.706302 -245.702491 
L 206.734614 -244.001408 
L 206.78182 -242.300324 
L 206.843852 -240.59924 
L 206.914588 -238.898157 
L 206.987933 -237.197073 
L 207.059987 -235.49599 
L 207.130705 -233.794906 
L 207.204708 -232.093822 
L 207.291312 -230.392739 
L 207.40404 -228.691655 
L 207.559773 -226.990571 
L 207.777365 -225.289488 
L 208.075591 -223.588404 
L 208.47072 -221.88732 
L 208.974575 -220.186237 
L 209.593959 -218.485153 
L 210.331582 -216.78407 
L 211.187644 -215.082986 
L 212.160982 -213.381902 
L 213.249424 -211.680819 
L 214.450104 -209.979735 
L 215.760588 -208.278651 
L 217.180259 -206.577568 
L 218.709727 -204.876484 
L 220.346066 -203.1754 
L 222.074467 -201.474317 
L 223.860512 -199.773233 
L 225.648655 -198.07215 
L 227.369584 -196.371066 
L 228.953755 -194.669982 
L 230.344528 -192.968899 
L 231.505072 -191.267815 
L 232.417679 -189.566731 
L 233.078667 -187.865648 
L 233.493278 -186.164564 
L 233.672955 -184.46348 
L 233.63449 -182.762397 
L 233.399495 -181.061313 
L 232.993683 -179.36023 
L 232.446946 -177.659146 
L 231.795511 -175.958062 
L 231.086054 -174.256979 
L 230.379606 -172.555895 
L 229.751909 -170.854811 
L 229.287456 -169.153728 
L 229.066847 -167.452644 
L 229.15022 -165.75156 
L 229.5618 -164.050477 
L 230.280558 -162.349393 
L 231.239557 -160.64831 
L 232.333061 -158.947226 
L 233.428236 -157.246142 
L 234.378483 -155.545059 
L 235.037492 -153.843975 
L 235.274648 -152.142891 
L 234.991707 -150.441808 
L 234.138073 -148.740724 
L 232.719964 -147.03964 
L 230.799531 -145.338557 
L 228.483607 -143.637473 
L 225.905868 -141.93639 
L 223.208074 -140.235306 
L 220.52481 -138.534222 
L 217.973149 -136.833139 
L 215.646242 -135.132055 
L 213.609254 -133.430971 
L 211.897066 -131.729888 
L 210.514351 -130.028804 
L 209.439039 -128.32772 
L 208.629382 -126.626637 
L 208.03353 -124.925553 
L 207.599338 -123.22447 
L 207.281935 -121.523386 
L 207.047456 -119.822302 
L 206.872922 -118.121219 
L 206.743662 -116.420135 
L 206.650154 -114.719051 
L 206.585631 -113.017968 
L 206.544757 -111.316884 
L 206.522933 -109.6158 
L 206.515729 -107.914717 
L 206.518307 -106.213633 
L 206.525135 -104.51255 
L 206.530303 -102.811466 
L 206.52844 -101.110382 
L 206.515877 -99.409299 
L 206.491518 -97.708215 
z
" id="m1171c45bd7" style="stroke:#353535;stroke-width:1.5;"/>
    </defs>
    <g clip-path="url(#p8b782899e4)">
     <use style="fill:#2f837f;stroke:#353535;stroke-width:1.5;" x="0" xlink:href="#m1171c45bd7" y="399.6123"/>
    </g>
   </g>
   <g id="PolyCollection_3">
    <defs>
     <path d="M 302.048578 -90.532695 
L 301.730836 -90.532695 
L 301.738055 -92.357873 
L 301.757751 -94.183051 
L 301.784318 -96.00823 
L 301.810739 -97.833408 
L 301.830619 -99.658586 
L 301.839417 -101.483764 
L 301.834724 -103.308942 
L 301.816061 -105.13412 
L 301.784624 -106.959299 
L 301.742983 -108.784477 
L 301.694398 -110.609655 
L 301.641663 -112.434833 
L 301.585828 -114.260011 
L 301.525314 -116.08519 
L 301.455363 -117.910368 
L 301.366845 -119.735546 
L 301.243263 -121.560724 
L 301.055942 -123.385902 
L 300.759481 -125.21108 
L 300.291075 -127.036259 
L 299.576723 -128.861437 
L 298.544317 -130.686615 
L 297.139708 -132.511793 
L 295.339603 -134.336971 
L 293.156415 -136.16215 
L 290.634673 -137.987328 
L 287.843567 -139.812506 
L 284.87216 -141.637684 
L 281.830731 -143.462862 
L 278.855125 -145.28804 
L 276.105683 -147.113219 
L 273.753215 -148.938397 
L 271.951991 -150.763575 
L 270.808618 -152.588753 
L 270.359087 -154.413931 
L 270.562219 -156.23911 
L 271.309982 -158.064288 
L 272.449028 -159.889466 
L 273.805554 -161.714644 
L 275.206583 -163.539822 
L 276.494122 -165.365 
L 277.533346 -167.190179 
L 278.219727 -169.015357 
L 278.489912 -170.840535 
L 278.336197 -172.665713 
L 277.817287 -174.490891 
L 277.054316 -176.31607 
L 276.20551 -178.141248 
L 275.425337 -179.966426 
L 274.826589 -181.791604 
L 274.465846 -183.616782 
L 274.359444 -185.44196 
L 274.516886 -187.267139 
L 274.967116 -189.092317 
L 275.759459 -190.917495 
L 276.939621 -192.742673 
L 278.517103 -194.567851 
L 280.443235 -196.39303 
L 282.610481 -198.218208 
L 284.872429 -200.043386 
L 287.076774 -201.868564 
L 289.100677 -203.693742 
L 290.876949 -205.51892 
L 292.401287 -207.344099 
L 293.717181 -209.169277 
L 294.885291 -210.994455 
L 295.952016 -212.819633 
L 296.931905 -214.644811 
L 297.809972 -216.46999 
L 298.558751 -218.295168 
L 299.158334 -220.120346 
L 299.608807 -221.945524 
L 299.931015 -223.770702 
L 300.158302 -225.59588 
L 300.325207 -227.421059 
L 300.458711 -229.246237 
L 300.574988 -231.071415 
L 300.681476 -232.896593 
L 300.781504 -234.721771 
L 300.8779 -236.54695 
L 300.973491 -238.372128 
L 301.06923 -240.197306 
L 301.162562 -242.022484 
L 301.248144 -243.847662 
L 301.320721 -245.67284 
L 301.378146 -247.498019 
L 301.422571 -249.323197 
L 301.459371 -251.148375 
L 301.494747 -252.973553 
L 301.533298 -254.798731 
L 301.5764 -256.62391 
L 301.621747 -258.449088 
L 301.66417 -260.274266 
L 301.697653 -262.099444 
L 301.717987 -263.924622 
L 301.724969 -265.7498 
L 301.722977 -267.574979 
L 301.719428 -269.400157 
L 301.721724 -271.225335 
L 302.057691 -271.225335 
L 302.057691 -271.225335 
L 302.059987 -269.400157 
L 302.056437 -267.574979 
L 302.054446 -265.7498 
L 302.061427 -263.924622 
L 302.081761 -262.099444 
L 302.115244 -260.274266 
L 302.157667 -258.449088 
L 302.203014 -256.62391 
L 302.246116 -254.798731 
L 302.284667 -252.973553 
L 302.320043 -251.148375 
L 302.356843 -249.323197 
L 302.401268 -247.498019 
L 302.458693 -245.67284 
L 302.531271 -243.847662 
L 302.616852 -242.022484 
L 302.710184 -240.197306 
L 302.805923 -238.372128 
L 302.901514 -236.54695 
L 302.99791 -234.721771 
L 303.097939 -232.896593 
L 303.204427 -231.071415 
L 303.320703 -229.246237 
L 303.454207 -227.421059 
L 303.621112 -225.59588 
L 303.848399 -223.770702 
L 304.170607 -221.945524 
L 304.621081 -220.120346 
L 305.220663 -218.295168 
L 305.969442 -216.46999 
L 306.847509 -214.644811 
L 307.827398 -212.819633 
L 308.894123 -210.994455 
L 310.062234 -209.169277 
L 311.378128 -207.344099 
L 312.902465 -205.51892 
L 314.678737 -203.693742 
L 316.70264 -201.868564 
L 318.906985 -200.043386 
L 321.168933 -198.218208 
L 323.33618 -196.39303 
L 325.262312 -194.567851 
L 326.839793 -192.742673 
L 328.019956 -190.917495 
L 328.812298 -189.092317 
L 329.262528 -187.267139 
L 329.41997 -185.44196 
L 329.313568 -183.616782 
L 328.952825 -181.791604 
L 328.354077 -179.966426 
L 327.573904 -178.141248 
L 326.725099 -176.31607 
L 325.962127 -174.490891 
L 325.443218 -172.665713 
L 325.289502 -170.840535 
L 325.559688 -169.015357 
L 326.246068 -167.190179 
L 327.285292 -165.365 
L 328.572831 -163.539822 
L 329.97386 -161.714644 
L 331.330387 -159.889466 
L 332.469432 -158.064288 
L 333.217195 -156.23911 
L 333.420328 -154.413931 
L 332.970797 -152.588753 
L 331.827423 -150.763575 
L 330.026199 -148.938397 
L 327.673731 -147.113219 
L 324.924289 -145.28804 
L 321.948683 -143.462862 
L 318.907254 -141.637684 
L 315.935847 -139.812506 
L 313.144741 -137.987328 
L 310.622999 -136.16215 
L 308.439811 -134.336971 
L 306.639706 -132.511793 
L 305.235097 -130.686615 
L 304.202691 -128.861437 
L 303.488339 -127.036259 
L 303.019934 -125.21108 
L 302.723473 -123.385902 
L 302.536152 -121.560724 
L 302.412569 -119.735546 
L 302.324051 -117.910368 
L 302.2541 -116.08519 
L 302.193587 -114.260011 
L 302.137751 -112.434833 
L 302.085016 -110.609655 
L 302.036431 -108.784477 
L 301.99479 -106.959299 
L 301.963353 -105.13412 
L 301.94469 -103.308942 
L 301.939997 -101.483764 
L 301.948795 -99.658586 
L 301.968675 -97.833408 
L 301.995096 -96.00823 
L 302.021664 -94.183051 
L 302.041359 -92.357873 
L 302.048578 -90.532695 
z
" id="mb553b7c947" style="stroke:#353535;stroke-width:1.5;"/>
    </defs>
    <g clip-path="url(#p8b782899e4)">
     <use style="fill:#33977c;stroke:#353535;stroke-width:1.5;" x="0" xlink:href="#mb553b7c947" y="399.6123"/>
    </g>
   </g>
   <g id="PolyCollection_4">
    <defs>
     <path d="M 398.210644 -103.579095 
L 396.883056 -103.579095 
L 396.744982 -105.290062 
L 396.625577 -107.00103 
L 396.533657 -108.711997 
L 396.472104 -110.422964 
L 396.43842 -112.133931 
L 396.426888 -113.844899 
L 396.43042 -115.555866 
L 396.440459 -117.266833 
L 396.444962 -118.9778 
L 396.426168 -120.688768 
L 396.360066 -122.399735 
L 396.217957 -124.110702 
L 395.968642 -125.82167 
L 395.579452 -127.532637 
L 395.015809 -129.243604 
L 394.240943 -130.954571 
L 393.217873 -132.665539 
L 391.914309 -134.376506 
L 390.309098 -136.087473 
L 388.398122 -137.79844 
L 386.198672 -139.509408 
L 383.752915 -141.220375 
L 381.13126 -142.931342 
L 378.434572 -144.64231 
L 375.791651 -146.353277 
L 373.347906 -148.064244 
L 371.244051 -149.775211 
L 369.589251 -151.486179 
L 368.438259 -153.197146 
L 367.783035 -154.908113 
L 367.564099 -156.61908 
L 367.697078 -158.330048 
L 368.101148 -160.041015 
L 368.714592 -161.751982 
L 369.490853 -163.46295 
L 370.381287 -165.173917 
L 371.319216 -166.884884 
L 372.217431 -168.595851 
L 372.980514 -170.306819 
L 373.523319 -172.017786 
L 373.785265 -173.728753 
L 373.736563 -175.43972 
L 373.379747 -177.150688 
L 372.751492 -178.861655 
L 371.925303 -180.572622 
L 371.01069 -182.28359 
L 370.14389 -183.994557 
L 369.469459 -185.705524 
L 369.11743 -187.416491 
L 369.18303 -189.127459 
L 369.714088 -190.838426 
L 370.707564 -192.549393 
L 372.113936 -194.26036 
L 373.84779 -195.971328 
L 375.803263 -197.682295 
L 377.872195 -199.393262 
L 379.960982 -201.10423 
L 382.001163 -202.815197 
L 383.950626 -204.526164 
L 385.786385 -206.237131 
L 387.493649 -207.948099 
L 389.05698 -209.659066 
L 390.457315 -211.370033 
L 391.675095 -213.081 
L 392.696897 -214.791968 
L 393.521822 -216.502935 
L 394.164568 -218.213902 
L 394.653742 -219.92487 
L 395.025988 -221.635837 
L 395.31822 -223.346804 
L 395.561001 -225.057771 
L 395.775382 -226.768739 
L 395.973624 -228.479706 
L 396.162228 -230.190673 
L 396.344905 -231.90164 
L 396.523842 -233.612608 
L 396.699269 -235.323575 
L 396.868554 -237.034542 
L 397.026168 -238.74551 
L 397.164996 -240.456477 
L 397.278439 -242.167444 
L 397.36231 -243.878411 
L 397.415801 -245.589379 
L 397.441471 -247.300346 
L 397.444646 -249.011313 
L 397.432606 -250.72228 
L 397.413641 -252.433248 
L 397.395799 -254.144215 
L 397.385334 -255.855182 
L 397.385228 -257.56615 
L 397.394464 -259.277117 
L 397.408569 -260.988084 
L 397.421398 -262.699051 
L 397.427545 -264.410019 
L 397.424458 -266.120986 
L 397.41343 -267.831953 
L 397.399118 -269.54292 
L 397.387769 -271.253888 
L 397.384879 -272.964855 
L 397.708821 -272.964855 
L 397.708821 -272.964855 
L 397.705931 -271.253888 
L 397.694582 -269.54292 
L 397.68027 -267.831953 
L 397.669242 -266.120986 
L 397.666155 -264.410019 
L 397.672302 -262.699051 
L 397.685131 -260.988084 
L 397.699236 -259.277117 
L 397.708472 -257.56615 
L 397.708366 -255.855182 
L 397.697901 -254.144215 
L 397.680059 -252.433248 
L 397.661094 -250.72228 
L 397.649054 -249.011313 
L 397.652229 -247.300346 
L 397.677899 -245.589379 
L 397.73139 -243.878411 
L 397.815261 -242.167444 
L 397.928704 -240.456477 
L 398.067532 -238.74551 
L 398.225146 -237.034542 
L 398.394431 -235.323575 
L 398.569858 -233.612608 
L 398.748795 -231.90164 
L 398.931472 -230.190673 
L 399.120076 -228.479706 
L 399.318318 -226.768739 
L 399.532699 -225.057771 
L 399.77548 -223.346804 
L 400.067712 -221.635837 
L 400.439958 -219.92487 
L 400.929132 -218.213902 
L 401.571878 -216.502935 
L 402.396803 -214.791968 
L 403.418605 -213.081 
L 404.636385 -211.370033 
L 406.03672 -209.659066 
L 407.600051 -207.948099 
L 409.307315 -206.237131 
L 411.143074 -204.526164 
L 413.092537 -202.815197 
L 415.132718 -201.10423 
L 417.221505 -199.393262 
L 419.290437 -197.682295 
L 421.24591 -195.971328 
L 422.979764 -194.26036 
L 424.386136 -192.549393 
L 425.379612 -190.838426 
L 425.91067 -189.127459 
L 425.97627 -187.416491 
L 425.624241 -185.705524 
L 424.94981 -183.994557 
L 424.08301 -182.28359 
L 423.168397 -180.572622 
L 422.342208 -178.861655 
L 421.713953 -177.150688 
L 421.357137 -175.43972 
L 421.308435 -173.728753 
L 421.570381 -172.017786 
L 422.113186 -170.306819 
L 422.876269 -168.595851 
L 423.774484 -166.884884 
L 424.712413 -165.173917 
L 425.602847 -163.46295 
L 426.379108 -161.751982 
L 426.992552 -160.041015 
L 427.396622 -158.330048 
L 427.529601 -156.61908 
L 427.310665 -154.908113 
L 426.655441 -153.197146 
L 425.504449 -151.486179 
L 423.849649 -149.775211 
L 421.745794 -148.064244 
L 419.302049 -146.353277 
L 416.659128 -144.64231 
L 413.96244 -142.931342 
L 411.340785 -141.220375 
L 408.895028 -139.509408 
L 406.695578 -137.79844 
L 404.784602 -136.087473 
L 403.179391 -134.376506 
L 401.875827 -132.665539 
L 400.852757 -130.954571 
L 400.077891 -129.243604 
L 399.514248 -127.532637 
L 399.125058 -125.82167 
L 398.875743 -124.110702 
L 398.733634 -122.399735 
L 398.667532 -120.688768 
L 398.648738 -118.9778 
L 398.653241 -117.266833 
L 398.66328 -115.555866 
L 398.666812 -113.844899 
L 398.65528 -112.133931 
L 398.621596 -110.422964 
L 398.560043 -108.711997 
L 398.468123 -107.00103 
L 398.348718 -105.290062 
L 398.210644 -103.579095 
z
" id="m42dfca54de" style="stroke:#353535;stroke-width:1.5;"/>
    </defs>
    <g clip-path="url(#p8b782899e4)">
     <use style="fill:#53b075;stroke:#353535;stroke-width:1.5;" x="0" xlink:href="#m42dfca54de" y="399.6123"/>
    </g>
   </g>
   <g id="PolyCollection_5">
    <defs>
     <path d="M 493.686811 -108.362775 
L 492.721175 -108.362775 
L 492.544307 -110.776579 
L 492.343482 -113.190382 
L 492.131159 -115.604186 
L 491.922364 -118.01799 
L 491.731385 -120.431793 
L 491.569167 -122.845597 
L 491.441289 -125.2594 
L 491.3447 -127.673204 
L 491.26214 -130.087008 
L 491.156273 -132.500811 
L 490.968057 -134.914615 
L 490.622487 -137.328419 
L 490.039999 -139.742222 
L 489.14805 -142.156026 
L 487.88872 -144.56983 
L 486.223999 -146.983633 
L 484.144992 -149.397437 
L 481.689028 -151.81124 
L 478.959749 -154.225044 
L 476.136438 -156.638848 
L 473.458589 -159.052651 
L 471.182515 -161.466455 
L 469.522647 -163.880259 
L 468.600402 -166.294062 
L 468.420719 -168.707866 
L 468.882598 -171.12167 
L 469.814535 -173.535473 
L 471.018379 -175.949277 
L 472.307631 -178.36308 
L 473.533074 -180.776884 
L 474.593141 -183.190688 
L 475.428151 -185.604491 
L 476.000676 -188.018295 
L 476.27147 -190.432099 
L 476.186839 -192.845902 
L 475.691187 -195.259706 
L 474.764761 -197.67351 
L 473.468623 -200.087313 
L 471.969188 -202.501117 
L 470.521641 -204.91492 
L 469.412305 -207.328724 
L 468.882187 -209.742528 
L 469.063984 -212.156331 
L 469.957292 -214.570135 
L 471.447183 -216.983939 
L 473.351948 -219.397742 
L 475.476782 -221.811546 
L 477.653926 -224.22535 
L 479.761003 -226.639153 
L 481.720404 -229.052957 
L 483.488592 -231.46676 
L 485.044374 -233.880564 
L 486.381674 -236.294368 
L 487.507591 -238.708171 
L 488.442709 -241.121975 
L 489.21936 -243.535779 
L 489.87541 -245.949582 
L 490.444869 -248.363386 
L 490.949425 -250.77719 
L 491.394966 -253.190993 
L 491.774526 -255.604797 
L 492.075969 -258.0186 
L 492.290933 -260.432404 
L 492.421522 -262.846208 
L 492.482428 -265.260011 
L 492.497974 -267.673815 
L 492.495482 -270.087619 
L 492.497934 -272.501422 
L 492.519105 -274.915226 
L 492.562825 -277.32903 
L 492.62564 -279.742833 
L 492.700489 -282.156637 
L 492.779338 -284.57044 
L 492.854422 -286.984244 
L 492.919132 -289.398048 
L 492.969345 -291.811851 
L 493.004792 -294.225655 
L 493.029213 -296.639459 
L 493.048648 -299.053262 
L 493.068603 -301.467066 
L 493.091729 -303.88087 
L 493.117296 -306.294673 
L 493.142436 -308.708477 
L 493.164096 -311.12228 
L 493.180476 -313.536084 
L 493.191394 -315.949888 
L 493.197804 -318.363691 
L 493.201018 -320.777495 
L 493.202078 -323.191299 
L 493.201422 -325.605102 
L 493.198775 -328.018906 
L 493.193223 -330.43271 
L 493.183504 -332.846513 
L 493.168611 -335.260317 
L 493.148657 -337.67412 
L 493.125632 -340.087924 
L 493.103527 -342.501728 
L 493.087373 -344.915531 
L 493.08143 -347.329335 
L 493.326555 -347.329335 
L 493.326555 -347.329335 
L 493.320613 -344.915531 
L 493.304459 -342.501728 
L 493.282354 -340.087924 
L 493.259329 -337.67412 
L 493.239374 -335.260317 
L 493.224482 -332.846513 
L 493.214763 -330.43271 
L 493.209211 -328.018906 
L 493.206564 -325.605102 
L 493.205908 -323.191299 
L 493.206968 -320.777495 
L 493.210182 -318.363691 
L 493.216592 -315.949888 
L 493.22751 -313.536084 
L 493.243889 -311.12228 
L 493.26555 -308.708477 
L 493.29069 -306.294673 
L 493.316257 -303.88087 
L 493.339383 -301.467066 
L 493.359338 -299.053262 
L 493.378773 -296.639459 
L 493.403193 -294.225655 
L 493.43864 -291.811851 
L 493.488854 -289.398048 
L 493.553563 -286.984244 
L 493.628648 -284.57044 
L 493.707496 -282.156637 
L 493.782346 -279.742833 
L 493.845161 -277.32903 
L 493.88888 -274.915226 
L 493.910051 -272.501422 
L 493.912504 -270.087619 
L 493.910011 -267.673815 
L 493.925557 -265.260011 
L 493.986464 -262.846208 
L 494.117052 -260.432404 
L 494.332017 -258.0186 
L 494.63346 -255.604797 
L 495.01302 -253.190993 
L 495.45856 -250.77719 
L 495.963117 -248.363386 
L 496.532576 -245.949582 
L 497.188626 -243.535779 
L 497.965277 -241.121975 
L 498.900395 -238.708171 
L 500.026311 -236.294368 
L 501.363611 -233.880564 
L 502.919393 -231.46676 
L 504.687582 -229.052957 
L 506.646983 -226.639153 
L 508.75406 -224.22535 
L 510.931204 -221.811546 
L 513.056038 -219.397742 
L 514.960803 -216.983939 
L 516.450694 -214.570135 
L 517.344001 -212.156331 
L 517.525799 -209.742528 
L 516.995681 -207.328724 
L 515.886345 -204.91492 
L 514.438798 -202.501117 
L 512.939363 -200.087313 
L 511.643225 -197.67351 
L 510.716799 -195.259706 
L 510.221147 -192.845902 
L 510.136516 -190.432099 
L 510.40731 -188.018295 
L 510.979835 -185.604491 
L 511.814844 -183.190688 
L 512.874912 -180.776884 
L 514.100354 -178.36308 
L 515.389607 -175.949277 
L 516.59345 -173.535473 
L 517.525388 -171.12167 
L 517.987267 -168.707866 
L 517.807584 -166.294062 
L 516.885338 -163.880259 
L 515.225471 -161.466455 
L 512.949396 -159.052651 
L 510.271548 -156.638848 
L 507.448237 -154.225044 
L 504.718958 -151.81124 
L 502.262994 -149.397437 
L 500.183986 -146.983633 
L 498.519266 -144.56983 
L 497.259936 -142.156026 
L 496.367986 -139.742222 
L 495.785499 -137.328419 
L 495.439929 -134.914615 
L 495.251713 -132.500811 
L 495.145846 -130.087008 
L 495.063286 -127.673204 
L 494.966697 -125.2594 
L 494.838818 -122.845597 
L 494.676601 -120.431793 
L 494.485621 -118.01799 
L 494.276826 -115.604186 
L 494.064504 -113.190382 
L 493.863679 -110.776579 
L 493.686811 -108.362775 
z
" id="m98b6d20ee5" style="stroke:#353535;stroke-width:1.5;"/>
    </defs>
    <g clip-path="url(#p8b782899e4)">
     <use style="fill:#80c161;stroke:#353535;stroke-width:1.5;" x="0" xlink:href="#m98b6d20ee5" y="399.6123"/>
    </g>
   </g>
   <g id="PolyCollection_6">
    <defs>
     <path d="M 590.489904 -111.298215 
L 587.232368 -111.298215 
L 586.894658 -112.815902 
L 586.54298 -114.33359 
L 586.169744 -115.851277 
L 585.756384 -117.368964 
L 585.275048 -118.886651 
L 584.692653 -120.404339 
L 583.975882 -121.922026 
L 583.095436 -123.439713 
L 582.028325 -124.9574 
L 580.758095 -126.475088 
L 579.274057 -127.992775 
L 577.571241 -129.510462 
L 575.652589 -131.02815 
L 573.533731 -132.545837 
L 571.249117 -134.063524 
L 568.857133 -135.581211 
L 566.441668 -137.098899 
L 564.108582 -138.616586 
L 561.977059 -140.134273 
L 560.167114 -141.65196 
L 558.785216 -143.169648 
L 557.910147 -144.687335 
L 557.581174 -146.205022 
L 557.790644 -147.72271 
L 558.48277 -149.240397 
L 559.55949 -150.758084 
L 560.89278 -152.275771 
L 562.34121 -153.793459 
L 563.767551 -155.311146 
L 565.054189 -156.828833 
L 566.113908 -158.34652 
L 566.894737 -159.864208 
L 567.378851 -161.381895 
L 567.576528 -162.899582 
L 567.517101 -164.41727 
L 567.239312 -165.934957 
L 566.783482 -167.452644 
L 566.18715 -168.970331 
L 565.484644 -170.488019 
L 564.709719 -172.005706 
L 563.899521 -173.523393 
L 563.098002 -175.04108 
L 562.35742 -176.558768 
L 561.737389 -178.076455 
L 561.301654 -179.594142 
L 561.11315 -181.11183 
L 561.227946 -182.629517 
L 561.688681 -184.147204 
L 562.518174 -185.664891 
L 563.714181 -187.182579 
L 565.246454 -188.700266 
L 567.057278 -190.217953 
L 569.066164 -191.73564 
L 571.178517 -193.253328 
L 573.296955 -194.771015 
L 575.333064 -196.288702 
L 577.217076 -197.80639 
L 578.903485 -199.324077 
L 580.371847 -200.841764 
L 581.623418 -202.359451 
L 582.675282 -203.877139 
L 583.553871 -205.394826 
L 584.289313 -206.912513 
L 584.911196 -208.4302 
L 585.445711 -209.947888 
L 585.9138 -211.465575 
L 586.330114 -212.983262 
L 586.702839 -214.50095 
L 587.034575 -216.018637 
L 587.324281 -217.536324 
L 587.56986 -219.054011 
L 587.770646 -220.571699 
L 587.929018 -222.089386 
L 588.050684 -223.607073 
L 588.14371 -225.12476 
L 588.216809 -226.642448 
L 588.277593 -228.160135 
L 588.331349 -229.677822 
L 588.380622 -231.19551 
L 588.425523 -232.713197 
L 588.464501 -234.230884 
L 588.495295 -235.748571 
L 588.515896 -237.266259 
L 588.525436 -238.783946 
L 588.524898 -240.301633 
L 588.517438 -241.81932 
L 588.508061 -243.337008 
L 588.502548 -244.854695 
L 588.505836 -246.372382 
L 588.520431 -247.89007 
L 588.545519 -249.407757 
L 588.577213 -250.925444 
L 588.609921 -252.443131 
L 588.638281 -253.960819 
L 588.658939 -255.478506 
L 588.67147 -256.996193 
L 588.6782 -258.51388 
L 588.683084 -260.031568 
L 588.690161 -261.549255 
L 589.03211 -261.549255 
L 589.03211 -261.549255 
L 589.039187 -260.031568 
L 589.044071 -258.51388 
L 589.050802 -256.996193 
L 589.063332 -255.478506 
L 589.08399 -253.960819 
L 589.112351 -252.443131 
L 589.145058 -250.925444 
L 589.176753 -249.407757 
L 589.20184 -247.89007 
L 589.216435 -246.372382 
L 589.219723 -244.854695 
L 589.21421 -243.337008 
L 589.204834 -241.81932 
L 589.197373 -240.301633 
L 589.196835 -238.783946 
L 589.206376 -237.266259 
L 589.226977 -235.748571 
L 589.25777 -234.230884 
L 589.296748 -232.713197 
L 589.341649 -231.19551 
L 589.390923 -229.677822 
L 589.444679 -228.160135 
L 589.505462 -226.642448 
L 589.578562 -225.12476 
L 589.671587 -223.607073 
L 589.793253 -222.089386 
L 589.951626 -220.571699 
L 590.152412 -219.054011 
L 590.39799 -217.536324 
L 590.687696 -216.018637 
L 591.019432 -214.50095 
L 591.392157 -212.983262 
L 591.808472 -211.465575 
L 592.276561 -209.947888 
L 592.811075 -208.4302 
L 593.432959 -206.912513 
L 594.1684 -205.394826 
L 595.04699 -203.877139 
L 596.098853 -202.359451 
L 597.350424 -200.841764 
L 598.818786 -199.324077 
L 600.505196 -197.80639 
L 602.389208 -196.288702 
L 604.425316 -194.771015 
L 606.543754 -193.253328 
L 608.656107 -191.73564 
L 610.664993 -190.217953 
L 612.475817 -188.700266 
L 614.008091 -187.182579 
L 615.204098 -185.664891 
L 616.033591 -184.147204 
L 616.494325 -182.629517 
L 616.609122 -181.11183 
L 616.420618 -179.594142 
L 615.984883 -178.076455 
L 615.364851 -176.558768 
L 614.624269 -175.04108 
L 613.82275 -173.523393 
L 613.012552 -172.005706 
L 612.237627 -170.488019 
L 611.535122 -168.970331 
L 610.93879 -167.452644 
L 610.48296 -165.934957 
L 610.205171 -164.41727 
L 610.145743 -162.899582 
L 610.34342 -161.381895 
L 610.827534 -159.864208 
L 611.608364 -158.34652 
L 612.668082 -156.828833 
L 613.954721 -155.311146 
L 615.381061 -153.793459 
L 616.829492 -152.275771 
L 618.162782 -150.758084 
L 619.239502 -149.240397 
L 619.931627 -147.72271 
L 620.141098 -146.205022 
L 619.812125 -144.687335 
L 618.937055 -143.169648 
L 617.555158 -141.65196 
L 615.745212 -140.134273 
L 613.61369 -138.616586 
L 611.280604 -137.098899 
L 608.865138 -135.581211 
L 606.473154 -134.063524 
L 604.18854 -132.545837 
L 602.069682 -131.02815 
L 600.151031 -129.510462 
L 598.448215 -127.992775 
L 596.964177 -126.475088 
L 595.693947 -124.9574 
L 594.626835 -123.439713 
L 593.746389 -121.922026 
L 593.029619 -120.404339 
L 592.447224 -118.886651 
L 591.965888 -117.368964 
L 591.552527 -115.851277 
L 591.179291 -114.33359 
L 590.827614 -112.815902 
L 590.489904 -111.298215 
z
" id="m5f9a87cf58" style="stroke:#353535;stroke-width:1.5;"/>
    </defs>
    <g clip-path="url(#p8b782899e4)">
     <use style="fill:#aec83d;stroke:#353535;stroke-width:1.5;" x="0" xlink:href="#m5f9a87cf58" y="399.6123"/>
    </g>
   </g>
   <g id="PolyCollection_7">
    <defs>
     <path d="M 685.785117 -98.904135 
L 683.25144 -98.904135 
L 682.789961 -100.243917 
L 682.241197 -101.583699 
L 681.621921 -102.92348 
L 680.957221 -104.263262 
L 680.270478 -105.603044 
L 679.568907 -106.942826 
L 678.829827 -108.282608 
L 677.99403 -109.62239 
L 676.97083 -110.962171 
L 675.655115 -112.301953 
L 673.952075 -113.641735 
L 671.802359 -114.981517 
L 669.200466 -116.321299 
L 666.201921 -117.66108 
L 662.918833 -119.000862 
L 659.506902 -120.340644 
L 656.148442 -121.680426 
L 653.035004 -123.020208 
L 650.350804 -124.35999 
L 648.256218 -125.699771 
L 646.870576 -127.039553 
L 646.255421 -128.379335 
L 646.401788 -129.719117 
L 647.225942 -131.058899 
L 648.576776 -132.39868 
L 650.255133 -133.738462 
L 652.042185 -135.078244 
L 653.731602 -136.418026 
L 655.158891 -137.757808 
L 656.221321 -139.09759 
L 656.88367 -140.437371 
L 657.168914 -141.777153 
L 657.137765 -143.116935 
L 656.864721 -144.456717 
L 656.418567 -145.796499 
L 655.852042 -147.13628 
L 655.200584 -148.476062 
L 654.487011 -149.815844 
L 653.729194 -151.155626 
L 652.949878 -152.495408 
L 652.188617 -153.83519 
L 651.513476 -155.174971 
L 651.026517 -156.514753 
L 650.856196 -157.854535 
L 651.134387 -159.194317 
L 651.963921 -160.534099 
L 653.38886 -161.87388 
L 655.379374 -163.213662 
L 657.836093 -164.553444 
L 660.610033 -165.893226 
L 663.52925 -167.233008 
L 666.424234 -168.57279 
L 669.148244 -169.912571 
L 671.591981 -171.252353 
L 673.692394 -172.592135 
L 675.434278 -173.931917 
L 676.843419 -175.271699 
L 677.972377 -176.61148 
L 678.88319 -177.951262 
L 679.632715 -179.291044 
L 680.264688 -180.630826 
L 680.808931 -181.970608 
L 681.284824 -183.31039 
L 681.705249 -184.650171 
L 682.078777 -185.989953 
L 682.410266 -187.329735 
L 682.701451 -188.669517 
L 682.952684 -190.009299 
L 683.165504 -191.34908 
L 683.34462 -192.688862 
L 683.498023 -194.028644 
L 683.635061 -195.368426 
L 683.763534 -196.708208 
L 683.887291 -198.04799 
L 684.005358 -199.387771 
L 684.112745 -200.727553 
L 684.202365 -202.067335 
L 684.267297 -203.407117 
L 684.302803 -204.746899 
L 684.307856 -206.08668 
L 684.286033 -207.426462 
L 684.245593 -208.766244 
L 684.198456 -210.106026 
L 684.157955 -211.445808 
L 684.135739 -212.78559 
L 684.138755 -214.125371 
L 684.167471 -215.465153 
L 684.216104 -216.804935 
L 684.274727 -218.144717 
L 684.332317 -219.484499 
L 684.379539 -220.82428 
L 684.410425 -222.164062 
L 684.422828 -223.503844 
L 684.418063 -224.843626 
L 684.400215 -226.183408 
L 684.375346 -227.52319 
L 684.3505 -228.862971 
L 684.332404 -230.202753 
L 684.326013 -231.542535 
L 684.710544 -231.542535 
L 684.710544 -231.542535 
L 684.704153 -230.202753 
L 684.686058 -228.862971 
L 684.661211 -227.52319 
L 684.636342 -226.183408 
L 684.618494 -224.843626 
L 684.613729 -223.503844 
L 684.626132 -222.164062 
L 684.657018 -220.82428 
L 684.70424 -219.484499 
L 684.76183 -218.144717 
L 684.820453 -216.804935 
L 684.869086 -215.465153 
L 684.897802 -214.125371 
L 684.900818 -212.78559 
L 684.878602 -211.445808 
L 684.838101 -210.106026 
L 684.790964 -208.766244 
L 684.750525 -207.426462 
L 684.728702 -206.08668 
L 684.733755 -204.746899 
L 684.769261 -203.407117 
L 684.834192 -202.067335 
L 684.923812 -200.727553 
L 685.031199 -199.387771 
L 685.149266 -198.04799 
L 685.273023 -196.708208 
L 685.401496 -195.368426 
L 685.538534 -194.028644 
L 685.691937 -192.688862 
L 685.871054 -191.34908 
L 686.083873 -190.009299 
L 686.335106 -188.669517 
L 686.626291 -187.329735 
L 686.95778 -185.989953 
L 687.331308 -184.650171 
L 687.751734 -183.31039 
L 688.227626 -181.970608 
L 688.771869 -180.630826 
L 689.403842 -179.291044 
L 690.153367 -177.951262 
L 691.06418 -176.61148 
L 692.193138 -175.271699 
L 693.602279 -173.931917 
L 695.344164 -172.592135 
L 697.444576 -171.252353 
L 699.888313 -169.912571 
L 702.612323 -168.57279 
L 705.507308 -167.233008 
L 708.426524 -165.893226 
L 711.200465 -164.553444 
L 713.657183 -163.213662 
L 715.647697 -161.87388 
L 717.072637 -160.534099 
L 717.90217 -159.194317 
L 718.180361 -157.854535 
L 718.010041 -156.514753 
L 717.523081 -155.174971 
L 716.847941 -153.83519 
L 716.086679 -152.495408 
L 715.307363 -151.155626 
L 714.549546 -149.815844 
L 713.835973 -148.476062 
L 713.184515 -147.13628 
L 712.61799 -145.796499 
L 712.171836 -144.456717 
L 711.898792 -143.116935 
L 711.867643 -141.777153 
L 712.152887 -140.437371 
L 712.815236 -139.09759 
L 713.877666 -137.757808 
L 715.304956 -136.418026 
L 716.994372 -135.078244 
L 718.781424 -133.738462 
L 720.459781 -132.39868 
L 721.810615 -131.058899 
L 722.634769 -129.719117 
L 722.781136 -128.379335 
L 722.165982 -127.039553 
L 720.780339 -125.699771 
L 718.685753 -124.35999 
L 716.001553 -123.020208 
L 712.888115 -121.680426 
L 709.529655 -120.340644 
L 706.117724 -119.000862 
L 702.834636 -117.66108 
L 699.836091 -116.321299 
L 697.234198 -114.981517 
L 695.084482 -113.641735 
L 693.381442 -112.301953 
L 692.065727 -110.962171 
L 691.042527 -109.62239 
L 690.206731 -108.282608 
L 689.46765 -106.942826 
L 688.766079 -105.603044 
L 688.079336 -104.263262 
L 687.414637 -102.92348 
L 686.79536 -101.583699 
L 686.246596 -100.243917 
L 685.785117 -98.904135 
z
" id="m8b8a0d8c3f" style="stroke:#353535;stroke-width:1.5;"/>
    </defs>
    <g clip-path="url(#p8b782899e4)">
     <use style="fill:#e2d240;stroke:#353535;stroke-width:1.5;" x="0" xlink:href="#m8b8a0d8c3f" y="399.6123"/>
    </g>
   </g>
   <g id="line2d_15">
    <path clip-path="url(#p8b782899e4)" d="M 81.783735 251.784165 
L 139.367107 251.784165 
" style="fill:none;stroke:#353535;stroke-dasharray:3.375,3.375;stroke-dashoffset:0;stroke-width:1.5;"/>
   </g>
   <g id="line2d_16">
    <path clip-path="url(#p8b782899e4)" d="M 89.123557 233.954085 
L 132.027285 233.954085 
" style="fill:none;stroke:#353535;stroke-dasharray:6.75,6.75;stroke-dashoffset:0;stroke-width:1.5;"/>
   </g>
   <g id="line2d_17">
    <path clip-path="url(#p8b782899e4)" d="M 85.316091 215.526045 
L 135.834752 215.526045 
" style="fill:none;stroke:#353535;stroke-dasharray:3.375,3.375;stroke-dashoffset:0;stroke-width:1.5;"/>
   </g>
   <g id="line2d_18">
    <path clip-path="url(#p8b782899e4)" d="M 177.480902 246.837405 
L 234.984227 246.837405 
" style="fill:none;stroke:#353535;stroke-dasharray:3.375,3.375;stroke-dashoffset:0;stroke-width:1.5;"/>
   </g>
   <g id="line2d_19">
    <path clip-path="url(#p8b782899e4)" d="M 182.326993 227.430885 
L 230.138136 227.430885 
" style="fill:none;stroke:#353535;stroke-dasharray:6.75,6.75;stroke-dashoffset:0;stroke-width:1.5;"/>
   </g>
   <g id="line2d_20">
    <path clip-path="url(#p8b782899e4)" d="M 180.3093 210.742365 
L 232.155828 210.742365 
" style="fill:none;stroke:#353535;stroke-dasharray:3.375,3.375;stroke-dashoffset:0;stroke-width:1.5;"/>
   </g>
   <g id="line2d_21">
    <path clip-path="url(#p8b782899e4)" d="M 270.674393 245.097885 
L 333.105021 245.097885 
" style="fill:none;stroke:#353535;stroke-dasharray:3.375,3.375;stroke-dashoffset:0;stroke-width:1.5;"/>
   </g>
   <g id="line2d_22">
    <path clip-path="url(#p8b782899e4)" d="M 278.72391 227.865765 
L 325.055504 227.865765 
" style="fill:none;stroke:#353535;stroke-dasharray:6.75,6.75;stroke-dashoffset:0;stroke-width:1.5;"/>
   </g>
   <g id="line2d_23">
    <path clip-path="url(#p8b782899e4)" d="M 275.236342 210.579285 
L 328.543072 210.579285 
" style="fill:none;stroke:#353535;stroke-dasharray:3.375,3.375;stroke-dashoffset:0;stroke-width:1.5;"/>
   </g>
   <g id="line2d_24">
    <path clip-path="url(#p8b782899e4)" d="M 368.080674 244.282485 
L 427.013026 244.282485 
" style="fill:none;stroke:#353535;stroke-dasharray:3.375,3.375;stroke-dashoffset:0;stroke-width:1.5;"/>
   </g>
   <g id="line2d_25">
    <path clip-path="url(#p8b782899e4)" d="M 373.763554 227.322165 
L 421.330146 227.322165 
" style="fill:none;stroke:#353535;stroke-dasharray:6.75,6.75;stroke-dashoffset:0;stroke-width:1.5;"/>
   </g>
   <g id="line2d_26">
    <path clip-path="url(#p8b782899e4)" d="M 369.466668 209.981325 
L 425.627032 209.981325 
" style="fill:none;stroke:#353535;stroke-dasharray:3.375,3.375;stroke-dashoffset:0;stroke-width:1.5;"/>
   </g>
   <g id="line2d_27">
    <path clip-path="url(#p8b782899e4)" d="M 468.668552 231.752505 
L 517.739434 231.752505 
" style="fill:none;stroke:#353535;stroke-dasharray:3.375,3.375;stroke-dashoffset:0;stroke-width:1.5;"/>
   </g>
   <g id="line2d_28">
    <path clip-path="url(#p8b782899e4)" d="M 476.440795 209.274645 
L 509.967191 209.274645 
" style="fill:none;stroke:#353535;stroke-dasharray:6.75,6.75;stroke-dashoffset:0;stroke-width:1.5;"/>
   </g>
   <g id="line2d_29">
    <path clip-path="url(#p8b782899e4)" d="M 469.305384 187.449105 
L 517.102601 187.449105 
" style="fill:none;stroke:#353535;stroke-dasharray:3.375,3.375;stroke-dashoffset:0;stroke-width:1.5;"/>
   </g>
   <g id="line2d_30">
    <path clip-path="url(#p8b782899e4)" d="M 557.893973 253.822665 
L 619.828298 253.822665 
" style="fill:none;stroke:#353535;stroke-dasharray:3.375,3.375;stroke-dashoffset:0;stroke-width:1.5;"/>
   </g>
   <g id="line2d_31">
    <path clip-path="url(#p8b782899e4)" d="M 567.789374 236.291565 
L 609.932897 236.291565 
" style="fill:none;stroke:#353535;stroke-dasharray:6.75,6.75;stroke-dashoffset:0;stroke-width:1.5;"/>
   </g>
   <g id="line2d_32">
    <path clip-path="url(#p8b782899e4)" d="M 561.504278 217.673265 
L 616.217993 217.673265 
" style="fill:none;stroke:#353535;stroke-dasharray:3.375,3.375;stroke-dashoffset:0;stroke-width:1.5;"/>
   </g>
   <g id="line2d_33">
    <path clip-path="url(#p8b782899e4)" d="M 646.63805 271.245045 
L 722.398507 271.245045 
" style="fill:none;stroke:#353535;stroke-dasharray:3.375,3.375;stroke-dashoffset:0;stroke-width:1.5;"/>
   </g>
   <g id="line2d_34">
    <path clip-path="url(#p8b782899e4)" d="M 657.41157 256.730925 
L 711.624987 256.730925 
" style="fill:none;stroke:#353535;stroke-dasharray:6.75,6.75;stroke-dashoffset:0;stroke-width:1.5;"/>
   </g>
   <g id="line2d_35">
    <path clip-path="url(#p8b782899e4)" d="M 651.192817 241.374225 
L 717.84374 241.374225 
" style="fill:none;stroke:#353535;stroke-dasharray:3.375,3.375;stroke-dashoffset:0;stroke-width:1.5;"/>
   </g>
   <g id="patch_3">
    <path d="M 52.74685 369.527925 
L 52.74685 43.367925 
" style="fill:none;stroke:#262626;stroke-linecap:square;stroke-linejoin:miter;stroke-width:1.25;"/>
   </g>
   <g id="patch_4">
    <path d="M 110.575421 379.527925 
L 684.518279 379.527925 
" style="fill:none;stroke:#262626;stroke-linecap:square;stroke-linejoin:miter;stroke-width:1.25;"/>
   </g>
   <g id="text_16">
    <!-- Violin Plot: Accidents by Day of the Week 20012015 -->
    <defs>
     <path d="M 28.171875 0 
L 0.4375 71.578125 
L 10.6875 71.578125 
L 29.296875 19.578125 
Q 31.546875 13.328125 33.0625 7.859375 
Q 34.71875 13.71875 36.921875 19.578125 
L 56.25 71.578125 
L 65.921875 71.578125 
L 37.890625 0 
z
" id="ArialMT-56"/>
     <path d="M 6.390625 0 
L 6.390625 71.578125 
L 15.1875 71.578125 
L 15.1875 0 
z
" id="ArialMT-6c"/>
     <path id="ArialMT-20"/>
     <path d="M 7.71875 0 
L 7.71875 71.578125 
L 34.71875 71.578125 
Q 41.84375 71.578125 45.609375 70.90625 
Q 50.875 70.015625 54.4375 67.546875 
Q 58.015625 65.09375 60.1875 60.640625 
Q 62.359375 56.203125 62.359375 50.875 
Q 62.359375 41.75 56.546875 35.421875 
Q 50.734375 29.109375 35.546875 29.109375 
L 17.1875 29.109375 
L 17.1875 0 
z
M 17.1875 37.546875 
L 35.6875 37.546875 
Q 44.875 37.546875 48.734375 40.96875 
Q 52.59375 44.390625 52.59375 50.59375 
Q 52.59375 55.078125 50.3125 58.265625 
Q 48.046875 61.46875 44.34375 62.5 
Q 41.9375 63.140625 35.5 63.140625 
L 17.1875 63.140625 
z
" id="ArialMT-50"/>
     <path d="M 9.03125 41.84375 
L 9.03125 51.859375 
L 19.046875 51.859375 
L 19.046875 41.84375 
z
M 9.03125 0 
L 9.03125 10.015625 
L 19.046875 10.015625 
L 19.046875 0 
z
" id="ArialMT-3a"/>
     <path d="M 14.703125 0 
L 6.546875 0 
L 6.546875 71.578125 
L 15.328125 71.578125 
L 15.328125 46.046875 
Q 20.90625 53.03125 29.546875 53.03125 
Q 34.328125 53.03125 38.59375 51.09375 
Q 42.875 49.171875 45.625 45.671875 
Q 48.390625 42.1875 49.953125 37.25 
Q 51.515625 32.328125 51.515625 26.703125 
Q 51.515625 13.375 44.921875 6.09375 
Q 38.328125 -1.171875 29.109375 -1.171875 
Q 19.921875 -1.171875 14.703125 6.5 
z
M 14.59375 26.3125 
Q 14.59375 17 17.140625 12.84375 
Q 21.296875 6.0625 28.375 6.0625 
Q 34.125 6.0625 38.328125 11.0625 
Q 42.53125 16.0625 42.53125 25.984375 
Q 42.53125 36.140625 38.5 40.96875 
Q 34.46875 45.796875 28.765625 45.796875 
Q 23 45.796875 18.796875 40.796875 
Q 14.59375 35.796875 14.59375 26.3125 
z
" id="ArialMT-62"/>
     <path d="M 7.71875 0 
L 7.71875 71.578125 
L 32.375 71.578125 
Q 40.71875 71.578125 45.125 70.5625 
Q 51.265625 69.140625 55.609375 65.4375 
Q 61.28125 60.640625 64.078125 53.1875 
Q 66.890625 45.75 66.890625 36.1875 
Q 66.890625 28.03125 64.984375 21.734375 
Q 63.09375 15.4375 60.109375 11.296875 
Q 57.125 7.171875 53.578125 4.796875 
Q 50.046875 2.4375 45.046875 1.21875 
Q 40.046875 0 33.546875 0 
z
M 17.1875 8.453125 
L 32.46875 8.453125 
Q 39.546875 8.453125 43.578125 9.765625 
Q 47.609375 11.078125 50 13.484375 
Q 53.375 16.84375 55.25 22.53125 
Q 57.125 28.21875 57.125 36.328125 
Q 57.125 47.5625 53.4375 53.59375 
Q 49.75 59.625 44.484375 61.671875 
Q 40.671875 63.140625 32.234375 63.140625 
L 17.1875 63.140625 
z
" id="ArialMT-44"/>
     <path d="M 8.6875 0 
L 8.6875 45.015625 
L 0.921875 45.015625 
L 0.921875 51.859375 
L 8.6875 51.859375 
L 8.6875 57.375 
Q 8.6875 62.59375 9.625 65.140625 
Q 10.890625 68.5625 14.078125 70.671875 
Q 17.28125 72.796875 23.046875 72.796875 
Q 26.765625 72.796875 31.25 71.921875 
L 29.9375 64.265625 
Q 27.203125 64.75 24.75 64.75 
Q 20.75 64.75 19.09375 63.03125 
Q 17.4375 61.328125 17.4375 56.640625 
L 17.4375 51.859375 
L 27.546875 51.859375 
L 27.546875 45.015625 
L 17.4375 45.015625 
L 17.4375 0 
z
" id="ArialMT-66"/>
     <path d="M 6.640625 0 
L 6.640625 71.578125 
L 15.4375 71.578125 
L 15.4375 30.765625 
L 36.234375 51.859375 
L 47.609375 51.859375 
L 27.78125 32.625 
L 49.609375 0 
L 38.765625 0 
L 21.625 26.515625 
L 15.4375 20.5625 
L 15.4375 0 
z
" id="ArialMT-6b"/>
     <path d="M -0.203125 22.359375 
L -0.203125 29.4375 
L 55.421875 29.4375 
L 55.421875 22.359375 
z
" id="ArialMT-2013"/>
    </defs>
    <g style="fill:#262626;" transform="translate(66.829662 27.583125)scale(0.28 -0.28)">
     <use xlink:href="#ArialMT-56"/>
     <use x="66.683594" xlink:href="#ArialMT-69"/>
     <use x="88.900391" xlink:href="#ArialMT-6f"/>
     <use x="144.515625" xlink:href="#ArialMT-6c"/>
     <use x="166.732422" xlink:href="#ArialMT-69"/>
     <use x="188.949219" xlink:href="#ArialMT-6e"/>
     <use x="244.564453" xlink:href="#ArialMT-20"/>
     <use x="272.347656" xlink:href="#ArialMT-50"/>
     <use x="339.046875" xlink:href="#ArialMT-6c"/>
     <use x="361.263672" xlink:href="#ArialMT-6f"/>
     <use x="416.878906" xlink:href="#ArialMT-74"/>
     <use x="444.662109" xlink:href="#ArialMT-3a"/>
     <use x="472.445312" xlink:href="#ArialMT-20"/>
     <use x="500.150391" xlink:href="#ArialMT-41"/>
     <use x="566.849609" xlink:href="#ArialMT-63"/>
     <use x="616.849609" xlink:href="#ArialMT-63"/>
     <use x="666.849609" xlink:href="#ArialMT-69"/>
     <use x="689.066406" xlink:href="#ArialMT-64"/>
     <use x="744.681641" xlink:href="#ArialMT-65"/>
     <use x="800.296875" xlink:href="#ArialMT-6e"/>
     <use x="855.912109" xlink:href="#ArialMT-74"/>
     <use x="883.695312" xlink:href="#ArialMT-73"/>
     <use x="933.695312" xlink:href="#ArialMT-20"/>
     <use x="961.478516" xlink:href="#ArialMT-62"/>
     <use x="1017.09375" xlink:href="#ArialMT-79"/>
     <use x="1067.09375" xlink:href="#ArialMT-20"/>
     <use x="1094.876953" xlink:href="#ArialMT-44"/>
     <use x="1167.09375" xlink:href="#ArialMT-61"/>
     <use x="1222.708984" xlink:href="#ArialMT-79"/>
     <use x="1272.708984" xlink:href="#ArialMT-20"/>
     <use x="1300.492188" xlink:href="#ArialMT-6f"/>
     <use x="1356.107422" xlink:href="#ArialMT-66"/>
     <use x="1383.890625" xlink:href="#ArialMT-20"/>
     <use x="1411.673828" xlink:href="#ArialMT-74"/>
     <use x="1439.457031" xlink:href="#ArialMT-68"/>
     <use x="1495.072266" xlink:href="#ArialMT-65"/>
     <use x="1550.6875" xlink:href="#ArialMT-20"/>
     <use x="1578.470703" xlink:href="#ArialMT-57"/>
     <use x="1672.839844" xlink:href="#ArialMT-65"/>
     <use x="1728.455078" xlink:href="#ArialMT-65"/>
     <use x="1784.070312" xlink:href="#ArialMT-6b"/>
     <use x="1834.070312" xlink:href="#ArialMT-20"/>
     <use x="1861.853516" xlink:href="#ArialMT-32"/>
     <use x="1917.46875" xlink:href="#ArialMT-30"/>
     <use x="1973.083984" xlink:href="#ArialMT-30"/>
     <use x="2028.699219" xlink:href="#ArialMT-31"/>
     <use x="2084.314453" xlink:href="#ArialMT-2013"/>
     <use x="2139.929688" xlink:href="#ArialMT-32"/>
     <use x="2195.544922" xlink:href="#ArialMT-30"/>
     <use x="2251.160156" xlink:href="#ArialMT-31"/>
     <use x="2306.775391" xlink:href="#ArialMT-35"/>
    </g>
   </g>
  </g>
 </g>
 <defs>
  <clipPath id="p8b782899e4">
   <rect height="326.16" width="669.6" x="62.74685" y="43.367925"/>
  </clipPath>
 </defs>
</svg>
