<?xml version="1.0" encoding="UTF-8" standalone="no"?>
<!-- Created with Inkscape (http://www.inkscape.org/) -->

<svg
   xmlns:dc="http://purl.org/dc/elements/1.1/"
   xmlns:cc="http://creativecommons.org/ns#"
   xmlns:rdf="http://www.w3.org/1999/02/22-rdf-syntax-ns#"
   xmlns:svg="http://www.w3.org/2000/svg"
   xmlns="http://www.w3.org/2000/svg"
   xmlns:sodipodi="http://sodipodi.sourceforge.net/DTD/sodipodi-0.dtd"
   xmlns:inkscape="http://www.inkscape.org/namespaces/inkscape"
   width="115.87656mm"
   height="20.720491mm"
   viewBox="0 0 115.87656 20.720491"
   version="1.1"
   id="svg8"
   inkscape:version="0.92.3 (2405546, 2018-03-11)"
   sodipodi:docname="tracks.svg">
  <defs
     id="defs2">
    <marker
       inkscape:stockid="Arrow2Mend"
       orient="auto"
       refY="0"
       refX="0"
       id="Arrow2Mend"
       style="overflow:visible"
       inkscape:isstock="true">
      <path
         id="path858"
         style="fill:#000000;fill-opacity:1;fill-rule:evenodd;stroke:#000000;stroke-width:0.625;stroke-linejoin:round;stroke-opacity:1"
         d="M 8.7185878,4.0337352 -2.2072895,0.01601326 8.7185884,-4.0017078 c -1.7454984,2.3720609 -1.7354408,5.6174519 -6e-7,8.035443 z"
         transform="scale(-0.6)"
         inkscape:connector-curvature="0" />
    </marker>
    <marker
       inkscape:stockid="Arrow2Lend"
       orient="auto"
       refY="0"
       refX="0"
       id="Arrow2Lend"
       style="overflow:visible"
       inkscape:isstock="true">
      <path
         id="path852"
         style="fill:#000000;fill-opacity:1;fill-rule:evenodd;stroke:#000000;stroke-width:0.625;stroke-linejoin:round;stroke-opacity:1"
         d="M 8.7185878,4.0337352 -2.2072895,0.01601326 8.7185884,-4.0017078 c -1.7454984,2.3720609 -1.7354408,5.6174519 -6e-7,8.035443 z"
         transform="matrix(-1.1,0,0,-1.1,-1.1,0)"
         inkscape:connector-curvature="0" />
    </marker>
    <marker
       inkscape:stockid="Arrow1Sstart"
       orient="auto"
       refY="0"
       refX="0"
       id="Arrow1Sstart"
       style="overflow:visible"
       inkscape:isstock="true">
      <path
         id="path843"
         d="M 0,0 5,-5 -12.5,0 5,5 Z"
         style="fill:#000000;fill-opacity:1;fill-rule:evenodd;stroke:#000000;stroke-width:1.00000003pt;stroke-opacity:1"
         transform="matrix(0.2,0,0,0.2,1.2,0)"
         inkscape:connector-curvature="0" />
    </marker>
    <marker
       inkscape:stockid="Arrow1Lend"
       orient="auto"
       refY="0"
       refX="0"
       id="Arrow1Lend"
       style="overflow:visible"
       inkscape:isstock="true">
      <path
         id="path834"
         d="M 0,0 5,-5 -12.5,0 5,5 Z"
         style="fill:#000000;fill-opacity:1;fill-rule:evenodd;stroke:#000000;stroke-width:1.00000003pt;stroke-opacity:1"
         transform="matrix(-0.8,0,0,-0.8,-10,0)"
         inkscape:connector-curvature="0" />
    </marker>
    <marker
       inkscape:stockid="Arrow2Mend"
       orient="auto"
       refY="0"
       refX="0"
       id="Arrow2Mend-3"
       style="overflow:visible"
       inkscape:isstock="true">
      <path
         inkscape:connector-curvature="0"
         id="path858-5"
         style="fill:#000000;fill-opacity:1;fill-rule:evenodd;stroke:#000000;stroke-width:0.625;stroke-linejoin:round;stroke-opacity:1"
         d="M 8.7185878,4.0337352 -2.2072895,0.01601326 8.7185884,-4.0017078 c -1.7454984,2.3720609 -1.7354408,5.6174519 -6e-7,8.035443 z"
         transform="scale(-0.6)" />
    </marker>
    <marker
       inkscape:stockid="Arrow2Mend"
       orient="auto"
       refY="0"
       refX="0"
       id="Arrow2Mend-3-2"
       style="overflow:visible"
       inkscape:isstock="true">
      <path
         inkscape:connector-curvature="0"
         id="path858-5-9"
         style="fill:#000000;fill-opacity:1;fill-rule:evenodd;stroke:#000000;stroke-width:0.625;stroke-linejoin:round;stroke-opacity:1"
         d="M 8.7185878,4.0337352 -2.2072895,0.01601326 8.7185884,-4.0017078 c -1.7454984,2.3720609 -1.7354408,5.6174519 -6e-7,8.035443 z"
         transform="scale(-0.6)" />
    </marker>
    <marker
       inkscape:stockid="Arrow2Mend"
       orient="auto"
       refY="0"
       refX="0"
       id="Arrow2Mend-3-2-2"
       style="overflow:visible"
       inkscape:isstock="true">
      <path
         inkscape:connector-curvature="0"
         id="path858-5-9-7"
         style="fill:#000000;fill-opacity:1;fill-rule:evenodd;stroke:#000000;stroke-width:0.625;stroke-linejoin:round;stroke-opacity:1"
         d="M 8.7185878,4.0337352 -2.2072895,0.01601326 8.7185884,-4.0017078 c -1.7454984,2.3720609 -1.7354408,5.6174519 -6e-7,8.035443 z"
         transform="scale(-0.6)" />
    </marker>
    <marker
       inkscape:stockid="Arrow2Mend"
       orient="auto"
       refY="0"
       refX="0"
       id="Arrow2Mend-3-4"
       style="overflow:visible"
       inkscape:isstock="true">
      <path
         inkscape:connector-curvature="0"
         id="path858-5-6"
         style="fill:#000000;fill-opacity:1;fill-rule:evenodd;stroke:#000000;stroke-width:0.625;stroke-linejoin:round;stroke-opacity:1"
         d="M 8.7185878,4.0337352 -2.2072895,0.01601326 8.7185884,-4.0017078 c -1.7454984,2.3720609 -1.7354408,5.6174519 -6e-7,8.035443 z"
         transform="scale(-0.6)" />
    </marker>
    <marker
       inkscape:stockid="Arrow2Mend"
       orient="auto"
       refY="0"
       refX="0"
       id="Arrow2Mend-3-6"
       style="overflow:visible"
       inkscape:isstock="true">
      <path
         inkscape:connector-curvature="0"
         id="path858-5-0"
         style="fill:#000000;fill-opacity:1;fill-rule:evenodd;stroke:#000000;stroke-width:0.625;stroke-linejoin:round;stroke-opacity:1"
         d="M 8.7185878,4.0337352 -2.2072895,0.01601326 8.7185884,-4.0017078 c -1.7454984,2.3720609 -1.7354408,5.6174519 -6e-7,8.035443 z"
         transform="scale(-0.6)" />
    </marker>
  </defs>
  <sodipodi:namedview
     id="base"
     pagecolor="#ffffff"
     bordercolor="#666666"
     borderopacity="1.0"
     inkscape:pageopacity="0.0"
     inkscape:pageshadow="2"
     inkscape:zoom="3.6755742"
     inkscape:cx="163.62665"
     inkscape:cy="80.962769"
     inkscape:document-units="mm"
     inkscape:current-layer="layer1"
     showgrid="false"
     fit-margin-top="0"
     fit-margin-left="0"
     fit-margin-right="0"
     fit-margin-bottom="0"
     inkscape:window-width="3738"
     inkscape:window-height="2063"
     inkscape:window-x="3942"
     inkscape:window-y="41"
     inkscape:window-maximized="1" />
  <metadata
     id="metadata5">
    <rdf:RDF>
      <cc:Work
         rdf:about="">
        <dc:format>image/svg+xml</dc:format>
        <dc:type
           rdf:resource="http://purl.org/dc/dcmitype/StillImage" />
        <dc:title></dc:title>
      </cc:Work>
    </rdf:RDF>
  </metadata>
  <g
     inkscape:label="Layer 1"
     inkscape:groupmode="layer"
     id="layer1"
     transform="translate(-11.659076,-91.816761)">
    <g
       aria-label="L1"
       style="font-style:normal;font-variant:normal;font-weight:normal;font-stretch:normal;font-size:10.58333302px;line-height:125%;font-family:'Liberation Serif';-inkscape-font-specification:'Liberation Serif';letter-spacing:0px;word-spacing:0px;writing-mode:tb-rl;fill:#000000;fill-opacity:1;stroke:none;stroke-width:0.26458332px;stroke-linecap:butt;stroke-linejoin:miter;stroke-opacity:1"
       id="text817">
      <path
         d="m 11.659076,105.81761 v -7.281207 h 0.98702 v 6.475057 h 3.679361 v 0.80615 z"
         style="font-style:normal;font-variant:normal;font-weight:normal;font-stretch:normal;font-family:'Liberation Sans';-inkscape-font-specification:'Liberation Sans';writing-mode:lr-tb;stroke-width:0.26458332px"
         id="path3079" />
      <path
         d="m 17.488177,105.81761 v -0.79065 h 1.855184 v -5.601723 l -1.64331,1.173053 v -0.878497 l 1.720825,-1.18339 h 0.857829 v 6.490557 h 1.772501 v 0.79065 z"
         style="font-style:normal;font-variant:normal;font-weight:normal;font-stretch:normal;font-family:'Liberation Sans';-inkscape-font-specification:'Liberation Sans';writing-mode:lr-tb;stroke-width:0.26458332px"
         id="path3081" />
    </g>
    <g
       id="g3039">
      <path
         style="color:#000000;font-style:normal;font-variant:normal;font-weight:normal;font-stretch:normal;font-size:medium;line-height:normal;font-family:sans-serif;font-variant-ligatures:normal;font-variant-position:normal;font-variant-caps:normal;font-variant-numeric:normal;font-variant-alternates:normal;font-feature-settings:normal;text-indent:0;text-align:start;text-decoration:none;text-decoration-line:none;text-decoration-style:solid;text-decoration-color:#000000;letter-spacing:normal;word-spacing:normal;text-transform:none;writing-mode:lr-tb;direction:ltr;text-orientation:mixed;dominant-baseline:auto;baseline-shift:baseline;text-anchor:start;white-space:normal;shape-padding:0;clip-rule:nonzero;display:inline;overflow:visible;visibility:visible;opacity:1;isolation:auto;mix-blend-mode:normal;color-interpolation:sRGB;color-interpolation-filters:linearRGB;solid-color:#000000;solid-opacity:1;vector-effect:none;fill:#000000;fill-opacity:1;fill-rule:evenodd;stroke:none;stroke-width:0.80000001;stroke-linecap:butt;stroke-linejoin:miter;stroke-miterlimit:4;stroke-dasharray:none;stroke-dashoffset:0;stroke-opacity:1;color-rendering:auto;image-rendering:auto;shape-rendering:auto;text-rendering:auto;enable-background:accumulate"
         d="m 24.966797,101.78516 v 0.79882 H 32.8125 v -0.79882 z"
         id="path829"
         inkscape:connector-curvature="0" />
      <path
         inkscape:connector-curvature="0"
         d="m 28.62736,100.2485 5.244421,1.9285 -5.244421,1.92851 c 0.837839,-1.13859 0.833011,-2.69638 0,-3.85701 z"
         style="fill:#000000;fill-opacity:1;fill-rule:evenodd;stroke:#000000;stroke-width:0.30000001;stroke-linejoin:round;stroke-opacity:1"
         id="path3045" />
    </g>
    <g
       aria-label="L2"
       style="font-style:normal;font-variant:normal;font-weight:normal;font-stretch:normal;font-size:10.58333302px;line-height:125%;font-family:'Liberation Serif';-inkscape-font-specification:'Liberation Serif';letter-spacing:0px;word-spacing:0px;writing-mode:tb-rl;fill:#000000;fill-opacity:1;stroke:none;stroke-width:0.26458332px;stroke-linecap:butt;stroke-linejoin:miter;stroke-opacity:1"
       id="text817-3">
      <path
         d="m 36.93655,105.87187 v -7.281207 h 0.98702 v 6.475057 h 3.679362 v 0.80615 z"
         style="font-style:normal;font-variant:normal;font-weight:normal;font-stretch:normal;font-family:'Liberation Sans';-inkscape-font-specification:'Liberation Sans';writing-mode:lr-tb;stroke-width:0.26458332px"
         id="path3084" />
      <path
         d="m 42.491767,105.87187 v -0.65629 q 0.263549,-0.60461 0.640787,-1.06453 0.382406,-0.46509 0.800985,-0.83716 0.418579,-0.37724 0.826823,-0.69763 0.413411,-0.3204 0.744141,-0.64079 0.330729,-0.32039 0.532267,-0.67179 0.206705,-0.3514 0.206705,-0.79582 0,-0.31006 -0.09302,-0.542604 -0.09302,-0.237712 -0.268718,-0.397909 -0.175699,-0.160197 -0.423746,-0.237711 -0.24288,-0.08268 -0.542603,-0.08268 -0.279053,0 -0.527099,0.07751 -0.24288,0.07752 -0.434082,0.232544 -0.191203,0.155029 -0.315227,0.387573 -0.118855,0.227375 -0.155029,0.532265 l -0.950846,-0.0879 q 0.04651,-0.392738 0.217041,-0.73897 0.170532,-0.346232 0.470255,-0.604615 0.299724,-0.263549 0.718303,-0.413411 0.423746,-0.149862 0.976684,-0.149862 0.542603,0 0.966349,0.129191 0.423747,0.129192 0.713135,0.382406 0.294556,0.253215 0.449585,0.625285 0.155029,0.37207 0.155029,0.857826 0,0.36691 -0.134358,0.69763 -0.129191,0.33073 -0.3514,0.63046 -0.217041,0.29972 -0.506429,0.57877 -0.289388,0.27906 -0.604614,0.54777 -0.315227,0.26355 -0.63562,0.5271 -0.320394,0.25838 -0.604615,0.52193 -0.279052,0.26355 -0.501261,0.53744 -0.222209,0.26872 -0.346232,0.56327 h 3.798218 v 0.79065 z"
         style="font-style:normal;font-variant:normal;font-weight:normal;font-stretch:normal;font-family:'Liberation Sans';-inkscape-font-specification:'Liberation Sans';writing-mode:lr-tb;stroke-width:0.26458332px"
         id="path3086" />
    </g>
    <g
       aria-label="L3"
       style="font-style:normal;font-variant:normal;font-weight:normal;font-stretch:normal;font-size:10.58333302px;line-height:125%;font-family:'Liberation Serif';-inkscape-font-specification:'Liberation Serif';letter-spacing:0px;word-spacing:0px;writing-mode:tb-rl;fill:#000000;fill-opacity:1;stroke:none;stroke-width:0.26458332px;stroke-linecap:butt;stroke-linejoin:miter;stroke-opacity:1"
       id="text817-3-7">
      <path
         d="m 62.198521,105.8202 v -7.281211 h 0.987019 v 6.475061 h 3.679362 v 0.80615 z"
         style="font-style:normal;font-variant:normal;font-weight:normal;font-stretch:normal;font-family:'Liberation Sans';-inkscape-font-specification:'Liberation Sans';writing-mode:lr-tb;stroke-width:0.26458332px"
         id="path3089" />
      <path
         d="m 72.642327,103.80998 q 0,0.50127 -0.165364,0.89401 -0.160197,0.39274 -0.475423,0.66662 -0.310059,0.26872 -0.775147,0.41341 -0.45992,0.13953 -1.054199,0.13953 -0.676961,0 -1.142049,-0.16536 -0.45992,-0.17054 -0.759644,-0.44442 -0.299723,-0.27905 -0.449585,-0.63045 -0.149861,-0.35657 -0.19637,-0.73381 l 0.961182,-0.0879 q 0.04134,0.28939 0.149861,0.5271 0.113688,0.23771 0.304891,0.40824 0.191203,0.17054 0.470256,0.26355 0.279052,0.093 0.661458,0.093 0.7028,0 1.100708,-0.34623 0.403076,-0.34623 0.403076,-1.02836 0,-0.40308 -0.180867,-0.64596 -0.1757,-0.24804 -0.444418,-0.3824 -0.263549,-0.13953 -0.578776,-0.18604 -0.310058,-0.0465 -0.573608,-0.0465 h -0.5271 v -0.80615 h 0.506429 q 0.26355,0 0.547771,-0.0517 0.28422,-0.0569 0.516764,-0.19638 0.237711,-0.14469 0.387573,-0.38757 0.155029,-0.24288 0.155029,-0.62012 0,-0.583939 -0.346232,-0.919836 -0.341064,-0.341064 -1.018025,-0.341064 -0.61495,0 -0.997355,0.315226 -0.377238,0.315226 -0.43925,0.888834 l -0.935344,-0.0724 q 0.05684,-0.480587 0.26355,-0.837155 0.206706,-0.356567 0.521932,-0.589111 0.320394,-0.237712 0.728638,-0.3514 0.408244,-0.118856 0.868164,-0.118856 0.609782,0 1.049031,0.15503 0.43925,0.149861 0.718303,0.413411 0.279053,0.258382 0.408244,0.609782 0.134358,0.3514 0.134358,0.749309 0,0.32039 -0.08785,0.59945 -0.08785,0.27905 -0.273885,0.50126 -0.186035,0.22221 -0.475423,0.3824 -0.28422,0.1602 -0.687296,0.24288 v 0.0207 q 0.439249,0.0465 0.764811,0.20154 0.325561,0.14986 0.537435,0.37724 0.211873,0.22738 0.315226,0.51676 0.10852,0.28939 0.10852,0.60978 z"
         style="font-style:normal;font-variant:normal;font-weight:normal;font-stretch:normal;font-family:'Liberation Sans';-inkscape-font-specification:'Liberation Sans';writing-mode:lr-tb;stroke-width:0.26458332px"
         id="path3091" />
    </g>
    <g
       id="g3047">
      <path
         style="color:#000000;font-style:normal;font-variant:normal;font-weight:normal;font-stretch:normal;font-size:medium;line-height:normal;font-family:sans-serif;font-variant-ligatures:normal;font-variant-position:normal;font-variant-caps:normal;font-variant-numeric:normal;font-variant-alternates:normal;font-feature-settings:normal;text-indent:0;text-align:start;text-decoration:none;text-decoration-line:none;text-decoration-style:solid;text-decoration-color:#000000;letter-spacing:normal;word-spacing:normal;text-transform:none;writing-mode:lr-tb;direction:ltr;text-orientation:mixed;dominant-baseline:auto;baseline-shift:baseline;text-anchor:start;white-space:normal;shape-padding:0;clip-rule:nonzero;display:inline;overflow:visible;visibility:visible;opacity:1;isolation:auto;mix-blend-mode:normal;color-interpolation:sRGB;color-interpolation-filters:linearRGB;solid-color:#000000;solid-opacity:1;vector-effect:none;fill:#000000;fill-opacity:1;fill-rule:evenodd;stroke:none;stroke-width:0.80000001;stroke-linecap:butt;stroke-linejoin:miter;stroke-miterlimit:4;stroke-dasharray:none;stroke-dashoffset:0;stroke-opacity:1;color-rendering:auto;image-rendering:auto;shape-rendering:auto;text-rendering:auto;enable-background:accumulate"
         d="m 50.228516,101.78516 v 0.79882 h 7.845703 v -0.79882 z"
         id="path829-6"
         inkscape:connector-curvature="0" />
      <path
         d="m 53.889331,100.2485 5.244421,1.9285 -5.244421,1.92851 c 0.837839,-1.13859 0.833011,-2.69638 0,-3.85701 z"
         style="fill:#000000;fill-opacity:1;fill-rule:evenodd;stroke:#000000;stroke-width:0.30000001;stroke-linejoin:round;stroke-opacity:1"
         id="path3053"
         inkscape:connector-curvature="0" />
    </g>
    <g
       id="g2738"
       transform="translate(2.1764288,0.13107233)">
      <path
         inkscape:connector-curvature="0"
         id="path829-6-1"
         d="M 73.663543,102.05137 79.2117,96.50321"
         style="fill:none;fill-rule:evenodd;stroke:#000000;stroke-width:0.80000001;stroke-linecap:butt;stroke-linejoin:miter;stroke-miterlimit:4;stroke-dasharray:none;stroke-opacity:1;marker-end:url(#Arrow2Mend-3-2)" />
      <path
         inkscape:connector-curvature="0"
         id="path829-6-1-0"
         d="m 73.663543,102.05137 5.54816,5.54816"
         style="fill:none;fill-rule:evenodd;stroke:#000000;stroke-width:0.80000001;stroke-linecap:butt;stroke-linejoin:miter;stroke-miterlimit:4;stroke-dasharray:none;stroke-opacity:1;marker-end:url(#Arrow2Mend-3-2-2)" />
    </g>
    <g
       aria-label="L4"
       style="font-style:normal;font-variant:normal;font-weight:normal;font-stretch:normal;font-size:10.58333302px;line-height:125%;font-family:'Liberation Serif';-inkscape-font-specification:'Liberation Serif';letter-spacing:0px;word-spacing:0px;writing-mode:tb-rl;fill:#000000;fill-opacity:1;stroke:none;stroke-width:0.26458332px;stroke-linecap:butt;stroke-linejoin:miter;stroke-opacity:1"
       id="text817-3-7-9">
      <path
         d="m 85.207535,99.149651 v -7.28121 h 0.98702 v 6.475057 h 3.679361 v 0.806153 z"
         style="font-style:normal;font-variant:normal;font-weight:normal;font-stretch:normal;font-family:'Liberation Sans';-inkscape-font-specification:'Liberation Sans';writing-mode:lr-tb;stroke-width:0.26458332px"
         id="path3094" />
      <path
         d="m 94.783178,97.501172 v 1.648479 h -0.8785 v -1.648479 h -3.431315 v -0.72347 l 3.33313,-4.909261 h 0.976685 v 4.898926 h 1.023193 v 0.733805 z m -0.8785,-4.583699 q -0.01033,0.02584 -0.05168,0.103353 -0.04134,0.07235 -0.09302,0.165364 -0.05168,0.09302 -0.10852,0.191203 -0.05168,0.09302 -0.09302,0.15503 l -1.865519,2.749186 q -0.02584,0.04134 -0.07751,0.10852 -0.04651,0.06718 -0.09819,0.139527 -0.05168,0.06718 -0.103353,0.134358 -0.05168,0.06718 -0.08268,0.103353 h 2.573486 z"
         style="font-style:normal;font-variant:normal;font-weight:normal;font-stretch:normal;font-family:'Liberation Sans';-inkscape-font-specification:'Liberation Sans';writing-mode:lr-tb;stroke-width:0.26458332px"
         id="path3096" />
    </g>
    <g
       aria-label="M4"
       style="font-style:normal;font-variant:normal;font-weight:normal;font-stretch:normal;font-size:10.58333302px;line-height:125%;font-family:'Liberation Serif';-inkscape-font-specification:'Liberation Serif';letter-spacing:0px;word-spacing:0px;writing-mode:tb-rl;fill:#000000;fill-opacity:1;stroke:none;stroke-width:0.26458332px;stroke-linecap:butt;stroke-linejoin:miter;stroke-opacity:1"
       id="text817-3-7-9-6">
      <path
         d="M 91.398371,112.48558 V 107.628 q 0,-0.26355 0.0052,-0.53744 0.0052,-0.27388 0.0155,-0.50126 0.01033,-0.26355 0.02584,-0.5116 -0.07235,0.26355 -0.149862,0.52193 -0.06718,0.22221 -0.149861,0.47543 -0.07751,0.24805 -0.15503,0.44958 l -1.881022,4.96094 h -0.692464 l -1.90686,-4.96094 q -0.03101,-0.0775 -0.06718,-0.18086 -0.031,-0.10336 -0.07235,-0.21705 -0.03617,-0.11885 -0.07751,-0.23771 -0.03617,-0.12402 -0.07235,-0.24288 -0.08785,-0.27388 -0.170532,-0.56844 0.0052,0.28939 0.0155,0.57361 0.01033,0.24288 0.0155,0.5116 0.0052,0.26355 0.0052,0.46509 v 4.85758 h -0.878499 v -7.28121 h 1.297078 l 1.937866,5.04879 q 0.03617,0.10335 0.08785,0.26872 0.05168,0.16019 0.09819,0.33073 0.04651,0.17053 0.08268,0.32556 0.04134,0.14986 0.05684,0.23254 0.0155,-0.0827 0.05684,-0.23771 0.04134,-0.15503 0.09302,-0.32556 0.05684,-0.17053 0.108521,-0.33073 0.05168,-0.1602 0.09302,-0.26355 l 1.901692,-5.04879 h 1.266073 v 7.28121 z"
         style="font-style:normal;font-variant:normal;font-weight:normal;font-stretch:normal;font-family:'Liberation Sans';-inkscape-font-specification:'Liberation Sans';writing-mode:lr-tb;stroke-width:0.26458332px"
         id="path3099" />
      <path
         d="m 97.718398,110.8371 v 1.64848 h -0.878499 v -1.64848 h -3.431315 v -0.72347 l 3.33313,-4.90926 h 0.976684 v 4.89893 h 1.023194 v 0.7338 z m -0.878499,-4.5837 q -0.01033,0.0258 -0.05168,0.10336 -0.04134,0.0723 -0.09302,0.16536 -0.05168,0.093 -0.108521,0.1912 -0.05168,0.093 -0.09302,0.15503 l -1.865519,2.74919 q -0.02584,0.0413 -0.07751,0.10852 -0.04651,0.0672 -0.09819,0.13953 -0.05168,0.0672 -0.103353,0.13435 -0.05168,0.0672 -0.08268,0.10336 h 2.573486 z"
         style="font-style:normal;font-variant:normal;font-weight:normal;font-stretch:normal;font-family:'Liberation Sans';-inkscape-font-specification:'Liberation Sans';writing-mode:lr-tb;stroke-width:0.26458332px"
         id="path3101" />
    </g>
    <g
       id="g2998"
       transform="translate(4.4884829,0.15148741)">
      <path
         inkscape:connector-curvature="0"
         id="path829-6-9"
         d="m 97.167909,94.983483 h 7.846271"
         style="fill:none;fill-rule:evenodd;stroke:#000000;stroke-width:0.80000001;stroke-linecap:butt;stroke-linejoin:miter;stroke-miterlimit:4;stroke-dasharray:none;stroke-opacity:1;marker-end:url(#Arrow2Mend-3-4)" />
      <path
         inkscape:connector-curvature="0"
         id="path829-6-10"
         d="m 97.676914,109.08293 h 7.846276"
         style="fill:none;fill-rule:evenodd;stroke:#000000;stroke-width:0.80000001;stroke-linecap:butt;stroke-linejoin:miter;stroke-miterlimit:4;stroke-dasharray:none;stroke-opacity:1;marker-end:url(#Arrow2Mend-3-6)" />
    </g>
    <flowRoot
       xml:space="preserve"
       id="flowRoot2943"
       style="font-style:normal;font-variant:normal;font-weight:normal;font-stretch:normal;font-size:40px;line-height:125%;font-family:'Liberation Serif';-inkscape-font-specification:'Liberation Serif';letter-spacing:0px;word-spacing:0px;writing-mode:tb-rl;fill:#000000;fill-opacity:1;stroke:none;stroke-width:1px;stroke-linecap:butt;stroke-linejoin:miter;stroke-opacity:1"
       transform="scale(0.26458333)"><flowRegion
         id="flowRegion2945"><rect
           id="rect2947"
           width="65.216805"
           height="79.452919"
           x="408.23026"
           y="347.61325" /></flowRegion><flowPara
         id="flowPara2949"></flowPara></flowRoot>    <g
       aria-label="L5"
       style="font-style:normal;font-variant:normal;font-weight:normal;font-stretch:normal;font-size:10.58333302px;line-height:125%;font-family:'Liberation Serif';-inkscape-font-specification:'Liberation Serif';letter-spacing:0px;word-spacing:0px;writing-mode:tb-rl;fill:#000000;fill-opacity:1;stroke:none;stroke-width:0.26458332px;stroke-linecap:butt;stroke-linejoin:miter;stroke-opacity:1"
       id="text817-3-7-9-3">
      <path
         d="M 114.13594,99.097969 V 91.81676 h 0.98702 v 6.475057 h 3.67936 v 0.806152 z"
         style="font-style:normal;font-variant:normal;font-weight:normal;font-stretch:normal;font-family:'Liberation Sans';-inkscape-font-specification:'Liberation Sans';writing-mode:lr-tb;stroke-width:0.26458332px"
         id="path3059" />
      <path
         d="m 124.60042,96.726021 q 0,0.54777 -0.16537,1.002523 -0.16536,0.454752 -0.49092,0.785481 -0.32556,0.325562 -0.81132,0.506429 -0.48059,0.180868 -1.11621,0.180868 -0.57361,0 -1.00253,-0.134359 -0.42374,-0.134359 -0.7183,-0.366902 -0.29455,-0.237712 -0.47025,-0.552938 -0.17054,-0.315226 -0.24288,-0.676962 l 0.94051,-0.10852 q 0.0568,0.206706 0.16019,0.403076 0.10336,0.191203 0.27906,0.346232 0.18086,0.149862 0.43925,0.242879 0.26355,0.08785 0.63562,0.08785 0.36173,0 0.65629,-0.10852 0.29455,-0.113688 0.50126,-0.330729 0.21187,-0.217041 0.32556,-0.532268 0.11369,-0.315226 0.11369,-0.72347 0,-0.335896 -0.10852,-0.614949 -0.10852,-0.28422 -0.31006,-0.485759 -0.20154,-0.206705 -0.49609,-0.320393 -0.28939,-0.113689 -0.66146,-0.113689 -0.23255,0 -0.42892,0.04134 -0.19637,0.04134 -0.3669,0.113688 -0.16536,0.07235 -0.30489,0.170532 -0.13436,0.09302 -0.25321,0.19637 h -0.90951 l 0.24288,-3.917073 h 4.13928 v 0.790649 h -3.29179 l -0.13952,2.309937 q 0.24804,-0.191203 0.62011,-0.325562 0.37207,-0.139526 0.88367,-0.139526 0.5426,0 0.97668,0.165365 0.43409,0.165364 0.73898,0.470255 0.30489,0.299723 0.47025,0.718302 0.16537,0.41858 0.16537,0.919841 z"
         style="font-style:normal;font-variant:normal;font-weight:normal;font-stretch:normal;font-family:'Liberation Sans';-inkscape-font-specification:'Liberation Sans';writing-mode:lr-tb;stroke-width:0.26458332px"
         id="path3061" />
    </g>
    <g
       aria-label="M5"
       style="font-style:normal;font-variant:normal;font-weight:normal;font-stretch:normal;font-size:10.58333302px;line-height:125%;font-family:'Liberation Serif';-inkscape-font-specification:'Liberation Serif';letter-spacing:0px;word-spacing:0px;writing-mode:tb-rl;fill:#000000;fill-opacity:1;stroke:none;stroke-width:0.26458332px;stroke-linecap:butt;stroke-linejoin:miter;stroke-opacity:1"
       id="text817-3-7-9-6-7">
      <path
         d="m 120.32678,112.4339 v -4.85759 q 0,-0.26355 0.005,-0.53743 0.005,-0.27389 0.0155,-0.50126 0.0103,-0.26355 0.0258,-0.5116 -0.0724,0.26355 -0.14987,0.52193 -0.0672,0.22221 -0.14986,0.47543 -0.0775,0.24804 -0.15503,0.44958 l -1.88102,4.96094 h -0.69246 l -1.90686,-4.96094 q -0.031,-0.0775 -0.0672,-0.18087 -0.031,-0.10335 -0.0724,-0.21704 -0.0362,-0.11885 -0.0775,-0.23771 -0.0362,-0.12402 -0.0724,-0.24288 -0.0878,-0.27388 -0.17053,-0.56844 0.005,0.28939 0.0155,0.57361 0.0103,0.24288 0.0155,0.5116 0.005,0.26355 0.005,0.46508 v 4.85759 h -0.8785 v -7.28121 h 1.29708 l 1.93787,5.04879 q 0.0362,0.10335 0.0879,0.26871 0.0517,0.1602 0.0982,0.33073 0.0465,0.17054 0.0827,0.32557 0.0413,0.14986 0.0568,0.23254 0.0155,-0.0827 0.0568,-0.23771 0.0413,-0.15503 0.093,-0.32556 0.0568,-0.17054 0.10852,-0.33073 0.0517,-0.1602 0.093,-0.26355 l 1.90169,-5.04879 h 1.26607 v 7.28121 z"
         style="font-style:normal;font-variant:normal;font-weight:normal;font-stretch:normal;font-family:'Liberation Sans';-inkscape-font-specification:'Liberation Sans';writing-mode:lr-tb;stroke-width:0.26458332px"
         id="path3070" />
      <path
         d="m 127.53564,110.06195 q 0,0.54777 -0.16537,1.00252 -0.16536,0.45476 -0.49092,0.78549 -0.32556,0.32556 -0.81132,0.50642 -0.48059,0.18087 -1.11621,0.18087 -0.57361,0 -1.00253,-0.13436 -0.42374,-0.13436 -0.7183,-0.3669 -0.29455,-0.23771 -0.47025,-0.55294 -0.17054,-0.31522 -0.24288,-0.67696 l 0.94051,-0.10852 q 0.0568,0.20671 0.1602,0.40308 0.10335,0.1912 0.27905,0.34623 0.18087,0.14986 0.43925,0.24288 0.26355,0.0878 0.63562,0.0878 0.36173,0 0.65629,-0.10852 0.29455,-0.11369 0.50126,-0.33073 0.21187,-0.21704 0.32556,-0.53227 0.11369,-0.31522 0.11369,-0.72347 0,-0.3359 -0.10852,-0.61495 -0.10852,-0.28422 -0.31006,-0.48576 -0.20154,-0.2067 -0.49609,-0.32039 -0.28939,-0.11369 -0.66146,-0.11369 -0.23255,0 -0.42892,0.0413 -0.19637,0.0413 -0.3669,0.11369 -0.16536,0.0724 -0.30489,0.17053 -0.13436,0.093 -0.25321,0.19637 h -0.90951 l 0.24288,-3.91707 h 4.13928 v 0.79065 h -3.29179 l -0.13952,2.30994 q 0.24804,-0.19121 0.62011,-0.32557 0.37207,-0.13952 0.88367,-0.13952 0.5426,0 0.97669,0.16536 0.43408,0.16537 0.73897,0.47026 0.30489,0.29972 0.47025,0.7183 0.16537,0.41858 0.16537,0.91984 z"
         style="font-style:normal;font-variant:normal;font-weight:normal;font-stretch:normal;font-family:'Liberation Sans';-inkscape-font-specification:'Liberation Sans';writing-mode:lr-tb;stroke-width:0.26458332px"
         id="path3072" />
    </g>
    <g
       id="g3068"
       style="font-style:normal;font-variant:normal;font-weight:normal;font-stretch:normal;font-size:10.58333302px;line-height:125%;font-family:'Liberation Serif';-inkscape-font-specification:'Liberation Serif';letter-spacing:0px;word-spacing:0px;writing-mode:tb-rl;fill:#000000;fill-opacity:1;stroke:none;stroke-width:0.26458332px;stroke-linecap:butt;stroke-linejoin:miter;stroke-opacity:1"
       aria-label="L5">
      <path
         id="path3064"
         style="font-style:normal;font-variant:normal;font-weight:normal;font-stretch:normal;font-family:'Liberation Sans';-inkscape-font-specification:'Liberation Sans';writing-mode:lr-tb;stroke-width:0.26458332px"
         d="M 114.13594,99.097969 V 91.81676 h 0.98702 v 6.475057 h 3.67936 v 0.806152 z" />
      <path
         id="path3066"
         style="font-style:normal;font-variant:normal;font-weight:normal;font-stretch:normal;font-family:'Liberation Sans';-inkscape-font-specification:'Liberation Sans';writing-mode:lr-tb;stroke-width:0.26458332px"
         d="m 124.60042,96.726021 q 0,0.54777 -0.16537,1.002523 -0.16536,0.454752 -0.49092,0.785481 -0.32556,0.325562 -0.81132,0.506429 -0.48059,0.180868 -1.11621,0.180868 -0.57361,0 -1.00253,-0.134359 -0.42374,-0.134359 -0.7183,-0.366902 -0.29455,-0.237712 -0.47025,-0.552938 -0.17054,-0.315226 -0.24288,-0.676962 l 0.94051,-0.10852 q 0.0568,0.206706 0.16019,0.403076 0.10336,0.191203 0.27906,0.346232 0.18086,0.149862 0.43925,0.242879 0.26355,0.08785 0.63562,0.08785 0.36173,0 0.65629,-0.10852 0.29455,-0.113688 0.50126,-0.330729 0.21187,-0.217041 0.32556,-0.532268 0.11369,-0.315226 0.11369,-0.72347 0,-0.335896 -0.10852,-0.614949 -0.10852,-0.28422 -0.31006,-0.485759 -0.20154,-0.206705 -0.49609,-0.320393 -0.28939,-0.113689 -0.66146,-0.113689 -0.23255,0 -0.42892,0.04134 -0.19637,0.04134 -0.3669,0.113688 -0.16536,0.07235 -0.30489,0.170532 -0.13436,0.09302 -0.25321,0.19637 h -0.90951 l 0.24288,-3.917073 h 4.13928 v 0.790649 h -3.29179 l -0.13952,2.309937 q 0.24804,-0.191203 0.62011,-0.325562 0.37207,-0.139526 0.88367,-0.139526 0.5426,0 0.97668,0.165365 0.43409,0.165364 0.73898,0.470255 0.30489,0.299723 0.47025,0.718302 0.16537,0.41858 0.16537,0.919841 z" />
    </g>
  </g>
</svg>
