<?xml version="1.0" encoding="utf-8" standalone="no"?>
<!DOCTYPE svg PUBLIC "-//W3C//DTD SVG 1.1//EN"
  "http://www.w3.org/Graphics/SVG/1.1/DTD/svg11.dtd">
<!-- Created with matplotlib (http://matplotlib.org/) -->
<svg height="401pt" version="1.1" viewBox="0 0 736 401" width="736pt" xmlns="http://www.w3.org/2000/svg" xmlns:xlink="http://www.w3.org/1999/xlink">
 <defs>
  <style type="text/css">
*{stroke-linecap:butt;stroke-linejoin:round;stroke-miterlimit:100000;}
  </style>
 </defs>
 <g id="figure_1">
  <g id="patch_1">
   <path d="M 0 401.585875 
L 736.912888 401.585875 
L 736.912888 -0 
L 0 -0 
z
" style="fill:#ffffff;"/>
  </g>
  <g id="axes_1">
   <g id="patch_2">
    <path d="M 60.112888 377.33525 
L 729.712888 377.33525 
L 729.712888 42.53525 
L 60.112888 42.53525 
z
" style="fill:#ffffff;"/>
   </g>
   <g id="matplotlib.axis_1">
    <g id="xtick_1">
     <g id="line2d_1"/>
     <g id="line2d_2"/>
     <g id="text_1">
      <!-- 2001 -->
      <defs>
       <path d="M 5.03125 0 
L 5.03125 6.203125 
Q 7.515625 11.921875 11.109375 16.28125 
Q 14.703125 20.65625 18.65625 24.1875 
Q 22.609375 27.734375 26.484375 30.765625 
Q 30.375 33.796875 33.5 36.8125 
Q 36.625 39.84375 38.546875 43.15625 
Q 40.484375 46.484375 40.484375 50.6875 
Q 40.484375 53.609375 39.59375 55.828125 
Q 38.71875 58.0625 37.0625 59.5625 
Q 35.40625 61.078125 33.078125 61.828125 
Q 30.765625 62.59375 27.9375 62.59375 
Q 25.296875 62.59375 22.96875 61.859375 
Q 20.65625 61.140625 18.84375 59.671875 
Q 17.046875 58.203125 15.890625 56.03125 
Q 14.75 53.859375 14.40625 50.984375 
L 5.421875 51.8125 
Q 5.859375 55.515625 7.46875 58.78125 
Q 9.078125 62.0625 11.90625 64.53125 
Q 14.75 67 18.71875 68.40625 
Q 22.703125 69.828125 27.9375 69.828125 
Q 33.0625 69.828125 37.0625 68.609375 
Q 41.0625 67.390625 43.8125 64.984375 
Q 46.578125 62.59375 48.046875 59.078125 
Q 49.515625 55.5625 49.515625 50.984375 
Q 49.515625 47.515625 48.265625 44.390625 
Q 47.015625 41.265625 44.9375 38.421875 
Q 42.875 35.59375 40.140625 32.953125 
Q 37.40625 30.328125 34.421875 27.8125 
Q 31.453125 25.296875 28.421875 22.828125 
Q 25.390625 20.359375 22.71875 17.859375 
Q 20.0625 15.375 17.96875 12.8125 
Q 15.875 10.25 14.703125 7.46875 
L 50.59375 7.46875 
L 50.59375 0 
z
" id="LiberationSans-32"/>
       <path d="M 7.625 0 
L 7.625 7.46875 
L 25.140625 7.46875 
L 25.140625 60.40625 
L 9.625 49.3125 
L 9.625 57.625 
L 25.875 68.796875 
L 33.984375 68.796875 
L 33.984375 7.46875 
L 50.734375 7.46875 
L 50.734375 0 
z
" id="LiberationSans-31"/>
       <path d="M 51.703125 34.421875 
Q 51.703125 24.515625 49.828125 17.75 
Q 47.953125 10.984375 44.703125 6.8125 
Q 41.453125 2.640625 37.0625 0.828125 
Q 32.671875 -0.984375 27.6875 -0.984375 
Q 22.65625 -0.984375 18.3125 0.828125 
Q 13.96875 2.640625 10.765625 6.78125 
Q 7.5625 10.9375 5.734375 17.703125 
Q 3.90625 24.46875 3.90625 34.421875 
Q 3.90625 44.828125 5.734375 51.640625 
Q 7.5625 58.453125 10.78125 62.5 
Q 14.015625 66.546875 18.40625 68.1875 
Q 22.796875 69.828125 27.984375 69.828125 
Q 32.90625 69.828125 37.21875 68.1875 
Q 41.546875 66.546875 44.765625 62.5 
Q 48 58.453125 49.84375 51.640625 
Q 51.703125 44.828125 51.703125 34.421875 
M 42.78125 34.421875 
Q 42.78125 42.625 41.796875 48.0625 
Q 40.828125 53.515625 38.921875 56.765625 
Q 37.015625 60.015625 34.25 61.359375 
Q 31.5 62.703125 27.984375 62.703125 
Q 24.265625 62.703125 21.4375 61.328125 
Q 18.609375 59.96875 16.671875 56.71875 
Q 14.75 53.46875 13.765625 48.015625 
Q 12.796875 42.578125 12.796875 34.421875 
Q 12.796875 26.515625 13.796875 21.09375 
Q 14.796875 15.671875 16.71875 12.375 
Q 18.65625 9.078125 21.4375 7.640625 
Q 24.21875 6.203125 27.78125 6.203125 
Q 31.25 6.203125 34.03125 7.640625 
Q 36.8125 9.078125 38.734375 12.375 
Q 40.671875 15.671875 41.71875 21.09375 
Q 42.78125 26.515625 42.78125 34.421875 
" id="LiberationSans-30"/>
      </defs>
      <g style="fill:#262626;" transform="translate(67.2043314655 391.480875)scale(0.14 -0.14)">
       <use xlink:href="#LiberationSans-32"/>
       <use x="55.615234375" xlink:href="#LiberationSans-30"/>
       <use x="111.23046875" xlink:href="#LiberationSans-30"/>
       <use x="166.845703125" xlink:href="#LiberationSans-31"/>
      </g>
     </g>
    </g>
    <g id="xtick_2">
     <g id="line2d_3"/>
     <g id="line2d_4"/>
     <g id="text_2">
      <!-- 2003 -->
      <defs>
       <path d="M 51.21875 19 
Q 51.21875 14.265625 49.671875 10.546875 
Q 48.140625 6.84375 45.1875 4.265625 
Q 42.234375 1.703125 37.859375 0.359375 
Q 33.5 -0.984375 27.875 -0.984375 
Q 21.484375 -0.984375 17.109375 0.609375 
Q 12.75 2.203125 9.90625 4.8125 
Q 7.078125 7.421875 5.65625 10.765625 
Q 4.25 14.109375 3.8125 17.671875 
L 12.890625 18.5 
Q 13.28125 15.765625 14.328125 13.515625 
Q 15.375 11.28125 17.1875 9.671875 
Q 19 8.0625 21.625 7.171875 
Q 24.265625 6.296875 27.875 6.296875 
Q 34.515625 6.296875 38.296875 9.5625 
Q 42.09375 12.84375 42.09375 19.28125 
Q 42.09375 23.09375 40.40625 25.40625 
Q 38.71875 27.734375 36.203125 29.03125 
Q 33.6875 30.328125 30.734375 30.765625 
Q 27.78125 31.203125 25.296875 31.203125 
L 20.3125 31.203125 
L 20.3125 38.8125 
L 25.09375 38.8125 
Q 27.59375 38.8125 30.265625 39.328125 
Q 32.953125 39.84375 35.171875 41.1875 
Q 37.40625 42.53125 38.84375 44.828125 
Q 40.28125 47.125 40.28125 50.6875 
Q 40.28125 56.203125 37.03125 59.390625 
Q 33.796875 62.59375 27.390625 62.59375 
Q 21.578125 62.59375 17.984375 59.609375 
Q 14.40625 56.640625 13.8125 51.21875 
L 4.984375 51.90625 
Q 5.515625 56.453125 7.46875 59.8125 
Q 9.421875 63.1875 12.421875 65.40625 
Q 15.4375 67.625 19.28125 68.71875 
Q 23.140625 69.828125 27.484375 69.828125 
Q 33.25 69.828125 37.390625 68.375 
Q 41.546875 66.9375 44.1875 64.46875 
Q 46.828125 62.015625 48.0625 58.6875 
Q 49.3125 55.375 49.3125 51.609375 
Q 49.3125 48.578125 48.484375 45.9375 
Q 47.65625 43.3125 45.890625 41.203125 
Q 44.140625 39.109375 41.421875 37.59375 
Q 38.71875 36.078125 34.90625 35.296875 
L 34.90625 35.109375 
Q 39.0625 34.671875 42.140625 33.21875 
Q 45.21875 31.78125 47.21875 29.625 
Q 49.21875 27.484375 50.21875 24.75 
Q 51.21875 22.015625 51.21875 19 
" id="LiberationSans-33"/>
      </defs>
      <g style="fill:#262626;" transform="translate(156.569848707 391.480875)scale(0.14 -0.14)">
       <use xlink:href="#LiberationSans-32"/>
       <use x="55.615234375" xlink:href="#LiberationSans-30"/>
       <use x="111.23046875" xlink:href="#LiberationSans-30"/>
       <use x="166.845703125" xlink:href="#LiberationSans-33"/>
      </g>
     </g>
    </g>
    <g id="xtick_3">
     <g id="line2d_5"/>
     <g id="line2d_6"/>
     <g id="text_3">
      <!-- 2005 -->
      <defs>
       <path d="M 51.421875 22.40625 
Q 51.421875 17.234375 49.859375 12.9375 
Q 48.296875 8.640625 45.21875 5.53125 
Q 42.140625 2.4375 37.578125 0.71875 
Q 33.015625 -0.984375 27 -0.984375 
Q 21.578125 -0.984375 17.546875 0.28125 
Q 13.53125 1.5625 10.734375 3.78125 
Q 7.953125 6 6.3125 8.984375 
Q 4.6875 11.96875 4 15.375 
L 12.890625 16.40625 
Q 13.421875 14.453125 14.390625 12.625 
Q 15.375 10.796875 17.0625 9.34375 
Q 18.75 7.90625 21.21875 7.046875 
Q 23.6875 6.203125 27.203125 6.203125 
Q 30.609375 6.203125 33.390625 7.25 
Q 36.1875 8.296875 38.15625 10.34375 
Q 40.140625 12.40625 41.203125 15.375 
Q 42.28125 18.359375 42.28125 22.21875 
Q 42.28125 25.390625 41.25 28.046875 
Q 40.234375 30.71875 38.328125 32.640625 
Q 36.421875 34.578125 33.65625 35.640625 
Q 30.90625 36.71875 27.390625 36.71875 
Q 25.203125 36.71875 23.34375 36.328125 
Q 21.484375 35.9375 19.890625 35.25 
Q 18.3125 34.578125 17.015625 33.671875 
Q 15.71875 32.765625 14.59375 31.78125 
L 6 31.78125 
L 8.296875 68.796875 
L 47.40625 68.796875 
L 47.40625 61.328125 
L 16.3125 61.328125 
L 14.984375 39.5 
Q 17.328125 41.3125 20.84375 42.59375 
Q 24.359375 43.890625 29.203125 43.890625 
Q 34.328125 43.890625 38.421875 42.328125 
Q 42.53125 40.765625 45.40625 37.90625 
Q 48.296875 35.0625 49.859375 31.109375 
Q 51.421875 27.15625 51.421875 22.40625 
" id="LiberationSans-35"/>
      </defs>
      <g style="fill:#262626;" transform="translate(245.507779741 391.480875)scale(0.14 -0.14)">
       <use xlink:href="#LiberationSans-32"/>
       <use x="55.615234375" xlink:href="#LiberationSans-30"/>
       <use x="111.23046875" xlink:href="#LiberationSans-30"/>
       <use x="166.845703125" xlink:href="#LiberationSans-35"/>
      </g>
     </g>
    </g>
    <g id="xtick_4">
     <g id="line2d_7"/>
     <g id="line2d_8"/>
     <g id="text_4">
      <!-- 2007 -->
      <defs>
       <path d="M 50.59375 61.671875 
Q 45.40625 53.765625 41.0625 46.453125 
Q 36.71875 39.15625 33.59375 31.75 
Q 30.46875 24.359375 28.734375 16.578125 
Q 27 8.796875 27 0 
L 17.828125 0 
Q 17.828125 8.25 19.78125 16.1875 
Q 21.734375 24.125 25.046875 31.765625 
Q 28.375 39.40625 32.765625 46.78125 
Q 37.15625 54.15625 42.09375 61.328125 
L 5.125 61.328125 
L 5.125 68.796875 
L 50.59375 68.796875 
z
" id="LiberationSans-37"/>
      </defs>
      <g style="fill:#262626;" transform="translate(335.087090086 391.480875)scale(0.14 -0.14)">
       <use xlink:href="#LiberationSans-32"/>
       <use x="55.615234375" xlink:href="#LiberationSans-30"/>
       <use x="111.23046875" xlink:href="#LiberationSans-30"/>
       <use x="166.845703125" xlink:href="#LiberationSans-37"/>
      </g>
     </g>
    </g>
    <g id="xtick_5">
     <g id="line2d_9"/>
     <g id="line2d_10"/>
     <g id="text_5">
      <!-- 2009 -->
      <defs>
       <path d="M 50.875 35.796875 
Q 50.875 26.609375 49.140625 19.703125 
Q 47.40625 12.796875 44.1875 8.203125 
Q 40.96875 3.609375 36.34375 1.3125 
Q 31.734375 -0.984375 25.984375 -0.984375 
Q 22.015625 -0.984375 18.84375 -0.171875 
Q 15.671875 0.640625 13.171875 2.34375 
Q 10.6875 4.046875 8.921875 6.78125 
Q 7.171875 9.515625 6.109375 13.375 
L 14.5 14.703125 
Q 15.875 10.25 18.78125 8.171875 
Q 21.6875 6.109375 26.125 6.109375 
Q 29.6875 6.109375 32.640625 7.78125 
Q 35.59375 9.46875 37.671875 12.84375 
Q 39.75 16.21875 40.921875 21.296875 
Q 42.09375 26.375 42.1875 33.203125 
Q 41.15625 30.90625 39.375 29.09375 
Q 37.59375 27.296875 35.328125 26.046875 
Q 33.0625 24.8125 30.421875 24.140625 
Q 27.78125 23.484375 25.09375 23.484375 
Q 20.40625 23.484375 16.625 25.171875 
Q 12.84375 26.859375 10.203125 29.875 
Q 7.5625 32.90625 6.125 37.171875 
Q 4.6875 41.453125 4.6875 46.6875 
Q 4.6875 52 6.21875 56.296875 
Q 7.765625 60.59375 10.6875 63.59375 
Q 13.625 66.609375 17.890625 68.21875 
Q 22.171875 69.828125 27.59375 69.828125 
Q 39.0625 69.828125 44.96875 61.328125 
Q 50.875 52.828125 50.875 35.796875 
M 41.3125 44.28125 
Q 41.3125 48.09375 40.40625 51.453125 
Q 39.5 54.828125 37.71875 57.3125 
Q 35.9375 59.8125 33.328125 61.25 
Q 30.71875 62.703125 27.296875 62.703125 
Q 24.125 62.703125 21.578125 61.578125 
Q 19.046875 60.453125 17.28125 58.375 
Q 15.53125 56.296875 14.578125 53.3125 
Q 13.625 50.34375 13.625 46.6875 
Q 13.625 43.21875 14.46875 40.234375 
Q 15.328125 37.25 17.03125 35.078125 
Q 18.75 32.90625 21.28125 31.65625 
Q 23.828125 30.421875 27.203125 30.421875 
Q 29.640625 30.421875 32.15625 31.25 
Q 34.671875 32.078125 36.6875 33.78125 
Q 38.71875 35.5 40.015625 38.109375 
Q 41.3125 40.71875 41.3125 44.28125 
" id="LiberationSans-39"/>
      </defs>
      <g style="fill:#262626;" transform="translate(424.238814224 391.480875)scale(0.14 -0.14)">
       <use xlink:href="#LiberationSans-32"/>
       <use x="55.615234375" xlink:href="#LiberationSans-30"/>
       <use x="111.23046875" xlink:href="#LiberationSans-30"/>
       <use x="166.845703125" xlink:href="#LiberationSans-39"/>
      </g>
     </g>
    </g>
    <g id="xtick_6">
     <g id="line2d_11"/>
     <g id="line2d_12"/>
     <g id="text_6">
      <!-- 2011 -->
      <g style="fill:#262626;" transform="translate(513.176745259 391.480875)scale(0.14 -0.14)">
       <use xlink:href="#LiberationSans-32"/>
       <use x="55.615234375" xlink:href="#LiberationSans-30"/>
       <use x="111.23046875" xlink:href="#LiberationSans-31"/>
       <use x="166.845703125" xlink:href="#LiberationSans-31"/>
      </g>
     </g>
    </g>
    <g id="xtick_7">
     <g id="line2d_13"/>
     <g id="line2d_14"/>
     <g id="text_7">
      <!-- 2013 -->
      <g style="fill:#262626;" transform="translate(602.756055603 391.480875)scale(0.14 -0.14)">
       <use xlink:href="#LiberationSans-32"/>
       <use x="55.615234375" xlink:href="#LiberationSans-30"/>
       <use x="111.23046875" xlink:href="#LiberationSans-31"/>
       <use x="166.845703125" xlink:href="#LiberationSans-33"/>
      </g>
     </g>
    </g>
    <g id="xtick_8">
     <g id="line2d_15"/>
     <g id="line2d_16"/>
     <g id="text_8">
      <!-- 2015 -->
      <g style="fill:#262626;" transform="translate(691.907779741 391.480875)scale(0.14 -0.14)">
       <use xlink:href="#LiberationSans-32"/>
       <use x="55.615234375" xlink:href="#LiberationSans-30"/>
       <use x="111.23046875" xlink:href="#LiberationSans-31"/>
       <use x="166.845703125" xlink:href="#LiberationSans-35"/>
      </g>
     </g>
    </g>
   </g>
   <g id="matplotlib.axis_2">
    <g id="ytick_1">
     <g id="line2d_17">
      <path clip-path="url(#p21e109224a)" d="M 60.112888 377.33525 
L 729.712888 377.33525 
" style="fill:none;stroke:#cccccc;stroke-linecap:round;stroke-width:0.5;"/>
     </g>
     <g id="line2d_18"/>
     <g id="line2d_19"/>
     <g id="text_9">
      <!-- 5000 -->
      <g style="fill:#262626;" transform="translate(33.8691375 379.9211875)scale(0.1 -0.1)">
       <use xlink:href="#LiberationSans-35"/>
       <use x="55.615234375" xlink:href="#LiberationSans-30"/>
       <use x="111.23046875" xlink:href="#LiberationSans-30"/>
       <use x="166.845703125" xlink:href="#LiberationSans-30"/>
      </g>
     </g>
    </g>
    <g id="ytick_2">
     <g id="line2d_20">
      <path clip-path="url(#p21e109224a)" d="M 60.112888 335.48525 
L 729.712888 335.48525 
" style="fill:none;stroke:#cccccc;stroke-linecap:round;stroke-width:0.5;"/>
     </g>
     <g id="line2d_21"/>
     <g id="line2d_22"/>
     <g id="text_10">
      <!-- 6000 -->
      <defs>
       <path d="M 51.21875 22.515625 
Q 51.21875 17.328125 49.78125 13 
Q 48.34375 8.6875 45.53125 5.578125 
Q 42.71875 2.484375 38.5625 0.75 
Q 34.421875 -0.984375 29 -0.984375 
Q 23 -0.984375 18.5 1.3125 
Q 14.015625 3.609375 11.03125 7.921875 
Q 8.0625 12.25 6.5625 18.53125 
Q 5.078125 24.8125 5.078125 32.8125 
Q 5.078125 42 6.765625 48.921875 
Q 8.453125 55.859375 11.625 60.5 
Q 14.796875 65.140625 19.359375 67.484375 
Q 23.921875 69.828125 29.6875 69.828125 
Q 33.203125 69.828125 36.28125 69.09375 
Q 39.359375 68.359375 41.875 66.71875 
Q 44.390625 65.09375 46.28125 62.40625 
Q 48.1875 59.71875 49.3125 55.8125 
L 40.921875 54.296875 
Q 39.546875 58.734375 36.546875 60.71875 
Q 33.546875 62.703125 29.59375 62.703125 
Q 25.984375 62.703125 23.046875 60.984375 
Q 20.125 59.28125 18.0625 55.875 
Q 16.015625 52.484375 14.90625 47.359375 
Q 13.8125 42.234375 13.8125 35.40625 
Q 16.21875 39.84375 20.5625 42.15625 
Q 24.90625 44.484375 30.515625 44.484375 
Q 35.203125 44.484375 39.015625 42.96875 
Q 42.828125 41.453125 45.53125 38.59375 
Q 48.25 35.75 49.734375 31.671875 
Q 51.21875 27.59375 51.21875 22.515625 
M 42.28125 22.125 
Q 42.28125 25.6875 41.40625 28.5625 
Q 40.53125 31.453125 38.765625 33.46875 
Q 37.015625 35.5 34.421875 36.59375 
Q 31.84375 37.703125 28.421875 37.703125 
Q 26.03125 37.703125 23.578125 36.984375 
Q 21.140625 36.28125 19.15625 34.6875 
Q 17.1875 33.109375 15.9375 30.515625 
Q 14.703125 27.9375 14.703125 24.21875 
Q 14.703125 20.40625 15.671875 17.109375 
Q 16.65625 13.8125 18.484375 11.375 
Q 20.3125 8.9375 22.890625 7.515625 
Q 25.484375 6.109375 28.71875 6.109375 
Q 31.890625 6.109375 34.40625 7.203125 
Q 36.921875 8.296875 38.671875 10.375 
Q 40.4375 12.453125 41.359375 15.421875 
Q 42.28125 18.40625 42.28125 22.125 
" id="LiberationSans-36"/>
      </defs>
      <g style="fill:#262626;" transform="translate(33.8691375 338.0711875)scale(0.1 -0.1)">
       <use xlink:href="#LiberationSans-36"/>
       <use x="55.615234375" xlink:href="#LiberationSans-30"/>
       <use x="111.23046875" xlink:href="#LiberationSans-30"/>
       <use x="166.845703125" xlink:href="#LiberationSans-30"/>
      </g>
     </g>
    </g>
    <g id="ytick_3">
     <g id="line2d_23">
      <path clip-path="url(#p21e109224a)" d="M 60.112888 293.63525 
L 729.712888 293.63525 
" style="fill:none;stroke:#cccccc;stroke-linecap:round;stroke-width:0.5;"/>
     </g>
     <g id="line2d_24"/>
     <g id="line2d_25"/>
     <g id="text_11">
      <!-- 7000 -->
      <g style="fill:#262626;" transform="translate(33.8691375 296.2211875)scale(0.1 -0.1)">
       <use xlink:href="#LiberationSans-37"/>
       <use x="55.615234375" xlink:href="#LiberationSans-30"/>
       <use x="111.23046875" xlink:href="#LiberationSans-30"/>
       <use x="166.845703125" xlink:href="#LiberationSans-30"/>
      </g>
     </g>
    </g>
    <g id="ytick_4">
     <g id="line2d_26">
      <path clip-path="url(#p21e109224a)" d="M 60.112888 251.78525 
L 729.712888 251.78525 
" style="fill:none;stroke:#cccccc;stroke-linecap:round;stroke-width:0.5;"/>
     </g>
     <g id="line2d_27"/>
     <g id="line2d_28"/>
     <g id="text_12">
      <!-- 8000 -->
      <defs>
       <path d="M 51.265625 19.1875 
Q 51.265625 14.796875 49.875 11.109375 
Q 48.484375 7.421875 45.625 4.734375 
Q 42.78125 2.046875 38.328125 0.53125 
Q 33.890625 -0.984375 27.828125 -0.984375 
Q 21.78125 -0.984375 17.359375 0.53125 
Q 12.9375 2.046875 10.03125 4.703125 
Q 7.125 7.375 5.734375 11.0625 
Q 4.34375 14.75 4.34375 19.09375 
Q 4.34375 22.859375 5.484375 25.78125 
Q 6.640625 28.71875 8.5625 30.828125 
Q 10.5 32.953125 12.96875 34.25 
Q 15.4375 35.546875 18.0625 35.984375 
L 18.0625 36.1875 
Q 15.1875 36.859375 12.90625 38.375 
Q 10.640625 39.890625 9.09375 42.015625 
Q 7.5625 44.140625 6.75 46.71875 
Q 5.953125 49.3125 5.953125 52.203125 
Q 5.953125 55.8125 7.34375 59 
Q 8.734375 62.203125 11.46875 64.625 
Q 14.203125 67.046875 18.25 68.4375 
Q 22.3125 69.828125 27.640625 69.828125 
Q 33.25 69.828125 37.375 68.40625 
Q 41.5 67 44.203125 64.578125 
Q 46.921875 62.15625 48.234375 58.9375 
Q 49.5625 55.71875 49.5625 52.09375 
Q 49.5625 49.265625 48.75 46.671875 
Q 47.953125 44.09375 46.40625 41.96875 
Q 44.875 39.84375 42.59375 38.34375 
Q 40.328125 36.859375 37.359375 36.28125 
L 37.359375 36.078125 
Q 40.328125 35.59375 42.859375 34.296875 
Q 45.40625 33.015625 47.265625 30.890625 
Q 49.125 28.765625 50.1875 25.828125 
Q 51.265625 22.90625 51.265625 19.1875 
M 40.4375 51.609375 
Q 40.4375 54.203125 39.765625 56.34375 
Q 39.109375 58.5 37.59375 60.03125 
Q 36.078125 61.578125 33.640625 62.421875 
Q 31.203125 63.28125 27.640625 63.28125 
Q 24.171875 63.28125 21.78125 62.421875 
Q 19.390625 61.578125 17.84375 60.03125 
Q 16.3125 58.5 15.625 56.34375 
Q 14.9375 54.203125 14.9375 51.609375 
Q 14.9375 49.5625 15.46875 47.40625 
Q 16.015625 45.265625 17.421875 43.5 
Q 18.84375 41.75 21.328125 40.625 
Q 23.828125 39.5 27.734375 39.5 
Q 31.890625 39.5 34.40625 40.625 
Q 36.921875 41.75 38.25 43.5 
Q 39.59375 45.265625 40.015625 47.40625 
Q 40.4375 49.5625 40.4375 51.609375 
M 42.140625 20.015625 
Q 42.140625 22.515625 41.453125 24.828125 
Q 40.765625 27.15625 39.109375 28.9375 
Q 37.453125 30.71875 34.640625 31.8125 
Q 31.84375 32.90625 27.640625 32.90625 
Q 23.78125 32.90625 21.0625 31.8125 
Q 18.359375 30.71875 16.671875 28.90625 
Q 14.984375 27.09375 14.203125 24.71875 
Q 13.421875 22.359375 13.421875 19.828125 
Q 13.421875 16.65625 14.203125 14.03125 
Q 14.984375 11.421875 16.6875 9.546875 
Q 18.40625 7.671875 21.1875 6.640625 
Q 23.96875 5.609375 27.9375 5.609375 
Q 31.9375 5.609375 34.671875 6.640625 
Q 37.40625 7.671875 39.0625 9.546875 
Q 40.71875 11.421875 41.421875 14.078125 
Q 42.140625 16.75 42.140625 20.015625 
" id="LiberationSans-38"/>
      </defs>
      <g style="fill:#262626;" transform="translate(33.8691375 254.3711875)scale(0.1 -0.1)">
       <use xlink:href="#LiberationSans-38"/>
       <use x="55.615234375" xlink:href="#LiberationSans-30"/>
       <use x="111.23046875" xlink:href="#LiberationSans-30"/>
       <use x="166.845703125" xlink:href="#LiberationSans-30"/>
      </g>
     </g>
    </g>
    <g id="ytick_5">
     <g id="line2d_29">
      <path clip-path="url(#p21e109224a)" d="M 60.112888 209.93525 
L 729.712888 209.93525 
" style="fill:none;stroke:#cccccc;stroke-linecap:round;stroke-width:0.5;"/>
     </g>
     <g id="line2d_30"/>
     <g id="line2d_31"/>
     <g id="text_13">
      <!-- 9000 -->
      <g style="fill:#262626;" transform="translate(33.8691375 212.5211875)scale(0.1 -0.1)">
       <use xlink:href="#LiberationSans-39"/>
       <use x="55.615234375" xlink:href="#LiberationSans-30"/>
       <use x="111.23046875" xlink:href="#LiberationSans-30"/>
       <use x="166.845703125" xlink:href="#LiberationSans-30"/>
      </g>
     </g>
    </g>
    <g id="ytick_6">
     <g id="line2d_32">
      <path clip-path="url(#p21e109224a)" d="M 60.112888 168.08525 
L 729.712888 168.08525 
" style="fill:none;stroke:#cccccc;stroke-linecap:round;stroke-width:0.5;"/>
     </g>
     <g id="line2d_33"/>
     <g id="line2d_34"/>
     <g id="text_14">
      <!-- 10000 -->
      <g style="fill:#262626;" transform="translate(28.3082 170.6711875)scale(0.1 -0.1)">
       <use xlink:href="#LiberationSans-31"/>
       <use x="55.615234375" xlink:href="#LiberationSans-30"/>
       <use x="111.23046875" xlink:href="#LiberationSans-30"/>
       <use x="166.845703125" xlink:href="#LiberationSans-30"/>
       <use x="222.4609375" xlink:href="#LiberationSans-30"/>
      </g>
     </g>
    </g>
    <g id="ytick_7">
     <g id="line2d_35">
      <path clip-path="url(#p21e109224a)" d="M 60.112888 126.23525 
L 729.712888 126.23525 
" style="fill:none;stroke:#cccccc;stroke-linecap:round;stroke-width:0.5;"/>
     </g>
     <g id="line2d_36"/>
     <g id="line2d_37"/>
     <g id="text_15">
      <!-- 11000 -->
      <g style="fill:#262626;" transform="translate(28.3082 128.8211875)scale(0.1 -0.1)">
       <use xlink:href="#LiberationSans-31"/>
       <use x="55.615234375" xlink:href="#LiberationSans-31"/>
       <use x="111.23046875" xlink:href="#LiberationSans-30"/>
       <use x="166.845703125" xlink:href="#LiberationSans-30"/>
       <use x="222.4609375" xlink:href="#LiberationSans-30"/>
      </g>
     </g>
    </g>
    <g id="ytick_8">
     <g id="line2d_38">
      <path clip-path="url(#p21e109224a)" d="M 60.112888 84.38525 
L 729.712888 84.38525 
" style="fill:none;stroke:#cccccc;stroke-linecap:round;stroke-width:0.5;"/>
     </g>
     <g id="line2d_39"/>
     <g id="line2d_40"/>
     <g id="text_16">
      <!-- 12000 -->
      <g style="fill:#262626;" transform="translate(28.3082 86.9711875)scale(0.1 -0.1)">
       <use xlink:href="#LiberationSans-31"/>
       <use x="55.615234375" xlink:href="#LiberationSans-32"/>
       <use x="111.23046875" xlink:href="#LiberationSans-30"/>
       <use x="166.845703125" xlink:href="#LiberationSans-30"/>
       <use x="222.4609375" xlink:href="#LiberationSans-30"/>
      </g>
     </g>
    </g>
    <g id="ytick_9">
     <g id="line2d_41">
      <path clip-path="url(#p21e109224a)" d="M 60.112888 42.53525 
L 729.712888 42.53525 
" style="fill:none;stroke:#cccccc;stroke-linecap:round;stroke-width:0.5;"/>
     </g>
     <g id="line2d_42"/>
     <g id="line2d_43"/>
     <g id="text_17">
      <!-- 13000 -->
      <g style="fill:#262626;" transform="translate(28.3082 45.1211875)scale(0.1 -0.1)">
       <use xlink:href="#LiberationSans-31"/>
       <use x="55.615234375" xlink:href="#LiberationSans-33"/>
       <use x="111.23046875" xlink:href="#LiberationSans-30"/>
       <use x="166.845703125" xlink:href="#LiberationSans-30"/>
       <use x="222.4609375" xlink:href="#LiberationSans-30"/>
      </g>
     </g>
    </g>
    <g id="text_18">
     <!-- Accidents / Week -->
     <defs>
      <path d="M 40.09375 8.5 
Q 37.640625 3.421875 33.609375 1.21875 
Q 29.59375 -0.984375 23.640625 -0.984375 
Q 13.625 -0.984375 8.90625 5.75 
Q 4.203125 12.5 4.203125 26.171875 
Q 4.203125 53.8125 23.640625 53.8125 
Q 29.640625 53.8125 33.640625 51.609375 
Q 37.640625 49.421875 40.09375 44.625 
L 40.1875 44.625 
Q 40.1875 45.125 40.15625 46.171875 
Q 40.140625 47.21875 40.109375 48.359375 
Q 40.09375 49.515625 40.09375 50.53125 
Q 40.09375 51.5625 40.09375 52 
L 40.09375 72.46875 
L 48.875 72.46875 
L 48.875 10.890625 
Q 48.875 8.984375 48.890625 7.21875 
Q 48.921875 5.46875 48.96875 4 
Q 49.03125 2.546875 49.078125 1.484375 
Q 49.125 0.4375 49.171875 0 
L 40.765625 0 
Q 40.671875 0.484375 40.59375 1.390625 
Q 40.53125 2.296875 40.453125 3.46875 
Q 40.375 4.640625 40.328125 5.9375 
Q 40.28125 7.234375 40.28125 8.5 
z
M 13.421875 26.46875 
Q 13.421875 21 14.109375 17.09375 
Q 14.796875 13.1875 16.3125 10.671875 
Q 17.828125 8.15625 20.171875 6.984375 
Q 22.515625 5.8125 25.875 5.8125 
Q 29.34375 5.8125 32 6.9375 
Q 34.671875 8.0625 36.453125 10.578125 
Q 38.234375 13.09375 39.15625 17.140625 
Q 40.09375 21.1875 40.09375 27.046875 
Q 40.09375 32.671875 39.15625 36.546875 
Q 38.234375 40.4375 36.421875 42.828125 
Q 34.625 45.21875 32 46.265625 
Q 29.390625 47.3125 25.984375 47.3125 
Q 22.75 47.3125 20.40625 46.1875 
Q 18.0625 45.0625 16.5 42.578125 
Q 14.9375 40.09375 14.171875 36.109375 
Q 13.421875 32.125 13.421875 26.46875 
" id="LiberationSans-64"/>
      <path d="M 13.484375 24.5625 
Q 13.484375 20.40625 14.328125 16.90625 
Q 15.1875 13.421875 16.96875 10.90625 
Q 18.75 8.40625 21.53125 7 
Q 24.3125 5.609375 28.21875 5.609375 
Q 33.9375 5.609375 37.375 7.90625 
Q 40.828125 10.203125 42.046875 13.71875 
L 49.75 11.53125 
Q 48.921875 9.328125 47.4375 7.109375 
Q 45.953125 4.890625 43.453125 3.09375 
Q 40.96875 1.3125 37.234375 0.15625 
Q 33.5 -0.984375 28.21875 -0.984375 
Q 16.5 -0.984375 10.375 6 
Q 4.25 12.984375 4.25 26.765625 
Q 4.25 34.1875 6.09375 39.328125 
Q 7.953125 44.484375 11.171875 47.703125 
Q 14.40625 50.921875 18.703125 52.359375 
Q 23 53.8125 27.875 53.8125 
Q 34.515625 53.8125 38.984375 51.65625 
Q 43.453125 49.515625 46.15625 45.71875 
Q 48.875 41.9375 50.015625 36.8125 
Q 51.171875 31.6875 51.171875 25.734375 
L 51.171875 24.5625 
z
M 42.09375 31.296875 
Q 41.359375 39.65625 37.84375 43.484375 
Q 34.328125 47.3125 27.734375 47.3125 
Q 25.53125 47.3125 23.109375 46.609375 
Q 20.703125 45.90625 18.65625 44.09375 
Q 16.609375 42.28125 15.1875 39.171875 
Q 13.765625 36.078125 13.578125 31.296875 
z
" id="LiberationSans-65"/>
      <path d="M 46.390625 14.59375 
Q 46.390625 10.890625 44.9375 7.984375 
Q 43.5 5.078125 40.765625 3.09375 
Q 38.03125 1.125 34.046875 0.0625 
Q 30.078125 -0.984375 24.953125 -0.984375 
Q 20.359375 -0.984375 16.671875 -0.265625 
Q 12.984375 0.4375 10.203125 2 
Q 7.421875 3.5625 5.53125 6.125 
Q 3.65625 8.6875 2.78125 12.40625 
L 10.546875 13.921875 
Q 11.671875 9.671875 15.1875 7.6875 
Q 18.703125 5.71875 24.953125 5.71875 
Q 27.78125 5.71875 30.140625 6.109375 
Q 32.515625 6.5 34.21875 7.453125 
Q 35.9375 8.40625 36.890625 9.984375 
Q 37.84375 11.578125 37.84375 13.921875 
Q 37.84375 16.3125 36.71875 17.84375 
Q 35.59375 19.390625 33.59375 20.40625 
Q 31.59375 21.4375 28.734375 22.1875 
Q 25.875 22.953125 22.46875 23.875 
Q 19.28125 24.703125 16.15625 25.734375 
Q 13.03125 26.765625 10.515625 28.4375 
Q 8.015625 30.125 6.453125 32.609375 
Q 4.890625 35.109375 4.890625 38.875 
Q 4.890625 46.09375 10.03125 49.875 
Q 15.1875 53.65625 25.046875 53.65625 
Q 33.796875 53.65625 38.9375 50.578125 
Q 44.09375 47.515625 45.453125 40.71875 
L 37.546875 39.75 
Q 37.109375 41.796875 35.9375 43.1875 
Q 34.765625 44.578125 33.109375 45.4375 
Q 31.453125 46.296875 29.375 46.65625 
Q 27.296875 47.015625 25.046875 47.015625 
Q 19.09375 47.015625 16.25 45.203125 
Q 13.421875 43.40625 13.421875 39.75 
Q 13.421875 37.59375 14.46875 36.203125 
Q 15.53125 34.8125 17.40625 33.859375 
Q 19.28125 32.90625 21.921875 32.203125 
Q 24.5625 31.5 27.734375 30.71875 
Q 29.828125 30.171875 32.03125 29.5625 
Q 34.234375 28.953125 36.296875 28.09375 
Q 38.375 27.25 40.203125 26.09375 
Q 42.046875 24.953125 43.40625 23.34375 
Q 44.78125 21.734375 45.578125 19.578125 
Q 46.390625 17.4375 46.390625 14.59375 
" id="LiberationSans-73"/>
      <path d="M 13.421875 26.65625 
Q 13.421875 22.125 14.078125 18.3125 
Q 14.75 14.5 16.3125 11.734375 
Q 17.875 8.984375 20.4375 7.46875 
Q 23 5.953125 26.765625 5.953125 
Q 31.453125 5.953125 34.59375 8.484375 
Q 37.75 11.03125 38.484375 16.3125 
L 47.359375 15.71875 
Q 46.921875 12.453125 45.453125 9.421875 
Q 44 6.390625 41.484375 4.09375 
Q 38.96875 1.8125 35.34375 0.40625 
Q 31.734375 -0.984375 27 -0.984375 
Q 20.796875 -0.984375 16.453125 1.109375 
Q 12.109375 3.21875 9.390625 6.90625 
Q 6.6875 10.59375 5.46875 15.59375 
Q 4.25 20.609375 4.25 26.46875 
Q 4.25 31.78125 5.125 35.859375 
Q 6 39.9375 7.59375 42.984375 
Q 9.1875 46.046875 11.328125 48.125 
Q 13.484375 50.203125 15.984375 51.4375 
Q 18.5 52.6875 21.28125 53.25 
Q 24.078125 53.8125 26.90625 53.8125 
Q 31.34375 53.8125 34.8125 52.59375 
Q 38.28125 51.375 40.796875 49.25 
Q 43.3125 47.125 44.875 44.234375 
Q 46.4375 41.359375 47.078125 38.03125 
L 38.03125 37.359375 
Q 37.359375 41.75 34.5625 44.328125 
Q 31.78125 46.921875 26.65625 46.921875 
Q 22.90625 46.921875 20.390625 45.671875 
Q 17.875 44.4375 16.3125 41.921875 
Q 14.75 39.40625 14.078125 35.59375 
Q 13.421875 31.78125 13.421875 26.65625 
" id="LiberationSans-63"/>
      <path d="M 27.046875 0.390625 
Q 25.046875 -0.140625 22.96875 -0.453125 
Q 20.90625 -0.78125 18.171875 -0.78125 
Q 7.625 -0.78125 7.625 11.1875 
L 7.625 46.4375 
L 1.515625 46.4375 
L 1.515625 52.828125 
L 7.953125 52.828125 
L 10.546875 64.65625 
L 16.40625 64.65625 
L 16.40625 52.828125 
L 26.171875 52.828125 
L 26.171875 46.4375 
L 16.40625 46.4375 
L 16.40625 13.09375 
Q 16.40625 9.28125 17.640625 7.734375 
Q 18.890625 6.203125 21.96875 6.203125 
Q 23.25 6.203125 24.4375 6.390625 
Q 25.640625 6.59375 27.046875 6.890625 
z
" id="LiberationSans-74"/>
      <path d="M 6.6875 64.0625 
L 6.6875 72.46875 
L 15.484375 72.46875 
L 15.484375 64.0625 
z
M 6.6875 0 
L 6.6875 52.828125 
L 15.484375 52.828125 
L 15.484375 0 
z
" id="LiberationSans-69"/>
      <path d="M 0 -0.984375 
L 20.0625 72.46875 
L 27.78125 72.46875 
L 7.90625 -0.984375 
z
" id="LiberationSans-2f"/>
      <path d="M 40.28125 0 
L 40.28125 33.5 
Q 40.28125 37.359375 39.71875 39.9375 
Q 39.15625 42.53125 37.890625 44.109375 
Q 36.625 45.703125 34.546875 46.359375 
Q 32.46875 47.015625 29.390625 47.015625 
Q 26.265625 47.015625 23.75 45.921875 
Q 21.234375 44.828125 19.453125 42.75 
Q 17.671875 40.671875 16.6875 37.625 
Q 15.71875 34.578125 15.71875 30.609375 
L 15.71875 0 
L 6.9375 0 
L 6.9375 41.546875 
Q 6.9375 43.21875 6.90625 45.046875 
Q 6.890625 46.875 6.828125 48.5 
Q 6.78125 50.140625 6.734375 51.3125 
Q 6.6875 52.484375 6.640625 52.828125 
L 14.9375 52.828125 
Q 14.984375 52.59375 15.03125 51.515625 
Q 15.09375 50.4375 15.15625 49.046875 
Q 15.234375 47.65625 15.28125 46.21875 
Q 15.328125 44.78125 15.328125 43.796875 
L 15.484375 43.796875 
Q 16.75 46.09375 18.265625 47.953125 
Q 19.78125 49.8125 21.78125 51.09375 
Q 23.78125 52.390625 26.359375 53.09375 
Q 28.953125 53.8125 32.375 53.8125 
Q 36.765625 53.8125 39.9375 52.734375 
Q 43.109375 51.65625 45.15625 49.40625 
Q 47.21875 47.171875 48.171875 43.625 
Q 49.125 40.09375 49.125 35.203125 
L 49.125 0 
z
" id="LiberationSans-6e"/>
      <path d="M 39.84375 0 
L 21.96875 24.125 
L 15.53125 18.796875 
L 15.53125 0 
L 6.734375 0 
L 6.734375 72.46875 
L 15.53125 72.46875 
L 15.53125 27.203125 
L 38.71875 52.828125 
L 49.03125 52.828125 
L 27.59375 30.125 
L 50.140625 0 
z
" id="LiberationSans-6b"/>
      <path id="LiberationSans-20"/>
      <path d="M 73.78125 0 
L 62.640625 0 
L 50.734375 43.703125 
Q 50.203125 45.5625 49.578125 48.09375 
Q 48.96875 50.640625 48.484375 52.9375 
Q 47.90625 55.609375 47.3125 58.40625 
Q 46.6875 55.5625 46.09375 52.875 
Q 45.5625 50.53125 44.96875 48.046875 
Q 44.390625 45.5625 43.84375 43.703125 
L 31.84375 0 
L 20.703125 0 
L 0.4375 68.796875 
L 10.15625 68.796875 
L 22.515625 25.09375 
Q 23.34375 22.015625 24.09375 18.984375 
Q 24.859375 15.96875 25.390625 13.578125 
Q 26.03125 10.75 26.5625 8.203125 
Q 27.296875 11.578125 28.078125 14.84375 
Q 28.421875 16.21875 28.765625 17.71875 
Q 29.109375 19.234375 29.46875 20.703125 
Q 29.828125 22.171875 30.1875 23.515625 
Q 30.5625 24.859375 30.859375 25.984375 
L 42.828125 68.796875 
L 51.765625 68.796875 
L 63.71875 25.984375 
Q 64.015625 24.859375 64.375 23.515625 
Q 64.75 22.171875 65.109375 20.71875 
Q 65.484375 19.28125 65.8125 17.765625 
Q 66.15625 16.265625 66.5 14.890625 
Q 67.28125 11.625 68.015625 8.203125 
Q 68.0625 8.203125 68.453125 9.890625 
Q 68.84375 11.578125 69.421875 14.109375 
Q 70.015625 16.65625 70.71875 19.609375 
Q 71.4375 22.5625 72.171875 25.09375 
L 84.328125 68.796875 
L 94.046875 68.796875 
z
" id="LiberationSans-57"/>
      <path d="M 56.984375 0 
L 49.125 20.125 
L 17.78125 20.125 
L 9.859375 0 
L 0.203125 0 
L 28.265625 68.796875 
L 38.875 68.796875 
L 66.5 0 
z
M 37.5 50.09375 
Q 36.71875 52.046875 36 54.046875 
Q 35.296875 56.0625 34.765625 57.6875 
Q 34.234375 59.328125 33.859375 60.421875 
Q 33.5 61.53125 33.453125 61.765625 
Q 33.34375 61.53125 33 60.40625 
Q 32.671875 59.28125 32.109375 57.609375 
Q 31.546875 55.953125 30.828125 53.953125 
Q 30.125 51.953125 29.390625 50 
L 20.609375 27.390625 
L 46.34375 27.390625 
z
" id="LiberationSans-41"/>
     </defs>
     <g style="fill:#262626;" transform="translate(19.7226 276.67655)rotate(-90.0)scale(0.1728 -0.1728)">
      <use xlink:href="#LiberationSans-41"/>
      <use x="66.69921875" xlink:href="#LiberationSans-63"/>
      <use x="116.69921875" xlink:href="#LiberationSans-63"/>
      <use x="166.69921875" xlink:href="#LiberationSans-69"/>
      <use x="188.916015625" xlink:href="#LiberationSans-64"/>
      <use x="244.53125" xlink:href="#LiberationSans-65"/>
      <use x="300.146484375" xlink:href="#LiberationSans-6e"/>
      <use x="355.76171875" xlink:href="#LiberationSans-74"/>
      <use x="383.544921875" xlink:href="#LiberationSans-73"/>
      <use x="433.544921875" xlink:href="#LiberationSans-20"/>
      <use x="461.328125" xlink:href="#LiberationSans-2f"/>
      <use x="489.111328125" xlink:href="#LiberationSans-20"/>
      <use x="516.89453125" xlink:href="#LiberationSans-57"/>
      <use x="611.263671875" xlink:href="#LiberationSans-65"/>
      <use x="666.87890625" xlink:href="#LiberationSans-65"/>
      <use x="722.494140625" xlink:href="#LiberationSans-6b"/>
     </g>
    </g>
   </g>
   <g id="patch_3">
    <path clip-path="url(#p21e109224a)" d="M 105.437025 377.33525 
L 105.437025 42.53525 
L 149.905991 42.53525 
L 149.905991 377.33525 
z
" style="opacity:0.05;stroke:#000000;stroke-linejoin:miter;"/>
   </g>
   <g id="patch_4">
    <path clip-path="url(#p21e109224a)" d="M 194.374956 377.33525 
L 194.374956 42.53525 
L 238.843922 42.53525 
L 238.843922 377.33525 
z
" style="opacity:0.05;stroke:#000000;stroke-linejoin:miter;"/>
   </g>
   <g id="patch_5">
    <path clip-path="url(#p21e109224a)" d="M 283.312887 377.33525 
L 283.312887 42.53525 
L 327.781853 42.53525 
L 327.781853 377.33525 
z
" style="opacity:0.05;stroke:#000000;stroke-linejoin:miter;"/>
   </g>
   <g id="patch_6">
    <path clip-path="url(#p21e109224a)" d="M 373.105991 377.33525 
L 373.105991 42.53525 
L 417.574956 42.53525 
L 417.574956 377.33525 
z
" style="opacity:0.05;stroke:#000000;stroke-linejoin:miter;"/>
   </g>
   <g id="patch_7">
    <path clip-path="url(#p21e109224a)" d="M 462.043922 377.33525 
L 462.043922 42.53525 
L 506.512887 42.53525 
L 506.512887 377.33525 
z
" style="opacity:0.05;stroke:#000000;stroke-linejoin:miter;"/>
   </g>
   <g id="patch_8">
    <path clip-path="url(#p21e109224a)" d="M 550.981853 377.33525 
L 550.981853 42.53525 
L 596.305991 42.53525 
L 596.305991 377.33525 
z
" style="opacity:0.05;stroke:#000000;stroke-linejoin:miter;"/>
   </g>
   <g id="patch_9">
    <path clip-path="url(#p21e109224a)" d="M 640.774956 377.33525 
L 640.774956 42.53525 
L 685.243922 42.53525 
L 685.243922 377.33525 
z
" style="opacity:0.05;stroke:#000000;stroke-linejoin:miter;"/>
   </g>
   <g id="patch_10">
    <path clip-path="url(#p21e109224a)" d="M 729.712888 377.33525 
L 729.712888 42.53525 
L 774.181853 42.53525 
L 774.181853 377.33525 
z
" style="opacity:0.05;stroke:#000000;stroke-linejoin:miter;"/>
   </g>
   <g id="line2d_44">
    <path clip-path="url(#p21e109224a)" d="M 60.453656 402.585875 
L 60.96806 188.00585 
L 61.823232 149.5457 
L 62.678405 213.70175 
L 63.533577 148.7924 
L 64.38875 190.93535 
L 65.243922 126.57005 
L 66.099094 179.3429 
L 66.954267 155.86505 
L 67.809439 164.40245 
L 68.664612 203.57405 
L 69.519784 175.3253 
L 70.374956 187.3781 
L 71.230129 183.15125 
L 72.085301 137.1581 
L 72.940474 194.66 
L 73.795646 164.8628 
L 74.650819 189.0521 
L 75.505991 173.735 
L 76.361163 187.2107 
L 77.216336 186.49925 
L 78.071508 200.7701 
L 78.926681 179.30105 
L 79.781853 172.27025 
L 80.637025 150.5501 
L 82.34737 171.43325 
L 83.202543 206.75465 
L 84.057715 191.10275 
L 84.912887 181.6865 
L 85.76806 190.8098 
L 86.623232 166.0346 
L 87.478405 173.0654 
L 88.333577 161.3474 
L 89.18875 162.1844 
L 90.043922 183.06755 
L 90.899094 160.05005 
L 91.754267 194.36705 
L 92.609439 177.4178 
L 93.464612 132.8894 
L 94.319784 174.44645 
L 95.174956 146.15585 
L 96.030129 150.00605 
L 96.885301 150.84305 
L 97.740474 108.7001 
L 98.595646 122.3432 
L 99.450819 149.462 
L 100.305991 164.40245 
L 101.161163 117.3212 
L 102.016336 128.2022 
L 102.871508 115.2287 
L 103.726681 108.82565 
L 104.581853 223.24355 
L 105.437025 213.78545 
L 106.292198 182.6072 
L 107.14737 176.95745 
L 108.002543 137.36735 
L 108.857715 167.876 
L 109.712887 159.5897 
L 110.56806 156.995 
L 111.423232 152.81 
L 112.278405 153.43775 
L 113.133577 125.73305 
L 113.98875 154.27475 
L 114.843922 150.92675 
L 115.699094 171.9773 
L 116.554267 196.12475 
L 117.409439 142.89155 
L 118.264612 147.2021 
L 119.119784 154.69325 
L 119.974956 153.1448 
L 120.830129 137.11625 
L 121.685301 118.2419 
L 122.540474 175.3253 
L 123.395646 151.5545 
L 124.250819 144.8585 
L 125.105991 133.09865 
L 125.961163 159.4223 
L 126.816336 152.34965 
L 127.671508 181.64465 
L 128.526681 162.017 
L 129.381853 161.6822 
L 130.237025 150.9686 
L 131.092198 155.7395 
L 131.94737 157.9994 
L 132.802543 166.82975 
L 133.657715 152.68445 
L 134.512887 151.59635 
L 135.36806 125.1053 
L 136.223232 121.71545 
L 137.078405 111.2948 
L 137.933577 139.04135 
L 138.78875 115.94015 
L 139.643922 156.8276 
L 140.499094 152.3915 
L 141.354267 135.8189 
L 142.209439 116.5679 
L 143.064612 61.4096 
L 143.919784 144.7748 
L 144.774956 155.321 
L 145.630129 181.30985 
L 146.485301 142.8497 
L 147.340474 71.2862 
L 148.195646 79.02845 
L 149.050819 237.347 
L 149.905991 235.9241 
L 150.761163 189.9728 
L 151.616336 181.268 
L 152.471508 178.63145 
L 153.326681 180.05435 
L 154.181853 183.4442 
L 155.037025 122.88725 
L 155.892198 186.0389 
L 156.74737 173.4839 
L 157.602543 173.735 
L 158.457715 134.5634 
L 159.312887 193.86485 
L 160.16806 174.44645 
L 161.023232 160.30115 
L 161.878405 119.4974 
L 162.733577 195.4133 
L 164.443922 125.7749 
L 165.299094 172.6469 
L 166.154267 168.25265 
L 167.009439 169.4663 
L 167.864612 160.30115 
L 168.719784 159.0038 
L 169.574956 151.68005 
L 170.430129 174.02795 
L 171.285301 149.462 
L 172.140474 159.29675 
L 172.995646 152.3078 
L 173.850819 162.6866 
L 174.705991 167.41565 
L 175.561163 166.5368 
L 176.416336 159.04565 
L 177.271508 147.16025 
L 178.126681 151.01045 
L 178.981853 172.4795 
L 179.837025 125.48195 
L 180.692198 135.10745 
L 181.54737 129.83435 
L 182.402543 155.1536 
L 183.257715 152.76815 
L 184.96806 109.83005 
L 185.823232 118.20005 
L 186.678405 90.3698 
L 187.533577 122.0921 
L 188.38875 113.3873 
L 189.243922 147.2858 
L 190.099094 157.7483 
L 190.954267 100.62305 
L 191.809439 101.12525 
L 193.519784 157.20425 
L 194.374956 215.1665 
L 195.230129 196.20845 
L 196.085301 191.93975 
L 196.940474 168.83855 
L 197.795646 133.26605 
L 198.650819 144.81665 
L 199.505991 160.80335 
L 200.361163 121.88285 
L 201.216336 141.092 
L 202.071508 166.8716 
L 202.926681 149.9642 
L 203.781853 161.0963 
L 204.637025 162.05885 
L 205.492198 158.669 
L 206.34737 178.21295 
L 207.202543 165.1139 
L 208.057715 156.995 
L 208.912887 137.5766 
L 209.76806 140.1713 
L 210.623232 166.99715 
L 211.478405 173.0654 
L 212.333577 190.01465 
L 213.18875 158.1668 
L 214.043922 158.71085 
L 214.899094 170.387 
L 215.754267 174.36275 
L 216.609439 180.05435 
L 217.464612 168.50375 
L 218.319784 149.25275 
L 220.030129 161.97515 
L 220.885301 155.6558 
L 221.740474 155.321 
L 222.595646 172.7306 
L 223.450819 139.3343 
L 224.305991 153.3959 
L 225.161163 120.04145 
L 226.016336 134.94005 
L 226.871508 140.3387 
L 227.726681 161.80775 
L 228.581853 146.3651 
L 229.437025 110.16485 
L 230.292198 125.189 
L 231.14737 136.1537 
L 232.002543 154.9025 
L 232.857715 158.04125 
L 233.712887 152.1404 
L 234.56806 185.7878 
L 235.423232 132.3035 
L 236.278405 121.12955 
L 237.133577 137.6603 
L 237.98875 192.0653 
L 238.843922 161.05445 
L 239.699094 150.67565 
L 240.554267 196.5014 
L 241.409439 193.36265 
L 242.264612 161.55665 
L 243.119784 172.43765 
L 243.974956 155.321 
L 244.830129 115.60535 
L 245.685301 170.67995 
L 246.540474 153.3959 
L 247.395646 168.75485 
L 248.250819 134.4797 
L 249.105991 173.6513 
L 249.961163 163.06325 
L 250.816336 154.7351 
L 251.671508 173.1491 
L 252.526681 173.19095 
L 253.381853 170.01035 
L 254.237025 133.1405 
L 255.092198 166.32755 
L 255.94737 141.5105 
L 256.802543 200.2679 
L 257.657715 170.26145 
L 258.512887 155.321 
L 259.36806 157.832 
L 260.223232 161.9333 
L 261.078405 175.28345 
L 261.933577 177.8363 
L 262.78875 165.07205 
L 263.643922 159.38045 
L 264.499094 157.79015 
L 266.209439 173.27465 
L 267.919784 143.81225 
L 268.774956 179.6777 
L 269.630129 164.9465 
L 270.485301 155.4884 
L 271.340474 141.05015 
L 272.195646 136.8233 
L 273.050819 143.1845 
L 273.905991 115.52165 
L 274.761163 177.79445 
L 275.616336 133.9775 
L 276.471508 151.93115 
L 277.326681 150.50825 
L 278.181853 128.07665 
L 279.037025 171.34955 
L 279.892198 124.6868 
L 280.74737 146.0303 
L 281.602543 135.44225 
L 282.457715 165.4487 
L 283.312887 175.4927 
L 284.16806 197.2547 
L 285.023232 185.99705 
L 285.878405 171.01475 
L 286.733577 168.67115 
L 287.58875 172.9817 
L 288.443922 162.14255 
L 289.299094 141.5942 
L 290.154267 153.18665 
L 291.009439 138.3299 
L 291.864612 164.9465 
L 292.719784 158.5016 
L 293.574956 182.06315 
L 294.430129 154.7351 
L 295.285301 151.973 
L 296.140474 178.4222 
L 296.995646 213.86915 
L 297.850819 209.9771 
L 298.705991 194.61815 
L 299.561163 170.26145 
L 300.416336 156.9113 
L 301.271508 205.3736 
L 302.126681 165.90905 
L 302.981853 191.85605 
L 303.837025 162.05885 
L 305.54737 181.05875 
L 306.402543 198.008 
L 307.257715 180.3473 
L 308.112887 173.10725 
L 308.96806 198.04985 
L 309.823232 189.4706 
L 310.678405 182.64905 
L 311.533577 183.3605 
L 312.38875 166.1183 
L 313.243922 182.4398 
L 314.099094 163.5236 
L 314.954267 164.6117 
L 315.809439 149.5457 
L 316.664612 156.995 
L 317.519784 158.3342 
L 318.374956 163.56545 
L 319.230129 131.1317 
L 320.085301 148.16465 
L 320.940474 127.23965 
L 321.795646 138.4136 
L 322.650819 138.7484 
L 323.505991 197.63135 
L 324.361163 164.31875 
L 325.216336 109.32785 
L 326.071508 152.5589 
L 326.926681 181.30985 
L 327.781853 251.7434 
L 328.637025 228.68405 
L 329.492198 221.0255 
L 330.34737 181.0169 
L 332.057715 197.6732 
L 332.912887 166.16015 
L 333.76806 185.24375 
L 334.623232 173.94425 
L 335.478405 172.01915 
L 336.333577 183.1094 
L 337.18875 171.0566 
L 338.043922 167.4575 
L 338.899094 170.42885 
L 339.754267 209.85155 
L 340.609439 170.1359 
L 341.464612 182.105 
L 342.319784 181.268 
L 343.174956 176.03675 
L 344.030129 174.69755 
L 344.885301 200.39345 
L 345.740474 206.75465 
L 346.595646 197.3384 
L 347.450819 181.89575 
L 348.305991 158.12495 
L 349.161163 179.1755 
L 350.016336 175.6601 
L 350.871508 208.9727 
L 351.726681 190.01465 
L 352.581853 177.54335 
L 353.437025 190.76795 
L 354.292198 194.4089 
L 355.14737 191.6468 
L 356.002543 176.0786 
L 356.857715 184.82525 
L 357.712887 179.97065 
L 359.423232 160.05005 
L 360.278405 161.4311 
L 361.133577 175.5764 
L 361.98875 161.72405 
L 362.843922 153.3959 
L 363.699094 182.39795 
L 364.554267 187.58735 
L 365.409439 174.02795 
L 366.264612 182.4398 
L 367.119784 172.27025 
L 367.974956 235.04525 
L 368.830129 162.97955 
L 369.685301 137.6603 
L 370.540474 175.03235 
L 371.395646 158.4179 
L 372.250819 295.47665 
L 373.105991 236.71925 
L 373.961163 225.83825 
L 374.816336 219.97925 
L 375.671508 170.2196 
L 376.526681 182.56535 
L 377.381853 209.2238 
L 378.237025 228.3911 
L 379.092198 183.56975 
L 379.94737 211.86035 
L 380.802543 211.6511 
L 381.657715 210.60485 
L 382.512887 214.2458 
L 383.36806 227.303 
L 384.223232 223.4528 
L 385.078405 203.4485 
L 385.933577 228.8933 
L 386.78875 222.15545 
L 387.643922 220.56515 
L 388.499094 238.14215 
L 389.354267 200.4353 
L 390.209439 238.3514 
L 391.064612 239.2721 
L 391.919784 230.44175 
L 392.774956 231.19505 
L 393.630129 229.60475 
L 394.485301 256.63985 
L 395.340474 257.39315 
L 396.195646 270.95255 
L 397.050819 247.93505 
L 398.761163 237.4307 
L 399.616336 248.01875 
L 400.471508 247.93505 
L 401.326681 233.7479 
L 402.181853 243.24785 
L 403.037025 223.57835 
L 403.892198 245.2148 
L 404.74737 228.6422 
L 405.602543 216.71495 
L 406.457715 212.5718 
L 407.312887 242.2016 
L 408.16806 213.70175 
L 409.023232 218.89115 
L 409.878405 186.66665 
L 410.733577 220.2722 
L 411.58875 227.0519 
L 412.443922 229.3955 
L 413.299094 221.444 
L 414.154267 233.162 
L 415.009439 161.7659 
L 415.864612 176.28785 
L 416.719784 269.3204 
L 417.574956 297.40175 
L 418.430129 265.67945 
L 419.285301 242.8712 
L 420.140474 229.814 
L 420.995646 246.2192 
L 421.850819 207.7172 
L 422.705991 215.04095 
L 423.561163 233.6642 
L 424.416336 243.66635 
L 425.271508 231.86465 
L 426.126681 244.5452 
L 426.981853 231.94835 
L 427.837025 248.4791 
L 428.692198 233.20385 
L 429.54737 253.6685 
L 430.402543 236.38445 
L 431.257715 244.6289 
L 432.96806 219.81185 
L 433.823232 234.12455 
L 434.678405 254.7566 
L 435.533577 257.39315 
L 436.38875 242.24345 
L 437.243922 268.2323 
L 438.099094 250.4042 
L 438.954267 253.54295 
L 439.809439 252.9989 
L 440.664612 260.32265 
L 441.519784 243.5408 
L 442.374956 259.109 
L 443.230129 259.90415 
L 444.085301 263.5451 
L 444.940474 264.75875 
L 445.795646 264.25655 
L 446.650819 242.82935 
L 447.505991 260.90855 
L 448.361163 234.96155 
L 449.216336 223.91315 
L 450.071508 236.13335 
L 450.926681 235.12895 
L 451.781853 252.28745 
L 452.637025 191.77235 
L 453.492198 244.5452 
L 454.34737 229.0607 
L 456.057715 258.6905 
L 456.912887 229.9814 
L 457.76806 266.18165 
L 458.623232 215.3339 
L 459.478405 194.36705 
L 461.18875 307.4039 
L 462.043922 322.51175 
L 462.899094 299.0339 
L 463.754267 252.28745 
L 464.609439 230.86025 
L 465.464612 273.12875 
L 466.319784 245.50775 
L 467.174956 263.33585 
L 468.030129 265.9724 
L 468.885301 238.89545 
L 469.740474 249.9857 
L 470.595646 242.15975 
L 471.450819 240.65315 
L 472.305991 250.94825 
L 473.161163 249.4835 
L 474.016336 250.86455 
L 474.871508 272.4173 
L 475.726681 244.41965 
L 476.581853 249.52535 
L 477.437025 239.9417 
L 478.292198 257.47685 
L 479.14737 266.43275 
L 480.002543 256.5143 
L 480.857715 253.3337 
L 481.712887 262.58255 
L 482.56806 257.05835 
L 483.423232 267.26975 
L 484.278405 274.6772 
L 485.133577 283.1309 
L 485.98875 251.8271 
L 486.843922 275.5979 
L 487.699094 267.18605 
L 488.554267 265.5539 
L 489.409439 267.52085 
L 490.264612 240.2765 
L 491.119784 257.7698 
L 491.974956 257.435 
L 492.830129 255.5099 
L 493.685301 229.0607 
L 494.540474 243.41525 
L 495.395646 226.67525 
L 496.250819 240.65315 
L 497.105991 235.5893 
L 497.961163 224.6246 
L 498.816336 228.26555 
L 499.671508 224.91755 
L 500.526681 253.5848 
L 501.381853 206.83835 
L 502.237025 279.57365 
L 503.092198 235.38005 
L 503.94737 235.54745 
L 504.802543 158.54345 
L 505.657715 285.3908 
L 506.512887 306.10655 
L 507.36806 299.7872 
L 508.223232 288.02735 
L 509.078405 268.94375 
L 509.933577 265.42835 
L 510.78875 267.3116 
L 511.643922 253.96145 
L 512.499094 222.0299 
L 513.354267 263.08475 
L 514.209439 262.24775 
L 515.064612 278.06705 
L 515.919784 231.27875 
L 516.774956 270.19925 
L 517.630129 262.9592 
L 518.485301 275.97455 
L 519.340474 279.8666 
L 520.195646 296.73215 
L 521.050819 269.44595 
L 521.905991 261.1178 
L 522.761163 267.93935 
L 523.616336 272.71025 
L 524.471508 283.50755 
L 525.326681 268.9019 
L 526.181853 279.5318 
L 527.037025 276.97895 
L 527.892198 271.11995 
L 528.74737 263.75435 
L 529.602543 269.52965 
L 530.457715 285.2234 
L 531.312887 269.7389 
L 532.16806 272.501 
L 533.023232 265.3028 
L 533.878405 268.10675 
L 535.58875 252.9152 
L 536.443922 268.94375 
L 537.299094 248.77205 
L 538.154267 256.47245 
L 539.009439 248.0606 
L 539.864612 232.6598 
L 540.719784 219.8537 
L 542.430129 254.7566 
L 543.285301 237.47255 
L 544.140474 225.41975 
L 544.995646 253.54295 
L 545.850819 220.4396 
L 546.705991 291.87755 
L 547.561163 247.5584 
L 548.416336 216.2546 
L 549.271508 237.30515 
L 550.126681 291.2498 
L 550.981853 327.6593 
L 551.837025 297.15065 
L 552.692198 288.36215 
L 553.54737 219.1004 
L 554.402543 284.76305 
L 555.257715 274.71905 
L 556.112887 254.4218 
L 556.96806 271.1618 
L 557.823232 271.03625 
L 558.678405 266.3909 
L 559.533577 265.2191 
L 560.38875 214.03655 
L 561.243922 268.52525 
L 562.099094 273.63095 
L 562.954267 282.545 
L 563.809439 251.19935 
L 564.664612 257.39315 
L 565.519784 275.38865 
L 566.374956 268.4834 
L 567.230129 254.37995 
L 568.085301 266.68385 
L 568.940474 290.03615 
L 569.795646 270.6596 
L 570.650819 275.80715 
L 571.505991 275.38865 
L 572.361163 285.93485 
L 573.216336 272.71025 
L 574.071508 297.4436 
L 574.926681 281.24765 
L 575.781853 278.90405 
L 576.637025 289.4084 
L 577.492198 281.2058 
L 578.34737 264.5495 
L 579.202543 280.6199 
L 580.057715 274.38425 
L 580.912887 273.0869 
L 581.76806 275.13755 
L 582.623232 266.5583 
L 583.478405 250.3205 
L 584.333577 260.5319 
L 585.18875 258.4394 
L 586.043922 264.84245 
L 586.899094 249.27425 
L 587.754267 253.71035 
L 588.609439 249.69275 
L 589.464612 260.1134 
L 590.319784 241.9505 
L 591.174956 302.4656 
L 592.030129 239.858 
L 592.885301 275.05385 
L 593.740474 266.5583 
L 594.595646 246.8888 
L 595.450819 339.58655 
L 596.305991 331.04915 
L 597.161163 294.89075 
L 598.016336 290.28725 
L 598.871508 281.708 
L 599.726681 287.6507 
L 600.581853 301.5449 
L 601.437025 287.2322 
L 602.292198 278.40185 
L 603.14737 272.9195 
L 604.002543 274.21685 
L 604.857715 262.6244 
L 605.712887 278.31815 
L 606.56806 280.07585 
L 607.423232 287.567 
L 608.278405 280.32695 
L 609.133577 277.56485 
L 609.98875 280.91285 
L 610.843922 263.33585 
L 611.699094 272.79395 
L 612.554267 269.61335 
L 613.409439 286.93925 
L 614.264612 283.7168 
L 615.119784 271.95695 
L 615.974956 277.64855 
L 616.830129 275.1794 
L 617.685301 270.19925 
L 618.540474 296.06255 
L 619.395646 291.79385 
L 620.250819 289.78505 
L 621.105991 288.11105 
L 621.961163 285.3908 
L 622.816336 290.7476 
L 623.671508 279.6992 
L 624.526681 274.6772 
L 625.381853 280.7873 
L 626.237025 263.4614 
L 627.092198 262.1222 
L 627.94737 257.5187 
L 628.802543 260.1971 
L 629.657715 271.664 
L 630.512887 274.5098 
L 631.36806 254.6729 
L 632.223232 266.68385 
L 633.078405 252.87335 
L 633.933577 272.0825 
L 634.78875 256.22135 
L 635.643922 251.1575 
L 636.499094 307.27835 
L 637.354267 262.9592 
L 638.209439 252.6641 
L 639.064612 256.47245 
L 639.919784 355.5314 
L 640.774956 345.0689 
L 641.630129 303.1352 
L 642.485301 275.05385 
L 643.340474 292.4216 
L 644.195646 269.69705 
L 645.050819 262.08035 
L 645.905991 284.7212 
L 646.761163 275.72345 
L 647.616336 244.16855 
L 648.471508 283.0472 
L 649.326681 264.7169 
L 650.181853 278.82035 
L 651.037025 277.23005 
L 651.892198 263.50325 
L 652.74737 271.53845 
L 653.602543 292.4216 
L 654.457715 281.33135 
L 655.312887 264.67505 
L 656.16806 273.8402 
L 657.023232 263.08475 
L 657.878405 283.0472 
L 658.733577 263.9636 
L 659.58875 267.0605 
L 660.443922 272.12435 
L 661.299094 286.01855 
L 662.154267 285.85115 
L 663.009439 291.79385 
L 663.864612 294.7652 
L 664.719784 289.4921 
L 665.574956 275.72345 
L 666.430129 274.30055 
L 667.285301 272.1662 
L 668.140474 256.7654 
L 668.995646 263.294 
L 669.850819 267.26975 
L 670.705991 250.27865 
L 671.561163 242.1179 
L 672.416336 240.98795 
L 673.271508 233.999 
L 674.126681 230.94395 
L 674.981853 241.6994 
L 675.837025 241.7831 
L 676.692198 229.9814 
L 677.54737 211.69295 
L 678.402543 243.206 
L 679.257715 256.8491 
L 680.112887 225.629 
L 680.96806 274.71905 
L 681.823232 213.45065 
L 682.678405 244.25225 
L 683.533577 227.09375 
L 684.38875 310.0823 
L 685.243922 342.09755 
L 686.099094 300.91715 
L 686.954267 305.4788 
L 687.809439 306.6506 
L 688.664612 304.6418 
L 689.519784 280.2014 
L 690.374956 287.69255 
L 691.230129 287.0648 
L 692.085301 282.3776 
L 692.940474 282.67055 
L 693.795646 283.50755 
L 694.650819 286.3115 
L 696.361163 255.9284 
L 697.216336 243.1223 
L 698.071508 234.0827 
L 698.926681 250.1531 
L 699.781853 235.54745 
L 700.637025 247.85135 
L 701.492198 245.9681 
L 702.34737 269.27855 
L 703.202543 253.20815 
L 704.057715 250.2368 
L 704.912887 249.5672 
L 705.76806 249.86015 
L 706.623232 262.3733 
L 707.478405 271.78955 
L 708.333577 265.805 
L 709.18875 241.532 
L 710.043922 261.1178 
L 710.899094 251.1575 
L 711.754267 256.47245 
L 712.609439 233.03645 
L 713.464612 238.9373 
L 714.319784 226.2986 
L 715.174956 253.62665 
L 716.885301 220.1885 
L 717.740474 233.28755 
L 718.595646 201.6071 
L 719.450819 204.32735 
L 720.305991 204.07625 
L 721.161163 200.6027 
L 722.016336 188.8847 
L 722.871508 190.26575 
L 723.726681 198.04985 
L 724.581853 192.3164 
L 725.437025 245.42405 
L 726.292198 196.1666 
L 727.14737 168.67115 
L 728.002543 156.86945 
L 728.857715 259.7786 
L 729.520932 402.585875 
L 729.520932 402.585875 
" style="fill:none;stroke:#0000ff;stroke-linecap:round;"/>
   </g>
   <g id="patch_11">
    <path d="M 60.112887 42.53525 
L 729.712888 42.53525 
" style="fill:none;stroke:#262626;stroke-linecap:square;stroke-linejoin:miter;stroke-width:1.25;"/>
   </g>
   <g id="patch_12">
    <path d="M 729.712888 377.33525 
L 729.712888 42.53525 
" style="fill:none;stroke:#262626;stroke-linecap:square;stroke-linejoin:miter;stroke-width:1.25;"/>
   </g>
   <g id="patch_13">
    <path d="M 60.112887 377.33525 
L 729.712888 377.33525 
" style="fill:none;stroke:#262626;stroke-linecap:square;stroke-linejoin:miter;stroke-width:1.25;"/>
   </g>
   <g id="patch_14">
    <path d="M 60.112888 377.33525 
L 60.112888 42.53525 
" style="fill:none;stroke:#262626;stroke-linecap:square;stroke-linejoin:miter;stroke-width:1.25;"/>
   </g>
   <g id="text_19">
    <!-- Accidents per Week in California -->
    <defs>
     <path d="M 6.9375 0 
L 6.9375 40.53125 
Q 6.9375 42.1875 6.90625 43.921875 
Q 6.890625 45.65625 6.828125 47.265625 
Q 6.78125 48.875 6.734375 50.28125 
Q 6.6875 51.703125 6.640625 52.828125 
L 14.9375 52.828125 
Q 14.984375 51.703125 15.0625 50.265625 
Q 15.140625 48.828125 15.203125 47.3125 
Q 15.28125 45.796875 15.296875 44.40625 
Q 15.328125 43.015625 15.328125 42.046875 
L 15.53125 42.046875 
Q 16.453125 45.0625 17.5 47.28125 
Q 18.5625 49.515625 19.96875 50.953125 
Q 21.390625 52.390625 23.34375 53.09375 
Q 25.296875 53.8125 28.078125 53.8125 
Q 29.15625 53.8125 30.125 53.640625 
Q 31.109375 53.46875 31.640625 53.328125 
L 31.640625 45.265625 
Q 30.765625 45.515625 29.59375 45.625 
Q 28.421875 45.75 26.953125 45.75 
Q 23.921875 45.75 21.796875 44.375 
Q 19.671875 43.015625 18.328125 40.59375 
Q 17 38.1875 16.359375 34.84375 
Q 15.71875 31.5 15.71875 27.546875 
L 15.71875 0 
z
" id="LiberationSans-72"/>
     <path d="M 17.625 46.4375 
L 17.625 0 
L 8.84375 0 
L 8.84375 46.4375 
L 1.421875 46.4375 
L 1.421875 52.828125 
L 8.84375 52.828125 
L 8.84375 58.796875 
Q 8.84375 61.671875 9.375 64.140625 
Q 9.90625 66.609375 11.34375 68.4375 
Q 12.796875 70.265625 15.28125 71.3125 
Q 17.78125 72.359375 21.734375 72.359375 
Q 23.296875 72.359375 24.96875 72.21875 
Q 26.65625 72.078125 27.9375 71.78125 
L 27.9375 65.09375 
Q 27.09375 65.234375 26 65.359375 
Q 24.90625 65.484375 24.03125 65.484375 
Q 22.078125 65.484375 20.828125 64.9375 
Q 19.578125 64.40625 18.875 63.40625 
Q 18.171875 62.40625 17.890625 60.9375 
Q 17.625 59.46875 17.625 57.5625 
L 17.625 52.828125 
L 27.9375 52.828125 
L 27.9375 46.4375 
z
" id="LiberationSans-66"/>
     <path d="M 51.421875 26.65625 
Q 51.421875 20.65625 50.4375 15.578125 
Q 49.46875 10.5 47.1875 6.828125 
Q 44.921875 3.171875 41.1875 1.09375 
Q 37.453125 -0.984375 31.984375 -0.984375 
Q 26.3125 -0.984375 22.0625 1.171875 
Q 17.828125 3.328125 15.578125 8.203125 
L 15.328125 8.203125 
Q 15.375 8.109375 15.40625 7.328125 
Q 15.4375 6.546875 15.453125 5.375 
Q 15.484375 4.203125 15.5 2.75 
Q 15.53125 1.3125 15.53125 -0.09375 
L 15.53125 -20.75 
L 6.734375 -20.75 
L 6.734375 42.046875 
Q 6.734375 43.953125 6.703125 45.703125 
Q 6.6875 47.46875 6.640625 48.90625 
Q 6.59375 50.34375 6.546875 51.359375 
Q 6.5 52.390625 6.453125 52.828125 
L 14.9375 52.828125 
Q 14.984375 52.6875 15.0625 51.796875 
Q 15.140625 50.921875 15.203125 49.671875 
Q 15.28125 48.4375 15.359375 47.015625 
Q 15.4375 45.609375 15.4375 44.34375 
L 15.625 44.34375 
Q 16.84375 46.875 18.40625 48.65625 
Q 19.96875 50.4375 21.96875 51.578125 
Q 23.96875 52.734375 26.4375 53.25 
Q 28.90625 53.765625 31.984375 53.765625 
Q 37.453125 53.765625 41.1875 51.8125 
Q 44.921875 49.859375 47.1875 46.3125 
Q 49.46875 42.78125 50.4375 37.765625 
Q 51.421875 32.765625 51.421875 26.65625 
M 42.1875 26.46875 
Q 42.1875 31.34375 41.59375 35.15625 
Q 41.015625 38.96875 39.578125 41.59375 
Q 38.140625 44.234375 35.734375 45.59375 
Q 33.34375 46.96875 29.734375 46.96875 
Q 26.8125 46.96875 24.21875 46.140625 
Q 21.625 45.3125 19.703125 42.96875 
Q 17.78125 40.625 16.65625 36.5 
Q 15.53125 32.375 15.53125 25.78125 
Q 15.53125 20.171875 16.453125 16.28125 
Q 17.390625 12.40625 19.171875 10.015625 
Q 20.953125 7.625 23.578125 6.5625 
Q 26.21875 5.515625 29.640625 5.515625 
Q 33.296875 5.515625 35.71875 6.921875 
Q 38.140625 8.34375 39.578125 11.03125 
Q 41.015625 13.71875 41.59375 17.59375 
Q 42.1875 21.484375 42.1875 26.46875 
" id="LiberationSans-70"/>
     <path d="M 20.21875 -0.984375 
Q 12.25 -0.984375 8.25 3.21875 
Q 4.25 7.421875 4.25 14.75 
Q 4.25 19.96875 6.21875 23.3125 
Q 8.203125 26.65625 11.390625 28.5625 
Q 14.59375 30.46875 18.6875 31.203125 
Q 22.796875 31.9375 27.046875 32.03125 
L 38.921875 32.234375 
L 38.921875 35.109375 
Q 38.921875 38.375 38.234375 40.671875 
Q 37.546875 42.96875 36.125 44.375 
Q 34.71875 45.796875 32.59375 46.453125 
Q 30.46875 47.125 27.59375 47.125 
Q 25.046875 47.125 23 46.75 
Q 20.953125 46.390625 19.4375 45.4375 
Q 17.921875 44.484375 16.984375 42.84375 
Q 16.0625 41.21875 15.765625 38.71875 
L 6.59375 39.546875 
Q 7.078125 42.671875 8.4375 45.28125 
Q 9.8125 47.90625 12.328125 49.796875 
Q 14.84375 51.703125 18.625 52.75 
Q 22.40625 53.8125 27.78125 53.8125 
Q 37.75 53.8125 42.765625 49.234375 
Q 47.796875 44.671875 47.796875 36.03125 
L 47.796875 13.28125 
Q 47.796875 9.375 48.828125 7.390625 
Q 49.859375 5.421875 52.734375 5.421875 
Q 53.46875 5.421875 54.203125 5.515625 
Q 54.9375 5.609375 55.609375 5.765625 
L 55.609375 0.296875 
Q 53.953125 -0.09375 52.3125 -0.28125 
Q 50.6875 -0.484375 48.828125 -0.484375 
Q 46.34375 -0.484375 44.5625 0.171875 
Q 42.78125 0.828125 41.65625 2.171875 
Q 40.53125 3.515625 39.9375 5.484375 
Q 39.359375 7.46875 39.203125 10.109375 
L 38.921875 10.109375 
Q 37.5 7.5625 35.8125 5.515625 
Q 34.125 3.46875 31.875 2.03125 
Q 29.640625 0.59375 26.78125 -0.1875 
Q 23.921875 -0.984375 20.21875 -0.984375 
M 22.21875 5.609375 
Q 26.421875 5.609375 29.5625 7.140625 
Q 32.71875 8.6875 34.78125 11.078125 
Q 36.859375 13.484375 37.890625 16.3125 
Q 38.921875 19.140625 38.921875 21.734375 
L 38.921875 26.078125 
L 29.296875 25.875 
Q 26.078125 25.828125 23.171875 25.40625 
Q 20.265625 25 18.0625 23.78125 
Q 15.875 22.5625 14.578125 20.359375 
Q 13.28125 18.171875 13.28125 14.59375 
Q 13.28125 10.296875 15.59375 7.953125 
Q 17.921875 5.609375 22.21875 5.609375 
" id="LiberationSans-61"/>
     <path d="M 51.421875 26.46875 
Q 51.421875 12.59375 45.3125 5.796875 
Q 39.203125 -0.984375 27.59375 -0.984375 
Q 22.078125 -0.984375 17.71875 0.671875 
Q 13.375 2.34375 10.375 5.765625 
Q 7.375 9.1875 5.78125 14.328125 
Q 4.203125 19.484375 4.203125 26.46875 
Q 4.203125 53.8125 27.875 53.8125 
Q 34.03125 53.8125 38.5 52.09375 
Q 42.96875 50.390625 45.828125 46.96875 
Q 48.6875 43.5625 50.046875 38.421875 
Q 51.421875 33.296875 51.421875 26.46875 
M 42.1875 26.46875 
Q 42.1875 32.625 41.234375 36.625 
Q 40.28125 40.625 38.453125 43.015625 
Q 36.625 45.40625 33.984375 46.359375 
Q 31.34375 47.3125 28.03125 47.3125 
Q 24.65625 47.3125 21.9375 46.3125 
Q 19.234375 45.3125 17.328125 42.890625 
Q 15.4375 40.484375 14.421875 36.46875 
Q 13.421875 32.46875 13.421875 26.46875 
Q 13.421875 20.3125 14.5 16.28125 
Q 15.578125 12.25 17.453125 9.859375 
Q 19.34375 7.46875 21.90625 6.484375 
Q 24.46875 5.515625 27.484375 5.515625 
Q 30.859375 5.515625 33.59375 6.46875 
Q 36.328125 7.421875 38.234375 9.8125 
Q 40.140625 12.203125 41.15625 16.25 
Q 42.1875 20.3125 42.1875 26.46875 
" id="LiberationSans-6f"/>
     <path d="M 6.734375 0 
L 6.734375 72.46875 
L 15.53125 72.46875 
L 15.53125 0 
z
" id="LiberationSans-6c"/>
     <path d="M 38.671875 62.203125 
Q 32.8125 62.203125 28.296875 60.25 
Q 23.78125 58.296875 20.71875 54.6875 
Q 17.671875 51.078125 16.109375 46 
Q 14.546875 40.921875 14.546875 34.71875 
Q 14.546875 28.515625 16.234375 23.359375 
Q 17.921875 18.21875 21.0625 14.5 
Q 24.21875 10.796875 28.78125 8.734375 
Q 33.34375 6.6875 39.0625 6.6875 
Q 43.0625 6.6875 46.359375 7.734375 
Q 49.65625 8.796875 52.3125 10.6875 
Q 54.984375 12.59375 57.078125 15.203125 
Q 59.1875 17.828125 60.796875 21 
L 68.40625 17.1875 
Q 66.546875 13.328125 63.8125 10 
Q 61.078125 6.6875 57.390625 4.25 
Q 53.71875 1.8125 49.046875 0.40625 
Q 44.390625 -0.984375 38.625 -0.984375 
Q 30.28125 -0.984375 24 1.671875 
Q 17.71875 4.34375 13.5 9.109375 
Q 9.28125 13.875 7.171875 20.40625 
Q 5.078125 26.953125 5.078125 34.71875 
Q 5.078125 42.78125 7.296875 49.265625 
Q 9.515625 55.765625 13.78125 60.328125 
Q 18.0625 64.890625 24.3125 67.359375 
Q 30.5625 69.828125 38.578125 69.828125 
Q 49.5625 69.828125 56.9375 65.53125 
Q 64.3125 61.234375 67.78125 52.78125 
L 58.9375 49.859375 
Q 57.953125 52.296875 56.296875 54.515625 
Q 54.640625 56.734375 52.140625 58.4375 
Q 49.65625 60.15625 46.3125 61.171875 
Q 42.96875 62.203125 38.671875 62.203125 
" id="LiberationSans-43"/>
    </defs>
    <g style="fill:#262626;" transform="translate(192.615075 27.49125)scale(0.28 -0.28)">
     <use xlink:href="#LiberationSans-41"/>
     <use x="66.69921875" xlink:href="#LiberationSans-63"/>
     <use x="116.69921875" xlink:href="#LiberationSans-63"/>
     <use x="166.69921875" xlink:href="#LiberationSans-69"/>
     <use x="188.916015625" xlink:href="#LiberationSans-64"/>
     <use x="244.53125" xlink:href="#LiberationSans-65"/>
     <use x="300.146484375" xlink:href="#LiberationSans-6e"/>
     <use x="355.76171875" xlink:href="#LiberationSans-74"/>
     <use x="383.544921875" xlink:href="#LiberationSans-73"/>
     <use x="433.544921875" xlink:href="#LiberationSans-20"/>
     <use x="461.328125" xlink:href="#LiberationSans-70"/>
     <use x="516.943359375" xlink:href="#LiberationSans-65"/>
     <use x="572.55859375" xlink:href="#LiberationSans-72"/>
     <use x="605.859375" xlink:href="#LiberationSans-20"/>
     <use x="633.642578125" xlink:href="#LiberationSans-57"/>
     <use x="728.01171875" xlink:href="#LiberationSans-65"/>
     <use x="783.626953125" xlink:href="#LiberationSans-65"/>
     <use x="839.2421875" xlink:href="#LiberationSans-6b"/>
     <use x="889.2421875" xlink:href="#LiberationSans-20"/>
     <use x="917.025390625" xlink:href="#LiberationSans-69"/>
     <use x="939.2421875" xlink:href="#LiberationSans-6e"/>
     <use x="994.857421875" xlink:href="#LiberationSans-20"/>
     <use x="1022.640625" xlink:href="#LiberationSans-43"/>
     <use x="1094.85742188" xlink:href="#LiberationSans-61"/>
     <use x="1150.47265625" xlink:href="#LiberationSans-6c"/>
     <use x="1172.68945312" xlink:href="#LiberationSans-69"/>
     <use x="1194.90625" xlink:href="#LiberationSans-66"/>
     <use x="1222.68945312" xlink:href="#LiberationSans-6f"/>
     <use x="1278.3046875" xlink:href="#LiberationSans-72"/>
     <use x="1311.60546875" xlink:href="#LiberationSans-6e"/>
     <use x="1367.22070312" xlink:href="#LiberationSans-69"/>
     <use x="1389.4375" xlink:href="#LiberationSans-61"/>
    </g>
   </g>
  </g>
 </g>
 <defs>
  <clipPath id="p21e109224a">
   <rect height="334.8" width="669.6" x="60.1128875" y="42.53525"/>
  </clipPath>
 </defs>
</svg>
