<?xml version="1.0" encoding="utf-8" standalone="no"?>
<!DOCTYPE svg PUBLIC "-//W3C//DTD SVG 1.1//EN"
  "http://www.w3.org/Graphics/SVG/1.1/DTD/svg11.dtd">
<!-- Created with matplotlib (http://matplotlib.org/) -->
<svg height="398pt" version="1.1" viewBox="0 0 731 398" width="731pt" xmlns="http://www.w3.org/2000/svg" xmlns:xlink="http://www.w3.org/1999/xlink">
 <defs>
  <style type="text/css">
*{stroke-linecap:butt;stroke-linejoin:round;stroke-miterlimit:100000;}
  </style>
 </defs>
 <g id="figure_1">
  <g id="patch_1">
   <path d="M 0 398.821031 
L 731.04685 398.821031 
L 731.04685 0 
L 0 0 
z
" style="fill:#ffffff;"/>
  </g>
  <g id="axes_1">
   <g id="patch_2">
    <path d="M 54.24685 377.427125 
L 723.84685 377.427125 
L 723.84685 42.627125 
L 54.24685 42.627125 
z
" style="fill:#ffffff;"/>
   </g>
   <g id="matplotlib.axis_1">
    <g id="xtick_1">
     <g id="line2d_1">
      <path clip-path="url(#pf4d2a2690c)" d="M 57.876118 377.427125 
L 57.876118 42.627125 
" style="fill:none;stroke:#cccccc;stroke-linecap:round;stroke-width:0.5;"/>
     </g>
     <g id="line2d_2"/>
     <g id="line2d_3"/>
    </g>
    <g id="xtick_2">
     <g id="line2d_4">
      <path clip-path="url(#pf4d2a2690c)" d="M 114.129777 377.427125 
L 114.129777 42.627125 
" style="fill:none;stroke:#cccccc;stroke-linecap:round;stroke-width:0.5;"/>
     </g>
     <g id="line2d_5"/>
     <g id="line2d_6"/>
    </g>
    <g id="xtick_3">
     <g id="line2d_7">
      <path clip-path="url(#pf4d2a2690c)" d="M 166.754167 377.427125 
L 166.754167 42.627125 
" style="fill:none;stroke:#cccccc;stroke-linecap:round;stroke-width:0.5;"/>
     </g>
     <g id="line2d_8"/>
     <g id="line2d_9"/>
    </g>
    <g id="xtick_4">
     <g id="line2d_10">
      <path clip-path="url(#pf4d2a2690c)" d="M 223.007826 377.427125 
L 223.007826 42.627125 
" style="fill:none;stroke:#cccccc;stroke-linecap:round;stroke-width:0.5;"/>
     </g>
     <g id="line2d_11"/>
     <g id="line2d_12"/>
    </g>
    <g id="xtick_5">
     <g id="line2d_13">
      <path clip-path="url(#pf4d2a2690c)" d="M 277.44685 377.427125 
L 277.44685 42.627125 
" style="fill:none;stroke:#cccccc;stroke-linecap:round;stroke-width:0.5;"/>
     </g>
     <g id="line2d_14"/>
     <g id="line2d_15"/>
    </g>
    <g id="xtick_6">
     <g id="line2d_16">
      <path clip-path="url(#pf4d2a2690c)" d="M 333.700509 377.427125 
L 333.700509 42.627125 
" style="fill:none;stroke:#cccccc;stroke-linecap:round;stroke-width:0.5;"/>
     </g>
     <g id="line2d_17"/>
     <g id="line2d_18"/>
    </g>
    <g id="xtick_7">
     <g id="line2d_19">
      <path clip-path="url(#pf4d2a2690c)" d="M 388.139533 377.427125 
L 388.139533 42.627125 
" style="fill:none;stroke:#cccccc;stroke-linecap:round;stroke-width:0.5;"/>
     </g>
     <g id="line2d_20"/>
     <g id="line2d_21"/>
    </g>
    <g id="xtick_8">
     <g id="line2d_22">
      <path clip-path="url(#pf4d2a2690c)" d="M 444.393191 377.427125 
L 444.393191 42.627125 
" style="fill:none;stroke:#cccccc;stroke-linecap:round;stroke-width:0.5;"/>
     </g>
     <g id="line2d_23"/>
     <g id="line2d_24"/>
    </g>
    <g id="xtick_9">
     <g id="line2d_25">
      <path clip-path="url(#pf4d2a2690c)" d="M 500.64685 377.427125 
L 500.64685 42.627125 
" style="fill:none;stroke:#cccccc;stroke-linecap:round;stroke-width:0.5;"/>
     </g>
     <g id="line2d_26"/>
     <g id="line2d_27"/>
    </g>
    <g id="xtick_10">
     <g id="line2d_28">
      <path clip-path="url(#pf4d2a2690c)" d="M 555.085874 377.427125 
L 555.085874 42.627125 
" style="fill:none;stroke:#cccccc;stroke-linecap:round;stroke-width:0.5;"/>
     </g>
     <g id="line2d_29"/>
     <g id="line2d_30"/>
    </g>
    <g id="xtick_11">
     <g id="line2d_31">
      <path clip-path="url(#pf4d2a2690c)" d="M 611.339533 377.427125 
L 611.339533 42.627125 
" style="fill:none;stroke:#cccccc;stroke-linecap:round;stroke-width:0.5;"/>
     </g>
     <g id="line2d_32"/>
     <g id="line2d_33"/>
    </g>
    <g id="xtick_12">
     <g id="line2d_34">
      <path clip-path="url(#pf4d2a2690c)" d="M 665.778557 377.427125 
L 665.778557 42.627125 
" style="fill:none;stroke:#cccccc;stroke-linecap:round;stroke-width:0.5;"/>
     </g>
     <g id="line2d_35"/>
     <g id="line2d_36"/>
    </g>
    <g id="xtick_13">
     <g id="line2d_37"/>
     <g id="line2d_38"/>
     <g id="text_1">
      <!-- January -->
      <defs>
       <path d="M 40.4375 6.390625 
Q 35.546875 2.25 31.03125 0.53125 
Q 26.515625 -1.171875 21.34375 -1.171875 
Q 12.796875 -1.171875 8.203125 3 
Q 3.609375 7.171875 3.609375 13.671875 
Q 3.609375 17.484375 5.34375 20.625 
Q 7.078125 23.78125 9.890625 25.6875 
Q 12.703125 27.59375 16.21875 28.5625 
Q 18.796875 29.25 24.03125 29.890625 
Q 34.671875 31.15625 39.703125 32.90625 
Q 39.75 34.71875 39.75 35.203125 
Q 39.75 40.578125 37.25 42.78125 
Q 33.890625 45.75 27.25 45.75 
Q 21.046875 45.75 18.09375 43.578125 
Q 15.140625 41.40625 13.71875 35.890625 
L 5.125 37.0625 
Q 6.296875 42.578125 8.984375 45.96875 
Q 11.671875 49.359375 16.75 51.1875 
Q 21.828125 53.03125 28.515625 53.03125 
Q 35.15625 53.03125 39.296875 51.46875 
Q 43.453125 49.90625 45.40625 47.53125 
Q 47.359375 45.171875 48.140625 41.546875 
Q 48.578125 39.3125 48.578125 33.453125 
L 48.578125 21.734375 
Q 48.578125 9.46875 49.140625 6.21875 
Q 49.703125 2.984375 51.375 0 
L 42.1875 0 
Q 40.828125 2.734375 40.4375 6.390625 
M 39.703125 26.03125 
Q 34.90625 24.078125 25.34375 22.703125 
Q 19.921875 21.921875 17.671875 20.9375 
Q 15.4375 19.96875 14.203125 18.09375 
Q 12.984375 16.21875 12.984375 13.921875 
Q 12.984375 10.40625 15.640625 8.0625 
Q 18.3125 5.71875 23.4375 5.71875 
Q 28.515625 5.71875 32.46875 7.9375 
Q 36.421875 10.15625 38.28125 14.015625 
Q 39.703125 17 39.703125 22.796875 
z
" id="ArialMT-61"/>
       <path d="M 6.203125 -19.96875 
L 5.21875 -11.71875 
Q 8.109375 -12.5 10.25 -12.5 
Q 13.1875 -12.5 14.9375 -11.515625 
Q 16.703125 -10.546875 17.828125 -8.796875 
Q 18.65625 -7.46875 20.515625 -2.25 
Q 20.75 -1.515625 21.296875 -0.09375 
L 1.609375 51.859375 
L 11.078125 51.859375 
L 21.875 21.828125 
Q 23.96875 16.109375 25.640625 9.8125 
Q 27.15625 15.875 29.25 21.625 
L 40.328125 51.859375 
L 49.125 51.859375 
L 29.390625 -0.875 
Q 26.21875 -9.421875 24.46875 -12.640625 
Q 22.125 -17 19.09375 -19.015625 
Q 16.0625 -21.046875 11.859375 -21.046875 
Q 9.328125 -21.046875 6.203125 -19.96875 
" id="ArialMT-79"/>
       <path d="M 40.578125 0 
L 40.578125 7.625 
Q 34.515625 -1.171875 24.125 -1.171875 
Q 19.53125 -1.171875 15.546875 0.578125 
Q 11.578125 2.34375 9.640625 5 
Q 7.71875 7.671875 6.9375 11.53125 
Q 6.390625 14.109375 6.390625 19.734375 
L 6.390625 51.859375 
L 15.1875 51.859375 
L 15.1875 23.09375 
Q 15.1875 16.21875 15.71875 13.8125 
Q 16.546875 10.359375 19.234375 8.375 
Q 21.921875 6.390625 25.875 6.390625 
Q 29.828125 6.390625 33.296875 8.421875 
Q 36.765625 10.453125 38.203125 13.9375 
Q 39.65625 17.4375 39.65625 24.078125 
L 39.65625 51.859375 
L 48.4375 51.859375 
L 48.4375 0 
z
" id="ArialMT-75"/>
       <path d="M 6.5 0 
L 6.5 51.859375 
L 14.40625 51.859375 
L 14.40625 44 
Q 17.4375 49.515625 20 51.265625 
Q 22.5625 53.03125 25.640625 53.03125 
Q 30.078125 53.03125 34.671875 50.203125 
L 31.640625 42.046875 
Q 28.421875 43.953125 25.203125 43.953125 
Q 22.3125 43.953125 20.015625 42.21875 
Q 17.71875 40.484375 16.75 37.40625 
Q 15.28125 32.71875 15.28125 27.15625 
L 15.28125 0 
z
" id="ArialMT-72"/>
       <path d="M 6.59375 0 
L 6.59375 51.859375 
L 14.5 51.859375 
L 14.5 44.484375 
Q 20.21875 53.03125 31 53.03125 
Q 35.6875 53.03125 39.625 51.34375 
Q 43.5625 49.65625 45.515625 46.921875 
Q 47.46875 44.1875 48.25 40.4375 
Q 48.734375 37.984375 48.734375 31.890625 
L 48.734375 0 
L 39.9375 0 
L 39.9375 31.546875 
Q 39.9375 36.921875 38.90625 39.578125 
Q 37.890625 42.234375 35.28125 43.8125 
Q 32.671875 45.40625 29.15625 45.40625 
Q 23.53125 45.40625 19.453125 41.84375 
Q 15.375 38.28125 15.375 28.328125 
L 15.375 0 
z
" id="ArialMT-6e"/>
       <path d="M 2.875 20.3125 
L 11.421875 21.484375 
Q 11.765625 13.28125 14.5 10.25 
Q 17.234375 7.234375 22.078125 7.234375 
Q 25.640625 7.234375 28.21875 8.859375 
Q 30.8125 10.5 31.78125 13.296875 
Q 32.765625 16.109375 32.765625 22.265625 
L 32.765625 71.578125 
L 42.234375 71.578125 
L 42.234375 22.796875 
Q 42.234375 13.8125 40.0625 8.875 
Q 37.890625 3.953125 33.171875 1.359375 
Q 28.46875 -1.21875 22.125 -1.21875 
Q 12.703125 -1.21875 7.6875 4.203125 
Q 2.6875 9.625 2.875 20.3125 
" id="ArialMT-4a"/>
      </defs>
      <g style="fill:#262626;" transform="translate(66.437556936 389.30071875)scale(0.11 -0.11)">
       <use xlink:href="#ArialMT-4a"/>
       <use x="50.0" xlink:href="#ArialMT-61"/>
       <use x="105.615234375" xlink:href="#ArialMT-6e"/>
       <use x="161.23046875" xlink:href="#ArialMT-75"/>
       <use x="216.845703125" xlink:href="#ArialMT-61"/>
       <use x="272.4609375" xlink:href="#ArialMT-72"/>
       <use x="305.76171875" xlink:href="#ArialMT-79"/>
      </g>
     </g>
    </g>
    <g id="xtick_14">
     <g id="line2d_39"/>
     <g id="line2d_40"/>
     <g id="text_2">
      <!-- February -->
      <defs>
       <path d="M 14.703125 0 
L 6.546875 0 
L 6.546875 71.578125 
L 15.328125 71.578125 
L 15.328125 46.046875 
Q 20.90625 53.03125 29.546875 53.03125 
Q 34.328125 53.03125 38.59375 51.09375 
Q 42.875 49.171875 45.625 45.671875 
Q 48.390625 42.1875 49.953125 37.25 
Q 51.515625 32.328125 51.515625 26.703125 
Q 51.515625 13.375 44.921875 6.09375 
Q 38.328125 -1.171875 29.109375 -1.171875 
Q 19.921875 -1.171875 14.703125 6.5 
z
M 14.59375 26.3125 
Q 14.59375 17 17.140625 12.84375 
Q 21.296875 6.0625 28.375 6.0625 
Q 34.125 6.0625 38.328125 11.0625 
Q 42.53125 16.0625 42.53125 25.984375 
Q 42.53125 36.140625 38.5 40.96875 
Q 34.46875 45.796875 28.765625 45.796875 
Q 23 45.796875 18.796875 40.796875 
Q 14.59375 35.796875 14.59375 26.3125 
" id="ArialMT-62"/>
       <path d="M 42.09375 16.703125 
L 51.171875 15.578125 
Q 49.03125 7.625 43.21875 3.21875 
Q 37.40625 -1.171875 28.375 -1.171875 
Q 17 -1.171875 10.328125 5.828125 
Q 3.65625 12.84375 3.65625 25.484375 
Q 3.65625 38.578125 10.390625 45.796875 
Q 17.140625 53.03125 27.875 53.03125 
Q 38.28125 53.03125 44.875 45.953125 
Q 51.46875 38.875 51.46875 26.03125 
Q 51.46875 25.25 51.421875 23.6875 
L 12.75 23.6875 
Q 13.234375 15.140625 17.578125 10.59375 
Q 21.921875 6.0625 28.421875 6.0625 
Q 33.25 6.0625 36.671875 8.59375 
Q 40.09375 11.140625 42.09375 16.703125 
M 13.234375 30.90625 
L 42.1875 30.90625 
Q 41.609375 37.453125 38.875 40.71875 
Q 34.671875 45.796875 27.984375 45.796875 
Q 21.921875 45.796875 17.796875 41.75 
Q 13.671875 37.703125 13.234375 30.90625 
" id="ArialMT-65"/>
       <path d="M 8.203125 0 
L 8.203125 71.578125 
L 56.5 71.578125 
L 56.5 63.140625 
L 17.671875 63.140625 
L 17.671875 40.96875 
L 51.265625 40.96875 
L 51.265625 32.515625 
L 17.671875 32.515625 
L 17.671875 0 
z
" id="ArialMT-46"/>
      </defs>
      <g style="fill:#262626;" transform="translate(118.435956326 389.30071875)scale(0.11 -0.11)">
       <use xlink:href="#ArialMT-46"/>
       <use x="61.083984375" xlink:href="#ArialMT-65"/>
       <use x="116.69921875" xlink:href="#ArialMT-62"/>
       <use x="172.314453125" xlink:href="#ArialMT-72"/>
       <use x="205.615234375" xlink:href="#ArialMT-75"/>
       <use x="261.23046875" xlink:href="#ArialMT-61"/>
       <use x="316.845703125" xlink:href="#ArialMT-72"/>
       <use x="350.146484375" xlink:href="#ArialMT-79"/>
      </g>
     </g>
    </g>
    <g id="xtick_15">
     <g id="line2d_41"/>
     <g id="line2d_42"/>
     <g id="text_3">
      <!-- March -->
      <defs>
       <path d="M 40.4375 19 
L 49.078125 17.875 
Q 47.65625 8.9375 41.8125 3.875 
Q 35.984375 -1.171875 27.484375 -1.171875 
Q 16.84375 -1.171875 10.375 5.78125 
Q 3.90625 12.75 3.90625 25.734375 
Q 3.90625 34.125 6.6875 40.421875 
Q 9.46875 46.734375 15.15625 49.875 
Q 20.84375 53.03125 27.546875 53.03125 
Q 35.984375 53.03125 41.359375 48.75 
Q 46.734375 44.484375 48.25 36.625 
L 39.703125 35.296875 
Q 38.484375 40.53125 35.375 43.15625 
Q 32.28125 45.796875 27.875 45.796875 
Q 21.234375 45.796875 17.078125 41.03125 
Q 12.9375 36.28125 12.9375 25.984375 
Q 12.9375 15.53125 16.9375 10.796875 
Q 20.953125 6.0625 27.390625 6.0625 
Q 32.5625 6.0625 36.03125 9.234375 
Q 39.5 12.40625 40.4375 19 
" id="ArialMT-63"/>
       <path d="M 6.59375 0 
L 6.59375 71.578125 
L 15.375 71.578125 
L 15.375 45.90625 
Q 21.53125 53.03125 30.90625 53.03125 
Q 36.671875 53.03125 40.921875 50.75 
Q 45.171875 48.484375 47 44.484375 
Q 48.828125 40.484375 48.828125 32.859375 
L 48.828125 0 
L 40.046875 0 
L 40.046875 32.859375 
Q 40.046875 39.453125 37.1875 42.453125 
Q 34.328125 45.453125 29.109375 45.453125 
Q 25.203125 45.453125 21.75 43.421875 
Q 18.3125 41.40625 16.84375 37.9375 
Q 15.375 34.46875 15.375 28.375 
L 15.375 0 
z
" id="ArialMT-68"/>
       <path d="M 7.421875 0 
L 7.421875 71.578125 
L 21.6875 71.578125 
L 38.625 20.90625 
Q 40.96875 13.8125 42.046875 10.296875 
Q 43.265625 14.203125 45.84375 21.78125 
L 62.984375 71.578125 
L 75.734375 71.578125 
L 75.734375 0 
L 66.609375 0 
L 66.609375 59.90625 
L 45.796875 0 
L 37.25 0 
L 16.546875 60.9375 
L 16.546875 0 
z
" id="ArialMT-4d"/>
      </defs>
      <g style="fill:#262626;" transform="translate(179.601308841 389.30071875)scale(0.11 -0.11)">
       <use xlink:href="#ArialMT-4d"/>
       <use x="83.30078125" xlink:href="#ArialMT-61"/>
       <use x="138.916015625" xlink:href="#ArialMT-72"/>
       <use x="172.216796875" xlink:href="#ArialMT-63"/>
       <use x="222.216796875" xlink:href="#ArialMT-68"/>
      </g>
     </g>
    </g>
    <g id="xtick_16">
     <g id="line2d_43"/>
     <g id="line2d_44"/>
     <g id="text_4">
      <!-- April -->
      <defs>
       <path d="M -0.140625 0 
L 27.34375 71.578125 
L 37.546875 71.578125 
L 66.84375 0 
L 56.0625 0 
L 47.703125 21.6875 
L 17.78125 21.6875 
L 9.90625 0 
z
M 20.515625 29.390625 
L 44.78125 29.390625 
L 37.3125 49.21875 
Q 33.890625 58.25 32.234375 64.0625 
Q 30.859375 57.171875 28.375 50.390625 
z
" id="ArialMT-41"/>
       <path d="M 6.390625 0 
L 6.390625 71.578125 
L 15.1875 71.578125 
L 15.1875 0 
z
" id="ArialMT-6c"/>
       <path d="M 6.640625 61.46875 
L 6.640625 71.578125 
L 15.4375 71.578125 
L 15.4375 61.46875 
z
M 6.640625 0 
L 6.640625 51.859375 
L 15.4375 51.859375 
L 15.4375 0 
z
" id="ArialMT-69"/>
       <path d="M 6.59375 -19.875 
L 6.59375 51.859375 
L 14.59375 51.859375 
L 14.59375 45.125 
Q 17.4375 49.078125 21 51.046875 
Q 24.5625 53.03125 29.640625 53.03125 
Q 36.28125 53.03125 41.359375 49.609375 
Q 46.4375 46.1875 49.015625 39.953125 
Q 51.609375 33.734375 51.609375 26.3125 
Q 51.609375 18.359375 48.75 11.984375 
Q 45.90625 5.609375 40.453125 2.21875 
Q 35.015625 -1.171875 29 -1.171875 
Q 24.609375 -1.171875 21.109375 0.6875 
Q 17.625 2.546875 15.375 5.375 
L 15.375 -19.875 
z
M 14.546875 25.640625 
Q 14.546875 15.625 18.59375 10.84375 
Q 22.65625 6.0625 28.421875 6.0625 
Q 34.28125 6.0625 38.453125 11.015625 
Q 42.625 15.96875 42.625 26.375 
Q 42.625 36.28125 38.546875 41.203125 
Q 34.46875 46.140625 28.8125 46.140625 
Q 23.1875 46.140625 18.859375 40.890625 
Q 14.546875 35.640625 14.546875 25.640625 
" id="ArialMT-70"/>
      </defs>
      <g style="fill:#262626;" transform="translate(239.22475968 389.30071875)scale(0.11 -0.11)">
       <use xlink:href="#ArialMT-41"/>
       <use x="66.69921875" xlink:href="#ArialMT-70"/>
       <use x="122.314453125" xlink:href="#ArialMT-72"/>
       <use x="155.615234375" xlink:href="#ArialMT-69"/>
       <use x="177.83203125" xlink:href="#ArialMT-6c"/>
      </g>
     </g>
    </g>
    <g id="xtick_17">
     <g id="line2d_45"/>
     <g id="line2d_46"/>
     <g id="text_5">
      <!-- May -->
      <g style="fill:#262626;" transform="translate(295.183835518 389.30071875)scale(0.11 -0.11)">
       <use xlink:href="#ArialMT-4d"/>
       <use x="83.30078125" xlink:href="#ArialMT-61"/>
       <use x="138.916015625" xlink:href="#ArialMT-79"/>
      </g>
     </g>
    </g>
    <g id="xtick_18">
     <g id="line2d_47"/>
     <g id="line2d_48"/>
     <g id="text_6">
      <!-- June -->
      <g style="fill:#262626;" transform="translate(348.994473857 389.30071875)scale(0.11 -0.11)">
       <use xlink:href="#ArialMT-4a"/>
       <use x="50.0" xlink:href="#ArialMT-75"/>
       <use x="105.615234375" xlink:href="#ArialMT-6e"/>
       <use x="161.23046875" xlink:href="#ArialMT-65"/>
      </g>
     </g>
    </g>
    <g id="xtick_19">
     <g id="line2d_49"/>
     <g id="line2d_50"/>
     <g id="text_7">
      <!-- July -->
      <g style="fill:#262626;" transform="translate(406.48581532 389.30071875)scale(0.11 -0.11)">
       <use xlink:href="#ArialMT-4a"/>
       <use x="50.0" xlink:href="#ArialMT-75"/>
       <use x="105.615234375" xlink:href="#ArialMT-6c"/>
       <use x="127.83203125" xlink:href="#ArialMT-79"/>
      </g>
     </g>
    </g>
    <g id="xtick_20">
     <g id="line2d_51"/>
     <g id="line2d_52"/>
     <g id="text_8">
      <!-- August -->
      <defs>
       <path d="M 25.78125 7.859375 
L 27.046875 0.09375 
Q 23.34375 -0.6875 20.40625 -0.6875 
Q 15.625 -0.6875 12.984375 0.828125 
Q 10.359375 2.34375 9.28125 4.8125 
Q 8.203125 7.28125 8.203125 15.1875 
L 8.203125 45.015625 
L 1.765625 45.015625 
L 1.765625 51.859375 
L 8.203125 51.859375 
L 8.203125 64.703125 
L 16.9375 69.96875 
L 16.9375 51.859375 
L 25.78125 51.859375 
L 25.78125 45.015625 
L 16.9375 45.015625 
L 16.9375 14.703125 
Q 16.9375 10.9375 17.40625 9.859375 
Q 17.875 8.796875 18.921875 8.15625 
Q 19.96875 7.515625 21.921875 7.515625 
Q 23.390625 7.515625 25.78125 7.859375 
" id="ArialMT-74"/>
       <path d="M 4.984375 -4.296875 
L 13.53125 -5.5625 
Q 14.0625 -9.515625 16.5 -11.328125 
Q 19.78125 -13.765625 25.4375 -13.765625 
Q 31.546875 -13.765625 34.859375 -11.328125 
Q 38.1875 -8.890625 39.359375 -4.5 
Q 40.046875 -1.8125 39.984375 6.78125 
Q 34.234375 0 25.640625 0 
Q 14.9375 0 9.078125 7.71875 
Q 3.21875 15.4375 3.21875 26.21875 
Q 3.21875 33.640625 5.90625 39.90625 
Q 8.59375 46.1875 13.6875 49.609375 
Q 18.796875 53.03125 25.6875 53.03125 
Q 34.859375 53.03125 40.828125 45.609375 
L 40.828125 51.859375 
L 48.921875 51.859375 
L 48.921875 7.03125 
Q 48.921875 -5.078125 46.453125 -10.125 
Q 44 -15.1875 38.640625 -18.109375 
Q 33.296875 -21.046875 25.484375 -21.046875 
Q 16.21875 -21.046875 10.5 -16.875 
Q 4.78125 -12.703125 4.984375 -4.296875 
M 12.25 26.859375 
Q 12.25 16.65625 16.296875 11.96875 
Q 20.359375 7.28125 26.46875 7.28125 
Q 32.515625 7.28125 36.609375 11.9375 
Q 40.71875 16.609375 40.71875 26.5625 
Q 40.71875 36.078125 36.5 40.90625 
Q 32.28125 45.75 26.3125 45.75 
Q 20.453125 45.75 16.34375 40.984375 
Q 12.25 36.234375 12.25 26.859375 
" id="ArialMT-67"/>
       <path d="M 3.078125 15.484375 
L 11.765625 16.84375 
Q 12.5 11.625 15.84375 8.84375 
Q 19.1875 6.0625 25.203125 6.0625 
Q 31.25 6.0625 34.171875 8.515625 
Q 37.109375 10.984375 37.109375 14.3125 
Q 37.109375 17.28125 34.515625 19 
Q 32.71875 20.171875 25.53125 21.96875 
Q 15.875 24.421875 12.140625 26.203125 
Q 8.40625 27.984375 6.46875 31.125 
Q 4.546875 34.28125 4.546875 38.09375 
Q 4.546875 41.546875 6.125 44.5 
Q 7.71875 47.46875 10.453125 49.421875 
Q 12.5 50.921875 16.03125 51.96875 
Q 19.578125 53.03125 23.640625 53.03125 
Q 29.734375 53.03125 34.34375 51.265625 
Q 38.96875 49.515625 41.15625 46.5 
Q 43.359375 43.5 44.1875 38.484375 
L 35.59375 37.3125 
Q 35.015625 41.3125 32.203125 43.546875 
Q 29.390625 45.796875 24.265625 45.796875 
Q 18.21875 45.796875 15.625 43.796875 
Q 13.03125 41.796875 13.03125 39.109375 
Q 13.03125 37.40625 14.109375 36.03125 
Q 15.1875 34.625 17.484375 33.6875 
Q 18.796875 33.203125 25.25 31.453125 
Q 34.578125 28.953125 38.25 27.359375 
Q 41.9375 25.78125 44.03125 22.75 
Q 46.140625 19.734375 46.140625 15.234375 
Q 46.140625 10.84375 43.578125 6.953125 
Q 41.015625 3.078125 36.171875 0.953125 
Q 31.34375 -1.171875 25.25 -1.171875 
Q 15.140625 -1.171875 9.84375 3.03125 
Q 4.546875 7.234375 3.078125 15.484375 
" id="ArialMT-73"/>
      </defs>
      <g style="fill:#262626;" transform="translate(455.397833232 389.30071875)scale(0.11 -0.11)">
       <use xlink:href="#ArialMT-41"/>
       <use x="66.69921875" xlink:href="#ArialMT-75"/>
       <use x="122.314453125" xlink:href="#ArialMT-67"/>
       <use x="177.9296875" xlink:href="#ArialMT-75"/>
       <use x="233.544921875" xlink:href="#ArialMT-73"/>
       <use x="283.544921875" xlink:href="#ArialMT-74"/>
      </g>
     </g>
    </g>
    <g id="xtick_21">
     <g id="line2d_53"/>
     <g id="line2d_54"/>
     <g id="text_9">
      <!-- September -->
      <defs>
       <path d="M 4.5 23 
L 13.421875 23.78125 
Q 14.0625 18.40625 16.375 14.96875 
Q 18.703125 11.53125 23.578125 9.40625 
Q 28.46875 7.28125 34.578125 7.28125 
Q 39.984375 7.28125 44.140625 8.890625 
Q 48.296875 10.5 50.3125 13.296875 
Q 52.34375 16.109375 52.34375 19.4375 
Q 52.34375 22.796875 50.390625 25.3125 
Q 48.4375 27.828125 43.953125 29.546875 
Q 41.0625 30.671875 31.203125 33.03125 
Q 21.34375 35.40625 17.390625 37.5 
Q 12.25 40.1875 9.734375 44.15625 
Q 7.234375 48.140625 7.234375 53.078125 
Q 7.234375 58.5 10.296875 63.203125 
Q 13.375 67.921875 19.28125 70.359375 
Q 25.203125 72.796875 32.421875 72.796875 
Q 40.375 72.796875 46.453125 70.234375 
Q 52.546875 67.671875 55.8125 62.6875 
Q 59.078125 57.71875 59.328125 51.421875 
L 50.25 50.734375 
Q 49.515625 57.515625 45.28125 60.984375 
Q 41.0625 64.453125 32.8125 64.453125 
Q 24.21875 64.453125 20.28125 61.296875 
Q 16.359375 58.15625 16.359375 53.71875 
Q 16.359375 49.859375 19.140625 47.359375 
Q 21.875 44.875 33.421875 42.265625 
Q 44.96875 39.65625 49.265625 37.703125 
Q 55.515625 34.8125 58.484375 30.390625 
Q 61.46875 25.984375 61.46875 20.21875 
Q 61.46875 14.5 58.203125 9.4375 
Q 54.9375 4.390625 48.796875 1.578125 
Q 42.671875 -1.21875 35.015625 -1.21875 
Q 25.296875 -1.21875 18.71875 1.609375 
Q 12.15625 4.4375 8.421875 10.125 
Q 4.6875 15.828125 4.5 23 
" id="ArialMT-53"/>
       <path d="M 6.59375 0 
L 6.59375 51.859375 
L 14.453125 51.859375 
L 14.453125 44.578125 
Q 16.890625 48.390625 20.9375 50.703125 
Q 25 53.03125 30.171875 53.03125 
Q 35.9375 53.03125 39.625 50.640625 
Q 43.3125 48.25 44.828125 43.953125 
Q 50.984375 53.03125 60.84375 53.03125 
Q 68.5625 53.03125 72.703125 48.75 
Q 76.859375 44.484375 76.859375 35.59375 
L 76.859375 0 
L 68.109375 0 
L 68.109375 32.671875 
Q 68.109375 37.9375 67.25 40.25 
Q 66.40625 42.578125 64.15625 43.984375 
Q 61.921875 45.40625 58.890625 45.40625 
Q 53.421875 45.40625 49.796875 41.765625 
Q 46.1875 38.140625 46.1875 30.125 
L 46.1875 0 
L 37.40625 0 
L 37.40625 33.6875 
Q 37.40625 39.546875 35.25 42.46875 
Q 33.109375 45.40625 28.21875 45.40625 
Q 24.515625 45.40625 21.359375 43.453125 
Q 18.21875 41.5 16.796875 37.734375 
Q 15.375 33.984375 15.375 26.90625 
L 15.375 0 
z
" id="ArialMT-6d"/>
      </defs>
      <g style="fill:#262626;" transform="translate(500.964487195 389.43478125)scale(0.11 -0.11)">
       <use xlink:href="#ArialMT-53"/>
       <use x="66.69921875" xlink:href="#ArialMT-65"/>
       <use x="122.314453125" xlink:href="#ArialMT-70"/>
       <use x="177.9296875" xlink:href="#ArialMT-74"/>
       <use x="205.712890625" xlink:href="#ArialMT-65"/>
       <use x="261.328125" xlink:href="#ArialMT-6d"/>
       <use x="344.62890625" xlink:href="#ArialMT-62"/>
       <use x="400.244140625" xlink:href="#ArialMT-65"/>
       <use x="455.859375" xlink:href="#ArialMT-72"/>
      </g>
     </g>
    </g>
    <g id="xtick_22">
     <g id="line2d_55"/>
     <g id="line2d_56"/>
     <g id="text_10">
      <!-- October -->
      <defs>
       <path d="M 3.328125 25.921875 
Q 3.328125 40.328125 11.328125 47.265625 
Q 18.015625 53.03125 27.640625 53.03125 
Q 38.328125 53.03125 45.109375 46.015625 
Q 51.90625 39.015625 51.90625 26.65625 
Q 51.90625 16.65625 48.90625 10.90625 
Q 45.90625 5.171875 40.15625 2 
Q 34.421875 -1.171875 27.640625 -1.171875 
Q 16.75 -1.171875 10.03125 5.8125 
Q 3.328125 12.796875 3.328125 25.921875 
M 12.359375 25.921875 
Q 12.359375 15.96875 16.703125 11.015625 
Q 21.046875 6.0625 27.640625 6.0625 
Q 34.1875 6.0625 38.53125 11.03125 
Q 42.875 16.015625 42.875 26.21875 
Q 42.875 35.84375 38.5 40.796875 
Q 34.125 45.75 27.640625 45.75 
Q 21.046875 45.75 16.703125 40.8125 
Q 12.359375 35.890625 12.359375 25.921875 
" id="ArialMT-6f"/>
       <path d="M 4.828125 34.859375 
Q 4.828125 52.6875 14.390625 62.765625 
Q 23.96875 72.859375 39.109375 72.859375 
Q 49.03125 72.859375 56.984375 68.109375 
Q 64.9375 63.375 69.109375 54.90625 
Q 73.296875 46.4375 73.296875 35.6875 
Q 73.296875 24.8125 68.890625 16.21875 
Q 64.5 7.625 56.4375 3.203125 
Q 48.390625 -1.21875 39.0625 -1.21875 
Q 28.953125 -1.21875 20.984375 3.65625 
Q 13.03125 8.546875 8.921875 16.984375 
Q 4.828125 25.4375 4.828125 34.859375 
M 14.59375 34.71875 
Q 14.59375 21.78125 21.546875 14.328125 
Q 28.515625 6.890625 39.015625 6.890625 
Q 49.703125 6.890625 56.609375 14.40625 
Q 63.53125 21.921875 63.53125 35.75 
Q 63.53125 44.484375 60.578125 51 
Q 57.625 57.515625 51.921875 61.109375 
Q 46.234375 64.703125 39.15625 64.703125 
Q 29.109375 64.703125 21.84375 57.78125 
Q 14.59375 50.875 14.59375 34.71875 
" id="ArialMT-4f"/>
      </defs>
      <g style="fill:#262626;" transform="translate(563.649891159 389.30071875)scale(0.11 -0.11)">
       <use xlink:href="#ArialMT-4f"/>
       <use x="77.783203125" xlink:href="#ArialMT-63"/>
       <use x="127.783203125" xlink:href="#ArialMT-74"/>
       <use x="155.56640625" xlink:href="#ArialMT-6f"/>
       <use x="211.181640625" xlink:href="#ArialMT-62"/>
       <use x="266.796875" xlink:href="#ArialMT-65"/>
       <use x="322.412109375" xlink:href="#ArialMT-72"/>
      </g>
     </g>
    </g>
    <g id="xtick_23">
     <g id="line2d_57"/>
     <g id="line2d_58"/>
     <g id="text_11">
      <!-- November -->
      <defs>
       <path d="M 21 0 
L 1.265625 51.859375 
L 10.546875 51.859375 
L 21.6875 20.796875 
Q 23.484375 15.765625 25 10.359375 
Q 26.171875 14.453125 28.265625 20.21875 
L 39.796875 51.859375 
L 48.828125 51.859375 
L 29.203125 0 
z
" id="ArialMT-76"/>
       <path d="M 7.625 0 
L 7.625 71.578125 
L 17.328125 71.578125 
L 54.9375 15.375 
L 54.9375 71.578125 
L 64.015625 71.578125 
L 64.015625 0 
L 54.296875 0 
L 16.703125 56.25 
L 16.703125 0 
z
" id="ArialMT-4e"/>
      </defs>
      <g style="fill:#262626;" transform="translate(613.190295122 389.30071875)scale(0.11 -0.11)">
       <use xlink:href="#ArialMT-4e"/>
       <use x="72.216796875" xlink:href="#ArialMT-6f"/>
       <use x="127.83203125" xlink:href="#ArialMT-76"/>
       <use x="177.83203125" xlink:href="#ArialMT-65"/>
       <use x="233.447265625" xlink:href="#ArialMT-6d"/>
       <use x="316.748046875" xlink:href="#ArialMT-62"/>
       <use x="372.36328125" xlink:href="#ArialMT-65"/>
       <use x="427.978515625" xlink:href="#ArialMT-72"/>
      </g>
     </g>
    </g>
    <g id="xtick_24">
     <g id="line2d_59"/>
     <g id="line2d_60"/>
     <g id="text_12">
      <!-- December -->
      <defs>
       <path d="M 7.71875 0 
L 7.71875 71.578125 
L 32.375 71.578125 
Q 40.71875 71.578125 45.125 70.5625 
Q 51.265625 69.140625 55.609375 65.4375 
Q 61.28125 60.640625 64.078125 53.1875 
Q 66.890625 45.75 66.890625 36.1875 
Q 66.890625 28.03125 64.984375 21.734375 
Q 63.09375 15.4375 60.109375 11.296875 
Q 57.125 7.171875 53.578125 4.796875 
Q 50.046875 2.4375 45.046875 1.21875 
Q 40.046875 0 33.546875 0 
z
M 17.1875 8.453125 
L 32.46875 8.453125 
Q 39.546875 8.453125 43.578125 9.765625 
Q 47.609375 11.078125 50 13.484375 
Q 53.375 16.84375 55.25 22.53125 
Q 57.125 28.21875 57.125 36.328125 
Q 57.125 47.5625 53.4375 53.59375 
Q 49.75 59.625 44.484375 61.671875 
Q 40.671875 63.140625 32.234375 63.140625 
L 17.1875 63.140625 
z
" id="ArialMT-44"/>
      </defs>
      <g style="fill:#262626;" transform="translate(667.629319512 389.30071875)scale(0.11 -0.11)">
       <use xlink:href="#ArialMT-44"/>
       <use x="72.216796875" xlink:href="#ArialMT-65"/>
       <use x="127.83203125" xlink:href="#ArialMT-63"/>
       <use x="177.83203125" xlink:href="#ArialMT-65"/>
       <use x="233.447265625" xlink:href="#ArialMT-6d"/>
       <use x="316.748046875" xlink:href="#ArialMT-62"/>
       <use x="372.36328125" xlink:href="#ArialMT-65"/>
       <use x="427.978515625" xlink:href="#ArialMT-72"/>
      </g>
     </g>
    </g>
   </g>
   <g id="matplotlib.axis_2">
    <g id="ytick_1">
     <g id="line2d_61">
      <path clip-path="url(#pf4d2a2690c)" d="M 54.24685 377.427125 
L 723.84685 377.427125 
" style="fill:none;stroke:#cccccc;stroke-linecap:round;stroke-width:0.5;"/>
     </g>
     <g id="line2d_62"/>
     <g id="line2d_63"/>
     <g id="text_13">
      <!-- 700 -->
      <defs>
       <path d="M 4.15625 35.296875 
Q 4.15625 48 6.765625 55.734375 
Q 9.375 63.484375 14.515625 67.671875 
Q 19.671875 71.875 27.484375 71.875 
Q 33.25 71.875 37.59375 69.546875 
Q 41.9375 67.234375 44.765625 62.859375 
Q 47.609375 58.5 49.21875 52.21875 
Q 50.828125 45.953125 50.828125 35.296875 
Q 50.828125 22.703125 48.234375 14.96875 
Q 45.65625 7.234375 40.5 3 
Q 35.359375 -1.21875 27.484375 -1.21875 
Q 17.140625 -1.21875 11.234375 6.203125 
Q 4.15625 15.140625 4.15625 35.296875 
M 13.1875 35.296875 
Q 13.1875 17.671875 17.3125 11.828125 
Q 21.4375 6 27.484375 6 
Q 33.546875 6 37.671875 11.859375 
Q 41.796875 17.71875 41.796875 35.296875 
Q 41.796875 52.984375 37.671875 58.78125 
Q 33.546875 64.59375 27.390625 64.59375 
Q 21.34375 64.59375 17.71875 59.46875 
Q 13.1875 52.9375 13.1875 35.296875 
" id="ArialMT-30"/>
       <path d="M 4.734375 62.203125 
L 4.734375 70.65625 
L 51.078125 70.65625 
L 51.078125 63.8125 
Q 44.234375 56.546875 37.515625 44.484375 
Q 30.8125 32.421875 27.15625 19.671875 
Q 24.515625 10.6875 23.78125 0 
L 14.75 0 
Q 14.890625 8.453125 18.0625 20.40625 
Q 21.234375 32.375 27.171875 43.484375 
Q 33.109375 54.59375 39.796875 62.203125 
z
" id="ArialMT-37"/>
      </defs>
      <g style="fill:#262626;" transform="translate(33.5640375 380.01228125)scale(0.1 -0.1)">
       <use xlink:href="#ArialMT-37"/>
       <use x="55.615234375" xlink:href="#ArialMT-30"/>
       <use x="111.23046875" xlink:href="#ArialMT-30"/>
      </g>
     </g>
    </g>
    <g id="ytick_2">
     <g id="line2d_64">
      <path clip-path="url(#pf4d2a2690c)" d="M 54.24685 340.227125 
L 723.84685 340.227125 
" style="fill:none;stroke:#cccccc;stroke-linecap:round;stroke-width:0.5;"/>
     </g>
     <g id="line2d_65"/>
     <g id="line2d_66"/>
     <g id="text_14">
      <!-- 800 -->
      <defs>
       <path d="M 17.671875 38.8125 
Q 12.203125 40.828125 9.5625 44.53125 
Q 6.9375 48.25 6.9375 53.421875 
Q 6.9375 61.234375 12.546875 66.546875 
Q 18.171875 71.875 27.484375 71.875 
Q 36.859375 71.875 42.578125 66.421875 
Q 48.296875 60.984375 48.296875 53.171875 
Q 48.296875 48.1875 45.671875 44.5 
Q 43.0625 40.828125 37.75 38.8125 
Q 44.34375 36.671875 47.78125 31.875 
Q 51.21875 27.09375 51.21875 20.453125 
Q 51.21875 11.28125 44.71875 5.03125 
Q 38.234375 -1.21875 27.640625 -1.21875 
Q 17.046875 -1.21875 10.546875 5.046875 
Q 4.046875 11.328125 4.046875 20.703125 
Q 4.046875 27.6875 7.59375 32.390625 
Q 11.140625 37.109375 17.671875 38.8125 
M 15.921875 53.71875 
Q 15.921875 48.640625 19.1875 45.40625 
Q 22.46875 42.1875 27.6875 42.1875 
Q 32.765625 42.1875 36.015625 45.375 
Q 39.265625 48.578125 39.265625 53.21875 
Q 39.265625 58.0625 35.90625 61.359375 
Q 32.5625 64.65625 27.59375 64.65625 
Q 22.5625 64.65625 19.234375 61.421875 
Q 15.921875 58.203125 15.921875 53.71875 
M 13.09375 20.65625 
Q 13.09375 16.890625 14.875 13.375 
Q 16.65625 9.859375 20.171875 7.921875 
Q 23.6875 6 27.734375 6 
Q 34.03125 6 38.125 10.046875 
Q 42.234375 14.109375 42.234375 20.359375 
Q 42.234375 26.703125 38.015625 30.859375 
Q 33.796875 35.015625 27.4375 35.015625 
Q 21.234375 35.015625 17.15625 30.90625 
Q 13.09375 26.8125 13.09375 20.65625 
" id="ArialMT-38"/>
      </defs>
      <g style="fill:#262626;" transform="translate(33.5640375 342.81228125)scale(0.1 -0.1)">
       <use xlink:href="#ArialMT-38"/>
       <use x="55.615234375" xlink:href="#ArialMT-30"/>
       <use x="111.23046875" xlink:href="#ArialMT-30"/>
      </g>
     </g>
    </g>
    <g id="ytick_3">
     <g id="line2d_67">
      <path clip-path="url(#pf4d2a2690c)" d="M 54.24685 303.027125 
L 723.84685 303.027125 
" style="fill:none;stroke:#cccccc;stroke-linecap:round;stroke-width:0.5;"/>
     </g>
     <g id="line2d_68"/>
     <g id="line2d_69"/>
     <g id="text_15">
      <!-- 900 -->
      <defs>
       <path d="M 5.46875 16.546875 
L 13.921875 17.328125 
Q 14.984375 11.375 18.015625 8.6875 
Q 21.046875 6 25.78125 6 
Q 29.828125 6 32.875 7.859375 
Q 35.9375 9.71875 37.890625 12.8125 
Q 39.84375 15.921875 41.15625 21.1875 
Q 42.484375 26.46875 42.484375 31.9375 
Q 42.484375 32.515625 42.4375 33.6875 
Q 39.796875 29.5 35.234375 26.875 
Q 30.671875 24.265625 25.34375 24.265625 
Q 16.453125 24.265625 10.296875 30.703125 
Q 4.15625 37.15625 4.15625 47.703125 
Q 4.15625 58.59375 10.578125 65.234375 
Q 17 71.875 26.65625 71.875 
Q 33.640625 71.875 39.421875 68.109375 
Q 45.21875 64.359375 48.21875 57.390625 
Q 51.21875 50.4375 51.21875 37.25 
Q 51.21875 23.53125 48.234375 15.40625 
Q 45.265625 7.28125 39.375 3.03125 
Q 33.5 -1.21875 25.59375 -1.21875 
Q 17.1875 -1.21875 11.859375 3.4375 
Q 6.546875 8.109375 5.46875 16.546875 
M 41.453125 48.140625 
Q 41.453125 55.71875 37.421875 60.15625 
Q 33.40625 64.59375 27.734375 64.59375 
Q 21.875 64.59375 17.53125 59.8125 
Q 13.1875 55.03125 13.1875 47.40625 
Q 13.1875 40.578125 17.3125 36.296875 
Q 21.4375 32.03125 27.484375 32.03125 
Q 33.59375 32.03125 37.515625 36.296875 
Q 41.453125 40.578125 41.453125 48.140625 
" id="ArialMT-39"/>
      </defs>
      <g style="fill:#262626;" transform="translate(33.5640375 305.61228125)scale(0.1 -0.1)">
       <use xlink:href="#ArialMT-39"/>
       <use x="55.615234375" xlink:href="#ArialMT-30"/>
       <use x="111.23046875" xlink:href="#ArialMT-30"/>
      </g>
     </g>
    </g>
    <g id="ytick_4">
     <g id="line2d_70">
      <path clip-path="url(#pf4d2a2690c)" d="M 54.24685 265.827125 
L 723.84685 265.827125 
" style="fill:none;stroke:#cccccc;stroke-linecap:round;stroke-width:0.5;"/>
     </g>
     <g id="line2d_71"/>
     <g id="line2d_72"/>
     <g id="text_16">
      <!-- 1000 -->
      <defs>
       <path d="M 37.25 0 
L 28.46875 0 
L 28.46875 56 
Q 25.296875 52.984375 20.140625 49.953125 
Q 14.984375 46.921875 10.890625 45.40625 
L 10.890625 53.90625 
Q 18.265625 57.375 23.78125 62.296875 
Q 29.296875 67.234375 31.59375 71.875 
L 37.25 71.875 
z
" id="ArialMT-31"/>
      </defs>
      <g style="fill:#262626;" transform="translate(28.0031 268.41228125)scale(0.1 -0.1)">
       <use xlink:href="#ArialMT-31"/>
       <use x="55.615234375" xlink:href="#ArialMT-30"/>
       <use x="111.23046875" xlink:href="#ArialMT-30"/>
       <use x="166.845703125" xlink:href="#ArialMT-30"/>
      </g>
     </g>
    </g>
    <g id="ytick_5">
     <g id="line2d_73">
      <path clip-path="url(#pf4d2a2690c)" d="M 54.24685 228.627125 
L 723.84685 228.627125 
" style="fill:none;stroke:#cccccc;stroke-linecap:round;stroke-width:0.5;"/>
     </g>
     <g id="line2d_74"/>
     <g id="line2d_75"/>
     <g id="text_17">
      <!-- 1100 -->
      <g style="fill:#262626;" transform="translate(28.0140375 231.21228125)scale(0.1 -0.1)">
       <use xlink:href="#ArialMT-31"/>
       <use x="55.505859375" xlink:href="#ArialMT-31"/>
       <use x="111.12109375" xlink:href="#ArialMT-30"/>
       <use x="166.736328125" xlink:href="#ArialMT-30"/>
      </g>
     </g>
    </g>
    <g id="ytick_6">
     <g id="line2d_76">
      <path clip-path="url(#pf4d2a2690c)" d="M 54.24685 191.427125 
L 723.84685 191.427125 
" style="fill:none;stroke:#cccccc;stroke-linecap:round;stroke-width:0.5;"/>
     </g>
     <g id="line2d_77"/>
     <g id="line2d_78"/>
     <g id="text_18">
      <!-- 1200 -->
      <defs>
       <path d="M 50.34375 8.453125 
L 50.34375 0 
L 3.03125 0 
Q 2.9375 3.171875 4.046875 6.109375 
Q 5.859375 10.9375 9.828125 15.625 
Q 13.8125 20.3125 21.34375 26.46875 
Q 33.015625 36.03125 37.109375 41.625 
Q 41.21875 47.21875 41.21875 52.203125 
Q 41.21875 57.421875 37.46875 61 
Q 33.734375 64.59375 27.734375 64.59375 
Q 21.390625 64.59375 17.578125 60.78125 
Q 13.765625 56.984375 13.71875 50.25 
L 4.6875 51.171875 
Q 5.609375 61.28125 11.65625 66.578125 
Q 17.71875 71.875 27.9375 71.875 
Q 38.234375 71.875 44.234375 66.15625 
Q 50.25 60.453125 50.25 52 
Q 50.25 47.703125 48.484375 43.546875 
Q 46.734375 39.40625 42.65625 34.8125 
Q 38.578125 30.21875 29.109375 22.21875 
Q 21.1875 15.578125 18.9375 13.203125 
Q 16.703125 10.84375 15.234375 8.453125 
z
" id="ArialMT-32"/>
      </defs>
      <g style="fill:#262626;" transform="translate(28.0031 194.01228125)scale(0.1 -0.1)">
       <use xlink:href="#ArialMT-31"/>
       <use x="55.615234375" xlink:href="#ArialMT-32"/>
       <use x="111.23046875" xlink:href="#ArialMT-30"/>
       <use x="166.845703125" xlink:href="#ArialMT-30"/>
      </g>
     </g>
    </g>
    <g id="ytick_7">
     <g id="line2d_79">
      <path clip-path="url(#pf4d2a2690c)" d="M 54.24685 154.227125 
L 723.84685 154.227125 
" style="fill:none;stroke:#cccccc;stroke-linecap:round;stroke-width:0.5;"/>
     </g>
     <g id="line2d_80"/>
     <g id="line2d_81"/>
     <g id="text_19">
      <!-- 1300 -->
      <defs>
       <path d="M 4.203125 18.890625 
L 12.984375 20.0625 
Q 14.5 12.59375 18.140625 9.296875 
Q 21.78125 6 27 6 
Q 33.203125 6 37.46875 10.296875 
Q 41.75 14.59375 41.75 20.953125 
Q 41.75 27 37.796875 30.921875 
Q 33.84375 34.859375 27.734375 34.859375 
Q 25.25 34.859375 21.53125 33.890625 
L 22.515625 41.609375 
Q 23.390625 41.5 23.921875 41.5 
Q 29.546875 41.5 34.03125 44.421875 
Q 38.53125 47.359375 38.53125 53.46875 
Q 38.53125 58.296875 35.25 61.46875 
Q 31.984375 64.65625 26.8125 64.65625 
Q 21.6875 64.65625 18.265625 61.421875 
Q 14.84375 58.203125 13.875 51.765625 
L 5.078125 53.328125 
Q 6.6875 62.15625 12.390625 67.015625 
Q 18.109375 71.875 26.609375 71.875 
Q 32.46875 71.875 37.390625 69.359375 
Q 42.328125 66.84375 44.9375 62.5 
Q 47.5625 58.15625 47.5625 53.265625 
Q 47.5625 48.640625 45.0625 44.828125 
Q 42.578125 41.015625 37.703125 38.765625 
Q 44.046875 37.3125 47.5625 32.6875 
Q 51.078125 28.078125 51.078125 21.140625 
Q 51.078125 11.765625 44.234375 5.25 
Q 37.40625 -1.265625 26.953125 -1.265625 
Q 17.53125 -1.265625 11.296875 4.34375 
Q 5.078125 9.96875 4.203125 18.890625 
" id="ArialMT-33"/>
      </defs>
      <g style="fill:#262626;" transform="translate(28.0031 156.81228125)scale(0.1 -0.1)">
       <use xlink:href="#ArialMT-31"/>
       <use x="55.615234375" xlink:href="#ArialMT-33"/>
       <use x="111.23046875" xlink:href="#ArialMT-30"/>
       <use x="166.845703125" xlink:href="#ArialMT-30"/>
      </g>
     </g>
    </g>
    <g id="ytick_8">
     <g id="line2d_82">
      <path clip-path="url(#pf4d2a2690c)" d="M 54.24685 117.027125 
L 723.84685 117.027125 
" style="fill:none;stroke:#cccccc;stroke-linecap:round;stroke-width:0.5;"/>
     </g>
     <g id="line2d_83"/>
     <g id="line2d_84"/>
     <g id="text_20">
      <!-- 1400 -->
      <defs>
       <path d="M 32.328125 0 
L 32.328125 17.140625 
L 1.265625 17.140625 
L 1.265625 25.203125 
L 33.9375 71.578125 
L 41.109375 71.578125 
L 41.109375 25.203125 
L 50.78125 25.203125 
L 50.78125 17.140625 
L 41.109375 17.140625 
L 41.109375 0 
z
M 32.328125 25.203125 
L 32.328125 57.46875 
L 9.90625 25.203125 
z
" id="ArialMT-34"/>
      </defs>
      <g style="fill:#262626;" transform="translate(28.0031 119.61228125)scale(0.1 -0.1)">
       <use xlink:href="#ArialMT-31"/>
       <use x="55.615234375" xlink:href="#ArialMT-34"/>
       <use x="111.23046875" xlink:href="#ArialMT-30"/>
       <use x="166.845703125" xlink:href="#ArialMT-30"/>
      </g>
     </g>
    </g>
    <g id="ytick_9">
     <g id="line2d_85">
      <path clip-path="url(#pf4d2a2690c)" d="M 54.24685 79.827125 
L 723.84685 79.827125 
" style="fill:none;stroke:#cccccc;stroke-linecap:round;stroke-width:0.5;"/>
     </g>
     <g id="line2d_86"/>
     <g id="line2d_87"/>
     <g id="text_21">
      <!-- 1500 -->
      <defs>
       <path d="M 4.15625 18.75 
L 13.375 19.53125 
Q 14.40625 12.796875 18.140625 9.390625 
Q 21.875 6 27.15625 6 
Q 33.5 6 37.890625 10.78125 
Q 42.28125 15.578125 42.28125 23.484375 
Q 42.28125 31 38.0625 35.34375 
Q 33.84375 39.703125 27 39.703125 
Q 22.75 39.703125 19.328125 37.765625 
Q 15.921875 35.84375 13.96875 32.765625 
L 5.71875 33.84375 
L 12.640625 70.609375 
L 48.25 70.609375 
L 48.25 62.203125 
L 19.671875 62.203125 
L 15.828125 42.96875 
Q 22.265625 47.46875 29.34375 47.46875 
Q 38.71875 47.46875 45.15625 40.96875 
Q 51.609375 34.46875 51.609375 24.265625 
Q 51.609375 14.546875 45.953125 7.46875 
Q 39.0625 -1.21875 27.15625 -1.21875 
Q 17.390625 -1.21875 11.203125 4.25 
Q 5.03125 9.71875 4.15625 18.75 
" id="ArialMT-35"/>
      </defs>
      <g style="fill:#262626;" transform="translate(28.0031 82.41228125)scale(0.1 -0.1)">
       <use xlink:href="#ArialMT-31"/>
       <use x="55.615234375" xlink:href="#ArialMT-35"/>
       <use x="111.23046875" xlink:href="#ArialMT-30"/>
       <use x="166.845703125" xlink:href="#ArialMT-30"/>
      </g>
     </g>
    </g>
    <g id="ytick_10">
     <g id="line2d_88">
      <path clip-path="url(#pf4d2a2690c)" d="M 54.24685 42.627125 
L 723.84685 42.627125 
" style="fill:none;stroke:#cccccc;stroke-linecap:round;stroke-width:0.5;"/>
     </g>
     <g id="line2d_89"/>
     <g id="line2d_90"/>
     <g id="text_22">
      <!-- 1600 -->
      <defs>
       <path d="M 49.75 54.046875 
L 41.015625 53.375 
Q 39.84375 58.546875 37.703125 60.890625 
Q 34.125 64.65625 28.90625 64.65625 
Q 24.703125 64.65625 21.53125 62.3125 
Q 17.390625 59.28125 14.984375 53.46875 
Q 12.59375 47.65625 12.5 36.921875 
Q 15.671875 41.75 20.265625 44.09375 
Q 24.859375 46.4375 29.890625 46.4375 
Q 38.671875 46.4375 44.84375 39.96875 
Q 51.03125 33.5 51.03125 23.25 
Q 51.03125 16.5 48.125 10.71875 
Q 45.21875 4.9375 40.140625 1.859375 
Q 35.0625 -1.21875 28.609375 -1.21875 
Q 17.625 -1.21875 10.6875 6.859375 
Q 3.765625 14.9375 3.765625 33.5 
Q 3.765625 54.25 11.421875 63.671875 
Q 18.109375 71.875 29.4375 71.875 
Q 37.890625 71.875 43.28125 67.140625 
Q 48.6875 62.40625 49.75 54.046875 
M 13.875 23.1875 
Q 13.875 18.65625 15.796875 14.5 
Q 17.71875 10.359375 21.1875 8.171875 
Q 24.65625 6 28.46875 6 
Q 34.03125 6 38.03125 10.484375 
Q 42.046875 14.984375 42.046875 22.703125 
Q 42.046875 30.125 38.078125 34.390625 
Q 34.125 38.671875 28.125 38.671875 
Q 22.171875 38.671875 18.015625 34.390625 
Q 13.875 30.125 13.875 23.1875 
" id="ArialMT-36"/>
      </defs>
      <g style="fill:#262626;" transform="translate(28.0031 45.21228125)scale(0.1 -0.1)">
       <use xlink:href="#ArialMT-31"/>
       <use x="55.615234375" xlink:href="#ArialMT-36"/>
       <use x="111.23046875" xlink:href="#ArialMT-30"/>
       <use x="166.845703125" xlink:href="#ArialMT-30"/>
      </g>
     </g>
    </g>
    <g id="text_23">
     <!-- Accidents -->
     <defs>
      <path d="M 40.234375 0 
L 40.234375 6.546875 
Q 35.296875 -1.171875 25.734375 -1.171875 
Q 19.53125 -1.171875 14.328125 2.25 
Q 9.125 5.671875 6.265625 11.796875 
Q 3.421875 17.921875 3.421875 25.875 
Q 3.421875 33.640625 6 39.96875 
Q 8.59375 46.296875 13.765625 49.65625 
Q 18.953125 53.03125 25.34375 53.03125 
Q 30.03125 53.03125 33.6875 51.046875 
Q 37.359375 49.078125 39.65625 45.90625 
L 39.65625 71.578125 
L 48.390625 71.578125 
L 48.390625 0 
z
M 12.453125 25.875 
Q 12.453125 15.921875 16.640625 10.984375 
Q 20.84375 6.0625 26.5625 6.0625 
Q 32.328125 6.0625 36.34375 10.765625 
Q 40.375 15.484375 40.375 25.140625 
Q 40.375 35.796875 36.265625 40.765625 
Q 32.171875 45.75 26.171875 45.75 
Q 20.3125 45.75 16.375 40.96875 
Q 12.453125 36.1875 12.453125 25.875 
" id="ArialMT-64"/>
     </defs>
     <g style="fill:#262626;" transform="translate(19.5687 247.484225)rotate(-90.0)scale(0.1728 -0.1728)">
      <use xlink:href="#ArialMT-41"/>
      <use x="66.69921875" xlink:href="#ArialMT-63"/>
      <use x="116.69921875" xlink:href="#ArialMT-63"/>
      <use x="166.69921875" xlink:href="#ArialMT-69"/>
      <use x="188.916015625" xlink:href="#ArialMT-64"/>
      <use x="244.53125" xlink:href="#ArialMT-65"/>
      <use x="300.146484375" xlink:href="#ArialMT-6e"/>
      <use x="355.76171875" xlink:href="#ArialMT-74"/>
      <use x="383.544921875" xlink:href="#ArialMT-73"/>
     </g>
    </g>
   </g>
   <g id="patch_3">
    <path clip-path="url(#pf4d2a2690c)" d="M 114.129777 377.427125 
L 114.129777 42.627125 
L 166.754167 42.627125 
L 166.754167 377.427125 
z
" style="opacity:0.03;stroke:#000000;stroke-linejoin:miter;"/>
   </g>
   <g id="patch_4">
    <path clip-path="url(#pf4d2a2690c)" d="M 223.007826 377.427125 
L 223.007826 42.627125 
L 277.44685 42.627125 
L 277.44685 377.427125 
z
" style="opacity:0.03;stroke:#000000;stroke-linejoin:miter;"/>
   </g>
   <g id="patch_5">
    <path clip-path="url(#pf4d2a2690c)" d="M 333.700509 377.427125 
L 333.700509 42.627125 
L 388.139533 42.627125 
L 388.139533 377.427125 
z
" style="opacity:0.03;stroke:#000000;stroke-linejoin:miter;"/>
   </g>
   <g id="patch_6">
    <path clip-path="url(#pf4d2a2690c)" d="M 444.393191 377.427125 
L 444.393191 42.627125 
L 500.64685 42.627125 
L 500.64685 377.427125 
z
" style="opacity:0.03;stroke:#000000;stroke-linejoin:miter;"/>
   </g>
   <g id="patch_7">
    <path clip-path="url(#pf4d2a2690c)" d="M 555.085874 377.427125 
L 555.085874 42.627125 
L 611.339533 42.627125 
L 611.339533 377.427125 
z
" style="opacity:0.03;stroke:#000000;stroke-linejoin:miter;"/>
   </g>
   <g id="patch_8">
    <path clip-path="url(#pf4d2a2690c)" d="M 665.778557 377.427125 
L 665.778557 42.627125 
L 720.217582 42.627125 
L 720.217582 377.427125 
z
" style="opacity:0.03;stroke:#000000;stroke-linejoin:miter;"/>
   </g>
   <g id="line2d_91">
    <path clip-path="url(#pf4d2a2690c)" d="M 57.876118 275.747125 
L 59.690752 233.487925 
L 61.505387 213.399925 
L 63.320021 221.435125 
L 65.134655 214.838325 
L 66.949289 227.957525 
L 68.763923 211.539925 
L 70.578557 190.534325 
L 72.393191 188.723925 
L 74.207826 156.111925 
L 76.02246 188.575125 
L 77.837094 177.886325 
L 79.651728 186.144725 
L 81.466362 179.795925 
L 83.280996 192.543125 
L 85.09563 183.714325 
L 86.910265 176.720725 
L 88.724899 168.883925 
L 90.539533 194.527125 
L 92.354167 194.105525 
L 94.168801 189.443125 
L 95.983435 183.044725 
L 97.79807 147.159125 
L 99.612704 156.359925 
L 101.427338 181.507125 
L 103.241972 165.833525 
L 105.056606 178.853525 
L 106.87124 167.693525 
L 108.685874 196.163925 
L 110.500509 164.667925 
L 112.315143 175.827925 
L 114.129777 174.513525 
L 115.944411 162.014325 
L 117.759045 156.136725 
L 119.573679 180.366325 
L 121.388313 160.203925 
L 123.202948 152.466325 
L 125.017582 152.416725 
L 126.832216 173.099925 
L 128.64685 154.375925 
L 130.461484 165.089525 
L 132.276118 136.991125 
L 134.090752 147.332725 
L 135.905387 137.090325 
L 137.720021 125.707125 
L 139.534655 176.373525 
L 141.349289 172.157525 
L 143.163923 159.980725 
L 144.978557 173.819125 
L 146.793191 158.616725 
L 148.607826 181.135125 
L 150.42246 170.644725 
L 152.237094 138.255925 
L 154.051728 168.164725 
L 155.866362 181.060725 
L 157.680996 154.425525 
L 159.49563 172.008725 
L 161.310265 130.667125 
L 163.124899 147.927925 
L 164.939533 184.855125 
L 166.754167 155.417525 
L 168.568801 156.682325 
L 170.383435 157.327125 
L 172.19807 160.724725 
L 174.012704 169.355125 
L 175.827338 160.377525 
L 177.641972 159.534325 
L 179.456606 174.414325 
L 181.27124 178.853525 
L 183.085874 170.049525 
L 184.900509 174.587925 
L 186.715143 165.511125 
L 188.529777 162.584725 
L 190.344411 154.103125 
L 192.159045 138.404725 
L 193.973679 157.748725 
L 195.788313 147.506325 
L 197.602948 151.201525 
L 199.417582 158.889525 
L 201.232216 154.871925 
L 203.04685 165.783925 
L 204.861484 158.443125 
L 206.676118 173.645525 
L 208.490752 179.969525 
L 210.305387 180.192725 
L 212.120021 171.215125 
L 213.934655 171.810325 
L 215.749289 156.111925 
L 217.563923 172.405525 
L 219.378557 182.127125 
L 221.193191 180.167925 
L 223.007826 157.327125 
L 224.82246 162.634325 
L 226.637094 171.041525 
L 228.451728 156.409525 
L 230.266362 163.551925 
L 232.080996 175.803125 
L 233.89563 157.897525 
L 235.710265 174.042325 
L 237.524899 169.652725 
L 239.339533 176.646325 
L 242.968801 147.233525 
L 244.783435 164.122325 
L 246.59807 162.907125 
L 248.412704 171.041525 
L 250.227338 169.206325 
L 252.041972 171.562325 
L 253.856606 184.706325 
L 255.67124 178.704725 
L 257.485874 139.967125 
L 259.300509 179.696725 
L 261.115143 185.301525 
L 262.929777 173.199125 
L 264.744411 173.397525 
L 266.559045 160.551125 
L 268.373679 179.771125 
L 270.188313 170.793525 
L 272.002948 169.900725 
L 273.817582 180.986325 
L 275.632216 167.941525 
L 277.44685 152.987125 
L 279.261484 143.141525 
L 281.076118 143.042325 
L 282.890752 162.857525 
L 284.705387 151.895925 
L 286.520021 154.971125 
L 288.334655 169.404725 
L 290.149289 153.706325 
L 291.963923 160.352725 
L 293.778557 155.566325 
L 295.593191 165.833525 
L 297.407826 172.231925 
L 299.22246 169.999925 
L 301.037094 152.838325 
L 302.851728 158.641525 
L 304.666362 162.783125 
L 306.480996 164.965525 
L 308.29563 168.586325 
L 310.110265 160.476725 
L 311.924899 150.283925 
L 313.739533 157.451125 
L 315.554167 160.873525 
L 317.368801 166.602325 
L 320.99807 185.301525 
L 322.812704 212.432725 
L 324.627338 190.112725 
L 326.441972 199.735125 
L 328.256606 185.127925 
L 330.07124 181.903925 
L 331.885874 179.448725 
L 333.700509 161.022325 
L 335.515143 178.779125 
L 337.329777 177.514325 
L 339.144411 161.741525 
L 340.959045 162.758325 
L 342.773679 168.363125 
L 344.588313 169.479125 
L 346.402948 168.164725 
L 348.217582 179.423925 
L 350.032216 175.207925 
L 351.84685 172.355925 
L 353.661484 173.000725 
L 355.476118 161.146325 
L 357.290752 148.051925 
L 359.105387 158.815125 
L 360.920021 160.774325 
L 362.734655 167.470325 
L 364.549289 167.668725 
L 366.363923 176.075925 
L 368.178557 164.246325 
L 369.993191 165.114325 
L 371.807826 175.381525 
L 373.62246 181.655925 
L 375.437094 175.803125 
L 377.251728 172.207125 
L 379.066362 178.456725 
L 380.880996 170.421525 
L 382.69563 169.652725 
L 384.510265 173.273525 
L 386.324899 169.727125 
L 389.954167 154.747925 
L 391.768801 150.531925 
L 393.583435 236.984725 
L 395.39807 219.971925 
L 397.212704 197.775925 
L 399.027338 193.336725 
L 400.841972 194.923925 
L 402.656606 187.806325 
L 404.47124 192.319925 
L 406.285874 183.863125 
L 408.100509 183.243125 
L 409.915143 173.447125 
L 411.729777 181.011125 
L 413.544411 173.422325 
L 415.359045 166.428725 
L 417.173679 174.339925 
L 418.988313 168.908725 
L 420.802948 172.182325 
L 422.617582 172.926325 
L 424.432216 178.357525 
L 426.24685 183.044725 
L 428.061484 173.422325 
L 429.876118 169.702325 
L 431.690752 167.693525 
L 433.505387 179.473525 
L 435.320021 179.944725 
L 437.134655 189.641525 
L 438.949289 195.122325 
L 440.763923 176.199925 
L 442.578557 179.746325 
L 444.393191 158.839925 
L 446.207826 164.940725 
L 448.02246 173.323125 
L 449.837094 180.167925 
L 451.651728 176.571925 
L 453.466362 167.619125 
L 455.280996 172.802325 
L 457.09563 175.753525 
L 458.910265 173.248725 
L 460.724899 177.340725 
L 462.539533 179.597525 
L 464.354167 177.489525 
L 466.168801 165.759125 
L 467.983435 174.463925 
L 469.79807 160.650325 
L 471.612704 171.512725 
L 473.427338 162.510325 
L 475.241972 170.173525 
L 477.056606 170.123925 
L 478.87124 154.227125 
L 480.685874 165.089525 
L 482.500509 163.204725 
L 484.315143 161.667125 
L 486.129777 155.268725 
L 487.944411 160.476725 
L 489.759045 155.119925 
L 491.573679 144.480725 
L 493.388313 148.200725 
L 495.202948 151.573525 
L 497.017582 149.490325 
L 498.832216 149.713525 
L 500.64685 177.067925 
L 502.461484 158.889525 
L 504.276118 164.122325 
L 506.090752 154.772725 
L 507.905387 159.484725 
L 509.720021 171.190325 
L 511.534655 171.934325 
L 513.349289 158.517525 
L 515.163923 162.882325 
L 516.978557 148.870325 
L 518.793191 174.315125 
L 520.607826 149.391125 
L 522.42246 154.053525 
L 524.237094 150.234325 
L 526.051728 145.943925 
L 527.866362 151.325525 
L 529.680996 137.958325 
L 531.49563 146.464725 
L 533.310265 131.336725 
L 535.124899 133.543925 
L 536.939533 146.514325 
L 538.754167 147.679925 
L 540.568801 151.399925 
L 542.383435 127.988725 
L 544.19807 137.090325 
L 546.012704 140.909525 
L 547.827338 153.681525 
L 549.641972 158.790325 
L 551.456606 155.987925 
L 553.27124 142.943125 
L 555.085874 122.830325 
L 556.900509 133.692725 
L 558.715143 126.525525 
L 560.529777 122.408725 
L 562.344411 139.471125 
L 564.159045 140.983925 
L 565.973679 143.959925 
L 567.788313 145.943925 
L 569.602948 151.251125 
L 571.417582 139.917525 
L 573.232216 153.780725 
L 575.04685 143.984725 
L 576.861484 128.583925 
L 578.676118 141.802325 
L 580.490752 140.487925 
L 582.305387 146.985525 
L 584.120021 101.502325 
L 585.934655 140.438325 
L 587.749289 123.152725 
L 589.563923 139.545525 
L 591.378557 151.350325 
L 593.193191 137.363125 
L 595.007826 143.910325 
L 596.82246 145.894325 
L 598.637094 144.356725 
L 600.451728 134.734325 
L 602.266362 150.333525 
L 604.080996 142.248725 
L 605.89563 138.999925 
L 607.710265 111.918325 
L 609.524899 69.485525 
L 611.339533 113.604725 
L 613.154167 132.006325 
L 614.968801 123.822325 
L 616.783435 128.435125 
L 618.59807 131.411125 
L 620.412704 140.661525 
L 622.227338 110.182325 
L 624.041972 109.388725 
L 625.856606 141.653525 
L 627.67124 139.272725 
L 629.485874 205.240725 
L 631.300509 133.047925 
L 633.115143 134.114325 
L 634.929777 123.251925 
L 636.744411 131.138325 
L 638.559045 139.867925 
L 640.373679 142.819125 
L 642.188313 139.272725 
L 644.002948 124.491925 
L 645.817582 103.486325 
L 647.632216 111.273525 
L 649.44685 178.059925 
L 651.261484 198.271925 
L 653.076118 185.971125 
L 654.890752 201.917525 
L 656.705387 171.785525 
L 658.520021 193.014325 
L 660.334655 218.632725 
L 662.149289 178.456725 
L 663.963923 126.897525 
L 665.778557 130.766325 
L 667.593191 132.452725 
L 669.407826 120.226325 
L 671.22246 135.056725 
L 673.037094 118.911925 
L 674.851728 124.367925 
L 676.666362 104.056725 
L 678.480996 131.113525 
L 680.29563 116.332725 
L 682.110265 110.331125 
L 683.924899 131.287125 
L 685.739533 114.770325 
L 687.554167 118.515125 
L 689.368801 113.951925 
L 691.183435 116.233525 
L 692.99807 115.117525 
L 694.812704 95.699125 
L 696.627338 92.524725 
L 698.441972 111.620725 
L 700.256606 109.686325 
L 702.07124 111.620725 
L 703.885874 117.250325 
L 705.700509 124.615925 
L 707.515143 214.590325 
L 709.329777 326.314325 
L 711.144411 255.659125 
L 712.959045 243.308725 
L 714.773679 225.601525 
L 716.588313 227.163925 
L 718.402948 226.667925 
L 720.217582 237.852725 
L 720.217582 237.852725 
" style="fill:none;stroke:#0000ff;stroke-linecap:round;stroke-width:1.8;"/>
   </g>
   <g id="patch_9">
    <path d="M 54.24685 42.627125 
L 723.84685 42.627125 
" style="fill:none;stroke:#262626;stroke-linecap:square;stroke-linejoin:miter;stroke-width:1.25;"/>
   </g>
   <g id="patch_10">
    <path d="M 723.84685 377.427125 
L 723.84685 42.627125 
" style="fill:none;stroke:#262626;stroke-linecap:square;stroke-linejoin:miter;stroke-width:1.25;"/>
   </g>
   <g id="patch_11">
    <path d="M 54.24685 377.427125 
L 723.84685 377.427125 
" style="fill:none;stroke:#262626;stroke-linecap:square;stroke-linejoin:miter;stroke-width:1.25;"/>
   </g>
   <g id="patch_12">
    <path d="M 54.24685 377.427125 
L 54.24685 42.627125 
" style="fill:none;stroke:#262626;stroke-linecap:square;stroke-linejoin:miter;stroke-width:1.25;"/>
   </g>
   <g id="patch_13">
    <path d="M 112.343165 310.688427 
Q 86.8509 293.771198 62.290203 277.472178 
" style="fill:none;stroke:#000000;stroke-linecap:round;"/>
    <path d="M 65.85339 283.677313 
L 62.290203 277.472178 
L 69.392223 278.34471 
" style="fill:none;stroke:#000000;stroke-linecap:round;"/>
   </g>
   <g id="text_24">
    <!-- New Years -->
    <defs>
     <path d="M 27.875 0 
L 27.875 30.328125 
L 0.296875 71.578125 
L 11.8125 71.578125 
L 25.921875 50 
Q 29.828125 43.953125 33.203125 37.890625 
Q 36.421875 43.5 41.015625 50.53125 
L 54.890625 71.578125 
L 65.921875 71.578125 
L 37.359375 30.328125 
L 37.359375 0 
z
" id="ArialMT-59"/>
     <path d="M 16.15625 0 
L 0.296875 51.859375 
L 9.375 51.859375 
L 17.625 21.921875 
L 20.703125 10.796875 
Q 20.90625 11.625 23.390625 21.484375 
L 31.640625 51.859375 
L 40.671875 51.859375 
L 48.4375 21.78125 
L 51.03125 11.859375 
L 54 21.875 
L 62.890625 51.859375 
L 71.4375 51.859375 
L 55.21875 0 
L 46.09375 0 
L 37.84375 31.0625 
L 35.84375 39.890625 
L 25.34375 0 
z
" id="ArialMT-77"/>
     <path id="ArialMT-20"/>
    </defs>
    <g transform="translate(89.690752439 325.747125)scale(0.16 -0.16)">
     <use xlink:href="#ArialMT-4e"/>
     <use x="72.216796875" xlink:href="#ArialMT-65"/>
     <use x="127.83203125" xlink:href="#ArialMT-77"/>
     <use x="200.048828125" xlink:href="#ArialMT-20"/>
     <use x="227.81640625" xlink:href="#ArialMT-59"/>
     <use x="294.375" xlink:href="#ArialMT-65"/>
     <use x="349.990234375" xlink:href="#ArialMT-61"/>
     <use x="405.60546875" xlink:href="#ArialMT-72"/>
     <use x="438.90625" xlink:href="#ArialMT-73"/>
    </g>
   </g>
   <g id="patch_14">
    <path d="M 90.905629 116.560786 
Q 90.729586 141.721177 90.561366 165.763562 
" style="fill:none;stroke:#000000;stroke-linecap:round;"/>
    <path d="M 93.806066 159.386108 
L 90.561366 165.763562 
L 87.406222 159.341329 
" style="fill:none;stroke:#000000;stroke-linecap:round;"/>
   </g>
   <g id="text_25">
    <!-- MLK -->
    <defs>
     <path d="M 7.328125 0 
L 7.328125 71.578125 
L 16.796875 71.578125 
L 16.796875 8.453125 
L 52.046875 8.453125 
L 52.046875 0 
z
" id="ArialMT-4c"/>
     <path d="M 7.328125 0 
L 7.328125 71.578125 
L 16.796875 71.578125 
L 16.796875 36.078125 
L 52.34375 71.578125 
L 65.1875 71.578125 
L 35.15625 42.578125 
L 66.5 0 
L 54 0 
L 28.515625 36.234375 
L 16.796875 24.8125 
L 16.796875 0 
z
" id="ArialMT-4b"/>
    </defs>
    <g transform="translate(74.5395329268 108.883925)scale(0.16 -0.16)">
     <use xlink:href="#ArialMT-4d"/>
     <use x="83.30078125" xlink:href="#ArialMT-4c"/>
     <use x="138.916015625" xlink:href="#ArialMT-4b"/>
    </g>
   </g>
   <g id="patch_15">
    <path d="M 147.057896 232.750259 
Q 146.931546 211.723532 146.805196 190.696805 
M 162.785678 187.40072 
L 162.804907 190.600663 
L 130.805484 190.792948 
L 130.786256 187.593006 
" style="fill:none;stroke:#000000;stroke-linecap:round;"/>
   </g>
   <g id="text_26">
    <!-- Washington's Birthday -->
    <defs>
     <path d="M 6.640625 46.234375 
L 4.390625 59.625 
L 4.390625 71.578125 
L 14.40625 71.578125 
L 14.40625 59.625 
L 12.0625 46.234375 
z
" id="ArialMT-27"/>
     <path d="M 7.328125 0 
L 7.328125 71.578125 
L 34.1875 71.578125 
Q 42.390625 71.578125 47.34375 69.40625 
Q 52.296875 67.234375 55.09375 62.71875 
Q 57.90625 58.203125 57.90625 53.265625 
Q 57.90625 48.6875 55.421875 44.625 
Q 52.9375 40.578125 47.90625 38.09375 
Q 54.390625 36.1875 57.875 31.59375 
Q 61.375 27 61.375 20.75 
Q 61.375 15.71875 59.25 11.390625 
Q 57.125 7.078125 54 4.734375 
Q 50.875 2.390625 46.15625 1.1875 
Q 41.453125 0 34.625 0 
z
M 16.796875 41.5 
L 32.28125 41.5 
Q 38.578125 41.5 41.3125 42.328125 
Q 44.921875 43.40625 46.75 45.890625 
Q 48.578125 48.390625 48.578125 52.15625 
Q 48.578125 55.71875 46.875 58.421875 
Q 45.171875 61.140625 41.984375 62.140625 
Q 38.8125 63.140625 31.109375 63.140625 
L 16.796875 63.140625 
z
M 16.796875 8.453125 
L 34.625 8.453125 
Q 39.203125 8.453125 41.0625 8.796875 
Q 44.34375 9.375 46.53125 10.734375 
Q 48.734375 12.109375 50.140625 14.71875 
Q 51.5625 17.328125 51.5625 20.75 
Q 51.5625 24.75 49.515625 27.703125 
Q 47.46875 30.671875 43.828125 31.859375 
Q 40.1875 33.0625 33.34375 33.0625 
L 16.796875 33.0625 
z
" id="ArialMT-42"/>
     <path d="M 20.21875 0 
L 1.21875 71.578125 
L 10.9375 71.578125 
L 21.828125 24.65625 
Q 23.578125 17.28125 24.859375 10.015625 
Q 27.59375 21.484375 28.078125 23.25 
L 41.703125 71.578125 
L 53.125 71.578125 
L 63.375 35.359375 
Q 67.234375 21.875 68.953125 10.015625 
Q 70.3125 16.796875 72.515625 25.59375 
L 83.734375 71.578125 
L 93.265625 71.578125 
L 73.640625 0 
L 64.5 0 
L 49.421875 54.546875 
Q 47.515625 61.375 47.171875 62.9375 
Q 46.046875 58.015625 45.0625 54.546875 
L 29.890625 0 
z
" id="ArialMT-57"/>
    </defs>
    <g transform="translate(67.7931914634 248.699125)scale(0.16 -0.16)">
     <use xlink:href="#ArialMT-57"/>
     <use x="94.337890625" xlink:href="#ArialMT-61"/>
     <use x="149.953125" xlink:href="#ArialMT-73"/>
     <use x="199.953125" xlink:href="#ArialMT-68"/>
     <use x="255.568359375" xlink:href="#ArialMT-69"/>
     <use x="277.78515625" xlink:href="#ArialMT-6e"/>
     <use x="333.400390625" xlink:href="#ArialMT-67"/>
     <use x="389.015625" xlink:href="#ArialMT-74"/>
     <use x="416.798828125" xlink:href="#ArialMT-6f"/>
     <use x="472.4140625" xlink:href="#ArialMT-6e"/>
     <use x="528.029296875" xlink:href="#ArialMT-27"/>
     <use x="547.12109375" xlink:href="#ArialMT-73"/>
     <use x="597.12109375" xlink:href="#ArialMT-20"/>
     <use x="624.904296875" xlink:href="#ArialMT-42"/>
     <use x="691.603515625" xlink:href="#ArialMT-69"/>
     <use x="713.8203125" xlink:href="#ArialMT-72"/>
     <use x="747.12109375" xlink:href="#ArialMT-74"/>
     <use x="774.904296875" xlink:href="#ArialMT-68"/>
     <use x="830.51953125" xlink:href="#ArialMT-64"/>
     <use x="886.134765625" xlink:href="#ArialMT-61"/>
     <use x="941.75" xlink:href="#ArialMT-79"/>
    </g>
   </g>
   <g id="patch_16">
    <path d="M 326.694769 250.520336 
Q 326.575792 234.497227 326.456815 218.474118 
M 342.432614 215.155404 
L 342.456374 218.355315 
L 310.457256 218.59292 
L 310.433496 215.393008 
" style="fill:none;stroke:#000000;stroke-linecap:round;"/>
   </g>
   <g id="text_27">
    <!-- Memorial Day -->
    <g transform="translate(277.441971951 266.475125)scale(0.16 -0.16)">
     <use xlink:href="#ArialMT-4d"/>
     <use x="83.30078125" xlink:href="#ArialMT-65"/>
     <use x="138.916015625" xlink:href="#ArialMT-6d"/>
     <use x="222.216796875" xlink:href="#ArialMT-6f"/>
     <use x="277.83203125" xlink:href="#ArialMT-72"/>
     <use x="311.1328125" xlink:href="#ArialMT-69"/>
     <use x="333.349609375" xlink:href="#ArialMT-61"/>
     <use x="388.96484375" xlink:href="#ArialMT-6c"/>
     <use x="411.181640625" xlink:href="#ArialMT-20"/>
     <use x="438.96484375" xlink:href="#ArialMT-44"/>
     <use x="511.181640625" xlink:href="#ArialMT-61"/>
     <use x="566.796875" xlink:href="#ArialMT-79"/>
    </g>
   </g>
   <g id="patch_17">
    <path d="M 425.014821 310.997718 
Q 409.689527 274.910511 394.801256 239.852387 
" style="fill:none;stroke:#000000;stroke-linecap:round;"/>
    <path d="M 394.357525 246.994032 
L 394.801256 239.852387 
L 400.248334 244.492359 
" style="fill:none;stroke:#000000;stroke-linecap:round;"/>
   </g>
   <g id="text_28">
    <!-- 4th of July -->
    <defs>
     <path d="M 8.6875 0 
L 8.6875 45.015625 
L 0.921875 45.015625 
L 0.921875 51.859375 
L 8.6875 51.859375 
L 8.6875 57.375 
Q 8.6875 62.59375 9.625 65.140625 
Q 10.890625 68.5625 14.078125 70.671875 
Q 17.28125 72.796875 23.046875 72.796875 
Q 26.765625 72.796875 31.25 71.921875 
L 29.9375 64.265625 
Q 27.203125 64.75 24.75 64.75 
Q 20.75 64.75 19.09375 63.03125 
Q 17.4375 61.328125 17.4375 56.640625 
L 17.4375 51.859375 
L 27.546875 51.859375 
L 27.546875 45.015625 
L 17.4375 45.015625 
L 17.4375 0 
z
" id="ArialMT-66"/>
    </defs>
    <g transform="translate(393.583435366 326.984725)scale(0.16 -0.16)">
     <use xlink:href="#ArialMT-34"/>
     <use x="55.615234375" xlink:href="#ArialMT-74"/>
     <use x="83.3984375" xlink:href="#ArialMT-68"/>
     <use x="139.013671875" xlink:href="#ArialMT-20"/>
     <use x="166.796875" xlink:href="#ArialMT-6f"/>
     <use x="222.412109375" xlink:href="#ArialMT-66"/>
     <use x="250.1953125" xlink:href="#ArialMT-20"/>
     <use x="277.978515625" xlink:href="#ArialMT-4a"/>
     <use x="327.978515625" xlink:href="#ArialMT-75"/>
     <use x="383.59375" xlink:href="#ArialMT-6c"/>
     <use x="405.810546875" xlink:href="#ArialMT-79"/>
    </g>
   </g>
   <g id="patch_18">
    <path d="M 506.022229 212.997936 
Q 506.054479 196.974827 506.086729 180.951718 
M 522.093137 177.783928 
L 522.086697 180.983921 
L 490.086761 180.919514 
L 490.093202 177.71952 
" style="fill:none;stroke:#000000;stroke-linecap:round;"/>
   </g>
   <g id="text_29">
    <!-- Labor Day -->
    <g transform="translate(469.090752439 228.952725)scale(0.16 -0.16)">
     <use xlink:href="#ArialMT-4c"/>
     <use x="55.615234375" xlink:href="#ArialMT-61"/>
     <use x="111.23046875" xlink:href="#ArialMT-62"/>
     <use x="166.845703125" xlink:href="#ArialMT-6f"/>
     <use x="222.4609375" xlink:href="#ArialMT-72"/>
     <use x="255.76171875" xlink:href="#ArialMT-20"/>
     <use x="283.544921875" xlink:href="#ArialMT-44"/>
     <use x="355.76171875" xlink:href="#ArialMT-61"/>
     <use x="411.376953125" xlink:href="#ArialMT-79"/>
    </g>
   </g>
   <g id="patch_19">
    <path d="M 573.514764 180.073531 
Q 573.388493 171.648223 573.262223 163.222915 
M 589.212473 159.783509 
L 589.260426 162.983149 
L 557.264019 163.462681 
L 557.216066 160.26304 
" style="fill:none;stroke:#000000;stroke-linecap:round;"/>
   </g>
   <g id="text_30">
    <!-- Columbus Day -->
    <defs>
     <path d="M 58.796875 25.09375 
L 68.265625 22.703125 
Q 65.28125 11.03125 57.546875 4.90625 
Q 49.8125 -1.21875 38.625 -1.21875 
Q 27.046875 -1.21875 19.796875 3.484375 
Q 12.546875 8.203125 8.765625 17.140625 
Q 4.984375 26.078125 4.984375 36.328125 
Q 4.984375 47.515625 9.25 55.828125 
Q 13.53125 64.15625 21.40625 68.46875 
Q 29.296875 72.796875 38.765625 72.796875 
Q 49.515625 72.796875 56.828125 67.328125 
Q 64.15625 61.859375 67.046875 51.953125 
L 57.71875 49.75 
Q 55.21875 57.5625 50.484375 61.125 
Q 45.75 64.703125 38.578125 64.703125 
Q 30.328125 64.703125 24.78125 60.734375 
Q 19.234375 56.78125 16.984375 50.109375 
Q 14.75 43.453125 14.75 36.375 
Q 14.75 27.25 17.40625 20.4375 
Q 20.0625 13.625 25.671875 10.25 
Q 31.296875 6.890625 37.84375 6.890625 
Q 45.796875 6.890625 51.3125 11.46875 
Q 56.84375 16.0625 58.796875 25.09375 
" id="ArialMT-43"/>
    </defs>
    <g transform="translate(521.232215854 196.220725)scale(0.16 -0.16)">
     <use xlink:href="#ArialMT-43"/>
     <use x="72.216796875" xlink:href="#ArialMT-6f"/>
     <use x="127.83203125" xlink:href="#ArialMT-6c"/>
     <use x="150.048828125" xlink:href="#ArialMT-75"/>
     <use x="205.6640625" xlink:href="#ArialMT-6d"/>
     <use x="288.96484375" xlink:href="#ArialMT-62"/>
     <use x="344.580078125" xlink:href="#ArialMT-75"/>
     <use x="400.1953125" xlink:href="#ArialMT-73"/>
     <use x="450.1953125" xlink:href="#ArialMT-20"/>
     <use x="477.978515625" xlink:href="#ArialMT-44"/>
     <use x="550.1953125" xlink:href="#ArialMT-61"/>
     <use x="605.810546875" xlink:href="#ArialMT-79"/>
    </g>
   </g>
   <g id="patch_20">
    <path d="M 557.538622 260.076187 
Q 592.716323 233.26508 627.004814 207.131695 
" style="fill:none;stroke:#000000;stroke-linecap:round;"/>
    <path d="M 619.97493 208.466134 
L 627.004814 207.131695 
L 623.854435 213.556265 
" style="fill:none;stroke:#000000;stroke-linecap:round;"/>
   </g>
   <g id="text_31">
    <!-- Veterans Day -->
    <defs>
     <path d="M 28.171875 0 
L 0.4375 71.578125 
L 10.6875 71.578125 
L 29.296875 19.578125 
Q 31.546875 13.328125 33.0625 7.859375 
Q 34.71875 13.71875 36.921875 19.578125 
L 56.25 71.578125 
L 65.921875 71.578125 
L 37.890625 0 
z
" id="ArialMT-56"/>
    </defs>
    <g transform="translate(494.48587439 275.240725)scale(0.16 -0.16)">
     <use xlink:href="#ArialMT-56"/>
     <use x="66.62109375" xlink:href="#ArialMT-65"/>
     <use x="122.236328125" xlink:href="#ArialMT-74"/>
     <use x="150.01953125" xlink:href="#ArialMT-65"/>
     <use x="205.634765625" xlink:href="#ArialMT-72"/>
     <use x="238.935546875" xlink:href="#ArialMT-61"/>
     <use x="294.55078125" xlink:href="#ArialMT-6e"/>
     <use x="350.166015625" xlink:href="#ArialMT-73"/>
     <use x="400.166015625" xlink:href="#ArialMT-20"/>
     <use x="427.94921875" xlink:href="#ArialMT-44"/>
     <use x="500.166015625" xlink:href="#ArialMT-61"/>
     <use x="555.78125" xlink:href="#ArialMT-79"/>
    </g>
   </g>
   <g id="patch_21">
    <path d="M 655.000354 274.566409 
Q 654.947583 248.543178 654.894813 222.519946 
M 670.888291 219.287508 
L 670.89478 222.487501 
L 638.894846 222.552391 
L 638.888357 219.352398 
" style="fill:none;stroke:#000000;stroke-linecap:round;"/>
   </g>
   <g id="text_32">
    <!-- Thanksgiving -->
    <defs>
     <path d="M 6.640625 0 
L 6.640625 71.578125 
L 15.4375 71.578125 
L 15.4375 30.765625 
L 36.234375 51.859375 
L 47.609375 51.859375 
L 27.78125 32.625 
L 49.609375 0 
L 38.765625 0 
L 21.625 26.515625 
L 15.4375 20.5625 
L 15.4375 0 
z
" id="ArialMT-6b"/>
     <path d="M 25.921875 0 
L 25.921875 63.140625 
L 2.34375 63.140625 
L 2.34375 71.578125 
L 59.078125 71.578125 
L 59.078125 63.140625 
L 35.40625 63.140625 
L 35.40625 0 
z
" id="ArialMT-54"/>
    </defs>
    <g transform="translate(607.890752439 290.517525)scale(0.16 -0.16)">
     <use xlink:href="#ArialMT-54"/>
     <use x="61.083984375" xlink:href="#ArialMT-68"/>
     <use x="116.69921875" xlink:href="#ArialMT-61"/>
     <use x="172.314453125" xlink:href="#ArialMT-6e"/>
     <use x="227.9296875" xlink:href="#ArialMT-6b"/>
     <use x="277.9296875" xlink:href="#ArialMT-73"/>
     <use x="327.9296875" xlink:href="#ArialMT-67"/>
     <use x="383.544921875" xlink:href="#ArialMT-69"/>
     <use x="405.76171875" xlink:href="#ArialMT-76"/>
     <use x="455.76171875" xlink:href="#ArialMT-69"/>
     <use x="477.978515625" xlink:href="#ArialMT-6e"/>
     <use x="533.59375" xlink:href="#ArialMT-67"/>
    </g>
   </g>
   <g id="patch_22">
    <path d="M 677.631994 341.496945 
Q 692.57739 334.338392 706.514452 327.662811 
" style="fill:none;stroke:#000000;stroke-linecap:round;"/>
    <path d="M 699.360064 327.541485 
L 706.514452 327.662811 
L 702.124759 333.313526 
" style="fill:none;stroke:#000000;stroke-linecap:round;"/>
   </g>
   <g id="text_33">
    <!-- Christmas -->
    <g transform="translate(619.329776829 356.314325)scale(0.16 -0.16)">
     <use xlink:href="#ArialMT-43"/>
     <use x="72.216796875" xlink:href="#ArialMT-68"/>
     <use x="127.83203125" xlink:href="#ArialMT-72"/>
     <use x="161.1328125" xlink:href="#ArialMT-69"/>
     <use x="183.349609375" xlink:href="#ArialMT-73"/>
     <use x="233.349609375" xlink:href="#ArialMT-74"/>
     <use x="261.1328125" xlink:href="#ArialMT-6d"/>
     <use x="344.43359375" xlink:href="#ArialMT-61"/>
     <use x="400.048828125" xlink:href="#ArialMT-73"/>
    </g>
   </g>
   <g id="patch_23">
    <path d="M 591.371129 74.955751 
Q 599.48847 72.509774 606.535321 70.386366 
" style="fill:none;stroke:#000000;stroke-linecap:round;"/>
    <path d="M 599.484232 69.16893 
L 606.535321 70.386366 
L 601.330719 75.296776 
" style="fill:none;stroke:#000000;stroke-linecap:round;"/>
   </g>
   <g id="text_34">
    <!-- Halloween -->
    <defs>
     <path d="M 8.015625 0 
L 8.015625 71.578125 
L 17.484375 71.578125 
L 17.484375 42.1875 
L 54.6875 42.1875 
L 54.6875 71.578125 
L 64.15625 71.578125 
L 64.15625 0 
L 54.6875 0 
L 54.6875 33.734375 
L 17.484375 33.734375 
L 17.484375 0 
z
" id="ArialMT-48"/>
    </defs>
    <g transform="translate(519.52489878 89.485525)scale(0.16 -0.16)">
     <use xlink:href="#ArialMT-48"/>
     <use x="72.216796875" xlink:href="#ArialMT-61"/>
     <use x="127.83203125" xlink:href="#ArialMT-6c"/>
     <use x="150.048828125" xlink:href="#ArialMT-6c"/>
     <use x="172.265625" xlink:href="#ArialMT-6f"/>
     <use x="227.880859375" xlink:href="#ArialMT-77"/>
     <use x="300.09765625" xlink:href="#ArialMT-65"/>
     <use x="355.712890625" xlink:href="#ArialMT-65"/>
     <use x="411.328125" xlink:href="#ArialMT-6e"/>
    </g>
   </g>
   <g id="patch_24">
    <path d="M 159.36531 83.38933 
Q 149.874216 103.64293 140.85754 122.884144 
" style="fill:none;stroke:#000000;stroke-linecap:round;"/>
    <path d="M 146.470886 118.446763 
L 140.85754 122.884144 
L 140.675643 115.731038 
" style="fill:none;stroke:#000000;stroke-linecap:round;"/>
   </g>
   <g id="text_35">
    <!-- Valentine's Day -->
    <g transform="translate(109.534654878 75.707125)scale(0.16 -0.16)">
     <use xlink:href="#ArialMT-56"/>
     <use x="66.58984375" xlink:href="#ArialMT-61"/>
     <use x="122.205078125" xlink:href="#ArialMT-6c"/>
     <use x="144.421875" xlink:href="#ArialMT-65"/>
     <use x="200.037109375" xlink:href="#ArialMT-6e"/>
     <use x="255.65234375" xlink:href="#ArialMT-74"/>
     <use x="283.435546875" xlink:href="#ArialMT-69"/>
     <use x="305.65234375" xlink:href="#ArialMT-6e"/>
     <use x="361.267578125" xlink:href="#ArialMT-65"/>
     <use x="416.8828125" xlink:href="#ArialMT-27"/>
     <use x="435.974609375" xlink:href="#ArialMT-73"/>
     <use x="485.974609375" xlink:href="#ArialMT-20"/>
     <use x="513.7578125" xlink:href="#ArialMT-44"/>
     <use x="585.974609375" xlink:href="#ArialMT-61"/>
     <use x="641.58984375" xlink:href="#ArialMT-79"/>
    </g>
   </g>
   <g id="patch_25">
    <path d="M 239.371959 114.581059 
Q 218.376846 130.441817 198.273822 145.628647 
" style="fill:none;stroke:#000000;stroke-linecap:round;"/>
    <path d="M 205.309327 144.324164 
L 198.273822 145.628647 
L 201.451538 139.217554 
" style="fill:none;stroke:#000000;stroke-linecap:round;"/>
   </g>
   <g id="text_36">
    <!-- St. Patrick's Day -->
    <defs>
     <path d="M 9.078125 0 
L 9.078125 10.015625 
L 19.09375 10.015625 
L 19.09375 0 
z
" id="ArialMT-2e"/>
     <path d="M 7.71875 0 
L 7.71875 71.578125 
L 34.71875 71.578125 
Q 41.84375 71.578125 45.609375 70.90625 
Q 50.875 70.015625 54.4375 67.546875 
Q 58.015625 65.09375 60.1875 60.640625 
Q 62.359375 56.203125 62.359375 50.875 
Q 62.359375 41.75 56.546875 35.421875 
Q 50.734375 29.109375 35.546875 29.109375 
L 17.1875 29.109375 
L 17.1875 0 
z
M 17.1875 37.546875 
L 35.6875 37.546875 
Q 44.875 37.546875 48.734375 40.96875 
Q 52.59375 44.390625 52.59375 50.59375 
Q 52.59375 55.078125 50.3125 58.265625 
Q 48.046875 61.46875 44.34375 62.5 
Q 41.9375 63.140625 35.5 63.140625 
L 17.1875 63.140625 
z
" id="ArialMT-50"/>
    </defs>
    <g transform="translate(195.788313415 107.506325)scale(0.16 -0.16)">
     <use xlink:href="#ArialMT-53"/>
     <use x="66.69921875" xlink:href="#ArialMT-74"/>
     <use x="94.482421875" xlink:href="#ArialMT-2e"/>
     <use x="122.265625" xlink:href="#ArialMT-20"/>
     <use x="150.048828125" xlink:href="#ArialMT-50"/>
     <use x="216.748046875" xlink:href="#ArialMT-61"/>
     <use x="272.36328125" xlink:href="#ArialMT-74"/>
     <use x="300.146484375" xlink:href="#ArialMT-72"/>
     <use x="333.447265625" xlink:href="#ArialMT-69"/>
     <use x="355.6640625" xlink:href="#ArialMT-63"/>
     <use x="405.6640625" xlink:href="#ArialMT-6b"/>
     <use x="455.6640625" xlink:href="#ArialMT-27"/>
     <use x="474.755859375" xlink:href="#ArialMT-73"/>
     <use x="524.755859375" xlink:href="#ArialMT-20"/>
     <use x="552.5390625" xlink:href="#ArialMT-44"/>
     <use x="624.755859375" xlink:href="#ArialMT-61"/>
     <use x="680.37109375" xlink:href="#ArialMT-79"/>
    </g>
   </g>
   <g id="text_37">
    <!-- Mean Accidents by Date (20012015) -->
    <defs>
     <path d="M -0.203125 22.359375 
L -0.203125 29.4375 
L 55.421875 29.4375 
L 55.421875 22.359375 
z
" id="ArialMT-2013"/>
     <path d="M 12.359375 -21.046875 
L 6.0625 -21.046875 
Q 20.65625 2.390625 20.65625 25.875 
Q 20.65625 35.0625 18.5625 44.09375 
Q 16.890625 51.421875 13.921875 58.15625 
Q 12.015625 62.546875 6.0625 72.796875 
L 12.359375 72.796875 
Q 21.53125 60.546875 25.921875 48.1875 
Q 29.6875 37.546875 29.6875 25.921875 
Q 29.6875 12.75 24.625 0.4375 
Q 19.578125 -11.859375 12.359375 -21.046875 
" id="ArialMT-29"/>
     <path d="M 23.390625 -21.046875 
Q 16.109375 -11.859375 11.078125 0.4375 
Q 6.0625 12.75 6.0625 25.921875 
Q 6.0625 37.546875 9.8125 48.1875 
Q 14.203125 60.546875 23.390625 72.796875 
L 29.6875 72.796875 
Q 23.78125 62.640625 21.875 58.296875 
Q 18.890625 51.5625 17.1875 44.234375 
Q 15.09375 35.109375 15.09375 25.875 
Q 15.09375 2.390625 29.6875 -21.046875 
z
" id="ArialMT-28"/>
    </defs>
    <g style="fill:#262626;" transform="translate(154.0415375 27.583125)scale(0.28 -0.28)">
     <use xlink:href="#ArialMT-4d"/>
     <use x="83.30078125" xlink:href="#ArialMT-65"/>
     <use x="138.916015625" xlink:href="#ArialMT-61"/>
     <use x="194.53125" xlink:href="#ArialMT-6e"/>
     <use x="250.146484375" xlink:href="#ArialMT-20"/>
     <use x="277.8515625" xlink:href="#ArialMT-41"/>
     <use x="344.55078125" xlink:href="#ArialMT-63"/>
     <use x="394.55078125" xlink:href="#ArialMT-63"/>
     <use x="444.55078125" xlink:href="#ArialMT-69"/>
     <use x="466.767578125" xlink:href="#ArialMT-64"/>
     <use x="522.3828125" xlink:href="#ArialMT-65"/>
     <use x="577.998046875" xlink:href="#ArialMT-6e"/>
     <use x="633.61328125" xlink:href="#ArialMT-74"/>
     <use x="661.396484375" xlink:href="#ArialMT-73"/>
     <use x="711.396484375" xlink:href="#ArialMT-20"/>
     <use x="739.1796875" xlink:href="#ArialMT-62"/>
     <use x="794.794921875" xlink:href="#ArialMT-79"/>
     <use x="844.794921875" xlink:href="#ArialMT-20"/>
     <use x="872.578125" xlink:href="#ArialMT-44"/>
     <use x="944.794921875" xlink:href="#ArialMT-61"/>
     <use x="1000.41015625" xlink:href="#ArialMT-74"/>
     <use x="1028.19335938" xlink:href="#ArialMT-65"/>
     <use x="1083.80859375" xlink:href="#ArialMT-20"/>
     <use x="1111.59179688" xlink:href="#ArialMT-28"/>
     <use x="1144.89257812" xlink:href="#ArialMT-32"/>
     <use x="1200.5078125" xlink:href="#ArialMT-30"/>
     <use x="1256.12304688" xlink:href="#ArialMT-30"/>
     <use x="1311.73828125" xlink:href="#ArialMT-31"/>
     <use x="1367.35351562" xlink:href="#ArialMT-2013"/>
     <use x="1422.96875" xlink:href="#ArialMT-32"/>
     <use x="1478.58398438" xlink:href="#ArialMT-30"/>
     <use x="1534.19921875" xlink:href="#ArialMT-31"/>
     <use x="1589.81445312" xlink:href="#ArialMT-35"/>
     <use x="1645.4296875" xlink:href="#ArialMT-29"/>
    </g>
   </g>
  </g>
 </g>
 <defs>
  <clipPath id="pf4d2a2690c">
   <rect height="334.8" width="669.6" x="54.24685" y="42.627125"/>
  </clipPath>
 </defs>
</svg>
