<?xml version="1.0" encoding="utf-8" standalone="no"?>
<!DOCTYPE svg PUBLIC "-//W3C//DTD SVG 1.1//EN"
  "http://www.w3.org/Graphics/SVG/1.1/DTD/svg11.dtd">
<svg xmlns:xlink="http://www.w3.org/1999/xlink" width="757.4775pt" height="448.551875pt" viewBox="0 0 757.4775 448.551875" xmlns="http://www.w3.org/2000/svg" version="1.1">
 <metadata>
  <rdf:RDF xmlns:dc="http://purl.org/dc/elements/1.1/" xmlns:cc="http://creativecommons.org/ns#" xmlns:rdf="http://www.w3.org/1999/02/22-rdf-syntax-ns#">
   <cc:Work>
    <dc:type rdf:resource="http://purl.org/dc/dcmitype/StillImage"/>
    <dc:date>2022-07-10T08:56:18.779650</dc:date>
    <dc:format>image/svg+xml</dc:format>
    <dc:creator>
     <cc:Agent>
      <dc:title>Matplotlib v3.5.2, https://matplotlib.org/</dc:title>
     </cc:Agent>
    </dc:creator>
    <dc:contributor>
     <cc:Agent>
      <dc:title>Alexander Gude</dc:title>
     </cc:Agent>
    </dc:contributor>
    <dc:rights>
     <cc:Agent>
      <dc:title>CC-BY-SA 4.0</dc:title>
     </cc:Agent>
    </dc:rights>
   </cc:Work>
  </rdf:RDF>
 </metadata>
 <defs>
  <style type="text/css">*{stroke-linejoin: round; stroke-linecap: butt}</style>
 </defs>
 <g id="figure_1">
  <g id="patch_1">
   <path d="M 0 448.551875 
L 757.4775 448.551875 
L 757.4775 0 
L 0 0 
z
" style="fill: #ffffff"/>
  </g>
  <g id="axes_1">
   <g id="patch_2">
    <path d="M 80.6775 414.995625 
L 750.2775 414.995625 
L 750.2775 34.475625 
L 80.6775 34.475625 
z
" style="fill: #ffffff"/>
   </g>
   <g id="patch_3">
    <path d="M 199.799333 414.995625 
L 199.799333 34.475625 
L 253.324829 34.475625 
L 253.324829 414.995625 
z
" clip-path="url(#p62a7d08791)" style="fill: #fafafa; stroke: #fafafa; stroke-linejoin: miter"/>
   </g>
   <g id="patch_4">
    <path d="M 253.324829 414.995625 
L 253.324829 34.475625 
L 512.031393 34.475625 
L 512.031393 414.995625 
z
" clip-path="url(#p62a7d08791)" style="fill: #fafafa; stroke: #fafafa; stroke-linejoin: miter"/>
   </g>
   <g id="line2d_1">
    <path d="M 199.799333 414.995625 
L 199.799333 34.475625 
" clip-path="url(#p62a7d08791)" style="fill: none; stroke: #e6e6e6; stroke-width: 1.5; stroke-linecap: square"/>
   </g>
   <g id="line2d_2">
    <path d="M 253.324829 414.995625 
L 253.324829 34.475625 
" clip-path="url(#p62a7d08791)" style="fill: none; stroke: #e6e6e6; stroke-width: 1.5; stroke-linecap: square"/>
   </g>
   <g id="line2d_3">
    <path d="M 512.031393 414.995625 
L 512.031393 34.475625 
" clip-path="url(#p62a7d08791)" style="fill: none; stroke: #e6e6e6; stroke-width: 1.5; stroke-linecap: square"/>
   </g>
   <g id="line2d_4">
    <path d="M 80.6775 271.326545 
L 750.2775 271.326545 
" clip-path="url(#p62a7d08791)" style="fill: none; stroke-dasharray: 5.55,2.4; stroke-dashoffset: 0; stroke: #000000; stroke-width: 1.5"/>
   </g>
   <g id="line2d_5">
    <path d="M 80.6775 245.557231 
L 750.2775 245.557231 
" clip-path="url(#p62a7d08791)" style="fill: none; stroke: #000000; stroke-width: 1.5; stroke-linecap: square"/>
   </g>
   <g id="PathCollection_1">
    <defs>
     <path id="m530c5a6b84" d="M -0 7.071068 
L 7.071068 0 
L 0 -7.071068 
L -7.071068 -0 
z
" style="stroke: #800080"/>
    </defs>
    <g clip-path="url(#p62a7d08791)">
     <use xlink:href="#m530c5a6b84" x="111.11469" y="318.432851" style="fill: #800080; stroke: #800080"/>
     <use xlink:href="#m530c5a6b84" x="113.216164" y="318.432851" style="fill: #800080; stroke: #800080"/>
     <use xlink:href="#m530c5a6b84" x="122.139248" y="318.432851" style="fill: #800080; stroke: #800080"/>
     <use xlink:href="#m530c5a6b84" x="131.039824" y="318.432851" style="fill: #800080; stroke: #800080"/>
     <use xlink:href="#m530c5a6b84" x="139.971478" y="318.432851" style="fill: #800080; stroke: #800080"/>
     <use xlink:href="#m530c5a6b84" x="148.886096" y="318.432851" style="fill: #800080; stroke: #800080"/>
     <use xlink:href="#m530c5a6b84" x="157.807838" y="318.432851" style="fill: #800080; stroke: #800080"/>
     <use xlink:href="#m530c5a6b84" x="166.721939" y="318.432851" style="fill: #800080; stroke: #800080"/>
     <use xlink:href="#m530c5a6b84" x="175.655555" y="318.432851" style="fill: #800080; stroke: #800080"/>
     <use xlink:href="#m530c5a6b84" x="184.575748" y="306.372812" style="fill: #800080; stroke: #800080"/>
     <use xlink:href="#m530c5a6b84" x="193.498007" y="306.372812" style="fill: #800080; stroke: #800080"/>
     <use xlink:href="#m530c5a6b84" x="202.420265" y="306.372812" style="fill: #800080; stroke: #800080"/>
     <use xlink:href="#m530c5a6b84" x="523.586973" y="239.991059" style="fill: #800080; stroke: #800080"/>
     <use xlink:href="#m530c5a6b84" x="532.484451" y="239.991059" style="fill: #800080; stroke: #800080"/>
     <use xlink:href="#m530c5a6b84" x="541.409704" y="239.991059" style="fill: #800080; stroke: #800080"/>
     <use xlink:href="#m530c5a6b84" x="550.349618" y="239.991059" style="fill: #800080; stroke: #800080"/>
     <use xlink:href="#m530c5a6b84" x="559.256388" y="239.991059" style="fill: #800080; stroke: #800080"/>
     <use xlink:href="#m530c5a6b84" x="568.18732" y="239.991059" style="fill: #800080; stroke: #800080"/>
     <use xlink:href="#m530c5a6b84" x="577.113502" y="239.991059" style="fill: #800080; stroke: #800080"/>
     <use xlink:href="#m530c5a6b84" x="586.00974" y="239.991059" style="fill: #800080; stroke: #800080"/>
     <use xlink:href="#m530c5a6b84" x="594.948106" y="239.991059" style="fill: #800080; stroke: #800080"/>
     <use xlink:href="#m530c5a6b84" x="603.852398" y="239.991059" style="fill: #800080; stroke: #800080"/>
     <use xlink:href="#m530c5a6b84" x="612.772075" y="239.991059" style="fill: #800080; stroke: #800080"/>
     <use xlink:href="#m530c5a6b84" x="621.848281" y="215.355595" style="fill: #800080; stroke: #800080"/>
     <use xlink:href="#m530c5a6b84" x="630.617934" y="215.355595" style="fill: #800080; stroke: #800080"/>
     <use xlink:href="#m530c5a6b84" x="639.558674" y="215.355595" style="fill: #800080; stroke: #800080"/>
     <use xlink:href="#m530c5a6b84" x="648.453674" y="215.355595" style="fill: #800080; stroke: #800080"/>
     <use xlink:href="#m530c5a6b84" x="657.376655" y="215.355595" style="fill: #800080; stroke: #800080"/>
     <use xlink:href="#m530c5a6b84" x="666.309342" y="215.355595" style="fill: #800080; stroke: #800080"/>
     <use xlink:href="#m530c5a6b84" x="675.226851" y="215.355595" style="fill: #800080; stroke: #800080"/>
     <use xlink:href="#m530c5a6b84" x="684.153755" y="214.737131" style="fill: #800080; stroke: #800080"/>
     <use xlink:href="#m530c5a6b84" x="693.077666" y="214.737131" style="fill: #800080; stroke: #800080"/>
     <use xlink:href="#m530c5a6b84" x="701.989392" y="214.737131" style="fill: #800080; stroke: #800080"/>
     <use xlink:href="#m530c5a6b84" x="710.921459" y="214.737131" style="fill: #800080; stroke: #800080"/>
     <use xlink:href="#m530c5a6b84" x="719.841136" y="214.737131" style="fill: #800080; stroke: #800080"/>
    </g>
   </g>
   <g id="PathCollection_2">
    <defs>
     <path id="m000e23da05" d="M 0 5 
C 1.326016 5 2.597899 4.473168 3.535534 3.535534 
C 4.473168 2.597899 5 1.326016 5 0 
C 5 -1.326016 4.473168 -2.597899 3.535534 -3.535534 
C 2.597899 -4.473168 1.326016 -5 0 -5 
C -1.326016 -5 -2.597899 -4.473168 -3.535534 -3.535534 
C -4.473168 -2.597899 -5 -1.326016 -5 0 
C -5 1.326016 -4.473168 2.597899 -3.535534 3.535534 
C -2.597899 4.473168 -1.326016 5 0 5 
z
" style="stroke: #e62e2e"/>
    </defs>
    <g clip-path="url(#p62a7d08791)">
     <use xlink:href="#m000e23da05" x="111.114277" y="264.151481" style="fill: #e62e2e; stroke: #e62e2e"/>
     <use xlink:href="#m000e23da05" x="113.215751" y="264.151481" style="fill: #e62e2e; stroke: #e62e2e"/>
     <use xlink:href="#m000e23da05" x="122.138732" y="264.151481" style="fill: #e62e2e; stroke: #e62e2e"/>
     <use xlink:href="#m000e23da05" x="131.039411" y="264.151481" style="fill: #e62e2e; stroke: #e62e2e"/>
     <use xlink:href="#m000e23da05" x="139.970962" y="231.812446" style="fill: #e62e2e; stroke: #e62e2e"/>
     <use xlink:href="#m000e23da05" x="148.885683" y="231.812446" style="fill: #e62e2e; stroke: #e62e2e"/>
     <use xlink:href="#m000e23da05" x="157.807322" y="231.812446" style="fill: #e62e2e; stroke: #e62e2e"/>
     <use xlink:href="#m000e23da05" x="166.721423" y="231.812446" style="fill: #e62e2e; stroke: #e62e2e"/>
     <use xlink:href="#m000e23da05" x="175.655142" y="231.812446" style="fill: #e62e2e; stroke: #e62e2e"/>
     <use xlink:href="#m000e23da05" x="184.575335" y="231.812446" style="fill: #e62e2e; stroke: #e62e2e"/>
     <use xlink:href="#m000e23da05" x="193.497594" y="231.812446" style="fill: #e62e2e; stroke: #e62e2e"/>
     <use xlink:href="#m000e23da05" x="202.419852" y="231.812446" style="fill: #e62e2e; stroke: #e62e2e"/>
     <use xlink:href="#m000e23da05" x="211.327448" y="251.464898" style="fill: #e62e2e; stroke: #e62e2e"/>
     <use xlink:href="#m000e23da05" x="220.264988" y="251.464898" style="fill: #e62e2e; stroke: #e62e2e"/>
     <use xlink:href="#m000e23da05" x="229.195713" y="251.464898" style="fill: #e62e2e; stroke: #e62e2e"/>
     <use xlink:href="#m000e23da05" x="238.091022" y="251.464898" style="fill: #e62e2e; stroke: #e62e2e"/>
     <use xlink:href="#m000e23da05" x="247.019476" y="184.172807" style="fill: #e62e2e; stroke: #e62e2e"/>
     <use xlink:href="#m000e23da05" x="255.950717" y="164.788263" style="fill: #e62e2e; stroke: #e62e2e"/>
     <use xlink:href="#m000e23da05" x="264.863579" y="158.882565" style="fill: #e62e2e; stroke: #e62e2e"/>
     <use xlink:href="#m000e23da05" x="273.794614" y="161.169293" style="fill: #e62e2e; stroke: #e62e2e"/>
     <use xlink:href="#m000e23da05" x="282.705618" y="161.169293" style="fill: #e62e2e; stroke: #e62e2e"/>
     <use xlink:href="#m000e23da05" x="291.623333" y="155.081963" style="fill: #e62e2e; stroke: #e62e2e"/>
     <use xlink:href="#m000e23da05" x="300.554987" y="154.855646" style="fill: #e62e2e; stroke: #e62e2e"/>
     <use xlink:href="#m000e23da05" x="309.591028" y="155.574095" style="fill: #e62e2e; stroke: #e62e2e"/>
     <use xlink:href="#m000e23da05" x="318.390624" y="155.578785" style="fill: #e62e2e; stroke: #e62e2e"/>
     <use xlink:href="#m000e23da05" x="327.302351" y="154.914297" style="fill: #e62e2e; stroke: #e62e2e"/>
     <use xlink:href="#m000e23da05" x="336.229565" y="154.914297" style="fill: #e62e2e; stroke: #e62e2e"/>
     <use xlink:href="#m000e23da05" x="345.162871" y="151.989758" style="fill: #e62e2e; stroke: #e62e2e"/>
     <use xlink:href="#m000e23da05" x="354.087194" y="153.332422" style="fill: #e62e2e; stroke: #e62e2e"/>
     <use xlink:href="#m000e23da05" x="362.99541" y="154.304461" style="fill: #e62e2e; stroke: #e62e2e"/>
     <use xlink:href="#m000e23da05" x="371.929026" y="154.304461" style="fill: #e62e2e; stroke: #e62e2e"/>
     <use xlink:href="#m000e23da05" x="380.842199" y="154.304461" style="fill: #e62e2e; stroke: #e62e2e"/>
     <use xlink:href="#m000e23da05" x="389.748453" y="152.535645" style="fill: #e62e2e; stroke: #e62e2e"/>
     <use xlink:href="#m000e23da05" x="398.671744" y="150.931433" style="fill: #e62e2e; stroke: #e62e2e"/>
     <use xlink:href="#m000e23da05" x="407.604017" y="151.881816" style="fill: #e62e2e; stroke: #e62e2e"/>
     <use xlink:href="#m000e23da05" x="416.510891" y="151.881816" style="fill: #e62e2e; stroke: #e62e2e"/>
     <use xlink:href="#m000e23da05" x="425.457723" y="151.881816" style="fill: #e62e2e; stroke: #e62e2e"/>
     <use xlink:href="#m000e23da05" x="434.375438" y="151.881816" style="fill: #e62e2e; stroke: #e62e2e"/>
     <use xlink:href="#m000e23da05" x="443.280867" y="151.881816" style="fill: #e62e2e; stroke: #e62e2e"/>
     <use xlink:href="#m000e23da05" x="452.290992" y="154.08534" style="fill: #e62e2e; stroke: #e62e2e"/>
     <use xlink:href="#m000e23da05" x="461.123938" y="154.114263" style="fill: #e62e2e; stroke: #e62e2e"/>
     <use xlink:href="#m000e23da05" x="470.041963" y="154.114263" style="fill: #e62e2e; stroke: #e62e2e"/>
     <use xlink:href="#m000e23da05" x="478.962982" y="154.542508" style="fill: #e62e2e; stroke: #e62e2e"/>
     <use xlink:href="#m000e23da05" x="487.87729" y="154.215268" style="fill: #e62e2e; stroke: #e62e2e"/>
     <use xlink:href="#m000e23da05" x="496.797896" y="154.380244" style="fill: #e62e2e; stroke: #e62e2e"/>
     <use xlink:href="#m000e23da05" x="505.739772" y="154.380244" style="fill: #e62e2e; stroke: #e62e2e"/>
     <use xlink:href="#m000e23da05" x="514.661927" y="155.759294" style="fill: #e62e2e; stroke: #e62e2e"/>
     <use xlink:href="#m000e23da05" x="523.58656" y="155.759294" style="fill: #e62e2e; stroke: #e62e2e"/>
     <use xlink:href="#m000e23da05" x="532.484038" y="155.759294" style="fill: #e62e2e; stroke: #e62e2e"/>
     <use xlink:href="#m000e23da05" x="541.409187" y="155.759294" style="fill: #e62e2e; stroke: #e62e2e"/>
     <use xlink:href="#m000e23da05" x="550.349102" y="155.759294" style="fill: #e62e2e; stroke: #e62e2e"/>
     <use xlink:href="#m000e23da05" x="559.255975" y="155.759294" style="fill: #e62e2e; stroke: #e62e2e"/>
     <use xlink:href="#m000e23da05" x="568.186803" y="155.759294" style="fill: #e62e2e; stroke: #e62e2e"/>
     <use xlink:href="#m000e23da05" x="577.113089" y="158.759501" style="fill: #e62e2e; stroke: #e62e2e"/>
     <use xlink:href="#m000e23da05" x="586.009327" y="158.759501" style="fill: #e62e2e; stroke: #e62e2e"/>
     <use xlink:href="#m000e23da05" x="594.947693" y="158.759501" style="fill: #e62e2e; stroke: #e62e2e"/>
     <use xlink:href="#m000e23da05" x="603.851985" y="165.376412" style="fill: #e62e2e; stroke: #e62e2e"/>
     <use xlink:href="#m000e23da05" x="612.771662" y="165.376412" style="fill: #e62e2e; stroke: #e62e2e"/>
     <use xlink:href="#m000e23da05" x="630.617521" y="219.688004" style="fill: #e62e2e; stroke: #e62e2e"/>
     <use xlink:href="#m000e23da05" x="639.558158" y="219.688004" style="fill: #e62e2e; stroke: #e62e2e"/>
     <use xlink:href="#m000e23da05" x="648.453261" y="219.688004" style="fill: #e62e2e; stroke: #e62e2e"/>
     <use xlink:href="#m000e23da05" x="657.376139" y="219.688004" style="fill: #e62e2e; stroke: #e62e2e"/>
     <use xlink:href="#m000e23da05" x="666.308929" y="219.688004" style="fill: #e62e2e; stroke: #e62e2e"/>
     <use xlink:href="#m000e23da05" x="675.226438" y="219.688004" style="fill: #e62e2e; stroke: #e62e2e"/>
     <use xlink:href="#m000e23da05" x="684.153239" y="219.688004" style="fill: #e62e2e; stroke: #e62e2e"/>
     <use xlink:href="#m000e23da05" x="693.077149" y="219.688004" style="fill: #e62e2e; stroke: #e62e2e"/>
     <use xlink:href="#m000e23da05" x="701.988979" y="219.688004" style="fill: #e62e2e; stroke: #e62e2e"/>
     <use xlink:href="#m000e23da05" x="710.921046" y="219.688004" style="fill: #e62e2e; stroke: #e62e2e"/>
     <use xlink:href="#m000e23da05" x="719.840723" y="219.688004" style="fill: #e62e2e; stroke: #e62e2e"/>
    </g>
   </g>
   <g id="PathCollection_3">
    <defs>
     <path id="m7a0696921f" d="M 0 -5 
L -5 5 
L 5 5 
z
" style="stroke: #006aff"/>
    </defs>
    <g clip-path="url(#p62a7d08791)">
     <use xlink:href="#m7a0696921f" x="111.113864" y="397.699261" style="fill: #006aff; stroke: #006aff"/>
     <use xlink:href="#m7a0696921f" x="113.215338" y="389.040772" style="fill: #006aff; stroke: #006aff"/>
     <use xlink:href="#m7a0696921f" x="122.138319" y="389.040772" style="fill: #006aff; stroke: #006aff"/>
     <use xlink:href="#m7a0696921f" x="131.038998" y="389.040772" style="fill: #006aff; stroke: #006aff"/>
     <use xlink:href="#m7a0696921f" x="139.970549" y="389.040772" style="fill: #006aff; stroke: #006aff"/>
     <use xlink:href="#m7a0696921f" x="148.88527" y="389.040772" style="fill: #006aff; stroke: #006aff"/>
     <use xlink:href="#m7a0696921f" x="157.806909" y="382.753059" style="fill: #006aff; stroke: #006aff"/>
     <use xlink:href="#m7a0696921f" x="166.721113" y="382.753059" style="fill: #006aff; stroke: #006aff"/>
     <use xlink:href="#m7a0696921f" x="175.654729" y="379.145355" style="fill: #006aff; stroke: #006aff"/>
     <use xlink:href="#m7a0696921f" x="184.574922" y="379.145355" style="fill: #006aff; stroke: #006aff"/>
     <use xlink:href="#m7a0696921f" x="193.497181" y="373.579183" style="fill: #006aff; stroke: #006aff"/>
     <use xlink:href="#m7a0696921f" x="202.419439" y="373.579183" style="fill: #006aff; stroke: #006aff"/>
     <use xlink:href="#m7a0696921f" x="211.327035" y="368.425321" style="fill: #006aff; stroke: #006aff"/>
     <use xlink:href="#m7a0696921f" x="220.264575" y="368.425321" style="fill: #006aff; stroke: #006aff"/>
     <use xlink:href="#m7a0696921f" x="229.1953" y="368.425321" style="fill: #006aff; stroke: #006aff"/>
     <use xlink:href="#m7a0696921f" x="238.090506" y="368.425321" style="fill: #006aff; stroke: #006aff"/>
     <use xlink:href="#m7a0696921f" x="425.45731" y="51.771989" style="fill: #006aff; stroke: #006aff"/>
     <use xlink:href="#m7a0696921f" x="434.375025" y="51.771989" style="fill: #006aff; stroke: #006aff"/>
     <use xlink:href="#m7a0696921f" x="443.280454" y="219.27253" style="fill: #006aff; stroke: #006aff"/>
     <use xlink:href="#m7a0696921f" x="452.290579" y="219.27253" style="fill: #006aff; stroke: #006aff"/>
     <use xlink:href="#m7a0696921f" x="461.123525" y="127.327618" style="fill: #006aff; stroke: #006aff"/>
     <use xlink:href="#m7a0696921f" x="470.04155" y="127.327618" style="fill: #006aff; stroke: #006aff"/>
     <use xlink:href="#m7a0696921f" x="478.962569" y="135.676875" style="fill: #006aff; stroke: #006aff"/>
     <use xlink:href="#m7a0696921f" x="487.876877" y="135.676875" style="fill: #006aff; stroke: #006aff"/>
     <use xlink:href="#m7a0696921f" x="496.797483" y="261.224974" style="fill: #006aff; stroke: #006aff"/>
     <use xlink:href="#m7a0696921f" x="505.739359" y="261.224974" style="fill: #006aff; stroke: #006aff"/>
     <use xlink:href="#m7a0696921f" x="514.661514" y="216.695599" style="fill: #006aff; stroke: #006aff"/>
     <use xlink:href="#m7a0696921f" x="523.586147" y="216.695599" style="fill: #006aff; stroke: #006aff"/>
     <use xlink:href="#m7a0696921f" x="532.483625" y="267.306532" style="fill: #006aff; stroke: #006aff"/>
     <use xlink:href="#m7a0696921f" x="541.408774" y="267.306532" style="fill: #006aff; stroke: #006aff"/>
     <use xlink:href="#m7a0696921f" x="550.348689" y="253.391102" style="fill: #006aff; stroke: #006aff"/>
     <use xlink:href="#m7a0696921f" x="559.255562" y="253.391102" style="fill: #006aff; stroke: #006aff"/>
     <use xlink:href="#m7a0696921f" x="568.186494" y="242.980299" style="fill: #006aff; stroke: #006aff"/>
     <use xlink:href="#m7a0696921f" x="577.112676" y="242.980299" style="fill: #006aff; stroke: #006aff"/>
     <use xlink:href="#m7a0696921f" x="586.008914" y="242.980299" style="fill: #006aff; stroke: #006aff"/>
     <use xlink:href="#m7a0696921f" x="594.94728" y="242.980299" style="fill: #006aff; stroke: #006aff"/>
     <use xlink:href="#m7a0696921f" x="603.851572" y="242.980299" style="fill: #006aff; stroke: #006aff"/>
     <use xlink:href="#m7a0696921f" x="612.771249" y="242.980299" style="fill: #006aff; stroke: #006aff"/>
     <use xlink:href="#m7a0696921f" x="621.80409" y="242.980299" style="fill: #006aff; stroke: #006aff"/>
     <use xlink:href="#m7a0696921f" x="630.617108" y="242.980299" style="fill: #006aff; stroke: #006aff"/>
     <use xlink:href="#m7a0696921f" x="639.557745" y="242.980299" style="fill: #006aff; stroke: #006aff"/>
     <use xlink:href="#m7a0696921f" x="648.452848" y="242.980299" style="fill: #006aff; stroke: #006aff"/>
     <use xlink:href="#m7a0696921f" x="657.375829" y="242.980299" style="fill: #006aff; stroke: #006aff"/>
     <use xlink:href="#m7a0696921f" x="666.308516" y="242.980299" style="fill: #006aff; stroke: #006aff"/>
     <use xlink:href="#m7a0696921f" x="675.226128" y="239.063364" style="fill: #006aff; stroke: #006aff"/>
     <use xlink:href="#m7a0696921f" x="684.152929" y="239.063364" style="fill: #006aff; stroke: #006aff"/>
     <use xlink:href="#m7a0696921f" x="693.07684" y="239.063364" style="fill: #006aff; stroke: #006aff"/>
     <use xlink:href="#m7a0696921f" x="701.988566" y="239.063364" style="fill: #006aff; stroke: #006aff"/>
     <use xlink:href="#m7a0696921f" x="710.920633" y="239.063364" style="fill: #006aff; stroke: #006aff"/>
     <use xlink:href="#m7a0696921f" x="719.84031" y="239.063364" style="fill: #006aff; stroke: #006aff"/>
    </g>
   </g>
   <g id="matplotlib.axis_1">
    <g id="xtick_1">
     <g id="text_1">
      <!-- Listed -->
      <g transform="translate(169.818083 437.1925)scale(0.2 -0.2)">
       <defs>
        <path id="DejaVuSans-4c" d="M 628 4666 
L 1259 4666 
L 1259 531 
L 3531 531 
L 3531 0 
L 628 0 
L 628 4666 
z
" transform="scale(0.015625)"/>
        <path id="DejaVuSans-69" d="M 603 3500 
L 1178 3500 
L 1178 0 
L 603 0 
L 603 3500 
z
M 603 4863 
L 1178 4863 
L 1178 4134 
L 603 4134 
L 603 4863 
z
" transform="scale(0.015625)"/>
        <path id="DejaVuSans-73" d="M 2834 3397 
L 2834 2853 
Q 2591 2978 2328 3040 
Q 2066 3103 1784 3103 
Q 1356 3103 1142 2972 
Q 928 2841 928 2578 
Q 928 2378 1081 2264 
Q 1234 2150 1697 2047 
L 1894 2003 
Q 2506 1872 2764 1633 
Q 3022 1394 3022 966 
Q 3022 478 2636 193 
Q 2250 -91 1575 -91 
Q 1294 -91 989 -36 
Q 684 19 347 128 
L 347 722 
Q 666 556 975 473 
Q 1284 391 1588 391 
Q 1994 391 2212 530 
Q 2431 669 2431 922 
Q 2431 1156 2273 1281 
Q 2116 1406 1581 1522 
L 1381 1569 
Q 847 1681 609 1914 
Q 372 2147 372 2553 
Q 372 3047 722 3315 
Q 1072 3584 1716 3584 
Q 2034 3584 2315 3537 
Q 2597 3491 2834 3397 
z
" transform="scale(0.015625)"/>
        <path id="DejaVuSans-74" d="M 1172 4494 
L 1172 3500 
L 2356 3500 
L 2356 3053 
L 1172 3053 
L 1172 1153 
Q 1172 725 1289 603 
Q 1406 481 1766 481 
L 2356 481 
L 2356 0 
L 1766 0 
Q 1100 0 847 248 
Q 594 497 594 1153 
L 594 3053 
L 172 3053 
L 172 3500 
L 594 3500 
L 594 4494 
L 1172 4494 
z
" transform="scale(0.015625)"/>
        <path id="DejaVuSans-65" d="M 3597 1894 
L 3597 1613 
L 953 1613 
Q 991 1019 1311 708 
Q 1631 397 2203 397 
Q 2534 397 2845 478 
Q 3156 559 3463 722 
L 3463 178 
Q 3153 47 2828 -22 
Q 2503 -91 2169 -91 
Q 1331 -91 842 396 
Q 353 884 353 1716 
Q 353 2575 817 3079 
Q 1281 3584 2069 3584 
Q 2775 3584 3186 3129 
Q 3597 2675 3597 1894 
z
M 3022 2063 
Q 3016 2534 2758 2815 
Q 2500 3097 2075 3097 
Q 1594 3097 1305 2825 
Q 1016 2553 972 2059 
L 3022 2063 
z
" transform="scale(0.015625)"/>
        <path id="DejaVuSans-64" d="M 2906 2969 
L 2906 4863 
L 3481 4863 
L 3481 0 
L 2906 0 
L 2906 525 
Q 2725 213 2448 61 
Q 2172 -91 1784 -91 
Q 1150 -91 751 415 
Q 353 922 353 1747 
Q 353 2572 751 3078 
Q 1150 3584 1784 3584 
Q 2172 3584 2448 3432 
Q 2725 3281 2906 2969 
z
M 947 1747 
Q 947 1113 1208 752 
Q 1469 391 1925 391 
Q 2381 391 2643 752 
Q 2906 1113 2906 1747 
Q 2906 2381 2643 2742 
Q 2381 3103 1925 3103 
Q 1469 3103 1208 2742 
Q 947 2381 947 1747 
z
" transform="scale(0.015625)"/>
       </defs>
       <use xlink:href="#DejaVuSans-4c"/>
       <use xlink:href="#DejaVuSans-69" x="55.712891"/>
       <use xlink:href="#DejaVuSans-73" x="83.496094"/>
       <use xlink:href="#DejaVuSans-74" x="135.595703"/>
       <use xlink:href="#DejaVuSans-65" x="174.804688"/>
       <use xlink:href="#DejaVuSans-64" x="236.328125"/>
      </g>
     </g>
    </g>
    <g id="xtick_2">
     <g id="text_2">
      <!-- Pending -->
      <g transform="translate(240.117264 437.1925)scale(0.2 -0.2)">
       <defs>
        <path id="DejaVuSans-50" d="M 1259 4147 
L 1259 2394 
L 2053 2394 
Q 2494 2394 2734 2622 
Q 2975 2850 2975 3272 
Q 2975 3691 2734 3919 
Q 2494 4147 2053 4147 
L 1259 4147 
z
M 628 4666 
L 2053 4666 
Q 2838 4666 3239 4311 
Q 3641 3956 3641 3272 
Q 3641 2581 3239 2228 
Q 2838 1875 2053 1875 
L 1259 1875 
L 1259 0 
L 628 0 
L 628 4666 
z
" transform="scale(0.015625)"/>
        <path id="DejaVuSans-6e" d="M 3513 2113 
L 3513 0 
L 2938 0 
L 2938 2094 
Q 2938 2591 2744 2837 
Q 2550 3084 2163 3084 
Q 1697 3084 1428 2787 
Q 1159 2491 1159 1978 
L 1159 0 
L 581 0 
L 581 3500 
L 1159 3500 
L 1159 2956 
Q 1366 3272 1645 3428 
Q 1925 3584 2291 3584 
Q 2894 3584 3203 3211 
Q 3513 2838 3513 2113 
z
" transform="scale(0.015625)"/>
        <path id="DejaVuSans-67" d="M 2906 1791 
Q 2906 2416 2648 2759 
Q 2391 3103 1925 3103 
Q 1463 3103 1205 2759 
Q 947 2416 947 1791 
Q 947 1169 1205 825 
Q 1463 481 1925 481 
Q 2391 481 2648 825 
Q 2906 1169 2906 1791 
z
M 3481 434 
Q 3481 -459 3084 -895 
Q 2688 -1331 1869 -1331 
Q 1566 -1331 1297 -1286 
Q 1028 -1241 775 -1147 
L 775 -588 
Q 1028 -725 1275 -790 
Q 1522 -856 1778 -856 
Q 2344 -856 2625 -561 
Q 2906 -266 2906 331 
L 2906 616 
Q 2728 306 2450 153 
Q 2172 0 1784 0 
Q 1141 0 747 490 
Q 353 981 353 1791 
Q 353 2603 747 3093 
Q 1141 3584 1784 3584 
Q 2172 3584 2450 3431 
Q 2728 3278 2906 2969 
L 2906 3500 
L 3481 3500 
L 3481 434 
z
" transform="scale(0.015625)"/>
       </defs>
       <use xlink:href="#DejaVuSans-50"/>
       <use xlink:href="#DejaVuSans-65" x="56.677734"/>
       <use xlink:href="#DejaVuSans-6e" x="118.201172"/>
       <use xlink:href="#DejaVuSans-64" x="181.580078"/>
       <use xlink:href="#DejaVuSans-69" x="245.056641"/>
       <use xlink:href="#DejaVuSans-6e" x="272.839844"/>
       <use xlink:href="#DejaVuSans-67" x="336.21875"/>
      </g>
     </g>
    </g>
    <g id="xtick_3">
     <g id="text_3">
      <!-- Sold -->
      <g transform="translate(490.437643 437.1925)scale(0.2 -0.2)">
       <defs>
        <path id="DejaVuSans-53" d="M 3425 4513 
L 3425 3897 
Q 3066 4069 2747 4153 
Q 2428 4238 2131 4238 
Q 1616 4238 1336 4038 
Q 1056 3838 1056 3469 
Q 1056 3159 1242 3001 
Q 1428 2844 1947 2747 
L 2328 2669 
Q 3034 2534 3370 2195 
Q 3706 1856 3706 1288 
Q 3706 609 3251 259 
Q 2797 -91 1919 -91 
Q 1588 -91 1214 -16 
Q 841 59 441 206 
L 441 856 
Q 825 641 1194 531 
Q 1563 422 1919 422 
Q 2459 422 2753 634 
Q 3047 847 3047 1241 
Q 3047 1584 2836 1778 
Q 2625 1972 2144 2069 
L 1759 2144 
Q 1053 2284 737 2584 
Q 422 2884 422 3419 
Q 422 4038 858 4394 
Q 1294 4750 2059 4750 
Q 2388 4750 2728 4690 
Q 3069 4631 3425 4513 
z
" transform="scale(0.015625)"/>
        <path id="DejaVuSans-6f" d="M 1959 3097 
Q 1497 3097 1228 2736 
Q 959 2375 959 1747 
Q 959 1119 1226 758 
Q 1494 397 1959 397 
Q 2419 397 2687 759 
Q 2956 1122 2956 1747 
Q 2956 2369 2687 2733 
Q 2419 3097 1959 3097 
z
M 1959 3584 
Q 2709 3584 3137 3096 
Q 3566 2609 3566 1747 
Q 3566 888 3137 398 
Q 2709 -91 1959 -91 
Q 1206 -91 779 398 
Q 353 888 353 1747 
Q 353 2609 779 3096 
Q 1206 3584 1959 3584 
z
" transform="scale(0.015625)"/>
        <path id="DejaVuSans-6c" d="M 603 4863 
L 1178 4863 
L 1178 0 
L 603 0 
L 603 4863 
z
" transform="scale(0.015625)"/>
       </defs>
       <use xlink:href="#DejaVuSans-53"/>
       <use xlink:href="#DejaVuSans-6f" x="63.476562"/>
       <use xlink:href="#DejaVuSans-6c" x="124.658203"/>
       <use xlink:href="#DejaVuSans-64" x="152.441406"/>
      </g>
     </g>
    </g>
   </g>
   <g id="matplotlib.axis_2">
    <g id="ytick_1">
     <g id="text_4">
      <!-- $1,050K -->
      <g transform="translate(7.2 380.482551)scale(0.16 -0.16)">
       <defs>
        <path id="DejaVuSans-24" d="M 2163 -941 
L 1850 -941 
L 1847 0 
Q 1519 6 1191 76 
Q 863 147 531 288 
L 531 850 
Q 850 650 1176 548 
Q 1503 447 1850 444 
L 1850 1869 
Q 1159 1981 845 2250 
Q 531 2519 531 2988 
Q 531 3497 872 3790 
Q 1213 4084 1850 4128 
L 1850 4863 
L 2163 4863 
L 2163 4138 
Q 2453 4125 2725 4076 
Q 2997 4028 3256 3944 
L 3256 3397 
Q 2997 3528 2723 3600 
Q 2450 3672 2163 3684 
L 2163 2350 
Q 2872 2241 3206 1959 
Q 3541 1678 3541 1191 
Q 3541 663 3186 358 
Q 2831 53 2163 6 
L 2163 -941 
z
M 1850 2406 
L 1850 3688 
Q 1488 3647 1297 3481 
Q 1106 3316 1106 3041 
Q 1106 2772 1282 2622 
Q 1459 2472 1850 2406 
z
M 2163 1806 
L 2163 453 
Q 2559 506 2761 678 
Q 2963 850 2963 1131 
Q 2963 1406 2770 1568 
Q 2578 1731 2163 1806 
z
" transform="scale(0.015625)"/>
        <path id="DejaVuSans-31" d="M 794 531 
L 1825 531 
L 1825 4091 
L 703 3866 
L 703 4441 
L 1819 4666 
L 2450 4666 
L 2450 531 
L 3481 531 
L 3481 0 
L 794 0 
L 794 531 
z
" transform="scale(0.015625)"/>
        <path id="DejaVuSans-2c" d="M 750 794 
L 1409 794 
L 1409 256 
L 897 -744 
L 494 -744 
L 750 256 
L 750 794 
z
" transform="scale(0.015625)"/>
        <path id="DejaVuSans-30" d="M 2034 4250 
Q 1547 4250 1301 3770 
Q 1056 3291 1056 2328 
Q 1056 1369 1301 889 
Q 1547 409 2034 409 
Q 2525 409 2770 889 
Q 3016 1369 3016 2328 
Q 3016 3291 2770 3770 
Q 2525 4250 2034 4250 
z
M 2034 4750 
Q 2819 4750 3233 4129 
Q 3647 3509 3647 2328 
Q 3647 1150 3233 529 
Q 2819 -91 2034 -91 
Q 1250 -91 836 529 
Q 422 1150 422 2328 
Q 422 3509 836 4129 
Q 1250 4750 2034 4750 
z
" transform="scale(0.015625)"/>
        <path id="DejaVuSans-35" d="M 691 4666 
L 3169 4666 
L 3169 4134 
L 1269 4134 
L 1269 2991 
Q 1406 3038 1543 3061 
Q 1681 3084 1819 3084 
Q 2600 3084 3056 2656 
Q 3513 2228 3513 1497 
Q 3513 744 3044 326 
Q 2575 -91 1722 -91 
Q 1428 -91 1123 -41 
Q 819 9 494 109 
L 494 744 
Q 775 591 1075 516 
Q 1375 441 1709 441 
Q 2250 441 2565 725 
Q 2881 1009 2881 1497 
Q 2881 1984 2565 2268 
Q 2250 2553 1709 2553 
Q 1456 2553 1204 2497 
Q 953 2441 691 2322 
L 691 4666 
z
" transform="scale(0.015625)"/>
        <path id="DejaVuSans-4b" d="M 628 4666 
L 1259 4666 
L 1259 2694 
L 3353 4666 
L 4166 4666 
L 1850 2491 
L 4331 0 
L 3500 0 
L 1259 2247 
L 1259 0 
L 628 0 
L 628 4666 
z
" transform="scale(0.015625)"/>
       </defs>
       <use xlink:href="#DejaVuSans-24"/>
       <use xlink:href="#DejaVuSans-31" x="63.623047"/>
       <use xlink:href="#DejaVuSans-2c" x="127.246094"/>
       <use xlink:href="#DejaVuSans-30" x="159.033203"/>
       <use xlink:href="#DejaVuSans-35" x="222.65625"/>
       <use xlink:href="#DejaVuSans-30" x="286.279297"/>
       <use xlink:href="#DejaVuSans-4b" x="349.902344"/>
      </g>
     </g>
    </g>
    <g id="ytick_2">
     <g id="text_5">
      <!-- $1,100K -->
      <g transform="translate(7.2 328.943923)scale(0.16 -0.16)">
       <use xlink:href="#DejaVuSans-24"/>
       <use xlink:href="#DejaVuSans-31" x="63.623047"/>
       <use xlink:href="#DejaVuSans-2c" x="127.246094"/>
       <use xlink:href="#DejaVuSans-31" x="159.033203"/>
       <use xlink:href="#DejaVuSans-30" x="222.65625"/>
       <use xlink:href="#DejaVuSans-30" x="286.279297"/>
       <use xlink:href="#DejaVuSans-4b" x="349.902344"/>
      </g>
     </g>
    </g>
    <g id="ytick_3">
     <g id="text_6">
      <!-- $1,150K -->
      <g transform="translate(7.2 277.405295)scale(0.16 -0.16)">
       <use xlink:href="#DejaVuSans-24"/>
       <use xlink:href="#DejaVuSans-31" x="63.623047"/>
       <use xlink:href="#DejaVuSans-2c" x="127.246094"/>
       <use xlink:href="#DejaVuSans-31" x="159.033203"/>
       <use xlink:href="#DejaVuSans-35" x="222.65625"/>
       <use xlink:href="#DejaVuSans-30" x="286.279297"/>
       <use xlink:href="#DejaVuSans-4b" x="349.902344"/>
      </g>
     </g>
    </g>
    <g id="ytick_4">
     <g id="text_7">
      <!-- $1,200K -->
      <g transform="translate(7.2 225.866667)scale(0.16 -0.16)">
       <defs>
        <path id="DejaVuSans-32" d="M 1228 531 
L 3431 531 
L 3431 0 
L 469 0 
L 469 531 
Q 828 903 1448 1529 
Q 2069 2156 2228 2338 
Q 2531 2678 2651 2914 
Q 2772 3150 2772 3378 
Q 2772 3750 2511 3984 
Q 2250 4219 1831 4219 
Q 1534 4219 1204 4116 
Q 875 4013 500 3803 
L 500 4441 
Q 881 4594 1212 4672 
Q 1544 4750 1819 4750 
Q 2544 4750 2975 4387 
Q 3406 4025 3406 3419 
Q 3406 3131 3298 2873 
Q 3191 2616 2906 2266 
Q 2828 2175 2409 1742 
Q 1991 1309 1228 531 
z
" transform="scale(0.015625)"/>
       </defs>
       <use xlink:href="#DejaVuSans-24"/>
       <use xlink:href="#DejaVuSans-31" x="63.623047"/>
       <use xlink:href="#DejaVuSans-2c" x="127.246094"/>
       <use xlink:href="#DejaVuSans-32" x="159.033203"/>
       <use xlink:href="#DejaVuSans-30" x="222.65625"/>
       <use xlink:href="#DejaVuSans-30" x="286.279297"/>
       <use xlink:href="#DejaVuSans-4b" x="349.902344"/>
      </g>
     </g>
    </g>
    <g id="ytick_5">
     <g id="text_8">
      <!-- $1,250K -->
      <g transform="translate(7.2 174.328038)scale(0.16 -0.16)">
       <use xlink:href="#DejaVuSans-24"/>
       <use xlink:href="#DejaVuSans-31" x="63.623047"/>
       <use xlink:href="#DejaVuSans-2c" x="127.246094"/>
       <use xlink:href="#DejaVuSans-32" x="159.033203"/>
       <use xlink:href="#DejaVuSans-35" x="222.65625"/>
       <use xlink:href="#DejaVuSans-30" x="286.279297"/>
       <use xlink:href="#DejaVuSans-4b" x="349.902344"/>
      </g>
     </g>
    </g>
    <g id="ytick_6">
     <g id="text_9">
      <!-- $1,300K -->
      <g transform="translate(7.2 122.78941)scale(0.16 -0.16)">
       <defs>
        <path id="DejaVuSans-33" d="M 2597 2516 
Q 3050 2419 3304 2112 
Q 3559 1806 3559 1356 
Q 3559 666 3084 287 
Q 2609 -91 1734 -91 
Q 1441 -91 1130 -33 
Q 819 25 488 141 
L 488 750 
Q 750 597 1062 519 
Q 1375 441 1716 441 
Q 2309 441 2620 675 
Q 2931 909 2931 1356 
Q 2931 1769 2642 2001 
Q 2353 2234 1838 2234 
L 1294 2234 
L 1294 2753 
L 1863 2753 
Q 2328 2753 2575 2939 
Q 2822 3125 2822 3475 
Q 2822 3834 2567 4026 
Q 2313 4219 1838 4219 
Q 1578 4219 1281 4162 
Q 984 4106 628 3988 
L 628 4550 
Q 988 4650 1302 4700 
Q 1616 4750 1894 4750 
Q 2613 4750 3031 4423 
Q 3450 4097 3450 3541 
Q 3450 3153 3228 2886 
Q 3006 2619 2597 2516 
z
" transform="scale(0.015625)"/>
       </defs>
       <use xlink:href="#DejaVuSans-24"/>
       <use xlink:href="#DejaVuSans-31" x="63.623047"/>
       <use xlink:href="#DejaVuSans-2c" x="127.246094"/>
       <use xlink:href="#DejaVuSans-33" x="159.033203"/>
       <use xlink:href="#DejaVuSans-30" x="222.65625"/>
       <use xlink:href="#DejaVuSans-30" x="286.279297"/>
       <use xlink:href="#DejaVuSans-4b" x="349.902344"/>
      </g>
     </g>
    </g>
    <g id="ytick_7">
     <g id="text_10">
      <!-- $1,350K -->
      <g transform="translate(7.2 71.250782)scale(0.16 -0.16)">
       <use xlink:href="#DejaVuSans-24"/>
       <use xlink:href="#DejaVuSans-31" x="63.623047"/>
       <use xlink:href="#DejaVuSans-2c" x="127.246094"/>
       <use xlink:href="#DejaVuSans-33" x="159.033203"/>
       <use xlink:href="#DejaVuSans-35" x="222.65625"/>
       <use xlink:href="#DejaVuSans-30" x="286.279297"/>
       <use xlink:href="#DejaVuSans-4b" x="349.902344"/>
      </g>
     </g>
    </g>
   </g>
   <g id="text_11">
    <!-- Redfin -->
    <g style="fill: #e62e2e" transform="translate(83.827425 219.787917)scale(0.24 -0.24)">
     <defs>
      <path id="DejaVuSans-52" d="M 2841 2188 
Q 3044 2119 3236 1894 
Q 3428 1669 3622 1275 
L 4263 0 
L 3584 0 
L 2988 1197 
Q 2756 1666 2539 1819 
Q 2322 1972 1947 1972 
L 1259 1972 
L 1259 0 
L 628 0 
L 628 4666 
L 2053 4666 
Q 2853 4666 3247 4331 
Q 3641 3997 3641 3322 
Q 3641 2881 3436 2590 
Q 3231 2300 2841 2188 
z
M 1259 4147 
L 1259 2491 
L 2053 2491 
Q 2509 2491 2742 2702 
Q 2975 2913 2975 3322 
Q 2975 3731 2742 3939 
Q 2509 4147 2053 4147 
L 1259 4147 
z
" transform="scale(0.015625)"/>
      <path id="DejaVuSans-66" d="M 2375 4863 
L 2375 4384 
L 1825 4384 
Q 1516 4384 1395 4259 
Q 1275 4134 1275 3809 
L 1275 3500 
L 2222 3500 
L 2222 3053 
L 1275 3053 
L 1275 0 
L 697 0 
L 697 3053 
L 147 3053 
L 147 3500 
L 697 3500 
L 697 3744 
Q 697 4328 969 4595 
Q 1241 4863 1831 4863 
L 2375 4863 
z
" transform="scale(0.015625)"/>
     </defs>
     <use xlink:href="#DejaVuSans-52"/>
     <use xlink:href="#DejaVuSans-65" x="64.982422"/>
     <use xlink:href="#DejaVuSans-64" x="126.505859"/>
     <use xlink:href="#DejaVuSans-66" x="189.982422"/>
     <use xlink:href="#DejaVuSans-69" x="225.1875"/>
     <use xlink:href="#DejaVuSans-6e" x="252.970703"/>
    </g>
   </g>
   <g id="text_12">
    <!-- Zillow -->
    <g style="fill: #006aff" transform="translate(83.827425 377.496119)scale(0.24 -0.24)">
     <defs>
      <path id="DejaVuSans-5a" d="M 359 4666 
L 4025 4666 
L 4025 4184 
L 1075 531 
L 4097 531 
L 4097 0 
L 288 0 
L 288 481 
L 3238 4134 
L 359 4134 
L 359 4666 
z
" transform="scale(0.015625)"/>
      <path id="DejaVuSans-77" d="M 269 3500 
L 844 3500 
L 1563 769 
L 2278 3500 
L 2956 3500 
L 3675 769 
L 4391 3500 
L 4966 3500 
L 4050 0 
L 3372 0 
L 2619 2869 
L 1863 0 
L 1184 0 
L 269 3500 
z
" transform="scale(0.015625)"/>
     </defs>
     <use xlink:href="#DejaVuSans-5a"/>
     <use xlink:href="#DejaVuSans-69" x="68.505859"/>
     <use xlink:href="#DejaVuSans-6c" x="96.289062"/>
     <use xlink:href="#DejaVuSans-6c" x="124.072266"/>
     <use xlink:href="#DejaVuSans-6f" x="151.855469"/>
     <use xlink:href="#DejaVuSans-77" x="213.037109"/>
    </g>
   </g>
   <g id="text_13">
    <!-- Realtor.com -->
    <g style="fill: #800080" transform="translate(83.827425 349.66526)scale(0.24 -0.24)">
     <defs>
      <path id="DejaVuSans-61" d="M 2194 1759 
Q 1497 1759 1228 1600 
Q 959 1441 959 1056 
Q 959 750 1161 570 
Q 1363 391 1709 391 
Q 2188 391 2477 730 
Q 2766 1069 2766 1631 
L 2766 1759 
L 2194 1759 
z
M 3341 1997 
L 3341 0 
L 2766 0 
L 2766 531 
Q 2569 213 2275 61 
Q 1981 -91 1556 -91 
Q 1019 -91 701 211 
Q 384 513 384 1019 
Q 384 1609 779 1909 
Q 1175 2209 1959 2209 
L 2766 2209 
L 2766 2266 
Q 2766 2663 2505 2880 
Q 2244 3097 1772 3097 
Q 1472 3097 1187 3025 
Q 903 2953 641 2809 
L 641 3341 
Q 956 3463 1253 3523 
Q 1550 3584 1831 3584 
Q 2591 3584 2966 3190 
Q 3341 2797 3341 1997 
z
" transform="scale(0.015625)"/>
      <path id="DejaVuSans-72" d="M 2631 2963 
Q 2534 3019 2420 3045 
Q 2306 3072 2169 3072 
Q 1681 3072 1420 2755 
Q 1159 2438 1159 1844 
L 1159 0 
L 581 0 
L 581 3500 
L 1159 3500 
L 1159 2956 
Q 1341 3275 1631 3429 
Q 1922 3584 2338 3584 
Q 2397 3584 2469 3576 
Q 2541 3569 2628 3553 
L 2631 2963 
z
" transform="scale(0.015625)"/>
      <path id="DejaVuSans-2e" d="M 684 794 
L 1344 794 
L 1344 0 
L 684 0 
L 684 794 
z
" transform="scale(0.015625)"/>
      <path id="DejaVuSans-63" d="M 3122 3366 
L 3122 2828 
Q 2878 2963 2633 3030 
Q 2388 3097 2138 3097 
Q 1578 3097 1268 2742 
Q 959 2388 959 1747 
Q 959 1106 1268 751 
Q 1578 397 2138 397 
Q 2388 397 2633 464 
Q 2878 531 3122 666 
L 3122 134 
Q 2881 22 2623 -34 
Q 2366 -91 2075 -91 
Q 1284 -91 818 406 
Q 353 903 353 1747 
Q 353 2603 823 3093 
Q 1294 3584 2113 3584 
Q 2378 3584 2631 3529 
Q 2884 3475 3122 3366 
z
" transform="scale(0.015625)"/>
      <path id="DejaVuSans-6d" d="M 3328 2828 
Q 3544 3216 3844 3400 
Q 4144 3584 4550 3584 
Q 5097 3584 5394 3201 
Q 5691 2819 5691 2113 
L 5691 0 
L 5113 0 
L 5113 2094 
Q 5113 2597 4934 2840 
Q 4756 3084 4391 3084 
Q 3944 3084 3684 2787 
Q 3425 2491 3425 1978 
L 3425 0 
L 2847 0 
L 2847 2094 
Q 2847 2600 2669 2842 
Q 2491 3084 2119 3084 
Q 1678 3084 1418 2786 
Q 1159 2488 1159 1978 
L 1159 0 
L 581 0 
L 581 3500 
L 1159 3500 
L 1159 2956 
Q 1356 3278 1631 3431 
Q 1906 3584 2284 3584 
Q 2666 3584 2933 3390 
Q 3200 3197 3328 2828 
z
" transform="scale(0.015625)"/>
     </defs>
     <use xlink:href="#DejaVuSans-52"/>
     <use xlink:href="#DejaVuSans-65" x="64.982422"/>
     <use xlink:href="#DejaVuSans-61" x="126.505859"/>
     <use xlink:href="#DejaVuSans-6c" x="187.785156"/>
     <use xlink:href="#DejaVuSans-74" x="215.568359"/>
     <use xlink:href="#DejaVuSans-6f" x="254.777344"/>
     <use xlink:href="#DejaVuSans-72" x="315.958984"/>
     <use xlink:href="#DejaVuSans-2e" x="347.947266"/>
     <use xlink:href="#DejaVuSans-63" x="379.734375"/>
     <use xlink:href="#DejaVuSans-6f" x="434.714844"/>
     <use xlink:href="#DejaVuSans-6d" x="495.896484"/>
    </g>
   </g>
   <g id="text_14">
    <!-- Listed: $1,150K -->
    <g transform="translate(262.245745 289.615738)scale(0.2 -0.2)">
     <defs>
      <path id="DejaVuSans-3a" d="M 750 794 
L 1409 794 
L 1409 0 
L 750 0 
L 750 794 
z
M 750 3309 
L 1409 3309 
L 1409 2516 
L 750 2516 
L 750 3309 
z
" transform="scale(0.015625)"/>
      <path id="DejaVuSans-20" transform="scale(0.015625)"/>
     </defs>
     <use xlink:href="#DejaVuSans-4c"/>
     <use xlink:href="#DejaVuSans-69" x="55.712891"/>
     <use xlink:href="#DejaVuSans-73" x="83.496094"/>
     <use xlink:href="#DejaVuSans-74" x="135.595703"/>
     <use xlink:href="#DejaVuSans-65" x="174.804688"/>
     <use xlink:href="#DejaVuSans-64" x="236.328125"/>
     <use xlink:href="#DejaVuSans-3a" x="299.804688"/>
     <use xlink:href="#DejaVuSans-20" x="333.496094"/>
     <use xlink:href="#DejaVuSans-24" x="365.283203"/>
     <use xlink:href="#DejaVuSans-31" x="428.90625"/>
     <use xlink:href="#DejaVuSans-2c" x="492.529297"/>
     <use xlink:href="#DejaVuSans-31" x="524.316406"/>
     <use xlink:href="#DejaVuSans-35" x="587.939453"/>
     <use xlink:href="#DejaVuSans-30" x="651.5625"/>
     <use xlink:href="#DejaVuSans-4b" x="715.185547"/>
    </g>
   </g>
   <g id="text_15">
    <!-- Sold: $1,175K -->
    <g transform="translate(262.245745 241.397856)scale(0.2 -0.2)">
     <defs>
      <path id="DejaVuSans-37" d="M 525 4666 
L 3525 4666 
L 3525 4397 
L 1831 0 
L 1172 0 
L 2766 4134 
L 525 4134 
L 525 4666 
z
" transform="scale(0.015625)"/>
     </defs>
     <use xlink:href="#DejaVuSans-53"/>
     <use xlink:href="#DejaVuSans-6f" x="63.476562"/>
     <use xlink:href="#DejaVuSans-6c" x="124.658203"/>
     <use xlink:href="#DejaVuSans-64" x="152.441406"/>
     <use xlink:href="#DejaVuSans-3a" x="215.917969"/>
     <use xlink:href="#DejaVuSans-20" x="249.609375"/>
     <use xlink:href="#DejaVuSans-24" x="281.396484"/>
     <use xlink:href="#DejaVuSans-31" x="345.019531"/>
     <use xlink:href="#DejaVuSans-2c" x="408.642578"/>
     <use xlink:href="#DejaVuSans-31" x="440.429688"/>
     <use xlink:href="#DejaVuSans-37" x="504.052734"/>
     <use xlink:href="#DejaVuSans-35" x="567.675781"/>
     <use xlink:href="#DejaVuSans-4b" x="631.298828"/>
    </g>
   </g>
   <g id="text_16">
    <!-- Price Estimate Timeseries -->
    <g transform="translate(234.875313 28.475625)scale(0.28 -0.28)">
     <defs>
      <path id="DejaVuSans-45" d="M 628 4666 
L 3578 4666 
L 3578 4134 
L 1259 4134 
L 1259 2753 
L 3481 2753 
L 3481 2222 
L 1259 2222 
L 1259 531 
L 3634 531 
L 3634 0 
L 628 0 
L 628 4666 
z
" transform="scale(0.015625)"/>
      <path id="DejaVuSans-54" d="M -19 4666 
L 3928 4666 
L 3928 4134 
L 2272 4134 
L 2272 0 
L 1638 0 
L 1638 4134 
L -19 4134 
L -19 4666 
z
" transform="scale(0.015625)"/>
     </defs>
     <use xlink:href="#DejaVuSans-50"/>
     <use xlink:href="#DejaVuSans-72" x="58.552734"/>
     <use xlink:href="#DejaVuSans-69" x="99.666016"/>
     <use xlink:href="#DejaVuSans-63" x="127.449219"/>
     <use xlink:href="#DejaVuSans-65" x="182.429688"/>
     <use xlink:href="#DejaVuSans-20" x="243.953125"/>
     <use xlink:href="#DejaVuSans-45" x="275.740234"/>
     <use xlink:href="#DejaVuSans-73" x="338.923828"/>
     <use xlink:href="#DejaVuSans-74" x="391.023438"/>
     <use xlink:href="#DejaVuSans-69" x="430.232422"/>
     <use xlink:href="#DejaVuSans-6d" x="458.015625"/>
     <use xlink:href="#DejaVuSans-61" x="555.427734"/>
     <use xlink:href="#DejaVuSans-74" x="616.707031"/>
     <use xlink:href="#DejaVuSans-65" x="655.916016"/>
     <use xlink:href="#DejaVuSans-20" x="717.439453"/>
     <use xlink:href="#DejaVuSans-54" x="749.226562"/>
     <use xlink:href="#DejaVuSans-69" x="807.185547"/>
     <use xlink:href="#DejaVuSans-6d" x="834.96875"/>
     <use xlink:href="#DejaVuSans-65" x="932.380859"/>
     <use xlink:href="#DejaVuSans-73" x="993.904297"/>
     <use xlink:href="#DejaVuSans-65" x="1046.003906"/>
     <use xlink:href="#DejaVuSans-72" x="1107.527344"/>
     <use xlink:href="#DejaVuSans-69" x="1148.640625"/>
     <use xlink:href="#DejaVuSans-65" x="1176.423828"/>
     <use xlink:href="#DejaVuSans-73" x="1237.947266"/>
    </g>
   </g>
  </g>
 </g>
 <defs>
  <clipPath id="p62a7d08791">
   <rect x="80.6775" y="34.475625" width="669.6" height="380.52"/>
  </clipPath>
 </defs>
</svg>
