<?xml version="1.0" encoding="utf-8" standalone="no"?>
<!DOCTYPE svg PUBLIC "-//W3C//DTD SVG 1.1//EN"
  "http://www.w3.org/Graphics/SVG/1.1/DTD/svg11.dtd">
<!-- Created with matplotlib (https://matplotlib.org/) -->
<svg height="392.590112pt" version="1.1" viewBox="0 0 735.107787 392.590112" width="735.107787pt" xmlns="http://www.w3.org/2000/svg" xmlns:xlink="http://www.w3.org/1999/xlink">
 <defs>
  <style type="text/css">
*{stroke-linecap:butt;stroke-linejoin:round;}
  </style>
 </defs>
 <g id="figure_1">
  <g id="patch_1">
   <path d="M 0 392.590112 
L 735.107787 392.590112 
L 735.107787 -0 
L 0 -0 
z
" style="fill:#ffffff;"/>
  </g>
  <g id="axes_1">
   <g id="patch_2">
    <path d="M 58.307788 369.186675 
L 727.907788 369.186675 
L 727.907788 43.026675 
L 58.307788 43.026675 
z
" style="fill:#ffffff;"/>
   </g>
   <g id="matplotlib.axis_1">
    <g id="xtick_1">
     <g id="line2d_1"/>
     <g id="text_1">
      <!-- 2001 -->
      <defs>
       <path d="M 50.34375 8.453125 
L 50.34375 0 
L 3.03125 0 
Q 2.9375 3.171875 4.046875 6.109375 
Q 5.859375 10.9375 9.828125 15.625 
Q 13.8125 20.3125 21.34375 26.46875 
Q 33.015625 36.03125 37.109375 41.625 
Q 41.21875 47.21875 41.21875 52.203125 
Q 41.21875 57.421875 37.46875 61 
Q 33.734375 64.59375 27.734375 64.59375 
Q 21.390625 64.59375 17.578125 60.78125 
Q 13.765625 56.984375 13.71875 50.25 
L 4.6875 51.171875 
Q 5.609375 61.28125 11.65625 66.578125 
Q 17.71875 71.875 27.9375 71.875 
Q 38.234375 71.875 44.234375 66.15625 
Q 50.25 60.453125 50.25 52 
Q 50.25 47.703125 48.484375 43.546875 
Q 46.734375 39.40625 42.65625 34.8125 
Q 38.578125 30.21875 29.109375 22.21875 
Q 21.1875 15.578125 18.9375 13.203125 
Q 16.703125 10.84375 15.234375 8.453125 
z
" id="ArialMT-50"/>
       <path d="M 4.15625 35.296875 
Q 4.15625 48 6.765625 55.734375 
Q 9.375 63.484375 14.515625 67.671875 
Q 19.671875 71.875 27.484375 71.875 
Q 33.25 71.875 37.59375 69.546875 
Q 41.9375 67.234375 44.765625 62.859375 
Q 47.609375 58.5 49.21875 52.21875 
Q 50.828125 45.953125 50.828125 35.296875 
Q 50.828125 22.703125 48.234375 14.96875 
Q 45.65625 7.234375 40.5 3 
Q 35.359375 -1.21875 27.484375 -1.21875 
Q 17.140625 -1.21875 11.234375 6.203125 
Q 4.15625 15.140625 4.15625 35.296875 
z
M 13.1875 35.296875 
Q 13.1875 17.671875 17.3125 11.828125 
Q 21.4375 6 27.484375 6 
Q 33.546875 6 37.671875 11.859375 
Q 41.796875 17.71875 41.796875 35.296875 
Q 41.796875 52.984375 37.671875 58.78125 
Q 33.546875 64.59375 27.390625 64.59375 
Q 21.34375 64.59375 17.71875 59.46875 
Q 13.1875 52.9375 13.1875 35.296875 
z
" id="ArialMT-48"/>
       <path d="M 37.25 0 
L 28.46875 0 
L 28.46875 56 
Q 25.296875 52.984375 20.140625 49.953125 
Q 14.984375 46.921875 10.890625 45.40625 
L 10.890625 53.90625 
Q 18.265625 57.375 23.78125 62.296875 
Q 29.296875 67.234375 31.59375 71.875 
L 37.25 71.875 
z
" id="ArialMT-49"/>
      </defs>
      <g style="fill:#262626;" transform="translate(65.057162 382.607612)scale(0.14 -0.14)">
       <use xlink:href="#ArialMT-50"/>
       <use x="55.615234" xlink:href="#ArialMT-48"/>
       <use x="111.230469" xlink:href="#ArialMT-48"/>
       <use x="166.845703" xlink:href="#ArialMT-49"/>
      </g>
     </g>
    </g>
    <g id="xtick_2">
     <g id="line2d_2"/>
     <g id="text_2">
      <!-- 2003 -->
      <defs>
       <path d="M 4.203125 18.890625 
L 12.984375 20.0625 
Q 14.5 12.59375 18.140625 9.296875 
Q 21.78125 6 27 6 
Q 33.203125 6 37.46875 10.296875 
Q 41.75 14.59375 41.75 20.953125 
Q 41.75 27 37.796875 30.921875 
Q 33.84375 34.859375 27.734375 34.859375 
Q 25.25 34.859375 21.53125 33.890625 
L 22.515625 41.609375 
Q 23.390625 41.5 23.921875 41.5 
Q 29.546875 41.5 34.03125 44.421875 
Q 38.53125 47.359375 38.53125 53.46875 
Q 38.53125 58.296875 35.25 61.46875 
Q 31.984375 64.65625 26.8125 64.65625 
Q 21.6875 64.65625 18.265625 61.421875 
Q 14.84375 58.203125 13.875 51.765625 
L 5.078125 53.328125 
Q 6.6875 62.15625 12.390625 67.015625 
Q 18.109375 71.875 26.609375 71.875 
Q 32.46875 71.875 37.390625 69.359375 
Q 42.328125 66.84375 44.9375 62.5 
Q 47.5625 58.15625 47.5625 53.265625 
Q 47.5625 48.640625 45.0625 44.828125 
Q 42.578125 41.015625 37.703125 38.765625 
Q 44.046875 37.3125 47.5625 32.6875 
Q 51.078125 28.078125 51.078125 21.140625 
Q 51.078125 11.765625 44.234375 5.25 
Q 37.40625 -1.265625 26.953125 -1.265625 
Q 17.53125 -1.265625 11.296875 4.34375 
Q 5.078125 9.96875 4.203125 18.890625 
z
" id="ArialMT-51"/>
      </defs>
      <g style="fill:#262626;" transform="translate(154.337162 382.607612)scale(0.14 -0.14)">
       <use xlink:href="#ArialMT-50"/>
       <use x="55.615234" xlink:href="#ArialMT-48"/>
       <use x="111.230469" xlink:href="#ArialMT-48"/>
       <use x="166.845703" xlink:href="#ArialMT-51"/>
      </g>
     </g>
    </g>
    <g id="xtick_3">
     <g id="line2d_3"/>
     <g id="text_3">
      <!-- 2005 -->
      <defs>
       <path d="M 4.15625 18.75 
L 13.375 19.53125 
Q 14.40625 12.796875 18.140625 9.390625 
Q 21.875 6 27.15625 6 
Q 33.5 6 37.890625 10.78125 
Q 42.28125 15.578125 42.28125 23.484375 
Q 42.28125 31 38.0625 35.34375 
Q 33.84375 39.703125 27 39.703125 
Q 22.75 39.703125 19.328125 37.765625 
Q 15.921875 35.84375 13.96875 32.765625 
L 5.71875 33.84375 
L 12.640625 70.609375 
L 48.25 70.609375 
L 48.25 62.203125 
L 19.671875 62.203125 
L 15.828125 42.96875 
Q 22.265625 47.46875 29.34375 47.46875 
Q 38.71875 47.46875 45.15625 40.96875 
Q 51.609375 34.46875 51.609375 24.265625 
Q 51.609375 14.546875 45.953125 7.46875 
Q 39.0625 -1.21875 27.15625 -1.21875 
Q 17.390625 -1.21875 11.203125 4.25 
Q 5.03125 9.71875 4.15625 18.75 
z
" id="ArialMT-53"/>
      </defs>
      <g style="fill:#262626;" transform="translate(243.617163 382.607612)scale(0.14 -0.14)">
       <use xlink:href="#ArialMT-50"/>
       <use x="55.615234" xlink:href="#ArialMT-48"/>
       <use x="111.230469" xlink:href="#ArialMT-48"/>
       <use x="166.845703" xlink:href="#ArialMT-53"/>
      </g>
     </g>
    </g>
    <g id="xtick_4">
     <g id="line2d_4"/>
     <g id="text_4">
      <!-- 2007 -->
      <defs>
       <path d="M 4.734375 62.203125 
L 4.734375 70.65625 
L 51.078125 70.65625 
L 51.078125 63.8125 
Q 44.234375 56.546875 37.515625 44.484375 
Q 30.8125 32.421875 27.15625 19.671875 
Q 24.515625 10.6875 23.78125 0 
L 14.75 0 
Q 14.890625 8.453125 18.0625 20.40625 
Q 21.234375 32.375 27.171875 43.484375 
Q 33.109375 54.59375 39.796875 62.203125 
z
" id="ArialMT-55"/>
      </defs>
      <g style="fill:#262626;" transform="translate(332.897162 382.607612)scale(0.14 -0.14)">
       <use xlink:href="#ArialMT-50"/>
       <use x="55.615234" xlink:href="#ArialMT-48"/>
       <use x="111.230469" xlink:href="#ArialMT-48"/>
       <use x="166.845703" xlink:href="#ArialMT-55"/>
      </g>
     </g>
    </g>
    <g id="xtick_5">
     <g id="line2d_5"/>
     <g id="text_5">
      <!-- 2009 -->
      <defs>
       <path d="M 5.46875 16.546875 
L 13.921875 17.328125 
Q 14.984375 11.375 18.015625 8.6875 
Q 21.046875 6 25.78125 6 
Q 29.828125 6 32.875 7.859375 
Q 35.9375 9.71875 37.890625 12.8125 
Q 39.84375 15.921875 41.15625 21.1875 
Q 42.484375 26.46875 42.484375 31.9375 
Q 42.484375 32.515625 42.4375 33.6875 
Q 39.796875 29.5 35.234375 26.875 
Q 30.671875 24.265625 25.34375 24.265625 
Q 16.453125 24.265625 10.296875 30.703125 
Q 4.15625 37.15625 4.15625 47.703125 
Q 4.15625 58.59375 10.578125 65.234375 
Q 17 71.875 26.65625 71.875 
Q 33.640625 71.875 39.421875 68.109375 
Q 45.21875 64.359375 48.21875 57.390625 
Q 51.21875 50.4375 51.21875 37.25 
Q 51.21875 23.53125 48.234375 15.40625 
Q 45.265625 7.28125 39.375 3.03125 
Q 33.5 -1.21875 25.59375 -1.21875 
Q 17.1875 -1.21875 11.859375 3.4375 
Q 6.546875 8.109375 5.46875 16.546875 
z
M 41.453125 48.140625 
Q 41.453125 55.71875 37.421875 60.15625 
Q 33.40625 64.59375 27.734375 64.59375 
Q 21.875 64.59375 17.53125 59.8125 
Q 13.1875 55.03125 13.1875 47.40625 
Q 13.1875 40.578125 17.3125 36.296875 
Q 21.4375 32.03125 27.484375 32.03125 
Q 33.59375 32.03125 37.515625 36.296875 
Q 41.453125 40.578125 41.453125 48.140625 
z
" id="ArialMT-57"/>
      </defs>
      <g style="fill:#262626;" transform="translate(422.177162 382.607612)scale(0.14 -0.14)">
       <use xlink:href="#ArialMT-50"/>
       <use x="55.615234" xlink:href="#ArialMT-48"/>
       <use x="111.230469" xlink:href="#ArialMT-48"/>
       <use x="166.845703" xlink:href="#ArialMT-57"/>
      </g>
     </g>
    </g>
    <g id="xtick_6">
     <g id="line2d_6"/>
     <g id="text_6">
      <!-- 2011 -->
      <g style="fill:#262626;" transform="translate(511.464819 382.607612)scale(0.14 -0.14)">
       <use xlink:href="#ArialMT-50"/>
       <use x="55.615234" xlink:href="#ArialMT-48"/>
       <use x="111.230469" xlink:href="#ArialMT-49"/>
       <use x="166.736328" xlink:href="#ArialMT-49"/>
      </g>
     </g>
    </g>
    <g id="xtick_7">
     <g id="line2d_7"/>
     <g id="text_7">
      <!-- 2013 -->
      <g style="fill:#262626;" transform="translate(600.737162 382.607612)scale(0.14 -0.14)">
       <use xlink:href="#ArialMT-50"/>
       <use x="55.615234" xlink:href="#ArialMT-48"/>
       <use x="111.230469" xlink:href="#ArialMT-49"/>
       <use x="166.845703" xlink:href="#ArialMT-51"/>
      </g>
     </g>
    </g>
    <g id="xtick_8">
     <g id="line2d_8"/>
     <g id="text_8">
      <!-- 2015 -->
      <g style="fill:#262626;" transform="translate(690.017162 382.607612)scale(0.14 -0.14)">
       <use xlink:href="#ArialMT-50"/>
       <use x="55.615234" xlink:href="#ArialMT-48"/>
       <use x="111.230469" xlink:href="#ArialMT-49"/>
       <use x="166.845703" xlink:href="#ArialMT-53"/>
      </g>
     </g>
    </g>
   </g>
   <g id="matplotlib.axis_2">
    <g id="ytick_1">
     <g id="line2d_9">
      <path clip-path="url(#pe7d6ce8e23)" d="M 58.307788 345.889532 
L 727.907788 345.889532 
" style="fill:none;stroke:#cccccc;stroke-linecap:round;stroke-width:0.8;"/>
     </g>
     <g id="line2d_10"/>
     <g id="text_9">
      <!-- 5000 -->
      <g style="fill:#262626;" transform="translate(32.564037 349.468438)scale(0.1 -0.1)">
       <use xlink:href="#ArialMT-53"/>
       <use x="55.615234" xlink:href="#ArialMT-48"/>
       <use x="111.230469" xlink:href="#ArialMT-48"/>
       <use x="166.845703" xlink:href="#ArialMT-48"/>
      </g>
     </g>
    </g>
    <g id="ytick_2">
     <g id="line2d_11">
      <path clip-path="url(#pe7d6ce8e23)" d="M 58.307788 299.295246 
L 727.907788 299.295246 
" style="fill:none;stroke:#cccccc;stroke-linecap:round;stroke-width:0.8;"/>
     </g>
     <g id="line2d_12"/>
     <g id="text_10">
      <!-- 6000 -->
      <defs>
       <path d="M 49.75 54.046875 
L 41.015625 53.375 
Q 39.84375 58.546875 37.703125 60.890625 
Q 34.125 64.65625 28.90625 64.65625 
Q 24.703125 64.65625 21.53125 62.3125 
Q 17.390625 59.28125 14.984375 53.46875 
Q 12.59375 47.65625 12.5 36.921875 
Q 15.671875 41.75 20.265625 44.09375 
Q 24.859375 46.4375 29.890625 46.4375 
Q 38.671875 46.4375 44.84375 39.96875 
Q 51.03125 33.5 51.03125 23.25 
Q 51.03125 16.5 48.125 10.71875 
Q 45.21875 4.9375 40.140625 1.859375 
Q 35.0625 -1.21875 28.609375 -1.21875 
Q 17.625 -1.21875 10.6875 6.859375 
Q 3.765625 14.9375 3.765625 33.5 
Q 3.765625 54.25 11.421875 63.671875 
Q 18.109375 71.875 29.4375 71.875 
Q 37.890625 71.875 43.28125 67.140625 
Q 48.6875 62.40625 49.75 54.046875 
z
M 13.875 23.1875 
Q 13.875 18.65625 15.796875 14.5 
Q 17.71875 10.359375 21.1875 8.171875 
Q 24.65625 6 28.46875 6 
Q 34.03125 6 38.03125 10.484375 
Q 42.046875 14.984375 42.046875 22.703125 
Q 42.046875 30.125 38.078125 34.390625 
Q 34.125 38.671875 28.125 38.671875 
Q 22.171875 38.671875 18.015625 34.390625 
Q 13.875 30.125 13.875 23.1875 
z
" id="ArialMT-54"/>
      </defs>
      <g style="fill:#262626;" transform="translate(32.564037 302.874153)scale(0.1 -0.1)">
       <use xlink:href="#ArialMT-54"/>
       <use x="55.615234" xlink:href="#ArialMT-48"/>
       <use x="111.230469" xlink:href="#ArialMT-48"/>
       <use x="166.845703" xlink:href="#ArialMT-48"/>
      </g>
     </g>
    </g>
    <g id="ytick_3">
     <g id="line2d_13">
      <path clip-path="url(#pe7d6ce8e23)" d="M 58.307788 252.700961 
L 727.907788 252.700961 
" style="fill:none;stroke:#cccccc;stroke-linecap:round;stroke-width:0.8;"/>
     </g>
     <g id="line2d_14"/>
     <g id="text_11">
      <!-- 7000 -->
      <g style="fill:#262626;" transform="translate(32.564037 256.279867)scale(0.1 -0.1)">
       <use xlink:href="#ArialMT-55"/>
       <use x="55.615234" xlink:href="#ArialMT-48"/>
       <use x="111.230469" xlink:href="#ArialMT-48"/>
       <use x="166.845703" xlink:href="#ArialMT-48"/>
      </g>
     </g>
    </g>
    <g id="ytick_4">
     <g id="line2d_15">
      <path clip-path="url(#pe7d6ce8e23)" d="M 58.307788 206.106675 
L 727.907788 206.106675 
" style="fill:none;stroke:#cccccc;stroke-linecap:round;stroke-width:0.8;"/>
     </g>
     <g id="line2d_16"/>
     <g id="text_12">
      <!-- 8000 -->
      <defs>
       <path d="M 17.671875 38.8125 
Q 12.203125 40.828125 9.5625 44.53125 
Q 6.9375 48.25 6.9375 53.421875 
Q 6.9375 61.234375 12.546875 66.546875 
Q 18.171875 71.875 27.484375 71.875 
Q 36.859375 71.875 42.578125 66.421875 
Q 48.296875 60.984375 48.296875 53.171875 
Q 48.296875 48.1875 45.671875 44.5 
Q 43.0625 40.828125 37.75 38.8125 
Q 44.34375 36.671875 47.78125 31.875 
Q 51.21875 27.09375 51.21875 20.453125 
Q 51.21875 11.28125 44.71875 5.03125 
Q 38.234375 -1.21875 27.640625 -1.21875 
Q 17.046875 -1.21875 10.546875 5.046875 
Q 4.046875 11.328125 4.046875 20.703125 
Q 4.046875 27.6875 7.59375 32.390625 
Q 11.140625 37.109375 17.671875 38.8125 
z
M 15.921875 53.71875 
Q 15.921875 48.640625 19.1875 45.40625 
Q 22.46875 42.1875 27.6875 42.1875 
Q 32.765625 42.1875 36.015625 45.375 
Q 39.265625 48.578125 39.265625 53.21875 
Q 39.265625 58.0625 35.90625 61.359375 
Q 32.5625 64.65625 27.59375 64.65625 
Q 22.5625 64.65625 19.234375 61.421875 
Q 15.921875 58.203125 15.921875 53.71875 
z
M 13.09375 20.65625 
Q 13.09375 16.890625 14.875 13.375 
Q 16.65625 9.859375 20.171875 7.921875 
Q 23.6875 6 27.734375 6 
Q 34.03125 6 38.125 10.046875 
Q 42.234375 14.109375 42.234375 20.359375 
Q 42.234375 26.703125 38.015625 30.859375 
Q 33.796875 35.015625 27.4375 35.015625 
Q 21.234375 35.015625 17.15625 30.90625 
Q 13.09375 26.8125 13.09375 20.65625 
z
" id="ArialMT-56"/>
      </defs>
      <g style="fill:#262626;" transform="translate(32.564037 209.685581)scale(0.1 -0.1)">
       <use xlink:href="#ArialMT-56"/>
       <use x="55.615234" xlink:href="#ArialMT-48"/>
       <use x="111.230469" xlink:href="#ArialMT-48"/>
       <use x="166.845703" xlink:href="#ArialMT-48"/>
      </g>
     </g>
    </g>
    <g id="ytick_5">
     <g id="line2d_17">
      <path clip-path="url(#pe7d6ce8e23)" d="M 58.307788 159.512389 
L 727.907788 159.512389 
" style="fill:none;stroke:#cccccc;stroke-linecap:round;stroke-width:0.8;"/>
     </g>
     <g id="line2d_18"/>
     <g id="text_13">
      <!-- 9000 -->
      <g style="fill:#262626;" transform="translate(32.564037 163.091296)scale(0.1 -0.1)">
       <use xlink:href="#ArialMT-57"/>
       <use x="55.615234" xlink:href="#ArialMT-48"/>
       <use x="111.230469" xlink:href="#ArialMT-48"/>
       <use x="166.845703" xlink:href="#ArialMT-48"/>
      </g>
     </g>
    </g>
    <g id="ytick_6">
     <g id="line2d_19">
      <path clip-path="url(#pe7d6ce8e23)" d="M 58.307788 112.918104 
L 727.907788 112.918104 
" style="fill:none;stroke:#cccccc;stroke-linecap:round;stroke-width:0.8;"/>
     </g>
     <g id="line2d_20"/>
     <g id="text_14">
      <!-- 10000 -->
      <g style="fill:#262626;" transform="translate(27.0031 116.49701)scale(0.1 -0.1)">
       <use xlink:href="#ArialMT-49"/>
       <use x="55.615234" xlink:href="#ArialMT-48"/>
       <use x="111.230469" xlink:href="#ArialMT-48"/>
       <use x="166.845703" xlink:href="#ArialMT-48"/>
       <use x="222.460938" xlink:href="#ArialMT-48"/>
      </g>
     </g>
    </g>
    <g id="ytick_7">
     <g id="line2d_21">
      <path clip-path="url(#pe7d6ce8e23)" d="M 58.307788 66.323818 
L 727.907788 66.323818 
" style="fill:none;stroke:#cccccc;stroke-linecap:round;stroke-width:0.8;"/>
     </g>
     <g id="line2d_22"/>
     <g id="text_15">
      <!-- 11000 -->
      <g style="fill:#262626;" transform="translate(27.014038 69.902724)scale(0.1 -0.1)">
       <use xlink:href="#ArialMT-49"/>
       <use x="55.505859" xlink:href="#ArialMT-49"/>
       <use x="111.121094" xlink:href="#ArialMT-48"/>
       <use x="166.736328" xlink:href="#ArialMT-48"/>
       <use x="222.351562" xlink:href="#ArialMT-48"/>
      </g>
     </g>
    </g>
    <g id="text_16">
     <!-- Accidents / Week -->
     <defs>
      <path d="M -0.140625 0 
L 27.34375 71.578125 
L 37.546875 71.578125 
L 66.84375 0 
L 56.0625 0 
L 47.703125 21.6875 
L 17.78125 21.6875 
L 9.90625 0 
z
M 20.515625 29.390625 
L 44.78125 29.390625 
L 37.3125 49.21875 
Q 33.890625 58.25 32.234375 64.0625 
Q 30.859375 57.171875 28.375 50.390625 
z
" id="ArialMT-65"/>
      <path d="M 40.4375 19 
L 49.078125 17.875 
Q 47.65625 8.9375 41.8125 3.875 
Q 35.984375 -1.171875 27.484375 -1.171875 
Q 16.84375 -1.171875 10.375 5.78125 
Q 3.90625 12.75 3.90625 25.734375 
Q 3.90625 34.125 6.6875 40.421875 
Q 9.46875 46.734375 15.15625 49.875 
Q 20.84375 53.03125 27.546875 53.03125 
Q 35.984375 53.03125 41.359375 48.75 
Q 46.734375 44.484375 48.25 36.625 
L 39.703125 35.296875 
Q 38.484375 40.53125 35.375 43.15625 
Q 32.28125 45.796875 27.875 45.796875 
Q 21.234375 45.796875 17.078125 41.03125 
Q 12.9375 36.28125 12.9375 25.984375 
Q 12.9375 15.53125 16.9375 10.796875 
Q 20.953125 6.0625 27.390625 6.0625 
Q 32.5625 6.0625 36.03125 9.234375 
Q 39.5 12.40625 40.4375 19 
z
" id="ArialMT-99"/>
      <path d="M 6.640625 61.46875 
L 6.640625 71.578125 
L 15.4375 71.578125 
L 15.4375 61.46875 
z
M 6.640625 0 
L 6.640625 51.859375 
L 15.4375 51.859375 
L 15.4375 0 
z
" id="ArialMT-105"/>
      <path d="M 40.234375 0 
L 40.234375 6.546875 
Q 35.296875 -1.171875 25.734375 -1.171875 
Q 19.53125 -1.171875 14.328125 2.25 
Q 9.125 5.671875 6.265625 11.796875 
Q 3.421875 17.921875 3.421875 25.875 
Q 3.421875 33.640625 6 39.96875 
Q 8.59375 46.296875 13.765625 49.65625 
Q 18.953125 53.03125 25.34375 53.03125 
Q 30.03125 53.03125 33.6875 51.046875 
Q 37.359375 49.078125 39.65625 45.90625 
L 39.65625 71.578125 
L 48.390625 71.578125 
L 48.390625 0 
z
M 12.453125 25.875 
Q 12.453125 15.921875 16.640625 10.984375 
Q 20.84375 6.0625 26.5625 6.0625 
Q 32.328125 6.0625 36.34375 10.765625 
Q 40.375 15.484375 40.375 25.140625 
Q 40.375 35.796875 36.265625 40.765625 
Q 32.171875 45.75 26.171875 45.75 
Q 20.3125 45.75 16.375 40.96875 
Q 12.453125 36.1875 12.453125 25.875 
z
" id="ArialMT-100"/>
      <path d="M 42.09375 16.703125 
L 51.171875 15.578125 
Q 49.03125 7.625 43.21875 3.21875 
Q 37.40625 -1.171875 28.375 -1.171875 
Q 17 -1.171875 10.328125 5.828125 
Q 3.65625 12.84375 3.65625 25.484375 
Q 3.65625 38.578125 10.390625 45.796875 
Q 17.140625 53.03125 27.875 53.03125 
Q 38.28125 53.03125 44.875 45.953125 
Q 51.46875 38.875 51.46875 26.03125 
Q 51.46875 25.25 51.421875 23.6875 
L 12.75 23.6875 
Q 13.234375 15.140625 17.578125 10.59375 
Q 21.921875 6.0625 28.421875 6.0625 
Q 33.25 6.0625 36.671875 8.59375 
Q 40.09375 11.140625 42.09375 16.703125 
z
M 13.234375 30.90625 
L 42.1875 30.90625 
Q 41.609375 37.453125 38.875 40.71875 
Q 34.671875 45.796875 27.984375 45.796875 
Q 21.921875 45.796875 17.796875 41.75 
Q 13.671875 37.703125 13.234375 30.90625 
z
" id="ArialMT-101"/>
      <path d="M 6.59375 0 
L 6.59375 51.859375 
L 14.5 51.859375 
L 14.5 44.484375 
Q 20.21875 53.03125 31 53.03125 
Q 35.6875 53.03125 39.625 51.34375 
Q 43.5625 49.65625 45.515625 46.921875 
Q 47.46875 44.1875 48.25 40.4375 
Q 48.734375 37.984375 48.734375 31.890625 
L 48.734375 0 
L 39.9375 0 
L 39.9375 31.546875 
Q 39.9375 36.921875 38.90625 39.578125 
Q 37.890625 42.234375 35.28125 43.8125 
Q 32.671875 45.40625 29.15625 45.40625 
Q 23.53125 45.40625 19.453125 41.84375 
Q 15.375 38.28125 15.375 28.328125 
L 15.375 0 
z
" id="ArialMT-110"/>
      <path d="M 25.78125 7.859375 
L 27.046875 0.09375 
Q 23.34375 -0.6875 20.40625 -0.6875 
Q 15.625 -0.6875 12.984375 0.828125 
Q 10.359375 2.34375 9.28125 4.8125 
Q 8.203125 7.28125 8.203125 15.1875 
L 8.203125 45.015625 
L 1.765625 45.015625 
L 1.765625 51.859375 
L 8.203125 51.859375 
L 8.203125 64.703125 
L 16.9375 69.96875 
L 16.9375 51.859375 
L 25.78125 51.859375 
L 25.78125 45.015625 
L 16.9375 45.015625 
L 16.9375 14.703125 
Q 16.9375 10.9375 17.40625 9.859375 
Q 17.875 8.796875 18.921875 8.15625 
Q 19.96875 7.515625 21.921875 7.515625 
Q 23.390625 7.515625 25.78125 7.859375 
z
" id="ArialMT-116"/>
      <path d="M 3.078125 15.484375 
L 11.765625 16.84375 
Q 12.5 11.625 15.84375 8.84375 
Q 19.1875 6.0625 25.203125 6.0625 
Q 31.25 6.0625 34.171875 8.515625 
Q 37.109375 10.984375 37.109375 14.3125 
Q 37.109375 17.28125 34.515625 19 
Q 32.71875 20.171875 25.53125 21.96875 
Q 15.875 24.421875 12.140625 26.203125 
Q 8.40625 27.984375 6.46875 31.125 
Q 4.546875 34.28125 4.546875 38.09375 
Q 4.546875 41.546875 6.125 44.5 
Q 7.71875 47.46875 10.453125 49.421875 
Q 12.5 50.921875 16.03125 51.96875 
Q 19.578125 53.03125 23.640625 53.03125 
Q 29.734375 53.03125 34.34375 51.265625 
Q 38.96875 49.515625 41.15625 46.5 
Q 43.359375 43.5 44.1875 38.484375 
L 35.59375 37.3125 
Q 35.015625 41.3125 32.203125 43.546875 
Q 29.390625 45.796875 24.265625 45.796875 
Q 18.21875 45.796875 15.625 43.796875 
Q 13.03125 41.796875 13.03125 39.109375 
Q 13.03125 37.40625 14.109375 36.03125 
Q 15.1875 34.625 17.484375 33.6875 
Q 18.796875 33.203125 25.25 31.453125 
Q 34.578125 28.953125 38.25 27.359375 
Q 41.9375 25.78125 44.03125 22.75 
Q 46.140625 19.734375 46.140625 15.234375 
Q 46.140625 10.84375 43.578125 6.953125 
Q 41.015625 3.078125 36.171875 0.953125 
Q 31.34375 -1.171875 25.25 -1.171875 
Q 15.140625 -1.171875 9.84375 3.03125 
Q 4.546875 7.234375 3.078125 15.484375 
z
" id="ArialMT-115"/>
      <path id="ArialMT-32"/>
      <path d="M 0 -1.21875 
L 20.75 72.796875 
L 27.78125 72.796875 
L 7.078125 -1.21875 
z
" id="ArialMT-47"/>
      <path d="M 20.21875 0 
L 1.21875 71.578125 
L 10.9375 71.578125 
L 21.828125 24.65625 
Q 23.578125 17.28125 24.859375 10.015625 
Q 27.59375 21.484375 28.078125 23.25 
L 41.703125 71.578125 
L 53.125 71.578125 
L 63.375 35.359375 
Q 67.234375 21.875 68.953125 10.015625 
Q 70.3125 16.796875 72.515625 25.59375 
L 83.734375 71.578125 
L 93.265625 71.578125 
L 73.640625 0 
L 64.5 0 
L 49.421875 54.546875 
Q 47.515625 61.375 47.171875 62.9375 
Q 46.046875 58.015625 45.0625 54.546875 
L 29.890625 0 
z
" id="ArialMT-87"/>
      <path d="M 6.640625 0 
L 6.640625 71.578125 
L 15.4375 71.578125 
L 15.4375 30.765625 
L 36.234375 51.859375 
L 47.609375 51.859375 
L 27.78125 32.625 
L 49.609375 0 
L 38.765625 0 
L 21.625 26.515625 
L 15.4375 20.5625 
L 15.4375 0 
z
" id="ArialMT-107"/>
     </defs>
     <g style="fill:#262626;" transform="translate(19.5687 272.847975)rotate(-90)scale(0.1728 -0.1728)">
      <use xlink:href="#ArialMT-65"/>
      <use x="66.699219" xlink:href="#ArialMT-99"/>
      <use x="116.699219" xlink:href="#ArialMT-99"/>
      <use x="166.699219" xlink:href="#ArialMT-105"/>
      <use x="188.916016" xlink:href="#ArialMT-100"/>
      <use x="244.53125" xlink:href="#ArialMT-101"/>
      <use x="300.146484" xlink:href="#ArialMT-110"/>
      <use x="355.761719" xlink:href="#ArialMT-116"/>
      <use x="383.544922" xlink:href="#ArialMT-115"/>
      <use x="433.544922" xlink:href="#ArialMT-32"/>
      <use x="461.328125" xlink:href="#ArialMT-47"/>
      <use x="489.111328" xlink:href="#ArialMT-32"/>
      <use x="516.894531" xlink:href="#ArialMT-87"/>
      <use x="611.263672" xlink:href="#ArialMT-101"/>
      <use x="666.878906" xlink:href="#ArialMT-101"/>
      <use x="722.494141" xlink:href="#ArialMT-107"/>
     </g>
    </g>
   </g>
   <g id="patch_3">
    <path clip-path="url(#pe7d6ce8e23)" d="M 103.631925 369.186675 
L 103.631925 43.026675 
L 148.100891 43.026675 
L 148.100891 369.186675 
z
" style="opacity:0.05;stroke:#000000;stroke-linejoin:miter;"/>
   </g>
   <g id="patch_4">
    <path clip-path="url(#pe7d6ce8e23)" d="M 192.569856 369.186675 
L 192.569856 43.026675 
L 237.038822 43.026675 
L 237.038822 369.186675 
z
" style="opacity:0.05;stroke:#000000;stroke-linejoin:miter;"/>
   </g>
   <g id="patch_5">
    <path clip-path="url(#pe7d6ce8e23)" d="M 281.507787 369.186675 
L 281.507787 43.026675 
L 325.976753 43.026675 
L 325.976753 369.186675 
z
" style="opacity:0.05;stroke:#000000;stroke-linejoin:miter;"/>
   </g>
   <g id="patch_6">
    <path clip-path="url(#pe7d6ce8e23)" d="M 371.300891 369.186675 
L 371.300891 43.026675 
L 415.769856 43.026675 
L 415.769856 369.186675 
z
" style="opacity:0.05;stroke:#000000;stroke-linejoin:miter;"/>
   </g>
   <g id="patch_7">
    <path clip-path="url(#pe7d6ce8e23)" d="M 460.238822 369.186675 
L 460.238822 43.026675 
L 504.707787 43.026675 
L 504.707787 369.186675 
z
" style="opacity:0.05;stroke:#000000;stroke-linejoin:miter;"/>
   </g>
   <g id="patch_8">
    <path clip-path="url(#pe7d6ce8e23)" d="M 549.176753 369.186675 
L 549.176753 43.026675 
L 594.500891 43.026675 
L 594.500891 369.186675 
z
" style="opacity:0.05;stroke:#000000;stroke-linejoin:miter;"/>
   </g>
   <g id="patch_9">
    <path clip-path="url(#pe7d6ce8e23)" d="M 638.969856 369.186675 
L 638.969856 43.026675 
L 683.438822 43.026675 
L 683.438822 369.186675 
z
" style="opacity:0.05;stroke:#000000;stroke-linejoin:miter;"/>
   </g>
   <g id="patch_10">
    <path clip-path="url(#pe7d6ce8e23)" d="M 727.907788 369.186675 
L 727.907788 43.026675 
L 772.376753 43.026675 
L 772.376753 369.186675 
z
" style="opacity:0.05;stroke:#000000;stroke-linejoin:miter;"/>
   </g>
   <g id="line2d_23">
    <path clip-path="url(#pe7d6ce8e23)" d="M 58.665151 393.590112 
L 59.16296 194.830858 
L 60.018132 153.128972 
L 60.873305 219.898584 
L 61.728477 150.706069 
L 62.58365 200.655144 
L 63.438822 129.925018 
L 64.293994 178.662641 
L 65.149167 151.591361 
L 66.004339 163.472904 
L 66.859512 208.622766 
L 67.714684 190.404401 
L 68.569856 199.676664 
L 69.425029 197.906081 
L 70.280201 141.806561 
L 71.135374 201.680218 
L 71.990546 171.533715 
L 72.845719 202.518915 
L 73.700891 191.615852 
L 74.556063 197.253761 
L 75.411236 199.303909 
L 76.266408 210.160378 
L 77.121581 193.759189 
L 77.976753 186.304104 
L 78.831925 167.247041 
L 79.687098 176.472709 
L 80.54227 187.329178 
L 81.397443 218.593944 
L 82.252615 205.640732 
L 83.107787 196.275281 
L 83.96296 205.221384 
L 84.818132 183.415258 
L 85.673305 189.845269 
L 86.528477 177.311406 
L 87.38365 179.268366 
L 88.238822 194.551292 
L 89.093994 175.447635 
L 89.949167 211.511612 
L 90.804339 188.820195 
L 91.659512 149.960561 
L 92.514684 186.397292 
L 93.369856 161.655726 
L 94.225029 164.870732 
L 95.080201 160.584058 
L 95.935374 113.197669 
L 96.790546 130.157989 
L 97.645719 163.053555 
L 98.500891 161.003406 
L 99.356063 120.186812 
L 100.211236 134.258286 
L 101.921581 104.298161 
L 102.776753 213.002629 
L 103.631925 210.626321 
L 104.487098 193.666001 
L 105.34227 180.107064 
L 106.197443 137.007349 
L 107.052615 166.175372 
L 107.907787 166.874286 
L 108.76296 153.641509 
L 109.618132 159.558984 
L 110.473305 163.333121 
L 111.328477 128.713566 
L 112.18365 156.111006 
L 113.038822 150.659475 
L 113.893994 179.780904 
L 114.749167 200.655144 
L 115.604339 149.867372 
L 116.459512 154.014264 
L 117.314684 159.838549 
L 118.169856 162.494424 
L 119.025029 147.351281 
L 119.880201 124.007544 
L 120.735374 183.508446 
L 121.590546 160.770435 
L 122.445719 154.713178 
L 123.300891 144.415841 
L 124.156063 166.594721 
L 125.011236 162.121669 
L 125.866408 185.791566 
L 126.721581 173.257704 
L 127.576753 170.508641 
L 128.431925 162.680801 
L 129.287098 166.035589 
L 130.14227 170.881395 
L 130.997443 170.834801 
L 131.852615 162.587612 
L 132.707787 160.630652 
L 133.56296 139.849601 
L 135.273305 127.828275 
L 136.128477 155.179121 
L 136.98365 128.806755 
L 137.838822 169.530161 
L 138.693994 160.444275 
L 140.404339 126.057692 
L 141.259512 66.976138 
L 142.114684 159.512389 
L 142.969856 167.806172 
L 143.825029 179.594526 
L 144.680201 148.702515 
L 145.535374 72.660641 
L 146.390546 76.760938 
L 147.245719 229.264035 
L 148.100891 233.643898 
L 148.956063 193.572812 
L 149.811236 191.569258 
L 150.666408 183.741418 
L 151.521581 188.447441 
L 152.376753 190.450995 
L 153.231925 119.208332 
L 154.087098 191.476069 
L 154.94227 174.236184 
L 155.797443 180.712789 
L 156.652615 135.143578 
L 157.507787 199.257315 
L 158.36296 186.117726 
L 159.218132 164.218412 
L 160.073305 120.093624 
L 160.928477 196.415064 
L 162.638822 128.154435 
L 163.493994 178.429669 
L 164.349167 177.963726 
L 165.204339 176.752275 
L 166.059512 169.530161 
L 166.914684 168.784652 
L 167.769856 161.562538 
L 168.625029 182.623155 
L 169.480201 166.781098 
L 170.335374 171.021178 
L 171.190546 166.361749 
L 172.045719 175.447635 
L 172.900891 181.691269 
L 174.611236 172.139441 
L 175.466408 159.885144 
L 176.321581 161.376161 
L 177.176753 187.049612 
L 178.031925 139.989384 
L 178.887098 150.706069 
L 179.74227 147.211498 
L 180.597443 169.763132 
L 181.452615 165.942401 
L 182.307787 147.677441 
L 183.16296 125.638344 
L 184.018132 132.767269 
L 184.873305 100.011486 
L 185.728477 128.107841 
L 186.58365 117.437749 
L 187.438822 157.834995 
L 188.293994 154.340424 
L 189.149167 99.312572 
L 190.004339 98.334092 
L 190.859512 132.487704 
L 191.714684 142.132721 
L 192.569856 205.128195 
L 193.425029 194.970641 
L 194.280201 197.253761 
L 195.135374 173.164515 
L 195.990546 134.258286 
L 197.700891 162.401235 
L 198.556063 114.315932 
L 199.411236 141.014458 
L 200.266408 174.515749 
L 201.121581 160.863624 
L 201.976753 168.691464 
L 202.831925 165.662835 
L 203.687098 165.942401 
L 204.54227 183.135692 
L 205.397443 168.877841 
L 206.252615 167.619795 
L 207.107787 148.655921 
L 207.96296 146.186424 
L 208.818132 177.870538 
L 209.673305 184.300549 
L 210.528477 198.278835 
L 211.38365 171.347338 
L 212.238822 170.695018 
L 213.093994 176.426115 
L 213.949167 181.038949 
L 214.804339 189.845269 
L 215.659512 179.501338 
L 216.514684 159.885144 
L 217.369856 165.243486 
L 218.225029 172.465601 
L 219.080201 166.268561 
L 219.935374 163.705875 
L 220.790546 178.849018 
L 221.645719 150.892446 
L 222.500891 162.773989 
L 223.356063 133.699155 
L 224.211236 147.304686 
L 225.066408 152.383464 
L 225.921581 169.110812 
L 226.776753 157.881589 
L 227.631925 114.502309 
L 228.487098 127.408926 
L 229.34227 136.588001 
L 230.197443 157.881589 
L 231.052615 161.422755 
L 231.907787 156.996298 
L 232.76296 179.128584 
L 233.618132 132.580892 
L 234.473305 123.122252 
L 235.328477 145.207944 
L 236.18365 183.927795 
L 237.038822 148.888892 
L 237.893994 142.831635 
L 238.749167 196.321875 
L 239.604339 196.787818 
L 240.459512 162.354641 
L 241.314684 178.849018 
L 242.169856 156.297384 
L 243.025029 108.212081 
L 243.880201 170.601829 
L 244.735374 155.645064 
L 245.590546 175.261258 
L 246.445719 130.344366 
L 247.300891 170.368858 
L 248.156063 165.383269 
L 249.011236 158.720286 
L 249.866408 180.246846 
L 250.721581 176.985246 
L 251.576753 171.207555 
L 252.431925 133.512778 
L 253.287098 174.748721 
L 254.14227 149.401429 
L 254.997443 206.572618 
L 255.852615 177.125029 
L 256.707787 162.447829 
L 257.56296 161.748915 
L 259.273305 180.246846 
L 260.128477 186.024538 
L 260.98365 173.211109 
L 261.838822 170.974584 
L 262.693994 168.411898 
L 263.549167 173.444081 
L 264.404339 179.780904 
L 265.259512 169.902915 
L 266.114684 155.179121 
L 266.969856 189.938458 
L 268.680201 165.010515 
L 269.535374 154.992744 
L 270.390546 149.587806 
L 271.245719 156.017818 
L 272.100891 126.337258 
L 272.956063 182.343589 
L 273.811236 141.713372 
L 274.666408 158.114561 
L 275.521581 153.315349 
L 276.376753 139.663224 
L 277.231925 166.920881 
L 278.087098 127.455521 
L 278.94227 150.193532 
L 279.797443 131.462629 
L 280.652615 157.136081 
L 281.507787 160.817029 
L 282.36296 202.006378 
L 284.073305 171.207555 
L 284.928477 173.304298 
L 285.78365 174.329372 
L 286.638822 171.440526 
L 287.493994 138.871121 
L 288.349167 158.440721 
L 289.204339 134.864012 
L 290.059512 158.207749 
L 290.914684 157.042892 
L 291.769856 180.852572 
L 292.625029 148.562732 
L 293.480201 151.358389 
L 294.335374 175.401041 
L 295.190546 218.687132 
L 296.045719 214.120892 
L 296.900891 204.895224 
L 297.756063 178.802424 
L 298.611236 161.050001 
L 299.466408 211.604801 
L 300.321581 178.849018 
L 301.176753 202.285944 
L 302.031925 171.999658 
L 303.74227 192.361361 
L 304.597443 205.780515 
L 305.452615 189.985052 
L 306.307787 180.945761 
L 307.16296 206.945372 
L 308.018132 199.723258 
L 308.873305 196.741224 
L 309.728477 194.924046 
L 310.58365 179.501338 
L 311.438822 188.913384 
L 312.293994 174.795315 
L 313.149167 177.544378 
L 314.004339 166.221966 
L 314.859512 170.508641 
L 315.714684 168.039144 
L 316.569856 170.415452 
L 317.425029 142.132721 
L 318.280201 157.415646 
L 319.135374 132.114949 
L 319.990546 146.512584 
L 320.845719 147.770629 
L 321.700891 192.454549 
L 322.556063 167.526606 
L 323.411236 109.423532 
L 324.266408 150.333315 
L 325.121581 173.490675 
L 325.976753 248.367692 
L 326.831925 230.941429 
L 327.687098 220.084961 
L 328.54227 183.648229 
L 329.397443 189.053166 
L 330.252615 198.884561 
L 331.107787 163.333121 
L 331.96296 188.214469 
L 332.818132 174.003212 
L 333.673305 176.426115 
L 334.528477 194.411509 
L 335.38365 181.038949 
L 336.238822 169.623349 
L 337.093994 178.336481 
L 337.949167 213.282195 
L 338.804339 171.673498 
L 339.659512 180.759384 
L 340.514684 191.755635 
L 341.369856 184.347144 
L 342.225029 184.347144 
L 343.080201 209.042115 
L 343.935374 216.636984 
L 344.790546 205.966892 
L 345.645719 193.386435 
L 346.500891 169.856321 
L 347.356063 190.450995 
L 348.211236 189.798675 
L 349.066408 217.522275 
L 349.921581 203.031452 
L 350.776753 190.637372 
L 351.631925 202.192755 
L 352.487098 203.963338 
L 353.34227 204.242904 
L 354.197443 185.838161 
L 355.052615 199.676664 
L 357.618132 174.375966 
L 358.473305 167.386824 
L 359.328477 188.633818 
L 360.18365 177.544378 
L 361.038822 162.308046 
L 361.893994 192.547738 
L 362.749167 197.346949 
L 363.604339 183.927795 
L 364.459512 191.942012 
L 365.314684 181.598081 
L 366.169856 236.952092 
L 367.025029 167.852766 
L 367.880201 140.268949 
L 368.735374 178.522858 
L 369.590546 154.759772 
L 370.445719 291.420812 
L 371.300891 229.031064 
L 372.156063 232.152881 
L 373.011236 222.927212 
L 373.866408 165.569646 
L 374.721581 183.228881 
L 375.576753 217.009738 
L 376.431925 233.224549 
L 377.287098 176.565898 
L 378.14227 220.224744 
L 378.997443 219.991772 
L 379.852615 214.353864 
L 380.707787 221.808949 
L 381.56296 234.855349 
L 382.418132 227.773018 
L 383.273305 215.099372 
L 384.128477 239.887532 
L 384.98365 233.550709 
L 385.838822 229.543601 
L 386.693994 246.550515 
L 387.549167 215.378938 
L 388.404339 240.353475 
L 389.259512 251.629292 
L 390.114684 244.686744 
L 390.969856 243.288915 
L 391.825029 243.987829 
L 392.680201 272.783098 
L 393.535374 268.356641 
L 394.390546 283.965726 
L 395.245719 264.116561 
L 396.100891 256.894446 
L 396.956063 253.539658 
L 397.811236 259.550321 
L 398.666408 264.116561 
L 399.521581 248.693852 
L 400.376753 257.546766 
L 401.231925 243.335509 
L 402.087098 264.302938 
L 402.94227 246.317544 
L 404.652615 227.400264 
L 405.507787 256.568286 
L 406.36296 230.568675 
L 407.218132 237.045281 
L 408.073305 194.877452 
L 408.928477 228.658309 
L 409.78365 242.450218 
L 410.638822 241.984275 
L 411.493994 218.873509 
L 412.349167 236.253178 
L 413.204339 163.845658 
L 414.059512 172.465601 
L 414.914684 260.994744 
L 415.769856 293.284584 
L 416.625029 271.990995 
L 417.480201 255.403429 
L 418.335374 227.679829 
L 419.190546 252.700961 
L 420.045719 207.178344 
L 420.900891 208.203418 
L 421.756063 233.177955 
L 422.611236 246.923269 
L 423.466408 234.762161 
L 424.321581 248.134721 
L 425.176753 232.432446 
L 426.031925 256.381909 
L 426.887098 241.145578 
L 427.74227 252.514584 
L 428.597443 243.102538 
L 429.452615 254.005601 
L 430.307787 232.944984 
L 431.16296 227.167292 
L 432.873305 260.715178 
L 433.728477 265.607578 
L 434.58365 245.012904 
L 435.438822 272.363749 
L 436.293994 256.941041 
L 437.149167 261.647064 
L 438.004339 262.765326 
L 438.859512 269.241932 
L 439.714684 254.657921 
L 440.569856 269.894252 
L 441.425029 269.568092 
L 442.280201 278.188035 
L 443.135374 276.277669 
L 443.990546 275.858321 
L 444.845719 254.937486 
L 445.700891 272.363749 
L 446.556063 249.625738 
L 447.411236 240.493258 
L 448.266408 251.396321 
L 449.121581 252.654366 
L 449.976753 264.675692 
L 450.831925 200.888115 
L 451.687098 257.406984 
L 452.54227 242.869566 
L 453.397443 253.166904 
L 454.252615 265.747361 
L 455.107787 235.927018 
L 455.96296 269.474904 
L 456.818132 220.690686 
L 457.673305 191.709041 
L 458.528477 254.052195 
L 459.38365 302.976195 
L 460.238822 318.398904 
L 461.093994 302.277281 
L 461.949167 253.027121 
L 462.804339 227.074104 
L 463.659512 277.675498 
L 464.514684 247.202835 
L 465.369856 268.915772 
L 466.225029 269.847658 
L 467.080201 238.489704 
L 467.935374 252.794149 
L 468.790546 245.339064 
L 469.645719 251.955452 
L 470.500891 259.643509 
L 471.356063 250.417841 
L 472.211236 254.052195 
L 473.066408 279.679052 
L 473.921581 250.417841 
L 474.776753 256.568286 
L 475.631925 249.625738 
L 476.487098 265.747361 
L 477.34227 272.689909 
L 478.197443 260.948149 
L 479.907787 270.919326 
L 480.76296 269.474904 
L 481.618132 280.797315 
L 482.473305 283.499784 
L 483.328477 295.008572 
L 484.18365 264.908664 
L 485.038822 284.990801 
L 485.893994 280.424561 
L 486.749167 279.539269 
L 487.604339 277.675498 
L 488.459512 256.148938 
L 489.314684 273.062664 
L 490.169856 267.983886 
L 491.025029 272.130778 
L 491.880201 245.245875 
L 492.735374 264.349532 
L 493.590546 241.704709 
L 494.445719 252.700961 
L 495.300891 246.224355 
L 496.156063 225.536492 
L 497.011236 240.959201 
L 497.866408 234.948538 
L 498.721581 264.582504 
L 499.576753 215.145966 
L 500.431925 274.600275 
L 501.287098 236.952092 
L 502.14227 243.521886 
L 502.997443 155.458686 
L 503.852615 281.030286 
L 504.707787 302.510252 
L 505.56296 305.911635 
L 506.418132 295.381326 
L 507.273305 281.170069 
L 508.128477 273.482012 
L 508.98365 276.324264 
L 509.838822 264.768881 
L 510.693994 219.292858 
L 511.549167 263.324458 
L 512.404339 268.403235 
L 513.259512 287.926241 
L 514.114684 231.453966 
L 514.969856 269.894252 
L 515.825029 277.861875 
L 517.535374 290.395738 
L 518.390546 301.951121 
L 519.245719 284.105509 
L 520.100891 275.019624 
L 520.956063 276.743612 
L 521.811236 280.471155 
L 522.666408 291.746972 
L 523.521581 276.836801 
L 524.376753 290.442332 
L 525.231925 291.048058 
L 526.087098 285.969281 
L 526.94227 278.793761 
L 527.797443 285.549932 
L 528.652615 299.435029 
L 529.507787 286.202252 
L 530.36296 288.298995 
L 531.218132 282.334926 
L 532.073305 285.456744 
L 532.928477 274.833246 
L 533.78365 268.356641 
L 534.638822 284.152104 
L 535.493994 270.034035 
L 536.349167 275.671944 
L 537.204339 267.797509 
L 538.059512 253.399875 
L 538.914684 230.382298 
L 539.769856 257.360389 
L 540.625029 270.360195 
L 541.480201 251.908858 
L 542.335374 236.579338 
L 543.190546 262.625544 
L 544.045719 231.686938 
L 544.900891 297.757635 
L 545.756063 259.130972 
L 546.611236 226.514972 
L 547.466408 240.586446 
L 548.321581 293.144801 
L 549.176753 330.420229 
L 550.031925 308.008378 
L 550.887098 298.456549 
L 551.74227 225.163738 
L 552.597443 294.169875 
L 553.452615 283.919132 
L 554.307787 262.113006 
L 555.16296 278.234629 
L 556.018132 282.474709 
L 556.873305 275.206001 
L 557.728477 277.023178 
L 558.58365 214.633429 
L 559.438822 272.363749 
L 560.293994 279.399486 
L 561.149167 290.209361 
L 562.004339 254.890892 
L 563.714684 285.410149 
L 564.569856 279.865429 
L 565.425029 268.216858 
L 566.280201 280.424561 
L 567.135374 300.506698 
L 567.990546 285.083989 
L 568.845719 290.162766 
L 569.700891 289.044504 
L 570.556063 299.807784 
L 571.411236 287.972835 
L 572.266408 307.216275 
L 573.121581 296.732561 
L 573.976753 293.750526 
L 574.831925 303.581921 
L 575.687098 296.779155 
L 576.54227 280.331372 
L 577.397443 296.685966 
L 578.252615 290.349144 
L 579.107787 291.141246 
L 579.96296 293.797121 
L 580.818132 287.926241 
L 581.673305 273.249041 
L 582.528477 280.843909 
L 583.38365 281.309852 
L 584.238822 279.865429 
L 585.093994 269.661281 
L 585.949167 272.410344 
L 586.804339 267.704321 
L 587.659512 274.879841 
L 588.514684 252.887338 
L 589.369856 307.775406 
L 590.225029 242.170652 
L 591.080201 286.668195 
L 591.935374 273.901361 
L 592.790546 246.131166 
L 593.645719 337.502561 
L 594.500891 333.961395 
L 595.356063 304.979749 
L 596.211236 302.277281 
L 597.066408 284.338481 
L 597.921581 301.811338 
L 598.776753 306.098012 
L 599.631925 300.040755 
L 600.487098 284.618046 
L 601.34227 285.643121 
L 602.197443 281.449635 
L 603.052615 278.327818 
L 603.907787 287.600081 
L 604.76296 290.954869 
L 605.618132 297.757635 
L 606.473305 294.076686 
L 607.328477 293.144801 
L 608.18365 297.012126 
L 609.038822 274.926435 
L 609.893994 287.320515 
L 610.749167 286.062469 
L 611.604339 297.664446 
L 612.459512 296.965532 
L 613.314684 289.370664 
L 614.169856 293.750526 
L 615.025029 288.578561 
L 615.880201 285.596526 
L 616.735374 310.011932 
L 617.590546 306.004824 
L 618.445719 304.234241 
L 619.300891 301.951121 
L 620.156063 301.811338 
L 621.011236 306.377578 
L 621.866408 293.797121 
L 622.721581 292.212915 
L 623.576753 295.381326 
L 624.431925 281.589418 
L 625.287098 281.449635 
L 626.14227 276.697018 
L 626.997443 278.933544 
L 627.852615 292.259509 
L 628.707787 290.815086 
L 629.56296 273.994549 
L 630.418132 281.403041 
L 631.273305 269.521498 
L 632.128477 288.066024 
L 632.98365 267.424755 
L 633.838822 260.901555 
L 634.693994 310.058526 
L 635.549167 268.729395 
L 636.404339 263.324458 
L 637.259512 261.786846 
L 638.114684 358.283612 
L 638.969856 349.896641 
L 639.825029 311.829109 
L 640.680201 289.277475 
L 641.535374 305.492286 
L 642.390546 276.650424 
L 643.245719 269.288526 
L 644.100891 296.313212 
L 644.956063 289.929795 
L 645.811236 246.270949 
L 646.666408 293.890309 
L 647.521581 283.080435 
L 648.376753 293.750526 
L 649.231925 282.474709 
L 650.087098 272.829692 
L 650.94227 284.058915 
L 651.797443 305.818446 
L 653.507787 281.123475 
L 654.36296 289.510446 
L 655.218132 278.560789 
L 656.073305 292.772046 
L 656.928477 280.657532 
L 657.78365 284.105509 
L 658.638822 285.316961 
L 659.493994 299.761189 
L 660.349167 300.879452 
L 662.059512 307.961784 
L 662.914684 304.047864 
L 663.769856 293.005018 
L 664.625029 287.926241 
L 665.480201 283.686161 
L 666.335374 272.503532 
L 667.190546 277.256149 
L 668.045719 283.406595 
L 668.900891 269.987441 
L 669.756063 263.091486 
L 670.611236 262.625544 
L 671.466408 254.657921 
L 672.321581 256.941041 
L 673.176753 262.345978 
L 674.031925 259.270755 
L 674.887098 253.399875 
L 675.74227 228.658309 
L 676.597443 264.209749 
L 677.452615 267.564538 
L 678.307787 238.443109 
L 679.16296 276.929989 
L 680.018132 222.321486 
L 680.873305 253.120309 
L 681.728477 234.575784 
L 682.58365 311.968892 
L 683.438822 319.610355 
L 684.293994 268.496424 
L 685.149167 278.048252 
L 686.004339 278.467601 
L 686.859512 271.851212 
L 687.714684 238.676081 
L 688.569856 255.962561 
L 689.425029 251.582698 
L 690.280201 248.460881 
L 691.990546 258.991189 
L 692.845719 261.041338 
L 693.700891 247.761966 
L 694.556063 262.672138 
L 695.411236 252.141829 
L 696.266408 246.736892 
L 697.121581 257.220606 
L 697.976753 245.665224 
L 698.831925 253.073715 
L 699.687098 252.374801 
L 700.54227 273.528606 
L 701.397443 264.582504 
L 702.252615 259.410538 
L 703.107787 257.313795 
L 703.96296 259.363944 
L 704.818132 273.342229 
L 705.673305 280.377966 
L 706.528477 276.137886 
L 707.38365 251.815669 
L 708.238822 273.528606 
L 709.093994 264.675692 
L 709.949167 267.983886 
L 710.804339 247.622184 
L 711.659512 253.027121 
L 712.514684 241.891086 
L 713.369856 270.872732 
L 714.225029 253.819224 
L 715.080201 232.665418 
L 715.935374 250.184869 
L 716.790546 217.708652 
L 717.645719 226.235406 
L 718.500891 219.432641 
L 719.356063 221.110035 
L 720.211236 207.224938 
L 721.066408 201.074492 
L 721.921581 212.862846 
L 722.776753 209.508058 
L 723.631925 245.245875 
L 724.487098 206.712401 
L 725.34227 175.820389 
L 726.197443 165.709429 
L 727.052615 253.399875 
L 727.689022 393.590112 
L 727.689022 393.590112 
" style="fill:none;stroke:#0000ff;stroke-linecap:round;"/>
   </g>
   <g id="patch_11">
    <path d="M 58.307788 369.186675 
L 58.307788 43.026675 
" style="fill:none;stroke:#262626;stroke-linecap:square;stroke-linejoin:miter;stroke-width:1.25;"/>
   </g>
   <g id="patch_12">
    <path d="M 727.907788 369.186675 
L 727.907788 43.026675 
" style="fill:none;stroke:#262626;stroke-linecap:square;stroke-linejoin:miter;stroke-width:1.25;"/>
   </g>
   <g id="patch_13">
    <path d="M 58.307787 369.186675 
L 727.907788 369.186675 
" style="fill:none;stroke:#262626;stroke-linecap:square;stroke-linejoin:miter;stroke-width:1.25;"/>
   </g>
   <g id="patch_14">
    <path d="M 58.307787 43.026675 
L 727.907788 43.026675 
" style="fill:none;stroke:#262626;stroke-linecap:square;stroke-linejoin:miter;stroke-width:1.25;"/>
   </g>
   <g id="text_17">
    <!-- Accidents in California -->
    <defs>
     <path d="M 58.796875 25.09375 
L 68.265625 22.703125 
Q 65.28125 11.03125 57.546875 4.90625 
Q 49.8125 -1.21875 38.625 -1.21875 
Q 27.046875 -1.21875 19.796875 3.484375 
Q 12.546875 8.203125 8.765625 17.140625 
Q 4.984375 26.078125 4.984375 36.328125 
Q 4.984375 47.515625 9.25 55.828125 
Q 13.53125 64.15625 21.40625 68.46875 
Q 29.296875 72.796875 38.765625 72.796875 
Q 49.515625 72.796875 56.828125 67.328125 
Q 64.15625 61.859375 67.046875 51.953125 
L 57.71875 49.75 
Q 55.21875 57.5625 50.484375 61.125 
Q 45.75 64.703125 38.578125 64.703125 
Q 30.328125 64.703125 24.78125 60.734375 
Q 19.234375 56.78125 16.984375 50.109375 
Q 14.75 43.453125 14.75 36.375 
Q 14.75 27.25 17.40625 20.4375 
Q 20.0625 13.625 25.671875 10.25 
Q 31.296875 6.890625 37.84375 6.890625 
Q 45.796875 6.890625 51.3125 11.46875 
Q 56.84375 16.0625 58.796875 25.09375 
z
" id="ArialMT-67"/>
     <path d="M 40.4375 6.390625 
Q 35.546875 2.25 31.03125 0.53125 
Q 26.515625 -1.171875 21.34375 -1.171875 
Q 12.796875 -1.171875 8.203125 3 
Q 3.609375 7.171875 3.609375 13.671875 
Q 3.609375 17.484375 5.34375 20.625 
Q 7.078125 23.78125 9.890625 25.6875 
Q 12.703125 27.59375 16.21875 28.5625 
Q 18.796875 29.25 24.03125 29.890625 
Q 34.671875 31.15625 39.703125 32.90625 
Q 39.75 34.71875 39.75 35.203125 
Q 39.75 40.578125 37.25 42.78125 
Q 33.890625 45.75 27.25 45.75 
Q 21.046875 45.75 18.09375 43.578125 
Q 15.140625 41.40625 13.71875 35.890625 
L 5.125 37.0625 
Q 6.296875 42.578125 8.984375 45.96875 
Q 11.671875 49.359375 16.75 51.1875 
Q 21.828125 53.03125 28.515625 53.03125 
Q 35.15625 53.03125 39.296875 51.46875 
Q 43.453125 49.90625 45.40625 47.53125 
Q 47.359375 45.171875 48.140625 41.546875 
Q 48.578125 39.3125 48.578125 33.453125 
L 48.578125 21.734375 
Q 48.578125 9.46875 49.140625 6.21875 
Q 49.703125 2.984375 51.375 0 
L 42.1875 0 
Q 40.828125 2.734375 40.4375 6.390625 
z
M 39.703125 26.03125 
Q 34.90625 24.078125 25.34375 22.703125 
Q 19.921875 21.921875 17.671875 20.9375 
Q 15.4375 19.96875 14.203125 18.09375 
Q 12.984375 16.21875 12.984375 13.921875 
Q 12.984375 10.40625 15.640625 8.0625 
Q 18.3125 5.71875 23.4375 5.71875 
Q 28.515625 5.71875 32.46875 7.9375 
Q 36.421875 10.15625 38.28125 14.015625 
Q 39.703125 17 39.703125 22.796875 
z
" id="ArialMT-97"/>
     <path d="M 6.390625 0 
L 6.390625 71.578125 
L 15.1875 71.578125 
L 15.1875 0 
z
" id="ArialMT-108"/>
     <path d="M 8.6875 0 
L 8.6875 45.015625 
L 0.921875 45.015625 
L 0.921875 51.859375 
L 8.6875 51.859375 
L 8.6875 57.375 
Q 8.6875 62.59375 9.625 65.140625 
Q 10.890625 68.5625 14.078125 70.671875 
Q 17.28125 72.796875 23.046875 72.796875 
Q 26.765625 72.796875 31.25 71.921875 
L 29.9375 64.265625 
Q 27.203125 64.75 24.75 64.75 
Q 20.75 64.75 19.09375 63.03125 
Q 17.4375 61.328125 17.4375 56.640625 
L 17.4375 51.859375 
L 27.546875 51.859375 
L 27.546875 45.015625 
L 17.4375 45.015625 
L 17.4375 0 
z
" id="ArialMT-102"/>
     <path d="M 3.328125 25.921875 
Q 3.328125 40.328125 11.328125 47.265625 
Q 18.015625 53.03125 27.640625 53.03125 
Q 38.328125 53.03125 45.109375 46.015625 
Q 51.90625 39.015625 51.90625 26.65625 
Q 51.90625 16.65625 48.90625 10.90625 
Q 45.90625 5.171875 40.15625 2 
Q 34.421875 -1.171875 27.640625 -1.171875 
Q 16.75 -1.171875 10.03125 5.8125 
Q 3.328125 12.796875 3.328125 25.921875 
z
M 12.359375 25.921875 
Q 12.359375 15.96875 16.703125 11.015625 
Q 21.046875 6.0625 27.640625 6.0625 
Q 34.1875 6.0625 38.53125 11.03125 
Q 42.875 16.015625 42.875 26.21875 
Q 42.875 35.84375 38.5 40.796875 
Q 34.125 45.75 27.640625 45.75 
Q 21.046875 45.75 16.703125 40.8125 
Q 12.359375 35.890625 12.359375 25.921875 
z
" id="ArialMT-111"/>
     <path d="M 6.5 0 
L 6.5 51.859375 
L 14.40625 51.859375 
L 14.40625 44 
Q 17.4375 49.515625 20 51.265625 
Q 22.5625 53.03125 25.640625 53.03125 
Q 30.078125 53.03125 34.671875 50.203125 
L 31.640625 42.046875 
Q 28.421875 43.953125 25.203125 43.953125 
Q 22.3125 43.953125 20.015625 42.21875 
Q 17.71875 40.484375 16.75 37.40625 
Q 15.28125 32.71875 15.28125 27.15625 
L 15.28125 0 
z
" id="ArialMT-114"/>
    </defs>
    <g style="fill:#262626;" transform="translate(254.604038 27.241875)scale(0.28 -0.28)">
     <use xlink:href="#ArialMT-65"/>
     <use x="66.699219" xlink:href="#ArialMT-99"/>
     <use x="116.699219" xlink:href="#ArialMT-99"/>
     <use x="166.699219" xlink:href="#ArialMT-105"/>
     <use x="188.916016" xlink:href="#ArialMT-100"/>
     <use x="244.53125" xlink:href="#ArialMT-101"/>
     <use x="300.146484" xlink:href="#ArialMT-110"/>
     <use x="355.761719" xlink:href="#ArialMT-116"/>
     <use x="383.544922" xlink:href="#ArialMT-115"/>
     <use x="433.544922" xlink:href="#ArialMT-32"/>
     <use x="461.328125" xlink:href="#ArialMT-105"/>
     <use x="483.544922" xlink:href="#ArialMT-110"/>
     <use x="539.160156" xlink:href="#ArialMT-32"/>
     <use x="566.943359" xlink:href="#ArialMT-67"/>
     <use x="639.160156" xlink:href="#ArialMT-97"/>
     <use x="694.775391" xlink:href="#ArialMT-108"/>
     <use x="716.992188" xlink:href="#ArialMT-105"/>
     <use x="739.208984" xlink:href="#ArialMT-102"/>
     <use x="766.992188" xlink:href="#ArialMT-111"/>
     <use x="822.607422" xlink:href="#ArialMT-114"/>
     <use x="855.908203" xlink:href="#ArialMT-110"/>
     <use x="911.523438" xlink:href="#ArialMT-105"/>
     <use x="933.740234" xlink:href="#ArialMT-97"/>
    </g>
   </g>
  </g>
 </g>
 <defs>
  <clipPath id="pe7d6ce8e23">
   <rect height="326.16" width="669.6" x="58.307788" y="43.026675"/>
  </clipPath>
 </defs>
</svg>
