<?xml version="1.0" encoding="utf-8" standalone="no"?>
<!DOCTYPE svg PUBLIC "-//W3C//DTD SVG 1.1//EN"
  "http://www.w3.org/Graphics/SVG/1.1/DTD/svg11.dtd">
<!-- Created with matplotlib (http://matplotlib.org/) -->
<svg height="404pt" version="1.1" viewBox="0 0 737 404" width="737pt" xmlns="http://www.w3.org/2000/svg" xmlns:xlink="http://www.w3.org/1999/xlink">
 <defs>
  <style type="text/css">
*{stroke-linecap:butt;stroke-linejoin:round;stroke-miterlimit:100000;}
  </style>
 </defs>
 <g id="figure_1">
  <g id="patch_1">
   <path d="M 0 404.76525 
L 737.20747 404.76525 
L 737.20747 0 
L 0 0 
z
" style="fill:#ffffff;"/>
  </g>
  <g id="axes_1">
   <g id="patch_2">
    <path d="M 60.40747 377.427125 
L 730.00747 377.427125 
L 730.00747 42.627125 
L 60.40747 42.627125 
z
" style="fill:#ffffff;"/>
   </g>
   <g id="matplotlib.axis_1">
    <g id="xtick_1">
     <g id="line2d_1"/>
     <g id="line2d_2"/>
     <g id="text_1">
      <!-- Monday -->
      <defs>
       <path d="M 40.4375 6.390625 
Q 35.546875 2.25 31.03125 0.53125 
Q 26.515625 -1.171875 21.34375 -1.171875 
Q 12.796875 -1.171875 8.203125 3 
Q 3.609375 7.171875 3.609375 13.671875 
Q 3.609375 17.484375 5.34375 20.625 
Q 7.078125 23.78125 9.890625 25.6875 
Q 12.703125 27.59375 16.21875 28.5625 
Q 18.796875 29.25 24.03125 29.890625 
Q 34.671875 31.15625 39.703125 32.90625 
Q 39.75 34.71875 39.75 35.203125 
Q 39.75 40.578125 37.25 42.78125 
Q 33.890625 45.75 27.25 45.75 
Q 21.046875 45.75 18.09375 43.578125 
Q 15.140625 41.40625 13.71875 35.890625 
L 5.125 37.0625 
Q 6.296875 42.578125 8.984375 45.96875 
Q 11.671875 49.359375 16.75 51.1875 
Q 21.828125 53.03125 28.515625 53.03125 
Q 35.15625 53.03125 39.296875 51.46875 
Q 43.453125 49.90625 45.40625 47.53125 
Q 47.359375 45.171875 48.140625 41.546875 
Q 48.578125 39.3125 48.578125 33.453125 
L 48.578125 21.734375 
Q 48.578125 9.46875 49.140625 6.21875 
Q 49.703125 2.984375 51.375 0 
L 42.1875 0 
Q 40.828125 2.734375 40.4375 6.390625 
M 39.703125 26.03125 
Q 34.90625 24.078125 25.34375 22.703125 
Q 19.921875 21.921875 17.671875 20.9375 
Q 15.4375 19.96875 14.203125 18.09375 
Q 12.984375 16.21875 12.984375 13.921875 
Q 12.984375 10.40625 15.640625 8.0625 
Q 18.3125 5.71875 23.4375 5.71875 
Q 28.515625 5.71875 32.46875 7.9375 
Q 36.421875 10.15625 38.28125 14.015625 
Q 39.703125 17 39.703125 22.796875 
z
" id="ArialMT-61"/>
       <path d="M 6.203125 -19.96875 
L 5.21875 -11.71875 
Q 8.109375 -12.5 10.25 -12.5 
Q 13.1875 -12.5 14.9375 -11.515625 
Q 16.703125 -10.546875 17.828125 -8.796875 
Q 18.65625 -7.46875 20.515625 -2.25 
Q 20.75 -1.515625 21.296875 -0.09375 
L 1.609375 51.859375 
L 11.078125 51.859375 
L 21.875 21.828125 
Q 23.96875 16.109375 25.640625 9.8125 
Q 27.15625 15.875 29.25 21.625 
L 40.328125 51.859375 
L 49.125 51.859375 
L 29.390625 -0.875 
Q 26.21875 -9.421875 24.46875 -12.640625 
Q 22.125 -17 19.09375 -19.015625 
Q 16.0625 -21.046875 11.859375 -21.046875 
Q 9.328125 -21.046875 6.203125 -19.96875 
" id="ArialMT-79"/>
       <path d="M 40.234375 0 
L 40.234375 6.546875 
Q 35.296875 -1.171875 25.734375 -1.171875 
Q 19.53125 -1.171875 14.328125 2.25 
Q 9.125 5.671875 6.265625 11.796875 
Q 3.421875 17.921875 3.421875 25.875 
Q 3.421875 33.640625 6 39.96875 
Q 8.59375 46.296875 13.765625 49.65625 
Q 18.953125 53.03125 25.34375 53.03125 
Q 30.03125 53.03125 33.6875 51.046875 
Q 37.359375 49.078125 39.65625 45.90625 
L 39.65625 71.578125 
L 48.390625 71.578125 
L 48.390625 0 
z
M 12.453125 25.875 
Q 12.453125 15.921875 16.640625 10.984375 
Q 20.84375 6.0625 26.5625 6.0625 
Q 32.328125 6.0625 36.34375 10.765625 
Q 40.375 15.484375 40.375 25.140625 
Q 40.375 35.796875 36.265625 40.765625 
Q 32.171875 45.75 26.171875 45.75 
Q 20.3125 45.75 16.375 40.96875 
Q 12.453125 36.1875 12.453125 25.875 
" id="ArialMT-64"/>
       <path d="M 3.328125 25.921875 
Q 3.328125 40.328125 11.328125 47.265625 
Q 18.015625 53.03125 27.640625 53.03125 
Q 38.328125 53.03125 45.109375 46.015625 
Q 51.90625 39.015625 51.90625 26.65625 
Q 51.90625 16.65625 48.90625 10.90625 
Q 45.90625 5.171875 40.15625 2 
Q 34.421875 -1.171875 27.640625 -1.171875 
Q 16.75 -1.171875 10.03125 5.8125 
Q 3.328125 12.796875 3.328125 25.921875 
M 12.359375 25.921875 
Q 12.359375 15.96875 16.703125 11.015625 
Q 21.046875 6.0625 27.640625 6.0625 
Q 34.1875 6.0625 38.53125 11.03125 
Q 42.875 16.015625 42.875 26.21875 
Q 42.875 35.84375 38.5 40.796875 
Q 34.125 45.75 27.640625 45.75 
Q 21.046875 45.75 16.703125 40.8125 
Q 12.359375 35.890625 12.359375 25.921875 
" id="ArialMT-6f"/>
       <path d="M 6.59375 0 
L 6.59375 51.859375 
L 14.5 51.859375 
L 14.5 44.484375 
Q 20.21875 53.03125 31 53.03125 
Q 35.6875 53.03125 39.625 51.34375 
Q 43.5625 49.65625 45.515625 46.921875 
Q 47.46875 44.1875 48.25 40.4375 
Q 48.734375 37.984375 48.734375 31.890625 
L 48.734375 0 
L 39.9375 0 
L 39.9375 31.546875 
Q 39.9375 36.921875 38.90625 39.578125 
Q 37.890625 42.234375 35.28125 43.8125 
Q 32.671875 45.40625 29.15625 45.40625 
Q 23.53125 45.40625 19.453125 41.84375 
Q 15.375 38.28125 15.375 28.328125 
L 15.375 0 
z
" id="ArialMT-6e"/>
       <path d="M 7.421875 0 
L 7.421875 71.578125 
L 21.6875 71.578125 
L 38.625 20.90625 
Q 40.96875 13.8125 42.046875 10.296875 
Q 43.265625 14.203125 45.84375 21.78125 
L 62.984375 71.578125 
L 75.734375 71.578125 
L 75.734375 0 
L 66.609375 0 
L 66.609375 59.90625 
L 45.796875 0 
L 37.25 0 
L 16.546875 60.9375 
L 16.546875 0 
z
" id="ArialMT-4d"/>
      </defs>
      <g style="fill:#262626;" transform="translate(83.3346351786 394.4480625)scale(0.14 -0.14)">
       <use xlink:href="#ArialMT-4d"/>
       <use x="83.30078125" xlink:href="#ArialMT-6f"/>
       <use x="138.916015625" xlink:href="#ArialMT-6e"/>
       <use x="194.53125" xlink:href="#ArialMT-64"/>
       <use x="250.146484375" xlink:href="#ArialMT-61"/>
       <use x="305.76171875" xlink:href="#ArialMT-79"/>
      </g>
     </g>
    </g>
    <g id="xtick_2">
     <g id="line2d_3"/>
     <g id="line2d_4"/>
     <g id="text_2">
      <!-- Tuesday -->
      <defs>
       <path d="M 40.578125 0 
L 40.578125 7.625 
Q 34.515625 -1.171875 24.125 -1.171875 
Q 19.53125 -1.171875 15.546875 0.578125 
Q 11.578125 2.34375 9.640625 5 
Q 7.71875 7.671875 6.9375 11.53125 
Q 6.390625 14.109375 6.390625 19.734375 
L 6.390625 51.859375 
L 15.1875 51.859375 
L 15.1875 23.09375 
Q 15.1875 16.21875 15.71875 13.8125 
Q 16.546875 10.359375 19.234375 8.375 
Q 21.921875 6.390625 25.875 6.390625 
Q 29.828125 6.390625 33.296875 8.421875 
Q 36.765625 10.453125 38.203125 13.9375 
Q 39.65625 17.4375 39.65625 24.078125 
L 39.65625 51.859375 
L 48.4375 51.859375 
L 48.4375 0 
z
" id="ArialMT-75"/>
       <path d="M 42.09375 16.703125 
L 51.171875 15.578125 
Q 49.03125 7.625 43.21875 3.21875 
Q 37.40625 -1.171875 28.375 -1.171875 
Q 17 -1.171875 10.328125 5.828125 
Q 3.65625 12.84375 3.65625 25.484375 
Q 3.65625 38.578125 10.390625 45.796875 
Q 17.140625 53.03125 27.875 53.03125 
Q 38.28125 53.03125 44.875 45.953125 
Q 51.46875 38.875 51.46875 26.03125 
Q 51.46875 25.25 51.421875 23.6875 
L 12.75 23.6875 
Q 13.234375 15.140625 17.578125 10.59375 
Q 21.921875 6.0625 28.421875 6.0625 
Q 33.25 6.0625 36.671875 8.59375 
Q 40.09375 11.140625 42.09375 16.703125 
M 13.234375 30.90625 
L 42.1875 30.90625 
Q 41.609375 37.453125 38.875 40.71875 
Q 34.671875 45.796875 27.984375 45.796875 
Q 21.921875 45.796875 17.796875 41.75 
Q 13.671875 37.703125 13.234375 30.90625 
" id="ArialMT-65"/>
       <path d="M 25.921875 0 
L 25.921875 63.140625 
L 2.34375 63.140625 
L 2.34375 71.578125 
L 59.078125 71.578125 
L 59.078125 63.140625 
L 35.40625 63.140625 
L 35.40625 0 
z
" id="ArialMT-54"/>
       <path d="M 3.078125 15.484375 
L 11.765625 16.84375 
Q 12.5 11.625 15.84375 8.84375 
Q 19.1875 6.0625 25.203125 6.0625 
Q 31.25 6.0625 34.171875 8.515625 
Q 37.109375 10.984375 37.109375 14.3125 
Q 37.109375 17.28125 34.515625 19 
Q 32.71875 20.171875 25.53125 21.96875 
Q 15.875 24.421875 12.140625 26.203125 
Q 8.40625 27.984375 6.46875 31.125 
Q 4.546875 34.28125 4.546875 38.09375 
Q 4.546875 41.546875 6.125 44.5 
Q 7.71875 47.46875 10.453125 49.421875 
Q 12.5 50.921875 16.03125 51.96875 
Q 19.578125 53.03125 23.640625 53.03125 
Q 29.734375 53.03125 34.34375 51.265625 
Q 38.96875 49.515625 41.15625 46.5 
Q 43.359375 43.5 44.1875 38.484375 
L 35.59375 37.3125 
Q 35.015625 41.3125 32.203125 43.546875 
Q 29.390625 45.796875 24.265625 45.796875 
Q 18.21875 45.796875 15.625 43.796875 
Q 13.03125 41.796875 13.03125 39.109375 
Q 13.03125 37.40625 14.109375 36.03125 
Q 15.1875 34.625 17.484375 33.6875 
Q 18.796875 33.203125 25.25 31.453125 
Q 34.578125 28.953125 38.25 27.359375 
Q 41.9375 25.78125 44.03125 22.75 
Q 46.140625 19.734375 46.140625 15.234375 
Q 46.140625 10.84375 43.578125 6.953125 
Q 41.015625 3.078125 36.171875 0.953125 
Q 31.34375 -1.171875 25.25 -1.171875 
Q 15.140625 -1.171875 9.84375 3.03125 
Q 4.546875 7.234375 3.078125 15.484375 
" id="ArialMT-73"/>
      </defs>
      <g style="fill:#262626;" transform="translate(177.050371786 394.4480625)scale(0.14 -0.14)">
       <use xlink:href="#ArialMT-54"/>
       <use x="61.037109375" xlink:href="#ArialMT-75"/>
       <use x="116.65234375" xlink:href="#ArialMT-65"/>
       <use x="172.267578125" xlink:href="#ArialMT-73"/>
       <use x="222.267578125" xlink:href="#ArialMT-64"/>
       <use x="277.8828125" xlink:href="#ArialMT-61"/>
       <use x="333.498046875" xlink:href="#ArialMT-79"/>
      </g>
     </g>
    </g>
    <g id="xtick_3">
     <g id="line2d_5"/>
     <g id="line2d_6"/>
     <g id="text_3">
      <!-- Wednesday -->
      <defs>
       <path d="M 20.21875 0 
L 1.21875 71.578125 
L 10.9375 71.578125 
L 21.828125 24.65625 
Q 23.578125 17.28125 24.859375 10.015625 
Q 27.59375 21.484375 28.078125 23.25 
L 41.703125 71.578125 
L 53.125 71.578125 
L 63.375 35.359375 
Q 67.234375 21.875 68.953125 10.015625 
Q 70.3125 16.796875 72.515625 25.59375 
L 83.734375 71.578125 
L 93.265625 71.578125 
L 73.640625 0 
L 64.5 0 
L 49.421875 54.546875 
Q 47.515625 61.375 47.171875 62.9375 
Q 46.046875 58.015625 45.0625 54.546875 
L 29.890625 0 
z
" id="ArialMT-57"/>
      </defs>
      <g style="fill:#262626;" transform="translate(262.588139643 394.4480625)scale(0.14 -0.14)">
       <use xlink:href="#ArialMT-57"/>
       <use x="94.369140625" xlink:href="#ArialMT-65"/>
       <use x="149.984375" xlink:href="#ArialMT-64"/>
       <use x="205.599609375" xlink:href="#ArialMT-6e"/>
       <use x="261.21484375" xlink:href="#ArialMT-65"/>
       <use x="316.830078125" xlink:href="#ArialMT-73"/>
       <use x="366.830078125" xlink:href="#ArialMT-64"/>
       <use x="422.4453125" xlink:href="#ArialMT-61"/>
       <use x="478.060546875" xlink:href="#ArialMT-79"/>
      </g>
     </g>
    </g>
    <g id="xtick_4">
     <g id="line2d_7"/>
     <g id="line2d_8"/>
     <g id="text_4">
      <!-- Thursday -->
      <defs>
       <path d="M 6.59375 0 
L 6.59375 71.578125 
L 15.375 71.578125 
L 15.375 45.90625 
Q 21.53125 53.03125 30.90625 53.03125 
Q 36.671875 53.03125 40.921875 50.75 
Q 45.171875 48.484375 47 44.484375 
Q 48.828125 40.484375 48.828125 32.859375 
L 48.828125 0 
L 40.046875 0 
L 40.046875 32.859375 
Q 40.046875 39.453125 37.1875 42.453125 
Q 34.328125 45.453125 29.109375 45.453125 
Q 25.203125 45.453125 21.75 43.421875 
Q 18.3125 41.40625 16.84375 37.9375 
Q 15.375 34.46875 15.375 28.375 
L 15.375 0 
z
" id="ArialMT-68"/>
       <path d="M 6.5 0 
L 6.5 51.859375 
L 14.40625 51.859375 
L 14.40625 44 
Q 17.4375 49.515625 20 51.265625 
Q 22.5625 53.03125 25.640625 53.03125 
Q 30.078125 53.03125 34.671875 50.203125 
L 31.640625 42.046875 
Q 28.421875 43.953125 25.203125 43.953125 
Q 22.3125 43.953125 20.015625 42.21875 
Q 17.71875 40.484375 16.75 37.40625 
Q 15.28125 32.71875 15.28125 27.15625 
L 15.28125 0 
z
" id="ArialMT-72"/>
      </defs>
      <g style="fill:#262626;" transform="translate(366.030595 394.4480625)scale(0.14 -0.14)">
       <use xlink:href="#ArialMT-54"/>
       <use x="61.083984375" xlink:href="#ArialMT-68"/>
       <use x="116.69921875" xlink:href="#ArialMT-75"/>
       <use x="172.314453125" xlink:href="#ArialMT-72"/>
       <use x="205.615234375" xlink:href="#ArialMT-73"/>
       <use x="255.615234375" xlink:href="#ArialMT-64"/>
       <use x="311.23046875" xlink:href="#ArialMT-61"/>
       <use x="366.845703125" xlink:href="#ArialMT-79"/>
      </g>
     </g>
    </g>
    <g id="xtick_5">
     <g id="line2d_9"/>
     <g id="line2d_10"/>
     <g id="text_5">
      <!-- Friday -->
      <defs>
       <path d="M 6.640625 61.46875 
L 6.640625 71.578125 
L 15.4375 71.578125 
L 15.4375 61.46875 
z
M 6.640625 0 
L 6.640625 51.859375 
L 15.4375 51.859375 
L 15.4375 0 
z
" id="ArialMT-69"/>
       <path d="M 8.203125 0 
L 8.203125 71.578125 
L 56.5 71.578125 
L 56.5 63.140625 
L 17.671875 63.140625 
L 17.671875 40.96875 
L 51.265625 40.96875 
L 51.265625 32.515625 
L 17.671875 32.515625 
L 17.671875 0 
z
" id="ArialMT-46"/>
      </defs>
      <g style="fill:#262626;" transform="translate(471.417737857 394.4480625)scale(0.14 -0.14)">
       <use xlink:href="#ArialMT-46"/>
       <use x="61.083984375" xlink:href="#ArialMT-72"/>
       <use x="94.384765625" xlink:href="#ArialMT-69"/>
       <use x="116.6015625" xlink:href="#ArialMT-64"/>
       <use x="172.216796875" xlink:href="#ArialMT-61"/>
       <use x="227.83203125" xlink:href="#ArialMT-79"/>
      </g>
     </g>
    </g>
    <g id="xtick_6">
     <g id="line2d_11"/>
     <g id="line2d_12"/>
     <g id="text_6">
      <!-- Saturday -->
      <defs>
       <path d="M 25.78125 7.859375 
L 27.046875 0.09375 
Q 23.34375 -0.6875 20.40625 -0.6875 
Q 15.625 -0.6875 12.984375 0.828125 
Q 10.359375 2.34375 9.28125 4.8125 
Q 8.203125 7.28125 8.203125 15.1875 
L 8.203125 45.015625 
L 1.765625 45.015625 
L 1.765625 51.859375 
L 8.203125 51.859375 
L 8.203125 64.703125 
L 16.9375 69.96875 
L 16.9375 51.859375 
L 25.78125 51.859375 
L 25.78125 45.015625 
L 16.9375 45.015625 
L 16.9375 14.703125 
Q 16.9375 10.9375 17.40625 9.859375 
Q 17.875 8.796875 18.921875 8.15625 
Q 19.96875 7.515625 21.921875 7.515625 
Q 23.390625 7.515625 25.78125 7.859375 
" id="ArialMT-74"/>
       <path d="M 4.5 23 
L 13.421875 23.78125 
Q 14.0625 18.40625 16.375 14.96875 
Q 18.703125 11.53125 23.578125 9.40625 
Q 28.46875 7.28125 34.578125 7.28125 
Q 39.984375 7.28125 44.140625 8.890625 
Q 48.296875 10.5 50.3125 13.296875 
Q 52.34375 16.109375 52.34375 19.4375 
Q 52.34375 22.796875 50.390625 25.3125 
Q 48.4375 27.828125 43.953125 29.546875 
Q 41.0625 30.671875 31.203125 33.03125 
Q 21.34375 35.40625 17.390625 37.5 
Q 12.25 40.1875 9.734375 44.15625 
Q 7.234375 48.140625 7.234375 53.078125 
Q 7.234375 58.5 10.296875 63.203125 
Q 13.375 67.921875 19.28125 70.359375 
Q 25.203125 72.796875 32.421875 72.796875 
Q 40.375 72.796875 46.453125 70.234375 
Q 52.546875 67.671875 55.8125 62.6875 
Q 59.078125 57.71875 59.328125 51.421875 
L 50.25 50.734375 
Q 49.515625 57.515625 45.28125 60.984375 
Q 41.0625 64.453125 32.8125 64.453125 
Q 24.21875 64.453125 20.28125 61.296875 
Q 16.359375 58.15625 16.359375 53.71875 
Q 16.359375 49.859375 19.140625 47.359375 
Q 21.875 44.875 33.421875 42.265625 
Q 44.96875 39.65625 49.265625 37.703125 
Q 55.515625 34.8125 58.484375 30.390625 
Q 61.46875 25.984375 61.46875 20.21875 
Q 61.46875 14.5 58.203125 9.4375 
Q 54.9375 4.390625 48.796875 1.578125 
Q 42.671875 -1.21875 35.015625 -1.21875 
Q 25.296875 -1.21875 18.71875 1.609375 
Q 12.15625 4.4375 8.421875 10.125 
Q 4.6875 15.828125 4.5 23 
" id="ArialMT-53"/>
      </defs>
      <g style="fill:#262626;" transform="translate(558.506443214 394.6186875)scale(0.14 -0.14)">
       <use xlink:href="#ArialMT-53"/>
       <use x="66.69921875" xlink:href="#ArialMT-61"/>
       <use x="122.314453125" xlink:href="#ArialMT-74"/>
       <use x="150.09765625" xlink:href="#ArialMT-75"/>
       <use x="205.712890625" xlink:href="#ArialMT-72"/>
       <use x="239.013671875" xlink:href="#ArialMT-64"/>
       <use x="294.62890625" xlink:href="#ArialMT-61"/>
       <use x="350.244140625" xlink:href="#ArialMT-79"/>
      </g>
     </g>
    </g>
    <g id="xtick_7">
     <g id="line2d_13"/>
     <g id="line2d_14"/>
     <g id="text_7">
      <!-- Sunday -->
      <g style="fill:#262626;" transform="translate(658.439054821 394.6186875)scale(0.14 -0.14)">
       <use xlink:href="#ArialMT-53"/>
       <use x="66.69921875" xlink:href="#ArialMT-75"/>
       <use x="122.314453125" xlink:href="#ArialMT-6e"/>
       <use x="177.9296875" xlink:href="#ArialMT-64"/>
       <use x="233.544921875" xlink:href="#ArialMT-61"/>
       <use x="289.16015625" xlink:href="#ArialMT-79"/>
      </g>
     </g>
    </g>
   </g>
   <g id="matplotlib.axis_2">
    <g id="ytick_1">
     <g id="line2d_15"/>
     <g id="line2d_16"/>
     <g id="text_8">
      <!-- 0 -->
      <defs>
       <path d="M 4.15625 35.296875 
Q 4.15625 48 6.765625 55.734375 
Q 9.375 63.484375 14.515625 67.671875 
Q 19.671875 71.875 27.484375 71.875 
Q 33.25 71.875 37.59375 69.546875 
Q 41.9375 67.234375 44.765625 62.859375 
Q 47.609375 58.5 49.21875 52.21875 
Q 50.828125 45.953125 50.828125 35.296875 
Q 50.828125 22.703125 48.234375 14.96875 
Q 45.65625 7.234375 40.5 3 
Q 35.359375 -1.21875 27.484375 -1.21875 
Q 17.140625 -1.21875 11.234375 6.203125 
Q 4.15625 15.140625 4.15625 35.296875 
M 13.1875 35.296875 
Q 13.1875 17.671875 17.3125 11.828125 
Q 21.4375 6 27.484375 6 
Q 33.546875 6 37.671875 11.859375 
Q 41.796875 17.71875 41.796875 35.296875 
Q 41.796875 52.984375 37.671875 58.78125 
Q 33.546875 64.59375 27.390625 64.59375 
Q 21.34375 64.59375 17.71875 59.46875 
Q 13.1875 52.9375 13.1875 35.296875 
" id="ArialMT-30"/>
      </defs>
      <g style="fill:#262626;" transform="translate(47.8465325 380.01228125)scale(0.1 -0.1)">
       <use xlink:href="#ArialMT-30"/>
      </g>
     </g>
    </g>
    <g id="ytick_2">
     <g id="line2d_17"/>
     <g id="line2d_18"/>
     <g id="text_9">
      <!-- 500 -->
      <defs>
       <path d="M 4.15625 18.75 
L 13.375 19.53125 
Q 14.40625 12.796875 18.140625 9.390625 
Q 21.875 6 27.15625 6 
Q 33.5 6 37.890625 10.78125 
Q 42.28125 15.578125 42.28125 23.484375 
Q 42.28125 31 38.0625 35.34375 
Q 33.84375 39.703125 27 39.703125 
Q 22.75 39.703125 19.328125 37.765625 
Q 15.921875 35.84375 13.96875 32.765625 
L 5.71875 33.84375 
L 12.640625 70.609375 
L 48.25 70.609375 
L 48.25 62.203125 
L 19.671875 62.203125 
L 15.828125 42.96875 
Q 22.265625 47.46875 29.34375 47.46875 
Q 38.71875 47.46875 45.15625 40.96875 
Q 51.609375 34.46875 51.609375 24.265625 
Q 51.609375 14.546875 45.953125 7.46875 
Q 39.0625 -1.21875 27.15625 -1.21875 
Q 17.390625 -1.21875 11.203125 4.25 
Q 5.03125 9.71875 4.15625 18.75 
" id="ArialMT-35"/>
      </defs>
      <g style="fill:#262626;" transform="translate(36.7246575 324.21228125)scale(0.1 -0.1)">
       <use xlink:href="#ArialMT-35"/>
       <use x="55.615234375" xlink:href="#ArialMT-30"/>
       <use x="111.23046875" xlink:href="#ArialMT-30"/>
      </g>
     </g>
    </g>
    <g id="ytick_3">
     <g id="line2d_19"/>
     <g id="line2d_20"/>
     <g id="text_10">
      <!-- 1000 -->
      <defs>
       <path d="M 37.25 0 
L 28.46875 0 
L 28.46875 56 
Q 25.296875 52.984375 20.140625 49.953125 
Q 14.984375 46.921875 10.890625 45.40625 
L 10.890625 53.90625 
Q 18.265625 57.375 23.78125 62.296875 
Q 29.296875 67.234375 31.59375 71.875 
L 37.25 71.875 
z
" id="ArialMT-31"/>
      </defs>
      <g style="fill:#262626;" transform="translate(31.16372 268.41228125)scale(0.1 -0.1)">
       <use xlink:href="#ArialMT-31"/>
       <use x="55.615234375" xlink:href="#ArialMT-30"/>
       <use x="111.23046875" xlink:href="#ArialMT-30"/>
       <use x="166.845703125" xlink:href="#ArialMT-30"/>
      </g>
     </g>
    </g>
    <g id="ytick_4">
     <g id="line2d_21"/>
     <g id="line2d_22"/>
     <g id="text_11">
      <!-- 1500 -->
      <g style="fill:#262626;" transform="translate(31.16372 212.61228125)scale(0.1 -0.1)">
       <use xlink:href="#ArialMT-31"/>
       <use x="55.615234375" xlink:href="#ArialMT-35"/>
       <use x="111.23046875" xlink:href="#ArialMT-30"/>
       <use x="166.845703125" xlink:href="#ArialMT-30"/>
      </g>
     </g>
    </g>
    <g id="ytick_5">
     <g id="line2d_23"/>
     <g id="line2d_24"/>
     <g id="text_12">
      <!-- 2000 -->
      <defs>
       <path d="M 50.34375 8.453125 
L 50.34375 0 
L 3.03125 0 
Q 2.9375 3.171875 4.046875 6.109375 
Q 5.859375 10.9375 9.828125 15.625 
Q 13.8125 20.3125 21.34375 26.46875 
Q 33.015625 36.03125 37.109375 41.625 
Q 41.21875 47.21875 41.21875 52.203125 
Q 41.21875 57.421875 37.46875 61 
Q 33.734375 64.59375 27.734375 64.59375 
Q 21.390625 64.59375 17.578125 60.78125 
Q 13.765625 56.984375 13.71875 50.25 
L 4.6875 51.171875 
Q 5.609375 61.28125 11.65625 66.578125 
Q 17.71875 71.875 27.9375 71.875 
Q 38.234375 71.875 44.234375 66.15625 
Q 50.25 60.453125 50.25 52 
Q 50.25 47.703125 48.484375 43.546875 
Q 46.734375 39.40625 42.65625 34.8125 
Q 38.578125 30.21875 29.109375 22.21875 
Q 21.1875 15.578125 18.9375 13.203125 
Q 16.703125 10.84375 15.234375 8.453125 
z
" id="ArialMT-32"/>
      </defs>
      <g style="fill:#262626;" transform="translate(31.16372 156.81228125)scale(0.1 -0.1)">
       <use xlink:href="#ArialMT-32"/>
       <use x="55.615234375" xlink:href="#ArialMT-30"/>
       <use x="111.23046875" xlink:href="#ArialMT-30"/>
       <use x="166.845703125" xlink:href="#ArialMT-30"/>
      </g>
     </g>
    </g>
    <g id="ytick_6">
     <g id="line2d_25"/>
     <g id="line2d_26"/>
     <g id="text_13">
      <!-- 2500 -->
      <g style="fill:#262626;" transform="translate(31.16372 101.01228125)scale(0.1 -0.1)">
       <use xlink:href="#ArialMT-32"/>
       <use x="55.615234375" xlink:href="#ArialMT-35"/>
       <use x="111.23046875" xlink:href="#ArialMT-30"/>
       <use x="166.845703125" xlink:href="#ArialMT-30"/>
      </g>
     </g>
    </g>
    <g id="ytick_7">
     <g id="line2d_27"/>
     <g id="line2d_28"/>
     <g id="text_14">
      <!-- 3000 -->
      <defs>
       <path d="M 4.203125 18.890625 
L 12.984375 20.0625 
Q 14.5 12.59375 18.140625 9.296875 
Q 21.78125 6 27 6 
Q 33.203125 6 37.46875 10.296875 
Q 41.75 14.59375 41.75 20.953125 
Q 41.75 27 37.796875 30.921875 
Q 33.84375 34.859375 27.734375 34.859375 
Q 25.25 34.859375 21.53125 33.890625 
L 22.515625 41.609375 
Q 23.390625 41.5 23.921875 41.5 
Q 29.546875 41.5 34.03125 44.421875 
Q 38.53125 47.359375 38.53125 53.46875 
Q 38.53125 58.296875 35.25 61.46875 
Q 31.984375 64.65625 26.8125 64.65625 
Q 21.6875 64.65625 18.265625 61.421875 
Q 14.84375 58.203125 13.875 51.765625 
L 5.078125 53.328125 
Q 6.6875 62.15625 12.390625 67.015625 
Q 18.109375 71.875 26.609375 71.875 
Q 32.46875 71.875 37.390625 69.359375 
Q 42.328125 66.84375 44.9375 62.5 
Q 47.5625 58.15625 47.5625 53.265625 
Q 47.5625 48.640625 45.0625 44.828125 
Q 42.578125 41.015625 37.703125 38.765625 
Q 44.046875 37.3125 47.5625 32.6875 
Q 51.078125 28.078125 51.078125 21.140625 
Q 51.078125 11.765625 44.234375 5.25 
Q 37.40625 -1.265625 26.953125 -1.265625 
Q 17.53125 -1.265625 11.296875 4.34375 
Q 5.078125 9.96875 4.203125 18.890625 
" id="ArialMT-33"/>
      </defs>
      <g style="fill:#262626;" transform="translate(31.16372 45.21228125)scale(0.1 -0.1)">
       <use xlink:href="#ArialMT-33"/>
       <use x="55.615234375" xlink:href="#ArialMT-30"/>
       <use x="111.23046875" xlink:href="#ArialMT-30"/>
       <use x="166.845703125" xlink:href="#ArialMT-30"/>
      </g>
     </g>
    </g>
    <g id="text_15">
     <!-- Accidents -->
     <defs>
      <path d="M -0.140625 0 
L 27.34375 71.578125 
L 37.546875 71.578125 
L 66.84375 0 
L 56.0625 0 
L 47.703125 21.6875 
L 17.78125 21.6875 
L 9.90625 0 
z
M 20.515625 29.390625 
L 44.78125 29.390625 
L 37.3125 49.21875 
Q 33.890625 58.25 32.234375 64.0625 
Q 30.859375 57.171875 28.375 50.390625 
z
" id="ArialMT-41"/>
      <path d="M 40.4375 19 
L 49.078125 17.875 
Q 47.65625 8.9375 41.8125 3.875 
Q 35.984375 -1.171875 27.484375 -1.171875 
Q 16.84375 -1.171875 10.375 5.78125 
Q 3.90625 12.75 3.90625 25.734375 
Q 3.90625 34.125 6.6875 40.421875 
Q 9.46875 46.734375 15.15625 49.875 
Q 20.84375 53.03125 27.546875 53.03125 
Q 35.984375 53.03125 41.359375 48.75 
Q 46.734375 44.484375 48.25 36.625 
L 39.703125 35.296875 
Q 38.484375 40.53125 35.375 43.15625 
Q 32.28125 45.796875 27.875 45.796875 
Q 21.234375 45.796875 17.078125 41.03125 
Q 12.9375 36.28125 12.9375 25.984375 
Q 12.9375 15.53125 16.9375 10.796875 
Q 20.953125 6.0625 27.390625 6.0625 
Q 32.5625 6.0625 36.03125 9.234375 
Q 39.5 12.40625 40.4375 19 
" id="ArialMT-63"/>
     </defs>
     <g style="fill:#262626;" transform="translate(22.04244 254.975645)rotate(-90.0)scale(0.20736 -0.20736)">
      <use xlink:href="#ArialMT-41"/>
      <use x="66.69921875" xlink:href="#ArialMT-63"/>
      <use x="116.69921875" xlink:href="#ArialMT-63"/>
      <use x="166.69921875" xlink:href="#ArialMT-69"/>
      <use x="188.916015625" xlink:href="#ArialMT-64"/>
      <use x="244.53125" xlink:href="#ArialMT-65"/>
      <use x="300.146484375" xlink:href="#ArialMT-6e"/>
      <use x="355.76171875" xlink:href="#ArialMT-74"/>
      <use x="383.544921875" xlink:href="#ArialMT-73"/>
     </g>
    </g>
   </g>
   <g id="PolyCollection_1">
    <defs>
     <path d="M 108.501587 -97.757725 
L 107.970496 -97.757725 
L 107.882547 -99.550089 
L 107.752308 -101.342452 
L 107.561428 -103.134816 
L 107.292832 -104.92718 
L 106.935493 -106.719543 
L 106.489092 -108.511907 
L 105.967152 -110.30427 
L 105.397181 -112.096634 
L 104.816747 -113.888998 
L 104.265216 -115.681361 
L 103.772339 -117.473725 
L 103.346247 -119.266089 
L 102.96431 -121.058452 
L 102.570046 -122.850816 
L 102.077905 -124.64318 
L 101.385902 -126.435543 
L 100.394182 -128.227907 
L 99.026186 -130.02027 
L 97.248147 -131.812634 
L 95.0824 -133.604998 
L 92.61079 -135.397361 
L 89.966507 -137.189725 
L 87.315712 -138.982089 
L 84.833151 -140.774452 
L 82.677417 -142.566816 
L 80.97104 -144.35918 
L 79.788587 -146.151543 
L 79.15353 -147.943907 
L 79.04265 -149.73627 
L 79.395375 -151.528634 
L 80.124792 -153.320998 
L 81.127306 -155.113361 
L 82.28942 -156.905725 
L 83.492525 -158.698089 
L 84.618488 -160.490452 
L 85.558591 -162.282816 
L 86.225856 -164.07518 
L 86.567492 -165.867543 
L 86.572823 -167.659907 
L 86.273442 -169.45227 
L 85.735588 -171.244634 
L 85.047484 -173.036998 
L 84.305181 -174.829361 
L 83.599815 -176.621725 
L 83.008235 -178.414089 
L 82.588581 -180.206452 
L 82.381675 -181.998816 
L 82.417283 -183.79118 
L 82.721566 -185.583543 
L 83.320354 -187.375907 
L 84.23434 -189.16827 
L 85.46702 -190.960634 
L 86.991543 -192.752998 
L 88.744964 -194.545361 
L 90.635418 -196.337725 
L 92.560972 -198.130089 
L 94.432356 -199.922452 
L 96.189551 -201.714816 
L 97.80563 -203.50718 
L 99.278049 -205.299543 
L 100.613694 -207.091907 
L 101.815985 -208.88427 
L 102.879733 -210.676634 
L 103.794313 -212.468998 
L 104.551385 -214.261361 
L 105.151975 -216.053725 
L 105.609344 -217.846089 
L 105.947044 -219.638452 
L 106.19391 -221.430816 
L 106.378511 -223.22318 
L 106.524881 -225.015543 
L 106.650248 -226.807907 
L 106.764601 -228.60027 
L 106.871668 -230.392634 
L 106.970839 -232.184998 
L 107.059569 -233.977361 
L 107.135704 -235.769725 
L 107.199132 -237.562089 
L 107.252339 -239.354452 
L 107.299807 -241.146816 
L 107.346604 -242.93918 
L 107.396785 -244.731543 
L 107.45228 -246.523907 
L 107.512708 -248.31627 
L 107.576149 -250.108634 
L 107.640431 -251.900998 
L 107.704197 -253.693361 
L 107.767181 -255.485725 
L 107.829545 -257.278089 
L 107.890779 -259.070452 
L 107.948887 -260.862816 
L 108.000462 -262.65518 
L 108.041704 -264.447543 
L 108.069904 -266.239907 
L 108.084716 -268.03227 
L 108.088614 -269.824634 
L 108.086334 -271.616998 
L 108.083512 -273.409361 
L 108.085033 -275.201725 
L 108.38705 -275.201725 
L 108.38705 -275.201725 
L 108.388571 -273.409361 
L 108.385749 -271.616998 
L 108.383469 -269.824634 
L 108.387367 -268.03227 
L 108.402179 -266.239907 
L 108.430379 -264.447543 
L 108.471621 -262.65518 
L 108.523196 -260.862816 
L 108.581304 -259.070452 
L 108.642537 -257.278089 
L 108.704902 -255.485725 
L 108.767886 -253.693361 
L 108.831652 -251.900998 
L 108.895934 -250.108634 
L 108.959375 -248.31627 
L 109.019803 -246.523907 
L 109.075298 -244.731543 
L 109.125479 -242.93918 
L 109.172276 -241.146816 
L 109.219744 -239.354452 
L 109.272951 -237.562089 
L 109.336379 -235.769725 
L 109.412514 -233.977361 
L 109.501244 -232.184998 
L 109.600415 -230.392634 
L 109.707482 -228.60027 
L 109.821835 -226.807907 
L 109.947201 -225.015543 
L 110.093572 -223.22318 
L 110.278173 -221.430816 
L 110.525039 -219.638452 
L 110.862738 -217.846089 
L 111.320108 -216.053725 
L 111.920698 -214.261361 
L 112.67777 -212.468998 
L 113.59235 -210.676634 
L 114.656098 -208.88427 
L 115.858389 -207.091907 
L 117.194034 -205.299543 
L 118.666453 -203.50718 
L 120.282532 -201.714816 
L 122.039727 -199.922452 
L 123.911111 -198.130089 
L 125.836665 -196.337725 
L 127.727119 -194.545361 
L 129.480539 -192.752998 
L 131.005062 -190.960634 
L 132.237743 -189.16827 
L 133.151729 -187.375907 
L 133.750516 -185.583543 
L 134.0548 -183.79118 
L 134.090408 -181.998816 
L 133.883502 -180.206452 
L 133.463847 -178.414089 
L 132.872268 -176.621725 
L 132.166902 -174.829361 
L 131.424599 -173.036998 
L 130.736494 -171.244634 
L 130.198641 -169.45227 
L 129.899259 -167.659907 
L 129.904591 -165.867543 
L 130.246227 -164.07518 
L 130.913492 -162.282816 
L 131.853595 -160.490452 
L 132.979557 -158.698089 
L 134.182663 -156.905725 
L 135.344777 -155.113361 
L 136.347291 -153.320998 
L 137.076708 -151.528634 
L 137.429433 -149.73627 
L 137.318553 -147.943907 
L 136.683496 -146.151543 
L 135.501042 -144.35918 
L 133.794666 -142.566816 
L 131.638932 -140.774452 
L 129.156371 -138.982089 
L 126.505576 -137.189725 
L 123.861293 -135.397361 
L 121.389683 -133.604998 
L 119.223936 -131.812634 
L 117.445896 -130.02027 
L 116.077901 -128.227907 
L 115.086181 -126.435543 
L 114.394178 -124.64318 
L 113.902037 -122.850816 
L 113.507772 -121.058452 
L 113.125836 -119.266089 
L 112.699744 -117.473725 
L 112.206867 -115.681361 
L 111.655336 -113.888998 
L 111.074901 -112.096634 
L 110.504931 -110.30427 
L 109.98299 -108.511907 
L 109.53659 -106.719543 
L 109.179251 -104.92718 
L 108.910655 -103.134816 
L 108.719775 -101.342452 
L 108.589536 -99.550089 
L 108.501587 -97.757725 
z
" id="mb52f3940c7" style="stroke:#353535;stroke-width:2.0;"/>
    </defs>
    <g clip-path="url(#p083a3d7184)">
     <use style="fill:#367182;stroke:#353535;stroke-width:2.0;" x="0.0" xlink:href="#mb52f3940c7" y="404.76525"/>
    </g>
   </g>
   <g id="PolyCollection_2">
    <defs>
     <path d="M 204.152138 -96.753325 
L 203.634231 -96.753325 
L 203.609872 -98.49947 
L 203.597309 -100.245616 
L 203.595446 -101.991761 
L 203.600614 -103.737907 
L 203.607442 -105.484052 
L 203.61002 -107.230198 
L 203.602815 -108.976343 
L 203.580992 -110.722489 
L 203.540117 -112.468634 
L 203.475595 -114.21478 
L 203.382087 -115.960925 
L 203.252827 -117.70707 
L 203.078293 -119.453216 
L 202.843814 -121.199361 
L 202.526411 -122.945507 
L 202.092218 -124.691652 
L 201.496366 -126.437798 
L 200.68671 -128.183943 
L 199.611398 -129.930089 
L 198.228683 -131.676234 
L 196.516494 -133.42238 
L 194.479507 -135.168525 
L 192.1526 -136.91467 
L 189.600939 -138.660816 
L 186.917674 -140.406961 
L 184.21988 -142.153107 
L 181.642141 -143.899252 
L 179.326218 -145.645398 
L 177.405785 -147.391543 
L 175.987676 -149.137689 
L 175.134042 -150.883834 
L 174.851101 -152.62998 
L 175.088257 -154.376125 
L 175.747266 -156.12227 
L 176.697513 -157.868416 
L 177.792688 -159.614561 
L 178.886192 -161.360707 
L 179.845191 -163.106852 
L 180.563949 -164.852998 
L 180.975528 -166.599143 
L 181.058901 -168.345289 
L 180.838292 -170.091434 
L 180.37384 -171.83758 
L 179.746143 -173.583725 
L 179.039694 -175.32987 
L 178.330237 -177.076016 
L 177.678803 -178.822161 
L 177.132066 -180.568307 
L 176.726254 -182.314452 
L 176.491259 -184.060598 
L 176.452793 -185.806743 
L 176.63247 -187.552889 
L 177.047082 -189.299034 
L 177.708069 -191.04518 
L 178.620677 -192.791325 
L 179.78122 -194.53747 
L 181.171994 -196.283616 
L 182.756165 -198.029761 
L 184.477094 -199.775907 
L 186.265236 -201.522052 
L 188.051281 -203.268198 
L 189.779682 -205.014343 
L 191.416022 -206.760489 
L 192.945489 -208.506634 
L 194.365161 -210.25278 
L 195.675644 -211.998925 
L 196.876324 -213.74507 
L 197.964766 -215.491216 
L 198.938104 -217.237361 
L 199.794166 -218.983507 
L 200.531789 -220.729652 
L 201.151174 -222.475798 
L 201.655029 -224.221943 
L 202.050157 -225.968089 
L 202.348384 -227.714234 
L 202.565976 -229.46038 
L 202.721708 -231.206525 
L 202.834437 -232.95267 
L 202.92104 -234.698816 
L 202.995044 -236.444961 
L 203.065762 -238.191107 
L 203.137816 -239.937252 
L 203.211161 -241.683398 
L 203.281896 -243.429543 
L 203.343928 -245.175689 
L 203.391134 -246.921834 
L 203.419446 -248.66798 
L 203.428254 -250.414125 
L 203.420757 -252.16027 
L 203.403173 -253.906416 
L 203.383001 -255.652561 
L 203.366934 -257.398707 
L 203.359208 -259.144852 
L 203.361141 -260.890998 
L 203.37203 -262.637143 
L 203.39081 -264.383289 
L 203.417405 -266.129434 
L 203.452889 -267.87558 
L 203.498366 -269.621725 
L 204.288002 -269.621725 
L 204.288002 -269.621725 
L 204.33348 -267.87558 
L 204.368963 -266.129434 
L 204.395559 -264.383289 
L 204.414339 -262.637143 
L 204.425228 -260.890998 
L 204.427161 -259.144852 
L 204.419435 -257.398707 
L 204.403367 -255.652561 
L 204.383196 -253.906416 
L 204.365611 -252.16027 
L 204.358115 -250.414125 
L 204.366922 -248.66798 
L 204.395234 -246.921834 
L 204.44244 -245.175689 
L 204.504472 -243.429543 
L 204.575208 -241.683398 
L 204.648553 -239.937252 
L 204.720607 -238.191107 
L 204.791325 -236.444961 
L 204.865328 -234.698816 
L 204.951932 -232.95267 
L 205.06466 -231.206525 
L 205.220393 -229.46038 
L 205.437985 -227.714234 
L 205.736211 -225.968089 
L 206.13134 -224.221943 
L 206.635195 -222.475798 
L 207.254579 -220.729652 
L 207.992202 -218.983507 
L 208.848264 -217.237361 
L 209.821602 -215.491216 
L 210.910044 -213.74507 
L 212.110724 -211.998925 
L 213.421208 -210.25278 
L 214.840879 -208.506634 
L 216.370347 -206.760489 
L 218.006686 -205.014343 
L 219.735087 -203.268198 
L 221.521132 -201.522052 
L 223.309275 -199.775907 
L 225.030204 -198.029761 
L 226.614375 -196.283616 
L 228.005148 -194.53747 
L 229.165692 -192.791325 
L 230.078299 -191.04518 
L 230.739287 -189.299034 
L 231.153898 -187.552889 
L 231.333575 -185.806743 
L 231.29511 -184.060598 
L 231.060115 -182.314452 
L 230.654303 -180.568307 
L 230.107566 -178.822161 
L 229.456131 -177.076016 
L 228.746674 -175.32987 
L 228.040226 -173.583725 
L 227.412529 -171.83758 
L 226.948076 -170.091434 
L 226.727467 -168.345289 
L 226.81084 -166.599143 
L 227.22242 -164.852998 
L 227.941178 -163.106852 
L 228.900177 -161.360707 
L 229.993681 -159.614561 
L 231.088856 -157.868416 
L 232.039103 -156.12227 
L 232.698112 -154.376125 
L 232.935268 -152.62998 
L 232.652327 -150.883834 
L 231.798693 -149.137689 
L 230.380584 -147.391543 
L 228.460151 -145.645398 
L 226.144227 -143.899252 
L 223.566488 -142.153107 
L 220.868694 -140.406961 
L 218.18543 -138.660816 
L 215.633769 -136.91467 
L 213.306862 -135.168525 
L 211.269874 -133.42238 
L 209.557686 -131.676234 
L 208.174971 -129.930089 
L 207.099659 -128.183943 
L 206.290002 -126.437798 
L 205.69415 -124.691652 
L 205.259958 -122.945507 
L 204.942555 -121.199361 
L 204.708076 -119.453216 
L 204.533542 -117.70707 
L 204.404282 -115.960925 
L 204.310774 -114.21478 
L 204.246251 -112.468634 
L 204.205377 -110.722489 
L 204.183553 -108.976343 
L 204.176349 -107.230198 
L 204.178927 -105.484052 
L 204.185755 -103.737907 
L 204.190923 -101.991761 
L 204.18906 -100.245616 
L 204.176497 -98.49947 
L 204.152138 -96.753325 
z
" id="m8734906b47" style="stroke:#353535;stroke-width:2.0;"/>
    </defs>
    <g clip-path="url(#p083a3d7184)">
     <use style="fill:#2f837f;stroke:#353535;stroke-width:2.0;" x="0.0" xlink:href="#m8734906b47" y="404.76525"/>
    </g>
   </g>
   <g id="PolyCollection_3">
    <defs>
     <path d="M 299.709198 -89.387725 
L 299.391456 -89.387725 
L 299.398675 -91.261252 
L 299.418371 -93.13478 
L 299.444938 -95.008307 
L 299.471359 -96.881834 
L 299.491239 -98.755361 
L 299.500037 -100.628889 
L 299.495344 -102.502416 
L 299.476681 -104.375943 
L 299.445244 -106.24947 
L 299.403603 -108.122998 
L 299.355018 -109.996525 
L 299.302283 -111.870052 
L 299.246448 -113.74358 
L 299.185934 -115.617107 
L 299.115983 -117.490634 
L 299.027465 -119.364161 
L 298.903883 -121.237689 
L 298.716562 -123.111216 
L 298.420101 -124.984743 
L 297.951695 -126.85827 
L 297.237343 -128.731798 
L 296.204937 -130.605325 
L 294.800328 -132.478852 
L 293.000223 -134.35238 
L 290.817035 -136.225907 
L 288.295293 -138.099434 
L 285.504187 -139.972961 
L 282.53278 -141.846489 
L 279.491351 -143.720016 
L 276.515745 -145.593543 
L 273.766303 -147.46707 
L 271.413835 -149.340598 
L 269.612611 -151.214125 
L 268.469238 -153.087652 
L 268.019707 -154.96118 
L 268.222839 -156.834707 
L 268.970602 -158.708234 
L 270.109648 -160.581761 
L 271.466174 -162.455289 
L 272.867203 -164.328816 
L 274.154742 -166.202343 
L 275.193966 -168.07587 
L 275.880347 -169.949398 
L 276.150532 -171.822925 
L 275.996817 -173.696452 
L 275.477907 -175.56998 
L 274.714936 -177.443507 
L 273.86613 -179.317034 
L 273.085957 -181.190561 
L 272.487209 -183.064089 
L 272.126466 -184.937616 
L 272.020064 -186.811143 
L 272.177506 -188.68467 
L 272.627736 -190.558198 
L 273.420079 -192.431725 
L 274.600241 -194.305252 
L 276.177723 -196.17878 
L 278.103855 -198.052307 
L 280.271101 -199.925834 
L 282.533049 -201.799361 
L 284.737394 -203.672889 
L 286.761297 -205.546416 
L 288.537569 -207.419943 
L 290.061907 -209.29347 
L 291.377801 -211.166998 
L 292.545911 -213.040525 
L 293.612636 -214.914052 
L 294.592525 -216.78758 
L 295.470592 -218.661107 
L 296.219371 -220.534634 
L 296.818954 -222.408161 
L 297.269427 -224.281689 
L 297.591635 -226.155216 
L 297.818922 -228.028743 
L 297.985827 -229.90227 
L 298.119331 -231.775798 
L 298.235608 -233.649325 
L 298.342096 -235.522852 
L 298.442124 -237.39638 
L 298.53852 -239.269907 
L 298.634111 -241.143434 
L 298.72985 -243.016961 
L 298.823182 -244.890489 
L 298.908764 -246.764016 
L 298.981341 -248.637543 
L 299.038766 -250.51107 
L 299.083191 -252.384598 
L 299.119991 -254.258125 
L 299.155367 -256.131652 
L 299.193918 -258.00518 
L 299.23702 -259.878707 
L 299.282367 -261.752234 
L 299.32479 -263.625761 
L 299.358273 -265.499289 
L 299.378607 -267.372816 
L 299.385589 -269.246343 
L 299.383597 -271.11987 
L 299.380048 -272.993398 
L 299.382344 -274.866925 
L 299.718311 -274.866925 
L 299.718311 -274.866925 
L 299.720607 -272.993398 
L 299.717057 -271.11987 
L 299.715066 -269.246343 
L 299.722047 -267.372816 
L 299.742381 -265.499289 
L 299.775864 -263.625761 
L 299.818287 -261.752234 
L 299.863634 -259.878707 
L 299.906736 -258.00518 
L 299.945287 -256.131652 
L 299.980663 -254.258125 
L 300.017463 -252.384598 
L 300.061888 -250.51107 
L 300.119313 -248.637543 
L 300.191891 -246.764016 
L 300.277472 -244.890489 
L 300.370804 -243.016961 
L 300.466543 -241.143434 
L 300.562134 -239.269907 
L 300.65853 -237.39638 
L 300.758559 -235.522852 
L 300.865047 -233.649325 
L 300.981323 -231.775798 
L 301.114827 -229.90227 
L 301.281732 -228.028743 
L 301.509019 -226.155216 
L 301.831227 -224.281689 
L 302.281701 -222.408161 
L 302.881283 -220.534634 
L 303.630062 -218.661107 
L 304.508129 -216.78758 
L 305.488018 -214.914052 
L 306.554743 -213.040525 
L 307.722854 -211.166998 
L 309.038748 -209.29347 
L 310.563085 -207.419943 
L 312.339357 -205.546416 
L 314.36326 -203.672889 
L 316.567605 -201.799361 
L 318.829553 -199.925834 
L 320.9968 -198.052307 
L 322.922932 -196.17878 
L 324.500413 -194.305252 
L 325.680576 -192.431725 
L 326.472918 -190.558198 
L 326.923148 -188.68467 
L 327.08059 -186.811143 
L 326.974188 -184.937616 
L 326.613445 -183.064089 
L 326.014697 -181.190561 
L 325.234524 -179.317034 
L 324.385719 -177.443507 
L 323.622747 -175.56998 
L 323.103838 -173.696452 
L 322.950122 -171.822925 
L 323.220308 -169.949398 
L 323.906688 -168.07587 
L 324.945912 -166.202343 
L 326.233451 -164.328816 
L 327.63448 -162.455289 
L 328.991007 -160.581761 
L 330.130052 -158.708234 
L 330.877815 -156.834707 
L 331.080948 -154.96118 
L 330.631417 -153.087652 
L 329.488043 -151.214125 
L 327.686819 -149.340598 
L 325.334351 -147.46707 
L 322.584909 -145.593543 
L 319.609303 -143.720016 
L 316.567874 -141.846489 
L 313.596467 -139.972961 
L 310.805361 -138.099434 
L 308.283619 -136.225907 
L 306.100431 -134.35238 
L 304.300326 -132.478852 
L 302.895717 -130.605325 
L 301.863311 -128.731798 
L 301.148959 -126.85827 
L 300.680554 -124.984743 
L 300.384093 -123.111216 
L 300.196772 -121.237689 
L 300.073189 -119.364161 
L 299.984671 -117.490634 
L 299.91472 -115.617107 
L 299.854207 -113.74358 
L 299.798371 -111.870052 
L 299.745636 -109.996525 
L 299.697051 -108.122998 
L 299.65541 -106.24947 
L 299.623973 -104.375943 
L 299.60531 -102.502416 
L 299.600617 -100.628889 
L 299.609415 -98.755361 
L 299.629295 -96.881834 
L 299.655716 -95.008307 
L 299.682284 -93.13478 
L 299.701979 -91.261252 
L 299.709198 -89.387725 
z
" id="md328706249" style="stroke:#353535;stroke-width:2.0;"/>
    </defs>
    <g clip-path="url(#p083a3d7184)">
     <use style="fill:#33977c;stroke:#353535;stroke-width:2.0;" x="0.0" xlink:href="#md328706249" y="404.76525"/>
    </g>
   </g>
   <g id="PolyCollection_4">
    <defs>
     <path d="M 395.871264 -102.779725 
L 394.543676 -102.779725 
L 394.405602 -104.536016 
L 394.286197 -106.292307 
L 394.194277 -108.048598 
L 394.132724 -109.804889 
L 394.09904 -111.56118 
L 394.087508 -113.31747 
L 394.09104 -115.073761 
L 394.101079 -116.830052 
L 394.105582 -118.586343 
L 394.086788 -120.342634 
L 394.020686 -122.098925 
L 393.878577 -123.855216 
L 393.629262 -125.611507 
L 393.240072 -127.367798 
L 392.676429 -129.124089 
L 391.901563 -130.88038 
L 390.878493 -132.63667 
L 389.574929 -134.392961 
L 387.969718 -136.149252 
L 386.058742 -137.905543 
L 383.859292 -139.661834 
L 381.413535 -141.418125 
L 378.79188 -143.174416 
L 376.095192 -144.930707 
L 373.452271 -146.686998 
L 371.008526 -148.443289 
L 368.904671 -150.19958 
L 367.249871 -151.95587 
L 366.098879 -153.712161 
L 365.443655 -155.468452 
L 365.224719 -157.224743 
L 365.357698 -158.981034 
L 365.761768 -160.737325 
L 366.375212 -162.493616 
L 367.151473 -164.249907 
L 368.041907 -166.006198 
L 368.979836 -167.762489 
L 369.878051 -169.51878 
L 370.641134 -171.27507 
L 371.183939 -173.031361 
L 371.445885 -174.787652 
L 371.397183 -176.543943 
L 371.040367 -178.300234 
L 370.412112 -180.056525 
L 369.585923 -181.812816 
L 368.67131 -183.569107 
L 367.80451 -185.325398 
L 367.130079 -187.081689 
L 366.77805 -188.83798 
L 366.84365 -190.59427 
L 367.374708 -192.350561 
L 368.368184 -194.106852 
L 369.774556 -195.863143 
L 371.50841 -197.619434 
L 373.463883 -199.375725 
L 375.532815 -201.132016 
L 377.621602 -202.888307 
L 379.661783 -204.644598 
L 381.611246 -206.400889 
L 383.447005 -208.15718 
L 385.154269 -209.91347 
L 386.7176 -211.669761 
L 388.117935 -213.426052 
L 389.335715 -215.182343 
L 390.357517 -216.938634 
L 391.182442 -218.694925 
L 391.825188 -220.451216 
L 392.314362 -222.207507 
L 392.686608 -223.963798 
L 392.97884 -225.720089 
L 393.221621 -227.47638 
L 393.436002 -229.23267 
L 393.634244 -230.988961 
L 393.822848 -232.745252 
L 394.005525 -234.501543 
L 394.184462 -236.257834 
L 394.359889 -238.014125 
L 394.529174 -239.770416 
L 394.686788 -241.526707 
L 394.825616 -243.282998 
L 394.939059 -245.039289 
L 395.02293 -246.79558 
L 395.076421 -248.55187 
L 395.102091 -250.308161 
L 395.105266 -252.064452 
L 395.093226 -253.820743 
L 395.074261 -255.577034 
L 395.056419 -257.333325 
L 395.045954 -259.089616 
L 395.045848 -260.845907 
L 395.055084 -262.602198 
L 395.069189 -264.358489 
L 395.082018 -266.11478 
L 395.088165 -267.87107 
L 395.085078 -269.627361 
L 395.07405 -271.383652 
L 395.059738 -273.139943 
L 395.048389 -274.896234 
L 395.045499 -276.652525 
L 395.369441 -276.652525 
L 395.369441 -276.652525 
L 395.366551 -274.896234 
L 395.355202 -273.139943 
L 395.34089 -271.383652 
L 395.329862 -269.627361 
L 395.326775 -267.87107 
L 395.332922 -266.11478 
L 395.345751 -264.358489 
L 395.359856 -262.602198 
L 395.369092 -260.845907 
L 395.368986 -259.089616 
L 395.358521 -257.333325 
L 395.340679 -255.577034 
L 395.321714 -253.820743 
L 395.309674 -252.064452 
L 395.312849 -250.308161 
L 395.338519 -248.55187 
L 395.39201 -246.79558 
L 395.475881 -245.039289 
L 395.589324 -243.282998 
L 395.728152 -241.526707 
L 395.885766 -239.770416 
L 396.055051 -238.014125 
L 396.230478 -236.257834 
L 396.409415 -234.501543 
L 396.592092 -232.745252 
L 396.780696 -230.988961 
L 396.978938 -229.23267 
L 397.193319 -227.47638 
L 397.4361 -225.720089 
L 397.728332 -223.963798 
L 398.100578 -222.207507 
L 398.589752 -220.451216 
L 399.232498 -218.694925 
L 400.057423 -216.938634 
L 401.079225 -215.182343 
L 402.297005 -213.426052 
L 403.69734 -211.669761 
L 405.260671 -209.91347 
L 406.967935 -208.15718 
L 408.803694 -206.400889 
L 410.753157 -204.644598 
L 412.793338 -202.888307 
L 414.882125 -201.132016 
L 416.951057 -199.375725 
L 418.90653 -197.619434 
L 420.640384 -195.863143 
L 422.046756 -194.106852 
L 423.040232 -192.350561 
L 423.57129 -190.59427 
L 423.63689 -188.83798 
L 423.284861 -187.081689 
L 422.61043 -185.325398 
L 421.74363 -183.569107 
L 420.829017 -181.812816 
L 420.002828 -180.056525 
L 419.374573 -178.300234 
L 419.017757 -176.543943 
L 418.969055 -174.787652 
L 419.231001 -173.031361 
L 419.773806 -171.27507 
L 420.536889 -169.51878 
L 421.435104 -167.762489 
L 422.373033 -166.006198 
L 423.263467 -164.249907 
L 424.039728 -162.493616 
L 424.653172 -160.737325 
L 425.057242 -158.981034 
L 425.190221 -157.224743 
L 424.971285 -155.468452 
L 424.316061 -153.712161 
L 423.165069 -151.95587 
L 421.510269 -150.19958 
L 419.406414 -148.443289 
L 416.962669 -146.686998 
L 414.319748 -144.930707 
L 411.62306 -143.174416 
L 409.001405 -141.418125 
L 406.555648 -139.661834 
L 404.356198 -137.905543 
L 402.445222 -136.149252 
L 400.840011 -134.392961 
L 399.536447 -132.63667 
L 398.513377 -130.88038 
L 397.738511 -129.124089 
L 397.174868 -127.367798 
L 396.785678 -125.611507 
L 396.536363 -123.855216 
L 396.394254 -122.098925 
L 396.328152 -120.342634 
L 396.309358 -118.586343 
L 396.313861 -116.830052 
L 396.3239 -115.073761 
L 396.327432 -113.31747 
L 396.3159 -111.56118 
L 396.282216 -109.804889 
L 396.220663 -108.048598 
L 396.128743 -106.292307 
L 396.009338 -104.536016 
L 395.871264 -102.779725 
z
" id="m0c3ebb7aad" style="stroke:#353535;stroke-width:2.0;"/>
    </defs>
    <g clip-path="url(#p083a3d7184)">
     <use style="fill:#53b075;stroke:#353535;stroke-width:2.0;" x="0.0" xlink:href="#m0c3ebb7aad" y="404.76525"/>
    </g>
   </g>
   <g id="PolyCollection_5">
    <defs>
     <path d="M 491.347431 -107.690125 
L 490.381795 -107.690125 
L 490.204927 -110.16787 
L 490.004102 -112.645616 
L 489.791779 -115.123361 
L 489.582984 -117.601107 
L 489.392005 -120.078852 
L 489.229787 -122.556598 
L 489.101909 -125.034343 
L 489.00532 -127.512089 
L 488.92276 -129.989834 
L 488.816893 -132.46758 
L 488.628677 -134.945325 
L 488.283107 -137.42307 
L 487.700619 -139.900816 
L 486.80867 -142.378561 
L 485.54934 -144.856307 
L 483.884619 -147.334052 
L 481.805612 -149.811798 
L 479.349648 -152.289543 
L 476.620369 -154.767289 
L 473.797058 -157.245034 
L 471.119209 -159.72278 
L 468.843135 -162.200525 
L 467.183267 -164.67827 
L 466.261022 -167.156016 
L 466.081339 -169.633761 
L 466.543218 -172.111507 
L 467.475155 -174.589252 
L 468.678999 -177.066998 
L 469.968251 -179.544743 
L 471.193694 -182.022489 
L 472.253761 -184.500234 
L 473.088771 -186.97798 
L 473.661296 -189.455725 
L 473.93209 -191.93347 
L 473.847459 -194.411216 
L 473.351807 -196.888961 
L 472.425381 -199.366707 
L 471.129243 -201.844452 
L 469.629808 -204.322198 
L 468.182261 -206.799943 
L 467.072925 -209.277689 
L 466.542807 -211.755434 
L 466.724604 -214.23318 
L 467.617912 -216.710925 
L 469.107803 -219.18867 
L 471.012568 -221.666416 
L 473.137402 -224.144161 
L 475.314546 -226.621907 
L 477.421623 -229.099652 
L 479.381024 -231.577398 
L 481.149212 -234.055143 
L 482.704994 -236.532889 
L 484.042294 -239.010634 
L 485.168211 -241.48838 
L 486.103329 -243.966125 
L 486.87998 -246.44387 
L 487.53603 -248.921616 
L 488.105489 -251.399361 
L 488.610045 -253.877107 
L 489.055586 -256.354852 
L 489.435146 -258.832598 
L 489.736589 -261.310343 
L 489.951553 -263.788089 
L 490.082142 -266.265834 
L 490.143048 -268.74358 
L 490.158594 -271.221325 
L 490.156102 -273.69907 
L 490.158554 -276.176816 
L 490.179725 -278.654561 
L 490.223445 -281.132307 
L 490.28626 -283.610052 
L 490.361109 -286.087798 
L 490.439958 -288.565543 
L 490.515042 -291.043289 
L 490.579752 -293.521034 
L 490.629965 -295.99878 
L 490.665412 -298.476525 
L 490.689833 -300.95427 
L 490.709268 -303.432016 
L 490.729223 -305.909761 
L 490.752349 -308.387507 
L 490.777916 -310.865252 
L 490.803056 -313.342998 
L 490.824716 -315.820743 
L 490.841096 -318.298489 
L 490.852014 -320.776234 
L 490.858424 -323.25398 
L 490.861638 -325.731725 
L 490.862698 -328.20947 
L 490.862042 -330.687216 
L 490.859395 -333.164961 
L 490.853843 -335.642707 
L 490.844124 -338.120452 
L 490.829231 -340.598198 
L 490.809277 -343.075943 
L 490.786252 -345.553689 
L 490.764147 -348.031434 
L 490.747993 -350.50918 
L 490.74205 -352.986925 
L 490.987175 -352.986925 
L 490.987175 -352.986925 
L 490.981233 -350.50918 
L 490.965079 -348.031434 
L 490.942974 -345.553689 
L 490.919949 -343.075943 
L 490.899994 -340.598198 
L 490.885102 -338.120452 
L 490.875383 -335.642707 
L 490.869831 -333.164961 
L 490.867184 -330.687216 
L 490.866528 -328.20947 
L 490.867588 -325.731725 
L 490.870802 -323.25398 
L 490.877212 -320.776234 
L 490.88813 -318.298489 
L 490.904509 -315.820743 
L 490.92617 -313.342998 
L 490.95131 -310.865252 
L 490.976877 -308.387507 
L 491.000003 -305.909761 
L 491.019958 -303.432016 
L 491.039393 -300.95427 
L 491.063813 -298.476525 
L 491.09926 -295.99878 
L 491.149474 -293.521034 
L 491.214183 -291.043289 
L 491.289268 -288.565543 
L 491.368116 -286.087798 
L 491.442966 -283.610052 
L 491.505781 -281.132307 
L 491.5495 -278.654561 
L 491.570671 -276.176816 
L 491.573124 -273.69907 
L 491.570631 -271.221325 
L 491.586177 -268.74358 
L 491.647084 -266.265834 
L 491.777672 -263.788089 
L 491.992637 -261.310343 
L 492.29408 -258.832598 
L 492.67364 -256.354852 
L 493.11918 -253.877107 
L 493.623737 -251.399361 
L 494.193196 -248.921616 
L 494.849246 -246.44387 
L 495.625897 -243.966125 
L 496.561015 -241.48838 
L 497.686931 -239.010634 
L 499.024231 -236.532889 
L 500.580013 -234.055143 
L 502.348202 -231.577398 
L 504.307603 -229.099652 
L 506.41468 -226.621907 
L 508.591824 -224.144161 
L 510.716658 -221.666416 
L 512.621423 -219.18867 
L 514.111314 -216.710925 
L 515.004621 -214.23318 
L 515.186419 -211.755434 
L 514.656301 -209.277689 
L 513.546965 -206.799943 
L 512.099418 -204.322198 
L 510.599983 -201.844452 
L 509.303845 -199.366707 
L 508.377419 -196.888961 
L 507.881767 -194.411216 
L 507.797136 -191.93347 
L 508.06793 -189.455725 
L 508.640455 -186.97798 
L 509.475464 -184.500234 
L 510.535532 -182.022489 
L 511.760974 -179.544743 
L 513.050227 -177.066998 
L 514.25407 -174.589252 
L 515.186008 -172.111507 
L 515.647887 -169.633761 
L 515.468204 -167.156016 
L 514.545958 -164.67827 
L 512.886091 -162.200525 
L 510.610016 -159.72278 
L 507.932168 -157.245034 
L 505.108857 -154.767289 
L 502.379578 -152.289543 
L 499.923614 -149.811798 
L 497.844606 -147.334052 
L 496.179886 -144.856307 
L 494.920556 -142.378561 
L 494.028606 -139.900816 
L 493.446119 -137.42307 
L 493.100549 -134.945325 
L 492.912333 -132.46758 
L 492.806466 -129.989834 
L 492.723906 -127.512089 
L 492.627317 -125.034343 
L 492.499438 -122.556598 
L 492.337221 -120.078852 
L 492.146241 -117.601107 
L 491.937446 -115.123361 
L 491.725124 -112.645616 
L 491.524299 -110.16787 
L 491.347431 -107.690125 
z
" id="m73d2e88443" style="stroke:#353535;stroke-width:2.0;"/>
    </defs>
    <g clip-path="url(#p083a3d7184)">
     <use style="fill:#80c161;stroke:#353535;stroke-width:2.0;" x="0.0" xlink:href="#m73d2e88443" y="404.76525"/>
    </g>
   </g>
   <g id="PolyCollection_6">
    <defs>
     <path d="M 588.150524 -110.703325 
L 584.892988 -110.703325 
L 584.555278 -112.261216 
L 584.2036 -113.819107 
L 583.830364 -115.376998 
L 583.417004 -116.934889 
L 582.935668 -118.49278 
L 582.353273 -120.05067 
L 581.636502 -121.608561 
L 580.756056 -123.166452 
L 579.688945 -124.724343 
L 578.418715 -126.282234 
L 576.934677 -127.840125 
L 575.231861 -129.398016 
L 573.313209 -130.955907 
L 571.194351 -132.513798 
L 568.909737 -134.071689 
L 566.517753 -135.62958 
L 564.102288 -137.18747 
L 561.769202 -138.745361 
L 559.637679 -140.303252 
L 557.827734 -141.861143 
L 556.445836 -143.419034 
L 555.570767 -144.976925 
L 555.241794 -146.534816 
L 555.451264 -148.092707 
L 556.14339 -149.650598 
L 557.22011 -151.208489 
L 558.5534 -152.76638 
L 560.00183 -154.32427 
L 561.428171 -155.882161 
L 562.714809 -157.440052 
L 563.774528 -158.997943 
L 564.555357 -160.555834 
L 565.039471 -162.113725 
L 565.237148 -163.671616 
L 565.177721 -165.229507 
L 564.899932 -166.787398 
L 564.444102 -168.345289 
L 563.84777 -169.90318 
L 563.145264 -171.46107 
L 562.370339 -173.018961 
L 561.560141 -174.576852 
L 560.758622 -176.134743 
L 560.01804 -177.692634 
L 559.398009 -179.250525 
L 558.962274 -180.808416 
L 558.77377 -182.366307 
L 558.888566 -183.924198 
L 559.349301 -185.482089 
L 560.178794 -187.03998 
L 561.374801 -188.59787 
L 562.907074 -190.155761 
L 564.717898 -191.713652 
L 566.726784 -193.271543 
L 568.839137 -194.829434 
L 570.957575 -196.387325 
L 572.993684 -197.945216 
L 574.877696 -199.503107 
L 576.564105 -201.060998 
L 578.032467 -202.618889 
L 579.284038 -204.17678 
L 580.335902 -205.73467 
L 581.214491 -207.292561 
L 581.949933 -208.850452 
L 582.571816 -210.408343 
L 583.106331 -211.966234 
L 583.57442 -213.524125 
L 583.990734 -215.082016 
L 584.363459 -216.639907 
L 584.695195 -218.197798 
L 584.984901 -219.755689 
L 585.23048 -221.31358 
L 585.431266 -222.87147 
L 585.589638 -224.429361 
L 585.711304 -225.987252 
L 585.80433 -227.545143 
L 585.877429 -229.103034 
L 585.938213 -230.660925 
L 585.991969 -232.218816 
L 586.041242 -233.776707 
L 586.086143 -235.334598 
L 586.125121 -236.892489 
L 586.155915 -238.45038 
L 586.176516 -240.00827 
L 586.186056 -241.566161 
L 586.185518 -243.124052 
L 586.178058 -244.681943 
L 586.168681 -246.239834 
L 586.163168 -247.797725 
L 586.166456 -249.355616 
L 586.181051 -250.913507 
L 586.206139 -252.471398 
L 586.237833 -254.029289 
L 586.270541 -255.58718 
L 586.298901 -257.14507 
L 586.319559 -258.702961 
L 586.33209 -260.260852 
L 586.33882 -261.818743 
L 586.343704 -263.376634 
L 586.350781 -264.934525 
L 586.69273 -264.934525 
L 586.69273 -264.934525 
L 586.699807 -263.376634 
L 586.704691 -261.818743 
L 586.711422 -260.260852 
L 586.723952 -258.702961 
L 586.74461 -257.14507 
L 586.772971 -255.58718 
L 586.805678 -254.029289 
L 586.837373 -252.471398 
L 586.86246 -250.913507 
L 586.877055 -249.355616 
L 586.880343 -247.797725 
L 586.87483 -246.239834 
L 586.865454 -244.681943 
L 586.857993 -243.124052 
L 586.857455 -241.566161 
L 586.866996 -240.00827 
L 586.887597 -238.45038 
L 586.91839 -236.892489 
L 586.957368 -235.334598 
L 587.002269 -233.776707 
L 587.051543 -232.218816 
L 587.105299 -230.660925 
L 587.166082 -229.103034 
L 587.239182 -227.545143 
L 587.332207 -225.987252 
L 587.453873 -224.429361 
L 587.612246 -222.87147 
L 587.813032 -221.31358 
L 588.05861 -219.755689 
L 588.348316 -218.197798 
L 588.680052 -216.639907 
L 589.052777 -215.082016 
L 589.469092 -213.524125 
L 589.937181 -211.966234 
L 590.471695 -210.408343 
L 591.093579 -208.850452 
L 591.82902 -207.292561 
L 592.70761 -205.73467 
L 593.759473 -204.17678 
L 595.011044 -202.618889 
L 596.479406 -201.060998 
L 598.165816 -199.503107 
L 600.049828 -197.945216 
L 602.085936 -196.387325 
L 604.204374 -194.829434 
L 606.316727 -193.271543 
L 608.325613 -191.713652 
L 610.136437 -190.155761 
L 611.668711 -188.59787 
L 612.864718 -187.03998 
L 613.694211 -185.482089 
L 614.154945 -183.924198 
L 614.269742 -182.366307 
L 614.081238 -180.808416 
L 613.645503 -179.250525 
L 613.025471 -177.692634 
L 612.284889 -176.134743 
L 611.48337 -174.576852 
L 610.673172 -173.018961 
L 609.898247 -171.46107 
L 609.195742 -169.90318 
L 608.59941 -168.345289 
L 608.14358 -166.787398 
L 607.865791 -165.229507 
L 607.806363 -163.671616 
L 608.00404 -162.113725 
L 608.488154 -160.555834 
L 609.268984 -158.997943 
L 610.328702 -157.440052 
L 611.615341 -155.882161 
L 613.041681 -154.32427 
L 614.490112 -152.76638 
L 615.823402 -151.208489 
L 616.900122 -149.650598 
L 617.592247 -148.092707 
L 617.801718 -146.534816 
L 617.472745 -144.976925 
L 616.597675 -143.419034 
L 615.215778 -141.861143 
L 613.405832 -140.303252 
L 611.27431 -138.745361 
L 608.941224 -137.18747 
L 606.525758 -135.62958 
L 604.133774 -134.071689 
L 601.84916 -132.513798 
L 599.730302 -130.955907 
L 597.811651 -129.398016 
L 596.108835 -127.840125 
L 594.624797 -126.282234 
L 593.354567 -124.724343 
L 592.287455 -123.166452 
L 591.407009 -121.608561 
L 590.690239 -120.05067 
L 590.107844 -118.49278 
L 589.626508 -116.934889 
L 589.213147 -115.376998 
L 588.839911 -113.819107 
L 588.488234 -112.261216 
L 588.150524 -110.703325 
z
" id="me1fe371a75" style="stroke:#353535;stroke-width:2.0;"/>
    </defs>
    <g clip-path="url(#p083a3d7184)">
     <use style="fill:#aec83d;stroke:#353535;stroke-width:2.0;" x="0.0" xlink:href="#me1fe371a75" y="404.76525"/>
    </g>
   </g>
   <g id="PolyCollection_7">
    <defs>
     <path d="M 683.445737 -97.980925 
L 680.91206 -97.980925 
L 680.450581 -99.356198 
L 679.901817 -100.73147 
L 679.282541 -102.106743 
L 678.617841 -103.482016 
L 677.931098 -104.857289 
L 677.229527 -106.232561 
L 676.490447 -107.607834 
L 675.65465 -108.983107 
L 674.63145 -110.35838 
L 673.315735 -111.733652 
L 671.612695 -113.108925 
L 669.462979 -114.484198 
L 666.861086 -115.85947 
L 663.862541 -117.234743 
L 660.579453 -118.610016 
L 657.167522 -119.985289 
L 653.809062 -121.360561 
L 650.695624 -122.735834 
L 648.011424 -124.111107 
L 645.916838 -125.48638 
L 644.531196 -126.861652 
L 643.916041 -128.236925 
L 644.062408 -129.612198 
L 644.886562 -130.98747 
L 646.237396 -132.362743 
L 647.915753 -133.738016 
L 649.702805 -135.113289 
L 651.392222 -136.488561 
L 652.819511 -137.863834 
L 653.881941 -139.239107 
L 654.54429 -140.61438 
L 654.829534 -141.989652 
L 654.798385 -143.364925 
L 654.525341 -144.740198 
L 654.079187 -146.11547 
L 653.512662 -147.490743 
L 652.861204 -148.866016 
L 652.147631 -150.241289 
L 651.389814 -151.616561 
L 650.610498 -152.991834 
L 649.849237 -154.367107 
L 649.174096 -155.74238 
L 648.687137 -157.117652 
L 648.516816 -158.492925 
L 648.795007 -159.868198 
L 649.624541 -161.24347 
L 651.04948 -162.618743 
L 653.039994 -163.994016 
L 655.496713 -165.369289 
L 658.270653 -166.744561 
L 661.18987 -168.119834 
L 664.084854 -169.495107 
L 666.808864 -170.87038 
L 669.252601 -172.245652 
L 671.353014 -173.620925 
L 673.094898 -174.996198 
L 674.504039 -176.37147 
L 675.632997 -177.746743 
L 676.54381 -179.122016 
L 677.293335 -180.497289 
L 677.925308 -181.872561 
L 678.469551 -183.247834 
L 678.945444 -184.623107 
L 679.365869 -185.99838 
L 679.739397 -187.373652 
L 680.070886 -188.748925 
L 680.362071 -190.124198 
L 680.613304 -191.49947 
L 680.826124 -192.874743 
L 681.00524 -194.250016 
L 681.158643 -195.625289 
L 681.295681 -197.000561 
L 681.424154 -198.375834 
L 681.547911 -199.751107 
L 681.665978 -201.12638 
L 681.773365 -202.501652 
L 681.862985 -203.876925 
L 681.927917 -205.252198 
L 681.963423 -206.62747 
L 681.968476 -208.002743 
L 681.946653 -209.378016 
L 681.906213 -210.753289 
L 681.859076 -212.128561 
L 681.818575 -213.503834 
L 681.796359 -214.879107 
L 681.799375 -216.25438 
L 681.828091 -217.629652 
L 681.876724 -219.004925 
L 681.935347 -220.380198 
L 681.992937 -221.75547 
L 682.040159 -223.130743 
L 682.071045 -224.506016 
L 682.083448 -225.881289 
L 682.078683 -227.256561 
L 682.060835 -228.631834 
L 682.035966 -230.007107 
L 682.01112 -231.38238 
L 681.993024 -232.757652 
L 681.986633 -234.132925 
L 682.371164 -234.132925 
L 682.371164 -234.132925 
L 682.364773 -232.757652 
L 682.346678 -231.38238 
L 682.321831 -230.007107 
L 682.296962 -228.631834 
L 682.279114 -227.256561 
L 682.274349 -225.881289 
L 682.286752 -224.506016 
L 682.317638 -223.130743 
L 682.36486 -221.75547 
L 682.42245 -220.380198 
L 682.481073 -219.004925 
L 682.529706 -217.629652 
L 682.558422 -216.25438 
L 682.561438 -214.879107 
L 682.539222 -213.503834 
L 682.498721 -212.128561 
L 682.451584 -210.753289 
L 682.411145 -209.378016 
L 682.389322 -208.002743 
L 682.394375 -206.62747 
L 682.429881 -205.252198 
L 682.494812 -203.876925 
L 682.584432 -202.501652 
L 682.691819 -201.12638 
L 682.809886 -199.751107 
L 682.933643 -198.375834 
L 683.062116 -197.000561 
L 683.199154 -195.625289 
L 683.352557 -194.250016 
L 683.531674 -192.874743 
L 683.744493 -191.49947 
L 683.995726 -190.124198 
L 684.286911 -188.748925 
L 684.6184 -187.373652 
L 684.991928 -185.99838 
L 685.412354 -184.623107 
L 685.888246 -183.247834 
L 686.432489 -181.872561 
L 687.064462 -180.497289 
L 687.813987 -179.122016 
L 688.7248 -177.746743 
L 689.853758 -176.37147 
L 691.262899 -174.996198 
L 693.004784 -173.620925 
L 695.105196 -172.245652 
L 697.548933 -170.87038 
L 700.272943 -169.495107 
L 703.167928 -168.119834 
L 706.087144 -166.744561 
L 708.861085 -165.369289 
L 711.317803 -163.994016 
L 713.308317 -162.618743 
L 714.733257 -161.24347 
L 715.56279 -159.868198 
L 715.840981 -158.492925 
L 715.670661 -157.117652 
L 715.183701 -155.74238 
L 714.508561 -154.367107 
L 713.747299 -152.991834 
L 712.967983 -151.616561 
L 712.210166 -150.241289 
L 711.496593 -148.866016 
L 710.845135 -147.490743 
L 710.27861 -146.11547 
L 709.832456 -144.740198 
L 709.559412 -143.364925 
L 709.528263 -141.989652 
L 709.813507 -140.61438 
L 710.475856 -139.239107 
L 711.538286 -137.863834 
L 712.965576 -136.488561 
L 714.654992 -135.113289 
L 716.442044 -133.738016 
L 718.120401 -132.362743 
L 719.471235 -130.98747 
L 720.295389 -129.612198 
L 720.441756 -128.236925 
L 719.826602 -126.861652 
L 718.440959 -125.48638 
L 716.346373 -124.111107 
L 713.662173 -122.735834 
L 710.548735 -121.360561 
L 707.190275 -119.985289 
L 703.778344 -118.610016 
L 700.495256 -117.234743 
L 697.496711 -115.85947 
L 694.894818 -114.484198 
L 692.745102 -113.108925 
L 691.042062 -111.733652 
L 689.726347 -110.35838 
L 688.703147 -108.983107 
L 687.867351 -107.607834 
L 687.12827 -106.232561 
L 686.426699 -104.857289 
L 685.739956 -103.482016 
L 685.075257 -102.106743 
L 684.45598 -100.73147 
L 683.907216 -99.356198 
L 683.445737 -97.980925 
z
" id="m33a39e993f" style="stroke:#353535;stroke-width:2.0;"/>
    </defs>
    <g clip-path="url(#p083a3d7184)">
     <use style="fill:#e2d240;stroke:#353535;stroke-width:2.0;" x="0.0" xlink:href="#m33a39e993f" y="404.76525"/>
    </g>
   </g>
   <g id="line2d_29">
    <path clip-path="url(#p083a3d7184)" d="M 79.444355 256.564325 
L 137.027727 256.564325 
" style="fill:none;stroke:#353535;stroke-dasharray:3.000000,3.000000;stroke-dashoffset:0.0;stroke-width:2.0;"/>
   </g>
   <g id="line2d_30">
    <path clip-path="url(#p083a3d7184)" d="M 86.784177 238.261925 
L 129.687905 238.261925 
" style="fill:none;stroke:#353535;stroke-dasharray:6.000000,6.000000;stroke-dashoffset:0.0;stroke-width:2.0;"/>
   </g>
   <g id="line2d_31">
    <path clip-path="url(#p083a3d7184)" d="M 82.976711 219.345725 
L 133.495372 219.345725 
" style="fill:none;stroke:#353535;stroke-dasharray:3.000000,3.000000;stroke-dashoffset:0.0;stroke-width:2.0;"/>
   </g>
   <g id="line2d_32">
    <path clip-path="url(#p083a3d7184)" d="M 175.141522 251.486525 
L 232.644847 251.486525 
" style="fill:none;stroke:#353535;stroke-dasharray:3.000000,3.000000;stroke-dashoffset:0.0;stroke-width:2.0;"/>
   </g>
   <g id="line2d_33">
    <path clip-path="url(#p083a3d7184)" d="M 179.987613 231.565925 
L 227.798756 231.565925 
" style="fill:none;stroke:#353535;stroke-dasharray:6.000000,6.000000;stroke-dashoffset:0.0;stroke-width:2.0;"/>
   </g>
   <g id="line2d_34">
    <path clip-path="url(#p083a3d7184)" d="M 177.96992 214.435325 
L 229.816448 214.435325 
" style="fill:none;stroke:#353535;stroke-dasharray:3.000000,3.000000;stroke-dashoffset:0.0;stroke-width:2.0;"/>
   </g>
   <g id="line2d_35">
    <path clip-path="url(#p083a3d7184)" d="M 268.335013 249.700925 
L 330.765641 249.700925 
" style="fill:none;stroke:#353535;stroke-dasharray:3.000000,3.000000;stroke-dashoffset:0.0;stroke-width:2.0;"/>
   </g>
   <g id="line2d_36">
    <path clip-path="url(#p083a3d7184)" d="M 276.38453 232.012325 
L 322.716124 232.012325 
" style="fill:none;stroke:#353535;stroke-dasharray:6.000000,6.000000;stroke-dashoffset:0.0;stroke-width:2.0;"/>
   </g>
   <g id="line2d_37">
    <path clip-path="url(#p083a3d7184)" d="M 272.896962 214.267925 
L 326.203692 214.267925 
" style="fill:none;stroke:#353535;stroke-dasharray:3.000000,3.000000;stroke-dashoffset:0.0;stroke-width:2.0;"/>
   </g>
   <g id="line2d_38">
    <path clip-path="url(#p083a3d7184)" d="M 365.741294 248.863925 
L 424.673646 248.863925 
" style="fill:none;stroke:#353535;stroke-dasharray:3.000000,3.000000;stroke-dashoffset:0.0;stroke-width:2.0;"/>
   </g>
   <g id="line2d_39">
    <path clip-path="url(#p083a3d7184)" d="M 371.424174 231.454325 
L 418.990766 231.454325 
" style="fill:none;stroke:#353535;stroke-dasharray:6.000000,6.000000;stroke-dashoffset:0.0;stroke-width:2.0;"/>
   </g>
   <g id="line2d_40">
    <path clip-path="url(#p083a3d7184)" d="M 367.127288 213.654125 
L 423.287652 213.654125 
" style="fill:none;stroke:#353535;stroke-dasharray:3.000000,3.000000;stroke-dashoffset:0.0;stroke-width:2.0;"/>
   </g>
   <g id="line2d_41">
    <path clip-path="url(#p083a3d7184)" d="M 466.329172 236.002025 
L 515.400054 236.002025 
" style="fill:none;stroke:#353535;stroke-dasharray:3.000000,3.000000;stroke-dashoffset:0.0;stroke-width:2.0;"/>
   </g>
   <g id="line2d_42">
    <path clip-path="url(#p083a3d7184)" d="M 474.101415 212.928725 
L 507.627811 212.928725 
" style="fill:none;stroke:#353535;stroke-dasharray:6.000000,6.000000;stroke-dashoffset:0.0;stroke-width:2.0;"/>
   </g>
   <g id="line2d_43">
    <path clip-path="url(#p083a3d7184)" d="M 466.966004 190.525025 
L 514.763221 190.525025 
" style="fill:none;stroke:#353535;stroke-dasharray:3.000000,3.000000;stroke-dashoffset:0.0;stroke-width:2.0;"/>
   </g>
   <g id="line2d_44">
    <path clip-path="url(#p083a3d7184)" d="M 555.554593 258.656825 
L 617.488918 258.656825 
" style="fill:none;stroke:#353535;stroke-dasharray:3.000000,3.000000;stroke-dashoffset:0.0;stroke-width:2.0;"/>
   </g>
   <g id="line2d_45">
    <path clip-path="url(#p083a3d7184)" d="M 565.449994 240.661325 
L 607.593517 240.661325 
" style="fill:none;stroke:#353535;stroke-dasharray:6.000000,6.000000;stroke-dashoffset:0.0;stroke-width:2.0;"/>
   </g>
   <g id="line2d_46">
    <path clip-path="url(#p083a3d7184)" d="M 559.164898 221.549825 
L 613.878613 221.549825 
" style="fill:none;stroke:#353535;stroke-dasharray:3.000000,3.000000;stroke-dashoffset:0.0;stroke-width:2.0;"/>
   </g>
   <g id="line2d_47">
    <path clip-path="url(#p083a3d7184)" d="M 644.29867 276.540725 
L 720.059127 276.540725 
" style="fill:none;stroke:#353535;stroke-dasharray:3.000000,3.000000;stroke-dashoffset:0.0;stroke-width:2.0;"/>
   </g>
   <g id="line2d_48">
    <path clip-path="url(#p083a3d7184)" d="M 655.07219 261.642125 
L 709.285607 261.642125 
" style="fill:none;stroke:#353535;stroke-dasharray:6.000000,6.000000;stroke-dashoffset:0.0;stroke-width:2.0;"/>
   </g>
   <g id="line2d_49">
    <path clip-path="url(#p083a3d7184)" d="M 648.853437 245.878625 
L 715.50436 245.878625 
" style="fill:none;stroke:#353535;stroke-dasharray:3.000000,3.000000;stroke-dashoffset:0.0;stroke-width:2.0;"/>
   </g>
   <g id="patch_3">
    <path d="M 60.40747 42.627125 
L 730.00747 42.627125 
" style="fill:none;stroke:#262626;stroke-linecap:square;stroke-linejoin:miter;stroke-width:1.25;"/>
   </g>
   <g id="patch_4">
    <path d="M 730.00747 377.427125 
L 730.00747 42.627125 
" style="fill:none;stroke:#262626;stroke-linecap:square;stroke-linejoin:miter;stroke-width:1.25;"/>
   </g>
   <g id="patch_5">
    <path d="M 60.40747 377.427125 
L 730.00747 377.427125 
" style="fill:none;stroke:#262626;stroke-linecap:square;stroke-linejoin:miter;stroke-width:1.25;"/>
   </g>
   <g id="patch_6">
    <path d="M 60.40747 377.427125 
L 60.40747 42.627125 
" style="fill:none;stroke:#262626;stroke-linecap:square;stroke-linejoin:miter;stroke-width:1.25;"/>
   </g>
   <g id="text_16">
    <!-- Accidents by Day of the Week -->
    <defs>
     <path d="M 8.6875 0 
L 8.6875 45.015625 
L 0.921875 45.015625 
L 0.921875 51.859375 
L 8.6875 51.859375 
L 8.6875 57.375 
Q 8.6875 62.59375 9.625 65.140625 
Q 10.890625 68.5625 14.078125 70.671875 
Q 17.28125 72.796875 23.046875 72.796875 
Q 26.765625 72.796875 31.25 71.921875 
L 29.9375 64.265625 
Q 27.203125 64.75 24.75 64.75 
Q 20.75 64.75 19.09375 63.03125 
Q 17.4375 61.328125 17.4375 56.640625 
L 17.4375 51.859375 
L 27.546875 51.859375 
L 27.546875 45.015625 
L 17.4375 45.015625 
L 17.4375 0 
z
" id="ArialMT-66"/>
     <path d="M 14.703125 0 
L 6.546875 0 
L 6.546875 71.578125 
L 15.328125 71.578125 
L 15.328125 46.046875 
Q 20.90625 53.03125 29.546875 53.03125 
Q 34.328125 53.03125 38.59375 51.09375 
Q 42.875 49.171875 45.625 45.671875 
Q 48.390625 42.1875 49.953125 37.25 
Q 51.515625 32.328125 51.515625 26.703125 
Q 51.515625 13.375 44.921875 6.09375 
Q 38.328125 -1.171875 29.109375 -1.171875 
Q 19.921875 -1.171875 14.703125 6.5 
z
M 14.59375 26.3125 
Q 14.59375 17 17.140625 12.84375 
Q 21.296875 6.0625 28.375 6.0625 
Q 34.125 6.0625 38.328125 11.0625 
Q 42.53125 16.0625 42.53125 25.984375 
Q 42.53125 36.140625 38.5 40.96875 
Q 34.46875 45.796875 28.765625 45.796875 
Q 23 45.796875 18.796875 40.796875 
Q 14.59375 35.796875 14.59375 26.3125 
" id="ArialMT-62"/>
     <path d="M 6.640625 0 
L 6.640625 71.578125 
L 15.4375 71.578125 
L 15.4375 30.765625 
L 36.234375 51.859375 
L 47.609375 51.859375 
L 27.78125 32.625 
L 49.609375 0 
L 38.765625 0 
L 21.625 26.515625 
L 15.4375 20.5625 
L 15.4375 0 
z
" id="ArialMT-6b"/>
     <path d="M 7.71875 0 
L 7.71875 71.578125 
L 32.375 71.578125 
Q 40.71875 71.578125 45.125 70.5625 
Q 51.265625 69.140625 55.609375 65.4375 
Q 61.28125 60.640625 64.078125 53.1875 
Q 66.890625 45.75 66.890625 36.1875 
Q 66.890625 28.03125 64.984375 21.734375 
Q 63.09375 15.4375 60.109375 11.296875 
Q 57.125 7.171875 53.578125 4.796875 
Q 50.046875 2.4375 45.046875 1.21875 
Q 40.046875 0 33.546875 0 
z
M 17.1875 8.453125 
L 32.46875 8.453125 
Q 39.546875 8.453125 43.578125 9.765625 
Q 47.609375 11.078125 50 13.484375 
Q 53.375 16.84375 55.25 22.53125 
Q 57.125 28.21875 57.125 36.328125 
Q 57.125 47.5625 53.4375 53.59375 
Q 49.75 59.625 44.484375 61.671875 
Q 40.671875 63.140625 32.234375 63.140625 
L 17.1875 63.140625 
z
" id="ArialMT-44"/>
     <path id="ArialMT-20"/>
    </defs>
    <g style="fill:#262626;" transform="translate(208.4671575 27.583125)scale(0.28 -0.28)">
     <use xlink:href="#ArialMT-41"/>
     <use x="66.69921875" xlink:href="#ArialMT-63"/>
     <use x="116.69921875" xlink:href="#ArialMT-63"/>
     <use x="166.69921875" xlink:href="#ArialMT-69"/>
     <use x="188.916015625" xlink:href="#ArialMT-64"/>
     <use x="244.53125" xlink:href="#ArialMT-65"/>
     <use x="300.146484375" xlink:href="#ArialMT-6e"/>
     <use x="355.76171875" xlink:href="#ArialMT-74"/>
     <use x="383.544921875" xlink:href="#ArialMT-73"/>
     <use x="433.544921875" xlink:href="#ArialMT-20"/>
     <use x="461.328125" xlink:href="#ArialMT-62"/>
     <use x="516.943359375" xlink:href="#ArialMT-79"/>
     <use x="566.943359375" xlink:href="#ArialMT-20"/>
     <use x="594.7265625" xlink:href="#ArialMT-44"/>
     <use x="666.943359375" xlink:href="#ArialMT-61"/>
     <use x="722.55859375" xlink:href="#ArialMT-79"/>
     <use x="772.55859375" xlink:href="#ArialMT-20"/>
     <use x="800.341796875" xlink:href="#ArialMT-6f"/>
     <use x="855.95703125" xlink:href="#ArialMT-66"/>
     <use x="883.740234375" xlink:href="#ArialMT-20"/>
     <use x="911.5234375" xlink:href="#ArialMT-74"/>
     <use x="939.306640625" xlink:href="#ArialMT-68"/>
     <use x="994.921875" xlink:href="#ArialMT-65"/>
     <use x="1050.53710938" xlink:href="#ArialMT-20"/>
     <use x="1078.3203125" xlink:href="#ArialMT-57"/>
     <use x="1172.68945312" xlink:href="#ArialMT-65"/>
     <use x="1228.3046875" xlink:href="#ArialMT-65"/>
     <use x="1283.91992188" xlink:href="#ArialMT-6b"/>
    </g>
   </g>
  </g>
 </g>
 <defs>
  <clipPath id="p083a3d7184">
   <rect height="334.8" width="669.6" x="60.40747" y="42.627125"/>
  </clipPath>
 </defs>
</svg>
