<?xml version="1.0" encoding="utf-8" standalone="no"?>
<!DOCTYPE svg PUBLIC "-//W3C//DTD SVG 1.1//EN"
  "http://www.w3.org/Graphics/SVG/1.1/DTD/svg11.dtd">
<!-- Created with matplotlib (https://matplotlib.org/) -->
<svg height="393.36605pt" version="1.1" viewBox="0 0 729.54685 393.36605" width="729.54685pt" xmlns="http://www.w3.org/2000/svg" xmlns:xlink="http://www.w3.org/1999/xlink">
 <defs>
  <style type="text/css">
*{stroke-linecap:butt;stroke-linejoin:round;}
  </style>
 </defs>
 <g id="figure_1">
  <g id="patch_1">
   <path d="M 0 393.36605 
L 729.54685 393.36605 
L 729.54685 0 
L 0 0 
z
" style="fill:#ffffff;"/>
  </g>
  <g id="axes_1">
   <g id="patch_2">
    <path d="M 52.74685 369.527925 
L 722.34685 369.527925 
L 722.34685 43.367925 
L 52.74685 43.367925 
z
" style="fill:#ffffff;"/>
   </g>
   <g id="matplotlib.axis_1">
    <g id="xtick_1">
     <g id="line2d_1"/>
     <g id="text_1">
      <!-- Monday -->
      <defs>
       <path d="M 7.421875 0 
L 7.421875 71.578125 
L 21.6875 71.578125 
L 38.625 20.90625 
Q 40.96875 13.8125 42.046875 10.296875 
Q 43.265625 14.203125 45.84375 21.78125 
L 62.984375 71.578125 
L 75.734375 71.578125 
L 75.734375 0 
L 66.609375 0 
L 66.609375 59.90625 
L 45.796875 0 
L 37.25 0 
L 16.546875 60.9375 
L 16.546875 0 
z
" id="ArialMT-77"/>
       <path d="M 3.328125 25.921875 
Q 3.328125 40.328125 11.328125 47.265625 
Q 18.015625 53.03125 27.640625 53.03125 
Q 38.328125 53.03125 45.109375 46.015625 
Q 51.90625 39.015625 51.90625 26.65625 
Q 51.90625 16.65625 48.90625 10.90625 
Q 45.90625 5.171875 40.15625 2 
Q 34.421875 -1.171875 27.640625 -1.171875 
Q 16.75 -1.171875 10.03125 5.8125 
Q 3.328125 12.796875 3.328125 25.921875 
z
M 12.359375 25.921875 
Q 12.359375 15.96875 16.703125 11.015625 
Q 21.046875 6.0625 27.640625 6.0625 
Q 34.1875 6.0625 38.53125 11.03125 
Q 42.875 16.015625 42.875 26.21875 
Q 42.875 35.84375 38.5 40.796875 
Q 34.125 45.75 27.640625 45.75 
Q 21.046875 45.75 16.703125 40.8125 
Q 12.359375 35.890625 12.359375 25.921875 
z
" id="ArialMT-111"/>
       <path d="M 6.59375 0 
L 6.59375 51.859375 
L 14.5 51.859375 
L 14.5 44.484375 
Q 20.21875 53.03125 31 53.03125 
Q 35.6875 53.03125 39.625 51.34375 
Q 43.5625 49.65625 45.515625 46.921875 
Q 47.46875 44.1875 48.25 40.4375 
Q 48.734375 37.984375 48.734375 31.890625 
L 48.734375 0 
L 39.9375 0 
L 39.9375 31.546875 
Q 39.9375 36.921875 38.90625 39.578125 
Q 37.890625 42.234375 35.28125 43.8125 
Q 32.671875 45.40625 29.15625 45.40625 
Q 23.53125 45.40625 19.453125 41.84375 
Q 15.375 38.28125 15.375 28.328125 
L 15.375 0 
z
" id="ArialMT-110"/>
       <path d="M 40.234375 0 
L 40.234375 6.546875 
Q 35.296875 -1.171875 25.734375 -1.171875 
Q 19.53125 -1.171875 14.328125 2.25 
Q 9.125 5.671875 6.265625 11.796875 
Q 3.421875 17.921875 3.421875 25.875 
Q 3.421875 33.640625 6 39.96875 
Q 8.59375 46.296875 13.765625 49.65625 
Q 18.953125 53.03125 25.34375 53.03125 
Q 30.03125 53.03125 33.6875 51.046875 
Q 37.359375 49.078125 39.65625 45.90625 
L 39.65625 71.578125 
L 48.390625 71.578125 
L 48.390625 0 
z
M 12.453125 25.875 
Q 12.453125 15.921875 16.640625 10.984375 
Q 20.84375 6.0625 26.5625 6.0625 
Q 32.328125 6.0625 36.34375 10.765625 
Q 40.375 15.484375 40.375 25.140625 
Q 40.375 35.796875 36.265625 40.765625 
Q 32.171875 45.75 26.171875 45.75 
Q 20.3125 45.75 16.375 40.96875 
Q 12.453125 36.1875 12.453125 25.875 
z
" id="ArialMT-100"/>
       <path d="M 40.4375 6.390625 
Q 35.546875 2.25 31.03125 0.53125 
Q 26.515625 -1.171875 21.34375 -1.171875 
Q 12.796875 -1.171875 8.203125 3 
Q 3.609375 7.171875 3.609375 13.671875 
Q 3.609375 17.484375 5.34375 20.625 
Q 7.078125 23.78125 9.890625 25.6875 
Q 12.703125 27.59375 16.21875 28.5625 
Q 18.796875 29.25 24.03125 29.890625 
Q 34.671875 31.15625 39.703125 32.90625 
Q 39.75 34.71875 39.75 35.203125 
Q 39.75 40.578125 37.25 42.78125 
Q 33.890625 45.75 27.25 45.75 
Q 21.046875 45.75 18.09375 43.578125 
Q 15.140625 41.40625 13.71875 35.890625 
L 5.125 37.0625 
Q 6.296875 42.578125 8.984375 45.96875 
Q 11.671875 49.359375 16.75 51.1875 
Q 21.828125 53.03125 28.515625 53.03125 
Q 35.15625 53.03125 39.296875 51.46875 
Q 43.453125 49.90625 45.40625 47.53125 
Q 47.359375 45.171875 48.140625 41.546875 
Q 48.578125 39.3125 48.578125 33.453125 
L 48.578125 21.734375 
Q 48.578125 9.46875 49.140625 6.21875 
Q 49.703125 2.984375 51.375 0 
L 42.1875 0 
Q 40.828125 2.734375 40.4375 6.390625 
z
M 39.703125 26.03125 
Q 34.90625 24.078125 25.34375 22.703125 
Q 19.921875 21.921875 17.671875 20.9375 
Q 15.4375 19.96875 14.203125 18.09375 
Q 12.984375 16.21875 12.984375 13.921875 
Q 12.984375 10.40625 15.640625 8.0625 
Q 18.3125 5.71875 23.4375 5.71875 
Q 28.515625 5.71875 32.46875 7.9375 
Q 36.421875 10.15625 38.28125 14.015625 
Q 39.703125 17 39.703125 22.796875 
z
" id="ArialMT-97"/>
       <path d="M 6.203125 -19.96875 
L 5.21875 -11.71875 
Q 8.109375 -12.5 10.25 -12.5 
Q 13.1875 -12.5 14.9375 -11.515625 
Q 16.703125 -10.546875 17.828125 -8.796875 
Q 18.65625 -7.46875 20.515625 -2.25 
Q 20.75 -1.515625 21.296875 -0.09375 
L 1.609375 51.859375 
L 11.078125 51.859375 
L 21.875 21.828125 
Q 23.96875 16.109375 25.640625 9.8125 
Q 27.15625 15.875 29.25 21.625 
L 40.328125 51.859375 
L 49.125 51.859375 
L 29.390625 -0.875 
Q 26.21875 -9.421875 24.46875 -12.640625 
Q 22.125 -17 19.09375 -19.015625 
Q 16.0625 -21.046875 11.859375 -21.046875 
Q 9.328125 -21.046875 6.203125 -19.96875 
z
" id="ArialMT-121"/>
      </defs>
      <g style="fill:#262626;" transform="translate(75.674015 383.048863)scale(0.14 -0.14)">
       <use xlink:href="#ArialMT-77"/>
       <use x="83.300781" xlink:href="#ArialMT-111"/>
       <use x="138.916016" xlink:href="#ArialMT-110"/>
       <use x="194.53125" xlink:href="#ArialMT-100"/>
       <use x="250.146484" xlink:href="#ArialMT-97"/>
       <use x="305.761719" xlink:href="#ArialMT-121"/>
      </g>
     </g>
    </g>
    <g id="xtick_2">
     <g id="line2d_2"/>
     <g id="text_2">
      <!-- Tuesday -->
      <defs>
       <path d="M 25.921875 0 
L 25.921875 63.140625 
L 2.34375 63.140625 
L 2.34375 71.578125 
L 59.078125 71.578125 
L 59.078125 63.140625 
L 35.40625 63.140625 
L 35.40625 0 
z
" id="ArialMT-84"/>
       <path d="M 40.578125 0 
L 40.578125 7.625 
Q 34.515625 -1.171875 24.125 -1.171875 
Q 19.53125 -1.171875 15.546875 0.578125 
Q 11.578125 2.34375 9.640625 5 
Q 7.71875 7.671875 6.9375 11.53125 
Q 6.390625 14.109375 6.390625 19.734375 
L 6.390625 51.859375 
L 15.1875 51.859375 
L 15.1875 23.09375 
Q 15.1875 16.21875 15.71875 13.8125 
Q 16.546875 10.359375 19.234375 8.375 
Q 21.921875 6.390625 25.875 6.390625 
Q 29.828125 6.390625 33.296875 8.421875 
Q 36.765625 10.453125 38.203125 13.9375 
Q 39.65625 17.4375 39.65625 24.078125 
L 39.65625 51.859375 
L 48.4375 51.859375 
L 48.4375 0 
z
" id="ArialMT-117"/>
       <path d="M 42.09375 16.703125 
L 51.171875 15.578125 
Q 49.03125 7.625 43.21875 3.21875 
Q 37.40625 -1.171875 28.375 -1.171875 
Q 17 -1.171875 10.328125 5.828125 
Q 3.65625 12.84375 3.65625 25.484375 
Q 3.65625 38.578125 10.390625 45.796875 
Q 17.140625 53.03125 27.875 53.03125 
Q 38.28125 53.03125 44.875 45.953125 
Q 51.46875 38.875 51.46875 26.03125 
Q 51.46875 25.25 51.421875 23.6875 
L 12.75 23.6875 
Q 13.234375 15.140625 17.578125 10.59375 
Q 21.921875 6.0625 28.421875 6.0625 
Q 33.25 6.0625 36.671875 8.59375 
Q 40.09375 11.140625 42.09375 16.703125 
z
M 13.234375 30.90625 
L 42.1875 30.90625 
Q 41.609375 37.453125 38.875 40.71875 
Q 34.671875 45.796875 27.984375 45.796875 
Q 21.921875 45.796875 17.796875 41.75 
Q 13.671875 37.703125 13.234375 30.90625 
z
" id="ArialMT-101"/>
       <path d="M 3.078125 15.484375 
L 11.765625 16.84375 
Q 12.5 11.625 15.84375 8.84375 
Q 19.1875 6.0625 25.203125 6.0625 
Q 31.25 6.0625 34.171875 8.515625 
Q 37.109375 10.984375 37.109375 14.3125 
Q 37.109375 17.28125 34.515625 19 
Q 32.71875 20.171875 25.53125 21.96875 
Q 15.875 24.421875 12.140625 26.203125 
Q 8.40625 27.984375 6.46875 31.125 
Q 4.546875 34.28125 4.546875 38.09375 
Q 4.546875 41.546875 6.125 44.5 
Q 7.71875 47.46875 10.453125 49.421875 
Q 12.5 50.921875 16.03125 51.96875 
Q 19.578125 53.03125 23.640625 53.03125 
Q 29.734375 53.03125 34.34375 51.265625 
Q 38.96875 49.515625 41.15625 46.5 
Q 43.359375 43.5 44.1875 38.484375 
L 35.59375 37.3125 
Q 35.015625 41.3125 32.203125 43.546875 
Q 29.390625 45.796875 24.265625 45.796875 
Q 18.21875 45.796875 15.625 43.796875 
Q 13.03125 41.796875 13.03125 39.109375 
Q 13.03125 37.40625 14.109375 36.03125 
Q 15.1875 34.625 17.484375 33.6875 
Q 18.796875 33.203125 25.25 31.453125 
Q 34.578125 28.953125 38.25 27.359375 
Q 41.9375 25.78125 44.03125 22.75 
Q 46.140625 19.734375 46.140625 15.234375 
Q 46.140625 10.84375 43.578125 6.953125 
Q 41.015625 3.078125 36.171875 0.953125 
Q 31.34375 -1.171875 25.25 -1.171875 
Q 15.140625 -1.171875 9.84375 3.03125 
Q 4.546875 7.234375 3.078125 15.484375 
z
" id="ArialMT-115"/>
      </defs>
      <g style="fill:#262626;" transform="translate(169.389752 383.048863)scale(0.14 -0.14)">
       <use xlink:href="#ArialMT-84"/>
       <use x="61.037109" xlink:href="#ArialMT-117"/>
       <use x="116.652344" xlink:href="#ArialMT-101"/>
       <use x="172.267578" xlink:href="#ArialMT-115"/>
       <use x="222.267578" xlink:href="#ArialMT-100"/>
       <use x="277.882812" xlink:href="#ArialMT-97"/>
       <use x="333.498047" xlink:href="#ArialMT-121"/>
      </g>
     </g>
    </g>
    <g id="xtick_3">
     <g id="line2d_3"/>
     <g id="text_3">
      <!-- Wednesday -->
      <defs>
       <path d="M 20.21875 0 
L 1.21875 71.578125 
L 10.9375 71.578125 
L 21.828125 24.65625 
Q 23.578125 17.28125 24.859375 10.015625 
Q 27.59375 21.484375 28.078125 23.25 
L 41.703125 71.578125 
L 53.125 71.578125 
L 63.375 35.359375 
Q 67.234375 21.875 68.953125 10.015625 
Q 70.3125 16.796875 72.515625 25.59375 
L 83.734375 71.578125 
L 93.265625 71.578125 
L 73.640625 0 
L 64.5 0 
L 49.421875 54.546875 
Q 47.515625 61.375 47.171875 62.9375 
Q 46.046875 58.015625 45.0625 54.546875 
L 29.890625 0 
z
" id="ArialMT-87"/>
      </defs>
      <g style="fill:#262626;" transform="translate(254.92752 383.048863)scale(0.14 -0.14)">
       <use xlink:href="#ArialMT-87"/>
       <use x="94.369141" xlink:href="#ArialMT-101"/>
       <use x="149.984375" xlink:href="#ArialMT-100"/>
       <use x="205.599609" xlink:href="#ArialMT-110"/>
       <use x="261.214844" xlink:href="#ArialMT-101"/>
       <use x="316.830078" xlink:href="#ArialMT-115"/>
       <use x="366.830078" xlink:href="#ArialMT-100"/>
       <use x="422.445312" xlink:href="#ArialMT-97"/>
       <use x="478.060547" xlink:href="#ArialMT-121"/>
      </g>
     </g>
    </g>
    <g id="xtick_4">
     <g id="line2d_4"/>
     <g id="text_4">
      <!-- Thursday -->
      <defs>
       <path d="M 6.59375 0 
L 6.59375 71.578125 
L 15.375 71.578125 
L 15.375 45.90625 
Q 21.53125 53.03125 30.90625 53.03125 
Q 36.671875 53.03125 40.921875 50.75 
Q 45.171875 48.484375 47 44.484375 
Q 48.828125 40.484375 48.828125 32.859375 
L 48.828125 0 
L 40.046875 0 
L 40.046875 32.859375 
Q 40.046875 39.453125 37.1875 42.453125 
Q 34.328125 45.453125 29.109375 45.453125 
Q 25.203125 45.453125 21.75 43.421875 
Q 18.3125 41.40625 16.84375 37.9375 
Q 15.375 34.46875 15.375 28.375 
L 15.375 0 
z
" id="ArialMT-104"/>
       <path d="M 6.5 0 
L 6.5 51.859375 
L 14.40625 51.859375 
L 14.40625 44 
Q 17.4375 49.515625 20 51.265625 
Q 22.5625 53.03125 25.640625 53.03125 
Q 30.078125 53.03125 34.671875 50.203125 
L 31.640625 42.046875 
Q 28.421875 43.953125 25.203125 43.953125 
Q 22.3125 43.953125 20.015625 42.21875 
Q 17.71875 40.484375 16.75 37.40625 
Q 15.28125 32.71875 15.28125 27.15625 
L 15.28125 0 
z
" id="ArialMT-114"/>
      </defs>
      <g style="fill:#262626;" transform="translate(358.369975 383.048863)scale(0.14 -0.14)">
       <use xlink:href="#ArialMT-84"/>
       <use x="61.083984" xlink:href="#ArialMT-104"/>
       <use x="116.699219" xlink:href="#ArialMT-117"/>
       <use x="172.314453" xlink:href="#ArialMT-114"/>
       <use x="205.615234" xlink:href="#ArialMT-115"/>
       <use x="255.615234" xlink:href="#ArialMT-100"/>
       <use x="311.230469" xlink:href="#ArialMT-97"/>
       <use x="366.845703" xlink:href="#ArialMT-121"/>
      </g>
     </g>
    </g>
    <g id="xtick_5">
     <g id="line2d_5"/>
     <g id="text_5">
      <!-- Friday -->
      <defs>
       <path d="M 8.203125 0 
L 8.203125 71.578125 
L 56.5 71.578125 
L 56.5 63.140625 
L 17.671875 63.140625 
L 17.671875 40.96875 
L 51.265625 40.96875 
L 51.265625 32.515625 
L 17.671875 32.515625 
L 17.671875 0 
z
" id="ArialMT-70"/>
       <path d="M 6.640625 61.46875 
L 6.640625 71.578125 
L 15.4375 71.578125 
L 15.4375 61.46875 
z
M 6.640625 0 
L 6.640625 51.859375 
L 15.4375 51.859375 
L 15.4375 0 
z
" id="ArialMT-105"/>
      </defs>
      <g style="fill:#262626;" transform="translate(463.757118 383.048863)scale(0.14 -0.14)">
       <use xlink:href="#ArialMT-70"/>
       <use x="61.083984" xlink:href="#ArialMT-114"/>
       <use x="94.384766" xlink:href="#ArialMT-105"/>
       <use x="116.601562" xlink:href="#ArialMT-100"/>
       <use x="172.216797" xlink:href="#ArialMT-97"/>
       <use x="227.832031" xlink:href="#ArialMT-121"/>
      </g>
     </g>
    </g>
    <g id="xtick_6">
     <g id="line2d_6"/>
     <g id="text_6">
      <!-- Saturday -->
      <defs>
       <path d="M 4.5 23 
L 13.421875 23.78125 
Q 14.0625 18.40625 16.375 14.96875 
Q 18.703125 11.53125 23.578125 9.40625 
Q 28.46875 7.28125 34.578125 7.28125 
Q 39.984375 7.28125 44.140625 8.890625 
Q 48.296875 10.5 50.3125 13.296875 
Q 52.34375 16.109375 52.34375 19.4375 
Q 52.34375 22.796875 50.390625 25.3125 
Q 48.4375 27.828125 43.953125 29.546875 
Q 41.0625 30.671875 31.203125 33.03125 
Q 21.34375 35.40625 17.390625 37.5 
Q 12.25 40.1875 9.734375 44.15625 
Q 7.234375 48.140625 7.234375 53.078125 
Q 7.234375 58.5 10.296875 63.203125 
Q 13.375 67.921875 19.28125 70.359375 
Q 25.203125 72.796875 32.421875 72.796875 
Q 40.375 72.796875 46.453125 70.234375 
Q 52.546875 67.671875 55.8125 62.6875 
Q 59.078125 57.71875 59.328125 51.421875 
L 50.25 50.734375 
Q 49.515625 57.515625 45.28125 60.984375 
Q 41.0625 64.453125 32.8125 64.453125 
Q 24.21875 64.453125 20.28125 61.296875 
Q 16.359375 58.15625 16.359375 53.71875 
Q 16.359375 49.859375 19.140625 47.359375 
Q 21.875 44.875 33.421875 42.265625 
Q 44.96875 39.65625 49.265625 37.703125 
Q 55.515625 34.8125 58.484375 30.390625 
Q 61.46875 25.984375 61.46875 20.21875 
Q 61.46875 14.5 58.203125 9.4375 
Q 54.9375 4.390625 48.796875 1.578125 
Q 42.671875 -1.21875 35.015625 -1.21875 
Q 25.296875 -1.21875 18.71875 1.609375 
Q 12.15625 4.4375 8.421875 10.125 
Q 4.6875 15.828125 4.5 23 
z
" id="ArialMT-83"/>
       <path d="M 25.78125 7.859375 
L 27.046875 0.09375 
Q 23.34375 -0.6875 20.40625 -0.6875 
Q 15.625 -0.6875 12.984375 0.828125 
Q 10.359375 2.34375 9.28125 4.8125 
Q 8.203125 7.28125 8.203125 15.1875 
L 8.203125 45.015625 
L 1.765625 45.015625 
L 1.765625 51.859375 
L 8.203125 51.859375 
L 8.203125 64.703125 
L 16.9375 69.96875 
L 16.9375 51.859375 
L 25.78125 51.859375 
L 25.78125 45.015625 
L 16.9375 45.015625 
L 16.9375 14.703125 
Q 16.9375 10.9375 17.40625 9.859375 
Q 17.875 8.796875 18.921875 8.15625 
Q 19.96875 7.515625 21.921875 7.515625 
Q 23.390625 7.515625 25.78125 7.859375 
z
" id="ArialMT-116"/>
      </defs>
      <g style="fill:#262626;" transform="translate(550.845823 383.219488)scale(0.14 -0.14)">
       <use xlink:href="#ArialMT-83"/>
       <use x="66.699219" xlink:href="#ArialMT-97"/>
       <use x="122.314453" xlink:href="#ArialMT-116"/>
       <use x="150.097656" xlink:href="#ArialMT-117"/>
       <use x="205.712891" xlink:href="#ArialMT-114"/>
       <use x="239.013672" xlink:href="#ArialMT-100"/>
       <use x="294.628906" xlink:href="#ArialMT-97"/>
       <use x="350.244141" xlink:href="#ArialMT-121"/>
      </g>
     </g>
    </g>
    <g id="xtick_7">
     <g id="line2d_7"/>
     <g id="text_7">
      <!-- Sunday -->
      <g style="fill:#262626;" transform="translate(650.778435 383.219488)scale(0.14 -0.14)">
       <use xlink:href="#ArialMT-83"/>
       <use x="66.699219" xlink:href="#ArialMT-117"/>
       <use x="122.314453" xlink:href="#ArialMT-110"/>
       <use x="177.929688" xlink:href="#ArialMT-100"/>
       <use x="233.544922" xlink:href="#ArialMT-97"/>
       <use x="289.160156" xlink:href="#ArialMT-121"/>
      </g>
     </g>
    </g>
   </g>
   <g id="matplotlib.axis_2">
    <g id="ytick_1">
     <g id="line2d_8"/>
     <g id="text_8">
      <!-- 0 -->
      <defs>
       <path d="M 4.15625 35.296875 
Q 4.15625 48 6.765625 55.734375 
Q 9.375 63.484375 14.515625 67.671875 
Q 19.671875 71.875 27.484375 71.875 
Q 33.25 71.875 37.59375 69.546875 
Q 41.9375 67.234375 44.765625 62.859375 
Q 47.609375 58.5 49.21875 52.21875 
Q 50.828125 45.953125 50.828125 35.296875 
Q 50.828125 22.703125 48.234375 14.96875 
Q 45.65625 7.234375 40.5 3 
Q 35.359375 -1.21875 27.484375 -1.21875 
Q 17.140625 -1.21875 11.234375 6.203125 
Q 4.15625 15.140625 4.15625 35.296875 
z
M 13.1875 35.296875 
Q 13.1875 17.671875 17.3125 11.828125 
Q 21.4375 6 27.484375 6 
Q 33.546875 6 37.671875 11.859375 
Q 41.796875 17.71875 41.796875 35.296875 
Q 41.796875 52.984375 37.671875 58.78125 
Q 33.546875 64.59375 27.390625 64.59375 
Q 21.34375 64.59375 17.71875 59.46875 
Q 13.1875 52.9375 13.1875 35.296875 
z
" id="ArialMT-48"/>
      </defs>
      <g style="fill:#262626;" transform="translate(43.685913 373.106831)scale(0.1 -0.1)">
       <use xlink:href="#ArialMT-48"/>
      </g>
     </g>
    </g>
    <g id="ytick_2">
     <g id="line2d_9"/>
     <g id="text_9">
      <!-- 500 -->
      <defs>
       <path d="M 4.15625 18.75 
L 13.375 19.53125 
Q 14.40625 12.796875 18.140625 9.390625 
Q 21.875 6 27.15625 6 
Q 33.5 6 37.890625 10.78125 
Q 42.28125 15.578125 42.28125 23.484375 
Q 42.28125 31 38.0625 35.34375 
Q 33.84375 39.703125 27 39.703125 
Q 22.75 39.703125 19.328125 37.765625 
Q 15.921875 35.84375 13.96875 32.765625 
L 5.71875 33.84375 
L 12.640625 70.609375 
L 48.25 70.609375 
L 48.25 62.203125 
L 19.671875 62.203125 
L 15.828125 42.96875 
Q 22.265625 47.46875 29.34375 47.46875 
Q 38.71875 47.46875 45.15625 40.96875 
Q 51.609375 34.46875 51.609375 24.265625 
Q 51.609375 14.546875 45.953125 7.46875 
Q 39.0625 -1.21875 27.15625 -1.21875 
Q 17.390625 -1.21875 11.203125 4.25 
Q 5.03125 9.71875 4.15625 18.75 
z
" id="ArialMT-53"/>
      </defs>
      <g style="fill:#262626;" transform="translate(32.564038 312.706831)scale(0.1 -0.1)">
       <use xlink:href="#ArialMT-53"/>
       <use x="55.615234" xlink:href="#ArialMT-48"/>
       <use x="111.230469" xlink:href="#ArialMT-48"/>
      </g>
     </g>
    </g>
    <g id="ytick_3">
     <g id="line2d_10"/>
     <g id="text_10">
      <!-- 1000 -->
      <defs>
       <path d="M 37.25 0 
L 28.46875 0 
L 28.46875 56 
Q 25.296875 52.984375 20.140625 49.953125 
Q 14.984375 46.921875 10.890625 45.40625 
L 10.890625 53.90625 
Q 18.265625 57.375 23.78125 62.296875 
Q 29.296875 67.234375 31.59375 71.875 
L 37.25 71.875 
z
" id="ArialMT-49"/>
      </defs>
      <g style="fill:#262626;" transform="translate(27.0031 252.306831)scale(0.1 -0.1)">
       <use xlink:href="#ArialMT-49"/>
       <use x="55.615234" xlink:href="#ArialMT-48"/>
       <use x="111.230469" xlink:href="#ArialMT-48"/>
       <use x="166.845703" xlink:href="#ArialMT-48"/>
      </g>
     </g>
    </g>
    <g id="ytick_4">
     <g id="line2d_11"/>
     <g id="text_11">
      <!-- 1500 -->
      <g style="fill:#262626;" transform="translate(27.0031 191.906831)scale(0.1 -0.1)">
       <use xlink:href="#ArialMT-49"/>
       <use x="55.615234" xlink:href="#ArialMT-53"/>
       <use x="111.230469" xlink:href="#ArialMT-48"/>
       <use x="166.845703" xlink:href="#ArialMT-48"/>
      </g>
     </g>
    </g>
    <g id="ytick_5">
     <g id="line2d_12"/>
     <g id="text_12">
      <!-- 2000 -->
      <defs>
       <path d="M 50.34375 8.453125 
L 50.34375 0 
L 3.03125 0 
Q 2.9375 3.171875 4.046875 6.109375 
Q 5.859375 10.9375 9.828125 15.625 
Q 13.8125 20.3125 21.34375 26.46875 
Q 33.015625 36.03125 37.109375 41.625 
Q 41.21875 47.21875 41.21875 52.203125 
Q 41.21875 57.421875 37.46875 61 
Q 33.734375 64.59375 27.734375 64.59375 
Q 21.390625 64.59375 17.578125 60.78125 
Q 13.765625 56.984375 13.71875 50.25 
L 4.6875 51.171875 
Q 5.609375 61.28125 11.65625 66.578125 
Q 17.71875 71.875 27.9375 71.875 
Q 38.234375 71.875 44.234375 66.15625 
Q 50.25 60.453125 50.25 52 
Q 50.25 47.703125 48.484375 43.546875 
Q 46.734375 39.40625 42.65625 34.8125 
Q 38.578125 30.21875 29.109375 22.21875 
Q 21.1875 15.578125 18.9375 13.203125 
Q 16.703125 10.84375 15.234375 8.453125 
z
" id="ArialMT-50"/>
      </defs>
      <g style="fill:#262626;" transform="translate(27.0031 131.506831)scale(0.1 -0.1)">
       <use xlink:href="#ArialMT-50"/>
       <use x="55.615234" xlink:href="#ArialMT-48"/>
       <use x="111.230469" xlink:href="#ArialMT-48"/>
       <use x="166.845703" xlink:href="#ArialMT-48"/>
      </g>
     </g>
    </g>
    <g id="ytick_6">
     <g id="line2d_13"/>
     <g id="text_13">
      <!-- 2500 -->
      <g style="fill:#262626;" transform="translate(27.0031 71.106831)scale(0.1 -0.1)">
       <use xlink:href="#ArialMT-50"/>
       <use x="55.615234" xlink:href="#ArialMT-53"/>
       <use x="111.230469" xlink:href="#ArialMT-48"/>
       <use x="166.845703" xlink:href="#ArialMT-48"/>
      </g>
     </g>
    </g>
    <g id="text_14">
     <!-- Accidents -->
     <defs>
      <path d="M -0.140625 0 
L 27.34375 71.578125 
L 37.546875 71.578125 
L 66.84375 0 
L 56.0625 0 
L 47.703125 21.6875 
L 17.78125 21.6875 
L 9.90625 0 
z
M 20.515625 29.390625 
L 44.78125 29.390625 
L 37.3125 49.21875 
Q 33.890625 58.25 32.234375 64.0625 
Q 30.859375 57.171875 28.375 50.390625 
z
" id="ArialMT-65"/>
      <path d="M 40.4375 19 
L 49.078125 17.875 
Q 47.65625 8.9375 41.8125 3.875 
Q 35.984375 -1.171875 27.484375 -1.171875 
Q 16.84375 -1.171875 10.375 5.78125 
Q 3.90625 12.75 3.90625 25.734375 
Q 3.90625 34.125 6.6875 40.421875 
Q 9.46875 46.734375 15.15625 49.875 
Q 20.84375 53.03125 27.546875 53.03125 
Q 35.984375 53.03125 41.359375 48.75 
Q 46.734375 44.484375 48.25 36.625 
L 39.703125 35.296875 
Q 38.484375 40.53125 35.375 43.15625 
Q 32.28125 45.796875 27.875 45.796875 
Q 21.234375 45.796875 17.078125 41.03125 
Q 12.9375 36.28125 12.9375 25.984375 
Q 12.9375 15.53125 16.9375 10.796875 
Q 20.953125 6.0625 27.390625 6.0625 
Q 32.5625 6.0625 36.03125 9.234375 
Q 39.5 12.40625 40.4375 19 
z
" id="ArialMT-99"/>
     </defs>
     <g style="fill:#262626;" transform="translate(19.5687 243.905025)rotate(-90)scale(0.1728 -0.1728)">
      <use xlink:href="#ArialMT-65"/>
      <use x="66.699219" xlink:href="#ArialMT-99"/>
      <use x="116.699219" xlink:href="#ArialMT-99"/>
      <use x="166.699219" xlink:href="#ArialMT-105"/>
      <use x="188.916016" xlink:href="#ArialMT-100"/>
      <use x="244.53125" xlink:href="#ArialMT-101"/>
      <use x="300.146484" xlink:href="#ArialMT-110"/>
      <use x="355.761719" xlink:href="#ArialMT-116"/>
      <use x="383.544922" xlink:href="#ArialMT-115"/>
     </g>
    </g>
   </g>
   <g id="PolyCollection_1">
    <defs>
     <path d="M 100.868812 -88.345325 
L 100.282031 -88.345325 
L 100.190055 -90.062149 
L 100.057227 -91.778973 
L 99.865137 -93.495798 
L 99.594922 -95.212622 
L 99.230872 -96.929446 
L 98.764217 -98.64627 
L 98.196199 -100.363095 
L 97.539222 -102.079919 
L 96.814771 -103.796743 
L 96.047258 -105.513567 
L 95.254356 -107.230392 
L 94.436382 -108.947216 
L 93.568821 -110.66404 
L 92.601931 -112.380864 
L 91.469102 -114.097689 
L 90.102201 -115.814513 
L 88.449316 -117.531337 
L 86.489738 -119.248161 
L 84.242733 -120.964986 
L 81.769277 -122.68181 
L 79.167754 -124.398634 
L 76.564944 -126.115458 
L 74.10323 -127.832283 
L 71.925056 -129.549107 
L 70.156737 -131.265931 
L 68.894688 -132.982755 
L 68.196791 -134.69958 
L 68.079398 -136.416404 
L 68.517868 -138.133228 
L 69.447507 -139.850052 
L 70.763526 -141.566877 
L 72.322048 -143.283701 
L 73.946859 -145.000525 
L 75.446183 -146.717349 
L 76.639867 -148.434173 
L 77.391706 -150.150998 
L 77.637129 -151.867822 
L 77.395947 -153.584646 
L 76.764122 -155.30147 
L 75.886387 -157.018295 
L 74.919236 -158.735119 
L 73.997574 -160.451943 
L 73.216034 -162.168767 
L 72.628822 -163.885592 
L 72.263869 -165.602416 
L 72.141854 -167.31924 
L 72.290346 -169.036064 
L 72.746999 -170.752889 
L 73.551205 -172.469713 
L 74.728369 -174.186537 
L 76.273672 -175.903361 
L 78.142216 -177.620186 
L 80.249929 -179.33701 
L 82.485517 -181.053834 
L 84.729627 -182.770658 
L 86.874954 -184.487483 
L 88.841327 -186.204307 
L 90.582395 -187.921131 
L 92.08395 -189.637955 
L 93.356453 -191.35478 
L 94.425223 -193.071604 
L 95.321166 -194.788428 
L 96.073748 -196.505252 
L 96.706887 -198.222077 
L 97.237741 -199.938901 
L 97.677895 -201.655725 
L 98.036099 -203.372549 
L 98.321375 -205.089373 
L 98.545264 -206.806198 
L 98.722295 -208.523022 
L 98.868389 -210.239846 
L 98.997752 -211.95667 
L 99.119554 -213.673495 
L 99.23593 -215.390319 
L 99.342514 -217.107143 
L 99.431641 -218.823967 
L 99.49709 -220.540792 
L 99.53831 -222.257616 
L 99.562073 -223.97444 
L 99.580657 -225.691264 
L 99.607325 -227.408089 
L 99.651249 -229.124913 
L 99.714262 -230.841737 
L 99.790813 -232.558561 
L 99.87089 -234.275386 
L 99.944374 -235.99221 
L 100.004819 -237.709034 
L 100.051239 -239.425858 
L 100.087468 -241.142683 
L 100.119711 -242.859507 
L 100.153501 -244.576331 
L 100.19138 -246.293155 
L 100.232209 -248.00998 
L 100.272241 -249.726804 
L 100.307296 -251.443628 
L 100.334921 -253.160452 
L 100.355519 -254.877277 
L 100.372 -256.594101 
L 100.388299 -258.310925 
L 100.762544 -258.310925 
L 100.762544 -258.310925 
L 100.778842 -256.594101 
L 100.795324 -254.877277 
L 100.815922 -253.160452 
L 100.843547 -251.443628 
L 100.878602 -249.726804 
L 100.918634 -248.00998 
L 100.959463 -246.293155 
L 100.997342 -244.576331 
L 101.031131 -242.859507 
L 101.063375 -241.142683 
L 101.099604 -239.425858 
L 101.146024 -237.709034 
L 101.206469 -235.99221 
L 101.279952 -234.275386 
L 101.36003 -232.558561 
L 101.43658 -230.841737 
L 101.499594 -229.124913 
L 101.543518 -227.408089 
L 101.570185 -225.691264 
L 101.58877 -223.97444 
L 101.612533 -222.257616 
L 101.653753 -220.540792 
L 101.719202 -218.823967 
L 101.808328 -217.107143 
L 101.914913 -215.390319 
L 102.031289 -213.673495 
L 102.153091 -211.95667 
L 102.282454 -210.239846 
L 102.428548 -208.523022 
L 102.605579 -206.806198 
L 102.829468 -205.089373 
L 103.114743 -203.372549 
L 103.472948 -201.655725 
L 103.913102 -199.938901 
L 104.443956 -198.222077 
L 105.077095 -196.505252 
L 105.829677 -194.788428 
L 106.72562 -193.071604 
L 107.79439 -191.35478 
L 109.066893 -189.637955 
L 110.568448 -187.921131 
L 112.309516 -186.204307 
L 114.275889 -184.487483 
L 116.421216 -182.770658 
L 118.665326 -181.053834 
L 120.900914 -179.33701 
L 123.008626 -177.620186 
L 124.877171 -175.903361 
L 126.422474 -174.186537 
L 127.599638 -172.469713 
L 128.403844 -170.752889 
L 128.860497 -169.036064 
L 129.008989 -167.31924 
L 128.886974 -165.602416 
L 128.522021 -163.885592 
L 127.934809 -162.168767 
L 127.153269 -160.451943 
L 126.231607 -158.735119 
L 125.264456 -157.018295 
L 124.386721 -155.30147 
L 123.754896 -153.584646 
L 123.513714 -151.867822 
L 123.759137 -150.150998 
L 124.510976 -148.434173 
L 125.70466 -146.717349 
L 127.203984 -145.000525 
L 128.828795 -143.283701 
L 130.387317 -141.566877 
L 131.703336 -139.850052 
L 132.632975 -138.133228 
L 133.071444 -136.416404 
L 132.954052 -134.69958 
L 132.256155 -132.982755 
L 130.994106 -131.265931 
L 129.225786 -129.549107 
L 127.047613 -127.832283 
L 124.585899 -126.115458 
L 121.983089 -124.398634 
L 119.381566 -122.68181 
L 116.90811 -120.964986 
L 114.661104 -119.248161 
L 112.701527 -117.531337 
L 111.048642 -115.814513 
L 109.681741 -114.097689 
L 108.548912 -112.380864 
L 107.582021 -110.66404 
L 106.714461 -108.947216 
L 105.896487 -107.230392 
L 105.103585 -105.513567 
L 104.336072 -103.796743 
L 103.611621 -102.079919 
L 102.954644 -100.363095 
L 102.386626 -98.64627 
L 101.919971 -96.929446 
L 101.555921 -95.212622 
L 101.285706 -93.495798 
L 101.093616 -91.778973 
L 100.960788 -90.062149 
L 100.868812 -88.345325 
z
" id="ma615cb1fff" style="stroke:#353535;stroke-width:2;"/>
    </defs>
    <g clip-path="url(#p0cd8067e6f)">
     <use style="fill:#367182;stroke:#353535;stroke-width:2;" x="0" xlink:href="#ma615cb1fff" y="393.36605"/>
    </g>
   </g>
   <g id="PolyCollection_2">
    <defs>
     <path d="M 196.52598 -93.298125 
L 195.939148 -93.298125 
L 195.910312 -94.978343 
L 195.89076 -96.658561 
L 195.875204 -98.33878 
L 195.85398 -100.018998 
L 195.814441 -101.699216 
L 195.742684 -103.379434 
L 195.62435 -105.059652 
L 195.44331 -106.73987 
L 195.177867 -108.420089 
L 194.795514 -110.100307 
L 194.248511 -111.780525 
L 193.473133 -113.460743 
L 192.394804 -115.140961 
L 190.939742 -116.82118 
L 189.051671 -118.501398 
L 186.710159 -120.181616 
L 183.945962 -121.861834 
L 180.848682 -123.542052 
L 177.563512 -125.22227 
L 174.276451 -126.902489 
L 171.190428 -128.582707 
L 168.497277 -130.262925 
L 166.351522 -131.943143 
L 164.851357 -133.623361 
L 164.030119 -135.30358 
L 163.858628 -136.983798 
L 164.255833 -138.664016 
L 165.103376 -140.344234 
L 166.259908 -142.024452 
L 167.573229 -143.70467 
L 168.891132 -145.384889 
L 170.073216 -147.065107 
L 171.004571 -148.745325 
L 171.609099 -150.425543 
L 171.857831 -152.105761 
L 171.76818 -153.78598 
L 171.393617 -155.466198 
L 170.807608 -157.146416 
L 170.088007 -158.826634 
L 169.307154 -160.506852 
L 168.529397 -162.18707 
L 167.81396 -163.867289 
L 167.218809 -165.547507 
L 166.801547 -167.227725 
L 166.615659 -168.907943 
L 166.703526 -170.588161 
L 167.089634 -172.26838 
L 167.777458 -173.948598 
L 168.751392 -175.628816 
L 169.982284 -177.309034 
L 171.433335 -178.989252 
L 173.063507 -180.66947 
L 174.827792 -182.349689 
L 176.676069 -184.029907 
L 178.55327 -185.710125 
L 180.402738 -187.390343 
L 182.172781 -189.070561 
L 183.824442 -190.75078 
L 185.337483 -192.430998 
L 186.711711 -194.111216 
L 187.962334 -195.791434 
L 189.110557 -197.471652 
L 190.172991 -199.15187 
L 191.154378 -200.832089 
L 192.046685 -202.512307 
L 192.834505 -204.192525 
L 193.503653 -205.872743 
L 194.048563 -207.552961 
L 194.475288 -209.23318 
L 194.799439 -210.913398 
L 195.040896 -212.593616 
L 195.218186 -214.273834 
L 195.34502 -215.954052 
L 195.43001 -217.63427 
L 195.478976 -219.314489 
L 195.49813 -220.994707 
L 195.496244 -222.674925 
L 195.484638 -224.355143 
L 195.475039 -226.035361 
L 195.476521 -227.71558 
L 195.493085 -229.395798 
L 195.523066 -231.076016 
L 195.560499 -232.756234 
L 195.597687 -234.436452 
L 195.627827 -236.11667 
L 195.646838 -237.796889 
L 195.654104 -239.477107 
L 195.65231 -241.157325 
L 195.646627 -242.837543 
L 195.643419 -244.517761 
L 195.648625 -246.19798 
L 195.666155 -247.878198 
L 195.696814 -249.558416 
L 195.738274 -251.238634 
L 195.786173 -252.918852 
L 195.835899 -254.59907 
L 195.884215 -256.279289 
L 195.929958 -257.959507 
L 195.973599 -259.639725 
L 196.49153 -259.639725 
L 196.49153 -259.639725 
L 196.535171 -257.959507 
L 196.580913 -256.279289 
L 196.62923 -254.59907 
L 196.678956 -252.918852 
L 196.726854 -251.238634 
L 196.768314 -249.558416 
L 196.798974 -247.878198 
L 196.816503 -246.19798 
L 196.82171 -244.517761 
L 196.818501 -242.837543 
L 196.812819 -241.157325 
L 196.811025 -239.477107 
L 196.818291 -237.796889 
L 196.837301 -236.11667 
L 196.867442 -234.436452 
L 196.90463 -232.756234 
L 196.942063 -231.076016 
L 196.972043 -229.395798 
L 196.988607 -227.71558 
L 196.990089 -226.035361 
L 196.980491 -224.355143 
L 196.968884 -222.674925 
L 196.966999 -220.994707 
L 196.986153 -219.314489 
L 197.035119 -217.63427 
L 197.120109 -215.954052 
L 197.246943 -214.273834 
L 197.424233 -212.593616 
L 197.66569 -210.913398 
L 197.989841 -209.23318 
L 198.416565 -207.552961 
L 198.961476 -205.872743 
L 199.630623 -204.192525 
L 200.418444 -202.512307 
L 201.31075 -200.832089 
L 202.292138 -199.15187 
L 203.354572 -197.471652 
L 204.502794 -195.791434 
L 205.753418 -194.111216 
L 207.127645 -192.430998 
L 208.640687 -190.75078 
L 210.292348 -189.070561 
L 212.06239 -187.390343 
L 213.911859 -185.710125 
L 215.789059 -184.029907 
L 217.637337 -182.349689 
L 219.401622 -180.66947 
L 221.031794 -178.989252 
L 222.482845 -177.309034 
L 223.713737 -175.628816 
L 224.68767 -173.948598 
L 225.375495 -172.26838 
L 225.761603 -170.588161 
L 225.849469 -168.907943 
L 225.663582 -167.227725 
L 225.246319 -165.547507 
L 224.651169 -163.867289 
L 223.935731 -162.18707 
L 223.157975 -160.506852 
L 222.377122 -158.826634 
L 221.657521 -157.146416 
L 221.071511 -155.466198 
L 220.696949 -153.78598 
L 220.607298 -152.105761 
L 220.856029 -150.425543 
L 221.460557 -148.745325 
L 222.391913 -147.065107 
L 223.573997 -145.384889 
L 224.891899 -143.70467 
L 226.205221 -142.024452 
L 227.361753 -140.344234 
L 228.209295 -138.664016 
L 228.6065 -136.983798 
L 228.43501 -135.30358 
L 227.613772 -133.623361 
L 226.113607 -131.943143 
L 223.967851 -130.262925 
L 221.2747 -128.582707 
L 218.188678 -126.902489 
L 214.901616 -125.22227 
L 211.616447 -123.542052 
L 208.519167 -121.861834 
L 205.754969 -120.181616 
L 203.413458 -118.501398 
L 201.525386 -116.82118 
L 200.070325 -115.140961 
L 198.991995 -113.460743 
L 198.216617 -111.780525 
L 197.669614 -110.100307 
L 197.287261 -108.420089 
L 197.021819 -106.73987 
L 196.840778 -105.059652 
L 196.722445 -103.379434 
L 196.650687 -101.699216 
L 196.611148 -100.018998 
L 196.589925 -98.33878 
L 196.574369 -96.658561 
L 196.554816 -94.978343 
L 196.52598 -93.298125 
z
" id="m460302ab88" style="stroke:#353535;stroke-width:2;"/>
    </defs>
    <g clip-path="url(#p0cd8067e6f)">
     <use style="fill:#2f837f;stroke:#353535;stroke-width:2;" x="0" xlink:href="#m460302ab88" y="393.36605"/>
    </g>
   </g>
   <g id="PolyCollection_3">
    <defs>
     <path d="M 292.058287 -83.392525 
L 291.721128 -83.392525 
L 291.728564 -85.210626 
L 291.748902 -87.028727 
L 291.776563 -88.846828 
L 291.804408 -90.664929 
L 291.82559 -92.48303 
L 291.834539 -94.301131 
L 291.826974 -96.119232 
L 291.799474 -97.937333 
L 291.749212 -99.755434 
L 291.673821 -101.573535 
L 291.570572 -103.391636 
L 291.433741 -105.209737 
L 291.249721 -107.027838 
L 290.990956 -108.845939 
L 290.611331 -110.66404 
L 290.046084 -112.482141 
L 289.218113 -114.300242 
L 288.050104 -116.118343 
L 286.479614 -117.936444 
L 284.473409 -119.754545 
L 282.038079 -121.572646 
L 279.225458 -123.390747 
L 276.132344 -125.208848 
L 272.894144 -127.026949 
L 269.671989 -128.84505 
L 266.633932 -130.663151 
L 263.933366 -132.481252 
L 261.690442 -134.299353 
L 259.982276 -136.117454 
L 258.843904 -137.935555 
L 258.276343 -139.753656 
L 258.255141 -141.571757 
L 258.734594 -143.389858 
L 259.646998 -145.207959 
L 260.899206 -147.02606 
L 262.369311 -148.844161 
L 263.906704 -150.662262 
L 265.340125 -152.480363 
L 266.497795 -154.298464 
L 267.238318 -156.116565 
L 267.482667 -157.934666 
L 267.233091 -159.752767 
L 266.569573 -161.570868 
L 265.626092 -163.388969 
L 264.559062 -165.20707 
L 263.521838 -167.025171 
L 262.652314 -168.843272 
L 262.071442 -170.661373 
L 261.884823 -172.479474 
L 262.179721 -174.297576 
L 263.014309 -176.115677 
L 264.40187 -177.933778 
L 266.297064 -179.751879 
L 268.592238 -181.56998 
L 271.128787 -183.388081 
L 273.723071 -185.206182 
L 276.200913 -187.024283 
L 278.43096 -188.842384 
L 280.346486 -190.660485 
L 281.948295 -192.478586 
L 283.288022 -194.296687 
L 284.438941 -196.114788 
L 285.466468 -197.932889 
L 286.409569 -199.75099 
L 287.277744 -201.569091 
L 288.060185 -203.387192 
L 288.739074 -205.205293 
L 289.299968 -207.023394 
L 289.736746 -208.841495 
L 290.052724 -210.659596 
L 290.260579 -212.477697 
L 290.381986 -214.295798 
L 290.445941 -216.113899 
L 290.48443 -217.932 
L 290.525779 -219.750101 
L 290.588006 -221.568202 
L 290.675237 -223.386303 
L 290.779103 -225.204404 
L 290.884693 -227.022505 
L 290.978491 -228.840606 
L 291.054776 -230.658707 
L 291.117636 -232.476808 
L 291.177778 -234.294909 
L 291.245939 -236.11301 
L 291.326539 -237.931111 
L 291.415108 -239.749212 
L 291.500778 -241.567313 
L 291.572112 -243.385414 
L 291.622682 -245.203515 
L 291.653343 -247.021616 
L 291.670378 -248.839717 
L 291.681204 -250.657818 
L 291.690459 -252.475919 
L 291.698662 -254.29402 
L 291.703812 -256.112121 
L 291.704451 -257.930222 
L 291.701997 -259.748323 
L 291.700827 -261.566424 
L 291.706198 -263.384525 
L 292.073216 -263.384525 
L 292.073216 -263.384525 
L 292.078587 -261.566424 
L 292.077417 -259.748323 
L 292.074963 -257.930222 
L 292.075603 -256.112121 
L 292.080752 -254.29402 
L 292.088955 -252.475919 
L 292.09821 -250.657818 
L 292.109036 -248.839717 
L 292.126072 -247.021616 
L 292.156732 -245.203515 
L 292.207303 -243.385414 
L 292.278636 -241.567313 
L 292.364307 -239.749212 
L 292.452875 -237.931111 
L 292.533476 -236.11301 
L 292.601637 -234.294909 
L 292.661778 -232.476808 
L 292.724638 -230.658707 
L 292.800924 -228.840606 
L 292.894721 -227.022505 
L 293.000311 -225.204404 
L 293.104177 -223.386303 
L 293.191409 -221.568202 
L 293.253635 -219.750101 
L 293.294984 -217.932 
L 293.333473 -216.113899 
L 293.397428 -214.295798 
L 293.518836 -212.477697 
L 293.72669 -210.659596 
L 294.042669 -208.841495 
L 294.479446 -207.023394 
L 295.04034 -205.205293 
L 295.719229 -203.387192 
L 296.50167 -201.569091 
L 297.369845 -199.75099 
L 298.312946 -197.932889 
L 299.340473 -196.114788 
L 300.491392 -194.296687 
L 301.831119 -192.478586 
L 303.432928 -190.660485 
L 305.348455 -188.842384 
L 307.578502 -187.024283 
L 310.056343 -185.206182 
L 312.650627 -183.388081 
L 315.187176 -181.56998 
L 317.482351 -179.751879 
L 319.377544 -177.933778 
L 320.765106 -176.115677 
L 321.599693 -174.297576 
L 321.894591 -172.479474 
L 321.707972 -170.661373 
L 321.1271 -168.843272 
L 320.257576 -167.025171 
L 319.220352 -165.20707 
L 318.153323 -163.388969 
L 317.209841 -161.570868 
L 316.546323 -159.752767 
L 316.296748 -157.934666 
L 316.541096 -156.116565 
L 317.281619 -154.298464 
L 318.439289 -152.480363 
L 319.872711 -150.662262 
L 321.410103 -148.844161 
L 322.880208 -147.02606 
L 324.132417 -145.207959 
L 325.044821 -143.389858 
L 325.524274 -141.571757 
L 325.503072 -139.753656 
L 324.93551 -137.935555 
L 323.797139 -136.117454 
L 322.088972 -134.299353 
L 319.846048 -132.481252 
L 317.145483 -130.663151 
L 314.107425 -128.84505 
L 310.88527 -127.026949 
L 307.64707 -125.208848 
L 304.553957 -123.390747 
L 301.741335 -121.572646 
L 299.306005 -119.754545 
L 297.2998 -117.936444 
L 295.72931 -116.118343 
L 294.561301 -114.300242 
L 293.733331 -112.482141 
L 293.168083 -110.66404 
L 292.788458 -108.845939 
L 292.529694 -107.027838 
L 292.345673 -105.209737 
L 292.208843 -103.391636 
L 292.105594 -101.573535 
L 292.030202 -99.755434 
L 291.97994 -97.937333 
L 291.95244 -96.119232 
L 291.944875 -94.301131 
L 291.953824 -92.48303 
L 291.975006 -90.664929 
L 292.002851 -88.846828 
L 292.030513 -87.028727 
L 292.05085 -85.210626 
L 292.058287 -83.392525 
z
" id="m5dea44de34" style="stroke:#353535;stroke-width:2;"/>
    </defs>
    <g clip-path="url(#p0cd8067e6f)">
     <use style="fill:#33977c;stroke:#353535;stroke-width:2;" x="0" xlink:href="#m5dea44de34" y="393.36605"/>
    </g>
   </g>
   <g id="PolyCollection_4">
    <defs>
     <path d="M 388.285339 -97.526125 
L 386.808361 -97.526125 
L 386.641721 -99.201462 
L 386.493127 -100.8768 
L 386.374822 -102.552137 
L 386.289449 -104.227474 
L 386.226739 -105.902812 
L 386.163524 -107.578149 
L 386.066587 -109.253487 
L 385.896184 -110.928824 
L 385.607978 -112.604161 
L 385.152816 -114.279499 
L 384.476237 -115.954836 
L 383.520785 -117.630173 
L 382.23306 -119.305511 
L 380.57475 -120.980848 
L 378.534482 -122.656186 
L 376.136743 -124.331523 
L 373.44535 -126.00686 
L 370.560657 -127.682198 
L 367.61092 -129.357535 
L 364.738707 -131.032872 
L 362.083788 -132.70821 
L 359.765056 -134.383547 
L 357.865316 -136.058885 
L 356.423124 -137.734222 
L 355.434256 -139.409559 
L 354.862336 -141.084897 
L 354.655144 -142.760234 
L 354.761295 -144.435571 
L 355.141823 -146.110909 
L 355.772231 -147.786246 
L 356.633082 -149.461584 
L 357.691457 -151.136921 
L 358.88084 -152.812258 
L 360.090411 -154.487596 
L 361.173111 -156.162933 
L 361.973986 -157.83827 
L 362.369531 -159.513608 
L 362.301485 -161.188945 
L 361.790298 -162.864283 
L 360.92428 -164.53962 
L 359.83376 -166.214957 
L 358.666131 -167.890295 
L 357.572858 -169.565632 
L 356.707077 -171.240969 
L 356.220267 -172.916307 
L 356.246694 -174.591644 
L 356.874968 -176.266982 
L 358.118887 -177.942319 
L 359.904956 -179.617656 
L 362.087304 -181.292994 
L 364.486438 -182.968331 
L 366.935536 -184.643668 
L 369.314661 -186.319006 
L 371.560772 -187.994343 
L 373.654514 -189.669681 
L 375.595457 -191.345018 
L 377.380297 -193.020355 
L 378.993461 -194.695693 
L 380.410988 -196.37103 
L 381.611806 -198.046367 
L 382.588541 -199.721705 
L 383.352529 -201.397042 
L 383.931975 -203.07238 
L 384.365599 -204.747717 
L 384.695064 -206.423054 
L 384.958548 -208.098392 
L 385.186389 -209.773729 
L 385.398859 -211.449066 
L 385.606029 -213.124404 
L 385.809663 -214.799741 
L 386.006642 -216.475079 
L 386.192694 -218.150416 
L 386.365036 -219.825753 
L 386.523173 -221.501091 
L 386.668177 -223.176428 
L 386.801486 -224.851765 
L 386.924081 -226.527103 
L 387.036228 -228.20244 
L 387.137476 -229.877778 
L 387.226617 -231.553115 
L 387.301663 -233.228452 
L 387.360143 -234.90379 
L 387.399883 -236.579127 
L 387.420114 -238.254464 
L 387.42249 -239.929802 
L 387.411511 -241.605139 
L 387.394002 -243.280477 
L 387.377602 -244.955814 
L 387.368649 -246.631151 
L 387.370224 -248.306489 
L 387.381205 -249.981826 
L 387.39682 -251.657163 
L 387.410588 -253.332501 
L 387.416893 -255.007838 
L 387.413195 -256.683176 
L 387.401032 -258.358513 
L 387.385468 -260.03385 
L 387.373201 -261.709188 
L 387.370085 -263.384525 
L 387.723615 -263.384525 
L 387.723615 -263.384525 
L 387.720499 -261.709188 
L 387.708232 -260.03385 
L 387.692668 -258.358513 
L 387.680505 -256.683176 
L 387.676807 -255.007838 
L 387.683112 -253.332501 
L 387.69688 -251.657163 
L 387.712495 -249.981826 
L 387.723476 -248.306489 
L 387.725051 -246.631151 
L 387.716098 -244.955814 
L 387.699698 -243.280477 
L 387.682189 -241.605139 
L 387.67121 -239.929802 
L 387.673586 -238.254464 
L 387.693817 -236.579127 
L 387.733557 -234.90379 
L 387.792037 -233.228452 
L 387.867083 -231.553115 
L 387.956224 -229.877778 
L 388.057472 -228.20244 
L 388.169619 -226.527103 
L 388.292214 -224.851765 
L 388.425523 -223.176428 
L 388.570527 -221.501091 
L 388.728664 -219.825753 
L 388.901006 -218.150416 
L 389.087058 -216.475079 
L 389.284037 -214.799741 
L 389.487671 -213.124404 
L 389.694841 -211.449066 
L 389.907311 -209.773729 
L 390.135152 -208.098392 
L 390.398636 -206.423054 
L 390.728101 -204.747717 
L 391.161725 -203.07238 
L 391.741171 -201.397042 
L 392.505159 -199.721705 
L 393.481894 -198.046367 
L 394.682712 -196.37103 
L 396.100239 -194.695693 
L 397.713403 -193.020355 
L 399.498243 -191.345018 
L 401.439186 -189.669681 
L 403.532928 -187.994343 
L 405.779039 -186.319006 
L 408.158164 -184.643668 
L 410.607262 -182.968331 
L 413.006396 -181.292994 
L 415.188744 -179.617656 
L 416.974813 -177.942319 
L 418.218732 -176.266982 
L 418.847006 -174.591644 
L 418.873433 -172.916307 
L 418.386623 -171.240969 
L 417.520842 -169.565632 
L 416.427569 -167.890295 
L 415.25994 -166.214957 
L 414.16942 -164.53962 
L 413.303402 -162.864283 
L 412.792215 -161.188945 
L 412.724169 -159.513608 
L 413.119714 -157.83827 
L 413.920589 -156.162933 
L 415.003289 -154.487596 
L 416.21286 -152.812258 
L 417.402243 -151.136921 
L 418.460618 -149.461584 
L 419.321469 -147.786246 
L 419.951877 -146.110909 
L 420.332405 -144.435571 
L 420.438556 -142.760234 
L 420.231364 -141.084897 
L 419.659444 -139.409559 
L 418.670576 -137.734222 
L 417.228384 -136.058885 
L 415.328644 -134.383547 
L 413.009912 -132.70821 
L 410.354993 -131.032872 
L 407.48278 -129.357535 
L 404.533043 -127.682198 
L 401.64835 -126.00686 
L 398.956957 -124.331523 
L 396.559218 -122.656186 
L 394.51895 -120.980848 
L 392.86064 -119.305511 
L 391.572915 -117.630173 
L 390.617463 -115.954836 
L 389.940884 -114.279499 
L 389.485722 -112.604161 
L 389.197516 -110.928824 
L 389.027113 -109.253487 
L 388.930176 -107.578149 
L 388.866961 -105.902812 
L 388.804251 -104.227474 
L 388.718878 -102.552137 
L 388.600573 -100.8768 
L 388.451979 -99.201462 
L 388.285339 -97.526125 
z
" id="m8e3f38efd5" style="stroke:#353535;stroke-width:2;"/>
    </defs>
    <g clip-path="url(#p0cd8067e6f)">
     <use style="fill:#53b075;stroke:#353535;stroke-width:2;" x="0" xlink:href="#m8e3f38efd5" y="393.36605"/>
    </g>
   </g>
   <g id="PolyCollection_5">
    <defs>
     <path d="M 484.215738 -105.498925 
L 482.192248 -105.498925 
L 481.894218 -107.816089 
L 481.598315 -110.133252 
L 481.331366 -112.450416 
L 481.111715 -114.76758 
L 480.93838 -117.084743 
L 480.781102 -119.401907 
L 480.574633 -121.71907 
L 480.221019 -124.036234 
L 479.602293 -126.353398 
L 478.602548 -128.670561 
L 477.134118 -130.987725 
L 475.160254 -133.304889 
L 472.708356 -135.622052 
L 469.872688 -137.939216 
L 466.809542 -140.25638 
L 463.72719 -142.573543 
L 460.868367 -144.890707 
L 458.480156 -147.20787 
L 456.770722 -149.525034 
L 455.863278 -151.842198 
L 455.766229 -154.159361 
L 456.375426 -156.476525 
L 457.509334 -158.793689 
L 458.960449 -161.110852 
L 460.539017 -163.428016 
L 462.093038 -165.74518 
L 463.504986 -168.062343 
L 464.678488 -170.379507 
L 465.529365 -172.69667 
L 465.987182 -175.013834 
L 466.004034 -177.330998 
L 465.564037 -179.648161 
L 464.689983 -181.965325 
L 463.448097 -184.282489 
L 461.952535 -186.599652 
L 460.367305 -188.916816 
L 458.898535 -191.23398 
L 457.770027 -193.551143 
L 457.182379 -195.868307 
L 457.267132 -198.18547 
L 458.054273 -200.502634 
L 459.468052 -202.819798 
L 461.35344 -205.136961 
L 463.52162 -207.454125 
L 465.795801 -209.771289 
L 468.041372 -212.088452 
L 470.173742 -214.405616 
L 472.14761 -216.72278 
L 473.938063 -219.039943 
L 475.524883 -221.357107 
L 476.887316 -223.67427 
L 478.009729 -225.991434 
L 478.892448 -228.308598 
L 479.559506 -230.625761 
L 480.057223 -232.942925 
L 480.443132 -235.260089 
L 480.770383 -237.577252 
L 481.074988 -239.894416 
L 481.37096 -242.21158 
L 481.653687 -244.528743 
L 481.908173 -246.845907 
L 482.117935 -249.16307 
L 482.271861 -251.480234 
L 482.368089 -253.797398 
L 482.414839 -256.114561 
L 482.428328 -258.431725 
L 482.428286 -260.748889 
L 482.432438 -263.066052 
L 482.452014 -265.383216 
L 482.4901 -267.70038 
L 482.543214 -270.017543 
L 482.604889 -272.334707 
L 482.669159 -274.65187 
L 482.732448 -276.969034 
L 482.793595 -279.286198 
L 482.852809 -281.603361 
L 482.910478 -283.920525 
L 482.966365 -286.237689 
L 483.019317 -288.554852 
L 483.067465 -290.872016 
L 483.108792 -293.18918 
L 483.141845 -295.506343 
L 483.166246 -297.823507 
L 483.182762 -300.14067 
L 483.192966 -302.457834 
L 483.198679 -304.774998 
L 483.201501 -307.092161 
L 483.202525 -309.409325 
L 483.202242 -311.726489 
L 483.20054 -314.043652 
L 483.196743 -316.360816 
L 483.189744 -318.67798 
L 483.178324 -320.995143 
L 483.161736 -323.312307 
L 483.140453 -325.62947 
L 483.116729 -327.946634 
L 483.094532 -330.263798 
L 483.078589 -332.580961 
L 483.072775 -334.898125 
L 483.335211 -334.898125 
L 483.335211 -334.898125 
L 483.329396 -332.580961 
L 483.313453 -330.263798 
L 483.291257 -327.946634 
L 483.267533 -325.62947 
L 483.24625 -323.312307 
L 483.229662 -320.995143 
L 483.218241 -318.67798 
L 483.211242 -316.360816 
L 483.207446 -314.043652 
L 483.205743 -311.726489 
L 483.205461 -309.409325 
L 483.206485 -307.092161 
L 483.209307 -304.774998 
L 483.21502 -302.457834 
L 483.225223 -300.14067 
L 483.24174 -297.823507 
L 483.26614 -295.506343 
L 483.299194 -293.18918 
L 483.340521 -290.872016 
L 483.388669 -288.554852 
L 483.441621 -286.237689 
L 483.497507 -283.920525 
L 483.555177 -281.603361 
L 483.614391 -279.286198 
L 483.675538 -276.969034 
L 483.738827 -274.65187 
L 483.803097 -272.334707 
L 483.864772 -270.017543 
L 483.917886 -267.70038 
L 483.955971 -265.383216 
L 483.975548 -263.066052 
L 483.979699 -260.748889 
L 483.979657 -258.431725 
L 483.993146 -256.114561 
L 484.039896 -253.797398 
L 484.136125 -251.480234 
L 484.290051 -249.16307 
L 484.499813 -246.845907 
L 484.754299 -244.528743 
L 485.037026 -242.21158 
L 485.332997 -239.894416 
L 485.637603 -237.577252 
L 485.964854 -235.260089 
L 486.350762 -232.942925 
L 486.84848 -230.625761 
L 487.515538 -228.308598 
L 488.398257 -225.991434 
L 489.52067 -223.67427 
L 490.883103 -221.357107 
L 492.469922 -219.039943 
L 494.260375 -216.72278 
L 496.234244 -214.405616 
L 498.366614 -212.088452 
L 500.612185 -209.771289 
L 502.886366 -207.454125 
L 505.054545 -205.136961 
L 506.939934 -202.819798 
L 508.353713 -200.502634 
L 509.140854 -198.18547 
L 509.225607 -195.868307 
L 508.637959 -193.551143 
L 507.509451 -191.23398 
L 506.040681 -188.916816 
L 504.455451 -186.599652 
L 502.959888 -184.282489 
L 501.718002 -181.965325 
L 500.843948 -179.648161 
L 500.403952 -177.330998 
L 500.420804 -175.013834 
L 500.87862 -172.69667 
L 501.729498 -170.379507 
L 502.902999 -168.062343 
L 504.314948 -165.74518 
L 505.868968 -163.428016 
L 507.447537 -161.110852 
L 508.898652 -158.793689 
L 510.03256 -156.476525 
L 510.641756 -154.159361 
L 510.544708 -151.842198 
L 509.637264 -149.525034 
L 507.927829 -147.20787 
L 505.539619 -144.890707 
L 502.680796 -142.573543 
L 499.598444 -140.25638 
L 496.535297 -137.939216 
L 493.69963 -135.622052 
L 491.247732 -133.304889 
L 489.273868 -130.987725 
L 487.805438 -128.670561 
L 486.805692 -126.353398 
L 486.186967 -124.036234 
L 485.833353 -121.71907 
L 485.626884 -119.401907 
L 485.469605 -117.084743 
L 485.296271 -114.76758 
L 485.07662 -112.450416 
L 484.809671 -110.133252 
L 484.513768 -107.816089 
L 484.215738 -105.498925 
z
" id="m1406bdb126" style="stroke:#353535;stroke-width:2;"/>
    </defs>
    <g clip-path="url(#p0cd8067e6f)">
     <use style="fill:#80c161;stroke:#353535;stroke-width:2;" x="0" xlink:href="#m1406bdb126" y="393.36605"/>
    </g>
   </g>
   <g id="PolyCollection_6">
    <defs>
     <path d="M 580.758849 -103.807725 
L 576.963422 -103.807725 
L 576.464025 -105.390327 
L 575.889222 -106.972929 
L 575.224109 -108.555531 
L 574.444967 -110.138133 
L 573.519709 -111.720735 
L 572.410927 -113.303337 
L 571.081721 -114.885939 
L 569.503683 -116.468541 
L 567.665453 -118.051143 
L 565.579645 -119.633745 
L 563.286088 -121.216347 
L 560.850419 -122.798949 
L 558.358625 -124.381551 
L 555.909381 -125.964153 
L 553.606177 -127.546755 
L 551.550308 -129.129357 
L 549.834464 -130.711959 
L 548.536041 -132.294561 
L 547.70978 -133.877163 
L 547.380765 -135.459765 
L 547.539817 -137.042367 
L 548.143129 -138.624969 
L 549.116585 -140.207571 
L 550.363461 -141.790173 
L 551.773416 -143.372776 
L 553.231192 -144.955378 
L 554.624607 -146.53798 
L 555.852189 -148.120582 
L 556.830598 -149.703184 
L 557.501015 -151.285786 
L 557.832955 -152.868388 
L 557.824285 -154.45099 
L 557.497475 -156.033592 
L 556.893608 -157.616194 
L 556.066408 -159.198796 
L 555.078045 -160.781398 
L 553.997026 -162.364 
L 552.897081 -163.946602 
L 551.855355 -165.529204 
L 550.948825 -167.111806 
L 550.249089 -168.694408 
L 549.816799 -170.27701 
L 549.697283 -171.859612 
L 549.918334 -173.442214 
L 550.490132 -175.024816 
L 551.406444 -176.607418 
L 552.646049 -178.19002 
L 554.173756 -179.772622 
L 555.941101 -181.355224 
L 557.887456 -182.937826 
L 559.94242 -184.520428 
L 562.030031 -186.10303 
L 564.074645 -187.685632 
L 566.007617 -189.268234 
L 567.773508 -190.850836 
L 569.334589 -192.433438 
L 570.672813 -194.01604 
L 571.789085 -195.598642 
L 572.70021 -197.181244 
L 573.434332 -198.763846 
L 574.025806 -200.346448 
L 574.510341 -201.92905 
L 574.920965 -203.511652 
L 575.28511 -205.094254 
L 575.622874 -206.676856 
L 575.946433 -208.259458 
L 576.260515 -209.84206 
L 576.563806 -211.424662 
L 576.851051 -213.007264 
L 577.115491 -214.589866 
L 577.351201 -216.172468 
L 577.554868 -217.75507 
L 577.726664 -219.337672 
L 577.870032 -220.920274 
L 577.990541 -222.502877 
L 578.094211 -224.085479 
L 578.185917 -225.668081 
L 578.268419 -227.250683 
L 578.342261 -228.833285 
L 578.406432 -230.415887 
L 578.459348 -231.998489 
L 578.499708 -233.581091 
L 578.526959 -235.163693 
L 578.541407 -236.746295 
L 578.544235 -238.328897 
L 578.537586 -239.911499 
L 578.524701 -241.494101 
L 578.509859 -243.076703 
L 578.497846 -244.659305 
L 578.49295 -246.241907 
L 578.497793 -247.824509 
L 578.512526 -249.407111 
L 578.53485 -250.989713 
L 578.560933 -252.572315 
L 578.586876 -254.154917 
L 578.610095 -255.737519 
L 578.630036 -257.320121 
L 578.647976 -258.902723 
L 578.666105 -260.485325 
L 579.056167 -260.485325 
L 579.056167 -260.485325 
L 579.074295 -258.902723 
L 579.092235 -257.320121 
L 579.112176 -255.737519 
L 579.135396 -254.154917 
L 579.161339 -252.572315 
L 579.187421 -250.989713 
L 579.209745 -249.407111 
L 579.224479 -247.824509 
L 579.229322 -246.241907 
L 579.224426 -244.659305 
L 579.212412 -243.076703 
L 579.19757 -241.494101 
L 579.184686 -239.911499 
L 579.178036 -238.328897 
L 579.180864 -236.746295 
L 579.195313 -235.163693 
L 579.222563 -233.581091 
L 579.262924 -231.998489 
L 579.31584 -230.415887 
L 579.38001 -228.833285 
L 579.453853 -227.250683 
L 579.536354 -225.668081 
L 579.628061 -224.085479 
L 579.73173 -222.502877 
L 579.852239 -220.920274 
L 579.995608 -219.337672 
L 580.167404 -217.75507 
L 580.371071 -216.172468 
L 580.60678 -214.589866 
L 580.871221 -213.007264 
L 581.158466 -211.424662 
L 581.461757 -209.84206 
L 581.775838 -208.259458 
L 582.099397 -206.676856 
L 582.437162 -205.094254 
L 582.801307 -203.511652 
L 583.211931 -201.92905 
L 583.696466 -200.346448 
L 584.28794 -198.763846 
L 585.022061 -197.181244 
L 585.933186 -195.598642 
L 587.049459 -194.01604 
L 588.387683 -192.433438 
L 589.948763 -190.850836 
L 591.714655 -189.268234 
L 593.647626 -187.685632 
L 595.692241 -186.10303 
L 597.779851 -184.520428 
L 599.834815 -182.937826 
L 601.781171 -181.355224 
L 603.548516 -179.772622 
L 605.076222 -178.19002 
L 606.315828 -176.607418 
L 607.23214 -175.024816 
L 607.803938 -173.442214 
L 608.024989 -171.859612 
L 607.905472 -170.27701 
L 607.473183 -168.694408 
L 606.773447 -167.111806 
L 605.866916 -165.529204 
L 604.82519 -163.946602 
L 603.725245 -162.364 
L 602.644226 -160.781398 
L 601.655863 -159.198796 
L 600.828663 -157.616194 
L 600.224796 -156.033592 
L 599.897987 -154.45099 
L 599.889317 -152.868388 
L 600.221256 -151.285786 
L 600.891673 -149.703184 
L 601.870083 -148.120582 
L 603.097664 -146.53798 
L 604.491079 -144.955378 
L 605.948856 -143.372776 
L 607.35881 -141.790173 
L 608.605686 -140.207571 
L 609.579143 -138.624969 
L 610.182455 -137.042367 
L 610.341506 -135.459765 
L 610.012492 -133.877163 
L 609.18623 -132.294561 
L 607.887807 -130.711959 
L 606.171964 -129.129357 
L 604.116094 -127.546755 
L 601.812891 -125.964153 
L 599.363647 -124.381551 
L 596.871852 -122.798949 
L 594.436183 -121.216347 
L 592.142627 -119.633745 
L 590.056819 -118.051143 
L 588.218589 -116.468541 
L 586.64055 -114.885939 
L 585.311344 -113.303337 
L 584.202562 -111.720735 
L 583.277305 -110.138133 
L 582.498163 -108.555531 
L 581.833049 -106.972929 
L 581.258246 -105.390327 
L 580.758849 -103.807725 
z
" id="m96bfea42ea" style="stroke:#353535;stroke-width:2;"/>
    </defs>
    <g clip-path="url(#p0cd8067e6f)">
     <use style="fill:#aec83d;stroke:#353535;stroke-width:2;" x="0" xlink:href="#m96bfea42ea" y="393.36605"/>
    </g>
   </g>
   <g id="PolyCollection_7">
    <defs>
     <path d="M 677.063111 -94.022925 
L 671.973446 -94.022925 
L 671.195106 -95.428598 
L 670.306775 -96.83427 
L 669.304263 -98.239943 
L 668.167633 -99.645616 
L 666.857407 -101.051289 
L 665.317386 -102.456961 
L 663.48507 -103.862634 
L 661.308111 -105.268307 
L 658.762931 -106.67398 
L 655.87057 -108.079652 
L 652.705357 -109.485325 
L 649.393871 -110.890998 
L 646.10419 -112.29667 
L 643.027644 -113.702343 
L 640.356557 -115.108016 
L 638.261529 -116.513689 
L 636.871063 -117.919361 
L 636.255421 -119.325034 
L 636.416055 -120.730707 
L 637.281862 -122.13638 
L 638.713589 -123.542052 
L 640.517456 -124.947725 
L 642.46812 -126.353398 
L 644.339017 -127.75907 
L 645.935119 -129.164743 
L 647.120344 -130.570416 
L 647.831397 -131.976089 
L 648.073234 -133.381761 
L 647.898384 -134.787434 
L 647.37952 -136.193107 
L 646.587492 -137.59878 
L 645.583228 -139.004452 
L 644.423496 -140.410125 
L 643.172937 -141.815798 
L 641.912632 -143.22147 
L 640.739419 -144.627143 
L 639.756688 -146.032816 
L 639.061883 -147.438489 
L 638.736329 -148.844161 
L 638.840172 -150.249834 
L 639.411755 -151.655507 
L 640.468712 -153.06118 
L 642.007892 -154.466852 
L 644.002672 -155.872525 
L 646.398364 -157.278198 
L 649.108557 -158.68387 
L 652.016114 -160.089543 
L 654.98161 -161.495216 
L 657.859156 -162.900889 
L 660.51625 -164.306561 
L 662.852133 -165.712234 
L 664.809504 -167.117907 
L 666.376968 -168.52358 
L 667.582877 -169.929252 
L 668.483572 -171.334925 
L 669.149656 -172.740598 
L 669.653192 -174.14627 
L 670.057596 -175.551943 
L 670.411138 -176.957616 
L 670.744442 -178.363289 
L 671.071802 -179.768961 
L 671.395387 -181.174634 
L 671.710701 -182.580307 
L 672.011459 -183.98598 
L 672.292623 -185.391652 
L 672.551354 -186.797325 
L 672.786606 -188.202998 
L 672.998423 -189.60867 
L 673.187644 -191.014343 
L 673.356088 -192.420016 
L 673.506752 -193.825689 
L 673.643536 -195.231361 
L 673.77036 -196.637034 
L 673.889978 -198.042707 
L 674.00302 -199.44838 
L 674.107699 -200.854052 
L 674.200283 -202.259725 
L 674.276108 -203.665398 
L 674.330752 -205.07107 
L 674.361068 -206.476743 
L 674.365989 -207.882416 
L 674.347126 -209.288089 
L 674.309147 -210.693761 
L 674.259742 -212.099434 
L 674.208883 -213.505107 
L 674.167182 -214.91078 
L 674.143594 -216.316452 
L 674.143129 -217.722125 
L 674.165439 -219.127798 
L 674.204925 -220.53347 
L 674.252384 -221.939143 
L 674.297638 -223.344816 
L 674.332254 -224.750489 
L 674.351539 -226.156161 
L 674.35534 -227.561834 
L 674.34761 -228.967507 
L 674.334951 -230.37318 
L 674.324603 -231.778852 
L 674.322414 -233.184525 
L 674.714143 -233.184525 
L 674.714143 -233.184525 
L 674.711954 -231.778852 
L 674.701606 -230.37318 
L 674.688947 -228.967507 
L 674.681217 -227.561834 
L 674.685018 -226.156161 
L 674.704303 -224.750489 
L 674.73892 -223.344816 
L 674.784173 -221.939143 
L 674.831632 -220.53347 
L 674.871118 -219.127798 
L 674.893428 -217.722125 
L 674.892963 -216.316452 
L 674.869375 -214.91078 
L 674.827674 -213.505107 
L 674.776815 -212.099434 
L 674.727411 -210.693761 
L 674.689431 -209.288089 
L 674.670568 -207.882416 
L 674.675489 -206.476743 
L 674.705805 -205.07107 
L 674.760449 -203.665398 
L 674.836275 -202.259725 
L 674.928858 -200.854052 
L 675.033537 -199.44838 
L 675.146579 -198.042707 
L 675.266197 -196.637034 
L 675.393021 -195.231361 
L 675.529805 -193.825689 
L 675.680469 -192.420016 
L 675.848913 -191.014343 
L 676.038134 -189.60867 
L 676.249951 -188.202998 
L 676.485203 -186.797325 
L 676.743934 -185.391652 
L 677.025098 -183.98598 
L 677.325856 -182.580307 
L 677.64117 -181.174634 
L 677.964755 -179.768961 
L 678.292115 -178.363289 
L 678.625419 -176.957616 
L 678.978961 -175.551943 
L 679.383365 -174.14627 
L 679.886901 -172.740598 
L 680.552985 -171.334925 
L 681.45368 -169.929252 
L 682.659589 -168.52358 
L 684.227053 -167.117907 
L 686.184424 -165.712234 
L 688.520307 -164.306561 
L 691.177401 -162.900889 
L 694.054947 -161.495216 
L 697.020443 -160.089543 
L 699.928 -158.68387 
L 702.638193 -157.278198 
L 705.033885 -155.872525 
L 707.028665 -154.466852 
L 708.567846 -153.06118 
L 709.624802 -151.655507 
L 710.196385 -150.249834 
L 710.300228 -148.844161 
L 709.974674 -147.438489 
L 709.279869 -146.032816 
L 708.297138 -144.627143 
L 707.123925 -143.22147 
L 705.86362 -141.815798 
L 704.613061 -140.410125 
L 703.453329 -139.004452 
L 702.449065 -137.59878 
L 701.657037 -136.193107 
L 701.138173 -134.787434 
L 700.963323 -133.381761 
L 701.20516 -131.976089 
L 701.916213 -130.570416 
L 703.101439 -129.164743 
L 704.69754 -127.75907 
L 706.568438 -126.353398 
L 708.519101 -124.947725 
L 710.322968 -123.542052 
L 711.754695 -122.13638 
L 712.620503 -120.730707 
L 712.781136 -119.325034 
L 712.165494 -117.919361 
L 710.775028 -116.513689 
L 708.68 -115.108016 
L 706.008913 -113.702343 
L 702.932367 -112.29667 
L 699.642686 -110.890998 
L 696.3312 -109.485325 
L 693.165987 -108.079652 
L 690.273626 -106.67398 
L 687.728446 -105.268307 
L 685.551487 -103.862634 
L 683.719171 -102.456961 
L 682.17915 -101.051289 
L 680.868924 -99.645616 
L 679.732294 -98.239943 
L 678.729782 -96.83427 
L 677.841451 -95.428598 
L 677.063111 -94.022925 
z
" id="mc1ead53417" style="stroke:#353535;stroke-width:2;"/>
    </defs>
    <g clip-path="url(#p0cd8067e6f)">
     <use style="fill:#e2d240;stroke:#353535;stroke-width:2;" x="0" xlink:href="#mc1ead53417" y="393.36605"/>
    </g>
   </g>
   <g id="line2d_14">
    <path clip-path="url(#p0cd8067e6f)" d="M 68.520577 259.358325 
L 132.630266 259.358325 
" style="fill:none;stroke:#353535;stroke-dasharray:6,6;stroke-dashoffset:0;stroke-width:2;"/>
   </g>
   <g id="line2d_15">
    <path clip-path="url(#p0cd8067e6f)" d="M 77.623543 242.808725 
L 123.5273 242.808725 
" style="fill:none;stroke:#353535;stroke-dasharray:12,12;stroke-dashoffset:0;stroke-width:2;"/>
   </g>
   <g id="line2d_16">
    <path clip-path="url(#p0cd8067e6f)" d="M 72.573197 223.480725 
L 128.577646 223.480725 
" style="fill:none;stroke:#353535;stroke-dasharray:6,6;stroke-dashoffset:0;stroke-width:2;"/>
   </g>
   <g id="line2d_17">
    <path clip-path="url(#p0cd8067e6f)" d="M 164.575601 255.432325 
L 227.889528 255.432325 
" style="fill:none;stroke:#353535;stroke-dasharray:6,6;stroke-dashoffset:0;stroke-width:2;"/>
   </g>
   <g id="line2d_18">
    <path clip-path="url(#p0cd8067e6f)" d="M 171.061857 236.285525 
L 221.403271 236.285525 
" style="fill:none;stroke:#353535;stroke-dasharray:12,12;stroke-dashoffset:0;stroke-width:2;"/>
   </g>
   <g id="line2d_19">
    <path clip-path="url(#p0cd8067e6f)" d="M 168.062009 219.494325 
L 224.403119 219.494325 
" style="fill:none;stroke:#353535;stroke-dasharray:6,6;stroke-dashoffset:0;stroke-width:2;"/>
   </g>
   <g id="line2d_20">
    <path clip-path="url(#p0cd8067e6f)" d="M 258.612476 253.137125 
L 325.166938 253.137125 
" style="fill:none;stroke:#353535;stroke-dasharray:6,6;stroke-dashoffset:0;stroke-width:2;"/>
   </g>
   <g id="line2d_21">
    <path clip-path="url(#p0cd8067e6f)" d="M 267.484832 237.372725 
L 316.294582 237.372725 
" style="fill:none;stroke:#353535;stroke-dasharray:12,12;stroke-dashoffset:0;stroke-width:2;"/>
   </g>
   <g id="line2d_22">
    <path clip-path="url(#p0cd8067e6f)" d="M 262.476821 218.890325 
L 321.302593 218.890325 
" style="fill:none;stroke:#353535;stroke-dasharray:6,6;stroke-dashoffset:0;stroke-width:2;"/>
   </g>
   <g id="line2d_23">
    <path clip-path="url(#p0cd8067e6f)" d="M 355.189181 251.747925 
L 419.904519 251.747925 
" style="fill:none;stroke:#353535;stroke-dasharray:6,6;stroke-dashoffset:0;stroke-width:2;"/>
   </g>
   <g id="line2d_24">
    <path clip-path="url(#p0cd8067e6f)" d="M 361.436848 236.406325 
L 413.656852 236.406325 
" style="fill:none;stroke:#353535;stroke-dasharray:12,12;stroke-dashoffset:0;stroke-width:2;"/>
   </g>
   <g id="line2d_25">
    <path clip-path="url(#p0cd8067e6f)" d="M 356.559696 218.225925 
L 418.534004 218.225925 
" style="fill:none;stroke:#353535;stroke-dasharray:6,6;stroke-dashoffset:0;stroke-width:2;"/>
   </g>
   <g id="line2d_26">
    <path clip-path="url(#p0cd8067e6f)" d="M 456.040607 239.788725 
L 510.367379 239.788725 
" style="fill:none;stroke:#353535;stroke-dasharray:6,6;stroke-dashoffset:0;stroke-width:2;"/>
   </g>
   <g id="line2d_27">
    <path clip-path="url(#p0cd8067e6f)" d="M 466.176033 216.715925 
L 500.231952 216.715925 
" style="fill:none;stroke:#353535;stroke-dasharray:12,12;stroke-dashoffset:0;stroke-width:2;"/>
   </g>
   <g id="line2d_28">
    <path clip-path="url(#p0cd8067e6f)" d="M 457.5265 194.609525 
L 508.881485 194.609525 
" style="fill:none;stroke:#353535;stroke-dasharray:6,6;stroke-dashoffset:0;stroke-width:2;"/>
   </g>
   <g id="line2d_29">
    <path clip-path="url(#p0cd8067e6f)" d="M 547.695569 257.908725 
L 610.026702 257.908725 
" style="fill:none;stroke:#353535;stroke-dasharray:6,6;stroke-dashoffset:0;stroke-width:2;"/>
   </g>
   <g id="line2d_30">
    <path clip-path="url(#p0cd8067e6f)" d="M 557.711112 237.795525 
L 600.011159 237.795525 
" style="fill:none;stroke:#353535;stroke-dasharray:12,12;stroke-dashoffset:0;stroke-width:2;"/>
   </g>
   <g id="line2d_31">
    <path clip-path="url(#p0cd8067e6f)" d="M 550.207762 219.675525 
L 607.51451 219.675525 
" style="fill:none;stroke:#353535;stroke-dasharray:6,6;stroke-dashoffset:0;stroke-width:2;"/>
   </g>
   <g id="line2d_32">
    <path clip-path="url(#p0cd8067e6f)" d="M 636.63805 273.491925 
L 712.398507 273.491925 
" style="fill:none;stroke:#353535;stroke-dasharray:6,6;stroke-dashoffset:0;stroke-width:2;"/>
   </g>
   <g id="line2d_33">
    <path clip-path="url(#p0cd8067e6f)" d="M 647.650908 257.365125 
L 701.38565 257.365125 
" style="fill:none;stroke:#353535;stroke-dasharray:12,12;stroke-dashoffset:0;stroke-width:2;"/>
   </g>
   <g id="line2d_34">
    <path clip-path="url(#p0cd8067e6f)" d="M 639.196953 242.446325 
L 709.839604 242.446325 
" style="fill:none;stroke:#353535;stroke-dasharray:6,6;stroke-dashoffset:0;stroke-width:2;"/>
   </g>
   <g id="patch_3">
    <path d="M 52.74685 369.527925 
L 52.74685 43.367925 
" style="fill:none;stroke:#262626;stroke-linecap:square;stroke-linejoin:miter;stroke-width:1.25;"/>
   </g>
   <g id="patch_4">
    <path d="M 722.34685 369.527925 
L 722.34685 43.367925 
" style="fill:none;stroke:#262626;stroke-linecap:square;stroke-linejoin:miter;stroke-width:1.25;"/>
   </g>
   <g id="patch_5">
    <path d="M 52.74685 369.527925 
L 722.34685 369.527925 
" style="fill:none;stroke:#262626;stroke-linecap:square;stroke-linejoin:miter;stroke-width:1.25;"/>
   </g>
   <g id="patch_6">
    <path d="M 52.74685 43.367925 
L 722.34685 43.367925 
" style="fill:none;stroke:#262626;stroke-linecap:square;stroke-linejoin:miter;stroke-width:1.25;"/>
   </g>
   <g id="text_15">
    <!-- Accidents by Day of the Week -->
    <defs>
     <path id="ArialMT-32"/>
     <path d="M 14.703125 0 
L 6.546875 0 
L 6.546875 71.578125 
L 15.328125 71.578125 
L 15.328125 46.046875 
Q 20.90625 53.03125 29.546875 53.03125 
Q 34.328125 53.03125 38.59375 51.09375 
Q 42.875 49.171875 45.625 45.671875 
Q 48.390625 42.1875 49.953125 37.25 
Q 51.515625 32.328125 51.515625 26.703125 
Q 51.515625 13.375 44.921875 6.09375 
Q 38.328125 -1.171875 29.109375 -1.171875 
Q 19.921875 -1.171875 14.703125 6.5 
z
M 14.59375 26.3125 
Q 14.59375 17 17.140625 12.84375 
Q 21.296875 6.0625 28.375 6.0625 
Q 34.125 6.0625 38.328125 11.0625 
Q 42.53125 16.0625 42.53125 25.984375 
Q 42.53125 36.140625 38.5 40.96875 
Q 34.46875 45.796875 28.765625 45.796875 
Q 23 45.796875 18.796875 40.796875 
Q 14.59375 35.796875 14.59375 26.3125 
z
" id="ArialMT-98"/>
     <path d="M 7.71875 0 
L 7.71875 71.578125 
L 32.375 71.578125 
Q 40.71875 71.578125 45.125 70.5625 
Q 51.265625 69.140625 55.609375 65.4375 
Q 61.28125 60.640625 64.078125 53.1875 
Q 66.890625 45.75 66.890625 36.1875 
Q 66.890625 28.03125 64.984375 21.734375 
Q 63.09375 15.4375 60.109375 11.296875 
Q 57.125 7.171875 53.578125 4.796875 
Q 50.046875 2.4375 45.046875 1.21875 
Q 40.046875 0 33.546875 0 
z
M 17.1875 8.453125 
L 32.46875 8.453125 
Q 39.546875 8.453125 43.578125 9.765625 
Q 47.609375 11.078125 50 13.484375 
Q 53.375 16.84375 55.25 22.53125 
Q 57.125 28.21875 57.125 36.328125 
Q 57.125 47.5625 53.4375 53.59375 
Q 49.75 59.625 44.484375 61.671875 
Q 40.671875 63.140625 32.234375 63.140625 
L 17.1875 63.140625 
z
" id="ArialMT-68"/>
     <path d="M 8.6875 0 
L 8.6875 45.015625 
L 0.921875 45.015625 
L 0.921875 51.859375 
L 8.6875 51.859375 
L 8.6875 57.375 
Q 8.6875 62.59375 9.625 65.140625 
Q 10.890625 68.5625 14.078125 70.671875 
Q 17.28125 72.796875 23.046875 72.796875 
Q 26.765625 72.796875 31.25 71.921875 
L 29.9375 64.265625 
Q 27.203125 64.75 24.75 64.75 
Q 20.75 64.75 19.09375 63.03125 
Q 17.4375 61.328125 17.4375 56.640625 
L 17.4375 51.859375 
L 27.546875 51.859375 
L 27.546875 45.015625 
L 17.4375 45.015625 
L 17.4375 0 
z
" id="ArialMT-102"/>
     <path d="M 6.640625 0 
L 6.640625 71.578125 
L 15.4375 71.578125 
L 15.4375 30.765625 
L 36.234375 51.859375 
L 47.609375 51.859375 
L 27.78125 32.625 
L 49.609375 0 
L 38.765625 0 
L 21.625 26.515625 
L 15.4375 20.5625 
L 15.4375 0 
z
" id="ArialMT-107"/>
    </defs>
    <g style="fill:#262626;" transform="translate(200.806537 27.583125)scale(0.28 -0.28)">
     <use xlink:href="#ArialMT-65"/>
     <use x="66.699219" xlink:href="#ArialMT-99"/>
     <use x="116.699219" xlink:href="#ArialMT-99"/>
     <use x="166.699219" xlink:href="#ArialMT-105"/>
     <use x="188.916016" xlink:href="#ArialMT-100"/>
     <use x="244.53125" xlink:href="#ArialMT-101"/>
     <use x="300.146484" xlink:href="#ArialMT-110"/>
     <use x="355.761719" xlink:href="#ArialMT-116"/>
     <use x="383.544922" xlink:href="#ArialMT-115"/>
     <use x="433.544922" xlink:href="#ArialMT-32"/>
     <use x="461.328125" xlink:href="#ArialMT-98"/>
     <use x="516.943359" xlink:href="#ArialMT-121"/>
     <use x="566.943359" xlink:href="#ArialMT-32"/>
     <use x="594.726562" xlink:href="#ArialMT-68"/>
     <use x="666.943359" xlink:href="#ArialMT-97"/>
     <use x="722.558594" xlink:href="#ArialMT-121"/>
     <use x="772.558594" xlink:href="#ArialMT-32"/>
     <use x="800.341797" xlink:href="#ArialMT-111"/>
     <use x="855.957031" xlink:href="#ArialMT-102"/>
     <use x="883.740234" xlink:href="#ArialMT-32"/>
     <use x="911.523438" xlink:href="#ArialMT-116"/>
     <use x="939.306641" xlink:href="#ArialMT-104"/>
     <use x="994.921875" xlink:href="#ArialMT-101"/>
     <use x="1050.537109" xlink:href="#ArialMT-32"/>
     <use x="1078.320312" xlink:href="#ArialMT-87"/>
     <use x="1172.689453" xlink:href="#ArialMT-101"/>
     <use x="1228.304688" xlink:href="#ArialMT-101"/>
     <use x="1283.919922" xlink:href="#ArialMT-107"/>
    </g>
   </g>
  </g>
 </g>
 <defs>
  <clipPath id="p0cd8067e6f">
   <rect height="326.16" width="669.6" x="52.74685" y="43.367925"/>
  </clipPath>
 </defs>
</svg>
