<?xml version="1.0" encoding="utf-8" standalone="no"?>
<!DOCTYPE svg PUBLIC "-//W3C//DTD SVG 1.1//EN"
  "http://www.w3.org/Graphics/SVG/1.1/DTD/svg11.dtd">
<!-- Created with matplotlib (https://matplotlib.org/) -->
<svg height="390.321831pt" version="1.1" viewBox="0 0 729.54685 390.321831" width="729.54685pt" xmlns="http://www.w3.org/2000/svg" xmlns:xlink="http://www.w3.org/1999/xlink">
 <defs>
  <style type="text/css">
*{stroke-linecap:butt;stroke-linejoin:round;}
  </style>
 </defs>
 <g id="figure_1">
  <g id="patch_1">
   <path d="M 0 390.321831 
L 729.54685 390.321831 
L 729.54685 0 
L 0 0 
z
" style="fill:#ffffff;"/>
  </g>
  <g id="axes_1">
   <g id="patch_2">
    <path d="M 52.74685 369.527925 
L 722.34685 369.527925 
L 722.34685 43.367925 
L 52.74685 43.367925 
z
" style="fill:#ffffff;"/>
   </g>
   <g id="matplotlib.axis_1">
    <g id="xtick_1">
     <g id="line2d_1">
      <path clip-path="url(#pfa343a025e)" d="M 56.376118 369.527925 
L 56.376118 43.367925 
" style="fill:none;stroke:#cccccc;stroke-linecap:round;stroke-width:0.8;"/>
     </g>
     <g id="line2d_2"/>
    </g>
    <g id="xtick_2">
     <g id="line2d_3">
      <path clip-path="url(#pfa343a025e)" d="M 112.629777 369.527925 
L 112.629777 43.367925 
" style="fill:none;stroke:#cccccc;stroke-linecap:round;stroke-width:0.8;"/>
     </g>
     <g id="line2d_4"/>
    </g>
    <g id="xtick_3">
     <g id="line2d_5">
      <path clip-path="url(#pfa343a025e)" d="M 165.254167 369.527925 
L 165.254167 43.367925 
" style="fill:none;stroke:#cccccc;stroke-linecap:round;stroke-width:0.8;"/>
     </g>
     <g id="line2d_6"/>
    </g>
    <g id="xtick_4">
     <g id="line2d_7">
      <path clip-path="url(#pfa343a025e)" d="M 221.507826 369.527925 
L 221.507826 43.367925 
" style="fill:none;stroke:#cccccc;stroke-linecap:round;stroke-width:0.8;"/>
     </g>
     <g id="line2d_8"/>
    </g>
    <g id="xtick_5">
     <g id="line2d_9">
      <path clip-path="url(#pfa343a025e)" d="M 275.94685 369.527925 
L 275.94685 43.367925 
" style="fill:none;stroke:#cccccc;stroke-linecap:round;stroke-width:0.8;"/>
     </g>
     <g id="line2d_10"/>
    </g>
    <g id="xtick_6">
     <g id="line2d_11">
      <path clip-path="url(#pfa343a025e)" d="M 332.200509 369.527925 
L 332.200509 43.367925 
" style="fill:none;stroke:#cccccc;stroke-linecap:round;stroke-width:0.8;"/>
     </g>
     <g id="line2d_12"/>
    </g>
    <g id="xtick_7">
     <g id="line2d_13">
      <path clip-path="url(#pfa343a025e)" d="M 386.639533 369.527925 
L 386.639533 43.367925 
" style="fill:none;stroke:#cccccc;stroke-linecap:round;stroke-width:0.8;"/>
     </g>
     <g id="line2d_14"/>
    </g>
    <g id="xtick_8">
     <g id="line2d_15">
      <path clip-path="url(#pfa343a025e)" d="M 442.893191 369.527925 
L 442.893191 43.367925 
" style="fill:none;stroke:#cccccc;stroke-linecap:round;stroke-width:0.8;"/>
     </g>
     <g id="line2d_16"/>
    </g>
    <g id="xtick_9">
     <g id="line2d_17">
      <path clip-path="url(#pfa343a025e)" d="M 499.14685 369.527925 
L 499.14685 43.367925 
" style="fill:none;stroke:#cccccc;stroke-linecap:round;stroke-width:0.8;"/>
     </g>
     <g id="line2d_18"/>
    </g>
    <g id="xtick_10">
     <g id="line2d_19">
      <path clip-path="url(#pfa343a025e)" d="M 553.585874 369.527925 
L 553.585874 43.367925 
" style="fill:none;stroke:#cccccc;stroke-linecap:round;stroke-width:0.8;"/>
     </g>
     <g id="line2d_20"/>
    </g>
    <g id="xtick_11">
     <g id="line2d_21">
      <path clip-path="url(#pfa343a025e)" d="M 609.839533 369.527925 
L 609.839533 43.367925 
" style="fill:none;stroke:#cccccc;stroke-linecap:round;stroke-width:0.8;"/>
     </g>
     <g id="line2d_22"/>
    </g>
    <g id="xtick_12">
     <g id="line2d_23">
      <path clip-path="url(#pfa343a025e)" d="M 664.278557 369.527925 
L 664.278557 43.367925 
" style="fill:none;stroke:#cccccc;stroke-linecap:round;stroke-width:0.8;"/>
     </g>
     <g id="line2d_24"/>
    </g>
    <g id="xtick_13">
     <g id="line2d_25"/>
     <g id="text_1">
      <!-- January -->
      <defs>
       <path d="M 2.875 20.3125 
L 11.421875 21.484375 
Q 11.765625 13.28125 14.5 10.25 
Q 17.234375 7.234375 22.078125 7.234375 
Q 25.640625 7.234375 28.21875 8.859375 
Q 30.8125 10.5 31.78125 13.296875 
Q 32.765625 16.109375 32.765625 22.265625 
L 32.765625 71.578125 
L 42.234375 71.578125 
L 42.234375 22.796875 
Q 42.234375 13.8125 40.0625 8.875 
Q 37.890625 3.953125 33.171875 1.359375 
Q 28.46875 -1.21875 22.125 -1.21875 
Q 12.703125 -1.21875 7.6875 4.203125 
Q 2.6875 9.625 2.875 20.3125 
z
" id="ArialMT-74"/>
       <path d="M 40.4375 6.390625 
Q 35.546875 2.25 31.03125 0.53125 
Q 26.515625 -1.171875 21.34375 -1.171875 
Q 12.796875 -1.171875 8.203125 3 
Q 3.609375 7.171875 3.609375 13.671875 
Q 3.609375 17.484375 5.34375 20.625 
Q 7.078125 23.78125 9.890625 25.6875 
Q 12.703125 27.59375 16.21875 28.5625 
Q 18.796875 29.25 24.03125 29.890625 
Q 34.671875 31.15625 39.703125 32.90625 
Q 39.75 34.71875 39.75 35.203125 
Q 39.75 40.578125 37.25 42.78125 
Q 33.890625 45.75 27.25 45.75 
Q 21.046875 45.75 18.09375 43.578125 
Q 15.140625 41.40625 13.71875 35.890625 
L 5.125 37.0625 
Q 6.296875 42.578125 8.984375 45.96875 
Q 11.671875 49.359375 16.75 51.1875 
Q 21.828125 53.03125 28.515625 53.03125 
Q 35.15625 53.03125 39.296875 51.46875 
Q 43.453125 49.90625 45.40625 47.53125 
Q 47.359375 45.171875 48.140625 41.546875 
Q 48.578125 39.3125 48.578125 33.453125 
L 48.578125 21.734375 
Q 48.578125 9.46875 49.140625 6.21875 
Q 49.703125 2.984375 51.375 0 
L 42.1875 0 
Q 40.828125 2.734375 40.4375 6.390625 
z
M 39.703125 26.03125 
Q 34.90625 24.078125 25.34375 22.703125 
Q 19.921875 21.921875 17.671875 20.9375 
Q 15.4375 19.96875 14.203125 18.09375 
Q 12.984375 16.21875 12.984375 13.921875 
Q 12.984375 10.40625 15.640625 8.0625 
Q 18.3125 5.71875 23.4375 5.71875 
Q 28.515625 5.71875 32.46875 7.9375 
Q 36.421875 10.15625 38.28125 14.015625 
Q 39.703125 17 39.703125 22.796875 
z
" id="ArialMT-97"/>
       <path d="M 6.59375 0 
L 6.59375 51.859375 
L 14.5 51.859375 
L 14.5 44.484375 
Q 20.21875 53.03125 31 53.03125 
Q 35.6875 53.03125 39.625 51.34375 
Q 43.5625 49.65625 45.515625 46.921875 
Q 47.46875 44.1875 48.25 40.4375 
Q 48.734375 37.984375 48.734375 31.890625 
L 48.734375 0 
L 39.9375 0 
L 39.9375 31.546875 
Q 39.9375 36.921875 38.90625 39.578125 
Q 37.890625 42.234375 35.28125 43.8125 
Q 32.671875 45.40625 29.15625 45.40625 
Q 23.53125 45.40625 19.453125 41.84375 
Q 15.375 38.28125 15.375 28.328125 
L 15.375 0 
z
" id="ArialMT-110"/>
       <path d="M 40.578125 0 
L 40.578125 7.625 
Q 34.515625 -1.171875 24.125 -1.171875 
Q 19.53125 -1.171875 15.546875 0.578125 
Q 11.578125 2.34375 9.640625 5 
Q 7.71875 7.671875 6.9375 11.53125 
Q 6.390625 14.109375 6.390625 19.734375 
L 6.390625 51.859375 
L 15.1875 51.859375 
L 15.1875 23.09375 
Q 15.1875 16.21875 15.71875 13.8125 
Q 16.546875 10.359375 19.234375 8.375 
Q 21.921875 6.390625 25.875 6.390625 
Q 29.828125 6.390625 33.296875 8.421875 
Q 36.765625 10.453125 38.203125 13.9375 
Q 39.65625 17.4375 39.65625 24.078125 
L 39.65625 51.859375 
L 48.4375 51.859375 
L 48.4375 0 
z
" id="ArialMT-117"/>
       <path d="M 6.5 0 
L 6.5 51.859375 
L 14.40625 51.859375 
L 14.40625 44 
Q 17.4375 49.515625 20 51.265625 
Q 22.5625 53.03125 25.640625 53.03125 
Q 30.078125 53.03125 34.671875 50.203125 
L 31.640625 42.046875 
Q 28.421875 43.953125 25.203125 43.953125 
Q 22.3125 43.953125 20.015625 42.21875 
Q 17.71875 40.484375 16.75 37.40625 
Q 15.28125 32.71875 15.28125 27.15625 
L 15.28125 0 
z
" id="ArialMT-114"/>
       <path d="M 6.203125 -19.96875 
L 5.21875 -11.71875 
Q 8.109375 -12.5 10.25 -12.5 
Q 13.1875 -12.5 14.9375 -11.515625 
Q 16.703125 -10.546875 17.828125 -8.796875 
Q 18.65625 -7.46875 20.515625 -2.25 
Q 20.75 -1.515625 21.296875 -0.09375 
L 1.609375 51.859375 
L 11.078125 51.859375 
L 21.875 21.828125 
Q 23.96875 16.109375 25.640625 9.8125 
Q 27.15625 15.875 29.25 21.625 
L 40.328125 51.859375 
L 49.125 51.859375 
L 29.390625 -0.875 
Q 26.21875 -9.421875 24.46875 -12.640625 
Q 22.125 -17 19.09375 -19.015625 
Q 16.0625 -21.046875 11.859375 -21.046875 
Q 9.328125 -21.046875 6.203125 -19.96875 
z
" id="ArialMT-121"/>
      </defs>
      <g style="fill:#262626;" transform="translate(64.937557 380.801519)scale(0.11 -0.11)">
       <use xlink:href="#ArialMT-74"/>
       <use x="50" xlink:href="#ArialMT-97"/>
       <use x="105.615234" xlink:href="#ArialMT-110"/>
       <use x="161.230469" xlink:href="#ArialMT-117"/>
       <use x="216.845703" xlink:href="#ArialMT-97"/>
       <use x="272.460938" xlink:href="#ArialMT-114"/>
       <use x="305.761719" xlink:href="#ArialMT-121"/>
      </g>
     </g>
    </g>
    <g id="xtick_14">
     <g id="line2d_26"/>
     <g id="text_2">
      <!-- February -->
      <defs>
       <path d="M 8.203125 0 
L 8.203125 71.578125 
L 56.5 71.578125 
L 56.5 63.140625 
L 17.671875 63.140625 
L 17.671875 40.96875 
L 51.265625 40.96875 
L 51.265625 32.515625 
L 17.671875 32.515625 
L 17.671875 0 
z
" id="ArialMT-70"/>
       <path d="M 42.09375 16.703125 
L 51.171875 15.578125 
Q 49.03125 7.625 43.21875 3.21875 
Q 37.40625 -1.171875 28.375 -1.171875 
Q 17 -1.171875 10.328125 5.828125 
Q 3.65625 12.84375 3.65625 25.484375 
Q 3.65625 38.578125 10.390625 45.796875 
Q 17.140625 53.03125 27.875 53.03125 
Q 38.28125 53.03125 44.875 45.953125 
Q 51.46875 38.875 51.46875 26.03125 
Q 51.46875 25.25 51.421875 23.6875 
L 12.75 23.6875 
Q 13.234375 15.140625 17.578125 10.59375 
Q 21.921875 6.0625 28.421875 6.0625 
Q 33.25 6.0625 36.671875 8.59375 
Q 40.09375 11.140625 42.09375 16.703125 
z
M 13.234375 30.90625 
L 42.1875 30.90625 
Q 41.609375 37.453125 38.875 40.71875 
Q 34.671875 45.796875 27.984375 45.796875 
Q 21.921875 45.796875 17.796875 41.75 
Q 13.671875 37.703125 13.234375 30.90625 
z
" id="ArialMT-101"/>
       <path d="M 14.703125 0 
L 6.546875 0 
L 6.546875 71.578125 
L 15.328125 71.578125 
L 15.328125 46.046875 
Q 20.90625 53.03125 29.546875 53.03125 
Q 34.328125 53.03125 38.59375 51.09375 
Q 42.875 49.171875 45.625 45.671875 
Q 48.390625 42.1875 49.953125 37.25 
Q 51.515625 32.328125 51.515625 26.703125 
Q 51.515625 13.375 44.921875 6.09375 
Q 38.328125 -1.171875 29.109375 -1.171875 
Q 19.921875 -1.171875 14.703125 6.5 
z
M 14.59375 26.3125 
Q 14.59375 17 17.140625 12.84375 
Q 21.296875 6.0625 28.375 6.0625 
Q 34.125 6.0625 38.328125 11.0625 
Q 42.53125 16.0625 42.53125 25.984375 
Q 42.53125 36.140625 38.5 40.96875 
Q 34.46875 45.796875 28.765625 45.796875 
Q 23 45.796875 18.796875 40.796875 
Q 14.59375 35.796875 14.59375 26.3125 
z
" id="ArialMT-98"/>
      </defs>
      <g style="fill:#262626;" transform="translate(116.935956 380.801519)scale(0.11 -0.11)">
       <use xlink:href="#ArialMT-70"/>
       <use x="61.083984" xlink:href="#ArialMT-101"/>
       <use x="116.699219" xlink:href="#ArialMT-98"/>
       <use x="172.314453" xlink:href="#ArialMT-114"/>
       <use x="205.615234" xlink:href="#ArialMT-117"/>
       <use x="261.230469" xlink:href="#ArialMT-97"/>
       <use x="316.845703" xlink:href="#ArialMT-114"/>
       <use x="350.146484" xlink:href="#ArialMT-121"/>
      </g>
     </g>
    </g>
    <g id="xtick_15">
     <g id="line2d_27"/>
     <g id="text_3">
      <!-- March -->
      <defs>
       <path d="M 7.421875 0 
L 7.421875 71.578125 
L 21.6875 71.578125 
L 38.625 20.90625 
Q 40.96875 13.8125 42.046875 10.296875 
Q 43.265625 14.203125 45.84375 21.78125 
L 62.984375 71.578125 
L 75.734375 71.578125 
L 75.734375 0 
L 66.609375 0 
L 66.609375 59.90625 
L 45.796875 0 
L 37.25 0 
L 16.546875 60.9375 
L 16.546875 0 
z
" id="ArialMT-77"/>
       <path d="M 40.4375 19 
L 49.078125 17.875 
Q 47.65625 8.9375 41.8125 3.875 
Q 35.984375 -1.171875 27.484375 -1.171875 
Q 16.84375 -1.171875 10.375 5.78125 
Q 3.90625 12.75 3.90625 25.734375 
Q 3.90625 34.125 6.6875 40.421875 
Q 9.46875 46.734375 15.15625 49.875 
Q 20.84375 53.03125 27.546875 53.03125 
Q 35.984375 53.03125 41.359375 48.75 
Q 46.734375 44.484375 48.25 36.625 
L 39.703125 35.296875 
Q 38.484375 40.53125 35.375 43.15625 
Q 32.28125 45.796875 27.875 45.796875 
Q 21.234375 45.796875 17.078125 41.03125 
Q 12.9375 36.28125 12.9375 25.984375 
Q 12.9375 15.53125 16.9375 10.796875 
Q 20.953125 6.0625 27.390625 6.0625 
Q 32.5625 6.0625 36.03125 9.234375 
Q 39.5 12.40625 40.4375 19 
z
" id="ArialMT-99"/>
       <path d="M 6.59375 0 
L 6.59375 71.578125 
L 15.375 71.578125 
L 15.375 45.90625 
Q 21.53125 53.03125 30.90625 53.03125 
Q 36.671875 53.03125 40.921875 50.75 
Q 45.171875 48.484375 47 44.484375 
Q 48.828125 40.484375 48.828125 32.859375 
L 48.828125 0 
L 40.046875 0 
L 40.046875 32.859375 
Q 40.046875 39.453125 37.1875 42.453125 
Q 34.328125 45.453125 29.109375 45.453125 
Q 25.203125 45.453125 21.75 43.421875 
Q 18.3125 41.40625 16.84375 37.9375 
Q 15.375 34.46875 15.375 28.375 
L 15.375 0 
z
" id="ArialMT-104"/>
      </defs>
      <g style="fill:#262626;" transform="translate(178.101309 380.801519)scale(0.11 -0.11)">
       <use xlink:href="#ArialMT-77"/>
       <use x="83.300781" xlink:href="#ArialMT-97"/>
       <use x="138.916016" xlink:href="#ArialMT-114"/>
       <use x="172.216797" xlink:href="#ArialMT-99"/>
       <use x="222.216797" xlink:href="#ArialMT-104"/>
      </g>
     </g>
    </g>
    <g id="xtick_16">
     <g id="line2d_28"/>
     <g id="text_4">
      <!-- April -->
      <defs>
       <path d="M -0.140625 0 
L 27.34375 71.578125 
L 37.546875 71.578125 
L 66.84375 0 
L 56.0625 0 
L 47.703125 21.6875 
L 17.78125 21.6875 
L 9.90625 0 
z
M 20.515625 29.390625 
L 44.78125 29.390625 
L 37.3125 49.21875 
Q 33.890625 58.25 32.234375 64.0625 
Q 30.859375 57.171875 28.375 50.390625 
z
" id="ArialMT-65"/>
       <path d="M 6.59375 -19.875 
L 6.59375 51.859375 
L 14.59375 51.859375 
L 14.59375 45.125 
Q 17.4375 49.078125 21 51.046875 
Q 24.5625 53.03125 29.640625 53.03125 
Q 36.28125 53.03125 41.359375 49.609375 
Q 46.4375 46.1875 49.015625 39.953125 
Q 51.609375 33.734375 51.609375 26.3125 
Q 51.609375 18.359375 48.75 11.984375 
Q 45.90625 5.609375 40.453125 2.21875 
Q 35.015625 -1.171875 29 -1.171875 
Q 24.609375 -1.171875 21.109375 0.6875 
Q 17.625 2.546875 15.375 5.375 
L 15.375 -19.875 
z
M 14.546875 25.640625 
Q 14.546875 15.625 18.59375 10.84375 
Q 22.65625 6.0625 28.421875 6.0625 
Q 34.28125 6.0625 38.453125 11.015625 
Q 42.625 15.96875 42.625 26.375 
Q 42.625 36.28125 38.546875 41.203125 
Q 34.46875 46.140625 28.8125 46.140625 
Q 23.1875 46.140625 18.859375 40.890625 
Q 14.546875 35.640625 14.546875 25.640625 
z
" id="ArialMT-112"/>
       <path d="M 6.640625 61.46875 
L 6.640625 71.578125 
L 15.4375 71.578125 
L 15.4375 61.46875 
z
M 6.640625 0 
L 6.640625 51.859375 
L 15.4375 51.859375 
L 15.4375 0 
z
" id="ArialMT-105"/>
       <path d="M 6.390625 0 
L 6.390625 71.578125 
L 15.1875 71.578125 
L 15.1875 0 
z
" id="ArialMT-108"/>
      </defs>
      <g style="fill:#262626;" transform="translate(237.72476 380.801519)scale(0.11 -0.11)">
       <use xlink:href="#ArialMT-65"/>
       <use x="66.699219" xlink:href="#ArialMT-112"/>
       <use x="122.314453" xlink:href="#ArialMT-114"/>
       <use x="155.615234" xlink:href="#ArialMT-105"/>
       <use x="177.832031" xlink:href="#ArialMT-108"/>
      </g>
     </g>
    </g>
    <g id="xtick_17">
     <g id="line2d_29"/>
     <g id="text_5">
      <!-- May -->
      <g style="fill:#262626;" transform="translate(293.683836 380.801519)scale(0.11 -0.11)">
       <use xlink:href="#ArialMT-77"/>
       <use x="83.300781" xlink:href="#ArialMT-97"/>
       <use x="138.916016" xlink:href="#ArialMT-121"/>
      </g>
     </g>
    </g>
    <g id="xtick_18">
     <g id="line2d_30"/>
     <g id="text_6">
      <!-- June -->
      <g style="fill:#262626;" transform="translate(347.494474 380.801519)scale(0.11 -0.11)">
       <use xlink:href="#ArialMT-74"/>
       <use x="50" xlink:href="#ArialMT-117"/>
       <use x="105.615234" xlink:href="#ArialMT-110"/>
       <use x="161.230469" xlink:href="#ArialMT-101"/>
      </g>
     </g>
    </g>
    <g id="xtick_19">
     <g id="line2d_31"/>
     <g id="text_7">
      <!-- July -->
      <g style="fill:#262626;" transform="translate(404.985815 380.801519)scale(0.11 -0.11)">
       <use xlink:href="#ArialMT-74"/>
       <use x="50" xlink:href="#ArialMT-117"/>
       <use x="105.615234" xlink:href="#ArialMT-108"/>
       <use x="127.832031" xlink:href="#ArialMT-121"/>
      </g>
     </g>
    </g>
    <g id="xtick_20">
     <g id="line2d_32"/>
     <g id="text_8">
      <!-- August -->
      <defs>
       <path d="M 4.984375 -4.296875 
L 13.53125 -5.5625 
Q 14.0625 -9.515625 16.5 -11.328125 
Q 19.78125 -13.765625 25.4375 -13.765625 
Q 31.546875 -13.765625 34.859375 -11.328125 
Q 38.1875 -8.890625 39.359375 -4.5 
Q 40.046875 -1.8125 39.984375 6.78125 
Q 34.234375 0 25.640625 0 
Q 14.9375 0 9.078125 7.71875 
Q 3.21875 15.4375 3.21875 26.21875 
Q 3.21875 33.640625 5.90625 39.90625 
Q 8.59375 46.1875 13.6875 49.609375 
Q 18.796875 53.03125 25.6875 53.03125 
Q 34.859375 53.03125 40.828125 45.609375 
L 40.828125 51.859375 
L 48.921875 51.859375 
L 48.921875 7.03125 
Q 48.921875 -5.078125 46.453125 -10.125 
Q 44 -15.1875 38.640625 -18.109375 
Q 33.296875 -21.046875 25.484375 -21.046875 
Q 16.21875 -21.046875 10.5 -16.875 
Q 4.78125 -12.703125 4.984375 -4.296875 
z
M 12.25 26.859375 
Q 12.25 16.65625 16.296875 11.96875 
Q 20.359375 7.28125 26.46875 7.28125 
Q 32.515625 7.28125 36.609375 11.9375 
Q 40.71875 16.609375 40.71875 26.5625 
Q 40.71875 36.078125 36.5 40.90625 
Q 32.28125 45.75 26.3125 45.75 
Q 20.453125 45.75 16.34375 40.984375 
Q 12.25 36.234375 12.25 26.859375 
z
" id="ArialMT-103"/>
       <path d="M 3.078125 15.484375 
L 11.765625 16.84375 
Q 12.5 11.625 15.84375 8.84375 
Q 19.1875 6.0625 25.203125 6.0625 
Q 31.25 6.0625 34.171875 8.515625 
Q 37.109375 10.984375 37.109375 14.3125 
Q 37.109375 17.28125 34.515625 19 
Q 32.71875 20.171875 25.53125 21.96875 
Q 15.875 24.421875 12.140625 26.203125 
Q 8.40625 27.984375 6.46875 31.125 
Q 4.546875 34.28125 4.546875 38.09375 
Q 4.546875 41.546875 6.125 44.5 
Q 7.71875 47.46875 10.453125 49.421875 
Q 12.5 50.921875 16.03125 51.96875 
Q 19.578125 53.03125 23.640625 53.03125 
Q 29.734375 53.03125 34.34375 51.265625 
Q 38.96875 49.515625 41.15625 46.5 
Q 43.359375 43.5 44.1875 38.484375 
L 35.59375 37.3125 
Q 35.015625 41.3125 32.203125 43.546875 
Q 29.390625 45.796875 24.265625 45.796875 
Q 18.21875 45.796875 15.625 43.796875 
Q 13.03125 41.796875 13.03125 39.109375 
Q 13.03125 37.40625 14.109375 36.03125 
Q 15.1875 34.625 17.484375 33.6875 
Q 18.796875 33.203125 25.25 31.453125 
Q 34.578125 28.953125 38.25 27.359375 
Q 41.9375 25.78125 44.03125 22.75 
Q 46.140625 19.734375 46.140625 15.234375 
Q 46.140625 10.84375 43.578125 6.953125 
Q 41.015625 3.078125 36.171875 0.953125 
Q 31.34375 -1.171875 25.25 -1.171875 
Q 15.140625 -1.171875 9.84375 3.03125 
Q 4.546875 7.234375 3.078125 15.484375 
z
" id="ArialMT-115"/>
       <path d="M 25.78125 7.859375 
L 27.046875 0.09375 
Q 23.34375 -0.6875 20.40625 -0.6875 
Q 15.625 -0.6875 12.984375 0.828125 
Q 10.359375 2.34375 9.28125 4.8125 
Q 8.203125 7.28125 8.203125 15.1875 
L 8.203125 45.015625 
L 1.765625 45.015625 
L 1.765625 51.859375 
L 8.203125 51.859375 
L 8.203125 64.703125 
L 16.9375 69.96875 
L 16.9375 51.859375 
L 25.78125 51.859375 
L 25.78125 45.015625 
L 16.9375 45.015625 
L 16.9375 14.703125 
Q 16.9375 10.9375 17.40625 9.859375 
Q 17.875 8.796875 18.921875 8.15625 
Q 19.96875 7.515625 21.921875 7.515625 
Q 23.390625 7.515625 25.78125 7.859375 
z
" id="ArialMT-116"/>
      </defs>
      <g style="fill:#262626;" transform="translate(453.897833 380.801519)scale(0.11 -0.11)">
       <use xlink:href="#ArialMT-65"/>
       <use x="66.699219" xlink:href="#ArialMT-117"/>
       <use x="122.314453" xlink:href="#ArialMT-103"/>
       <use x="177.929688" xlink:href="#ArialMT-117"/>
       <use x="233.544922" xlink:href="#ArialMT-115"/>
       <use x="283.544922" xlink:href="#ArialMT-116"/>
      </g>
     </g>
    </g>
    <g id="xtick_21">
     <g id="line2d_33"/>
     <g id="text_9">
      <!-- September -->
      <defs>
       <path d="M 4.5 23 
L 13.421875 23.78125 
Q 14.0625 18.40625 16.375 14.96875 
Q 18.703125 11.53125 23.578125 9.40625 
Q 28.46875 7.28125 34.578125 7.28125 
Q 39.984375 7.28125 44.140625 8.890625 
Q 48.296875 10.5 50.3125 13.296875 
Q 52.34375 16.109375 52.34375 19.4375 
Q 52.34375 22.796875 50.390625 25.3125 
Q 48.4375 27.828125 43.953125 29.546875 
Q 41.0625 30.671875 31.203125 33.03125 
Q 21.34375 35.40625 17.390625 37.5 
Q 12.25 40.1875 9.734375 44.15625 
Q 7.234375 48.140625 7.234375 53.078125 
Q 7.234375 58.5 10.296875 63.203125 
Q 13.375 67.921875 19.28125 70.359375 
Q 25.203125 72.796875 32.421875 72.796875 
Q 40.375 72.796875 46.453125 70.234375 
Q 52.546875 67.671875 55.8125 62.6875 
Q 59.078125 57.71875 59.328125 51.421875 
L 50.25 50.734375 
Q 49.515625 57.515625 45.28125 60.984375 
Q 41.0625 64.453125 32.8125 64.453125 
Q 24.21875 64.453125 20.28125 61.296875 
Q 16.359375 58.15625 16.359375 53.71875 
Q 16.359375 49.859375 19.140625 47.359375 
Q 21.875 44.875 33.421875 42.265625 
Q 44.96875 39.65625 49.265625 37.703125 
Q 55.515625 34.8125 58.484375 30.390625 
Q 61.46875 25.984375 61.46875 20.21875 
Q 61.46875 14.5 58.203125 9.4375 
Q 54.9375 4.390625 48.796875 1.578125 
Q 42.671875 -1.21875 35.015625 -1.21875 
Q 25.296875 -1.21875 18.71875 1.609375 
Q 12.15625 4.4375 8.421875 10.125 
Q 4.6875 15.828125 4.5 23 
z
" id="ArialMT-83"/>
       <path d="M 6.59375 0 
L 6.59375 51.859375 
L 14.453125 51.859375 
L 14.453125 44.578125 
Q 16.890625 48.390625 20.9375 50.703125 
Q 25 53.03125 30.171875 53.03125 
Q 35.9375 53.03125 39.625 50.640625 
Q 43.3125 48.25 44.828125 43.953125 
Q 50.984375 53.03125 60.84375 53.03125 
Q 68.5625 53.03125 72.703125 48.75 
Q 76.859375 44.484375 76.859375 35.59375 
L 76.859375 0 
L 68.109375 0 
L 68.109375 32.671875 
Q 68.109375 37.9375 67.25 40.25 
Q 66.40625 42.578125 64.15625 43.984375 
Q 61.921875 45.40625 58.890625 45.40625 
Q 53.421875 45.40625 49.796875 41.765625 
Q 46.1875 38.140625 46.1875 30.125 
L 46.1875 0 
L 37.40625 0 
L 37.40625 33.6875 
Q 37.40625 39.546875 35.25 42.46875 
Q 33.109375 45.40625 28.21875 45.40625 
Q 24.515625 45.40625 21.359375 43.453125 
Q 18.21875 41.5 16.796875 37.734375 
Q 15.375 33.984375 15.375 26.90625 
L 15.375 0 
z
" id="ArialMT-109"/>
      </defs>
      <g style="fill:#262626;" transform="translate(499.464487 380.935581)scale(0.11 -0.11)">
       <use xlink:href="#ArialMT-83"/>
       <use x="66.699219" xlink:href="#ArialMT-101"/>
       <use x="122.314453" xlink:href="#ArialMT-112"/>
       <use x="177.929688" xlink:href="#ArialMT-116"/>
       <use x="205.712891" xlink:href="#ArialMT-101"/>
       <use x="261.328125" xlink:href="#ArialMT-109"/>
       <use x="344.628906" xlink:href="#ArialMT-98"/>
       <use x="400.244141" xlink:href="#ArialMT-101"/>
       <use x="455.859375" xlink:href="#ArialMT-114"/>
      </g>
     </g>
    </g>
    <g id="xtick_22">
     <g id="line2d_34"/>
     <g id="text_10">
      <!-- October -->
      <defs>
       <path d="M 4.828125 34.859375 
Q 4.828125 52.6875 14.390625 62.765625 
Q 23.96875 72.859375 39.109375 72.859375 
Q 49.03125 72.859375 56.984375 68.109375 
Q 64.9375 63.375 69.109375 54.90625 
Q 73.296875 46.4375 73.296875 35.6875 
Q 73.296875 24.8125 68.890625 16.21875 
Q 64.5 7.625 56.4375 3.203125 
Q 48.390625 -1.21875 39.0625 -1.21875 
Q 28.953125 -1.21875 20.984375 3.65625 
Q 13.03125 8.546875 8.921875 16.984375 
Q 4.828125 25.4375 4.828125 34.859375 
z
M 14.59375 34.71875 
Q 14.59375 21.78125 21.546875 14.328125 
Q 28.515625 6.890625 39.015625 6.890625 
Q 49.703125 6.890625 56.609375 14.40625 
Q 63.53125 21.921875 63.53125 35.75 
Q 63.53125 44.484375 60.578125 51 
Q 57.625 57.515625 51.921875 61.109375 
Q 46.234375 64.703125 39.15625 64.703125 
Q 29.109375 64.703125 21.84375 57.78125 
Q 14.59375 50.875 14.59375 34.71875 
z
" id="ArialMT-79"/>
       <path d="M 3.328125 25.921875 
Q 3.328125 40.328125 11.328125 47.265625 
Q 18.015625 53.03125 27.640625 53.03125 
Q 38.328125 53.03125 45.109375 46.015625 
Q 51.90625 39.015625 51.90625 26.65625 
Q 51.90625 16.65625 48.90625 10.90625 
Q 45.90625 5.171875 40.15625 2 
Q 34.421875 -1.171875 27.640625 -1.171875 
Q 16.75 -1.171875 10.03125 5.8125 
Q 3.328125 12.796875 3.328125 25.921875 
z
M 12.359375 25.921875 
Q 12.359375 15.96875 16.703125 11.015625 
Q 21.046875 6.0625 27.640625 6.0625 
Q 34.1875 6.0625 38.53125 11.03125 
Q 42.875 16.015625 42.875 26.21875 
Q 42.875 35.84375 38.5 40.796875 
Q 34.125 45.75 27.640625 45.75 
Q 21.046875 45.75 16.703125 40.8125 
Q 12.359375 35.890625 12.359375 25.921875 
z
" id="ArialMT-111"/>
      </defs>
      <g style="fill:#262626;" transform="translate(562.149891 380.801519)scale(0.11 -0.11)">
       <use xlink:href="#ArialMT-79"/>
       <use x="77.783203" xlink:href="#ArialMT-99"/>
       <use x="127.783203" xlink:href="#ArialMT-116"/>
       <use x="155.566406" xlink:href="#ArialMT-111"/>
       <use x="211.181641" xlink:href="#ArialMT-98"/>
       <use x="266.796875" xlink:href="#ArialMT-101"/>
       <use x="322.412109" xlink:href="#ArialMT-114"/>
      </g>
     </g>
    </g>
    <g id="xtick_23">
     <g id="line2d_35"/>
     <g id="text_11">
      <!-- November -->
      <defs>
       <path d="M 7.625 0 
L 7.625 71.578125 
L 17.328125 71.578125 
L 54.9375 15.375 
L 54.9375 71.578125 
L 64.015625 71.578125 
L 64.015625 0 
L 54.296875 0 
L 16.703125 56.25 
L 16.703125 0 
z
" id="ArialMT-78"/>
       <path d="M 21 0 
L 1.265625 51.859375 
L 10.546875 51.859375 
L 21.6875 20.796875 
Q 23.484375 15.765625 25 10.359375 
Q 26.171875 14.453125 28.265625 20.21875 
L 39.796875 51.859375 
L 48.828125 51.859375 
L 29.203125 0 
z
" id="ArialMT-118"/>
      </defs>
      <g style="fill:#262626;" transform="translate(611.690295 380.801519)scale(0.11 -0.11)">
       <use xlink:href="#ArialMT-78"/>
       <use x="72.216797" xlink:href="#ArialMT-111"/>
       <use x="127.832031" xlink:href="#ArialMT-118"/>
       <use x="177.832031" xlink:href="#ArialMT-101"/>
       <use x="233.447266" xlink:href="#ArialMT-109"/>
       <use x="316.748047" xlink:href="#ArialMT-98"/>
       <use x="372.363281" xlink:href="#ArialMT-101"/>
       <use x="427.978516" xlink:href="#ArialMT-114"/>
      </g>
     </g>
    </g>
    <g id="xtick_24">
     <g id="line2d_36"/>
     <g id="text_12">
      <!-- December -->
      <defs>
       <path d="M 7.71875 0 
L 7.71875 71.578125 
L 32.375 71.578125 
Q 40.71875 71.578125 45.125 70.5625 
Q 51.265625 69.140625 55.609375 65.4375 
Q 61.28125 60.640625 64.078125 53.1875 
Q 66.890625 45.75 66.890625 36.1875 
Q 66.890625 28.03125 64.984375 21.734375 
Q 63.09375 15.4375 60.109375 11.296875 
Q 57.125 7.171875 53.578125 4.796875 
Q 50.046875 2.4375 45.046875 1.21875 
Q 40.046875 0 33.546875 0 
z
M 17.1875 8.453125 
L 32.46875 8.453125 
Q 39.546875 8.453125 43.578125 9.765625 
Q 47.609375 11.078125 50 13.484375 
Q 53.375 16.84375 55.25 22.53125 
Q 57.125 28.21875 57.125 36.328125 
Q 57.125 47.5625 53.4375 53.59375 
Q 49.75 59.625 44.484375 61.671875 
Q 40.671875 63.140625 32.234375 63.140625 
L 17.1875 63.140625 
z
" id="ArialMT-68"/>
      </defs>
      <g style="fill:#262626;" transform="translate(666.12932 380.801519)scale(0.11 -0.11)">
       <use xlink:href="#ArialMT-68"/>
       <use x="72.216797" xlink:href="#ArialMT-101"/>
       <use x="127.832031" xlink:href="#ArialMT-99"/>
       <use x="177.832031" xlink:href="#ArialMT-101"/>
       <use x="233.447266" xlink:href="#ArialMT-109"/>
       <use x="316.748047" xlink:href="#ArialMT-98"/>
       <use x="372.363281" xlink:href="#ArialMT-101"/>
       <use x="427.978516" xlink:href="#ArialMT-114"/>
      </g>
     </g>
    </g>
   </g>
   <g id="matplotlib.axis_2">
    <g id="ytick_1">
     <g id="line2d_37">
      <path clip-path="url(#pfa343a025e)" d="M 52.74685 369.527925 
L 722.34685 369.527925 
" style="fill:none;stroke:#cccccc;stroke-linecap:round;stroke-width:0.8;"/>
     </g>
     <g id="line2d_38"/>
     <g id="text_13">
      <!-- 700 -->
      <defs>
       <path d="M 4.734375 62.203125 
L 4.734375 70.65625 
L 51.078125 70.65625 
L 51.078125 63.8125 
Q 44.234375 56.546875 37.515625 44.484375 
Q 30.8125 32.421875 27.15625 19.671875 
Q 24.515625 10.6875 23.78125 0 
L 14.75 0 
Q 14.890625 8.453125 18.0625 20.40625 
Q 21.234375 32.375 27.171875 43.484375 
Q 33.109375 54.59375 39.796875 62.203125 
z
" id="ArialMT-55"/>
       <path d="M 4.15625 35.296875 
Q 4.15625 48 6.765625 55.734375 
Q 9.375 63.484375 14.515625 67.671875 
Q 19.671875 71.875 27.484375 71.875 
Q 33.25 71.875 37.59375 69.546875 
Q 41.9375 67.234375 44.765625 62.859375 
Q 47.609375 58.5 49.21875 52.21875 
Q 50.828125 45.953125 50.828125 35.296875 
Q 50.828125 22.703125 48.234375 14.96875 
Q 45.65625 7.234375 40.5 3 
Q 35.359375 -1.21875 27.484375 -1.21875 
Q 17.140625 -1.21875 11.234375 6.203125 
Q 4.15625 15.140625 4.15625 35.296875 
z
M 13.1875 35.296875 
Q 13.1875 17.671875 17.3125 11.828125 
Q 21.4375 6 27.484375 6 
Q 33.546875 6 37.671875 11.859375 
Q 41.796875 17.71875 41.796875 35.296875 
Q 41.796875 52.984375 37.671875 58.78125 
Q 33.546875 64.59375 27.390625 64.59375 
Q 21.34375 64.59375 17.71875 59.46875 
Q 13.1875 52.9375 13.1875 35.296875 
z
" id="ArialMT-48"/>
      </defs>
      <g style="fill:#262626;" transform="translate(32.564038 373.106831)scale(0.1 -0.1)">
       <use xlink:href="#ArialMT-55"/>
       <use x="55.615234" xlink:href="#ArialMT-48"/>
       <use x="111.230469" xlink:href="#ArialMT-48"/>
      </g>
     </g>
    </g>
    <g id="ytick_2">
     <g id="line2d_39">
      <path clip-path="url(#pfa343a025e)" d="M 52.74685 322.933639 
L 722.34685 322.933639 
" style="fill:none;stroke:#cccccc;stroke-linecap:round;stroke-width:0.8;"/>
     </g>
     <g id="line2d_40"/>
     <g id="text_14">
      <!-- 800 -->
      <defs>
       <path d="M 17.671875 38.8125 
Q 12.203125 40.828125 9.5625 44.53125 
Q 6.9375 48.25 6.9375 53.421875 
Q 6.9375 61.234375 12.546875 66.546875 
Q 18.171875 71.875 27.484375 71.875 
Q 36.859375 71.875 42.578125 66.421875 
Q 48.296875 60.984375 48.296875 53.171875 
Q 48.296875 48.1875 45.671875 44.5 
Q 43.0625 40.828125 37.75 38.8125 
Q 44.34375 36.671875 47.78125 31.875 
Q 51.21875 27.09375 51.21875 20.453125 
Q 51.21875 11.28125 44.71875 5.03125 
Q 38.234375 -1.21875 27.640625 -1.21875 
Q 17.046875 -1.21875 10.546875 5.046875 
Q 4.046875 11.328125 4.046875 20.703125 
Q 4.046875 27.6875 7.59375 32.390625 
Q 11.140625 37.109375 17.671875 38.8125 
z
M 15.921875 53.71875 
Q 15.921875 48.640625 19.1875 45.40625 
Q 22.46875 42.1875 27.6875 42.1875 
Q 32.765625 42.1875 36.015625 45.375 
Q 39.265625 48.578125 39.265625 53.21875 
Q 39.265625 58.0625 35.90625 61.359375 
Q 32.5625 64.65625 27.59375 64.65625 
Q 22.5625 64.65625 19.234375 61.421875 
Q 15.921875 58.203125 15.921875 53.71875 
z
M 13.09375 20.65625 
Q 13.09375 16.890625 14.875 13.375 
Q 16.65625 9.859375 20.171875 7.921875 
Q 23.6875 6 27.734375 6 
Q 34.03125 6 38.125 10.046875 
Q 42.234375 14.109375 42.234375 20.359375 
Q 42.234375 26.703125 38.015625 30.859375 
Q 33.796875 35.015625 27.4375 35.015625 
Q 21.234375 35.015625 17.15625 30.90625 
Q 13.09375 26.8125 13.09375 20.65625 
z
" id="ArialMT-56"/>
      </defs>
      <g style="fill:#262626;" transform="translate(32.564038 326.512546)scale(0.1 -0.1)">
       <use xlink:href="#ArialMT-56"/>
       <use x="55.615234" xlink:href="#ArialMT-48"/>
       <use x="111.230469" xlink:href="#ArialMT-48"/>
      </g>
     </g>
    </g>
    <g id="ytick_3">
     <g id="line2d_41">
      <path clip-path="url(#pfa343a025e)" d="M 52.74685 276.339354 
L 722.34685 276.339354 
" style="fill:none;stroke:#cccccc;stroke-linecap:round;stroke-width:0.8;"/>
     </g>
     <g id="line2d_42"/>
     <g id="text_15">
      <!-- 900 -->
      <defs>
       <path d="M 5.46875 16.546875 
L 13.921875 17.328125 
Q 14.984375 11.375 18.015625 8.6875 
Q 21.046875 6 25.78125 6 
Q 29.828125 6 32.875 7.859375 
Q 35.9375 9.71875 37.890625 12.8125 
Q 39.84375 15.921875 41.15625 21.1875 
Q 42.484375 26.46875 42.484375 31.9375 
Q 42.484375 32.515625 42.4375 33.6875 
Q 39.796875 29.5 35.234375 26.875 
Q 30.671875 24.265625 25.34375 24.265625 
Q 16.453125 24.265625 10.296875 30.703125 
Q 4.15625 37.15625 4.15625 47.703125 
Q 4.15625 58.59375 10.578125 65.234375 
Q 17 71.875 26.65625 71.875 
Q 33.640625 71.875 39.421875 68.109375 
Q 45.21875 64.359375 48.21875 57.390625 
Q 51.21875 50.4375 51.21875 37.25 
Q 51.21875 23.53125 48.234375 15.40625 
Q 45.265625 7.28125 39.375 3.03125 
Q 33.5 -1.21875 25.59375 -1.21875 
Q 17.1875 -1.21875 11.859375 3.4375 
Q 6.546875 8.109375 5.46875 16.546875 
z
M 41.453125 48.140625 
Q 41.453125 55.71875 37.421875 60.15625 
Q 33.40625 64.59375 27.734375 64.59375 
Q 21.875 64.59375 17.53125 59.8125 
Q 13.1875 55.03125 13.1875 47.40625 
Q 13.1875 40.578125 17.3125 36.296875 
Q 21.4375 32.03125 27.484375 32.03125 
Q 33.59375 32.03125 37.515625 36.296875 
Q 41.453125 40.578125 41.453125 48.140625 
z
" id="ArialMT-57"/>
      </defs>
      <g style="fill:#262626;" transform="translate(32.564038 279.91826)scale(0.1 -0.1)">
       <use xlink:href="#ArialMT-57"/>
       <use x="55.615234" xlink:href="#ArialMT-48"/>
       <use x="111.230469" xlink:href="#ArialMT-48"/>
      </g>
     </g>
    </g>
    <g id="ytick_4">
     <g id="line2d_43">
      <path clip-path="url(#pfa343a025e)" d="M 52.74685 229.745068 
L 722.34685 229.745068 
" style="fill:none;stroke:#cccccc;stroke-linecap:round;stroke-width:0.8;"/>
     </g>
     <g id="line2d_44"/>
     <g id="text_16">
      <!-- 1000 -->
      <defs>
       <path d="M 37.25 0 
L 28.46875 0 
L 28.46875 56 
Q 25.296875 52.984375 20.140625 49.953125 
Q 14.984375 46.921875 10.890625 45.40625 
L 10.890625 53.90625 
Q 18.265625 57.375 23.78125 62.296875 
Q 29.296875 67.234375 31.59375 71.875 
L 37.25 71.875 
z
" id="ArialMT-49"/>
      </defs>
      <g style="fill:#262626;" transform="translate(27.0031 233.323974)scale(0.1 -0.1)">
       <use xlink:href="#ArialMT-49"/>
       <use x="55.615234" xlink:href="#ArialMT-48"/>
       <use x="111.230469" xlink:href="#ArialMT-48"/>
       <use x="166.845703" xlink:href="#ArialMT-48"/>
      </g>
     </g>
    </g>
    <g id="ytick_5">
     <g id="line2d_45">
      <path clip-path="url(#pfa343a025e)" d="M 52.74685 183.150782 
L 722.34685 183.150782 
" style="fill:none;stroke:#cccccc;stroke-linecap:round;stroke-width:0.8;"/>
     </g>
     <g id="line2d_46"/>
     <g id="text_17">
      <!-- 1100 -->
      <g style="fill:#262626;" transform="translate(27.7406 186.729688)scale(0.1 -0.1)">
       <use xlink:href="#ArialMT-49"/>
       <use x="48.240234" xlink:href="#ArialMT-49"/>
       <use x="103.855469" xlink:href="#ArialMT-48"/>
       <use x="159.470703" xlink:href="#ArialMT-48"/>
      </g>
     </g>
    </g>
    <g id="ytick_6">
     <g id="line2d_47">
      <path clip-path="url(#pfa343a025e)" d="M 52.74685 136.556496 
L 722.34685 136.556496 
" style="fill:none;stroke:#cccccc;stroke-linecap:round;stroke-width:0.8;"/>
     </g>
     <g id="line2d_48"/>
     <g id="text_18">
      <!-- 1200 -->
      <defs>
       <path d="M 50.34375 8.453125 
L 50.34375 0 
L 3.03125 0 
Q 2.9375 3.171875 4.046875 6.109375 
Q 5.859375 10.9375 9.828125 15.625 
Q 13.8125 20.3125 21.34375 26.46875 
Q 33.015625 36.03125 37.109375 41.625 
Q 41.21875 47.21875 41.21875 52.203125 
Q 41.21875 57.421875 37.46875 61 
Q 33.734375 64.59375 27.734375 64.59375 
Q 21.390625 64.59375 17.578125 60.78125 
Q 13.765625 56.984375 13.71875 50.25 
L 4.6875 51.171875 
Q 5.609375 61.28125 11.65625 66.578125 
Q 17.71875 71.875 27.9375 71.875 
Q 38.234375 71.875 44.234375 66.15625 
Q 50.25 60.453125 50.25 52 
Q 50.25 47.703125 48.484375 43.546875 
Q 46.734375 39.40625 42.65625 34.8125 
Q 38.578125 30.21875 29.109375 22.21875 
Q 21.1875 15.578125 18.9375 13.203125 
Q 16.703125 10.84375 15.234375 8.453125 
z
" id="ArialMT-50"/>
      </defs>
      <g style="fill:#262626;" transform="translate(27.0031 140.135403)scale(0.1 -0.1)">
       <use xlink:href="#ArialMT-49"/>
       <use x="55.615234" xlink:href="#ArialMT-50"/>
       <use x="111.230469" xlink:href="#ArialMT-48"/>
       <use x="166.845703" xlink:href="#ArialMT-48"/>
      </g>
     </g>
    </g>
    <g id="ytick_7">
     <g id="line2d_49">
      <path clip-path="url(#pfa343a025e)" d="M 52.74685 89.962211 
L 722.34685 89.962211 
" style="fill:none;stroke:#cccccc;stroke-linecap:round;stroke-width:0.8;"/>
     </g>
     <g id="line2d_50"/>
     <g id="text_19">
      <!-- 1300 -->
      <defs>
       <path d="M 4.203125 18.890625 
L 12.984375 20.0625 
Q 14.5 12.59375 18.140625 9.296875 
Q 21.78125 6 27 6 
Q 33.203125 6 37.46875 10.296875 
Q 41.75 14.59375 41.75 20.953125 
Q 41.75 27 37.796875 30.921875 
Q 33.84375 34.859375 27.734375 34.859375 
Q 25.25 34.859375 21.53125 33.890625 
L 22.515625 41.609375 
Q 23.390625 41.5 23.921875 41.5 
Q 29.546875 41.5 34.03125 44.421875 
Q 38.53125 47.359375 38.53125 53.46875 
Q 38.53125 58.296875 35.25 61.46875 
Q 31.984375 64.65625 26.8125 64.65625 
Q 21.6875 64.65625 18.265625 61.421875 
Q 14.84375 58.203125 13.875 51.765625 
L 5.078125 53.328125 
Q 6.6875 62.15625 12.390625 67.015625 
Q 18.109375 71.875 26.609375 71.875 
Q 32.46875 71.875 37.390625 69.359375 
Q 42.328125 66.84375 44.9375 62.5 
Q 47.5625 58.15625 47.5625 53.265625 
Q 47.5625 48.640625 45.0625 44.828125 
Q 42.578125 41.015625 37.703125 38.765625 
Q 44.046875 37.3125 47.5625 32.6875 
Q 51.078125 28.078125 51.078125 21.140625 
Q 51.078125 11.765625 44.234375 5.25 
Q 37.40625 -1.265625 26.953125 -1.265625 
Q 17.53125 -1.265625 11.296875 4.34375 
Q 5.078125 9.96875 4.203125 18.890625 
z
" id="ArialMT-51"/>
      </defs>
      <g style="fill:#262626;" transform="translate(27.0031 93.541117)scale(0.1 -0.1)">
       <use xlink:href="#ArialMT-49"/>
       <use x="55.615234" xlink:href="#ArialMT-51"/>
       <use x="111.230469" xlink:href="#ArialMT-48"/>
       <use x="166.845703" xlink:href="#ArialMT-48"/>
      </g>
     </g>
    </g>
    <g id="ytick_8">
     <g id="line2d_51">
      <path clip-path="url(#pfa343a025e)" d="M 52.74685 43.367925 
L 722.34685 43.367925 
" style="fill:none;stroke:#cccccc;stroke-linecap:round;stroke-width:0.8;"/>
     </g>
     <g id="line2d_52"/>
     <g id="text_20">
      <!-- 1400 -->
      <defs>
       <path d="M 32.328125 0 
L 32.328125 17.140625 
L 1.265625 17.140625 
L 1.265625 25.203125 
L 33.9375 71.578125 
L 41.109375 71.578125 
L 41.109375 25.203125 
L 50.78125 25.203125 
L 50.78125 17.140625 
L 41.109375 17.140625 
L 41.109375 0 
z
M 32.328125 25.203125 
L 32.328125 57.46875 
L 9.90625 25.203125 
z
" id="ArialMT-52"/>
      </defs>
      <g style="fill:#262626;" transform="translate(27.0031 46.946831)scale(0.1 -0.1)">
       <use xlink:href="#ArialMT-49"/>
       <use x="55.615234" xlink:href="#ArialMT-52"/>
       <use x="111.230469" xlink:href="#ArialMT-48"/>
       <use x="166.845703" xlink:href="#ArialMT-48"/>
      </g>
     </g>
    </g>
    <g id="text_21">
     <!-- Crashes -->
     <defs>
      <path d="M 58.796875 25.09375 
L 68.265625 22.703125 
Q 65.28125 11.03125 57.546875 4.90625 
Q 49.8125 -1.21875 38.625 -1.21875 
Q 27.046875 -1.21875 19.796875 3.484375 
Q 12.546875 8.203125 8.765625 17.140625 
Q 4.984375 26.078125 4.984375 36.328125 
Q 4.984375 47.515625 9.25 55.828125 
Q 13.53125 64.15625 21.40625 68.46875 
Q 29.296875 72.796875 38.765625 72.796875 
Q 49.515625 72.796875 56.828125 67.328125 
Q 64.15625 61.859375 67.046875 51.953125 
L 57.71875 49.75 
Q 55.21875 57.5625 50.484375 61.125 
Q 45.75 64.703125 38.578125 64.703125 
Q 30.328125 64.703125 24.78125 60.734375 
Q 19.234375 56.78125 16.984375 50.109375 
Q 14.75 43.453125 14.75 36.375 
Q 14.75 27.25 17.40625 20.4375 
Q 20.0625 13.625 25.671875 10.25 
Q 31.296875 6.890625 37.84375 6.890625 
Q 45.796875 6.890625 51.3125 11.46875 
Q 56.84375 16.0625 58.796875 25.09375 
z
" id="ArialMT-67"/>
     </defs>
     <g style="fill:#262626;" transform="translate(19.5687 238.618425)rotate(-90)scale(0.1728 -0.1728)">
      <use xlink:href="#ArialMT-67"/>
      <use x="72.216797" xlink:href="#ArialMT-114"/>
      <use x="105.517578" xlink:href="#ArialMT-97"/>
      <use x="161.132812" xlink:href="#ArialMT-115"/>
      <use x="211.132812" xlink:href="#ArialMT-104"/>
      <use x="266.748047" xlink:href="#ArialMT-101"/>
      <use x="322.363281" xlink:href="#ArialMT-115"/>
     </g>
    </g>
   </g>
   <g id="patch_3">
    <path clip-path="url(#pfa343a025e)" d="M 112.629777 369.527925 
L 112.629777 43.367925 
L 165.254167 43.367925 
L 165.254167 369.527925 
z
" style="opacity:0.03;stroke:#000000;stroke-linejoin:miter;"/>
   </g>
   <g id="patch_4">
    <path clip-path="url(#pfa343a025e)" d="M 221.507826 369.527925 
L 221.507826 43.367925 
L 275.94685 43.367925 
L 275.94685 369.527925 
z
" style="opacity:0.03;stroke:#000000;stroke-linejoin:miter;"/>
   </g>
   <g id="patch_5">
    <path clip-path="url(#pfa343a025e)" d="M 332.200509 369.527925 
L 332.200509 43.367925 
L 386.639533 43.367925 
L 386.639533 369.527925 
z
" style="opacity:0.03;stroke:#000000;stroke-linejoin:miter;"/>
   </g>
   <g id="patch_6">
    <path clip-path="url(#pfa343a025e)" d="M 442.893191 369.527925 
L 442.893191 43.367925 
L 499.14685 43.367925 
L 499.14685 369.527925 
z
" style="opacity:0.03;stroke:#000000;stroke-linejoin:miter;"/>
   </g>
   <g id="patch_7">
    <path clip-path="url(#pfa343a025e)" d="M 553.585874 369.527925 
L 553.585874 43.367925 
L 609.839533 43.367925 
L 609.839533 369.527925 
z
" style="opacity:0.03;stroke:#000000;stroke-linejoin:miter;"/>
   </g>
   <g id="patch_8">
    <path clip-path="url(#pfa343a025e)" d="M 664.278557 369.527925 
L 664.278557 43.367925 
L 718.717582 43.367925 
L 718.717582 369.527925 
z
" style="opacity:0.03;stroke:#000000;stroke-linejoin:miter;"/>
   </g>
   <g id="line2d_53">
    <path clip-path="url(#pfa343a025e)" d="M 56.376118 274.196016 
L 58.190752 245.276496 
L 60.005387 228.564679 
L 61.820021 238.784359 
L 63.634655 230.211011 
L 65.449289 246.984954 
L 67.263923 228.688931 
L 69.078557 204.149274 
L 70.893191 207.472999 
L 72.707826 172.340908 
L 74.52246 203.776519 
L 76.337094 191.196062 
L 78.151728 202.223376 
L 79.966362 199.800474 
L 81.780996 212.971125 
L 83.59563 203.124199 
L 87.224899 185.822188 
L 89.039533 209.740588 
L 90.854167 207.783628 
L 92.668801 202.440816 
L 94.483435 198.495834 
L 96.29807 159.853639 
L 98.112704 166.035148 
L 99.927338 198.029891 
L 101.741972 176.006325 
L 103.556606 186.257068 
L 105.37124 180.665754 
L 107.185874 211.666485 
L 109.000509 177.590531 
L 110.815143 195.078919 
L 112.629777 187.934462 
L 114.444411 172.061342 
L 116.259045 167.805731 
L 118.073679 199.986851 
L 119.888313 174.018302 
L 121.702948 163.519056 
L 123.517582 162.556108 
L 125.332216 184.672862 
L 127.14685 165.910896 
L 128.961484 177.155651 
L 130.776118 146.558736 
L 132.590752 160.195331 
L 134.405387 144.943468 
L 136.220021 133.325959 
L 138.034655 191.972634 
L 139.849289 181.846142 
L 141.663923 165.196451 
L 143.478557 181.690828 
L 145.293191 160.257456 
L 147.107826 192.593891 
L 148.92246 180.883194 
L 150.737094 140.346165 
L 152.551728 177.870096 
L 154.366362 189.518668 
L 156.180996 163.270554 
L 157.99563 186.101754 
L 159.810265 137.674759 
L 161.624899 157.865616 
L 163.439533 198.682211 
L 165.254167 168.923994 
L 167.068801 164.544131 
L 168.883435 168.458051 
L 170.69807 172.806851 
L 172.512704 184.952428 
L 174.327338 171.036268 
L 176.141972 174.639559 
L 177.956606 193.432588 
L 179.77124 195.948679 
L 181.585874 187.530645 
L 183.400509 191.506691 
L 185.215143 187.468519 
L 187.029777 183.772039 
L 188.844411 172.651536 
L 190.659045 148.857388 
L 192.473679 169.731628 
L 194.288313 158.114119 
L 196.102948 163.922874 
L 197.917582 174.919125 
L 199.732216 162.990988 
L 201.54685 181.690828 
L 203.361484 172.030279 
L 205.176118 185.200931 
L 206.990752 194.768291 
L 208.805387 193.308336 
L 210.620021 189.673982 
L 212.434655 188.493594 
L 214.249289 173.831925 
L 216.063923 189.363354 
L 217.878557 201.912748 
L 219.693191 197.501822 
L 221.507826 175.819948 
L 223.32246 182.809091 
L 225.137094 190.667994 
L 226.951728 174.577434 
L 228.766362 181.193822 
L 230.580996 194.799354 
L 232.39563 170.787765 
L 234.210265 192.873456 
L 236.024899 188.773159 
L 237.839533 199.179216 
L 239.654167 179.889182 
L 241.468801 162.431856 
L 243.283435 180.510439 
L 245.09807 176.472268 
L 246.912704 190.139925 
L 248.727338 193.960656 
L 250.541972 198.868588 
L 252.356606 209.523148 
L 254.17124 202.502942 
L 255.985874 153.268314 
L 257.800509 199.614096 
L 259.615143 203.434828 
L 261.429777 198.185205 
L 263.244411 197.439696 
L 265.059045 183.337159 
L 266.873679 202.502942 
L 268.688313 192.500702 
L 270.502948 189.922485 
L 272.317582 207.814691 
L 274.132216 194.612976 
L 275.94685 175.571445 
L 277.761484 165.724519 
L 279.576118 159.791514 
L 281.390752 184.579674 
L 283.205387 171.750714 
L 285.020021 178.180725 
L 286.834655 195.793365 
L 288.649289 175.447194 
L 290.463923 183.088656 
L 292.278557 177.652656 
L 294.093191 188.493594 
L 295.907826 197.750325 
L 297.72246 196.010805 
L 299.537094 178.926234 
L 301.351728 183.306096 
L 303.166362 189.363354 
L 304.980996 185.294119 
L 306.79563 189.767171 
L 308.610265 180.572565 
L 310.424899 170.663514 
L 312.239533 181.193822 
L 314.054167 184.237982 
L 315.868801 192.438576 
L 317.683435 202.720382 
L 319.49807 205.019034 
L 321.312704 236.454645 
L 323.127338 212.349868 
L 324.941972 225.085639 
L 326.756606 213.592382 
L 328.57124 209.212519 
L 330.385874 205.360725 
L 332.200509 187.872336 
L 334.015143 204.522028 
L 335.829777 204.801594 
L 337.644411 187.592771 
L 339.459045 186.940451 
L 341.273679 194.675102 
L 343.088313 197.004816 
L 344.902948 192.997708 
L 346.717582 203.993959 
L 348.532216 201.042988 
L 350.34685 200.359605 
L 352.161484 202.130188 
L 353.976118 190.077799 
L 355.790752 172.309845 
L 357.605387 181.939331 
L 359.420021 183.119719 
L 361.234655 192.749205 
L 363.049289 197.035879 
L 364.863923 202.596131 
L 366.678557 190.170988 
L 368.493191 189.083788 
L 370.307826 203.931834 
L 372.12246 206.696428 
L 373.937094 202.502942 
L 375.751728 204.180336 
L 377.566362 208.715514 
L 379.380996 199.365594 
L 381.19563 196.694188 
L 383.010265 200.980862 
L 384.824899 196.942691 
L 386.639533 189.518668 
L 388.454167 186.723011 
L 390.268801 175.726759 
L 392.083435 261.491308 
L 393.89807 242.884656 
L 395.712704 227.260039 
L 397.527338 222.321045 
L 399.341972 226.172839 
L 401.156606 218.469251 
L 402.97124 224.806074 
L 404.785874 214.027262 
L 406.600509 210.206531 
L 408.415143 201.664245 
L 410.229777 210.579285 
L 412.044411 203.528016 
L 413.859045 195.544862 
L 415.673679 204.894782 
L 417.488313 196.849502 
L 419.302948 200.483856 
L 421.117582 199.955788 
L 422.932216 207.659376 
L 424.74685 212.225616 
L 426.561484 201.198302 
L 428.376118 200.204291 
L 430.190752 197.160131 
L 432.005387 208.808702 
L 433.820021 207.348748 
L 435.634655 219.432199 
L 437.449289 227.477479 
L 439.263923 206.634302 
L 441.078557 210.548222 
L 442.893191 186.505571 
L 444.707826 193.059834 
L 446.52246 202.782508 
L 448.337094 209.367834 
L 450.151728 204.118211 
L 451.966362 197.470759 
L 453.780996 200.421731 
L 455.59563 205.360725 
L 457.410265 204.553091 
L 459.224899 206.572176 
L 461.039533 208.187445 
L 462.854167 208.591262 
L 464.668801 197.346508 
L 466.483435 204.584154 
L 468.29807 190.574805 
L 470.112704 198.340519 
L 471.927338 188.711034 
L 473.741972 193.836405 
L 475.556606 195.886554 
L 477.37124 183.243971 
L 479.185874 194.581914 
L 482.815143 191.009685 
L 484.629777 181.162759 
L 486.444411 188.524656 
L 488.259045 184.144794 
L 490.073679 180.137685 
L 491.888313 178.770919 
L 493.702948 180.386188 
L 495.517582 177.497342 
L 497.332216 177.248839 
L 499.14685 205.826668 
L 500.961484 184.486485 
L 502.776118 191.320314 
L 504.590752 185.325182 
L 506.405387 187.220016 
L 508.220021 199.707285 
L 510.034655 202.099125 
L 511.849289 188.369342 
L 513.663923 196.476748 
L 515.478557 183.896291 
L 517.293191 208.311696 
L 519.107826 182.653776 
L 520.92246 185.076679 
L 522.737094 177.776908 
L 524.551728 174.080428 
L 526.366362 182.933342 
L 528.180996 172.496222 
L 529.99563 177.994348 
L 531.810265 159.387696 
L 533.624899 160.288519 
L 535.439533 173.459171 
L 537.254167 175.602508 
L 539.068801 184.610736 
L 540.883435 164.326691 
L 542.69807 170.849891 
L 544.512704 173.521296 
L 546.327338 184.703925 
L 548.141972 186.909388 
L 549.956606 184.828176 
L 551.77124 173.614485 
L 553.585874 151.373479 
L 555.400509 166.283651 
L 559.029777 144.757091 
L 560.844411 161.531034 
L 562.659045 168.178485 
L 566.288313 179.920245 
L 568.102948 181.659765 
L 569.917582 169.483125 
L 571.732216 182.467399 
L 573.54685 167.432976 
L 575.361484 149.633959 
L 577.176118 167.277662 
L 578.990752 167.464039 
L 580.805387 177.373091 
L 582.620021 122.050142 
L 584.434655 165.786645 
L 586.249289 139.662782 
L 589.878557 179.858119 
L 591.693191 166.190462 
L 593.507826 171.968154 
L 595.32246 171.657525 
L 597.137094 167.557228 
L 598.951728 158.176245 
L 600.766362 173.769799 
L 602.580996 165.755582 
L 604.39563 163.705434 
L 606.210265 130.996245 
L 608.024899 83.190508 
L 609.839533 130.002234 
L 611.654167 149.447582 
L 613.468801 143.794142 
L 615.283435 148.671011 
L 617.09807 158.642188 
L 618.912704 165.258576 
L 620.727338 129.287788 
L 622.541972 124.876862 
L 624.356606 157.275422 
L 626.17124 154.013822 
L 627.985874 226.421342 
L 629.800509 151.497731 
L 631.615143 155.691216 
L 633.429777 149.074828 
L 635.244411 154.976771 
L 637.059045 157.120108 
L 638.873679 165.289639 
L 640.688313 166.314714 
L 642.502948 147.987628 
L 644.317582 117.297525 
L 646.132216 123.323719 
L 647.94685 194.395536 
L 649.761484 214.928085 
L 651.576118 200.856611 
L 653.390752 217.350988 
L 655.205387 183.306096 
L 657.020021 203.838645 
L 658.834655 235.212131 
L 660.649289 190.667994 
L 662.463923 134.226782 
L 664.278557 142.209936 
L 666.093191 142.986508 
L 667.907826 134.319971 
L 669.72246 152.087925 
L 671.537094 130.592428 
L 673.351728 136.121616 
L 675.166362 110.960702 
L 676.980996 143.141822 
L 678.79563 129.225662 
L 680.610265 124.224542 
L 682.424899 143.763079 
L 684.239533 123.882851 
L 686.054167 126.989136 
L 687.868801 118.633228 
L 689.683435 121.646325 
L 691.49807 123.789662 
L 693.312704 100.244016 
L 695.127338 97.230919 
L 696.941972 114.998874 
L 698.756606 112.638096 
L 700.57124 111.333456 
L 702.385874 117.049022 
L 704.200509 125.560245 
L 706.015143 215.611468 
L 707.829777 332.469936 
L 709.644411 267.983445 
L 711.459045 261.087491 
L 713.273679 241.238325 
L 715.088313 240.772382 
L 716.902948 241.921708 
L 718.717582 248.724474 
L 718.717582 248.724474 
" style="fill:none;stroke:#0000ff;stroke-linecap:round;stroke-width:1.8;"/>
   </g>
   <g id="patch_9">
    <path d="M 52.74685 369.527925 
L 52.74685 43.367925 
" style="fill:none;stroke:#262626;stroke-linecap:square;stroke-linejoin:miter;stroke-width:1.25;"/>
   </g>
   <g id="patch_10">
    <path d="M 722.34685 369.527925 
L 722.34685 43.367925 
" style="fill:none;stroke:#262626;stroke-linecap:square;stroke-linejoin:miter;stroke-width:1.25;"/>
   </g>
   <g id="patch_11">
    <path d="M 52.74685 369.527925 
L 722.34685 369.527925 
" style="fill:none;stroke:#262626;stroke-linecap:square;stroke-linejoin:miter;stroke-width:1.25;"/>
   </g>
   <g id="patch_12">
    <path d="M 52.74685 43.367925 
L 722.34685 43.367925 
" style="fill:none;stroke:#262626;stroke-linecap:square;stroke-linejoin:miter;stroke-width:1.25;"/>
   </g>
   <g id="patch_13">
    <path d="M 110.915278 309.624758 
Q 85.381663 292.467205 60.776035 275.933222 
" style="fill:none;stroke:#000000;stroke-linecap:round;"/>
    <path d="M 64.303384 282.158799 
L 60.776035 275.933222 
L 67.872906 276.846689 
" style="fill:none;stroke:#000000;stroke-linecap:round;"/>
   </g>
   <g id="text_22">
    <!-- New Years -->
    <defs>
     <path d="M 16.15625 0 
L 0.296875 51.859375 
L 9.375 51.859375 
L 17.625 21.921875 
L 20.703125 10.796875 
Q 20.90625 11.625 23.390625 21.484375 
L 31.640625 51.859375 
L 40.671875 51.859375 
L 48.4375 21.78125 
L 51.03125 11.859375 
L 54 21.875 
L 62.890625 51.859375 
L 71.4375 51.859375 
L 55.21875 0 
L 46.09375 0 
L 37.84375 31.0625 
L 35.84375 39.890625 
L 25.34375 0 
z
" id="ArialMT-119"/>
     <path id="ArialMT-32"/>
     <path d="M 27.875 0 
L 27.875 30.328125 
L 0.296875 71.578125 
L 11.8125 71.578125 
L 25.921875 50 
Q 29.828125 43.953125 33.203125 37.890625 
Q 36.421875 43.5 41.015625 50.53125 
L 54.890625 71.578125 
L 65.921875 71.578125 
L 37.359375 30.328125 
L 37.359375 0 
z
" id="ArialMT-89"/>
    </defs>
    <g style="fill:#262626;" transform="translate(88.190752 324.196016)scale(0.16 -0.16)">
     <use xlink:href="#ArialMT-78"/>
     <use x="72.216797" xlink:href="#ArialMT-101"/>
     <use x="127.832031" xlink:href="#ArialMT-119"/>
     <use x="200.048828" xlink:href="#ArialMT-32"/>
     <use x="226.082031" xlink:href="#ArialMT-89"/>
     <use x="283.65625" xlink:href="#ArialMT-101"/>
     <use x="339.271484" xlink:href="#ArialMT-97"/>
     <use x="394.886719" xlink:href="#ArialMT-114"/>
     <use x="428.1875" xlink:href="#ArialMT-115"/>
    </g>
   </g>
   <g id="patch_14">
    <path d="M 89.409146 132.996348 
Q 89.231344 158.408144 89.061365 182.701932 
" style="fill:none;stroke:#000000;stroke-linecap:round;"/>
    <path d="M 92.306065 176.324478 
L 89.061365 182.701932 
L 85.906222 176.2797 
" style="fill:none;stroke:#000000;stroke-linecap:round;"/>
   </g>
   <g id="text_23">
    <!-- MLK -->
    <defs>
     <path d="M 7.328125 0 
L 7.328125 71.578125 
L 16.796875 71.578125 
L 16.796875 8.453125 
L 52.046875 8.453125 
L 52.046875 0 
z
" id="ArialMT-76"/>
     <path d="M 7.328125 0 
L 7.328125 71.578125 
L 16.796875 71.578125 
L 16.796875 36.078125 
L 52.34375 71.578125 
L 65.1875 71.578125 
L 35.15625 42.578125 
L 66.5 0 
L 54 0 
L 28.515625 36.234375 
L 16.796875 24.8125 
L 16.796875 0 
z
" id="ArialMT-75"/>
    </defs>
    <g style="fill:#262626;" transform="translate(73.039533 125.822188)scale(0.16 -0.16)">
     <use xlink:href="#ArialMT-77"/>
     <use x="83.300781" xlink:href="#ArialMT-76"/>
     <use x="138.916016" xlink:href="#ArialMT-75"/>
    </g>
   </g>
   <g id="patch_15">
    <path d="M 145.325038 244.87941 
Q 145.309829 223.603271 145.29462 202.327132 
M 161.292329 199.115695 
L 161.294616 202.315694 
L 129.294624 202.338569 
L 129.292337 199.13857 
" style="fill:none;stroke:#000000;stroke-linecap:round;"/>
   </g>
   <g id="text_24">
    <!-- Washington's Birthday -->
    <defs>
     <path d="M 20.21875 0 
L 1.21875 71.578125 
L 10.9375 71.578125 
L 21.828125 24.65625 
Q 23.578125 17.28125 24.859375 10.015625 
Q 27.59375 21.484375 28.078125 23.25 
L 41.703125 71.578125 
L 53.125 71.578125 
L 63.375 35.359375 
Q 67.234375 21.875 68.953125 10.015625 
Q 70.3125 16.796875 72.515625 25.59375 
L 83.734375 71.578125 
L 93.265625 71.578125 
L 73.640625 0 
L 64.5 0 
L 49.421875 54.546875 
Q 47.515625 61.375 47.171875 62.9375 
Q 46.046875 58.015625 45.0625 54.546875 
L 29.890625 0 
z
" id="ArialMT-87"/>
     <path d="M 6.640625 46.234375 
L 4.390625 59.625 
L 4.390625 71.578125 
L 14.40625 71.578125 
L 14.40625 59.625 
L 12.0625 46.234375 
z
" id="ArialMT-39"/>
     <path d="M 7.328125 0 
L 7.328125 71.578125 
L 34.1875 71.578125 
Q 42.390625 71.578125 47.34375 69.40625 
Q 52.296875 67.234375 55.09375 62.71875 
Q 57.90625 58.203125 57.90625 53.265625 
Q 57.90625 48.6875 55.421875 44.625 
Q 52.9375 40.578125 47.90625 38.09375 
Q 54.390625 36.1875 57.875 31.59375 
Q 61.375 27 61.375 20.75 
Q 61.375 15.71875 59.25 11.390625 
Q 57.125 7.078125 54 4.734375 
Q 50.875 2.390625 46.15625 1.1875 
Q 41.453125 0 34.625 0 
z
M 16.796875 41.5 
L 32.28125 41.5 
Q 38.578125 41.5 41.3125 42.328125 
Q 44.921875 43.40625 46.75 45.890625 
Q 48.578125 48.390625 48.578125 52.15625 
Q 48.578125 55.71875 46.875 58.421875 
Q 45.171875 61.140625 41.984375 62.140625 
Q 38.8125 63.140625 31.109375 63.140625 
L 16.796875 63.140625 
z
M 16.796875 8.453125 
L 34.625 8.453125 
Q 39.203125 8.453125 41.0625 8.796875 
Q 44.34375 9.375 46.53125 10.734375 
Q 48.734375 12.109375 50.140625 14.71875 
Q 51.5625 17.328125 51.5625 20.75 
Q 51.5625 24.75 49.515625 27.703125 
Q 47.46875 30.671875 43.828125 31.859375 
Q 40.1875 33.0625 33.34375 33.0625 
L 16.796875 33.0625 
z
" id="ArialMT-66"/>
     <path d="M 40.234375 0 
L 40.234375 6.546875 
Q 35.296875 -1.171875 25.734375 -1.171875 
Q 19.53125 -1.171875 14.328125 2.25 
Q 9.125 5.671875 6.265625 11.796875 
Q 3.421875 17.921875 3.421875 25.875 
Q 3.421875 33.640625 6 39.96875 
Q 8.59375 46.296875 13.765625 49.65625 
Q 18.953125 53.03125 25.34375 53.03125 
Q 30.03125 53.03125 33.6875 51.046875 
Q 37.359375 49.078125 39.65625 45.90625 
L 39.65625 71.578125 
L 48.390625 71.578125 
L 48.390625 0 
z
M 12.453125 25.875 
Q 12.453125 15.921875 16.640625 10.984375 
Q 20.84375 6.0625 26.5625 6.0625 
Q 32.328125 6.0625 36.34375 10.765625 
Q 40.375 15.484375 40.375 25.140625 
Q 40.375 35.796875 36.265625 40.765625 
Q 32.171875 45.75 26.171875 45.75 
Q 20.3125 45.75 16.375 40.96875 
Q 12.453125 36.1875 12.453125 25.875 
z
" id="ArialMT-100"/>
    </defs>
    <g style="fill:#262626;" transform="translate(66.293191 260.328542)scale(0.16 -0.16)">
     <use xlink:href="#ArialMT-87"/>
     <use x="90.634766" xlink:href="#ArialMT-97"/>
     <use x="146.25" xlink:href="#ArialMT-115"/>
     <use x="196.25" xlink:href="#ArialMT-104"/>
     <use x="251.865234" xlink:href="#ArialMT-105"/>
     <use x="274.082031" xlink:href="#ArialMT-110"/>
     <use x="329.697266" xlink:href="#ArialMT-103"/>
     <use x="385.3125" xlink:href="#ArialMT-116"/>
     <use x="413.095703" xlink:href="#ArialMT-111"/>
     <use x="468.710938" xlink:href="#ArialMT-110"/>
     <use x="524.326172" xlink:href="#ArialMT-39"/>
     <use x="543.417969" xlink:href="#ArialMT-115"/>
     <use x="593.417969" xlink:href="#ArialMT-32"/>
     <use x="621.201172" xlink:href="#ArialMT-66"/>
     <use x="687.900391" xlink:href="#ArialMT-105"/>
     <use x="710.117188" xlink:href="#ArialMT-114"/>
     <use x="743.417969" xlink:href="#ArialMT-116"/>
     <use x="771.201172" xlink:href="#ArialMT-104"/>
     <use x="826.816406" xlink:href="#ArialMT-100"/>
     <use x="882.431641" xlink:href="#ArialMT-97"/>
     <use x="938.046875" xlink:href="#ArialMT-121"/>
    </g>
   </g>
   <g id="patch_16">
    <path d="M 327.013104 280.596609 
Q 326.892291 264.326314 326.771479 248.05602 
M 342.747277 244.737306 
L 342.771038 247.937218 
L 310.77192 248.174822 
L 310.748159 244.97491 
" style="fill:none;stroke:#000000;stroke-linecap:round;"/>
   </g>
   <g id="text_25">
    <!-- Memorial Day -->
    <g style="fill:#262626;" transform="translate(277.756606 296.053068)scale(0.16 -0.16)">
     <use xlink:href="#ArialMT-77"/>
     <use x="83.300781" xlink:href="#ArialMT-101"/>
     <use x="138.916016" xlink:href="#ArialMT-109"/>
     <use x="222.216797" xlink:href="#ArialMT-111"/>
     <use x="277.832031" xlink:href="#ArialMT-114"/>
     <use x="311.132812" xlink:href="#ArialMT-105"/>
     <use x="333.349609" xlink:href="#ArialMT-97"/>
     <use x="388.964844" xlink:href="#ArialMT-108"/>
     <use x="411.181641" xlink:href="#ArialMT-32"/>
     <use x="438.964844" xlink:href="#ArialMT-68"/>
     <use x="511.181641" xlink:href="#ArialMT-97"/>
     <use x="566.796875" xlink:href="#ArialMT-121"/>
    </g>
   </g>
   <g id="patch_17">
    <path d="M 421.556897 296.27866 
Q 408.34957 279.667402 395.838047 263.931277 
" style="fill:none;stroke:#000000;stroke-linecap:round;"/>
    <path d="M 397.316281 270.932336 
L 395.838047 263.931277 
L 402.325835 266.949326 
" style="fill:none;stroke:#000000;stroke-linecap:round;"/>
   </g>
   <g id="text_26">
    <!-- 4th of July -->
    <defs>
     <path d="M 8.6875 0 
L 8.6875 45.015625 
L 0.921875 45.015625 
L 0.921875 51.859375 
L 8.6875 51.859375 
L 8.6875 57.375 
Q 8.6875 62.59375 9.625 65.140625 
Q 10.890625 68.5625 14.078125 70.671875 
Q 17.28125 72.796875 23.046875 72.796875 
Q 26.765625 72.796875 31.25 71.921875 
L 29.9375 64.265625 
Q 27.203125 64.75 24.75 64.75 
Q 20.75 64.75 19.09375 63.03125 
Q 17.4375 61.328125 17.4375 56.640625 
L 17.4375 51.859375 
L 27.546875 51.859375 
L 27.546875 45.015625 
L 17.4375 45.015625 
L 17.4375 0 
z
" id="ArialMT-102"/>
    </defs>
    <g style="fill:#262626;" transform="translate(393.89807 311.491308)scale(0.16 -0.16)">
     <use xlink:href="#ArialMT-52"/>
     <use x="55.615234" xlink:href="#ArialMT-116"/>
     <use x="83.398438" xlink:href="#ArialMT-104"/>
     <use x="139.013672" xlink:href="#ArialMT-32"/>
     <use x="166.796875" xlink:href="#ArialMT-111"/>
     <use x="222.412109" xlink:href="#ArialMT-102"/>
     <use x="250.195312" xlink:href="#ArialMT-32"/>
     <use x="277.978516" xlink:href="#ArialMT-74"/>
     <use x="327.978516" xlink:href="#ArialMT-117"/>
     <use x="383.59375" xlink:href="#ArialMT-108"/>
     <use x="405.810547" xlink:href="#ArialMT-121"/>
    </g>
   </g>
   <g id="patch_18">
    <path d="M 506.33586 250.155009 
Q 506.368607 233.884714 506.401355 217.61442 
M 522.407763 214.44663 
L 522.401323 217.646623 
L 490.401388 217.582216 
L 490.407828 214.382223 
" style="fill:none;stroke:#000000;stroke-linecap:round;"/>
   </g>
   <g id="text_27">
    <!-- Labor Day -->
    <g style="fill:#262626;" transform="translate(469.405387 265.611468)scale(0.16 -0.16)">
     <use xlink:href="#ArialMT-76"/>
     <use x="55.615234" xlink:href="#ArialMT-97"/>
     <use x="111.230469" xlink:href="#ArialMT-98"/>
     <use x="166.845703" xlink:href="#ArialMT-111"/>
     <use x="222.460938" xlink:href="#ArialMT-114"/>
     <use x="255.761719" xlink:href="#ArialMT-32"/>
     <use x="283.544922" xlink:href="#ArialMT-68"/>
     <use x="355.761719" xlink:href="#ArialMT-97"/>
     <use x="411.376953" xlink:href="#ArialMT-121"/>
    </g>
   </g>
   <g id="patch_19">
    <path d="M 573.836941 211.142405 
Q 573.706875 202.4638 573.576808 193.785195 
M 589.527058 190.345788 
L 589.575012 193.545429 
L 557.578605 194.02496 
L 557.530652 190.82532 
" style="fill:none;stroke:#000000;stroke-linecap:round;"/>
   </g>
   <g id="text_28">
    <!-- Columbus Day -->
    <g style="fill:#262626;" transform="translate(521.54685 226.786256)scale(0.16 -0.16)">
     <use xlink:href="#ArialMT-67"/>
     <use x="72.216797" xlink:href="#ArialMT-111"/>
     <use x="127.832031" xlink:href="#ArialMT-108"/>
     <use x="150.048828" xlink:href="#ArialMT-117"/>
     <use x="205.664062" xlink:href="#ArialMT-109"/>
     <use x="288.964844" xlink:href="#ArialMT-98"/>
     <use x="344.580078" xlink:href="#ArialMT-117"/>
     <use x="400.195312" xlink:href="#ArialMT-115"/>
     <use x="450.195312" xlink:href="#ArialMT-32"/>
     <use x="477.978516" xlink:href="#ArialMT-68"/>
     <use x="550.195312" xlink:href="#ArialMT-97"/>
     <use x="605.810547" xlink:href="#ArialMT-121"/>
    </g>
   </g>
   <g id="patch_20">
    <path d="M 596.084526 271.369961 
Q 612.342651 249.695366 627.929898 228.915155 
" style="fill:none;stroke:#000000;stroke-linecap:round;"/>
    <path d="M 621.529692 232.114743 
L 627.929898 228.915155 
L 626.649445 235.955073 
" style="fill:none;stroke:#000000;stroke-linecap:round;"/>
   </g>
   <g id="text_29">
    <!-- Veterans Day -->
    <defs>
     <path d="M 28.171875 0 
L 0.4375 71.578125 
L 10.6875 71.578125 
L 29.296875 19.578125 
Q 31.546875 13.328125 33.0625 7.859375 
Q 34.71875 13.71875 36.921875 19.578125 
L 56.25 71.578125 
L 65.921875 71.578125 
L 37.890625 0 
z
" id="ArialMT-86"/>
    </defs>
    <g style="fill:#262626;" transform="translate(539.800509 286.421342)scale(0.16 -0.16)">
     <use xlink:href="#ArialMT-86"/>
     <use x="61.199219" xlink:href="#ArialMT-101"/>
     <use x="116.814453" xlink:href="#ArialMT-116"/>
     <use x="144.597656" xlink:href="#ArialMT-101"/>
     <use x="200.212891" xlink:href="#ArialMT-114"/>
     <use x="233.513672" xlink:href="#ArialMT-97"/>
     <use x="289.128906" xlink:href="#ArialMT-110"/>
     <use x="344.744141" xlink:href="#ArialMT-115"/>
     <use x="394.744141" xlink:href="#ArialMT-32"/>
     <use x="422.527344" xlink:href="#ArialMT-68"/>
     <use x="494.744141" xlink:href="#ArialMT-97"/>
     <use x="550.359375" xlink:href="#ArialMT-121"/>
    </g>
   </g>
   <g id="patch_21">
    <path d="M 655.316006 295.19909 
Q 655.262725 268.924133 655.209444 242.649176 
M 671.202922 239.416738 
L 671.209411 242.616731 
L 639.209477 242.681621 
L 639.202988 239.481628 
" style="fill:none;stroke:#000000;stroke-linecap:round;"/>
   </g>
   <g id="text_30">
    <!-- Thanksgiving -->
    <defs>
     <path d="M 25.921875 0 
L 25.921875 63.140625 
L 2.34375 63.140625 
L 2.34375 71.578125 
L 59.078125 71.578125 
L 59.078125 63.140625 
L 35.40625 63.140625 
L 35.40625 0 
z
" id="ArialMT-84"/>
     <path d="M 6.640625 0 
L 6.640625 71.578125 
L 15.4375 71.578125 
L 15.4375 30.765625 
L 36.234375 51.859375 
L 47.609375 51.859375 
L 27.78125 32.625 
L 49.609375 0 
L 38.765625 0 
L 21.625 26.515625 
L 15.4375 20.5625 
L 15.4375 0 
z
" id="ArialMT-107"/>
    </defs>
    <g style="fill:#262626;" transform="translate(608.205387 310.648131)scale(0.16 -0.16)">
     <use xlink:href="#ArialMT-84"/>
     <use x="61.083984" xlink:href="#ArialMT-104"/>
     <use x="116.699219" xlink:href="#ArialMT-97"/>
     <use x="172.314453" xlink:href="#ArialMT-110"/>
     <use x="227.929688" xlink:href="#ArialMT-107"/>
     <use x="277.929688" xlink:href="#ArialMT-115"/>
     <use x="327.929688" xlink:href="#ArialMT-103"/>
     <use x="383.544922" xlink:href="#ArialMT-105"/>
     <use x="405.761719" xlink:href="#ArialMT-118"/>
     <use x="455.761719" xlink:href="#ArialMT-105"/>
     <use x="477.978516" xlink:href="#ArialMT-110"/>
     <use x="533.59375" xlink:href="#ArialMT-103"/>
    </g>
   </g>
   <g id="patch_22">
    <path d="M 695.637724 333.990964 
Q 701.647673 333.338326 706.546123 332.806389 
" style="fill:none;stroke:#000000;stroke-linecap:round;"/>
    <path d="M 699.838062 330.316025 
L 706.546123 332.806389 
L 700.528995 336.678619 
" style="fill:none;stroke:#000000;stroke-linecap:round;"/>
   </g>
   <g id="text_31">
    <!-- Christmas -->
    <g style="fill:#262626;" transform="translate(619.644411 342.469936)scale(0.16 -0.16)">
     <use xlink:href="#ArialMT-67"/>
     <use x="72.216797" xlink:href="#ArialMT-104"/>
     <use x="127.832031" xlink:href="#ArialMT-114"/>
     <use x="161.132812" xlink:href="#ArialMT-105"/>
     <use x="183.349609" xlink:href="#ArialMT-115"/>
     <use x="233.349609" xlink:href="#ArialMT-116"/>
     <use x="261.132812" xlink:href="#ArialMT-109"/>
     <use x="344.433594" xlink:href="#ArialMT-97"/>
     <use x="400.048828" xlink:href="#ArialMT-115"/>
    </g>
   </g>
   <g id="patch_23">
    <path d="M 590.020809 89.162429 
Q 598.973347 86.464786 606.855394 84.08971 
" style="fill:none;stroke:#000000;stroke-linecap:round;"/>
    <path d="M 599.804305 82.872275 
L 606.855394 84.08971 
L 601.650792 89.00012 
" style="fill:none;stroke:#000000;stroke-linecap:round;"/>
   </g>
   <g id="text_32">
    <!-- Halloween -->
    <defs>
     <path d="M 8.015625 0 
L 8.015625 71.578125 
L 17.484375 71.578125 
L 17.484375 42.1875 
L 54.6875 42.1875 
L 54.6875 71.578125 
L 64.15625 71.578125 
L 64.15625 0 
L 54.6875 0 
L 54.6875 33.734375 
L 17.484375 33.734375 
L 17.484375 0 
z
" id="ArialMT-72"/>
    </defs>
    <g style="fill:#262626;" transform="translate(519.839533 103.190508)scale(0.16 -0.16)">
     <use xlink:href="#ArialMT-72"/>
     <use x="72.216797" xlink:href="#ArialMT-97"/>
     <use x="127.832031" xlink:href="#ArialMT-108"/>
     <use x="150.048828" xlink:href="#ArialMT-108"/>
     <use x="172.265625" xlink:href="#ArialMT-111"/>
     <use x="227.880859" xlink:href="#ArialMT-119"/>
     <use x="300.097656" xlink:href="#ArialMT-101"/>
     <use x="355.712891" xlink:href="#ArialMT-101"/>
     <use x="411.328125" xlink:href="#ArialMT-110"/>
    </g>
   </g>
   <g id="patch_24">
    <path d="M 157.637774 90.511043 
Q 148.251991 111.010409 139.331642 130.493226 
" style="fill:none;stroke:#000000;stroke-linecap:round;"/>
    <path d="M 144.905475 126.006313 
L 139.331642 130.493226 
L 139.086411 123.342012 
" style="fill:none;stroke:#000000;stroke-linecap:round;"/>
   </g>
   <g id="text_33">
    <!-- Valentine's Day -->
    <g style="fill:#262626;" transform="translate(108.034655 83.325959)scale(0.16 -0.16)">
     <use xlink:href="#ArialMT-86"/>
     <use x="59.324219" xlink:href="#ArialMT-97"/>
     <use x="114.939453" xlink:href="#ArialMT-108"/>
     <use x="137.15625" xlink:href="#ArialMT-101"/>
     <use x="192.771484" xlink:href="#ArialMT-110"/>
     <use x="248.386719" xlink:href="#ArialMT-116"/>
     <use x="276.169922" xlink:href="#ArialMT-105"/>
     <use x="298.386719" xlink:href="#ArialMT-110"/>
     <use x="354.001953" xlink:href="#ArialMT-101"/>
     <use x="409.617188" xlink:href="#ArialMT-39"/>
     <use x="428.708984" xlink:href="#ArialMT-115"/>
     <use x="478.708984" xlink:href="#ArialMT-32"/>
     <use x="506.492188" xlink:href="#ArialMT-68"/>
     <use x="578.708984" xlink:href="#ArialMT-97"/>
     <use x="634.324219" xlink:href="#ArialMT-121"/>
    </g>
   </g>
   <g id="patch_25">
    <path d="M 240.348851 124.688551 
Q 219.023914 140.798475 198.591064 156.234472 
" style="fill:none;stroke:#000000;stroke-linecap:round;"/>
    <path d="M 205.626568 154.929988 
L 198.591064 156.234472 
L 201.76878 149.823378 
" style="fill:none;stroke:#000000;stroke-linecap:round;"/>
   </g>
   <g id="text_34">
    <!-- St. Patrick's Day -->
    <defs>
     <path d="M 9.078125 0 
L 9.078125 10.015625 
L 19.09375 10.015625 
L 19.09375 0 
z
" id="ArialMT-46"/>
     <path d="M 7.71875 0 
L 7.71875 71.578125 
L 34.71875 71.578125 
Q 41.84375 71.578125 45.609375 70.90625 
Q 50.875 70.015625 54.4375 67.546875 
Q 58.015625 65.09375 60.1875 60.640625 
Q 62.359375 56.203125 62.359375 50.875 
Q 62.359375 41.75 56.546875 35.421875 
Q 50.734375 29.109375 35.546875 29.109375 
L 17.1875 29.109375 
L 17.1875 0 
z
M 17.1875 37.546875 
L 35.6875 37.546875 
Q 44.875 37.546875 48.734375 40.96875 
Q 52.59375 44.390625 52.59375 50.59375 
Q 52.59375 55.078125 50.3125 58.265625 
Q 48.046875 61.46875 44.34375 62.5 
Q 41.9375 63.140625 35.5 63.140625 
L 17.1875 63.140625 
z
" id="ArialMT-80"/>
    </defs>
    <g style="fill:#262626;" transform="translate(196.102948 118.114119)scale(0.16 -0.16)">
     <use xlink:href="#ArialMT-83"/>
     <use x="66.699219" xlink:href="#ArialMT-116"/>
     <use x="94.482422" xlink:href="#ArialMT-46"/>
     <use x="122.265625" xlink:href="#ArialMT-32"/>
     <use x="150.048828" xlink:href="#ArialMT-80"/>
     <use x="216.748047" xlink:href="#ArialMT-97"/>
     <use x="272.363281" xlink:href="#ArialMT-116"/>
     <use x="300.146484" xlink:href="#ArialMT-114"/>
     <use x="333.447266" xlink:href="#ArialMT-105"/>
     <use x="355.664062" xlink:href="#ArialMT-99"/>
     <use x="405.664062" xlink:href="#ArialMT-107"/>
     <use x="455.664062" xlink:href="#ArialMT-39"/>
     <use x="474.755859" xlink:href="#ArialMT-115"/>
     <use x="524.755859" xlink:href="#ArialMT-32"/>
     <use x="552.539062" xlink:href="#ArialMT-68"/>
     <use x="624.755859" xlink:href="#ArialMT-97"/>
     <use x="680.371094" xlink:href="#ArialMT-121"/>
    </g>
   </g>
   <g id="text_35">
    <!-- Mean Crashes by Date (20012015) -->
    <defs>
     <path d="M 23.390625 -21.046875 
Q 16.109375 -11.859375 11.078125 0.4375 
Q 6.0625 12.75 6.0625 25.921875 
Q 6.0625 37.546875 9.8125 48.1875 
Q 14.203125 60.546875 23.390625 72.796875 
L 29.6875 72.796875 
Q 23.78125 62.640625 21.875 58.296875 
Q 18.890625 51.5625 17.1875 44.234375 
Q 15.09375 35.109375 15.09375 25.875 
Q 15.09375 2.390625 29.6875 -21.046875 
z
" id="ArialMT-40"/>
     <path d="M -0.203125 22.359375 
L -0.203125 29.4375 
L 55.421875 29.4375 
L 55.421875 22.359375 
z
" id="ArialMT-8211"/>
     <path d="M 4.15625 18.75 
L 13.375 19.53125 
Q 14.40625 12.796875 18.140625 9.390625 
Q 21.875 6 27.15625 6 
Q 33.5 6 37.890625 10.78125 
Q 42.28125 15.578125 42.28125 23.484375 
Q 42.28125 31 38.0625 35.34375 
Q 33.84375 39.703125 27 39.703125 
Q 22.75 39.703125 19.328125 37.765625 
Q 15.921875 35.84375 13.96875 32.765625 
L 5.71875 33.84375 
L 12.640625 70.609375 
L 48.25 70.609375 
L 48.25 62.203125 
L 19.671875 62.203125 
L 15.828125 42.96875 
Q 22.265625 47.46875 29.34375 47.46875 
Q 38.71875 47.46875 45.15625 40.96875 
Q 51.609375 34.46875 51.609375 24.265625 
Q 51.609375 14.546875 45.953125 7.46875 
Q 39.0625 -1.21875 27.15625 -1.21875 
Q 17.390625 -1.21875 11.203125 4.25 
Q 5.03125 9.71875 4.15625 18.75 
z
" id="ArialMT-53"/>
     <path d="M 12.359375 -21.046875 
L 6.0625 -21.046875 
Q 20.65625 2.390625 20.65625 25.875 
Q 20.65625 35.0625 18.5625 44.09375 
Q 16.890625 51.421875 13.921875 58.15625 
Q 12.015625 62.546875 6.0625 72.796875 
L 12.359375 72.796875 
Q 21.53125 60.546875 25.921875 48.1875 
Q 29.6875 37.546875 29.6875 25.921875 
Q 29.6875 12.75 24.625 0.4375 
Q 19.578125 -11.859375 12.359375 -21.046875 
z
" id="ArialMT-41"/>
    </defs>
    <g style="fill:#262626;" transform="translate(161.09685 27.583125)scale(0.28 -0.28)">
     <use xlink:href="#ArialMT-77"/>
     <use x="83.300781" xlink:href="#ArialMT-101"/>
     <use x="138.916016" xlink:href="#ArialMT-97"/>
     <use x="194.53125" xlink:href="#ArialMT-110"/>
     <use x="250.146484" xlink:href="#ArialMT-32"/>
     <use x="277.929688" xlink:href="#ArialMT-67"/>
     <use x="350.146484" xlink:href="#ArialMT-114"/>
     <use x="383.447266" xlink:href="#ArialMT-97"/>
     <use x="439.0625" xlink:href="#ArialMT-115"/>
     <use x="489.0625" xlink:href="#ArialMT-104"/>
     <use x="544.677734" xlink:href="#ArialMT-101"/>
     <use x="600.292969" xlink:href="#ArialMT-115"/>
     <use x="650.292969" xlink:href="#ArialMT-32"/>
     <use x="678.076172" xlink:href="#ArialMT-98"/>
     <use x="733.691406" xlink:href="#ArialMT-121"/>
     <use x="783.691406" xlink:href="#ArialMT-32"/>
     <use x="811.474609" xlink:href="#ArialMT-68"/>
     <use x="883.691406" xlink:href="#ArialMT-97"/>
     <use x="939.306641" xlink:href="#ArialMT-116"/>
     <use x="967.089844" xlink:href="#ArialMT-101"/>
     <use x="1022.705078" xlink:href="#ArialMT-32"/>
     <use x="1050.488281" xlink:href="#ArialMT-40"/>
     <use x="1083.789062" xlink:href="#ArialMT-50"/>
     <use x="1139.404297" xlink:href="#ArialMT-48"/>
     <use x="1195.019531" xlink:href="#ArialMT-48"/>
     <use x="1250.634766" xlink:href="#ArialMT-49"/>
     <use x="1306.25" xlink:href="#ArialMT-8211"/>
     <use x="1361.865234" xlink:href="#ArialMT-50"/>
     <use x="1417.480469" xlink:href="#ArialMT-48"/>
     <use x="1473.095703" xlink:href="#ArialMT-49"/>
     <use x="1528.710938" xlink:href="#ArialMT-53"/>
     <use x="1584.326172" xlink:href="#ArialMT-41"/>
    </g>
   </g>
  </g>
 </g>
 <defs>
  <clipPath id="pfa343a025e">
   <rect height="326.16" width="669.6" x="52.74685" y="43.367925"/>
  </clipPath>
 </defs>
</svg>
