<?xml version="1.0" encoding="utf-8" standalone="no"?>
<!DOCTYPE svg PUBLIC "-//W3C//DTD SVG 1.1//EN"
  "http://www.w3.org/Graphics/SVG/1.1/DTD/svg11.dtd">
<!-- Created with matplotlib (http://matplotlib.org/) -->
<svg height="391.7373pt" version="1.1" viewBox="0 0 727.0682 391.7373" width="727.0682pt" xmlns="http://www.w3.org/2000/svg" xmlns:xlink="http://www.w3.org/1999/xlink">
 <defs>
  <style type="text/css">
*{stroke-linecap:butt;stroke-linejoin:round;}
  </style>
 </defs>
 <g id="figure_1">
  <g id="patch_1">
   <path d="M 0 391.7373 
L 727.0682 391.7373 
L 727.0682 0 
L 0 0 
z
" style="fill:#ffffff;"/>
  </g>
  <g id="axes_1">
   <g id="patch_2">
    <path d="M 50.2682 367.986675 
L 719.8682 367.986675 
L 719.8682 41.826675 
L 50.2682 41.826675 
z
" style="fill:#ffffff;"/>
   </g>
   <g id="matplotlib.axis_1">
    <g id="xtick_1">
     <g id="text_1">
      <!-- Sunday (DST) -->
      <defs>
       <path d="M 62.109375 19 
Q 62.109375 14.65625 60.421875 10.984375 
Q 58.734375 7.328125 55.21875 4.65625 
Q 51.703125 2 46.359375 0.5 
Q 41.015625 -0.984375 33.6875 -0.984375 
Q 20.84375 -0.984375 13.671875 3.515625 
Q 6.5 8.015625 4.546875 16.5 
L 13.578125 18.3125 
Q 14.265625 15.625 15.671875 13.421875 
Q 17.09375 11.234375 19.5 9.640625 
Q 21.921875 8.0625 25.484375 7.171875 
Q 29.046875 6.296875 34.03125 6.296875 
Q 38.1875 6.296875 41.65625 7 
Q 45.125 7.71875 47.609375 9.171875 
Q 50.09375 10.640625 51.484375 12.953125 
Q 52.875 15.28125 52.875 18.5 
Q 52.875 21.875 51.34375 23.96875 
Q 49.8125 26.078125 47.015625 27.4375 
Q 44.234375 28.8125 40.375 29.734375 
Q 36.53125 30.671875 31.84375 31.734375 
Q 28.953125 32.375 26.046875 33.125 
Q 23.140625 33.890625 20.484375 34.9375 
Q 17.828125 35.984375 15.484375 37.390625 
Q 13.140625 38.8125 11.421875 40.796875 
Q 9.71875 42.78125 8.734375 45.390625 
Q 7.765625 48 7.765625 51.421875 
Q 7.765625 56.296875 9.734375 59.78125 
Q 11.71875 63.28125 15.234375 65.53125 
Q 18.75 67.78125 23.53125 68.796875 
Q 28.328125 69.828125 33.890625 69.828125 
Q 40.28125 69.828125 44.8125 68.828125 
Q 49.359375 67.828125 52.484375 65.8125 
Q 55.609375 63.8125 57.484375 60.859375 
Q 59.375 57.90625 60.5 54 
L 51.3125 52.390625 
Q 50.640625 54.890625 49.34375 56.84375 
Q 48.046875 58.796875 45.9375 60.109375 
Q 43.84375 61.421875 40.84375 62.109375 
Q 37.84375 62.796875 33.796875 62.796875 
Q 29 62.796875 25.75 61.9375 
Q 22.515625 61.078125 20.53125 59.609375 
Q 18.5625 58.15625 17.703125 56.171875 
Q 16.84375 54.203125 16.84375 51.90625 
Q 16.84375 48.828125 18.375 46.84375 
Q 19.921875 44.875 22.5625 43.546875 
Q 25.203125 42.234375 28.65625 41.359375 
Q 32.125 40.484375 36.03125 39.59375 
Q 39.203125 38.875 42.359375 38.109375 
Q 45.515625 37.359375 48.390625 36.296875 
Q 51.265625 35.25 53.78125 33.828125 
Q 56.296875 32.421875 58.15625 30.375 
Q 60.015625 28.328125 61.0625 25.53125 
Q 62.109375 22.75 62.109375 19 
z
" id="LiberationSans-53"/>
       <path d="M 15.328125 52.828125 
L 15.328125 19.34375 
Q 15.328125 15.484375 15.890625 12.890625 
Q 16.453125 10.296875 17.71875 8.703125 
Q 19 7.125 21.0625 6.46875 
Q 23.140625 5.8125 26.21875 5.8125 
Q 29.34375 5.8125 31.859375 6.90625 
Q 34.375 8.015625 36.15625 10.078125 
Q 37.9375 12.15625 38.90625 15.203125 
Q 39.890625 18.265625 39.890625 22.21875 
L 39.890625 52.828125 
L 48.6875 52.828125 
L 48.6875 11.28125 
Q 48.6875 9.625 48.703125 7.78125 
Q 48.734375 5.953125 48.78125 4.3125 
Q 48.828125 2.6875 48.875 1.515625 
Q 48.921875 0.34375 48.96875 0 
L 40.671875 0 
Q 40.625 0.25 40.578125 1.3125 
Q 40.53125 2.390625 40.453125 3.78125 
Q 40.375 5.171875 40.328125 6.609375 
Q 40.28125 8.0625 40.28125 9.03125 
L 40.140625 9.03125 
Q 38.875 6.734375 37.359375 4.875 
Q 35.84375 3.03125 33.84375 1.734375 
Q 31.84375 0.4375 29.25 -0.265625 
Q 26.65625 -0.984375 23.25 -0.984375 
Q 18.84375 -0.984375 15.671875 0.09375 
Q 12.5 1.171875 10.453125 3.421875 
Q 8.40625 5.671875 7.453125 9.1875 
Q 6.5 12.703125 6.5 17.625 
L 6.5 52.828125 
z
" id="LiberationSans-75"/>
       <path d="M 40.28125 0 
L 40.28125 33.5 
Q 40.28125 37.359375 39.71875 39.9375 
Q 39.15625 42.53125 37.890625 44.109375 
Q 36.625 45.703125 34.546875 46.359375 
Q 32.46875 47.015625 29.390625 47.015625 
Q 26.265625 47.015625 23.75 45.921875 
Q 21.234375 44.828125 19.453125 42.75 
Q 17.671875 40.671875 16.6875 37.625 
Q 15.71875 34.578125 15.71875 30.609375 
L 15.71875 0 
L 6.9375 0 
L 6.9375 41.546875 
Q 6.9375 43.21875 6.90625 45.046875 
Q 6.890625 46.875 6.828125 48.5 
Q 6.78125 50.140625 6.734375 51.3125 
Q 6.6875 52.484375 6.640625 52.828125 
L 14.9375 52.828125 
Q 14.984375 52.59375 15.03125 51.515625 
Q 15.09375 50.4375 15.15625 49.046875 
Q 15.234375 47.65625 15.28125 46.21875 
Q 15.328125 44.78125 15.328125 43.796875 
L 15.484375 43.796875 
Q 16.75 46.09375 18.265625 47.953125 
Q 19.78125 49.8125 21.78125 51.09375 
Q 23.78125 52.390625 26.359375 53.09375 
Q 28.953125 53.8125 32.375 53.8125 
Q 36.765625 53.8125 39.9375 52.734375 
Q 43.109375 51.65625 45.15625 49.40625 
Q 47.21875 47.171875 48.171875 43.625 
Q 49.125 40.09375 49.125 35.203125 
L 49.125 0 
z
" id="LiberationSans-6e"/>
       <path d="M 40.09375 8.5 
Q 37.640625 3.421875 33.609375 1.21875 
Q 29.59375 -0.984375 23.640625 -0.984375 
Q 13.625 -0.984375 8.90625 5.75 
Q 4.203125 12.5 4.203125 26.171875 
Q 4.203125 53.8125 23.640625 53.8125 
Q 29.640625 53.8125 33.640625 51.609375 
Q 37.640625 49.421875 40.09375 44.625 
L 40.1875 44.625 
Q 40.1875 45.125 40.15625 46.171875 
Q 40.140625 47.21875 40.109375 48.359375 
Q 40.09375 49.515625 40.09375 50.53125 
Q 40.09375 51.5625 40.09375 52 
L 40.09375 72.46875 
L 48.875 72.46875 
L 48.875 10.890625 
Q 48.875 8.984375 48.890625 7.21875 
Q 48.921875 5.46875 48.96875 4 
Q 49.03125 2.546875 49.078125 1.484375 
Q 49.125 0.4375 49.171875 0 
L 40.765625 0 
Q 40.671875 0.484375 40.59375 1.390625 
Q 40.53125 2.296875 40.453125 3.46875 
Q 40.375 4.640625 40.328125 5.9375 
Q 40.28125 7.234375 40.28125 8.5 
z
M 13.421875 26.46875 
Q 13.421875 21 14.109375 17.09375 
Q 14.796875 13.1875 16.3125 10.671875 
Q 17.828125 8.15625 20.171875 6.984375 
Q 22.515625 5.8125 25.875 5.8125 
Q 29.34375 5.8125 32 6.9375 
Q 34.671875 8.0625 36.453125 10.578125 
Q 38.234375 13.09375 39.15625 17.140625 
Q 40.09375 21.1875 40.09375 27.046875 
Q 40.09375 32.671875 39.15625 36.546875 
Q 38.234375 40.4375 36.421875 42.828125 
Q 34.625 45.21875 32 46.265625 
Q 29.390625 47.3125 25.984375 47.3125 
Q 22.75 47.3125 20.40625 46.1875 
Q 18.0625 45.0625 16.5 42.578125 
Q 14.9375 40.09375 14.171875 36.109375 
Q 13.421875 32.125 13.421875 26.46875 
z
" id="LiberationSans-64"/>
       <path d="M 20.21875 -0.984375 
Q 12.25 -0.984375 8.25 3.21875 
Q 4.25 7.421875 4.25 14.75 
Q 4.25 19.96875 6.21875 23.3125 
Q 8.203125 26.65625 11.390625 28.5625 
Q 14.59375 30.46875 18.6875 31.203125 
Q 22.796875 31.9375 27.046875 32.03125 
L 38.921875 32.234375 
L 38.921875 35.109375 
Q 38.921875 38.375 38.234375 40.671875 
Q 37.546875 42.96875 36.125 44.375 
Q 34.71875 45.796875 32.59375 46.453125 
Q 30.46875 47.125 27.59375 47.125 
Q 25.046875 47.125 23 46.75 
Q 20.953125 46.390625 19.4375 45.4375 
Q 17.921875 44.484375 16.984375 42.84375 
Q 16.0625 41.21875 15.765625 38.71875 
L 6.59375 39.546875 
Q 7.078125 42.671875 8.4375 45.28125 
Q 9.8125 47.90625 12.328125 49.796875 
Q 14.84375 51.703125 18.625 52.75 
Q 22.40625 53.8125 27.78125 53.8125 
Q 37.75 53.8125 42.765625 49.234375 
Q 47.796875 44.671875 47.796875 36.03125 
L 47.796875 13.28125 
Q 47.796875 9.375 48.828125 7.390625 
Q 49.859375 5.421875 52.734375 5.421875 
Q 53.46875 5.421875 54.203125 5.515625 
Q 54.9375 5.609375 55.609375 5.765625 
L 55.609375 0.296875 
Q 53.953125 -0.09375 52.3125 -0.28125 
Q 50.6875 -0.484375 48.828125 -0.484375 
Q 46.34375 -0.484375 44.5625 0.171875 
Q 42.78125 0.828125 41.65625 2.171875 
Q 40.53125 3.515625 39.9375 5.484375 
Q 39.359375 7.46875 39.203125 10.109375 
L 38.921875 10.109375 
Q 37.5 7.5625 35.8125 5.515625 
Q 34.125 3.46875 31.875 2.03125 
Q 29.640625 0.59375 26.78125 -0.1875 
Q 23.921875 -0.984375 20.21875 -0.984375 
z
M 22.21875 5.609375 
Q 26.421875 5.609375 29.5625 7.140625 
Q 32.71875 8.6875 34.78125 11.078125 
Q 36.859375 13.484375 37.890625 16.3125 
Q 38.921875 19.140625 38.921875 21.734375 
L 38.921875 26.078125 
L 29.296875 25.875 
Q 26.078125 25.828125 23.171875 25.40625 
Q 20.265625 25 18.0625 23.78125 
Q 15.875 22.5625 14.578125 20.359375 
Q 13.28125 18.171875 13.28125 14.59375 
Q 13.28125 10.296875 15.59375 7.953125 
Q 17.921875 5.609375 22.21875 5.609375 
z
" id="LiberationSans-61"/>
       <path d="M 29.5 0 
Q 27.640625 -4.78125 25.703125 -8.609375 
Q 23.78125 -12.453125 21.390625 -15.15625 
Q 19 -17.875 16.0625 -19.3125 
Q 13.140625 -20.75 9.328125 -20.75 
Q 7.671875 -20.75 6.25 -20.65625 
Q 4.828125 -20.5625 3.265625 -20.21875 
L 3.265625 -13.625 
Q 4.203125 -13.765625 5.375 -13.84375 
Q 6.546875 -13.921875 7.375 -13.921875 
Q 11.234375 -13.921875 14.546875 -11.03125 
Q 17.875 -8.15625 20.359375 -1.859375 
L 21.1875 0.25 
L 0.25 52.828125 
L 9.625 52.828125 
L 20.75 23.640625 
Q 21.234375 22.3125 21.984375 20.109375 
Q 22.75 17.921875 23.5 15.71875 
Q 24.265625 13.53125 24.84375 11.765625 
Q 25.4375 10.015625 25.53125 9.578125 
Q 25.6875 10.109375 26.25 11.6875 
Q 26.8125 13.28125 27.515625 15.234375 
Q 28.21875 17.1875 28.953125 19.1875 
Q 29.6875 21.1875 30.171875 22.65625 
L 40.53125 52.828125 
L 49.8125 52.828125 
z
" id="LiberationSans-79"/>
       <path id="LiberationSans-20"/>
       <path d="M 6.203125 25.984375 
Q 6.203125 32.765625 7.21875 38.96875 
Q 8.25 45.171875 10.4375 50.875 
Q 12.640625 56.59375 16.0625 61.953125 
Q 19.484375 67.328125 24.21875 72.46875 
L 32.71875 72.46875 
Q 28.125 67.328125 24.78125 61.9375 
Q 21.4375 56.546875 19.28125 50.796875 
Q 17.140625 45.0625 16.09375 38.859375 
Q 15.046875 32.671875 15.046875 25.875 
Q 15.046875 19.09375 16.09375 12.890625 
Q 17.140625 6.6875 19.28125 0.921875 
Q 21.4375 -4.828125 24.78125 -10.203125 
Q 28.125 -15.578125 32.71875 -20.703125 
L 24.21875 -20.703125 
Q 19.484375 -15.578125 16.0625 -10.203125 
Q 12.640625 -4.828125 10.4375 0.875 
Q 8.25 6.59375 7.21875 12.765625 
Q 6.203125 18.953125 6.203125 25.78125 
z
" id="LiberationSans-28"/>
       <path d="M 67.4375 35.109375 
Q 67.4375 26.515625 64.84375 19.9375 
Q 62.25 13.375 57.75 8.953125 
Q 53.265625 4.546875 47.140625 2.265625 
Q 41.015625 0 33.9375 0 
L 8.203125 0 
L 8.203125 68.796875 
L 30.953125 68.796875 
Q 38.921875 68.796875 45.625 66.8125 
Q 52.34375 64.84375 57.171875 60.71875 
Q 62.015625 56.59375 64.71875 50.234375 
Q 67.4375 43.890625 67.4375 35.109375 
z
M 58.0625 35.109375 
Q 58.0625 42.09375 56.046875 47.046875 
Q 54.046875 52 50.4375 55.171875 
Q 46.828125 58.34375 41.796875 59.828125 
Q 36.765625 61.328125 30.765625 61.328125 
L 17.53125 61.328125 
L 17.53125 7.46875 
L 32.859375 7.46875 
Q 38.28125 7.46875 42.890625 9.21875 
Q 47.515625 10.984375 50.875 14.453125 
Q 54.25 17.921875 56.15625 23.09375 
Q 58.0625 28.265625 58.0625 35.109375 
z
" id="LiberationSans-44"/>
       <path d="M 35.15625 61.1875 
L 35.15625 0 
L 25.875 0 
L 25.875 61.1875 
L 2.25 61.1875 
L 2.25 68.796875 
L 58.796875 68.796875 
L 58.796875 61.1875 
z
" id="LiberationSans-54"/>
       <path d="M 27.09375 25.78125 
Q 27.09375 18.953125 26.0625 12.765625 
Q 25.046875 6.59375 22.84375 0.875 
Q 20.65625 -4.828125 17.234375 -10.203125 
Q 13.8125 -15.578125 9.078125 -20.703125 
L 0.59375 -20.703125 
Q 5.171875 -15.578125 8.515625 -10.203125 
Q 11.859375 -4.828125 14 0.921875 
Q 16.15625 6.6875 17.203125 12.890625 
Q 18.265625 19.09375 18.265625 25.875 
Q 18.265625 32.671875 17.203125 38.859375 
Q 16.15625 45.0625 14 50.796875 
Q 11.859375 56.546875 8.515625 61.9375 
Q 5.171875 67.328125 0.59375 72.46875 
L 9.078125 72.46875 
Q 13.8125 67.328125 17.234375 61.953125 
Q 20.65625 56.59375 22.84375 50.875 
Q 25.046875 45.171875 26.0625 38.96875 
Q 27.09375 32.765625 27.09375 25.984375 
z
" id="LiberationSans-29"/>
      </defs>
      <g style="fill:#262626;" transform="translate(53.750678 381.6323)scale(0.14 -0.14)">
       <use xlink:href="#LiberationSans-53"/>
       <use x="66.699219" xlink:href="#LiberationSans-75"/>
       <use x="122.314453" xlink:href="#LiberationSans-6e"/>
       <use x="177.929688" xlink:href="#LiberationSans-64"/>
       <use x="233.544922" xlink:href="#LiberationSans-61"/>
       <use x="289.160156" xlink:href="#LiberationSans-79"/>
       <use x="339.160156" xlink:href="#LiberationSans-20"/>
       <use x="366.943359" xlink:href="#LiberationSans-28"/>
       <use x="400.244141" xlink:href="#LiberationSans-44"/>
       <use x="472.460938" xlink:href="#LiberationSans-53"/>
       <use x="539.160156" xlink:href="#LiberationSans-54"/>
       <use x="600.244141" xlink:href="#LiberationSans-29"/>
      </g>
     </g>
    </g>
    <g id="xtick_2">
     <g id="text_2">
      <!-- Monday -->
      <defs>
       <path d="M 66.703125 0 
L 66.703125 45.90625 
Q 66.703125 48.390625 66.75 50.96875 
Q 66.796875 53.5625 66.890625 55.71875 
Q 67 58.203125 67.140625 60.546875 
Q 66.453125 58.0625 65.71875 55.609375 
Q 65.09375 53.515625 64.328125 51.140625 
Q 63.578125 48.78125 62.84375 46.875 
L 45.0625 0 
L 38.53125 0 
L 20.515625 46.875 
Q 20.21875 47.609375 19.890625 48.578125 
Q 19.578125 49.5625 19.203125 50.65625 
Q 18.84375 51.765625 18.46875 52.90625 
Q 18.109375 54.046875 17.78125 55.171875 
Q 16.9375 57.765625 16.15625 60.546875 
Q 16.21875 57.8125 16.3125 55.125 
Q 16.40625 52.828125 16.453125 50.3125 
Q 16.5 47.796875 16.5 45.90625 
L 16.5 0 
L 8.203125 0 
L 8.203125 68.796875 
L 20.453125 68.796875 
L 38.765625 21.09375 
Q 39.109375 20.125 39.59375 18.578125 
Q 40.09375 17.046875 40.53125 15.421875 
Q 40.96875 13.8125 41.328125 12.375 
Q 41.703125 10.9375 41.84375 10.15625 
Q 42 10.9375 42.390625 12.40625 
Q 42.78125 13.875 43.28125 15.484375 
Q 43.796875 17.09375 44.28125 18.609375 
Q 44.78125 20.125 45.171875 21.09375 
L 63.140625 68.796875 
L 75.09375 68.796875 
L 75.09375 0 
z
" id="LiberationSans-4d"/>
       <path d="M 51.421875 26.46875 
Q 51.421875 12.59375 45.3125 5.796875 
Q 39.203125 -0.984375 27.59375 -0.984375 
Q 22.078125 -0.984375 17.71875 0.671875 
Q 13.375 2.34375 10.375 5.765625 
Q 7.375 9.1875 5.78125 14.328125 
Q 4.203125 19.484375 4.203125 26.46875 
Q 4.203125 53.8125 27.875 53.8125 
Q 34.03125 53.8125 38.5 52.09375 
Q 42.96875 50.390625 45.828125 46.96875 
Q 48.6875 43.5625 50.046875 38.421875 
Q 51.421875 33.296875 51.421875 26.46875 
z
M 42.1875 26.46875 
Q 42.1875 32.625 41.234375 36.625 
Q 40.28125 40.625 38.453125 43.015625 
Q 36.625 45.40625 33.984375 46.359375 
Q 31.34375 47.3125 28.03125 47.3125 
Q 24.65625 47.3125 21.9375 46.3125 
Q 19.234375 45.3125 17.328125 42.890625 
Q 15.4375 40.484375 14.421875 36.46875 
Q 13.421875 32.46875 13.421875 26.46875 
Q 13.421875 20.3125 14.5 16.28125 
Q 15.578125 12.25 17.453125 9.859375 
Q 19.34375 7.46875 21.90625 6.484375 
Q 24.46875 5.515625 27.484375 5.515625 
Q 30.859375 5.515625 33.59375 6.46875 
Q 36.328125 7.421875 38.234375 9.8125 
Q 40.140625 12.203125 41.15625 16.25 
Q 42.1875 20.3125 42.1875 26.46875 
z
" id="LiberationSans-6f"/>
      </defs>
      <g style="fill:#262626;" transform="translate(168.852508 381.6323)scale(0.14 -0.14)">
       <use xlink:href="#LiberationSans-4d"/>
       <use x="83.300781" xlink:href="#LiberationSans-6f"/>
       <use x="138.916016" xlink:href="#LiberationSans-6e"/>
       <use x="194.53125" xlink:href="#LiberationSans-64"/>
       <use x="250.146484" xlink:href="#LiberationSans-61"/>
       <use x="305.761719" xlink:href="#LiberationSans-79"/>
      </g>
     </g>
    </g>
    <g id="xtick_3">
     <g id="text_3">
      <!-- Tuesday -->
      <defs>
       <path d="M 13.484375 24.5625 
Q 13.484375 20.40625 14.328125 16.90625 
Q 15.1875 13.421875 16.96875 10.90625 
Q 18.75 8.40625 21.53125 7 
Q 24.3125 5.609375 28.21875 5.609375 
Q 33.9375 5.609375 37.375 7.90625 
Q 40.828125 10.203125 42.046875 13.71875 
L 49.75 11.53125 
Q 48.921875 9.328125 47.4375 7.109375 
Q 45.953125 4.890625 43.453125 3.09375 
Q 40.96875 1.3125 37.234375 0.15625 
Q 33.5 -0.984375 28.21875 -0.984375 
Q 16.5 -0.984375 10.375 6 
Q 4.25 12.984375 4.25 26.765625 
Q 4.25 34.1875 6.09375 39.328125 
Q 7.953125 44.484375 11.171875 47.703125 
Q 14.40625 50.921875 18.703125 52.359375 
Q 23 53.8125 27.875 53.8125 
Q 34.515625 53.8125 38.984375 51.65625 
Q 43.453125 49.515625 46.15625 45.71875 
Q 48.875 41.9375 50.015625 36.8125 
Q 51.171875 31.6875 51.171875 25.734375 
L 51.171875 24.5625 
z
M 42.09375 31.296875 
Q 41.359375 39.65625 37.84375 43.484375 
Q 34.328125 47.3125 27.734375 47.3125 
Q 25.53125 47.3125 23.109375 46.609375 
Q 20.703125 45.90625 18.65625 44.09375 
Q 16.609375 42.28125 15.1875 39.171875 
Q 13.765625 36.078125 13.578125 31.296875 
z
" id="LiberationSans-65"/>
       <path d="M 46.390625 14.59375 
Q 46.390625 10.890625 44.9375 7.984375 
Q 43.5 5.078125 40.765625 3.09375 
Q 38.03125 1.125 34.046875 0.0625 
Q 30.078125 -0.984375 24.953125 -0.984375 
Q 20.359375 -0.984375 16.671875 -0.265625 
Q 12.984375 0.4375 10.203125 2 
Q 7.421875 3.5625 5.53125 6.125 
Q 3.65625 8.6875 2.78125 12.40625 
L 10.546875 13.921875 
Q 11.671875 9.671875 15.1875 7.6875 
Q 18.703125 5.71875 24.953125 5.71875 
Q 27.78125 5.71875 30.140625 6.109375 
Q 32.515625 6.5 34.21875 7.453125 
Q 35.9375 8.40625 36.890625 9.984375 
Q 37.84375 11.578125 37.84375 13.921875 
Q 37.84375 16.3125 36.71875 17.84375 
Q 35.59375 19.390625 33.59375 20.40625 
Q 31.59375 21.4375 28.734375 22.1875 
Q 25.875 22.953125 22.46875 23.875 
Q 19.28125 24.703125 16.15625 25.734375 
Q 13.03125 26.765625 10.515625 28.4375 
Q 8.015625 30.125 6.453125 32.609375 
Q 4.890625 35.109375 4.890625 38.875 
Q 4.890625 46.09375 10.03125 49.875 
Q 15.1875 53.65625 25.046875 53.65625 
Q 33.796875 53.65625 38.9375 50.578125 
Q 44.09375 47.515625 45.453125 40.71875 
L 37.546875 39.75 
Q 37.109375 41.796875 35.9375 43.1875 
Q 34.765625 44.578125 33.109375 45.4375 
Q 31.453125 46.296875 29.375 46.65625 
Q 27.296875 47.015625 25.046875 47.015625 
Q 19.09375 47.015625 16.25 45.203125 
Q 13.421875 43.40625 13.421875 39.75 
Q 13.421875 37.59375 14.46875 36.203125 
Q 15.53125 34.8125 17.40625 33.859375 
Q 19.28125 32.90625 21.921875 32.203125 
Q 24.5625 31.5 27.734375 30.71875 
Q 29.828125 30.171875 32.03125 29.5625 
Q 34.234375 28.953125 36.296875 28.09375 
Q 38.375 27.25 40.203125 26.09375 
Q 42.046875 24.953125 43.40625 23.34375 
Q 44.78125 21.734375 45.578125 19.578125 
Q 46.390625 17.4375 46.390625 14.59375 
z
" id="LiberationSans-73"/>
      </defs>
      <g style="fill:#262626;" transform="translate(262.568245 381.6323)scale(0.14 -0.14)">
       <use xlink:href="#LiberationSans-54"/>
       <use x="61.037109" xlink:href="#LiberationSans-75"/>
       <use x="116.652344" xlink:href="#LiberationSans-65"/>
       <use x="172.267578" xlink:href="#LiberationSans-73"/>
       <use x="222.267578" xlink:href="#LiberationSans-64"/>
       <use x="277.882812" xlink:href="#LiberationSans-61"/>
       <use x="333.498047" xlink:href="#LiberationSans-79"/>
      </g>
     </g>
    </g>
    <g id="xtick_4">
     <g id="text_4">
      <!-- Wednesday -->
      <defs>
       <path d="M 73.78125 0 
L 62.640625 0 
L 50.734375 43.703125 
Q 50.203125 45.5625 49.578125 48.09375 
Q 48.96875 50.640625 48.484375 52.9375 
Q 47.90625 55.609375 47.3125 58.40625 
Q 46.6875 55.5625 46.09375 52.875 
Q 45.5625 50.53125 44.96875 48.046875 
Q 44.390625 45.5625 43.84375 43.703125 
L 31.84375 0 
L 20.703125 0 
L 0.4375 68.796875 
L 10.15625 68.796875 
L 22.515625 25.09375 
Q 23.34375 22.015625 24.09375 18.984375 
Q 24.859375 15.96875 25.390625 13.578125 
Q 26.03125 10.75 26.5625 8.203125 
Q 27.296875 11.578125 28.078125 14.84375 
Q 28.421875 16.21875 28.765625 17.71875 
Q 29.109375 19.234375 29.46875 20.703125 
Q 29.828125 22.171875 30.1875 23.515625 
Q 30.5625 24.859375 30.859375 25.984375 
L 42.828125 68.796875 
L 51.765625 68.796875 
L 63.71875 25.984375 
Q 64.015625 24.859375 64.375 23.515625 
Q 64.75 22.171875 65.109375 20.71875 
Q 65.484375 19.28125 65.8125 17.765625 
Q 66.15625 16.265625 66.5 14.890625 
Q 67.28125 11.625 68.015625 8.203125 
Q 68.0625 8.203125 68.453125 9.890625 
Q 68.84375 11.578125 69.421875 14.109375 
Q 70.015625 16.65625 70.71875 19.609375 
Q 71.4375 22.5625 72.171875 25.09375 
L 84.328125 68.796875 
L 94.046875 68.796875 
z
" id="LiberationSans-57"/>
      </defs>
      <g style="fill:#262626;" transform="translate(348.106013 381.6323)scale(0.14 -0.14)">
       <use xlink:href="#LiberationSans-57"/>
       <use x="94.369141" xlink:href="#LiberationSans-65"/>
       <use x="149.984375" xlink:href="#LiberationSans-64"/>
       <use x="205.599609" xlink:href="#LiberationSans-6e"/>
       <use x="261.214844" xlink:href="#LiberationSans-65"/>
       <use x="316.830078" xlink:href="#LiberationSans-73"/>
       <use x="366.830078" xlink:href="#LiberationSans-64"/>
       <use x="422.445312" xlink:href="#LiberationSans-61"/>
       <use x="478.060547" xlink:href="#LiberationSans-79"/>
      </g>
     </g>
    </g>
    <g id="xtick_5">
     <g id="text_5">
      <!-- Thursday -->
      <defs>
       <path d="M 15.484375 43.796875 
Q 16.9375 46.484375 18.640625 48.359375 
Q 20.359375 50.25 22.40625 51.46875 
Q 24.46875 52.6875 26.90625 53.25 
Q 29.34375 53.8125 32.375 53.8125 
Q 37.453125 53.8125 40.703125 52.4375 
Q 43.953125 51.078125 45.828125 48.609375 
Q 47.703125 46.140625 48.40625 42.71875 
Q 49.125 39.3125 49.125 35.203125 
L 49.125 0 
L 40.28125 0 
L 40.28125 33.5 
Q 40.28125 36.859375 39.859375 39.390625 
Q 39.453125 41.9375 38.28125 43.625 
Q 37.109375 45.3125 34.953125 46.15625 
Q 32.8125 47.015625 29.390625 47.015625 
Q 26.265625 47.015625 23.75 45.890625 
Q 21.234375 44.78125 19.453125 42.71875 
Q 17.671875 40.671875 16.6875 37.734375 
Q 15.71875 34.8125 15.71875 31.15625 
L 15.71875 0 
L 6.9375 0 
L 6.9375 72.46875 
L 15.71875 72.46875 
L 15.71875 53.609375 
Q 15.71875 52 15.671875 50.390625 
Q 15.625 48.78125 15.546875 47.40625 
Q 15.484375 46.046875 15.421875 45.09375 
Q 15.375 44.140625 15.328125 43.796875 
z
" id="LiberationSans-68"/>
       <path d="M 6.9375 0 
L 6.9375 40.53125 
Q 6.9375 42.1875 6.90625 43.921875 
Q 6.890625 45.65625 6.828125 47.265625 
Q 6.78125 48.875 6.734375 50.28125 
Q 6.6875 51.703125 6.640625 52.828125 
L 14.9375 52.828125 
Q 14.984375 51.703125 15.0625 50.265625 
Q 15.140625 48.828125 15.203125 47.3125 
Q 15.28125 45.796875 15.296875 44.40625 
Q 15.328125 43.015625 15.328125 42.046875 
L 15.53125 42.046875 
Q 16.453125 45.0625 17.5 47.28125 
Q 18.5625 49.515625 19.96875 50.953125 
Q 21.390625 52.390625 23.34375 53.09375 
Q 25.296875 53.8125 28.078125 53.8125 
Q 29.15625 53.8125 30.125 53.640625 
Q 31.109375 53.46875 31.640625 53.328125 
L 31.640625 45.265625 
Q 30.765625 45.515625 29.59375 45.625 
Q 28.421875 45.75 26.953125 45.75 
Q 23.921875 45.75 21.796875 44.375 
Q 19.671875 43.015625 18.328125 40.59375 
Q 17 38.1875 16.359375 34.84375 
Q 15.71875 31.5 15.71875 27.546875 
L 15.71875 0 
z
" id="LiberationSans-72"/>
      </defs>
      <g style="fill:#262626;" transform="translate(451.548468 381.6323)scale(0.14 -0.14)">
       <use xlink:href="#LiberationSans-54"/>
       <use x="61.083984" xlink:href="#LiberationSans-68"/>
       <use x="116.699219" xlink:href="#LiberationSans-75"/>
       <use x="172.314453" xlink:href="#LiberationSans-72"/>
       <use x="205.615234" xlink:href="#LiberationSans-73"/>
       <use x="255.615234" xlink:href="#LiberationSans-64"/>
       <use x="311.230469" xlink:href="#LiberationSans-61"/>
       <use x="366.845703" xlink:href="#LiberationSans-79"/>
      </g>
     </g>
    </g>
    <g id="xtick_6">
     <g id="text_6">
      <!-- Friday -->
      <defs>
       <path d="M 17.53125 61.1875 
L 17.53125 35.59375 
L 55.90625 35.59375 
L 55.90625 27.875 
L 17.53125 27.875 
L 17.53125 0 
L 8.203125 0 
L 8.203125 68.796875 
L 57.078125 68.796875 
L 57.078125 61.1875 
z
" id="LiberationSans-46"/>
       <path d="M 6.6875 64.0625 
L 6.6875 72.46875 
L 15.484375 72.46875 
L 15.484375 64.0625 
z
M 6.6875 0 
L 6.6875 52.828125 
L 15.484375 52.828125 
L 15.484375 0 
z
" id="LiberationSans-69"/>
      </defs>
      <g style="fill:#262626;" transform="translate(556.935611 381.6323)scale(0.14 -0.14)">
       <use xlink:href="#LiberationSans-46"/>
       <use x="61.083984" xlink:href="#LiberationSans-72"/>
       <use x="94.384766" xlink:href="#LiberationSans-69"/>
       <use x="116.601562" xlink:href="#LiberationSans-64"/>
       <use x="172.216797" xlink:href="#LiberationSans-61"/>
       <use x="227.832031" xlink:href="#LiberationSans-79"/>
      </g>
     </g>
    </g>
    <g id="xtick_7">
     <g id="text_7">
      <!-- Saturday -->
      <defs>
       <path d="M 27.046875 0.390625 
Q 25.046875 -0.140625 22.96875 -0.453125 
Q 20.90625 -0.78125 18.171875 -0.78125 
Q 7.625 -0.78125 7.625 11.1875 
L 7.625 46.4375 
L 1.515625 46.4375 
L 1.515625 52.828125 
L 7.953125 52.828125 
L 10.546875 64.65625 
L 16.40625 64.65625 
L 16.40625 52.828125 
L 26.171875 52.828125 
L 26.171875 46.4375 
L 16.40625 46.4375 
L 16.40625 13.09375 
Q 16.40625 9.28125 17.640625 7.734375 
Q 18.890625 6.203125 21.96875 6.203125 
Q 23.25 6.203125 24.4375 6.390625 
Q 25.640625 6.59375 27.046875 6.890625 
z
" id="LiberationSans-74"/>
      </defs>
      <g style="fill:#262626;" transform="translate(644.024316 381.6323)scale(0.14 -0.14)">
       <use xlink:href="#LiberationSans-53"/>
       <use x="66.699219" xlink:href="#LiberationSans-61"/>
       <use x="122.314453" xlink:href="#LiberationSans-74"/>
       <use x="150.097656" xlink:href="#LiberationSans-75"/>
       <use x="205.712891" xlink:href="#LiberationSans-72"/>
       <use x="239.013672" xlink:href="#LiberationSans-64"/>
       <use x="294.628906" xlink:href="#LiberationSans-61"/>
       <use x="350.244141" xlink:href="#LiberationSans-79"/>
      </g>
     </g>
    </g>
   </g>
   <g id="matplotlib.axis_2">
    <g id="ytick_1">
     <g id="text_8">
      <!-- 0.6 -->
      <defs>
       <path d="M 51.703125 34.421875 
Q 51.703125 24.515625 49.828125 17.75 
Q 47.953125 10.984375 44.703125 6.8125 
Q 41.453125 2.640625 37.0625 0.828125 
Q 32.671875 -0.984375 27.6875 -0.984375 
Q 22.65625 -0.984375 18.3125 0.828125 
Q 13.96875 2.640625 10.765625 6.78125 
Q 7.5625 10.9375 5.734375 17.703125 
Q 3.90625 24.46875 3.90625 34.421875 
Q 3.90625 44.828125 5.734375 51.640625 
Q 7.5625 58.453125 10.78125 62.5 
Q 14.015625 66.546875 18.40625 68.1875 
Q 22.796875 69.828125 27.984375 69.828125 
Q 32.90625 69.828125 37.21875 68.1875 
Q 41.546875 66.546875 44.765625 62.5 
Q 48 58.453125 49.84375 51.640625 
Q 51.703125 44.828125 51.703125 34.421875 
z
M 42.78125 34.421875 
Q 42.78125 42.625 41.796875 48.0625 
Q 40.828125 53.515625 38.921875 56.765625 
Q 37.015625 60.015625 34.25 61.359375 
Q 31.5 62.703125 27.984375 62.703125 
Q 24.265625 62.703125 21.4375 61.328125 
Q 18.609375 59.96875 16.671875 56.71875 
Q 14.75 53.46875 13.765625 48.015625 
Q 12.796875 42.578125 12.796875 34.421875 
Q 12.796875 26.515625 13.796875 21.09375 
Q 14.796875 15.671875 16.71875 12.375 
Q 18.65625 9.078125 21.4375 7.640625 
Q 24.21875 6.203125 27.78125 6.203125 
Q 31.25 6.203125 34.03125 7.640625 
Q 36.8125 9.078125 38.734375 12.375 
Q 40.671875 15.671875 41.71875 21.09375 
Q 42.78125 26.515625 42.78125 34.421875 
z
" id="LiberationSans-30"/>
       <path d="M 9.125 0 
L 9.125 10.6875 
L 18.65625 10.6875 
L 18.65625 0 
z
" id="LiberationSans-2e"/>
       <path d="M 51.21875 22.515625 
Q 51.21875 17.328125 49.78125 13 
Q 48.34375 8.6875 45.53125 5.578125 
Q 42.71875 2.484375 38.5625 0.75 
Q 34.421875 -0.984375 29 -0.984375 
Q 23 -0.984375 18.5 1.3125 
Q 14.015625 3.609375 11.03125 7.921875 
Q 8.0625 12.25 6.5625 18.53125 
Q 5.078125 24.8125 5.078125 32.8125 
Q 5.078125 42 6.765625 48.921875 
Q 8.453125 55.859375 11.625 60.5 
Q 14.796875 65.140625 19.359375 67.484375 
Q 23.921875 69.828125 29.6875 69.828125 
Q 33.203125 69.828125 36.28125 69.09375 
Q 39.359375 68.359375 41.875 66.71875 
Q 44.390625 65.09375 46.28125 62.40625 
Q 48.1875 59.71875 49.3125 55.8125 
L 40.921875 54.296875 
Q 39.546875 58.734375 36.546875 60.71875 
Q 33.546875 62.703125 29.59375 62.703125 
Q 25.984375 62.703125 23.046875 60.984375 
Q 20.125 59.28125 18.0625 55.875 
Q 16.015625 52.484375 14.90625 47.359375 
Q 13.8125 42.234375 13.8125 35.40625 
Q 16.21875 39.84375 20.5625 42.15625 
Q 24.90625 44.484375 30.515625 44.484375 
Q 35.203125 44.484375 39.015625 42.96875 
Q 42.828125 41.453125 45.53125 38.59375 
Q 48.25 35.75 49.734375 31.671875 
Q 51.21875 27.59375 51.21875 22.515625 
z
M 42.28125 22.125 
Q 42.28125 25.6875 41.40625 28.5625 
Q 40.53125 31.453125 38.765625 33.46875 
Q 37.015625 35.5 34.421875 36.59375 
Q 31.84375 37.703125 28.421875 37.703125 
Q 26.03125 37.703125 23.578125 36.984375 
Q 21.140625 36.28125 19.15625 34.6875 
Q 17.1875 33.109375 15.9375 30.515625 
Q 14.703125 27.9375 14.703125 24.21875 
Q 14.703125 20.40625 15.671875 17.109375 
Q 16.65625 13.8125 18.484375 11.375 
Q 20.3125 8.9375 22.890625 7.515625 
Q 25.484375 6.109375 28.71875 6.109375 
Q 31.890625 6.109375 34.40625 7.203125 
Q 36.921875 8.296875 38.671875 10.375 
Q 40.4375 12.453125 41.359375 15.421875 
Q 42.28125 18.40625 42.28125 22.125 
z
" id="LiberationSans-36"/>
      </defs>
      <g style="fill:#262626;" transform="translate(27.3082 358.878618)scale(0.14 -0.14)">
       <use xlink:href="#LiberationSans-30"/>
       <use x="55.615234" xlink:href="#LiberationSans-2e"/>
       <use x="83.398438" xlink:href="#LiberationSans-36"/>
      </g>
     </g>
    </g>
    <g id="ytick_2">
     <g id="text_9">
      <!-- 0.8 -->
      <defs>
       <path d="M 51.265625 19.1875 
Q 51.265625 14.796875 49.875 11.109375 
Q 48.484375 7.421875 45.625 4.734375 
Q 42.78125 2.046875 38.328125 0.53125 
Q 33.890625 -0.984375 27.828125 -0.984375 
Q 21.78125 -0.984375 17.359375 0.53125 
Q 12.9375 2.046875 10.03125 4.703125 
Q 7.125 7.375 5.734375 11.0625 
Q 4.34375 14.75 4.34375 19.09375 
Q 4.34375 22.859375 5.484375 25.78125 
Q 6.640625 28.71875 8.5625 30.828125 
Q 10.5 32.953125 12.96875 34.25 
Q 15.4375 35.546875 18.0625 35.984375 
L 18.0625 36.1875 
Q 15.1875 36.859375 12.90625 38.375 
Q 10.640625 39.890625 9.09375 42.015625 
Q 7.5625 44.140625 6.75 46.71875 
Q 5.953125 49.3125 5.953125 52.203125 
Q 5.953125 55.8125 7.34375 59 
Q 8.734375 62.203125 11.46875 64.625 
Q 14.203125 67.046875 18.25 68.4375 
Q 22.3125 69.828125 27.640625 69.828125 
Q 33.25 69.828125 37.375 68.40625 
Q 41.5 67 44.203125 64.578125 
Q 46.921875 62.15625 48.234375 58.9375 
Q 49.5625 55.71875 49.5625 52.09375 
Q 49.5625 49.265625 48.75 46.671875 
Q 47.953125 44.09375 46.40625 41.96875 
Q 44.875 39.84375 42.59375 38.34375 
Q 40.328125 36.859375 37.359375 36.28125 
L 37.359375 36.078125 
Q 40.328125 35.59375 42.859375 34.296875 
Q 45.40625 33.015625 47.265625 30.890625 
Q 49.125 28.765625 50.1875 25.828125 
Q 51.265625 22.90625 51.265625 19.1875 
z
M 40.4375 51.609375 
Q 40.4375 54.203125 39.765625 56.34375 
Q 39.109375 58.5 37.59375 60.03125 
Q 36.078125 61.578125 33.640625 62.421875 
Q 31.203125 63.28125 27.640625 63.28125 
Q 24.171875 63.28125 21.78125 62.421875 
Q 19.390625 61.578125 17.84375 60.03125 
Q 16.3125 58.5 15.625 56.34375 
Q 14.9375 54.203125 14.9375 51.609375 
Q 14.9375 49.5625 15.46875 47.40625 
Q 16.015625 45.265625 17.421875 43.5 
Q 18.84375 41.75 21.328125 40.625 
Q 23.828125 39.5 27.734375 39.5 
Q 31.890625 39.5 34.40625 40.625 
Q 36.921875 41.75 38.25 43.5 
Q 39.59375 45.265625 40.015625 47.40625 
Q 40.4375 49.5625 40.4375 51.609375 
z
M 42.140625 20.015625 
Q 42.140625 22.515625 41.453125 24.828125 
Q 40.765625 27.15625 39.109375 28.9375 
Q 37.453125 30.71875 34.640625 31.8125 
Q 31.84375 32.90625 27.640625 32.90625 
Q 23.78125 32.90625 21.0625 31.8125 
Q 18.359375 30.71875 16.671875 28.90625 
Q 14.984375 27.09375 14.203125 24.71875 
Q 13.421875 22.359375 13.421875 19.828125 
Q 13.421875 16.65625 14.203125 14.03125 
Q 14.984375 11.421875 16.6875 9.546875 
Q 18.40625 7.671875 21.1875 6.640625 
Q 23.96875 5.609375 27.9375 5.609375 
Q 31.9375 5.609375 34.671875 6.640625 
Q 37.40625 7.671875 39.0625 9.546875 
Q 40.71875 11.421875 41.421875 14.078125 
Q 42.140625 16.75 42.140625 20.015625 
z
" id="LiberationSans-38"/>
      </defs>
      <g style="fill:#262626;" transform="translate(27.3082 302.15514)scale(0.14 -0.14)">
       <use xlink:href="#LiberationSans-30"/>
       <use x="55.615234" xlink:href="#LiberationSans-2e"/>
       <use x="83.398438" xlink:href="#LiberationSans-38"/>
      </g>
     </g>
    </g>
    <g id="ytick_3">
     <g id="text_10">
      <!-- 1.0 -->
      <defs>
       <path d="M 7.625 0 
L 7.625 7.46875 
L 25.140625 7.46875 
L 25.140625 60.40625 
L 9.625 49.3125 
L 9.625 57.625 
L 25.875 68.796875 
L 33.984375 68.796875 
L 33.984375 7.46875 
L 50.734375 7.46875 
L 50.734375 0 
z
" id="LiberationSans-31"/>
      </defs>
      <g style="fill:#262626;" transform="translate(27.3082 245.431661)scale(0.14 -0.14)">
       <use xlink:href="#LiberationSans-31"/>
       <use x="55.615234" xlink:href="#LiberationSans-2e"/>
       <use x="83.398438" xlink:href="#LiberationSans-30"/>
      </g>
     </g>
    </g>
    <g id="ytick_4">
     <g id="text_11">
      <!-- 1.2 -->
      <defs>
       <path d="M 5.03125 0 
L 5.03125 6.203125 
Q 7.515625 11.921875 11.109375 16.28125 
Q 14.703125 20.65625 18.65625 24.1875 
Q 22.609375 27.734375 26.484375 30.765625 
Q 30.375 33.796875 33.5 36.8125 
Q 36.625 39.84375 38.546875 43.15625 
Q 40.484375 46.484375 40.484375 50.6875 
Q 40.484375 53.609375 39.59375 55.828125 
Q 38.71875 58.0625 37.0625 59.5625 
Q 35.40625 61.078125 33.078125 61.828125 
Q 30.765625 62.59375 27.9375 62.59375 
Q 25.296875 62.59375 22.96875 61.859375 
Q 20.65625 61.140625 18.84375 59.671875 
Q 17.046875 58.203125 15.890625 56.03125 
Q 14.75 53.859375 14.40625 50.984375 
L 5.421875 51.8125 
Q 5.859375 55.515625 7.46875 58.78125 
Q 9.078125 62.0625 11.90625 64.53125 
Q 14.75 67 18.71875 68.40625 
Q 22.703125 69.828125 27.9375 69.828125 
Q 33.0625 69.828125 37.0625 68.609375 
Q 41.0625 67.390625 43.8125 64.984375 
Q 46.578125 62.59375 48.046875 59.078125 
Q 49.515625 55.5625 49.515625 50.984375 
Q 49.515625 47.515625 48.265625 44.390625 
Q 47.015625 41.265625 44.9375 38.421875 
Q 42.875 35.59375 40.140625 32.953125 
Q 37.40625 30.328125 34.421875 27.8125 
Q 31.453125 25.296875 28.421875 22.828125 
Q 25.390625 20.359375 22.71875 17.859375 
Q 20.0625 15.375 17.96875 12.8125 
Q 15.875 10.25 14.703125 7.46875 
L 50.59375 7.46875 
L 50.59375 0 
z
" id="LiberationSans-32"/>
      </defs>
      <g style="fill:#262626;" transform="translate(27.3082 188.708183)scale(0.14 -0.14)">
       <use xlink:href="#LiberationSans-31"/>
       <use x="55.615234" xlink:href="#LiberationSans-2e"/>
       <use x="83.398438" xlink:href="#LiberationSans-32"/>
      </g>
     </g>
    </g>
    <g id="ytick_5">
     <g id="text_12">
      <!-- 1.4 -->
      <defs>
       <path d="M 43.015625 15.578125 
L 43.015625 0 
L 34.71875 0 
L 34.71875 15.578125 
L 2.296875 15.578125 
L 2.296875 22.40625 
L 33.796875 68.796875 
L 43.015625 68.796875 
L 43.015625 22.515625 
L 52.6875 22.515625 
L 52.6875 15.578125 
z
M 34.71875 58.890625 
Q 34.625 58.640625 34.234375 57.9375 
Q 33.84375 57.234375 33.34375 56.34375 
Q 32.859375 55.46875 32.34375 54.5625 
Q 31.84375 53.65625 31.453125 53.078125 
L 13.8125 27.09375 
Q 13.578125 26.703125 13.109375 26.0625 
Q 12.640625 25.4375 12.15625 24.78125 
Q 11.671875 24.125 11.171875 23.484375 
Q 10.6875 22.859375 10.40625 22.515625 
L 34.71875 22.515625 
z
" id="LiberationSans-34"/>
      </defs>
      <g style="fill:#262626;" transform="translate(27.3082 131.984705)scale(0.14 -0.14)">
       <use xlink:href="#LiberationSans-31"/>
       <use x="55.615234" xlink:href="#LiberationSans-2e"/>
       <use x="83.398438" xlink:href="#LiberationSans-34"/>
      </g>
     </g>
    </g>
    <g id="ytick_6">
     <g id="text_13">
      <!-- 1.6 -->
      <g style="fill:#262626;" transform="translate(27.3082 75.261227)scale(0.14 -0.14)">
       <use xlink:href="#LiberationSans-31"/>
       <use x="55.615234" xlink:href="#LiberationSans-2e"/>
       <use x="83.398438" xlink:href="#LiberationSans-36"/>
      </g>
     </g>
    </g>
    <g id="text_14">
     <!-- Accident Ratio: DST Week / Two Weeks After -->
     <defs>
      <path d="M 56.984375 0 
L 49.125 20.125 
L 17.78125 20.125 
L 9.859375 0 
L 0.203125 0 
L 28.265625 68.796875 
L 38.875 68.796875 
L 66.5 0 
z
M 37.5 50.09375 
Q 36.71875 52.046875 36 54.046875 
Q 35.296875 56.0625 34.765625 57.6875 
Q 34.234375 59.328125 33.859375 60.421875 
Q 33.5 61.53125 33.453125 61.765625 
Q 33.34375 61.53125 33 60.40625 
Q 32.671875 59.28125 32.109375 57.609375 
Q 31.546875 55.953125 30.828125 53.953125 
Q 30.125 51.953125 29.390625 50 
L 20.609375 27.390625 
L 46.34375 27.390625 
z
" id="LiberationSans-41"/>
      <path d="M 13.421875 26.65625 
Q 13.421875 22.125 14.078125 18.3125 
Q 14.75 14.5 16.3125 11.734375 
Q 17.875 8.984375 20.4375 7.46875 
Q 23 5.953125 26.765625 5.953125 
Q 31.453125 5.953125 34.59375 8.484375 
Q 37.75 11.03125 38.484375 16.3125 
L 47.359375 15.71875 
Q 46.921875 12.453125 45.453125 9.421875 
Q 44 6.390625 41.484375 4.09375 
Q 38.96875 1.8125 35.34375 0.40625 
Q 31.734375 -0.984375 27 -0.984375 
Q 20.796875 -0.984375 16.453125 1.109375 
Q 12.109375 3.21875 9.390625 6.90625 
Q 6.6875 10.59375 5.46875 15.59375 
Q 4.25 20.609375 4.25 26.46875 
Q 4.25 31.78125 5.125 35.859375 
Q 6 39.9375 7.59375 42.984375 
Q 9.1875 46.046875 11.328125 48.125 
Q 13.484375 50.203125 15.984375 51.4375 
Q 18.5 52.6875 21.28125 53.25 
Q 24.078125 53.8125 26.90625 53.8125 
Q 31.34375 53.8125 34.8125 52.59375 
Q 38.28125 51.375 40.796875 49.25 
Q 43.3125 47.125 44.875 44.234375 
Q 46.4375 41.359375 47.078125 38.03125 
L 38.03125 37.359375 
Q 37.359375 41.75 34.5625 44.328125 
Q 31.78125 46.921875 26.65625 46.921875 
Q 22.90625 46.921875 20.390625 45.671875 
Q 17.875 44.4375 16.3125 41.921875 
Q 14.75 39.40625 14.078125 35.59375 
Q 13.421875 31.78125 13.421875 26.65625 
z
" id="LiberationSans-63"/>
      <path d="M 56.84375 0 
L 38.96875 28.5625 
L 17.53125 28.5625 
L 17.53125 0 
L 8.203125 0 
L 8.203125 68.796875 
L 40.578125 68.796875 
Q 46.4375 68.796875 50.953125 67.453125 
Q 55.46875 66.109375 58.546875 63.5625 
Q 61.625 61.03125 63.234375 57.375 
Q 64.84375 53.71875 64.84375 49.125 
Q 64.84375 45.84375 63.890625 42.671875 
Q 62.9375 39.5 60.890625 36.859375 
Q 58.84375 34.234375 55.65625 32.328125 
Q 52.484375 30.421875 48.046875 29.640625 
L 67.578125 0 
z
M 55.46875 49.03125 
Q 55.46875 52.15625 54.390625 54.4375 
Q 53.328125 56.734375 51.265625 58.265625 
Q 49.21875 59.8125 46.28125 60.5625 
Q 43.359375 61.328125 39.65625 61.328125 
L 17.53125 61.328125 
L 17.53125 35.9375 
L 40.046875 35.9375 
Q 44.046875 35.9375 46.96875 36.9375 
Q 49.90625 37.9375 51.78125 39.6875 
Q 53.65625 41.453125 54.5625 43.84375 
Q 55.46875 46.234375 55.46875 49.03125 
z
" id="LiberationSans-52"/>
      <path d="M 9.125 42.71875 
L 9.125 52.828125 
L 18.65625 52.828125 
L 18.65625 42.71875 
z
M 9.125 0 
L 9.125 10.109375 
L 18.65625 10.109375 
L 18.65625 0 
z
" id="LiberationSans-3a"/>
      <path d="M 39.84375 0 
L 21.96875 24.125 
L 15.53125 18.796875 
L 15.53125 0 
L 6.734375 0 
L 6.734375 72.46875 
L 15.53125 72.46875 
L 15.53125 27.203125 
L 38.71875 52.828125 
L 49.03125 52.828125 
L 27.59375 30.125 
L 50.140625 0 
z
" id="LiberationSans-6b"/>
      <path d="M 0 -0.984375 
L 20.0625 72.46875 
L 27.78125 72.46875 
L 7.90625 -0.984375 
z
" id="LiberationSans-2f"/>
      <path d="M 57.328125 0 
L 47.125 0 
L 38.671875 34.078125 
Q 38.28125 35.40625 37.859375 37.359375 
Q 37.453125 39.3125 37.0625 41.15625 
Q 36.578125 43.3125 36.140625 45.609375 
Q 35.6875 43.40625 35.203125 41.265625 
Q 34.8125 39.40625 34.34375 37.40625 
Q 33.890625 35.40625 33.5 33.890625 
L 24.8125 0 
L 14.65625 0 
L -0.140625 52.828125 
L 8.546875 52.828125 
L 17.484375 16.9375 
Q 17.828125 15.828125 18.15625 14.1875 
Q 18.5 12.546875 18.84375 10.984375 
Q 19.1875 9.1875 19.578125 7.28125 
Q 19.96875 9.125 20.40625 10.890625 
Q 20.796875 12.40625 21.1875 13.96875 
Q 21.578125 15.53125 21.875 16.546875 
L 31.453125 52.828125 
L 40.875 52.828125 
L 50.09375 16.546875 
Q 50.4375 15.28125 50.828125 13.671875 
Q 51.21875 12.0625 51.5625 10.640625 
Q 51.953125 8.984375 52.34375 7.28125 
Q 52.734375 9.125 53.125 10.890625 
Q 53.46875 12.40625 53.828125 14.03125 
Q 54.203125 15.671875 54.546875 16.9375 
L 63.875 52.828125 
L 72.46875 52.828125 
z
" id="LiberationSans-77"/>
      <path d="M 17.625 46.4375 
L 17.625 0 
L 8.84375 0 
L 8.84375 46.4375 
L 1.421875 46.4375 
L 1.421875 52.828125 
L 8.84375 52.828125 
L 8.84375 58.796875 
Q 8.84375 61.671875 9.375 64.140625 
Q 9.90625 66.609375 11.34375 68.4375 
Q 12.796875 70.265625 15.28125 71.3125 
Q 17.78125 72.359375 21.734375 72.359375 
Q 23.296875 72.359375 24.96875 72.21875 
Q 26.65625 72.078125 27.9375 71.78125 
L 27.9375 65.09375 
Q 27.09375 65.234375 26 65.359375 
Q 24.90625 65.484375 24.03125 65.484375 
Q 22.078125 65.484375 20.828125 64.9375 
Q 19.578125 64.40625 18.875 63.40625 
Q 18.171875 62.40625 17.890625 60.9375 
Q 17.625 59.46875 17.625 57.5625 
L 17.625 52.828125 
L 27.9375 52.828125 
L 27.9375 46.4375 
z
" id="LiberationSans-66"/>
     </defs>
     <g style="fill:#262626;" transform="translate(19.7226 380.132625)rotate(-90)scale(0.1728 -0.1728)">
      <use xlink:href="#LiberationSans-41"/>
      <use x="66.699219" xlink:href="#LiberationSans-63"/>
      <use x="116.699219" xlink:href="#LiberationSans-63"/>
      <use x="166.699219" xlink:href="#LiberationSans-69"/>
      <use x="188.916016" xlink:href="#LiberationSans-64"/>
      <use x="244.53125" xlink:href="#LiberationSans-65"/>
      <use x="300.146484" xlink:href="#LiberationSans-6e"/>
      <use x="355.761719" xlink:href="#LiberationSans-74"/>
      <use x="383.544922" xlink:href="#LiberationSans-20"/>
      <use x="411.328125" xlink:href="#LiberationSans-52"/>
      <use x="483.544922" xlink:href="#LiberationSans-61"/>
      <use x="539.160156" xlink:href="#LiberationSans-74"/>
      <use x="566.943359" xlink:href="#LiberationSans-69"/>
      <use x="589.160156" xlink:href="#LiberationSans-6f"/>
      <use x="644.775391" xlink:href="#LiberationSans-3a"/>
      <use x="672.558594" xlink:href="#LiberationSans-20"/>
      <use x="700.341797" xlink:href="#LiberationSans-44"/>
      <use x="772.558594" xlink:href="#LiberationSans-53"/>
      <use x="839.257812" xlink:href="#LiberationSans-54"/>
      <use x="900.326172" xlink:href="#LiberationSans-20"/>
      <use x="928.109375" xlink:href="#LiberationSans-57"/>
      <use x="1022.478516" xlink:href="#LiberationSans-65"/>
      <use x="1078.09375" xlink:href="#LiberationSans-65"/>
      <use x="1133.708984" xlink:href="#LiberationSans-6b"/>
      <use x="1183.708984" xlink:href="#LiberationSans-20"/>
      <use x="1211.492188" xlink:href="#LiberationSans-2f"/>
      <use x="1239.275391" xlink:href="#LiberationSans-20"/>
      <use x="1267.042969" xlink:href="#LiberationSans-54"/>
      <use x="1328.048828" xlink:href="#LiberationSans-77"/>
      <use x="1400.265625" xlink:href="#LiberationSans-6f"/>
      <use x="1455.880859" xlink:href="#LiberationSans-20"/>
      <use x="1483.664062" xlink:href="#LiberationSans-57"/>
      <use x="1578.033203" xlink:href="#LiberationSans-65"/>
      <use x="1633.648438" xlink:href="#LiberationSans-65"/>
      <use x="1689.263672" xlink:href="#LiberationSans-6b"/>
      <use x="1739.263672" xlink:href="#LiberationSans-73"/>
      <use x="1789.263672" xlink:href="#LiberationSans-20"/>
      <use x="1816.96875" xlink:href="#LiberationSans-41"/>
      <use x="1883.667969" xlink:href="#LiberationSans-66"/>
      <use x="1911.451172" xlink:href="#LiberationSans-74"/>
      <use x="1939.234375" xlink:href="#LiberationSans-65"/>
      <use x="1994.849609" xlink:href="#LiberationSans-72"/>
     </g>
    </g>
   </g>
   <g id="PolyCollection_1">
    <defs>
     <path d="M 100.01505 -60.882991 
L 96.178492 -60.882991 
L 95.983604 -62.441206 
L 95.786301 -63.99942 
L 95.588632 -65.557635 
L 95.392461 -67.115849 
L 95.199317 -68.674063 
L 95.010243 -70.232278 
L 94.825648 -71.790492 
L 94.645181 -73.348707 
L 94.467627 -74.906921 
L 94.290844 -76.465135 
L 94.111739 -78.02335 
L 93.926295 -79.581564 
L 93.729647 -81.139779 
L 93.516215 -82.697993 
L 93.27988 -84.256207 
L 93.014205 -85.814422 
L 92.71269 -87.372636 
L 92.369043 -88.930851 
L 91.977471 -90.489065 
L 91.53295 -92.047279 
L 91.03149 -93.605494 
L 90.47036 -95.163708 
L 89.848267 -96.721923 
L 89.16549 -98.280137 
L 88.423942 -99.838351 
L 87.627176 -101.396566 
L 86.780326 -102.95478 
L 85.889987 -104.512995 
L 84.964034 -106.071209 
L 84.011406 -107.629423 
L 83.04184 -109.187638 
L 82.065595 -110.745852 
L 81.09315 -112.304067 
L 80.134913 -113.862281 
L 79.200937 -115.420495 
L 78.300663 -116.97871 
L 77.442694 -118.536924 
L 76.634611 -120.095139 
L 75.882838 -121.653353 
L 75.192556 -123.211567 
L 74.567673 -124.769782 
L 74.01084 -126.327996 
L 73.523524 -127.886211 
L 73.10612 -129.444425 
L 72.758098 -131.002639 
L 72.478186 -132.560854 
L 72.26456 -134.119068 
L 72.115053 -135.677283 
L 72.027346 -137.235497 
L 71.999153 -138.793711 
L 72.028374 -140.351926 
L 72.113218 -141.91014 
L 72.252275 -143.468355 
L 72.444551 -145.026569 
L 72.689449 -146.584783 
L 72.986707 -148.142998 
L 73.336291 -149.701212 
L 73.738262 -151.259427 
L 74.192606 -152.817641 
L 74.699065 -154.375855 
L 75.256957 -155.93407 
L 75.865009 -157.492284 
L 76.521222 -159.050499 
L 77.222757 -160.608713 
L 77.96587 -162.166927 
L 78.745895 -163.725142 
L 79.557278 -165.283356 
L 80.393655 -166.841571 
L 81.247991 -168.399785 
L 82.112746 -169.957999 
L 82.980091 -171.516214 
L 83.842134 -173.074428 
L 84.691169 -174.632643 
L 85.519916 -176.190857 
L 86.321756 -177.749071 
L 87.090935 -179.307286 
L 87.822734 -180.8655 
L 88.513595 -182.423715 
L 89.161188 -183.981929 
L 89.764437 -185.540143 
L 90.323474 -187.098358 
L 90.83955 -188.656572 
L 91.314896 -190.214787 
L 91.752549 -191.773001 
L 92.15614 -193.331215 
L 92.52968 -194.88943 
L 92.877338 -196.447644 
L 93.203224 -198.005859 
L 93.5112 -199.564073 
L 93.80472 -201.122287 
L 94.086709 -202.680502 
L 94.359478 -204.238716 
L 94.624691 -205.796931 
L 94.883369 -207.355145 
L 95.135926 -208.913359 
L 95.38225 -210.471574 
L 95.621791 -212.029788 
L 95.853673 -213.588003 
L 96.076814 -215.146217 
L 100.116729 -215.146217 
L 100.116729 -215.146217 
L 100.33987 -213.588003 
L 100.571752 -212.029788 
L 100.811293 -210.471574 
L 101.057616 -208.913359 
L 101.310174 -207.355145 
L 101.568852 -205.796931 
L 101.834065 -204.238716 
L 102.106834 -202.680502 
L 102.388823 -201.122287 
L 102.682343 -199.564073 
L 102.990319 -198.005859 
L 103.316204 -196.447644 
L 103.663862 -194.88943 
L 104.037403 -193.331215 
L 104.440994 -191.773001 
L 104.878646 -190.214787 
L 105.353993 -188.656572 
L 105.870069 -187.098358 
L 106.429106 -185.540143 
L 107.032355 -183.981929 
L 107.679948 -182.423715 
L 108.370808 -180.8655 
L 109.102608 -179.307286 
L 109.871787 -177.749071 
L 110.673627 -176.190857 
L 111.502374 -174.632643 
L 112.351409 -173.074428 
L 113.213452 -171.516214 
L 114.080797 -169.957999 
L 114.945552 -168.399785 
L 115.799888 -166.841571 
L 116.636265 -165.283356 
L 117.447647 -163.725142 
L 118.227673 -162.166927 
L 118.970786 -160.608713 
L 119.67232 -159.050499 
L 120.328534 -157.492284 
L 120.936586 -155.93407 
L 121.494478 -154.375855 
L 122.000937 -152.817641 
L 122.455281 -151.259427 
L 122.857252 -149.701212 
L 123.206836 -148.142998 
L 123.504094 -146.584783 
L 123.748992 -145.026569 
L 123.941268 -143.468355 
L 124.080325 -141.91014 
L 124.165168 -140.351926 
L 124.19439 -138.793711 
L 124.166197 -137.235497 
L 124.07849 -135.677283 
L 123.928983 -134.119068 
L 123.715357 -132.560854 
L 123.435445 -131.002639 
L 123.087423 -129.444425 
L 122.670018 -127.886211 
L 122.182703 -126.327996 
L 121.62587 -124.769782 
L 121.000986 -123.211567 
L 120.310705 -121.653353 
L 119.558932 -120.095139 
L 118.750849 -118.536924 
L 117.89288 -116.97871 
L 116.992606 -115.420495 
L 116.05863 -113.862281 
L 115.100393 -112.304067 
L 114.127948 -110.745852 
L 113.151703 -109.187638 
L 112.182137 -107.629423 
L 111.229509 -106.071209 
L 110.303556 -104.512995 
L 109.413217 -102.95478 
L 108.566367 -101.396566 
L 107.769601 -99.838351 
L 107.028053 -98.280137 
L 106.345276 -96.721923 
L 105.723183 -95.163708 
L 105.162053 -93.605494 
L 104.660593 -92.047279 
L 104.216072 -90.489065 
L 103.824499 -88.930851 
L 103.480853 -87.372636 
L 103.179338 -85.814422 
L 102.913663 -84.256207 
L 102.677328 -82.697993 
L 102.463896 -81.139779 
L 102.267248 -79.581564 
L 102.081803 -78.02335 
L 101.902699 -76.465135 
L 101.725916 -74.906921 
L 101.548362 -73.348707 
L 101.367895 -71.790492 
L 101.1833 -70.232278 
L 100.994226 -68.674063 
L 100.801082 -67.115849 
L 100.604911 -65.557635 
L 100.407242 -63.99942 
L 100.209939 -62.441206 
L 100.01505 -60.882991 
z
" id="mb47915710c" style="stroke:#414141;stroke-width:2;"/>
    </defs>
    <g clip-path="url(#pd9501c599a)">
     <use style="fill:#e68193;stroke:#414141;stroke-width:2;" x="0" xlink:href="#mb47915710c" y="391.7373"/>
    </g>
   </g>
   <g id="PolyCollection_2">
    <defs>
     <path d="M 196.664134 -108.925064 
L 190.843695 -108.925064 
L 190.476423 -110.276429 
L 190.081156 -111.627794 
L 189.657784 -112.979159 
L 189.206312 -114.330524 
L 188.72684 -115.681888 
L 188.219555 -117.033253 
L 187.684717 -118.384618 
L 187.122673 -119.735983 
L 186.533866 -121.087347 
L 185.918868 -122.438712 
L 185.278424 -123.790077 
L 184.613504 -125.141442 
L 183.925368 -126.492806 
L 183.215631 -127.844171 
L 182.486333 -129.195536 
L 181.739998 -130.546901 
L 180.979677 -131.898265 
L 180.208974 -133.24963 
L 179.432046 -134.600995 
L 178.653573 -135.95236 
L 177.878688 -137.303725 
L 177.112878 -138.655089 
L 176.361856 -140.006454 
L 175.631393 -141.357819 
L 174.927141 -142.709184 
L 174.254433 -144.060548 
L 173.618085 -145.411913 
L 173.022203 -146.763278 
L 172.470011 -148.114643 
L 171.963713 -149.466007 
L 171.504385 -150.817372 
L 171.09193 -152.168737 
L 170.725075 -153.520102 
L 170.40143 -154.871467 
L 170.117605 -156.222831 
L 169.869375 -157.574196 
L 169.651898 -158.925561 
L 169.459969 -160.276926 
L 169.288296 -161.62829 
L 169.131799 -162.979655 
L 168.985901 -164.33102 
L 168.846813 -165.682385 
L 168.711776 -167.033749 
L 168.579284 -168.385114 
L 168.449229 -169.736479 
L 168.323002 -171.087844 
L 168.203518 -172.439208 
L 168.095162 -173.790573 
L 168.003672 -175.141938 
L 167.935942 -176.493303 
L 167.899764 -177.844668 
L 167.903514 -179.196032 
L 167.955798 -180.547397 
L 168.065065 -181.898762 
L 168.239215 -183.250127 
L 168.485213 -184.601491 
L 168.808729 -185.952856 
L 169.213824 -187.304221 
L 169.702687 -188.655586 
L 170.27546 -190.00695 
L 170.930129 -191.358315 
L 171.662517 -192.70968 
L 172.46636 -194.061045 
L 173.333471 -195.41241 
L 174.253989 -196.763774 
L 175.216692 -198.115139 
L 176.209366 -199.466504 
L 177.219212 -200.817869 
L 178.23327 -202.169233 
L 179.238846 -203.520598 
L 180.223914 -204.871963 
L 181.177484 -206.223328 
L 182.089919 -207.574692 
L 182.953182 -208.926057 
L 183.761018 -210.277422 
L 184.509051 -211.628787 
L 185.194803 -212.980151 
L 185.817648 -214.331516 
L 186.378678 -215.682881 
L 186.880526 -217.034246 
L 187.327133 -218.385611 
L 187.723481 -219.736975 
L 188.075305 -221.08834 
L 188.388802 -222.439705 
L 188.670342 -223.79107 
L 188.9262 -225.142434 
L 189.162324 -226.493799 
L 189.384129 -227.845164 
L 189.596349 -229.196529 
L 189.802921 -230.547893 
L 190.006931 -231.899258 
L 190.210595 -233.250623 
L 190.415286 -234.601988 
L 190.621597 -235.953353 
L 190.82943 -237.304717 
L 191.03811 -238.656082 
L 191.246508 -240.007447 
L 191.453173 -241.358812 
L 191.656458 -242.710176 
L 195.85137 -242.710176 
L 195.85137 -242.710176 
L 196.054656 -241.358812 
L 196.261321 -240.007447 
L 196.469719 -238.656082 
L 196.678399 -237.304717 
L 196.886232 -235.953353 
L 197.092543 -234.601988 
L 197.297234 -233.250623 
L 197.500898 -231.899258 
L 197.704908 -230.547893 
L 197.91148 -229.196529 
L 198.123699 -227.845164 
L 198.345505 -226.493799 
L 198.581629 -225.142434 
L 198.837487 -223.79107 
L 199.119026 -222.439705 
L 199.432523 -221.08834 
L 199.784348 -219.736975 
L 200.180696 -218.385611 
L 200.627303 -217.034246 
L 201.129151 -215.682881 
L 201.690181 -214.331516 
L 202.313025 -212.980151 
L 202.998778 -211.628787 
L 203.74681 -210.277422 
L 204.554646 -208.926057 
L 205.417909 -207.574692 
L 206.330344 -206.223328 
L 207.283915 -204.871963 
L 208.268982 -203.520598 
L 209.274558 -202.169233 
L 210.288617 -200.817869 
L 211.298462 -199.466504 
L 212.291136 -198.115139 
L 213.253839 -196.763774 
L 214.174358 -195.41241 
L 215.041469 -194.061045 
L 215.845311 -192.70968 
L 216.577699 -191.358315 
L 217.232369 -190.00695 
L 217.805141 -188.655586 
L 218.294005 -187.304221 
L 218.699099 -185.952856 
L 219.022616 -184.601491 
L 219.268614 -183.250127 
L 219.442764 -181.898762 
L 219.55203 -180.547397 
L 219.604314 -179.196032 
L 219.608065 -177.844668 
L 219.571887 -176.493303 
L 219.504157 -175.141938 
L 219.412667 -173.790573 
L 219.304311 -172.439208 
L 219.184826 -171.087844 
L 219.0586 -169.736479 
L 218.928545 -168.385114 
L 218.796052 -167.033749 
L 218.661016 -165.682385 
L 218.521927 -164.33102 
L 218.37603 -162.979655 
L 218.219533 -161.62829 
L 218.04786 -160.276926 
L 217.85593 -158.925561 
L 217.638454 -157.574196 
L 217.390224 -156.222831 
L 217.106399 -154.871467 
L 216.782754 -153.520102 
L 216.415899 -152.168737 
L 216.003444 -150.817372 
L 215.544116 -149.466007 
L 215.037817 -148.114643 
L 214.485625 -146.763278 
L 213.889743 -145.411913 
L 213.253395 -144.060548 
L 212.580687 -142.709184 
L 211.876436 -141.357819 
L 211.145973 -140.006454 
L 210.39495 -138.655089 
L 209.629141 -137.303725 
L 208.854255 -135.95236 
L 208.075782 -134.600995 
L 207.298855 -133.24963 
L 206.528152 -131.898265 
L 205.76783 -130.546901 
L 205.021495 -129.195536 
L 204.292198 -127.844171 
L 203.582461 -126.492806 
L 202.894324 -125.141442 
L 202.229404 -123.790077 
L 201.588961 -122.438712 
L 200.973963 -121.087347 
L 200.385156 -119.735983 
L 199.823111 -118.384618 
L 199.288274 -117.033253 
L 198.780988 -115.681888 
L 198.301517 -114.330524 
L 197.850045 -112.979159 
L 197.426673 -111.627794 
L 197.031405 -110.276429 
L 196.664134 -108.925064 
z
" id="mc6739d4b7f" style="stroke:#414141;stroke-width:2;"/>
    </defs>
    <g clip-path="url(#pd9501c599a)">
     <use style="fill:#b38e44;stroke:#414141;stroke-width:2;" x="0" xlink:href="#mc6739d4b7f" y="391.7373"/>
    </g>
   </g>
   <g id="PolyCollection_3">
    <defs>
     <path d="M 294.052431 -114.388687 
L 284.769683 -114.388687 
L 284.139482 -116.385312 
L 283.461703 -118.381937 
L 282.737539 -120.378563 
L 281.968551 -122.375188 
L 281.156587 -124.371814 
L 280.303725 -126.368439 
L 279.412227 -128.365064 
L 278.484532 -130.36169 
L 277.523282 -132.358315 
L 276.531398 -134.354941 
L 275.512204 -136.351566 
L 274.469581 -138.348192 
L 273.408164 -140.344817 
L 272.333542 -142.341442 
L 271.252456 -144.338068 
L 270.172969 -146.334693 
L 269.10458 -148.331319 
L 268.05826 -150.327944 
L 267.046403 -152.324569 
L 266.082657 -154.321195 
L 265.181661 -156.31782 
L 264.358661 -158.314446 
L 263.629039 -160.311071 
L 263.007779 -162.307696 
L 262.508877 -164.304322 
L 262.144754 -166.300947 
L 261.925697 -168.297573 
L 261.859367 -170.294198 
L 261.950397 -172.290823 
L 262.200129 -174.287449 
L 262.606479 -176.284074 
L 263.16396 -178.2807 
L 263.863857 -180.277325 
L 264.694532 -182.27395 
L 265.641852 -184.270576 
L 266.689705 -186.267201 
L 267.820571 -188.263827 
L 269.01613 -190.260452 
L 270.257846 -192.257077 
L 271.527531 -194.253703 
L 272.807838 -196.250328 
L 274.082671 -198.246954 
L 275.337518 -200.243579 
L 276.559666 -202.240205 
L 277.738343 -204.23683 
L 278.864752 -206.233455 
L 279.932043 -208.230081 
L 280.935209 -210.226706 
L 281.870944 -212.223332 
L 282.73746 -214.219957 
L 283.534288 -216.216582 
L 284.26207 -218.213208 
L 284.922359 -220.209833 
L 285.517422 -222.206459 
L 286.050062 -224.203084 
L 286.523463 -226.199709 
L 286.941048 -228.196335 
L 287.306358 -230.19296 
L 287.622953 -232.189586 
L 287.894333 -234.186211 
L 288.123864 -236.182836 
L 288.314735 -238.179462 
L 288.469916 -240.176087 
L 288.59214 -242.172713 
L 288.683894 -244.169338 
L 288.747422 -246.165963 
L 288.784745 -248.162589 
L 288.797692 -250.159214 
L 288.787941 -252.15584 
L 288.757069 -254.152465 
L 288.706613 -256.149091 
L 288.638129 -258.145716 
L 288.553255 -260.142341 
L 288.45377 -262.138967 
L 288.34164 -264.135592 
L 288.219058 -266.132218 
L 288.088462 -268.128843 
L 287.952539 -270.125468 
L 287.814199 -272.122094 
L 287.67654 -274.118719 
L 287.54278 -276.115345 
L 287.416176 -278.11197 
L 287.299926 -280.108595 
L 287.197069 -282.105221 
L 287.110369 -284.101846 
L 287.042213 -286.098472 
L 286.994519 -288.095097 
L 286.968649 -290.091722 
L 286.965361 -292.088348 
L 286.984774 -294.084973 
L 287.026369 -296.081599 
L 287.08901 -298.078224 
L 287.171005 -300.074849 
L 287.27018 -302.071475 
L 287.383974 -304.0681 
L 287.509554 -306.064726 
L 287.643929 -308.061351 
L 287.784071 -310.057977 
L 287.927019 -312.054602 
L 290.895095 -312.054602 
L 290.895095 -312.054602 
L 291.038044 -310.057977 
L 291.178185 -308.061351 
L 291.312561 -306.064726 
L 291.438141 -304.0681 
L 291.551935 -302.071475 
L 291.651109 -300.074849 
L 291.733104 -298.078224 
L 291.795746 -296.081599 
L 291.83734 -294.084973 
L 291.856753 -292.088348 
L 291.853465 -290.091722 
L 291.827596 -288.095097 
L 291.779901 -286.098472 
L 291.711746 -284.101846 
L 291.625046 -282.105221 
L 291.522188 -280.108595 
L 291.405939 -278.11197 
L 291.279334 -276.115345 
L 291.145574 -274.118719 
L 291.007915 -272.122094 
L 290.869576 -270.125468 
L 290.733652 -268.128843 
L 290.603056 -266.132218 
L 290.480474 -264.135592 
L 290.368344 -262.138967 
L 290.268859 -260.142341 
L 290.183985 -258.145716 
L 290.115501 -256.149091 
L 290.065045 -254.152465 
L 290.034174 -252.15584 
L 290.024422 -250.159214 
L 290.037369 -248.162589 
L 290.074692 -246.165963 
L 290.13822 -244.169338 
L 290.229974 -242.172713 
L 290.352199 -240.176087 
L 290.50738 -238.179462 
L 290.69825 -236.182836 
L 290.927782 -234.186211 
L 291.199161 -232.189586 
L 291.515757 -230.19296 
L 291.881066 -228.196335 
L 292.298651 -226.199709 
L 292.772052 -224.203084 
L 293.304693 -222.206459 
L 293.899755 -220.209833 
L 294.560044 -218.213208 
L 295.287826 -216.216582 
L 296.084654 -214.219957 
L 296.95117 -212.223332 
L 297.886905 -210.226706 
L 298.890072 -208.230081 
L 299.957362 -206.233455 
L 301.083772 -204.23683 
L 302.262448 -202.240205 
L 303.484597 -200.243579 
L 304.739443 -198.246954 
L 306.014277 -196.250328 
L 307.294583 -194.253703 
L 308.564268 -192.257077 
L 309.805985 -190.260452 
L 311.001543 -188.263827 
L 312.13241 -186.267201 
L 313.180262 -184.270576 
L 314.127582 -182.27395 
L 314.958258 -180.277325 
L 315.658155 -178.2807 
L 316.215636 -176.284074 
L 316.621985 -174.287449 
L 316.871717 -172.290823 
L 316.962748 -170.294198 
L 316.896417 -168.297573 
L 316.677361 -166.300947 
L 316.313237 -164.304322 
L 315.814335 -162.307696 
L 315.193075 -160.311071 
L 314.463454 -158.314446 
L 313.640453 -156.31782 
L 312.739457 -154.321195 
L 311.775711 -152.324569 
L 310.763854 -150.327944 
L 309.717534 -148.331319 
L 308.649145 -146.334693 
L 307.569659 -144.338068 
L 306.488573 -142.341442 
L 305.41395 -140.344817 
L 304.352533 -138.348192 
L 303.309911 -136.351566 
L 302.290716 -134.354941 
L 301.298833 -132.358315 
L 300.337582 -130.36169 
L 299.409887 -128.365064 
L 298.518389 -126.368439 
L 297.665527 -124.371814 
L 296.853563 -122.375188 
L 296.084575 -120.378563 
L 295.360412 -118.381937 
L 294.682632 -116.385312 
L 294.052431 -114.388687 
z
" id="mb14c6a83ef" style="stroke:#414141;stroke-width:2;"/>
    </defs>
    <g clip-path="url(#pd9501c599a)">
     <use style="fill:#7d9a40;stroke:#414141;stroke-width:2;" x="0" xlink:href="#mb14c6a83ef" y="391.7373"/>
    </g>
   </g>
   <g id="PolyCollection_4">
    <defs>
     <path d="M 388.194396 -94.372558 
L 381.942004 -94.372558 
L 381.498707 -96.246361 
L 381.013934 -98.120163 
L 380.487207 -99.993965 
L 379.918606 -101.867767 
L 379.308834 -103.741569 
L 378.659277 -105.615372 
L 377.972052 -107.489174 
L 377.250038 -109.362976 
L 376.496902 -111.236778 
L 375.71709 -113.11058 
L 374.915807 -114.984383 
L 374.098969 -116.858185 
L 373.273127 -118.731987 
L 372.445367 -120.605789 
L 371.623188 -122.479591 
L 370.814347 -124.353393 
L 370.026697 -126.227196 
L 369.268 -128.100998 
L 368.545742 -129.9748 
L 367.866937 -131.848602 
L 367.23795 -133.722404 
L 366.664321 -135.596207 
L 366.150628 -137.470009 
L 365.70037 -139.343811 
L 365.315891 -141.217613 
L 364.998342 -143.091415 
L 364.747694 -144.965217 
L 364.562783 -146.83902 
L 364.441412 -148.712822 
L 364.380474 -150.586624 
L 364.376118 -152.460426 
L 364.423935 -154.334228 
L 364.519155 -156.208031 
L 364.65685 -158.081833 
L 364.832135 -159.955635 
L 365.040344 -161.829437 
L 365.277191 -163.703239 
L 365.538895 -165.577042 
L 365.822271 -167.450844 
L 366.124778 -169.324646 
L 366.444531 -171.198448 
L 366.780273 -173.07225 
L 367.13131 -174.946052 
L 367.497419 -176.819855 
L 367.878733 -178.693657 
L 368.275606 -180.567459 
L 368.688482 -182.441261 
L 369.117757 -184.315063 
L 369.563652 -186.188866 
L 370.026107 -188.062668 
L 370.50469 -189.93647 
L 370.998542 -191.810272 
L 371.506342 -193.684074 
L 372.026299 -195.557876 
L 372.55618 -197.431679 
L 373.093352 -199.305481 
L 373.634851 -201.179283 
L 374.17746 -203.053085 
L 374.717802 -204.926887 
L 375.252429 -206.80069 
L 375.77792 -208.674492 
L 376.290965 -210.548294 
L 376.788444 -212.422096 
L 377.267493 -214.295898 
L 377.725564 -216.1697 
L 378.160461 -218.043503 
L 378.570377 -219.917305 
L 378.953912 -221.791107 
L 379.310081 -223.664909 
L 379.638325 -225.538711 
L 379.9385 -227.412514 
L 380.210878 -229.286316 
L 380.456126 -231.160118 
L 380.675299 -233.03392 
L 380.86981 -234.907722 
L 381.041406 -236.781525 
L 381.192138 -238.655327 
L 381.324313 -240.529129 
L 381.440453 -242.402931 
L 381.543233 -244.276733 
L 381.635423 -246.150535 
L 381.719816 -248.024338 
L 381.799157 -249.89814 
L 381.876069 -251.771942 
L 381.952982 -253.645744 
L 382.032067 -255.519546 
L 382.115175 -257.393349 
L 382.203794 -259.267151 
L 382.299011 -261.140953 
L 382.401499 -263.014755 
L 382.51151 -264.888557 
L 382.628894 -266.762359 
L 382.753127 -268.636162 
L 382.883356 -270.509964 
L 383.01845 -272.383766 
L 383.157068 -274.257568 
L 383.297722 -276.13137 
L 383.438849 -278.005173 
L 383.578874 -279.878975 
L 386.557526 -279.878975 
L 386.557526 -279.878975 
L 386.697551 -278.005173 
L 386.838678 -276.13137 
L 386.979332 -274.257568 
L 387.11795 -272.383766 
L 387.253044 -270.509964 
L 387.383273 -268.636162 
L 387.507506 -266.762359 
L 387.62489 -264.888557 
L 387.734901 -263.014755 
L 387.837389 -261.140953 
L 387.932606 -259.267151 
L 388.021225 -257.393349 
L 388.104333 -255.519546 
L 388.183418 -253.645744 
L 388.260331 -251.771942 
L 388.337243 -249.89814 
L 388.416584 -248.024338 
L 388.500977 -246.150535 
L 388.593167 -244.276733 
L 388.695947 -242.402931 
L 388.812087 -240.529129 
L 388.944262 -238.655327 
L 389.094994 -236.781525 
L 389.26659 -234.907722 
L 389.461101 -233.03392 
L 389.680274 -231.160118 
L 389.925522 -229.286316 
L 390.1979 -227.412514 
L 390.498075 -225.538711 
L 390.826319 -223.664909 
L 391.182488 -221.791107 
L 391.566023 -219.917305 
L 391.975939 -218.043503 
L 392.410836 -216.1697 
L 392.868907 -214.295898 
L 393.347956 -212.422096 
L 393.845435 -210.548294 
L 394.35848 -208.674492 
L 394.883971 -206.80069 
L 395.418598 -204.926887 
L 395.95894 -203.053085 
L 396.501549 -201.179283 
L 397.043048 -199.305481 
L 397.58022 -197.431679 
L 398.110101 -195.557876 
L 398.630058 -193.684074 
L 399.137858 -191.810272 
L 399.63171 -189.93647 
L 400.110293 -188.062668 
L 400.572748 -186.188866 
L 401.018643 -184.315063 
L 401.447918 -182.441261 
L 401.860794 -180.567459 
L 402.257667 -178.693657 
L 402.638981 -176.819855 
L 403.00509 -174.946052 
L 403.356127 -173.07225 
L 403.691869 -171.198448 
L 404.011622 -169.324646 
L 404.314129 -167.450844 
L 404.597505 -165.577042 
L 404.859209 -163.703239 
L 405.096056 -161.829437 
L 405.304265 -159.955635 
L 405.47955 -158.081833 
L 405.617245 -156.208031 
L 405.712465 -154.334228 
L 405.760282 -152.460426 
L 405.755926 -150.586624 
L 405.694988 -148.712822 
L 405.573617 -146.83902 
L 405.388706 -144.965217 
L 405.138058 -143.091415 
L 404.820509 -141.217613 
L 404.43603 -139.343811 
L 403.985772 -137.470009 
L 403.472079 -135.596207 
L 402.89845 -133.722404 
L 402.269463 -131.848602 
L 401.590658 -129.9748 
L 400.8684 -128.100998 
L 400.109703 -126.227196 
L 399.322053 -124.353393 
L 398.513212 -122.479591 
L 397.691033 -120.605789 
L 396.863273 -118.731987 
L 396.037431 -116.858185 
L 395.220593 -114.984383 
L 394.41931 -113.11058 
L 393.639498 -111.236778 
L 392.886362 -109.362976 
L 392.164348 -107.489174 
L 391.477123 -105.615372 
L 390.827566 -103.741569 
L 390.217794 -101.867767 
L 389.649193 -99.993965 
L 389.122466 -98.120163 
L 388.637693 -96.246361 
L 388.194396 -94.372558 
z
" id="m31a331f66d" style="stroke:#414141;stroke-width:2;"/>
    </defs>
    <g clip-path="url(#pd9501c599a)">
     <use style="fill:#43a084;stroke:#414141;stroke-width:2;" x="0" xlink:href="#m31a331f66d" y="391.7373"/>
    </g>
   </g>
   <g id="PolyCollection_5">
    <defs>
     <path d="M 484.490509 -107.663896 
L 476.960177 -107.663896 
L 476.486211 -108.793848 
L 475.97481 -109.923799 
L 475.426111 -111.053751 
L 474.840703 -112.183702 
L 474.219657 -113.313654 
L 473.564543 -114.443605 
L 472.877451 -115.573557 
L 472.160981 -116.703509 
L 471.418234 -117.83346 
L 470.652778 -118.963412 
L 469.868598 -120.093363 
L 469.070028 -121.223315 
L 468.261662 -122.353266 
L 467.448248 -123.483218 
L 466.634561 -124.61317 
L 465.825272 -125.743121 
L 465.024796 -126.873073 
L 464.237148 -128.003024 
L 463.465796 -129.132976 
L 462.713529 -130.262927 
L 461.982344 -131.392879 
L 461.273366 -132.522831 
L 460.586793 -133.652782 
L 459.921895 -134.782734 
L 459.277057 -135.912685 
L 458.649863 -137.042637 
L 458.037246 -138.172588 
L 457.435666 -139.30254 
L 456.841341 -140.432491 
L 456.250511 -141.562443 
L 455.659706 -142.692395 
L 455.066047 -143.822346 
L 454.467516 -144.952298 
L 453.863218 -146.082249 
L 453.253603 -147.212201 
L 452.640636 -148.342152 
L 452.027906 -149.472104 
L 451.420668 -150.602056 
L 450.825801 -151.732007 
L 450.251699 -152.861959 
L 449.708075 -153.99191 
L 449.205702 -155.121862 
L 448.756095 -156.251813 
L 448.371132 -157.381765 
L 448.062661 -158.511717 
L 447.842067 -159.641668 
L 447.719857 -160.77162 
L 447.705255 -161.901571 
L 447.805825 -163.031523 
L 448.027152 -164.161474 
L 448.372582 -165.291426 
L 448.843025 -166.421378 
L 449.436853 -167.551329 
L 450.149864 -168.681281 
L 450.975342 -169.811232 
L 451.904191 -170.941184 
L 452.925147 -172.071135 
L 454.025059 -173.201087 
L 455.189227 -174.331039 
L 456.401781 -175.46099 
L 457.646098 -176.590942 
L 458.905234 -177.720893 
L 460.16236 -178.850845 
L 461.40119 -179.980796 
L 462.606382 -181.110748 
L 463.763909 -182.240699 
L 464.861381 -183.370651 
L 465.888312 -184.500603 
L 466.836329 -185.630554 
L 467.699314 -186.760506 
L 468.473474 -187.890457 
L 469.157347 -189.020409 
L 469.751738 -190.15036 
L 470.25959 -191.280312 
L 470.685802 -192.410264 
L 471.03699 -193.540215 
L 471.32121 -194.670167 
L 471.547646 -195.800118 
L 471.726283 -196.93007 
L 471.867561 -198.060021 
L 471.982037 -199.189973 
L 472.080055 -200.319925 
L 472.171446 -201.449876 
L 472.265252 -202.579828 
L 472.369494 -203.709779 
L 472.490991 -204.839731 
L 472.635222 -205.969682 
L 472.80625 -207.099634 
L 473.006694 -208.229586 
L 473.237753 -209.359537 
L 473.499283 -210.489489 
L 473.789909 -211.61944 
L 474.107177 -212.749392 
L 474.447728 -213.879343 
L 474.807498 -215.009295 
L 475.181915 -216.139247 
L 475.566107 -217.269198 
L 475.955098 -218.39915 
L 476.343982 -219.529101 
L 485.106704 -219.529101 
L 485.106704 -219.529101 
L 485.495588 -218.39915 
L 485.884578 -217.269198 
L 486.268771 -216.139247 
L 486.643188 -215.009295 
L 487.002958 -213.879343 
L 487.343509 -212.749392 
L 487.660776 -211.61944 
L 487.951402 -210.489489 
L 488.212932 -209.359537 
L 488.443992 -208.229586 
L 488.644436 -207.099634 
L 488.815464 -205.969682 
L 488.959695 -204.839731 
L 489.081192 -203.709779 
L 489.185434 -202.579828 
L 489.279239 -201.449876 
L 489.37063 -200.319925 
L 489.468649 -199.189973 
L 489.583124 -198.060021 
L 489.724402 -196.93007 
L 489.90304 -195.800118 
L 490.129476 -194.670167 
L 490.413696 -193.540215 
L 490.764884 -192.410264 
L 491.191096 -191.280312 
L 491.698948 -190.15036 
L 492.293339 -189.020409 
L 492.977212 -187.890457 
L 493.751372 -186.760506 
L 494.614356 -185.630554 
L 495.562374 -184.500603 
L 496.589305 -183.370651 
L 497.686776 -182.240699 
L 498.844304 -181.110748 
L 500.049496 -179.980796 
L 501.288326 -178.850845 
L 502.545452 -177.720893 
L 503.804588 -176.590942 
L 505.048905 -175.46099 
L 506.261458 -174.331039 
L 507.425626 -173.201087 
L 508.525539 -172.071135 
L 509.546495 -170.941184 
L 510.475343 -169.811232 
L 511.300821 -168.681281 
L 512.013833 -167.551329 
L 512.60766 -166.421378 
L 513.078104 -165.291426 
L 513.423533 -164.161474 
L 513.644861 -163.031523 
L 513.745431 -161.901571 
L 513.730828 -160.77162 
L 513.608619 -159.641668 
L 513.388025 -158.511717 
L 513.079553 -157.381765 
L 512.694591 -156.251813 
L 512.244983 -155.121862 
L 511.742611 -153.99191 
L 511.198987 -152.861959 
L 510.624884 -151.732007 
L 510.030018 -150.602056 
L 509.42278 -149.472104 
L 508.81005 -148.342152 
L 508.197083 -147.212201 
L 507.587468 -146.082249 
L 506.98317 -144.952298 
L 506.384638 -143.822346 
L 505.790979 -142.692395 
L 505.200175 -141.562443 
L 504.609344 -140.432491 
L 504.01502 -139.30254 
L 503.41344 -138.172588 
L 502.800822 -137.042637 
L 502.173629 -135.912685 
L 501.528791 -134.782734 
L 500.863893 -133.652782 
L 500.17732 -132.522831 
L 499.468341 -131.392879 
L 498.737157 -130.262927 
L 497.98489 -129.132976 
L 497.213537 -128.003024 
L 496.425889 -126.873073 
L 495.625413 -125.743121 
L 494.816124 -124.61317 
L 494.002438 -123.483218 
L 493.189023 -122.353266 
L 492.380658 -121.223315 
L 491.582088 -120.093363 
L 490.797908 -118.963412 
L 490.032452 -117.83346 
L 489.289705 -116.703509 
L 488.573235 -115.573557 
L 487.886142 -114.443605 
L 487.231029 -113.313654 
L 486.609982 -112.183702 
L 486.024575 -111.053751 
L 485.475876 -109.923799 
L 484.964475 -108.793848 
L 484.490509 -107.663896 
z
" id="m24ab57f6e8" style="stroke:#414141;stroke-width:2;"/>
    </defs>
    <g clip-path="url(#pd9501c599a)">
     <use style="fill:#489eaa;stroke:#414141;stroke-width:2;" x="0" xlink:href="#m24ab57f6e8" y="391.7373"/>
    </g>
   </g>
   <g id="PolyCollection_6">
    <defs>
     <path d="M 582.953524 -110.723168 
L 569.811447 -110.723168 
L 569.177125 -111.668712 
L 568.525472 -112.614256 
L 567.862103 -113.5598 
L 567.19318 -114.505344 
L 566.525294 -115.450888 
L 565.865315 -116.396432 
L 565.220234 -117.341977 
L 564.596977 -118.287521 
L 564.002216 -119.233065 
L 563.44217 -120.178609 
L 562.922415 -121.124153 
L 562.447688 -122.069697 
L 562.021721 -123.015242 
L 561.64708 -123.960786 
L 561.325046 -124.90633 
L 561.055505 -125.851874 
L 560.836897 -126.797418 
L 560.666179 -127.742962 
L 560.538845 -128.688506 
L 560.448971 -129.634051 
L 560.389315 -130.579595 
L 560.351436 -131.525139 
L 560.325868 -132.470683 
L 560.302312 -133.416227 
L 560.269863 -134.361771 
L 560.217261 -135.307315 
L 560.133158 -136.25286 
L 560.006404 -137.198404 
L 559.826336 -138.143948 
L 559.583065 -139.089492 
L 559.267767 -140.035036 
L 558.872951 -140.98058 
L 558.392714 -141.926125 
L 557.822963 -142.871669 
L 557.161607 -143.817213 
L 556.408702 -144.762757 
L 555.566554 -145.708301 
L 554.639767 -146.653845 
L 553.635229 -147.599389 
L 552.562043 -148.544934 
L 551.431396 -149.490478 
L 550.256364 -150.436022 
L 549.05166 -151.381566 
L 547.833336 -152.32711 
L 546.618427 -153.272654 
L 545.424576 -154.218199 
L 544.269613 -155.163743 
L 543.171142 -156.109287 
L 542.146114 -157.054831 
L 541.210419 -158.000375 
L 540.378504 -158.945919 
L 539.663037 -159.891463 
L 539.074607 -160.837008 
L 538.621506 -161.782552 
L 538.309558 -162.728096 
L 538.142032 -163.67364 
L 538.119629 -164.619184 
L 538.240535 -165.564728 
L 538.500555 -166.510273 
L 538.893298 -167.455817 
L 539.410426 -168.401361 
L 540.041947 -169.346905 
L 540.776538 -170.292449 
L 541.601895 -171.237993 
L 542.505087 -172.183537 
L 543.47291 -173.129082 
L 544.492228 -174.074626 
L 545.550287 -175.02017 
L 546.63499 -175.965714 
L 547.735145 -176.911258 
L 548.84065 -177.856802 
L 549.942641 -178.802347 
L 551.033582 -179.747891 
L 552.107302 -180.693435 
L 553.158995 -181.638979 
L 554.185162 -182.584523 
L 555.183522 -183.530067 
L 556.15289 -184.475611 
L 557.093025 -185.421156 
L 558.004462 -186.3667 
L 558.88834 -187.312244 
L 559.746215 -188.257788 
L 560.579891 -189.203332 
L 561.391257 -190.148876 
L 562.182136 -191.09442 
L 562.954163 -192.039965 
L 563.708688 -192.985509 
L 564.446699 -193.931053 
L 565.168778 -194.876597 
L 565.875083 -195.822141 
L 566.565356 -196.767685 
L 567.238952 -197.71323 
L 567.894885 -198.658774 
L 568.531896 -199.604318 
L 569.148525 -200.549862 
L 569.743192 -201.495406 
L 570.314281 -202.44095 
L 570.860215 -203.386494 
L 571.379536 -204.332039 
L 581.385435 -204.332039 
L 581.385435 -204.332039 
L 581.904756 -203.386494 
L 582.450691 -202.44095 
L 583.021779 -201.495406 
L 583.616447 -200.549862 
L 584.233076 -199.604318 
L 584.870087 -198.658774 
L 585.52602 -197.71323 
L 586.199615 -196.767685 
L 586.889888 -195.822141 
L 587.596194 -194.876597 
L 588.318272 -193.931053 
L 589.056283 -192.985509 
L 589.810808 -192.039965 
L 590.582836 -191.09442 
L 591.373714 -190.148876 
L 592.18508 -189.203332 
L 593.018757 -188.257788 
L 593.876632 -187.312244 
L 594.760509 -186.3667 
L 595.671947 -185.421156 
L 596.612081 -184.475611 
L 597.581449 -183.530067 
L 598.57981 -182.584523 
L 599.605977 -181.638979 
L 600.65767 -180.693435 
L 601.73139 -179.747891 
L 602.82233 -178.802347 
L 603.924321 -177.856802 
L 605.029827 -176.911258 
L 606.129981 -175.965714 
L 607.214685 -175.02017 
L 608.272743 -174.074626 
L 609.292061 -173.129082 
L 610.259885 -172.183537 
L 611.163076 -171.237993 
L 611.988433 -170.292449 
L 612.723025 -169.346905 
L 613.354546 -168.401361 
L 613.871674 -167.455817 
L 614.264416 -166.510273 
L 614.524436 -165.564728 
L 614.645343 -164.619184 
L 614.622939 -163.67364 
L 614.455413 -162.728096 
L 614.143465 -161.782552 
L 613.690364 -160.837008 
L 613.101935 -159.891463 
L 612.386467 -158.945919 
L 611.554553 -158.000375 
L 610.618857 -157.054831 
L 609.593829 -156.109287 
L 608.495358 -155.163743 
L 607.340396 -154.218199 
L 606.146544 -153.272654 
L 604.931636 -152.32711 
L 603.713311 -151.381566 
L 602.508608 -150.436022 
L 601.333575 -149.490478 
L 600.202928 -148.544934 
L 599.129743 -147.599389 
L 598.125205 -146.653845 
L 597.198417 -145.708301 
L 596.35627 -144.762757 
L 595.603365 -143.817213 
L 594.942008 -142.871669 
L 594.372257 -141.926125 
L 593.89202 -140.98058 
L 593.497205 -140.035036 
L 593.181907 -139.089492 
L 592.938636 -138.143948 
L 592.758567 -137.198404 
L 592.631814 -136.25286 
L 592.547711 -135.307315 
L 592.495108 -134.361771 
L 592.462659 -133.416227 
L 592.439103 -132.470683 
L 592.413535 -131.525139 
L 592.375657 -130.579595 
L 592.316 -129.634051 
L 592.226127 -128.688506 
L 592.098792 -127.742962 
L 591.928074 -126.797418 
L 591.709466 -125.851874 
L 591.439926 -124.90633 
L 591.117891 -123.960786 
L 590.743251 -123.015242 
L 590.317283 -122.069697 
L 589.842557 -121.124153 
L 589.322801 -120.178609 
L 588.762756 -119.233065 
L 588.167994 -118.287521 
L 587.544737 -117.341977 
L 586.899656 -116.396432 
L 586.239678 -115.450888 
L 585.571791 -114.505344 
L 584.902869 -113.5598 
L 584.239499 -112.614256 
L 583.587846 -111.668712 
L 582.953524 -110.723168 
z
" id="m07205d6589" style="stroke:#414141;stroke-width:2;"/>
    </defs>
    <g clip-path="url(#pd9501c599a)">
     <use style="fill:#8fa0e6;stroke:#414141;stroke-width:2;" x="0" xlink:href="#m07205d6589" y="391.7373"/>
    </g>
   </g>
   <g id="PolyCollection_7">
    <defs>
     <path d="M 673.761618 -85.503504 
L 670.317639 -85.503504 
L 670.115656 -87.533513 
L 669.898001 -89.563522 
L 669.664095 -91.593531 
L 669.413313 -93.623539 
L 669.144972 -95.653548 
L 668.858324 -97.683557 
L 668.55255 -99.713565 
L 668.226761 -101.743574 
L 667.880015 -103.773583 
L 667.51133 -105.803592 
L 667.119717 -107.8336 
L 666.704223 -109.863609 
L 666.263973 -111.893618 
L 665.798239 -113.923626 
L 665.306497 -115.953635 
L 664.788507 -117.983644 
L 664.244385 -120.013652 
L 663.674677 -122.043661 
L 663.080438 -124.07367 
L 662.463287 -126.103679 
L 661.825475 -128.133687 
L 661.169915 -130.163696 
L 660.500214 -132.193705 
L 659.820676 -134.223713 
L 659.136285 -136.253722 
L 658.452664 -138.283731 
L 657.776017 -140.31374 
L 657.113033 -142.343748 
L 656.470789 -144.373757 
L 655.856612 -146.403766 
L 655.277936 -148.433774 
L 654.742146 -150.463783 
L 654.256403 -152.493792 
L 653.82748 -154.523801 
L 653.461582 -156.553809 
L 653.164187 -158.583818 
L 652.939887 -160.613827 
L 652.792258 -162.643835 
L 652.723734 -164.673844 
L 652.73553 -166.703853 
L 652.827569 -168.733861 
L 652.998462 -170.76387 
L 653.245508 -172.793879 
L 653.564736 -174.823888 
L 653.950974 -176.853896 
L 654.397956 -178.883905 
L 654.898455 -180.913914 
L 655.444444 -182.943922 
L 656.027276 -184.973931 
L 656.637882 -187.00394 
L 657.266977 -189.033949 
L 657.905271 -191.063957 
L 658.543682 -193.093966 
L 659.17353 -195.123975 
L 659.786725 -197.153983 
L 660.375933 -199.183992 
L 660.934717 -201.214001 
L 661.457648 -203.244009 
L 661.940388 -205.274018 
L 662.379739 -207.304027 
L 662.773659 -209.334036 
L 663.121252 -211.364044 
L 663.422719 -213.394053 
L 663.67929 -215.424062 
L 663.893131 -217.45407 
L 664.06723 -219.484079 
L 664.205276 -221.514088 
L 664.311519 -223.544097 
L 664.390634 -225.574105 
L 664.44758 -227.604114 
L 664.487468 -229.634123 
L 664.51543 -231.664131 
L 664.536503 -233.69414 
L 664.555521 -235.724149 
L 664.577028 -237.754158 
L 664.605193 -239.784166 
L 664.643751 -241.814175 
L 664.695949 -243.844184 
L 664.764514 -245.874192 
L 664.851626 -247.904201 
L 664.958908 -249.93421 
L 665.087422 -251.964218 
L 665.237683 -253.994227 
L 665.409673 -256.024236 
L 665.602869 -258.054245 
L 665.816283 -260.084253 
L 666.048497 -262.114262 
L 666.297716 -264.144271 
L 666.561822 -266.174279 
L 666.838433 -268.204288 
L 667.124965 -270.234297 
L 667.418698 -272.264306 
L 667.716842 -274.294314 
L 668.016598 -276.324323 
L 668.315227 -278.354332 
L 668.610103 -280.38434 
L 668.898768 -282.414349 
L 669.178976 -284.444358 
L 669.448734 -286.474367 
L 674.630523 -286.474367 
L 674.630523 -286.474367 
L 674.900281 -284.444358 
L 675.180489 -282.414349 
L 675.469154 -280.38434 
L 675.76403 -278.354332 
L 676.062659 -276.324323 
L 676.362415 -274.294314 
L 676.660559 -272.264306 
L 676.954292 -270.234297 
L 677.240824 -268.204288 
L 677.517435 -266.174279 
L 677.781541 -264.144271 
L 678.03076 -262.114262 
L 678.262974 -260.084253 
L 678.476388 -258.054245 
L 678.669585 -256.024236 
L 678.841574 -253.994227 
L 678.991835 -251.964218 
L 679.120349 -249.93421 
L 679.227631 -247.904201 
L 679.314743 -245.874192 
L 679.383308 -243.844184 
L 679.435506 -241.814175 
L 679.474064 -239.784166 
L 679.502229 -237.754158 
L 679.523736 -235.724149 
L 679.542755 -233.69414 
L 679.563827 -231.664131 
L 679.591789 -229.634123 
L 679.631677 -227.604114 
L 679.688623 -225.574105 
L 679.767738 -223.544097 
L 679.873981 -221.514088 
L 680.012027 -219.484079 
L 680.186127 -217.45407 
L 680.399967 -215.424062 
L 680.656538 -213.394053 
L 680.958005 -211.364044 
L 681.305598 -209.334036 
L 681.699519 -207.304027 
L 682.138869 -205.274018 
L 682.621609 -203.244009 
L 683.14454 -201.214001 
L 683.703324 -199.183992 
L 684.292533 -197.153983 
L 684.905728 -195.123975 
L 685.535575 -193.093966 
L 686.173986 -191.063957 
L 686.812281 -189.033949 
L 687.441375 -187.00394 
L 688.051981 -184.973931 
L 688.634813 -182.943922 
L 689.180802 -180.913914 
L 689.681301 -178.883905 
L 690.128283 -176.853896 
L 690.514521 -174.823888 
L 690.833749 -172.793879 
L 691.080795 -170.76387 
L 691.251688 -168.733861 
L 691.343727 -166.703853 
L 691.355523 -164.673844 
L 691.287 -162.643835 
L 691.13937 -160.613827 
L 690.91507 -158.583818 
L 690.617675 -156.553809 
L 690.251777 -154.523801 
L 689.822854 -152.493792 
L 689.337111 -150.463783 
L 688.801321 -148.433774 
L 688.222645 -146.403766 
L 687.608468 -144.373757 
L 686.966224 -142.343748 
L 686.303241 -140.31374 
L 685.626593 -138.283731 
L 684.942972 -136.253722 
L 684.258581 -134.223713 
L 683.579043 -132.193705 
L 682.909342 -130.163696 
L 682.253782 -128.133687 
L 681.61597 -126.103679 
L 680.99882 -124.07367 
L 680.40458 -122.043661 
L 679.834872 -120.013652 
L 679.29075 -117.983644 
L 678.77276 -115.953635 
L 678.281018 -113.923626 
L 677.815284 -111.893618 
L 677.375034 -109.863609 
L 676.95954 -107.8336 
L 676.567927 -105.803592 
L 676.199242 -103.773583 
L 675.852496 -101.743574 
L 675.526707 -99.713565 
L 675.220933 -97.683557 
L 674.934285 -95.653548 
L 674.665944 -93.623539 
L 674.415162 -91.593531 
L 674.181256 -89.563522 
L 673.963601 -87.533513 
L 673.761618 -85.503504 
z
" id="m218cc3a2d1" style="stroke:#414141;stroke-width:2;"/>
    </defs>
    <g clip-path="url(#pd9501c599a)">
     <use style="fill:#e270db;stroke:#414141;stroke-width:2;" x="0" xlink:href="#m218cc3a2d1" y="391.7373"/>
    </g>
   </g>
   <g id="line2d_1">
    <path clip-path="url(#pd9501c599a)" d="M 50.2682 240.358849 
L 719.8682 240.358849 
" style="fill:none;stroke:#404040;stroke-dasharray:5.55,2.4;stroke-dashoffset:0;stroke-width:1.5;"/>
   </g>
   <g id="line2d_2">
    <path clip-path="url(#pd9501c599a)" d="M 98.096771 314.401691 
L 98.096771 193.043701 
" style="fill:none;stroke:#414141;stroke-linecap:round;stroke-width:2;"/>
   </g>
   <g id="line2d_3">
    <path clip-path="url(#pd9501c599a)" d="M 98.096771 268.317049 
L 98.096771 236.079589 
" style="fill:none;stroke:#414141;stroke-linecap:round;stroke-width:6;"/>
   </g>
   <g id="line2d_4">
    <path clip-path="url(#pd9501c599a)" d="M 193.753914 267.699857 
L 193.753914 164.139502 
" style="fill:none;stroke:#414141;stroke-linecap:round;stroke-width:2;"/>
   </g>
   <g id="line2d_5">
    <path clip-path="url(#pd9501c599a)" d="M 193.753914 240.845328 
L 193.753914 202.1478 
" style="fill:none;stroke:#414141;stroke-linecap:round;stroke-width:6;"/>
   </g>
   <g id="line2d_6">
    <path clip-path="url(#pd9501c599a)" d="M 289.411057 254.412842 
L 289.411057 203.051927 
" style="fill:none;stroke:#414141;stroke-linecap:round;stroke-width:2;"/>
   </g>
   <g id="line2d_7">
    <path clip-path="url(#pd9501c599a)" d="M 289.411057 230.210016 
L 289.411057 213.38252 
" style="fill:none;stroke:#414141;stroke-linecap:round;stroke-width:6;"/>
   </g>
   <g id="line2d_8">
    <path clip-path="url(#pd9501c599a)" d="M 385.0682 276.105343 
L 385.0682 171.686872 
" style="fill:none;stroke:#414141;stroke-linecap:round;stroke-width:2;"/>
   </g>
   <g id="line2d_9">
    <path clip-path="url(#pd9501c599a)" d="M 385.0682 250.93991 
L 385.0682 204.000565 
" style="fill:none;stroke:#414141;stroke-linecap:round;stroke-width:6;"/>
   </g>
   <g id="line2d_10">
    <path clip-path="url(#pd9501c599a)" d="M 480.725343 270.574745 
L 480.725343 185.706857 
" style="fill:none;stroke:#414141;stroke-linecap:round;stroke-width:2;"/>
   </g>
   <g id="line2d_11">
    <path clip-path="url(#pd9501c599a)" d="M 480.725343 250.739053 
L 480.725343 220.904979 
" style="fill:none;stroke:#414141;stroke-linecap:round;stroke-width:6;"/>
   </g>
   <g id="line2d_12">
    <path clip-path="url(#pd9501c599a)" d="M 576.382486 266.70582 
L 576.382486 199.473968 
" style="fill:none;stroke:#414141;stroke-linecap:round;stroke-width:2;"/>
   </g>
   <g id="line2d_13">
    <path clip-path="url(#pd9501c599a)" d="M 576.382486 239.938014 
L 576.382486 221.437933 
" style="fill:none;stroke:#414141;stroke-linecap:round;stroke-width:6;"/>
   </g>
   <g id="line2d_14">
    <path clip-path="url(#pd9501c599a)" d="M 672.039629 281.499459 
L 672.039629 129.99727 
" style="fill:none;stroke:#414141;stroke-linecap:round;stroke-width:2;"/>
   </g>
   <g id="line2d_15">
    <path clip-path="url(#pd9501c599a)" d="M 672.039629 236.605978 
L 672.039629 193.59732 
" style="fill:none;stroke:#414141;stroke-linecap:round;stroke-width:6;"/>
   </g>
   <g id="patch_3">
    <path d="M 50.2682 367.986675 
L 50.2682 41.826675 
" style="fill:none;stroke:#262626;stroke-linecap:square;stroke-linejoin:miter;stroke-width:1.25;"/>
   </g>
   <g id="patch_4">
    <path d="M 719.8682 367.986675 
L 719.8682 41.826675 
" style="fill:none;stroke:#262626;stroke-linecap:square;stroke-linejoin:miter;stroke-width:1.25;"/>
   </g>
   <g id="patch_5">
    <path d="M 50.2682 367.986675 
L 719.8682 367.986675 
" style="fill:none;stroke:#262626;stroke-linecap:square;stroke-linejoin:miter;stroke-width:1.25;"/>
   </g>
   <g id="patch_6">
    <path d="M 50.2682 41.826675 
L 719.8682 41.826675 
" style="fill:none;stroke:#262626;stroke-linecap:square;stroke-linejoin:miter;stroke-width:1.25;"/>
   </g>
   <g id="PathCollection_1">
    <defs>
     <path d="M 0 2 
C 0.530406 2 1.03916 1.789267 1.414214 1.414214 
C 1.789267 1.03916 2 0.530406 2 0 
C 2 -0.530406 1.789267 -1.03916 1.414214 -1.414214 
C 1.03916 -1.789267 0.530406 -2 0 -2 
C -0.530406 -2 -1.03916 -1.789267 -1.414214 -1.414214 
C -1.789267 -1.03916 -2 -0.530406 -2 0 
C -2 0.530406 -1.789267 1.03916 -1.414214 1.414214 
C -1.03916 1.789267 -0.530406 2 0 2 
z
" id="me4adc5f901" style="stroke:#414141;"/>
    </defs>
    <g clip-path="url(#pd9501c599a)">
     <use style="fill:#ffffff;stroke:#414141;" x="98.096771" xlink:href="#me4adc5f901" y="253.847178"/>
    </g>
   </g>
   <g id="PathCollection_2">
    <g clip-path="url(#pd9501c599a)">
     <use style="fill:#ffffff;stroke:#414141;" x="193.753914" xlink:href="#me4adc5f901" y="221.461516"/>
    </g>
   </g>
   <g id="PathCollection_3">
    <g clip-path="url(#pd9501c599a)">
     <use style="fill:#ffffff;stroke:#414141;" x="289.411057" xlink:href="#me4adc5f901" y="219.947706"/>
    </g>
   </g>
   <g id="PathCollection_4">
    <g clip-path="url(#pd9501c599a)">
     <use style="fill:#ffffff;stroke:#414141;" x="385.0682" xlink:href="#me4adc5f901" y="230.433844"/>
    </g>
   </g>
   <g id="PathCollection_5">
    <g clip-path="url(#pd9501c599a)">
     <use style="fill:#ffffff;stroke:#414141;" x="480.725343" xlink:href="#me4adc5f901" y="230.889226"/>
    </g>
   </g>
   <g id="PathCollection_6">
    <g clip-path="url(#pd9501c599a)">
     <use style="fill:#ffffff;stroke:#414141;" x="576.382486" xlink:href="#me4adc5f901" y="230.385639"/>
    </g>
   </g>
   <g id="PathCollection_7">
    <g clip-path="url(#pd9501c599a)">
     <use style="fill:#ffffff;stroke:#414141;" x="672.039629" xlink:href="#me4adc5f901" y="220.309768"/>
    </g>
   </g>
   <g id="text_15">
    <!-- Accidents after the start of DST in California (20012016) -->
    <defs>
     <path d="M 38.671875 62.203125 
Q 32.8125 62.203125 28.296875 60.25 
Q 23.78125 58.296875 20.71875 54.6875 
Q 17.671875 51.078125 16.109375 46 
Q 14.546875 40.921875 14.546875 34.71875 
Q 14.546875 28.515625 16.234375 23.359375 
Q 17.921875 18.21875 21.0625 14.5 
Q 24.21875 10.796875 28.78125 8.734375 
Q 33.34375 6.6875 39.0625 6.6875 
Q 43.0625 6.6875 46.359375 7.734375 
Q 49.65625 8.796875 52.3125 10.6875 
Q 54.984375 12.59375 57.078125 15.203125 
Q 59.1875 17.828125 60.796875 21 
L 68.40625 17.1875 
Q 66.546875 13.328125 63.8125 10 
Q 61.078125 6.6875 57.390625 4.25 
Q 53.71875 1.8125 49.046875 0.40625 
Q 44.390625 -0.984375 38.625 -0.984375 
Q 30.28125 -0.984375 24 1.671875 
Q 17.71875 4.34375 13.5 9.109375 
Q 9.28125 13.875 7.171875 20.40625 
Q 5.078125 26.953125 5.078125 34.71875 
Q 5.078125 42.78125 7.296875 49.265625 
Q 9.515625 55.765625 13.78125 60.328125 
Q 18.0625 64.890625 24.3125 67.359375 
Q 30.5625 69.828125 38.578125 69.828125 
Q 49.5625 69.828125 56.9375 65.53125 
Q 64.3125 61.234375 67.78125 52.78125 
L 58.9375 49.859375 
Q 57.953125 52.296875 56.296875 54.515625 
Q 54.640625 56.734375 52.140625 58.4375 
Q 49.65625 60.15625 46.3125 61.171875 
Q 42.96875 62.203125 38.671875 62.203125 
z
" id="LiberationSans-43"/>
     <path d="M 6.734375 0 
L 6.734375 72.46875 
L 15.53125 72.46875 
L 15.53125 0 
z
" id="LiberationSans-6c"/>
     <path d="M 0 22.015625 
L 0 28.71875 
L 55.5625 28.71875 
L 55.5625 22.015625 
z
" id="LiberationSans-2013"/>
    </defs>
    <g style="fill:#262626;" transform="translate(54.8682 26.041875)scale(0.26 -0.26)">
     <use xlink:href="#LiberationSans-41"/>
     <use x="66.699219" xlink:href="#LiberationSans-63"/>
     <use x="116.699219" xlink:href="#LiberationSans-63"/>
     <use x="166.699219" xlink:href="#LiberationSans-69"/>
     <use x="188.916016" xlink:href="#LiberationSans-64"/>
     <use x="244.53125" xlink:href="#LiberationSans-65"/>
     <use x="300.146484" xlink:href="#LiberationSans-6e"/>
     <use x="355.761719" xlink:href="#LiberationSans-74"/>
     <use x="383.544922" xlink:href="#LiberationSans-73"/>
     <use x="433.544922" xlink:href="#LiberationSans-20"/>
     <use x="461.328125" xlink:href="#LiberationSans-61"/>
     <use x="516.943359" xlink:href="#LiberationSans-66"/>
     <use x="544.726562" xlink:href="#LiberationSans-74"/>
     <use x="572.509766" xlink:href="#LiberationSans-65"/>
     <use x="628.125" xlink:href="#LiberationSans-72"/>
     <use x="661.425781" xlink:href="#LiberationSans-20"/>
     <use x="689.208984" xlink:href="#LiberationSans-74"/>
     <use x="716.992188" xlink:href="#LiberationSans-68"/>
     <use x="772.607422" xlink:href="#LiberationSans-65"/>
     <use x="828.222656" xlink:href="#LiberationSans-20"/>
     <use x="856.005859" xlink:href="#LiberationSans-73"/>
     <use x="906.005859" xlink:href="#LiberationSans-74"/>
     <use x="933.789062" xlink:href="#LiberationSans-61"/>
     <use x="989.404297" xlink:href="#LiberationSans-72"/>
     <use x="1022.705078" xlink:href="#LiberationSans-74"/>
     <use x="1050.488281" xlink:href="#LiberationSans-20"/>
     <use x="1078.271484" xlink:href="#LiberationSans-6f"/>
     <use x="1133.886719" xlink:href="#LiberationSans-66"/>
     <use x="1161.669922" xlink:href="#LiberationSans-20"/>
     <use x="1189.453125" xlink:href="#LiberationSans-44"/>
     <use x="1261.669922" xlink:href="#LiberationSans-53"/>
     <use x="1328.369141" xlink:href="#LiberationSans-54"/>
     <use x="1389.4375" xlink:href="#LiberationSans-20"/>
     <use x="1417.220703" xlink:href="#LiberationSans-69"/>
     <use x="1439.4375" xlink:href="#LiberationSans-6e"/>
     <use x="1495.052734" xlink:href="#LiberationSans-20"/>
     <use x="1522.835938" xlink:href="#LiberationSans-43"/>
     <use x="1595.052734" xlink:href="#LiberationSans-61"/>
     <use x="1650.667969" xlink:href="#LiberationSans-6c"/>
     <use x="1672.884766" xlink:href="#LiberationSans-69"/>
     <use x="1695.101562" xlink:href="#LiberationSans-66"/>
     <use x="1722.884766" xlink:href="#LiberationSans-6f"/>
     <use x="1778.5" xlink:href="#LiberationSans-72"/>
     <use x="1811.800781" xlink:href="#LiberationSans-6e"/>
     <use x="1867.416016" xlink:href="#LiberationSans-69"/>
     <use x="1889.632812" xlink:href="#LiberationSans-61"/>
     <use x="1945.248047" xlink:href="#LiberationSans-20"/>
     <use x="1973.03125" xlink:href="#LiberationSans-28"/>
     <use x="2006.332031" xlink:href="#LiberationSans-32"/>
     <use x="2061.947266" xlink:href="#LiberationSans-30"/>
     <use x="2117.5625" xlink:href="#LiberationSans-30"/>
     <use x="2173.177734" xlink:href="#LiberationSans-31"/>
     <use x="2228.792969" xlink:href="#LiberationSans-2013"/>
     <use x="2284.408203" xlink:href="#LiberationSans-32"/>
     <use x="2340.023438" xlink:href="#LiberationSans-30"/>
     <use x="2395.638672" xlink:href="#LiberationSans-31"/>
     <use x="2451.253906" xlink:href="#LiberationSans-36"/>
     <use x="2506.869141" xlink:href="#LiberationSans-29"/>
    </g>
   </g>
  </g>
 </g>
 <defs>
  <clipPath id="pd9501c599a">
   <rect height="326.16" width="669.6" x="50.2682" y="41.826675"/>
  </clipPath>
 </defs>
</svg>
