<?xml version="1.0" encoding="utf-8" standalone="no"?>
<!DOCTYPE svg PUBLIC "-//W3C//DTD SVG 1.1//EN"
  "http://www.w3.org/Graphics/SVG/1.1/DTD/svg11.dtd">
<!-- Created with matplotlib (http://matplotlib.org/) -->
<svg height="391.7373pt" version="1.1" viewBox="0 0 727.0682 391.7373" width="727.0682pt" xmlns="http://www.w3.org/2000/svg" xmlns:xlink="http://www.w3.org/1999/xlink">
 <defs>
  <style type="text/css">
*{stroke-linecap:butt;stroke-linejoin:round;}
  </style>
 </defs>
 <g id="figure_1">
  <g id="patch_1">
   <path d="M 0 391.7373 
L 727.0682 391.7373 
L 727.0682 0 
L 0 0 
z
" style="fill:#ffffff;"/>
  </g>
  <g id="axes_1">
   <g id="patch_2">
    <path d="M 50.2682 367.986675 
L 719.8682 367.986675 
L 719.8682 41.826675 
L 50.2682 41.826675 
z
" style="fill:#ffffff;"/>
   </g>
   <g id="matplotlib.axis_1">
    <g id="xtick_1">
     <g id="text_1">
      <!-- Sunday (DST Ends) -->
      <defs>
       <path d="M 62.109375 19 
Q 62.109375 14.65625 60.421875 10.984375 
Q 58.734375 7.328125 55.21875 4.65625 
Q 51.703125 2 46.359375 0.5 
Q 41.015625 -0.984375 33.6875 -0.984375 
Q 20.84375 -0.984375 13.671875 3.515625 
Q 6.5 8.015625 4.546875 16.5 
L 13.578125 18.3125 
Q 14.265625 15.625 15.671875 13.421875 
Q 17.09375 11.234375 19.5 9.640625 
Q 21.921875 8.0625 25.484375 7.171875 
Q 29.046875 6.296875 34.03125 6.296875 
Q 38.1875 6.296875 41.65625 7 
Q 45.125 7.71875 47.609375 9.171875 
Q 50.09375 10.640625 51.484375 12.953125 
Q 52.875 15.28125 52.875 18.5 
Q 52.875 21.875 51.34375 23.96875 
Q 49.8125 26.078125 47.015625 27.4375 
Q 44.234375 28.8125 40.375 29.734375 
Q 36.53125 30.671875 31.84375 31.734375 
Q 28.953125 32.375 26.046875 33.125 
Q 23.140625 33.890625 20.484375 34.9375 
Q 17.828125 35.984375 15.484375 37.390625 
Q 13.140625 38.8125 11.421875 40.796875 
Q 9.71875 42.78125 8.734375 45.390625 
Q 7.765625 48 7.765625 51.421875 
Q 7.765625 56.296875 9.734375 59.78125 
Q 11.71875 63.28125 15.234375 65.53125 
Q 18.75 67.78125 23.53125 68.796875 
Q 28.328125 69.828125 33.890625 69.828125 
Q 40.28125 69.828125 44.8125 68.828125 
Q 49.359375 67.828125 52.484375 65.8125 
Q 55.609375 63.8125 57.484375 60.859375 
Q 59.375 57.90625 60.5 54 
L 51.3125 52.390625 
Q 50.640625 54.890625 49.34375 56.84375 
Q 48.046875 58.796875 45.9375 60.109375 
Q 43.84375 61.421875 40.84375 62.109375 
Q 37.84375 62.796875 33.796875 62.796875 
Q 29 62.796875 25.75 61.9375 
Q 22.515625 61.078125 20.53125 59.609375 
Q 18.5625 58.15625 17.703125 56.171875 
Q 16.84375 54.203125 16.84375 51.90625 
Q 16.84375 48.828125 18.375 46.84375 
Q 19.921875 44.875 22.5625 43.546875 
Q 25.203125 42.234375 28.65625 41.359375 
Q 32.125 40.484375 36.03125 39.59375 
Q 39.203125 38.875 42.359375 38.109375 
Q 45.515625 37.359375 48.390625 36.296875 
Q 51.265625 35.25 53.78125 33.828125 
Q 56.296875 32.421875 58.15625 30.375 
Q 60.015625 28.328125 61.0625 25.53125 
Q 62.109375 22.75 62.109375 19 
z
" id="LiberationSans-53"/>
       <path d="M 15.328125 52.828125 
L 15.328125 19.34375 
Q 15.328125 15.484375 15.890625 12.890625 
Q 16.453125 10.296875 17.71875 8.703125 
Q 19 7.125 21.0625 6.46875 
Q 23.140625 5.8125 26.21875 5.8125 
Q 29.34375 5.8125 31.859375 6.90625 
Q 34.375 8.015625 36.15625 10.078125 
Q 37.9375 12.15625 38.90625 15.203125 
Q 39.890625 18.265625 39.890625 22.21875 
L 39.890625 52.828125 
L 48.6875 52.828125 
L 48.6875 11.28125 
Q 48.6875 9.625 48.703125 7.78125 
Q 48.734375 5.953125 48.78125 4.3125 
Q 48.828125 2.6875 48.875 1.515625 
Q 48.921875 0.34375 48.96875 0 
L 40.671875 0 
Q 40.625 0.25 40.578125 1.3125 
Q 40.53125 2.390625 40.453125 3.78125 
Q 40.375 5.171875 40.328125 6.609375 
Q 40.28125 8.0625 40.28125 9.03125 
L 40.140625 9.03125 
Q 38.875 6.734375 37.359375 4.875 
Q 35.84375 3.03125 33.84375 1.734375 
Q 31.84375 0.4375 29.25 -0.265625 
Q 26.65625 -0.984375 23.25 -0.984375 
Q 18.84375 -0.984375 15.671875 0.09375 
Q 12.5 1.171875 10.453125 3.421875 
Q 8.40625 5.671875 7.453125 9.1875 
Q 6.5 12.703125 6.5 17.625 
L 6.5 52.828125 
z
" id="LiberationSans-75"/>
       <path d="M 40.28125 0 
L 40.28125 33.5 
Q 40.28125 37.359375 39.71875 39.9375 
Q 39.15625 42.53125 37.890625 44.109375 
Q 36.625 45.703125 34.546875 46.359375 
Q 32.46875 47.015625 29.390625 47.015625 
Q 26.265625 47.015625 23.75 45.921875 
Q 21.234375 44.828125 19.453125 42.75 
Q 17.671875 40.671875 16.6875 37.625 
Q 15.71875 34.578125 15.71875 30.609375 
L 15.71875 0 
L 6.9375 0 
L 6.9375 41.546875 
Q 6.9375 43.21875 6.90625 45.046875 
Q 6.890625 46.875 6.828125 48.5 
Q 6.78125 50.140625 6.734375 51.3125 
Q 6.6875 52.484375 6.640625 52.828125 
L 14.9375 52.828125 
Q 14.984375 52.59375 15.03125 51.515625 
Q 15.09375 50.4375 15.15625 49.046875 
Q 15.234375 47.65625 15.28125 46.21875 
Q 15.328125 44.78125 15.328125 43.796875 
L 15.484375 43.796875 
Q 16.75 46.09375 18.265625 47.953125 
Q 19.78125 49.8125 21.78125 51.09375 
Q 23.78125 52.390625 26.359375 53.09375 
Q 28.953125 53.8125 32.375 53.8125 
Q 36.765625 53.8125 39.9375 52.734375 
Q 43.109375 51.65625 45.15625 49.40625 
Q 47.21875 47.171875 48.171875 43.625 
Q 49.125 40.09375 49.125 35.203125 
L 49.125 0 
z
" id="LiberationSans-6e"/>
       <path d="M 40.09375 8.5 
Q 37.640625 3.421875 33.609375 1.21875 
Q 29.59375 -0.984375 23.640625 -0.984375 
Q 13.625 -0.984375 8.90625 5.75 
Q 4.203125 12.5 4.203125 26.171875 
Q 4.203125 53.8125 23.640625 53.8125 
Q 29.640625 53.8125 33.640625 51.609375 
Q 37.640625 49.421875 40.09375 44.625 
L 40.1875 44.625 
Q 40.1875 45.125 40.15625 46.171875 
Q 40.140625 47.21875 40.109375 48.359375 
Q 40.09375 49.515625 40.09375 50.53125 
Q 40.09375 51.5625 40.09375 52 
L 40.09375 72.46875 
L 48.875 72.46875 
L 48.875 10.890625 
Q 48.875 8.984375 48.890625 7.21875 
Q 48.921875 5.46875 48.96875 4 
Q 49.03125 2.546875 49.078125 1.484375 
Q 49.125 0.4375 49.171875 0 
L 40.765625 0 
Q 40.671875 0.484375 40.59375 1.390625 
Q 40.53125 2.296875 40.453125 3.46875 
Q 40.375 4.640625 40.328125 5.9375 
Q 40.28125 7.234375 40.28125 8.5 
z
M 13.421875 26.46875 
Q 13.421875 21 14.109375 17.09375 
Q 14.796875 13.1875 16.3125 10.671875 
Q 17.828125 8.15625 20.171875 6.984375 
Q 22.515625 5.8125 25.875 5.8125 
Q 29.34375 5.8125 32 6.9375 
Q 34.671875 8.0625 36.453125 10.578125 
Q 38.234375 13.09375 39.15625 17.140625 
Q 40.09375 21.1875 40.09375 27.046875 
Q 40.09375 32.671875 39.15625 36.546875 
Q 38.234375 40.4375 36.421875 42.828125 
Q 34.625 45.21875 32 46.265625 
Q 29.390625 47.3125 25.984375 47.3125 
Q 22.75 47.3125 20.40625 46.1875 
Q 18.0625 45.0625 16.5 42.578125 
Q 14.9375 40.09375 14.171875 36.109375 
Q 13.421875 32.125 13.421875 26.46875 
z
" id="LiberationSans-64"/>
       <path d="M 20.21875 -0.984375 
Q 12.25 -0.984375 8.25 3.21875 
Q 4.25 7.421875 4.25 14.75 
Q 4.25 19.96875 6.21875 23.3125 
Q 8.203125 26.65625 11.390625 28.5625 
Q 14.59375 30.46875 18.6875 31.203125 
Q 22.796875 31.9375 27.046875 32.03125 
L 38.921875 32.234375 
L 38.921875 35.109375 
Q 38.921875 38.375 38.234375 40.671875 
Q 37.546875 42.96875 36.125 44.375 
Q 34.71875 45.796875 32.59375 46.453125 
Q 30.46875 47.125 27.59375 47.125 
Q 25.046875 47.125 23 46.75 
Q 20.953125 46.390625 19.4375 45.4375 
Q 17.921875 44.484375 16.984375 42.84375 
Q 16.0625 41.21875 15.765625 38.71875 
L 6.59375 39.546875 
Q 7.078125 42.671875 8.4375 45.28125 
Q 9.8125 47.90625 12.328125 49.796875 
Q 14.84375 51.703125 18.625 52.75 
Q 22.40625 53.8125 27.78125 53.8125 
Q 37.75 53.8125 42.765625 49.234375 
Q 47.796875 44.671875 47.796875 36.03125 
L 47.796875 13.28125 
Q 47.796875 9.375 48.828125 7.390625 
Q 49.859375 5.421875 52.734375 5.421875 
Q 53.46875 5.421875 54.203125 5.515625 
Q 54.9375 5.609375 55.609375 5.765625 
L 55.609375 0.296875 
Q 53.953125 -0.09375 52.3125 -0.28125 
Q 50.6875 -0.484375 48.828125 -0.484375 
Q 46.34375 -0.484375 44.5625 0.171875 
Q 42.78125 0.828125 41.65625 2.171875 
Q 40.53125 3.515625 39.9375 5.484375 
Q 39.359375 7.46875 39.203125 10.109375 
L 38.921875 10.109375 
Q 37.5 7.5625 35.8125 5.515625 
Q 34.125 3.46875 31.875 2.03125 
Q 29.640625 0.59375 26.78125 -0.1875 
Q 23.921875 -0.984375 20.21875 -0.984375 
z
M 22.21875 5.609375 
Q 26.421875 5.609375 29.5625 7.140625 
Q 32.71875 8.6875 34.78125 11.078125 
Q 36.859375 13.484375 37.890625 16.3125 
Q 38.921875 19.140625 38.921875 21.734375 
L 38.921875 26.078125 
L 29.296875 25.875 
Q 26.078125 25.828125 23.171875 25.40625 
Q 20.265625 25 18.0625 23.78125 
Q 15.875 22.5625 14.578125 20.359375 
Q 13.28125 18.171875 13.28125 14.59375 
Q 13.28125 10.296875 15.59375 7.953125 
Q 17.921875 5.609375 22.21875 5.609375 
z
" id="LiberationSans-61"/>
       <path d="M 29.5 0 
Q 27.640625 -4.78125 25.703125 -8.609375 
Q 23.78125 -12.453125 21.390625 -15.15625 
Q 19 -17.875 16.0625 -19.3125 
Q 13.140625 -20.75 9.328125 -20.75 
Q 7.671875 -20.75 6.25 -20.65625 
Q 4.828125 -20.5625 3.265625 -20.21875 
L 3.265625 -13.625 
Q 4.203125 -13.765625 5.375 -13.84375 
Q 6.546875 -13.921875 7.375 -13.921875 
Q 11.234375 -13.921875 14.546875 -11.03125 
Q 17.875 -8.15625 20.359375 -1.859375 
L 21.1875 0.25 
L 0.25 52.828125 
L 9.625 52.828125 
L 20.75 23.640625 
Q 21.234375 22.3125 21.984375 20.109375 
Q 22.75 17.921875 23.5 15.71875 
Q 24.265625 13.53125 24.84375 11.765625 
Q 25.4375 10.015625 25.53125 9.578125 
Q 25.6875 10.109375 26.25 11.6875 
Q 26.8125 13.28125 27.515625 15.234375 
Q 28.21875 17.1875 28.953125 19.1875 
Q 29.6875 21.1875 30.171875 22.65625 
L 40.53125 52.828125 
L 49.8125 52.828125 
z
" id="LiberationSans-79"/>
       <path id="LiberationSans-20"/>
       <path d="M 6.203125 25.984375 
Q 6.203125 32.765625 7.21875 38.96875 
Q 8.25 45.171875 10.4375 50.875 
Q 12.640625 56.59375 16.0625 61.953125 
Q 19.484375 67.328125 24.21875 72.46875 
L 32.71875 72.46875 
Q 28.125 67.328125 24.78125 61.9375 
Q 21.4375 56.546875 19.28125 50.796875 
Q 17.140625 45.0625 16.09375 38.859375 
Q 15.046875 32.671875 15.046875 25.875 
Q 15.046875 19.09375 16.09375 12.890625 
Q 17.140625 6.6875 19.28125 0.921875 
Q 21.4375 -4.828125 24.78125 -10.203125 
Q 28.125 -15.578125 32.71875 -20.703125 
L 24.21875 -20.703125 
Q 19.484375 -15.578125 16.0625 -10.203125 
Q 12.640625 -4.828125 10.4375 0.875 
Q 8.25 6.59375 7.21875 12.765625 
Q 6.203125 18.953125 6.203125 25.78125 
z
" id="LiberationSans-28"/>
       <path d="M 67.4375 35.109375 
Q 67.4375 26.515625 64.84375 19.9375 
Q 62.25 13.375 57.75 8.953125 
Q 53.265625 4.546875 47.140625 2.265625 
Q 41.015625 0 33.9375 0 
L 8.203125 0 
L 8.203125 68.796875 
L 30.953125 68.796875 
Q 38.921875 68.796875 45.625 66.8125 
Q 52.34375 64.84375 57.171875 60.71875 
Q 62.015625 56.59375 64.71875 50.234375 
Q 67.4375 43.890625 67.4375 35.109375 
z
M 58.0625 35.109375 
Q 58.0625 42.09375 56.046875 47.046875 
Q 54.046875 52 50.4375 55.171875 
Q 46.828125 58.34375 41.796875 59.828125 
Q 36.765625 61.328125 30.765625 61.328125 
L 17.53125 61.328125 
L 17.53125 7.46875 
L 32.859375 7.46875 
Q 38.28125 7.46875 42.890625 9.21875 
Q 47.515625 10.984375 50.875 14.453125 
Q 54.25 17.921875 56.15625 23.09375 
Q 58.0625 28.265625 58.0625 35.109375 
z
" id="LiberationSans-44"/>
       <path d="M 35.15625 61.1875 
L 35.15625 0 
L 25.875 0 
L 25.875 61.1875 
L 2.25 61.1875 
L 2.25 68.796875 
L 58.796875 68.796875 
L 58.796875 61.1875 
z
" id="LiberationSans-54"/>
       <path d="M 8.203125 0 
L 8.203125 68.796875 
L 60.40625 68.796875 
L 60.40625 61.1875 
L 17.53125 61.1875 
L 17.53125 39.109375 
L 57.46875 39.109375 
L 57.46875 31.59375 
L 17.53125 31.59375 
L 17.53125 7.625 
L 62.40625 7.625 
L 62.40625 0 
z
" id="LiberationSans-45"/>
       <path d="M 46.390625 14.59375 
Q 46.390625 10.890625 44.9375 7.984375 
Q 43.5 5.078125 40.765625 3.09375 
Q 38.03125 1.125 34.046875 0.0625 
Q 30.078125 -0.984375 24.953125 -0.984375 
Q 20.359375 -0.984375 16.671875 -0.265625 
Q 12.984375 0.4375 10.203125 2 
Q 7.421875 3.5625 5.53125 6.125 
Q 3.65625 8.6875 2.78125 12.40625 
L 10.546875 13.921875 
Q 11.671875 9.671875 15.1875 7.6875 
Q 18.703125 5.71875 24.953125 5.71875 
Q 27.78125 5.71875 30.140625 6.109375 
Q 32.515625 6.5 34.21875 7.453125 
Q 35.9375 8.40625 36.890625 9.984375 
Q 37.84375 11.578125 37.84375 13.921875 
Q 37.84375 16.3125 36.71875 17.84375 
Q 35.59375 19.390625 33.59375 20.40625 
Q 31.59375 21.4375 28.734375 22.1875 
Q 25.875 22.953125 22.46875 23.875 
Q 19.28125 24.703125 16.15625 25.734375 
Q 13.03125 26.765625 10.515625 28.4375 
Q 8.015625 30.125 6.453125 32.609375 
Q 4.890625 35.109375 4.890625 38.875 
Q 4.890625 46.09375 10.03125 49.875 
Q 15.1875 53.65625 25.046875 53.65625 
Q 33.796875 53.65625 38.9375 50.578125 
Q 44.09375 47.515625 45.453125 40.71875 
L 37.546875 39.75 
Q 37.109375 41.796875 35.9375 43.1875 
Q 34.765625 44.578125 33.109375 45.4375 
Q 31.453125 46.296875 29.375 46.65625 
Q 27.296875 47.015625 25.046875 47.015625 
Q 19.09375 47.015625 16.25 45.203125 
Q 13.421875 43.40625 13.421875 39.75 
Q 13.421875 37.59375 14.46875 36.203125 
Q 15.53125 34.8125 17.40625 33.859375 
Q 19.28125 32.90625 21.921875 32.203125 
Q 24.5625 31.5 27.734375 30.71875 
Q 29.828125 30.171875 32.03125 29.5625 
Q 34.234375 28.953125 36.296875 28.09375 
Q 38.375 27.25 40.203125 26.09375 
Q 42.046875 24.953125 43.40625 23.34375 
Q 44.78125 21.734375 45.578125 19.578125 
Q 46.390625 17.4375 46.390625 14.59375 
z
" id="LiberationSans-73"/>
       <path d="M 27.09375 25.78125 
Q 27.09375 18.953125 26.0625 12.765625 
Q 25.046875 6.59375 22.84375 0.875 
Q 20.65625 -4.828125 17.234375 -10.203125 
Q 13.8125 -15.578125 9.078125 -20.703125 
L 0.59375 -20.703125 
Q 5.171875 -15.578125 8.515625 -10.203125 
Q 11.859375 -4.828125 14 0.921875 
Q 16.15625 6.6875 17.203125 12.890625 
Q 18.265625 19.09375 18.265625 25.875 
Q 18.265625 32.671875 17.203125 38.859375 
Q 16.15625 45.0625 14 50.796875 
Q 11.859375 56.546875 8.515625 61.9375 
Q 5.171875 67.328125 0.59375 72.46875 
L 9.078125 72.46875 
Q 13.8125 67.328125 17.234375 61.953125 
Q 20.65625 56.59375 22.84375 50.875 
Q 25.046875 45.171875 26.0625 38.96875 
Q 27.09375 32.765625 27.09375 25.984375 
z
" id="LiberationSans-29"/>
      </defs>
      <g style="fill:#262626;" transform="translate(35.852553 381.6323)scale(0.14 -0.14)">
       <use xlink:href="#LiberationSans-53"/>
       <use x="66.699219" xlink:href="#LiberationSans-75"/>
       <use x="122.314453" xlink:href="#LiberationSans-6e"/>
       <use x="177.929688" xlink:href="#LiberationSans-64"/>
       <use x="233.544922" xlink:href="#LiberationSans-61"/>
       <use x="289.160156" xlink:href="#LiberationSans-79"/>
       <use x="339.160156" xlink:href="#LiberationSans-20"/>
       <use x="366.943359" xlink:href="#LiberationSans-28"/>
       <use x="400.244141" xlink:href="#LiberationSans-44"/>
       <use x="472.460938" xlink:href="#LiberationSans-53"/>
       <use x="539.160156" xlink:href="#LiberationSans-54"/>
       <use x="600.228516" xlink:href="#LiberationSans-20"/>
       <use x="628.011719" xlink:href="#LiberationSans-45"/>
       <use x="694.710938" xlink:href="#LiberationSans-6e"/>
       <use x="750.326172" xlink:href="#LiberationSans-64"/>
       <use x="805.941406" xlink:href="#LiberationSans-73"/>
       <use x="855.941406" xlink:href="#LiberationSans-29"/>
      </g>
     </g>
    </g>
    <g id="xtick_2">
     <g id="text_2">
      <!-- Monday -->
      <defs>
       <path d="M 66.703125 0 
L 66.703125 45.90625 
Q 66.703125 48.390625 66.75 50.96875 
Q 66.796875 53.5625 66.890625 55.71875 
Q 67 58.203125 67.140625 60.546875 
Q 66.453125 58.0625 65.71875 55.609375 
Q 65.09375 53.515625 64.328125 51.140625 
Q 63.578125 48.78125 62.84375 46.875 
L 45.0625 0 
L 38.53125 0 
L 20.515625 46.875 
Q 20.21875 47.609375 19.890625 48.578125 
Q 19.578125 49.5625 19.203125 50.65625 
Q 18.84375 51.765625 18.46875 52.90625 
Q 18.109375 54.046875 17.78125 55.171875 
Q 16.9375 57.765625 16.15625 60.546875 
Q 16.21875 57.8125 16.3125 55.125 
Q 16.40625 52.828125 16.453125 50.3125 
Q 16.5 47.796875 16.5 45.90625 
L 16.5 0 
L 8.203125 0 
L 8.203125 68.796875 
L 20.453125 68.796875 
L 38.765625 21.09375 
Q 39.109375 20.125 39.59375 18.578125 
Q 40.09375 17.046875 40.53125 15.421875 
Q 40.96875 13.8125 41.328125 12.375 
Q 41.703125 10.9375 41.84375 10.15625 
Q 42 10.9375 42.390625 12.40625 
Q 42.78125 13.875 43.28125 15.484375 
Q 43.796875 17.09375 44.28125 18.609375 
Q 44.78125 20.125 45.171875 21.09375 
L 63.140625 68.796875 
L 75.09375 68.796875 
L 75.09375 0 
z
" id="LiberationSans-4d"/>
       <path d="M 51.421875 26.46875 
Q 51.421875 12.59375 45.3125 5.796875 
Q 39.203125 -0.984375 27.59375 -0.984375 
Q 22.078125 -0.984375 17.71875 0.671875 
Q 13.375 2.34375 10.375 5.765625 
Q 7.375 9.1875 5.78125 14.328125 
Q 4.203125 19.484375 4.203125 26.46875 
Q 4.203125 53.8125 27.875 53.8125 
Q 34.03125 53.8125 38.5 52.09375 
Q 42.96875 50.390625 45.828125 46.96875 
Q 48.6875 43.5625 50.046875 38.421875 
Q 51.421875 33.296875 51.421875 26.46875 
z
M 42.1875 26.46875 
Q 42.1875 32.625 41.234375 36.625 
Q 40.28125 40.625 38.453125 43.015625 
Q 36.625 45.40625 33.984375 46.359375 
Q 31.34375 47.3125 28.03125 47.3125 
Q 24.65625 47.3125 21.9375 46.3125 
Q 19.234375 45.3125 17.328125 42.890625 
Q 15.4375 40.484375 14.421875 36.46875 
Q 13.421875 32.46875 13.421875 26.46875 
Q 13.421875 20.3125 14.5 16.28125 
Q 15.578125 12.25 17.453125 9.859375 
Q 19.34375 7.46875 21.90625 6.484375 
Q 24.46875 5.515625 27.484375 5.515625 
Q 30.859375 5.515625 33.59375 6.46875 
Q 36.328125 7.421875 38.234375 9.8125 
Q 40.140625 12.203125 41.15625 16.25 
Q 42.1875 20.3125 42.1875 26.46875 
z
" id="LiberationSans-6f"/>
      </defs>
      <g style="fill:#262626;" transform="translate(168.852508 381.6323)scale(0.14 -0.14)">
       <use xlink:href="#LiberationSans-4d"/>
       <use x="83.300781" xlink:href="#LiberationSans-6f"/>
       <use x="138.916016" xlink:href="#LiberationSans-6e"/>
       <use x="194.53125" xlink:href="#LiberationSans-64"/>
       <use x="250.146484" xlink:href="#LiberationSans-61"/>
       <use x="305.761719" xlink:href="#LiberationSans-79"/>
      </g>
     </g>
    </g>
    <g id="xtick_3">
     <g id="text_3">
      <!-- Tuesday -->
      <defs>
       <path d="M 13.484375 24.5625 
Q 13.484375 20.40625 14.328125 16.90625 
Q 15.1875 13.421875 16.96875 10.90625 
Q 18.75 8.40625 21.53125 7 
Q 24.3125 5.609375 28.21875 5.609375 
Q 33.9375 5.609375 37.375 7.90625 
Q 40.828125 10.203125 42.046875 13.71875 
L 49.75 11.53125 
Q 48.921875 9.328125 47.4375 7.109375 
Q 45.953125 4.890625 43.453125 3.09375 
Q 40.96875 1.3125 37.234375 0.15625 
Q 33.5 -0.984375 28.21875 -0.984375 
Q 16.5 -0.984375 10.375 6 
Q 4.25 12.984375 4.25 26.765625 
Q 4.25 34.1875 6.09375 39.328125 
Q 7.953125 44.484375 11.171875 47.703125 
Q 14.40625 50.921875 18.703125 52.359375 
Q 23 53.8125 27.875 53.8125 
Q 34.515625 53.8125 38.984375 51.65625 
Q 43.453125 49.515625 46.15625 45.71875 
Q 48.875 41.9375 50.015625 36.8125 
Q 51.171875 31.6875 51.171875 25.734375 
L 51.171875 24.5625 
z
M 42.09375 31.296875 
Q 41.359375 39.65625 37.84375 43.484375 
Q 34.328125 47.3125 27.734375 47.3125 
Q 25.53125 47.3125 23.109375 46.609375 
Q 20.703125 45.90625 18.65625 44.09375 
Q 16.609375 42.28125 15.1875 39.171875 
Q 13.765625 36.078125 13.578125 31.296875 
z
" id="LiberationSans-65"/>
      </defs>
      <g style="fill:#262626;" transform="translate(262.568245 381.6323)scale(0.14 -0.14)">
       <use xlink:href="#LiberationSans-54"/>
       <use x="61.037109" xlink:href="#LiberationSans-75"/>
       <use x="116.652344" xlink:href="#LiberationSans-65"/>
       <use x="172.267578" xlink:href="#LiberationSans-73"/>
       <use x="222.267578" xlink:href="#LiberationSans-64"/>
       <use x="277.882812" xlink:href="#LiberationSans-61"/>
       <use x="333.498047" xlink:href="#LiberationSans-79"/>
      </g>
     </g>
    </g>
    <g id="xtick_4">
     <g id="text_4">
      <!-- Wednesday -->
      <defs>
       <path d="M 73.78125 0 
L 62.640625 0 
L 50.734375 43.703125 
Q 50.203125 45.5625 49.578125 48.09375 
Q 48.96875 50.640625 48.484375 52.9375 
Q 47.90625 55.609375 47.3125 58.40625 
Q 46.6875 55.5625 46.09375 52.875 
Q 45.5625 50.53125 44.96875 48.046875 
Q 44.390625 45.5625 43.84375 43.703125 
L 31.84375 0 
L 20.703125 0 
L 0.4375 68.796875 
L 10.15625 68.796875 
L 22.515625 25.09375 
Q 23.34375 22.015625 24.09375 18.984375 
Q 24.859375 15.96875 25.390625 13.578125 
Q 26.03125 10.75 26.5625 8.203125 
Q 27.296875 11.578125 28.078125 14.84375 
Q 28.421875 16.21875 28.765625 17.71875 
Q 29.109375 19.234375 29.46875 20.703125 
Q 29.828125 22.171875 30.1875 23.515625 
Q 30.5625 24.859375 30.859375 25.984375 
L 42.828125 68.796875 
L 51.765625 68.796875 
L 63.71875 25.984375 
Q 64.015625 24.859375 64.375 23.515625 
Q 64.75 22.171875 65.109375 20.71875 
Q 65.484375 19.28125 65.8125 17.765625 
Q 66.15625 16.265625 66.5 14.890625 
Q 67.28125 11.625 68.015625 8.203125 
Q 68.0625 8.203125 68.453125 9.890625 
Q 68.84375 11.578125 69.421875 14.109375 
Q 70.015625 16.65625 70.71875 19.609375 
Q 71.4375 22.5625 72.171875 25.09375 
L 84.328125 68.796875 
L 94.046875 68.796875 
z
" id="LiberationSans-57"/>
      </defs>
      <g style="fill:#262626;" transform="translate(348.106013 381.6323)scale(0.14 -0.14)">
       <use xlink:href="#LiberationSans-57"/>
       <use x="94.369141" xlink:href="#LiberationSans-65"/>
       <use x="149.984375" xlink:href="#LiberationSans-64"/>
       <use x="205.599609" xlink:href="#LiberationSans-6e"/>
       <use x="261.214844" xlink:href="#LiberationSans-65"/>
       <use x="316.830078" xlink:href="#LiberationSans-73"/>
       <use x="366.830078" xlink:href="#LiberationSans-64"/>
       <use x="422.445312" xlink:href="#LiberationSans-61"/>
       <use x="478.060547" xlink:href="#LiberationSans-79"/>
      </g>
     </g>
    </g>
    <g id="xtick_5">
     <g id="text_5">
      <!-- Thursday -->
      <defs>
       <path d="M 15.484375 43.796875 
Q 16.9375 46.484375 18.640625 48.359375 
Q 20.359375 50.25 22.40625 51.46875 
Q 24.46875 52.6875 26.90625 53.25 
Q 29.34375 53.8125 32.375 53.8125 
Q 37.453125 53.8125 40.703125 52.4375 
Q 43.953125 51.078125 45.828125 48.609375 
Q 47.703125 46.140625 48.40625 42.71875 
Q 49.125 39.3125 49.125 35.203125 
L 49.125 0 
L 40.28125 0 
L 40.28125 33.5 
Q 40.28125 36.859375 39.859375 39.390625 
Q 39.453125 41.9375 38.28125 43.625 
Q 37.109375 45.3125 34.953125 46.15625 
Q 32.8125 47.015625 29.390625 47.015625 
Q 26.265625 47.015625 23.75 45.890625 
Q 21.234375 44.78125 19.453125 42.71875 
Q 17.671875 40.671875 16.6875 37.734375 
Q 15.71875 34.8125 15.71875 31.15625 
L 15.71875 0 
L 6.9375 0 
L 6.9375 72.46875 
L 15.71875 72.46875 
L 15.71875 53.609375 
Q 15.71875 52 15.671875 50.390625 
Q 15.625 48.78125 15.546875 47.40625 
Q 15.484375 46.046875 15.421875 45.09375 
Q 15.375 44.140625 15.328125 43.796875 
z
" id="LiberationSans-68"/>
       <path d="M 6.9375 0 
L 6.9375 40.53125 
Q 6.9375 42.1875 6.90625 43.921875 
Q 6.890625 45.65625 6.828125 47.265625 
Q 6.78125 48.875 6.734375 50.28125 
Q 6.6875 51.703125 6.640625 52.828125 
L 14.9375 52.828125 
Q 14.984375 51.703125 15.0625 50.265625 
Q 15.140625 48.828125 15.203125 47.3125 
Q 15.28125 45.796875 15.296875 44.40625 
Q 15.328125 43.015625 15.328125 42.046875 
L 15.53125 42.046875 
Q 16.453125 45.0625 17.5 47.28125 
Q 18.5625 49.515625 19.96875 50.953125 
Q 21.390625 52.390625 23.34375 53.09375 
Q 25.296875 53.8125 28.078125 53.8125 
Q 29.15625 53.8125 30.125 53.640625 
Q 31.109375 53.46875 31.640625 53.328125 
L 31.640625 45.265625 
Q 30.765625 45.515625 29.59375 45.625 
Q 28.421875 45.75 26.953125 45.75 
Q 23.921875 45.75 21.796875 44.375 
Q 19.671875 43.015625 18.328125 40.59375 
Q 17 38.1875 16.359375 34.84375 
Q 15.71875 31.5 15.71875 27.546875 
L 15.71875 0 
z
" id="LiberationSans-72"/>
      </defs>
      <g style="fill:#262626;" transform="translate(451.548468 381.6323)scale(0.14 -0.14)">
       <use xlink:href="#LiberationSans-54"/>
       <use x="61.083984" xlink:href="#LiberationSans-68"/>
       <use x="116.699219" xlink:href="#LiberationSans-75"/>
       <use x="172.314453" xlink:href="#LiberationSans-72"/>
       <use x="205.615234" xlink:href="#LiberationSans-73"/>
       <use x="255.615234" xlink:href="#LiberationSans-64"/>
       <use x="311.230469" xlink:href="#LiberationSans-61"/>
       <use x="366.845703" xlink:href="#LiberationSans-79"/>
      </g>
     </g>
    </g>
    <g id="xtick_6">
     <g id="text_6">
      <!-- Friday -->
      <defs>
       <path d="M 17.53125 61.1875 
L 17.53125 35.59375 
L 55.90625 35.59375 
L 55.90625 27.875 
L 17.53125 27.875 
L 17.53125 0 
L 8.203125 0 
L 8.203125 68.796875 
L 57.078125 68.796875 
L 57.078125 61.1875 
z
" id="LiberationSans-46"/>
       <path d="M 6.6875 64.0625 
L 6.6875 72.46875 
L 15.484375 72.46875 
L 15.484375 64.0625 
z
M 6.6875 0 
L 6.6875 52.828125 
L 15.484375 52.828125 
L 15.484375 0 
z
" id="LiberationSans-69"/>
      </defs>
      <g style="fill:#262626;" transform="translate(556.935611 381.6323)scale(0.14 -0.14)">
       <use xlink:href="#LiberationSans-46"/>
       <use x="61.083984" xlink:href="#LiberationSans-72"/>
       <use x="94.384766" xlink:href="#LiberationSans-69"/>
       <use x="116.601562" xlink:href="#LiberationSans-64"/>
       <use x="172.216797" xlink:href="#LiberationSans-61"/>
       <use x="227.832031" xlink:href="#LiberationSans-79"/>
      </g>
     </g>
    </g>
    <g id="xtick_7">
     <g id="text_7">
      <!-- Saturday -->
      <defs>
       <path d="M 27.046875 0.390625 
Q 25.046875 -0.140625 22.96875 -0.453125 
Q 20.90625 -0.78125 18.171875 -0.78125 
Q 7.625 -0.78125 7.625 11.1875 
L 7.625 46.4375 
L 1.515625 46.4375 
L 1.515625 52.828125 
L 7.953125 52.828125 
L 10.546875 64.65625 
L 16.40625 64.65625 
L 16.40625 52.828125 
L 26.171875 52.828125 
L 26.171875 46.4375 
L 16.40625 46.4375 
L 16.40625 13.09375 
Q 16.40625 9.28125 17.640625 7.734375 
Q 18.890625 6.203125 21.96875 6.203125 
Q 23.25 6.203125 24.4375 6.390625 
Q 25.640625 6.59375 27.046875 6.890625 
z
" id="LiberationSans-74"/>
      </defs>
      <g style="fill:#262626;" transform="translate(644.024316 381.6323)scale(0.14 -0.14)">
       <use xlink:href="#LiberationSans-53"/>
       <use x="66.699219" xlink:href="#LiberationSans-61"/>
       <use x="122.314453" xlink:href="#LiberationSans-74"/>
       <use x="150.097656" xlink:href="#LiberationSans-75"/>
       <use x="205.712891" xlink:href="#LiberationSans-72"/>
       <use x="239.013672" xlink:href="#LiberationSans-64"/>
       <use x="294.628906" xlink:href="#LiberationSans-61"/>
       <use x="350.244141" xlink:href="#LiberationSans-79"/>
      </g>
     </g>
    </g>
   </g>
   <g id="matplotlib.axis_2">
    <g id="ytick_1">
     <g id="text_8">
      <!-- 0.4 -->
      <defs>
       <path d="M 51.703125 34.421875 
Q 51.703125 24.515625 49.828125 17.75 
Q 47.953125 10.984375 44.703125 6.8125 
Q 41.453125 2.640625 37.0625 0.828125 
Q 32.671875 -0.984375 27.6875 -0.984375 
Q 22.65625 -0.984375 18.3125 0.828125 
Q 13.96875 2.640625 10.765625 6.78125 
Q 7.5625 10.9375 5.734375 17.703125 
Q 3.90625 24.46875 3.90625 34.421875 
Q 3.90625 44.828125 5.734375 51.640625 
Q 7.5625 58.453125 10.78125 62.5 
Q 14.015625 66.546875 18.40625 68.1875 
Q 22.796875 69.828125 27.984375 69.828125 
Q 32.90625 69.828125 37.21875 68.1875 
Q 41.546875 66.546875 44.765625 62.5 
Q 48 58.453125 49.84375 51.640625 
Q 51.703125 44.828125 51.703125 34.421875 
z
M 42.78125 34.421875 
Q 42.78125 42.625 41.796875 48.0625 
Q 40.828125 53.515625 38.921875 56.765625 
Q 37.015625 60.015625 34.25 61.359375 
Q 31.5 62.703125 27.984375 62.703125 
Q 24.265625 62.703125 21.4375 61.328125 
Q 18.609375 59.96875 16.671875 56.71875 
Q 14.75 53.46875 13.765625 48.015625 
Q 12.796875 42.578125 12.796875 34.421875 
Q 12.796875 26.515625 13.796875 21.09375 
Q 14.796875 15.671875 16.71875 12.375 
Q 18.65625 9.078125 21.4375 7.640625 
Q 24.21875 6.203125 27.78125 6.203125 
Q 31.25 6.203125 34.03125 7.640625 
Q 36.8125 9.078125 38.734375 12.375 
Q 40.671875 15.671875 41.71875 21.09375 
Q 42.78125 26.515625 42.78125 34.421875 
z
" id="LiberationSans-30"/>
       <path d="M 9.125 0 
L 9.125 10.6875 
L 18.65625 10.6875 
L 18.65625 0 
z
" id="LiberationSans-2e"/>
       <path d="M 43.015625 15.578125 
L 43.015625 0 
L 34.71875 0 
L 34.71875 15.578125 
L 2.296875 15.578125 
L 2.296875 22.40625 
L 33.796875 68.796875 
L 43.015625 68.796875 
L 43.015625 22.515625 
L 52.6875 22.515625 
L 52.6875 15.578125 
z
M 34.71875 58.890625 
Q 34.625 58.640625 34.234375 57.9375 
Q 33.84375 57.234375 33.34375 56.34375 
Q 32.859375 55.46875 32.34375 54.5625 
Q 31.84375 53.65625 31.453125 53.078125 
L 13.8125 27.09375 
Q 13.578125 26.703125 13.109375 26.0625 
Q 12.640625 25.4375 12.15625 24.78125 
Q 11.671875 24.125 11.171875 23.484375 
Q 10.6875 22.859375 10.40625 22.515625 
L 34.71875 22.515625 
z
" id="LiberationSans-34"/>
      </defs>
      <g style="fill:#262626;" transform="translate(27.3082 368.736609)scale(0.14 -0.14)">
       <use xlink:href="#LiberationSans-30"/>
       <use x="55.615234" xlink:href="#LiberationSans-2e"/>
       <use x="83.398438" xlink:href="#LiberationSans-34"/>
      </g>
     </g>
    </g>
    <g id="ytick_2">
     <g id="text_9">
      <!-- 0.6 -->
      <defs>
       <path d="M 51.21875 22.515625 
Q 51.21875 17.328125 49.78125 13 
Q 48.34375 8.6875 45.53125 5.578125 
Q 42.71875 2.484375 38.5625 0.75 
Q 34.421875 -0.984375 29 -0.984375 
Q 23 -0.984375 18.5 1.3125 
Q 14.015625 3.609375 11.03125 7.921875 
Q 8.0625 12.25 6.5625 18.53125 
Q 5.078125 24.8125 5.078125 32.8125 
Q 5.078125 42 6.765625 48.921875 
Q 8.453125 55.859375 11.625 60.5 
Q 14.796875 65.140625 19.359375 67.484375 
Q 23.921875 69.828125 29.6875 69.828125 
Q 33.203125 69.828125 36.28125 69.09375 
Q 39.359375 68.359375 41.875 66.71875 
Q 44.390625 65.09375 46.28125 62.40625 
Q 48.1875 59.71875 49.3125 55.8125 
L 40.921875 54.296875 
Q 39.546875 58.734375 36.546875 60.71875 
Q 33.546875 62.703125 29.59375 62.703125 
Q 25.984375 62.703125 23.046875 60.984375 
Q 20.125 59.28125 18.0625 55.875 
Q 16.015625 52.484375 14.90625 47.359375 
Q 13.8125 42.234375 13.8125 35.40625 
Q 16.21875 39.84375 20.5625 42.15625 
Q 24.90625 44.484375 30.515625 44.484375 
Q 35.203125 44.484375 39.015625 42.96875 
Q 42.828125 41.453125 45.53125 38.59375 
Q 48.25 35.75 49.734375 31.671875 
Q 51.21875 27.59375 51.21875 22.515625 
z
M 42.28125 22.125 
Q 42.28125 25.6875 41.40625 28.5625 
Q 40.53125 31.453125 38.765625 33.46875 
Q 37.015625 35.5 34.421875 36.59375 
Q 31.84375 37.703125 28.421875 37.703125 
Q 26.03125 37.703125 23.578125 36.984375 
Q 21.140625 36.28125 19.15625 34.6875 
Q 17.1875 33.109375 15.9375 30.515625 
Q 14.703125 27.9375 14.703125 24.21875 
Q 14.703125 20.40625 15.671875 17.109375 
Q 16.65625 13.8125 18.484375 11.375 
Q 20.3125 8.9375 22.890625 7.515625 
Q 25.484375 6.109375 28.71875 6.109375 
Q 31.890625 6.109375 34.40625 7.203125 
Q 36.921875 8.296875 38.671875 10.375 
Q 40.4375 12.453125 41.359375 15.421875 
Q 42.28125 18.40625 42.28125 22.125 
z
" id="LiberationSans-36"/>
      </defs>
      <g style="fill:#262626;" transform="translate(27.3082 320.310769)scale(0.14 -0.14)">
       <use xlink:href="#LiberationSans-30"/>
       <use x="55.615234" xlink:href="#LiberationSans-2e"/>
       <use x="83.398438" xlink:href="#LiberationSans-36"/>
      </g>
     </g>
    </g>
    <g id="ytick_3">
     <g id="text_10">
      <!-- 0.8 -->
      <defs>
       <path d="M 51.265625 19.1875 
Q 51.265625 14.796875 49.875 11.109375 
Q 48.484375 7.421875 45.625 4.734375 
Q 42.78125 2.046875 38.328125 0.53125 
Q 33.890625 -0.984375 27.828125 -0.984375 
Q 21.78125 -0.984375 17.359375 0.53125 
Q 12.9375 2.046875 10.03125 4.703125 
Q 7.125 7.375 5.734375 11.0625 
Q 4.34375 14.75 4.34375 19.09375 
Q 4.34375 22.859375 5.484375 25.78125 
Q 6.640625 28.71875 8.5625 30.828125 
Q 10.5 32.953125 12.96875 34.25 
Q 15.4375 35.546875 18.0625 35.984375 
L 18.0625 36.1875 
Q 15.1875 36.859375 12.90625 38.375 
Q 10.640625 39.890625 9.09375 42.015625 
Q 7.5625 44.140625 6.75 46.71875 
Q 5.953125 49.3125 5.953125 52.203125 
Q 5.953125 55.8125 7.34375 59 
Q 8.734375 62.203125 11.46875 64.625 
Q 14.203125 67.046875 18.25 68.4375 
Q 22.3125 69.828125 27.640625 69.828125 
Q 33.25 69.828125 37.375 68.40625 
Q 41.5 67 44.203125 64.578125 
Q 46.921875 62.15625 48.234375 58.9375 
Q 49.5625 55.71875 49.5625 52.09375 
Q 49.5625 49.265625 48.75 46.671875 
Q 47.953125 44.09375 46.40625 41.96875 
Q 44.875 39.84375 42.59375 38.34375 
Q 40.328125 36.859375 37.359375 36.28125 
L 37.359375 36.078125 
Q 40.328125 35.59375 42.859375 34.296875 
Q 45.40625 33.015625 47.265625 30.890625 
Q 49.125 28.765625 50.1875 25.828125 
Q 51.265625 22.90625 51.265625 19.1875 
z
M 40.4375 51.609375 
Q 40.4375 54.203125 39.765625 56.34375 
Q 39.109375 58.5 37.59375 60.03125 
Q 36.078125 61.578125 33.640625 62.421875 
Q 31.203125 63.28125 27.640625 63.28125 
Q 24.171875 63.28125 21.78125 62.421875 
Q 19.390625 61.578125 17.84375 60.03125 
Q 16.3125 58.5 15.625 56.34375 
Q 14.9375 54.203125 14.9375 51.609375 
Q 14.9375 49.5625 15.46875 47.40625 
Q 16.015625 45.265625 17.421875 43.5 
Q 18.84375 41.75 21.328125 40.625 
Q 23.828125 39.5 27.734375 39.5 
Q 31.890625 39.5 34.40625 40.625 
Q 36.921875 41.75 38.25 43.5 
Q 39.59375 45.265625 40.015625 47.40625 
Q 40.4375 49.5625 40.4375 51.609375 
z
M 42.140625 20.015625 
Q 42.140625 22.515625 41.453125 24.828125 
Q 40.765625 27.15625 39.109375 28.9375 
Q 37.453125 30.71875 34.640625 31.8125 
Q 31.84375 32.90625 27.640625 32.90625 
Q 23.78125 32.90625 21.0625 31.8125 
Q 18.359375 30.71875 16.671875 28.90625 
Q 14.984375 27.09375 14.203125 24.71875 
Q 13.421875 22.359375 13.421875 19.828125 
Q 13.421875 16.65625 14.203125 14.03125 
Q 14.984375 11.421875 16.6875 9.546875 
Q 18.40625 7.671875 21.1875 6.640625 
Q 23.96875 5.609375 27.9375 5.609375 
Q 31.9375 5.609375 34.671875 6.640625 
Q 37.40625 7.671875 39.0625 9.546875 
Q 40.71875 11.421875 41.421875 14.078125 
Q 42.140625 16.75 42.140625 20.015625 
z
" id="LiberationSans-38"/>
      </defs>
      <g style="fill:#262626;" transform="translate(27.3082 271.884928)scale(0.14 -0.14)">
       <use xlink:href="#LiberationSans-30"/>
       <use x="55.615234" xlink:href="#LiberationSans-2e"/>
       <use x="83.398438" xlink:href="#LiberationSans-38"/>
      </g>
     </g>
    </g>
    <g id="ytick_4">
     <g id="text_11">
      <!-- 1.0 -->
      <defs>
       <path d="M 7.625 0 
L 7.625 7.46875 
L 25.140625 7.46875 
L 25.140625 60.40625 
L 9.625 49.3125 
L 9.625 57.625 
L 25.875 68.796875 
L 33.984375 68.796875 
L 33.984375 7.46875 
L 50.734375 7.46875 
L 50.734375 0 
z
" id="LiberationSans-31"/>
      </defs>
      <g style="fill:#262626;" transform="translate(27.3082 223.459088)scale(0.14 -0.14)">
       <use xlink:href="#LiberationSans-31"/>
       <use x="55.615234" xlink:href="#LiberationSans-2e"/>
       <use x="83.398438" xlink:href="#LiberationSans-30"/>
      </g>
     </g>
    </g>
    <g id="ytick_5">
     <g id="text_12">
      <!-- 1.2 -->
      <defs>
       <path d="M 5.03125 0 
L 5.03125 6.203125 
Q 7.515625 11.921875 11.109375 16.28125 
Q 14.703125 20.65625 18.65625 24.1875 
Q 22.609375 27.734375 26.484375 30.765625 
Q 30.375 33.796875 33.5 36.8125 
Q 36.625 39.84375 38.546875 43.15625 
Q 40.484375 46.484375 40.484375 50.6875 
Q 40.484375 53.609375 39.59375 55.828125 
Q 38.71875 58.0625 37.0625 59.5625 
Q 35.40625 61.078125 33.078125 61.828125 
Q 30.765625 62.59375 27.9375 62.59375 
Q 25.296875 62.59375 22.96875 61.859375 
Q 20.65625 61.140625 18.84375 59.671875 
Q 17.046875 58.203125 15.890625 56.03125 
Q 14.75 53.859375 14.40625 50.984375 
L 5.421875 51.8125 
Q 5.859375 55.515625 7.46875 58.78125 
Q 9.078125 62.0625 11.90625 64.53125 
Q 14.75 67 18.71875 68.40625 
Q 22.703125 69.828125 27.9375 69.828125 
Q 33.0625 69.828125 37.0625 68.609375 
Q 41.0625 67.390625 43.8125 64.984375 
Q 46.578125 62.59375 48.046875 59.078125 
Q 49.515625 55.5625 49.515625 50.984375 
Q 49.515625 47.515625 48.265625 44.390625 
Q 47.015625 41.265625 44.9375 38.421875 
Q 42.875 35.59375 40.140625 32.953125 
Q 37.40625 30.328125 34.421875 27.8125 
Q 31.453125 25.296875 28.421875 22.828125 
Q 25.390625 20.359375 22.71875 17.859375 
Q 20.0625 15.375 17.96875 12.8125 
Q 15.875 10.25 14.703125 7.46875 
L 50.59375 7.46875 
L 50.59375 0 
z
" id="LiberationSans-32"/>
      </defs>
      <g style="fill:#262626;" transform="translate(27.3082 175.033248)scale(0.14 -0.14)">
       <use xlink:href="#LiberationSans-31"/>
       <use x="55.615234" xlink:href="#LiberationSans-2e"/>
       <use x="83.398438" xlink:href="#LiberationSans-32"/>
      </g>
     </g>
    </g>
    <g id="ytick_6">
     <g id="text_13">
      <!-- 1.4 -->
      <g style="fill:#262626;" transform="translate(27.3082 126.607408)scale(0.14 -0.14)">
       <use xlink:href="#LiberationSans-31"/>
       <use x="55.615234" xlink:href="#LiberationSans-2e"/>
       <use x="83.398438" xlink:href="#LiberationSans-34"/>
      </g>
     </g>
    </g>
    <g id="ytick_7">
     <g id="text_14">
      <!-- 1.6 -->
      <g style="fill:#262626;" transform="translate(27.3082 78.181567)scale(0.14 -0.14)">
       <use xlink:href="#LiberationSans-31"/>
       <use x="55.615234" xlink:href="#LiberationSans-2e"/>
       <use x="83.398438" xlink:href="#LiberationSans-36"/>
      </g>
     </g>
    </g>
    <g id="text_15">
     <!-- Accident Ratio: End DST Week / Week After -->
     <defs>
      <path d="M 56.984375 0 
L 49.125 20.125 
L 17.78125 20.125 
L 9.859375 0 
L 0.203125 0 
L 28.265625 68.796875 
L 38.875 68.796875 
L 66.5 0 
z
M 37.5 50.09375 
Q 36.71875 52.046875 36 54.046875 
Q 35.296875 56.0625 34.765625 57.6875 
Q 34.234375 59.328125 33.859375 60.421875 
Q 33.5 61.53125 33.453125 61.765625 
Q 33.34375 61.53125 33 60.40625 
Q 32.671875 59.28125 32.109375 57.609375 
Q 31.546875 55.953125 30.828125 53.953125 
Q 30.125 51.953125 29.390625 50 
L 20.609375 27.390625 
L 46.34375 27.390625 
z
" id="LiberationSans-41"/>
      <path d="M 13.421875 26.65625 
Q 13.421875 22.125 14.078125 18.3125 
Q 14.75 14.5 16.3125 11.734375 
Q 17.875 8.984375 20.4375 7.46875 
Q 23 5.953125 26.765625 5.953125 
Q 31.453125 5.953125 34.59375 8.484375 
Q 37.75 11.03125 38.484375 16.3125 
L 47.359375 15.71875 
Q 46.921875 12.453125 45.453125 9.421875 
Q 44 6.390625 41.484375 4.09375 
Q 38.96875 1.8125 35.34375 0.40625 
Q 31.734375 -0.984375 27 -0.984375 
Q 20.796875 -0.984375 16.453125 1.109375 
Q 12.109375 3.21875 9.390625 6.90625 
Q 6.6875 10.59375 5.46875 15.59375 
Q 4.25 20.609375 4.25 26.46875 
Q 4.25 31.78125 5.125 35.859375 
Q 6 39.9375 7.59375 42.984375 
Q 9.1875 46.046875 11.328125 48.125 
Q 13.484375 50.203125 15.984375 51.4375 
Q 18.5 52.6875 21.28125 53.25 
Q 24.078125 53.8125 26.90625 53.8125 
Q 31.34375 53.8125 34.8125 52.59375 
Q 38.28125 51.375 40.796875 49.25 
Q 43.3125 47.125 44.875 44.234375 
Q 46.4375 41.359375 47.078125 38.03125 
L 38.03125 37.359375 
Q 37.359375 41.75 34.5625 44.328125 
Q 31.78125 46.921875 26.65625 46.921875 
Q 22.90625 46.921875 20.390625 45.671875 
Q 17.875 44.4375 16.3125 41.921875 
Q 14.75 39.40625 14.078125 35.59375 
Q 13.421875 31.78125 13.421875 26.65625 
z
" id="LiberationSans-63"/>
      <path d="M 56.84375 0 
L 38.96875 28.5625 
L 17.53125 28.5625 
L 17.53125 0 
L 8.203125 0 
L 8.203125 68.796875 
L 40.578125 68.796875 
Q 46.4375 68.796875 50.953125 67.453125 
Q 55.46875 66.109375 58.546875 63.5625 
Q 61.625 61.03125 63.234375 57.375 
Q 64.84375 53.71875 64.84375 49.125 
Q 64.84375 45.84375 63.890625 42.671875 
Q 62.9375 39.5 60.890625 36.859375 
Q 58.84375 34.234375 55.65625 32.328125 
Q 52.484375 30.421875 48.046875 29.640625 
L 67.578125 0 
z
M 55.46875 49.03125 
Q 55.46875 52.15625 54.390625 54.4375 
Q 53.328125 56.734375 51.265625 58.265625 
Q 49.21875 59.8125 46.28125 60.5625 
Q 43.359375 61.328125 39.65625 61.328125 
L 17.53125 61.328125 
L 17.53125 35.9375 
L 40.046875 35.9375 
Q 44.046875 35.9375 46.96875 36.9375 
Q 49.90625 37.9375 51.78125 39.6875 
Q 53.65625 41.453125 54.5625 43.84375 
Q 55.46875 46.234375 55.46875 49.03125 
z
" id="LiberationSans-52"/>
      <path d="M 9.125 42.71875 
L 9.125 52.828125 
L 18.65625 52.828125 
L 18.65625 42.71875 
z
M 9.125 0 
L 9.125 10.109375 
L 18.65625 10.109375 
L 18.65625 0 
z
" id="LiberationSans-3a"/>
      <path d="M 39.84375 0 
L 21.96875 24.125 
L 15.53125 18.796875 
L 15.53125 0 
L 6.734375 0 
L 6.734375 72.46875 
L 15.53125 72.46875 
L 15.53125 27.203125 
L 38.71875 52.828125 
L 49.03125 52.828125 
L 27.59375 30.125 
L 50.140625 0 
z
" id="LiberationSans-6b"/>
      <path d="M 0 -0.984375 
L 20.0625 72.46875 
L 27.78125 72.46875 
L 7.90625 -0.984375 
z
" id="LiberationSans-2f"/>
      <path d="M 17.625 46.4375 
L 17.625 0 
L 8.84375 0 
L 8.84375 46.4375 
L 1.421875 46.4375 
L 1.421875 52.828125 
L 8.84375 52.828125 
L 8.84375 58.796875 
Q 8.84375 61.671875 9.375 64.140625 
Q 9.90625 66.609375 11.34375 68.4375 
Q 12.796875 70.265625 15.28125 71.3125 
Q 17.78125 72.359375 21.734375 72.359375 
Q 23.296875 72.359375 24.96875 72.21875 
Q 26.65625 72.078125 27.9375 71.78125 
L 27.9375 65.09375 
Q 27.09375 65.234375 26 65.359375 
Q 24.90625 65.484375 24.03125 65.484375 
Q 22.078125 65.484375 20.828125 64.9375 
Q 19.578125 64.40625 18.875 63.40625 
Q 18.171875 62.40625 17.890625 60.9375 
Q 17.625 59.46875 17.625 57.5625 
L 17.625 52.828125 
L 27.9375 52.828125 
L 27.9375 46.4375 
z
" id="LiberationSans-66"/>
     </defs>
     <g style="fill:#262626;" transform="translate(19.7226 374.871675)rotate(-90)scale(0.1728 -0.1728)">
      <use xlink:href="#LiberationSans-41"/>
      <use x="66.699219" xlink:href="#LiberationSans-63"/>
      <use x="116.699219" xlink:href="#LiberationSans-63"/>
      <use x="166.699219" xlink:href="#LiberationSans-69"/>
      <use x="188.916016" xlink:href="#LiberationSans-64"/>
      <use x="244.53125" xlink:href="#LiberationSans-65"/>
      <use x="300.146484" xlink:href="#LiberationSans-6e"/>
      <use x="355.761719" xlink:href="#LiberationSans-74"/>
      <use x="383.544922" xlink:href="#LiberationSans-20"/>
      <use x="411.328125" xlink:href="#LiberationSans-52"/>
      <use x="483.544922" xlink:href="#LiberationSans-61"/>
      <use x="539.160156" xlink:href="#LiberationSans-74"/>
      <use x="566.943359" xlink:href="#LiberationSans-69"/>
      <use x="589.160156" xlink:href="#LiberationSans-6f"/>
      <use x="644.775391" xlink:href="#LiberationSans-3a"/>
      <use x="672.558594" xlink:href="#LiberationSans-20"/>
      <use x="700.341797" xlink:href="#LiberationSans-45"/>
      <use x="767.041016" xlink:href="#LiberationSans-6e"/>
      <use x="822.65625" xlink:href="#LiberationSans-64"/>
      <use x="878.271484" xlink:href="#LiberationSans-20"/>
      <use x="906.054688" xlink:href="#LiberationSans-44"/>
      <use x="978.271484" xlink:href="#LiberationSans-53"/>
      <use x="1044.970703" xlink:href="#LiberationSans-54"/>
      <use x="1106.039062" xlink:href="#LiberationSans-20"/>
      <use x="1133.822266" xlink:href="#LiberationSans-57"/>
      <use x="1228.191406" xlink:href="#LiberationSans-65"/>
      <use x="1283.806641" xlink:href="#LiberationSans-65"/>
      <use x="1339.421875" xlink:href="#LiberationSans-6b"/>
      <use x="1389.421875" xlink:href="#LiberationSans-20"/>
      <use x="1417.205078" xlink:href="#LiberationSans-2f"/>
      <use x="1444.988281" xlink:href="#LiberationSans-20"/>
      <use x="1472.771484" xlink:href="#LiberationSans-57"/>
      <use x="1567.140625" xlink:href="#LiberationSans-65"/>
      <use x="1622.755859" xlink:href="#LiberationSans-65"/>
      <use x="1678.371094" xlink:href="#LiberationSans-6b"/>
      <use x="1728.371094" xlink:href="#LiberationSans-20"/>
      <use x="1756.076172" xlink:href="#LiberationSans-41"/>
      <use x="1822.775391" xlink:href="#LiberationSans-66"/>
      <use x="1850.558594" xlink:href="#LiberationSans-74"/>
      <use x="1878.341797" xlink:href="#LiberationSans-65"/>
      <use x="1933.957031" xlink:href="#LiberationSans-72"/>
     </g>
    </g>
   </g>
   <g id="PolyCollection_1">
    <defs>
     <path d="M 98.738588 -101.922071 
L 97.454955 -101.922071 
L 97.299034 -103.570424 
L 97.11569 -105.218777 
L 96.902908 -106.867131 
L 96.659229 -108.515484 
L 96.383935 -110.163837 
L 96.07721 -111.812191 
L 95.740292 -113.460544 
L 95.375568 -115.108898 
L 94.986629 -116.757251 
L 94.578242 -118.405604 
L 94.15625 -120.053958 
L 93.727374 -121.702311 
L 93.298927 -123.350664 
L 92.878447 -124.999018 
L 92.473255 -126.647371 
L 92.089953 -128.295724 
L 91.733909 -129.944078 
L 91.408738 -131.592431 
L 91.11583 -133.240784 
L 90.853945 -134.889138 
L 90.61893 -136.537491 
L 90.40357 -138.185845 
L 90.197606 -139.834198 
L 89.987932 -141.482551 
L 89.758979 -143.130905 
L 89.493282 -144.779258 
L 89.172209 -146.427611 
L 88.776828 -148.075965 
L 88.288881 -149.724318 
L 87.691816 -151.372671 
L 86.971822 -153.021025 
L 86.118825 -154.669378 
L 85.127378 -156.317731 
L 83.997397 -157.966085 
L 82.73469 -159.614438 
L 81.351234 -161.262792 
L 79.86517 -162.911145 
L 78.300487 -164.559498 
L 76.686405 -166.207852 
L 75.056449 -167.856205 
L 73.447257 -169.504558 
L 71.897162 -171.152912 
L 70.444618 -172.801265 
L 69.12654 -174.449618 
L 67.976652 -176.097972 
L 67.023929 -177.746325 
L 66.291231 -179.394678 
L 65.794207 -181.043032 
L 65.540543 -182.691385 
L 65.529599 -184.339739 
L 65.752469 -185.988092 
L 66.192463 -187.636445 
L 66.825984 -189.284799 
L 67.623753 -190.933152 
L 68.552309 -192.581505 
L 69.575691 -194.229859 
L 70.657211 -195.878212 
L 71.761205 -197.526565 
L 72.854674 -199.174919 
L 73.908708 -200.823272 
L 74.899643 -202.471625 
L 75.809867 -204.119979 
L 76.628277 -205.768332 
L 77.350348 -207.416686 
L 77.97785 -209.065039 
L 78.518239 -210.713392 
L 78.983781 -212.361746 
L 79.390467 -214.010099 
L 79.756803 -215.658452 
L 80.102544 -217.306806 
L 80.447452 -218.955159 
L 80.810143 -220.603512 
L 81.207093 -222.251866 
L 81.651826 -223.900219 
L 82.154343 -225.548572 
L 82.720783 -227.196926 
L 83.353332 -228.845279 
L 84.050356 -230.493633 
L 84.80673 -232.141986 
L 85.614333 -233.790339 
L 86.462664 -235.438693 
L 87.339522 -237.087046 
L 88.231721 -238.735399 
L 89.125781 -240.383753 
L 90.00857 -242.032106 
L 90.867853 -243.680459 
L 91.692746 -245.328813 
L 92.474043 -246.977166 
L 93.204423 -248.625519 
L 93.87854 -250.273873 
L 94.49301 -251.922226 
L 95.0463 -253.57058 
L 95.538552 -255.218933 
L 95.971353 -256.867286 
L 96.347471 -258.51564 
L 96.670588 -260.163993 
L 96.945028 -261.812346 
L 97.175507 -263.4607 
L 97.36691 -265.109053 
L 98.826633 -265.109053 
L 98.826633 -265.109053 
L 99.018036 -263.4607 
L 99.248515 -261.812346 
L 99.522955 -260.163993 
L 99.846072 -258.51564 
L 100.22219 -256.867286 
L 100.65499 -255.218933 
L 101.147243 -253.57058 
L 101.700533 -251.922226 
L 102.315003 -250.273873 
L 102.98912 -248.625519 
L 103.7195 -246.977166 
L 104.500797 -245.328813 
L 105.32569 -243.680459 
L 106.184973 -242.032106 
L 107.067761 -240.383753 
L 107.961822 -238.735399 
L 108.854021 -237.087046 
L 109.730879 -235.438693 
L 110.57921 -233.790339 
L 111.386813 -232.141986 
L 112.143187 -230.493633 
L 112.84021 -228.845279 
L 113.47276 -227.196926 
L 114.0392 -225.548572 
L 114.541716 -223.900219 
L 114.98645 -222.251866 
L 115.383399 -220.603512 
L 115.746091 -218.955159 
L 116.090999 -217.306806 
L 116.43674 -215.658452 
L 116.803076 -214.010099 
L 117.209762 -212.361746 
L 117.675304 -210.713392 
L 118.215693 -209.065039 
L 118.843195 -207.416686 
L 119.565266 -205.768332 
L 120.383676 -204.119979 
L 121.2939 -202.471625 
L 122.284835 -200.823272 
L 123.338869 -199.174919 
L 124.432338 -197.526565 
L 125.536332 -195.878212 
L 126.617852 -194.229859 
L 127.641234 -192.581505 
L 128.56979 -190.933152 
L 129.367559 -189.284799 
L 130.00108 -187.636445 
L 130.441074 -185.988092 
L 130.663944 -184.339739 
L 130.652999 -182.691385 
L 130.399336 -181.043032 
L 129.902312 -179.394678 
L 129.169614 -177.746325 
L 128.216891 -176.097972 
L 127.067003 -174.449618 
L 125.748925 -172.801265 
L 124.296381 -171.152912 
L 122.746286 -169.504558 
L 121.137093 -167.856205 
L 119.507137 -166.207852 
L 117.893056 -164.559498 
L 116.328373 -162.911145 
L 114.842309 -161.262792 
L 113.458853 -159.614438 
L 112.196146 -157.966085 
L 111.066165 -156.317731 
L 110.074718 -154.669378 
L 109.221721 -153.021025 
L 108.501727 -151.372671 
L 107.904662 -149.724318 
L 107.416715 -148.075965 
L 107.021334 -146.427611 
L 106.700261 -144.779258 
L 106.434564 -143.130905 
L 106.205611 -141.482551 
L 105.995937 -139.834198 
L 105.789973 -138.185845 
L 105.574613 -136.537491 
L 105.339598 -134.889138 
L 105.077713 -133.240784 
L 104.784805 -131.592431 
L 104.459634 -129.944078 
L 104.10359 -128.295724 
L 103.720288 -126.647371 
L 103.315095 -124.999018 
L 102.894616 -123.350664 
L 102.466169 -121.702311 
L 102.037293 -120.053958 
L 101.615301 -118.405604 
L 101.206914 -116.757251 
L 100.817975 -115.108898 
L 100.453251 -113.460544 
L 100.116332 -111.812191 
L 99.809608 -110.163837 
L 99.534314 -108.515484 
L 99.290635 -106.867131 
L 99.077852 -105.218777 
L 98.894509 -103.570424 
L 98.738588 -101.922071 
z
" id="me4cd1227cd" style="stroke:#414141;stroke-width:2;"/>
    </defs>
    <g clip-path="url(#p86e7d86bd0)">
     <use style="fill:#e68193;stroke:#414141;stroke-width:2;" x="0" xlink:href="#me4cd1227cd" y="391.7373"/>
    </g>
   </g>
   <g id="PolyCollection_2">
    <defs>
     <path d="M 194.091999 -77.272347 
L 193.415829 -77.272347 
L 193.331003 -79.79488 
L 193.229962 -82.317413 
L 193.110839 -84.839946 
L 192.971788 -87.362479 
L 192.811017 -89.885012 
L 192.62682 -92.407545 
L 192.417596 -94.930078 
L 192.181873 -97.452611 
L 191.918309 -99.975144 
L 191.625708 -102.497677 
L 191.303018 -105.020211 
L 190.949346 -107.542744 
L 190.563975 -110.065277 
L 190.146399 -112.58781 
L 189.696383 -115.110343 
L 189.21403 -117.632876 
L 188.699884 -120.155409 
L 188.155033 -122.677942 
L 187.581227 -125.200475 
L 186.980983 -127.723008 
L 186.357665 -130.245541 
L 185.715538 -132.768074 
L 185.059749 -135.290608 
L 184.396261 -137.813141 
L 183.731704 -140.335674 
L 183.073164 -142.858207 
L 182.427905 -145.38074 
L 181.803047 -147.903273 
L 181.205221 -150.425806 
L 180.640228 -152.948339 
L 180.112733 -155.470872 
L 179.626019 -157.993405 
L 179.181832 -160.515938 
L 178.780326 -163.038472 
L 178.420128 -165.561005 
L 178.098505 -168.083538 
L 177.811646 -170.606071 
L 177.555008 -173.128604 
L 177.323726 -175.651137 
L 177.113032 -178.17367 
L 176.918672 -180.696203 
L 176.737263 -183.218736 
L 176.566584 -185.741269 
L 176.405769 -188.263802 
L 176.255394 -190.786336 
L 176.117456 -193.308869 
L 175.995242 -195.831402 
L 175.893113 -198.353935 
L 175.816216 -200.876468 
L 175.77014 -203.399001 
L 175.760567 -205.921534 
L 175.792906 -208.444067 
L 175.871973 -210.9666 
L 176.001702 -213.489133 
L 176.184925 -216.011666 
L 176.423225 -218.534199 
L 176.71685 -221.056733 
L 177.064715 -223.579266 
L 177.464457 -226.101799 
L 177.912552 -228.624332 
L 178.404474 -231.146865 
L 178.934888 -233.669398 
L 179.497857 -236.191931 
L 180.087061 -238.714464 
L 180.696003 -241.236997 
L 181.318216 -243.75953 
L 181.947441 -246.282063 
L 182.577787 -248.804597 
L 183.203871 -251.32713 
L 183.820917 -253.849663 
L 184.424844 -256.372196 
L 185.012306 -258.894729 
L 185.580718 -261.417262 
L 186.128234 -263.939795 
L 186.653711 -266.462328 
L 187.156636 -268.984861 
L 187.637026 -271.507394 
L 188.095321 -274.029927 
L 188.532253 -276.552461 
L 188.948719 -279.074994 
L 189.345655 -281.597527 
L 189.723935 -284.12006 
L 190.084274 -286.642593 
L 190.42718 -289.165126 
L 190.752917 -291.687659 
L 191.061517 -294.210192 
L 191.352802 -296.732725 
L 191.626446 -299.255258 
L 191.882041 -301.777791 
L 192.119173 -304.300325 
L 192.337502 -306.822858 
L 192.536828 -309.345391 
L 192.717146 -311.867924 
L 192.878684 -314.390457 
L 193.021916 -316.91299 
L 193.147562 -319.435523 
L 193.256566 -321.958056 
L 193.350063 -324.480589 
L 193.429334 -327.003122 
L 194.078495 -327.003122 
L 194.078495 -327.003122 
L 194.157765 -324.480589 
L 194.251262 -321.958056 
L 194.360267 -319.435523 
L 194.485913 -316.91299 
L 194.629145 -314.390457 
L 194.790683 -311.867924 
L 194.971001 -309.345391 
L 195.170327 -306.822858 
L 195.388656 -304.300325 
L 195.625788 -301.777791 
L 195.881382 -299.255258 
L 196.155026 -296.732725 
L 196.446312 -294.210192 
L 196.754911 -291.687659 
L 197.080649 -289.165126 
L 197.423554 -286.642593 
L 197.783894 -284.12006 
L 198.162173 -281.597527 
L 198.55911 -279.074994 
L 198.975575 -276.552461 
L 199.412507 -274.029927 
L 199.870802 -271.507394 
L 200.351193 -268.984861 
L 200.854117 -266.462328 
L 201.379595 -263.939795 
L 201.927111 -261.417262 
L 202.495522 -258.894729 
L 203.082985 -256.372196 
L 203.686912 -253.849663 
L 204.303958 -251.32713 
L 204.930041 -248.804597 
L 205.560388 -246.282063 
L 206.189612 -243.75953 
L 206.811825 -241.236997 
L 207.420768 -238.714464 
L 208.009971 -236.191931 
L 208.572941 -233.669398 
L 209.103355 -231.146865 
L 209.595277 -228.624332 
L 210.043371 -226.101799 
L 210.443113 -223.579266 
L 210.790978 -221.056733 
L 211.084604 -218.534199 
L 211.322903 -216.011666 
L 211.506127 -213.489133 
L 211.635855 -210.9666 
L 211.714922 -208.444067 
L 211.747262 -205.921534 
L 211.737688 -203.399001 
L 211.691613 -200.876468 
L 211.614715 -198.353935 
L 211.512587 -195.831402 
L 211.390373 -193.308869 
L 211.252435 -190.786336 
L 211.10206 -188.263802 
L 210.941245 -185.741269 
L 210.770566 -183.218736 
L 210.589157 -180.696203 
L 210.394797 -178.17367 
L 210.184103 -175.651137 
L 209.95282 -173.128604 
L 209.696182 -170.606071 
L 209.409323 -168.083538 
L 209.087701 -165.561005 
L 208.727502 -163.038472 
L 208.325997 -160.515938 
L 207.88181 -157.993405 
L 207.395096 -155.470872 
L 206.867601 -152.948339 
L 206.302608 -150.425806 
L 205.704782 -147.903273 
L 205.079924 -145.38074 
L 204.434665 -142.858207 
L 203.776125 -140.335674 
L 203.111568 -137.813141 
L 202.448079 -135.290608 
L 201.79229 -132.768074 
L 201.150163 -130.245541 
L 200.526846 -127.723008 
L 199.926601 -125.200475 
L 199.352795 -122.677942 
L 198.807944 -120.155409 
L 198.293798 -117.632876 
L 197.811446 -115.110343 
L 197.361429 -112.58781 
L 196.943854 -110.065277 
L 196.558482 -107.542744 
L 196.20481 -105.020211 
L 195.882121 -102.497677 
L 195.589519 -99.975144 
L 195.325956 -97.452611 
L 195.090232 -94.930078 
L 194.881009 -92.407545 
L 194.696811 -89.885012 
L 194.536041 -87.362479 
L 194.39699 -84.839946 
L 194.277867 -82.317413 
L 194.176825 -79.79488 
L 194.091999 -77.272347 
z
" id="m7c71a05ce3" style="stroke:#414141;stroke-width:2;"/>
    </defs>
    <g clip-path="url(#p86e7d86bd0)">
     <use style="fill:#b38e44;stroke:#414141;stroke-width:2;" x="0" xlink:href="#m7c71a05ce3" y="391.7373"/>
    </g>
   </g>
   <g id="PolyCollection_3">
    <defs>
     <path d="M 290.274828 -92.465035 
L 288.547286 -92.465035 
L 288.342418 -94.915744 
L 288.099774 -97.366452 
L 287.815118 -99.817161 
L 287.484356 -102.267869 
L 287.103701 -104.718578 
L 286.669835 -107.169286 
L 286.180101 -109.619994 
L 285.632679 -112.070703 
L 285.026758 -114.521411 
L 284.362701 -116.97212 
L 283.642163 -119.422828 
L 282.868181 -121.873537 
L 282.045222 -124.324245 
L 281.179161 -126.774954 
L 280.277218 -129.225662 
L 279.347826 -131.67637 
L 278.400446 -134.127079 
L 277.44533 -136.577787 
L 276.493255 -139.028496 
L 275.555213 -141.479204 
L 274.64211 -143.929913 
L 273.764457 -146.380621 
L 272.93209 -148.831329 
L 272.153932 -151.282038 
L 271.437798 -153.732746 
L 270.790269 -156.183455 
L 270.216633 -158.634163 
L 269.720885 -161.084872 
L 269.305797 -163.53558 
L 268.973032 -165.986288 
L 268.723304 -168.436997 
L 268.55655 -170.887705 
L 268.47211 -173.338414 
L 268.468893 -175.789122 
L 268.545509 -178.239831 
L 268.700358 -180.690539 
L 268.931677 -183.141248 
L 269.237516 -185.591956 
L 269.615684 -188.042664 
L 270.063633 -190.493373 
L 270.578326 -192.944081 
L 271.156082 -195.39479 
L 271.79243 -197.845498 
L 272.481975 -200.296207 
L 273.218312 -202.746915 
L 273.993982 -205.197623 
L 274.80049 -207.648332 
L 275.62839 -210.09904 
L 276.467432 -212.549749 
L 277.306771 -215.000457 
L 278.135224 -217.451166 
L 278.941569 -219.901874 
L 279.714866 -222.352582 
L 280.444787 -224.803291 
L 281.121938 -227.253999 
L 281.738153 -229.704708 
L 282.286762 -232.155416 
L 282.762804 -234.606125 
L 283.163184 -237.056833 
L 283.486772 -239.507542 
L 283.734434 -241.95825 
L 283.908998 -244.408958 
L 284.015154 -246.859667 
L 284.059298 -249.310375 
L 284.049313 -251.761084 
L 283.99431 -254.211792 
L 283.904321 -256.662501 
L 283.789972 -259.113209 
L 283.66213 -261.563917 
L 283.531553 -264.014626 
L 283.408538 -266.465334 
L 283.3026 -268.916043 
L 283.222176 -271.366751 
L 283.174382 -273.81746 
L 283.164818 -276.268168 
L 283.197439 -278.718876 
L 283.274498 -281.169585 
L 283.39655 -283.620293 
L 283.562525 -286.071002 
L 283.769869 -288.52171 
L 284.01473 -290.972419 
L 284.292186 -293.423127 
L 284.596513 -295.873836 
L 284.921452 -298.324544 
L 285.26049 -300.775252 
L 285.60712 -303.225961 
L 285.955085 -305.676669 
L 286.298582 -308.127378 
L 286.632428 -310.578086 
L 286.952182 -313.028795 
L 287.254221 -315.479503 
L 287.535773 -317.930211 
L 287.794905 -320.38092 
L 288.030488 -322.831628 
L 288.242119 -325.282337 
L 288.430033 -327.733045 
L 288.595003 -330.183754 
L 288.738224 -332.634462 
L 288.86121 -335.08517 
L 289.960905 -335.08517 
L 289.960905 -335.08517 
L 290.083891 -332.634462 
L 290.227112 -330.183754 
L 290.392081 -327.733045 
L 290.579996 -325.282337 
L 290.791626 -322.831628 
L 291.027209 -320.38092 
L 291.286342 -317.930211 
L 291.567893 -315.479503 
L 291.869932 -313.028795 
L 292.189686 -310.578086 
L 292.523532 -308.127378 
L 292.867029 -305.676669 
L 293.214994 -303.225961 
L 293.561624 -300.775252 
L 293.900662 -298.324544 
L 294.225601 -295.873836 
L 294.529928 -293.423127 
L 294.807385 -290.972419 
L 295.052245 -288.52171 
L 295.259589 -286.071002 
L 295.425565 -283.620293 
L 295.547616 -281.169585 
L 295.624675 -278.718876 
L 295.657297 -276.268168 
L 295.647732 -273.81746 
L 295.599938 -271.366751 
L 295.519514 -268.916043 
L 295.413576 -266.465334 
L 295.290561 -264.014626 
L 295.159984 -261.563917 
L 295.032143 -259.113209 
L 294.917793 -256.662501 
L 294.827804 -254.211792 
L 294.772801 -251.761084 
L 294.762816 -249.310375 
L 294.80696 -246.859667 
L 294.913117 -244.408958 
L 295.08768 -241.95825 
L 295.335342 -239.507542 
L 295.65893 -237.056833 
L 296.05931 -234.606125 
L 296.535352 -232.155416 
L 297.083961 -229.704708 
L 297.700177 -227.253999 
L 298.377327 -224.803291 
L 299.107248 -222.352582 
L 299.880546 -219.901874 
L 300.686891 -217.451166 
L 301.515343 -215.000457 
L 302.354682 -212.549749 
L 303.193724 -210.09904 
L 304.021624 -207.648332 
L 304.828132 -205.197623 
L 305.603802 -202.746915 
L 306.340139 -200.296207 
L 307.029684 -197.845498 
L 307.666032 -195.39479 
L 308.243788 -192.944081 
L 308.758481 -190.493373 
L 309.20643 -188.042664 
L 309.584598 -185.591956 
L 309.890438 -183.141248 
L 310.121756 -180.690539 
L 310.276606 -178.239831 
L 310.353221 -175.789122 
L 310.350004 -173.338414 
L 310.265564 -170.887705 
L 310.09881 -168.436997 
L 309.849082 -165.986288 
L 309.516318 -163.53558 
L 309.101229 -161.084872 
L 308.605481 -158.634163 
L 308.031845 -156.183455 
L 307.384316 -153.732746 
L 306.668182 -151.282038 
L 305.890024 -148.831329 
L 305.057658 -146.380621 
L 304.180005 -143.929913 
L 303.266902 -141.479204 
L 302.32886 -139.028496 
L 301.376784 -136.577787 
L 300.421669 -134.127079 
L 299.474288 -131.67637 
L 298.544896 -129.225662 
L 297.642953 -126.774954 
L 296.776892 -124.324245 
L 295.953933 -121.873537 
L 295.179952 -119.422828 
L 294.459413 -116.97212 
L 293.795356 -114.521411 
L 293.189436 -112.070703 
L 292.642013 -109.619994 
L 292.152279 -107.169286 
L 291.718414 -104.718578 
L 291.337758 -102.267869 
L 291.006997 -99.817161 
L 290.72234 -97.366452 
L 290.479696 -94.915744 
L 290.274828 -92.465035 
z
" id="ma667a94a12" style="stroke:#414141;stroke-width:2;"/>
    </defs>
    <g clip-path="url(#p86e7d86bd0)">
     <use style="fill:#7d9a40;stroke:#414141;stroke-width:2;" x="0" xlink:href="#ma667a94a12" y="391.7373"/>
    </g>
   </g>
   <g id="PolyCollection_4">
    <defs>
     <path d="M 385.92483 -112.667125 
L 384.21157 -112.667125 
L 383.960406 -114.520942 
L 383.650088 -116.37476 
L 383.270986 -118.228577 
L 382.81303 -120.082394 
L 382.265982 -121.936211 
L 381.619775 -123.790028 
L 380.864912 -125.643845 
L 379.992933 -127.497662 
L 378.996906 -129.35148 
L 377.871963 -131.205297 
L 376.615822 -133.059114 
L 375.229298 -134.912931 
L 373.716764 -136.766748 
L 372.086527 -138.620565 
L 370.351098 -140.474382 
L 368.527312 -142.3282 
L 366.63629 -144.182017 
L 364.7032 -146.035834 
L 362.756813 -147.889651 
L 360.828848 -149.743468 
L 358.953114 -151.597285 
L 357.164462 -153.451103 
L 355.497602 -155.30492 
L 353.985817 -157.158737 
L 352.659656 -159.012554 
L 351.545681 -160.866371 
L 350.665337 -162.720188 
L 350.034037 -164.574005 
L 349.660523 -166.427823 
L 349.546568 -168.28164 
L 349.687023 -170.135457 
L 350.070246 -171.989274 
L 350.678847 -173.843091 
L 351.490724 -175.696908 
L 352.480282 -177.550725 
L 353.619764 -179.404543 
L 354.880566 -181.25836 
L 356.234458 -183.112177 
L 357.654616 -184.965994 
L 359.116407 -186.819811 
L 360.597901 -188.673628 
L 362.080097 -190.527445 
L 363.546916 -192.381263 
L 364.984981 -194.23508 
L 366.383283 -196.088897 
L 367.732783 -197.942714 
L 369.026027 -199.796531 
L 370.256832 -201.650348 
L 371.420065 -203.504166 
L 372.511543 -205.357983 
L 373.528036 -207.2118 
L 374.467346 -209.065617 
L 375.328425 -210.919434 
L 376.111489 -212.773251 
L 376.81808 -214.627068 
L 377.451051 -216.480886 
L 378.01445 -218.334703 
L 378.513307 -220.18852 
L 378.953334 -222.042337 
L 379.34057 -223.896154 
L 379.681009 -225.749971 
L 379.980249 -227.603788 
L 380.243206 -229.457606 
L 380.473925 -231.311423 
L 380.675503 -233.16524 
L 380.850134 -235.019057 
L 380.999271 -236.872874 
L 381.123871 -238.726691 
L 381.224705 -240.580508 
L 381.302682 -242.434326 
L 381.359153 -244.288143 
L 381.396158 -246.14196 
L 381.416579 -247.995777 
L 381.424194 -249.849594 
L 381.423605 -251.703411 
L 381.420067 -253.557229 
L 381.419219 -255.411046 
L 381.426759 -257.264863 
L 381.448077 -259.11868 
L 381.487907 -260.972497 
L 381.550011 -262.826314 
L 381.63693 -264.680131 
L 381.749836 -266.533949 
L 381.888473 -268.387766 
L 382.051213 -270.241583 
L 382.235201 -272.0954 
L 382.436579 -273.949217 
L 382.650764 -275.803034 
L 382.872762 -277.656851 
L 383.097472 -279.510669 
L 383.319985 -281.364486 
L 383.535823 -283.218303 
L 383.741139 -285.07212 
L 383.932842 -286.925937 
L 384.108663 -288.779754 
L 384.267161 -290.633571 
L 384.407673 -292.487389 
L 384.530231 -294.341206 
L 384.635445 -296.195023 
L 385.500955 -296.195023 
L 385.500955 -296.195023 
L 385.606169 -294.341206 
L 385.728727 -292.487389 
L 385.869239 -290.633571 
L 386.027737 -288.779754 
L 386.203558 -286.925937 
L 386.395261 -285.07212 
L 386.600577 -283.218303 
L 386.816415 -281.364486 
L 387.038928 -279.510669 
L 387.263638 -277.656851 
L 387.485636 -275.803034 
L 387.699821 -273.949217 
L 387.901199 -272.0954 
L 388.085187 -270.241583 
L 388.247927 -268.387766 
L 388.386564 -266.533949 
L 388.49947 -264.680131 
L 388.586389 -262.826314 
L 388.648493 -260.972497 
L 388.688323 -259.11868 
L 388.709641 -257.264863 
L 388.717181 -255.411046 
L 388.716333 -253.557229 
L 388.712795 -251.703411 
L 388.712206 -249.849594 
L 388.719821 -247.995777 
L 388.740242 -246.14196 
L 388.777247 -244.288143 
L 388.833718 -242.434326 
L 388.911695 -240.580508 
L 389.012529 -238.726691 
L 389.137129 -236.872874 
L 389.286266 -235.019057 
L 389.460897 -233.16524 
L 389.662475 -231.311423 
L 389.893194 -229.457606 
L 390.156151 -227.603788 
L 390.455391 -225.749971 
L 390.79583 -223.896154 
L 391.183066 -222.042337 
L 391.623093 -220.18852 
L 392.12195 -218.334703 
L 392.685349 -216.480886 
L 393.31832 -214.627068 
L 394.024911 -212.773251 
L 394.807975 -210.919434 
L 395.669054 -209.065617 
L 396.608364 -207.2118 
L 397.624857 -205.357983 
L 398.716335 -203.504166 
L 399.879568 -201.650348 
L 401.110373 -199.796531 
L 402.403617 -197.942714 
L 403.753117 -196.088897 
L 405.151419 -194.23508 
L 406.589484 -192.381263 
L 408.056303 -190.527445 
L 409.538499 -188.673628 
L 411.019993 -186.819811 
L 412.481784 -184.965994 
L 413.901942 -183.112177 
L 415.255834 -181.25836 
L 416.516636 -179.404543 
L 417.656118 -177.550725 
L 418.645676 -175.696908 
L 419.457553 -173.843091 
L 420.066154 -171.989274 
L 420.449377 -170.135457 
L 420.589832 -168.28164 
L 420.475877 -166.427823 
L 420.102363 -164.574005 
L 419.471063 -162.720188 
L 418.590719 -160.866371 
L 417.476744 -159.012554 
L 416.150583 -157.158737 
L 414.638798 -155.30492 
L 412.971938 -153.451103 
L 411.183286 -151.597285 
L 409.307552 -149.743468 
L 407.379587 -147.889651 
L 405.4332 -146.035834 
L 403.50011 -144.182017 
L 401.609088 -142.3282 
L 399.785302 -140.474382 
L 398.049873 -138.620565 
L 396.419636 -136.766748 
L 394.907102 -134.912931 
L 393.520578 -133.059114 
L 392.264437 -131.205297 
L 391.139494 -129.35148 
L 390.143467 -127.497662 
L 389.271488 -125.643845 
L 388.516625 -123.790028 
L 387.870418 -121.936211 
L 387.32337 -120.082394 
L 386.865414 -118.228577 
L 386.486312 -116.37476 
L 386.175994 -114.520942 
L 385.92483 -112.667125 
z
" id="m67232c04be" style="stroke:#414141;stroke-width:2;"/>
    </defs>
    <g clip-path="url(#p86e7d86bd0)">
     <use style="fill:#43a084;stroke:#414141;stroke-width:2;" x="0" xlink:href="#m67232c04be" y="391.7373"/>
    </g>
   </g>
   <g id="PolyCollection_5">
    <defs>
     <path d="M 481.571714 -90.361133 
L 479.878972 -90.361133 
L 479.648678 -92.121187 
L 479.372826 -93.881241 
L 479.047343 -95.641295 
L 478.669073 -97.401349 
L 478.23609 -99.161404 
L 477.747989 -100.921458 
L 477.206095 -102.681512 
L 476.613576 -104.441566 
L 475.97542 -106.20162 
L 475.29825 -107.961675 
L 474.589971 -109.721729 
L 473.859248 -111.481783 
L 473.114839 -113.241837 
L 472.36482 -115.001892 
L 471.615766 -116.761946 
L 470.871939 -118.522 
L 470.134588 -120.282054 
L 469.401418 -122.042108 
L 468.666309 -123.802163 
L 467.919343 -125.562217 
L 467.147176 -127.322271 
L 466.333767 -129.082325 
L 465.461439 -130.84238 
L 464.512232 -132.602434 
L 463.469458 -134.362488 
L 462.319367 -136.122542 
L 461.052798 -137.882596 
L 459.666689 -139.642651 
L 458.165323 -141.402705 
L 456.561191 -143.162759 
L 454.875379 -144.922813 
L 453.137423 -146.682868 
L 451.38459 -148.442922 
L 449.660606 -150.202976 
L 448.01388 -151.96303 
L 446.495311 -153.723084 
L 445.155807 -155.483139 
L 444.043669 -157.243193 
L 443.201999 -159.003247 
L 442.666307 -160.763301 
L 442.462486 -162.523355 
L 442.605282 -164.28341 
L 443.097384 -166.043464 
L 443.929187 -167.803518 
L 445.079254 -169.563572 
L 446.515443 -171.323627 
L 448.19662 -173.083681 
L 450.074835 -174.843735 
L 452.097809 -176.603789 
L 454.211561 -178.363843 
L 456.362992 -180.123898 
L 458.502263 -181.883952 
L 460.584815 -183.644006 
L 462.572935 -185.40406 
L 464.436768 -187.164115 
L 466.154781 -188.924169 
L 467.713674 -190.684223 
L 469.107811 -192.444277 
L 470.338251 -194.204331 
L 471.411503 -195.964386 
L 472.338124 -197.72444 
L 473.131286 -199.484494 
L 473.805437 -201.244548 
L 474.375134 -203.004603 
L 474.854141 -204.764657 
L 475.254802 -206.524711 
L 475.587727 -208.284765 
L 475.861747 -210.044819 
L 476.084107 -211.804874 
L 476.260819 -213.564928 
L 476.39712 -215.324982 
L 476.497942 -217.085036 
L 476.568336 -218.84509 
L 476.613787 -220.605145 
L 476.640392 -222.365199 
L 476.654868 -224.125253 
L 476.664415 -225.885307 
L 476.676436 -227.645362 
L 476.698162 -229.405416 
L 476.73624 -231.16547 
L 476.796312 -232.925524 
L 476.882652 -234.685578 
L 476.997902 -236.445633 
L 477.142921 -238.205687 
L 477.316774 -239.965741 
L 477.516857 -241.725795 
L 477.739133 -243.48585 
L 477.97847 -245.245904 
L 478.229027 -247.005958 
L 478.484665 -248.766012 
L 478.739337 -250.526066 
L 478.987441 -252.286121 
L 479.224096 -254.046175 
L 479.445334 -255.806229 
L 479.648207 -257.566283 
L 479.830814 -259.326338 
L 479.992246 -261.086392 
L 480.132481 -262.846446 
L 480.252239 -264.6065 
L 481.198447 -264.6065 
L 481.198447 -264.6065 
L 481.318205 -262.846446 
L 481.45844 -261.086392 
L 481.619872 -259.326338 
L 481.802479 -257.566283 
L 482.005352 -255.806229 
L 482.226589 -254.046175 
L 482.463244 -252.286121 
L 482.711349 -250.526066 
L 482.966021 -248.766012 
L 483.221658 -247.005958 
L 483.472216 -245.245904 
L 483.711553 -243.48585 
L 483.933829 -241.725795 
L 484.133911 -239.965741 
L 484.307764 -238.205687 
L 484.452783 -236.445633 
L 484.568033 -234.685578 
L 484.654374 -232.925524 
L 484.714445 -231.16547 
L 484.752523 -229.405416 
L 484.77425 -227.645362 
L 484.78627 -225.885307 
L 484.795818 -224.125253 
L 484.810294 -222.365199 
L 484.836898 -220.605145 
L 484.88235 -218.84509 
L 484.952743 -217.085036 
L 485.053566 -215.324982 
L 485.189867 -213.564928 
L 485.366579 -211.804874 
L 485.588938 -210.044819 
L 485.862959 -208.284765 
L 486.195884 -206.524711 
L 486.596545 -204.764657 
L 487.075551 -203.004603 
L 487.645249 -201.244548 
L 488.3194 -199.484494 
L 489.112562 -197.72444 
L 490.039182 -195.964386 
L 491.112435 -194.204331 
L 492.342875 -192.444277 
L 493.737012 -190.684223 
L 495.295905 -188.924169 
L 497.013918 -187.164115 
L 498.877751 -185.40406 
L 500.86587 -183.644006 
L 502.948423 -181.883952 
L 505.087693 -180.123898 
L 507.239124 -178.363843 
L 509.352877 -176.603789 
L 511.375851 -174.843735 
L 513.254065 -173.083681 
L 514.935242 -171.323627 
L 516.371432 -169.563572 
L 517.521499 -167.803518 
L 518.353302 -166.043464 
L 518.845404 -164.28341 
L 518.9882 -162.523355 
L 518.784379 -160.763301 
L 518.248687 -159.003247 
L 517.407016 -157.243193 
L 516.294879 -155.483139 
L 514.955375 -153.723084 
L 513.436805 -151.96303 
L 511.790079 -150.202976 
L 510.066096 -148.442922 
L 508.313263 -146.682868 
L 506.575307 -144.922813 
L 504.889495 -143.162759 
L 503.285362 -141.402705 
L 501.783997 -139.642651 
L 500.397888 -137.882596 
L 499.131319 -136.122542 
L 497.981228 -134.362488 
L 496.938454 -132.602434 
L 495.989247 -130.84238 
L 495.116919 -129.082325 
L 494.30351 -127.322271 
L 493.531343 -125.562217 
L 492.784377 -123.802163 
L 492.049268 -122.042108 
L 491.316098 -120.282054 
L 490.578747 -118.522 
L 489.83492 -116.761946 
L 489.085865 -115.001892 
L 488.335847 -113.241837 
L 487.591438 -111.481783 
L 486.860714 -109.721729 
L 486.152435 -107.961675 
L 485.475265 -106.20162 
L 484.837109 -104.441566 
L 484.24459 -102.681512 
L 483.702696 -100.921458 
L 483.214595 -99.161404 
L 482.781613 -97.401349 
L 482.403342 -95.641295 
L 482.07786 -93.881241 
L 481.802008 -92.121187 
L 481.571714 -90.361133 
z
" id="m0e61ee2fe3" style="stroke:#414141;stroke-width:2;"/>
    </defs>
    <g clip-path="url(#p86e7d86bd0)">
     <use style="fill:#489eaa;stroke:#414141;stroke-width:2;" x="0" xlink:href="#m0e61ee2fe3" y="391.7373"/>
    </g>
   </g>
   <g id="PolyCollection_6">
    <defs>
     <path d="M 576.717954 -38.57608 
L 576.047018 -38.57608 
L 575.962293 -41.053831 
L 575.862739 -43.531582 
L 575.747539 -46.009333 
L 575.616272 -48.487084 
L 575.468981 -50.964835 
L 575.306227 -53.442586 
L 575.129095 -55.920338 
L 574.939173 -58.398089 
L 574.73846 -60.87584 
L 574.529245 -63.353591 
L 574.313928 -65.831342 
L 574.094815 -68.309093 
L 573.8739 -70.786844 
L 573.652639 -73.264595 
L 573.431771 -75.742347 
L 573.211169 -78.220098 
L 572.989776 -80.697849 
L 572.765616 -83.1756 
L 572.535891 -85.653351 
L 572.297165 -88.131102 
L 572.045614 -90.608853 
L 571.777321 -93.086605 
L 571.488594 -95.564356 
L 571.176256 -98.042107 
L 570.837906 -100.519858 
L 570.47209 -102.997609 
L 570.07839 -105.47536 
L 569.657403 -107.953111 
L 569.210621 -110.430863 
L 568.740217 -112.908614 
L 568.248764 -115.386365 
L 567.738908 -117.864116 
L 567.213036 -120.341867 
L 566.67296 -122.819618 
L 566.119671 -125.297369 
L 565.553165 -127.77512 
L 564.972387 -130.252872 
L 564.3753 -132.730623 
L 563.75908 -135.208374 
L 563.120452 -137.686125 
L 562.456135 -140.163876 
L 561.763393 -142.641627 
L 561.040634 -145.119378 
L 560.288046 -147.59713 
L 559.508174 -150.074881 
L 558.706426 -152.552632 
L 557.891405 -155.030383 
L 557.075054 -157.508134 
L 556.272534 -159.985885 
L 555.501843 -162.463636 
L 554.783151 -164.941388 
L 554.1379 -167.419139 
L 553.5877 -169.89689 
L 553.153113 -172.374641 
L 552.852419 -174.852392 
L 552.700458 -177.330143 
L 552.707652 -179.807894 
L 552.879295 -182.285646 
L 553.215171 -184.763397 
L 553.709524 -187.241148 
L 554.351388 -189.718899 
L 555.125236 -192.19665 
L 556.011889 -194.674401 
L 556.989589 -197.152152 
L 558.035166 -199.629903 
L 559.125194 -202.107655 
L 560.237047 -204.585406 
L 561.349815 -207.063157 
L 562.445015 -209.540908 
L 563.507082 -212.018659 
L 564.523644 -214.49641 
L 565.485594 -216.974161 
L 566.386985 -219.451913 
L 567.224779 -221.929664 
L 567.998498 -224.407415 
L 568.709796 -226.885166 
L 569.361998 -229.362917 
L 569.959631 -231.840668 
L 570.507955 -234.318419 
L 571.012545 -236.796171 
L 571.47891 -239.273922 
L 571.912181 -241.751673 
L 572.316869 -244.229424 
L 572.6967 -246.707175 
L 573.054537 -249.184926 
L 573.392372 -251.662677 
L 573.711385 -254.140429 
L 574.012064 -256.61818 
L 574.294361 -259.095931 
L 574.557871 -261.573682 
L 574.802015 -264.051433 
L 575.026211 -266.529184 
L 575.230017 -269.006935 
L 575.413247 -271.484686 
L 575.576033 -273.962438 
L 575.718862 -276.440189 
L 575.842567 -278.91794 
L 575.948289 -281.395691 
L 576.037423 -283.873442 
L 576.727548 -283.873442 
L 576.727548 -283.873442 
L 576.816682 -281.395691 
L 576.922405 -278.91794 
L 577.046109 -276.440189 
L 577.188938 -273.962438 
L 577.351724 -271.484686 
L 577.534954 -269.006935 
L 577.738761 -266.529184 
L 577.962957 -264.051433 
L 578.2071 -261.573682 
L 578.47061 -259.095931 
L 578.752907 -256.61818 
L 579.053586 -254.140429 
L 579.372599 -251.662677 
L 579.710434 -249.184926 
L 580.068272 -246.707175 
L 580.448103 -244.229424 
L 580.85279 -241.751673 
L 581.286061 -239.273922 
L 581.752427 -236.796171 
L 582.257017 -234.318419 
L 582.805341 -231.840668 
L 583.402973 -229.362917 
L 584.055176 -226.885166 
L 584.766474 -224.407415 
L 585.540192 -221.929664 
L 586.377986 -219.451913 
L 587.279377 -216.974161 
L 588.241327 -214.49641 
L 589.257889 -212.018659 
L 590.319956 -209.540908 
L 591.415156 -207.063157 
L 592.527925 -204.585406 
L 593.639778 -202.107655 
L 594.729805 -199.629903 
L 595.775383 -197.152152 
L 596.753083 -194.674401 
L 597.639735 -192.19665 
L 598.413584 -189.718899 
L 599.055448 -187.241148 
L 599.5498 -184.763397 
L 599.885676 -182.285646 
L 600.05732 -179.807894 
L 600.064513 -177.330143 
L 599.912552 -174.852392 
L 599.611859 -172.374641 
L 599.177272 -169.89689 
L 598.627071 -167.419139 
L 597.98182 -164.941388 
L 597.263129 -162.463636 
L 596.492437 -159.985885 
L 595.689917 -157.508134 
L 594.873566 -155.030383 
L 594.058546 -152.552632 
L 593.256797 -150.074881 
L 592.476926 -147.59713 
L 591.724337 -145.119378 
L 591.001579 -142.641627 
L 590.308836 -140.163876 
L 589.64452 -137.686125 
L 589.005891 -135.208374 
L 588.389672 -132.730623 
L 587.792584 -130.252872 
L 587.211807 -127.77512 
L 586.6453 -125.297369 
L 586.092011 -122.819618 
L 585.551936 -120.341867 
L 585.026063 -117.864116 
L 584.516208 -115.386365 
L 584.024755 -112.908614 
L 583.554351 -110.430863 
L 583.107569 -107.953111 
L 582.686581 -105.47536 
L 582.292881 -102.997609 
L 581.927065 -100.519858 
L 581.588715 -98.042107 
L 581.276378 -95.564356 
L 580.98765 -93.086605 
L 580.719358 -90.608853 
L 580.467806 -88.131102 
L 580.22908 -85.653351 
L 579.999355 -83.1756 
L 579.775195 -80.697849 
L 579.553803 -78.220098 
L 579.333201 -75.742347 
L 579.112332 -73.264595 
L 578.891072 -70.786844 
L 578.670156 -68.309093 
L 578.451044 -65.831342 
L 578.235727 -63.353591 
L 578.026511 -60.87584 
L 577.825798 -58.398089 
L 577.635876 -55.920338 
L 577.458745 -53.442586 
L 577.29599 -50.964835 
L 577.148699 -48.487084 
L 577.017432 -46.009333 
L 576.902233 -43.531582 
L 576.802678 -41.053831 
L 576.717954 -38.57608 
z
" id="m5b5933ffd3" style="stroke:#414141;stroke-width:2;"/>
    </defs>
    <g clip-path="url(#p86e7d86bd0)">
     <use style="fill:#8fa0e6;stroke:#414141;stroke-width:2;" x="0" xlink:href="#m5b5933ffd3" y="391.7373"/>
    </g>
   </g>
   <g id="PolyCollection_7">
    <defs>
     <path d="M 672.571746 -59.82602 
L 671.507511 -59.82602 
L 671.358662 -62.030511 
L 671.179786 -64.235002 
L 670.968323 -66.439492 
L 670.722465 -68.643983 
L 670.441412 -70.848474 
L 670.125614 -73.052965 
L 669.776952 -75.257456 
L 669.398846 -77.461946 
L 668.996257 -79.666437 
L 668.575556 -81.870928 
L 668.144263 -84.075419 
L 667.710652 -86.27991 
L 667.283231 -88.484401 
L 666.870138 -90.688891 
L 666.478491 -92.893382 
L 666.113739 -95.097873 
L 665.779074 -97.302364 
L 665.474967 -99.506855 
L 665.198846 -101.711346 
L 664.944981 -103.915836 
L 664.704569 -106.120327 
L 664.466031 -108.324818 
L 664.215484 -110.529309 
L 663.937373 -112.7338 
L 663.615206 -114.93829 
L 663.232347 -117.142781 
L 662.772823 -119.347272 
L 662.222108 -121.551763 
L 661.567847 -123.756254 
L 660.800515 -125.960745 
L 659.913997 -128.165235 
L 658.906083 -130.369726 
L 657.778879 -132.574217 
L 656.539139 -134.778708 
L 655.198485 -136.983199 
L 653.773507 -139.187689 
L 652.285715 -141.39218 
L 650.761284 -143.596671 
L 649.230592 -145.801162 
L 647.727485 -148.005653 
L 646.288298 -150.210144 
L 644.95062 -152.414634 
L 643.75185 -154.619125 
L 642.727625 -156.823616 
L 641.910198 -159.028107 
L 641.326887 -161.232598 
L 640.9987 -163.437088 
L 640.939246 -165.641579 
L 641.154026 -167.84607 
L 641.640146 -170.050561 
L 642.386488 -172.255052 
L 643.374311 -174.459543 
L 644.578233 -176.664033 
L 645.967506 -178.868524 
L 647.507489 -181.073015 
L 649.1612 -183.277506 
L 650.890848 -185.481997 
L 652.659255 -187.686488 
L 654.431086 -189.890978 
L 656.173856 -192.095469 
L 657.858685 -194.29996 
L 659.460807 -196.504451 
L 660.959853 -198.708942 
L 662.339944 -200.913432 
L 663.589625 -203.117923 
L 664.701689 -205.322414 
L 665.672919 -207.526905 
L 666.503776 -209.731396 
L 667.198055 -211.935887 
L 667.762515 -214.140377 
L 668.206493 -216.344868 
L 668.541496 -218.549359 
L 668.78077 -220.75385 
L 668.938839 -222.958341 
L 669.031025 -225.162831 
L 669.072939 -227.367322 
L 669.079962 -229.571813 
L 669.066737 -231.776304 
L 669.046677 -233.980795 
L 669.031537 -236.185286 
L 669.03105 -238.389776 
L 669.052681 -240.594267 
L 669.101481 -242.798758 
L 669.180085 -245.003249 
L 669.288833 -247.20774 
L 669.426006 -249.41223 
L 669.588172 -251.616721 
L 669.770595 -253.821212 
L 669.967682 -256.025703 
L 670.173441 -258.230194 
L 670.3819 -260.434685 
L 670.587478 -262.639175 
L 670.785273 -264.843666 
L 670.971263 -267.048157 
L 671.142418 -269.252648 
L 671.296723 -271.457139 
L 671.43313 -273.66163 
L 671.551451 -275.86612 
L 671.652215 -278.070611 
L 672.427042 -278.070611 
L 672.427042 -278.070611 
L 672.527806 -275.86612 
L 672.646127 -273.66163 
L 672.782534 -271.457139 
L 672.936839 -269.252648 
L 673.107994 -267.048157 
L 673.293984 -264.843666 
L 673.491779 -262.639175 
L 673.697357 -260.434685 
L 673.905816 -258.230194 
L 674.111575 -256.025703 
L 674.308663 -253.821212 
L 674.491085 -251.616721 
L 674.653252 -249.41223 
L 674.790425 -247.20774 
L 674.899172 -245.003249 
L 674.977776 -242.798758 
L 675.026576 -240.594267 
L 675.048207 -238.389776 
L 675.047721 -236.185286 
L 675.03258 -233.980795 
L 675.01252 -231.776304 
L 674.999295 -229.571813 
L 675.006318 -227.367322 
L 675.048232 -225.162831 
L 675.140418 -222.958341 
L 675.298487 -220.75385 
L 675.537761 -218.549359 
L 675.872764 -216.344868 
L 676.316742 -214.140377 
L 676.881202 -211.935887 
L 677.575481 -209.731396 
L 678.406338 -207.526905 
L 679.377568 -205.322414 
L 680.489632 -203.117923 
L 681.739313 -200.913432 
L 683.119404 -198.708942 
L 684.61845 -196.504451 
L 686.220572 -194.29996 
L 687.905401 -192.095469 
L 689.648171 -189.890978 
L 691.420002 -187.686488 
L 693.188409 -185.481997 
L 694.918057 -183.277506 
L 696.571768 -181.073015 
L 698.111751 -178.868524 
L 699.501024 -176.664033 
L 700.704946 -174.459543 
L 701.692769 -172.255052 
L 702.439111 -170.050561 
L 702.925231 -167.84607 
L 703.140011 -165.641579 
L 703.080557 -163.437088 
L 702.75237 -161.232598 
L 702.169059 -159.028107 
L 701.351633 -156.823616 
L 700.327407 -154.619125 
L 699.128637 -152.414634 
L 697.790959 -150.210144 
L 696.351772 -148.005653 
L 694.848665 -145.801162 
L 693.317973 -143.596671 
L 691.793542 -141.39218 
L 690.30575 -139.187689 
L 688.880773 -136.983199 
L 687.540118 -134.778708 
L 686.300378 -132.574217 
L 685.173174 -130.369726 
L 684.16526 -128.165235 
L 683.278742 -125.960745 
L 682.51141 -123.756254 
L 681.857149 -121.551763 
L 681.306434 -119.347272 
L 680.84691 -117.142781 
L 680.464051 -114.93829 
L 680.141884 -112.7338 
L 679.863773 -110.529309 
L 679.613226 -108.324818 
L 679.374688 -106.120327 
L 679.134277 -103.915836 
L 678.880411 -101.711346 
L 678.60429 -99.506855 
L 678.300183 -97.302364 
L 677.965519 -95.097873 
L 677.600766 -92.893382 
L 677.209119 -90.688891 
L 676.796026 -88.484401 
L 676.368605 -86.27991 
L 675.934994 -84.075419 
L 675.503701 -81.870928 
L 675.083 -79.666437 
L 674.680411 -77.461946 
L 674.302305 -75.257456 
L 673.953643 -73.052965 
L 673.637845 -70.848474 
L 673.356792 -68.643983 
L 673.110934 -66.439492 
L 672.899471 -64.235002 
L 672.720595 -62.030511 
L 672.571746 -59.82602 
z
" id="m86c0516945" style="stroke:#414141;stroke-width:2;"/>
    </defs>
    <g clip-path="url(#p86e7d86bd0)">
     <use style="fill:#e270db;stroke:#414141;stroke-width:2;" x="0" xlink:href="#m86c0516945" y="391.7373"/>
    </g>
   </g>
   <g id="line2d_1">
    <path clip-path="url(#p86e7d86bd0)" d="M 50.2682 218.386276 
L 719.8682 218.386276 
" style="fill:none;stroke:#404040;stroke-dasharray:5.55,2.4;stroke-dashoffset:0;stroke-width:1.5;"/>
   </g>
   <g id="line2d_2">
    <path clip-path="url(#p86e7d86bd0)" d="M 98.096771 258.445719 
L 98.096771 157.997757 
" style="fill:none;stroke:#414141;stroke-linecap:round;stroke-width:2;"/>
   </g>
   <g id="line2d_3">
    <path clip-path="url(#p86e7d86bd0)" d="M 98.096771 213.571776 
L 98.096771 182.49196 
" style="fill:none;stroke:#414141;stroke-linecap:round;stroke-width:6;"/>
   </g>
   <g id="line2d_4">
    <path clip-path="url(#p86e7d86bd0)" d="M 193.753914 267.626423 
L 193.753914 111.572708 
" style="fill:none;stroke:#414141;stroke-linecap:round;stroke-width:2;"/>
   </g>
   <g id="line2d_5">
    <path clip-path="url(#p86e7d86bd0)" d="M 193.753914 226.832643 
L 193.753914 168.515584 
" style="fill:none;stroke:#414141;stroke-linecap:round;stroke-width:6;"/>
   </g>
   <g id="line2d_6">
    <path clip-path="url(#p86e7d86bd0)" d="M 289.411057 248.134093 
L 289.411057 179.941334 
" style="fill:none;stroke:#414141;stroke-linecap:round;stroke-width:2;"/>
   </g>
   <g id="line2d_7">
    <path clip-path="url(#p86e7d86bd0)" d="M 289.411057 230.064533 
L 289.411057 190.260156 
" style="fill:none;stroke:#414141;stroke-linecap:round;stroke-width:6;"/>
   </g>
   <g id="line2d_8">
    <path clip-path="url(#p86e7d86bd0)" d="M 385.0682 245.894088 
L 385.0682 164.435919 
" style="fill:none;stroke:#414141;stroke-linecap:round;stroke-width:2;"/>
   </g>
   <g id="line2d_9">
    <path clip-path="url(#p86e7d86bd0)" d="M 385.0682 227.503225 
L 385.0682 198.923859 
" style="fill:none;stroke:#414141;stroke-linecap:round;stroke-width:6;"/>
   </g>
   <g id="line2d_10">
    <path clip-path="url(#p86e7d86bd0)" d="M 480.725343 257.10197 
L 480.725343 213.721263 
" style="fill:none;stroke:#414141;stroke-linecap:round;stroke-width:2;"/>
   </g>
   <g id="line2d_11">
    <path clip-path="url(#p86e7d86bd0)" d="M 480.725343 238.973634 
L 480.725343 222.679347 
" style="fill:none;stroke:#414141;stroke-linecap:round;stroke-width:6;"/>
   </g>
   <g id="line2d_12">
    <path clip-path="url(#p86e7d86bd0)" d="M 576.382486 274.14855 
L 576.382486 151.114296 
" style="fill:none;stroke:#414141;stroke-linecap:round;stroke-width:2;"/>
   </g>
   <g id="line2d_13">
    <path clip-path="url(#p86e7d86bd0)" d="M 576.382486 242.497318 
L 576.382486 205.829043 
" style="fill:none;stroke:#414141;stroke-linecap:round;stroke-width:6;"/>
   </g>
   <g id="line2d_14">
    <path clip-path="url(#p86e7d86bd0)" d="M 672.039629 260.676456 
L 672.039629 200.526138 
" style="fill:none;stroke:#414141;stroke-linecap:round;stroke-width:2;"/>
   </g>
   <g id="line2d_15">
    <path clip-path="url(#p86e7d86bd0)" d="M 672.039629 243.321456 
L 672.039629 220.882453 
" style="fill:none;stroke:#414141;stroke-linecap:round;stroke-width:6;"/>
   </g>
   <g id="patch_3">
    <path d="M 50.2682 367.986675 
L 50.2682 41.826675 
" style="fill:none;stroke:#262626;stroke-linecap:square;stroke-linejoin:miter;stroke-width:1.25;"/>
   </g>
   <g id="patch_4">
    <path d="M 719.8682 367.986675 
L 719.8682 41.826675 
" style="fill:none;stroke:#262626;stroke-linecap:square;stroke-linejoin:miter;stroke-width:1.25;"/>
   </g>
   <g id="patch_5">
    <path d="M 50.2682 367.986675 
L 719.8682 367.986675 
" style="fill:none;stroke:#262626;stroke-linecap:square;stroke-linejoin:miter;stroke-width:1.25;"/>
   </g>
   <g id="patch_6">
    <path d="M 50.2682 41.826675 
L 719.8682 41.826675 
" style="fill:none;stroke:#262626;stroke-linecap:square;stroke-linejoin:miter;stroke-width:1.25;"/>
   </g>
   <g id="PathCollection_1">
    <defs>
     <path d="M 0 2 
C 0.530406 2 1.03916 1.789267 1.414214 1.414214 
C 1.789267 1.03916 2 0.530406 2 0 
C 2 -0.530406 1.789267 -1.03916 1.414214 -1.414214 
C 1.03916 -1.789267 0.530406 -2 0 -2 
C -0.530406 -2 -1.03916 -1.789267 -1.414214 -1.414214 
C -1.789267 -1.03916 -2 -0.530406 -2 0 
C -2 0.530406 -1.789267 1.03916 -1.414214 1.414214 
C -1.03916 1.789267 -0.530406 2 0 2 
z
" id="m049bc0a9ce" style="stroke:#414141;"/>
    </defs>
    <g clip-path="url(#p86e7d86bd0)">
     <use style="fill:#ffffff;stroke:#414141;" x="98.096771" xlink:href="#m049bc0a9ce" y="206.540424"/>
    </g>
   </g>
   <g id="PathCollection_2">
    <g clip-path="url(#p86e7d86bd0)">
     <use style="fill:#ffffff;stroke:#414141;" x="193.753914" xlink:href="#m049bc0a9ce" y="190.572681"/>
    </g>
   </g>
   <g id="PathCollection_3">
    <g clip-path="url(#p86e7d86bd0)">
     <use style="fill:#ffffff;stroke:#414141;" x="289.411057" xlink:href="#m049bc0a9ce" y="199.744657"/>
    </g>
   </g>
   <g id="PathCollection_4">
    <g clip-path="url(#p86e7d86bd0)">
     <use style="fill:#ffffff;stroke:#414141;" x="385.0682" xlink:href="#m049bc0a9ce" y="221.637616"/>
    </g>
   </g>
   <g id="PathCollection_5">
    <g clip-path="url(#p86e7d86bd0)">
     <use style="fill:#ffffff;stroke:#414141;" x="480.725343" xlink:href="#m049bc0a9ce" y="226.896486"/>
    </g>
   </g>
   <g id="PathCollection_6">
    <g clip-path="url(#p86e7d86bd0)">
     <use style="fill:#ffffff;stroke:#414141;" x="576.382486" xlink:href="#m049bc0a9ce" y="216.330849"/>
    </g>
   </g>
   <g id="PathCollection_7">
    <g clip-path="url(#p86e7d86bd0)">
     <use style="fill:#ffffff;stroke:#414141;" x="672.039629" xlink:href="#m049bc0a9ce" y="228.132084"/>
    </g>
   </g>
   <g id="text_16">
    <!-- Accidents after the end of DST in California (20012017) -->
    <defs>
     <path d="M 38.671875 62.203125 
Q 32.8125 62.203125 28.296875 60.25 
Q 23.78125 58.296875 20.71875 54.6875 
Q 17.671875 51.078125 16.109375 46 
Q 14.546875 40.921875 14.546875 34.71875 
Q 14.546875 28.515625 16.234375 23.359375 
Q 17.921875 18.21875 21.0625 14.5 
Q 24.21875 10.796875 28.78125 8.734375 
Q 33.34375 6.6875 39.0625 6.6875 
Q 43.0625 6.6875 46.359375 7.734375 
Q 49.65625 8.796875 52.3125 10.6875 
Q 54.984375 12.59375 57.078125 15.203125 
Q 59.1875 17.828125 60.796875 21 
L 68.40625 17.1875 
Q 66.546875 13.328125 63.8125 10 
Q 61.078125 6.6875 57.390625 4.25 
Q 53.71875 1.8125 49.046875 0.40625 
Q 44.390625 -0.984375 38.625 -0.984375 
Q 30.28125 -0.984375 24 1.671875 
Q 17.71875 4.34375 13.5 9.109375 
Q 9.28125 13.875 7.171875 20.40625 
Q 5.078125 26.953125 5.078125 34.71875 
Q 5.078125 42.78125 7.296875 49.265625 
Q 9.515625 55.765625 13.78125 60.328125 
Q 18.0625 64.890625 24.3125 67.359375 
Q 30.5625 69.828125 38.578125 69.828125 
Q 49.5625 69.828125 56.9375 65.53125 
Q 64.3125 61.234375 67.78125 52.78125 
L 58.9375 49.859375 
Q 57.953125 52.296875 56.296875 54.515625 
Q 54.640625 56.734375 52.140625 58.4375 
Q 49.65625 60.15625 46.3125 61.171875 
Q 42.96875 62.203125 38.671875 62.203125 
z
" id="LiberationSans-43"/>
     <path d="M 6.734375 0 
L 6.734375 72.46875 
L 15.53125 72.46875 
L 15.53125 0 
z
" id="LiberationSans-6c"/>
     <path d="M 0 22.015625 
L 0 28.71875 
L 55.5625 28.71875 
L 55.5625 22.015625 
z
" id="LiberationSans-2013"/>
     <path d="M 50.59375 61.671875 
Q 45.40625 53.765625 41.0625 46.453125 
Q 36.71875 39.15625 33.59375 31.75 
Q 30.46875 24.359375 28.734375 16.578125 
Q 27 8.796875 27 0 
L 17.828125 0 
Q 17.828125 8.25 19.78125 16.1875 
Q 21.734375 24.125 25.046875 31.765625 
Q 28.375 39.40625 32.765625 46.78125 
Q 37.15625 54.15625 42.09375 61.328125 
L 5.125 61.328125 
L 5.125 68.796875 
L 50.59375 68.796875 
z
" id="LiberationSans-37"/>
    </defs>
    <g style="fill:#262626;" transform="translate(58.461481 26.041875)scale(0.26 -0.26)">
     <use xlink:href="#LiberationSans-41"/>
     <use x="66.699219" xlink:href="#LiberationSans-63"/>
     <use x="116.699219" xlink:href="#LiberationSans-63"/>
     <use x="166.699219" xlink:href="#LiberationSans-69"/>
     <use x="188.916016" xlink:href="#LiberationSans-64"/>
     <use x="244.53125" xlink:href="#LiberationSans-65"/>
     <use x="300.146484" xlink:href="#LiberationSans-6e"/>
     <use x="355.761719" xlink:href="#LiberationSans-74"/>
     <use x="383.544922" xlink:href="#LiberationSans-73"/>
     <use x="433.544922" xlink:href="#LiberationSans-20"/>
     <use x="461.328125" xlink:href="#LiberationSans-61"/>
     <use x="516.943359" xlink:href="#LiberationSans-66"/>
     <use x="544.726562" xlink:href="#LiberationSans-74"/>
     <use x="572.509766" xlink:href="#LiberationSans-65"/>
     <use x="628.125" xlink:href="#LiberationSans-72"/>
     <use x="661.425781" xlink:href="#LiberationSans-20"/>
     <use x="689.208984" xlink:href="#LiberationSans-74"/>
     <use x="716.992188" xlink:href="#LiberationSans-68"/>
     <use x="772.607422" xlink:href="#LiberationSans-65"/>
     <use x="828.222656" xlink:href="#LiberationSans-20"/>
     <use x="856.005859" xlink:href="#LiberationSans-65"/>
     <use x="911.621094" xlink:href="#LiberationSans-6e"/>
     <use x="967.236328" xlink:href="#LiberationSans-64"/>
     <use x="1022.851562" xlink:href="#LiberationSans-20"/>
     <use x="1050.634766" xlink:href="#LiberationSans-6f"/>
     <use x="1106.25" xlink:href="#LiberationSans-66"/>
     <use x="1134.033203" xlink:href="#LiberationSans-20"/>
     <use x="1161.816406" xlink:href="#LiberationSans-44"/>
     <use x="1234.033203" xlink:href="#LiberationSans-53"/>
     <use x="1300.732422" xlink:href="#LiberationSans-54"/>
     <use x="1361.800781" xlink:href="#LiberationSans-20"/>
     <use x="1389.583984" xlink:href="#LiberationSans-69"/>
     <use x="1411.800781" xlink:href="#LiberationSans-6e"/>
     <use x="1467.416016" xlink:href="#LiberationSans-20"/>
     <use x="1495.199219" xlink:href="#LiberationSans-43"/>
     <use x="1567.416016" xlink:href="#LiberationSans-61"/>
     <use x="1623.03125" xlink:href="#LiberationSans-6c"/>
     <use x="1645.248047" xlink:href="#LiberationSans-69"/>
     <use x="1667.464844" xlink:href="#LiberationSans-66"/>
     <use x="1695.248047" xlink:href="#LiberationSans-6f"/>
     <use x="1750.863281" xlink:href="#LiberationSans-72"/>
     <use x="1784.164062" xlink:href="#LiberationSans-6e"/>
     <use x="1839.779297" xlink:href="#LiberationSans-69"/>
     <use x="1861.996094" xlink:href="#LiberationSans-61"/>
     <use x="1917.611328" xlink:href="#LiberationSans-20"/>
     <use x="1945.394531" xlink:href="#LiberationSans-28"/>
     <use x="1978.695312" xlink:href="#LiberationSans-32"/>
     <use x="2034.310547" xlink:href="#LiberationSans-30"/>
     <use x="2089.925781" xlink:href="#LiberationSans-30"/>
     <use x="2145.541016" xlink:href="#LiberationSans-31"/>
     <use x="2201.15625" xlink:href="#LiberationSans-2013"/>
     <use x="2256.771484" xlink:href="#LiberationSans-32"/>
     <use x="2312.386719" xlink:href="#LiberationSans-30"/>
     <use x="2368.001953" xlink:href="#LiberationSans-31"/>
     <use x="2423.617188" xlink:href="#LiberationSans-37"/>
     <use x="2479.232422" xlink:href="#LiberationSans-29"/>
    </g>
   </g>
  </g>
 </g>
 <defs>
  <clipPath id="p86e7d86bd0">
   <rect height="326.16" width="669.6" x="50.2682" y="41.826675"/>
  </clipPath>
 </defs>
</svg>
