<?xml version="1.0" encoding="utf-8" standalone="no"?>
<!DOCTYPE svg PUBLIC "-//W3C//DTD SVG 1.1//EN"
  "http://www.w3.org/Graphics/SVG/1.1/DTD/svg11.dtd">
<!-- Created with matplotlib (https://matplotlib.org/) -->
<svg height="391.910113pt" version="1.1" viewBox="0 0 726.7631 391.910113" width="726.7631pt" xmlns="http://www.w3.org/2000/svg" xmlns:xlink="http://www.w3.org/1999/xlink">
 <defs>
  <style type="text/css">
*{stroke-linecap:butt;stroke-linejoin:round;}
  </style>
 </defs>
 <g id="figure_1">
  <g id="patch_1">
   <path d="M 0 391.910113 
L 726.7631 391.910113 
L 726.7631 0 
L 0 0 
z
" style="fill:#ffffff;"/>
  </g>
  <g id="axes_1">
   <g id="patch_2">
    <path d="M 49.9631 368.071988 
L 719.5631 368.071988 
L 719.5631 41.911988 
L 49.9631 41.911988 
z
" style="fill:#ffffff;"/>
   </g>
   <g id="matplotlib.axis_1">
    <g id="xtick_1">
     <g id="text_1">
      <!-- Sunday (DST) -->
      <defs>
       <path d="M 4.5 23 
L 13.421875 23.78125 
Q 14.0625 18.40625 16.375 14.96875 
Q 18.703125 11.53125 23.578125 9.40625 
Q 28.46875 7.28125 34.578125 7.28125 
Q 39.984375 7.28125 44.140625 8.890625 
Q 48.296875 10.5 50.3125 13.296875 
Q 52.34375 16.109375 52.34375 19.4375 
Q 52.34375 22.796875 50.390625 25.3125 
Q 48.4375 27.828125 43.953125 29.546875 
Q 41.0625 30.671875 31.203125 33.03125 
Q 21.34375 35.40625 17.390625 37.5 
Q 12.25 40.1875 9.734375 44.15625 
Q 7.234375 48.140625 7.234375 53.078125 
Q 7.234375 58.5 10.296875 63.203125 
Q 13.375 67.921875 19.28125 70.359375 
Q 25.203125 72.796875 32.421875 72.796875 
Q 40.375 72.796875 46.453125 70.234375 
Q 52.546875 67.671875 55.8125 62.6875 
Q 59.078125 57.71875 59.328125 51.421875 
L 50.25 50.734375 
Q 49.515625 57.515625 45.28125 60.984375 
Q 41.0625 64.453125 32.8125 64.453125 
Q 24.21875 64.453125 20.28125 61.296875 
Q 16.359375 58.15625 16.359375 53.71875 
Q 16.359375 49.859375 19.140625 47.359375 
Q 21.875 44.875 33.421875 42.265625 
Q 44.96875 39.65625 49.265625 37.703125 
Q 55.515625 34.8125 58.484375 30.390625 
Q 61.46875 25.984375 61.46875 20.21875 
Q 61.46875 14.5 58.203125 9.4375 
Q 54.9375 4.390625 48.796875 1.578125 
Q 42.671875 -1.21875 35.015625 -1.21875 
Q 25.296875 -1.21875 18.71875 1.609375 
Q 12.15625 4.4375 8.421875 10.125 
Q 4.6875 15.828125 4.5 23 
z
" id="ArialMT-83"/>
       <path d="M 40.578125 0 
L 40.578125 7.625 
Q 34.515625 -1.171875 24.125 -1.171875 
Q 19.53125 -1.171875 15.546875 0.578125 
Q 11.578125 2.34375 9.640625 5 
Q 7.71875 7.671875 6.9375 11.53125 
Q 6.390625 14.109375 6.390625 19.734375 
L 6.390625 51.859375 
L 15.1875 51.859375 
L 15.1875 23.09375 
Q 15.1875 16.21875 15.71875 13.8125 
Q 16.546875 10.359375 19.234375 8.375 
Q 21.921875 6.390625 25.875 6.390625 
Q 29.828125 6.390625 33.296875 8.421875 
Q 36.765625 10.453125 38.203125 13.9375 
Q 39.65625 17.4375 39.65625 24.078125 
L 39.65625 51.859375 
L 48.4375 51.859375 
L 48.4375 0 
z
" id="ArialMT-117"/>
       <path d="M 6.59375 0 
L 6.59375 51.859375 
L 14.5 51.859375 
L 14.5 44.484375 
Q 20.21875 53.03125 31 53.03125 
Q 35.6875 53.03125 39.625 51.34375 
Q 43.5625 49.65625 45.515625 46.921875 
Q 47.46875 44.1875 48.25 40.4375 
Q 48.734375 37.984375 48.734375 31.890625 
L 48.734375 0 
L 39.9375 0 
L 39.9375 31.546875 
Q 39.9375 36.921875 38.90625 39.578125 
Q 37.890625 42.234375 35.28125 43.8125 
Q 32.671875 45.40625 29.15625 45.40625 
Q 23.53125 45.40625 19.453125 41.84375 
Q 15.375 38.28125 15.375 28.328125 
L 15.375 0 
z
" id="ArialMT-110"/>
       <path d="M 40.234375 0 
L 40.234375 6.546875 
Q 35.296875 -1.171875 25.734375 -1.171875 
Q 19.53125 -1.171875 14.328125 2.25 
Q 9.125 5.671875 6.265625 11.796875 
Q 3.421875 17.921875 3.421875 25.875 
Q 3.421875 33.640625 6 39.96875 
Q 8.59375 46.296875 13.765625 49.65625 
Q 18.953125 53.03125 25.34375 53.03125 
Q 30.03125 53.03125 33.6875 51.046875 
Q 37.359375 49.078125 39.65625 45.90625 
L 39.65625 71.578125 
L 48.390625 71.578125 
L 48.390625 0 
z
M 12.453125 25.875 
Q 12.453125 15.921875 16.640625 10.984375 
Q 20.84375 6.0625 26.5625 6.0625 
Q 32.328125 6.0625 36.34375 10.765625 
Q 40.375 15.484375 40.375 25.140625 
Q 40.375 35.796875 36.265625 40.765625 
Q 32.171875 45.75 26.171875 45.75 
Q 20.3125 45.75 16.375 40.96875 
Q 12.453125 36.1875 12.453125 25.875 
z
" id="ArialMT-100"/>
       <path d="M 40.4375 6.390625 
Q 35.546875 2.25 31.03125 0.53125 
Q 26.515625 -1.171875 21.34375 -1.171875 
Q 12.796875 -1.171875 8.203125 3 
Q 3.609375 7.171875 3.609375 13.671875 
Q 3.609375 17.484375 5.34375 20.625 
Q 7.078125 23.78125 9.890625 25.6875 
Q 12.703125 27.59375 16.21875 28.5625 
Q 18.796875 29.25 24.03125 29.890625 
Q 34.671875 31.15625 39.703125 32.90625 
Q 39.75 34.71875 39.75 35.203125 
Q 39.75 40.578125 37.25 42.78125 
Q 33.890625 45.75 27.25 45.75 
Q 21.046875 45.75 18.09375 43.578125 
Q 15.140625 41.40625 13.71875 35.890625 
L 5.125 37.0625 
Q 6.296875 42.578125 8.984375 45.96875 
Q 11.671875 49.359375 16.75 51.1875 
Q 21.828125 53.03125 28.515625 53.03125 
Q 35.15625 53.03125 39.296875 51.46875 
Q 43.453125 49.90625 45.40625 47.53125 
Q 47.359375 45.171875 48.140625 41.546875 
Q 48.578125 39.3125 48.578125 33.453125 
L 48.578125 21.734375 
Q 48.578125 9.46875 49.140625 6.21875 
Q 49.703125 2.984375 51.375 0 
L 42.1875 0 
Q 40.828125 2.734375 40.4375 6.390625 
z
M 39.703125 26.03125 
Q 34.90625 24.078125 25.34375 22.703125 
Q 19.921875 21.921875 17.671875 20.9375 
Q 15.4375 19.96875 14.203125 18.09375 
Q 12.984375 16.21875 12.984375 13.921875 
Q 12.984375 10.40625 15.640625 8.0625 
Q 18.3125 5.71875 23.4375 5.71875 
Q 28.515625 5.71875 32.46875 7.9375 
Q 36.421875 10.15625 38.28125 14.015625 
Q 39.703125 17 39.703125 22.796875 
z
" id="ArialMT-97"/>
       <path d="M 6.203125 -19.96875 
L 5.21875 -11.71875 
Q 8.109375 -12.5 10.25 -12.5 
Q 13.1875 -12.5 14.9375 -11.515625 
Q 16.703125 -10.546875 17.828125 -8.796875 
Q 18.65625 -7.46875 20.515625 -2.25 
Q 20.75 -1.515625 21.296875 -0.09375 
L 1.609375 51.859375 
L 11.078125 51.859375 
L 21.875 21.828125 
Q 23.96875 16.109375 25.640625 9.8125 
Q 27.15625 15.875 29.25 21.625 
L 40.328125 51.859375 
L 49.125 51.859375 
L 29.390625 -0.875 
Q 26.21875 -9.421875 24.46875 -12.640625 
Q 22.125 -17 19.09375 -19.015625 
Q 16.0625 -21.046875 11.859375 -21.046875 
Q 9.328125 -21.046875 6.203125 -19.96875 
z
" id="ArialMT-121"/>
       <path id="ArialMT-32"/>
       <path d="M 23.390625 -21.046875 
Q 16.109375 -11.859375 11.078125 0.4375 
Q 6.0625 12.75 6.0625 25.921875 
Q 6.0625 37.546875 9.8125 48.1875 
Q 14.203125 60.546875 23.390625 72.796875 
L 29.6875 72.796875 
Q 23.78125 62.640625 21.875 58.296875 
Q 18.890625 51.5625 17.1875 44.234375 
Q 15.09375 35.109375 15.09375 25.875 
Q 15.09375 2.390625 29.6875 -21.046875 
z
" id="ArialMT-40"/>
       <path d="M 7.71875 0 
L 7.71875 71.578125 
L 32.375 71.578125 
Q 40.71875 71.578125 45.125 70.5625 
Q 51.265625 69.140625 55.609375 65.4375 
Q 61.28125 60.640625 64.078125 53.1875 
Q 66.890625 45.75 66.890625 36.1875 
Q 66.890625 28.03125 64.984375 21.734375 
Q 63.09375 15.4375 60.109375 11.296875 
Q 57.125 7.171875 53.578125 4.796875 
Q 50.046875 2.4375 45.046875 1.21875 
Q 40.046875 0 33.546875 0 
z
M 17.1875 8.453125 
L 32.46875 8.453125 
Q 39.546875 8.453125 43.578125 9.765625 
Q 47.609375 11.078125 50 13.484375 
Q 53.375 16.84375 55.25 22.53125 
Q 57.125 28.21875 57.125 36.328125 
Q 57.125 47.5625 53.4375 53.59375 
Q 49.75 59.625 44.484375 61.671875 
Q 40.671875 63.140625 32.234375 63.140625 
L 17.1875 63.140625 
z
" id="ArialMT-68"/>
       <path d="M 25.921875 0 
L 25.921875 63.140625 
L 2.34375 63.140625 
L 2.34375 71.578125 
L 59.078125 71.578125 
L 59.078125 63.140625 
L 35.40625 63.140625 
L 35.40625 0 
z
" id="ArialMT-84"/>
       <path d="M 12.359375 -21.046875 
L 6.0625 -21.046875 
Q 20.65625 2.390625 20.65625 25.875 
Q 20.65625 35.0625 18.5625 44.09375 
Q 16.890625 51.421875 13.921875 58.15625 
Q 12.015625 62.546875 6.0625 72.796875 
L 12.359375 72.796875 
Q 21.53125 60.546875 25.921875 48.1875 
Q 29.6875 37.546875 29.6875 25.921875 
Q 29.6875 12.75 24.625 0.4375 
Q 19.578125 -11.859375 12.359375 -21.046875 
z
" id="ArialMT-41"/>
      </defs>
      <g style="fill:#262626;" transform="translate(53.445578 381.76355)scale(0.14 -0.14)">
       <use xlink:href="#ArialMT-83"/>
       <use x="66.699219" xlink:href="#ArialMT-117"/>
       <use x="122.314453" xlink:href="#ArialMT-110"/>
       <use x="177.929688" xlink:href="#ArialMT-100"/>
       <use x="233.544922" xlink:href="#ArialMT-97"/>
       <use x="289.160156" xlink:href="#ArialMT-121"/>
       <use x="339.160156" xlink:href="#ArialMT-32"/>
       <use x="366.943359" xlink:href="#ArialMT-40"/>
       <use x="400.244141" xlink:href="#ArialMT-68"/>
       <use x="472.460938" xlink:href="#ArialMT-83"/>
       <use x="539.160156" xlink:href="#ArialMT-84"/>
       <use x="600.244141" xlink:href="#ArialMT-41"/>
      </g>
     </g>
    </g>
    <g id="xtick_2">
     <g id="text_2">
      <!-- Monday -->
      <defs>
       <path d="M 7.421875 0 
L 7.421875 71.578125 
L 21.6875 71.578125 
L 38.625 20.90625 
Q 40.96875 13.8125 42.046875 10.296875 
Q 43.265625 14.203125 45.84375 21.78125 
L 62.984375 71.578125 
L 75.734375 71.578125 
L 75.734375 0 
L 66.609375 0 
L 66.609375 59.90625 
L 45.796875 0 
L 37.25 0 
L 16.546875 60.9375 
L 16.546875 0 
z
" id="ArialMT-77"/>
       <path d="M 3.328125 25.921875 
Q 3.328125 40.328125 11.328125 47.265625 
Q 18.015625 53.03125 27.640625 53.03125 
Q 38.328125 53.03125 45.109375 46.015625 
Q 51.90625 39.015625 51.90625 26.65625 
Q 51.90625 16.65625 48.90625 10.90625 
Q 45.90625 5.171875 40.15625 2 
Q 34.421875 -1.171875 27.640625 -1.171875 
Q 16.75 -1.171875 10.03125 5.8125 
Q 3.328125 12.796875 3.328125 25.921875 
z
M 12.359375 25.921875 
Q 12.359375 15.96875 16.703125 11.015625 
Q 21.046875 6.0625 27.640625 6.0625 
Q 34.1875 6.0625 38.53125 11.03125 
Q 42.875 16.015625 42.875 26.21875 
Q 42.875 35.84375 38.5 40.796875 
Q 34.125 45.75 27.640625 45.75 
Q 21.046875 45.75 16.703125 40.8125 
Q 12.359375 35.890625 12.359375 25.921875 
z
" id="ArialMT-111"/>
      </defs>
      <g style="fill:#262626;" transform="translate(168.547408 381.592925)scale(0.14 -0.14)">
       <use xlink:href="#ArialMT-77"/>
       <use x="83.300781" xlink:href="#ArialMT-111"/>
       <use x="138.916016" xlink:href="#ArialMT-110"/>
       <use x="194.53125" xlink:href="#ArialMT-100"/>
       <use x="250.146484" xlink:href="#ArialMT-97"/>
       <use x="305.761719" xlink:href="#ArialMT-121"/>
      </g>
     </g>
    </g>
    <g id="xtick_3">
     <g id="text_3">
      <!-- Tuesday -->
      <defs>
       <path d="M 42.09375 16.703125 
L 51.171875 15.578125 
Q 49.03125 7.625 43.21875 3.21875 
Q 37.40625 -1.171875 28.375 -1.171875 
Q 17 -1.171875 10.328125 5.828125 
Q 3.65625 12.84375 3.65625 25.484375 
Q 3.65625 38.578125 10.390625 45.796875 
Q 17.140625 53.03125 27.875 53.03125 
Q 38.28125 53.03125 44.875 45.953125 
Q 51.46875 38.875 51.46875 26.03125 
Q 51.46875 25.25 51.421875 23.6875 
L 12.75 23.6875 
Q 13.234375 15.140625 17.578125 10.59375 
Q 21.921875 6.0625 28.421875 6.0625 
Q 33.25 6.0625 36.671875 8.59375 
Q 40.09375 11.140625 42.09375 16.703125 
z
M 13.234375 30.90625 
L 42.1875 30.90625 
Q 41.609375 37.453125 38.875 40.71875 
Q 34.671875 45.796875 27.984375 45.796875 
Q 21.921875 45.796875 17.796875 41.75 
Q 13.671875 37.703125 13.234375 30.90625 
z
" id="ArialMT-101"/>
       <path d="M 3.078125 15.484375 
L 11.765625 16.84375 
Q 12.5 11.625 15.84375 8.84375 
Q 19.1875 6.0625 25.203125 6.0625 
Q 31.25 6.0625 34.171875 8.515625 
Q 37.109375 10.984375 37.109375 14.3125 
Q 37.109375 17.28125 34.515625 19 
Q 32.71875 20.171875 25.53125 21.96875 
Q 15.875 24.421875 12.140625 26.203125 
Q 8.40625 27.984375 6.46875 31.125 
Q 4.546875 34.28125 4.546875 38.09375 
Q 4.546875 41.546875 6.125 44.5 
Q 7.71875 47.46875 10.453125 49.421875 
Q 12.5 50.921875 16.03125 51.96875 
Q 19.578125 53.03125 23.640625 53.03125 
Q 29.734375 53.03125 34.34375 51.265625 
Q 38.96875 49.515625 41.15625 46.5 
Q 43.359375 43.5 44.1875 38.484375 
L 35.59375 37.3125 
Q 35.015625 41.3125 32.203125 43.546875 
Q 29.390625 45.796875 24.265625 45.796875 
Q 18.21875 45.796875 15.625 43.796875 
Q 13.03125 41.796875 13.03125 39.109375 
Q 13.03125 37.40625 14.109375 36.03125 
Q 15.1875 34.625 17.484375 33.6875 
Q 18.796875 33.203125 25.25 31.453125 
Q 34.578125 28.953125 38.25 27.359375 
Q 41.9375 25.78125 44.03125 22.75 
Q 46.140625 19.734375 46.140625 15.234375 
Q 46.140625 10.84375 43.578125 6.953125 
Q 41.015625 3.078125 36.171875 0.953125 
Q 31.34375 -1.171875 25.25 -1.171875 
Q 15.140625 -1.171875 9.84375 3.03125 
Q 4.546875 7.234375 3.078125 15.484375 
z
" id="ArialMT-115"/>
      </defs>
      <g style="fill:#262626;" transform="translate(262.522363 381.592925)scale(0.14 -0.14)">
       <use xlink:href="#ArialMT-84"/>
       <use x="57.333984" xlink:href="#ArialMT-117"/>
       <use x="112.949219" xlink:href="#ArialMT-101"/>
       <use x="168.564453" xlink:href="#ArialMT-115"/>
       <use x="218.564453" xlink:href="#ArialMT-100"/>
       <use x="274.179688" xlink:href="#ArialMT-97"/>
       <use x="329.794922" xlink:href="#ArialMT-121"/>
      </g>
     </g>
    </g>
    <g id="xtick_4">
     <g id="text_4">
      <!-- Wednesday -->
      <defs>
       <path d="M 20.21875 0 
L 1.21875 71.578125 
L 10.9375 71.578125 
L 21.828125 24.65625 
Q 23.578125 17.28125 24.859375 10.015625 
Q 27.59375 21.484375 28.078125 23.25 
L 41.703125 71.578125 
L 53.125 71.578125 
L 63.375 35.359375 
Q 67.234375 21.875 68.953125 10.015625 
Q 70.3125 16.796875 72.515625 25.59375 
L 83.734375 71.578125 
L 93.265625 71.578125 
L 73.640625 0 
L 64.5 0 
L 49.421875 54.546875 
Q 47.515625 61.375 47.171875 62.9375 
Q 46.046875 58.015625 45.0625 54.546875 
L 29.890625 0 
z
" id="ArialMT-87"/>
      </defs>
      <g style="fill:#262626;" transform="translate(347.922319 381.592925)scale(0.14 -0.14)">
       <use xlink:href="#ArialMT-87"/>
       <use x="92.634766" xlink:href="#ArialMT-101"/>
       <use x="148.25" xlink:href="#ArialMT-100"/>
       <use x="203.865234" xlink:href="#ArialMT-110"/>
       <use x="259.480469" xlink:href="#ArialMT-101"/>
       <use x="315.095703" xlink:href="#ArialMT-115"/>
       <use x="365.095703" xlink:href="#ArialMT-100"/>
       <use x="420.710938" xlink:href="#ArialMT-97"/>
       <use x="476.326172" xlink:href="#ArialMT-121"/>
      </g>
     </g>
    </g>
    <g id="xtick_5">
     <g id="text_5">
      <!-- Thursday -->
      <defs>
       <path d="M 6.59375 0 
L 6.59375 71.578125 
L 15.375 71.578125 
L 15.375 45.90625 
Q 21.53125 53.03125 30.90625 53.03125 
Q 36.671875 53.03125 40.921875 50.75 
Q 45.171875 48.484375 47 44.484375 
Q 48.828125 40.484375 48.828125 32.859375 
L 48.828125 0 
L 40.046875 0 
L 40.046875 32.859375 
Q 40.046875 39.453125 37.1875 42.453125 
Q 34.328125 45.453125 29.109375 45.453125 
Q 25.203125 45.453125 21.75 43.421875 
Q 18.3125 41.40625 16.84375 37.9375 
Q 15.375 34.46875 15.375 28.375 
L 15.375 0 
z
" id="ArialMT-104"/>
       <path d="M 6.5 0 
L 6.5 51.859375 
L 14.40625 51.859375 
L 14.40625 44 
Q 17.4375 49.515625 20 51.265625 
Q 22.5625 53.03125 25.640625 53.03125 
Q 30.078125 53.03125 34.671875 50.203125 
L 31.640625 42.046875 
Q 28.421875 43.953125 25.203125 43.953125 
Q 22.3125 43.953125 20.015625 42.21875 
Q 17.71875 40.484375 16.75 37.40625 
Q 15.28125 32.71875 15.28125 27.15625 
L 15.28125 0 
z
" id="ArialMT-114"/>
      </defs>
      <g style="fill:#262626;" transform="translate(451.243368 381.592925)scale(0.14 -0.14)">
       <use xlink:href="#ArialMT-84"/>
       <use x="61.083984" xlink:href="#ArialMT-104"/>
       <use x="116.699219" xlink:href="#ArialMT-117"/>
       <use x="172.314453" xlink:href="#ArialMT-114"/>
       <use x="205.615234" xlink:href="#ArialMT-115"/>
       <use x="255.615234" xlink:href="#ArialMT-100"/>
       <use x="311.230469" xlink:href="#ArialMT-97"/>
       <use x="366.845703" xlink:href="#ArialMT-121"/>
      </g>
     </g>
    </g>
    <g id="xtick_6">
     <g id="text_6">
      <!-- Friday -->
      <defs>
       <path d="M 8.203125 0 
L 8.203125 71.578125 
L 56.5 71.578125 
L 56.5 63.140625 
L 17.671875 63.140625 
L 17.671875 40.96875 
L 51.265625 40.96875 
L 51.265625 32.515625 
L 17.671875 32.515625 
L 17.671875 0 
z
" id="ArialMT-70"/>
       <path d="M 6.640625 61.46875 
L 6.640625 71.578125 
L 15.4375 71.578125 
L 15.4375 61.46875 
z
M 6.640625 0 
L 6.640625 51.859375 
L 15.4375 51.859375 
L 15.4375 0 
z
" id="ArialMT-105"/>
      </defs>
      <g style="fill:#262626;" transform="translate(556.630511 381.592925)scale(0.14 -0.14)">
       <use xlink:href="#ArialMT-70"/>
       <use x="61.083984" xlink:href="#ArialMT-114"/>
       <use x="94.384766" xlink:href="#ArialMT-105"/>
       <use x="116.601562" xlink:href="#ArialMT-100"/>
       <use x="172.216797" xlink:href="#ArialMT-97"/>
       <use x="227.832031" xlink:href="#ArialMT-121"/>
      </g>
     </g>
    </g>
    <g id="xtick_7">
     <g id="text_7">
      <!-- Saturday -->
      <defs>
       <path d="M 25.78125 7.859375 
L 27.046875 0.09375 
Q 23.34375 -0.6875 20.40625 -0.6875 
Q 15.625 -0.6875 12.984375 0.828125 
Q 10.359375 2.34375 9.28125 4.8125 
Q 8.203125 7.28125 8.203125 15.1875 
L 8.203125 45.015625 
L 1.765625 45.015625 
L 1.765625 51.859375 
L 8.203125 51.859375 
L 8.203125 64.703125 
L 16.9375 69.96875 
L 16.9375 51.859375 
L 25.78125 51.859375 
L 25.78125 45.015625 
L 16.9375 45.015625 
L 16.9375 14.703125 
Q 16.9375 10.9375 17.40625 9.859375 
Q 17.875 8.796875 18.921875 8.15625 
Q 19.96875 7.515625 21.921875 7.515625 
Q 23.390625 7.515625 25.78125 7.859375 
z
" id="ArialMT-116"/>
      </defs>
      <g style="fill:#262626;" transform="translate(643.719216 381.76355)scale(0.14 -0.14)">
       <use xlink:href="#ArialMT-83"/>
       <use x="66.699219" xlink:href="#ArialMT-97"/>
       <use x="122.314453" xlink:href="#ArialMT-116"/>
       <use x="150.097656" xlink:href="#ArialMT-117"/>
       <use x="205.712891" xlink:href="#ArialMT-114"/>
       <use x="239.013672" xlink:href="#ArialMT-100"/>
       <use x="294.628906" xlink:href="#ArialMT-97"/>
       <use x="350.244141" xlink:href="#ArialMT-121"/>
      </g>
     </g>
    </g>
   </g>
   <g id="matplotlib.axis_2">
    <g id="ytick_1">
     <g id="text_8">
      <!-- 0.6 -->
      <defs>
       <path d="M 4.15625 35.296875 
Q 4.15625 48 6.765625 55.734375 
Q 9.375 63.484375 14.515625 67.671875 
Q 19.671875 71.875 27.484375 71.875 
Q 33.25 71.875 37.59375 69.546875 
Q 41.9375 67.234375 44.765625 62.859375 
Q 47.609375 58.5 49.21875 52.21875 
Q 50.828125 45.953125 50.828125 35.296875 
Q 50.828125 22.703125 48.234375 14.96875 
Q 45.65625 7.234375 40.5 3 
Q 35.359375 -1.21875 27.484375 -1.21875 
Q 17.140625 -1.21875 11.234375 6.203125 
Q 4.15625 15.140625 4.15625 35.296875 
z
M 13.1875 35.296875 
Q 13.1875 17.671875 17.3125 11.828125 
Q 21.4375 6 27.484375 6 
Q 33.546875 6 37.671875 11.859375 
Q 41.796875 17.71875 41.796875 35.296875 
Q 41.796875 52.984375 37.671875 58.78125 
Q 33.546875 64.59375 27.390625 64.59375 
Q 21.34375 64.59375 17.71875 59.46875 
Q 13.1875 52.9375 13.1875 35.296875 
z
" id="ArialMT-48"/>
       <path d="M 9.078125 0 
L 9.078125 10.015625 
L 19.09375 10.015625 
L 19.09375 0 
z
" id="ArialMT-46"/>
       <path d="M 49.75 54.046875 
L 41.015625 53.375 
Q 39.84375 58.546875 37.703125 60.890625 
Q 34.125 64.65625 28.90625 64.65625 
Q 24.703125 64.65625 21.53125 62.3125 
Q 17.390625 59.28125 14.984375 53.46875 
Q 12.59375 47.65625 12.5 36.921875 
Q 15.671875 41.75 20.265625 44.09375 
Q 24.859375 46.4375 29.890625 46.4375 
Q 38.671875 46.4375 44.84375 39.96875 
Q 51.03125 33.5 51.03125 23.25 
Q 51.03125 16.5 48.125 10.71875 
Q 45.21875 4.9375 40.140625 1.859375 
Q 35.0625 -1.21875 28.609375 -1.21875 
Q 17.625 -1.21875 10.6875 6.859375 
Q 3.765625 14.9375 3.765625 33.5 
Q 3.765625 54.25 11.421875 63.671875 
Q 18.109375 71.875 29.4375 71.875 
Q 37.890625 71.875 43.28125 67.140625 
Q 48.6875 62.40625 49.75 54.046875 
z
M 13.875 23.1875 
Q 13.875 18.65625 15.796875 14.5 
Q 17.71875 10.359375 21.1875 8.171875 
Q 24.65625 6 28.46875 6 
Q 34.03125 6 38.03125 10.484375 
Q 42.046875 14.984375 42.046875 22.703125 
Q 42.046875 30.125 38.078125 34.390625 
Q 34.125 38.671875 28.125 38.671875 
Q 22.171875 38.671875 18.015625 34.390625 
Q 13.875 30.125 13.875 23.1875 
z
" id="ArialMT-54"/>
      </defs>
      <g style="fill:#262626;" transform="translate(27.0031 358.901587)scale(0.14 -0.14)">
       <use xlink:href="#ArialMT-48"/>
       <use x="55.615234" xlink:href="#ArialMT-46"/>
       <use x="83.398438" xlink:href="#ArialMT-54"/>
      </g>
     </g>
    </g>
    <g id="ytick_2">
     <g id="text_9">
      <!-- 0.8 -->
      <defs>
       <path d="M 17.671875 38.8125 
Q 12.203125 40.828125 9.5625 44.53125 
Q 6.9375 48.25 6.9375 53.421875 
Q 6.9375 61.234375 12.546875 66.546875 
Q 18.171875 71.875 27.484375 71.875 
Q 36.859375 71.875 42.578125 66.421875 
Q 48.296875 60.984375 48.296875 53.171875 
Q 48.296875 48.1875 45.671875 44.5 
Q 43.0625 40.828125 37.75 38.8125 
Q 44.34375 36.671875 47.78125 31.875 
Q 51.21875 27.09375 51.21875 20.453125 
Q 51.21875 11.28125 44.71875 5.03125 
Q 38.234375 -1.21875 27.640625 -1.21875 
Q 17.046875 -1.21875 10.546875 5.046875 
Q 4.046875 11.328125 4.046875 20.703125 
Q 4.046875 27.6875 7.59375 32.390625 
Q 11.140625 37.109375 17.671875 38.8125 
z
M 15.921875 53.71875 
Q 15.921875 48.640625 19.1875 45.40625 
Q 22.46875 42.1875 27.6875 42.1875 
Q 32.765625 42.1875 36.015625 45.375 
Q 39.265625 48.578125 39.265625 53.21875 
Q 39.265625 58.0625 35.90625 61.359375 
Q 32.5625 64.65625 27.59375 64.65625 
Q 22.5625 64.65625 19.234375 61.421875 
Q 15.921875 58.203125 15.921875 53.71875 
z
M 13.09375 20.65625 
Q 13.09375 16.890625 14.875 13.375 
Q 16.65625 9.859375 20.171875 7.921875 
Q 23.6875 6 27.734375 6 
Q 34.03125 6 38.125 10.046875 
Q 42.234375 14.109375 42.234375 20.359375 
Q 42.234375 26.703125 38.015625 30.859375 
Q 33.796875 35.015625 27.4375 35.015625 
Q 21.234375 35.015625 17.15625 30.90625 
Q 13.09375 26.8125 13.09375 20.65625 
z
" id="ArialMT-56"/>
      </defs>
      <g style="fill:#262626;" transform="translate(27.0031 302.178108)scale(0.14 -0.14)">
       <use xlink:href="#ArialMT-48"/>
       <use x="55.615234" xlink:href="#ArialMT-46"/>
       <use x="83.398438" xlink:href="#ArialMT-56"/>
      </g>
     </g>
    </g>
    <g id="ytick_3">
     <g id="text_10">
      <!-- 1.0 -->
      <defs>
       <path d="M 37.25 0 
L 28.46875 0 
L 28.46875 56 
Q 25.296875 52.984375 20.140625 49.953125 
Q 14.984375 46.921875 10.890625 45.40625 
L 10.890625 53.90625 
Q 18.265625 57.375 23.78125 62.296875 
Q 29.296875 67.234375 31.59375 71.875 
L 37.25 71.875 
z
" id="ArialMT-49"/>
      </defs>
      <g style="fill:#262626;" transform="translate(27.0031 245.45463)scale(0.14 -0.14)">
       <use xlink:href="#ArialMT-49"/>
       <use x="55.615234" xlink:href="#ArialMT-46"/>
       <use x="83.398438" xlink:href="#ArialMT-48"/>
      </g>
     </g>
    </g>
    <g id="ytick_4">
     <g id="text_11">
      <!-- 1.2 -->
      <defs>
       <path d="M 50.34375 8.453125 
L 50.34375 0 
L 3.03125 0 
Q 2.9375 3.171875 4.046875 6.109375 
Q 5.859375 10.9375 9.828125 15.625 
Q 13.8125 20.3125 21.34375 26.46875 
Q 33.015625 36.03125 37.109375 41.625 
Q 41.21875 47.21875 41.21875 52.203125 
Q 41.21875 57.421875 37.46875 61 
Q 33.734375 64.59375 27.734375 64.59375 
Q 21.390625 64.59375 17.578125 60.78125 
Q 13.765625 56.984375 13.71875 50.25 
L 4.6875 51.171875 
Q 5.609375 61.28125 11.65625 66.578125 
Q 17.71875 71.875 27.9375 71.875 
Q 38.234375 71.875 44.234375 66.15625 
Q 50.25 60.453125 50.25 52 
Q 50.25 47.703125 48.484375 43.546875 
Q 46.734375 39.40625 42.65625 34.8125 
Q 38.578125 30.21875 29.109375 22.21875 
Q 21.1875 15.578125 18.9375 13.203125 
Q 16.703125 10.84375 15.234375 8.453125 
z
" id="ArialMT-50"/>
      </defs>
      <g style="fill:#262626;" transform="translate(27.0031 188.731152)scale(0.14 -0.14)">
       <use xlink:href="#ArialMT-49"/>
       <use x="55.615234" xlink:href="#ArialMT-46"/>
       <use x="83.398438" xlink:href="#ArialMT-50"/>
      </g>
     </g>
    </g>
    <g id="ytick_5">
     <g id="text_12">
      <!-- 1.4 -->
      <defs>
       <path d="M 32.328125 0 
L 32.328125 17.140625 
L 1.265625 17.140625 
L 1.265625 25.203125 
L 33.9375 71.578125 
L 41.109375 71.578125 
L 41.109375 25.203125 
L 50.78125 25.203125 
L 50.78125 17.140625 
L 41.109375 17.140625 
L 41.109375 0 
z
M 32.328125 25.203125 
L 32.328125 57.46875 
L 9.90625 25.203125 
z
" id="ArialMT-52"/>
      </defs>
      <g style="fill:#262626;" transform="translate(27.0031 132.007674)scale(0.14 -0.14)">
       <use xlink:href="#ArialMT-49"/>
       <use x="55.615234" xlink:href="#ArialMT-46"/>
       <use x="83.398438" xlink:href="#ArialMT-52"/>
      </g>
     </g>
    </g>
    <g id="ytick_6">
     <g id="text_13">
      <!-- 1.6 -->
      <g style="fill:#262626;" transform="translate(27.0031 75.284195)scale(0.14 -0.14)">
       <use xlink:href="#ArialMT-49"/>
       <use x="55.615234" xlink:href="#ArialMT-46"/>
       <use x="83.398438" xlink:href="#ArialMT-54"/>
      </g>
     </g>
    </g>
    <g id="text_14">
     <!-- Crash Ratio: Two Week / Three Weeks -->
     <defs>
      <path d="M 58.796875 25.09375 
L 68.265625 22.703125 
Q 65.28125 11.03125 57.546875 4.90625 
Q 49.8125 -1.21875 38.625 -1.21875 
Q 27.046875 -1.21875 19.796875 3.484375 
Q 12.546875 8.203125 8.765625 17.140625 
Q 4.984375 26.078125 4.984375 36.328125 
Q 4.984375 47.515625 9.25 55.828125 
Q 13.53125 64.15625 21.40625 68.46875 
Q 29.296875 72.796875 38.765625 72.796875 
Q 49.515625 72.796875 56.828125 67.328125 
Q 64.15625 61.859375 67.046875 51.953125 
L 57.71875 49.75 
Q 55.21875 57.5625 50.484375 61.125 
Q 45.75 64.703125 38.578125 64.703125 
Q 30.328125 64.703125 24.78125 60.734375 
Q 19.234375 56.78125 16.984375 50.109375 
Q 14.75 43.453125 14.75 36.375 
Q 14.75 27.25 17.40625 20.4375 
Q 20.0625 13.625 25.671875 10.25 
Q 31.296875 6.890625 37.84375 6.890625 
Q 45.796875 6.890625 51.3125 11.46875 
Q 56.84375 16.0625 58.796875 25.09375 
z
" id="ArialMT-67"/>
      <path d="M 7.859375 0 
L 7.859375 71.578125 
L 39.59375 71.578125 
Q 49.171875 71.578125 54.140625 69.640625 
Q 59.125 67.71875 62.109375 62.828125 
Q 65.09375 57.953125 65.09375 52.046875 
Q 65.09375 44.4375 60.15625 39.203125 
Q 55.21875 33.984375 44.921875 32.5625 
Q 48.6875 30.765625 50.640625 29 
Q 54.78125 25.203125 58.5 19.484375 
L 70.953125 0 
L 59.03125 0 
L 49.5625 14.890625 
Q 45.40625 21.34375 42.71875 24.75 
Q 40.046875 28.171875 37.921875 29.53125 
Q 35.796875 30.90625 33.59375 31.453125 
Q 31.984375 31.78125 28.328125 31.78125 
L 17.328125 31.78125 
L 17.328125 0 
z
M 17.328125 39.984375 
L 37.703125 39.984375 
Q 44.1875 39.984375 47.84375 41.328125 
Q 51.515625 42.671875 53.421875 45.625 
Q 55.328125 48.578125 55.328125 52.046875 
Q 55.328125 57.125 51.640625 60.390625 
Q 47.953125 63.671875 39.984375 63.671875 
L 17.328125 63.671875 
z
" id="ArialMT-82"/>
      <path d="M 9.03125 41.84375 
L 9.03125 51.859375 
L 19.046875 51.859375 
L 19.046875 41.84375 
z
M 9.03125 0 
L 9.03125 10.015625 
L 19.046875 10.015625 
L 19.046875 0 
z
" id="ArialMT-58"/>
      <path d="M 16.15625 0 
L 0.296875 51.859375 
L 9.375 51.859375 
L 17.625 21.921875 
L 20.703125 10.796875 
Q 20.90625 11.625 23.390625 21.484375 
L 31.640625 51.859375 
L 40.671875 51.859375 
L 48.4375 21.78125 
L 51.03125 11.859375 
L 54 21.875 
L 62.890625 51.859375 
L 71.4375 51.859375 
L 55.21875 0 
L 46.09375 0 
L 37.84375 31.0625 
L 35.84375 39.890625 
L 25.34375 0 
z
" id="ArialMT-119"/>
      <path d="M 6.640625 0 
L 6.640625 71.578125 
L 15.4375 71.578125 
L 15.4375 30.765625 
L 36.234375 51.859375 
L 47.609375 51.859375 
L 27.78125 32.625 
L 49.609375 0 
L 38.765625 0 
L 21.625 26.515625 
L 15.4375 20.5625 
L 15.4375 0 
z
" id="ArialMT-107"/>
      <path d="M 0 -1.21875 
L 20.75 72.796875 
L 27.78125 72.796875 
L 7.078125 -1.21875 
z
" id="ArialMT-47"/>
     </defs>
     <g style="fill:#262626;" transform="translate(19.5687 353.707988)rotate(-90)scale(0.1728 -0.1728)">
      <use xlink:href="#ArialMT-67"/>
      <use x="72.216797" xlink:href="#ArialMT-114"/>
      <use x="105.517578" xlink:href="#ArialMT-97"/>
      <use x="161.132812" xlink:href="#ArialMT-115"/>
      <use x="211.132812" xlink:href="#ArialMT-104"/>
      <use x="266.748047" xlink:href="#ArialMT-32"/>
      <use x="294.53125" xlink:href="#ArialMT-82"/>
      <use x="366.748047" xlink:href="#ArialMT-97"/>
      <use x="422.363281" xlink:href="#ArialMT-116"/>
      <use x="450.146484" xlink:href="#ArialMT-105"/>
      <use x="472.363281" xlink:href="#ArialMT-111"/>
      <use x="527.978516" xlink:href="#ArialMT-58"/>
      <use x="555.761719" xlink:href="#ArialMT-32"/>
      <use x="581.794922" xlink:href="#ArialMT-84"/>
      <use x="637.378906" xlink:href="#ArialMT-119"/>
      <use x="709.595703" xlink:href="#ArialMT-111"/>
      <use x="765.210938" xlink:href="#ArialMT-32"/>
      <use x="792.994141" xlink:href="#ArialMT-87"/>
      <use x="885.628906" xlink:href="#ArialMT-101"/>
      <use x="941.244141" xlink:href="#ArialMT-101"/>
      <use x="996.859375" xlink:href="#ArialMT-107"/>
      <use x="1046.859375" xlink:href="#ArialMT-32"/>
      <use x="1074.642578" xlink:href="#ArialMT-47"/>
      <use x="1102.425781" xlink:href="#ArialMT-32"/>
      <use x="1128.458984" xlink:href="#ArialMT-84"/>
      <use x="1189.542969" xlink:href="#ArialMT-104"/>
      <use x="1245.158203" xlink:href="#ArialMT-114"/>
      <use x="1278.458984" xlink:href="#ArialMT-101"/>
      <use x="1334.074219" xlink:href="#ArialMT-101"/>
      <use x="1389.689453" xlink:href="#ArialMT-32"/>
      <use x="1417.472656" xlink:href="#ArialMT-87"/>
      <use x="1510.107422" xlink:href="#ArialMT-101"/>
      <use x="1565.722656" xlink:href="#ArialMT-101"/>
      <use x="1621.337891" xlink:href="#ArialMT-107"/>
      <use x="1671.337891" xlink:href="#ArialMT-115"/>
     </g>
    </g>
   </g>
   <g id="PolyCollection_1">
    <defs>
     <path d="M 102.088739 -95.721914 
L 93.494604 -95.721914 
L 92.994557 -97.067967 
L 92.46099 -98.414021 
L 91.894544 -99.760074 
L 91.296126 -101.106128 
L 90.666892 -102.452182 
L 90.008222 -103.798235 
L 89.321702 -105.144289 
L 88.609097 -106.490343 
L 87.872344 -107.836396 
L 87.113535 -109.18245 
L 86.334919 -110.528503 
L 85.538904 -111.874557 
L 84.728075 -113.220611 
L 83.905211 -114.566664 
L 83.073311 -115.912718 
L 82.23562 -117.258771 
L 81.395657 -118.604825 
L 80.557235 -119.950879 
L 79.724469 -121.296932 
L 78.901781 -122.642986 
L 78.093873 -123.98904 
L 77.305697 -125.335093 
L 76.542391 -126.681147 
L 75.809204 -128.0272 
L 75.111394 -129.373254 
L 74.454115 -130.719308 
L 73.842292 -132.065361 
L 73.280479 -133.411415 
L 72.772734 -134.757468 
L 72.322484 -136.103522 
L 71.932416 -137.449576 
L 71.604385 -138.795629 
L 71.339347 -140.141683 
L 71.137326 -141.487736 
L 70.997421 -142.83379 
L 70.91784 -144.179844 
L 70.895982 -145.525897 
L 70.928541 -146.871951 
L 71.011649 -148.218005 
L 71.14103 -149.564058 
L 71.312179 -150.910112 
L 71.52054 -152.256165 
L 71.76168 -153.602219 
L 72.031451 -154.948273 
L 72.32613 -156.294326 
L 72.642532 -157.64038 
L 72.97808 -158.986433 
L 73.330848 -160.332487 
L 73.699552 -161.678541 
L 74.083512 -163.024594 
L 74.482569 -164.370648 
L 74.896975 -165.716702 
L 75.32726 -167.062755 
L 75.774081 -168.408809 
L 76.238064 -169.754862 
L 76.719652 -171.100916 
L 77.218961 -172.44697 
L 77.735662 -173.793023 
L 78.268891 -175.139077 
L 78.817189 -176.48513 
L 79.378487 -177.831184 
L 79.950122 -179.177238 
L 80.528899 -180.523291 
L 81.111185 -181.869345 
L 81.693034 -183.215399 
L 82.270331 -184.561452 
L 82.83896 -185.907506 
L 83.394965 -187.253559 
L 83.934721 -188.599613 
L 84.455083 -189.945667 
L 84.953514 -191.29172 
L 85.428191 -192.637774 
L 85.878075 -193.983827 
L 86.302938 -195.329881 
L 86.703362 -196.675935 
L 87.080694 -198.021988 
L 87.436966 -199.368042 
L 87.774791 -200.714095 
L 88.097226 -202.060149 
L 88.407627 -203.406203 
L 88.709487 -204.752256 
L 89.00628 -206.09831 
L 89.301309 -207.444364 
L 89.597565 -208.790417 
L 89.897608 -210.136471 
L 90.203479 -211.482524 
L 90.516624 -212.828578 
L 90.837865 -214.174632 
L 91.167389 -215.520685 
L 91.504769 -216.866739 
L 91.849011 -218.212792 
L 92.19862 -219.558846 
L 92.551682 -220.9049 
L 92.905966 -222.250953 
L 93.259022 -223.597007 
L 93.608285 -224.943061 
L 93.951177 -226.289114 
L 94.285201 -227.635168 
L 94.608023 -228.981221 
L 100.97532 -228.981221 
L 100.97532 -228.981221 
L 101.298142 -227.635168 
L 101.632166 -226.289114 
L 101.975058 -224.943061 
L 102.324321 -223.597007 
L 102.677377 -222.250953 
L 103.031661 -220.9049 
L 103.384723 -219.558846 
L 103.734331 -218.212792 
L 104.078573 -216.866739 
L 104.415954 -215.520685 
L 104.745478 -214.174632 
L 105.066719 -212.828578 
L 105.379864 -211.482524 
L 105.685734 -210.136471 
L 105.985778 -208.790417 
L 106.282034 -207.444364 
L 106.577063 -206.09831 
L 106.873856 -204.752256 
L 107.175716 -203.406203 
L 107.486116 -202.060149 
L 107.808552 -200.714095 
L 108.146376 -199.368042 
L 108.502649 -198.021988 
L 108.879981 -196.675935 
L 109.280405 -195.329881 
L 109.705268 -193.983827 
L 110.155151 -192.637774 
L 110.629829 -191.29172 
L 111.12826 -189.945667 
L 111.648622 -188.599613 
L 112.188378 -187.253559 
L 112.744383 -185.907506 
L 113.313012 -184.561452 
L 113.890309 -183.215399 
L 114.472158 -181.869345 
L 115.054444 -180.523291 
L 115.633221 -179.177238 
L 116.204856 -177.831184 
L 116.766154 -176.48513 
L 117.314452 -175.139077 
L 117.847681 -173.793023 
L 118.364382 -172.44697 
L 118.863691 -171.100916 
L 119.345279 -169.754862 
L 119.809262 -168.408809 
L 120.256083 -167.062755 
L 120.686368 -165.716702 
L 121.100774 -164.370648 
L 121.499831 -163.024594 
L 121.883791 -161.678541 
L 122.252495 -160.332487 
L 122.605263 -158.986433 
L 122.940811 -157.64038 
L 123.257213 -156.294326 
L 123.551892 -154.948273 
L 123.821663 -153.602219 
L 124.062803 -152.256165 
L 124.271164 -150.910112 
L 124.442313 -149.564058 
L 124.571694 -148.218005 
L 124.654801 -146.871951 
L 124.687361 -145.525897 
L 124.665503 -144.179844 
L 124.585922 -142.83379 
L 124.446017 -141.487736 
L 124.243996 -140.141683 
L 123.978957 -138.795629 
L 123.650927 -137.449576 
L 123.260859 -136.103522 
L 122.810609 -134.757468 
L 122.302864 -133.411415 
L 121.741051 -132.065361 
L 121.129227 -130.719308 
L 120.471949 -129.373254 
L 119.774139 -128.0272 
L 119.040952 -126.681147 
L 118.277646 -125.335093 
L 117.48947 -123.98904 
L 116.681562 -122.642986 
L 115.858874 -121.296932 
L 115.026108 -119.950879 
L 114.187686 -118.604825 
L 113.347723 -117.258771 
L 112.510032 -115.912718 
L 111.678131 -114.566664 
L 110.855268 -113.220611 
L 110.044439 -111.874557 
L 109.248424 -110.528503 
L 108.469808 -109.18245 
L 107.710999 -107.836396 
L 106.974246 -106.490343 
L 106.261641 -105.144289 
L 105.57512 -103.798235 
L 104.916451 -102.452182 
L 104.287217 -101.106128 
L 103.688799 -99.760074 
L 103.122353 -98.414021 
L 102.588786 -97.067967 
L 102.088739 -95.721914 
z
" id="m614ff1966e" style="stroke:#414141;stroke-width:2;"/>
    </defs>
    <g clip-path="url(#p2a652f27bf)">
     <use style="fill:#e68193;stroke:#414141;stroke-width:2;" x="0" xlink:href="#m614ff1966e" y="391.910113"/>
    </g>
   </g>
   <g id="PolyCollection_2">
    <defs>
     <path d="M 199.375031 -90.855639 
L 187.522598 -90.855639 
L 186.944207 -91.880573 
L 186.346684 -92.905507 
L 185.734253 -93.930441 
L 185.111538 -94.955375 
L 184.483455 -95.980309 
L 183.855093 -97.005244 
L 183.231572 -98.030178 
L 182.617896 -99.055112 
L 182.018797 -100.080046 
L 181.43859 -101.10498 
L 180.88102 -102.129914 
L 180.349135 -103.154849 
L 179.845176 -104.179783 
L 179.370488 -105.204717 
L 178.925467 -106.229651 
L 178.509532 -107.254585 
L 178.121141 -108.279519 
L 177.757838 -109.304453 
L 177.416332 -110.329388 
L 177.092617 -111.354322 
L 176.782106 -112.379256 
L 176.479801 -113.40419 
L 176.180473 -114.429124 
L 175.878843 -115.454058 
L 175.569782 -116.478992 
L 175.248484 -117.503927 
L 174.910642 -118.528861 
L 174.55259 -119.553795 
L 174.171431 -120.578729 
L 173.765129 -121.603663 
L 173.332565 -122.628597 
L 172.873564 -123.653532 
L 172.388887 -124.678466 
L 171.880189 -125.7034 
L 171.349949 -126.728334 
L 170.801368 -127.753268 
L 170.238258 -128.778202 
L 169.664905 -129.803136 
L 169.085924 -130.828071 
L 168.506119 -131.853005 
L 167.930331 -132.877939 
L 167.363307 -133.902873 
L 166.809571 -134.927807 
L 166.273319 -135.952741 
L 165.758327 -136.977675 
L 165.267891 -138.00261 
L 164.804779 -139.027544 
L 164.371216 -140.052478 
L 163.968891 -141.077412 
L 163.598987 -142.102346 
L 163.262233 -143.12728 
L 162.958969 -144.152214 
L 162.689237 -145.177149 
L 162.452869 -146.202083 
L 162.249593 -147.227017 
L 162.079134 -148.251951 
L 161.941312 -149.276885 
L 161.836135 -150.301819 
L 161.763873 -151.326754 
L 161.725126 -152.351688 
L 161.720857 -153.376622 
L 161.752414 -154.401556 
L 161.821521 -155.42649 
L 161.930248 -156.451424 
L 162.080951 -157.476358 
L 162.276197 -158.501293 
L 162.51866 -159.526227 
L 162.811012 -160.551161 
L 163.155796 -161.576095 
L 163.555295 -162.601029 
L 164.011405 -163.625963 
L 164.52551 -164.650897 
L 165.098372 -165.675832 
L 165.730038 -166.700766 
L 166.419766 -167.7257 
L 167.165978 -168.750634 
L 167.966241 -169.775568 
L 168.817272 -170.800502 
L 169.714975 -171.825437 
L 170.654501 -172.850371 
L 171.63033 -173.875305 
L 172.63638 -174.900239 
L 173.666122 -175.925173 
L 174.712716 -176.950107 
L 175.769143 -177.975041 
L 176.82835 -178.999976 
L 177.883379 -180.02491 
L 178.927498 -181.049844 
L 179.954318 -182.074778 
L 180.957894 -183.099712 
L 181.932809 -184.124646 
L 182.874246 -185.14958 
L 183.778035 -186.174515 
L 184.640683 -187.199449 
L 185.459392 -188.224383 
L 186.232051 -189.249317 
L 186.957221 -190.274251 
L 187.634103 -191.299185 
L 188.262496 -192.32412 
L 198.635133 -192.32412 
L 198.635133 -192.32412 
L 199.263526 -191.299185 
L 199.940408 -190.274251 
L 200.665577 -189.249317 
L 201.438236 -188.224383 
L 202.256945 -187.199449 
L 203.119594 -186.174515 
L 204.023382 -185.14958 
L 204.964819 -184.124646 
L 205.939734 -183.099712 
L 206.94331 -182.074778 
L 207.97013 -181.049844 
L 209.01425 -180.02491 
L 210.069279 -178.999976 
L 211.128485 -177.975041 
L 212.184913 -176.950107 
L 213.231506 -175.925173 
L 214.261248 -174.900239 
L 215.267298 -173.875305 
L 216.243127 -172.850371 
L 217.182653 -171.825437 
L 218.080357 -170.800502 
L 218.931388 -169.775568 
L 219.731651 -168.750634 
L 220.477863 -167.7257 
L 221.16759 -166.700766 
L 221.799256 -165.675832 
L 222.372118 -164.650897 
L 222.886224 -163.625963 
L 223.342334 -162.601029 
L 223.741833 -161.576095 
L 224.086617 -160.551161 
L 224.378969 -159.526227 
L 224.621432 -158.501293 
L 224.816677 -157.476358 
L 224.96738 -156.451424 
L 225.076107 -155.42649 
L 225.145215 -154.401556 
L 225.176772 -153.376622 
L 225.172503 -152.351688 
L 225.133755 -151.326754 
L 225.061494 -150.301819 
L 224.956316 -149.276885 
L 224.818494 -148.251951 
L 224.648035 -147.227017 
L 224.44476 -146.202083 
L 224.208392 -145.177149 
L 223.93866 -144.152214 
L 223.635396 -143.12728 
L 223.298641 -142.102346 
L 222.928738 -141.077412 
L 222.526413 -140.052478 
L 222.092849 -139.027544 
L 221.629737 -138.00261 
L 221.139301 -136.977675 
L 220.62431 -135.952741 
L 220.088057 -134.927807 
L 219.534321 -133.902873 
L 218.967297 -132.877939 
L 218.39151 -131.853005 
L 217.811704 -130.828071 
L 217.232724 -129.803136 
L 216.65937 -128.778202 
L 216.096261 -127.753268 
L 215.54768 -126.728334 
L 215.017439 -125.7034 
L 214.508742 -124.678466 
L 214.024065 -123.653532 
L 213.565064 -122.628597 
L 213.132499 -121.603663 
L 212.726197 -120.578729 
L 212.345039 -119.553795 
L 211.986987 -118.528861 
L 211.649144 -117.503927 
L 211.327846 -116.478992 
L 211.018785 -115.454058 
L 210.717156 -114.429124 
L 210.417827 -113.40419 
L 210.115523 -112.379256 
L 209.805012 -111.354322 
L 209.481296 -110.329388 
L 209.139791 -109.304453 
L 208.776488 -108.279519 
L 208.388097 -107.254585 
L 207.972162 -106.229651 
L 207.52714 -105.204717 
L 207.052453 -104.179783 
L 206.548494 -103.154849 
L 206.016609 -102.129914 
L 205.459038 -101.10498 
L 204.878831 -100.080046 
L 204.279733 -99.055112 
L 203.666056 -98.030178 
L 203.042535 -97.005244 
L 202.414174 -95.980309 
L 201.786091 -94.955375 
L 201.163375 -93.930441 
L 200.550945 -92.905507 
L 199.953422 -91.880573 
L 199.375031 -90.855639 
z
" id="med3102e01c" style="stroke:#414141;stroke-width:2;"/>
    </defs>
    <g clip-path="url(#p2a652f27bf)">
     <use style="fill:#b38e44;stroke:#414141;stroke-width:2;" x="0" xlink:href="#med3102e01c" y="391.910113"/>
    </g>
   </g>
   <g id="PolyCollection_3">
    <defs>
     <path d="M 291.617246 -79.428871 
L 286.594668 -79.428871 
L 286.379595 -80.522901 
L 286.163119 -81.61693 
L 285.94713 -82.71096 
L 285.733411 -83.80499 
L 285.523529 -84.89902 
L 285.318737 -85.99305 
L 285.119865 -87.08708 
L 284.927221 -88.181109 
L 284.740502 -89.275139 
L 284.558719 -90.369169 
L 284.380141 -91.463199 
L 284.202269 -92.557229 
L 284.021832 -93.651258 
L 283.834824 -94.745288 
L 283.636572 -95.839318 
L 283.421834 -96.933348 
L 283.184941 -98.027378 
L 282.919964 -99.121408 
L 282.620913 -100.215437 
L 282.281955 -101.309467 
L 281.897649 -102.403497 
L 281.463187 -103.497527 
L 280.974627 -104.591557 
L 280.429122 -105.685587 
L 279.825114 -106.779616 
L 279.162501 -107.873646 
L 278.442754 -108.967676 
L 277.668987 -110.061706 
L 276.845963 -111.155736 
L 275.980041 -112.249766 
L 275.079054 -113.343795 
L 274.152124 -114.437825 
L 273.209422 -115.531855 
L 272.26187 -116.625885 
L 271.320804 -117.719915 
L 270.397606 -118.813945 
L 269.503328 -119.907974 
L 268.648309 -121.002004 
L 267.841811 -122.096034 
L 267.091702 -123.190064 
L 266.404169 -124.284094 
L 265.783511 -125.378123 
L 265.231994 -126.472153 
L 264.749793 -127.566183 
L 264.335009 -128.660213 
L 263.98378 -129.754243 
L 263.690457 -130.848273 
L 263.447855 -131.942302 
L 263.247561 -133.036332 
L 263.080284 -134.130362 
L 262.936228 -135.224392 
L 262.805478 -136.318422 
L 262.678378 -137.412452 
L 262.545889 -138.506481 
L 262.399906 -139.600511 
L 262.233528 -140.694541 
L 262.041277 -141.788571 
L 261.819256 -142.882601 
L 261.565238 -143.976631 
L 261.278701 -145.07066 
L 260.96081 -146.16469 
L 260.614338 -147.25872 
L 260.243555 -148.35275 
L 259.854078 -149.44678 
L 259.452696 -150.54081 
L 259.047183 -151.634839 
L 258.646097 -152.728869 
L 258.258573 -153.822899 
L 257.894129 -154.916929 
L 257.562464 -156.010959 
L 257.273268 -157.104988 
L 257.036041 -158.199018 
L 256.859915 -159.293048 
L 256.753486 -160.387078 
L 256.724652 -161.481108 
L 256.780455 -162.575138 
L 256.926937 -163.669167 
L 257.169 -164.763197 
L 257.510279 -165.857227 
L 257.953036 -166.951257 
L 258.498064 -168.045287 
L 259.144629 -169.139317 
L 259.890429 -170.233346 
L 260.731593 -171.327376 
L 261.662719 -172.421406 
L 262.676942 -173.515436 
L 263.76605 -174.609466 
L 264.920634 -175.703496 
L 266.130272 -176.797525 
L 267.383746 -177.891555 
L 268.669281 -178.985585 
L 269.974798 -180.079615 
L 271.288178 -181.173645 
L 272.597519 -182.267675 
L 273.891388 -183.361704 
L 275.159049 -184.455734 
L 276.390662 -185.549764 
L 277.577457 -186.643794 
L 278.711861 -187.737824 
L 299.500053 -187.737824 
L 299.500053 -187.737824 
L 300.634457 -186.643794 
L 301.821252 -185.549764 
L 303.052865 -184.455734 
L 304.320526 -183.361704 
L 305.614395 -182.267675 
L 306.923737 -181.173645 
L 308.237116 -180.079615 
L 309.542633 -178.985585 
L 310.828168 -177.891555 
L 312.081642 -176.797525 
L 313.29128 -175.703496 
L 314.445864 -174.609466 
L 315.534972 -173.515436 
L 316.549195 -172.421406 
L 317.480321 -171.327376 
L 318.321486 -170.233346 
L 319.067285 -169.139317 
L 319.71385 -168.045287 
L 320.258878 -166.951257 
L 320.701635 -165.857227 
L 321.042914 -164.763197 
L 321.284977 -163.669167 
L 321.431459 -162.575138 
L 321.487262 -161.481108 
L 321.458428 -160.387078 
L 321.351999 -159.293048 
L 321.175873 -158.199018 
L 320.938646 -157.104988 
L 320.64945 -156.010959 
L 320.317785 -154.916929 
L 319.953341 -153.822899 
L 319.565818 -152.728869 
L 319.164731 -151.634839 
L 318.759218 -150.54081 
L 318.357836 -149.44678 
L 317.968359 -148.35275 
L 317.597576 -147.25872 
L 317.251104 -146.16469 
L 316.933213 -145.07066 
L 316.646676 -143.976631 
L 316.392658 -142.882601 
L 316.170637 -141.788571 
L 315.978387 -140.694541 
L 315.812009 -139.600511 
L 315.666025 -138.506481 
L 315.533536 -137.412452 
L 315.406437 -136.318422 
L 315.275686 -135.224392 
L 315.13163 -134.130362 
L 314.964353 -133.036332 
L 314.76406 -131.942302 
L 314.521458 -130.848273 
L 314.228134 -129.754243 
L 313.876905 -128.660213 
L 313.462122 -127.566183 
L 312.97992 -126.472153 
L 312.428403 -125.378123 
L 311.807745 -124.284094 
L 311.120212 -123.190064 
L 310.370103 -122.096034 
L 309.563606 -121.002004 
L 308.708586 -119.907974 
L 307.814308 -118.813945 
L 306.891111 -117.719915 
L 305.950044 -116.625885 
L 305.002492 -115.531855 
L 304.05979 -114.437825 
L 303.13286 -113.343795 
L 302.231873 -112.249766 
L 301.365951 -111.155736 
L 300.542928 -110.061706 
L 299.76916 -108.967676 
L 299.049413 -107.873646 
L 298.3868 -106.779616 
L 297.782792 -105.685587 
L 297.237287 -104.591557 
L 296.748728 -103.497527 
L 296.314265 -102.403497 
L 295.929959 -101.309467 
L 295.591002 -100.215437 
L 295.291951 -99.121408 
L 295.026974 -98.027378 
L 294.79008 -96.933348 
L 294.575342 -95.839318 
L 294.37709 -94.745288 
L 294.190083 -93.651258 
L 294.009645 -92.557229 
L 293.831773 -91.463199 
L 293.653195 -90.369169 
L 293.471412 -89.275139 
L 293.284693 -88.181109 
L 293.092049 -87.08708 
L 292.893177 -85.99305 
L 292.688385 -84.89902 
L 292.478503 -83.80499 
L 292.264784 -82.71096 
L 292.048796 -81.61693 
L 291.832319 -80.522901 
L 291.617246 -79.428871 
z
" id="m03c4c4d1e6" style="stroke:#414141;stroke-width:2;"/>
    </defs>
    <g clip-path="url(#p2a652f27bf)">
     <use style="fill:#7d9a40;stroke:#414141;stroke-width:2;" x="0" xlink:href="#m03c4c4d1e6" y="391.910113"/>
    </g>
   </g>
   <g id="PolyCollection_4">
    <defs>
     <path d="M 388.337754 -99.788508 
L 381.188446 -99.788508 
L 380.783406 -100.822029 
L 380.352722 -101.85555 
L 379.896898 -102.889071 
L 379.416555 -103.922592 
L 378.912398 -104.956113 
L 378.385178 -105.989634 
L 377.835656 -107.023155 
L 377.26457 -108.056675 
L 376.672606 -109.090196 
L 376.060377 -110.123717 
L 375.428406 -111.157238 
L 374.777121 -112.190759 
L 374.10686 -113.22428 
L 373.417884 -114.257801 
L 372.710396 -115.291322 
L 371.984577 -116.324843 
L 371.240617 -117.358364 
L 370.478757 -118.391885 
L 369.699338 -119.425406 
L 368.902842 -120.458927 
L 368.089936 -121.492448 
L 367.26152 -122.525969 
L 366.418753 -123.55949 
L 365.563098 -124.59301 
L 364.696333 -125.626531 
L 363.820577 -126.660052 
L 362.938296 -127.693573 
L 362.052299 -128.727094 
L 361.165736 -129.760615 
L 360.282074 -130.794136 
L 359.405078 -131.827657 
L 358.538773 -132.861178 
L 357.68741 -133.894699 
L 356.855418 -134.92822 
L 356.047354 -135.961741 
L 355.267848 -136.995262 
L 354.521545 -138.028783 
L 353.813042 -139.062304 
L 353.146828 -140.095824 
L 352.52722 -141.129345 
L 351.958298 -142.162866 
L 351.443849 -143.196387 
L 350.987306 -144.229908 
L 350.591695 -145.263429 
L 350.259592 -146.29695 
L 349.993074 -147.330471 
L 349.793695 -148.363992 
L 349.662454 -149.397513 
L 349.599786 -150.431034 
L 349.605554 -151.464555 
L 349.679054 -152.498076 
L 349.819029 -153.531597 
L 350.023693 -154.565118 
L 350.290763 -155.598639 
L 350.617497 -156.632159 
L 351.00074 -157.66568 
L 351.436973 -158.699201 
L 351.922365 -159.732722 
L 352.452832 -160.766243 
L 353.024093 -161.799764 
L 353.631728 -162.833285 
L 354.271238 -163.866806 
L 354.938105 -164.900327 
L 355.627849 -165.933848 
L 356.336092 -166.967369 
L 357.058616 -168.00089 
L 357.791421 -169.034411 
L 358.530786 -170.067932 
L 359.273324 -171.101453 
L 360.016034 -172.134973 
L 360.756348 -173.168494 
L 361.492168 -174.202015 
L 362.221895 -175.235536 
L 362.944439 -176.269057 
L 363.65922 -177.302578 
L 364.36615 -178.336099 
L 365.065588 -179.36962 
L 365.758288 -180.403141 
L 366.445326 -181.436662 
L 367.128003 -182.470183 
L 367.807751 -183.503704 
L 368.486015 -184.537225 
L 369.164147 -185.570746 
L 369.843293 -186.604267 
L 370.524291 -187.637788 
L 371.207587 -188.671308 
L 371.893165 -189.704829 
L 372.580503 -190.73835 
L 373.268553 -191.771871 
L 373.955747 -192.805392 
L 374.640031 -193.838913 
L 375.318921 -194.872434 
L 375.989583 -195.905955 
L 376.648927 -196.939476 
L 377.293713 -197.972997 
L 377.920666 -199.006518 
L 378.526582 -200.040039 
L 379.108446 -201.07356 
L 379.663517 -202.107081 
L 389.862683 -202.107081 
L 389.862683 -202.107081 
L 390.417754 -201.07356 
L 390.999618 -200.040039 
L 391.605534 -199.006518 
L 392.232487 -197.972997 
L 392.877273 -196.939476 
L 393.536617 -195.905955 
L 394.207279 -194.872434 
L 394.886169 -193.838913 
L 395.570453 -192.805392 
L 396.257647 -191.771871 
L 396.945697 -190.73835 
L 397.633035 -189.704829 
L 398.318613 -188.671308 
L 399.001909 -187.637788 
L 399.682907 -186.604267 
L 400.362053 -185.570746 
L 401.040185 -184.537225 
L 401.718449 -183.503704 
L 402.398197 -182.470183 
L 403.080874 -181.436662 
L 403.767912 -180.403141 
L 404.460612 -179.36962 
L 405.16005 -178.336099 
L 405.86698 -177.302578 
L 406.581761 -176.269057 
L 407.304305 -175.235536 
L 408.034032 -174.202015 
L 408.769852 -173.168494 
L 409.510166 -172.134973 
L 410.252876 -171.101453 
L 410.995414 -170.067932 
L 411.734779 -169.034411 
L 412.467584 -168.00089 
L 413.190108 -166.967369 
L 413.898351 -165.933848 
L 414.588095 -164.900327 
L 415.254962 -163.866806 
L 415.894472 -162.833285 
L 416.502107 -161.799764 
L 417.073368 -160.766243 
L 417.603835 -159.732722 
L 418.089227 -158.699201 
L 418.52546 -157.66568 
L 418.908703 -156.632159 
L 419.235437 -155.598639 
L 419.502507 -154.565118 
L 419.707171 -153.531597 
L 419.847146 -152.498076 
L 419.920646 -151.464555 
L 419.926414 -150.431034 
L 419.863746 -149.397513 
L 419.732505 -148.363992 
L 419.533126 -147.330471 
L 419.266608 -146.29695 
L 418.934505 -145.263429 
L 418.538894 -144.229908 
L 418.082351 -143.196387 
L 417.567902 -142.162866 
L 416.99898 -141.129345 
L 416.379372 -140.095824 
L 415.713158 -139.062304 
L 415.004655 -138.028783 
L 414.258352 -136.995262 
L 413.478846 -135.961741 
L 412.670782 -134.92822 
L 411.83879 -133.894699 
L 410.987427 -132.861178 
L 410.121122 -131.827657 
L 409.244126 -130.794136 
L 408.360464 -129.760615 
L 407.473901 -128.727094 
L 406.587904 -127.693573 
L 405.705623 -126.660052 
L 404.829867 -125.626531 
L 403.963102 -124.59301 
L 403.107447 -123.55949 
L 402.26468 -122.525969 
L 401.436264 -121.492448 
L 400.623358 -120.458927 
L 399.826862 -119.425406 
L 399.047443 -118.391885 
L 398.285583 -117.358364 
L 397.541623 -116.324843 
L 396.815804 -115.291322 
L 396.108316 -114.257801 
L 395.41934 -113.22428 
L 394.749079 -112.190759 
L 394.097794 -111.157238 
L 393.465823 -110.123717 
L 392.853594 -109.090196 
L 392.26163 -108.056675 
L 391.690544 -107.023155 
L 391.141022 -105.989634 
L 390.613802 -104.956113 
L 390.109645 -103.922592 
L 389.629302 -102.889071 
L 389.173478 -101.85555 
L 388.742794 -100.822029 
L 388.337754 -99.788508 
z
" id="mf0a4920644" style="stroke:#414141;stroke-width:2;"/>
    </defs>
    <g clip-path="url(#p2a652f27bf)">
     <use style="fill:#43a084;stroke:#414141;stroke-width:2;" x="0" xlink:href="#mf0a4920644" y="391.910113"/>
    </g>
   </g>
   <g id="PolyCollection_5">
    <defs>
     <path d="M 483.146974 -84.880117 
L 477.693511 -84.880117 
L 477.449645 -85.964665 
L 477.209172 -87.049212 
L 476.976127 -88.133759 
L 476.754608 -89.218306 
L 476.548624 -90.302853 
L 476.361936 -91.3874 
L 476.197899 -92.471947 
L 476.059299 -93.556494 
L 475.948207 -94.641042 
L 475.865845 -95.725589 
L 475.812478 -96.810136 
L 475.787338 -97.894683 
L 475.788567 -98.97923 
L 475.813215 -100.063777 
L 475.857254 -101.148324 
L 475.915641 -102.232872 
L 475.982401 -103.317419 
L 476.050748 -104.401966 
L 476.113225 -105.486513 
L 476.161862 -106.57106 
L 476.188346 -107.655607 
L 476.184205 -108.740154 
L 476.140982 -109.824701 
L 476.050424 -110.909249 
L 475.90465 -111.993796 
L 475.696325 -113.078343 
L 475.418811 -114.16289 
L 475.066322 -115.247437 
L 474.634051 -116.331984 
L 474.118302 -117.416531 
L 473.516591 -118.501078 
L 472.827746 -119.585626 
L 472.051981 -120.670173 
L 471.190957 -121.75472 
L 470.247811 -122.839267 
L 469.227173 -123.923814 
L 468.135134 -125.008361 
L 466.979196 -126.092908 
L 465.768174 -127.177455 
L 464.512061 -128.262003 
L 463.221849 -129.34655 
L 461.90931 -130.431097 
L 460.586741 -131.515644 
L 459.266672 -132.600191 
L 457.961551 -133.684738 
L 456.683416 -134.769285 
L 455.443562 -135.853833 
L 454.25222 -136.93838 
L 453.118264 -138.022927 
L 452.048959 -139.107474 
L 451.049759 -140.192021 
L 450.124177 -141.276568 
L 449.273733 -142.361115 
L 448.497978 -143.445662 
L 447.79461 -144.53021 
L 447.159669 -145.614757 
L 446.58781 -146.699304 
L 446.072644 -147.783851 
L 445.607133 -148.868398 
L 445.184014 -149.952945 
L 444.796251 -151.037492 
L 444.437471 -152.122039 
L 444.102383 -153.206587 
L 443.787146 -154.291134 
L 443.489678 -155.375681 
L 443.209874 -156.460228 
L 442.949746 -157.544775 
L 442.713448 -158.629322 
L 442.507199 -159.713869 
L 442.339099 -160.798417 
L 442.218851 -161.882964 
L 442.157386 -162.967511 
L 442.166414 -164.052058 
L 442.257926 -165.136605 
L 442.443656 -166.221152 
L 442.734534 -167.305699 
L 443.140157 -168.390246 
L 443.668299 -169.474794 
L 444.324487 -170.559341 
L 445.111655 -171.643888 
L 446.029904 -172.728435 
L 447.076376 -173.812982 
L 448.245239 -174.897529 
L 449.527796 -175.982076 
L 450.912707 -177.066623 
L 452.38631 -178.151171 
L 453.933024 -179.235718 
L 455.535827 -180.320265 
L 457.176765 -181.404812 
L 458.837484 -182.489359 
L 460.499763 -183.573906 
L 462.146004 -184.658453 
L 463.75969 -185.743001 
L 465.32577 -186.827548 
L 466.830968 -187.912095 
L 468.264018 -188.996642 
L 469.615798 -190.081189 
L 470.879396 -191.165736 
L 472.050082 -192.250283 
L 488.790404 -192.250283 
L 488.790404 -192.250283 
L 489.96109 -191.165736 
L 491.224688 -190.081189 
L 492.576468 -188.996642 
L 494.009518 -187.912095 
L 495.514716 -186.827548 
L 497.080795 -185.743001 
L 498.694481 -184.658453 
L 500.340723 -183.573906 
L 502.003001 -182.489359 
L 503.663721 -181.404812 
L 505.304659 -180.320265 
L 506.907462 -179.235718 
L 508.454176 -178.151171 
L 509.927778 -177.066623 
L 511.31269 -175.982076 
L 512.595247 -174.897529 
L 513.76411 -173.812982 
L 514.810581 -172.728435 
L 515.728831 -171.643888 
L 516.515998 -170.559341 
L 517.172186 -169.474794 
L 517.700329 -168.390246 
L 518.105952 -167.305699 
L 518.39683 -166.221152 
L 518.582559 -165.136605 
L 518.674072 -164.052058 
L 518.6831 -162.967511 
L 518.621635 -161.882964 
L 518.501387 -160.798417 
L 518.333287 -159.713869 
L 518.127037 -158.629322 
L 517.890739 -157.544775 
L 517.630612 -156.460228 
L 517.350808 -155.375681 
L 517.053339 -154.291134 
L 516.738103 -153.206587 
L 516.403015 -152.122039 
L 516.044235 -151.037492 
L 515.656472 -149.952945 
L 515.233353 -148.868398 
L 514.767841 -147.783851 
L 514.252676 -146.699304 
L 513.680816 -145.614757 
L 513.045875 -144.53021 
L 512.342507 -143.445662 
L 511.566753 -142.361115 
L 510.716309 -141.276568 
L 509.790727 -140.192021 
L 508.791527 -139.107474 
L 507.722221 -138.022927 
L 506.588266 -136.93838 
L 505.396924 -135.853833 
L 504.15707 -134.769285 
L 502.878935 -133.684738 
L 501.573814 -132.600191 
L 500.253744 -131.515644 
L 498.931176 -130.431097 
L 497.618637 -129.34655 
L 496.328424 -128.262003 
L 495.072312 -127.177455 
L 493.86129 -126.092908 
L 492.705352 -125.008361 
L 491.613313 -123.923814 
L 490.592674 -122.839267 
L 489.649529 -121.75472 
L 488.788505 -120.670173 
L 488.01274 -119.585626 
L 487.323895 -118.501078 
L 486.722184 -117.416531 
L 486.206434 -116.331984 
L 485.774164 -115.247437 
L 485.421674 -114.16289 
L 485.144161 -113.078343 
L 484.935835 -111.993796 
L 484.790062 -110.909249 
L 484.699504 -109.824701 
L 484.656281 -108.740154 
L 484.652139 -107.655607 
L 484.678624 -106.57106 
L 484.727261 -105.486513 
L 484.789738 -104.401966 
L 484.858085 -103.317419 
L 484.924845 -102.232872 
L 484.983231 -101.148324 
L 485.027271 -100.063777 
L 485.051918 -98.97923 
L 485.053148 -97.894683 
L 485.028007 -96.810136 
L 484.974641 -95.725589 
L 484.892279 -94.641042 
L 484.781187 -93.556494 
L 484.642587 -92.471947 
L 484.47855 -91.3874 
L 484.291862 -90.302853 
L 484.085878 -89.218306 
L 483.864359 -88.133759 
L 483.631314 -87.049212 
L 483.39084 -85.964665 
L 483.146974 -84.880117 
z
" id="m1b843c5810" style="stroke:#414141;stroke-width:2;"/>
    </defs>
    <g clip-path="url(#p2a652f27bf)">
     <use style="fill:#489eaa;stroke:#414141;stroke-width:2;" x="0" xlink:href="#m1b843c5810" y="391.910113"/>
    </g>
   </g>
   <g id="PolyCollection_6">
    <defs>
     <path d="M 579.442784 -93.552443 
L 572.711988 -93.552443 
L 572.205824 -95.564048 
L 571.651982 -97.575652 
L 571.050342 -99.587256 
L 570.401351 -101.598861 
L 569.706013 -103.610465 
L 568.965868 -105.622069 
L 568.182947 -107.633674 
L 567.359722 -109.645278 
L 566.499047 -111.656883 
L 565.6041 -113.668487 
L 564.678334 -115.680091 
L 563.725435 -117.691696 
L 562.749312 -119.7033 
L 561.754098 -121.714905 
L 560.744193 -123.726509 
L 559.724322 -125.738113 
L 558.699624 -127.749718 
L 557.675758 -129.761322 
L 556.659018 -131.772926 
L 555.656442 -133.784531 
L 554.675901 -135.796135 
L 553.726162 -137.80774 
L 552.816897 -139.819344 
L 551.958624 -141.830948 
L 551.162592 -143.842553 
L 550.440573 -145.854157 
L 549.804589 -147.865761 
L 549.266562 -149.877366 
L 548.837908 -151.88897 
L 548.529096 -153.900575 
L 548.34919 -155.912179 
L 548.305401 -157.923783 
L 548.402686 -159.935388 
L 548.643413 -161.946992 
L 549.027116 -163.958596 
L 549.550375 -165.970201 
L 550.206807 -167.981805 
L 550.987202 -169.99341 
L 551.87978 -172.005014 
L 552.870562 -174.016618 
L 553.94384 -176.028223 
L 555.082711 -178.039827 
L 556.269656 -180.051432 
L 557.487118 -182.063036 
L 558.71806 -184.07464 
L 559.946463 -186.086245 
L 561.157754 -188.097849 
L 562.339129 -190.109453 
L 563.479774 -192.121058 
L 564.570976 -194.132662 
L 565.606124 -196.144267 
L 566.580625 -198.155871 
L 567.491731 -200.167475 
L 568.338313 -202.17908 
L 569.120588 -204.190684 
L 569.839839 -206.202288 
L 570.498121 -208.213893 
L 571.098003 -210.225497 
L 571.642322 -212.237102 
L 572.133985 -214.248706 
L 572.575821 -216.26031 
L 572.970467 -218.271915 
L 573.320309 -220.283519 
L 573.627455 -222.295124 
L 573.893748 -224.306728 
L 574.120803 -226.318332 
L 574.310065 -228.329937 
L 574.462883 -230.341541 
L 574.580586 -232.353145 
L 574.664566 -234.36475 
L 574.716353 -236.376354 
L 574.737688 -238.387959 
L 574.730582 -240.399563 
L 574.69736 -242.411167 
L 574.640692 -244.422772 
L 574.563607 -246.434376 
L 574.46948 -248.44598 
L 574.362005 -250.457585 
L 574.245146 -252.469189 
L 574.123063 -254.480794 
L 574.000022 -256.492398 
L 573.880294 -258.504002 
L 573.768031 -260.515607 
L 573.66715 -262.527211 
L 573.581205 -264.538815 
L 573.513276 -266.55042 
L 573.46586 -268.562024 
L 573.440799 -270.573629 
L 573.439212 -272.585233 
L 573.461477 -274.596837 
L 573.507226 -276.608442 
L 573.575388 -278.620046 
L 573.664245 -280.631651 
L 573.771528 -282.643255 
L 573.894526 -284.654859 
L 574.030211 -286.666464 
L 574.17537 -288.678068 
L 574.326734 -290.689672 
L 574.481107 -292.701277 
L 577.673664 -292.701277 
L 577.673664 -292.701277 
L 577.828037 -290.689672 
L 577.979402 -288.678068 
L 578.12456 -286.666464 
L 578.260246 -284.654859 
L 578.383244 -282.643255 
L 578.490527 -280.631651 
L 578.579384 -278.620046 
L 578.647545 -276.608442 
L 578.693295 -274.596837 
L 578.715559 -272.585233 
L 578.713973 -270.573629 
L 578.688911 -268.562024 
L 578.641496 -266.55042 
L 578.573566 -264.538815 
L 578.487621 -262.527211 
L 578.38674 -260.515607 
L 578.274478 -258.504002 
L 578.154749 -256.492398 
L 578.031709 -254.480794 
L 577.909625 -252.469189 
L 577.792766 -250.457585 
L 577.685292 -248.44598 
L 577.591164 -246.434376 
L 577.514079 -244.422772 
L 577.457412 -242.411167 
L 577.42419 -240.399563 
L 577.417084 -238.387959 
L 577.438419 -236.376354 
L 577.490206 -234.36475 
L 577.574185 -232.353145 
L 577.691888 -230.341541 
L 577.844706 -228.329937 
L 578.033969 -226.318332 
L 578.261023 -224.306728 
L 578.527316 -222.295124 
L 578.834463 -220.283519 
L 579.184304 -218.271915 
L 579.578951 -216.26031 
L 580.020787 -214.248706 
L 580.51245 -212.237102 
L 581.056768 -210.225497 
L 581.65665 -208.213893 
L 582.314933 -206.202288 
L 583.034183 -204.190684 
L 583.816458 -202.17908 
L 584.66304 -200.167475 
L 585.574147 -198.155871 
L 586.548648 -196.144267 
L 587.583796 -194.132662 
L 588.674997 -192.121058 
L 589.815642 -190.109453 
L 590.997017 -188.097849 
L 592.208308 -186.086245 
L 593.436712 -184.07464 
L 594.667653 -182.063036 
L 595.885115 -180.051432 
L 597.07206 -178.039827 
L 598.210932 -176.028223 
L 599.284209 -174.016618 
L 600.274991 -172.005014 
L 601.167569 -169.99341 
L 601.947965 -167.981805 
L 602.604397 -165.970201 
L 603.127655 -163.958596 
L 603.511359 -161.946992 
L 603.752085 -159.935388 
L 603.84937 -157.923783 
L 603.805582 -155.912179 
L 603.625675 -153.900575 
L 603.316864 -151.88897 
L 602.88821 -149.877366 
L 602.350182 -147.865761 
L 601.714198 -145.854157 
L 600.99218 -143.842553 
L 600.196147 -141.830948 
L 599.337875 -139.819344 
L 598.428609 -137.80774 
L 597.478871 -135.796135 
L 596.49833 -133.784531 
L 595.495753 -131.772926 
L 594.479013 -129.761322 
L 593.455147 -127.749718 
L 592.430449 -125.738113 
L 591.410578 -123.726509 
L 590.400673 -121.714905 
L 589.40546 -119.7033 
L 588.429336 -117.691696 
L 587.476438 -115.680091 
L 586.550671 -113.668487 
L 585.655725 -111.656883 
L 584.79505 -109.645278 
L 583.971825 -107.633674 
L 583.188903 -105.622069 
L 582.448758 -103.610465 
L 581.75342 -101.598861 
L 581.104429 -99.587256 
L 580.502789 -97.575652 
L 579.948948 -95.564048 
L 579.442784 -93.552443 
z
" id="me9e9e429e8" style="stroke:#414141;stroke-width:2;"/>
    </defs>
    <g clip-path="url(#p2a652f27bf)">
     <use style="fill:#8fa0e6;stroke:#414141;stroke-width:2;" x="0" xlink:href="#me9e9e429e8" y="391.910113"/>
    </g>
   </g>
   <g id="PolyCollection_7">
    <defs>
     <path d="M 673.404907 -47.419878 
L 670.06415 -47.419878 
L 669.910535 -49.222852 
L 669.758114 -51.025825 
L 669.609169 -52.828798 
L 669.465949 -54.631771 
L 669.330567 -56.434745 
L 669.204879 -58.237718 
L 669.090373 -60.040691 
L 668.988056 -61.843664 
L 668.89835 -63.646637 
L 668.821007 -65.449611 
L 668.755043 -67.252584 
L 668.698696 -69.055557 
L 668.649418 -70.85853 
L 668.603896 -72.661504 
L 668.558107 -74.464477 
L 668.507411 -76.26745 
L 668.446669 -78.070423 
L 668.370398 -79.873397 
L 668.272939 -81.67637 
L 668.148657 -83.479343 
L 667.992144 -85.282316 
L 667.79842 -87.085289 
L 667.563142 -88.888263 
L 667.282786 -90.691236 
L 666.954815 -92.494209 
L 666.577806 -94.297182 
L 666.151548 -96.100156 
L 665.677092 -97.903129 
L 665.156747 -99.706102 
L 664.594031 -101.509075 
L 663.993575 -103.312049 
L 663.360965 -105.115022 
L 662.702556 -106.917995 
L 662.025246 -108.720968 
L 661.336222 -110.523942 
L 660.642695 -112.326915 
L 659.951641 -114.129888 
L 659.26954 -115.932861 
L 658.602156 -117.735834 
L 657.954346 -119.538808 
L 657.329919 -121.341781 
L 656.731548 -123.144754 
L 656.16074 -124.947727 
L 655.617875 -126.750701 
L 655.102289 -128.553674 
L 654.612422 -130.356647 
L 654.146004 -132.15962 
L 653.700279 -133.962594 
L 653.272244 -135.765567 
L 652.858907 -137.56854 
L 652.457532 -139.371513 
L 652.065874 -141.174486 
L 651.682378 -142.97746 
L 651.306351 -144.780433 
L 650.938077 -146.583406 
L 650.578892 -148.386379 
L 650.231199 -150.189353 
L 649.898435 -151.992326 
L 649.584978 -153.795299 
L 649.296022 -155.598272 
L 649.037393 -157.401246 
L 648.815346 -159.204219 
L 648.636334 -161.007192 
L 648.506758 -162.810165 
L 648.432723 -164.613139 
L 648.419793 -166.416112 
L 648.472772 -168.219085 
L 648.595503 -170.022058 
L 648.790712 -171.825031 
L 649.05989 -173.628005 
L 649.403222 -175.430978 
L 649.819569 -177.233951 
L 650.306494 -179.036924 
L 650.860338 -180.839898 
L 651.476337 -182.642871 
L 652.148773 -184.445844 
L 652.871152 -186.248817 
L 653.636394 -188.051791 
L 654.43704 -189.854764 
L 655.265442 -191.657737 
L 656.113956 -193.46071 
L 656.975105 -195.263683 
L 657.841726 -197.066657 
L 658.707086 -198.86963 
L 659.564969 -200.672603 
L 660.409738 -202.475576 
L 661.236365 -204.27855 
L 662.040445 -206.081523 
L 662.818186 -207.884496 
L 663.56639 -209.687469 
L 664.282418 -211.490443 
L 664.964156 -213.293416 
L 665.609977 -215.096389 
L 666.218702 -216.899362 
L 666.789566 -218.702336 
L 667.322186 -220.505309 
L 667.816534 -222.308282 
L 668.272909 -224.111255 
L 668.691914 -225.914228 
L 674.777143 -225.914228 
L 674.777143 -225.914228 
L 675.196148 -224.111255 
L 675.652523 -222.308282 
L 676.146871 -220.505309 
L 676.679491 -218.702336 
L 677.250356 -216.899362 
L 677.85908 -215.096389 
L 678.504901 -213.293416 
L 679.186639 -211.490443 
L 679.902667 -209.687469 
L 680.650871 -207.884496 
L 681.428612 -206.081523 
L 682.232692 -204.27855 
L 683.059319 -202.475576 
L 683.904088 -200.672603 
L 684.761971 -198.86963 
L 685.627331 -197.066657 
L 686.493953 -195.263683 
L 687.355102 -193.46071 
L 688.203615 -191.657737 
L 689.032017 -189.854764 
L 689.832663 -188.051791 
L 690.597906 -186.248817 
L 691.320284 -184.445844 
L 691.99272 -182.642871 
L 692.608719 -180.839898 
L 693.162563 -179.036924 
L 693.649488 -177.233951 
L 694.065835 -175.430978 
L 694.409167 -173.628005 
L 694.678345 -171.825031 
L 694.873554 -170.022058 
L 694.996285 -168.219085 
L 695.049264 -166.416112 
L 695.036335 -164.613139 
L 694.9623 -162.810165 
L 694.832724 -161.007192 
L 694.653711 -159.204219 
L 694.431664 -157.401246 
L 694.173035 -155.598272 
L 693.884079 -153.795299 
L 693.570623 -151.992326 
L 693.237858 -150.189353 
L 692.890166 -148.386379 
L 692.530981 -146.583406 
L 692.162706 -144.780433 
L 691.786679 -142.97746 
L 691.403183 -141.174486 
L 691.011525 -139.371513 
L 690.61015 -137.56854 
L 690.196813 -135.765567 
L 689.768778 -133.962594 
L 689.323053 -132.15962 
L 688.856635 -130.356647 
L 688.366768 -128.553674 
L 687.851182 -126.750701 
L 687.308317 -124.947727 
L 686.737509 -123.144754 
L 686.139138 -121.341781 
L 685.514711 -119.538808 
L 684.866901 -117.735834 
L 684.199518 -115.932861 
L 683.517416 -114.129888 
L 682.826362 -112.326915 
L 682.132836 -110.523942 
L 681.443811 -108.720968 
L 680.766501 -106.917995 
L 680.108092 -105.115022 
L 679.475482 -103.312049 
L 678.875026 -101.509075 
L 678.312311 -99.706102 
L 677.791965 -97.903129 
L 677.317509 -96.100156 
L 676.891252 -94.297182 
L 676.514242 -92.494209 
L 676.186271 -90.691236 
L 675.905915 -88.888263 
L 675.670637 -87.085289 
L 675.476913 -85.282316 
L 675.3204 -83.479343 
L 675.196119 -81.67637 
L 675.09866 -79.873397 
L 675.022388 -78.070423 
L 674.961646 -76.26745 
L 674.91095 -74.464477 
L 674.865161 -72.661504 
L 674.819639 -70.85853 
L 674.770361 -69.055557 
L 674.714014 -67.252584 
L 674.64805 -65.449611 
L 674.570707 -63.646637 
L 674.481001 -61.843664 
L 674.378684 -60.040691 
L 674.264179 -58.237718 
L 674.13849 -56.434745 
L 674.003108 -54.631771 
L 673.859889 -52.828798 
L 673.710943 -51.025825 
L 673.558522 -49.222852 
L 673.404907 -47.419878 
z
" id="m75a354fc37" style="stroke:#414141;stroke-width:2;"/>
    </defs>
    <g clip-path="url(#p2a652f27bf)">
     <use style="fill:#e270db;stroke:#414141;stroke-width:2;" x="0" xlink:href="#m75a354fc37" y="391.910113"/>
    </g>
   </g>
   <g id="line2d_1">
    <path clip-path="url(#p2a652f27bf)" d="M 49.9631 240.444161 
L 719.5631 240.444161 
" style="fill:none;stroke:#404040;stroke-dasharray:5.55,2.4;stroke-dashoffset:0;stroke-width:1.5;"/>
   </g>
   <g id="line2d_2">
    <path clip-path="url(#p2a652f27bf)" d="M 97.791671 279.692697 
L 97.791671 179.424393 
" style="fill:none;stroke:#414141;stroke-linecap:round;stroke-width:2;"/>
   </g>
   <g id="line2d_3">
    <path clip-path="url(#p2a652f27bf)" d="M 97.791671 253.769158 
L 97.791671 216.147228 
" style="fill:none;stroke:#414141;stroke-linecap:round;stroke-width:6;"/>
   </g>
   <g id="line2d_4">
    <path clip-path="url(#p2a652f27bf)" d="M 193.448814 287.747709 
L 193.448814 212.892758 
" style="fill:none;stroke:#414141;stroke-linecap:round;stroke-width:2;"/>
   </g>
   <g id="line2d_5">
    <path clip-path="url(#p2a652f27bf)" d="M 193.448814 262.212212 
L 193.448814 227.224171 
" style="fill:none;stroke:#414141;stroke-linecap:round;stroke-width:6;"/>
   </g>
   <g id="line2d_6">
    <path clip-path="url(#p2a652f27bf)" d="M 289.105957 299.053931 
L 289.105957 217.599599 
" style="fill:none;stroke:#414141;stroke-linecap:round;stroke-width:2;"/>
   </g>
   <g id="line2d_7">
    <path clip-path="url(#p2a652f27bf)" d="M 289.105957 265.143296 
L 289.105957 225.570022 
" style="fill:none;stroke:#414141;stroke-linecap:round;stroke-width:6;"/>
   </g>
   <g id="line2d_8">
    <path clip-path="url(#p2a652f27bf)" d="M 384.7631 279.761837 
L 384.7631 202.162799 
" style="fill:none;stroke:#414141;stroke-linecap:round;stroke-width:2;"/>
   </g>
   <g id="line2d_9">
    <path clip-path="url(#p2a652f27bf)" d="M 384.7631 252.638368 
L 384.7631 225.857484 
" style="fill:none;stroke:#414141;stroke-linecap:round;stroke-width:6;"/>
   </g>
   <g id="line2d_10">
    <path clip-path="url(#p2a652f27bf)" d="M 480.420243 261.460414 
L 480.420243 211.822223 
" style="fill:none;stroke:#414141;stroke-linecap:round;stroke-width:2;"/>
   </g>
   <g id="line2d_11">
    <path clip-path="url(#p2a652f27bf)" d="M 480.420243 249.173479 
L 480.420243 220.794308 
" style="fill:none;stroke:#414141;stroke-linecap:round;stroke-width:6;"/>
   </g>
   <g id="line2d_12">
    <path clip-path="url(#p2a652f27bf)" d="M 576.077386 277.613392 
L 576.077386 190.147481 
" style="fill:none;stroke:#414141;stroke-linecap:round;stroke-width:2;"/>
   </g>
   <g id="line2d_13">
    <path clip-path="url(#p2a652f27bf)" d="M 576.077386 250.32008 
L 576.077386 221.396165 
" style="fill:none;stroke:#414141;stroke-linecap:round;stroke-width:6;"/>
   </g>
   <g id="line2d_14">
    <path clip-path="url(#p2a652f27bf)" d="M 671.734529 324.547462 
L 671.734529 185.938656 
" style="fill:none;stroke:#414141;stroke-linecap:round;stroke-width:2;"/>
   </g>
   <g id="line2d_15">
    <path clip-path="url(#p2a652f27bf)" d="M 671.734529 263.168258 
L 671.734529 216.893965 
" style="fill:none;stroke:#414141;stroke-linecap:round;stroke-width:6;"/>
   </g>
   <g id="patch_3">
    <path d="M 49.9631 368.071988 
L 49.9631 41.911988 
" style="fill:none;stroke:#262626;stroke-linecap:square;stroke-linejoin:miter;stroke-width:1.25;"/>
   </g>
   <g id="patch_4">
    <path d="M 719.5631 368.071988 
L 719.5631 41.911988 
" style="fill:none;stroke:#262626;stroke-linecap:square;stroke-linejoin:miter;stroke-width:1.25;"/>
   </g>
   <g id="patch_5">
    <path d="M 49.9631 368.071988 
L 719.5631 368.071988 
" style="fill:none;stroke:#262626;stroke-linecap:square;stroke-linejoin:miter;stroke-width:1.25;"/>
   </g>
   <g id="patch_6">
    <path d="M 49.9631 41.911988 
L 719.5631 41.911988 
" style="fill:none;stroke:#262626;stroke-linecap:square;stroke-linejoin:miter;stroke-width:1.25;"/>
   </g>
   <g id="PathCollection_1">
    <defs>
     <path d="M 0 2 
C 0.530406 2 1.03916 1.789267 1.414214 1.414214 
C 1.789267 1.03916 2 0.530406 2 0 
C 2 -0.530406 1.789267 -1.03916 1.414214 -1.414214 
C 1.03916 -1.789267 0.530406 -2 0 -2 
C -0.530406 -2 -1.03916 -1.789267 -1.414214 -1.414214 
C -1.789267 -1.03916 -2 -0.530406 -2 0 
C -2 0.530406 -1.789267 1.03916 -1.414214 1.414214 
C -1.03916 1.789267 -0.530406 2 0 2 
z
" id="m1d6724f2b7" style="stroke:#414141;"/>
    </defs>
    <g clip-path="url(#p2a652f27bf)">
     <use style="fill:#ffffff;stroke:#414141;" x="97.791671" xlink:href="#m1d6724f2b7" y="242.301158"/>
    </g>
   </g>
   <g id="PathCollection_2">
    <g clip-path="url(#p2a652f27bf)">
     <use style="fill:#ffffff;stroke:#414141;" x="193.448814" xlink:href="#m1d6724f2b7" y="245.68527"/>
    </g>
   </g>
   <g id="PathCollection_3">
    <g clip-path="url(#p2a652f27bf)">
     <use style="fill:#ffffff;stroke:#414141;" x="289.105957" xlink:href="#m1d6724f2b7" y="240.915197"/>
    </g>
   </g>
   <g id="PathCollection_4">
    <g clip-path="url(#p2a652f27bf)">
     <use style="fill:#ffffff;stroke:#414141;" x="384.7631" xlink:href="#m1d6724f2b7" y="239.512881"/>
    </g>
   </g>
   <g id="PathCollection_5">
    <g clip-path="url(#p2a652f27bf)">
     <use style="fill:#ffffff;stroke:#414141;" x="480.420243" xlink:href="#m1d6724f2b7" y="234.522047"/>
    </g>
   </g>
   <g id="PathCollection_6">
    <g clip-path="url(#p2a652f27bf)">
     <use style="fill:#ffffff;stroke:#414141;" x="576.077386" xlink:href="#m1d6724f2b7" y="232.471396"/>
    </g>
   </g>
   <g id="PathCollection_7">
    <g clip-path="url(#p2a652f27bf)">
     <use style="fill:#ffffff;stroke:#414141;" x="671.734529" xlink:href="#m1d6724f2b7" y="233.389156"/>
    </g>
   </g>
   <g id="text_15">
    <!-- Crashes after the start of DST in California (20012016) -->
    <defs>
     <path d="M 8.6875 0 
L 8.6875 45.015625 
L 0.921875 45.015625 
L 0.921875 51.859375 
L 8.6875 51.859375 
L 8.6875 57.375 
Q 8.6875 62.59375 9.625 65.140625 
Q 10.890625 68.5625 14.078125 70.671875 
Q 17.28125 72.796875 23.046875 72.796875 
Q 26.765625 72.796875 31.25 71.921875 
L 29.9375 64.265625 
Q 27.203125 64.75 24.75 64.75 
Q 20.75 64.75 19.09375 63.03125 
Q 17.4375 61.328125 17.4375 56.640625 
L 17.4375 51.859375 
L 27.546875 51.859375 
L 27.546875 45.015625 
L 17.4375 45.015625 
L 17.4375 0 
z
" id="ArialMT-102"/>
     <path d="M 6.390625 0 
L 6.390625 71.578125 
L 15.1875 71.578125 
L 15.1875 0 
z
" id="ArialMT-108"/>
     <path d="M -0.203125 22.359375 
L -0.203125 29.4375 
L 55.421875 29.4375 
L 55.421875 22.359375 
z
" id="ArialMT-8211"/>
    </defs>
    <g style="fill:#262626;" transform="translate(62.742944 26.127187)scale(0.26 -0.26)">
     <use xlink:href="#ArialMT-67"/>
     <use x="72.216797" xlink:href="#ArialMT-114"/>
     <use x="105.517578" xlink:href="#ArialMT-97"/>
     <use x="161.132812" xlink:href="#ArialMT-115"/>
     <use x="211.132812" xlink:href="#ArialMT-104"/>
     <use x="266.748047" xlink:href="#ArialMT-101"/>
     <use x="322.363281" xlink:href="#ArialMT-115"/>
     <use x="372.363281" xlink:href="#ArialMT-32"/>
     <use x="400.146484" xlink:href="#ArialMT-97"/>
     <use x="455.761719" xlink:href="#ArialMT-102"/>
     <use x="483.544922" xlink:href="#ArialMT-116"/>
     <use x="511.328125" xlink:href="#ArialMT-101"/>
     <use x="566.943359" xlink:href="#ArialMT-114"/>
     <use x="600.244141" xlink:href="#ArialMT-32"/>
     <use x="628.027344" xlink:href="#ArialMT-116"/>
     <use x="655.810547" xlink:href="#ArialMT-104"/>
     <use x="711.425781" xlink:href="#ArialMT-101"/>
     <use x="767.041016" xlink:href="#ArialMT-32"/>
     <use x="794.824219" xlink:href="#ArialMT-115"/>
     <use x="844.824219" xlink:href="#ArialMT-116"/>
     <use x="872.607422" xlink:href="#ArialMT-97"/>
     <use x="928.222656" xlink:href="#ArialMT-114"/>
     <use x="961.523438" xlink:href="#ArialMT-116"/>
     <use x="989.306641" xlink:href="#ArialMT-32"/>
     <use x="1017.089844" xlink:href="#ArialMT-111"/>
     <use x="1072.705078" xlink:href="#ArialMT-102"/>
     <use x="1100.488281" xlink:href="#ArialMT-32"/>
     <use x="1128.271484" xlink:href="#ArialMT-68"/>
     <use x="1200.488281" xlink:href="#ArialMT-83"/>
     <use x="1267.1875" xlink:href="#ArialMT-84"/>
     <use x="1326.521484" xlink:href="#ArialMT-32"/>
     <use x="1354.304688" xlink:href="#ArialMT-105"/>
     <use x="1376.521484" xlink:href="#ArialMT-110"/>
     <use x="1432.136719" xlink:href="#ArialMT-32"/>
     <use x="1459.919922" xlink:href="#ArialMT-67"/>
     <use x="1532.136719" xlink:href="#ArialMT-97"/>
     <use x="1587.751953" xlink:href="#ArialMT-108"/>
     <use x="1609.96875" xlink:href="#ArialMT-105"/>
     <use x="1632.185547" xlink:href="#ArialMT-102"/>
     <use x="1659.96875" xlink:href="#ArialMT-111"/>
     <use x="1715.583984" xlink:href="#ArialMT-114"/>
     <use x="1748.884766" xlink:href="#ArialMT-110"/>
     <use x="1804.5" xlink:href="#ArialMT-105"/>
     <use x="1826.716797" xlink:href="#ArialMT-97"/>
     <use x="1882.332031" xlink:href="#ArialMT-32"/>
     <use x="1910.115234" xlink:href="#ArialMT-40"/>
     <use x="1943.416016" xlink:href="#ArialMT-50"/>
     <use x="1999.03125" xlink:href="#ArialMT-48"/>
     <use x="2054.646484" xlink:href="#ArialMT-48"/>
     <use x="2110.261719" xlink:href="#ArialMT-49"/>
     <use x="2165.876953" xlink:href="#ArialMT-8211"/>
     <use x="2221.492188" xlink:href="#ArialMT-50"/>
     <use x="2277.107422" xlink:href="#ArialMT-48"/>
     <use x="2332.722656" xlink:href="#ArialMT-49"/>
     <use x="2388.337891" xlink:href="#ArialMT-54"/>
     <use x="2443.953125" xlink:href="#ArialMT-41"/>
    </g>
   </g>
  </g>
 </g>
 <defs>
  <clipPath id="p2a652f27bf">
   <rect height="326.16" width="669.6" x="49.9631" y="41.911988"/>
  </clipPath>
 </defs>
</svg>
