<?xml version="1.0" encoding="utf-8" standalone="no"?>
<!DOCTYPE svg PUBLIC "-//W3C//DTD SVG 1.1//EN"
  "http://www.w3.org/Graphics/SVG/1.1/DTD/svg11.dtd">
<!-- Created with matplotlib (https://matplotlib.org/) -->
<svg height="391.910113pt" version="1.1" viewBox="0 0 726.7631 391.910113" width="726.7631pt" xmlns="http://www.w3.org/2000/svg" xmlns:xlink="http://www.w3.org/1999/xlink">
 <defs>
  <style type="text/css">
*{stroke-linecap:butt;stroke-linejoin:round;}
  </style>
 </defs>
 <g id="figure_1">
  <g id="patch_1">
   <path d="M 0 391.910113 
L 726.7631 391.910113 
L 726.7631 0 
L 0 0 
z
" style="fill:#ffffff;"/>
  </g>
  <g id="axes_1">
   <g id="patch_2">
    <path d="M 49.9631 368.071988 
L 719.5631 368.071988 
L 719.5631 41.911988 
L 49.9631 41.911988 
z
" style="fill:#ffffff;"/>
   </g>
   <g id="matplotlib.axis_1">
    <g id="xtick_1">
     <g id="text_1">
      <!-- Sunday (DST Ends) -->
      <defs>
       <path d="M 4.5 23 
L 13.421875 23.78125 
Q 14.0625 18.40625 16.375 14.96875 
Q 18.703125 11.53125 23.578125 9.40625 
Q 28.46875 7.28125 34.578125 7.28125 
Q 39.984375 7.28125 44.140625 8.890625 
Q 48.296875 10.5 50.3125 13.296875 
Q 52.34375 16.109375 52.34375 19.4375 
Q 52.34375 22.796875 50.390625 25.3125 
Q 48.4375 27.828125 43.953125 29.546875 
Q 41.0625 30.671875 31.203125 33.03125 
Q 21.34375 35.40625 17.390625 37.5 
Q 12.25 40.1875 9.734375 44.15625 
Q 7.234375 48.140625 7.234375 53.078125 
Q 7.234375 58.5 10.296875 63.203125 
Q 13.375 67.921875 19.28125 70.359375 
Q 25.203125 72.796875 32.421875 72.796875 
Q 40.375 72.796875 46.453125 70.234375 
Q 52.546875 67.671875 55.8125 62.6875 
Q 59.078125 57.71875 59.328125 51.421875 
L 50.25 50.734375 
Q 49.515625 57.515625 45.28125 60.984375 
Q 41.0625 64.453125 32.8125 64.453125 
Q 24.21875 64.453125 20.28125 61.296875 
Q 16.359375 58.15625 16.359375 53.71875 
Q 16.359375 49.859375 19.140625 47.359375 
Q 21.875 44.875 33.421875 42.265625 
Q 44.96875 39.65625 49.265625 37.703125 
Q 55.515625 34.8125 58.484375 30.390625 
Q 61.46875 25.984375 61.46875 20.21875 
Q 61.46875 14.5 58.203125 9.4375 
Q 54.9375 4.390625 48.796875 1.578125 
Q 42.671875 -1.21875 35.015625 -1.21875 
Q 25.296875 -1.21875 18.71875 1.609375 
Q 12.15625 4.4375 8.421875 10.125 
Q 4.6875 15.828125 4.5 23 
z
" id="ArialMT-83"/>
       <path d="M 40.578125 0 
L 40.578125 7.625 
Q 34.515625 -1.171875 24.125 -1.171875 
Q 19.53125 -1.171875 15.546875 0.578125 
Q 11.578125 2.34375 9.640625 5 
Q 7.71875 7.671875 6.9375 11.53125 
Q 6.390625 14.109375 6.390625 19.734375 
L 6.390625 51.859375 
L 15.1875 51.859375 
L 15.1875 23.09375 
Q 15.1875 16.21875 15.71875 13.8125 
Q 16.546875 10.359375 19.234375 8.375 
Q 21.921875 6.390625 25.875 6.390625 
Q 29.828125 6.390625 33.296875 8.421875 
Q 36.765625 10.453125 38.203125 13.9375 
Q 39.65625 17.4375 39.65625 24.078125 
L 39.65625 51.859375 
L 48.4375 51.859375 
L 48.4375 0 
z
" id="ArialMT-117"/>
       <path d="M 6.59375 0 
L 6.59375 51.859375 
L 14.5 51.859375 
L 14.5 44.484375 
Q 20.21875 53.03125 31 53.03125 
Q 35.6875 53.03125 39.625 51.34375 
Q 43.5625 49.65625 45.515625 46.921875 
Q 47.46875 44.1875 48.25 40.4375 
Q 48.734375 37.984375 48.734375 31.890625 
L 48.734375 0 
L 39.9375 0 
L 39.9375 31.546875 
Q 39.9375 36.921875 38.90625 39.578125 
Q 37.890625 42.234375 35.28125 43.8125 
Q 32.671875 45.40625 29.15625 45.40625 
Q 23.53125 45.40625 19.453125 41.84375 
Q 15.375 38.28125 15.375 28.328125 
L 15.375 0 
z
" id="ArialMT-110"/>
       <path d="M 40.234375 0 
L 40.234375 6.546875 
Q 35.296875 -1.171875 25.734375 -1.171875 
Q 19.53125 -1.171875 14.328125 2.25 
Q 9.125 5.671875 6.265625 11.796875 
Q 3.421875 17.921875 3.421875 25.875 
Q 3.421875 33.640625 6 39.96875 
Q 8.59375 46.296875 13.765625 49.65625 
Q 18.953125 53.03125 25.34375 53.03125 
Q 30.03125 53.03125 33.6875 51.046875 
Q 37.359375 49.078125 39.65625 45.90625 
L 39.65625 71.578125 
L 48.390625 71.578125 
L 48.390625 0 
z
M 12.453125 25.875 
Q 12.453125 15.921875 16.640625 10.984375 
Q 20.84375 6.0625 26.5625 6.0625 
Q 32.328125 6.0625 36.34375 10.765625 
Q 40.375 15.484375 40.375 25.140625 
Q 40.375 35.796875 36.265625 40.765625 
Q 32.171875 45.75 26.171875 45.75 
Q 20.3125 45.75 16.375 40.96875 
Q 12.453125 36.1875 12.453125 25.875 
z
" id="ArialMT-100"/>
       <path d="M 40.4375 6.390625 
Q 35.546875 2.25 31.03125 0.53125 
Q 26.515625 -1.171875 21.34375 -1.171875 
Q 12.796875 -1.171875 8.203125 3 
Q 3.609375 7.171875 3.609375 13.671875 
Q 3.609375 17.484375 5.34375 20.625 
Q 7.078125 23.78125 9.890625 25.6875 
Q 12.703125 27.59375 16.21875 28.5625 
Q 18.796875 29.25 24.03125 29.890625 
Q 34.671875 31.15625 39.703125 32.90625 
Q 39.75 34.71875 39.75 35.203125 
Q 39.75 40.578125 37.25 42.78125 
Q 33.890625 45.75 27.25 45.75 
Q 21.046875 45.75 18.09375 43.578125 
Q 15.140625 41.40625 13.71875 35.890625 
L 5.125 37.0625 
Q 6.296875 42.578125 8.984375 45.96875 
Q 11.671875 49.359375 16.75 51.1875 
Q 21.828125 53.03125 28.515625 53.03125 
Q 35.15625 53.03125 39.296875 51.46875 
Q 43.453125 49.90625 45.40625 47.53125 
Q 47.359375 45.171875 48.140625 41.546875 
Q 48.578125 39.3125 48.578125 33.453125 
L 48.578125 21.734375 
Q 48.578125 9.46875 49.140625 6.21875 
Q 49.703125 2.984375 51.375 0 
L 42.1875 0 
Q 40.828125 2.734375 40.4375 6.390625 
z
M 39.703125 26.03125 
Q 34.90625 24.078125 25.34375 22.703125 
Q 19.921875 21.921875 17.671875 20.9375 
Q 15.4375 19.96875 14.203125 18.09375 
Q 12.984375 16.21875 12.984375 13.921875 
Q 12.984375 10.40625 15.640625 8.0625 
Q 18.3125 5.71875 23.4375 5.71875 
Q 28.515625 5.71875 32.46875 7.9375 
Q 36.421875 10.15625 38.28125 14.015625 
Q 39.703125 17 39.703125 22.796875 
z
" id="ArialMT-97"/>
       <path d="M 6.203125 -19.96875 
L 5.21875 -11.71875 
Q 8.109375 -12.5 10.25 -12.5 
Q 13.1875 -12.5 14.9375 -11.515625 
Q 16.703125 -10.546875 17.828125 -8.796875 
Q 18.65625 -7.46875 20.515625 -2.25 
Q 20.75 -1.515625 21.296875 -0.09375 
L 1.609375 51.859375 
L 11.078125 51.859375 
L 21.875 21.828125 
Q 23.96875 16.109375 25.640625 9.8125 
Q 27.15625 15.875 29.25 21.625 
L 40.328125 51.859375 
L 49.125 51.859375 
L 29.390625 -0.875 
Q 26.21875 -9.421875 24.46875 -12.640625 
Q 22.125 -17 19.09375 -19.015625 
Q 16.0625 -21.046875 11.859375 -21.046875 
Q 9.328125 -21.046875 6.203125 -19.96875 
z
" id="ArialMT-121"/>
       <path id="ArialMT-32"/>
       <path d="M 23.390625 -21.046875 
Q 16.109375 -11.859375 11.078125 0.4375 
Q 6.0625 12.75 6.0625 25.921875 
Q 6.0625 37.546875 9.8125 48.1875 
Q 14.203125 60.546875 23.390625 72.796875 
L 29.6875 72.796875 
Q 23.78125 62.640625 21.875 58.296875 
Q 18.890625 51.5625 17.1875 44.234375 
Q 15.09375 35.109375 15.09375 25.875 
Q 15.09375 2.390625 29.6875 -21.046875 
z
" id="ArialMT-40"/>
       <path d="M 7.71875 0 
L 7.71875 71.578125 
L 32.375 71.578125 
Q 40.71875 71.578125 45.125 70.5625 
Q 51.265625 69.140625 55.609375 65.4375 
Q 61.28125 60.640625 64.078125 53.1875 
Q 66.890625 45.75 66.890625 36.1875 
Q 66.890625 28.03125 64.984375 21.734375 
Q 63.09375 15.4375 60.109375 11.296875 
Q 57.125 7.171875 53.578125 4.796875 
Q 50.046875 2.4375 45.046875 1.21875 
Q 40.046875 0 33.546875 0 
z
M 17.1875 8.453125 
L 32.46875 8.453125 
Q 39.546875 8.453125 43.578125 9.765625 
Q 47.609375 11.078125 50 13.484375 
Q 53.375 16.84375 55.25 22.53125 
Q 57.125 28.21875 57.125 36.328125 
Q 57.125 47.5625 53.4375 53.59375 
Q 49.75 59.625 44.484375 61.671875 
Q 40.671875 63.140625 32.234375 63.140625 
L 17.1875 63.140625 
z
" id="ArialMT-68"/>
       <path d="M 25.921875 0 
L 25.921875 63.140625 
L 2.34375 63.140625 
L 2.34375 71.578125 
L 59.078125 71.578125 
L 59.078125 63.140625 
L 35.40625 63.140625 
L 35.40625 0 
z
" id="ArialMT-84"/>
       <path d="M 7.90625 0 
L 7.90625 71.578125 
L 59.671875 71.578125 
L 59.671875 63.140625 
L 17.390625 63.140625 
L 17.390625 41.21875 
L 56.984375 41.21875 
L 56.984375 32.8125 
L 17.390625 32.8125 
L 17.390625 8.453125 
L 61.328125 8.453125 
L 61.328125 0 
z
" id="ArialMT-69"/>
       <path d="M 3.078125 15.484375 
L 11.765625 16.84375 
Q 12.5 11.625 15.84375 8.84375 
Q 19.1875 6.0625 25.203125 6.0625 
Q 31.25 6.0625 34.171875 8.515625 
Q 37.109375 10.984375 37.109375 14.3125 
Q 37.109375 17.28125 34.515625 19 
Q 32.71875 20.171875 25.53125 21.96875 
Q 15.875 24.421875 12.140625 26.203125 
Q 8.40625 27.984375 6.46875 31.125 
Q 4.546875 34.28125 4.546875 38.09375 
Q 4.546875 41.546875 6.125 44.5 
Q 7.71875 47.46875 10.453125 49.421875 
Q 12.5 50.921875 16.03125 51.96875 
Q 19.578125 53.03125 23.640625 53.03125 
Q 29.734375 53.03125 34.34375 51.265625 
Q 38.96875 49.515625 41.15625 46.5 
Q 43.359375 43.5 44.1875 38.484375 
L 35.59375 37.3125 
Q 35.015625 41.3125 32.203125 43.546875 
Q 29.390625 45.796875 24.265625 45.796875 
Q 18.21875 45.796875 15.625 43.796875 
Q 13.03125 41.796875 13.03125 39.109375 
Q 13.03125 37.40625 14.109375 36.03125 
Q 15.1875 34.625 17.484375 33.6875 
Q 18.796875 33.203125 25.25 31.453125 
Q 34.578125 28.953125 38.25 27.359375 
Q 41.9375 25.78125 44.03125 22.75 
Q 46.140625 19.734375 46.140625 15.234375 
Q 46.140625 10.84375 43.578125 6.953125 
Q 41.015625 3.078125 36.171875 0.953125 
Q 31.34375 -1.171875 25.25 -1.171875 
Q 15.140625 -1.171875 9.84375 3.03125 
Q 4.546875 7.234375 3.078125 15.484375 
z
" id="ArialMT-115"/>
       <path d="M 12.359375 -21.046875 
L 6.0625 -21.046875 
Q 20.65625 2.390625 20.65625 25.875 
Q 20.65625 35.0625 18.5625 44.09375 
Q 16.890625 51.421875 13.921875 58.15625 
Q 12.015625 62.546875 6.0625 72.796875 
L 12.359375 72.796875 
Q 21.53125 60.546875 25.921875 48.1875 
Q 29.6875 37.546875 29.6875 25.921875 
Q 29.6875 12.75 24.625 0.4375 
Q 19.578125 -11.859375 12.359375 -21.046875 
z
" id="ArialMT-41"/>
      </defs>
      <g style="fill:#262626;" transform="translate(35.668859 381.76355)scale(0.14 -0.14)">
       <use xlink:href="#ArialMT-83"/>
       <use x="66.699219" xlink:href="#ArialMT-117"/>
       <use x="122.314453" xlink:href="#ArialMT-110"/>
       <use x="177.929688" xlink:href="#ArialMT-100"/>
       <use x="233.544922" xlink:href="#ArialMT-97"/>
       <use x="289.160156" xlink:href="#ArialMT-121"/>
       <use x="339.160156" xlink:href="#ArialMT-32"/>
       <use x="366.943359" xlink:href="#ArialMT-40"/>
       <use x="400.244141" xlink:href="#ArialMT-68"/>
       <use x="472.460938" xlink:href="#ArialMT-83"/>
       <use x="539.160156" xlink:href="#ArialMT-84"/>
       <use x="598.494141" xlink:href="#ArialMT-32"/>
       <use x="626.277344" xlink:href="#ArialMT-69"/>
       <use x="692.976562" xlink:href="#ArialMT-110"/>
       <use x="748.591797" xlink:href="#ArialMT-100"/>
       <use x="804.207031" xlink:href="#ArialMT-115"/>
       <use x="854.207031" xlink:href="#ArialMT-41"/>
      </g>
     </g>
    </g>
    <g id="xtick_2">
     <g id="text_2">
      <!-- Monday -->
      <defs>
       <path d="M 7.421875 0 
L 7.421875 71.578125 
L 21.6875 71.578125 
L 38.625 20.90625 
Q 40.96875 13.8125 42.046875 10.296875 
Q 43.265625 14.203125 45.84375 21.78125 
L 62.984375 71.578125 
L 75.734375 71.578125 
L 75.734375 0 
L 66.609375 0 
L 66.609375 59.90625 
L 45.796875 0 
L 37.25 0 
L 16.546875 60.9375 
L 16.546875 0 
z
" id="ArialMT-77"/>
       <path d="M 3.328125 25.921875 
Q 3.328125 40.328125 11.328125 47.265625 
Q 18.015625 53.03125 27.640625 53.03125 
Q 38.328125 53.03125 45.109375 46.015625 
Q 51.90625 39.015625 51.90625 26.65625 
Q 51.90625 16.65625 48.90625 10.90625 
Q 45.90625 5.171875 40.15625 2 
Q 34.421875 -1.171875 27.640625 -1.171875 
Q 16.75 -1.171875 10.03125 5.8125 
Q 3.328125 12.796875 3.328125 25.921875 
z
M 12.359375 25.921875 
Q 12.359375 15.96875 16.703125 11.015625 
Q 21.046875 6.0625 27.640625 6.0625 
Q 34.1875 6.0625 38.53125 11.03125 
Q 42.875 16.015625 42.875 26.21875 
Q 42.875 35.84375 38.5 40.796875 
Q 34.125 45.75 27.640625 45.75 
Q 21.046875 45.75 16.703125 40.8125 
Q 12.359375 35.890625 12.359375 25.921875 
z
" id="ArialMT-111"/>
      </defs>
      <g style="fill:#262626;" transform="translate(168.547408 381.592925)scale(0.14 -0.14)">
       <use xlink:href="#ArialMT-77"/>
       <use x="83.300781" xlink:href="#ArialMT-111"/>
       <use x="138.916016" xlink:href="#ArialMT-110"/>
       <use x="194.53125" xlink:href="#ArialMT-100"/>
       <use x="250.146484" xlink:href="#ArialMT-97"/>
       <use x="305.761719" xlink:href="#ArialMT-121"/>
      </g>
     </g>
    </g>
    <g id="xtick_3">
     <g id="text_3">
      <!-- Tuesday -->
      <defs>
       <path d="M 42.09375 16.703125 
L 51.171875 15.578125 
Q 49.03125 7.625 43.21875 3.21875 
Q 37.40625 -1.171875 28.375 -1.171875 
Q 17 -1.171875 10.328125 5.828125 
Q 3.65625 12.84375 3.65625 25.484375 
Q 3.65625 38.578125 10.390625 45.796875 
Q 17.140625 53.03125 27.875 53.03125 
Q 38.28125 53.03125 44.875 45.953125 
Q 51.46875 38.875 51.46875 26.03125 
Q 51.46875 25.25 51.421875 23.6875 
L 12.75 23.6875 
Q 13.234375 15.140625 17.578125 10.59375 
Q 21.921875 6.0625 28.421875 6.0625 
Q 33.25 6.0625 36.671875 8.59375 
Q 40.09375 11.140625 42.09375 16.703125 
z
M 13.234375 30.90625 
L 42.1875 30.90625 
Q 41.609375 37.453125 38.875 40.71875 
Q 34.671875 45.796875 27.984375 45.796875 
Q 21.921875 45.796875 17.796875 41.75 
Q 13.671875 37.703125 13.234375 30.90625 
z
" id="ArialMT-101"/>
      </defs>
      <g style="fill:#262626;" transform="translate(262.522363 381.592925)scale(0.14 -0.14)">
       <use xlink:href="#ArialMT-84"/>
       <use x="57.333984" xlink:href="#ArialMT-117"/>
       <use x="112.949219" xlink:href="#ArialMT-101"/>
       <use x="168.564453" xlink:href="#ArialMT-115"/>
       <use x="218.564453" xlink:href="#ArialMT-100"/>
       <use x="274.179688" xlink:href="#ArialMT-97"/>
       <use x="329.794922" xlink:href="#ArialMT-121"/>
      </g>
     </g>
    </g>
    <g id="xtick_4">
     <g id="text_4">
      <!-- Wednesday -->
      <defs>
       <path d="M 20.21875 0 
L 1.21875 71.578125 
L 10.9375 71.578125 
L 21.828125 24.65625 
Q 23.578125 17.28125 24.859375 10.015625 
Q 27.59375 21.484375 28.078125 23.25 
L 41.703125 71.578125 
L 53.125 71.578125 
L 63.375 35.359375 
Q 67.234375 21.875 68.953125 10.015625 
Q 70.3125 16.796875 72.515625 25.59375 
L 83.734375 71.578125 
L 93.265625 71.578125 
L 73.640625 0 
L 64.5 0 
L 49.421875 54.546875 
Q 47.515625 61.375 47.171875 62.9375 
Q 46.046875 58.015625 45.0625 54.546875 
L 29.890625 0 
z
" id="ArialMT-87"/>
      </defs>
      <g style="fill:#262626;" transform="translate(347.922319 381.592925)scale(0.14 -0.14)">
       <use xlink:href="#ArialMT-87"/>
       <use x="92.634766" xlink:href="#ArialMT-101"/>
       <use x="148.25" xlink:href="#ArialMT-100"/>
       <use x="203.865234" xlink:href="#ArialMT-110"/>
       <use x="259.480469" xlink:href="#ArialMT-101"/>
       <use x="315.095703" xlink:href="#ArialMT-115"/>
       <use x="365.095703" xlink:href="#ArialMT-100"/>
       <use x="420.710938" xlink:href="#ArialMT-97"/>
       <use x="476.326172" xlink:href="#ArialMT-121"/>
      </g>
     </g>
    </g>
    <g id="xtick_5">
     <g id="text_5">
      <!-- Thursday -->
      <defs>
       <path d="M 6.59375 0 
L 6.59375 71.578125 
L 15.375 71.578125 
L 15.375 45.90625 
Q 21.53125 53.03125 30.90625 53.03125 
Q 36.671875 53.03125 40.921875 50.75 
Q 45.171875 48.484375 47 44.484375 
Q 48.828125 40.484375 48.828125 32.859375 
L 48.828125 0 
L 40.046875 0 
L 40.046875 32.859375 
Q 40.046875 39.453125 37.1875 42.453125 
Q 34.328125 45.453125 29.109375 45.453125 
Q 25.203125 45.453125 21.75 43.421875 
Q 18.3125 41.40625 16.84375 37.9375 
Q 15.375 34.46875 15.375 28.375 
L 15.375 0 
z
" id="ArialMT-104"/>
       <path d="M 6.5 0 
L 6.5 51.859375 
L 14.40625 51.859375 
L 14.40625 44 
Q 17.4375 49.515625 20 51.265625 
Q 22.5625 53.03125 25.640625 53.03125 
Q 30.078125 53.03125 34.671875 50.203125 
L 31.640625 42.046875 
Q 28.421875 43.953125 25.203125 43.953125 
Q 22.3125 43.953125 20.015625 42.21875 
Q 17.71875 40.484375 16.75 37.40625 
Q 15.28125 32.71875 15.28125 27.15625 
L 15.28125 0 
z
" id="ArialMT-114"/>
      </defs>
      <g style="fill:#262626;" transform="translate(451.243368 381.592925)scale(0.14 -0.14)">
       <use xlink:href="#ArialMT-84"/>
       <use x="61.083984" xlink:href="#ArialMT-104"/>
       <use x="116.699219" xlink:href="#ArialMT-117"/>
       <use x="172.314453" xlink:href="#ArialMT-114"/>
       <use x="205.615234" xlink:href="#ArialMT-115"/>
       <use x="255.615234" xlink:href="#ArialMT-100"/>
       <use x="311.230469" xlink:href="#ArialMT-97"/>
       <use x="366.845703" xlink:href="#ArialMT-121"/>
      </g>
     </g>
    </g>
    <g id="xtick_6">
     <g id="text_6">
      <!-- Friday -->
      <defs>
       <path d="M 8.203125 0 
L 8.203125 71.578125 
L 56.5 71.578125 
L 56.5 63.140625 
L 17.671875 63.140625 
L 17.671875 40.96875 
L 51.265625 40.96875 
L 51.265625 32.515625 
L 17.671875 32.515625 
L 17.671875 0 
z
" id="ArialMT-70"/>
       <path d="M 6.640625 61.46875 
L 6.640625 71.578125 
L 15.4375 71.578125 
L 15.4375 61.46875 
z
M 6.640625 0 
L 6.640625 51.859375 
L 15.4375 51.859375 
L 15.4375 0 
z
" id="ArialMT-105"/>
      </defs>
      <g style="fill:#262626;" transform="translate(556.630511 381.592925)scale(0.14 -0.14)">
       <use xlink:href="#ArialMT-70"/>
       <use x="61.083984" xlink:href="#ArialMT-114"/>
       <use x="94.384766" xlink:href="#ArialMT-105"/>
       <use x="116.601562" xlink:href="#ArialMT-100"/>
       <use x="172.216797" xlink:href="#ArialMT-97"/>
       <use x="227.832031" xlink:href="#ArialMT-121"/>
      </g>
     </g>
    </g>
    <g id="xtick_7">
     <g id="text_7">
      <!-- Saturday -->
      <defs>
       <path d="M 25.78125 7.859375 
L 27.046875 0.09375 
Q 23.34375 -0.6875 20.40625 -0.6875 
Q 15.625 -0.6875 12.984375 0.828125 
Q 10.359375 2.34375 9.28125 4.8125 
Q 8.203125 7.28125 8.203125 15.1875 
L 8.203125 45.015625 
L 1.765625 45.015625 
L 1.765625 51.859375 
L 8.203125 51.859375 
L 8.203125 64.703125 
L 16.9375 69.96875 
L 16.9375 51.859375 
L 25.78125 51.859375 
L 25.78125 45.015625 
L 16.9375 45.015625 
L 16.9375 14.703125 
Q 16.9375 10.9375 17.40625 9.859375 
Q 17.875 8.796875 18.921875 8.15625 
Q 19.96875 7.515625 21.921875 7.515625 
Q 23.390625 7.515625 25.78125 7.859375 
z
" id="ArialMT-116"/>
      </defs>
      <g style="fill:#262626;" transform="translate(643.719216 381.76355)scale(0.14 -0.14)">
       <use xlink:href="#ArialMT-83"/>
       <use x="66.699219" xlink:href="#ArialMT-97"/>
       <use x="122.314453" xlink:href="#ArialMT-116"/>
       <use x="150.097656" xlink:href="#ArialMT-117"/>
       <use x="205.712891" xlink:href="#ArialMT-114"/>
       <use x="239.013672" xlink:href="#ArialMT-100"/>
       <use x="294.628906" xlink:href="#ArialMT-97"/>
       <use x="350.244141" xlink:href="#ArialMT-121"/>
      </g>
     </g>
    </g>
   </g>
   <g id="matplotlib.axis_2">
    <g id="ytick_1">
     <g id="text_8">
      <!-- 0.4 -->
      <defs>
       <path d="M 4.15625 35.296875 
Q 4.15625 48 6.765625 55.734375 
Q 9.375 63.484375 14.515625 67.671875 
Q 19.671875 71.875 27.484375 71.875 
Q 33.25 71.875 37.59375 69.546875 
Q 41.9375 67.234375 44.765625 62.859375 
Q 47.609375 58.5 49.21875 52.21875 
Q 50.828125 45.953125 50.828125 35.296875 
Q 50.828125 22.703125 48.234375 14.96875 
Q 45.65625 7.234375 40.5 3 
Q 35.359375 -1.21875 27.484375 -1.21875 
Q 17.140625 -1.21875 11.234375 6.203125 
Q 4.15625 15.140625 4.15625 35.296875 
z
M 13.1875 35.296875 
Q 13.1875 17.671875 17.3125 11.828125 
Q 21.4375 6 27.484375 6 
Q 33.546875 6 37.671875 11.859375 
Q 41.796875 17.71875 41.796875 35.296875 
Q 41.796875 52.984375 37.671875 58.78125 
Q 33.546875 64.59375 27.390625 64.59375 
Q 21.34375 64.59375 17.71875 59.46875 
Q 13.1875 52.9375 13.1875 35.296875 
z
" id="ArialMT-48"/>
       <path d="M 9.078125 0 
L 9.078125 10.015625 
L 19.09375 10.015625 
L 19.09375 0 
z
" id="ArialMT-46"/>
       <path d="M 32.328125 0 
L 32.328125 17.140625 
L 1.265625 17.140625 
L 1.265625 25.203125 
L 33.9375 71.578125 
L 41.109375 71.578125 
L 41.109375 25.203125 
L 50.78125 25.203125 
L 50.78125 17.140625 
L 41.109375 17.140625 
L 41.109375 0 
z
M 32.328125 25.203125 
L 32.328125 57.46875 
L 9.90625 25.203125 
z
" id="ArialMT-52"/>
      </defs>
      <g style="fill:#262626;" transform="translate(27.0031 368.759578)scale(0.14 -0.14)">
       <use xlink:href="#ArialMT-48"/>
       <use x="55.615234" xlink:href="#ArialMT-46"/>
       <use x="83.398438" xlink:href="#ArialMT-52"/>
      </g>
     </g>
    </g>
    <g id="ytick_2">
     <g id="text_9">
      <!-- 0.6 -->
      <defs>
       <path d="M 49.75 54.046875 
L 41.015625 53.375 
Q 39.84375 58.546875 37.703125 60.890625 
Q 34.125 64.65625 28.90625 64.65625 
Q 24.703125 64.65625 21.53125 62.3125 
Q 17.390625 59.28125 14.984375 53.46875 
Q 12.59375 47.65625 12.5 36.921875 
Q 15.671875 41.75 20.265625 44.09375 
Q 24.859375 46.4375 29.890625 46.4375 
Q 38.671875 46.4375 44.84375 39.96875 
Q 51.03125 33.5 51.03125 23.25 
Q 51.03125 16.5 48.125 10.71875 
Q 45.21875 4.9375 40.140625 1.859375 
Q 35.0625 -1.21875 28.609375 -1.21875 
Q 17.625 -1.21875 10.6875 6.859375 
Q 3.765625 14.9375 3.765625 33.5 
Q 3.765625 54.25 11.421875 63.671875 
Q 18.109375 71.875 29.4375 71.875 
Q 37.890625 71.875 43.28125 67.140625 
Q 48.6875 62.40625 49.75 54.046875 
z
M 13.875 23.1875 
Q 13.875 18.65625 15.796875 14.5 
Q 17.71875 10.359375 21.1875 8.171875 
Q 24.65625 6 28.46875 6 
Q 34.03125 6 38.03125 10.484375 
Q 42.046875 14.984375 42.046875 22.703125 
Q 42.046875 30.125 38.078125 34.390625 
Q 34.125 38.671875 28.125 38.671875 
Q 22.171875 38.671875 18.015625 34.390625 
Q 13.875 30.125 13.875 23.1875 
z
" id="ArialMT-54"/>
      </defs>
      <g style="fill:#262626;" transform="translate(27.0031 320.333737)scale(0.14 -0.14)">
       <use xlink:href="#ArialMT-48"/>
       <use x="55.615234" xlink:href="#ArialMT-46"/>
       <use x="83.398438" xlink:href="#ArialMT-54"/>
      </g>
     </g>
    </g>
    <g id="ytick_3">
     <g id="text_10">
      <!-- 0.8 -->
      <defs>
       <path d="M 17.671875 38.8125 
Q 12.203125 40.828125 9.5625 44.53125 
Q 6.9375 48.25 6.9375 53.421875 
Q 6.9375 61.234375 12.546875 66.546875 
Q 18.171875 71.875 27.484375 71.875 
Q 36.859375 71.875 42.578125 66.421875 
Q 48.296875 60.984375 48.296875 53.171875 
Q 48.296875 48.1875 45.671875 44.5 
Q 43.0625 40.828125 37.75 38.8125 
Q 44.34375 36.671875 47.78125 31.875 
Q 51.21875 27.09375 51.21875 20.453125 
Q 51.21875 11.28125 44.71875 5.03125 
Q 38.234375 -1.21875 27.640625 -1.21875 
Q 17.046875 -1.21875 10.546875 5.046875 
Q 4.046875 11.328125 4.046875 20.703125 
Q 4.046875 27.6875 7.59375 32.390625 
Q 11.140625 37.109375 17.671875 38.8125 
z
M 15.921875 53.71875 
Q 15.921875 48.640625 19.1875 45.40625 
Q 22.46875 42.1875 27.6875 42.1875 
Q 32.765625 42.1875 36.015625 45.375 
Q 39.265625 48.578125 39.265625 53.21875 
Q 39.265625 58.0625 35.90625 61.359375 
Q 32.5625 64.65625 27.59375 64.65625 
Q 22.5625 64.65625 19.234375 61.421875 
Q 15.921875 58.203125 15.921875 53.71875 
z
M 13.09375 20.65625 
Q 13.09375 16.890625 14.875 13.375 
Q 16.65625 9.859375 20.171875 7.921875 
Q 23.6875 6 27.734375 6 
Q 34.03125 6 38.125 10.046875 
Q 42.234375 14.109375 42.234375 20.359375 
Q 42.234375 26.703125 38.015625 30.859375 
Q 33.796875 35.015625 27.4375 35.015625 
Q 21.234375 35.015625 17.15625 30.90625 
Q 13.09375 26.8125 13.09375 20.65625 
z
" id="ArialMT-56"/>
      </defs>
      <g style="fill:#262626;" transform="translate(27.0031 271.907897)scale(0.14 -0.14)">
       <use xlink:href="#ArialMT-48"/>
       <use x="55.615234" xlink:href="#ArialMT-46"/>
       <use x="83.398438" xlink:href="#ArialMT-56"/>
      </g>
     </g>
    </g>
    <g id="ytick_4">
     <g id="text_11">
      <!-- 1.0 -->
      <defs>
       <path d="M 37.25 0 
L 28.46875 0 
L 28.46875 56 
Q 25.296875 52.984375 20.140625 49.953125 
Q 14.984375 46.921875 10.890625 45.40625 
L 10.890625 53.90625 
Q 18.265625 57.375 23.78125 62.296875 
Q 29.296875 67.234375 31.59375 71.875 
L 37.25 71.875 
z
" id="ArialMT-49"/>
      </defs>
      <g style="fill:#262626;" transform="translate(27.0031 223.482057)scale(0.14 -0.14)">
       <use xlink:href="#ArialMT-49"/>
       <use x="55.615234" xlink:href="#ArialMT-46"/>
       <use x="83.398438" xlink:href="#ArialMT-48"/>
      </g>
     </g>
    </g>
    <g id="ytick_5">
     <g id="text_12">
      <!-- 1.2 -->
      <defs>
       <path d="M 50.34375 8.453125 
L 50.34375 0 
L 3.03125 0 
Q 2.9375 3.171875 4.046875 6.109375 
Q 5.859375 10.9375 9.828125 15.625 
Q 13.8125 20.3125 21.34375 26.46875 
Q 33.015625 36.03125 37.109375 41.625 
Q 41.21875 47.21875 41.21875 52.203125 
Q 41.21875 57.421875 37.46875 61 
Q 33.734375 64.59375 27.734375 64.59375 
Q 21.390625 64.59375 17.578125 60.78125 
Q 13.765625 56.984375 13.71875 50.25 
L 4.6875 51.171875 
Q 5.609375 61.28125 11.65625 66.578125 
Q 17.71875 71.875 27.9375 71.875 
Q 38.234375 71.875 44.234375 66.15625 
Q 50.25 60.453125 50.25 52 
Q 50.25 47.703125 48.484375 43.546875 
Q 46.734375 39.40625 42.65625 34.8125 
Q 38.578125 30.21875 29.109375 22.21875 
Q 21.1875 15.578125 18.9375 13.203125 
Q 16.703125 10.84375 15.234375 8.453125 
z
" id="ArialMT-50"/>
      </defs>
      <g style="fill:#262626;" transform="translate(27.0031 175.056217)scale(0.14 -0.14)">
       <use xlink:href="#ArialMT-49"/>
       <use x="55.615234" xlink:href="#ArialMT-46"/>
       <use x="83.398438" xlink:href="#ArialMT-50"/>
      </g>
     </g>
    </g>
    <g id="ytick_6">
     <g id="text_13">
      <!-- 1.4 -->
      <g style="fill:#262626;" transform="translate(27.0031 126.630376)scale(0.14 -0.14)">
       <use xlink:href="#ArialMT-49"/>
       <use x="55.615234" xlink:href="#ArialMT-46"/>
       <use x="83.398438" xlink:href="#ArialMT-52"/>
      </g>
     </g>
    </g>
    <g id="ytick_7">
     <g id="text_14">
      <!-- 1.6 -->
      <g style="fill:#262626;" transform="translate(27.0031 78.204536)scale(0.14 -0.14)">
       <use xlink:href="#ArialMT-49"/>
       <use x="55.615234" xlink:href="#ArialMT-46"/>
       <use x="83.398438" xlink:href="#ArialMT-54"/>
      </g>
     </g>
    </g>
    <g id="text_15">
     <!-- Crash Ratio: End DST Week / Week After -->
     <defs>
      <path d="M 58.796875 25.09375 
L 68.265625 22.703125 
Q 65.28125 11.03125 57.546875 4.90625 
Q 49.8125 -1.21875 38.625 -1.21875 
Q 27.046875 -1.21875 19.796875 3.484375 
Q 12.546875 8.203125 8.765625 17.140625 
Q 4.984375 26.078125 4.984375 36.328125 
Q 4.984375 47.515625 9.25 55.828125 
Q 13.53125 64.15625 21.40625 68.46875 
Q 29.296875 72.796875 38.765625 72.796875 
Q 49.515625 72.796875 56.828125 67.328125 
Q 64.15625 61.859375 67.046875 51.953125 
L 57.71875 49.75 
Q 55.21875 57.5625 50.484375 61.125 
Q 45.75 64.703125 38.578125 64.703125 
Q 30.328125 64.703125 24.78125 60.734375 
Q 19.234375 56.78125 16.984375 50.109375 
Q 14.75 43.453125 14.75 36.375 
Q 14.75 27.25 17.40625 20.4375 
Q 20.0625 13.625 25.671875 10.25 
Q 31.296875 6.890625 37.84375 6.890625 
Q 45.796875 6.890625 51.3125 11.46875 
Q 56.84375 16.0625 58.796875 25.09375 
z
" id="ArialMT-67"/>
      <path d="M 7.859375 0 
L 7.859375 71.578125 
L 39.59375 71.578125 
Q 49.171875 71.578125 54.140625 69.640625 
Q 59.125 67.71875 62.109375 62.828125 
Q 65.09375 57.953125 65.09375 52.046875 
Q 65.09375 44.4375 60.15625 39.203125 
Q 55.21875 33.984375 44.921875 32.5625 
Q 48.6875 30.765625 50.640625 29 
Q 54.78125 25.203125 58.5 19.484375 
L 70.953125 0 
L 59.03125 0 
L 49.5625 14.890625 
Q 45.40625 21.34375 42.71875 24.75 
Q 40.046875 28.171875 37.921875 29.53125 
Q 35.796875 30.90625 33.59375 31.453125 
Q 31.984375 31.78125 28.328125 31.78125 
L 17.328125 31.78125 
L 17.328125 0 
z
M 17.328125 39.984375 
L 37.703125 39.984375 
Q 44.1875 39.984375 47.84375 41.328125 
Q 51.515625 42.671875 53.421875 45.625 
Q 55.328125 48.578125 55.328125 52.046875 
Q 55.328125 57.125 51.640625 60.390625 
Q 47.953125 63.671875 39.984375 63.671875 
L 17.328125 63.671875 
z
" id="ArialMT-82"/>
      <path d="M 9.03125 41.84375 
L 9.03125 51.859375 
L 19.046875 51.859375 
L 19.046875 41.84375 
z
M 9.03125 0 
L 9.03125 10.015625 
L 19.046875 10.015625 
L 19.046875 0 
z
" id="ArialMT-58"/>
      <path d="M 6.640625 0 
L 6.640625 71.578125 
L 15.4375 71.578125 
L 15.4375 30.765625 
L 36.234375 51.859375 
L 47.609375 51.859375 
L 27.78125 32.625 
L 49.609375 0 
L 38.765625 0 
L 21.625 26.515625 
L 15.4375 20.5625 
L 15.4375 0 
z
" id="ArialMT-107"/>
      <path d="M 0 -1.21875 
L 20.75 72.796875 
L 27.78125 72.796875 
L 7.078125 -1.21875 
z
" id="ArialMT-47"/>
      <path d="M -0.140625 0 
L 27.34375 71.578125 
L 37.546875 71.578125 
L 66.84375 0 
L 56.0625 0 
L 47.703125 21.6875 
L 17.78125 21.6875 
L 9.90625 0 
z
M 20.515625 29.390625 
L 44.78125 29.390625 
L 37.3125 49.21875 
Q 33.890625 58.25 32.234375 64.0625 
Q 30.859375 57.171875 28.375 50.390625 
z
" id="ArialMT-65"/>
      <path d="M 8.6875 0 
L 8.6875 45.015625 
L 0.921875 45.015625 
L 0.921875 51.859375 
L 8.6875 51.859375 
L 8.6875 57.375 
Q 8.6875 62.59375 9.625 65.140625 
Q 10.890625 68.5625 14.078125 70.671875 
Q 17.28125 72.796875 23.046875 72.796875 
Q 26.765625 72.796875 31.25 71.921875 
L 29.9375 64.265625 
Q 27.203125 64.75 24.75 64.75 
Q 20.75 64.75 19.09375 63.03125 
Q 17.4375 61.328125 17.4375 56.640625 
L 17.4375 51.859375 
L 27.546875 51.859375 
L 27.546875 45.015625 
L 17.4375 45.015625 
L 17.4375 0 
z
" id="ArialMT-102"/>
     </defs>
     <g style="fill:#262626;" transform="translate(19.5687 363.947738)rotate(-90)scale(0.1728 -0.1728)">
      <use xlink:href="#ArialMT-67"/>
      <use x="72.216797" xlink:href="#ArialMT-114"/>
      <use x="105.517578" xlink:href="#ArialMT-97"/>
      <use x="161.132812" xlink:href="#ArialMT-115"/>
      <use x="211.132812" xlink:href="#ArialMT-104"/>
      <use x="266.748047" xlink:href="#ArialMT-32"/>
      <use x="294.53125" xlink:href="#ArialMT-82"/>
      <use x="366.748047" xlink:href="#ArialMT-97"/>
      <use x="422.363281" xlink:href="#ArialMT-116"/>
      <use x="450.146484" xlink:href="#ArialMT-105"/>
      <use x="472.363281" xlink:href="#ArialMT-111"/>
      <use x="527.978516" xlink:href="#ArialMT-58"/>
      <use x="555.761719" xlink:href="#ArialMT-32"/>
      <use x="583.544922" xlink:href="#ArialMT-69"/>
      <use x="650.244141" xlink:href="#ArialMT-110"/>
      <use x="705.859375" xlink:href="#ArialMT-100"/>
      <use x="761.474609" xlink:href="#ArialMT-32"/>
      <use x="789.257812" xlink:href="#ArialMT-68"/>
      <use x="861.474609" xlink:href="#ArialMT-83"/>
      <use x="928.173828" xlink:href="#ArialMT-84"/>
      <use x="987.507812" xlink:href="#ArialMT-32"/>
      <use x="1015.291016" xlink:href="#ArialMT-87"/>
      <use x="1107.925781" xlink:href="#ArialMT-101"/>
      <use x="1163.541016" xlink:href="#ArialMT-101"/>
      <use x="1219.15625" xlink:href="#ArialMT-107"/>
      <use x="1269.15625" xlink:href="#ArialMT-32"/>
      <use x="1296.939453" xlink:href="#ArialMT-47"/>
      <use x="1324.722656" xlink:href="#ArialMT-32"/>
      <use x="1352.505859" xlink:href="#ArialMT-87"/>
      <use x="1445.140625" xlink:href="#ArialMT-101"/>
      <use x="1500.755859" xlink:href="#ArialMT-101"/>
      <use x="1556.371094" xlink:href="#ArialMT-107"/>
      <use x="1606.371094" xlink:href="#ArialMT-32"/>
      <use x="1628.654297" xlink:href="#ArialMT-65"/>
      <use x="1695.353516" xlink:href="#ArialMT-102"/>
      <use x="1723.136719" xlink:href="#ArialMT-116"/>
      <use x="1750.919922" xlink:href="#ArialMT-101"/>
      <use x="1806.535156" xlink:href="#ArialMT-114"/>
     </g>
    </g>
   </g>
   <g id="PolyCollection_1">
    <defs>
     <path d="M 98.433488 -102.009571 
L 97.149855 -102.009571 
L 96.993934 -103.657924 
L 96.81059 -105.306277 
L 96.597808 -106.954631 
L 96.354129 -108.602984 
L 96.078835 -110.251337 
L 95.77211 -111.899691 
L 95.435192 -113.548044 
L 95.070468 -115.196398 
L 94.681529 -116.844751 
L 94.273142 -118.493104 
L 93.85115 -120.141458 
L 93.422274 -121.789811 
L 92.993827 -123.438164 
L 92.573347 -125.086518 
L 92.168155 -126.734871 
L 91.784853 -128.383224 
L 91.428809 -130.031578 
L 91.103638 -131.679931 
L 90.81073 -133.328284 
L 90.548845 -134.976638 
L 90.31383 -136.624991 
L 90.09847 -138.273345 
L 89.892506 -139.921698 
L 89.682832 -141.570051 
L 89.453879 -143.218405 
L 89.188182 -144.866758 
L 88.867109 -146.515111 
L 88.471728 -148.163465 
L 87.983781 -149.811818 
L 87.386716 -151.460171 
L 86.666722 -153.108525 
L 85.813725 -154.756878 
L 84.822278 -156.405231 
L 83.692297 -158.053585 
L 82.42959 -159.701938 
L 81.046134 -161.350292 
L 79.56007 -162.998645 
L 77.995387 -164.646998 
L 76.381305 -166.295352 
L 74.751349 -167.943705 
L 73.142157 -169.592058 
L 71.592062 -171.240412 
L 70.139518 -172.888765 
L 68.82144 -174.537118 
L 67.671552 -176.185472 
L 66.718829 -177.833825 
L 65.986131 -179.482178 
L 65.489107 -181.130532 
L 65.235443 -182.778885 
L 65.224499 -184.427239 
L 65.447369 -186.075592 
L 65.887363 -187.723945 
L 66.520884 -189.372299 
L 67.318653 -191.020652 
L 68.247209 -192.669005 
L 69.270591 -194.317359 
L 70.352111 -195.965712 
L 71.456105 -197.614065 
L 72.549574 -199.262419 
L 73.603608 -200.910772 
L 74.594543 -202.559125 
L 75.504767 -204.207479 
L 76.323177 -205.855832 
L 77.045248 -207.504186 
L 77.67275 -209.152539 
L 78.213139 -210.800892 
L 78.678681 -212.449246 
L 79.085367 -214.097599 
L 79.451703 -215.745952 
L 79.797444 -217.394306 
L 80.142352 -219.042659 
L 80.505043 -220.691012 
L 80.901993 -222.339366 
L 81.346726 -223.987719 
L 81.849243 -225.636072 
L 82.415683 -227.284426 
L 83.048232 -228.932779 
L 83.745256 -230.581133 
L 84.50163 -232.229486 
L 85.309233 -233.877839 
L 86.157564 -235.526193 
L 87.034422 -237.174546 
L 87.926621 -238.822899 
L 88.820681 -240.471253 
L 89.70347 -242.119606 
L 90.562753 -243.767959 
L 91.387646 -245.416313 
L 92.168943 -247.064666 
L 92.899323 -248.713019 
L 93.57344 -250.361373 
L 94.18791 -252.009726 
L 94.7412 -253.65808 
L 95.233452 -255.306433 
L 95.666253 -256.954786 
L 96.042371 -258.60314 
L 96.365488 -260.251493 
L 96.639928 -261.899846 
L 96.870407 -263.5482 
L 97.06181 -265.196553 
L 98.521533 -265.196553 
L 98.521533 -265.196553 
L 98.712936 -263.5482 
L 98.943415 -261.899846 
L 99.217855 -260.251493 
L 99.540972 -258.60314 
L 99.91709 -256.954786 
L 100.34989 -255.306433 
L 100.842143 -253.65808 
L 101.395433 -252.009726 
L 102.009903 -250.361373 
L 102.68402 -248.713019 
L 103.4144 -247.064666 
L 104.195697 -245.416313 
L 105.02059 -243.767959 
L 105.879873 -242.119606 
L 106.762661 -240.471253 
L 107.656722 -238.822899 
L 108.548921 -237.174546 
L 109.425779 -235.526193 
L 110.27411 -233.877839 
L 111.081713 -232.229486 
L 111.838087 -230.581133 
L 112.53511 -228.932779 
L 113.16766 -227.284426 
L 113.7341 -225.636072 
L 114.236616 -223.987719 
L 114.68135 -222.339366 
L 115.078299 -220.691012 
L 115.440991 -219.042659 
L 115.785899 -217.394306 
L 116.13164 -215.745952 
L 116.497976 -214.097599 
L 116.904662 -212.449246 
L 117.370204 -210.800892 
L 117.910593 -209.152539 
L 118.538095 -207.504186 
L 119.260166 -205.855832 
L 120.078576 -204.207479 
L 120.9888 -202.559125 
L 121.979735 -200.910772 
L 123.033769 -199.262419 
L 124.127238 -197.614065 
L 125.231232 -195.965712 
L 126.312752 -194.317359 
L 127.336134 -192.669005 
L 128.26469 -191.020652 
L 129.062459 -189.372299 
L 129.69598 -187.723945 
L 130.135974 -186.075592 
L 130.358844 -184.427239 
L 130.347899 -182.778885 
L 130.094236 -181.130532 
L 129.597212 -179.482178 
L 128.864514 -177.833825 
L 127.911791 -176.185472 
L 126.761903 -174.537118 
L 125.443825 -172.888765 
L 123.991281 -171.240412 
L 122.441186 -169.592058 
L 120.831993 -167.943705 
L 119.202037 -166.295352 
L 117.587956 -164.646998 
L 116.023273 -162.998645 
L 114.537209 -161.350292 
L 113.153753 -159.701938 
L 111.891046 -158.053585 
L 110.761065 -156.405231 
L 109.769618 -154.756878 
L 108.916621 -153.108525 
L 108.196627 -151.460171 
L 107.599562 -149.811818 
L 107.111615 -148.163465 
L 106.716234 -146.515111 
L 106.395161 -144.866758 
L 106.129464 -143.218405 
L 105.900511 -141.570051 
L 105.690837 -139.921698 
L 105.484873 -138.273345 
L 105.269513 -136.624991 
L 105.034498 -134.976638 
L 104.772613 -133.328284 
L 104.479705 -131.679931 
L 104.154534 -130.031578 
L 103.79849 -128.383224 
L 103.415188 -126.734871 
L 103.009995 -125.086518 
L 102.589516 -123.438164 
L 102.161069 -121.789811 
L 101.732193 -120.141458 
L 101.310201 -118.493104 
L 100.901814 -116.844751 
L 100.512875 -115.196398 
L 100.148151 -113.548044 
L 99.811232 -111.899691 
L 99.504508 -110.251337 
L 99.229214 -108.602984 
L 98.985535 -106.954631 
L 98.772752 -105.306277 
L 98.589409 -103.657924 
L 98.433488 -102.009571 
z
" id="m1eab32af71" style="stroke:#414141;stroke-width:2;"/>
    </defs>
    <g clip-path="url(#pc7c20e26e2)">
     <use style="fill:#e68193;stroke:#414141;stroke-width:2;" x="0" xlink:href="#m1eab32af71" y="391.910113"/>
    </g>
   </g>
   <g id="PolyCollection_2">
    <defs>
     <path d="M 193.786899 -77.359847 
L 193.110729 -77.359847 
L 193.025903 -79.88238 
L 192.924862 -82.404913 
L 192.805739 -84.927446 
L 192.666688 -87.449979 
L 192.505917 -89.972512 
L 192.32172 -92.495045 
L 192.112496 -95.017578 
L 191.876773 -97.540111 
L 191.613209 -100.062644 
L 191.320608 -102.585177 
L 190.997918 -105.107711 
L 190.644246 -107.630244 
L 190.258875 -110.152777 
L 189.841299 -112.67531 
L 189.391283 -115.197843 
L 188.90893 -117.720376 
L 188.394784 -120.242909 
L 187.849933 -122.765442 
L 187.276127 -125.287975 
L 186.675883 -127.810508 
L 186.052565 -130.333041 
L 185.410438 -132.855574 
L 184.754649 -135.378108 
L 184.091161 -137.900641 
L 183.426604 -140.423174 
L 182.768064 -142.945707 
L 182.122805 -145.46824 
L 181.497947 -147.990773 
L 180.900121 -150.513306 
L 180.335128 -153.035839 
L 179.807633 -155.558372 
L 179.320919 -158.080905 
L 178.876732 -160.603438 
L 178.475226 -163.125972 
L 178.115028 -165.648505 
L 177.793405 -168.171038 
L 177.506546 -170.693571 
L 177.249908 -173.216104 
L 177.018626 -175.738637 
L 176.807932 -178.26117 
L 176.613572 -180.783703 
L 176.432163 -183.306236 
L 176.261484 -185.828769 
L 176.100669 -188.351302 
L 175.950294 -190.873836 
L 175.812356 -193.396369 
L 175.690142 -195.918902 
L 175.588013 -198.441435 
L 175.511116 -200.963968 
L 175.46504 -203.486501 
L 175.455467 -206.009034 
L 175.487806 -208.531567 
L 175.566873 -211.0541 
L 175.696602 -213.576633 
L 175.879825 -216.099166 
L 176.118125 -218.621699 
L 176.41175 -221.144233 
L 176.759615 -223.666766 
L 177.159357 -226.189299 
L 177.607452 -228.711832 
L 178.099374 -231.234365 
L 178.629788 -233.756898 
L 179.192757 -236.279431 
L 179.781961 -238.801964 
L 180.390903 -241.324497 
L 181.013116 -243.84703 
L 181.642341 -246.369563 
L 182.272687 -248.892097 
L 182.898771 -251.41463 
L 183.515817 -253.937163 
L 184.119744 -256.459696 
L 184.707206 -258.982229 
L 185.275618 -261.504762 
L 185.823134 -264.027295 
L 186.348611 -266.549828 
L 186.851536 -269.072361 
L 187.331926 -271.594894 
L 187.790221 -274.117427 
L 188.227153 -276.639961 
L 188.643619 -279.162494 
L 189.040555 -281.685027 
L 189.418835 -284.20756 
L 189.779174 -286.730093 
L 190.12208 -289.252626 
L 190.447817 -291.775159 
L 190.756417 -294.297692 
L 191.047702 -296.820225 
L 191.321346 -299.342758 
L 191.576941 -301.865291 
L 191.814073 -304.387825 
L 192.032402 -306.910358 
L 192.231728 -309.432891 
L 192.412046 -311.955424 
L 192.573584 -314.477957 
L 192.716816 -317.00049 
L 192.842462 -319.523023 
L 192.951466 -322.045556 
L 193.044963 -324.568089 
L 193.124234 -327.090622 
L 193.773395 -327.090622 
L 193.773395 -327.090622 
L 193.852665 -324.568089 
L 193.946162 -322.045556 
L 194.055167 -319.523023 
L 194.180813 -317.00049 
L 194.324045 -314.477957 
L 194.485583 -311.955424 
L 194.665901 -309.432891 
L 194.865227 -306.910358 
L 195.083556 -304.387825 
L 195.320688 -301.865291 
L 195.576282 -299.342758 
L 195.849926 -296.820225 
L 196.141212 -294.297692 
L 196.449811 -291.775159 
L 196.775549 -289.252626 
L 197.118454 -286.730093 
L 197.478794 -284.20756 
L 197.857073 -281.685027 
L 198.25401 -279.162494 
L 198.670475 -276.639961 
L 199.107407 -274.117427 
L 199.565702 -271.594894 
L 200.046093 -269.072361 
L 200.549017 -266.549828 
L 201.074495 -264.027295 
L 201.622011 -261.504762 
L 202.190422 -258.982229 
L 202.777885 -256.459696 
L 203.381812 -253.937163 
L 203.998858 -251.41463 
L 204.624941 -248.892097 
L 205.255288 -246.369563 
L 205.884512 -243.84703 
L 206.506725 -241.324497 
L 207.115668 -238.801964 
L 207.704871 -236.279431 
L 208.267841 -233.756898 
L 208.798255 -231.234365 
L 209.290177 -228.711832 
L 209.738271 -226.189299 
L 210.138013 -223.666766 
L 210.485878 -221.144233 
L 210.779504 -218.621699 
L 211.017803 -216.099166 
L 211.201027 -213.576633 
L 211.330755 -211.0541 
L 211.409822 -208.531567 
L 211.442162 -206.009034 
L 211.432588 -203.486501 
L 211.386513 -200.963968 
L 211.309615 -198.441435 
L 211.207487 -195.918902 
L 211.085273 -193.396369 
L 210.947335 -190.873836 
L 210.79696 -188.351302 
L 210.636145 -185.828769 
L 210.465466 -183.306236 
L 210.284057 -180.783703 
L 210.089697 -178.26117 
L 209.879003 -175.738637 
L 209.64772 -173.216104 
L 209.391082 -170.693571 
L 209.104223 -168.171038 
L 208.782601 -165.648505 
L 208.422402 -163.125972 
L 208.020897 -160.603438 
L 207.57671 -158.080905 
L 207.089996 -155.558372 
L 206.562501 -153.035839 
L 205.997508 -150.513306 
L 205.399682 -147.990773 
L 204.774824 -145.46824 
L 204.129565 -142.945707 
L 203.471025 -140.423174 
L 202.806468 -137.900641 
L 202.142979 -135.378108 
L 201.48719 -132.855574 
L 200.845063 -130.333041 
L 200.221746 -127.810508 
L 199.621501 -125.287975 
L 199.047695 -122.765442 
L 198.502844 -120.242909 
L 197.988698 -117.720376 
L 197.506346 -115.197843 
L 197.056329 -112.67531 
L 196.638754 -110.152777 
L 196.253382 -107.630244 
L 195.89971 -105.107711 
L 195.577021 -102.585177 
L 195.284419 -100.062644 
L 195.020856 -97.540111 
L 194.785132 -95.017578 
L 194.575909 -92.495045 
L 194.391711 -89.972512 
L 194.230941 -87.449979 
L 194.09189 -84.927446 
L 193.972767 -82.404913 
L 193.871725 -79.88238 
L 193.786899 -77.359847 
z
" id="mc2b0cc5831" style="stroke:#414141;stroke-width:2;"/>
    </defs>
    <g clip-path="url(#pc7c20e26e2)">
     <use style="fill:#b38e44;stroke:#414141;stroke-width:2;" x="0" xlink:href="#mc2b0cc5831" y="391.910113"/>
    </g>
   </g>
   <g id="PolyCollection_3">
    <defs>
     <path d="M 289.969728 -92.552535 
L 288.242186 -92.552535 
L 288.037318 -95.003244 
L 287.794674 -97.453952 
L 287.510018 -99.904661 
L 287.179256 -102.355369 
L 286.798601 -104.806078 
L 286.364735 -107.256786 
L 285.875001 -109.707494 
L 285.327579 -112.158203 
L 284.721658 -114.608911 
L 284.057601 -117.05962 
L 283.337063 -119.510328 
L 282.563081 -121.961037 
L 281.740122 -124.411745 
L 280.874061 -126.862454 
L 279.972118 -129.313162 
L 279.042726 -131.76387 
L 278.095346 -134.214579 
L 277.14023 -136.665287 
L 276.188155 -139.115996 
L 275.250113 -141.566704 
L 274.33701 -144.017413 
L 273.459357 -146.468121 
L 272.62699 -148.918829 
L 271.848832 -151.369538 
L 271.132698 -153.820246 
L 270.485169 -156.270955 
L 269.911533 -158.721663 
L 269.415785 -161.172372 
L 269.000697 -163.62308 
L 268.667932 -166.073788 
L 268.418204 -168.524497 
L 268.25145 -170.975205 
L 268.16701 -173.425914 
L 268.163793 -175.876622 
L 268.240409 -178.327331 
L 268.395258 -180.778039 
L 268.626577 -183.228748 
L 268.932416 -185.679456 
L 269.310584 -188.130164 
L 269.758533 -190.580873 
L 270.273226 -193.031581 
L 270.850982 -195.48229 
L 271.48733 -197.932998 
L 272.176875 -200.383707 
L 272.913212 -202.834415 
L 273.688882 -205.285123 
L 274.49539 -207.735832 
L 275.32329 -210.18654 
L 276.162332 -212.637249 
L 277.001671 -215.087957 
L 277.830124 -217.538666 
L 278.636469 -219.989374 
L 279.409766 -222.440082 
L 280.139687 -224.890791 
L 280.816838 -227.341499 
L 281.433053 -229.792208 
L 281.981662 -232.242916 
L 282.457704 -234.693625 
L 282.858084 -237.144333 
L 283.181672 -239.595042 
L 283.429334 -242.04575 
L 283.603898 -244.496458 
L 283.710054 -246.947167 
L 283.754198 -249.397875 
L 283.744213 -251.848584 
L 283.68921 -254.299292 
L 283.599221 -256.750001 
L 283.484872 -259.200709 
L 283.35703 -261.651417 
L 283.226453 -264.102126 
L 283.103438 -266.552834 
L 282.9975 -269.003543 
L 282.917076 -271.454251 
L 282.869282 -273.90496 
L 282.859718 -276.355668 
L 282.892339 -278.806376 
L 282.969398 -281.257085 
L 283.09145 -283.707793 
L 283.257425 -286.158502 
L 283.464769 -288.60921 
L 283.70963 -291.059919 
L 283.987086 -293.510627 
L 284.291413 -295.961336 
L 284.616352 -298.412044 
L 284.95539 -300.862752 
L 285.30202 -303.313461 
L 285.649985 -305.764169 
L 285.993482 -308.214878 
L 286.327328 -310.665586 
L 286.647082 -313.116295 
L 286.949121 -315.567003 
L 287.230673 -318.017711 
L 287.489805 -320.46842 
L 287.725388 -322.919128 
L 287.937019 -325.369837 
L 288.124933 -327.820545 
L 288.289903 -330.271254 
L 288.433124 -332.721962 
L 288.55611 -335.17267 
L 289.655805 -335.17267 
L 289.655805 -335.17267 
L 289.778791 -332.721962 
L 289.922012 -330.271254 
L 290.086981 -327.820545 
L 290.274896 -325.369837 
L 290.486526 -322.919128 
L 290.722109 -320.46842 
L 290.981242 -318.017711 
L 291.262793 -315.567003 
L 291.564832 -313.116295 
L 291.884586 -310.665586 
L 292.218432 -308.214878 
L 292.561929 -305.764169 
L 292.909894 -303.313461 
L 293.256524 -300.862752 
L 293.595562 -298.412044 
L 293.920501 -295.961336 
L 294.224828 -293.510627 
L 294.502285 -291.059919 
L 294.747145 -288.60921 
L 294.954489 -286.158502 
L 295.120465 -283.707793 
L 295.242516 -281.257085 
L 295.319575 -278.806376 
L 295.352197 -276.355668 
L 295.342632 -273.90496 
L 295.294838 -271.454251 
L 295.214414 -269.003543 
L 295.108476 -266.552834 
L 294.985461 -264.102126 
L 294.854884 -261.651417 
L 294.727043 -259.200709 
L 294.612693 -256.750001 
L 294.522704 -254.299292 
L 294.467701 -251.848584 
L 294.457716 -249.397875 
L 294.50186 -246.947167 
L 294.608017 -244.496458 
L 294.78258 -242.04575 
L 295.030242 -239.595042 
L 295.35383 -237.144333 
L 295.75421 -234.693625 
L 296.230252 -232.242916 
L 296.778861 -229.792208 
L 297.395077 -227.341499 
L 298.072227 -224.890791 
L 298.802148 -222.440082 
L 299.575446 -219.989374 
L 300.381791 -217.538666 
L 301.210243 -215.087957 
L 302.049582 -212.637249 
L 302.888624 -210.18654 
L 303.716524 -207.735832 
L 304.523032 -205.285123 
L 305.298702 -202.834415 
L 306.035039 -200.383707 
L 306.724584 -197.932998 
L 307.360932 -195.48229 
L 307.938688 -193.031581 
L 308.453381 -190.580873 
L 308.90133 -188.130164 
L 309.279498 -185.679456 
L 309.585338 -183.228748 
L 309.816656 -180.778039 
L 309.971506 -178.327331 
L 310.048121 -175.876622 
L 310.044904 -173.425914 
L 309.960464 -170.975205 
L 309.79371 -168.524497 
L 309.543982 -166.073788 
L 309.211218 -163.62308 
L 308.796129 -161.172372 
L 308.300381 -158.721663 
L 307.726745 -156.270955 
L 307.079216 -153.820246 
L 306.363082 -151.369538 
L 305.584924 -148.918829 
L 304.752558 -146.468121 
L 303.874905 -144.017413 
L 302.961802 -141.566704 
L 302.02376 -139.115996 
L 301.071684 -136.665287 
L 300.116569 -134.214579 
L 299.169188 -131.76387 
L 298.239796 -129.313162 
L 297.337853 -126.862454 
L 296.471792 -124.411745 
L 295.648833 -121.961037 
L 294.874852 -119.510328 
L 294.154313 -117.05962 
L 293.490256 -114.608911 
L 292.884336 -112.158203 
L 292.336913 -109.707494 
L 291.847179 -107.256786 
L 291.413314 -104.806078 
L 291.032658 -102.355369 
L 290.701897 -99.904661 
L 290.41724 -97.453952 
L 290.174596 -95.003244 
L 289.969728 -92.552535 
z
" id="m84336f7118" style="stroke:#414141;stroke-width:2;"/>
    </defs>
    <g clip-path="url(#pc7c20e26e2)">
     <use style="fill:#7d9a40;stroke:#414141;stroke-width:2;" x="0" xlink:href="#m84336f7118" y="391.910113"/>
    </g>
   </g>
   <g id="PolyCollection_4">
    <defs>
     <path d="M 385.61973 -112.754625 
L 383.90647 -112.754625 
L 383.655306 -114.608442 
L 383.344988 -116.46226 
L 382.965886 -118.316077 
L 382.50793 -120.169894 
L 381.960882 -122.023711 
L 381.314675 -123.877528 
L 380.559812 -125.731345 
L 379.687833 -127.585162 
L 378.691806 -129.43898 
L 377.566863 -131.292797 
L 376.310722 -133.146614 
L 374.924198 -135.000431 
L 373.411664 -136.854248 
L 371.781427 -138.708065 
L 370.045998 -140.561882 
L 368.222212 -142.4157 
L 366.33119 -144.269517 
L 364.3981 -146.123334 
L 362.451713 -147.977151 
L 360.523748 -149.830968 
L 358.648014 -151.684785 
L 356.859362 -153.538603 
L 355.192502 -155.39242 
L 353.680717 -157.246237 
L 352.354556 -159.100054 
L 351.240581 -160.953871 
L 350.360237 -162.807688 
L 349.728937 -164.661505 
L 349.355423 -166.515323 
L 349.241468 -168.36914 
L 349.381923 -170.222957 
L 349.765146 -172.076774 
L 350.373747 -173.930591 
L 351.185624 -175.784408 
L 352.175182 -177.638225 
L 353.314664 -179.492043 
L 354.575466 -181.34586 
L 355.929358 -183.199677 
L 357.349516 -185.053494 
L 358.811307 -186.907311 
L 360.292801 -188.761128 
L 361.774997 -190.614945 
L 363.241816 -192.468763 
L 364.679881 -194.32258 
L 366.078183 -196.176397 
L 367.427683 -198.030214 
L 368.720927 -199.884031 
L 369.951732 -201.737848 
L 371.114965 -203.591666 
L 372.206443 -205.445483 
L 373.222936 -207.2993 
L 374.162246 -209.153117 
L 375.023325 -211.006934 
L 375.806389 -212.860751 
L 376.51298 -214.714568 
L 377.145951 -216.568386 
L 377.70935 -218.422203 
L 378.208207 -220.27602 
L 378.648234 -222.129837 
L 379.03547 -223.983654 
L 379.375909 -225.837471 
L 379.675149 -227.691288 
L 379.938106 -229.545106 
L 380.168825 -231.398923 
L 380.370403 -233.25274 
L 380.545034 -235.106557 
L 380.694171 -236.960374 
L 380.818771 -238.814191 
L 380.919605 -240.668008 
L 380.997582 -242.521826 
L 381.054053 -244.375643 
L 381.091058 -246.22946 
L 381.111479 -248.083277 
L 381.119094 -249.937094 
L 381.118505 -251.790911 
L 381.114967 -253.644729 
L 381.114119 -255.498546 
L 381.121659 -257.352363 
L 381.142977 -259.20618 
L 381.182807 -261.059997 
L 381.244911 -262.913814 
L 381.33183 -264.767631 
L 381.444736 -266.621449 
L 381.583373 -268.475266 
L 381.746113 -270.329083 
L 381.930101 -272.1829 
L 382.131479 -274.036717 
L 382.345664 -275.890534 
L 382.567662 -277.744351 
L 382.792372 -279.598169 
L 383.014885 -281.451986 
L 383.230723 -283.305803 
L 383.436039 -285.15962 
L 383.627742 -287.013437 
L 383.803563 -288.867254 
L 383.962061 -290.721071 
L 384.102573 -292.574889 
L 384.225131 -294.428706 
L 384.330345 -296.282523 
L 385.195855 -296.282523 
L 385.195855 -296.282523 
L 385.301069 -294.428706 
L 385.423627 -292.574889 
L 385.564139 -290.721071 
L 385.722637 -288.867254 
L 385.898458 -287.013437 
L 386.090161 -285.15962 
L 386.295477 -283.305803 
L 386.511315 -281.451986 
L 386.733828 -279.598169 
L 386.958538 -277.744351 
L 387.180536 -275.890534 
L 387.394721 -274.036717 
L 387.596099 -272.1829 
L 387.780087 -270.329083 
L 387.942827 -268.475266 
L 388.081464 -266.621449 
L 388.19437 -264.767631 
L 388.281289 -262.913814 
L 388.343393 -261.059997 
L 388.383223 -259.20618 
L 388.404541 -257.352363 
L 388.412081 -255.498546 
L 388.411233 -253.644729 
L 388.407695 -251.790911 
L 388.407106 -249.937094 
L 388.414721 -248.083277 
L 388.435142 -246.22946 
L 388.472147 -244.375643 
L 388.528618 -242.521826 
L 388.606595 -240.668008 
L 388.707429 -238.814191 
L 388.832029 -236.960374 
L 388.981166 -235.106557 
L 389.155797 -233.25274 
L 389.357375 -231.398923 
L 389.588094 -229.545106 
L 389.851051 -227.691288 
L 390.150291 -225.837471 
L 390.49073 -223.983654 
L 390.877966 -222.129837 
L 391.317993 -220.27602 
L 391.81685 -218.422203 
L 392.380249 -216.568386 
L 393.01322 -214.714568 
L 393.719811 -212.860751 
L 394.502875 -211.006934 
L 395.363954 -209.153117 
L 396.303264 -207.2993 
L 397.319757 -205.445483 
L 398.411235 -203.591666 
L 399.574468 -201.737848 
L 400.805273 -199.884031 
L 402.098517 -198.030214 
L 403.448017 -196.176397 
L 404.846319 -194.32258 
L 406.284384 -192.468763 
L 407.751203 -190.614945 
L 409.233399 -188.761128 
L 410.714893 -186.907311 
L 412.176684 -185.053494 
L 413.596842 -183.199677 
L 414.950734 -181.34586 
L 416.211536 -179.492043 
L 417.351018 -177.638225 
L 418.340576 -175.784408 
L 419.152453 -173.930591 
L 419.761054 -172.076774 
L 420.144277 -170.222957 
L 420.284732 -168.36914 
L 420.170777 -166.515323 
L 419.797263 -164.661505 
L 419.165963 -162.807688 
L 418.285619 -160.953871 
L 417.171644 -159.100054 
L 415.845483 -157.246237 
L 414.333698 -155.39242 
L 412.666838 -153.538603 
L 410.878186 -151.684785 
L 409.002452 -149.830968 
L 407.074487 -147.977151 
L 405.1281 -146.123334 
L 403.19501 -144.269517 
L 401.303988 -142.4157 
L 399.480202 -140.561882 
L 397.744773 -138.708065 
L 396.114536 -136.854248 
L 394.602002 -135.000431 
L 393.215478 -133.146614 
L 391.959337 -131.292797 
L 390.834394 -129.43898 
L 389.838367 -127.585162 
L 388.966388 -125.731345 
L 388.211525 -123.877528 
L 387.565318 -122.023711 
L 387.01827 -120.169894 
L 386.560314 -118.316077 
L 386.181212 -116.46226 
L 385.870894 -114.608442 
L 385.61973 -112.754625 
z
" id="m9d0ecc94c3" style="stroke:#414141;stroke-width:2;"/>
    </defs>
    <g clip-path="url(#pc7c20e26e2)">
     <use style="fill:#43a084;stroke:#414141;stroke-width:2;" x="0" xlink:href="#m9d0ecc94c3" y="391.910113"/>
    </g>
   </g>
   <g id="PolyCollection_5">
    <defs>
     <path d="M 481.266614 -90.448633 
L 479.573872 -90.448633 
L 479.343578 -92.208687 
L 479.067726 -93.968741 
L 478.742243 -95.728795 
L 478.363973 -97.488849 
L 477.93099 -99.248904 
L 477.442889 -101.008958 
L 476.900995 -102.769012 
L 476.308476 -104.529066 
L 475.67032 -106.28912 
L 474.99315 -108.049175 
L 474.284871 -109.809229 
L 473.554148 -111.569283 
L 472.809739 -113.329337 
L 472.05972 -115.089392 
L 471.310666 -116.849446 
L 470.566839 -118.6095 
L 469.829488 -120.369554 
L 469.096318 -122.129608 
L 468.361209 -123.889663 
L 467.614243 -125.649717 
L 466.842076 -127.409771 
L 466.028667 -129.169825 
L 465.156339 -130.92988 
L 464.207132 -132.689934 
L 463.164358 -134.449988 
L 462.014267 -136.210042 
L 460.747698 -137.970096 
L 459.361589 -139.730151 
L 457.860223 -141.490205 
L 456.256091 -143.250259 
L 454.570279 -145.010313 
L 452.832323 -146.770368 
L 451.07949 -148.530422 
L 449.355506 -150.290476 
L 447.70878 -152.05053 
L 446.190211 -153.810584 
L 444.850707 -155.570639 
L 443.738569 -157.330693 
L 442.896899 -159.090747 
L 442.361207 -160.850801 
L 442.157386 -162.610855 
L 442.300182 -164.37091 
L 442.792284 -166.130964 
L 443.624087 -167.891018 
L 444.774154 -169.651072 
L 446.210343 -171.411127 
L 447.89152 -173.171181 
L 449.769735 -174.931235 
L 451.792709 -176.691289 
L 453.906461 -178.451343 
L 456.057892 -180.211398 
L 458.197163 -181.971452 
L 460.279715 -183.731506 
L 462.267835 -185.49156 
L 464.131668 -187.251615 
L 465.849681 -189.011669 
L 467.408574 -190.771723 
L 468.802711 -192.531777 
L 470.033151 -194.291831 
L 471.106403 -196.051886 
L 472.033024 -197.81194 
L 472.826186 -199.571994 
L 473.500337 -201.332048 
L 474.070034 -203.092103 
L 474.549041 -204.852157 
L 474.949702 -206.612211 
L 475.282627 -208.372265 
L 475.556647 -210.132319 
L 475.779007 -211.892374 
L 475.955719 -213.652428 
L 476.09202 -215.412482 
L 476.192842 -217.172536 
L 476.263236 -218.93259 
L 476.308687 -220.692645 
L 476.335292 -222.452699 
L 476.349768 -224.212753 
L 476.359315 -225.972807 
L 476.371336 -227.732862 
L 476.393062 -229.492916 
L 476.43114 -231.25297 
L 476.491212 -233.013024 
L 476.577552 -234.773078 
L 476.692802 -236.533133 
L 476.837821 -238.293187 
L 477.011674 -240.053241 
L 477.211757 -241.813295 
L 477.434033 -243.57335 
L 477.67337 -245.333404 
L 477.923927 -247.093458 
L 478.179565 -248.853512 
L 478.434237 -250.613566 
L 478.682341 -252.373621 
L 478.918996 -254.133675 
L 479.140234 -255.893729 
L 479.343107 -257.653783 
L 479.525714 -259.413838 
L 479.687146 -261.173892 
L 479.827381 -262.933946 
L 479.947139 -264.694 
L 480.893347 -264.694 
L 480.893347 -264.694 
L 481.013105 -262.933946 
L 481.15334 -261.173892 
L 481.314772 -259.413838 
L 481.497379 -257.653783 
L 481.700252 -255.893729 
L 481.921489 -254.133675 
L 482.158144 -252.373621 
L 482.406249 -250.613566 
L 482.660921 -248.853512 
L 482.916558 -247.093458 
L 483.167116 -245.333404 
L 483.406453 -243.57335 
L 483.628729 -241.813295 
L 483.828811 -240.053241 
L 484.002664 -238.293187 
L 484.147683 -236.533133 
L 484.262933 -234.773078 
L 484.349274 -233.013024 
L 484.409345 -231.25297 
L 484.447423 -229.492916 
L 484.46915 -227.732862 
L 484.48117 -225.972807 
L 484.490718 -224.212753 
L 484.505194 -222.452699 
L 484.531798 -220.692645 
L 484.57725 -218.93259 
L 484.647643 -217.172536 
L 484.748466 -215.412482 
L 484.884767 -213.652428 
L 485.061479 -211.892374 
L 485.283838 -210.132319 
L 485.557859 -208.372265 
L 485.890784 -206.612211 
L 486.291445 -204.852157 
L 486.770451 -203.092103 
L 487.340149 -201.332048 
L 488.0143 -199.571994 
L 488.807462 -197.81194 
L 489.734082 -196.051886 
L 490.807335 -194.291831 
L 492.037775 -192.531777 
L 493.431912 -190.771723 
L 494.990805 -189.011669 
L 496.708818 -187.251615 
L 498.572651 -185.49156 
L 500.56077 -183.731506 
L 502.643323 -181.971452 
L 504.782593 -180.211398 
L 506.934024 -178.451343 
L 509.047777 -176.691289 
L 511.070751 -174.931235 
L 512.948965 -173.171181 
L 514.630142 -171.411127 
L 516.066332 -169.651072 
L 517.216399 -167.891018 
L 518.048202 -166.130964 
L 518.540304 -164.37091 
L 518.6831 -162.610855 
L 518.479279 -160.850801 
L 517.943587 -159.090747 
L 517.101916 -157.330693 
L 515.989779 -155.570639 
L 514.650275 -153.810584 
L 513.131705 -152.05053 
L 511.484979 -150.290476 
L 509.760996 -148.530422 
L 508.008163 -146.770368 
L 506.270207 -145.010313 
L 504.584395 -143.250259 
L 502.980262 -141.490205 
L 501.478897 -139.730151 
L 500.092788 -137.970096 
L 498.826219 -136.210042 
L 497.676128 -134.449988 
L 496.633354 -132.689934 
L 495.684147 -130.92988 
L 494.811819 -129.169825 
L 493.99841 -127.409771 
L 493.226243 -125.649717 
L 492.479277 -123.889663 
L 491.744168 -122.129608 
L 491.010998 -120.369554 
L 490.273647 -118.6095 
L 489.52982 -116.849446 
L 488.780765 -115.089392 
L 488.030747 -113.329337 
L 487.286338 -111.569283 
L 486.555614 -109.809229 
L 485.847335 -108.049175 
L 485.170165 -106.28912 
L 484.532009 -104.529066 
L 483.93949 -102.769012 
L 483.397596 -101.008958 
L 482.909495 -99.248904 
L 482.476513 -97.488849 
L 482.098242 -95.728795 
L 481.77276 -93.968741 
L 481.496908 -92.208687 
L 481.266614 -90.448633 
z
" id="m00b45207f6" style="stroke:#414141;stroke-width:2;"/>
    </defs>
    <g clip-path="url(#pc7c20e26e2)">
     <use style="fill:#489eaa;stroke:#414141;stroke-width:2;" x="0" xlink:href="#m00b45207f6" y="391.910113"/>
    </g>
   </g>
   <g id="PolyCollection_6">
    <defs>
     <path d="M 576.412854 -38.66358 
L 575.741918 -38.66358 
L 575.657193 -41.141331 
L 575.557639 -43.619082 
L 575.442439 -46.096833 
L 575.311172 -48.574584 
L 575.163881 -51.052335 
L 575.001127 -53.530086 
L 574.823995 -56.007838 
L 574.634073 -58.485589 
L 574.43336 -60.96334 
L 574.224145 -63.441091 
L 574.008828 -65.918842 
L 573.789715 -68.396593 
L 573.5688 -70.874344 
L 573.347539 -73.352095 
L 573.126671 -75.829847 
L 572.906069 -78.307598 
L 572.684676 -80.785349 
L 572.460516 -83.2631 
L 572.230791 -85.740851 
L 571.992065 -88.218602 
L 571.740514 -90.696353 
L 571.472221 -93.174105 
L 571.183494 -95.651856 
L 570.871156 -98.129607 
L 570.532806 -100.607358 
L 570.16699 -103.085109 
L 569.77329 -105.56286 
L 569.352303 -108.040611 
L 568.905521 -110.518363 
L 568.435117 -112.996114 
L 567.943664 -115.473865 
L 567.433808 -117.951616 
L 566.907936 -120.429367 
L 566.36786 -122.907118 
L 565.814571 -125.384869 
L 565.248065 -127.86262 
L 564.667287 -130.340372 
L 564.0702 -132.818123 
L 563.45398 -135.295874 
L 562.815352 -137.773625 
L 562.151035 -140.251376 
L 561.458293 -142.729127 
L 560.735534 -145.206878 
L 559.982946 -147.68463 
L 559.203074 -150.162381 
L 558.401326 -152.640132 
L 557.586305 -155.117883 
L 556.769954 -157.595634 
L 555.967434 -160.073385 
L 555.196743 -162.551136 
L 554.478051 -165.028888 
L 553.8328 -167.506639 
L 553.2826 -169.98439 
L 552.848013 -172.462141 
L 552.547319 -174.939892 
L 552.395358 -177.417643 
L 552.402552 -179.895394 
L 552.574195 -182.373146 
L 552.910071 -184.850897 
L 553.404424 -187.328648 
L 554.046288 -189.806399 
L 554.820136 -192.28415 
L 555.706789 -194.761901 
L 556.684489 -197.239652 
L 557.730066 -199.717403 
L 558.820094 -202.195155 
L 559.931947 -204.672906 
L 561.044715 -207.150657 
L 562.139915 -209.628408 
L 563.201982 -212.106159 
L 564.218544 -214.58391 
L 565.180494 -217.061661 
L 566.081885 -219.539413 
L 566.919679 -222.017164 
L 567.693398 -224.494915 
L 568.404696 -226.972666 
L 569.056898 -229.450417 
L 569.654531 -231.928168 
L 570.202855 -234.405919 
L 570.707445 -236.883671 
L 571.17381 -239.361422 
L 571.607081 -241.839173 
L 572.011769 -244.316924 
L 572.3916 -246.794675 
L 572.749437 -249.272426 
L 573.087272 -251.750177 
L 573.406285 -254.227929 
L 573.706964 -256.70568 
L 573.989261 -259.183431 
L 574.252771 -261.661182 
L 574.496915 -264.138933 
L 574.721111 -266.616684 
L 574.924917 -269.094435 
L 575.108147 -271.572186 
L 575.270933 -274.049938 
L 575.413762 -276.527689 
L 575.537467 -279.00544 
L 575.643189 -281.483191 
L 575.732323 -283.960942 
L 576.422448 -283.960942 
L 576.422448 -283.960942 
L 576.511582 -281.483191 
L 576.617305 -279.00544 
L 576.741009 -276.527689 
L 576.883838 -274.049938 
L 577.046624 -271.572186 
L 577.229854 -269.094435 
L 577.433661 -266.616684 
L 577.657857 -264.138933 
L 577.902 -261.661182 
L 578.16551 -259.183431 
L 578.447807 -256.70568 
L 578.748486 -254.227929 
L 579.067499 -251.750177 
L 579.405334 -249.272426 
L 579.763172 -246.794675 
L 580.143003 -244.316924 
L 580.54769 -241.839173 
L 580.980961 -239.361422 
L 581.447327 -236.883671 
L 581.951917 -234.405919 
L 582.500241 -231.928168 
L 583.097873 -229.450417 
L 583.750076 -226.972666 
L 584.461374 -224.494915 
L 585.235092 -222.017164 
L 586.072886 -219.539413 
L 586.974277 -217.061661 
L 587.936227 -214.58391 
L 588.952789 -212.106159 
L 590.014856 -209.628408 
L 591.110056 -207.150657 
L 592.222825 -204.672906 
L 593.334678 -202.195155 
L 594.424705 -199.717403 
L 595.470283 -197.239652 
L 596.447983 -194.761901 
L 597.334635 -192.28415 
L 598.108484 -189.806399 
L 598.750348 -187.328648 
L 599.2447 -184.850897 
L 599.580576 -182.373146 
L 599.75222 -179.895394 
L 599.759413 -177.417643 
L 599.607452 -174.939892 
L 599.306759 -172.462141 
L 598.872172 -169.98439 
L 598.321971 -167.506639 
L 597.67672 -165.028888 
L 596.958029 -162.551136 
L 596.187337 -160.073385 
L 595.384817 -157.595634 
L 594.568466 -155.117883 
L 593.753446 -152.640132 
L 592.951697 -150.162381 
L 592.171826 -147.68463 
L 591.419237 -145.206878 
L 590.696479 -142.729127 
L 590.003736 -140.251376 
L 589.33942 -137.773625 
L 588.700791 -135.295874 
L 588.084572 -132.818123 
L 587.487484 -130.340372 
L 586.906707 -127.86262 
L 586.3402 -125.384869 
L 585.786911 -122.907118 
L 585.246836 -120.429367 
L 584.720963 -117.951616 
L 584.211108 -115.473865 
L 583.719655 -112.996114 
L 583.249251 -110.518363 
L 582.802469 -108.040611 
L 582.381481 -105.56286 
L 581.987781 -103.085109 
L 581.621965 -100.607358 
L 581.283615 -98.129607 
L 580.971278 -95.651856 
L 580.68255 -93.174105 
L 580.414258 -90.696353 
L 580.162706 -88.218602 
L 579.92398 -85.740851 
L 579.694255 -83.2631 
L 579.470095 -80.785349 
L 579.248703 -78.307598 
L 579.028101 -75.829847 
L 578.807232 -73.352095 
L 578.585972 -70.874344 
L 578.365056 -68.396593 
L 578.145944 -65.918842 
L 577.930627 -63.441091 
L 577.721411 -60.96334 
L 577.520698 -58.485589 
L 577.330776 -56.007838 
L 577.153645 -53.530086 
L 576.99089 -51.052335 
L 576.843599 -48.574584 
L 576.712332 -46.096833 
L 576.597133 -43.619082 
L 576.497578 -41.141331 
L 576.412854 -38.66358 
z
" id="ma2b1f69589" style="stroke:#414141;stroke-width:2;"/>
    </defs>
    <g clip-path="url(#pc7c20e26e2)">
     <use style="fill:#8fa0e6;stroke:#414141;stroke-width:2;" x="0" xlink:href="#ma2b1f69589" y="391.910113"/>
    </g>
   </g>
   <g id="PolyCollection_7">
    <defs>
     <path d="M 672.266646 -59.91352 
L 671.202411 -59.91352 
L 671.053562 -62.118011 
L 670.874686 -64.322502 
L 670.663223 -66.526992 
L 670.417365 -68.731483 
L 670.136312 -70.935974 
L 669.820514 -73.140465 
L 669.471852 -75.344956 
L 669.093746 -77.549446 
L 668.691157 -79.753937 
L 668.270456 -81.958428 
L 667.839163 -84.162919 
L 667.405552 -86.36741 
L 666.978131 -88.571901 
L 666.565038 -90.776391 
L 666.173391 -92.980882 
L 665.808639 -95.185373 
L 665.473974 -97.389864 
L 665.169867 -99.594355 
L 664.893746 -101.798846 
L 664.639881 -104.003336 
L 664.399469 -106.207827 
L 664.160931 -108.412318 
L 663.910384 -110.616809 
L 663.632273 -112.8213 
L 663.310106 -115.02579 
L 662.927247 -117.230281 
L 662.467723 -119.434772 
L 661.917008 -121.639263 
L 661.262747 -123.843754 
L 660.495415 -126.048245 
L 659.608897 -128.252735 
L 658.600983 -130.457226 
L 657.473779 -132.661717 
L 656.234039 -134.866208 
L 654.893385 -137.070699 
L 653.468407 -139.275189 
L 651.980615 -141.47968 
L 650.456184 -143.684171 
L 648.925492 -145.888662 
L 647.422385 -148.093153 
L 645.983198 -150.297644 
L 644.64552 -152.502134 
L 643.44675 -154.706625 
L 642.422525 -156.911116 
L 641.605098 -159.115607 
L 641.021787 -161.320098 
L 640.6936 -163.524588 
L 640.634146 -165.729079 
L 640.848926 -167.93357 
L 641.335046 -170.138061 
L 642.081388 -172.342552 
L 643.069211 -174.547043 
L 644.273133 -176.751533 
L 645.662406 -178.956024 
L 647.202389 -181.160515 
L 648.8561 -183.365006 
L 650.585748 -185.569497 
L 652.354155 -187.773988 
L 654.125986 -189.978478 
L 655.868756 -192.182969 
L 657.553585 -194.38746 
L 659.155707 -196.591951 
L 660.654753 -198.796442 
L 662.034844 -201.000932 
L 663.284525 -203.205423 
L 664.396589 -205.409914 
L 665.367819 -207.614405 
L 666.198676 -209.818896 
L 666.892955 -212.023387 
L 667.457415 -214.227877 
L 667.901393 -216.432368 
L 668.236396 -218.636859 
L 668.47567 -220.84135 
L 668.633739 -223.045841 
L 668.725925 -225.250331 
L 668.767839 -227.454822 
L 668.774862 -229.659313 
L 668.761637 -231.863804 
L 668.741577 -234.068295 
L 668.726437 -236.272786 
L 668.72595 -238.477276 
L 668.747581 -240.681767 
L 668.796381 -242.886258 
L 668.874985 -245.090749 
L 668.983733 -247.29524 
L 669.120906 -249.49973 
L 669.283072 -251.704221 
L 669.465495 -253.908712 
L 669.662582 -256.113203 
L 669.868341 -258.317694 
L 670.0768 -260.522185 
L 670.282378 -262.726675 
L 670.480173 -264.931166 
L 670.666163 -267.135657 
L 670.837318 -269.340148 
L 670.991623 -271.544639 
L 671.12803 -273.74913 
L 671.246351 -275.95362 
L 671.347115 -278.158111 
L 672.121942 -278.158111 
L 672.121942 -278.158111 
L 672.222706 -275.95362 
L 672.341027 -273.74913 
L 672.477434 -271.544639 
L 672.631739 -269.340148 
L 672.802894 -267.135657 
L 672.988884 -264.931166 
L 673.186679 -262.726675 
L 673.392257 -260.522185 
L 673.600716 -258.317694 
L 673.806475 -256.113203 
L 674.003563 -253.908712 
L 674.185985 -251.704221 
L 674.348152 -249.49973 
L 674.485325 -247.29524 
L 674.594072 -245.090749 
L 674.672676 -242.886258 
L 674.721476 -240.681767 
L 674.743107 -238.477276 
L 674.742621 -236.272786 
L 674.72748 -234.068295 
L 674.70742 -231.863804 
L 674.694195 -229.659313 
L 674.701218 -227.454822 
L 674.743132 -225.250331 
L 674.835318 -223.045841 
L 674.993387 -220.84135 
L 675.232661 -218.636859 
L 675.567664 -216.432368 
L 676.011642 -214.227877 
L 676.576102 -212.023387 
L 677.270381 -209.818896 
L 678.101238 -207.614405 
L 679.072468 -205.409914 
L 680.184532 -203.205423 
L 681.434213 -201.000932 
L 682.814304 -198.796442 
L 684.31335 -196.591951 
L 685.915472 -194.38746 
L 687.600301 -192.182969 
L 689.343071 -189.978478 
L 691.114902 -187.773988 
L 692.883309 -185.569497 
L 694.612957 -183.365006 
L 696.266668 -181.160515 
L 697.806651 -178.956024 
L 699.195924 -176.751533 
L 700.399846 -174.547043 
L 701.387669 -172.342552 
L 702.134011 -170.138061 
L 702.620131 -167.93357 
L 702.834911 -165.729079 
L 702.775457 -163.524588 
L 702.44727 -161.320098 
L 701.863959 -159.115607 
L 701.046533 -156.911116 
L 700.022307 -154.706625 
L 698.823537 -152.502134 
L 697.485859 -150.297644 
L 696.046672 -148.093153 
L 694.543565 -145.888662 
L 693.012873 -143.684171 
L 691.488442 -141.47968 
L 690.00065 -139.275189 
L 688.575673 -137.070699 
L 687.235018 -134.866208 
L 685.995278 -132.661717 
L 684.868074 -130.457226 
L 683.86016 -128.252735 
L 682.973642 -126.048245 
L 682.20631 -123.843754 
L 681.552049 -121.639263 
L 681.001334 -119.434772 
L 680.54181 -117.230281 
L 680.158951 -115.02579 
L 679.836784 -112.8213 
L 679.558673 -110.616809 
L 679.308126 -108.412318 
L 679.069588 -106.207827 
L 678.829177 -104.003336 
L 678.575311 -101.798846 
L 678.29919 -99.594355 
L 677.995083 -97.389864 
L 677.660419 -95.185373 
L 677.295666 -92.980882 
L 676.904019 -90.776391 
L 676.490926 -88.571901 
L 676.063505 -86.36741 
L 675.629894 -84.162919 
L 675.198601 -81.958428 
L 674.7779 -79.753937 
L 674.375311 -77.549446 
L 673.997205 -75.344956 
L 673.648543 -73.140465 
L 673.332745 -70.935974 
L 673.051692 -68.731483 
L 672.805834 -66.526992 
L 672.594371 -64.322502 
L 672.415495 -62.118011 
L 672.266646 -59.91352 
z
" id="mfcaea53927" style="stroke:#414141;stroke-width:2;"/>
    </defs>
    <g clip-path="url(#pc7c20e26e2)">
     <use style="fill:#e270db;stroke:#414141;stroke-width:2;" x="0" xlink:href="#mfcaea53927" y="391.910113"/>
    </g>
   </g>
   <g id="line2d_1">
    <path clip-path="url(#pc7c20e26e2)" d="M 49.9631 218.471588 
L 719.5631 218.471588 
" style="fill:none;stroke:#404040;stroke-dasharray:5.55,2.4;stroke-dashoffset:0;stroke-width:1.5;"/>
   </g>
   <g id="line2d_2">
    <path clip-path="url(#pc7c20e26e2)" d="M 97.791671 258.531031 
L 97.791671 158.08307 
" style="fill:none;stroke:#414141;stroke-linecap:round;stroke-width:2;"/>
   </g>
   <g id="line2d_3">
    <path clip-path="url(#pc7c20e26e2)" d="M 97.791671 213.657089 
L 97.791671 182.577272 
" style="fill:none;stroke:#414141;stroke-linecap:round;stroke-width:6;"/>
   </g>
   <g id="line2d_4">
    <path clip-path="url(#pc7c20e26e2)" d="M 193.448814 267.711736 
L 193.448814 111.65802 
" style="fill:none;stroke:#414141;stroke-linecap:round;stroke-width:2;"/>
   </g>
   <g id="line2d_5">
    <path clip-path="url(#pc7c20e26e2)" d="M 193.448814 226.917956 
L 193.448814 168.600896 
" style="fill:none;stroke:#414141;stroke-linecap:round;stroke-width:6;"/>
   </g>
   <g id="line2d_6">
    <path clip-path="url(#pc7c20e26e2)" d="M 289.105957 248.219405 
L 289.105957 180.026646 
" style="fill:none;stroke:#414141;stroke-linecap:round;stroke-width:2;"/>
   </g>
   <g id="line2d_7">
    <path clip-path="url(#pc7c20e26e2)" d="M 289.105957 230.149845 
L 289.105957 190.345469 
" style="fill:none;stroke:#414141;stroke-linecap:round;stroke-width:6;"/>
   </g>
   <g id="line2d_8">
    <path clip-path="url(#pc7c20e26e2)" d="M 384.7631 245.9794 
L 384.7631 164.521231 
" style="fill:none;stroke:#414141;stroke-linecap:round;stroke-width:2;"/>
   </g>
   <g id="line2d_9">
    <path clip-path="url(#pc7c20e26e2)" d="M 384.7631 227.588537 
L 384.7631 199.009172 
" style="fill:none;stroke:#414141;stroke-linecap:round;stroke-width:6;"/>
   </g>
   <g id="line2d_10">
    <path clip-path="url(#pc7c20e26e2)" d="M 480.420243 257.187282 
L 480.420243 213.806576 
" style="fill:none;stroke:#414141;stroke-linecap:round;stroke-width:2;"/>
   </g>
   <g id="line2d_11">
    <path clip-path="url(#pc7c20e26e2)" d="M 480.420243 239.058947 
L 480.420243 222.764659 
" style="fill:none;stroke:#414141;stroke-linecap:round;stroke-width:6;"/>
   </g>
   <g id="line2d_12">
    <path clip-path="url(#pc7c20e26e2)" d="M 576.077386 274.233863 
L 576.077386 151.199609 
" style="fill:none;stroke:#414141;stroke-linecap:round;stroke-width:2;"/>
   </g>
   <g id="line2d_13">
    <path clip-path="url(#pc7c20e26e2)" d="M 576.077386 242.582631 
L 576.077386 205.914356 
" style="fill:none;stroke:#414141;stroke-linecap:round;stroke-width:6;"/>
   </g>
   <g id="line2d_14">
    <path clip-path="url(#pc7c20e26e2)" d="M 671.734529 260.761768 
L 671.734529 200.611451 
" style="fill:none;stroke:#414141;stroke-linecap:round;stroke-width:2;"/>
   </g>
   <g id="line2d_15">
    <path clip-path="url(#pc7c20e26e2)" d="M 671.734529 243.406769 
L 671.734529 220.967765 
" style="fill:none;stroke:#414141;stroke-linecap:round;stroke-width:6;"/>
   </g>
   <g id="patch_3">
    <path d="M 49.9631 368.071988 
L 49.9631 41.911988 
" style="fill:none;stroke:#262626;stroke-linecap:square;stroke-linejoin:miter;stroke-width:1.25;"/>
   </g>
   <g id="patch_4">
    <path d="M 719.5631 368.071988 
L 719.5631 41.911988 
" style="fill:none;stroke:#262626;stroke-linecap:square;stroke-linejoin:miter;stroke-width:1.25;"/>
   </g>
   <g id="patch_5">
    <path d="M 49.9631 368.071988 
L 719.5631 368.071988 
" style="fill:none;stroke:#262626;stroke-linecap:square;stroke-linejoin:miter;stroke-width:1.25;"/>
   </g>
   <g id="patch_6">
    <path d="M 49.9631 41.911988 
L 719.5631 41.911988 
" style="fill:none;stroke:#262626;stroke-linecap:square;stroke-linejoin:miter;stroke-width:1.25;"/>
   </g>
   <g id="PathCollection_1">
    <defs>
     <path d="M 0 2 
C 0.530406 2 1.03916 1.789267 1.414214 1.414214 
C 1.789267 1.03916 2 0.530406 2 0 
C 2 -0.530406 1.789267 -1.03916 1.414214 -1.414214 
C 1.03916 -1.789267 0.530406 -2 0 -2 
C -0.530406 -2 -1.03916 -1.789267 -1.414214 -1.414214 
C -1.789267 -1.03916 -2 -0.530406 -2 0 
C -2 0.530406 -1.789267 1.03916 -1.414214 1.414214 
C -1.03916 1.789267 -0.530406 2 0 2 
z
" id="md562654a06" style="stroke:#414141;"/>
    </defs>
    <g clip-path="url(#pc7c20e26e2)">
     <use style="fill:#ffffff;stroke:#414141;" x="97.791671" xlink:href="#md562654a06" y="206.625737"/>
    </g>
   </g>
   <g id="PathCollection_2">
    <g clip-path="url(#pc7c20e26e2)">
     <use style="fill:#ffffff;stroke:#414141;" x="193.448814" xlink:href="#md562654a06" y="190.657993"/>
    </g>
   </g>
   <g id="PathCollection_3">
    <g clip-path="url(#pc7c20e26e2)">
     <use style="fill:#ffffff;stroke:#414141;" x="289.105957" xlink:href="#md562654a06" y="199.82997"/>
    </g>
   </g>
   <g id="PathCollection_4">
    <g clip-path="url(#pc7c20e26e2)">
     <use style="fill:#ffffff;stroke:#414141;" x="384.7631" xlink:href="#md562654a06" y="221.722928"/>
    </g>
   </g>
   <g id="PathCollection_5">
    <g clip-path="url(#pc7c20e26e2)">
     <use style="fill:#ffffff;stroke:#414141;" x="480.420243" xlink:href="#md562654a06" y="226.981798"/>
    </g>
   </g>
   <g id="PathCollection_6">
    <g clip-path="url(#pc7c20e26e2)">
     <use style="fill:#ffffff;stroke:#414141;" x="576.077386" xlink:href="#md562654a06" y="216.416162"/>
    </g>
   </g>
   <g id="PathCollection_7">
    <g clip-path="url(#pc7c20e26e2)">
     <use style="fill:#ffffff;stroke:#414141;" x="671.734529" xlink:href="#md562654a06" y="228.217397"/>
    </g>
   </g>
   <g id="text_16">
    <!-- Crashes after the end of DST in California (20012017) -->
    <defs>
     <path d="M 6.390625 0 
L 6.390625 71.578125 
L 15.1875 71.578125 
L 15.1875 0 
z
" id="ArialMT-108"/>
     <path d="M -0.203125 22.359375 
L -0.203125 29.4375 
L 55.421875 29.4375 
L 55.421875 22.359375 
z
" id="ArialMT-8211"/>
     <path d="M 4.734375 62.203125 
L 4.734375 70.65625 
L 51.078125 70.65625 
L 51.078125 63.8125 
Q 44.234375 56.546875 37.515625 44.484375 
Q 30.8125 32.421875 27.15625 19.671875 
Q 24.515625 10.6875 23.78125 0 
L 14.75 0 
Q 14.890625 8.453125 18.0625 20.40625 
Q 21.234375 32.375 27.171875 43.484375 
Q 33.109375 54.59375 39.796875 62.203125 
z
" id="ArialMT-55"/>
    </defs>
    <g style="fill:#262626;" transform="translate(66.336225 26.127187)scale(0.26 -0.26)">
     <use xlink:href="#ArialMT-67"/>
     <use x="72.216797" xlink:href="#ArialMT-114"/>
     <use x="105.517578" xlink:href="#ArialMT-97"/>
     <use x="161.132812" xlink:href="#ArialMT-115"/>
     <use x="211.132812" xlink:href="#ArialMT-104"/>
     <use x="266.748047" xlink:href="#ArialMT-101"/>
     <use x="322.363281" xlink:href="#ArialMT-115"/>
     <use x="372.363281" xlink:href="#ArialMT-32"/>
     <use x="400.146484" xlink:href="#ArialMT-97"/>
     <use x="455.761719" xlink:href="#ArialMT-102"/>
     <use x="483.544922" xlink:href="#ArialMT-116"/>
     <use x="511.328125" xlink:href="#ArialMT-101"/>
     <use x="566.943359" xlink:href="#ArialMT-114"/>
     <use x="600.244141" xlink:href="#ArialMT-32"/>
     <use x="628.027344" xlink:href="#ArialMT-116"/>
     <use x="655.810547" xlink:href="#ArialMT-104"/>
     <use x="711.425781" xlink:href="#ArialMT-101"/>
     <use x="767.041016" xlink:href="#ArialMT-32"/>
     <use x="794.824219" xlink:href="#ArialMT-101"/>
     <use x="850.439453" xlink:href="#ArialMT-110"/>
     <use x="906.054688" xlink:href="#ArialMT-100"/>
     <use x="961.669922" xlink:href="#ArialMT-32"/>
     <use x="989.453125" xlink:href="#ArialMT-111"/>
     <use x="1045.068359" xlink:href="#ArialMT-102"/>
     <use x="1072.851562" xlink:href="#ArialMT-32"/>
     <use x="1100.634766" xlink:href="#ArialMT-68"/>
     <use x="1172.851562" xlink:href="#ArialMT-83"/>
     <use x="1239.550781" xlink:href="#ArialMT-84"/>
     <use x="1298.884766" xlink:href="#ArialMT-32"/>
     <use x="1326.667969" xlink:href="#ArialMT-105"/>
     <use x="1348.884766" xlink:href="#ArialMT-110"/>
     <use x="1404.5" xlink:href="#ArialMT-32"/>
     <use x="1432.283203" xlink:href="#ArialMT-67"/>
     <use x="1504.5" xlink:href="#ArialMT-97"/>
     <use x="1560.115234" xlink:href="#ArialMT-108"/>
     <use x="1582.332031" xlink:href="#ArialMT-105"/>
     <use x="1604.548828" xlink:href="#ArialMT-102"/>
     <use x="1632.332031" xlink:href="#ArialMT-111"/>
     <use x="1687.947266" xlink:href="#ArialMT-114"/>
     <use x="1721.248047" xlink:href="#ArialMT-110"/>
     <use x="1776.863281" xlink:href="#ArialMT-105"/>
     <use x="1799.080078" xlink:href="#ArialMT-97"/>
     <use x="1854.695312" xlink:href="#ArialMT-32"/>
     <use x="1882.478516" xlink:href="#ArialMT-40"/>
     <use x="1915.779297" xlink:href="#ArialMT-50"/>
     <use x="1971.394531" xlink:href="#ArialMT-48"/>
     <use x="2027.009766" xlink:href="#ArialMT-48"/>
     <use x="2082.625" xlink:href="#ArialMT-49"/>
     <use x="2138.240234" xlink:href="#ArialMT-8211"/>
     <use x="2193.855469" xlink:href="#ArialMT-50"/>
     <use x="2249.470703" xlink:href="#ArialMT-48"/>
     <use x="2305.085938" xlink:href="#ArialMT-49"/>
     <use x="2360.701172" xlink:href="#ArialMT-55"/>
     <use x="2416.316406" xlink:href="#ArialMT-41"/>
    </g>
   </g>
  </g>
 </g>
 <defs>
  <clipPath id="pc7c20e26e2">
   <rect height="326.16" width="669.6" x="49.9631" y="41.911988"/>
  </clipPath>
 </defs>
</svg>
