<?xml version="1.0" encoding="utf-8" standalone="no"?>
<!DOCTYPE svg PUBLIC "-//W3C//DTD SVG 1.1//EN"
  "http://www.w3.org/Graphics/SVG/1.1/DTD/svg11.dtd">
<!-- Created with matplotlib (http://matplotlib.org/) -->
<svg height="391.910113pt" version="1.1" viewBox="0 0 726.7631 391.910113" width="726.7631pt" xmlns="http://www.w3.org/2000/svg" xmlns:xlink="http://www.w3.org/1999/xlink">
 <defs>
  <style type="text/css">
*{stroke-linecap:butt;stroke-linejoin:round;}
  </style>
 </defs>
 <g id="figure_1">
  <g id="patch_1">
   <path d="M 0 391.910113 
L 726.7631 391.910113 
L 726.7631 0 
L 0 0 
z
" style="fill:#ffffff;"/>
  </g>
  <g id="axes_1">
   <g id="patch_2">
    <path d="M 49.9631 368.071988 
L 719.5631 368.071988 
L 719.5631 41.911988 
L 49.9631 41.911988 
z
" style="fill:#ffffff;"/>
   </g>
   <g id="matplotlib.axis_1">
    <g id="xtick_1">
     <g id="text_1">
      <!-- Sunday (DST) -->
      <defs>
       <path d="M 4.5 23 
L 13.421875 23.78125 
Q 14.0625 18.40625 16.375 14.96875 
Q 18.703125 11.53125 23.578125 9.40625 
Q 28.46875 7.28125 34.578125 7.28125 
Q 39.984375 7.28125 44.140625 8.890625 
Q 48.296875 10.5 50.3125 13.296875 
Q 52.34375 16.109375 52.34375 19.4375 
Q 52.34375 22.796875 50.390625 25.3125 
Q 48.4375 27.828125 43.953125 29.546875 
Q 41.0625 30.671875 31.203125 33.03125 
Q 21.34375 35.40625 17.390625 37.5 
Q 12.25 40.1875 9.734375 44.15625 
Q 7.234375 48.140625 7.234375 53.078125 
Q 7.234375 58.5 10.296875 63.203125 
Q 13.375 67.921875 19.28125 70.359375 
Q 25.203125 72.796875 32.421875 72.796875 
Q 40.375 72.796875 46.453125 70.234375 
Q 52.546875 67.671875 55.8125 62.6875 
Q 59.078125 57.71875 59.328125 51.421875 
L 50.25 50.734375 
Q 49.515625 57.515625 45.28125 60.984375 
Q 41.0625 64.453125 32.8125 64.453125 
Q 24.21875 64.453125 20.28125 61.296875 
Q 16.359375 58.15625 16.359375 53.71875 
Q 16.359375 49.859375 19.140625 47.359375 
Q 21.875 44.875 33.421875 42.265625 
Q 44.96875 39.65625 49.265625 37.703125 
Q 55.515625 34.8125 58.484375 30.390625 
Q 61.46875 25.984375 61.46875 20.21875 
Q 61.46875 14.5 58.203125 9.4375 
Q 54.9375 4.390625 48.796875 1.578125 
Q 42.671875 -1.21875 35.015625 -1.21875 
Q 25.296875 -1.21875 18.71875 1.609375 
Q 12.15625 4.4375 8.421875 10.125 
Q 4.6875 15.828125 4.5 23 
z
" id="ArialMT-53"/>
       <path d="M 40.578125 0 
L 40.578125 7.625 
Q 34.515625 -1.171875 24.125 -1.171875 
Q 19.53125 -1.171875 15.546875 0.578125 
Q 11.578125 2.34375 9.640625 5 
Q 7.71875 7.671875 6.9375 11.53125 
Q 6.390625 14.109375 6.390625 19.734375 
L 6.390625 51.859375 
L 15.1875 51.859375 
L 15.1875 23.09375 
Q 15.1875 16.21875 15.71875 13.8125 
Q 16.546875 10.359375 19.234375 8.375 
Q 21.921875 6.390625 25.875 6.390625 
Q 29.828125 6.390625 33.296875 8.421875 
Q 36.765625 10.453125 38.203125 13.9375 
Q 39.65625 17.4375 39.65625 24.078125 
L 39.65625 51.859375 
L 48.4375 51.859375 
L 48.4375 0 
z
" id="ArialMT-75"/>
       <path d="M 6.59375 0 
L 6.59375 51.859375 
L 14.5 51.859375 
L 14.5 44.484375 
Q 20.21875 53.03125 31 53.03125 
Q 35.6875 53.03125 39.625 51.34375 
Q 43.5625 49.65625 45.515625 46.921875 
Q 47.46875 44.1875 48.25 40.4375 
Q 48.734375 37.984375 48.734375 31.890625 
L 48.734375 0 
L 39.9375 0 
L 39.9375 31.546875 
Q 39.9375 36.921875 38.90625 39.578125 
Q 37.890625 42.234375 35.28125 43.8125 
Q 32.671875 45.40625 29.15625 45.40625 
Q 23.53125 45.40625 19.453125 41.84375 
Q 15.375 38.28125 15.375 28.328125 
L 15.375 0 
z
" id="ArialMT-6e"/>
       <path d="M 40.234375 0 
L 40.234375 6.546875 
Q 35.296875 -1.171875 25.734375 -1.171875 
Q 19.53125 -1.171875 14.328125 2.25 
Q 9.125 5.671875 6.265625 11.796875 
Q 3.421875 17.921875 3.421875 25.875 
Q 3.421875 33.640625 6 39.96875 
Q 8.59375 46.296875 13.765625 49.65625 
Q 18.953125 53.03125 25.34375 53.03125 
Q 30.03125 53.03125 33.6875 51.046875 
Q 37.359375 49.078125 39.65625 45.90625 
L 39.65625 71.578125 
L 48.390625 71.578125 
L 48.390625 0 
z
M 12.453125 25.875 
Q 12.453125 15.921875 16.640625 10.984375 
Q 20.84375 6.0625 26.5625 6.0625 
Q 32.328125 6.0625 36.34375 10.765625 
Q 40.375 15.484375 40.375 25.140625 
Q 40.375 35.796875 36.265625 40.765625 
Q 32.171875 45.75 26.171875 45.75 
Q 20.3125 45.75 16.375 40.96875 
Q 12.453125 36.1875 12.453125 25.875 
z
" id="ArialMT-64"/>
       <path d="M 40.4375 6.390625 
Q 35.546875 2.25 31.03125 0.53125 
Q 26.515625 -1.171875 21.34375 -1.171875 
Q 12.796875 -1.171875 8.203125 3 
Q 3.609375 7.171875 3.609375 13.671875 
Q 3.609375 17.484375 5.34375 20.625 
Q 7.078125 23.78125 9.890625 25.6875 
Q 12.703125 27.59375 16.21875 28.5625 
Q 18.796875 29.25 24.03125 29.890625 
Q 34.671875 31.15625 39.703125 32.90625 
Q 39.75 34.71875 39.75 35.203125 
Q 39.75 40.578125 37.25 42.78125 
Q 33.890625 45.75 27.25 45.75 
Q 21.046875 45.75 18.09375 43.578125 
Q 15.140625 41.40625 13.71875 35.890625 
L 5.125 37.0625 
Q 6.296875 42.578125 8.984375 45.96875 
Q 11.671875 49.359375 16.75 51.1875 
Q 21.828125 53.03125 28.515625 53.03125 
Q 35.15625 53.03125 39.296875 51.46875 
Q 43.453125 49.90625 45.40625 47.53125 
Q 47.359375 45.171875 48.140625 41.546875 
Q 48.578125 39.3125 48.578125 33.453125 
L 48.578125 21.734375 
Q 48.578125 9.46875 49.140625 6.21875 
Q 49.703125 2.984375 51.375 0 
L 42.1875 0 
Q 40.828125 2.734375 40.4375 6.390625 
z
M 39.703125 26.03125 
Q 34.90625 24.078125 25.34375 22.703125 
Q 19.921875 21.921875 17.671875 20.9375 
Q 15.4375 19.96875 14.203125 18.09375 
Q 12.984375 16.21875 12.984375 13.921875 
Q 12.984375 10.40625 15.640625 8.0625 
Q 18.3125 5.71875 23.4375 5.71875 
Q 28.515625 5.71875 32.46875 7.9375 
Q 36.421875 10.15625 38.28125 14.015625 
Q 39.703125 17 39.703125 22.796875 
z
" id="ArialMT-61"/>
       <path d="M 6.203125 -19.96875 
L 5.21875 -11.71875 
Q 8.109375 -12.5 10.25 -12.5 
Q 13.1875 -12.5 14.9375 -11.515625 
Q 16.703125 -10.546875 17.828125 -8.796875 
Q 18.65625 -7.46875 20.515625 -2.25 
Q 20.75 -1.515625 21.296875 -0.09375 
L 1.609375 51.859375 
L 11.078125 51.859375 
L 21.875 21.828125 
Q 23.96875 16.109375 25.640625 9.8125 
Q 27.15625 15.875 29.25 21.625 
L 40.328125 51.859375 
L 49.125 51.859375 
L 29.390625 -0.875 
Q 26.21875 -9.421875 24.46875 -12.640625 
Q 22.125 -17 19.09375 -19.015625 
Q 16.0625 -21.046875 11.859375 -21.046875 
Q 9.328125 -21.046875 6.203125 -19.96875 
z
" id="ArialMT-79"/>
       <path id="ArialMT-20"/>
       <path d="M 23.390625 -21.046875 
Q 16.109375 -11.859375 11.078125 0.4375 
Q 6.0625 12.75 6.0625 25.921875 
Q 6.0625 37.546875 9.8125 48.1875 
Q 14.203125 60.546875 23.390625 72.796875 
L 29.6875 72.796875 
Q 23.78125 62.640625 21.875 58.296875 
Q 18.890625 51.5625 17.1875 44.234375 
Q 15.09375 35.109375 15.09375 25.875 
Q 15.09375 2.390625 29.6875 -21.046875 
z
" id="ArialMT-28"/>
       <path d="M 7.71875 0 
L 7.71875 71.578125 
L 32.375 71.578125 
Q 40.71875 71.578125 45.125 70.5625 
Q 51.265625 69.140625 55.609375 65.4375 
Q 61.28125 60.640625 64.078125 53.1875 
Q 66.890625 45.75 66.890625 36.1875 
Q 66.890625 28.03125 64.984375 21.734375 
Q 63.09375 15.4375 60.109375 11.296875 
Q 57.125 7.171875 53.578125 4.796875 
Q 50.046875 2.4375 45.046875 1.21875 
Q 40.046875 0 33.546875 0 
z
M 17.1875 8.453125 
L 32.46875 8.453125 
Q 39.546875 8.453125 43.578125 9.765625 
Q 47.609375 11.078125 50 13.484375 
Q 53.375 16.84375 55.25 22.53125 
Q 57.125 28.21875 57.125 36.328125 
Q 57.125 47.5625 53.4375 53.59375 
Q 49.75 59.625 44.484375 61.671875 
Q 40.671875 63.140625 32.234375 63.140625 
L 17.1875 63.140625 
z
" id="ArialMT-44"/>
       <path d="M 25.921875 0 
L 25.921875 63.140625 
L 2.34375 63.140625 
L 2.34375 71.578125 
L 59.078125 71.578125 
L 59.078125 63.140625 
L 35.40625 63.140625 
L 35.40625 0 
z
" id="ArialMT-54"/>
       <path d="M 12.359375 -21.046875 
L 6.0625 -21.046875 
Q 20.65625 2.390625 20.65625 25.875 
Q 20.65625 35.0625 18.5625 44.09375 
Q 16.890625 51.421875 13.921875 58.15625 
Q 12.015625 62.546875 6.0625 72.796875 
L 12.359375 72.796875 
Q 21.53125 60.546875 25.921875 48.1875 
Q 29.6875 37.546875 29.6875 25.921875 
Q 29.6875 12.75 24.625 0.4375 
Q 19.578125 -11.859375 12.359375 -21.046875 
z
" id="ArialMT-29"/>
      </defs>
      <g style="fill:#262626;" transform="translate(53.445578 381.76355)scale(0.14 -0.14)">
       <use xlink:href="#ArialMT-53"/>
       <use x="66.699219" xlink:href="#ArialMT-75"/>
       <use x="122.314453" xlink:href="#ArialMT-6e"/>
       <use x="177.929688" xlink:href="#ArialMT-64"/>
       <use x="233.544922" xlink:href="#ArialMT-61"/>
       <use x="289.160156" xlink:href="#ArialMT-79"/>
       <use x="339.160156" xlink:href="#ArialMT-20"/>
       <use x="366.943359" xlink:href="#ArialMT-28"/>
       <use x="400.244141" xlink:href="#ArialMT-44"/>
       <use x="472.460938" xlink:href="#ArialMT-53"/>
       <use x="539.160156" xlink:href="#ArialMT-54"/>
       <use x="600.244141" xlink:href="#ArialMT-29"/>
      </g>
     </g>
    </g>
    <g id="xtick_2">
     <g id="text_2">
      <!-- Monday -->
      <defs>
       <path d="M 7.421875 0 
L 7.421875 71.578125 
L 21.6875 71.578125 
L 38.625 20.90625 
Q 40.96875 13.8125 42.046875 10.296875 
Q 43.265625 14.203125 45.84375 21.78125 
L 62.984375 71.578125 
L 75.734375 71.578125 
L 75.734375 0 
L 66.609375 0 
L 66.609375 59.90625 
L 45.796875 0 
L 37.25 0 
L 16.546875 60.9375 
L 16.546875 0 
z
" id="ArialMT-4d"/>
       <path d="M 3.328125 25.921875 
Q 3.328125 40.328125 11.328125 47.265625 
Q 18.015625 53.03125 27.640625 53.03125 
Q 38.328125 53.03125 45.109375 46.015625 
Q 51.90625 39.015625 51.90625 26.65625 
Q 51.90625 16.65625 48.90625 10.90625 
Q 45.90625 5.171875 40.15625 2 
Q 34.421875 -1.171875 27.640625 -1.171875 
Q 16.75 -1.171875 10.03125 5.8125 
Q 3.328125 12.796875 3.328125 25.921875 
z
M 12.359375 25.921875 
Q 12.359375 15.96875 16.703125 11.015625 
Q 21.046875 6.0625 27.640625 6.0625 
Q 34.1875 6.0625 38.53125 11.03125 
Q 42.875 16.015625 42.875 26.21875 
Q 42.875 35.84375 38.5 40.796875 
Q 34.125 45.75 27.640625 45.75 
Q 21.046875 45.75 16.703125 40.8125 
Q 12.359375 35.890625 12.359375 25.921875 
z
" id="ArialMT-6f"/>
      </defs>
      <g style="fill:#262626;" transform="translate(168.547408 381.592925)scale(0.14 -0.14)">
       <use xlink:href="#ArialMT-4d"/>
       <use x="83.300781" xlink:href="#ArialMT-6f"/>
       <use x="138.916016" xlink:href="#ArialMT-6e"/>
       <use x="194.53125" xlink:href="#ArialMT-64"/>
       <use x="250.146484" xlink:href="#ArialMT-61"/>
       <use x="305.761719" xlink:href="#ArialMT-79"/>
      </g>
     </g>
    </g>
    <g id="xtick_3">
     <g id="text_3">
      <!-- Tuesday -->
      <defs>
       <path d="M 42.09375 16.703125 
L 51.171875 15.578125 
Q 49.03125 7.625 43.21875 3.21875 
Q 37.40625 -1.171875 28.375 -1.171875 
Q 17 -1.171875 10.328125 5.828125 
Q 3.65625 12.84375 3.65625 25.484375 
Q 3.65625 38.578125 10.390625 45.796875 
Q 17.140625 53.03125 27.875 53.03125 
Q 38.28125 53.03125 44.875 45.953125 
Q 51.46875 38.875 51.46875 26.03125 
Q 51.46875 25.25 51.421875 23.6875 
L 12.75 23.6875 
Q 13.234375 15.140625 17.578125 10.59375 
Q 21.921875 6.0625 28.421875 6.0625 
Q 33.25 6.0625 36.671875 8.59375 
Q 40.09375 11.140625 42.09375 16.703125 
z
M 13.234375 30.90625 
L 42.1875 30.90625 
Q 41.609375 37.453125 38.875 40.71875 
Q 34.671875 45.796875 27.984375 45.796875 
Q 21.921875 45.796875 17.796875 41.75 
Q 13.671875 37.703125 13.234375 30.90625 
z
" id="ArialMT-65"/>
       <path d="M 3.078125 15.484375 
L 11.765625 16.84375 
Q 12.5 11.625 15.84375 8.84375 
Q 19.1875 6.0625 25.203125 6.0625 
Q 31.25 6.0625 34.171875 8.515625 
Q 37.109375 10.984375 37.109375 14.3125 
Q 37.109375 17.28125 34.515625 19 
Q 32.71875 20.171875 25.53125 21.96875 
Q 15.875 24.421875 12.140625 26.203125 
Q 8.40625 27.984375 6.46875 31.125 
Q 4.546875 34.28125 4.546875 38.09375 
Q 4.546875 41.546875 6.125 44.5 
Q 7.71875 47.46875 10.453125 49.421875 
Q 12.5 50.921875 16.03125 51.96875 
Q 19.578125 53.03125 23.640625 53.03125 
Q 29.734375 53.03125 34.34375 51.265625 
Q 38.96875 49.515625 41.15625 46.5 
Q 43.359375 43.5 44.1875 38.484375 
L 35.59375 37.3125 
Q 35.015625 41.3125 32.203125 43.546875 
Q 29.390625 45.796875 24.265625 45.796875 
Q 18.21875 45.796875 15.625 43.796875 
Q 13.03125 41.796875 13.03125 39.109375 
Q 13.03125 37.40625 14.109375 36.03125 
Q 15.1875 34.625 17.484375 33.6875 
Q 18.796875 33.203125 25.25 31.453125 
Q 34.578125 28.953125 38.25 27.359375 
Q 41.9375 25.78125 44.03125 22.75 
Q 46.140625 19.734375 46.140625 15.234375 
Q 46.140625 10.84375 43.578125 6.953125 
Q 41.015625 3.078125 36.171875 0.953125 
Q 31.34375 -1.171875 25.25 -1.171875 
Q 15.140625 -1.171875 9.84375 3.03125 
Q 4.546875 7.234375 3.078125 15.484375 
z
" id="ArialMT-73"/>
      </defs>
      <g style="fill:#262626;" transform="translate(262.263145 381.592925)scale(0.14 -0.14)">
       <use xlink:href="#ArialMT-54"/>
       <use x="61.037109" xlink:href="#ArialMT-75"/>
       <use x="116.652344" xlink:href="#ArialMT-65"/>
       <use x="172.267578" xlink:href="#ArialMT-73"/>
       <use x="222.267578" xlink:href="#ArialMT-64"/>
       <use x="277.882812" xlink:href="#ArialMT-61"/>
       <use x="333.498047" xlink:href="#ArialMT-79"/>
      </g>
     </g>
    </g>
    <g id="xtick_4">
     <g id="text_4">
      <!-- Wednesday -->
      <defs>
       <path d="M 20.21875 0 
L 1.21875 71.578125 
L 10.9375 71.578125 
L 21.828125 24.65625 
Q 23.578125 17.28125 24.859375 10.015625 
Q 27.59375 21.484375 28.078125 23.25 
L 41.703125 71.578125 
L 53.125 71.578125 
L 63.375 35.359375 
Q 67.234375 21.875 68.953125 10.015625 
Q 70.3125 16.796875 72.515625 25.59375 
L 83.734375 71.578125 
L 93.265625 71.578125 
L 73.640625 0 
L 64.5 0 
L 49.421875 54.546875 
Q 47.515625 61.375 47.171875 62.9375 
Q 46.046875 58.015625 45.0625 54.546875 
L 29.890625 0 
z
" id="ArialMT-57"/>
      </defs>
      <g style="fill:#262626;" transform="translate(347.800912 381.592925)scale(0.14 -0.14)">
       <use xlink:href="#ArialMT-57"/>
       <use x="94.369141" xlink:href="#ArialMT-65"/>
       <use x="149.984375" xlink:href="#ArialMT-64"/>
       <use x="205.599609" xlink:href="#ArialMT-6e"/>
       <use x="261.214844" xlink:href="#ArialMT-65"/>
       <use x="316.830078" xlink:href="#ArialMT-73"/>
       <use x="366.830078" xlink:href="#ArialMT-64"/>
       <use x="422.445312" xlink:href="#ArialMT-61"/>
       <use x="478.060547" xlink:href="#ArialMT-79"/>
      </g>
     </g>
    </g>
    <g id="xtick_5">
     <g id="text_5">
      <!-- Thursday -->
      <defs>
       <path d="M 6.59375 0 
L 6.59375 71.578125 
L 15.375 71.578125 
L 15.375 45.90625 
Q 21.53125 53.03125 30.90625 53.03125 
Q 36.671875 53.03125 40.921875 50.75 
Q 45.171875 48.484375 47 44.484375 
Q 48.828125 40.484375 48.828125 32.859375 
L 48.828125 0 
L 40.046875 0 
L 40.046875 32.859375 
Q 40.046875 39.453125 37.1875 42.453125 
Q 34.328125 45.453125 29.109375 45.453125 
Q 25.203125 45.453125 21.75 43.421875 
Q 18.3125 41.40625 16.84375 37.9375 
Q 15.375 34.46875 15.375 28.375 
L 15.375 0 
z
" id="ArialMT-68"/>
       <path d="M 6.5 0 
L 6.5 51.859375 
L 14.40625 51.859375 
L 14.40625 44 
Q 17.4375 49.515625 20 51.265625 
Q 22.5625 53.03125 25.640625 53.03125 
Q 30.078125 53.03125 34.671875 50.203125 
L 31.640625 42.046875 
Q 28.421875 43.953125 25.203125 43.953125 
Q 22.3125 43.953125 20.015625 42.21875 
Q 17.71875 40.484375 16.75 37.40625 
Q 15.28125 32.71875 15.28125 27.15625 
L 15.28125 0 
z
" id="ArialMT-72"/>
      </defs>
      <g style="fill:#262626;" transform="translate(451.243368 381.592925)scale(0.14 -0.14)">
       <use xlink:href="#ArialMT-54"/>
       <use x="61.083984" xlink:href="#ArialMT-68"/>
       <use x="116.699219" xlink:href="#ArialMT-75"/>
       <use x="172.314453" xlink:href="#ArialMT-72"/>
       <use x="205.615234" xlink:href="#ArialMT-73"/>
       <use x="255.615234" xlink:href="#ArialMT-64"/>
       <use x="311.230469" xlink:href="#ArialMT-61"/>
       <use x="366.845703" xlink:href="#ArialMT-79"/>
      </g>
     </g>
    </g>
    <g id="xtick_6">
     <g id="text_6">
      <!-- Friday -->
      <defs>
       <path d="M 8.203125 0 
L 8.203125 71.578125 
L 56.5 71.578125 
L 56.5 63.140625 
L 17.671875 63.140625 
L 17.671875 40.96875 
L 51.265625 40.96875 
L 51.265625 32.515625 
L 17.671875 32.515625 
L 17.671875 0 
z
" id="ArialMT-46"/>
       <path d="M 6.640625 61.46875 
L 6.640625 71.578125 
L 15.4375 71.578125 
L 15.4375 61.46875 
z
M 6.640625 0 
L 6.640625 51.859375 
L 15.4375 51.859375 
L 15.4375 0 
z
" id="ArialMT-69"/>
      </defs>
      <g style="fill:#262626;" transform="translate(556.630511 381.592925)scale(0.14 -0.14)">
       <use xlink:href="#ArialMT-46"/>
       <use x="61.083984" xlink:href="#ArialMT-72"/>
       <use x="94.384766" xlink:href="#ArialMT-69"/>
       <use x="116.601562" xlink:href="#ArialMT-64"/>
       <use x="172.216797" xlink:href="#ArialMT-61"/>
       <use x="227.832031" xlink:href="#ArialMT-79"/>
      </g>
     </g>
    </g>
    <g id="xtick_7">
     <g id="text_7">
      <!-- Saturday -->
      <defs>
       <path d="M 25.78125 7.859375 
L 27.046875 0.09375 
Q 23.34375 -0.6875 20.40625 -0.6875 
Q 15.625 -0.6875 12.984375 0.828125 
Q 10.359375 2.34375 9.28125 4.8125 
Q 8.203125 7.28125 8.203125 15.1875 
L 8.203125 45.015625 
L 1.765625 45.015625 
L 1.765625 51.859375 
L 8.203125 51.859375 
L 8.203125 64.703125 
L 16.9375 69.96875 
L 16.9375 51.859375 
L 25.78125 51.859375 
L 25.78125 45.015625 
L 16.9375 45.015625 
L 16.9375 14.703125 
Q 16.9375 10.9375 17.40625 9.859375 
Q 17.875 8.796875 18.921875 8.15625 
Q 19.96875 7.515625 21.921875 7.515625 
Q 23.390625 7.515625 25.78125 7.859375 
z
" id="ArialMT-74"/>
      </defs>
      <g style="fill:#262626;" transform="translate(643.719216 381.76355)scale(0.14 -0.14)">
       <use xlink:href="#ArialMT-53"/>
       <use x="66.699219" xlink:href="#ArialMT-61"/>
       <use x="122.314453" xlink:href="#ArialMT-74"/>
       <use x="150.097656" xlink:href="#ArialMT-75"/>
       <use x="205.712891" xlink:href="#ArialMT-72"/>
       <use x="239.013672" xlink:href="#ArialMT-64"/>
       <use x="294.628906" xlink:href="#ArialMT-61"/>
       <use x="350.244141" xlink:href="#ArialMT-79"/>
      </g>
     </g>
    </g>
   </g>
   <g id="matplotlib.axis_2">
    <g id="ytick_1">
     <g id="text_8">
      <!-- 0.6 -->
      <defs>
       <path d="M 4.15625 35.296875 
Q 4.15625 48 6.765625 55.734375 
Q 9.375 63.484375 14.515625 67.671875 
Q 19.671875 71.875 27.484375 71.875 
Q 33.25 71.875 37.59375 69.546875 
Q 41.9375 67.234375 44.765625 62.859375 
Q 47.609375 58.5 49.21875 52.21875 
Q 50.828125 45.953125 50.828125 35.296875 
Q 50.828125 22.703125 48.234375 14.96875 
Q 45.65625 7.234375 40.5 3 
Q 35.359375 -1.21875 27.484375 -1.21875 
Q 17.140625 -1.21875 11.234375 6.203125 
Q 4.15625 15.140625 4.15625 35.296875 
z
M 13.1875 35.296875 
Q 13.1875 17.671875 17.3125 11.828125 
Q 21.4375 6 27.484375 6 
Q 33.546875 6 37.671875 11.859375 
Q 41.796875 17.71875 41.796875 35.296875 
Q 41.796875 52.984375 37.671875 58.78125 
Q 33.546875 64.59375 27.390625 64.59375 
Q 21.34375 64.59375 17.71875 59.46875 
Q 13.1875 52.9375 13.1875 35.296875 
z
" id="ArialMT-30"/>
       <path d="M 9.078125 0 
L 9.078125 10.015625 
L 19.09375 10.015625 
L 19.09375 0 
z
" id="ArialMT-2e"/>
       <path d="M 49.75 54.046875 
L 41.015625 53.375 
Q 39.84375 58.546875 37.703125 60.890625 
Q 34.125 64.65625 28.90625 64.65625 
Q 24.703125 64.65625 21.53125 62.3125 
Q 17.390625 59.28125 14.984375 53.46875 
Q 12.59375 47.65625 12.5 36.921875 
Q 15.671875 41.75 20.265625 44.09375 
Q 24.859375 46.4375 29.890625 46.4375 
Q 38.671875 46.4375 44.84375 39.96875 
Q 51.03125 33.5 51.03125 23.25 
Q 51.03125 16.5 48.125 10.71875 
Q 45.21875 4.9375 40.140625 1.859375 
Q 35.0625 -1.21875 28.609375 -1.21875 
Q 17.625 -1.21875 10.6875 6.859375 
Q 3.765625 14.9375 3.765625 33.5 
Q 3.765625 54.25 11.421875 63.671875 
Q 18.109375 71.875 29.4375 71.875 
Q 37.890625 71.875 43.28125 67.140625 
Q 48.6875 62.40625 49.75 54.046875 
z
M 13.875 23.1875 
Q 13.875 18.65625 15.796875 14.5 
Q 17.71875 10.359375 21.1875 8.171875 
Q 24.65625 6 28.46875 6 
Q 34.03125 6 38.03125 10.484375 
Q 42.046875 14.984375 42.046875 22.703125 
Q 42.046875 30.125 38.078125 34.390625 
Q 34.125 38.671875 28.125 38.671875 
Q 22.171875 38.671875 18.015625 34.390625 
Q 13.875 30.125 13.875 23.1875 
z
" id="ArialMT-36"/>
      </defs>
      <g style="fill:#262626;" transform="translate(27.0031 373.082456)scale(0.14 -0.14)">
       <use xlink:href="#ArialMT-30"/>
       <use x="55.615234" xlink:href="#ArialMT-2e"/>
       <use x="83.398438" xlink:href="#ArialMT-36"/>
      </g>
     </g>
    </g>
    <g id="ytick_2">
     <g id="text_9">
      <!-- 0.8 -->
      <defs>
       <path d="M 17.671875 38.8125 
Q 12.203125 40.828125 9.5625 44.53125 
Q 6.9375 48.25 6.9375 53.421875 
Q 6.9375 61.234375 12.546875 66.546875 
Q 18.171875 71.875 27.484375 71.875 
Q 36.859375 71.875 42.578125 66.421875 
Q 48.296875 60.984375 48.296875 53.171875 
Q 48.296875 48.1875 45.671875 44.5 
Q 43.0625 40.828125 37.75 38.8125 
Q 44.34375 36.671875 47.78125 31.875 
Q 51.21875 27.09375 51.21875 20.453125 
Q 51.21875 11.28125 44.71875 5.03125 
Q 38.234375 -1.21875 27.640625 -1.21875 
Q 17.046875 -1.21875 10.546875 5.046875 
Q 4.046875 11.328125 4.046875 20.703125 
Q 4.046875 27.6875 7.59375 32.390625 
Q 11.140625 37.109375 17.671875 38.8125 
z
M 15.921875 53.71875 
Q 15.921875 48.640625 19.1875 45.40625 
Q 22.46875 42.1875 27.6875 42.1875 
Q 32.765625 42.1875 36.015625 45.375 
Q 39.265625 48.578125 39.265625 53.21875 
Q 39.265625 58.0625 35.90625 61.359375 
Q 32.5625 64.65625 27.59375 64.65625 
Q 22.5625 64.65625 19.234375 61.421875 
Q 15.921875 58.203125 15.921875 53.71875 
z
M 13.09375 20.65625 
Q 13.09375 16.890625 14.875 13.375 
Q 16.65625 9.859375 20.171875 7.921875 
Q 23.6875 6 27.734375 6 
Q 34.03125 6 38.125 10.046875 
Q 42.234375 14.109375 42.234375 20.359375 
Q 42.234375 26.703125 38.015625 30.859375 
Q 33.796875 35.015625 27.4375 35.015625 
Q 21.234375 35.015625 17.15625 30.90625 
Q 13.09375 26.8125 13.09375 20.65625 
z
" id="ArialMT-38"/>
      </defs>
      <g style="fill:#262626;" transform="translate(27.0031 307.850456)scale(0.14 -0.14)">
       <use xlink:href="#ArialMT-30"/>
       <use x="55.615234" xlink:href="#ArialMT-2e"/>
       <use x="83.398438" xlink:href="#ArialMT-38"/>
      </g>
     </g>
    </g>
    <g id="ytick_3">
     <g id="text_10">
      <!-- 1.0 -->
      <defs>
       <path d="M 37.25 0 
L 28.46875 0 
L 28.46875 56 
Q 25.296875 52.984375 20.140625 49.953125 
Q 14.984375 46.921875 10.890625 45.40625 
L 10.890625 53.90625 
Q 18.265625 57.375 23.78125 62.296875 
Q 29.296875 67.234375 31.59375 71.875 
L 37.25 71.875 
z
" id="ArialMT-31"/>
      </defs>
      <g style="fill:#262626;" transform="translate(27.0031 242.618456)scale(0.14 -0.14)">
       <use xlink:href="#ArialMT-31"/>
       <use x="55.615234" xlink:href="#ArialMT-2e"/>
       <use x="83.398438" xlink:href="#ArialMT-30"/>
      </g>
     </g>
    </g>
    <g id="ytick_4">
     <g id="text_11">
      <!-- 1.2 -->
      <defs>
       <path d="M 50.34375 8.453125 
L 50.34375 0 
L 3.03125 0 
Q 2.9375 3.171875 4.046875 6.109375 
Q 5.859375 10.9375 9.828125 15.625 
Q 13.8125 20.3125 21.34375 26.46875 
Q 33.015625 36.03125 37.109375 41.625 
Q 41.21875 47.21875 41.21875 52.203125 
Q 41.21875 57.421875 37.46875 61 
Q 33.734375 64.59375 27.734375 64.59375 
Q 21.390625 64.59375 17.578125 60.78125 
Q 13.765625 56.984375 13.71875 50.25 
L 4.6875 51.171875 
Q 5.609375 61.28125 11.65625 66.578125 
Q 17.71875 71.875 27.9375 71.875 
Q 38.234375 71.875 44.234375 66.15625 
Q 50.25 60.453125 50.25 52 
Q 50.25 47.703125 48.484375 43.546875 
Q 46.734375 39.40625 42.65625 34.8125 
Q 38.578125 30.21875 29.109375 22.21875 
Q 21.1875 15.578125 18.9375 13.203125 
Q 16.703125 10.84375 15.234375 8.453125 
z
" id="ArialMT-32"/>
      </defs>
      <g style="fill:#262626;" transform="translate(27.0031 177.386456)scale(0.14 -0.14)">
       <use xlink:href="#ArialMT-31"/>
       <use x="55.615234" xlink:href="#ArialMT-2e"/>
       <use x="83.398438" xlink:href="#ArialMT-32"/>
      </g>
     </g>
    </g>
    <g id="ytick_5">
     <g id="text_12">
      <!-- 1.4 -->
      <defs>
       <path d="M 32.328125 0 
L 32.328125 17.140625 
L 1.265625 17.140625 
L 1.265625 25.203125 
L 33.9375 71.578125 
L 41.109375 71.578125 
L 41.109375 25.203125 
L 50.78125 25.203125 
L 50.78125 17.140625 
L 41.109375 17.140625 
L 41.109375 0 
z
M 32.328125 25.203125 
L 32.328125 57.46875 
L 9.90625 25.203125 
z
" id="ArialMT-34"/>
      </defs>
      <g style="fill:#262626;" transform="translate(27.0031 112.154456)scale(0.14 -0.14)">
       <use xlink:href="#ArialMT-31"/>
       <use x="55.615234" xlink:href="#ArialMT-2e"/>
       <use x="83.398438" xlink:href="#ArialMT-34"/>
      </g>
     </g>
    </g>
    <g id="ytick_6">
     <g id="text_13">
      <!-- 1.6 -->
      <g style="fill:#262626;" transform="translate(27.0031 46.922456)scale(0.14 -0.14)">
       <use xlink:href="#ArialMT-31"/>
       <use x="55.615234" xlink:href="#ArialMT-2e"/>
       <use x="83.398438" xlink:href="#ArialMT-36"/>
      </g>
     </g>
    </g>
    <g id="text_14">
     <!-- Accident Ratio: DST Week / Two Weeks After -->
     <defs>
      <path d="M -0.140625 0 
L 27.34375 71.578125 
L 37.546875 71.578125 
L 66.84375 0 
L 56.0625 0 
L 47.703125 21.6875 
L 17.78125 21.6875 
L 9.90625 0 
z
M 20.515625 29.390625 
L 44.78125 29.390625 
L 37.3125 49.21875 
Q 33.890625 58.25 32.234375 64.0625 
Q 30.859375 57.171875 28.375 50.390625 
z
" id="ArialMT-41"/>
      <path d="M 40.4375 19 
L 49.078125 17.875 
Q 47.65625 8.9375 41.8125 3.875 
Q 35.984375 -1.171875 27.484375 -1.171875 
Q 16.84375 -1.171875 10.375 5.78125 
Q 3.90625 12.75 3.90625 25.734375 
Q 3.90625 34.125 6.6875 40.421875 
Q 9.46875 46.734375 15.15625 49.875 
Q 20.84375 53.03125 27.546875 53.03125 
Q 35.984375 53.03125 41.359375 48.75 
Q 46.734375 44.484375 48.25 36.625 
L 39.703125 35.296875 
Q 38.484375 40.53125 35.375 43.15625 
Q 32.28125 45.796875 27.875 45.796875 
Q 21.234375 45.796875 17.078125 41.03125 
Q 12.9375 36.28125 12.9375 25.984375 
Q 12.9375 15.53125 16.9375 10.796875 
Q 20.953125 6.0625 27.390625 6.0625 
Q 32.5625 6.0625 36.03125 9.234375 
Q 39.5 12.40625 40.4375 19 
z
" id="ArialMT-63"/>
      <path d="M 7.859375 0 
L 7.859375 71.578125 
L 39.59375 71.578125 
Q 49.171875 71.578125 54.140625 69.640625 
Q 59.125 67.71875 62.109375 62.828125 
Q 65.09375 57.953125 65.09375 52.046875 
Q 65.09375 44.4375 60.15625 39.203125 
Q 55.21875 33.984375 44.921875 32.5625 
Q 48.6875 30.765625 50.640625 29 
Q 54.78125 25.203125 58.5 19.484375 
L 70.953125 0 
L 59.03125 0 
L 49.5625 14.890625 
Q 45.40625 21.34375 42.71875 24.75 
Q 40.046875 28.171875 37.921875 29.53125 
Q 35.796875 30.90625 33.59375 31.453125 
Q 31.984375 31.78125 28.328125 31.78125 
L 17.328125 31.78125 
L 17.328125 0 
z
M 17.328125 39.984375 
L 37.703125 39.984375 
Q 44.1875 39.984375 47.84375 41.328125 
Q 51.515625 42.671875 53.421875 45.625 
Q 55.328125 48.578125 55.328125 52.046875 
Q 55.328125 57.125 51.640625 60.390625 
Q 47.953125 63.671875 39.984375 63.671875 
L 17.328125 63.671875 
z
" id="ArialMT-52"/>
      <path d="M 9.03125 41.84375 
L 9.03125 51.859375 
L 19.046875 51.859375 
L 19.046875 41.84375 
z
M 9.03125 0 
L 9.03125 10.015625 
L 19.046875 10.015625 
L 19.046875 0 
z
" id="ArialMT-3a"/>
      <path d="M 6.640625 0 
L 6.640625 71.578125 
L 15.4375 71.578125 
L 15.4375 30.765625 
L 36.234375 51.859375 
L 47.609375 51.859375 
L 27.78125 32.625 
L 49.609375 0 
L 38.765625 0 
L 21.625 26.515625 
L 15.4375 20.5625 
L 15.4375 0 
z
" id="ArialMT-6b"/>
      <path d="M 0 -1.21875 
L 20.75 72.796875 
L 27.78125 72.796875 
L 7.078125 -1.21875 
z
" id="ArialMT-2f"/>
      <path d="M 16.15625 0 
L 0.296875 51.859375 
L 9.375 51.859375 
L 17.625 21.921875 
L 20.703125 10.796875 
Q 20.90625 11.625 23.390625 21.484375 
L 31.640625 51.859375 
L 40.671875 51.859375 
L 48.4375 21.78125 
L 51.03125 11.859375 
L 54 21.875 
L 62.890625 51.859375 
L 71.4375 51.859375 
L 55.21875 0 
L 46.09375 0 
L 37.84375 31.0625 
L 35.84375 39.890625 
L 25.34375 0 
z
" id="ArialMT-77"/>
      <path d="M 8.6875 0 
L 8.6875 45.015625 
L 0.921875 45.015625 
L 0.921875 51.859375 
L 8.6875 51.859375 
L 8.6875 57.375 
Q 8.6875 62.59375 9.625 65.140625 
Q 10.890625 68.5625 14.078125 70.671875 
Q 17.28125 72.796875 23.046875 72.796875 
Q 26.765625 72.796875 31.25 71.921875 
L 29.9375 64.265625 
Q 27.203125 64.75 24.75 64.75 
Q 20.75 64.75 19.09375 63.03125 
Q 17.4375 61.328125 17.4375 56.640625 
L 17.4375 51.859375 
L 27.546875 51.859375 
L 27.546875 45.015625 
L 17.4375 45.015625 
L 17.4375 0 
z
" id="ArialMT-66"/>
     </defs>
     <g style="fill:#262626;" transform="translate(19.5687 380.217938)rotate(-90)scale(0.1728 -0.1728)">
      <use xlink:href="#ArialMT-41"/>
      <use x="66.699219" xlink:href="#ArialMT-63"/>
      <use x="116.699219" xlink:href="#ArialMT-63"/>
      <use x="166.699219" xlink:href="#ArialMT-69"/>
      <use x="188.916016" xlink:href="#ArialMT-64"/>
      <use x="244.53125" xlink:href="#ArialMT-65"/>
      <use x="300.146484" xlink:href="#ArialMT-6e"/>
      <use x="355.761719" xlink:href="#ArialMT-74"/>
      <use x="383.544922" xlink:href="#ArialMT-20"/>
      <use x="411.328125" xlink:href="#ArialMT-52"/>
      <use x="483.544922" xlink:href="#ArialMT-61"/>
      <use x="539.160156" xlink:href="#ArialMT-74"/>
      <use x="566.943359" xlink:href="#ArialMT-69"/>
      <use x="589.160156" xlink:href="#ArialMT-6f"/>
      <use x="644.775391" xlink:href="#ArialMT-3a"/>
      <use x="672.558594" xlink:href="#ArialMT-20"/>
      <use x="700.341797" xlink:href="#ArialMT-44"/>
      <use x="772.558594" xlink:href="#ArialMT-53"/>
      <use x="839.257812" xlink:href="#ArialMT-54"/>
      <use x="900.326172" xlink:href="#ArialMT-20"/>
      <use x="928.109375" xlink:href="#ArialMT-57"/>
      <use x="1022.478516" xlink:href="#ArialMT-65"/>
      <use x="1078.09375" xlink:href="#ArialMT-65"/>
      <use x="1133.708984" xlink:href="#ArialMT-6b"/>
      <use x="1183.708984" xlink:href="#ArialMT-20"/>
      <use x="1211.492188" xlink:href="#ArialMT-2f"/>
      <use x="1239.275391" xlink:href="#ArialMT-20"/>
      <use x="1267.042969" xlink:href="#ArialMT-54"/>
      <use x="1328.048828" xlink:href="#ArialMT-77"/>
      <use x="1400.265625" xlink:href="#ArialMT-6f"/>
      <use x="1455.880859" xlink:href="#ArialMT-20"/>
      <use x="1483.664062" xlink:href="#ArialMT-57"/>
      <use x="1578.033203" xlink:href="#ArialMT-65"/>
      <use x="1633.648438" xlink:href="#ArialMT-65"/>
      <use x="1689.263672" xlink:href="#ArialMT-6b"/>
      <use x="1739.263672" xlink:href="#ArialMT-73"/>
      <use x="1789.263672" xlink:href="#ArialMT-20"/>
      <use x="1816.96875" xlink:href="#ArialMT-41"/>
      <use x="1883.667969" xlink:href="#ArialMT-66"/>
      <use x="1911.451172" xlink:href="#ArialMT-74"/>
      <use x="1939.234375" xlink:href="#ArialMT-65"/>
      <use x="1994.849609" xlink:href="#ArialMT-72"/>
     </g>
    </g>
   </g>
   <g id="PolyCollection_1">
    <defs>
     <path d="M 99.70995 -50.232346 
L 95.873392 -50.232346 
L 95.678504 -52.024293 
L 95.481201 -53.81624 
L 95.283532 -55.608186 
L 95.087361 -57.400133 
L 94.894217 -59.192079 
L 94.705143 -60.984026 
L 94.520548 -62.775972 
L 94.340081 -64.567919 
L 94.162527 -66.359865 
L 93.985744 -68.151812 
L 93.806639 -69.943759 
L 93.621195 -71.735705 
L 93.424547 -73.527652 
L 93.211115 -75.319598 
L 92.97478 -77.111545 
L 92.709105 -78.903491 
L 92.40759 -80.695438 
L 92.063943 -82.487384 
L 91.672371 -84.279331 
L 91.22785 -86.071278 
L 90.72639 -87.863224 
L 90.16526 -89.655171 
L 89.543167 -91.447117 
L 88.86039 -93.239064 
L 88.118842 -95.03101 
L 87.322076 -96.822957 
L 86.475226 -98.614903 
L 85.584887 -100.40685 
L 84.658934 -102.198797 
L 83.706306 -103.990743 
L 82.73674 -105.78269 
L 81.760495 -107.574636 
L 80.78805 -109.366583 
L 79.829813 -111.158529 
L 78.895837 -112.950476 
L 77.995563 -114.742423 
L 77.137594 -116.534369 
L 76.329511 -118.326316 
L 75.577738 -120.118262 
L 74.887456 -121.910209 
L 74.262573 -123.702155 
L 73.70574 -125.494102 
L 73.218424 -127.286048 
L 72.80102 -129.077995 
L 72.452998 -130.869942 
L 72.173086 -132.661888 
L 71.95946 -134.453835 
L 71.809953 -136.245781 
L 71.722246 -138.037728 
L 71.694053 -139.829674 
L 71.723274 -141.621621 
L 71.808118 -143.413567 
L 71.947175 -145.205514 
L 72.139451 -146.997461 
L 72.384349 -148.789407 
L 72.681607 -150.581354 
L 73.031191 -152.3733 
L 73.433162 -154.165247 
L 73.887506 -155.957193 
L 74.393965 -157.74914 
L 74.951857 -159.541087 
L 75.559909 -161.333033 
L 76.216122 -163.12498 
L 76.917657 -164.916926 
L 77.66077 -166.708873 
L 78.440795 -168.500819 
L 79.252178 -170.292766 
L 80.088555 -172.084712 
L 80.942891 -173.876659 
L 81.807646 -175.668606 
L 82.674991 -177.460552 
L 83.537034 -179.252499 
L 84.386069 -181.044445 
L 85.214816 -182.836392 
L 86.016656 -184.628338 
L 86.785835 -186.420285 
L 87.517634 -188.212231 
L 88.208495 -190.004178 
L 88.856088 -191.796125 
L 89.459337 -193.588071 
L 90.018374 -195.380018 
L 90.53445 -197.171964 
L 91.009796 -198.963911 
L 91.447449 -200.755857 
L 91.85104 -202.547804 
L 92.22458 -204.33975 
L 92.572238 -206.131697 
L 92.898124 -207.923644 
L 93.2061 -209.71559 
L 93.49962 -211.507537 
L 93.781609 -213.299483 
L 94.054378 -215.09143 
L 94.319591 -216.883376 
L 94.578269 -218.675323 
L 94.830826 -220.46727 
L 95.07715 -222.259216 
L 95.316691 -224.051163 
L 95.548573 -225.843109 
L 95.771714 -227.635056 
L 99.811629 -227.635056 
L 99.811629 -227.635056 
L 100.03477 -225.843109 
L 100.266652 -224.051163 
L 100.506193 -222.259216 
L 100.752516 -220.46727 
L 101.005074 -218.675323 
L 101.263752 -216.883376 
L 101.528965 -215.09143 
L 101.801734 -213.299483 
L 102.083723 -211.507537 
L 102.377243 -209.71559 
L 102.685219 -207.923644 
L 103.011104 -206.131697 
L 103.358762 -204.33975 
L 103.732303 -202.547804 
L 104.135894 -200.755857 
L 104.573546 -198.963911 
L 105.048893 -197.171964 
L 105.564969 -195.380018 
L 106.124006 -193.588071 
L 106.727255 -191.796125 
L 107.374848 -190.004178 
L 108.065708 -188.212231 
L 108.797508 -186.420285 
L 109.566687 -184.628338 
L 110.368527 -182.836392 
L 111.197274 -181.044445 
L 112.046309 -179.252499 
L 112.908352 -177.460552 
L 113.775697 -175.668606 
L 114.640452 -173.876659 
L 115.494788 -172.084712 
L 116.331165 -170.292766 
L 117.142547 -168.500819 
L 117.922573 -166.708873 
L 118.665686 -164.916926 
L 119.36722 -163.12498 
L 120.023434 -161.333033 
L 120.631486 -159.541087 
L 121.189378 -157.74914 
L 121.695837 -155.957193 
L 122.150181 -154.165247 
L 122.552152 -152.3733 
L 122.901736 -150.581354 
L 123.198994 -148.789407 
L 123.443892 -146.997461 
L 123.636168 -145.205514 
L 123.775225 -143.413567 
L 123.860068 -141.621621 
L 123.88929 -139.829674 
L 123.861097 -138.037728 
L 123.77339 -136.245781 
L 123.623883 -134.453835 
L 123.410257 -132.661888 
L 123.130345 -130.869942 
L 122.782323 -129.077995 
L 122.364918 -127.286048 
L 121.877603 -125.494102 
L 121.32077 -123.702155 
L 120.695886 -121.910209 
L 120.005605 -120.118262 
L 119.253832 -118.326316 
L 118.445749 -116.534369 
L 117.58778 -114.742423 
L 116.687506 -112.950476 
L 115.75353 -111.158529 
L 114.795293 -109.366583 
L 113.822848 -107.574636 
L 112.846603 -105.78269 
L 111.877037 -103.990743 
L 110.924409 -102.198797 
L 109.998456 -100.40685 
L 109.108117 -98.614903 
L 108.261267 -96.822957 
L 107.464501 -95.03101 
L 106.722953 -93.239064 
L 106.040176 -91.447117 
L 105.418083 -89.655171 
L 104.856953 -87.863224 
L 104.355493 -86.071278 
L 103.910972 -84.279331 
L 103.519399 -82.487384 
L 103.175753 -80.695438 
L 102.874238 -78.903491 
L 102.608563 -77.111545 
L 102.372228 -75.319598 
L 102.158796 -73.527652 
L 101.962148 -71.735705 
L 101.776703 -69.943759 
L 101.597599 -68.151812 
L 101.420816 -66.359865 
L 101.243262 -64.567919 
L 101.062795 -62.775972 
L 100.8782 -60.984026 
L 100.689126 -59.192079 
L 100.495982 -57.400133 
L 100.299811 -55.608186 
L 100.102142 -53.81624 
L 99.904839 -52.024293 
L 99.70995 -50.232346 
z
" id="m0af26c61a4" style="stroke:#414141;stroke-width:2;"/>
    </defs>
    <g clip-path="url(#pc85108d5bf)">
     <use style="fill:#e68193;stroke:#414141;stroke-width:2;" x="0" xlink:href="#m0af26c61a4" y="391.910113"/>
    </g>
   </g>
   <g id="PolyCollection_2">
    <defs>
     <path d="M 196.359034 -105.48073 
L 190.538595 -105.48073 
L 190.171323 -107.0348 
L 189.776056 -108.588869 
L 189.352684 -110.142939 
L 188.901212 -111.697008 
L 188.42174 -113.251078 
L 187.914455 -114.805147 
L 187.379617 -116.359217 
L 186.817573 -117.913286 
L 186.228766 -119.467356 
L 185.613768 -121.021425 
L 184.973324 -122.575495 
L 184.308404 -124.129564 
L 183.620268 -125.683634 
L 182.910531 -127.237703 
L 182.181233 -128.791773 
L 181.434898 -130.345842 
L 180.674577 -131.899912 
L 179.903874 -133.453981 
L 179.126946 -135.008051 
L 178.348473 -136.56212 
L 177.573588 -138.116189 
L 176.807778 -139.670259 
L 176.056756 -141.224328 
L 175.326293 -142.778398 
L 174.622041 -144.332467 
L 173.949333 -145.886537 
L 173.312985 -147.440606 
L 172.717103 -148.994676 
L 172.164911 -150.548745 
L 171.658613 -152.102815 
L 171.199285 -153.656884 
L 170.78683 -155.210954 
L 170.419975 -156.765023 
L 170.09633 -158.319093 
L 169.812505 -159.873162 
L 169.564275 -161.427232 
L 169.346798 -162.981301 
L 169.154869 -164.535371 
L 168.983196 -166.08944 
L 168.826699 -167.64351 
L 168.680801 -169.197579 
L 168.541713 -170.751649 
L 168.406676 -172.305718 
L 168.274184 -173.859788 
L 168.144129 -175.413857 
L 168.017902 -176.967927 
L 167.898418 -178.521996 
L 167.790062 -180.076065 
L 167.698572 -181.630135 
L 167.630842 -183.184204 
L 167.594664 -184.738274 
L 167.598414 -186.292343 
L 167.650698 -187.846413 
L 167.759965 -189.400482 
L 167.934115 -190.954552 
L 168.180113 -192.508621 
L 168.503629 -194.062691 
L 168.908724 -195.61676 
L 169.397587 -197.17083 
L 169.97036 -198.724899 
L 170.625029 -200.278969 
L 171.357417 -201.833038 
L 172.16126 -203.387108 
L 173.028371 -204.941177 
L 173.948889 -206.495247 
L 174.911592 -208.049316 
L 175.904266 -209.603386 
L 176.914112 -211.157455 
L 177.92817 -212.711525 
L 178.933746 -214.265594 
L 179.918814 -215.819664 
L 180.872384 -217.373733 
L 181.784819 -218.927803 
L 182.648082 -220.481872 
L 183.455918 -222.035941 
L 184.203951 -223.590011 
L 184.889703 -225.14408 
L 185.512548 -226.69815 
L 186.073578 -228.252219 
L 186.575426 -229.806289 
L 187.022033 -231.360358 
L 187.418381 -232.914428 
L 187.770205 -234.468497 
L 188.083702 -236.022567 
L 188.365242 -237.576636 
L 188.6211 -239.130706 
L 188.857224 -240.684775 
L 189.079029 -242.238845 
L 189.291249 -243.792914 
L 189.497821 -245.346984 
L 189.701831 -246.901053 
L 189.905495 -248.455123 
L 190.110186 -250.009192 
L 190.316497 -251.563262 
L 190.52433 -253.117331 
L 190.73301 -254.671401 
L 190.941408 -256.22547 
L 191.148073 -257.77954 
L 191.351358 -259.333609 
L 195.54627 -259.333609 
L 195.54627 -259.333609 
L 195.749556 -257.77954 
L 195.956221 -256.22547 
L 196.164619 -254.671401 
L 196.373299 -253.117331 
L 196.581132 -251.563262 
L 196.787443 -250.009192 
L 196.992134 -248.455123 
L 197.195798 -246.901053 
L 197.399808 -245.346984 
L 197.60638 -243.792914 
L 197.818599 -242.238845 
L 198.040405 -240.684775 
L 198.276529 -239.130706 
L 198.532387 -237.576636 
L 198.813926 -236.022567 
L 199.127423 -234.468497 
L 199.479248 -232.914428 
L 199.875596 -231.360358 
L 200.322203 -229.806289 
L 200.824051 -228.252219 
L 201.385081 -226.69815 
L 202.007925 -225.14408 
L 202.693678 -223.590011 
L 203.44171 -222.035941 
L 204.249546 -220.481872 
L 205.112809 -218.927803 
L 206.025244 -217.373733 
L 206.978815 -215.819664 
L 207.963882 -214.265594 
L 208.969458 -212.711525 
L 209.983517 -211.157455 
L 210.993362 -209.603386 
L 211.986036 -208.049316 
L 212.948739 -206.495247 
L 213.869258 -204.941177 
L 214.736369 -203.387108 
L 215.540211 -201.833038 
L 216.272599 -200.278969 
L 216.927269 -198.724899 
L 217.500041 -197.17083 
L 217.988905 -195.61676 
L 218.393999 -194.062691 
L 218.717516 -192.508621 
L 218.963514 -190.954552 
L 219.137664 -189.400482 
L 219.24693 -187.846413 
L 219.299214 -186.292343 
L 219.302965 -184.738274 
L 219.266787 -183.184204 
L 219.199057 -181.630135 
L 219.107567 -180.076065 
L 218.999211 -178.521996 
L 218.879726 -176.967927 
L 218.7535 -175.413857 
L 218.623445 -173.859788 
L 218.490952 -172.305718 
L 218.355916 -170.751649 
L 218.216827 -169.197579 
L 218.07093 -167.64351 
L 217.914433 -166.08944 
L 217.74276 -164.535371 
L 217.55083 -162.981301 
L 217.333354 -161.427232 
L 217.085124 -159.873162 
L 216.801299 -158.319093 
L 216.477654 -156.765023 
L 216.110799 -155.210954 
L 215.698344 -153.656884 
L 215.239016 -152.102815 
L 214.732717 -150.548745 
L 214.180525 -148.994676 
L 213.584643 -147.440606 
L 212.948295 -145.886537 
L 212.275587 -144.332467 
L 211.571336 -142.778398 
L 210.840873 -141.224328 
L 210.08985 -139.670259 
L 209.324041 -138.116189 
L 208.549155 -136.56212 
L 207.770682 -135.008051 
L 206.993755 -133.453981 
L 206.223052 -131.899912 
L 205.46273 -130.345842 
L 204.716395 -128.791773 
L 203.987098 -127.237703 
L 203.277361 -125.683634 
L 202.589224 -124.129564 
L 201.924304 -122.575495 
L 201.283861 -121.021425 
L 200.668863 -119.467356 
L 200.080056 -117.913286 
L 199.518011 -116.359217 
L 198.983174 -114.805147 
L 198.475888 -113.251078 
L 197.996417 -111.697008 
L 197.544945 -110.142939 
L 197.121573 -108.588869 
L 196.726305 -107.0348 
L 196.359034 -105.48073 
z
" id="m4676556264" style="stroke:#414141;stroke-width:2;"/>
    </defs>
    <g clip-path="url(#pc85108d5bf)">
     <use style="fill:#b38e44;stroke:#414141;stroke-width:2;" x="0" xlink:href="#m4676556264" y="391.910113"/>
    </g>
   </g>
   <g id="PolyCollection_3">
    <defs>
     <path d="M 293.747331 -111.763896 
L 284.464583 -111.763896 
L 283.834382 -114.060015 
L 283.156603 -116.356134 
L 282.432439 -118.652254 
L 281.663451 -120.948373 
L 280.851487 -123.244492 
L 279.998625 -125.540611 
L 279.107127 -127.83673 
L 278.179432 -130.13285 
L 277.218182 -132.428969 
L 276.226298 -134.725088 
L 275.207104 -137.021207 
L 274.164481 -139.317326 
L 273.103064 -141.613446 
L 272.028442 -143.909565 
L 270.947356 -146.205684 
L 269.867869 -148.501803 
L 268.79948 -150.797923 
L 267.75316 -153.094042 
L 266.741303 -155.390161 
L 265.777557 -157.68628 
L 264.876561 -159.982399 
L 264.053561 -162.278519 
L 263.323939 -164.574638 
L 262.702679 -166.870757 
L 262.203777 -169.166876 
L 261.839654 -171.462996 
L 261.620597 -173.759115 
L 261.554267 -176.055234 
L 261.645297 -178.351353 
L 261.895029 -180.647472 
L 262.301379 -182.943592 
L 262.85886 -185.239711 
L 263.558757 -187.53583 
L 264.389432 -189.831949 
L 265.336752 -192.128069 
L 266.384605 -194.424188 
L 267.515471 -196.720307 
L 268.71103 -199.016426 
L 269.952746 -201.312545 
L 271.222431 -203.608665 
L 272.502738 -205.904784 
L 273.777571 -208.200903 
L 275.032418 -210.497022 
L 276.254566 -212.793141 
L 277.433243 -215.089261 
L 278.559652 -217.38538 
L 279.626943 -219.681499 
L 280.630109 -221.977618 
L 281.565844 -224.273738 
L 282.43236 -226.569857 
L 283.229188 -228.865976 
L 283.95697 -231.162095 
L 284.617259 -233.458214 
L 285.212322 -235.754334 
L 285.744962 -238.050453 
L 286.218363 -240.346572 
L 286.635948 -242.642691 
L 287.001258 -244.938811 
L 287.317853 -247.23493 
L 287.589233 -249.531049 
L 287.818764 -251.827168 
L 288.009635 -254.123287 
L 288.164816 -256.419407 
L 288.28704 -258.715526 
L 288.378794 -261.011645 
L 288.442322 -263.307764 
L 288.479645 -265.603883 
L 288.492592 -267.900003 
L 288.482841 -270.196122 
L 288.451969 -272.492241 
L 288.401513 -274.78836 
L 288.333029 -277.08448 
L 288.248155 -279.380599 
L 288.14867 -281.676718 
L 288.03654 -283.972837 
L 287.913958 -286.268956 
L 287.783362 -288.565076 
L 287.647439 -290.861195 
L 287.509099 -293.157314 
L 287.37144 -295.453433 
L 287.23768 -297.749553 
L 287.111076 -300.045672 
L 286.994826 -302.341791 
L 286.891969 -304.63791 
L 286.805269 -306.934029 
L 286.737113 -309.230149 
L 286.689419 -311.526268 
L 286.663549 -313.822387 
L 286.660261 -316.118506 
L 286.679674 -318.414625 
L 286.721269 -320.710745 
L 286.78391 -323.006864 
L 286.865905 -325.302983 
L 286.96508 -327.599102 
L 287.078874 -329.895222 
L 287.204454 -332.191341 
L 287.338829 -334.48746 
L 287.478971 -336.783579 
L 287.621919 -339.079698 
L 290.589995 -339.079698 
L 290.589995 -339.079698 
L 290.732944 -336.783579 
L 290.873085 -334.48746 
L 291.007461 -332.191341 
L 291.133041 -329.895222 
L 291.246835 -327.599102 
L 291.346009 -325.302983 
L 291.428004 -323.006864 
L 291.490646 -320.710745 
L 291.53224 -318.414625 
L 291.551653 -316.118506 
L 291.548365 -313.822387 
L 291.522496 -311.526268 
L 291.474801 -309.230149 
L 291.406646 -306.934029 
L 291.319946 -304.63791 
L 291.217088 -302.341791 
L 291.100839 -300.045672 
L 290.974234 -297.749553 
L 290.840474 -295.453433 
L 290.702815 -293.157314 
L 290.564476 -290.861195 
L 290.428552 -288.565076 
L 290.297956 -286.268956 
L 290.175374 -283.972837 
L 290.063244 -281.676718 
L 289.963759 -279.380599 
L 289.878885 -277.08448 
L 289.810401 -274.78836 
L 289.759945 -272.492241 
L 289.729074 -270.196122 
L 289.719322 -267.900003 
L 289.732269 -265.603883 
L 289.769592 -263.307764 
L 289.83312 -261.011645 
L 289.924874 -258.715526 
L 290.047099 -256.419407 
L 290.20228 -254.123287 
L 290.39315 -251.827168 
L 290.622682 -249.531049 
L 290.894061 -247.23493 
L 291.210657 -244.938811 
L 291.575966 -242.642691 
L 291.993551 -240.346572 
L 292.466952 -238.050453 
L 292.999593 -235.754334 
L 293.594655 -233.458214 
L 294.254944 -231.162095 
L 294.982726 -228.865976 
L 295.779554 -226.569857 
L 296.64607 -224.273738 
L 297.581805 -221.977618 
L 298.584972 -219.681499 
L 299.652262 -217.38538 
L 300.778672 -215.089261 
L 301.957348 -212.793141 
L 303.179497 -210.497022 
L 304.434343 -208.200903 
L 305.709177 -205.904784 
L 306.989483 -203.608665 
L 308.259168 -201.312545 
L 309.500885 -199.016426 
L 310.696443 -196.720307 
L 311.82731 -194.424188 
L 312.875162 -192.128069 
L 313.822482 -189.831949 
L 314.653158 -187.53583 
L 315.353055 -185.239711 
L 315.910536 -182.943592 
L 316.316885 -180.647472 
L 316.566617 -178.351353 
L 316.657648 -176.055234 
L 316.591317 -173.759115 
L 316.372261 -171.462996 
L 316.008137 -169.166876 
L 315.509235 -166.870757 
L 314.887975 -164.574638 
L 314.158354 -162.278519 
L 313.335353 -159.982399 
L 312.434357 -157.68628 
L 311.470611 -155.390161 
L 310.458754 -153.094042 
L 309.412434 -150.797923 
L 308.344045 -148.501803 
L 307.264559 -146.205684 
L 306.183473 -143.909565 
L 305.10885 -141.613446 
L 304.047433 -139.317326 
L 303.004811 -137.021207 
L 301.985616 -134.725088 
L 300.993733 -132.428969 
L 300.032482 -130.13285 
L 299.104787 -127.83673 
L 298.213289 -125.540611 
L 297.360427 -123.244492 
L 296.548463 -120.948373 
L 295.779475 -118.652254 
L 295.055312 -116.356134 
L 294.377532 -114.060015 
L 293.747331 -111.763896 
z
" id="m1226ac99ea" style="stroke:#414141;stroke-width:2;"/>
    </defs>
    <g clip-path="url(#pc85108d5bf)">
     <use style="fill:#7d9a40;stroke:#414141;stroke-width:2;" x="0" xlink:href="#m1226ac99ea" y="391.910113"/>
    </g>
   </g>
   <g id="PolyCollection_4">
    <defs>
     <path d="M 387.889296 -88.745349 
L 381.636904 -88.745349 
L 381.193607 -90.900221 
L 380.708834 -93.055094 
L 380.182107 -95.209966 
L 379.613506 -97.364839 
L 379.003734 -99.519711 
L 378.354177 -101.674584 
L 377.666952 -103.829456 
L 376.944938 -105.984329 
L 376.191802 -108.139201 
L 375.41199 -110.294074 
L 374.610707 -112.448946 
L 373.793869 -114.603819 
L 372.968027 -116.758691 
L 372.140267 -118.913564 
L 371.318088 -121.068436 
L 370.509247 -123.223309 
L 369.721597 -125.378181 
L 368.9629 -127.533054 
L 368.240642 -129.687926 
L 367.561837 -131.842799 
L 366.93285 -133.997671 
L 366.359221 -136.152544 
L 365.845528 -138.307416 
L 365.39527 -140.462289 
L 365.010791 -142.617161 
L 364.693242 -144.772034 
L 364.442594 -146.926906 
L 364.257683 -149.081779 
L 364.136312 -151.236651 
L 364.075374 -153.391524 
L 364.071018 -155.546396 
L 364.118835 -157.701269 
L 364.214055 -159.856141 
L 364.35175 -162.011014 
L 364.527035 -164.165886 
L 364.735244 -166.320759 
L 364.972091 -168.475631 
L 365.233795 -170.630504 
L 365.517171 -172.785376 
L 365.819678 -174.940249 
L 366.139431 -177.095122 
L 366.475173 -179.249994 
L 366.82621 -181.404867 
L 367.192319 -183.559739 
L 367.573633 -185.714612 
L 367.970506 -187.869484 
L 368.383382 -190.024357 
L 368.812657 -192.179229 
L 369.258552 -194.334102 
L 369.721007 -196.488974 
L 370.19959 -198.643847 
L 370.693442 -200.798719 
L 371.201242 -202.953592 
L 371.721199 -205.108464 
L 372.25108 -207.263337 
L 372.788252 -209.418209 
L 373.329751 -211.573082 
L 373.87236 -213.727954 
L 374.412702 -215.882827 
L 374.947329 -218.037699 
L 375.47282 -220.192572 
L 375.985865 -222.347444 
L 376.483344 -224.502317 
L 376.962393 -226.657189 
L 377.420464 -228.812062 
L 377.855361 -230.966934 
L 378.265277 -233.121807 
L 378.648812 -235.276679 
L 379.004981 -237.431552 
L 379.333225 -239.586424 
L 379.6334 -241.741297 
L 379.905778 -243.896169 
L 380.151026 -246.051042 
L 380.370199 -248.205914 
L 380.56471 -250.360787 
L 380.736306 -252.515659 
L 380.887038 -254.670532 
L 381.019213 -256.825404 
L 381.135353 -258.980277 
L 381.238133 -261.135149 
L 381.330323 -263.290022 
L 381.414716 -265.444895 
L 381.494057 -267.599767 
L 381.570969 -269.75464 
L 381.647882 -271.909512 
L 381.726967 -274.064385 
L 381.810075 -276.219257 
L 381.898694 -278.37413 
L 381.993911 -280.529002 
L 382.096399 -282.683875 
L 382.20641 -284.838747 
L 382.323794 -286.99362 
L 382.448027 -289.148492 
L 382.578256 -291.303365 
L 382.71335 -293.458237 
L 382.851968 -295.61311 
L 382.992622 -297.767982 
L 383.133749 -299.922855 
L 383.273774 -302.077727 
L 386.252426 -302.077727 
L 386.252426 -302.077727 
L 386.392451 -299.922855 
L 386.533578 -297.767982 
L 386.674232 -295.61311 
L 386.81285 -293.458237 
L 386.947944 -291.303365 
L 387.078173 -289.148492 
L 387.202406 -286.99362 
L 387.31979 -284.838747 
L 387.429801 -282.683875 
L 387.532289 -280.529002 
L 387.627506 -278.37413 
L 387.716125 -276.219257 
L 387.799233 -274.064385 
L 387.878318 -271.909512 
L 387.955231 -269.75464 
L 388.032143 -267.599767 
L 388.111484 -265.444895 
L 388.195877 -263.290022 
L 388.288067 -261.135149 
L 388.390847 -258.980277 
L 388.506987 -256.825404 
L 388.639162 -254.670532 
L 388.789894 -252.515659 
L 388.96149 -250.360787 
L 389.156001 -248.205914 
L 389.375174 -246.051042 
L 389.620422 -243.896169 
L 389.8928 -241.741297 
L 390.192975 -239.586424 
L 390.521219 -237.431552 
L 390.877388 -235.276679 
L 391.260923 -233.121807 
L 391.670839 -230.966934 
L 392.105736 -228.812062 
L 392.563807 -226.657189 
L 393.042856 -224.502317 
L 393.540335 -222.347444 
L 394.05338 -220.192572 
L 394.578871 -218.037699 
L 395.113498 -215.882827 
L 395.65384 -213.727954 
L 396.196449 -211.573082 
L 396.737948 -209.418209 
L 397.27512 -207.263337 
L 397.805001 -205.108464 
L 398.324958 -202.953592 
L 398.832758 -200.798719 
L 399.32661 -198.643847 
L 399.805193 -196.488974 
L 400.267648 -194.334102 
L 400.713543 -192.179229 
L 401.142818 -190.024357 
L 401.555694 -187.869484 
L 401.952567 -185.714612 
L 402.333881 -183.559739 
L 402.69999 -181.404867 
L 403.051027 -179.249994 
L 403.386769 -177.095122 
L 403.706522 -174.940249 
L 404.009029 -172.785376 
L 404.292405 -170.630504 
L 404.554109 -168.475631 
L 404.790956 -166.320759 
L 404.999165 -164.165886 
L 405.17445 -162.011014 
L 405.312145 -159.856141 
L 405.407365 -157.701269 
L 405.455182 -155.546396 
L 405.450826 -153.391524 
L 405.389888 -151.236651 
L 405.268517 -149.081779 
L 405.083606 -146.926906 
L 404.832958 -144.772034 
L 404.515409 -142.617161 
L 404.13093 -140.462289 
L 403.680672 -138.307416 
L 403.166979 -136.152544 
L 402.59335 -133.997671 
L 401.964363 -131.842799 
L 401.285558 -129.687926 
L 400.5633 -127.533054 
L 399.804603 -125.378181 
L 399.016953 -123.223309 
L 398.208112 -121.068436 
L 397.385933 -118.913564 
L 396.558173 -116.758691 
L 395.732331 -114.603819 
L 394.915493 -112.448946 
L 394.11421 -110.294074 
L 393.334398 -108.139201 
L 392.581262 -105.984329 
L 391.859248 -103.829456 
L 391.172023 -101.674584 
L 390.522466 -99.519711 
L 389.912694 -97.364839 
L 389.344093 -95.209966 
L 388.817366 -93.055094 
L 388.332593 -90.900221 
L 387.889296 -88.745349 
z
" id="m22036150b1" style="stroke:#414141;stroke-width:2;"/>
    </defs>
    <g clip-path="url(#pc85108d5bf)">
     <use style="fill:#43a084;stroke:#414141;stroke-width:2;" x="0" xlink:href="#m22036150b1" y="391.910113"/>
    </g>
   </g>
   <g id="PolyCollection_5">
    <defs>
     <path d="M 484.185409 -104.030387 
L 476.655077 -104.030387 
L 476.181111 -105.329831 
L 475.66971 -106.629275 
L 475.121011 -107.92872 
L 474.535603 -109.228164 
L 473.914557 -110.527608 
L 473.259443 -111.827052 
L 472.572351 -113.126497 
L 471.855881 -114.425941 
L 471.113134 -115.725385 
L 470.347678 -117.02483 
L 469.563498 -118.324274 
L 468.764928 -119.623718 
L 467.956562 -120.923163 
L 467.143148 -122.222607 
L 466.329461 -123.522051 
L 465.520172 -124.821496 
L 464.719696 -126.12094 
L 463.932048 -127.420384 
L 463.160696 -128.719828 
L 462.408429 -130.019273 
L 461.677244 -131.318717 
L 460.968266 -132.618161 
L 460.281693 -133.917606 
L 459.616795 -135.21705 
L 458.971957 -136.516494 
L 458.344763 -137.815939 
L 457.732146 -139.115383 
L 457.130566 -140.414827 
L 456.536241 -141.714271 
L 455.945411 -143.013716 
L 455.354606 -144.31316 
L 454.760947 -145.612604 
L 454.162416 -146.912049 
L 453.558118 -148.211493 
L 452.948503 -149.510937 
L 452.335536 -150.810382 
L 451.722806 -152.109826 
L 451.115568 -153.40927 
L 450.520701 -154.708714 
L 449.946599 -156.008159 
L 449.402975 -157.307603 
L 448.900602 -158.607047 
L 448.450995 -159.906492 
L 448.066032 -161.205936 
L 447.757561 -162.50538 
L 447.536967 -163.804825 
L 447.414757 -165.104269 
L 447.400155 -166.403713 
L 447.500725 -167.703158 
L 447.722052 -169.002602 
L 448.067482 -170.302046 
L 448.537925 -171.60149 
L 449.131753 -172.900935 
L 449.844764 -174.200379 
L 450.670242 -175.499823 
L 451.599091 -176.799268 
L 452.620047 -178.098712 
L 453.719959 -179.398156 
L 454.884127 -180.697601 
L 456.096681 -181.997045 
L 457.340998 -183.296489 
L 458.600134 -184.595933 
L 459.85726 -185.895378 
L 461.09609 -187.194822 
L 462.301282 -188.494266 
L 463.458809 -189.793711 
L 464.556281 -191.093155 
L 465.583212 -192.392599 
L 466.531229 -193.692044 
L 467.394214 -194.991488 
L 468.168374 -196.290932 
L 468.852247 -197.590376 
L 469.446638 -198.889821 
L 469.95449 -200.189265 
L 470.380702 -201.488709 
L 470.73189 -202.788154 
L 471.01611 -204.087598 
L 471.242546 -205.387042 
L 471.421183 -206.686487 
L 471.562461 -207.985931 
L 471.676937 -209.285375 
L 471.774955 -210.58482 
L 471.866346 -211.884264 
L 471.960152 -213.183708 
L 472.064394 -214.483152 
L 472.185891 -215.782597 
L 472.330122 -217.082041 
L 472.50115 -218.381485 
L 472.701594 -219.68093 
L 472.932653 -220.980374 
L 473.194183 -222.279818 
L 473.484809 -223.579263 
L 473.802077 -224.878707 
L 474.142628 -226.178151 
L 474.502398 -227.477595 
L 474.876815 -228.77704 
L 475.261007 -230.076484 
L 475.649998 -231.375928 
L 476.038882 -232.675373 
L 484.801604 -232.675373 
L 484.801604 -232.675373 
L 485.190488 -231.375928 
L 485.579478 -230.076484 
L 485.963671 -228.77704 
L 486.338088 -227.477595 
L 486.697858 -226.178151 
L 487.038409 -224.878707 
L 487.355676 -223.579263 
L 487.646302 -222.279818 
L 487.907832 -220.980374 
L 488.138892 -219.68093 
L 488.339336 -218.381485 
L 488.510364 -217.082041 
L 488.654595 -215.782597 
L 488.776092 -214.483152 
L 488.880334 -213.183708 
L 488.974139 -211.884264 
L 489.06553 -210.58482 
L 489.163549 -209.285375 
L 489.278024 -207.985931 
L 489.419302 -206.686487 
L 489.59794 -205.387042 
L 489.824376 -204.087598 
L 490.108596 -202.788154 
L 490.459784 -201.488709 
L 490.885996 -200.189265 
L 491.393848 -198.889821 
L 491.988239 -197.590376 
L 492.672112 -196.290932 
L 493.446272 -194.991488 
L 494.309256 -193.692044 
L 495.257274 -192.392599 
L 496.284205 -191.093155 
L 497.381676 -189.793711 
L 498.539204 -188.494266 
L 499.744396 -187.194822 
L 500.983226 -185.895378 
L 502.240352 -184.595933 
L 503.499488 -183.296489 
L 504.743805 -181.997045 
L 505.956358 -180.697601 
L 507.120526 -179.398156 
L 508.220439 -178.098712 
L 509.241395 -176.799268 
L 510.170243 -175.499823 
L 510.995721 -174.200379 
L 511.708733 -172.900935 
L 512.30256 -171.60149 
L 512.773004 -170.302046 
L 513.118433 -169.002602 
L 513.339761 -167.703158 
L 513.440331 -166.403713 
L 513.425728 -165.104269 
L 513.303519 -163.804825 
L 513.082925 -162.50538 
L 512.774453 -161.205936 
L 512.389491 -159.906492 
L 511.939883 -158.607047 
L 511.437511 -157.307603 
L 510.893887 -156.008159 
L 510.319784 -154.708714 
L 509.724918 -153.40927 
L 509.11768 -152.109826 
L 508.50495 -150.810382 
L 507.891983 -149.510937 
L 507.282368 -148.211493 
L 506.67807 -146.912049 
L 506.079538 -145.612604 
L 505.485879 -144.31316 
L 504.895075 -143.013716 
L 504.304244 -141.714271 
L 503.70992 -140.414827 
L 503.10834 -139.115383 
L 502.495722 -137.815939 
L 501.868529 -136.516494 
L 501.223691 -135.21705 
L 500.558793 -133.917606 
L 499.87222 -132.618161 
L 499.163241 -131.318717 
L 498.432057 -130.019273 
L 497.67979 -128.719828 
L 496.908437 -127.420384 
L 496.120789 -126.12094 
L 495.320313 -124.821496 
L 494.511024 -123.522051 
L 493.697338 -122.222607 
L 492.883923 -120.923163 
L 492.075558 -119.623718 
L 491.276988 -118.324274 
L 490.492808 -117.02483 
L 489.727352 -115.725385 
L 488.984605 -114.425941 
L 488.268135 -113.126497 
L 487.581042 -111.827052 
L 486.925929 -110.527608 
L 486.304882 -109.228164 
L 485.719475 -107.92872 
L 485.170776 -106.629275 
L 484.659375 -105.329831 
L 484.185409 -104.030387 
z
" id="me016a8e7b1" style="stroke:#414141;stroke-width:2;"/>
    </defs>
    <g clip-path="url(#pc85108d5bf)">
     <use style="fill:#489eaa;stroke:#414141;stroke-width:2;" x="0" xlink:href="#me016a8e7b1" y="391.910113"/>
    </g>
   </g>
   <g id="PolyCollection_6">
    <defs>
     <path d="M 582.648424 -107.548549 
L 569.506347 -107.548549 
L 568.872025 -108.635925 
L 568.220372 -109.7233 
L 567.557003 -110.810676 
L 566.88808 -111.898052 
L 566.220194 -112.985428 
L 565.560215 -114.072804 
L 564.915134 -115.160179 
L 564.291877 -116.247555 
L 563.697116 -117.334931 
L 563.13707 -118.422307 
L 562.617315 -119.509682 
L 562.142588 -120.597058 
L 561.716621 -121.684434 
L 561.34198 -122.77181 
L 561.019946 -123.859186 
L 560.750405 -124.946561 
L 560.531797 -126.033937 
L 560.361079 -127.121313 
L 560.233745 -128.208689 
L 560.143871 -129.296064 
L 560.084215 -130.38344 
L 560.046336 -131.470816 
L 560.020768 -132.558192 
L 559.997212 -133.645568 
L 559.964763 -134.732943 
L 559.912161 -135.820319 
L 559.828058 -136.907695 
L 559.701304 -137.995071 
L 559.521236 -139.082446 
L 559.277965 -140.169822 
L 558.962667 -141.257198 
L 558.567851 -142.344574 
L 558.087614 -143.43195 
L 557.517863 -144.519325 
L 556.856507 -145.606701 
L 556.103602 -146.694077 
L 555.261454 -147.781453 
L 554.334667 -148.868828 
L 553.330129 -149.956204 
L 552.256943 -151.04358 
L 551.126296 -152.130956 
L 549.951264 -153.218331 
L 548.74656 -154.305707 
L 547.528236 -155.393083 
L 546.313327 -156.480459 
L 545.119476 -157.567835 
L 543.964513 -158.65521 
L 542.866042 -159.742586 
L 541.841014 -160.829962 
L 540.905319 -161.917338 
L 540.073404 -163.004713 
L 539.357937 -164.092089 
L 538.769507 -165.179465 
L 538.316406 -166.266841 
L 538.004458 -167.354217 
L 537.836932 -168.441592 
L 537.814529 -169.528968 
L 537.935435 -170.616344 
L 538.195455 -171.70372 
L 538.588198 -172.791095 
L 539.105326 -173.878471 
L 539.736847 -174.965847 
L 540.471438 -176.053223 
L 541.296795 -177.140599 
L 542.199987 -178.227974 
L 543.16781 -179.31535 
L 544.187128 -180.402726 
L 545.245187 -181.490102 
L 546.32989 -182.577477 
L 547.430045 -183.664853 
L 548.53555 -184.752229 
L 549.637541 -185.839605 
L 550.728482 -186.926981 
L 551.802202 -188.014356 
L 552.853895 -189.101732 
L 553.880062 -190.189108 
L 554.878422 -191.276484 
L 555.84779 -192.363859 
L 556.787925 -193.451235 
L 557.699362 -194.538611 
L 558.58324 -195.625987 
L 559.441115 -196.713362 
L 560.274791 -197.800738 
L 561.086157 -198.888114 
L 561.877036 -199.97549 
L 562.649063 -201.062866 
L 563.403588 -202.150241 
L 564.141599 -203.237617 
L 564.863678 -204.324993 
L 565.569983 -205.412369 
L 566.260256 -206.499744 
L 566.933852 -207.58712 
L 567.589785 -208.674496 
L 568.226796 -209.761872 
L 568.843425 -210.849248 
L 569.438092 -211.936623 
L 570.009181 -213.023999 
L 570.555115 -214.111375 
L 571.074436 -215.198751 
L 581.080335 -215.198751 
L 581.080335 -215.198751 
L 581.599656 -214.111375 
L 582.145591 -213.023999 
L 582.716679 -211.936623 
L 583.311347 -210.849248 
L 583.927976 -209.761872 
L 584.564987 -208.674496 
L 585.22092 -207.58712 
L 585.894515 -206.499744 
L 586.584788 -205.412369 
L 587.291094 -204.324993 
L 588.013172 -203.237617 
L 588.751183 -202.150241 
L 589.505708 -201.062866 
L 590.277736 -199.97549 
L 591.068614 -198.888114 
L 591.87998 -197.800738 
L 592.713657 -196.713362 
L 593.571532 -195.625987 
L 594.455409 -194.538611 
L 595.366847 -193.451235 
L 596.306981 -192.363859 
L 597.276349 -191.276484 
L 598.27471 -190.189108 
L 599.300877 -189.101732 
L 600.35257 -188.014356 
L 601.42629 -186.926981 
L 602.51723 -185.839605 
L 603.619221 -184.752229 
L 604.724727 -183.664853 
L 605.824881 -182.577477 
L 606.909585 -181.490102 
L 607.967643 -180.402726 
L 608.986961 -179.31535 
L 609.954785 -178.227974 
L 610.857976 -177.140599 
L 611.683333 -176.053223 
L 612.417925 -174.965847 
L 613.049446 -173.878471 
L 613.566574 -172.791095 
L 613.959316 -171.70372 
L 614.219336 -170.616344 
L 614.340243 -169.528968 
L 614.317839 -168.441592 
L 614.150313 -167.354217 
L 613.838365 -166.266841 
L 613.385264 -165.179465 
L 612.796835 -164.092089 
L 612.081367 -163.004713 
L 611.249453 -161.917338 
L 610.313757 -160.829962 
L 609.288729 -159.742586 
L 608.190258 -158.65521 
L 607.035296 -157.567835 
L 605.841444 -156.480459 
L 604.626536 -155.393083 
L 603.408211 -154.305707 
L 602.203508 -153.218331 
L 601.028475 -152.130956 
L 599.897828 -151.04358 
L 598.824643 -149.956204 
L 597.820105 -148.868828 
L 596.893317 -147.781453 
L 596.05117 -146.694077 
L 595.298265 -145.606701 
L 594.636908 -144.519325 
L 594.067157 -143.43195 
L 593.58692 -142.344574 
L 593.192105 -141.257198 
L 592.876807 -140.169822 
L 592.633536 -139.082446 
L 592.453467 -137.995071 
L 592.326714 -136.907695 
L 592.242611 -135.820319 
L 592.190008 -134.732943 
L 592.157559 -133.645568 
L 592.134003 -132.558192 
L 592.108435 -131.470816 
L 592.070557 -130.38344 
L 592.0109 -129.296064 
L 591.921027 -128.208689 
L 591.793692 -127.121313 
L 591.622974 -126.033937 
L 591.404366 -124.946561 
L 591.134826 -123.859186 
L 590.812791 -122.77181 
L 590.438151 -121.684434 
L 590.012183 -120.597058 
L 589.537457 -119.509682 
L 589.017701 -118.422307 
L 588.457656 -117.334931 
L 587.862894 -116.247555 
L 587.239637 -115.160179 
L 586.594556 -114.072804 
L 585.934578 -112.985428 
L 585.266691 -111.898052 
L 584.597769 -110.810676 
L 583.934399 -109.7233 
L 583.282746 -108.635925 
L 582.648424 -107.548549 
z
" id="mc610344b82" style="stroke:#414141;stroke-width:2;"/>
    </defs>
    <g clip-path="url(#pc85108d5bf)">
     <use style="fill:#8fa0e6;stroke:#414141;stroke-width:2;" x="0" xlink:href="#mc610344b82" y="391.910113"/>
    </g>
   </g>
   <g id="PolyCollection_7">
    <defs>
     <path d="M 673.456518 -78.545936 
L 670.012539 -78.545936 
L 669.810556 -80.880446 
L 669.592901 -83.214956 
L 669.358995 -85.549466 
L 669.108213 -87.883976 
L 668.839872 -90.218486 
L 668.553224 -92.552996 
L 668.24745 -94.887506 
L 667.921661 -97.222016 
L 667.574915 -99.556527 
L 667.20623 -101.891037 
L 666.814617 -104.225547 
L 666.399123 -106.560057 
L 665.958873 -108.894567 
L 665.493139 -111.229077 
L 665.001397 -113.563587 
L 664.483407 -115.898097 
L 663.939285 -118.232607 
L 663.369577 -120.567117 
L 662.775338 -122.901627 
L 662.158187 -125.236137 
L 661.520375 -127.570647 
L 660.864815 -129.905157 
L 660.195114 -132.239667 
L 659.515576 -134.574177 
L 658.831185 -136.908687 
L 658.147564 -139.243197 
L 657.470917 -141.577707 
L 656.807933 -143.912217 
L 656.165689 -146.246727 
L 655.551512 -148.581237 
L 654.972836 -150.915747 
L 654.437046 -153.250257 
L 653.951303 -155.584767 
L 653.52238 -157.919277 
L 653.156482 -160.253787 
L 652.859087 -162.588297 
L 652.634787 -164.922807 
L 652.487158 -167.257317 
L 652.418634 -169.591827 
L 652.43043 -171.926337 
L 652.522469 -174.260847 
L 652.693362 -176.595357 
L 652.940408 -178.929867 
L 653.259636 -181.264377 
L 653.645874 -183.598887 
L 654.092856 -185.933397 
L 654.593355 -188.267907 
L 655.139344 -190.602417 
L 655.722176 -192.936927 
L 656.332782 -195.271437 
L 656.961877 -197.605947 
L 657.600171 -199.940457 
L 658.238582 -202.274967 
L 658.86843 -204.609477 
L 659.481625 -206.943987 
L 660.070833 -209.278497 
L 660.629617 -211.613007 
L 661.152548 -213.947517 
L 661.635288 -216.282027 
L 662.074639 -218.616537 
L 662.468559 -220.951047 
L 662.816152 -223.285557 
L 663.117619 -225.620067 
L 663.37419 -227.954577 
L 663.588031 -230.289087 
L 663.76213 -232.623597 
L 663.900176 -234.958107 
L 664.006419 -237.292617 
L 664.085534 -239.627127 
L 664.14248 -241.961637 
L 664.182368 -244.296147 
L 664.21033 -246.630657 
L 664.231403 -248.965167 
L 664.250421 -251.299677 
L 664.271928 -253.634187 
L 664.300093 -255.968697 
L 664.338651 -258.303207 
L 664.390849 -260.637717 
L 664.459414 -262.972227 
L 664.546526 -265.306737 
L 664.653808 -267.641247 
L 664.782322 -269.975757 
L 664.932583 -272.310268 
L 665.104573 -274.644778 
L 665.297769 -276.979288 
L 665.511183 -279.313798 
L 665.743397 -281.648308 
L 665.992616 -283.982818 
L 666.256722 -286.317328 
L 666.533333 -288.651838 
L 666.819865 -290.986348 
L 667.113598 -293.320858 
L 667.411742 -295.655368 
L 667.711498 -297.989878 
L 668.010127 -300.324388 
L 668.305003 -302.658898 
L 668.593668 -304.993408 
L 668.873876 -307.327918 
L 669.143634 -309.662428 
L 674.325423 -309.662428 
L 674.325423 -309.662428 
L 674.595181 -307.327918 
L 674.875389 -304.993408 
L 675.164054 -302.658898 
L 675.45893 -300.324388 
L 675.757559 -297.989878 
L 676.057315 -295.655368 
L 676.355459 -293.320858 
L 676.649192 -290.986348 
L 676.935724 -288.651838 
L 677.212335 -286.317328 
L 677.476441 -283.982818 
L 677.72566 -281.648308 
L 677.957874 -279.313798 
L 678.171288 -276.979288 
L 678.364485 -274.644778 
L 678.536474 -272.310268 
L 678.686735 -269.975757 
L 678.815249 -267.641247 
L 678.922531 -265.306737 
L 679.009643 -262.972227 
L 679.078208 -260.637717 
L 679.130406 -258.303207 
L 679.168964 -255.968697 
L 679.197129 -253.634187 
L 679.218636 -251.299677 
L 679.237655 -248.965167 
L 679.258727 -246.630657 
L 679.286689 -244.296147 
L 679.326577 -241.961637 
L 679.383523 -239.627127 
L 679.462638 -237.292617 
L 679.568881 -234.958107 
L 679.706927 -232.623597 
L 679.881027 -230.289087 
L 680.094867 -227.954577 
L 680.351438 -225.620067 
L 680.652905 -223.285557 
L 681.000498 -220.951047 
L 681.394419 -218.616537 
L 681.833769 -216.282027 
L 682.316509 -213.947517 
L 682.83944 -211.613007 
L 683.398224 -209.278497 
L 683.987433 -206.943987 
L 684.600628 -204.609477 
L 685.230475 -202.274967 
L 685.868886 -199.940457 
L 686.507181 -197.605947 
L 687.136275 -195.271437 
L 687.746881 -192.936927 
L 688.329713 -190.602417 
L 688.875702 -188.267907 
L 689.376201 -185.933397 
L 689.823183 -183.598887 
L 690.209421 -181.264377 
L 690.528649 -178.929867 
L 690.775695 -176.595357 
L 690.946588 -174.260847 
L 691.038627 -171.926337 
L 691.050423 -169.591827 
L 690.9819 -167.257317 
L 690.83427 -164.922807 
L 690.60997 -162.588297 
L 690.312575 -160.253787 
L 689.946677 -157.919277 
L 689.517754 -155.584767 
L 689.032011 -153.250257 
L 688.496221 -150.915747 
L 687.917545 -148.581237 
L 687.303368 -146.246727 
L 686.661124 -143.912217 
L 685.998141 -141.577707 
L 685.321493 -139.243197 
L 684.637872 -136.908687 
L 683.953481 -134.574177 
L 683.273943 -132.239667 
L 682.604242 -129.905157 
L 681.948682 -127.570647 
L 681.31087 -125.236137 
L 680.69372 -122.901627 
L 680.09948 -120.567117 
L 679.529772 -118.232607 
L 678.98565 -115.898097 
L 678.46766 -113.563587 
L 677.975918 -111.229077 
L 677.510184 -108.894567 
L 677.069934 -106.560057 
L 676.65444 -104.225547 
L 676.262827 -101.891037 
L 675.894142 -99.556527 
L 675.547396 -97.222016 
L 675.221607 -94.887506 
L 674.915833 -92.552996 
L 674.629185 -90.218486 
L 674.360844 -87.883976 
L 674.110062 -85.549466 
L 673.876156 -83.214956 
L 673.658501 -80.880446 
L 673.456518 -78.545936 
z
" id="m809ae91c1e" style="stroke:#414141;stroke-width:2;"/>
    </defs>
    <g clip-path="url(#pc85108d5bf)">
     <use style="fill:#e270db;stroke:#414141;stroke-width:2;" x="0" xlink:href="#m809ae91c1e" y="391.910113"/>
    </g>
   </g>
   <g id="line2d_1">
    <path clip-path="url(#pc85108d5bf)" d="M 49.9631 237.607987 
L 719.5631 237.607987 
" style="fill:none;stroke:#404040;stroke-dasharray:5.55,2.4;stroke-dashoffset:0;stroke-width:1.5;"/>
   </g>
   <g id="line2d_2">
    <path clip-path="url(#pc85108d5bf)" d="M 97.791671 322.757256 
L 97.791671 183.195567 
" style="fill:none;stroke:#414141;stroke-linecap:round;stroke-width:2;"/>
   </g>
   <g id="line2d_3">
    <path clip-path="url(#pc85108d5bf)" d="M 97.791671 269.759917 
L 97.791671 232.686838 
" style="fill:none;stroke:#414141;stroke-linecap:round;stroke-width:6;"/>
   </g>
   <g id="line2d_4">
    <path clip-path="url(#pc85108d5bf)" d="M 193.448814 269.050147 
L 193.448814 149.955739 
" style="fill:none;stroke:#414141;stroke-linecap:round;stroke-width:2;"/>
   </g>
   <g id="line2d_5">
    <path clip-path="url(#pc85108d5bf)" d="M 193.448814 238.167439 
L 193.448814 193.665281 
" style="fill:none;stroke:#414141;stroke-linecap:round;stroke-width:6;"/>
   </g>
   <g id="line2d_6">
    <path clip-path="url(#pc85108d5bf)" d="M 289.105957 253.77008 
L 289.105957 194.705028 
" style="fill:none;stroke:#414141;stroke-linecap:round;stroke-width:2;"/>
   </g>
   <g id="line2d_7">
    <path clip-path="url(#pc85108d5bf)" d="M 289.105957 225.93683 
L 289.105957 206.585209 
" style="fill:none;stroke:#414141;stroke-linecap:round;stroke-width:6;"/>
   </g>
   <g id="line2d_8">
    <path clip-path="url(#pc85108d5bf)" d="M 384.7631 278.716455 
L 384.7631 158.635214 
" style="fill:none;stroke:#414141;stroke-linecap:round;stroke-width:2;"/>
   </g>
   <g id="line2d_9">
    <path clip-path="url(#pc85108d5bf)" d="M 384.7631 249.776208 
L 384.7631 195.795961 
" style="fill:none;stroke:#414141;stroke-linecap:round;stroke-width:6;"/>
   </g>
   <g id="line2d_10">
    <path clip-path="url(#pc85108d5bf)" d="M 480.420243 272.356268 
L 480.420243 174.758197 
" style="fill:none;stroke:#414141;stroke-linecap:round;stroke-width:2;"/>
   </g>
   <g id="line2d_11">
    <path clip-path="url(#pc85108d5bf)" d="M 480.420243 249.545222 
L 480.420243 215.236037 
" style="fill:none;stroke:#414141;stroke-linecap:round;stroke-width:6;"/>
   </g>
   <g id="line2d_12">
    <path clip-path="url(#pc85108d5bf)" d="M 576.077386 267.907004 
L 576.077386 190.590374 
" style="fill:none;stroke:#414141;stroke-linecap:round;stroke-width:2;"/>
   </g>
   <g id="line2d_13">
    <path clip-path="url(#pc85108d5bf)" d="M 576.077386 237.124027 
L 576.077386 215.848934 
" style="fill:none;stroke:#414141;stroke-linecap:round;stroke-width:6;"/>
   </g>
   <g id="line2d_14">
    <path clip-path="url(#pc85108d5bf)" d="M 671.734529 284.919689 
L 671.734529 110.692172 
" style="fill:none;stroke:#414141;stroke-linecap:round;stroke-width:2;"/>
   </g>
   <g id="line2d_15">
    <path clip-path="url(#pc85108d5bf)" d="M 671.734529 233.292186 
L 671.734529 183.83223 
" style="fill:none;stroke:#414141;stroke-linecap:round;stroke-width:6;"/>
   </g>
   <g id="patch_3">
    <path d="M 49.9631 368.071987 
L 49.9631 41.911987 
" style="fill:none;stroke:#262626;stroke-linecap:square;stroke-linejoin:miter;stroke-width:1.25;"/>
   </g>
   <g id="patch_4">
    <path d="M 719.5631 368.071987 
L 719.5631 41.911987 
" style="fill:none;stroke:#262626;stroke-linecap:square;stroke-linejoin:miter;stroke-width:1.25;"/>
   </g>
   <g id="patch_5">
    <path d="M 49.9631 368.071988 
L 719.5631 368.071988 
" style="fill:none;stroke:#262626;stroke-linecap:square;stroke-linejoin:miter;stroke-width:1.25;"/>
   </g>
   <g id="patch_6">
    <path d="M 49.9631 41.911988 
L 719.5631 41.911988 
" style="fill:none;stroke:#262626;stroke-linecap:square;stroke-linejoin:miter;stroke-width:1.25;"/>
   </g>
   <g id="PathCollection_1">
    <defs>
     <path d="M 0 2 
C 0.530406 2 1.03916 1.789267 1.414214 1.414214 
C 1.789267 1.03916 2 0.530406 2 0 
C 2 -0.530406 1.789267 -1.03916 1.414214 -1.414214 
C 1.03916 -1.789267 0.530406 -2 0 -2 
C -0.530406 -2 -1.03916 -1.789267 -1.414214 -1.414214 
C -1.789267 -1.03916 -2 -0.530406 -2 0 
C -2 0.530406 -1.789267 1.03916 -1.414214 1.414214 
C -1.03916 1.789267 -0.530406 2 0 2 
z
" id="m1ec9eb3c39" style="stroke:#414141;"/>
    </defs>
    <g clip-path="url(#pc85108d5bf)">
     <use style="fill:#ffffff;stroke:#414141;" x="97.791671" xlink:href="#m1ec9eb3c39" y="253.119566"/>
    </g>
   </g>
   <g id="PathCollection_2">
    <g clip-path="url(#pc85108d5bf)">
     <use style="fill:#ffffff;stroke:#414141;" x="193.448814" xlink:href="#m1ec9eb3c39" y="215.876054"/>
    </g>
   </g>
   <g id="PathCollection_3">
    <g clip-path="url(#pc85108d5bf)">
     <use style="fill:#ffffff;stroke:#414141;" x="289.105957" xlink:href="#m1ec9eb3c39" y="214.135173"/>
    </g>
   </g>
   <g id="PathCollection_4">
    <g clip-path="url(#pc85108d5bf)">
     <use style="fill:#ffffff;stroke:#414141;" x="384.7631" xlink:href="#m1ec9eb3c39" y="226.194232"/>
    </g>
   </g>
   <g id="PathCollection_5">
    <g clip-path="url(#pc85108d5bf)">
     <use style="fill:#ffffff;stroke:#414141;" x="480.420243" xlink:href="#m1ec9eb3c39" y="226.717921"/>
    </g>
   </g>
   <g id="PathCollection_6">
    <g clip-path="url(#pc85108d5bf)">
     <use style="fill:#ffffff;stroke:#414141;" x="576.077386" xlink:href="#m1ec9eb3c39" y="226.138797"/>
    </g>
   </g>
   <g id="PathCollection_7">
    <g clip-path="url(#pc85108d5bf)">
     <use style="fill:#ffffff;stroke:#414141;" x="671.734529" xlink:href="#m1ec9eb3c39" y="214.551544"/>
    </g>
   </g>
   <g id="text_15">
    <!-- Accidents after the start of DST in California (20012016) -->
    <defs>
     <path d="M 58.796875 25.09375 
L 68.265625 22.703125 
Q 65.28125 11.03125 57.546875 4.90625 
Q 49.8125 -1.21875 38.625 -1.21875 
Q 27.046875 -1.21875 19.796875 3.484375 
Q 12.546875 8.203125 8.765625 17.140625 
Q 4.984375 26.078125 4.984375 36.328125 
Q 4.984375 47.515625 9.25 55.828125 
Q 13.53125 64.15625 21.40625 68.46875 
Q 29.296875 72.796875 38.765625 72.796875 
Q 49.515625 72.796875 56.828125 67.328125 
Q 64.15625 61.859375 67.046875 51.953125 
L 57.71875 49.75 
Q 55.21875 57.5625 50.484375 61.125 
Q 45.75 64.703125 38.578125 64.703125 
Q 30.328125 64.703125 24.78125 60.734375 
Q 19.234375 56.78125 16.984375 50.109375 
Q 14.75 43.453125 14.75 36.375 
Q 14.75 27.25 17.40625 20.4375 
Q 20.0625 13.625 25.671875 10.25 
Q 31.296875 6.890625 37.84375 6.890625 
Q 45.796875 6.890625 51.3125 11.46875 
Q 56.84375 16.0625 58.796875 25.09375 
z
" id="ArialMT-43"/>
     <path d="M 6.390625 0 
L 6.390625 71.578125 
L 15.1875 71.578125 
L 15.1875 0 
z
" id="ArialMT-6c"/>
     <path d="M -0.203125 22.359375 
L -0.203125 29.4375 
L 55.421875 29.4375 
L 55.421875 22.359375 
z
" id="ArialMT-2013"/>
    </defs>
    <g style="fill:#262626;" transform="translate(54.5631 26.127187)scale(0.26 -0.26)">
     <use xlink:href="#ArialMT-41"/>
     <use x="66.699219" xlink:href="#ArialMT-63"/>
     <use x="116.699219" xlink:href="#ArialMT-63"/>
     <use x="166.699219" xlink:href="#ArialMT-69"/>
     <use x="188.916016" xlink:href="#ArialMT-64"/>
     <use x="244.53125" xlink:href="#ArialMT-65"/>
     <use x="300.146484" xlink:href="#ArialMT-6e"/>
     <use x="355.761719" xlink:href="#ArialMT-74"/>
     <use x="383.544922" xlink:href="#ArialMT-73"/>
     <use x="433.544922" xlink:href="#ArialMT-20"/>
     <use x="461.328125" xlink:href="#ArialMT-61"/>
     <use x="516.943359" xlink:href="#ArialMT-66"/>
     <use x="544.726562" xlink:href="#ArialMT-74"/>
     <use x="572.509766" xlink:href="#ArialMT-65"/>
     <use x="628.125" xlink:href="#ArialMT-72"/>
     <use x="661.425781" xlink:href="#ArialMT-20"/>
     <use x="689.208984" xlink:href="#ArialMT-74"/>
     <use x="716.992188" xlink:href="#ArialMT-68"/>
     <use x="772.607422" xlink:href="#ArialMT-65"/>
     <use x="828.222656" xlink:href="#ArialMT-20"/>
     <use x="856.005859" xlink:href="#ArialMT-73"/>
     <use x="906.005859" xlink:href="#ArialMT-74"/>
     <use x="933.789062" xlink:href="#ArialMT-61"/>
     <use x="989.404297" xlink:href="#ArialMT-72"/>
     <use x="1022.705078" xlink:href="#ArialMT-74"/>
     <use x="1050.488281" xlink:href="#ArialMT-20"/>
     <use x="1078.271484" xlink:href="#ArialMT-6f"/>
     <use x="1133.886719" xlink:href="#ArialMT-66"/>
     <use x="1161.669922" xlink:href="#ArialMT-20"/>
     <use x="1189.453125" xlink:href="#ArialMT-44"/>
     <use x="1261.669922" xlink:href="#ArialMT-53"/>
     <use x="1328.369141" xlink:href="#ArialMT-54"/>
     <use x="1389.4375" xlink:href="#ArialMT-20"/>
     <use x="1417.220703" xlink:href="#ArialMT-69"/>
     <use x="1439.4375" xlink:href="#ArialMT-6e"/>
     <use x="1495.052734" xlink:href="#ArialMT-20"/>
     <use x="1522.835938" xlink:href="#ArialMT-43"/>
     <use x="1595.052734" xlink:href="#ArialMT-61"/>
     <use x="1650.667969" xlink:href="#ArialMT-6c"/>
     <use x="1672.884766" xlink:href="#ArialMT-69"/>
     <use x="1695.101562" xlink:href="#ArialMT-66"/>
     <use x="1722.884766" xlink:href="#ArialMT-6f"/>
     <use x="1778.5" xlink:href="#ArialMT-72"/>
     <use x="1811.800781" xlink:href="#ArialMT-6e"/>
     <use x="1867.416016" xlink:href="#ArialMT-69"/>
     <use x="1889.632812" xlink:href="#ArialMT-61"/>
     <use x="1945.248047" xlink:href="#ArialMT-20"/>
     <use x="1973.03125" xlink:href="#ArialMT-28"/>
     <use x="2006.332031" xlink:href="#ArialMT-32"/>
     <use x="2061.947266" xlink:href="#ArialMT-30"/>
     <use x="2117.5625" xlink:href="#ArialMT-30"/>
     <use x="2173.177734" xlink:href="#ArialMT-31"/>
     <use x="2228.792969" xlink:href="#ArialMT-2013"/>
     <use x="2284.408203" xlink:href="#ArialMT-32"/>
     <use x="2340.023438" xlink:href="#ArialMT-30"/>
     <use x="2395.638672" xlink:href="#ArialMT-31"/>
     <use x="2451.253906" xlink:href="#ArialMT-36"/>
     <use x="2506.869141" xlink:href="#ArialMT-29"/>
    </g>
   </g>
  </g>
 </g>
 <defs>
  <clipPath id="pc85108d5bf">
   <rect height="326.16" width="669.6" x="49.9631" y="41.911988"/>
  </clipPath>
 </defs>
</svg>
