<?xml version="1.0" encoding="utf-8" standalone="no"?>
<!DOCTYPE svg PUBLIC "-//W3C//DTD SVG 1.1//EN"
  "http://www.w3.org/Graphics/SVG/1.1/DTD/svg11.dtd">
<!-- Created with matplotlib (http://matplotlib.org/) -->
<svg height="391.7373pt" version="1.1" viewBox="0 0 727.0682 391.7373" width="727.0682pt" xmlns="http://www.w3.org/2000/svg" xmlns:xlink="http://www.w3.org/1999/xlink">
 <defs>
  <style type="text/css">
*{stroke-linecap:butt;stroke-linejoin:round;}
  </style>
 </defs>
 <g id="figure_1">
  <g id="patch_1">
   <path d="M 0 391.7373 
L 727.0682 391.7373 
L 727.0682 0 
L 0 0 
z
" style="fill:#ffffff;"/>
  </g>
  <g id="axes_1">
   <g id="patch_2">
    <path d="M 50.2682 367.986675 
L 719.8682 367.986675 
L 719.8682 41.826675 
L 50.2682 41.826675 
z
" style="fill:#ffffff;"/>
   </g>
   <g id="matplotlib.axis_1">
    <g id="xtick_1">
     <g id="text_1">
      <!-- Sunday (DST) -->
      <defs>
       <path d="M 62.109375 19 
Q 62.109375 14.65625 60.421875 10.984375 
Q 58.734375 7.328125 55.21875 4.65625 
Q 51.703125 2 46.359375 0.5 
Q 41.015625 -0.984375 33.6875 -0.984375 
Q 20.84375 -0.984375 13.671875 3.515625 
Q 6.5 8.015625 4.546875 16.5 
L 13.578125 18.3125 
Q 14.265625 15.625 15.671875 13.421875 
Q 17.09375 11.234375 19.5 9.640625 
Q 21.921875 8.0625 25.484375 7.171875 
Q 29.046875 6.296875 34.03125 6.296875 
Q 38.1875 6.296875 41.65625 7 
Q 45.125 7.71875 47.609375 9.171875 
Q 50.09375 10.640625 51.484375 12.953125 
Q 52.875 15.28125 52.875 18.5 
Q 52.875 21.875 51.34375 23.96875 
Q 49.8125 26.078125 47.015625 27.4375 
Q 44.234375 28.8125 40.375 29.734375 
Q 36.53125 30.671875 31.84375 31.734375 
Q 28.953125 32.375 26.046875 33.125 
Q 23.140625 33.890625 20.484375 34.9375 
Q 17.828125 35.984375 15.484375 37.390625 
Q 13.140625 38.8125 11.421875 40.796875 
Q 9.71875 42.78125 8.734375 45.390625 
Q 7.765625 48 7.765625 51.421875 
Q 7.765625 56.296875 9.734375 59.78125 
Q 11.71875 63.28125 15.234375 65.53125 
Q 18.75 67.78125 23.53125 68.796875 
Q 28.328125 69.828125 33.890625 69.828125 
Q 40.28125 69.828125 44.8125 68.828125 
Q 49.359375 67.828125 52.484375 65.8125 
Q 55.609375 63.8125 57.484375 60.859375 
Q 59.375 57.90625 60.5 54 
L 51.3125 52.390625 
Q 50.640625 54.890625 49.34375 56.84375 
Q 48.046875 58.796875 45.9375 60.109375 
Q 43.84375 61.421875 40.84375 62.109375 
Q 37.84375 62.796875 33.796875 62.796875 
Q 29 62.796875 25.75 61.9375 
Q 22.515625 61.078125 20.53125 59.609375 
Q 18.5625 58.15625 17.703125 56.171875 
Q 16.84375 54.203125 16.84375 51.90625 
Q 16.84375 48.828125 18.375 46.84375 
Q 19.921875 44.875 22.5625 43.546875 
Q 25.203125 42.234375 28.65625 41.359375 
Q 32.125 40.484375 36.03125 39.59375 
Q 39.203125 38.875 42.359375 38.109375 
Q 45.515625 37.359375 48.390625 36.296875 
Q 51.265625 35.25 53.78125 33.828125 
Q 56.296875 32.421875 58.15625 30.375 
Q 60.015625 28.328125 61.0625 25.53125 
Q 62.109375 22.75 62.109375 19 
z
" id="LiberationSans-53"/>
       <path d="M 15.328125 52.828125 
L 15.328125 19.34375 
Q 15.328125 15.484375 15.890625 12.890625 
Q 16.453125 10.296875 17.71875 8.703125 
Q 19 7.125 21.0625 6.46875 
Q 23.140625 5.8125 26.21875 5.8125 
Q 29.34375 5.8125 31.859375 6.90625 
Q 34.375 8.015625 36.15625 10.078125 
Q 37.9375 12.15625 38.90625 15.203125 
Q 39.890625 18.265625 39.890625 22.21875 
L 39.890625 52.828125 
L 48.6875 52.828125 
L 48.6875 11.28125 
Q 48.6875 9.625 48.703125 7.78125 
Q 48.734375 5.953125 48.78125 4.3125 
Q 48.828125 2.6875 48.875 1.515625 
Q 48.921875 0.34375 48.96875 0 
L 40.671875 0 
Q 40.625 0.25 40.578125 1.3125 
Q 40.53125 2.390625 40.453125 3.78125 
Q 40.375 5.171875 40.328125 6.609375 
Q 40.28125 8.0625 40.28125 9.03125 
L 40.140625 9.03125 
Q 38.875 6.734375 37.359375 4.875 
Q 35.84375 3.03125 33.84375 1.734375 
Q 31.84375 0.4375 29.25 -0.265625 
Q 26.65625 -0.984375 23.25 -0.984375 
Q 18.84375 -0.984375 15.671875 0.09375 
Q 12.5 1.171875 10.453125 3.421875 
Q 8.40625 5.671875 7.453125 9.1875 
Q 6.5 12.703125 6.5 17.625 
L 6.5 52.828125 
z
" id="LiberationSans-75"/>
       <path d="M 40.28125 0 
L 40.28125 33.5 
Q 40.28125 37.359375 39.71875 39.9375 
Q 39.15625 42.53125 37.890625 44.109375 
Q 36.625 45.703125 34.546875 46.359375 
Q 32.46875 47.015625 29.390625 47.015625 
Q 26.265625 47.015625 23.75 45.921875 
Q 21.234375 44.828125 19.453125 42.75 
Q 17.671875 40.671875 16.6875 37.625 
Q 15.71875 34.578125 15.71875 30.609375 
L 15.71875 0 
L 6.9375 0 
L 6.9375 41.546875 
Q 6.9375 43.21875 6.90625 45.046875 
Q 6.890625 46.875 6.828125 48.5 
Q 6.78125 50.140625 6.734375 51.3125 
Q 6.6875 52.484375 6.640625 52.828125 
L 14.9375 52.828125 
Q 14.984375 52.59375 15.03125 51.515625 
Q 15.09375 50.4375 15.15625 49.046875 
Q 15.234375 47.65625 15.28125 46.21875 
Q 15.328125 44.78125 15.328125 43.796875 
L 15.484375 43.796875 
Q 16.75 46.09375 18.265625 47.953125 
Q 19.78125 49.8125 21.78125 51.09375 
Q 23.78125 52.390625 26.359375 53.09375 
Q 28.953125 53.8125 32.375 53.8125 
Q 36.765625 53.8125 39.9375 52.734375 
Q 43.109375 51.65625 45.15625 49.40625 
Q 47.21875 47.171875 48.171875 43.625 
Q 49.125 40.09375 49.125 35.203125 
L 49.125 0 
z
" id="LiberationSans-6e"/>
       <path d="M 40.09375 8.5 
Q 37.640625 3.421875 33.609375 1.21875 
Q 29.59375 -0.984375 23.640625 -0.984375 
Q 13.625 -0.984375 8.90625 5.75 
Q 4.203125 12.5 4.203125 26.171875 
Q 4.203125 53.8125 23.640625 53.8125 
Q 29.640625 53.8125 33.640625 51.609375 
Q 37.640625 49.421875 40.09375 44.625 
L 40.1875 44.625 
Q 40.1875 45.125 40.15625 46.171875 
Q 40.140625 47.21875 40.109375 48.359375 
Q 40.09375 49.515625 40.09375 50.53125 
Q 40.09375 51.5625 40.09375 52 
L 40.09375 72.46875 
L 48.875 72.46875 
L 48.875 10.890625 
Q 48.875 8.984375 48.890625 7.21875 
Q 48.921875 5.46875 48.96875 4 
Q 49.03125 2.546875 49.078125 1.484375 
Q 49.125 0.4375 49.171875 0 
L 40.765625 0 
Q 40.671875 0.484375 40.59375 1.390625 
Q 40.53125 2.296875 40.453125 3.46875 
Q 40.375 4.640625 40.328125 5.9375 
Q 40.28125 7.234375 40.28125 8.5 
z
M 13.421875 26.46875 
Q 13.421875 21 14.109375 17.09375 
Q 14.796875 13.1875 16.3125 10.671875 
Q 17.828125 8.15625 20.171875 6.984375 
Q 22.515625 5.8125 25.875 5.8125 
Q 29.34375 5.8125 32 6.9375 
Q 34.671875 8.0625 36.453125 10.578125 
Q 38.234375 13.09375 39.15625 17.140625 
Q 40.09375 21.1875 40.09375 27.046875 
Q 40.09375 32.671875 39.15625 36.546875 
Q 38.234375 40.4375 36.421875 42.828125 
Q 34.625 45.21875 32 46.265625 
Q 29.390625 47.3125 25.984375 47.3125 
Q 22.75 47.3125 20.40625 46.1875 
Q 18.0625 45.0625 16.5 42.578125 
Q 14.9375 40.09375 14.171875 36.109375 
Q 13.421875 32.125 13.421875 26.46875 
z
" id="LiberationSans-64"/>
       <path d="M 20.21875 -0.984375 
Q 12.25 -0.984375 8.25 3.21875 
Q 4.25 7.421875 4.25 14.75 
Q 4.25 19.96875 6.21875 23.3125 
Q 8.203125 26.65625 11.390625 28.5625 
Q 14.59375 30.46875 18.6875 31.203125 
Q 22.796875 31.9375 27.046875 32.03125 
L 38.921875 32.234375 
L 38.921875 35.109375 
Q 38.921875 38.375 38.234375 40.671875 
Q 37.546875 42.96875 36.125 44.375 
Q 34.71875 45.796875 32.59375 46.453125 
Q 30.46875 47.125 27.59375 47.125 
Q 25.046875 47.125 23 46.75 
Q 20.953125 46.390625 19.4375 45.4375 
Q 17.921875 44.484375 16.984375 42.84375 
Q 16.0625 41.21875 15.765625 38.71875 
L 6.59375 39.546875 
Q 7.078125 42.671875 8.4375 45.28125 
Q 9.8125 47.90625 12.328125 49.796875 
Q 14.84375 51.703125 18.625 52.75 
Q 22.40625 53.8125 27.78125 53.8125 
Q 37.75 53.8125 42.765625 49.234375 
Q 47.796875 44.671875 47.796875 36.03125 
L 47.796875 13.28125 
Q 47.796875 9.375 48.828125 7.390625 
Q 49.859375 5.421875 52.734375 5.421875 
Q 53.46875 5.421875 54.203125 5.515625 
Q 54.9375 5.609375 55.609375 5.765625 
L 55.609375 0.296875 
Q 53.953125 -0.09375 52.3125 -0.28125 
Q 50.6875 -0.484375 48.828125 -0.484375 
Q 46.34375 -0.484375 44.5625 0.171875 
Q 42.78125 0.828125 41.65625 2.171875 
Q 40.53125 3.515625 39.9375 5.484375 
Q 39.359375 7.46875 39.203125 10.109375 
L 38.921875 10.109375 
Q 37.5 7.5625 35.8125 5.515625 
Q 34.125 3.46875 31.875 2.03125 
Q 29.640625 0.59375 26.78125 -0.1875 
Q 23.921875 -0.984375 20.21875 -0.984375 
z
M 22.21875 5.609375 
Q 26.421875 5.609375 29.5625 7.140625 
Q 32.71875 8.6875 34.78125 11.078125 
Q 36.859375 13.484375 37.890625 16.3125 
Q 38.921875 19.140625 38.921875 21.734375 
L 38.921875 26.078125 
L 29.296875 25.875 
Q 26.078125 25.828125 23.171875 25.40625 
Q 20.265625 25 18.0625 23.78125 
Q 15.875 22.5625 14.578125 20.359375 
Q 13.28125 18.171875 13.28125 14.59375 
Q 13.28125 10.296875 15.59375 7.953125 
Q 17.921875 5.609375 22.21875 5.609375 
z
" id="LiberationSans-61"/>
       <path d="M 29.5 0 
Q 27.640625 -4.78125 25.703125 -8.609375 
Q 23.78125 -12.453125 21.390625 -15.15625 
Q 19 -17.875 16.0625 -19.3125 
Q 13.140625 -20.75 9.328125 -20.75 
Q 7.671875 -20.75 6.25 -20.65625 
Q 4.828125 -20.5625 3.265625 -20.21875 
L 3.265625 -13.625 
Q 4.203125 -13.765625 5.375 -13.84375 
Q 6.546875 -13.921875 7.375 -13.921875 
Q 11.234375 -13.921875 14.546875 -11.03125 
Q 17.875 -8.15625 20.359375 -1.859375 
L 21.1875 0.25 
L 0.25 52.828125 
L 9.625 52.828125 
L 20.75 23.640625 
Q 21.234375 22.3125 21.984375 20.109375 
Q 22.75 17.921875 23.5 15.71875 
Q 24.265625 13.53125 24.84375 11.765625 
Q 25.4375 10.015625 25.53125 9.578125 
Q 25.6875 10.109375 26.25 11.6875 
Q 26.8125 13.28125 27.515625 15.234375 
Q 28.21875 17.1875 28.953125 19.1875 
Q 29.6875 21.1875 30.171875 22.65625 
L 40.53125 52.828125 
L 49.8125 52.828125 
z
" id="LiberationSans-79"/>
       <path id="LiberationSans-20"/>
       <path d="M 6.203125 25.984375 
Q 6.203125 32.765625 7.21875 38.96875 
Q 8.25 45.171875 10.4375 50.875 
Q 12.640625 56.59375 16.0625 61.953125 
Q 19.484375 67.328125 24.21875 72.46875 
L 32.71875 72.46875 
Q 28.125 67.328125 24.78125 61.9375 
Q 21.4375 56.546875 19.28125 50.796875 
Q 17.140625 45.0625 16.09375 38.859375 
Q 15.046875 32.671875 15.046875 25.875 
Q 15.046875 19.09375 16.09375 12.890625 
Q 17.140625 6.6875 19.28125 0.921875 
Q 21.4375 -4.828125 24.78125 -10.203125 
Q 28.125 -15.578125 32.71875 -20.703125 
L 24.21875 -20.703125 
Q 19.484375 -15.578125 16.0625 -10.203125 
Q 12.640625 -4.828125 10.4375 0.875 
Q 8.25 6.59375 7.21875 12.765625 
Q 6.203125 18.953125 6.203125 25.78125 
z
" id="LiberationSans-28"/>
       <path d="M 67.4375 35.109375 
Q 67.4375 26.515625 64.84375 19.9375 
Q 62.25 13.375 57.75 8.953125 
Q 53.265625 4.546875 47.140625 2.265625 
Q 41.015625 0 33.9375 0 
L 8.203125 0 
L 8.203125 68.796875 
L 30.953125 68.796875 
Q 38.921875 68.796875 45.625 66.8125 
Q 52.34375 64.84375 57.171875 60.71875 
Q 62.015625 56.59375 64.71875 50.234375 
Q 67.4375 43.890625 67.4375 35.109375 
z
M 58.0625 35.109375 
Q 58.0625 42.09375 56.046875 47.046875 
Q 54.046875 52 50.4375 55.171875 
Q 46.828125 58.34375 41.796875 59.828125 
Q 36.765625 61.328125 30.765625 61.328125 
L 17.53125 61.328125 
L 17.53125 7.46875 
L 32.859375 7.46875 
Q 38.28125 7.46875 42.890625 9.21875 
Q 47.515625 10.984375 50.875 14.453125 
Q 54.25 17.921875 56.15625 23.09375 
Q 58.0625 28.265625 58.0625 35.109375 
z
" id="LiberationSans-44"/>
       <path d="M 35.15625 61.1875 
L 35.15625 0 
L 25.875 0 
L 25.875 61.1875 
L 2.25 61.1875 
L 2.25 68.796875 
L 58.796875 68.796875 
L 58.796875 61.1875 
z
" id="LiberationSans-54"/>
       <path d="M 27.09375 25.78125 
Q 27.09375 18.953125 26.0625 12.765625 
Q 25.046875 6.59375 22.84375 0.875 
Q 20.65625 -4.828125 17.234375 -10.203125 
Q 13.8125 -15.578125 9.078125 -20.703125 
L 0.59375 -20.703125 
Q 5.171875 -15.578125 8.515625 -10.203125 
Q 11.859375 -4.828125 14 0.921875 
Q 16.15625 6.6875 17.203125 12.890625 
Q 18.265625 19.09375 18.265625 25.875 
Q 18.265625 32.671875 17.203125 38.859375 
Q 16.15625 45.0625 14 50.796875 
Q 11.859375 56.546875 8.515625 61.9375 
Q 5.171875 67.328125 0.59375 72.46875 
L 9.078125 72.46875 
Q 13.8125 67.328125 17.234375 61.953125 
Q 20.65625 56.59375 22.84375 50.875 
Q 25.046875 45.171875 26.0625 38.96875 
Q 27.09375 32.765625 27.09375 25.984375 
z
" id="LiberationSans-29"/>
      </defs>
      <g style="fill:#262626;" transform="translate(53.750678 381.6323)scale(0.14 -0.14)">
       <use xlink:href="#LiberationSans-53"/>
       <use x="66.699219" xlink:href="#LiberationSans-75"/>
       <use x="122.314453" xlink:href="#LiberationSans-6e"/>
       <use x="177.929688" xlink:href="#LiberationSans-64"/>
       <use x="233.544922" xlink:href="#LiberationSans-61"/>
       <use x="289.160156" xlink:href="#LiberationSans-79"/>
       <use x="339.160156" xlink:href="#LiberationSans-20"/>
       <use x="366.943359" xlink:href="#LiberationSans-28"/>
       <use x="400.244141" xlink:href="#LiberationSans-44"/>
       <use x="472.460938" xlink:href="#LiberationSans-53"/>
       <use x="539.160156" xlink:href="#LiberationSans-54"/>
       <use x="600.244141" xlink:href="#LiberationSans-29"/>
      </g>
     </g>
    </g>
    <g id="xtick_2">
     <g id="text_2">
      <!-- Monday -->
      <defs>
       <path d="M 66.703125 0 
L 66.703125 45.90625 
Q 66.703125 48.390625 66.75 50.96875 
Q 66.796875 53.5625 66.890625 55.71875 
Q 67 58.203125 67.140625 60.546875 
Q 66.453125 58.0625 65.71875 55.609375 
Q 65.09375 53.515625 64.328125 51.140625 
Q 63.578125 48.78125 62.84375 46.875 
L 45.0625 0 
L 38.53125 0 
L 20.515625 46.875 
Q 20.21875 47.609375 19.890625 48.578125 
Q 19.578125 49.5625 19.203125 50.65625 
Q 18.84375 51.765625 18.46875 52.90625 
Q 18.109375 54.046875 17.78125 55.171875 
Q 16.9375 57.765625 16.15625 60.546875 
Q 16.21875 57.8125 16.3125 55.125 
Q 16.40625 52.828125 16.453125 50.3125 
Q 16.5 47.796875 16.5 45.90625 
L 16.5 0 
L 8.203125 0 
L 8.203125 68.796875 
L 20.453125 68.796875 
L 38.765625 21.09375 
Q 39.109375 20.125 39.59375 18.578125 
Q 40.09375 17.046875 40.53125 15.421875 
Q 40.96875 13.8125 41.328125 12.375 
Q 41.703125 10.9375 41.84375 10.15625 
Q 42 10.9375 42.390625 12.40625 
Q 42.78125 13.875 43.28125 15.484375 
Q 43.796875 17.09375 44.28125 18.609375 
Q 44.78125 20.125 45.171875 21.09375 
L 63.140625 68.796875 
L 75.09375 68.796875 
L 75.09375 0 
z
" id="LiberationSans-4d"/>
       <path d="M 51.421875 26.46875 
Q 51.421875 12.59375 45.3125 5.796875 
Q 39.203125 -0.984375 27.59375 -0.984375 
Q 22.078125 -0.984375 17.71875 0.671875 
Q 13.375 2.34375 10.375 5.765625 
Q 7.375 9.1875 5.78125 14.328125 
Q 4.203125 19.484375 4.203125 26.46875 
Q 4.203125 53.8125 27.875 53.8125 
Q 34.03125 53.8125 38.5 52.09375 
Q 42.96875 50.390625 45.828125 46.96875 
Q 48.6875 43.5625 50.046875 38.421875 
Q 51.421875 33.296875 51.421875 26.46875 
z
M 42.1875 26.46875 
Q 42.1875 32.625 41.234375 36.625 
Q 40.28125 40.625 38.453125 43.015625 
Q 36.625 45.40625 33.984375 46.359375 
Q 31.34375 47.3125 28.03125 47.3125 
Q 24.65625 47.3125 21.9375 46.3125 
Q 19.234375 45.3125 17.328125 42.890625 
Q 15.4375 40.484375 14.421875 36.46875 
Q 13.421875 32.46875 13.421875 26.46875 
Q 13.421875 20.3125 14.5 16.28125 
Q 15.578125 12.25 17.453125 9.859375 
Q 19.34375 7.46875 21.90625 6.484375 
Q 24.46875 5.515625 27.484375 5.515625 
Q 30.859375 5.515625 33.59375 6.46875 
Q 36.328125 7.421875 38.234375 9.8125 
Q 40.140625 12.203125 41.15625 16.25 
Q 42.1875 20.3125 42.1875 26.46875 
z
" id="LiberationSans-6f"/>
      </defs>
      <g style="fill:#262626;" transform="translate(168.852508 381.6323)scale(0.14 -0.14)">
       <use xlink:href="#LiberationSans-4d"/>
       <use x="83.300781" xlink:href="#LiberationSans-6f"/>
       <use x="138.916016" xlink:href="#LiberationSans-6e"/>
       <use x="194.53125" xlink:href="#LiberationSans-64"/>
       <use x="250.146484" xlink:href="#LiberationSans-61"/>
       <use x="305.761719" xlink:href="#LiberationSans-79"/>
      </g>
     </g>
    </g>
    <g id="xtick_3">
     <g id="text_3">
      <!-- Tuesday -->
      <defs>
       <path d="M 13.484375 24.5625 
Q 13.484375 20.40625 14.328125 16.90625 
Q 15.1875 13.421875 16.96875 10.90625 
Q 18.75 8.40625 21.53125 7 
Q 24.3125 5.609375 28.21875 5.609375 
Q 33.9375 5.609375 37.375 7.90625 
Q 40.828125 10.203125 42.046875 13.71875 
L 49.75 11.53125 
Q 48.921875 9.328125 47.4375 7.109375 
Q 45.953125 4.890625 43.453125 3.09375 
Q 40.96875 1.3125 37.234375 0.15625 
Q 33.5 -0.984375 28.21875 -0.984375 
Q 16.5 -0.984375 10.375 6 
Q 4.25 12.984375 4.25 26.765625 
Q 4.25 34.1875 6.09375 39.328125 
Q 7.953125 44.484375 11.171875 47.703125 
Q 14.40625 50.921875 18.703125 52.359375 
Q 23 53.8125 27.875 53.8125 
Q 34.515625 53.8125 38.984375 51.65625 
Q 43.453125 49.515625 46.15625 45.71875 
Q 48.875 41.9375 50.015625 36.8125 
Q 51.171875 31.6875 51.171875 25.734375 
L 51.171875 24.5625 
z
M 42.09375 31.296875 
Q 41.359375 39.65625 37.84375 43.484375 
Q 34.328125 47.3125 27.734375 47.3125 
Q 25.53125 47.3125 23.109375 46.609375 
Q 20.703125 45.90625 18.65625 44.09375 
Q 16.609375 42.28125 15.1875 39.171875 
Q 13.765625 36.078125 13.578125 31.296875 
z
" id="LiberationSans-65"/>
       <path d="M 46.390625 14.59375 
Q 46.390625 10.890625 44.9375 7.984375 
Q 43.5 5.078125 40.765625 3.09375 
Q 38.03125 1.125 34.046875 0.0625 
Q 30.078125 -0.984375 24.953125 -0.984375 
Q 20.359375 -0.984375 16.671875 -0.265625 
Q 12.984375 0.4375 10.203125 2 
Q 7.421875 3.5625 5.53125 6.125 
Q 3.65625 8.6875 2.78125 12.40625 
L 10.546875 13.921875 
Q 11.671875 9.671875 15.1875 7.6875 
Q 18.703125 5.71875 24.953125 5.71875 
Q 27.78125 5.71875 30.140625 6.109375 
Q 32.515625 6.5 34.21875 7.453125 
Q 35.9375 8.40625 36.890625 9.984375 
Q 37.84375 11.578125 37.84375 13.921875 
Q 37.84375 16.3125 36.71875 17.84375 
Q 35.59375 19.390625 33.59375 20.40625 
Q 31.59375 21.4375 28.734375 22.1875 
Q 25.875 22.953125 22.46875 23.875 
Q 19.28125 24.703125 16.15625 25.734375 
Q 13.03125 26.765625 10.515625 28.4375 
Q 8.015625 30.125 6.453125 32.609375 
Q 4.890625 35.109375 4.890625 38.875 
Q 4.890625 46.09375 10.03125 49.875 
Q 15.1875 53.65625 25.046875 53.65625 
Q 33.796875 53.65625 38.9375 50.578125 
Q 44.09375 47.515625 45.453125 40.71875 
L 37.546875 39.75 
Q 37.109375 41.796875 35.9375 43.1875 
Q 34.765625 44.578125 33.109375 45.4375 
Q 31.453125 46.296875 29.375 46.65625 
Q 27.296875 47.015625 25.046875 47.015625 
Q 19.09375 47.015625 16.25 45.203125 
Q 13.421875 43.40625 13.421875 39.75 
Q 13.421875 37.59375 14.46875 36.203125 
Q 15.53125 34.8125 17.40625 33.859375 
Q 19.28125 32.90625 21.921875 32.203125 
Q 24.5625 31.5 27.734375 30.71875 
Q 29.828125 30.171875 32.03125 29.5625 
Q 34.234375 28.953125 36.296875 28.09375 
Q 38.375 27.25 40.203125 26.09375 
Q 42.046875 24.953125 43.40625 23.34375 
Q 44.78125 21.734375 45.578125 19.578125 
Q 46.390625 17.4375 46.390625 14.59375 
z
" id="LiberationSans-73"/>
      </defs>
      <g style="fill:#262626;" transform="translate(262.568245 381.6323)scale(0.14 -0.14)">
       <use xlink:href="#LiberationSans-54"/>
       <use x="61.037109" xlink:href="#LiberationSans-75"/>
       <use x="116.652344" xlink:href="#LiberationSans-65"/>
       <use x="172.267578" xlink:href="#LiberationSans-73"/>
       <use x="222.267578" xlink:href="#LiberationSans-64"/>
       <use x="277.882812" xlink:href="#LiberationSans-61"/>
       <use x="333.498047" xlink:href="#LiberationSans-79"/>
      </g>
     </g>
    </g>
    <g id="xtick_4">
     <g id="text_4">
      <!-- Wednesday -->
      <defs>
       <path d="M 73.78125 0 
L 62.640625 0 
L 50.734375 43.703125 
Q 50.203125 45.5625 49.578125 48.09375 
Q 48.96875 50.640625 48.484375 52.9375 
Q 47.90625 55.609375 47.3125 58.40625 
Q 46.6875 55.5625 46.09375 52.875 
Q 45.5625 50.53125 44.96875 48.046875 
Q 44.390625 45.5625 43.84375 43.703125 
L 31.84375 0 
L 20.703125 0 
L 0.4375 68.796875 
L 10.15625 68.796875 
L 22.515625 25.09375 
Q 23.34375 22.015625 24.09375 18.984375 
Q 24.859375 15.96875 25.390625 13.578125 
Q 26.03125 10.75 26.5625 8.203125 
Q 27.296875 11.578125 28.078125 14.84375 
Q 28.421875 16.21875 28.765625 17.71875 
Q 29.109375 19.234375 29.46875 20.703125 
Q 29.828125 22.171875 30.1875 23.515625 
Q 30.5625 24.859375 30.859375 25.984375 
L 42.828125 68.796875 
L 51.765625 68.796875 
L 63.71875 25.984375 
Q 64.015625 24.859375 64.375 23.515625 
Q 64.75 22.171875 65.109375 20.71875 
Q 65.484375 19.28125 65.8125 17.765625 
Q 66.15625 16.265625 66.5 14.890625 
Q 67.28125 11.625 68.015625 8.203125 
Q 68.0625 8.203125 68.453125 9.890625 
Q 68.84375 11.578125 69.421875 14.109375 
Q 70.015625 16.65625 70.71875 19.609375 
Q 71.4375 22.5625 72.171875 25.09375 
L 84.328125 68.796875 
L 94.046875 68.796875 
z
" id="LiberationSans-57"/>
      </defs>
      <g style="fill:#262626;" transform="translate(348.106013 381.6323)scale(0.14 -0.14)">
       <use xlink:href="#LiberationSans-57"/>
       <use x="94.369141" xlink:href="#LiberationSans-65"/>
       <use x="149.984375" xlink:href="#LiberationSans-64"/>
       <use x="205.599609" xlink:href="#LiberationSans-6e"/>
       <use x="261.214844" xlink:href="#LiberationSans-65"/>
       <use x="316.830078" xlink:href="#LiberationSans-73"/>
       <use x="366.830078" xlink:href="#LiberationSans-64"/>
       <use x="422.445312" xlink:href="#LiberationSans-61"/>
       <use x="478.060547" xlink:href="#LiberationSans-79"/>
      </g>
     </g>
    </g>
    <g id="xtick_5">
     <g id="text_5">
      <!-- Thursday -->
      <defs>
       <path d="M 15.484375 43.796875 
Q 16.9375 46.484375 18.640625 48.359375 
Q 20.359375 50.25 22.40625 51.46875 
Q 24.46875 52.6875 26.90625 53.25 
Q 29.34375 53.8125 32.375 53.8125 
Q 37.453125 53.8125 40.703125 52.4375 
Q 43.953125 51.078125 45.828125 48.609375 
Q 47.703125 46.140625 48.40625 42.71875 
Q 49.125 39.3125 49.125 35.203125 
L 49.125 0 
L 40.28125 0 
L 40.28125 33.5 
Q 40.28125 36.859375 39.859375 39.390625 
Q 39.453125 41.9375 38.28125 43.625 
Q 37.109375 45.3125 34.953125 46.15625 
Q 32.8125 47.015625 29.390625 47.015625 
Q 26.265625 47.015625 23.75 45.890625 
Q 21.234375 44.78125 19.453125 42.71875 
Q 17.671875 40.671875 16.6875 37.734375 
Q 15.71875 34.8125 15.71875 31.15625 
L 15.71875 0 
L 6.9375 0 
L 6.9375 72.46875 
L 15.71875 72.46875 
L 15.71875 53.609375 
Q 15.71875 52 15.671875 50.390625 
Q 15.625 48.78125 15.546875 47.40625 
Q 15.484375 46.046875 15.421875 45.09375 
Q 15.375 44.140625 15.328125 43.796875 
z
" id="LiberationSans-68"/>
       <path d="M 6.9375 0 
L 6.9375 40.53125 
Q 6.9375 42.1875 6.90625 43.921875 
Q 6.890625 45.65625 6.828125 47.265625 
Q 6.78125 48.875 6.734375 50.28125 
Q 6.6875 51.703125 6.640625 52.828125 
L 14.9375 52.828125 
Q 14.984375 51.703125 15.0625 50.265625 
Q 15.140625 48.828125 15.203125 47.3125 
Q 15.28125 45.796875 15.296875 44.40625 
Q 15.328125 43.015625 15.328125 42.046875 
L 15.53125 42.046875 
Q 16.453125 45.0625 17.5 47.28125 
Q 18.5625 49.515625 19.96875 50.953125 
Q 21.390625 52.390625 23.34375 53.09375 
Q 25.296875 53.8125 28.078125 53.8125 
Q 29.15625 53.8125 30.125 53.640625 
Q 31.109375 53.46875 31.640625 53.328125 
L 31.640625 45.265625 
Q 30.765625 45.515625 29.59375 45.625 
Q 28.421875 45.75 26.953125 45.75 
Q 23.921875 45.75 21.796875 44.375 
Q 19.671875 43.015625 18.328125 40.59375 
Q 17 38.1875 16.359375 34.84375 
Q 15.71875 31.5 15.71875 27.546875 
L 15.71875 0 
z
" id="LiberationSans-72"/>
      </defs>
      <g style="fill:#262626;" transform="translate(451.548468 381.6323)scale(0.14 -0.14)">
       <use xlink:href="#LiberationSans-54"/>
       <use x="61.083984" xlink:href="#LiberationSans-68"/>
       <use x="116.699219" xlink:href="#LiberationSans-75"/>
       <use x="172.314453" xlink:href="#LiberationSans-72"/>
       <use x="205.615234" xlink:href="#LiberationSans-73"/>
       <use x="255.615234" xlink:href="#LiberationSans-64"/>
       <use x="311.230469" xlink:href="#LiberationSans-61"/>
       <use x="366.845703" xlink:href="#LiberationSans-79"/>
      </g>
     </g>
    </g>
    <g id="xtick_6">
     <g id="text_6">
      <!-- Friday -->
      <defs>
       <path d="M 17.53125 61.1875 
L 17.53125 35.59375 
L 55.90625 35.59375 
L 55.90625 27.875 
L 17.53125 27.875 
L 17.53125 0 
L 8.203125 0 
L 8.203125 68.796875 
L 57.078125 68.796875 
L 57.078125 61.1875 
z
" id="LiberationSans-46"/>
       <path d="M 6.6875 64.0625 
L 6.6875 72.46875 
L 15.484375 72.46875 
L 15.484375 64.0625 
z
M 6.6875 0 
L 6.6875 52.828125 
L 15.484375 52.828125 
L 15.484375 0 
z
" id="LiberationSans-69"/>
      </defs>
      <g style="fill:#262626;" transform="translate(556.935611 381.6323)scale(0.14 -0.14)">
       <use xlink:href="#LiberationSans-46"/>
       <use x="61.083984" xlink:href="#LiberationSans-72"/>
       <use x="94.384766" xlink:href="#LiberationSans-69"/>
       <use x="116.601562" xlink:href="#LiberationSans-64"/>
       <use x="172.216797" xlink:href="#LiberationSans-61"/>
       <use x="227.832031" xlink:href="#LiberationSans-79"/>
      </g>
     </g>
    </g>
    <g id="xtick_7">
     <g id="text_7">
      <!-- Saturday -->
      <defs>
       <path d="M 27.046875 0.390625 
Q 25.046875 -0.140625 22.96875 -0.453125 
Q 20.90625 -0.78125 18.171875 -0.78125 
Q 7.625 -0.78125 7.625 11.1875 
L 7.625 46.4375 
L 1.515625 46.4375 
L 1.515625 52.828125 
L 7.953125 52.828125 
L 10.546875 64.65625 
L 16.40625 64.65625 
L 16.40625 52.828125 
L 26.171875 52.828125 
L 26.171875 46.4375 
L 16.40625 46.4375 
L 16.40625 13.09375 
Q 16.40625 9.28125 17.640625 7.734375 
Q 18.890625 6.203125 21.96875 6.203125 
Q 23.25 6.203125 24.4375 6.390625 
Q 25.640625 6.59375 27.046875 6.890625 
z
" id="LiberationSans-74"/>
      </defs>
      <g style="fill:#262626;" transform="translate(644.024316 381.6323)scale(0.14 -0.14)">
       <use xlink:href="#LiberationSans-53"/>
       <use x="66.699219" xlink:href="#LiberationSans-61"/>
       <use x="122.314453" xlink:href="#LiberationSans-74"/>
       <use x="150.097656" xlink:href="#LiberationSans-75"/>
       <use x="205.712891" xlink:href="#LiberationSans-72"/>
       <use x="239.013672" xlink:href="#LiberationSans-64"/>
       <use x="294.628906" xlink:href="#LiberationSans-61"/>
       <use x="350.244141" xlink:href="#LiberationSans-79"/>
      </g>
     </g>
    </g>
   </g>
   <g id="matplotlib.axis_2">
    <g id="ytick_1">
     <g id="text_8">
      <!-- 0.6 -->
      <defs>
       <path d="M 51.703125 34.421875 
Q 51.703125 24.515625 49.828125 17.75 
Q 47.953125 10.984375 44.703125 6.8125 
Q 41.453125 2.640625 37.0625 0.828125 
Q 32.671875 -0.984375 27.6875 -0.984375 
Q 22.65625 -0.984375 18.3125 0.828125 
Q 13.96875 2.640625 10.765625 6.78125 
Q 7.5625 10.9375 5.734375 17.703125 
Q 3.90625 24.46875 3.90625 34.421875 
Q 3.90625 44.828125 5.734375 51.640625 
Q 7.5625 58.453125 10.78125 62.5 
Q 14.015625 66.546875 18.40625 68.1875 
Q 22.796875 69.828125 27.984375 69.828125 
Q 32.90625 69.828125 37.21875 68.1875 
Q 41.546875 66.546875 44.765625 62.5 
Q 48 58.453125 49.84375 51.640625 
Q 51.703125 44.828125 51.703125 34.421875 
z
M 42.78125 34.421875 
Q 42.78125 42.625 41.796875 48.0625 
Q 40.828125 53.515625 38.921875 56.765625 
Q 37.015625 60.015625 34.25 61.359375 
Q 31.5 62.703125 27.984375 62.703125 
Q 24.265625 62.703125 21.4375 61.328125 
Q 18.609375 59.96875 16.671875 56.71875 
Q 14.75 53.46875 13.765625 48.015625 
Q 12.796875 42.578125 12.796875 34.421875 
Q 12.796875 26.515625 13.796875 21.09375 
Q 14.796875 15.671875 16.71875 12.375 
Q 18.65625 9.078125 21.4375 7.640625 
Q 24.21875 6.203125 27.78125 6.203125 
Q 31.25 6.203125 34.03125 7.640625 
Q 36.8125 9.078125 38.734375 12.375 
Q 40.671875 15.671875 41.71875 21.09375 
Q 42.78125 26.515625 42.78125 34.421875 
z
" id="LiberationSans-30"/>
       <path d="M 9.125 0 
L 9.125 10.6875 
L 18.65625 10.6875 
L 18.65625 0 
z
" id="LiberationSans-2e"/>
       <path d="M 51.21875 22.515625 
Q 51.21875 17.328125 49.78125 13 
Q 48.34375 8.6875 45.53125 5.578125 
Q 42.71875 2.484375 38.5625 0.75 
Q 34.421875 -0.984375 29 -0.984375 
Q 23 -0.984375 18.5 1.3125 
Q 14.015625 3.609375 11.03125 7.921875 
Q 8.0625 12.25 6.5625 18.53125 
Q 5.078125 24.8125 5.078125 32.8125 
Q 5.078125 42 6.765625 48.921875 
Q 8.453125 55.859375 11.625 60.5 
Q 14.796875 65.140625 19.359375 67.484375 
Q 23.921875 69.828125 29.6875 69.828125 
Q 33.203125 69.828125 36.28125 69.09375 
Q 39.359375 68.359375 41.875 66.71875 
Q 44.390625 65.09375 46.28125 62.40625 
Q 48.1875 59.71875 49.3125 55.8125 
L 40.921875 54.296875 
Q 39.546875 58.734375 36.546875 60.71875 
Q 33.546875 62.703125 29.59375 62.703125 
Q 25.984375 62.703125 23.046875 60.984375 
Q 20.125 59.28125 18.0625 55.875 
Q 16.015625 52.484375 14.90625 47.359375 
Q 13.8125 42.234375 13.8125 35.40625 
Q 16.21875 39.84375 20.5625 42.15625 
Q 24.90625 44.484375 30.515625 44.484375 
Q 35.203125 44.484375 39.015625 42.96875 
Q 42.828125 41.453125 45.53125 38.59375 
Q 48.25 35.75 49.734375 31.671875 
Q 51.21875 27.59375 51.21875 22.515625 
z
M 42.28125 22.125 
Q 42.28125 25.6875 41.40625 28.5625 
Q 40.53125 31.453125 38.765625 33.46875 
Q 37.015625 35.5 34.421875 36.59375 
Q 31.84375 37.703125 28.421875 37.703125 
Q 26.03125 37.703125 23.578125 36.984375 
Q 21.140625 36.28125 19.15625 34.6875 
Q 17.1875 33.109375 15.9375 30.515625 
Q 14.703125 27.9375 14.703125 24.21875 
Q 14.703125 20.40625 15.671875 17.109375 
Q 16.65625 13.8125 18.484375 11.375 
Q 20.3125 8.9375 22.890625 7.515625 
Q 25.484375 6.109375 28.71875 6.109375 
Q 31.890625 6.109375 34.40625 7.203125 
Q 36.921875 8.296875 38.671875 10.375 
Q 40.4375 12.453125 41.359375 15.421875 
Q 42.28125 18.40625 42.28125 22.125 
z
" id="LiberationSans-36"/>
      </defs>
      <g style="fill:#262626;" transform="translate(27.3082 358.878618)scale(0.14 -0.14)">
       <use xlink:href="#LiberationSans-30"/>
       <use x="55.615234" xlink:href="#LiberationSans-2e"/>
       <use x="83.398438" xlink:href="#LiberationSans-36"/>
      </g>
     </g>
    </g>
    <g id="ytick_2">
     <g id="text_9">
      <!-- 0.8 -->
      <defs>
       <path d="M 51.265625 19.1875 
Q 51.265625 14.796875 49.875 11.109375 
Q 48.484375 7.421875 45.625 4.734375 
Q 42.78125 2.046875 38.328125 0.53125 
Q 33.890625 -0.984375 27.828125 -0.984375 
Q 21.78125 -0.984375 17.359375 0.53125 
Q 12.9375 2.046875 10.03125 4.703125 
Q 7.125 7.375 5.734375 11.0625 
Q 4.34375 14.75 4.34375 19.09375 
Q 4.34375 22.859375 5.484375 25.78125 
Q 6.640625 28.71875 8.5625 30.828125 
Q 10.5 32.953125 12.96875 34.25 
Q 15.4375 35.546875 18.0625 35.984375 
L 18.0625 36.1875 
Q 15.1875 36.859375 12.90625 38.375 
Q 10.640625 39.890625 9.09375 42.015625 
Q 7.5625 44.140625 6.75 46.71875 
Q 5.953125 49.3125 5.953125 52.203125 
Q 5.953125 55.8125 7.34375 59 
Q 8.734375 62.203125 11.46875 64.625 
Q 14.203125 67.046875 18.25 68.4375 
Q 22.3125 69.828125 27.640625 69.828125 
Q 33.25 69.828125 37.375 68.40625 
Q 41.5 67 44.203125 64.578125 
Q 46.921875 62.15625 48.234375 58.9375 
Q 49.5625 55.71875 49.5625 52.09375 
Q 49.5625 49.265625 48.75 46.671875 
Q 47.953125 44.09375 46.40625 41.96875 
Q 44.875 39.84375 42.59375 38.34375 
Q 40.328125 36.859375 37.359375 36.28125 
L 37.359375 36.078125 
Q 40.328125 35.59375 42.859375 34.296875 
Q 45.40625 33.015625 47.265625 30.890625 
Q 49.125 28.765625 50.1875 25.828125 
Q 51.265625 22.90625 51.265625 19.1875 
z
M 40.4375 51.609375 
Q 40.4375 54.203125 39.765625 56.34375 
Q 39.109375 58.5 37.59375 60.03125 
Q 36.078125 61.578125 33.640625 62.421875 
Q 31.203125 63.28125 27.640625 63.28125 
Q 24.171875 63.28125 21.78125 62.421875 
Q 19.390625 61.578125 17.84375 60.03125 
Q 16.3125 58.5 15.625 56.34375 
Q 14.9375 54.203125 14.9375 51.609375 
Q 14.9375 49.5625 15.46875 47.40625 
Q 16.015625 45.265625 17.421875 43.5 
Q 18.84375 41.75 21.328125 40.625 
Q 23.828125 39.5 27.734375 39.5 
Q 31.890625 39.5 34.40625 40.625 
Q 36.921875 41.75 38.25 43.5 
Q 39.59375 45.265625 40.015625 47.40625 
Q 40.4375 49.5625 40.4375 51.609375 
z
M 42.140625 20.015625 
Q 42.140625 22.515625 41.453125 24.828125 
Q 40.765625 27.15625 39.109375 28.9375 
Q 37.453125 30.71875 34.640625 31.8125 
Q 31.84375 32.90625 27.640625 32.90625 
Q 23.78125 32.90625 21.0625 31.8125 
Q 18.359375 30.71875 16.671875 28.90625 
Q 14.984375 27.09375 14.203125 24.71875 
Q 13.421875 22.359375 13.421875 19.828125 
Q 13.421875 16.65625 14.203125 14.03125 
Q 14.984375 11.421875 16.6875 9.546875 
Q 18.40625 7.671875 21.1875 6.640625 
Q 23.96875 5.609375 27.9375 5.609375 
Q 31.9375 5.609375 34.671875 6.640625 
Q 37.40625 7.671875 39.0625 9.546875 
Q 40.71875 11.421875 41.421875 14.078125 
Q 42.140625 16.75 42.140625 20.015625 
z
" id="LiberationSans-38"/>
      </defs>
      <g style="fill:#262626;" transform="translate(27.3082 302.15514)scale(0.14 -0.14)">
       <use xlink:href="#LiberationSans-30"/>
       <use x="55.615234" xlink:href="#LiberationSans-2e"/>
       <use x="83.398438" xlink:href="#LiberationSans-38"/>
      </g>
     </g>
    </g>
    <g id="ytick_3">
     <g id="text_10">
      <!-- 1.0 -->
      <defs>
       <path d="M 7.625 0 
L 7.625 7.46875 
L 25.140625 7.46875 
L 25.140625 60.40625 
L 9.625 49.3125 
L 9.625 57.625 
L 25.875 68.796875 
L 33.984375 68.796875 
L 33.984375 7.46875 
L 50.734375 7.46875 
L 50.734375 0 
z
" id="LiberationSans-31"/>
      </defs>
      <g style="fill:#262626;" transform="translate(27.3082 245.431661)scale(0.14 -0.14)">
       <use xlink:href="#LiberationSans-31"/>
       <use x="55.615234" xlink:href="#LiberationSans-2e"/>
       <use x="83.398438" xlink:href="#LiberationSans-30"/>
      </g>
     </g>
    </g>
    <g id="ytick_4">
     <g id="text_11">
      <!-- 1.2 -->
      <defs>
       <path d="M 5.03125 0 
L 5.03125 6.203125 
Q 7.515625 11.921875 11.109375 16.28125 
Q 14.703125 20.65625 18.65625 24.1875 
Q 22.609375 27.734375 26.484375 30.765625 
Q 30.375 33.796875 33.5 36.8125 
Q 36.625 39.84375 38.546875 43.15625 
Q 40.484375 46.484375 40.484375 50.6875 
Q 40.484375 53.609375 39.59375 55.828125 
Q 38.71875 58.0625 37.0625 59.5625 
Q 35.40625 61.078125 33.078125 61.828125 
Q 30.765625 62.59375 27.9375 62.59375 
Q 25.296875 62.59375 22.96875 61.859375 
Q 20.65625 61.140625 18.84375 59.671875 
Q 17.046875 58.203125 15.890625 56.03125 
Q 14.75 53.859375 14.40625 50.984375 
L 5.421875 51.8125 
Q 5.859375 55.515625 7.46875 58.78125 
Q 9.078125 62.0625 11.90625 64.53125 
Q 14.75 67 18.71875 68.40625 
Q 22.703125 69.828125 27.9375 69.828125 
Q 33.0625 69.828125 37.0625 68.609375 
Q 41.0625 67.390625 43.8125 64.984375 
Q 46.578125 62.59375 48.046875 59.078125 
Q 49.515625 55.5625 49.515625 50.984375 
Q 49.515625 47.515625 48.265625 44.390625 
Q 47.015625 41.265625 44.9375 38.421875 
Q 42.875 35.59375 40.140625 32.953125 
Q 37.40625 30.328125 34.421875 27.8125 
Q 31.453125 25.296875 28.421875 22.828125 
Q 25.390625 20.359375 22.71875 17.859375 
Q 20.0625 15.375 17.96875 12.8125 
Q 15.875 10.25 14.703125 7.46875 
L 50.59375 7.46875 
L 50.59375 0 
z
" id="LiberationSans-32"/>
      </defs>
      <g style="fill:#262626;" transform="translate(27.3082 188.708183)scale(0.14 -0.14)">
       <use xlink:href="#LiberationSans-31"/>
       <use x="55.615234" xlink:href="#LiberationSans-2e"/>
       <use x="83.398438" xlink:href="#LiberationSans-32"/>
      </g>
     </g>
    </g>
    <g id="ytick_5">
     <g id="text_12">
      <!-- 1.4 -->
      <defs>
       <path d="M 43.015625 15.578125 
L 43.015625 0 
L 34.71875 0 
L 34.71875 15.578125 
L 2.296875 15.578125 
L 2.296875 22.40625 
L 33.796875 68.796875 
L 43.015625 68.796875 
L 43.015625 22.515625 
L 52.6875 22.515625 
L 52.6875 15.578125 
z
M 34.71875 58.890625 
Q 34.625 58.640625 34.234375 57.9375 
Q 33.84375 57.234375 33.34375 56.34375 
Q 32.859375 55.46875 32.34375 54.5625 
Q 31.84375 53.65625 31.453125 53.078125 
L 13.8125 27.09375 
Q 13.578125 26.703125 13.109375 26.0625 
Q 12.640625 25.4375 12.15625 24.78125 
Q 11.671875 24.125 11.171875 23.484375 
Q 10.6875 22.859375 10.40625 22.515625 
L 34.71875 22.515625 
z
" id="LiberationSans-34"/>
      </defs>
      <g style="fill:#262626;" transform="translate(27.3082 131.984705)scale(0.14 -0.14)">
       <use xlink:href="#LiberationSans-31"/>
       <use x="55.615234" xlink:href="#LiberationSans-2e"/>
       <use x="83.398438" xlink:href="#LiberationSans-34"/>
      </g>
     </g>
    </g>
    <g id="ytick_6">
     <g id="text_13">
      <!-- 1.6 -->
      <g style="fill:#262626;" transform="translate(27.3082 75.261227)scale(0.14 -0.14)">
       <use xlink:href="#LiberationSans-31"/>
       <use x="55.615234" xlink:href="#LiberationSans-2e"/>
       <use x="83.398438" xlink:href="#LiberationSans-36"/>
      </g>
     </g>
    </g>
    <g id="text_14">
     <!-- Accident Ratio: One Week / Three Weeks -->
     <defs>
      <path d="M 56.984375 0 
L 49.125 20.125 
L 17.78125 20.125 
L 9.859375 0 
L 0.203125 0 
L 28.265625 68.796875 
L 38.875 68.796875 
L 66.5 0 
z
M 37.5 50.09375 
Q 36.71875 52.046875 36 54.046875 
Q 35.296875 56.0625 34.765625 57.6875 
Q 34.234375 59.328125 33.859375 60.421875 
Q 33.5 61.53125 33.453125 61.765625 
Q 33.34375 61.53125 33 60.40625 
Q 32.671875 59.28125 32.109375 57.609375 
Q 31.546875 55.953125 30.828125 53.953125 
Q 30.125 51.953125 29.390625 50 
L 20.609375 27.390625 
L 46.34375 27.390625 
z
" id="LiberationSans-41"/>
      <path d="M 13.421875 26.65625 
Q 13.421875 22.125 14.078125 18.3125 
Q 14.75 14.5 16.3125 11.734375 
Q 17.875 8.984375 20.4375 7.46875 
Q 23 5.953125 26.765625 5.953125 
Q 31.453125 5.953125 34.59375 8.484375 
Q 37.75 11.03125 38.484375 16.3125 
L 47.359375 15.71875 
Q 46.921875 12.453125 45.453125 9.421875 
Q 44 6.390625 41.484375 4.09375 
Q 38.96875 1.8125 35.34375 0.40625 
Q 31.734375 -0.984375 27 -0.984375 
Q 20.796875 -0.984375 16.453125 1.109375 
Q 12.109375 3.21875 9.390625 6.90625 
Q 6.6875 10.59375 5.46875 15.59375 
Q 4.25 20.609375 4.25 26.46875 
Q 4.25 31.78125 5.125 35.859375 
Q 6 39.9375 7.59375 42.984375 
Q 9.1875 46.046875 11.328125 48.125 
Q 13.484375 50.203125 15.984375 51.4375 
Q 18.5 52.6875 21.28125 53.25 
Q 24.078125 53.8125 26.90625 53.8125 
Q 31.34375 53.8125 34.8125 52.59375 
Q 38.28125 51.375 40.796875 49.25 
Q 43.3125 47.125 44.875 44.234375 
Q 46.4375 41.359375 47.078125 38.03125 
L 38.03125 37.359375 
Q 37.359375 41.75 34.5625 44.328125 
Q 31.78125 46.921875 26.65625 46.921875 
Q 22.90625 46.921875 20.390625 45.671875 
Q 17.875 44.4375 16.3125 41.921875 
Q 14.75 39.40625 14.078125 35.59375 
Q 13.421875 31.78125 13.421875 26.65625 
z
" id="LiberationSans-63"/>
      <path d="M 56.84375 0 
L 38.96875 28.5625 
L 17.53125 28.5625 
L 17.53125 0 
L 8.203125 0 
L 8.203125 68.796875 
L 40.578125 68.796875 
Q 46.4375 68.796875 50.953125 67.453125 
Q 55.46875 66.109375 58.546875 63.5625 
Q 61.625 61.03125 63.234375 57.375 
Q 64.84375 53.71875 64.84375 49.125 
Q 64.84375 45.84375 63.890625 42.671875 
Q 62.9375 39.5 60.890625 36.859375 
Q 58.84375 34.234375 55.65625 32.328125 
Q 52.484375 30.421875 48.046875 29.640625 
L 67.578125 0 
z
M 55.46875 49.03125 
Q 55.46875 52.15625 54.390625 54.4375 
Q 53.328125 56.734375 51.265625 58.265625 
Q 49.21875 59.8125 46.28125 60.5625 
Q 43.359375 61.328125 39.65625 61.328125 
L 17.53125 61.328125 
L 17.53125 35.9375 
L 40.046875 35.9375 
Q 44.046875 35.9375 46.96875 36.9375 
Q 49.90625 37.9375 51.78125 39.6875 
Q 53.65625 41.453125 54.5625 43.84375 
Q 55.46875 46.234375 55.46875 49.03125 
z
" id="LiberationSans-52"/>
      <path d="M 9.125 42.71875 
L 9.125 52.828125 
L 18.65625 52.828125 
L 18.65625 42.71875 
z
M 9.125 0 
L 9.125 10.109375 
L 18.65625 10.109375 
L 18.65625 0 
z
" id="LiberationSans-3a"/>
      <path d="M 73 34.71875 
Q 73 26.65625 70.671875 20.0625 
Q 68.359375 13.484375 63.96875 8.796875 
Q 59.578125 4.109375 53.21875 1.5625 
Q 46.875 -0.984375 38.8125 -0.984375 
Q 30.328125 -0.984375 23.921875 1.671875 
Q 17.53125 4.34375 13.28125 9.109375 
Q 9.03125 13.875 6.875 20.40625 
Q 4.734375 26.953125 4.734375 34.71875 
Q 4.734375 42.78125 6.984375 49.265625 
Q 9.234375 55.765625 13.578125 60.328125 
Q 17.921875 64.890625 24.296875 67.359375 
Q 30.671875 69.828125 38.921875 69.828125 
Q 47.125 69.828125 53.484375 67.328125 
Q 59.859375 64.84375 64.171875 60.25 
Q 68.5 55.671875 70.75 49.171875 
Q 73 42.671875 73 34.71875 
z
M 63.484375 34.71875 
Q 63.484375 40.921875 61.890625 46 
Q 60.296875 51.078125 57.203125 54.6875 
Q 54.109375 58.296875 49.515625 60.25 
Q 44.921875 62.203125 38.921875 62.203125 
Q 32.765625 62.203125 28.125 60.25 
Q 23.484375 58.296875 20.375 54.6875 
Q 17.28125 51.078125 15.734375 46 
Q 14.203125 40.921875 14.203125 34.71875 
Q 14.203125 28.515625 15.796875 23.359375 
Q 17.390625 18.21875 20.484375 14.484375 
Q 23.578125 10.75 28.1875 8.671875 
Q 32.8125 6.59375 38.8125 6.59375 
Q 45.265625 6.59375 49.921875 8.6875 
Q 54.59375 10.796875 57.59375 14.53125 
Q 60.59375 18.265625 62.03125 23.4375 
Q 63.484375 28.609375 63.484375 34.71875 
z
" id="LiberationSans-4f"/>
      <path d="M 39.84375 0 
L 21.96875 24.125 
L 15.53125 18.796875 
L 15.53125 0 
L 6.734375 0 
L 6.734375 72.46875 
L 15.53125 72.46875 
L 15.53125 27.203125 
L 38.71875 52.828125 
L 49.03125 52.828125 
L 27.59375 30.125 
L 50.140625 0 
z
" id="LiberationSans-6b"/>
      <path d="M 0 -0.984375 
L 20.0625 72.46875 
L 27.78125 72.46875 
L 7.90625 -0.984375 
z
" id="LiberationSans-2f"/>
     </defs>
     <g style="fill:#262626;" transform="translate(19.7226 364.797975)rotate(-90)scale(0.1728 -0.1728)">
      <use xlink:href="#LiberationSans-41"/>
      <use x="66.699219" xlink:href="#LiberationSans-63"/>
      <use x="116.699219" xlink:href="#LiberationSans-63"/>
      <use x="166.699219" xlink:href="#LiberationSans-69"/>
      <use x="188.916016" xlink:href="#LiberationSans-64"/>
      <use x="244.53125" xlink:href="#LiberationSans-65"/>
      <use x="300.146484" xlink:href="#LiberationSans-6e"/>
      <use x="355.761719" xlink:href="#LiberationSans-74"/>
      <use x="383.544922" xlink:href="#LiberationSans-20"/>
      <use x="411.328125" xlink:href="#LiberationSans-52"/>
      <use x="483.544922" xlink:href="#LiberationSans-61"/>
      <use x="539.160156" xlink:href="#LiberationSans-74"/>
      <use x="566.943359" xlink:href="#LiberationSans-69"/>
      <use x="589.160156" xlink:href="#LiberationSans-6f"/>
      <use x="644.775391" xlink:href="#LiberationSans-3a"/>
      <use x="672.558594" xlink:href="#LiberationSans-20"/>
      <use x="700.341797" xlink:href="#LiberationSans-4f"/>
      <use x="778.125" xlink:href="#LiberationSans-6e"/>
      <use x="833.740234" xlink:href="#LiberationSans-65"/>
      <use x="889.355469" xlink:href="#LiberationSans-20"/>
      <use x="917.138672" xlink:href="#LiberationSans-57"/>
      <use x="1011.507812" xlink:href="#LiberationSans-65"/>
      <use x="1067.123047" xlink:href="#LiberationSans-65"/>
      <use x="1122.738281" xlink:href="#LiberationSans-6b"/>
      <use x="1172.738281" xlink:href="#LiberationSans-20"/>
      <use x="1200.521484" xlink:href="#LiberationSans-2f"/>
      <use x="1228.304688" xlink:href="#LiberationSans-20"/>
      <use x="1256.072266" xlink:href="#LiberationSans-54"/>
      <use x="1317.15625" xlink:href="#LiberationSans-68"/>
      <use x="1372.771484" xlink:href="#LiberationSans-72"/>
      <use x="1406.072266" xlink:href="#LiberationSans-65"/>
      <use x="1461.6875" xlink:href="#LiberationSans-65"/>
      <use x="1517.302734" xlink:href="#LiberationSans-20"/>
      <use x="1545.085938" xlink:href="#LiberationSans-57"/>
      <use x="1639.455078" xlink:href="#LiberationSans-65"/>
      <use x="1695.070312" xlink:href="#LiberationSans-65"/>
      <use x="1750.685547" xlink:href="#LiberationSans-6b"/>
      <use x="1800.685547" xlink:href="#LiberationSans-73"/>
     </g>
    </g>
   </g>
   <g id="PolyCollection_1">
    <defs>
     <path d="M 101.667055 -101.037528 
L 94.526488 -101.037528 
L 93.964996 -103.156468 
L 93.349362 -105.275408 
L 92.680804 -107.394348 
L 91.96186 -109.513287 
L 91.196485 -111.632227 
L 90.390106 -113.751167 
L 89.549626 -115.870106 
L 88.683376 -117.989046 
L 87.801008 -120.107986 
L 86.913328 -122.226926 
L 86.03207 -124.345865 
L 85.16962 -126.464805 
L 84.338693 -128.583745 
L 83.551976 -130.702684 
L 82.82176 -132.821624 
L 82.159562 -134.940564 
L 81.575761 -137.059504 
L 81.079279 -139.178443 
L 80.677291 -141.297383 
L 80.375018 -143.416323 
L 80.175579 -145.535262 
L 80.079934 -147.654202 
L 80.086909 -149.773142 
L 80.193302 -151.892082 
L 80.394066 -154.011021 
L 80.68256 -156.129961 
L 81.05085 -158.248901 
L 81.490037 -160.36784 
L 81.990612 -162.48678 
L 82.542798 -164.60572 
L 83.136871 -166.724659 
L 83.763455 -168.843599 
L 84.413753 -170.962539 
L 85.079731 -173.081479 
L 85.754241 -175.200418 
L 86.431079 -177.319358 
L 87.104989 -179.438298 
L 87.771619 -181.557237 
L 88.427438 -183.676177 
L 89.069626 -185.795117 
L 89.695946 -187.914057 
L 90.30462 -190.032996 
L 90.894204 -192.151936 
L 91.463482 -194.270876 
L 92.011382 -196.389815 
L 92.536914 -198.508755 
L 93.039132 -200.627695 
L 93.517124 -202.746635 
L 93.970018 -204.865574 
L 94.397003 -206.984514 
L 94.797366 -209.103454 
L 95.170522 -211.222393 
L 95.516053 -213.341333 
L 95.83374 -215.460273 
L 96.123579 -217.579213 
L 96.385792 -219.698152 
L 96.620829 -221.817092 
L 96.829349 -223.936032 
L 97.012197 -226.054971 
L 97.170374 -228.173911 
L 97.304998 -230.292851 
L 97.417265 -232.41179 
L 97.508414 -234.53073 
L 97.579686 -236.64967 
L 97.632305 -238.76861 
L 97.667452 -240.887549 
L 97.686261 -243.006489 
L 97.689812 -245.125429 
L 97.679148 -247.244368 
L 97.655291 -249.363308 
L 97.619261 -251.482248 
L 97.572114 -253.601188 
L 97.514964 -255.720127 
L 97.449017 -257.839067 
L 97.375593 -259.958007 
L 97.296143 -262.076946 
L 97.212258 -264.195886 
L 97.125667 -266.314826 
L 97.038216 -268.433766 
L 96.951845 -270.552705 
L 96.868545 -272.671645 
L 96.790307 -274.790585 
L 96.719069 -276.909524 
L 96.656646 -279.028464 
L 96.604671 -281.147404 
L 96.564536 -283.266344 
L 96.537335 -285.385283 
L 96.523822 -287.504223 
L 96.524381 -289.623163 
L 96.539014 -291.742102 
L 96.567338 -293.861042 
L 96.608609 -295.979982 
L 96.661751 -298.098921 
L 96.725407 -300.217861 
L 96.797995 -302.336801 
L 96.877776 -304.455741 
L 96.962921 -306.57468 
L 97.051581 -308.69362 
L 97.141954 -310.81256 
L 99.051589 -310.81256 
L 99.051589 -310.81256 
L 99.141961 -308.69362 
L 99.230622 -306.57468 
L 99.315767 -304.455741 
L 99.395548 -302.336801 
L 99.468136 -300.217861 
L 99.531792 -298.098921 
L 99.584934 -295.979982 
L 99.626205 -293.861042 
L 99.654529 -291.742102 
L 99.669162 -289.623163 
L 99.669721 -287.504223 
L 99.656208 -285.385283 
L 99.629007 -283.266344 
L 99.588872 -281.147404 
L 99.536897 -279.028464 
L 99.474474 -276.909524 
L 99.403235 -274.790585 
L 99.324998 -272.671645 
L 99.241698 -270.552705 
L 99.155327 -268.433766 
L 99.067876 -266.314826 
L 98.981285 -264.195886 
L 98.8974 -262.076946 
L 98.81795 -259.958007 
L 98.744525 -257.839067 
L 98.678578 -255.720127 
L 98.621429 -253.601188 
L 98.574281 -251.482248 
L 98.538252 -249.363308 
L 98.514395 -247.244368 
L 98.503731 -245.125429 
L 98.507282 -243.006489 
L 98.52609 -240.887549 
L 98.561238 -238.76861 
L 98.613857 -236.64967 
L 98.685129 -234.53073 
L 98.776277 -232.41179 
L 98.888545 -230.292851 
L 99.023169 -228.173911 
L 99.181346 -226.054971 
L 99.364194 -223.936032 
L 99.572714 -221.817092 
L 99.807751 -219.698152 
L 100.069964 -217.579213 
L 100.359803 -215.460273 
L 100.677489 -213.341333 
L 101.023021 -211.222393 
L 101.396177 -209.103454 
L 101.796539 -206.984514 
L 102.223525 -204.865574 
L 102.676419 -202.746635 
L 103.154411 -200.627695 
L 103.656629 -198.508755 
L 104.18216 -196.389815 
L 104.730061 -194.270876 
L 105.299339 -192.151936 
L 105.888923 -190.032996 
L 106.497597 -187.914057 
L 107.123917 -185.795117 
L 107.766104 -183.676177 
L 108.421924 -181.557237 
L 109.088554 -179.438298 
L 109.762464 -177.319358 
L 110.439302 -175.200418 
L 111.113812 -173.081479 
L 111.77979 -170.962539 
L 112.430088 -168.843599 
L 113.056672 -166.724659 
L 113.650745 -164.60572 
L 114.202931 -162.48678 
L 114.703506 -160.36784 
L 115.142693 -158.248901 
L 115.510982 -156.129961 
L 115.799477 -154.011021 
L 116.000241 -151.892082 
L 116.106634 -149.773142 
L 116.113609 -147.654202 
L 116.017964 -145.535262 
L 115.818525 -143.416323 
L 115.516252 -141.297383 
L 115.114264 -139.178443 
L 114.617781 -137.059504 
L 114.033981 -134.940564 
L 113.371783 -132.821624 
L 112.641567 -130.702684 
L 111.85485 -128.583745 
L 111.023923 -126.464805 
L 110.161473 -124.345865 
L 109.280215 -122.226926 
L 108.392535 -120.107986 
L 107.510167 -117.989046 
L 106.643917 -115.870106 
L 105.803436 -113.751167 
L 104.997058 -111.632227 
L 104.231683 -109.513287 
L 103.512739 -107.394348 
L 102.84418 -105.275408 
L 102.228546 -103.156468 
L 101.667055 -101.037528 
z
" id="mbb248b6355" style="stroke:#414141;stroke-width:2;"/>
    </defs>
    <g clip-path="url(#p66fca547fa)">
     <use style="fill:#e68193;stroke:#414141;stroke-width:2;" x="0" xlink:href="#mbb248b6355" y="391.7373"/>
    </g>
   </g>
   <g id="PolyCollection_2">
    <defs>
     <path d="M 196.042418 -96.996963 
L 191.465411 -96.996963 
L 191.168937 -98.576421 
L 190.850031 -100.155879 
L 190.509412 -101.735337 
L 190.148172 -103.314796 
L 189.76778 -104.894254 
L 189.370071 -106.473712 
L 188.957223 -108.05317 
L 188.531722 -109.632628 
L 188.096316 -111.212087 
L 187.653948 -112.791545 
L 187.207695 -114.371003 
L 186.760688 -115.950461 
L 186.31603 -117.52992 
L 185.876712 -119.109378 
L 185.445537 -120.688836 
L 185.025042 -122.268294 
L 184.617434 -123.847752 
L 184.22454 -125.427211 
L 183.84777 -127.006669 
L 183.4881 -128.586127 
L 183.146074 -130.165585 
L 182.821825 -131.745043 
L 182.515112 -133.324502 
L 182.225377 -134.90396 
L 181.951812 -136.483418 
L 181.693436 -138.062876 
L 181.44918 -139.642334 
L 181.217964 -141.221793 
L 180.998778 -142.801251 
L 180.790751 -144.380709 
L 180.593205 -145.960167 
L 180.405697 -147.539625 
L 180.228043 -149.119084 
L 180.060324 -150.698542 
L 179.902877 -152.278 
L 179.756265 -153.857458 
L 179.621248 -155.436917 
L 179.49873 -157.016375 
L 179.389714 -158.595833 
L 179.29525 -160.175291 
L 179.216386 -161.754749 
L 179.154137 -163.334208 
L 179.109443 -164.913666 
L 179.08316 -166.493124 
L 179.076048 -168.072582 
L 179.088772 -169.65204 
L 179.121919 -171.231499 
L 179.176008 -172.810957 
L 179.251518 -174.390415 
L 179.348901 -175.969873 
L 179.468603 -177.549331 
L 179.611064 -179.12879 
L 179.776722 -180.708248 
L 179.965992 -182.287706 
L 180.179242 -183.867164 
L 180.416753 -185.446623 
L 180.678669 -187.026081 
L 180.96494 -188.605539 
L 181.275266 -190.184997 
L 181.609038 -191.764455 
L 181.965285 -193.343914 
L 182.342637 -194.923372 
L 182.739298 -196.50283 
L 183.153041 -198.082288 
L 183.58122 -199.661746 
L 184.02081 -201.241205 
L 184.468462 -202.820663 
L 184.920582 -204.400121 
L 185.373426 -205.979579 
L 185.823204 -207.559037 
L 186.266192 -209.138496 
L 186.698852 -210.717954 
L 187.117934 -212.297412 
L 187.520579 -213.87687 
L 187.904402 -215.456329 
L 188.267555 -217.035787 
L 188.608765 -218.615245 
L 188.927355 -220.194703 
L 189.22323 -221.774161 
L 189.496844 -223.35362 
L 189.749147 -224.933078 
L 189.981513 -226.512536 
L 190.19565 -228.091994 
L 190.393505 -229.671452 
L 190.577166 -231.250911 
L 190.748762 -232.830369 
L 190.910373 -234.409827 
L 191.063946 -235.989285 
L 191.211227 -237.568743 
L 191.353709 -239.148202 
L 191.492597 -240.72766 
L 191.62879 -242.307118 
L 191.762878 -243.886576 
L 191.895156 -245.466034 
L 192.025656 -247.045493 
L 192.154176 -248.624951 
L 192.280331 -250.204409 
L 192.403595 -251.783867 
L 192.523358 -253.363326 
L 194.984471 -253.363326 
L 194.984471 -253.363326 
L 195.104233 -251.783867 
L 195.227498 -250.204409 
L 195.353652 -248.624951 
L 195.482172 -247.045493 
L 195.612672 -245.466034 
L 195.744951 -243.886576 
L 195.879038 -242.307118 
L 196.015231 -240.72766 
L 196.154119 -239.148202 
L 196.296602 -237.568743 
L 196.443883 -235.989285 
L 196.597455 -234.409827 
L 196.759066 -232.830369 
L 196.930663 -231.250911 
L 197.114324 -229.671452 
L 197.312179 -228.091994 
L 197.526315 -226.512536 
L 197.758682 -224.933078 
L 198.010985 -223.35362 
L 198.284599 -221.774161 
L 198.580473 -220.194703 
L 198.899063 -218.615245 
L 199.240274 -217.035787 
L 199.603427 -215.456329 
L 199.98725 -213.87687 
L 200.389895 -212.297412 
L 200.808977 -210.717954 
L 201.241636 -209.138496 
L 201.684625 -207.559037 
L 202.134402 -205.979579 
L 202.587246 -204.400121 
L 203.039367 -202.820663 
L 203.487019 -201.241205 
L 203.926608 -199.661746 
L 204.354788 -198.082288 
L 204.76853 -196.50283 
L 205.165191 -194.923372 
L 205.542544 -193.343914 
L 205.898791 -191.764455 
L 206.232563 -190.184997 
L 206.542889 -188.605539 
L 206.82916 -187.026081 
L 207.091075 -185.446623 
L 207.328586 -183.867164 
L 207.541837 -182.287706 
L 207.731107 -180.708248 
L 207.896764 -179.12879 
L 208.039226 -177.549331 
L 208.158927 -175.969873 
L 208.256311 -174.390415 
L 208.331821 -172.810957 
L 208.38591 -171.231499 
L 208.419056 -169.65204 
L 208.431781 -168.072582 
L 208.424668 -166.493124 
L 208.398386 -164.913666 
L 208.353692 -163.334208 
L 208.291442 -161.754749 
L 208.212579 -160.175291 
L 208.118114 -158.595833 
L 208.009098 -157.016375 
L 207.886581 -155.436917 
L 207.751563 -153.857458 
L 207.604952 -152.278 
L 207.447504 -150.698542 
L 207.279785 -149.119084 
L 207.102132 -147.539625 
L 206.914624 -145.960167 
L 206.717077 -144.380709 
L 206.50905 -142.801251 
L 206.289865 -141.221793 
L 206.058648 -139.642334 
L 205.814392 -138.062876 
L 205.556017 -136.483418 
L 205.282452 -134.90396 
L 204.992717 -133.324502 
L 204.686004 -131.745043 
L 204.361754 -130.165585 
L 204.019729 -128.586127 
L 203.660059 -127.006669 
L 203.283288 -125.427211 
L 202.890394 -123.847752 
L 202.482786 -122.268294 
L 202.062291 -120.688836 
L 201.631116 -119.109378 
L 201.191799 -117.52992 
L 200.74714 -115.950461 
L 200.300134 -114.371003 
L 199.853881 -112.791545 
L 199.411513 -111.212087 
L 198.976106 -109.632628 
L 198.550606 -108.05317 
L 198.137758 -106.473712 
L 197.740049 -104.894254 
L 197.359657 -103.314796 
L 196.998416 -101.735337 
L 196.657797 -100.155879 
L 196.338892 -98.576421 
L 196.042418 -96.996963 
z
" id="m15e1f93525" style="stroke:#414141;stroke-width:2;"/>
    </defs>
    <g clip-path="url(#p66fca547fa)">
     <use style="fill:#b38e44;stroke:#414141;stroke-width:2;" x="0" xlink:href="#m15e1f93525" y="391.7373"/>
    </g>
   </g>
   <g id="PolyCollection_3">
    <defs>
     <path d="M 292.129914 -93.587363 
L 286.6922 -93.587363 
L 286.377025 -94.791241 
L 286.039743 -95.995119 
L 285.680516 -97.198997 
L 285.299671 -98.402875 
L 284.897691 -99.606752 
L 284.475208 -100.81063 
L 284.032985 -102.014508 
L 283.571908 -103.218386 
L 283.092967 -104.422264 
L 282.59725 -105.626141 
L 282.085931 -106.830019 
L 281.560267 -108.033897 
L 281.021596 -109.237775 
L 280.471345 -110.441653 
L 279.911039 -111.64553 
L 279.342317 -112.849408 
L 278.766951 -114.053286 
L 278.186867 -115.257164 
L 277.604174 -116.461042 
L 277.02118 -117.664919 
L 276.440416 -118.868797 
L 275.864644 -120.072675 
L 275.296872 -121.276553 
L 274.740338 -122.480431 
L 274.198504 -123.684308 
L 273.675021 -124.888186 
L 273.17369 -126.092064 
L 272.698406 -127.295942 
L 272.253089 -128.49982 
L 271.84161 -129.703697 
L 271.467706 -130.907575 
L 271.134886 -132.111453 
L 270.846346 -133.315331 
L 270.604875 -134.519209 
L 270.41278 -135.723086 
L 270.271806 -136.926964 
L 270.183083 -138.130842 
L 270.147079 -139.33472 
L 270.163574 -140.538598 
L 270.231656 -141.742475 
L 270.349724 -142.946353 
L 270.515526 -144.150231 
L 270.726199 -145.354109 
L 270.978333 -146.557987 
L 271.268043 -147.761864 
L 271.591052 -148.965742 
L 271.942778 -150.16962 
L 272.318431 -151.373498 
L 272.713101 -152.577376 
L 273.121853 -153.781253 
L 273.53981 -154.985131 
L 273.962234 -156.189009 
L 274.384603 -157.392887 
L 274.802669 -158.596765 
L 275.212523 -159.800642 
L 275.610635 -161.00452 
L 275.993899 -162.208398 
L 276.359666 -163.412276 
L 276.705762 -164.616154 
L 277.030515 -165.820031 
L 277.332758 -167.023909 
L 277.611838 -168.227787 
L 277.867615 -169.431665 
L 278.100449 -170.635543 
L 278.311191 -171.83942 
L 278.501157 -173.043298 
L 278.672098 -174.247176 
L 278.826168 -175.451054 
L 278.965871 -176.654932 
L 279.094013 -177.858809 
L 279.21364 -179.062687 
L 279.327971 -180.266565 
L 279.440325 -181.470443 
L 279.554043 -182.674321 
L 279.672411 -183.878198 
L 279.798574 -185.082076 
L 279.935465 -186.285954 
L 280.085726 -187.489832 
L 280.251641 -188.69371 
L 280.43508 -189.897587 
L 280.63745 -191.101465 
L 280.859656 -192.305343 
L 281.102089 -193.509221 
L 281.364611 -194.713099 
L 281.646569 -195.916976 
L 281.946816 -197.120854 
L 282.263752 -198.324732 
L 282.595368 -199.52861 
L 282.939313 -200.732488 
L 283.292958 -201.936365 
L 283.653473 -203.140243 
L 284.017903 -204.344121 
L 284.383247 -205.547999 
L 284.746533 -206.751877 
L 285.104887 -207.955754 
L 285.455603 -209.159632 
L 285.79619 -210.36351 
L 286.124424 -211.567388 
L 286.438383 -212.771266 
L 292.383732 -212.771266 
L 292.383732 -212.771266 
L 292.69769 -211.567388 
L 293.025924 -210.36351 
L 293.366511 -209.159632 
L 293.717227 -207.955754 
L 294.075581 -206.751877 
L 294.438867 -205.547999 
L 294.804211 -204.344121 
L 295.168641 -203.140243 
L 295.529156 -201.936365 
L 295.882801 -200.732488 
L 296.226746 -199.52861 
L 296.558363 -198.324732 
L 296.875298 -197.120854 
L 297.175545 -195.916976 
L 297.457503 -194.713099 
L 297.720025 -193.509221 
L 297.962458 -192.305343 
L 298.184665 -191.101465 
L 298.387034 -189.897587 
L 298.570473 -188.69371 
L 298.736389 -187.489832 
L 298.886649 -186.285954 
L 299.02354 -185.082076 
L 299.149704 -183.878198 
L 299.268071 -182.674321 
L 299.38179 -181.470443 
L 299.494144 -180.266565 
L 299.608475 -179.062687 
L 299.728102 -177.858809 
L 299.856244 -176.654932 
L 299.995946 -175.451054 
L 300.150016 -174.247176 
L 300.320958 -173.043298 
L 300.510923 -171.83942 
L 300.721665 -170.635543 
L 300.954499 -169.431665 
L 301.210276 -168.227787 
L 301.489356 -167.023909 
L 301.791599 -165.820031 
L 302.116352 -164.616154 
L 302.462449 -163.412276 
L 302.828215 -162.208398 
L 303.21148 -161.00452 
L 303.609591 -159.800642 
L 304.019445 -158.596765 
L 304.437511 -157.392887 
L 304.85988 -156.189009 
L 305.282304 -154.985131 
L 305.700261 -153.781253 
L 306.109013 -152.577376 
L 306.503683 -151.373498 
L 306.879336 -150.16962 
L 307.231063 -148.965742 
L 307.554071 -147.761864 
L 307.843781 -146.557987 
L 308.095915 -145.354109 
L 308.306588 -144.150231 
L 308.47239 -142.946353 
L 308.590459 -141.742475 
L 308.65854 -140.538598 
L 308.675036 -139.33472 
L 308.639032 -138.130842 
L 308.550309 -136.926964 
L 308.409335 -135.723086 
L 308.217239 -134.519209 
L 307.975769 -133.315331 
L 307.687228 -132.111453 
L 307.354408 -130.907575 
L 306.980504 -129.703697 
L 306.569026 -128.49982 
L 306.123709 -127.295942 
L 305.648424 -126.092064 
L 305.147093 -124.888186 
L 304.62361 -123.684308 
L 304.081776 -122.480431 
L 303.525243 -121.276553 
L 302.95747 -120.072675 
L 302.381699 -118.868797 
L 301.800934 -117.664919 
L 301.21794 -116.461042 
L 300.635247 -115.257164 
L 300.055164 -114.053286 
L 299.479797 -112.849408 
L 298.911075 -111.64553 
L 298.350769 -110.441653 
L 297.800518 -109.237775 
L 297.261848 -108.033897 
L 296.736183 -106.830019 
L 296.224864 -105.626141 
L 295.729147 -104.422264 
L 295.250207 -103.218386 
L 294.789129 -102.014508 
L 294.346906 -100.81063 
L 293.924423 -99.606752 
L 293.522443 -98.402875 
L 293.141598 -97.198997 
L 292.782371 -95.995119 
L 292.445089 -94.791241 
L 292.129914 -93.587363 
z
" id="m5bafc4eeda" style="stroke:#414141;stroke-width:2;"/>
    </defs>
    <g clip-path="url(#p66fca547fa)">
     <use style="fill:#7d9a40;stroke:#414141;stroke-width:2;" x="0" xlink:href="#m5bafc4eeda" y="391.7373"/>
    </g>
   </g>
   <g id="PolyCollection_4">
    <defs>
     <path d="M 392.262352 -113.286651 
L 377.874048 -113.286651 
L 377.123824 -114.492479 
L 376.339634 -115.698308 
L 375.526146 -116.904136 
L 374.688838 -118.109964 
L 373.833958 -119.315792 
L 372.968441 -120.521621 
L 372.099815 -121.727449 
L 371.236083 -122.933277 
L 370.385584 -124.139106 
L 369.556839 -125.344934 
L 368.75839 -126.550762 
L 367.998623 -127.75659 
L 367.285601 -128.962419 
L 366.626891 -130.168247 
L 366.0294 -131.374075 
L 365.49923 -132.579904 
L 365.041548 -133.785732 
L 364.660477 -134.99156 
L 364.359011 -136.197388 
L 364.138964 -137.403217 
L 364.000941 -138.609045 
L 363.944343 -139.814873 
L 363.967397 -141.020702 
L 364.067218 -142.22653 
L 364.239893 -143.432358 
L 364.480586 -144.638186 
L 364.783665 -145.844015 
L 365.142836 -147.049843 
L 365.551294 -148.255671 
L 366.001875 -149.4615 
L 366.487208 -150.667328 
L 366.999866 -151.873156 
L 367.532507 -153.078984 
L 368.078004 -154.284813 
L 368.629568 -155.490641 
L 369.180846 -156.696469 
L 369.726009 -157.902298 
L 370.259822 -159.108126 
L 370.777693 -160.313954 
L 371.275705 -161.519782 
L 371.750634 -162.725611 
L 372.199953 -163.931439 
L 372.621811 -165.137267 
L 373.015016 -166.343096 
L 373.378994 -167.548924 
L 373.713745 -168.754752 
L 374.01979 -169.96058 
L 374.298116 -171.166409 
L 374.550114 -172.372237 
L 374.777515 -173.578065 
L 374.982327 -174.783894 
L 375.166773 -175.989722 
L 375.333227 -177.19555 
L 375.484155 -178.401378 
L 375.622063 -179.607207 
L 375.74944 -180.813035 
L 375.868714 -182.018863 
L 375.98221 -183.224692 
L 376.092115 -184.43052 
L 376.200444 -185.636348 
L 376.309023 -186.842176 
L 376.419467 -188.048005 
L 376.533169 -189.253833 
L 376.651299 -190.459661 
L 376.774803 -191.66549 
L 376.904409 -192.871318 
L 377.040641 -194.077146 
L 377.183832 -195.282974 
L 377.334144 -196.488803 
L 377.491589 -197.694631 
L 377.656051 -198.900459 
L 377.827311 -200.106288 
L 378.005064 -201.312116 
L 378.188945 -202.517944 
L 378.378543 -203.723772 
L 378.573418 -204.929601 
L 378.773117 -206.135429 
L 378.977174 -207.341257 
L 379.185125 -208.547086 
L 379.396503 -209.752914 
L 379.610844 -210.958742 
L 379.827676 -212.16457 
L 380.046522 -213.370399 
L 380.266888 -214.576227 
L 380.488263 -215.782055 
L 380.710108 -216.987884 
L 380.931857 -218.193712 
L 381.152908 -219.39954 
L 381.372631 -220.605368 
L 381.590362 -221.811197 
L 381.805412 -223.017025 
L 382.017072 -224.222853 
L 382.224624 -225.428682 
L 382.427349 -226.63451 
L 382.624541 -227.840338 
L 382.815522 -229.046166 
L 382.999652 -230.251995 
L 383.176343 -231.457823 
L 383.345072 -232.663651 
L 386.791328 -232.663651 
L 386.791328 -232.663651 
L 386.960057 -231.457823 
L 387.136748 -230.251995 
L 387.320878 -229.046166 
L 387.511859 -227.840338 
L 387.709051 -226.63451 
L 387.911776 -225.428682 
L 388.119328 -224.222853 
L 388.330988 -223.017025 
L 388.546038 -221.811197 
L 388.763769 -220.605368 
L 388.983492 -219.39954 
L 389.204543 -218.193712 
L 389.426292 -216.987884 
L 389.648137 -215.782055 
L 389.869512 -214.576227 
L 390.089878 -213.370399 
L 390.308724 -212.16457 
L 390.525556 -210.958742 
L 390.739897 -209.752914 
L 390.951275 -208.547086 
L 391.159226 -207.341257 
L 391.363283 -206.135429 
L 391.562982 -204.929601 
L 391.757857 -203.723772 
L 391.947455 -202.517944 
L 392.131336 -201.312116 
L 392.309089 -200.106288 
L 392.480349 -198.900459 
L 392.644811 -197.694631 
L 392.802256 -196.488803 
L 392.952568 -195.282974 
L 393.095759 -194.077146 
L 393.231991 -192.871318 
L 393.361597 -191.66549 
L 393.485101 -190.459661 
L 393.603231 -189.253833 
L 393.716933 -188.048005 
L 393.827377 -186.842176 
L 393.935956 -185.636348 
L 394.044285 -184.43052 
L 394.15419 -183.224692 
L 394.267686 -182.018863 
L 394.38696 -180.813035 
L 394.514337 -179.607207 
L 394.652245 -178.401378 
L 394.803173 -177.19555 
L 394.969627 -175.989722 
L 395.154073 -174.783894 
L 395.358885 -173.578065 
L 395.586286 -172.372237 
L 395.838284 -171.166409 
L 396.11661 -169.96058 
L 396.422655 -168.754752 
L 396.757406 -167.548924 
L 397.121384 -166.343096 
L 397.514589 -165.137267 
L 397.936447 -163.931439 
L 398.385766 -162.725611 
L 398.860695 -161.519782 
L 399.358707 -160.313954 
L 399.876578 -159.108126 
L 400.410391 -157.902298 
L 400.955554 -156.696469 
L 401.506832 -155.490641 
L 402.058396 -154.284813 
L 402.603893 -153.078984 
L 403.136534 -151.873156 
L 403.649192 -150.667328 
L 404.134525 -149.4615 
L 404.585106 -148.255671 
L 404.993564 -147.049843 
L 405.352735 -145.844015 
L 405.655814 -144.638186 
L 405.896507 -143.432358 
L 406.069182 -142.22653 
L 406.169003 -141.020702 
L 406.192057 -139.814873 
L 406.135459 -138.609045 
L 405.997436 -137.403217 
L 405.777389 -136.197388 
L 405.475923 -134.99156 
L 405.094852 -133.785732 
L 404.63717 -132.579904 
L 404.107 -131.374075 
L 403.509509 -130.168247 
L 402.850799 -128.962419 
L 402.137777 -127.75659 
L 401.37801 -126.550762 
L 400.579561 -125.344934 
L 399.750816 -124.139106 
L 398.900317 -122.933277 
L 398.036585 -121.727449 
L 397.167959 -120.521621 
L 396.302442 -119.315792 
L 395.447562 -118.109964 
L 394.610254 -116.904136 
L 393.796766 -115.698308 
L 393.012576 -114.492479 
L 392.262352 -113.286651 
z
" id="m9b5a2b6cf7" style="stroke:#414141;stroke-width:2;"/>
    </defs>
    <g clip-path="url(#p66fca547fa)">
     <use style="fill:#43a084;stroke:#414141;stroke-width:2;" x="0" xlink:href="#m9b5a2b6cf7" y="391.7373"/>
    </g>
   </g>
   <g id="PolyCollection_5">
    <defs>
     <path d="M 482.950359 -102.113079 
L 478.500327 -102.113079 
L 478.272698 -103.095163 
L 478.049872 -104.077248 
L 477.837057 -105.059333 
L 477.639538 -106.041418 
L 477.462433 -107.023503 
L 477.310447 -108.005588 
L 477.187619 -108.987673 
L 477.097089 -109.969758 
L 477.040894 -110.951843 
L 477.019805 -111.933927 
L 477.033221 -112.916012 
L 477.079115 -113.898097 
L 477.154052 -114.880182 
L 477.253251 -115.862267 
L 477.370717 -116.844352 
L 477.499401 -117.826437 
L 477.631408 -118.808522 
L 477.758217 -119.790607 
L 477.870906 -120.772692 
L 477.960387 -121.754776 
L 478.017613 -122.736861 
L 478.033773 -123.718946 
L 478.00046 -124.701031 
L 477.909806 -125.683116 
L 477.754594 -126.665201 
L 477.528342 -127.647286 
L 477.225358 -128.629371 
L 476.840777 -129.611456 
L 476.370585 -130.59354 
L 475.811627 -131.575625 
L 475.161601 -132.55771 
L 474.419065 -133.539795 
L 473.583424 -134.52188 
L 472.654935 -135.503965 
L 471.634717 -136.48605 
L 470.524774 -137.468135 
L 469.328027 -138.45022 
L 468.048376 -139.432304 
L 466.69077 -140.414389 
L 465.2613 -141.396474 
L 463.767306 -142.378559 
L 462.217494 -143.360644 
L 460.622049 -144.342729 
L 458.992736 -145.324814 
L 457.34298 -146.306899 
L 455.6879 -147.288984 
L 454.044281 -148.271068 
L 452.430485 -149.253153 
L 450.866263 -150.235238 
L 449.372487 -151.217323 
L 447.970776 -152.199408 
L 446.683031 -153.181493 
L 445.530884 -154.163578 
L 444.535087 -155.145663 
L 443.714849 -156.127748 
L 443.087163 -157.109833 
L 442.666156 -158.091917 
L 442.462486 -159.074002 
L 442.482834 -160.056087 
L 442.729519 -161.038172 
L 443.200254 -162.020257 
L 443.888077 -163.002342 
L 444.781453 -163.984427 
L 445.864562 -164.966512 
L 447.117739 -165.948597 
L 448.518079 -166.930681 
L 450.04015 -167.912766 
L 451.656798 -168.894851 
L 453.339995 -169.876936 
L 455.061697 -170.859021 
L 456.794681 -171.841106 
L 458.513303 -172.823191 
L 460.194175 -173.805276 
L 461.816724 -174.787361 
L 463.36361 -175.769445 
L 464.821013 -176.75153 
L 466.178768 -177.733615 
L 467.430366 -178.7157 
L 468.572818 -179.697785 
L 469.606409 -180.67987 
L 470.534345 -181.661955 
L 471.362327 -182.64404 
L 472.09806 -183.626125 
L 472.750737 -184.60821 
L 473.330501 -185.590294 
L 473.847925 -186.572379 
L 474.313526 -187.554464 
L 474.737322 -188.536549 
L 475.12847 -189.518634 
L 475.494978 -190.500719 
L 475.843503 -191.482804 
L 476.179246 -192.464889 
L 476.505934 -193.446974 
L 476.825877 -194.429058 
L 477.140103 -195.411143 
L 477.448543 -196.393228 
L 477.750252 -197.375313 
L 478.043655 -198.357398 
L 478.326787 -199.339483 
L 483.123898 -199.339483 
L 483.123898 -199.339483 
L 483.407031 -198.357398 
L 483.700433 -197.375313 
L 484.002143 -196.393228 
L 484.310583 -195.411143 
L 484.624809 -194.429058 
L 484.944752 -193.446974 
L 485.271439 -192.464889 
L 485.607183 -191.482804 
L 485.955708 -190.500719 
L 486.322216 -189.518634 
L 486.713364 -188.536549 
L 487.13716 -187.554464 
L 487.60276 -186.572379 
L 488.120185 -185.590294 
L 488.699949 -184.60821 
L 489.352626 -183.626125 
L 490.088359 -182.64404 
L 490.91634 -181.661955 
L 491.844277 -180.67987 
L 492.877868 -179.697785 
L 494.02032 -178.7157 
L 495.271918 -177.733615 
L 496.629673 -176.75153 
L 498.087076 -175.769445 
L 499.633962 -174.787361 
L 501.25651 -173.805276 
L 502.937383 -172.823191 
L 504.656005 -171.841106 
L 506.388988 -170.859021 
L 508.110691 -169.876936 
L 509.793888 -168.894851 
L 511.410536 -167.912766 
L 512.932607 -166.930681 
L 514.332947 -165.948597 
L 515.586124 -164.966512 
L 516.669232 -163.984427 
L 517.562609 -163.002342 
L 518.250432 -162.020257 
L 518.721167 -161.038172 
L 518.967852 -160.056087 
L 518.9882 -159.074002 
L 518.78453 -158.091917 
L 518.363523 -157.109833 
L 517.735837 -156.127748 
L 516.915599 -155.145663 
L 515.919802 -154.163578 
L 514.767655 -153.181493 
L 513.479909 -152.199408 
L 512.078198 -151.217323 
L 510.584423 -150.235238 
L 509.020201 -149.253153 
L 507.406404 -148.271068 
L 505.762786 -147.288984 
L 504.107705 -146.306899 
L 502.45795 -145.324814 
L 500.828637 -144.342729 
L 499.233191 -143.360644 
L 497.683379 -142.378559 
L 496.189386 -141.396474 
L 494.759916 -140.414389 
L 493.402309 -139.432304 
L 492.122659 -138.45022 
L 490.925912 -137.468135 
L 489.815969 -136.48605 
L 488.795751 -135.503965 
L 487.867262 -134.52188 
L 487.031621 -133.539795 
L 486.289084 -132.55771 
L 485.639059 -131.575625 
L 485.0801 -130.59354 
L 484.609909 -129.611456 
L 484.225328 -128.629371 
L 483.922343 -127.647286 
L 483.696091 -126.665201 
L 483.54088 -125.683116 
L 483.450226 -124.701031 
L 483.416912 -123.718946 
L 483.433073 -122.736861 
L 483.490299 -121.754776 
L 483.57978 -120.772692 
L 483.692469 -119.790607 
L 483.819277 -118.808522 
L 483.951285 -117.826437 
L 484.079969 -116.844352 
L 484.197434 -115.862267 
L 484.296634 -114.880182 
L 484.37157 -113.898097 
L 484.417465 -112.916012 
L 484.430881 -111.933927 
L 484.409792 -110.951843 
L 484.353597 -109.969758 
L 484.263067 -108.987673 
L 484.140239 -108.005588 
L 483.988253 -107.023503 
L 483.811148 -106.041418 
L 483.613628 -105.059333 
L 483.400814 -104.077248 
L 483.177988 -103.095163 
L 482.950359 -102.113079 
z
" id="m821eaea7c3" style="stroke:#414141;stroke-width:2;"/>
    </defs>
    <g clip-path="url(#p66fca547fa)">
     <use style="fill:#489eaa;stroke:#414141;stroke-width:2;" x="0" xlink:href="#m821eaea7c3" y="391.7373"/>
    </g>
   </g>
   <g id="PolyCollection_6">
    <defs>
     <path d="M 577.531639 -41.657898 
L 575.233333 -41.657898 
L 575.119421 -43.501058 
L 575.007813 -45.344219 
L 574.900975 -47.187379 
L 574.801419 -49.03054 
L 574.7116 -50.8737 
L 574.633803 -52.716861 
L 574.570038 -54.560021 
L 574.521933 -56.403182 
L 574.490641 -58.246342 
L 574.476768 -60.089503 
L 574.480317 -61.932663 
L 574.500659 -63.775823 
L 574.536526 -65.618984 
L 574.58604 -67.462144 
L 574.64675 -69.305305 
L 574.715702 -71.148465 
L 574.789515 -72.991626 
L 574.864479 -74.834786 
L 574.936647 -76.677947 
L 575.00194 -78.521107 
L 575.056242 -80.364268 
L 575.095491 -82.207428 
L 575.115767 -84.050588 
L 575.113361 -85.893749 
L 575.084842 -87.736909 
L 575.027111 -89.58007 
L 574.937444 -91.42323 
L 574.813519 -93.266391 
L 574.653444 -95.109551 
L 574.455766 -96.952712 
L 574.219467 -98.795872 
L 573.943952 -100.639033 
L 573.629031 -102.482193 
L 573.27488 -104.325354 
L 572.882001 -106.168514 
L 572.451172 -108.011674 
L 571.983401 -109.854835 
L 571.479881 -111.697995 
L 570.94195 -113.541156 
L 570.371074 -115.384316 
L 569.768844 -117.227477 
L 569.137005 -119.070637 
L 568.477501 -120.913798 
L 567.792557 -122.756958 
L 567.084773 -124.600119 
L 566.357241 -126.443279 
L 565.613662 -128.286439 
L 564.858456 -130.1296 
L 564.096852 -131.97276 
L 563.334951 -133.815921 
L 562.579732 -135.659081 
L 561.839014 -137.502242 
L 561.121354 -139.345402 
L 560.435886 -141.188563 
L 559.792101 -143.031723 
L 559.19959 -144.874884 
L 558.667742 -146.718044 
L 558.205432 -148.561204 
L 557.820709 -150.404365 
L 557.520505 -152.247525 
L 557.310379 -154.090686 
L 557.194314 -155.933846 
L 557.174572 -157.777007 
L 557.251621 -159.620167 
L 557.42413 -161.463328 
L 557.689027 -163.306488 
L 558.04162 -165.149649 
L 558.475771 -166.992809 
L 558.984097 -168.83597 
L 559.558217 -170.67913 
L 560.188998 -172.52229 
L 560.866817 -174.365451 
L 561.581814 -176.208611 
L 562.324138 -178.051772 
L 563.084174 -179.894932 
L 563.852742 -181.738093 
L 564.621286 -183.581253 
L 565.382015 -185.424414 
L 566.128029 -187.267574 
L 566.8534 -189.110735 
L 567.553233 -190.953895 
L 568.223674 -192.797055 
L 568.861901 -194.640216 
L 569.466071 -196.483376 
L 570.035242 -198.326537 
L 570.569268 -200.169697 
L 571.068679 -202.012858 
L 571.534538 -203.856018 
L 571.968308 -205.699179 
L 572.371706 -207.542339 
L 572.746582 -209.3855 
L 573.094801 -211.22866 
L 573.418157 -213.07182 
L 573.718303 -214.914981 
L 573.996712 -216.758141 
L 574.254655 -218.601302 
L 574.493209 -220.444462 
L 574.713275 -222.287623 
L 574.915614 -224.130783 
L 577.849357 -224.130783 
L 577.849357 -224.130783 
L 578.051696 -222.287623 
L 578.271763 -220.444462 
L 578.510317 -218.601302 
L 578.76826 -216.758141 
L 579.046668 -214.914981 
L 579.346814 -213.07182 
L 579.67017 -211.22866 
L 580.01839 -209.3855 
L 580.393265 -207.542339 
L 580.796663 -205.699179 
L 581.230433 -203.856018 
L 581.696292 -202.012858 
L 582.195703 -200.169697 
L 582.72973 -198.326537 
L 583.2989 -196.483376 
L 583.90307 -194.640216 
L 584.541297 -192.797055 
L 585.211738 -190.953895 
L 585.911571 -189.110735 
L 586.636943 -187.267574 
L 587.382956 -185.424414 
L 588.143685 -183.581253 
L 588.912229 -181.738093 
L 589.680798 -179.894932 
L 590.440833 -178.051772 
L 591.183157 -176.208611 
L 591.898154 -174.365451 
L 592.575973 -172.52229 
L 593.206754 -170.67913 
L 593.780874 -168.83597 
L 594.289201 -166.992809 
L 594.723351 -165.149649 
L 595.075945 -163.306488 
L 595.340842 -161.463328 
L 595.51335 -159.620167 
L 595.5904 -157.777007 
L 595.570657 -155.933846 
L 595.454592 -154.090686 
L 595.244467 -152.247525 
L 594.944263 -150.404365 
L 594.55954 -148.561204 
L 594.097229 -146.718044 
L 593.565381 -144.874884 
L 592.97287 -143.031723 
L 592.329086 -141.188563 
L 591.643617 -139.345402 
L 590.925957 -137.502242 
L 590.185239 -135.659081 
L 589.43002 -133.815921 
L 588.668119 -131.97276 
L 587.906516 -130.1296 
L 587.151309 -128.286439 
L 586.40773 -126.443279 
L 585.680198 -124.600119 
L 584.972415 -122.756958 
L 584.28747 -120.913798 
L 583.627966 -119.070637 
L 582.996127 -117.227477 
L 582.393898 -115.384316 
L 581.823021 -113.541156 
L 581.28509 -111.697995 
L 580.78157 -109.854835 
L 580.3138 -108.011674 
L 579.882971 -106.168514 
L 579.490091 -104.325354 
L 579.13594 -102.482193 
L 578.821019 -100.639033 
L 578.545505 -98.795872 
L 578.309205 -96.952712 
L 578.111527 -95.109551 
L 577.951453 -93.266391 
L 577.827528 -91.42323 
L 577.73786 -89.58007 
L 577.680129 -87.736909 
L 577.651611 -85.893749 
L 577.649205 -84.050588 
L 577.66948 -82.207428 
L 577.70873 -80.364268 
L 577.763032 -78.521107 
L 577.828325 -76.677947 
L 577.900493 -74.834786 
L 577.975456 -72.991626 
L 578.049269 -71.148465 
L 578.118221 -69.305305 
L 578.178931 -67.462144 
L 578.228445 -65.618984 
L 578.264313 -63.775823 
L 578.284654 -61.932663 
L 578.288203 -60.089503 
L 578.27433 -58.246342 
L 578.243039 -56.403182 
L 578.194933 -54.560021 
L 578.131168 -52.716861 
L 578.053372 -50.8737 
L 577.963552 -49.03054 
L 577.863996 -47.187379 
L 577.757159 -45.344219 
L 577.645551 -43.501058 
L 577.531639 -41.657898 
z
" id="mf7197dd897" style="stroke:#414141;stroke-width:2;"/>
    </defs>
    <g clip-path="url(#p66fca547fa)">
     <use style="fill:#8fa0e6;stroke:#414141;stroke-width:2;" x="0" xlink:href="#mf7197dd897" y="391.7373"/>
    </g>
   </g>
   <g id="PolyCollection_7">
    <defs>
     <path d="M 673.091799 -41.018235 
L 670.987458 -41.018235 
L 670.892917 -42.836729 
L 670.799739 -44.655223 
L 670.709515 -46.473717 
L 670.62386 -48.292211 
L 670.544352 -50.110704 
L 670.472469 -51.929198 
L 670.409526 -53.747692 
L 670.356609 -55.566186 
L 670.314515 -57.384679 
L 670.283701 -59.203173 
L 670.264234 -61.021667 
L 670.255764 -62.840161 
L 670.257502 -64.658654 
L 670.268211 -66.477148 
L 670.286217 -68.295642 
L 670.30943 -70.114136 
L 670.335379 -71.932629 
L 670.361258 -73.751123 
L 670.383985 -75.569617 
L 670.400267 -77.388111 
L 670.40667 -79.206604 
L 670.399698 -81.025098 
L 670.375866 -82.843592 
L 670.331784 -84.662086 
L 670.264229 -86.480579 
L 670.17022 -88.299073 
L 670.04709 -90.117567 
L 669.892548 -91.936061 
L 669.704734 -93.754554 
L 669.482274 -95.573048 
L 669.22432 -97.391542 
L 668.930578 -99.210036 
L 668.601333 -101.028529 
L 668.23746 -102.847023 
L 667.840418 -104.665517 
L 667.41224 -106.484011 
L 666.955507 -108.302504 
L 666.473306 -110.120998 
L 665.969184 -111.939492 
L 665.447087 -113.757986 
L 664.91129 -115.576479 
L 664.36632 -117.394973 
L 663.816872 -119.213467 
L 663.267724 -121.031961 
L 662.723652 -122.850454 
L 662.189334 -124.668948 
L 661.669276 -126.487442 
L 661.167722 -128.305936 
L 660.688589 -130.124429 
L 660.235393 -131.942923 
L 659.811201 -133.761417 
L 659.418575 -135.579911 
L 659.059547 -137.398404 
L 658.735591 -139.216898 
L 658.447616 -141.035392 
L 658.19597 -142.853886 
L 657.980464 -144.672379 
L 657.800404 -146.490873 
L 657.654639 -148.309367 
L 657.541627 -150.127861 
L 657.459512 -151.946354 
L 657.406209 -153.764848 
L 657.379502 -155.583342 
L 657.377146 -157.401836 
L 657.396968 -159.220329 
L 657.436973 -161.038823 
L 657.495431 -162.857317 
L 657.570964 -164.675811 
L 657.662609 -166.494305 
L 657.769864 -168.312798 
L 657.892707 -170.131292 
L 658.03159 -171.949786 
L 658.18741 -173.76828 
L 658.361448 -175.586773 
L 658.555282 -177.405267 
L 658.770687 -179.223761 
L 659.009511 -181.042255 
L 659.273543 -182.860748 
L 659.564374 -184.679242 
L 659.88327 -186.497736 
L 660.231045 -188.31623 
L 660.60796 -190.134723 
L 661.013638 -191.953217 
L 661.447014 -193.771711 
L 661.90631 -195.590205 
L 662.389047 -197.408698 
L 662.892087 -199.227192 
L 663.411707 -201.045686 
L 663.943693 -202.86418 
L 664.483467 -204.682673 
L 665.026217 -206.501167 
L 665.56704 -208.319661 
L 666.101089 -210.138155 
L 666.623708 -211.956648 
L 667.130561 -213.775142 
L 667.61774 -215.593636 
L 668.081853 -217.41213 
L 668.520091 -219.230623 
L 668.930264 -221.049117 
L 675.148994 -221.049117 
L 675.148994 -221.049117 
L 675.559167 -219.230623 
L 675.997404 -217.41213 
L 676.461517 -215.593636 
L 676.948696 -213.775142 
L 677.455549 -211.956648 
L 677.978168 -210.138155 
L 678.512217 -208.319661 
L 679.05304 -206.501167 
L 679.59579 -204.682673 
L 680.135564 -202.86418 
L 680.66755 -201.045686 
L 681.18717 -199.227192 
L 681.69021 -197.408698 
L 682.172947 -195.590205 
L 682.632243 -193.771711 
L 683.065619 -191.953217 
L 683.471298 -190.134723 
L 683.848212 -188.31623 
L 684.195988 -186.497736 
L 684.514883 -184.679242 
L 684.805714 -182.860748 
L 685.069746 -181.042255 
L 685.30857 -179.223761 
L 685.523975 -177.405267 
L 685.71781 -175.586773 
L 685.891847 -173.76828 
L 686.047667 -171.949786 
L 686.18655 -170.131292 
L 686.309393 -168.312798 
L 686.416648 -166.494305 
L 686.508293 -164.675811 
L 686.583827 -162.857317 
L 686.642285 -161.038823 
L 686.682289 -159.220329 
L 686.702111 -157.401836 
L 686.699755 -155.583342 
L 686.673048 -153.764848 
L 686.619745 -151.946354 
L 686.53763 -150.127861 
L 686.424618 -148.309367 
L 686.278853 -146.490873 
L 686.098793 -144.672379 
L 685.883287 -142.853886 
L 685.631642 -141.035392 
L 685.343666 -139.216898 
L 685.01971 -137.398404 
L 684.660682 -135.579911 
L 684.268056 -133.761417 
L 683.843864 -131.942923 
L 683.390668 -130.124429 
L 682.911535 -128.305936 
L 682.409981 -126.487442 
L 681.889923 -124.668948 
L 681.355605 -122.850454 
L 680.811533 -121.031961 
L 680.262386 -119.213467 
L 679.712937 -117.394973 
L 679.167967 -115.576479 
L 678.63217 -113.757986 
L 678.110073 -111.939492 
L 677.605952 -110.120998 
L 677.12375 -108.302504 
L 676.667017 -106.484011 
L 676.238839 -104.665517 
L 675.841797 -102.847023 
L 675.477924 -101.028529 
L 675.148679 -99.210036 
L 674.854937 -97.391542 
L 674.596983 -95.573048 
L 674.374524 -93.754554 
L 674.18671 -91.936061 
L 674.032167 -90.117567 
L 673.909037 -88.299073 
L 673.815028 -86.480579 
L 673.747473 -84.662086 
L 673.703391 -82.843592 
L 673.679559 -81.025098 
L 673.672587 -79.206604 
L 673.67899 -77.388111 
L 673.695272 -75.569617 
L 673.718 -73.751123 
L 673.743878 -71.932629 
L 673.769827 -70.114136 
L 673.79304 -68.295642 
L 673.811046 -66.477148 
L 673.821755 -64.658654 
L 673.823493 -62.840161 
L 673.815023 -61.021667 
L 673.795557 -59.203173 
L 673.764742 -57.384679 
L 673.722648 -55.566186 
L 673.669731 -53.747692 
L 673.606788 -51.929198 
L 673.534905 -50.110704 
L 673.455397 -48.292211 
L 673.369742 -46.473717 
L 673.279518 -44.655223 
L 673.18634 -42.836729 
L 673.091799 -41.018235 
z
" id="mf6e0be1e50" style="stroke:#414141;stroke-width:2;"/>
    </defs>
    <g clip-path="url(#p66fca547fa)">
     <use style="fill:#e270db;stroke:#414141;stroke-width:2;" x="0" xlink:href="#mf6e0be1e50" y="391.7373"/>
    </g>
   </g>
   <g id="line2d_1">
    <path clip-path="url(#p66fca547fa)" d="M 50.2682 240.358849 
L 719.8682 240.358849 
" style="fill:none;stroke:#404040;stroke-dasharray:5.55,2.4;stroke-dashoffset:0;stroke-width:1.5;"/>
   </g>
   <g id="line2d_2">
    <path clip-path="url(#p66fca547fa)" d="M 98.096771 268.380926 
L 98.096771 198.018602 
" style="fill:none;stroke:#414141;stroke-linecap:round;stroke-width:2;"/>
   </g>
   <g id="line2d_3">
    <path clip-path="url(#p66fca547fa)" d="M 98.096771 251.259884 
L 98.096771 221.914666 
" style="fill:none;stroke:#414141;stroke-linecap:round;stroke-width:6;"/>
   </g>
   <g id="line2d_4">
    <path clip-path="url(#p66fca547fa)" d="M 193.753914 276.354054 
L 193.753914 156.760258 
" style="fill:none;stroke:#414141;stroke-linecap:round;stroke-width:2;"/>
   </g>
   <g id="line2d_5">
    <path clip-path="url(#p66fca547fa)" d="M 193.753914 248.989372 
L 193.753914 201.864626 
" style="fill:none;stroke:#414141;stroke-linecap:round;stroke-width:6;"/>
   </g>
   <g id="line2d_6">
    <path clip-path="url(#p66fca547fa)" d="M 289.411057 282.826952 
L 289.411057 194.289019 
" style="fill:none;stroke:#414141;stroke-linecap:round;stroke-width:2;"/>
   </g>
   <g id="line2d_7">
    <path clip-path="url(#p66fca547fa)" d="M 289.411057 256.864529 
L 289.411057 224.707895 
" style="fill:none;stroke:#414141;stroke-linecap:round;stroke-width:6;"/>
   </g>
   <g id="line2d_8">
    <path clip-path="url(#p66fca547fa)" d="M 385.0682 262.551133 
L 385.0682 174.973165 
" style="fill:none;stroke:#414141;stroke-linecap:round;stroke-width:2;"/>
   </g>
   <g id="line2d_9">
    <path clip-path="url(#p66fca547fa)" d="M 385.0682 256.797775 
L 385.0682 217.019756 
" style="fill:none;stroke:#414141;stroke-linecap:round;stroke-width:6;"/>
   </g>
   <g id="line2d_10">
    <path clip-path="url(#p66fca547fa)" d="M 480.725343 250.37114 
L 480.725343 216.972108 
" style="fill:none;stroke:#414141;stroke-linecap:round;stroke-width:2;"/>
   </g>
   <g id="line2d_11">
    <path clip-path="url(#p66fca547fa)" d="M 480.725343 239.541075 
L 480.725343 226.591342 
" style="fill:none;stroke:#414141;stroke-linecap:round;stroke-width:6;"/>
   </g>
   <g id="line2d_12">
    <path clip-path="url(#p66fca547fa)" d="M 576.382486 268.936583 
L 576.382486 186.154718 
" style="fill:none;stroke:#414141;stroke-linecap:round;stroke-width:2;"/>
   </g>
   <g id="line2d_13">
    <path clip-path="url(#p66fca547fa)" d="M 576.382486 246.993947 
L 576.382486 222.446537 
" style="fill:none;stroke:#414141;stroke-linecap:round;stroke-width:6;"/>
   </g>
   <g id="line2d_14">
    <path clip-path="url(#p66fca547fa)" d="M 672.039629 272.749693 
L 672.039629 190.968213 
" style="fill:none;stroke:#414141;stroke-linecap:round;stroke-width:2;"/>
   </g>
   <g id="line2d_15">
    <path clip-path="url(#p66fca547fa)" d="M 672.039629 255.612045 
L 672.039629 210.142388 
" style="fill:none;stroke:#414141;stroke-linecap:round;stroke-width:6;"/>
   </g>
   <g id="patch_3">
    <path d="M 50.2682 367.986675 
L 50.2682 41.826675 
" style="fill:none;stroke:#262626;stroke-linecap:square;stroke-linejoin:miter;stroke-width:1.25;"/>
   </g>
   <g id="patch_4">
    <path d="M 719.8682 367.986675 
L 719.8682 41.826675 
" style="fill:none;stroke:#262626;stroke-linecap:square;stroke-linejoin:miter;stroke-width:1.25;"/>
   </g>
   <g id="patch_5">
    <path d="M 50.2682 367.986675 
L 719.8682 367.986675 
" style="fill:none;stroke:#262626;stroke-linecap:square;stroke-linejoin:miter;stroke-width:1.25;"/>
   </g>
   <g id="patch_6">
    <path d="M 50.2682 41.826675 
L 719.8682 41.826675 
" style="fill:none;stroke:#262626;stroke-linecap:square;stroke-linejoin:miter;stroke-width:1.25;"/>
   </g>
   <g id="PathCollection_1">
    <defs>
     <path d="M 0 2 
C 0.530406 2 1.03916 1.789267 1.414214 1.414214 
C 1.789267 1.03916 2 0.530406 2 0 
C 2 -0.530406 1.789267 -1.03916 1.414214 -1.414214 
C 1.03916 -1.789267 0.530406 -2 0 -2 
C -0.530406 -2 -1.03916 -1.789267 -1.414214 -1.414214 
C -1.789267 -1.03916 -2 -0.530406 -2 0 
C -2 0.530406 -1.789267 1.03916 -1.414214 1.414214 
C -1.03916 1.789267 -0.530406 2 0 2 
z
" id="m1cac400b7e" style="stroke:#414141;"/>
    </defs>
    <g clip-path="url(#p66fca547fa)">
     <use style="fill:#ffffff;stroke:#414141;" x="98.096771" xlink:href="#m1cac400b7e" y="240.057449"/>
    </g>
   </g>
   <g id="PathCollection_2">
    <g clip-path="url(#p66fca547fa)">
     <use style="fill:#ffffff;stroke:#414141;" x="193.753914" xlink:href="#m1cac400b7e" y="225.743054"/>
    </g>
   </g>
   <g id="PathCollection_3">
    <g clip-path="url(#p66fca547fa)">
     <use style="fill:#ffffff;stroke:#414141;" x="289.411057" xlink:href="#m1cac400b7e" y="248.842725"/>
    </g>
   </g>
   <g id="PathCollection_4">
    <g clip-path="url(#p66fca547fa)">
     <use style="fill:#ffffff;stroke:#414141;" x="385.0682" xlink:href="#m1cac400b7e" y="245.135001"/>
    </g>
   </g>
   <g id="PathCollection_5">
    <g clip-path="url(#p66fca547fa)">
     <use style="fill:#ffffff;stroke:#414141;" x="480.725343" xlink:href="#m1cac400b7e" y="231.057932"/>
    </g>
   </g>
   <g id="PathCollection_6">
    <g clip-path="url(#p66fca547fa)">
     <use style="fill:#ffffff;stroke:#414141;" x="576.382486" xlink:href="#m1cac400b7e" y="237.088996"/>
    </g>
   </g>
   <g id="PathCollection_7">
    <g clip-path="url(#p66fca547fa)">
     <use style="fill:#ffffff;stroke:#414141;" x="672.039629" xlink:href="#m1cac400b7e" y="237.77977"/>
    </g>
   </g>
   <g id="text_15">
    <!-- Accidents after the start of DST in California (20012016) -->
    <defs>
     <path d="M 17.625 46.4375 
L 17.625 0 
L 8.84375 0 
L 8.84375 46.4375 
L 1.421875 46.4375 
L 1.421875 52.828125 
L 8.84375 52.828125 
L 8.84375 58.796875 
Q 8.84375 61.671875 9.375 64.140625 
Q 9.90625 66.609375 11.34375 68.4375 
Q 12.796875 70.265625 15.28125 71.3125 
Q 17.78125 72.359375 21.734375 72.359375 
Q 23.296875 72.359375 24.96875 72.21875 
Q 26.65625 72.078125 27.9375 71.78125 
L 27.9375 65.09375 
Q 27.09375 65.234375 26 65.359375 
Q 24.90625 65.484375 24.03125 65.484375 
Q 22.078125 65.484375 20.828125 64.9375 
Q 19.578125 64.40625 18.875 63.40625 
Q 18.171875 62.40625 17.890625 60.9375 
Q 17.625 59.46875 17.625 57.5625 
L 17.625 52.828125 
L 27.9375 52.828125 
L 27.9375 46.4375 
z
" id="LiberationSans-66"/>
     <path d="M 38.671875 62.203125 
Q 32.8125 62.203125 28.296875 60.25 
Q 23.78125 58.296875 20.71875 54.6875 
Q 17.671875 51.078125 16.109375 46 
Q 14.546875 40.921875 14.546875 34.71875 
Q 14.546875 28.515625 16.234375 23.359375 
Q 17.921875 18.21875 21.0625 14.5 
Q 24.21875 10.796875 28.78125 8.734375 
Q 33.34375 6.6875 39.0625 6.6875 
Q 43.0625 6.6875 46.359375 7.734375 
Q 49.65625 8.796875 52.3125 10.6875 
Q 54.984375 12.59375 57.078125 15.203125 
Q 59.1875 17.828125 60.796875 21 
L 68.40625 17.1875 
Q 66.546875 13.328125 63.8125 10 
Q 61.078125 6.6875 57.390625 4.25 
Q 53.71875 1.8125 49.046875 0.40625 
Q 44.390625 -0.984375 38.625 -0.984375 
Q 30.28125 -0.984375 24 1.671875 
Q 17.71875 4.34375 13.5 9.109375 
Q 9.28125 13.875 7.171875 20.40625 
Q 5.078125 26.953125 5.078125 34.71875 
Q 5.078125 42.78125 7.296875 49.265625 
Q 9.515625 55.765625 13.78125 60.328125 
Q 18.0625 64.890625 24.3125 67.359375 
Q 30.5625 69.828125 38.578125 69.828125 
Q 49.5625 69.828125 56.9375 65.53125 
Q 64.3125 61.234375 67.78125 52.78125 
L 58.9375 49.859375 
Q 57.953125 52.296875 56.296875 54.515625 
Q 54.640625 56.734375 52.140625 58.4375 
Q 49.65625 60.15625 46.3125 61.171875 
Q 42.96875 62.203125 38.671875 62.203125 
z
" id="LiberationSans-43"/>
     <path d="M 6.734375 0 
L 6.734375 72.46875 
L 15.53125 72.46875 
L 15.53125 0 
z
" id="LiberationSans-6c"/>
     <path d="M 0 22.015625 
L 0 28.71875 
L 55.5625 28.71875 
L 55.5625 22.015625 
z
" id="LiberationSans-2013"/>
    </defs>
    <g style="fill:#262626;" transform="translate(54.8682 26.041875)scale(0.26 -0.26)">
     <use xlink:href="#LiberationSans-41"/>
     <use x="66.699219" xlink:href="#LiberationSans-63"/>
     <use x="116.699219" xlink:href="#LiberationSans-63"/>
     <use x="166.699219" xlink:href="#LiberationSans-69"/>
     <use x="188.916016" xlink:href="#LiberationSans-64"/>
     <use x="244.53125" xlink:href="#LiberationSans-65"/>
     <use x="300.146484" xlink:href="#LiberationSans-6e"/>
     <use x="355.761719" xlink:href="#LiberationSans-74"/>
     <use x="383.544922" xlink:href="#LiberationSans-73"/>
     <use x="433.544922" xlink:href="#LiberationSans-20"/>
     <use x="461.328125" xlink:href="#LiberationSans-61"/>
     <use x="516.943359" xlink:href="#LiberationSans-66"/>
     <use x="544.726562" xlink:href="#LiberationSans-74"/>
     <use x="572.509766" xlink:href="#LiberationSans-65"/>
     <use x="628.125" xlink:href="#LiberationSans-72"/>
     <use x="661.425781" xlink:href="#LiberationSans-20"/>
     <use x="689.208984" xlink:href="#LiberationSans-74"/>
     <use x="716.992188" xlink:href="#LiberationSans-68"/>
     <use x="772.607422" xlink:href="#LiberationSans-65"/>
     <use x="828.222656" xlink:href="#LiberationSans-20"/>
     <use x="856.005859" xlink:href="#LiberationSans-73"/>
     <use x="906.005859" xlink:href="#LiberationSans-74"/>
     <use x="933.789062" xlink:href="#LiberationSans-61"/>
     <use x="989.404297" xlink:href="#LiberationSans-72"/>
     <use x="1022.705078" xlink:href="#LiberationSans-74"/>
     <use x="1050.488281" xlink:href="#LiberationSans-20"/>
     <use x="1078.271484" xlink:href="#LiberationSans-6f"/>
     <use x="1133.886719" xlink:href="#LiberationSans-66"/>
     <use x="1161.669922" xlink:href="#LiberationSans-20"/>
     <use x="1189.453125" xlink:href="#LiberationSans-44"/>
     <use x="1261.669922" xlink:href="#LiberationSans-53"/>
     <use x="1328.369141" xlink:href="#LiberationSans-54"/>
     <use x="1389.4375" xlink:href="#LiberationSans-20"/>
     <use x="1417.220703" xlink:href="#LiberationSans-69"/>
     <use x="1439.4375" xlink:href="#LiberationSans-6e"/>
     <use x="1495.052734" xlink:href="#LiberationSans-20"/>
     <use x="1522.835938" xlink:href="#LiberationSans-43"/>
     <use x="1595.052734" xlink:href="#LiberationSans-61"/>
     <use x="1650.667969" xlink:href="#LiberationSans-6c"/>
     <use x="1672.884766" xlink:href="#LiberationSans-69"/>
     <use x="1695.101562" xlink:href="#LiberationSans-66"/>
     <use x="1722.884766" xlink:href="#LiberationSans-6f"/>
     <use x="1778.5" xlink:href="#LiberationSans-72"/>
     <use x="1811.800781" xlink:href="#LiberationSans-6e"/>
     <use x="1867.416016" xlink:href="#LiberationSans-69"/>
     <use x="1889.632812" xlink:href="#LiberationSans-61"/>
     <use x="1945.248047" xlink:href="#LiberationSans-20"/>
     <use x="1973.03125" xlink:href="#LiberationSans-28"/>
     <use x="2006.332031" xlink:href="#LiberationSans-32"/>
     <use x="2061.947266" xlink:href="#LiberationSans-30"/>
     <use x="2117.5625" xlink:href="#LiberationSans-30"/>
     <use x="2173.177734" xlink:href="#LiberationSans-31"/>
     <use x="2228.792969" xlink:href="#LiberationSans-2013"/>
     <use x="2284.408203" xlink:href="#LiberationSans-32"/>
     <use x="2340.023438" xlink:href="#LiberationSans-30"/>
     <use x="2395.638672" xlink:href="#LiberationSans-31"/>
     <use x="2451.253906" xlink:href="#LiberationSans-36"/>
     <use x="2506.869141" xlink:href="#LiberationSans-29"/>
    </g>
   </g>
  </g>
 </g>
 <defs>
  <clipPath id="p66fca547fa">
   <rect height="326.16" width="669.6" x="50.2682" y="41.826675"/>
  </clipPath>
 </defs>
</svg>
