<?xml version="1.0" encoding="utf-8" standalone="no"?>
<!DOCTYPE svg PUBLIC "-//W3C//DTD SVG 1.1//EN"
  "http://www.w3.org/Graphics/SVG/1.1/DTD/svg11.dtd">
<!-- Created with matplotlib (http://matplotlib.org/) -->
<svg height="391.910113pt" version="1.1" viewBox="0 0 726.7631 391.910113" width="726.7631pt" xmlns="http://www.w3.org/2000/svg" xmlns:xlink="http://www.w3.org/1999/xlink">
 <defs>
  <style type="text/css">
*{stroke-linecap:butt;stroke-linejoin:round;}
  </style>
 </defs>
 <g id="figure_1">
  <g id="patch_1">
   <path d="M 0 391.910113 
L 726.7631 391.910113 
L 726.7631 0 
L 0 0 
z
" style="fill:#ffffff;"/>
  </g>
  <g id="axes_1">
   <g id="patch_2">
    <path d="M 49.9631 368.071988 
L 719.5631 368.071988 
L 719.5631 41.911988 
L 49.9631 41.911988 
z
" style="fill:#ffffff;"/>
   </g>
   <g id="matplotlib.axis_1">
    <g id="xtick_1">
     <g id="text_1">
      <!-- Sunday (DST) -->
      <defs>
       <path d="M 4.5 23 
L 13.421875 23.78125 
Q 14.0625 18.40625 16.375 14.96875 
Q 18.703125 11.53125 23.578125 9.40625 
Q 28.46875 7.28125 34.578125 7.28125 
Q 39.984375 7.28125 44.140625 8.890625 
Q 48.296875 10.5 50.3125 13.296875 
Q 52.34375 16.109375 52.34375 19.4375 
Q 52.34375 22.796875 50.390625 25.3125 
Q 48.4375 27.828125 43.953125 29.546875 
Q 41.0625 30.671875 31.203125 33.03125 
Q 21.34375 35.40625 17.390625 37.5 
Q 12.25 40.1875 9.734375 44.15625 
Q 7.234375 48.140625 7.234375 53.078125 
Q 7.234375 58.5 10.296875 63.203125 
Q 13.375 67.921875 19.28125 70.359375 
Q 25.203125 72.796875 32.421875 72.796875 
Q 40.375 72.796875 46.453125 70.234375 
Q 52.546875 67.671875 55.8125 62.6875 
Q 59.078125 57.71875 59.328125 51.421875 
L 50.25 50.734375 
Q 49.515625 57.515625 45.28125 60.984375 
Q 41.0625 64.453125 32.8125 64.453125 
Q 24.21875 64.453125 20.28125 61.296875 
Q 16.359375 58.15625 16.359375 53.71875 
Q 16.359375 49.859375 19.140625 47.359375 
Q 21.875 44.875 33.421875 42.265625 
Q 44.96875 39.65625 49.265625 37.703125 
Q 55.515625 34.8125 58.484375 30.390625 
Q 61.46875 25.984375 61.46875 20.21875 
Q 61.46875 14.5 58.203125 9.4375 
Q 54.9375 4.390625 48.796875 1.578125 
Q 42.671875 -1.21875 35.015625 -1.21875 
Q 25.296875 -1.21875 18.71875 1.609375 
Q 12.15625 4.4375 8.421875 10.125 
Q 4.6875 15.828125 4.5 23 
z
" id="ArialMT-53"/>
       <path d="M 40.578125 0 
L 40.578125 7.625 
Q 34.515625 -1.171875 24.125 -1.171875 
Q 19.53125 -1.171875 15.546875 0.578125 
Q 11.578125 2.34375 9.640625 5 
Q 7.71875 7.671875 6.9375 11.53125 
Q 6.390625 14.109375 6.390625 19.734375 
L 6.390625 51.859375 
L 15.1875 51.859375 
L 15.1875 23.09375 
Q 15.1875 16.21875 15.71875 13.8125 
Q 16.546875 10.359375 19.234375 8.375 
Q 21.921875 6.390625 25.875 6.390625 
Q 29.828125 6.390625 33.296875 8.421875 
Q 36.765625 10.453125 38.203125 13.9375 
Q 39.65625 17.4375 39.65625 24.078125 
L 39.65625 51.859375 
L 48.4375 51.859375 
L 48.4375 0 
z
" id="ArialMT-75"/>
       <path d="M 6.59375 0 
L 6.59375 51.859375 
L 14.5 51.859375 
L 14.5 44.484375 
Q 20.21875 53.03125 31 53.03125 
Q 35.6875 53.03125 39.625 51.34375 
Q 43.5625 49.65625 45.515625 46.921875 
Q 47.46875 44.1875 48.25 40.4375 
Q 48.734375 37.984375 48.734375 31.890625 
L 48.734375 0 
L 39.9375 0 
L 39.9375 31.546875 
Q 39.9375 36.921875 38.90625 39.578125 
Q 37.890625 42.234375 35.28125 43.8125 
Q 32.671875 45.40625 29.15625 45.40625 
Q 23.53125 45.40625 19.453125 41.84375 
Q 15.375 38.28125 15.375 28.328125 
L 15.375 0 
z
" id="ArialMT-6e"/>
       <path d="M 40.234375 0 
L 40.234375 6.546875 
Q 35.296875 -1.171875 25.734375 -1.171875 
Q 19.53125 -1.171875 14.328125 2.25 
Q 9.125 5.671875 6.265625 11.796875 
Q 3.421875 17.921875 3.421875 25.875 
Q 3.421875 33.640625 6 39.96875 
Q 8.59375 46.296875 13.765625 49.65625 
Q 18.953125 53.03125 25.34375 53.03125 
Q 30.03125 53.03125 33.6875 51.046875 
Q 37.359375 49.078125 39.65625 45.90625 
L 39.65625 71.578125 
L 48.390625 71.578125 
L 48.390625 0 
z
M 12.453125 25.875 
Q 12.453125 15.921875 16.640625 10.984375 
Q 20.84375 6.0625 26.5625 6.0625 
Q 32.328125 6.0625 36.34375 10.765625 
Q 40.375 15.484375 40.375 25.140625 
Q 40.375 35.796875 36.265625 40.765625 
Q 32.171875 45.75 26.171875 45.75 
Q 20.3125 45.75 16.375 40.96875 
Q 12.453125 36.1875 12.453125 25.875 
z
" id="ArialMT-64"/>
       <path d="M 40.4375 6.390625 
Q 35.546875 2.25 31.03125 0.53125 
Q 26.515625 -1.171875 21.34375 -1.171875 
Q 12.796875 -1.171875 8.203125 3 
Q 3.609375 7.171875 3.609375 13.671875 
Q 3.609375 17.484375 5.34375 20.625 
Q 7.078125 23.78125 9.890625 25.6875 
Q 12.703125 27.59375 16.21875 28.5625 
Q 18.796875 29.25 24.03125 29.890625 
Q 34.671875 31.15625 39.703125 32.90625 
Q 39.75 34.71875 39.75 35.203125 
Q 39.75 40.578125 37.25 42.78125 
Q 33.890625 45.75 27.25 45.75 
Q 21.046875 45.75 18.09375 43.578125 
Q 15.140625 41.40625 13.71875 35.890625 
L 5.125 37.0625 
Q 6.296875 42.578125 8.984375 45.96875 
Q 11.671875 49.359375 16.75 51.1875 
Q 21.828125 53.03125 28.515625 53.03125 
Q 35.15625 53.03125 39.296875 51.46875 
Q 43.453125 49.90625 45.40625 47.53125 
Q 47.359375 45.171875 48.140625 41.546875 
Q 48.578125 39.3125 48.578125 33.453125 
L 48.578125 21.734375 
Q 48.578125 9.46875 49.140625 6.21875 
Q 49.703125 2.984375 51.375 0 
L 42.1875 0 
Q 40.828125 2.734375 40.4375 6.390625 
z
M 39.703125 26.03125 
Q 34.90625 24.078125 25.34375 22.703125 
Q 19.921875 21.921875 17.671875 20.9375 
Q 15.4375 19.96875 14.203125 18.09375 
Q 12.984375 16.21875 12.984375 13.921875 
Q 12.984375 10.40625 15.640625 8.0625 
Q 18.3125 5.71875 23.4375 5.71875 
Q 28.515625 5.71875 32.46875 7.9375 
Q 36.421875 10.15625 38.28125 14.015625 
Q 39.703125 17 39.703125 22.796875 
z
" id="ArialMT-61"/>
       <path d="M 6.203125 -19.96875 
L 5.21875 -11.71875 
Q 8.109375 -12.5 10.25 -12.5 
Q 13.1875 -12.5 14.9375 -11.515625 
Q 16.703125 -10.546875 17.828125 -8.796875 
Q 18.65625 -7.46875 20.515625 -2.25 
Q 20.75 -1.515625 21.296875 -0.09375 
L 1.609375 51.859375 
L 11.078125 51.859375 
L 21.875 21.828125 
Q 23.96875 16.109375 25.640625 9.8125 
Q 27.15625 15.875 29.25 21.625 
L 40.328125 51.859375 
L 49.125 51.859375 
L 29.390625 -0.875 
Q 26.21875 -9.421875 24.46875 -12.640625 
Q 22.125 -17 19.09375 -19.015625 
Q 16.0625 -21.046875 11.859375 -21.046875 
Q 9.328125 -21.046875 6.203125 -19.96875 
z
" id="ArialMT-79"/>
       <path id="ArialMT-20"/>
       <path d="M 23.390625 -21.046875 
Q 16.109375 -11.859375 11.078125 0.4375 
Q 6.0625 12.75 6.0625 25.921875 
Q 6.0625 37.546875 9.8125 48.1875 
Q 14.203125 60.546875 23.390625 72.796875 
L 29.6875 72.796875 
Q 23.78125 62.640625 21.875 58.296875 
Q 18.890625 51.5625 17.1875 44.234375 
Q 15.09375 35.109375 15.09375 25.875 
Q 15.09375 2.390625 29.6875 -21.046875 
z
" id="ArialMT-28"/>
       <path d="M 7.71875 0 
L 7.71875 71.578125 
L 32.375 71.578125 
Q 40.71875 71.578125 45.125 70.5625 
Q 51.265625 69.140625 55.609375 65.4375 
Q 61.28125 60.640625 64.078125 53.1875 
Q 66.890625 45.75 66.890625 36.1875 
Q 66.890625 28.03125 64.984375 21.734375 
Q 63.09375 15.4375 60.109375 11.296875 
Q 57.125 7.171875 53.578125 4.796875 
Q 50.046875 2.4375 45.046875 1.21875 
Q 40.046875 0 33.546875 0 
z
M 17.1875 8.453125 
L 32.46875 8.453125 
Q 39.546875 8.453125 43.578125 9.765625 
Q 47.609375 11.078125 50 13.484375 
Q 53.375 16.84375 55.25 22.53125 
Q 57.125 28.21875 57.125 36.328125 
Q 57.125 47.5625 53.4375 53.59375 
Q 49.75 59.625 44.484375 61.671875 
Q 40.671875 63.140625 32.234375 63.140625 
L 17.1875 63.140625 
z
" id="ArialMT-44"/>
       <path d="M 25.921875 0 
L 25.921875 63.140625 
L 2.34375 63.140625 
L 2.34375 71.578125 
L 59.078125 71.578125 
L 59.078125 63.140625 
L 35.40625 63.140625 
L 35.40625 0 
z
" id="ArialMT-54"/>
       <path d="M 12.359375 -21.046875 
L 6.0625 -21.046875 
Q 20.65625 2.390625 20.65625 25.875 
Q 20.65625 35.0625 18.5625 44.09375 
Q 16.890625 51.421875 13.921875 58.15625 
Q 12.015625 62.546875 6.0625 72.796875 
L 12.359375 72.796875 
Q 21.53125 60.546875 25.921875 48.1875 
Q 29.6875 37.546875 29.6875 25.921875 
Q 29.6875 12.75 24.625 0.4375 
Q 19.578125 -11.859375 12.359375 -21.046875 
z
" id="ArialMT-29"/>
      </defs>
      <g style="fill:#262626;" transform="translate(53.445578 381.76355)scale(0.14 -0.14)">
       <use xlink:href="#ArialMT-53"/>
       <use x="66.699219" xlink:href="#ArialMT-75"/>
       <use x="122.314453" xlink:href="#ArialMT-6e"/>
       <use x="177.929688" xlink:href="#ArialMT-64"/>
       <use x="233.544922" xlink:href="#ArialMT-61"/>
       <use x="289.160156" xlink:href="#ArialMT-79"/>
       <use x="339.160156" xlink:href="#ArialMT-20"/>
       <use x="366.943359" xlink:href="#ArialMT-28"/>
       <use x="400.244141" xlink:href="#ArialMT-44"/>
       <use x="472.460938" xlink:href="#ArialMT-53"/>
       <use x="539.160156" xlink:href="#ArialMT-54"/>
       <use x="600.244141" xlink:href="#ArialMT-29"/>
      </g>
     </g>
    </g>
    <g id="xtick_2">
     <g id="text_2">
      <!-- Monday -->
      <defs>
       <path d="M 7.421875 0 
L 7.421875 71.578125 
L 21.6875 71.578125 
L 38.625 20.90625 
Q 40.96875 13.8125 42.046875 10.296875 
Q 43.265625 14.203125 45.84375 21.78125 
L 62.984375 71.578125 
L 75.734375 71.578125 
L 75.734375 0 
L 66.609375 0 
L 66.609375 59.90625 
L 45.796875 0 
L 37.25 0 
L 16.546875 60.9375 
L 16.546875 0 
z
" id="ArialMT-4d"/>
       <path d="M 3.328125 25.921875 
Q 3.328125 40.328125 11.328125 47.265625 
Q 18.015625 53.03125 27.640625 53.03125 
Q 38.328125 53.03125 45.109375 46.015625 
Q 51.90625 39.015625 51.90625 26.65625 
Q 51.90625 16.65625 48.90625 10.90625 
Q 45.90625 5.171875 40.15625 2 
Q 34.421875 -1.171875 27.640625 -1.171875 
Q 16.75 -1.171875 10.03125 5.8125 
Q 3.328125 12.796875 3.328125 25.921875 
z
M 12.359375 25.921875 
Q 12.359375 15.96875 16.703125 11.015625 
Q 21.046875 6.0625 27.640625 6.0625 
Q 34.1875 6.0625 38.53125 11.03125 
Q 42.875 16.015625 42.875 26.21875 
Q 42.875 35.84375 38.5 40.796875 
Q 34.125 45.75 27.640625 45.75 
Q 21.046875 45.75 16.703125 40.8125 
Q 12.359375 35.890625 12.359375 25.921875 
z
" id="ArialMT-6f"/>
      </defs>
      <g style="fill:#262626;" transform="translate(168.547408 381.592925)scale(0.14 -0.14)">
       <use xlink:href="#ArialMT-4d"/>
       <use x="83.300781" xlink:href="#ArialMT-6f"/>
       <use x="138.916016" xlink:href="#ArialMT-6e"/>
       <use x="194.53125" xlink:href="#ArialMT-64"/>
       <use x="250.146484" xlink:href="#ArialMT-61"/>
       <use x="305.761719" xlink:href="#ArialMT-79"/>
      </g>
     </g>
    </g>
    <g id="xtick_3">
     <g id="text_3">
      <!-- Tuesday -->
      <defs>
       <path d="M 42.09375 16.703125 
L 51.171875 15.578125 
Q 49.03125 7.625 43.21875 3.21875 
Q 37.40625 -1.171875 28.375 -1.171875 
Q 17 -1.171875 10.328125 5.828125 
Q 3.65625 12.84375 3.65625 25.484375 
Q 3.65625 38.578125 10.390625 45.796875 
Q 17.140625 53.03125 27.875 53.03125 
Q 38.28125 53.03125 44.875 45.953125 
Q 51.46875 38.875 51.46875 26.03125 
Q 51.46875 25.25 51.421875 23.6875 
L 12.75 23.6875 
Q 13.234375 15.140625 17.578125 10.59375 
Q 21.921875 6.0625 28.421875 6.0625 
Q 33.25 6.0625 36.671875 8.59375 
Q 40.09375 11.140625 42.09375 16.703125 
z
M 13.234375 30.90625 
L 42.1875 30.90625 
Q 41.609375 37.453125 38.875 40.71875 
Q 34.671875 45.796875 27.984375 45.796875 
Q 21.921875 45.796875 17.796875 41.75 
Q 13.671875 37.703125 13.234375 30.90625 
z
" id="ArialMT-65"/>
       <path d="M 3.078125 15.484375 
L 11.765625 16.84375 
Q 12.5 11.625 15.84375 8.84375 
Q 19.1875 6.0625 25.203125 6.0625 
Q 31.25 6.0625 34.171875 8.515625 
Q 37.109375 10.984375 37.109375 14.3125 
Q 37.109375 17.28125 34.515625 19 
Q 32.71875 20.171875 25.53125 21.96875 
Q 15.875 24.421875 12.140625 26.203125 
Q 8.40625 27.984375 6.46875 31.125 
Q 4.546875 34.28125 4.546875 38.09375 
Q 4.546875 41.546875 6.125 44.5 
Q 7.71875 47.46875 10.453125 49.421875 
Q 12.5 50.921875 16.03125 51.96875 
Q 19.578125 53.03125 23.640625 53.03125 
Q 29.734375 53.03125 34.34375 51.265625 
Q 38.96875 49.515625 41.15625 46.5 
Q 43.359375 43.5 44.1875 38.484375 
L 35.59375 37.3125 
Q 35.015625 41.3125 32.203125 43.546875 
Q 29.390625 45.796875 24.265625 45.796875 
Q 18.21875 45.796875 15.625 43.796875 
Q 13.03125 41.796875 13.03125 39.109375 
Q 13.03125 37.40625 14.109375 36.03125 
Q 15.1875 34.625 17.484375 33.6875 
Q 18.796875 33.203125 25.25 31.453125 
Q 34.578125 28.953125 38.25 27.359375 
Q 41.9375 25.78125 44.03125 22.75 
Q 46.140625 19.734375 46.140625 15.234375 
Q 46.140625 10.84375 43.578125 6.953125 
Q 41.015625 3.078125 36.171875 0.953125 
Q 31.34375 -1.171875 25.25 -1.171875 
Q 15.140625 -1.171875 9.84375 3.03125 
Q 4.546875 7.234375 3.078125 15.484375 
z
" id="ArialMT-73"/>
      </defs>
      <g style="fill:#262626;" transform="translate(262.263145 381.592925)scale(0.14 -0.14)">
       <use xlink:href="#ArialMT-54"/>
       <use x="61.037109" xlink:href="#ArialMT-75"/>
       <use x="116.652344" xlink:href="#ArialMT-65"/>
       <use x="172.267578" xlink:href="#ArialMT-73"/>
       <use x="222.267578" xlink:href="#ArialMT-64"/>
       <use x="277.882812" xlink:href="#ArialMT-61"/>
       <use x="333.498047" xlink:href="#ArialMT-79"/>
      </g>
     </g>
    </g>
    <g id="xtick_4">
     <g id="text_4">
      <!-- Wednesday -->
      <defs>
       <path d="M 20.21875 0 
L 1.21875 71.578125 
L 10.9375 71.578125 
L 21.828125 24.65625 
Q 23.578125 17.28125 24.859375 10.015625 
Q 27.59375 21.484375 28.078125 23.25 
L 41.703125 71.578125 
L 53.125 71.578125 
L 63.375 35.359375 
Q 67.234375 21.875 68.953125 10.015625 
Q 70.3125 16.796875 72.515625 25.59375 
L 83.734375 71.578125 
L 93.265625 71.578125 
L 73.640625 0 
L 64.5 0 
L 49.421875 54.546875 
Q 47.515625 61.375 47.171875 62.9375 
Q 46.046875 58.015625 45.0625 54.546875 
L 29.890625 0 
z
" id="ArialMT-57"/>
      </defs>
      <g style="fill:#262626;" transform="translate(347.800912 381.592925)scale(0.14 -0.14)">
       <use xlink:href="#ArialMT-57"/>
       <use x="94.369141" xlink:href="#ArialMT-65"/>
       <use x="149.984375" xlink:href="#ArialMT-64"/>
       <use x="205.599609" xlink:href="#ArialMT-6e"/>
       <use x="261.214844" xlink:href="#ArialMT-65"/>
       <use x="316.830078" xlink:href="#ArialMT-73"/>
       <use x="366.830078" xlink:href="#ArialMT-64"/>
       <use x="422.445312" xlink:href="#ArialMT-61"/>
       <use x="478.060547" xlink:href="#ArialMT-79"/>
      </g>
     </g>
    </g>
    <g id="xtick_5">
     <g id="text_5">
      <!-- Thursday -->
      <defs>
       <path d="M 6.59375 0 
L 6.59375 71.578125 
L 15.375 71.578125 
L 15.375 45.90625 
Q 21.53125 53.03125 30.90625 53.03125 
Q 36.671875 53.03125 40.921875 50.75 
Q 45.171875 48.484375 47 44.484375 
Q 48.828125 40.484375 48.828125 32.859375 
L 48.828125 0 
L 40.046875 0 
L 40.046875 32.859375 
Q 40.046875 39.453125 37.1875 42.453125 
Q 34.328125 45.453125 29.109375 45.453125 
Q 25.203125 45.453125 21.75 43.421875 
Q 18.3125 41.40625 16.84375 37.9375 
Q 15.375 34.46875 15.375 28.375 
L 15.375 0 
z
" id="ArialMT-68"/>
       <path d="M 6.5 0 
L 6.5 51.859375 
L 14.40625 51.859375 
L 14.40625 44 
Q 17.4375 49.515625 20 51.265625 
Q 22.5625 53.03125 25.640625 53.03125 
Q 30.078125 53.03125 34.671875 50.203125 
L 31.640625 42.046875 
Q 28.421875 43.953125 25.203125 43.953125 
Q 22.3125 43.953125 20.015625 42.21875 
Q 17.71875 40.484375 16.75 37.40625 
Q 15.28125 32.71875 15.28125 27.15625 
L 15.28125 0 
z
" id="ArialMT-72"/>
      </defs>
      <g style="fill:#262626;" transform="translate(451.243368 381.592925)scale(0.14 -0.14)">
       <use xlink:href="#ArialMT-54"/>
       <use x="61.083984" xlink:href="#ArialMT-68"/>
       <use x="116.699219" xlink:href="#ArialMT-75"/>
       <use x="172.314453" xlink:href="#ArialMT-72"/>
       <use x="205.615234" xlink:href="#ArialMT-73"/>
       <use x="255.615234" xlink:href="#ArialMT-64"/>
       <use x="311.230469" xlink:href="#ArialMT-61"/>
       <use x="366.845703" xlink:href="#ArialMT-79"/>
      </g>
     </g>
    </g>
    <g id="xtick_6">
     <g id="text_6">
      <!-- Friday -->
      <defs>
       <path d="M 8.203125 0 
L 8.203125 71.578125 
L 56.5 71.578125 
L 56.5 63.140625 
L 17.671875 63.140625 
L 17.671875 40.96875 
L 51.265625 40.96875 
L 51.265625 32.515625 
L 17.671875 32.515625 
L 17.671875 0 
z
" id="ArialMT-46"/>
       <path d="M 6.640625 61.46875 
L 6.640625 71.578125 
L 15.4375 71.578125 
L 15.4375 61.46875 
z
M 6.640625 0 
L 6.640625 51.859375 
L 15.4375 51.859375 
L 15.4375 0 
z
" id="ArialMT-69"/>
      </defs>
      <g style="fill:#262626;" transform="translate(556.630511 381.592925)scale(0.14 -0.14)">
       <use xlink:href="#ArialMT-46"/>
       <use x="61.083984" xlink:href="#ArialMT-72"/>
       <use x="94.384766" xlink:href="#ArialMT-69"/>
       <use x="116.601562" xlink:href="#ArialMT-64"/>
       <use x="172.216797" xlink:href="#ArialMT-61"/>
       <use x="227.832031" xlink:href="#ArialMT-79"/>
      </g>
     </g>
    </g>
    <g id="xtick_7">
     <g id="text_7">
      <!-- Saturday -->
      <defs>
       <path d="M 25.78125 7.859375 
L 27.046875 0.09375 
Q 23.34375 -0.6875 20.40625 -0.6875 
Q 15.625 -0.6875 12.984375 0.828125 
Q 10.359375 2.34375 9.28125 4.8125 
Q 8.203125 7.28125 8.203125 15.1875 
L 8.203125 45.015625 
L 1.765625 45.015625 
L 1.765625 51.859375 
L 8.203125 51.859375 
L 8.203125 64.703125 
L 16.9375 69.96875 
L 16.9375 51.859375 
L 25.78125 51.859375 
L 25.78125 45.015625 
L 16.9375 45.015625 
L 16.9375 14.703125 
Q 16.9375 10.9375 17.40625 9.859375 
Q 17.875 8.796875 18.921875 8.15625 
Q 19.96875 7.515625 21.921875 7.515625 
Q 23.390625 7.515625 25.78125 7.859375 
z
" id="ArialMT-74"/>
      </defs>
      <g style="fill:#262626;" transform="translate(643.719216 381.76355)scale(0.14 -0.14)">
       <use xlink:href="#ArialMT-53"/>
       <use x="66.699219" xlink:href="#ArialMT-61"/>
       <use x="122.314453" xlink:href="#ArialMT-74"/>
       <use x="150.097656" xlink:href="#ArialMT-75"/>
       <use x="205.712891" xlink:href="#ArialMT-72"/>
       <use x="239.013672" xlink:href="#ArialMT-64"/>
       <use x="294.628906" xlink:href="#ArialMT-61"/>
       <use x="350.244141" xlink:href="#ArialMT-79"/>
      </g>
     </g>
    </g>
   </g>
   <g id="matplotlib.axis_2">
    <g id="ytick_1">
     <g id="text_8">
      <!-- 0.6 -->
      <defs>
       <path d="M 4.15625 35.296875 
Q 4.15625 48 6.765625 55.734375 
Q 9.375 63.484375 14.515625 67.671875 
Q 19.671875 71.875 27.484375 71.875 
Q 33.25 71.875 37.59375 69.546875 
Q 41.9375 67.234375 44.765625 62.859375 
Q 47.609375 58.5 49.21875 52.21875 
Q 50.828125 45.953125 50.828125 35.296875 
Q 50.828125 22.703125 48.234375 14.96875 
Q 45.65625 7.234375 40.5 3 
Q 35.359375 -1.21875 27.484375 -1.21875 
Q 17.140625 -1.21875 11.234375 6.203125 
Q 4.15625 15.140625 4.15625 35.296875 
z
M 13.1875 35.296875 
Q 13.1875 17.671875 17.3125 11.828125 
Q 21.4375 6 27.484375 6 
Q 33.546875 6 37.671875 11.859375 
Q 41.796875 17.71875 41.796875 35.296875 
Q 41.796875 52.984375 37.671875 58.78125 
Q 33.546875 64.59375 27.390625 64.59375 
Q 21.34375 64.59375 17.71875 59.46875 
Q 13.1875 52.9375 13.1875 35.296875 
z
" id="ArialMT-30"/>
       <path d="M 9.078125 0 
L 9.078125 10.015625 
L 19.09375 10.015625 
L 19.09375 0 
z
" id="ArialMT-2e"/>
       <path d="M 49.75 54.046875 
L 41.015625 53.375 
Q 39.84375 58.546875 37.703125 60.890625 
Q 34.125 64.65625 28.90625 64.65625 
Q 24.703125 64.65625 21.53125 62.3125 
Q 17.390625 59.28125 14.984375 53.46875 
Q 12.59375 47.65625 12.5 36.921875 
Q 15.671875 41.75 20.265625 44.09375 
Q 24.859375 46.4375 29.890625 46.4375 
Q 38.671875 46.4375 44.84375 39.96875 
Q 51.03125 33.5 51.03125 23.25 
Q 51.03125 16.5 48.125 10.71875 
Q 45.21875 4.9375 40.140625 1.859375 
Q 35.0625 -1.21875 28.609375 -1.21875 
Q 17.625 -1.21875 10.6875 6.859375 
Q 3.765625 14.9375 3.765625 33.5 
Q 3.765625 54.25 11.421875 63.671875 
Q 18.109375 71.875 29.4375 71.875 
Q 37.890625 71.875 43.28125 67.140625 
Q 48.6875 62.40625 49.75 54.046875 
z
M 13.875 23.1875 
Q 13.875 18.65625 15.796875 14.5 
Q 17.71875 10.359375 21.1875 8.171875 
Q 24.65625 6 28.46875 6 
Q 34.03125 6 38.03125 10.484375 
Q 42.046875 14.984375 42.046875 22.703125 
Q 42.046875 30.125 38.078125 34.390625 
Q 34.125 38.671875 28.125 38.671875 
Q 22.171875 38.671875 18.015625 34.390625 
Q 13.875 30.125 13.875 23.1875 
z
" id="ArialMT-36"/>
      </defs>
      <g style="fill:#262626;" transform="translate(27.0031 373.082456)scale(0.14 -0.14)">
       <use xlink:href="#ArialMT-30"/>
       <use x="55.615234" xlink:href="#ArialMT-2e"/>
       <use x="83.398438" xlink:href="#ArialMT-36"/>
      </g>
     </g>
    </g>
    <g id="ytick_2">
     <g id="text_9">
      <!-- 0.8 -->
      <defs>
       <path d="M 17.671875 38.8125 
Q 12.203125 40.828125 9.5625 44.53125 
Q 6.9375 48.25 6.9375 53.421875 
Q 6.9375 61.234375 12.546875 66.546875 
Q 18.171875 71.875 27.484375 71.875 
Q 36.859375 71.875 42.578125 66.421875 
Q 48.296875 60.984375 48.296875 53.171875 
Q 48.296875 48.1875 45.671875 44.5 
Q 43.0625 40.828125 37.75 38.8125 
Q 44.34375 36.671875 47.78125 31.875 
Q 51.21875 27.09375 51.21875 20.453125 
Q 51.21875 11.28125 44.71875 5.03125 
Q 38.234375 -1.21875 27.640625 -1.21875 
Q 17.046875 -1.21875 10.546875 5.046875 
Q 4.046875 11.328125 4.046875 20.703125 
Q 4.046875 27.6875 7.59375 32.390625 
Q 11.140625 37.109375 17.671875 38.8125 
z
M 15.921875 53.71875 
Q 15.921875 48.640625 19.1875 45.40625 
Q 22.46875 42.1875 27.6875 42.1875 
Q 32.765625 42.1875 36.015625 45.375 
Q 39.265625 48.578125 39.265625 53.21875 
Q 39.265625 58.0625 35.90625 61.359375 
Q 32.5625 64.65625 27.59375 64.65625 
Q 22.5625 64.65625 19.234375 61.421875 
Q 15.921875 58.203125 15.921875 53.71875 
z
M 13.09375 20.65625 
Q 13.09375 16.890625 14.875 13.375 
Q 16.65625 9.859375 20.171875 7.921875 
Q 23.6875 6 27.734375 6 
Q 34.03125 6 38.125 10.046875 
Q 42.234375 14.109375 42.234375 20.359375 
Q 42.234375 26.703125 38.015625 30.859375 
Q 33.796875 35.015625 27.4375 35.015625 
Q 21.234375 35.015625 17.15625 30.90625 
Q 13.09375 26.8125 13.09375 20.65625 
z
" id="ArialMT-38"/>
      </defs>
      <g style="fill:#262626;" transform="translate(27.0031 307.850456)scale(0.14 -0.14)">
       <use xlink:href="#ArialMT-30"/>
       <use x="55.615234" xlink:href="#ArialMT-2e"/>
       <use x="83.398438" xlink:href="#ArialMT-38"/>
      </g>
     </g>
    </g>
    <g id="ytick_3">
     <g id="text_10">
      <!-- 1.0 -->
      <defs>
       <path d="M 37.25 0 
L 28.46875 0 
L 28.46875 56 
Q 25.296875 52.984375 20.140625 49.953125 
Q 14.984375 46.921875 10.890625 45.40625 
L 10.890625 53.90625 
Q 18.265625 57.375 23.78125 62.296875 
Q 29.296875 67.234375 31.59375 71.875 
L 37.25 71.875 
z
" id="ArialMT-31"/>
      </defs>
      <g style="fill:#262626;" transform="translate(27.0031 242.618456)scale(0.14 -0.14)">
       <use xlink:href="#ArialMT-31"/>
       <use x="55.615234" xlink:href="#ArialMT-2e"/>
       <use x="83.398438" xlink:href="#ArialMT-30"/>
      </g>
     </g>
    </g>
    <g id="ytick_4">
     <g id="text_11">
      <!-- 1.2 -->
      <defs>
       <path d="M 50.34375 8.453125 
L 50.34375 0 
L 3.03125 0 
Q 2.9375 3.171875 4.046875 6.109375 
Q 5.859375 10.9375 9.828125 15.625 
Q 13.8125 20.3125 21.34375 26.46875 
Q 33.015625 36.03125 37.109375 41.625 
Q 41.21875 47.21875 41.21875 52.203125 
Q 41.21875 57.421875 37.46875 61 
Q 33.734375 64.59375 27.734375 64.59375 
Q 21.390625 64.59375 17.578125 60.78125 
Q 13.765625 56.984375 13.71875 50.25 
L 4.6875 51.171875 
Q 5.609375 61.28125 11.65625 66.578125 
Q 17.71875 71.875 27.9375 71.875 
Q 38.234375 71.875 44.234375 66.15625 
Q 50.25 60.453125 50.25 52 
Q 50.25 47.703125 48.484375 43.546875 
Q 46.734375 39.40625 42.65625 34.8125 
Q 38.578125 30.21875 29.109375 22.21875 
Q 21.1875 15.578125 18.9375 13.203125 
Q 16.703125 10.84375 15.234375 8.453125 
z
" id="ArialMT-32"/>
      </defs>
      <g style="fill:#262626;" transform="translate(27.0031 177.386456)scale(0.14 -0.14)">
       <use xlink:href="#ArialMT-31"/>
       <use x="55.615234" xlink:href="#ArialMT-2e"/>
       <use x="83.398438" xlink:href="#ArialMT-32"/>
      </g>
     </g>
    </g>
    <g id="ytick_5">
     <g id="text_12">
      <!-- 1.4 -->
      <defs>
       <path d="M 32.328125 0 
L 32.328125 17.140625 
L 1.265625 17.140625 
L 1.265625 25.203125 
L 33.9375 71.578125 
L 41.109375 71.578125 
L 41.109375 25.203125 
L 50.78125 25.203125 
L 50.78125 17.140625 
L 41.109375 17.140625 
L 41.109375 0 
z
M 32.328125 25.203125 
L 32.328125 57.46875 
L 9.90625 25.203125 
z
" id="ArialMT-34"/>
      </defs>
      <g style="fill:#262626;" transform="translate(27.0031 112.154456)scale(0.14 -0.14)">
       <use xlink:href="#ArialMT-31"/>
       <use x="55.615234" xlink:href="#ArialMT-2e"/>
       <use x="83.398438" xlink:href="#ArialMT-34"/>
      </g>
     </g>
    </g>
    <g id="ytick_6">
     <g id="text_13">
      <!-- 1.6 -->
      <g style="fill:#262626;" transform="translate(27.0031 46.922456)scale(0.14 -0.14)">
       <use xlink:href="#ArialMT-31"/>
       <use x="55.615234" xlink:href="#ArialMT-2e"/>
       <use x="83.398438" xlink:href="#ArialMT-36"/>
      </g>
     </g>
    </g>
    <g id="text_14">
     <!-- Accident Ratio: Two Week / Three Weeks -->
     <defs>
      <path d="M -0.140625 0 
L 27.34375 71.578125 
L 37.546875 71.578125 
L 66.84375 0 
L 56.0625 0 
L 47.703125 21.6875 
L 17.78125 21.6875 
L 9.90625 0 
z
M 20.515625 29.390625 
L 44.78125 29.390625 
L 37.3125 49.21875 
Q 33.890625 58.25 32.234375 64.0625 
Q 30.859375 57.171875 28.375 50.390625 
z
" id="ArialMT-41"/>
      <path d="M 40.4375 19 
L 49.078125 17.875 
Q 47.65625 8.9375 41.8125 3.875 
Q 35.984375 -1.171875 27.484375 -1.171875 
Q 16.84375 -1.171875 10.375 5.78125 
Q 3.90625 12.75 3.90625 25.734375 
Q 3.90625 34.125 6.6875 40.421875 
Q 9.46875 46.734375 15.15625 49.875 
Q 20.84375 53.03125 27.546875 53.03125 
Q 35.984375 53.03125 41.359375 48.75 
Q 46.734375 44.484375 48.25 36.625 
L 39.703125 35.296875 
Q 38.484375 40.53125 35.375 43.15625 
Q 32.28125 45.796875 27.875 45.796875 
Q 21.234375 45.796875 17.078125 41.03125 
Q 12.9375 36.28125 12.9375 25.984375 
Q 12.9375 15.53125 16.9375 10.796875 
Q 20.953125 6.0625 27.390625 6.0625 
Q 32.5625 6.0625 36.03125 9.234375 
Q 39.5 12.40625 40.4375 19 
z
" id="ArialMT-63"/>
      <path d="M 7.859375 0 
L 7.859375 71.578125 
L 39.59375 71.578125 
Q 49.171875 71.578125 54.140625 69.640625 
Q 59.125 67.71875 62.109375 62.828125 
Q 65.09375 57.953125 65.09375 52.046875 
Q 65.09375 44.4375 60.15625 39.203125 
Q 55.21875 33.984375 44.921875 32.5625 
Q 48.6875 30.765625 50.640625 29 
Q 54.78125 25.203125 58.5 19.484375 
L 70.953125 0 
L 59.03125 0 
L 49.5625 14.890625 
Q 45.40625 21.34375 42.71875 24.75 
Q 40.046875 28.171875 37.921875 29.53125 
Q 35.796875 30.90625 33.59375 31.453125 
Q 31.984375 31.78125 28.328125 31.78125 
L 17.328125 31.78125 
L 17.328125 0 
z
M 17.328125 39.984375 
L 37.703125 39.984375 
Q 44.1875 39.984375 47.84375 41.328125 
Q 51.515625 42.671875 53.421875 45.625 
Q 55.328125 48.578125 55.328125 52.046875 
Q 55.328125 57.125 51.640625 60.390625 
Q 47.953125 63.671875 39.984375 63.671875 
L 17.328125 63.671875 
z
" id="ArialMT-52"/>
      <path d="M 9.03125 41.84375 
L 9.03125 51.859375 
L 19.046875 51.859375 
L 19.046875 41.84375 
z
M 9.03125 0 
L 9.03125 10.015625 
L 19.046875 10.015625 
L 19.046875 0 
z
" id="ArialMT-3a"/>
      <path d="M 16.15625 0 
L 0.296875 51.859375 
L 9.375 51.859375 
L 17.625 21.921875 
L 20.703125 10.796875 
Q 20.90625 11.625 23.390625 21.484375 
L 31.640625 51.859375 
L 40.671875 51.859375 
L 48.4375 21.78125 
L 51.03125 11.859375 
L 54 21.875 
L 62.890625 51.859375 
L 71.4375 51.859375 
L 55.21875 0 
L 46.09375 0 
L 37.84375 31.0625 
L 35.84375 39.890625 
L 25.34375 0 
z
" id="ArialMT-77"/>
      <path d="M 6.640625 0 
L 6.640625 71.578125 
L 15.4375 71.578125 
L 15.4375 30.765625 
L 36.234375 51.859375 
L 47.609375 51.859375 
L 27.78125 32.625 
L 49.609375 0 
L 38.765625 0 
L 21.625 26.515625 
L 15.4375 20.5625 
L 15.4375 0 
z
" id="ArialMT-6b"/>
      <path d="M 0 -1.21875 
L 20.75 72.796875 
L 27.78125 72.796875 
L 7.078125 -1.21875 
z
" id="ArialMT-2f"/>
     </defs>
     <g style="fill:#262626;" transform="translate(19.5687 364.867088)rotate(-90)scale(0.1728 -0.1728)">
      <use xlink:href="#ArialMT-41"/>
      <use x="66.699219" xlink:href="#ArialMT-63"/>
      <use x="116.699219" xlink:href="#ArialMT-63"/>
      <use x="166.699219" xlink:href="#ArialMT-69"/>
      <use x="188.916016" xlink:href="#ArialMT-64"/>
      <use x="244.53125" xlink:href="#ArialMT-65"/>
      <use x="300.146484" xlink:href="#ArialMT-6e"/>
      <use x="355.761719" xlink:href="#ArialMT-74"/>
      <use x="383.544922" xlink:href="#ArialMT-20"/>
      <use x="411.328125" xlink:href="#ArialMT-52"/>
      <use x="483.544922" xlink:href="#ArialMT-61"/>
      <use x="539.160156" xlink:href="#ArialMT-74"/>
      <use x="566.943359" xlink:href="#ArialMT-69"/>
      <use x="589.160156" xlink:href="#ArialMT-6f"/>
      <use x="644.775391" xlink:href="#ArialMT-3a"/>
      <use x="672.558594" xlink:href="#ArialMT-20"/>
      <use x="700.326172" xlink:href="#ArialMT-54"/>
      <use x="761.332031" xlink:href="#ArialMT-77"/>
      <use x="833.548828" xlink:href="#ArialMT-6f"/>
      <use x="889.164062" xlink:href="#ArialMT-20"/>
      <use x="916.947266" xlink:href="#ArialMT-57"/>
      <use x="1011.316406" xlink:href="#ArialMT-65"/>
      <use x="1066.931641" xlink:href="#ArialMT-65"/>
      <use x="1122.546875" xlink:href="#ArialMT-6b"/>
      <use x="1172.546875" xlink:href="#ArialMT-20"/>
      <use x="1200.330078" xlink:href="#ArialMT-2f"/>
      <use x="1228.113281" xlink:href="#ArialMT-20"/>
      <use x="1255.880859" xlink:href="#ArialMT-54"/>
      <use x="1316.964844" xlink:href="#ArialMT-68"/>
      <use x="1372.580078" xlink:href="#ArialMT-72"/>
      <use x="1405.880859" xlink:href="#ArialMT-65"/>
      <use x="1461.496094" xlink:href="#ArialMT-65"/>
      <use x="1517.111328" xlink:href="#ArialMT-20"/>
      <use x="1544.894531" xlink:href="#ArialMT-57"/>
      <use x="1639.263672" xlink:href="#ArialMT-65"/>
      <use x="1694.878906" xlink:href="#ArialMT-65"/>
      <use x="1750.494141" xlink:href="#ArialMT-6b"/>
      <use x="1800.494141" xlink:href="#ArialMT-73"/>
     </g>
    </g>
   </g>
   <g id="PolyCollection_1">
    <defs>
     <path d="M 102.088739 -90.196482 
L 93.494604 -90.196482 
L 92.994557 -91.744444 
L 92.46099 -93.292405 
L 91.894544 -94.840367 
L 91.296126 -96.388329 
L 90.666892 -97.93629 
L 90.008222 -99.484252 
L 89.321702 -101.032214 
L 88.609097 -102.580175 
L 87.872344 -104.128137 
L 87.113535 -105.676098 
L 86.334919 -107.22406 
L 85.538904 -108.772022 
L 84.728075 -110.319983 
L 83.905211 -111.867945 
L 83.073311 -113.415907 
L 82.23562 -114.963868 
L 81.395657 -116.51183 
L 80.557235 -118.059792 
L 79.724469 -119.607753 
L 78.901781 -121.155715 
L 78.093873 -122.703677 
L 77.305697 -124.251638 
L 76.542391 -125.7996 
L 75.809204 -127.347562 
L 75.111394 -128.895523 
L 74.454115 -130.443485 
L 73.842292 -131.991447 
L 73.280479 -133.539408 
L 72.772734 -135.08737 
L 72.322484 -136.635332 
L 71.932416 -138.183293 
L 71.604385 -139.731255 
L 71.339347 -141.279217 
L 71.137326 -142.827178 
L 70.997421 -144.37514 
L 70.91784 -145.923102 
L 70.895982 -147.471063 
L 70.928541 -149.019025 
L 71.011649 -150.566987 
L 71.14103 -152.114948 
L 71.312179 -153.66291 
L 71.52054 -155.210871 
L 71.76168 -156.758833 
L 72.031451 -158.306795 
L 72.32613 -159.854756 
L 72.642532 -161.402718 
L 72.97808 -162.95068 
L 73.330848 -164.498641 
L 73.699552 -166.046603 
L 74.083512 -167.594565 
L 74.482569 -169.142526 
L 74.896975 -170.690488 
L 75.32726 -172.23845 
L 75.774081 -173.786411 
L 76.238064 -175.334373 
L 76.719652 -176.882335 
L 77.218961 -178.430296 
L 77.735662 -179.978258 
L 78.268891 -181.52622 
L 78.817189 -183.074181 
L 79.378487 -184.622143 
L 79.950122 -186.170105 
L 80.528899 -187.718066 
L 81.111185 -189.266028 
L 81.693034 -190.81399 
L 82.270331 -192.361951 
L 82.83896 -193.909913 
L 83.394965 -195.457875 
L 83.934721 -197.005836 
L 84.455083 -198.553798 
L 84.953514 -200.101759 
L 85.428191 -201.649721 
L 85.878075 -203.197683 
L 86.302938 -204.745644 
L 86.703362 -206.293606 
L 87.080694 -207.841568 
L 87.436966 -209.389529 
L 87.774791 -210.937491 
L 88.097226 -212.485453 
L 88.407627 -214.033414 
L 88.709487 -215.581376 
L 89.00628 -217.129338 
L 89.301309 -218.677299 
L 89.597565 -220.225261 
L 89.897608 -221.773223 
L 90.203479 -223.321184 
L 90.516624 -224.869146 
L 90.837865 -226.417108 
L 91.167389 -227.965069 
L 91.504769 -229.513031 
L 91.849011 -231.060993 
L 92.19862 -232.608954 
L 92.551682 -234.156916 
L 92.905966 -235.704878 
L 93.259022 -237.252839 
L 93.608285 -238.800801 
L 93.951177 -240.348763 
L 94.285201 -241.896724 
L 94.608023 -243.444686 
L 100.97532 -243.444686 
L 100.97532 -243.444686 
L 101.298142 -241.896724 
L 101.632166 -240.348763 
L 101.975058 -238.800801 
L 102.324321 -237.252839 
L 102.677377 -235.704878 
L 103.031661 -234.156916 
L 103.384723 -232.608954 
L 103.734331 -231.060993 
L 104.078573 -229.513031 
L 104.415954 -227.965069 
L 104.745478 -226.417108 
L 105.066719 -224.869146 
L 105.379864 -223.321184 
L 105.685734 -221.773223 
L 105.985778 -220.225261 
L 106.282034 -218.677299 
L 106.577063 -217.129338 
L 106.873856 -215.581376 
L 107.175716 -214.033414 
L 107.486116 -212.485453 
L 107.808552 -210.937491 
L 108.146376 -209.389529 
L 108.502649 -207.841568 
L 108.879981 -206.293606 
L 109.280405 -204.745644 
L 109.705268 -203.197683 
L 110.155151 -201.649721 
L 110.629829 -200.101759 
L 111.12826 -198.553798 
L 111.648622 -197.005836 
L 112.188378 -195.457875 
L 112.744383 -193.909913 
L 113.313012 -192.361951 
L 113.890309 -190.81399 
L 114.472158 -189.266028 
L 115.054444 -187.718066 
L 115.633221 -186.170105 
L 116.204856 -184.622143 
L 116.766154 -183.074181 
L 117.314452 -181.52622 
L 117.847681 -179.978258 
L 118.364382 -178.430296 
L 118.863691 -176.882335 
L 119.345279 -175.334373 
L 119.809262 -173.786411 
L 120.256083 -172.23845 
L 120.686368 -170.690488 
L 121.100774 -169.142526 
L 121.499831 -167.594565 
L 121.883791 -166.046603 
L 122.252495 -164.498641 
L 122.605263 -162.95068 
L 122.940811 -161.402718 
L 123.257213 -159.854756 
L 123.551892 -158.306795 
L 123.821663 -156.758833 
L 124.062803 -155.210871 
L 124.271164 -153.66291 
L 124.442313 -152.114948 
L 124.571694 -150.566987 
L 124.654801 -149.019025 
L 124.687361 -147.471063 
L 124.665503 -145.923102 
L 124.585922 -144.37514 
L 124.446017 -142.827178 
L 124.243996 -141.279217 
L 123.978957 -139.731255 
L 123.650927 -138.183293 
L 123.260859 -136.635332 
L 122.810609 -135.08737 
L 122.302864 -133.539408 
L 121.741051 -131.991447 
L 121.129227 -130.443485 
L 120.471949 -128.895523 
L 119.774139 -127.347562 
L 119.040952 -125.7996 
L 118.277646 -124.251638 
L 117.48947 -122.703677 
L 116.681562 -121.155715 
L 115.858874 -119.607753 
L 115.026108 -118.059792 
L 114.187686 -116.51183 
L 113.347723 -114.963868 
L 112.510032 -113.415907 
L 111.678131 -111.867945 
L 110.855268 -110.319983 
L 110.044439 -108.772022 
L 109.248424 -107.22406 
L 108.469808 -105.676098 
L 107.710999 -104.128137 
L 106.974246 -102.580175 
L 106.261641 -101.032214 
L 105.57512 -99.484252 
L 104.916451 -97.93629 
L 104.287217 -96.388329 
L 103.688799 -94.840367 
L 103.122353 -93.292405 
L 102.588786 -91.744444 
L 102.088739 -90.196482 
z
" id="m30a8dacadf" style="stroke:#414141;stroke-width:2;"/>
    </defs>
    <g clip-path="url(#p5cc3db7939)">
     <use style="fill:#e68193;stroke:#414141;stroke-width:2;" x="0" xlink:href="#m30a8dacadf" y="391.910113"/>
    </g>
   </g>
   <g id="PolyCollection_2">
    <defs>
     <path d="M 199.375031 -84.600266 
L 187.522598 -84.600266 
L 186.944207 -85.77894 
L 186.346684 -86.957614 
L 185.734253 -88.136289 
L 185.111538 -89.314963 
L 184.483455 -90.493637 
L 183.855093 -91.672311 
L 183.231572 -92.850986 
L 182.617896 -94.02966 
L 182.018797 -95.208334 
L 181.43859 -96.387009 
L 180.88102 -97.565683 
L 180.349135 -98.744357 
L 179.845176 -99.923031 
L 179.370488 -101.101706 
L 178.925467 -102.28038 
L 178.509532 -103.459054 
L 178.121141 -104.637728 
L 177.757838 -105.816403 
L 177.416332 -106.995077 
L 177.092617 -108.173751 
L 176.782106 -109.352425 
L 176.479801 -110.5311 
L 176.180473 -111.709774 
L 175.878843 -112.888448 
L 175.569782 -114.067123 
L 175.248484 -115.245797 
L 174.910642 -116.424471 
L 174.55259 -117.603145 
L 174.171431 -118.78182 
L 173.765129 -119.960494 
L 173.332565 -121.139168 
L 172.873564 -122.317842 
L 172.388887 -123.496517 
L 171.880189 -124.675191 
L 171.349949 -125.853865 
L 170.801368 -127.03254 
L 170.238258 -128.211214 
L 169.664905 -129.389888 
L 169.085924 -130.568562 
L 168.506119 -131.747237 
L 167.930331 -132.925911 
L 167.363307 -134.104585 
L 166.809571 -135.283259 
L 166.273319 -136.461934 
L 165.758327 -137.640608 
L 165.267891 -138.819282 
L 164.804779 -139.997957 
L 164.371216 -141.176631 
L 163.968891 -142.355305 
L 163.598987 -143.533979 
L 163.262233 -144.712654 
L 162.958969 -145.891328 
L 162.689237 -147.070002 
L 162.452869 -148.248676 
L 162.249593 -149.427351 
L 162.079134 -150.606025 
L 161.941312 -151.784699 
L 161.836135 -152.963374 
L 161.763873 -154.142048 
L 161.725126 -155.320722 
L 161.720857 -156.499396 
L 161.752414 -157.678071 
L 161.821521 -158.856745 
L 161.930248 -160.035419 
L 162.080951 -161.214093 
L 162.276197 -162.392768 
L 162.51866 -163.571442 
L 162.811012 -164.750116 
L 163.155796 -165.928791 
L 163.555295 -167.107465 
L 164.011405 -168.286139 
L 164.52551 -169.464813 
L 165.098372 -170.643488 
L 165.730038 -171.822162 
L 166.419766 -173.000836 
L 167.165978 -174.17951 
L 167.966241 -175.358185 
L 168.817272 -176.536859 
L 169.714975 -177.715533 
L 170.654501 -178.894208 
L 171.63033 -180.072882 
L 172.63638 -181.251556 
L 173.666122 -182.43023 
L 174.712716 -183.608905 
L 175.769143 -184.787579 
L 176.82835 -185.966253 
L 177.883379 -187.144927 
L 178.927498 -188.323602 
L 179.954318 -189.502276 
L 180.957894 -190.68095 
L 181.932809 -191.859625 
L 182.874246 -193.038299 
L 183.778035 -194.216973 
L 184.640683 -195.395647 
L 185.459392 -196.574322 
L 186.232051 -197.752996 
L 186.957221 -198.93167 
L 187.634103 -200.110344 
L 188.262496 -201.289019 
L 198.635133 -201.289019 
L 198.635133 -201.289019 
L 199.263526 -200.110344 
L 199.940408 -198.93167 
L 200.665577 -197.752996 
L 201.438236 -196.574322 
L 202.256945 -195.395647 
L 203.119594 -194.216973 
L 204.023382 -193.038299 
L 204.964819 -191.859625 
L 205.939734 -190.68095 
L 206.94331 -189.502276 
L 207.97013 -188.323602 
L 209.01425 -187.144927 
L 210.069279 -185.966253 
L 211.128485 -184.787579 
L 212.184913 -183.608905 
L 213.231506 -182.43023 
L 214.261248 -181.251556 
L 215.267298 -180.072882 
L 216.243127 -178.894208 
L 217.182653 -177.715533 
L 218.080357 -176.536859 
L 218.931388 -175.358185 
L 219.731651 -174.17951 
L 220.477863 -173.000836 
L 221.16759 -171.822162 
L 221.799256 -170.643488 
L 222.372118 -169.464813 
L 222.886224 -168.286139 
L 223.342334 -167.107465 
L 223.741833 -165.928791 
L 224.086617 -164.750116 
L 224.378969 -163.571442 
L 224.621432 -162.392768 
L 224.816677 -161.214093 
L 224.96738 -160.035419 
L 225.076107 -158.856745 
L 225.145215 -157.678071 
L 225.176772 -156.499396 
L 225.172503 -155.320722 
L 225.133755 -154.142048 
L 225.061494 -152.963374 
L 224.956316 -151.784699 
L 224.818494 -150.606025 
L 224.648035 -149.427351 
L 224.44476 -148.248676 
L 224.208392 -147.070002 
L 223.93866 -145.891328 
L 223.635396 -144.712654 
L 223.298641 -143.533979 
L 222.928738 -142.355305 
L 222.526413 -141.176631 
L 222.092849 -139.997957 
L 221.629737 -138.819282 
L 221.139301 -137.640608 
L 220.62431 -136.461934 
L 220.088057 -135.283259 
L 219.534321 -134.104585 
L 218.967297 -132.925911 
L 218.39151 -131.747237 
L 217.811704 -130.568562 
L 217.232724 -129.389888 
L 216.65937 -128.211214 
L 216.096261 -127.03254 
L 215.54768 -125.853865 
L 215.017439 -124.675191 
L 214.508742 -123.496517 
L 214.024065 -122.317842 
L 213.565064 -121.139168 
L 213.132499 -119.960494 
L 212.726197 -118.78182 
L 212.345039 -117.603145 
L 211.986987 -116.424471 
L 211.649144 -115.245797 
L 211.327846 -114.067123 
L 211.018785 -112.888448 
L 210.717156 -111.709774 
L 210.417827 -110.5311 
L 210.115523 -109.352425 
L 209.805012 -108.173751 
L 209.481296 -106.995077 
L 209.139791 -105.816403 
L 208.776488 -104.637728 
L 208.388097 -103.459054 
L 207.972162 -102.28038 
L 207.52714 -101.101706 
L 207.052453 -99.923031 
L 206.548494 -98.744357 
L 206.016609 -97.565683 
L 205.459038 -96.387009 
L 204.878831 -95.208334 
L 204.279733 -94.02966 
L 203.666056 -92.850986 
L 203.042535 -91.672311 
L 202.414174 -90.493637 
L 201.786091 -89.314963 
L 201.163375 -88.136289 
L 200.550945 -86.957614 
L 199.953422 -85.77894 
L 199.375031 -84.600266 
z
" id="m7bd5fa0457" style="stroke:#414141;stroke-width:2;"/>
    </defs>
    <g clip-path="url(#p5cc3db7939)">
     <use style="fill:#b38e44;stroke:#414141;stroke-width:2;" x="0" xlink:href="#m7bd5fa0457" y="391.910113"/>
    </g>
   </g>
   <g id="PolyCollection_3">
    <defs>
     <path d="M 291.617246 -71.459483 
L 286.594668 -71.459483 
L 286.379595 -72.717617 
L 286.163119 -73.975751 
L 285.94713 -75.233886 
L 285.733411 -76.49202 
L 285.523529 -77.750154 
L 285.318737 -79.008288 
L 285.119865 -80.266423 
L 284.927221 -81.524557 
L 284.740502 -82.782691 
L 284.558719 -84.040826 
L 284.380141 -85.29896 
L 284.202269 -86.557094 
L 284.021832 -87.815229 
L 283.834824 -89.073363 
L 283.636572 -90.331497 
L 283.421834 -91.589631 
L 283.184941 -92.847766 
L 282.919964 -94.1059 
L 282.620913 -95.364034 
L 282.281955 -96.622169 
L 281.897649 -97.880303 
L 281.463187 -99.138437 
L 280.974627 -100.396572 
L 280.429122 -101.654706 
L 279.825114 -102.91284 
L 279.162501 -104.170974 
L 278.442754 -105.429109 
L 277.668987 -106.687243 
L 276.845963 -107.945377 
L 275.980041 -109.203512 
L 275.079054 -110.461646 
L 274.152124 -111.71978 
L 273.209422 -112.977915 
L 272.26187 -114.236049 
L 271.320804 -115.494183 
L 270.397606 -116.752317 
L 269.503328 -118.010452 
L 268.648309 -119.268586 
L 267.841811 -120.52672 
L 267.091702 -121.784855 
L 266.404169 -123.042989 
L 265.783511 -124.301123 
L 265.231994 -125.559258 
L 264.749793 -126.817392 
L 264.335009 -128.075526 
L 263.98378 -129.33366 
L 263.690457 -130.591795 
L 263.447855 -131.849929 
L 263.247561 -133.108063 
L 263.080284 -134.366198 
L 262.936228 -135.624332 
L 262.805478 -136.882466 
L 262.678378 -138.140601 
L 262.545889 -139.398735 
L 262.399906 -140.656869 
L 262.233528 -141.915003 
L 262.041277 -143.173138 
L 261.819256 -144.431272 
L 261.565238 -145.689406 
L 261.278701 -146.947541 
L 260.96081 -148.205675 
L 260.614338 -149.463809 
L 260.243555 -150.721944 
L 259.854078 -151.980078 
L 259.452696 -153.238212 
L 259.047183 -154.496346 
L 258.646097 -155.754481 
L 258.258573 -157.012615 
L 257.894129 -158.270749 
L 257.562464 -159.528884 
L 257.273268 -160.787018 
L 257.036041 -162.045152 
L 256.859915 -163.303287 
L 256.753486 -164.561421 
L 256.724652 -165.819555 
L 256.780455 -167.07769 
L 256.926937 -168.335824 
L 257.169 -169.593958 
L 257.510279 -170.852092 
L 257.953036 -172.110227 
L 258.498064 -173.368361 
L 259.144629 -174.626495 
L 259.890429 -175.88463 
L 260.731593 -177.142764 
L 261.662719 -178.400898 
L 262.676942 -179.659033 
L 263.76605 -180.917167 
L 264.920634 -182.175301 
L 266.130272 -183.433435 
L 267.383746 -184.69157 
L 268.669281 -185.949704 
L 269.974798 -187.207838 
L 271.288178 -188.465973 
L 272.597519 -189.724107 
L 273.891388 -190.982241 
L 275.159049 -192.240376 
L 276.390662 -193.49851 
L 277.577457 -194.756644 
L 278.711861 -196.014778 
L 299.500053 -196.014778 
L 299.500053 -196.014778 
L 300.634457 -194.756644 
L 301.821252 -193.49851 
L 303.052865 -192.240376 
L 304.320526 -190.982241 
L 305.614395 -189.724107 
L 306.923737 -188.465973 
L 308.237116 -187.207838 
L 309.542633 -185.949704 
L 310.828168 -184.69157 
L 312.081642 -183.433435 
L 313.29128 -182.175301 
L 314.445864 -180.917167 
L 315.534972 -179.659033 
L 316.549195 -178.400898 
L 317.480321 -177.142764 
L 318.321486 -175.88463 
L 319.067285 -174.626495 
L 319.71385 -173.368361 
L 320.258878 -172.110227 
L 320.701635 -170.852092 
L 321.042914 -169.593958 
L 321.284977 -168.335824 
L 321.431459 -167.07769 
L 321.487262 -165.819555 
L 321.458428 -164.561421 
L 321.351999 -163.303287 
L 321.175873 -162.045152 
L 320.938646 -160.787018 
L 320.64945 -159.528884 
L 320.317785 -158.270749 
L 319.953341 -157.012615 
L 319.565818 -155.754481 
L 319.164731 -154.496346 
L 318.759218 -153.238212 
L 318.357836 -151.980078 
L 317.968359 -150.721944 
L 317.597576 -149.463809 
L 317.251104 -148.205675 
L 316.933213 -146.947541 
L 316.646676 -145.689406 
L 316.392658 -144.431272 
L 316.170637 -143.173138 
L 315.978387 -141.915003 
L 315.812009 -140.656869 
L 315.666025 -139.398735 
L 315.533536 -138.140601 
L 315.406437 -136.882466 
L 315.275686 -135.624332 
L 315.13163 -134.366198 
L 314.964353 -133.108063 
L 314.76406 -131.849929 
L 314.521458 -130.591795 
L 314.228134 -129.33366 
L 313.876905 -128.075526 
L 313.462122 -126.817392 
L 312.97992 -125.559258 
L 312.428403 -124.301123 
L 311.807745 -123.042989 
L 311.120212 -121.784855 
L 310.370103 -120.52672 
L 309.563606 -119.268586 
L 308.708586 -118.010452 
L 307.814308 -116.752317 
L 306.891111 -115.494183 
L 305.950044 -114.236049 
L 305.002492 -112.977915 
L 304.05979 -111.71978 
L 303.13286 -110.461646 
L 302.231873 -109.203512 
L 301.365951 -107.945377 
L 300.542928 -106.687243 
L 299.76916 -105.429109 
L 299.049413 -104.170974 
L 298.3868 -102.91284 
L 297.782792 -101.654706 
L 297.237287 -100.396572 
L 296.748728 -99.138437 
L 296.314265 -97.880303 
L 295.929959 -96.622169 
L 295.591002 -95.364034 
L 295.291951 -94.1059 
L 295.026974 -92.847766 
L 294.79008 -91.589631 
L 294.575342 -90.331497 
L 294.37709 -89.073363 
L 294.190083 -87.815229 
L 294.009645 -86.557094 
L 293.831773 -85.29896 
L 293.653195 -84.040826 
L 293.471412 -82.782691 
L 293.284693 -81.524557 
L 293.092049 -80.266423 
L 292.893177 -79.008288 
L 292.688385 -77.750154 
L 292.478503 -76.49202 
L 292.264784 -75.233886 
L 292.048796 -73.975751 
L 291.832319 -72.717617 
L 291.617246 -71.459483 
z
" id="m0574a2a411" style="stroke:#414141;stroke-width:2;"/>
    </defs>
    <g clip-path="url(#p5cc3db7939)">
     <use style="fill:#7d9a40;stroke:#414141;stroke-width:2;" x="0" xlink:href="#m0574a2a411" y="391.910113"/>
    </g>
   </g>
   <g id="PolyCollection_4">
    <defs>
     <path d="M 388.337754 -94.873065 
L 381.188446 -94.873065 
L 380.783406 -96.061615 
L 380.352722 -97.250164 
L 379.896898 -98.438713 
L 379.416555 -99.627262 
L 378.912398 -100.815811 
L 378.385178 -102.00436 
L 377.835656 -103.192909 
L 377.26457 -104.381458 
L 376.672606 -105.570007 
L 376.060377 -106.758556 
L 375.428406 -107.947105 
L 374.777121 -109.135654 
L 374.10686 -110.324203 
L 373.417884 -111.512753 
L 372.710396 -112.701302 
L 371.984577 -113.889851 
L 371.240617 -115.0784 
L 370.478757 -116.266949 
L 369.699338 -117.455498 
L 368.902842 -118.644047 
L 368.089936 -119.832596 
L 367.26152 -121.021145 
L 366.418753 -122.209694 
L 365.563098 -123.398243 
L 364.696333 -124.586792 
L 363.820577 -125.775341 
L 362.938296 -126.96389 
L 362.052299 -128.15244 
L 361.165736 -129.340989 
L 360.282074 -130.529538 
L 359.405078 -131.718087 
L 358.538773 -132.906636 
L 357.68741 -134.095185 
L 356.855418 -135.283734 
L 356.047354 -136.472283 
L 355.267848 -137.660832 
L 354.521545 -138.849381 
L 353.813042 -140.03793 
L 353.146828 -141.226479 
L 352.52722 -142.415028 
L 351.958298 -143.603578 
L 351.443849 -144.792127 
L 350.987306 -145.980676 
L 350.591695 -147.169225 
L 350.259592 -148.357774 
L 349.993074 -149.546323 
L 349.793695 -150.734872 
L 349.662454 -151.923421 
L 349.599786 -153.11197 
L 349.605554 -154.300519 
L 349.679054 -155.489068 
L 349.819029 -156.677617 
L 350.023693 -157.866166 
L 350.290763 -159.054716 
L 350.617497 -160.243265 
L 351.00074 -161.431814 
L 351.436973 -162.620363 
L 351.922365 -163.808912 
L 352.452832 -164.997461 
L 353.024093 -166.18601 
L 353.631728 -167.374559 
L 354.271238 -168.563108 
L 354.938105 -169.751657 
L 355.627849 -170.940206 
L 356.336092 -172.128755 
L 357.058616 -173.317304 
L 357.791421 -174.505854 
L 358.530786 -175.694403 
L 359.273324 -176.882952 
L 360.016034 -178.071501 
L 360.756348 -179.26005 
L 361.492168 -180.448599 
L 362.221895 -181.637148 
L 362.944439 -182.825697 
L 363.65922 -184.014246 
L 364.36615 -185.202795 
L 365.065588 -186.391344 
L 365.758288 -187.579893 
L 366.445326 -188.768442 
L 367.128003 -189.956992 
L 367.807751 -191.145541 
L 368.486015 -192.33409 
L 369.164147 -193.522639 
L 369.843293 -194.711188 
L 370.524291 -195.899737 
L 371.207587 -197.088286 
L 371.893165 -198.276835 
L 372.580503 -199.465384 
L 373.268553 -200.653933 
L 373.955747 -201.842482 
L 374.640031 -203.031031 
L 375.318921 -204.21958 
L 375.989583 -205.40813 
L 376.648927 -206.596679 
L 377.293713 -207.785228 
L 377.920666 -208.973777 
L 378.526582 -210.162326 
L 379.108446 -211.350875 
L 379.663517 -212.539424 
L 389.862683 -212.539424 
L 389.862683 -212.539424 
L 390.417754 -211.350875 
L 390.999618 -210.162326 
L 391.605534 -208.973777 
L 392.232487 -207.785228 
L 392.877273 -206.596679 
L 393.536617 -205.40813 
L 394.207279 -204.21958 
L 394.886169 -203.031031 
L 395.570453 -201.842482 
L 396.257647 -200.653933 
L 396.945697 -199.465384 
L 397.633035 -198.276835 
L 398.318613 -197.088286 
L 399.001909 -195.899737 
L 399.682907 -194.711188 
L 400.362053 -193.522639 
L 401.040185 -192.33409 
L 401.718449 -191.145541 
L 402.398197 -189.956992 
L 403.080874 -188.768442 
L 403.767912 -187.579893 
L 404.460612 -186.391344 
L 405.16005 -185.202795 
L 405.86698 -184.014246 
L 406.581761 -182.825697 
L 407.304305 -181.637148 
L 408.034032 -180.448599 
L 408.769852 -179.26005 
L 409.510166 -178.071501 
L 410.252876 -176.882952 
L 410.995414 -175.694403 
L 411.734779 -174.505854 
L 412.467584 -173.317304 
L 413.190108 -172.128755 
L 413.898351 -170.940206 
L 414.588095 -169.751657 
L 415.254962 -168.563108 
L 415.894472 -167.374559 
L 416.502107 -166.18601 
L 417.073368 -164.997461 
L 417.603835 -163.808912 
L 418.089227 -162.620363 
L 418.52546 -161.431814 
L 418.908703 -160.243265 
L 419.235437 -159.054716 
L 419.502507 -157.866166 
L 419.707171 -156.677617 
L 419.847146 -155.489068 
L 419.920646 -154.300519 
L 419.926414 -153.11197 
L 419.863746 -151.923421 
L 419.732505 -150.734872 
L 419.533126 -149.546323 
L 419.266608 -148.357774 
L 418.934505 -147.169225 
L 418.538894 -145.980676 
L 418.082351 -144.792127 
L 417.567902 -143.603578 
L 416.99898 -142.415028 
L 416.379372 -141.226479 
L 415.713158 -140.03793 
L 415.004655 -138.849381 
L 414.258352 -137.660832 
L 413.478846 -136.472283 
L 412.670782 -135.283734 
L 411.83879 -134.095185 
L 410.987427 -132.906636 
L 410.121122 -131.718087 
L 409.244126 -130.529538 
L 408.360464 -129.340989 
L 407.473901 -128.15244 
L 406.587904 -126.96389 
L 405.705623 -125.775341 
L 404.829867 -124.586792 
L 403.963102 -123.398243 
L 403.107447 -122.209694 
L 402.26468 -121.021145 
L 401.436264 -119.832596 
L 400.623358 -118.644047 
L 399.826862 -117.455498 
L 399.047443 -116.266949 
L 398.285583 -115.0784 
L 397.541623 -113.889851 
L 396.815804 -112.701302 
L 396.108316 -111.512753 
L 395.41934 -110.324203 
L 394.749079 -109.135654 
L 394.097794 -107.947105 
L 393.465823 -106.758556 
L 392.853594 -105.570007 
L 392.26163 -104.381458 
L 391.690544 -103.192909 
L 391.141022 -102.00436 
L 390.613802 -100.815811 
L 390.109645 -99.627262 
L 389.629302 -98.438713 
L 389.173478 -97.250164 
L 388.742794 -96.061615 
L 388.337754 -94.873065 
z
" id="m75d5193208" style="stroke:#414141;stroke-width:2;"/>
    </defs>
    <g clip-path="url(#p5cc3db7939)">
     <use style="fill:#43a084;stroke:#414141;stroke-width:2;" x="0" xlink:href="#m75d5193208" y="391.910113"/>
    </g>
   </g>
   <g id="PolyCollection_5">
    <defs>
     <path d="M 483.146974 -77.728416 
L 477.693511 -77.728416 
L 477.449645 -78.975645 
L 477.209172 -80.222875 
L 476.976127 -81.470104 
L 476.754608 -82.717333 
L 476.548624 -83.964562 
L 476.361936 -85.211791 
L 476.197899 -86.459021 
L 476.059299 -87.70625 
L 475.948207 -88.953479 
L 475.865845 -90.200708 
L 475.812478 -91.447937 
L 475.787338 -92.695167 
L 475.788567 -93.942396 
L 475.813215 -95.189625 
L 475.857254 -96.436854 
L 475.915641 -97.684083 
L 475.982401 -98.931313 
L 476.050748 -100.178542 
L 476.113225 -101.425771 
L 476.161862 -102.673 
L 476.188346 -103.920229 
L 476.184205 -105.167459 
L 476.140982 -106.414688 
L 476.050424 -107.661917 
L 475.90465 -108.909146 
L 475.696325 -110.156375 
L 475.418811 -111.403605 
L 475.066322 -112.650834 
L 474.634051 -113.898063 
L 474.118302 -115.145292 
L 473.516591 -116.392521 
L 472.827746 -117.639751 
L 472.051981 -118.88698 
L 471.190957 -120.134209 
L 470.247811 -121.381438 
L 469.227173 -122.628667 
L 468.135134 -123.875897 
L 466.979196 -125.123126 
L 465.768174 -126.370355 
L 464.512061 -127.617584 
L 463.221849 -128.864813 
L 461.90931 -130.112043 
L 460.586741 -131.359272 
L 459.266672 -132.606501 
L 457.961551 -133.85373 
L 456.683416 -135.100959 
L 455.443562 -136.348189 
L 454.25222 -137.595418 
L 453.118264 -138.842647 
L 452.048959 -140.089876 
L 451.049759 -141.337105 
L 450.124177 -142.584335 
L 449.273733 -143.831564 
L 448.497978 -145.078793 
L 447.79461 -146.326022 
L 447.159669 -147.573251 
L 446.58781 -148.820481 
L 446.072644 -150.06771 
L 445.607133 -151.314939 
L 445.184014 -152.562168 
L 444.796251 -153.809397 
L 444.437471 -155.056627 
L 444.102383 -156.303856 
L 443.787146 -157.551085 
L 443.489678 -158.798314 
L 443.209874 -160.045543 
L 442.949746 -161.292773 
L 442.713448 -162.540002 
L 442.507199 -163.787231 
L 442.339099 -165.03446 
L 442.218851 -166.281689 
L 442.157386 -167.528919 
L 442.166414 -168.776148 
L 442.257926 -170.023377 
L 442.443656 -171.270606 
L 442.734534 -172.517835 
L 443.140157 -173.765065 
L 443.668299 -175.012294 
L 444.324487 -176.259523 
L 445.111655 -177.506752 
L 446.029904 -178.753981 
L 447.076376 -180.001211 
L 448.245239 -181.24844 
L 449.527796 -182.495669 
L 450.912707 -183.742898 
L 452.38631 -184.990127 
L 453.933024 -186.237357 
L 455.535827 -187.484586 
L 457.176765 -188.731815 
L 458.837484 -189.979044 
L 460.499763 -191.226273 
L 462.146004 -192.473503 
L 463.75969 -193.720732 
L 465.32577 -194.967961 
L 466.830968 -196.21519 
L 468.264018 -197.462419 
L 469.615798 -198.709649 
L 470.879396 -199.956878 
L 472.050082 -201.204107 
L 488.790404 -201.204107 
L 488.790404 -201.204107 
L 489.96109 -199.956878 
L 491.224688 -198.709649 
L 492.576468 -197.462419 
L 494.009518 -196.21519 
L 495.514716 -194.967961 
L 497.080795 -193.720732 
L 498.694481 -192.473503 
L 500.340723 -191.226273 
L 502.003001 -189.979044 
L 503.663721 -188.731815 
L 505.304659 -187.484586 
L 506.907462 -186.237357 
L 508.454176 -184.990127 
L 509.927778 -183.742898 
L 511.31269 -182.495669 
L 512.595247 -181.24844 
L 513.76411 -180.001211 
L 514.810581 -178.753981 
L 515.728831 -177.506752 
L 516.515998 -176.259523 
L 517.172186 -175.012294 
L 517.700329 -173.765065 
L 518.105952 -172.517835 
L 518.39683 -171.270606 
L 518.582559 -170.023377 
L 518.674072 -168.776148 
L 518.6831 -167.528919 
L 518.621635 -166.281689 
L 518.501387 -165.03446 
L 518.333287 -163.787231 
L 518.127037 -162.540002 
L 517.890739 -161.292773 
L 517.630612 -160.045543 
L 517.350808 -158.798314 
L 517.053339 -157.551085 
L 516.738103 -156.303856 
L 516.403015 -155.056627 
L 516.044235 -153.809397 
L 515.656472 -152.562168 
L 515.233353 -151.314939 
L 514.767841 -150.06771 
L 514.252676 -148.820481 
L 513.680816 -147.573251 
L 513.045875 -146.326022 
L 512.342507 -145.078793 
L 511.566753 -143.831564 
L 510.716309 -142.584335 
L 509.790727 -141.337105 
L 508.791527 -140.089876 
L 507.722221 -138.842647 
L 506.588266 -137.595418 
L 505.396924 -136.348189 
L 504.15707 -135.100959 
L 502.878935 -133.85373 
L 501.573814 -132.606501 
L 500.253744 -131.359272 
L 498.931176 -130.112043 
L 497.618637 -128.864813 
L 496.328424 -127.617584 
L 495.072312 -126.370355 
L 493.86129 -125.123126 
L 492.705352 -123.875897 
L 491.613313 -122.628667 
L 490.592674 -121.381438 
L 489.649529 -120.134209 
L 488.788505 -118.88698 
L 488.01274 -117.639751 
L 487.323895 -116.392521 
L 486.722184 -115.145292 
L 486.206434 -113.898063 
L 485.774164 -112.650834 
L 485.421674 -111.403605 
L 485.144161 -110.156375 
L 484.935835 -108.909146 
L 484.790062 -107.661917 
L 484.699504 -106.414688 
L 484.656281 -105.167459 
L 484.652139 -103.920229 
L 484.678624 -102.673 
L 484.727261 -101.425771 
L 484.789738 -100.178542 
L 484.858085 -98.931313 
L 484.924845 -97.684083 
L 484.983231 -96.436854 
L 485.027271 -95.189625 
L 485.051918 -93.942396 
L 485.053148 -92.695167 
L 485.028007 -91.447937 
L 484.974641 -90.200708 
L 484.892279 -88.953479 
L 484.781187 -87.70625 
L 484.642587 -86.459021 
L 484.47855 -85.211791 
L 484.291862 -83.964562 
L 484.085878 -82.717333 
L 483.864359 -81.470104 
L 483.631314 -80.222875 
L 483.39084 -78.975645 
L 483.146974 -77.728416 
z
" id="m7b704d02ca" style="stroke:#414141;stroke-width:2;"/>
    </defs>
    <g clip-path="url(#p5cc3db7939)">
     <use style="fill:#489eaa;stroke:#414141;stroke-width:2;" x="0" xlink:href="#m7b704d02ca" y="391.910113"/>
    </g>
   </g>
   <g id="PolyCollection_6">
    <defs>
     <path d="M 579.442784 -87.701591 
L 572.711988 -87.701591 
L 572.205824 -90.014936 
L 571.651982 -92.328281 
L 571.050342 -94.641626 
L 570.401351 -96.954971 
L 569.706013 -99.268316 
L 568.965868 -101.581661 
L 568.182947 -103.895006 
L 567.359722 -106.208351 
L 566.499047 -108.521696 
L 565.6041 -110.835041 
L 564.678334 -113.148386 
L 563.725435 -115.461731 
L 562.749312 -117.775076 
L 561.754098 -120.088421 
L 560.744193 -122.401766 
L 559.724322 -124.715112 
L 558.699624 -127.028457 
L 557.675758 -129.341802 
L 556.659018 -131.655147 
L 555.656442 -133.968492 
L 554.675901 -136.281837 
L 553.726162 -138.595182 
L 552.816897 -140.908527 
L 551.958624 -143.221872 
L 551.162592 -145.535217 
L 550.440573 -147.848562 
L 549.804589 -150.161907 
L 549.266562 -152.475252 
L 548.837908 -154.788597 
L 548.529096 -157.101942 
L 548.34919 -159.415287 
L 548.305401 -161.728632 
L 548.402686 -164.041977 
L 548.643413 -166.355322 
L 549.027116 -168.668667 
L 549.550375 -170.982012 
L 550.206807 -173.295357 
L 550.987202 -175.608702 
L 551.87978 -177.922047 
L 552.870562 -180.235392 
L 553.94384 -182.548737 
L 555.082711 -184.862082 
L 556.269656 -187.175428 
L 557.487118 -189.488773 
L 558.71806 -191.802118 
L 559.946463 -194.115463 
L 561.157754 -196.428808 
L 562.339129 -198.742153 
L 563.479774 -201.055498 
L 564.570976 -203.368843 
L 565.606124 -205.682188 
L 566.580625 -207.995533 
L 567.491731 -210.308878 
L 568.338313 -212.622223 
L 569.120588 -214.935568 
L 569.839839 -217.248913 
L 570.498121 -219.562258 
L 571.098003 -221.875603 
L 571.642322 -224.188948 
L 572.133985 -226.502293 
L 572.575821 -228.815638 
L 572.970467 -231.128983 
L 573.320309 -233.442328 
L 573.627455 -235.755673 
L 573.893748 -238.069018 
L 574.120803 -240.382363 
L 574.310065 -242.695708 
L 574.462883 -245.009053 
L 574.580586 -247.322398 
L 574.664566 -249.635744 
L 574.716353 -251.949089 
L 574.737688 -254.262434 
L 574.730582 -256.575779 
L 574.69736 -258.889124 
L 574.640692 -261.202469 
L 574.563607 -263.515814 
L 574.46948 -265.829159 
L 574.362005 -268.142504 
L 574.245146 -270.455849 
L 574.123063 -272.769194 
L 574.000022 -275.082539 
L 573.880294 -277.395884 
L 573.768031 -279.709229 
L 573.66715 -282.022574 
L 573.581205 -284.335919 
L 573.513276 -286.649264 
L 573.46586 -288.962609 
L 573.440799 -291.275954 
L 573.439212 -293.589299 
L 573.461477 -295.902644 
L 573.507226 -298.215989 
L 573.575388 -300.529334 
L 573.664245 -302.842679 
L 573.771528 -305.156024 
L 573.894526 -307.469369 
L 574.030211 -309.782714 
L 574.17537 -312.09606 
L 574.326734 -314.409405 
L 574.481107 -316.72275 
L 577.673664 -316.72275 
L 577.673664 -316.72275 
L 577.828037 -314.409405 
L 577.979402 -312.09606 
L 578.12456 -309.782714 
L 578.260246 -307.469369 
L 578.383244 -305.156024 
L 578.490527 -302.842679 
L 578.579384 -300.529334 
L 578.647545 -298.215989 
L 578.693295 -295.902644 
L 578.715559 -293.589299 
L 578.713973 -291.275954 
L 578.688911 -288.962609 
L 578.641496 -286.649264 
L 578.573566 -284.335919 
L 578.487621 -282.022574 
L 578.38674 -279.709229 
L 578.274478 -277.395884 
L 578.154749 -275.082539 
L 578.031709 -272.769194 
L 577.909625 -270.455849 
L 577.792766 -268.142504 
L 577.685292 -265.829159 
L 577.591164 -263.515814 
L 577.514079 -261.202469 
L 577.457412 -258.889124 
L 577.42419 -256.575779 
L 577.417084 -254.262434 
L 577.438419 -251.949089 
L 577.490206 -249.635744 
L 577.574185 -247.322398 
L 577.691888 -245.009053 
L 577.844706 -242.695708 
L 578.033969 -240.382363 
L 578.261023 -238.069018 
L 578.527316 -235.755673 
L 578.834463 -233.442328 
L 579.184304 -231.128983 
L 579.578951 -228.815638 
L 580.020787 -226.502293 
L 580.51245 -224.188948 
L 581.056768 -221.875603 
L 581.65665 -219.562258 
L 582.314933 -217.248913 
L 583.034183 -214.935568 
L 583.816458 -212.622223 
L 584.66304 -210.308878 
L 585.574147 -207.995533 
L 586.548648 -205.682188 
L 587.583796 -203.368843 
L 588.674997 -201.055498 
L 589.815642 -198.742153 
L 590.997017 -196.428808 
L 592.208308 -194.115463 
L 593.436712 -191.802118 
L 594.667653 -189.488773 
L 595.885115 -187.175428 
L 597.07206 -184.862082 
L 598.210932 -182.548737 
L 599.284209 -180.235392 
L 600.274991 -177.922047 
L 601.167569 -175.608702 
L 601.947965 -173.295357 
L 602.604397 -170.982012 
L 603.127655 -168.668667 
L 603.511359 -166.355322 
L 603.752085 -164.041977 
L 603.84937 -161.728632 
L 603.805582 -159.415287 
L 603.625675 -157.101942 
L 603.316864 -154.788597 
L 602.88821 -152.475252 
L 602.350182 -150.161907 
L 601.714198 -147.848562 
L 600.99218 -145.535217 
L 600.196147 -143.221872 
L 599.337875 -140.908527 
L 598.428609 -138.595182 
L 597.478871 -136.281837 
L 596.49833 -133.968492 
L 595.495753 -131.655147 
L 594.479013 -129.341802 
L 593.455147 -127.028457 
L 592.430449 -124.715112 
L 591.410578 -122.401766 
L 590.400673 -120.088421 
L 589.40546 -117.775076 
L 588.429336 -115.461731 
L 587.476438 -113.148386 
L 586.550671 -110.835041 
L 585.655725 -108.521696 
L 584.79505 -106.208351 
L 583.971825 -103.895006 
L 583.188903 -101.581661 
L 582.448758 -99.268316 
L 581.75342 -96.954971 
L 581.104429 -94.641626 
L 580.502789 -92.328281 
L 579.948948 -90.014936 
L 579.442784 -87.701591 
z
" id="m1204f7425e" style="stroke:#414141;stroke-width:2;"/>
    </defs>
    <g clip-path="url(#p5cc3db7939)">
     <use style="fill:#8fa0e6;stroke:#414141;stroke-width:2;" x="0" xlink:href="#m1204f7425e" y="391.910113"/>
    </g>
   </g>
   <g id="PolyCollection_7">
    <defs>
     <path d="M 673.404907 -34.649141 
L 670.06415 -34.649141 
L 669.910535 -36.722561 
L 669.758114 -38.79598 
L 669.609169 -40.869399 
L 669.465949 -42.942818 
L 669.330567 -45.016237 
L 669.204879 -47.089657 
L 669.090373 -49.163076 
L 668.988056 -51.236495 
L 668.89835 -53.309914 
L 668.821007 -55.383334 
L 668.755043 -57.456753 
L 668.698696 -59.530172 
L 668.649418 -61.603591 
L 668.603896 -63.67701 
L 668.558107 -65.75043 
L 668.507411 -67.823849 
L 668.446669 -69.897268 
L 668.370398 -71.970687 
L 668.272939 -74.044107 
L 668.148657 -76.117526 
L 667.992144 -78.190945 
L 667.79842 -80.264364 
L 667.563142 -82.337783 
L 667.282786 -84.411203 
L 666.954815 -86.484622 
L 666.577806 -88.558041 
L 666.151548 -90.63146 
L 665.677092 -92.704879 
L 665.156747 -94.778299 
L 664.594031 -96.851718 
L 663.993575 -98.925137 
L 663.360965 -100.998556 
L 662.702556 -103.071976 
L 662.025246 -105.145395 
L 661.336222 -107.218814 
L 660.642695 -109.292233 
L 659.951641 -111.365652 
L 659.26954 -113.439072 
L 658.602156 -115.512491 
L 657.954346 -117.58591 
L 657.329919 -119.659329 
L 656.731548 -121.732749 
L 656.16074 -123.806168 
L 655.617875 -125.879587 
L 655.102289 -127.953006 
L 654.612422 -130.026425 
L 654.146004 -132.099845 
L 653.700279 -134.173264 
L 653.272244 -136.246683 
L 652.858907 -138.320102 
L 652.457532 -140.393521 
L 652.065874 -142.466941 
L 651.682378 -144.54036 
L 651.306351 -146.613779 
L 650.938077 -148.687198 
L 650.578892 -150.760618 
L 650.231199 -152.834037 
L 649.898435 -154.907456 
L 649.584978 -156.980875 
L 649.296022 -159.054294 
L 649.037393 -161.127714 
L 648.815346 -163.201133 
L 648.636334 -165.274552 
L 648.506758 -167.347971 
L 648.432723 -169.421391 
L 648.419793 -171.49481 
L 648.472772 -173.568229 
L 648.595503 -175.641648 
L 648.790712 -177.715067 
L 649.05989 -179.788487 
L 649.403222 -181.861906 
L 649.819569 -183.935325 
L 650.306494 -186.008744 
L 650.860338 -188.082164 
L 651.476337 -190.155583 
L 652.148773 -192.229002 
L 652.871152 -194.302421 
L 653.636394 -196.37584 
L 654.43704 -198.44926 
L 655.265442 -200.522679 
L 656.113956 -202.596098 
L 656.975105 -204.669517 
L 657.841726 -206.742936 
L 658.707086 -208.816356 
L 659.564969 -210.889775 
L 660.409738 -212.963194 
L 661.236365 -215.036613 
L 662.040445 -217.110033 
L 662.818186 -219.183452 
L 663.56639 -221.256871 
L 664.282418 -223.33029 
L 664.964156 -225.403709 
L 665.609977 -227.477129 
L 666.218702 -229.550548 
L 666.789566 -231.623967 
L 667.322186 -233.697386 
L 667.816534 -235.770806 
L 668.272909 -237.844225 
L 668.691914 -239.917644 
L 674.777143 -239.917644 
L 674.777143 -239.917644 
L 675.196148 -237.844225 
L 675.652523 -235.770806 
L 676.146871 -233.697386 
L 676.679491 -231.623967 
L 677.250356 -229.550548 
L 677.85908 -227.477129 
L 678.504901 -225.403709 
L 679.186639 -223.33029 
L 679.902667 -221.256871 
L 680.650871 -219.183452 
L 681.428612 -217.110033 
L 682.232692 -215.036613 
L 683.059319 -212.963194 
L 683.904088 -210.889775 
L 684.761971 -208.816356 
L 685.627331 -206.742936 
L 686.493953 -204.669517 
L 687.355102 -202.596098 
L 688.203615 -200.522679 
L 689.032017 -198.44926 
L 689.832663 -196.37584 
L 690.597906 -194.302421 
L 691.320284 -192.229002 
L 691.99272 -190.155583 
L 692.608719 -188.082164 
L 693.162563 -186.008744 
L 693.649488 -183.935325 
L 694.065835 -181.861906 
L 694.409167 -179.788487 
L 694.678345 -177.715067 
L 694.873554 -175.641648 
L 694.996285 -173.568229 
L 695.049264 -171.49481 
L 695.036335 -169.421391 
L 694.9623 -167.347971 
L 694.832724 -165.274552 
L 694.653711 -163.201133 
L 694.431664 -161.127714 
L 694.173035 -159.054294 
L 693.884079 -156.980875 
L 693.570623 -154.907456 
L 693.237858 -152.834037 
L 692.890166 -150.760618 
L 692.530981 -148.687198 
L 692.162706 -146.613779 
L 691.786679 -144.54036 
L 691.403183 -142.466941 
L 691.011525 -140.393521 
L 690.61015 -138.320102 
L 690.196813 -136.246683 
L 689.768778 -134.173264 
L 689.323053 -132.099845 
L 688.856635 -130.026425 
L 688.366768 -127.953006 
L 687.851182 -125.879587 
L 687.308317 -123.806168 
L 686.737509 -121.732749 
L 686.139138 -119.659329 
L 685.514711 -117.58591 
L 684.866901 -115.512491 
L 684.199518 -113.439072 
L 683.517416 -111.365652 
L 682.826362 -109.292233 
L 682.132836 -107.218814 
L 681.443811 -105.145395 
L 680.766501 -103.071976 
L 680.108092 -100.998556 
L 679.475482 -98.925137 
L 678.875026 -96.851718 
L 678.312311 -94.778299 
L 677.791965 -92.704879 
L 677.317509 -90.63146 
L 676.891252 -88.558041 
L 676.514242 -86.484622 
L 676.186271 -84.411203 
L 675.905915 -82.337783 
L 675.670637 -80.264364 
L 675.476913 -78.190945 
L 675.3204 -76.117526 
L 675.196119 -74.044107 
L 675.09866 -71.970687 
L 675.022388 -69.897268 
L 674.961646 -67.823849 
L 674.91095 -65.75043 
L 674.865161 -63.67701 
L 674.819639 -61.603591 
L 674.770361 -59.530172 
L 674.714014 -57.456753 
L 674.64805 -55.383334 
L 674.570707 -53.309914 
L 674.481001 -51.236495 
L 674.378684 -49.163076 
L 674.264179 -47.089657 
L 674.13849 -45.016237 
L 674.003108 -42.942818 
L 673.859889 -40.869399 
L 673.710943 -38.79598 
L 673.558522 -36.722561 
L 673.404907 -34.649141 
z
" id="m8c4525497b" style="stroke:#414141;stroke-width:2;"/>
    </defs>
    <g clip-path="url(#p5cc3db7939)">
     <use style="fill:#e270db;stroke:#414141;stroke-width:2;" x="0" xlink:href="#m8c4525497b" y="391.910113"/>
    </g>
   </g>
   <g id="line2d_1">
    <path clip-path="url(#p5cc3db7939)" d="M 49.9631 237.607987 
L 719.5631 237.607987 
" style="fill:none;stroke:#404040;stroke-dasharray:5.55,2.4;stroke-dashoffset:0;stroke-width:1.5;"/>
   </g>
   <g id="line2d_2">
    <path clip-path="url(#p5cc3db7939)" d="M 97.791671 282.743803 
L 97.791671 167.435254 
" style="fill:none;stroke:#414141;stroke-linecap:round;stroke-width:2;"/>
   </g>
   <g id="line2d_3">
    <path clip-path="url(#p5cc3db7939)" d="M 97.791671 252.931733 
L 97.791671 209.666514 
" style="fill:none;stroke:#414141;stroke-linecap:round;stroke-width:6;"/>
   </g>
   <g id="line2d_4">
    <path clip-path="url(#p5cc3db7939)" d="M 193.448814 292.007067 
L 193.448814 205.923873 
" style="fill:none;stroke:#414141;stroke-linecap:round;stroke-width:2;"/>
   </g>
   <g id="line2d_5">
    <path clip-path="url(#p5cc3db7939)" d="M 193.448814 262.641245 
L 193.448814 222.404999 
" style="fill:none;stroke:#414141;stroke-linecap:round;stroke-width:6;"/>
   </g>
   <g id="line2d_6">
    <path clip-path="url(#p5cc3db7939)" d="M 289.105957 305.009223 
L 289.105957 211.336741 
" style="fill:none;stroke:#414141;stroke-linecap:round;stroke-width:2;"/>
   </g>
   <g id="line2d_7">
    <path clip-path="url(#p5cc3db7939)" d="M 289.105957 266.011992 
L 289.105957 220.502727 
" style="fill:none;stroke:#414141;stroke-linecap:round;stroke-width:6;"/>
   </g>
   <g id="line2d_8">
    <path clip-path="url(#p5cc3db7939)" d="M 384.7631 282.823315 
L 384.7631 193.584421 
" style="fill:none;stroke:#414141;stroke-linecap:round;stroke-width:2;"/>
   </g>
   <g id="line2d_9">
    <path clip-path="url(#p5cc3db7939)" d="M 384.7631 251.631326 
L 384.7631 220.833308 
" style="fill:none;stroke:#414141;stroke-linecap:round;stroke-width:6;"/>
   </g>
   <g id="line2d_10">
    <path clip-path="url(#p5cc3db7939)" d="M 480.420243 261.776678 
L 480.420243 204.692758 
" style="fill:none;stroke:#414141;stroke-linecap:round;stroke-width:2;"/>
   </g>
   <g id="line2d_11">
    <path clip-path="url(#p5cc3db7939)" d="M 480.420243 247.646703 
L 480.420243 215.010657 
" style="fill:none;stroke:#414141;stroke-linecap:round;stroke-width:6;"/>
   </g>
   <g id="line2d_12">
    <path clip-path="url(#p5cc3db7939)" d="M 576.077386 280.352603 
L 576.077386 179.766805 
" style="fill:none;stroke:#414141;stroke-linecap:round;stroke-width:2;"/>
   </g>
   <g id="line2d_13">
    <path clip-path="url(#p5cc3db7939)" d="M 576.077386 248.965294 
L 576.077386 215.702791 
" style="fill:none;stroke:#414141;stroke-linecap:round;stroke-width:6;"/>
   </g>
   <g id="line2d_14">
    <path clip-path="url(#p5cc3db7939)" d="M 671.734529 334.326783 
L 671.734529 174.926656 
" style="fill:none;stroke:#414141;stroke-linecap:round;stroke-width:2;"/>
   </g>
   <g id="line2d_15">
    <path clip-path="url(#p5cc3db7939)" d="M 671.734529 263.740699 
L 671.734529 210.525262 
" style="fill:none;stroke:#414141;stroke-linecap:round;stroke-width:6;"/>
   </g>
   <g id="patch_3">
    <path d="M 49.9631 368.071987 
L 49.9631 41.911987 
" style="fill:none;stroke:#262626;stroke-linecap:square;stroke-linejoin:miter;stroke-width:1.25;"/>
   </g>
   <g id="patch_4">
    <path d="M 719.5631 368.071987 
L 719.5631 41.911987 
" style="fill:none;stroke:#262626;stroke-linecap:square;stroke-linejoin:miter;stroke-width:1.25;"/>
   </g>
   <g id="patch_5">
    <path d="M 49.9631 368.071988 
L 719.5631 368.071988 
" style="fill:none;stroke:#262626;stroke-linecap:square;stroke-linejoin:miter;stroke-width:1.25;"/>
   </g>
   <g id="patch_6">
    <path d="M 49.9631 41.911988 
L 719.5631 41.911988 
" style="fill:none;stroke:#262626;stroke-linecap:square;stroke-linejoin:miter;stroke-width:1.25;"/>
   </g>
   <g id="PathCollection_1">
    <defs>
     <path d="M 0 2 
C 0.530406 2 1.03916 1.789267 1.414214 1.414214 
C 1.789267 1.03916 2 0.530406 2 0 
C 2 -0.530406 1.789267 -1.03916 1.414214 -1.414214 
C 1.03916 -1.789267 0.530406 -2 0 -2 
C -0.530406 -2 -1.03916 -1.789267 -1.414214 -1.414214 
C -1.789267 -1.03916 -2 -0.530406 -2 0 
C -2 0.530406 -1.789267 1.03916 -1.414214 1.414214 
C -1.03916 1.789267 -0.530406 2 0 2 
z
" id="m5e865a4893" style="stroke:#414141;"/>
    </defs>
    <g clip-path="url(#p5cc3db7939)">
     <use style="fill:#ffffff;stroke:#414141;" x="97.791671" xlink:href="#m5e865a4893" y="239.743534"/>
    </g>
   </g>
   <g id="PathCollection_2">
    <g clip-path="url(#p5cc3db7939)">
     <use style="fill:#ffffff;stroke:#414141;" x="193.448814" xlink:href="#m5e865a4893" y="243.635262"/>
    </g>
   </g>
   <g id="PathCollection_3">
    <g clip-path="url(#p5cc3db7939)">
     <use style="fill:#ffffff;stroke:#414141;" x="289.105957" xlink:href="#m5e865a4893" y="238.149678"/>
    </g>
   </g>
   <g id="PathCollection_4">
    <g clip-path="url(#p5cc3db7939)">
     <use style="fill:#ffffff;stroke:#414141;" x="384.7631" xlink:href="#m5e865a4893" y="236.537015"/>
    </g>
   </g>
   <g id="PathCollection_5">
    <g clip-path="url(#p5cc3db7939)">
     <use style="fill:#ffffff;stroke:#414141;" x="480.420243" xlink:href="#m5e865a4893" y="230.797556"/>
    </g>
   </g>
   <g id="PathCollection_6">
    <g clip-path="url(#p5cc3db7939)">
     <use style="fill:#ffffff;stroke:#414141;" x="576.077386" xlink:href="#m5e865a4893" y="228.439307"/>
    </g>
   </g>
   <g id="PathCollection_7">
    <g clip-path="url(#p5cc3db7939)">
     <use style="fill:#ffffff;stroke:#414141;" x="671.734529" xlink:href="#m5e865a4893" y="229.494732"/>
    </g>
   </g>
   <g id="text_15">
    <!-- Accidents after the start of DST in California (20012016) -->
    <defs>
     <path d="M 8.6875 0 
L 8.6875 45.015625 
L 0.921875 45.015625 
L 0.921875 51.859375 
L 8.6875 51.859375 
L 8.6875 57.375 
Q 8.6875 62.59375 9.625 65.140625 
Q 10.890625 68.5625 14.078125 70.671875 
Q 17.28125 72.796875 23.046875 72.796875 
Q 26.765625 72.796875 31.25 71.921875 
L 29.9375 64.265625 
Q 27.203125 64.75 24.75 64.75 
Q 20.75 64.75 19.09375 63.03125 
Q 17.4375 61.328125 17.4375 56.640625 
L 17.4375 51.859375 
L 27.546875 51.859375 
L 27.546875 45.015625 
L 17.4375 45.015625 
L 17.4375 0 
z
" id="ArialMT-66"/>
     <path d="M 58.796875 25.09375 
L 68.265625 22.703125 
Q 65.28125 11.03125 57.546875 4.90625 
Q 49.8125 -1.21875 38.625 -1.21875 
Q 27.046875 -1.21875 19.796875 3.484375 
Q 12.546875 8.203125 8.765625 17.140625 
Q 4.984375 26.078125 4.984375 36.328125 
Q 4.984375 47.515625 9.25 55.828125 
Q 13.53125 64.15625 21.40625 68.46875 
Q 29.296875 72.796875 38.765625 72.796875 
Q 49.515625 72.796875 56.828125 67.328125 
Q 64.15625 61.859375 67.046875 51.953125 
L 57.71875 49.75 
Q 55.21875 57.5625 50.484375 61.125 
Q 45.75 64.703125 38.578125 64.703125 
Q 30.328125 64.703125 24.78125 60.734375 
Q 19.234375 56.78125 16.984375 50.109375 
Q 14.75 43.453125 14.75 36.375 
Q 14.75 27.25 17.40625 20.4375 
Q 20.0625 13.625 25.671875 10.25 
Q 31.296875 6.890625 37.84375 6.890625 
Q 45.796875 6.890625 51.3125 11.46875 
Q 56.84375 16.0625 58.796875 25.09375 
z
" id="ArialMT-43"/>
     <path d="M 6.390625 0 
L 6.390625 71.578125 
L 15.1875 71.578125 
L 15.1875 0 
z
" id="ArialMT-6c"/>
     <path d="M -0.203125 22.359375 
L -0.203125 29.4375 
L 55.421875 29.4375 
L 55.421875 22.359375 
z
" id="ArialMT-2013"/>
    </defs>
    <g style="fill:#262626;" transform="translate(54.5631 26.127187)scale(0.26 -0.26)">
     <use xlink:href="#ArialMT-41"/>
     <use x="66.699219" xlink:href="#ArialMT-63"/>
     <use x="116.699219" xlink:href="#ArialMT-63"/>
     <use x="166.699219" xlink:href="#ArialMT-69"/>
     <use x="188.916016" xlink:href="#ArialMT-64"/>
     <use x="244.53125" xlink:href="#ArialMT-65"/>
     <use x="300.146484" xlink:href="#ArialMT-6e"/>
     <use x="355.761719" xlink:href="#ArialMT-74"/>
     <use x="383.544922" xlink:href="#ArialMT-73"/>
     <use x="433.544922" xlink:href="#ArialMT-20"/>
     <use x="461.328125" xlink:href="#ArialMT-61"/>
     <use x="516.943359" xlink:href="#ArialMT-66"/>
     <use x="544.726562" xlink:href="#ArialMT-74"/>
     <use x="572.509766" xlink:href="#ArialMT-65"/>
     <use x="628.125" xlink:href="#ArialMT-72"/>
     <use x="661.425781" xlink:href="#ArialMT-20"/>
     <use x="689.208984" xlink:href="#ArialMT-74"/>
     <use x="716.992188" xlink:href="#ArialMT-68"/>
     <use x="772.607422" xlink:href="#ArialMT-65"/>
     <use x="828.222656" xlink:href="#ArialMT-20"/>
     <use x="856.005859" xlink:href="#ArialMT-73"/>
     <use x="906.005859" xlink:href="#ArialMT-74"/>
     <use x="933.789062" xlink:href="#ArialMT-61"/>
     <use x="989.404297" xlink:href="#ArialMT-72"/>
     <use x="1022.705078" xlink:href="#ArialMT-74"/>
     <use x="1050.488281" xlink:href="#ArialMT-20"/>
     <use x="1078.271484" xlink:href="#ArialMT-6f"/>
     <use x="1133.886719" xlink:href="#ArialMT-66"/>
     <use x="1161.669922" xlink:href="#ArialMT-20"/>
     <use x="1189.453125" xlink:href="#ArialMT-44"/>
     <use x="1261.669922" xlink:href="#ArialMT-53"/>
     <use x="1328.369141" xlink:href="#ArialMT-54"/>
     <use x="1389.4375" xlink:href="#ArialMT-20"/>
     <use x="1417.220703" xlink:href="#ArialMT-69"/>
     <use x="1439.4375" xlink:href="#ArialMT-6e"/>
     <use x="1495.052734" xlink:href="#ArialMT-20"/>
     <use x="1522.835938" xlink:href="#ArialMT-43"/>
     <use x="1595.052734" xlink:href="#ArialMT-61"/>
     <use x="1650.667969" xlink:href="#ArialMT-6c"/>
     <use x="1672.884766" xlink:href="#ArialMT-69"/>
     <use x="1695.101562" xlink:href="#ArialMT-66"/>
     <use x="1722.884766" xlink:href="#ArialMT-6f"/>
     <use x="1778.5" xlink:href="#ArialMT-72"/>
     <use x="1811.800781" xlink:href="#ArialMT-6e"/>
     <use x="1867.416016" xlink:href="#ArialMT-69"/>
     <use x="1889.632812" xlink:href="#ArialMT-61"/>
     <use x="1945.248047" xlink:href="#ArialMT-20"/>
     <use x="1973.03125" xlink:href="#ArialMT-28"/>
     <use x="2006.332031" xlink:href="#ArialMT-32"/>
     <use x="2061.947266" xlink:href="#ArialMT-30"/>
     <use x="2117.5625" xlink:href="#ArialMT-30"/>
     <use x="2173.177734" xlink:href="#ArialMT-31"/>
     <use x="2228.792969" xlink:href="#ArialMT-2013"/>
     <use x="2284.408203" xlink:href="#ArialMT-32"/>
     <use x="2340.023438" xlink:href="#ArialMT-30"/>
     <use x="2395.638672" xlink:href="#ArialMT-31"/>
     <use x="2451.253906" xlink:href="#ArialMT-36"/>
     <use x="2506.869141" xlink:href="#ArialMT-29"/>
    </g>
   </g>
  </g>
 </g>
 <defs>
  <clipPath id="p5cc3db7939">
   <rect height="326.16" width="669.6" x="49.9631" y="41.911988"/>
  </clipPath>
 </defs>
</svg>
