<?xml version="1.0" encoding="utf-8" standalone="no"?>
<!DOCTYPE svg PUBLIC "-//W3C//DTD SVG 1.1//EN"
  "http://www.w3.org/Graphics/SVG/1.1/DTD/svg11.dtd">
<!-- Created with matplotlib (https://matplotlib.org/) -->
<svg height="391.910113pt" version="1.1" viewBox="0 0 726.7631 391.910113" width="726.7631pt" xmlns="http://www.w3.org/2000/svg" xmlns:xlink="http://www.w3.org/1999/xlink">
 <defs>
  <style type="text/css">
*{stroke-linecap:butt;stroke-linejoin:round;}
  </style>
 </defs>
 <g id="figure_1">
  <g id="patch_1">
   <path d="M 0 391.910113 
L 726.7631 391.910113 
L 726.7631 0 
L 0 0 
z
" style="fill:#ffffff;"/>
  </g>
  <g id="axes_1">
   <g id="patch_2">
    <path d="M 49.9631 368.071988 
L 719.5631 368.071988 
L 719.5631 41.911988 
L 49.9631 41.911988 
z
" style="fill:#ffffff;"/>
   </g>
   <g id="matplotlib.axis_1">
    <g id="xtick_1">
     <g id="text_1">
      <!-- Sunday (DST) -->
      <defs>
       <path d="M 4.5 23 
L 13.421875 23.78125 
Q 14.0625 18.40625 16.375 14.96875 
Q 18.703125 11.53125 23.578125 9.40625 
Q 28.46875 7.28125 34.578125 7.28125 
Q 39.984375 7.28125 44.140625 8.890625 
Q 48.296875 10.5 50.3125 13.296875 
Q 52.34375 16.109375 52.34375 19.4375 
Q 52.34375 22.796875 50.390625 25.3125 
Q 48.4375 27.828125 43.953125 29.546875 
Q 41.0625 30.671875 31.203125 33.03125 
Q 21.34375 35.40625 17.390625 37.5 
Q 12.25 40.1875 9.734375 44.15625 
Q 7.234375 48.140625 7.234375 53.078125 
Q 7.234375 58.5 10.296875 63.203125 
Q 13.375 67.921875 19.28125 70.359375 
Q 25.203125 72.796875 32.421875 72.796875 
Q 40.375 72.796875 46.453125 70.234375 
Q 52.546875 67.671875 55.8125 62.6875 
Q 59.078125 57.71875 59.328125 51.421875 
L 50.25 50.734375 
Q 49.515625 57.515625 45.28125 60.984375 
Q 41.0625 64.453125 32.8125 64.453125 
Q 24.21875 64.453125 20.28125 61.296875 
Q 16.359375 58.15625 16.359375 53.71875 
Q 16.359375 49.859375 19.140625 47.359375 
Q 21.875 44.875 33.421875 42.265625 
Q 44.96875 39.65625 49.265625 37.703125 
Q 55.515625 34.8125 58.484375 30.390625 
Q 61.46875 25.984375 61.46875 20.21875 
Q 61.46875 14.5 58.203125 9.4375 
Q 54.9375 4.390625 48.796875 1.578125 
Q 42.671875 -1.21875 35.015625 -1.21875 
Q 25.296875 -1.21875 18.71875 1.609375 
Q 12.15625 4.4375 8.421875 10.125 
Q 4.6875 15.828125 4.5 23 
z
" id="ArialMT-83"/>
       <path d="M 40.578125 0 
L 40.578125 7.625 
Q 34.515625 -1.171875 24.125 -1.171875 
Q 19.53125 -1.171875 15.546875 0.578125 
Q 11.578125 2.34375 9.640625 5 
Q 7.71875 7.671875 6.9375 11.53125 
Q 6.390625 14.109375 6.390625 19.734375 
L 6.390625 51.859375 
L 15.1875 51.859375 
L 15.1875 23.09375 
Q 15.1875 16.21875 15.71875 13.8125 
Q 16.546875 10.359375 19.234375 8.375 
Q 21.921875 6.390625 25.875 6.390625 
Q 29.828125 6.390625 33.296875 8.421875 
Q 36.765625 10.453125 38.203125 13.9375 
Q 39.65625 17.4375 39.65625 24.078125 
L 39.65625 51.859375 
L 48.4375 51.859375 
L 48.4375 0 
z
" id="ArialMT-117"/>
       <path d="M 6.59375 0 
L 6.59375 51.859375 
L 14.5 51.859375 
L 14.5 44.484375 
Q 20.21875 53.03125 31 53.03125 
Q 35.6875 53.03125 39.625 51.34375 
Q 43.5625 49.65625 45.515625 46.921875 
Q 47.46875 44.1875 48.25 40.4375 
Q 48.734375 37.984375 48.734375 31.890625 
L 48.734375 0 
L 39.9375 0 
L 39.9375 31.546875 
Q 39.9375 36.921875 38.90625 39.578125 
Q 37.890625 42.234375 35.28125 43.8125 
Q 32.671875 45.40625 29.15625 45.40625 
Q 23.53125 45.40625 19.453125 41.84375 
Q 15.375 38.28125 15.375 28.328125 
L 15.375 0 
z
" id="ArialMT-110"/>
       <path d="M 40.234375 0 
L 40.234375 6.546875 
Q 35.296875 -1.171875 25.734375 -1.171875 
Q 19.53125 -1.171875 14.328125 2.25 
Q 9.125 5.671875 6.265625 11.796875 
Q 3.421875 17.921875 3.421875 25.875 
Q 3.421875 33.640625 6 39.96875 
Q 8.59375 46.296875 13.765625 49.65625 
Q 18.953125 53.03125 25.34375 53.03125 
Q 30.03125 53.03125 33.6875 51.046875 
Q 37.359375 49.078125 39.65625 45.90625 
L 39.65625 71.578125 
L 48.390625 71.578125 
L 48.390625 0 
z
M 12.453125 25.875 
Q 12.453125 15.921875 16.640625 10.984375 
Q 20.84375 6.0625 26.5625 6.0625 
Q 32.328125 6.0625 36.34375 10.765625 
Q 40.375 15.484375 40.375 25.140625 
Q 40.375 35.796875 36.265625 40.765625 
Q 32.171875 45.75 26.171875 45.75 
Q 20.3125 45.75 16.375 40.96875 
Q 12.453125 36.1875 12.453125 25.875 
z
" id="ArialMT-100"/>
       <path d="M 40.4375 6.390625 
Q 35.546875 2.25 31.03125 0.53125 
Q 26.515625 -1.171875 21.34375 -1.171875 
Q 12.796875 -1.171875 8.203125 3 
Q 3.609375 7.171875 3.609375 13.671875 
Q 3.609375 17.484375 5.34375 20.625 
Q 7.078125 23.78125 9.890625 25.6875 
Q 12.703125 27.59375 16.21875 28.5625 
Q 18.796875 29.25 24.03125 29.890625 
Q 34.671875 31.15625 39.703125 32.90625 
Q 39.75 34.71875 39.75 35.203125 
Q 39.75 40.578125 37.25 42.78125 
Q 33.890625 45.75 27.25 45.75 
Q 21.046875 45.75 18.09375 43.578125 
Q 15.140625 41.40625 13.71875 35.890625 
L 5.125 37.0625 
Q 6.296875 42.578125 8.984375 45.96875 
Q 11.671875 49.359375 16.75 51.1875 
Q 21.828125 53.03125 28.515625 53.03125 
Q 35.15625 53.03125 39.296875 51.46875 
Q 43.453125 49.90625 45.40625 47.53125 
Q 47.359375 45.171875 48.140625 41.546875 
Q 48.578125 39.3125 48.578125 33.453125 
L 48.578125 21.734375 
Q 48.578125 9.46875 49.140625 6.21875 
Q 49.703125 2.984375 51.375 0 
L 42.1875 0 
Q 40.828125 2.734375 40.4375 6.390625 
z
M 39.703125 26.03125 
Q 34.90625 24.078125 25.34375 22.703125 
Q 19.921875 21.921875 17.671875 20.9375 
Q 15.4375 19.96875 14.203125 18.09375 
Q 12.984375 16.21875 12.984375 13.921875 
Q 12.984375 10.40625 15.640625 8.0625 
Q 18.3125 5.71875 23.4375 5.71875 
Q 28.515625 5.71875 32.46875 7.9375 
Q 36.421875 10.15625 38.28125 14.015625 
Q 39.703125 17 39.703125 22.796875 
z
" id="ArialMT-97"/>
       <path d="M 6.203125 -19.96875 
L 5.21875 -11.71875 
Q 8.109375 -12.5 10.25 -12.5 
Q 13.1875 -12.5 14.9375 -11.515625 
Q 16.703125 -10.546875 17.828125 -8.796875 
Q 18.65625 -7.46875 20.515625 -2.25 
Q 20.75 -1.515625 21.296875 -0.09375 
L 1.609375 51.859375 
L 11.078125 51.859375 
L 21.875 21.828125 
Q 23.96875 16.109375 25.640625 9.8125 
Q 27.15625 15.875 29.25 21.625 
L 40.328125 51.859375 
L 49.125 51.859375 
L 29.390625 -0.875 
Q 26.21875 -9.421875 24.46875 -12.640625 
Q 22.125 -17 19.09375 -19.015625 
Q 16.0625 -21.046875 11.859375 -21.046875 
Q 9.328125 -21.046875 6.203125 -19.96875 
z
" id="ArialMT-121"/>
       <path id="ArialMT-32"/>
       <path d="M 23.390625 -21.046875 
Q 16.109375 -11.859375 11.078125 0.4375 
Q 6.0625 12.75 6.0625 25.921875 
Q 6.0625 37.546875 9.8125 48.1875 
Q 14.203125 60.546875 23.390625 72.796875 
L 29.6875 72.796875 
Q 23.78125 62.640625 21.875 58.296875 
Q 18.890625 51.5625 17.1875 44.234375 
Q 15.09375 35.109375 15.09375 25.875 
Q 15.09375 2.390625 29.6875 -21.046875 
z
" id="ArialMT-40"/>
       <path d="M 7.71875 0 
L 7.71875 71.578125 
L 32.375 71.578125 
Q 40.71875 71.578125 45.125 70.5625 
Q 51.265625 69.140625 55.609375 65.4375 
Q 61.28125 60.640625 64.078125 53.1875 
Q 66.890625 45.75 66.890625 36.1875 
Q 66.890625 28.03125 64.984375 21.734375 
Q 63.09375 15.4375 60.109375 11.296875 
Q 57.125 7.171875 53.578125 4.796875 
Q 50.046875 2.4375 45.046875 1.21875 
Q 40.046875 0 33.546875 0 
z
M 17.1875 8.453125 
L 32.46875 8.453125 
Q 39.546875 8.453125 43.578125 9.765625 
Q 47.609375 11.078125 50 13.484375 
Q 53.375 16.84375 55.25 22.53125 
Q 57.125 28.21875 57.125 36.328125 
Q 57.125 47.5625 53.4375 53.59375 
Q 49.75 59.625 44.484375 61.671875 
Q 40.671875 63.140625 32.234375 63.140625 
L 17.1875 63.140625 
z
" id="ArialMT-68"/>
       <path d="M 25.921875 0 
L 25.921875 63.140625 
L 2.34375 63.140625 
L 2.34375 71.578125 
L 59.078125 71.578125 
L 59.078125 63.140625 
L 35.40625 63.140625 
L 35.40625 0 
z
" id="ArialMT-84"/>
       <path d="M 12.359375 -21.046875 
L 6.0625 -21.046875 
Q 20.65625 2.390625 20.65625 25.875 
Q 20.65625 35.0625 18.5625 44.09375 
Q 16.890625 51.421875 13.921875 58.15625 
Q 12.015625 62.546875 6.0625 72.796875 
L 12.359375 72.796875 
Q 21.53125 60.546875 25.921875 48.1875 
Q 29.6875 37.546875 29.6875 25.921875 
Q 29.6875 12.75 24.625 0.4375 
Q 19.578125 -11.859375 12.359375 -21.046875 
z
" id="ArialMT-41"/>
      </defs>
      <g style="fill:#262626;" transform="translate(53.445578 381.76355)scale(0.14 -0.14)">
       <use xlink:href="#ArialMT-83"/>
       <use x="66.699219" xlink:href="#ArialMT-117"/>
       <use x="122.314453" xlink:href="#ArialMT-110"/>
       <use x="177.929688" xlink:href="#ArialMT-100"/>
       <use x="233.544922" xlink:href="#ArialMT-97"/>
       <use x="289.160156" xlink:href="#ArialMT-121"/>
       <use x="339.160156" xlink:href="#ArialMT-32"/>
       <use x="366.943359" xlink:href="#ArialMT-40"/>
       <use x="400.244141" xlink:href="#ArialMT-68"/>
       <use x="472.460938" xlink:href="#ArialMT-83"/>
       <use x="539.160156" xlink:href="#ArialMT-84"/>
       <use x="600.244141" xlink:href="#ArialMT-41"/>
      </g>
     </g>
    </g>
    <g id="xtick_2">
     <g id="text_2">
      <!-- Monday -->
      <defs>
       <path d="M 7.421875 0 
L 7.421875 71.578125 
L 21.6875 71.578125 
L 38.625 20.90625 
Q 40.96875 13.8125 42.046875 10.296875 
Q 43.265625 14.203125 45.84375 21.78125 
L 62.984375 71.578125 
L 75.734375 71.578125 
L 75.734375 0 
L 66.609375 0 
L 66.609375 59.90625 
L 45.796875 0 
L 37.25 0 
L 16.546875 60.9375 
L 16.546875 0 
z
" id="ArialMT-77"/>
       <path d="M 3.328125 25.921875 
Q 3.328125 40.328125 11.328125 47.265625 
Q 18.015625 53.03125 27.640625 53.03125 
Q 38.328125 53.03125 45.109375 46.015625 
Q 51.90625 39.015625 51.90625 26.65625 
Q 51.90625 16.65625 48.90625 10.90625 
Q 45.90625 5.171875 40.15625 2 
Q 34.421875 -1.171875 27.640625 -1.171875 
Q 16.75 -1.171875 10.03125 5.8125 
Q 3.328125 12.796875 3.328125 25.921875 
z
M 12.359375 25.921875 
Q 12.359375 15.96875 16.703125 11.015625 
Q 21.046875 6.0625 27.640625 6.0625 
Q 34.1875 6.0625 38.53125 11.03125 
Q 42.875 16.015625 42.875 26.21875 
Q 42.875 35.84375 38.5 40.796875 
Q 34.125 45.75 27.640625 45.75 
Q 21.046875 45.75 16.703125 40.8125 
Q 12.359375 35.890625 12.359375 25.921875 
z
" id="ArialMT-111"/>
      </defs>
      <g style="fill:#262626;" transform="translate(168.547408 381.592925)scale(0.14 -0.14)">
       <use xlink:href="#ArialMT-77"/>
       <use x="83.300781" xlink:href="#ArialMT-111"/>
       <use x="138.916016" xlink:href="#ArialMT-110"/>
       <use x="194.53125" xlink:href="#ArialMT-100"/>
       <use x="250.146484" xlink:href="#ArialMT-97"/>
       <use x="305.761719" xlink:href="#ArialMT-121"/>
      </g>
     </g>
    </g>
    <g id="xtick_3">
     <g id="text_3">
      <!-- Tuesday -->
      <defs>
       <path d="M 42.09375 16.703125 
L 51.171875 15.578125 
Q 49.03125 7.625 43.21875 3.21875 
Q 37.40625 -1.171875 28.375 -1.171875 
Q 17 -1.171875 10.328125 5.828125 
Q 3.65625 12.84375 3.65625 25.484375 
Q 3.65625 38.578125 10.390625 45.796875 
Q 17.140625 53.03125 27.875 53.03125 
Q 38.28125 53.03125 44.875 45.953125 
Q 51.46875 38.875 51.46875 26.03125 
Q 51.46875 25.25 51.421875 23.6875 
L 12.75 23.6875 
Q 13.234375 15.140625 17.578125 10.59375 
Q 21.921875 6.0625 28.421875 6.0625 
Q 33.25 6.0625 36.671875 8.59375 
Q 40.09375 11.140625 42.09375 16.703125 
z
M 13.234375 30.90625 
L 42.1875 30.90625 
Q 41.609375 37.453125 38.875 40.71875 
Q 34.671875 45.796875 27.984375 45.796875 
Q 21.921875 45.796875 17.796875 41.75 
Q 13.671875 37.703125 13.234375 30.90625 
z
" id="ArialMT-101"/>
       <path d="M 3.078125 15.484375 
L 11.765625 16.84375 
Q 12.5 11.625 15.84375 8.84375 
Q 19.1875 6.0625 25.203125 6.0625 
Q 31.25 6.0625 34.171875 8.515625 
Q 37.109375 10.984375 37.109375 14.3125 
Q 37.109375 17.28125 34.515625 19 
Q 32.71875 20.171875 25.53125 21.96875 
Q 15.875 24.421875 12.140625 26.203125 
Q 8.40625 27.984375 6.46875 31.125 
Q 4.546875 34.28125 4.546875 38.09375 
Q 4.546875 41.546875 6.125 44.5 
Q 7.71875 47.46875 10.453125 49.421875 
Q 12.5 50.921875 16.03125 51.96875 
Q 19.578125 53.03125 23.640625 53.03125 
Q 29.734375 53.03125 34.34375 51.265625 
Q 38.96875 49.515625 41.15625 46.5 
Q 43.359375 43.5 44.1875 38.484375 
L 35.59375 37.3125 
Q 35.015625 41.3125 32.203125 43.546875 
Q 29.390625 45.796875 24.265625 45.796875 
Q 18.21875 45.796875 15.625 43.796875 
Q 13.03125 41.796875 13.03125 39.109375 
Q 13.03125 37.40625 14.109375 36.03125 
Q 15.1875 34.625 17.484375 33.6875 
Q 18.796875 33.203125 25.25 31.453125 
Q 34.578125 28.953125 38.25 27.359375 
Q 41.9375 25.78125 44.03125 22.75 
Q 46.140625 19.734375 46.140625 15.234375 
Q 46.140625 10.84375 43.578125 6.953125 
Q 41.015625 3.078125 36.171875 0.953125 
Q 31.34375 -1.171875 25.25 -1.171875 
Q 15.140625 -1.171875 9.84375 3.03125 
Q 4.546875 7.234375 3.078125 15.484375 
z
" id="ArialMT-115"/>
      </defs>
      <g style="fill:#262626;" transform="translate(262.522363 381.592925)scale(0.14 -0.14)">
       <use xlink:href="#ArialMT-84"/>
       <use x="57.333984" xlink:href="#ArialMT-117"/>
       <use x="112.949219" xlink:href="#ArialMT-101"/>
       <use x="168.564453" xlink:href="#ArialMT-115"/>
       <use x="218.564453" xlink:href="#ArialMT-100"/>
       <use x="274.179688" xlink:href="#ArialMT-97"/>
       <use x="329.794922" xlink:href="#ArialMT-121"/>
      </g>
     </g>
    </g>
    <g id="xtick_4">
     <g id="text_4">
      <!-- Wednesday -->
      <defs>
       <path d="M 20.21875 0 
L 1.21875 71.578125 
L 10.9375 71.578125 
L 21.828125 24.65625 
Q 23.578125 17.28125 24.859375 10.015625 
Q 27.59375 21.484375 28.078125 23.25 
L 41.703125 71.578125 
L 53.125 71.578125 
L 63.375 35.359375 
Q 67.234375 21.875 68.953125 10.015625 
Q 70.3125 16.796875 72.515625 25.59375 
L 83.734375 71.578125 
L 93.265625 71.578125 
L 73.640625 0 
L 64.5 0 
L 49.421875 54.546875 
Q 47.515625 61.375 47.171875 62.9375 
Q 46.046875 58.015625 45.0625 54.546875 
L 29.890625 0 
z
" id="ArialMT-87"/>
      </defs>
      <g style="fill:#262626;" transform="translate(347.922319 381.592925)scale(0.14 -0.14)">
       <use xlink:href="#ArialMT-87"/>
       <use x="92.634766" xlink:href="#ArialMT-101"/>
       <use x="148.25" xlink:href="#ArialMT-100"/>
       <use x="203.865234" xlink:href="#ArialMT-110"/>
       <use x="259.480469" xlink:href="#ArialMT-101"/>
       <use x="315.095703" xlink:href="#ArialMT-115"/>
       <use x="365.095703" xlink:href="#ArialMT-100"/>
       <use x="420.710938" xlink:href="#ArialMT-97"/>
       <use x="476.326172" xlink:href="#ArialMT-121"/>
      </g>
     </g>
    </g>
    <g id="xtick_5">
     <g id="text_5">
      <!-- Thursday -->
      <defs>
       <path d="M 6.59375 0 
L 6.59375 71.578125 
L 15.375 71.578125 
L 15.375 45.90625 
Q 21.53125 53.03125 30.90625 53.03125 
Q 36.671875 53.03125 40.921875 50.75 
Q 45.171875 48.484375 47 44.484375 
Q 48.828125 40.484375 48.828125 32.859375 
L 48.828125 0 
L 40.046875 0 
L 40.046875 32.859375 
Q 40.046875 39.453125 37.1875 42.453125 
Q 34.328125 45.453125 29.109375 45.453125 
Q 25.203125 45.453125 21.75 43.421875 
Q 18.3125 41.40625 16.84375 37.9375 
Q 15.375 34.46875 15.375 28.375 
L 15.375 0 
z
" id="ArialMT-104"/>
       <path d="M 6.5 0 
L 6.5 51.859375 
L 14.40625 51.859375 
L 14.40625 44 
Q 17.4375 49.515625 20 51.265625 
Q 22.5625 53.03125 25.640625 53.03125 
Q 30.078125 53.03125 34.671875 50.203125 
L 31.640625 42.046875 
Q 28.421875 43.953125 25.203125 43.953125 
Q 22.3125 43.953125 20.015625 42.21875 
Q 17.71875 40.484375 16.75 37.40625 
Q 15.28125 32.71875 15.28125 27.15625 
L 15.28125 0 
z
" id="ArialMT-114"/>
      </defs>
      <g style="fill:#262626;" transform="translate(451.243368 381.592925)scale(0.14 -0.14)">
       <use xlink:href="#ArialMT-84"/>
       <use x="61.083984" xlink:href="#ArialMT-104"/>
       <use x="116.699219" xlink:href="#ArialMT-117"/>
       <use x="172.314453" xlink:href="#ArialMT-114"/>
       <use x="205.615234" xlink:href="#ArialMT-115"/>
       <use x="255.615234" xlink:href="#ArialMT-100"/>
       <use x="311.230469" xlink:href="#ArialMT-97"/>
       <use x="366.845703" xlink:href="#ArialMT-121"/>
      </g>
     </g>
    </g>
    <g id="xtick_6">
     <g id="text_6">
      <!-- Friday -->
      <defs>
       <path d="M 8.203125 0 
L 8.203125 71.578125 
L 56.5 71.578125 
L 56.5 63.140625 
L 17.671875 63.140625 
L 17.671875 40.96875 
L 51.265625 40.96875 
L 51.265625 32.515625 
L 17.671875 32.515625 
L 17.671875 0 
z
" id="ArialMT-70"/>
       <path d="M 6.640625 61.46875 
L 6.640625 71.578125 
L 15.4375 71.578125 
L 15.4375 61.46875 
z
M 6.640625 0 
L 6.640625 51.859375 
L 15.4375 51.859375 
L 15.4375 0 
z
" id="ArialMT-105"/>
      </defs>
      <g style="fill:#262626;" transform="translate(556.630511 381.592925)scale(0.14 -0.14)">
       <use xlink:href="#ArialMT-70"/>
       <use x="61.083984" xlink:href="#ArialMT-114"/>
       <use x="94.384766" xlink:href="#ArialMT-105"/>
       <use x="116.601562" xlink:href="#ArialMT-100"/>
       <use x="172.216797" xlink:href="#ArialMT-97"/>
       <use x="227.832031" xlink:href="#ArialMT-121"/>
      </g>
     </g>
    </g>
    <g id="xtick_7">
     <g id="text_7">
      <!-- Saturday -->
      <defs>
       <path d="M 25.78125 7.859375 
L 27.046875 0.09375 
Q 23.34375 -0.6875 20.40625 -0.6875 
Q 15.625 -0.6875 12.984375 0.828125 
Q 10.359375 2.34375 9.28125 4.8125 
Q 8.203125 7.28125 8.203125 15.1875 
L 8.203125 45.015625 
L 1.765625 45.015625 
L 1.765625 51.859375 
L 8.203125 51.859375 
L 8.203125 64.703125 
L 16.9375 69.96875 
L 16.9375 51.859375 
L 25.78125 51.859375 
L 25.78125 45.015625 
L 16.9375 45.015625 
L 16.9375 14.703125 
Q 16.9375 10.9375 17.40625 9.859375 
Q 17.875 8.796875 18.921875 8.15625 
Q 19.96875 7.515625 21.921875 7.515625 
Q 23.390625 7.515625 25.78125 7.859375 
z
" id="ArialMT-116"/>
      </defs>
      <g style="fill:#262626;" transform="translate(643.719216 381.76355)scale(0.14 -0.14)">
       <use xlink:href="#ArialMT-83"/>
       <use x="66.699219" xlink:href="#ArialMT-97"/>
       <use x="122.314453" xlink:href="#ArialMT-116"/>
       <use x="150.097656" xlink:href="#ArialMT-117"/>
       <use x="205.712891" xlink:href="#ArialMT-114"/>
       <use x="239.013672" xlink:href="#ArialMT-100"/>
       <use x="294.628906" xlink:href="#ArialMT-97"/>
       <use x="350.244141" xlink:href="#ArialMT-121"/>
      </g>
     </g>
    </g>
   </g>
   <g id="matplotlib.axis_2">
    <g id="ytick_1">
     <g id="text_8">
      <!-- 0.6 -->
      <defs>
       <path d="M 4.15625 35.296875 
Q 4.15625 48 6.765625 55.734375 
Q 9.375 63.484375 14.515625 67.671875 
Q 19.671875 71.875 27.484375 71.875 
Q 33.25 71.875 37.59375 69.546875 
Q 41.9375 67.234375 44.765625 62.859375 
Q 47.609375 58.5 49.21875 52.21875 
Q 50.828125 45.953125 50.828125 35.296875 
Q 50.828125 22.703125 48.234375 14.96875 
Q 45.65625 7.234375 40.5 3 
Q 35.359375 -1.21875 27.484375 -1.21875 
Q 17.140625 -1.21875 11.234375 6.203125 
Q 4.15625 15.140625 4.15625 35.296875 
z
M 13.1875 35.296875 
Q 13.1875 17.671875 17.3125 11.828125 
Q 21.4375 6 27.484375 6 
Q 33.546875 6 37.671875 11.859375 
Q 41.796875 17.71875 41.796875 35.296875 
Q 41.796875 52.984375 37.671875 58.78125 
Q 33.546875 64.59375 27.390625 64.59375 
Q 21.34375 64.59375 17.71875 59.46875 
Q 13.1875 52.9375 13.1875 35.296875 
z
" id="ArialMT-48"/>
       <path d="M 9.078125 0 
L 9.078125 10.015625 
L 19.09375 10.015625 
L 19.09375 0 
z
" id="ArialMT-46"/>
       <path d="M 49.75 54.046875 
L 41.015625 53.375 
Q 39.84375 58.546875 37.703125 60.890625 
Q 34.125 64.65625 28.90625 64.65625 
Q 24.703125 64.65625 21.53125 62.3125 
Q 17.390625 59.28125 14.984375 53.46875 
Q 12.59375 47.65625 12.5 36.921875 
Q 15.671875 41.75 20.265625 44.09375 
Q 24.859375 46.4375 29.890625 46.4375 
Q 38.671875 46.4375 44.84375 39.96875 
Q 51.03125 33.5 51.03125 23.25 
Q 51.03125 16.5 48.125 10.71875 
Q 45.21875 4.9375 40.140625 1.859375 
Q 35.0625 -1.21875 28.609375 -1.21875 
Q 17.625 -1.21875 10.6875 6.859375 
Q 3.765625 14.9375 3.765625 33.5 
Q 3.765625 54.25 11.421875 63.671875 
Q 18.109375 71.875 29.4375 71.875 
Q 37.890625 71.875 43.28125 67.140625 
Q 48.6875 62.40625 49.75 54.046875 
z
M 13.875 23.1875 
Q 13.875 18.65625 15.796875 14.5 
Q 17.71875 10.359375 21.1875 8.171875 
Q 24.65625 6 28.46875 6 
Q 34.03125 6 38.03125 10.484375 
Q 42.046875 14.984375 42.046875 22.703125 
Q 42.046875 30.125 38.078125 34.390625 
Q 34.125 38.671875 28.125 38.671875 
Q 22.171875 38.671875 18.015625 34.390625 
Q 13.875 30.125 13.875 23.1875 
z
" id="ArialMT-54"/>
      </defs>
      <g style="fill:#262626;" transform="translate(27.0031 358.901587)scale(0.14 -0.14)">
       <use xlink:href="#ArialMT-48"/>
       <use x="55.615234" xlink:href="#ArialMT-46"/>
       <use x="83.398438" xlink:href="#ArialMT-54"/>
      </g>
     </g>
    </g>
    <g id="ytick_2">
     <g id="text_9">
      <!-- 0.8 -->
      <defs>
       <path d="M 17.671875 38.8125 
Q 12.203125 40.828125 9.5625 44.53125 
Q 6.9375 48.25 6.9375 53.421875 
Q 6.9375 61.234375 12.546875 66.546875 
Q 18.171875 71.875 27.484375 71.875 
Q 36.859375 71.875 42.578125 66.421875 
Q 48.296875 60.984375 48.296875 53.171875 
Q 48.296875 48.1875 45.671875 44.5 
Q 43.0625 40.828125 37.75 38.8125 
Q 44.34375 36.671875 47.78125 31.875 
Q 51.21875 27.09375 51.21875 20.453125 
Q 51.21875 11.28125 44.71875 5.03125 
Q 38.234375 -1.21875 27.640625 -1.21875 
Q 17.046875 -1.21875 10.546875 5.046875 
Q 4.046875 11.328125 4.046875 20.703125 
Q 4.046875 27.6875 7.59375 32.390625 
Q 11.140625 37.109375 17.671875 38.8125 
z
M 15.921875 53.71875 
Q 15.921875 48.640625 19.1875 45.40625 
Q 22.46875 42.1875 27.6875 42.1875 
Q 32.765625 42.1875 36.015625 45.375 
Q 39.265625 48.578125 39.265625 53.21875 
Q 39.265625 58.0625 35.90625 61.359375 
Q 32.5625 64.65625 27.59375 64.65625 
Q 22.5625 64.65625 19.234375 61.421875 
Q 15.921875 58.203125 15.921875 53.71875 
z
M 13.09375 20.65625 
Q 13.09375 16.890625 14.875 13.375 
Q 16.65625 9.859375 20.171875 7.921875 
Q 23.6875 6 27.734375 6 
Q 34.03125 6 38.125 10.046875 
Q 42.234375 14.109375 42.234375 20.359375 
Q 42.234375 26.703125 38.015625 30.859375 
Q 33.796875 35.015625 27.4375 35.015625 
Q 21.234375 35.015625 17.15625 30.90625 
Q 13.09375 26.8125 13.09375 20.65625 
z
" id="ArialMT-56"/>
      </defs>
      <g style="fill:#262626;" transform="translate(27.0031 302.178108)scale(0.14 -0.14)">
       <use xlink:href="#ArialMT-48"/>
       <use x="55.615234" xlink:href="#ArialMT-46"/>
       <use x="83.398438" xlink:href="#ArialMT-56"/>
      </g>
     </g>
    </g>
    <g id="ytick_3">
     <g id="text_10">
      <!-- 1.0 -->
      <defs>
       <path d="M 37.25 0 
L 28.46875 0 
L 28.46875 56 
Q 25.296875 52.984375 20.140625 49.953125 
Q 14.984375 46.921875 10.890625 45.40625 
L 10.890625 53.90625 
Q 18.265625 57.375 23.78125 62.296875 
Q 29.296875 67.234375 31.59375 71.875 
L 37.25 71.875 
z
" id="ArialMT-49"/>
      </defs>
      <g style="fill:#262626;" transform="translate(27.0031 245.45463)scale(0.14 -0.14)">
       <use xlink:href="#ArialMT-49"/>
       <use x="55.615234" xlink:href="#ArialMT-46"/>
       <use x="83.398438" xlink:href="#ArialMT-48"/>
      </g>
     </g>
    </g>
    <g id="ytick_4">
     <g id="text_11">
      <!-- 1.2 -->
      <defs>
       <path d="M 50.34375 8.453125 
L 50.34375 0 
L 3.03125 0 
Q 2.9375 3.171875 4.046875 6.109375 
Q 5.859375 10.9375 9.828125 15.625 
Q 13.8125 20.3125 21.34375 26.46875 
Q 33.015625 36.03125 37.109375 41.625 
Q 41.21875 47.21875 41.21875 52.203125 
Q 41.21875 57.421875 37.46875 61 
Q 33.734375 64.59375 27.734375 64.59375 
Q 21.390625 64.59375 17.578125 60.78125 
Q 13.765625 56.984375 13.71875 50.25 
L 4.6875 51.171875 
Q 5.609375 61.28125 11.65625 66.578125 
Q 17.71875 71.875 27.9375 71.875 
Q 38.234375 71.875 44.234375 66.15625 
Q 50.25 60.453125 50.25 52 
Q 50.25 47.703125 48.484375 43.546875 
Q 46.734375 39.40625 42.65625 34.8125 
Q 38.578125 30.21875 29.109375 22.21875 
Q 21.1875 15.578125 18.9375 13.203125 
Q 16.703125 10.84375 15.234375 8.453125 
z
" id="ArialMT-50"/>
      </defs>
      <g style="fill:#262626;" transform="translate(27.0031 188.731152)scale(0.14 -0.14)">
       <use xlink:href="#ArialMT-49"/>
       <use x="55.615234" xlink:href="#ArialMT-46"/>
       <use x="83.398438" xlink:href="#ArialMT-50"/>
      </g>
     </g>
    </g>
    <g id="ytick_5">
     <g id="text_12">
      <!-- 1.4 -->
      <defs>
       <path d="M 32.328125 0 
L 32.328125 17.140625 
L 1.265625 17.140625 
L 1.265625 25.203125 
L 33.9375 71.578125 
L 41.109375 71.578125 
L 41.109375 25.203125 
L 50.78125 25.203125 
L 50.78125 17.140625 
L 41.109375 17.140625 
L 41.109375 0 
z
M 32.328125 25.203125 
L 32.328125 57.46875 
L 9.90625 25.203125 
z
" id="ArialMT-52"/>
      </defs>
      <g style="fill:#262626;" transform="translate(27.0031 132.007674)scale(0.14 -0.14)">
       <use xlink:href="#ArialMT-49"/>
       <use x="55.615234" xlink:href="#ArialMT-46"/>
       <use x="83.398438" xlink:href="#ArialMT-52"/>
      </g>
     </g>
    </g>
    <g id="ytick_6">
     <g id="text_13">
      <!-- 1.6 -->
      <g style="fill:#262626;" transform="translate(27.0031 75.284195)scale(0.14 -0.14)">
       <use xlink:href="#ArialMT-49"/>
       <use x="55.615234" xlink:href="#ArialMT-46"/>
       <use x="83.398438" xlink:href="#ArialMT-54"/>
      </g>
     </g>
    </g>
    <g id="text_14">
     <!-- Crash Ratio: DST Week / Week After -->
     <defs>
      <path d="M 58.796875 25.09375 
L 68.265625 22.703125 
Q 65.28125 11.03125 57.546875 4.90625 
Q 49.8125 -1.21875 38.625 -1.21875 
Q 27.046875 -1.21875 19.796875 3.484375 
Q 12.546875 8.203125 8.765625 17.140625 
Q 4.984375 26.078125 4.984375 36.328125 
Q 4.984375 47.515625 9.25 55.828125 
Q 13.53125 64.15625 21.40625 68.46875 
Q 29.296875 72.796875 38.765625 72.796875 
Q 49.515625 72.796875 56.828125 67.328125 
Q 64.15625 61.859375 67.046875 51.953125 
L 57.71875 49.75 
Q 55.21875 57.5625 50.484375 61.125 
Q 45.75 64.703125 38.578125 64.703125 
Q 30.328125 64.703125 24.78125 60.734375 
Q 19.234375 56.78125 16.984375 50.109375 
Q 14.75 43.453125 14.75 36.375 
Q 14.75 27.25 17.40625 20.4375 
Q 20.0625 13.625 25.671875 10.25 
Q 31.296875 6.890625 37.84375 6.890625 
Q 45.796875 6.890625 51.3125 11.46875 
Q 56.84375 16.0625 58.796875 25.09375 
z
" id="ArialMT-67"/>
      <path d="M 7.859375 0 
L 7.859375 71.578125 
L 39.59375 71.578125 
Q 49.171875 71.578125 54.140625 69.640625 
Q 59.125 67.71875 62.109375 62.828125 
Q 65.09375 57.953125 65.09375 52.046875 
Q 65.09375 44.4375 60.15625 39.203125 
Q 55.21875 33.984375 44.921875 32.5625 
Q 48.6875 30.765625 50.640625 29 
Q 54.78125 25.203125 58.5 19.484375 
L 70.953125 0 
L 59.03125 0 
L 49.5625 14.890625 
Q 45.40625 21.34375 42.71875 24.75 
Q 40.046875 28.171875 37.921875 29.53125 
Q 35.796875 30.90625 33.59375 31.453125 
Q 31.984375 31.78125 28.328125 31.78125 
L 17.328125 31.78125 
L 17.328125 0 
z
M 17.328125 39.984375 
L 37.703125 39.984375 
Q 44.1875 39.984375 47.84375 41.328125 
Q 51.515625 42.671875 53.421875 45.625 
Q 55.328125 48.578125 55.328125 52.046875 
Q 55.328125 57.125 51.640625 60.390625 
Q 47.953125 63.671875 39.984375 63.671875 
L 17.328125 63.671875 
z
" id="ArialMT-82"/>
      <path d="M 9.03125 41.84375 
L 9.03125 51.859375 
L 19.046875 51.859375 
L 19.046875 41.84375 
z
M 9.03125 0 
L 9.03125 10.015625 
L 19.046875 10.015625 
L 19.046875 0 
z
" id="ArialMT-58"/>
      <path d="M 6.640625 0 
L 6.640625 71.578125 
L 15.4375 71.578125 
L 15.4375 30.765625 
L 36.234375 51.859375 
L 47.609375 51.859375 
L 27.78125 32.625 
L 49.609375 0 
L 38.765625 0 
L 21.625 26.515625 
L 15.4375 20.5625 
L 15.4375 0 
z
" id="ArialMT-107"/>
      <path d="M 0 -1.21875 
L 20.75 72.796875 
L 27.78125 72.796875 
L 7.078125 -1.21875 
z
" id="ArialMT-47"/>
      <path d="M -0.140625 0 
L 27.34375 71.578125 
L 37.546875 71.578125 
L 66.84375 0 
L 56.0625 0 
L 47.703125 21.6875 
L 17.78125 21.6875 
L 9.90625 0 
z
M 20.515625 29.390625 
L 44.78125 29.390625 
L 37.3125 49.21875 
Q 33.890625 58.25 32.234375 64.0625 
Q 30.859375 57.171875 28.375 50.390625 
z
" id="ArialMT-65"/>
      <path d="M 8.6875 0 
L 8.6875 45.015625 
L 0.921875 45.015625 
L 0.921875 51.859375 
L 8.6875 51.859375 
L 8.6875 57.375 
Q 8.6875 62.59375 9.625 65.140625 
Q 10.890625 68.5625 14.078125 70.671875 
Q 17.28125 72.796875 23.046875 72.796875 
Q 26.765625 72.796875 31.25 71.921875 
L 29.9375 64.265625 
Q 27.203125 64.75 24.75 64.75 
Q 20.75 64.75 19.09375 63.03125 
Q 17.4375 61.328125 17.4375 56.640625 
L 17.4375 51.859375 
L 27.546875 51.859375 
L 27.546875 45.015625 
L 17.4375 45.015625 
L 17.4375 0 
z
" id="ArialMT-102"/>
     </defs>
     <g style="fill:#262626;" transform="translate(19.5687 346.174988)rotate(-90)scale(0.1728 -0.1728)">
      <use xlink:href="#ArialMT-67"/>
      <use x="72.216797" xlink:href="#ArialMT-114"/>
      <use x="105.517578" xlink:href="#ArialMT-97"/>
      <use x="161.132812" xlink:href="#ArialMT-115"/>
      <use x="211.132812" xlink:href="#ArialMT-104"/>
      <use x="266.748047" xlink:href="#ArialMT-32"/>
      <use x="294.53125" xlink:href="#ArialMT-82"/>
      <use x="366.748047" xlink:href="#ArialMT-97"/>
      <use x="422.363281" xlink:href="#ArialMT-116"/>
      <use x="450.146484" xlink:href="#ArialMT-105"/>
      <use x="472.363281" xlink:href="#ArialMT-111"/>
      <use x="527.978516" xlink:href="#ArialMT-58"/>
      <use x="555.761719" xlink:href="#ArialMT-32"/>
      <use x="583.544922" xlink:href="#ArialMT-68"/>
      <use x="655.761719" xlink:href="#ArialMT-83"/>
      <use x="722.460938" xlink:href="#ArialMT-84"/>
      <use x="781.794922" xlink:href="#ArialMT-32"/>
      <use x="809.578125" xlink:href="#ArialMT-87"/>
      <use x="902.212891" xlink:href="#ArialMT-101"/>
      <use x="957.828125" xlink:href="#ArialMT-101"/>
      <use x="1013.443359" xlink:href="#ArialMT-107"/>
      <use x="1063.443359" xlink:href="#ArialMT-32"/>
      <use x="1091.226562" xlink:href="#ArialMT-47"/>
      <use x="1119.009766" xlink:href="#ArialMT-32"/>
      <use x="1146.792969" xlink:href="#ArialMT-87"/>
      <use x="1239.427734" xlink:href="#ArialMT-101"/>
      <use x="1295.042969" xlink:href="#ArialMT-101"/>
      <use x="1350.658203" xlink:href="#ArialMT-107"/>
      <use x="1400.658203" xlink:href="#ArialMT-32"/>
      <use x="1422.941406" xlink:href="#ArialMT-65"/>
      <use x="1489.640625" xlink:href="#ArialMT-102"/>
      <use x="1517.423828" xlink:href="#ArialMT-116"/>
      <use x="1545.207031" xlink:href="#ArialMT-101"/>
      <use x="1600.822266" xlink:href="#ArialMT-114"/>
     </g>
    </g>
   </g>
   <g id="PolyCollection_1">
    <defs>
     <path d="M 99.107806 -41.608876 
L 96.475537 -41.608876 
L 96.337086 -43.304817 
L 96.192522 -45.000757 
L 96.042435 -46.696698 
L 95.887429 -48.392638 
L 95.728096 -50.088579 
L 95.564986 -51.784519 
L 95.398591 -53.48046 
L 95.229324 -55.1764 
L 95.057503 -56.872341 
L 94.883349 -58.568281 
L 94.706983 -60.264222 
L 94.528432 -61.960162 
L 94.347639 -63.656103 
L 94.16448 -65.352043 
L 93.978787 -67.047984 
L 93.790362 -68.743925 
L 93.599001 -70.439865 
L 93.404511 -72.135806 
L 93.206724 -73.831746 
L 93.005506 -75.527687 
L 92.800761 -77.223627 
L 92.592424 -78.919568 
L 92.380457 -80.615508 
L 92.164835 -82.311449 
L 91.945526 -84.007389 
L 91.722478 -85.70333 
L 91.495597 -87.39927 
L 91.264733 -89.095211 
L 91.02967 -90.791151 
L 90.790114 -92.487092 
L 90.545696 -94.183032 
L 90.295974 -95.878973 
L 90.040447 -97.574913 
L 89.77857 -99.270854 
L 89.509775 -100.966794 
L 89.233498 -102.662735 
L 88.949208 -104.358676 
L 88.656436 -106.054616 
L 88.354809 -107.750557 
L 88.044079 -109.446497 
L 87.724158 -111.142438 
L 87.39515 -112.838378 
L 87.057376 -114.534319 
L 86.711412 -116.230259 
L 86.358108 -117.9262 
L 85.998619 -119.62214 
L 85.634421 -121.318081 
L 85.267332 -123.014021 
L 84.899517 -124.709962 
L 84.533488 -126.405902 
L 84.172099 -128.101843 
L 83.81852 -129.797783 
L 83.476202 -131.493724 
L 83.148834 -133.189664 
L 82.840279 -134.885605 
L 82.5545 -136.581545 
L 82.295479 -138.277486 
L 82.067125 -139.973426 
L 81.87318 -141.669367 
L 81.71712 -143.365308 
L 81.602068 -145.061248 
L 81.530707 -146.757189 
L 81.505206 -148.453129 
L 81.527162 -150.14907 
L 81.597559 -151.84501 
L 81.716742 -153.540951 
L 81.884412 -155.236891 
L 82.09964 -156.932832 
L 82.360897 -158.628772 
L 82.666095 -160.324713 
L 83.012651 -162.020653 
L 83.397545 -163.716594 
L 83.817401 -165.412534 
L 84.268558 -167.108475 
L 84.747149 -168.804415 
L 85.249176 -170.500356 
L 85.770577 -172.196296 
L 86.307297 -173.892237 
L 86.855338 -175.588177 
L 87.41082 -177.284118 
L 87.970011 -178.980059 
L 88.529373 -180.675999 
L 89.085583 -182.37194 
L 89.635555 -184.06788 
L 90.176457 -185.763821 
L 90.705716 -187.459761 
L 91.221025 -189.155702 
L 91.720345 -190.851642 
L 92.2019 -192.547583 
L 92.664174 -194.243523 
L 93.105908 -195.939464 
L 93.526084 -197.635404 
L 93.923927 -199.331345 
L 94.298885 -201.027285 
L 94.650629 -202.723226 
L 94.979035 -204.419166 
L 95.284173 -206.115107 
L 95.5663 -207.811047 
L 95.825841 -209.506988 
L 99.757501 -209.506988 
L 99.757501 -209.506988 
L 100.017042 -207.811047 
L 100.29917 -206.115107 
L 100.604308 -204.419166 
L 100.932713 -202.723226 
L 101.284457 -201.027285 
L 101.659416 -199.331345 
L 102.057259 -197.635404 
L 102.477435 -195.939464 
L 102.919168 -194.243523 
L 103.381443 -192.547583 
L 103.862998 -190.851642 
L 104.362318 -189.155702 
L 104.877627 -187.459761 
L 105.406886 -185.763821 
L 105.947787 -184.06788 
L 106.49776 -182.37194 
L 107.05397 -180.675999 
L 107.613332 -178.980059 
L 108.172523 -177.284118 
L 108.728004 -175.588177 
L 109.276046 -173.892237 
L 109.812766 -172.196296 
L 110.334167 -170.500356 
L 110.836194 -168.804415 
L 111.314785 -167.108475 
L 111.765942 -165.412534 
L 112.185798 -163.716594 
L 112.570692 -162.020653 
L 112.917247 -160.324713 
L 113.222446 -158.628772 
L 113.483702 -156.932832 
L 113.698931 -155.236891 
L 113.866601 -153.540951 
L 113.985784 -151.84501 
L 114.056181 -150.14907 
L 114.078137 -148.453129 
L 114.052636 -146.757189 
L 113.981275 -145.061248 
L 113.866223 -143.365308 
L 113.710163 -141.669367 
L 113.516218 -139.973426 
L 113.287864 -138.277486 
L 113.028843 -136.581545 
L 112.743064 -134.885605 
L 112.434509 -133.189664 
L 112.107141 -131.493724 
L 111.764823 -129.797783 
L 111.411243 -128.101843 
L 111.049854 -126.405902 
L 110.683826 -124.709962 
L 110.316011 -123.014021 
L 109.948922 -121.318081 
L 109.584724 -119.62214 
L 109.225235 -117.9262 
L 108.871931 -116.230259 
L 108.525967 -114.534319 
L 108.188193 -112.838378 
L 107.859184 -111.142438 
L 107.539264 -109.446497 
L 107.228534 -107.750557 
L 106.926907 -106.054616 
L 106.634135 -104.358676 
L 106.349845 -102.662735 
L 106.073568 -100.966794 
L 105.804773 -99.270854 
L 105.542896 -97.574913 
L 105.287369 -95.878973 
L 105.037647 -94.183032 
L 104.793229 -92.487092 
L 104.553673 -90.791151 
L 104.318609 -89.095211 
L 104.087746 -87.39927 
L 103.860865 -85.70333 
L 103.637817 -84.007389 
L 103.418508 -82.311449 
L 103.202886 -80.615508 
L 102.990919 -78.919568 
L 102.782582 -77.223627 
L 102.577837 -75.527687 
L 102.376619 -73.831746 
L 102.178832 -72.135806 
L 101.984342 -70.439865 
L 101.792981 -68.743925 
L 101.604556 -67.047984 
L 101.418862 -65.352043 
L 101.235704 -63.656103 
L 101.054911 -61.960162 
L 100.876359 -60.264222 
L 100.699994 -58.568281 
L 100.52584 -56.872341 
L 100.354019 -55.1764 
L 100.184751 -53.48046 
L 100.018357 -51.784519 
L 99.855247 -50.088579 
L 99.695914 -48.392638 
L 99.540908 -46.696698 
L 99.390821 -45.000757 
L 99.246257 -43.304817 
L 99.107806 -41.608876 
z
" id="maa157c146a" style="stroke:#414141;stroke-width:2;"/>
    </defs>
    <g clip-path="url(#p053da57d6b)">
     <use style="fill:#e68193;stroke:#414141;stroke-width:2;" x="0" xlink:href="#maa157c146a" y="391.910113"/>
    </g>
   </g>
   <g id="PolyCollection_2">
    <defs>
     <path d="M 195.540862 -66.859713 
L 191.356767 -66.859713 
L 191.140192 -68.284751 
L 190.913389 -69.709788 
L 190.677517 -71.134826 
L 190.433943 -72.559864 
L 190.184222 -73.984902 
L 189.930077 -75.40994 
L 189.673368 -76.834978 
L 189.416058 -78.260015 
L 189.160173 -79.685053 
L 188.90775 -81.110091 
L 188.660796 -82.535129 
L 188.421231 -83.960167 
L 188.190836 -85.385204 
L 187.971206 -86.810242 
L 187.763698 -88.23528 
L 187.569391 -89.660318 
L 187.389045 -91.085356 
L 187.223078 -92.510393 
L 187.071541 -93.935431 
L 186.934111 -95.360469 
L 186.810091 -96.785507 
L 186.69842 -98.210545 
L 186.597698 -99.635583 
L 186.506216 -101.06062 
L 186.421998 -102.485658 
L 186.342844 -103.910696 
L 186.266387 -105.335734 
L 186.190148 -106.760772 
L 186.111592 -108.185809 
L 186.028189 -109.610847 
L 185.937462 -111.035885 
L 185.837041 -112.460923 
L 185.724709 -113.885961 
L 185.598436 -115.310999 
L 185.456412 -116.736036 
L 185.297073 -118.161074 
L 185.119114 -119.586112 
L 184.921506 -121.01115 
L 184.703499 -122.436188 
L 184.464625 -123.861225 
L 184.204699 -125.286263 
L 183.923821 -126.711301 
L 183.622371 -128.136339 
L 183.301014 -129.561377 
L 182.960699 -130.986414 
L 182.60266 -132.411452 
L 182.228426 -133.83649 
L 181.839819 -135.261528 
L 181.438961 -136.686566 
L 181.028273 -138.111604 
L 180.610474 -139.536641 
L 180.188567 -140.961679 
L 179.765829 -142.386717 
L 179.345782 -143.811755 
L 178.93216 -145.236793 
L 178.528865 -146.66183 
L 178.139915 -148.086868 
L 177.769381 -149.511906 
L 177.421317 -150.936944 
L 177.099688 -152.361982 
L 176.808293 -153.78702 
L 176.550688 -155.212057 
L 176.330112 -156.637095 
L 176.149424 -158.062133 
L 176.011042 -159.487171 
L 175.916899 -160.912209 
L 175.868409 -162.337246 
L 175.866451 -163.762284 
L 175.911365 -165.187322 
L 176.002961 -166.61236 
L 176.14055 -168.037398 
L 176.322979 -169.462436 
L 176.548674 -170.887473 
L 176.815703 -172.312511 
L 177.121824 -173.737549 
L 177.464555 -175.162587 
L 177.841225 -176.587625 
L 178.249031 -178.012662 
L 178.685086 -179.4377 
L 179.146461 -180.862738 
L 179.630219 -182.287776 
L 180.133437 -183.712814 
L 180.653226 -185.137851 
L 181.186739 -186.562889 
L 181.73118 -187.987927 
L 182.283798 -189.412965 
L 182.841893 -190.838003 
L 183.402811 -192.263041 
L 183.963944 -193.688078 
L 184.522731 -195.113116 
L 185.076667 -196.538154 
L 185.623311 -197.963192 
L 186.160301 -199.38823 
L 186.685369 -200.813267 
L 187.196368 -202.238305 
L 187.691288 -203.663343 
L 188.168289 -205.088381 
L 188.625718 -206.513419 
L 189.062134 -207.938457 
L 197.835495 -207.938457 
L 197.835495 -207.938457 
L 198.271911 -206.513419 
L 198.729339 -205.088381 
L 199.20634 -203.663343 
L 199.701261 -202.238305 
L 200.212259 -200.813267 
L 200.737328 -199.38823 
L 201.274317 -197.963192 
L 201.820962 -196.538154 
L 202.374898 -195.113116 
L 202.933685 -193.688078 
L 203.494817 -192.263041 
L 204.055735 -190.838003 
L 204.613831 -189.412965 
L 205.166449 -187.987927 
L 205.710889 -186.562889 
L 206.244403 -185.137851 
L 206.764192 -183.712814 
L 207.26741 -182.287776 
L 207.751168 -180.862738 
L 208.212543 -179.4377 
L 208.648598 -178.012662 
L 209.056404 -176.587625 
L 209.433073 -175.162587 
L 209.775804 -173.737549 
L 210.081926 -172.312511 
L 210.348954 -170.887473 
L 210.57465 -169.462436 
L 210.757078 -168.037398 
L 210.894668 -166.61236 
L 210.986264 -165.187322 
L 211.031177 -163.762284 
L 211.029219 -162.337246 
L 210.980729 -160.912209 
L 210.886586 -159.487171 
L 210.748204 -158.062133 
L 210.567516 -156.637095 
L 210.346941 -155.212057 
L 210.089335 -153.78702 
L 209.79794 -152.361982 
L 209.476312 -150.936944 
L 209.128248 -149.511906 
L 208.757714 -148.086868 
L 208.368764 -146.66183 
L 207.965469 -145.236793 
L 207.551846 -143.811755 
L 207.131799 -142.386717 
L 206.709061 -140.961679 
L 206.287155 -139.536641 
L 205.869355 -138.111604 
L 205.458668 -136.686566 
L 205.05781 -135.261528 
L 204.669203 -133.83649 
L 204.294968 -132.411452 
L 203.93693 -130.986414 
L 203.596614 -129.561377 
L 203.275257 -128.136339 
L 202.973808 -126.711301 
L 202.69293 -125.286263 
L 202.433004 -123.861225 
L 202.19413 -122.436188 
L 201.976122 -121.01115 
L 201.778515 -119.586112 
L 201.600556 -118.161074 
L 201.441217 -116.736036 
L 201.299193 -115.310999 
L 201.172919 -113.885961 
L 201.060587 -112.460923 
L 200.960167 -111.035885 
L 200.869439 -109.610847 
L 200.786036 -108.185809 
L 200.707481 -106.760772 
L 200.631242 -105.335734 
L 200.554785 -103.910696 
L 200.475631 -102.485658 
L 200.391412 -101.06062 
L 200.299931 -99.635583 
L 200.199209 -98.210545 
L 200.087538 -96.785507 
L 199.963517 -95.360469 
L 199.826087 -93.935431 
L 199.67455 -92.510393 
L 199.508583 -91.085356 
L 199.328238 -89.660318 
L 199.13393 -88.23528 
L 198.926423 -86.810242 
L 198.706793 -85.385204 
L 198.476398 -83.960167 
L 198.236832 -82.535129 
L 197.989878 -81.110091 
L 197.737456 -79.685053 
L 197.48157 -78.260015 
L 197.224261 -76.834978 
L 196.967552 -75.40994 
L 196.713407 -73.984902 
L 196.463685 -72.559864 
L 196.220111 -71.134826 
L 195.98424 -69.709788 
L 195.757436 -68.284751 
L 195.540862 -66.859713 
z
" id="m5261bdba61" style="stroke:#414141;stroke-width:2;"/>
    </defs>
    <g clip-path="url(#p053da57d6b)">
     <use style="fill:#b38e44;stroke:#414141;stroke-width:2;" x="0" xlink:href="#m5261bdba61" y="391.910113"/>
    </g>
   </g>
   <g id="PolyCollection_3">
    <defs>
     <path d="M 293.32553 -109.440529 
L 284.886384 -109.440529 
L 284.378782 -111.153536 
L 283.838515 -112.866542 
L 283.267734 -114.579549 
L 282.669246 -116.292555 
L 282.046513 -118.005562 
L 281.403616 -119.718568 
L 280.745213 -121.431575 
L 280.076474 -123.144581 
L 279.402989 -124.857588 
L 278.730676 -126.570594 
L 278.065662 -128.283601 
L 277.414161 -129.996607 
L 276.782348 -131.709614 
L 276.176226 -133.42262 
L 275.601501 -135.135627 
L 275.063467 -136.848633 
L 274.566896 -138.56164 
L 274.11595 -140.274646 
L 273.714112 -141.987653 
L 273.364138 -143.700659 
L 273.068026 -145.413665 
L 272.827016 -147.126672 
L 272.641605 -148.839678 
L 272.511588 -150.552685 
L 272.436109 -152.265691 
L 272.413733 -153.978698 
L 272.442521 -155.691704 
L 272.52012 -157.404711 
L 272.643843 -159.117717 
L 272.810755 -160.830724 
L 273.017754 -162.54373 
L 273.26164 -164.256737 
L 273.539173 -165.969743 
L 273.847123 -167.68275 
L 274.182302 -169.395756 
L 274.541596 -171.108763 
L 274.921967 -172.821769 
L 275.320468 -174.534776 
L 275.734233 -176.247782 
L 276.160472 -177.960789 
L 276.596461 -179.673795 
L 277.039531 -181.386801 
L 277.487063 -183.099808 
L 277.936482 -184.812814 
L 278.385257 -186.525821 
L 278.830907 -188.238827 
L 279.271015 -189.951834 
L 279.703241 -191.66484 
L 280.125346 -193.377847 
L 280.535215 -195.090853 
L 280.93088 -196.80386 
L 281.310551 -198.516866 
L 281.672635 -200.229873 
L 282.015766 -201.942879 
L 282.338815 -203.655886 
L 282.640912 -205.368892 
L 282.921452 -207.081899 
L 283.180101 -208.794905 
L 283.416794 -210.507912 
L 283.631729 -212.220918 
L 283.825359 -213.933925 
L 283.998378 -215.646931 
L 284.151701 -217.359938 
L 284.286447 -219.072944 
L 284.403919 -220.78595 
L 284.505578 -222.498957 
L 284.59302 -224.211963 
L 284.667951 -225.92497 
L 284.732163 -227.637976 
L 284.787508 -229.350983 
L 284.835874 -231.063989 
L 284.879151 -232.776996 
L 284.919217 -234.490002 
L 284.957899 -236.203009 
L 284.996956 -237.916015 
L 285.038047 -239.629022 
L 285.082707 -241.342028 
L 285.132325 -243.055035 
L 285.188121 -244.768041 
L 285.251124 -246.481048 
L 285.322157 -248.194054 
L 285.401828 -249.907061 
L 285.490514 -251.620067 
L 285.588366 -253.333074 
L 285.695302 -255.04608 
L 285.811023 -256.759086 
L 285.935016 -258.472093 
L 286.066579 -260.185099 
L 286.204836 -261.898106 
L 286.348769 -263.611112 
L 286.497239 -265.324119 
L 286.649024 -267.037125 
L 286.802848 -268.750132 
L 286.957411 -270.463138 
L 287.111425 -272.176145 
L 287.263641 -273.889151 
L 287.412877 -275.602158 
L 287.558041 -277.315164 
L 287.698154 -279.028171 
L 290.513761 -279.028171 
L 290.513761 -279.028171 
L 290.653873 -277.315164 
L 290.799037 -275.602158 
L 290.948273 -273.889151 
L 291.10049 -272.176145 
L 291.254504 -270.463138 
L 291.409067 -268.750132 
L 291.56289 -267.037125 
L 291.714675 -265.324119 
L 291.863146 -263.611112 
L 292.007078 -261.898106 
L 292.145336 -260.185099 
L 292.276898 -258.472093 
L 292.400891 -256.759086 
L 292.516612 -255.04608 
L 292.623548 -253.333074 
L 292.7214 -251.620067 
L 292.810086 -249.907061 
L 292.889757 -248.194054 
L 292.960791 -246.481048 
L 293.023793 -244.768041 
L 293.079589 -243.055035 
L 293.129207 -241.342028 
L 293.173867 -239.629022 
L 293.214958 -237.916015 
L 293.254015 -236.203009 
L 293.292697 -234.490002 
L 293.332763 -232.776996 
L 293.376041 -231.063989 
L 293.424406 -229.350983 
L 293.479752 -227.637976 
L 293.543964 -225.92497 
L 293.618895 -224.211963 
L 293.706336 -222.498957 
L 293.807995 -220.78595 
L 293.925467 -219.072944 
L 294.060214 -217.359938 
L 294.213536 -215.646931 
L 294.386555 -213.933925 
L 294.580185 -212.220918 
L 294.79512 -210.507912 
L 295.031813 -208.794905 
L 295.290462 -207.081899 
L 295.571002 -205.368892 
L 295.8731 -203.655886 
L 296.196149 -201.942879 
L 296.539279 -200.229873 
L 296.901363 -198.516866 
L 297.281034 -196.80386 
L 297.676699 -195.090853 
L 298.086568 -193.377847 
L 298.508673 -191.66484 
L 298.9409 -189.951834 
L 299.381007 -188.238827 
L 299.826657 -186.525821 
L 300.275432 -184.812814 
L 300.724851 -183.099808 
L 301.172383 -181.386801 
L 301.615454 -179.673795 
L 302.051442 -177.960789 
L 302.477681 -176.247782 
L 302.891446 -174.534776 
L 303.289947 -172.821769 
L 303.670319 -171.108763 
L 304.029612 -169.395756 
L 304.364792 -167.68275 
L 304.672741 -165.969743 
L 304.950274 -164.256737 
L 305.19416 -162.54373 
L 305.40116 -160.830724 
L 305.568072 -159.117717 
L 305.691794 -157.404711 
L 305.769393 -155.691704 
L 305.798182 -153.978698 
L 305.775806 -152.265691 
L 305.700327 -150.552685 
L 305.57031 -148.839678 
L 305.384899 -147.126672 
L 305.143888 -145.413665 
L 304.847776 -143.700659 
L 304.497802 -141.987653 
L 304.095965 -140.274646 
L 303.645019 -138.56164 
L 303.148447 -136.848633 
L 302.610413 -135.135627 
L 302.035689 -133.42262 
L 301.429566 -131.709614 
L 300.797753 -129.996607 
L 300.146253 -128.283601 
L 299.481238 -126.570594 
L 298.808925 -124.857588 
L 298.135441 -123.144581 
L 297.466701 -121.431575 
L 296.808299 -119.718568 
L 296.165402 -118.005562 
L 295.542668 -116.292555 
L 294.944181 -114.579549 
L 294.373399 -112.866542 
L 293.833133 -111.153536 
L 293.32553 -109.440529 
z
" id="m5153281980" style="stroke:#414141;stroke-width:2;"/>
    </defs>
    <g clip-path="url(#p053da57d6b)">
     <use style="fill:#7d9a40;stroke:#414141;stroke-width:2;" x="0" xlink:href="#m5153281980" y="391.910113"/>
    </g>
   </g>
   <g id="PolyCollection_4">
    <defs>
     <path d="M 387.241201 -103.885127 
L 382.284999 -103.885127 
L 381.94453 -105.436916 
L 381.577211 -106.988706 
L 381.183335 -108.540495 
L 380.763303 -110.092284 
L 380.317566 -111.644074 
L 379.846556 -113.195863 
L 379.350631 -114.747653 
L 378.830035 -116.299442 
L 378.284872 -117.851231 
L 377.715114 -119.403021 
L 377.120631 -120.95481 
L 376.501254 -122.5066 
L 375.856865 -124.058389 
L 375.187515 -125.610178 
L 374.493553 -127.161968 
L 373.775764 -128.713757 
L 373.035509 -130.265547 
L 372.274846 -131.817336 
L 371.496629 -133.369125 
L 370.704578 -134.920915 
L 369.903306 -136.472704 
L 369.098312 -138.024494 
L 368.295921 -139.576283 
L 367.503202 -141.128072 
L 366.727833 -142.679862 
L 365.977962 -144.231651 
L 365.262032 -145.783441 
L 364.58861 -147.33523 
L 363.966209 -148.887019 
L 363.403117 -150.438809 
L 362.907233 -151.990598 
L 362.485917 -153.542388 
L 362.145848 -155.094177 
L 361.892893 -156.645966 
L 361.731989 -158.197756 
L 361.667025 -159.749545 
L 361.700741 -161.301335 
L 361.834629 -162.853124 
L 362.068852 -164.404913 
L 362.402175 -165.956703 
L 362.83193 -167.508492 
L 363.353998 -169.060282 
L 363.962848 -170.612071 
L 364.651598 -172.16386 
L 365.412138 -173.71565 
L 366.235291 -175.267439 
L 367.111019 -176.819229 
L 368.02866 -178.371018 
L 368.97719 -179.922807 
L 369.945505 -181.474597 
L 370.922689 -183.026386 
L 371.898275 -184.578176 
L 372.862472 -186.129965 
L 373.806358 -187.681754 
L 374.722019 -189.233544 
L 375.602648 -190.785333 
L 376.442578 -192.337123 
L 377.23728 -193.888912 
L 377.983313 -195.440701 
L 378.67824 -196.992491 
L 379.320521 -198.54428 
L 379.909395 -200.09607 
L 380.444757 -201.647859 
L 380.927034 -203.199648 
L 381.357087 -204.751438 
L 381.736118 -206.303227 
L 382.065605 -207.855017 
L 382.347253 -209.406806 
L 382.58297 -210.958595 
L 382.774862 -212.510385 
L 382.925232 -214.062174 
L 383.036606 -215.613964 
L 383.111742 -217.165753 
L 383.153659 -218.717542 
L 383.165644 -220.269332 
L 383.151258 -221.821121 
L 383.114323 -223.372911 
L 383.058898 -224.9247 
L 382.98923 -226.476489 
L 382.909692 -228.028279 
L 382.824705 -229.580068 
L 382.738641 -231.131858 
L 382.655721 -232.683647 
L 382.579905 -234.235436 
L 382.514786 -235.787226 
L 382.463484 -237.339015 
L 382.428561 -238.890805 
L 382.41195 -240.442594 
L 382.414906 -241.994383 
L 382.437987 -243.546173 
L 382.481059 -245.097962 
L 382.54333 -246.649752 
L 382.623414 -248.201541 
L 382.719413 -249.75333 
L 382.829015 -251.30512 
L 382.949613 -252.856909 
L 383.078423 -254.408699 
L 383.212599 -255.960488 
L 383.349349 -257.512277 
L 386.176851 -257.512277 
L 386.176851 -257.512277 
L 386.313601 -255.960488 
L 386.447777 -254.408699 
L 386.576587 -252.856909 
L 386.697185 -251.30512 
L 386.806787 -249.75333 
L 386.902786 -248.201541 
L 386.98287 -246.649752 
L 387.045141 -245.097962 
L 387.088213 -243.546173 
L 387.111294 -241.994383 
L 387.11425 -240.442594 
L 387.097639 -238.890805 
L 387.062716 -237.339015 
L 387.011414 -235.787226 
L 386.946295 -234.235436 
L 386.870479 -232.683647 
L 386.787559 -231.131858 
L 386.701495 -229.580068 
L 386.616508 -228.028279 
L 386.53697 -226.476489 
L 386.467302 -224.9247 
L 386.411877 -223.372911 
L 386.374942 -221.821121 
L 386.360556 -220.269332 
L 386.372541 -218.717542 
L 386.414458 -217.165753 
L 386.489594 -215.613964 
L 386.600968 -214.062174 
L 386.751338 -212.510385 
L 386.94323 -210.958595 
L 387.178947 -209.406806 
L 387.460595 -207.855017 
L 387.790082 -206.303227 
L 388.169113 -204.751438 
L 388.599166 -203.199648 
L 389.081443 -201.647859 
L 389.616805 -200.09607 
L 390.205679 -198.54428 
L 390.84796 -196.992491 
L 391.542887 -195.440701 
L 392.28892 -193.888912 
L 393.083622 -192.337123 
L 393.923552 -190.785333 
L 394.804181 -189.233544 
L 395.719842 -187.681754 
L 396.663728 -186.129965 
L 397.627925 -184.578176 
L 398.603511 -183.026386 
L 399.580695 -181.474597 
L 400.54901 -179.922807 
L 401.49754 -178.371018 
L 402.415181 -176.819229 
L 403.290909 -175.267439 
L 404.114062 -173.71565 
L 404.874602 -172.16386 
L 405.563352 -170.612071 
L 406.172202 -169.060282 
L 406.69427 -167.508492 
L 407.124025 -165.956703 
L 407.457348 -164.404913 
L 407.691571 -162.853124 
L 407.825459 -161.301335 
L 407.859175 -159.749545 
L 407.794211 -158.197756 
L 407.633307 -156.645966 
L 407.380352 -155.094177 
L 407.040283 -153.542388 
L 406.618967 -151.990598 
L 406.123083 -150.438809 
L 405.559991 -148.887019 
L 404.93759 -147.33523 
L 404.264168 -145.783441 
L 403.548238 -144.231651 
L 402.798367 -142.679862 
L 402.022998 -141.128072 
L 401.230279 -139.576283 
L 400.427888 -138.024494 
L 399.622894 -136.472704 
L 398.821622 -134.920915 
L 398.029571 -133.369125 
L 397.251354 -131.817336 
L 396.490691 -130.265547 
L 395.750436 -128.713757 
L 395.032647 -127.161968 
L 394.338685 -125.610178 
L 393.669335 -124.058389 
L 393.024946 -122.5066 
L 392.405569 -120.95481 
L 391.811086 -119.403021 
L 391.241328 -117.851231 
L 390.696165 -116.299442 
L 390.175569 -114.747653 
L 389.679644 -113.195863 
L 389.208634 -111.644074 
L 388.762897 -110.092284 
L 388.342865 -108.540495 
L 387.948989 -106.988706 
L 387.58167 -105.436916 
L 387.241201 -103.885127 
z
" id="md27b6cc4d8" style="stroke:#414141;stroke-width:2;"/>
    </defs>
    <g clip-path="url(#p053da57d6b)">
     <use style="fill:#43a084;stroke:#414141;stroke-width:2;" x="0" xlink:href="#md27b6cc4d8" y="391.910113"/>
    </g>
   </g>
   <g id="PolyCollection_5">
    <defs>
     <path d="M 483.57932 -119.498716 
L 477.261165 -119.498716 
L 476.924286 -120.197577 
L 476.570218 -120.896439 
L 476.19937 -121.595301 
L 475.811917 -122.294162 
L 475.407716 -122.993024 
L 474.986224 -123.691886 
L 474.546443 -124.390747 
L 474.086887 -125.089609 
L 473.605573 -125.788471 
L 473.100052 -126.487332 
L 472.567475 -127.186194 
L 472.004694 -127.885056 
L 471.408393 -128.583917 
L 470.775251 -129.282779 
L 470.102123 -129.98164 
L 469.386227 -130.680502 
L 468.625334 -131.379364 
L 467.817946 -132.078225 
L 466.963439 -132.777087 
L 466.062185 -133.475949 
L 465.115615 -134.17481 
L 464.12625 -134.873672 
L 463.097665 -135.572534 
L 462.034413 -136.271395 
L 460.941906 -136.970257 
L 459.826255 -137.669119 
L 458.694089 -138.36798 
L 457.552368 -139.066842 
L 456.408193 -139.765704 
L 455.268636 -140.464565 
L 454.140595 -141.163427 
L 453.030695 -141.862289 
L 451.945218 -142.56115 
L 450.890085 -143.260012 
L 449.870876 -143.958873 
L 448.892883 -144.657735 
L 447.961185 -145.356597 
L 447.080729 -146.055458 
L 446.256414 -146.75432 
L 445.493149 -147.453182 
L 444.795887 -148.152043 
L 444.16962 -148.850905 
L 443.619321 -149.549767 
L 443.149854 -150.248628 
L 442.76583 -150.94749 
L 442.471436 -151.646352 
L 442.27024 -152.345213 
L 442.164983 -153.044075 
L 442.157386 -153.742937 
L 442.247975 -154.441798 
L 442.435946 -155.14066 
L 442.719074 -155.839522 
L 443.093692 -156.538383 
L 443.554723 -157.237245 
L 444.095775 -157.936106 
L 444.709305 -158.634968 
L 445.386825 -159.33383 
L 446.119147 -160.032691 
L 446.896666 -160.731553 
L 447.709639 -161.430415 
L 448.548476 -162.129276 
L 449.404005 -162.828138 
L 450.267716 -163.527 
L 451.131963 -164.225861 
L 451.990123 -164.924723 
L 452.83671 -165.623585 
L 453.667436 -166.322446 
L 454.479229 -167.021308 
L 455.270204 -167.72017 
L 456.039601 -168.419031 
L 456.787678 -169.117893 
L 457.515597 -169.816755 
L 458.225273 -170.515616 
L 458.919222 -171.214478 
L 459.600397 -171.913339 
L 460.272021 -172.612201 
L 460.937431 -173.311063 
L 461.599917 -174.009924 
L 462.262584 -174.708786 
L 462.928216 -175.407648 
L 463.599168 -176.106509 
L 464.277264 -176.805371 
L 464.96373 -177.504233 
L 465.659135 -178.203094 
L 466.363366 -178.901956 
L 467.075623 -179.600818 
L 467.794439 -180.299679 
L 468.517722 -180.998541 
L 469.242821 -181.697403 
L 469.96661 -182.396264 
L 470.685587 -183.095126 
L 471.39599 -183.793988 
L 472.093909 -184.492849 
L 472.775417 -185.191711 
L 473.436685 -185.890572 
L 474.074097 -186.589434 
L 474.684353 -187.288296 
L 475.264554 -187.987157 
L 475.812275 -188.686019 
L 485.028211 -188.686019 
L 485.028211 -188.686019 
L 485.575932 -187.987157 
L 486.156133 -187.288296 
L 486.766389 -186.589434 
L 487.403801 -185.890572 
L 488.065069 -185.191711 
L 488.746577 -184.492849 
L 489.444496 -183.793988 
L 490.154898 -183.095126 
L 490.873876 -182.396264 
L 491.597665 -181.697403 
L 492.322764 -180.998541 
L 493.046047 -180.299679 
L 493.764863 -179.600818 
L 494.47712 -178.901956 
L 495.181351 -178.203094 
L 495.876756 -177.504233 
L 496.563221 -176.805371 
L 497.241318 -176.106509 
L 497.912269 -175.407648 
L 498.577902 -174.708786 
L 499.240568 -174.009924 
L 499.903055 -173.311063 
L 500.568465 -172.612201 
L 501.240089 -171.913339 
L 501.921264 -171.214478 
L 502.615213 -170.515616 
L 503.324889 -169.816755 
L 504.052808 -169.117893 
L 504.800885 -168.419031 
L 505.570281 -167.72017 
L 506.361257 -167.021308 
L 507.17305 -166.322446 
L 508.003776 -165.623585 
L 508.850363 -164.924723 
L 509.708523 -164.225861 
L 510.572769 -163.527 
L 511.436481 -162.828138 
L 512.29201 -162.129276 
L 513.130847 -161.430415 
L 513.94382 -160.731553 
L 514.721338 -160.032691 
L 515.453661 -159.33383 
L 516.13118 -158.634968 
L 516.744711 -157.936106 
L 517.285763 -157.237245 
L 517.746793 -156.538383 
L 518.121412 -155.839522 
L 518.40454 -155.14066 
L 518.592511 -154.441798 
L 518.6831 -153.742937 
L 518.675503 -153.044075 
L 518.570246 -152.345213 
L 518.36905 -151.646352 
L 518.074656 -150.94749 
L 517.690632 -150.248628 
L 517.221165 -149.549767 
L 516.670866 -148.850905 
L 516.044599 -148.152043 
L 515.347337 -147.453182 
L 514.584072 -146.75432 
L 513.759756 -146.055458 
L 512.879301 -145.356597 
L 511.947603 -144.657735 
L 510.96961 -143.958873 
L 509.950401 -143.260012 
L 508.895268 -142.56115 
L 507.80979 -141.862289 
L 506.69989 -141.163427 
L 505.57185 -140.464565 
L 504.432293 -139.765704 
L 503.288118 -139.066842 
L 502.146397 -138.36798 
L 501.014231 -137.669119 
L 499.898579 -136.970257 
L 498.806072 -136.271395 
L 497.742821 -135.572534 
L 496.714236 -134.873672 
L 495.72487 -134.17481 
L 494.778301 -133.475949 
L 493.877046 -132.777087 
L 493.02254 -132.078225 
L 492.215151 -131.379364 
L 491.454259 -130.680502 
L 490.738363 -129.98164 
L 490.065234 -129.282779 
L 489.432093 -128.583917 
L 488.835791 -127.885056 
L 488.27301 -127.186194 
L 487.740434 -126.487332 
L 487.234913 -125.788471 
L 486.753598 -125.089609 
L 486.294042 -124.390747 
L 485.854262 -123.691886 
L 485.43277 -122.993024 
L 485.028568 -122.294162 
L 484.641116 -121.595301 
L 484.270268 -120.896439 
L 483.9162 -120.197577 
L 483.57932 -119.498716 
z
" id="m4195429c43" style="stroke:#414141;stroke-width:2;"/>
    </defs>
    <g clip-path="url(#p053da57d6b)">
     <use style="fill:#489eaa;stroke:#414141;stroke-width:2;" x="0" xlink:href="#m4195429c43" y="391.910113"/>
    </g>
   </g>
   <g id="PolyCollection_6">
    <defs>
     <path d="M 577.44632 -91.958785 
L 574.708451 -91.958785 
L 574.562558 -93.663771 
L 574.41579 -95.368756 
L 574.270095 -97.073741 
L 574.127232 -98.778727 
L 573.988601 -100.483712 
L 573.855076 -102.188697 
L 573.726835 -103.893683 
L 573.603216 -105.598668 
L 573.482583 -107.303653 
L 573.362249 -109.008639 
L 573.238435 -110.713624 
L 573.10628 -112.418609 
L 572.959926 -114.123595 
L 572.792644 -115.82858 
L 572.597039 -117.533565 
L 572.365301 -119.238551 
L 572.089506 -120.943536 
L 571.761952 -122.648521 
L 571.37553 -124.353507 
L 570.924091 -126.058492 
L 570.402813 -127.763477 
L 569.808546 -129.468463 
L 569.140105 -131.173448 
L 568.398517 -132.878433 
L 567.587179 -134.583419 
L 566.711941 -136.288404 
L 565.781085 -137.993389 
L 564.805201 -139.698375 
L 563.796965 -141.40336 
L 562.770805 -143.108345 
L 561.742495 -144.813331 
L 560.728655 -146.518316 
L 559.746214 -148.223301 
L 558.811833 -149.928287 
L 557.941329 -151.633272 
L 557.149132 -153.338257 
L 556.447788 -155.043242 
L 555.847556 -156.748228 
L 555.356099 -158.453213 
L 554.978307 -160.158198 
L 554.716237 -161.863184 
L 554.569199 -163.568169 
L 554.533955 -165.273154 
L 554.605031 -166.97814 
L 554.77512 -168.683125 
L 555.035541 -170.38811 
L 555.376732 -172.093096 
L 555.788741 -173.798081 
L 556.261688 -175.503066 
L 556.786164 -177.208052 
L 557.353557 -178.913037 
L 557.956277 -180.618022 
L 558.587879 -182.323008 
L 559.243081 -184.027993 
L 559.917688 -185.732978 
L 560.608434 -187.437964 
L 561.312754 -189.142949 
L 562.028524 -190.847934 
L 562.753786 -192.55292 
L 563.486477 -194.257905 
L 564.2242 -195.96289 
L 564.964035 -197.667876 
L 565.702434 -199.372861 
L 566.435167 -201.077846 
L 567.157365 -202.782832 
L 567.863621 -204.487817 
L 568.548158 -206.192802 
L 569.205039 -207.897788 
L 569.828419 -209.602773 
L 570.412799 -211.307758 
L 570.953279 -213.012744 
L 571.445791 -214.717729 
L 571.887293 -216.422714 
L 572.275918 -218.1277 
L 572.611065 -219.832685 
L 572.893433 -221.53767 
L 573.125 -223.242656 
L 573.308938 -224.947641 
L 573.44948 -226.652626 
L 573.551755 -228.357612 
L 573.621569 -230.062597 
L 573.665187 -231.767582 
L 573.689082 -233.472568 
L 573.699703 -235.177553 
L 573.703236 -236.882538 
L 573.705401 -238.587524 
L 573.711264 -240.292509 
L 573.725097 -241.997494 
L 573.750273 -243.70248 
L 573.789209 -245.407465 
L 573.84335 -247.11245 
L 573.913202 -248.817436 
L 573.998401 -250.522421 
L 574.097819 -252.227406 
L 574.209695 -253.932392 
L 574.331783 -255.637377 
L 574.461507 -257.342362 
L 574.596124 -259.047348 
L 574.732864 -260.752333 
L 577.421907 -260.752333 
L 577.421907 -260.752333 
L 577.558647 -259.047348 
L 577.693264 -257.342362 
L 577.822989 -255.637377 
L 577.945076 -253.932392 
L 578.056953 -252.227406 
L 578.156371 -250.522421 
L 578.24157 -248.817436 
L 578.311421 -247.11245 
L 578.365562 -245.407465 
L 578.404498 -243.70248 
L 578.429675 -241.997494 
L 578.443508 -240.292509 
L 578.449371 -238.587524 
L 578.451535 -236.882538 
L 578.455068 -235.177553 
L 578.465689 -233.472568 
L 578.489585 -231.767582 
L 578.533202 -230.062597 
L 578.603017 -228.357612 
L 578.705291 -226.652626 
L 578.845834 -224.947641 
L 579.029771 -223.242656 
L 579.261338 -221.53767 
L 579.543707 -219.832685 
L 579.878853 -218.1277 
L 580.267478 -216.422714 
L 580.708981 -214.717729 
L 581.201493 -213.012744 
L 581.741973 -211.307758 
L 582.326352 -209.602773 
L 582.949733 -207.897788 
L 583.606614 -206.192802 
L 584.29115 -204.487817 
L 584.997407 -202.782832 
L 585.719605 -201.077846 
L 586.452338 -199.372861 
L 587.190736 -197.667876 
L 587.930572 -195.96289 
L 588.668294 -194.257905 
L 589.400986 -192.55292 
L 590.126248 -190.847934 
L 590.842018 -189.142949 
L 591.546337 -187.437964 
L 592.237083 -185.732978 
L 592.911691 -184.027993 
L 593.566893 -182.323008 
L 594.198494 -180.618022 
L 594.801214 -178.913037 
L 595.368607 -177.208052 
L 595.893084 -175.503066 
L 596.36603 -173.798081 
L 596.77804 -172.093096 
L 597.119231 -170.38811 
L 597.379652 -168.683125 
L 597.549741 -166.97814 
L 597.620817 -165.273154 
L 597.585572 -163.568169 
L 597.438534 -161.863184 
L 597.176465 -160.158198 
L 596.798672 -158.453213 
L 596.307216 -156.748228 
L 595.706983 -155.043242 
L 595.00564 -153.338257 
L 594.213442 -151.633272 
L 593.342939 -149.928287 
L 592.408557 -148.223301 
L 591.426116 -146.518316 
L 590.412277 -144.813331 
L 589.383966 -143.108345 
L 588.357807 -141.40336 
L 587.34957 -139.698375 
L 586.373687 -137.993389 
L 585.442831 -136.288404 
L 584.567593 -134.583419 
L 583.756255 -132.878433 
L 583.014666 -131.173448 
L 582.346226 -129.468463 
L 581.751958 -127.763477 
L 581.230681 -126.058492 
L 580.779241 -124.353507 
L 580.392819 -122.648521 
L 580.065266 -120.943536 
L 579.78947 -119.238551 
L 579.557732 -117.533565 
L 579.362128 -115.82858 
L 579.194846 -114.123595 
L 579.048491 -112.418609 
L 578.916337 -110.713624 
L 578.792522 -109.008639 
L 578.672189 -107.303653 
L 578.551556 -105.598668 
L 578.427936 -103.893683 
L 578.299696 -102.188697 
L 578.166171 -100.483712 
L 578.02754 -98.778727 
L 577.884677 -97.073741 
L 577.738982 -95.368756 
L 577.592213 -93.663771 
L 577.44632 -91.958785 
z
" id="m4dc597c479" style="stroke:#414141;stroke-width:2;"/>
    </defs>
    <g clip-path="url(#p053da57d6b)">
     <use style="fill:#8fa0e6;stroke:#414141;stroke-width:2;" x="0" xlink:href="#m4dc597c479" y="391.910113"/>
    </g>
   </g>
   <g id="PolyCollection_7">
    <defs>
     <path d="M 672.892804 -70.345972 
L 670.576253 -70.345972 
L 670.415722 -73.089361 
L 670.239598 -75.832749 
L 670.047112 -78.576137 
L 669.837508 -81.319525 
L 669.610058 -84.062913 
L 669.364073 -86.806301 
L 669.098928 -89.549689 
L 668.814086 -92.293078 
L 668.509137 -95.036466 
L 668.183838 -97.779854 
L 667.838162 -100.523242 
L 667.472352 -103.26663 
L 667.086969 -106.010018 
L 666.682953 -108.753406 
L 666.261668 -111.496795 
L 665.824943 -114.240183 
L 665.375104 -116.983571 
L 664.914992 -119.726959 
L 664.447958 -122.470347 
L 663.977845 -125.213735 
L 663.508947 -127.957123 
L 663.04595 -130.700512 
L 662.593847 -133.4439 
L 662.157839 -136.187288 
L 661.743228 -138.930676 
L 661.355284 -141.674064 
L 660.999123 -144.417452 
L 660.679571 -147.160841 
L 660.401036 -149.904229 
L 660.167394 -152.647617 
L 659.98188 -155.391005 
L 659.847002 -158.134393 
L 659.764474 -160.877781 
L 659.735169 -163.621169 
L 659.759097 -166.364558 
L 659.835406 -169.107946 
L 659.962406 -171.851334 
L 660.137612 -174.594722 
L 660.35781 -177.33811 
L 660.619135 -180.081498 
L 660.917166 -182.824886 
L 661.247028 -185.568275 
L 661.603513 -188.311663 
L 661.98119 -191.055051 
L 662.374533 -193.798439 
L 662.778044 -196.541827 
L 663.186365 -199.285215 
L 663.594402 -202.028603 
L 663.997425 -204.771992 
L 664.391163 -207.51538 
L 664.771888 -210.258768 
L 665.13648 -213.002156 
L 665.482469 -215.745544 
L 665.808066 -218.488932 
L 666.11216 -221.23232 
L 666.394303 -223.975709 
L 666.654663 -226.719097 
L 666.893967 -229.462485 
L 667.113417 -232.205873 
L 667.314593 -234.949261 
L 667.499348 -237.692649 
L 667.669702 -240.436038 
L 667.827722 -243.179426 
L 667.975429 -245.922814 
L 668.114697 -248.666202 
L 668.247181 -251.40959 
L 668.374257 -254.152978 
L 668.496989 -256.896366 
L 668.616117 -259.639755 
L 668.732064 -262.383143 
L 668.844969 -265.126531 
L 668.954734 -267.869919 
L 669.061084 -270.613307 
L 669.163633 -273.356695 
L 669.261959 -276.100083 
L 669.355668 -278.843472 
L 669.444457 -281.58686 
L 669.528162 -284.330248 
L 669.606795 -287.073636 
L 669.680558 -289.817024 
L 669.749851 -292.560412 
L 669.815252 -295.3038 
L 669.877491 -298.047189 
L 669.93741 -300.790577 
L 669.995914 -303.533965 
L 670.053919 -306.277353 
L 670.112298 -309.020741 
L 670.171833 -311.764129 
L 670.233173 -314.507517 
L 670.296797 -317.250906 
L 670.362998 -319.994294 
L 670.431864 -322.737682 
L 670.503288 -325.48107 
L 670.576974 -328.224458 
L 670.652463 -330.967846 
L 670.729159 -333.711235 
L 670.806371 -336.454623 
L 670.883342 -339.198011 
L 670.959295 -341.941399 
L 672.509762 -341.941399 
L 672.509762 -341.941399 
L 672.585715 -339.198011 
L 672.662686 -336.454623 
L 672.739898 -333.711235 
L 672.816595 -330.967846 
L 672.892083 -328.224458 
L 672.965769 -325.48107 
L 673.037193 -322.737682 
L 673.106059 -319.994294 
L 673.17226 -317.250906 
L 673.235885 -314.507517 
L 673.297224 -311.764129 
L 673.356759 -309.020741 
L 673.415138 -306.277353 
L 673.473143 -303.533965 
L 673.531647 -300.790577 
L 673.591566 -298.047189 
L 673.653805 -295.3038 
L 673.719206 -292.560412 
L 673.788499 -289.817024 
L 673.862262 -287.073636 
L 673.940895 -284.330248 
L 674.0246 -281.58686 
L 674.113389 -278.843472 
L 674.207098 -276.100083 
L 674.305424 -273.356695 
L 674.407973 -270.613307 
L 674.514323 -267.869919 
L 674.624088 -265.126531 
L 674.736993 -262.383143 
L 674.85294 -259.639755 
L 674.972068 -256.896366 
L 675.0948 -254.152978 
L 675.221876 -251.40959 
L 675.35436 -248.666202 
L 675.493628 -245.922814 
L 675.641335 -243.179426 
L 675.799355 -240.436038 
L 675.969709 -237.692649 
L 676.154464 -234.949261 
L 676.35564 -232.205873 
L 676.57509 -229.462485 
L 676.814394 -226.719097 
L 677.074755 -223.975709 
L 677.356897 -221.23232 
L 677.660991 -218.488932 
L 677.986588 -215.745544 
L 678.332577 -213.002156 
L 678.697169 -210.258768 
L 679.077895 -207.51538 
L 679.471632 -204.771992 
L 679.874655 -202.028603 
L 680.282692 -199.285215 
L 680.691014 -196.541827 
L 681.094524 -193.798439 
L 681.487868 -191.055051 
L 681.865545 -188.311663 
L 682.222029 -185.568275 
L 682.551892 -182.824886 
L 682.849922 -180.081498 
L 683.111247 -177.33811 
L 683.331445 -174.594722 
L 683.506651 -171.851334 
L 683.633651 -169.107946 
L 683.70996 -166.364558 
L 683.733888 -163.621169 
L 683.704583 -160.877781 
L 683.622055 -158.134393 
L 683.487178 -155.391005 
L 683.301664 -152.647617 
L 683.068021 -149.904229 
L 682.789486 -147.160841 
L 682.469934 -144.417452 
L 682.113773 -141.674064 
L 681.725829 -138.930676 
L 681.311218 -136.187288 
L 680.875211 -133.4439 
L 680.423107 -130.700512 
L 679.96011 -127.957123 
L 679.491212 -125.213735 
L 679.021099 -122.470347 
L 678.554065 -119.726959 
L 678.093953 -116.983571 
L 677.644114 -114.240183 
L 677.207389 -111.496795 
L 676.786104 -108.753406 
L 676.382088 -106.010018 
L 675.996706 -103.26663 
L 675.630895 -100.523242 
L 675.285219 -97.779854 
L 674.959921 -95.036466 
L 674.654971 -92.293078 
L 674.370129 -89.549689 
L 674.104984 -86.806301 
L 673.858999 -84.062913 
L 673.631549 -81.319525 
L 673.421945 -78.576137 
L 673.229459 -75.832749 
L 673.053335 -73.089361 
L 672.892804 -70.345972 
z
" id="m99003ff984" style="stroke:#414141;stroke-width:2;"/>
    </defs>
    <g clip-path="url(#p053da57d6b)">
     <use style="fill:#e270db;stroke:#414141;stroke-width:2;" x="0" xlink:href="#m99003ff984" y="391.910113"/>
    </g>
   </g>
   <g id="line2d_1">
    <path clip-path="url(#p053da57d6b)" d="M 49.9631 240.444161 
L 719.5631 240.444161 
" style="fill:none;stroke:#404040;stroke-dasharray:5.55,2.4;stroke-dashoffset:0;stroke-width:1.5;"/>
   </g>
   <g id="line2d_2">
    <path clip-path="url(#p053da57d6b)" d="M 97.791671 330.614153 
L 97.791671 202.090208 
" style="fill:none;stroke:#414141;stroke-linecap:round;stroke-width:2;"/>
   </g>
   <g id="line2d_3">
    <path clip-path="url(#p053da57d6b)" d="M 97.791671 273.473911 
L 97.791671 233.522404 
" style="fill:none;stroke:#414141;stroke-linecap:round;stroke-width:6;"/>
   </g>
   <g id="line2d_4">
    <path clip-path="url(#p053da57d6b)" d="M 193.448814 306.353145 
L 193.448814 202.668911 
" style="fill:none;stroke:#414141;stroke-linecap:round;stroke-width:2;"/>
   </g>
   <g id="line2d_5">
    <path clip-path="url(#p053da57d6b)" d="M 193.448814 262.464257 
L 193.448814 225.940677 
" style="fill:none;stroke:#414141;stroke-linecap:round;stroke-width:6;"/>
   </g>
   <g id="line2d_6">
    <path clip-path="url(#p053da57d6b)" d="M 289.105957 261.005864 
L 289.105957 151.8827 
" style="fill:none;stroke:#414141;stroke-linecap:round;stroke-width:2;"/>
   </g>
   <g id="line2d_7">
    <path clip-path="url(#p053da57d6b)" d="M 289.105957 250.426999 
L 289.105957 208.561895 
" style="fill:none;stroke:#414141;stroke-linecap:round;stroke-width:6;"/>
   </g>
   <g id="line2d_8">
    <path clip-path="url(#p053da57d6b)" d="M 384.7631 272.007666 
L 384.7631 199.731658 
" style="fill:none;stroke:#414141;stroke-linecap:round;stroke-width:2;"/>
   </g>
   <g id="line2d_9">
    <path clip-path="url(#p053da57d6b)" d="M 384.7631 245.470139 
L 384.7631 220.764696 
" style="fill:none;stroke:#414141;stroke-linecap:round;stroke-width:6;"/>
   </g>
   <g id="line2d_10">
    <path clip-path="url(#p053da57d6b)" d="M 480.420243 264.37218 
L 480.420243 211.263311 
" style="fill:none;stroke:#414141;stroke-linecap:round;stroke-width:2;"/>
   </g>
   <g id="line2d_11">
    <path clip-path="url(#p053da57d6b)" d="M 480.420243 247.326876 
L 480.420243 227.76555 
" style="fill:none;stroke:#414141;stroke-linecap:round;stroke-width:6;"/>
   </g>
   <g id="line2d_12">
    <path clip-path="url(#p053da57d6b)" d="M 576.077386 248.022341 
L 576.077386 194.596983 
" style="fill:none;stroke:#414141;stroke-linecap:round;stroke-width:2;"/>
   </g>
   <g id="line2d_13">
    <path clip-path="url(#p053da57d6b)" d="M 576.077386 235.916993 
L 576.077386 208.777387 
" style="fill:none;stroke:#414141;stroke-linecap:round;stroke-width:6;"/>
   </g>
   <g id="line2d_14">
    <path clip-path="url(#p053da57d6b)" d="M 671.734529 291.277934 
L 671.734529 137.169027 
" style="fill:none;stroke:#414141;stroke-linecap:round;stroke-width:2;"/>
   </g>
   <g id="line2d_15">
    <path clip-path="url(#p053da57d6b)" d="M 671.734529 238.20714 
L 671.734529 191.181457 
" style="fill:none;stroke:#414141;stroke-linecap:round;stroke-width:6;"/>
   </g>
   <g id="patch_3">
    <path d="M 49.9631 368.071988 
L 49.9631 41.911988 
" style="fill:none;stroke:#262626;stroke-linecap:square;stroke-linejoin:miter;stroke-width:1.25;"/>
   </g>
   <g id="patch_4">
    <path d="M 719.5631 368.071988 
L 719.5631 41.911988 
" style="fill:none;stroke:#262626;stroke-linecap:square;stroke-linejoin:miter;stroke-width:1.25;"/>
   </g>
   <g id="patch_5">
    <path d="M 49.9631 368.071988 
L 719.5631 368.071988 
" style="fill:none;stroke:#262626;stroke-linecap:square;stroke-linejoin:miter;stroke-width:1.25;"/>
   </g>
   <g id="patch_6">
    <path d="M 49.9631 41.911988 
L 719.5631 41.911988 
" style="fill:none;stroke:#262626;stroke-linecap:square;stroke-linejoin:miter;stroke-width:1.25;"/>
   </g>
   <g id="PathCollection_1">
    <defs>
     <path d="M 0 2 
C 0.530406 2 1.03916 1.789267 1.414214 1.414214 
C 1.789267 1.03916 2 0.530406 2 0 
C 2 -0.530406 1.789267 -1.03916 1.414214 -1.414214 
C 1.03916 -1.789267 0.530406 -2 0 -2 
C -0.530406 -2 -1.03916 -1.789267 -1.414214 -1.414214 
C -1.789267 -1.03916 -2 -0.530406 -2 0 
C -2 0.530406 -1.789267 1.03916 -1.414214 1.414214 
C -1.03916 1.789267 -0.530406 2 0 2 
z
" id="mefb7e8bb47" style="stroke:#414141;"/>
    </defs>
    <g clip-path="url(#p053da57d6b)">
     <use style="fill:#ffffff;stroke:#414141;" x="97.791671" xlink:href="#mefb7e8bb47" y="247.264067"/>
    </g>
   </g>
   <g id="PathCollection_2">
    <g clip-path="url(#p053da57d6b)">
     <use style="fill:#ffffff;stroke:#414141;" x="193.448814" xlink:href="#mefb7e8bb47" y="231.019125"/>
    </g>
   </g>
   <g id="PathCollection_3">
    <g clip-path="url(#p053da57d6b)">
     <use style="fill:#ffffff;stroke:#414141;" x="289.105957" xlink:href="#mefb7e8bb47" y="231.136461"/>
    </g>
   </g>
   <g id="PathCollection_4">
    <g clip-path="url(#p053da57d6b)">
     <use style="fill:#ffffff;stroke:#414141;" x="384.7631" xlink:href="#mefb7e8bb47" y="231.34881"/>
    </g>
   </g>
   <g id="PathCollection_5">
    <g clip-path="url(#p053da57d6b)">
     <use style="fill:#ffffff;stroke:#414141;" x="480.420243" xlink:href="#mefb7e8bb47" y="237.787638"/>
    </g>
   </g>
   <g id="PathCollection_6">
    <g clip-path="url(#p053da57d6b)">
     <use style="fill:#ffffff;stroke:#414141;" x="576.077386" xlink:href="#mefb7e8bb47" y="227.066206"/>
    </g>
   </g>
   <g id="PathCollection_7">
    <g clip-path="url(#p053da57d6b)">
     <use style="fill:#ffffff;stroke:#414141;" x="671.734529" xlink:href="#mefb7e8bb47" y="222.107125"/>
    </g>
   </g>
   <g id="text_15">
    <!-- Crashes after the start of DST in California (20012016) -->
    <defs>
     <path d="M 6.390625 0 
L 6.390625 71.578125 
L 15.1875 71.578125 
L 15.1875 0 
z
" id="ArialMT-108"/>
     <path d="M -0.203125 22.359375 
L -0.203125 29.4375 
L 55.421875 29.4375 
L 55.421875 22.359375 
z
" id="ArialMT-8211"/>
    </defs>
    <g style="fill:#262626;" transform="translate(62.742944 26.127187)scale(0.26 -0.26)">
     <use xlink:href="#ArialMT-67"/>
     <use x="72.216797" xlink:href="#ArialMT-114"/>
     <use x="105.517578" xlink:href="#ArialMT-97"/>
     <use x="161.132812" xlink:href="#ArialMT-115"/>
     <use x="211.132812" xlink:href="#ArialMT-104"/>
     <use x="266.748047" xlink:href="#ArialMT-101"/>
     <use x="322.363281" xlink:href="#ArialMT-115"/>
     <use x="372.363281" xlink:href="#ArialMT-32"/>
     <use x="400.146484" xlink:href="#ArialMT-97"/>
     <use x="455.761719" xlink:href="#ArialMT-102"/>
     <use x="483.544922" xlink:href="#ArialMT-116"/>
     <use x="511.328125" xlink:href="#ArialMT-101"/>
     <use x="566.943359" xlink:href="#ArialMT-114"/>
     <use x="600.244141" xlink:href="#ArialMT-32"/>
     <use x="628.027344" xlink:href="#ArialMT-116"/>
     <use x="655.810547" xlink:href="#ArialMT-104"/>
     <use x="711.425781" xlink:href="#ArialMT-101"/>
     <use x="767.041016" xlink:href="#ArialMT-32"/>
     <use x="794.824219" xlink:href="#ArialMT-115"/>
     <use x="844.824219" xlink:href="#ArialMT-116"/>
     <use x="872.607422" xlink:href="#ArialMT-97"/>
     <use x="928.222656" xlink:href="#ArialMT-114"/>
     <use x="961.523438" xlink:href="#ArialMT-116"/>
     <use x="989.306641" xlink:href="#ArialMT-32"/>
     <use x="1017.089844" xlink:href="#ArialMT-111"/>
     <use x="1072.705078" xlink:href="#ArialMT-102"/>
     <use x="1100.488281" xlink:href="#ArialMT-32"/>
     <use x="1128.271484" xlink:href="#ArialMT-68"/>
     <use x="1200.488281" xlink:href="#ArialMT-83"/>
     <use x="1267.1875" xlink:href="#ArialMT-84"/>
     <use x="1326.521484" xlink:href="#ArialMT-32"/>
     <use x="1354.304688" xlink:href="#ArialMT-105"/>
     <use x="1376.521484" xlink:href="#ArialMT-110"/>
     <use x="1432.136719" xlink:href="#ArialMT-32"/>
     <use x="1459.919922" xlink:href="#ArialMT-67"/>
     <use x="1532.136719" xlink:href="#ArialMT-97"/>
     <use x="1587.751953" xlink:href="#ArialMT-108"/>
     <use x="1609.96875" xlink:href="#ArialMT-105"/>
     <use x="1632.185547" xlink:href="#ArialMT-102"/>
     <use x="1659.96875" xlink:href="#ArialMT-111"/>
     <use x="1715.583984" xlink:href="#ArialMT-114"/>
     <use x="1748.884766" xlink:href="#ArialMT-110"/>
     <use x="1804.5" xlink:href="#ArialMT-105"/>
     <use x="1826.716797" xlink:href="#ArialMT-97"/>
     <use x="1882.332031" xlink:href="#ArialMT-32"/>
     <use x="1910.115234" xlink:href="#ArialMT-40"/>
     <use x="1943.416016" xlink:href="#ArialMT-50"/>
     <use x="1999.03125" xlink:href="#ArialMT-48"/>
     <use x="2054.646484" xlink:href="#ArialMT-48"/>
     <use x="2110.261719" xlink:href="#ArialMT-49"/>
     <use x="2165.876953" xlink:href="#ArialMT-8211"/>
     <use x="2221.492188" xlink:href="#ArialMT-50"/>
     <use x="2277.107422" xlink:href="#ArialMT-48"/>
     <use x="2332.722656" xlink:href="#ArialMT-49"/>
     <use x="2388.337891" xlink:href="#ArialMT-54"/>
     <use x="2443.953125" xlink:href="#ArialMT-41"/>
    </g>
   </g>
  </g>
 </g>
 <defs>
  <clipPath id="p053da57d6b">
   <rect height="326.16" width="669.6" x="49.9631" y="41.911988"/>
  </clipPath>
 </defs>
</svg>
