<?xml version="1.0" encoding="utf-8" standalone="no"?>
<!DOCTYPE svg PUBLIC "-//W3C//DTD SVG 1.1//EN"
  "http://www.w3.org/Graphics/SVG/1.1/DTD/svg11.dtd">
<!-- Created with matplotlib (http://matplotlib.org/) -->
<svg height="391.7373pt" version="1.1" viewBox="0 0 727.0682 391.7373" width="727.0682pt" xmlns="http://www.w3.org/2000/svg" xmlns:xlink="http://www.w3.org/1999/xlink">
 <defs>
  <style type="text/css">
*{stroke-linecap:butt;stroke-linejoin:round;}
  </style>
 </defs>
 <g id="figure_1">
  <g id="patch_1">
   <path d="M 0 391.7373 
L 727.0682 391.7373 
L 727.0682 0 
L 0 0 
z
" style="fill:#ffffff;"/>
  </g>
  <g id="axes_1">
   <g id="patch_2">
    <path d="M 50.2682 367.986675 
L 719.8682 367.986675 
L 719.8682 41.826675 
L 50.2682 41.826675 
z
" style="fill:#ffffff;"/>
   </g>
   <g id="matplotlib.axis_1">
    <g id="xtick_1">
     <g id="text_1">
      <!-- Sunday (DST) -->
      <defs>
       <path d="M 62.109375 19 
Q 62.109375 14.65625 60.421875 10.984375 
Q 58.734375 7.328125 55.21875 4.65625 
Q 51.703125 2 46.359375 0.5 
Q 41.015625 -0.984375 33.6875 -0.984375 
Q 20.84375 -0.984375 13.671875 3.515625 
Q 6.5 8.015625 4.546875 16.5 
L 13.578125 18.3125 
Q 14.265625 15.625 15.671875 13.421875 
Q 17.09375 11.234375 19.5 9.640625 
Q 21.921875 8.0625 25.484375 7.171875 
Q 29.046875 6.296875 34.03125 6.296875 
Q 38.1875 6.296875 41.65625 7 
Q 45.125 7.71875 47.609375 9.171875 
Q 50.09375 10.640625 51.484375 12.953125 
Q 52.875 15.28125 52.875 18.5 
Q 52.875 21.875 51.34375 23.96875 
Q 49.8125 26.078125 47.015625 27.4375 
Q 44.234375 28.8125 40.375 29.734375 
Q 36.53125 30.671875 31.84375 31.734375 
Q 28.953125 32.375 26.046875 33.125 
Q 23.140625 33.890625 20.484375 34.9375 
Q 17.828125 35.984375 15.484375 37.390625 
Q 13.140625 38.8125 11.421875 40.796875 
Q 9.71875 42.78125 8.734375 45.390625 
Q 7.765625 48 7.765625 51.421875 
Q 7.765625 56.296875 9.734375 59.78125 
Q 11.71875 63.28125 15.234375 65.53125 
Q 18.75 67.78125 23.53125 68.796875 
Q 28.328125 69.828125 33.890625 69.828125 
Q 40.28125 69.828125 44.8125 68.828125 
Q 49.359375 67.828125 52.484375 65.8125 
Q 55.609375 63.8125 57.484375 60.859375 
Q 59.375 57.90625 60.5 54 
L 51.3125 52.390625 
Q 50.640625 54.890625 49.34375 56.84375 
Q 48.046875 58.796875 45.9375 60.109375 
Q 43.84375 61.421875 40.84375 62.109375 
Q 37.84375 62.796875 33.796875 62.796875 
Q 29 62.796875 25.75 61.9375 
Q 22.515625 61.078125 20.53125 59.609375 
Q 18.5625 58.15625 17.703125 56.171875 
Q 16.84375 54.203125 16.84375 51.90625 
Q 16.84375 48.828125 18.375 46.84375 
Q 19.921875 44.875 22.5625 43.546875 
Q 25.203125 42.234375 28.65625 41.359375 
Q 32.125 40.484375 36.03125 39.59375 
Q 39.203125 38.875 42.359375 38.109375 
Q 45.515625 37.359375 48.390625 36.296875 
Q 51.265625 35.25 53.78125 33.828125 
Q 56.296875 32.421875 58.15625 30.375 
Q 60.015625 28.328125 61.0625 25.53125 
Q 62.109375 22.75 62.109375 19 
z
" id="LiberationSans-53"/>
       <path d="M 15.328125 52.828125 
L 15.328125 19.34375 
Q 15.328125 15.484375 15.890625 12.890625 
Q 16.453125 10.296875 17.71875 8.703125 
Q 19 7.125 21.0625 6.46875 
Q 23.140625 5.8125 26.21875 5.8125 
Q 29.34375 5.8125 31.859375 6.90625 
Q 34.375 8.015625 36.15625 10.078125 
Q 37.9375 12.15625 38.90625 15.203125 
Q 39.890625 18.265625 39.890625 22.21875 
L 39.890625 52.828125 
L 48.6875 52.828125 
L 48.6875 11.28125 
Q 48.6875 9.625 48.703125 7.78125 
Q 48.734375 5.953125 48.78125 4.3125 
Q 48.828125 2.6875 48.875 1.515625 
Q 48.921875 0.34375 48.96875 0 
L 40.671875 0 
Q 40.625 0.25 40.578125 1.3125 
Q 40.53125 2.390625 40.453125 3.78125 
Q 40.375 5.171875 40.328125 6.609375 
Q 40.28125 8.0625 40.28125 9.03125 
L 40.140625 9.03125 
Q 38.875 6.734375 37.359375 4.875 
Q 35.84375 3.03125 33.84375 1.734375 
Q 31.84375 0.4375 29.25 -0.265625 
Q 26.65625 -0.984375 23.25 -0.984375 
Q 18.84375 -0.984375 15.671875 0.09375 
Q 12.5 1.171875 10.453125 3.421875 
Q 8.40625 5.671875 7.453125 9.1875 
Q 6.5 12.703125 6.5 17.625 
L 6.5 52.828125 
z
" id="LiberationSans-75"/>
       <path d="M 40.28125 0 
L 40.28125 33.5 
Q 40.28125 37.359375 39.71875 39.9375 
Q 39.15625 42.53125 37.890625 44.109375 
Q 36.625 45.703125 34.546875 46.359375 
Q 32.46875 47.015625 29.390625 47.015625 
Q 26.265625 47.015625 23.75 45.921875 
Q 21.234375 44.828125 19.453125 42.75 
Q 17.671875 40.671875 16.6875 37.625 
Q 15.71875 34.578125 15.71875 30.609375 
L 15.71875 0 
L 6.9375 0 
L 6.9375 41.546875 
Q 6.9375 43.21875 6.90625 45.046875 
Q 6.890625 46.875 6.828125 48.5 
Q 6.78125 50.140625 6.734375 51.3125 
Q 6.6875 52.484375 6.640625 52.828125 
L 14.9375 52.828125 
Q 14.984375 52.59375 15.03125 51.515625 
Q 15.09375 50.4375 15.15625 49.046875 
Q 15.234375 47.65625 15.28125 46.21875 
Q 15.328125 44.78125 15.328125 43.796875 
L 15.484375 43.796875 
Q 16.75 46.09375 18.265625 47.953125 
Q 19.78125 49.8125 21.78125 51.09375 
Q 23.78125 52.390625 26.359375 53.09375 
Q 28.953125 53.8125 32.375 53.8125 
Q 36.765625 53.8125 39.9375 52.734375 
Q 43.109375 51.65625 45.15625 49.40625 
Q 47.21875 47.171875 48.171875 43.625 
Q 49.125 40.09375 49.125 35.203125 
L 49.125 0 
z
" id="LiberationSans-6e"/>
       <path d="M 40.09375 8.5 
Q 37.640625 3.421875 33.609375 1.21875 
Q 29.59375 -0.984375 23.640625 -0.984375 
Q 13.625 -0.984375 8.90625 5.75 
Q 4.203125 12.5 4.203125 26.171875 
Q 4.203125 53.8125 23.640625 53.8125 
Q 29.640625 53.8125 33.640625 51.609375 
Q 37.640625 49.421875 40.09375 44.625 
L 40.1875 44.625 
Q 40.1875 45.125 40.15625 46.171875 
Q 40.140625 47.21875 40.109375 48.359375 
Q 40.09375 49.515625 40.09375 50.53125 
Q 40.09375 51.5625 40.09375 52 
L 40.09375 72.46875 
L 48.875 72.46875 
L 48.875 10.890625 
Q 48.875 8.984375 48.890625 7.21875 
Q 48.921875 5.46875 48.96875 4 
Q 49.03125 2.546875 49.078125 1.484375 
Q 49.125 0.4375 49.171875 0 
L 40.765625 0 
Q 40.671875 0.484375 40.59375 1.390625 
Q 40.53125 2.296875 40.453125 3.46875 
Q 40.375 4.640625 40.328125 5.9375 
Q 40.28125 7.234375 40.28125 8.5 
z
M 13.421875 26.46875 
Q 13.421875 21 14.109375 17.09375 
Q 14.796875 13.1875 16.3125 10.671875 
Q 17.828125 8.15625 20.171875 6.984375 
Q 22.515625 5.8125 25.875 5.8125 
Q 29.34375 5.8125 32 6.9375 
Q 34.671875 8.0625 36.453125 10.578125 
Q 38.234375 13.09375 39.15625 17.140625 
Q 40.09375 21.1875 40.09375 27.046875 
Q 40.09375 32.671875 39.15625 36.546875 
Q 38.234375 40.4375 36.421875 42.828125 
Q 34.625 45.21875 32 46.265625 
Q 29.390625 47.3125 25.984375 47.3125 
Q 22.75 47.3125 20.40625 46.1875 
Q 18.0625 45.0625 16.5 42.578125 
Q 14.9375 40.09375 14.171875 36.109375 
Q 13.421875 32.125 13.421875 26.46875 
z
" id="LiberationSans-64"/>
       <path d="M 20.21875 -0.984375 
Q 12.25 -0.984375 8.25 3.21875 
Q 4.25 7.421875 4.25 14.75 
Q 4.25 19.96875 6.21875 23.3125 
Q 8.203125 26.65625 11.390625 28.5625 
Q 14.59375 30.46875 18.6875 31.203125 
Q 22.796875 31.9375 27.046875 32.03125 
L 38.921875 32.234375 
L 38.921875 35.109375 
Q 38.921875 38.375 38.234375 40.671875 
Q 37.546875 42.96875 36.125 44.375 
Q 34.71875 45.796875 32.59375 46.453125 
Q 30.46875 47.125 27.59375 47.125 
Q 25.046875 47.125 23 46.75 
Q 20.953125 46.390625 19.4375 45.4375 
Q 17.921875 44.484375 16.984375 42.84375 
Q 16.0625 41.21875 15.765625 38.71875 
L 6.59375 39.546875 
Q 7.078125 42.671875 8.4375 45.28125 
Q 9.8125 47.90625 12.328125 49.796875 
Q 14.84375 51.703125 18.625 52.75 
Q 22.40625 53.8125 27.78125 53.8125 
Q 37.75 53.8125 42.765625 49.234375 
Q 47.796875 44.671875 47.796875 36.03125 
L 47.796875 13.28125 
Q 47.796875 9.375 48.828125 7.390625 
Q 49.859375 5.421875 52.734375 5.421875 
Q 53.46875 5.421875 54.203125 5.515625 
Q 54.9375 5.609375 55.609375 5.765625 
L 55.609375 0.296875 
Q 53.953125 -0.09375 52.3125 -0.28125 
Q 50.6875 -0.484375 48.828125 -0.484375 
Q 46.34375 -0.484375 44.5625 0.171875 
Q 42.78125 0.828125 41.65625 2.171875 
Q 40.53125 3.515625 39.9375 5.484375 
Q 39.359375 7.46875 39.203125 10.109375 
L 38.921875 10.109375 
Q 37.5 7.5625 35.8125 5.515625 
Q 34.125 3.46875 31.875 2.03125 
Q 29.640625 0.59375 26.78125 -0.1875 
Q 23.921875 -0.984375 20.21875 -0.984375 
z
M 22.21875 5.609375 
Q 26.421875 5.609375 29.5625 7.140625 
Q 32.71875 8.6875 34.78125 11.078125 
Q 36.859375 13.484375 37.890625 16.3125 
Q 38.921875 19.140625 38.921875 21.734375 
L 38.921875 26.078125 
L 29.296875 25.875 
Q 26.078125 25.828125 23.171875 25.40625 
Q 20.265625 25 18.0625 23.78125 
Q 15.875 22.5625 14.578125 20.359375 
Q 13.28125 18.171875 13.28125 14.59375 
Q 13.28125 10.296875 15.59375 7.953125 
Q 17.921875 5.609375 22.21875 5.609375 
z
" id="LiberationSans-61"/>
       <path d="M 29.5 0 
Q 27.640625 -4.78125 25.703125 -8.609375 
Q 23.78125 -12.453125 21.390625 -15.15625 
Q 19 -17.875 16.0625 -19.3125 
Q 13.140625 -20.75 9.328125 -20.75 
Q 7.671875 -20.75 6.25 -20.65625 
Q 4.828125 -20.5625 3.265625 -20.21875 
L 3.265625 -13.625 
Q 4.203125 -13.765625 5.375 -13.84375 
Q 6.546875 -13.921875 7.375 -13.921875 
Q 11.234375 -13.921875 14.546875 -11.03125 
Q 17.875 -8.15625 20.359375 -1.859375 
L 21.1875 0.25 
L 0.25 52.828125 
L 9.625 52.828125 
L 20.75 23.640625 
Q 21.234375 22.3125 21.984375 20.109375 
Q 22.75 17.921875 23.5 15.71875 
Q 24.265625 13.53125 24.84375 11.765625 
Q 25.4375 10.015625 25.53125 9.578125 
Q 25.6875 10.109375 26.25 11.6875 
Q 26.8125 13.28125 27.515625 15.234375 
Q 28.21875 17.1875 28.953125 19.1875 
Q 29.6875 21.1875 30.171875 22.65625 
L 40.53125 52.828125 
L 49.8125 52.828125 
z
" id="LiberationSans-79"/>
       <path id="LiberationSans-20"/>
       <path d="M 6.203125 25.984375 
Q 6.203125 32.765625 7.21875 38.96875 
Q 8.25 45.171875 10.4375 50.875 
Q 12.640625 56.59375 16.0625 61.953125 
Q 19.484375 67.328125 24.21875 72.46875 
L 32.71875 72.46875 
Q 28.125 67.328125 24.78125 61.9375 
Q 21.4375 56.546875 19.28125 50.796875 
Q 17.140625 45.0625 16.09375 38.859375 
Q 15.046875 32.671875 15.046875 25.875 
Q 15.046875 19.09375 16.09375 12.890625 
Q 17.140625 6.6875 19.28125 0.921875 
Q 21.4375 -4.828125 24.78125 -10.203125 
Q 28.125 -15.578125 32.71875 -20.703125 
L 24.21875 -20.703125 
Q 19.484375 -15.578125 16.0625 -10.203125 
Q 12.640625 -4.828125 10.4375 0.875 
Q 8.25 6.59375 7.21875 12.765625 
Q 6.203125 18.953125 6.203125 25.78125 
z
" id="LiberationSans-28"/>
       <path d="M 67.4375 35.109375 
Q 67.4375 26.515625 64.84375 19.9375 
Q 62.25 13.375 57.75 8.953125 
Q 53.265625 4.546875 47.140625 2.265625 
Q 41.015625 0 33.9375 0 
L 8.203125 0 
L 8.203125 68.796875 
L 30.953125 68.796875 
Q 38.921875 68.796875 45.625 66.8125 
Q 52.34375 64.84375 57.171875 60.71875 
Q 62.015625 56.59375 64.71875 50.234375 
Q 67.4375 43.890625 67.4375 35.109375 
z
M 58.0625 35.109375 
Q 58.0625 42.09375 56.046875 47.046875 
Q 54.046875 52 50.4375 55.171875 
Q 46.828125 58.34375 41.796875 59.828125 
Q 36.765625 61.328125 30.765625 61.328125 
L 17.53125 61.328125 
L 17.53125 7.46875 
L 32.859375 7.46875 
Q 38.28125 7.46875 42.890625 9.21875 
Q 47.515625 10.984375 50.875 14.453125 
Q 54.25 17.921875 56.15625 23.09375 
Q 58.0625 28.265625 58.0625 35.109375 
z
" id="LiberationSans-44"/>
       <path d="M 35.15625 61.1875 
L 35.15625 0 
L 25.875 0 
L 25.875 61.1875 
L 2.25 61.1875 
L 2.25 68.796875 
L 58.796875 68.796875 
L 58.796875 61.1875 
z
" id="LiberationSans-54"/>
       <path d="M 27.09375 25.78125 
Q 27.09375 18.953125 26.0625 12.765625 
Q 25.046875 6.59375 22.84375 0.875 
Q 20.65625 -4.828125 17.234375 -10.203125 
Q 13.8125 -15.578125 9.078125 -20.703125 
L 0.59375 -20.703125 
Q 5.171875 -15.578125 8.515625 -10.203125 
Q 11.859375 -4.828125 14 0.921875 
Q 16.15625 6.6875 17.203125 12.890625 
Q 18.265625 19.09375 18.265625 25.875 
Q 18.265625 32.671875 17.203125 38.859375 
Q 16.15625 45.0625 14 50.796875 
Q 11.859375 56.546875 8.515625 61.9375 
Q 5.171875 67.328125 0.59375 72.46875 
L 9.078125 72.46875 
Q 13.8125 67.328125 17.234375 61.953125 
Q 20.65625 56.59375 22.84375 50.875 
Q 25.046875 45.171875 26.0625 38.96875 
Q 27.09375 32.765625 27.09375 25.984375 
z
" id="LiberationSans-29"/>
      </defs>
      <g style="fill:#262626;" transform="translate(53.750678 381.6323)scale(0.14 -0.14)">
       <use xlink:href="#LiberationSans-53"/>
       <use x="66.699219" xlink:href="#LiberationSans-75"/>
       <use x="122.314453" xlink:href="#LiberationSans-6e"/>
       <use x="177.929688" xlink:href="#LiberationSans-64"/>
       <use x="233.544922" xlink:href="#LiberationSans-61"/>
       <use x="289.160156" xlink:href="#LiberationSans-79"/>
       <use x="339.160156" xlink:href="#LiberationSans-20"/>
       <use x="366.943359" xlink:href="#LiberationSans-28"/>
       <use x="400.244141" xlink:href="#LiberationSans-44"/>
       <use x="472.460938" xlink:href="#LiberationSans-53"/>
       <use x="539.160156" xlink:href="#LiberationSans-54"/>
       <use x="600.244141" xlink:href="#LiberationSans-29"/>
      </g>
     </g>
    </g>
    <g id="xtick_2">
     <g id="text_2">
      <!-- Monday -->
      <defs>
       <path d="M 66.703125 0 
L 66.703125 45.90625 
Q 66.703125 48.390625 66.75 50.96875 
Q 66.796875 53.5625 66.890625 55.71875 
Q 67 58.203125 67.140625 60.546875 
Q 66.453125 58.0625 65.71875 55.609375 
Q 65.09375 53.515625 64.328125 51.140625 
Q 63.578125 48.78125 62.84375 46.875 
L 45.0625 0 
L 38.53125 0 
L 20.515625 46.875 
Q 20.21875 47.609375 19.890625 48.578125 
Q 19.578125 49.5625 19.203125 50.65625 
Q 18.84375 51.765625 18.46875 52.90625 
Q 18.109375 54.046875 17.78125 55.171875 
Q 16.9375 57.765625 16.15625 60.546875 
Q 16.21875 57.8125 16.3125 55.125 
Q 16.40625 52.828125 16.453125 50.3125 
Q 16.5 47.796875 16.5 45.90625 
L 16.5 0 
L 8.203125 0 
L 8.203125 68.796875 
L 20.453125 68.796875 
L 38.765625 21.09375 
Q 39.109375 20.125 39.59375 18.578125 
Q 40.09375 17.046875 40.53125 15.421875 
Q 40.96875 13.8125 41.328125 12.375 
Q 41.703125 10.9375 41.84375 10.15625 
Q 42 10.9375 42.390625 12.40625 
Q 42.78125 13.875 43.28125 15.484375 
Q 43.796875 17.09375 44.28125 18.609375 
Q 44.78125 20.125 45.171875 21.09375 
L 63.140625 68.796875 
L 75.09375 68.796875 
L 75.09375 0 
z
" id="LiberationSans-4d"/>
       <path d="M 51.421875 26.46875 
Q 51.421875 12.59375 45.3125 5.796875 
Q 39.203125 -0.984375 27.59375 -0.984375 
Q 22.078125 -0.984375 17.71875 0.671875 
Q 13.375 2.34375 10.375 5.765625 
Q 7.375 9.1875 5.78125 14.328125 
Q 4.203125 19.484375 4.203125 26.46875 
Q 4.203125 53.8125 27.875 53.8125 
Q 34.03125 53.8125 38.5 52.09375 
Q 42.96875 50.390625 45.828125 46.96875 
Q 48.6875 43.5625 50.046875 38.421875 
Q 51.421875 33.296875 51.421875 26.46875 
z
M 42.1875 26.46875 
Q 42.1875 32.625 41.234375 36.625 
Q 40.28125 40.625 38.453125 43.015625 
Q 36.625 45.40625 33.984375 46.359375 
Q 31.34375 47.3125 28.03125 47.3125 
Q 24.65625 47.3125 21.9375 46.3125 
Q 19.234375 45.3125 17.328125 42.890625 
Q 15.4375 40.484375 14.421875 36.46875 
Q 13.421875 32.46875 13.421875 26.46875 
Q 13.421875 20.3125 14.5 16.28125 
Q 15.578125 12.25 17.453125 9.859375 
Q 19.34375 7.46875 21.90625 6.484375 
Q 24.46875 5.515625 27.484375 5.515625 
Q 30.859375 5.515625 33.59375 6.46875 
Q 36.328125 7.421875 38.234375 9.8125 
Q 40.140625 12.203125 41.15625 16.25 
Q 42.1875 20.3125 42.1875 26.46875 
z
" id="LiberationSans-6f"/>
      </defs>
      <g style="fill:#262626;" transform="translate(168.852508 381.6323)scale(0.14 -0.14)">
       <use xlink:href="#LiberationSans-4d"/>
       <use x="83.300781" xlink:href="#LiberationSans-6f"/>
       <use x="138.916016" xlink:href="#LiberationSans-6e"/>
       <use x="194.53125" xlink:href="#LiberationSans-64"/>
       <use x="250.146484" xlink:href="#LiberationSans-61"/>
       <use x="305.761719" xlink:href="#LiberationSans-79"/>
      </g>
     </g>
    </g>
    <g id="xtick_3">
     <g id="text_3">
      <!-- Tuesday -->
      <defs>
       <path d="M 13.484375 24.5625 
Q 13.484375 20.40625 14.328125 16.90625 
Q 15.1875 13.421875 16.96875 10.90625 
Q 18.75 8.40625 21.53125 7 
Q 24.3125 5.609375 28.21875 5.609375 
Q 33.9375 5.609375 37.375 7.90625 
Q 40.828125 10.203125 42.046875 13.71875 
L 49.75 11.53125 
Q 48.921875 9.328125 47.4375 7.109375 
Q 45.953125 4.890625 43.453125 3.09375 
Q 40.96875 1.3125 37.234375 0.15625 
Q 33.5 -0.984375 28.21875 -0.984375 
Q 16.5 -0.984375 10.375 6 
Q 4.25 12.984375 4.25 26.765625 
Q 4.25 34.1875 6.09375 39.328125 
Q 7.953125 44.484375 11.171875 47.703125 
Q 14.40625 50.921875 18.703125 52.359375 
Q 23 53.8125 27.875 53.8125 
Q 34.515625 53.8125 38.984375 51.65625 
Q 43.453125 49.515625 46.15625 45.71875 
Q 48.875 41.9375 50.015625 36.8125 
Q 51.171875 31.6875 51.171875 25.734375 
L 51.171875 24.5625 
z
M 42.09375 31.296875 
Q 41.359375 39.65625 37.84375 43.484375 
Q 34.328125 47.3125 27.734375 47.3125 
Q 25.53125 47.3125 23.109375 46.609375 
Q 20.703125 45.90625 18.65625 44.09375 
Q 16.609375 42.28125 15.1875 39.171875 
Q 13.765625 36.078125 13.578125 31.296875 
z
" id="LiberationSans-65"/>
       <path d="M 46.390625 14.59375 
Q 46.390625 10.890625 44.9375 7.984375 
Q 43.5 5.078125 40.765625 3.09375 
Q 38.03125 1.125 34.046875 0.0625 
Q 30.078125 -0.984375 24.953125 -0.984375 
Q 20.359375 -0.984375 16.671875 -0.265625 
Q 12.984375 0.4375 10.203125 2 
Q 7.421875 3.5625 5.53125 6.125 
Q 3.65625 8.6875 2.78125 12.40625 
L 10.546875 13.921875 
Q 11.671875 9.671875 15.1875 7.6875 
Q 18.703125 5.71875 24.953125 5.71875 
Q 27.78125 5.71875 30.140625 6.109375 
Q 32.515625 6.5 34.21875 7.453125 
Q 35.9375 8.40625 36.890625 9.984375 
Q 37.84375 11.578125 37.84375 13.921875 
Q 37.84375 16.3125 36.71875 17.84375 
Q 35.59375 19.390625 33.59375 20.40625 
Q 31.59375 21.4375 28.734375 22.1875 
Q 25.875 22.953125 22.46875 23.875 
Q 19.28125 24.703125 16.15625 25.734375 
Q 13.03125 26.765625 10.515625 28.4375 
Q 8.015625 30.125 6.453125 32.609375 
Q 4.890625 35.109375 4.890625 38.875 
Q 4.890625 46.09375 10.03125 49.875 
Q 15.1875 53.65625 25.046875 53.65625 
Q 33.796875 53.65625 38.9375 50.578125 
Q 44.09375 47.515625 45.453125 40.71875 
L 37.546875 39.75 
Q 37.109375 41.796875 35.9375 43.1875 
Q 34.765625 44.578125 33.109375 45.4375 
Q 31.453125 46.296875 29.375 46.65625 
Q 27.296875 47.015625 25.046875 47.015625 
Q 19.09375 47.015625 16.25 45.203125 
Q 13.421875 43.40625 13.421875 39.75 
Q 13.421875 37.59375 14.46875 36.203125 
Q 15.53125 34.8125 17.40625 33.859375 
Q 19.28125 32.90625 21.921875 32.203125 
Q 24.5625 31.5 27.734375 30.71875 
Q 29.828125 30.171875 32.03125 29.5625 
Q 34.234375 28.953125 36.296875 28.09375 
Q 38.375 27.25 40.203125 26.09375 
Q 42.046875 24.953125 43.40625 23.34375 
Q 44.78125 21.734375 45.578125 19.578125 
Q 46.390625 17.4375 46.390625 14.59375 
z
" id="LiberationSans-73"/>
      </defs>
      <g style="fill:#262626;" transform="translate(262.568245 381.6323)scale(0.14 -0.14)">
       <use xlink:href="#LiberationSans-54"/>
       <use x="61.037109" xlink:href="#LiberationSans-75"/>
       <use x="116.652344" xlink:href="#LiberationSans-65"/>
       <use x="172.267578" xlink:href="#LiberationSans-73"/>
       <use x="222.267578" xlink:href="#LiberationSans-64"/>
       <use x="277.882812" xlink:href="#LiberationSans-61"/>
       <use x="333.498047" xlink:href="#LiberationSans-79"/>
      </g>
     </g>
    </g>
    <g id="xtick_4">
     <g id="text_4">
      <!-- Wednesday -->
      <defs>
       <path d="M 73.78125 0 
L 62.640625 0 
L 50.734375 43.703125 
Q 50.203125 45.5625 49.578125 48.09375 
Q 48.96875 50.640625 48.484375 52.9375 
Q 47.90625 55.609375 47.3125 58.40625 
Q 46.6875 55.5625 46.09375 52.875 
Q 45.5625 50.53125 44.96875 48.046875 
Q 44.390625 45.5625 43.84375 43.703125 
L 31.84375 0 
L 20.703125 0 
L 0.4375 68.796875 
L 10.15625 68.796875 
L 22.515625 25.09375 
Q 23.34375 22.015625 24.09375 18.984375 
Q 24.859375 15.96875 25.390625 13.578125 
Q 26.03125 10.75 26.5625 8.203125 
Q 27.296875 11.578125 28.078125 14.84375 
Q 28.421875 16.21875 28.765625 17.71875 
Q 29.109375 19.234375 29.46875 20.703125 
Q 29.828125 22.171875 30.1875 23.515625 
Q 30.5625 24.859375 30.859375 25.984375 
L 42.828125 68.796875 
L 51.765625 68.796875 
L 63.71875 25.984375 
Q 64.015625 24.859375 64.375 23.515625 
Q 64.75 22.171875 65.109375 20.71875 
Q 65.484375 19.28125 65.8125 17.765625 
Q 66.15625 16.265625 66.5 14.890625 
Q 67.28125 11.625 68.015625 8.203125 
Q 68.0625 8.203125 68.453125 9.890625 
Q 68.84375 11.578125 69.421875 14.109375 
Q 70.015625 16.65625 70.71875 19.609375 
Q 71.4375 22.5625 72.171875 25.09375 
L 84.328125 68.796875 
L 94.046875 68.796875 
z
" id="LiberationSans-57"/>
      </defs>
      <g style="fill:#262626;" transform="translate(348.106013 381.6323)scale(0.14 -0.14)">
       <use xlink:href="#LiberationSans-57"/>
       <use x="94.369141" xlink:href="#LiberationSans-65"/>
       <use x="149.984375" xlink:href="#LiberationSans-64"/>
       <use x="205.599609" xlink:href="#LiberationSans-6e"/>
       <use x="261.214844" xlink:href="#LiberationSans-65"/>
       <use x="316.830078" xlink:href="#LiberationSans-73"/>
       <use x="366.830078" xlink:href="#LiberationSans-64"/>
       <use x="422.445312" xlink:href="#LiberationSans-61"/>
       <use x="478.060547" xlink:href="#LiberationSans-79"/>
      </g>
     </g>
    </g>
    <g id="xtick_5">
     <g id="text_5">
      <!-- Thursday -->
      <defs>
       <path d="M 15.484375 43.796875 
Q 16.9375 46.484375 18.640625 48.359375 
Q 20.359375 50.25 22.40625 51.46875 
Q 24.46875 52.6875 26.90625 53.25 
Q 29.34375 53.8125 32.375 53.8125 
Q 37.453125 53.8125 40.703125 52.4375 
Q 43.953125 51.078125 45.828125 48.609375 
Q 47.703125 46.140625 48.40625 42.71875 
Q 49.125 39.3125 49.125 35.203125 
L 49.125 0 
L 40.28125 0 
L 40.28125 33.5 
Q 40.28125 36.859375 39.859375 39.390625 
Q 39.453125 41.9375 38.28125 43.625 
Q 37.109375 45.3125 34.953125 46.15625 
Q 32.8125 47.015625 29.390625 47.015625 
Q 26.265625 47.015625 23.75 45.890625 
Q 21.234375 44.78125 19.453125 42.71875 
Q 17.671875 40.671875 16.6875 37.734375 
Q 15.71875 34.8125 15.71875 31.15625 
L 15.71875 0 
L 6.9375 0 
L 6.9375 72.46875 
L 15.71875 72.46875 
L 15.71875 53.609375 
Q 15.71875 52 15.671875 50.390625 
Q 15.625 48.78125 15.546875 47.40625 
Q 15.484375 46.046875 15.421875 45.09375 
Q 15.375 44.140625 15.328125 43.796875 
z
" id="LiberationSans-68"/>
       <path d="M 6.9375 0 
L 6.9375 40.53125 
Q 6.9375 42.1875 6.90625 43.921875 
Q 6.890625 45.65625 6.828125 47.265625 
Q 6.78125 48.875 6.734375 50.28125 
Q 6.6875 51.703125 6.640625 52.828125 
L 14.9375 52.828125 
Q 14.984375 51.703125 15.0625 50.265625 
Q 15.140625 48.828125 15.203125 47.3125 
Q 15.28125 45.796875 15.296875 44.40625 
Q 15.328125 43.015625 15.328125 42.046875 
L 15.53125 42.046875 
Q 16.453125 45.0625 17.5 47.28125 
Q 18.5625 49.515625 19.96875 50.953125 
Q 21.390625 52.390625 23.34375 53.09375 
Q 25.296875 53.8125 28.078125 53.8125 
Q 29.15625 53.8125 30.125 53.640625 
Q 31.109375 53.46875 31.640625 53.328125 
L 31.640625 45.265625 
Q 30.765625 45.515625 29.59375 45.625 
Q 28.421875 45.75 26.953125 45.75 
Q 23.921875 45.75 21.796875 44.375 
Q 19.671875 43.015625 18.328125 40.59375 
Q 17 38.1875 16.359375 34.84375 
Q 15.71875 31.5 15.71875 27.546875 
L 15.71875 0 
z
" id="LiberationSans-72"/>
      </defs>
      <g style="fill:#262626;" transform="translate(451.548468 381.6323)scale(0.14 -0.14)">
       <use xlink:href="#LiberationSans-54"/>
       <use x="61.083984" xlink:href="#LiberationSans-68"/>
       <use x="116.699219" xlink:href="#LiberationSans-75"/>
       <use x="172.314453" xlink:href="#LiberationSans-72"/>
       <use x="205.615234" xlink:href="#LiberationSans-73"/>
       <use x="255.615234" xlink:href="#LiberationSans-64"/>
       <use x="311.230469" xlink:href="#LiberationSans-61"/>
       <use x="366.845703" xlink:href="#LiberationSans-79"/>
      </g>
     </g>
    </g>
    <g id="xtick_6">
     <g id="text_6">
      <!-- Friday -->
      <defs>
       <path d="M 17.53125 61.1875 
L 17.53125 35.59375 
L 55.90625 35.59375 
L 55.90625 27.875 
L 17.53125 27.875 
L 17.53125 0 
L 8.203125 0 
L 8.203125 68.796875 
L 57.078125 68.796875 
L 57.078125 61.1875 
z
" id="LiberationSans-46"/>
       <path d="M 6.6875 64.0625 
L 6.6875 72.46875 
L 15.484375 72.46875 
L 15.484375 64.0625 
z
M 6.6875 0 
L 6.6875 52.828125 
L 15.484375 52.828125 
L 15.484375 0 
z
" id="LiberationSans-69"/>
      </defs>
      <g style="fill:#262626;" transform="translate(556.935611 381.6323)scale(0.14 -0.14)">
       <use xlink:href="#LiberationSans-46"/>
       <use x="61.083984" xlink:href="#LiberationSans-72"/>
       <use x="94.384766" xlink:href="#LiberationSans-69"/>
       <use x="116.601562" xlink:href="#LiberationSans-64"/>
       <use x="172.216797" xlink:href="#LiberationSans-61"/>
       <use x="227.832031" xlink:href="#LiberationSans-79"/>
      </g>
     </g>
    </g>
    <g id="xtick_7">
     <g id="text_7">
      <!-- Saturday -->
      <defs>
       <path d="M 27.046875 0.390625 
Q 25.046875 -0.140625 22.96875 -0.453125 
Q 20.90625 -0.78125 18.171875 -0.78125 
Q 7.625 -0.78125 7.625 11.1875 
L 7.625 46.4375 
L 1.515625 46.4375 
L 1.515625 52.828125 
L 7.953125 52.828125 
L 10.546875 64.65625 
L 16.40625 64.65625 
L 16.40625 52.828125 
L 26.171875 52.828125 
L 26.171875 46.4375 
L 16.40625 46.4375 
L 16.40625 13.09375 
Q 16.40625 9.28125 17.640625 7.734375 
Q 18.890625 6.203125 21.96875 6.203125 
Q 23.25 6.203125 24.4375 6.390625 
Q 25.640625 6.59375 27.046875 6.890625 
z
" id="LiberationSans-74"/>
      </defs>
      <g style="fill:#262626;" transform="translate(644.024316 381.6323)scale(0.14 -0.14)">
       <use xlink:href="#LiberationSans-53"/>
       <use x="66.699219" xlink:href="#LiberationSans-61"/>
       <use x="122.314453" xlink:href="#LiberationSans-74"/>
       <use x="150.097656" xlink:href="#LiberationSans-75"/>
       <use x="205.712891" xlink:href="#LiberationSans-72"/>
       <use x="239.013672" xlink:href="#LiberationSans-64"/>
       <use x="294.628906" xlink:href="#LiberationSans-61"/>
       <use x="350.244141" xlink:href="#LiberationSans-79"/>
      </g>
     </g>
    </g>
   </g>
   <g id="matplotlib.axis_2">
    <g id="ytick_1">
     <g id="text_8">
      <!-- 0.6 -->
      <defs>
       <path d="M 51.703125 34.421875 
Q 51.703125 24.515625 49.828125 17.75 
Q 47.953125 10.984375 44.703125 6.8125 
Q 41.453125 2.640625 37.0625 0.828125 
Q 32.671875 -0.984375 27.6875 -0.984375 
Q 22.65625 -0.984375 18.3125 0.828125 
Q 13.96875 2.640625 10.765625 6.78125 
Q 7.5625 10.9375 5.734375 17.703125 
Q 3.90625 24.46875 3.90625 34.421875 
Q 3.90625 44.828125 5.734375 51.640625 
Q 7.5625 58.453125 10.78125 62.5 
Q 14.015625 66.546875 18.40625 68.1875 
Q 22.796875 69.828125 27.984375 69.828125 
Q 32.90625 69.828125 37.21875 68.1875 
Q 41.546875 66.546875 44.765625 62.5 
Q 48 58.453125 49.84375 51.640625 
Q 51.703125 44.828125 51.703125 34.421875 
z
M 42.78125 34.421875 
Q 42.78125 42.625 41.796875 48.0625 
Q 40.828125 53.515625 38.921875 56.765625 
Q 37.015625 60.015625 34.25 61.359375 
Q 31.5 62.703125 27.984375 62.703125 
Q 24.265625 62.703125 21.4375 61.328125 
Q 18.609375 59.96875 16.671875 56.71875 
Q 14.75 53.46875 13.765625 48.015625 
Q 12.796875 42.578125 12.796875 34.421875 
Q 12.796875 26.515625 13.796875 21.09375 
Q 14.796875 15.671875 16.71875 12.375 
Q 18.65625 9.078125 21.4375 7.640625 
Q 24.21875 6.203125 27.78125 6.203125 
Q 31.25 6.203125 34.03125 7.640625 
Q 36.8125 9.078125 38.734375 12.375 
Q 40.671875 15.671875 41.71875 21.09375 
Q 42.78125 26.515625 42.78125 34.421875 
z
" id="LiberationSans-30"/>
       <path d="M 9.125 0 
L 9.125 10.6875 
L 18.65625 10.6875 
L 18.65625 0 
z
" id="LiberationSans-2e"/>
       <path d="M 51.21875 22.515625 
Q 51.21875 17.328125 49.78125 13 
Q 48.34375 8.6875 45.53125 5.578125 
Q 42.71875 2.484375 38.5625 0.75 
Q 34.421875 -0.984375 29 -0.984375 
Q 23 -0.984375 18.5 1.3125 
Q 14.015625 3.609375 11.03125 7.921875 
Q 8.0625 12.25 6.5625 18.53125 
Q 5.078125 24.8125 5.078125 32.8125 
Q 5.078125 42 6.765625 48.921875 
Q 8.453125 55.859375 11.625 60.5 
Q 14.796875 65.140625 19.359375 67.484375 
Q 23.921875 69.828125 29.6875 69.828125 
Q 33.203125 69.828125 36.28125 69.09375 
Q 39.359375 68.359375 41.875 66.71875 
Q 44.390625 65.09375 46.28125 62.40625 
Q 48.1875 59.71875 49.3125 55.8125 
L 40.921875 54.296875 
Q 39.546875 58.734375 36.546875 60.71875 
Q 33.546875 62.703125 29.59375 62.703125 
Q 25.984375 62.703125 23.046875 60.984375 
Q 20.125 59.28125 18.0625 55.875 
Q 16.015625 52.484375 14.90625 47.359375 
Q 13.8125 42.234375 13.8125 35.40625 
Q 16.21875 39.84375 20.5625 42.15625 
Q 24.90625 44.484375 30.515625 44.484375 
Q 35.203125 44.484375 39.015625 42.96875 
Q 42.828125 41.453125 45.53125 38.59375 
Q 48.25 35.75 49.734375 31.671875 
Q 51.21875 27.59375 51.21875 22.515625 
z
M 42.28125 22.125 
Q 42.28125 25.6875 41.40625 28.5625 
Q 40.53125 31.453125 38.765625 33.46875 
Q 37.015625 35.5 34.421875 36.59375 
Q 31.84375 37.703125 28.421875 37.703125 
Q 26.03125 37.703125 23.578125 36.984375 
Q 21.140625 36.28125 19.15625 34.6875 
Q 17.1875 33.109375 15.9375 30.515625 
Q 14.703125 27.9375 14.703125 24.21875 
Q 14.703125 20.40625 15.671875 17.109375 
Q 16.65625 13.8125 18.484375 11.375 
Q 20.3125 8.9375 22.890625 7.515625 
Q 25.484375 6.109375 28.71875 6.109375 
Q 31.890625 6.109375 34.40625 7.203125 
Q 36.921875 8.296875 38.671875 10.375 
Q 40.4375 12.453125 41.359375 15.421875 
Q 42.28125 18.40625 42.28125 22.125 
z
" id="LiberationSans-36"/>
      </defs>
      <g style="fill:#262626;" transform="translate(27.3082 358.878618)scale(0.14 -0.14)">
       <use xlink:href="#LiberationSans-30"/>
       <use x="55.615234" xlink:href="#LiberationSans-2e"/>
       <use x="83.398438" xlink:href="#LiberationSans-36"/>
      </g>
     </g>
    </g>
    <g id="ytick_2">
     <g id="text_9">
      <!-- 0.8 -->
      <defs>
       <path d="M 51.265625 19.1875 
Q 51.265625 14.796875 49.875 11.109375 
Q 48.484375 7.421875 45.625 4.734375 
Q 42.78125 2.046875 38.328125 0.53125 
Q 33.890625 -0.984375 27.828125 -0.984375 
Q 21.78125 -0.984375 17.359375 0.53125 
Q 12.9375 2.046875 10.03125 4.703125 
Q 7.125 7.375 5.734375 11.0625 
Q 4.34375 14.75 4.34375 19.09375 
Q 4.34375 22.859375 5.484375 25.78125 
Q 6.640625 28.71875 8.5625 30.828125 
Q 10.5 32.953125 12.96875 34.25 
Q 15.4375 35.546875 18.0625 35.984375 
L 18.0625 36.1875 
Q 15.1875 36.859375 12.90625 38.375 
Q 10.640625 39.890625 9.09375 42.015625 
Q 7.5625 44.140625 6.75 46.71875 
Q 5.953125 49.3125 5.953125 52.203125 
Q 5.953125 55.8125 7.34375 59 
Q 8.734375 62.203125 11.46875 64.625 
Q 14.203125 67.046875 18.25 68.4375 
Q 22.3125 69.828125 27.640625 69.828125 
Q 33.25 69.828125 37.375 68.40625 
Q 41.5 67 44.203125 64.578125 
Q 46.921875 62.15625 48.234375 58.9375 
Q 49.5625 55.71875 49.5625 52.09375 
Q 49.5625 49.265625 48.75 46.671875 
Q 47.953125 44.09375 46.40625 41.96875 
Q 44.875 39.84375 42.59375 38.34375 
Q 40.328125 36.859375 37.359375 36.28125 
L 37.359375 36.078125 
Q 40.328125 35.59375 42.859375 34.296875 
Q 45.40625 33.015625 47.265625 30.890625 
Q 49.125 28.765625 50.1875 25.828125 
Q 51.265625 22.90625 51.265625 19.1875 
z
M 40.4375 51.609375 
Q 40.4375 54.203125 39.765625 56.34375 
Q 39.109375 58.5 37.59375 60.03125 
Q 36.078125 61.578125 33.640625 62.421875 
Q 31.203125 63.28125 27.640625 63.28125 
Q 24.171875 63.28125 21.78125 62.421875 
Q 19.390625 61.578125 17.84375 60.03125 
Q 16.3125 58.5 15.625 56.34375 
Q 14.9375 54.203125 14.9375 51.609375 
Q 14.9375 49.5625 15.46875 47.40625 
Q 16.015625 45.265625 17.421875 43.5 
Q 18.84375 41.75 21.328125 40.625 
Q 23.828125 39.5 27.734375 39.5 
Q 31.890625 39.5 34.40625 40.625 
Q 36.921875 41.75 38.25 43.5 
Q 39.59375 45.265625 40.015625 47.40625 
Q 40.4375 49.5625 40.4375 51.609375 
z
M 42.140625 20.015625 
Q 42.140625 22.515625 41.453125 24.828125 
Q 40.765625 27.15625 39.109375 28.9375 
Q 37.453125 30.71875 34.640625 31.8125 
Q 31.84375 32.90625 27.640625 32.90625 
Q 23.78125 32.90625 21.0625 31.8125 
Q 18.359375 30.71875 16.671875 28.90625 
Q 14.984375 27.09375 14.203125 24.71875 
Q 13.421875 22.359375 13.421875 19.828125 
Q 13.421875 16.65625 14.203125 14.03125 
Q 14.984375 11.421875 16.6875 9.546875 
Q 18.40625 7.671875 21.1875 6.640625 
Q 23.96875 5.609375 27.9375 5.609375 
Q 31.9375 5.609375 34.671875 6.640625 
Q 37.40625 7.671875 39.0625 9.546875 
Q 40.71875 11.421875 41.421875 14.078125 
Q 42.140625 16.75 42.140625 20.015625 
z
" id="LiberationSans-38"/>
      </defs>
      <g style="fill:#262626;" transform="translate(27.3082 302.15514)scale(0.14 -0.14)">
       <use xlink:href="#LiberationSans-30"/>
       <use x="55.615234" xlink:href="#LiberationSans-2e"/>
       <use x="83.398438" xlink:href="#LiberationSans-38"/>
      </g>
     </g>
    </g>
    <g id="ytick_3">
     <g id="text_10">
      <!-- 1.0 -->
      <defs>
       <path d="M 7.625 0 
L 7.625 7.46875 
L 25.140625 7.46875 
L 25.140625 60.40625 
L 9.625 49.3125 
L 9.625 57.625 
L 25.875 68.796875 
L 33.984375 68.796875 
L 33.984375 7.46875 
L 50.734375 7.46875 
L 50.734375 0 
z
" id="LiberationSans-31"/>
      </defs>
      <g style="fill:#262626;" transform="translate(27.3082 245.431661)scale(0.14 -0.14)">
       <use xlink:href="#LiberationSans-31"/>
       <use x="55.615234" xlink:href="#LiberationSans-2e"/>
       <use x="83.398438" xlink:href="#LiberationSans-30"/>
      </g>
     </g>
    </g>
    <g id="ytick_4">
     <g id="text_11">
      <!-- 1.2 -->
      <defs>
       <path d="M 5.03125 0 
L 5.03125 6.203125 
Q 7.515625 11.921875 11.109375 16.28125 
Q 14.703125 20.65625 18.65625 24.1875 
Q 22.609375 27.734375 26.484375 30.765625 
Q 30.375 33.796875 33.5 36.8125 
Q 36.625 39.84375 38.546875 43.15625 
Q 40.484375 46.484375 40.484375 50.6875 
Q 40.484375 53.609375 39.59375 55.828125 
Q 38.71875 58.0625 37.0625 59.5625 
Q 35.40625 61.078125 33.078125 61.828125 
Q 30.765625 62.59375 27.9375 62.59375 
Q 25.296875 62.59375 22.96875 61.859375 
Q 20.65625 61.140625 18.84375 59.671875 
Q 17.046875 58.203125 15.890625 56.03125 
Q 14.75 53.859375 14.40625 50.984375 
L 5.421875 51.8125 
Q 5.859375 55.515625 7.46875 58.78125 
Q 9.078125 62.0625 11.90625 64.53125 
Q 14.75 67 18.71875 68.40625 
Q 22.703125 69.828125 27.9375 69.828125 
Q 33.0625 69.828125 37.0625 68.609375 
Q 41.0625 67.390625 43.8125 64.984375 
Q 46.578125 62.59375 48.046875 59.078125 
Q 49.515625 55.5625 49.515625 50.984375 
Q 49.515625 47.515625 48.265625 44.390625 
Q 47.015625 41.265625 44.9375 38.421875 
Q 42.875 35.59375 40.140625 32.953125 
Q 37.40625 30.328125 34.421875 27.8125 
Q 31.453125 25.296875 28.421875 22.828125 
Q 25.390625 20.359375 22.71875 17.859375 
Q 20.0625 15.375 17.96875 12.8125 
Q 15.875 10.25 14.703125 7.46875 
L 50.59375 7.46875 
L 50.59375 0 
z
" id="LiberationSans-32"/>
      </defs>
      <g style="fill:#262626;" transform="translate(27.3082 188.708183)scale(0.14 -0.14)">
       <use xlink:href="#LiberationSans-31"/>
       <use x="55.615234" xlink:href="#LiberationSans-2e"/>
       <use x="83.398438" xlink:href="#LiberationSans-32"/>
      </g>
     </g>
    </g>
    <g id="ytick_5">
     <g id="text_12">
      <!-- 1.4 -->
      <defs>
       <path d="M 43.015625 15.578125 
L 43.015625 0 
L 34.71875 0 
L 34.71875 15.578125 
L 2.296875 15.578125 
L 2.296875 22.40625 
L 33.796875 68.796875 
L 43.015625 68.796875 
L 43.015625 22.515625 
L 52.6875 22.515625 
L 52.6875 15.578125 
z
M 34.71875 58.890625 
Q 34.625 58.640625 34.234375 57.9375 
Q 33.84375 57.234375 33.34375 56.34375 
Q 32.859375 55.46875 32.34375 54.5625 
Q 31.84375 53.65625 31.453125 53.078125 
L 13.8125 27.09375 
Q 13.578125 26.703125 13.109375 26.0625 
Q 12.640625 25.4375 12.15625 24.78125 
Q 11.671875 24.125 11.171875 23.484375 
Q 10.6875 22.859375 10.40625 22.515625 
L 34.71875 22.515625 
z
" id="LiberationSans-34"/>
      </defs>
      <g style="fill:#262626;" transform="translate(27.3082 131.984705)scale(0.14 -0.14)">
       <use xlink:href="#LiberationSans-31"/>
       <use x="55.615234" xlink:href="#LiberationSans-2e"/>
       <use x="83.398438" xlink:href="#LiberationSans-34"/>
      </g>
     </g>
    </g>
    <g id="ytick_6">
     <g id="text_13">
      <!-- 1.6 -->
      <g style="fill:#262626;" transform="translate(27.3082 75.261227)scale(0.14 -0.14)">
       <use xlink:href="#LiberationSans-31"/>
       <use x="55.615234" xlink:href="#LiberationSans-2e"/>
       <use x="83.398438" xlink:href="#LiberationSans-36"/>
      </g>
     </g>
    </g>
    <g id="text_14">
     <!-- Accident Ratio: DST Week / Week Before -->
     <defs>
      <path d="M 56.984375 0 
L 49.125 20.125 
L 17.78125 20.125 
L 9.859375 0 
L 0.203125 0 
L 28.265625 68.796875 
L 38.875 68.796875 
L 66.5 0 
z
M 37.5 50.09375 
Q 36.71875 52.046875 36 54.046875 
Q 35.296875 56.0625 34.765625 57.6875 
Q 34.234375 59.328125 33.859375 60.421875 
Q 33.5 61.53125 33.453125 61.765625 
Q 33.34375 61.53125 33 60.40625 
Q 32.671875 59.28125 32.109375 57.609375 
Q 31.546875 55.953125 30.828125 53.953125 
Q 30.125 51.953125 29.390625 50 
L 20.609375 27.390625 
L 46.34375 27.390625 
z
" id="LiberationSans-41"/>
      <path d="M 13.421875 26.65625 
Q 13.421875 22.125 14.078125 18.3125 
Q 14.75 14.5 16.3125 11.734375 
Q 17.875 8.984375 20.4375 7.46875 
Q 23 5.953125 26.765625 5.953125 
Q 31.453125 5.953125 34.59375 8.484375 
Q 37.75 11.03125 38.484375 16.3125 
L 47.359375 15.71875 
Q 46.921875 12.453125 45.453125 9.421875 
Q 44 6.390625 41.484375 4.09375 
Q 38.96875 1.8125 35.34375 0.40625 
Q 31.734375 -0.984375 27 -0.984375 
Q 20.796875 -0.984375 16.453125 1.109375 
Q 12.109375 3.21875 9.390625 6.90625 
Q 6.6875 10.59375 5.46875 15.59375 
Q 4.25 20.609375 4.25 26.46875 
Q 4.25 31.78125 5.125 35.859375 
Q 6 39.9375 7.59375 42.984375 
Q 9.1875 46.046875 11.328125 48.125 
Q 13.484375 50.203125 15.984375 51.4375 
Q 18.5 52.6875 21.28125 53.25 
Q 24.078125 53.8125 26.90625 53.8125 
Q 31.34375 53.8125 34.8125 52.59375 
Q 38.28125 51.375 40.796875 49.25 
Q 43.3125 47.125 44.875 44.234375 
Q 46.4375 41.359375 47.078125 38.03125 
L 38.03125 37.359375 
Q 37.359375 41.75 34.5625 44.328125 
Q 31.78125 46.921875 26.65625 46.921875 
Q 22.90625 46.921875 20.390625 45.671875 
Q 17.875 44.4375 16.3125 41.921875 
Q 14.75 39.40625 14.078125 35.59375 
Q 13.421875 31.78125 13.421875 26.65625 
z
" id="LiberationSans-63"/>
      <path d="M 56.84375 0 
L 38.96875 28.5625 
L 17.53125 28.5625 
L 17.53125 0 
L 8.203125 0 
L 8.203125 68.796875 
L 40.578125 68.796875 
Q 46.4375 68.796875 50.953125 67.453125 
Q 55.46875 66.109375 58.546875 63.5625 
Q 61.625 61.03125 63.234375 57.375 
Q 64.84375 53.71875 64.84375 49.125 
Q 64.84375 45.84375 63.890625 42.671875 
Q 62.9375 39.5 60.890625 36.859375 
Q 58.84375 34.234375 55.65625 32.328125 
Q 52.484375 30.421875 48.046875 29.640625 
L 67.578125 0 
z
M 55.46875 49.03125 
Q 55.46875 52.15625 54.390625 54.4375 
Q 53.328125 56.734375 51.265625 58.265625 
Q 49.21875 59.8125 46.28125 60.5625 
Q 43.359375 61.328125 39.65625 61.328125 
L 17.53125 61.328125 
L 17.53125 35.9375 
L 40.046875 35.9375 
Q 44.046875 35.9375 46.96875 36.9375 
Q 49.90625 37.9375 51.78125 39.6875 
Q 53.65625 41.453125 54.5625 43.84375 
Q 55.46875 46.234375 55.46875 49.03125 
z
" id="LiberationSans-52"/>
      <path d="M 9.125 42.71875 
L 9.125 52.828125 
L 18.65625 52.828125 
L 18.65625 42.71875 
z
M 9.125 0 
L 9.125 10.109375 
L 18.65625 10.109375 
L 18.65625 0 
z
" id="LiberationSans-3a"/>
      <path d="M 39.84375 0 
L 21.96875 24.125 
L 15.53125 18.796875 
L 15.53125 0 
L 6.734375 0 
L 6.734375 72.46875 
L 15.53125 72.46875 
L 15.53125 27.203125 
L 38.71875 52.828125 
L 49.03125 52.828125 
L 27.59375 30.125 
L 50.140625 0 
z
" id="LiberationSans-6b"/>
      <path d="M 0 -0.984375 
L 20.0625 72.46875 
L 27.78125 72.46875 
L 7.90625 -0.984375 
z
" id="LiberationSans-2f"/>
      <path d="M 61.421875 19.390625 
Q 61.421875 14.15625 59.375 10.46875 
Q 57.328125 6.78125 53.859375 4.46875 
Q 50.390625 2.15625 45.796875 1.078125 
Q 41.21875 0 36.140625 0 
L 8.203125 0 
L 8.203125 68.796875 
L 33.203125 68.796875 
Q 38.921875 68.796875 43.40625 67.84375 
Q 47.90625 66.890625 51.03125 64.84375 
Q 54.15625 62.796875 55.78125 59.640625 
Q 57.421875 56.5 57.421875 52.09375 
Q 57.421875 49.21875 56.609375 46.671875 
Q 55.8125 44.140625 54.171875 42.0625 
Q 52.546875 39.984375 50.078125 38.5 
Q 47.609375 37.015625 44.34375 36.28125 
Q 48.484375 35.796875 51.6875 34.375 
Q 54.890625 32.953125 57.03125 30.75 
Q 59.1875 28.5625 60.296875 25.65625 
Q 61.421875 22.75 61.421875 19.390625 
z
M 48.046875 50.984375 
Q 48.046875 56.546875 44.234375 58.9375 
Q 40.4375 61.328125 33.203125 61.328125 
L 17.53125 61.328125 
L 17.53125 39.546875 
L 33.203125 39.546875 
Q 37.3125 39.546875 40.140625 40.34375 
Q 42.96875 41.15625 44.71875 42.640625 
Q 46.484375 44.140625 47.265625 46.234375 
Q 48.046875 48.34375 48.046875 50.984375 
z
M 52 20.125 
Q 52 23.390625 50.796875 25.6875 
Q 49.609375 27.984375 47.359375 29.4375 
Q 45.125 30.90625 41.96875 31.59375 
Q 38.8125 32.28125 34.90625 32.28125 
L 17.53125 32.28125 
L 17.53125 7.46875 
L 35.640625 7.46875 
Q 39.203125 7.46875 42.203125 8.046875 
Q 45.21875 8.640625 47.390625 10.109375 
Q 49.5625 11.578125 50.78125 14.015625 
Q 52 16.453125 52 20.125 
z
" id="LiberationSans-42"/>
      <path d="M 17.625 46.4375 
L 17.625 0 
L 8.84375 0 
L 8.84375 46.4375 
L 1.421875 46.4375 
L 1.421875 52.828125 
L 8.84375 52.828125 
L 8.84375 58.796875 
Q 8.84375 61.671875 9.375 64.140625 
Q 9.90625 66.609375 11.34375 68.4375 
Q 12.796875 70.265625 15.28125 71.3125 
Q 17.78125 72.359375 21.734375 72.359375 
Q 23.296875 72.359375 24.96875 72.21875 
Q 26.65625 72.078125 27.9375 71.78125 
L 27.9375 65.09375 
Q 27.09375 65.234375 26 65.359375 
Q 24.90625 65.484375 24.03125 65.484375 
Q 22.078125 65.484375 20.828125 64.9375 
Q 19.578125 64.40625 18.875 63.40625 
Q 18.171875 62.40625 17.890625 60.9375 
Q 17.625 59.46875 17.625 57.5625 
L 17.625 52.828125 
L 27.9375 52.828125 
L 27.9375 46.4375 
z
" id="LiberationSans-66"/>
     </defs>
     <g style="fill:#262626;" transform="translate(19.7226 364.314675)rotate(-90)scale(0.1728 -0.1728)">
      <use xlink:href="#LiberationSans-41"/>
      <use x="66.699219" xlink:href="#LiberationSans-63"/>
      <use x="116.699219" xlink:href="#LiberationSans-63"/>
      <use x="166.699219" xlink:href="#LiberationSans-69"/>
      <use x="188.916016" xlink:href="#LiberationSans-64"/>
      <use x="244.53125" xlink:href="#LiberationSans-65"/>
      <use x="300.146484" xlink:href="#LiberationSans-6e"/>
      <use x="355.761719" xlink:href="#LiberationSans-74"/>
      <use x="383.544922" xlink:href="#LiberationSans-20"/>
      <use x="411.328125" xlink:href="#LiberationSans-52"/>
      <use x="483.544922" xlink:href="#LiberationSans-61"/>
      <use x="539.160156" xlink:href="#LiberationSans-74"/>
      <use x="566.943359" xlink:href="#LiberationSans-69"/>
      <use x="589.160156" xlink:href="#LiberationSans-6f"/>
      <use x="644.775391" xlink:href="#LiberationSans-3a"/>
      <use x="672.558594" xlink:href="#LiberationSans-20"/>
      <use x="700.341797" xlink:href="#LiberationSans-44"/>
      <use x="772.558594" xlink:href="#LiberationSans-53"/>
      <use x="839.257812" xlink:href="#LiberationSans-54"/>
      <use x="900.326172" xlink:href="#LiberationSans-20"/>
      <use x="928.109375" xlink:href="#LiberationSans-57"/>
      <use x="1022.478516" xlink:href="#LiberationSans-65"/>
      <use x="1078.09375" xlink:href="#LiberationSans-65"/>
      <use x="1133.708984" xlink:href="#LiberationSans-6b"/>
      <use x="1183.708984" xlink:href="#LiberationSans-20"/>
      <use x="1211.492188" xlink:href="#LiberationSans-2f"/>
      <use x="1239.275391" xlink:href="#LiberationSans-20"/>
      <use x="1267.058594" xlink:href="#LiberationSans-57"/>
      <use x="1361.427734" xlink:href="#LiberationSans-65"/>
      <use x="1417.042969" xlink:href="#LiberationSans-65"/>
      <use x="1472.658203" xlink:href="#LiberationSans-6b"/>
      <use x="1522.658203" xlink:href="#LiberationSans-20"/>
      <use x="1550.441406" xlink:href="#LiberationSans-42"/>
      <use x="1617.140625" xlink:href="#LiberationSans-65"/>
      <use x="1672.755859" xlink:href="#LiberationSans-66"/>
      <use x="1700.539062" xlink:href="#LiberationSans-6f"/>
      <use x="1756.154297" xlink:href="#LiberationSans-72"/>
      <use x="1789.455078" xlink:href="#LiberationSans-65"/>
     </g>
    </g>
   </g>
   <g id="PolyCollection_1">
    <defs>
     <path d="M 111.107973 -109.349458 
L 85.08557 -109.349458 
L 83.738142 -110.147792 
L 82.328741 -110.946126 
L 80.865472 -111.74446 
L 79.357937 -112.542794 
L 77.817167 -113.341128 
L 76.255497 -114.139462 
L 74.686409 -114.937796 
L 73.124328 -115.736129 
L 71.584375 -116.534463 
L 70.082095 -117.332797 
L 68.633144 -118.131131 
L 67.252971 -118.929465 
L 65.956474 -119.727799 
L 64.757661 -120.526133 
L 63.669321 -121.324467 
L 62.702708 -122.122801 
L 61.86726 -122.921135 
L 61.170353 -123.719469 
L 60.6171 -124.517803 
L 60.210213 -125.316137 
L 59.949914 -126.114471 
L 59.833914 -126.912804 
L 59.857462 -127.711138 
L 60.013443 -128.509472 
L 60.292555 -129.307806 
L 60.683525 -130.10614 
L 61.173387 -130.904474 
L 61.747792 -131.702808 
L 62.39135 -132.501142 
L 63.087996 -133.299476 
L 63.821364 -134.09781 
L 64.575157 -134.896144 
L 65.333505 -135.694478 
L 66.081307 -136.492812 
L 66.804536 -137.291146 
L 67.490507 -138.08948 
L 68.128107 -138.887813 
L 68.707973 -139.686147 
L 69.22262 -140.484481 
L 69.666522 -141.282815 
L 70.036139 -142.081149 
L 70.329902 -142.879483 
L 70.54815 -143.677817 
L 70.693029 -144.476151 
L 70.768359 -145.274485 
L 70.779471 -146.072819 
L 70.73302 -146.871153 
L 70.636781 -147.669487 
L 70.49944 -148.467821 
L 70.330371 -149.266155 
L 70.139414 -150.064488 
L 69.936663 -150.862822 
L 69.732251 -151.661156 
L 69.536154 -152.45949 
L 69.358003 -153.257824 
L 69.206916 -154.056158 
L 69.091342 -154.854492 
L 69.018934 -155.652826 
L 68.996431 -156.45116 
L 69.029568 -157.249494 
L 69.123012 -158.047828 
L 69.280313 -158.846162 
L 69.503882 -159.644496 
L 69.794993 -160.44283 
L 70.153803 -161.241164 
L 70.579398 -162.039497 
L 71.069854 -162.837831 
L 71.622323 -163.636165 
L 72.233123 -164.434499 
L 72.897856 -165.232833 
L 73.611521 -166.031167 
L 74.368646 -166.829501 
L 75.163411 -167.627835 
L 75.989786 -168.426169 
L 76.841647 -169.224503 
L 77.712902 -170.022837 
L 78.597592 -170.821171 
L 79.489991 -171.619505 
L 80.384686 -172.417839 
L 81.276641 -173.216172 
L 82.161243 -174.014506 
L 83.034342 -174.81284 
L 83.89226 -175.611174 
L 84.731797 -176.409508 
L 85.550217 -177.207842 
L 86.345232 -178.006176 
L 87.114966 -178.80451 
L 87.857923 -179.602844 
L 88.572946 -180.401178 
L 89.259178 -181.199512 
L 89.916019 -181.997846 
L 90.543089 -182.79618 
L 91.140198 -183.594514 
L 91.707308 -184.392848 
L 92.244518 -185.191181 
L 92.752037 -185.989515 
L 93.230172 -186.787849 
L 93.679321 -187.586183 
L 94.099962 -188.384517 
L 102.093581 -188.384517 
L 102.093581 -188.384517 
L 102.514222 -187.586183 
L 102.963371 -186.787849 
L 103.441506 -185.989515 
L 103.949025 -185.191181 
L 104.486235 -184.392848 
L 105.053345 -183.594514 
L 105.650454 -182.79618 
L 106.277524 -181.997846 
L 106.934365 -181.199512 
L 107.620597 -180.401178 
L 108.33562 -179.602844 
L 109.078577 -178.80451 
L 109.848311 -178.006176 
L 110.643325 -177.207842 
L 111.461746 -176.409508 
L 112.301282 -175.611174 
L 113.159201 -174.81284 
L 114.0323 -174.014506 
L 114.916902 -173.216172 
L 115.808856 -172.417839 
L 116.703551 -171.619505 
L 117.595951 -170.821171 
L 118.480641 -170.022837 
L 119.351896 -169.224503 
L 120.203757 -168.426169 
L 121.030132 -167.627835 
L 121.824897 -166.829501 
L 122.582022 -166.031167 
L 123.295687 -165.232833 
L 123.96042 -164.434499 
L 124.57122 -163.636165 
L 125.123689 -162.837831 
L 125.614145 -162.039497 
L 126.03974 -161.241164 
L 126.39855 -160.44283 
L 126.68966 -159.644496 
L 126.91323 -158.846162 
L 127.070531 -158.047828 
L 127.163975 -157.249494 
L 127.197112 -156.45116 
L 127.174608 -155.652826 
L 127.1022 -154.854492 
L 126.986627 -154.056158 
L 126.83554 -153.257824 
L 126.657389 -152.45949 
L 126.461292 -151.661156 
L 126.25688 -150.862822 
L 126.054129 -150.064488 
L 125.863172 -149.266155 
L 125.694102 -148.467821 
L 125.556761 -147.669487 
L 125.460523 -146.871153 
L 125.414071 -146.072819 
L 125.425184 -145.274485 
L 125.500514 -144.476151 
L 125.645393 -143.677817 
L 125.863641 -142.879483 
L 126.157403 -142.081149 
L 126.527021 -141.282815 
L 126.970922 -140.484481 
L 127.48557 -139.686147 
L 128.065436 -138.887813 
L 128.703036 -138.08948 
L 129.389007 -137.291146 
L 130.112235 -136.492812 
L 130.860038 -135.694478 
L 131.618386 -134.896144 
L 132.372179 -134.09781 
L 133.105547 -133.299476 
L 133.802193 -132.501142 
L 134.445751 -131.702808 
L 135.020155 -130.904474 
L 135.510018 -130.10614 
L 135.900988 -129.307806 
L 136.1801 -128.509472 
L 136.336081 -127.711138 
L 136.359629 -126.912804 
L 136.243629 -126.114471 
L 135.98333 -125.316137 
L 135.576443 -124.517803 
L 135.02319 -123.719469 
L 134.326283 -122.921135 
L 133.490835 -122.122801 
L 132.524222 -121.324467 
L 131.435882 -120.526133 
L 130.237069 -119.727799 
L 128.940572 -118.929465 
L 127.560399 -118.131131 
L 126.111448 -117.332797 
L 124.609167 -116.534463 
L 123.069215 -115.736129 
L 121.507134 -114.937796 
L 119.938046 -114.139462 
L 118.376376 -113.341128 
L 116.835606 -112.542794 
L 115.328071 -111.74446 
L 113.864801 -110.946126 
L 112.4554 -110.147792 
L 111.107973 -109.349458 
z
" id="mf62b8db6f4" style="stroke:#414141;stroke-width:2;"/>
    </defs>
    <g clip-path="url(#p6abca8b956)">
     <use style="fill:#e68193;stroke:#414141;stroke-width:2;" x="0" xlink:href="#mf62b8db6f4" y="391.7373"/>
    </g>
   </g>
   <g id="PolyCollection_2">
    <defs>
     <path d="M 196.569465 -97.508478 
L 190.938364 -97.508478 
L 190.665053 -98.538244 
L 190.384625 -99.568011 
L 190.09911 -100.597777 
L 189.810557 -101.627543 
L 189.520949 -102.657309 
L 189.232114 -103.687075 
L 188.945645 -104.716842 
L 188.662809 -105.746608 
L 188.384484 -106.776374 
L 188.111089 -107.80614 
L 187.842538 -108.835907 
L 187.578215 -109.865673 
L 187.316956 -110.895439 
L 187.057061 -111.925205 
L 186.796316 -112.954971 
L 186.532046 -113.984738 
L 186.261169 -115.014504 
L 185.980278 -116.04427 
L 185.685726 -117.074036 
L 185.373728 -118.103802 
L 185.040462 -119.133569 
L 184.682182 -120.163335 
L 184.295328 -121.193101 
L 183.876634 -122.222867 
L 183.423239 -123.252634 
L 182.932787 -124.2824 
L 182.40352 -125.312166 
L 181.834368 -126.341932 
L 181.225015 -127.371698 
L 180.575959 -128.401465 
L 179.88855 -129.431231 
L 179.165002 -130.460997 
L 178.408394 -131.490763 
L 177.622624 -132.52053 
L 176.812354 -133.550296 
L 175.98291 -134.580062 
L 175.140164 -135.609828 
L 174.290378 -136.639594 
L 173.440033 -137.669361 
L 172.59563 -138.699127 
L 171.763491 -139.728893 
L 170.949541 -140.758659 
L 170.159112 -141.788425 
L 169.396747 -142.818192 
L 168.666048 -143.847958 
L 167.969541 -144.877724 
L 167.308602 -145.90749 
L 166.683429 -146.937257 
L 166.093068 -147.967023 
L 165.535505 -148.996789 
L 165.007807 -150.026555 
L 164.506326 -151.056321 
L 164.026946 -152.086088 
L 163.565362 -153.115854 
L 163.117389 -154.14562 
L 162.679274 -155.175386 
L 162.248009 -156.205153 
L 161.821609 -157.234919 
L 161.399363 -158.264685 
L 160.982027 -159.294451 
L 160.571946 -160.324217 
L 160.173112 -161.353984 
L 159.791139 -162.38375 
L 159.433152 -163.413516 
L 159.107605 -164.443282 
L 158.824023 -165.473048 
L 158.592686 -166.502815 
L 158.424262 -167.532581 
L 158.329414 -168.562347 
L 158.318391 -169.592113 
L 158.400625 -170.62188 
L 158.58435 -171.651646 
L 158.876271 -172.681412 
L 159.281273 -173.711178 
L 159.802209 -174.740944 
L 160.439761 -175.770711 
L 161.192376 -176.800477 
L 162.056286 -177.830243 
L 163.025603 -178.860009 
L 164.092482 -179.889776 
L 165.247348 -180.919542 
L 166.479166 -181.949308 
L 167.775753 -182.979074 
L 169.124101 -184.00884 
L 170.510718 -185.038607 
L 171.921958 -186.068373 
L 173.344335 -187.098139 
L 174.764811 -188.127905 
L 176.171052 -189.157671 
L 177.551642 -190.187438 
L 178.896251 -191.217204 
L 180.195772 -192.24697 
L 181.442397 -193.276736 
L 182.629668 -194.306503 
L 183.75248 -195.336269 
L 184.807052 -196.366035 
L 185.790874 -197.395801 
L 186.702628 -198.425567 
L 187.542085 -199.455334 
L 199.965744 -199.455334 
L 199.965744 -199.455334 
L 200.805201 -198.425567 
L 201.716954 -197.395801 
L 202.700777 -196.366035 
L 203.755349 -195.336269 
L 204.87816 -194.306503 
L 206.065431 -193.276736 
L 207.312057 -192.24697 
L 208.611577 -191.217204 
L 209.956187 -190.187438 
L 211.336776 -189.157671 
L 212.743018 -188.127905 
L 214.163494 -187.098139 
L 215.585871 -186.068373 
L 216.997111 -185.038607 
L 218.383728 -184.00884 
L 219.732076 -182.979074 
L 221.028662 -181.949308 
L 222.260481 -180.919542 
L 223.415347 -179.889776 
L 224.482226 -178.860009 
L 225.451542 -177.830243 
L 226.315452 -176.800477 
L 227.068067 -175.770711 
L 227.705619 -174.740944 
L 228.226556 -173.711178 
L 228.631557 -172.681412 
L 228.923478 -171.651646 
L 229.107204 -170.62188 
L 229.189437 -169.592113 
L 229.178414 -168.562347 
L 229.083567 -167.532581 
L 228.915143 -166.502815 
L 228.683805 -165.473048 
L 228.400224 -164.443282 
L 228.074677 -163.413516 
L 227.71669 -162.38375 
L 227.334716 -161.353984 
L 226.935883 -160.324217 
L 226.525802 -159.294451 
L 226.108465 -158.264685 
L 225.68622 -157.234919 
L 225.25982 -156.205153 
L 224.828554 -155.175386 
L 224.39044 -154.14562 
L 223.942466 -153.115854 
L 223.480882 -152.086088 
L 223.001502 -151.056321 
L 222.500022 -150.026555 
L 221.972324 -148.996789 
L 221.41476 -147.967023 
L 220.8244 -146.937257 
L 220.199227 -145.90749 
L 219.538288 -144.877724 
L 218.841781 -143.847958 
L 218.111081 -142.818192 
L 217.348717 -141.788425 
L 216.558288 -140.758659 
L 215.744338 -139.728893 
L 214.912198 -138.699127 
L 214.067796 -137.669361 
L 213.21745 -136.639594 
L 212.367664 -135.609828 
L 211.524918 -134.580062 
L 210.695475 -133.550296 
L 209.885205 -132.52053 
L 209.099435 -131.490763 
L 208.342826 -130.460997 
L 207.619279 -129.431231 
L 206.931869 -128.401465 
L 206.282814 -127.371698 
L 205.673461 -126.341932 
L 205.104308 -125.312166 
L 204.575042 -124.2824 
L 204.084589 -123.252634 
L 203.631194 -122.222867 
L 203.2125 -121.193101 
L 202.825646 -120.163335 
L 202.467367 -119.133569 
L 202.134101 -118.103802 
L 201.822103 -117.074036 
L 201.527551 -116.04427 
L 201.246659 -115.014504 
L 200.975783 -113.984738 
L 200.711512 -112.954971 
L 200.450768 -111.925205 
L 200.190872 -110.895439 
L 199.929613 -109.865673 
L 199.66529 -108.835907 
L 199.39674 -107.80614 
L 199.123344 -106.776374 
L 198.845019 -105.746608 
L 198.562184 -104.716842 
L 198.275714 -103.687075 
L 197.98688 -102.657309 
L 197.697272 -101.627543 
L 197.408719 -100.597777 
L 197.123204 -99.568011 
L 196.842776 -98.538244 
L 196.569465 -97.508478 
z
" id="m4c68ed01bc" style="stroke:#414141;stroke-width:2;"/>
    </defs>
    <g clip-path="url(#p6abca8b956)">
     <use style="fill:#b38e44;stroke:#414141;stroke-width:2;" x="0" xlink:href="#m4c68ed01bc" y="391.7373"/>
    </g>
   </g>
   <g id="PolyCollection_3">
    <defs>
     <path d="M 293.295274 -105.89834 
L 285.52684 -105.89834 
L 285.040683 -107.398428 
L 284.525272 -108.898515 
L 283.982702 -110.398603 
L 283.415256 -111.89869 
L 282.825272 -113.398778 
L 282.21501 -114.898866 
L 281.586518 -116.398953 
L 280.94152 -117.899041 
L 280.281314 -119.399128 
L 279.606717 -120.899216 
L 278.918036 -122.399304 
L 278.215082 -123.899391 
L 277.497233 -125.399479 
L 276.763522 -126.899566 
L 276.012769 -128.399654 
L 275.243735 -129.899742 
L 274.455283 -131.399829 
L 273.646558 -132.899917 
L 272.817148 -134.400004 
L 271.967241 -135.900092 
L 271.097754 -137.400179 
L 270.210446 -138.900267 
L 269.307992 -140.400355 
L 268.394036 -141.900442 
L 267.473216 -143.40053 
L 266.551165 -144.900617 
L 265.634489 -146.400705 
L 264.730722 -147.900793 
L 263.848268 -149.40088 
L 262.996311 -150.900968 
L 262.184712 -152.401055 
L 261.423873 -153.901143 
L 260.724573 -155.401231 
L 260.097768 -156.901318 
L 259.554356 -158.401406 
L 259.104917 -159.901493 
L 258.759413 -161.401581 
L 258.526876 -162.901669 
L 258.415086 -164.401756 
L 258.430257 -165.901844 
L 258.576752 -167.401931 
L 258.856832 -168.902019 
L 259.270478 -170.402106 
L 259.81528 -171.902194 
L 260.486415 -173.402282 
L 261.276718 -174.902369 
L 262.176845 -176.402457 
L 263.175518 -177.902544 
L 264.25985 -179.402632 
L 265.415725 -180.90272 
L 266.628208 -182.402807 
L 267.88198 -183.902895 
L 269.161755 -185.402982 
L 270.452675 -186.90307 
L 271.740656 -188.403158 
L 273.012665 -189.903245 
L 274.256945 -191.403333 
L 275.463151 -192.90342 
L 276.622421 -194.403508 
L 277.727386 -195.903595 
L 278.772122 -197.403683 
L 279.752059 -198.903771 
L 280.663863 -200.403858 
L 281.505304 -201.903946 
L 282.275119 -203.404033 
L 282.972886 -204.904121 
L 283.598915 -206.404209 
L 284.154154 -207.904296 
L 284.640129 -209.404384 
L 285.058896 -210.904471 
L 285.413018 -212.404559 
L 285.705561 -213.904647 
L 285.940082 -215.404734 
L 286.12064 -216.904822 
L 286.251778 -218.404909 
L 286.338514 -219.904997 
L 286.386295 -221.405084 
L 286.400945 -222.905172 
L 286.388582 -224.40526 
L 286.355513 -225.905347 
L 286.308114 -227.405435 
L 286.252691 -228.905522 
L 286.195328 -230.40561 
L 286.141737 -231.905698 
L 286.097112 -233.405785 
L 286.065993 -234.905873 
L 286.052155 -236.40596 
L 286.058512 -237.906048 
L 286.087071 -239.406136 
L 286.138902 -240.906223 
L 286.214159 -242.406311 
L 286.312125 -243.906398 
L 286.431296 -245.406486 
L 286.56949 -246.906573 
L 286.723979 -248.406661 
L 286.891632 -249.906749 
L 287.069067 -251.406836 
L 287.252802 -252.906924 
L 287.439392 -254.407011 
L 291.382722 -254.407011 
L 291.382722 -254.407011 
L 291.569312 -252.906924 
L 291.753047 -251.406836 
L 291.930483 -249.906749 
L 292.098136 -248.406661 
L 292.252625 -246.906573 
L 292.390819 -245.406486 
L 292.509989 -243.906398 
L 292.607955 -242.406311 
L 292.683212 -240.906223 
L 292.735044 -239.406136 
L 292.763602 -237.906048 
L 292.76996 -236.40596 
L 292.756121 -234.905873 
L 292.725003 -233.405785 
L 292.680378 -231.905698 
L 292.626787 -230.40561 
L 292.569423 -228.905522 
L 292.514 -227.405435 
L 292.466601 -225.905347 
L 292.433532 -224.40526 
L 292.421169 -222.905172 
L 292.435819 -221.405084 
L 292.4836 -219.904997 
L 292.570336 -218.404909 
L 292.701475 -216.904822 
L 292.882032 -215.404734 
L 293.116554 -213.904647 
L 293.409096 -212.404559 
L 293.763219 -210.904471 
L 294.181985 -209.404384 
L 294.66796 -207.904296 
L 295.2232 -206.404209 
L 295.849228 -204.904121 
L 296.546996 -203.404033 
L 297.31681 -201.903946 
L 298.158251 -200.403858 
L 299.070055 -198.903771 
L 300.049992 -197.403683 
L 301.094728 -195.903595 
L 302.199694 -194.403508 
L 303.358964 -192.90342 
L 304.565169 -191.403333 
L 305.809449 -189.903245 
L 307.081459 -188.403158 
L 308.369439 -186.90307 
L 309.660359 -185.402982 
L 310.940135 -183.902895 
L 312.193906 -182.402807 
L 313.406389 -180.90272 
L 314.562264 -179.402632 
L 315.646597 -177.902544 
L 316.64527 -176.402457 
L 317.545396 -174.902369 
L 318.335699 -173.402282 
L 319.006834 -171.902194 
L 319.551636 -170.402106 
L 319.965282 -168.902019 
L 320.245362 -167.401931 
L 320.391857 -165.901844 
L 320.407028 -164.401756 
L 320.295238 -162.901669 
L 320.062701 -161.401581 
L 319.717197 -159.901493 
L 319.267758 -158.401406 
L 318.724347 -156.901318 
L 318.097541 -155.401231 
L 317.398241 -153.901143 
L 316.637402 -152.401055 
L 315.825804 -150.900968 
L 314.973846 -149.40088 
L 314.091392 -147.900793 
L 313.187625 -146.400705 
L 312.270949 -144.900617 
L 311.348898 -143.40053 
L 310.428078 -141.900442 
L 309.514122 -140.400355 
L 308.611668 -138.900267 
L 307.72436 -137.400179 
L 306.854874 -135.900092 
L 306.004966 -134.400004 
L 305.175556 -132.899917 
L 304.366831 -131.399829 
L 303.578379 -129.899742 
L 302.809345 -128.399654 
L 302.058593 -126.899566 
L 301.324881 -125.399479 
L 300.607032 -123.899391 
L 299.904078 -122.399304 
L 299.215397 -120.899216 
L 298.5408 -119.399128 
L 297.880595 -117.899041 
L 297.235596 -116.398953 
L 296.607105 -114.898866 
L 295.996842 -113.398778 
L 295.406858 -111.89869 
L 294.839412 -110.398603 
L 294.296843 -108.898515 
L 293.781431 -107.398428 
L 293.295274 -105.89834 
z
" id="mde36ae5ded" style="stroke:#414141;stroke-width:2;"/>
    </defs>
    <g clip-path="url(#p6abca8b956)">
     <use style="fill:#7d9a40;stroke:#414141;stroke-width:2;" x="0" xlink:href="#mde36ae5ded" y="391.7373"/>
    </g>
   </g>
   <g id="PolyCollection_4">
    <defs>
     <path d="M 387.542352 -81.555039 
L 382.594048 -81.555039 
L 382.334205 -83.075143 
L 382.064049 -84.595247 
L 381.785326 -86.115352 
L 381.499924 -87.635456 
L 381.209804 -89.15556 
L 380.916926 -90.675664 
L 380.62316 -92.195768 
L 380.330202 -93.715872 
L 380.039477 -95.235976 
L 379.752055 -96.756081 
L 379.468571 -98.276185 
L 379.189157 -99.796289 
L 378.91339 -101.316393 
L 378.640261 -102.836497 
L 378.368175 -104.356601 
L 378.094961 -105.876705 
L 377.817932 -107.396809 
L 377.533954 -108.916914 
L 377.239555 -110.437018 
L 376.931048 -111.957122 
L 376.604687 -113.477226 
L 376.256825 -114.99733 
L 375.884089 -116.517434 
L 375.483554 -118.037538 
L 375.05291 -119.557643 
L 374.590616 -121.077747 
L 374.09603 -122.597851 
L 373.56951 -124.117955 
L 373.012483 -125.638059 
L 372.427467 -127.158163 
L 371.818055 -128.678267 
L 371.188855 -130.198372 
L 370.545382 -131.718476 
L 369.893912 -133.23858 
L 369.241302 -134.758684 
L 368.594782 -136.278788 
L 367.961721 -137.798892 
L 367.349392 -139.318996 
L 366.764731 -140.8391 
L 366.214108 -142.359205 
L 365.703122 -143.879309 
L 365.236428 -145.399413 
L 364.817596 -146.919517 
L 364.449023 -148.439621 
L 364.131894 -149.959725 
L 363.86619 -151.479829 
L 363.650754 -152.999934 
L 363.483393 -154.520038 
L 363.361036 -156.040142 
L 363.279916 -157.560246 
L 363.235776 -159.08035 
L 363.224095 -160.600454 
L 363.240312 -162.120558 
L 363.280043 -163.640663 
L 363.339276 -165.160767 
L 363.414544 -166.680871 
L 363.503056 -168.200975 
L 363.60279 -169.721079 
L 363.712543 -171.241183 
L 363.831937 -172.761287 
L 363.96138 -174.281391 
L 364.101995 -175.801496 
L 364.255507 -177.3216 
L 364.424119 -178.841704 
L 364.610362 -180.361808 
L 364.816936 -181.881912 
L 365.046564 -183.402016 
L 365.301838 -184.92212 
L 365.585091 -186.442225 
L 365.898286 -187.962329 
L 366.242926 -189.482433 
L 366.619989 -191.002537 
L 367.029894 -192.522641 
L 367.47248 -194.042745 
L 367.94702 -195.562849 
L 368.452242 -197.082954 
L 368.98637 -198.603058 
L 369.547181 -200.123162 
L 370.132054 -201.643266 
L 370.738043 -203.16337 
L 371.361935 -204.683474 
L 372.000315 -206.203578 
L 372.649626 -207.723682 
L 373.306225 -209.243787 
L 373.966437 -210.763891 
L 374.626605 -212.283995 
L 375.283129 -213.804099 
L 375.932516 -215.324203 
L 376.571412 -216.844307 
L 377.196642 -218.364411 
L 377.805241 -219.884516 
L 378.394488 -221.40462 
L 378.96193 -222.924724 
L 379.505412 -224.444828 
L 380.023091 -225.964932 
L 380.513456 -227.485036 
L 380.97534 -229.00514 
L 381.407917 -230.525245 
L 381.810711 -232.045349 
L 388.325689 -232.045349 
L 388.325689 -232.045349 
L 388.728483 -230.525245 
L 389.16106 -229.00514 
L 389.622944 -227.485036 
L 390.113309 -225.964932 
L 390.630988 -224.444828 
L 391.17447 -222.924724 
L 391.741912 -221.40462 
L 392.331159 -219.884516 
L 392.939758 -218.364411 
L 393.564988 -216.844307 
L 394.203884 -215.324203 
L 394.853271 -213.804099 
L 395.509795 -212.283995 
L 396.169963 -210.763891 
L 396.830175 -209.243787 
L 397.486774 -207.723682 
L 398.136085 -206.203578 
L 398.774465 -204.683474 
L 399.398357 -203.16337 
L 400.004346 -201.643266 
L 400.589219 -200.123162 
L 401.15003 -198.603058 
L 401.684158 -197.082954 
L 402.18938 -195.562849 
L 402.66392 -194.042745 
L 403.106506 -192.522641 
L 403.516411 -191.002537 
L 403.893474 -189.482433 
L 404.238114 -187.962329 
L 404.551309 -186.442225 
L 404.834562 -184.92212 
L 405.089836 -183.402016 
L 405.319464 -181.881912 
L 405.526038 -180.361808 
L 405.712281 -178.841704 
L 405.880893 -177.3216 
L 406.034405 -175.801496 
L 406.17502 -174.281391 
L 406.304463 -172.761287 
L 406.423857 -171.241183 
L 406.53361 -169.721079 
L 406.633344 -168.200975 
L 406.721856 -166.680871 
L 406.797124 -165.160767 
L 406.856357 -163.640663 
L 406.896088 -162.120558 
L 406.912305 -160.600454 
L 406.900624 -159.08035 
L 406.856484 -157.560246 
L 406.775364 -156.040142 
L 406.653007 -154.520038 
L 406.485646 -152.999934 
L 406.27021 -151.479829 
L 406.004506 -149.959725 
L 405.687377 -148.439621 
L 405.318804 -146.919517 
L 404.899972 -145.399413 
L 404.433278 -143.879309 
L 403.922292 -142.359205 
L 403.371669 -140.8391 
L 402.787008 -139.318996 
L 402.174679 -137.798892 
L 401.541618 -136.278788 
L 400.895098 -134.758684 
L 400.242488 -133.23858 
L 399.591018 -131.718476 
L 398.947545 -130.198372 
L 398.318345 -128.678267 
L 397.708933 -127.158163 
L 397.123917 -125.638059 
L 396.56689 -124.117955 
L 396.04037 -122.597851 
L 395.545784 -121.077747 
L 395.08349 -119.557643 
L 394.652846 -118.037538 
L 394.252311 -116.517434 
L 393.879575 -114.99733 
L 393.531713 -113.477226 
L 393.205352 -111.957122 
L 392.896845 -110.437018 
L 392.602446 -108.916914 
L 392.318468 -107.396809 
L 392.041439 -105.876705 
L 391.768225 -104.356601 
L 391.496139 -102.836497 
L 391.22301 -101.316393 
L 390.947243 -99.796289 
L 390.667829 -98.276185 
L 390.384345 -96.756081 
L 390.096923 -95.235976 
L 389.806198 -93.715872 
L 389.51324 -92.195768 
L 389.219474 -90.675664 
L 388.926596 -89.15556 
L 388.636476 -87.635456 
L 388.351074 -86.115352 
L 388.072351 -84.595247 
L 387.802195 -83.075143 
L 387.542352 -81.555039 
z
" id="m7f1f4c6d10" style="stroke:#414141;stroke-width:2;"/>
    </defs>
    <g clip-path="url(#p6abca8b956)">
     <use style="fill:#43a084;stroke:#414141;stroke-width:2;" x="0" xlink:href="#m7f1f4c6d10" y="391.7373"/>
    </g>
   </g>
   <g id="PolyCollection_5">
    <defs>
     <path d="M 483.659573 -100.940579 
L 477.791113 -100.940579 
L 477.450032 -102.142709 
L 477.087709 -103.344839 
L 476.704845 -104.546969 
L 476.302274 -105.7491 
L 475.880929 -106.95123 
L 475.441812 -108.15336 
L 474.98597 -109.35549 
L 474.514465 -110.55762 
L 474.028361 -111.75975 
L 473.528703 -112.96188 
L 473.016519 -114.16401 
L 472.492816 -115.36614 
L 471.958582 -116.56827 
L 471.414798 -117.7704 
L 470.862442 -118.97253 
L 470.302495 -120.17466 
L 469.735942 -121.37679 
L 469.163768 -122.57892 
L 468.586939 -123.78105 
L 468.006383 -124.98318 
L 467.422955 -126.18531 
L 466.837396 -127.38744 
L 466.250291 -128.58957 
L 465.662016 -129.7917 
L 465.072698 -130.99383 
L 464.482172 -132.19596 
L 463.88996 -133.39809 
L 463.295254 -134.60022 
L 462.696932 -135.80235 
L 462.093593 -137.00448 
L 461.483615 -138.20661 
L 460.865244 -139.40874 
L 460.23671 -140.61087 
L 459.596361 -141.813 
L 458.94282 -143.01513 
L 458.275153 -144.21726 
L 457.593043 -145.41939 
L 456.896959 -146.62152 
L 456.188315 -147.82365 
L 455.469607 -149.02578 
L 454.744517 -150.227911 
L 454.017981 -151.430041 
L 453.296207 -152.632171 
L 452.586642 -153.834301 
L 451.897884 -155.036431 
L 451.239536 -156.238561 
L 450.622003 -157.440691 
L 450.056236 -158.642821 
L 449.553438 -159.844951 
L 449.124724 -161.047081 
L 448.780767 -162.249211 
L 448.531429 -163.451341 
L 448.385395 -164.653471 
L 448.349837 -165.855601 
L 448.430103 -167.057731 
L 448.629462 -168.259861 
L 448.948918 -169.461991 
L 449.38709 -170.664121 
L 449.940179 -171.866251 
L 450.60202 -173.068381 
L 451.364223 -174.270511 
L 452.216396 -175.472641 
L 453.146439 -176.674771 
L 454.140906 -177.876901 
L 455.185417 -179.079031 
L 456.265097 -180.281161 
L 457.365034 -181.483291 
L 458.470729 -182.685421 
L 459.568519 -183.887551 
L 460.645964 -185.089681 
L 461.692166 -186.291811 
L 462.698031 -187.493941 
L 463.656439 -188.696071 
L 464.562335 -189.898201 
L 465.412739 -191.100331 
L 466.206665 -192.302461 
L 466.944972 -193.504592 
L 467.63015 -194.706722 
L 468.266052 -195.908852 
L 468.85759 -197.110982 
L 469.410413 -198.313112 
L 469.930583 -199.515242 
L 470.42425 -200.717372 
L 470.89737 -201.919502 
L 471.355442 -203.121632 
L 471.803301 -204.323762 
L 472.244962 -205.525892 
L 472.683511 -206.728022 
L 473.121059 -207.930152 
L 473.558743 -209.132282 
L 473.996777 -210.334412 
L 474.434534 -211.536542 
L 474.870673 -212.738672 
L 475.303278 -213.940802 
L 475.730013 -215.142932 
L 476.148277 -216.345062 
L 476.555366 -217.547192 
L 476.948608 -218.749322 
L 477.325492 -219.951452 
L 484.125194 -219.951452 
L 484.125194 -219.951452 
L 484.502078 -218.749322 
L 484.89532 -217.547192 
L 485.302408 -216.345062 
L 485.720673 -215.142932 
L 486.147407 -213.940802 
L 486.580013 -212.738672 
L 487.016152 -211.536542 
L 487.453909 -210.334412 
L 487.891942 -209.132282 
L 488.329627 -207.930152 
L 488.767175 -206.728022 
L 489.205724 -205.525892 
L 489.647385 -204.323762 
L 490.095244 -203.121632 
L 490.553316 -201.919502 
L 491.026435 -200.717372 
L 491.520103 -199.515242 
L 492.040272 -198.313112 
L 492.593096 -197.110982 
L 493.184634 -195.908852 
L 493.820535 -194.706722 
L 494.505714 -193.504592 
L 495.244021 -192.302461 
L 496.037947 -191.100331 
L 496.888351 -189.898201 
L 497.794247 -188.696071 
L 498.752655 -187.493941 
L 499.75852 -186.291811 
L 500.804722 -185.089681 
L 501.882167 -183.887551 
L 502.979957 -182.685421 
L 504.085652 -181.483291 
L 505.185589 -180.281161 
L 506.265269 -179.079031 
L 507.30978 -177.876901 
L 508.304247 -176.674771 
L 509.23429 -175.472641 
L 510.086463 -174.270511 
L 510.848666 -173.068381 
L 511.510507 -171.866251 
L 512.063595 -170.664121 
L 512.501767 -169.461991 
L 512.821224 -168.259861 
L 513.020583 -167.057731 
L 513.100848 -165.855601 
L 513.06529 -164.653471 
L 512.919257 -163.451341 
L 512.669918 -162.249211 
L 512.325962 -161.047081 
L 511.897248 -159.844951 
L 511.394449 -158.642821 
L 510.828683 -157.440691 
L 510.21115 -156.238561 
L 509.552802 -155.036431 
L 508.864044 -153.834301 
L 508.154479 -152.632171 
L 507.432705 -151.430041 
L 506.706169 -150.227911 
L 505.981079 -149.02578 
L 505.262371 -147.82365 
L 504.553727 -146.62152 
L 503.857643 -145.41939 
L 503.175533 -144.21726 
L 502.507866 -143.01513 
L 501.854325 -141.813 
L 501.213976 -140.61087 
L 500.585441 -139.40874 
L 499.967071 -138.20661 
L 499.357092 -137.00448 
L 498.753753 -135.80235 
L 498.155432 -134.60022 
L 497.560726 -133.39809 
L 496.968514 -132.19596 
L 496.377988 -130.99383 
L 495.78867 -129.7917 
L 495.200395 -128.58957 
L 494.613289 -127.38744 
L 494.027731 -126.18531 
L 493.444302 -124.98318 
L 492.863746 -123.78105 
L 492.286918 -122.57892 
L 491.714743 -121.37679 
L 491.148191 -120.17466 
L 490.588244 -118.97253 
L 490.035888 -117.7704 
L 489.492104 -116.56827 
L 488.95787 -115.36614 
L 488.434167 -114.16401 
L 487.921983 -112.96188 
L 487.422325 -111.75975 
L 486.93622 -110.55762 
L 486.464716 -109.35549 
L 486.008874 -108.15336 
L 485.569757 -106.95123 
L 485.148411 -105.7491 
L 484.74584 -104.546969 
L 484.362977 -103.344839 
L 484.000654 -102.142709 
L 483.659573 -100.940579 
z
" id="m991d08adbb" style="stroke:#414141;stroke-width:2;"/>
    </defs>
    <g clip-path="url(#p6abca8b956)">
     <use style="fill:#489eaa;stroke:#414141;stroke-width:2;" x="0" xlink:href="#m991d08adbb" y="391.7373"/>
    </g>
   </g>
   <g id="PolyCollection_6">
    <defs>
     <path d="M 582.765993 -105.467825 
L 569.998978 -105.467825 
L 569.367779 -106.698019 
L 568.710438 -107.928213 
L 568.030716 -109.158407 
L 567.33295 -110.388601 
L 566.621998 -111.618795 
L 565.903174 -112.848989 
L 565.182163 -114.079183 
L 564.464919 -115.309377 
L 563.757555 -116.539571 
L 563.066217 -117.769765 
L 562.396959 -118.999959 
L 561.755604 -120.230153 
L 561.14762 -121.460347 
L 560.577986 -122.690542 
L 560.05108 -123.920736 
L 559.570576 -125.15093 
L 559.139352 -126.381124 
L 558.759423 -127.611318 
L 558.431897 -128.841512 
L 558.156952 -130.071706 
L 557.933833 -131.3019 
L 557.76088 -132.532094 
L 557.635573 -133.762288 
L 557.554606 -134.992482 
L 557.513968 -136.222676 
L 557.509049 -137.45287 
L 557.534761 -138.683064 
L 557.585654 -139.913258 
L 557.656056 -141.143452 
L 557.740199 -142.373646 
L 557.832349 -143.60384 
L 557.926932 -144.834034 
L 558.018648 -146.064228 
L 558.102575 -147.294422 
L 558.174261 -148.524616 
L 558.229798 -149.75481 
L 558.265881 -150.985004 
L 558.279855 -152.215198 
L 558.269739 -153.445392 
L 558.234235 -154.675586 
L 558.172728 -155.90578 
L 558.085265 -157.135974 
L 557.972521 -158.366168 
L 557.835762 -159.596362 
L 557.67679 -160.826556 
L 557.497887 -162.05675 
L 557.301748 -163.286944 
L 557.091419 -164.517138 
L 556.870225 -165.747332 
L 556.641707 -166.977526 
L 556.409553 -168.20772 
L 556.177538 -169.437914 
L 555.949467 -170.668108 
L 555.729122 -171.898302 
L 555.52022 -173.128496 
L 555.326369 -174.358691 
L 555.151034 -175.588885 
L 554.997514 -176.819079 
L 554.868915 -178.049273 
L 554.76813 -179.279467 
L 554.697828 -180.509661 
L 554.660439 -181.739855 
L 554.65814 -182.970049 
L 554.69285 -184.200243 
L 554.766215 -185.430437 
L 554.879598 -186.660631 
L 555.034069 -187.890825 
L 555.23039 -189.121019 
L 555.469006 -190.351213 
L 555.750027 -191.581407 
L 556.07322 -192.811601 
L 556.438 -194.041795 
L 556.843416 -195.271989 
L 557.288152 -196.502183 
L 557.770526 -197.732377 
L 558.288497 -198.962571 
L 558.839671 -200.192765 
L 559.421326 -201.422959 
L 560.030434 -202.653153 
L 560.66369 -203.883347 
L 561.317555 -205.113541 
L 561.988293 -206.343735 
L 562.672025 -207.573929 
L 563.364778 -208.804123 
L 564.062537 -210.034317 
L 564.761305 -211.264511 
L 565.457154 -212.494705 
L 566.146281 -213.724899 
L 566.825056 -214.955093 
L 567.49007 -216.185287 
L 568.138173 -217.415481 
L 568.766512 -218.645675 
L 569.372555 -219.875869 
L 569.954114 -221.106063 
L 570.509359 -222.336257 
L 571.036823 -223.566451 
L 571.535397 -224.796645 
L 572.004332 -226.02684 
L 572.443215 -227.257034 
L 580.321757 -227.257034 
L 580.321757 -227.257034 
L 580.76064 -226.02684 
L 581.229574 -224.796645 
L 581.728149 -223.566451 
L 582.255612 -222.336257 
L 582.810857 -221.106063 
L 583.392417 -219.875869 
L 583.99846 -218.645675 
L 584.626798 -217.415481 
L 585.274902 -216.185287 
L 585.939915 -214.955093 
L 586.618691 -213.724899 
L 587.307818 -212.494705 
L 588.003667 -211.264511 
L 588.702435 -210.034317 
L 589.400194 -208.804123 
L 590.092946 -207.573929 
L 590.776678 -206.343735 
L 591.447417 -205.113541 
L 592.101281 -203.883347 
L 592.734537 -202.653153 
L 593.343645 -201.422959 
L 593.9253 -200.192765 
L 594.476475 -198.962571 
L 594.994445 -197.732377 
L 595.47682 -196.502183 
L 595.921556 -195.271989 
L 596.326972 -194.041795 
L 596.691751 -192.811601 
L 597.014945 -191.581407 
L 597.295966 -190.351213 
L 597.534581 -189.121019 
L 597.730902 -187.890825 
L 597.885373 -186.660631 
L 597.998756 -185.430437 
L 598.072121 -184.200243 
L 598.106831 -182.970049 
L 598.104533 -181.739855 
L 598.067143 -180.509661 
L 597.996841 -179.279467 
L 597.896057 -178.049273 
L 597.767457 -176.819079 
L 597.613937 -175.588885 
L 597.438603 -174.358691 
L 597.244751 -173.128496 
L 597.035849 -171.898302 
L 596.815505 -170.668108 
L 596.587433 -169.437914 
L 596.355418 -168.20772 
L 596.123264 -166.977526 
L 595.894746 -165.747332 
L 595.673553 -164.517138 
L 595.463223 -163.286944 
L 595.267085 -162.05675 
L 595.088181 -160.826556 
L 594.929209 -159.596362 
L 594.792451 -158.366168 
L 594.679707 -157.135974 
L 594.592243 -155.90578 
L 594.530737 -154.675586 
L 594.495233 -153.445392 
L 594.485116 -152.215198 
L 594.49909 -150.985004 
L 594.535174 -149.75481 
L 594.59071 -148.524616 
L 594.662396 -147.294422 
L 594.746324 -146.064228 
L 594.83804 -144.834034 
L 594.932623 -143.60384 
L 595.024773 -142.373646 
L 595.108915 -141.143452 
L 595.179317 -139.913258 
L 595.230211 -138.683064 
L 595.255922 -137.45287 
L 595.251004 -136.222676 
L 595.210365 -134.992482 
L 595.129398 -133.762288 
L 595.004092 -132.532094 
L 594.831139 -131.3019 
L 594.608019 -130.071706 
L 594.333074 -128.841512 
L 594.005549 -127.611318 
L 593.62562 -126.381124 
L 593.194395 -125.15093 
L 592.713891 -123.920736 
L 592.186986 -122.690542 
L 591.617352 -121.460347 
L 591.009367 -120.230153 
L 590.368013 -118.999959 
L 589.698754 -117.769765 
L 589.007417 -116.539571 
L 588.300053 -115.309377 
L 587.582809 -114.079183 
L 586.861797 -112.848989 
L 586.142974 -111.618795 
L 585.432021 -110.388601 
L 584.734255 -109.158407 
L 584.054534 -107.928213 
L 583.397193 -106.698019 
L 582.765993 -105.467825 
z
" id="m3b99595455" style="stroke:#414141;stroke-width:2;"/>
    </defs>
    <g clip-path="url(#p6abca8b956)">
     <use style="fill:#8fa0e6;stroke:#414141;stroke-width:2;" x="0" xlink:href="#m3b99595455" y="391.7373"/>
    </g>
   </g>
   <g id="PolyCollection_7">
    <defs>
     <path d="M 677.615495 -100.330024 
L 666.463762 -100.330024 
L 665.916832 -102.417229 
L 665.344065 -104.504435 
L 664.74774 -106.591641 
L 664.130578 -108.678847 
L 663.495732 -110.766053 
L 662.846767 -112.853259 
L 662.18763 -114.940465 
L 661.522618 -117.02767 
L 660.85633 -119.114876 
L 660.193617 -121.202082 
L 659.539524 -123.289288 
L 658.899231 -125.376494 
L 658.277981 -127.4637 
L 657.681016 -129.550906 
L 657.113501 -131.638112 
L 656.580454 -133.725317 
L 656.086674 -135.812523 
L 655.636673 -137.899729 
L 655.234606 -139.986935 
L 654.884212 -142.074141 
L 654.588752 -144.161347 
L 654.350961 -146.248553 
L 654.173005 -148.335758 
L 654.056437 -150.422964 
L 654.002177 -152.51017 
L 654.010485 -154.597376 
L 654.080955 -156.684582 
L 654.212517 -158.771788 
L 654.403439 -160.858994 
L 654.651354 -162.9462 
L 654.953286 -165.033405 
L 655.305689 -167.120611 
L 655.704496 -169.207817 
L 656.145174 -171.295023 
L 656.622791 -173.382229 
L 657.132081 -175.469435 
L 657.667525 -177.556641 
L 658.223424 -179.643847 
L 658.793987 -181.731052 
L 659.373409 -183.818258 
L 659.955953 -185.905464 
L 660.536031 -187.99267 
L 661.108276 -190.079876 
L 661.667619 -192.167082 
L 662.209343 -194.254288 
L 662.729148 -196.341493 
L 663.223193 -198.428699 
L 663.688136 -200.515905 
L 664.121166 -202.603111 
L 664.520017 -204.690317 
L 664.88298 -206.777523 
L 665.208904 -208.864729 
L 665.497189 -210.951935 
L 665.747762 -213.03914 
L 665.961062 -215.126346 
L 666.138001 -217.213552 
L 666.279936 -219.300758 
L 666.388619 -221.387964 
L 666.466163 -223.47517 
L 666.514989 -225.562376 
L 666.537778 -227.649581 
L 666.537428 -229.736787 
L 666.517 -231.823993 
L 666.479675 -233.911199 
L 666.428703 -235.998405 
L 666.367364 -238.085611 
L 666.298919 -240.172817 
L 666.226575 -242.260023 
L 666.153447 -244.347228 
L 666.082518 -246.434434 
L 666.016611 -248.52164 
L 665.958358 -250.608846 
L 665.910169 -252.696052 
L 665.874216 -254.783258 
L 665.852405 -256.870464 
L 665.846361 -258.957669 
L 665.857417 -261.044875 
L 665.886597 -263.132081 
L 665.934617 -265.219287 
L 666.00188 -267.306493 
L 666.088478 -269.393699 
L 666.1942 -271.480905 
L 666.318543 -273.568111 
L 666.46073 -275.655316 
L 666.619727 -277.742522 
L 666.794269 -279.829728 
L 666.98289 -281.916934 
L 667.183949 -284.00414 
L 667.395668 -286.091346 
L 667.616166 -288.178552 
L 667.843495 -290.265758 
L 668.075675 -292.352963 
L 668.310729 -294.440169 
L 668.546723 -296.527375 
L 668.78179 -298.614581 
L 669.014163 -300.701787 
L 669.2422 -302.788993 
L 669.464406 -304.876199 
L 669.679448 -306.963404 
L 674.399809 -306.963404 
L 674.399809 -306.963404 
L 674.614851 -304.876199 
L 674.837057 -302.788993 
L 675.065095 -300.701787 
L 675.297468 -298.614581 
L 675.532534 -296.527375 
L 675.768528 -294.440169 
L 676.003583 -292.352963 
L 676.235762 -290.265758 
L 676.463091 -288.178552 
L 676.683589 -286.091346 
L 676.895309 -284.00414 
L 677.096368 -281.916934 
L 677.284988 -279.829728 
L 677.45953 -277.742522 
L 677.618527 -275.655316 
L 677.760714 -273.568111 
L 677.885057 -271.480905 
L 677.990779 -269.393699 
L 678.077377 -267.306493 
L 678.14464 -265.219287 
L 678.19266 -263.132081 
L 678.22184 -261.044875 
L 678.232896 -258.957669 
L 678.226852 -256.870464 
L 678.205041 -254.783258 
L 678.169088 -252.696052 
L 678.1209 -250.608846 
L 678.062646 -248.52164 
L 677.996739 -246.434434 
L 677.92581 -244.347228 
L 677.852682 -242.260023 
L 677.780339 -240.172817 
L 677.711894 -238.085611 
L 677.650554 -235.998405 
L 677.599582 -233.911199 
L 677.562257 -231.823993 
L 677.541829 -229.736787 
L 677.541479 -227.649581 
L 677.564268 -225.562376 
L 677.613094 -223.47517 
L 677.690638 -221.387964 
L 677.799322 -219.300758 
L 677.941256 -217.213552 
L 678.118195 -215.126346 
L 678.331495 -213.03914 
L 678.582068 -210.951935 
L 678.870353 -208.864729 
L 679.196278 -206.777523 
L 679.559241 -204.690317 
L 679.958091 -202.603111 
L 680.391121 -200.515905 
L 680.856064 -198.428699 
L 681.350109 -196.341493 
L 681.869914 -194.254288 
L 682.411638 -192.167082 
L 682.970981 -190.079876 
L 683.543227 -187.99267 
L 684.123304 -185.905464 
L 684.705848 -183.818258 
L 685.28527 -181.731052 
L 685.855833 -179.643847 
L 686.411732 -177.556641 
L 686.947176 -175.469435 
L 687.456466 -173.382229 
L 687.934083 -171.295023 
L 688.374761 -169.207817 
L 688.773568 -167.120611 
L 689.125971 -165.033405 
L 689.427903 -162.9462 
L 689.675818 -160.858994 
L 689.86674 -158.771788 
L 689.998302 -156.684582 
L 690.068773 -154.597376 
L 690.07708 -152.51017 
L 690.02282 -150.422964 
L 689.906252 -148.335758 
L 689.728296 -146.248553 
L 689.490506 -144.161347 
L 689.195045 -142.074141 
L 688.844651 -139.986935 
L 688.442584 -137.899729 
L 687.992583 -135.812523 
L 687.498803 -133.725317 
L 686.965756 -131.638112 
L 686.398241 -129.550906 
L 685.801276 -127.4637 
L 685.180027 -125.376494 
L 684.539733 -123.289288 
L 683.88564 -121.202082 
L 683.222927 -119.114876 
L 682.556639 -117.02767 
L 681.891627 -114.940465 
L 681.232491 -112.853259 
L 680.583525 -110.766053 
L 679.948679 -108.678847 
L 679.331517 -106.591641 
L 678.735192 -104.504435 
L 678.162425 -102.417229 
L 677.615495 -100.330024 
z
" id="m9b5beeaf84" style="stroke:#414141;stroke-width:2;"/>
    </defs>
    <g clip-path="url(#p6abca8b956)">
     <use style="fill:#e270db;stroke:#414141;stroke-width:2;" x="0" xlink:href="#m9b5beeaf84" y="391.7373"/>
    </g>
   </g>
   <g id="line2d_1">
    <path clip-path="url(#p6abca8b956)" d="M 50.2682 240.358849 
L 719.8682 240.358849 
" style="fill:none;stroke:#404040;stroke-dasharray:5.55,2.4;stroke-dashoffset:0;stroke-width:1.5;"/>
   </g>
   <g id="line2d_2">
    <path clip-path="url(#p6abca8b956)" d="M 98.096771 271.606672 
L 98.096771 214.133953 
" style="fill:none;stroke:#414141;stroke-linecap:round;stroke-width:2;"/>
   </g>
   <g id="line2d_3">
    <path clip-path="url(#p6abca8b956)" d="M 98.096771 265.866461 
L 98.096771 234.405558 
" style="fill:none;stroke:#414141;stroke-linecap:round;stroke-width:6;"/>
   </g>
   <g id="line2d_4">
    <path clip-path="url(#p6abca8b956)" d="M 193.753914 282.106269 
L 193.753914 204.40452 
" style="fill:none;stroke:#414141;stroke-linecap:round;stroke-width:2;"/>
   </g>
   <g id="line2d_5">
    <path clip-path="url(#p6abca8b956)" d="M 193.753914 245.14063 
L 193.753914 217.680927 
" style="fill:none;stroke:#414141;stroke-linecap:round;stroke-width:6;"/>
   </g>
   <g id="line2d_6">
    <path clip-path="url(#p6abca8b956)" d="M 289.411057 269.929308 
L 289.411057 195.814567 
" style="fill:none;stroke:#414141;stroke-linecap:round;stroke-width:2;"/>
   </g>
   <g id="line2d_7">
    <path clip-path="url(#p6abca8b956)" d="M 289.411057 242.092766 
L 289.411057 218.44925 
" style="fill:none;stroke:#414141;stroke-linecap:round;stroke-width:6;"/>
   </g>
   <g id="line2d_8">
    <path clip-path="url(#p6abca8b956)" d="M 385.0682 291.925647 
L 385.0682 177.948565 
" style="fill:none;stroke:#414141;stroke-linecap:round;stroke-width:2;"/>
   </g>
   <g id="line2d_9">
    <path clip-path="url(#p6abca8b956)" d="M 385.0682 246.470267 
L 385.0682 208.292533 
" style="fill:none;stroke:#414141;stroke-linecap:round;stroke-width:6;"/>
   </g>
   <g id="line2d_10">
    <path clip-path="url(#p6abca8b956)" d="M 480.725343 277.010943 
L 480.725343 185.571626 
" style="fill:none;stroke:#414141;stroke-linecap:round;stroke-width:2;"/>
   </g>
   <g id="line2d_11">
    <path clip-path="url(#p6abca8b956)" d="M 480.725343 244.659401 
L 480.725343 217.124421 
" style="fill:none;stroke:#414141;stroke-linecap:round;stroke-width:6;"/>
   </g>
   <g id="line2d_12">
    <path clip-path="url(#p6abca8b956)" d="M 576.382486 269.313221 
L 576.382486 181.43652 
" style="fill:none;stroke:#414141;stroke-linecap:round;stroke-width:2;"/>
   </g>
   <g id="line2d_13">
    <path clip-path="url(#p6abca8b956)" d="M 576.382486 259.391037 
L 576.382486 202.478325 
" style="fill:none;stroke:#414141;stroke-linecap:round;stroke-width:6;"/>
   </g>
   <g id="line2d_14">
    <path clip-path="url(#p6abca8b956)" d="M 672.039629 262.194659 
L 672.039629 113.986513 
" style="fill:none;stroke:#414141;stroke-linecap:round;stroke-width:2;"/>
   </g>
   <g id="line2d_15">
    <path clip-path="url(#p6abca8b956)" d="M 672.039629 247.882148 
L 672.039629 194.294662 
" style="fill:none;stroke:#414141;stroke-linecap:round;stroke-width:6;"/>
   </g>
   <g id="patch_3">
    <path d="M 50.2682 367.986675 
L 50.2682 41.826675 
" style="fill:none;stroke:#262626;stroke-linecap:square;stroke-linejoin:miter;stroke-width:1.25;"/>
   </g>
   <g id="patch_4">
    <path d="M 719.8682 367.986675 
L 719.8682 41.826675 
" style="fill:none;stroke:#262626;stroke-linecap:square;stroke-linejoin:miter;stroke-width:1.25;"/>
   </g>
   <g id="patch_5">
    <path d="M 50.2682 367.986675 
L 719.8682 367.986675 
" style="fill:none;stroke:#262626;stroke-linecap:square;stroke-linejoin:miter;stroke-width:1.25;"/>
   </g>
   <g id="patch_6">
    <path d="M 50.2682 41.826675 
L 719.8682 41.826675 
" style="fill:none;stroke:#262626;stroke-linecap:square;stroke-linejoin:miter;stroke-width:1.25;"/>
   </g>
   <g id="PathCollection_1">
    <defs>
     <path d="M 0 2 
C 0.530406 2 1.03916 1.789267 1.414214 1.414214 
C 1.789267 1.03916 2 0.530406 2 0 
C 2 -0.530406 1.789267 -1.03916 1.414214 -1.414214 
C 1.03916 -1.789267 0.530406 -2 0 -2 
C -0.530406 -2 -1.03916 -1.789267 -1.414214 -1.414214 
C -1.789267 -1.03916 -2 -0.530406 -2 0 
C -2 0.530406 -1.789267 1.03916 -1.414214 1.414214 
C -1.03916 1.789267 -0.530406 2 0 2 
z
" id="mcbe809f372" style="stroke:#414141;"/>
    </defs>
    <g clip-path="url(#p6abca8b956)">
     <use style="fill:#ffffff;stroke:#414141;" x="98.096771" xlink:href="#mcbe809f372" y="254.331576"/>
    </g>
   </g>
   <g id="PathCollection_2">
    <g clip-path="url(#p6abca8b956)">
     <use style="fill:#ffffff;stroke:#414141;" x="193.753914" xlink:href="#mcbe809f372" y="229.939898"/>
    </g>
   </g>
   <g id="PathCollection_3">
    <g clip-path="url(#p6abca8b956)">
     <use style="fill:#ffffff;stroke:#414141;" x="289.411057" xlink:href="#mcbe809f372" y="225.408374"/>
    </g>
   </g>
   <g id="PathCollection_4">
    <g clip-path="url(#p6abca8b956)">
     <use style="fill:#ffffff;stroke:#414141;" x="385.0682" xlink:href="#mcbe809f372" y="231.762701"/>
    </g>
   </g>
   <g id="PathCollection_5">
    <g clip-path="url(#p6abca8b956)">
     <use style="fill:#ffffff;stroke:#414141;" x="480.725343" xlink:href="#mcbe809f372" y="227.769473"/>
    </g>
   </g>
   <g id="PathCollection_6">
    <g clip-path="url(#p6abca8b956)">
     <use style="fill:#ffffff;stroke:#414141;" x="576.382486" xlink:href="#mcbe809f372" y="220.813298"/>
    </g>
   </g>
   <g id="PathCollection_7">
    <g clip-path="url(#p6abca8b956)">
     <use style="fill:#ffffff;stroke:#414141;" x="672.039629" xlink:href="#mcbe809f372" y="229.211555"/>
    </g>
   </g>
   <g id="text_15">
    <!-- Accidents after the start of DST in California (20012016) -->
    <defs>
     <path d="M 38.671875 62.203125 
Q 32.8125 62.203125 28.296875 60.25 
Q 23.78125 58.296875 20.71875 54.6875 
Q 17.671875 51.078125 16.109375 46 
Q 14.546875 40.921875 14.546875 34.71875 
Q 14.546875 28.515625 16.234375 23.359375 
Q 17.921875 18.21875 21.0625 14.5 
Q 24.21875 10.796875 28.78125 8.734375 
Q 33.34375 6.6875 39.0625 6.6875 
Q 43.0625 6.6875 46.359375 7.734375 
Q 49.65625 8.796875 52.3125 10.6875 
Q 54.984375 12.59375 57.078125 15.203125 
Q 59.1875 17.828125 60.796875 21 
L 68.40625 17.1875 
Q 66.546875 13.328125 63.8125 10 
Q 61.078125 6.6875 57.390625 4.25 
Q 53.71875 1.8125 49.046875 0.40625 
Q 44.390625 -0.984375 38.625 -0.984375 
Q 30.28125 -0.984375 24 1.671875 
Q 17.71875 4.34375 13.5 9.109375 
Q 9.28125 13.875 7.171875 20.40625 
Q 5.078125 26.953125 5.078125 34.71875 
Q 5.078125 42.78125 7.296875 49.265625 
Q 9.515625 55.765625 13.78125 60.328125 
Q 18.0625 64.890625 24.3125 67.359375 
Q 30.5625 69.828125 38.578125 69.828125 
Q 49.5625 69.828125 56.9375 65.53125 
Q 64.3125 61.234375 67.78125 52.78125 
L 58.9375 49.859375 
Q 57.953125 52.296875 56.296875 54.515625 
Q 54.640625 56.734375 52.140625 58.4375 
Q 49.65625 60.15625 46.3125 61.171875 
Q 42.96875 62.203125 38.671875 62.203125 
z
" id="LiberationSans-43"/>
     <path d="M 6.734375 0 
L 6.734375 72.46875 
L 15.53125 72.46875 
L 15.53125 0 
z
" id="LiberationSans-6c"/>
     <path d="M 0 22.015625 
L 0 28.71875 
L 55.5625 28.71875 
L 55.5625 22.015625 
z
" id="LiberationSans-2013"/>
    </defs>
    <g style="fill:#262626;" transform="translate(54.8682 26.041875)scale(0.26 -0.26)">
     <use xlink:href="#LiberationSans-41"/>
     <use x="66.699219" xlink:href="#LiberationSans-63"/>
     <use x="116.699219" xlink:href="#LiberationSans-63"/>
     <use x="166.699219" xlink:href="#LiberationSans-69"/>
     <use x="188.916016" xlink:href="#LiberationSans-64"/>
     <use x="244.53125" xlink:href="#LiberationSans-65"/>
     <use x="300.146484" xlink:href="#LiberationSans-6e"/>
     <use x="355.761719" xlink:href="#LiberationSans-74"/>
     <use x="383.544922" xlink:href="#LiberationSans-73"/>
     <use x="433.544922" xlink:href="#LiberationSans-20"/>
     <use x="461.328125" xlink:href="#LiberationSans-61"/>
     <use x="516.943359" xlink:href="#LiberationSans-66"/>
     <use x="544.726562" xlink:href="#LiberationSans-74"/>
     <use x="572.509766" xlink:href="#LiberationSans-65"/>
     <use x="628.125" xlink:href="#LiberationSans-72"/>
     <use x="661.425781" xlink:href="#LiberationSans-20"/>
     <use x="689.208984" xlink:href="#LiberationSans-74"/>
     <use x="716.992188" xlink:href="#LiberationSans-68"/>
     <use x="772.607422" xlink:href="#LiberationSans-65"/>
     <use x="828.222656" xlink:href="#LiberationSans-20"/>
     <use x="856.005859" xlink:href="#LiberationSans-73"/>
     <use x="906.005859" xlink:href="#LiberationSans-74"/>
     <use x="933.789062" xlink:href="#LiberationSans-61"/>
     <use x="989.404297" xlink:href="#LiberationSans-72"/>
     <use x="1022.705078" xlink:href="#LiberationSans-74"/>
     <use x="1050.488281" xlink:href="#LiberationSans-20"/>
     <use x="1078.271484" xlink:href="#LiberationSans-6f"/>
     <use x="1133.886719" xlink:href="#LiberationSans-66"/>
     <use x="1161.669922" xlink:href="#LiberationSans-20"/>
     <use x="1189.453125" xlink:href="#LiberationSans-44"/>
     <use x="1261.669922" xlink:href="#LiberationSans-53"/>
     <use x="1328.369141" xlink:href="#LiberationSans-54"/>
     <use x="1389.4375" xlink:href="#LiberationSans-20"/>
     <use x="1417.220703" xlink:href="#LiberationSans-69"/>
     <use x="1439.4375" xlink:href="#LiberationSans-6e"/>
     <use x="1495.052734" xlink:href="#LiberationSans-20"/>
     <use x="1522.835938" xlink:href="#LiberationSans-43"/>
     <use x="1595.052734" xlink:href="#LiberationSans-61"/>
     <use x="1650.667969" xlink:href="#LiberationSans-6c"/>
     <use x="1672.884766" xlink:href="#LiberationSans-69"/>
     <use x="1695.101562" xlink:href="#LiberationSans-66"/>
     <use x="1722.884766" xlink:href="#LiberationSans-6f"/>
     <use x="1778.5" xlink:href="#LiberationSans-72"/>
     <use x="1811.800781" xlink:href="#LiberationSans-6e"/>
     <use x="1867.416016" xlink:href="#LiberationSans-69"/>
     <use x="1889.632812" xlink:href="#LiberationSans-61"/>
     <use x="1945.248047" xlink:href="#LiberationSans-20"/>
     <use x="1973.03125" xlink:href="#LiberationSans-28"/>
     <use x="2006.332031" xlink:href="#LiberationSans-32"/>
     <use x="2061.947266" xlink:href="#LiberationSans-30"/>
     <use x="2117.5625" xlink:href="#LiberationSans-30"/>
     <use x="2173.177734" xlink:href="#LiberationSans-31"/>
     <use x="2228.792969" xlink:href="#LiberationSans-2013"/>
     <use x="2284.408203" xlink:href="#LiberationSans-32"/>
     <use x="2340.023438" xlink:href="#LiberationSans-30"/>
     <use x="2395.638672" xlink:href="#LiberationSans-31"/>
     <use x="2451.253906" xlink:href="#LiberationSans-36"/>
     <use x="2506.869141" xlink:href="#LiberationSans-29"/>
    </g>
   </g>
  </g>
 </g>
 <defs>
  <clipPath id="p6abca8b956">
   <rect height="326.16" width="669.6" x="50.2682" y="41.826675"/>
  </clipPath>
 </defs>
</svg>
