<?xml version="1.0" encoding="utf-8" standalone="no"?>
<!DOCTYPE svg PUBLIC "-//W3C//DTD SVG 1.1//EN"
  "http://www.w3.org/Graphics/SVG/1.1/DTD/svg11.dtd">
<!-- Created with matplotlib (http://matplotlib.org/) -->
<svg height="403pt" version="1.1" viewBox="0 0 731 403" width="731pt" xmlns="http://www.w3.org/2000/svg" xmlns:xlink="http://www.w3.org/1999/xlink">
 <defs>
  <style type="text/css">
*{stroke-linecap:butt;stroke-linejoin:round;stroke-miterlimit:100000;}
  </style>
 </defs>
 <g id="figure_1">
  <g id="patch_1">
   <path d="M 0 403.309312 
L 731.2631 403.309312 
L 731.2631 0 
L 0 0 
z
" style="fill:#ffffff;"/>
  </g>
  <g id="axes_1">
   <g id="patch_2">
    <path d="M 54.4631 375.971187 
L 724.0631 375.971187 
L 724.0631 41.171187 
L 54.4631 41.171187 
z
" style="fill:#ffffff;"/>
   </g>
   <g id="matplotlib.axis_1">
    <g id="xtick_1">
     <g id="line2d_1"/>
     <g id="line2d_2"/>
     <g id="text_1">
      <!-- Sunday (DST) -->
      <defs>
       <path d="M 40.4375 6.390625 
Q 35.546875 2.25 31.03125 0.53125 
Q 26.515625 -1.171875 21.34375 -1.171875 
Q 12.796875 -1.171875 8.203125 3 
Q 3.609375 7.171875 3.609375 13.671875 
Q 3.609375 17.484375 5.34375 20.625 
Q 7.078125 23.78125 9.890625 25.6875 
Q 12.703125 27.59375 16.21875 28.5625 
Q 18.796875 29.25 24.03125 29.890625 
Q 34.671875 31.15625 39.703125 32.90625 
Q 39.75 34.71875 39.75 35.203125 
Q 39.75 40.578125 37.25 42.78125 
Q 33.890625 45.75 27.25 45.75 
Q 21.046875 45.75 18.09375 43.578125 
Q 15.140625 41.40625 13.71875 35.890625 
L 5.125 37.0625 
Q 6.296875 42.578125 8.984375 45.96875 
Q 11.671875 49.359375 16.75 51.1875 
Q 21.828125 53.03125 28.515625 53.03125 
Q 35.15625 53.03125 39.296875 51.46875 
Q 43.453125 49.90625 45.40625 47.53125 
Q 47.359375 45.171875 48.140625 41.546875 
Q 48.578125 39.3125 48.578125 33.453125 
L 48.578125 21.734375 
Q 48.578125 9.46875 49.140625 6.21875 
Q 49.703125 2.984375 51.375 0 
L 42.1875 0 
Q 40.828125 2.734375 40.4375 6.390625 
M 39.703125 26.03125 
Q 34.90625 24.078125 25.34375 22.703125 
Q 19.921875 21.921875 17.671875 20.9375 
Q 15.4375 19.96875 14.203125 18.09375 
Q 12.984375 16.21875 12.984375 13.921875 
Q 12.984375 10.40625 15.640625 8.0625 
Q 18.3125 5.71875 23.4375 5.71875 
Q 28.515625 5.71875 32.46875 7.9375 
Q 36.421875 10.15625 38.28125 14.015625 
Q 39.703125 17 39.703125 22.796875 
z
" id="ArialMT-61"/>
       <path d="M 6.203125 -19.96875 
L 5.21875 -11.71875 
Q 8.109375 -12.5 10.25 -12.5 
Q 13.1875 -12.5 14.9375 -11.515625 
Q 16.703125 -10.546875 17.828125 -8.796875 
Q 18.65625 -7.46875 20.515625 -2.25 
Q 20.75 -1.515625 21.296875 -0.09375 
L 1.609375 51.859375 
L 11.078125 51.859375 
L 21.875 21.828125 
Q 23.96875 16.109375 25.640625 9.8125 
Q 27.15625 15.875 29.25 21.625 
L 40.328125 51.859375 
L 49.125 51.859375 
L 29.390625 -0.875 
Q 26.21875 -9.421875 24.46875 -12.640625 
Q 22.125 -17 19.09375 -19.015625 
Q 16.0625 -21.046875 11.859375 -21.046875 
Q 9.328125 -21.046875 6.203125 -19.96875 
" id="ArialMT-79"/>
       <path d="M 12.359375 -21.046875 
L 6.0625 -21.046875 
Q 20.65625 2.390625 20.65625 25.875 
Q 20.65625 35.0625 18.5625 44.09375 
Q 16.890625 51.421875 13.921875 58.15625 
Q 12.015625 62.546875 6.0625 72.796875 
L 12.359375 72.796875 
Q 21.53125 60.546875 25.921875 48.1875 
Q 29.6875 37.546875 29.6875 25.921875 
Q 29.6875 12.75 24.625 0.4375 
Q 19.578125 -11.859375 12.359375 -21.046875 
" id="ArialMT-29"/>
       <path d="M 40.234375 0 
L 40.234375 6.546875 
Q 35.296875 -1.171875 25.734375 -1.171875 
Q 19.53125 -1.171875 14.328125 2.25 
Q 9.125 5.671875 6.265625 11.796875 
Q 3.421875 17.921875 3.421875 25.875 
Q 3.421875 33.640625 6 39.96875 
Q 8.59375 46.296875 13.765625 49.65625 
Q 18.953125 53.03125 25.34375 53.03125 
Q 30.03125 53.03125 33.6875 51.046875 
Q 37.359375 49.078125 39.65625 45.90625 
L 39.65625 71.578125 
L 48.390625 71.578125 
L 48.390625 0 
z
M 12.453125 25.875 
Q 12.453125 15.921875 16.640625 10.984375 
Q 20.84375 6.0625 26.5625 6.0625 
Q 32.328125 6.0625 36.34375 10.765625 
Q 40.375 15.484375 40.375 25.140625 
Q 40.375 35.796875 36.265625 40.765625 
Q 32.171875 45.75 26.171875 45.75 
Q 20.3125 45.75 16.375 40.96875 
Q 12.453125 36.1875 12.453125 25.875 
" id="ArialMT-64"/>
       <path d="M 4.5 23 
L 13.421875 23.78125 
Q 14.0625 18.40625 16.375 14.96875 
Q 18.703125 11.53125 23.578125 9.40625 
Q 28.46875 7.28125 34.578125 7.28125 
Q 39.984375 7.28125 44.140625 8.890625 
Q 48.296875 10.5 50.3125 13.296875 
Q 52.34375 16.109375 52.34375 19.4375 
Q 52.34375 22.796875 50.390625 25.3125 
Q 48.4375 27.828125 43.953125 29.546875 
Q 41.0625 30.671875 31.203125 33.03125 
Q 21.34375 35.40625 17.390625 37.5 
Q 12.25 40.1875 9.734375 44.15625 
Q 7.234375 48.140625 7.234375 53.078125 
Q 7.234375 58.5 10.296875 63.203125 
Q 13.375 67.921875 19.28125 70.359375 
Q 25.203125 72.796875 32.421875 72.796875 
Q 40.375 72.796875 46.453125 70.234375 
Q 52.546875 67.671875 55.8125 62.6875 
Q 59.078125 57.71875 59.328125 51.421875 
L 50.25 50.734375 
Q 49.515625 57.515625 45.28125 60.984375 
Q 41.0625 64.453125 32.8125 64.453125 
Q 24.21875 64.453125 20.28125 61.296875 
Q 16.359375 58.15625 16.359375 53.71875 
Q 16.359375 49.859375 19.140625 47.359375 
Q 21.875 44.875 33.421875 42.265625 
Q 44.96875 39.65625 49.265625 37.703125 
Q 55.515625 34.8125 58.484375 30.390625 
Q 61.46875 25.984375 61.46875 20.21875 
Q 61.46875 14.5 58.203125 9.4375 
Q 54.9375 4.390625 48.796875 1.578125 
Q 42.671875 -1.21875 35.015625 -1.21875 
Q 25.296875 -1.21875 18.71875 1.609375 
Q 12.15625 4.4375 8.421875 10.125 
Q 4.6875 15.828125 4.5 23 
" id="ArialMT-53"/>
       <path d="M 23.390625 -21.046875 
Q 16.109375 -11.859375 11.078125 0.4375 
Q 6.0625 12.75 6.0625 25.921875 
Q 6.0625 37.546875 9.8125 48.1875 
Q 14.203125 60.546875 23.390625 72.796875 
L 29.6875 72.796875 
Q 23.78125 62.640625 21.875 58.296875 
Q 18.890625 51.5625 17.1875 44.234375 
Q 15.09375 35.109375 15.09375 25.875 
Q 15.09375 2.390625 29.6875 -21.046875 
z
" id="ArialMT-28"/>
       <path d="M 7.71875 0 
L 7.71875 71.578125 
L 32.375 71.578125 
Q 40.71875 71.578125 45.125 70.5625 
Q 51.265625 69.140625 55.609375 65.4375 
Q 61.28125 60.640625 64.078125 53.1875 
Q 66.890625 45.75 66.890625 36.1875 
Q 66.890625 28.03125 64.984375 21.734375 
Q 63.09375 15.4375 60.109375 11.296875 
Q 57.125 7.171875 53.578125 4.796875 
Q 50.046875 2.4375 45.046875 1.21875 
Q 40.046875 0 33.546875 0 
z
M 17.1875 8.453125 
L 32.46875 8.453125 
Q 39.546875 8.453125 43.578125 9.765625 
Q 47.609375 11.078125 50 13.484375 
Q 53.375 16.84375 55.25 22.53125 
Q 57.125 28.21875 57.125 36.328125 
Q 57.125 47.5625 53.4375 53.59375 
Q 49.75 59.625 44.484375 61.671875 
Q 40.671875 63.140625 32.234375 63.140625 
L 17.1875 63.140625 
z
" id="ArialMT-44"/>
       <path d="M 25.921875 0 
L 25.921875 63.140625 
L 2.34375 63.140625 
L 2.34375 71.578125 
L 59.078125 71.578125 
L 59.078125 63.140625 
L 35.40625 63.140625 
L 35.40625 0 
z
" id="ArialMT-54"/>
       <path d="M 6.59375 0 
L 6.59375 51.859375 
L 14.5 51.859375 
L 14.5 44.484375 
Q 20.21875 53.03125 31 53.03125 
Q 35.6875 53.03125 39.625 51.34375 
Q 43.5625 49.65625 45.515625 46.921875 
Q 47.46875 44.1875 48.25 40.4375 
Q 48.734375 37.984375 48.734375 31.890625 
L 48.734375 0 
L 39.9375 0 
L 39.9375 31.546875 
Q 39.9375 36.921875 38.90625 39.578125 
Q 37.890625 42.234375 35.28125 43.8125 
Q 32.671875 45.40625 29.15625 45.40625 
Q 23.53125 45.40625 19.453125 41.84375 
Q 15.375 38.28125 15.375 28.328125 
L 15.375 0 
z
" id="ArialMT-6e"/>
       <path d="M 40.578125 0 
L 40.578125 7.625 
Q 34.515625 -1.171875 24.125 -1.171875 
Q 19.53125 -1.171875 15.546875 0.578125 
Q 11.578125 2.34375 9.640625 5 
Q 7.71875 7.671875 6.9375 11.53125 
Q 6.390625 14.109375 6.390625 19.734375 
L 6.390625 51.859375 
L 15.1875 51.859375 
L 15.1875 23.09375 
Q 15.1875 16.21875 15.71875 13.8125 
Q 16.546875 10.359375 19.234375 8.375 
Q 21.921875 6.390625 25.875 6.390625 
Q 29.828125 6.390625 33.296875 8.421875 
Q 36.765625 10.453125 38.203125 13.9375 
Q 39.65625 17.4375 39.65625 24.078125 
L 39.65625 51.859375 
L 48.4375 51.859375 
L 48.4375 0 
z
" id="ArialMT-75"/>
       <path id="ArialMT-20"/>
      </defs>
      <g style="fill:#262626;" transform="translate(57.9455776786 393.16275)scale(0.14 -0.14)">
       <use xlink:href="#ArialMT-53"/>
       <use x="66.69921875" xlink:href="#ArialMT-75"/>
       <use x="122.314453125" xlink:href="#ArialMT-6e"/>
       <use x="177.9296875" xlink:href="#ArialMT-64"/>
       <use x="233.544921875" xlink:href="#ArialMT-61"/>
       <use x="289.16015625" xlink:href="#ArialMT-79"/>
       <use x="339.16015625" xlink:href="#ArialMT-20"/>
       <use x="366.943359375" xlink:href="#ArialMT-28"/>
       <use x="400.244140625" xlink:href="#ArialMT-44"/>
       <use x="472.4609375" xlink:href="#ArialMT-53"/>
       <use x="539.16015625" xlink:href="#ArialMT-54"/>
       <use x="600.244140625" xlink:href="#ArialMT-29"/>
      </g>
     </g>
    </g>
    <g id="xtick_2">
     <g id="line2d_3"/>
     <g id="line2d_4"/>
     <g id="text_2">
      <!-- Monday -->
      <defs>
       <path d="M 7.421875 0 
L 7.421875 71.578125 
L 21.6875 71.578125 
L 38.625 20.90625 
Q 40.96875 13.8125 42.046875 10.296875 
Q 43.265625 14.203125 45.84375 21.78125 
L 62.984375 71.578125 
L 75.734375 71.578125 
L 75.734375 0 
L 66.609375 0 
L 66.609375 59.90625 
L 45.796875 0 
L 37.25 0 
L 16.546875 60.9375 
L 16.546875 0 
z
" id="ArialMT-4d"/>
       <path d="M 3.328125 25.921875 
Q 3.328125 40.328125 11.328125 47.265625 
Q 18.015625 53.03125 27.640625 53.03125 
Q 38.328125 53.03125 45.109375 46.015625 
Q 51.90625 39.015625 51.90625 26.65625 
Q 51.90625 16.65625 48.90625 10.90625 
Q 45.90625 5.171875 40.15625 2 
Q 34.421875 -1.171875 27.640625 -1.171875 
Q 16.75 -1.171875 10.03125 5.8125 
Q 3.328125 12.796875 3.328125 25.921875 
M 12.359375 25.921875 
Q 12.359375 15.96875 16.703125 11.015625 
Q 21.046875 6.0625 27.640625 6.0625 
Q 34.1875 6.0625 38.53125 11.03125 
Q 42.875 16.015625 42.875 26.21875 
Q 42.875 35.84375 38.5 40.796875 
Q 34.125 45.75 27.640625 45.75 
Q 21.046875 45.75 16.703125 40.8125 
Q 12.359375 35.890625 12.359375 25.921875 
" id="ArialMT-6f"/>
      </defs>
      <g style="fill:#262626;" transform="translate(173.047408036 392.992125)scale(0.14 -0.14)">
       <use xlink:href="#ArialMT-4d"/>
       <use x="83.30078125" xlink:href="#ArialMT-6f"/>
       <use x="138.916015625" xlink:href="#ArialMT-6e"/>
       <use x="194.53125" xlink:href="#ArialMT-64"/>
       <use x="250.146484375" xlink:href="#ArialMT-61"/>
       <use x="305.76171875" xlink:href="#ArialMT-79"/>
      </g>
     </g>
    </g>
    <g id="xtick_3">
     <g id="line2d_5"/>
     <g id="line2d_6"/>
     <g id="text_3">
      <!-- Tuesday -->
      <defs>
       <path d="M 42.09375 16.703125 
L 51.171875 15.578125 
Q 49.03125 7.625 43.21875 3.21875 
Q 37.40625 -1.171875 28.375 -1.171875 
Q 17 -1.171875 10.328125 5.828125 
Q 3.65625 12.84375 3.65625 25.484375 
Q 3.65625 38.578125 10.390625 45.796875 
Q 17.140625 53.03125 27.875 53.03125 
Q 38.28125 53.03125 44.875 45.953125 
Q 51.46875 38.875 51.46875 26.03125 
Q 51.46875 25.25 51.421875 23.6875 
L 12.75 23.6875 
Q 13.234375 15.140625 17.578125 10.59375 
Q 21.921875 6.0625 28.421875 6.0625 
Q 33.25 6.0625 36.671875 8.59375 
Q 40.09375 11.140625 42.09375 16.703125 
M 13.234375 30.90625 
L 42.1875 30.90625 
Q 41.609375 37.453125 38.875 40.71875 
Q 34.671875 45.796875 27.984375 45.796875 
Q 21.921875 45.796875 17.796875 41.75 
Q 13.671875 37.703125 13.234375 30.90625 
" id="ArialMT-65"/>
       <path d="M 3.078125 15.484375 
L 11.765625 16.84375 
Q 12.5 11.625 15.84375 8.84375 
Q 19.1875 6.0625 25.203125 6.0625 
Q 31.25 6.0625 34.171875 8.515625 
Q 37.109375 10.984375 37.109375 14.3125 
Q 37.109375 17.28125 34.515625 19 
Q 32.71875 20.171875 25.53125 21.96875 
Q 15.875 24.421875 12.140625 26.203125 
Q 8.40625 27.984375 6.46875 31.125 
Q 4.546875 34.28125 4.546875 38.09375 
Q 4.546875 41.546875 6.125 44.5 
Q 7.71875 47.46875 10.453125 49.421875 
Q 12.5 50.921875 16.03125 51.96875 
Q 19.578125 53.03125 23.640625 53.03125 
Q 29.734375 53.03125 34.34375 51.265625 
Q 38.96875 49.515625 41.15625 46.5 
Q 43.359375 43.5 44.1875 38.484375 
L 35.59375 37.3125 
Q 35.015625 41.3125 32.203125 43.546875 
Q 29.390625 45.796875 24.265625 45.796875 
Q 18.21875 45.796875 15.625 43.796875 
Q 13.03125 41.796875 13.03125 39.109375 
Q 13.03125 37.40625 14.109375 36.03125 
Q 15.1875 34.625 17.484375 33.6875 
Q 18.796875 33.203125 25.25 31.453125 
Q 34.578125 28.953125 38.25 27.359375 
Q 41.9375 25.78125 44.03125 22.75 
Q 46.140625 19.734375 46.140625 15.234375 
Q 46.140625 10.84375 43.578125 6.953125 
Q 41.015625 3.078125 36.171875 0.953125 
Q 31.34375 -1.171875 25.25 -1.171875 
Q 15.140625 -1.171875 9.84375 3.03125 
Q 4.546875 7.234375 3.078125 15.484375 
" id="ArialMT-73"/>
      </defs>
      <g style="fill:#262626;" transform="translate(266.763144643 392.992125)scale(0.14 -0.14)">
       <use xlink:href="#ArialMT-54"/>
       <use x="61.037109375" xlink:href="#ArialMT-75"/>
       <use x="116.65234375" xlink:href="#ArialMT-65"/>
       <use x="172.267578125" xlink:href="#ArialMT-73"/>
       <use x="222.267578125" xlink:href="#ArialMT-64"/>
       <use x="277.8828125" xlink:href="#ArialMT-61"/>
       <use x="333.498046875" xlink:href="#ArialMT-79"/>
      </g>
     </g>
    </g>
    <g id="xtick_4">
     <g id="line2d_7"/>
     <g id="line2d_8"/>
     <g id="text_4">
      <!-- Wednesday -->
      <defs>
       <path d="M 20.21875 0 
L 1.21875 71.578125 
L 10.9375 71.578125 
L 21.828125 24.65625 
Q 23.578125 17.28125 24.859375 10.015625 
Q 27.59375 21.484375 28.078125 23.25 
L 41.703125 71.578125 
L 53.125 71.578125 
L 63.375 35.359375 
Q 67.234375 21.875 68.953125 10.015625 
Q 70.3125 16.796875 72.515625 25.59375 
L 83.734375 71.578125 
L 93.265625 71.578125 
L 73.640625 0 
L 64.5 0 
L 49.421875 54.546875 
Q 47.515625 61.375 47.171875 62.9375 
Q 46.046875 58.015625 45.0625 54.546875 
L 29.890625 0 
z
" id="ArialMT-57"/>
      </defs>
      <g style="fill:#262626;" transform="translate(352.3009125 392.992125)scale(0.14 -0.14)">
       <use xlink:href="#ArialMT-57"/>
       <use x="94.369140625" xlink:href="#ArialMT-65"/>
       <use x="149.984375" xlink:href="#ArialMT-64"/>
       <use x="205.599609375" xlink:href="#ArialMT-6e"/>
       <use x="261.21484375" xlink:href="#ArialMT-65"/>
       <use x="316.830078125" xlink:href="#ArialMT-73"/>
       <use x="366.830078125" xlink:href="#ArialMT-64"/>
       <use x="422.4453125" xlink:href="#ArialMT-61"/>
       <use x="478.060546875" xlink:href="#ArialMT-79"/>
      </g>
     </g>
    </g>
    <g id="xtick_5">
     <g id="line2d_9"/>
     <g id="line2d_10"/>
     <g id="text_5">
      <!-- Thursday -->
      <defs>
       <path d="M 6.59375 0 
L 6.59375 71.578125 
L 15.375 71.578125 
L 15.375 45.90625 
Q 21.53125 53.03125 30.90625 53.03125 
Q 36.671875 53.03125 40.921875 50.75 
Q 45.171875 48.484375 47 44.484375 
Q 48.828125 40.484375 48.828125 32.859375 
L 48.828125 0 
L 40.046875 0 
L 40.046875 32.859375 
Q 40.046875 39.453125 37.1875 42.453125 
Q 34.328125 45.453125 29.109375 45.453125 
Q 25.203125 45.453125 21.75 43.421875 
Q 18.3125 41.40625 16.84375 37.9375 
Q 15.375 34.46875 15.375 28.375 
L 15.375 0 
z
" id="ArialMT-68"/>
       <path d="M 6.5 0 
L 6.5 51.859375 
L 14.40625 51.859375 
L 14.40625 44 
Q 17.4375 49.515625 20 51.265625 
Q 22.5625 53.03125 25.640625 53.03125 
Q 30.078125 53.03125 34.671875 50.203125 
L 31.640625 42.046875 
Q 28.421875 43.953125 25.203125 43.953125 
Q 22.3125 43.953125 20.015625 42.21875 
Q 17.71875 40.484375 16.75 37.40625 
Q 15.28125 32.71875 15.28125 27.15625 
L 15.28125 0 
z
" id="ArialMT-72"/>
      </defs>
      <g style="fill:#262626;" transform="translate(455.743367857 392.992125)scale(0.14 -0.14)">
       <use xlink:href="#ArialMT-54"/>
       <use x="61.083984375" xlink:href="#ArialMT-68"/>
       <use x="116.69921875" xlink:href="#ArialMT-75"/>
       <use x="172.314453125" xlink:href="#ArialMT-72"/>
       <use x="205.615234375" xlink:href="#ArialMT-73"/>
       <use x="255.615234375" xlink:href="#ArialMT-64"/>
       <use x="311.23046875" xlink:href="#ArialMT-61"/>
       <use x="366.845703125" xlink:href="#ArialMT-79"/>
      </g>
     </g>
    </g>
    <g id="xtick_6">
     <g id="line2d_11"/>
     <g id="line2d_12"/>
     <g id="text_6">
      <!-- Friday -->
      <defs>
       <path d="M 6.640625 61.46875 
L 6.640625 71.578125 
L 15.4375 71.578125 
L 15.4375 61.46875 
z
M 6.640625 0 
L 6.640625 51.859375 
L 15.4375 51.859375 
L 15.4375 0 
z
" id="ArialMT-69"/>
       <path d="M 8.203125 0 
L 8.203125 71.578125 
L 56.5 71.578125 
L 56.5 63.140625 
L 17.671875 63.140625 
L 17.671875 40.96875 
L 51.265625 40.96875 
L 51.265625 32.515625 
L 17.671875 32.515625 
L 17.671875 0 
z
" id="ArialMT-46"/>
      </defs>
      <g style="fill:#262626;" transform="translate(561.130510714 392.992125)scale(0.14 -0.14)">
       <use xlink:href="#ArialMT-46"/>
       <use x="61.083984375" xlink:href="#ArialMT-72"/>
       <use x="94.384765625" xlink:href="#ArialMT-69"/>
       <use x="116.6015625" xlink:href="#ArialMT-64"/>
       <use x="172.216796875" xlink:href="#ArialMT-61"/>
       <use x="227.83203125" xlink:href="#ArialMT-79"/>
      </g>
     </g>
    </g>
    <g id="xtick_7">
     <g id="line2d_13"/>
     <g id="line2d_14"/>
     <g id="text_7">
      <!-- Saturday -->
      <defs>
       <path d="M 25.78125 7.859375 
L 27.046875 0.09375 
Q 23.34375 -0.6875 20.40625 -0.6875 
Q 15.625 -0.6875 12.984375 0.828125 
Q 10.359375 2.34375 9.28125 4.8125 
Q 8.203125 7.28125 8.203125 15.1875 
L 8.203125 45.015625 
L 1.765625 45.015625 
L 1.765625 51.859375 
L 8.203125 51.859375 
L 8.203125 64.703125 
L 16.9375 69.96875 
L 16.9375 51.859375 
L 25.78125 51.859375 
L 25.78125 45.015625 
L 16.9375 45.015625 
L 16.9375 14.703125 
Q 16.9375 10.9375 17.40625 9.859375 
Q 17.875 8.796875 18.921875 8.15625 
Q 19.96875 7.515625 21.921875 7.515625 
Q 23.390625 7.515625 25.78125 7.859375 
" id="ArialMT-74"/>
      </defs>
      <g style="fill:#262626;" transform="translate(648.219216071 393.16275)scale(0.14 -0.14)">
       <use xlink:href="#ArialMT-53"/>
       <use x="66.69921875" xlink:href="#ArialMT-61"/>
       <use x="122.314453125" xlink:href="#ArialMT-74"/>
       <use x="150.09765625" xlink:href="#ArialMT-75"/>
       <use x="205.712890625" xlink:href="#ArialMT-72"/>
       <use x="239.013671875" xlink:href="#ArialMT-64"/>
       <use x="294.62890625" xlink:href="#ArialMT-61"/>
       <use x="350.244140625" xlink:href="#ArialMT-79"/>
      </g>
     </g>
    </g>
   </g>
   <g id="matplotlib.axis_2">
    <g id="ytick_1">
     <g id="line2d_15"/>
     <g id="line2d_16"/>
     <g id="text_8">
      <!-- 0.6 -->
      <defs>
       <path d="M 4.15625 35.296875 
Q 4.15625 48 6.765625 55.734375 
Q 9.375 63.484375 14.515625 67.671875 
Q 19.671875 71.875 27.484375 71.875 
Q 33.25 71.875 37.59375 69.546875 
Q 41.9375 67.234375 44.765625 62.859375 
Q 47.609375 58.5 49.21875 52.21875 
Q 50.828125 45.953125 50.828125 35.296875 
Q 50.828125 22.703125 48.234375 14.96875 
Q 45.65625 7.234375 40.5 3 
Q 35.359375 -1.21875 27.484375 -1.21875 
Q 17.140625 -1.21875 11.234375 6.203125 
Q 4.15625 15.140625 4.15625 35.296875 
M 13.1875 35.296875 
Q 13.1875 17.671875 17.3125 11.828125 
Q 21.4375 6 27.484375 6 
Q 33.546875 6 37.671875 11.859375 
Q 41.796875 17.71875 41.796875 35.296875 
Q 41.796875 52.984375 37.671875 58.78125 
Q 33.546875 64.59375 27.390625 64.59375 
Q 21.34375 64.59375 17.71875 59.46875 
Q 13.1875 52.9375 13.1875 35.296875 
" id="ArialMT-30"/>
       <path d="M 9.078125 0 
L 9.078125 10.015625 
L 19.09375 10.015625 
L 19.09375 0 
z
" id="ArialMT-2e"/>
       <path d="M 49.75 54.046875 
L 41.015625 53.375 
Q 39.84375 58.546875 37.703125 60.890625 
Q 34.125 64.65625 28.90625 64.65625 
Q 24.703125 64.65625 21.53125 62.3125 
Q 17.390625 59.28125 14.984375 53.46875 
Q 12.59375 47.65625 12.5 36.921875 
Q 15.671875 41.75 20.265625 44.09375 
Q 24.859375 46.4375 29.890625 46.4375 
Q 38.671875 46.4375 44.84375 39.96875 
Q 51.03125 33.5 51.03125 23.25 
Q 51.03125 16.5 48.125 10.71875 
Q 45.21875 4.9375 40.140625 1.859375 
Q 35.0625 -1.21875 28.609375 -1.21875 
Q 17.625 -1.21875 10.6875 6.859375 
Q 3.765625 14.9375 3.765625 33.5 
Q 3.765625 54.25 11.421875 63.671875 
Q 18.109375 71.875 29.4375 71.875 
Q 37.890625 71.875 43.28125 67.140625 
Q 48.6875 62.40625 49.75 54.046875 
M 13.875 23.1875 
Q 13.875 18.65625 15.796875 14.5 
Q 17.71875 10.359375 21.1875 8.171875 
Q 24.65625 6 28.46875 6 
Q 34.03125 6 38.03125 10.484375 
Q 42.046875 14.984375 42.046875 22.703125 
Q 42.046875 30.125 38.078125 34.390625 
Q 34.125 38.671875 28.125 38.671875 
Q 22.171875 38.671875 18.015625 34.390625 
Q 13.875 30.125 13.875 23.1875 
" id="ArialMT-36"/>
      </defs>
      <g style="fill:#262626;" transform="translate(28.0031 379.59040625)scale(0.14 -0.14)">
       <use xlink:href="#ArialMT-30"/>
       <use x="55.615234375" xlink:href="#ArialMT-2e"/>
       <use x="83.3984375" xlink:href="#ArialMT-36"/>
      </g>
     </g>
    </g>
    <g id="ytick_2">
     <g id="line2d_17"/>
     <g id="line2d_18"/>
     <g id="text_9">
      <!-- 0.8 -->
      <defs>
       <path d="M 17.671875 38.8125 
Q 12.203125 40.828125 9.5625 44.53125 
Q 6.9375 48.25 6.9375 53.421875 
Q 6.9375 61.234375 12.546875 66.546875 
Q 18.171875 71.875 27.484375 71.875 
Q 36.859375 71.875 42.578125 66.421875 
Q 48.296875 60.984375 48.296875 53.171875 
Q 48.296875 48.1875 45.671875 44.5 
Q 43.0625 40.828125 37.75 38.8125 
Q 44.34375 36.671875 47.78125 31.875 
Q 51.21875 27.09375 51.21875 20.453125 
Q 51.21875 11.28125 44.71875 5.03125 
Q 38.234375 -1.21875 27.640625 -1.21875 
Q 17.046875 -1.21875 10.546875 5.046875 
Q 4.046875 11.328125 4.046875 20.703125 
Q 4.046875 27.6875 7.59375 32.390625 
Q 11.140625 37.109375 17.671875 38.8125 
M 15.921875 53.71875 
Q 15.921875 48.640625 19.1875 45.40625 
Q 22.46875 42.1875 27.6875 42.1875 
Q 32.765625 42.1875 36.015625 45.375 
Q 39.265625 48.578125 39.265625 53.21875 
Q 39.265625 58.0625 35.90625 61.359375 
Q 32.5625 64.65625 27.59375 64.65625 
Q 22.5625 64.65625 19.234375 61.421875 
Q 15.921875 58.203125 15.921875 53.71875 
M 13.09375 20.65625 
Q 13.09375 16.890625 14.875 13.375 
Q 16.65625 9.859375 20.171875 7.921875 
Q 23.6875 6 27.734375 6 
Q 34.03125 6 38.125 10.046875 
Q 42.234375 14.109375 42.234375 20.359375 
Q 42.234375 26.703125 38.015625 30.859375 
Q 33.796875 35.015625 27.4375 35.015625 
Q 21.234375 35.015625 17.15625 30.90625 
Q 13.09375 26.8125 13.09375 20.65625 
" id="ArialMT-38"/>
      </defs>
      <g style="fill:#262626;" transform="translate(28.0031 323.79040625)scale(0.14 -0.14)">
       <use xlink:href="#ArialMT-30"/>
       <use x="55.615234375" xlink:href="#ArialMT-2e"/>
       <use x="83.3984375" xlink:href="#ArialMT-38"/>
      </g>
     </g>
    </g>
    <g id="ytick_3">
     <g id="line2d_19"/>
     <g id="line2d_20"/>
     <g id="text_10">
      <!-- 1.0 -->
      <defs>
       <path d="M 37.25 0 
L 28.46875 0 
L 28.46875 56 
Q 25.296875 52.984375 20.140625 49.953125 
Q 14.984375 46.921875 10.890625 45.40625 
L 10.890625 53.90625 
Q 18.265625 57.375 23.78125 62.296875 
Q 29.296875 67.234375 31.59375 71.875 
L 37.25 71.875 
z
" id="ArialMT-31"/>
      </defs>
      <g style="fill:#262626;" transform="translate(28.0031 267.99040625)scale(0.14 -0.14)">
       <use xlink:href="#ArialMT-31"/>
       <use x="55.615234375" xlink:href="#ArialMT-2e"/>
       <use x="83.3984375" xlink:href="#ArialMT-30"/>
      </g>
     </g>
    </g>
    <g id="ytick_4">
     <g id="line2d_21"/>
     <g id="line2d_22"/>
     <g id="text_11">
      <!-- 1.2 -->
      <defs>
       <path d="M 50.34375 8.453125 
L 50.34375 0 
L 3.03125 0 
Q 2.9375 3.171875 4.046875 6.109375 
Q 5.859375 10.9375 9.828125 15.625 
Q 13.8125 20.3125 21.34375 26.46875 
Q 33.015625 36.03125 37.109375 41.625 
Q 41.21875 47.21875 41.21875 52.203125 
Q 41.21875 57.421875 37.46875 61 
Q 33.734375 64.59375 27.734375 64.59375 
Q 21.390625 64.59375 17.578125 60.78125 
Q 13.765625 56.984375 13.71875 50.25 
L 4.6875 51.171875 
Q 5.609375 61.28125 11.65625 66.578125 
Q 17.71875 71.875 27.9375 71.875 
Q 38.234375 71.875 44.234375 66.15625 
Q 50.25 60.453125 50.25 52 
Q 50.25 47.703125 48.484375 43.546875 
Q 46.734375 39.40625 42.65625 34.8125 
Q 38.578125 30.21875 29.109375 22.21875 
Q 21.1875 15.578125 18.9375 13.203125 
Q 16.703125 10.84375 15.234375 8.453125 
z
" id="ArialMT-32"/>
      </defs>
      <g style="fill:#262626;" transform="translate(28.0031 212.19040625)scale(0.14 -0.14)">
       <use xlink:href="#ArialMT-31"/>
       <use x="55.615234375" xlink:href="#ArialMT-2e"/>
       <use x="83.3984375" xlink:href="#ArialMT-32"/>
      </g>
     </g>
    </g>
    <g id="ytick_5">
     <g id="line2d_23"/>
     <g id="line2d_24"/>
     <g id="text_12">
      <!-- 1.4 -->
      <defs>
       <path d="M 32.328125 0 
L 32.328125 17.140625 
L 1.265625 17.140625 
L 1.265625 25.203125 
L 33.9375 71.578125 
L 41.109375 71.578125 
L 41.109375 25.203125 
L 50.78125 25.203125 
L 50.78125 17.140625 
L 41.109375 17.140625 
L 41.109375 0 
z
M 32.328125 25.203125 
L 32.328125 57.46875 
L 9.90625 25.203125 
z
" id="ArialMT-34"/>
      </defs>
      <g style="fill:#262626;" transform="translate(28.0031 156.39040625)scale(0.14 -0.14)">
       <use xlink:href="#ArialMT-31"/>
       <use x="55.615234375" xlink:href="#ArialMT-2e"/>
       <use x="83.3984375" xlink:href="#ArialMT-34"/>
      </g>
     </g>
    </g>
    <g id="ytick_6">
     <g id="line2d_25"/>
     <g id="line2d_26"/>
     <g id="text_13">
      <!-- 1.6 -->
      <g style="fill:#262626;" transform="translate(28.0031 100.59040625)scale(0.14 -0.14)">
       <use xlink:href="#ArialMT-31"/>
       <use x="55.615234375" xlink:href="#ArialMT-2e"/>
       <use x="83.3984375" xlink:href="#ArialMT-36"/>
      </g>
     </g>
    </g>
    <g id="ytick_7">
     <g id="line2d_27"/>
     <g id="line2d_28"/>
     <g id="text_14">
      <!-- 1.8 -->
      <g style="fill:#262626;" transform="translate(28.0031 44.79040625)scale(0.14 -0.14)">
       <use xlink:href="#ArialMT-31"/>
       <use x="55.615234375" xlink:href="#ArialMT-2e"/>
       <use x="83.3984375" xlink:href="#ArialMT-38"/>
      </g>
     </g>
    </g>
    <g id="text_15">
     <!-- Accident Ratio: DST Week / Two Weeks After -->
     <defs>
      <path d="M 40.4375 19 
L 49.078125 17.875 
Q 47.65625 8.9375 41.8125 3.875 
Q 35.984375 -1.171875 27.484375 -1.171875 
Q 16.84375 -1.171875 10.375 5.78125 
Q 3.90625 12.75 3.90625 25.734375 
Q 3.90625 34.125 6.6875 40.421875 
Q 9.46875 46.734375 15.15625 49.875 
Q 20.84375 53.03125 27.546875 53.03125 
Q 35.984375 53.03125 41.359375 48.75 
Q 46.734375 44.484375 48.25 36.625 
L 39.703125 35.296875 
Q 38.484375 40.53125 35.375 43.15625 
Q 32.28125 45.796875 27.875 45.796875 
Q 21.234375 45.796875 17.078125 41.03125 
Q 12.9375 36.28125 12.9375 25.984375 
Q 12.9375 15.53125 16.9375 10.796875 
Q 20.953125 6.0625 27.390625 6.0625 
Q 32.5625 6.0625 36.03125 9.234375 
Q 39.5 12.40625 40.4375 19 
" id="ArialMT-63"/>
      <path d="M 7.859375 0 
L 7.859375 71.578125 
L 39.59375 71.578125 
Q 49.171875 71.578125 54.140625 69.640625 
Q 59.125 67.71875 62.109375 62.828125 
Q 65.09375 57.953125 65.09375 52.046875 
Q 65.09375 44.4375 60.15625 39.203125 
Q 55.21875 33.984375 44.921875 32.5625 
Q 48.6875 30.765625 50.640625 29 
Q 54.78125 25.203125 58.5 19.484375 
L 70.953125 0 
L 59.03125 0 
L 49.5625 14.890625 
Q 45.40625 21.34375 42.71875 24.75 
Q 40.046875 28.171875 37.921875 29.53125 
Q 35.796875 30.90625 33.59375 31.453125 
Q 31.984375 31.78125 28.328125 31.78125 
L 17.328125 31.78125 
L 17.328125 0 
z
M 17.328125 39.984375 
L 37.703125 39.984375 
Q 44.1875 39.984375 47.84375 41.328125 
Q 51.515625 42.671875 53.421875 45.625 
Q 55.328125 48.578125 55.328125 52.046875 
Q 55.328125 57.125 51.640625 60.390625 
Q 47.953125 63.671875 39.984375 63.671875 
L 17.328125 63.671875 
z
" id="ArialMT-52"/>
      <path d="M -0.140625 0 
L 27.34375 71.578125 
L 37.546875 71.578125 
L 66.84375 0 
L 56.0625 0 
L 47.703125 21.6875 
L 17.78125 21.6875 
L 9.90625 0 
z
M 20.515625 29.390625 
L 44.78125 29.390625 
L 37.3125 49.21875 
Q 33.890625 58.25 32.234375 64.0625 
Q 30.859375 57.171875 28.375 50.390625 
z
" id="ArialMT-41"/>
      <path d="M 0 -1.21875 
L 20.75 72.796875 
L 27.78125 72.796875 
L 7.078125 -1.21875 
z
" id="ArialMT-2f"/>
      <path d="M 16.15625 0 
L 0.296875 51.859375 
L 9.375 51.859375 
L 17.625 21.921875 
L 20.703125 10.796875 
Q 20.90625 11.625 23.390625 21.484375 
L 31.640625 51.859375 
L 40.671875 51.859375 
L 48.4375 21.78125 
L 51.03125 11.859375 
L 54 21.875 
L 62.890625 51.859375 
L 71.4375 51.859375 
L 55.21875 0 
L 46.09375 0 
L 37.84375 31.0625 
L 35.84375 39.890625 
L 25.34375 0 
z
" id="ArialMT-77"/>
      <path d="M 6.640625 0 
L 6.640625 71.578125 
L 15.4375 71.578125 
L 15.4375 30.765625 
L 36.234375 51.859375 
L 47.609375 51.859375 
L 27.78125 32.625 
L 49.609375 0 
L 38.765625 0 
L 21.625 26.515625 
L 15.4375 20.5625 
L 15.4375 0 
z
" id="ArialMT-6b"/>
      <path d="M 9.03125 41.84375 
L 9.03125 51.859375 
L 19.046875 51.859375 
L 19.046875 41.84375 
z
M 9.03125 0 
L 9.03125 10.015625 
L 19.046875 10.015625 
L 19.046875 0 
z
" id="ArialMT-3a"/>
      <path d="M 8.6875 0 
L 8.6875 45.015625 
L 0.921875 45.015625 
L 0.921875 51.859375 
L 8.6875 51.859375 
L 8.6875 57.375 
Q 8.6875 62.59375 9.625 65.140625 
Q 10.890625 68.5625 14.078125 70.671875 
Q 17.28125 72.796875 23.046875 72.796875 
Q 26.765625 72.796875 31.25 71.921875 
L 29.9375 64.265625 
Q 27.203125 64.75 24.75 64.75 
Q 20.75 64.75 19.09375 63.03125 
Q 17.4375 61.328125 17.4375 56.640625 
L 17.4375 51.859375 
L 27.546875 51.859375 
L 27.546875 45.015625 
L 17.4375 45.015625 
L 17.4375 0 
z
" id="ArialMT-66"/>
     </defs>
     <g style="fill:#262626;" transform="translate(19.5687 383.7971375)rotate(-90.0)scale(0.1728 -0.1728)">
      <use xlink:href="#ArialMT-41"/>
      <use x="66.69921875" xlink:href="#ArialMT-63"/>
      <use x="116.69921875" xlink:href="#ArialMT-63"/>
      <use x="166.69921875" xlink:href="#ArialMT-69"/>
      <use x="188.916015625" xlink:href="#ArialMT-64"/>
      <use x="244.53125" xlink:href="#ArialMT-65"/>
      <use x="300.146484375" xlink:href="#ArialMT-6e"/>
      <use x="355.76171875" xlink:href="#ArialMT-74"/>
      <use x="383.544921875" xlink:href="#ArialMT-20"/>
      <use x="411.328125" xlink:href="#ArialMT-52"/>
      <use x="483.544921875" xlink:href="#ArialMT-61"/>
      <use x="539.16015625" xlink:href="#ArialMT-74"/>
      <use x="566.943359375" xlink:href="#ArialMT-69"/>
      <use x="589.16015625" xlink:href="#ArialMT-6f"/>
      <use x="644.775390625" xlink:href="#ArialMT-3a"/>
      <use x="672.55859375" xlink:href="#ArialMT-20"/>
      <use x="700.341796875" xlink:href="#ArialMT-44"/>
      <use x="772.55859375" xlink:href="#ArialMT-53"/>
      <use x="839.2578125" xlink:href="#ArialMT-54"/>
      <use x="900.326171875" xlink:href="#ArialMT-20"/>
      <use x="928.109375" xlink:href="#ArialMT-57"/>
      <use x="1022.47851562" xlink:href="#ArialMT-65"/>
      <use x="1078.09375" xlink:href="#ArialMT-65"/>
      <use x="1133.70898438" xlink:href="#ArialMT-6b"/>
      <use x="1183.70898438" xlink:href="#ArialMT-20"/>
      <use x="1211.4921875" xlink:href="#ArialMT-2f"/>
      <use x="1239.27539062" xlink:href="#ArialMT-20"/>
      <use x="1267.04296875" xlink:href="#ArialMT-54"/>
      <use x="1328.04882812" xlink:href="#ArialMT-77"/>
      <use x="1400.265625" xlink:href="#ArialMT-6f"/>
      <use x="1455.88085938" xlink:href="#ArialMT-20"/>
      <use x="1483.6640625" xlink:href="#ArialMT-57"/>
      <use x="1578.03320312" xlink:href="#ArialMT-65"/>
      <use x="1633.6484375" xlink:href="#ArialMT-65"/>
      <use x="1689.26367188" xlink:href="#ArialMT-6b"/>
      <use x="1739.26367188" xlink:href="#ArialMT-73"/>
      <use x="1789.26367188" xlink:href="#ArialMT-20"/>
      <use x="1816.96875" xlink:href="#ArialMT-41"/>
      <use x="1883.66796875" xlink:href="#ArialMT-66"/>
      <use x="1911.45117188" xlink:href="#ArialMT-74"/>
      <use x="1939.234375" xlink:href="#ArialMT-65"/>
      <use x="1994.84960938" xlink:href="#ArialMT-72"/>
     </g>
    </g>
   </g>
   <g id="PolyCollection_1">
    <defs>
     <path d="M 104.197335 -49.953898 
L 100.386008 -49.953898 
L 100.19211 -51.486903 
L 99.995879 -53.019907 
L 99.79938 -54.552911 
L 99.604495 -56.085915 
L 99.412768 -57.618919 
L 99.225255 -59.151924 
L 99.042375 -60.684928 
L 98.863782 -62.217932 
L 98.68826 -63.750936 
L 98.513659 -65.283941 
L 98.336866 -66.816945 
L 98.153841 -68.349949 
L 97.959682 -69.882953 
L 97.748768 -71.415958 
L 97.514924 -72.948962 
L 97.25165 -74.481966 
L 96.952373 -76.01497 
L 96.610717 -77.547974 
L 96.220793 -79.080979 
L 95.777469 -80.613983 
L 95.276634 -82.146987 
L 94.71542 -83.679991 
L 94.092387 -85.212996 
L 93.407644 -86.746 
L 92.662927 -88.279004 
L 91.861598 -89.812008 
L 91.008596 -91.345012 
L 90.11032 -92.878017 
L 89.174463 -94.411021 
L 88.209804 -95.944025 
L 87.225962 -97.477029 
L 86.233136 -99.010034 
L 85.24182 -100.543038 
L 84.262536 -102.076042 
L 83.305565 -103.609046 
L 82.380708 -105.142051 
L 81.497069 -106.675055 
L 80.662878 -108.208059 
L 79.885351 -109.741063 
L 79.170593 -111.274067 
L 78.523542 -112.807072 
L 77.947957 -114.340076 
L 77.446444 -115.87308 
L 77.020517 -117.406084 
L 76.670692 -118.939089 
L 76.396603 -120.472093 
L 76.197141 -122.005097 
L 76.070602 -123.538101 
L 76.014839 -125.071106 
L 76.02741 -126.60411 
L 76.105716 -128.137114 
L 76.247124 -129.670118 
L 76.449063 -131.203122 
L 76.709093 -132.736127 
L 77.024946 -134.269131 
L 77.394528 -135.802135 
L 77.815899 -137.335139 
L 78.287217 -138.868144 
L 78.806658 -140.401148 
L 79.37232 -141.934152 
L 79.982117 -143.467156 
L 80.633664 -145.00016 
L 81.324174 -146.533165 
L 82.05037 -148.066169 
L 82.808416 -149.599173 
L 83.593883 -151.132177 
L 84.401742 -152.665182 
L 85.226409 -154.198186 
L 86.061816 -155.73119 
L 86.901526 -157.264194 
L 87.738887 -158.797199 
L 88.5672 -160.330203 
L 89.37992 -161.863207 
L 90.170852 -163.396211 
L 90.934354 -164.929215 
L 91.66552 -166.46222 
L 92.360334 -167.995224 
L 93.015797 -169.528228 
L 93.629998 -171.061232 
L 94.202146 -172.594237 
L 94.732545 -174.127241 
L 95.222518 -175.660245 
L 95.674288 -177.193249 
L 96.090819 -178.726254 
L 96.475629 -180.259258 
L 96.832579 -181.792262 
L 97.165671 -183.325266 
L 97.478839 -184.85827 
L 97.775768 -186.391275 
L 98.059738 -187.924279 
L 98.333505 -189.457283 
L 98.599226 -190.990287 
L 98.858416 -192.523292 
L 99.111961 -194.056296 
L 99.360154 -195.5893 
L 99.602769 -197.122304 
L 99.839156 -198.655308 
L 100.06835 -200.188313 
L 100.289191 -201.721317 
L 104.294152 -201.721317 
L 104.294152 -201.721317 
L 104.514993 -200.188313 
L 104.744187 -198.655308 
L 104.980574 -197.122304 
L 105.223189 -195.5893 
L 105.471381 -194.056296 
L 105.724927 -192.523292 
L 105.984117 -190.990287 
L 106.249838 -189.457283 
L 106.523605 -187.924279 
L 106.807575 -186.391275 
L 107.104504 -184.85827 
L 107.417672 -183.325266 
L 107.750764 -181.792262 
L 108.107714 -180.259258 
L 108.492523 -178.726254 
L 108.909055 -177.193249 
L 109.360825 -175.660245 
L 109.850798 -174.127241 
L 110.381196 -172.594237 
L 110.953345 -171.061232 
L 111.567546 -169.528228 
L 112.223009 -167.995224 
L 112.917823 -166.46222 
L 113.648989 -164.929215 
L 114.412491 -163.396211 
L 115.203423 -161.863207 
L 116.016143 -160.330203 
L 116.844456 -158.797199 
L 117.681817 -157.264194 
L 118.521527 -155.73119 
L 119.356934 -154.198186 
L 120.1816 -152.665182 
L 120.98946 -151.132177 
L 121.774926 -149.599173 
L 122.532973 -148.066169 
L 123.259169 -146.533165 
L 123.949679 -145.00016 
L 124.601226 -143.467156 
L 125.211022 -141.934152 
L 125.776685 -140.401148 
L 126.296126 -138.868144 
L 126.767444 -137.335139 
L 127.188815 -135.802135 
L 127.558397 -134.269131 
L 127.87425 -132.736127 
L 128.13428 -131.203122 
L 128.336219 -129.670118 
L 128.477627 -128.137114 
L 128.555933 -126.60411 
L 128.568503 -125.071106 
L 128.51274 -123.538101 
L 128.386202 -122.005097 
L 128.18674 -120.472093 
L 127.912651 -118.939089 
L 127.562826 -117.406084 
L 127.136899 -115.87308 
L 126.635386 -114.340076 
L 126.059801 -112.807072 
L 125.41275 -111.274067 
L 124.697992 -109.741063 
L 123.920465 -108.208059 
L 123.086273 -106.675055 
L 122.202634 -105.142051 
L 121.277777 -103.609046 
L 120.320807 -102.076042 
L 119.341523 -100.543038 
L 118.350207 -99.010034 
L 117.357381 -97.477029 
L 116.373539 -95.944025 
L 115.40888 -94.411021 
L 114.473023 -92.878017 
L 113.574747 -91.345012 
L 112.721745 -89.812008 
L 111.920416 -88.279004 
L 111.175699 -86.746 
L 110.490956 -85.212996 
L 109.867922 -83.679991 
L 109.306709 -82.146987 
L 108.805874 -80.613983 
L 108.36255 -79.080979 
L 107.972626 -77.547974 
L 107.63097 -76.01497 
L 107.331693 -74.481966 
L 107.068419 -72.948962 
L 106.834575 -71.415958 
L 106.62366 -69.882953 
L 106.429502 -68.349949 
L 106.246477 -66.816945 
L 106.069684 -65.283941 
L 105.895082 -63.750936 
L 105.719561 -62.217932 
L 105.540968 -60.684928 
L 105.358088 -59.151924 
L 105.170575 -57.618919 
L 104.978848 -56.085915 
L 104.783962 -54.552911 
L 104.587464 -53.019907 
L 104.391233 -51.486903 
L 104.197335 -49.953898 
z
" id="m8b7f6aec50" style="stroke:#474747;stroke-width:2.0;"/>
    </defs>
    <g clip-path="url(#pa964ed5bc5)">
     <use style="fill:#ea96a3;stroke:#474747;stroke-width:2.0;" x="0.0" xlink:href="#m8b7f6aec50" y="403.3093125"/>
    </g>
   </g>
   <g id="PolyCollection_2">
    <defs>
     <path d="M 200.804499 -97.087616 
L 195.09313 -97.087616 
L 194.736 -98.418764 
L 194.352059 -99.749911 
L 193.941223 -101.081059 
L 193.503502 -102.412206 
L 193.038979 -103.743354 
L 192.547788 -105.074501 
L 192.030109 -106.405649 
L 191.486166 -107.736796 
L 190.916239 -109.067943 
L 190.320692 -110.399091 
L 189.700015 -111.730238 
L 189.054878 -113.061386 
L 188.386196 -114.392533 
L 187.695204 -115.723681 
L 186.98353 -117.054828 
L 186.253266 -118.385976 
L 185.507027 -119.717123 
L 184.74799 -121.048271 
L 183.979917 -122.379418 
L 183.207133 -123.710566 
L 182.43449 -125.041713 
L 181.667276 -126.372861 
L 180.911107 -127.704008 
L 180.171775 -129.035156 
L 179.455074 -130.366303 
L 178.766611 -131.69745 
L 178.111605 -133.028598 
L 177.494691 -134.359745 
L 176.919731 -135.690893 
L 176.389661 -137.02204 
L 175.906369 -138.353188 
L 175.470613 -139.684335 
L 175.081999 -141.015483 
L 174.739012 -142.34663 
L 174.439097 -143.677778 
L 174.178804 -145.008925 
L 173.953976 -146.340073 
L 173.759976 -147.67122 
L 173.59195 -149.002368 
L 173.4451 -150.333515 
L 173.314969 -151.664663 
L 173.197705 -152.99581 
L 173.090311 -154.326957 
L 172.990848 -155.658105 
L 172.898596 -156.989252 
L 172.814152 -158.3204 
L 172.739465 -159.651547 
L 172.677805 -160.982695 
L 172.633656 -162.313842 
L 172.612555 -163.64499 
L 172.620863 -164.976137 
L 172.665492 -166.307285 
L 172.753589 -167.638432 
L 172.892206 -168.96958 
L 173.087956 -170.300727 
L 173.346676 -171.631875 
L 173.67312 -172.963022 
L 174.070688 -174.29417 
L 174.541206 -175.625317 
L 175.084773 -176.956464 
L 175.699672 -178.287612 
L 176.382366 -179.618759 
L 177.12756 -180.949907 
L 177.928337 -182.281054 
L 178.776368 -183.612202 
L 179.662166 -184.943349 
L 180.575393 -186.274497 
L 181.505196 -187.605644 
L 182.440558 -188.936792 
L 183.370644 -190.267939 
L 184.285142 -191.599087 
L 185.174563 -192.930234 
L 186.03051 -194.261382 
L 186.845892 -195.592529 
L 187.615075 -196.923676 
L 188.33398 -198.254824 
L 189.000112 -199.585971 
L 189.612524 -200.917119 
L 190.171731 -202.248266 
L 190.679569 -203.579414 
L 191.139008 -204.910561 
L 191.553945 -206.241709 
L 191.928961 -207.572856 
L 192.269087 -208.904004 
L 192.579556 -210.235151 
L 192.865579 -211.566299 
L 193.132138 -212.897446 
L 193.38381 -214.228594 
L 193.624628 -215.559741 
L 193.85798 -216.890889 
L 194.086543 -218.222036 
L 194.312269 -219.553183 
L 194.536391 -220.884331 
L 194.759474 -222.215478 
L 194.981487 -223.546626 
L 195.201895 -224.877773 
L 195.419768 -226.208921 
L 195.633888 -227.540068 
L 195.842864 -228.871216 
L 200.054765 -228.871216 
L 200.054765 -228.871216 
L 200.26374 -227.540068 
L 200.47786 -226.208921 
L 200.695733 -224.877773 
L 200.916142 -223.546626 
L 201.138155 -222.215478 
L 201.361238 -220.884331 
L 201.585359 -219.553183 
L 201.811085 -218.222036 
L 202.039649 -216.890889 
L 202.273 -215.559741 
L 202.513819 -214.228594 
L 202.765491 -212.897446 
L 203.03205 -211.566299 
L 203.318072 -210.235151 
L 203.628542 -208.904004 
L 203.968668 -207.572856 
L 204.343684 -206.241709 
L 204.75862 -204.910561 
L 205.21806 -203.579414 
L 205.725897 -202.248266 
L 206.285105 -200.917119 
L 206.897517 -199.585971 
L 207.563649 -198.254824 
L 208.282554 -196.923676 
L 209.051737 -195.592529 
L 209.867118 -194.261382 
L 210.723066 -192.930234 
L 211.612487 -191.599087 
L 212.526984 -190.267939 
L 213.457071 -188.936792 
L 214.392432 -187.605644 
L 215.322236 -186.274497 
L 216.235463 -184.943349 
L 217.12126 -183.612202 
L 217.969291 -182.281054 
L 218.770069 -180.949907 
L 219.515262 -179.618759 
L 220.197957 -178.287612 
L 220.812856 -176.956464 
L 221.356422 -175.625317 
L 221.82694 -174.29417 
L 222.224508 -172.963022 
L 222.550953 -171.631875 
L 222.809673 -170.300727 
L 223.005423 -168.96958 
L 223.14404 -167.638432 
L 223.232137 -166.307285 
L 223.276765 -164.976137 
L 223.285073 -163.64499 
L 223.263973 -162.313842 
L 223.219824 -160.982695 
L 223.158163 -159.651547 
L 223.083477 -158.3204 
L 222.999032 -156.989252 
L 222.90678 -155.658105 
L 222.807317 -154.326957 
L 222.699923 -152.99581 
L 222.582659 -151.664663 
L 222.452528 -150.333515 
L 222.305679 -149.002368 
L 222.137652 -147.67122 
L 221.943652 -146.340073 
L 221.718824 -145.008925 
L 221.458531 -143.677778 
L 221.158617 -142.34663 
L 220.815629 -141.015483 
L 220.427016 -139.684335 
L 219.99126 -138.353188 
L 219.507967 -137.02204 
L 218.977898 -135.690893 
L 218.402938 -134.359745 
L 217.786023 -133.028598 
L 217.131018 -131.69745 
L 216.442555 -130.366303 
L 215.725854 -129.035156 
L 214.986521 -127.704008 
L 214.230352 -126.372861 
L 213.463139 -125.041713 
L 212.690495 -123.710566 
L 211.917712 -122.379418 
L 211.149638 -121.048271 
L 210.390602 -119.717123 
L 209.644362 -118.385976 
L 208.914098 -117.054828 
L 208.202424 -115.723681 
L 207.511432 -114.392533 
L 206.84275 -113.061386 
L 206.197613 -111.730238 
L 205.576936 -110.399091 
L 204.981389 -109.067943 
L 204.411462 -107.736796 
L 203.867519 -106.405649 
L 203.349841 -105.074501 
L 202.85865 -103.743354 
L 202.394126 -102.412206 
L 201.956406 -101.081059 
L 201.54557 -99.749911 
L 201.161629 -98.418764 
L 200.804499 -97.087616 
z
" id="m2e248e0db3" style="stroke:#474747;stroke-width:2.0;"/>
    </defs>
    <g clip-path="url(#pa964ed5bc5)">
     <use style="fill:#c29a4b;stroke:#474747;stroke-width:2.0;" x="0.0" xlink:href="#m2e248e0db3" y="403.3093125"/>
    </g>
   </g>
   <g id="PolyCollection_3">
    <defs>
     <path d="M 298.545981 -102.352543 
L 288.665933 -102.352543 
L 288.038618 -104.320663 
L 287.370613 -106.288783 
L 286.663705 -108.256904 
L 285.919855 -110.225024 
L 285.14109 -112.193144 
L 284.329418 -114.161264 
L 283.486774 -116.129384 
L 282.615006 -118.097504 
L 281.715917 -120.065624 
L 280.791362 -122.033744 
L 279.8434 -124.001865 
L 278.874495 -125.969985 
L 277.887759 -127.938105 
L 276.887203 -129.906225 
L 275.877988 -131.874345 
L 274.866647 -133.842465 
L 273.861246 -135.810585 
L 272.871465 -137.778705 
L 271.908579 -139.746825 
L 270.985329 -141.714946 
L 270.115667 -143.683066 
L 269.314395 -145.651186 
L 268.596697 -147.619306 
L 267.977597 -149.587426 
L 267.471367 -151.555546 
L 267.090926 -153.523666 
L 266.847255 -155.491786 
L 266.748878 -157.459907 
L 266.80144 -159.428027 
L 267.007394 -161.396147 
L 267.365843 -163.364267 
L 267.872519 -165.332387 
L 268.519917 -167.300507 
L 269.297569 -169.268627 
L 270.192432 -171.236747 
L 271.189375 -173.204868 
L 272.271731 -175.172988 
L 273.421878 -177.141108 
L 274.621821 -179.109228 
L 275.853748 -181.077348 
L 277.100527 -183.045468 
L 278.346132 -185.013588 
L 279.575983 -186.981708 
L 280.777193 -188.949828 
L 281.938719 -190.917949 
L 283.051434 -192.886069 
L 284.108111 -194.854189 
L 285.10335 -196.822309 
L 286.033447 -198.790429 
L 286.896231 -200.758549 
L 287.690876 -202.726669 
L 288.417705 -204.694789 
L 289.077985 -206.66291 
L 289.673739 -208.63103 
L 290.20757 -210.59915 
L 290.682492 -212.56727 
L 291.101795 -214.53539 
L 291.468913 -216.50351 
L 291.787327 -218.47163 
L 292.060474 -220.43975 
L 292.291679 -222.407871 
L 292.484101 -224.375991 
L 292.640699 -226.344111 
L 292.764203 -228.312231 
L 292.85711 -230.280351 
L 292.921688 -232.248471 
L 292.959991 -234.216591 
L 292.973894 -236.184711 
L 292.965127 -238.152832 
L 292.935328 -240.120952 
L 292.886101 -242.089072 
L 292.819065 -244.057192 
L 292.735925 -246.025312 
L 292.638512 -247.993432 
L 292.528837 -249.961552 
L 292.40912 -251.929672 
L 292.281809 -253.897792 
L 292.149572 -255.865913 
L 292.015284 -257.834033 
L 291.881975 -259.802153 
L 291.752778 -261.770273 
L 291.63084 -263.738393 
L 291.519239 -265.706513 
L 291.42088 -267.674633 
L 291.33839 -269.642753 
L 291.274026 -271.610874 
L 291.229583 -273.578994 
L 291.206323 -275.547114 
L 291.204923 -277.515234 
L 291.225452 -279.483354 
L 291.26737 -281.451474 
L 291.329552 -283.419594 
L 291.410348 -285.387714 
L 291.507649 -287.355835 
L 291.618986 -289.323955 
L 291.741634 -291.292075 
L 291.87272 -293.260195 
L 292.009337 -295.228315 
L 292.148647 -297.196435 
L 295.063267 -297.196435 
L 295.063267 -297.196435 
L 295.202577 -295.228315 
L 295.339194 -293.260195 
L 295.47028 -291.292075 
L 295.592928 -289.323955 
L 295.704266 -287.355835 
L 295.801567 -285.387714 
L 295.882362 -283.419594 
L 295.944545 -281.451474 
L 295.986462 -279.483354 
L 296.006991 -277.515234 
L 296.005592 -275.547114 
L 295.982331 -273.578994 
L 295.937888 -271.610874 
L 295.873524 -269.642753 
L 295.791035 -267.674633 
L 295.692675 -265.706513 
L 295.581074 -263.738393 
L 295.459137 -261.770273 
L 295.329939 -259.802153 
L 295.196631 -257.834033 
L 295.062342 -255.865913 
L 294.930105 -253.897792 
L 294.802794 -251.929672 
L 294.683078 -249.961552 
L 294.573403 -247.993432 
L 294.47599 -246.025312 
L 294.392849 -244.057192 
L 294.325814 -242.089072 
L 294.276586 -240.120952 
L 294.246788 -238.152832 
L 294.23802 -236.184711 
L 294.251923 -234.216591 
L 294.290227 -232.248471 
L 294.354804 -230.280351 
L 294.447712 -228.312231 
L 294.571216 -226.344111 
L 294.727813 -224.375991 
L 294.920236 -222.407871 
L 295.151441 -220.43975 
L 295.424587 -218.47163 
L 295.743001 -216.50351 
L 296.11012 -214.53539 
L 296.529422 -212.56727 
L 297.004344 -210.59915 
L 297.538175 -208.63103 
L 298.13393 -206.66291 
L 298.794209 -204.694789 
L 299.521038 -202.726669 
L 300.315684 -200.758549 
L 301.178467 -198.790429 
L 302.108564 -196.822309 
L 303.103803 -194.854189 
L 304.16048 -192.886069 
L 305.273195 -190.917949 
L 306.434722 -188.949828 
L 307.635931 -186.981708 
L 308.865782 -185.013588 
L 310.111387 -183.045468 
L 311.358166 -181.077348 
L 312.590094 -179.109228 
L 313.790037 -177.141108 
L 314.940183 -175.172988 
L 316.022539 -173.204868 
L 317.019482 -171.236747 
L 317.914345 -169.268627 
L 318.691997 -167.300507 
L 319.339396 -165.332387 
L 319.846072 -163.364267 
L 320.20452 -161.396147 
L 320.410475 -159.428027 
L 320.463036 -157.459907 
L 320.364659 -155.491786 
L 320.120988 -153.523666 
L 319.740547 -151.555546 
L 319.234318 -149.587426 
L 318.615217 -147.619306 
L 317.897519 -145.651186 
L 317.096247 -143.683066 
L 316.226586 -141.714946 
L 315.303336 -139.746825 
L 314.34045 -137.778705 
L 313.350668 -135.810585 
L 312.345267 -133.842465 
L 311.333926 -131.874345 
L 310.324712 -129.906225 
L 309.324155 -127.938105 
L 308.337419 -125.969985 
L 307.368515 -124.001865 
L 306.420552 -122.033744 
L 305.495997 -120.065624 
L 304.596908 -118.097504 
L 303.725141 -116.129384 
L 302.882496 -114.161264 
L 302.070824 -112.193144 
L 301.292059 -110.225024 
L 300.548209 -108.256904 
L 299.841302 -106.288783 
L 299.173297 -104.320663 
L 298.545981 -102.352543 
z
" id="m876bc08f4f" style="stroke:#474747;stroke-width:2.0;"/>
    </defs>
    <g clip-path="url(#pa964ed5bc5)">
     <use style="fill:#88a746;stroke:#474747;stroke-width:2.0;" x="0.0" xlink:href="#m876bc08f4f" y="403.3093125"/>
    </g>
   </g>
   <g id="PolyCollection_4">
    <defs>
     <path d="M 393.230238 -87.716582 
L 385.295962 -87.716582 
L 384.753299 -89.508391 
L 384.165375 -91.3002 
L 383.533092 -93.092009 
L 382.858162 -94.883818 
L 382.143154 -96.675627 
L 381.391515 -98.467436 
L 380.607573 -100.259245 
L 379.796509 -102.051054 
L 378.964308 -103.842863 
L 378.117678 -105.634673 
L 377.263939 -107.426482 
L 376.410891 -109.218291 
L 375.566659 -111.0101 
L 374.739518 -112.801909 
L 373.937698 -114.593718 
L 373.169198 -116.385527 
L 372.441581 -118.177336 
L 371.761791 -119.969145 
L 371.135977 -121.760954 
L 370.569341 -123.552764 
L 370.066018 -125.344573 
L 369.628983 -127.136382 
L 369.260006 -128.928191 
L 368.959639 -130.72 
L 368.727253 -132.511809 
L 368.561109 -134.303618 
L 368.458467 -136.095427 
L 368.415735 -137.887236 
L 368.428633 -139.679045 
L 368.492384 -141.470855 
L 368.60191 -143.262664 
L 368.752029 -145.054473 
L 368.937647 -146.846282 
L 369.153931 -148.638091 
L 369.396461 -150.4299 
L 369.661345 -152.221709 
L 369.94531 -154.013518 
L 370.245751 -155.805327 
L 370.560741 -157.597137 
L 370.889008 -159.388946 
L 371.229879 -161.180755 
L 371.583191 -162.972564 
L 371.949188 -164.764373 
L 372.328391 -166.556182 
L 372.72147 -168.347991 
L 373.129111 -170.1398 
L 373.551887 -171.931609 
L 373.990148 -173.723418 
L 374.443921 -175.515228 
L 374.912845 -177.307037 
L 375.396116 -179.098846 
L 375.892473 -180.890655 
L 376.4002 -182.682464 
L 376.917158 -184.474273 
L 377.44083 -186.266082 
L 377.968395 -188.057891 
L 378.496802 -189.8497 
L 379.022855 -191.641509 
L 379.543306 -193.433319 
L 380.054936 -195.225128 
L 380.554637 -197.016937 
L 381.039482 -198.808746 
L 381.506785 -200.600555 
L 381.954147 -202.392364 
L 382.379498 -204.184173 
L 382.781118 -205.975982 
L 383.157658 -207.767791 
L 383.508142 -209.559601 
L 383.831979 -211.35141 
L 384.128949 -213.143219 
L 384.399207 -214.935028 
L 384.643268 -216.726837 
L 384.861996 -218.518646 
L 385.056586 -220.310455 
L 385.228549 -222.102264 
L 385.379682 -223.894073 
L 385.512039 -225.685882 
L 385.627896 -227.477692 
L 385.729699 -229.269501 
L 385.820019 -231.06131 
L 385.90149 -232.853119 
L 385.976746 -234.644928 
L 386.048354 -236.436737 
L 386.118749 -238.228546 
L 386.190168 -240.020355 
L 386.264588 -241.812164 
L 386.343678 -243.603973 
L 386.428755 -245.395783 
L 386.520759 -247.187592 
L 386.620236 -248.979401 
L 386.727342 -250.77121 
L 386.841857 -252.563019 
L 386.963214 -254.354828 
L 387.090543 -256.146637 
L 387.222721 -257.938446 
L 387.358431 -259.730255 
L 387.496226 -261.522064 
L 387.63459 -263.313874 
L 387.772 -265.105683 
L 390.7542 -265.105683 
L 390.7542 -265.105683 
L 390.89161 -263.313874 
L 391.029974 -261.522064 
L 391.167769 -259.730255 
L 391.303479 -257.938446 
L 391.435657 -256.146637 
L 391.562986 -254.354828 
L 391.684343 -252.563019 
L 391.798858 -250.77121 
L 391.905964 -248.979401 
L 392.005441 -247.187592 
L 392.097445 -245.395783 
L 392.182522 -243.603973 
L 392.261612 -241.812164 
L 392.336032 -240.020355 
L 392.407451 -238.228546 
L 392.477846 -236.436737 
L 392.549454 -234.644928 
L 392.62471 -232.853119 
L 392.706181 -231.06131 
L 392.796501 -229.269501 
L 392.898304 -227.477692 
L 393.014161 -225.685882 
L 393.146518 -223.894073 
L 393.297651 -222.102264 
L 393.469614 -220.310455 
L 393.664204 -218.518646 
L 393.882932 -216.726837 
L 394.126993 -214.935028 
L 394.397251 -213.143219 
L 394.694221 -211.35141 
L 395.018058 -209.559601 
L 395.368542 -207.767791 
L 395.745082 -205.975982 
L 396.146702 -204.184173 
L 396.572053 -202.392364 
L 397.019415 -200.600555 
L 397.486718 -198.808746 
L 397.971563 -197.016937 
L 398.471264 -195.225128 
L 398.982894 -193.433319 
L 399.503345 -191.641509 
L 400.029398 -189.8497 
L 400.557805 -188.057891 
L 401.08537 -186.266082 
L 401.609042 -184.474273 
L 402.126 -182.682464 
L 402.633727 -180.890655 
L 403.130084 -179.098846 
L 403.613355 -177.307037 
L 404.082279 -175.515228 
L 404.536052 -173.723418 
L 404.974313 -171.931609 
L 405.397089 -170.1398 
L 405.80473 -168.347991 
L 406.197809 -166.556182 
L 406.577012 -164.764373 
L 406.943009 -162.972564 
L 407.296321 -161.180755 
L 407.637192 -159.388946 
L 407.965459 -157.597137 
L 408.280449 -155.805327 
L 408.58089 -154.013518 
L 408.864855 -152.221709 
L 409.129739 -150.4299 
L 409.372269 -148.638091 
L 409.588553 -146.846282 
L 409.774171 -145.054473 
L 409.92429 -143.262664 
L 410.033816 -141.470855 
L 410.097567 -139.679045 
L 410.110465 -137.887236 
L 410.067733 -136.095427 
L 409.965091 -134.303618 
L 409.798947 -132.511809 
L 409.566561 -130.72 
L 409.266194 -128.928191 
L 408.897217 -127.136382 
L 408.460182 -125.344573 
L 407.956859 -123.552764 
L 407.390223 -121.760954 
L 406.764409 -119.969145 
L 406.084619 -118.177336 
L 405.357002 -116.385527 
L 404.588502 -114.593718 
L 403.786682 -112.801909 
L 402.959541 -111.0101 
L 402.115309 -109.218291 
L 401.262261 -107.426482 
L 400.408522 -105.634673 
L 399.561892 -103.842863 
L 398.729691 -102.051054 
L 397.918627 -100.259245 
L 397.134685 -98.467436 
L 396.383046 -96.675627 
L 395.668038 -94.883818 
L 394.993108 -93.092009 
L 394.360825 -91.3002 
L 393.772901 -89.508391 
L 393.230238 -87.716582 
z
" id="m34f62ae773" style="stroke:#474747;stroke-width:2.0;"/>
    </defs>
    <g clip-path="url(#pa964ed5bc5)">
     <use style="fill:#4aad8f;stroke:#474747;stroke-width:2.0;" x="0.0" xlink:href="#m34f62ae773" y="403.3093125"/>
    </g>
   </g>
   <g id="PolyCollection_5">
    <defs>
     <path d="M 488.632698 -95.843663 
L 481.207788 -95.843663 
L 480.737106 -96.972293 
L 480.229129 -98.100923 
L 479.684032 -99.229553 
L 479.10244 -100.358183 
L 478.48546 -101.486813 
L 477.834699 -102.615442 
L 477.15227 -103.744072 
L 476.440787 -104.872702 
L 475.703346 -106.001332 
L 474.943487 -107.129962 
L 474.165139 -108.258592 
L 473.372549 -109.387222 
L 472.570187 -110.515852 
L 471.762635 -111.644482 
L 470.954469 -112.773112 
L 470.150119 -113.901742 
L 469.353727 -115.030372 
L 468.569006 -116.159002 
L 467.799105 -117.287632 
L 467.046488 -118.416262 
L 466.312838 -119.544892 
L 465.598989 -120.673522 
L 464.9049 -121.802152 
L 464.229664 -122.930782 
L 463.571578 -124.059412 
L 462.928245 -125.188042 
L 462.296739 -126.316672 
L 461.673802 -127.445302 
L 461.056082 -128.573932 
L 460.440396 -129.702562 
L 459.824009 -130.831192 
L 459.204908 -131.959822 
L 458.582069 -133.088452 
L 457.955691 -134.217082 
L 457.327383 -135.345712 
L 456.700303 -136.474342 
L 456.079223 -137.602972 
L 455.470524 -138.731602 
L 454.882114 -139.860232 
L 454.323266 -140.988862 
L 453.804389 -142.117492 
L 453.336723 -143.246122 
L 452.931991 -144.374752 
L 452.602005 -145.503381 
L 452.358242 -146.632011 
L 452.211426 -147.760641 
L 452.17111 -148.889271 
L 452.245287 -150.017901 
L 452.440049 -151.146531 
L 452.759301 -152.275161 
L 453.204545 -153.403791 
L 453.774743 -154.532421 
L 454.46626 -155.661051 
L 455.2729 -156.789681 
L 456.18602 -157.918311 
L 457.194719 -159.046941 
L 458.286113 -160.175571 
L 459.445657 -161.304201 
L 460.657525 -162.432831 
L 461.905021 -163.561461 
L 463.171022 -164.690091 
L 464.438415 -165.818721 
L 465.690535 -166.947351 
L 466.911586 -168.075981 
L 468.087016 -169.204611 
L 469.203861 -170.333241 
L 470.251029 -171.461871 
L 471.219523 -172.590501 
L 472.102601 -173.719131 
L 472.895861 -174.847761 
L 473.597266 -175.976391 
L 474.207093 -177.105021 
L 474.727816 -178.233651 
L 475.163937 -179.362281 
L 475.521758 -180.490911 
L 475.809112 -181.619541 
L 476.035055 -182.748171 
L 476.209541 -183.876801 
L 476.343079 -185.005431 
L 476.44639 -186.134061 
L 476.530072 -187.262691 
L 476.604288 -188.39132 
L 476.678483 -189.51995 
L 476.761136 -190.64858 
L 476.859562 -191.77721 
L 476.979763 -192.90584 
L 477.126327 -194.03447 
L 477.302386 -195.1631 
L 477.509629 -196.29173 
L 477.748357 -197.42036 
L 478.017586 -198.54899 
L 478.315191 -199.67762 
L 478.638072 -200.80625 
L 478.982347 -201.93488 
L 479.343556 -203.06351 
L 479.716864 -204.19214 
L 480.097264 -205.32077 
L 480.479765 -206.4494 
L 480.859557 -207.57803 
L 488.980929 -207.57803 
L 488.980929 -207.57803 
L 489.360721 -206.4494 
L 489.743221 -205.32077 
L 490.123622 -204.19214 
L 490.49693 -203.06351 
L 490.858139 -201.93488 
L 491.202414 -200.80625 
L 491.525295 -199.67762 
L 491.822899 -198.54899 
L 492.092129 -197.42036 
L 492.330856 -196.29173 
L 492.538099 -195.1631 
L 492.714159 -194.03447 
L 492.860722 -192.90584 
L 492.980923 -191.77721 
L 493.07935 -190.64858 
L 493.162003 -189.51995 
L 493.236198 -188.39132 
L 493.310414 -187.262691 
L 493.394096 -186.134061 
L 493.497406 -185.005431 
L 493.630945 -183.876801 
L 493.805431 -182.748171 
L 494.031374 -181.619541 
L 494.318727 -180.490911 
L 494.676549 -179.362281 
L 495.11267 -178.233651 
L 495.633393 -177.105021 
L 496.243219 -175.976391 
L 496.944625 -174.847761 
L 497.737885 -173.719131 
L 498.620962 -172.590501 
L 499.589457 -171.461871 
L 500.636625 -170.333241 
L 501.75347 -169.204611 
L 502.9289 -168.075981 
L 504.14995 -166.947351 
L 505.402071 -165.818721 
L 506.669464 -164.690091 
L 507.935464 -163.561461 
L 509.182961 -162.432831 
L 510.394828 -161.304201 
L 511.554372 -160.175571 
L 512.645767 -159.046941 
L 513.654466 -157.918311 
L 514.567585 -156.789681 
L 515.374226 -155.661051 
L 516.065743 -154.532421 
L 516.63594 -153.403791 
L 517.081184 -152.275161 
L 517.400436 -151.146531 
L 517.595198 -150.017901 
L 517.669375 -148.889271 
L 517.629059 -147.760641 
L 517.482244 -146.632011 
L 517.238481 -145.503381 
L 516.908494 -144.374752 
L 516.503763 -143.246122 
L 516.036097 -142.117492 
L 515.51722 -140.988862 
L 514.958372 -139.860232 
L 514.369962 -138.731602 
L 513.761262 -137.602972 
L 513.140182 -136.474342 
L 512.513102 -135.345712 
L 511.884795 -134.217082 
L 511.258417 -133.088452 
L 510.635578 -131.959822 
L 510.016477 -130.831192 
L 509.40009 -129.702562 
L 508.784404 -128.573932 
L 508.166684 -127.445302 
L 507.543746 -126.316672 
L 506.912241 -125.188042 
L 506.268908 -124.059412 
L 505.610821 -122.930782 
L 504.935586 -121.802152 
L 504.241497 -120.673522 
L 503.527648 -119.544892 
L 502.793998 -118.416262 
L 502.041381 -117.287632 
L 501.27148 -116.159002 
L 500.486758 -115.030372 
L 499.690366 -113.901742 
L 498.886016 -112.773112 
L 498.077851 -111.644482 
L 497.270299 -110.515852 
L 496.467936 -109.387222 
L 495.675346 -108.258592 
L 494.896999 -107.129962 
L 494.13714 -106.001332 
L 493.399699 -104.872702 
L 492.688216 -103.744072 
L 492.005787 -102.615442 
L 491.355026 -101.486813 
L 490.738046 -100.358183 
L 490.156454 -99.229553 
L 489.611356 -98.100923 
L 489.10338 -96.972293 
L 488.632698 -95.843663 
z
" id="m29971ee8bd" style="stroke:#474747;stroke-width:2.0;"/>
    </defs>
    <g clip-path="url(#pa964ed5bc5)">
     <use style="fill:#4eabb8;stroke:#474747;stroke-width:2.0;" x="0.0" xlink:href="#m29971ee8bd" y="403.3093125"/>
    </g>
   </g>
   <g id="PolyCollection_6">
    <defs>
     <path d="M 586.932476 -99.042093 
L 574.222295 -99.042093 
L 573.620433 -99.970276 
L 573.005286 -100.898459 
L 572.382656 -101.826643 
L 571.758807 -102.754826 
L 571.140328 -103.683009 
L 570.533961 -104.611193 
L 569.946423 -105.539376 
L 569.384202 -106.467559 
L 568.853356 -107.395742 
L 568.359307 -108.323926 
L 567.906645 -109.252109 
L 567.498945 -110.180292 
L 567.138609 -111.108476 
L 566.826737 -112.036659 
L 566.563028 -112.964842 
L 566.345728 -113.893026 
L 566.171608 -114.821209 
L 566.035998 -115.749392 
L 565.932852 -116.677576 
L 565.854866 -117.605759 
L 565.79362 -118.533942 
L 565.739769 -119.462126 
L 565.683252 -120.390309 
L 565.613535 -121.318492 
L 565.519856 -122.246675 
L 565.391502 -123.174859 
L 565.21807 -124.103042 
L 564.98974 -125.031225 
L 564.697537 -125.959409 
L 564.333579 -126.887592 
L 563.891308 -127.815775 
L 563.365696 -128.743959 
L 562.753428 -129.672142 
L 562.053047 -130.600325 
L 561.265067 -131.528509 
L 560.392045 -132.456692 
L 559.438608 -133.384875 
L 558.411441 -134.313059 
L 557.319215 -135.241242 
L 556.172478 -136.169425 
L 554.983491 -137.097608 
L 553.766015 -138.025792 
L 552.535054 -138.953975 
L 551.306562 -139.882158 
L 550.097108 -140.810342 
L 548.923519 -141.738525 
L 547.802506 -142.666708 
L 546.750278 -143.594892 
L 545.782168 -144.523075 
L 544.912271 -145.451258 
L 544.153113 -146.379442 
L 543.515355 -147.307625 
L 543.007556 -148.235808 
L 542.635986 -149.163992 
L 542.404507 -150.092175 
L 542.314529 -151.020358 
L 542.365026 -151.948541 
L 542.552632 -152.876725 
L 542.871795 -153.804908 
L 543.314993 -154.733091 
L 543.873001 -155.661275 
L 544.535197 -156.589458 
L 545.289891 -157.517641 
L 546.124683 -158.445825 
L 547.026807 -159.374008 
L 547.983476 -160.302191 
L 548.982208 -161.230375 
L 550.011109 -162.158558 
L 551.059132 -163.086741 
L 552.116279 -164.014925 
L 553.173755 -164.943108 
L 554.224075 -165.871291 
L 555.261113 -166.799474 
L 556.280098 -167.727658 
L 557.277576 -168.655841 
L 558.251312 -169.584024 
L 559.200176 -170.512208 
L 560.123985 -171.440391 
L 561.023337 -172.368574 
L 561.899428 -173.296758 
L 562.753868 -174.224941 
L 563.588498 -175.153124 
L 564.405225 -176.081308 
L 565.205865 -177.009491 
L 565.992015 -177.937674 
L 566.764951 -178.865858 
L 567.525544 -179.794041 
L 568.274219 -180.722224 
L 569.010931 -181.650407 
L 569.735171 -182.578591 
L 570.446 -183.506774 
L 571.142098 -184.434957 
L 571.821831 -185.363141 
L 572.483334 -186.291324 
L 573.124596 -187.219507 
L 573.743549 -188.147691 
L 574.33816 -189.075874 
L 574.906509 -190.004057 
L 575.446869 -190.932241 
L 585.707902 -190.932241 
L 585.707902 -190.932241 
L 586.248262 -190.004057 
L 586.816612 -189.075874 
L 587.411222 -188.147691 
L 588.030175 -187.219507 
L 588.671437 -186.291324 
L 589.33294 -185.363141 
L 590.012673 -184.434957 
L 590.708771 -183.506774 
L 591.4196 -182.578591 
L 592.143841 -181.650407 
L 592.880552 -180.722224 
L 593.629227 -179.794041 
L 594.389821 -178.865858 
L 595.162756 -177.937674 
L 595.948907 -177.009491 
L 596.749547 -176.081308 
L 597.566273 -175.153124 
L 598.400904 -174.224941 
L 599.255343 -173.296758 
L 600.131434 -172.368574 
L 601.030786 -171.440391 
L 601.954595 -170.512208 
L 602.903459 -169.584024 
L 603.877196 -168.655841 
L 604.874673 -167.727658 
L 605.893659 -166.799474 
L 606.930696 -165.871291 
L 607.981016 -164.943108 
L 609.038493 -164.014925 
L 610.095639 -163.086741 
L 611.143662 -162.158558 
L 612.172564 -161.230375 
L 613.171295 -160.302191 
L 614.127965 -159.374008 
L 615.030088 -158.445825 
L 615.86488 -157.517641 
L 616.619575 -156.589458 
L 617.28177 -155.661275 
L 617.839778 -154.733091 
L 618.282977 -153.804908 
L 618.60214 -152.876725 
L 618.789746 -151.948541 
L 618.840243 -151.020358 
L 618.750264 -150.092175 
L 618.518786 -149.163992 
L 618.147215 -148.235808 
L 617.639416 -147.307625 
L 617.001658 -146.379442 
L 616.2425 -145.451258 
L 615.372604 -144.523075 
L 614.404494 -143.594892 
L 613.352265 -142.666708 
L 612.231252 -141.738525 
L 611.057663 -140.810342 
L 609.848209 -139.882158 
L 608.619718 -138.953975 
L 607.388757 -138.025792 
L 606.17128 -137.097608 
L 604.982293 -136.169425 
L 603.835557 -135.241242 
L 602.743331 -134.313059 
L 601.716163 -133.384875 
L 600.762727 -132.456692 
L 599.889704 -131.528509 
L 599.101724 -130.600325 
L 598.401343 -129.672142 
L 597.789075 -128.743959 
L 597.263463 -127.815775 
L 596.821192 -126.887592 
L 596.457234 -125.959409 
L 596.165032 -125.031225 
L 595.936702 -124.103042 
L 595.763269 -123.174859 
L 595.634915 -122.246675 
L 595.541237 -121.318492 
L 595.471519 -120.390309 
L 595.415003 -119.462126 
L 595.361152 -118.533942 
L 595.299905 -117.605759 
L 595.221919 -116.677576 
L 595.118774 -115.749392 
L 594.983164 -114.821209 
L 594.809044 -113.893026 
L 594.591743 -112.964842 
L 594.328035 -112.036659 
L 594.016162 -111.108476 
L 593.655826 -110.180292 
L 593.248126 -109.252109 
L 592.795464 -108.323926 
L 592.301415 -107.395742 
L 591.77057 -106.467559 
L 591.208349 -105.539376 
L 590.620811 -104.611193 
L 590.014444 -103.683009 
L 589.395964 -102.754826 
L 588.772115 -101.826643 
L 588.149485 -100.898459 
L 587.534339 -99.970276 
L 586.932476 -99.042093 
z
" id="mc8d46d5a77" style="stroke:#474747;stroke-width:2.0;"/>
    </defs>
    <g clip-path="url(#pa964ed5bc5)">
     <use style="fill:#a0adea;stroke:#474747;stroke-width:2.0;" x="0.0" xlink:href="#mc8d46d5a77" y="403.3093125"/>
    </g>
   </g>
   <g id="PolyCollection_7">
    <defs>
     <path d="M 677.988631 -73.939689 
L 674.480426 -73.939689 
L 674.271093 -75.940608 
L 674.044805 -77.941526 
L 673.800898 -79.942444 
L 673.53869 -81.943362 
L 673.257482 -83.94428 
L 672.956554 -85.945198 
L 672.635171 -87.946117 
L 672.292598 -89.947035 
L 671.92811 -91.947953 
L 671.541024 -93.948871 
L 671.130724 -95.949789 
L 670.696705 -97.950707 
L 670.238614 -99.951625 
L 669.756304 -101.952544 
L 669.249884 -103.953462 
L 668.719781 -105.95438 
L 668.166787 -107.955298 
L 667.592118 -109.956216 
L 666.997461 -111.957134 
L 666.385007 -113.958053 
L 665.757485 -115.958971 
L 665.118176 -117.959889 
L 664.470913 -119.960807 
L 663.82007 -121.961725 
L 663.170523 -123.962643 
L 662.527612 -125.963562 
L 661.897067 -127.96448 
L 661.284932 -129.965398 
L 660.697465 -131.966316 
L 660.141033 -133.967234 
L 659.62199 -135.968152 
L 659.146553 -137.969071 
L 658.720666 -139.969989 
L 658.34987 -141.970907 
L 658.03917 -143.971825 
L 657.792911 -145.972743 
L 657.614659 -147.973661 
L 657.507098 -149.97458 
L 657.471943 -151.975498 
L 657.509868 -153.976416 
L 657.620463 -155.977334 
L 657.802205 -157.978252 
L 658.052469 -159.97917 
L 658.367546 -161.980089 
L 658.74271 -163.981007 
L 659.172293 -165.981925 
L 659.649794 -167.982843 
L 660.168014 -169.983761 
L 660.719198 -171.984679 
L 661.295206 -173.985598 
L 661.887687 -175.986516 
L 662.488264 -177.987434 
L 663.088715 -179.988352 
L 663.681149 -181.98927 
L 664.258183 -183.990188 
L 664.813083 -185.991107 
L 665.339908 -187.992025 
L 665.83361 -189.992943 
L 666.290124 -191.993861 
L 666.706416 -193.994779 
L 667.080512 -195.995697 
L 667.41149 -197.996616 
L 667.699451 -199.997534 
L 667.94546 -201.998452 
L 668.151463 -203.99937 
L 668.320195 -206.000288 
L 668.45506 -208.001206 
L 668.560012 -210.002125 
L 668.639424 -212.003043 
L 668.697958 -214.003961 
L 668.740441 -216.004879 
L 668.771735 -218.005797 
L 668.79663 -220.006715 
L 668.819738 -222.007634 
L 668.845403 -224.008552 
L 668.87762 -226.00947 
L 668.919976 -228.010388 
L 668.975596 -230.011306 
L 669.047104 -232.012224 
L 669.136599 -234.013143 
L 669.245644 -236.014061 
L 669.375259 -238.014979 
L 669.52593 -240.015897 
L 669.697632 -242.016815 
L 669.889846 -244.017733 
L 670.101599 -246.018651 
L 670.331507 -248.01957 
L 670.577815 -250.020488 
L 670.83846 -252.021406 
L 671.111121 -254.022324 
L 671.393285 -256.023242 
L 671.682309 -258.02416 
L 671.975482 -260.025079 
L 672.270092 -262.025997 
L 672.56348 -264.026915 
L 672.853104 -266.027833 
L 673.136582 -268.028751 
L 673.41174 -270.029669 
L 673.676649 -272.030588 
L 678.792408 -272.030588 
L 678.792408 -272.030588 
L 679.057317 -270.029669 
L 679.332475 -268.028751 
L 679.615953 -266.027833 
L 679.905577 -264.026915 
L 680.198965 -262.025997 
L 680.493575 -260.025079 
L 680.786749 -258.02416 
L 681.075772 -256.023242 
L 681.357937 -254.022324 
L 681.630598 -252.021406 
L 681.891242 -250.020488 
L 682.13755 -248.01957 
L 682.367458 -246.018651 
L 682.579211 -244.017733 
L 682.771425 -242.016815 
L 682.943127 -240.015897 
L 683.093799 -238.014979 
L 683.223413 -236.014061 
L 683.332458 -234.013143 
L 683.421953 -232.012224 
L 683.493461 -230.011306 
L 683.549081 -228.010388 
L 683.591437 -226.00947 
L 683.623655 -224.008552 
L 683.649319 -222.007634 
L 683.672427 -220.006715 
L 683.697322 -218.005797 
L 683.728616 -216.004879 
L 683.771099 -214.003961 
L 683.829634 -212.003043 
L 683.909045 -210.002125 
L 684.013997 -208.001206 
L 684.148862 -206.000288 
L 684.317594 -203.99937 
L 684.523597 -201.998452 
L 684.769606 -199.997534 
L 685.057567 -197.996616 
L 685.388545 -195.995697 
L 685.762641 -193.994779 
L 686.178933 -191.993861 
L 686.635447 -189.992943 
L 687.129149 -187.992025 
L 687.655974 -185.991107 
L 688.210874 -183.990188 
L 688.787908 -181.98927 
L 689.380343 -179.988352 
L 689.980793 -177.987434 
L 690.58137 -175.986516 
L 691.173852 -173.985598 
L 691.749859 -171.984679 
L 692.301043 -169.983761 
L 692.819263 -167.982843 
L 693.296765 -165.981925 
L 693.726347 -163.981007 
L 694.101511 -161.980089 
L 694.416588 -159.97917 
L 694.666852 -157.978252 
L 694.848595 -155.977334 
L 694.959189 -153.976416 
L 694.997114 -151.975498 
L 694.961959 -149.97458 
L 694.854398 -147.973661 
L 694.676146 -145.972743 
L 694.429887 -143.971825 
L 694.119187 -141.970907 
L 693.748391 -139.969989 
L 693.322504 -137.969071 
L 692.847067 -135.968152 
L 692.328024 -133.967234 
L 691.771592 -131.966316 
L 691.184125 -129.965398 
L 690.57199 -127.96448 
L 689.941445 -125.963562 
L 689.298534 -123.962643 
L 688.648988 -121.961725 
L 687.998144 -119.960807 
L 687.350881 -117.959889 
L 686.711572 -115.958971 
L 686.084051 -113.958053 
L 685.471596 -111.957134 
L 684.876939 -109.956216 
L 684.302271 -107.955298 
L 683.749277 -105.95438 
L 683.219173 -103.953462 
L 682.712753 -101.952544 
L 682.230443 -99.951625 
L 681.772352 -97.950707 
L 681.338333 -95.949789 
L 680.928033 -93.948871 
L 680.540947 -91.947953 
L 680.176459 -89.947035 
L 679.833886 -87.946117 
L 679.512503 -85.945198 
L 679.211575 -83.94428 
L 678.930367 -81.943362 
L 678.668159 -79.942444 
L 678.424252 -77.941526 
L 678.197965 -75.940608 
L 677.988631 -73.939689 
z
" id="m0456f1f7a8" style="stroke:#474747;stroke-width:2.0;"/>
    </defs>
    <g clip-path="url(#pa964ed5bc5)">
     <use style="fill:#e78ae0;stroke:#474747;stroke-width:2.0;" x="0.0" xlink:href="#m0456f1f7a8" y="403.3093125"/>
    </g>
   </g>
   <g id="line2d_29">
    <path clip-path="url(#pa964ed5bc5)" d="M 54.4631 264.371187 
L 724.0631 264.371187 
" style="fill:none;stroke:#404040;stroke-dasharray:6.000000,6.000000;stroke-dashoffset:0.0;stroke-width:1.5;"/>
   </g>
   <g id="line2d_30">
    <path clip-path="url(#pa964ed5bc5)" d="M 102.291671 337.208586 
L 102.291671 217.734824 
" style="fill:none;stroke:#474747;stroke-linecap:round;stroke-width:2.0;"/>
   </g>
   <g id="line2d_31">
    <path clip-path="url(#pa964ed5bc5)" d="M 102.291671 291.874218 
L 102.291671 260.161595 
" style="fill:none;stroke:#474747;stroke-linecap:round;stroke-width:6.0;"/>
   </g>
   <g id="line2d_32">
    <path clip-path="url(#pa964ed5bc5)" d="M 197.948814 291.267074 
L 197.948814 189.392719 
" style="fill:none;stroke:#474747;stroke-linecap:round;stroke-width:2.0;"/>
   </g>
   <g id="line2d_33">
    <path clip-path="url(#pa964ed5bc5)" d="M 197.948814 264.786778 
L 197.948814 226.782228 
" style="fill:none;stroke:#474747;stroke-linecap:round;stroke-width:6.0;"/>
   </g>
   <g id="line2d_34">
    <path clip-path="url(#pa964ed5bc5)" d="M 293.605957 278.196377 
L 293.605957 227.671636 
" style="fill:none;stroke:#474747;stroke-linecap:round;stroke-width:2.0;"/>
   </g>
   <g id="line2d_35">
    <path clip-path="url(#pa964ed5bc5)" d="M 293.605957 254.387582 
L 293.605957 237.834043 
" style="fill:none;stroke:#474747;stroke-linecap:round;stroke-width:6.0;"/>
   </g>
   <g id="line2d_36">
    <path clip-path="url(#pa964ed5bc5)" d="M 389.2631 294.920375 
L 389.2631 196.817214 
" style="fill:none;stroke:#474747;stroke-linecap:round;stroke-width:2.0;"/>
   </g>
   <g id="line2d_37">
    <path clip-path="url(#pa964ed5bc5)" d="M 389.2631 274.779985 
L 389.2631 228.680226 
" style="fill:none;stroke:#474747;stroke-linecap:round;stroke-width:6.0;"/>
   </g>
   <g id="line2d_38">
    <path clip-path="url(#pa964ed5bc5)" d="M 484.920243 294.095158 
L 484.920243 209.101774 
" style="fill:none;stroke:#474747;stroke-linecap:round;stroke-width:2.0;"/>
   </g>
   <g id="line2d_39">
    <path clip-path="url(#pa964ed5bc5)" d="M 484.920243 273.991553 
L 484.920243 245.234034 
" style="fill:none;stroke:#474747;stroke-linecap:round;stroke-width:6.0;"/>
   </g>
   <g id="line2d_40">
    <path clip-path="url(#pa964ed5bc5)" d="M 580.577386 271.725021 
L 580.577386 224.151926 
" style="fill:none;stroke:#474747;stroke-linecap:round;stroke-width:2.0;"/>
   </g>
   <g id="line2d_41">
    <path clip-path="url(#pa964ed5bc5)" d="M 580.577386 262.634052 
L 580.577386 245.75831 
" style="fill:none;stroke:#474747;stroke-linecap:round;stroke-width:6.0;"/>
   </g>
   <g id="line2d_42">
    <path clip-path="url(#pa964ed5bc5)" d="M 676.234529 304.842014 
L 676.234529 155.806334 
" style="fill:none;stroke:#474747;stroke-linecap:round;stroke-width:2.0;"/>
   </g>
   <g id="line2d_43">
    <path clip-path="url(#pa964ed5bc5)" d="M 676.234529 264.211505 
L 676.234529 218.370953 
" style="fill:none;stroke:#474747;stroke-linecap:round;stroke-width:6.0;"/>
   </g>
   <g id="patch_3">
    <path d="M 54.4631 41.171187 
L 724.0631 41.171187 
" style="fill:none;stroke:#262626;stroke-linecap:square;stroke-linejoin:miter;stroke-width:1.25;"/>
   </g>
   <g id="patch_4">
    <path d="M 724.0631 375.971187 
L 724.0631 41.171187 
" style="fill:none;stroke:#262626;stroke-linecap:square;stroke-linejoin:miter;stroke-width:1.25;"/>
   </g>
   <g id="patch_5">
    <path d="M 54.4631 375.971187 
L 724.0631 375.971187 
" style="fill:none;stroke:#262626;stroke-linecap:square;stroke-linejoin:miter;stroke-width:1.25;"/>
   </g>
   <g id="patch_6">
    <path d="M 54.4631 375.971187 
L 54.4631 41.171187 
" style="fill:none;stroke:#262626;stroke-linecap:square;stroke-linejoin:miter;stroke-width:1.25;"/>
   </g>
   <g id="PathCollection_1">
    <defs>
     <path d="M 0 2 
C 0.530406 2 1.03916 1.789267 1.414214 1.414214 
C 1.789267 1.03916 2 0.530406 2 0 
C 2 -0.530406 1.789267 -1.03916 1.414214 -1.414214 
C 1.03916 -1.789267 0.530406 -2 0 -2 
C -0.530406 -2 -1.03916 -1.789267 -1.414214 -1.414214 
C -1.789267 -1.03916 -2 -0.530406 -2 0 
C -2 0.530406 -1.789267 1.03916 -1.414214 1.414214 
C -1.03916 1.789267 -0.530406 2 0 2 
z
" id="m77066dbcad" style="stroke:#474747;stroke-width:0.3;"/>
    </defs>
    <g clip-path="url(#pa964ed5bc5)">
     <use style="fill:#ffffff;stroke:#474747;stroke-width:0.3;" x="102.291671429" xlink:href="#m77066dbcad" y="277.639921751"/>
    </g>
   </g>
   <g id="PathCollection_2">
    <g clip-path="url(#pa964ed5bc5)">
     <use style="fill:#ffffff;stroke:#474747;stroke-width:0.3;" x="197.948814286" xlink:href="#m77066dbcad" y="245.781509705"/>
    </g>
   </g>
   <g id="PathCollection_3">
    <g clip-path="url(#pa964ed5bc5)">
     <use style="fill:#ffffff;stroke:#474747;stroke-width:0.3;" x="293.605957143" xlink:href="#m77066dbcad" y="243.912443224"/>
    </g>
   </g>
   <g id="PathCollection_4">
    <g clip-path="url(#pa964ed5bc5)">
     <use style="fill:#ffffff;stroke:#474747;stroke-width:0.3;" x="389.2631" xlink:href="#m77066dbcad" y="254.607764877"/>
    </g>
   </g>
   <g id="PathCollection_5">
    <g clip-path="url(#pa964ed5bc5)">
     <use style="fill:#ffffff;stroke:#474747;stroke-width:0.3;" x="484.920242857" xlink:href="#m77066dbcad" y="255.05573329"/>
    </g>
   </g>
   <g id="PathCollection_6">
    <g clip-path="url(#pa964ed5bc5)">
     <use style="fill:#ffffff;stroke:#474747;stroke-width:0.3;" x="580.577385714" xlink:href="#m77066dbcad" y="254.560345356"/>
    </g>
   </g>
   <g id="PathCollection_7">
    <g clip-path="url(#pa964ed5bc5)">
     <use style="fill:#ffffff;stroke:#474747;stroke-width:0.3;" x="676.234528571" xlink:href="#m77066dbcad" y="244.362645796"/>
    </g>
   </g>
   <g id="text_16">
    <!-- Accidents after the start of DST in California (20012016) -->
    <defs>
     <path d="M 6.390625 0 
L 6.390625 71.578125 
L 15.1875 71.578125 
L 15.1875 0 
z
" id="ArialMT-6c"/>
     <path d="M 58.796875 25.09375 
L 68.265625 22.703125 
Q 65.28125 11.03125 57.546875 4.90625 
Q 49.8125 -1.21875 38.625 -1.21875 
Q 27.046875 -1.21875 19.796875 3.484375 
Q 12.546875 8.203125 8.765625 17.140625 
Q 4.984375 26.078125 4.984375 36.328125 
Q 4.984375 47.515625 9.25 55.828125 
Q 13.53125 64.15625 21.40625 68.46875 
Q 29.296875 72.796875 38.765625 72.796875 
Q 49.515625 72.796875 56.828125 67.328125 
Q 64.15625 61.859375 67.046875 51.953125 
L 57.71875 49.75 
Q 55.21875 57.5625 50.484375 61.125 
Q 45.75 64.703125 38.578125 64.703125 
Q 30.328125 64.703125 24.78125 60.734375 
Q 19.234375 56.78125 16.984375 50.109375 
Q 14.75 43.453125 14.75 36.375 
Q 14.75 27.25 17.40625 20.4375 
Q 20.0625 13.625 25.671875 10.25 
Q 31.296875 6.890625 37.84375 6.890625 
Q 45.796875 6.890625 51.3125 11.46875 
Q 56.84375 16.0625 58.796875 25.09375 
" id="ArialMT-43"/>
     <path d="M -0.203125 22.359375 
L -0.203125 29.4375 
L 55.421875 29.4375 
L 55.421875 22.359375 
z
" id="ArialMT-2013"/>
    </defs>
    <g style="fill:#262626;" transform="translate(59.0631 26.1271875)scale(0.26 -0.26)">
     <use xlink:href="#ArialMT-41"/>
     <use x="66.69921875" xlink:href="#ArialMT-63"/>
     <use x="116.69921875" xlink:href="#ArialMT-63"/>
     <use x="166.69921875" xlink:href="#ArialMT-69"/>
     <use x="188.916015625" xlink:href="#ArialMT-64"/>
     <use x="244.53125" xlink:href="#ArialMT-65"/>
     <use x="300.146484375" xlink:href="#ArialMT-6e"/>
     <use x="355.76171875" xlink:href="#ArialMT-74"/>
     <use x="383.544921875" xlink:href="#ArialMT-73"/>
     <use x="433.544921875" xlink:href="#ArialMT-20"/>
     <use x="461.328125" xlink:href="#ArialMT-61"/>
     <use x="516.943359375" xlink:href="#ArialMT-66"/>
     <use x="544.7265625" xlink:href="#ArialMT-74"/>
     <use x="572.509765625" xlink:href="#ArialMT-65"/>
     <use x="628.125" xlink:href="#ArialMT-72"/>
     <use x="661.42578125" xlink:href="#ArialMT-20"/>
     <use x="689.208984375" xlink:href="#ArialMT-74"/>
     <use x="716.9921875" xlink:href="#ArialMT-68"/>
     <use x="772.607421875" xlink:href="#ArialMT-65"/>
     <use x="828.22265625" xlink:href="#ArialMT-20"/>
     <use x="856.005859375" xlink:href="#ArialMT-73"/>
     <use x="906.005859375" xlink:href="#ArialMT-74"/>
     <use x="933.7890625" xlink:href="#ArialMT-61"/>
     <use x="989.404296875" xlink:href="#ArialMT-72"/>
     <use x="1022.70507812" xlink:href="#ArialMT-74"/>
     <use x="1050.48828125" xlink:href="#ArialMT-20"/>
     <use x="1078.27148438" xlink:href="#ArialMT-6f"/>
     <use x="1133.88671875" xlink:href="#ArialMT-66"/>
     <use x="1161.66992188" xlink:href="#ArialMT-20"/>
     <use x="1189.453125" xlink:href="#ArialMT-44"/>
     <use x="1261.66992188" xlink:href="#ArialMT-53"/>
     <use x="1328.36914062" xlink:href="#ArialMT-54"/>
     <use x="1389.4375" xlink:href="#ArialMT-20"/>
     <use x="1417.22070312" xlink:href="#ArialMT-69"/>
     <use x="1439.4375" xlink:href="#ArialMT-6e"/>
     <use x="1495.05273438" xlink:href="#ArialMT-20"/>
     <use x="1522.8359375" xlink:href="#ArialMT-43"/>
     <use x="1595.05273438" xlink:href="#ArialMT-61"/>
     <use x="1650.66796875" xlink:href="#ArialMT-6c"/>
     <use x="1672.88476562" xlink:href="#ArialMT-69"/>
     <use x="1695.1015625" xlink:href="#ArialMT-66"/>
     <use x="1722.88476562" xlink:href="#ArialMT-6f"/>
     <use x="1778.5" xlink:href="#ArialMT-72"/>
     <use x="1811.80078125" xlink:href="#ArialMT-6e"/>
     <use x="1867.41601562" xlink:href="#ArialMT-69"/>
     <use x="1889.6328125" xlink:href="#ArialMT-61"/>
     <use x="1945.24804688" xlink:href="#ArialMT-20"/>
     <use x="1973.03125" xlink:href="#ArialMT-28"/>
     <use x="2006.33203125" xlink:href="#ArialMT-32"/>
     <use x="2061.94726562" xlink:href="#ArialMT-30"/>
     <use x="2117.5625" xlink:href="#ArialMT-30"/>
     <use x="2173.17773438" xlink:href="#ArialMT-31"/>
     <use x="2228.79296875" xlink:href="#ArialMT-2013"/>
     <use x="2284.40820312" xlink:href="#ArialMT-32"/>
     <use x="2340.0234375" xlink:href="#ArialMT-30"/>
     <use x="2395.63867188" xlink:href="#ArialMT-31"/>
     <use x="2451.25390625" xlink:href="#ArialMT-36"/>
     <use x="2506.86914062" xlink:href="#ArialMT-29"/>
    </g>
   </g>
  </g>
 </g>
 <defs>
  <clipPath id="pa964ed5bc5">
   <rect height="334.8" width="669.6" x="54.4631" y="41.1711875"/>
  </clipPath>
 </defs>
</svg>
