<?xml version="1.0" encoding="utf-8" standalone="no"?>
<!DOCTYPE svg PUBLIC "-//W3C//DTD SVG 1.1//EN"
  "http://www.w3.org/Graphics/SVG/1.1/DTD/svg11.dtd">
<!-- Created with matplotlib (http://matplotlib.org/) -->
<svg height="391.7373pt" version="1.1" viewBox="0 0 727.0682 391.7373" width="727.0682pt" xmlns="http://www.w3.org/2000/svg" xmlns:xlink="http://www.w3.org/1999/xlink">
 <defs>
  <style type="text/css">
*{stroke-linecap:butt;stroke-linejoin:round;}
  </style>
 </defs>
 <g id="figure_1">
  <g id="patch_1">
   <path d="M 0 391.7373 
L 727.0682 391.7373 
L 727.0682 0 
L 0 0 
z
" style="fill:#ffffff;"/>
  </g>
  <g id="axes_1">
   <g id="patch_2">
    <path d="M 50.2682 367.986675 
L 719.8682 367.986675 
L 719.8682 41.826675 
L 50.2682 41.826675 
z
" style="fill:#ffffff;"/>
   </g>
   <g id="matplotlib.axis_1">
    <g id="xtick_1">
     <g id="text_1">
      <!-- Sunday (DST Ends) -->
      <defs>
       <path d="M 62.109375 19 
Q 62.109375 14.65625 60.421875 10.984375 
Q 58.734375 7.328125 55.21875 4.65625 
Q 51.703125 2 46.359375 0.5 
Q 41.015625 -0.984375 33.6875 -0.984375 
Q 20.84375 -0.984375 13.671875 3.515625 
Q 6.5 8.015625 4.546875 16.5 
L 13.578125 18.3125 
Q 14.265625 15.625 15.671875 13.421875 
Q 17.09375 11.234375 19.5 9.640625 
Q 21.921875 8.0625 25.484375 7.171875 
Q 29.046875 6.296875 34.03125 6.296875 
Q 38.1875 6.296875 41.65625 7 
Q 45.125 7.71875 47.609375 9.171875 
Q 50.09375 10.640625 51.484375 12.953125 
Q 52.875 15.28125 52.875 18.5 
Q 52.875 21.875 51.34375 23.96875 
Q 49.8125 26.078125 47.015625 27.4375 
Q 44.234375 28.8125 40.375 29.734375 
Q 36.53125 30.671875 31.84375 31.734375 
Q 28.953125 32.375 26.046875 33.125 
Q 23.140625 33.890625 20.484375 34.9375 
Q 17.828125 35.984375 15.484375 37.390625 
Q 13.140625 38.8125 11.421875 40.796875 
Q 9.71875 42.78125 8.734375 45.390625 
Q 7.765625 48 7.765625 51.421875 
Q 7.765625 56.296875 9.734375 59.78125 
Q 11.71875 63.28125 15.234375 65.53125 
Q 18.75 67.78125 23.53125 68.796875 
Q 28.328125 69.828125 33.890625 69.828125 
Q 40.28125 69.828125 44.8125 68.828125 
Q 49.359375 67.828125 52.484375 65.8125 
Q 55.609375 63.8125 57.484375 60.859375 
Q 59.375 57.90625 60.5 54 
L 51.3125 52.390625 
Q 50.640625 54.890625 49.34375 56.84375 
Q 48.046875 58.796875 45.9375 60.109375 
Q 43.84375 61.421875 40.84375 62.109375 
Q 37.84375 62.796875 33.796875 62.796875 
Q 29 62.796875 25.75 61.9375 
Q 22.515625 61.078125 20.53125 59.609375 
Q 18.5625 58.15625 17.703125 56.171875 
Q 16.84375 54.203125 16.84375 51.90625 
Q 16.84375 48.828125 18.375 46.84375 
Q 19.921875 44.875 22.5625 43.546875 
Q 25.203125 42.234375 28.65625 41.359375 
Q 32.125 40.484375 36.03125 39.59375 
Q 39.203125 38.875 42.359375 38.109375 
Q 45.515625 37.359375 48.390625 36.296875 
Q 51.265625 35.25 53.78125 33.828125 
Q 56.296875 32.421875 58.15625 30.375 
Q 60.015625 28.328125 61.0625 25.53125 
Q 62.109375 22.75 62.109375 19 
z
" id="LiberationSans-53"/>
       <path d="M 15.328125 52.828125 
L 15.328125 19.34375 
Q 15.328125 15.484375 15.890625 12.890625 
Q 16.453125 10.296875 17.71875 8.703125 
Q 19 7.125 21.0625 6.46875 
Q 23.140625 5.8125 26.21875 5.8125 
Q 29.34375 5.8125 31.859375 6.90625 
Q 34.375 8.015625 36.15625 10.078125 
Q 37.9375 12.15625 38.90625 15.203125 
Q 39.890625 18.265625 39.890625 22.21875 
L 39.890625 52.828125 
L 48.6875 52.828125 
L 48.6875 11.28125 
Q 48.6875 9.625 48.703125 7.78125 
Q 48.734375 5.953125 48.78125 4.3125 
Q 48.828125 2.6875 48.875 1.515625 
Q 48.921875 0.34375 48.96875 0 
L 40.671875 0 
Q 40.625 0.25 40.578125 1.3125 
Q 40.53125 2.390625 40.453125 3.78125 
Q 40.375 5.171875 40.328125 6.609375 
Q 40.28125 8.0625 40.28125 9.03125 
L 40.140625 9.03125 
Q 38.875 6.734375 37.359375 4.875 
Q 35.84375 3.03125 33.84375 1.734375 
Q 31.84375 0.4375 29.25 -0.265625 
Q 26.65625 -0.984375 23.25 -0.984375 
Q 18.84375 -0.984375 15.671875 0.09375 
Q 12.5 1.171875 10.453125 3.421875 
Q 8.40625 5.671875 7.453125 9.1875 
Q 6.5 12.703125 6.5 17.625 
L 6.5 52.828125 
z
" id="LiberationSans-75"/>
       <path d="M 40.28125 0 
L 40.28125 33.5 
Q 40.28125 37.359375 39.71875 39.9375 
Q 39.15625 42.53125 37.890625 44.109375 
Q 36.625 45.703125 34.546875 46.359375 
Q 32.46875 47.015625 29.390625 47.015625 
Q 26.265625 47.015625 23.75 45.921875 
Q 21.234375 44.828125 19.453125 42.75 
Q 17.671875 40.671875 16.6875 37.625 
Q 15.71875 34.578125 15.71875 30.609375 
L 15.71875 0 
L 6.9375 0 
L 6.9375 41.546875 
Q 6.9375 43.21875 6.90625 45.046875 
Q 6.890625 46.875 6.828125 48.5 
Q 6.78125 50.140625 6.734375 51.3125 
Q 6.6875 52.484375 6.640625 52.828125 
L 14.9375 52.828125 
Q 14.984375 52.59375 15.03125 51.515625 
Q 15.09375 50.4375 15.15625 49.046875 
Q 15.234375 47.65625 15.28125 46.21875 
Q 15.328125 44.78125 15.328125 43.796875 
L 15.484375 43.796875 
Q 16.75 46.09375 18.265625 47.953125 
Q 19.78125 49.8125 21.78125 51.09375 
Q 23.78125 52.390625 26.359375 53.09375 
Q 28.953125 53.8125 32.375 53.8125 
Q 36.765625 53.8125 39.9375 52.734375 
Q 43.109375 51.65625 45.15625 49.40625 
Q 47.21875 47.171875 48.171875 43.625 
Q 49.125 40.09375 49.125 35.203125 
L 49.125 0 
z
" id="LiberationSans-6e"/>
       <path d="M 40.09375 8.5 
Q 37.640625 3.421875 33.609375 1.21875 
Q 29.59375 -0.984375 23.640625 -0.984375 
Q 13.625 -0.984375 8.90625 5.75 
Q 4.203125 12.5 4.203125 26.171875 
Q 4.203125 53.8125 23.640625 53.8125 
Q 29.640625 53.8125 33.640625 51.609375 
Q 37.640625 49.421875 40.09375 44.625 
L 40.1875 44.625 
Q 40.1875 45.125 40.15625 46.171875 
Q 40.140625 47.21875 40.109375 48.359375 
Q 40.09375 49.515625 40.09375 50.53125 
Q 40.09375 51.5625 40.09375 52 
L 40.09375 72.46875 
L 48.875 72.46875 
L 48.875 10.890625 
Q 48.875 8.984375 48.890625 7.21875 
Q 48.921875 5.46875 48.96875 4 
Q 49.03125 2.546875 49.078125 1.484375 
Q 49.125 0.4375 49.171875 0 
L 40.765625 0 
Q 40.671875 0.484375 40.59375 1.390625 
Q 40.53125 2.296875 40.453125 3.46875 
Q 40.375 4.640625 40.328125 5.9375 
Q 40.28125 7.234375 40.28125 8.5 
z
M 13.421875 26.46875 
Q 13.421875 21 14.109375 17.09375 
Q 14.796875 13.1875 16.3125 10.671875 
Q 17.828125 8.15625 20.171875 6.984375 
Q 22.515625 5.8125 25.875 5.8125 
Q 29.34375 5.8125 32 6.9375 
Q 34.671875 8.0625 36.453125 10.578125 
Q 38.234375 13.09375 39.15625 17.140625 
Q 40.09375 21.1875 40.09375 27.046875 
Q 40.09375 32.671875 39.15625 36.546875 
Q 38.234375 40.4375 36.421875 42.828125 
Q 34.625 45.21875 32 46.265625 
Q 29.390625 47.3125 25.984375 47.3125 
Q 22.75 47.3125 20.40625 46.1875 
Q 18.0625 45.0625 16.5 42.578125 
Q 14.9375 40.09375 14.171875 36.109375 
Q 13.421875 32.125 13.421875 26.46875 
z
" id="LiberationSans-64"/>
       <path d="M 20.21875 -0.984375 
Q 12.25 -0.984375 8.25 3.21875 
Q 4.25 7.421875 4.25 14.75 
Q 4.25 19.96875 6.21875 23.3125 
Q 8.203125 26.65625 11.390625 28.5625 
Q 14.59375 30.46875 18.6875 31.203125 
Q 22.796875 31.9375 27.046875 32.03125 
L 38.921875 32.234375 
L 38.921875 35.109375 
Q 38.921875 38.375 38.234375 40.671875 
Q 37.546875 42.96875 36.125 44.375 
Q 34.71875 45.796875 32.59375 46.453125 
Q 30.46875 47.125 27.59375 47.125 
Q 25.046875 47.125 23 46.75 
Q 20.953125 46.390625 19.4375 45.4375 
Q 17.921875 44.484375 16.984375 42.84375 
Q 16.0625 41.21875 15.765625 38.71875 
L 6.59375 39.546875 
Q 7.078125 42.671875 8.4375 45.28125 
Q 9.8125 47.90625 12.328125 49.796875 
Q 14.84375 51.703125 18.625 52.75 
Q 22.40625 53.8125 27.78125 53.8125 
Q 37.75 53.8125 42.765625 49.234375 
Q 47.796875 44.671875 47.796875 36.03125 
L 47.796875 13.28125 
Q 47.796875 9.375 48.828125 7.390625 
Q 49.859375 5.421875 52.734375 5.421875 
Q 53.46875 5.421875 54.203125 5.515625 
Q 54.9375 5.609375 55.609375 5.765625 
L 55.609375 0.296875 
Q 53.953125 -0.09375 52.3125 -0.28125 
Q 50.6875 -0.484375 48.828125 -0.484375 
Q 46.34375 -0.484375 44.5625 0.171875 
Q 42.78125 0.828125 41.65625 2.171875 
Q 40.53125 3.515625 39.9375 5.484375 
Q 39.359375 7.46875 39.203125 10.109375 
L 38.921875 10.109375 
Q 37.5 7.5625 35.8125 5.515625 
Q 34.125 3.46875 31.875 2.03125 
Q 29.640625 0.59375 26.78125 -0.1875 
Q 23.921875 -0.984375 20.21875 -0.984375 
z
M 22.21875 5.609375 
Q 26.421875 5.609375 29.5625 7.140625 
Q 32.71875 8.6875 34.78125 11.078125 
Q 36.859375 13.484375 37.890625 16.3125 
Q 38.921875 19.140625 38.921875 21.734375 
L 38.921875 26.078125 
L 29.296875 25.875 
Q 26.078125 25.828125 23.171875 25.40625 
Q 20.265625 25 18.0625 23.78125 
Q 15.875 22.5625 14.578125 20.359375 
Q 13.28125 18.171875 13.28125 14.59375 
Q 13.28125 10.296875 15.59375 7.953125 
Q 17.921875 5.609375 22.21875 5.609375 
z
" id="LiberationSans-61"/>
       <path d="M 29.5 0 
Q 27.640625 -4.78125 25.703125 -8.609375 
Q 23.78125 -12.453125 21.390625 -15.15625 
Q 19 -17.875 16.0625 -19.3125 
Q 13.140625 -20.75 9.328125 -20.75 
Q 7.671875 -20.75 6.25 -20.65625 
Q 4.828125 -20.5625 3.265625 -20.21875 
L 3.265625 -13.625 
Q 4.203125 -13.765625 5.375 -13.84375 
Q 6.546875 -13.921875 7.375 -13.921875 
Q 11.234375 -13.921875 14.546875 -11.03125 
Q 17.875 -8.15625 20.359375 -1.859375 
L 21.1875 0.25 
L 0.25 52.828125 
L 9.625 52.828125 
L 20.75 23.640625 
Q 21.234375 22.3125 21.984375 20.109375 
Q 22.75 17.921875 23.5 15.71875 
Q 24.265625 13.53125 24.84375 11.765625 
Q 25.4375 10.015625 25.53125 9.578125 
Q 25.6875 10.109375 26.25 11.6875 
Q 26.8125 13.28125 27.515625 15.234375 
Q 28.21875 17.1875 28.953125 19.1875 
Q 29.6875 21.1875 30.171875 22.65625 
L 40.53125 52.828125 
L 49.8125 52.828125 
z
" id="LiberationSans-79"/>
       <path id="LiberationSans-20"/>
       <path d="M 6.203125 25.984375 
Q 6.203125 32.765625 7.21875 38.96875 
Q 8.25 45.171875 10.4375 50.875 
Q 12.640625 56.59375 16.0625 61.953125 
Q 19.484375 67.328125 24.21875 72.46875 
L 32.71875 72.46875 
Q 28.125 67.328125 24.78125 61.9375 
Q 21.4375 56.546875 19.28125 50.796875 
Q 17.140625 45.0625 16.09375 38.859375 
Q 15.046875 32.671875 15.046875 25.875 
Q 15.046875 19.09375 16.09375 12.890625 
Q 17.140625 6.6875 19.28125 0.921875 
Q 21.4375 -4.828125 24.78125 -10.203125 
Q 28.125 -15.578125 32.71875 -20.703125 
L 24.21875 -20.703125 
Q 19.484375 -15.578125 16.0625 -10.203125 
Q 12.640625 -4.828125 10.4375 0.875 
Q 8.25 6.59375 7.21875 12.765625 
Q 6.203125 18.953125 6.203125 25.78125 
z
" id="LiberationSans-28"/>
       <path d="M 67.4375 35.109375 
Q 67.4375 26.515625 64.84375 19.9375 
Q 62.25 13.375 57.75 8.953125 
Q 53.265625 4.546875 47.140625 2.265625 
Q 41.015625 0 33.9375 0 
L 8.203125 0 
L 8.203125 68.796875 
L 30.953125 68.796875 
Q 38.921875 68.796875 45.625 66.8125 
Q 52.34375 64.84375 57.171875 60.71875 
Q 62.015625 56.59375 64.71875 50.234375 
Q 67.4375 43.890625 67.4375 35.109375 
z
M 58.0625 35.109375 
Q 58.0625 42.09375 56.046875 47.046875 
Q 54.046875 52 50.4375 55.171875 
Q 46.828125 58.34375 41.796875 59.828125 
Q 36.765625 61.328125 30.765625 61.328125 
L 17.53125 61.328125 
L 17.53125 7.46875 
L 32.859375 7.46875 
Q 38.28125 7.46875 42.890625 9.21875 
Q 47.515625 10.984375 50.875 14.453125 
Q 54.25 17.921875 56.15625 23.09375 
Q 58.0625 28.265625 58.0625 35.109375 
z
" id="LiberationSans-44"/>
       <path d="M 35.15625 61.1875 
L 35.15625 0 
L 25.875 0 
L 25.875 61.1875 
L 2.25 61.1875 
L 2.25 68.796875 
L 58.796875 68.796875 
L 58.796875 61.1875 
z
" id="LiberationSans-54"/>
       <path d="M 8.203125 0 
L 8.203125 68.796875 
L 60.40625 68.796875 
L 60.40625 61.1875 
L 17.53125 61.1875 
L 17.53125 39.109375 
L 57.46875 39.109375 
L 57.46875 31.59375 
L 17.53125 31.59375 
L 17.53125 7.625 
L 62.40625 7.625 
L 62.40625 0 
z
" id="LiberationSans-45"/>
       <path d="M 46.390625 14.59375 
Q 46.390625 10.890625 44.9375 7.984375 
Q 43.5 5.078125 40.765625 3.09375 
Q 38.03125 1.125 34.046875 0.0625 
Q 30.078125 -0.984375 24.953125 -0.984375 
Q 20.359375 -0.984375 16.671875 -0.265625 
Q 12.984375 0.4375 10.203125 2 
Q 7.421875 3.5625 5.53125 6.125 
Q 3.65625 8.6875 2.78125 12.40625 
L 10.546875 13.921875 
Q 11.671875 9.671875 15.1875 7.6875 
Q 18.703125 5.71875 24.953125 5.71875 
Q 27.78125 5.71875 30.140625 6.109375 
Q 32.515625 6.5 34.21875 7.453125 
Q 35.9375 8.40625 36.890625 9.984375 
Q 37.84375 11.578125 37.84375 13.921875 
Q 37.84375 16.3125 36.71875 17.84375 
Q 35.59375 19.390625 33.59375 20.40625 
Q 31.59375 21.4375 28.734375 22.1875 
Q 25.875 22.953125 22.46875 23.875 
Q 19.28125 24.703125 16.15625 25.734375 
Q 13.03125 26.765625 10.515625 28.4375 
Q 8.015625 30.125 6.453125 32.609375 
Q 4.890625 35.109375 4.890625 38.875 
Q 4.890625 46.09375 10.03125 49.875 
Q 15.1875 53.65625 25.046875 53.65625 
Q 33.796875 53.65625 38.9375 50.578125 
Q 44.09375 47.515625 45.453125 40.71875 
L 37.546875 39.75 
Q 37.109375 41.796875 35.9375 43.1875 
Q 34.765625 44.578125 33.109375 45.4375 
Q 31.453125 46.296875 29.375 46.65625 
Q 27.296875 47.015625 25.046875 47.015625 
Q 19.09375 47.015625 16.25 45.203125 
Q 13.421875 43.40625 13.421875 39.75 
Q 13.421875 37.59375 14.46875 36.203125 
Q 15.53125 34.8125 17.40625 33.859375 
Q 19.28125 32.90625 21.921875 32.203125 
Q 24.5625 31.5 27.734375 30.71875 
Q 29.828125 30.171875 32.03125 29.5625 
Q 34.234375 28.953125 36.296875 28.09375 
Q 38.375 27.25 40.203125 26.09375 
Q 42.046875 24.953125 43.40625 23.34375 
Q 44.78125 21.734375 45.578125 19.578125 
Q 46.390625 17.4375 46.390625 14.59375 
z
" id="LiberationSans-73"/>
       <path d="M 27.09375 25.78125 
Q 27.09375 18.953125 26.0625 12.765625 
Q 25.046875 6.59375 22.84375 0.875 
Q 20.65625 -4.828125 17.234375 -10.203125 
Q 13.8125 -15.578125 9.078125 -20.703125 
L 0.59375 -20.703125 
Q 5.171875 -15.578125 8.515625 -10.203125 
Q 11.859375 -4.828125 14 0.921875 
Q 16.15625 6.6875 17.203125 12.890625 
Q 18.265625 19.09375 18.265625 25.875 
Q 18.265625 32.671875 17.203125 38.859375 
Q 16.15625 45.0625 14 50.796875 
Q 11.859375 56.546875 8.515625 61.9375 
Q 5.171875 67.328125 0.59375 72.46875 
L 9.078125 72.46875 
Q 13.8125 67.328125 17.234375 61.953125 
Q 20.65625 56.59375 22.84375 50.875 
Q 25.046875 45.171875 26.0625 38.96875 
Q 27.09375 32.765625 27.09375 25.984375 
z
" id="LiberationSans-29"/>
      </defs>
      <g style="fill:#262626;" transform="translate(35.852553 381.6323)scale(0.14 -0.14)">
       <use xlink:href="#LiberationSans-53"/>
       <use x="66.699219" xlink:href="#LiberationSans-75"/>
       <use x="122.314453" xlink:href="#LiberationSans-6e"/>
       <use x="177.929688" xlink:href="#LiberationSans-64"/>
       <use x="233.544922" xlink:href="#LiberationSans-61"/>
       <use x="289.160156" xlink:href="#LiberationSans-79"/>
       <use x="339.160156" xlink:href="#LiberationSans-20"/>
       <use x="366.943359" xlink:href="#LiberationSans-28"/>
       <use x="400.244141" xlink:href="#LiberationSans-44"/>
       <use x="472.460938" xlink:href="#LiberationSans-53"/>
       <use x="539.160156" xlink:href="#LiberationSans-54"/>
       <use x="600.228516" xlink:href="#LiberationSans-20"/>
       <use x="628.011719" xlink:href="#LiberationSans-45"/>
       <use x="694.710938" xlink:href="#LiberationSans-6e"/>
       <use x="750.326172" xlink:href="#LiberationSans-64"/>
       <use x="805.941406" xlink:href="#LiberationSans-73"/>
       <use x="855.941406" xlink:href="#LiberationSans-29"/>
      </g>
     </g>
    </g>
    <g id="xtick_2">
     <g id="text_2">
      <!-- Monday -->
      <defs>
       <path d="M 66.703125 0 
L 66.703125 45.90625 
Q 66.703125 48.390625 66.75 50.96875 
Q 66.796875 53.5625 66.890625 55.71875 
Q 67 58.203125 67.140625 60.546875 
Q 66.453125 58.0625 65.71875 55.609375 
Q 65.09375 53.515625 64.328125 51.140625 
Q 63.578125 48.78125 62.84375 46.875 
L 45.0625 0 
L 38.53125 0 
L 20.515625 46.875 
Q 20.21875 47.609375 19.890625 48.578125 
Q 19.578125 49.5625 19.203125 50.65625 
Q 18.84375 51.765625 18.46875 52.90625 
Q 18.109375 54.046875 17.78125 55.171875 
Q 16.9375 57.765625 16.15625 60.546875 
Q 16.21875 57.8125 16.3125 55.125 
Q 16.40625 52.828125 16.453125 50.3125 
Q 16.5 47.796875 16.5 45.90625 
L 16.5 0 
L 8.203125 0 
L 8.203125 68.796875 
L 20.453125 68.796875 
L 38.765625 21.09375 
Q 39.109375 20.125 39.59375 18.578125 
Q 40.09375 17.046875 40.53125 15.421875 
Q 40.96875 13.8125 41.328125 12.375 
Q 41.703125 10.9375 41.84375 10.15625 
Q 42 10.9375 42.390625 12.40625 
Q 42.78125 13.875 43.28125 15.484375 
Q 43.796875 17.09375 44.28125 18.609375 
Q 44.78125 20.125 45.171875 21.09375 
L 63.140625 68.796875 
L 75.09375 68.796875 
L 75.09375 0 
z
" id="LiberationSans-4d"/>
       <path d="M 51.421875 26.46875 
Q 51.421875 12.59375 45.3125 5.796875 
Q 39.203125 -0.984375 27.59375 -0.984375 
Q 22.078125 -0.984375 17.71875 0.671875 
Q 13.375 2.34375 10.375 5.765625 
Q 7.375 9.1875 5.78125 14.328125 
Q 4.203125 19.484375 4.203125 26.46875 
Q 4.203125 53.8125 27.875 53.8125 
Q 34.03125 53.8125 38.5 52.09375 
Q 42.96875 50.390625 45.828125 46.96875 
Q 48.6875 43.5625 50.046875 38.421875 
Q 51.421875 33.296875 51.421875 26.46875 
z
M 42.1875 26.46875 
Q 42.1875 32.625 41.234375 36.625 
Q 40.28125 40.625 38.453125 43.015625 
Q 36.625 45.40625 33.984375 46.359375 
Q 31.34375 47.3125 28.03125 47.3125 
Q 24.65625 47.3125 21.9375 46.3125 
Q 19.234375 45.3125 17.328125 42.890625 
Q 15.4375 40.484375 14.421875 36.46875 
Q 13.421875 32.46875 13.421875 26.46875 
Q 13.421875 20.3125 14.5 16.28125 
Q 15.578125 12.25 17.453125 9.859375 
Q 19.34375 7.46875 21.90625 6.484375 
Q 24.46875 5.515625 27.484375 5.515625 
Q 30.859375 5.515625 33.59375 6.46875 
Q 36.328125 7.421875 38.234375 9.8125 
Q 40.140625 12.203125 41.15625 16.25 
Q 42.1875 20.3125 42.1875 26.46875 
z
" id="LiberationSans-6f"/>
      </defs>
      <g style="fill:#262626;" transform="translate(168.852508 381.6323)scale(0.14 -0.14)">
       <use xlink:href="#LiberationSans-4d"/>
       <use x="83.300781" xlink:href="#LiberationSans-6f"/>
       <use x="138.916016" xlink:href="#LiberationSans-6e"/>
       <use x="194.53125" xlink:href="#LiberationSans-64"/>
       <use x="250.146484" xlink:href="#LiberationSans-61"/>
       <use x="305.761719" xlink:href="#LiberationSans-79"/>
      </g>
     </g>
    </g>
    <g id="xtick_3">
     <g id="text_3">
      <!-- Tuesday -->
      <defs>
       <path d="M 13.484375 24.5625 
Q 13.484375 20.40625 14.328125 16.90625 
Q 15.1875 13.421875 16.96875 10.90625 
Q 18.75 8.40625 21.53125 7 
Q 24.3125 5.609375 28.21875 5.609375 
Q 33.9375 5.609375 37.375 7.90625 
Q 40.828125 10.203125 42.046875 13.71875 
L 49.75 11.53125 
Q 48.921875 9.328125 47.4375 7.109375 
Q 45.953125 4.890625 43.453125 3.09375 
Q 40.96875 1.3125 37.234375 0.15625 
Q 33.5 -0.984375 28.21875 -0.984375 
Q 16.5 -0.984375 10.375 6 
Q 4.25 12.984375 4.25 26.765625 
Q 4.25 34.1875 6.09375 39.328125 
Q 7.953125 44.484375 11.171875 47.703125 
Q 14.40625 50.921875 18.703125 52.359375 
Q 23 53.8125 27.875 53.8125 
Q 34.515625 53.8125 38.984375 51.65625 
Q 43.453125 49.515625 46.15625 45.71875 
Q 48.875 41.9375 50.015625 36.8125 
Q 51.171875 31.6875 51.171875 25.734375 
L 51.171875 24.5625 
z
M 42.09375 31.296875 
Q 41.359375 39.65625 37.84375 43.484375 
Q 34.328125 47.3125 27.734375 47.3125 
Q 25.53125 47.3125 23.109375 46.609375 
Q 20.703125 45.90625 18.65625 44.09375 
Q 16.609375 42.28125 15.1875 39.171875 
Q 13.765625 36.078125 13.578125 31.296875 
z
" id="LiberationSans-65"/>
      </defs>
      <g style="fill:#262626;" transform="translate(262.568245 381.6323)scale(0.14 -0.14)">
       <use xlink:href="#LiberationSans-54"/>
       <use x="61.037109" xlink:href="#LiberationSans-75"/>
       <use x="116.652344" xlink:href="#LiberationSans-65"/>
       <use x="172.267578" xlink:href="#LiberationSans-73"/>
       <use x="222.267578" xlink:href="#LiberationSans-64"/>
       <use x="277.882812" xlink:href="#LiberationSans-61"/>
       <use x="333.498047" xlink:href="#LiberationSans-79"/>
      </g>
     </g>
    </g>
    <g id="xtick_4">
     <g id="text_4">
      <!-- Wednesday -->
      <defs>
       <path d="M 73.78125 0 
L 62.640625 0 
L 50.734375 43.703125 
Q 50.203125 45.5625 49.578125 48.09375 
Q 48.96875 50.640625 48.484375 52.9375 
Q 47.90625 55.609375 47.3125 58.40625 
Q 46.6875 55.5625 46.09375 52.875 
Q 45.5625 50.53125 44.96875 48.046875 
Q 44.390625 45.5625 43.84375 43.703125 
L 31.84375 0 
L 20.703125 0 
L 0.4375 68.796875 
L 10.15625 68.796875 
L 22.515625 25.09375 
Q 23.34375 22.015625 24.09375 18.984375 
Q 24.859375 15.96875 25.390625 13.578125 
Q 26.03125 10.75 26.5625 8.203125 
Q 27.296875 11.578125 28.078125 14.84375 
Q 28.421875 16.21875 28.765625 17.71875 
Q 29.109375 19.234375 29.46875 20.703125 
Q 29.828125 22.171875 30.1875 23.515625 
Q 30.5625 24.859375 30.859375 25.984375 
L 42.828125 68.796875 
L 51.765625 68.796875 
L 63.71875 25.984375 
Q 64.015625 24.859375 64.375 23.515625 
Q 64.75 22.171875 65.109375 20.71875 
Q 65.484375 19.28125 65.8125 17.765625 
Q 66.15625 16.265625 66.5 14.890625 
Q 67.28125 11.625 68.015625 8.203125 
Q 68.0625 8.203125 68.453125 9.890625 
Q 68.84375 11.578125 69.421875 14.109375 
Q 70.015625 16.65625 70.71875 19.609375 
Q 71.4375 22.5625 72.171875 25.09375 
L 84.328125 68.796875 
L 94.046875 68.796875 
z
" id="LiberationSans-57"/>
      </defs>
      <g style="fill:#262626;" transform="translate(348.106013 381.6323)scale(0.14 -0.14)">
       <use xlink:href="#LiberationSans-57"/>
       <use x="94.369141" xlink:href="#LiberationSans-65"/>
       <use x="149.984375" xlink:href="#LiberationSans-64"/>
       <use x="205.599609" xlink:href="#LiberationSans-6e"/>
       <use x="261.214844" xlink:href="#LiberationSans-65"/>
       <use x="316.830078" xlink:href="#LiberationSans-73"/>
       <use x="366.830078" xlink:href="#LiberationSans-64"/>
       <use x="422.445312" xlink:href="#LiberationSans-61"/>
       <use x="478.060547" xlink:href="#LiberationSans-79"/>
      </g>
     </g>
    </g>
    <g id="xtick_5">
     <g id="text_5">
      <!-- Thursday -->
      <defs>
       <path d="M 15.484375 43.796875 
Q 16.9375 46.484375 18.640625 48.359375 
Q 20.359375 50.25 22.40625 51.46875 
Q 24.46875 52.6875 26.90625 53.25 
Q 29.34375 53.8125 32.375 53.8125 
Q 37.453125 53.8125 40.703125 52.4375 
Q 43.953125 51.078125 45.828125 48.609375 
Q 47.703125 46.140625 48.40625 42.71875 
Q 49.125 39.3125 49.125 35.203125 
L 49.125 0 
L 40.28125 0 
L 40.28125 33.5 
Q 40.28125 36.859375 39.859375 39.390625 
Q 39.453125 41.9375 38.28125 43.625 
Q 37.109375 45.3125 34.953125 46.15625 
Q 32.8125 47.015625 29.390625 47.015625 
Q 26.265625 47.015625 23.75 45.890625 
Q 21.234375 44.78125 19.453125 42.71875 
Q 17.671875 40.671875 16.6875 37.734375 
Q 15.71875 34.8125 15.71875 31.15625 
L 15.71875 0 
L 6.9375 0 
L 6.9375 72.46875 
L 15.71875 72.46875 
L 15.71875 53.609375 
Q 15.71875 52 15.671875 50.390625 
Q 15.625 48.78125 15.546875 47.40625 
Q 15.484375 46.046875 15.421875 45.09375 
Q 15.375 44.140625 15.328125 43.796875 
z
" id="LiberationSans-68"/>
       <path d="M 6.9375 0 
L 6.9375 40.53125 
Q 6.9375 42.1875 6.90625 43.921875 
Q 6.890625 45.65625 6.828125 47.265625 
Q 6.78125 48.875 6.734375 50.28125 
Q 6.6875 51.703125 6.640625 52.828125 
L 14.9375 52.828125 
Q 14.984375 51.703125 15.0625 50.265625 
Q 15.140625 48.828125 15.203125 47.3125 
Q 15.28125 45.796875 15.296875 44.40625 
Q 15.328125 43.015625 15.328125 42.046875 
L 15.53125 42.046875 
Q 16.453125 45.0625 17.5 47.28125 
Q 18.5625 49.515625 19.96875 50.953125 
Q 21.390625 52.390625 23.34375 53.09375 
Q 25.296875 53.8125 28.078125 53.8125 
Q 29.15625 53.8125 30.125 53.640625 
Q 31.109375 53.46875 31.640625 53.328125 
L 31.640625 45.265625 
Q 30.765625 45.515625 29.59375 45.625 
Q 28.421875 45.75 26.953125 45.75 
Q 23.921875 45.75 21.796875 44.375 
Q 19.671875 43.015625 18.328125 40.59375 
Q 17 38.1875 16.359375 34.84375 
Q 15.71875 31.5 15.71875 27.546875 
L 15.71875 0 
z
" id="LiberationSans-72"/>
      </defs>
      <g style="fill:#262626;" transform="translate(451.548468 381.6323)scale(0.14 -0.14)">
       <use xlink:href="#LiberationSans-54"/>
       <use x="61.083984" xlink:href="#LiberationSans-68"/>
       <use x="116.699219" xlink:href="#LiberationSans-75"/>
       <use x="172.314453" xlink:href="#LiberationSans-72"/>
       <use x="205.615234" xlink:href="#LiberationSans-73"/>
       <use x="255.615234" xlink:href="#LiberationSans-64"/>
       <use x="311.230469" xlink:href="#LiberationSans-61"/>
       <use x="366.845703" xlink:href="#LiberationSans-79"/>
      </g>
     </g>
    </g>
    <g id="xtick_6">
     <g id="text_6">
      <!-- Friday -->
      <defs>
       <path d="M 17.53125 61.1875 
L 17.53125 35.59375 
L 55.90625 35.59375 
L 55.90625 27.875 
L 17.53125 27.875 
L 17.53125 0 
L 8.203125 0 
L 8.203125 68.796875 
L 57.078125 68.796875 
L 57.078125 61.1875 
z
" id="LiberationSans-46"/>
       <path d="M 6.6875 64.0625 
L 6.6875 72.46875 
L 15.484375 72.46875 
L 15.484375 64.0625 
z
M 6.6875 0 
L 6.6875 52.828125 
L 15.484375 52.828125 
L 15.484375 0 
z
" id="LiberationSans-69"/>
      </defs>
      <g style="fill:#262626;" transform="translate(556.935611 381.6323)scale(0.14 -0.14)">
       <use xlink:href="#LiberationSans-46"/>
       <use x="61.083984" xlink:href="#LiberationSans-72"/>
       <use x="94.384766" xlink:href="#LiberationSans-69"/>
       <use x="116.601562" xlink:href="#LiberationSans-64"/>
       <use x="172.216797" xlink:href="#LiberationSans-61"/>
       <use x="227.832031" xlink:href="#LiberationSans-79"/>
      </g>
     </g>
    </g>
    <g id="xtick_7">
     <g id="text_7">
      <!-- Saturday -->
      <defs>
       <path d="M 27.046875 0.390625 
Q 25.046875 -0.140625 22.96875 -0.453125 
Q 20.90625 -0.78125 18.171875 -0.78125 
Q 7.625 -0.78125 7.625 11.1875 
L 7.625 46.4375 
L 1.515625 46.4375 
L 1.515625 52.828125 
L 7.953125 52.828125 
L 10.546875 64.65625 
L 16.40625 64.65625 
L 16.40625 52.828125 
L 26.171875 52.828125 
L 26.171875 46.4375 
L 16.40625 46.4375 
L 16.40625 13.09375 
Q 16.40625 9.28125 17.640625 7.734375 
Q 18.890625 6.203125 21.96875 6.203125 
Q 23.25 6.203125 24.4375 6.390625 
Q 25.640625 6.59375 27.046875 6.890625 
z
" id="LiberationSans-74"/>
      </defs>
      <g style="fill:#262626;" transform="translate(644.024316 381.6323)scale(0.14 -0.14)">
       <use xlink:href="#LiberationSans-53"/>
       <use x="66.699219" xlink:href="#LiberationSans-61"/>
       <use x="122.314453" xlink:href="#LiberationSans-74"/>
       <use x="150.097656" xlink:href="#LiberationSans-75"/>
       <use x="205.712891" xlink:href="#LiberationSans-72"/>
       <use x="239.013672" xlink:href="#LiberationSans-64"/>
       <use x="294.628906" xlink:href="#LiberationSans-61"/>
       <use x="350.244141" xlink:href="#LiberationSans-79"/>
      </g>
     </g>
    </g>
   </g>
   <g id="matplotlib.axis_2">
    <g id="ytick_1">
     <g id="text_8">
      <!-- 0.6 -->
      <defs>
       <path d="M 51.703125 34.421875 
Q 51.703125 24.515625 49.828125 17.75 
Q 47.953125 10.984375 44.703125 6.8125 
Q 41.453125 2.640625 37.0625 0.828125 
Q 32.671875 -0.984375 27.6875 -0.984375 
Q 22.65625 -0.984375 18.3125 0.828125 
Q 13.96875 2.640625 10.765625 6.78125 
Q 7.5625 10.9375 5.734375 17.703125 
Q 3.90625 24.46875 3.90625 34.421875 
Q 3.90625 44.828125 5.734375 51.640625 
Q 7.5625 58.453125 10.78125 62.5 
Q 14.015625 66.546875 18.40625 68.1875 
Q 22.796875 69.828125 27.984375 69.828125 
Q 32.90625 69.828125 37.21875 68.1875 
Q 41.546875 66.546875 44.765625 62.5 
Q 48 58.453125 49.84375 51.640625 
Q 51.703125 44.828125 51.703125 34.421875 
z
M 42.78125 34.421875 
Q 42.78125 42.625 41.796875 48.0625 
Q 40.828125 53.515625 38.921875 56.765625 
Q 37.015625 60.015625 34.25 61.359375 
Q 31.5 62.703125 27.984375 62.703125 
Q 24.265625 62.703125 21.4375 61.328125 
Q 18.609375 59.96875 16.671875 56.71875 
Q 14.75 53.46875 13.765625 48.015625 
Q 12.796875 42.578125 12.796875 34.421875 
Q 12.796875 26.515625 13.796875 21.09375 
Q 14.796875 15.671875 16.71875 12.375 
Q 18.65625 9.078125 21.4375 7.640625 
Q 24.21875 6.203125 27.78125 6.203125 
Q 31.25 6.203125 34.03125 7.640625 
Q 36.8125 9.078125 38.734375 12.375 
Q 40.671875 15.671875 41.71875 21.09375 
Q 42.78125 26.515625 42.78125 34.421875 
z
" id="LiberationSans-30"/>
       <path d="M 9.125 0 
L 9.125 10.6875 
L 18.65625 10.6875 
L 18.65625 0 
z
" id="LiberationSans-2e"/>
       <path d="M 51.21875 22.515625 
Q 51.21875 17.328125 49.78125 13 
Q 48.34375 8.6875 45.53125 5.578125 
Q 42.71875 2.484375 38.5625 0.75 
Q 34.421875 -0.984375 29 -0.984375 
Q 23 -0.984375 18.5 1.3125 
Q 14.015625 3.609375 11.03125 7.921875 
Q 8.0625 12.25 6.5625 18.53125 
Q 5.078125 24.8125 5.078125 32.8125 
Q 5.078125 42 6.765625 48.921875 
Q 8.453125 55.859375 11.625 60.5 
Q 14.796875 65.140625 19.359375 67.484375 
Q 23.921875 69.828125 29.6875 69.828125 
Q 33.203125 69.828125 36.28125 69.09375 
Q 39.359375 68.359375 41.875 66.71875 
Q 44.390625 65.09375 46.28125 62.40625 
Q 48.1875 59.71875 49.3125 55.8125 
L 40.921875 54.296875 
Q 39.546875 58.734375 36.546875 60.71875 
Q 33.546875 62.703125 29.59375 62.703125 
Q 25.984375 62.703125 23.046875 60.984375 
Q 20.125 59.28125 18.0625 55.875 
Q 16.015625 52.484375 14.90625 47.359375 
Q 13.8125 42.234375 13.8125 35.40625 
Q 16.21875 39.84375 20.5625 42.15625 
Q 24.90625 44.484375 30.515625 44.484375 
Q 35.203125 44.484375 39.015625 42.96875 
Q 42.828125 41.453125 45.53125 38.59375 
Q 48.25 35.75 49.734375 31.671875 
Q 51.21875 27.59375 51.21875 22.515625 
z
M 42.28125 22.125 
Q 42.28125 25.6875 41.40625 28.5625 
Q 40.53125 31.453125 38.765625 33.46875 
Q 37.015625 35.5 34.421875 36.59375 
Q 31.84375 37.703125 28.421875 37.703125 
Q 26.03125 37.703125 23.578125 36.984375 
Q 21.140625 36.28125 19.15625 34.6875 
Q 17.1875 33.109375 15.9375 30.515625 
Q 14.703125 27.9375 14.703125 24.21875 
Q 14.703125 20.40625 15.671875 17.109375 
Q 16.65625 13.8125 18.484375 11.375 
Q 20.3125 8.9375 22.890625 7.515625 
Q 25.484375 6.109375 28.71875 6.109375 
Q 31.890625 6.109375 34.40625 7.203125 
Q 36.921875 8.296875 38.671875 10.375 
Q 40.4375 12.453125 41.359375 15.421875 
Q 42.28125 18.40625 42.28125 22.125 
z
" id="LiberationSans-36"/>
      </defs>
      <g style="fill:#262626;" transform="translate(27.3082 356.826965)scale(0.14 -0.14)">
       <use xlink:href="#LiberationSans-30"/>
       <use x="55.615234" xlink:href="#LiberationSans-2e"/>
       <use x="83.398438" xlink:href="#LiberationSans-36"/>
      </g>
     </g>
    </g>
    <g id="ytick_2">
     <g id="text_9">
      <!-- 0.8 -->
      <defs>
       <path d="M 51.265625 19.1875 
Q 51.265625 14.796875 49.875 11.109375 
Q 48.484375 7.421875 45.625 4.734375 
Q 42.78125 2.046875 38.328125 0.53125 
Q 33.890625 -0.984375 27.828125 -0.984375 
Q 21.78125 -0.984375 17.359375 0.53125 
Q 12.9375 2.046875 10.03125 4.703125 
Q 7.125 7.375 5.734375 11.0625 
Q 4.34375 14.75 4.34375 19.09375 
Q 4.34375 22.859375 5.484375 25.78125 
Q 6.640625 28.71875 8.5625 30.828125 
Q 10.5 32.953125 12.96875 34.25 
Q 15.4375 35.546875 18.0625 35.984375 
L 18.0625 36.1875 
Q 15.1875 36.859375 12.90625 38.375 
Q 10.640625 39.890625 9.09375 42.015625 
Q 7.5625 44.140625 6.75 46.71875 
Q 5.953125 49.3125 5.953125 52.203125 
Q 5.953125 55.8125 7.34375 59 
Q 8.734375 62.203125 11.46875 64.625 
Q 14.203125 67.046875 18.25 68.4375 
Q 22.3125 69.828125 27.640625 69.828125 
Q 33.25 69.828125 37.375 68.40625 
Q 41.5 67 44.203125 64.578125 
Q 46.921875 62.15625 48.234375 58.9375 
Q 49.5625 55.71875 49.5625 52.09375 
Q 49.5625 49.265625 48.75 46.671875 
Q 47.953125 44.09375 46.40625 41.96875 
Q 44.875 39.84375 42.59375 38.34375 
Q 40.328125 36.859375 37.359375 36.28125 
L 37.359375 36.078125 
Q 40.328125 35.59375 42.859375 34.296875 
Q 45.40625 33.015625 47.265625 30.890625 
Q 49.125 28.765625 50.1875 25.828125 
Q 51.265625 22.90625 51.265625 19.1875 
z
M 40.4375 51.609375 
Q 40.4375 54.203125 39.765625 56.34375 
Q 39.109375 58.5 37.59375 60.03125 
Q 36.078125 61.578125 33.640625 62.421875 
Q 31.203125 63.28125 27.640625 63.28125 
Q 24.171875 63.28125 21.78125 62.421875 
Q 19.390625 61.578125 17.84375 60.03125 
Q 16.3125 58.5 15.625 56.34375 
Q 14.9375 54.203125 14.9375 51.609375 
Q 14.9375 49.5625 15.46875 47.40625 
Q 16.015625 45.265625 17.421875 43.5 
Q 18.84375 41.75 21.328125 40.625 
Q 23.828125 39.5 27.734375 39.5 
Q 31.890625 39.5 34.40625 40.625 
Q 36.921875 41.75 38.25 43.5 
Q 39.59375 45.265625 40.015625 47.40625 
Q 40.4375 49.5625 40.4375 51.609375 
z
M 42.140625 20.015625 
Q 42.140625 22.515625 41.453125 24.828125 
Q 40.765625 27.15625 39.109375 28.9375 
Q 37.453125 30.71875 34.640625 31.8125 
Q 31.84375 32.90625 27.640625 32.90625 
Q 23.78125 32.90625 21.0625 31.8125 
Q 18.359375 30.71875 16.671875 28.90625 
Q 14.984375 27.09375 14.203125 24.71875 
Q 13.421875 22.359375 13.421875 19.828125 
Q 13.421875 16.65625 14.203125 14.03125 
Q 14.984375 11.421875 16.6875 9.546875 
Q 18.40625 7.671875 21.1875 6.640625 
Q 23.96875 5.609375 27.9375 5.609375 
Q 31.9375 5.609375 34.671875 6.640625 
Q 37.40625 7.671875 39.0625 9.546875 
Q 40.71875 11.421875 41.421875 14.078125 
Q 42.140625 16.75 42.140625 20.015625 
z
" id="LiberationSans-38"/>
      </defs>
      <g style="fill:#262626;" transform="translate(27.3082 297.615976)scale(0.14 -0.14)">
       <use xlink:href="#LiberationSans-30"/>
       <use x="55.615234" xlink:href="#LiberationSans-2e"/>
       <use x="83.398438" xlink:href="#LiberationSans-38"/>
      </g>
     </g>
    </g>
    <g id="ytick_3">
     <g id="text_10">
      <!-- 1.0 -->
      <defs>
       <path d="M 7.625 0 
L 7.625 7.46875 
L 25.140625 7.46875 
L 25.140625 60.40625 
L 9.625 49.3125 
L 9.625 57.625 
L 25.875 68.796875 
L 33.984375 68.796875 
L 33.984375 7.46875 
L 50.734375 7.46875 
L 50.734375 0 
z
" id="LiberationSans-31"/>
      </defs>
      <g style="fill:#262626;" transform="translate(27.3082 238.404986)scale(0.14 -0.14)">
       <use xlink:href="#LiberationSans-31"/>
       <use x="55.615234" xlink:href="#LiberationSans-2e"/>
       <use x="83.398438" xlink:href="#LiberationSans-30"/>
      </g>
     </g>
    </g>
    <g id="ytick_4">
     <g id="text_11">
      <!-- 1.2 -->
      <defs>
       <path d="M 5.03125 0 
L 5.03125 6.203125 
Q 7.515625 11.921875 11.109375 16.28125 
Q 14.703125 20.65625 18.65625 24.1875 
Q 22.609375 27.734375 26.484375 30.765625 
Q 30.375 33.796875 33.5 36.8125 
Q 36.625 39.84375 38.546875 43.15625 
Q 40.484375 46.484375 40.484375 50.6875 
Q 40.484375 53.609375 39.59375 55.828125 
Q 38.71875 58.0625 37.0625 59.5625 
Q 35.40625 61.078125 33.078125 61.828125 
Q 30.765625 62.59375 27.9375 62.59375 
Q 25.296875 62.59375 22.96875 61.859375 
Q 20.65625 61.140625 18.84375 59.671875 
Q 17.046875 58.203125 15.890625 56.03125 
Q 14.75 53.859375 14.40625 50.984375 
L 5.421875 51.8125 
Q 5.859375 55.515625 7.46875 58.78125 
Q 9.078125 62.0625 11.90625 64.53125 
Q 14.75 67 18.71875 68.40625 
Q 22.703125 69.828125 27.9375 69.828125 
Q 33.0625 69.828125 37.0625 68.609375 
Q 41.0625 67.390625 43.8125 64.984375 
Q 46.578125 62.59375 48.046875 59.078125 
Q 49.515625 55.5625 49.515625 50.984375 
Q 49.515625 47.515625 48.265625 44.390625 
Q 47.015625 41.265625 44.9375 38.421875 
Q 42.875 35.59375 40.140625 32.953125 
Q 37.40625 30.328125 34.421875 27.8125 
Q 31.453125 25.296875 28.421875 22.828125 
Q 25.390625 20.359375 22.71875 17.859375 
Q 20.0625 15.375 17.96875 12.8125 
Q 15.875 10.25 14.703125 7.46875 
L 50.59375 7.46875 
L 50.59375 0 
z
" id="LiberationSans-32"/>
      </defs>
      <g style="fill:#262626;" transform="translate(27.3082 179.193997)scale(0.14 -0.14)">
       <use xlink:href="#LiberationSans-31"/>
       <use x="55.615234" xlink:href="#LiberationSans-2e"/>
       <use x="83.398438" xlink:href="#LiberationSans-32"/>
      </g>
     </g>
    </g>
    <g id="ytick_5">
     <g id="text_12">
      <!-- 1.4 -->
      <defs>
       <path d="M 43.015625 15.578125 
L 43.015625 0 
L 34.71875 0 
L 34.71875 15.578125 
L 2.296875 15.578125 
L 2.296875 22.40625 
L 33.796875 68.796875 
L 43.015625 68.796875 
L 43.015625 22.515625 
L 52.6875 22.515625 
L 52.6875 15.578125 
z
M 34.71875 58.890625 
Q 34.625 58.640625 34.234375 57.9375 
Q 33.84375 57.234375 33.34375 56.34375 
Q 32.859375 55.46875 32.34375 54.5625 
Q 31.84375 53.65625 31.453125 53.078125 
L 13.8125 27.09375 
Q 13.578125 26.703125 13.109375 26.0625 
Q 12.640625 25.4375 12.15625 24.78125 
Q 11.671875 24.125 11.171875 23.484375 
Q 10.6875 22.859375 10.40625 22.515625 
L 34.71875 22.515625 
z
" id="LiberationSans-34"/>
      </defs>
      <g style="fill:#262626;" transform="translate(27.3082 119.983008)scale(0.14 -0.14)">
       <use xlink:href="#LiberationSans-31"/>
       <use x="55.615234" xlink:href="#LiberationSans-2e"/>
       <use x="83.398438" xlink:href="#LiberationSans-34"/>
      </g>
     </g>
    </g>
    <g id="ytick_6">
     <g id="text_13">
      <!-- 1.6 -->
      <g style="fill:#262626;" transform="translate(27.3082 60.772019)scale(0.14 -0.14)">
       <use xlink:href="#LiberationSans-31"/>
       <use x="55.615234" xlink:href="#LiberationSans-2e"/>
       <use x="83.398438" xlink:href="#LiberationSans-36"/>
      </g>
     </g>
    </g>
    <g id="text_14">
     <!-- Accident Ratio: End DST Week / Week Before -->
     <defs>
      <path d="M 56.984375 0 
L 49.125 20.125 
L 17.78125 20.125 
L 9.859375 0 
L 0.203125 0 
L 28.265625 68.796875 
L 38.875 68.796875 
L 66.5 0 
z
M 37.5 50.09375 
Q 36.71875 52.046875 36 54.046875 
Q 35.296875 56.0625 34.765625 57.6875 
Q 34.234375 59.328125 33.859375 60.421875 
Q 33.5 61.53125 33.453125 61.765625 
Q 33.34375 61.53125 33 60.40625 
Q 32.671875 59.28125 32.109375 57.609375 
Q 31.546875 55.953125 30.828125 53.953125 
Q 30.125 51.953125 29.390625 50 
L 20.609375 27.390625 
L 46.34375 27.390625 
z
" id="LiberationSans-41"/>
      <path d="M 13.421875 26.65625 
Q 13.421875 22.125 14.078125 18.3125 
Q 14.75 14.5 16.3125 11.734375 
Q 17.875 8.984375 20.4375 7.46875 
Q 23 5.953125 26.765625 5.953125 
Q 31.453125 5.953125 34.59375 8.484375 
Q 37.75 11.03125 38.484375 16.3125 
L 47.359375 15.71875 
Q 46.921875 12.453125 45.453125 9.421875 
Q 44 6.390625 41.484375 4.09375 
Q 38.96875 1.8125 35.34375 0.40625 
Q 31.734375 -0.984375 27 -0.984375 
Q 20.796875 -0.984375 16.453125 1.109375 
Q 12.109375 3.21875 9.390625 6.90625 
Q 6.6875 10.59375 5.46875 15.59375 
Q 4.25 20.609375 4.25 26.46875 
Q 4.25 31.78125 5.125 35.859375 
Q 6 39.9375 7.59375 42.984375 
Q 9.1875 46.046875 11.328125 48.125 
Q 13.484375 50.203125 15.984375 51.4375 
Q 18.5 52.6875 21.28125 53.25 
Q 24.078125 53.8125 26.90625 53.8125 
Q 31.34375 53.8125 34.8125 52.59375 
Q 38.28125 51.375 40.796875 49.25 
Q 43.3125 47.125 44.875 44.234375 
Q 46.4375 41.359375 47.078125 38.03125 
L 38.03125 37.359375 
Q 37.359375 41.75 34.5625 44.328125 
Q 31.78125 46.921875 26.65625 46.921875 
Q 22.90625 46.921875 20.390625 45.671875 
Q 17.875 44.4375 16.3125 41.921875 
Q 14.75 39.40625 14.078125 35.59375 
Q 13.421875 31.78125 13.421875 26.65625 
z
" id="LiberationSans-63"/>
      <path d="M 56.84375 0 
L 38.96875 28.5625 
L 17.53125 28.5625 
L 17.53125 0 
L 8.203125 0 
L 8.203125 68.796875 
L 40.578125 68.796875 
Q 46.4375 68.796875 50.953125 67.453125 
Q 55.46875 66.109375 58.546875 63.5625 
Q 61.625 61.03125 63.234375 57.375 
Q 64.84375 53.71875 64.84375 49.125 
Q 64.84375 45.84375 63.890625 42.671875 
Q 62.9375 39.5 60.890625 36.859375 
Q 58.84375 34.234375 55.65625 32.328125 
Q 52.484375 30.421875 48.046875 29.640625 
L 67.578125 0 
z
M 55.46875 49.03125 
Q 55.46875 52.15625 54.390625 54.4375 
Q 53.328125 56.734375 51.265625 58.265625 
Q 49.21875 59.8125 46.28125 60.5625 
Q 43.359375 61.328125 39.65625 61.328125 
L 17.53125 61.328125 
L 17.53125 35.9375 
L 40.046875 35.9375 
Q 44.046875 35.9375 46.96875 36.9375 
Q 49.90625 37.9375 51.78125 39.6875 
Q 53.65625 41.453125 54.5625 43.84375 
Q 55.46875 46.234375 55.46875 49.03125 
z
" id="LiberationSans-52"/>
      <path d="M 9.125 42.71875 
L 9.125 52.828125 
L 18.65625 52.828125 
L 18.65625 42.71875 
z
M 9.125 0 
L 9.125 10.109375 
L 18.65625 10.109375 
L 18.65625 0 
z
" id="LiberationSans-3a"/>
      <path d="M 39.84375 0 
L 21.96875 24.125 
L 15.53125 18.796875 
L 15.53125 0 
L 6.734375 0 
L 6.734375 72.46875 
L 15.53125 72.46875 
L 15.53125 27.203125 
L 38.71875 52.828125 
L 49.03125 52.828125 
L 27.59375 30.125 
L 50.140625 0 
z
" id="LiberationSans-6b"/>
      <path d="M 0 -0.984375 
L 20.0625 72.46875 
L 27.78125 72.46875 
L 7.90625 -0.984375 
z
" id="LiberationSans-2f"/>
      <path d="M 61.421875 19.390625 
Q 61.421875 14.15625 59.375 10.46875 
Q 57.328125 6.78125 53.859375 4.46875 
Q 50.390625 2.15625 45.796875 1.078125 
Q 41.21875 0 36.140625 0 
L 8.203125 0 
L 8.203125 68.796875 
L 33.203125 68.796875 
Q 38.921875 68.796875 43.40625 67.84375 
Q 47.90625 66.890625 51.03125 64.84375 
Q 54.15625 62.796875 55.78125 59.640625 
Q 57.421875 56.5 57.421875 52.09375 
Q 57.421875 49.21875 56.609375 46.671875 
Q 55.8125 44.140625 54.171875 42.0625 
Q 52.546875 39.984375 50.078125 38.5 
Q 47.609375 37.015625 44.34375 36.28125 
Q 48.484375 35.796875 51.6875 34.375 
Q 54.890625 32.953125 57.03125 30.75 
Q 59.1875 28.5625 60.296875 25.65625 
Q 61.421875 22.75 61.421875 19.390625 
z
M 48.046875 50.984375 
Q 48.046875 56.546875 44.234375 58.9375 
Q 40.4375 61.328125 33.203125 61.328125 
L 17.53125 61.328125 
L 17.53125 39.546875 
L 33.203125 39.546875 
Q 37.3125 39.546875 40.140625 40.34375 
Q 42.96875 41.15625 44.71875 42.640625 
Q 46.484375 44.140625 47.265625 46.234375 
Q 48.046875 48.34375 48.046875 50.984375 
z
M 52 20.125 
Q 52 23.390625 50.796875 25.6875 
Q 49.609375 27.984375 47.359375 29.4375 
Q 45.125 30.90625 41.96875 31.59375 
Q 38.8125 32.28125 34.90625 32.28125 
L 17.53125 32.28125 
L 17.53125 7.46875 
L 35.640625 7.46875 
Q 39.203125 7.46875 42.203125 8.046875 
Q 45.21875 8.640625 47.390625 10.109375 
Q 49.5625 11.578125 50.78125 14.015625 
Q 52 16.453125 52 20.125 
z
" id="LiberationSans-42"/>
      <path d="M 17.625 46.4375 
L 17.625 0 
L 8.84375 0 
L 8.84375 46.4375 
L 1.421875 46.4375 
L 1.421875 52.828125 
L 8.84375 52.828125 
L 8.84375 58.796875 
Q 8.84375 61.671875 9.375 64.140625 
Q 9.90625 66.609375 11.34375 68.4375 
Q 12.796875 70.265625 15.28125 71.3125 
Q 17.78125 72.359375 21.734375 72.359375 
Q 23.296875 72.359375 24.96875 72.21875 
Q 26.65625 72.078125 27.9375 71.78125 
L 27.9375 65.09375 
Q 27.09375 65.234375 26 65.359375 
Q 24.90625 65.484375 24.03125 65.484375 
Q 22.078125 65.484375 20.828125 64.9375 
Q 19.578125 64.40625 18.875 63.40625 
Q 18.171875 62.40625 17.890625 60.9375 
Q 17.625 59.46875 17.625 57.5625 
L 17.625 52.828125 
L 27.9375 52.828125 
L 27.9375 46.4375 
z
" id="LiberationSans-66"/>
     </defs>
     <g style="fill:#262626;" transform="translate(19.7226 382.087425)rotate(-90)scale(0.1728 -0.1728)">
      <use xlink:href="#LiberationSans-41"/>
      <use x="66.699219" xlink:href="#LiberationSans-63"/>
      <use x="116.699219" xlink:href="#LiberationSans-63"/>
      <use x="166.699219" xlink:href="#LiberationSans-69"/>
      <use x="188.916016" xlink:href="#LiberationSans-64"/>
      <use x="244.53125" xlink:href="#LiberationSans-65"/>
      <use x="300.146484" xlink:href="#LiberationSans-6e"/>
      <use x="355.761719" xlink:href="#LiberationSans-74"/>
      <use x="383.544922" xlink:href="#LiberationSans-20"/>
      <use x="411.328125" xlink:href="#LiberationSans-52"/>
      <use x="483.544922" xlink:href="#LiberationSans-61"/>
      <use x="539.160156" xlink:href="#LiberationSans-74"/>
      <use x="566.943359" xlink:href="#LiberationSans-69"/>
      <use x="589.160156" xlink:href="#LiberationSans-6f"/>
      <use x="644.775391" xlink:href="#LiberationSans-3a"/>
      <use x="672.558594" xlink:href="#LiberationSans-20"/>
      <use x="700.341797" xlink:href="#LiberationSans-45"/>
      <use x="767.041016" xlink:href="#LiberationSans-6e"/>
      <use x="822.65625" xlink:href="#LiberationSans-64"/>
      <use x="878.271484" xlink:href="#LiberationSans-20"/>
      <use x="906.054688" xlink:href="#LiberationSans-44"/>
      <use x="978.271484" xlink:href="#LiberationSans-53"/>
      <use x="1044.970703" xlink:href="#LiberationSans-54"/>
      <use x="1106.039062" xlink:href="#LiberationSans-20"/>
      <use x="1133.822266" xlink:href="#LiberationSans-57"/>
      <use x="1228.191406" xlink:href="#LiberationSans-65"/>
      <use x="1283.806641" xlink:href="#LiberationSans-65"/>
      <use x="1339.421875" xlink:href="#LiberationSans-6b"/>
      <use x="1389.421875" xlink:href="#LiberationSans-20"/>
      <use x="1417.205078" xlink:href="#LiberationSans-2f"/>
      <use x="1444.988281" xlink:href="#LiberationSans-20"/>
      <use x="1472.771484" xlink:href="#LiberationSans-57"/>
      <use x="1567.140625" xlink:href="#LiberationSans-65"/>
      <use x="1622.755859" xlink:href="#LiberationSans-65"/>
      <use x="1678.371094" xlink:href="#LiberationSans-6b"/>
      <use x="1728.371094" xlink:href="#LiberationSans-20"/>
      <use x="1756.154297" xlink:href="#LiberationSans-42"/>
      <use x="1822.853516" xlink:href="#LiberationSans-65"/>
      <use x="1878.46875" xlink:href="#LiberationSans-66"/>
      <use x="1906.251953" xlink:href="#LiberationSans-6f"/>
      <use x="1961.867188" xlink:href="#LiberationSans-72"/>
      <use x="1995.167969" xlink:href="#LiberationSans-65"/>
     </g>
    </g>
   </g>
   <g id="PolyCollection_1">
    <defs>
     <path d="M 99.067611 -97.493733 
L 97.125932 -97.493733 
L 96.883008 -98.853703 
L 96.592205 -100.213674 
L 96.247486 -101.573645 
L 95.842858 -102.933615 
L 95.372589 -104.293586 
L 94.831444 -105.653557 
L 94.214959 -107.013527 
L 93.519717 -108.373498 
L 92.74363 -109.733469 
L 91.886208 -111.093439 
L 90.948793 -112.45341 
L 89.934746 -113.813381 
L 88.849559 -115.173351 
L 87.700888 -116.533322 
L 86.498475 -117.893293 
L 85.253964 -119.253263 
L 83.980597 -120.613234 
L 82.692795 -121.973205 
L 81.405639 -123.333175 
L 80.134262 -124.693146 
L 78.893186 -126.053117 
L 77.695643 -127.413087 
L 76.552914 -128.773058 
L 75.473738 -130.133029 
L 74.463832 -131.493 
L 73.52557 -132.85297 
L 72.657853 -134.212941 
L 71.856192 -135.572912 
L 71.113024 -136.932882 
L 70.418246 -138.292853 
L 69.759953 -139.652824 
L 69.125329 -141.012794 
L 68.501646 -142.372765 
L 67.877304 -143.732736 
L 67.242829 -145.092706 
L 66.591762 -146.452677 
L 65.921361 -147.812648 
L 65.233069 -149.172618 
L 64.532681 -150.532589 
L 63.830212 -151.89256 
L 63.139452 -153.25253 
L 62.477238 -154.612501 
L 61.862479 -155.972472 
L 61.315027 -157.332442 
L 60.854443 -158.692413 
L 60.498768 -160.052384 
L 60.263384 -161.412354 
L 60.16004 -162.772325 
L 60.196115 -164.132296 
L 60.374173 -165.492266 
L 60.691824 -166.852237 
L 61.141911 -168.212208 
L 61.712982 -169.572178 
L 62.390017 -170.932149 
L 63.155357 -172.29212 
L 63.989739 -173.65209 
L 64.873395 -175.012061 
L 65.787111 -176.372032 
L 66.713194 -177.732002 
L 67.636285 -179.091973 
L 68.543977 -180.451944 
L 69.427211 -181.811914 
L 70.280442 -183.171885 
L 71.101586 -184.531856 
L 71.891761 -185.891826 
L 72.654874 -187.251797 
L 73.397063 -188.611768 
L 74.126071 -189.971738 
L 74.850577 -191.331709 
L 75.579525 -192.69168 
L 76.321501 -194.05165 
L 77.084175 -195.411621 
L 77.873842 -196.771592 
L 78.695071 -198.131563 
L 79.550468 -199.491533 
L 80.440566 -200.851504 
L 81.363821 -202.211475 
L 82.316721 -203.571445 
L 83.293977 -204.931416 
L 84.288798 -206.291387 
L 85.293215 -207.651357 
L 86.298442 -209.011328 
L 87.295258 -210.371299 
L 88.274382 -211.731269 
L 89.22683 -213.09124 
L 90.144238 -214.451211 
L 91.019135 -215.811181 
L 91.845162 -217.171152 
L 92.617225 -218.531123 
L 93.331585 -219.891093 
L 93.985885 -221.251064 
L 94.579114 -222.611035 
L 95.111528 -223.971005 
L 95.584517 -225.330976 
L 96.00045 -226.690947 
L 96.362495 -228.050917 
L 96.67443 -229.410888 
L 96.940458 -230.770859 
L 97.165024 -232.130829 
L 99.028519 -232.130829 
L 99.028519 -232.130829 
L 99.253085 -230.770859 
L 99.519112 -229.410888 
L 99.831048 -228.050917 
L 100.193092 -226.690947 
L 100.609026 -225.330976 
L 101.082015 -223.971005 
L 101.614429 -222.611035 
L 102.207658 -221.251064 
L 102.861958 -219.891093 
L 103.576318 -218.531123 
L 104.348381 -217.171152 
L 105.174408 -215.811181 
L 106.049305 -214.451211 
L 106.966713 -213.09124 
L 107.919161 -211.731269 
L 108.898285 -210.371299 
L 109.895101 -209.011328 
L 110.900328 -207.651357 
L 111.904745 -206.291387 
L 112.899566 -204.931416 
L 113.876822 -203.571445 
L 114.829722 -202.211475 
L 115.752977 -200.851504 
L 116.643074 -199.491533 
L 117.498472 -198.131563 
L 118.3197 -196.771592 
L 119.109368 -195.411621 
L 119.872042 -194.05165 
L 120.614018 -192.69168 
L 121.342966 -191.331709 
L 122.067472 -189.971738 
L 122.79648 -188.611768 
L 123.538669 -187.251797 
L 124.301781 -185.891826 
L 125.091957 -184.531856 
L 125.9131 -183.171885 
L 126.766332 -181.811914 
L 127.649566 -180.451944 
L 128.557258 -179.091973 
L 129.480349 -177.732002 
L 130.406432 -176.372032 
L 131.320148 -175.012061 
L 132.203804 -173.65209 
L 133.038186 -172.29212 
L 133.803526 -170.932149 
L 134.480561 -169.572178 
L 135.051632 -168.212208 
L 135.501719 -166.852237 
L 135.81937 -165.492266 
L 135.997427 -164.132296 
L 136.033503 -162.772325 
L 135.930159 -161.412354 
L 135.694775 -160.052384 
L 135.3391 -158.692413 
L 134.878516 -157.332442 
L 134.331064 -155.972472 
L 133.716305 -154.612501 
L 133.05409 -153.25253 
L 132.363331 -151.89256 
L 131.660862 -150.532589 
L 130.960474 -149.172618 
L 130.272181 -147.812648 
L 129.601781 -146.452677 
L 128.950714 -145.092706 
L 128.316239 -143.732736 
L 127.691897 -142.372765 
L 127.068214 -141.012794 
L 126.43359 -139.652824 
L 125.775297 -138.292853 
L 125.080519 -136.932882 
L 124.337351 -135.572912 
L 123.53569 -134.212941 
L 122.667972 -132.85297 
L 121.729711 -131.493 
L 120.719805 -130.133029 
L 119.640629 -128.773058 
L 118.4979 -127.413087 
L 117.300357 -126.053117 
L 116.059281 -124.693146 
L 114.787904 -123.333175 
L 113.500748 -121.973205 
L 112.212946 -120.613234 
L 110.939579 -119.253263 
L 109.695067 -117.893293 
L 108.492654 -116.533322 
L 107.343983 -115.173351 
L 106.258797 -113.813381 
L 105.24475 -112.45341 
L 104.307335 -111.093439 
L 103.449913 -109.733469 
L 102.673826 -108.373498 
L 101.978584 -107.013527 
L 101.362099 -105.653557 
L 100.820954 -104.293586 
L 100.350685 -102.933615 
L 99.946057 -101.573645 
L 99.601338 -100.213674 
L 99.310535 -98.853703 
L 99.067611 -97.493733 
z
" id="m8a7745a2ee" style="stroke:#414141;stroke-width:2;"/>
    </defs>
    <g clip-path="url(#p4d2f8d2236)">
     <use style="fill:#e68193;stroke:#414141;stroke-width:2;" x="0" xlink:href="#m8a7745a2ee" y="391.7373"/>
    </g>
   </g>
   <g id="PolyCollection_2">
    <defs>
     <path d="M 194.525086 -90.481586 
L 192.982743 -90.481586 
L 192.774043 -92.439416 
L 192.520306 -94.397246 
L 192.215046 -96.355075 
L 191.851669 -98.312905 
L 191.423697 -100.270735 
L 190.925033 -102.228565 
L 190.350277 -104.186395 
L 189.695058 -106.144225 
L 188.956392 -108.102055 
L 188.13304 -110.059884 
L 187.225838 -112.017714 
L 186.237986 -113.975544 
L 185.175261 -115.933374 
L 184.046139 -117.891204 
L 182.861787 -119.849034 
L 181.635925 -121.806864 
L 180.384529 -123.764694 
L 179.125391 -125.722523 
L 177.877523 -127.680353 
L 176.660439 -129.638183 
L 175.493347 -131.596013 
L 174.394285 -133.553843 
L 173.379253 -135.511673 
L 172.461411 -137.469503 
L 171.650374 -139.427332 
L 170.951688 -141.385162 
L 170.366511 -143.342992 
L 169.891546 -145.300822 
L 169.519232 -147.258652 
L 169.238207 -149.216482 
L 169.034007 -151.174312 
L 168.889974 -153.132142 
L 168.788312 -155.089971 
L 168.711215 -157.047801 
L 168.642013 -159.005631 
L 168.566232 -160.963461 
L 168.472517 -162.921291 
L 168.353342 -164.879121 
L 168.205464 -166.836951 
L 168.030099 -168.79478 
L 167.832791 -170.75261 
L 167.623019 -172.71044 
L 167.41354 -174.66827 
L 167.219546 -176.6261 
L 167.057676 -178.58393 
L 166.94497 -180.54176 
L 166.897823 -182.49959 
L 166.931018 -184.457419 
L 167.056887 -186.415249 
L 167.284661 -188.373079 
L 167.620032 -190.330909 
L 168.064935 -192.288739 
L 168.617568 -194.246569 
L 169.272609 -196.204399 
L 170.021612 -198.162228 
L 170.853535 -200.120058 
L 171.755354 -202.077888 
L 172.712722 -204.035718 
L 173.710619 -205.993548 
L 174.73396 -207.951378 
L 175.768134 -209.909208 
L 176.799458 -211.867037 
L 177.815523 -213.824867 
L 178.805458 -215.782697 
L 179.760087 -217.740527 
L 180.672017 -219.698357 
L 181.535663 -221.656187 
L 182.347208 -223.614017 
L 183.104535 -225.571847 
L 183.807116 -227.529676 
L 184.455879 -229.487506 
L 185.053041 -231.445336 
L 185.601928 -233.403166 
L 186.10676 -235.360996 
L 186.572419 -237.318826 
L 187.004203 -239.276656 
L 187.407566 -241.234485 
L 187.787862 -243.192315 
L 188.150097 -245.150145 
L 188.498717 -247.107975 
L 188.837422 -249.065805 
L 189.169044 -251.023635 
L 189.495473 -252.981465 
L 189.817645 -254.939295 
L 190.135598 -256.897124 
L 190.448573 -258.854954 
L 190.755158 -260.812784 
L 191.053471 -262.770614 
L 191.341349 -264.728444 
L 191.616544 -266.686274 
L 191.876897 -268.644104 
L 192.120495 -270.601933 
L 192.345791 -272.559763 
L 192.551684 -274.517593 
L 192.737561 -276.475423 
L 192.903303 -278.433253 
L 193.049256 -280.391083 
L 193.17618 -282.348913 
L 193.285176 -284.306743 
L 194.222652 -284.306743 
L 194.222652 -284.306743 
L 194.331649 -282.348913 
L 194.458573 -280.391083 
L 194.604526 -278.433253 
L 194.770267 -276.475423 
L 194.956144 -274.517593 
L 195.162037 -272.559763 
L 195.387333 -270.601933 
L 195.630932 -268.644104 
L 195.891284 -266.686274 
L 196.166479 -264.728444 
L 196.454358 -262.770614 
L 196.752671 -260.812784 
L 197.059256 -258.854954 
L 197.37223 -256.897124 
L 197.690184 -254.939295 
L 198.012356 -252.981465 
L 198.338784 -251.023635 
L 198.670406 -249.065805 
L 199.009112 -247.107975 
L 199.357731 -245.150145 
L 199.719967 -243.192315 
L 200.100262 -241.234485 
L 200.503626 -239.276656 
L 200.93541 -237.318826 
L 201.401069 -235.360996 
L 201.905901 -233.403166 
L 202.454788 -231.445336 
L 203.05195 -229.487506 
L 203.700712 -227.529676 
L 204.403293 -225.571847 
L 205.16062 -223.614017 
L 205.972166 -221.656187 
L 206.835811 -219.698357 
L 207.747742 -217.740527 
L 208.70237 -215.782697 
L 209.692305 -213.824867 
L 210.708371 -211.867037 
L 211.739694 -209.909208 
L 212.773869 -207.951378 
L 213.797209 -205.993548 
L 214.795106 -204.035718 
L 215.752475 -202.077888 
L 216.654294 -200.120058 
L 217.486216 -198.162228 
L 218.235219 -196.204399 
L 218.89026 -194.246569 
L 219.442894 -192.288739 
L 219.887797 -190.330909 
L 220.223167 -188.373079 
L 220.450942 -186.415249 
L 220.576811 -184.457419 
L 220.610005 -182.49959 
L 220.562858 -180.54176 
L 220.450152 -178.58393 
L 220.288282 -176.6261 
L 220.094288 -174.66827 
L 219.884809 -172.71044 
L 219.675037 -170.75261 
L 219.47773 -168.79478 
L 219.302364 -166.836951 
L 219.154487 -164.879121 
L 219.035312 -162.921291 
L 218.941597 -160.963461 
L 218.865816 -159.005631 
L 218.796614 -157.047801 
L 218.719517 -155.089971 
L 218.617854 -153.132142 
L 218.473822 -151.174312 
L 218.269622 -149.216482 
L 217.988597 -147.258652 
L 217.616283 -145.300822 
L 217.141317 -143.342992 
L 216.556141 -141.385162 
L 215.857455 -139.427332 
L 215.046418 -137.469503 
L 214.128575 -135.511673 
L 213.113544 -133.553843 
L 212.014482 -131.596013 
L 210.84739 -129.638183 
L 209.630306 -127.680353 
L 208.382437 -125.722523 
L 207.123299 -123.764694 
L 205.871904 -121.806864 
L 204.646041 -119.849034 
L 203.461689 -117.891204 
L 202.332567 -115.933374 
L 201.269843 -113.975544 
L 200.281991 -112.017714 
L 199.374788 -110.059884 
L 198.551436 -108.102055 
L 197.812771 -106.144225 
L 197.157551 -104.186395 
L 196.582795 -102.228565 
L 196.084132 -100.270735 
L 195.656159 -98.312905 
L 195.292783 -96.355075 
L 194.987523 -94.397246 
L 194.733786 -92.439416 
L 194.525086 -90.481586 
z
" id="mfabeff107d" style="stroke:#414141;stroke-width:2;"/>
    </defs>
    <g clip-path="url(#p4d2f8d2236)">
     <use style="fill:#b38e44;stroke:#414141;stroke-width:2;" x="0" xlink:href="#mfabeff107d" y="391.7373"/>
    </g>
   </g>
   <g id="PolyCollection_3">
    <defs>
     <path d="M 289.983105 -65.537929 
L 288.83901 -65.537929 
L 288.674701 -68.260628 
L 288.473669 -70.983328 
L 288.230749 -73.706027 
L 287.940821 -76.428727 
L 287.599009 -79.151426 
L 287.200902 -81.874125 
L 286.742791 -84.596825 
L 286.221903 -87.319524 
L 285.636625 -90.042224 
L 284.986696 -92.764923 
L 284.273357 -95.487622 
L 283.499453 -98.210322 
L 282.669465 -100.933021 
L 281.78947 -103.655721 
L 280.867029 -106.37842 
L 279.910998 -109.10112 
L 278.931272 -111.823819 
L 277.93846 -114.546518 
L 276.943518 -117.269218 
L 275.957343 -119.991917 
L 274.990363 -122.714617 
L 274.052126 -125.437316 
L 273.150941 -128.160015 
L 272.293565 -130.882715 
L 271.484995 -133.605414 
L 270.72836 -136.328114 
L 270.024944 -139.050813 
L 269.374346 -141.773512 
L 268.774772 -144.496212 
L 268.223448 -147.218911 
L 267.717128 -149.941611 
L 267.252662 -152.66431 
L 266.82757 -155.387009 
L 266.440581 -158.109709 
L 266.092086 -160.832408 
L 265.784442 -163.555108 
L 265.522114 -166.277807 
L 265.311618 -169.000507 
L 265.161258 -171.723206 
L 265.080682 -174.445905 
L 265.080284 -177.168605 
L 265.170485 -179.891304 
L 265.360978 -182.614004 
L 265.659963 -185.336703 
L 266.073468 -188.059402 
L 266.604776 -190.782102 
L 267.25402 -193.504801 
L 268.017968 -196.227501 
L 268.889992 -198.9502 
L 269.860244 -201.672899 
L 270.915983 -204.395599 
L 272.04205 -207.118298 
L 273.221443 -209.840998 
L 274.435944 -212.563697 
L 275.666772 -215.286396 
L 276.895217 -218.009096 
L 278.103228 -220.731795 
L 279.273927 -223.454495 
L 280.392052 -226.177194 
L 281.444287 -228.899894 
L 282.419514 -231.622593 
L 283.308967 -234.345292 
L 284.106297 -237.067992 
L 284.807571 -239.790691 
L 285.411202 -242.513391 
L 285.917834 -245.23609 
L 286.330182 -247.958789 
L 286.652848 -250.681489 
L 286.892111 -253.404188 
L 287.055696 -256.126888 
L 287.152537 -258.849587 
L 287.192509 -261.572286 
L 287.186159 -264.294986 
L 287.144407 -267.017685 
L 287.078241 -269.740385 
L 286.998394 -272.463084 
L 286.915026 -275.185783 
L 286.837414 -277.908483 
L 286.773658 -280.631182 
L 286.730444 -283.353882 
L 286.712849 -286.076581 
L 286.724231 -288.799281 
L 286.766194 -291.52198 
L 286.838645 -294.244679 
L 286.93993 -296.967379 
L 287.067056 -299.690078 
L 287.215959 -302.412778 
L 287.381827 -305.135477 
L 287.559428 -307.858176 
L 287.743437 -310.580876 
L 287.928732 -313.303575 
L 288.110644 -316.026275 
L 288.28515 -318.748974 
L 288.448999 -321.471673 
L 288.599772 -324.194373 
L 288.735882 -326.917072 
L 288.856523 -329.639772 
L 288.961579 -332.362471 
L 289.051511 -335.08517 
L 289.770603 -335.08517 
L 289.770603 -335.08517 
L 289.860535 -332.362471 
L 289.965592 -329.639772 
L 290.086232 -326.917072 
L 290.222342 -324.194373 
L 290.373115 -321.471673 
L 290.536964 -318.748974 
L 290.71147 -316.026275 
L 290.893382 -313.303575 
L 291.078677 -310.580876 
L 291.262686 -307.858176 
L 291.440287 -305.135477 
L 291.606155 -302.412778 
L 291.755059 -299.690078 
L 291.882184 -296.967379 
L 291.98347 -294.244679 
L 292.05592 -291.52198 
L 292.097884 -288.799281 
L 292.109266 -286.076581 
L 292.091671 -283.353882 
L 292.048456 -280.631182 
L 291.9847 -277.908483 
L 291.907088 -275.185783 
L 291.823721 -272.463084 
L 291.743874 -269.740385 
L 291.677707 -267.017685 
L 291.635955 -264.294986 
L 291.629605 -261.572286 
L 291.669578 -258.849587 
L 291.766418 -256.126888 
L 291.930003 -253.404188 
L 292.169266 -250.681489 
L 292.491932 -247.958789 
L 292.904281 -245.23609 
L 293.410912 -242.513391 
L 294.014544 -239.790691 
L 294.715817 -237.067992 
L 295.513147 -234.345292 
L 296.4026 -231.622593 
L 297.377828 -228.899894 
L 298.430062 -226.177194 
L 299.548187 -223.454495 
L 300.718887 -220.731795 
L 301.926897 -218.009096 
L 303.155342 -215.286396 
L 304.38617 -212.563697 
L 305.600671 -209.840998 
L 306.780064 -207.118298 
L 307.906132 -204.395599 
L 308.96187 -201.672899 
L 309.932122 -198.9502 
L 310.804147 -196.227501 
L 311.568094 -193.504801 
L 312.217339 -190.782102 
L 312.748646 -188.059402 
L 313.162151 -185.336703 
L 313.461137 -182.614004 
L 313.651629 -179.891304 
L 313.741831 -177.168605 
L 313.741432 -174.445905 
L 313.660857 -171.723206 
L 313.510496 -169.000507 
L 313.3 -166.277807 
L 313.037672 -163.555108 
L 312.730028 -160.832408 
L 312.381533 -158.109709 
L 311.994545 -155.387009 
L 311.569452 -152.66431 
L 311.104986 -149.941611 
L 310.598667 -147.218911 
L 310.047342 -144.496212 
L 309.447768 -141.773512 
L 308.79717 -139.050813 
L 308.093754 -136.328114 
L 307.337119 -133.605414 
L 306.52855 -130.882715 
L 305.671174 -128.160015 
L 304.769988 -125.437316 
L 303.831752 -122.714617 
L 302.864771 -119.991917 
L 301.878596 -117.269218 
L 300.883654 -114.546518 
L 299.890842 -111.823819 
L 298.911116 -109.10112 
L 297.955085 -106.37842 
L 297.032644 -103.655721 
L 296.152649 -100.933021 
L 295.322661 -98.210322 
L 294.548757 -95.487622 
L 293.835419 -92.764923 
L 293.185489 -90.042224 
L 292.600211 -87.319524 
L 292.079323 -84.596825 
L 291.621212 -81.874125 
L 291.223105 -79.151426 
L 290.881293 -76.428727 
L 290.591366 -73.706027 
L 290.348446 -70.983328 
L 290.147413 -68.260628 
L 289.983105 -65.537929 
z
" id="m43d0e12607" style="stroke:#414141;stroke-width:2;"/>
    </defs>
    <g clip-path="url(#p4d2f8d2236)">
     <use style="fill:#7d9a40;stroke:#414141;stroke-width:2;" x="0" xlink:href="#m43d0e12607" y="391.7373"/>
    </g>
   </g>
   <g id="PolyCollection_4">
    <defs>
     <path d="M 386.219875 -84.302316 
L 383.916525 -84.302316 
L 383.638094 -85.842414 
L 383.307198 -87.382511 
L 382.917771 -88.922609 
L 382.463927 -90.462706 
L 381.940192 -92.002804 
L 381.34175 -93.542902 
L 380.664703 -95.082999 
L 379.906342 -96.623097 
L 379.065387 -98.163194 
L 378.142215 -99.703292 
L 377.13903 -101.243389 
L 376.059978 -102.783487 
L 374.911191 -104.323584 
L 373.700736 -105.863682 
L 372.438486 -107.40378 
L 371.135892 -108.943877 
L 369.805671 -110.483975 
L 368.461428 -112.024072 
L 367.117208 -113.56417 
L 365.787031 -115.104267 
L 364.484406 -116.644365 
L 363.221873 -118.184462 
L 362.010594 -119.72456 
L 360.860021 -121.264658 
L 359.777658 -122.804755 
L 358.768942 -124.344853 
L 357.837241 -125.88495 
L 356.983983 -127.425048 
L 356.208891 -128.965145 
L 355.510319 -130.505243 
L 354.88566 -132.04534 
L 354.331794 -133.585438 
L 353.845549 -135.125536 
L 353.424128 -136.665633 
L 353.065484 -138.205731 
L 352.768599 -139.745828 
L 352.533652 -141.285926 
L 352.362063 -142.826023 
L 352.256395 -144.366121 
L 352.220137 -145.906218 
L 352.257365 -147.446316 
L 352.372311 -148.986413 
L 352.568877 -150.526511 
L 352.850114 -152.066609 
L 353.217725 -153.606706 
L 353.67161 -155.146804 
L 354.209507 -156.686901 
L 354.826749 -158.226999 
L 355.516165 -159.767096 
L 356.268134 -161.307194 
L 357.07081 -162.847291 
L 357.910485 -164.387389 
L 358.772102 -165.927487 
L 359.639862 -167.467584 
L 360.497916 -169.007682 
L 361.331077 -170.547779 
L 362.125535 -172.087877 
L 362.869501 -173.627974 
L 363.553773 -175.168072 
L 364.172162 -176.708169 
L 364.721774 -178.248267 
L 365.203112 -179.788365 
L 365.620013 -181.328462 
L 365.979402 -182.86856 
L 366.290901 -184.408657 
L 366.566298 -185.948755 
L 366.818926 -187.488852 
L 367.062971 -189.02895 
L 367.312762 -190.569047 
L 367.58207 -192.109145 
L 367.883469 -193.649243 
L 368.227773 -195.18934 
L 368.623586 -196.729438 
L 369.076984 -198.269535 
L 369.591328 -199.809633 
L 370.16722 -201.34973 
L 370.802594 -202.889828 
L 371.492924 -204.429925 
L 372.231533 -205.970023 
L 373.009982 -207.510121 
L 373.818509 -209.050218 
L 374.646499 -210.590316 
L 375.482945 -212.130413 
L 376.316904 -213.670511 
L 377.137894 -215.210608 
L 377.936243 -216.750706 
L 378.703372 -218.290803 
L 379.432 -219.830901 
L 380.116271 -221.370999 
L 380.751815 -222.911096 
L 381.335735 -224.451194 
L 381.866541 -225.991291 
L 382.344032 -227.531389 
L 382.769146 -229.071486 
L 383.143783 -230.611584 
L 383.470619 -232.151681 
L 383.752914 -233.691779 
L 383.99433 -235.231877 
L 384.198762 -236.771974 
L 385.937638 -236.771974 
L 385.937638 -236.771974 
L 386.14207 -235.231877 
L 386.383486 -233.691779 
L 386.665781 -232.151681 
L 386.992617 -230.611584 
L 387.367254 -229.071486 
L 387.792368 -227.531389 
L 388.269859 -225.991291 
L 388.800665 -224.451194 
L 389.384585 -222.911096 
L 390.020129 -221.370999 
L 390.7044 -219.830901 
L 391.433028 -218.290803 
L 392.200157 -216.750706 
L 392.998506 -215.210608 
L 393.819496 -213.670511 
L 394.653455 -212.130413 
L 395.489901 -210.590316 
L 396.317891 -209.050218 
L 397.126418 -207.510121 
L 397.904867 -205.970023 
L 398.643476 -204.429925 
L 399.333806 -202.889828 
L 399.96918 -201.34973 
L 400.545072 -199.809633 
L 401.059416 -198.269535 
L 401.512814 -196.729438 
L 401.908627 -195.18934 
L 402.252931 -193.649243 
L 402.55433 -192.109145 
L 402.823638 -190.569047 
L 403.073429 -189.02895 
L 403.317474 -187.488852 
L 403.570102 -185.948755 
L 403.845499 -184.408657 
L 404.156998 -182.86856 
L 404.516387 -181.328462 
L 404.933288 -179.788365 
L 405.414626 -178.248267 
L 405.964238 -176.708169 
L 406.582627 -175.168072 
L 407.266899 -173.627974 
L 408.010865 -172.087877 
L 408.805323 -170.547779 
L 409.638484 -169.007682 
L 410.496538 -167.467584 
L 411.364298 -165.927487 
L 412.225915 -164.387389 
L 413.06559 -162.847291 
L 413.868266 -161.307194 
L 414.620235 -159.767096 
L 415.309651 -158.226999 
L 415.926893 -156.686901 
L 416.46479 -155.146804 
L 416.918675 -153.606706 
L 417.286286 -152.066609 
L 417.567523 -150.526511 
L 417.764089 -148.986413 
L 417.879035 -147.446316 
L 417.916263 -145.906218 
L 417.880005 -144.366121 
L 417.774337 -142.826023 
L 417.602748 -141.285926 
L 417.367801 -139.745828 
L 417.070916 -138.205731 
L 416.712272 -136.665633 
L 416.290851 -135.125536 
L 415.804606 -133.585438 
L 415.25074 -132.04534 
L 414.626081 -130.505243 
L 413.927509 -128.965145 
L 413.152417 -127.425048 
L 412.299159 -125.88495 
L 411.367458 -124.344853 
L 410.358742 -122.804755 
L 409.276379 -121.264658 
L 408.125806 -119.72456 
L 406.914527 -118.184462 
L 405.651994 -116.644365 
L 404.349369 -115.104267 
L 403.019192 -113.56417 
L 401.674972 -112.024072 
L 400.330729 -110.483975 
L 399.000508 -108.943877 
L 397.697914 -107.40378 
L 396.435664 -105.863682 
L 395.225209 -104.323584 
L 394.076422 -102.783487 
L 392.99737 -101.243389 
L 391.994185 -99.703292 
L 391.071013 -98.163194 
L 390.230058 -96.623097 
L 389.471697 -95.082999 
L 388.79465 -93.542902 
L 388.196208 -92.002804 
L 387.672473 -90.462706 
L 387.218629 -88.922609 
L 386.829202 -87.382511 
L 386.498306 -85.842414 
L 386.219875 -84.302316 
z
" id="ma69efa2120" style="stroke:#414141;stroke-width:2;"/>
    </defs>
    <g clip-path="url(#p4d2f8d2236)">
     <use style="fill:#43a084;stroke:#414141;stroke-width:2;" x="0" xlink:href="#ma69efa2120" y="391.7373"/>
    </g>
   </g>
   <g id="PolyCollection_5">
    <defs>
     <path d="M 481.168117 -44.994661 
L 480.282569 -44.994661 
L 480.175965 -47.230073 
L 480.050617 -49.465485 
L 479.904996 -51.700897 
L 479.737852 -53.936309 
L 479.548299 -56.171721 
L 479.335896 -58.407133 
L 479.100705 -60.642545 
L 478.843335 -62.877957 
L 478.564939 -65.113369 
L 478.267187 -67.348781 
L 477.952182 -69.584193 
L 477.622344 -71.819605 
L 477.280238 -74.055017 
L 476.928367 -76.290429 
L 476.568934 -78.525841 
L 476.203586 -80.761253 
L 475.833144 -82.996665 
L 475.457359 -85.232077 
L 475.074695 -87.467489 
L 474.682164 -89.702901 
L 474.275244 -91.938313 
L 473.847886 -94.173725 
L 473.392634 -96.409137 
L 472.900866 -98.644549 
L 472.363163 -100.879961 
L 471.769795 -103.115373 
L 471.11132 -105.350785 
L 470.379269 -107.586197 
L 469.56688 -109.821609 
L 468.669847 -112.057021 
L 467.687025 -114.292433 
L 466.621051 -116.527845 
L 465.478807 -118.763257 
L 464.271689 -120.998669 
L 463.01564 -123.234081 
L 461.730902 -125.469493 
L 460.44149 -127.704905 
L 459.174385 -129.940317 
L 457.95848 -132.175729 
L 456.823328 -134.411141 
L 455.797753 -136.646553 
L 454.908421 -138.881965 
L 454.178452 -141.117377 
L 453.626168 -143.352789 
L 453.264071 -145.588201 
L 453.098121 -147.823613 
L 453.127367 -150.059025 
L 453.343966 -152.294437 
L 453.733585 -154.529849 
L 454.276171 -156.765261 
L 454.947023 -159.000673 
L 455.718106 -161.236085 
L 456.559514 -163.471497 
L 457.440982 -165.706909 
L 458.333357 -167.942321 
L 459.209936 -170.177733 
L 460.047598 -172.413145 
L 460.827665 -174.648557 
L 461.536477 -176.883969 
L 462.165648 -179.119381 
L 462.712019 -181.354793 
L 463.177347 -183.590205 
L 463.567758 -185.825617 
L 463.893025 -188.061029 
L 464.165732 -190.296442 
L 464.40037 -192.531854 
L 464.612438 -194.767266 
L 464.817586 -197.002678 
L 465.030832 -199.23809 
L 465.265899 -201.473502 
L 465.534683 -203.708914 
L 465.846847 -205.944326 
L 466.209569 -208.179738 
L 466.627408 -210.41515 
L 467.102304 -212.650562 
L 467.633676 -214.885974 
L 468.218616 -217.121386 
L 468.852151 -219.356798 
L 469.527563 -221.59221 
L 470.236754 -223.827622 
L 470.970621 -226.063034 
L 471.719451 -228.298446 
L 472.473303 -230.533858 
L 473.222369 -232.76927 
L 473.957306 -235.004682 
L 474.669526 -237.240094 
L 475.35143 -239.475506 
L 475.99659 -241.710918 
L 476.599871 -243.94633 
L 477.157485 -246.181742 
L 477.666996 -248.417154 
L 478.127266 -250.652566 
L 478.538352 -252.887978 
L 478.901372 -255.12339 
L 479.218342 -257.358802 
L 479.491997 -259.594214 
L 479.725605 -261.829626 
L 479.92279 -264.065038 
L 480.087364 -266.30045 
L 481.363322 -266.30045 
L 481.363322 -266.30045 
L 481.527896 -264.065038 
L 481.725081 -261.829626 
L 481.958689 -259.594214 
L 482.232344 -257.358802 
L 482.549314 -255.12339 
L 482.912334 -252.887978 
L 483.32342 -250.652566 
L 483.78369 -248.417154 
L 484.293201 -246.181742 
L 484.850815 -243.94633 
L 485.454095 -241.710918 
L 486.099256 -239.475506 
L 486.781159 -237.240094 
L 487.493379 -235.004682 
L 488.228317 -232.76927 
L 488.977383 -230.533858 
L 489.731234 -228.298446 
L 490.480065 -226.063034 
L 491.213932 -223.827622 
L 491.923122 -221.59221 
L 492.598535 -219.356798 
L 493.232069 -217.121386 
L 493.817009 -214.885974 
L 494.348382 -212.650562 
L 494.823278 -210.41515 
L 495.241117 -208.179738 
L 495.603838 -205.944326 
L 495.916003 -203.708914 
L 496.184786 -201.473502 
L 496.419854 -199.23809 
L 496.6331 -197.002678 
L 496.838247 -194.767266 
L 497.050316 -192.531854 
L 497.284954 -190.296442 
L 497.55766 -188.061029 
L 497.882928 -185.825617 
L 498.273339 -183.590205 
L 498.738667 -181.354793 
L 499.285038 -179.119381 
L 499.914208 -176.883969 
L 500.623021 -174.648557 
L 501.403088 -172.413145 
L 502.240749 -170.177733 
L 503.117329 -167.942321 
L 504.009704 -165.706909 
L 504.891172 -163.471497 
L 505.73258 -161.236085 
L 506.503663 -159.000673 
L 507.174515 -156.765261 
L 507.717101 -154.529849 
L 508.10672 -152.294437 
L 508.323319 -150.059025 
L 508.352565 -147.823613 
L 508.186615 -145.588201 
L 507.824518 -143.352789 
L 507.272233 -141.117377 
L 506.542264 -138.881965 
L 505.652933 -136.646553 
L 504.627358 -134.411141 
L 503.492206 -132.175729 
L 502.276301 -129.940317 
L 501.009196 -127.704905 
L 499.719783 -125.469493 
L 498.435045 -123.234081 
L 497.178997 -120.998669 
L 495.971879 -118.763257 
L 494.829634 -116.527845 
L 493.76366 -114.292433 
L 492.780839 -112.057021 
L 491.883806 -109.821609 
L 491.071417 -107.586197 
L 490.339366 -105.350785 
L 489.680891 -103.115373 
L 489.087523 -100.879961 
L 488.54982 -98.644549 
L 488.058052 -96.409137 
L 487.6028 -94.173725 
L 487.175442 -91.938313 
L 486.768522 -89.702901 
L 486.375991 -87.467489 
L 485.993326 -85.232077 
L 485.617542 -82.996665 
L 485.2471 -80.761253 
L 484.881752 -78.525841 
L 484.522319 -76.290429 
L 484.170448 -74.055017 
L 483.828341 -71.819605 
L 483.498503 -69.584193 
L 483.183499 -67.348781 
L 482.885747 -65.113369 
L 482.607351 -62.877957 
L 482.349981 -60.642545 
L 482.11479 -58.407133 
L 481.902386 -56.171721 
L 481.712833 -53.936309 
L 481.545689 -51.700897 
L 481.400068 -49.465485 
L 481.27472 -47.230073 
L 481.168117 -44.994661 
z
" id="m2c69cf4bd6" style="stroke:#414141;stroke-width:2;"/>
    </defs>
    <g clip-path="url(#p4d2f8d2236)">
     <use style="fill:#489eaa;stroke:#414141;stroke-width:2;" x="0" xlink:href="#m2c69cf4bd6" y="391.7373"/>
    </g>
   </g>
   <g id="PolyCollection_6">
    <defs>
     <path d="M 576.848053 -38.57608 
L 575.916919 -38.57608 
L 575.786708 -41.160849 
L 575.629485 -43.745618 
L 575.442334 -46.330387 
L 575.222682 -48.915156 
L 574.968453 -51.499925 
L 574.6782 -54.084694 
L 574.351214 -56.669463 
L 573.987572 -59.254232 
L 573.588137 -61.839001 
L 573.15448 -64.42377 
L 572.688732 -67.008539 
L 572.193375 -69.593308 
L 571.670986 -72.178077 
L 571.123954 -74.762847 
L 570.554203 -77.347616 
L 569.962958 -79.932385 
L 569.350579 -82.517154 
L 568.7165 -85.101923 
L 568.059282 -87.686692 
L 567.376803 -90.271461 
L 566.666555 -92.85623 
L 565.92604 -95.440999 
L 565.153225 -98.025768 
L 564.346997 -100.610537 
L 563.507573 -103.195306 
L 562.636812 -105.780075 
L 561.73837 -108.364845 
L 560.817693 -110.949614 
L 559.881815 -113.534383 
L 558.938994 -116.119152 
L 557.998219 -118.703921 
L 557.068647 -121.28869 
L 556.15905 -123.873459 
L 555.277348 -126.458228 
L 554.430295 -129.042997 
L 553.623379 -131.627766 
L 552.860967 -134.212535 
L 552.146674 -136.797304 
L 551.483938 -139.382073 
L 550.876706 -141.966842 
L 550.330142 -144.551612 
L 549.851256 -147.136381 
L 549.449318 -149.72115 
L 549.136 -152.305919 
L 548.925149 -154.890688 
L 548.832194 -157.475457 
L 548.873206 -160.060226 
L 549.063677 -162.644995 
L 549.417132 -165.229764 
L 549.943717 -167.814533 
L 550.648892 -170.399302 
L 551.53239 -172.984071 
L 552.58755 -175.56884 
L 553.801097 -178.153609 
L 555.153409 -180.738379 
L 556.619262 -183.323148 
L 558.168966 -185.907917 
L 559.76982 -188.492686 
L 561.387731 -191.077455 
L 562.988887 -193.662224 
L 564.541329 -196.246993 
L 566.016325 -198.831762 
L 567.389458 -201.416531 
L 568.641369 -204.0013 
L 569.758161 -206.586069 
L 570.731465 -209.170838 
L 571.558217 -211.755607 
L 572.240212 -214.340376 
L 572.783496 -216.925146 
L 573.197662 -219.509915 
L 573.495112 -222.094684 
L 573.690318 -224.679453 
L 573.79913 -227.264222 
L 573.838123 -229.848991 
L 573.82401 -232.43376 
L 573.773111 -235.018529 
L 573.700875 -237.603298 
L 573.621452 -240.188067 
L 573.547332 -242.772836 
L 573.489037 -245.357605 
L 573.454894 -247.942374 
L 573.450895 -250.527144 
L 573.480655 -253.111913 
L 573.545472 -255.696682 
L 573.6445 -258.281451 
L 573.775013 -260.86622 
L 573.93275 -263.450989 
L 574.112322 -266.035758 
L 574.307642 -268.620527 
L 574.512357 -271.205296 
L 574.720245 -273.790065 
L 574.925556 -276.374834 
L 575.123283 -278.959603 
L 575.30934 -281.544372 
L 575.480658 -284.129141 
L 575.635198 -286.713911 
L 575.771897 -289.29868 
L 575.890554 -291.883449 
L 575.991684 -294.468218 
L 576.773288 -294.468218 
L 576.773288 -294.468218 
L 576.874418 -291.883449 
L 576.993074 -289.29868 
L 577.129773 -286.713911 
L 577.284314 -284.129141 
L 577.455632 -281.544372 
L 577.641688 -278.959603 
L 577.839415 -276.374834 
L 578.044727 -273.790065 
L 578.252614 -271.205296 
L 578.457329 -268.620527 
L 578.65265 -266.035758 
L 578.832221 -263.450989 
L 578.989959 -260.86622 
L 579.120471 -258.281451 
L 579.2195 -255.696682 
L 579.284317 -253.111913 
L 579.314076 -250.527144 
L 579.310078 -247.942374 
L 579.275935 -245.357605 
L 579.217639 -242.772836 
L 579.143519 -240.188067 
L 579.064097 -237.603298 
L 578.99186 -235.018529 
L 578.940962 -232.43376 
L 578.926849 -229.848991 
L 578.965841 -227.264222 
L 579.074653 -224.679453 
L 579.269859 -222.094684 
L 579.567309 -219.509915 
L 579.981475 -216.925146 
L 580.524759 -214.340376 
L 581.206755 -211.755607 
L 582.033506 -209.170838 
L 583.00681 -206.586069 
L 584.123602 -204.0013 
L 585.375513 -201.416531 
L 586.748646 -198.831762 
L 588.223643 -196.246993 
L 589.776085 -193.662224 
L 591.377241 -191.077455 
L 592.995152 -188.492686 
L 594.596005 -185.907917 
L 596.14571 -183.323148 
L 597.611562 -180.738379 
L 598.963875 -178.153609 
L 600.177421 -175.56884 
L 601.232581 -172.984071 
L 602.11608 -170.399302 
L 602.821254 -167.814533 
L 603.347839 -165.229764 
L 603.701295 -162.644995 
L 603.891765 -160.060226 
L 603.932777 -157.475457 
L 603.839822 -154.890688 
L 603.628971 -152.305919 
L 603.315653 -149.72115 
L 602.913716 -147.136381 
L 602.434829 -144.551612 
L 601.888266 -141.966842 
L 601.281033 -139.382073 
L 600.618298 -136.797304 
L 599.904005 -134.212535 
L 599.141592 -131.627766 
L 598.334676 -129.042997 
L 597.487623 -126.458228 
L 596.605921 -123.873459 
L 595.696325 -121.28869 
L 594.766753 -118.703921 
L 593.825977 -116.119152 
L 592.883156 -113.534383 
L 591.947278 -110.949614 
L 591.026601 -108.364845 
L 590.12816 -105.780075 
L 589.257398 -103.195306 
L 588.417975 -100.610537 
L 587.611746 -98.025768 
L 586.838931 -95.440999 
L 586.098416 -92.85623 
L 585.388168 -90.271461 
L 584.705689 -87.686692 
L 584.048472 -85.101923 
L 583.414392 -82.517154 
L 582.802013 -79.932385 
L 582.210768 -77.347616 
L 581.641017 -74.762847 
L 581.093985 -72.178077 
L 580.571596 -69.593308 
L 580.076239 -67.008539 
L 579.610491 -64.42377 
L 579.176834 -61.839001 
L 578.7774 -59.254232 
L 578.413758 -56.669463 
L 578.086771 -54.084694 
L 577.796519 -51.499925 
L 577.542289 -48.915156 
L 577.322638 -46.330387 
L 577.135486 -43.745618 
L 576.978263 -41.160849 
L 576.848053 -38.57608 
z
" id="mf0cc13404e" style="stroke:#414141;stroke-width:2;"/>
    </defs>
    <g clip-path="url(#p4d2f8d2236)">
     <use style="fill:#8fa0e6;stroke:#414141;stroke-width:2;" x="0" xlink:href="#mf0cc13404e" y="391.7373"/>
    </g>
   </g>
   <g id="PolyCollection_7">
    <defs>
     <path d="M 672.557405 -55.955336 
L 671.521852 -55.955336 
L 671.381253 -58.005016 
L 671.214051 -60.054696 
L 671.018541 -62.104376 
L 670.793766 -64.154055 
L 670.53968 -66.203735 
L 670.257267 -68.253415 
L 669.948573 -70.303095 
L 669.61666 -72.352774 
L 669.265447 -74.402454 
L 668.899447 -76.452134 
L 668.523406 -78.501814 
L 668.141866 -80.551493 
L 667.758674 -82.601173 
L 667.376488 -84.650853 
L 666.996311 -86.700533 
L 666.617093 -88.750213 
L 666.235447 -90.799892 
L 665.845498 -92.849572 
L 665.438891 -94.899252 
L 665.004959 -96.948932 
L 664.531057 -98.998611 
L 664.003054 -101.048291 
L 663.405951 -103.097971 
L 662.724622 -105.147651 
L 661.944636 -107.19733 
L 661.053135 -109.24701 
L 660.03972 -111.29669 
L 658.897311 -113.34637 
L 657.622928 -115.396049 
L 656.218328 -117.445729 
L 654.690473 -119.495409 
L 653.051752 -121.545089 
L 651.319945 -123.594769 
L 649.517903 -125.644448 
L 647.672953 -127.694128 
L 645.816051 -129.743808 
L 643.980751 -131.793488 
L 642.202026 -133.843167 
L 640.515058 -135.892847 
L 638.954037 -137.942527 
L 637.551056 -139.992207 
L 636.335153 -142.041886 
L 635.331517 -144.091566 
L 634.560879 -146.141246 
L 634.039077 -148.190926 
L 633.776771 -150.240605 
L 633.779289 -152.290285 
L 634.046579 -154.339965 
L 634.573261 -156.389645 
L 635.348777 -158.439324 
L 636.357641 -160.489004 
L 637.579818 -162.538684 
L 638.991228 -164.588364 
L 640.564404 -166.638044 
L 642.269272 -168.687723 
L 644.07406 -170.737403 
L 645.946258 -172.787083 
L 647.853621 -174.836763 
L 649.765109 -176.886442 
L 651.651743 -178.936122 
L 653.4873 -180.985802 
L 655.248827 -183.035482 
L 656.916959 -185.085161 
L 658.476045 -187.134841 
L 659.914118 -189.184521 
L 661.222744 -191.234201 
L 662.396802 -193.28388 
L 663.434233 -195.33356 
L 664.335807 -197.38324 
L 665.10491 -199.43292 
L 665.747368 -201.4826 
L 666.27129 -203.532279 
L 666.686893 -205.581959 
L 667.006302 -207.631639 
L 667.243261 -209.681319 
L 667.41277 -211.730998 
L 667.530602 -213.780678 
L 667.612744 -215.830358 
L 667.674761 -217.880038 
L 667.731147 -219.929717 
L 667.794696 -221.979397 
L 667.875964 -224.029077 
L 667.982855 -226.078757 
L 668.120391 -228.128436 
L 668.290658 -230.178116 
L 668.492965 -232.227796 
L 668.72417 -234.277476 
L 668.979152 -236.327156 
L 669.251378 -238.376835 
L 669.533516 -240.426515 
L 669.818031 -242.476195 
L 670.097726 -244.525875 
L 670.366182 -246.575554 
L 670.61808 -248.625234 
L 670.849389 -250.674914 
L 671.057435 -252.724594 
L 671.240854 -254.774273 
L 671.399454 -256.823953 
L 671.534032 -258.873633 
L 672.545225 -258.873633 
L 672.545225 -258.873633 
L 672.679803 -256.823953 
L 672.838404 -254.774273 
L 673.021822 -252.724594 
L 673.229868 -250.674914 
L 673.461178 -248.625234 
L 673.713075 -246.575554 
L 673.981531 -244.525875 
L 674.261226 -242.476195 
L 674.545741 -240.426515 
L 674.827879 -238.376835 
L 675.100105 -236.327156 
L 675.355087 -234.277476 
L 675.586292 -232.227796 
L 675.788599 -230.178116 
L 675.958867 -228.128436 
L 676.096402 -226.078757 
L 676.203294 -224.029077 
L 676.284561 -221.979397 
L 676.34811 -219.929717 
L 676.404496 -217.880038 
L 676.466513 -215.830358 
L 676.548655 -213.780678 
L 676.666487 -211.730998 
L 676.835996 -209.681319 
L 677.072955 -207.631639 
L 677.392364 -205.581959 
L 677.807967 -203.532279 
L 678.331889 -201.4826 
L 678.974348 -199.43292 
L 679.74345 -197.38324 
L 680.645024 -195.33356 
L 681.682455 -193.28388 
L 682.856513 -191.234201 
L 684.165139 -189.184521 
L 685.603212 -187.134841 
L 687.162298 -185.085161 
L 688.83043 -183.035482 
L 690.591957 -180.985802 
L 692.427514 -178.936122 
L 694.314148 -176.886442 
L 696.225637 -174.836763 
L 698.132999 -172.787083 
L 700.005198 -170.737403 
L 701.809985 -168.687723 
L 703.514854 -166.638044 
L 705.088029 -164.588364 
L 706.499439 -162.538684 
L 707.721616 -160.489004 
L 708.73048 -158.439324 
L 709.505996 -156.389645 
L 710.032678 -154.339965 
L 710.299968 -152.290285 
L 710.302486 -150.240605 
L 710.04018 -148.190926 
L 709.518379 -146.141246 
L 708.747741 -144.091566 
L 707.744104 -142.041886 
L 706.528201 -139.992207 
L 705.12522 -137.942527 
L 703.564199 -135.892847 
L 701.877231 -133.843167 
L 700.098506 -131.793488 
L 698.263206 -129.743808 
L 696.406304 -127.694128 
L 694.561354 -125.644448 
L 692.759312 -123.594769 
L 691.027505 -121.545089 
L 689.388784 -119.495409 
L 687.860929 -117.445729 
L 686.456329 -115.396049 
L 685.181946 -113.34637 
L 684.039537 -111.29669 
L 683.026122 -109.24701 
L 682.134621 -107.19733 
L 681.354636 -105.147651 
L 680.673306 -103.097971 
L 680.076203 -101.048291 
L 679.5482 -98.998611 
L 679.074298 -96.948932 
L 678.640366 -94.899252 
L 678.233759 -92.849572 
L 677.843811 -90.799892 
L 677.462165 -88.750213 
L 677.082946 -86.700533 
L 676.702769 -84.650853 
L 676.320583 -82.601173 
L 675.937391 -80.551493 
L 675.555851 -78.501814 
L 675.17981 -76.452134 
L 674.813811 -74.402454 
L 674.462598 -72.352774 
L 674.130684 -70.303095 
L 673.82199 -68.253415 
L 673.539577 -66.203735 
L 673.285492 -64.154055 
L 673.060716 -62.104376 
L 672.865207 -60.054696 
L 672.698005 -58.005016 
L 672.557405 -55.955336 
z
" id="m37906a7502" style="stroke:#414141;stroke-width:2;"/>
    </defs>
    <g clip-path="url(#p4d2f8d2236)">
     <use style="fill:#e270db;stroke:#414141;stroke-width:2;" x="0" xlink:href="#m37906a7502" y="391.7373"/>
    </g>
   </g>
   <g id="line2d_1">
    <path clip-path="url(#p4d2f8d2236)" d="M 50.2682 233.332174 
L 719.8682 233.332174 
" style="fill:none;stroke:#404040;stroke-dasharray:5.55,2.4;stroke-dashoffset:0;stroke-width:1.5;"/>
   </g>
   <g id="line2d_2">
    <path clip-path="url(#p4d2f8d2236)" d="M 98.096771 267.138616 
L 98.096771 186.711422 
" style="fill:none;stroke:#414141;stroke-linecap:round;stroke-width:2;"/>
   </g>
   <g id="line2d_3">
    <path clip-path="url(#p4d2f8d2236)" d="M 98.096771 249.766044 
L 98.096771 213.270367 
" style="fill:none;stroke:#414141;stroke-linecap:round;stroke-width:6;"/>
   </g>
   <g id="line2d_4">
    <path clip-path="url(#p4d2f8d2236)" d="M 193.753914 264.127487 
L 193.753914 144.558784 
" style="fill:none;stroke:#414141;stroke-linecap:round;stroke-width:2;"/>
   </g>
   <g id="line2d_5">
    <path clip-path="url(#p4d2f8d2236)" d="M 193.753914 245.198104 
L 193.753914 198.988798 
" style="fill:none;stroke:#414141;stroke-linecap:round;stroke-width:6;"/>
   </g>
   <g id="line2d_6">
    <path clip-path="url(#p4d2f8d2236)" d="M 289.411057 278.814299 
L 289.411057 177.053358 
" style="fill:none;stroke:#414141;stroke-linecap:round;stroke-width:2;"/>
   </g>
   <g id="line2d_7">
    <path clip-path="url(#p4d2f8d2236)" d="M 289.411057 250.191795 
L 289.411057 197.968064 
" style="fill:none;stroke:#414141;stroke-linecap:round;stroke-width:6;"/>
   </g>
   <g id="line2d_8">
    <path clip-path="url(#p4d2f8d2236)" d="M 385.0682 275.676786 
L 385.0682 186.723524 
" style="fill:none;stroke:#414141;stroke-linecap:round;stroke-width:2;"/>
   </g>
   <g id="line2d_9">
    <path clip-path="url(#p4d2f8d2236)" d="M 385.0682 261.109026 
L 385.0682 222.962844 
" style="fill:none;stroke:#414141;stroke-linecap:round;stroke-width:6;"/>
   </g>
   <g id="line2d_10">
    <path clip-path="url(#p4d2f8d2236)" d="M 480.725343 304.501373 
L 480.725343 167.678116 
" style="fill:none;stroke:#414141;stroke-linecap:round;stroke-width:2;"/>
   </g>
   <g id="line2d_11">
    <path clip-path="url(#p4d2f8d2236)" d="M 480.725343 250.398592 
L 480.725343 200.042357 
" style="fill:none;stroke:#414141;stroke-linecap:round;stroke-width:6;"/>
   </g>
   <g id="line2d_12">
    <path clip-path="url(#p4d2f8d2236)" d="M 576.382486 309.566322 
L 576.382486 212.270868 
" style="fill:none;stroke:#414141;stroke-linecap:round;stroke-width:2;"/>
   </g>
   <g id="line2d_13">
    <path clip-path="url(#p4d2f8d2236)" d="M 576.382486 262.981702 
L 576.382486 220.083173 
" style="fill:none;stroke:#414141;stroke-linecap:round;stroke-width:6;"/>
   </g>
   <g id="line2d_14">
    <path clip-path="url(#p4d2f8d2236)" d="M 672.039629 278.826856 
L 672.039629 203.767179 
" style="fill:none;stroke:#414141;stroke-linecap:round;stroke-width:2;"/>
   </g>
   <g id="line2d_15">
    <path clip-path="url(#p4d2f8d2236)" d="M 672.039629 253.668841 
L 672.039629 228.019606 
" style="fill:none;stroke:#414141;stroke-linecap:round;stroke-width:6;"/>
   </g>
   <g id="patch_3">
    <path d="M 50.2682 367.986675 
L 50.2682 41.826675 
" style="fill:none;stroke:#262626;stroke-linecap:square;stroke-linejoin:miter;stroke-width:1.25;"/>
   </g>
   <g id="patch_4">
    <path d="M 719.8682 367.986675 
L 719.8682 41.826675 
" style="fill:none;stroke:#262626;stroke-linecap:square;stroke-linejoin:miter;stroke-width:1.25;"/>
   </g>
   <g id="patch_5">
    <path d="M 50.2682 367.986675 
L 719.8682 367.986675 
" style="fill:none;stroke:#262626;stroke-linecap:square;stroke-linejoin:miter;stroke-width:1.25;"/>
   </g>
   <g id="patch_6">
    <path d="M 50.2682 41.826675 
L 719.8682 41.826675 
" style="fill:none;stroke:#262626;stroke-linecap:square;stroke-linejoin:miter;stroke-width:1.25;"/>
   </g>
   <g id="PathCollection_1">
    <defs>
     <path d="M 0 2 
C 0.530406 2 1.03916 1.789267 1.414214 1.414214 
C 1.789267 1.03916 2 0.530406 2 0 
C 2 -0.530406 1.789267 -1.03916 1.414214 -1.414214 
C 1.03916 -1.789267 0.530406 -2 0 -2 
C -0.530406 -2 -1.03916 -1.789267 -1.414214 -1.414214 
C -1.789267 -1.03916 -2 -0.530406 -2 0 
C -2 0.530406 -1.789267 1.03916 -1.414214 1.414214 
C -1.03916 1.789267 -0.530406 2 0 2 
z
" id="me5018040f1" style="stroke:#414141;"/>
    </defs>
    <g clip-path="url(#p4d2f8d2236)">
     <use style="fill:#ffffff;stroke:#414141;" x="98.096771" xlink:href="#me5018040f1" y="228.581041"/>
    </g>
   </g>
   <g id="PathCollection_2">
    <g clip-path="url(#p4d2f8d2236)">
     <use style="fill:#ffffff;stroke:#414141;" x="193.753914" xlink:href="#me5018040f1" y="215.904675"/>
    </g>
   </g>
   <g id="PathCollection_3">
    <g clip-path="url(#p4d2f8d2236)">
     <use style="fill:#ffffff;stroke:#414141;" x="289.411057" xlink:href="#me5018040f1" y="213.197972"/>
    </g>
   </g>
   <g id="PathCollection_4">
    <g clip-path="url(#p4d2f8d2236)">
     <use style="fill:#ffffff;stroke:#414141;" x="385.0682" xlink:href="#me5018040f1" y="237.668531"/>
    </g>
   </g>
   <g id="PathCollection_5">
    <g clip-path="url(#p4d2f8d2236)">
     <use style="fill:#ffffff;stroke:#414141;" x="480.725343" xlink:href="#me5018040f1" y="240.222698"/>
    </g>
   </g>
   <g id="PathCollection_6">
    <g clip-path="url(#p4d2f8d2236)">
     <use style="fill:#ffffff;stroke:#414141;" x="576.382486" xlink:href="#me5018040f1" y="233.332174"/>
    </g>
   </g>
   <g id="PathCollection_7">
    <g clip-path="url(#p4d2f8d2236)">
     <use style="fill:#ffffff;stroke:#414141;" x="672.039629" xlink:href="#me5018040f1" y="238.666497"/>
    </g>
   </g>
   <g id="text_15">
    <!-- Accidents after the end of DST in California (20012017) -->
    <defs>
     <path d="M 38.671875 62.203125 
Q 32.8125 62.203125 28.296875 60.25 
Q 23.78125 58.296875 20.71875 54.6875 
Q 17.671875 51.078125 16.109375 46 
Q 14.546875 40.921875 14.546875 34.71875 
Q 14.546875 28.515625 16.234375 23.359375 
Q 17.921875 18.21875 21.0625 14.5 
Q 24.21875 10.796875 28.78125 8.734375 
Q 33.34375 6.6875 39.0625 6.6875 
Q 43.0625 6.6875 46.359375 7.734375 
Q 49.65625 8.796875 52.3125 10.6875 
Q 54.984375 12.59375 57.078125 15.203125 
Q 59.1875 17.828125 60.796875 21 
L 68.40625 17.1875 
Q 66.546875 13.328125 63.8125 10 
Q 61.078125 6.6875 57.390625 4.25 
Q 53.71875 1.8125 49.046875 0.40625 
Q 44.390625 -0.984375 38.625 -0.984375 
Q 30.28125 -0.984375 24 1.671875 
Q 17.71875 4.34375 13.5 9.109375 
Q 9.28125 13.875 7.171875 20.40625 
Q 5.078125 26.953125 5.078125 34.71875 
Q 5.078125 42.78125 7.296875 49.265625 
Q 9.515625 55.765625 13.78125 60.328125 
Q 18.0625 64.890625 24.3125 67.359375 
Q 30.5625 69.828125 38.578125 69.828125 
Q 49.5625 69.828125 56.9375 65.53125 
Q 64.3125 61.234375 67.78125 52.78125 
L 58.9375 49.859375 
Q 57.953125 52.296875 56.296875 54.515625 
Q 54.640625 56.734375 52.140625 58.4375 
Q 49.65625 60.15625 46.3125 61.171875 
Q 42.96875 62.203125 38.671875 62.203125 
z
" id="LiberationSans-43"/>
     <path d="M 6.734375 0 
L 6.734375 72.46875 
L 15.53125 72.46875 
L 15.53125 0 
z
" id="LiberationSans-6c"/>
     <path d="M 0 22.015625 
L 0 28.71875 
L 55.5625 28.71875 
L 55.5625 22.015625 
z
" id="LiberationSans-2013"/>
     <path d="M 50.59375 61.671875 
Q 45.40625 53.765625 41.0625 46.453125 
Q 36.71875 39.15625 33.59375 31.75 
Q 30.46875 24.359375 28.734375 16.578125 
Q 27 8.796875 27 0 
L 17.828125 0 
Q 17.828125 8.25 19.78125 16.1875 
Q 21.734375 24.125 25.046875 31.765625 
Q 28.375 39.40625 32.765625 46.78125 
Q 37.15625 54.15625 42.09375 61.328125 
L 5.125 61.328125 
L 5.125 68.796875 
L 50.59375 68.796875 
z
" id="LiberationSans-37"/>
    </defs>
    <g style="fill:#262626;" transform="translate(58.461481 26.041875)scale(0.26 -0.26)">
     <use xlink:href="#LiberationSans-41"/>
     <use x="66.699219" xlink:href="#LiberationSans-63"/>
     <use x="116.699219" xlink:href="#LiberationSans-63"/>
     <use x="166.699219" xlink:href="#LiberationSans-69"/>
     <use x="188.916016" xlink:href="#LiberationSans-64"/>
     <use x="244.53125" xlink:href="#LiberationSans-65"/>
     <use x="300.146484" xlink:href="#LiberationSans-6e"/>
     <use x="355.761719" xlink:href="#LiberationSans-74"/>
     <use x="383.544922" xlink:href="#LiberationSans-73"/>
     <use x="433.544922" xlink:href="#LiberationSans-20"/>
     <use x="461.328125" xlink:href="#LiberationSans-61"/>
     <use x="516.943359" xlink:href="#LiberationSans-66"/>
     <use x="544.726562" xlink:href="#LiberationSans-74"/>
     <use x="572.509766" xlink:href="#LiberationSans-65"/>
     <use x="628.125" xlink:href="#LiberationSans-72"/>
     <use x="661.425781" xlink:href="#LiberationSans-20"/>
     <use x="689.208984" xlink:href="#LiberationSans-74"/>
     <use x="716.992188" xlink:href="#LiberationSans-68"/>
     <use x="772.607422" xlink:href="#LiberationSans-65"/>
     <use x="828.222656" xlink:href="#LiberationSans-20"/>
     <use x="856.005859" xlink:href="#LiberationSans-65"/>
     <use x="911.621094" xlink:href="#LiberationSans-6e"/>
     <use x="967.236328" xlink:href="#LiberationSans-64"/>
     <use x="1022.851562" xlink:href="#LiberationSans-20"/>
     <use x="1050.634766" xlink:href="#LiberationSans-6f"/>
     <use x="1106.25" xlink:href="#LiberationSans-66"/>
     <use x="1134.033203" xlink:href="#LiberationSans-20"/>
     <use x="1161.816406" xlink:href="#LiberationSans-44"/>
     <use x="1234.033203" xlink:href="#LiberationSans-53"/>
     <use x="1300.732422" xlink:href="#LiberationSans-54"/>
     <use x="1361.800781" xlink:href="#LiberationSans-20"/>
     <use x="1389.583984" xlink:href="#LiberationSans-69"/>
     <use x="1411.800781" xlink:href="#LiberationSans-6e"/>
     <use x="1467.416016" xlink:href="#LiberationSans-20"/>
     <use x="1495.199219" xlink:href="#LiberationSans-43"/>
     <use x="1567.416016" xlink:href="#LiberationSans-61"/>
     <use x="1623.03125" xlink:href="#LiberationSans-6c"/>
     <use x="1645.248047" xlink:href="#LiberationSans-69"/>
     <use x="1667.464844" xlink:href="#LiberationSans-66"/>
     <use x="1695.248047" xlink:href="#LiberationSans-6f"/>
     <use x="1750.863281" xlink:href="#LiberationSans-72"/>
     <use x="1784.164062" xlink:href="#LiberationSans-6e"/>
     <use x="1839.779297" xlink:href="#LiberationSans-69"/>
     <use x="1861.996094" xlink:href="#LiberationSans-61"/>
     <use x="1917.611328" xlink:href="#LiberationSans-20"/>
     <use x="1945.394531" xlink:href="#LiberationSans-28"/>
     <use x="1978.695312" xlink:href="#LiberationSans-32"/>
     <use x="2034.310547" xlink:href="#LiberationSans-30"/>
     <use x="2089.925781" xlink:href="#LiberationSans-30"/>
     <use x="2145.541016" xlink:href="#LiberationSans-31"/>
     <use x="2201.15625" xlink:href="#LiberationSans-2013"/>
     <use x="2256.771484" xlink:href="#LiberationSans-32"/>
     <use x="2312.386719" xlink:href="#LiberationSans-30"/>
     <use x="2368.001953" xlink:href="#LiberationSans-31"/>
     <use x="2423.617188" xlink:href="#LiberationSans-37"/>
     <use x="2479.232422" xlink:href="#LiberationSans-29"/>
    </g>
   </g>
  </g>
 </g>
 <defs>
  <clipPath id="p4d2f8d2236">
   <rect height="326.16" width="669.6" x="50.2682" y="41.826675"/>
  </clipPath>
 </defs>
</svg>
