<?xml version="1.0" encoding="utf-8" standalone="no"?>
<!DOCTYPE svg PUBLIC "-//W3C//DTD SVG 1.1//EN"
  "http://www.w3.org/Graphics/SVG/1.1/DTD/svg11.dtd">
<!-- Created with matplotlib (http://matplotlib.org/) -->
<svg height="405.105375pt" version="1.1" viewBox="0 0 734.853512 405.105375" width="734.853512pt" xmlns="http://www.w3.org/2000/svg" xmlns:xlink="http://www.w3.org/1999/xlink">
 <defs>
  <style type="text/css">
*{stroke-linecap:butt;stroke-linejoin:round;}
  </style>
 </defs>
 <g id="figure_1">
  <g id="patch_1">
   <path d="M 0 405.105375 
L 734.853512 405.105375 
L 734.853512 0 
L 0 0 
z
" style="fill:#ffffff;"/>
  </g>
  <g id="axes_1">
   <g id="patch_2">
    <path d="M 58.053513 367.986675 
L 727.653513 367.986675 
L 727.653513 41.826675 
L 58.053513 41.826675 
z
" style="fill:#ffffff;"/>
   </g>
   <g id="matplotlib.axis_1">
    <g id="xtick_1">
     <g id="text_1">
      <!-- Sunday (DST Ends) -->
      <defs>
       <path d="M 62.109375 19 
Q 62.109375 14.65625 60.421875 10.984375 
Q 58.734375 7.328125 55.21875 4.65625 
Q 51.703125 2 46.359375 0.5 
Q 41.015625 -0.984375 33.6875 -0.984375 
Q 20.84375 -0.984375 13.671875 3.515625 
Q 6.5 8.015625 4.546875 16.5 
L 13.578125 18.3125 
Q 14.265625 15.625 15.671875 13.421875 
Q 17.09375 11.234375 19.5 9.640625 
Q 21.921875 8.0625 25.484375 7.171875 
Q 29.046875 6.296875 34.03125 6.296875 
Q 38.1875 6.296875 41.65625 7 
Q 45.125 7.71875 47.609375 9.171875 
Q 50.09375 10.640625 51.484375 12.953125 
Q 52.875 15.28125 52.875 18.5 
Q 52.875 21.875 51.34375 23.96875 
Q 49.8125 26.078125 47.015625 27.4375 
Q 44.234375 28.8125 40.375 29.734375 
Q 36.53125 30.671875 31.84375 31.734375 
Q 28.953125 32.375 26.046875 33.125 
Q 23.140625 33.890625 20.484375 34.9375 
Q 17.828125 35.984375 15.484375 37.390625 
Q 13.140625 38.8125 11.421875 40.796875 
Q 9.71875 42.78125 8.734375 45.390625 
Q 7.765625 48 7.765625 51.421875 
Q 7.765625 56.296875 9.734375 59.78125 
Q 11.71875 63.28125 15.234375 65.53125 
Q 18.75 67.78125 23.53125 68.796875 
Q 28.328125 69.828125 33.890625 69.828125 
Q 40.28125 69.828125 44.8125 68.828125 
Q 49.359375 67.828125 52.484375 65.8125 
Q 55.609375 63.8125 57.484375 60.859375 
Q 59.375 57.90625 60.5 54 
L 51.3125 52.390625 
Q 50.640625 54.890625 49.34375 56.84375 
Q 48.046875 58.796875 45.9375 60.109375 
Q 43.84375 61.421875 40.84375 62.109375 
Q 37.84375 62.796875 33.796875 62.796875 
Q 29 62.796875 25.75 61.9375 
Q 22.515625 61.078125 20.53125 59.609375 
Q 18.5625 58.15625 17.703125 56.171875 
Q 16.84375 54.203125 16.84375 51.90625 
Q 16.84375 48.828125 18.375 46.84375 
Q 19.921875 44.875 22.5625 43.546875 
Q 25.203125 42.234375 28.65625 41.359375 
Q 32.125 40.484375 36.03125 39.59375 
Q 39.203125 38.875 42.359375 38.109375 
Q 45.515625 37.359375 48.390625 36.296875 
Q 51.265625 35.25 53.78125 33.828125 
Q 56.296875 32.421875 58.15625 30.375 
Q 60.015625 28.328125 61.0625 25.53125 
Q 62.109375 22.75 62.109375 19 
z
" id="LiberationSans-53"/>
       <path d="M 15.328125 52.828125 
L 15.328125 19.34375 
Q 15.328125 15.484375 15.890625 12.890625 
Q 16.453125 10.296875 17.71875 8.703125 
Q 19 7.125 21.0625 6.46875 
Q 23.140625 5.8125 26.21875 5.8125 
Q 29.34375 5.8125 31.859375 6.90625 
Q 34.375 8.015625 36.15625 10.078125 
Q 37.9375 12.15625 38.90625 15.203125 
Q 39.890625 18.265625 39.890625 22.21875 
L 39.890625 52.828125 
L 48.6875 52.828125 
L 48.6875 11.28125 
Q 48.6875 9.625 48.703125 7.78125 
Q 48.734375 5.953125 48.78125 4.3125 
Q 48.828125 2.6875 48.875 1.515625 
Q 48.921875 0.34375 48.96875 0 
L 40.671875 0 
Q 40.625 0.25 40.578125 1.3125 
Q 40.53125 2.390625 40.453125 3.78125 
Q 40.375 5.171875 40.328125 6.609375 
Q 40.28125 8.0625 40.28125 9.03125 
L 40.140625 9.03125 
Q 38.875 6.734375 37.359375 4.875 
Q 35.84375 3.03125 33.84375 1.734375 
Q 31.84375 0.4375 29.25 -0.265625 
Q 26.65625 -0.984375 23.25 -0.984375 
Q 18.84375 -0.984375 15.671875 0.09375 
Q 12.5 1.171875 10.453125 3.421875 
Q 8.40625 5.671875 7.453125 9.1875 
Q 6.5 12.703125 6.5 17.625 
L 6.5 52.828125 
z
" id="LiberationSans-75"/>
       <path d="M 40.28125 0 
L 40.28125 33.5 
Q 40.28125 37.359375 39.71875 39.9375 
Q 39.15625 42.53125 37.890625 44.109375 
Q 36.625 45.703125 34.546875 46.359375 
Q 32.46875 47.015625 29.390625 47.015625 
Q 26.265625 47.015625 23.75 45.921875 
Q 21.234375 44.828125 19.453125 42.75 
Q 17.671875 40.671875 16.6875 37.625 
Q 15.71875 34.578125 15.71875 30.609375 
L 15.71875 0 
L 6.9375 0 
L 6.9375 41.546875 
Q 6.9375 43.21875 6.90625 45.046875 
Q 6.890625 46.875 6.828125 48.5 
Q 6.78125 50.140625 6.734375 51.3125 
Q 6.6875 52.484375 6.640625 52.828125 
L 14.9375 52.828125 
Q 14.984375 52.59375 15.03125 51.515625 
Q 15.09375 50.4375 15.15625 49.046875 
Q 15.234375 47.65625 15.28125 46.21875 
Q 15.328125 44.78125 15.328125 43.796875 
L 15.484375 43.796875 
Q 16.75 46.09375 18.265625 47.953125 
Q 19.78125 49.8125 21.78125 51.09375 
Q 23.78125 52.390625 26.359375 53.09375 
Q 28.953125 53.8125 32.375 53.8125 
Q 36.765625 53.8125 39.9375 52.734375 
Q 43.109375 51.65625 45.15625 49.40625 
Q 47.21875 47.171875 48.171875 43.625 
Q 49.125 40.09375 49.125 35.203125 
L 49.125 0 
z
" id="LiberationSans-6e"/>
       <path d="M 40.09375 8.5 
Q 37.640625 3.421875 33.609375 1.21875 
Q 29.59375 -0.984375 23.640625 -0.984375 
Q 13.625 -0.984375 8.90625 5.75 
Q 4.203125 12.5 4.203125 26.171875 
Q 4.203125 53.8125 23.640625 53.8125 
Q 29.640625 53.8125 33.640625 51.609375 
Q 37.640625 49.421875 40.09375 44.625 
L 40.1875 44.625 
Q 40.1875 45.125 40.15625 46.171875 
Q 40.140625 47.21875 40.109375 48.359375 
Q 40.09375 49.515625 40.09375 50.53125 
Q 40.09375 51.5625 40.09375 52 
L 40.09375 72.46875 
L 48.875 72.46875 
L 48.875 10.890625 
Q 48.875 8.984375 48.890625 7.21875 
Q 48.921875 5.46875 48.96875 4 
Q 49.03125 2.546875 49.078125 1.484375 
Q 49.125 0.4375 49.171875 0 
L 40.765625 0 
Q 40.671875 0.484375 40.59375 1.390625 
Q 40.53125 2.296875 40.453125 3.46875 
Q 40.375 4.640625 40.328125 5.9375 
Q 40.28125 7.234375 40.28125 8.5 
z
M 13.421875 26.46875 
Q 13.421875 21 14.109375 17.09375 
Q 14.796875 13.1875 16.3125 10.671875 
Q 17.828125 8.15625 20.171875 6.984375 
Q 22.515625 5.8125 25.875 5.8125 
Q 29.34375 5.8125 32 6.9375 
Q 34.671875 8.0625 36.453125 10.578125 
Q 38.234375 13.09375 39.15625 17.140625 
Q 40.09375 21.1875 40.09375 27.046875 
Q 40.09375 32.671875 39.15625 36.546875 
Q 38.234375 40.4375 36.421875 42.828125 
Q 34.625 45.21875 32 46.265625 
Q 29.390625 47.3125 25.984375 47.3125 
Q 22.75 47.3125 20.40625 46.1875 
Q 18.0625 45.0625 16.5 42.578125 
Q 14.9375 40.09375 14.171875 36.109375 
Q 13.421875 32.125 13.421875 26.46875 
z
" id="LiberationSans-64"/>
       <path d="M 20.21875 -0.984375 
Q 12.25 -0.984375 8.25 3.21875 
Q 4.25 7.421875 4.25 14.75 
Q 4.25 19.96875 6.21875 23.3125 
Q 8.203125 26.65625 11.390625 28.5625 
Q 14.59375 30.46875 18.6875 31.203125 
Q 22.796875 31.9375 27.046875 32.03125 
L 38.921875 32.234375 
L 38.921875 35.109375 
Q 38.921875 38.375 38.234375 40.671875 
Q 37.546875 42.96875 36.125 44.375 
Q 34.71875 45.796875 32.59375 46.453125 
Q 30.46875 47.125 27.59375 47.125 
Q 25.046875 47.125 23 46.75 
Q 20.953125 46.390625 19.4375 45.4375 
Q 17.921875 44.484375 16.984375 42.84375 
Q 16.0625 41.21875 15.765625 38.71875 
L 6.59375 39.546875 
Q 7.078125 42.671875 8.4375 45.28125 
Q 9.8125 47.90625 12.328125 49.796875 
Q 14.84375 51.703125 18.625 52.75 
Q 22.40625 53.8125 27.78125 53.8125 
Q 37.75 53.8125 42.765625 49.234375 
Q 47.796875 44.671875 47.796875 36.03125 
L 47.796875 13.28125 
Q 47.796875 9.375 48.828125 7.390625 
Q 49.859375 5.421875 52.734375 5.421875 
Q 53.46875 5.421875 54.203125 5.515625 
Q 54.9375 5.609375 55.609375 5.765625 
L 55.609375 0.296875 
Q 53.953125 -0.09375 52.3125 -0.28125 
Q 50.6875 -0.484375 48.828125 -0.484375 
Q 46.34375 -0.484375 44.5625 0.171875 
Q 42.78125 0.828125 41.65625 2.171875 
Q 40.53125 3.515625 39.9375 5.484375 
Q 39.359375 7.46875 39.203125 10.109375 
L 38.921875 10.109375 
Q 37.5 7.5625 35.8125 5.515625 
Q 34.125 3.46875 31.875 2.03125 
Q 29.640625 0.59375 26.78125 -0.1875 
Q 23.921875 -0.984375 20.21875 -0.984375 
z
M 22.21875 5.609375 
Q 26.421875 5.609375 29.5625 7.140625 
Q 32.71875 8.6875 34.78125 11.078125 
Q 36.859375 13.484375 37.890625 16.3125 
Q 38.921875 19.140625 38.921875 21.734375 
L 38.921875 26.078125 
L 29.296875 25.875 
Q 26.078125 25.828125 23.171875 25.40625 
Q 20.265625 25 18.0625 23.78125 
Q 15.875 22.5625 14.578125 20.359375 
Q 13.28125 18.171875 13.28125 14.59375 
Q 13.28125 10.296875 15.59375 7.953125 
Q 17.921875 5.609375 22.21875 5.609375 
z
" id="LiberationSans-61"/>
       <path d="M 29.5 0 
Q 27.640625 -4.78125 25.703125 -8.609375 
Q 23.78125 -12.453125 21.390625 -15.15625 
Q 19 -17.875 16.0625 -19.3125 
Q 13.140625 -20.75 9.328125 -20.75 
Q 7.671875 -20.75 6.25 -20.65625 
Q 4.828125 -20.5625 3.265625 -20.21875 
L 3.265625 -13.625 
Q 4.203125 -13.765625 5.375 -13.84375 
Q 6.546875 -13.921875 7.375 -13.921875 
Q 11.234375 -13.921875 14.546875 -11.03125 
Q 17.875 -8.15625 20.359375 -1.859375 
L 21.1875 0.25 
L 0.25 52.828125 
L 9.625 52.828125 
L 20.75 23.640625 
Q 21.234375 22.3125 21.984375 20.109375 
Q 22.75 17.921875 23.5 15.71875 
Q 24.265625 13.53125 24.84375 11.765625 
Q 25.4375 10.015625 25.53125 9.578125 
Q 25.6875 10.109375 26.25 11.6875 
Q 26.8125 13.28125 27.515625 15.234375 
Q 28.21875 17.1875 28.953125 19.1875 
Q 29.6875 21.1875 30.171875 22.65625 
L 40.53125 52.828125 
L 49.8125 52.828125 
z
" id="LiberationSans-79"/>
       <path id="LiberationSans-20"/>
       <path d="M 6.203125 25.984375 
Q 6.203125 32.765625 7.21875 38.96875 
Q 8.25 45.171875 10.4375 50.875 
Q 12.640625 56.59375 16.0625 61.953125 
Q 19.484375 67.328125 24.21875 72.46875 
L 32.71875 72.46875 
Q 28.125 67.328125 24.78125 61.9375 
Q 21.4375 56.546875 19.28125 50.796875 
Q 17.140625 45.0625 16.09375 38.859375 
Q 15.046875 32.671875 15.046875 25.875 
Q 15.046875 19.09375 16.09375 12.890625 
Q 17.140625 6.6875 19.28125 0.921875 
Q 21.4375 -4.828125 24.78125 -10.203125 
Q 28.125 -15.578125 32.71875 -20.703125 
L 24.21875 -20.703125 
Q 19.484375 -15.578125 16.0625 -10.203125 
Q 12.640625 -4.828125 10.4375 0.875 
Q 8.25 6.59375 7.21875 12.765625 
Q 6.203125 18.953125 6.203125 25.78125 
z
" id="LiberationSans-28"/>
       <path d="M 67.4375 35.109375 
Q 67.4375 26.515625 64.84375 19.9375 
Q 62.25 13.375 57.75 8.953125 
Q 53.265625 4.546875 47.140625 2.265625 
Q 41.015625 0 33.9375 0 
L 8.203125 0 
L 8.203125 68.796875 
L 30.953125 68.796875 
Q 38.921875 68.796875 45.625 66.8125 
Q 52.34375 64.84375 57.171875 60.71875 
Q 62.015625 56.59375 64.71875 50.234375 
Q 67.4375 43.890625 67.4375 35.109375 
z
M 58.0625 35.109375 
Q 58.0625 42.09375 56.046875 47.046875 
Q 54.046875 52 50.4375 55.171875 
Q 46.828125 58.34375 41.796875 59.828125 
Q 36.765625 61.328125 30.765625 61.328125 
L 17.53125 61.328125 
L 17.53125 7.46875 
L 32.859375 7.46875 
Q 38.28125 7.46875 42.890625 9.21875 
Q 47.515625 10.984375 50.875 14.453125 
Q 54.25 17.921875 56.15625 23.09375 
Q 58.0625 28.265625 58.0625 35.109375 
z
" id="LiberationSans-44"/>
       <path d="M 35.15625 61.1875 
L 35.15625 0 
L 25.875 0 
L 25.875 61.1875 
L 2.25 61.1875 
L 2.25 68.796875 
L 58.796875 68.796875 
L 58.796875 61.1875 
z
" id="LiberationSans-54"/>
       <path d="M 8.203125 0 
L 8.203125 68.796875 
L 60.40625 68.796875 
L 60.40625 61.1875 
L 17.53125 61.1875 
L 17.53125 39.109375 
L 57.46875 39.109375 
L 57.46875 31.59375 
L 17.53125 31.59375 
L 17.53125 7.625 
L 62.40625 7.625 
L 62.40625 0 
z
" id="LiberationSans-45"/>
       <path d="M 46.390625 14.59375 
Q 46.390625 10.890625 44.9375 7.984375 
Q 43.5 5.078125 40.765625 3.09375 
Q 38.03125 1.125 34.046875 0.0625 
Q 30.078125 -0.984375 24.953125 -0.984375 
Q 20.359375 -0.984375 16.671875 -0.265625 
Q 12.984375 0.4375 10.203125 2 
Q 7.421875 3.5625 5.53125 6.125 
Q 3.65625 8.6875 2.78125 12.40625 
L 10.546875 13.921875 
Q 11.671875 9.671875 15.1875 7.6875 
Q 18.703125 5.71875 24.953125 5.71875 
Q 27.78125 5.71875 30.140625 6.109375 
Q 32.515625 6.5 34.21875 7.453125 
Q 35.9375 8.40625 36.890625 9.984375 
Q 37.84375 11.578125 37.84375 13.921875 
Q 37.84375 16.3125 36.71875 17.84375 
Q 35.59375 19.390625 33.59375 20.40625 
Q 31.59375 21.4375 28.734375 22.1875 
Q 25.875 22.953125 22.46875 23.875 
Q 19.28125 24.703125 16.15625 25.734375 
Q 13.03125 26.765625 10.515625 28.4375 
Q 8.015625 30.125 6.453125 32.609375 
Q 4.890625 35.109375 4.890625 38.875 
Q 4.890625 46.09375 10.03125 49.875 
Q 15.1875 53.65625 25.046875 53.65625 
Q 33.796875 53.65625 38.9375 50.578125 
Q 44.09375 47.515625 45.453125 40.71875 
L 37.546875 39.75 
Q 37.109375 41.796875 35.9375 43.1875 
Q 34.765625 44.578125 33.109375 45.4375 
Q 31.453125 46.296875 29.375 46.65625 
Q 27.296875 47.015625 25.046875 47.015625 
Q 19.09375 47.015625 16.25 45.203125 
Q 13.421875 43.40625 13.421875 39.75 
Q 13.421875 37.59375 14.46875 36.203125 
Q 15.53125 34.8125 17.40625 33.859375 
Q 19.28125 32.90625 21.921875 32.203125 
Q 24.5625 31.5 27.734375 30.71875 
Q 29.828125 30.171875 32.03125 29.5625 
Q 34.234375 28.953125 36.296875 28.09375 
Q 38.375 27.25 40.203125 26.09375 
Q 42.046875 24.953125 43.40625 23.34375 
Q 44.78125 21.734375 45.578125 19.578125 
Q 46.390625 17.4375 46.390625 14.59375 
z
" id="LiberationSans-73"/>
       <path d="M 27.09375 25.78125 
Q 27.09375 18.953125 26.0625 12.765625 
Q 25.046875 6.59375 22.84375 0.875 
Q 20.65625 -4.828125 17.234375 -10.203125 
Q 13.8125 -15.578125 9.078125 -20.703125 
L 0.59375 -20.703125 
Q 5.171875 -15.578125 8.515625 -10.203125 
Q 11.859375 -4.828125 14 0.921875 
Q 16.15625 6.6875 17.203125 12.890625 
Q 18.265625 19.09375 18.265625 25.875 
Q 18.265625 32.671875 17.203125 38.859375 
Q 16.15625 45.0625 14 50.796875 
Q 11.859375 56.546875 8.515625 61.9375 
Q 5.171875 67.328125 0.59375 72.46875 
L 9.078125 72.46875 
Q 13.8125 67.328125 17.234375 61.953125 
Q 20.65625 56.59375 22.84375 50.875 
Q 25.046875 45.171875 26.0625 38.96875 
Q 27.09375 32.765625 27.09375 25.984375 
z
" id="LiberationSans-29"/>
      </defs>
      <g style="fill:#262626;" transform="translate(43.637865 381.6323)scale(0.14 -0.14)">
       <use xlink:href="#LiberationSans-53"/>
       <use x="66.699219" xlink:href="#LiberationSans-75"/>
       <use x="122.314453" xlink:href="#LiberationSans-6e"/>
       <use x="177.929688" xlink:href="#LiberationSans-64"/>
       <use x="233.544922" xlink:href="#LiberationSans-61"/>
       <use x="289.160156" xlink:href="#LiberationSans-79"/>
       <use x="339.160156" xlink:href="#LiberationSans-20"/>
       <use x="366.943359" xlink:href="#LiberationSans-28"/>
       <use x="400.244141" xlink:href="#LiberationSans-44"/>
       <use x="472.460938" xlink:href="#LiberationSans-53"/>
       <use x="539.160156" xlink:href="#LiberationSans-54"/>
       <use x="600.228516" xlink:href="#LiberationSans-20"/>
       <use x="628.011719" xlink:href="#LiberationSans-45"/>
       <use x="694.710938" xlink:href="#LiberationSans-6e"/>
       <use x="750.326172" xlink:href="#LiberationSans-64"/>
       <use x="805.941406" xlink:href="#LiberationSans-73"/>
       <use x="855.941406" xlink:href="#LiberationSans-29"/>
      </g>
     </g>
    </g>
    <g id="xtick_2">
     <g id="text_2">
      <!-- Monday -->
      <defs>
       <path d="M 66.703125 0 
L 66.703125 45.90625 
Q 66.703125 48.390625 66.75 50.96875 
Q 66.796875 53.5625 66.890625 55.71875 
Q 67 58.203125 67.140625 60.546875 
Q 66.453125 58.0625 65.71875 55.609375 
Q 65.09375 53.515625 64.328125 51.140625 
Q 63.578125 48.78125 62.84375 46.875 
L 45.0625 0 
L 38.53125 0 
L 20.515625 46.875 
Q 20.21875 47.609375 19.890625 48.578125 
Q 19.578125 49.5625 19.203125 50.65625 
Q 18.84375 51.765625 18.46875 52.90625 
Q 18.109375 54.046875 17.78125 55.171875 
Q 16.9375 57.765625 16.15625 60.546875 
Q 16.21875 57.8125 16.3125 55.125 
Q 16.40625 52.828125 16.453125 50.3125 
Q 16.5 47.796875 16.5 45.90625 
L 16.5 0 
L 8.203125 0 
L 8.203125 68.796875 
L 20.453125 68.796875 
L 38.765625 21.09375 
Q 39.109375 20.125 39.59375 18.578125 
Q 40.09375 17.046875 40.53125 15.421875 
Q 40.96875 13.8125 41.328125 12.375 
Q 41.703125 10.9375 41.84375 10.15625 
Q 42 10.9375 42.390625 12.40625 
Q 42.78125 13.875 43.28125 15.484375 
Q 43.796875 17.09375 44.28125 18.609375 
Q 44.78125 20.125 45.171875 21.09375 
L 63.140625 68.796875 
L 75.09375 68.796875 
L 75.09375 0 
z
" id="LiberationSans-4d"/>
       <path d="M 51.421875 26.46875 
Q 51.421875 12.59375 45.3125 5.796875 
Q 39.203125 -0.984375 27.59375 -0.984375 
Q 22.078125 -0.984375 17.71875 0.671875 
Q 13.375 2.34375 10.375 5.765625 
Q 7.375 9.1875 5.78125 14.328125 
Q 4.203125 19.484375 4.203125 26.46875 
Q 4.203125 53.8125 27.875 53.8125 
Q 34.03125 53.8125 38.5 52.09375 
Q 42.96875 50.390625 45.828125 46.96875 
Q 48.6875 43.5625 50.046875 38.421875 
Q 51.421875 33.296875 51.421875 26.46875 
z
M 42.1875 26.46875 
Q 42.1875 32.625 41.234375 36.625 
Q 40.28125 40.625 38.453125 43.015625 
Q 36.625 45.40625 33.984375 46.359375 
Q 31.34375 47.3125 28.03125 47.3125 
Q 24.65625 47.3125 21.9375 46.3125 
Q 19.234375 45.3125 17.328125 42.890625 
Q 15.4375 40.484375 14.421875 36.46875 
Q 13.421875 32.46875 13.421875 26.46875 
Q 13.421875 20.3125 14.5 16.28125 
Q 15.578125 12.25 17.453125 9.859375 
Q 19.34375 7.46875 21.90625 6.484375 
Q 24.46875 5.515625 27.484375 5.515625 
Q 30.859375 5.515625 33.59375 6.46875 
Q 36.328125 7.421875 38.234375 9.8125 
Q 40.140625 12.203125 41.15625 16.25 
Q 42.1875 20.3125 42.1875 26.46875 
z
" id="LiberationSans-6f"/>
      </defs>
      <g style="fill:#262626;" transform="translate(176.637821 381.6323)scale(0.14 -0.14)">
       <use xlink:href="#LiberationSans-4d"/>
       <use x="83.300781" xlink:href="#LiberationSans-6f"/>
       <use x="138.916016" xlink:href="#LiberationSans-6e"/>
       <use x="194.53125" xlink:href="#LiberationSans-64"/>
       <use x="250.146484" xlink:href="#LiberationSans-61"/>
       <use x="305.761719" xlink:href="#LiberationSans-79"/>
      </g>
     </g>
    </g>
    <g id="xtick_3">
     <g id="text_3">
      <!-- Tuesday -->
      <defs>
       <path d="M 13.484375 24.5625 
Q 13.484375 20.40625 14.328125 16.90625 
Q 15.1875 13.421875 16.96875 10.90625 
Q 18.75 8.40625 21.53125 7 
Q 24.3125 5.609375 28.21875 5.609375 
Q 33.9375 5.609375 37.375 7.90625 
Q 40.828125 10.203125 42.046875 13.71875 
L 49.75 11.53125 
Q 48.921875 9.328125 47.4375 7.109375 
Q 45.953125 4.890625 43.453125 3.09375 
Q 40.96875 1.3125 37.234375 0.15625 
Q 33.5 -0.984375 28.21875 -0.984375 
Q 16.5 -0.984375 10.375 6 
Q 4.25 12.984375 4.25 26.765625 
Q 4.25 34.1875 6.09375 39.328125 
Q 7.953125 44.484375 11.171875 47.703125 
Q 14.40625 50.921875 18.703125 52.359375 
Q 23 53.8125 27.875 53.8125 
Q 34.515625 53.8125 38.984375 51.65625 
Q 43.453125 49.515625 46.15625 45.71875 
Q 48.875 41.9375 50.015625 36.8125 
Q 51.171875 31.6875 51.171875 25.734375 
L 51.171875 24.5625 
z
M 42.09375 31.296875 
Q 41.359375 39.65625 37.84375 43.484375 
Q 34.328125 47.3125 27.734375 47.3125 
Q 25.53125 47.3125 23.109375 46.609375 
Q 20.703125 45.90625 18.65625 44.09375 
Q 16.609375 42.28125 15.1875 39.171875 
Q 13.765625 36.078125 13.578125 31.296875 
z
" id="LiberationSans-65"/>
      </defs>
      <g style="fill:#262626;" transform="translate(270.353557 381.6323)scale(0.14 -0.14)">
       <use xlink:href="#LiberationSans-54"/>
       <use x="61.037109" xlink:href="#LiberationSans-75"/>
       <use x="116.652344" xlink:href="#LiberationSans-65"/>
       <use x="172.267578" xlink:href="#LiberationSans-73"/>
       <use x="222.267578" xlink:href="#LiberationSans-64"/>
       <use x="277.882812" xlink:href="#LiberationSans-61"/>
       <use x="333.498047" xlink:href="#LiberationSans-79"/>
      </g>
     </g>
    </g>
    <g id="xtick_4">
     <g id="text_4">
      <!-- Wednesday -->
      <defs>
       <path d="M 73.78125 0 
L 62.640625 0 
L 50.734375 43.703125 
Q 50.203125 45.5625 49.578125 48.09375 
Q 48.96875 50.640625 48.484375 52.9375 
Q 47.90625 55.609375 47.3125 58.40625 
Q 46.6875 55.5625 46.09375 52.875 
Q 45.5625 50.53125 44.96875 48.046875 
Q 44.390625 45.5625 43.84375 43.703125 
L 31.84375 0 
L 20.703125 0 
L 0.4375 68.796875 
L 10.15625 68.796875 
L 22.515625 25.09375 
Q 23.34375 22.015625 24.09375 18.984375 
Q 24.859375 15.96875 25.390625 13.578125 
Q 26.03125 10.75 26.5625 8.203125 
Q 27.296875 11.578125 28.078125 14.84375 
Q 28.421875 16.21875 28.765625 17.71875 
Q 29.109375 19.234375 29.46875 20.703125 
Q 29.828125 22.171875 30.1875 23.515625 
Q 30.5625 24.859375 30.859375 25.984375 
L 42.828125 68.796875 
L 51.765625 68.796875 
L 63.71875 25.984375 
Q 64.015625 24.859375 64.375 23.515625 
Q 64.75 22.171875 65.109375 20.71875 
Q 65.484375 19.28125 65.8125 17.765625 
Q 66.15625 16.265625 66.5 14.890625 
Q 67.28125 11.625 68.015625 8.203125 
Q 68.0625 8.203125 68.453125 9.890625 
Q 68.84375 11.578125 69.421875 14.109375 
Q 70.015625 16.65625 70.71875 19.609375 
Q 71.4375 22.5625 72.171875 25.09375 
L 84.328125 68.796875 
L 94.046875 68.796875 
z
" id="LiberationSans-57"/>
      </defs>
      <g style="fill:#262626;" transform="translate(355.891325 381.6323)scale(0.14 -0.14)">
       <use xlink:href="#LiberationSans-57"/>
       <use x="94.369141" xlink:href="#LiberationSans-65"/>
       <use x="149.984375" xlink:href="#LiberationSans-64"/>
       <use x="205.599609" xlink:href="#LiberationSans-6e"/>
       <use x="261.214844" xlink:href="#LiberationSans-65"/>
       <use x="316.830078" xlink:href="#LiberationSans-73"/>
       <use x="366.830078" xlink:href="#LiberationSans-64"/>
       <use x="422.445312" xlink:href="#LiberationSans-61"/>
       <use x="478.060547" xlink:href="#LiberationSans-79"/>
      </g>
     </g>
    </g>
    <g id="xtick_5">
     <g id="text_5">
      <!-- Thursday -->
      <defs>
       <path d="M 15.484375 43.796875 
Q 16.9375 46.484375 18.640625 48.359375 
Q 20.359375 50.25 22.40625 51.46875 
Q 24.46875 52.6875 26.90625 53.25 
Q 29.34375 53.8125 32.375 53.8125 
Q 37.453125 53.8125 40.703125 52.4375 
Q 43.953125 51.078125 45.828125 48.609375 
Q 47.703125 46.140625 48.40625 42.71875 
Q 49.125 39.3125 49.125 35.203125 
L 49.125 0 
L 40.28125 0 
L 40.28125 33.5 
Q 40.28125 36.859375 39.859375 39.390625 
Q 39.453125 41.9375 38.28125 43.625 
Q 37.109375 45.3125 34.953125 46.15625 
Q 32.8125 47.015625 29.390625 47.015625 
Q 26.265625 47.015625 23.75 45.890625 
Q 21.234375 44.78125 19.453125 42.71875 
Q 17.671875 40.671875 16.6875 37.734375 
Q 15.71875 34.8125 15.71875 31.15625 
L 15.71875 0 
L 6.9375 0 
L 6.9375 72.46875 
L 15.71875 72.46875 
L 15.71875 53.609375 
Q 15.71875 52 15.671875 50.390625 
Q 15.625 48.78125 15.546875 47.40625 
Q 15.484375 46.046875 15.421875 45.09375 
Q 15.375 44.140625 15.328125 43.796875 
z
" id="LiberationSans-68"/>
       <path d="M 6.9375 0 
L 6.9375 40.53125 
Q 6.9375 42.1875 6.90625 43.921875 
Q 6.890625 45.65625 6.828125 47.265625 
Q 6.78125 48.875 6.734375 50.28125 
Q 6.6875 51.703125 6.640625 52.828125 
L 14.9375 52.828125 
Q 14.984375 51.703125 15.0625 50.265625 
Q 15.140625 48.828125 15.203125 47.3125 
Q 15.28125 45.796875 15.296875 44.40625 
Q 15.328125 43.015625 15.328125 42.046875 
L 15.53125 42.046875 
Q 16.453125 45.0625 17.5 47.28125 
Q 18.5625 49.515625 19.96875 50.953125 
Q 21.390625 52.390625 23.34375 53.09375 
Q 25.296875 53.8125 28.078125 53.8125 
Q 29.15625 53.8125 30.125 53.640625 
Q 31.109375 53.46875 31.640625 53.328125 
L 31.640625 45.265625 
Q 30.765625 45.515625 29.59375 45.625 
Q 28.421875 45.75 26.953125 45.75 
Q 23.921875 45.75 21.796875 44.375 
Q 19.671875 43.015625 18.328125 40.59375 
Q 17 38.1875 16.359375 34.84375 
Q 15.71875 31.5 15.71875 27.546875 
L 15.71875 0 
z
" id="LiberationSans-72"/>
      </defs>
      <g style="fill:#262626;" transform="translate(459.33378 381.6323)scale(0.14 -0.14)">
       <use xlink:href="#LiberationSans-54"/>
       <use x="61.083984" xlink:href="#LiberationSans-68"/>
       <use x="116.699219" xlink:href="#LiberationSans-75"/>
       <use x="172.314453" xlink:href="#LiberationSans-72"/>
       <use x="205.615234" xlink:href="#LiberationSans-73"/>
       <use x="255.615234" xlink:href="#LiberationSans-64"/>
       <use x="311.230469" xlink:href="#LiberationSans-61"/>
       <use x="366.845703" xlink:href="#LiberationSans-79"/>
      </g>
     </g>
    </g>
    <g id="xtick_6">
     <g id="text_6">
      <!-- Friday -->
      <defs>
       <path d="M 17.53125 61.1875 
L 17.53125 35.59375 
L 55.90625 35.59375 
L 55.90625 27.875 
L 17.53125 27.875 
L 17.53125 0 
L 8.203125 0 
L 8.203125 68.796875 
L 57.078125 68.796875 
L 57.078125 61.1875 
z
" id="LiberationSans-46"/>
       <path d="M 6.6875 64.0625 
L 6.6875 72.46875 
L 15.484375 72.46875 
L 15.484375 64.0625 
z
M 6.6875 0 
L 6.6875 52.828125 
L 15.484375 52.828125 
L 15.484375 0 
z
" id="LiberationSans-69"/>
      </defs>
      <g style="fill:#262626;" transform="translate(564.720923 381.6323)scale(0.14 -0.14)">
       <use xlink:href="#LiberationSans-46"/>
       <use x="61.083984" xlink:href="#LiberationSans-72"/>
       <use x="94.384766" xlink:href="#LiberationSans-69"/>
       <use x="116.601562" xlink:href="#LiberationSans-64"/>
       <use x="172.216797" xlink:href="#LiberationSans-61"/>
       <use x="227.832031" xlink:href="#LiberationSans-79"/>
      </g>
     </g>
    </g>
    <g id="xtick_7">
     <g id="text_7">
      <!-- Saturday -->
      <defs>
       <path d="M 27.046875 0.390625 
Q 25.046875 -0.140625 22.96875 -0.453125 
Q 20.90625 -0.78125 18.171875 -0.78125 
Q 7.625 -0.78125 7.625 11.1875 
L 7.625 46.4375 
L 1.515625 46.4375 
L 1.515625 52.828125 
L 7.953125 52.828125 
L 10.546875 64.65625 
L 16.40625 64.65625 
L 16.40625 52.828125 
L 26.171875 52.828125 
L 26.171875 46.4375 
L 16.40625 46.4375 
L 16.40625 13.09375 
Q 16.40625 9.28125 17.640625 7.734375 
Q 18.890625 6.203125 21.96875 6.203125 
Q 23.25 6.203125 24.4375 6.390625 
Q 25.640625 6.59375 27.046875 6.890625 
z
" id="LiberationSans-74"/>
      </defs>
      <g style="fill:#262626;" transform="translate(651.809629 381.6323)scale(0.14 -0.14)">
       <use xlink:href="#LiberationSans-53"/>
       <use x="66.699219" xlink:href="#LiberationSans-61"/>
       <use x="122.314453" xlink:href="#LiberationSans-74"/>
       <use x="150.097656" xlink:href="#LiberationSans-75"/>
       <use x="205.712891" xlink:href="#LiberationSans-72"/>
       <use x="239.013672" xlink:href="#LiberationSans-64"/>
       <use x="294.628906" xlink:href="#LiberationSans-61"/>
       <use x="350.244141" xlink:href="#LiberationSans-79"/>
      </g>
     </g>
    </g>
   </g>
   <g id="matplotlib.axis_2">
    <g id="ytick_1">
     <g id="text_8">
      <!-- 0.50 -->
      <defs>
       <path d="M 51.703125 34.421875 
Q 51.703125 24.515625 49.828125 17.75 
Q 47.953125 10.984375 44.703125 6.8125 
Q 41.453125 2.640625 37.0625 0.828125 
Q 32.671875 -0.984375 27.6875 -0.984375 
Q 22.65625 -0.984375 18.3125 0.828125 
Q 13.96875 2.640625 10.765625 6.78125 
Q 7.5625 10.9375 5.734375 17.703125 
Q 3.90625 24.46875 3.90625 34.421875 
Q 3.90625 44.828125 5.734375 51.640625 
Q 7.5625 58.453125 10.78125 62.5 
Q 14.015625 66.546875 18.40625 68.1875 
Q 22.796875 69.828125 27.984375 69.828125 
Q 32.90625 69.828125 37.21875 68.1875 
Q 41.546875 66.546875 44.765625 62.5 
Q 48 58.453125 49.84375 51.640625 
Q 51.703125 44.828125 51.703125 34.421875 
z
M 42.78125 34.421875 
Q 42.78125 42.625 41.796875 48.0625 
Q 40.828125 53.515625 38.921875 56.765625 
Q 37.015625 60.015625 34.25 61.359375 
Q 31.5 62.703125 27.984375 62.703125 
Q 24.265625 62.703125 21.4375 61.328125 
Q 18.609375 59.96875 16.671875 56.71875 
Q 14.75 53.46875 13.765625 48.015625 
Q 12.796875 42.578125 12.796875 34.421875 
Q 12.796875 26.515625 13.796875 21.09375 
Q 14.796875 15.671875 16.71875 12.375 
Q 18.65625 9.078125 21.4375 7.640625 
Q 24.21875 6.203125 27.78125 6.203125 
Q 31.25 6.203125 34.03125 7.640625 
Q 36.8125 9.078125 38.734375 12.375 
Q 40.671875 15.671875 41.71875 21.09375 
Q 42.78125 26.515625 42.78125 34.421875 
z
" id="LiberationSans-30"/>
       <path d="M 9.125 0 
L 9.125 10.6875 
L 18.65625 10.6875 
L 18.65625 0 
z
" id="LiberationSans-2e"/>
       <path d="M 51.421875 22.40625 
Q 51.421875 17.234375 49.859375 12.9375 
Q 48.296875 8.640625 45.21875 5.53125 
Q 42.140625 2.4375 37.578125 0.71875 
Q 33.015625 -0.984375 27 -0.984375 
Q 21.578125 -0.984375 17.546875 0.28125 
Q 13.53125 1.5625 10.734375 3.78125 
Q 7.953125 6 6.3125 8.984375 
Q 4.6875 11.96875 4 15.375 
L 12.890625 16.40625 
Q 13.421875 14.453125 14.390625 12.625 
Q 15.375 10.796875 17.0625 9.34375 
Q 18.75 7.90625 21.21875 7.046875 
Q 23.6875 6.203125 27.203125 6.203125 
Q 30.609375 6.203125 33.390625 7.25 
Q 36.1875 8.296875 38.15625 10.34375 
Q 40.140625 12.40625 41.203125 15.375 
Q 42.28125 18.359375 42.28125 22.21875 
Q 42.28125 25.390625 41.25 28.046875 
Q 40.234375 30.71875 38.328125 32.640625 
Q 36.421875 34.578125 33.65625 35.640625 
Q 30.90625 36.71875 27.390625 36.71875 
Q 25.203125 36.71875 23.34375 36.328125 
Q 21.484375 35.9375 19.890625 35.25 
Q 18.3125 34.578125 17.015625 33.671875 
Q 15.71875 32.765625 14.59375 31.78125 
L 6 31.78125 
L 8.296875 68.796875 
L 47.40625 68.796875 
L 47.40625 61.328125 
L 16.3125 61.328125 
L 14.984375 39.5 
Q 17.328125 41.3125 20.84375 42.59375 
Q 24.359375 43.890625 29.203125 43.890625 
Q 34.328125 43.890625 38.421875 42.328125 
Q 42.53125 40.765625 45.40625 37.90625 
Q 48.296875 35.0625 49.859375 31.109375 
Q 51.421875 27.15625 51.421875 22.40625 
z
" id="LiberationSans-35"/>
      </defs>
      <g style="fill:#262626;" transform="translate(27.3082 344.037279)scale(0.14 -0.14)">
       <use xlink:href="#LiberationSans-30"/>
       <use x="55.615234" xlink:href="#LiberationSans-2e"/>
       <use x="83.398438" xlink:href="#LiberationSans-35"/>
       <use x="139.013672" xlink:href="#LiberationSans-30"/>
      </g>
     </g>
    </g>
    <g id="ytick_2">
     <g id="text_9">
      <!-- 0.75 -->
      <defs>
       <path d="M 50.59375 61.671875 
Q 45.40625 53.765625 41.0625 46.453125 
Q 36.71875 39.15625 33.59375 31.75 
Q 30.46875 24.359375 28.734375 16.578125 
Q 27 8.796875 27 0 
L 17.828125 0 
Q 17.828125 8.25 19.78125 16.1875 
Q 21.734375 24.125 25.046875 31.765625 
Q 28.375 39.40625 32.765625 46.78125 
Q 37.15625 54.15625 42.09375 61.328125 
L 5.125 61.328125 
L 5.125 68.796875 
L 50.59375 68.796875 
z
" id="LiberationSans-37"/>
      </defs>
      <g style="fill:#262626;" transform="translate(27.3082 307.754195)scale(0.14 -0.14)">
       <use xlink:href="#LiberationSans-30"/>
       <use x="55.615234" xlink:href="#LiberationSans-2e"/>
       <use x="83.398438" xlink:href="#LiberationSans-37"/>
       <use x="139.013672" xlink:href="#LiberationSans-35"/>
      </g>
     </g>
    </g>
    <g id="ytick_3">
     <g id="text_10">
      <!-- 1.00 -->
      <defs>
       <path d="M 7.625 0 
L 7.625 7.46875 
L 25.140625 7.46875 
L 25.140625 60.40625 
L 9.625 49.3125 
L 9.625 57.625 
L 25.875 68.796875 
L 33.984375 68.796875 
L 33.984375 7.46875 
L 50.734375 7.46875 
L 50.734375 0 
z
" id="LiberationSans-31"/>
      </defs>
      <g style="fill:#262626;" transform="translate(27.3082 271.471111)scale(0.14 -0.14)">
       <use xlink:href="#LiberationSans-31"/>
       <use x="55.615234" xlink:href="#LiberationSans-2e"/>
       <use x="83.398438" xlink:href="#LiberationSans-30"/>
       <use x="139.013672" xlink:href="#LiberationSans-30"/>
      </g>
     </g>
    </g>
    <g id="ytick_4">
     <g id="text_11">
      <!-- 1.25 -->
      <defs>
       <path d="M 5.03125 0 
L 5.03125 6.203125 
Q 7.515625 11.921875 11.109375 16.28125 
Q 14.703125 20.65625 18.65625 24.1875 
Q 22.609375 27.734375 26.484375 30.765625 
Q 30.375 33.796875 33.5 36.8125 
Q 36.625 39.84375 38.546875 43.15625 
Q 40.484375 46.484375 40.484375 50.6875 
Q 40.484375 53.609375 39.59375 55.828125 
Q 38.71875 58.0625 37.0625 59.5625 
Q 35.40625 61.078125 33.078125 61.828125 
Q 30.765625 62.59375 27.9375 62.59375 
Q 25.296875 62.59375 22.96875 61.859375 
Q 20.65625 61.140625 18.84375 59.671875 
Q 17.046875 58.203125 15.890625 56.03125 
Q 14.75 53.859375 14.40625 50.984375 
L 5.421875 51.8125 
Q 5.859375 55.515625 7.46875 58.78125 
Q 9.078125 62.0625 11.90625 64.53125 
Q 14.75 67 18.71875 68.40625 
Q 22.703125 69.828125 27.9375 69.828125 
Q 33.0625 69.828125 37.0625 68.609375 
Q 41.0625 67.390625 43.8125 64.984375 
Q 46.578125 62.59375 48.046875 59.078125 
Q 49.515625 55.5625 49.515625 50.984375 
Q 49.515625 47.515625 48.265625 44.390625 
Q 47.015625 41.265625 44.9375 38.421875 
Q 42.875 35.59375 40.140625 32.953125 
Q 37.40625 30.328125 34.421875 27.8125 
Q 31.453125 25.296875 28.421875 22.828125 
Q 25.390625 20.359375 22.71875 17.859375 
Q 20.0625 15.375 17.96875 12.8125 
Q 15.875 10.25 14.703125 7.46875 
L 50.59375 7.46875 
L 50.59375 0 
z
" id="LiberationSans-32"/>
      </defs>
      <g style="fill:#262626;" transform="translate(27.3082 235.188026)scale(0.14 -0.14)">
       <use xlink:href="#LiberationSans-31"/>
       <use x="55.615234" xlink:href="#LiberationSans-2e"/>
       <use x="83.398438" xlink:href="#LiberationSans-32"/>
       <use x="139.013672" xlink:href="#LiberationSans-35"/>
      </g>
     </g>
    </g>
    <g id="ytick_5">
     <g id="text_12">
      <!-- 1.50 -->
      <g style="fill:#262626;" transform="translate(27.3082 198.904942)scale(0.14 -0.14)">
       <use xlink:href="#LiberationSans-31"/>
       <use x="55.615234" xlink:href="#LiberationSans-2e"/>
       <use x="83.398438" xlink:href="#LiberationSans-35"/>
       <use x="139.013672" xlink:href="#LiberationSans-30"/>
      </g>
     </g>
    </g>
    <g id="ytick_6">
     <g id="text_13">
      <!-- 1.75 -->
      <g style="fill:#262626;" transform="translate(27.3082 162.621858)scale(0.14 -0.14)">
       <use xlink:href="#LiberationSans-31"/>
       <use x="55.615234" xlink:href="#LiberationSans-2e"/>
       <use x="83.398438" xlink:href="#LiberationSans-37"/>
       <use x="139.013672" xlink:href="#LiberationSans-35"/>
      </g>
     </g>
    </g>
    <g id="ytick_7">
     <g id="text_14">
      <!-- 2.00 -->
      <g style="fill:#262626;" transform="translate(27.3082 126.338774)scale(0.14 -0.14)">
       <use xlink:href="#LiberationSans-32"/>
       <use x="55.615234" xlink:href="#LiberationSans-2e"/>
       <use x="83.398438" xlink:href="#LiberationSans-30"/>
       <use x="139.013672" xlink:href="#LiberationSans-30"/>
      </g>
     </g>
    </g>
    <g id="ytick_8">
     <g id="text_15">
      <!-- 2.25 -->
      <g style="fill:#262626;" transform="translate(27.3082 90.05569)scale(0.14 -0.14)">
       <use xlink:href="#LiberationSans-32"/>
       <use x="55.615234" xlink:href="#LiberationSans-2e"/>
       <use x="83.398438" xlink:href="#LiberationSans-32"/>
       <use x="139.013672" xlink:href="#LiberationSans-35"/>
      </g>
     </g>
    </g>
    <g id="ytick_9">
     <g id="text_16">
      <!-- 2.50 -->
      <g style="fill:#262626;" transform="translate(27.3082 53.772605)scale(0.14 -0.14)">
       <use xlink:href="#LiberationSans-32"/>
       <use x="55.615234" xlink:href="#LiberationSans-2e"/>
       <use x="83.398438" xlink:href="#LiberationSans-35"/>
       <use x="139.013672" xlink:href="#LiberationSans-30"/>
      </g>
     </g>
    </g>
    <g id="text_17">
     <!-- Accident Ratio: End DST Week / Two Weeks After -->
     <defs>
      <path d="M 56.984375 0 
L 49.125 20.125 
L 17.78125 20.125 
L 9.859375 0 
L 0.203125 0 
L 28.265625 68.796875 
L 38.875 68.796875 
L 66.5 0 
z
M 37.5 50.09375 
Q 36.71875 52.046875 36 54.046875 
Q 35.296875 56.0625 34.765625 57.6875 
Q 34.234375 59.328125 33.859375 60.421875 
Q 33.5 61.53125 33.453125 61.765625 
Q 33.34375 61.53125 33 60.40625 
Q 32.671875 59.28125 32.109375 57.609375 
Q 31.546875 55.953125 30.828125 53.953125 
Q 30.125 51.953125 29.390625 50 
L 20.609375 27.390625 
L 46.34375 27.390625 
z
" id="LiberationSans-41"/>
      <path d="M 13.421875 26.65625 
Q 13.421875 22.125 14.078125 18.3125 
Q 14.75 14.5 16.3125 11.734375 
Q 17.875 8.984375 20.4375 7.46875 
Q 23 5.953125 26.765625 5.953125 
Q 31.453125 5.953125 34.59375 8.484375 
Q 37.75 11.03125 38.484375 16.3125 
L 47.359375 15.71875 
Q 46.921875 12.453125 45.453125 9.421875 
Q 44 6.390625 41.484375 4.09375 
Q 38.96875 1.8125 35.34375 0.40625 
Q 31.734375 -0.984375 27 -0.984375 
Q 20.796875 -0.984375 16.453125 1.109375 
Q 12.109375 3.21875 9.390625 6.90625 
Q 6.6875 10.59375 5.46875 15.59375 
Q 4.25 20.609375 4.25 26.46875 
Q 4.25 31.78125 5.125 35.859375 
Q 6 39.9375 7.59375 42.984375 
Q 9.1875 46.046875 11.328125 48.125 
Q 13.484375 50.203125 15.984375 51.4375 
Q 18.5 52.6875 21.28125 53.25 
Q 24.078125 53.8125 26.90625 53.8125 
Q 31.34375 53.8125 34.8125 52.59375 
Q 38.28125 51.375 40.796875 49.25 
Q 43.3125 47.125 44.875 44.234375 
Q 46.4375 41.359375 47.078125 38.03125 
L 38.03125 37.359375 
Q 37.359375 41.75 34.5625 44.328125 
Q 31.78125 46.921875 26.65625 46.921875 
Q 22.90625 46.921875 20.390625 45.671875 
Q 17.875 44.4375 16.3125 41.921875 
Q 14.75 39.40625 14.078125 35.59375 
Q 13.421875 31.78125 13.421875 26.65625 
z
" id="LiberationSans-63"/>
      <path d="M 56.84375 0 
L 38.96875 28.5625 
L 17.53125 28.5625 
L 17.53125 0 
L 8.203125 0 
L 8.203125 68.796875 
L 40.578125 68.796875 
Q 46.4375 68.796875 50.953125 67.453125 
Q 55.46875 66.109375 58.546875 63.5625 
Q 61.625 61.03125 63.234375 57.375 
Q 64.84375 53.71875 64.84375 49.125 
Q 64.84375 45.84375 63.890625 42.671875 
Q 62.9375 39.5 60.890625 36.859375 
Q 58.84375 34.234375 55.65625 32.328125 
Q 52.484375 30.421875 48.046875 29.640625 
L 67.578125 0 
z
M 55.46875 49.03125 
Q 55.46875 52.15625 54.390625 54.4375 
Q 53.328125 56.734375 51.265625 58.265625 
Q 49.21875 59.8125 46.28125 60.5625 
Q 43.359375 61.328125 39.65625 61.328125 
L 17.53125 61.328125 
L 17.53125 35.9375 
L 40.046875 35.9375 
Q 44.046875 35.9375 46.96875 36.9375 
Q 49.90625 37.9375 51.78125 39.6875 
Q 53.65625 41.453125 54.5625 43.84375 
Q 55.46875 46.234375 55.46875 49.03125 
z
" id="LiberationSans-52"/>
      <path d="M 9.125 42.71875 
L 9.125 52.828125 
L 18.65625 52.828125 
L 18.65625 42.71875 
z
M 9.125 0 
L 9.125 10.109375 
L 18.65625 10.109375 
L 18.65625 0 
z
" id="LiberationSans-3a"/>
      <path d="M 39.84375 0 
L 21.96875 24.125 
L 15.53125 18.796875 
L 15.53125 0 
L 6.734375 0 
L 6.734375 72.46875 
L 15.53125 72.46875 
L 15.53125 27.203125 
L 38.71875 52.828125 
L 49.03125 52.828125 
L 27.59375 30.125 
L 50.140625 0 
z
" id="LiberationSans-6b"/>
      <path d="M 0 -0.984375 
L 20.0625 72.46875 
L 27.78125 72.46875 
L 7.90625 -0.984375 
z
" id="LiberationSans-2f"/>
      <path d="M 57.328125 0 
L 47.125 0 
L 38.671875 34.078125 
Q 38.28125 35.40625 37.859375 37.359375 
Q 37.453125 39.3125 37.0625 41.15625 
Q 36.578125 43.3125 36.140625 45.609375 
Q 35.6875 43.40625 35.203125 41.265625 
Q 34.8125 39.40625 34.34375 37.40625 
Q 33.890625 35.40625 33.5 33.890625 
L 24.8125 0 
L 14.65625 0 
L -0.140625 52.828125 
L 8.546875 52.828125 
L 17.484375 16.9375 
Q 17.828125 15.828125 18.15625 14.1875 
Q 18.5 12.546875 18.84375 10.984375 
Q 19.1875 9.1875 19.578125 7.28125 
Q 19.96875 9.125 20.40625 10.890625 
Q 20.796875 12.40625 21.1875 13.96875 
Q 21.578125 15.53125 21.875 16.546875 
L 31.453125 52.828125 
L 40.875 52.828125 
L 50.09375 16.546875 
Q 50.4375 15.28125 50.828125 13.671875 
Q 51.21875 12.0625 51.5625 10.640625 
Q 51.953125 8.984375 52.34375 7.28125 
Q 52.734375 9.125 53.125 10.890625 
Q 53.46875 12.40625 53.828125 14.03125 
Q 54.203125 15.671875 54.546875 16.9375 
L 63.875 52.828125 
L 72.46875 52.828125 
z
" id="LiberationSans-77"/>
      <path d="M 17.625 46.4375 
L 17.625 0 
L 8.84375 0 
L 8.84375 46.4375 
L 1.421875 46.4375 
L 1.421875 52.828125 
L 8.84375 52.828125 
L 8.84375 58.796875 
Q 8.84375 61.671875 9.375 64.140625 
Q 9.90625 66.609375 11.34375 68.4375 
Q 12.796875 70.265625 15.28125 71.3125 
Q 17.78125 72.359375 21.734375 72.359375 
Q 23.296875 72.359375 24.96875 72.21875 
Q 26.65625 72.078125 27.9375 71.78125 
L 27.9375 65.09375 
Q 27.09375 65.234375 26 65.359375 
Q 24.90625 65.484375 24.03125 65.484375 
Q 22.078125 65.484375 20.828125 64.9375 
Q 19.578125 64.40625 18.875 63.40625 
Q 18.171875 62.40625 17.890625 60.9375 
Q 17.625 59.46875 17.625 57.5625 
L 17.625 52.828125 
L 27.9375 52.828125 
L 27.9375 46.4375 
z
" id="LiberationSans-66"/>
     </defs>
     <g style="fill:#262626;" transform="translate(19.7226 397.905375)rotate(-90)scale(0.1728 -0.1728)">
      <use xlink:href="#LiberationSans-41"/>
      <use x="66.699219" xlink:href="#LiberationSans-63"/>
      <use x="116.699219" xlink:href="#LiberationSans-63"/>
      <use x="166.699219" xlink:href="#LiberationSans-69"/>
      <use x="188.916016" xlink:href="#LiberationSans-64"/>
      <use x="244.53125" xlink:href="#LiberationSans-65"/>
      <use x="300.146484" xlink:href="#LiberationSans-6e"/>
      <use x="355.761719" xlink:href="#LiberationSans-74"/>
      <use x="383.544922" xlink:href="#LiberationSans-20"/>
      <use x="411.328125" xlink:href="#LiberationSans-52"/>
      <use x="483.544922" xlink:href="#LiberationSans-61"/>
      <use x="539.160156" xlink:href="#LiberationSans-74"/>
      <use x="566.943359" xlink:href="#LiberationSans-69"/>
      <use x="589.160156" xlink:href="#LiberationSans-6f"/>
      <use x="644.775391" xlink:href="#LiberationSans-3a"/>
      <use x="672.558594" xlink:href="#LiberationSans-20"/>
      <use x="700.341797" xlink:href="#LiberationSans-45"/>
      <use x="767.041016" xlink:href="#LiberationSans-6e"/>
      <use x="822.65625" xlink:href="#LiberationSans-64"/>
      <use x="878.271484" xlink:href="#LiberationSans-20"/>
      <use x="906.054688" xlink:href="#LiberationSans-44"/>
      <use x="978.271484" xlink:href="#LiberationSans-53"/>
      <use x="1044.970703" xlink:href="#LiberationSans-54"/>
      <use x="1106.039062" xlink:href="#LiberationSans-20"/>
      <use x="1133.822266" xlink:href="#LiberationSans-57"/>
      <use x="1228.191406" xlink:href="#LiberationSans-65"/>
      <use x="1283.806641" xlink:href="#LiberationSans-65"/>
      <use x="1339.421875" xlink:href="#LiberationSans-6b"/>
      <use x="1389.421875" xlink:href="#LiberationSans-20"/>
      <use x="1417.205078" xlink:href="#LiberationSans-2f"/>
      <use x="1444.988281" xlink:href="#LiberationSans-20"/>
      <use x="1472.755859" xlink:href="#LiberationSans-54"/>
      <use x="1533.761719" xlink:href="#LiberationSans-77"/>
      <use x="1605.978516" xlink:href="#LiberationSans-6f"/>
      <use x="1661.59375" xlink:href="#LiberationSans-20"/>
      <use x="1689.376953" xlink:href="#LiberationSans-57"/>
      <use x="1783.746094" xlink:href="#LiberationSans-65"/>
      <use x="1839.361328" xlink:href="#LiberationSans-65"/>
      <use x="1894.976562" xlink:href="#LiberationSans-6b"/>
      <use x="1944.976562" xlink:href="#LiberationSans-73"/>
      <use x="1994.976562" xlink:href="#LiberationSans-20"/>
      <use x="2022.681641" xlink:href="#LiberationSans-41"/>
      <use x="2089.380859" xlink:href="#LiberationSans-66"/>
      <use x="2117.164062" xlink:href="#LiberationSans-74"/>
      <use x="2144.947266" xlink:href="#LiberationSans-65"/>
      <use x="2200.5625" xlink:href="#LiberationSans-72"/>
     </g>
    </g>
   </g>
   <g id="PolyCollection_1">
    <defs>
     <path d="M 106.305697 -77.551366 
L 105.458471 -77.551366 
L 105.354839 -78.647461 
L 105.233841 -79.743556 
L 105.094722 -80.83965 
L 104.937241 -81.935745 
L 104.761769 -83.03184 
L 104.569361 -84.127934 
L 104.361784 -85.224029 
L 104.141496 -86.320124 
L 103.911566 -87.416218 
L 103.675533 -88.512313 
L 103.437206 -89.608407 
L 103.200423 -90.704502 
L 102.968766 -91.800597 
L 102.745279 -92.896691 
L 102.532192 -93.992786 
L 102.330691 -95.088881 
L 102.140756 -96.184975 
L 101.961084 -97.28107 
L 101.789115 -98.377165 
L 101.621161 -99.473259 
L 101.452626 -100.569354 
L 101.278312 -101.665449 
L 101.092767 -102.761543 
L 100.890645 -103.857638 
L 100.66705 -104.953733 
L 100.417807 -106.049827 
L 100.139654 -107.145922 
L 99.83031 -108.242017 
L 99.488432 -109.338111 
L 99.113456 -110.434206 
L 98.705344 -111.530301 
L 98.264276 -112.626395 
L 97.790326 -113.72249 
L 97.283164 -114.818585 
L 96.741833 -115.914679 
L 96.164633 -117.010774 
L 95.549129 -118.106868 
L 94.892309 -119.202963 
L 94.190855 -120.299058 
L 93.441526 -121.395152 
L 92.641604 -122.491247 
L 91.78936 -123.587342 
L 90.884491 -124.683436 
L 89.92849 -125.779531 
L 88.924916 -126.875626 
L 87.879535 -127.97172 
L 86.800333 -129.067815 
L 85.69741 -130.16391 
L 84.58277 -131.260004 
L 83.470029 -132.356099 
L 82.37408 -133.452194 
L 81.310727 -134.548288 
L 80.296312 -135.644383 
L 79.347357 -136.740478 
L 78.480192 -137.836572 
L 77.710604 -138.932667 
L 77.053465 -140.028762 
L 76.522358 -141.124856 
L 76.129179 -142.220951 
L 75.883741 -143.317045 
L 75.793384 -144.41314 
L 75.862615 -145.509235 
L 76.092822 -146.605329 
L 76.482083 -147.701424 
L 77.02511 -148.797519 
L 77.713342 -149.893613 
L 78.535201 -150.989708 
L 79.476511 -152.085803 
L 80.521046 -153.181897 
L 81.651181 -154.277992 
L 82.848593 -155.374087 
L 84.094968 -156.470181 
L 85.372649 -157.566276 
L 86.665191 -158.662371 
L 87.957785 -159.758465 
L 89.237528 -160.85456 
L 90.493542 -161.950655 
L 91.716944 -163.046749 
L 92.900702 -164.142844 
L 94.039408 -165.238939 
L 95.128992 -166.335033 
L 96.166445 -167.431128 
L 97.149543 -168.527222 
L 98.076638 -169.623317 
L 98.946492 -170.719412 
L 99.758194 -171.815506 
L 100.511129 -172.911601 
L 101.204993 -174.007696 
L 101.839856 -175.10379 
L 102.416218 -176.199885 
L 102.935083 -177.29598 
L 103.397996 -178.392074 
L 103.807064 -179.488169 
L 104.164938 -180.584264 
L 104.47476 -181.680358 
L 104.740085 -182.776453 
L 104.964775 -183.872548 
L 105.152883 -184.968642 
L 105.30853 -186.064737 
L 106.455638 -186.064737 
L 106.455638 -186.064737 
L 106.611285 -184.968642 
L 106.799393 -183.872548 
L 107.024083 -182.776453 
L 107.289408 -181.680358 
L 107.59923 -180.584264 
L 107.957104 -179.488169 
L 108.366172 -178.392074 
L 108.829085 -177.29598 
L 109.347949 -176.199885 
L 109.924312 -175.10379 
L 110.559175 -174.007696 
L 111.253039 -172.911601 
L 112.005974 -171.815506 
L 112.817676 -170.719412 
L 113.68753 -169.623317 
L 114.614625 -168.527222 
L 115.597723 -167.431128 
L 116.635176 -166.335033 
L 117.72476 -165.238939 
L 118.863465 -164.142844 
L 120.047224 -163.046749 
L 121.270626 -161.950655 
L 122.526639 -160.85456 
L 123.806383 -159.758465 
L 125.098977 -158.662371 
L 126.391519 -157.566276 
L 127.6692 -156.470181 
L 128.915575 -155.374087 
L 130.112987 -154.277992 
L 131.243121 -153.181897 
L 132.287656 -152.085803 
L 133.228967 -150.989708 
L 134.050826 -149.893613 
L 134.739057 -148.797519 
L 135.282085 -147.701424 
L 135.671346 -146.605329 
L 135.901553 -145.509235 
L 135.970784 -144.41314 
L 135.880426 -143.317045 
L 135.634989 -142.220951 
L 135.24181 -141.124856 
L 134.710703 -140.028762 
L 134.053564 -138.932667 
L 133.283976 -137.836572 
L 132.416811 -136.740478 
L 131.467855 -135.644383 
L 130.453441 -134.548288 
L 129.390087 -133.452194 
L 128.294138 -132.356099 
L 127.181398 -131.260004 
L 126.066758 -130.16391 
L 124.963835 -129.067815 
L 123.884633 -127.97172 
L 122.839251 -126.875626 
L 121.835678 -125.779531 
L 120.879677 -124.683436 
L 119.974808 -123.587342 
L 119.122563 -122.491247 
L 118.322642 -121.395152 
L 117.573313 -120.299058 
L 116.871859 -119.202963 
L 116.215039 -118.106868 
L 115.599535 -117.010774 
L 115.022334 -115.914679 
L 114.481004 -114.818585 
L 113.973842 -113.72249 
L 113.499892 -112.626395 
L 113.058824 -111.530301 
L 112.650712 -110.434206 
L 112.275736 -109.338111 
L 111.933858 -108.242017 
L 111.624514 -107.145922 
L 111.34636 -106.049827 
L 111.097118 -104.953733 
L 110.873522 -103.857638 
L 110.671401 -102.761543 
L 110.485856 -101.665449 
L 110.311542 -100.569354 
L 110.143007 -99.473259 
L 109.975052 -98.377165 
L 109.803084 -97.28107 
L 109.623412 -96.184975 
L 109.433477 -95.088881 
L 109.231976 -93.992786 
L 109.018888 -92.896691 
L 108.795401 -91.800597 
L 108.563745 -90.704502 
L 108.326961 -89.608407 
L 108.088635 -88.512313 
L 107.852601 -87.416218 
L 107.622671 -86.320124 
L 107.402384 -85.224029 
L 107.194807 -84.127934 
L 107.002399 -83.03184 
L 106.826927 -81.935745 
L 106.669446 -80.83965 
L 106.530327 -79.743556 
L 106.409329 -78.647461 
L 106.305697 -77.551366 
z
" id="mbc7bf5f4e6" style="stroke:#414141;stroke-width:2;"/>
    </defs>
    <g clip-path="url(#p1b6f99c2a6)">
     <use style="fill:#e68193;stroke:#414141;stroke-width:2;" x="0" xlink:href="#mbc7bf5f4e6" y="405.105375"/>
    </g>
   </g>
   <g id="PolyCollection_2">
    <defs>
     <path d="M 202.11556 -97.011495 
L 200.962893 -97.011495 
L 200.813401 -97.95495 
L 200.635449 -98.898405 
L 200.426465 -99.841861 
L 200.184354 -100.785316 
L 199.90768 -101.728771 
L 199.59584 -102.672226 
L 199.249214 -103.615682 
L 198.869279 -104.559137 
L 198.45867 -105.502592 
L 198.021179 -106.446048 
L 197.561673 -107.389503 
L 197.085946 -108.332958 
L 196.600484 -109.276413 
L 196.112177 -110.219869 
L 195.627968 -111.163324 
L 195.15448 -112.106779 
L 194.697634 -113.050235 
L 194.262291 -113.99369 
L 193.851936 -114.937145 
L 193.468441 -115.8806 
L 193.111904 -116.824056 
L 192.780599 -117.767511 
L 192.471015 -118.710966 
L 192.177998 -119.654422 
L 191.894966 -120.597877 
L 191.614189 -121.541332 
L 191.327097 -122.484787 
L 191.024599 -123.428243 
L 190.697387 -124.371698 
L 190.336204 -125.315153 
L 189.932062 -126.258609 
L 189.476417 -127.202064 
L 188.9613 -128.145519 
L 188.379421 -129.088974 
L 187.724269 -130.03243 
L 186.990235 -130.975885 
L 186.172777 -131.91934 
L 185.268656 -132.862795 
L 184.276233 -133.806251 
L 183.19585 -134.749706 
L 182.030246 -135.693161 
L 180.785004 -136.636617 
L 179.468957 -137.580072 
L 178.094524 -138.523527 
L 176.677897 -139.466982 
L 175.239045 -140.410438 
L 173.801485 -141.353893 
L 172.391808 -142.297348 
L 171.038945 -143.240804 
L 169.77322 -144.184259 
L 168.625213 -145.127714 
L 167.624526 -146.071169 
L 166.798504 -147.014625 
L 166.17103 -147.95808 
L 165.761442 -148.901535 
L 165.583669 -149.844991 
L 165.645622 -150.788446 
L 165.94888 -151.731901 
L 166.488679 -152.675356 
L 167.254181 -153.618812 
L 168.229006 -154.562267 
L 169.391967 -155.505722 
L 170.717975 -156.449178 
L 172.179038 -157.392633 
L 173.745325 -158.336088 
L 175.386225 -159.279543 
L 177.071383 -160.222999 
L 178.771658 -161.166454 
L 180.459987 -162.109909 
L 182.112118 -163.053365 
L 183.707201 -163.99682 
L 185.228215 -164.940275 
L 186.662209 -165.88373 
L 188.000365 -166.827186 
L 189.237878 -167.770641 
L 190.373655 -168.714096 
L 191.409868 -169.657552 
L 192.351383 -170.601007 
L 193.205104 -171.544462 
L 193.979284 -172.487917 
L 194.68284 -173.431373 
L 195.324722 -174.374828 
L 195.913379 -175.318283 
L 196.456337 -176.261739 
L 196.959923 -177.205194 
L 197.429121 -178.148649 
L 197.86757 -179.092104 
L 198.277664 -180.03556 
L 198.660748 -180.979015 
L 199.017366 -181.92247 
L 199.347529 -182.865926 
L 199.650989 -183.809381 
L 199.92747 -184.752836 
L 200.176864 -185.696291 
L 200.399372 -186.639747 
L 200.595575 -187.583202 
L 200.766467 -188.526657 
L 200.913427 -189.470113 
L 201.038169 -190.413568 
L 202.040285 -190.413568 
L 202.040285 -190.413568 
L 202.165026 -189.470113 
L 202.311987 -188.526657 
L 202.482879 -187.583202 
L 202.679082 -186.639747 
L 202.901589 -185.696291 
L 203.150984 -184.752836 
L 203.427465 -183.809381 
L 203.730924 -182.865926 
L 204.061088 -181.92247 
L 204.417706 -180.979015 
L 204.80079 -180.03556 
L 205.210884 -179.092104 
L 205.649332 -178.148649 
L 206.118531 -177.205194 
L 206.622117 -176.261739 
L 207.165075 -175.318283 
L 207.753731 -174.374828 
L 208.395614 -173.431373 
L 209.099169 -172.487917 
L 209.873349 -171.544462 
L 210.727071 -170.601007 
L 211.668586 -169.657552 
L 212.704799 -168.714096 
L 213.840576 -167.770641 
L 215.078089 -166.827186 
L 216.416245 -165.88373 
L 217.850239 -164.940275 
L 219.371252 -163.99682 
L 220.966336 -163.053365 
L 222.618467 -162.109909 
L 224.306795 -161.166454 
L 226.007071 -160.222999 
L 227.692229 -159.279543 
L 229.333129 -158.336088 
L 230.899415 -157.392633 
L 232.360479 -156.449178 
L 233.686487 -155.505722 
L 234.849448 -154.562267 
L 235.824272 -153.618812 
L 236.589774 -152.675356 
L 237.129574 -151.731901 
L 237.432832 -150.788446 
L 237.494785 -149.844991 
L 237.317012 -148.901535 
L 236.907424 -147.95808 
L 236.27995 -147.014625 
L 235.453928 -146.071169 
L 234.45324 -145.127714 
L 233.305234 -144.184259 
L 232.039509 -143.240804 
L 230.686646 -142.297348 
L 229.276969 -141.353893 
L 227.839409 -140.410438 
L 226.400556 -139.466982 
L 224.983929 -138.523527 
L 223.609496 -137.580072 
L 222.29345 -136.636617 
L 221.048207 -135.693161 
L 219.882603 -134.749706 
L 218.80222 -133.806251 
L 217.809798 -132.862795 
L 216.905676 -131.91934 
L 216.088219 -130.975885 
L 215.354185 -130.03243 
L 214.699032 -129.088974 
L 214.117153 -128.145519 
L 213.602037 -127.202064 
L 213.146392 -126.258609 
L 212.74225 -125.315153 
L 212.381066 -124.371698 
L 212.053855 -123.428243 
L 211.751357 -122.484787 
L 211.464264 -121.541332 
L 211.183487 -120.597877 
L 210.900455 -119.654422 
L 210.607438 -118.710966 
L 210.297854 -117.767511 
L 209.966549 -116.824056 
L 209.610013 -115.8806 
L 209.226518 -114.937145 
L 208.816163 -113.99369 
L 208.380819 -113.050235 
L 207.923973 -112.106779 
L 207.450485 -111.163324 
L 206.966276 -110.219869 
L 206.477969 -109.276413 
L 205.992508 -108.332958 
L 205.51678 -107.389503 
L 205.057274 -106.446048 
L 204.619783 -105.502592 
L 204.209175 -104.559137 
L 203.82924 -103.615682 
L 203.482614 -102.672226 
L 203.170774 -101.728771 
L 202.8941 -100.785316 
L 202.651989 -99.841861 
L 202.443004 -98.898405 
L 202.265052 -97.95495 
L 202.11556 -97.011495 
z
" id="m6eb8e347a6" style="stroke:#414141;stroke-width:2;"/>
    </defs>
    <g clip-path="url(#p1b6f99c2a6)">
     <use style="fill:#b38e44;stroke:#414141;stroke-width:2;" x="0" xlink:href="#m6eb8e347a6" y="405.105375"/>
    </g>
   </g>
   <g id="PolyCollection_3">
    <defs>
     <path d="M 297.916403 -104.355596 
L 296.476337 -104.355596 
L 296.264264 -105.326135 
L 296.002306 -106.296675 
L 295.68246 -107.267214 
L 295.296425 -108.237753 
L 294.83585 -109.208292 
L 294.292643 -110.178831 
L 293.659341 -111.14937 
L 292.929515 -112.119909 
L 292.098214 -113.090449 
L 291.162414 -114.060988 
L 290.121445 -115.031527 
L 288.977379 -116.002066 
L 287.735325 -116.972605 
L 286.403615 -117.943144 
L 284.993831 -118.913683 
L 283.520668 -119.884223 
L 282.001595 -120.854762 
L 280.456319 -121.825301 
L 278.906081 -122.79584 
L 277.372784 -123.766379 
L 275.878028 -124.736918 
L 274.442115 -125.707457 
L 273.083079 -126.677997 
L 271.815848 -127.648536 
L 270.651598 -128.619075 
L 269.59737 -129.589614 
L 268.655998 -130.560153 
L 267.826362 -131.530692 
L 267.103953 -132.501231 
L 266.481721 -133.471771 
L 265.951113 -134.44231 
L 265.50322 -135.412849 
L 265.129932 -136.383388 
L 264.824971 -137.353927 
L 264.584722 -138.324466 
L 264.408765 -139.295005 
L 264.300074 -140.265545 
L 264.264845 -141.236084 
L 264.311988 -142.206623 
L 264.452322 -143.177162 
L 264.697563 -144.147701 
L 265.059192 -145.11824 
L 265.547312 -146.088779 
L 266.169599 -147.059319 
L 266.93043 -148.029858 
L 267.830259 -149.000397 
L 268.865285 -149.970936 
L 270.027408 -150.941475 
L 271.304485 -151.912014 
L 272.680815 -152.882553 
L 274.137822 -153.853093 
L 275.65485 -154.823632 
L 277.210025 -155.794171 
L 278.781085 -156.76471 
L 280.346167 -157.735249 
L 281.884469 -158.705788 
L 283.3768 -159.676327 
L 284.805979 -160.646867 
L 286.15711 -161.617406 
L 287.417734 -162.587945 
L 288.577887 -163.558484 
L 289.630077 -164.529023 
L 290.569224 -165.499562 
L 291.392562 -166.470101 
L 292.099531 -167.440641 
L 292.691668 -168.41118 
L 293.172497 -169.381719 
L 293.547419 -170.352258 
L 293.823587 -171.322797 
L 294.009775 -172.293336 
L 294.116203 -173.263875 
L 294.154331 -174.234414 
L 294.136599 -175.204954 
L 294.076115 -176.175493 
L 293.986292 -177.146032 
L 293.880445 -178.116571 
L 293.771356 -179.08711 
L 293.670844 -180.057649 
L 293.589343 -181.028188 
L 293.535542 -181.998728 
L 293.516096 -182.969267 
L 293.535432 -183.939806 
L 293.595681 -184.910345 
L 293.696722 -185.880884 
L 293.836356 -186.851423 
L 294.01058 -187.821962 
L 294.213952 -188.792502 
L 294.440011 -189.763041 
L 294.681724 -190.73358 
L 294.931923 -191.704119 
L 295.183711 -192.674658 
L 295.430794 -193.645197 
L 295.667748 -194.615736 
L 295.890189 -195.586276 
L 296.094852 -196.556815 
L 296.2796 -197.527354 
L 296.443348 -198.497893 
L 296.585947 -199.468432 
L 296.708023 -200.438971 
L 297.684717 -200.438971 
L 297.684717 -200.438971 
L 297.806792 -199.468432 
L 297.949391 -198.497893 
L 298.11314 -197.527354 
L 298.297887 -196.556815 
L 298.502551 -195.586276 
L 298.724991 -194.615736 
L 298.961945 -193.645197 
L 299.209028 -192.674658 
L 299.460816 -191.704119 
L 299.711016 -190.73358 
L 299.952729 -189.763041 
L 300.178788 -188.792502 
L 300.382159 -187.821962 
L 300.556383 -186.851423 
L 300.696017 -185.880884 
L 300.797059 -184.910345 
L 300.857307 -183.939806 
L 300.876644 -182.969267 
L 300.857197 -181.998728 
L 300.803396 -181.028188 
L 300.721895 -180.057649 
L 300.621383 -179.08711 
L 300.512295 -178.116571 
L 300.406447 -177.146032 
L 300.316624 -176.175493 
L 300.25614 -175.204954 
L 300.238408 -174.234414 
L 300.276536 -173.263875 
L 300.382964 -172.293336 
L 300.569152 -171.322797 
L 300.845321 -170.352258 
L 301.220242 -169.381719 
L 301.701072 -168.41118 
L 302.293209 -167.440641 
L 303.000177 -166.470101 
L 303.823515 -165.499562 
L 304.762662 -164.529023 
L 305.814852 -163.558484 
L 306.975005 -162.587945 
L 308.23563 -161.617406 
L 309.586761 -160.646867 
L 311.015939 -159.676327 
L 312.50827 -158.705788 
L 314.046572 -157.735249 
L 315.611654 -156.76471 
L 317.182715 -155.794171 
L 318.737889 -154.823632 
L 320.254918 -153.853093 
L 321.711924 -152.882553 
L 323.088254 -151.912014 
L 324.365331 -150.941475 
L 325.527455 -149.970936 
L 326.56248 -149.000397 
L 327.462309 -148.029858 
L 328.22314 -147.059319 
L 328.845427 -146.088779 
L 329.333547 -145.11824 
L 329.695176 -144.147701 
L 329.940417 -143.177162 
L 330.080751 -142.206623 
L 330.127894 -141.236084 
L 330.092665 -140.265545 
L 329.983974 -139.295005 
L 329.808018 -138.324466 
L 329.567768 -137.353927 
L 329.262807 -136.383388 
L 328.889519 -135.412849 
L 328.441627 -134.44231 
L 327.911018 -133.471771 
L 327.288786 -132.501231 
L 326.566378 -131.530692 
L 325.736741 -130.560153 
L 324.795369 -129.589614 
L 323.741141 -128.619075 
L 322.576891 -127.648536 
L 321.30966 -126.677997 
L 319.950624 -125.707457 
L 318.514711 -124.736918 
L 317.019956 -123.766379 
L 315.486658 -122.79584 
L 313.93642 -121.825301 
L 312.391145 -120.854762 
L 310.872071 -119.884223 
L 309.398908 -118.913683 
L 307.989125 -117.943144 
L 306.657414 -116.972605 
L 305.41536 -116.002066 
L 304.271294 -115.031527 
L 303.230326 -114.060988 
L 302.294525 -113.090449 
L 301.463225 -112.119909 
L 300.733399 -111.14937 
L 300.100096 -110.178831 
L 299.556889 -109.208292 
L 299.096314 -108.237753 
L 298.710279 -107.267214 
L 298.390434 -106.296675 
L 298.128475 -105.326135 
L 297.916403 -104.355596 
z
" id="m3d0d0610e9" style="stroke:#414141;stroke-width:2;"/>
    </defs>
    <g clip-path="url(#p1b6f99c2a6)">
     <use style="fill:#7d9a40;stroke:#414141;stroke-width:2;" x="0" xlink:href="#m3d0d0610e9" y="405.105375"/>
    </g>
   </g>
   <g id="PolyCollection_4">
    <defs>
     <path d="M 393.494195 -91.614843 
L 392.21283 -91.614843 
L 392.043404 -92.456531 
L 391.840714 -93.298219 
L 391.601356 -94.139907 
L 391.322295 -94.981595 
L 391.001024 -95.823283 
L 390.635703 -96.664971 
L 390.225259 -97.506659 
L 389.769451 -98.348347 
L 389.268859 -99.190035 
L 388.724821 -100.031722 
L 388.139289 -100.87341 
L 387.514626 -101.715098 
L 386.853352 -102.556786 
L 386.157861 -103.398474 
L 385.430126 -104.240162 
L 384.671432 -105.08185 
L 383.882162 -105.923538 
L 383.061663 -106.765226 
L 382.208205 -107.606914 
L 381.319066 -108.448602 
L 380.390722 -109.29029 
L 379.419147 -110.131977 
L 378.400201 -110.973665 
L 377.330076 -111.815353 
L 376.205774 -112.657041 
L 375.025572 -113.498729 
L 373.789453 -114.340417 
L 372.499466 -115.182105 
L 371.159999 -116.023793 
L 369.777953 -116.865481 
L 368.36281 -117.707169 
L 366.92659 -118.548857 
L 365.483723 -119.390544 
L 364.050822 -120.232232 
L 362.64637 -121.07392 
L 361.290338 -121.915608 
L 360.00372 -122.757296 
L 358.807998 -123.598984 
L 357.724541 -124.440672 
L 356.773938 -125.28236 
L 355.975296 -126.124048 
L 355.345511 -126.965736 
L 354.898559 -127.807424 
L 354.644845 -128.649112 
L 354.590655 -129.490799 
L 354.737774 -130.332487 
L 355.083285 -131.174175 
L 355.619609 -132.015863 
L 356.334784 -132.857551 
L 357.212971 -133.699239 
L 358.235173 -134.540927 
L 359.380109 -135.382615 
L 360.625176 -136.224303 
L 361.947432 -137.065991 
L 363.324524 -137.907679 
L 364.735484 -138.749367 
L 366.161359 -139.591054 
L 367.58561 -140.432742 
L 368.994301 -141.27443 
L 370.376069 -142.116118 
L 371.721911 -142.957806 
L 373.024852 -143.799494 
L 374.279528 -144.641182 
L 375.481769 -145.48287 
L 376.628223 -146.324558 
L 377.716077 -147.166246 
L 378.742888 -148.007934 
L 379.706555 -148.849622 
L 380.605395 -149.691309 
L 381.438328 -150.532997 
L 382.205102 -151.374685 
L 382.906533 -152.216373 
L 383.544705 -153.058061 
L 384.123085 -153.899749 
L 384.646531 -154.741437 
L 385.121176 -155.583125 
L 385.554178 -156.424813 
L 385.953371 -157.266501 
L 386.326828 -158.108189 
L 386.682395 -158.949877 
L 387.02723 -159.791564 
L 387.36739 -160.633252 
L 387.70751 -161.47494 
L 388.050608 -162.316628 
L 388.398007 -163.158316 
L 388.749402 -164.000004 
L 389.103044 -164.841692 
L 389.456019 -165.68338 
L 389.804593 -166.525068 
L 390.144584 -167.366756 
L 390.471732 -168.208444 
L 390.782035 -169.050131 
L 391.072019 -169.891819 
L 391.33894 -170.733507 
L 391.580903 -171.575195 
L 391.796904 -172.416883 
L 391.986795 -173.258571 
L 392.151205 -174.100259 
L 392.29141 -174.941947 
L 393.415615 -174.941947 
L 393.415615 -174.941947 
L 393.55582 -174.100259 
L 393.72023 -173.258571 
L 393.910121 -172.416883 
L 394.126122 -171.575195 
L 394.368085 -170.733507 
L 394.635006 -169.891819 
L 394.92499 -169.050131 
L 395.235293 -168.208444 
L 395.562441 -167.366756 
L 395.902432 -166.525068 
L 396.251006 -165.68338 
L 396.603981 -164.841692 
L 396.957623 -164.000004 
L 397.309018 -163.158316 
L 397.656417 -162.316628 
L 397.999515 -161.47494 
L 398.339635 -160.633252 
L 398.679795 -159.791564 
L 399.02463 -158.949877 
L 399.380197 -158.108189 
L 399.753654 -157.266501 
L 400.152847 -156.424813 
L 400.585849 -155.583125 
L 401.060494 -154.741437 
L 401.58394 -153.899749 
L 402.16232 -153.058061 
L 402.800492 -152.216373 
L 403.501923 -151.374685 
L 404.268697 -150.532997 
L 405.10163 -149.691309 
L 406.00047 -148.849622 
L 406.964137 -148.007934 
L 407.990948 -147.166246 
L 409.078802 -146.324558 
L 410.225256 -145.48287 
L 411.427497 -144.641182 
L 412.682173 -143.799494 
L 413.985114 -142.957806 
L 415.330956 -142.116118 
L 416.712724 -141.27443 
L 418.121415 -140.432742 
L 419.545666 -139.591054 
L 420.971541 -138.749367 
L 422.382501 -137.907679 
L 423.759593 -137.065991 
L 425.081849 -136.224303 
L 426.326916 -135.382615 
L 427.471852 -134.540927 
L 428.494054 -133.699239 
L 429.372241 -132.857551 
L 430.087416 -132.015863 
L 430.62374 -131.174175 
L 430.969251 -130.332487 
L 431.11637 -129.490799 
L 431.06218 -128.649112 
L 430.808466 -127.807424 
L 430.361514 -126.965736 
L 429.731729 -126.124048 
L 428.933087 -125.28236 
L 427.982484 -124.440672 
L 426.899027 -123.598984 
L 425.703305 -122.757296 
L 424.416687 -121.915608 
L 423.060655 -121.07392 
L 421.656203 -120.232232 
L 420.223302 -119.390544 
L 418.780435 -118.548857 
L 417.344215 -117.707169 
L 415.929072 -116.865481 
L 414.547026 -116.023793 
L 413.207559 -115.182105 
L 411.917572 -114.340417 
L 410.681453 -113.498729 
L 409.501251 -112.657041 
L 408.376949 -111.815353 
L 407.306824 -110.973665 
L 406.287878 -110.131977 
L 405.316303 -109.29029 
L 404.387959 -108.448602 
L 403.49882 -107.606914 
L 402.645362 -106.765226 
L 401.824863 -105.923538 
L 401.035593 -105.08185 
L 400.276899 -104.240162 
L 399.549164 -103.398474 
L 398.853673 -102.556786 
L 398.192399 -101.715098 
L 397.567736 -100.87341 
L 396.982204 -100.031722 
L 396.438166 -99.190035 
L 395.937574 -98.348347 
L 395.481766 -97.506659 
L 395.071322 -96.664971 
L 394.706001 -95.823283 
L 394.38473 -94.981595 
L 394.105669 -94.139907 
L 393.866311 -93.298219 
L 393.663621 -92.456531 
L 393.494195 -91.614843 
z
" id="m996ec6c3cf" style="stroke:#414141;stroke-width:2;"/>
    </defs>
    <g clip-path="url(#p1b6f99c2a6)">
     <use style="fill:#43a084;stroke:#414141;stroke-width:2;" x="0" xlink:href="#m996ec6c3cf" y="405.105375"/>
    </g>
   </g>
   <g id="PolyCollection_5">
    <defs>
     <path d="M 488.883256 -51.944155 
L 488.138054 -51.944155 
L 488.041803 -54.939196 
L 487.925619 -57.934237 
L 487.786726 -60.929279 
L 487.6223 -63.92432 
L 487.429555 -66.919361 
L 487.205853 -69.914402 
L 486.948828 -72.909444 
L 486.656522 -75.904485 
L 486.327537 -78.899526 
L 485.961178 -81.894568 
L 485.557603 -84.889609 
L 485.117951 -87.88465 
L 484.644457 -90.879692 
L 484.140527 -93.874733 
L 483.610776 -96.869774 
L 483.061021 -99.864816 
L 482.498214 -102.859857 
L 481.930322 -105.854898 
L 481.366147 -108.84994 
L 480.815094 -111.844981 
L 480.28689 -114.840022 
L 479.791265 -117.835064 
L 479.337611 -120.830105 
L 478.934635 -123.825146 
L 478.590024 -126.820188 
L 478.310134 -129.815229 
L 478.099736 -132.81027 
L 477.961815 -135.805312 
L 477.897456 -138.800353 
L 477.905804 -141.795394 
L 477.984118 -144.790436 
L 478.127909 -147.785477 
L 478.331156 -150.780518 
L 478.586582 -153.77556 
L 478.885991 -156.770601 
L 479.220617 -159.765642 
L 479.581494 -162.760683 
L 479.959809 -165.755725 
L 480.347217 -168.750766 
L 480.73611 -171.745807 
L 481.119828 -174.740849 
L 481.492789 -177.73589 
L 481.850562 -180.730931 
L 482.189856 -183.725973 
L 482.508459 -186.721014 
L 482.80512 -189.716055 
L 483.079401 -192.711097 
L 483.331502 -195.706138 
L 483.562089 -198.701179 
L 483.772125 -201.696221 
L 483.962728 -204.691262 
L 484.135055 -207.686303 
L 484.290227 -210.681345 
L 484.42928 -213.676386 
L 484.553167 -216.671427 
L 484.662768 -219.666469 
L 484.758944 -222.66151 
L 484.842584 -225.656551 
L 484.914666 -228.651593 
L 484.976308 -231.646634 
L 485.028811 -234.641675 
L 485.073675 -237.636717 
L 485.112599 -240.631758 
L 485.147459 -243.626799 
L 485.180264 -246.62184 
L 485.213094 -249.616882 
L 485.248025 -252.611923 
L 485.287054 -255.606964 
L 485.332016 -258.602006 
L 485.384512 -261.597047 
L 485.445847 -264.592088 
L 485.516981 -267.58713 
L 485.598498 -270.582171 
L 485.690597 -273.577212 
L 485.793093 -276.572254 
L 485.905439 -279.567295 
L 486.026765 -282.562336 
L 486.155921 -285.557378 
L 486.291535 -288.552419 
L 486.432067 -291.54746 
L 486.575874 -294.542502 
L 486.721269 -297.537543 
L 486.866575 -300.532584 
L 487.010175 -303.527626 
L 487.150562 -306.522667 
L 487.286366 -309.517708 
L 487.416392 -312.51275 
L 487.539634 -315.507791 
L 487.655289 -318.502832 
L 487.762763 -321.497874 
L 487.861666 -324.492915 
L 487.951804 -327.487956 
L 488.033166 -330.482998 
L 488.105902 -333.478039 
L 488.170304 -336.47308 
L 488.226781 -339.468121 
L 488.275831 -342.463163 
L 488.318022 -345.458204 
L 488.353962 -348.453245 
L 488.667349 -348.453245 
L 488.667349 -348.453245 
L 488.703289 -345.458204 
L 488.74548 -342.463163 
L 488.79453 -339.468121 
L 488.851006 -336.47308 
L 488.915408 -333.478039 
L 488.988145 -330.482998 
L 489.069506 -327.487956 
L 489.159645 -324.492915 
L 489.258547 -321.497874 
L 489.366021 -318.502832 
L 489.481676 -315.507791 
L 489.604918 -312.51275 
L 489.734944 -309.517708 
L 489.870749 -306.522667 
L 490.011135 -303.527626 
L 490.154736 -300.532584 
L 490.300042 -297.537543 
L 490.445437 -294.542502 
L 490.589244 -291.54746 
L 490.729776 -288.552419 
L 490.865389 -285.557378 
L 490.994546 -282.562336 
L 491.115872 -279.567295 
L 491.228218 -276.572254 
L 491.330713 -273.577212 
L 491.422812 -270.582171 
L 491.50433 -267.58713 
L 491.575463 -264.592088 
L 491.636798 -261.597047 
L 491.689294 -258.602006 
L 491.734256 -255.606964 
L 491.773286 -252.611923 
L 491.808217 -249.616882 
L 491.841047 -246.62184 
L 491.873852 -243.626799 
L 491.908712 -240.631758 
L 491.947636 -237.636717 
L 491.992499 -234.641675 
L 492.045002 -231.646634 
L 492.106645 -228.651593 
L 492.178727 -225.656551 
L 492.262366 -222.66151 
L 492.358542 -219.666469 
L 492.468144 -216.671427 
L 492.59203 -213.676386 
L 492.731084 -210.681345 
L 492.886256 -207.686303 
L 493.058583 -204.691262 
L 493.249186 -201.696221 
L 493.459222 -198.701179 
L 493.689809 -195.706138 
L 493.94191 -192.711097 
L 494.21619 -189.716055 
L 494.512852 -186.721014 
L 494.831455 -183.725973 
L 495.170749 -180.730931 
L 495.528522 -177.73589 
L 495.901483 -174.740849 
L 496.2852 -171.745807 
L 496.674094 -168.750766 
L 497.061501 -165.755725 
L 497.439816 -162.760683 
L 497.800694 -159.765642 
L 498.13532 -156.770601 
L 498.434728 -153.77556 
L 498.690155 -150.780518 
L 498.893401 -147.785477 
L 499.037193 -144.790436 
L 499.115507 -141.795394 
L 499.123855 -138.800353 
L 499.059496 -135.805312 
L 498.921575 -132.81027 
L 498.711177 -129.815229 
L 498.431287 -126.820188 
L 498.086676 -123.825146 
L 497.6837 -120.830105 
L 497.230046 -117.835064 
L 496.73442 -114.840022 
L 496.206216 -111.844981 
L 495.655164 -108.84994 
L 495.090989 -105.854898 
L 494.523096 -102.859857 
L 493.960289 -99.864816 
L 493.410534 -96.869774 
L 492.880784 -93.874733 
L 492.376854 -90.879692 
L 491.90336 -87.88465 
L 491.463708 -84.889609 
L 491.060132 -81.894568 
L 490.693773 -78.899526 
L 490.364788 -75.904485 
L 490.072483 -72.909444 
L 489.815458 -69.914402 
L 489.591755 -66.919361 
L 489.39901 -63.92432 
L 489.234584 -60.929279 
L 489.095692 -57.934237 
L 488.979508 -54.939196 
L 488.883256 -51.944155 
z
" id="me1f1edeeb2" style="stroke:#414141;stroke-width:2;"/>
    </defs>
    <g clip-path="url(#p1b6f99c2a6)">
     <use style="fill:#489eaa;stroke:#414141;stroke-width:2;" x="0" xlink:href="#me1f1edeeb2" y="405.105375"/>
    </g>
   </g>
   <g id="PolyCollection_6">
    <defs>
     <path d="M 584.616064 -78.373618 
L 583.719532 -78.373618 
L 583.611321 -80.301302 
L 583.482112 -82.228986 
L 583.329136 -84.15667 
L 583.149562 -86.084354 
L 582.940568 -88.012038 
L 582.699425 -89.939722 
L 582.423602 -91.867406 
L 582.110874 -93.795089 
L 581.759441 -95.722773 
L 581.368053 -97.650457 
L 580.936133 -99.578141 
L 580.463899 -101.505825 
L 579.952462 -103.433509 
L 579.403922 -105.361193 
L 578.821429 -107.288877 
L 578.209212 -109.21656 
L 577.572581 -111.144244 
L 576.917884 -113.071928 
L 576.252419 -114.999612 
L 575.584311 -116.927296 
L 574.922345 -118.85498 
L 574.275762 -120.782664 
L 573.654023 -122.710348 
L 573.066555 -124.638031 
L 572.522481 -126.565715 
L 572.030342 -128.493399 
L 571.597845 -130.421083 
L 571.231608 -132.348767 
L 570.936955 -134.276451 
L 570.71774 -136.204135 
L 570.576223 -138.131819 
L 570.512996 -140.059502 
L 570.526963 -141.987186 
L 570.615378 -143.91487 
L 570.773931 -145.842554 
L 570.996885 -147.770238 
L 571.277252 -149.697922 
L 571.607003 -151.625606 
L 571.977302 -153.55329 
L 572.378754 -155.480974 
L 572.801665 -157.408657 
L 573.236293 -159.336341 
L 573.673098 -161.264025 
L 574.102968 -163.191709 
L 574.517438 -165.119393 
L 574.90887 -167.047077 
L 575.270618 -168.974761 
L 575.597155 -170.902445 
L 575.884173 -172.830128 
L 576.128649 -174.757812 
L 576.32888 -176.685496 
L 576.484482 -178.61318 
L 576.596357 -180.540864 
L 576.666632 -182.468548 
L 576.698562 -184.396232 
L 576.696412 -186.323916 
L 576.665307 -188.251599 
L 576.61107 -190.179283 
L 576.540037 -192.106967 
L 576.458867 -194.034651 
L 576.374345 -195.962335 
L 576.293187 -197.890019 
L 576.221852 -199.817703 
L 576.166369 -201.745387 
L 576.132183 -203.67307 
L 576.12402 -205.600754 
L 576.145781 -207.528438 
L 576.200466 -209.456122 
L 576.290124 -211.383806 
L 576.415838 -213.31149 
L 576.577732 -215.239174 
L 576.775011 -217.166858 
L 577.006023 -219.094541 
L 577.268346 -221.022225 
L 577.558883 -222.949909 
L 577.873983 -224.877593 
L 578.209562 -226.805277 
L 578.561232 -228.732961 
L 578.924433 -230.660645 
L 579.29456 -232.588329 
L 579.667084 -234.516013 
L 580.037658 -236.443696 
L 580.40222 -238.37138 
L 580.757075 -240.299064 
L 581.098958 -242.226748 
L 581.425084 -244.154432 
L 581.733179 -246.082116 
L 582.021489 -248.0098 
L 582.288781 -249.937484 
L 582.534318 -251.865167 
L 582.757829 -253.792851 
L 582.959465 -255.720535 
L 583.139748 -257.648219 
L 583.299513 -259.575903 
L 583.439847 -261.503587 
L 583.562031 -263.431271 
L 583.667481 -265.358955 
L 583.757693 -267.286638 
L 583.834195 -269.214322 
L 584.501402 -269.214322 
L 584.501402 -269.214322 
L 584.577904 -267.286638 
L 584.668116 -265.358955 
L 584.773565 -263.431271 
L 584.89575 -261.503587 
L 585.036084 -259.575903 
L 585.195848 -257.648219 
L 585.376131 -255.720535 
L 585.577768 -253.792851 
L 585.801279 -251.865167 
L 586.046815 -249.937484 
L 586.314107 -248.0098 
L 586.602417 -246.082116 
L 586.910512 -244.154432 
L 587.236638 -242.226748 
L 587.578521 -240.299064 
L 587.933376 -238.37138 
L 588.297939 -236.443696 
L 588.668513 -234.516013 
L 589.041036 -232.588329 
L 589.411164 -230.660645 
L 589.774365 -228.732961 
L 590.126035 -226.805277 
L 590.461613 -224.877593 
L 590.776713 -222.949909 
L 591.06725 -221.022225 
L 591.329573 -219.094541 
L 591.560586 -217.166858 
L 591.757865 -215.239174 
L 591.919758 -213.31149 
L 592.045472 -211.383806 
L 592.135131 -209.456122 
L 592.189816 -207.528438 
L 592.211576 -205.600754 
L 592.203413 -203.67307 
L 592.169227 -201.745387 
L 592.113744 -199.817703 
L 592.042409 -197.890019 
L 591.961251 -195.962335 
L 591.876729 -194.034651 
L 591.79556 -192.106967 
L 591.724527 -190.179283 
L 591.670289 -188.251599 
L 591.639185 -186.323916 
L 591.637034 -184.396232 
L 591.668965 -182.468548 
L 591.739239 -180.540864 
L 591.851115 -178.61318 
L 592.006716 -176.685496 
L 592.206947 -174.757812 
L 592.451423 -172.830128 
L 592.738441 -170.902445 
L 593.064978 -168.974761 
L 593.426726 -167.047077 
L 593.818159 -165.119393 
L 594.232628 -163.191709 
L 594.662499 -161.264025 
L 595.099303 -159.336341 
L 595.533931 -157.408657 
L 595.956842 -155.480974 
L 596.358295 -153.55329 
L 596.728594 -151.625606 
L 597.058345 -149.697922 
L 597.338712 -147.770238 
L 597.561666 -145.842554 
L 597.720219 -143.91487 
L 597.808633 -141.987186 
L 597.822601 -140.059502 
L 597.759373 -138.131819 
L 597.617857 -136.204135 
L 597.398642 -134.276451 
L 597.103989 -132.348767 
L 596.737751 -130.421083 
L 596.305254 -128.493399 
L 595.813116 -126.565715 
L 595.269041 -124.638031 
L 594.681573 -122.710348 
L 594.059835 -120.782664 
L 593.413251 -118.85498 
L 592.751286 -116.927296 
L 592.083178 -114.999612 
L 591.417712 -113.071928 
L 590.763015 -111.144244 
L 590.126384 -109.21656 
L 589.514168 -107.288877 
L 588.931674 -105.361193 
L 588.383135 -103.433509 
L 587.871698 -101.505825 
L 587.399463 -99.578141 
L 586.967544 -97.650457 
L 586.576156 -95.722773 
L 586.224722 -93.795089 
L 585.911994 -91.867406 
L 585.636172 -89.939722 
L 585.395029 -88.012038 
L 585.186034 -86.084354 
L 585.00646 -84.15667 
L 584.853484 -82.228986 
L 584.724275 -80.301302 
L 584.616064 -78.373618 
z
" id="m81733e6f70" style="stroke:#414141;stroke-width:2;"/>
    </defs>
    <g clip-path="url(#p1b6f99c2a6)">
     <use style="fill:#8fa0e6;stroke:#414141;stroke-width:2;" x="0" xlink:href="#m81733e6f70" y="405.105375"/>
    </g>
   </g>
   <g id="PolyCollection_7">
    <defs>
     <path d="M 681.164095 -100.197203 
L 678.485788 -100.197203 
L 678.115483 -101.694816 
L 677.66557 -103.19243 
L 677.125662 -104.690044 
L 676.485827 -106.187657 
L 675.73714 -107.685271 
L 674.872309 -109.182884 
L 673.886344 -110.680498 
L 672.777238 -112.178112 
L 671.546616 -113.675725 
L 670.200299 -115.173339 
L 668.748739 -116.670953 
L 667.207269 -118.168566 
L 665.59614 -119.66618 
L 663.94029 -121.163794 
L 662.26885 -122.661407 
L 660.614382 -124.159021 
L 659.011856 -125.656635 
L 657.497434 -127.154248 
L 656.107094 -128.651862 
L 654.875177 -130.149475 
L 653.832942 -131.647089 
L 653.00721 -133.144703 
L 652.419178 -134.642316 
L 652.083474 -136.13993 
L 652.007516 -137.637544 
L 652.191199 -139.135157 
L 652.626939 -140.632771 
L 653.300051 -142.130385 
L 654.189443 -143.627998 
L 655.268572 -145.125612 
L 656.506605 -146.623225 
L 657.869707 -148.120839 
L 659.322397 -149.618453 
L 660.828886 -151.116066 
L 662.354348 -152.61368 
L 663.866054 -154.111294 
L 665.334346 -155.608907 
L 666.733407 -157.106521 
L 668.041822 -158.604135 
L 669.24292 -160.101748 
L 670.324912 -161.599362 
L 671.280833 -163.096976 
L 672.108321 -164.594589 
L 672.80924 -166.092203 
L 673.389195 -167.589816 
L 673.856957 -169.08743 
L 674.223824 -170.585044 
L 674.502951 -172.082657 
L 674.70867 -173.580271 
L 674.855825 -175.077885 
L 674.959142 -176.575498 
L 675.03266 -178.073112 
L 675.089226 -179.570726 
L 675.140085 -181.068339 
L 675.194569 -182.565953 
L 675.259886 -184.063566 
L 675.341027 -185.56118 
L 675.440778 -187.058794 
L 675.559839 -188.556407 
L 675.697032 -190.054021 
L 675.849594 -191.551635 
L 676.013526 -193.049248 
L 676.183989 -194.546862 
L 676.355706 -196.044476 
L 676.523373 -197.542089 
L 676.682031 -199.039703 
L 676.827395 -200.537317 
L 676.956122 -202.03493 
L 677.066 -203.532544 
L 677.156049 -205.030157 
L 677.226551 -206.527771 
L 677.278977 -208.025385 
L 677.315859 -209.522998 
L 677.340585 -211.020612 
L 677.357158 -212.518226 
L 677.36992 -214.015839 
L 677.383271 -215.513453 
L 677.401393 -217.011067 
L 677.428011 -218.50868 
L 677.466186 -220.006294 
L 677.518164 -221.503907 
L 677.585291 -223.001521 
L 677.667986 -224.499135 
L 677.765769 -225.996748 
L 677.877351 -227.494362 
L 678.000763 -228.991976 
L 678.133517 -230.489589 
L 678.272781 -231.987203 
L 678.415563 -233.484817 
L 678.558881 -234.98243 
L 678.699918 -236.480044 
L 678.836149 -237.977658 
L 678.965429 -239.475271 
L 679.086057 -240.972885 
L 679.1968 -242.470498 
L 679.296886 -243.968112 
L 679.385976 -245.465726 
L 679.464112 -246.963339 
L 679.53166 -248.460953 
L 680.118222 -248.460953 
L 680.118222 -248.460953 
L 680.18577 -246.963339 
L 680.263907 -245.465726 
L 680.352996 -243.968112 
L 680.453082 -242.470498 
L 680.563825 -240.972885 
L 680.684453 -239.475271 
L 680.813733 -237.977658 
L 680.949964 -236.480044 
L 681.091001 -234.98243 
L 681.234319 -233.484817 
L 681.377101 -231.987203 
L 681.516365 -230.489589 
L 681.649119 -228.991976 
L 681.772531 -227.494362 
L 681.884114 -225.996748 
L 681.981896 -224.499135 
L 682.064591 -223.001521 
L 682.131718 -221.503907 
L 682.183696 -220.006294 
L 682.221871 -218.50868 
L 682.248489 -217.011067 
L 682.266611 -215.513453 
L 682.279962 -214.015839 
L 682.292724 -212.518226 
L 682.309297 -211.020612 
L 682.334023 -209.522998 
L 682.370905 -208.025385 
L 682.423331 -206.527771 
L 682.493833 -205.030157 
L 682.583883 -203.532544 
L 682.69376 -202.03493 
L 682.822487 -200.537317 
L 682.967851 -199.039703 
L 683.126509 -197.542089 
L 683.294176 -196.044476 
L 683.465894 -194.546862 
L 683.636356 -193.049248 
L 683.800289 -191.551635 
L 683.95285 -190.054021 
L 684.090043 -188.556407 
L 684.209104 -187.058794 
L 684.308855 -185.56118 
L 684.389996 -184.063566 
L 684.455313 -182.565953 
L 684.509797 -181.068339 
L 684.560656 -179.570726 
L 684.617222 -178.073112 
L 684.69074 -176.575498 
L 684.794057 -175.077885 
L 684.941212 -173.580271 
L 685.146931 -172.082657 
L 685.426058 -170.585044 
L 685.792925 -169.08743 
L 686.260687 -167.589816 
L 686.840642 -166.092203 
L 687.541561 -164.594589 
L 688.369049 -163.096976 
L 689.324971 -161.599362 
L 690.406962 -160.101748 
L 691.60806 -158.604135 
L 692.916475 -157.106521 
L 694.315537 -155.608907 
L 695.783829 -154.111294 
L 697.295534 -152.61368 
L 698.820996 -151.116066 
L 700.327485 -149.618453 
L 701.780175 -148.120839 
L 703.143277 -146.623225 
L 704.38131 -145.125612 
L 705.460439 -143.627998 
L 706.349831 -142.130385 
L 707.022943 -140.632771 
L 707.458683 -139.135157 
L 707.642366 -137.637544 
L 707.566408 -136.13993 
L 707.230704 -134.642316 
L 706.642672 -133.144703 
L 705.81694 -131.647089 
L 704.774705 -130.149475 
L 703.542788 -128.651862 
L 702.152448 -127.154248 
L 700.638026 -125.656635 
L 699.035501 -124.159021 
L 697.381032 -122.661407 
L 695.709593 -121.163794 
L 694.053742 -119.66618 
L 692.442613 -118.168566 
L 690.901144 -116.670953 
L 689.449583 -115.173339 
L 688.103266 -113.675725 
L 686.872644 -112.178112 
L 685.763538 -110.680498 
L 684.777573 -109.182884 
L 683.912742 -107.685271 
L 683.164055 -106.187657 
L 682.524221 -104.690044 
L 681.984313 -103.19243 
L 681.534399 -101.694816 
L 681.164095 -100.197203 
z
" id="m1bbe9dee42" style="stroke:#414141;stroke-width:2;"/>
    </defs>
    <g clip-path="url(#p1b6f99c2a6)">
     <use style="fill:#e270db;stroke:#414141;stroke-width:2;" x="0" xlink:href="#m1bbe9dee42" y="405.105375"/>
    </g>
   </g>
   <g id="line2d_1">
    <path clip-path="url(#p1b6f99c2a6)" d="M 58.053513 266.398298 
L 727.653513 266.398298 
" style="fill:none;stroke:#404040;stroke-dasharray:5.55,2.4;stroke-dashoffset:0;stroke-width:1.5;"/>
   </g>
   <g id="line2d_2">
    <path clip-path="url(#p1b6f99c2a6)" d="M 105.882084 289.78607 
L 105.882084 238.620988 
" style="fill:none;stroke:#414141;stroke-linecap:round;stroke-width:2;"/>
   </g>
   <g id="line2d_3">
    <path clip-path="url(#p1b6f99c2a6)" d="M 105.882084 272.208874 
L 105.882084 255.48062 
" style="fill:none;stroke:#414141;stroke-linecap:round;stroke-width:6;"/>
   </g>
   <g id="line2d_4">
    <path clip-path="url(#p1b6f99c2a6)" d="M 201.539227 291.187203 
L 201.539227 231.598485 
" style="fill:none;stroke:#414141;stroke-linecap:round;stroke-width:2;"/>
   </g>
   <g id="line2d_5">
    <path clip-path="url(#p1b6f99c2a6)" d="M 201.539227 266.745228 
L 201.539227 249.699484 
" style="fill:none;stroke:#414141;stroke-linecap:round;stroke-width:6;"/>
   </g>
   <g id="line2d_6">
    <path clip-path="url(#p1b6f99c2a6)" d="M 297.19637 283.848863 
L 297.19637 245.990759 
" style="fill:none;stroke:#414141;stroke-linecap:round;stroke-width:2;"/>
   </g>
   <g id="line2d_7">
    <path clip-path="url(#p1b6f99c2a6)" d="M 297.19637 273.739971 
L 297.19637 256.332668 
" style="fill:none;stroke:#414141;stroke-linecap:round;stroke-width:6;"/>
   </g>
   <g id="line2d_8">
    <path clip-path="url(#p1b6f99c2a6)" d="M 392.853513 298.641538 
L 392.853513 257.114376 
" style="fill:none;stroke:#414141;stroke-linecap:round;stroke-width:2;"/>
   </g>
   <g id="line2d_9">
    <path clip-path="url(#p1b6f99c2a6)" d="M 392.853513 284.011446 
L 392.853513 269.421889 
" style="fill:none;stroke:#414141;stroke-linecap:round;stroke-width:6;"/>
   </g>
   <g id="line2d_10">
    <path clip-path="url(#p1b6f99c2a6)" d="M 488.510655 292.447692 
L 488.510655 147.907116 
" style="fill:none;stroke:#414141;stroke-linecap:round;stroke-width:2;"/>
   </g>
   <g id="line2d_11">
    <path clip-path="url(#p1b6f99c2a6)" d="M 488.510655 269.765638 
L 488.510655 210.301755 
" style="fill:none;stroke:#414141;stroke-linecap:round;stroke-width:6;"/>
   </g>
   <g id="line2d_12">
    <path clip-path="url(#p1b6f99c2a6)" d="M 584.167798 285.604792 
L 584.167798 177.018018 
" style="fill:none;stroke:#414141;stroke-linecap:round;stroke-width:2;"/>
   </g>
   <g id="line2d_13">
    <path clip-path="url(#p1b6f99c2a6)" d="M 584.167798 267.309933 
L 584.167798 204.298404 
" style="fill:none;stroke:#414141;stroke-linecap:round;stroke-width:6;"/>
   </g>
   <g id="line2d_14">
    <path clip-path="url(#p1b6f99c2a6)" d="M 679.824941 276.7475 
L 679.824941 254.557292 
" style="fill:none;stroke:#414141;stroke-linecap:round;stroke-width:2;"/>
   </g>
   <g id="line2d_15">
    <path clip-path="url(#p1b6f99c2a6)" d="M 679.824941 270.499212 
L 679.824941 259.371645 
" style="fill:none;stroke:#414141;stroke-linecap:round;stroke-width:6;"/>
   </g>
   <g id="patch_3">
    <path d="M 58.053513 367.986675 
L 58.053513 41.826675 
" style="fill:none;stroke:#262626;stroke-linecap:square;stroke-linejoin:miter;stroke-width:1.25;"/>
   </g>
   <g id="patch_4">
    <path d="M 727.653513 367.986675 
L 727.653513 41.826675 
" style="fill:none;stroke:#262626;stroke-linecap:square;stroke-linejoin:miter;stroke-width:1.25;"/>
   </g>
   <g id="patch_5">
    <path d="M 58.053513 367.986675 
L 727.653513 367.986675 
" style="fill:none;stroke:#262626;stroke-linecap:square;stroke-linejoin:miter;stroke-width:1.25;"/>
   </g>
   <g id="patch_6">
    <path d="M 58.053513 41.826675 
L 727.653513 41.826675 
" style="fill:none;stroke:#262626;stroke-linecap:square;stroke-linejoin:miter;stroke-width:1.25;"/>
   </g>
   <g id="PathCollection_1">
    <defs>
     <path d="M 0 2 
C 0.530406 2 1.03916 1.789267 1.414214 1.414214 
C 1.789267 1.03916 2 0.530406 2 0 
C 2 -0.530406 1.789267 -1.03916 1.414214 -1.414214 
C 1.03916 -1.789267 0.530406 -2 0 -2 
C -0.530406 -2 -1.03916 -1.789267 -1.414214 -1.414214 
C -1.789267 -1.03916 -2 -0.530406 -2 0 
C -2 0.530406 -1.789267 1.03916 -1.414214 1.414214 
C -1.03916 1.789267 -0.530406 2 0 2 
z
" id="m65e18ba136" style="stroke:#414141;"/>
    </defs>
    <g clip-path="url(#p1b6f99c2a6)">
     <use style="fill:#ffffff;stroke:#414141;" x="105.882084" xlink:href="#m65e18ba136" y="261.820526"/>
    </g>
   </g>
   <g id="PathCollection_2">
    <g clip-path="url(#p1b6f99c2a6)">
     <use style="fill:#ffffff;stroke:#414141;" x="201.539227" xlink:href="#m65e18ba136" y="256.163133"/>
    </g>
   </g>
   <g id="PathCollection_3">
    <g clip-path="url(#p1b6f99c2a6)">
     <use style="fill:#ffffff;stroke:#414141;" x="297.19637" xlink:href="#m65e18ba136" y="261.905642"/>
    </g>
   </g>
   <g id="PathCollection_4">
    <g clip-path="url(#p1b6f99c2a6)">
     <use style="fill:#ffffff;stroke:#414141;" x="392.853513" xlink:href="#m65e18ba136" y="275.325271"/>
    </g>
   </g>
   <g id="PathCollection_5">
    <g clip-path="url(#p1b6f99c2a6)">
     <use style="fill:#ffffff;stroke:#414141;" x="488.510655" xlink:href="#m65e18ba136" y="259.730796"/>
    </g>
   </g>
   <g id="PathCollection_6">
    <g clip-path="url(#p1b6f99c2a6)">
     <use style="fill:#ffffff;stroke:#414141;" x="584.167798" xlink:href="#m65e18ba136" y="251.46866"/>
    </g>
   </g>
   <g id="PathCollection_7">
    <g clip-path="url(#p1b6f99c2a6)">
     <use style="fill:#ffffff;stroke:#414141;" x="679.824941" xlink:href="#m65e18ba136" y="269.576379"/>
    </g>
   </g>
   <g id="text_18">
    <!-- Accidents after the end of DST in California (20012017) -->
    <defs>
     <path d="M 38.671875 62.203125 
Q 32.8125 62.203125 28.296875 60.25 
Q 23.78125 58.296875 20.71875 54.6875 
Q 17.671875 51.078125 16.109375 46 
Q 14.546875 40.921875 14.546875 34.71875 
Q 14.546875 28.515625 16.234375 23.359375 
Q 17.921875 18.21875 21.0625 14.5 
Q 24.21875 10.796875 28.78125 8.734375 
Q 33.34375 6.6875 39.0625 6.6875 
Q 43.0625 6.6875 46.359375 7.734375 
Q 49.65625 8.796875 52.3125 10.6875 
Q 54.984375 12.59375 57.078125 15.203125 
Q 59.1875 17.828125 60.796875 21 
L 68.40625 17.1875 
Q 66.546875 13.328125 63.8125 10 
Q 61.078125 6.6875 57.390625 4.25 
Q 53.71875 1.8125 49.046875 0.40625 
Q 44.390625 -0.984375 38.625 -0.984375 
Q 30.28125 -0.984375 24 1.671875 
Q 17.71875 4.34375 13.5 9.109375 
Q 9.28125 13.875 7.171875 20.40625 
Q 5.078125 26.953125 5.078125 34.71875 
Q 5.078125 42.78125 7.296875 49.265625 
Q 9.515625 55.765625 13.78125 60.328125 
Q 18.0625 64.890625 24.3125 67.359375 
Q 30.5625 69.828125 38.578125 69.828125 
Q 49.5625 69.828125 56.9375 65.53125 
Q 64.3125 61.234375 67.78125 52.78125 
L 58.9375 49.859375 
Q 57.953125 52.296875 56.296875 54.515625 
Q 54.640625 56.734375 52.140625 58.4375 
Q 49.65625 60.15625 46.3125 61.171875 
Q 42.96875 62.203125 38.671875 62.203125 
z
" id="LiberationSans-43"/>
     <path d="M 6.734375 0 
L 6.734375 72.46875 
L 15.53125 72.46875 
L 15.53125 0 
z
" id="LiberationSans-6c"/>
     <path d="M 0 22.015625 
L 0 28.71875 
L 55.5625 28.71875 
L 55.5625 22.015625 
z
" id="LiberationSans-2013"/>
    </defs>
    <g style="fill:#262626;" transform="translate(66.246794 26.041875)scale(0.26 -0.26)">
     <use xlink:href="#LiberationSans-41"/>
     <use x="66.699219" xlink:href="#LiberationSans-63"/>
     <use x="116.699219" xlink:href="#LiberationSans-63"/>
     <use x="166.699219" xlink:href="#LiberationSans-69"/>
     <use x="188.916016" xlink:href="#LiberationSans-64"/>
     <use x="244.53125" xlink:href="#LiberationSans-65"/>
     <use x="300.146484" xlink:href="#LiberationSans-6e"/>
     <use x="355.761719" xlink:href="#LiberationSans-74"/>
     <use x="383.544922" xlink:href="#LiberationSans-73"/>
     <use x="433.544922" xlink:href="#LiberationSans-20"/>
     <use x="461.328125" xlink:href="#LiberationSans-61"/>
     <use x="516.943359" xlink:href="#LiberationSans-66"/>
     <use x="544.726562" xlink:href="#LiberationSans-74"/>
     <use x="572.509766" xlink:href="#LiberationSans-65"/>
     <use x="628.125" xlink:href="#LiberationSans-72"/>
     <use x="661.425781" xlink:href="#LiberationSans-20"/>
     <use x="689.208984" xlink:href="#LiberationSans-74"/>
     <use x="716.992188" xlink:href="#LiberationSans-68"/>
     <use x="772.607422" xlink:href="#LiberationSans-65"/>
     <use x="828.222656" xlink:href="#LiberationSans-20"/>
     <use x="856.005859" xlink:href="#LiberationSans-65"/>
     <use x="911.621094" xlink:href="#LiberationSans-6e"/>
     <use x="967.236328" xlink:href="#LiberationSans-64"/>
     <use x="1022.851562" xlink:href="#LiberationSans-20"/>
     <use x="1050.634766" xlink:href="#LiberationSans-6f"/>
     <use x="1106.25" xlink:href="#LiberationSans-66"/>
     <use x="1134.033203" xlink:href="#LiberationSans-20"/>
     <use x="1161.816406" xlink:href="#LiberationSans-44"/>
     <use x="1234.033203" xlink:href="#LiberationSans-53"/>
     <use x="1300.732422" xlink:href="#LiberationSans-54"/>
     <use x="1361.800781" xlink:href="#LiberationSans-20"/>
     <use x="1389.583984" xlink:href="#LiberationSans-69"/>
     <use x="1411.800781" xlink:href="#LiberationSans-6e"/>
     <use x="1467.416016" xlink:href="#LiberationSans-20"/>
     <use x="1495.199219" xlink:href="#LiberationSans-43"/>
     <use x="1567.416016" xlink:href="#LiberationSans-61"/>
     <use x="1623.03125" xlink:href="#LiberationSans-6c"/>
     <use x="1645.248047" xlink:href="#LiberationSans-69"/>
     <use x="1667.464844" xlink:href="#LiberationSans-66"/>
     <use x="1695.248047" xlink:href="#LiberationSans-6f"/>
     <use x="1750.863281" xlink:href="#LiberationSans-72"/>
     <use x="1784.164062" xlink:href="#LiberationSans-6e"/>
     <use x="1839.779297" xlink:href="#LiberationSans-69"/>
     <use x="1861.996094" xlink:href="#LiberationSans-61"/>
     <use x="1917.611328" xlink:href="#LiberationSans-20"/>
     <use x="1945.394531" xlink:href="#LiberationSans-28"/>
     <use x="1978.695312" xlink:href="#LiberationSans-32"/>
     <use x="2034.310547" xlink:href="#LiberationSans-30"/>
     <use x="2089.925781" xlink:href="#LiberationSans-30"/>
     <use x="2145.541016" xlink:href="#LiberationSans-31"/>
     <use x="2201.15625" xlink:href="#LiberationSans-2013"/>
     <use x="2256.771484" xlink:href="#LiberationSans-32"/>
     <use x="2312.386719" xlink:href="#LiberationSans-30"/>
     <use x="2368.001953" xlink:href="#LiberationSans-31"/>
     <use x="2423.617188" xlink:href="#LiberationSans-37"/>
     <use x="2479.232422" xlink:href="#LiberationSans-29"/>
    </g>
   </g>
  </g>
 </g>
 <defs>
  <clipPath id="p1b6f99c2a6">
   <rect height="326.16" width="669.6" x="58.053513" y="41.826675"/>
  </clipPath>
 </defs>
</svg>
