<?xml version="1.0" encoding="utf-8" standalone="no"?>
<!DOCTYPE svg PUBLIC "-//W3C//DTD SVG 1.1//EN"
  "http://www.w3.org/Graphics/SVG/1.1/DTD/svg11.dtd">
<!-- Created with matplotlib (https://matplotlib.org/) -->
<svg height="391.910113pt" version="1.1" viewBox="0 0 726.7631 391.910113" width="726.7631pt" xmlns="http://www.w3.org/2000/svg" xmlns:xlink="http://www.w3.org/1999/xlink">
 <defs>
  <style type="text/css">
*{stroke-linecap:butt;stroke-linejoin:round;}
  </style>
 </defs>
 <g id="figure_1">
  <g id="patch_1">
   <path d="M 0 391.910113 
L 726.7631 391.910113 
L 726.7631 0 
L 0 0 
z
" style="fill:#ffffff;"/>
  </g>
  <g id="axes_1">
   <g id="patch_2">
    <path d="M 49.9631 368.071988 
L 719.5631 368.071988 
L 719.5631 41.911988 
L 49.9631 41.911988 
z
" style="fill:#ffffff;"/>
   </g>
   <g id="matplotlib.axis_1">
    <g id="xtick_1">
     <g id="text_1">
      <!-- Sunday (DST) -->
      <defs>
       <path d="M 4.5 23 
L 13.421875 23.78125 
Q 14.0625 18.40625 16.375 14.96875 
Q 18.703125 11.53125 23.578125 9.40625 
Q 28.46875 7.28125 34.578125 7.28125 
Q 39.984375 7.28125 44.140625 8.890625 
Q 48.296875 10.5 50.3125 13.296875 
Q 52.34375 16.109375 52.34375 19.4375 
Q 52.34375 22.796875 50.390625 25.3125 
Q 48.4375 27.828125 43.953125 29.546875 
Q 41.0625 30.671875 31.203125 33.03125 
Q 21.34375 35.40625 17.390625 37.5 
Q 12.25 40.1875 9.734375 44.15625 
Q 7.234375 48.140625 7.234375 53.078125 
Q 7.234375 58.5 10.296875 63.203125 
Q 13.375 67.921875 19.28125 70.359375 
Q 25.203125 72.796875 32.421875 72.796875 
Q 40.375 72.796875 46.453125 70.234375 
Q 52.546875 67.671875 55.8125 62.6875 
Q 59.078125 57.71875 59.328125 51.421875 
L 50.25 50.734375 
Q 49.515625 57.515625 45.28125 60.984375 
Q 41.0625 64.453125 32.8125 64.453125 
Q 24.21875 64.453125 20.28125 61.296875 
Q 16.359375 58.15625 16.359375 53.71875 
Q 16.359375 49.859375 19.140625 47.359375 
Q 21.875 44.875 33.421875 42.265625 
Q 44.96875 39.65625 49.265625 37.703125 
Q 55.515625 34.8125 58.484375 30.390625 
Q 61.46875 25.984375 61.46875 20.21875 
Q 61.46875 14.5 58.203125 9.4375 
Q 54.9375 4.390625 48.796875 1.578125 
Q 42.671875 -1.21875 35.015625 -1.21875 
Q 25.296875 -1.21875 18.71875 1.609375 
Q 12.15625 4.4375 8.421875 10.125 
Q 4.6875 15.828125 4.5 23 
z
" id="ArialMT-83"/>
       <path d="M 40.578125 0 
L 40.578125 7.625 
Q 34.515625 -1.171875 24.125 -1.171875 
Q 19.53125 -1.171875 15.546875 0.578125 
Q 11.578125 2.34375 9.640625 5 
Q 7.71875 7.671875 6.9375 11.53125 
Q 6.390625 14.109375 6.390625 19.734375 
L 6.390625 51.859375 
L 15.1875 51.859375 
L 15.1875 23.09375 
Q 15.1875 16.21875 15.71875 13.8125 
Q 16.546875 10.359375 19.234375 8.375 
Q 21.921875 6.390625 25.875 6.390625 
Q 29.828125 6.390625 33.296875 8.421875 
Q 36.765625 10.453125 38.203125 13.9375 
Q 39.65625 17.4375 39.65625 24.078125 
L 39.65625 51.859375 
L 48.4375 51.859375 
L 48.4375 0 
z
" id="ArialMT-117"/>
       <path d="M 6.59375 0 
L 6.59375 51.859375 
L 14.5 51.859375 
L 14.5 44.484375 
Q 20.21875 53.03125 31 53.03125 
Q 35.6875 53.03125 39.625 51.34375 
Q 43.5625 49.65625 45.515625 46.921875 
Q 47.46875 44.1875 48.25 40.4375 
Q 48.734375 37.984375 48.734375 31.890625 
L 48.734375 0 
L 39.9375 0 
L 39.9375 31.546875 
Q 39.9375 36.921875 38.90625 39.578125 
Q 37.890625 42.234375 35.28125 43.8125 
Q 32.671875 45.40625 29.15625 45.40625 
Q 23.53125 45.40625 19.453125 41.84375 
Q 15.375 38.28125 15.375 28.328125 
L 15.375 0 
z
" id="ArialMT-110"/>
       <path d="M 40.234375 0 
L 40.234375 6.546875 
Q 35.296875 -1.171875 25.734375 -1.171875 
Q 19.53125 -1.171875 14.328125 2.25 
Q 9.125 5.671875 6.265625 11.796875 
Q 3.421875 17.921875 3.421875 25.875 
Q 3.421875 33.640625 6 39.96875 
Q 8.59375 46.296875 13.765625 49.65625 
Q 18.953125 53.03125 25.34375 53.03125 
Q 30.03125 53.03125 33.6875 51.046875 
Q 37.359375 49.078125 39.65625 45.90625 
L 39.65625 71.578125 
L 48.390625 71.578125 
L 48.390625 0 
z
M 12.453125 25.875 
Q 12.453125 15.921875 16.640625 10.984375 
Q 20.84375 6.0625 26.5625 6.0625 
Q 32.328125 6.0625 36.34375 10.765625 
Q 40.375 15.484375 40.375 25.140625 
Q 40.375 35.796875 36.265625 40.765625 
Q 32.171875 45.75 26.171875 45.75 
Q 20.3125 45.75 16.375 40.96875 
Q 12.453125 36.1875 12.453125 25.875 
z
" id="ArialMT-100"/>
       <path d="M 40.4375 6.390625 
Q 35.546875 2.25 31.03125 0.53125 
Q 26.515625 -1.171875 21.34375 -1.171875 
Q 12.796875 -1.171875 8.203125 3 
Q 3.609375 7.171875 3.609375 13.671875 
Q 3.609375 17.484375 5.34375 20.625 
Q 7.078125 23.78125 9.890625 25.6875 
Q 12.703125 27.59375 16.21875 28.5625 
Q 18.796875 29.25 24.03125 29.890625 
Q 34.671875 31.15625 39.703125 32.90625 
Q 39.75 34.71875 39.75 35.203125 
Q 39.75 40.578125 37.25 42.78125 
Q 33.890625 45.75 27.25 45.75 
Q 21.046875 45.75 18.09375 43.578125 
Q 15.140625 41.40625 13.71875 35.890625 
L 5.125 37.0625 
Q 6.296875 42.578125 8.984375 45.96875 
Q 11.671875 49.359375 16.75 51.1875 
Q 21.828125 53.03125 28.515625 53.03125 
Q 35.15625 53.03125 39.296875 51.46875 
Q 43.453125 49.90625 45.40625 47.53125 
Q 47.359375 45.171875 48.140625 41.546875 
Q 48.578125 39.3125 48.578125 33.453125 
L 48.578125 21.734375 
Q 48.578125 9.46875 49.140625 6.21875 
Q 49.703125 2.984375 51.375 0 
L 42.1875 0 
Q 40.828125 2.734375 40.4375 6.390625 
z
M 39.703125 26.03125 
Q 34.90625 24.078125 25.34375 22.703125 
Q 19.921875 21.921875 17.671875 20.9375 
Q 15.4375 19.96875 14.203125 18.09375 
Q 12.984375 16.21875 12.984375 13.921875 
Q 12.984375 10.40625 15.640625 8.0625 
Q 18.3125 5.71875 23.4375 5.71875 
Q 28.515625 5.71875 32.46875 7.9375 
Q 36.421875 10.15625 38.28125 14.015625 
Q 39.703125 17 39.703125 22.796875 
z
" id="ArialMT-97"/>
       <path d="M 6.203125 -19.96875 
L 5.21875 -11.71875 
Q 8.109375 -12.5 10.25 -12.5 
Q 13.1875 -12.5 14.9375 -11.515625 
Q 16.703125 -10.546875 17.828125 -8.796875 
Q 18.65625 -7.46875 20.515625 -2.25 
Q 20.75 -1.515625 21.296875 -0.09375 
L 1.609375 51.859375 
L 11.078125 51.859375 
L 21.875 21.828125 
Q 23.96875 16.109375 25.640625 9.8125 
Q 27.15625 15.875 29.25 21.625 
L 40.328125 51.859375 
L 49.125 51.859375 
L 29.390625 -0.875 
Q 26.21875 -9.421875 24.46875 -12.640625 
Q 22.125 -17 19.09375 -19.015625 
Q 16.0625 -21.046875 11.859375 -21.046875 
Q 9.328125 -21.046875 6.203125 -19.96875 
z
" id="ArialMT-121"/>
       <path id="ArialMT-32"/>
       <path d="M 23.390625 -21.046875 
Q 16.109375 -11.859375 11.078125 0.4375 
Q 6.0625 12.75 6.0625 25.921875 
Q 6.0625 37.546875 9.8125 48.1875 
Q 14.203125 60.546875 23.390625 72.796875 
L 29.6875 72.796875 
Q 23.78125 62.640625 21.875 58.296875 
Q 18.890625 51.5625 17.1875 44.234375 
Q 15.09375 35.109375 15.09375 25.875 
Q 15.09375 2.390625 29.6875 -21.046875 
z
" id="ArialMT-40"/>
       <path d="M 7.71875 0 
L 7.71875 71.578125 
L 32.375 71.578125 
Q 40.71875 71.578125 45.125 70.5625 
Q 51.265625 69.140625 55.609375 65.4375 
Q 61.28125 60.640625 64.078125 53.1875 
Q 66.890625 45.75 66.890625 36.1875 
Q 66.890625 28.03125 64.984375 21.734375 
Q 63.09375 15.4375 60.109375 11.296875 
Q 57.125 7.171875 53.578125 4.796875 
Q 50.046875 2.4375 45.046875 1.21875 
Q 40.046875 0 33.546875 0 
z
M 17.1875 8.453125 
L 32.46875 8.453125 
Q 39.546875 8.453125 43.578125 9.765625 
Q 47.609375 11.078125 50 13.484375 
Q 53.375 16.84375 55.25 22.53125 
Q 57.125 28.21875 57.125 36.328125 
Q 57.125 47.5625 53.4375 53.59375 
Q 49.75 59.625 44.484375 61.671875 
Q 40.671875 63.140625 32.234375 63.140625 
L 17.1875 63.140625 
z
" id="ArialMT-68"/>
       <path d="M 25.921875 0 
L 25.921875 63.140625 
L 2.34375 63.140625 
L 2.34375 71.578125 
L 59.078125 71.578125 
L 59.078125 63.140625 
L 35.40625 63.140625 
L 35.40625 0 
z
" id="ArialMT-84"/>
       <path d="M 12.359375 -21.046875 
L 6.0625 -21.046875 
Q 20.65625 2.390625 20.65625 25.875 
Q 20.65625 35.0625 18.5625 44.09375 
Q 16.890625 51.421875 13.921875 58.15625 
Q 12.015625 62.546875 6.0625 72.796875 
L 12.359375 72.796875 
Q 21.53125 60.546875 25.921875 48.1875 
Q 29.6875 37.546875 29.6875 25.921875 
Q 29.6875 12.75 24.625 0.4375 
Q 19.578125 -11.859375 12.359375 -21.046875 
z
" id="ArialMT-41"/>
      </defs>
      <g style="fill:#262626;" transform="translate(53.445578 381.76355)scale(0.14 -0.14)">
       <use xlink:href="#ArialMT-83"/>
       <use x="66.699219" xlink:href="#ArialMT-117"/>
       <use x="122.314453" xlink:href="#ArialMT-110"/>
       <use x="177.929688" xlink:href="#ArialMT-100"/>
       <use x="233.544922" xlink:href="#ArialMT-97"/>
       <use x="289.160156" xlink:href="#ArialMT-121"/>
       <use x="339.160156" xlink:href="#ArialMT-32"/>
       <use x="366.943359" xlink:href="#ArialMT-40"/>
       <use x="400.244141" xlink:href="#ArialMT-68"/>
       <use x="472.460938" xlink:href="#ArialMT-83"/>
       <use x="539.160156" xlink:href="#ArialMT-84"/>
       <use x="600.244141" xlink:href="#ArialMT-41"/>
      </g>
     </g>
    </g>
    <g id="xtick_2">
     <g id="text_2">
      <!-- Monday -->
      <defs>
       <path d="M 7.421875 0 
L 7.421875 71.578125 
L 21.6875 71.578125 
L 38.625 20.90625 
Q 40.96875 13.8125 42.046875 10.296875 
Q 43.265625 14.203125 45.84375 21.78125 
L 62.984375 71.578125 
L 75.734375 71.578125 
L 75.734375 0 
L 66.609375 0 
L 66.609375 59.90625 
L 45.796875 0 
L 37.25 0 
L 16.546875 60.9375 
L 16.546875 0 
z
" id="ArialMT-77"/>
       <path d="M 3.328125 25.921875 
Q 3.328125 40.328125 11.328125 47.265625 
Q 18.015625 53.03125 27.640625 53.03125 
Q 38.328125 53.03125 45.109375 46.015625 
Q 51.90625 39.015625 51.90625 26.65625 
Q 51.90625 16.65625 48.90625 10.90625 
Q 45.90625 5.171875 40.15625 2 
Q 34.421875 -1.171875 27.640625 -1.171875 
Q 16.75 -1.171875 10.03125 5.8125 
Q 3.328125 12.796875 3.328125 25.921875 
z
M 12.359375 25.921875 
Q 12.359375 15.96875 16.703125 11.015625 
Q 21.046875 6.0625 27.640625 6.0625 
Q 34.1875 6.0625 38.53125 11.03125 
Q 42.875 16.015625 42.875 26.21875 
Q 42.875 35.84375 38.5 40.796875 
Q 34.125 45.75 27.640625 45.75 
Q 21.046875 45.75 16.703125 40.8125 
Q 12.359375 35.890625 12.359375 25.921875 
z
" id="ArialMT-111"/>
      </defs>
      <g style="fill:#262626;" transform="translate(168.547408 381.592925)scale(0.14 -0.14)">
       <use xlink:href="#ArialMT-77"/>
       <use x="83.300781" xlink:href="#ArialMT-111"/>
       <use x="138.916016" xlink:href="#ArialMT-110"/>
       <use x="194.53125" xlink:href="#ArialMT-100"/>
       <use x="250.146484" xlink:href="#ArialMT-97"/>
       <use x="305.761719" xlink:href="#ArialMT-121"/>
      </g>
     </g>
    </g>
    <g id="xtick_3">
     <g id="text_3">
      <!-- Tuesday -->
      <defs>
       <path d="M 42.09375 16.703125 
L 51.171875 15.578125 
Q 49.03125 7.625 43.21875 3.21875 
Q 37.40625 -1.171875 28.375 -1.171875 
Q 17 -1.171875 10.328125 5.828125 
Q 3.65625 12.84375 3.65625 25.484375 
Q 3.65625 38.578125 10.390625 45.796875 
Q 17.140625 53.03125 27.875 53.03125 
Q 38.28125 53.03125 44.875 45.953125 
Q 51.46875 38.875 51.46875 26.03125 
Q 51.46875 25.25 51.421875 23.6875 
L 12.75 23.6875 
Q 13.234375 15.140625 17.578125 10.59375 
Q 21.921875 6.0625 28.421875 6.0625 
Q 33.25 6.0625 36.671875 8.59375 
Q 40.09375 11.140625 42.09375 16.703125 
z
M 13.234375 30.90625 
L 42.1875 30.90625 
Q 41.609375 37.453125 38.875 40.71875 
Q 34.671875 45.796875 27.984375 45.796875 
Q 21.921875 45.796875 17.796875 41.75 
Q 13.671875 37.703125 13.234375 30.90625 
z
" id="ArialMT-101"/>
       <path d="M 3.078125 15.484375 
L 11.765625 16.84375 
Q 12.5 11.625 15.84375 8.84375 
Q 19.1875 6.0625 25.203125 6.0625 
Q 31.25 6.0625 34.171875 8.515625 
Q 37.109375 10.984375 37.109375 14.3125 
Q 37.109375 17.28125 34.515625 19 
Q 32.71875 20.171875 25.53125 21.96875 
Q 15.875 24.421875 12.140625 26.203125 
Q 8.40625 27.984375 6.46875 31.125 
Q 4.546875 34.28125 4.546875 38.09375 
Q 4.546875 41.546875 6.125 44.5 
Q 7.71875 47.46875 10.453125 49.421875 
Q 12.5 50.921875 16.03125 51.96875 
Q 19.578125 53.03125 23.640625 53.03125 
Q 29.734375 53.03125 34.34375 51.265625 
Q 38.96875 49.515625 41.15625 46.5 
Q 43.359375 43.5 44.1875 38.484375 
L 35.59375 37.3125 
Q 35.015625 41.3125 32.203125 43.546875 
Q 29.390625 45.796875 24.265625 45.796875 
Q 18.21875 45.796875 15.625 43.796875 
Q 13.03125 41.796875 13.03125 39.109375 
Q 13.03125 37.40625 14.109375 36.03125 
Q 15.1875 34.625 17.484375 33.6875 
Q 18.796875 33.203125 25.25 31.453125 
Q 34.578125 28.953125 38.25 27.359375 
Q 41.9375 25.78125 44.03125 22.75 
Q 46.140625 19.734375 46.140625 15.234375 
Q 46.140625 10.84375 43.578125 6.953125 
Q 41.015625 3.078125 36.171875 0.953125 
Q 31.34375 -1.171875 25.25 -1.171875 
Q 15.140625 -1.171875 9.84375 3.03125 
Q 4.546875 7.234375 3.078125 15.484375 
z
" id="ArialMT-115"/>
      </defs>
      <g style="fill:#262626;" transform="translate(262.522363 381.592925)scale(0.14 -0.14)">
       <use xlink:href="#ArialMT-84"/>
       <use x="57.333984" xlink:href="#ArialMT-117"/>
       <use x="112.949219" xlink:href="#ArialMT-101"/>
       <use x="168.564453" xlink:href="#ArialMT-115"/>
       <use x="218.564453" xlink:href="#ArialMT-100"/>
       <use x="274.179688" xlink:href="#ArialMT-97"/>
       <use x="329.794922" xlink:href="#ArialMT-121"/>
      </g>
     </g>
    </g>
    <g id="xtick_4">
     <g id="text_4">
      <!-- Wednesday -->
      <defs>
       <path d="M 20.21875 0 
L 1.21875 71.578125 
L 10.9375 71.578125 
L 21.828125 24.65625 
Q 23.578125 17.28125 24.859375 10.015625 
Q 27.59375 21.484375 28.078125 23.25 
L 41.703125 71.578125 
L 53.125 71.578125 
L 63.375 35.359375 
Q 67.234375 21.875 68.953125 10.015625 
Q 70.3125 16.796875 72.515625 25.59375 
L 83.734375 71.578125 
L 93.265625 71.578125 
L 73.640625 0 
L 64.5 0 
L 49.421875 54.546875 
Q 47.515625 61.375 47.171875 62.9375 
Q 46.046875 58.015625 45.0625 54.546875 
L 29.890625 0 
z
" id="ArialMT-87"/>
      </defs>
      <g style="fill:#262626;" transform="translate(347.922319 381.592925)scale(0.14 -0.14)">
       <use xlink:href="#ArialMT-87"/>
       <use x="92.634766" xlink:href="#ArialMT-101"/>
       <use x="148.25" xlink:href="#ArialMT-100"/>
       <use x="203.865234" xlink:href="#ArialMT-110"/>
       <use x="259.480469" xlink:href="#ArialMT-101"/>
       <use x="315.095703" xlink:href="#ArialMT-115"/>
       <use x="365.095703" xlink:href="#ArialMT-100"/>
       <use x="420.710938" xlink:href="#ArialMT-97"/>
       <use x="476.326172" xlink:href="#ArialMT-121"/>
      </g>
     </g>
    </g>
    <g id="xtick_5">
     <g id="text_5">
      <!-- Thursday -->
      <defs>
       <path d="M 6.59375 0 
L 6.59375 71.578125 
L 15.375 71.578125 
L 15.375 45.90625 
Q 21.53125 53.03125 30.90625 53.03125 
Q 36.671875 53.03125 40.921875 50.75 
Q 45.171875 48.484375 47 44.484375 
Q 48.828125 40.484375 48.828125 32.859375 
L 48.828125 0 
L 40.046875 0 
L 40.046875 32.859375 
Q 40.046875 39.453125 37.1875 42.453125 
Q 34.328125 45.453125 29.109375 45.453125 
Q 25.203125 45.453125 21.75 43.421875 
Q 18.3125 41.40625 16.84375 37.9375 
Q 15.375 34.46875 15.375 28.375 
L 15.375 0 
z
" id="ArialMT-104"/>
       <path d="M 6.5 0 
L 6.5 51.859375 
L 14.40625 51.859375 
L 14.40625 44 
Q 17.4375 49.515625 20 51.265625 
Q 22.5625 53.03125 25.640625 53.03125 
Q 30.078125 53.03125 34.671875 50.203125 
L 31.640625 42.046875 
Q 28.421875 43.953125 25.203125 43.953125 
Q 22.3125 43.953125 20.015625 42.21875 
Q 17.71875 40.484375 16.75 37.40625 
Q 15.28125 32.71875 15.28125 27.15625 
L 15.28125 0 
z
" id="ArialMT-114"/>
      </defs>
      <g style="fill:#262626;" transform="translate(451.243368 381.592925)scale(0.14 -0.14)">
       <use xlink:href="#ArialMT-84"/>
       <use x="61.083984" xlink:href="#ArialMT-104"/>
       <use x="116.699219" xlink:href="#ArialMT-117"/>
       <use x="172.314453" xlink:href="#ArialMT-114"/>
       <use x="205.615234" xlink:href="#ArialMT-115"/>
       <use x="255.615234" xlink:href="#ArialMT-100"/>
       <use x="311.230469" xlink:href="#ArialMT-97"/>
       <use x="366.845703" xlink:href="#ArialMT-121"/>
      </g>
     </g>
    </g>
    <g id="xtick_6">
     <g id="text_6">
      <!-- Friday -->
      <defs>
       <path d="M 8.203125 0 
L 8.203125 71.578125 
L 56.5 71.578125 
L 56.5 63.140625 
L 17.671875 63.140625 
L 17.671875 40.96875 
L 51.265625 40.96875 
L 51.265625 32.515625 
L 17.671875 32.515625 
L 17.671875 0 
z
" id="ArialMT-70"/>
       <path d="M 6.640625 61.46875 
L 6.640625 71.578125 
L 15.4375 71.578125 
L 15.4375 61.46875 
z
M 6.640625 0 
L 6.640625 51.859375 
L 15.4375 51.859375 
L 15.4375 0 
z
" id="ArialMT-105"/>
      </defs>
      <g style="fill:#262626;" transform="translate(556.630511 381.592925)scale(0.14 -0.14)">
       <use xlink:href="#ArialMT-70"/>
       <use x="61.083984" xlink:href="#ArialMT-114"/>
       <use x="94.384766" xlink:href="#ArialMT-105"/>
       <use x="116.601562" xlink:href="#ArialMT-100"/>
       <use x="172.216797" xlink:href="#ArialMT-97"/>
       <use x="227.832031" xlink:href="#ArialMT-121"/>
      </g>
     </g>
    </g>
    <g id="xtick_7">
     <g id="text_7">
      <!-- Saturday -->
      <defs>
       <path d="M 25.78125 7.859375 
L 27.046875 0.09375 
Q 23.34375 -0.6875 20.40625 -0.6875 
Q 15.625 -0.6875 12.984375 0.828125 
Q 10.359375 2.34375 9.28125 4.8125 
Q 8.203125 7.28125 8.203125 15.1875 
L 8.203125 45.015625 
L 1.765625 45.015625 
L 1.765625 51.859375 
L 8.203125 51.859375 
L 8.203125 64.703125 
L 16.9375 69.96875 
L 16.9375 51.859375 
L 25.78125 51.859375 
L 25.78125 45.015625 
L 16.9375 45.015625 
L 16.9375 14.703125 
Q 16.9375 10.9375 17.40625 9.859375 
Q 17.875 8.796875 18.921875 8.15625 
Q 19.96875 7.515625 21.921875 7.515625 
Q 23.390625 7.515625 25.78125 7.859375 
z
" id="ArialMT-116"/>
      </defs>
      <g style="fill:#262626;" transform="translate(643.719216 381.76355)scale(0.14 -0.14)">
       <use xlink:href="#ArialMT-83"/>
       <use x="66.699219" xlink:href="#ArialMT-97"/>
       <use x="122.314453" xlink:href="#ArialMT-116"/>
       <use x="150.097656" xlink:href="#ArialMT-117"/>
       <use x="205.712891" xlink:href="#ArialMT-114"/>
       <use x="239.013672" xlink:href="#ArialMT-100"/>
       <use x="294.628906" xlink:href="#ArialMT-97"/>
       <use x="350.244141" xlink:href="#ArialMT-121"/>
      </g>
     </g>
    </g>
   </g>
   <g id="matplotlib.axis_2">
    <g id="ytick_1">
     <g id="text_8">
      <!-- 0.6 -->
      <defs>
       <path d="M 4.15625 35.296875 
Q 4.15625 48 6.765625 55.734375 
Q 9.375 63.484375 14.515625 67.671875 
Q 19.671875 71.875 27.484375 71.875 
Q 33.25 71.875 37.59375 69.546875 
Q 41.9375 67.234375 44.765625 62.859375 
Q 47.609375 58.5 49.21875 52.21875 
Q 50.828125 45.953125 50.828125 35.296875 
Q 50.828125 22.703125 48.234375 14.96875 
Q 45.65625 7.234375 40.5 3 
Q 35.359375 -1.21875 27.484375 -1.21875 
Q 17.140625 -1.21875 11.234375 6.203125 
Q 4.15625 15.140625 4.15625 35.296875 
z
M 13.1875 35.296875 
Q 13.1875 17.671875 17.3125 11.828125 
Q 21.4375 6 27.484375 6 
Q 33.546875 6 37.671875 11.859375 
Q 41.796875 17.71875 41.796875 35.296875 
Q 41.796875 52.984375 37.671875 58.78125 
Q 33.546875 64.59375 27.390625 64.59375 
Q 21.34375 64.59375 17.71875 59.46875 
Q 13.1875 52.9375 13.1875 35.296875 
z
" id="ArialMT-48"/>
       <path d="M 9.078125 0 
L 9.078125 10.015625 
L 19.09375 10.015625 
L 19.09375 0 
z
" id="ArialMT-46"/>
       <path d="M 49.75 54.046875 
L 41.015625 53.375 
Q 39.84375 58.546875 37.703125 60.890625 
Q 34.125 64.65625 28.90625 64.65625 
Q 24.703125 64.65625 21.53125 62.3125 
Q 17.390625 59.28125 14.984375 53.46875 
Q 12.59375 47.65625 12.5 36.921875 
Q 15.671875 41.75 20.265625 44.09375 
Q 24.859375 46.4375 29.890625 46.4375 
Q 38.671875 46.4375 44.84375 39.96875 
Q 51.03125 33.5 51.03125 23.25 
Q 51.03125 16.5 48.125 10.71875 
Q 45.21875 4.9375 40.140625 1.859375 
Q 35.0625 -1.21875 28.609375 -1.21875 
Q 17.625 -1.21875 10.6875 6.859375 
Q 3.765625 14.9375 3.765625 33.5 
Q 3.765625 54.25 11.421875 63.671875 
Q 18.109375 71.875 29.4375 71.875 
Q 37.890625 71.875 43.28125 67.140625 
Q 48.6875 62.40625 49.75 54.046875 
z
M 13.875 23.1875 
Q 13.875 18.65625 15.796875 14.5 
Q 17.71875 10.359375 21.1875 8.171875 
Q 24.65625 6 28.46875 6 
Q 34.03125 6 38.03125 10.484375 
Q 42.046875 14.984375 42.046875 22.703125 
Q 42.046875 30.125 38.078125 34.390625 
Q 34.125 38.671875 28.125 38.671875 
Q 22.171875 38.671875 18.015625 34.390625 
Q 13.875 30.125 13.875 23.1875 
z
" id="ArialMT-54"/>
      </defs>
      <g style="fill:#262626;" transform="translate(27.0031 358.901587)scale(0.14 -0.14)">
       <use xlink:href="#ArialMT-48"/>
       <use x="55.615234" xlink:href="#ArialMT-46"/>
       <use x="83.398438" xlink:href="#ArialMT-54"/>
      </g>
     </g>
    </g>
    <g id="ytick_2">
     <g id="text_9">
      <!-- 0.8 -->
      <defs>
       <path d="M 17.671875 38.8125 
Q 12.203125 40.828125 9.5625 44.53125 
Q 6.9375 48.25 6.9375 53.421875 
Q 6.9375 61.234375 12.546875 66.546875 
Q 18.171875 71.875 27.484375 71.875 
Q 36.859375 71.875 42.578125 66.421875 
Q 48.296875 60.984375 48.296875 53.171875 
Q 48.296875 48.1875 45.671875 44.5 
Q 43.0625 40.828125 37.75 38.8125 
Q 44.34375 36.671875 47.78125 31.875 
Q 51.21875 27.09375 51.21875 20.453125 
Q 51.21875 11.28125 44.71875 5.03125 
Q 38.234375 -1.21875 27.640625 -1.21875 
Q 17.046875 -1.21875 10.546875 5.046875 
Q 4.046875 11.328125 4.046875 20.703125 
Q 4.046875 27.6875 7.59375 32.390625 
Q 11.140625 37.109375 17.671875 38.8125 
z
M 15.921875 53.71875 
Q 15.921875 48.640625 19.1875 45.40625 
Q 22.46875 42.1875 27.6875 42.1875 
Q 32.765625 42.1875 36.015625 45.375 
Q 39.265625 48.578125 39.265625 53.21875 
Q 39.265625 58.0625 35.90625 61.359375 
Q 32.5625 64.65625 27.59375 64.65625 
Q 22.5625 64.65625 19.234375 61.421875 
Q 15.921875 58.203125 15.921875 53.71875 
z
M 13.09375 20.65625 
Q 13.09375 16.890625 14.875 13.375 
Q 16.65625 9.859375 20.171875 7.921875 
Q 23.6875 6 27.734375 6 
Q 34.03125 6 38.125 10.046875 
Q 42.234375 14.109375 42.234375 20.359375 
Q 42.234375 26.703125 38.015625 30.859375 
Q 33.796875 35.015625 27.4375 35.015625 
Q 21.234375 35.015625 17.15625 30.90625 
Q 13.09375 26.8125 13.09375 20.65625 
z
" id="ArialMT-56"/>
      </defs>
      <g style="fill:#262626;" transform="translate(27.0031 302.178108)scale(0.14 -0.14)">
       <use xlink:href="#ArialMT-48"/>
       <use x="55.615234" xlink:href="#ArialMT-46"/>
       <use x="83.398438" xlink:href="#ArialMT-56"/>
      </g>
     </g>
    </g>
    <g id="ytick_3">
     <g id="text_10">
      <!-- 1.0 -->
      <defs>
       <path d="M 37.25 0 
L 28.46875 0 
L 28.46875 56 
Q 25.296875 52.984375 20.140625 49.953125 
Q 14.984375 46.921875 10.890625 45.40625 
L 10.890625 53.90625 
Q 18.265625 57.375 23.78125 62.296875 
Q 29.296875 67.234375 31.59375 71.875 
L 37.25 71.875 
z
" id="ArialMT-49"/>
      </defs>
      <g style="fill:#262626;" transform="translate(27.0031 245.45463)scale(0.14 -0.14)">
       <use xlink:href="#ArialMT-49"/>
       <use x="55.615234" xlink:href="#ArialMT-46"/>
       <use x="83.398438" xlink:href="#ArialMT-48"/>
      </g>
     </g>
    </g>
    <g id="ytick_4">
     <g id="text_11">
      <!-- 1.2 -->
      <defs>
       <path d="M 50.34375 8.453125 
L 50.34375 0 
L 3.03125 0 
Q 2.9375 3.171875 4.046875 6.109375 
Q 5.859375 10.9375 9.828125 15.625 
Q 13.8125 20.3125 21.34375 26.46875 
Q 33.015625 36.03125 37.109375 41.625 
Q 41.21875 47.21875 41.21875 52.203125 
Q 41.21875 57.421875 37.46875 61 
Q 33.734375 64.59375 27.734375 64.59375 
Q 21.390625 64.59375 17.578125 60.78125 
Q 13.765625 56.984375 13.71875 50.25 
L 4.6875 51.171875 
Q 5.609375 61.28125 11.65625 66.578125 
Q 17.71875 71.875 27.9375 71.875 
Q 38.234375 71.875 44.234375 66.15625 
Q 50.25 60.453125 50.25 52 
Q 50.25 47.703125 48.484375 43.546875 
Q 46.734375 39.40625 42.65625 34.8125 
Q 38.578125 30.21875 29.109375 22.21875 
Q 21.1875 15.578125 18.9375 13.203125 
Q 16.703125 10.84375 15.234375 8.453125 
z
" id="ArialMT-50"/>
      </defs>
      <g style="fill:#262626;" transform="translate(27.0031 188.731152)scale(0.14 -0.14)">
       <use xlink:href="#ArialMT-49"/>
       <use x="55.615234" xlink:href="#ArialMT-46"/>
       <use x="83.398438" xlink:href="#ArialMT-50"/>
      </g>
     </g>
    </g>
    <g id="ytick_5">
     <g id="text_12">
      <!-- 1.4 -->
      <defs>
       <path d="M 32.328125 0 
L 32.328125 17.140625 
L 1.265625 17.140625 
L 1.265625 25.203125 
L 33.9375 71.578125 
L 41.109375 71.578125 
L 41.109375 25.203125 
L 50.78125 25.203125 
L 50.78125 17.140625 
L 41.109375 17.140625 
L 41.109375 0 
z
M 32.328125 25.203125 
L 32.328125 57.46875 
L 9.90625 25.203125 
z
" id="ArialMT-52"/>
      </defs>
      <g style="fill:#262626;" transform="translate(27.0031 132.007674)scale(0.14 -0.14)">
       <use xlink:href="#ArialMT-49"/>
       <use x="55.615234" xlink:href="#ArialMT-46"/>
       <use x="83.398438" xlink:href="#ArialMT-52"/>
      </g>
     </g>
    </g>
    <g id="ytick_6">
     <g id="text_13">
      <!-- 1.6 -->
      <g style="fill:#262626;" transform="translate(27.0031 75.284195)scale(0.14 -0.14)">
       <use xlink:href="#ArialMT-49"/>
       <use x="55.615234" xlink:href="#ArialMT-46"/>
       <use x="83.398438" xlink:href="#ArialMT-54"/>
      </g>
     </g>
    </g>
    <g id="text_14">
     <!-- Crash Ratio: DST Week / Two Weeks After -->
     <defs>
      <path d="M 58.796875 25.09375 
L 68.265625 22.703125 
Q 65.28125 11.03125 57.546875 4.90625 
Q 49.8125 -1.21875 38.625 -1.21875 
Q 27.046875 -1.21875 19.796875 3.484375 
Q 12.546875 8.203125 8.765625 17.140625 
Q 4.984375 26.078125 4.984375 36.328125 
Q 4.984375 47.515625 9.25 55.828125 
Q 13.53125 64.15625 21.40625 68.46875 
Q 29.296875 72.796875 38.765625 72.796875 
Q 49.515625 72.796875 56.828125 67.328125 
Q 64.15625 61.859375 67.046875 51.953125 
L 57.71875 49.75 
Q 55.21875 57.5625 50.484375 61.125 
Q 45.75 64.703125 38.578125 64.703125 
Q 30.328125 64.703125 24.78125 60.734375 
Q 19.234375 56.78125 16.984375 50.109375 
Q 14.75 43.453125 14.75 36.375 
Q 14.75 27.25 17.40625 20.4375 
Q 20.0625 13.625 25.671875 10.25 
Q 31.296875 6.890625 37.84375 6.890625 
Q 45.796875 6.890625 51.3125 11.46875 
Q 56.84375 16.0625 58.796875 25.09375 
z
" id="ArialMT-67"/>
      <path d="M 7.859375 0 
L 7.859375 71.578125 
L 39.59375 71.578125 
Q 49.171875 71.578125 54.140625 69.640625 
Q 59.125 67.71875 62.109375 62.828125 
Q 65.09375 57.953125 65.09375 52.046875 
Q 65.09375 44.4375 60.15625 39.203125 
Q 55.21875 33.984375 44.921875 32.5625 
Q 48.6875 30.765625 50.640625 29 
Q 54.78125 25.203125 58.5 19.484375 
L 70.953125 0 
L 59.03125 0 
L 49.5625 14.890625 
Q 45.40625 21.34375 42.71875 24.75 
Q 40.046875 28.171875 37.921875 29.53125 
Q 35.796875 30.90625 33.59375 31.453125 
Q 31.984375 31.78125 28.328125 31.78125 
L 17.328125 31.78125 
L 17.328125 0 
z
M 17.328125 39.984375 
L 37.703125 39.984375 
Q 44.1875 39.984375 47.84375 41.328125 
Q 51.515625 42.671875 53.421875 45.625 
Q 55.328125 48.578125 55.328125 52.046875 
Q 55.328125 57.125 51.640625 60.390625 
Q 47.953125 63.671875 39.984375 63.671875 
L 17.328125 63.671875 
z
" id="ArialMT-82"/>
      <path d="M 9.03125 41.84375 
L 9.03125 51.859375 
L 19.046875 51.859375 
L 19.046875 41.84375 
z
M 9.03125 0 
L 9.03125 10.015625 
L 19.046875 10.015625 
L 19.046875 0 
z
" id="ArialMT-58"/>
      <path d="M 6.640625 0 
L 6.640625 71.578125 
L 15.4375 71.578125 
L 15.4375 30.765625 
L 36.234375 51.859375 
L 47.609375 51.859375 
L 27.78125 32.625 
L 49.609375 0 
L 38.765625 0 
L 21.625 26.515625 
L 15.4375 20.5625 
L 15.4375 0 
z
" id="ArialMT-107"/>
      <path d="M 0 -1.21875 
L 20.75 72.796875 
L 27.78125 72.796875 
L 7.078125 -1.21875 
z
" id="ArialMT-47"/>
      <path d="M 16.15625 0 
L 0.296875 51.859375 
L 9.375 51.859375 
L 17.625 21.921875 
L 20.703125 10.796875 
Q 20.90625 11.625 23.390625 21.484375 
L 31.640625 51.859375 
L 40.671875 51.859375 
L 48.4375 21.78125 
L 51.03125 11.859375 
L 54 21.875 
L 62.890625 51.859375 
L 71.4375 51.859375 
L 55.21875 0 
L 46.09375 0 
L 37.84375 31.0625 
L 35.84375 39.890625 
L 25.34375 0 
z
" id="ArialMT-119"/>
      <path d="M -0.140625 0 
L 27.34375 71.578125 
L 37.546875 71.578125 
L 66.84375 0 
L 56.0625 0 
L 47.703125 21.6875 
L 17.78125 21.6875 
L 9.90625 0 
z
M 20.515625 29.390625 
L 44.78125 29.390625 
L 37.3125 49.21875 
Q 33.890625 58.25 32.234375 64.0625 
Q 30.859375 57.171875 28.375 50.390625 
z
" id="ArialMT-65"/>
      <path d="M 8.6875 0 
L 8.6875 45.015625 
L 0.921875 45.015625 
L 0.921875 51.859375 
L 8.6875 51.859375 
L 8.6875 57.375 
Q 8.6875 62.59375 9.625 65.140625 
Q 10.890625 68.5625 14.078125 70.671875 
Q 17.28125 72.796875 23.046875 72.796875 
Q 26.765625 72.796875 31.25 71.921875 
L 29.9375 64.265625 
Q 27.203125 64.75 24.75 64.75 
Q 20.75 64.75 19.09375 63.03125 
Q 17.4375 61.328125 17.4375 56.640625 
L 17.4375 51.859375 
L 27.546875 51.859375 
L 27.546875 45.015625 
L 17.4375 45.015625 
L 17.4375 0 
z
" id="ArialMT-102"/>
     </defs>
     <g style="fill:#262626;" transform="translate(19.5687 368.590388)rotate(-90)scale(0.1728 -0.1728)">
      <use xlink:href="#ArialMT-67"/>
      <use x="72.216797" xlink:href="#ArialMT-114"/>
      <use x="105.517578" xlink:href="#ArialMT-97"/>
      <use x="161.132812" xlink:href="#ArialMT-115"/>
      <use x="211.132812" xlink:href="#ArialMT-104"/>
      <use x="266.748047" xlink:href="#ArialMT-32"/>
      <use x="294.53125" xlink:href="#ArialMT-82"/>
      <use x="366.748047" xlink:href="#ArialMT-97"/>
      <use x="422.363281" xlink:href="#ArialMT-116"/>
      <use x="450.146484" xlink:href="#ArialMT-105"/>
      <use x="472.363281" xlink:href="#ArialMT-111"/>
      <use x="527.978516" xlink:href="#ArialMT-58"/>
      <use x="555.761719" xlink:href="#ArialMT-32"/>
      <use x="583.544922" xlink:href="#ArialMT-68"/>
      <use x="655.761719" xlink:href="#ArialMT-83"/>
      <use x="722.460938" xlink:href="#ArialMT-84"/>
      <use x="781.794922" xlink:href="#ArialMT-32"/>
      <use x="809.578125" xlink:href="#ArialMT-87"/>
      <use x="902.212891" xlink:href="#ArialMT-101"/>
      <use x="957.828125" xlink:href="#ArialMT-101"/>
      <use x="1013.443359" xlink:href="#ArialMT-107"/>
      <use x="1063.443359" xlink:href="#ArialMT-32"/>
      <use x="1091.226562" xlink:href="#ArialMT-47"/>
      <use x="1119.009766" xlink:href="#ArialMT-32"/>
      <use x="1145.042969" xlink:href="#ArialMT-84"/>
      <use x="1200.626953" xlink:href="#ArialMT-119"/>
      <use x="1272.84375" xlink:href="#ArialMT-111"/>
      <use x="1328.458984" xlink:href="#ArialMT-32"/>
      <use x="1356.242188" xlink:href="#ArialMT-87"/>
      <use x="1448.876953" xlink:href="#ArialMT-101"/>
      <use x="1504.492188" xlink:href="#ArialMT-101"/>
      <use x="1560.107422" xlink:href="#ArialMT-107"/>
      <use x="1610.107422" xlink:href="#ArialMT-115"/>
      <use x="1660.107422" xlink:href="#ArialMT-32"/>
      <use x="1682.390625" xlink:href="#ArialMT-65"/>
      <use x="1749.089844" xlink:href="#ArialMT-102"/>
      <use x="1776.873047" xlink:href="#ArialMT-116"/>
      <use x="1804.65625" xlink:href="#ArialMT-101"/>
      <use x="1860.271484" xlink:href="#ArialMT-114"/>
     </g>
    </g>
   </g>
   <g id="PolyCollection_1">
    <defs>
     <path d="M 99.70995 -60.970491 
L 95.873392 -60.970491 
L 95.678504 -62.528706 
L 95.481201 -64.08692 
L 95.283532 -65.645135 
L 95.087361 -67.203349 
L 94.894217 -68.761563 
L 94.705143 -70.319778 
L 94.520548 -71.877992 
L 94.340081 -73.436207 
L 94.162527 -74.994421 
L 93.985744 -76.552635 
L 93.806639 -78.11085 
L 93.621195 -79.669064 
L 93.424547 -81.227279 
L 93.211115 -82.785493 
L 92.97478 -84.343707 
L 92.709105 -85.901922 
L 92.40759 -87.460136 
L 92.063943 -89.018351 
L 91.672371 -90.576565 
L 91.22785 -92.134779 
L 90.72639 -93.692994 
L 90.16526 -95.251208 
L 89.543167 -96.809423 
L 88.86039 -98.367637 
L 88.118842 -99.925851 
L 87.322076 -101.484066 
L 86.475226 -103.04228 
L 85.584887 -104.600495 
L 84.658934 -106.158709 
L 83.706306 -107.716923 
L 82.73674 -109.275138 
L 81.760495 -110.833352 
L 80.78805 -112.391567 
L 79.829813 -113.949781 
L 78.895837 -115.507995 
L 77.995563 -117.06621 
L 77.137594 -118.624424 
L 76.329511 -120.182639 
L 75.577738 -121.740853 
L 74.887456 -123.299067 
L 74.262573 -124.857282 
L 73.70574 -126.415496 
L 73.218424 -127.973711 
L 72.80102 -129.531925 
L 72.452998 -131.090139 
L 72.173086 -132.648354 
L 71.95946 -134.206568 
L 71.809953 -135.764783 
L 71.722246 -137.322997 
L 71.694053 -138.881211 
L 71.723274 -140.439426 
L 71.808118 -141.99764 
L 71.947175 -143.555855 
L 72.139451 -145.114069 
L 72.384349 -146.672283 
L 72.681607 -148.230498 
L 73.031191 -149.788712 
L 73.433162 -151.346927 
L 73.887506 -152.905141 
L 74.393965 -154.463355 
L 74.951857 -156.02157 
L 75.559909 -157.579784 
L 76.216122 -159.137999 
L 76.917657 -160.696213 
L 77.66077 -162.254427 
L 78.440795 -163.812642 
L 79.252178 -165.370856 
L 80.088555 -166.929071 
L 80.942891 -168.487285 
L 81.807646 -170.045499 
L 82.674991 -171.603714 
L 83.537034 -173.161928 
L 84.386069 -174.720143 
L 85.214816 -176.278357 
L 86.016656 -177.836571 
L 86.785835 -179.394786 
L 87.517634 -180.953 
L 88.208495 -182.511215 
L 88.856088 -184.069429 
L 89.459337 -185.627643 
L 90.018374 -187.185858 
L 90.53445 -188.744072 
L 91.009796 -190.302287 
L 91.447449 -191.860501 
L 91.85104 -193.418715 
L 92.22458 -194.97693 
L 92.572238 -196.535144 
L 92.898124 -198.093359 
L 93.2061 -199.651573 
L 93.49962 -201.209787 
L 93.781609 -202.768002 
L 94.054378 -204.326216 
L 94.319591 -205.884431 
L 94.578269 -207.442645 
L 94.830826 -209.000859 
L 95.07715 -210.559074 
L 95.316691 -212.117288 
L 95.548573 -213.675503 
L 95.771714 -215.233717 
L 99.811629 -215.233717 
L 99.811629 -215.233717 
L 100.03477 -213.675503 
L 100.266652 -212.117288 
L 100.506193 -210.559074 
L 100.752516 -209.000859 
L 101.005074 -207.442645 
L 101.263752 -205.884431 
L 101.528965 -204.326216 
L 101.801734 -202.768002 
L 102.083723 -201.209787 
L 102.377243 -199.651573 
L 102.685219 -198.093359 
L 103.011104 -196.535144 
L 103.358762 -194.97693 
L 103.732303 -193.418715 
L 104.135894 -191.860501 
L 104.573546 -190.302287 
L 105.048893 -188.744072 
L 105.564969 -187.185858 
L 106.124006 -185.627643 
L 106.727255 -184.069429 
L 107.374848 -182.511215 
L 108.065708 -180.953 
L 108.797508 -179.394786 
L 109.566687 -177.836571 
L 110.368527 -176.278357 
L 111.197274 -174.720143 
L 112.046309 -173.161928 
L 112.908352 -171.603714 
L 113.775697 -170.045499 
L 114.640452 -168.487285 
L 115.494788 -166.929071 
L 116.331165 -165.370856 
L 117.142547 -163.812642 
L 117.922573 -162.254427 
L 118.665686 -160.696213 
L 119.36722 -159.137999 
L 120.023434 -157.579784 
L 120.631486 -156.02157 
L 121.189378 -154.463355 
L 121.695837 -152.905141 
L 122.150181 -151.346927 
L 122.552152 -149.788712 
L 122.901736 -148.230498 
L 123.198994 -146.672283 
L 123.443892 -145.114069 
L 123.636168 -143.555855 
L 123.775225 -141.99764 
L 123.860068 -140.439426 
L 123.88929 -138.881211 
L 123.861097 -137.322997 
L 123.77339 -135.764783 
L 123.623883 -134.206568 
L 123.410257 -132.648354 
L 123.130345 -131.090139 
L 122.782323 -129.531925 
L 122.364918 -127.973711 
L 121.877603 -126.415496 
L 121.32077 -124.857282 
L 120.695886 -123.299067 
L 120.005605 -121.740853 
L 119.253832 -120.182639 
L 118.445749 -118.624424 
L 117.58778 -117.06621 
L 116.687506 -115.507995 
L 115.75353 -113.949781 
L 114.795293 -112.391567 
L 113.822848 -110.833352 
L 112.846603 -109.275138 
L 111.877037 -107.716923 
L 110.924409 -106.158709 
L 109.998456 -104.600495 
L 109.108117 -103.04228 
L 108.261267 -101.484066 
L 107.464501 -99.925851 
L 106.722953 -98.367637 
L 106.040176 -96.809423 
L 105.418083 -95.251208 
L 104.856953 -93.692994 
L 104.355493 -92.134779 
L 103.910972 -90.576565 
L 103.519399 -89.018351 
L 103.175753 -87.460136 
L 102.874238 -85.901922 
L 102.608563 -84.343707 
L 102.372228 -82.785493 
L 102.158796 -81.227279 
L 101.962148 -79.669064 
L 101.776703 -78.11085 
L 101.597599 -76.552635 
L 101.420816 -74.994421 
L 101.243262 -73.436207 
L 101.062795 -71.877992 
L 100.8782 -70.319778 
L 100.689126 -68.761563 
L 100.495982 -67.203349 
L 100.299811 -65.645135 
L 100.102142 -64.08692 
L 99.904839 -62.528706 
L 99.70995 -60.970491 
z
" id="m12c90e688f" style="stroke:#414141;stroke-width:2;"/>
    </defs>
    <g clip-path="url(#pab6472cf7d)">
     <use style="fill:#e68193;stroke:#414141;stroke-width:2;" x="0" xlink:href="#m12c90e688f" y="391.910113"/>
    </g>
   </g>
   <g id="PolyCollection_2">
    <defs>
     <path d="M 196.359034 -109.012564 
L 190.538595 -109.012564 
L 190.171323 -110.363929 
L 189.776056 -111.715294 
L 189.352684 -113.066659 
L 188.901212 -114.418024 
L 188.42174 -115.769388 
L 187.914455 -117.120753 
L 187.379617 -118.472118 
L 186.817573 -119.823483 
L 186.228766 -121.174847 
L 185.613768 -122.526212 
L 184.973324 -123.877577 
L 184.308404 -125.228942 
L 183.620268 -126.580306 
L 182.910531 -127.931671 
L 182.181233 -129.283036 
L 181.434898 -130.634401 
L 180.674577 -131.985765 
L 179.903874 -133.33713 
L 179.126946 -134.688495 
L 178.348473 -136.03986 
L 177.573588 -137.391225 
L 176.807778 -138.742589 
L 176.056756 -140.093954 
L 175.326293 -141.445319 
L 174.622041 -142.796684 
L 173.949333 -144.148048 
L 173.312985 -145.499413 
L 172.717103 -146.850778 
L 172.164911 -148.202143 
L 171.658613 -149.553507 
L 171.199285 -150.904872 
L 170.78683 -152.256237 
L 170.419975 -153.607602 
L 170.09633 -154.958967 
L 169.812505 -156.310331 
L 169.564275 -157.661696 
L 169.346798 -159.013061 
L 169.154869 -160.364426 
L 168.983196 -161.71579 
L 168.826699 -163.067155 
L 168.680801 -164.41852 
L 168.541713 -165.769885 
L 168.406676 -167.121249 
L 168.274184 -168.472614 
L 168.144129 -169.823979 
L 168.017902 -171.175344 
L 167.898418 -172.526708 
L 167.790062 -173.878073 
L 167.698572 -175.229438 
L 167.630842 -176.580803 
L 167.594664 -177.932168 
L 167.598414 -179.283532 
L 167.650698 -180.634897 
L 167.759965 -181.986262 
L 167.934115 -183.337627 
L 168.180113 -184.688991 
L 168.503629 -186.040356 
L 168.908724 -187.391721 
L 169.397587 -188.743086 
L 169.97036 -190.09445 
L 170.625029 -191.445815 
L 171.357417 -192.79718 
L 172.16126 -194.148545 
L 173.028371 -195.49991 
L 173.948889 -196.851274 
L 174.911592 -198.202639 
L 175.904266 -199.554004 
L 176.914112 -200.905369 
L 177.92817 -202.256733 
L 178.933746 -203.608098 
L 179.918814 -204.959463 
L 180.872384 -206.310828 
L 181.784819 -207.662192 
L 182.648082 -209.013557 
L 183.455918 -210.364922 
L 184.203951 -211.716287 
L 184.889703 -213.067651 
L 185.512548 -214.419016 
L 186.073578 -215.770381 
L 186.575426 -217.121746 
L 187.022033 -218.473111 
L 187.418381 -219.824475 
L 187.770205 -221.17584 
L 188.083702 -222.527205 
L 188.365242 -223.87857 
L 188.6211 -225.229934 
L 188.857224 -226.581299 
L 189.079029 -227.932664 
L 189.291249 -229.284029 
L 189.497821 -230.635393 
L 189.701831 -231.986758 
L 189.905495 -233.338123 
L 190.110186 -234.689488 
L 190.316497 -236.040853 
L 190.52433 -237.392217 
L 190.73301 -238.743582 
L 190.941408 -240.094947 
L 191.148073 -241.446312 
L 191.351358 -242.797676 
L 195.54627 -242.797676 
L 195.54627 -242.797676 
L 195.749556 -241.446312 
L 195.956221 -240.094947 
L 196.164619 -238.743582 
L 196.373299 -237.392217 
L 196.581132 -236.040853 
L 196.787443 -234.689488 
L 196.992134 -233.338123 
L 197.195798 -231.986758 
L 197.399808 -230.635393 
L 197.60638 -229.284029 
L 197.818599 -227.932664 
L 198.040405 -226.581299 
L 198.276529 -225.229934 
L 198.532387 -223.87857 
L 198.813926 -222.527205 
L 199.127423 -221.17584 
L 199.479248 -219.824475 
L 199.875596 -218.473111 
L 200.322203 -217.121746 
L 200.824051 -215.770381 
L 201.385081 -214.419016 
L 202.007925 -213.067651 
L 202.693678 -211.716287 
L 203.44171 -210.364922 
L 204.249546 -209.013557 
L 205.112809 -207.662192 
L 206.025244 -206.310828 
L 206.978815 -204.959463 
L 207.963882 -203.608098 
L 208.969458 -202.256733 
L 209.983517 -200.905369 
L 210.993362 -199.554004 
L 211.986036 -198.202639 
L 212.948739 -196.851274 
L 213.869258 -195.49991 
L 214.736369 -194.148545 
L 215.540211 -192.79718 
L 216.272599 -191.445815 
L 216.927269 -190.09445 
L 217.500041 -188.743086 
L 217.988905 -187.391721 
L 218.393999 -186.040356 
L 218.717516 -184.688991 
L 218.963514 -183.337627 
L 219.137664 -181.986262 
L 219.24693 -180.634897 
L 219.299214 -179.283532 
L 219.302965 -177.932168 
L 219.266787 -176.580803 
L 219.199057 -175.229438 
L 219.107567 -173.878073 
L 218.999211 -172.526708 
L 218.879726 -171.175344 
L 218.7535 -169.823979 
L 218.623445 -168.472614 
L 218.490952 -167.121249 
L 218.355916 -165.769885 
L 218.216827 -164.41852 
L 218.07093 -163.067155 
L 217.914433 -161.71579 
L 217.74276 -160.364426 
L 217.55083 -159.013061 
L 217.333354 -157.661696 
L 217.085124 -156.310331 
L 216.801299 -154.958967 
L 216.477654 -153.607602 
L 216.110799 -152.256237 
L 215.698344 -150.904872 
L 215.239016 -149.553507 
L 214.732717 -148.202143 
L 214.180525 -146.850778 
L 213.584643 -145.499413 
L 212.948295 -144.148048 
L 212.275587 -142.796684 
L 211.571336 -141.445319 
L 210.840873 -140.093954 
L 210.08985 -138.742589 
L 209.324041 -137.391225 
L 208.549155 -136.03986 
L 207.770682 -134.688495 
L 206.993755 -133.33713 
L 206.223052 -131.985765 
L 205.46273 -130.634401 
L 204.716395 -129.283036 
L 203.987098 -127.931671 
L 203.277361 -126.580306 
L 202.589224 -125.228942 
L 201.924304 -123.877577 
L 201.283861 -122.526212 
L 200.668863 -121.174847 
L 200.080056 -119.823483 
L 199.518011 -118.472118 
L 198.983174 -117.120753 
L 198.475888 -115.769388 
L 197.996417 -114.418024 
L 197.544945 -113.066659 
L 197.121573 -111.715294 
L 196.726305 -110.363929 
L 196.359034 -109.012564 
z
" id="mc5aef91894" style="stroke:#414141;stroke-width:2;"/>
    </defs>
    <g clip-path="url(#pab6472cf7d)">
     <use style="fill:#b38e44;stroke:#414141;stroke-width:2;" x="0" xlink:href="#mc5aef91894" y="391.910113"/>
    </g>
   </g>
   <g id="PolyCollection_3">
    <defs>
     <path d="M 293.747331 -114.476187 
L 284.464583 -114.476187 
L 283.834382 -116.472812 
L 283.156603 -118.469437 
L 282.432439 -120.466063 
L 281.663451 -122.462688 
L 280.851487 -124.459314 
L 279.998625 -126.455939 
L 279.107127 -128.452564 
L 278.179432 -130.44919 
L 277.218182 -132.445815 
L 276.226298 -134.442441 
L 275.207104 -136.439066 
L 274.164481 -138.435692 
L 273.103064 -140.432317 
L 272.028442 -142.428942 
L 270.947356 -144.425568 
L 269.867869 -146.422193 
L 268.79948 -148.418819 
L 267.75316 -150.415444 
L 266.741303 -152.412069 
L 265.777557 -154.408695 
L 264.876561 -156.40532 
L 264.053561 -158.401946 
L 263.323939 -160.398571 
L 262.702679 -162.395196 
L 262.203777 -164.391822 
L 261.839654 -166.388447 
L 261.620597 -168.385073 
L 261.554267 -170.381698 
L 261.645297 -172.378323 
L 261.895029 -174.374949 
L 262.301379 -176.371574 
L 262.85886 -178.3682 
L 263.558757 -180.364825 
L 264.389432 -182.36145 
L 265.336752 -184.358076 
L 266.384605 -186.354701 
L 267.515471 -188.351327 
L 268.71103 -190.347952 
L 269.952746 -192.344577 
L 271.222431 -194.341203 
L 272.502738 -196.337828 
L 273.777571 -198.334454 
L 275.032418 -200.331079 
L 276.254566 -202.327705 
L 277.433243 -204.32433 
L 278.559652 -206.320955 
L 279.626943 -208.317581 
L 280.630109 -210.314206 
L 281.565844 -212.310832 
L 282.43236 -214.307457 
L 283.229188 -216.304082 
L 283.95697 -218.300708 
L 284.617259 -220.297333 
L 285.212322 -222.293959 
L 285.744962 -224.290584 
L 286.218363 -226.287209 
L 286.635948 -228.283835 
L 287.001258 -230.28046 
L 287.317853 -232.277086 
L 287.589233 -234.273711 
L 287.818764 -236.270336 
L 288.009635 -238.266962 
L 288.164816 -240.263587 
L 288.28704 -242.260213 
L 288.378794 -244.256838 
L 288.442322 -246.253463 
L 288.479645 -248.250089 
L 288.492592 -250.246714 
L 288.482841 -252.24334 
L 288.451969 -254.239965 
L 288.401513 -256.236591 
L 288.333029 -258.233216 
L 288.248155 -260.229841 
L 288.14867 -262.226467 
L 288.03654 -264.223092 
L 287.913958 -266.219718 
L 287.783362 -268.216343 
L 287.647439 -270.212968 
L 287.509099 -272.209594 
L 287.37144 -274.206219 
L 287.23768 -276.202845 
L 287.111076 -278.19947 
L 286.994826 -280.196095 
L 286.891969 -282.192721 
L 286.805269 -284.189346 
L 286.737113 -286.185972 
L 286.689419 -288.182597 
L 286.663549 -290.179222 
L 286.660261 -292.175848 
L 286.679674 -294.172473 
L 286.721269 -296.169099 
L 286.78391 -298.165724 
L 286.865905 -300.162349 
L 286.96508 -302.158975 
L 287.078874 -304.1556 
L 287.204454 -306.152226 
L 287.338829 -308.148851 
L 287.478971 -310.145477 
L 287.621919 -312.142102 
L 290.589995 -312.142102 
L 290.589995 -312.142102 
L 290.732944 -310.145477 
L 290.873085 -308.148851 
L 291.007461 -306.152226 
L 291.133041 -304.1556 
L 291.246835 -302.158975 
L 291.346009 -300.162349 
L 291.428004 -298.165724 
L 291.490646 -296.169099 
L 291.53224 -294.172473 
L 291.551653 -292.175848 
L 291.548365 -290.179222 
L 291.522496 -288.182597 
L 291.474801 -286.185972 
L 291.406646 -284.189346 
L 291.319946 -282.192721 
L 291.217088 -280.196095 
L 291.100839 -278.19947 
L 290.974234 -276.202845 
L 290.840474 -274.206219 
L 290.702815 -272.209594 
L 290.564476 -270.212968 
L 290.428552 -268.216343 
L 290.297956 -266.219718 
L 290.175374 -264.223092 
L 290.063244 -262.226467 
L 289.963759 -260.229841 
L 289.878885 -258.233216 
L 289.810401 -256.236591 
L 289.759945 -254.239965 
L 289.729074 -252.24334 
L 289.719322 -250.246714 
L 289.732269 -248.250089 
L 289.769592 -246.253463 
L 289.83312 -244.256838 
L 289.924874 -242.260213 
L 290.047099 -240.263587 
L 290.20228 -238.266962 
L 290.39315 -236.270336 
L 290.622682 -234.273711 
L 290.894061 -232.277086 
L 291.210657 -230.28046 
L 291.575966 -228.283835 
L 291.993551 -226.287209 
L 292.466952 -224.290584 
L 292.999593 -222.293959 
L 293.594655 -220.297333 
L 294.254944 -218.300708 
L 294.982726 -216.304082 
L 295.779554 -214.307457 
L 296.64607 -212.310832 
L 297.581805 -210.314206 
L 298.584972 -208.317581 
L 299.652262 -206.320955 
L 300.778672 -204.32433 
L 301.957348 -202.327705 
L 303.179497 -200.331079 
L 304.434343 -198.334454 
L 305.709177 -196.337828 
L 306.989483 -194.341203 
L 308.259168 -192.344577 
L 309.500885 -190.347952 
L 310.696443 -188.351327 
L 311.82731 -186.354701 
L 312.875162 -184.358076 
L 313.822482 -182.36145 
L 314.653158 -180.364825 
L 315.353055 -178.3682 
L 315.910536 -176.371574 
L 316.316885 -174.374949 
L 316.566617 -172.378323 
L 316.657648 -170.381698 
L 316.591317 -168.385073 
L 316.372261 -166.388447 
L 316.008137 -164.391822 
L 315.509235 -162.395196 
L 314.887975 -160.398571 
L 314.158354 -158.401946 
L 313.335353 -156.40532 
L 312.434357 -154.408695 
L 311.470611 -152.412069 
L 310.458754 -150.415444 
L 309.412434 -148.418819 
L 308.344045 -146.422193 
L 307.264559 -144.425568 
L 306.183473 -142.428942 
L 305.10885 -140.432317 
L 304.047433 -138.435692 
L 303.004811 -136.439066 
L 301.985616 -134.442441 
L 300.993733 -132.445815 
L 300.032482 -130.44919 
L 299.104787 -128.452564 
L 298.213289 -126.455939 
L 297.360427 -124.459314 
L 296.548463 -122.462688 
L 295.779475 -120.466063 
L 295.055312 -118.469437 
L 294.377532 -116.472812 
L 293.747331 -114.476187 
z
" id="m49965ebb5d" style="stroke:#414141;stroke-width:2;"/>
    </defs>
    <g clip-path="url(#pab6472cf7d)">
     <use style="fill:#7d9a40;stroke:#414141;stroke-width:2;" x="0" xlink:href="#m49965ebb5d" y="391.910113"/>
    </g>
   </g>
   <g id="PolyCollection_4">
    <defs>
     <path d="M 387.889296 -94.460058 
L 381.636904 -94.460058 
L 381.193607 -96.333861 
L 380.708834 -98.207663 
L 380.182107 -100.081465 
L 379.613506 -101.955267 
L 379.003734 -103.829069 
L 378.354177 -105.702872 
L 377.666952 -107.576674 
L 376.944938 -109.450476 
L 376.191802 -111.324278 
L 375.41199 -113.19808 
L 374.610707 -115.071883 
L 373.793869 -116.945685 
L 372.968027 -118.819487 
L 372.140267 -120.693289 
L 371.318088 -122.567091 
L 370.509247 -124.440893 
L 369.721597 -126.314696 
L 368.9629 -128.188498 
L 368.240642 -130.0623 
L 367.561837 -131.936102 
L 366.93285 -133.809904 
L 366.359221 -135.683707 
L 365.845528 -137.557509 
L 365.39527 -139.431311 
L 365.010791 -141.305113 
L 364.693242 -143.178915 
L 364.442594 -145.052717 
L 364.257683 -146.92652 
L 364.136312 -148.800322 
L 364.075374 -150.674124 
L 364.071018 -152.547926 
L 364.118835 -154.421728 
L 364.214055 -156.295531 
L 364.35175 -158.169333 
L 364.527035 -160.043135 
L 364.735244 -161.916937 
L 364.972091 -163.790739 
L 365.233795 -165.664542 
L 365.517171 -167.538344 
L 365.819678 -169.412146 
L 366.139431 -171.285948 
L 366.475173 -173.15975 
L 366.82621 -175.033552 
L 367.192319 -176.907355 
L 367.573633 -178.781157 
L 367.970506 -180.654959 
L 368.383382 -182.528761 
L 368.812657 -184.402563 
L 369.258552 -186.276366 
L 369.721007 -188.150168 
L 370.19959 -190.02397 
L 370.693442 -191.897772 
L 371.201242 -193.771574 
L 371.721199 -195.645376 
L 372.25108 -197.519179 
L 372.788252 -199.392981 
L 373.329751 -201.266783 
L 373.87236 -203.140585 
L 374.412702 -205.014387 
L 374.947329 -206.88819 
L 375.47282 -208.761992 
L 375.985865 -210.635794 
L 376.483344 -212.509596 
L 376.962393 -214.383398 
L 377.420464 -216.2572 
L 377.855361 -218.131003 
L 378.265277 -220.004805 
L 378.648812 -221.878607 
L 379.004981 -223.752409 
L 379.333225 -225.626211 
L 379.6334 -227.500014 
L 379.905778 -229.373816 
L 380.151026 -231.247618 
L 380.370199 -233.12142 
L 380.56471 -234.995222 
L 380.736306 -236.869025 
L 380.887038 -238.742827 
L 381.019213 -240.616629 
L 381.135353 -242.490431 
L 381.238133 -244.364233 
L 381.330323 -246.238035 
L 381.414716 -248.111838 
L 381.494057 -249.98564 
L 381.570969 -251.859442 
L 381.647882 -253.733244 
L 381.726967 -255.607046 
L 381.810075 -257.480849 
L 381.898694 -259.354651 
L 381.993911 -261.228453 
L 382.096399 -263.102255 
L 382.20641 -264.976057 
L 382.323794 -266.849859 
L 382.448027 -268.723662 
L 382.578256 -270.597464 
L 382.71335 -272.471266 
L 382.851968 -274.345068 
L 382.992622 -276.21887 
L 383.133749 -278.092673 
L 383.273774 -279.966475 
L 386.252426 -279.966475 
L 386.252426 -279.966475 
L 386.392451 -278.092673 
L 386.533578 -276.21887 
L 386.674232 -274.345068 
L 386.81285 -272.471266 
L 386.947944 -270.597464 
L 387.078173 -268.723662 
L 387.202406 -266.849859 
L 387.31979 -264.976057 
L 387.429801 -263.102255 
L 387.532289 -261.228453 
L 387.627506 -259.354651 
L 387.716125 -257.480849 
L 387.799233 -255.607046 
L 387.878318 -253.733244 
L 387.955231 -251.859442 
L 388.032143 -249.98564 
L 388.111484 -248.111838 
L 388.195877 -246.238035 
L 388.288067 -244.364233 
L 388.390847 -242.490431 
L 388.506987 -240.616629 
L 388.639162 -238.742827 
L 388.789894 -236.869025 
L 388.96149 -234.995222 
L 389.156001 -233.12142 
L 389.375174 -231.247618 
L 389.620422 -229.373816 
L 389.8928 -227.500014 
L 390.192975 -225.626211 
L 390.521219 -223.752409 
L 390.877388 -221.878607 
L 391.260923 -220.004805 
L 391.670839 -218.131003 
L 392.105736 -216.2572 
L 392.563807 -214.383398 
L 393.042856 -212.509596 
L 393.540335 -210.635794 
L 394.05338 -208.761992 
L 394.578871 -206.88819 
L 395.113498 -205.014387 
L 395.65384 -203.140585 
L 396.196449 -201.266783 
L 396.737948 -199.392981 
L 397.27512 -197.519179 
L 397.805001 -195.645376 
L 398.324958 -193.771574 
L 398.832758 -191.897772 
L 399.32661 -190.02397 
L 399.805193 -188.150168 
L 400.267648 -186.276366 
L 400.713543 -184.402563 
L 401.142818 -182.528761 
L 401.555694 -180.654959 
L 401.952567 -178.781157 
L 402.333881 -176.907355 
L 402.69999 -175.033552 
L 403.051027 -173.15975 
L 403.386769 -171.285948 
L 403.706522 -169.412146 
L 404.009029 -167.538344 
L 404.292405 -165.664542 
L 404.554109 -163.790739 
L 404.790956 -161.916937 
L 404.999165 -160.043135 
L 405.17445 -158.169333 
L 405.312145 -156.295531 
L 405.407365 -154.421728 
L 405.455182 -152.547926 
L 405.450826 -150.674124 
L 405.389888 -148.800322 
L 405.268517 -146.92652 
L 405.083606 -145.052717 
L 404.832958 -143.178915 
L 404.515409 -141.305113 
L 404.13093 -139.431311 
L 403.680672 -137.557509 
L 403.166979 -135.683707 
L 402.59335 -133.809904 
L 401.964363 -131.936102 
L 401.285558 -130.0623 
L 400.5633 -128.188498 
L 399.804603 -126.314696 
L 399.016953 -124.440893 
L 398.208112 -122.567091 
L 397.385933 -120.693289 
L 396.558173 -118.819487 
L 395.732331 -116.945685 
L 394.915493 -115.071883 
L 394.11421 -113.19808 
L 393.334398 -111.324278 
L 392.581262 -109.450476 
L 391.859248 -107.576674 
L 391.172023 -105.702872 
L 390.522466 -103.829069 
L 389.912694 -101.955267 
L 389.344093 -100.081465 
L 388.817366 -98.207663 
L 388.332593 -96.333861 
L 387.889296 -94.460058 
z
" id="mc60102c462" style="stroke:#414141;stroke-width:2;"/>
    </defs>
    <g clip-path="url(#pab6472cf7d)">
     <use style="fill:#43a084;stroke:#414141;stroke-width:2;" x="0" xlink:href="#mc60102c462" y="391.910113"/>
    </g>
   </g>
   <g id="PolyCollection_5">
    <defs>
     <path d="M 484.185409 -107.751396 
L 476.655077 -107.751396 
L 476.181111 -108.881348 
L 475.66971 -110.011299 
L 475.121011 -111.141251 
L 474.535603 -112.271202 
L 473.914557 -113.401154 
L 473.259443 -114.531105 
L 472.572351 -115.661057 
L 471.855881 -116.791009 
L 471.113134 -117.92096 
L 470.347678 -119.050912 
L 469.563498 -120.180863 
L 468.764928 -121.310815 
L 467.956562 -122.440766 
L 467.143148 -123.570718 
L 466.329461 -124.70067 
L 465.520172 -125.830621 
L 464.719696 -126.960573 
L 463.932048 -128.090524 
L 463.160696 -129.220476 
L 462.408429 -130.350427 
L 461.677244 -131.480379 
L 460.968266 -132.610331 
L 460.281693 -133.740282 
L 459.616795 -134.870234 
L 458.971957 -136.000185 
L 458.344763 -137.130137 
L 457.732146 -138.260088 
L 457.130566 -139.39004 
L 456.536241 -140.519991 
L 455.945411 -141.649943 
L 455.354606 -142.779895 
L 454.760947 -143.909846 
L 454.162416 -145.039798 
L 453.558118 -146.169749 
L 452.948503 -147.299701 
L 452.335536 -148.429652 
L 451.722806 -149.559604 
L 451.115568 -150.689556 
L 450.520701 -151.819507 
L 449.946599 -152.949459 
L 449.402975 -154.07941 
L 448.900602 -155.209362 
L 448.450995 -156.339313 
L 448.066032 -157.469265 
L 447.757561 -158.599217 
L 447.536967 -159.729168 
L 447.414757 -160.85912 
L 447.400155 -161.989071 
L 447.500725 -163.119023 
L 447.722052 -164.248974 
L 448.067482 -165.378926 
L 448.537925 -166.508878 
L 449.131753 -167.638829 
L 449.844764 -168.768781 
L 450.670242 -169.898732 
L 451.599091 -171.028684 
L 452.620047 -172.158635 
L 453.719959 -173.288587 
L 454.884127 -174.418539 
L 456.096681 -175.54849 
L 457.340998 -176.678442 
L 458.600134 -177.808393 
L 459.85726 -178.938345 
L 461.09609 -180.068296 
L 462.301282 -181.198248 
L 463.458809 -182.328199 
L 464.556281 -183.458151 
L 465.583212 -184.588103 
L 466.531229 -185.718054 
L 467.394214 -186.848006 
L 468.168374 -187.977957 
L 468.852247 -189.107909 
L 469.446638 -190.23786 
L 469.95449 -191.367812 
L 470.380702 -192.497764 
L 470.73189 -193.627715 
L 471.01611 -194.757667 
L 471.242546 -195.887618 
L 471.421183 -197.01757 
L 471.562461 -198.147521 
L 471.676937 -199.277473 
L 471.774955 -200.407425 
L 471.866346 -201.537376 
L 471.960152 -202.667328 
L 472.064394 -203.797279 
L 472.185891 -204.927231 
L 472.330122 -206.057182 
L 472.50115 -207.187134 
L 472.701594 -208.317086 
L 472.932653 -209.447037 
L 473.194183 -210.576989 
L 473.484809 -211.70694 
L 473.802077 -212.836892 
L 474.142628 -213.966843 
L 474.502398 -215.096795 
L 474.876815 -216.226747 
L 475.261007 -217.356698 
L 475.649998 -218.48665 
L 476.038882 -219.616601 
L 484.801604 -219.616601 
L 484.801604 -219.616601 
L 485.190488 -218.48665 
L 485.579478 -217.356698 
L 485.963671 -216.226747 
L 486.338088 -215.096795 
L 486.697858 -213.966843 
L 487.038409 -212.836892 
L 487.355676 -211.70694 
L 487.646302 -210.576989 
L 487.907832 -209.447037 
L 488.138892 -208.317086 
L 488.339336 -207.187134 
L 488.510364 -206.057182 
L 488.654595 -204.927231 
L 488.776092 -203.797279 
L 488.880334 -202.667328 
L 488.974139 -201.537376 
L 489.06553 -200.407425 
L 489.163549 -199.277473 
L 489.278024 -198.147521 
L 489.419302 -197.01757 
L 489.59794 -195.887618 
L 489.824376 -194.757667 
L 490.108596 -193.627715 
L 490.459784 -192.497764 
L 490.885996 -191.367812 
L 491.393848 -190.23786 
L 491.988239 -189.107909 
L 492.672112 -187.977957 
L 493.446272 -186.848006 
L 494.309256 -185.718054 
L 495.257274 -184.588103 
L 496.284205 -183.458151 
L 497.381676 -182.328199 
L 498.539204 -181.198248 
L 499.744396 -180.068296 
L 500.983226 -178.938345 
L 502.240352 -177.808393 
L 503.499488 -176.678442 
L 504.743805 -175.54849 
L 505.956358 -174.418539 
L 507.120526 -173.288587 
L 508.220439 -172.158635 
L 509.241395 -171.028684 
L 510.170243 -169.898732 
L 510.995721 -168.768781 
L 511.708733 -167.638829 
L 512.30256 -166.508878 
L 512.773004 -165.378926 
L 513.118433 -164.248974 
L 513.339761 -163.119023 
L 513.440331 -161.989071 
L 513.425728 -160.85912 
L 513.303519 -159.729168 
L 513.082925 -158.599217 
L 512.774453 -157.469265 
L 512.389491 -156.339313 
L 511.939883 -155.209362 
L 511.437511 -154.07941 
L 510.893887 -152.949459 
L 510.319784 -151.819507 
L 509.724918 -150.689556 
L 509.11768 -149.559604 
L 508.50495 -148.429652 
L 507.891983 -147.299701 
L 507.282368 -146.169749 
L 506.67807 -145.039798 
L 506.079538 -143.909846 
L 505.485879 -142.779895 
L 504.895075 -141.649943 
L 504.304244 -140.519991 
L 503.70992 -139.39004 
L 503.10834 -138.260088 
L 502.495722 -137.130137 
L 501.868529 -136.000185 
L 501.223691 -134.870234 
L 500.558793 -133.740282 
L 499.87222 -132.610331 
L 499.163241 -131.480379 
L 498.432057 -130.350427 
L 497.67979 -129.220476 
L 496.908437 -128.090524 
L 496.120789 -126.960573 
L 495.320313 -125.830621 
L 494.511024 -124.70067 
L 493.697338 -123.570718 
L 492.883923 -122.440766 
L 492.075558 -121.310815 
L 491.276988 -120.180863 
L 490.492808 -119.050912 
L 489.727352 -117.92096 
L 488.984605 -116.791009 
L 488.268135 -115.661057 
L 487.581042 -114.531105 
L 486.925929 -113.401154 
L 486.304882 -112.271202 
L 485.719475 -111.141251 
L 485.170776 -110.011299 
L 484.659375 -108.881348 
L 484.185409 -107.751396 
z
" id="mce67da8593" style="stroke:#414141;stroke-width:2;"/>
    </defs>
    <g clip-path="url(#pab6472cf7d)">
     <use style="fill:#489eaa;stroke:#414141;stroke-width:2;" x="0" xlink:href="#mce67da8593" y="391.910113"/>
    </g>
   </g>
   <g id="PolyCollection_6">
    <defs>
     <path d="M 582.648424 -110.810668 
L 569.506347 -110.810668 
L 568.872025 -111.756212 
L 568.220372 -112.701756 
L 567.557003 -113.6473 
L 566.88808 -114.592844 
L 566.220194 -115.538388 
L 565.560215 -116.483932 
L 564.915134 -117.429477 
L 564.291877 -118.375021 
L 563.697116 -119.320565 
L 563.13707 -120.266109 
L 562.617315 -121.211653 
L 562.142588 -122.157197 
L 561.716621 -123.102742 
L 561.34198 -124.048286 
L 561.019946 -124.99383 
L 560.750405 -125.939374 
L 560.531797 -126.884918 
L 560.361079 -127.830462 
L 560.233745 -128.776006 
L 560.143871 -129.721551 
L 560.084215 -130.667095 
L 560.046336 -131.612639 
L 560.020768 -132.558183 
L 559.997212 -133.503727 
L 559.964763 -134.449271 
L 559.912161 -135.394815 
L 559.828058 -136.34036 
L 559.701304 -137.285904 
L 559.521236 -138.231448 
L 559.277965 -139.176992 
L 558.962667 -140.122536 
L 558.567851 -141.06808 
L 558.087614 -142.013625 
L 557.517863 -142.959169 
L 556.856507 -143.904713 
L 556.103602 -144.850257 
L 555.261454 -145.795801 
L 554.334667 -146.741345 
L 553.330129 -147.686889 
L 552.256943 -148.632434 
L 551.126296 -149.577978 
L 549.951264 -150.523522 
L 548.74656 -151.469066 
L 547.528236 -152.41461 
L 546.313327 -153.360154 
L 545.119476 -154.305699 
L 543.964513 -155.251243 
L 542.866042 -156.196787 
L 541.841014 -157.142331 
L 540.905319 -158.087875 
L 540.073404 -159.033419 
L 539.357937 -159.978963 
L 538.769507 -160.924508 
L 538.316406 -161.870052 
L 538.004458 -162.815596 
L 537.836932 -163.76114 
L 537.814529 -164.706684 
L 537.935435 -165.652228 
L 538.195455 -166.597773 
L 538.588198 -167.543317 
L 539.105326 -168.488861 
L 539.736847 -169.434405 
L 540.471438 -170.379949 
L 541.296795 -171.325493 
L 542.199987 -172.271037 
L 543.16781 -173.216582 
L 544.187128 -174.162126 
L 545.245187 -175.10767 
L 546.32989 -176.053214 
L 547.430045 -176.998758 
L 548.53555 -177.944302 
L 549.637541 -178.889847 
L 550.728482 -179.835391 
L 551.802202 -180.780935 
L 552.853895 -181.726479 
L 553.880062 -182.672023 
L 554.878422 -183.617567 
L 555.84779 -184.563111 
L 556.787925 -185.508656 
L 557.699362 -186.4542 
L 558.58324 -187.399744 
L 559.441115 -188.345288 
L 560.274791 -189.290832 
L 561.086157 -190.236376 
L 561.877036 -191.18192 
L 562.649063 -192.127465 
L 563.403588 -193.073009 
L 564.141599 -194.018553 
L 564.863678 -194.964097 
L 565.569983 -195.909641 
L 566.260256 -196.855185 
L 566.933852 -197.80073 
L 567.589785 -198.746274 
L 568.226796 -199.691818 
L 568.843425 -200.637362 
L 569.438092 -201.582906 
L 570.009181 -202.52845 
L 570.555115 -203.473994 
L 571.074436 -204.419539 
L 581.080335 -204.419539 
L 581.080335 -204.419539 
L 581.599656 -203.473994 
L 582.145591 -202.52845 
L 582.716679 -201.582906 
L 583.311347 -200.637362 
L 583.927976 -199.691818 
L 584.564987 -198.746274 
L 585.22092 -197.80073 
L 585.894515 -196.855185 
L 586.584788 -195.909641 
L 587.291094 -194.964097 
L 588.013172 -194.018553 
L 588.751183 -193.073009 
L 589.505708 -192.127465 
L 590.277736 -191.18192 
L 591.068614 -190.236376 
L 591.87998 -189.290832 
L 592.713657 -188.345288 
L 593.571532 -187.399744 
L 594.455409 -186.4542 
L 595.366847 -185.508656 
L 596.306981 -184.563111 
L 597.276349 -183.617567 
L 598.27471 -182.672023 
L 599.300877 -181.726479 
L 600.35257 -180.780935 
L 601.42629 -179.835391 
L 602.51723 -178.889847 
L 603.619221 -177.944302 
L 604.724727 -176.998758 
L 605.824881 -176.053214 
L 606.909585 -175.10767 
L 607.967643 -174.162126 
L 608.986961 -173.216582 
L 609.954785 -172.271037 
L 610.857976 -171.325493 
L 611.683333 -170.379949 
L 612.417925 -169.434405 
L 613.049446 -168.488861 
L 613.566574 -167.543317 
L 613.959316 -166.597773 
L 614.219336 -165.652228 
L 614.340243 -164.706684 
L 614.317839 -163.76114 
L 614.150313 -162.815596 
L 613.838365 -161.870052 
L 613.385264 -160.924508 
L 612.796835 -159.978963 
L 612.081367 -159.033419 
L 611.249453 -158.087875 
L 610.313757 -157.142331 
L 609.288729 -156.196787 
L 608.190258 -155.251243 
L 607.035296 -154.305699 
L 605.841444 -153.360154 
L 604.626536 -152.41461 
L 603.408211 -151.469066 
L 602.203508 -150.523522 
L 601.028475 -149.577978 
L 599.897828 -148.632434 
L 598.824643 -147.686889 
L 597.820105 -146.741345 
L 596.893317 -145.795801 
L 596.05117 -144.850257 
L 595.298265 -143.904713 
L 594.636908 -142.959169 
L 594.067157 -142.013625 
L 593.58692 -141.06808 
L 593.192105 -140.122536 
L 592.876807 -139.176992 
L 592.633536 -138.231448 
L 592.453467 -137.285904 
L 592.326714 -136.34036 
L 592.242611 -135.394815 
L 592.190008 -134.449271 
L 592.157559 -133.503727 
L 592.134003 -132.558183 
L 592.108435 -131.612639 
L 592.070557 -130.667095 
L 592.0109 -129.721551 
L 591.921027 -128.776006 
L 591.793692 -127.830462 
L 591.622974 -126.884918 
L 591.404366 -125.939374 
L 591.134826 -124.99383 
L 590.812791 -124.048286 
L 590.438151 -123.102742 
L 590.012183 -122.157197 
L 589.537457 -121.211653 
L 589.017701 -120.266109 
L 588.457656 -119.320565 
L 587.862894 -118.375021 
L 587.239637 -117.429477 
L 586.594556 -116.483932 
L 585.934578 -115.538388 
L 585.266691 -114.592844 
L 584.597769 -113.6473 
L 583.934399 -112.701756 
L 583.282746 -111.756212 
L 582.648424 -110.810668 
z
" id="m420300471e" style="stroke:#414141;stroke-width:2;"/>
    </defs>
    <g clip-path="url(#pab6472cf7d)">
     <use style="fill:#8fa0e6;stroke:#414141;stroke-width:2;" x="0" xlink:href="#m420300471e" y="391.910113"/>
    </g>
   </g>
   <g id="PolyCollection_7">
    <defs>
     <path d="M 673.456518 -85.591004 
L 670.012539 -85.591004 
L 669.810556 -87.621013 
L 669.592901 -89.651022 
L 669.358995 -91.681031 
L 669.108213 -93.711039 
L 668.839872 -95.741048 
L 668.553224 -97.771057 
L 668.24745 -99.801065 
L 667.921661 -101.831074 
L 667.574915 -103.861083 
L 667.20623 -105.891092 
L 666.814617 -107.9211 
L 666.399123 -109.951109 
L 665.958873 -111.981118 
L 665.493139 -114.011126 
L 665.001397 -116.041135 
L 664.483407 -118.071144 
L 663.939285 -120.101152 
L 663.369577 -122.131161 
L 662.775338 -124.16117 
L 662.158187 -126.191179 
L 661.520375 -128.221187 
L 660.864815 -130.251196 
L 660.195114 -132.281205 
L 659.515576 -134.311213 
L 658.831185 -136.341222 
L 658.147564 -138.371231 
L 657.470917 -140.40124 
L 656.807933 -142.431248 
L 656.165689 -144.461257 
L 655.551512 -146.491266 
L 654.972836 -148.521274 
L 654.437046 -150.551283 
L 653.951303 -152.581292 
L 653.52238 -154.611301 
L 653.156482 -156.641309 
L 652.859087 -158.671318 
L 652.634787 -160.701327 
L 652.487158 -162.731335 
L 652.418634 -164.761344 
L 652.43043 -166.791353 
L 652.522469 -168.821361 
L 652.693362 -170.85137 
L 652.940408 -172.881379 
L 653.259636 -174.911388 
L 653.645874 -176.941396 
L 654.092856 -178.971405 
L 654.593355 -181.001414 
L 655.139344 -183.031422 
L 655.722176 -185.061431 
L 656.332782 -187.09144 
L 656.961877 -189.121449 
L 657.600171 -191.151457 
L 658.238582 -193.181466 
L 658.86843 -195.211475 
L 659.481625 -197.241483 
L 660.070833 -199.271492 
L 660.629617 -201.301501 
L 661.152548 -203.331509 
L 661.635288 -205.361518 
L 662.074639 -207.391527 
L 662.468559 -209.421536 
L 662.816152 -211.451544 
L 663.117619 -213.481553 
L 663.37419 -215.511562 
L 663.588031 -217.54157 
L 663.76213 -219.571579 
L 663.900176 -221.601588 
L 664.006419 -223.631597 
L 664.085534 -225.661605 
L 664.14248 -227.691614 
L 664.182368 -229.721623 
L 664.21033 -231.751631 
L 664.231403 -233.78164 
L 664.250421 -235.811649 
L 664.271928 -237.841658 
L 664.300093 -239.871666 
L 664.338651 -241.901675 
L 664.390849 -243.931684 
L 664.459414 -245.961692 
L 664.546526 -247.991701 
L 664.653808 -250.02171 
L 664.782322 -252.051718 
L 664.932583 -254.081727 
L 665.104573 -256.111736 
L 665.297769 -258.141745 
L 665.511183 -260.171753 
L 665.743397 -262.201762 
L 665.992616 -264.231771 
L 666.256722 -266.261779 
L 666.533333 -268.291788 
L 666.819865 -270.321797 
L 667.113598 -272.351806 
L 667.411742 -274.381814 
L 667.711498 -276.411823 
L 668.010127 -278.441832 
L 668.305003 -280.47184 
L 668.593668 -282.501849 
L 668.873876 -284.531858 
L 669.143634 -286.561867 
L 674.325423 -286.561867 
L 674.325423 -286.561867 
L 674.595181 -284.531858 
L 674.875389 -282.501849 
L 675.164054 -280.47184 
L 675.45893 -278.441832 
L 675.757559 -276.411823 
L 676.057315 -274.381814 
L 676.355459 -272.351806 
L 676.649192 -270.321797 
L 676.935724 -268.291788 
L 677.212335 -266.261779 
L 677.476441 -264.231771 
L 677.72566 -262.201762 
L 677.957874 -260.171753 
L 678.171288 -258.141745 
L 678.364485 -256.111736 
L 678.536474 -254.081727 
L 678.686735 -252.051718 
L 678.815249 -250.02171 
L 678.922531 -247.991701 
L 679.009643 -245.961692 
L 679.078208 -243.931684 
L 679.130406 -241.901675 
L 679.168964 -239.871666 
L 679.197129 -237.841658 
L 679.218636 -235.811649 
L 679.237655 -233.78164 
L 679.258727 -231.751631 
L 679.286689 -229.721623 
L 679.326577 -227.691614 
L 679.383523 -225.661605 
L 679.462638 -223.631597 
L 679.568881 -221.601588 
L 679.706927 -219.571579 
L 679.881027 -217.54157 
L 680.094867 -215.511562 
L 680.351438 -213.481553 
L 680.652905 -211.451544 
L 681.000498 -209.421536 
L 681.394419 -207.391527 
L 681.833769 -205.361518 
L 682.316509 -203.331509 
L 682.83944 -201.301501 
L 683.398224 -199.271492 
L 683.987433 -197.241483 
L 684.600628 -195.211475 
L 685.230475 -193.181466 
L 685.868886 -191.151457 
L 686.507181 -189.121449 
L 687.136275 -187.09144 
L 687.746881 -185.061431 
L 688.329713 -183.031422 
L 688.875702 -181.001414 
L 689.376201 -178.971405 
L 689.823183 -176.941396 
L 690.209421 -174.911388 
L 690.528649 -172.881379 
L 690.775695 -170.85137 
L 690.946588 -168.821361 
L 691.038627 -166.791353 
L 691.050423 -164.761344 
L 690.9819 -162.731335 
L 690.83427 -160.701327 
L 690.60997 -158.671318 
L 690.312575 -156.641309 
L 689.946677 -154.611301 
L 689.517754 -152.581292 
L 689.032011 -150.551283 
L 688.496221 -148.521274 
L 687.917545 -146.491266 
L 687.303368 -144.461257 
L 686.661124 -142.431248 
L 685.998141 -140.40124 
L 685.321493 -138.371231 
L 684.637872 -136.341222 
L 683.953481 -134.311213 
L 683.273943 -132.281205 
L 682.604242 -130.251196 
L 681.948682 -128.221187 
L 681.31087 -126.191179 
L 680.69372 -124.16117 
L 680.09948 -122.131161 
L 679.529772 -120.101152 
L 678.98565 -118.071144 
L 678.46766 -116.041135 
L 677.975918 -114.011126 
L 677.510184 -111.981118 
L 677.069934 -109.951109 
L 676.65444 -107.9211 
L 676.262827 -105.891092 
L 675.894142 -103.861083 
L 675.547396 -101.831074 
L 675.221607 -99.801065 
L 674.915833 -97.771057 
L 674.629185 -95.741048 
L 674.360844 -93.711039 
L 674.110062 -91.681031 
L 673.876156 -89.651022 
L 673.658501 -87.621013 
L 673.456518 -85.591004 
z
" id="m9f7e416592" style="stroke:#414141;stroke-width:2;"/>
    </defs>
    <g clip-path="url(#pab6472cf7d)">
     <use style="fill:#e270db;stroke:#414141;stroke-width:2;" x="0" xlink:href="#m9f7e416592" y="391.910113"/>
    </g>
   </g>
   <g id="line2d_1">
    <path clip-path="url(#pab6472cf7d)" d="M 49.9631 240.444161 
L 719.5631 240.444161 
" style="fill:none;stroke:#404040;stroke-dasharray:5.55,2.4;stroke-dashoffset:0;stroke-width:1.5;"/>
   </g>
   <g id="line2d_2">
    <path clip-path="url(#pab6472cf7d)" d="M 97.791671 314.487003 
L 97.791671 193.129013 
" style="fill:none;stroke:#414141;stroke-linecap:round;stroke-width:2;"/>
   </g>
   <g id="line2d_3">
    <path clip-path="url(#pab6472cf7d)" d="M 97.791671 268.402361 
L 97.791671 236.164901 
" style="fill:none;stroke:#414141;stroke-linecap:round;stroke-width:6;"/>
   </g>
   <g id="line2d_4">
    <path clip-path="url(#pab6472cf7d)" d="M 193.448814 267.78517 
L 193.448814 164.224815 
" style="fill:none;stroke:#414141;stroke-linecap:round;stroke-width:2;"/>
   </g>
   <g id="line2d_5">
    <path clip-path="url(#pab6472cf7d)" d="M 193.448814 240.930641 
L 193.448814 202.233113 
" style="fill:none;stroke:#414141;stroke-linecap:round;stroke-width:6;"/>
   </g>
   <g id="line2d_6">
    <path clip-path="url(#pab6472cf7d)" d="M 289.105957 254.498155 
L 289.105957 203.13724 
" style="fill:none;stroke:#414141;stroke-linecap:round;stroke-width:2;"/>
   </g>
   <g id="line2d_7">
    <path clip-path="url(#pab6472cf7d)" d="M 289.105957 230.295329 
L 289.105957 213.467832 
" style="fill:none;stroke:#414141;stroke-linecap:round;stroke-width:6;"/>
   </g>
   <g id="line2d_8">
    <path clip-path="url(#pab6472cf7d)" d="M 384.7631 276.190655 
L 384.7631 171.772184 
" style="fill:none;stroke:#414141;stroke-linecap:round;stroke-width:2;"/>
   </g>
   <g id="line2d_9">
    <path clip-path="url(#pab6472cf7d)" d="M 384.7631 251.025222 
L 384.7631 204.085878 
" style="fill:none;stroke:#414141;stroke-linecap:round;stroke-width:6;"/>
   </g>
   <g id="line2d_10">
    <path clip-path="url(#pab6472cf7d)" d="M 480.420243 270.660058 
L 480.420243 185.79217 
" style="fill:none;stroke:#414141;stroke-linecap:round;stroke-width:2;"/>
   </g>
   <g id="line2d_11">
    <path clip-path="url(#pab6472cf7d)" d="M 480.420243 250.824365 
L 480.420243 220.990292 
" style="fill:none;stroke:#414141;stroke-linecap:round;stroke-width:6;"/>
   </g>
   <g id="line2d_12">
    <path clip-path="url(#pab6472cf7d)" d="M 576.077386 266.791132 
L 576.077386 199.55928 
" style="fill:none;stroke:#414141;stroke-linecap:round;stroke-width:2;"/>
   </g>
   <g id="line2d_13">
    <path clip-path="url(#pab6472cf7d)" d="M 576.077386 240.023327 
L 576.077386 221.523245 
" style="fill:none;stroke:#414141;stroke-linecap:round;stroke-width:6;"/>
   </g>
   <g id="line2d_14">
    <path clip-path="url(#pab6472cf7d)" d="M 671.734529 281.584772 
L 671.734529 130.082582 
" style="fill:none;stroke:#414141;stroke-linecap:round;stroke-width:2;"/>
   </g>
   <g id="line2d_15">
    <path clip-path="url(#pab6472cf7d)" d="M 671.734529 236.69129 
L 671.734529 193.682633 
" style="fill:none;stroke:#414141;stroke-linecap:round;stroke-width:6;"/>
   </g>
   <g id="patch_3">
    <path d="M 49.9631 368.071988 
L 49.9631 41.911988 
" style="fill:none;stroke:#262626;stroke-linecap:square;stroke-linejoin:miter;stroke-width:1.25;"/>
   </g>
   <g id="patch_4">
    <path d="M 719.5631 368.071988 
L 719.5631 41.911988 
" style="fill:none;stroke:#262626;stroke-linecap:square;stroke-linejoin:miter;stroke-width:1.25;"/>
   </g>
   <g id="patch_5">
    <path d="M 49.9631 368.071988 
L 719.5631 368.071988 
" style="fill:none;stroke:#262626;stroke-linecap:square;stroke-linejoin:miter;stroke-width:1.25;"/>
   </g>
   <g id="patch_6">
    <path d="M 49.9631 41.911988 
L 719.5631 41.911988 
" style="fill:none;stroke:#262626;stroke-linecap:square;stroke-linejoin:miter;stroke-width:1.25;"/>
   </g>
   <g id="PathCollection_1">
    <defs>
     <path d="M 0 2 
C 0.530406 2 1.03916 1.789267 1.414214 1.414214 
C 1.789267 1.03916 2 0.530406 2 0 
C 2 -0.530406 1.789267 -1.03916 1.414214 -1.414214 
C 1.03916 -1.789267 0.530406 -2 0 -2 
C -0.530406 -2 -1.03916 -1.789267 -1.414214 -1.414214 
C -1.789267 -1.03916 -2 -0.530406 -2 0 
C -2 0.530406 -1.789267 1.03916 -1.414214 1.414214 
C -1.03916 1.789267 -0.530406 2 0 2 
z
" id="m8e0051f208" style="stroke:#414141;"/>
    </defs>
    <g clip-path="url(#pab6472cf7d)">
     <use style="fill:#ffffff;stroke:#414141;" x="97.791671" xlink:href="#m8e0051f208" y="253.93249"/>
    </g>
   </g>
   <g id="PathCollection_2">
    <g clip-path="url(#pab6472cf7d)">
     <use style="fill:#ffffff;stroke:#414141;" x="193.448814" xlink:href="#m8e0051f208" y="221.546828"/>
    </g>
   </g>
   <g id="PathCollection_3">
    <g clip-path="url(#pab6472cf7d)">
     <use style="fill:#ffffff;stroke:#414141;" x="289.105957" xlink:href="#m8e0051f208" y="220.033018"/>
    </g>
   </g>
   <g id="PathCollection_4">
    <g clip-path="url(#pab6472cf7d)">
     <use style="fill:#ffffff;stroke:#414141;" x="384.7631" xlink:href="#m8e0051f208" y="230.519156"/>
    </g>
   </g>
   <g id="PathCollection_5">
    <g clip-path="url(#pab6472cf7d)">
     <use style="fill:#ffffff;stroke:#414141;" x="480.420243" xlink:href="#m8e0051f208" y="230.974538"/>
    </g>
   </g>
   <g id="PathCollection_6">
    <g clip-path="url(#pab6472cf7d)">
     <use style="fill:#ffffff;stroke:#414141;" x="576.077386" xlink:href="#m8e0051f208" y="230.470952"/>
    </g>
   </g>
   <g id="PathCollection_7">
    <g clip-path="url(#pab6472cf7d)">
     <use style="fill:#ffffff;stroke:#414141;" x="671.734529" xlink:href="#m8e0051f208" y="220.39508"/>
    </g>
   </g>
   <g id="text_15">
    <!-- Crashes after the start of DST in California (20012016) -->
    <defs>
     <path d="M 6.390625 0 
L 6.390625 71.578125 
L 15.1875 71.578125 
L 15.1875 0 
z
" id="ArialMT-108"/>
     <path d="M -0.203125 22.359375 
L -0.203125 29.4375 
L 55.421875 29.4375 
L 55.421875 22.359375 
z
" id="ArialMT-8211"/>
    </defs>
    <g style="fill:#262626;" transform="translate(62.742944 26.127187)scale(0.26 -0.26)">
     <use xlink:href="#ArialMT-67"/>
     <use x="72.216797" xlink:href="#ArialMT-114"/>
     <use x="105.517578" xlink:href="#ArialMT-97"/>
     <use x="161.132812" xlink:href="#ArialMT-115"/>
     <use x="211.132812" xlink:href="#ArialMT-104"/>
     <use x="266.748047" xlink:href="#ArialMT-101"/>
     <use x="322.363281" xlink:href="#ArialMT-115"/>
     <use x="372.363281" xlink:href="#ArialMT-32"/>
     <use x="400.146484" xlink:href="#ArialMT-97"/>
     <use x="455.761719" xlink:href="#ArialMT-102"/>
     <use x="483.544922" xlink:href="#ArialMT-116"/>
     <use x="511.328125" xlink:href="#ArialMT-101"/>
     <use x="566.943359" xlink:href="#ArialMT-114"/>
     <use x="600.244141" xlink:href="#ArialMT-32"/>
     <use x="628.027344" xlink:href="#ArialMT-116"/>
     <use x="655.810547" xlink:href="#ArialMT-104"/>
     <use x="711.425781" xlink:href="#ArialMT-101"/>
     <use x="767.041016" xlink:href="#ArialMT-32"/>
     <use x="794.824219" xlink:href="#ArialMT-115"/>
     <use x="844.824219" xlink:href="#ArialMT-116"/>
     <use x="872.607422" xlink:href="#ArialMT-97"/>
     <use x="928.222656" xlink:href="#ArialMT-114"/>
     <use x="961.523438" xlink:href="#ArialMT-116"/>
     <use x="989.306641" xlink:href="#ArialMT-32"/>
     <use x="1017.089844" xlink:href="#ArialMT-111"/>
     <use x="1072.705078" xlink:href="#ArialMT-102"/>
     <use x="1100.488281" xlink:href="#ArialMT-32"/>
     <use x="1128.271484" xlink:href="#ArialMT-68"/>
     <use x="1200.488281" xlink:href="#ArialMT-83"/>
     <use x="1267.1875" xlink:href="#ArialMT-84"/>
     <use x="1326.521484" xlink:href="#ArialMT-32"/>
     <use x="1354.304688" xlink:href="#ArialMT-105"/>
     <use x="1376.521484" xlink:href="#ArialMT-110"/>
     <use x="1432.136719" xlink:href="#ArialMT-32"/>
     <use x="1459.919922" xlink:href="#ArialMT-67"/>
     <use x="1532.136719" xlink:href="#ArialMT-97"/>
     <use x="1587.751953" xlink:href="#ArialMT-108"/>
     <use x="1609.96875" xlink:href="#ArialMT-105"/>
     <use x="1632.185547" xlink:href="#ArialMT-102"/>
     <use x="1659.96875" xlink:href="#ArialMT-111"/>
     <use x="1715.583984" xlink:href="#ArialMT-114"/>
     <use x="1748.884766" xlink:href="#ArialMT-110"/>
     <use x="1804.5" xlink:href="#ArialMT-105"/>
     <use x="1826.716797" xlink:href="#ArialMT-97"/>
     <use x="1882.332031" xlink:href="#ArialMT-32"/>
     <use x="1910.115234" xlink:href="#ArialMT-40"/>
     <use x="1943.416016" xlink:href="#ArialMT-50"/>
     <use x="1999.03125" xlink:href="#ArialMT-48"/>
     <use x="2054.646484" xlink:href="#ArialMT-48"/>
     <use x="2110.261719" xlink:href="#ArialMT-49"/>
     <use x="2165.876953" xlink:href="#ArialMT-8211"/>
     <use x="2221.492188" xlink:href="#ArialMT-50"/>
     <use x="2277.107422" xlink:href="#ArialMT-48"/>
     <use x="2332.722656" xlink:href="#ArialMT-49"/>
     <use x="2388.337891" xlink:href="#ArialMT-54"/>
     <use x="2443.953125" xlink:href="#ArialMT-41"/>
    </g>
   </g>
  </g>
 </g>
 <defs>
  <clipPath id="pab6472cf7d">
   <rect height="326.16" width="669.6" x="49.9631" y="41.911988"/>
  </clipPath>
 </defs>
</svg>
