<?xml version="1.0" encoding="utf-8" standalone="no"?>
<!DOCTYPE svg PUBLIC "-//W3C//DTD SVG 1.1//EN"
  "http://www.w3.org/Graphics/SVG/1.1/DTD/svg11.dtd">
<!-- Created with matplotlib (http://matplotlib.org/) -->
<svg height="391.910113pt" version="1.1" viewBox="0 0 726.7631 391.910113" width="726.7631pt" xmlns="http://www.w3.org/2000/svg" xmlns:xlink="http://www.w3.org/1999/xlink">
 <defs>
  <style type="text/css">
*{stroke-linecap:butt;stroke-linejoin:round;}
  </style>
 </defs>
 <g id="figure_1">
  <g id="patch_1">
   <path d="M 0 391.910113 
L 726.7631 391.910113 
L 726.7631 0 
L 0 0 
z
" style="fill:#ffffff;"/>
  </g>
  <g id="axes_1">
   <g id="patch_2">
    <path d="M 49.9631 368.071988 
L 719.5631 368.071988 
L 719.5631 41.911988 
L 49.9631 41.911988 
z
" style="fill:#ffffff;"/>
   </g>
   <g id="matplotlib.axis_1">
    <g id="xtick_1">
     <g id="text_1">
      <!-- Sunday (DST) -->
      <defs>
       <path d="M 4.5 23 
L 13.421875 23.78125 
Q 14.0625 18.40625 16.375 14.96875 
Q 18.703125 11.53125 23.578125 9.40625 
Q 28.46875 7.28125 34.578125 7.28125 
Q 39.984375 7.28125 44.140625 8.890625 
Q 48.296875 10.5 50.3125 13.296875 
Q 52.34375 16.109375 52.34375 19.4375 
Q 52.34375 22.796875 50.390625 25.3125 
Q 48.4375 27.828125 43.953125 29.546875 
Q 41.0625 30.671875 31.203125 33.03125 
Q 21.34375 35.40625 17.390625 37.5 
Q 12.25 40.1875 9.734375 44.15625 
Q 7.234375 48.140625 7.234375 53.078125 
Q 7.234375 58.5 10.296875 63.203125 
Q 13.375 67.921875 19.28125 70.359375 
Q 25.203125 72.796875 32.421875 72.796875 
Q 40.375 72.796875 46.453125 70.234375 
Q 52.546875 67.671875 55.8125 62.6875 
Q 59.078125 57.71875 59.328125 51.421875 
L 50.25 50.734375 
Q 49.515625 57.515625 45.28125 60.984375 
Q 41.0625 64.453125 32.8125 64.453125 
Q 24.21875 64.453125 20.28125 61.296875 
Q 16.359375 58.15625 16.359375 53.71875 
Q 16.359375 49.859375 19.140625 47.359375 
Q 21.875 44.875 33.421875 42.265625 
Q 44.96875 39.65625 49.265625 37.703125 
Q 55.515625 34.8125 58.484375 30.390625 
Q 61.46875 25.984375 61.46875 20.21875 
Q 61.46875 14.5 58.203125 9.4375 
Q 54.9375 4.390625 48.796875 1.578125 
Q 42.671875 -1.21875 35.015625 -1.21875 
Q 25.296875 -1.21875 18.71875 1.609375 
Q 12.15625 4.4375 8.421875 10.125 
Q 4.6875 15.828125 4.5 23 
z
" id="ArialMT-53"/>
       <path d="M 40.578125 0 
L 40.578125 7.625 
Q 34.515625 -1.171875 24.125 -1.171875 
Q 19.53125 -1.171875 15.546875 0.578125 
Q 11.578125 2.34375 9.640625 5 
Q 7.71875 7.671875 6.9375 11.53125 
Q 6.390625 14.109375 6.390625 19.734375 
L 6.390625 51.859375 
L 15.1875 51.859375 
L 15.1875 23.09375 
Q 15.1875 16.21875 15.71875 13.8125 
Q 16.546875 10.359375 19.234375 8.375 
Q 21.921875 6.390625 25.875 6.390625 
Q 29.828125 6.390625 33.296875 8.421875 
Q 36.765625 10.453125 38.203125 13.9375 
Q 39.65625 17.4375 39.65625 24.078125 
L 39.65625 51.859375 
L 48.4375 51.859375 
L 48.4375 0 
z
" id="ArialMT-75"/>
       <path d="M 6.59375 0 
L 6.59375 51.859375 
L 14.5 51.859375 
L 14.5 44.484375 
Q 20.21875 53.03125 31 53.03125 
Q 35.6875 53.03125 39.625 51.34375 
Q 43.5625 49.65625 45.515625 46.921875 
Q 47.46875 44.1875 48.25 40.4375 
Q 48.734375 37.984375 48.734375 31.890625 
L 48.734375 0 
L 39.9375 0 
L 39.9375 31.546875 
Q 39.9375 36.921875 38.90625 39.578125 
Q 37.890625 42.234375 35.28125 43.8125 
Q 32.671875 45.40625 29.15625 45.40625 
Q 23.53125 45.40625 19.453125 41.84375 
Q 15.375 38.28125 15.375 28.328125 
L 15.375 0 
z
" id="ArialMT-6e"/>
       <path d="M 40.234375 0 
L 40.234375 6.546875 
Q 35.296875 -1.171875 25.734375 -1.171875 
Q 19.53125 -1.171875 14.328125 2.25 
Q 9.125 5.671875 6.265625 11.796875 
Q 3.421875 17.921875 3.421875 25.875 
Q 3.421875 33.640625 6 39.96875 
Q 8.59375 46.296875 13.765625 49.65625 
Q 18.953125 53.03125 25.34375 53.03125 
Q 30.03125 53.03125 33.6875 51.046875 
Q 37.359375 49.078125 39.65625 45.90625 
L 39.65625 71.578125 
L 48.390625 71.578125 
L 48.390625 0 
z
M 12.453125 25.875 
Q 12.453125 15.921875 16.640625 10.984375 
Q 20.84375 6.0625 26.5625 6.0625 
Q 32.328125 6.0625 36.34375 10.765625 
Q 40.375 15.484375 40.375 25.140625 
Q 40.375 35.796875 36.265625 40.765625 
Q 32.171875 45.75 26.171875 45.75 
Q 20.3125 45.75 16.375 40.96875 
Q 12.453125 36.1875 12.453125 25.875 
z
" id="ArialMT-64"/>
       <path d="M 40.4375 6.390625 
Q 35.546875 2.25 31.03125 0.53125 
Q 26.515625 -1.171875 21.34375 -1.171875 
Q 12.796875 -1.171875 8.203125 3 
Q 3.609375 7.171875 3.609375 13.671875 
Q 3.609375 17.484375 5.34375 20.625 
Q 7.078125 23.78125 9.890625 25.6875 
Q 12.703125 27.59375 16.21875 28.5625 
Q 18.796875 29.25 24.03125 29.890625 
Q 34.671875 31.15625 39.703125 32.90625 
Q 39.75 34.71875 39.75 35.203125 
Q 39.75 40.578125 37.25 42.78125 
Q 33.890625 45.75 27.25 45.75 
Q 21.046875 45.75 18.09375 43.578125 
Q 15.140625 41.40625 13.71875 35.890625 
L 5.125 37.0625 
Q 6.296875 42.578125 8.984375 45.96875 
Q 11.671875 49.359375 16.75 51.1875 
Q 21.828125 53.03125 28.515625 53.03125 
Q 35.15625 53.03125 39.296875 51.46875 
Q 43.453125 49.90625 45.40625 47.53125 
Q 47.359375 45.171875 48.140625 41.546875 
Q 48.578125 39.3125 48.578125 33.453125 
L 48.578125 21.734375 
Q 48.578125 9.46875 49.140625 6.21875 
Q 49.703125 2.984375 51.375 0 
L 42.1875 0 
Q 40.828125 2.734375 40.4375 6.390625 
z
M 39.703125 26.03125 
Q 34.90625 24.078125 25.34375 22.703125 
Q 19.921875 21.921875 17.671875 20.9375 
Q 15.4375 19.96875 14.203125 18.09375 
Q 12.984375 16.21875 12.984375 13.921875 
Q 12.984375 10.40625 15.640625 8.0625 
Q 18.3125 5.71875 23.4375 5.71875 
Q 28.515625 5.71875 32.46875 7.9375 
Q 36.421875 10.15625 38.28125 14.015625 
Q 39.703125 17 39.703125 22.796875 
z
" id="ArialMT-61"/>
       <path d="M 6.203125 -19.96875 
L 5.21875 -11.71875 
Q 8.109375 -12.5 10.25 -12.5 
Q 13.1875 -12.5 14.9375 -11.515625 
Q 16.703125 -10.546875 17.828125 -8.796875 
Q 18.65625 -7.46875 20.515625 -2.25 
Q 20.75 -1.515625 21.296875 -0.09375 
L 1.609375 51.859375 
L 11.078125 51.859375 
L 21.875 21.828125 
Q 23.96875 16.109375 25.640625 9.8125 
Q 27.15625 15.875 29.25 21.625 
L 40.328125 51.859375 
L 49.125 51.859375 
L 29.390625 -0.875 
Q 26.21875 -9.421875 24.46875 -12.640625 
Q 22.125 -17 19.09375 -19.015625 
Q 16.0625 -21.046875 11.859375 -21.046875 
Q 9.328125 -21.046875 6.203125 -19.96875 
z
" id="ArialMT-79"/>
       <path id="ArialMT-20"/>
       <path d="M 23.390625 -21.046875 
Q 16.109375 -11.859375 11.078125 0.4375 
Q 6.0625 12.75 6.0625 25.921875 
Q 6.0625 37.546875 9.8125 48.1875 
Q 14.203125 60.546875 23.390625 72.796875 
L 29.6875 72.796875 
Q 23.78125 62.640625 21.875 58.296875 
Q 18.890625 51.5625 17.1875 44.234375 
Q 15.09375 35.109375 15.09375 25.875 
Q 15.09375 2.390625 29.6875 -21.046875 
z
" id="ArialMT-28"/>
       <path d="M 7.71875 0 
L 7.71875 71.578125 
L 32.375 71.578125 
Q 40.71875 71.578125 45.125 70.5625 
Q 51.265625 69.140625 55.609375 65.4375 
Q 61.28125 60.640625 64.078125 53.1875 
Q 66.890625 45.75 66.890625 36.1875 
Q 66.890625 28.03125 64.984375 21.734375 
Q 63.09375 15.4375 60.109375 11.296875 
Q 57.125 7.171875 53.578125 4.796875 
Q 50.046875 2.4375 45.046875 1.21875 
Q 40.046875 0 33.546875 0 
z
M 17.1875 8.453125 
L 32.46875 8.453125 
Q 39.546875 8.453125 43.578125 9.765625 
Q 47.609375 11.078125 50 13.484375 
Q 53.375 16.84375 55.25 22.53125 
Q 57.125 28.21875 57.125 36.328125 
Q 57.125 47.5625 53.4375 53.59375 
Q 49.75 59.625 44.484375 61.671875 
Q 40.671875 63.140625 32.234375 63.140625 
L 17.1875 63.140625 
z
" id="ArialMT-44"/>
       <path d="M 25.921875 0 
L 25.921875 63.140625 
L 2.34375 63.140625 
L 2.34375 71.578125 
L 59.078125 71.578125 
L 59.078125 63.140625 
L 35.40625 63.140625 
L 35.40625 0 
z
" id="ArialMT-54"/>
       <path d="M 12.359375 -21.046875 
L 6.0625 -21.046875 
Q 20.65625 2.390625 20.65625 25.875 
Q 20.65625 35.0625 18.5625 44.09375 
Q 16.890625 51.421875 13.921875 58.15625 
Q 12.015625 62.546875 6.0625 72.796875 
L 12.359375 72.796875 
Q 21.53125 60.546875 25.921875 48.1875 
Q 29.6875 37.546875 29.6875 25.921875 
Q 29.6875 12.75 24.625 0.4375 
Q 19.578125 -11.859375 12.359375 -21.046875 
z
" id="ArialMT-29"/>
      </defs>
      <g style="fill:#262626;" transform="translate(53.445578 381.76355)scale(0.14 -0.14)">
       <use xlink:href="#ArialMT-53"/>
       <use x="66.699219" xlink:href="#ArialMT-75"/>
       <use x="122.314453" xlink:href="#ArialMT-6e"/>
       <use x="177.929688" xlink:href="#ArialMT-64"/>
       <use x="233.544922" xlink:href="#ArialMT-61"/>
       <use x="289.160156" xlink:href="#ArialMT-79"/>
       <use x="339.160156" xlink:href="#ArialMT-20"/>
       <use x="366.943359" xlink:href="#ArialMT-28"/>
       <use x="400.244141" xlink:href="#ArialMT-44"/>
       <use x="472.460938" xlink:href="#ArialMT-53"/>
       <use x="539.160156" xlink:href="#ArialMT-54"/>
       <use x="600.244141" xlink:href="#ArialMT-29"/>
      </g>
     </g>
    </g>
    <g id="xtick_2">
     <g id="text_2">
      <!-- Monday -->
      <defs>
       <path d="M 7.421875 0 
L 7.421875 71.578125 
L 21.6875 71.578125 
L 38.625 20.90625 
Q 40.96875 13.8125 42.046875 10.296875 
Q 43.265625 14.203125 45.84375 21.78125 
L 62.984375 71.578125 
L 75.734375 71.578125 
L 75.734375 0 
L 66.609375 0 
L 66.609375 59.90625 
L 45.796875 0 
L 37.25 0 
L 16.546875 60.9375 
L 16.546875 0 
z
" id="ArialMT-4d"/>
       <path d="M 3.328125 25.921875 
Q 3.328125 40.328125 11.328125 47.265625 
Q 18.015625 53.03125 27.640625 53.03125 
Q 38.328125 53.03125 45.109375 46.015625 
Q 51.90625 39.015625 51.90625 26.65625 
Q 51.90625 16.65625 48.90625 10.90625 
Q 45.90625 5.171875 40.15625 2 
Q 34.421875 -1.171875 27.640625 -1.171875 
Q 16.75 -1.171875 10.03125 5.8125 
Q 3.328125 12.796875 3.328125 25.921875 
z
M 12.359375 25.921875 
Q 12.359375 15.96875 16.703125 11.015625 
Q 21.046875 6.0625 27.640625 6.0625 
Q 34.1875 6.0625 38.53125 11.03125 
Q 42.875 16.015625 42.875 26.21875 
Q 42.875 35.84375 38.5 40.796875 
Q 34.125 45.75 27.640625 45.75 
Q 21.046875 45.75 16.703125 40.8125 
Q 12.359375 35.890625 12.359375 25.921875 
z
" id="ArialMT-6f"/>
      </defs>
      <g style="fill:#262626;" transform="translate(168.547408 381.592925)scale(0.14 -0.14)">
       <use xlink:href="#ArialMT-4d"/>
       <use x="83.300781" xlink:href="#ArialMT-6f"/>
       <use x="138.916016" xlink:href="#ArialMT-6e"/>
       <use x="194.53125" xlink:href="#ArialMT-64"/>
       <use x="250.146484" xlink:href="#ArialMT-61"/>
       <use x="305.761719" xlink:href="#ArialMT-79"/>
      </g>
     </g>
    </g>
    <g id="xtick_3">
     <g id="text_3">
      <!-- Tuesday -->
      <defs>
       <path d="M 42.09375 16.703125 
L 51.171875 15.578125 
Q 49.03125 7.625 43.21875 3.21875 
Q 37.40625 -1.171875 28.375 -1.171875 
Q 17 -1.171875 10.328125 5.828125 
Q 3.65625 12.84375 3.65625 25.484375 
Q 3.65625 38.578125 10.390625 45.796875 
Q 17.140625 53.03125 27.875 53.03125 
Q 38.28125 53.03125 44.875 45.953125 
Q 51.46875 38.875 51.46875 26.03125 
Q 51.46875 25.25 51.421875 23.6875 
L 12.75 23.6875 
Q 13.234375 15.140625 17.578125 10.59375 
Q 21.921875 6.0625 28.421875 6.0625 
Q 33.25 6.0625 36.671875 8.59375 
Q 40.09375 11.140625 42.09375 16.703125 
z
M 13.234375 30.90625 
L 42.1875 30.90625 
Q 41.609375 37.453125 38.875 40.71875 
Q 34.671875 45.796875 27.984375 45.796875 
Q 21.921875 45.796875 17.796875 41.75 
Q 13.671875 37.703125 13.234375 30.90625 
z
" id="ArialMT-65"/>
       <path d="M 3.078125 15.484375 
L 11.765625 16.84375 
Q 12.5 11.625 15.84375 8.84375 
Q 19.1875 6.0625 25.203125 6.0625 
Q 31.25 6.0625 34.171875 8.515625 
Q 37.109375 10.984375 37.109375 14.3125 
Q 37.109375 17.28125 34.515625 19 
Q 32.71875 20.171875 25.53125 21.96875 
Q 15.875 24.421875 12.140625 26.203125 
Q 8.40625 27.984375 6.46875 31.125 
Q 4.546875 34.28125 4.546875 38.09375 
Q 4.546875 41.546875 6.125 44.5 
Q 7.71875 47.46875 10.453125 49.421875 
Q 12.5 50.921875 16.03125 51.96875 
Q 19.578125 53.03125 23.640625 53.03125 
Q 29.734375 53.03125 34.34375 51.265625 
Q 38.96875 49.515625 41.15625 46.5 
Q 43.359375 43.5 44.1875 38.484375 
L 35.59375 37.3125 
Q 35.015625 41.3125 32.203125 43.546875 
Q 29.390625 45.796875 24.265625 45.796875 
Q 18.21875 45.796875 15.625 43.796875 
Q 13.03125 41.796875 13.03125 39.109375 
Q 13.03125 37.40625 14.109375 36.03125 
Q 15.1875 34.625 17.484375 33.6875 
Q 18.796875 33.203125 25.25 31.453125 
Q 34.578125 28.953125 38.25 27.359375 
Q 41.9375 25.78125 44.03125 22.75 
Q 46.140625 19.734375 46.140625 15.234375 
Q 46.140625 10.84375 43.578125 6.953125 
Q 41.015625 3.078125 36.171875 0.953125 
Q 31.34375 -1.171875 25.25 -1.171875 
Q 15.140625 -1.171875 9.84375 3.03125 
Q 4.546875 7.234375 3.078125 15.484375 
z
" id="ArialMT-73"/>
      </defs>
      <g style="fill:#262626;" transform="translate(262.263145 381.592925)scale(0.14 -0.14)">
       <use xlink:href="#ArialMT-54"/>
       <use x="61.037109" xlink:href="#ArialMT-75"/>
       <use x="116.652344" xlink:href="#ArialMT-65"/>
       <use x="172.267578" xlink:href="#ArialMT-73"/>
       <use x="222.267578" xlink:href="#ArialMT-64"/>
       <use x="277.882812" xlink:href="#ArialMT-61"/>
       <use x="333.498047" xlink:href="#ArialMT-79"/>
      </g>
     </g>
    </g>
    <g id="xtick_4">
     <g id="text_4">
      <!-- Wednesday -->
      <defs>
       <path d="M 20.21875 0 
L 1.21875 71.578125 
L 10.9375 71.578125 
L 21.828125 24.65625 
Q 23.578125 17.28125 24.859375 10.015625 
Q 27.59375 21.484375 28.078125 23.25 
L 41.703125 71.578125 
L 53.125 71.578125 
L 63.375 35.359375 
Q 67.234375 21.875 68.953125 10.015625 
Q 70.3125 16.796875 72.515625 25.59375 
L 83.734375 71.578125 
L 93.265625 71.578125 
L 73.640625 0 
L 64.5 0 
L 49.421875 54.546875 
Q 47.515625 61.375 47.171875 62.9375 
Q 46.046875 58.015625 45.0625 54.546875 
L 29.890625 0 
z
" id="ArialMT-57"/>
      </defs>
      <g style="fill:#262626;" transform="translate(347.800912 381.592925)scale(0.14 -0.14)">
       <use xlink:href="#ArialMT-57"/>
       <use x="94.369141" xlink:href="#ArialMT-65"/>
       <use x="149.984375" xlink:href="#ArialMT-64"/>
       <use x="205.599609" xlink:href="#ArialMT-6e"/>
       <use x="261.214844" xlink:href="#ArialMT-65"/>
       <use x="316.830078" xlink:href="#ArialMT-73"/>
       <use x="366.830078" xlink:href="#ArialMT-64"/>
       <use x="422.445312" xlink:href="#ArialMT-61"/>
       <use x="478.060547" xlink:href="#ArialMT-79"/>
      </g>
     </g>
    </g>
    <g id="xtick_5">
     <g id="text_5">
      <!-- Thursday -->
      <defs>
       <path d="M 6.59375 0 
L 6.59375 71.578125 
L 15.375 71.578125 
L 15.375 45.90625 
Q 21.53125 53.03125 30.90625 53.03125 
Q 36.671875 53.03125 40.921875 50.75 
Q 45.171875 48.484375 47 44.484375 
Q 48.828125 40.484375 48.828125 32.859375 
L 48.828125 0 
L 40.046875 0 
L 40.046875 32.859375 
Q 40.046875 39.453125 37.1875 42.453125 
Q 34.328125 45.453125 29.109375 45.453125 
Q 25.203125 45.453125 21.75 43.421875 
Q 18.3125 41.40625 16.84375 37.9375 
Q 15.375 34.46875 15.375 28.375 
L 15.375 0 
z
" id="ArialMT-68"/>
       <path d="M 6.5 0 
L 6.5 51.859375 
L 14.40625 51.859375 
L 14.40625 44 
Q 17.4375 49.515625 20 51.265625 
Q 22.5625 53.03125 25.640625 53.03125 
Q 30.078125 53.03125 34.671875 50.203125 
L 31.640625 42.046875 
Q 28.421875 43.953125 25.203125 43.953125 
Q 22.3125 43.953125 20.015625 42.21875 
Q 17.71875 40.484375 16.75 37.40625 
Q 15.28125 32.71875 15.28125 27.15625 
L 15.28125 0 
z
" id="ArialMT-72"/>
      </defs>
      <g style="fill:#262626;" transform="translate(451.243368 381.592925)scale(0.14 -0.14)">
       <use xlink:href="#ArialMT-54"/>
       <use x="61.083984" xlink:href="#ArialMT-68"/>
       <use x="116.699219" xlink:href="#ArialMT-75"/>
       <use x="172.314453" xlink:href="#ArialMT-72"/>
       <use x="205.615234" xlink:href="#ArialMT-73"/>
       <use x="255.615234" xlink:href="#ArialMT-64"/>
       <use x="311.230469" xlink:href="#ArialMT-61"/>
       <use x="366.845703" xlink:href="#ArialMT-79"/>
      </g>
     </g>
    </g>
    <g id="xtick_6">
     <g id="text_6">
      <!-- Friday -->
      <defs>
       <path d="M 8.203125 0 
L 8.203125 71.578125 
L 56.5 71.578125 
L 56.5 63.140625 
L 17.671875 63.140625 
L 17.671875 40.96875 
L 51.265625 40.96875 
L 51.265625 32.515625 
L 17.671875 32.515625 
L 17.671875 0 
z
" id="ArialMT-46"/>
       <path d="M 6.640625 61.46875 
L 6.640625 71.578125 
L 15.4375 71.578125 
L 15.4375 61.46875 
z
M 6.640625 0 
L 6.640625 51.859375 
L 15.4375 51.859375 
L 15.4375 0 
z
" id="ArialMT-69"/>
      </defs>
      <g style="fill:#262626;" transform="translate(556.630511 381.592925)scale(0.14 -0.14)">
       <use xlink:href="#ArialMT-46"/>
       <use x="61.083984" xlink:href="#ArialMT-72"/>
       <use x="94.384766" xlink:href="#ArialMT-69"/>
       <use x="116.601562" xlink:href="#ArialMT-64"/>
       <use x="172.216797" xlink:href="#ArialMT-61"/>
       <use x="227.832031" xlink:href="#ArialMT-79"/>
      </g>
     </g>
    </g>
    <g id="xtick_7">
     <g id="text_7">
      <!-- Saturday -->
      <defs>
       <path d="M 25.78125 7.859375 
L 27.046875 0.09375 
Q 23.34375 -0.6875 20.40625 -0.6875 
Q 15.625 -0.6875 12.984375 0.828125 
Q 10.359375 2.34375 9.28125 4.8125 
Q 8.203125 7.28125 8.203125 15.1875 
L 8.203125 45.015625 
L 1.765625 45.015625 
L 1.765625 51.859375 
L 8.203125 51.859375 
L 8.203125 64.703125 
L 16.9375 69.96875 
L 16.9375 51.859375 
L 25.78125 51.859375 
L 25.78125 45.015625 
L 16.9375 45.015625 
L 16.9375 14.703125 
Q 16.9375 10.9375 17.40625 9.859375 
Q 17.875 8.796875 18.921875 8.15625 
Q 19.96875 7.515625 21.921875 7.515625 
Q 23.390625 7.515625 25.78125 7.859375 
z
" id="ArialMT-74"/>
      </defs>
      <g style="fill:#262626;" transform="translate(643.719216 381.76355)scale(0.14 -0.14)">
       <use xlink:href="#ArialMT-53"/>
       <use x="66.699219" xlink:href="#ArialMT-61"/>
       <use x="122.314453" xlink:href="#ArialMT-74"/>
       <use x="150.097656" xlink:href="#ArialMT-75"/>
       <use x="205.712891" xlink:href="#ArialMT-72"/>
       <use x="239.013672" xlink:href="#ArialMT-64"/>
       <use x="294.628906" xlink:href="#ArialMT-61"/>
       <use x="350.244141" xlink:href="#ArialMT-79"/>
      </g>
     </g>
    </g>
   </g>
   <g id="matplotlib.axis_2">
    <g id="ytick_1">
     <g id="text_8">
      <!-- 0.6 -->
      <defs>
       <path d="M 4.15625 35.296875 
Q 4.15625 48 6.765625 55.734375 
Q 9.375 63.484375 14.515625 67.671875 
Q 19.671875 71.875 27.484375 71.875 
Q 33.25 71.875 37.59375 69.546875 
Q 41.9375 67.234375 44.765625 62.859375 
Q 47.609375 58.5 49.21875 52.21875 
Q 50.828125 45.953125 50.828125 35.296875 
Q 50.828125 22.703125 48.234375 14.96875 
Q 45.65625 7.234375 40.5 3 
Q 35.359375 -1.21875 27.484375 -1.21875 
Q 17.140625 -1.21875 11.234375 6.203125 
Q 4.15625 15.140625 4.15625 35.296875 
z
M 13.1875 35.296875 
Q 13.1875 17.671875 17.3125 11.828125 
Q 21.4375 6 27.484375 6 
Q 33.546875 6 37.671875 11.859375 
Q 41.796875 17.71875 41.796875 35.296875 
Q 41.796875 52.984375 37.671875 58.78125 
Q 33.546875 64.59375 27.390625 64.59375 
Q 21.34375 64.59375 17.71875 59.46875 
Q 13.1875 52.9375 13.1875 35.296875 
z
" id="ArialMT-30"/>
       <path d="M 9.078125 0 
L 9.078125 10.015625 
L 19.09375 10.015625 
L 19.09375 0 
z
" id="ArialMT-2e"/>
       <path d="M 49.75 54.046875 
L 41.015625 53.375 
Q 39.84375 58.546875 37.703125 60.890625 
Q 34.125 64.65625 28.90625 64.65625 
Q 24.703125 64.65625 21.53125 62.3125 
Q 17.390625 59.28125 14.984375 53.46875 
Q 12.59375 47.65625 12.5 36.921875 
Q 15.671875 41.75 20.265625 44.09375 
Q 24.859375 46.4375 29.890625 46.4375 
Q 38.671875 46.4375 44.84375 39.96875 
Q 51.03125 33.5 51.03125 23.25 
Q 51.03125 16.5 48.125 10.71875 
Q 45.21875 4.9375 40.140625 1.859375 
Q 35.0625 -1.21875 28.609375 -1.21875 
Q 17.625 -1.21875 10.6875 6.859375 
Q 3.765625 14.9375 3.765625 33.5 
Q 3.765625 54.25 11.421875 63.671875 
Q 18.109375 71.875 29.4375 71.875 
Q 37.890625 71.875 43.28125 67.140625 
Q 48.6875 62.40625 49.75 54.046875 
z
M 13.875 23.1875 
Q 13.875 18.65625 15.796875 14.5 
Q 17.71875 10.359375 21.1875 8.171875 
Q 24.65625 6 28.46875 6 
Q 34.03125 6 38.03125 10.484375 
Q 42.046875 14.984375 42.046875 22.703125 
Q 42.046875 30.125 38.078125 34.390625 
Q 34.125 38.671875 28.125 38.671875 
Q 22.171875 38.671875 18.015625 34.390625 
Q 13.875 30.125 13.875 23.1875 
z
" id="ArialMT-36"/>
      </defs>
      <g style="fill:#262626;" transform="translate(27.0031 373.082456)scale(0.14 -0.14)">
       <use xlink:href="#ArialMT-30"/>
       <use x="55.615234" xlink:href="#ArialMT-2e"/>
       <use x="83.398438" xlink:href="#ArialMT-36"/>
      </g>
     </g>
    </g>
    <g id="ytick_2">
     <g id="text_9">
      <!-- 0.8 -->
      <defs>
       <path d="M 17.671875 38.8125 
Q 12.203125 40.828125 9.5625 44.53125 
Q 6.9375 48.25 6.9375 53.421875 
Q 6.9375 61.234375 12.546875 66.546875 
Q 18.171875 71.875 27.484375 71.875 
Q 36.859375 71.875 42.578125 66.421875 
Q 48.296875 60.984375 48.296875 53.171875 
Q 48.296875 48.1875 45.671875 44.5 
Q 43.0625 40.828125 37.75 38.8125 
Q 44.34375 36.671875 47.78125 31.875 
Q 51.21875 27.09375 51.21875 20.453125 
Q 51.21875 11.28125 44.71875 5.03125 
Q 38.234375 -1.21875 27.640625 -1.21875 
Q 17.046875 -1.21875 10.546875 5.046875 
Q 4.046875 11.328125 4.046875 20.703125 
Q 4.046875 27.6875 7.59375 32.390625 
Q 11.140625 37.109375 17.671875 38.8125 
z
M 15.921875 53.71875 
Q 15.921875 48.640625 19.1875 45.40625 
Q 22.46875 42.1875 27.6875 42.1875 
Q 32.765625 42.1875 36.015625 45.375 
Q 39.265625 48.578125 39.265625 53.21875 
Q 39.265625 58.0625 35.90625 61.359375 
Q 32.5625 64.65625 27.59375 64.65625 
Q 22.5625 64.65625 19.234375 61.421875 
Q 15.921875 58.203125 15.921875 53.71875 
z
M 13.09375 20.65625 
Q 13.09375 16.890625 14.875 13.375 
Q 16.65625 9.859375 20.171875 7.921875 
Q 23.6875 6 27.734375 6 
Q 34.03125 6 38.125 10.046875 
Q 42.234375 14.109375 42.234375 20.359375 
Q 42.234375 26.703125 38.015625 30.859375 
Q 33.796875 35.015625 27.4375 35.015625 
Q 21.234375 35.015625 17.15625 30.90625 
Q 13.09375 26.8125 13.09375 20.65625 
z
" id="ArialMT-38"/>
      </defs>
      <g style="fill:#262626;" transform="translate(27.0031 307.850456)scale(0.14 -0.14)">
       <use xlink:href="#ArialMT-30"/>
       <use x="55.615234" xlink:href="#ArialMT-2e"/>
       <use x="83.398438" xlink:href="#ArialMT-38"/>
      </g>
     </g>
    </g>
    <g id="ytick_3">
     <g id="text_10">
      <!-- 1.0 -->
      <defs>
       <path d="M 37.25 0 
L 28.46875 0 
L 28.46875 56 
Q 25.296875 52.984375 20.140625 49.953125 
Q 14.984375 46.921875 10.890625 45.40625 
L 10.890625 53.90625 
Q 18.265625 57.375 23.78125 62.296875 
Q 29.296875 67.234375 31.59375 71.875 
L 37.25 71.875 
z
" id="ArialMT-31"/>
      </defs>
      <g style="fill:#262626;" transform="translate(27.0031 242.618456)scale(0.14 -0.14)">
       <use xlink:href="#ArialMT-31"/>
       <use x="55.615234" xlink:href="#ArialMT-2e"/>
       <use x="83.398438" xlink:href="#ArialMT-30"/>
      </g>
     </g>
    </g>
    <g id="ytick_4">
     <g id="text_11">
      <!-- 1.2 -->
      <defs>
       <path d="M 50.34375 8.453125 
L 50.34375 0 
L 3.03125 0 
Q 2.9375 3.171875 4.046875 6.109375 
Q 5.859375 10.9375 9.828125 15.625 
Q 13.8125 20.3125 21.34375 26.46875 
Q 33.015625 36.03125 37.109375 41.625 
Q 41.21875 47.21875 41.21875 52.203125 
Q 41.21875 57.421875 37.46875 61 
Q 33.734375 64.59375 27.734375 64.59375 
Q 21.390625 64.59375 17.578125 60.78125 
Q 13.765625 56.984375 13.71875 50.25 
L 4.6875 51.171875 
Q 5.609375 61.28125 11.65625 66.578125 
Q 17.71875 71.875 27.9375 71.875 
Q 38.234375 71.875 44.234375 66.15625 
Q 50.25 60.453125 50.25 52 
Q 50.25 47.703125 48.484375 43.546875 
Q 46.734375 39.40625 42.65625 34.8125 
Q 38.578125 30.21875 29.109375 22.21875 
Q 21.1875 15.578125 18.9375 13.203125 
Q 16.703125 10.84375 15.234375 8.453125 
z
" id="ArialMT-32"/>
      </defs>
      <g style="fill:#262626;" transform="translate(27.0031 177.386456)scale(0.14 -0.14)">
       <use xlink:href="#ArialMT-31"/>
       <use x="55.615234" xlink:href="#ArialMT-2e"/>
       <use x="83.398438" xlink:href="#ArialMT-32"/>
      </g>
     </g>
    </g>
    <g id="ytick_5">
     <g id="text_12">
      <!-- 1.4 -->
      <defs>
       <path d="M 32.328125 0 
L 32.328125 17.140625 
L 1.265625 17.140625 
L 1.265625 25.203125 
L 33.9375 71.578125 
L 41.109375 71.578125 
L 41.109375 25.203125 
L 50.78125 25.203125 
L 50.78125 17.140625 
L 41.109375 17.140625 
L 41.109375 0 
z
M 32.328125 25.203125 
L 32.328125 57.46875 
L 9.90625 25.203125 
z
" id="ArialMT-34"/>
      </defs>
      <g style="fill:#262626;" transform="translate(27.0031 112.154456)scale(0.14 -0.14)">
       <use xlink:href="#ArialMT-31"/>
       <use x="55.615234" xlink:href="#ArialMT-2e"/>
       <use x="83.398438" xlink:href="#ArialMT-34"/>
      </g>
     </g>
    </g>
    <g id="ytick_6">
     <g id="text_13">
      <!-- 1.6 -->
      <g style="fill:#262626;" transform="translate(27.0031 46.922456)scale(0.14 -0.14)">
       <use xlink:href="#ArialMT-31"/>
       <use x="55.615234" xlink:href="#ArialMT-2e"/>
       <use x="83.398438" xlink:href="#ArialMT-36"/>
      </g>
     </g>
    </g>
    <g id="text_14">
     <!-- Accident Ratio: DST Week / Week Before -->
     <defs>
      <path d="M -0.140625 0 
L 27.34375 71.578125 
L 37.546875 71.578125 
L 66.84375 0 
L 56.0625 0 
L 47.703125 21.6875 
L 17.78125 21.6875 
L 9.90625 0 
z
M 20.515625 29.390625 
L 44.78125 29.390625 
L 37.3125 49.21875 
Q 33.890625 58.25 32.234375 64.0625 
Q 30.859375 57.171875 28.375 50.390625 
z
" id="ArialMT-41"/>
      <path d="M 40.4375 19 
L 49.078125 17.875 
Q 47.65625 8.9375 41.8125 3.875 
Q 35.984375 -1.171875 27.484375 -1.171875 
Q 16.84375 -1.171875 10.375 5.78125 
Q 3.90625 12.75 3.90625 25.734375 
Q 3.90625 34.125 6.6875 40.421875 
Q 9.46875 46.734375 15.15625 49.875 
Q 20.84375 53.03125 27.546875 53.03125 
Q 35.984375 53.03125 41.359375 48.75 
Q 46.734375 44.484375 48.25 36.625 
L 39.703125 35.296875 
Q 38.484375 40.53125 35.375 43.15625 
Q 32.28125 45.796875 27.875 45.796875 
Q 21.234375 45.796875 17.078125 41.03125 
Q 12.9375 36.28125 12.9375 25.984375 
Q 12.9375 15.53125 16.9375 10.796875 
Q 20.953125 6.0625 27.390625 6.0625 
Q 32.5625 6.0625 36.03125 9.234375 
Q 39.5 12.40625 40.4375 19 
z
" id="ArialMT-63"/>
      <path d="M 7.859375 0 
L 7.859375 71.578125 
L 39.59375 71.578125 
Q 49.171875 71.578125 54.140625 69.640625 
Q 59.125 67.71875 62.109375 62.828125 
Q 65.09375 57.953125 65.09375 52.046875 
Q 65.09375 44.4375 60.15625 39.203125 
Q 55.21875 33.984375 44.921875 32.5625 
Q 48.6875 30.765625 50.640625 29 
Q 54.78125 25.203125 58.5 19.484375 
L 70.953125 0 
L 59.03125 0 
L 49.5625 14.890625 
Q 45.40625 21.34375 42.71875 24.75 
Q 40.046875 28.171875 37.921875 29.53125 
Q 35.796875 30.90625 33.59375 31.453125 
Q 31.984375 31.78125 28.328125 31.78125 
L 17.328125 31.78125 
L 17.328125 0 
z
M 17.328125 39.984375 
L 37.703125 39.984375 
Q 44.1875 39.984375 47.84375 41.328125 
Q 51.515625 42.671875 53.421875 45.625 
Q 55.328125 48.578125 55.328125 52.046875 
Q 55.328125 57.125 51.640625 60.390625 
Q 47.953125 63.671875 39.984375 63.671875 
L 17.328125 63.671875 
z
" id="ArialMT-52"/>
      <path d="M 9.03125 41.84375 
L 9.03125 51.859375 
L 19.046875 51.859375 
L 19.046875 41.84375 
z
M 9.03125 0 
L 9.03125 10.015625 
L 19.046875 10.015625 
L 19.046875 0 
z
" id="ArialMT-3a"/>
      <path d="M 6.640625 0 
L 6.640625 71.578125 
L 15.4375 71.578125 
L 15.4375 30.765625 
L 36.234375 51.859375 
L 47.609375 51.859375 
L 27.78125 32.625 
L 49.609375 0 
L 38.765625 0 
L 21.625 26.515625 
L 15.4375 20.5625 
L 15.4375 0 
z
" id="ArialMT-6b"/>
      <path d="M 0 -1.21875 
L 20.75 72.796875 
L 27.78125 72.796875 
L 7.078125 -1.21875 
z
" id="ArialMT-2f"/>
      <path d="M 7.328125 0 
L 7.328125 71.578125 
L 34.1875 71.578125 
Q 42.390625 71.578125 47.34375 69.40625 
Q 52.296875 67.234375 55.09375 62.71875 
Q 57.90625 58.203125 57.90625 53.265625 
Q 57.90625 48.6875 55.421875 44.625 
Q 52.9375 40.578125 47.90625 38.09375 
Q 54.390625 36.1875 57.875 31.59375 
Q 61.375 27 61.375 20.75 
Q 61.375 15.71875 59.25 11.390625 
Q 57.125 7.078125 54 4.734375 
Q 50.875 2.390625 46.15625 1.1875 
Q 41.453125 0 34.625 0 
z
M 16.796875 41.5 
L 32.28125 41.5 
Q 38.578125 41.5 41.3125 42.328125 
Q 44.921875 43.40625 46.75 45.890625 
Q 48.578125 48.390625 48.578125 52.15625 
Q 48.578125 55.71875 46.875 58.421875 
Q 45.171875 61.140625 41.984375 62.140625 
Q 38.8125 63.140625 31.109375 63.140625 
L 16.796875 63.140625 
z
M 16.796875 8.453125 
L 34.625 8.453125 
Q 39.203125 8.453125 41.0625 8.796875 
Q 44.34375 9.375 46.53125 10.734375 
Q 48.734375 12.109375 50.140625 14.71875 
Q 51.5625 17.328125 51.5625 20.75 
Q 51.5625 24.75 49.515625 27.703125 
Q 47.46875 30.671875 43.828125 31.859375 
Q 40.1875 33.0625 33.34375 33.0625 
L 16.796875 33.0625 
z
" id="ArialMT-42"/>
      <path d="M 8.6875 0 
L 8.6875 45.015625 
L 0.921875 45.015625 
L 0.921875 51.859375 
L 8.6875 51.859375 
L 8.6875 57.375 
Q 8.6875 62.59375 9.625 65.140625 
Q 10.890625 68.5625 14.078125 70.671875 
Q 17.28125 72.796875 23.046875 72.796875 
Q 26.765625 72.796875 31.25 71.921875 
L 29.9375 64.265625 
Q 27.203125 64.75 24.75 64.75 
Q 20.75 64.75 19.09375 63.03125 
Q 17.4375 61.328125 17.4375 56.640625 
L 17.4375 51.859375 
L 27.546875 51.859375 
L 27.546875 45.015625 
L 17.4375 45.015625 
L 17.4375 0 
z
" id="ArialMT-66"/>
     </defs>
     <g style="fill:#262626;" transform="translate(19.5687 364.399988)rotate(-90)scale(0.1728 -0.1728)">
      <use xlink:href="#ArialMT-41"/>
      <use x="66.699219" xlink:href="#ArialMT-63"/>
      <use x="116.699219" xlink:href="#ArialMT-63"/>
      <use x="166.699219" xlink:href="#ArialMT-69"/>
      <use x="188.916016" xlink:href="#ArialMT-64"/>
      <use x="244.53125" xlink:href="#ArialMT-65"/>
      <use x="300.146484" xlink:href="#ArialMT-6e"/>
      <use x="355.761719" xlink:href="#ArialMT-74"/>
      <use x="383.544922" xlink:href="#ArialMT-20"/>
      <use x="411.328125" xlink:href="#ArialMT-52"/>
      <use x="483.544922" xlink:href="#ArialMT-61"/>
      <use x="539.160156" xlink:href="#ArialMT-74"/>
      <use x="566.943359" xlink:href="#ArialMT-69"/>
      <use x="589.160156" xlink:href="#ArialMT-6f"/>
      <use x="644.775391" xlink:href="#ArialMT-3a"/>
      <use x="672.558594" xlink:href="#ArialMT-20"/>
      <use x="700.341797" xlink:href="#ArialMT-44"/>
      <use x="772.558594" xlink:href="#ArialMT-53"/>
      <use x="839.257812" xlink:href="#ArialMT-54"/>
      <use x="900.326172" xlink:href="#ArialMT-20"/>
      <use x="928.109375" xlink:href="#ArialMT-57"/>
      <use x="1022.478516" xlink:href="#ArialMT-65"/>
      <use x="1078.09375" xlink:href="#ArialMT-65"/>
      <use x="1133.708984" xlink:href="#ArialMT-6b"/>
      <use x="1183.708984" xlink:href="#ArialMT-20"/>
      <use x="1211.492188" xlink:href="#ArialMT-2f"/>
      <use x="1239.275391" xlink:href="#ArialMT-20"/>
      <use x="1267.058594" xlink:href="#ArialMT-57"/>
      <use x="1361.427734" xlink:href="#ArialMT-65"/>
      <use x="1417.042969" xlink:href="#ArialMT-65"/>
      <use x="1472.658203" xlink:href="#ArialMT-6b"/>
      <use x="1522.658203" xlink:href="#ArialMT-20"/>
      <use x="1550.441406" xlink:href="#ArialMT-42"/>
      <use x="1617.140625" xlink:href="#ArialMT-65"/>
      <use x="1672.755859" xlink:href="#ArialMT-66"/>
      <use x="1700.539062" xlink:href="#ArialMT-6f"/>
      <use x="1756.154297" xlink:href="#ArialMT-72"/>
      <use x="1789.455078" xlink:href="#ArialMT-65"/>
     </g>
    </g>
   </g>
   <g id="PolyCollection_1">
    <defs>
     <path d="M 110.802873 -105.968783 
L 84.78047 -105.968783 
L 83.433042 -106.886867 
L 82.023641 -107.804951 
L 80.560372 -108.723035 
L 79.052837 -109.641119 
L 77.512067 -110.559203 
L 75.950397 -111.477287 
L 74.381309 -112.395371 
L 72.819228 -113.313455 
L 71.279275 -114.231539 
L 69.776995 -115.149623 
L 68.328044 -116.067707 
L 66.947871 -116.985791 
L 65.651374 -117.903875 
L 64.452561 -118.821959 
L 63.364221 -119.740043 
L 62.397608 -120.658127 
L 61.56216 -121.576211 
L 60.865253 -122.494295 
L 60.312 -123.412379 
L 59.905113 -124.330463 
L 59.644814 -125.248547 
L 59.528814 -126.166631 
L 59.552362 -127.084715 
L 59.708343 -128.002799 
L 59.987455 -128.920883 
L 60.378425 -129.838967 
L 60.868287 -130.757052 
L 61.442692 -131.675136 
L 62.08625 -132.59322 
L 62.782896 -133.511304 
L 63.516264 -134.429388 
L 64.270057 -135.347472 
L 65.028405 -136.265556 
L 65.776207 -137.18364 
L 66.499436 -138.101724 
L 67.185407 -139.019808 
L 67.823007 -139.937892 
L 68.402873 -140.855976 
L 68.91752 -141.77406 
L 69.361422 -142.692144 
L 69.731039 -143.610228 
L 70.024802 -144.528312 
L 70.24305 -145.446396 
L 70.387929 -146.36448 
L 70.463259 -147.282564 
L 70.474371 -148.200648 
L 70.42792 -149.118732 
L 70.331681 -150.036816 
L 70.19434 -150.9549 
L 70.025271 -151.872984 
L 69.834314 -152.791068 
L 69.631563 -153.709152 
L 69.427151 -154.627236 
L 69.231054 -155.54532 
L 69.052903 -156.463404 
L 68.901816 -157.381488 
L 68.786242 -158.299572 
L 68.713834 -159.217656 
L 68.691331 -160.13574 
L 68.724468 -161.053824 
L 68.817912 -161.971908 
L 68.975213 -162.889992 
L 69.198782 -163.808076 
L 69.489893 -164.72616 
L 69.848703 -165.644244 
L 70.274298 -166.562328 
L 70.764754 -167.480412 
L 71.317223 -168.398496 
L 71.928023 -169.31658 
L 72.592756 -170.234664 
L 73.306421 -171.152748 
L 74.063546 -172.070832 
L 74.858311 -172.988916 
L 75.684686 -173.907 
L 76.536547 -174.825085 
L 77.407802 -175.743169 
L 78.292492 -176.661253 
L 79.184891 -177.579337 
L 80.079586 -178.497421 
L 80.971541 -179.415505 
L 81.856143 -180.333589 
L 82.729242 -181.251673 
L 83.58716 -182.169757 
L 84.426697 -183.087841 
L 85.245117 -184.005925 
L 86.040132 -184.924009 
L 86.809866 -185.842093 
L 87.552823 -186.760177 
L 88.267846 -187.678261 
L 88.954078 -188.596345 
L 89.610919 -189.514429 
L 90.237989 -190.432513 
L 90.835098 -191.350597 
L 91.402208 -192.268681 
L 91.939418 -193.186765 
L 92.446937 -194.104849 
L 92.925072 -195.022933 
L 93.374221 -195.941017 
L 93.794862 -196.859101 
L 101.788481 -196.859101 
L 101.788481 -196.859101 
L 102.209122 -195.941017 
L 102.658271 -195.022933 
L 103.136406 -194.104849 
L 103.643925 -193.186765 
L 104.181135 -192.268681 
L 104.748245 -191.350597 
L 105.345354 -190.432513 
L 105.972424 -189.514429 
L 106.629265 -188.596345 
L 107.315497 -187.678261 
L 108.03052 -186.760177 
L 108.773477 -185.842093 
L 109.543211 -184.924009 
L 110.338225 -184.005925 
L 111.156646 -183.087841 
L 111.996182 -182.169757 
L 112.854101 -181.251673 
L 113.7272 -180.333589 
L 114.611802 -179.415505 
L 115.503756 -178.497421 
L 116.398451 -177.579337 
L 117.290851 -176.661253 
L 118.175541 -175.743169 
L 119.046796 -174.825085 
L 119.898657 -173.907 
L 120.725032 -172.988916 
L 121.519797 -172.070832 
L 122.276922 -171.152748 
L 122.990587 -170.234664 
L 123.65532 -169.31658 
L 124.26612 -168.398496 
L 124.818589 -167.480412 
L 125.309045 -166.562328 
L 125.73464 -165.644244 
L 126.09345 -164.72616 
L 126.38456 -163.808076 
L 126.60813 -162.889992 
L 126.765431 -161.971908 
L 126.858875 -161.053824 
L 126.892012 -160.13574 
L 126.869508 -159.217656 
L 126.7971 -158.299572 
L 126.681527 -157.381488 
L 126.53044 -156.463404 
L 126.352289 -155.54532 
L 126.156192 -154.627236 
L 125.95178 -153.709152 
L 125.749029 -152.791068 
L 125.558072 -151.872984 
L 125.389002 -150.9549 
L 125.251661 -150.036816 
L 125.155423 -149.118732 
L 125.108971 -148.200648 
L 125.120084 -147.282564 
L 125.195414 -146.36448 
L 125.340293 -145.446396 
L 125.558541 -144.528312 
L 125.852303 -143.610228 
L 126.221921 -142.692144 
L 126.665822 -141.77406 
L 127.18047 -140.855976 
L 127.760336 -139.937892 
L 128.397936 -139.019808 
L 129.083907 -138.101724 
L 129.807135 -137.18364 
L 130.554938 -136.265556 
L 131.313286 -135.347472 
L 132.067079 -134.429388 
L 132.800447 -133.511304 
L 133.497093 -132.59322 
L 134.140651 -131.675136 
L 134.715055 -130.757052 
L 135.204918 -129.838967 
L 135.595888 -128.920883 
L 135.875 -128.002799 
L 136.030981 -127.084715 
L 136.054529 -126.166631 
L 135.938529 -125.248547 
L 135.67823 -124.330463 
L 135.271343 -123.412379 
L 134.71809 -122.494295 
L 134.021183 -121.576211 
L 133.185735 -120.658127 
L 132.219122 -119.740043 
L 131.130782 -118.821959 
L 129.931969 -117.903875 
L 128.635472 -116.985791 
L 127.255299 -116.067707 
L 125.806348 -115.149623 
L 124.304067 -114.231539 
L 122.764115 -113.313455 
L 121.202034 -112.395371 
L 119.632946 -111.477287 
L 118.071276 -110.559203 
L 116.530506 -109.641119 
L 115.022971 -108.723035 
L 113.559701 -107.804951 
L 112.1503 -106.886867 
L 110.802873 -105.968783 
z
" id="md23fcad225" style="stroke:#414141;stroke-width:2;"/>
    </defs>
    <g clip-path="url(#p94cf08c387)">
     <use style="fill:#e68193;stroke:#414141;stroke-width:2;" x="0" xlink:href="#md23fcad225" y="391.910113"/>
    </g>
   </g>
   <g id="PolyCollection_2">
    <defs>
     <path d="M 196.264365 -92.351656 
L 190.633264 -92.351656 
L 190.359953 -93.535887 
L 190.079525 -94.720118 
L 189.79401 -95.90435 
L 189.505457 -97.088581 
L 189.215849 -98.272812 
L 188.927014 -99.457043 
L 188.640545 -100.641274 
L 188.357709 -101.825505 
L 188.079384 -103.009736 
L 187.805989 -104.193968 
L 187.537438 -105.378199 
L 187.273115 -106.56243 
L 187.011856 -107.746661 
L 186.751961 -108.930892 
L 186.491216 -110.115123 
L 186.226946 -111.299355 
L 185.956069 -112.483586 
L 185.675178 -113.667817 
L 185.380626 -114.852048 
L 185.068628 -116.036279 
L 184.735362 -117.22051 
L 184.377082 -118.404741 
L 183.990228 -119.588973 
L 183.571534 -120.773204 
L 183.118139 -121.957435 
L 182.627687 -123.141666 
L 182.09842 -124.325897 
L 181.529268 -125.510128 
L 180.919915 -126.694359 
L 180.270859 -127.878591 
L 179.58345 -129.062822 
L 178.859902 -130.247053 
L 178.103294 -131.431284 
L 177.317524 -132.615515 
L 176.507254 -133.799746 
L 175.67781 -134.983978 
L 174.835064 -136.168209 
L 173.985278 -137.35244 
L 173.134933 -138.536671 
L 172.29053 -139.720902 
L 171.458391 -140.905133 
L 170.644441 -142.089364 
L 169.854012 -143.273596 
L 169.091647 -144.457827 
L 168.360948 -145.642058 
L 167.664441 -146.826289 
L 167.003502 -148.01052 
L 166.378329 -149.194751 
L 165.787968 -150.378982 
L 165.230405 -151.563214 
L 164.702707 -152.747445 
L 164.201226 -153.931676 
L 163.721846 -155.115907 
L 163.260262 -156.300138 
L 162.812289 -157.484369 
L 162.374174 -158.6686 
L 161.942909 -159.852832 
L 161.516509 -161.037063 
L 161.094263 -162.221294 
L 160.676927 -163.405525 
L 160.266846 -164.589756 
L 159.868012 -165.773987 
L 159.486039 -166.958219 
L 159.128052 -168.14245 
L 158.802505 -169.326681 
L 158.518923 -170.510912 
L 158.287586 -171.695143 
L 158.119162 -172.879374 
L 158.024314 -174.063605 
L 158.013291 -175.247837 
L 158.095525 -176.432068 
L 158.27925 -177.616299 
L 158.571171 -178.80053 
L 158.976173 -179.984761 
L 159.497109 -181.168992 
L 160.134661 -182.353223 
L 160.887276 -183.537455 
L 161.751186 -184.721686 
L 162.720503 -185.905917 
L 163.787382 -187.090148 
L 164.942248 -188.274379 
L 166.174066 -189.45861 
L 167.470653 -190.642842 
L 168.819001 -191.827073 
L 170.205618 -193.011304 
L 171.616858 -194.195535 
L 173.039235 -195.379766 
L 174.459711 -196.563997 
L 175.865952 -197.748228 
L 177.246542 -198.93246 
L 178.591151 -200.116691 
L 179.890672 -201.300922 
L 181.137297 -202.485153 
L 182.324568 -203.669384 
L 183.44738 -204.853615 
L 184.501952 -206.037846 
L 185.485774 -207.222078 
L 186.397528 -208.406309 
L 187.236985 -209.59054 
L 199.660644 -209.59054 
L 199.660644 -209.59054 
L 200.500101 -208.406309 
L 201.411854 -207.222078 
L 202.395677 -206.037846 
L 203.450249 -204.853615 
L 204.57306 -203.669384 
L 205.760331 -202.485153 
L 207.006957 -201.300922 
L 208.306477 -200.116691 
L 209.651087 -198.93246 
L 211.031676 -197.748228 
L 212.437918 -196.563997 
L 213.858394 -195.379766 
L 215.280771 -194.195535 
L 216.692011 -193.011304 
L 218.078628 -191.827073 
L 219.426976 -190.642842 
L 220.723562 -189.45861 
L 221.955381 -188.274379 
L 223.110247 -187.090148 
L 224.177126 -185.905917 
L 225.146442 -184.721686 
L 226.010352 -183.537455 
L 226.762967 -182.353223 
L 227.400519 -181.168992 
L 227.921456 -179.984761 
L 228.326457 -178.80053 
L 228.618378 -177.616299 
L 228.802104 -176.432068 
L 228.884337 -175.247837 
L 228.873314 -174.063605 
L 228.778467 -172.879374 
L 228.610043 -171.695143 
L 228.378705 -170.510912 
L 228.095124 -169.326681 
L 227.769577 -168.14245 
L 227.41159 -166.958219 
L 227.029616 -165.773987 
L 226.630783 -164.589756 
L 226.220702 -163.405525 
L 225.803365 -162.221294 
L 225.38112 -161.037063 
L 224.95472 -159.852832 
L 224.523454 -158.6686 
L 224.08534 -157.484369 
L 223.637366 -156.300138 
L 223.175782 -155.115907 
L 222.696402 -153.931676 
L 222.194922 -152.747445 
L 221.667224 -151.563214 
L 221.10966 -150.378982 
L 220.5193 -149.194751 
L 219.894127 -148.01052 
L 219.233188 -146.826289 
L 218.536681 -145.642058 
L 217.805981 -144.457827 
L 217.043617 -143.273596 
L 216.253188 -142.089364 
L 215.439238 -140.905133 
L 214.607098 -139.720902 
L 213.762696 -138.536671 
L 212.91235 -137.35244 
L 212.062564 -136.168209 
L 211.219818 -134.983978 
L 210.390375 -133.799746 
L 209.580105 -132.615515 
L 208.794335 -131.431284 
L 208.037726 -130.247053 
L 207.314179 -129.062822 
L 206.626769 -127.878591 
L 205.977714 -126.694359 
L 205.368361 -125.510128 
L 204.799208 -124.325897 
L 204.269942 -123.141666 
L 203.779489 -121.957435 
L 203.326094 -120.773204 
L 202.9074 -119.588973 
L 202.520546 -118.404741 
L 202.162267 -117.22051 
L 201.829001 -116.036279 
L 201.517003 -114.852048 
L 201.222451 -113.667817 
L 200.941559 -112.483586 
L 200.670683 -111.299355 
L 200.406412 -110.115123 
L 200.145668 -108.930892 
L 199.885772 -107.746661 
L 199.624513 -106.56243 
L 199.36019 -105.378199 
L 199.09164 -104.193968 
L 198.818244 -103.009736 
L 198.539919 -101.825505 
L 198.257084 -100.641274 
L 197.970614 -99.457043 
L 197.68178 -98.272812 
L 197.392172 -97.088581 
L 197.103619 -95.90435 
L 196.818104 -94.720118 
L 196.537676 -93.535887 
L 196.264365 -92.351656 
z
" id="me55e7ace53" style="stroke:#414141;stroke-width:2;"/>
    </defs>
    <g clip-path="url(#p94cf08c387)">
     <use style="fill:#b38e44;stroke:#414141;stroke-width:2;" x="0" xlink:href="#me55e7ace53" y="391.910113"/>
    </g>
   </g>
   <g id="PolyCollection_3">
    <defs>
     <path d="M 292.990174 -101.999997 
L 285.22174 -101.999997 
L 284.735583 -103.725098 
L 284.220172 -105.450199 
L 283.677602 -107.1753 
L 283.110156 -108.9004 
L 282.520172 -110.625501 
L 281.90991 -112.350602 
L 281.281418 -114.075702 
L 280.63642 -115.800803 
L 279.976214 -117.525904 
L 279.301617 -119.251005 
L 278.612936 -120.976105 
L 277.909982 -122.701206 
L 277.192133 -124.426307 
L 276.458422 -126.151408 
L 275.707669 -127.876508 
L 274.938635 -129.601609 
L 274.150183 -131.32671 
L 273.341458 -133.05181 
L 272.512048 -134.776911 
L 271.662141 -136.502012 
L 270.792654 -138.227113 
L 269.905346 -139.952213 
L 269.002892 -141.677314 
L 268.088936 -143.402415 
L 267.168116 -145.127516 
L 266.246065 -146.852616 
L 265.329389 -148.577717 
L 264.425622 -150.302818 
L 263.543168 -152.027918 
L 262.691211 -153.753019 
L 261.879612 -155.47812 
L 261.118773 -157.203221 
L 260.419473 -158.928321 
L 259.792668 -160.653422 
L 259.249256 -162.378523 
L 258.799817 -164.103624 
L 258.454313 -165.828724 
L 258.221776 -167.553825 
L 258.109986 -169.278926 
L 258.125157 -171.004026 
L 258.271652 -172.729127 
L 258.551732 -174.454228 
L 258.965378 -176.179329 
L 259.51018 -177.904429 
L 260.181315 -179.62953 
L 260.971618 -181.354631 
L 261.871745 -183.079732 
L 262.870418 -184.804832 
L 263.95475 -186.529933 
L 265.110625 -188.255034 
L 266.323108 -189.980134 
L 267.57688 -191.705235 
L 268.856655 -193.430336 
L 270.147575 -195.155437 
L 271.435556 -196.880537 
L 272.707565 -198.605638 
L 273.951845 -200.330739 
L 275.158051 -202.05584 
L 276.317321 -203.78094 
L 277.422286 -205.506041 
L 278.467022 -207.231142 
L 279.446959 -208.956242 
L 280.358763 -210.681343 
L 281.200204 -212.406444 
L 281.970019 -214.131545 
L 282.667786 -215.856645 
L 283.293815 -217.581746 
L 283.849054 -219.306847 
L 284.335029 -221.031948 
L 284.753796 -222.757048 
L 285.107918 -224.482149 
L 285.400461 -226.20725 
L 285.634982 -227.93235 
L 285.81554 -229.657451 
L 285.946678 -231.382552 
L 286.033414 -233.107653 
L 286.081195 -234.832753 
L 286.095845 -236.557854 
L 286.083482 -238.282955 
L 286.050413 -240.008056 
L 286.003014 -241.733156 
L 285.947591 -243.458257 
L 285.890228 -245.183358 
L 285.836637 -246.908458 
L 285.792012 -248.633559 
L 285.760893 -250.35866 
L 285.747055 -252.083761 
L 285.753412 -253.808861 
L 285.781971 -255.533962 
L 285.833802 -257.259063 
L 285.909059 -258.984164 
L 286.007025 -260.709264 
L 286.126196 -262.434365 
L 286.26439 -264.159466 
L 286.418879 -265.884566 
L 286.586532 -267.609667 
L 286.763967 -269.334768 
L 286.947702 -271.059869 
L 287.134292 -272.784969 
L 291.077622 -272.784969 
L 291.077622 -272.784969 
L 291.264212 -271.059869 
L 291.447947 -269.334768 
L 291.625383 -267.609667 
L 291.793036 -265.884566 
L 291.947525 -264.159466 
L 292.085719 -262.434365 
L 292.204889 -260.709264 
L 292.302855 -258.984164 
L 292.378112 -257.259063 
L 292.429944 -255.533962 
L 292.458502 -253.808861 
L 292.46486 -252.083761 
L 292.451021 -250.35866 
L 292.419903 -248.633559 
L 292.375278 -246.908458 
L 292.321687 -245.183358 
L 292.264323 -243.458257 
L 292.2089 -241.733156 
L 292.161501 -240.008056 
L 292.128432 -238.282955 
L 292.116069 -236.557854 
L 292.130719 -234.832753 
L 292.1785 -233.107653 
L 292.265236 -231.382552 
L 292.396375 -229.657451 
L 292.576932 -227.93235 
L 292.811454 -226.20725 
L 293.103996 -224.482149 
L 293.458119 -222.757048 
L 293.876885 -221.031948 
L 294.36286 -219.306847 
L 294.9181 -217.581746 
L 295.544128 -215.856645 
L 296.241896 -214.131545 
L 297.01171 -212.406444 
L 297.853151 -210.681343 
L 298.764955 -208.956242 
L 299.744892 -207.231142 
L 300.789628 -205.506041 
L 301.894594 -203.78094 
L 303.053864 -202.05584 
L 304.260069 -200.330739 
L 305.504349 -198.605638 
L 306.776359 -196.880537 
L 308.064339 -195.155437 
L 309.355259 -193.430336 
L 310.635035 -191.705235 
L 311.888806 -189.980134 
L 313.101289 -188.255034 
L 314.257164 -186.529933 
L 315.341497 -184.804832 
L 316.34017 -183.079732 
L 317.240296 -181.354631 
L 318.030599 -179.62953 
L 318.701734 -177.904429 
L 319.246536 -176.179329 
L 319.660182 -174.454228 
L 319.940262 -172.729127 
L 320.086757 -171.004026 
L 320.101928 -169.278926 
L 319.990138 -167.553825 
L 319.757601 -165.828724 
L 319.412097 -164.103624 
L 318.962658 -162.378523 
L 318.419247 -160.653422 
L 317.792441 -158.928321 
L 317.093141 -157.203221 
L 316.332302 -155.47812 
L 315.520704 -153.753019 
L 314.668746 -152.027918 
L 313.786292 -150.302818 
L 312.882525 -148.577717 
L 311.965849 -146.852616 
L 311.043798 -145.127516 
L 310.122978 -143.402415 
L 309.209022 -141.677314 
L 308.306568 -139.952213 
L 307.41926 -138.227113 
L 306.549774 -136.502012 
L 305.699866 -134.776911 
L 304.870456 -133.05181 
L 304.061731 -131.32671 
L 303.273279 -129.601609 
L 302.504245 -127.876508 
L 301.753493 -126.151408 
L 301.019781 -124.426307 
L 300.301932 -122.701206 
L 299.598978 -120.976105 
L 298.910297 -119.251005 
L 298.2357 -117.525904 
L 297.575495 -115.800803 
L 296.930496 -114.075702 
L 296.302005 -112.350602 
L 295.691742 -110.625501 
L 295.101758 -108.9004 
L 294.534312 -107.1753 
L 293.991743 -105.450199 
L 293.476331 -103.725098 
L 292.990174 -101.999997 
z
" id="m3f15914eb1" style="stroke:#414141;stroke-width:2;"/>
    </defs>
    <g clip-path="url(#p94cf08c387)">
     <use style="fill:#7d9a40;stroke:#414141;stroke-width:2;" x="0" xlink:href="#m3f15914eb1" y="391.910113"/>
    </g>
   </g>
   <g id="PolyCollection_4">
    <defs>
     <path d="M 387.237252 -74.005201 
L 382.288948 -74.005201 
L 382.029105 -75.753321 
L 381.758949 -77.501441 
L 381.480226 -79.249561 
L 381.194824 -80.99768 
L 380.904704 -82.7458 
L 380.611826 -84.49392 
L 380.31806 -86.24204 
L 380.025102 -87.990159 
L 379.734377 -89.738279 
L 379.446955 -91.486399 
L 379.163471 -93.234519 
L 378.884057 -94.982638 
L 378.60829 -96.730758 
L 378.335161 -98.478878 
L 378.063075 -100.226998 
L 377.789861 -101.975117 
L 377.512832 -103.723237 
L 377.228854 -105.471357 
L 376.934455 -107.219477 
L 376.625948 -108.967596 
L 376.299587 -110.715716 
L 375.951725 -112.463836 
L 375.578989 -114.211956 
L 375.178454 -115.960075 
L 374.74781 -117.708195 
L 374.285516 -119.456315 
L 373.79093 -121.204435 
L 373.26441 -122.952554 
L 372.707383 -124.700674 
L 372.122367 -126.448794 
L 371.512955 -128.196914 
L 370.883755 -129.945033 
L 370.240282 -131.693153 
L 369.588812 -133.441273 
L 368.936202 -135.189393 
L 368.289682 -136.937513 
L 367.656621 -138.685632 
L 367.044292 -140.433752 
L 366.459631 -142.181872 
L 365.909008 -143.929992 
L 365.398022 -145.678111 
L 364.931328 -147.426231 
L 364.512496 -149.174351 
L 364.143923 -150.922471 
L 363.826794 -152.67059 
L 363.56109 -154.41871 
L 363.345654 -156.16683 
L 363.178293 -157.91495 
L 363.055936 -159.663069 
L 362.974816 -161.411189 
L 362.930676 -163.159309 
L 362.918995 -164.907429 
L 362.935212 -166.655548 
L 362.974943 -168.403668 
L 363.034176 -170.151788 
L 363.109444 -171.899908 
L 363.197956 -173.648027 
L 363.29769 -175.396147 
L 363.407443 -177.144267 
L 363.526837 -178.892387 
L 363.65628 -180.640506 
L 363.796895 -182.388626 
L 363.950407 -184.136746 
L 364.119019 -185.884866 
L 364.305262 -187.632985 
L 364.511836 -189.381105 
L 364.741464 -191.129225 
L 364.996738 -192.877345 
L 365.279991 -194.625465 
L 365.593186 -196.373584 
L 365.937826 -198.121704 
L 366.314889 -199.869824 
L 366.724794 -201.617944 
L 367.16738 -203.366063 
L 367.64192 -205.114183 
L 368.147142 -206.862303 
L 368.68127 -208.610423 
L 369.242081 -210.358542 
L 369.826954 -212.106662 
L 370.432943 -213.854782 
L 371.056835 -215.602902 
L 371.695215 -217.351021 
L 372.344526 -219.099141 
L 373.001125 -220.847261 
L 373.661337 -222.595381 
L 374.321505 -224.3435 
L 374.978029 -226.09162 
L 375.627416 -227.83974 
L 376.266312 -229.58786 
L 376.891542 -231.335979 
L 377.500141 -233.084099 
L 378.089388 -234.832219 
L 378.65683 -236.580339 
L 379.200312 -238.328458 
L 379.717991 -240.076578 
L 380.208356 -241.824698 
L 380.67024 -243.572818 
L 381.102817 -245.320937 
L 381.505611 -247.069057 
L 388.020589 -247.069057 
L 388.020589 -247.069057 
L 388.423383 -245.320937 
L 388.85596 -243.572818 
L 389.317844 -241.824698 
L 389.808209 -240.076578 
L 390.325888 -238.328458 
L 390.86937 -236.580339 
L 391.436812 -234.832219 
L 392.026059 -233.084099 
L 392.634658 -231.335979 
L 393.259888 -229.58786 
L 393.898784 -227.83974 
L 394.548171 -226.09162 
L 395.204695 -224.3435 
L 395.864863 -222.595381 
L 396.525075 -220.847261 
L 397.181674 -219.099141 
L 397.830985 -217.351021 
L 398.469365 -215.602902 
L 399.093257 -213.854782 
L 399.699246 -212.106662 
L 400.284119 -210.358542 
L 400.84493 -208.610423 
L 401.379058 -206.862303 
L 401.88428 -205.114183 
L 402.35882 -203.366063 
L 402.801406 -201.617944 
L 403.211311 -199.869824 
L 403.588374 -198.121704 
L 403.933014 -196.373584 
L 404.246209 -194.625465 
L 404.529462 -192.877345 
L 404.784736 -191.129225 
L 405.014364 -189.381105 
L 405.220938 -187.632985 
L 405.407181 -185.884866 
L 405.575793 -184.136746 
L 405.729305 -182.388626 
L 405.86992 -180.640506 
L 405.999363 -178.892387 
L 406.118757 -177.144267 
L 406.22851 -175.396147 
L 406.328244 -173.648027 
L 406.416756 -171.899908 
L 406.492024 -170.151788 
L 406.551257 -168.403668 
L 406.590988 -166.655548 
L 406.607205 -164.907429 
L 406.595524 -163.159309 
L 406.551384 -161.411189 
L 406.470264 -159.663069 
L 406.347907 -157.91495 
L 406.180546 -156.16683 
L 405.96511 -154.41871 
L 405.699406 -152.67059 
L 405.382277 -150.922471 
L 405.013704 -149.174351 
L 404.594872 -147.426231 
L 404.128178 -145.678111 
L 403.617192 -143.929992 
L 403.066569 -142.181872 
L 402.481908 -140.433752 
L 401.869579 -138.685632 
L 401.236518 -136.937513 
L 400.589998 -135.189393 
L 399.937388 -133.441273 
L 399.285918 -131.693153 
L 398.642445 -129.945033 
L 398.013245 -128.196914 
L 397.403833 -126.448794 
L 396.818817 -124.700674 
L 396.26179 -122.952554 
L 395.73527 -121.204435 
L 395.240684 -119.456315 
L 394.77839 -117.708195 
L 394.347746 -115.960075 
L 393.947211 -114.211956 
L 393.574475 -112.463836 
L 393.226613 -110.715716 
L 392.900252 -108.967596 
L 392.591745 -107.219477 
L 392.297346 -105.471357 
L 392.013368 -103.723237 
L 391.736339 -101.975117 
L 391.463125 -100.226998 
L 391.191039 -98.478878 
L 390.91791 -96.730758 
L 390.642143 -94.982638 
L 390.362729 -93.234519 
L 390.079245 -91.486399 
L 389.791823 -89.738279 
L 389.501098 -87.990159 
L 389.20814 -86.24204 
L 388.914374 -84.49392 
L 388.621496 -82.7458 
L 388.331376 -80.99768 
L 388.045974 -79.249561 
L 387.767251 -77.501441 
L 387.497095 -75.753321 
L 387.237252 -74.005201 
z
" id="m05d551a709" style="stroke:#414141;stroke-width:2;"/>
    </defs>
    <g clip-path="url(#p94cf08c387)">
     <use style="fill:#43a084;stroke:#414141;stroke-width:2;" x="0" xlink:href="#m05d551a709" y="391.910113"/>
    </g>
   </g>
   <g id="PolyCollection_5">
    <defs>
     <path d="M 483.354473 -96.298573 
L 477.486013 -96.298573 
L 477.144932 -97.681022 
L 476.782609 -99.063472 
L 476.399745 -100.445921 
L 475.997174 -101.828371 
L 475.575829 -103.21082 
L 475.136712 -104.59327 
L 474.68087 -105.975719 
L 474.209365 -107.358169 
L 473.723261 -108.740618 
L 473.223603 -110.123068 
L 472.711419 -111.505517 
L 472.187716 -112.887967 
L 471.653482 -114.270416 
L 471.109698 -115.652866 
L 470.557342 -117.035316 
L 469.997395 -118.417765 
L 469.430842 -119.800215 
L 468.858668 -121.182664 
L 468.281839 -122.565114 
L 467.701283 -123.947563 
L 467.117855 -125.330013 
L 466.532296 -126.712462 
L 465.945191 -128.094912 
L 465.356916 -129.477361 
L 464.767598 -130.859811 
L 464.177072 -132.24226 
L 463.58486 -133.62471 
L 462.990154 -135.007159 
L 462.391832 -136.389609 
L 461.788493 -137.772059 
L 461.178515 -139.154508 
L 460.560144 -140.536958 
L 459.93161 -141.919407 
L 459.291261 -143.301857 
L 458.63772 -144.684306 
L 457.970053 -146.066756 
L 457.287943 -147.449205 
L 456.591859 -148.831655 
L 455.883215 -150.214104 
L 455.164507 -151.596554 
L 454.439417 -152.979003 
L 453.712881 -154.361453 
L 452.991107 -155.743902 
L 452.281542 -157.126352 
L 451.592784 -158.508801 
L 450.934436 -159.891251 
L 450.316903 -161.273701 
L 449.751136 -162.65615 
L 449.248338 -164.0386 
L 448.819624 -165.421049 
L 448.475667 -166.803499 
L 448.226329 -168.185948 
L 448.080295 -169.568398 
L 448.044737 -170.950847 
L 448.125003 -172.333297 
L 448.324362 -173.715746 
L 448.643818 -175.098196 
L 449.08199 -176.480645 
L 449.635079 -177.863095 
L 450.29692 -179.245544 
L 451.059123 -180.627994 
L 451.911296 -182.010444 
L 452.841339 -183.392893 
L 453.835806 -184.775343 
L 454.880317 -186.157792 
L 455.959997 -187.540242 
L 457.059934 -188.922691 
L 458.165629 -190.305141 
L 459.263419 -191.68759 
L 460.340864 -193.07004 
L 461.387066 -194.452489 
L 462.392931 -195.834939 
L 463.351339 -197.217388 
L 464.257235 -198.599838 
L 465.107639 -199.982287 
L 465.901565 -201.364737 
L 466.639872 -202.747186 
L 467.32505 -204.129636 
L 467.960952 -205.512086 
L 468.55249 -206.894535 
L 469.105313 -208.276985 
L 469.625483 -209.659434 
L 470.11915 -211.041884 
L 470.59227 -212.424333 
L 471.050342 -213.806783 
L 471.498201 -215.189232 
L 471.939862 -216.571682 
L 472.378411 -217.954131 
L 472.815959 -219.336581 
L 473.253643 -220.71903 
L 473.691677 -222.10148 
L 474.129434 -223.483929 
L 474.565573 -224.866379 
L 474.998178 -226.248829 
L 475.424913 -227.631278 
L 475.843177 -229.013728 
L 476.250266 -230.396177 
L 476.643508 -231.778627 
L 477.020392 -233.161076 
L 483.820094 -233.161076 
L 483.820094 -233.161076 
L 484.196978 -231.778627 
L 484.59022 -230.396177 
L 484.997308 -229.013728 
L 485.415573 -227.631278 
L 485.842307 -226.248829 
L 486.274913 -224.866379 
L 486.711052 -223.483929 
L 487.148809 -222.10148 
L 487.586842 -220.71903 
L 488.024527 -219.336581 
L 488.462075 -217.954131 
L 488.900624 -216.571682 
L 489.342285 -215.189232 
L 489.790144 -213.806783 
L 490.248216 -212.424333 
L 490.721335 -211.041884 
L 491.215003 -209.659434 
L 491.735172 -208.276985 
L 492.287996 -206.894535 
L 492.879534 -205.512086 
L 493.515435 -204.129636 
L 494.200614 -202.747186 
L 494.938921 -201.364737 
L 495.732847 -199.982287 
L 496.583251 -198.599838 
L 497.489147 -197.217388 
L 498.447555 -195.834939 
L 499.45342 -194.452489 
L 500.499622 -193.07004 
L 501.577067 -191.68759 
L 502.674857 -190.305141 
L 503.780552 -188.922691 
L 504.880489 -187.540242 
L 505.960169 -186.157792 
L 507.00468 -184.775343 
L 507.999147 -183.392893 
L 508.92919 -182.010444 
L 509.781363 -180.627994 
L 510.543566 -179.245544 
L 511.205407 -177.863095 
L 511.758495 -176.480645 
L 512.196667 -175.098196 
L 512.516124 -173.715746 
L 512.715483 -172.333297 
L 512.795748 -170.950847 
L 512.76019 -169.568398 
L 512.614157 -168.185948 
L 512.364818 -166.803499 
L 512.020862 -165.421049 
L 511.592148 -164.0386 
L 511.089349 -162.65615 
L 510.523583 -161.273701 
L 509.90605 -159.891251 
L 509.247702 -158.508801 
L 508.558944 -157.126352 
L 507.849379 -155.743902 
L 507.127605 -154.361453 
L 506.401069 -152.979003 
L 505.675979 -151.596554 
L 504.957271 -150.214104 
L 504.248627 -148.831655 
L 503.552543 -147.449205 
L 502.870433 -146.066756 
L 502.202766 -144.684306 
L 501.549225 -143.301857 
L 500.908876 -141.919407 
L 500.280341 -140.536958 
L 499.661971 -139.154508 
L 499.051992 -137.772059 
L 498.448653 -136.389609 
L 497.850332 -135.007159 
L 497.255626 -133.62471 
L 496.663414 -132.24226 
L 496.072888 -130.859811 
L 495.48357 -129.477361 
L 494.895295 -128.094912 
L 494.308189 -126.712462 
L 493.722631 -125.330013 
L 493.139202 -123.947563 
L 492.558646 -122.565114 
L 491.981818 -121.182664 
L 491.409643 -119.800215 
L 490.843091 -118.417765 
L 490.283144 -117.035316 
L 489.730788 -115.652866 
L 489.187004 -114.270416 
L 488.65277 -112.887967 
L 488.129067 -111.505517 
L 487.616883 -110.123068 
L 487.117225 -108.740618 
L 486.63112 -107.358169 
L 486.159616 -105.975719 
L 485.703774 -104.59327 
L 485.264657 -103.21082 
L 484.843311 -101.828371 
L 484.44074 -100.445921 
L 484.057877 -99.063472 
L 483.695554 -97.681022 
L 483.354473 -96.298573 
z
" id="m5a8a452a32" style="stroke:#414141;stroke-width:2;"/>
    </defs>
    <g clip-path="url(#p94cf08c387)">
     <use style="fill:#489eaa;stroke:#414141;stroke-width:2;" x="0" xlink:href="#m5a8a452a32" y="391.910113"/>
    </g>
   </g>
   <g id="PolyCollection_6">
    <defs>
     <path d="M 582.460893 -101.504905 
L 569.693878 -101.504905 
L 569.062679 -102.919628 
L 568.405338 -104.334351 
L 567.725616 -105.749075 
L 567.02785 -107.163798 
L 566.316898 -108.578521 
L 565.598074 -109.993244 
L 564.877063 -111.407967 
L 564.159819 -112.82269 
L 563.452455 -114.237413 
L 562.761117 -115.652136 
L 562.091859 -117.06686 
L 561.450504 -118.481583 
L 560.84252 -119.896306 
L 560.272886 -121.311029 
L 559.74598 -122.725752 
L 559.265476 -124.140475 
L 558.834252 -125.555198 
L 558.454323 -126.969921 
L 558.126797 -128.384645 
L 557.851852 -129.799368 
L 557.628733 -131.214091 
L 557.45578 -132.628814 
L 557.330473 -134.043537 
L 557.249506 -135.45826 
L 557.208868 -136.872983 
L 557.203949 -138.287707 
L 557.229661 -139.70243 
L 557.280554 -141.117153 
L 557.350956 -142.531876 
L 557.435099 -143.946599 
L 557.527249 -145.361322 
L 557.621832 -146.776045 
L 557.713548 -148.190768 
L 557.797475 -149.605492 
L 557.869161 -151.020215 
L 557.924698 -152.434938 
L 557.960781 -153.849661 
L 557.974755 -155.264384 
L 557.964639 -156.679107 
L 557.929135 -158.09383 
L 557.867628 -159.508553 
L 557.780165 -160.923277 
L 557.667421 -162.338 
L 557.530662 -163.752723 
L 557.37169 -165.167446 
L 557.192787 -166.582169 
L 556.996648 -167.996892 
L 556.786319 -169.411615 
L 556.565125 -170.826338 
L 556.336607 -172.241062 
L 556.104453 -173.655785 
L 555.872438 -175.070508 
L 555.644367 -176.485231 
L 555.424022 -177.899954 
L 555.21512 -179.314677 
L 555.021269 -180.7294 
L 554.845934 -182.144123 
L 554.692414 -183.558847 
L 554.563815 -184.97357 
L 554.46303 -186.388293 
L 554.392728 -187.803016 
L 554.355339 -189.217739 
L 554.35304 -190.632462 
L 554.38775 -192.047185 
L 554.461115 -193.461908 
L 554.574498 -194.876632 
L 554.728969 -196.291355 
L 554.92529 -197.706078 
L 555.163906 -199.120801 
L 555.444927 -200.535524 
L 555.76812 -201.950247 
L 556.1329 -203.36497 
L 556.538316 -204.779694 
L 556.983052 -206.194417 
L 557.465426 -207.60914 
L 557.983397 -209.023863 
L 558.534571 -210.438586 
L 559.116226 -211.853309 
L 559.725334 -213.268032 
L 560.35859 -214.682755 
L 561.012455 -216.097479 
L 561.683193 -217.512202 
L 562.366925 -218.926925 
L 563.059678 -220.341648 
L 563.757437 -221.756371 
L 564.456205 -223.171094 
L 565.152054 -224.585817 
L 565.841181 -226.00054 
L 566.519956 -227.415264 
L 567.18497 -228.829987 
L 567.833073 -230.24471 
L 568.461412 -231.659433 
L 569.067455 -233.074156 
L 569.649014 -234.488879 
L 570.204259 -235.903602 
L 570.731723 -237.318325 
L 571.230297 -238.733049 
L 571.699232 -240.147772 
L 572.138115 -241.562495 
L 580.016657 -241.562495 
L 580.016657 -241.562495 
L 580.45554 -240.147772 
L 580.924474 -238.733049 
L 581.423049 -237.318325 
L 581.950512 -235.903602 
L 582.505757 -234.488879 
L 583.087317 -233.074156 
L 583.69336 -231.659433 
L 584.321698 -230.24471 
L 584.969802 -228.829987 
L 585.634815 -227.415264 
L 586.313591 -226.00054 
L 587.002718 -224.585817 
L 587.698567 -223.171094 
L 588.397335 -221.756371 
L 589.095094 -220.341648 
L 589.787846 -218.926925 
L 590.471578 -217.512202 
L 591.142317 -216.097479 
L 591.796181 -214.682755 
L 592.429437 -213.268032 
L 593.038545 -211.853309 
L 593.6202 -210.438586 
L 594.171375 -209.023863 
L 594.689345 -207.60914 
L 595.17172 -206.194417 
L 595.616456 -204.779694 
L 596.021872 -203.36497 
L 596.386651 -201.950247 
L 596.709845 -200.535524 
L 596.990866 -199.120801 
L 597.229481 -197.706078 
L 597.425802 -196.291355 
L 597.580273 -194.876632 
L 597.693656 -193.461908 
L 597.767021 -192.047185 
L 597.801731 -190.632462 
L 597.799433 -189.217739 
L 597.762043 -187.803016 
L 597.691741 -186.388293 
L 597.590957 -184.97357 
L 597.462357 -183.558847 
L 597.308837 -182.144123 
L 597.133503 -180.7294 
L 596.939651 -179.314677 
L 596.730749 -177.899954 
L 596.510405 -176.485231 
L 596.282333 -175.070508 
L 596.050318 -173.655785 
L 595.818164 -172.241062 
L 595.589646 -170.826338 
L 595.368453 -169.411615 
L 595.158123 -167.996892 
L 594.961985 -166.582169 
L 594.783081 -165.167446 
L 594.624109 -163.752723 
L 594.487351 -162.338 
L 594.374607 -160.923277 
L 594.287143 -159.508553 
L 594.225637 -158.09383 
L 594.190133 -156.679107 
L 594.180016 -155.264384 
L 594.19399 -153.849661 
L 594.230074 -152.434938 
L 594.28561 -151.020215 
L 594.357296 -149.605492 
L 594.441224 -148.190768 
L 594.53294 -146.776045 
L 594.627523 -145.361322 
L 594.719673 -143.946599 
L 594.803815 -142.531876 
L 594.874217 -141.117153 
L 594.925111 -139.70243 
L 594.950822 -138.287707 
L 594.945904 -136.872983 
L 594.905265 -135.45826 
L 594.824298 -134.043537 
L 594.698992 -132.628814 
L 594.526039 -131.214091 
L 594.302919 -129.799368 
L 594.027974 -128.384645 
L 593.700449 -126.969921 
L 593.32052 -125.555198 
L 592.889295 -124.140475 
L 592.408791 -122.725752 
L 591.881886 -121.311029 
L 591.312252 -119.896306 
L 590.704267 -118.481583 
L 590.062913 -117.06686 
L 589.393654 -115.652136 
L 588.702317 -114.237413 
L 587.994953 -112.82269 
L 587.277709 -111.407967 
L 586.556697 -109.993244 
L 585.837874 -108.578521 
L 585.126921 -107.163798 
L 584.429155 -105.749075 
L 583.749434 -104.334351 
L 583.092093 -102.919628 
L 582.460893 -101.504905 
z
" id="md681e10174" style="stroke:#414141;stroke-width:2;"/>
    </defs>
    <g clip-path="url(#p94cf08c387)">
     <use style="fill:#8fa0e6;stroke:#414141;stroke-width:2;" x="0" xlink:href="#md681e10174" y="391.910113"/>
    </g>
   </g>
   <g id="PolyCollection_7">
    <defs>
     <path d="M 677.310395 -95.596433 
L 666.158662 -95.596433 
L 665.611732 -97.99672 
L 665.038965 -100.397007 
L 664.44264 -102.797294 
L 663.825478 -105.19758 
L 663.190632 -107.597867 
L 662.541667 -109.998154 
L 661.88253 -112.398441 
L 661.217518 -114.798727 
L 660.55123 -117.199014 
L 659.888517 -119.599301 
L 659.234424 -121.999588 
L 658.594131 -124.399874 
L 657.972881 -126.800161 
L 657.375916 -129.200448 
L 656.808401 -131.600735 
L 656.275354 -134.001021 
L 655.781574 -136.401308 
L 655.331573 -138.801595 
L 654.929506 -141.201882 
L 654.579112 -143.602168 
L 654.283652 -146.002455 
L 654.045861 -148.402742 
L 653.867905 -150.803029 
L 653.751337 -153.203315 
L 653.697077 -155.603602 
L 653.705385 -158.003889 
L 653.775855 -160.404176 
L 653.907417 -162.804462 
L 654.098339 -165.204749 
L 654.346254 -167.605036 
L 654.648186 -170.005322 
L 655.000589 -172.405609 
L 655.399396 -174.805896 
L 655.840074 -177.206183 
L 656.317691 -179.606469 
L 656.826981 -182.006756 
L 657.362425 -184.407043 
L 657.918324 -186.80733 
L 658.488887 -189.207616 
L 659.068309 -191.607903 
L 659.650853 -194.00819 
L 660.230931 -196.408477 
L 660.803176 -198.808763 
L 661.362519 -201.20905 
L 661.904243 -203.609337 
L 662.424048 -206.009624 
L 662.918093 -208.40991 
L 663.383036 -210.810197 
L 663.816066 -213.210484 
L 664.214917 -215.610771 
L 664.57788 -218.011057 
L 664.903804 -220.411344 
L 665.192089 -222.811631 
L 665.442662 -225.211918 
L 665.655962 -227.612204 
L 665.832901 -230.012491 
L 665.974836 -232.412778 
L 666.083519 -234.813065 
L 666.161063 -237.213351 
L 666.209889 -239.613638 
L 666.232678 -242.013925 
L 666.232328 -244.414212 
L 666.2119 -246.814498 
L 666.174575 -249.214785 
L 666.123603 -251.615072 
L 666.062264 -254.015359 
L 665.993819 -256.415645 
L 665.921475 -258.815932 
L 665.848347 -261.216219 
L 665.777418 -263.616506 
L 665.711511 -266.016792 
L 665.653258 -268.417079 
L 665.605069 -270.817366 
L 665.569116 -273.217653 
L 665.547305 -275.617939 
L 665.541261 -278.018226 
L 665.552317 -280.418513 
L 665.581497 -282.8188 
L 665.629517 -285.219086 
L 665.69678 -287.619373 
L 665.783378 -290.01966 
L 665.8891 -292.419947 
L 666.013443 -294.820233 
L 666.15563 -297.22052 
L 666.314627 -299.620807 
L 666.489169 -302.021094 
L 666.67779 -304.42138 
L 666.878849 -306.821667 
L 667.090568 -309.221954 
L 667.311066 -311.622241 
L 667.538395 -314.022527 
L 667.770575 -316.422814 
L 668.005629 -318.823101 
L 668.241623 -321.223388 
L 668.47669 -323.623674 
L 668.709063 -326.023961 
L 668.9371 -328.424248 
L 669.159306 -330.824535 
L 669.374348 -333.224821 
L 674.094709 -333.224821 
L 674.094709 -333.224821 
L 674.309751 -330.824535 
L 674.531957 -328.424248 
L 674.759995 -326.023961 
L 674.992368 -323.623674 
L 675.227434 -321.223388 
L 675.463428 -318.823101 
L 675.698483 -316.422814 
L 675.930662 -314.022527 
L 676.157991 -311.622241 
L 676.378489 -309.221954 
L 676.590209 -306.821667 
L 676.791268 -304.42138 
L 676.979888 -302.021094 
L 677.15443 -299.620807 
L 677.313427 -297.22052 
L 677.455614 -294.820233 
L 677.579957 -292.419947 
L 677.685679 -290.01966 
L 677.772277 -287.619373 
L 677.83954 -285.219086 
L 677.88756 -282.8188 
L 677.91674 -280.418513 
L 677.927796 -278.018226 
L 677.921752 -275.617939 
L 677.899941 -273.217653 
L 677.863988 -270.817366 
L 677.8158 -268.417079 
L 677.757546 -266.016792 
L 677.691639 -263.616506 
L 677.62071 -261.216219 
L 677.547582 -258.815932 
L 677.475239 -256.415645 
L 677.406794 -254.015359 
L 677.345454 -251.615072 
L 677.294482 -249.214785 
L 677.257157 -246.814498 
L 677.236729 -244.414212 
L 677.236379 -242.013925 
L 677.259168 -239.613638 
L 677.307994 -237.213351 
L 677.385538 -234.813065 
L 677.494222 -232.412778 
L 677.636156 -230.012491 
L 677.813095 -227.612204 
L 678.026395 -225.211918 
L 678.276968 -222.811631 
L 678.565253 -220.411344 
L 678.891178 -218.011057 
L 679.254141 -215.610771 
L 679.652991 -213.210484 
L 680.086021 -210.810197 
L 680.550964 -208.40991 
L 681.045009 -206.009624 
L 681.564814 -203.609337 
L 682.106538 -201.20905 
L 682.665881 -198.808763 
L 683.238127 -196.408477 
L 683.818204 -194.00819 
L 684.400748 -191.607903 
L 684.98017 -189.207616 
L 685.550733 -186.80733 
L 686.106632 -184.407043 
L 686.642076 -182.006756 
L 687.151366 -179.606469 
L 687.628983 -177.206183 
L 688.069661 -174.805896 
L 688.468468 -172.405609 
L 688.820871 -170.005322 
L 689.122803 -167.605036 
L 689.370718 -165.204749 
L 689.56164 -162.804462 
L 689.693202 -160.404176 
L 689.763673 -158.003889 
L 689.77198 -155.603602 
L 689.71772 -153.203315 
L 689.601152 -150.803029 
L 689.423196 -148.402742 
L 689.185406 -146.002455 
L 688.889945 -143.602168 
L 688.539551 -141.201882 
L 688.137484 -138.801595 
L 687.687483 -136.401308 
L 687.193703 -134.001021 
L 686.660656 -131.600735 
L 686.093141 -129.200448 
L 685.496176 -126.800161 
L 684.874927 -124.399874 
L 684.234633 -121.999588 
L 683.58054 -119.599301 
L 682.917827 -117.199014 
L 682.251539 -114.798727 
L 681.586527 -112.398441 
L 680.927391 -109.998154 
L 680.278425 -107.597867 
L 679.643579 -105.19758 
L 679.026417 -102.797294 
L 678.430092 -100.397007 
L 677.857325 -97.99672 
L 677.310395 -95.596433 
z
" id="m10e65904a2" style="stroke:#414141;stroke-width:2;"/>
    </defs>
    <g clip-path="url(#p94cf08c387)">
     <use style="fill:#e270db;stroke:#414141;stroke-width:2;" x="0" xlink:href="#m10e65904a2" y="391.910113"/>
    </g>
   </g>
   <g id="line2d_1">
    <path clip-path="url(#p94cf08c387)" d="M 49.9631 237.607987 
L 719.5631 237.607987 
" style="fill:none;stroke:#404040;stroke-dasharray:5.55,2.4;stroke-dashoffset:0;stroke-width:1.5;"/>
   </g>
   <g id="line2d_2">
    <path clip-path="url(#p94cf08c387)" d="M 97.791671 273.542984 
L 97.791671 207.449357 
" style="fill:none;stroke:#414141;stroke-linecap:round;stroke-width:2;"/>
   </g>
   <g id="line2d_3">
    <path clip-path="url(#p94cf08c387)" d="M 97.791671 266.941741 
L 97.791671 230.761703 
" style="fill:none;stroke:#414141;stroke-linecap:round;stroke-width:6;"/>
   </g>
   <g id="line2d_4">
    <path clip-path="url(#p94cf08c387)" d="M 193.448814 285.61752 
L 193.448814 196.260509 
" style="fill:none;stroke:#414141;stroke-linecap:round;stroke-width:2;"/>
   </g>
   <g id="line2d_5">
    <path clip-path="url(#p94cf08c387)" d="M 193.448814 243.107036 
L 193.448814 211.528377 
" style="fill:none;stroke:#414141;stroke-linecap:round;stroke-width:6;"/>
   </g>
   <g id="line2d_6">
    <path clip-path="url(#p94cf08c387)" d="M 289.105957 271.614015 
L 289.105957 186.382063 
" style="fill:none;stroke:#414141;stroke-linecap:round;stroke-width:2;"/>
   </g>
   <g id="line2d_7">
    <path clip-path="url(#p94cf08c387)" d="M 289.105957 239.601992 
L 289.105957 212.411948 
" style="fill:none;stroke:#414141;stroke-linecap:round;stroke-width:6;"/>
   </g>
   <g id="line2d_8">
    <path clip-path="url(#p94cf08c387)" d="M 384.7631 296.909806 
L 384.7631 165.836161 
" style="fill:none;stroke:#414141;stroke-linecap:round;stroke-width:2;"/>
   </g>
   <g id="line2d_9">
    <path clip-path="url(#p94cf08c387)" d="M 384.7631 244.636119 
L 384.7631 200.731724 
" style="fill:none;stroke:#414141;stroke-linecap:round;stroke-width:6;"/>
   </g>
   <g id="line2d_10">
    <path clip-path="url(#p94cf08c387)" d="M 480.420243 279.757895 
L 480.420243 174.602681 
" style="fill:none;stroke:#414141;stroke-linecap:round;stroke-width:2;"/>
   </g>
   <g id="line2d_11">
    <path clip-path="url(#p94cf08c387)" d="M 480.420243 242.553622 
L 480.420243 210.888396 
" style="fill:none;stroke:#414141;stroke-linecap:round;stroke-width:6;"/>
   </g>
   <g id="line2d_12">
    <path clip-path="url(#p94cf08c387)" d="M 576.077386 270.905516 
L 576.077386 169.847309 
" style="fill:none;stroke:#414141;stroke-linecap:round;stroke-width:2;"/>
   </g>
   <g id="line2d_13">
    <path clip-path="url(#p94cf08c387)" d="M 576.077386 259.495003 
L 576.077386 194.045384 
" style="fill:none;stroke:#414141;stroke-linecap:round;stroke-width:6;"/>
   </g>
   <g id="line2d_14">
    <path clip-path="url(#p94cf08c387)" d="M 671.734529 262.719169 
L 671.734529 92.279802 
" style="fill:none;stroke:#414141;stroke-linecap:round;stroke-width:2;"/>
   </g>
   <g id="line2d_15">
    <path clip-path="url(#p94cf08c387)" d="M 671.734529 246.259781 
L 671.734529 184.634173 
" style="fill:none;stroke:#414141;stroke-linecap:round;stroke-width:6;"/>
   </g>
   <g id="patch_3">
    <path d="M 49.9631 368.071987 
L 49.9631 41.911987 
" style="fill:none;stroke:#262626;stroke-linecap:square;stroke-linejoin:miter;stroke-width:1.25;"/>
   </g>
   <g id="patch_4">
    <path d="M 719.5631 368.071987 
L 719.5631 41.911987 
" style="fill:none;stroke:#262626;stroke-linecap:square;stroke-linejoin:miter;stroke-width:1.25;"/>
   </g>
   <g id="patch_5">
    <path d="M 49.9631 368.071988 
L 719.5631 368.071988 
" style="fill:none;stroke:#262626;stroke-linecap:square;stroke-linejoin:miter;stroke-width:1.25;"/>
   </g>
   <g id="patch_6">
    <path d="M 49.9631 41.911988 
L 719.5631 41.911988 
" style="fill:none;stroke:#262626;stroke-linecap:square;stroke-linejoin:miter;stroke-width:1.25;"/>
   </g>
   <g id="PathCollection_1">
    <defs>
     <path d="M 0 2 
C 0.530406 2 1.03916 1.789267 1.414214 1.414214 
C 1.789267 1.03916 2 0.530406 2 0 
C 2 -0.530406 1.789267 -1.03916 1.414214 -1.414214 
C 1.03916 -1.789267 0.530406 -2 0 -2 
C -0.530406 -2 -1.03916 -1.789267 -1.414214 -1.414214 
C -1.789267 -1.03916 -2 -0.530406 -2 0 
C -2 0.530406 -1.789267 1.03916 -1.414214 1.414214 
C -1.03916 1.789267 -0.530406 2 0 2 
z
" id="m5e66627872" style="stroke:#414141;"/>
    </defs>
    <g clip-path="url(#p94cf08c387)">
     <use style="fill:#ffffff;stroke:#414141;" x="97.791671" xlink:href="#m5e66627872" y="253.676623"/>
    </g>
   </g>
   <g id="PathCollection_2">
    <g clip-path="url(#p94cf08c387)">
     <use style="fill:#ffffff;stroke:#414141;" x="193.448814" xlink:href="#m5e66627872" y="225.626194"/>
    </g>
   </g>
   <g id="PathCollection_3">
    <g clip-path="url(#p94cf08c387)">
     <use style="fill:#ffffff;stroke:#414141;" x="289.105957" xlink:href="#m5e66627872" y="220.414942"/>
    </g>
   </g>
   <g id="PathCollection_4">
    <g clip-path="url(#p94cf08c387)">
     <use style="fill:#ffffff;stroke:#414141;" x="384.7631" xlink:href="#m5e66627872" y="227.722418"/>
    </g>
   </g>
   <g id="PathCollection_5">
    <g clip-path="url(#p94cf08c387)">
     <use style="fill:#ffffff;stroke:#414141;" x="480.420243" xlink:href="#m5e66627872" y="223.130205"/>
    </g>
   </g>
   <g id="PathCollection_6">
    <g clip-path="url(#p94cf08c387)">
     <use style="fill:#ffffff;stroke:#414141;" x="576.077386" xlink:href="#m5e66627872" y="215.130604"/>
    </g>
   </g>
   <g id="PathCollection_7">
    <g clip-path="url(#p94cf08c387)">
     <use style="fill:#ffffff;stroke:#414141;" x="671.734529" xlink:href="#m5e66627872" y="224.7886"/>
    </g>
   </g>
   <g id="text_15">
    <!-- Accidents after the start of DST in California (20012016) -->
    <defs>
     <path d="M 58.796875 25.09375 
L 68.265625 22.703125 
Q 65.28125 11.03125 57.546875 4.90625 
Q 49.8125 -1.21875 38.625 -1.21875 
Q 27.046875 -1.21875 19.796875 3.484375 
Q 12.546875 8.203125 8.765625 17.140625 
Q 4.984375 26.078125 4.984375 36.328125 
Q 4.984375 47.515625 9.25 55.828125 
Q 13.53125 64.15625 21.40625 68.46875 
Q 29.296875 72.796875 38.765625 72.796875 
Q 49.515625 72.796875 56.828125 67.328125 
Q 64.15625 61.859375 67.046875 51.953125 
L 57.71875 49.75 
Q 55.21875 57.5625 50.484375 61.125 
Q 45.75 64.703125 38.578125 64.703125 
Q 30.328125 64.703125 24.78125 60.734375 
Q 19.234375 56.78125 16.984375 50.109375 
Q 14.75 43.453125 14.75 36.375 
Q 14.75 27.25 17.40625 20.4375 
Q 20.0625 13.625 25.671875 10.25 
Q 31.296875 6.890625 37.84375 6.890625 
Q 45.796875 6.890625 51.3125 11.46875 
Q 56.84375 16.0625 58.796875 25.09375 
z
" id="ArialMT-43"/>
     <path d="M 6.390625 0 
L 6.390625 71.578125 
L 15.1875 71.578125 
L 15.1875 0 
z
" id="ArialMT-6c"/>
     <path d="M -0.203125 22.359375 
L -0.203125 29.4375 
L 55.421875 29.4375 
L 55.421875 22.359375 
z
" id="ArialMT-2013"/>
    </defs>
    <g style="fill:#262626;" transform="translate(54.5631 26.127187)scale(0.26 -0.26)">
     <use xlink:href="#ArialMT-41"/>
     <use x="66.699219" xlink:href="#ArialMT-63"/>
     <use x="116.699219" xlink:href="#ArialMT-63"/>
     <use x="166.699219" xlink:href="#ArialMT-69"/>
     <use x="188.916016" xlink:href="#ArialMT-64"/>
     <use x="244.53125" xlink:href="#ArialMT-65"/>
     <use x="300.146484" xlink:href="#ArialMT-6e"/>
     <use x="355.761719" xlink:href="#ArialMT-74"/>
     <use x="383.544922" xlink:href="#ArialMT-73"/>
     <use x="433.544922" xlink:href="#ArialMT-20"/>
     <use x="461.328125" xlink:href="#ArialMT-61"/>
     <use x="516.943359" xlink:href="#ArialMT-66"/>
     <use x="544.726562" xlink:href="#ArialMT-74"/>
     <use x="572.509766" xlink:href="#ArialMT-65"/>
     <use x="628.125" xlink:href="#ArialMT-72"/>
     <use x="661.425781" xlink:href="#ArialMT-20"/>
     <use x="689.208984" xlink:href="#ArialMT-74"/>
     <use x="716.992188" xlink:href="#ArialMT-68"/>
     <use x="772.607422" xlink:href="#ArialMT-65"/>
     <use x="828.222656" xlink:href="#ArialMT-20"/>
     <use x="856.005859" xlink:href="#ArialMT-73"/>
     <use x="906.005859" xlink:href="#ArialMT-74"/>
     <use x="933.789062" xlink:href="#ArialMT-61"/>
     <use x="989.404297" xlink:href="#ArialMT-72"/>
     <use x="1022.705078" xlink:href="#ArialMT-74"/>
     <use x="1050.488281" xlink:href="#ArialMT-20"/>
     <use x="1078.271484" xlink:href="#ArialMT-6f"/>
     <use x="1133.886719" xlink:href="#ArialMT-66"/>
     <use x="1161.669922" xlink:href="#ArialMT-20"/>
     <use x="1189.453125" xlink:href="#ArialMT-44"/>
     <use x="1261.669922" xlink:href="#ArialMT-53"/>
     <use x="1328.369141" xlink:href="#ArialMT-54"/>
     <use x="1389.4375" xlink:href="#ArialMT-20"/>
     <use x="1417.220703" xlink:href="#ArialMT-69"/>
     <use x="1439.4375" xlink:href="#ArialMT-6e"/>
     <use x="1495.052734" xlink:href="#ArialMT-20"/>
     <use x="1522.835938" xlink:href="#ArialMT-43"/>
     <use x="1595.052734" xlink:href="#ArialMT-61"/>
     <use x="1650.667969" xlink:href="#ArialMT-6c"/>
     <use x="1672.884766" xlink:href="#ArialMT-69"/>
     <use x="1695.101562" xlink:href="#ArialMT-66"/>
     <use x="1722.884766" xlink:href="#ArialMT-6f"/>
     <use x="1778.5" xlink:href="#ArialMT-72"/>
     <use x="1811.800781" xlink:href="#ArialMT-6e"/>
     <use x="1867.416016" xlink:href="#ArialMT-69"/>
     <use x="1889.632812" xlink:href="#ArialMT-61"/>
     <use x="1945.248047" xlink:href="#ArialMT-20"/>
     <use x="1973.03125" xlink:href="#ArialMT-28"/>
     <use x="2006.332031" xlink:href="#ArialMT-32"/>
     <use x="2061.947266" xlink:href="#ArialMT-30"/>
     <use x="2117.5625" xlink:href="#ArialMT-30"/>
     <use x="2173.177734" xlink:href="#ArialMT-31"/>
     <use x="2228.792969" xlink:href="#ArialMT-2013"/>
     <use x="2284.408203" xlink:href="#ArialMT-32"/>
     <use x="2340.023438" xlink:href="#ArialMT-30"/>
     <use x="2395.638672" xlink:href="#ArialMT-31"/>
     <use x="2451.253906" xlink:href="#ArialMT-36"/>
     <use x="2506.869141" xlink:href="#ArialMT-29"/>
    </g>
   </g>
  </g>
 </g>
 <defs>
  <clipPath id="p94cf08c387">
   <rect height="326.16" width="669.6" x="49.9631" y="41.911988"/>
  </clipPath>
 </defs>
</svg>
