<?xml version="1.0" encoding="utf-8" standalone="no"?>
<!DOCTYPE svg PUBLIC "-//W3C//DTD SVG 1.1//EN"
  "http://www.w3.org/Graphics/SVG/1.1/DTD/svg11.dtd">
<!-- Created with matplotlib (http://matplotlib.org/) -->
<svg height="391.910113pt" version="1.1" viewBox="0 0 726.7631 391.910113" width="726.7631pt" xmlns="http://www.w3.org/2000/svg" xmlns:xlink="http://www.w3.org/1999/xlink">
 <defs>
  <style type="text/css">
*{stroke-linecap:butt;stroke-linejoin:round;}
  </style>
 </defs>
 <g id="figure_1">
  <g id="patch_1">
   <path d="M 0 391.910113 
L 726.7631 391.910113 
L 726.7631 0 
L 0 0 
z
" style="fill:#ffffff;"/>
  </g>
  <g id="axes_1">
   <g id="patch_2">
    <path d="M 49.9631 368.071988 
L 719.5631 368.071988 
L 719.5631 41.911988 
L 49.9631 41.911988 
z
" style="fill:#ffffff;"/>
   </g>
   <g id="matplotlib.axis_1">
    <g id="xtick_1">
     <g id="text_1">
      <!-- Sunday (DST) -->
      <defs>
       <path d="M 4.5 23 
L 13.421875 23.78125 
Q 14.0625 18.40625 16.375 14.96875 
Q 18.703125 11.53125 23.578125 9.40625 
Q 28.46875 7.28125 34.578125 7.28125 
Q 39.984375 7.28125 44.140625 8.890625 
Q 48.296875 10.5 50.3125 13.296875 
Q 52.34375 16.109375 52.34375 19.4375 
Q 52.34375 22.796875 50.390625 25.3125 
Q 48.4375 27.828125 43.953125 29.546875 
Q 41.0625 30.671875 31.203125 33.03125 
Q 21.34375 35.40625 17.390625 37.5 
Q 12.25 40.1875 9.734375 44.15625 
Q 7.234375 48.140625 7.234375 53.078125 
Q 7.234375 58.5 10.296875 63.203125 
Q 13.375 67.921875 19.28125 70.359375 
Q 25.203125 72.796875 32.421875 72.796875 
Q 40.375 72.796875 46.453125 70.234375 
Q 52.546875 67.671875 55.8125 62.6875 
Q 59.078125 57.71875 59.328125 51.421875 
L 50.25 50.734375 
Q 49.515625 57.515625 45.28125 60.984375 
Q 41.0625 64.453125 32.8125 64.453125 
Q 24.21875 64.453125 20.28125 61.296875 
Q 16.359375 58.15625 16.359375 53.71875 
Q 16.359375 49.859375 19.140625 47.359375 
Q 21.875 44.875 33.421875 42.265625 
Q 44.96875 39.65625 49.265625 37.703125 
Q 55.515625 34.8125 58.484375 30.390625 
Q 61.46875 25.984375 61.46875 20.21875 
Q 61.46875 14.5 58.203125 9.4375 
Q 54.9375 4.390625 48.796875 1.578125 
Q 42.671875 -1.21875 35.015625 -1.21875 
Q 25.296875 -1.21875 18.71875 1.609375 
Q 12.15625 4.4375 8.421875 10.125 
Q 4.6875 15.828125 4.5 23 
z
" id="ArialMT-53"/>
       <path d="M 40.578125 0 
L 40.578125 7.625 
Q 34.515625 -1.171875 24.125 -1.171875 
Q 19.53125 -1.171875 15.546875 0.578125 
Q 11.578125 2.34375 9.640625 5 
Q 7.71875 7.671875 6.9375 11.53125 
Q 6.390625 14.109375 6.390625 19.734375 
L 6.390625 51.859375 
L 15.1875 51.859375 
L 15.1875 23.09375 
Q 15.1875 16.21875 15.71875 13.8125 
Q 16.546875 10.359375 19.234375 8.375 
Q 21.921875 6.390625 25.875 6.390625 
Q 29.828125 6.390625 33.296875 8.421875 
Q 36.765625 10.453125 38.203125 13.9375 
Q 39.65625 17.4375 39.65625 24.078125 
L 39.65625 51.859375 
L 48.4375 51.859375 
L 48.4375 0 
z
" id="ArialMT-75"/>
       <path d="M 6.59375 0 
L 6.59375 51.859375 
L 14.5 51.859375 
L 14.5 44.484375 
Q 20.21875 53.03125 31 53.03125 
Q 35.6875 53.03125 39.625 51.34375 
Q 43.5625 49.65625 45.515625 46.921875 
Q 47.46875 44.1875 48.25 40.4375 
Q 48.734375 37.984375 48.734375 31.890625 
L 48.734375 0 
L 39.9375 0 
L 39.9375 31.546875 
Q 39.9375 36.921875 38.90625 39.578125 
Q 37.890625 42.234375 35.28125 43.8125 
Q 32.671875 45.40625 29.15625 45.40625 
Q 23.53125 45.40625 19.453125 41.84375 
Q 15.375 38.28125 15.375 28.328125 
L 15.375 0 
z
" id="ArialMT-6e"/>
       <path d="M 40.234375 0 
L 40.234375 6.546875 
Q 35.296875 -1.171875 25.734375 -1.171875 
Q 19.53125 -1.171875 14.328125 2.25 
Q 9.125 5.671875 6.265625 11.796875 
Q 3.421875 17.921875 3.421875 25.875 
Q 3.421875 33.640625 6 39.96875 
Q 8.59375 46.296875 13.765625 49.65625 
Q 18.953125 53.03125 25.34375 53.03125 
Q 30.03125 53.03125 33.6875 51.046875 
Q 37.359375 49.078125 39.65625 45.90625 
L 39.65625 71.578125 
L 48.390625 71.578125 
L 48.390625 0 
z
M 12.453125 25.875 
Q 12.453125 15.921875 16.640625 10.984375 
Q 20.84375 6.0625 26.5625 6.0625 
Q 32.328125 6.0625 36.34375 10.765625 
Q 40.375 15.484375 40.375 25.140625 
Q 40.375 35.796875 36.265625 40.765625 
Q 32.171875 45.75 26.171875 45.75 
Q 20.3125 45.75 16.375 40.96875 
Q 12.453125 36.1875 12.453125 25.875 
z
" id="ArialMT-64"/>
       <path d="M 40.4375 6.390625 
Q 35.546875 2.25 31.03125 0.53125 
Q 26.515625 -1.171875 21.34375 -1.171875 
Q 12.796875 -1.171875 8.203125 3 
Q 3.609375 7.171875 3.609375 13.671875 
Q 3.609375 17.484375 5.34375 20.625 
Q 7.078125 23.78125 9.890625 25.6875 
Q 12.703125 27.59375 16.21875 28.5625 
Q 18.796875 29.25 24.03125 29.890625 
Q 34.671875 31.15625 39.703125 32.90625 
Q 39.75 34.71875 39.75 35.203125 
Q 39.75 40.578125 37.25 42.78125 
Q 33.890625 45.75 27.25 45.75 
Q 21.046875 45.75 18.09375 43.578125 
Q 15.140625 41.40625 13.71875 35.890625 
L 5.125 37.0625 
Q 6.296875 42.578125 8.984375 45.96875 
Q 11.671875 49.359375 16.75 51.1875 
Q 21.828125 53.03125 28.515625 53.03125 
Q 35.15625 53.03125 39.296875 51.46875 
Q 43.453125 49.90625 45.40625 47.53125 
Q 47.359375 45.171875 48.140625 41.546875 
Q 48.578125 39.3125 48.578125 33.453125 
L 48.578125 21.734375 
Q 48.578125 9.46875 49.140625 6.21875 
Q 49.703125 2.984375 51.375 0 
L 42.1875 0 
Q 40.828125 2.734375 40.4375 6.390625 
z
M 39.703125 26.03125 
Q 34.90625 24.078125 25.34375 22.703125 
Q 19.921875 21.921875 17.671875 20.9375 
Q 15.4375 19.96875 14.203125 18.09375 
Q 12.984375 16.21875 12.984375 13.921875 
Q 12.984375 10.40625 15.640625 8.0625 
Q 18.3125 5.71875 23.4375 5.71875 
Q 28.515625 5.71875 32.46875 7.9375 
Q 36.421875 10.15625 38.28125 14.015625 
Q 39.703125 17 39.703125 22.796875 
z
" id="ArialMT-61"/>
       <path d="M 6.203125 -19.96875 
L 5.21875 -11.71875 
Q 8.109375 -12.5 10.25 -12.5 
Q 13.1875 -12.5 14.9375 -11.515625 
Q 16.703125 -10.546875 17.828125 -8.796875 
Q 18.65625 -7.46875 20.515625 -2.25 
Q 20.75 -1.515625 21.296875 -0.09375 
L 1.609375 51.859375 
L 11.078125 51.859375 
L 21.875 21.828125 
Q 23.96875 16.109375 25.640625 9.8125 
Q 27.15625 15.875 29.25 21.625 
L 40.328125 51.859375 
L 49.125 51.859375 
L 29.390625 -0.875 
Q 26.21875 -9.421875 24.46875 -12.640625 
Q 22.125 -17 19.09375 -19.015625 
Q 16.0625 -21.046875 11.859375 -21.046875 
Q 9.328125 -21.046875 6.203125 -19.96875 
z
" id="ArialMT-79"/>
       <path id="ArialMT-20"/>
       <path d="M 23.390625 -21.046875 
Q 16.109375 -11.859375 11.078125 0.4375 
Q 6.0625 12.75 6.0625 25.921875 
Q 6.0625 37.546875 9.8125 48.1875 
Q 14.203125 60.546875 23.390625 72.796875 
L 29.6875 72.796875 
Q 23.78125 62.640625 21.875 58.296875 
Q 18.890625 51.5625 17.1875 44.234375 
Q 15.09375 35.109375 15.09375 25.875 
Q 15.09375 2.390625 29.6875 -21.046875 
z
" id="ArialMT-28"/>
       <path d="M 7.71875 0 
L 7.71875 71.578125 
L 32.375 71.578125 
Q 40.71875 71.578125 45.125 70.5625 
Q 51.265625 69.140625 55.609375 65.4375 
Q 61.28125 60.640625 64.078125 53.1875 
Q 66.890625 45.75 66.890625 36.1875 
Q 66.890625 28.03125 64.984375 21.734375 
Q 63.09375 15.4375 60.109375 11.296875 
Q 57.125 7.171875 53.578125 4.796875 
Q 50.046875 2.4375 45.046875 1.21875 
Q 40.046875 0 33.546875 0 
z
M 17.1875 8.453125 
L 32.46875 8.453125 
Q 39.546875 8.453125 43.578125 9.765625 
Q 47.609375 11.078125 50 13.484375 
Q 53.375 16.84375 55.25 22.53125 
Q 57.125 28.21875 57.125 36.328125 
Q 57.125 47.5625 53.4375 53.59375 
Q 49.75 59.625 44.484375 61.671875 
Q 40.671875 63.140625 32.234375 63.140625 
L 17.1875 63.140625 
z
" id="ArialMT-44"/>
       <path d="M 25.921875 0 
L 25.921875 63.140625 
L 2.34375 63.140625 
L 2.34375 71.578125 
L 59.078125 71.578125 
L 59.078125 63.140625 
L 35.40625 63.140625 
L 35.40625 0 
z
" id="ArialMT-54"/>
       <path d="M 12.359375 -21.046875 
L 6.0625 -21.046875 
Q 20.65625 2.390625 20.65625 25.875 
Q 20.65625 35.0625 18.5625 44.09375 
Q 16.890625 51.421875 13.921875 58.15625 
Q 12.015625 62.546875 6.0625 72.796875 
L 12.359375 72.796875 
Q 21.53125 60.546875 25.921875 48.1875 
Q 29.6875 37.546875 29.6875 25.921875 
Q 29.6875 12.75 24.625 0.4375 
Q 19.578125 -11.859375 12.359375 -21.046875 
z
" id="ArialMT-29"/>
      </defs>
      <g style="fill:#262626;" transform="translate(53.445578 381.76355)scale(0.14 -0.14)">
       <use xlink:href="#ArialMT-53"/>
       <use x="66.699219" xlink:href="#ArialMT-75"/>
       <use x="122.314453" xlink:href="#ArialMT-6e"/>
       <use x="177.929688" xlink:href="#ArialMT-64"/>
       <use x="233.544922" xlink:href="#ArialMT-61"/>
       <use x="289.160156" xlink:href="#ArialMT-79"/>
       <use x="339.160156" xlink:href="#ArialMT-20"/>
       <use x="366.943359" xlink:href="#ArialMT-28"/>
       <use x="400.244141" xlink:href="#ArialMT-44"/>
       <use x="472.460938" xlink:href="#ArialMT-53"/>
       <use x="539.160156" xlink:href="#ArialMT-54"/>
       <use x="600.244141" xlink:href="#ArialMT-29"/>
      </g>
     </g>
    </g>
    <g id="xtick_2">
     <g id="text_2">
      <!-- Monday -->
      <defs>
       <path d="M 7.421875 0 
L 7.421875 71.578125 
L 21.6875 71.578125 
L 38.625 20.90625 
Q 40.96875 13.8125 42.046875 10.296875 
Q 43.265625 14.203125 45.84375 21.78125 
L 62.984375 71.578125 
L 75.734375 71.578125 
L 75.734375 0 
L 66.609375 0 
L 66.609375 59.90625 
L 45.796875 0 
L 37.25 0 
L 16.546875 60.9375 
L 16.546875 0 
z
" id="ArialMT-4d"/>
       <path d="M 3.328125 25.921875 
Q 3.328125 40.328125 11.328125 47.265625 
Q 18.015625 53.03125 27.640625 53.03125 
Q 38.328125 53.03125 45.109375 46.015625 
Q 51.90625 39.015625 51.90625 26.65625 
Q 51.90625 16.65625 48.90625 10.90625 
Q 45.90625 5.171875 40.15625 2 
Q 34.421875 -1.171875 27.640625 -1.171875 
Q 16.75 -1.171875 10.03125 5.8125 
Q 3.328125 12.796875 3.328125 25.921875 
z
M 12.359375 25.921875 
Q 12.359375 15.96875 16.703125 11.015625 
Q 21.046875 6.0625 27.640625 6.0625 
Q 34.1875 6.0625 38.53125 11.03125 
Q 42.875 16.015625 42.875 26.21875 
Q 42.875 35.84375 38.5 40.796875 
Q 34.125 45.75 27.640625 45.75 
Q 21.046875 45.75 16.703125 40.8125 
Q 12.359375 35.890625 12.359375 25.921875 
z
" id="ArialMT-6f"/>
      </defs>
      <g style="fill:#262626;" transform="translate(168.547408 381.592925)scale(0.14 -0.14)">
       <use xlink:href="#ArialMT-4d"/>
       <use x="83.300781" xlink:href="#ArialMT-6f"/>
       <use x="138.916016" xlink:href="#ArialMT-6e"/>
       <use x="194.53125" xlink:href="#ArialMT-64"/>
       <use x="250.146484" xlink:href="#ArialMT-61"/>
       <use x="305.761719" xlink:href="#ArialMT-79"/>
      </g>
     </g>
    </g>
    <g id="xtick_3">
     <g id="text_3">
      <!-- Tuesday -->
      <defs>
       <path d="M 42.09375 16.703125 
L 51.171875 15.578125 
Q 49.03125 7.625 43.21875 3.21875 
Q 37.40625 -1.171875 28.375 -1.171875 
Q 17 -1.171875 10.328125 5.828125 
Q 3.65625 12.84375 3.65625 25.484375 
Q 3.65625 38.578125 10.390625 45.796875 
Q 17.140625 53.03125 27.875 53.03125 
Q 38.28125 53.03125 44.875 45.953125 
Q 51.46875 38.875 51.46875 26.03125 
Q 51.46875 25.25 51.421875 23.6875 
L 12.75 23.6875 
Q 13.234375 15.140625 17.578125 10.59375 
Q 21.921875 6.0625 28.421875 6.0625 
Q 33.25 6.0625 36.671875 8.59375 
Q 40.09375 11.140625 42.09375 16.703125 
z
M 13.234375 30.90625 
L 42.1875 30.90625 
Q 41.609375 37.453125 38.875 40.71875 
Q 34.671875 45.796875 27.984375 45.796875 
Q 21.921875 45.796875 17.796875 41.75 
Q 13.671875 37.703125 13.234375 30.90625 
z
" id="ArialMT-65"/>
       <path d="M 3.078125 15.484375 
L 11.765625 16.84375 
Q 12.5 11.625 15.84375 8.84375 
Q 19.1875 6.0625 25.203125 6.0625 
Q 31.25 6.0625 34.171875 8.515625 
Q 37.109375 10.984375 37.109375 14.3125 
Q 37.109375 17.28125 34.515625 19 
Q 32.71875 20.171875 25.53125 21.96875 
Q 15.875 24.421875 12.140625 26.203125 
Q 8.40625 27.984375 6.46875 31.125 
Q 4.546875 34.28125 4.546875 38.09375 
Q 4.546875 41.546875 6.125 44.5 
Q 7.71875 47.46875 10.453125 49.421875 
Q 12.5 50.921875 16.03125 51.96875 
Q 19.578125 53.03125 23.640625 53.03125 
Q 29.734375 53.03125 34.34375 51.265625 
Q 38.96875 49.515625 41.15625 46.5 
Q 43.359375 43.5 44.1875 38.484375 
L 35.59375 37.3125 
Q 35.015625 41.3125 32.203125 43.546875 
Q 29.390625 45.796875 24.265625 45.796875 
Q 18.21875 45.796875 15.625 43.796875 
Q 13.03125 41.796875 13.03125 39.109375 
Q 13.03125 37.40625 14.109375 36.03125 
Q 15.1875 34.625 17.484375 33.6875 
Q 18.796875 33.203125 25.25 31.453125 
Q 34.578125 28.953125 38.25 27.359375 
Q 41.9375 25.78125 44.03125 22.75 
Q 46.140625 19.734375 46.140625 15.234375 
Q 46.140625 10.84375 43.578125 6.953125 
Q 41.015625 3.078125 36.171875 0.953125 
Q 31.34375 -1.171875 25.25 -1.171875 
Q 15.140625 -1.171875 9.84375 3.03125 
Q 4.546875 7.234375 3.078125 15.484375 
z
" id="ArialMT-73"/>
      </defs>
      <g style="fill:#262626;" transform="translate(262.263145 381.592925)scale(0.14 -0.14)">
       <use xlink:href="#ArialMT-54"/>
       <use x="61.037109" xlink:href="#ArialMT-75"/>
       <use x="116.652344" xlink:href="#ArialMT-65"/>
       <use x="172.267578" xlink:href="#ArialMT-73"/>
       <use x="222.267578" xlink:href="#ArialMT-64"/>
       <use x="277.882812" xlink:href="#ArialMT-61"/>
       <use x="333.498047" xlink:href="#ArialMT-79"/>
      </g>
     </g>
    </g>
    <g id="xtick_4">
     <g id="text_4">
      <!-- Wednesday -->
      <defs>
       <path d="M 20.21875 0 
L 1.21875 71.578125 
L 10.9375 71.578125 
L 21.828125 24.65625 
Q 23.578125 17.28125 24.859375 10.015625 
Q 27.59375 21.484375 28.078125 23.25 
L 41.703125 71.578125 
L 53.125 71.578125 
L 63.375 35.359375 
Q 67.234375 21.875 68.953125 10.015625 
Q 70.3125 16.796875 72.515625 25.59375 
L 83.734375 71.578125 
L 93.265625 71.578125 
L 73.640625 0 
L 64.5 0 
L 49.421875 54.546875 
Q 47.515625 61.375 47.171875 62.9375 
Q 46.046875 58.015625 45.0625 54.546875 
L 29.890625 0 
z
" id="ArialMT-57"/>
      </defs>
      <g style="fill:#262626;" transform="translate(347.800912 381.592925)scale(0.14 -0.14)">
       <use xlink:href="#ArialMT-57"/>
       <use x="94.369141" xlink:href="#ArialMT-65"/>
       <use x="149.984375" xlink:href="#ArialMT-64"/>
       <use x="205.599609" xlink:href="#ArialMT-6e"/>
       <use x="261.214844" xlink:href="#ArialMT-65"/>
       <use x="316.830078" xlink:href="#ArialMT-73"/>
       <use x="366.830078" xlink:href="#ArialMT-64"/>
       <use x="422.445312" xlink:href="#ArialMT-61"/>
       <use x="478.060547" xlink:href="#ArialMT-79"/>
      </g>
     </g>
    </g>
    <g id="xtick_5">
     <g id="text_5">
      <!-- Thursday -->
      <defs>
       <path d="M 6.59375 0 
L 6.59375 71.578125 
L 15.375 71.578125 
L 15.375 45.90625 
Q 21.53125 53.03125 30.90625 53.03125 
Q 36.671875 53.03125 40.921875 50.75 
Q 45.171875 48.484375 47 44.484375 
Q 48.828125 40.484375 48.828125 32.859375 
L 48.828125 0 
L 40.046875 0 
L 40.046875 32.859375 
Q 40.046875 39.453125 37.1875 42.453125 
Q 34.328125 45.453125 29.109375 45.453125 
Q 25.203125 45.453125 21.75 43.421875 
Q 18.3125 41.40625 16.84375 37.9375 
Q 15.375 34.46875 15.375 28.375 
L 15.375 0 
z
" id="ArialMT-68"/>
       <path d="M 6.5 0 
L 6.5 51.859375 
L 14.40625 51.859375 
L 14.40625 44 
Q 17.4375 49.515625 20 51.265625 
Q 22.5625 53.03125 25.640625 53.03125 
Q 30.078125 53.03125 34.671875 50.203125 
L 31.640625 42.046875 
Q 28.421875 43.953125 25.203125 43.953125 
Q 22.3125 43.953125 20.015625 42.21875 
Q 17.71875 40.484375 16.75 37.40625 
Q 15.28125 32.71875 15.28125 27.15625 
L 15.28125 0 
z
" id="ArialMT-72"/>
      </defs>
      <g style="fill:#262626;" transform="translate(451.243368 381.592925)scale(0.14 -0.14)">
       <use xlink:href="#ArialMT-54"/>
       <use x="61.083984" xlink:href="#ArialMT-68"/>
       <use x="116.699219" xlink:href="#ArialMT-75"/>
       <use x="172.314453" xlink:href="#ArialMT-72"/>
       <use x="205.615234" xlink:href="#ArialMT-73"/>
       <use x="255.615234" xlink:href="#ArialMT-64"/>
       <use x="311.230469" xlink:href="#ArialMT-61"/>
       <use x="366.845703" xlink:href="#ArialMT-79"/>
      </g>
     </g>
    </g>
    <g id="xtick_6">
     <g id="text_6">
      <!-- Friday -->
      <defs>
       <path d="M 8.203125 0 
L 8.203125 71.578125 
L 56.5 71.578125 
L 56.5 63.140625 
L 17.671875 63.140625 
L 17.671875 40.96875 
L 51.265625 40.96875 
L 51.265625 32.515625 
L 17.671875 32.515625 
L 17.671875 0 
z
" id="ArialMT-46"/>
       <path d="M 6.640625 61.46875 
L 6.640625 71.578125 
L 15.4375 71.578125 
L 15.4375 61.46875 
z
M 6.640625 0 
L 6.640625 51.859375 
L 15.4375 51.859375 
L 15.4375 0 
z
" id="ArialMT-69"/>
      </defs>
      <g style="fill:#262626;" transform="translate(556.630511 381.592925)scale(0.14 -0.14)">
       <use xlink:href="#ArialMT-46"/>
       <use x="61.083984" xlink:href="#ArialMT-72"/>
       <use x="94.384766" xlink:href="#ArialMT-69"/>
       <use x="116.601562" xlink:href="#ArialMT-64"/>
       <use x="172.216797" xlink:href="#ArialMT-61"/>
       <use x="227.832031" xlink:href="#ArialMT-79"/>
      </g>
     </g>
    </g>
    <g id="xtick_7">
     <g id="text_7">
      <!-- Saturday -->
      <defs>
       <path d="M 25.78125 7.859375 
L 27.046875 0.09375 
Q 23.34375 -0.6875 20.40625 -0.6875 
Q 15.625 -0.6875 12.984375 0.828125 
Q 10.359375 2.34375 9.28125 4.8125 
Q 8.203125 7.28125 8.203125 15.1875 
L 8.203125 45.015625 
L 1.765625 45.015625 
L 1.765625 51.859375 
L 8.203125 51.859375 
L 8.203125 64.703125 
L 16.9375 69.96875 
L 16.9375 51.859375 
L 25.78125 51.859375 
L 25.78125 45.015625 
L 16.9375 45.015625 
L 16.9375 14.703125 
Q 16.9375 10.9375 17.40625 9.859375 
Q 17.875 8.796875 18.921875 8.15625 
Q 19.96875 7.515625 21.921875 7.515625 
Q 23.390625 7.515625 25.78125 7.859375 
z
" id="ArialMT-74"/>
      </defs>
      <g style="fill:#262626;" transform="translate(643.719216 381.76355)scale(0.14 -0.14)">
       <use xlink:href="#ArialMT-53"/>
       <use x="66.699219" xlink:href="#ArialMT-61"/>
       <use x="122.314453" xlink:href="#ArialMT-74"/>
       <use x="150.097656" xlink:href="#ArialMT-75"/>
       <use x="205.712891" xlink:href="#ArialMT-72"/>
       <use x="239.013672" xlink:href="#ArialMT-64"/>
       <use x="294.628906" xlink:href="#ArialMT-61"/>
       <use x="350.244141" xlink:href="#ArialMT-79"/>
      </g>
     </g>
    </g>
   </g>
   <g id="matplotlib.axis_2">
    <g id="ytick_1">
     <g id="text_8">
      <!-- 0.6 -->
      <defs>
       <path d="M 4.15625 35.296875 
Q 4.15625 48 6.765625 55.734375 
Q 9.375 63.484375 14.515625 67.671875 
Q 19.671875 71.875 27.484375 71.875 
Q 33.25 71.875 37.59375 69.546875 
Q 41.9375 67.234375 44.765625 62.859375 
Q 47.609375 58.5 49.21875 52.21875 
Q 50.828125 45.953125 50.828125 35.296875 
Q 50.828125 22.703125 48.234375 14.96875 
Q 45.65625 7.234375 40.5 3 
Q 35.359375 -1.21875 27.484375 -1.21875 
Q 17.140625 -1.21875 11.234375 6.203125 
Q 4.15625 15.140625 4.15625 35.296875 
z
M 13.1875 35.296875 
Q 13.1875 17.671875 17.3125 11.828125 
Q 21.4375 6 27.484375 6 
Q 33.546875 6 37.671875 11.859375 
Q 41.796875 17.71875 41.796875 35.296875 
Q 41.796875 52.984375 37.671875 58.78125 
Q 33.546875 64.59375 27.390625 64.59375 
Q 21.34375 64.59375 17.71875 59.46875 
Q 13.1875 52.9375 13.1875 35.296875 
z
" id="ArialMT-30"/>
       <path d="M 9.078125 0 
L 9.078125 10.015625 
L 19.09375 10.015625 
L 19.09375 0 
z
" id="ArialMT-2e"/>
       <path d="M 49.75 54.046875 
L 41.015625 53.375 
Q 39.84375 58.546875 37.703125 60.890625 
Q 34.125 64.65625 28.90625 64.65625 
Q 24.703125 64.65625 21.53125 62.3125 
Q 17.390625 59.28125 14.984375 53.46875 
Q 12.59375 47.65625 12.5 36.921875 
Q 15.671875 41.75 20.265625 44.09375 
Q 24.859375 46.4375 29.890625 46.4375 
Q 38.671875 46.4375 44.84375 39.96875 
Q 51.03125 33.5 51.03125 23.25 
Q 51.03125 16.5 48.125 10.71875 
Q 45.21875 4.9375 40.140625 1.859375 
Q 35.0625 -1.21875 28.609375 -1.21875 
Q 17.625 -1.21875 10.6875 6.859375 
Q 3.765625 14.9375 3.765625 33.5 
Q 3.765625 54.25 11.421875 63.671875 
Q 18.109375 71.875 29.4375 71.875 
Q 37.890625 71.875 43.28125 67.140625 
Q 48.6875 62.40625 49.75 54.046875 
z
M 13.875 23.1875 
Q 13.875 18.65625 15.796875 14.5 
Q 17.71875 10.359375 21.1875 8.171875 
Q 24.65625 6 28.46875 6 
Q 34.03125 6 38.03125 10.484375 
Q 42.046875 14.984375 42.046875 22.703125 
Q 42.046875 30.125 38.078125 34.390625 
Q 34.125 38.671875 28.125 38.671875 
Q 22.171875 38.671875 18.015625 34.390625 
Q 13.875 30.125 13.875 23.1875 
z
" id="ArialMT-36"/>
      </defs>
      <g style="fill:#262626;" transform="translate(27.0031 373.082456)scale(0.14 -0.14)">
       <use xlink:href="#ArialMT-30"/>
       <use x="55.615234" xlink:href="#ArialMT-2e"/>
       <use x="83.398438" xlink:href="#ArialMT-36"/>
      </g>
     </g>
    </g>
    <g id="ytick_2">
     <g id="text_9">
      <!-- 0.8 -->
      <defs>
       <path d="M 17.671875 38.8125 
Q 12.203125 40.828125 9.5625 44.53125 
Q 6.9375 48.25 6.9375 53.421875 
Q 6.9375 61.234375 12.546875 66.546875 
Q 18.171875 71.875 27.484375 71.875 
Q 36.859375 71.875 42.578125 66.421875 
Q 48.296875 60.984375 48.296875 53.171875 
Q 48.296875 48.1875 45.671875 44.5 
Q 43.0625 40.828125 37.75 38.8125 
Q 44.34375 36.671875 47.78125 31.875 
Q 51.21875 27.09375 51.21875 20.453125 
Q 51.21875 11.28125 44.71875 5.03125 
Q 38.234375 -1.21875 27.640625 -1.21875 
Q 17.046875 -1.21875 10.546875 5.046875 
Q 4.046875 11.328125 4.046875 20.703125 
Q 4.046875 27.6875 7.59375 32.390625 
Q 11.140625 37.109375 17.671875 38.8125 
z
M 15.921875 53.71875 
Q 15.921875 48.640625 19.1875 45.40625 
Q 22.46875 42.1875 27.6875 42.1875 
Q 32.765625 42.1875 36.015625 45.375 
Q 39.265625 48.578125 39.265625 53.21875 
Q 39.265625 58.0625 35.90625 61.359375 
Q 32.5625 64.65625 27.59375 64.65625 
Q 22.5625 64.65625 19.234375 61.421875 
Q 15.921875 58.203125 15.921875 53.71875 
z
M 13.09375 20.65625 
Q 13.09375 16.890625 14.875 13.375 
Q 16.65625 9.859375 20.171875 7.921875 
Q 23.6875 6 27.734375 6 
Q 34.03125 6 38.125 10.046875 
Q 42.234375 14.109375 42.234375 20.359375 
Q 42.234375 26.703125 38.015625 30.859375 
Q 33.796875 35.015625 27.4375 35.015625 
Q 21.234375 35.015625 17.15625 30.90625 
Q 13.09375 26.8125 13.09375 20.65625 
z
" id="ArialMT-38"/>
      </defs>
      <g style="fill:#262626;" transform="translate(27.0031 307.850456)scale(0.14 -0.14)">
       <use xlink:href="#ArialMT-30"/>
       <use x="55.615234" xlink:href="#ArialMT-2e"/>
       <use x="83.398438" xlink:href="#ArialMT-38"/>
      </g>
     </g>
    </g>
    <g id="ytick_3">
     <g id="text_10">
      <!-- 1.0 -->
      <defs>
       <path d="M 37.25 0 
L 28.46875 0 
L 28.46875 56 
Q 25.296875 52.984375 20.140625 49.953125 
Q 14.984375 46.921875 10.890625 45.40625 
L 10.890625 53.90625 
Q 18.265625 57.375 23.78125 62.296875 
Q 29.296875 67.234375 31.59375 71.875 
L 37.25 71.875 
z
" id="ArialMT-31"/>
      </defs>
      <g style="fill:#262626;" transform="translate(27.0031 242.618456)scale(0.14 -0.14)">
       <use xlink:href="#ArialMT-31"/>
       <use x="55.615234" xlink:href="#ArialMT-2e"/>
       <use x="83.398438" xlink:href="#ArialMT-30"/>
      </g>
     </g>
    </g>
    <g id="ytick_4">
     <g id="text_11">
      <!-- 1.2 -->
      <defs>
       <path d="M 50.34375 8.453125 
L 50.34375 0 
L 3.03125 0 
Q 2.9375 3.171875 4.046875 6.109375 
Q 5.859375 10.9375 9.828125 15.625 
Q 13.8125 20.3125 21.34375 26.46875 
Q 33.015625 36.03125 37.109375 41.625 
Q 41.21875 47.21875 41.21875 52.203125 
Q 41.21875 57.421875 37.46875 61 
Q 33.734375 64.59375 27.734375 64.59375 
Q 21.390625 64.59375 17.578125 60.78125 
Q 13.765625 56.984375 13.71875 50.25 
L 4.6875 51.171875 
Q 5.609375 61.28125 11.65625 66.578125 
Q 17.71875 71.875 27.9375 71.875 
Q 38.234375 71.875 44.234375 66.15625 
Q 50.25 60.453125 50.25 52 
Q 50.25 47.703125 48.484375 43.546875 
Q 46.734375 39.40625 42.65625 34.8125 
Q 38.578125 30.21875 29.109375 22.21875 
Q 21.1875 15.578125 18.9375 13.203125 
Q 16.703125 10.84375 15.234375 8.453125 
z
" id="ArialMT-32"/>
      </defs>
      <g style="fill:#262626;" transform="translate(27.0031 177.386456)scale(0.14 -0.14)">
       <use xlink:href="#ArialMT-31"/>
       <use x="55.615234" xlink:href="#ArialMT-2e"/>
       <use x="83.398438" xlink:href="#ArialMT-32"/>
      </g>
     </g>
    </g>
    <g id="ytick_5">
     <g id="text_12">
      <!-- 1.4 -->
      <defs>
       <path d="M 32.328125 0 
L 32.328125 17.140625 
L 1.265625 17.140625 
L 1.265625 25.203125 
L 33.9375 71.578125 
L 41.109375 71.578125 
L 41.109375 25.203125 
L 50.78125 25.203125 
L 50.78125 17.140625 
L 41.109375 17.140625 
L 41.109375 0 
z
M 32.328125 25.203125 
L 32.328125 57.46875 
L 9.90625 25.203125 
z
" id="ArialMT-34"/>
      </defs>
      <g style="fill:#262626;" transform="translate(27.0031 112.154456)scale(0.14 -0.14)">
       <use xlink:href="#ArialMT-31"/>
       <use x="55.615234" xlink:href="#ArialMT-2e"/>
       <use x="83.398438" xlink:href="#ArialMT-34"/>
      </g>
     </g>
    </g>
    <g id="ytick_6">
     <g id="text_13">
      <!-- 1.6 -->
      <g style="fill:#262626;" transform="translate(27.0031 46.922456)scale(0.14 -0.14)">
       <use xlink:href="#ArialMT-31"/>
       <use x="55.615234" xlink:href="#ArialMT-2e"/>
       <use x="83.398438" xlink:href="#ArialMT-36"/>
      </g>
     </g>
    </g>
    <g id="text_14">
     <!-- Accident Ratio: One Week / Three Weeks -->
     <defs>
      <path d="M -0.140625 0 
L 27.34375 71.578125 
L 37.546875 71.578125 
L 66.84375 0 
L 56.0625 0 
L 47.703125 21.6875 
L 17.78125 21.6875 
L 9.90625 0 
z
M 20.515625 29.390625 
L 44.78125 29.390625 
L 37.3125 49.21875 
Q 33.890625 58.25 32.234375 64.0625 
Q 30.859375 57.171875 28.375 50.390625 
z
" id="ArialMT-41"/>
      <path d="M 40.4375 19 
L 49.078125 17.875 
Q 47.65625 8.9375 41.8125 3.875 
Q 35.984375 -1.171875 27.484375 -1.171875 
Q 16.84375 -1.171875 10.375 5.78125 
Q 3.90625 12.75 3.90625 25.734375 
Q 3.90625 34.125 6.6875 40.421875 
Q 9.46875 46.734375 15.15625 49.875 
Q 20.84375 53.03125 27.546875 53.03125 
Q 35.984375 53.03125 41.359375 48.75 
Q 46.734375 44.484375 48.25 36.625 
L 39.703125 35.296875 
Q 38.484375 40.53125 35.375 43.15625 
Q 32.28125 45.796875 27.875 45.796875 
Q 21.234375 45.796875 17.078125 41.03125 
Q 12.9375 36.28125 12.9375 25.984375 
Q 12.9375 15.53125 16.9375 10.796875 
Q 20.953125 6.0625 27.390625 6.0625 
Q 32.5625 6.0625 36.03125 9.234375 
Q 39.5 12.40625 40.4375 19 
z
" id="ArialMT-63"/>
      <path d="M 7.859375 0 
L 7.859375 71.578125 
L 39.59375 71.578125 
Q 49.171875 71.578125 54.140625 69.640625 
Q 59.125 67.71875 62.109375 62.828125 
Q 65.09375 57.953125 65.09375 52.046875 
Q 65.09375 44.4375 60.15625 39.203125 
Q 55.21875 33.984375 44.921875 32.5625 
Q 48.6875 30.765625 50.640625 29 
Q 54.78125 25.203125 58.5 19.484375 
L 70.953125 0 
L 59.03125 0 
L 49.5625 14.890625 
Q 45.40625 21.34375 42.71875 24.75 
Q 40.046875 28.171875 37.921875 29.53125 
Q 35.796875 30.90625 33.59375 31.453125 
Q 31.984375 31.78125 28.328125 31.78125 
L 17.328125 31.78125 
L 17.328125 0 
z
M 17.328125 39.984375 
L 37.703125 39.984375 
Q 44.1875 39.984375 47.84375 41.328125 
Q 51.515625 42.671875 53.421875 45.625 
Q 55.328125 48.578125 55.328125 52.046875 
Q 55.328125 57.125 51.640625 60.390625 
Q 47.953125 63.671875 39.984375 63.671875 
L 17.328125 63.671875 
z
" id="ArialMT-52"/>
      <path d="M 9.03125 41.84375 
L 9.03125 51.859375 
L 19.046875 51.859375 
L 19.046875 41.84375 
z
M 9.03125 0 
L 9.03125 10.015625 
L 19.046875 10.015625 
L 19.046875 0 
z
" id="ArialMT-3a"/>
      <path d="M 4.828125 34.859375 
Q 4.828125 52.6875 14.390625 62.765625 
Q 23.96875 72.859375 39.109375 72.859375 
Q 49.03125 72.859375 56.984375 68.109375 
Q 64.9375 63.375 69.109375 54.90625 
Q 73.296875 46.4375 73.296875 35.6875 
Q 73.296875 24.8125 68.890625 16.21875 
Q 64.5 7.625 56.4375 3.203125 
Q 48.390625 -1.21875 39.0625 -1.21875 
Q 28.953125 -1.21875 20.984375 3.65625 
Q 13.03125 8.546875 8.921875 16.984375 
Q 4.828125 25.4375 4.828125 34.859375 
z
M 14.59375 34.71875 
Q 14.59375 21.78125 21.546875 14.328125 
Q 28.515625 6.890625 39.015625 6.890625 
Q 49.703125 6.890625 56.609375 14.40625 
Q 63.53125 21.921875 63.53125 35.75 
Q 63.53125 44.484375 60.578125 51 
Q 57.625 57.515625 51.921875 61.109375 
Q 46.234375 64.703125 39.15625 64.703125 
Q 29.109375 64.703125 21.84375 57.78125 
Q 14.59375 50.875 14.59375 34.71875 
z
" id="ArialMT-4f"/>
      <path d="M 6.640625 0 
L 6.640625 71.578125 
L 15.4375 71.578125 
L 15.4375 30.765625 
L 36.234375 51.859375 
L 47.609375 51.859375 
L 27.78125 32.625 
L 49.609375 0 
L 38.765625 0 
L 21.625 26.515625 
L 15.4375 20.5625 
L 15.4375 0 
z
" id="ArialMT-6b"/>
      <path d="M 0 -1.21875 
L 20.75 72.796875 
L 27.78125 72.796875 
L 7.078125 -1.21875 
z
" id="ArialMT-2f"/>
     </defs>
     <g style="fill:#262626;" transform="translate(19.5687 364.883287)rotate(-90)scale(0.1728 -0.1728)">
      <use xlink:href="#ArialMT-41"/>
      <use x="66.699219" xlink:href="#ArialMT-63"/>
      <use x="116.699219" xlink:href="#ArialMT-63"/>
      <use x="166.699219" xlink:href="#ArialMT-69"/>
      <use x="188.916016" xlink:href="#ArialMT-64"/>
      <use x="244.53125" xlink:href="#ArialMT-65"/>
      <use x="300.146484" xlink:href="#ArialMT-6e"/>
      <use x="355.761719" xlink:href="#ArialMT-74"/>
      <use x="383.544922" xlink:href="#ArialMT-20"/>
      <use x="411.328125" xlink:href="#ArialMT-52"/>
      <use x="483.544922" xlink:href="#ArialMT-61"/>
      <use x="539.160156" xlink:href="#ArialMT-74"/>
      <use x="566.943359" xlink:href="#ArialMT-69"/>
      <use x="589.160156" xlink:href="#ArialMT-6f"/>
      <use x="644.775391" xlink:href="#ArialMT-3a"/>
      <use x="672.558594" xlink:href="#ArialMT-20"/>
      <use x="700.341797" xlink:href="#ArialMT-4f"/>
      <use x="778.125" xlink:href="#ArialMT-6e"/>
      <use x="833.740234" xlink:href="#ArialMT-65"/>
      <use x="889.355469" xlink:href="#ArialMT-20"/>
      <use x="917.138672" xlink:href="#ArialMT-57"/>
      <use x="1011.507812" xlink:href="#ArialMT-65"/>
      <use x="1067.123047" xlink:href="#ArialMT-65"/>
      <use x="1122.738281" xlink:href="#ArialMT-6b"/>
      <use x="1172.738281" xlink:href="#ArialMT-20"/>
      <use x="1200.521484" xlink:href="#ArialMT-2f"/>
      <use x="1228.304688" xlink:href="#ArialMT-20"/>
      <use x="1256.072266" xlink:href="#ArialMT-54"/>
      <use x="1317.15625" xlink:href="#ArialMT-68"/>
      <use x="1372.771484" xlink:href="#ArialMT-72"/>
      <use x="1406.072266" xlink:href="#ArialMT-65"/>
      <use x="1461.6875" xlink:href="#ArialMT-65"/>
      <use x="1517.302734" xlink:href="#ArialMT-20"/>
      <use x="1545.085938" xlink:href="#ArialMT-57"/>
      <use x="1639.455078" xlink:href="#ArialMT-65"/>
      <use x="1695.070312" xlink:href="#ArialMT-65"/>
      <use x="1750.685547" xlink:href="#ArialMT-6b"/>
      <use x="1800.685547" xlink:href="#ArialMT-73"/>
     </g>
    </g>
   </g>
   <g id="PolyCollection_1">
    <defs>
     <path d="M 101.361955 -96.410064 
L 94.221388 -96.410064 
L 93.659896 -98.846845 
L 93.044262 -101.283625 
L 92.375704 -103.720406 
L 91.65676 -106.157187 
L 90.891385 -108.593967 
L 90.085006 -111.030748 
L 89.244526 -113.467529 
L 88.378276 -115.904309 
L 87.495908 -118.34109 
L 86.608228 -120.777871 
L 85.72697 -123.214651 
L 84.86452 -125.651432 
L 84.033593 -128.088213 
L 83.246876 -130.524993 
L 82.51666 -132.961774 
L 81.854462 -135.398555 
L 81.270661 -137.835335 
L 80.774179 -140.272116 
L 80.372191 -142.708897 
L 80.069918 -145.145677 
L 79.870479 -147.582458 
L 79.774834 -150.019239 
L 79.781809 -152.456019 
L 79.888202 -154.8928 
L 80.088966 -157.329581 
L 80.37746 -159.766361 
L 80.74575 -162.203142 
L 81.184937 -164.639923 
L 81.685512 -167.076703 
L 82.237698 -169.513484 
L 82.831771 -171.950265 
L 83.458355 -174.387045 
L 84.108653 -176.823826 
L 84.774631 -179.260607 
L 85.449141 -181.697387 
L 86.125979 -184.134168 
L 86.799889 -186.570949 
L 87.466519 -189.007729 
L 88.122338 -191.44451 
L 88.764526 -193.881291 
L 89.390846 -196.318071 
L 89.99952 -198.754852 
L 90.589104 -201.191633 
L 91.158382 -203.628413 
L 91.706282 -206.065194 
L 92.231814 -208.501975 
L 92.734032 -210.938755 
L 93.212024 -213.375536 
L 93.664918 -215.812317 
L 94.091903 -218.249097 
L 94.492266 -220.685878 
L 94.865422 -223.122659 
L 95.210953 -225.559439 
L 95.52864 -227.99622 
L 95.818479 -230.433001 
L 96.080692 -232.869781 
L 96.315729 -235.306562 
L 96.524249 -237.743343 
L 96.707097 -240.180123 
L 96.865274 -242.616904 
L 96.999898 -245.053685 
L 97.112165 -247.490465 
L 97.203314 -249.927246 
L 97.274586 -252.364027 
L 97.327205 -254.800807 
L 97.362352 -257.237588 
L 97.381161 -259.674369 
L 97.384712 -262.111149 
L 97.374048 -264.54793 
L 97.350191 -266.984711 
L 97.314161 -269.421491 
L 97.267014 -271.858272 
L 97.209864 -274.295053 
L 97.143917 -276.731833 
L 97.070493 -279.168614 
L 96.991043 -281.605395 
L 96.907158 -284.042175 
L 96.820567 -286.478956 
L 96.733116 -288.915737 
L 96.646745 -291.352517 
L 96.563445 -293.789298 
L 96.485207 -296.226079 
L 96.413969 -298.662859 
L 96.351546 -301.09964 
L 96.299571 -303.536421 
L 96.259436 -305.973201 
L 96.232235 -308.409982 
L 96.218722 -310.846763 
L 96.219281 -313.283543 
L 96.233914 -315.720324 
L 96.262238 -318.157105 
L 96.303509 -320.593885 
L 96.356651 -323.030666 
L 96.420307 -325.467447 
L 96.492895 -327.904227 
L 96.572676 -330.341008 
L 96.657821 -332.777789 
L 96.746481 -335.214569 
L 96.836854 -337.65135 
L 98.746489 -337.65135 
L 98.746489 -337.65135 
L 98.836861 -335.214569 
L 98.925522 -332.777789 
L 99.010667 -330.341008 
L 99.090448 -327.904227 
L 99.163036 -325.467447 
L 99.226692 -323.030666 
L 99.279834 -320.593885 
L 99.321105 -318.157105 
L 99.349429 -315.720324 
L 99.364062 -313.283543 
L 99.364621 -310.846763 
L 99.351108 -308.409982 
L 99.323907 -305.973201 
L 99.283772 -303.536421 
L 99.231797 -301.09964 
L 99.169374 -298.662859 
L 99.098135 -296.226079 
L 99.019898 -293.789298 
L 98.936598 -291.352517 
L 98.850227 -288.915737 
L 98.762776 -286.478956 
L 98.676185 -284.042175 
L 98.5923 -281.605395 
L 98.51285 -279.168614 
L 98.439425 -276.731833 
L 98.373478 -274.295053 
L 98.316329 -271.858272 
L 98.269181 -269.421491 
L 98.233152 -266.984711 
L 98.209295 -264.54793 
L 98.198631 -262.111149 
L 98.202182 -259.674369 
L 98.22099 -257.237588 
L 98.256138 -254.800807 
L 98.308757 -252.364027 
L 98.380029 -249.927246 
L 98.471177 -247.490465 
L 98.583445 -245.053685 
L 98.718069 -242.616904 
L 98.876246 -240.180123 
L 99.059094 -237.743343 
L 99.267614 -235.306562 
L 99.502651 -232.869781 
L 99.764864 -230.433001 
L 100.054703 -227.99622 
L 100.372389 -225.559439 
L 100.717921 -223.122659 
L 101.091077 -220.685878 
L 101.491439 -218.249097 
L 101.918425 -215.812317 
L 102.371319 -213.375536 
L 102.849311 -210.938755 
L 103.351529 -208.501975 
L 103.87706 -206.065194 
L 104.424961 -203.628413 
L 104.994239 -201.191633 
L 105.583823 -198.754852 
L 106.192497 -196.318071 
L 106.818817 -193.881291 
L 107.461004 -191.44451 
L 108.116824 -189.007729 
L 108.783454 -186.570949 
L 109.457364 -184.134168 
L 110.134202 -181.697387 
L 110.808712 -179.260607 
L 111.47469 -176.823826 
L 112.124988 -174.387045 
L 112.751572 -171.950265 
L 113.345645 -169.513484 
L 113.897831 -167.076703 
L 114.398406 -164.639923 
L 114.837593 -162.203142 
L 115.205882 -159.766361 
L 115.494377 -157.329581 
L 115.695141 -154.8928 
L 115.801534 -152.456019 
L 115.808509 -150.019239 
L 115.712864 -147.582458 
L 115.513425 -145.145677 
L 115.211152 -142.708897 
L 114.809164 -140.272116 
L 114.312681 -137.835335 
L 113.728881 -135.398555 
L 113.066683 -132.961774 
L 112.336467 -130.524993 
L 111.54975 -128.088213 
L 110.718823 -125.651432 
L 109.856373 -123.214651 
L 108.975115 -120.777871 
L 108.087435 -118.34109 
L 107.205067 -115.904309 
L 106.338817 -113.467529 
L 105.498336 -111.030748 
L 104.691958 -108.593967 
L 103.926583 -106.157187 
L 103.207639 -103.720406 
L 102.53908 -101.283625 
L 101.923446 -98.846845 
L 101.361955 -96.410064 
z
" id="me556df5054" style="stroke:#414141;stroke-width:2;"/>
    </defs>
    <g clip-path="url(#p7154da3c36)">
     <use style="fill:#e68193;stroke:#414141;stroke-width:2;" x="0" xlink:href="#me556df5054" y="391.910113"/>
    </g>
   </g>
   <g id="PolyCollection_2">
    <defs>
     <path d="M 195.737318 -91.763413 
L 191.160311 -91.763413 
L 190.863837 -93.57979 
L 190.544931 -95.396167 
L 190.204312 -97.212544 
L 189.843072 -99.028921 
L 189.46268 -100.845298 
L 189.064971 -102.661675 
L 188.652123 -104.478052 
L 188.226622 -106.294429 
L 187.791216 -108.110806 
L 187.348848 -109.927183 
L 186.902595 -111.74356 
L 186.455588 -113.559937 
L 186.01093 -115.376314 
L 185.571612 -117.192691 
L 185.140437 -119.009068 
L 184.719942 -120.825445 
L 184.312334 -122.641821 
L 183.91944 -124.458198 
L 183.54267 -126.274575 
L 183.183 -128.090952 
L 182.840974 -129.907329 
L 182.516725 -131.723706 
L 182.210012 -133.540083 
L 181.920277 -135.35646 
L 181.646712 -137.172837 
L 181.388336 -138.989214 
L 181.14408 -140.805591 
L 180.912864 -142.621968 
L 180.693678 -144.438345 
L 180.485651 -146.254722 
L 180.288105 -148.071099 
L 180.100597 -149.887476 
L 179.922943 -151.703853 
L 179.755224 -153.520229 
L 179.597777 -155.336606 
L 179.451165 -157.152983 
L 179.316148 -158.96936 
L 179.19363 -160.785737 
L 179.084614 -162.602114 
L 178.99015 -164.418491 
L 178.911286 -166.234868 
L 178.849037 -168.051245 
L 178.804343 -169.867622 
L 178.77806 -171.683999 
L 178.770948 -173.500376 
L 178.783672 -175.316753 
L 178.816819 -177.13313 
L 178.870908 -178.949507 
L 178.946418 -180.765884 
L 179.043801 -182.582261 
L 179.163503 -184.398637 
L 179.305964 -186.215014 
L 179.471622 -188.031391 
L 179.660892 -189.847768 
L 179.874142 -191.664145 
L 180.111653 -193.480522 
L 180.373569 -195.296899 
L 180.65984 -197.113276 
L 180.970166 -198.929653 
L 181.303938 -200.74603 
L 181.660185 -202.562407 
L 182.037537 -204.378784 
L 182.434198 -206.195161 
L 182.847941 -208.011538 
L 183.27612 -209.827915 
L 183.71571 -211.644292 
L 184.163362 -213.460669 
L 184.615482 -215.277045 
L 185.068326 -217.093422 
L 185.518104 -218.909799 
L 185.961092 -220.726176 
L 186.393752 -222.542553 
L 186.812834 -224.35893 
L 187.215479 -226.175307 
L 187.599302 -227.991684 
L 187.962455 -229.808061 
L 188.303665 -231.624438 
L 188.622255 -233.440815 
L 188.91813 -235.257192 
L 189.191744 -237.073569 
L 189.444047 -238.889946 
L 189.676413 -240.706323 
L 189.89055 -242.5227 
L 190.088405 -244.339077 
L 190.272066 -246.155453 
L 190.443662 -247.97183 
L 190.605273 -249.788207 
L 190.758846 -251.604584 
L 190.906127 -253.420961 
L 191.048609 -255.237338 
L 191.187497 -257.053715 
L 191.32369 -258.870092 
L 191.457778 -260.686469 
L 191.590056 -262.502846 
L 191.720556 -264.319223 
L 191.849076 -266.1356 
L 191.975231 -267.951977 
L 192.098495 -269.768354 
L 192.218258 -271.584731 
L 194.679371 -271.584731 
L 194.679371 -271.584731 
L 194.799133 -269.768354 
L 194.922398 -267.951977 
L 195.048552 -266.1356 
L 195.177072 -264.319223 
L 195.307572 -262.502846 
L 195.439851 -260.686469 
L 195.573938 -258.870092 
L 195.710131 -257.053715 
L 195.849019 -255.237338 
L 195.991502 -253.420961 
L 196.138783 -251.604584 
L 196.292355 -249.788207 
L 196.453966 -247.97183 
L 196.625563 -246.155453 
L 196.809224 -244.339077 
L 197.007079 -242.5227 
L 197.221215 -240.706323 
L 197.453582 -238.889946 
L 197.705885 -237.073569 
L 197.979499 -235.257192 
L 198.275373 -233.440815 
L 198.593963 -231.624438 
L 198.935174 -229.808061 
L 199.298327 -227.991684 
L 199.68215 -226.175307 
L 200.084795 -224.35893 
L 200.503877 -222.542553 
L 200.936536 -220.726176 
L 201.379525 -218.909799 
L 201.829302 -217.093422 
L 202.282146 -215.277045 
L 202.734267 -213.460669 
L 203.181919 -211.644292 
L 203.621508 -209.827915 
L 204.049688 -208.011538 
L 204.46343 -206.195161 
L 204.860091 -204.378784 
L 205.237444 -202.562407 
L 205.593691 -200.74603 
L 205.927463 -198.929653 
L 206.237789 -197.113276 
L 206.52406 -195.296899 
L 206.785975 -193.480522 
L 207.023486 -191.664145 
L 207.236737 -189.847768 
L 207.426007 -188.031391 
L 207.591664 -186.215014 
L 207.734126 -184.398637 
L 207.853827 -182.582261 
L 207.951211 -180.765884 
L 208.026721 -178.949507 
L 208.08081 -177.13313 
L 208.113956 -175.316753 
L 208.126681 -173.500376 
L 208.119568 -171.683999 
L 208.093286 -169.867622 
L 208.048592 -168.051245 
L 207.986342 -166.234868 
L 207.907479 -164.418491 
L 207.813014 -162.602114 
L 207.703998 -160.785737 
L 207.581481 -158.96936 
L 207.446463 -157.152983 
L 207.299852 -155.336606 
L 207.142404 -153.520229 
L 206.974685 -151.703853 
L 206.797032 -149.887476 
L 206.609524 -148.071099 
L 206.411977 -146.254722 
L 206.20395 -144.438345 
L 205.984765 -142.621968 
L 205.753548 -140.805591 
L 205.509292 -138.989214 
L 205.250917 -137.172837 
L 204.977352 -135.35646 
L 204.687617 -133.540083 
L 204.380904 -131.723706 
L 204.056654 -129.907329 
L 203.714629 -128.090952 
L 203.354959 -126.274575 
L 202.978188 -124.458198 
L 202.585294 -122.641821 
L 202.177686 -120.825445 
L 201.757191 -119.009068 
L 201.326016 -117.192691 
L 200.886699 -115.376314 
L 200.44204 -113.559937 
L 199.995034 -111.74356 
L 199.548781 -109.927183 
L 199.106413 -108.110806 
L 198.671006 -106.294429 
L 198.245506 -104.478052 
L 197.832658 -102.661675 
L 197.434949 -100.845298 
L 197.054557 -99.028921 
L 196.693316 -97.212544 
L 196.352697 -95.396167 
L 196.033792 -93.57979 
L 195.737318 -91.763413 
z
" id="m0b846ced05" style="stroke:#414141;stroke-width:2;"/>
    </defs>
    <g clip-path="url(#p7154da3c36)">
     <use style="fill:#b38e44;stroke:#414141;stroke-width:2;" x="0" xlink:href="#m0b846ced05" y="391.910113"/>
    </g>
   </g>
   <g id="PolyCollection_3">
    <defs>
     <path d="M 291.824814 -87.842374 
L 286.3871 -87.842374 
L 286.071925 -89.226834 
L 285.734643 -90.611293 
L 285.375416 -91.995753 
L 284.994571 -93.380212 
L 284.592591 -94.764672 
L 284.170108 -96.149131 
L 283.727885 -97.533591 
L 283.266808 -98.91805 
L 282.787867 -100.302509 
L 282.29215 -101.686969 
L 281.780831 -103.071428 
L 281.255167 -104.455888 
L 280.716496 -105.840347 
L 280.166245 -107.224807 
L 279.605939 -108.609266 
L 279.037217 -109.993726 
L 278.461851 -111.378185 
L 277.881767 -112.762645 
L 277.299074 -114.147104 
L 276.71608 -115.531564 
L 276.135316 -116.916023 
L 275.559544 -118.300483 
L 274.991772 -119.684942 
L 274.435238 -121.069401 
L 273.893404 -122.453861 
L 273.369921 -123.83832 
L 272.86859 -125.22278 
L 272.393306 -126.607239 
L 271.947989 -127.991699 
L 271.53651 -129.376158 
L 271.162606 -130.760618 
L 270.829786 -132.145077 
L 270.541246 -133.529537 
L 270.299775 -134.913996 
L 270.10768 -136.298456 
L 269.966706 -137.682915 
L 269.877983 -139.067375 
L 269.841979 -140.451834 
L 269.858474 -141.836294 
L 269.926556 -143.220753 
L 270.044624 -144.605212 
L 270.210426 -145.989672 
L 270.421099 -147.374131 
L 270.673233 -148.758591 
L 270.962943 -150.14305 
L 271.285952 -151.52751 
L 271.637678 -152.911969 
L 272.013331 -154.296429 
L 272.408001 -155.680888 
L 272.816753 -157.065348 
L 273.23471 -158.449807 
L 273.657134 -159.834267 
L 274.079503 -161.218726 
L 274.497569 -162.603186 
L 274.907423 -163.987645 
L 275.305535 -165.372104 
L 275.688799 -166.756564 
L 276.054566 -168.141023 
L 276.400662 -169.525483 
L 276.725415 -170.909942 
L 277.027658 -172.294402 
L 277.306738 -173.678861 
L 277.562515 -175.063321 
L 277.795349 -176.44778 
L 278.006091 -177.83224 
L 278.196057 -179.216699 
L 278.366998 -180.601159 
L 278.521068 -181.985618 
L 278.660771 -183.370078 
L 278.788913 -184.754537 
L 278.90854 -186.138996 
L 279.022871 -187.523456 
L 279.135225 -188.907915 
L 279.248943 -190.292375 
L 279.367311 -191.676834 
L 279.493474 -193.061294 
L 279.630365 -194.445753 
L 279.780626 -195.830213 
L 279.946541 -197.214672 
L 280.12998 -198.599132 
L 280.33235 -199.983591 
L 280.554556 -201.368051 
L 280.796989 -202.75251 
L 281.059511 -204.13697 
L 281.341469 -205.521429 
L 281.641716 -206.905888 
L 281.958652 -208.290348 
L 282.290268 -209.674807 
L 282.634213 -211.059267 
L 282.987858 -212.443726 
L 283.348373 -213.828186 
L 283.712803 -215.212645 
L 284.078147 -216.597105 
L 284.441433 -217.981564 
L 284.799787 -219.366024 
L 285.150503 -220.750483 
L 285.49109 -222.134943 
L 285.819324 -223.519402 
L 286.133283 -224.903862 
L 292.078632 -224.903862 
L 292.078632 -224.903862 
L 292.39259 -223.519402 
L 292.720824 -222.134943 
L 293.061411 -220.750483 
L 293.412127 -219.366024 
L 293.770481 -217.981564 
L 294.133767 -216.597105 
L 294.499111 -215.212645 
L 294.863541 -213.828186 
L 295.224056 -212.443726 
L 295.577701 -211.059267 
L 295.921646 -209.674807 
L 296.253263 -208.290348 
L 296.570198 -206.905888 
L 296.870445 -205.521429 
L 297.152403 -204.13697 
L 297.414925 -202.75251 
L 297.657358 -201.368051 
L 297.879565 -199.983591 
L 298.081934 -198.599132 
L 298.265373 -197.214672 
L 298.431289 -195.830213 
L 298.581549 -194.445753 
L 298.71844 -193.061294 
L 298.844604 -191.676834 
L 298.962971 -190.292375 
L 299.07669 -188.907915 
L 299.189044 -187.523456 
L 299.303375 -186.138996 
L 299.423002 -184.754537 
L 299.551144 -183.370078 
L 299.690846 -181.985618 
L 299.844916 -180.601159 
L 300.015858 -179.216699 
L 300.205823 -177.83224 
L 300.416565 -176.44778 
L 300.649399 -175.063321 
L 300.905176 -173.678861 
L 301.184256 -172.294402 
L 301.486499 -170.909942 
L 301.811252 -169.525483 
L 302.157349 -168.141023 
L 302.523115 -166.756564 
L 302.90638 -165.372104 
L 303.304491 -163.987645 
L 303.714345 -162.603186 
L 304.132411 -161.218726 
L 304.55478 -159.834267 
L 304.977204 -158.449807 
L 305.395161 -157.065348 
L 305.803913 -155.680888 
L 306.198583 -154.296429 
L 306.574236 -152.911969 
L 306.925963 -151.52751 
L 307.248971 -150.14305 
L 307.538681 -148.758591 
L 307.790815 -147.374131 
L 308.001488 -145.989672 
L 308.16729 -144.605212 
L 308.285359 -143.220753 
L 308.35344 -141.836294 
L 308.369936 -140.451834 
L 308.333932 -139.067375 
L 308.245209 -137.682915 
L 308.104235 -136.298456 
L 307.912139 -134.913996 
L 307.670669 -133.529537 
L 307.382128 -132.145077 
L 307.049308 -130.760618 
L 306.675404 -129.376158 
L 306.263926 -127.991699 
L 305.818609 -126.607239 
L 305.343324 -125.22278 
L 304.841993 -123.83832 
L 304.31851 -122.453861 
L 303.776676 -121.069401 
L 303.220143 -119.684942 
L 302.65237 -118.300483 
L 302.076599 -116.916023 
L 301.495834 -115.531564 
L 300.91284 -114.147104 
L 300.330147 -112.762645 
L 299.750064 -111.378185 
L 299.174697 -109.993726 
L 298.605975 -108.609266 
L 298.045669 -107.224807 
L 297.495418 -105.840347 
L 296.956748 -104.455888 
L 296.431083 -103.071428 
L 295.919764 -101.686969 
L 295.424047 -100.302509 
L 294.945107 -98.91805 
L 294.484029 -97.533591 
L 294.041806 -96.149131 
L 293.619323 -94.764672 
L 293.217343 -93.380212 
L 292.836498 -91.995753 
L 292.477271 -90.611293 
L 292.139989 -89.226834 
L 291.824814 -87.842374 
z
" id="me29d55bf32" style="stroke:#414141;stroke-width:2;"/>
    </defs>
    <g clip-path="url(#p7154da3c36)">
     <use style="fill:#7d9a40;stroke:#414141;stroke-width:2;" x="0" xlink:href="#me29d55bf32" y="391.910113"/>
    </g>
   </g>
   <g id="PolyCollection_4">
    <defs>
     <path d="M 391.957252 -110.496555 
L 377.568948 -110.496555 
L 376.818724 -111.883257 
L 376.034534 -113.26996 
L 375.221046 -114.656662 
L 374.383738 -116.043365 
L 373.528858 -117.430068 
L 372.663341 -118.81677 
L 371.794715 -120.203473 
L 370.930983 -121.590175 
L 370.080484 -122.976878 
L 369.251739 -124.36358 
L 368.45329 -125.750283 
L 367.693523 -127.136985 
L 366.980501 -128.523688 
L 366.321791 -129.91039 
L 365.7243 -131.297093 
L 365.19413 -132.683795 
L 364.736448 -134.070498 
L 364.355377 -135.4572 
L 364.053911 -136.843903 
L 363.833864 -138.230605 
L 363.695841 -139.617308 
L 363.639243 -141.004011 
L 363.662297 -142.390713 
L 363.762118 -143.777416 
L 363.934793 -145.164118 
L 364.175486 -146.550821 
L 364.478565 -147.937523 
L 364.837736 -149.324226 
L 365.246194 -150.710928 
L 365.696775 -152.097631 
L 366.182108 -153.484333 
L 366.694766 -154.871036 
L 367.227407 -156.257738 
L 367.772904 -157.644441 
L 368.324468 -159.031143 
L 368.875746 -160.417846 
L 369.420909 -161.804548 
L 369.954722 -163.191251 
L 370.472593 -164.577954 
L 370.970605 -165.964656 
L 371.445534 -167.351359 
L 371.894853 -168.738061 
L 372.316711 -170.124764 
L 372.709916 -171.511466 
L 373.073894 -172.898169 
L 373.408645 -174.284871 
L 373.71469 -175.671574 
L 373.993016 -177.058276 
L 374.245014 -178.444979 
L 374.472415 -179.831681 
L 374.677227 -181.218384 
L 374.861673 -182.605086 
L 375.028127 -183.991789 
L 375.179055 -185.378491 
L 375.316963 -186.765194 
L 375.44434 -188.151897 
L 375.563614 -189.538599 
L 375.67711 -190.925302 
L 375.787015 -192.312004 
L 375.895344 -193.698707 
L 376.003923 -195.085409 
L 376.114367 -196.472112 
L 376.228069 -197.858814 
L 376.346199 -199.245517 
L 376.469703 -200.632219 
L 376.599309 -202.018922 
L 376.735541 -203.405624 
L 376.878732 -204.792327 
L 377.029044 -206.179029 
L 377.186489 -207.565732 
L 377.350951 -208.952434 
L 377.522211 -210.339137 
L 377.699964 -211.72584 
L 377.883845 -213.112542 
L 378.073443 -214.499245 
L 378.268318 -215.885947 
L 378.468017 -217.27265 
L 378.672074 -218.659352 
L 378.880025 -220.046055 
L 379.091403 -221.432757 
L 379.305744 -222.81946 
L 379.522576 -224.206162 
L 379.741422 -225.592865 
L 379.961788 -226.979567 
L 380.183163 -228.36627 
L 380.405008 -229.752972 
L 380.626757 -231.139675 
L 380.847808 -232.526377 
L 381.067531 -233.91308 
L 381.285262 -235.299783 
L 381.500312 -236.686485 
L 381.711972 -238.073188 
L 381.919524 -239.45989 
L 382.122249 -240.846593 
L 382.319441 -242.233295 
L 382.510422 -243.619998 
L 382.694552 -245.0067 
L 382.871243 -246.393403 
L 383.039972 -247.780105 
L 386.486228 -247.780105 
L 386.486228 -247.780105 
L 386.654957 -246.393403 
L 386.831648 -245.0067 
L 387.015778 -243.619998 
L 387.206759 -242.233295 
L 387.403951 -240.846593 
L 387.606676 -239.45989 
L 387.814228 -238.073188 
L 388.025888 -236.686485 
L 388.240938 -235.299783 
L 388.458669 -233.91308 
L 388.678392 -232.526377 
L 388.899443 -231.139675 
L 389.121192 -229.752972 
L 389.343037 -228.36627 
L 389.564412 -226.979567 
L 389.784778 -225.592865 
L 390.003624 -224.206162 
L 390.220456 -222.81946 
L 390.434797 -221.432757 
L 390.646175 -220.046055 
L 390.854126 -218.659352 
L 391.058183 -217.27265 
L 391.257882 -215.885947 
L 391.452757 -214.499245 
L 391.642355 -213.112542 
L 391.826236 -211.72584 
L 392.003989 -210.339137 
L 392.175249 -208.952434 
L 392.339711 -207.565732 
L 392.497156 -206.179029 
L 392.647468 -204.792327 
L 392.790659 -203.405624 
L 392.926891 -202.018922 
L 393.056497 -200.632219 
L 393.180001 -199.245517 
L 393.298131 -197.858814 
L 393.411833 -196.472112 
L 393.522277 -195.085409 
L 393.630856 -193.698707 
L 393.739185 -192.312004 
L 393.84909 -190.925302 
L 393.962586 -189.538599 
L 394.08186 -188.151897 
L 394.209237 -186.765194 
L 394.347145 -185.378491 
L 394.498073 -183.991789 
L 394.664527 -182.605086 
L 394.848973 -181.218384 
L 395.053785 -179.831681 
L 395.281186 -178.444979 
L 395.533184 -177.058276 
L 395.81151 -175.671574 
L 396.117555 -174.284871 
L 396.452306 -172.898169 
L 396.816284 -171.511466 
L 397.209489 -170.124764 
L 397.631347 -168.738061 
L 398.080666 -167.351359 
L 398.555595 -165.964656 
L 399.053607 -164.577954 
L 399.571478 -163.191251 
L 400.105291 -161.804548 
L 400.650454 -160.417846 
L 401.201732 -159.031143 
L 401.753296 -157.644441 
L 402.298793 -156.257738 
L 402.831434 -154.871036 
L 403.344092 -153.484333 
L 403.829425 -152.097631 
L 404.280006 -150.710928 
L 404.688464 -149.324226 
L 405.047635 -147.937523 
L 405.350714 -146.550821 
L 405.591407 -145.164118 
L 405.764082 -143.777416 
L 405.863903 -142.390713 
L 405.886957 -141.004011 
L 405.830359 -139.617308 
L 405.692336 -138.230605 
L 405.472289 -136.843903 
L 405.170823 -135.4572 
L 404.789752 -134.070498 
L 404.33207 -132.683795 
L 403.8019 -131.297093 
L 403.204409 -129.91039 
L 402.545699 -128.523688 
L 401.832677 -127.136985 
L 401.07291 -125.750283 
L 400.274461 -124.36358 
L 399.445716 -122.976878 
L 398.595217 -121.590175 
L 397.731485 -120.203473 
L 396.862859 -118.81677 
L 395.997342 -117.430068 
L 395.142462 -116.043365 
L 394.305154 -114.656662 
L 393.491666 -113.26996 
L 392.707476 -111.883257 
L 391.957252 -110.496555 
z
" id="m0ab1abd6d8" style="stroke:#414141;stroke-width:2;"/>
    </defs>
    <g clip-path="url(#p7154da3c36)">
     <use style="fill:#43a084;stroke:#414141;stroke-width:2;" x="0" xlink:href="#m0ab1abd6d8" y="391.910113"/>
    </g>
   </g>
   <g id="PolyCollection_5">
    <defs>
     <path d="M 482.645259 -97.646947 
L 478.195227 -97.646947 
L 477.967598 -98.776344 
L 477.744772 -99.905742 
L 477.531957 -101.035139 
L 477.334438 -102.164537 
L 477.157333 -103.293935 
L 477.005347 -104.423332 
L 476.882519 -105.55273 
L 476.791989 -106.682128 
L 476.735794 -107.811525 
L 476.714705 -108.940923 
L 476.728121 -110.07032 
L 476.774015 -111.199718 
L 476.848952 -112.329116 
L 476.948151 -113.458513 
L 477.065617 -114.587911 
L 477.194301 -115.717309 
L 477.326308 -116.846706 
L 477.453117 -117.976104 
L 477.565806 -119.105501 
L 477.655287 -120.234899 
L 477.712513 -121.364297 
L 477.728673 -122.493694 
L 477.69536 -123.623092 
L 477.604706 -124.75249 
L 477.449494 -125.881887 
L 477.223242 -127.011285 
L 476.920258 -128.140683 
L 476.535677 -129.27008 
L 476.065485 -130.399478 
L 475.506527 -131.528875 
L 474.856501 -132.658273 
L 474.113965 -133.787671 
L 473.278324 -134.917068 
L 472.349835 -136.046466 
L 471.329617 -137.175864 
L 470.219674 -138.305261 
L 469.022927 -139.434659 
L 467.743276 -140.564056 
L 466.38567 -141.693454 
L 464.9562 -142.822852 
L 463.462206 -143.952249 
L 461.912394 -145.081647 
L 460.316949 -146.211045 
L 458.687636 -147.340442 
L 457.03788 -148.46984 
L 455.3828 -149.599237 
L 453.739181 -150.728635 
L 452.125385 -151.858033 
L 450.561163 -152.98743 
L 449.067387 -154.116828 
L 447.665676 -155.246226 
L 446.377931 -156.375623 
L 445.225784 -157.505021 
L 444.229987 -158.634418 
L 443.409749 -159.763816 
L 442.782063 -160.893214 
L 442.361056 -162.022611 
L 442.157386 -163.152009 
L 442.177734 -164.281407 
L 442.424419 -165.410804 
L 442.895154 -166.540202 
L 443.582977 -167.669599 
L 444.476353 -168.798997 
L 445.559462 -169.928395 
L 446.812639 -171.057792 
L 448.212979 -172.18719 
L 449.73505 -173.316588 
L 451.351698 -174.445985 
L 453.034895 -175.575383 
L 454.756597 -176.70478 
L 456.489581 -177.834178 
L 458.208203 -178.963576 
L 459.889075 -180.092973 
L 461.511624 -181.222371 
L 463.05851 -182.351769 
L 464.515913 -183.481166 
L 465.873668 -184.610564 
L 467.125266 -185.739961 
L 468.267718 -186.869359 
L 469.301309 -187.998757 
L 470.229245 -189.128154 
L 471.057227 -190.257552 
L 471.79296 -191.38695 
L 472.445637 -192.516347 
L 473.025401 -193.645745 
L 473.542825 -194.775142 
L 474.008426 -195.90454 
L 474.432222 -197.033938 
L 474.82337 -198.163335 
L 475.189878 -199.292733 
L 475.538403 -200.422131 
L 475.874146 -201.551528 
L 476.200834 -202.680926 
L 476.520777 -203.810323 
L 476.835003 -204.939721 
L 477.143443 -206.069119 
L 477.445152 -207.198516 
L 477.738555 -208.327914 
L 478.021687 -209.457312 
L 482.818798 -209.457312 
L 482.818798 -209.457312 
L 483.101931 -208.327914 
L 483.395333 -207.198516 
L 483.697043 -206.069119 
L 484.005483 -204.939721 
L 484.319709 -203.810323 
L 484.639652 -202.680926 
L 484.966339 -201.551528 
L 485.302083 -200.422131 
L 485.650608 -199.292733 
L 486.017116 -198.163335 
L 486.408264 -197.033938 
L 486.83206 -195.90454 
L 487.29766 -194.775142 
L 487.815085 -193.645745 
L 488.394849 -192.516347 
L 489.047526 -191.38695 
L 489.783259 -190.257552 
L 490.61124 -189.128154 
L 491.539177 -187.998757 
L 492.572768 -186.869359 
L 493.71522 -185.739961 
L 494.966818 -184.610564 
L 496.324573 -183.481166 
L 497.781976 -182.351769 
L 499.328862 -181.222371 
L 500.95141 -180.092973 
L 502.632283 -178.963576 
L 504.350905 -177.834178 
L 506.083888 -176.70478 
L 507.805591 -175.575383 
L 509.488788 -174.445985 
L 511.105436 -173.316588 
L 512.627507 -172.18719 
L 514.027847 -171.057792 
L 515.281024 -169.928395 
L 516.364132 -168.798997 
L 517.257509 -167.669599 
L 517.945332 -166.540202 
L 518.416067 -165.410804 
L 518.662752 -164.281407 
L 518.6831 -163.152009 
L 518.47943 -162.022611 
L 518.058423 -160.893214 
L 517.430737 -159.763816 
L 516.610499 -158.634418 
L 515.614702 -157.505021 
L 514.462555 -156.375623 
L 513.174809 -155.246226 
L 511.773098 -154.116828 
L 510.279323 -152.98743 
L 508.715101 -151.858033 
L 507.101304 -150.728635 
L 505.457686 -149.599237 
L 503.802605 -148.46984 
L 502.15285 -147.340442 
L 500.523537 -146.211045 
L 498.928091 -145.081647 
L 497.378279 -143.952249 
L 495.884286 -142.822852 
L 494.454816 -141.693454 
L 493.097209 -140.564056 
L 491.817559 -139.434659 
L 490.620812 -138.305261 
L 489.510869 -137.175864 
L 488.490651 -136.046466 
L 487.562162 -134.917068 
L 486.726521 -133.787671 
L 485.983984 -132.658273 
L 485.333959 -131.528875 
L 484.775 -130.399478 
L 484.304809 -129.27008 
L 483.920228 -128.140683 
L 483.617243 -127.011285 
L 483.390991 -125.881887 
L 483.23578 -124.75249 
L 483.145126 -123.623092 
L 483.111812 -122.493694 
L 483.127973 -121.364297 
L 483.185199 -120.234899 
L 483.27468 -119.105501 
L 483.387369 -117.976104 
L 483.514177 -116.846706 
L 483.646185 -115.717309 
L 483.774869 -114.587911 
L 483.892334 -113.458513 
L 483.991534 -112.329116 
L 484.06647 -111.199718 
L 484.112365 -110.07032 
L 484.125781 -108.940923 
L 484.104692 -107.811525 
L 484.048497 -106.682128 
L 483.957967 -105.55273 
L 483.835139 -104.423332 
L 483.683153 -103.293935 
L 483.506048 -102.164537 
L 483.308528 -101.035139 
L 483.095714 -99.905742 
L 482.872888 -98.776344 
L 482.645259 -97.646947 
z
" id="m16d08c761f" style="stroke:#414141;stroke-width:2;"/>
    </defs>
    <g clip-path="url(#p7154da3c36)">
     <use style="fill:#489eaa;stroke:#414141;stroke-width:2;" x="0" xlink:href="#m16d08c761f" y="391.910113"/>
    </g>
   </g>
   <g id="PolyCollection_6">
    <defs>
     <path d="M 577.226539 -28.123489 
L 574.928233 -28.123489 
L 574.814321 -30.243123 
L 574.702713 -32.362758 
L 574.595875 -34.482392 
L 574.496319 -36.602027 
L 574.4065 -38.721662 
L 574.328703 -40.841296 
L 574.264938 -42.960931 
L 574.216833 -45.080565 
L 574.185541 -47.2002 
L 574.171668 -49.319834 
L 574.175217 -51.439469 
L 574.195559 -53.559103 
L 574.231426 -55.678738 
L 574.28094 -57.798372 
L 574.34165 -59.918007 
L 574.410602 -62.037641 
L 574.484415 -64.157276 
L 574.559379 -66.27691 
L 574.631547 -68.396545 
L 574.69684 -70.516179 
L 574.751142 -72.635814 
L 574.790391 -74.755448 
L 574.810667 -76.875083 
L 574.808261 -78.994718 
L 574.779742 -81.114352 
L 574.722011 -83.233987 
L 574.632344 -85.353621 
L 574.508419 -87.473256 
L 574.348344 -89.59289 
L 574.150666 -91.712525 
L 573.914367 -93.832159 
L 573.638852 -95.951794 
L 573.323931 -98.071428 
L 572.96978 -100.191063 
L 572.576901 -102.310697 
L 572.146072 -104.430332 
L 571.678301 -106.549966 
L 571.174781 -108.669601 
L 570.63685 -110.789235 
L 570.065974 -112.90887 
L 569.463744 -115.028504 
L 568.831905 -117.148139 
L 568.172401 -119.267774 
L 567.487457 -121.387408 
L 566.779673 -123.507043 
L 566.052141 -125.626677 
L 565.308562 -127.746312 
L 564.553356 -129.865946 
L 563.791752 -131.985581 
L 563.029851 -134.105215 
L 562.274632 -136.22485 
L 561.533914 -138.344484 
L 560.816254 -140.464119 
L 560.130786 -142.583753 
L 559.487001 -144.703388 
L 558.89449 -146.823022 
L 558.362642 -148.942657 
L 557.900332 -151.062291 
L 557.515609 -153.181926 
L 557.215405 -155.30156 
L 557.005279 -157.421195 
L 556.889214 -159.54083 
L 556.869472 -161.660464 
L 556.946521 -163.780099 
L 557.11903 -165.899733 
L 557.383927 -168.019368 
L 557.73652 -170.139002 
L 558.170671 -172.258637 
L 558.678997 -174.378271 
L 559.253117 -176.497906 
L 559.883898 -178.61754 
L 560.561717 -180.737175 
L 561.276714 -182.856809 
L 562.019038 -184.976444 
L 562.779074 -187.096078 
L 563.547642 -189.215713 
L 564.316186 -191.335347 
L 565.076915 -193.454982 
L 565.822929 -195.574616 
L 566.5483 -197.694251 
L 567.248133 -199.813886 
L 567.918574 -201.93352 
L 568.556801 -204.053155 
L 569.160971 -206.172789 
L 569.730142 -208.292424 
L 570.264168 -210.412058 
L 570.763579 -212.531693 
L 571.229438 -214.651327 
L 571.663208 -216.770962 
L 572.066606 -218.890596 
L 572.441482 -221.010231 
L 572.789701 -223.129865 
L 573.113057 -225.2495 
L 573.413203 -227.369134 
L 573.691612 -229.488769 
L 573.949555 -231.608403 
L 574.188109 -233.728038 
L 574.408175 -235.847672 
L 574.610514 -237.967307 
L 577.544257 -237.967307 
L 577.544257 -237.967307 
L 577.746596 -235.847672 
L 577.966663 -233.728038 
L 578.205217 -231.608403 
L 578.46316 -229.488769 
L 578.741568 -227.369134 
L 579.041714 -225.2495 
L 579.36507 -223.129865 
L 579.71329 -221.010231 
L 580.088165 -218.890596 
L 580.491563 -216.770962 
L 580.925333 -214.651327 
L 581.391192 -212.531693 
L 581.890603 -210.412058 
L 582.42463 -208.292424 
L 582.9938 -206.172789 
L 583.59797 -204.053155 
L 584.236197 -201.93352 
L 584.906638 -199.813886 
L 585.606471 -197.694251 
L 586.331843 -195.574616 
L 587.077856 -193.454982 
L 587.838585 -191.335347 
L 588.607129 -189.215713 
L 589.375698 -187.096078 
L 590.135733 -184.976444 
L 590.878057 -182.856809 
L 591.593054 -180.737175 
L 592.270873 -178.61754 
L 592.901654 -176.497906 
L 593.475774 -174.378271 
L 593.984101 -172.258637 
L 594.418251 -170.139002 
L 594.770845 -168.019368 
L 595.035742 -165.899733 
L 595.20825 -163.780099 
L 595.2853 -161.660464 
L 595.265557 -159.54083 
L 595.149492 -157.421195 
L 594.939367 -155.30156 
L 594.639163 -153.181926 
L 594.25444 -151.062291 
L 593.792129 -148.942657 
L 593.260281 -146.823022 
L 592.66777 -144.703388 
L 592.023986 -142.583753 
L 591.338517 -140.464119 
L 590.620857 -138.344484 
L 589.880139 -136.22485 
L 589.12492 -134.105215 
L 588.363019 -131.985581 
L 587.601416 -129.865946 
L 586.846209 -127.746312 
L 586.10263 -125.626677 
L 585.375098 -123.507043 
L 584.667315 -121.387408 
L 583.98237 -119.267774 
L 583.322866 -117.148139 
L 582.691027 -115.028504 
L 582.088798 -112.90887 
L 581.517921 -110.789235 
L 580.97999 -108.669601 
L 580.47647 -106.549966 
L 580.0087 -104.430332 
L 579.577871 -102.310697 
L 579.184991 -100.191063 
L 578.83084 -98.071428 
L 578.515919 -95.951794 
L 578.240405 -93.832159 
L 578.004105 -91.712525 
L 577.806427 -89.59289 
L 577.646353 -87.473256 
L 577.522428 -85.353621 
L 577.43276 -83.233987 
L 577.375029 -81.114352 
L 577.346511 -78.994718 
L 577.344105 -76.875083 
L 577.36438 -74.755448 
L 577.40363 -72.635814 
L 577.457932 -70.516179 
L 577.523225 -68.396545 
L 577.595393 -66.27691 
L 577.670356 -64.157276 
L 577.744169 -62.037641 
L 577.813121 -59.918007 
L 577.873831 -57.798372 
L 577.923345 -55.678738 
L 577.959213 -53.559103 
L 577.979554 -51.439469 
L 577.983103 -49.319834 
L 577.96923 -47.2002 
L 577.937939 -45.080565 
L 577.889833 -42.960931 
L 577.826068 -40.841296 
L 577.748272 -38.721662 
L 577.658452 -36.602027 
L 577.558896 -34.482392 
L 577.452059 -32.362758 
L 577.340451 -30.243123 
L 577.226539 -28.123489 
z
" id="mf950a2f258" style="stroke:#414141;stroke-width:2;"/>
    </defs>
    <g clip-path="url(#p7154da3c36)">
     <use style="fill:#8fa0e6;stroke:#414141;stroke-width:2;" x="0" xlink:href="#mf950a2f258" y="391.910113"/>
    </g>
   </g>
   <g id="PolyCollection_7">
    <defs>
     <path d="M 672.786699 -27.387877 
L 670.682358 -27.387877 
L 670.587817 -29.479145 
L 670.494639 -31.570413 
L 670.404415 -33.661681 
L 670.31876 -35.752948 
L 670.239252 -37.844216 
L 670.167369 -39.935484 
L 670.104426 -42.026752 
L 670.051509 -44.11802 
L 670.009415 -46.209287 
L 669.978601 -48.300555 
L 669.959134 -50.391823 
L 669.950664 -52.483091 
L 669.952402 -54.574359 
L 669.963111 -56.665627 
L 669.981117 -58.756894 
L 670.00433 -60.848162 
L 670.030279 -62.93943 
L 670.056158 -65.030698 
L 670.078885 -67.121966 
L 670.095167 -69.213233 
L 670.10157 -71.304501 
L 670.094598 -73.395769 
L 670.070766 -75.487037 
L 670.026684 -77.578305 
L 669.959129 -79.669572 
L 669.86512 -81.76084 
L 669.74199 -83.852108 
L 669.587448 -85.943376 
L 669.399634 -88.034644 
L 669.177174 -90.125912 
L 668.91922 -92.217179 
L 668.625478 -94.308447 
L 668.296233 -96.399715 
L 667.93236 -98.490983 
L 667.535318 -100.582251 
L 667.10714 -102.673518 
L 666.650407 -104.764786 
L 666.168206 -106.856054 
L 665.664084 -108.947322 
L 665.141987 -111.03859 
L 664.60619 -113.129858 
L 664.06122 -115.221125 
L 663.511772 -117.312393 
L 662.962624 -119.403661 
L 662.418552 -121.494929 
L 661.884234 -123.586197 
L 661.364176 -125.677464 
L 660.862622 -127.768732 
L 660.383489 -129.86 
L 659.930293 -131.951268 
L 659.506101 -134.042536 
L 659.113475 -136.133804 
L 658.754447 -138.225071 
L 658.430491 -140.316339 
L 658.142516 -142.407607 
L 657.89087 -144.498875 
L 657.675364 -146.590143 
L 657.495304 -148.68141 
L 657.349539 -150.772678 
L 657.236527 -152.863946 
L 657.154412 -154.955214 
L 657.101109 -157.046482 
L 657.074402 -159.13775 
L 657.072046 -161.229017 
L 657.091868 -163.320285 
L 657.131873 -165.411553 
L 657.190331 -167.502821 
L 657.265864 -169.594089 
L 657.357509 -171.685356 
L 657.464764 -173.776624 
L 657.587607 -175.867892 
L 657.72649 -177.95916 
L 657.88231 -180.050428 
L 658.056348 -182.141696 
L 658.250182 -184.232963 
L 658.465587 -186.324231 
L 658.704411 -188.415499 
L 658.968443 -190.506767 
L 659.259274 -192.598035 
L 659.57817 -194.689302 
L 659.925945 -196.78057 
L 660.30286 -198.871838 
L 660.708538 -200.963106 
L 661.141914 -203.054374 
L 661.60121 -205.145642 
L 662.083947 -207.236909 
L 662.586987 -209.328177 
L 663.106607 -211.419445 
L 663.638593 -213.510713 
L 664.178367 -215.601981 
L 664.721117 -217.693248 
L 665.26194 -219.784516 
L 665.795989 -221.875784 
L 666.318608 -223.967052 
L 666.825461 -226.05832 
L 667.31264 -228.149587 
L 667.776753 -230.240855 
L 668.214991 -232.332123 
L 668.625164 -234.423391 
L 674.843894 -234.423391 
L 674.843894 -234.423391 
L 675.254067 -232.332123 
L 675.692304 -230.240855 
L 676.156417 -228.149587 
L 676.643596 -226.05832 
L 677.150449 -223.967052 
L 677.673068 -221.875784 
L 678.207117 -219.784516 
L 678.74794 -217.693248 
L 679.29069 -215.601981 
L 679.830464 -213.510713 
L 680.36245 -211.419445 
L 680.88207 -209.328177 
L 681.38511 -207.236909 
L 681.867847 -205.145642 
L 682.327143 -203.054374 
L 682.760519 -200.963106 
L 683.166198 -198.871838 
L 683.543112 -196.78057 
L 683.890888 -194.689302 
L 684.209783 -192.598035 
L 684.500614 -190.506767 
L 684.764646 -188.415499 
L 685.00347 -186.324231 
L 685.218875 -184.232963 
L 685.41271 -182.141696 
L 685.586747 -180.050428 
L 685.742567 -177.95916 
L 685.88145 -175.867892 
L 686.004293 -173.776624 
L 686.111548 -171.685356 
L 686.203193 -169.594089 
L 686.278727 -167.502821 
L 686.337185 -165.411553 
L 686.377189 -163.320285 
L 686.397011 -161.229017 
L 686.394655 -159.13775 
L 686.367948 -157.046482 
L 686.314645 -154.955214 
L 686.23253 -152.863946 
L 686.119518 -150.772678 
L 685.973753 -148.68141 
L 685.793693 -146.590143 
L 685.578187 -144.498875 
L 685.326542 -142.407607 
L 685.038566 -140.316339 
L 684.71461 -138.225071 
L 684.355582 -136.133804 
L 683.962956 -134.042536 
L 683.538764 -131.951268 
L 683.085568 -129.86 
L 682.606435 -127.768732 
L 682.104881 -125.677464 
L 681.584823 -123.586197 
L 681.050505 -121.494929 
L 680.506433 -119.403661 
L 679.957286 -117.312393 
L 679.407837 -115.221125 
L 678.862867 -113.129858 
L 678.32707 -111.03859 
L 677.804973 -108.947322 
L 677.300852 -106.856054 
L 676.81865 -104.764786 
L 676.361917 -102.673518 
L 675.933739 -100.582251 
L 675.536697 -98.490983 
L 675.172824 -96.399715 
L 674.843579 -94.308447 
L 674.549837 -92.217179 
L 674.291883 -90.125912 
L 674.069424 -88.034644 
L 673.88161 -85.943376 
L 673.727067 -83.852108 
L 673.603937 -81.76084 
L 673.509928 -79.669572 
L 673.442373 -77.578305 
L 673.398291 -75.487037 
L 673.374459 -73.395769 
L 673.367487 -71.304501 
L 673.37389 -69.213233 
L 673.390172 -67.121966 
L 673.4129 -65.030698 
L 673.438778 -62.93943 
L 673.464727 -60.848162 
L 673.48794 -58.756894 
L 673.505946 -56.665627 
L 673.516655 -54.574359 
L 673.518393 -52.483091 
L 673.509923 -50.391823 
L 673.490457 -48.300555 
L 673.459642 -46.209287 
L 673.417548 -44.11802 
L 673.364631 -42.026752 
L 673.301688 -39.935484 
L 673.229805 -37.844216 
L 673.150297 -35.752948 
L 673.064642 -33.661681 
L 672.974418 -31.570413 
L 672.88124 -29.479145 
L 672.786699 -27.387877 
z
" id="mfe1b52ccca" style="stroke:#414141;stroke-width:2;"/>
    </defs>
    <g clip-path="url(#p7154da3c36)">
     <use style="fill:#e270db;stroke:#414141;stroke-width:2;" x="0" xlink:href="#mfe1b52ccca" y="391.910113"/>
    </g>
   </g>
   <g id="line2d_1">
    <path clip-path="url(#p7154da3c36)" d="M 49.9631 237.607987 
L 719.5631 237.607987 
" style="fill:none;stroke:#404040;stroke-dasharray:5.55,2.4;stroke-dashoffset:0;stroke-width:1.5;"/>
   </g>
   <g id="line2d_2">
    <path clip-path="url(#p7154da3c36)" d="M 97.791671 269.833377 
L 97.791671 188.916703 
" style="fill:none;stroke:#414141;stroke-linecap:round;stroke-width:2;"/>
   </g>
   <g id="line2d_3">
    <path clip-path="url(#p7154da3c36)" d="M 97.791671 250.144177 
L 97.791671 216.397178 
" style="fill:none;stroke:#414141;stroke-linecap:round;stroke-width:6;"/>
   </g>
   <g id="line2d_4">
    <path clip-path="url(#p7154da3c36)" d="M 193.448814 279.002473 
L 193.448814 141.469608 
" style="fill:none;stroke:#414141;stroke-linecap:round;stroke-width:2;"/>
   </g>
   <g id="line2d_5">
    <path clip-path="url(#p7154da3c36)" d="M 193.448814 247.533089 
L 193.448814 193.339631 
" style="fill:none;stroke:#414141;stroke-linecap:round;stroke-width:6;"/>
   </g>
   <g id="line2d_6">
    <path clip-path="url(#p7154da3c36)" d="M 289.105957 286.446306 
L 289.105957 184.627683 
" style="fill:none;stroke:#414141;stroke-linecap:round;stroke-width:2;"/>
   </g>
   <g id="line2d_7">
    <path clip-path="url(#p7154da3c36)" d="M 289.105957 256.589519 
L 289.105957 219.609391 
" style="fill:none;stroke:#414141;stroke-linecap:round;stroke-width:6;"/>
   </g>
   <g id="line2d_8">
    <path clip-path="url(#p7154da3c36)" d="M 384.7631 263.129114 
L 384.7631 162.414451 
" style="fill:none;stroke:#414141;stroke-linecap:round;stroke-width:2;"/>
   </g>
   <g id="line2d_9">
    <path clip-path="url(#p7154da3c36)" d="M 384.7631 256.512753 
L 384.7631 210.768031 
" style="fill:none;stroke:#414141;stroke-linecap:round;stroke-width:6;"/>
   </g>
   <g id="line2d_10">
    <path clip-path="url(#p7154da3c36)" d="M 480.420243 249.122122 
L 480.420243 210.713235 
" style="fill:none;stroke:#414141;stroke-linecap:round;stroke-width:2;"/>
   </g>
   <g id="line2d_11">
    <path clip-path="url(#p7154da3c36)" d="M 480.420243 236.667548 
L 480.420243 221.775354 
" style="fill:none;stroke:#414141;stroke-linecap:round;stroke-width:6;"/>
   </g>
   <g id="line2d_12">
    <path clip-path="url(#p7154da3c36)" d="M 576.077386 270.472381 
L 576.077386 175.273236 
" style="fill:none;stroke:#414141;stroke-linecap:round;stroke-width:2;"/>
   </g>
   <g id="line2d_13">
    <path clip-path="url(#p7154da3c36)" d="M 576.077386 245.23835 
L 576.077386 217.008829 
" style="fill:none;stroke:#414141;stroke-linecap:round;stroke-width:6;"/>
   </g>
   <g id="line2d_14">
    <path clip-path="url(#p7154da3c36)" d="M 671.734529 274.857458 
L 671.734529 180.808757 
" style="fill:none;stroke:#414141;stroke-linecap:round;stroke-width:2;"/>
   </g>
   <g id="line2d_15">
    <path clip-path="url(#p7154da3c36)" d="M 671.734529 255.149163 
L 671.734529 202.859058 
" style="fill:none;stroke:#414141;stroke-linecap:round;stroke-width:6;"/>
   </g>
   <g id="patch_3">
    <path d="M 49.9631 368.071987 
L 49.9631 41.911987 
" style="fill:none;stroke:#262626;stroke-linecap:square;stroke-linejoin:miter;stroke-width:1.25;"/>
   </g>
   <g id="patch_4">
    <path d="M 719.5631 368.071987 
L 719.5631 41.911987 
" style="fill:none;stroke:#262626;stroke-linecap:square;stroke-linejoin:miter;stroke-width:1.25;"/>
   </g>
   <g id="patch_5">
    <path d="M 49.9631 368.071988 
L 719.5631 368.071988 
" style="fill:none;stroke:#262626;stroke-linecap:square;stroke-linejoin:miter;stroke-width:1.25;"/>
   </g>
   <g id="patch_6">
    <path d="M 49.9631 41.911988 
L 719.5631 41.911988 
" style="fill:none;stroke:#262626;stroke-linecap:square;stroke-linejoin:miter;stroke-width:1.25;"/>
   </g>
   <g id="PathCollection_1">
    <defs>
     <path d="M 0 2 
C 0.530406 2 1.03916 1.789267 1.414214 1.414214 
C 1.789267 1.03916 2 0.530406 2 0 
C 2 -0.530406 1.789267 -1.03916 1.414214 -1.414214 
C 1.03916 -1.789267 0.530406 -2 0 -2 
C -0.530406 -2 -1.03916 -1.789267 -1.414214 -1.414214 
C -1.789267 -1.03916 -2 -0.530406 -2 0 
C -2 0.530406 -1.789267 1.03916 -1.414214 1.414214 
C -1.03916 1.789267 -0.530406 2 0 2 
z
" id="maa1b5238e5" style="stroke:#414141;"/>
    </defs>
    <g clip-path="url(#p7154da3c36)">
     <use style="fill:#ffffff;stroke:#414141;" x="97.791671" xlink:href="#maa1b5238e5" y="237.261378"/>
    </g>
   </g>
   <g id="PathCollection_2">
    <g clip-path="url(#p7154da3c36)">
     <use style="fill:#ffffff;stroke:#414141;" x="193.448814" xlink:href="#maa1b5238e5" y="220.799823"/>
    </g>
   </g>
   <g id="PathCollection_3">
    <g clip-path="url(#p7154da3c36)">
     <use style="fill:#ffffff;stroke:#414141;" x="289.105957" xlink:href="#maa1b5238e5" y="247.364445"/>
    </g>
   </g>
   <g id="PathCollection_4">
    <g clip-path="url(#p7154da3c36)">
     <use style="fill:#ffffff;stroke:#414141;" x="384.7631" xlink:href="#maa1b5238e5" y="243.100563"/>
    </g>
   </g>
   <g id="PathCollection_5">
    <g clip-path="url(#p7154da3c36)">
     <use style="fill:#ffffff;stroke:#414141;" x="480.420243" xlink:href="#maa1b5238e5" y="226.911933"/>
    </g>
   </g>
   <g id="PathCollection_6">
    <g clip-path="url(#p7154da3c36)">
     <use style="fill:#ffffff;stroke:#414141;" x="576.077386" xlink:href="#maa1b5238e5" y="233.847656"/>
    </g>
   </g>
   <g id="PathCollection_7">
    <g clip-path="url(#p7154da3c36)">
     <use style="fill:#ffffff;stroke:#414141;" x="671.734529" xlink:href="#maa1b5238e5" y="234.642046"/>
    </g>
   </g>
   <g id="text_15">
    <!-- Accidents after the start of DST in California (20012016) -->
    <defs>
     <path d="M 8.6875 0 
L 8.6875 45.015625 
L 0.921875 45.015625 
L 0.921875 51.859375 
L 8.6875 51.859375 
L 8.6875 57.375 
Q 8.6875 62.59375 9.625 65.140625 
Q 10.890625 68.5625 14.078125 70.671875 
Q 17.28125 72.796875 23.046875 72.796875 
Q 26.765625 72.796875 31.25 71.921875 
L 29.9375 64.265625 
Q 27.203125 64.75 24.75 64.75 
Q 20.75 64.75 19.09375 63.03125 
Q 17.4375 61.328125 17.4375 56.640625 
L 17.4375 51.859375 
L 27.546875 51.859375 
L 27.546875 45.015625 
L 17.4375 45.015625 
L 17.4375 0 
z
" id="ArialMT-66"/>
     <path d="M 58.796875 25.09375 
L 68.265625 22.703125 
Q 65.28125 11.03125 57.546875 4.90625 
Q 49.8125 -1.21875 38.625 -1.21875 
Q 27.046875 -1.21875 19.796875 3.484375 
Q 12.546875 8.203125 8.765625 17.140625 
Q 4.984375 26.078125 4.984375 36.328125 
Q 4.984375 47.515625 9.25 55.828125 
Q 13.53125 64.15625 21.40625 68.46875 
Q 29.296875 72.796875 38.765625 72.796875 
Q 49.515625 72.796875 56.828125 67.328125 
Q 64.15625 61.859375 67.046875 51.953125 
L 57.71875 49.75 
Q 55.21875 57.5625 50.484375 61.125 
Q 45.75 64.703125 38.578125 64.703125 
Q 30.328125 64.703125 24.78125 60.734375 
Q 19.234375 56.78125 16.984375 50.109375 
Q 14.75 43.453125 14.75 36.375 
Q 14.75 27.25 17.40625 20.4375 
Q 20.0625 13.625 25.671875 10.25 
Q 31.296875 6.890625 37.84375 6.890625 
Q 45.796875 6.890625 51.3125 11.46875 
Q 56.84375 16.0625 58.796875 25.09375 
z
" id="ArialMT-43"/>
     <path d="M 6.390625 0 
L 6.390625 71.578125 
L 15.1875 71.578125 
L 15.1875 0 
z
" id="ArialMT-6c"/>
     <path d="M -0.203125 22.359375 
L -0.203125 29.4375 
L 55.421875 29.4375 
L 55.421875 22.359375 
z
" id="ArialMT-2013"/>
    </defs>
    <g style="fill:#262626;" transform="translate(54.5631 26.127187)scale(0.26 -0.26)">
     <use xlink:href="#ArialMT-41"/>
     <use x="66.699219" xlink:href="#ArialMT-63"/>
     <use x="116.699219" xlink:href="#ArialMT-63"/>
     <use x="166.699219" xlink:href="#ArialMT-69"/>
     <use x="188.916016" xlink:href="#ArialMT-64"/>
     <use x="244.53125" xlink:href="#ArialMT-65"/>
     <use x="300.146484" xlink:href="#ArialMT-6e"/>
     <use x="355.761719" xlink:href="#ArialMT-74"/>
     <use x="383.544922" xlink:href="#ArialMT-73"/>
     <use x="433.544922" xlink:href="#ArialMT-20"/>
     <use x="461.328125" xlink:href="#ArialMT-61"/>
     <use x="516.943359" xlink:href="#ArialMT-66"/>
     <use x="544.726562" xlink:href="#ArialMT-74"/>
     <use x="572.509766" xlink:href="#ArialMT-65"/>
     <use x="628.125" xlink:href="#ArialMT-72"/>
     <use x="661.425781" xlink:href="#ArialMT-20"/>
     <use x="689.208984" xlink:href="#ArialMT-74"/>
     <use x="716.992188" xlink:href="#ArialMT-68"/>
     <use x="772.607422" xlink:href="#ArialMT-65"/>
     <use x="828.222656" xlink:href="#ArialMT-20"/>
     <use x="856.005859" xlink:href="#ArialMT-73"/>
     <use x="906.005859" xlink:href="#ArialMT-74"/>
     <use x="933.789062" xlink:href="#ArialMT-61"/>
     <use x="989.404297" xlink:href="#ArialMT-72"/>
     <use x="1022.705078" xlink:href="#ArialMT-74"/>
     <use x="1050.488281" xlink:href="#ArialMT-20"/>
     <use x="1078.271484" xlink:href="#ArialMT-6f"/>
     <use x="1133.886719" xlink:href="#ArialMT-66"/>
     <use x="1161.669922" xlink:href="#ArialMT-20"/>
     <use x="1189.453125" xlink:href="#ArialMT-44"/>
     <use x="1261.669922" xlink:href="#ArialMT-53"/>
     <use x="1328.369141" xlink:href="#ArialMT-54"/>
     <use x="1389.4375" xlink:href="#ArialMT-20"/>
     <use x="1417.220703" xlink:href="#ArialMT-69"/>
     <use x="1439.4375" xlink:href="#ArialMT-6e"/>
     <use x="1495.052734" xlink:href="#ArialMT-20"/>
     <use x="1522.835938" xlink:href="#ArialMT-43"/>
     <use x="1595.052734" xlink:href="#ArialMT-61"/>
     <use x="1650.667969" xlink:href="#ArialMT-6c"/>
     <use x="1672.884766" xlink:href="#ArialMT-69"/>
     <use x="1695.101562" xlink:href="#ArialMT-66"/>
     <use x="1722.884766" xlink:href="#ArialMT-6f"/>
     <use x="1778.5" xlink:href="#ArialMT-72"/>
     <use x="1811.800781" xlink:href="#ArialMT-6e"/>
     <use x="1867.416016" xlink:href="#ArialMT-69"/>
     <use x="1889.632812" xlink:href="#ArialMT-61"/>
     <use x="1945.248047" xlink:href="#ArialMT-20"/>
     <use x="1973.03125" xlink:href="#ArialMT-28"/>
     <use x="2006.332031" xlink:href="#ArialMT-32"/>
     <use x="2061.947266" xlink:href="#ArialMT-30"/>
     <use x="2117.5625" xlink:href="#ArialMT-30"/>
     <use x="2173.177734" xlink:href="#ArialMT-31"/>
     <use x="2228.792969" xlink:href="#ArialMT-2013"/>
     <use x="2284.408203" xlink:href="#ArialMT-32"/>
     <use x="2340.023438" xlink:href="#ArialMT-30"/>
     <use x="2395.638672" xlink:href="#ArialMT-31"/>
     <use x="2451.253906" xlink:href="#ArialMT-36"/>
     <use x="2506.869141" xlink:href="#ArialMT-29"/>
    </g>
   </g>
  </g>
 </g>
 <defs>
  <clipPath id="p7154da3c36">
   <rect height="326.16" width="669.6" x="49.9631" y="41.911988"/>
  </clipPath>
 </defs>
</svg>
