<?xml version="1.0" encoding="utf-8" standalone="no"?>
<!DOCTYPE svg PUBLIC "-//W3C//DTD SVG 1.1//EN"
  "http://www.w3.org/Graphics/SVG/1.1/DTD/svg11.dtd">
<!-- Created with matplotlib (https://matplotlib.org/) -->
<svg height="391.910113pt" version="1.1" viewBox="0 0 726.7631 391.910113" width="726.7631pt" xmlns="http://www.w3.org/2000/svg" xmlns:xlink="http://www.w3.org/1999/xlink">
 <defs>
  <style type="text/css">
*{stroke-linecap:butt;stroke-linejoin:round;}
  </style>
 </defs>
 <g id="figure_1">
  <g id="patch_1">
   <path d="M 0 391.910113 
L 726.7631 391.910113 
L 726.7631 0 
L 0 0 
z
" style="fill:#ffffff;"/>
  </g>
  <g id="axes_1">
   <g id="patch_2">
    <path d="M 49.9631 368.071988 
L 719.5631 368.071988 
L 719.5631 41.911988 
L 49.9631 41.911988 
z
" style="fill:#ffffff;"/>
   </g>
   <g id="matplotlib.axis_1">
    <g id="xtick_1">
     <g id="text_1">
      <!-- Sunday (DST) -->
      <defs>
       <path d="M 4.5 23 
L 13.421875 23.78125 
Q 14.0625 18.40625 16.375 14.96875 
Q 18.703125 11.53125 23.578125 9.40625 
Q 28.46875 7.28125 34.578125 7.28125 
Q 39.984375 7.28125 44.140625 8.890625 
Q 48.296875 10.5 50.3125 13.296875 
Q 52.34375 16.109375 52.34375 19.4375 
Q 52.34375 22.796875 50.390625 25.3125 
Q 48.4375 27.828125 43.953125 29.546875 
Q 41.0625 30.671875 31.203125 33.03125 
Q 21.34375 35.40625 17.390625 37.5 
Q 12.25 40.1875 9.734375 44.15625 
Q 7.234375 48.140625 7.234375 53.078125 
Q 7.234375 58.5 10.296875 63.203125 
Q 13.375 67.921875 19.28125 70.359375 
Q 25.203125 72.796875 32.421875 72.796875 
Q 40.375 72.796875 46.453125 70.234375 
Q 52.546875 67.671875 55.8125 62.6875 
Q 59.078125 57.71875 59.328125 51.421875 
L 50.25 50.734375 
Q 49.515625 57.515625 45.28125 60.984375 
Q 41.0625 64.453125 32.8125 64.453125 
Q 24.21875 64.453125 20.28125 61.296875 
Q 16.359375 58.15625 16.359375 53.71875 
Q 16.359375 49.859375 19.140625 47.359375 
Q 21.875 44.875 33.421875 42.265625 
Q 44.96875 39.65625 49.265625 37.703125 
Q 55.515625 34.8125 58.484375 30.390625 
Q 61.46875 25.984375 61.46875 20.21875 
Q 61.46875 14.5 58.203125 9.4375 
Q 54.9375 4.390625 48.796875 1.578125 
Q 42.671875 -1.21875 35.015625 -1.21875 
Q 25.296875 -1.21875 18.71875 1.609375 
Q 12.15625 4.4375 8.421875 10.125 
Q 4.6875 15.828125 4.5 23 
z
" id="ArialMT-83"/>
       <path d="M 40.578125 0 
L 40.578125 7.625 
Q 34.515625 -1.171875 24.125 -1.171875 
Q 19.53125 -1.171875 15.546875 0.578125 
Q 11.578125 2.34375 9.640625 5 
Q 7.71875 7.671875 6.9375 11.53125 
Q 6.390625 14.109375 6.390625 19.734375 
L 6.390625 51.859375 
L 15.1875 51.859375 
L 15.1875 23.09375 
Q 15.1875 16.21875 15.71875 13.8125 
Q 16.546875 10.359375 19.234375 8.375 
Q 21.921875 6.390625 25.875 6.390625 
Q 29.828125 6.390625 33.296875 8.421875 
Q 36.765625 10.453125 38.203125 13.9375 
Q 39.65625 17.4375 39.65625 24.078125 
L 39.65625 51.859375 
L 48.4375 51.859375 
L 48.4375 0 
z
" id="ArialMT-117"/>
       <path d="M 6.59375 0 
L 6.59375 51.859375 
L 14.5 51.859375 
L 14.5 44.484375 
Q 20.21875 53.03125 31 53.03125 
Q 35.6875 53.03125 39.625 51.34375 
Q 43.5625 49.65625 45.515625 46.921875 
Q 47.46875 44.1875 48.25 40.4375 
Q 48.734375 37.984375 48.734375 31.890625 
L 48.734375 0 
L 39.9375 0 
L 39.9375 31.546875 
Q 39.9375 36.921875 38.90625 39.578125 
Q 37.890625 42.234375 35.28125 43.8125 
Q 32.671875 45.40625 29.15625 45.40625 
Q 23.53125 45.40625 19.453125 41.84375 
Q 15.375 38.28125 15.375 28.328125 
L 15.375 0 
z
" id="ArialMT-110"/>
       <path d="M 40.234375 0 
L 40.234375 6.546875 
Q 35.296875 -1.171875 25.734375 -1.171875 
Q 19.53125 -1.171875 14.328125 2.25 
Q 9.125 5.671875 6.265625 11.796875 
Q 3.421875 17.921875 3.421875 25.875 
Q 3.421875 33.640625 6 39.96875 
Q 8.59375 46.296875 13.765625 49.65625 
Q 18.953125 53.03125 25.34375 53.03125 
Q 30.03125 53.03125 33.6875 51.046875 
Q 37.359375 49.078125 39.65625 45.90625 
L 39.65625 71.578125 
L 48.390625 71.578125 
L 48.390625 0 
z
M 12.453125 25.875 
Q 12.453125 15.921875 16.640625 10.984375 
Q 20.84375 6.0625 26.5625 6.0625 
Q 32.328125 6.0625 36.34375 10.765625 
Q 40.375 15.484375 40.375 25.140625 
Q 40.375 35.796875 36.265625 40.765625 
Q 32.171875 45.75 26.171875 45.75 
Q 20.3125 45.75 16.375 40.96875 
Q 12.453125 36.1875 12.453125 25.875 
z
" id="ArialMT-100"/>
       <path d="M 40.4375 6.390625 
Q 35.546875 2.25 31.03125 0.53125 
Q 26.515625 -1.171875 21.34375 -1.171875 
Q 12.796875 -1.171875 8.203125 3 
Q 3.609375 7.171875 3.609375 13.671875 
Q 3.609375 17.484375 5.34375 20.625 
Q 7.078125 23.78125 9.890625 25.6875 
Q 12.703125 27.59375 16.21875 28.5625 
Q 18.796875 29.25 24.03125 29.890625 
Q 34.671875 31.15625 39.703125 32.90625 
Q 39.75 34.71875 39.75 35.203125 
Q 39.75 40.578125 37.25 42.78125 
Q 33.890625 45.75 27.25 45.75 
Q 21.046875 45.75 18.09375 43.578125 
Q 15.140625 41.40625 13.71875 35.890625 
L 5.125 37.0625 
Q 6.296875 42.578125 8.984375 45.96875 
Q 11.671875 49.359375 16.75 51.1875 
Q 21.828125 53.03125 28.515625 53.03125 
Q 35.15625 53.03125 39.296875 51.46875 
Q 43.453125 49.90625 45.40625 47.53125 
Q 47.359375 45.171875 48.140625 41.546875 
Q 48.578125 39.3125 48.578125 33.453125 
L 48.578125 21.734375 
Q 48.578125 9.46875 49.140625 6.21875 
Q 49.703125 2.984375 51.375 0 
L 42.1875 0 
Q 40.828125 2.734375 40.4375 6.390625 
z
M 39.703125 26.03125 
Q 34.90625 24.078125 25.34375 22.703125 
Q 19.921875 21.921875 17.671875 20.9375 
Q 15.4375 19.96875 14.203125 18.09375 
Q 12.984375 16.21875 12.984375 13.921875 
Q 12.984375 10.40625 15.640625 8.0625 
Q 18.3125 5.71875 23.4375 5.71875 
Q 28.515625 5.71875 32.46875 7.9375 
Q 36.421875 10.15625 38.28125 14.015625 
Q 39.703125 17 39.703125 22.796875 
z
" id="ArialMT-97"/>
       <path d="M 6.203125 -19.96875 
L 5.21875 -11.71875 
Q 8.109375 -12.5 10.25 -12.5 
Q 13.1875 -12.5 14.9375 -11.515625 
Q 16.703125 -10.546875 17.828125 -8.796875 
Q 18.65625 -7.46875 20.515625 -2.25 
Q 20.75 -1.515625 21.296875 -0.09375 
L 1.609375 51.859375 
L 11.078125 51.859375 
L 21.875 21.828125 
Q 23.96875 16.109375 25.640625 9.8125 
Q 27.15625 15.875 29.25 21.625 
L 40.328125 51.859375 
L 49.125 51.859375 
L 29.390625 -0.875 
Q 26.21875 -9.421875 24.46875 -12.640625 
Q 22.125 -17 19.09375 -19.015625 
Q 16.0625 -21.046875 11.859375 -21.046875 
Q 9.328125 -21.046875 6.203125 -19.96875 
z
" id="ArialMT-121"/>
       <path id="ArialMT-32"/>
       <path d="M 23.390625 -21.046875 
Q 16.109375 -11.859375 11.078125 0.4375 
Q 6.0625 12.75 6.0625 25.921875 
Q 6.0625 37.546875 9.8125 48.1875 
Q 14.203125 60.546875 23.390625 72.796875 
L 29.6875 72.796875 
Q 23.78125 62.640625 21.875 58.296875 
Q 18.890625 51.5625 17.1875 44.234375 
Q 15.09375 35.109375 15.09375 25.875 
Q 15.09375 2.390625 29.6875 -21.046875 
z
" id="ArialMT-40"/>
       <path d="M 7.71875 0 
L 7.71875 71.578125 
L 32.375 71.578125 
Q 40.71875 71.578125 45.125 70.5625 
Q 51.265625 69.140625 55.609375 65.4375 
Q 61.28125 60.640625 64.078125 53.1875 
Q 66.890625 45.75 66.890625 36.1875 
Q 66.890625 28.03125 64.984375 21.734375 
Q 63.09375 15.4375 60.109375 11.296875 
Q 57.125 7.171875 53.578125 4.796875 
Q 50.046875 2.4375 45.046875 1.21875 
Q 40.046875 0 33.546875 0 
z
M 17.1875 8.453125 
L 32.46875 8.453125 
Q 39.546875 8.453125 43.578125 9.765625 
Q 47.609375 11.078125 50 13.484375 
Q 53.375 16.84375 55.25 22.53125 
Q 57.125 28.21875 57.125 36.328125 
Q 57.125 47.5625 53.4375 53.59375 
Q 49.75 59.625 44.484375 61.671875 
Q 40.671875 63.140625 32.234375 63.140625 
L 17.1875 63.140625 
z
" id="ArialMT-68"/>
       <path d="M 25.921875 0 
L 25.921875 63.140625 
L 2.34375 63.140625 
L 2.34375 71.578125 
L 59.078125 71.578125 
L 59.078125 63.140625 
L 35.40625 63.140625 
L 35.40625 0 
z
" id="ArialMT-84"/>
       <path d="M 12.359375 -21.046875 
L 6.0625 -21.046875 
Q 20.65625 2.390625 20.65625 25.875 
Q 20.65625 35.0625 18.5625 44.09375 
Q 16.890625 51.421875 13.921875 58.15625 
Q 12.015625 62.546875 6.0625 72.796875 
L 12.359375 72.796875 
Q 21.53125 60.546875 25.921875 48.1875 
Q 29.6875 37.546875 29.6875 25.921875 
Q 29.6875 12.75 24.625 0.4375 
Q 19.578125 -11.859375 12.359375 -21.046875 
z
" id="ArialMT-41"/>
      </defs>
      <g style="fill:#262626;" transform="translate(53.445578 381.76355)scale(0.14 -0.14)">
       <use xlink:href="#ArialMT-83"/>
       <use x="66.699219" xlink:href="#ArialMT-117"/>
       <use x="122.314453" xlink:href="#ArialMT-110"/>
       <use x="177.929688" xlink:href="#ArialMT-100"/>
       <use x="233.544922" xlink:href="#ArialMT-97"/>
       <use x="289.160156" xlink:href="#ArialMT-121"/>
       <use x="339.160156" xlink:href="#ArialMT-32"/>
       <use x="366.943359" xlink:href="#ArialMT-40"/>
       <use x="400.244141" xlink:href="#ArialMT-68"/>
       <use x="472.460938" xlink:href="#ArialMT-83"/>
       <use x="539.160156" xlink:href="#ArialMT-84"/>
       <use x="600.244141" xlink:href="#ArialMT-41"/>
      </g>
     </g>
    </g>
    <g id="xtick_2">
     <g id="text_2">
      <!-- Monday -->
      <defs>
       <path d="M 7.421875 0 
L 7.421875 71.578125 
L 21.6875 71.578125 
L 38.625 20.90625 
Q 40.96875 13.8125 42.046875 10.296875 
Q 43.265625 14.203125 45.84375 21.78125 
L 62.984375 71.578125 
L 75.734375 71.578125 
L 75.734375 0 
L 66.609375 0 
L 66.609375 59.90625 
L 45.796875 0 
L 37.25 0 
L 16.546875 60.9375 
L 16.546875 0 
z
" id="ArialMT-77"/>
       <path d="M 3.328125 25.921875 
Q 3.328125 40.328125 11.328125 47.265625 
Q 18.015625 53.03125 27.640625 53.03125 
Q 38.328125 53.03125 45.109375 46.015625 
Q 51.90625 39.015625 51.90625 26.65625 
Q 51.90625 16.65625 48.90625 10.90625 
Q 45.90625 5.171875 40.15625 2 
Q 34.421875 -1.171875 27.640625 -1.171875 
Q 16.75 -1.171875 10.03125 5.8125 
Q 3.328125 12.796875 3.328125 25.921875 
z
M 12.359375 25.921875 
Q 12.359375 15.96875 16.703125 11.015625 
Q 21.046875 6.0625 27.640625 6.0625 
Q 34.1875 6.0625 38.53125 11.03125 
Q 42.875 16.015625 42.875 26.21875 
Q 42.875 35.84375 38.5 40.796875 
Q 34.125 45.75 27.640625 45.75 
Q 21.046875 45.75 16.703125 40.8125 
Q 12.359375 35.890625 12.359375 25.921875 
z
" id="ArialMT-111"/>
      </defs>
      <g style="fill:#262626;" transform="translate(168.547408 381.592925)scale(0.14 -0.14)">
       <use xlink:href="#ArialMT-77"/>
       <use x="83.300781" xlink:href="#ArialMT-111"/>
       <use x="138.916016" xlink:href="#ArialMT-110"/>
       <use x="194.53125" xlink:href="#ArialMT-100"/>
       <use x="250.146484" xlink:href="#ArialMT-97"/>
       <use x="305.761719" xlink:href="#ArialMT-121"/>
      </g>
     </g>
    </g>
    <g id="xtick_3">
     <g id="text_3">
      <!-- Tuesday -->
      <defs>
       <path d="M 42.09375 16.703125 
L 51.171875 15.578125 
Q 49.03125 7.625 43.21875 3.21875 
Q 37.40625 -1.171875 28.375 -1.171875 
Q 17 -1.171875 10.328125 5.828125 
Q 3.65625 12.84375 3.65625 25.484375 
Q 3.65625 38.578125 10.390625 45.796875 
Q 17.140625 53.03125 27.875 53.03125 
Q 38.28125 53.03125 44.875 45.953125 
Q 51.46875 38.875 51.46875 26.03125 
Q 51.46875 25.25 51.421875 23.6875 
L 12.75 23.6875 
Q 13.234375 15.140625 17.578125 10.59375 
Q 21.921875 6.0625 28.421875 6.0625 
Q 33.25 6.0625 36.671875 8.59375 
Q 40.09375 11.140625 42.09375 16.703125 
z
M 13.234375 30.90625 
L 42.1875 30.90625 
Q 41.609375 37.453125 38.875 40.71875 
Q 34.671875 45.796875 27.984375 45.796875 
Q 21.921875 45.796875 17.796875 41.75 
Q 13.671875 37.703125 13.234375 30.90625 
z
" id="ArialMT-101"/>
       <path d="M 3.078125 15.484375 
L 11.765625 16.84375 
Q 12.5 11.625 15.84375 8.84375 
Q 19.1875 6.0625 25.203125 6.0625 
Q 31.25 6.0625 34.171875 8.515625 
Q 37.109375 10.984375 37.109375 14.3125 
Q 37.109375 17.28125 34.515625 19 
Q 32.71875 20.171875 25.53125 21.96875 
Q 15.875 24.421875 12.140625 26.203125 
Q 8.40625 27.984375 6.46875 31.125 
Q 4.546875 34.28125 4.546875 38.09375 
Q 4.546875 41.546875 6.125 44.5 
Q 7.71875 47.46875 10.453125 49.421875 
Q 12.5 50.921875 16.03125 51.96875 
Q 19.578125 53.03125 23.640625 53.03125 
Q 29.734375 53.03125 34.34375 51.265625 
Q 38.96875 49.515625 41.15625 46.5 
Q 43.359375 43.5 44.1875 38.484375 
L 35.59375 37.3125 
Q 35.015625 41.3125 32.203125 43.546875 
Q 29.390625 45.796875 24.265625 45.796875 
Q 18.21875 45.796875 15.625 43.796875 
Q 13.03125 41.796875 13.03125 39.109375 
Q 13.03125 37.40625 14.109375 36.03125 
Q 15.1875 34.625 17.484375 33.6875 
Q 18.796875 33.203125 25.25 31.453125 
Q 34.578125 28.953125 38.25 27.359375 
Q 41.9375 25.78125 44.03125 22.75 
Q 46.140625 19.734375 46.140625 15.234375 
Q 46.140625 10.84375 43.578125 6.953125 
Q 41.015625 3.078125 36.171875 0.953125 
Q 31.34375 -1.171875 25.25 -1.171875 
Q 15.140625 -1.171875 9.84375 3.03125 
Q 4.546875 7.234375 3.078125 15.484375 
z
" id="ArialMT-115"/>
      </defs>
      <g style="fill:#262626;" transform="translate(262.522363 381.592925)scale(0.14 -0.14)">
       <use xlink:href="#ArialMT-84"/>
       <use x="57.333984" xlink:href="#ArialMT-117"/>
       <use x="112.949219" xlink:href="#ArialMT-101"/>
       <use x="168.564453" xlink:href="#ArialMT-115"/>
       <use x="218.564453" xlink:href="#ArialMT-100"/>
       <use x="274.179688" xlink:href="#ArialMT-97"/>
       <use x="329.794922" xlink:href="#ArialMT-121"/>
      </g>
     </g>
    </g>
    <g id="xtick_4">
     <g id="text_4">
      <!-- Wednesday -->
      <defs>
       <path d="M 20.21875 0 
L 1.21875 71.578125 
L 10.9375 71.578125 
L 21.828125 24.65625 
Q 23.578125 17.28125 24.859375 10.015625 
Q 27.59375 21.484375 28.078125 23.25 
L 41.703125 71.578125 
L 53.125 71.578125 
L 63.375 35.359375 
Q 67.234375 21.875 68.953125 10.015625 
Q 70.3125 16.796875 72.515625 25.59375 
L 83.734375 71.578125 
L 93.265625 71.578125 
L 73.640625 0 
L 64.5 0 
L 49.421875 54.546875 
Q 47.515625 61.375 47.171875 62.9375 
Q 46.046875 58.015625 45.0625 54.546875 
L 29.890625 0 
z
" id="ArialMT-87"/>
      </defs>
      <g style="fill:#262626;" transform="translate(347.922319 381.592925)scale(0.14 -0.14)">
       <use xlink:href="#ArialMT-87"/>
       <use x="92.634766" xlink:href="#ArialMT-101"/>
       <use x="148.25" xlink:href="#ArialMT-100"/>
       <use x="203.865234" xlink:href="#ArialMT-110"/>
       <use x="259.480469" xlink:href="#ArialMT-101"/>
       <use x="315.095703" xlink:href="#ArialMT-115"/>
       <use x="365.095703" xlink:href="#ArialMT-100"/>
       <use x="420.710938" xlink:href="#ArialMT-97"/>
       <use x="476.326172" xlink:href="#ArialMT-121"/>
      </g>
     </g>
    </g>
    <g id="xtick_5">
     <g id="text_5">
      <!-- Thursday -->
      <defs>
       <path d="M 6.59375 0 
L 6.59375 71.578125 
L 15.375 71.578125 
L 15.375 45.90625 
Q 21.53125 53.03125 30.90625 53.03125 
Q 36.671875 53.03125 40.921875 50.75 
Q 45.171875 48.484375 47 44.484375 
Q 48.828125 40.484375 48.828125 32.859375 
L 48.828125 0 
L 40.046875 0 
L 40.046875 32.859375 
Q 40.046875 39.453125 37.1875 42.453125 
Q 34.328125 45.453125 29.109375 45.453125 
Q 25.203125 45.453125 21.75 43.421875 
Q 18.3125 41.40625 16.84375 37.9375 
Q 15.375 34.46875 15.375 28.375 
L 15.375 0 
z
" id="ArialMT-104"/>
       <path d="M 6.5 0 
L 6.5 51.859375 
L 14.40625 51.859375 
L 14.40625 44 
Q 17.4375 49.515625 20 51.265625 
Q 22.5625 53.03125 25.640625 53.03125 
Q 30.078125 53.03125 34.671875 50.203125 
L 31.640625 42.046875 
Q 28.421875 43.953125 25.203125 43.953125 
Q 22.3125 43.953125 20.015625 42.21875 
Q 17.71875 40.484375 16.75 37.40625 
Q 15.28125 32.71875 15.28125 27.15625 
L 15.28125 0 
z
" id="ArialMT-114"/>
      </defs>
      <g style="fill:#262626;" transform="translate(451.243368 381.592925)scale(0.14 -0.14)">
       <use xlink:href="#ArialMT-84"/>
       <use x="61.083984" xlink:href="#ArialMT-104"/>
       <use x="116.699219" xlink:href="#ArialMT-117"/>
       <use x="172.314453" xlink:href="#ArialMT-114"/>
       <use x="205.615234" xlink:href="#ArialMT-115"/>
       <use x="255.615234" xlink:href="#ArialMT-100"/>
       <use x="311.230469" xlink:href="#ArialMT-97"/>
       <use x="366.845703" xlink:href="#ArialMT-121"/>
      </g>
     </g>
    </g>
    <g id="xtick_6">
     <g id="text_6">
      <!-- Friday -->
      <defs>
       <path d="M 8.203125 0 
L 8.203125 71.578125 
L 56.5 71.578125 
L 56.5 63.140625 
L 17.671875 63.140625 
L 17.671875 40.96875 
L 51.265625 40.96875 
L 51.265625 32.515625 
L 17.671875 32.515625 
L 17.671875 0 
z
" id="ArialMT-70"/>
       <path d="M 6.640625 61.46875 
L 6.640625 71.578125 
L 15.4375 71.578125 
L 15.4375 61.46875 
z
M 6.640625 0 
L 6.640625 51.859375 
L 15.4375 51.859375 
L 15.4375 0 
z
" id="ArialMT-105"/>
      </defs>
      <g style="fill:#262626;" transform="translate(556.630511 381.592925)scale(0.14 -0.14)">
       <use xlink:href="#ArialMT-70"/>
       <use x="61.083984" xlink:href="#ArialMT-114"/>
       <use x="94.384766" xlink:href="#ArialMT-105"/>
       <use x="116.601562" xlink:href="#ArialMT-100"/>
       <use x="172.216797" xlink:href="#ArialMT-97"/>
       <use x="227.832031" xlink:href="#ArialMT-121"/>
      </g>
     </g>
    </g>
    <g id="xtick_7">
     <g id="text_7">
      <!-- Saturday -->
      <defs>
       <path d="M 25.78125 7.859375 
L 27.046875 0.09375 
Q 23.34375 -0.6875 20.40625 -0.6875 
Q 15.625 -0.6875 12.984375 0.828125 
Q 10.359375 2.34375 9.28125 4.8125 
Q 8.203125 7.28125 8.203125 15.1875 
L 8.203125 45.015625 
L 1.765625 45.015625 
L 1.765625 51.859375 
L 8.203125 51.859375 
L 8.203125 64.703125 
L 16.9375 69.96875 
L 16.9375 51.859375 
L 25.78125 51.859375 
L 25.78125 45.015625 
L 16.9375 45.015625 
L 16.9375 14.703125 
Q 16.9375 10.9375 17.40625 9.859375 
Q 17.875 8.796875 18.921875 8.15625 
Q 19.96875 7.515625 21.921875 7.515625 
Q 23.390625 7.515625 25.78125 7.859375 
z
" id="ArialMT-116"/>
      </defs>
      <g style="fill:#262626;" transform="translate(643.719216 381.76355)scale(0.14 -0.14)">
       <use xlink:href="#ArialMT-83"/>
       <use x="66.699219" xlink:href="#ArialMT-97"/>
       <use x="122.314453" xlink:href="#ArialMT-116"/>
       <use x="150.097656" xlink:href="#ArialMT-117"/>
       <use x="205.712891" xlink:href="#ArialMT-114"/>
       <use x="239.013672" xlink:href="#ArialMT-100"/>
       <use x="294.628906" xlink:href="#ArialMT-97"/>
       <use x="350.244141" xlink:href="#ArialMT-121"/>
      </g>
     </g>
    </g>
   </g>
   <g id="matplotlib.axis_2">
    <g id="ytick_1">
     <g id="text_8">
      <!-- 0.6 -->
      <defs>
       <path d="M 4.15625 35.296875 
Q 4.15625 48 6.765625 55.734375 
Q 9.375 63.484375 14.515625 67.671875 
Q 19.671875 71.875 27.484375 71.875 
Q 33.25 71.875 37.59375 69.546875 
Q 41.9375 67.234375 44.765625 62.859375 
Q 47.609375 58.5 49.21875 52.21875 
Q 50.828125 45.953125 50.828125 35.296875 
Q 50.828125 22.703125 48.234375 14.96875 
Q 45.65625 7.234375 40.5 3 
Q 35.359375 -1.21875 27.484375 -1.21875 
Q 17.140625 -1.21875 11.234375 6.203125 
Q 4.15625 15.140625 4.15625 35.296875 
z
M 13.1875 35.296875 
Q 13.1875 17.671875 17.3125 11.828125 
Q 21.4375 6 27.484375 6 
Q 33.546875 6 37.671875 11.859375 
Q 41.796875 17.71875 41.796875 35.296875 
Q 41.796875 52.984375 37.671875 58.78125 
Q 33.546875 64.59375 27.390625 64.59375 
Q 21.34375 64.59375 17.71875 59.46875 
Q 13.1875 52.9375 13.1875 35.296875 
z
" id="ArialMT-48"/>
       <path d="M 9.078125 0 
L 9.078125 10.015625 
L 19.09375 10.015625 
L 19.09375 0 
z
" id="ArialMT-46"/>
       <path d="M 49.75 54.046875 
L 41.015625 53.375 
Q 39.84375 58.546875 37.703125 60.890625 
Q 34.125 64.65625 28.90625 64.65625 
Q 24.703125 64.65625 21.53125 62.3125 
Q 17.390625 59.28125 14.984375 53.46875 
Q 12.59375 47.65625 12.5 36.921875 
Q 15.671875 41.75 20.265625 44.09375 
Q 24.859375 46.4375 29.890625 46.4375 
Q 38.671875 46.4375 44.84375 39.96875 
Q 51.03125 33.5 51.03125 23.25 
Q 51.03125 16.5 48.125 10.71875 
Q 45.21875 4.9375 40.140625 1.859375 
Q 35.0625 -1.21875 28.609375 -1.21875 
Q 17.625 -1.21875 10.6875 6.859375 
Q 3.765625 14.9375 3.765625 33.5 
Q 3.765625 54.25 11.421875 63.671875 
Q 18.109375 71.875 29.4375 71.875 
Q 37.890625 71.875 43.28125 67.140625 
Q 48.6875 62.40625 49.75 54.046875 
z
M 13.875 23.1875 
Q 13.875 18.65625 15.796875 14.5 
Q 17.71875 10.359375 21.1875 8.171875 
Q 24.65625 6 28.46875 6 
Q 34.03125 6 38.03125 10.484375 
Q 42.046875 14.984375 42.046875 22.703125 
Q 42.046875 30.125 38.078125 34.390625 
Q 34.125 38.671875 28.125 38.671875 
Q 22.171875 38.671875 18.015625 34.390625 
Q 13.875 30.125 13.875 23.1875 
z
" id="ArialMT-54"/>
      </defs>
      <g style="fill:#262626;" transform="translate(27.0031 358.901587)scale(0.14 -0.14)">
       <use xlink:href="#ArialMT-48"/>
       <use x="55.615234" xlink:href="#ArialMT-46"/>
       <use x="83.398438" xlink:href="#ArialMT-54"/>
      </g>
     </g>
    </g>
    <g id="ytick_2">
     <g id="text_9">
      <!-- 0.8 -->
      <defs>
       <path d="M 17.671875 38.8125 
Q 12.203125 40.828125 9.5625 44.53125 
Q 6.9375 48.25 6.9375 53.421875 
Q 6.9375 61.234375 12.546875 66.546875 
Q 18.171875 71.875 27.484375 71.875 
Q 36.859375 71.875 42.578125 66.421875 
Q 48.296875 60.984375 48.296875 53.171875 
Q 48.296875 48.1875 45.671875 44.5 
Q 43.0625 40.828125 37.75 38.8125 
Q 44.34375 36.671875 47.78125 31.875 
Q 51.21875 27.09375 51.21875 20.453125 
Q 51.21875 11.28125 44.71875 5.03125 
Q 38.234375 -1.21875 27.640625 -1.21875 
Q 17.046875 -1.21875 10.546875 5.046875 
Q 4.046875 11.328125 4.046875 20.703125 
Q 4.046875 27.6875 7.59375 32.390625 
Q 11.140625 37.109375 17.671875 38.8125 
z
M 15.921875 53.71875 
Q 15.921875 48.640625 19.1875 45.40625 
Q 22.46875 42.1875 27.6875 42.1875 
Q 32.765625 42.1875 36.015625 45.375 
Q 39.265625 48.578125 39.265625 53.21875 
Q 39.265625 58.0625 35.90625 61.359375 
Q 32.5625 64.65625 27.59375 64.65625 
Q 22.5625 64.65625 19.234375 61.421875 
Q 15.921875 58.203125 15.921875 53.71875 
z
M 13.09375 20.65625 
Q 13.09375 16.890625 14.875 13.375 
Q 16.65625 9.859375 20.171875 7.921875 
Q 23.6875 6 27.734375 6 
Q 34.03125 6 38.125 10.046875 
Q 42.234375 14.109375 42.234375 20.359375 
Q 42.234375 26.703125 38.015625 30.859375 
Q 33.796875 35.015625 27.4375 35.015625 
Q 21.234375 35.015625 17.15625 30.90625 
Q 13.09375 26.8125 13.09375 20.65625 
z
" id="ArialMT-56"/>
      </defs>
      <g style="fill:#262626;" transform="translate(27.0031 302.178108)scale(0.14 -0.14)">
       <use xlink:href="#ArialMT-48"/>
       <use x="55.615234" xlink:href="#ArialMT-46"/>
       <use x="83.398438" xlink:href="#ArialMT-56"/>
      </g>
     </g>
    </g>
    <g id="ytick_3">
     <g id="text_10">
      <!-- 1.0 -->
      <defs>
       <path d="M 37.25 0 
L 28.46875 0 
L 28.46875 56 
Q 25.296875 52.984375 20.140625 49.953125 
Q 14.984375 46.921875 10.890625 45.40625 
L 10.890625 53.90625 
Q 18.265625 57.375 23.78125 62.296875 
Q 29.296875 67.234375 31.59375 71.875 
L 37.25 71.875 
z
" id="ArialMT-49"/>
      </defs>
      <g style="fill:#262626;" transform="translate(27.0031 245.45463)scale(0.14 -0.14)">
       <use xlink:href="#ArialMT-49"/>
       <use x="55.615234" xlink:href="#ArialMT-46"/>
       <use x="83.398438" xlink:href="#ArialMT-48"/>
      </g>
     </g>
    </g>
    <g id="ytick_4">
     <g id="text_11">
      <!-- 1.2 -->
      <defs>
       <path d="M 50.34375 8.453125 
L 50.34375 0 
L 3.03125 0 
Q 2.9375 3.171875 4.046875 6.109375 
Q 5.859375 10.9375 9.828125 15.625 
Q 13.8125 20.3125 21.34375 26.46875 
Q 33.015625 36.03125 37.109375 41.625 
Q 41.21875 47.21875 41.21875 52.203125 
Q 41.21875 57.421875 37.46875 61 
Q 33.734375 64.59375 27.734375 64.59375 
Q 21.390625 64.59375 17.578125 60.78125 
Q 13.765625 56.984375 13.71875 50.25 
L 4.6875 51.171875 
Q 5.609375 61.28125 11.65625 66.578125 
Q 17.71875 71.875 27.9375 71.875 
Q 38.234375 71.875 44.234375 66.15625 
Q 50.25 60.453125 50.25 52 
Q 50.25 47.703125 48.484375 43.546875 
Q 46.734375 39.40625 42.65625 34.8125 
Q 38.578125 30.21875 29.109375 22.21875 
Q 21.1875 15.578125 18.9375 13.203125 
Q 16.703125 10.84375 15.234375 8.453125 
z
" id="ArialMT-50"/>
      </defs>
      <g style="fill:#262626;" transform="translate(27.0031 188.731152)scale(0.14 -0.14)">
       <use xlink:href="#ArialMT-49"/>
       <use x="55.615234" xlink:href="#ArialMT-46"/>
       <use x="83.398438" xlink:href="#ArialMT-50"/>
      </g>
     </g>
    </g>
    <g id="ytick_5">
     <g id="text_12">
      <!-- 1.4 -->
      <defs>
       <path d="M 32.328125 0 
L 32.328125 17.140625 
L 1.265625 17.140625 
L 1.265625 25.203125 
L 33.9375 71.578125 
L 41.109375 71.578125 
L 41.109375 25.203125 
L 50.78125 25.203125 
L 50.78125 17.140625 
L 41.109375 17.140625 
L 41.109375 0 
z
M 32.328125 25.203125 
L 32.328125 57.46875 
L 9.90625 25.203125 
z
" id="ArialMT-52"/>
      </defs>
      <g style="fill:#262626;" transform="translate(27.0031 132.007674)scale(0.14 -0.14)">
       <use xlink:href="#ArialMT-49"/>
       <use x="55.615234" xlink:href="#ArialMT-46"/>
       <use x="83.398438" xlink:href="#ArialMT-52"/>
      </g>
     </g>
    </g>
    <g id="ytick_6">
     <g id="text_13">
      <!-- 1.6 -->
      <g style="fill:#262626;" transform="translate(27.0031 75.284195)scale(0.14 -0.14)">
       <use xlink:href="#ArialMT-49"/>
       <use x="55.615234" xlink:href="#ArialMT-46"/>
       <use x="83.398438" xlink:href="#ArialMT-54"/>
      </g>
     </g>
    </g>
    <g id="text_14">
     <!-- Crash Ratio: DST Week / Week Before -->
     <defs>
      <path d="M 58.796875 25.09375 
L 68.265625 22.703125 
Q 65.28125 11.03125 57.546875 4.90625 
Q 49.8125 -1.21875 38.625 -1.21875 
Q 27.046875 -1.21875 19.796875 3.484375 
Q 12.546875 8.203125 8.765625 17.140625 
Q 4.984375 26.078125 4.984375 36.328125 
Q 4.984375 47.515625 9.25 55.828125 
Q 13.53125 64.15625 21.40625 68.46875 
Q 29.296875 72.796875 38.765625 72.796875 
Q 49.515625 72.796875 56.828125 67.328125 
Q 64.15625 61.859375 67.046875 51.953125 
L 57.71875 49.75 
Q 55.21875 57.5625 50.484375 61.125 
Q 45.75 64.703125 38.578125 64.703125 
Q 30.328125 64.703125 24.78125 60.734375 
Q 19.234375 56.78125 16.984375 50.109375 
Q 14.75 43.453125 14.75 36.375 
Q 14.75 27.25 17.40625 20.4375 
Q 20.0625 13.625 25.671875 10.25 
Q 31.296875 6.890625 37.84375 6.890625 
Q 45.796875 6.890625 51.3125 11.46875 
Q 56.84375 16.0625 58.796875 25.09375 
z
" id="ArialMT-67"/>
      <path d="M 7.859375 0 
L 7.859375 71.578125 
L 39.59375 71.578125 
Q 49.171875 71.578125 54.140625 69.640625 
Q 59.125 67.71875 62.109375 62.828125 
Q 65.09375 57.953125 65.09375 52.046875 
Q 65.09375 44.4375 60.15625 39.203125 
Q 55.21875 33.984375 44.921875 32.5625 
Q 48.6875 30.765625 50.640625 29 
Q 54.78125 25.203125 58.5 19.484375 
L 70.953125 0 
L 59.03125 0 
L 49.5625 14.890625 
Q 45.40625 21.34375 42.71875 24.75 
Q 40.046875 28.171875 37.921875 29.53125 
Q 35.796875 30.90625 33.59375 31.453125 
Q 31.984375 31.78125 28.328125 31.78125 
L 17.328125 31.78125 
L 17.328125 0 
z
M 17.328125 39.984375 
L 37.703125 39.984375 
Q 44.1875 39.984375 47.84375 41.328125 
Q 51.515625 42.671875 53.421875 45.625 
Q 55.328125 48.578125 55.328125 52.046875 
Q 55.328125 57.125 51.640625 60.390625 
Q 47.953125 63.671875 39.984375 63.671875 
L 17.328125 63.671875 
z
" id="ArialMT-82"/>
      <path d="M 9.03125 41.84375 
L 9.03125 51.859375 
L 19.046875 51.859375 
L 19.046875 41.84375 
z
M 9.03125 0 
L 9.03125 10.015625 
L 19.046875 10.015625 
L 19.046875 0 
z
" id="ArialMT-58"/>
      <path d="M 6.640625 0 
L 6.640625 71.578125 
L 15.4375 71.578125 
L 15.4375 30.765625 
L 36.234375 51.859375 
L 47.609375 51.859375 
L 27.78125 32.625 
L 49.609375 0 
L 38.765625 0 
L 21.625 26.515625 
L 15.4375 20.5625 
L 15.4375 0 
z
" id="ArialMT-107"/>
      <path d="M 0 -1.21875 
L 20.75 72.796875 
L 27.78125 72.796875 
L 7.078125 -1.21875 
z
" id="ArialMT-47"/>
      <path d="M 7.328125 0 
L 7.328125 71.578125 
L 34.1875 71.578125 
Q 42.390625 71.578125 47.34375 69.40625 
Q 52.296875 67.234375 55.09375 62.71875 
Q 57.90625 58.203125 57.90625 53.265625 
Q 57.90625 48.6875 55.421875 44.625 
Q 52.9375 40.578125 47.90625 38.09375 
Q 54.390625 36.1875 57.875 31.59375 
Q 61.375 27 61.375 20.75 
Q 61.375 15.71875 59.25 11.390625 
Q 57.125 7.078125 54 4.734375 
Q 50.875 2.390625 46.15625 1.1875 
Q 41.453125 0 34.625 0 
z
M 16.796875 41.5 
L 32.28125 41.5 
Q 38.578125 41.5 41.3125 42.328125 
Q 44.921875 43.40625 46.75 45.890625 
Q 48.578125 48.390625 48.578125 52.15625 
Q 48.578125 55.71875 46.875 58.421875 
Q 45.171875 61.140625 41.984375 62.140625 
Q 38.8125 63.140625 31.109375 63.140625 
L 16.796875 63.140625 
z
M 16.796875 8.453125 
L 34.625 8.453125 
Q 39.203125 8.453125 41.0625 8.796875 
Q 44.34375 9.375 46.53125 10.734375 
Q 48.734375 12.109375 50.140625 14.71875 
Q 51.5625 17.328125 51.5625 20.75 
Q 51.5625 24.75 49.515625 27.703125 
Q 47.46875 30.671875 43.828125 31.859375 
Q 40.1875 33.0625 33.34375 33.0625 
L 16.796875 33.0625 
z
" id="ArialMT-66"/>
      <path d="M 8.6875 0 
L 8.6875 45.015625 
L 0.921875 45.015625 
L 0.921875 51.859375 
L 8.6875 51.859375 
L 8.6875 57.375 
Q 8.6875 62.59375 9.625 65.140625 
Q 10.890625 68.5625 14.078125 70.671875 
Q 17.28125 72.796875 23.046875 72.796875 
Q 26.765625 72.796875 31.25 71.921875 
L 29.9375 64.265625 
Q 27.203125 64.75 24.75 64.75 
Q 20.75 64.75 19.09375 63.03125 
Q 17.4375 61.328125 17.4375 56.640625 
L 17.4375 51.859375 
L 27.546875 51.859375 
L 27.546875 45.015625 
L 17.4375 45.015625 
L 17.4375 0 
z
" id="ArialMT-102"/>
     </defs>
     <g style="fill:#262626;" transform="translate(19.5687 353.859187)rotate(-90)scale(0.1728 -0.1728)">
      <use xlink:href="#ArialMT-67"/>
      <use x="72.216797" xlink:href="#ArialMT-114"/>
      <use x="105.517578" xlink:href="#ArialMT-97"/>
      <use x="161.132812" xlink:href="#ArialMT-115"/>
      <use x="211.132812" xlink:href="#ArialMT-104"/>
      <use x="266.748047" xlink:href="#ArialMT-32"/>
      <use x="294.53125" xlink:href="#ArialMT-82"/>
      <use x="366.748047" xlink:href="#ArialMT-97"/>
      <use x="422.363281" xlink:href="#ArialMT-116"/>
      <use x="450.146484" xlink:href="#ArialMT-105"/>
      <use x="472.363281" xlink:href="#ArialMT-111"/>
      <use x="527.978516" xlink:href="#ArialMT-58"/>
      <use x="555.761719" xlink:href="#ArialMT-32"/>
      <use x="583.544922" xlink:href="#ArialMT-68"/>
      <use x="655.761719" xlink:href="#ArialMT-83"/>
      <use x="722.460938" xlink:href="#ArialMT-84"/>
      <use x="781.794922" xlink:href="#ArialMT-32"/>
      <use x="809.578125" xlink:href="#ArialMT-87"/>
      <use x="902.212891" xlink:href="#ArialMT-101"/>
      <use x="957.828125" xlink:href="#ArialMT-101"/>
      <use x="1013.443359" xlink:href="#ArialMT-107"/>
      <use x="1063.443359" xlink:href="#ArialMT-32"/>
      <use x="1091.226562" xlink:href="#ArialMT-47"/>
      <use x="1119.009766" xlink:href="#ArialMT-32"/>
      <use x="1146.792969" xlink:href="#ArialMT-87"/>
      <use x="1239.427734" xlink:href="#ArialMT-101"/>
      <use x="1295.042969" xlink:href="#ArialMT-101"/>
      <use x="1350.658203" xlink:href="#ArialMT-107"/>
      <use x="1400.658203" xlink:href="#ArialMT-32"/>
      <use x="1428.441406" xlink:href="#ArialMT-66"/>
      <use x="1495.140625" xlink:href="#ArialMT-101"/>
      <use x="1550.755859" xlink:href="#ArialMT-102"/>
      <use x="1578.539062" xlink:href="#ArialMT-111"/>
      <use x="1634.154297" xlink:href="#ArialMT-114"/>
      <use x="1667.455078" xlink:href="#ArialMT-101"/>
     </g>
    </g>
   </g>
   <g id="PolyCollection_1">
    <defs>
     <path d="M 110.802873 -109.436958 
L 84.78047 -109.436958 
L 83.433042 -110.235292 
L 82.023641 -111.033626 
L 80.560372 -111.83196 
L 79.052837 -112.630294 
L 77.512067 -113.428628 
L 75.950397 -114.226962 
L 74.381309 -115.025296 
L 72.819228 -115.823629 
L 71.279275 -116.621963 
L 69.776995 -117.420297 
L 68.328044 -118.218631 
L 66.947871 -119.016965 
L 65.651374 -119.815299 
L 64.452561 -120.613633 
L 63.364221 -121.411967 
L 62.397608 -122.210301 
L 61.56216 -123.008635 
L 60.865253 -123.806969 
L 60.312 -124.605303 
L 59.905113 -125.403637 
L 59.644814 -126.201971 
L 59.528814 -127.000304 
L 59.552362 -127.798638 
L 59.708343 -128.596972 
L 59.987455 -129.395306 
L 60.378425 -130.19364 
L 60.868287 -130.991974 
L 61.442692 -131.790308 
L 62.08625 -132.588642 
L 62.782896 -133.386976 
L 63.516264 -134.18531 
L 64.270057 -134.983644 
L 65.028405 -135.781978 
L 65.776207 -136.580312 
L 66.499436 -137.378646 
L 67.185407 -138.17698 
L 67.823007 -138.975313 
L 68.402873 -139.773647 
L 68.91752 -140.571981 
L 69.361422 -141.370315 
L 69.731039 -142.168649 
L 70.024802 -142.966983 
L 70.24305 -143.765317 
L 70.387929 -144.563651 
L 70.463259 -145.361985 
L 70.474371 -146.160319 
L 70.42792 -146.958653 
L 70.331681 -147.756987 
L 70.19434 -148.555321 
L 70.025271 -149.353655 
L 69.834314 -150.151988 
L 69.631563 -150.950322 
L 69.427151 -151.748656 
L 69.231054 -152.54699 
L 69.052903 -153.345324 
L 68.901816 -154.143658 
L 68.786242 -154.941992 
L 68.713834 -155.740326 
L 68.691331 -156.53866 
L 68.724468 -157.336994 
L 68.817912 -158.135328 
L 68.975213 -158.933662 
L 69.198782 -159.731996 
L 69.489893 -160.53033 
L 69.848703 -161.328664 
L 70.274298 -162.126997 
L 70.764754 -162.925331 
L 71.317223 -163.723665 
L 71.928023 -164.521999 
L 72.592756 -165.320333 
L 73.306421 -166.118667 
L 74.063546 -166.917001 
L 74.858311 -167.715335 
L 75.684686 -168.513669 
L 76.536547 -169.312003 
L 77.407802 -170.110337 
L 78.292492 -170.908671 
L 79.184891 -171.707005 
L 80.079586 -172.505339 
L 80.971541 -173.303672 
L 81.856143 -174.102006 
L 82.729242 -174.90034 
L 83.58716 -175.698674 
L 84.426697 -176.497008 
L 85.245117 -177.295342 
L 86.040132 -178.093676 
L 86.809866 -178.89201 
L 87.552823 -179.690344 
L 88.267846 -180.488678 
L 88.954078 -181.287012 
L 89.610919 -182.085346 
L 90.237989 -182.88368 
L 90.835098 -183.682014 
L 91.402208 -184.480348 
L 91.939418 -185.278681 
L 92.446937 -186.077015 
L 92.925072 -186.875349 
L 93.374221 -187.673683 
L 93.794862 -188.472017 
L 101.788481 -188.472017 
L 101.788481 -188.472017 
L 102.209122 -187.673683 
L 102.658271 -186.875349 
L 103.136406 -186.077015 
L 103.643925 -185.278681 
L 104.181135 -184.480348 
L 104.748245 -183.682014 
L 105.345354 -182.88368 
L 105.972424 -182.085346 
L 106.629265 -181.287012 
L 107.315497 -180.488678 
L 108.03052 -179.690344 
L 108.773477 -178.89201 
L 109.543211 -178.093676 
L 110.338225 -177.295342 
L 111.156646 -176.497008 
L 111.996182 -175.698674 
L 112.854101 -174.90034 
L 113.7272 -174.102006 
L 114.611802 -173.303672 
L 115.503756 -172.505339 
L 116.398451 -171.707005 
L 117.290851 -170.908671 
L 118.175541 -170.110337 
L 119.046796 -169.312003 
L 119.898657 -168.513669 
L 120.725032 -167.715335 
L 121.519797 -166.917001 
L 122.276922 -166.118667 
L 122.990587 -165.320333 
L 123.65532 -164.521999 
L 124.26612 -163.723665 
L 124.818589 -162.925331 
L 125.309045 -162.126997 
L 125.73464 -161.328664 
L 126.09345 -160.53033 
L 126.38456 -159.731996 
L 126.60813 -158.933662 
L 126.765431 -158.135328 
L 126.858875 -157.336994 
L 126.892012 -156.53866 
L 126.869508 -155.740326 
L 126.7971 -154.941992 
L 126.681527 -154.143658 
L 126.53044 -153.345324 
L 126.352289 -152.54699 
L 126.156192 -151.748656 
L 125.95178 -150.950322 
L 125.749029 -150.151988 
L 125.558072 -149.353655 
L 125.389002 -148.555321 
L 125.251661 -147.756987 
L 125.155423 -146.958653 
L 125.108971 -146.160319 
L 125.120084 -145.361985 
L 125.195414 -144.563651 
L 125.340293 -143.765317 
L 125.558541 -142.966983 
L 125.852303 -142.168649 
L 126.221921 -141.370315 
L 126.665822 -140.571981 
L 127.18047 -139.773647 
L 127.760336 -138.975313 
L 128.397936 -138.17698 
L 129.083907 -137.378646 
L 129.807135 -136.580312 
L 130.554938 -135.781978 
L 131.313286 -134.983644 
L 132.067079 -134.18531 
L 132.800447 -133.386976 
L 133.497093 -132.588642 
L 134.140651 -131.790308 
L 134.715055 -130.991974 
L 135.204918 -130.19364 
L 135.595888 -129.395306 
L 135.875 -128.596972 
L 136.030981 -127.798638 
L 136.054529 -127.000304 
L 135.938529 -126.201971 
L 135.67823 -125.403637 
L 135.271343 -124.605303 
L 134.71809 -123.806969 
L 134.021183 -123.008635 
L 133.185735 -122.210301 
L 132.219122 -121.411967 
L 131.130782 -120.613633 
L 129.931969 -119.815299 
L 128.635472 -119.016965 
L 127.255299 -118.218631 
L 125.806348 -117.420297 
L 124.304067 -116.621963 
L 122.764115 -115.823629 
L 121.202034 -115.025296 
L 119.632946 -114.226962 
L 118.071276 -113.428628 
L 116.530506 -112.630294 
L 115.022971 -111.83196 
L 113.559701 -111.033626 
L 112.1503 -110.235292 
L 110.802873 -109.436958 
z
" id="mbbc7519d84" style="stroke:#414141;stroke-width:2;"/>
    </defs>
    <g clip-path="url(#p420d7da020)">
     <use style="fill:#e68193;stroke:#414141;stroke-width:2;" x="0" xlink:href="#mbbc7519d84" y="391.910113"/>
    </g>
   </g>
   <g id="PolyCollection_2">
    <defs>
     <path d="M 196.264365 -97.595978 
L 190.633264 -97.595978 
L 190.359953 -98.625744 
L 190.079525 -99.655511 
L 189.79401 -100.685277 
L 189.505457 -101.715043 
L 189.215849 -102.744809 
L 188.927014 -103.774575 
L 188.640545 -104.804342 
L 188.357709 -105.834108 
L 188.079384 -106.863874 
L 187.805989 -107.89364 
L 187.537438 -108.923407 
L 187.273115 -109.953173 
L 187.011856 -110.982939 
L 186.751961 -112.012705 
L 186.491216 -113.042471 
L 186.226946 -114.072238 
L 185.956069 -115.102004 
L 185.675178 -116.13177 
L 185.380626 -117.161536 
L 185.068628 -118.191302 
L 184.735362 -119.221069 
L 184.377082 -120.250835 
L 183.990228 -121.280601 
L 183.571534 -122.310367 
L 183.118139 -123.340134 
L 182.627687 -124.3699 
L 182.09842 -125.399666 
L 181.529268 -126.429432 
L 180.919915 -127.459198 
L 180.270859 -128.488965 
L 179.58345 -129.518731 
L 178.859902 -130.548497 
L 178.103294 -131.578263 
L 177.317524 -132.60803 
L 176.507254 -133.637796 
L 175.67781 -134.667562 
L 174.835064 -135.697328 
L 173.985278 -136.727094 
L 173.134933 -137.756861 
L 172.29053 -138.786627 
L 171.458391 -139.816393 
L 170.644441 -140.846159 
L 169.854012 -141.875925 
L 169.091647 -142.905692 
L 168.360948 -143.935458 
L 167.664441 -144.965224 
L 167.003502 -145.99499 
L 166.378329 -147.024757 
L 165.787968 -148.054523 
L 165.230405 -149.084289 
L 164.702707 -150.114055 
L 164.201226 -151.143821 
L 163.721846 -152.173588 
L 163.260262 -153.203354 
L 162.812289 -154.23312 
L 162.374174 -155.262886 
L 161.942909 -156.292653 
L 161.516509 -157.322419 
L 161.094263 -158.352185 
L 160.676927 -159.381951 
L 160.266846 -160.411717 
L 159.868012 -161.441484 
L 159.486039 -162.47125 
L 159.128052 -163.501016 
L 158.802505 -164.530782 
L 158.518923 -165.560548 
L 158.287586 -166.590315 
L 158.119162 -167.620081 
L 158.024314 -168.649847 
L 158.013291 -169.679613 
L 158.095525 -170.70938 
L 158.27925 -171.739146 
L 158.571171 -172.768912 
L 158.976173 -173.798678 
L 159.497109 -174.828444 
L 160.134661 -175.858211 
L 160.887276 -176.887977 
L 161.751186 -177.917743 
L 162.720503 -178.947509 
L 163.787382 -179.977276 
L 164.942248 -181.007042 
L 166.174066 -182.036808 
L 167.470653 -183.066574 
L 168.819001 -184.09634 
L 170.205618 -185.126107 
L 171.616858 -186.155873 
L 173.039235 -187.185639 
L 174.459711 -188.215405 
L 175.865952 -189.245171 
L 177.246542 -190.274938 
L 178.591151 -191.304704 
L 179.890672 -192.33447 
L 181.137297 -193.364236 
L 182.324568 -194.394003 
L 183.44738 -195.423769 
L 184.501952 -196.453535 
L 185.485774 -197.483301 
L 186.397528 -198.513067 
L 187.236985 -199.542834 
L 199.660644 -199.542834 
L 199.660644 -199.542834 
L 200.500101 -198.513067 
L 201.411854 -197.483301 
L 202.395677 -196.453535 
L 203.450249 -195.423769 
L 204.57306 -194.394003 
L 205.760331 -193.364236 
L 207.006957 -192.33447 
L 208.306477 -191.304704 
L 209.651087 -190.274938 
L 211.031676 -189.245171 
L 212.437918 -188.215405 
L 213.858394 -187.185639 
L 215.280771 -186.155873 
L 216.692011 -185.126107 
L 218.078628 -184.09634 
L 219.426976 -183.066574 
L 220.723562 -182.036808 
L 221.955381 -181.007042 
L 223.110247 -179.977276 
L 224.177126 -178.947509 
L 225.146442 -177.917743 
L 226.010352 -176.887977 
L 226.762967 -175.858211 
L 227.400519 -174.828444 
L 227.921456 -173.798678 
L 228.326457 -172.768912 
L 228.618378 -171.739146 
L 228.802104 -170.70938 
L 228.884337 -169.679613 
L 228.873314 -168.649847 
L 228.778467 -167.620081 
L 228.610043 -166.590315 
L 228.378705 -165.560548 
L 228.095124 -164.530782 
L 227.769577 -163.501016 
L 227.41159 -162.47125 
L 227.029616 -161.441484 
L 226.630783 -160.411717 
L 226.220702 -159.381951 
L 225.803365 -158.352185 
L 225.38112 -157.322419 
L 224.95472 -156.292653 
L 224.523454 -155.262886 
L 224.08534 -154.23312 
L 223.637366 -153.203354 
L 223.175782 -152.173588 
L 222.696402 -151.143821 
L 222.194922 -150.114055 
L 221.667224 -149.084289 
L 221.10966 -148.054523 
L 220.5193 -147.024757 
L 219.894127 -145.99499 
L 219.233188 -144.965224 
L 218.536681 -143.935458 
L 217.805981 -142.905692 
L 217.043617 -141.875925 
L 216.253188 -140.846159 
L 215.439238 -139.816393 
L 214.607098 -138.786627 
L 213.762696 -137.756861 
L 212.91235 -136.727094 
L 212.062564 -135.697328 
L 211.219818 -134.667562 
L 210.390375 -133.637796 
L 209.580105 -132.60803 
L 208.794335 -131.578263 
L 208.037726 -130.548497 
L 207.314179 -129.518731 
L 206.626769 -128.488965 
L 205.977714 -127.459198 
L 205.368361 -126.429432 
L 204.799208 -125.399666 
L 204.269942 -124.3699 
L 203.779489 -123.340134 
L 203.326094 -122.310367 
L 202.9074 -121.280601 
L 202.520546 -120.250835 
L 202.162267 -119.221069 
L 201.829001 -118.191302 
L 201.517003 -117.161536 
L 201.222451 -116.13177 
L 200.941559 -115.102004 
L 200.670683 -114.072238 
L 200.406412 -113.042471 
L 200.145668 -112.012705 
L 199.885772 -110.982939 
L 199.624513 -109.953173 
L 199.36019 -108.923407 
L 199.09164 -107.89364 
L 198.818244 -106.863874 
L 198.539919 -105.834108 
L 198.257084 -104.804342 
L 197.970614 -103.774575 
L 197.68178 -102.744809 
L 197.392172 -101.715043 
L 197.103619 -100.685277 
L 196.818104 -99.655511 
L 196.537676 -98.625744 
L 196.264365 -97.595978 
z
" id="m848b1914e4" style="stroke:#414141;stroke-width:2;"/>
    </defs>
    <g clip-path="url(#p420d7da020)">
     <use style="fill:#b38e44;stroke:#414141;stroke-width:2;" x="0" xlink:href="#m848b1914e4" y="391.910113"/>
    </g>
   </g>
   <g id="PolyCollection_3">
    <defs>
     <path d="M 292.990174 -105.98584 
L 285.22174 -105.98584 
L 284.735583 -107.485928 
L 284.220172 -108.986015 
L 283.677602 -110.486103 
L 283.110156 -111.98619 
L 282.520172 -113.486278 
L 281.90991 -114.986366 
L 281.281418 -116.486453 
L 280.63642 -117.986541 
L 279.976214 -119.486628 
L 279.301617 -120.986716 
L 278.612936 -122.486804 
L 277.909982 -123.986891 
L 277.192133 -125.486979 
L 276.458422 -126.987066 
L 275.707669 -128.487154 
L 274.938635 -129.987242 
L 274.150183 -131.487329 
L 273.341458 -132.987417 
L 272.512048 -134.487504 
L 271.662141 -135.987592 
L 270.792654 -137.487679 
L 269.905346 -138.987767 
L 269.002892 -140.487855 
L 268.088936 -141.987942 
L 267.168116 -143.48803 
L 266.246065 -144.988117 
L 265.329389 -146.488205 
L 264.425622 -147.988293 
L 263.543168 -149.48838 
L 262.691211 -150.988468 
L 261.879612 -152.488555 
L 261.118773 -153.988643 
L 260.419473 -155.488731 
L 259.792668 -156.988818 
L 259.249256 -158.488906 
L 258.799817 -159.988993 
L 258.454313 -161.489081 
L 258.221776 -162.989169 
L 258.109986 -164.489256 
L 258.125157 -165.989344 
L 258.271652 -167.489431 
L 258.551732 -168.989519 
L 258.965378 -170.489606 
L 259.51018 -171.989694 
L 260.181315 -173.489782 
L 260.971618 -174.989869 
L 261.871745 -176.489957 
L 262.870418 -177.990044 
L 263.95475 -179.490132 
L 265.110625 -180.99022 
L 266.323108 -182.490307 
L 267.57688 -183.990395 
L 268.856655 -185.490482 
L 270.147575 -186.99057 
L 271.435556 -188.490658 
L 272.707565 -189.990745 
L 273.951845 -191.490833 
L 275.158051 -192.99092 
L 276.317321 -194.491008 
L 277.422286 -195.991095 
L 278.467022 -197.491183 
L 279.446959 -198.991271 
L 280.358763 -200.491358 
L 281.200204 -201.991446 
L 281.970019 -203.491533 
L 282.667786 -204.991621 
L 283.293815 -206.491709 
L 283.849054 -207.991796 
L 284.335029 -209.491884 
L 284.753796 -210.991971 
L 285.107918 -212.492059 
L 285.400461 -213.992147 
L 285.634982 -215.492234 
L 285.81554 -216.992322 
L 285.946678 -218.492409 
L 286.033414 -219.992497 
L 286.081195 -221.492584 
L 286.095845 -222.992672 
L 286.083482 -224.49276 
L 286.050413 -225.992847 
L 286.003014 -227.492935 
L 285.947591 -228.993022 
L 285.890228 -230.49311 
L 285.836637 -231.993198 
L 285.792012 -233.493285 
L 285.760893 -234.993373 
L 285.747055 -236.49346 
L 285.753412 -237.993548 
L 285.781971 -239.493636 
L 285.833802 -240.993723 
L 285.909059 -242.493811 
L 286.007025 -243.993898 
L 286.126196 -245.493986 
L 286.26439 -246.994073 
L 286.418879 -248.494161 
L 286.586532 -249.994249 
L 286.763967 -251.494336 
L 286.947702 -252.994424 
L 287.134292 -254.494511 
L 291.077622 -254.494511 
L 291.077622 -254.494511 
L 291.264212 -252.994424 
L 291.447947 -251.494336 
L 291.625383 -249.994249 
L 291.793036 -248.494161 
L 291.947525 -246.994073 
L 292.085719 -245.493986 
L 292.204889 -243.993898 
L 292.302855 -242.493811 
L 292.378112 -240.993723 
L 292.429944 -239.493636 
L 292.458502 -237.993548 
L 292.46486 -236.49346 
L 292.451021 -234.993373 
L 292.419903 -233.493285 
L 292.375278 -231.993198 
L 292.321687 -230.49311 
L 292.264323 -228.993022 
L 292.2089 -227.492935 
L 292.161501 -225.992847 
L 292.128432 -224.49276 
L 292.116069 -222.992672 
L 292.130719 -221.492584 
L 292.1785 -219.992497 
L 292.265236 -218.492409 
L 292.396375 -216.992322 
L 292.576932 -215.492234 
L 292.811454 -213.992147 
L 293.103996 -212.492059 
L 293.458119 -210.991971 
L 293.876885 -209.491884 
L 294.36286 -207.991796 
L 294.9181 -206.491709 
L 295.544128 -204.991621 
L 296.241896 -203.491533 
L 297.01171 -201.991446 
L 297.853151 -200.491358 
L 298.764955 -198.991271 
L 299.744892 -197.491183 
L 300.789628 -195.991095 
L 301.894594 -194.491008 
L 303.053864 -192.99092 
L 304.260069 -191.490833 
L 305.504349 -189.990745 
L 306.776359 -188.490658 
L 308.064339 -186.99057 
L 309.355259 -185.490482 
L 310.635035 -183.990395 
L 311.888806 -182.490307 
L 313.101289 -180.99022 
L 314.257164 -179.490132 
L 315.341497 -177.990044 
L 316.34017 -176.489957 
L 317.240296 -174.989869 
L 318.030599 -173.489782 
L 318.701734 -171.989694 
L 319.246536 -170.489606 
L 319.660182 -168.989519 
L 319.940262 -167.489431 
L 320.086757 -165.989344 
L 320.101928 -164.489256 
L 319.990138 -162.989169 
L 319.757601 -161.489081 
L 319.412097 -159.988993 
L 318.962658 -158.488906 
L 318.419247 -156.988818 
L 317.792441 -155.488731 
L 317.093141 -153.988643 
L 316.332302 -152.488555 
L 315.520704 -150.988468 
L 314.668746 -149.48838 
L 313.786292 -147.988293 
L 312.882525 -146.488205 
L 311.965849 -144.988117 
L 311.043798 -143.48803 
L 310.122978 -141.987942 
L 309.209022 -140.487855 
L 308.306568 -138.987767 
L 307.41926 -137.487679 
L 306.549774 -135.987592 
L 305.699866 -134.487504 
L 304.870456 -132.987417 
L 304.061731 -131.487329 
L 303.273279 -129.987242 
L 302.504245 -128.487154 
L 301.753493 -126.987066 
L 301.019781 -125.486979 
L 300.301932 -123.986891 
L 299.598978 -122.486804 
L 298.910297 -120.986716 
L 298.2357 -119.486628 
L 297.575495 -117.986541 
L 296.930496 -116.486453 
L 296.302005 -114.986366 
L 295.691742 -113.486278 
L 295.101758 -111.98619 
L 294.534312 -110.486103 
L 293.991743 -108.986015 
L 293.476331 -107.485928 
L 292.990174 -105.98584 
z
" id="m7af44519c9" style="stroke:#414141;stroke-width:2;"/>
    </defs>
    <g clip-path="url(#p420d7da020)">
     <use style="fill:#7d9a40;stroke:#414141;stroke-width:2;" x="0" xlink:href="#m7af44519c9" y="391.910113"/>
    </g>
   </g>
   <g id="PolyCollection_4">
    <defs>
     <path d="M 387.237252 -81.642539 
L 382.288948 -81.642539 
L 382.029105 -83.162643 
L 381.758949 -84.682747 
L 381.480226 -86.202852 
L 381.194824 -87.722956 
L 380.904704 -89.24306 
L 380.611826 -90.763164 
L 380.31806 -92.283268 
L 380.025102 -93.803372 
L 379.734377 -95.323476 
L 379.446955 -96.843581 
L 379.163471 -98.363685 
L 378.884057 -99.883789 
L 378.60829 -101.403893 
L 378.335161 -102.923997 
L 378.063075 -104.444101 
L 377.789861 -105.964205 
L 377.512832 -107.484309 
L 377.228854 -109.004414 
L 376.934455 -110.524518 
L 376.625948 -112.044622 
L 376.299587 -113.564726 
L 375.951725 -115.08483 
L 375.578989 -116.604934 
L 375.178454 -118.125038 
L 374.74781 -119.645143 
L 374.285516 -121.165247 
L 373.79093 -122.685351 
L 373.26441 -124.205455 
L 372.707383 -125.725559 
L 372.122367 -127.245663 
L 371.512955 -128.765767 
L 370.883755 -130.285872 
L 370.240282 -131.805976 
L 369.588812 -133.32608 
L 368.936202 -134.846184 
L 368.289682 -136.366288 
L 367.656621 -137.886392 
L 367.044292 -139.406496 
L 366.459631 -140.9266 
L 365.909008 -142.446705 
L 365.398022 -143.966809 
L 364.931328 -145.486913 
L 364.512496 -147.007017 
L 364.143923 -148.527121 
L 363.826794 -150.047225 
L 363.56109 -151.567329 
L 363.345654 -153.087434 
L 363.178293 -154.607538 
L 363.055936 -156.127642 
L 362.974816 -157.647746 
L 362.930676 -159.16785 
L 362.918995 -160.687954 
L 362.935212 -162.208058 
L 362.974943 -163.728163 
L 363.034176 -165.248267 
L 363.109444 -166.768371 
L 363.197956 -168.288475 
L 363.29769 -169.808579 
L 363.407443 -171.328683 
L 363.526837 -172.848787 
L 363.65628 -174.368891 
L 363.796895 -175.888996 
L 363.950407 -177.4091 
L 364.119019 -178.929204 
L 364.305262 -180.449308 
L 364.511836 -181.969412 
L 364.741464 -183.489516 
L 364.996738 -185.00962 
L 365.279991 -186.529725 
L 365.593186 -188.049829 
L 365.937826 -189.569933 
L 366.314889 -191.090037 
L 366.724794 -192.610141 
L 367.16738 -194.130245 
L 367.64192 -195.650349 
L 368.147142 -197.170454 
L 368.68127 -198.690558 
L 369.242081 -200.210662 
L 369.826954 -201.730766 
L 370.432943 -203.25087 
L 371.056835 -204.770974 
L 371.695215 -206.291078 
L 372.344526 -207.811182 
L 373.001125 -209.331287 
L 373.661337 -210.851391 
L 374.321505 -212.371495 
L 374.978029 -213.891599 
L 375.627416 -215.411703 
L 376.266312 -216.931807 
L 376.891542 -218.451911 
L 377.500141 -219.972016 
L 378.089388 -221.49212 
L 378.65683 -223.012224 
L 379.200312 -224.532328 
L 379.717991 -226.052432 
L 380.208356 -227.572536 
L 380.67024 -229.09264 
L 381.102817 -230.612745 
L 381.505611 -232.132849 
L 388.020589 -232.132849 
L 388.020589 -232.132849 
L 388.423383 -230.612745 
L 388.85596 -229.09264 
L 389.317844 -227.572536 
L 389.808209 -226.052432 
L 390.325888 -224.532328 
L 390.86937 -223.012224 
L 391.436812 -221.49212 
L 392.026059 -219.972016 
L 392.634658 -218.451911 
L 393.259888 -216.931807 
L 393.898784 -215.411703 
L 394.548171 -213.891599 
L 395.204695 -212.371495 
L 395.864863 -210.851391 
L 396.525075 -209.331287 
L 397.181674 -207.811182 
L 397.830985 -206.291078 
L 398.469365 -204.770974 
L 399.093257 -203.25087 
L 399.699246 -201.730766 
L 400.284119 -200.210662 
L 400.84493 -198.690558 
L 401.379058 -197.170454 
L 401.88428 -195.650349 
L 402.35882 -194.130245 
L 402.801406 -192.610141 
L 403.211311 -191.090037 
L 403.588374 -189.569933 
L 403.933014 -188.049829 
L 404.246209 -186.529725 
L 404.529462 -185.00962 
L 404.784736 -183.489516 
L 405.014364 -181.969412 
L 405.220938 -180.449308 
L 405.407181 -178.929204 
L 405.575793 -177.4091 
L 405.729305 -175.888996 
L 405.86992 -174.368891 
L 405.999363 -172.848787 
L 406.118757 -171.328683 
L 406.22851 -169.808579 
L 406.328244 -168.288475 
L 406.416756 -166.768371 
L 406.492024 -165.248267 
L 406.551257 -163.728163 
L 406.590988 -162.208058 
L 406.607205 -160.687954 
L 406.595524 -159.16785 
L 406.551384 -157.647746 
L 406.470264 -156.127642 
L 406.347907 -154.607538 
L 406.180546 -153.087434 
L 405.96511 -151.567329 
L 405.699406 -150.047225 
L 405.382277 -148.527121 
L 405.013704 -147.007017 
L 404.594872 -145.486913 
L 404.128178 -143.966809 
L 403.617192 -142.446705 
L 403.066569 -140.9266 
L 402.481908 -139.406496 
L 401.869579 -137.886392 
L 401.236518 -136.366288 
L 400.589998 -134.846184 
L 399.937388 -133.32608 
L 399.285918 -131.805976 
L 398.642445 -130.285872 
L 398.013245 -128.765767 
L 397.403833 -127.245663 
L 396.818817 -125.725559 
L 396.26179 -124.205455 
L 395.73527 -122.685351 
L 395.240684 -121.165247 
L 394.77839 -119.645143 
L 394.347746 -118.125038 
L 393.947211 -116.604934 
L 393.574475 -115.08483 
L 393.226613 -113.564726 
L 392.900252 -112.044622 
L 392.591745 -110.524518 
L 392.297346 -109.004414 
L 392.013368 -107.484309 
L 391.736339 -105.964205 
L 391.463125 -104.444101 
L 391.191039 -102.923997 
L 390.91791 -101.403893 
L 390.642143 -99.883789 
L 390.362729 -98.363685 
L 390.079245 -96.843581 
L 389.791823 -95.323476 
L 389.501098 -93.803372 
L 389.20814 -92.283268 
L 388.914374 -90.763164 
L 388.621496 -89.24306 
L 388.331376 -87.722956 
L 388.045974 -86.202852 
L 387.767251 -84.682747 
L 387.497095 -83.162643 
L 387.237252 -81.642539 
z
" id="m4f30c935af" style="stroke:#414141;stroke-width:2;"/>
    </defs>
    <g clip-path="url(#p420d7da020)">
     <use style="fill:#43a084;stroke:#414141;stroke-width:2;" x="0" xlink:href="#m4f30c935af" y="391.910113"/>
    </g>
   </g>
   <g id="PolyCollection_5">
    <defs>
     <path d="M 483.354473 -101.028079 
L 477.486013 -101.028079 
L 477.144932 -102.230209 
L 476.782609 -103.432339 
L 476.399745 -104.634469 
L 475.997174 -105.8366 
L 475.575829 -107.03873 
L 475.136712 -108.24086 
L 474.68087 -109.44299 
L 474.209365 -110.64512 
L 473.723261 -111.84725 
L 473.223603 -113.04938 
L 472.711419 -114.25151 
L 472.187716 -115.45364 
L 471.653482 -116.65577 
L 471.109698 -117.8579 
L 470.557342 -119.06003 
L 469.997395 -120.26216 
L 469.430842 -121.46429 
L 468.858668 -122.66642 
L 468.281839 -123.86855 
L 467.701283 -125.07068 
L 467.117855 -126.27281 
L 466.532296 -127.47494 
L 465.945191 -128.67707 
L 465.356916 -129.8792 
L 464.767598 -131.08133 
L 464.177072 -132.28346 
L 463.58486 -133.48559 
L 462.990154 -134.68772 
L 462.391832 -135.88985 
L 461.788493 -137.09198 
L 461.178515 -138.29411 
L 460.560144 -139.49624 
L 459.93161 -140.69837 
L 459.291261 -141.9005 
L 458.63772 -143.10263 
L 457.970053 -144.30476 
L 457.287943 -145.50689 
L 456.591859 -146.70902 
L 455.883215 -147.91115 
L 455.164507 -149.11328 
L 454.439417 -150.315411 
L 453.712881 -151.517541 
L 452.991107 -152.719671 
L 452.281542 -153.921801 
L 451.592784 -155.123931 
L 450.934436 -156.326061 
L 450.316903 -157.528191 
L 449.751136 -158.730321 
L 449.248338 -159.932451 
L 448.819624 -161.134581 
L 448.475667 -162.336711 
L 448.226329 -163.538841 
L 448.080295 -164.740971 
L 448.044737 -165.943101 
L 448.125003 -167.145231 
L 448.324362 -168.347361 
L 448.643818 -169.549491 
L 449.08199 -170.751621 
L 449.635079 -171.953751 
L 450.29692 -173.155881 
L 451.059123 -174.358011 
L 451.911296 -175.560141 
L 452.841339 -176.762271 
L 453.835806 -177.964401 
L 454.880317 -179.166531 
L 455.959997 -180.368661 
L 457.059934 -181.570791 
L 458.165629 -182.772921 
L 459.263419 -183.975051 
L 460.340864 -185.177181 
L 461.387066 -186.379311 
L 462.392931 -187.581441 
L 463.351339 -188.783571 
L 464.257235 -189.985701 
L 465.107639 -191.187831 
L 465.901565 -192.389961 
L 466.639872 -193.592092 
L 467.32505 -194.794222 
L 467.960952 -195.996352 
L 468.55249 -197.198482 
L 469.105313 -198.400612 
L 469.625483 -199.602742 
L 470.11915 -200.804872 
L 470.59227 -202.007002 
L 471.050342 -203.209132 
L 471.498201 -204.411262 
L 471.939862 -205.613392 
L 472.378411 -206.815522 
L 472.815959 -208.017652 
L 473.253643 -209.219782 
L 473.691677 -210.421912 
L 474.129434 -211.624042 
L 474.565573 -212.826172 
L 474.998178 -214.028302 
L 475.424913 -215.230432 
L 475.843177 -216.432562 
L 476.250266 -217.634692 
L 476.643508 -218.836822 
L 477.020392 -220.038952 
L 483.820094 -220.038952 
L 483.820094 -220.038952 
L 484.196978 -218.836822 
L 484.59022 -217.634692 
L 484.997308 -216.432562 
L 485.415573 -215.230432 
L 485.842307 -214.028302 
L 486.274913 -212.826172 
L 486.711052 -211.624042 
L 487.148809 -210.421912 
L 487.586842 -209.219782 
L 488.024527 -208.017652 
L 488.462075 -206.815522 
L 488.900624 -205.613392 
L 489.342285 -204.411262 
L 489.790144 -203.209132 
L 490.248216 -202.007002 
L 490.721335 -200.804872 
L 491.215003 -199.602742 
L 491.735172 -198.400612 
L 492.287996 -197.198482 
L 492.879534 -195.996352 
L 493.515435 -194.794222 
L 494.200614 -193.592092 
L 494.938921 -192.389961 
L 495.732847 -191.187831 
L 496.583251 -189.985701 
L 497.489147 -188.783571 
L 498.447555 -187.581441 
L 499.45342 -186.379311 
L 500.499622 -185.177181 
L 501.577067 -183.975051 
L 502.674857 -182.772921 
L 503.780552 -181.570791 
L 504.880489 -180.368661 
L 505.960169 -179.166531 
L 507.00468 -177.964401 
L 507.999147 -176.762271 
L 508.92919 -175.560141 
L 509.781363 -174.358011 
L 510.543566 -173.155881 
L 511.205407 -171.953751 
L 511.758495 -170.751621 
L 512.196667 -169.549491 
L 512.516124 -168.347361 
L 512.715483 -167.145231 
L 512.795748 -165.943101 
L 512.76019 -164.740971 
L 512.614157 -163.538841 
L 512.364818 -162.336711 
L 512.020862 -161.134581 
L 511.592148 -159.932451 
L 511.089349 -158.730321 
L 510.523583 -157.528191 
L 509.90605 -156.326061 
L 509.247702 -155.123931 
L 508.558944 -153.921801 
L 507.849379 -152.719671 
L 507.127605 -151.517541 
L 506.401069 -150.315411 
L 505.675979 -149.11328 
L 504.957271 -147.91115 
L 504.248627 -146.70902 
L 503.552543 -145.50689 
L 502.870433 -144.30476 
L 502.202766 -143.10263 
L 501.549225 -141.9005 
L 500.908876 -140.69837 
L 500.280341 -139.49624 
L 499.661971 -138.29411 
L 499.051992 -137.09198 
L 498.448653 -135.88985 
L 497.850332 -134.68772 
L 497.255626 -133.48559 
L 496.663414 -132.28346 
L 496.072888 -131.08133 
L 495.48357 -129.8792 
L 494.895295 -128.67707 
L 494.308189 -127.47494 
L 493.722631 -126.27281 
L 493.139202 -125.07068 
L 492.558646 -123.86855 
L 491.981818 -122.66642 
L 491.409643 -121.46429 
L 490.843091 -120.26216 
L 490.283144 -119.06003 
L 489.730788 -117.8579 
L 489.187004 -116.65577 
L 488.65277 -115.45364 
L 488.129067 -114.25151 
L 487.616883 -113.04938 
L 487.117225 -111.84725 
L 486.63112 -110.64512 
L 486.159616 -109.44299 
L 485.703774 -108.24086 
L 485.264657 -107.03873 
L 484.843311 -105.8366 
L 484.44074 -104.634469 
L 484.057877 -103.432339 
L 483.695554 -102.230209 
L 483.354473 -101.028079 
z
" id="m002db05f59" style="stroke:#414141;stroke-width:2;"/>
    </defs>
    <g clip-path="url(#p420d7da020)">
     <use style="fill:#489eaa;stroke:#414141;stroke-width:2;" x="0" xlink:href="#m002db05f59" y="391.910113"/>
    </g>
   </g>
   <g id="PolyCollection_6">
    <defs>
     <path d="M 582.460893 -105.555325 
L 569.693878 -105.555325 
L 569.062679 -106.785519 
L 568.405338 -108.015713 
L 567.725616 -109.245907 
L 567.02785 -110.476101 
L 566.316898 -111.706295 
L 565.598074 -112.936489 
L 564.877063 -114.166683 
L 564.159819 -115.396877 
L 563.452455 -116.627071 
L 562.761117 -117.857265 
L 562.091859 -119.087459 
L 561.450504 -120.317653 
L 560.84252 -121.547847 
L 560.272886 -122.778042 
L 559.74598 -124.008236 
L 559.265476 -125.23843 
L 558.834252 -126.468624 
L 558.454323 -127.698818 
L 558.126797 -128.929012 
L 557.851852 -130.159206 
L 557.628733 -131.3894 
L 557.45578 -132.619594 
L 557.330473 -133.849788 
L 557.249506 -135.079982 
L 557.208868 -136.310176 
L 557.203949 -137.54037 
L 557.229661 -138.770564 
L 557.280554 -140.000758 
L 557.350956 -141.230952 
L 557.435099 -142.461146 
L 557.527249 -143.69134 
L 557.621832 -144.921534 
L 557.713548 -146.151728 
L 557.797475 -147.381922 
L 557.869161 -148.612116 
L 557.924698 -149.84231 
L 557.960781 -151.072504 
L 557.974755 -152.302698 
L 557.964639 -153.532892 
L 557.929135 -154.763086 
L 557.867628 -155.99328 
L 557.780165 -157.223474 
L 557.667421 -158.453668 
L 557.530662 -159.683862 
L 557.37169 -160.914056 
L 557.192787 -162.14425 
L 556.996648 -163.374444 
L 556.786319 -164.604638 
L 556.565125 -165.834832 
L 556.336607 -167.065026 
L 556.104453 -168.29522 
L 555.872438 -169.525414 
L 555.644367 -170.755608 
L 555.424022 -171.985802 
L 555.21512 -173.215996 
L 555.021269 -174.446191 
L 554.845934 -175.676385 
L 554.692414 -176.906579 
L 554.563815 -178.136773 
L 554.46303 -179.366967 
L 554.392728 -180.597161 
L 554.355339 -181.827355 
L 554.35304 -183.057549 
L 554.38775 -184.287743 
L 554.461115 -185.517937 
L 554.574498 -186.748131 
L 554.728969 -187.978325 
L 554.92529 -189.208519 
L 555.163906 -190.438713 
L 555.444927 -191.668907 
L 555.76812 -192.899101 
L 556.1329 -194.129295 
L 556.538316 -195.359489 
L 556.983052 -196.589683 
L 557.465426 -197.819877 
L 557.983397 -199.050071 
L 558.534571 -200.280265 
L 559.116226 -201.510459 
L 559.725334 -202.740653 
L 560.35859 -203.970847 
L 561.012455 -205.201041 
L 561.683193 -206.431235 
L 562.366925 -207.661429 
L 563.059678 -208.891623 
L 563.757437 -210.121817 
L 564.456205 -211.352011 
L 565.152054 -212.582205 
L 565.841181 -213.812399 
L 566.519956 -215.042593 
L 567.18497 -216.272787 
L 567.833073 -217.502981 
L 568.461412 -218.733175 
L 569.067455 -219.963369 
L 569.649014 -221.193563 
L 570.204259 -222.423757 
L 570.731723 -223.653951 
L 571.230297 -224.884145 
L 571.699232 -226.11434 
L 572.138115 -227.344534 
L 580.016657 -227.344534 
L 580.016657 -227.344534 
L 580.45554 -226.11434 
L 580.924474 -224.884145 
L 581.423049 -223.653951 
L 581.950512 -222.423757 
L 582.505757 -221.193563 
L 583.087317 -219.963369 
L 583.69336 -218.733175 
L 584.321698 -217.502981 
L 584.969802 -216.272787 
L 585.634815 -215.042593 
L 586.313591 -213.812399 
L 587.002718 -212.582205 
L 587.698567 -211.352011 
L 588.397335 -210.121817 
L 589.095094 -208.891623 
L 589.787846 -207.661429 
L 590.471578 -206.431235 
L 591.142317 -205.201041 
L 591.796181 -203.970847 
L 592.429437 -202.740653 
L 593.038545 -201.510459 
L 593.6202 -200.280265 
L 594.171375 -199.050071 
L 594.689345 -197.819877 
L 595.17172 -196.589683 
L 595.616456 -195.359489 
L 596.021872 -194.129295 
L 596.386651 -192.899101 
L 596.709845 -191.668907 
L 596.990866 -190.438713 
L 597.229481 -189.208519 
L 597.425802 -187.978325 
L 597.580273 -186.748131 
L 597.693656 -185.517937 
L 597.767021 -184.287743 
L 597.801731 -183.057549 
L 597.799433 -181.827355 
L 597.762043 -180.597161 
L 597.691741 -179.366967 
L 597.590957 -178.136773 
L 597.462357 -176.906579 
L 597.308837 -175.676385 
L 597.133503 -174.446191 
L 596.939651 -173.215996 
L 596.730749 -171.985802 
L 596.510405 -170.755608 
L 596.282333 -169.525414 
L 596.050318 -168.29522 
L 595.818164 -167.065026 
L 595.589646 -165.834832 
L 595.368453 -164.604638 
L 595.158123 -163.374444 
L 594.961985 -162.14425 
L 594.783081 -160.914056 
L 594.624109 -159.683862 
L 594.487351 -158.453668 
L 594.374607 -157.223474 
L 594.287143 -155.99328 
L 594.225637 -154.763086 
L 594.190133 -153.532892 
L 594.180016 -152.302698 
L 594.19399 -151.072504 
L 594.230074 -149.84231 
L 594.28561 -148.612116 
L 594.357296 -147.381922 
L 594.441224 -146.151728 
L 594.53294 -144.921534 
L 594.627523 -143.69134 
L 594.719673 -142.461146 
L 594.803815 -141.230952 
L 594.874217 -140.000758 
L 594.925111 -138.770564 
L 594.950822 -137.54037 
L 594.945904 -136.310176 
L 594.905265 -135.079982 
L 594.824298 -133.849788 
L 594.698992 -132.619594 
L 594.526039 -131.3894 
L 594.302919 -130.159206 
L 594.027974 -128.929012 
L 593.700449 -127.698818 
L 593.32052 -126.468624 
L 592.889295 -125.23843 
L 592.408791 -124.008236 
L 591.881886 -122.778042 
L 591.312252 -121.547847 
L 590.704267 -120.317653 
L 590.062913 -119.087459 
L 589.393654 -117.857265 
L 588.702317 -116.627071 
L 587.994953 -115.396877 
L 587.277709 -114.166683 
L 586.556697 -112.936489 
L 585.837874 -111.706295 
L 585.126921 -110.476101 
L 584.429155 -109.245907 
L 583.749434 -108.015713 
L 583.092093 -106.785519 
L 582.460893 -105.555325 
z
" id="m45e6d5138e" style="stroke:#414141;stroke-width:2;"/>
    </defs>
    <g clip-path="url(#p420d7da020)">
     <use style="fill:#8fa0e6;stroke:#414141;stroke-width:2;" x="0" xlink:href="#m45e6d5138e" y="391.910113"/>
    </g>
   </g>
   <g id="PolyCollection_7">
    <defs>
     <path d="M 677.310395 -100.417524 
L 666.158662 -100.417524 
L 665.611732 -102.504729 
L 665.038965 -104.591935 
L 664.44264 -106.679141 
L 663.825478 -108.766347 
L 663.190632 -110.853553 
L 662.541667 -112.940759 
L 661.88253 -115.027965 
L 661.217518 -117.11517 
L 660.55123 -119.202376 
L 659.888517 -121.289582 
L 659.234424 -123.376788 
L 658.594131 -125.463994 
L 657.972881 -127.5512 
L 657.375916 -129.638406 
L 656.808401 -131.725612 
L 656.275354 -133.812817 
L 655.781574 -135.900023 
L 655.331573 -137.987229 
L 654.929506 -140.074435 
L 654.579112 -142.161641 
L 654.283652 -144.248847 
L 654.045861 -146.336053 
L 653.867905 -148.423258 
L 653.751337 -150.510464 
L 653.697077 -152.59767 
L 653.705385 -154.684876 
L 653.775855 -156.772082 
L 653.907417 -158.859288 
L 654.098339 -160.946494 
L 654.346254 -163.0337 
L 654.648186 -165.120905 
L 655.000589 -167.208111 
L 655.399396 -169.295317 
L 655.840074 -171.382523 
L 656.317691 -173.469729 
L 656.826981 -175.556935 
L 657.362425 -177.644141 
L 657.918324 -179.731347 
L 658.488887 -181.818552 
L 659.068309 -183.905758 
L 659.650853 -185.992964 
L 660.230931 -188.08017 
L 660.803176 -190.167376 
L 661.362519 -192.254582 
L 661.904243 -194.341788 
L 662.424048 -196.428993 
L 662.918093 -198.516199 
L 663.383036 -200.603405 
L 663.816066 -202.690611 
L 664.214917 -204.777817 
L 664.57788 -206.865023 
L 664.903804 -208.952229 
L 665.192089 -211.039435 
L 665.442662 -213.12664 
L 665.655962 -215.213846 
L 665.832901 -217.301052 
L 665.974836 -219.388258 
L 666.083519 -221.475464 
L 666.161063 -223.56267 
L 666.209889 -225.649876 
L 666.232678 -227.737081 
L 666.232328 -229.824287 
L 666.2119 -231.911493 
L 666.174575 -233.998699 
L 666.123603 -236.085905 
L 666.062264 -238.173111 
L 665.993819 -240.260317 
L 665.921475 -242.347523 
L 665.848347 -244.434728 
L 665.777418 -246.521934 
L 665.711511 -248.60914 
L 665.653258 -250.696346 
L 665.605069 -252.783552 
L 665.569116 -254.870758 
L 665.547305 -256.957964 
L 665.541261 -259.045169 
L 665.552317 -261.132375 
L 665.581497 -263.219581 
L 665.629517 -265.306787 
L 665.69678 -267.393993 
L 665.783378 -269.481199 
L 665.8891 -271.568405 
L 666.013443 -273.655611 
L 666.15563 -275.742816 
L 666.314627 -277.830022 
L 666.489169 -279.917228 
L 666.67779 -282.004434 
L 666.878849 -284.09164 
L 667.090568 -286.178846 
L 667.311066 -288.266052 
L 667.538395 -290.353258 
L 667.770575 -292.440463 
L 668.005629 -294.527669 
L 668.241623 -296.614875 
L 668.47669 -298.702081 
L 668.709063 -300.789287 
L 668.9371 -302.876493 
L 669.159306 -304.963699 
L 669.374348 -307.050904 
L 674.094709 -307.050904 
L 674.094709 -307.050904 
L 674.309751 -304.963699 
L 674.531957 -302.876493 
L 674.759995 -300.789287 
L 674.992368 -298.702081 
L 675.227434 -296.614875 
L 675.463428 -294.527669 
L 675.698483 -292.440463 
L 675.930662 -290.353258 
L 676.157991 -288.266052 
L 676.378489 -286.178846 
L 676.590209 -284.09164 
L 676.791268 -282.004434 
L 676.979888 -279.917228 
L 677.15443 -277.830022 
L 677.313427 -275.742816 
L 677.455614 -273.655611 
L 677.579957 -271.568405 
L 677.685679 -269.481199 
L 677.772277 -267.393993 
L 677.83954 -265.306787 
L 677.88756 -263.219581 
L 677.91674 -261.132375 
L 677.927796 -259.045169 
L 677.921752 -256.957964 
L 677.899941 -254.870758 
L 677.863988 -252.783552 
L 677.8158 -250.696346 
L 677.757546 -248.60914 
L 677.691639 -246.521934 
L 677.62071 -244.434728 
L 677.547582 -242.347523 
L 677.475239 -240.260317 
L 677.406794 -238.173111 
L 677.345454 -236.085905 
L 677.294482 -233.998699 
L 677.257157 -231.911493 
L 677.236729 -229.824287 
L 677.236379 -227.737081 
L 677.259168 -225.649876 
L 677.307994 -223.56267 
L 677.385538 -221.475464 
L 677.494222 -219.388258 
L 677.636156 -217.301052 
L 677.813095 -215.213846 
L 678.026395 -213.12664 
L 678.276968 -211.039435 
L 678.565253 -208.952229 
L 678.891178 -206.865023 
L 679.254141 -204.777817 
L 679.652991 -202.690611 
L 680.086021 -200.603405 
L 680.550964 -198.516199 
L 681.045009 -196.428993 
L 681.564814 -194.341788 
L 682.106538 -192.254582 
L 682.665881 -190.167376 
L 683.238127 -188.08017 
L 683.818204 -185.992964 
L 684.400748 -183.905758 
L 684.98017 -181.818552 
L 685.550733 -179.731347 
L 686.106632 -177.644141 
L 686.642076 -175.556935 
L 687.151366 -173.469729 
L 687.628983 -171.382523 
L 688.069661 -169.295317 
L 688.468468 -167.208111 
L 688.820871 -165.120905 
L 689.122803 -163.0337 
L 689.370718 -160.946494 
L 689.56164 -158.859288 
L 689.693202 -156.772082 
L 689.763673 -154.684876 
L 689.77198 -152.59767 
L 689.71772 -150.510464 
L 689.601152 -148.423258 
L 689.423196 -146.336053 
L 689.185406 -144.248847 
L 688.889945 -142.161641 
L 688.539551 -140.074435 
L 688.137484 -137.987229 
L 687.687483 -135.900023 
L 687.193703 -133.812817 
L 686.660656 -131.725612 
L 686.093141 -129.638406 
L 685.496176 -127.5512 
L 684.874927 -125.463994 
L 684.234633 -123.376788 
L 683.58054 -121.289582 
L 682.917827 -119.202376 
L 682.251539 -117.11517 
L 681.586527 -115.027965 
L 680.927391 -112.940759 
L 680.278425 -110.853553 
L 679.643579 -108.766347 
L 679.026417 -106.679141 
L 678.430092 -104.591935 
L 677.857325 -102.504729 
L 677.310395 -100.417524 
z
" id="mab4e9c0214" style="stroke:#414141;stroke-width:2;"/>
    </defs>
    <g clip-path="url(#p420d7da020)">
     <use style="fill:#e270db;stroke:#414141;stroke-width:2;" x="0" xlink:href="#mab4e9c0214" y="391.910113"/>
    </g>
   </g>
   <g id="line2d_1">
    <path clip-path="url(#p420d7da020)" d="M 49.9631 240.444161 
L 719.5631 240.444161 
" style="fill:none;stroke:#404040;stroke-dasharray:5.55,2.4;stroke-dashoffset:0;stroke-width:1.5;"/>
   </g>
   <g id="line2d_2">
    <path clip-path="url(#p420d7da020)" d="M 97.791671 271.691984 
L 97.791671 214.219266 
" style="fill:none;stroke:#414141;stroke-linecap:round;stroke-width:2;"/>
   </g>
   <g id="line2d_3">
    <path clip-path="url(#p420d7da020)" d="M 97.791671 265.951773 
L 97.791671 234.49087 
" style="fill:none;stroke:#414141;stroke-linecap:round;stroke-width:6;"/>
   </g>
   <g id="line2d_4">
    <path clip-path="url(#p420d7da020)" d="M 193.448814 282.191581 
L 193.448814 204.489832 
" style="fill:none;stroke:#414141;stroke-linecap:round;stroke-width:2;"/>
   </g>
   <g id="line2d_5">
    <path clip-path="url(#p420d7da020)" d="M 193.448814 245.225943 
L 193.448814 217.766239 
" style="fill:none;stroke:#414141;stroke-linecap:round;stroke-width:6;"/>
   </g>
   <g id="line2d_6">
    <path clip-path="url(#p420d7da020)" d="M 289.105957 270.01462 
L 289.105957 195.899879 
" style="fill:none;stroke:#414141;stroke-linecap:round;stroke-width:2;"/>
   </g>
   <g id="line2d_7">
    <path clip-path="url(#p420d7da020)" d="M 289.105957 242.178079 
L 289.105957 218.534562 
" style="fill:none;stroke:#414141;stroke-linecap:round;stroke-width:6;"/>
   </g>
   <g id="line2d_8">
    <path clip-path="url(#p420d7da020)" d="M 384.7631 292.01096 
L 384.7631 178.033877 
" style="fill:none;stroke:#414141;stroke-linecap:round;stroke-width:2;"/>
   </g>
   <g id="line2d_9">
    <path clip-path="url(#p420d7da020)" d="M 384.7631 246.55558 
L 384.7631 208.377845 
" style="fill:none;stroke:#414141;stroke-linecap:round;stroke-width:6;"/>
   </g>
   <g id="line2d_10">
    <path clip-path="url(#p420d7da020)" d="M 480.420243 277.096255 
L 480.420243 185.656938 
" style="fill:none;stroke:#414141;stroke-linecap:round;stroke-width:2;"/>
   </g>
   <g id="line2d_11">
    <path clip-path="url(#p420d7da020)" d="M 480.420243 244.744713 
L 480.420243 217.209734 
" style="fill:none;stroke:#414141;stroke-linecap:round;stroke-width:6;"/>
   </g>
   <g id="line2d_12">
    <path clip-path="url(#p420d7da020)" d="M 576.077386 269.398534 
L 576.077386 181.521832 
" style="fill:none;stroke:#414141;stroke-linecap:round;stroke-width:2;"/>
   </g>
   <g id="line2d_13">
    <path clip-path="url(#p420d7da020)" d="M 576.077386 259.476349 
L 576.077386 202.563637 
" style="fill:none;stroke:#414141;stroke-linecap:round;stroke-width:6;"/>
   </g>
   <g id="line2d_14">
    <path clip-path="url(#p420d7da020)" d="M 671.734529 262.279971 
L 671.734529 114.071826 
" style="fill:none;stroke:#414141;stroke-linecap:round;stroke-width:2;"/>
   </g>
   <g id="line2d_15">
    <path clip-path="url(#p420d7da020)" d="M 671.734529 247.967461 
L 671.734529 194.379974 
" style="fill:none;stroke:#414141;stroke-linecap:round;stroke-width:6;"/>
   </g>
   <g id="patch_3">
    <path d="M 49.9631 368.071988 
L 49.9631 41.911988 
" style="fill:none;stroke:#262626;stroke-linecap:square;stroke-linejoin:miter;stroke-width:1.25;"/>
   </g>
   <g id="patch_4">
    <path d="M 719.5631 368.071988 
L 719.5631 41.911988 
" style="fill:none;stroke:#262626;stroke-linecap:square;stroke-linejoin:miter;stroke-width:1.25;"/>
   </g>
   <g id="patch_5">
    <path d="M 49.9631 368.071988 
L 719.5631 368.071988 
" style="fill:none;stroke:#262626;stroke-linecap:square;stroke-linejoin:miter;stroke-width:1.25;"/>
   </g>
   <g id="patch_6">
    <path d="M 49.9631 41.911988 
L 719.5631 41.911988 
" style="fill:none;stroke:#262626;stroke-linecap:square;stroke-linejoin:miter;stroke-width:1.25;"/>
   </g>
   <g id="PathCollection_1">
    <defs>
     <path d="M 0 2 
C 0.530406 2 1.03916 1.789267 1.414214 1.414214 
C 1.789267 1.03916 2 0.530406 2 0 
C 2 -0.530406 1.789267 -1.03916 1.414214 -1.414214 
C 1.03916 -1.789267 0.530406 -2 0 -2 
C -0.530406 -2 -1.03916 -1.789267 -1.414214 -1.414214 
C -1.789267 -1.03916 -2 -0.530406 -2 0 
C -2 0.530406 -1.789267 1.03916 -1.414214 1.414214 
C -1.03916 1.789267 -0.530406 2 0 2 
z
" id="mf17a95bda0" style="stroke:#414141;"/>
    </defs>
    <g clip-path="url(#p420d7da020)">
     <use style="fill:#ffffff;stroke:#414141;" x="97.791671" xlink:href="#mf17a95bda0" y="254.416888"/>
    </g>
   </g>
   <g id="PathCollection_2">
    <g clip-path="url(#p420d7da020)">
     <use style="fill:#ffffff;stroke:#414141;" x="193.448814" xlink:href="#mf17a95bda0" y="230.025211"/>
    </g>
   </g>
   <g id="PathCollection_3">
    <g clip-path="url(#p420d7da020)">
     <use style="fill:#ffffff;stroke:#414141;" x="289.105957" xlink:href="#mf17a95bda0" y="225.493687"/>
    </g>
   </g>
   <g id="PathCollection_4">
    <g clip-path="url(#p420d7da020)">
     <use style="fill:#ffffff;stroke:#414141;" x="384.7631" xlink:href="#mf17a95bda0" y="231.848014"/>
    </g>
   </g>
   <g id="PathCollection_5">
    <g clip-path="url(#p420d7da020)">
     <use style="fill:#ffffff;stroke:#414141;" x="480.420243" xlink:href="#mf17a95bda0" y="227.854785"/>
    </g>
   </g>
   <g id="PathCollection_6">
    <g clip-path="url(#p420d7da020)">
     <use style="fill:#ffffff;stroke:#414141;" x="576.077386" xlink:href="#mf17a95bda0" y="220.898611"/>
    </g>
   </g>
   <g id="PathCollection_7">
    <g clip-path="url(#p420d7da020)">
     <use style="fill:#ffffff;stroke:#414141;" x="671.734529" xlink:href="#mf17a95bda0" y="229.296868"/>
    </g>
   </g>
   <g id="text_15">
    <!-- Crashes after the start of DST in California (20012016) -->
    <defs>
     <path d="M 6.390625 0 
L 6.390625 71.578125 
L 15.1875 71.578125 
L 15.1875 0 
z
" id="ArialMT-108"/>
     <path d="M -0.203125 22.359375 
L -0.203125 29.4375 
L 55.421875 29.4375 
L 55.421875 22.359375 
z
" id="ArialMT-8211"/>
    </defs>
    <g style="fill:#262626;" transform="translate(62.742944 26.127187)scale(0.26 -0.26)">
     <use xlink:href="#ArialMT-67"/>
     <use x="72.216797" xlink:href="#ArialMT-114"/>
     <use x="105.517578" xlink:href="#ArialMT-97"/>
     <use x="161.132812" xlink:href="#ArialMT-115"/>
     <use x="211.132812" xlink:href="#ArialMT-104"/>
     <use x="266.748047" xlink:href="#ArialMT-101"/>
     <use x="322.363281" xlink:href="#ArialMT-115"/>
     <use x="372.363281" xlink:href="#ArialMT-32"/>
     <use x="400.146484" xlink:href="#ArialMT-97"/>
     <use x="455.761719" xlink:href="#ArialMT-102"/>
     <use x="483.544922" xlink:href="#ArialMT-116"/>
     <use x="511.328125" xlink:href="#ArialMT-101"/>
     <use x="566.943359" xlink:href="#ArialMT-114"/>
     <use x="600.244141" xlink:href="#ArialMT-32"/>
     <use x="628.027344" xlink:href="#ArialMT-116"/>
     <use x="655.810547" xlink:href="#ArialMT-104"/>
     <use x="711.425781" xlink:href="#ArialMT-101"/>
     <use x="767.041016" xlink:href="#ArialMT-32"/>
     <use x="794.824219" xlink:href="#ArialMT-115"/>
     <use x="844.824219" xlink:href="#ArialMT-116"/>
     <use x="872.607422" xlink:href="#ArialMT-97"/>
     <use x="928.222656" xlink:href="#ArialMT-114"/>
     <use x="961.523438" xlink:href="#ArialMT-116"/>
     <use x="989.306641" xlink:href="#ArialMT-32"/>
     <use x="1017.089844" xlink:href="#ArialMT-111"/>
     <use x="1072.705078" xlink:href="#ArialMT-102"/>
     <use x="1100.488281" xlink:href="#ArialMT-32"/>
     <use x="1128.271484" xlink:href="#ArialMT-68"/>
     <use x="1200.488281" xlink:href="#ArialMT-83"/>
     <use x="1267.1875" xlink:href="#ArialMT-84"/>
     <use x="1326.521484" xlink:href="#ArialMT-32"/>
     <use x="1354.304688" xlink:href="#ArialMT-105"/>
     <use x="1376.521484" xlink:href="#ArialMT-110"/>
     <use x="1432.136719" xlink:href="#ArialMT-32"/>
     <use x="1459.919922" xlink:href="#ArialMT-67"/>
     <use x="1532.136719" xlink:href="#ArialMT-97"/>
     <use x="1587.751953" xlink:href="#ArialMT-108"/>
     <use x="1609.96875" xlink:href="#ArialMT-105"/>
     <use x="1632.185547" xlink:href="#ArialMT-102"/>
     <use x="1659.96875" xlink:href="#ArialMT-111"/>
     <use x="1715.583984" xlink:href="#ArialMT-114"/>
     <use x="1748.884766" xlink:href="#ArialMT-110"/>
     <use x="1804.5" xlink:href="#ArialMT-105"/>
     <use x="1826.716797" xlink:href="#ArialMT-97"/>
     <use x="1882.332031" xlink:href="#ArialMT-32"/>
     <use x="1910.115234" xlink:href="#ArialMT-40"/>
     <use x="1943.416016" xlink:href="#ArialMT-50"/>
     <use x="1999.03125" xlink:href="#ArialMT-48"/>
     <use x="2054.646484" xlink:href="#ArialMT-48"/>
     <use x="2110.261719" xlink:href="#ArialMT-49"/>
     <use x="2165.876953" xlink:href="#ArialMT-8211"/>
     <use x="2221.492188" xlink:href="#ArialMT-50"/>
     <use x="2277.107422" xlink:href="#ArialMT-48"/>
     <use x="2332.722656" xlink:href="#ArialMT-49"/>
     <use x="2388.337891" xlink:href="#ArialMT-54"/>
     <use x="2443.953125" xlink:href="#ArialMT-41"/>
    </g>
   </g>
  </g>
 </g>
 <defs>
  <clipPath id="p420d7da020">
   <rect height="326.16" width="669.6" x="49.9631" y="41.911988"/>
  </clipPath>
 </defs>
</svg>
