<?xml version="1.0" encoding="utf-8" standalone="no"?>
<!DOCTYPE svg PUBLIC "-//W3C//DTD SVG 1.1//EN"
  "http://www.w3.org/Graphics/SVG/1.1/DTD/svg11.dtd">
<!-- Created with matplotlib (http://matplotlib.org/) -->
<svg height="391.7373pt" version="1.1" viewBox="0 0 727.0682 391.7373" width="727.0682pt" xmlns="http://www.w3.org/2000/svg" xmlns:xlink="http://www.w3.org/1999/xlink">
 <defs>
  <style type="text/css">
*{stroke-linecap:butt;stroke-linejoin:round;}
  </style>
 </defs>
 <g id="figure_1">
  <g id="patch_1">
   <path d="M 0 391.7373 
L 727.0682 391.7373 
L 727.0682 0 
L 0 0 
z
" style="fill:#ffffff;"/>
  </g>
  <g id="axes_1">
   <g id="patch_2">
    <path d="M 50.2682 367.986675 
L 719.8682 367.986675 
L 719.8682 41.826675 
L 50.2682 41.826675 
z
" style="fill:#ffffff;"/>
   </g>
   <g id="matplotlib.axis_1">
    <g id="xtick_1">
     <g id="text_1">
      <!-- Sunday (DST) -->
      <defs>
       <path d="M 62.109375 19 
Q 62.109375 14.65625 60.421875 10.984375 
Q 58.734375 7.328125 55.21875 4.65625 
Q 51.703125 2 46.359375 0.5 
Q 41.015625 -0.984375 33.6875 -0.984375 
Q 20.84375 -0.984375 13.671875 3.515625 
Q 6.5 8.015625 4.546875 16.5 
L 13.578125 18.3125 
Q 14.265625 15.625 15.671875 13.421875 
Q 17.09375 11.234375 19.5 9.640625 
Q 21.921875 8.0625 25.484375 7.171875 
Q 29.046875 6.296875 34.03125 6.296875 
Q 38.1875 6.296875 41.65625 7 
Q 45.125 7.71875 47.609375 9.171875 
Q 50.09375 10.640625 51.484375 12.953125 
Q 52.875 15.28125 52.875 18.5 
Q 52.875 21.875 51.34375 23.96875 
Q 49.8125 26.078125 47.015625 27.4375 
Q 44.234375 28.8125 40.375 29.734375 
Q 36.53125 30.671875 31.84375 31.734375 
Q 28.953125 32.375 26.046875 33.125 
Q 23.140625 33.890625 20.484375 34.9375 
Q 17.828125 35.984375 15.484375 37.390625 
Q 13.140625 38.8125 11.421875 40.796875 
Q 9.71875 42.78125 8.734375 45.390625 
Q 7.765625 48 7.765625 51.421875 
Q 7.765625 56.296875 9.734375 59.78125 
Q 11.71875 63.28125 15.234375 65.53125 
Q 18.75 67.78125 23.53125 68.796875 
Q 28.328125 69.828125 33.890625 69.828125 
Q 40.28125 69.828125 44.8125 68.828125 
Q 49.359375 67.828125 52.484375 65.8125 
Q 55.609375 63.8125 57.484375 60.859375 
Q 59.375 57.90625 60.5 54 
L 51.3125 52.390625 
Q 50.640625 54.890625 49.34375 56.84375 
Q 48.046875 58.796875 45.9375 60.109375 
Q 43.84375 61.421875 40.84375 62.109375 
Q 37.84375 62.796875 33.796875 62.796875 
Q 29 62.796875 25.75 61.9375 
Q 22.515625 61.078125 20.53125 59.609375 
Q 18.5625 58.15625 17.703125 56.171875 
Q 16.84375 54.203125 16.84375 51.90625 
Q 16.84375 48.828125 18.375 46.84375 
Q 19.921875 44.875 22.5625 43.546875 
Q 25.203125 42.234375 28.65625 41.359375 
Q 32.125 40.484375 36.03125 39.59375 
Q 39.203125 38.875 42.359375 38.109375 
Q 45.515625 37.359375 48.390625 36.296875 
Q 51.265625 35.25 53.78125 33.828125 
Q 56.296875 32.421875 58.15625 30.375 
Q 60.015625 28.328125 61.0625 25.53125 
Q 62.109375 22.75 62.109375 19 
z
" id="LiberationSans-53"/>
       <path d="M 15.328125 52.828125 
L 15.328125 19.34375 
Q 15.328125 15.484375 15.890625 12.890625 
Q 16.453125 10.296875 17.71875 8.703125 
Q 19 7.125 21.0625 6.46875 
Q 23.140625 5.8125 26.21875 5.8125 
Q 29.34375 5.8125 31.859375 6.90625 
Q 34.375 8.015625 36.15625 10.078125 
Q 37.9375 12.15625 38.90625 15.203125 
Q 39.890625 18.265625 39.890625 22.21875 
L 39.890625 52.828125 
L 48.6875 52.828125 
L 48.6875 11.28125 
Q 48.6875 9.625 48.703125 7.78125 
Q 48.734375 5.953125 48.78125 4.3125 
Q 48.828125 2.6875 48.875 1.515625 
Q 48.921875 0.34375 48.96875 0 
L 40.671875 0 
Q 40.625 0.25 40.578125 1.3125 
Q 40.53125 2.390625 40.453125 3.78125 
Q 40.375 5.171875 40.328125 6.609375 
Q 40.28125 8.0625 40.28125 9.03125 
L 40.140625 9.03125 
Q 38.875 6.734375 37.359375 4.875 
Q 35.84375 3.03125 33.84375 1.734375 
Q 31.84375 0.4375 29.25 -0.265625 
Q 26.65625 -0.984375 23.25 -0.984375 
Q 18.84375 -0.984375 15.671875 0.09375 
Q 12.5 1.171875 10.453125 3.421875 
Q 8.40625 5.671875 7.453125 9.1875 
Q 6.5 12.703125 6.5 17.625 
L 6.5 52.828125 
z
" id="LiberationSans-75"/>
       <path d="M 40.28125 0 
L 40.28125 33.5 
Q 40.28125 37.359375 39.71875 39.9375 
Q 39.15625 42.53125 37.890625 44.109375 
Q 36.625 45.703125 34.546875 46.359375 
Q 32.46875 47.015625 29.390625 47.015625 
Q 26.265625 47.015625 23.75 45.921875 
Q 21.234375 44.828125 19.453125 42.75 
Q 17.671875 40.671875 16.6875 37.625 
Q 15.71875 34.578125 15.71875 30.609375 
L 15.71875 0 
L 6.9375 0 
L 6.9375 41.546875 
Q 6.9375 43.21875 6.90625 45.046875 
Q 6.890625 46.875 6.828125 48.5 
Q 6.78125 50.140625 6.734375 51.3125 
Q 6.6875 52.484375 6.640625 52.828125 
L 14.9375 52.828125 
Q 14.984375 52.59375 15.03125 51.515625 
Q 15.09375 50.4375 15.15625 49.046875 
Q 15.234375 47.65625 15.28125 46.21875 
Q 15.328125 44.78125 15.328125 43.796875 
L 15.484375 43.796875 
Q 16.75 46.09375 18.265625 47.953125 
Q 19.78125 49.8125 21.78125 51.09375 
Q 23.78125 52.390625 26.359375 53.09375 
Q 28.953125 53.8125 32.375 53.8125 
Q 36.765625 53.8125 39.9375 52.734375 
Q 43.109375 51.65625 45.15625 49.40625 
Q 47.21875 47.171875 48.171875 43.625 
Q 49.125 40.09375 49.125 35.203125 
L 49.125 0 
z
" id="LiberationSans-6e"/>
       <path d="M 40.09375 8.5 
Q 37.640625 3.421875 33.609375 1.21875 
Q 29.59375 -0.984375 23.640625 -0.984375 
Q 13.625 -0.984375 8.90625 5.75 
Q 4.203125 12.5 4.203125 26.171875 
Q 4.203125 53.8125 23.640625 53.8125 
Q 29.640625 53.8125 33.640625 51.609375 
Q 37.640625 49.421875 40.09375 44.625 
L 40.1875 44.625 
Q 40.1875 45.125 40.15625 46.171875 
Q 40.140625 47.21875 40.109375 48.359375 
Q 40.09375 49.515625 40.09375 50.53125 
Q 40.09375 51.5625 40.09375 52 
L 40.09375 72.46875 
L 48.875 72.46875 
L 48.875 10.890625 
Q 48.875 8.984375 48.890625 7.21875 
Q 48.921875 5.46875 48.96875 4 
Q 49.03125 2.546875 49.078125 1.484375 
Q 49.125 0.4375 49.171875 0 
L 40.765625 0 
Q 40.671875 0.484375 40.59375 1.390625 
Q 40.53125 2.296875 40.453125 3.46875 
Q 40.375 4.640625 40.328125 5.9375 
Q 40.28125 7.234375 40.28125 8.5 
z
M 13.421875 26.46875 
Q 13.421875 21 14.109375 17.09375 
Q 14.796875 13.1875 16.3125 10.671875 
Q 17.828125 8.15625 20.171875 6.984375 
Q 22.515625 5.8125 25.875 5.8125 
Q 29.34375 5.8125 32 6.9375 
Q 34.671875 8.0625 36.453125 10.578125 
Q 38.234375 13.09375 39.15625 17.140625 
Q 40.09375 21.1875 40.09375 27.046875 
Q 40.09375 32.671875 39.15625 36.546875 
Q 38.234375 40.4375 36.421875 42.828125 
Q 34.625 45.21875 32 46.265625 
Q 29.390625 47.3125 25.984375 47.3125 
Q 22.75 47.3125 20.40625 46.1875 
Q 18.0625 45.0625 16.5 42.578125 
Q 14.9375 40.09375 14.171875 36.109375 
Q 13.421875 32.125 13.421875 26.46875 
z
" id="LiberationSans-64"/>
       <path d="M 20.21875 -0.984375 
Q 12.25 -0.984375 8.25 3.21875 
Q 4.25 7.421875 4.25 14.75 
Q 4.25 19.96875 6.21875 23.3125 
Q 8.203125 26.65625 11.390625 28.5625 
Q 14.59375 30.46875 18.6875 31.203125 
Q 22.796875 31.9375 27.046875 32.03125 
L 38.921875 32.234375 
L 38.921875 35.109375 
Q 38.921875 38.375 38.234375 40.671875 
Q 37.546875 42.96875 36.125 44.375 
Q 34.71875 45.796875 32.59375 46.453125 
Q 30.46875 47.125 27.59375 47.125 
Q 25.046875 47.125 23 46.75 
Q 20.953125 46.390625 19.4375 45.4375 
Q 17.921875 44.484375 16.984375 42.84375 
Q 16.0625 41.21875 15.765625 38.71875 
L 6.59375 39.546875 
Q 7.078125 42.671875 8.4375 45.28125 
Q 9.8125 47.90625 12.328125 49.796875 
Q 14.84375 51.703125 18.625 52.75 
Q 22.40625 53.8125 27.78125 53.8125 
Q 37.75 53.8125 42.765625 49.234375 
Q 47.796875 44.671875 47.796875 36.03125 
L 47.796875 13.28125 
Q 47.796875 9.375 48.828125 7.390625 
Q 49.859375 5.421875 52.734375 5.421875 
Q 53.46875 5.421875 54.203125 5.515625 
Q 54.9375 5.609375 55.609375 5.765625 
L 55.609375 0.296875 
Q 53.953125 -0.09375 52.3125 -0.28125 
Q 50.6875 -0.484375 48.828125 -0.484375 
Q 46.34375 -0.484375 44.5625 0.171875 
Q 42.78125 0.828125 41.65625 2.171875 
Q 40.53125 3.515625 39.9375 5.484375 
Q 39.359375 7.46875 39.203125 10.109375 
L 38.921875 10.109375 
Q 37.5 7.5625 35.8125 5.515625 
Q 34.125 3.46875 31.875 2.03125 
Q 29.640625 0.59375 26.78125 -0.1875 
Q 23.921875 -0.984375 20.21875 -0.984375 
z
M 22.21875 5.609375 
Q 26.421875 5.609375 29.5625 7.140625 
Q 32.71875 8.6875 34.78125 11.078125 
Q 36.859375 13.484375 37.890625 16.3125 
Q 38.921875 19.140625 38.921875 21.734375 
L 38.921875 26.078125 
L 29.296875 25.875 
Q 26.078125 25.828125 23.171875 25.40625 
Q 20.265625 25 18.0625 23.78125 
Q 15.875 22.5625 14.578125 20.359375 
Q 13.28125 18.171875 13.28125 14.59375 
Q 13.28125 10.296875 15.59375 7.953125 
Q 17.921875 5.609375 22.21875 5.609375 
z
" id="LiberationSans-61"/>
       <path d="M 29.5 0 
Q 27.640625 -4.78125 25.703125 -8.609375 
Q 23.78125 -12.453125 21.390625 -15.15625 
Q 19 -17.875 16.0625 -19.3125 
Q 13.140625 -20.75 9.328125 -20.75 
Q 7.671875 -20.75 6.25 -20.65625 
Q 4.828125 -20.5625 3.265625 -20.21875 
L 3.265625 -13.625 
Q 4.203125 -13.765625 5.375 -13.84375 
Q 6.546875 -13.921875 7.375 -13.921875 
Q 11.234375 -13.921875 14.546875 -11.03125 
Q 17.875 -8.15625 20.359375 -1.859375 
L 21.1875 0.25 
L 0.25 52.828125 
L 9.625 52.828125 
L 20.75 23.640625 
Q 21.234375 22.3125 21.984375 20.109375 
Q 22.75 17.921875 23.5 15.71875 
Q 24.265625 13.53125 24.84375 11.765625 
Q 25.4375 10.015625 25.53125 9.578125 
Q 25.6875 10.109375 26.25 11.6875 
Q 26.8125 13.28125 27.515625 15.234375 
Q 28.21875 17.1875 28.953125 19.1875 
Q 29.6875 21.1875 30.171875 22.65625 
L 40.53125 52.828125 
L 49.8125 52.828125 
z
" id="LiberationSans-79"/>
       <path id="LiberationSans-20"/>
       <path d="M 6.203125 25.984375 
Q 6.203125 32.765625 7.21875 38.96875 
Q 8.25 45.171875 10.4375 50.875 
Q 12.640625 56.59375 16.0625 61.953125 
Q 19.484375 67.328125 24.21875 72.46875 
L 32.71875 72.46875 
Q 28.125 67.328125 24.78125 61.9375 
Q 21.4375 56.546875 19.28125 50.796875 
Q 17.140625 45.0625 16.09375 38.859375 
Q 15.046875 32.671875 15.046875 25.875 
Q 15.046875 19.09375 16.09375 12.890625 
Q 17.140625 6.6875 19.28125 0.921875 
Q 21.4375 -4.828125 24.78125 -10.203125 
Q 28.125 -15.578125 32.71875 -20.703125 
L 24.21875 -20.703125 
Q 19.484375 -15.578125 16.0625 -10.203125 
Q 12.640625 -4.828125 10.4375 0.875 
Q 8.25 6.59375 7.21875 12.765625 
Q 6.203125 18.953125 6.203125 25.78125 
z
" id="LiberationSans-28"/>
       <path d="M 67.4375 35.109375 
Q 67.4375 26.515625 64.84375 19.9375 
Q 62.25 13.375 57.75 8.953125 
Q 53.265625 4.546875 47.140625 2.265625 
Q 41.015625 0 33.9375 0 
L 8.203125 0 
L 8.203125 68.796875 
L 30.953125 68.796875 
Q 38.921875 68.796875 45.625 66.8125 
Q 52.34375 64.84375 57.171875 60.71875 
Q 62.015625 56.59375 64.71875 50.234375 
Q 67.4375 43.890625 67.4375 35.109375 
z
M 58.0625 35.109375 
Q 58.0625 42.09375 56.046875 47.046875 
Q 54.046875 52 50.4375 55.171875 
Q 46.828125 58.34375 41.796875 59.828125 
Q 36.765625 61.328125 30.765625 61.328125 
L 17.53125 61.328125 
L 17.53125 7.46875 
L 32.859375 7.46875 
Q 38.28125 7.46875 42.890625 9.21875 
Q 47.515625 10.984375 50.875 14.453125 
Q 54.25 17.921875 56.15625 23.09375 
Q 58.0625 28.265625 58.0625 35.109375 
z
" id="LiberationSans-44"/>
       <path d="M 35.15625 61.1875 
L 35.15625 0 
L 25.875 0 
L 25.875 61.1875 
L 2.25 61.1875 
L 2.25 68.796875 
L 58.796875 68.796875 
L 58.796875 61.1875 
z
" id="LiberationSans-54"/>
       <path d="M 27.09375 25.78125 
Q 27.09375 18.953125 26.0625 12.765625 
Q 25.046875 6.59375 22.84375 0.875 
Q 20.65625 -4.828125 17.234375 -10.203125 
Q 13.8125 -15.578125 9.078125 -20.703125 
L 0.59375 -20.703125 
Q 5.171875 -15.578125 8.515625 -10.203125 
Q 11.859375 -4.828125 14 0.921875 
Q 16.15625 6.6875 17.203125 12.890625 
Q 18.265625 19.09375 18.265625 25.875 
Q 18.265625 32.671875 17.203125 38.859375 
Q 16.15625 45.0625 14 50.796875 
Q 11.859375 56.546875 8.515625 61.9375 
Q 5.171875 67.328125 0.59375 72.46875 
L 9.078125 72.46875 
Q 13.8125 67.328125 17.234375 61.953125 
Q 20.65625 56.59375 22.84375 50.875 
Q 25.046875 45.171875 26.0625 38.96875 
Q 27.09375 32.765625 27.09375 25.984375 
z
" id="LiberationSans-29"/>
      </defs>
      <g style="fill:#262626;" transform="translate(53.750678 381.6323)scale(0.14 -0.14)">
       <use xlink:href="#LiberationSans-53"/>
       <use x="66.699219" xlink:href="#LiberationSans-75"/>
       <use x="122.314453" xlink:href="#LiberationSans-6e"/>
       <use x="177.929688" xlink:href="#LiberationSans-64"/>
       <use x="233.544922" xlink:href="#LiberationSans-61"/>
       <use x="289.160156" xlink:href="#LiberationSans-79"/>
       <use x="339.160156" xlink:href="#LiberationSans-20"/>
       <use x="366.943359" xlink:href="#LiberationSans-28"/>
       <use x="400.244141" xlink:href="#LiberationSans-44"/>
       <use x="472.460938" xlink:href="#LiberationSans-53"/>
       <use x="539.160156" xlink:href="#LiberationSans-54"/>
       <use x="600.244141" xlink:href="#LiberationSans-29"/>
      </g>
     </g>
    </g>
    <g id="xtick_2">
     <g id="text_2">
      <!-- Monday -->
      <defs>
       <path d="M 66.703125 0 
L 66.703125 45.90625 
Q 66.703125 48.390625 66.75 50.96875 
Q 66.796875 53.5625 66.890625 55.71875 
Q 67 58.203125 67.140625 60.546875 
Q 66.453125 58.0625 65.71875 55.609375 
Q 65.09375 53.515625 64.328125 51.140625 
Q 63.578125 48.78125 62.84375 46.875 
L 45.0625 0 
L 38.53125 0 
L 20.515625 46.875 
Q 20.21875 47.609375 19.890625 48.578125 
Q 19.578125 49.5625 19.203125 50.65625 
Q 18.84375 51.765625 18.46875 52.90625 
Q 18.109375 54.046875 17.78125 55.171875 
Q 16.9375 57.765625 16.15625 60.546875 
Q 16.21875 57.8125 16.3125 55.125 
Q 16.40625 52.828125 16.453125 50.3125 
Q 16.5 47.796875 16.5 45.90625 
L 16.5 0 
L 8.203125 0 
L 8.203125 68.796875 
L 20.453125 68.796875 
L 38.765625 21.09375 
Q 39.109375 20.125 39.59375 18.578125 
Q 40.09375 17.046875 40.53125 15.421875 
Q 40.96875 13.8125 41.328125 12.375 
Q 41.703125 10.9375 41.84375 10.15625 
Q 42 10.9375 42.390625 12.40625 
Q 42.78125 13.875 43.28125 15.484375 
Q 43.796875 17.09375 44.28125 18.609375 
Q 44.78125 20.125 45.171875 21.09375 
L 63.140625 68.796875 
L 75.09375 68.796875 
L 75.09375 0 
z
" id="LiberationSans-4d"/>
       <path d="M 51.421875 26.46875 
Q 51.421875 12.59375 45.3125 5.796875 
Q 39.203125 -0.984375 27.59375 -0.984375 
Q 22.078125 -0.984375 17.71875 0.671875 
Q 13.375 2.34375 10.375 5.765625 
Q 7.375 9.1875 5.78125 14.328125 
Q 4.203125 19.484375 4.203125 26.46875 
Q 4.203125 53.8125 27.875 53.8125 
Q 34.03125 53.8125 38.5 52.09375 
Q 42.96875 50.390625 45.828125 46.96875 
Q 48.6875 43.5625 50.046875 38.421875 
Q 51.421875 33.296875 51.421875 26.46875 
z
M 42.1875 26.46875 
Q 42.1875 32.625 41.234375 36.625 
Q 40.28125 40.625 38.453125 43.015625 
Q 36.625 45.40625 33.984375 46.359375 
Q 31.34375 47.3125 28.03125 47.3125 
Q 24.65625 47.3125 21.9375 46.3125 
Q 19.234375 45.3125 17.328125 42.890625 
Q 15.4375 40.484375 14.421875 36.46875 
Q 13.421875 32.46875 13.421875 26.46875 
Q 13.421875 20.3125 14.5 16.28125 
Q 15.578125 12.25 17.453125 9.859375 
Q 19.34375 7.46875 21.90625 6.484375 
Q 24.46875 5.515625 27.484375 5.515625 
Q 30.859375 5.515625 33.59375 6.46875 
Q 36.328125 7.421875 38.234375 9.8125 
Q 40.140625 12.203125 41.15625 16.25 
Q 42.1875 20.3125 42.1875 26.46875 
z
" id="LiberationSans-6f"/>
      </defs>
      <g style="fill:#262626;" transform="translate(168.852508 381.6323)scale(0.14 -0.14)">
       <use xlink:href="#LiberationSans-4d"/>
       <use x="83.300781" xlink:href="#LiberationSans-6f"/>
       <use x="138.916016" xlink:href="#LiberationSans-6e"/>
       <use x="194.53125" xlink:href="#LiberationSans-64"/>
       <use x="250.146484" xlink:href="#LiberationSans-61"/>
       <use x="305.761719" xlink:href="#LiberationSans-79"/>
      </g>
     </g>
    </g>
    <g id="xtick_3">
     <g id="text_3">
      <!-- Tuesday -->
      <defs>
       <path d="M 13.484375 24.5625 
Q 13.484375 20.40625 14.328125 16.90625 
Q 15.1875 13.421875 16.96875 10.90625 
Q 18.75 8.40625 21.53125 7 
Q 24.3125 5.609375 28.21875 5.609375 
Q 33.9375 5.609375 37.375 7.90625 
Q 40.828125 10.203125 42.046875 13.71875 
L 49.75 11.53125 
Q 48.921875 9.328125 47.4375 7.109375 
Q 45.953125 4.890625 43.453125 3.09375 
Q 40.96875 1.3125 37.234375 0.15625 
Q 33.5 -0.984375 28.21875 -0.984375 
Q 16.5 -0.984375 10.375 6 
Q 4.25 12.984375 4.25 26.765625 
Q 4.25 34.1875 6.09375 39.328125 
Q 7.953125 44.484375 11.171875 47.703125 
Q 14.40625 50.921875 18.703125 52.359375 
Q 23 53.8125 27.875 53.8125 
Q 34.515625 53.8125 38.984375 51.65625 
Q 43.453125 49.515625 46.15625 45.71875 
Q 48.875 41.9375 50.015625 36.8125 
Q 51.171875 31.6875 51.171875 25.734375 
L 51.171875 24.5625 
z
M 42.09375 31.296875 
Q 41.359375 39.65625 37.84375 43.484375 
Q 34.328125 47.3125 27.734375 47.3125 
Q 25.53125 47.3125 23.109375 46.609375 
Q 20.703125 45.90625 18.65625 44.09375 
Q 16.609375 42.28125 15.1875 39.171875 
Q 13.765625 36.078125 13.578125 31.296875 
z
" id="LiberationSans-65"/>
       <path d="M 46.390625 14.59375 
Q 46.390625 10.890625 44.9375 7.984375 
Q 43.5 5.078125 40.765625 3.09375 
Q 38.03125 1.125 34.046875 0.0625 
Q 30.078125 -0.984375 24.953125 -0.984375 
Q 20.359375 -0.984375 16.671875 -0.265625 
Q 12.984375 0.4375 10.203125 2 
Q 7.421875 3.5625 5.53125 6.125 
Q 3.65625 8.6875 2.78125 12.40625 
L 10.546875 13.921875 
Q 11.671875 9.671875 15.1875 7.6875 
Q 18.703125 5.71875 24.953125 5.71875 
Q 27.78125 5.71875 30.140625 6.109375 
Q 32.515625 6.5 34.21875 7.453125 
Q 35.9375 8.40625 36.890625 9.984375 
Q 37.84375 11.578125 37.84375 13.921875 
Q 37.84375 16.3125 36.71875 17.84375 
Q 35.59375 19.390625 33.59375 20.40625 
Q 31.59375 21.4375 28.734375 22.1875 
Q 25.875 22.953125 22.46875 23.875 
Q 19.28125 24.703125 16.15625 25.734375 
Q 13.03125 26.765625 10.515625 28.4375 
Q 8.015625 30.125 6.453125 32.609375 
Q 4.890625 35.109375 4.890625 38.875 
Q 4.890625 46.09375 10.03125 49.875 
Q 15.1875 53.65625 25.046875 53.65625 
Q 33.796875 53.65625 38.9375 50.578125 
Q 44.09375 47.515625 45.453125 40.71875 
L 37.546875 39.75 
Q 37.109375 41.796875 35.9375 43.1875 
Q 34.765625 44.578125 33.109375 45.4375 
Q 31.453125 46.296875 29.375 46.65625 
Q 27.296875 47.015625 25.046875 47.015625 
Q 19.09375 47.015625 16.25 45.203125 
Q 13.421875 43.40625 13.421875 39.75 
Q 13.421875 37.59375 14.46875 36.203125 
Q 15.53125 34.8125 17.40625 33.859375 
Q 19.28125 32.90625 21.921875 32.203125 
Q 24.5625 31.5 27.734375 30.71875 
Q 29.828125 30.171875 32.03125 29.5625 
Q 34.234375 28.953125 36.296875 28.09375 
Q 38.375 27.25 40.203125 26.09375 
Q 42.046875 24.953125 43.40625 23.34375 
Q 44.78125 21.734375 45.578125 19.578125 
Q 46.390625 17.4375 46.390625 14.59375 
z
" id="LiberationSans-73"/>
      </defs>
      <g style="fill:#262626;" transform="translate(262.568245 381.6323)scale(0.14 -0.14)">
       <use xlink:href="#LiberationSans-54"/>
       <use x="61.037109" xlink:href="#LiberationSans-75"/>
       <use x="116.652344" xlink:href="#LiberationSans-65"/>
       <use x="172.267578" xlink:href="#LiberationSans-73"/>
       <use x="222.267578" xlink:href="#LiberationSans-64"/>
       <use x="277.882812" xlink:href="#LiberationSans-61"/>
       <use x="333.498047" xlink:href="#LiberationSans-79"/>
      </g>
     </g>
    </g>
    <g id="xtick_4">
     <g id="text_4">
      <!-- Wednesday -->
      <defs>
       <path d="M 73.78125 0 
L 62.640625 0 
L 50.734375 43.703125 
Q 50.203125 45.5625 49.578125 48.09375 
Q 48.96875 50.640625 48.484375 52.9375 
Q 47.90625 55.609375 47.3125 58.40625 
Q 46.6875 55.5625 46.09375 52.875 
Q 45.5625 50.53125 44.96875 48.046875 
Q 44.390625 45.5625 43.84375 43.703125 
L 31.84375 0 
L 20.703125 0 
L 0.4375 68.796875 
L 10.15625 68.796875 
L 22.515625 25.09375 
Q 23.34375 22.015625 24.09375 18.984375 
Q 24.859375 15.96875 25.390625 13.578125 
Q 26.03125 10.75 26.5625 8.203125 
Q 27.296875 11.578125 28.078125 14.84375 
Q 28.421875 16.21875 28.765625 17.71875 
Q 29.109375 19.234375 29.46875 20.703125 
Q 29.828125 22.171875 30.1875 23.515625 
Q 30.5625 24.859375 30.859375 25.984375 
L 42.828125 68.796875 
L 51.765625 68.796875 
L 63.71875 25.984375 
Q 64.015625 24.859375 64.375 23.515625 
Q 64.75 22.171875 65.109375 20.71875 
Q 65.484375 19.28125 65.8125 17.765625 
Q 66.15625 16.265625 66.5 14.890625 
Q 67.28125 11.625 68.015625 8.203125 
Q 68.0625 8.203125 68.453125 9.890625 
Q 68.84375 11.578125 69.421875 14.109375 
Q 70.015625 16.65625 70.71875 19.609375 
Q 71.4375 22.5625 72.171875 25.09375 
L 84.328125 68.796875 
L 94.046875 68.796875 
z
" id="LiberationSans-57"/>
      </defs>
      <g style="fill:#262626;" transform="translate(348.106013 381.6323)scale(0.14 -0.14)">
       <use xlink:href="#LiberationSans-57"/>
       <use x="94.369141" xlink:href="#LiberationSans-65"/>
       <use x="149.984375" xlink:href="#LiberationSans-64"/>
       <use x="205.599609" xlink:href="#LiberationSans-6e"/>
       <use x="261.214844" xlink:href="#LiberationSans-65"/>
       <use x="316.830078" xlink:href="#LiberationSans-73"/>
       <use x="366.830078" xlink:href="#LiberationSans-64"/>
       <use x="422.445312" xlink:href="#LiberationSans-61"/>
       <use x="478.060547" xlink:href="#LiberationSans-79"/>
      </g>
     </g>
    </g>
    <g id="xtick_5">
     <g id="text_5">
      <!-- Thursday -->
      <defs>
       <path d="M 15.484375 43.796875 
Q 16.9375 46.484375 18.640625 48.359375 
Q 20.359375 50.25 22.40625 51.46875 
Q 24.46875 52.6875 26.90625 53.25 
Q 29.34375 53.8125 32.375 53.8125 
Q 37.453125 53.8125 40.703125 52.4375 
Q 43.953125 51.078125 45.828125 48.609375 
Q 47.703125 46.140625 48.40625 42.71875 
Q 49.125 39.3125 49.125 35.203125 
L 49.125 0 
L 40.28125 0 
L 40.28125 33.5 
Q 40.28125 36.859375 39.859375 39.390625 
Q 39.453125 41.9375 38.28125 43.625 
Q 37.109375 45.3125 34.953125 46.15625 
Q 32.8125 47.015625 29.390625 47.015625 
Q 26.265625 47.015625 23.75 45.890625 
Q 21.234375 44.78125 19.453125 42.71875 
Q 17.671875 40.671875 16.6875 37.734375 
Q 15.71875 34.8125 15.71875 31.15625 
L 15.71875 0 
L 6.9375 0 
L 6.9375 72.46875 
L 15.71875 72.46875 
L 15.71875 53.609375 
Q 15.71875 52 15.671875 50.390625 
Q 15.625 48.78125 15.546875 47.40625 
Q 15.484375 46.046875 15.421875 45.09375 
Q 15.375 44.140625 15.328125 43.796875 
z
" id="LiberationSans-68"/>
       <path d="M 6.9375 0 
L 6.9375 40.53125 
Q 6.9375 42.1875 6.90625 43.921875 
Q 6.890625 45.65625 6.828125 47.265625 
Q 6.78125 48.875 6.734375 50.28125 
Q 6.6875 51.703125 6.640625 52.828125 
L 14.9375 52.828125 
Q 14.984375 51.703125 15.0625 50.265625 
Q 15.140625 48.828125 15.203125 47.3125 
Q 15.28125 45.796875 15.296875 44.40625 
Q 15.328125 43.015625 15.328125 42.046875 
L 15.53125 42.046875 
Q 16.453125 45.0625 17.5 47.28125 
Q 18.5625 49.515625 19.96875 50.953125 
Q 21.390625 52.390625 23.34375 53.09375 
Q 25.296875 53.8125 28.078125 53.8125 
Q 29.15625 53.8125 30.125 53.640625 
Q 31.109375 53.46875 31.640625 53.328125 
L 31.640625 45.265625 
Q 30.765625 45.515625 29.59375 45.625 
Q 28.421875 45.75 26.953125 45.75 
Q 23.921875 45.75 21.796875 44.375 
Q 19.671875 43.015625 18.328125 40.59375 
Q 17 38.1875 16.359375 34.84375 
Q 15.71875 31.5 15.71875 27.546875 
L 15.71875 0 
z
" id="LiberationSans-72"/>
      </defs>
      <g style="fill:#262626;" transform="translate(451.548468 381.6323)scale(0.14 -0.14)">
       <use xlink:href="#LiberationSans-54"/>
       <use x="61.083984" xlink:href="#LiberationSans-68"/>
       <use x="116.699219" xlink:href="#LiberationSans-75"/>
       <use x="172.314453" xlink:href="#LiberationSans-72"/>
       <use x="205.615234" xlink:href="#LiberationSans-73"/>
       <use x="255.615234" xlink:href="#LiberationSans-64"/>
       <use x="311.230469" xlink:href="#LiberationSans-61"/>
       <use x="366.845703" xlink:href="#LiberationSans-79"/>
      </g>
     </g>
    </g>
    <g id="xtick_6">
     <g id="text_6">
      <!-- Friday -->
      <defs>
       <path d="M 17.53125 61.1875 
L 17.53125 35.59375 
L 55.90625 35.59375 
L 55.90625 27.875 
L 17.53125 27.875 
L 17.53125 0 
L 8.203125 0 
L 8.203125 68.796875 
L 57.078125 68.796875 
L 57.078125 61.1875 
z
" id="LiberationSans-46"/>
       <path d="M 6.6875 64.0625 
L 6.6875 72.46875 
L 15.484375 72.46875 
L 15.484375 64.0625 
z
M 6.6875 0 
L 6.6875 52.828125 
L 15.484375 52.828125 
L 15.484375 0 
z
" id="LiberationSans-69"/>
      </defs>
      <g style="fill:#262626;" transform="translate(556.935611 381.6323)scale(0.14 -0.14)">
       <use xlink:href="#LiberationSans-46"/>
       <use x="61.083984" xlink:href="#LiberationSans-72"/>
       <use x="94.384766" xlink:href="#LiberationSans-69"/>
       <use x="116.601562" xlink:href="#LiberationSans-64"/>
       <use x="172.216797" xlink:href="#LiberationSans-61"/>
       <use x="227.832031" xlink:href="#LiberationSans-79"/>
      </g>
     </g>
    </g>
    <g id="xtick_7">
     <g id="text_7">
      <!-- Saturday -->
      <defs>
       <path d="M 27.046875 0.390625 
Q 25.046875 -0.140625 22.96875 -0.453125 
Q 20.90625 -0.78125 18.171875 -0.78125 
Q 7.625 -0.78125 7.625 11.1875 
L 7.625 46.4375 
L 1.515625 46.4375 
L 1.515625 52.828125 
L 7.953125 52.828125 
L 10.546875 64.65625 
L 16.40625 64.65625 
L 16.40625 52.828125 
L 26.171875 52.828125 
L 26.171875 46.4375 
L 16.40625 46.4375 
L 16.40625 13.09375 
Q 16.40625 9.28125 17.640625 7.734375 
Q 18.890625 6.203125 21.96875 6.203125 
Q 23.25 6.203125 24.4375 6.390625 
Q 25.640625 6.59375 27.046875 6.890625 
z
" id="LiberationSans-74"/>
      </defs>
      <g style="fill:#262626;" transform="translate(644.024316 381.6323)scale(0.14 -0.14)">
       <use xlink:href="#LiberationSans-53"/>
       <use x="66.699219" xlink:href="#LiberationSans-61"/>
       <use x="122.314453" xlink:href="#LiberationSans-74"/>
       <use x="150.097656" xlink:href="#LiberationSans-75"/>
       <use x="205.712891" xlink:href="#LiberationSans-72"/>
       <use x="239.013672" xlink:href="#LiberationSans-64"/>
       <use x="294.628906" xlink:href="#LiberationSans-61"/>
       <use x="350.244141" xlink:href="#LiberationSans-79"/>
      </g>
     </g>
    </g>
   </g>
   <g id="matplotlib.axis_2">
    <g id="ytick_1">
     <g id="text_8">
      <!-- 0.6 -->
      <defs>
       <path d="M 51.703125 34.421875 
Q 51.703125 24.515625 49.828125 17.75 
Q 47.953125 10.984375 44.703125 6.8125 
Q 41.453125 2.640625 37.0625 0.828125 
Q 32.671875 -0.984375 27.6875 -0.984375 
Q 22.65625 -0.984375 18.3125 0.828125 
Q 13.96875 2.640625 10.765625 6.78125 
Q 7.5625 10.9375 5.734375 17.703125 
Q 3.90625 24.46875 3.90625 34.421875 
Q 3.90625 44.828125 5.734375 51.640625 
Q 7.5625 58.453125 10.78125 62.5 
Q 14.015625 66.546875 18.40625 68.1875 
Q 22.796875 69.828125 27.984375 69.828125 
Q 32.90625 69.828125 37.21875 68.1875 
Q 41.546875 66.546875 44.765625 62.5 
Q 48 58.453125 49.84375 51.640625 
Q 51.703125 44.828125 51.703125 34.421875 
z
M 42.78125 34.421875 
Q 42.78125 42.625 41.796875 48.0625 
Q 40.828125 53.515625 38.921875 56.765625 
Q 37.015625 60.015625 34.25 61.359375 
Q 31.5 62.703125 27.984375 62.703125 
Q 24.265625 62.703125 21.4375 61.328125 
Q 18.609375 59.96875 16.671875 56.71875 
Q 14.75 53.46875 13.765625 48.015625 
Q 12.796875 42.578125 12.796875 34.421875 
Q 12.796875 26.515625 13.796875 21.09375 
Q 14.796875 15.671875 16.71875 12.375 
Q 18.65625 9.078125 21.4375 7.640625 
Q 24.21875 6.203125 27.78125 6.203125 
Q 31.25 6.203125 34.03125 7.640625 
Q 36.8125 9.078125 38.734375 12.375 
Q 40.671875 15.671875 41.71875 21.09375 
Q 42.78125 26.515625 42.78125 34.421875 
z
" id="LiberationSans-30"/>
       <path d="M 9.125 0 
L 9.125 10.6875 
L 18.65625 10.6875 
L 18.65625 0 
z
" id="LiberationSans-2e"/>
       <path d="M 51.21875 22.515625 
Q 51.21875 17.328125 49.78125 13 
Q 48.34375 8.6875 45.53125 5.578125 
Q 42.71875 2.484375 38.5625 0.75 
Q 34.421875 -0.984375 29 -0.984375 
Q 23 -0.984375 18.5 1.3125 
Q 14.015625 3.609375 11.03125 7.921875 
Q 8.0625 12.25 6.5625 18.53125 
Q 5.078125 24.8125 5.078125 32.8125 
Q 5.078125 42 6.765625 48.921875 
Q 8.453125 55.859375 11.625 60.5 
Q 14.796875 65.140625 19.359375 67.484375 
Q 23.921875 69.828125 29.6875 69.828125 
Q 33.203125 69.828125 36.28125 69.09375 
Q 39.359375 68.359375 41.875 66.71875 
Q 44.390625 65.09375 46.28125 62.40625 
Q 48.1875 59.71875 49.3125 55.8125 
L 40.921875 54.296875 
Q 39.546875 58.734375 36.546875 60.71875 
Q 33.546875 62.703125 29.59375 62.703125 
Q 25.984375 62.703125 23.046875 60.984375 
Q 20.125 59.28125 18.0625 55.875 
Q 16.015625 52.484375 14.90625 47.359375 
Q 13.8125 42.234375 13.8125 35.40625 
Q 16.21875 39.84375 20.5625 42.15625 
Q 24.90625 44.484375 30.515625 44.484375 
Q 35.203125 44.484375 39.015625 42.96875 
Q 42.828125 41.453125 45.53125 38.59375 
Q 48.25 35.75 49.734375 31.671875 
Q 51.21875 27.59375 51.21875 22.515625 
z
M 42.28125 22.125 
Q 42.28125 25.6875 41.40625 28.5625 
Q 40.53125 31.453125 38.765625 33.46875 
Q 37.015625 35.5 34.421875 36.59375 
Q 31.84375 37.703125 28.421875 37.703125 
Q 26.03125 37.703125 23.578125 36.984375 
Q 21.140625 36.28125 19.15625 34.6875 
Q 17.1875 33.109375 15.9375 30.515625 
Q 14.703125 27.9375 14.703125 24.21875 
Q 14.703125 20.40625 15.671875 17.109375 
Q 16.65625 13.8125 18.484375 11.375 
Q 20.3125 8.9375 22.890625 7.515625 
Q 25.484375 6.109375 28.71875 6.109375 
Q 31.890625 6.109375 34.40625 7.203125 
Q 36.921875 8.296875 38.671875 10.375 
Q 40.4375 12.453125 41.359375 15.421875 
Q 42.28125 18.40625 42.28125 22.125 
z
" id="LiberationSans-36"/>
      </defs>
      <g style="fill:#262626;" transform="translate(27.3082 358.878618)scale(0.14 -0.14)">
       <use xlink:href="#LiberationSans-30"/>
       <use x="55.615234" xlink:href="#LiberationSans-2e"/>
       <use x="83.398438" xlink:href="#LiberationSans-36"/>
      </g>
     </g>
    </g>
    <g id="ytick_2">
     <g id="text_9">
      <!-- 0.8 -->
      <defs>
       <path d="M 51.265625 19.1875 
Q 51.265625 14.796875 49.875 11.109375 
Q 48.484375 7.421875 45.625 4.734375 
Q 42.78125 2.046875 38.328125 0.53125 
Q 33.890625 -0.984375 27.828125 -0.984375 
Q 21.78125 -0.984375 17.359375 0.53125 
Q 12.9375 2.046875 10.03125 4.703125 
Q 7.125 7.375 5.734375 11.0625 
Q 4.34375 14.75 4.34375 19.09375 
Q 4.34375 22.859375 5.484375 25.78125 
Q 6.640625 28.71875 8.5625 30.828125 
Q 10.5 32.953125 12.96875 34.25 
Q 15.4375 35.546875 18.0625 35.984375 
L 18.0625 36.1875 
Q 15.1875 36.859375 12.90625 38.375 
Q 10.640625 39.890625 9.09375 42.015625 
Q 7.5625 44.140625 6.75 46.71875 
Q 5.953125 49.3125 5.953125 52.203125 
Q 5.953125 55.8125 7.34375 59 
Q 8.734375 62.203125 11.46875 64.625 
Q 14.203125 67.046875 18.25 68.4375 
Q 22.3125 69.828125 27.640625 69.828125 
Q 33.25 69.828125 37.375 68.40625 
Q 41.5 67 44.203125 64.578125 
Q 46.921875 62.15625 48.234375 58.9375 
Q 49.5625 55.71875 49.5625 52.09375 
Q 49.5625 49.265625 48.75 46.671875 
Q 47.953125 44.09375 46.40625 41.96875 
Q 44.875 39.84375 42.59375 38.34375 
Q 40.328125 36.859375 37.359375 36.28125 
L 37.359375 36.078125 
Q 40.328125 35.59375 42.859375 34.296875 
Q 45.40625 33.015625 47.265625 30.890625 
Q 49.125 28.765625 50.1875 25.828125 
Q 51.265625 22.90625 51.265625 19.1875 
z
M 40.4375 51.609375 
Q 40.4375 54.203125 39.765625 56.34375 
Q 39.109375 58.5 37.59375 60.03125 
Q 36.078125 61.578125 33.640625 62.421875 
Q 31.203125 63.28125 27.640625 63.28125 
Q 24.171875 63.28125 21.78125 62.421875 
Q 19.390625 61.578125 17.84375 60.03125 
Q 16.3125 58.5 15.625 56.34375 
Q 14.9375 54.203125 14.9375 51.609375 
Q 14.9375 49.5625 15.46875 47.40625 
Q 16.015625 45.265625 17.421875 43.5 
Q 18.84375 41.75 21.328125 40.625 
Q 23.828125 39.5 27.734375 39.5 
Q 31.890625 39.5 34.40625 40.625 
Q 36.921875 41.75 38.25 43.5 
Q 39.59375 45.265625 40.015625 47.40625 
Q 40.4375 49.5625 40.4375 51.609375 
z
M 42.140625 20.015625 
Q 42.140625 22.515625 41.453125 24.828125 
Q 40.765625 27.15625 39.109375 28.9375 
Q 37.453125 30.71875 34.640625 31.8125 
Q 31.84375 32.90625 27.640625 32.90625 
Q 23.78125 32.90625 21.0625 31.8125 
Q 18.359375 30.71875 16.671875 28.90625 
Q 14.984375 27.09375 14.203125 24.71875 
Q 13.421875 22.359375 13.421875 19.828125 
Q 13.421875 16.65625 14.203125 14.03125 
Q 14.984375 11.421875 16.6875 9.546875 
Q 18.40625 7.671875 21.1875 6.640625 
Q 23.96875 5.609375 27.9375 5.609375 
Q 31.9375 5.609375 34.671875 6.640625 
Q 37.40625 7.671875 39.0625 9.546875 
Q 40.71875 11.421875 41.421875 14.078125 
Q 42.140625 16.75 42.140625 20.015625 
z
" id="LiberationSans-38"/>
      </defs>
      <g style="fill:#262626;" transform="translate(27.3082 302.15514)scale(0.14 -0.14)">
       <use xlink:href="#LiberationSans-30"/>
       <use x="55.615234" xlink:href="#LiberationSans-2e"/>
       <use x="83.398438" xlink:href="#LiberationSans-38"/>
      </g>
     </g>
    </g>
    <g id="ytick_3">
     <g id="text_10">
      <!-- 1.0 -->
      <defs>
       <path d="M 7.625 0 
L 7.625 7.46875 
L 25.140625 7.46875 
L 25.140625 60.40625 
L 9.625 49.3125 
L 9.625 57.625 
L 25.875 68.796875 
L 33.984375 68.796875 
L 33.984375 7.46875 
L 50.734375 7.46875 
L 50.734375 0 
z
" id="LiberationSans-31"/>
      </defs>
      <g style="fill:#262626;" transform="translate(27.3082 245.431661)scale(0.14 -0.14)">
       <use xlink:href="#LiberationSans-31"/>
       <use x="55.615234" xlink:href="#LiberationSans-2e"/>
       <use x="83.398438" xlink:href="#LiberationSans-30"/>
      </g>
     </g>
    </g>
    <g id="ytick_4">
     <g id="text_11">
      <!-- 1.2 -->
      <defs>
       <path d="M 5.03125 0 
L 5.03125 6.203125 
Q 7.515625 11.921875 11.109375 16.28125 
Q 14.703125 20.65625 18.65625 24.1875 
Q 22.609375 27.734375 26.484375 30.765625 
Q 30.375 33.796875 33.5 36.8125 
Q 36.625 39.84375 38.546875 43.15625 
Q 40.484375 46.484375 40.484375 50.6875 
Q 40.484375 53.609375 39.59375 55.828125 
Q 38.71875 58.0625 37.0625 59.5625 
Q 35.40625 61.078125 33.078125 61.828125 
Q 30.765625 62.59375 27.9375 62.59375 
Q 25.296875 62.59375 22.96875 61.859375 
Q 20.65625 61.140625 18.84375 59.671875 
Q 17.046875 58.203125 15.890625 56.03125 
Q 14.75 53.859375 14.40625 50.984375 
L 5.421875 51.8125 
Q 5.859375 55.515625 7.46875 58.78125 
Q 9.078125 62.0625 11.90625 64.53125 
Q 14.75 67 18.71875 68.40625 
Q 22.703125 69.828125 27.9375 69.828125 
Q 33.0625 69.828125 37.0625 68.609375 
Q 41.0625 67.390625 43.8125 64.984375 
Q 46.578125 62.59375 48.046875 59.078125 
Q 49.515625 55.5625 49.515625 50.984375 
Q 49.515625 47.515625 48.265625 44.390625 
Q 47.015625 41.265625 44.9375 38.421875 
Q 42.875 35.59375 40.140625 32.953125 
Q 37.40625 30.328125 34.421875 27.8125 
Q 31.453125 25.296875 28.421875 22.828125 
Q 25.390625 20.359375 22.71875 17.859375 
Q 20.0625 15.375 17.96875 12.8125 
Q 15.875 10.25 14.703125 7.46875 
L 50.59375 7.46875 
L 50.59375 0 
z
" id="LiberationSans-32"/>
      </defs>
      <g style="fill:#262626;" transform="translate(27.3082 188.708183)scale(0.14 -0.14)">
       <use xlink:href="#LiberationSans-31"/>
       <use x="55.615234" xlink:href="#LiberationSans-2e"/>
       <use x="83.398438" xlink:href="#LiberationSans-32"/>
      </g>
     </g>
    </g>
    <g id="ytick_5">
     <g id="text_12">
      <!-- 1.4 -->
      <defs>
       <path d="M 43.015625 15.578125 
L 43.015625 0 
L 34.71875 0 
L 34.71875 15.578125 
L 2.296875 15.578125 
L 2.296875 22.40625 
L 33.796875 68.796875 
L 43.015625 68.796875 
L 43.015625 22.515625 
L 52.6875 22.515625 
L 52.6875 15.578125 
z
M 34.71875 58.890625 
Q 34.625 58.640625 34.234375 57.9375 
Q 33.84375 57.234375 33.34375 56.34375 
Q 32.859375 55.46875 32.34375 54.5625 
Q 31.84375 53.65625 31.453125 53.078125 
L 13.8125 27.09375 
Q 13.578125 26.703125 13.109375 26.0625 
Q 12.640625 25.4375 12.15625 24.78125 
Q 11.671875 24.125 11.171875 23.484375 
Q 10.6875 22.859375 10.40625 22.515625 
L 34.71875 22.515625 
z
" id="LiberationSans-34"/>
      </defs>
      <g style="fill:#262626;" transform="translate(27.3082 131.984705)scale(0.14 -0.14)">
       <use xlink:href="#LiberationSans-31"/>
       <use x="55.615234" xlink:href="#LiberationSans-2e"/>
       <use x="83.398438" xlink:href="#LiberationSans-34"/>
      </g>
     </g>
    </g>
    <g id="ytick_6">
     <g id="text_13">
      <!-- 1.6 -->
      <g style="fill:#262626;" transform="translate(27.3082 75.261227)scale(0.14 -0.14)">
       <use xlink:href="#LiberationSans-31"/>
       <use x="55.615234" xlink:href="#LiberationSans-2e"/>
       <use x="83.398438" xlink:href="#LiberationSans-36"/>
      </g>
     </g>
    </g>
    <g id="text_14">
     <!-- Accident Ratio: DST Week / Week After -->
     <defs>
      <path d="M 56.984375 0 
L 49.125 20.125 
L 17.78125 20.125 
L 9.859375 0 
L 0.203125 0 
L 28.265625 68.796875 
L 38.875 68.796875 
L 66.5 0 
z
M 37.5 50.09375 
Q 36.71875 52.046875 36 54.046875 
Q 35.296875 56.0625 34.765625 57.6875 
Q 34.234375 59.328125 33.859375 60.421875 
Q 33.5 61.53125 33.453125 61.765625 
Q 33.34375 61.53125 33 60.40625 
Q 32.671875 59.28125 32.109375 57.609375 
Q 31.546875 55.953125 30.828125 53.953125 
Q 30.125 51.953125 29.390625 50 
L 20.609375 27.390625 
L 46.34375 27.390625 
z
" id="LiberationSans-41"/>
      <path d="M 13.421875 26.65625 
Q 13.421875 22.125 14.078125 18.3125 
Q 14.75 14.5 16.3125 11.734375 
Q 17.875 8.984375 20.4375 7.46875 
Q 23 5.953125 26.765625 5.953125 
Q 31.453125 5.953125 34.59375 8.484375 
Q 37.75 11.03125 38.484375 16.3125 
L 47.359375 15.71875 
Q 46.921875 12.453125 45.453125 9.421875 
Q 44 6.390625 41.484375 4.09375 
Q 38.96875 1.8125 35.34375 0.40625 
Q 31.734375 -0.984375 27 -0.984375 
Q 20.796875 -0.984375 16.453125 1.109375 
Q 12.109375 3.21875 9.390625 6.90625 
Q 6.6875 10.59375 5.46875 15.59375 
Q 4.25 20.609375 4.25 26.46875 
Q 4.25 31.78125 5.125 35.859375 
Q 6 39.9375 7.59375 42.984375 
Q 9.1875 46.046875 11.328125 48.125 
Q 13.484375 50.203125 15.984375 51.4375 
Q 18.5 52.6875 21.28125 53.25 
Q 24.078125 53.8125 26.90625 53.8125 
Q 31.34375 53.8125 34.8125 52.59375 
Q 38.28125 51.375 40.796875 49.25 
Q 43.3125 47.125 44.875 44.234375 
Q 46.4375 41.359375 47.078125 38.03125 
L 38.03125 37.359375 
Q 37.359375 41.75 34.5625 44.328125 
Q 31.78125 46.921875 26.65625 46.921875 
Q 22.90625 46.921875 20.390625 45.671875 
Q 17.875 44.4375 16.3125 41.921875 
Q 14.75 39.40625 14.078125 35.59375 
Q 13.421875 31.78125 13.421875 26.65625 
z
" id="LiberationSans-63"/>
      <path d="M 56.84375 0 
L 38.96875 28.5625 
L 17.53125 28.5625 
L 17.53125 0 
L 8.203125 0 
L 8.203125 68.796875 
L 40.578125 68.796875 
Q 46.4375 68.796875 50.953125 67.453125 
Q 55.46875 66.109375 58.546875 63.5625 
Q 61.625 61.03125 63.234375 57.375 
Q 64.84375 53.71875 64.84375 49.125 
Q 64.84375 45.84375 63.890625 42.671875 
Q 62.9375 39.5 60.890625 36.859375 
Q 58.84375 34.234375 55.65625 32.328125 
Q 52.484375 30.421875 48.046875 29.640625 
L 67.578125 0 
z
M 55.46875 49.03125 
Q 55.46875 52.15625 54.390625 54.4375 
Q 53.328125 56.734375 51.265625 58.265625 
Q 49.21875 59.8125 46.28125 60.5625 
Q 43.359375 61.328125 39.65625 61.328125 
L 17.53125 61.328125 
L 17.53125 35.9375 
L 40.046875 35.9375 
Q 44.046875 35.9375 46.96875 36.9375 
Q 49.90625 37.9375 51.78125 39.6875 
Q 53.65625 41.453125 54.5625 43.84375 
Q 55.46875 46.234375 55.46875 49.03125 
z
" id="LiberationSans-52"/>
      <path d="M 9.125 42.71875 
L 9.125 52.828125 
L 18.65625 52.828125 
L 18.65625 42.71875 
z
M 9.125 0 
L 9.125 10.109375 
L 18.65625 10.109375 
L 18.65625 0 
z
" id="LiberationSans-3a"/>
      <path d="M 39.84375 0 
L 21.96875 24.125 
L 15.53125 18.796875 
L 15.53125 0 
L 6.734375 0 
L 6.734375 72.46875 
L 15.53125 72.46875 
L 15.53125 27.203125 
L 38.71875 52.828125 
L 49.03125 52.828125 
L 27.59375 30.125 
L 50.140625 0 
z
" id="LiberationSans-6b"/>
      <path d="M 0 -0.984375 
L 20.0625 72.46875 
L 27.78125 72.46875 
L 7.90625 -0.984375 
z
" id="LiberationSans-2f"/>
      <path d="M 17.625 46.4375 
L 17.625 0 
L 8.84375 0 
L 8.84375 46.4375 
L 1.421875 46.4375 
L 1.421875 52.828125 
L 8.84375 52.828125 
L 8.84375 58.796875 
Q 8.84375 61.671875 9.375 64.140625 
Q 9.90625 66.609375 11.34375 68.4375 
Q 12.796875 70.265625 15.28125 71.3125 
Q 17.78125 72.359375 21.734375 72.359375 
Q 23.296875 72.359375 24.96875 72.21875 
Q 26.65625 72.078125 27.9375 71.78125 
L 27.9375 65.09375 
Q 27.09375 65.234375 26 65.359375 
Q 24.90625 65.484375 24.03125 65.484375 
Q 22.078125 65.484375 20.828125 64.9375 
Q 19.578125 64.40625 18.875 63.40625 
Q 18.171875 62.40625 17.890625 60.9375 
Q 17.625 59.46875 17.625 57.5625 
L 17.625 52.828125 
L 27.9375 52.828125 
L 27.9375 46.4375 
z
" id="LiberationSans-66"/>
     </defs>
     <g style="fill:#262626;" transform="translate(19.7226 357.098925)rotate(-90)scale(0.1728 -0.1728)">
      <use xlink:href="#LiberationSans-41"/>
      <use x="66.699219" xlink:href="#LiberationSans-63"/>
      <use x="116.699219" xlink:href="#LiberationSans-63"/>
      <use x="166.699219" xlink:href="#LiberationSans-69"/>
      <use x="188.916016" xlink:href="#LiberationSans-64"/>
      <use x="244.53125" xlink:href="#LiberationSans-65"/>
      <use x="300.146484" xlink:href="#LiberationSans-6e"/>
      <use x="355.761719" xlink:href="#LiberationSans-74"/>
      <use x="383.544922" xlink:href="#LiberationSans-20"/>
      <use x="411.328125" xlink:href="#LiberationSans-52"/>
      <use x="483.544922" xlink:href="#LiberationSans-61"/>
      <use x="539.160156" xlink:href="#LiberationSans-74"/>
      <use x="566.943359" xlink:href="#LiberationSans-69"/>
      <use x="589.160156" xlink:href="#LiberationSans-6f"/>
      <use x="644.775391" xlink:href="#LiberationSans-3a"/>
      <use x="672.558594" xlink:href="#LiberationSans-20"/>
      <use x="700.341797" xlink:href="#LiberationSans-44"/>
      <use x="772.558594" xlink:href="#LiberationSans-53"/>
      <use x="839.257812" xlink:href="#LiberationSans-54"/>
      <use x="900.326172" xlink:href="#LiberationSans-20"/>
      <use x="928.109375" xlink:href="#LiberationSans-57"/>
      <use x="1022.478516" xlink:href="#LiberationSans-65"/>
      <use x="1078.09375" xlink:href="#LiberationSans-65"/>
      <use x="1133.708984" xlink:href="#LiberationSans-6b"/>
      <use x="1183.708984" xlink:href="#LiberationSans-20"/>
      <use x="1211.492188" xlink:href="#LiberationSans-2f"/>
      <use x="1239.275391" xlink:href="#LiberationSans-20"/>
      <use x="1267.058594" xlink:href="#LiberationSans-57"/>
      <use x="1361.427734" xlink:href="#LiberationSans-65"/>
      <use x="1417.042969" xlink:href="#LiberationSans-65"/>
      <use x="1472.658203" xlink:href="#LiberationSans-6b"/>
      <use x="1522.658203" xlink:href="#LiberationSans-20"/>
      <use x="1550.363281" xlink:href="#LiberationSans-41"/>
      <use x="1617.0625" xlink:href="#LiberationSans-66"/>
      <use x="1644.845703" xlink:href="#LiberationSans-74"/>
      <use x="1672.628906" xlink:href="#LiberationSans-65"/>
      <use x="1728.244141" xlink:href="#LiberationSans-72"/>
     </g>
    </g>
   </g>
   <g id="PolyCollection_1">
    <defs>
     <path d="M 99.412906 -41.521376 
L 96.780637 -41.521376 
L 96.642186 -43.217317 
L 96.497622 -44.913257 
L 96.347535 -46.609198 
L 96.192529 -48.305138 
L 96.033196 -50.001079 
L 95.870086 -51.697019 
L 95.703691 -53.39296 
L 95.534424 -55.0889 
L 95.362603 -56.784841 
L 95.188449 -58.480781 
L 95.012083 -60.176722 
L 94.833532 -61.872662 
L 94.652739 -63.568603 
L 94.46958 -65.264543 
L 94.283887 -66.960484 
L 94.095462 -68.656425 
L 93.904101 -70.352365 
L 93.709611 -72.048306 
L 93.511824 -73.744246 
L 93.310606 -75.440187 
L 93.105861 -77.136127 
L 92.897524 -78.832068 
L 92.685557 -80.528008 
L 92.469935 -82.223949 
L 92.250626 -83.919889 
L 92.027578 -85.61583 
L 91.800697 -87.31177 
L 91.569833 -89.007711 
L 91.33477 -90.703651 
L 91.095214 -92.399592 
L 90.850796 -94.095532 
L 90.601074 -95.791473 
L 90.345547 -97.487413 
L 90.08367 -99.183354 
L 89.814875 -100.879294 
L 89.538598 -102.575235 
L 89.254308 -104.271176 
L 88.961536 -105.967116 
L 88.659909 -107.663057 
L 88.349179 -109.358997 
L 88.029258 -111.054938 
L 87.70025 -112.750878 
L 87.362476 -114.446819 
L 87.016512 -116.142759 
L 86.663208 -117.8387 
L 86.303719 -119.53464 
L 85.939521 -121.230581 
L 85.572432 -122.926521 
L 85.204617 -124.622462 
L 84.838588 -126.318402 
L 84.477199 -128.014343 
L 84.12362 -129.710283 
L 83.781302 -131.406224 
L 83.453934 -133.102164 
L 83.145379 -134.798105 
L 82.8596 -136.494045 
L 82.600579 -138.189986 
L 82.372225 -139.885926 
L 82.17828 -141.581867 
L 82.02222 -143.277808 
L 81.907168 -144.973748 
L 81.835807 -146.669689 
L 81.810306 -148.365629 
L 81.832262 -150.06157 
L 81.902659 -151.75751 
L 82.021842 -153.453451 
L 82.189512 -155.149391 
L 82.40474 -156.845332 
L 82.665997 -158.541272 
L 82.971195 -160.237213 
L 83.317751 -161.933153 
L 83.702645 -163.629094 
L 84.122501 -165.325034 
L 84.573658 -167.020975 
L 85.052249 -168.716915 
L 85.554276 -170.412856 
L 86.075677 -172.108796 
L 86.612397 -173.804737 
L 87.160438 -175.500677 
L 87.71592 -177.196618 
L 88.275111 -178.892559 
L 88.834473 -180.588499 
L 89.390683 -182.28444 
L 89.940655 -183.98038 
L 90.481557 -185.676321 
L 91.010816 -187.372261 
L 91.526125 -189.068202 
L 92.025445 -190.764142 
L 92.507 -192.460083 
L 92.969274 -194.156023 
L 93.411008 -195.851964 
L 93.831184 -197.547904 
L 94.229027 -199.243845 
L 94.603985 -200.939785 
L 94.955729 -202.635726 
L 95.284135 -204.331666 
L 95.589273 -206.027607 
L 95.8714 -207.723547 
L 96.130941 -209.419488 
L 100.062601 -209.419488 
L 100.062601 -209.419488 
L 100.322142 -207.723547 
L 100.60427 -206.027607 
L 100.909408 -204.331666 
L 101.237813 -202.635726 
L 101.589557 -200.939785 
L 101.964516 -199.243845 
L 102.362359 -197.547904 
L 102.782535 -195.851964 
L 103.224268 -194.156023 
L 103.686543 -192.460083 
L 104.168098 -190.764142 
L 104.667418 -189.068202 
L 105.182727 -187.372261 
L 105.711986 -185.676321 
L 106.252887 -183.98038 
L 106.80286 -182.28444 
L 107.35907 -180.588499 
L 107.918432 -178.892559 
L 108.477623 -177.196618 
L 109.033104 -175.500677 
L 109.581146 -173.804737 
L 110.117866 -172.108796 
L 110.639267 -170.412856 
L 111.141294 -168.716915 
L 111.619885 -167.020975 
L 112.071042 -165.325034 
L 112.490898 -163.629094 
L 112.875792 -161.933153 
L 113.222347 -160.237213 
L 113.527546 -158.541272 
L 113.788802 -156.845332 
L 114.004031 -155.149391 
L 114.171701 -153.453451 
L 114.290884 -151.75751 
L 114.361281 -150.06157 
L 114.383237 -148.365629 
L 114.357736 -146.669689 
L 114.286375 -144.973748 
L 114.171323 -143.277808 
L 114.015263 -141.581867 
L 113.821318 -139.885926 
L 113.592964 -138.189986 
L 113.333943 -136.494045 
L 113.048164 -134.798105 
L 112.739609 -133.102164 
L 112.412241 -131.406224 
L 112.069923 -129.710283 
L 111.716343 -128.014343 
L 111.354954 -126.318402 
L 110.988926 -124.622462 
L 110.621111 -122.926521 
L 110.254022 -121.230581 
L 109.889824 -119.53464 
L 109.530335 -117.8387 
L 109.177031 -116.142759 
L 108.831067 -114.446819 
L 108.493293 -112.750878 
L 108.164284 -111.054938 
L 107.844364 -109.358997 
L 107.533634 -107.663057 
L 107.232007 -105.967116 
L 106.939235 -104.271176 
L 106.654945 -102.575235 
L 106.378668 -100.879294 
L 106.109873 -99.183354 
L 105.847996 -97.487413 
L 105.592469 -95.791473 
L 105.342747 -94.095532 
L 105.098329 -92.399592 
L 104.858773 -90.703651 
L 104.623709 -89.007711 
L 104.392846 -87.31177 
L 104.165965 -85.61583 
L 103.942917 -83.919889 
L 103.723608 -82.223949 
L 103.507986 -80.528008 
L 103.296019 -78.832068 
L 103.087682 -77.136127 
L 102.882937 -75.440187 
L 102.681719 -73.744246 
L 102.483932 -72.048306 
L 102.289442 -70.352365 
L 102.098081 -68.656425 
L 101.909656 -66.960484 
L 101.723962 -65.264543 
L 101.540804 -63.568603 
L 101.360011 -61.872662 
L 101.181459 -60.176722 
L 101.005094 -58.480781 
L 100.83094 -56.784841 
L 100.659119 -55.0889 
L 100.489851 -53.39296 
L 100.323457 -51.697019 
L 100.160347 -50.001079 
L 100.001014 -48.305138 
L 99.846008 -46.609198 
L 99.695921 -44.913257 
L 99.551357 -43.217317 
L 99.412906 -41.521376 
z
" id="m1d102e8a9d" style="stroke:#414141;stroke-width:2;"/>
    </defs>
    <g clip-path="url(#p3735000348)">
     <use style="fill:#e68193;stroke:#414141;stroke-width:2;" x="0" xlink:href="#m1d102e8a9d" y="391.7373"/>
    </g>
   </g>
   <g id="PolyCollection_2">
    <defs>
     <path d="M 195.845962 -66.772213 
L 191.661867 -66.772213 
L 191.445292 -68.197251 
L 191.218489 -69.622288 
L 190.982617 -71.047326 
L 190.739043 -72.472364 
L 190.489322 -73.897402 
L 190.235177 -75.32244 
L 189.978468 -76.747478 
L 189.721158 -78.172515 
L 189.465273 -79.597553 
L 189.21285 -81.022591 
L 188.965896 -82.447629 
L 188.726331 -83.872667 
L 188.495936 -85.297704 
L 188.276306 -86.722742 
L 188.068798 -88.14778 
L 187.874491 -89.572818 
L 187.694145 -90.997856 
L 187.528178 -92.422893 
L 187.376641 -93.847931 
L 187.239211 -95.272969 
L 187.115191 -96.698007 
L 187.00352 -98.123045 
L 186.902798 -99.548083 
L 186.811316 -100.97312 
L 186.727098 -102.398158 
L 186.647944 -103.823196 
L 186.571487 -105.248234 
L 186.495248 -106.673272 
L 186.416692 -108.098309 
L 186.333289 -109.523347 
L 186.242562 -110.948385 
L 186.142141 -112.373423 
L 186.029809 -113.798461 
L 185.903536 -115.223499 
L 185.761512 -116.648536 
L 185.602173 -118.073574 
L 185.424214 -119.498612 
L 185.226606 -120.92365 
L 185.008599 -122.348688 
L 184.769725 -123.773725 
L 184.509799 -125.198763 
L 184.228921 -126.623801 
L 183.927471 -128.048839 
L 183.606114 -129.473877 
L 183.265799 -130.898914 
L 182.90776 -132.323952 
L 182.533526 -133.74899 
L 182.144919 -135.174028 
L 181.744061 -136.599066 
L 181.333373 -138.024104 
L 180.915574 -139.449141 
L 180.493667 -140.874179 
L 180.070929 -142.299217 
L 179.650882 -143.724255 
L 179.23726 -145.149293 
L 178.833965 -146.57433 
L 178.445015 -147.999368 
L 178.074481 -149.424406 
L 177.726417 -150.849444 
L 177.404788 -152.274482 
L 177.113393 -153.69952 
L 176.855788 -155.124557 
L 176.635212 -156.549595 
L 176.454524 -157.974633 
L 176.316142 -159.399671 
L 176.221999 -160.824709 
L 176.173509 -162.249746 
L 176.171551 -163.674784 
L 176.216465 -165.099822 
L 176.308061 -166.52486 
L 176.44565 -167.949898 
L 176.628079 -169.374936 
L 176.853774 -170.799973 
L 177.120803 -172.225011 
L 177.426924 -173.650049 
L 177.769655 -175.075087 
L 178.146325 -176.500125 
L 178.554131 -177.925162 
L 178.990186 -179.3502 
L 179.451561 -180.775238 
L 179.935319 -182.200276 
L 180.438537 -183.625314 
L 180.958326 -185.050351 
L 181.491839 -186.475389 
L 182.03628 -187.900427 
L 182.588898 -189.325465 
L 183.146993 -190.750503 
L 183.707911 -192.175541 
L 184.269044 -193.600578 
L 184.827831 -195.025616 
L 185.381767 -196.450654 
L 185.928411 -197.875692 
L 186.465401 -199.30073 
L 186.990469 -200.725767 
L 187.501468 -202.150805 
L 187.996388 -203.575843 
L 188.473389 -205.000881 
L 188.930818 -206.425919 
L 189.367234 -207.850957 
L 198.140595 -207.850957 
L 198.140595 -207.850957 
L 198.577011 -206.425919 
L 199.034439 -205.000881 
L 199.51144 -203.575843 
L 200.006361 -202.150805 
L 200.517359 -200.725767 
L 201.042428 -199.30073 
L 201.579417 -197.875692 
L 202.126062 -196.450654 
L 202.679998 -195.025616 
L 203.238785 -193.600578 
L 203.799917 -192.175541 
L 204.360835 -190.750503 
L 204.918931 -189.325465 
L 205.471549 -187.900427 
L 206.015989 -186.475389 
L 206.549503 -185.050351 
L 207.069292 -183.625314 
L 207.57251 -182.200276 
L 208.056268 -180.775238 
L 208.517643 -179.3502 
L 208.953698 -177.925162 
L 209.361504 -176.500125 
L 209.738173 -175.075087 
L 210.080904 -173.650049 
L 210.387026 -172.225011 
L 210.654054 -170.799973 
L 210.87975 -169.374936 
L 211.062178 -167.949898 
L 211.199768 -166.52486 
L 211.291364 -165.099822 
L 211.336277 -163.674784 
L 211.334319 -162.249746 
L 211.285829 -160.824709 
L 211.191686 -159.399671 
L 211.053304 -157.974633 
L 210.872616 -156.549595 
L 210.652041 -155.124557 
L 210.394435 -153.69952 
L 210.10304 -152.274482 
L 209.781412 -150.849444 
L 209.433348 -149.424406 
L 209.062814 -147.999368 
L 208.673864 -146.57433 
L 208.270569 -145.149293 
L 207.856946 -143.724255 
L 207.436899 -142.299217 
L 207.014161 -140.874179 
L 206.592255 -139.449141 
L 206.174455 -138.024104 
L 205.763768 -136.599066 
L 205.36291 -135.174028 
L 204.974303 -133.74899 
L 204.600068 -132.323952 
L 204.24203 -130.898914 
L 203.901714 -129.473877 
L 203.580357 -128.048839 
L 203.278908 -126.623801 
L 202.99803 -125.198763 
L 202.738104 -123.773725 
L 202.49923 -122.348688 
L 202.281222 -120.92365 
L 202.083615 -119.498612 
L 201.905656 -118.073574 
L 201.746317 -116.648536 
L 201.604293 -115.223499 
L 201.478019 -113.798461 
L 201.365687 -112.373423 
L 201.265267 -110.948385 
L 201.174539 -109.523347 
L 201.091136 -108.098309 
L 201.012581 -106.673272 
L 200.936342 -105.248234 
L 200.859885 -103.823196 
L 200.780731 -102.398158 
L 200.696512 -100.97312 
L 200.605031 -99.548083 
L 200.504309 -98.123045 
L 200.392638 -96.698007 
L 200.268617 -95.272969 
L 200.131187 -93.847931 
L 199.97965 -92.422893 
L 199.813683 -90.997856 
L 199.633338 -89.572818 
L 199.43903 -88.14778 
L 199.231523 -86.722742 
L 199.011893 -85.297704 
L 198.781498 -83.872667 
L 198.541932 -82.447629 
L 198.294978 -81.022591 
L 198.042556 -79.597553 
L 197.78667 -78.172515 
L 197.529361 -76.747478 
L 197.272652 -75.32244 
L 197.018507 -73.897402 
L 196.768785 -72.472364 
L 196.525211 -71.047326 
L 196.28934 -69.622288 
L 196.062536 -68.197251 
L 195.845962 -66.772213 
z
" id="ma3a2201907" style="stroke:#414141;stroke-width:2;"/>
    </defs>
    <g clip-path="url(#p3735000348)">
     <use style="fill:#b38e44;stroke:#414141;stroke-width:2;" x="0" xlink:href="#ma3a2201907" y="391.7373"/>
    </g>
   </g>
   <g id="PolyCollection_3">
    <defs>
     <path d="M 293.63063 -109.353029 
L 285.191484 -109.353029 
L 284.683882 -111.066036 
L 284.143615 -112.779042 
L 283.572834 -114.492049 
L 282.974346 -116.205055 
L 282.351613 -117.918062 
L 281.708716 -119.631068 
L 281.050313 -121.344075 
L 280.381574 -123.057081 
L 279.708089 -124.770088 
L 279.035776 -126.483094 
L 278.370762 -128.196101 
L 277.719261 -129.909107 
L 277.087448 -131.622114 
L 276.481326 -133.33512 
L 275.906601 -135.048127 
L 275.368567 -136.761133 
L 274.871996 -138.47414 
L 274.42105 -140.187146 
L 274.019212 -141.900153 
L 273.669238 -143.613159 
L 273.373126 -145.326165 
L 273.132116 -147.039172 
L 272.946705 -148.752178 
L 272.816688 -150.465185 
L 272.741209 -152.178191 
L 272.718833 -153.891198 
L 272.747621 -155.604204 
L 272.82522 -157.317211 
L 272.948943 -159.030217 
L 273.115855 -160.743224 
L 273.322854 -162.45623 
L 273.56674 -164.169237 
L 273.844273 -165.882243 
L 274.152223 -167.59525 
L 274.487402 -169.308256 
L 274.846696 -171.021263 
L 275.227067 -172.734269 
L 275.625568 -174.447276 
L 276.039333 -176.160282 
L 276.465572 -177.873289 
L 276.901561 -179.586295 
L 277.344631 -181.299301 
L 277.792163 -183.012308 
L 278.241582 -184.725314 
L 278.690357 -186.438321 
L 279.136007 -188.151327 
L 279.576115 -189.864334 
L 280.008341 -191.57734 
L 280.430446 -193.290347 
L 280.840315 -195.003353 
L 281.23598 -196.71636 
L 281.615651 -198.429366 
L 281.977735 -200.142373 
L 282.320866 -201.855379 
L 282.643915 -203.568386 
L 282.946012 -205.281392 
L 283.226552 -206.994399 
L 283.485201 -208.707405 
L 283.721894 -210.420412 
L 283.936829 -212.133418 
L 284.130459 -213.846425 
L 284.303478 -215.559431 
L 284.456801 -217.272438 
L 284.591547 -218.985444 
L 284.709019 -220.69845 
L 284.810678 -222.411457 
L 284.89812 -224.124463 
L 284.973051 -225.83747 
L 285.037263 -227.550476 
L 285.092608 -229.263483 
L 285.140974 -230.976489 
L 285.184251 -232.689496 
L 285.224317 -234.402502 
L 285.262999 -236.115509 
L 285.302056 -237.828515 
L 285.343147 -239.541522 
L 285.387807 -241.254528 
L 285.437425 -242.967535 
L 285.493221 -244.680541 
L 285.556224 -246.393548 
L 285.627257 -248.106554 
L 285.706928 -249.819561 
L 285.795614 -251.532567 
L 285.893466 -253.245574 
L 286.000402 -254.95858 
L 286.116123 -256.671586 
L 286.240116 -258.384593 
L 286.371679 -260.097599 
L 286.509936 -261.810606 
L 286.653869 -263.523612 
L 286.802339 -265.236619 
L 286.954124 -266.949625 
L 287.107948 -268.662632 
L 287.262511 -270.375638 
L 287.416525 -272.088645 
L 287.568741 -273.801651 
L 287.717977 -275.514658 
L 287.863141 -277.227664 
L 288.003254 -278.940671 
L 290.818861 -278.940671 
L 290.818861 -278.940671 
L 290.958973 -277.227664 
L 291.104137 -275.514658 
L 291.253373 -273.801651 
L 291.40559 -272.088645 
L 291.559604 -270.375638 
L 291.714167 -268.662632 
L 291.86799 -266.949625 
L 292.019775 -265.236619 
L 292.168246 -263.523612 
L 292.312178 -261.810606 
L 292.450436 -260.097599 
L 292.581998 -258.384593 
L 292.705991 -256.671586 
L 292.821712 -254.95858 
L 292.928648 -253.245574 
L 293.0265 -251.532567 
L 293.115186 -249.819561 
L 293.194857 -248.106554 
L 293.265891 -246.393548 
L 293.328893 -244.680541 
L 293.384689 -242.967535 
L 293.434307 -241.254528 
L 293.478967 -239.541522 
L 293.520058 -237.828515 
L 293.559115 -236.115509 
L 293.597797 -234.402502 
L 293.637863 -232.689496 
L 293.681141 -230.976489 
L 293.729506 -229.263483 
L 293.784852 -227.550476 
L 293.849064 -225.83747 
L 293.923995 -224.124463 
L 294.011436 -222.411457 
L 294.113095 -220.69845 
L 294.230567 -218.985444 
L 294.365314 -217.272438 
L 294.518636 -215.559431 
L 294.691655 -213.846425 
L 294.885285 -212.133418 
L 295.10022 -210.420412 
L 295.336913 -208.707405 
L 295.595562 -206.994399 
L 295.876102 -205.281392 
L 296.1782 -203.568386 
L 296.501249 -201.855379 
L 296.844379 -200.142373 
L 297.206463 -198.429366 
L 297.586134 -196.71636 
L 297.981799 -195.003353 
L 298.391668 -193.290347 
L 298.813773 -191.57734 
L 299.246 -189.864334 
L 299.686107 -188.151327 
L 300.131757 -186.438321 
L 300.580532 -184.725314 
L 301.029951 -183.012308 
L 301.477483 -181.299301 
L 301.920554 -179.586295 
L 302.356542 -177.873289 
L 302.782781 -176.160282 
L 303.196546 -174.447276 
L 303.595047 -172.734269 
L 303.975419 -171.021263 
L 304.334712 -169.308256 
L 304.669892 -167.59525 
L 304.977841 -165.882243 
L 305.255374 -164.169237 
L 305.49926 -162.45623 
L 305.70626 -160.743224 
L 305.873172 -159.030217 
L 305.996894 -157.317211 
L 306.074493 -155.604204 
L 306.103282 -153.891198 
L 306.080906 -152.178191 
L 306.005427 -150.465185 
L 305.87541 -148.752178 
L 305.689999 -147.039172 
L 305.448988 -145.326165 
L 305.152876 -143.613159 
L 304.802902 -141.900153 
L 304.401065 -140.187146 
L 303.950119 -138.47414 
L 303.453547 -136.761133 
L 302.915513 -135.048127 
L 302.340789 -133.33512 
L 301.734666 -131.622114 
L 301.102853 -129.909107 
L 300.451353 -128.196101 
L 299.786338 -126.483094 
L 299.114025 -124.770088 
L 298.440541 -123.057081 
L 297.771801 -121.344075 
L 297.113399 -119.631068 
L 296.470502 -117.918062 
L 295.847768 -116.205055 
L 295.249281 -114.492049 
L 294.678499 -112.779042 
L 294.138233 -111.066036 
L 293.63063 -109.353029 
z
" id="m4a2f057a88" style="stroke:#414141;stroke-width:2;"/>
    </defs>
    <g clip-path="url(#p3735000348)">
     <use style="fill:#7d9a40;stroke:#414141;stroke-width:2;" x="0" xlink:href="#m4a2f057a88" y="391.7373"/>
    </g>
   </g>
   <g id="PolyCollection_4">
    <defs>
     <path d="M 387.546301 -103.797627 
L 382.590099 -103.797627 
L 382.24963 -105.349416 
L 381.882311 -106.901206 
L 381.488435 -108.452995 
L 381.068403 -110.004784 
L 380.622666 -111.556574 
L 380.151656 -113.108363 
L 379.655731 -114.660153 
L 379.135135 -116.211942 
L 378.589972 -117.763731 
L 378.020214 -119.315521 
L 377.425731 -120.86731 
L 376.806354 -122.4191 
L 376.161965 -123.970889 
L 375.492615 -125.522678 
L 374.798653 -127.074468 
L 374.080864 -128.626257 
L 373.340609 -130.178047 
L 372.579946 -131.729836 
L 371.801729 -133.281625 
L 371.009678 -134.833415 
L 370.208406 -136.385204 
L 369.403412 -137.936994 
L 368.601021 -139.488783 
L 367.808302 -141.040572 
L 367.032933 -142.592362 
L 366.283062 -144.144151 
L 365.567132 -145.695941 
L 364.89371 -147.24773 
L 364.271309 -148.799519 
L 363.708217 -150.351309 
L 363.212333 -151.903098 
L 362.791017 -153.454888 
L 362.450948 -155.006677 
L 362.197993 -156.558466 
L 362.037089 -158.110256 
L 361.972125 -159.662045 
L 362.005841 -161.213835 
L 362.139729 -162.765624 
L 362.373952 -164.317413 
L 362.707275 -165.869203 
L 363.13703 -167.420992 
L 363.659098 -168.972782 
L 364.267948 -170.524571 
L 364.956698 -172.07636 
L 365.717238 -173.62815 
L 366.540391 -175.179939 
L 367.416119 -176.731729 
L 368.33376 -178.283518 
L 369.28229 -179.835307 
L 370.250605 -181.387097 
L 371.227789 -182.938886 
L 372.203375 -184.490676 
L 373.167572 -186.042465 
L 374.111458 -187.594254 
L 375.027119 -189.146044 
L 375.907748 -190.697833 
L 376.747678 -192.249623 
L 377.54238 -193.801412 
L 378.288413 -195.353201 
L 378.98334 -196.904991 
L 379.625621 -198.45678 
L 380.214495 -200.00857 
L 380.749857 -201.560359 
L 381.232134 -203.112148 
L 381.662187 -204.663938 
L 382.041218 -206.215727 
L 382.370705 -207.767517 
L 382.652353 -209.319306 
L 382.88807 -210.871095 
L 383.079962 -212.422885 
L 383.230332 -213.974674 
L 383.341706 -215.526464 
L 383.416842 -217.078253 
L 383.458759 -218.630042 
L 383.470744 -220.181832 
L 383.456358 -221.733621 
L 383.419423 -223.285411 
L 383.363998 -224.8372 
L 383.29433 -226.388989 
L 383.214792 -227.940779 
L 383.129805 -229.492568 
L 383.043741 -231.044358 
L 382.960821 -232.596147 
L 382.885005 -234.147936 
L 382.819886 -235.699726 
L 382.768584 -237.251515 
L 382.733661 -238.803305 
L 382.71705 -240.355094 
L 382.720006 -241.906883 
L 382.743087 -243.458673 
L 382.786159 -245.010462 
L 382.84843 -246.562252 
L 382.928514 -248.114041 
L 383.024513 -249.66583 
L 383.134115 -251.21762 
L 383.254713 -252.769409 
L 383.383523 -254.321199 
L 383.517699 -255.872988 
L 383.654449 -257.424777 
L 386.481951 -257.424777 
L 386.481951 -257.424777 
L 386.618701 -255.872988 
L 386.752877 -254.321199 
L 386.881687 -252.769409 
L 387.002285 -251.21762 
L 387.111887 -249.66583 
L 387.207886 -248.114041 
L 387.28797 -246.562252 
L 387.350241 -245.010462 
L 387.393313 -243.458673 
L 387.416394 -241.906883 
L 387.41935 -240.355094 
L 387.402739 -238.803305 
L 387.367816 -237.251515 
L 387.316514 -235.699726 
L 387.251395 -234.147936 
L 387.175579 -232.596147 
L 387.092659 -231.044358 
L 387.006595 -229.492568 
L 386.921608 -227.940779 
L 386.84207 -226.388989 
L 386.772402 -224.8372 
L 386.716977 -223.285411 
L 386.680042 -221.733621 
L 386.665656 -220.181832 
L 386.677641 -218.630042 
L 386.719558 -217.078253 
L 386.794694 -215.526464 
L 386.906068 -213.974674 
L 387.056438 -212.422885 
L 387.24833 -210.871095 
L 387.484047 -209.319306 
L 387.765695 -207.767517 
L 388.095182 -206.215727 
L 388.474213 -204.663938 
L 388.904266 -203.112148 
L 389.386543 -201.560359 
L 389.921905 -200.00857 
L 390.510779 -198.45678 
L 391.15306 -196.904991 
L 391.847987 -195.353201 
L 392.59402 -193.801412 
L 393.388722 -192.249623 
L 394.228652 -190.697833 
L 395.109281 -189.146044 
L 396.024942 -187.594254 
L 396.968828 -186.042465 
L 397.933025 -184.490676 
L 398.908611 -182.938886 
L 399.885795 -181.387097 
L 400.85411 -179.835307 
L 401.80264 -178.283518 
L 402.720281 -176.731729 
L 403.596009 -175.179939 
L 404.419162 -173.62815 
L 405.179702 -172.07636 
L 405.868452 -170.524571 
L 406.477302 -168.972782 
L 406.99937 -167.420992 
L 407.429125 -165.869203 
L 407.762448 -164.317413 
L 407.996671 -162.765624 
L 408.130559 -161.213835 
L 408.164275 -159.662045 
L 408.099311 -158.110256 
L 407.938407 -156.558466 
L 407.685452 -155.006677 
L 407.345383 -153.454888 
L 406.924067 -151.903098 
L 406.428183 -150.351309 
L 405.865091 -148.799519 
L 405.24269 -147.24773 
L 404.569268 -145.695941 
L 403.853338 -144.144151 
L 403.103467 -142.592362 
L 402.328098 -141.040572 
L 401.535379 -139.488783 
L 400.732988 -137.936994 
L 399.927994 -136.385204 
L 399.126722 -134.833415 
L 398.334671 -133.281625 
L 397.556454 -131.729836 
L 396.795791 -130.178047 
L 396.055536 -128.626257 
L 395.337747 -127.074468 
L 394.643785 -125.522678 
L 393.974435 -123.970889 
L 393.330046 -122.4191 
L 392.710669 -120.86731 
L 392.116186 -119.315521 
L 391.546428 -117.763731 
L 391.001265 -116.211942 
L 390.480669 -114.660153 
L 389.984744 -113.108363 
L 389.513734 -111.556574 
L 389.067997 -110.004784 
L 388.647965 -108.452995 
L 388.254089 -106.901206 
L 387.88677 -105.349416 
L 387.546301 -103.797627 
z
" id="m48dbdd7fc8" style="stroke:#414141;stroke-width:2;"/>
    </defs>
    <g clip-path="url(#p3735000348)">
     <use style="fill:#43a084;stroke:#414141;stroke-width:2;" x="0" xlink:href="#m48dbdd7fc8" y="391.7373"/>
    </g>
   </g>
   <g id="PolyCollection_5">
    <defs>
     <path d="M 483.88442 -119.411216 
L 477.566265 -119.411216 
L 477.229386 -120.110077 
L 476.875318 -120.808939 
L 476.50447 -121.507801 
L 476.117017 -122.206662 
L 475.712816 -122.905524 
L 475.291324 -123.604386 
L 474.851543 -124.303247 
L 474.391987 -125.002109 
L 473.910673 -125.700971 
L 473.405152 -126.399832 
L 472.872575 -127.098694 
L 472.309794 -127.797556 
L 471.713493 -128.496417 
L 471.080351 -129.195279 
L 470.407223 -129.89414 
L 469.691327 -130.593002 
L 468.930434 -131.291864 
L 468.123046 -131.990725 
L 467.268539 -132.689587 
L 466.367285 -133.388449 
L 465.420715 -134.08731 
L 464.43135 -134.786172 
L 463.402765 -135.485034 
L 462.339513 -136.183895 
L 461.247006 -136.882757 
L 460.131355 -137.581619 
L 458.999189 -138.28048 
L 457.857468 -138.979342 
L 456.713293 -139.678204 
L 455.573736 -140.377065 
L 454.445695 -141.075927 
L 453.335795 -141.774789 
L 452.250318 -142.47365 
L 451.195185 -143.172512 
L 450.175976 -143.871373 
L 449.197983 -144.570235 
L 448.266285 -145.269097 
L 447.385829 -145.967958 
L 446.561514 -146.66682 
L 445.798249 -147.365682 
L 445.100987 -148.064543 
L 444.47472 -148.763405 
L 443.924421 -149.462267 
L 443.454954 -150.161128 
L 443.07093 -150.85999 
L 442.776536 -151.558852 
L 442.57534 -152.257713 
L 442.470083 -152.956575 
L 442.462486 -153.655437 
L 442.553075 -154.354298 
L 442.741046 -155.05316 
L 443.024174 -155.752022 
L 443.398792 -156.450883 
L 443.859823 -157.149745 
L 444.400875 -157.848606 
L 445.014405 -158.547468 
L 445.691925 -159.24633 
L 446.424247 -159.945191 
L 447.201766 -160.644053 
L 448.014739 -161.342915 
L 448.853576 -162.041776 
L 449.709105 -162.740638 
L 450.572816 -163.4395 
L 451.437063 -164.138361 
L 452.295223 -164.837223 
L 453.14181 -165.536085 
L 453.972536 -166.234946 
L 454.784329 -166.933808 
L 455.575304 -167.63267 
L 456.344701 -168.331531 
L 457.092778 -169.030393 
L 457.820697 -169.729255 
L 458.530373 -170.428116 
L 459.224322 -171.126978 
L 459.905497 -171.825839 
L 460.577121 -172.524701 
L 461.242531 -173.223563 
L 461.905017 -173.922424 
L 462.567684 -174.621286 
L 463.233316 -175.320148 
L 463.904268 -176.019009 
L 464.582364 -176.717871 
L 465.26883 -177.416733 
L 465.964235 -178.115594 
L 466.668466 -178.814456 
L 467.380723 -179.513318 
L 468.099539 -180.212179 
L 468.822822 -180.911041 
L 469.547921 -181.609903 
L 470.27171 -182.308764 
L 470.990687 -183.007626 
L 471.70109 -183.706488 
L 472.399009 -184.405349 
L 473.080517 -185.104211 
L 473.741785 -185.803072 
L 474.379197 -186.501934 
L 474.989453 -187.200796 
L 475.569654 -187.899657 
L 476.117375 -188.598519 
L 485.333311 -188.598519 
L 485.333311 -188.598519 
L 485.881032 -187.899657 
L 486.461233 -187.200796 
L 487.071489 -186.501934 
L 487.708901 -185.803072 
L 488.370169 -185.104211 
L 489.051677 -184.405349 
L 489.749596 -183.706488 
L 490.459998 -183.007626 
L 491.178976 -182.308764 
L 491.902765 -181.609903 
L 492.627864 -180.911041 
L 493.351147 -180.212179 
L 494.069963 -179.513318 
L 494.78222 -178.814456 
L 495.486451 -178.115594 
L 496.181856 -177.416733 
L 496.868321 -176.717871 
L 497.546418 -176.019009 
L 498.217369 -175.320148 
L 498.883002 -174.621286 
L 499.545668 -173.922424 
L 500.208155 -173.223563 
L 500.873565 -172.524701 
L 501.545189 -171.825839 
L 502.226364 -171.126978 
L 502.920313 -170.428116 
L 503.629989 -169.729255 
L 504.357908 -169.030393 
L 505.105985 -168.331531 
L 505.875381 -167.63267 
L 506.666357 -166.933808 
L 507.47815 -166.234946 
L 508.308876 -165.536085 
L 509.155463 -164.837223 
L 510.013623 -164.138361 
L 510.877869 -163.4395 
L 511.741581 -162.740638 
L 512.59711 -162.041776 
L 513.435947 -161.342915 
L 514.24892 -160.644053 
L 515.026438 -159.945191 
L 515.758761 -159.24633 
L 516.43628 -158.547468 
L 517.049811 -157.848606 
L 517.590863 -157.149745 
L 518.051893 -156.450883 
L 518.426512 -155.752022 
L 518.70964 -155.05316 
L 518.897611 -154.354298 
L 518.9882 -153.655437 
L 518.980603 -152.956575 
L 518.875346 -152.257713 
L 518.67415 -151.558852 
L 518.379756 -150.85999 
L 517.995732 -150.161128 
L 517.526265 -149.462267 
L 516.975966 -148.763405 
L 516.349699 -148.064543 
L 515.652437 -147.365682 
L 514.889172 -146.66682 
L 514.064856 -145.967958 
L 513.184401 -145.269097 
L 512.252703 -144.570235 
L 511.27471 -143.871373 
L 510.255501 -143.172512 
L 509.200368 -142.47365 
L 508.11489 -141.774789 
L 507.00499 -141.075927 
L 505.87695 -140.377065 
L 504.737393 -139.678204 
L 503.593218 -138.979342 
L 502.451497 -138.28048 
L 501.319331 -137.581619 
L 500.203679 -136.882757 
L 499.111172 -136.183895 
L 498.047921 -135.485034 
L 497.019336 -134.786172 
L 496.02997 -134.08731 
L 495.083401 -133.388449 
L 494.182146 -132.689587 
L 493.32764 -131.990725 
L 492.520251 -131.291864 
L 491.759359 -130.593002 
L 491.043463 -129.89414 
L 490.370334 -129.195279 
L 489.737193 -128.496417 
L 489.140891 -127.797556 
L 488.57811 -127.098694 
L 488.045534 -126.399832 
L 487.540013 -125.700971 
L 487.058698 -125.002109 
L 486.599142 -124.303247 
L 486.159362 -123.604386 
L 485.73787 -122.905524 
L 485.333668 -122.206662 
L 484.946216 -121.507801 
L 484.575368 -120.808939 
L 484.2213 -120.110077 
L 483.88442 -119.411216 
z
" id="m59307e2fc7" style="stroke:#414141;stroke-width:2;"/>
    </defs>
    <g clip-path="url(#p3735000348)">
     <use style="fill:#489eaa;stroke:#414141;stroke-width:2;" x="0" xlink:href="#m59307e2fc7" y="391.7373"/>
    </g>
   </g>
   <g id="PolyCollection_6">
    <defs>
     <path d="M 577.75142 -91.871285 
L 575.013551 -91.871285 
L 574.867658 -93.576271 
L 574.72089 -95.281256 
L 574.575195 -96.986241 
L 574.432332 -98.691227 
L 574.293701 -100.396212 
L 574.160176 -102.101197 
L 574.031935 -103.806183 
L 573.908316 -105.511168 
L 573.787683 -107.216153 
L 573.667349 -108.921139 
L 573.543535 -110.626124 
L 573.41138 -112.331109 
L 573.265026 -114.036095 
L 573.097744 -115.74108 
L 572.902139 -117.446065 
L 572.670401 -119.151051 
L 572.394606 -120.856036 
L 572.067052 -122.561021 
L 571.68063 -124.266007 
L 571.229191 -125.970992 
L 570.707913 -127.675977 
L 570.113646 -129.380963 
L 569.445205 -131.085948 
L 568.703617 -132.790933 
L 567.892279 -134.495919 
L 567.017041 -136.200904 
L 566.086185 -137.905889 
L 565.110301 -139.610875 
L 564.102065 -141.31586 
L 563.075905 -143.020845 
L 562.047595 -144.725831 
L 561.033755 -146.430816 
L 560.051314 -148.135801 
L 559.116933 -149.840787 
L 558.246429 -151.545772 
L 557.454232 -153.250757 
L 556.752888 -154.955742 
L 556.152656 -156.660728 
L 555.661199 -158.365713 
L 555.283407 -160.070698 
L 555.021337 -161.775684 
L 554.874299 -163.480669 
L 554.839055 -165.185654 
L 554.910131 -166.89064 
L 555.08022 -168.595625 
L 555.340641 -170.30061 
L 555.681832 -172.005596 
L 556.093841 -173.710581 
L 556.566788 -175.415566 
L 557.091264 -177.120552 
L 557.658657 -178.825537 
L 558.261377 -180.530522 
L 558.892979 -182.235508 
L 559.548181 -183.940493 
L 560.222788 -185.645478 
L 560.913534 -187.350464 
L 561.617854 -189.055449 
L 562.333624 -190.760434 
L 563.058886 -192.46542 
L 563.791577 -194.170405 
L 564.5293 -195.87539 
L 565.269135 -197.580376 
L 566.007534 -199.285361 
L 566.740267 -200.990346 
L 567.462465 -202.695332 
L 568.168721 -204.400317 
L 568.853258 -206.105302 
L 569.510139 -207.810288 
L 570.133519 -209.515273 
L 570.717899 -211.220258 
L 571.258379 -212.925244 
L 571.750891 -214.630229 
L 572.192393 -216.335214 
L 572.581018 -218.0402 
L 572.916165 -219.745185 
L 573.198533 -221.45017 
L 573.4301 -223.155156 
L 573.614038 -224.860141 
L 573.75458 -226.565126 
L 573.856855 -228.270112 
L 573.926669 -229.975097 
L 573.970287 -231.680082 
L 573.994182 -233.385068 
L 574.004803 -235.090053 
L 574.008336 -236.795038 
L 574.010501 -238.500024 
L 574.016364 -240.205009 
L 574.030197 -241.909994 
L 574.055373 -243.61498 
L 574.094309 -245.319965 
L 574.14845 -247.02495 
L 574.218302 -248.729936 
L 574.303501 -250.434921 
L 574.402919 -252.139906 
L 574.514795 -253.844892 
L 574.636883 -255.549877 
L 574.766607 -257.254862 
L 574.901224 -258.959848 
L 575.037964 -260.664833 
L 577.727007 -260.664833 
L 577.727007 -260.664833 
L 577.863747 -258.959848 
L 577.998364 -257.254862 
L 578.128089 -255.549877 
L 578.250176 -253.844892 
L 578.362053 -252.139906 
L 578.461471 -250.434921 
L 578.54667 -248.729936 
L 578.616521 -247.02495 
L 578.670662 -245.319965 
L 578.709598 -243.61498 
L 578.734775 -241.909994 
L 578.748608 -240.205009 
L 578.754471 -238.500024 
L 578.756635 -236.795038 
L 578.760168 -235.090053 
L 578.770789 -233.385068 
L 578.794685 -231.680082 
L 578.838302 -229.975097 
L 578.908117 -228.270112 
L 579.010391 -226.565126 
L 579.150934 -224.860141 
L 579.334871 -223.155156 
L 579.566438 -221.45017 
L 579.848807 -219.745185 
L 580.183953 -218.0402 
L 580.572578 -216.335214 
L 581.014081 -214.630229 
L 581.506593 -212.925244 
L 582.047073 -211.220258 
L 582.631452 -209.515273 
L 583.254833 -207.810288 
L 583.911714 -206.105302 
L 584.59625 -204.400317 
L 585.302507 -202.695332 
L 586.024705 -200.990346 
L 586.757438 -199.285361 
L 587.495836 -197.580376 
L 588.235672 -195.87539 
L 588.973394 -194.170405 
L 589.706086 -192.46542 
L 590.431348 -190.760434 
L 591.147118 -189.055449 
L 591.851437 -187.350464 
L 592.542183 -185.645478 
L 593.216791 -183.940493 
L 593.871993 -182.235508 
L 594.503594 -180.530522 
L 595.106314 -178.825537 
L 595.673707 -177.120552 
L 596.198184 -175.415566 
L 596.67113 -173.710581 
L 597.08314 -172.005596 
L 597.424331 -170.30061 
L 597.684752 -168.595625 
L 597.854841 -166.89064 
L 597.925917 -165.185654 
L 597.890672 -163.480669 
L 597.743634 -161.775684 
L 597.481565 -160.070698 
L 597.103772 -158.365713 
L 596.612316 -156.660728 
L 596.012083 -154.955742 
L 595.31074 -153.250757 
L 594.518542 -151.545772 
L 593.648039 -149.840787 
L 592.713657 -148.135801 
L 591.731216 -146.430816 
L 590.717377 -144.725831 
L 589.689066 -143.020845 
L 588.662907 -141.31586 
L 587.65467 -139.610875 
L 586.678787 -137.905889 
L 585.747931 -136.200904 
L 584.872693 -134.495919 
L 584.061355 -132.790933 
L 583.319766 -131.085948 
L 582.651326 -129.380963 
L 582.057058 -127.675977 
L 581.535781 -125.970992 
L 581.084341 -124.266007 
L 580.697919 -122.561021 
L 580.370366 -120.856036 
L 580.09457 -119.151051 
L 579.862832 -117.446065 
L 579.667228 -115.74108 
L 579.499946 -114.036095 
L 579.353591 -112.331109 
L 579.221437 -110.626124 
L 579.097622 -108.921139 
L 578.977289 -107.216153 
L 578.856656 -105.511168 
L 578.733036 -103.806183 
L 578.604796 -102.101197 
L 578.471271 -100.396212 
L 578.33264 -98.691227 
L 578.189777 -96.986241 
L 578.044082 -95.281256 
L 577.897313 -93.576271 
L 577.75142 -91.871285 
z
" id="m5f8cbbf0b8" style="stroke:#414141;stroke-width:2;"/>
    </defs>
    <g clip-path="url(#p3735000348)">
     <use style="fill:#8fa0e6;stroke:#414141;stroke-width:2;" x="0" xlink:href="#m5f8cbbf0b8" y="391.7373"/>
    </g>
   </g>
   <g id="PolyCollection_7">
    <defs>
     <path d="M 673.197904 -70.258472 
L 670.881353 -70.258472 
L 670.720822 -73.001861 
L 670.544698 -75.745249 
L 670.352212 -78.488637 
L 670.142608 -81.232025 
L 669.915158 -83.975413 
L 669.669173 -86.718801 
L 669.404028 -89.462189 
L 669.119186 -92.205578 
L 668.814237 -94.948966 
L 668.488938 -97.692354 
L 668.143262 -100.435742 
L 667.777452 -103.17913 
L 667.392069 -105.922518 
L 666.988053 -108.665906 
L 666.566768 -111.409295 
L 666.130043 -114.152683 
L 665.680204 -116.896071 
L 665.220092 -119.639459 
L 664.753058 -122.382847 
L 664.282945 -125.126235 
L 663.814047 -127.869623 
L 663.35105 -130.613012 
L 662.898947 -133.3564 
L 662.462939 -136.099788 
L 662.048328 -138.843176 
L 661.660384 -141.586564 
L 661.304223 -144.329952 
L 660.984671 -147.073341 
L 660.706136 -149.816729 
L 660.472494 -152.560117 
L 660.28698 -155.303505 
L 660.152102 -158.046893 
L 660.069574 -160.790281 
L 660.040269 -163.533669 
L 660.064197 -166.277058 
L 660.140506 -169.020446 
L 660.267506 -171.763834 
L 660.442712 -174.507222 
L 660.66291 -177.25061 
L 660.924235 -179.993998 
L 661.222266 -182.737386 
L 661.552128 -185.480775 
L 661.908613 -188.224163 
L 662.28629 -190.967551 
L 662.679633 -193.710939 
L 663.083144 -196.454327 
L 663.491465 -199.197715 
L 663.899502 -201.941103 
L 664.302525 -204.684492 
L 664.696263 -207.42788 
L 665.076988 -210.171268 
L 665.44158 -212.914656 
L 665.787569 -215.658044 
L 666.113166 -218.401432 
L 666.41726 -221.14482 
L 666.699403 -223.888209 
L 666.959763 -226.631597 
L 667.199067 -229.374985 
L 667.418517 -232.118373 
L 667.619693 -234.861761 
L 667.804448 -237.605149 
L 667.974802 -240.348538 
L 668.132822 -243.091926 
L 668.280529 -245.835314 
L 668.419797 -248.578702 
L 668.552281 -251.32209 
L 668.679357 -254.065478 
L 668.802089 -256.808866 
L 668.921217 -259.552255 
L 669.037164 -262.295643 
L 669.150069 -265.039031 
L 669.259834 -267.782419 
L 669.366184 -270.525807 
L 669.468733 -273.269195 
L 669.567059 -276.012583 
L 669.660768 -278.755972 
L 669.749557 -281.49936 
L 669.833262 -284.242748 
L 669.911895 -286.986136 
L 669.985658 -289.729524 
L 670.054951 -292.472912 
L 670.120352 -295.2163 
L 670.182591 -297.959689 
L 670.24251 -300.703077 
L 670.301014 -303.446465 
L 670.359019 -306.189853 
L 670.417398 -308.933241 
L 670.476933 -311.676629 
L 670.538273 -314.420017 
L 670.601897 -317.163406 
L 670.668098 -319.906794 
L 670.736964 -322.650182 
L 670.808388 -325.39357 
L 670.882074 -328.136958 
L 670.957563 -330.880346 
L 671.034259 -333.623735 
L 671.111471 -336.367123 
L 671.188442 -339.110511 
L 671.264395 -341.853899 
L 672.814862 -341.853899 
L 672.814862 -341.853899 
L 672.890815 -339.110511 
L 672.967786 -336.367123 
L 673.044998 -333.623735 
L 673.121695 -330.880346 
L 673.197183 -328.136958 
L 673.270869 -325.39357 
L 673.342293 -322.650182 
L 673.411159 -319.906794 
L 673.47736 -317.163406 
L 673.540985 -314.420017 
L 673.602324 -311.676629 
L 673.661859 -308.933241 
L 673.720238 -306.189853 
L 673.778243 -303.446465 
L 673.836747 -300.703077 
L 673.896666 -297.959689 
L 673.958905 -295.2163 
L 674.024306 -292.472912 
L 674.093599 -289.729524 
L 674.167362 -286.986136 
L 674.245995 -284.242748 
L 674.3297 -281.49936 
L 674.418489 -278.755972 
L 674.512198 -276.012583 
L 674.610524 -273.269195 
L 674.713073 -270.525807 
L 674.819423 -267.782419 
L 674.929188 -265.039031 
L 675.042093 -262.295643 
L 675.15804 -259.552255 
L 675.277168 -256.808866 
L 675.3999 -254.065478 
L 675.526976 -251.32209 
L 675.65946 -248.578702 
L 675.798728 -245.835314 
L 675.946435 -243.091926 
L 676.104455 -240.348538 
L 676.274809 -237.605149 
L 676.459564 -234.861761 
L 676.66074 -232.118373 
L 676.88019 -229.374985 
L 677.119494 -226.631597 
L 677.379855 -223.888209 
L 677.661997 -221.14482 
L 677.966091 -218.401432 
L 678.291688 -215.658044 
L 678.637677 -212.914656 
L 679.002269 -210.171268 
L 679.382995 -207.42788 
L 679.776732 -204.684492 
L 680.179755 -201.941103 
L 680.587792 -199.197715 
L 680.996114 -196.454327 
L 681.399624 -193.710939 
L 681.792968 -190.967551 
L 682.170645 -188.224163 
L 682.527129 -185.480775 
L 682.856992 -182.737386 
L 683.155022 -179.993998 
L 683.416347 -177.25061 
L 683.636545 -174.507222 
L 683.811751 -171.763834 
L 683.938751 -169.020446 
L 684.01506 -166.277058 
L 684.038988 -163.533669 
L 684.009683 -160.790281 
L 683.927155 -158.046893 
L 683.792278 -155.303505 
L 683.606764 -152.560117 
L 683.373121 -149.816729 
L 683.094586 -147.073341 
L 682.775034 -144.329952 
L 682.418873 -141.586564 
L 682.030929 -138.843176 
L 681.616318 -136.099788 
L 681.180311 -133.3564 
L 680.728207 -130.613012 
L 680.26521 -127.869623 
L 679.796312 -125.126235 
L 679.326199 -122.382847 
L 678.859165 -119.639459 
L 678.399053 -116.896071 
L 677.949214 -114.152683 
L 677.512489 -111.409295 
L 677.091204 -108.665906 
L 676.687188 -105.922518 
L 676.301806 -103.17913 
L 675.935995 -100.435742 
L 675.590319 -97.692354 
L 675.265021 -94.948966 
L 674.960071 -92.205578 
L 674.675229 -89.462189 
L 674.410084 -86.718801 
L 674.164099 -83.975413 
L 673.936649 -81.232025 
L 673.727045 -78.488637 
L 673.534559 -75.745249 
L 673.358435 -73.001861 
L 673.197904 -70.258472 
z
" id="m01778d061e" style="stroke:#414141;stroke-width:2;"/>
    </defs>
    <g clip-path="url(#p3735000348)">
     <use style="fill:#e270db;stroke:#414141;stroke-width:2;" x="0" xlink:href="#m01778d061e" y="391.7373"/>
    </g>
   </g>
   <g id="line2d_1">
    <path clip-path="url(#p3735000348)" d="M 50.2682 240.358849 
L 719.8682 240.358849 
" style="fill:none;stroke:#404040;stroke-dasharray:5.55,2.4;stroke-dashoffset:0;stroke-width:1.5;"/>
   </g>
   <g id="line2d_2">
    <path clip-path="url(#p3735000348)" d="M 98.096771 330.52884 
L 98.096771 202.004896 
" style="fill:none;stroke:#414141;stroke-linecap:round;stroke-width:2;"/>
   </g>
   <g id="line2d_3">
    <path clip-path="url(#p3735000348)" d="M 98.096771 273.388598 
L 98.096771 233.437091 
" style="fill:none;stroke:#414141;stroke-linecap:round;stroke-width:6;"/>
   </g>
   <g id="line2d_4">
    <path clip-path="url(#p3735000348)" d="M 193.753914 306.267833 
L 193.753914 202.583598 
" style="fill:none;stroke:#414141;stroke-linecap:round;stroke-width:2;"/>
   </g>
   <g id="line2d_5">
    <path clip-path="url(#p3735000348)" d="M 193.753914 262.378944 
L 193.753914 225.855364 
" style="fill:none;stroke:#414141;stroke-linecap:round;stroke-width:6;"/>
   </g>
   <g id="line2d_6">
    <path clip-path="url(#p3735000348)" d="M 289.411057 260.920551 
L 289.411057 151.797387 
" style="fill:none;stroke:#414141;stroke-linecap:round;stroke-width:2;"/>
   </g>
   <g id="line2d_7">
    <path clip-path="url(#p3735000348)" d="M 289.411057 250.341687 
L 289.411057 208.476582 
" style="fill:none;stroke:#414141;stroke-linecap:round;stroke-width:6;"/>
   </g>
   <g id="line2d_8">
    <path clip-path="url(#p3735000348)" d="M 385.0682 271.922354 
L 385.0682 199.646346 
" style="fill:none;stroke:#414141;stroke-linecap:round;stroke-width:2;"/>
   </g>
   <g id="line2d_9">
    <path clip-path="url(#p3735000348)" d="M 385.0682 245.384826 
L 385.0682 220.679384 
" style="fill:none;stroke:#414141;stroke-linecap:round;stroke-width:6;"/>
   </g>
   <g id="line2d_10">
    <path clip-path="url(#p3735000348)" d="M 480.725343 264.286867 
L 480.725343 211.177998 
" style="fill:none;stroke:#414141;stroke-linecap:round;stroke-width:2;"/>
   </g>
   <g id="line2d_11">
    <path clip-path="url(#p3735000348)" d="M 480.725343 247.241564 
L 480.725343 227.680238 
" style="fill:none;stroke:#414141;stroke-linecap:round;stroke-width:6;"/>
   </g>
   <g id="line2d_12">
    <path clip-path="url(#p3735000348)" d="M 576.382486 247.937028 
L 576.382486 194.511671 
" style="fill:none;stroke:#414141;stroke-linecap:round;stroke-width:2;"/>
   </g>
   <g id="line2d_13">
    <path clip-path="url(#p3735000348)" d="M 576.382486 235.831681 
L 576.382486 208.692074 
" style="fill:none;stroke:#414141;stroke-linecap:round;stroke-width:6;"/>
   </g>
   <g id="line2d_14">
    <path clip-path="url(#p3735000348)" d="M 672.039629 291.192621 
L 672.039629 137.083715 
" style="fill:none;stroke:#414141;stroke-linecap:round;stroke-width:2;"/>
   </g>
   <g id="line2d_15">
    <path clip-path="url(#p3735000348)" d="M 672.039629 238.121828 
L 672.039629 191.096144 
" style="fill:none;stroke:#414141;stroke-linecap:round;stroke-width:6;"/>
   </g>
   <g id="patch_3">
    <path d="M 50.2682 367.986675 
L 50.2682 41.826675 
" style="fill:none;stroke:#262626;stroke-linecap:square;stroke-linejoin:miter;stroke-width:1.25;"/>
   </g>
   <g id="patch_4">
    <path d="M 719.8682 367.986675 
L 719.8682 41.826675 
" style="fill:none;stroke:#262626;stroke-linecap:square;stroke-linejoin:miter;stroke-width:1.25;"/>
   </g>
   <g id="patch_5">
    <path d="M 50.2682 367.986675 
L 719.8682 367.986675 
" style="fill:none;stroke:#262626;stroke-linecap:square;stroke-linejoin:miter;stroke-width:1.25;"/>
   </g>
   <g id="patch_6">
    <path d="M 50.2682 41.826675 
L 719.8682 41.826675 
" style="fill:none;stroke:#262626;stroke-linecap:square;stroke-linejoin:miter;stroke-width:1.25;"/>
   </g>
   <g id="PathCollection_1">
    <defs>
     <path d="M 0 2 
C 0.530406 2 1.03916 1.789267 1.414214 1.414214 
C 1.789267 1.03916 2 0.530406 2 0 
C 2 -0.530406 1.789267 -1.03916 1.414214 -1.414214 
C 1.03916 -1.789267 0.530406 -2 0 -2 
C -0.530406 -2 -1.03916 -1.789267 -1.414214 -1.414214 
C -1.789267 -1.03916 -2 -0.530406 -2 0 
C -2 0.530406 -1.789267 1.03916 -1.414214 1.414214 
C -1.03916 1.789267 -0.530406 2 0 2 
z
" id="m47dad4f26b" style="stroke:#414141;"/>
    </defs>
    <g clip-path="url(#p3735000348)">
     <use style="fill:#ffffff;stroke:#414141;" x="98.096771" xlink:href="#m47dad4f26b" y="247.178755"/>
    </g>
   </g>
   <g id="PathCollection_2">
    <g clip-path="url(#p3735000348)">
     <use style="fill:#ffffff;stroke:#414141;" x="193.753914" xlink:href="#m47dad4f26b" y="230.933812"/>
    </g>
   </g>
   <g id="PathCollection_3">
    <g clip-path="url(#p3735000348)">
     <use style="fill:#ffffff;stroke:#414141;" x="289.411057" xlink:href="#m47dad4f26b" y="231.051148"/>
    </g>
   </g>
   <g id="PathCollection_4">
    <g clip-path="url(#p3735000348)">
     <use style="fill:#ffffff;stroke:#414141;" x="385.0682" xlink:href="#m47dad4f26b" y="231.263498"/>
    </g>
   </g>
   <g id="PathCollection_5">
    <g clip-path="url(#p3735000348)">
     <use style="fill:#ffffff;stroke:#414141;" x="480.725343" xlink:href="#m47dad4f26b" y="237.702326"/>
    </g>
   </g>
   <g id="PathCollection_6">
    <g clip-path="url(#p3735000348)">
     <use style="fill:#ffffff;stroke:#414141;" x="576.382486" xlink:href="#m47dad4f26b" y="226.980894"/>
    </g>
   </g>
   <g id="PathCollection_7">
    <g clip-path="url(#p3735000348)">
     <use style="fill:#ffffff;stroke:#414141;" x="672.039629" xlink:href="#m47dad4f26b" y="222.021812"/>
    </g>
   </g>
   <g id="text_15">
    <!-- Accidents after the start of DST in California (20012016) -->
    <defs>
     <path d="M 38.671875 62.203125 
Q 32.8125 62.203125 28.296875 60.25 
Q 23.78125 58.296875 20.71875 54.6875 
Q 17.671875 51.078125 16.109375 46 
Q 14.546875 40.921875 14.546875 34.71875 
Q 14.546875 28.515625 16.234375 23.359375 
Q 17.921875 18.21875 21.0625 14.5 
Q 24.21875 10.796875 28.78125 8.734375 
Q 33.34375 6.6875 39.0625 6.6875 
Q 43.0625 6.6875 46.359375 7.734375 
Q 49.65625 8.796875 52.3125 10.6875 
Q 54.984375 12.59375 57.078125 15.203125 
Q 59.1875 17.828125 60.796875 21 
L 68.40625 17.1875 
Q 66.546875 13.328125 63.8125 10 
Q 61.078125 6.6875 57.390625 4.25 
Q 53.71875 1.8125 49.046875 0.40625 
Q 44.390625 -0.984375 38.625 -0.984375 
Q 30.28125 -0.984375 24 1.671875 
Q 17.71875 4.34375 13.5 9.109375 
Q 9.28125 13.875 7.171875 20.40625 
Q 5.078125 26.953125 5.078125 34.71875 
Q 5.078125 42.78125 7.296875 49.265625 
Q 9.515625 55.765625 13.78125 60.328125 
Q 18.0625 64.890625 24.3125 67.359375 
Q 30.5625 69.828125 38.578125 69.828125 
Q 49.5625 69.828125 56.9375 65.53125 
Q 64.3125 61.234375 67.78125 52.78125 
L 58.9375 49.859375 
Q 57.953125 52.296875 56.296875 54.515625 
Q 54.640625 56.734375 52.140625 58.4375 
Q 49.65625 60.15625 46.3125 61.171875 
Q 42.96875 62.203125 38.671875 62.203125 
z
" id="LiberationSans-43"/>
     <path d="M 6.734375 0 
L 6.734375 72.46875 
L 15.53125 72.46875 
L 15.53125 0 
z
" id="LiberationSans-6c"/>
     <path d="M 0 22.015625 
L 0 28.71875 
L 55.5625 28.71875 
L 55.5625 22.015625 
z
" id="LiberationSans-2013"/>
    </defs>
    <g style="fill:#262626;" transform="translate(54.8682 26.041875)scale(0.26 -0.26)">
     <use xlink:href="#LiberationSans-41"/>
     <use x="66.699219" xlink:href="#LiberationSans-63"/>
     <use x="116.699219" xlink:href="#LiberationSans-63"/>
     <use x="166.699219" xlink:href="#LiberationSans-69"/>
     <use x="188.916016" xlink:href="#LiberationSans-64"/>
     <use x="244.53125" xlink:href="#LiberationSans-65"/>
     <use x="300.146484" xlink:href="#LiberationSans-6e"/>
     <use x="355.761719" xlink:href="#LiberationSans-74"/>
     <use x="383.544922" xlink:href="#LiberationSans-73"/>
     <use x="433.544922" xlink:href="#LiberationSans-20"/>
     <use x="461.328125" xlink:href="#LiberationSans-61"/>
     <use x="516.943359" xlink:href="#LiberationSans-66"/>
     <use x="544.726562" xlink:href="#LiberationSans-74"/>
     <use x="572.509766" xlink:href="#LiberationSans-65"/>
     <use x="628.125" xlink:href="#LiberationSans-72"/>
     <use x="661.425781" xlink:href="#LiberationSans-20"/>
     <use x="689.208984" xlink:href="#LiberationSans-74"/>
     <use x="716.992188" xlink:href="#LiberationSans-68"/>
     <use x="772.607422" xlink:href="#LiberationSans-65"/>
     <use x="828.222656" xlink:href="#LiberationSans-20"/>
     <use x="856.005859" xlink:href="#LiberationSans-73"/>
     <use x="906.005859" xlink:href="#LiberationSans-74"/>
     <use x="933.789062" xlink:href="#LiberationSans-61"/>
     <use x="989.404297" xlink:href="#LiberationSans-72"/>
     <use x="1022.705078" xlink:href="#LiberationSans-74"/>
     <use x="1050.488281" xlink:href="#LiberationSans-20"/>
     <use x="1078.271484" xlink:href="#LiberationSans-6f"/>
     <use x="1133.886719" xlink:href="#LiberationSans-66"/>
     <use x="1161.669922" xlink:href="#LiberationSans-20"/>
     <use x="1189.453125" xlink:href="#LiberationSans-44"/>
     <use x="1261.669922" xlink:href="#LiberationSans-53"/>
     <use x="1328.369141" xlink:href="#LiberationSans-54"/>
     <use x="1389.4375" xlink:href="#LiberationSans-20"/>
     <use x="1417.220703" xlink:href="#LiberationSans-69"/>
     <use x="1439.4375" xlink:href="#LiberationSans-6e"/>
     <use x="1495.052734" xlink:href="#LiberationSans-20"/>
     <use x="1522.835938" xlink:href="#LiberationSans-43"/>
     <use x="1595.052734" xlink:href="#LiberationSans-61"/>
     <use x="1650.667969" xlink:href="#LiberationSans-6c"/>
     <use x="1672.884766" xlink:href="#LiberationSans-69"/>
     <use x="1695.101562" xlink:href="#LiberationSans-66"/>
     <use x="1722.884766" xlink:href="#LiberationSans-6f"/>
     <use x="1778.5" xlink:href="#LiberationSans-72"/>
     <use x="1811.800781" xlink:href="#LiberationSans-6e"/>
     <use x="1867.416016" xlink:href="#LiberationSans-69"/>
     <use x="1889.632812" xlink:href="#LiberationSans-61"/>
     <use x="1945.248047" xlink:href="#LiberationSans-20"/>
     <use x="1973.03125" xlink:href="#LiberationSans-28"/>
     <use x="2006.332031" xlink:href="#LiberationSans-32"/>
     <use x="2061.947266" xlink:href="#LiberationSans-30"/>
     <use x="2117.5625" xlink:href="#LiberationSans-30"/>
     <use x="2173.177734" xlink:href="#LiberationSans-31"/>
     <use x="2228.792969" xlink:href="#LiberationSans-2013"/>
     <use x="2284.408203" xlink:href="#LiberationSans-32"/>
     <use x="2340.023438" xlink:href="#LiberationSans-30"/>
     <use x="2395.638672" xlink:href="#LiberationSans-31"/>
     <use x="2451.253906" xlink:href="#LiberationSans-36"/>
     <use x="2506.869141" xlink:href="#LiberationSans-29"/>
    </g>
   </g>
  </g>
 </g>
 <defs>
  <clipPath id="p3735000348">
   <rect height="326.16" width="669.6" x="50.2682" y="41.826675"/>
  </clipPath>
 </defs>
</svg>
