<?xml version="1.0" encoding="utf-8" standalone="no"?>
<!DOCTYPE svg PUBLIC "-//W3C//DTD SVG 1.1//EN"
  "http://www.w3.org/Graphics/SVG/1.1/DTD/svg11.dtd">
<!-- Created with matplotlib (http://matplotlib.org/) -->
<svg height="391.910113pt" version="1.1" viewBox="0 0 726.7631 391.910113" width="726.7631pt" xmlns="http://www.w3.org/2000/svg" xmlns:xlink="http://www.w3.org/1999/xlink">
 <defs>
  <style type="text/css">
*{stroke-linecap:butt;stroke-linejoin:round;}
  </style>
 </defs>
 <g id="figure_1">
  <g id="patch_1">
   <path d="M 0 391.910113 
L 726.7631 391.910113 
L 726.7631 0 
L 0 0 
z
" style="fill:#ffffff;"/>
  </g>
  <g id="axes_1">
   <g id="patch_2">
    <path d="M 49.9631 368.071988 
L 719.5631 368.071988 
L 719.5631 41.911988 
L 49.9631 41.911988 
z
" style="fill:#ffffff;"/>
   </g>
   <g id="matplotlib.axis_1">
    <g id="xtick_1">
     <g id="text_1">
      <!-- Sunday (DST) -->
      <defs>
       <path d="M 4.5 23 
L 13.421875 23.78125 
Q 14.0625 18.40625 16.375 14.96875 
Q 18.703125 11.53125 23.578125 9.40625 
Q 28.46875 7.28125 34.578125 7.28125 
Q 39.984375 7.28125 44.140625 8.890625 
Q 48.296875 10.5 50.3125 13.296875 
Q 52.34375 16.109375 52.34375 19.4375 
Q 52.34375 22.796875 50.390625 25.3125 
Q 48.4375 27.828125 43.953125 29.546875 
Q 41.0625 30.671875 31.203125 33.03125 
Q 21.34375 35.40625 17.390625 37.5 
Q 12.25 40.1875 9.734375 44.15625 
Q 7.234375 48.140625 7.234375 53.078125 
Q 7.234375 58.5 10.296875 63.203125 
Q 13.375 67.921875 19.28125 70.359375 
Q 25.203125 72.796875 32.421875 72.796875 
Q 40.375 72.796875 46.453125 70.234375 
Q 52.546875 67.671875 55.8125 62.6875 
Q 59.078125 57.71875 59.328125 51.421875 
L 50.25 50.734375 
Q 49.515625 57.515625 45.28125 60.984375 
Q 41.0625 64.453125 32.8125 64.453125 
Q 24.21875 64.453125 20.28125 61.296875 
Q 16.359375 58.15625 16.359375 53.71875 
Q 16.359375 49.859375 19.140625 47.359375 
Q 21.875 44.875 33.421875 42.265625 
Q 44.96875 39.65625 49.265625 37.703125 
Q 55.515625 34.8125 58.484375 30.390625 
Q 61.46875 25.984375 61.46875 20.21875 
Q 61.46875 14.5 58.203125 9.4375 
Q 54.9375 4.390625 48.796875 1.578125 
Q 42.671875 -1.21875 35.015625 -1.21875 
Q 25.296875 -1.21875 18.71875 1.609375 
Q 12.15625 4.4375 8.421875 10.125 
Q 4.6875 15.828125 4.5 23 
z
" id="ArialMT-53"/>
       <path d="M 40.578125 0 
L 40.578125 7.625 
Q 34.515625 -1.171875 24.125 -1.171875 
Q 19.53125 -1.171875 15.546875 0.578125 
Q 11.578125 2.34375 9.640625 5 
Q 7.71875 7.671875 6.9375 11.53125 
Q 6.390625 14.109375 6.390625 19.734375 
L 6.390625 51.859375 
L 15.1875 51.859375 
L 15.1875 23.09375 
Q 15.1875 16.21875 15.71875 13.8125 
Q 16.546875 10.359375 19.234375 8.375 
Q 21.921875 6.390625 25.875 6.390625 
Q 29.828125 6.390625 33.296875 8.421875 
Q 36.765625 10.453125 38.203125 13.9375 
Q 39.65625 17.4375 39.65625 24.078125 
L 39.65625 51.859375 
L 48.4375 51.859375 
L 48.4375 0 
z
" id="ArialMT-75"/>
       <path d="M 6.59375 0 
L 6.59375 51.859375 
L 14.5 51.859375 
L 14.5 44.484375 
Q 20.21875 53.03125 31 53.03125 
Q 35.6875 53.03125 39.625 51.34375 
Q 43.5625 49.65625 45.515625 46.921875 
Q 47.46875 44.1875 48.25 40.4375 
Q 48.734375 37.984375 48.734375 31.890625 
L 48.734375 0 
L 39.9375 0 
L 39.9375 31.546875 
Q 39.9375 36.921875 38.90625 39.578125 
Q 37.890625 42.234375 35.28125 43.8125 
Q 32.671875 45.40625 29.15625 45.40625 
Q 23.53125 45.40625 19.453125 41.84375 
Q 15.375 38.28125 15.375 28.328125 
L 15.375 0 
z
" id="ArialMT-6e"/>
       <path d="M 40.234375 0 
L 40.234375 6.546875 
Q 35.296875 -1.171875 25.734375 -1.171875 
Q 19.53125 -1.171875 14.328125 2.25 
Q 9.125 5.671875 6.265625 11.796875 
Q 3.421875 17.921875 3.421875 25.875 
Q 3.421875 33.640625 6 39.96875 
Q 8.59375 46.296875 13.765625 49.65625 
Q 18.953125 53.03125 25.34375 53.03125 
Q 30.03125 53.03125 33.6875 51.046875 
Q 37.359375 49.078125 39.65625 45.90625 
L 39.65625 71.578125 
L 48.390625 71.578125 
L 48.390625 0 
z
M 12.453125 25.875 
Q 12.453125 15.921875 16.640625 10.984375 
Q 20.84375 6.0625 26.5625 6.0625 
Q 32.328125 6.0625 36.34375 10.765625 
Q 40.375 15.484375 40.375 25.140625 
Q 40.375 35.796875 36.265625 40.765625 
Q 32.171875 45.75 26.171875 45.75 
Q 20.3125 45.75 16.375 40.96875 
Q 12.453125 36.1875 12.453125 25.875 
z
" id="ArialMT-64"/>
       <path d="M 40.4375 6.390625 
Q 35.546875 2.25 31.03125 0.53125 
Q 26.515625 -1.171875 21.34375 -1.171875 
Q 12.796875 -1.171875 8.203125 3 
Q 3.609375 7.171875 3.609375 13.671875 
Q 3.609375 17.484375 5.34375 20.625 
Q 7.078125 23.78125 9.890625 25.6875 
Q 12.703125 27.59375 16.21875 28.5625 
Q 18.796875 29.25 24.03125 29.890625 
Q 34.671875 31.15625 39.703125 32.90625 
Q 39.75 34.71875 39.75 35.203125 
Q 39.75 40.578125 37.25 42.78125 
Q 33.890625 45.75 27.25 45.75 
Q 21.046875 45.75 18.09375 43.578125 
Q 15.140625 41.40625 13.71875 35.890625 
L 5.125 37.0625 
Q 6.296875 42.578125 8.984375 45.96875 
Q 11.671875 49.359375 16.75 51.1875 
Q 21.828125 53.03125 28.515625 53.03125 
Q 35.15625 53.03125 39.296875 51.46875 
Q 43.453125 49.90625 45.40625 47.53125 
Q 47.359375 45.171875 48.140625 41.546875 
Q 48.578125 39.3125 48.578125 33.453125 
L 48.578125 21.734375 
Q 48.578125 9.46875 49.140625 6.21875 
Q 49.703125 2.984375 51.375 0 
L 42.1875 0 
Q 40.828125 2.734375 40.4375 6.390625 
z
M 39.703125 26.03125 
Q 34.90625 24.078125 25.34375 22.703125 
Q 19.921875 21.921875 17.671875 20.9375 
Q 15.4375 19.96875 14.203125 18.09375 
Q 12.984375 16.21875 12.984375 13.921875 
Q 12.984375 10.40625 15.640625 8.0625 
Q 18.3125 5.71875 23.4375 5.71875 
Q 28.515625 5.71875 32.46875 7.9375 
Q 36.421875 10.15625 38.28125 14.015625 
Q 39.703125 17 39.703125 22.796875 
z
" id="ArialMT-61"/>
       <path d="M 6.203125 -19.96875 
L 5.21875 -11.71875 
Q 8.109375 -12.5 10.25 -12.5 
Q 13.1875 -12.5 14.9375 -11.515625 
Q 16.703125 -10.546875 17.828125 -8.796875 
Q 18.65625 -7.46875 20.515625 -2.25 
Q 20.75 -1.515625 21.296875 -0.09375 
L 1.609375 51.859375 
L 11.078125 51.859375 
L 21.875 21.828125 
Q 23.96875 16.109375 25.640625 9.8125 
Q 27.15625 15.875 29.25 21.625 
L 40.328125 51.859375 
L 49.125 51.859375 
L 29.390625 -0.875 
Q 26.21875 -9.421875 24.46875 -12.640625 
Q 22.125 -17 19.09375 -19.015625 
Q 16.0625 -21.046875 11.859375 -21.046875 
Q 9.328125 -21.046875 6.203125 -19.96875 
z
" id="ArialMT-79"/>
       <path id="ArialMT-20"/>
       <path d="M 23.390625 -21.046875 
Q 16.109375 -11.859375 11.078125 0.4375 
Q 6.0625 12.75 6.0625 25.921875 
Q 6.0625 37.546875 9.8125 48.1875 
Q 14.203125 60.546875 23.390625 72.796875 
L 29.6875 72.796875 
Q 23.78125 62.640625 21.875 58.296875 
Q 18.890625 51.5625 17.1875 44.234375 
Q 15.09375 35.109375 15.09375 25.875 
Q 15.09375 2.390625 29.6875 -21.046875 
z
" id="ArialMT-28"/>
       <path d="M 7.71875 0 
L 7.71875 71.578125 
L 32.375 71.578125 
Q 40.71875 71.578125 45.125 70.5625 
Q 51.265625 69.140625 55.609375 65.4375 
Q 61.28125 60.640625 64.078125 53.1875 
Q 66.890625 45.75 66.890625 36.1875 
Q 66.890625 28.03125 64.984375 21.734375 
Q 63.09375 15.4375 60.109375 11.296875 
Q 57.125 7.171875 53.578125 4.796875 
Q 50.046875 2.4375 45.046875 1.21875 
Q 40.046875 0 33.546875 0 
z
M 17.1875 8.453125 
L 32.46875 8.453125 
Q 39.546875 8.453125 43.578125 9.765625 
Q 47.609375 11.078125 50 13.484375 
Q 53.375 16.84375 55.25 22.53125 
Q 57.125 28.21875 57.125 36.328125 
Q 57.125 47.5625 53.4375 53.59375 
Q 49.75 59.625 44.484375 61.671875 
Q 40.671875 63.140625 32.234375 63.140625 
L 17.1875 63.140625 
z
" id="ArialMT-44"/>
       <path d="M 25.921875 0 
L 25.921875 63.140625 
L 2.34375 63.140625 
L 2.34375 71.578125 
L 59.078125 71.578125 
L 59.078125 63.140625 
L 35.40625 63.140625 
L 35.40625 0 
z
" id="ArialMT-54"/>
       <path d="M 12.359375 -21.046875 
L 6.0625 -21.046875 
Q 20.65625 2.390625 20.65625 25.875 
Q 20.65625 35.0625 18.5625 44.09375 
Q 16.890625 51.421875 13.921875 58.15625 
Q 12.015625 62.546875 6.0625 72.796875 
L 12.359375 72.796875 
Q 21.53125 60.546875 25.921875 48.1875 
Q 29.6875 37.546875 29.6875 25.921875 
Q 29.6875 12.75 24.625 0.4375 
Q 19.578125 -11.859375 12.359375 -21.046875 
z
" id="ArialMT-29"/>
      </defs>
      <g style="fill:#262626;" transform="translate(53.445578 381.76355)scale(0.14 -0.14)">
       <use xlink:href="#ArialMT-53"/>
       <use x="66.699219" xlink:href="#ArialMT-75"/>
       <use x="122.314453" xlink:href="#ArialMT-6e"/>
       <use x="177.929688" xlink:href="#ArialMT-64"/>
       <use x="233.544922" xlink:href="#ArialMT-61"/>
       <use x="289.160156" xlink:href="#ArialMT-79"/>
       <use x="339.160156" xlink:href="#ArialMT-20"/>
       <use x="366.943359" xlink:href="#ArialMT-28"/>
       <use x="400.244141" xlink:href="#ArialMT-44"/>
       <use x="472.460938" xlink:href="#ArialMT-53"/>
       <use x="539.160156" xlink:href="#ArialMT-54"/>
       <use x="600.244141" xlink:href="#ArialMT-29"/>
      </g>
     </g>
    </g>
    <g id="xtick_2">
     <g id="text_2">
      <!-- Monday -->
      <defs>
       <path d="M 7.421875 0 
L 7.421875 71.578125 
L 21.6875 71.578125 
L 38.625 20.90625 
Q 40.96875 13.8125 42.046875 10.296875 
Q 43.265625 14.203125 45.84375 21.78125 
L 62.984375 71.578125 
L 75.734375 71.578125 
L 75.734375 0 
L 66.609375 0 
L 66.609375 59.90625 
L 45.796875 0 
L 37.25 0 
L 16.546875 60.9375 
L 16.546875 0 
z
" id="ArialMT-4d"/>
       <path d="M 3.328125 25.921875 
Q 3.328125 40.328125 11.328125 47.265625 
Q 18.015625 53.03125 27.640625 53.03125 
Q 38.328125 53.03125 45.109375 46.015625 
Q 51.90625 39.015625 51.90625 26.65625 
Q 51.90625 16.65625 48.90625 10.90625 
Q 45.90625 5.171875 40.15625 2 
Q 34.421875 -1.171875 27.640625 -1.171875 
Q 16.75 -1.171875 10.03125 5.8125 
Q 3.328125 12.796875 3.328125 25.921875 
z
M 12.359375 25.921875 
Q 12.359375 15.96875 16.703125 11.015625 
Q 21.046875 6.0625 27.640625 6.0625 
Q 34.1875 6.0625 38.53125 11.03125 
Q 42.875 16.015625 42.875 26.21875 
Q 42.875 35.84375 38.5 40.796875 
Q 34.125 45.75 27.640625 45.75 
Q 21.046875 45.75 16.703125 40.8125 
Q 12.359375 35.890625 12.359375 25.921875 
z
" id="ArialMT-6f"/>
      </defs>
      <g style="fill:#262626;" transform="translate(168.547408 381.592925)scale(0.14 -0.14)">
       <use xlink:href="#ArialMT-4d"/>
       <use x="83.300781" xlink:href="#ArialMT-6f"/>
       <use x="138.916016" xlink:href="#ArialMT-6e"/>
       <use x="194.53125" xlink:href="#ArialMT-64"/>
       <use x="250.146484" xlink:href="#ArialMT-61"/>
       <use x="305.761719" xlink:href="#ArialMT-79"/>
      </g>
     </g>
    </g>
    <g id="xtick_3">
     <g id="text_3">
      <!-- Tuesday -->
      <defs>
       <path d="M 42.09375 16.703125 
L 51.171875 15.578125 
Q 49.03125 7.625 43.21875 3.21875 
Q 37.40625 -1.171875 28.375 -1.171875 
Q 17 -1.171875 10.328125 5.828125 
Q 3.65625 12.84375 3.65625 25.484375 
Q 3.65625 38.578125 10.390625 45.796875 
Q 17.140625 53.03125 27.875 53.03125 
Q 38.28125 53.03125 44.875 45.953125 
Q 51.46875 38.875 51.46875 26.03125 
Q 51.46875 25.25 51.421875 23.6875 
L 12.75 23.6875 
Q 13.234375 15.140625 17.578125 10.59375 
Q 21.921875 6.0625 28.421875 6.0625 
Q 33.25 6.0625 36.671875 8.59375 
Q 40.09375 11.140625 42.09375 16.703125 
z
M 13.234375 30.90625 
L 42.1875 30.90625 
Q 41.609375 37.453125 38.875 40.71875 
Q 34.671875 45.796875 27.984375 45.796875 
Q 21.921875 45.796875 17.796875 41.75 
Q 13.671875 37.703125 13.234375 30.90625 
z
" id="ArialMT-65"/>
       <path d="M 3.078125 15.484375 
L 11.765625 16.84375 
Q 12.5 11.625 15.84375 8.84375 
Q 19.1875 6.0625 25.203125 6.0625 
Q 31.25 6.0625 34.171875 8.515625 
Q 37.109375 10.984375 37.109375 14.3125 
Q 37.109375 17.28125 34.515625 19 
Q 32.71875 20.171875 25.53125 21.96875 
Q 15.875 24.421875 12.140625 26.203125 
Q 8.40625 27.984375 6.46875 31.125 
Q 4.546875 34.28125 4.546875 38.09375 
Q 4.546875 41.546875 6.125 44.5 
Q 7.71875 47.46875 10.453125 49.421875 
Q 12.5 50.921875 16.03125 51.96875 
Q 19.578125 53.03125 23.640625 53.03125 
Q 29.734375 53.03125 34.34375 51.265625 
Q 38.96875 49.515625 41.15625 46.5 
Q 43.359375 43.5 44.1875 38.484375 
L 35.59375 37.3125 
Q 35.015625 41.3125 32.203125 43.546875 
Q 29.390625 45.796875 24.265625 45.796875 
Q 18.21875 45.796875 15.625 43.796875 
Q 13.03125 41.796875 13.03125 39.109375 
Q 13.03125 37.40625 14.109375 36.03125 
Q 15.1875 34.625 17.484375 33.6875 
Q 18.796875 33.203125 25.25 31.453125 
Q 34.578125 28.953125 38.25 27.359375 
Q 41.9375 25.78125 44.03125 22.75 
Q 46.140625 19.734375 46.140625 15.234375 
Q 46.140625 10.84375 43.578125 6.953125 
Q 41.015625 3.078125 36.171875 0.953125 
Q 31.34375 -1.171875 25.25 -1.171875 
Q 15.140625 -1.171875 9.84375 3.03125 
Q 4.546875 7.234375 3.078125 15.484375 
z
" id="ArialMT-73"/>
      </defs>
      <g style="fill:#262626;" transform="translate(262.263145 381.592925)scale(0.14 -0.14)">
       <use xlink:href="#ArialMT-54"/>
       <use x="61.037109" xlink:href="#ArialMT-75"/>
       <use x="116.652344" xlink:href="#ArialMT-65"/>
       <use x="172.267578" xlink:href="#ArialMT-73"/>
       <use x="222.267578" xlink:href="#ArialMT-64"/>
       <use x="277.882812" xlink:href="#ArialMT-61"/>
       <use x="333.498047" xlink:href="#ArialMT-79"/>
      </g>
     </g>
    </g>
    <g id="xtick_4">
     <g id="text_4">
      <!-- Wednesday -->
      <defs>
       <path d="M 20.21875 0 
L 1.21875 71.578125 
L 10.9375 71.578125 
L 21.828125 24.65625 
Q 23.578125 17.28125 24.859375 10.015625 
Q 27.59375 21.484375 28.078125 23.25 
L 41.703125 71.578125 
L 53.125 71.578125 
L 63.375 35.359375 
Q 67.234375 21.875 68.953125 10.015625 
Q 70.3125 16.796875 72.515625 25.59375 
L 83.734375 71.578125 
L 93.265625 71.578125 
L 73.640625 0 
L 64.5 0 
L 49.421875 54.546875 
Q 47.515625 61.375 47.171875 62.9375 
Q 46.046875 58.015625 45.0625 54.546875 
L 29.890625 0 
z
" id="ArialMT-57"/>
      </defs>
      <g style="fill:#262626;" transform="translate(347.800912 381.592925)scale(0.14 -0.14)">
       <use xlink:href="#ArialMT-57"/>
       <use x="94.369141" xlink:href="#ArialMT-65"/>
       <use x="149.984375" xlink:href="#ArialMT-64"/>
       <use x="205.599609" xlink:href="#ArialMT-6e"/>
       <use x="261.214844" xlink:href="#ArialMT-65"/>
       <use x="316.830078" xlink:href="#ArialMT-73"/>
       <use x="366.830078" xlink:href="#ArialMT-64"/>
       <use x="422.445312" xlink:href="#ArialMT-61"/>
       <use x="478.060547" xlink:href="#ArialMT-79"/>
      </g>
     </g>
    </g>
    <g id="xtick_5">
     <g id="text_5">
      <!-- Thursday -->
      <defs>
       <path d="M 6.59375 0 
L 6.59375 71.578125 
L 15.375 71.578125 
L 15.375 45.90625 
Q 21.53125 53.03125 30.90625 53.03125 
Q 36.671875 53.03125 40.921875 50.75 
Q 45.171875 48.484375 47 44.484375 
Q 48.828125 40.484375 48.828125 32.859375 
L 48.828125 0 
L 40.046875 0 
L 40.046875 32.859375 
Q 40.046875 39.453125 37.1875 42.453125 
Q 34.328125 45.453125 29.109375 45.453125 
Q 25.203125 45.453125 21.75 43.421875 
Q 18.3125 41.40625 16.84375 37.9375 
Q 15.375 34.46875 15.375 28.375 
L 15.375 0 
z
" id="ArialMT-68"/>
       <path d="M 6.5 0 
L 6.5 51.859375 
L 14.40625 51.859375 
L 14.40625 44 
Q 17.4375 49.515625 20 51.265625 
Q 22.5625 53.03125 25.640625 53.03125 
Q 30.078125 53.03125 34.671875 50.203125 
L 31.640625 42.046875 
Q 28.421875 43.953125 25.203125 43.953125 
Q 22.3125 43.953125 20.015625 42.21875 
Q 17.71875 40.484375 16.75 37.40625 
Q 15.28125 32.71875 15.28125 27.15625 
L 15.28125 0 
z
" id="ArialMT-72"/>
      </defs>
      <g style="fill:#262626;" transform="translate(451.243368 381.592925)scale(0.14 -0.14)">
       <use xlink:href="#ArialMT-54"/>
       <use x="61.083984" xlink:href="#ArialMT-68"/>
       <use x="116.699219" xlink:href="#ArialMT-75"/>
       <use x="172.314453" xlink:href="#ArialMT-72"/>
       <use x="205.615234" xlink:href="#ArialMT-73"/>
       <use x="255.615234" xlink:href="#ArialMT-64"/>
       <use x="311.230469" xlink:href="#ArialMT-61"/>
       <use x="366.845703" xlink:href="#ArialMT-79"/>
      </g>
     </g>
    </g>
    <g id="xtick_6">
     <g id="text_6">
      <!-- Friday -->
      <defs>
       <path d="M 8.203125 0 
L 8.203125 71.578125 
L 56.5 71.578125 
L 56.5 63.140625 
L 17.671875 63.140625 
L 17.671875 40.96875 
L 51.265625 40.96875 
L 51.265625 32.515625 
L 17.671875 32.515625 
L 17.671875 0 
z
" id="ArialMT-46"/>
       <path d="M 6.640625 61.46875 
L 6.640625 71.578125 
L 15.4375 71.578125 
L 15.4375 61.46875 
z
M 6.640625 0 
L 6.640625 51.859375 
L 15.4375 51.859375 
L 15.4375 0 
z
" id="ArialMT-69"/>
      </defs>
      <g style="fill:#262626;" transform="translate(556.630511 381.592925)scale(0.14 -0.14)">
       <use xlink:href="#ArialMT-46"/>
       <use x="61.083984" xlink:href="#ArialMT-72"/>
       <use x="94.384766" xlink:href="#ArialMT-69"/>
       <use x="116.601562" xlink:href="#ArialMT-64"/>
       <use x="172.216797" xlink:href="#ArialMT-61"/>
       <use x="227.832031" xlink:href="#ArialMT-79"/>
      </g>
     </g>
    </g>
    <g id="xtick_7">
     <g id="text_7">
      <!-- Saturday -->
      <defs>
       <path d="M 25.78125 7.859375 
L 27.046875 0.09375 
Q 23.34375 -0.6875 20.40625 -0.6875 
Q 15.625 -0.6875 12.984375 0.828125 
Q 10.359375 2.34375 9.28125 4.8125 
Q 8.203125 7.28125 8.203125 15.1875 
L 8.203125 45.015625 
L 1.765625 45.015625 
L 1.765625 51.859375 
L 8.203125 51.859375 
L 8.203125 64.703125 
L 16.9375 69.96875 
L 16.9375 51.859375 
L 25.78125 51.859375 
L 25.78125 45.015625 
L 16.9375 45.015625 
L 16.9375 14.703125 
Q 16.9375 10.9375 17.40625 9.859375 
Q 17.875 8.796875 18.921875 8.15625 
Q 19.96875 7.515625 21.921875 7.515625 
Q 23.390625 7.515625 25.78125 7.859375 
z
" id="ArialMT-74"/>
      </defs>
      <g style="fill:#262626;" transform="translate(643.719216 381.76355)scale(0.14 -0.14)">
       <use xlink:href="#ArialMT-53"/>
       <use x="66.699219" xlink:href="#ArialMT-61"/>
       <use x="122.314453" xlink:href="#ArialMT-74"/>
       <use x="150.097656" xlink:href="#ArialMT-75"/>
       <use x="205.712891" xlink:href="#ArialMT-72"/>
       <use x="239.013672" xlink:href="#ArialMT-64"/>
       <use x="294.628906" xlink:href="#ArialMT-61"/>
       <use x="350.244141" xlink:href="#ArialMT-79"/>
      </g>
     </g>
    </g>
   </g>
   <g id="matplotlib.axis_2">
    <g id="ytick_1">
     <g id="text_8">
      <!-- 0.6 -->
      <defs>
       <path d="M 4.15625 35.296875 
Q 4.15625 48 6.765625 55.734375 
Q 9.375 63.484375 14.515625 67.671875 
Q 19.671875 71.875 27.484375 71.875 
Q 33.25 71.875 37.59375 69.546875 
Q 41.9375 67.234375 44.765625 62.859375 
Q 47.609375 58.5 49.21875 52.21875 
Q 50.828125 45.953125 50.828125 35.296875 
Q 50.828125 22.703125 48.234375 14.96875 
Q 45.65625 7.234375 40.5 3 
Q 35.359375 -1.21875 27.484375 -1.21875 
Q 17.140625 -1.21875 11.234375 6.203125 
Q 4.15625 15.140625 4.15625 35.296875 
z
M 13.1875 35.296875 
Q 13.1875 17.671875 17.3125 11.828125 
Q 21.4375 6 27.484375 6 
Q 33.546875 6 37.671875 11.859375 
Q 41.796875 17.71875 41.796875 35.296875 
Q 41.796875 52.984375 37.671875 58.78125 
Q 33.546875 64.59375 27.390625 64.59375 
Q 21.34375 64.59375 17.71875 59.46875 
Q 13.1875 52.9375 13.1875 35.296875 
z
" id="ArialMT-30"/>
       <path d="M 9.078125 0 
L 9.078125 10.015625 
L 19.09375 10.015625 
L 19.09375 0 
z
" id="ArialMT-2e"/>
       <path d="M 49.75 54.046875 
L 41.015625 53.375 
Q 39.84375 58.546875 37.703125 60.890625 
Q 34.125 64.65625 28.90625 64.65625 
Q 24.703125 64.65625 21.53125 62.3125 
Q 17.390625 59.28125 14.984375 53.46875 
Q 12.59375 47.65625 12.5 36.921875 
Q 15.671875 41.75 20.265625 44.09375 
Q 24.859375 46.4375 29.890625 46.4375 
Q 38.671875 46.4375 44.84375 39.96875 
Q 51.03125 33.5 51.03125 23.25 
Q 51.03125 16.5 48.125 10.71875 
Q 45.21875 4.9375 40.140625 1.859375 
Q 35.0625 -1.21875 28.609375 -1.21875 
Q 17.625 -1.21875 10.6875 6.859375 
Q 3.765625 14.9375 3.765625 33.5 
Q 3.765625 54.25 11.421875 63.671875 
Q 18.109375 71.875 29.4375 71.875 
Q 37.890625 71.875 43.28125 67.140625 
Q 48.6875 62.40625 49.75 54.046875 
z
M 13.875 23.1875 
Q 13.875 18.65625 15.796875 14.5 
Q 17.71875 10.359375 21.1875 8.171875 
Q 24.65625 6 28.46875 6 
Q 34.03125 6 38.03125 10.484375 
Q 42.046875 14.984375 42.046875 22.703125 
Q 42.046875 30.125 38.078125 34.390625 
Q 34.125 38.671875 28.125 38.671875 
Q 22.171875 38.671875 18.015625 34.390625 
Q 13.875 30.125 13.875 23.1875 
z
" id="ArialMT-36"/>
      </defs>
      <g style="fill:#262626;" transform="translate(27.0031 373.082456)scale(0.14 -0.14)">
       <use xlink:href="#ArialMT-30"/>
       <use x="55.615234" xlink:href="#ArialMT-2e"/>
       <use x="83.398438" xlink:href="#ArialMT-36"/>
      </g>
     </g>
    </g>
    <g id="ytick_2">
     <g id="text_9">
      <!-- 0.8 -->
      <defs>
       <path d="M 17.671875 38.8125 
Q 12.203125 40.828125 9.5625 44.53125 
Q 6.9375 48.25 6.9375 53.421875 
Q 6.9375 61.234375 12.546875 66.546875 
Q 18.171875 71.875 27.484375 71.875 
Q 36.859375 71.875 42.578125 66.421875 
Q 48.296875 60.984375 48.296875 53.171875 
Q 48.296875 48.1875 45.671875 44.5 
Q 43.0625 40.828125 37.75 38.8125 
Q 44.34375 36.671875 47.78125 31.875 
Q 51.21875 27.09375 51.21875 20.453125 
Q 51.21875 11.28125 44.71875 5.03125 
Q 38.234375 -1.21875 27.640625 -1.21875 
Q 17.046875 -1.21875 10.546875 5.046875 
Q 4.046875 11.328125 4.046875 20.703125 
Q 4.046875 27.6875 7.59375 32.390625 
Q 11.140625 37.109375 17.671875 38.8125 
z
M 15.921875 53.71875 
Q 15.921875 48.640625 19.1875 45.40625 
Q 22.46875 42.1875 27.6875 42.1875 
Q 32.765625 42.1875 36.015625 45.375 
Q 39.265625 48.578125 39.265625 53.21875 
Q 39.265625 58.0625 35.90625 61.359375 
Q 32.5625 64.65625 27.59375 64.65625 
Q 22.5625 64.65625 19.234375 61.421875 
Q 15.921875 58.203125 15.921875 53.71875 
z
M 13.09375 20.65625 
Q 13.09375 16.890625 14.875 13.375 
Q 16.65625 9.859375 20.171875 7.921875 
Q 23.6875 6 27.734375 6 
Q 34.03125 6 38.125 10.046875 
Q 42.234375 14.109375 42.234375 20.359375 
Q 42.234375 26.703125 38.015625 30.859375 
Q 33.796875 35.015625 27.4375 35.015625 
Q 21.234375 35.015625 17.15625 30.90625 
Q 13.09375 26.8125 13.09375 20.65625 
z
" id="ArialMT-38"/>
      </defs>
      <g style="fill:#262626;" transform="translate(27.0031 307.850456)scale(0.14 -0.14)">
       <use xlink:href="#ArialMT-30"/>
       <use x="55.615234" xlink:href="#ArialMT-2e"/>
       <use x="83.398438" xlink:href="#ArialMT-38"/>
      </g>
     </g>
    </g>
    <g id="ytick_3">
     <g id="text_10">
      <!-- 1.0 -->
      <defs>
       <path d="M 37.25 0 
L 28.46875 0 
L 28.46875 56 
Q 25.296875 52.984375 20.140625 49.953125 
Q 14.984375 46.921875 10.890625 45.40625 
L 10.890625 53.90625 
Q 18.265625 57.375 23.78125 62.296875 
Q 29.296875 67.234375 31.59375 71.875 
L 37.25 71.875 
z
" id="ArialMT-31"/>
      </defs>
      <g style="fill:#262626;" transform="translate(27.0031 242.618456)scale(0.14 -0.14)">
       <use xlink:href="#ArialMT-31"/>
       <use x="55.615234" xlink:href="#ArialMT-2e"/>
       <use x="83.398438" xlink:href="#ArialMT-30"/>
      </g>
     </g>
    </g>
    <g id="ytick_4">
     <g id="text_11">
      <!-- 1.2 -->
      <defs>
       <path d="M 50.34375 8.453125 
L 50.34375 0 
L 3.03125 0 
Q 2.9375 3.171875 4.046875 6.109375 
Q 5.859375 10.9375 9.828125 15.625 
Q 13.8125 20.3125 21.34375 26.46875 
Q 33.015625 36.03125 37.109375 41.625 
Q 41.21875 47.21875 41.21875 52.203125 
Q 41.21875 57.421875 37.46875 61 
Q 33.734375 64.59375 27.734375 64.59375 
Q 21.390625 64.59375 17.578125 60.78125 
Q 13.765625 56.984375 13.71875 50.25 
L 4.6875 51.171875 
Q 5.609375 61.28125 11.65625 66.578125 
Q 17.71875 71.875 27.9375 71.875 
Q 38.234375 71.875 44.234375 66.15625 
Q 50.25 60.453125 50.25 52 
Q 50.25 47.703125 48.484375 43.546875 
Q 46.734375 39.40625 42.65625 34.8125 
Q 38.578125 30.21875 29.109375 22.21875 
Q 21.1875 15.578125 18.9375 13.203125 
Q 16.703125 10.84375 15.234375 8.453125 
z
" id="ArialMT-32"/>
      </defs>
      <g style="fill:#262626;" transform="translate(27.0031 177.386456)scale(0.14 -0.14)">
       <use xlink:href="#ArialMT-31"/>
       <use x="55.615234" xlink:href="#ArialMT-2e"/>
       <use x="83.398438" xlink:href="#ArialMT-32"/>
      </g>
     </g>
    </g>
    <g id="ytick_5">
     <g id="text_12">
      <!-- 1.4 -->
      <defs>
       <path d="M 32.328125 0 
L 32.328125 17.140625 
L 1.265625 17.140625 
L 1.265625 25.203125 
L 33.9375 71.578125 
L 41.109375 71.578125 
L 41.109375 25.203125 
L 50.78125 25.203125 
L 50.78125 17.140625 
L 41.109375 17.140625 
L 41.109375 0 
z
M 32.328125 25.203125 
L 32.328125 57.46875 
L 9.90625 25.203125 
z
" id="ArialMT-34"/>
      </defs>
      <g style="fill:#262626;" transform="translate(27.0031 112.154456)scale(0.14 -0.14)">
       <use xlink:href="#ArialMT-31"/>
       <use x="55.615234" xlink:href="#ArialMT-2e"/>
       <use x="83.398438" xlink:href="#ArialMT-34"/>
      </g>
     </g>
    </g>
    <g id="ytick_6">
     <g id="text_13">
      <!-- 1.6 -->
      <g style="fill:#262626;" transform="translate(27.0031 46.922456)scale(0.14 -0.14)">
       <use xlink:href="#ArialMT-31"/>
       <use x="55.615234" xlink:href="#ArialMT-2e"/>
       <use x="83.398438" xlink:href="#ArialMT-36"/>
      </g>
     </g>
    </g>
    <g id="text_14">
     <!-- Accident Ratio: DST Week / Week After -->
     <defs>
      <path d="M -0.140625 0 
L 27.34375 71.578125 
L 37.546875 71.578125 
L 66.84375 0 
L 56.0625 0 
L 47.703125 21.6875 
L 17.78125 21.6875 
L 9.90625 0 
z
M 20.515625 29.390625 
L 44.78125 29.390625 
L 37.3125 49.21875 
Q 33.890625 58.25 32.234375 64.0625 
Q 30.859375 57.171875 28.375 50.390625 
z
" id="ArialMT-41"/>
      <path d="M 40.4375 19 
L 49.078125 17.875 
Q 47.65625 8.9375 41.8125 3.875 
Q 35.984375 -1.171875 27.484375 -1.171875 
Q 16.84375 -1.171875 10.375 5.78125 
Q 3.90625 12.75 3.90625 25.734375 
Q 3.90625 34.125 6.6875 40.421875 
Q 9.46875 46.734375 15.15625 49.875 
Q 20.84375 53.03125 27.546875 53.03125 
Q 35.984375 53.03125 41.359375 48.75 
Q 46.734375 44.484375 48.25 36.625 
L 39.703125 35.296875 
Q 38.484375 40.53125 35.375 43.15625 
Q 32.28125 45.796875 27.875 45.796875 
Q 21.234375 45.796875 17.078125 41.03125 
Q 12.9375 36.28125 12.9375 25.984375 
Q 12.9375 15.53125 16.9375 10.796875 
Q 20.953125 6.0625 27.390625 6.0625 
Q 32.5625 6.0625 36.03125 9.234375 
Q 39.5 12.40625 40.4375 19 
z
" id="ArialMT-63"/>
      <path d="M 7.859375 0 
L 7.859375 71.578125 
L 39.59375 71.578125 
Q 49.171875 71.578125 54.140625 69.640625 
Q 59.125 67.71875 62.109375 62.828125 
Q 65.09375 57.953125 65.09375 52.046875 
Q 65.09375 44.4375 60.15625 39.203125 
Q 55.21875 33.984375 44.921875 32.5625 
Q 48.6875 30.765625 50.640625 29 
Q 54.78125 25.203125 58.5 19.484375 
L 70.953125 0 
L 59.03125 0 
L 49.5625 14.890625 
Q 45.40625 21.34375 42.71875 24.75 
Q 40.046875 28.171875 37.921875 29.53125 
Q 35.796875 30.90625 33.59375 31.453125 
Q 31.984375 31.78125 28.328125 31.78125 
L 17.328125 31.78125 
L 17.328125 0 
z
M 17.328125 39.984375 
L 37.703125 39.984375 
Q 44.1875 39.984375 47.84375 41.328125 
Q 51.515625 42.671875 53.421875 45.625 
Q 55.328125 48.578125 55.328125 52.046875 
Q 55.328125 57.125 51.640625 60.390625 
Q 47.953125 63.671875 39.984375 63.671875 
L 17.328125 63.671875 
z
" id="ArialMT-52"/>
      <path d="M 9.03125 41.84375 
L 9.03125 51.859375 
L 19.046875 51.859375 
L 19.046875 41.84375 
z
M 9.03125 0 
L 9.03125 10.015625 
L 19.046875 10.015625 
L 19.046875 0 
z
" id="ArialMT-3a"/>
      <path d="M 6.640625 0 
L 6.640625 71.578125 
L 15.4375 71.578125 
L 15.4375 30.765625 
L 36.234375 51.859375 
L 47.609375 51.859375 
L 27.78125 32.625 
L 49.609375 0 
L 38.765625 0 
L 21.625 26.515625 
L 15.4375 20.5625 
L 15.4375 0 
z
" id="ArialMT-6b"/>
      <path d="M 0 -1.21875 
L 20.75 72.796875 
L 27.78125 72.796875 
L 7.078125 -1.21875 
z
" id="ArialMT-2f"/>
      <path d="M 8.6875 0 
L 8.6875 45.015625 
L 0.921875 45.015625 
L 0.921875 51.859375 
L 8.6875 51.859375 
L 8.6875 57.375 
Q 8.6875 62.59375 9.625 65.140625 
Q 10.890625 68.5625 14.078125 70.671875 
Q 17.28125 72.796875 23.046875 72.796875 
Q 26.765625 72.796875 31.25 71.921875 
L 29.9375 64.265625 
Q 27.203125 64.75 24.75 64.75 
Q 20.75 64.75 19.09375 63.03125 
Q 17.4375 61.328125 17.4375 56.640625 
L 17.4375 51.859375 
L 27.546875 51.859375 
L 27.546875 45.015625 
L 17.4375 45.015625 
L 17.4375 0 
z
" id="ArialMT-66"/>
     </defs>
     <g style="fill:#262626;" transform="translate(19.5687 357.184237)rotate(-90)scale(0.1728 -0.1728)">
      <use xlink:href="#ArialMT-41"/>
      <use x="66.699219" xlink:href="#ArialMT-63"/>
      <use x="116.699219" xlink:href="#ArialMT-63"/>
      <use x="166.699219" xlink:href="#ArialMT-69"/>
      <use x="188.916016" xlink:href="#ArialMT-64"/>
      <use x="244.53125" xlink:href="#ArialMT-65"/>
      <use x="300.146484" xlink:href="#ArialMT-6e"/>
      <use x="355.761719" xlink:href="#ArialMT-74"/>
      <use x="383.544922" xlink:href="#ArialMT-20"/>
      <use x="411.328125" xlink:href="#ArialMT-52"/>
      <use x="483.544922" xlink:href="#ArialMT-61"/>
      <use x="539.160156" xlink:href="#ArialMT-74"/>
      <use x="566.943359" xlink:href="#ArialMT-69"/>
      <use x="589.160156" xlink:href="#ArialMT-6f"/>
      <use x="644.775391" xlink:href="#ArialMT-3a"/>
      <use x="672.558594" xlink:href="#ArialMT-20"/>
      <use x="700.341797" xlink:href="#ArialMT-44"/>
      <use x="772.558594" xlink:href="#ArialMT-53"/>
      <use x="839.257812" xlink:href="#ArialMT-54"/>
      <use x="900.326172" xlink:href="#ArialMT-20"/>
      <use x="928.109375" xlink:href="#ArialMT-57"/>
      <use x="1022.478516" xlink:href="#ArialMT-65"/>
      <use x="1078.09375" xlink:href="#ArialMT-65"/>
      <use x="1133.708984" xlink:href="#ArialMT-6b"/>
      <use x="1183.708984" xlink:href="#ArialMT-20"/>
      <use x="1211.492188" xlink:href="#ArialMT-2f"/>
      <use x="1239.275391" xlink:href="#ArialMT-20"/>
      <use x="1267.058594" xlink:href="#ArialMT-57"/>
      <use x="1361.427734" xlink:href="#ArialMT-65"/>
      <use x="1417.042969" xlink:href="#ArialMT-65"/>
      <use x="1472.658203" xlink:href="#ArialMT-6b"/>
      <use x="1522.658203" xlink:href="#ArialMT-20"/>
      <use x="1550.363281" xlink:href="#ArialMT-41"/>
      <use x="1617.0625" xlink:href="#ArialMT-66"/>
      <use x="1644.845703" xlink:href="#ArialMT-74"/>
      <use x="1672.628906" xlink:href="#ArialMT-65"/>
      <use x="1728.244141" xlink:href="#ArialMT-72"/>
     </g>
    </g>
   </g>
   <g id="PolyCollection_1">
    <defs>
     <path d="M 99.107806 -27.966489 
L 96.475537 -27.966489 
L 96.337086 -29.91682 
L 96.192522 -31.867152 
L 96.042435 -33.817484 
L 95.887429 -35.767815 
L 95.728096 -37.718147 
L 95.564986 -39.668478 
L 95.398591 -41.61881 
L 95.229324 -43.569142 
L 95.057503 -45.519473 
L 94.883349 -47.469805 
L 94.706983 -49.420136 
L 94.528432 -51.370468 
L 94.347639 -53.3208 
L 94.16448 -55.271131 
L 93.978787 -57.221463 
L 93.790362 -59.171794 
L 93.599001 -61.122126 
L 93.404511 -63.072458 
L 93.206724 -65.022789 
L 93.005506 -66.973121 
L 92.800761 -68.923452 
L 92.592424 -70.873784 
L 92.380457 -72.824116 
L 92.164835 -74.774447 
L 91.945526 -76.724779 
L 91.722478 -78.67511 
L 91.495597 -80.625442 
L 91.264733 -82.575774 
L 91.02967 -84.526105 
L 90.790114 -86.476437 
L 90.545696 -88.426768 
L 90.295974 -90.3771 
L 90.040447 -92.327432 
L 89.77857 -94.277763 
L 89.509775 -96.228095 
L 89.233498 -98.178426 
L 88.949208 -100.128758 
L 88.656436 -102.07909 
L 88.354809 -104.029421 
L 88.044079 -105.979753 
L 87.724158 -107.930084 
L 87.39515 -109.880416 
L 87.057376 -111.830748 
L 86.711412 -113.781079 
L 86.358108 -115.731411 
L 85.998619 -117.681743 
L 85.634421 -119.632074 
L 85.267332 -121.582406 
L 84.899517 -123.532737 
L 84.533488 -125.483069 
L 84.172099 -127.433401 
L 83.81852 -129.383732 
L 83.476202 -131.334064 
L 83.148834 -133.284395 
L 82.840279 -135.234727 
L 82.5545 -137.185059 
L 82.295479 -139.13539 
L 82.067125 -141.085722 
L 81.87318 -143.036053 
L 81.71712 -144.986385 
L 81.602068 -146.936717 
L 81.530707 -148.887048 
L 81.505206 -150.83738 
L 81.527162 -152.787711 
L 81.597559 -154.738043 
L 81.716742 -156.688375 
L 81.884412 -158.638706 
L 82.09964 -160.589038 
L 82.360897 -162.539369 
L 82.666095 -164.489701 
L 83.012651 -166.440033 
L 83.397545 -168.390364 
L 83.817401 -170.340696 
L 84.268558 -172.291027 
L 84.747149 -174.241359 
L 85.249176 -176.191691 
L 85.770577 -178.142022 
L 86.307297 -180.092354 
L 86.855338 -182.042685 
L 87.41082 -183.993017 
L 87.970011 -185.943349 
L 88.529373 -187.89368 
L 89.085583 -189.844012 
L 89.635555 -191.794343 
L 90.176457 -193.744675 
L 90.705716 -195.695007 
L 91.221025 -197.645338 
L 91.720345 -199.59567 
L 92.2019 -201.546001 
L 92.664174 -203.496333 
L 93.105908 -205.446665 
L 93.526084 -207.396996 
L 93.923927 -209.347328 
L 94.298885 -211.297659 
L 94.650629 -213.247991 
L 94.979035 -215.198323 
L 95.284173 -217.148654 
L 95.5663 -219.098986 
L 95.825841 -221.049317 
L 99.757501 -221.049317 
L 99.757501 -221.049317 
L 100.017042 -219.098986 
L 100.29917 -217.148654 
L 100.604308 -215.198323 
L 100.932713 -213.247991 
L 101.284457 -211.297659 
L 101.659416 -209.347328 
L 102.057259 -207.396996 
L 102.477435 -205.446665 
L 102.919168 -203.496333 
L 103.381443 -201.546001 
L 103.862998 -199.59567 
L 104.362318 -197.645338 
L 104.877627 -195.695007 
L 105.406886 -193.744675 
L 105.947787 -191.794343 
L 106.49776 -189.844012 
L 107.05397 -187.89368 
L 107.613332 -185.943349 
L 108.172523 -183.993017 
L 108.728004 -182.042685 
L 109.276046 -180.092354 
L 109.812766 -178.142022 
L 110.334167 -176.191691 
L 110.836194 -174.241359 
L 111.314785 -172.291027 
L 111.765942 -170.340696 
L 112.185798 -168.390364 
L 112.570692 -166.440033 
L 112.917247 -164.489701 
L 113.222446 -162.539369 
L 113.483702 -160.589038 
L 113.698931 -158.638706 
L 113.866601 -156.688375 
L 113.985784 -154.738043 
L 114.056181 -152.787711 
L 114.078137 -150.83738 
L 114.052636 -148.887048 
L 113.981275 -146.936717 
L 113.866223 -144.986385 
L 113.710163 -143.036053 
L 113.516218 -141.085722 
L 113.287864 -139.13539 
L 113.028843 -137.185059 
L 112.743064 -135.234727 
L 112.434509 -133.284395 
L 112.107141 -131.334064 
L 111.764823 -129.383732 
L 111.411243 -127.433401 
L 111.049854 -125.483069 
L 110.683826 -123.532737 
L 110.316011 -121.582406 
L 109.948922 -119.632074 
L 109.584724 -117.681743 
L 109.225235 -115.731411 
L 108.871931 -113.781079 
L 108.525967 -111.830748 
L 108.188193 -109.880416 
L 107.859184 -107.930084 
L 107.539264 -105.979753 
L 107.228534 -104.029421 
L 106.926907 -102.07909 
L 106.634135 -100.128758 
L 106.349845 -98.178426 
L 106.073568 -96.228095 
L 105.804773 -94.277763 
L 105.542896 -92.327432 
L 105.287369 -90.3771 
L 105.037647 -88.426768 
L 104.793229 -86.476437 
L 104.553673 -84.526105 
L 104.318609 -82.575774 
L 104.087746 -80.625442 
L 103.860865 -78.67511 
L 103.637817 -76.724779 
L 103.418508 -74.774447 
L 103.202886 -72.824116 
L 102.990919 -70.873784 
L 102.782582 -68.923452 
L 102.577837 -66.973121 
L 102.376619 -65.022789 
L 102.178832 -63.072458 
L 101.984342 -61.122126 
L 101.792981 -59.171794 
L 101.604556 -57.221463 
L 101.418862 -55.271131 
L 101.235704 -53.3208 
L 101.054911 -51.370468 
L 100.876359 -49.420136 
L 100.699994 -47.469805 
L 100.52584 -45.519473 
L 100.354019 -43.569142 
L 100.184751 -41.61881 
L 100.018357 -39.668478 
L 99.855247 -37.718147 
L 99.695914 -35.767815 
L 99.540908 -33.817484 
L 99.390821 -31.867152 
L 99.246257 -29.91682 
L 99.107806 -27.966489 
z
" id="m00187e16a5" style="stroke:#414141;stroke-width:2;"/>
    </defs>
    <g clip-path="url(#pcd5396697c)">
     <use style="fill:#e68193;stroke:#414141;stroke-width:2;" x="0" xlink:href="#m00187e16a5" y="391.910113"/>
    </g>
   </g>
   <g id="PolyCollection_2">
    <defs>
     <path d="M 195.540862 -57.004951 
L 191.356767 -57.004951 
L 191.140192 -58.643744 
L 190.913389 -60.282538 
L 190.677517 -61.921331 
L 190.433943 -63.560125 
L 190.184222 -65.198918 
L 189.930077 -66.837712 
L 189.673368 -68.476505 
L 189.416058 -70.115299 
L 189.160173 -71.754092 
L 188.90775 -73.392886 
L 188.660796 -75.031679 
L 188.421231 -76.670473 
L 188.190836 -78.309266 
L 187.971206 -79.94806 
L 187.763698 -81.586853 
L 187.569391 -83.225647 
L 187.389045 -84.86444 
L 187.223078 -86.503234 
L 187.071541 -88.142027 
L 186.934111 -89.780821 
L 186.810091 -91.419614 
L 186.69842 -93.058408 
L 186.597698 -94.697201 
L 186.506216 -96.335995 
L 186.421998 -97.974788 
L 186.342844 -99.613582 
L 186.266387 -101.252375 
L 186.190148 -102.891169 
L 186.111592 -104.529962 
L 186.028189 -106.168756 
L 185.937462 -107.807549 
L 185.837041 -109.446343 
L 185.724709 -111.085136 
L 185.598436 -112.72393 
L 185.456412 -114.362723 
L 185.297073 -116.001517 
L 185.119114 -117.64031 
L 184.921506 -119.279104 
L 184.703499 -120.917897 
L 184.464625 -122.55669 
L 184.204699 -124.195484 
L 183.923821 -125.834277 
L 183.622371 -127.473071 
L 183.301014 -129.111864 
L 182.960699 -130.750658 
L 182.60266 -132.389451 
L 182.228426 -134.028245 
L 181.839819 -135.667038 
L 181.438961 -137.305832 
L 181.028273 -138.944625 
L 180.610474 -140.583419 
L 180.188567 -142.222212 
L 179.765829 -143.861006 
L 179.345782 -145.499799 
L 178.93216 -147.138593 
L 178.528865 -148.777386 
L 178.139915 -150.41618 
L 177.769381 -152.054973 
L 177.421317 -153.693767 
L 177.099688 -155.33256 
L 176.808293 -156.971354 
L 176.550688 -158.610147 
L 176.330112 -160.248941 
L 176.149424 -161.887734 
L 176.011042 -163.526528 
L 175.916899 -165.165321 
L 175.868409 -166.804115 
L 175.866451 -168.442908 
L 175.911365 -170.081702 
L 176.002961 -171.720495 
L 176.14055 -173.359289 
L 176.322979 -174.998082 
L 176.548674 -176.636876 
L 176.815703 -178.275669 
L 177.121824 -179.914463 
L 177.464555 -181.553256 
L 177.841225 -183.19205 
L 178.249031 -184.830843 
L 178.685086 -186.469636 
L 179.146461 -188.10843 
L 179.630219 -189.747223 
L 180.133437 -191.386017 
L 180.653226 -193.02481 
L 181.186739 -194.663604 
L 181.73118 -196.302397 
L 182.283798 -197.941191 
L 182.841893 -199.579984 
L 183.402811 -201.218778 
L 183.963944 -202.857571 
L 184.522731 -204.496365 
L 185.076667 -206.135158 
L 185.623311 -207.773952 
L 186.160301 -209.412745 
L 186.685369 -211.051539 
L 187.196368 -212.690332 
L 187.691288 -214.329126 
L 188.168289 -215.967919 
L 188.625718 -217.606713 
L 189.062134 -219.245506 
L 197.835495 -219.245506 
L 197.835495 -219.245506 
L 198.271911 -217.606713 
L 198.729339 -215.967919 
L 199.20634 -214.329126 
L 199.701261 -212.690332 
L 200.212259 -211.051539 
L 200.737328 -209.412745 
L 201.274317 -207.773952 
L 201.820962 -206.135158 
L 202.374898 -204.496365 
L 202.933685 -202.857571 
L 203.494817 -201.218778 
L 204.055735 -199.579984 
L 204.613831 -197.941191 
L 205.166449 -196.302397 
L 205.710889 -194.663604 
L 206.244403 -193.02481 
L 206.764192 -191.386017 
L 207.26741 -189.747223 
L 207.751168 -188.10843 
L 208.212543 -186.469636 
L 208.648598 -184.830843 
L 209.056404 -183.19205 
L 209.433073 -181.553256 
L 209.775804 -179.914463 
L 210.081926 -178.275669 
L 210.348954 -176.636876 
L 210.57465 -174.998082 
L 210.757078 -173.359289 
L 210.894668 -171.720495 
L 210.986264 -170.081702 
L 211.031177 -168.442908 
L 211.029219 -166.804115 
L 210.980729 -165.165321 
L 210.886586 -163.526528 
L 210.748204 -161.887734 
L 210.567516 -160.248941 
L 210.346941 -158.610147 
L 210.089335 -156.971354 
L 209.79794 -155.33256 
L 209.476312 -153.693767 
L 209.128248 -152.054973 
L 208.757714 -150.41618 
L 208.368764 -148.777386 
L 207.965469 -147.138593 
L 207.551846 -145.499799 
L 207.131799 -143.861006 
L 206.709061 -142.222212 
L 206.287155 -140.583419 
L 205.869355 -138.944625 
L 205.458668 -137.305832 
L 205.05781 -135.667038 
L 204.669203 -134.028245 
L 204.294968 -132.389451 
L 203.93693 -130.750658 
L 203.596614 -129.111864 
L 203.275257 -127.473071 
L 202.973808 -125.834277 
L 202.69293 -124.195484 
L 202.433004 -122.55669 
L 202.19413 -120.917897 
L 201.976122 -119.279104 
L 201.778515 -117.64031 
L 201.600556 -116.001517 
L 201.441217 -114.362723 
L 201.299193 -112.72393 
L 201.172919 -111.085136 
L 201.060587 -109.446343 
L 200.960167 -107.807549 
L 200.869439 -106.168756 
L 200.786036 -104.529962 
L 200.707481 -102.891169 
L 200.631242 -101.252375 
L 200.554785 -99.613582 
L 200.475631 -97.974788 
L 200.391412 -96.335995 
L 200.299931 -94.697201 
L 200.199209 -93.058408 
L 200.087538 -91.419614 
L 199.963517 -89.780821 
L 199.826087 -88.142027 
L 199.67455 -86.503234 
L 199.508583 -84.86444 
L 199.328238 -83.225647 
L 199.13393 -81.586853 
L 198.926423 -79.94806 
L 198.706793 -78.309266 
L 198.476398 -76.670473 
L 198.236832 -75.031679 
L 197.989878 -73.392886 
L 197.737456 -71.754092 
L 197.48157 -70.115299 
L 197.224261 -68.476505 
L 196.967552 -66.837712 
L 196.713407 -65.198918 
L 196.463685 -63.560125 
L 196.220111 -61.921331 
L 195.98424 -60.282538 
L 195.757436 -58.643744 
L 195.540862 -57.004951 
z
" id="m1d8204f4d5" style="stroke:#414141;stroke-width:2;"/>
    </defs>
    <g clip-path="url(#pcd5396697c)">
     <use style="fill:#b38e44;stroke:#414141;stroke-width:2;" x="0" xlink:href="#m1d8204f4d5" y="391.910113"/>
    </g>
   </g>
   <g id="PolyCollection_3">
    <defs>
     <path d="M 293.32553 -105.97289 
L 284.886384 -105.97289 
L 284.378782 -107.942848 
L 283.838515 -109.912805 
L 283.267734 -111.882762 
L 282.669246 -113.85272 
L 282.046513 -115.822677 
L 281.403616 -117.792635 
L 280.745213 -119.762592 
L 280.076474 -121.73255 
L 279.402989 -123.702507 
L 278.730676 -125.672465 
L 278.065662 -127.642422 
L 277.414161 -129.61238 
L 276.782348 -131.582337 
L 276.176226 -133.552294 
L 275.601501 -135.522252 
L 275.063467 -137.492209 
L 274.566896 -139.462167 
L 274.11595 -141.432124 
L 273.714112 -143.402082 
L 273.364138 -145.372039 
L 273.068026 -147.341997 
L 272.827016 -149.311954 
L 272.641605 -151.281911 
L 272.511588 -153.251869 
L 272.436109 -155.221826 
L 272.413733 -157.191784 
L 272.442521 -159.161741 
L 272.52012 -161.131699 
L 272.643843 -163.101656 
L 272.810755 -165.071614 
L 273.017754 -167.041571 
L 273.26164 -169.011528 
L 273.539173 -170.981486 
L 273.847123 -172.951443 
L 274.182302 -174.921401 
L 274.541596 -176.891358 
L 274.921967 -178.861316 
L 275.320468 -180.831273 
L 275.734233 -182.801231 
L 276.160472 -184.771188 
L 276.596461 -186.741146 
L 277.039531 -188.711103 
L 277.487063 -190.68106 
L 277.936482 -192.651018 
L 278.385257 -194.620975 
L 278.830907 -196.590933 
L 279.271015 -198.56089 
L 279.703241 -200.530848 
L 280.125346 -202.500805 
L 280.535215 -204.470763 
L 280.93088 -206.44072 
L 281.310551 -208.410677 
L 281.672635 -210.380635 
L 282.015766 -212.350592 
L 282.338815 -214.32055 
L 282.640912 -216.290507 
L 282.921452 -218.260465 
L 283.180101 -220.230422 
L 283.416794 -222.20038 
L 283.631729 -224.170337 
L 283.825359 -226.140294 
L 283.998378 -228.110252 
L 284.151701 -230.080209 
L 284.286447 -232.050167 
L 284.403919 -234.020124 
L 284.505578 -235.990082 
L 284.59302 -237.960039 
L 284.667951 -239.929997 
L 284.732163 -241.899954 
L 284.787508 -243.869912 
L 284.835874 -245.839869 
L 284.879151 -247.809826 
L 284.919217 -249.779784 
L 284.957899 -251.749741 
L 284.996956 -253.719699 
L 285.038047 -255.689656 
L 285.082707 -257.659614 
L 285.132325 -259.629571 
L 285.188121 -261.599529 
L 285.251124 -263.569486 
L 285.322157 -265.539443 
L 285.401828 -267.509401 
L 285.490514 -269.479358 
L 285.588366 -271.449316 
L 285.695302 -273.419273 
L 285.811023 -275.389231 
L 285.935016 -277.359188 
L 286.066579 -279.329146 
L 286.204836 -281.299103 
L 286.348769 -283.269061 
L 286.497239 -285.239018 
L 286.649024 -287.208975 
L 286.802848 -289.178933 
L 286.957411 -291.14889 
L 287.111425 -293.118848 
L 287.263641 -295.088805 
L 287.412877 -297.058763 
L 287.558041 -299.02872 
L 287.698154 -300.998678 
L 290.513761 -300.998678 
L 290.513761 -300.998678 
L 290.653873 -299.02872 
L 290.799037 -297.058763 
L 290.948273 -295.088805 
L 291.10049 -293.118848 
L 291.254504 -291.14889 
L 291.409067 -289.178933 
L 291.56289 -287.208975 
L 291.714675 -285.239018 
L 291.863146 -283.269061 
L 292.007078 -281.299103 
L 292.145336 -279.329146 
L 292.276898 -277.359188 
L 292.400891 -275.389231 
L 292.516612 -273.419273 
L 292.623548 -271.449316 
L 292.7214 -269.479358 
L 292.810086 -267.509401 
L 292.889757 -265.539443 
L 292.960791 -263.569486 
L 293.023793 -261.599529 
L 293.079589 -259.629571 
L 293.129207 -257.659614 
L 293.173867 -255.689656 
L 293.214958 -253.719699 
L 293.254015 -251.749741 
L 293.292697 -249.779784 
L 293.332763 -247.809826 
L 293.376041 -245.839869 
L 293.424406 -243.869912 
L 293.479752 -241.899954 
L 293.543964 -239.929997 
L 293.618895 -237.960039 
L 293.706336 -235.990082 
L 293.807995 -234.020124 
L 293.925467 -232.050167 
L 294.060214 -230.080209 
L 294.213536 -228.110252 
L 294.386555 -226.140294 
L 294.580185 -224.170337 
L 294.79512 -222.20038 
L 295.031813 -220.230422 
L 295.290462 -218.260465 
L 295.571002 -216.290507 
L 295.8731 -214.32055 
L 296.196149 -212.350592 
L 296.539279 -210.380635 
L 296.901363 -208.410677 
L 297.281034 -206.44072 
L 297.676699 -204.470763 
L 298.086568 -202.500805 
L 298.508673 -200.530848 
L 298.9409 -198.56089 
L 299.381007 -196.590933 
L 299.826657 -194.620975 
L 300.275432 -192.651018 
L 300.724851 -190.68106 
L 301.172383 -188.711103 
L 301.615454 -186.741146 
L 302.051442 -184.771188 
L 302.477681 -182.801231 
L 302.891446 -180.831273 
L 303.289947 -178.861316 
L 303.670319 -176.891358 
L 304.029612 -174.921401 
L 304.364792 -172.951443 
L 304.672741 -170.981486 
L 304.950274 -169.011528 
L 305.19416 -167.041571 
L 305.40116 -165.071614 
L 305.568072 -163.101656 
L 305.691794 -161.131699 
L 305.769393 -159.161741 
L 305.798182 -157.191784 
L 305.775806 -155.221826 
L 305.700327 -153.251869 
L 305.57031 -151.281911 
L 305.384899 -149.311954 
L 305.143888 -147.341997 
L 304.847776 -145.372039 
L 304.497802 -143.402082 
L 304.095965 -141.432124 
L 303.645019 -139.462167 
L 303.148447 -137.492209 
L 302.610413 -135.522252 
L 302.035689 -133.552294 
L 301.429566 -131.582337 
L 300.797753 -129.61238 
L 300.146253 -127.642422 
L 299.481238 -125.672465 
L 298.808925 -123.702507 
L 298.135441 -121.73255 
L 297.466701 -119.762592 
L 296.808299 -117.792635 
L 296.165402 -115.822677 
L 295.542668 -113.85272 
L 294.944181 -111.882762 
L 294.373399 -109.912805 
L 293.833133 -107.942848 
L 293.32553 -105.97289 
z
" id="ma2271946da" style="stroke:#414141;stroke-width:2;"/>
    </defs>
    <g clip-path="url(#pcd5396697c)">
     <use style="fill:#7d9a40;stroke:#414141;stroke-width:2;" x="0" xlink:href="#ma2271946da" y="391.910113"/>
    </g>
   </g>
   <g id="PolyCollection_4">
    <defs>
     <path d="M 387.241201 -99.584177 
L 382.284999 -99.584177 
L 381.94453 -101.368735 
L 381.577211 -103.153293 
L 381.183335 -104.937851 
L 380.763303 -106.722408 
L 380.317566 -108.506966 
L 379.846556 -110.291524 
L 379.350631 -112.076082 
L 378.830035 -113.86064 
L 378.284872 -115.645197 
L 377.715114 -117.429755 
L 377.120631 -119.214313 
L 376.501254 -120.998871 
L 375.856865 -122.783429 
L 375.187515 -124.567987 
L 374.493553 -126.352544 
L 373.775764 -128.137102 
L 373.035509 -129.92166 
L 372.274846 -131.706218 
L 371.496629 -133.490776 
L 370.704578 -135.275333 
L 369.903306 -137.059891 
L 369.098312 -138.844449 
L 368.295921 -140.629007 
L 367.503202 -142.413565 
L 366.727833 -144.198122 
L 365.977962 -145.98268 
L 365.262032 -147.767238 
L 364.58861 -149.551796 
L 363.966209 -151.336354 
L 363.403117 -153.120911 
L 362.907233 -154.905469 
L 362.485917 -156.690027 
L 362.145848 -158.474585 
L 361.892893 -160.259143 
L 361.731989 -162.0437 
L 361.667025 -163.828258 
L 361.700741 -165.612816 
L 361.834629 -167.397374 
L 362.068852 -169.181932 
L 362.402175 -170.96649 
L 362.83193 -172.751047 
L 363.353998 -174.535605 
L 363.962848 -176.320163 
L 364.651598 -178.104721 
L 365.412138 -179.889279 
L 366.235291 -181.673836 
L 367.111019 -183.458394 
L 368.02866 -185.242952 
L 368.97719 -187.02751 
L 369.945505 -188.812068 
L 370.922689 -190.596625 
L 371.898275 -192.381183 
L 372.862472 -194.165741 
L 373.806358 -195.950299 
L 374.722019 -197.734857 
L 375.602648 -199.519414 
L 376.442578 -201.303972 
L 377.23728 -203.08853 
L 377.983313 -204.873088 
L 378.67824 -206.657646 
L 379.320521 -208.442203 
L 379.909395 -210.226761 
L 380.444757 -212.011319 
L 380.927034 -213.795877 
L 381.357087 -215.580435 
L 381.736118 -217.364993 
L 382.065605 -219.14955 
L 382.347253 -220.934108 
L 382.58297 -222.718666 
L 382.774862 -224.503224 
L 382.925232 -226.287782 
L 383.036606 -228.072339 
L 383.111742 -229.856897 
L 383.153659 -231.641455 
L 383.165644 -233.426013 
L 383.151258 -235.210571 
L 383.114323 -236.995128 
L 383.058898 -238.779686 
L 382.98923 -240.564244 
L 382.909692 -242.348802 
L 382.824705 -244.13336 
L 382.738641 -245.917917 
L 382.655721 -247.702475 
L 382.579905 -249.487033 
L 382.514786 -251.271591 
L 382.463484 -253.056149 
L 382.428561 -254.840706 
L 382.41195 -256.625264 
L 382.414906 -258.409822 
L 382.437987 -260.19438 
L 382.481059 -261.978938 
L 382.54333 -263.763496 
L 382.623414 -265.548053 
L 382.719413 -267.332611 
L 382.829015 -269.117169 
L 382.949613 -270.901727 
L 383.078423 -272.686285 
L 383.212599 -274.470842 
L 383.349349 -276.2554 
L 386.176851 -276.2554 
L 386.176851 -276.2554 
L 386.313601 -274.470842 
L 386.447777 -272.686285 
L 386.576587 -270.901727 
L 386.697185 -269.117169 
L 386.806787 -267.332611 
L 386.902786 -265.548053 
L 386.98287 -263.763496 
L 387.045141 -261.978938 
L 387.088213 -260.19438 
L 387.111294 -258.409822 
L 387.11425 -256.625264 
L 387.097639 -254.840706 
L 387.062716 -253.056149 
L 387.011414 -251.271591 
L 386.946295 -249.487033 
L 386.870479 -247.702475 
L 386.787559 -245.917917 
L 386.701495 -244.13336 
L 386.616508 -242.348802 
L 386.53697 -240.564244 
L 386.467302 -238.779686 
L 386.411877 -236.995128 
L 386.374942 -235.210571 
L 386.360556 -233.426013 
L 386.372541 -231.641455 
L 386.414458 -229.856897 
L 386.489594 -228.072339 
L 386.600968 -226.287782 
L 386.751338 -224.503224 
L 386.94323 -222.718666 
L 387.178947 -220.934108 
L 387.460595 -219.14955 
L 387.790082 -217.364993 
L 388.169113 -215.580435 
L 388.599166 -213.795877 
L 389.081443 -212.011319 
L 389.616805 -210.226761 
L 390.205679 -208.442203 
L 390.84796 -206.657646 
L 391.542887 -204.873088 
L 392.28892 -203.08853 
L 393.083622 -201.303972 
L 393.923552 -199.519414 
L 394.804181 -197.734857 
L 395.719842 -195.950299 
L 396.663728 -194.165741 
L 397.627925 -192.381183 
L 398.603511 -190.596625 
L 399.580695 -188.812068 
L 400.54901 -187.02751 
L 401.49754 -185.242952 
L 402.415181 -183.458394 
L 403.290909 -181.673836 
L 404.114062 -179.889279 
L 404.874602 -178.104721 
L 405.563352 -176.320163 
L 406.172202 -174.535605 
L 406.69427 -172.751047 
L 407.124025 -170.96649 
L 407.457348 -169.181932 
L 407.691571 -167.397374 
L 407.825459 -165.612816 
L 407.859175 -163.828258 
L 407.794211 -162.0437 
L 407.633307 -160.259143 
L 407.380352 -158.474585 
L 407.040283 -156.690027 
L 406.618967 -154.905469 
L 406.123083 -153.120911 
L 405.559991 -151.336354 
L 404.93759 -149.551796 
L 404.264168 -147.767238 
L 403.548238 -145.98268 
L 402.798367 -144.198122 
L 402.022998 -142.413565 
L 401.230279 -140.629007 
L 400.427888 -138.844449 
L 399.622894 -137.059891 
L 398.821622 -135.275333 
L 398.029571 -133.490776 
L 397.251354 -131.706218 
L 396.490691 -129.92166 
L 395.750436 -128.137102 
L 395.032647 -126.352544 
L 394.338685 -124.567987 
L 393.669335 -122.783429 
L 393.024946 -120.998871 
L 392.405569 -119.214313 
L 391.811086 -117.429755 
L 391.241328 -115.645197 
L 390.696165 -113.86064 
L 390.175569 -112.076082 
L 389.679644 -110.291524 
L 389.208634 -108.506966 
L 388.762897 -106.722408 
L 388.342865 -104.937851 
L 387.948989 -103.153293 
L 387.58167 -101.368735 
L 387.241201 -99.584177 
z
" id="m046ecbe856" style="stroke:#414141;stroke-width:2;"/>
    </defs>
    <g clip-path="url(#pcd5396697c)">
     <use style="fill:#43a084;stroke:#414141;stroke-width:2;" x="0" xlink:href="#m046ecbe856" y="391.910113"/>
    </g>
   </g>
   <g id="PolyCollection_5">
    <defs>
     <path d="M 483.57932 -117.539804 
L 477.261165 -117.539804 
L 476.924286 -118.343495 
L 476.570218 -119.147186 
L 476.19937 -119.950877 
L 475.811917 -120.754568 
L 475.407716 -121.558259 
L 474.986224 -122.36195 
L 474.546443 -123.165641 
L 474.086887 -123.969332 
L 473.605573 -124.773022 
L 473.100052 -125.576713 
L 472.567475 -126.380404 
L 472.004694 -127.184095 
L 471.408393 -127.987786 
L 470.775251 -128.791477 
L 470.102123 -129.595168 
L 469.386227 -130.398859 
L 468.625334 -131.20255 
L 467.817946 -132.00624 
L 466.963439 -132.809931 
L 466.062185 -133.613622 
L 465.115615 -134.417313 
L 464.12625 -135.221004 
L 463.097665 -136.024695 
L 462.034413 -136.828386 
L 460.941906 -137.632077 
L 459.826255 -138.435768 
L 458.694089 -139.239459 
L 457.552368 -140.043149 
L 456.408193 -140.84684 
L 455.268636 -141.650531 
L 454.140595 -142.454222 
L 453.030695 -143.257913 
L 451.945218 -144.061604 
L 450.890085 -144.865295 
L 449.870876 -145.668986 
L 448.892883 -146.472677 
L 447.961185 -147.276368 
L 447.080729 -148.080058 
L 446.256414 -148.883749 
L 445.493149 -149.68744 
L 444.795887 -150.491131 
L 444.16962 -151.294822 
L 443.619321 -152.098513 
L 443.149854 -152.902204 
L 442.76583 -153.705895 
L 442.471436 -154.509586 
L 442.27024 -155.313277 
L 442.164983 -156.116967 
L 442.157386 -156.920658 
L 442.247975 -157.724349 
L 442.435946 -158.52804 
L 442.719074 -159.331731 
L 443.093692 -160.135422 
L 443.554723 -160.939113 
L 444.095775 -161.742804 
L 444.709305 -162.546495 
L 445.386825 -163.350185 
L 446.119147 -164.153876 
L 446.896666 -164.957567 
L 447.709639 -165.761258 
L 448.548476 -166.564949 
L 449.404005 -167.36864 
L 450.267716 -168.172331 
L 451.131963 -168.976022 
L 451.990123 -169.779713 
L 452.83671 -170.583404 
L 453.667436 -171.387094 
L 454.479229 -172.190785 
L 455.270204 -172.994476 
L 456.039601 -173.798167 
L 456.787678 -174.601858 
L 457.515597 -175.405549 
L 458.225273 -176.20924 
L 458.919222 -177.012931 
L 459.600397 -177.816622 
L 460.272021 -178.620313 
L 460.937431 -179.424003 
L 461.599917 -180.227694 
L 462.262584 -181.031385 
L 462.928216 -181.835076 
L 463.599168 -182.638767 
L 464.277264 -183.442458 
L 464.96373 -184.246149 
L 465.659135 -185.04984 
L 466.363366 -185.853531 
L 467.075623 -186.657222 
L 467.794439 -187.460912 
L 468.517722 -188.264603 
L 469.242821 -189.068294 
L 469.96661 -189.871985 
L 470.685587 -190.675676 
L 471.39599 -191.479367 
L 472.093909 -192.283058 
L 472.775417 -193.086749 
L 473.436685 -193.89044 
L 474.074097 -194.69413 
L 474.684353 -195.497821 
L 475.264554 -196.301512 
L 475.812275 -197.105203 
L 485.028211 -197.105203 
L 485.028211 -197.105203 
L 485.575932 -196.301512 
L 486.156133 -195.497821 
L 486.766389 -194.69413 
L 487.403801 -193.89044 
L 488.065069 -193.086749 
L 488.746577 -192.283058 
L 489.444496 -191.479367 
L 490.154898 -190.675676 
L 490.873876 -189.871985 
L 491.597665 -189.068294 
L 492.322764 -188.264603 
L 493.046047 -187.460912 
L 493.764863 -186.657222 
L 494.47712 -185.853531 
L 495.181351 -185.04984 
L 495.876756 -184.246149 
L 496.563221 -183.442458 
L 497.241318 -182.638767 
L 497.912269 -181.835076 
L 498.577902 -181.031385 
L 499.240568 -180.227694 
L 499.903055 -179.424003 
L 500.568465 -178.620313 
L 501.240089 -177.816622 
L 501.921264 -177.012931 
L 502.615213 -176.20924 
L 503.324889 -175.405549 
L 504.052808 -174.601858 
L 504.800885 -173.798167 
L 505.570281 -172.994476 
L 506.361257 -172.190785 
L 507.17305 -171.387094 
L 508.003776 -170.583404 
L 508.850363 -169.779713 
L 509.708523 -168.976022 
L 510.572769 -168.172331 
L 511.436481 -167.36864 
L 512.29201 -166.564949 
L 513.130847 -165.761258 
L 513.94382 -164.957567 
L 514.721338 -164.153876 
L 515.453661 -163.350185 
L 516.13118 -162.546495 
L 516.744711 -161.742804 
L 517.285763 -160.939113 
L 517.746793 -160.135422 
L 518.121412 -159.331731 
L 518.40454 -158.52804 
L 518.592511 -157.724349 
L 518.6831 -156.920658 
L 518.675503 -156.116967 
L 518.570246 -155.313277 
L 518.36905 -154.509586 
L 518.074656 -153.705895 
L 517.690632 -152.902204 
L 517.221165 -152.098513 
L 516.670866 -151.294822 
L 516.044599 -150.491131 
L 515.347337 -149.68744 
L 514.584072 -148.883749 
L 513.759756 -148.080058 
L 512.879301 -147.276368 
L 511.947603 -146.472677 
L 510.96961 -145.668986 
L 509.950401 -144.865295 
L 508.895268 -144.061604 
L 507.80979 -143.257913 
L 506.69989 -142.454222 
L 505.57185 -141.650531 
L 504.432293 -140.84684 
L 503.288118 -140.043149 
L 502.146397 -139.239459 
L 501.014231 -138.435768 
L 499.898579 -137.632077 
L 498.806072 -136.828386 
L 497.742821 -136.024695 
L 496.714236 -135.221004 
L 495.72487 -134.417313 
L 494.778301 -133.613622 
L 493.877046 -132.809931 
L 493.02254 -132.00624 
L 492.215151 -131.20255 
L 491.454259 -130.398859 
L 490.738363 -129.595168 
L 490.065234 -128.791477 
L 489.432093 -127.987786 
L 488.835791 -127.184095 
L 488.27301 -126.380404 
L 487.740434 -125.576713 
L 487.234913 -124.773022 
L 486.753598 -123.969332 
L 486.294042 -123.165641 
L 485.854262 -122.36195 
L 485.43277 -121.558259 
L 485.028568 -120.754568 
L 484.641116 -119.950877 
L 484.270268 -119.147186 
L 483.9162 -118.343495 
L 483.57932 -117.539804 
z
" id="m88eb2ebda4" style="stroke:#414141;stroke-width:2;"/>
    </defs>
    <g clip-path="url(#pcd5396697c)">
     <use style="fill:#489eaa;stroke:#414141;stroke-width:2;" x="0" xlink:href="#m88eb2ebda4" y="391.910113"/>
    </g>
   </g>
   <g id="PolyCollection_6">
    <defs>
     <path d="M 577.44632 -85.868884 
L 574.708451 -85.868884 
L 574.562558 -87.829618 
L 574.41579 -89.790351 
L 574.270095 -91.751084 
L 574.127232 -93.711817 
L 573.988601 -95.67255 
L 573.855076 -97.633283 
L 573.726835 -99.594016 
L 573.603216 -101.554749 
L 573.482583 -103.515483 
L 573.362249 -105.476216 
L 573.238435 -107.436949 
L 573.10628 -109.397682 
L 572.959926 -111.358415 
L 572.792644 -113.319148 
L 572.597039 -115.279881 
L 572.365301 -117.240614 
L 572.089506 -119.201348 
L 571.761952 -121.162081 
L 571.37553 -123.122814 
L 570.924091 -125.083547 
L 570.402813 -127.04428 
L 569.808546 -129.005013 
L 569.140105 -130.965746 
L 568.398517 -132.926479 
L 567.587179 -134.887213 
L 566.711941 -136.847946 
L 565.781085 -138.808679 
L 564.805201 -140.769412 
L 563.796965 -142.730145 
L 562.770805 -144.690878 
L 561.742495 -146.651611 
L 560.728655 -148.612344 
L 559.746214 -150.573078 
L 558.811833 -152.533811 
L 557.941329 -154.494544 
L 557.149132 -156.455277 
L 556.447788 -158.41601 
L 555.847556 -160.376743 
L 555.356099 -162.337476 
L 554.978307 -164.29821 
L 554.716237 -166.258943 
L 554.569199 -168.219676 
L 554.533955 -170.180409 
L 554.605031 -172.141142 
L 554.77512 -174.101875 
L 555.035541 -176.062608 
L 555.376732 -178.023341 
L 555.788741 -179.984075 
L 556.261688 -181.944808 
L 556.786164 -183.905541 
L 557.353557 -185.866274 
L 557.956277 -187.827007 
L 558.587879 -189.78774 
L 559.243081 -191.748473 
L 559.917688 -193.709206 
L 560.608434 -195.66994 
L 561.312754 -197.630673 
L 562.028524 -199.591406 
L 562.753786 -201.552139 
L 563.486477 -203.512872 
L 564.2242 -205.473605 
L 564.964035 -207.434338 
L 565.702434 -209.395071 
L 566.435167 -211.355805 
L 567.157365 -213.316538 
L 567.863621 -215.277271 
L 568.548158 -217.238004 
L 569.205039 -219.198737 
L 569.828419 -221.15947 
L 570.412799 -223.120203 
L 570.953279 -225.080936 
L 571.445791 -227.04167 
L 571.887293 -229.002403 
L 572.275918 -230.963136 
L 572.611065 -232.923869 
L 572.893433 -234.884602 
L 573.125 -236.845335 
L 573.308938 -238.806068 
L 573.44948 -240.766802 
L 573.551755 -242.727535 
L 573.621569 -244.688268 
L 573.665187 -246.649001 
L 573.689082 -248.609734 
L 573.699703 -250.570467 
L 573.703236 -252.5312 
L 573.705401 -254.491933 
L 573.711264 -256.452667 
L 573.725097 -258.4134 
L 573.750273 -260.374133 
L 573.789209 -262.334866 
L 573.84335 -264.295599 
L 573.913202 -266.256332 
L 573.998401 -268.217065 
L 574.097819 -270.177798 
L 574.209695 -272.138532 
L 574.331783 -274.099265 
L 574.461507 -276.059998 
L 574.596124 -278.020731 
L 574.732864 -279.981464 
L 577.421907 -279.981464 
L 577.421907 -279.981464 
L 577.558647 -278.020731 
L 577.693264 -276.059998 
L 577.822989 -274.099265 
L 577.945076 -272.138532 
L 578.056953 -270.177798 
L 578.156371 -268.217065 
L 578.24157 -266.256332 
L 578.311421 -264.295599 
L 578.365562 -262.334866 
L 578.404498 -260.374133 
L 578.429675 -258.4134 
L 578.443508 -256.452667 
L 578.449371 -254.491933 
L 578.451535 -252.5312 
L 578.455068 -250.570467 
L 578.465689 -248.609734 
L 578.489585 -246.649001 
L 578.533202 -244.688268 
L 578.603017 -242.727535 
L 578.705291 -240.766802 
L 578.845834 -238.806068 
L 579.029771 -236.845335 
L 579.261338 -234.884602 
L 579.543707 -232.923869 
L 579.878853 -230.963136 
L 580.267478 -229.002403 
L 580.708981 -227.04167 
L 581.201493 -225.080936 
L 581.741973 -223.120203 
L 582.326352 -221.15947 
L 582.949733 -219.198737 
L 583.606614 -217.238004 
L 584.29115 -215.277271 
L 584.997407 -213.316538 
L 585.719605 -211.355805 
L 586.452338 -209.395071 
L 587.190736 -207.434338 
L 587.930572 -205.473605 
L 588.668294 -203.512872 
L 589.400986 -201.552139 
L 590.126248 -199.591406 
L 590.842018 -197.630673 
L 591.546337 -195.66994 
L 592.237083 -193.709206 
L 592.911691 -191.748473 
L 593.566893 -189.78774 
L 594.198494 -187.827007 
L 594.801214 -185.866274 
L 595.368607 -183.905541 
L 595.893084 -181.944808 
L 596.36603 -179.984075 
L 596.77804 -178.023341 
L 597.119231 -176.062608 
L 597.379652 -174.101875 
L 597.549741 -172.141142 
L 597.620817 -170.180409 
L 597.585572 -168.219676 
L 597.438534 -166.258943 
L 597.176465 -164.29821 
L 596.798672 -162.337476 
L 596.307216 -160.376743 
L 595.706983 -158.41601 
L 595.00564 -156.455277 
L 594.213442 -154.494544 
L 593.342939 -152.533811 
L 592.408557 -150.573078 
L 591.426116 -148.612344 
L 590.412277 -146.651611 
L 589.383966 -144.690878 
L 588.357807 -142.730145 
L 587.34957 -140.769412 
L 586.373687 -138.808679 
L 585.442831 -136.847946 
L 584.567593 -134.887213 
L 583.756255 -132.926479 
L 583.014666 -130.965746 
L 582.346226 -129.005013 
L 581.751958 -127.04428 
L 581.230681 -125.083547 
L 580.779241 -123.122814 
L 580.392819 -121.162081 
L 580.065266 -119.201348 
L 579.78947 -117.240614 
L 579.557732 -115.279881 
L 579.362128 -113.319148 
L 579.194846 -111.358415 
L 579.048491 -109.397682 
L 578.916337 -107.436949 
L 578.792522 -105.476216 
L 578.672189 -103.515483 
L 578.551556 -101.554749 
L 578.427936 -99.594016 
L 578.299696 -97.633283 
L 578.166171 -95.67255 
L 578.02754 -93.711817 
L 577.884677 -91.751084 
L 577.738982 -89.790351 
L 577.592213 -87.829618 
L 577.44632 -85.868884 
z
" id="mf04300e584" style="stroke:#414141;stroke-width:2;"/>
    </defs>
    <g clip-path="url(#pcd5396697c)">
     <use style="fill:#8fa0e6;stroke:#414141;stroke-width:2;" x="0" xlink:href="#mf04300e584" y="391.910113"/>
    </g>
   </g>
   <g id="PolyCollection_7">
    <defs>
     <path d="M 672.892804 -61.01415 
L 670.576253 -61.01415 
L 670.415722 -64.169046 
L 670.239598 -67.323942 
L 670.047112 -70.478839 
L 669.837508 -73.633735 
L 669.610058 -76.788631 
L 669.364073 -79.943528 
L 669.098928 -83.098424 
L 668.814086 -86.25332 
L 668.509137 -89.408217 
L 668.183838 -92.563113 
L 667.838162 -95.71801 
L 667.472352 -98.872906 
L 667.086969 -102.027802 
L 666.682953 -105.182699 
L 666.261668 -108.337595 
L 665.824943 -111.492491 
L 665.375104 -114.647388 
L 664.914992 -117.802284 
L 664.447958 -120.957181 
L 663.977845 -124.112077 
L 663.508947 -127.266973 
L 663.04595 -130.42187 
L 662.593847 -133.576766 
L 662.157839 -136.731662 
L 661.743228 -139.886559 
L 661.355284 -143.041455 
L 660.999123 -146.196351 
L 660.679571 -149.351248 
L 660.401036 -152.506144 
L 660.167394 -155.661041 
L 659.98188 -158.815937 
L 659.847002 -161.970833 
L 659.764474 -165.12573 
L 659.735169 -168.280626 
L 659.759097 -171.435522 
L 659.835406 -174.590419 
L 659.962406 -177.745315 
L 660.137612 -180.900212 
L 660.35781 -184.055108 
L 660.619135 -187.210004 
L 660.917166 -190.364901 
L 661.247028 -193.519797 
L 661.603513 -196.674693 
L 661.98119 -199.82959 
L 662.374533 -202.984486 
L 662.778044 -206.139382 
L 663.186365 -209.294279 
L 663.594402 -212.449175 
L 663.997425 -215.604072 
L 664.391163 -218.758968 
L 664.771888 -221.913864 
L 665.13648 -225.068761 
L 665.482469 -228.223657 
L 665.808066 -231.378553 
L 666.11216 -234.53345 
L 666.394303 -237.688346 
L 666.654663 -240.843243 
L 666.893967 -243.998139 
L 667.113417 -247.153035 
L 667.314593 -250.307932 
L 667.499348 -253.462828 
L 667.669702 -256.617724 
L 667.827722 -259.772621 
L 667.975429 -262.927517 
L 668.114697 -266.082414 
L 668.247181 -269.23731 
L 668.374257 -272.392206 
L 668.496989 -275.547103 
L 668.616117 -278.701999 
L 668.732064 -281.856895 
L 668.844969 -285.011792 
L 668.954734 -288.166688 
L 669.061084 -291.321584 
L 669.163633 -294.476481 
L 669.261959 -297.631377 
L 669.355668 -300.786274 
L 669.444457 -303.94117 
L 669.528162 -307.096066 
L 669.606795 -310.250963 
L 669.680558 -313.405859 
L 669.749851 -316.560755 
L 669.815252 -319.715652 
L 669.877491 -322.870548 
L 669.93741 -326.025445 
L 669.995914 -329.180341 
L 670.053919 -332.335237 
L 670.112298 -335.490134 
L 670.171833 -338.64503 
L 670.233173 -341.799926 
L 670.296797 -344.954823 
L 670.362998 -348.109719 
L 670.431864 -351.264615 
L 670.503288 -354.419512 
L 670.576974 -357.574408 
L 670.652463 -360.729305 
L 670.729159 -363.884201 
L 670.806371 -367.039097 
L 670.883342 -370.193994 
L 670.959295 -373.34889 
L 672.509762 -373.34889 
L 672.509762 -373.34889 
L 672.585715 -370.193994 
L 672.662686 -367.039097 
L 672.739898 -363.884201 
L 672.816595 -360.729305 
L 672.892083 -357.574408 
L 672.965769 -354.419512 
L 673.037193 -351.264615 
L 673.106059 -348.109719 
L 673.17226 -344.954823 
L 673.235885 -341.799926 
L 673.297224 -338.64503 
L 673.356759 -335.490134 
L 673.415138 -332.335237 
L 673.473143 -329.180341 
L 673.531647 -326.025445 
L 673.591566 -322.870548 
L 673.653805 -319.715652 
L 673.719206 -316.560755 
L 673.788499 -313.405859 
L 673.862262 -310.250963 
L 673.940895 -307.096066 
L 674.0246 -303.94117 
L 674.113389 -300.786274 
L 674.207098 -297.631377 
L 674.305424 -294.476481 
L 674.407973 -291.321584 
L 674.514323 -288.166688 
L 674.624088 -285.011792 
L 674.736993 -281.856895 
L 674.85294 -278.701999 
L 674.972068 -275.547103 
L 675.0948 -272.392206 
L 675.221876 -269.23731 
L 675.35436 -266.082414 
L 675.493628 -262.927517 
L 675.641335 -259.772621 
L 675.799355 -256.617724 
L 675.969709 -253.462828 
L 676.154464 -250.307932 
L 676.35564 -247.153035 
L 676.57509 -243.998139 
L 676.814394 -240.843243 
L 677.074755 -237.688346 
L 677.356897 -234.53345 
L 677.660991 -231.378553 
L 677.986588 -228.223657 
L 678.332577 -225.068761 
L 678.697169 -221.913864 
L 679.077895 -218.758968 
L 679.471632 -215.604072 
L 679.874655 -212.449175 
L 680.282692 -209.294279 
L 680.691014 -206.139382 
L 681.094524 -202.984486 
L 681.487868 -199.82959 
L 681.865545 -196.674693 
L 682.222029 -193.519797 
L 682.551892 -190.364901 
L 682.849922 -187.210004 
L 683.111247 -184.055108 
L 683.331445 -180.900212 
L 683.506651 -177.745315 
L 683.633651 -174.590419 
L 683.70996 -171.435522 
L 683.733888 -168.280626 
L 683.704583 -165.12573 
L 683.622055 -161.970833 
L 683.487178 -158.815937 
L 683.301664 -155.661041 
L 683.068021 -152.506144 
L 682.789486 -149.351248 
L 682.469934 -146.196351 
L 682.113773 -143.041455 
L 681.725829 -139.886559 
L 681.311218 -136.731662 
L 680.875211 -133.576766 
L 680.423107 -130.42187 
L 679.96011 -127.266973 
L 679.491212 -124.112077 
L 679.021099 -120.957181 
L 678.554065 -117.802284 
L 678.093953 -114.647388 
L 677.644114 -111.492491 
L 677.207389 -108.337595 
L 676.786104 -105.182699 
L 676.382088 -102.027802 
L 675.996706 -98.872906 
L 675.630895 -95.71801 
L 675.285219 -92.563113 
L 674.959921 -89.408217 
L 674.654971 -86.25332 
L 674.370129 -83.098424 
L 674.104984 -79.943528 
L 673.858999 -76.788631 
L 673.631549 -73.633735 
L 673.421945 -70.478839 
L 673.229459 -67.323942 
L 673.053335 -64.169046 
L 672.892804 -61.01415 
z
" id="mab5f0d9357" style="stroke:#414141;stroke-width:2;"/>
    </defs>
    <g clip-path="url(#pcd5396697c)">
     <use style="fill:#e270db;stroke:#414141;stroke-width:2;" x="0" xlink:href="#mab5f0d9357" y="391.910113"/>
    </g>
   </g>
   <g id="line2d_1">
    <path clip-path="url(#pcd5396697c)" d="M 49.9631 237.607987 
L 719.5631 237.607987 
" style="fill:none;stroke:#404040;stroke-dasharray:5.55,2.4;stroke-dashoffset:0;stroke-width:1.5;"/>
   </g>
   <g id="line2d_2">
    <path clip-path="url(#pcd5396697c)" d="M 97.791671 341.303478 
L 97.791671 193.500941 
" style="fill:none;stroke:#414141;stroke-linecap:round;stroke-width:2;"/>
   </g>
   <g id="line2d_3">
    <path clip-path="url(#pcd5396697c)" d="M 97.791671 275.592199 
L 97.791671 229.647966 
" style="fill:none;stroke:#414141;stroke-linecap:round;stroke-width:6;"/>
   </g>
   <g id="line2d_4">
    <path clip-path="url(#pcd5396697c)" d="M 193.448814 313.403319 
L 193.448814 194.166449 
" style="fill:none;stroke:#414141;stroke-linecap:round;stroke-width:2;"/>
   </g>
   <g id="line2d_5">
    <path clip-path="url(#pcd5396697c)" d="M 193.448814 262.931097 
L 193.448814 220.92898 
" style="fill:none;stroke:#414141;stroke-linecap:round;stroke-width:6;"/>
   </g>
   <g id="line2d_6">
    <path clip-path="url(#pcd5396697c)" d="M 289.105957 261.253945 
L 289.105957 135.762307 
" style="fill:none;stroke:#414141;stroke-linecap:round;stroke-width:2;"/>
   </g>
   <g id="line2d_7">
    <path clip-path="url(#pcd5396697c)" d="M 289.105957 249.088251 
L 289.105957 200.943381 
" style="fill:none;stroke:#414141;stroke-linecap:round;stroke-width:6;"/>
   </g>
   <g id="line2d_8">
    <path clip-path="url(#pcd5396697c)" d="M 384.7631 273.906018 
L 384.7631 190.788609 
" style="fill:none;stroke:#414141;stroke-linecap:round;stroke-width:2;"/>
   </g>
   <g id="line2d_9">
    <path clip-path="url(#pcd5396697c)" d="M 384.7631 243.387862 
L 384.7631 214.976603 
" style="fill:none;stroke:#414141;stroke-linecap:round;stroke-width:6;"/>
   </g>
   <g id="line2d_10">
    <path clip-path="url(#pcd5396697c)" d="M 480.420243 265.125208 
L 480.420243 204.050009 
" style="fill:none;stroke:#414141;stroke-linecap:round;stroke-width:2;"/>
   </g>
   <g id="line2d_11">
    <path clip-path="url(#pcd5396697c)" d="M 480.420243 245.523109 
L 480.420243 223.027585 
" style="fill:none;stroke:#414141;stroke-linecap:round;stroke-width:6;"/>
   </g>
   <g id="line2d_12">
    <path clip-path="url(#pcd5396697c)" d="M 576.077386 246.322894 
L 576.077386 184.883733 
" style="fill:none;stroke:#414141;stroke-linecap:round;stroke-width:2;"/>
   </g>
   <g id="line2d_13">
    <path clip-path="url(#pcd5396697c)" d="M 576.077386 232.401744 
L 576.077386 201.191197 
" style="fill:none;stroke:#414141;stroke-linecap:round;stroke-width:6;"/>
   </g>
   <g id="line2d_14">
    <path clip-path="url(#pcd5396697c)" d="M 671.734529 296.066826 
L 671.734529 118.841583 
" style="fill:none;stroke:#414141;stroke-linecap:round;stroke-width:2;"/>
   </g>
   <g id="line2d_15">
    <path clip-path="url(#pcd5396697c)" d="M 671.734529 235.035413 
L 671.734529 180.955877 
" style="fill:none;stroke:#414141;stroke-linecap:round;stroke-width:6;"/>
   </g>
   <g id="patch_3">
    <path d="M 49.9631 368.071987 
L 49.9631 41.911987 
" style="fill:none;stroke:#262626;stroke-linecap:square;stroke-linejoin:miter;stroke-width:1.25;"/>
   </g>
   <g id="patch_4">
    <path d="M 719.5631 368.071987 
L 719.5631 41.911987 
" style="fill:none;stroke:#262626;stroke-linecap:square;stroke-linejoin:miter;stroke-width:1.25;"/>
   </g>
   <g id="patch_5">
    <path d="M 49.9631 368.071988 
L 719.5631 368.071988 
" style="fill:none;stroke:#262626;stroke-linecap:square;stroke-linejoin:miter;stroke-width:1.25;"/>
   </g>
   <g id="patch_6">
    <path d="M 49.9631 41.911988 
L 719.5631 41.911988 
" style="fill:none;stroke:#262626;stroke-linecap:square;stroke-linejoin:miter;stroke-width:1.25;"/>
   </g>
   <g id="PathCollection_1">
    <defs>
     <path d="M 0 2 
C 0.530406 2 1.03916 1.789267 1.414214 1.414214 
C 1.789267 1.03916 2 0.530406 2 0 
C 2 -0.530406 1.789267 -1.03916 1.414214 -1.414214 
C 1.03916 -1.789267 0.530406 -2 0 -2 
C -0.530406 -2 -1.03916 -1.789267 -1.414214 -1.414214 
C -1.789267 -1.03916 -2 -0.530406 -2 0 
C -2 0.530406 -1.789267 1.03916 -1.414214 1.414214 
C -1.03916 1.789267 -0.530406 2 0 2 
z
" id="m344cdfffc0" style="stroke:#414141;"/>
    </defs>
    <g clip-path="url(#pcd5396697c)">
     <use style="fill:#ffffff;stroke:#414141;" x="97.791671" xlink:href="#m344cdfffc0" y="245.450879"/>
    </g>
   </g>
   <g id="PathCollection_2">
    <g clip-path="url(#pcd5396697c)">
     <use style="fill:#ffffff;stroke:#414141;" x="193.448814" xlink:href="#m344cdfffc0" y="226.769195"/>
    </g>
   </g>
   <g id="PathCollection_3">
    <g clip-path="url(#pcd5396697c)">
     <use style="fill:#ffffff;stroke:#414141;" x="289.105957" xlink:href="#m344cdfffc0" y="226.904132"/>
    </g>
   </g>
   <g id="PathCollection_4">
    <g clip-path="url(#pcd5396697c)">
     <use style="fill:#ffffff;stroke:#414141;" x="384.7631" xlink:href="#m344cdfffc0" y="227.148333"/>
    </g>
   </g>
   <g id="PathCollection_5">
    <g clip-path="url(#pcd5396697c)">
     <use style="fill:#ffffff;stroke:#414141;" x="480.420243" xlink:href="#m344cdfffc0" y="234.552986"/>
    </g>
   </g>
   <g id="PathCollection_6">
    <g clip-path="url(#pcd5396697c)">
     <use style="fill:#ffffff;stroke:#414141;" x="576.077386" xlink:href="#m344cdfffc0" y="222.223339"/>
    </g>
   </g>
   <g id="PathCollection_7">
    <g clip-path="url(#pcd5396697c)">
     <use style="fill:#ffffff;stroke:#414141;" x="671.734529" xlink:href="#m344cdfffc0" y="216.520395"/>
    </g>
   </g>
   <g id="text_15">
    <!-- Accidents after the start of DST in California (20012016) -->
    <defs>
     <path d="M 58.796875 25.09375 
L 68.265625 22.703125 
Q 65.28125 11.03125 57.546875 4.90625 
Q 49.8125 -1.21875 38.625 -1.21875 
Q 27.046875 -1.21875 19.796875 3.484375 
Q 12.546875 8.203125 8.765625 17.140625 
Q 4.984375 26.078125 4.984375 36.328125 
Q 4.984375 47.515625 9.25 55.828125 
Q 13.53125 64.15625 21.40625 68.46875 
Q 29.296875 72.796875 38.765625 72.796875 
Q 49.515625 72.796875 56.828125 67.328125 
Q 64.15625 61.859375 67.046875 51.953125 
L 57.71875 49.75 
Q 55.21875 57.5625 50.484375 61.125 
Q 45.75 64.703125 38.578125 64.703125 
Q 30.328125 64.703125 24.78125 60.734375 
Q 19.234375 56.78125 16.984375 50.109375 
Q 14.75 43.453125 14.75 36.375 
Q 14.75 27.25 17.40625 20.4375 
Q 20.0625 13.625 25.671875 10.25 
Q 31.296875 6.890625 37.84375 6.890625 
Q 45.796875 6.890625 51.3125 11.46875 
Q 56.84375 16.0625 58.796875 25.09375 
z
" id="ArialMT-43"/>
     <path d="M 6.390625 0 
L 6.390625 71.578125 
L 15.1875 71.578125 
L 15.1875 0 
z
" id="ArialMT-6c"/>
     <path d="M -0.203125 22.359375 
L -0.203125 29.4375 
L 55.421875 29.4375 
L 55.421875 22.359375 
z
" id="ArialMT-2013"/>
    </defs>
    <g style="fill:#262626;" transform="translate(54.5631 26.127187)scale(0.26 -0.26)">
     <use xlink:href="#ArialMT-41"/>
     <use x="66.699219" xlink:href="#ArialMT-63"/>
     <use x="116.699219" xlink:href="#ArialMT-63"/>
     <use x="166.699219" xlink:href="#ArialMT-69"/>
     <use x="188.916016" xlink:href="#ArialMT-64"/>
     <use x="244.53125" xlink:href="#ArialMT-65"/>
     <use x="300.146484" xlink:href="#ArialMT-6e"/>
     <use x="355.761719" xlink:href="#ArialMT-74"/>
     <use x="383.544922" xlink:href="#ArialMT-73"/>
     <use x="433.544922" xlink:href="#ArialMT-20"/>
     <use x="461.328125" xlink:href="#ArialMT-61"/>
     <use x="516.943359" xlink:href="#ArialMT-66"/>
     <use x="544.726562" xlink:href="#ArialMT-74"/>
     <use x="572.509766" xlink:href="#ArialMT-65"/>
     <use x="628.125" xlink:href="#ArialMT-72"/>
     <use x="661.425781" xlink:href="#ArialMT-20"/>
     <use x="689.208984" xlink:href="#ArialMT-74"/>
     <use x="716.992188" xlink:href="#ArialMT-68"/>
     <use x="772.607422" xlink:href="#ArialMT-65"/>
     <use x="828.222656" xlink:href="#ArialMT-20"/>
     <use x="856.005859" xlink:href="#ArialMT-73"/>
     <use x="906.005859" xlink:href="#ArialMT-74"/>
     <use x="933.789062" xlink:href="#ArialMT-61"/>
     <use x="989.404297" xlink:href="#ArialMT-72"/>
     <use x="1022.705078" xlink:href="#ArialMT-74"/>
     <use x="1050.488281" xlink:href="#ArialMT-20"/>
     <use x="1078.271484" xlink:href="#ArialMT-6f"/>
     <use x="1133.886719" xlink:href="#ArialMT-66"/>
     <use x="1161.669922" xlink:href="#ArialMT-20"/>
     <use x="1189.453125" xlink:href="#ArialMT-44"/>
     <use x="1261.669922" xlink:href="#ArialMT-53"/>
     <use x="1328.369141" xlink:href="#ArialMT-54"/>
     <use x="1389.4375" xlink:href="#ArialMT-20"/>
     <use x="1417.220703" xlink:href="#ArialMT-69"/>
     <use x="1439.4375" xlink:href="#ArialMT-6e"/>
     <use x="1495.052734" xlink:href="#ArialMT-20"/>
     <use x="1522.835938" xlink:href="#ArialMT-43"/>
     <use x="1595.052734" xlink:href="#ArialMT-61"/>
     <use x="1650.667969" xlink:href="#ArialMT-6c"/>
     <use x="1672.884766" xlink:href="#ArialMT-69"/>
     <use x="1695.101562" xlink:href="#ArialMT-66"/>
     <use x="1722.884766" xlink:href="#ArialMT-6f"/>
     <use x="1778.5" xlink:href="#ArialMT-72"/>
     <use x="1811.800781" xlink:href="#ArialMT-6e"/>
     <use x="1867.416016" xlink:href="#ArialMT-69"/>
     <use x="1889.632812" xlink:href="#ArialMT-61"/>
     <use x="1945.248047" xlink:href="#ArialMT-20"/>
     <use x="1973.03125" xlink:href="#ArialMT-28"/>
     <use x="2006.332031" xlink:href="#ArialMT-32"/>
     <use x="2061.947266" xlink:href="#ArialMT-30"/>
     <use x="2117.5625" xlink:href="#ArialMT-30"/>
     <use x="2173.177734" xlink:href="#ArialMT-31"/>
     <use x="2228.792969" xlink:href="#ArialMT-2013"/>
     <use x="2284.408203" xlink:href="#ArialMT-32"/>
     <use x="2340.023438" xlink:href="#ArialMT-30"/>
     <use x="2395.638672" xlink:href="#ArialMT-31"/>
     <use x="2451.253906" xlink:href="#ArialMT-36"/>
     <use x="2506.869141" xlink:href="#ArialMT-29"/>
    </g>
   </g>
  </g>
 </g>
 <defs>
  <clipPath id="pcd5396697c">
   <rect height="326.16" width="669.6" x="49.9631" y="41.911988"/>
  </clipPath>
 </defs>
</svg>
