<?xml version="1.0" encoding="utf-8" standalone="no"?>
<!DOCTYPE svg PUBLIC "-//W3C//DTD SVG 1.1//EN"
  "http://www.w3.org/Graphics/SVG/1.1/DTD/svg11.dtd">
<!-- Created with matplotlib (http://matplotlib.org/) -->
<svg height="403pt" version="1.1" viewBox="0 0 731 403" width="731pt" xmlns="http://www.w3.org/2000/svg" xmlns:xlink="http://www.w3.org/1999/xlink">
 <defs>
  <style type="text/css">
*{stroke-linecap:butt;stroke-linejoin:round;stroke-miterlimit:100000;}
  </style>
 </defs>
 <g id="figure_1">
  <g id="patch_1">
   <path d="M 0 403.309312 
L 731.2631 403.309312 
L 731.2631 0 
L 0 0 
z
" style="fill:#ffffff;"/>
  </g>
  <g id="axes_1">
   <g id="patch_2">
    <path d="M 54.4631 375.971187 
L 724.0631 375.971187 
L 724.0631 41.171187 
L 54.4631 41.171187 
z
" style="fill:#ffffff;"/>
   </g>
   <g id="matplotlib.axis_1">
    <g id="xtick_1">
     <g id="line2d_1"/>
     <g id="line2d_2"/>
     <g id="text_1">
      <!-- Sunday (DST) -->
      <defs>
       <path d="M 40.4375 6.390625 
Q 35.546875 2.25 31.03125 0.53125 
Q 26.515625 -1.171875 21.34375 -1.171875 
Q 12.796875 -1.171875 8.203125 3 
Q 3.609375 7.171875 3.609375 13.671875 
Q 3.609375 17.484375 5.34375 20.625 
Q 7.078125 23.78125 9.890625 25.6875 
Q 12.703125 27.59375 16.21875 28.5625 
Q 18.796875 29.25 24.03125 29.890625 
Q 34.671875 31.15625 39.703125 32.90625 
Q 39.75 34.71875 39.75 35.203125 
Q 39.75 40.578125 37.25 42.78125 
Q 33.890625 45.75 27.25 45.75 
Q 21.046875 45.75 18.09375 43.578125 
Q 15.140625 41.40625 13.71875 35.890625 
L 5.125 37.0625 
Q 6.296875 42.578125 8.984375 45.96875 
Q 11.671875 49.359375 16.75 51.1875 
Q 21.828125 53.03125 28.515625 53.03125 
Q 35.15625 53.03125 39.296875 51.46875 
Q 43.453125 49.90625 45.40625 47.53125 
Q 47.359375 45.171875 48.140625 41.546875 
Q 48.578125 39.3125 48.578125 33.453125 
L 48.578125 21.734375 
Q 48.578125 9.46875 49.140625 6.21875 
Q 49.703125 2.984375 51.375 0 
L 42.1875 0 
Q 40.828125 2.734375 40.4375 6.390625 
M 39.703125 26.03125 
Q 34.90625 24.078125 25.34375 22.703125 
Q 19.921875 21.921875 17.671875 20.9375 
Q 15.4375 19.96875 14.203125 18.09375 
Q 12.984375 16.21875 12.984375 13.921875 
Q 12.984375 10.40625 15.640625 8.0625 
Q 18.3125 5.71875 23.4375 5.71875 
Q 28.515625 5.71875 32.46875 7.9375 
Q 36.421875 10.15625 38.28125 14.015625 
Q 39.703125 17 39.703125 22.796875 
z
" id="ArialMT-61"/>
       <path d="M 6.203125 -19.96875 
L 5.21875 -11.71875 
Q 8.109375 -12.5 10.25 -12.5 
Q 13.1875 -12.5 14.9375 -11.515625 
Q 16.703125 -10.546875 17.828125 -8.796875 
Q 18.65625 -7.46875 20.515625 -2.25 
Q 20.75 -1.515625 21.296875 -0.09375 
L 1.609375 51.859375 
L 11.078125 51.859375 
L 21.875 21.828125 
Q 23.96875 16.109375 25.640625 9.8125 
Q 27.15625 15.875 29.25 21.625 
L 40.328125 51.859375 
L 49.125 51.859375 
L 29.390625 -0.875 
Q 26.21875 -9.421875 24.46875 -12.640625 
Q 22.125 -17 19.09375 -19.015625 
Q 16.0625 -21.046875 11.859375 -21.046875 
Q 9.328125 -21.046875 6.203125 -19.96875 
" id="ArialMT-79"/>
       <path d="M 12.359375 -21.046875 
L 6.0625 -21.046875 
Q 20.65625 2.390625 20.65625 25.875 
Q 20.65625 35.0625 18.5625 44.09375 
Q 16.890625 51.421875 13.921875 58.15625 
Q 12.015625 62.546875 6.0625 72.796875 
L 12.359375 72.796875 
Q 21.53125 60.546875 25.921875 48.1875 
Q 29.6875 37.546875 29.6875 25.921875 
Q 29.6875 12.75 24.625 0.4375 
Q 19.578125 -11.859375 12.359375 -21.046875 
" id="ArialMT-29"/>
       <path d="M 40.234375 0 
L 40.234375 6.546875 
Q 35.296875 -1.171875 25.734375 -1.171875 
Q 19.53125 -1.171875 14.328125 2.25 
Q 9.125 5.671875 6.265625 11.796875 
Q 3.421875 17.921875 3.421875 25.875 
Q 3.421875 33.640625 6 39.96875 
Q 8.59375 46.296875 13.765625 49.65625 
Q 18.953125 53.03125 25.34375 53.03125 
Q 30.03125 53.03125 33.6875 51.046875 
Q 37.359375 49.078125 39.65625 45.90625 
L 39.65625 71.578125 
L 48.390625 71.578125 
L 48.390625 0 
z
M 12.453125 25.875 
Q 12.453125 15.921875 16.640625 10.984375 
Q 20.84375 6.0625 26.5625 6.0625 
Q 32.328125 6.0625 36.34375 10.765625 
Q 40.375 15.484375 40.375 25.140625 
Q 40.375 35.796875 36.265625 40.765625 
Q 32.171875 45.75 26.171875 45.75 
Q 20.3125 45.75 16.375 40.96875 
Q 12.453125 36.1875 12.453125 25.875 
" id="ArialMT-64"/>
       <path d="M 4.5 23 
L 13.421875 23.78125 
Q 14.0625 18.40625 16.375 14.96875 
Q 18.703125 11.53125 23.578125 9.40625 
Q 28.46875 7.28125 34.578125 7.28125 
Q 39.984375 7.28125 44.140625 8.890625 
Q 48.296875 10.5 50.3125 13.296875 
Q 52.34375 16.109375 52.34375 19.4375 
Q 52.34375 22.796875 50.390625 25.3125 
Q 48.4375 27.828125 43.953125 29.546875 
Q 41.0625 30.671875 31.203125 33.03125 
Q 21.34375 35.40625 17.390625 37.5 
Q 12.25 40.1875 9.734375 44.15625 
Q 7.234375 48.140625 7.234375 53.078125 
Q 7.234375 58.5 10.296875 63.203125 
Q 13.375 67.921875 19.28125 70.359375 
Q 25.203125 72.796875 32.421875 72.796875 
Q 40.375 72.796875 46.453125 70.234375 
Q 52.546875 67.671875 55.8125 62.6875 
Q 59.078125 57.71875 59.328125 51.421875 
L 50.25 50.734375 
Q 49.515625 57.515625 45.28125 60.984375 
Q 41.0625 64.453125 32.8125 64.453125 
Q 24.21875 64.453125 20.28125 61.296875 
Q 16.359375 58.15625 16.359375 53.71875 
Q 16.359375 49.859375 19.140625 47.359375 
Q 21.875 44.875 33.421875 42.265625 
Q 44.96875 39.65625 49.265625 37.703125 
Q 55.515625 34.8125 58.484375 30.390625 
Q 61.46875 25.984375 61.46875 20.21875 
Q 61.46875 14.5 58.203125 9.4375 
Q 54.9375 4.390625 48.796875 1.578125 
Q 42.671875 -1.21875 35.015625 -1.21875 
Q 25.296875 -1.21875 18.71875 1.609375 
Q 12.15625 4.4375 8.421875 10.125 
Q 4.6875 15.828125 4.5 23 
" id="ArialMT-53"/>
       <path d="M 23.390625 -21.046875 
Q 16.109375 -11.859375 11.078125 0.4375 
Q 6.0625 12.75 6.0625 25.921875 
Q 6.0625 37.546875 9.8125 48.1875 
Q 14.203125 60.546875 23.390625 72.796875 
L 29.6875 72.796875 
Q 23.78125 62.640625 21.875 58.296875 
Q 18.890625 51.5625 17.1875 44.234375 
Q 15.09375 35.109375 15.09375 25.875 
Q 15.09375 2.390625 29.6875 -21.046875 
z
" id="ArialMT-28"/>
       <path d="M 7.71875 0 
L 7.71875 71.578125 
L 32.375 71.578125 
Q 40.71875 71.578125 45.125 70.5625 
Q 51.265625 69.140625 55.609375 65.4375 
Q 61.28125 60.640625 64.078125 53.1875 
Q 66.890625 45.75 66.890625 36.1875 
Q 66.890625 28.03125 64.984375 21.734375 
Q 63.09375 15.4375 60.109375 11.296875 
Q 57.125 7.171875 53.578125 4.796875 
Q 50.046875 2.4375 45.046875 1.21875 
Q 40.046875 0 33.546875 0 
z
M 17.1875 8.453125 
L 32.46875 8.453125 
Q 39.546875 8.453125 43.578125 9.765625 
Q 47.609375 11.078125 50 13.484375 
Q 53.375 16.84375 55.25 22.53125 
Q 57.125 28.21875 57.125 36.328125 
Q 57.125 47.5625 53.4375 53.59375 
Q 49.75 59.625 44.484375 61.671875 
Q 40.671875 63.140625 32.234375 63.140625 
L 17.1875 63.140625 
z
" id="ArialMT-44"/>
       <path d="M 25.921875 0 
L 25.921875 63.140625 
L 2.34375 63.140625 
L 2.34375 71.578125 
L 59.078125 71.578125 
L 59.078125 63.140625 
L 35.40625 63.140625 
L 35.40625 0 
z
" id="ArialMT-54"/>
       <path d="M 6.59375 0 
L 6.59375 51.859375 
L 14.5 51.859375 
L 14.5 44.484375 
Q 20.21875 53.03125 31 53.03125 
Q 35.6875 53.03125 39.625 51.34375 
Q 43.5625 49.65625 45.515625 46.921875 
Q 47.46875 44.1875 48.25 40.4375 
Q 48.734375 37.984375 48.734375 31.890625 
L 48.734375 0 
L 39.9375 0 
L 39.9375 31.546875 
Q 39.9375 36.921875 38.90625 39.578125 
Q 37.890625 42.234375 35.28125 43.8125 
Q 32.671875 45.40625 29.15625 45.40625 
Q 23.53125 45.40625 19.453125 41.84375 
Q 15.375 38.28125 15.375 28.328125 
L 15.375 0 
z
" id="ArialMT-6e"/>
       <path d="M 40.578125 0 
L 40.578125 7.625 
Q 34.515625 -1.171875 24.125 -1.171875 
Q 19.53125 -1.171875 15.546875 0.578125 
Q 11.578125 2.34375 9.640625 5 
Q 7.71875 7.671875 6.9375 11.53125 
Q 6.390625 14.109375 6.390625 19.734375 
L 6.390625 51.859375 
L 15.1875 51.859375 
L 15.1875 23.09375 
Q 15.1875 16.21875 15.71875 13.8125 
Q 16.546875 10.359375 19.234375 8.375 
Q 21.921875 6.390625 25.875 6.390625 
Q 29.828125 6.390625 33.296875 8.421875 
Q 36.765625 10.453125 38.203125 13.9375 
Q 39.65625 17.4375 39.65625 24.078125 
L 39.65625 51.859375 
L 48.4375 51.859375 
L 48.4375 0 
z
" id="ArialMT-75"/>
       <path id="ArialMT-20"/>
      </defs>
      <g style="fill:#262626;" transform="translate(57.9455776786 393.16275)scale(0.14 -0.14)">
       <use xlink:href="#ArialMT-53"/>
       <use x="66.69921875" xlink:href="#ArialMT-75"/>
       <use x="122.314453125" xlink:href="#ArialMT-6e"/>
       <use x="177.9296875" xlink:href="#ArialMT-64"/>
       <use x="233.544921875" xlink:href="#ArialMT-61"/>
       <use x="289.16015625" xlink:href="#ArialMT-79"/>
       <use x="339.16015625" xlink:href="#ArialMT-20"/>
       <use x="366.943359375" xlink:href="#ArialMT-28"/>
       <use x="400.244140625" xlink:href="#ArialMT-44"/>
       <use x="472.4609375" xlink:href="#ArialMT-53"/>
       <use x="539.16015625" xlink:href="#ArialMT-54"/>
       <use x="600.244140625" xlink:href="#ArialMT-29"/>
      </g>
     </g>
    </g>
    <g id="xtick_2">
     <g id="line2d_3"/>
     <g id="line2d_4"/>
     <g id="text_2">
      <!-- Monday -->
      <defs>
       <path d="M 7.421875 0 
L 7.421875 71.578125 
L 21.6875 71.578125 
L 38.625 20.90625 
Q 40.96875 13.8125 42.046875 10.296875 
Q 43.265625 14.203125 45.84375 21.78125 
L 62.984375 71.578125 
L 75.734375 71.578125 
L 75.734375 0 
L 66.609375 0 
L 66.609375 59.90625 
L 45.796875 0 
L 37.25 0 
L 16.546875 60.9375 
L 16.546875 0 
z
" id="ArialMT-4d"/>
       <path d="M 3.328125 25.921875 
Q 3.328125 40.328125 11.328125 47.265625 
Q 18.015625 53.03125 27.640625 53.03125 
Q 38.328125 53.03125 45.109375 46.015625 
Q 51.90625 39.015625 51.90625 26.65625 
Q 51.90625 16.65625 48.90625 10.90625 
Q 45.90625 5.171875 40.15625 2 
Q 34.421875 -1.171875 27.640625 -1.171875 
Q 16.75 -1.171875 10.03125 5.8125 
Q 3.328125 12.796875 3.328125 25.921875 
M 12.359375 25.921875 
Q 12.359375 15.96875 16.703125 11.015625 
Q 21.046875 6.0625 27.640625 6.0625 
Q 34.1875 6.0625 38.53125 11.03125 
Q 42.875 16.015625 42.875 26.21875 
Q 42.875 35.84375 38.5 40.796875 
Q 34.125 45.75 27.640625 45.75 
Q 21.046875 45.75 16.703125 40.8125 
Q 12.359375 35.890625 12.359375 25.921875 
" id="ArialMT-6f"/>
      </defs>
      <g style="fill:#262626;" transform="translate(173.047408036 392.992125)scale(0.14 -0.14)">
       <use xlink:href="#ArialMT-4d"/>
       <use x="83.30078125" xlink:href="#ArialMT-6f"/>
       <use x="138.916015625" xlink:href="#ArialMT-6e"/>
       <use x="194.53125" xlink:href="#ArialMT-64"/>
       <use x="250.146484375" xlink:href="#ArialMT-61"/>
       <use x="305.76171875" xlink:href="#ArialMT-79"/>
      </g>
     </g>
    </g>
    <g id="xtick_3">
     <g id="line2d_5"/>
     <g id="line2d_6"/>
     <g id="text_3">
      <!-- Tuesday -->
      <defs>
       <path d="M 42.09375 16.703125 
L 51.171875 15.578125 
Q 49.03125 7.625 43.21875 3.21875 
Q 37.40625 -1.171875 28.375 -1.171875 
Q 17 -1.171875 10.328125 5.828125 
Q 3.65625 12.84375 3.65625 25.484375 
Q 3.65625 38.578125 10.390625 45.796875 
Q 17.140625 53.03125 27.875 53.03125 
Q 38.28125 53.03125 44.875 45.953125 
Q 51.46875 38.875 51.46875 26.03125 
Q 51.46875 25.25 51.421875 23.6875 
L 12.75 23.6875 
Q 13.234375 15.140625 17.578125 10.59375 
Q 21.921875 6.0625 28.421875 6.0625 
Q 33.25 6.0625 36.671875 8.59375 
Q 40.09375 11.140625 42.09375 16.703125 
M 13.234375 30.90625 
L 42.1875 30.90625 
Q 41.609375 37.453125 38.875 40.71875 
Q 34.671875 45.796875 27.984375 45.796875 
Q 21.921875 45.796875 17.796875 41.75 
Q 13.671875 37.703125 13.234375 30.90625 
" id="ArialMT-65"/>
       <path d="M 3.078125 15.484375 
L 11.765625 16.84375 
Q 12.5 11.625 15.84375 8.84375 
Q 19.1875 6.0625 25.203125 6.0625 
Q 31.25 6.0625 34.171875 8.515625 
Q 37.109375 10.984375 37.109375 14.3125 
Q 37.109375 17.28125 34.515625 19 
Q 32.71875 20.171875 25.53125 21.96875 
Q 15.875 24.421875 12.140625 26.203125 
Q 8.40625 27.984375 6.46875 31.125 
Q 4.546875 34.28125 4.546875 38.09375 
Q 4.546875 41.546875 6.125 44.5 
Q 7.71875 47.46875 10.453125 49.421875 
Q 12.5 50.921875 16.03125 51.96875 
Q 19.578125 53.03125 23.640625 53.03125 
Q 29.734375 53.03125 34.34375 51.265625 
Q 38.96875 49.515625 41.15625 46.5 
Q 43.359375 43.5 44.1875 38.484375 
L 35.59375 37.3125 
Q 35.015625 41.3125 32.203125 43.546875 
Q 29.390625 45.796875 24.265625 45.796875 
Q 18.21875 45.796875 15.625 43.796875 
Q 13.03125 41.796875 13.03125 39.109375 
Q 13.03125 37.40625 14.109375 36.03125 
Q 15.1875 34.625 17.484375 33.6875 
Q 18.796875 33.203125 25.25 31.453125 
Q 34.578125 28.953125 38.25 27.359375 
Q 41.9375 25.78125 44.03125 22.75 
Q 46.140625 19.734375 46.140625 15.234375 
Q 46.140625 10.84375 43.578125 6.953125 
Q 41.015625 3.078125 36.171875 0.953125 
Q 31.34375 -1.171875 25.25 -1.171875 
Q 15.140625 -1.171875 9.84375 3.03125 
Q 4.546875 7.234375 3.078125 15.484375 
" id="ArialMT-73"/>
      </defs>
      <g style="fill:#262626;" transform="translate(266.763144643 392.992125)scale(0.14 -0.14)">
       <use xlink:href="#ArialMT-54"/>
       <use x="61.037109375" xlink:href="#ArialMT-75"/>
       <use x="116.65234375" xlink:href="#ArialMT-65"/>
       <use x="172.267578125" xlink:href="#ArialMT-73"/>
       <use x="222.267578125" xlink:href="#ArialMT-64"/>
       <use x="277.8828125" xlink:href="#ArialMT-61"/>
       <use x="333.498046875" xlink:href="#ArialMT-79"/>
      </g>
     </g>
    </g>
    <g id="xtick_4">
     <g id="line2d_7"/>
     <g id="line2d_8"/>
     <g id="text_4">
      <!-- Wednesday -->
      <defs>
       <path d="M 20.21875 0 
L 1.21875 71.578125 
L 10.9375 71.578125 
L 21.828125 24.65625 
Q 23.578125 17.28125 24.859375 10.015625 
Q 27.59375 21.484375 28.078125 23.25 
L 41.703125 71.578125 
L 53.125 71.578125 
L 63.375 35.359375 
Q 67.234375 21.875 68.953125 10.015625 
Q 70.3125 16.796875 72.515625 25.59375 
L 83.734375 71.578125 
L 93.265625 71.578125 
L 73.640625 0 
L 64.5 0 
L 49.421875 54.546875 
Q 47.515625 61.375 47.171875 62.9375 
Q 46.046875 58.015625 45.0625 54.546875 
L 29.890625 0 
z
" id="ArialMT-57"/>
      </defs>
      <g style="fill:#262626;" transform="translate(352.3009125 392.992125)scale(0.14 -0.14)">
       <use xlink:href="#ArialMT-57"/>
       <use x="94.369140625" xlink:href="#ArialMT-65"/>
       <use x="149.984375" xlink:href="#ArialMT-64"/>
       <use x="205.599609375" xlink:href="#ArialMT-6e"/>
       <use x="261.21484375" xlink:href="#ArialMT-65"/>
       <use x="316.830078125" xlink:href="#ArialMT-73"/>
       <use x="366.830078125" xlink:href="#ArialMT-64"/>
       <use x="422.4453125" xlink:href="#ArialMT-61"/>
       <use x="478.060546875" xlink:href="#ArialMT-79"/>
      </g>
     </g>
    </g>
    <g id="xtick_5">
     <g id="line2d_9"/>
     <g id="line2d_10"/>
     <g id="text_5">
      <!-- Thursday -->
      <defs>
       <path d="M 6.59375 0 
L 6.59375 71.578125 
L 15.375 71.578125 
L 15.375 45.90625 
Q 21.53125 53.03125 30.90625 53.03125 
Q 36.671875 53.03125 40.921875 50.75 
Q 45.171875 48.484375 47 44.484375 
Q 48.828125 40.484375 48.828125 32.859375 
L 48.828125 0 
L 40.046875 0 
L 40.046875 32.859375 
Q 40.046875 39.453125 37.1875 42.453125 
Q 34.328125 45.453125 29.109375 45.453125 
Q 25.203125 45.453125 21.75 43.421875 
Q 18.3125 41.40625 16.84375 37.9375 
Q 15.375 34.46875 15.375 28.375 
L 15.375 0 
z
" id="ArialMT-68"/>
       <path d="M 6.5 0 
L 6.5 51.859375 
L 14.40625 51.859375 
L 14.40625 44 
Q 17.4375 49.515625 20 51.265625 
Q 22.5625 53.03125 25.640625 53.03125 
Q 30.078125 53.03125 34.671875 50.203125 
L 31.640625 42.046875 
Q 28.421875 43.953125 25.203125 43.953125 
Q 22.3125 43.953125 20.015625 42.21875 
Q 17.71875 40.484375 16.75 37.40625 
Q 15.28125 32.71875 15.28125 27.15625 
L 15.28125 0 
z
" id="ArialMT-72"/>
      </defs>
      <g style="fill:#262626;" transform="translate(455.743367857 392.992125)scale(0.14 -0.14)">
       <use xlink:href="#ArialMT-54"/>
       <use x="61.083984375" xlink:href="#ArialMT-68"/>
       <use x="116.69921875" xlink:href="#ArialMT-75"/>
       <use x="172.314453125" xlink:href="#ArialMT-72"/>
       <use x="205.615234375" xlink:href="#ArialMT-73"/>
       <use x="255.615234375" xlink:href="#ArialMT-64"/>
       <use x="311.23046875" xlink:href="#ArialMT-61"/>
       <use x="366.845703125" xlink:href="#ArialMT-79"/>
      </g>
     </g>
    </g>
    <g id="xtick_6">
     <g id="line2d_11"/>
     <g id="line2d_12"/>
     <g id="text_6">
      <!-- Friday -->
      <defs>
       <path d="M 6.640625 61.46875 
L 6.640625 71.578125 
L 15.4375 71.578125 
L 15.4375 61.46875 
z
M 6.640625 0 
L 6.640625 51.859375 
L 15.4375 51.859375 
L 15.4375 0 
z
" id="ArialMT-69"/>
       <path d="M 8.203125 0 
L 8.203125 71.578125 
L 56.5 71.578125 
L 56.5 63.140625 
L 17.671875 63.140625 
L 17.671875 40.96875 
L 51.265625 40.96875 
L 51.265625 32.515625 
L 17.671875 32.515625 
L 17.671875 0 
z
" id="ArialMT-46"/>
      </defs>
      <g style="fill:#262626;" transform="translate(561.130510714 392.992125)scale(0.14 -0.14)">
       <use xlink:href="#ArialMT-46"/>
       <use x="61.083984375" xlink:href="#ArialMT-72"/>
       <use x="94.384765625" xlink:href="#ArialMT-69"/>
       <use x="116.6015625" xlink:href="#ArialMT-64"/>
       <use x="172.216796875" xlink:href="#ArialMT-61"/>
       <use x="227.83203125" xlink:href="#ArialMT-79"/>
      </g>
     </g>
    </g>
    <g id="xtick_7">
     <g id="line2d_13"/>
     <g id="line2d_14"/>
     <g id="text_7">
      <!-- Saturday -->
      <defs>
       <path d="M 25.78125 7.859375 
L 27.046875 0.09375 
Q 23.34375 -0.6875 20.40625 -0.6875 
Q 15.625 -0.6875 12.984375 0.828125 
Q 10.359375 2.34375 9.28125 4.8125 
Q 8.203125 7.28125 8.203125 15.1875 
L 8.203125 45.015625 
L 1.765625 45.015625 
L 1.765625 51.859375 
L 8.203125 51.859375 
L 8.203125 64.703125 
L 16.9375 69.96875 
L 16.9375 51.859375 
L 25.78125 51.859375 
L 25.78125 45.015625 
L 16.9375 45.015625 
L 16.9375 14.703125 
Q 16.9375 10.9375 17.40625 9.859375 
Q 17.875 8.796875 18.921875 8.15625 
Q 19.96875 7.515625 21.921875 7.515625 
Q 23.390625 7.515625 25.78125 7.859375 
" id="ArialMT-74"/>
      </defs>
      <g style="fill:#262626;" transform="translate(648.219216071 393.16275)scale(0.14 -0.14)">
       <use xlink:href="#ArialMT-53"/>
       <use x="66.69921875" xlink:href="#ArialMT-61"/>
       <use x="122.314453125" xlink:href="#ArialMT-74"/>
       <use x="150.09765625" xlink:href="#ArialMT-75"/>
       <use x="205.712890625" xlink:href="#ArialMT-72"/>
       <use x="239.013671875" xlink:href="#ArialMT-64"/>
       <use x="294.62890625" xlink:href="#ArialMT-61"/>
       <use x="350.244140625" xlink:href="#ArialMT-79"/>
      </g>
     </g>
    </g>
   </g>
   <g id="matplotlib.axis_2">
    <g id="ytick_1">
     <g id="line2d_15"/>
     <g id="line2d_16"/>
     <g id="text_8">
      <!-- 0.4 -->
      <defs>
       <path d="M 4.15625 35.296875 
Q 4.15625 48 6.765625 55.734375 
Q 9.375 63.484375 14.515625 67.671875 
Q 19.671875 71.875 27.484375 71.875 
Q 33.25 71.875 37.59375 69.546875 
Q 41.9375 67.234375 44.765625 62.859375 
Q 47.609375 58.5 49.21875 52.21875 
Q 50.828125 45.953125 50.828125 35.296875 
Q 50.828125 22.703125 48.234375 14.96875 
Q 45.65625 7.234375 40.5 3 
Q 35.359375 -1.21875 27.484375 -1.21875 
Q 17.140625 -1.21875 11.234375 6.203125 
Q 4.15625 15.140625 4.15625 35.296875 
M 13.1875 35.296875 
Q 13.1875 17.671875 17.3125 11.828125 
Q 21.4375 6 27.484375 6 
Q 33.546875 6 37.671875 11.859375 
Q 41.796875 17.71875 41.796875 35.296875 
Q 41.796875 52.984375 37.671875 58.78125 
Q 33.546875 64.59375 27.390625 64.59375 
Q 21.34375 64.59375 17.71875 59.46875 
Q 13.1875 52.9375 13.1875 35.296875 
" id="ArialMT-30"/>
       <path d="M 9.078125 0 
L 9.078125 10.015625 
L 19.09375 10.015625 
L 19.09375 0 
z
" id="ArialMT-2e"/>
       <path d="M 32.328125 0 
L 32.328125 17.140625 
L 1.265625 17.140625 
L 1.265625 25.203125 
L 33.9375 71.578125 
L 41.109375 71.578125 
L 41.109375 25.203125 
L 50.78125 25.203125 
L 50.78125 17.140625 
L 41.109375 17.140625 
L 41.109375 0 
z
M 32.328125 25.203125 
L 32.328125 57.46875 
L 9.90625 25.203125 
z
" id="ArialMT-34"/>
      </defs>
      <g style="fill:#262626;" transform="translate(28.0031 379.59040625)scale(0.14 -0.14)">
       <use xlink:href="#ArialMT-30"/>
       <use x="55.615234375" xlink:href="#ArialMT-2e"/>
       <use x="83.3984375" xlink:href="#ArialMT-34"/>
      </g>
     </g>
    </g>
    <g id="ytick_2">
     <g id="line2d_17"/>
     <g id="line2d_18"/>
     <g id="text_9">
      <!-- 0.6 -->
      <defs>
       <path d="M 49.75 54.046875 
L 41.015625 53.375 
Q 39.84375 58.546875 37.703125 60.890625 
Q 34.125 64.65625 28.90625 64.65625 
Q 24.703125 64.65625 21.53125 62.3125 
Q 17.390625 59.28125 14.984375 53.46875 
Q 12.59375 47.65625 12.5 36.921875 
Q 15.671875 41.75 20.265625 44.09375 
Q 24.859375 46.4375 29.890625 46.4375 
Q 38.671875 46.4375 44.84375 39.96875 
Q 51.03125 33.5 51.03125 23.25 
Q 51.03125 16.5 48.125 10.71875 
Q 45.21875 4.9375 40.140625 1.859375 
Q 35.0625 -1.21875 28.609375 -1.21875 
Q 17.625 -1.21875 10.6875 6.859375 
Q 3.765625 14.9375 3.765625 33.5 
Q 3.765625 54.25 11.421875 63.671875 
Q 18.109375 71.875 29.4375 71.875 
Q 37.890625 71.875 43.28125 67.140625 
Q 48.6875 62.40625 49.75 54.046875 
M 13.875 23.1875 
Q 13.875 18.65625 15.796875 14.5 
Q 17.71875 10.359375 21.1875 8.171875 
Q 24.65625 6 28.46875 6 
Q 34.03125 6 38.03125 10.484375 
Q 42.046875 14.984375 42.046875 22.703125 
Q 42.046875 30.125 38.078125 34.390625 
Q 34.125 38.671875 28.125 38.671875 
Q 22.171875 38.671875 18.015625 34.390625 
Q 13.875 30.125 13.875 23.1875 
" id="ArialMT-36"/>
      </defs>
      <g style="fill:#262626;" transform="translate(28.0031 331.761834821)scale(0.14 -0.14)">
       <use xlink:href="#ArialMT-30"/>
       <use x="55.615234375" xlink:href="#ArialMT-2e"/>
       <use x="83.3984375" xlink:href="#ArialMT-36"/>
      </g>
     </g>
    </g>
    <g id="ytick_3">
     <g id="line2d_19"/>
     <g id="line2d_20"/>
     <g id="text_10">
      <!-- 0.8 -->
      <defs>
       <path d="M 17.671875 38.8125 
Q 12.203125 40.828125 9.5625 44.53125 
Q 6.9375 48.25 6.9375 53.421875 
Q 6.9375 61.234375 12.546875 66.546875 
Q 18.171875 71.875 27.484375 71.875 
Q 36.859375 71.875 42.578125 66.421875 
Q 48.296875 60.984375 48.296875 53.171875 
Q 48.296875 48.1875 45.671875 44.5 
Q 43.0625 40.828125 37.75 38.8125 
Q 44.34375 36.671875 47.78125 31.875 
Q 51.21875 27.09375 51.21875 20.453125 
Q 51.21875 11.28125 44.71875 5.03125 
Q 38.234375 -1.21875 27.640625 -1.21875 
Q 17.046875 -1.21875 10.546875 5.046875 
Q 4.046875 11.328125 4.046875 20.703125 
Q 4.046875 27.6875 7.59375 32.390625 
Q 11.140625 37.109375 17.671875 38.8125 
M 15.921875 53.71875 
Q 15.921875 48.640625 19.1875 45.40625 
Q 22.46875 42.1875 27.6875 42.1875 
Q 32.765625 42.1875 36.015625 45.375 
Q 39.265625 48.578125 39.265625 53.21875 
Q 39.265625 58.0625 35.90625 61.359375 
Q 32.5625 64.65625 27.59375 64.65625 
Q 22.5625 64.65625 19.234375 61.421875 
Q 15.921875 58.203125 15.921875 53.71875 
M 13.09375 20.65625 
Q 13.09375 16.890625 14.875 13.375 
Q 16.65625 9.859375 20.171875 7.921875 
Q 23.6875 6 27.734375 6 
Q 34.03125 6 38.125 10.046875 
Q 42.234375 14.109375 42.234375 20.359375 
Q 42.234375 26.703125 38.015625 30.859375 
Q 33.796875 35.015625 27.4375 35.015625 
Q 21.234375 35.015625 17.15625 30.90625 
Q 13.09375 26.8125 13.09375 20.65625 
" id="ArialMT-38"/>
      </defs>
      <g style="fill:#262626;" transform="translate(28.0031 283.933263393)scale(0.14 -0.14)">
       <use xlink:href="#ArialMT-30"/>
       <use x="55.615234375" xlink:href="#ArialMT-2e"/>
       <use x="83.3984375" xlink:href="#ArialMT-38"/>
      </g>
     </g>
    </g>
    <g id="ytick_4">
     <g id="line2d_21"/>
     <g id="line2d_22"/>
     <g id="text_11">
      <!-- 1.0 -->
      <defs>
       <path d="M 37.25 0 
L 28.46875 0 
L 28.46875 56 
Q 25.296875 52.984375 20.140625 49.953125 
Q 14.984375 46.921875 10.890625 45.40625 
L 10.890625 53.90625 
Q 18.265625 57.375 23.78125 62.296875 
Q 29.296875 67.234375 31.59375 71.875 
L 37.25 71.875 
z
" id="ArialMT-31"/>
      </defs>
      <g style="fill:#262626;" transform="translate(28.0031 236.104691964)scale(0.14 -0.14)">
       <use xlink:href="#ArialMT-31"/>
       <use x="55.615234375" xlink:href="#ArialMT-2e"/>
       <use x="83.3984375" xlink:href="#ArialMT-30"/>
      </g>
     </g>
    </g>
    <g id="ytick_5">
     <g id="line2d_23"/>
     <g id="line2d_24"/>
     <g id="text_12">
      <!-- 1.2 -->
      <defs>
       <path d="M 50.34375 8.453125 
L 50.34375 0 
L 3.03125 0 
Q 2.9375 3.171875 4.046875 6.109375 
Q 5.859375 10.9375 9.828125 15.625 
Q 13.8125 20.3125 21.34375 26.46875 
Q 33.015625 36.03125 37.109375 41.625 
Q 41.21875 47.21875 41.21875 52.203125 
Q 41.21875 57.421875 37.46875 61 
Q 33.734375 64.59375 27.734375 64.59375 
Q 21.390625 64.59375 17.578125 60.78125 
Q 13.765625 56.984375 13.71875 50.25 
L 4.6875 51.171875 
Q 5.609375 61.28125 11.65625 66.578125 
Q 17.71875 71.875 27.9375 71.875 
Q 38.234375 71.875 44.234375 66.15625 
Q 50.25 60.453125 50.25 52 
Q 50.25 47.703125 48.484375 43.546875 
Q 46.734375 39.40625 42.65625 34.8125 
Q 38.578125 30.21875 29.109375 22.21875 
Q 21.1875 15.578125 18.9375 13.203125 
Q 16.703125 10.84375 15.234375 8.453125 
z
" id="ArialMT-32"/>
      </defs>
      <g style="fill:#262626;" transform="translate(28.0031 188.276120536)scale(0.14 -0.14)">
       <use xlink:href="#ArialMT-31"/>
       <use x="55.615234375" xlink:href="#ArialMT-2e"/>
       <use x="83.3984375" xlink:href="#ArialMT-32"/>
      </g>
     </g>
    </g>
    <g id="ytick_6">
     <g id="line2d_25"/>
     <g id="line2d_26"/>
     <g id="text_13">
      <!-- 1.4 -->
      <g style="fill:#262626;" transform="translate(28.0031 140.447549107)scale(0.14 -0.14)">
       <use xlink:href="#ArialMT-31"/>
       <use x="55.615234375" xlink:href="#ArialMT-2e"/>
       <use x="83.3984375" xlink:href="#ArialMT-34"/>
      </g>
     </g>
    </g>
    <g id="ytick_7">
     <g id="line2d_27"/>
     <g id="line2d_28"/>
     <g id="text_14">
      <!-- 1.6 -->
      <g style="fill:#262626;" transform="translate(28.0031 92.6189776786)scale(0.14 -0.14)">
       <use xlink:href="#ArialMT-31"/>
       <use x="55.615234375" xlink:href="#ArialMT-2e"/>
       <use x="83.3984375" xlink:href="#ArialMT-36"/>
      </g>
     </g>
    </g>
    <g id="ytick_8">
     <g id="line2d_29"/>
     <g id="line2d_30"/>
     <g id="text_15">
      <!-- 1.8 -->
      <g style="fill:#262626;" transform="translate(28.0031 44.79040625)scale(0.14 -0.14)">
       <use xlink:href="#ArialMT-31"/>
       <use x="55.615234375" xlink:href="#ArialMT-2e"/>
       <use x="83.3984375" xlink:href="#ArialMT-38"/>
      </g>
     </g>
    </g>
    <g id="text_16">
     <!-- Accident Ratio: DST Week / Week After -->
     <defs>
      <path d="M 40.4375 19 
L 49.078125 17.875 
Q 47.65625 8.9375 41.8125 3.875 
Q 35.984375 -1.171875 27.484375 -1.171875 
Q 16.84375 -1.171875 10.375 5.78125 
Q 3.90625 12.75 3.90625 25.734375 
Q 3.90625 34.125 6.6875 40.421875 
Q 9.46875 46.734375 15.15625 49.875 
Q 20.84375 53.03125 27.546875 53.03125 
Q 35.984375 53.03125 41.359375 48.75 
Q 46.734375 44.484375 48.25 36.625 
L 39.703125 35.296875 
Q 38.484375 40.53125 35.375 43.15625 
Q 32.28125 45.796875 27.875 45.796875 
Q 21.234375 45.796875 17.078125 41.03125 
Q 12.9375 36.28125 12.9375 25.984375 
Q 12.9375 15.53125 16.9375 10.796875 
Q 20.953125 6.0625 27.390625 6.0625 
Q 32.5625 6.0625 36.03125 9.234375 
Q 39.5 12.40625 40.4375 19 
" id="ArialMT-63"/>
      <path d="M 7.859375 0 
L 7.859375 71.578125 
L 39.59375 71.578125 
Q 49.171875 71.578125 54.140625 69.640625 
Q 59.125 67.71875 62.109375 62.828125 
Q 65.09375 57.953125 65.09375 52.046875 
Q 65.09375 44.4375 60.15625 39.203125 
Q 55.21875 33.984375 44.921875 32.5625 
Q 48.6875 30.765625 50.640625 29 
Q 54.78125 25.203125 58.5 19.484375 
L 70.953125 0 
L 59.03125 0 
L 49.5625 14.890625 
Q 45.40625 21.34375 42.71875 24.75 
Q 40.046875 28.171875 37.921875 29.53125 
Q 35.796875 30.90625 33.59375 31.453125 
Q 31.984375 31.78125 28.328125 31.78125 
L 17.328125 31.78125 
L 17.328125 0 
z
M 17.328125 39.984375 
L 37.703125 39.984375 
Q 44.1875 39.984375 47.84375 41.328125 
Q 51.515625 42.671875 53.421875 45.625 
Q 55.328125 48.578125 55.328125 52.046875 
Q 55.328125 57.125 51.640625 60.390625 
Q 47.953125 63.671875 39.984375 63.671875 
L 17.328125 63.671875 
z
" id="ArialMT-52"/>
      <path d="M -0.140625 0 
L 27.34375 71.578125 
L 37.546875 71.578125 
L 66.84375 0 
L 56.0625 0 
L 47.703125 21.6875 
L 17.78125 21.6875 
L 9.90625 0 
z
M 20.515625 29.390625 
L 44.78125 29.390625 
L 37.3125 49.21875 
Q 33.890625 58.25 32.234375 64.0625 
Q 30.859375 57.171875 28.375 50.390625 
z
" id="ArialMT-41"/>
      <path d="M 0 -1.21875 
L 20.75 72.796875 
L 27.78125 72.796875 
L 7.078125 -1.21875 
z
" id="ArialMT-2f"/>
      <path d="M 6.640625 0 
L 6.640625 71.578125 
L 15.4375 71.578125 
L 15.4375 30.765625 
L 36.234375 51.859375 
L 47.609375 51.859375 
L 27.78125 32.625 
L 49.609375 0 
L 38.765625 0 
L 21.625 26.515625 
L 15.4375 20.5625 
L 15.4375 0 
z
" id="ArialMT-6b"/>
      <path d="M 9.03125 41.84375 
L 9.03125 51.859375 
L 19.046875 51.859375 
L 19.046875 41.84375 
z
M 9.03125 0 
L 9.03125 10.015625 
L 19.046875 10.015625 
L 19.046875 0 
z
" id="ArialMT-3a"/>
      <path d="M 8.6875 0 
L 8.6875 45.015625 
L 0.921875 45.015625 
L 0.921875 51.859375 
L 8.6875 51.859375 
L 8.6875 57.375 
Q 8.6875 62.59375 9.625 65.140625 
Q 10.890625 68.5625 14.078125 70.671875 
Q 17.28125 72.796875 23.046875 72.796875 
Q 26.765625 72.796875 31.25 71.921875 
L 29.9375 64.265625 
Q 27.203125 64.75 24.75 64.75 
Q 20.75 64.75 19.09375 63.03125 
Q 17.4375 61.328125 17.4375 56.640625 
L 17.4375 51.859375 
L 27.546875 51.859375 
L 27.546875 45.015625 
L 17.4375 45.015625 
L 17.4375 0 
z
" id="ArialMT-66"/>
     </defs>
     <g style="fill:#262626;" transform="translate(19.5687 360.7634375)rotate(-90.0)scale(0.1728 -0.1728)">
      <use xlink:href="#ArialMT-41"/>
      <use x="66.69921875" xlink:href="#ArialMT-63"/>
      <use x="116.69921875" xlink:href="#ArialMT-63"/>
      <use x="166.69921875" xlink:href="#ArialMT-69"/>
      <use x="188.916015625" xlink:href="#ArialMT-64"/>
      <use x="244.53125" xlink:href="#ArialMT-65"/>
      <use x="300.146484375" xlink:href="#ArialMT-6e"/>
      <use x="355.76171875" xlink:href="#ArialMT-74"/>
      <use x="383.544921875" xlink:href="#ArialMT-20"/>
      <use x="411.328125" xlink:href="#ArialMT-52"/>
      <use x="483.544921875" xlink:href="#ArialMT-61"/>
      <use x="539.16015625" xlink:href="#ArialMT-74"/>
      <use x="566.943359375" xlink:href="#ArialMT-69"/>
      <use x="589.16015625" xlink:href="#ArialMT-6f"/>
      <use x="644.775390625" xlink:href="#ArialMT-3a"/>
      <use x="672.55859375" xlink:href="#ArialMT-20"/>
      <use x="700.341796875" xlink:href="#ArialMT-44"/>
      <use x="772.55859375" xlink:href="#ArialMT-53"/>
      <use x="839.2578125" xlink:href="#ArialMT-54"/>
      <use x="900.326171875" xlink:href="#ArialMT-20"/>
      <use x="928.109375" xlink:href="#ArialMT-57"/>
      <use x="1022.47851562" xlink:href="#ArialMT-65"/>
      <use x="1078.09375" xlink:href="#ArialMT-65"/>
      <use x="1133.70898438" xlink:href="#ArialMT-6b"/>
      <use x="1183.70898438" xlink:href="#ArialMT-20"/>
      <use x="1211.4921875" xlink:href="#ArialMT-2f"/>
      <use x="1239.27539062" xlink:href="#ArialMT-20"/>
      <use x="1267.05859375" xlink:href="#ArialMT-57"/>
      <use x="1361.42773438" xlink:href="#ArialMT-65"/>
      <use x="1417.04296875" xlink:href="#ArialMT-65"/>
      <use x="1472.65820312" xlink:href="#ArialMT-6b"/>
      <use x="1522.65820312" xlink:href="#ArialMT-20"/>
      <use x="1550.36328125" xlink:href="#ArialMT-41"/>
      <use x="1617.0625" xlink:href="#ArialMT-66"/>
      <use x="1644.84570312" xlink:href="#ArialMT-74"/>
      <use x="1672.62890625" xlink:href="#ArialMT-65"/>
      <use x="1728.24414062" xlink:href="#ArialMT-72"/>
     </g>
    </g>
   </g>
   <g id="PolyCollection_1">
    <defs>
     <path d="M 103.632199 -78.197092 
L 100.951144 -78.197092 
L 100.810118 -79.627019 
L 100.662865 -81.056947 
L 100.509989 -82.486874 
L 100.352105 -83.916802 
L 100.189816 -85.346729 
L 100.023683 -86.776657 
L 99.854205 -88.206584 
L 99.681802 -89.636512 
L 99.506797 -91.066439 
L 99.329414 -92.496367 
L 99.149773 -93.926294 
L 98.967895 -95.356222 
L 98.783719 -96.786149 
L 98.597114 -98.216077 
L 98.407896 -99.646004 
L 98.215856 -101.075931 
L 98.020771 -102.505859 
L 97.822429 -103.935786 
L 97.620638 -105.365714 
L 97.415236 -106.795641 
L 97.206094 -108.225569 
L 96.993109 -109.655496 
L 96.776199 -111.085424 
L 96.555286 -112.515351 
L 96.330278 -113.945279 
L 96.101054 -115.375206 
L 95.867444 -116.805134 
L 95.62921 -118.235061 
L 95.386044 -119.664989 
L 95.137553 -121.094916 
L 94.883268 -122.524843 
L 94.622648 -123.954771 
L 94.355098 -125.384698 
L 94.079993 -126.814626 
L 93.796704 -128.244553 
L 93.504632 -129.674481 
L 93.203245 -131.104408 
L 92.892117 -132.534336 
L 92.570967 -133.964263 
L 92.239696 -135.394191 
L 91.898428 -136.824118 
L 91.547543 -138.254046 
L 91.187706 -139.683973 
L 90.819901 -141.113901 
L 90.445445 -142.543828 
L 90.066008 -143.973755 
L 89.683624 -145.403683 
L 89.300681 -146.83361 
L 88.919922 -148.263538 
L 88.544415 -149.693465 
L 88.177522 -151.123393 
L 87.822854 -152.55332 
L 87.484214 -153.983248 
L 87.165523 -155.413175 
L 86.870744 -156.843103 
L 86.603795 -158.27303 
L 86.368456 -159.702958 
L 86.168276 -161.132885 
L 86.006486 -162.562812 
L 85.885911 -163.99274 
L 85.8089 -165.422667 
L 85.777269 -166.852595 
L 85.792255 -168.282522 
L 85.854492 -169.71245 
L 85.964007 -171.142377 
L 86.12023 -172.572305 
L 86.322028 -174.002232 
L 86.567744 -175.43216 
L 86.855256 -176.862087 
L 87.182043 -178.292015 
L 87.54525 -179.721942 
L 87.941766 -181.15187 
L 88.368291 -182.581797 
L 88.821399 -184.011724 
L 89.297602 -185.441652 
L 89.793401 -186.871579 
L 90.305328 -188.301507 
L 90.829985 -189.731434 
L 91.364068 -191.161362 
L 91.90439 -192.591289 
L 92.447898 -194.021217 
L 92.99168 -195.451144 
L 93.532974 -196.881072 
L 94.069172 -198.310999 
L 94.597828 -199.740927 
L 95.116659 -201.170854 
L 95.623547 -202.600782 
L 96.116551 -204.030709 
L 96.593903 -205.460636 
L 97.054023 -206.890564 
L 97.495521 -208.320491 
L 97.917199 -209.750419 
L 98.318065 -211.180346 
L 98.69733 -212.610274 
L 99.054412 -214.040201 
L 99.388939 -215.470129 
L 99.700744 -216.900056 
L 99.989859 -218.329984 
L 100.256512 -219.759911 
L 104.32683 -219.759911 
L 104.32683 -219.759911 
L 104.593483 -218.329984 
L 104.882599 -216.900056 
L 105.194404 -215.470129 
L 105.528931 -214.040201 
L 105.886013 -212.610274 
L 106.265278 -211.180346 
L 106.666144 -209.750419 
L 107.087822 -208.320491 
L 107.529319 -206.890564 
L 107.98944 -205.460636 
L 108.466792 -204.030709 
L 108.959796 -202.600782 
L 109.466684 -201.170854 
L 109.985515 -199.740927 
L 110.514171 -198.310999 
L 111.050369 -196.881072 
L 111.591663 -195.451144 
L 112.135444 -194.021217 
L 112.678952 -192.591289 
L 113.219275 -191.161362 
L 113.753358 -189.731434 
L 114.278015 -188.301507 
L 114.789942 -186.871579 
L 115.285741 -185.441652 
L 115.761944 -184.011724 
L 116.215052 -182.581797 
L 116.641576 -181.15187 
L 117.038093 -179.721942 
L 117.4013 -178.292015 
L 117.728086 -176.862087 
L 118.015599 -175.43216 
L 118.261314 -174.002232 
L 118.463112 -172.572305 
L 118.619336 -171.142377 
L 118.728851 -169.71245 
L 118.791088 -168.282522 
L 118.806074 -166.852595 
L 118.774443 -165.422667 
L 118.697432 -163.99274 
L 118.576857 -162.562812 
L 118.415067 -161.132885 
L 118.214887 -159.702958 
L 117.979548 -158.27303 
L 117.712599 -156.843103 
L 117.41782 -155.413175 
L 117.099129 -153.983248 
L 116.760488 -152.55332 
L 116.405821 -151.123393 
L 116.038928 -149.693465 
L 115.663421 -148.263538 
L 115.282662 -146.83361 
L 114.899719 -145.403683 
L 114.517334 -143.973755 
L 114.137898 -142.543828 
L 113.763442 -141.113901 
L 113.395637 -139.683973 
L 113.0358 -138.254046 
L 112.684915 -136.824118 
L 112.343647 -135.394191 
L 112.012376 -133.964263 
L 111.691225 -132.534336 
L 111.380098 -131.104408 
L 111.078711 -129.674481 
L 110.786639 -128.244553 
L 110.50335 -126.814626 
L 110.228245 -125.384698 
L 109.960695 -123.954771 
L 109.700075 -122.524843 
L 109.44579 -121.094916 
L 109.197299 -119.664989 
L 108.954132 -118.235061 
L 108.715899 -116.805134 
L 108.482288 -115.375206 
L 108.253065 -113.945279 
L 108.028057 -112.515351 
L 107.807144 -111.085424 
L 107.590234 -109.655496 
L 107.377249 -108.225569 
L 107.168107 -106.795641 
L 106.962705 -105.365714 
L 106.760914 -103.935786 
L 106.562572 -102.505859 
L 106.367487 -101.075931 
L 106.175447 -99.646004 
L 105.986229 -98.216077 
L 105.799624 -96.786149 
L 105.615448 -95.356222 
L 105.43357 -93.926294 
L 105.253928 -92.496367 
L 105.076545 -91.066439 
L 104.901541 -89.636512 
L 104.729138 -88.206584 
L 104.55966 -86.776657 
L 104.393527 -85.346729 
L 104.231237 -83.916802 
L 104.073354 -82.486874 
L 103.920478 -81.056947 
L 103.773225 -79.627019 
L 103.632199 -78.197092 
z
" id="m46b2786dc5" style="stroke:#474747;stroke-width:2.0;"/>
    </defs>
    <g clip-path="url(#pfeea0f6862)">
     <use style="fill:#ea96a3;stroke:#474747;stroke-width:2.0;" x="0.0" xlink:href="#m46b2786dc5" y="403.3093125"/>
    </g>
   </g>
   <g id="PolyCollection_2">
    <defs>
     <path d="M 200.077254 -99.445711 
L 195.820374 -99.445711 
L 195.600436 -100.648077 
L 195.37013 -101.850443 
L 195.130631 -103.052809 
L 194.88332 -104.255175 
L 194.629772 -105.45754 
L 194.371729 -106.659906 
L 194.111076 -107.862272 
L 193.849798 -109.064638 
L 193.589945 -110.267004 
L 193.333585 -111.46937 
L 193.082749 -112.671736 
L 192.839388 -113.874102 
L 192.605313 -115.076468 
L 192.38215 -116.278833 
L 192.171287 -117.481199 
L 191.973835 -118.683565 
L 191.79059 -119.885931 
L 191.622002 -121.088297 
L 191.468156 -122.290663 
L 191.328766 -123.493029 
L 191.203169 -124.695395 
L 191.090344 -125.897761 
L 190.988925 -127.100126 
L 190.897241 -128.302492 
L 190.813351 -129.504858 
L 190.735089 -130.707224 
L 190.660121 -131.90959 
L 190.585996 -133.111956 
L 190.510204 -134.314322 
L 190.430229 -135.516688 
L 190.343604 -136.719054 
L 190.247959 -137.921419 
L 190.141061 -139.123785 
L 190.020852 -140.326151 
L 189.885478 -141.528517 
L 189.733311 -142.730883 
L 189.562964 -143.933249 
L 189.373301 -145.135615 
L 189.163446 -146.337981 
L 188.932781 -147.540347 
L 188.680949 -148.742712 
L 188.407856 -149.945078 
L 188.113671 -151.147444 
L 187.798832 -152.34981 
L 187.464046 -153.552176 
L 187.110303 -154.754542 
L 186.738884 -155.956908 
L 186.351369 -157.159274 
L 185.949649 -158.36164 
L 185.535937 -159.564005 
L 185.112767 -160.766371 
L 184.682996 -161.968737 
L 184.249793 -163.171103 
L 183.816624 -164.373469 
L 183.387217 -165.575835 
L 182.965528 -166.778201 
L 182.555687 -167.980567 
L 182.161938 -169.182933 
L 181.788569 -170.385298 
L 181.439835 -171.587664 
L 181.119875 -172.79003 
L 180.832633 -173.992396 
L 180.581772 -175.194762 
L 180.370603 -176.397128 
L 180.202011 -177.599494 
L 180.078404 -178.80186 
L 180.001663 -180.004226 
L 179.973115 -181.206591 
L 179.993518 -182.408957 
L 180.063064 -183.611323 
L 180.181392 -184.813689 
L 180.347621 -186.016055 
L 180.56039 -187.218421 
L 180.817908 -188.420787 
L 181.118012 -189.623153 
L 181.458224 -190.825519 
L 181.835816 -192.027884 
L 182.247865 -193.23025 
L 182.691307 -194.432616 
L 183.162989 -195.634982 
L 183.659706 -196.837348 
L 184.178237 -198.039714 
L 184.715372 -199.24208 
L 185.267928 -200.444446 
L 185.832768 -201.646812 
L 186.406805 -202.849178 
L 186.987012 -204.051543 
L 187.570425 -205.253909 
L 188.154149 -206.456275 
L 188.735365 -207.658641 
L 189.311336 -208.861007 
L 189.879424 -210.063373 
L 190.437097 -211.265739 
L 190.981956 -212.468105 
L 191.511747 -213.670471 
L 192.024387 -214.872836 
L 192.517986 -216.075202 
L 192.990867 -217.277568 
L 193.441585 -218.479934 
L 202.456044 -218.479934 
L 202.456044 -218.479934 
L 202.906762 -217.277568 
L 203.379643 -216.075202 
L 203.873242 -214.872836 
L 204.385882 -213.670471 
L 204.915673 -212.468105 
L 205.460532 -211.265739 
L 206.018205 -210.063373 
L 206.586292 -208.861007 
L 207.162264 -207.658641 
L 207.743479 -206.456275 
L 208.327204 -205.253909 
L 208.910617 -204.051543 
L 209.490824 -202.849178 
L 210.064861 -201.646812 
L 210.6297 -200.444446 
L 211.182257 -199.24208 
L 211.719391 -198.039714 
L 212.237922 -196.837348 
L 212.734639 -195.634982 
L 213.206321 -194.432616 
L 213.649764 -193.23025 
L 214.061812 -192.027884 
L 214.439404 -190.825519 
L 214.779617 -189.623153 
L 215.07972 -188.420787 
L 215.337238 -187.218421 
L 215.550008 -186.016055 
L 215.716237 -184.813689 
L 215.834565 -183.611323 
L 215.90411 -182.408957 
L 215.924514 -181.206591 
L 215.895965 -180.004226 
L 215.819224 -178.80186 
L 215.695617 -177.599494 
L 215.527026 -176.397128 
L 215.315857 -175.194762 
L 215.064996 -173.992396 
L 214.777754 -172.79003 
L 214.457794 -171.587664 
L 214.109059 -170.385298 
L 213.73569 -169.182933 
L 213.341941 -167.980567 
L 212.9321 -166.778201 
L 212.510411 -165.575835 
L 212.081005 -164.373469 
L 211.647835 -163.171103 
L 211.214633 -161.968737 
L 210.784862 -160.766371 
L 210.361692 -159.564005 
L 209.947979 -158.36164 
L 209.54626 -157.159274 
L 209.158744 -155.956908 
L 208.787325 -154.754542 
L 208.433583 -153.552176 
L 208.098797 -152.34981 
L 207.783957 -151.147444 
L 207.489773 -149.945078 
L 207.21668 -148.742712 
L 206.964848 -147.540347 
L 206.734182 -146.337981 
L 206.524327 -145.135615 
L 206.334665 -143.933249 
L 206.164318 -142.730883 
L 206.012151 -141.528517 
L 205.876777 -140.326151 
L 205.756568 -139.123785 
L 205.64967 -137.921419 
L 205.554024 -136.719054 
L 205.4674 -135.516688 
L 205.387425 -134.314322 
L 205.311632 -133.111956 
L 205.237507 -131.90959 
L 205.16254 -130.707224 
L 205.084278 -129.504858 
L 205.000387 -128.302492 
L 204.908703 -127.100126 
L 204.807285 -125.897761 
L 204.694459 -124.695395 
L 204.568863 -123.493029 
L 204.429473 -122.290663 
L 204.275627 -121.088297 
L 204.107038 -119.885931 
L 203.923793 -118.683565 
L 203.726342 -117.481199 
L 203.515479 -116.278833 
L 203.292315 -115.076468 
L 203.058241 -113.874102 
L 202.814879 -112.671736 
L 202.564044 -111.46937 
L 202.307683 -110.267004 
L 202.047831 -109.064638 
L 201.786553 -107.862272 
L 201.525899 -106.659906 
L 201.267857 -105.45754 
L 201.014309 -104.255175 
L 200.766998 -103.052809 
L 200.527498 -101.850443 
L 200.297192 -100.648077 
L 200.077254 -99.445711 
z
" id="m57acd54c46" style="stroke:#474747;stroke-width:2.0;"/>
    </defs>
    <g clip-path="url(#pfeea0f6862)">
     <use style="fill:#c29a4b;stroke:#474747;stroke-width:2.0;" x="0.0" xlink:href="#m57acd54c46" y="403.3093125"/>
    </g>
   </g>
   <g id="PolyCollection_3">
    <defs>
     <path d="M 297.781107 -135.472694 
L 289.430807 -135.472694 
L 288.91954 -136.91538 
L 288.373945 -138.358066 
L 287.796009 -139.800752 
L 287.188397 -141.243438 
L 286.554461 -142.686124 
L 285.898207 -144.12881 
L 285.224264 -145.571496 
L 284.537816 -147.014182 
L 283.844522 -148.456868 
L 283.150419 -149.899554 
L 282.461809 -151.34224 
L 281.785131 -152.784926 
L 281.126833 -154.227612 
L 280.493231 -155.670298 
L 279.890384 -157.112984 
L 279.32396 -158.55567 
L 278.799125 -159.998356 
L 278.320441 -161.441042 
L 277.891789 -162.883728 
L 277.516303 -164.326414 
L 277.196339 -165.7691 
L 276.933461 -167.211786 
L 276.728447 -168.654472 
L 276.581328 -170.097158 
L 276.49143 -171.539844 
L 276.457449 -172.98253 
L 276.477521 -174.425216 
L 276.549313 -175.867902 
L 276.670107 -177.310588 
L 276.836893 -178.753274 
L 277.04645 -180.19596 
L 277.295422 -181.638646 
L 277.580383 -183.081332 
L 277.897894 -184.524018 
L 278.244542 -185.966704 
L 278.616973 -187.40939 
L 279.011908 -188.852076 
L 279.426152 -190.294762 
L 279.856601 -191.737448 
L 280.30023 -193.180134 
L 280.754091 -194.62282 
L 281.215305 -196.065506 
L 281.681057 -197.508193 
L 282.148588 -198.950879 
L 282.615204 -200.393565 
L 283.078278 -201.836251 
L 283.535262 -203.278937 
L 283.983705 -204.721623 
L 284.421273 -206.164309 
L 284.845772 -207.606995 
L 285.255175 -209.049681 
L 285.647646 -210.492367 
L 286.021565 -211.935053 
L 286.375547 -213.377739 
L 286.708464 -214.820425 
L 287.019455 -216.263111 
L 287.307937 -217.705797 
L 287.573604 -219.148483 
L 287.816429 -220.591169 
L 288.036656 -222.033855 
L 288.234786 -223.476541 
L 288.411565 -224.919227 
L 288.567966 -226.361913 
L 288.705167 -227.804599 
L 288.824529 -229.247285 
L 288.927571 -230.689971 
L 289.015949 -232.132657 
L 289.091431 -233.575343 
L 289.155867 -235.018029 
L 289.211167 -236.460715 
L 289.259275 -237.903401 
L 289.302142 -239.346087 
L 289.341698 -240.788773 
L 289.379827 -242.231459 
L 289.41834 -243.674145 
L 289.458948 -245.116831 
L 289.503233 -246.559517 
L 289.55263 -248.002203 
L 289.608399 -249.444889 
L 289.671606 -250.887575 
L 289.743105 -252.330261 
L 289.823528 -253.772947 
L 289.91327 -255.215633 
L 290.012492 -256.658319 
L 290.121118 -258.101005 
L 290.238842 -259.543691 
L 290.365143 -260.986377 
L 290.499297 -262.429063 
L 290.640407 -263.871749 
L 290.787422 -265.314435 
L 290.93917 -266.757121 
L 291.09439 -268.199807 
L 291.251763 -269.642493 
L 291.409948 -271.085179 
L 291.567614 -272.527865 
L 291.723471 -273.970551 
L 291.876295 -275.413237 
L 292.02496 -276.855923 
L 292.16845 -278.298609 
L 295.043465 -278.298609 
L 295.043465 -278.298609 
L 295.186955 -276.855923 
L 295.335619 -275.413237 
L 295.488444 -273.970551 
L 295.6443 -272.527865 
L 295.801966 -271.085179 
L 295.960152 -269.642493 
L 296.117525 -268.199807 
L 296.272744 -266.757121 
L 296.424492 -265.314435 
L 296.571507 -263.871749 
L 296.712617 -262.429063 
L 296.846772 -260.986377 
L 296.973072 -259.543691 
L 297.090796 -258.101005 
L 297.199422 -256.658319 
L 297.298644 -255.215633 
L 297.388387 -253.772947 
L 297.468809 -252.330261 
L 297.540308 -250.887575 
L 297.603515 -249.444889 
L 297.659284 -248.002203 
L 297.708681 -246.559517 
L 297.752967 -245.116831 
L 297.793574 -243.674145 
L 297.832087 -242.231459 
L 297.870217 -240.788773 
L 297.909773 -239.346087 
L 297.95264 -237.903401 
L 298.000748 -236.460715 
L 298.056048 -235.018029 
L 298.120483 -233.575343 
L 298.195965 -232.132657 
L 298.284344 -230.689971 
L 298.387386 -229.247285 
L 298.506747 -227.804599 
L 298.643948 -226.361913 
L 298.800349 -224.919227 
L 298.977129 -223.476541 
L 299.175259 -222.033855 
L 299.395485 -220.591169 
L 299.63831 -219.148483 
L 299.903977 -217.705797 
L 300.192459 -216.263111 
L 300.50345 -214.820425 
L 300.836368 -213.377739 
L 301.19035 -211.935053 
L 301.564268 -210.492367 
L 301.956739 -209.049681 
L 302.366142 -207.606995 
L 302.790641 -206.164309 
L 303.228209 -204.721623 
L 303.676652 -203.278937 
L 304.133636 -201.836251 
L 304.59671 -200.393565 
L 305.063326 -198.950879 
L 305.530858 -197.508193 
L 305.996609 -196.065506 
L 306.457823 -194.62282 
L 306.911684 -193.180134 
L 307.355313 -191.737448 
L 307.785762 -190.294762 
L 308.200007 -188.852076 
L 308.594941 -187.40939 
L 308.967372 -185.966704 
L 309.31402 -184.524018 
L 309.631531 -183.081332 
L 309.916492 -181.638646 
L 310.165464 -180.19596 
L 310.375021 -178.753274 
L 310.541808 -177.310588 
L 310.662602 -175.867902 
L 310.734393 -174.425216 
L 310.754465 -172.98253 
L 310.720484 -171.539844 
L 310.630587 -170.097158 
L 310.483467 -168.654472 
L 310.278453 -167.211786 
L 310.015575 -165.7691 
L 309.695611 -164.326414 
L 309.320125 -162.883728 
L 308.891473 -161.441042 
L 308.41279 -159.998356 
L 307.887955 -158.55567 
L 307.32153 -157.112984 
L 306.718683 -155.670298 
L 306.085082 -154.227612 
L 305.426783 -152.784926 
L 304.750105 -151.34224 
L 304.061495 -149.899554 
L 303.367393 -148.456868 
L 302.674099 -147.014182 
L 301.98765 -145.571496 
L 301.313707 -144.12881 
L 300.657454 -142.686124 
L 300.023517 -141.243438 
L 299.415906 -139.800752 
L 298.837969 -138.358066 
L 298.292375 -136.91538 
L 297.781107 -135.472694 
z
" id="m86033777f1" style="stroke:#474747;stroke-width:2.0;"/>
    </defs>
    <g clip-path="url(#pfeea0f6862)">
     <use style="fill:#88a746;stroke:#474747;stroke-width:2.0;" x="0.0" xlink:href="#m86033777f1" y="403.3093125"/>
    </g>
   </g>
   <g id="PolyCollection_4">
    <defs>
     <path d="M 391.777159 -130.732781 
L 386.749041 -130.732781 
L 386.404479 -132.040655 
L 386.03303 -133.348529 
L 385.635036 -134.656403 
L 385.210938 -135.964277 
L 384.761202 -137.272151 
L 384.286252 -138.580026 
L 383.786401 -139.8879 
L 383.261805 -141.195774 
L 382.71244 -142.503648 
L 382.138095 -143.811522 
L 381.538416 -145.119396 
L 380.912965 -146.427271 
L 380.261323 -147.735145 
L 379.583215 -149.043019 
L 378.878662 -150.350893 
L 378.148129 -151.658767 
L 377.392693 -152.966641 
L 376.614178 -154.274516 
L 375.815283 -155.58239 
L 374.999665 -156.890264 
L 374.171985 -158.198138 
L 373.33791 -159.506012 
L 372.504065 -160.813886 
L 371.677942 -162.121761 
L 370.867769 -163.429635 
L 370.082349 -164.737509 
L 369.33087 -166.045383 
L 368.622709 -167.353257 
L 367.967224 -168.661132 
L 367.37355 -169.969006 
L 366.850405 -171.27688 
L 366.405903 -172.584754 
L 366.047384 -173.892628 
L 365.781259 -175.200502 
L 365.612858 -176.508377 
L 365.546312 -177.816251 
L 365.584427 -179.124125 
L 365.728592 -180.431999 
L 365.978699 -181.739873 
L 366.333089 -183.047747 
L 366.78853 -184.355622 
L 367.340232 -185.663496 
L 367.981902 -186.97137 
L 368.705845 -188.279244 
L 369.503117 -189.587118 
L 370.363715 -190.894992 
L 371.276814 -192.202867 
L 372.231033 -193.510741 
L 373.214717 -194.818615 
L 374.216233 -196.126489 
L 375.224253 -197.434363 
L 376.228015 -198.742237 
L 377.217551 -200.050112 
L 378.183873 -201.357986 
L 379.1191 -202.66586 
L 380.016538 -203.973734 
L 380.870704 -205.281608 
L 381.677296 -206.589482 
L 382.433132 -207.897357 
L 383.136046 -209.205231 
L 383.784766 -210.513105 
L 384.378784 -211.820979 
L 384.918221 -213.128853 
L 385.403703 -214.436727 
L 385.836254 -215.744602 
L 386.217203 -217.052476 
L 386.548124 -218.36035 
L 386.830786 -219.668224 
L 387.067139 -220.976098 
L 387.259308 -222.283973 
L 387.409607 -223.591847 
L 387.520559 -224.899721 
L 387.594923 -226.207595 
L 387.635718 -227.515469 
L 387.646239 -228.823343 
L 387.630063 -230.131218 
L 387.591042 -231.439092 
L 387.533276 -232.746966 
L 387.461066 -234.05484 
L 387.37885 -235.362714 
L 387.291122 -236.670588 
L 387.202337 -237.978463 
L 387.1168 -239.286337 
L 387.038557 -240.594211 
L 386.971281 -241.902085 
L 386.918169 -243.209959 
L 386.881846 -244.517833 
L 386.864296 -245.825708 
L 386.86681 -247.133582 
L 386.889962 -248.441456 
L 386.933618 -249.74933 
L 386.996972 -251.057204 
L 387.078603 -252.365078 
L 387.176564 -253.672953 
L 387.288486 -254.980827 
L 387.411695 -256.288701 
L 387.543333 -257.596575 
L 387.680479 -258.904449 
L 387.820269 -260.212323 
L 390.705931 -260.212323 
L 390.705931 -260.212323 
L 390.845721 -258.904449 
L 390.982867 -257.596575 
L 391.114505 -256.288701 
L 391.237714 -254.980827 
L 391.349636 -253.672953 
L 391.447597 -252.365078 
L 391.529228 -251.057204 
L 391.592582 -249.74933 
L 391.636238 -248.441456 
L 391.65939 -247.133582 
L 391.661904 -245.825708 
L 391.644354 -244.517833 
L 391.608031 -243.209959 
L 391.554919 -241.902085 
L 391.487643 -240.594211 
L 391.4094 -239.286337 
L 391.323863 -237.978463 
L 391.235078 -236.670588 
L 391.14735 -235.362714 
L 391.065134 -234.05484 
L 390.992924 -232.746966 
L 390.935158 -231.439092 
L 390.896137 -230.131218 
L 390.879961 -228.823343 
L 390.890482 -227.515469 
L 390.931277 -226.207595 
L 391.005641 -224.899721 
L 391.116593 -223.591847 
L 391.266892 -222.283973 
L 391.459061 -220.976098 
L 391.695414 -219.668224 
L 391.978076 -218.36035 
L 392.308997 -217.052476 
L 392.689946 -215.744602 
L 393.122497 -214.436727 
L 393.607979 -213.128853 
L 394.147416 -211.820979 
L 394.741434 -210.513105 
L 395.390154 -209.205231 
L 396.093068 -207.897357 
L 396.848904 -206.589482 
L 397.655496 -205.281608 
L 398.509662 -203.973734 
L 399.4071 -202.66586 
L 400.342327 -201.357986 
L 401.308649 -200.050112 
L 402.298185 -198.742237 
L 403.301947 -197.434363 
L 404.309967 -196.126489 
L 405.311483 -194.818615 
L 406.295167 -193.510741 
L 407.249386 -192.202867 
L 408.162485 -190.894992 
L 409.023083 -189.587118 
L 409.820355 -188.279244 
L 410.544298 -186.97137 
L 411.185968 -185.663496 
L 411.73767 -184.355622 
L 412.193111 -183.047747 
L 412.547501 -181.739873 
L 412.797608 -180.431999 
L 412.941773 -179.124125 
L 412.979888 -177.816251 
L 412.913342 -176.508377 
L 412.744941 -175.200502 
L 412.478816 -173.892628 
L 412.120297 -172.584754 
L 411.675795 -171.27688 
L 411.15265 -169.969006 
L 410.558976 -168.661132 
L 409.903491 -167.353257 
L 409.19533 -166.045383 
L 408.443851 -164.737509 
L 407.658431 -163.429635 
L 406.848258 -162.121761 
L 406.022135 -160.813886 
L 405.18829 -159.506012 
L 404.354215 -158.198138 
L 403.526535 -156.890264 
L 402.710917 -155.58239 
L 401.912022 -154.274516 
L 401.133507 -152.966641 
L 400.378071 -151.658767 
L 399.647538 -150.350893 
L 398.942985 -149.043019 
L 398.264877 -147.735145 
L 397.613235 -146.427271 
L 396.987784 -145.119396 
L 396.388105 -143.811522 
L 395.81376 -142.503648 
L 395.264395 -141.195774 
L 394.739799 -139.8879 
L 394.239948 -138.580026 
L 393.764998 -137.272151 
L 393.315262 -135.964277 
L 392.891164 -134.656403 
L 392.49317 -133.348529 
L 392.121721 -132.040655 
L 391.777159 -130.732781 
z
" id="mbb1af38255" style="stroke:#474747;stroke-width:2.0;"/>
    </defs>
    <g clip-path="url(#pfeea0f6862)">
     <use style="fill:#4aad8f;stroke:#474747;stroke-width:2.0;" x="0.0" xlink:href="#mbb1af38255" y="403.3093125"/>
    </g>
   </g>
   <g id="PolyCollection_5">
    <defs>
     <path d="M 488.138502 -143.874094 
L 481.701984 -143.874094 
L 481.358773 -144.463272 
L 480.998086 -145.05245 
L 480.620348 -145.641628 
L 480.225746 -146.230806 
L 479.814144 -146.819984 
L 479.384999 -147.409162 
L 478.937305 -147.99834 
L 478.469558 -148.587518 
L 477.979749 -149.176696 
L 477.465401 -149.765874 
L 476.92363 -150.355052 
L 476.351254 -150.94423 
L 475.744931 -151.533407 
L 475.101324 -152.122585 
L 474.417291 -152.711763 
L 473.690078 -153.300941 
L 472.917519 -153.890119 
L 472.098213 -154.479297 
L 471.231682 -155.068475 
L 470.318491 -155.657653 
L 469.360318 -156.246831 
L 468.359981 -156.836009 
L 467.321402 -157.425187 
L 466.249528 -158.014365 
L 465.150195 -158.603543 
L 464.029965 -159.192721 
L 462.895925 -159.781899 
L 461.755477 -160.371077 
L 460.616131 -160.960255 
L 459.485309 -161.549433 
L 458.370172 -162.138611 
L 457.277491 -162.727789 
L 456.213557 -163.316966 
L 455.18413 -163.906144 
L 454.194443 -164.495322 
L 453.24923 -165.0845 
L 452.352794 -165.673678 
L 451.509089 -166.262856 
L 450.721799 -166.852034 
L 449.994428 -167.441212 
L 449.330353 -168.03039 
L 448.73286 -168.619568 
L 448.205148 -169.208746 
L 447.750291 -169.797924 
L 447.371174 -170.387102 
L 447.070398 -170.97628 
L 446.850164 -171.565458 
L 446.712149 -172.154636 
L 446.657386 -172.743814 
L 446.686148 -173.332992 
L 446.79787 -173.92217 
L 446.991089 -174.511348 
L 447.263424 -175.100526 
L 447.611605 -175.689703 
L 448.031525 -176.278881 
L 448.518336 -176.868059 
L 449.066576 -177.457237 
L 449.670305 -178.046415 
L 450.323272 -178.635593 
L 451.019062 -179.224771 
L 451.751262 -179.813949 
L 452.513594 -180.403127 
L 453.30005 -180.992305 
L 454.104989 -181.581483 
L 454.923229 -182.170661 
L 455.750102 -182.759839 
L 456.581499 -183.349017 
L 457.413894 -183.938195 
L 458.24435 -184.527373 
L 459.070512 -185.116551 
L 459.890596 -185.705729 
L 460.703355 -186.294907 
L 461.508054 -186.884085 
L 462.304419 -187.473263 
L 463.092596 -188.06244 
L 463.873083 -188.651618 
L 464.646672 -189.240796 
L 465.414364 -189.829974 
L 466.177296 -190.419152 
L 466.936643 -191.00833 
L 467.693532 -191.597508 
L 468.448947 -192.186686 
L 469.203639 -192.775864 
L 469.958048 -193.365042 
L 470.71223 -193.95422 
L 471.46581 -194.543398 
L 472.217944 -195.132576 
L 472.96731 -195.721754 
L 473.71212 -196.310932 
L 474.450158 -196.90011 
L 475.178831 -197.489288 
L 475.895252 -198.078466 
L 476.59633 -198.667644 
L 477.278866 -199.256822 
L 477.93967 -199.846 
L 478.575661 -200.435177 
L 479.183973 -201.024355 
L 479.762044 -201.613533 
L 480.307697 -202.202711 
L 489.532789 -202.202711 
L 489.532789 -202.202711 
L 490.078442 -201.613533 
L 490.656513 -201.024355 
L 491.264824 -200.435177 
L 491.900816 -199.846 
L 492.56162 -199.256822 
L 493.244156 -198.667644 
L 493.945233 -198.078466 
L 494.661655 -197.489288 
L 495.390328 -196.90011 
L 496.128365 -196.310932 
L 496.873176 -195.721754 
L 497.622542 -195.132576 
L 498.374675 -194.543398 
L 499.128255 -193.95422 
L 499.882438 -193.365042 
L 500.636847 -192.775864 
L 501.391539 -192.186686 
L 502.146954 -191.597508 
L 502.903843 -191.00833 
L 503.66319 -190.419152 
L 504.426122 -189.829974 
L 505.193814 -189.240796 
L 505.967402 -188.651618 
L 506.74789 -188.06244 
L 507.536067 -187.473263 
L 508.332432 -186.884085 
L 509.137131 -186.294907 
L 509.94989 -185.705729 
L 510.769973 -185.116551 
L 511.596136 -184.527373 
L 512.426592 -183.938195 
L 513.258987 -183.349017 
L 514.090384 -182.759839 
L 514.917257 -182.170661 
L 515.735496 -181.581483 
L 516.540436 -180.992305 
L 517.326891 -180.403127 
L 518.089224 -179.813949 
L 518.821423 -179.224771 
L 519.517214 -178.635593 
L 520.17018 -178.046415 
L 520.77391 -177.457237 
L 521.322149 -176.868059 
L 521.808961 -176.278881 
L 522.22888 -175.689703 
L 522.577061 -175.100526 
L 522.849397 -174.511348 
L 523.042615 -173.92217 
L 523.154338 -173.332992 
L 523.1831 -172.743814 
L 523.128336 -172.154636 
L 522.990322 -171.565458 
L 522.770088 -170.97628 
L 522.469312 -170.387102 
L 522.090195 -169.797924 
L 521.635338 -169.208746 
L 521.107625 -168.619568 
L 520.510133 -168.03039 
L 519.846057 -167.441212 
L 519.118686 -166.852034 
L 518.331397 -166.262856 
L 517.487691 -165.673678 
L 516.591256 -165.0845 
L 515.646043 -164.495322 
L 514.656355 -163.906144 
L 513.626929 -163.316966 
L 512.562995 -162.727789 
L 511.470314 -162.138611 
L 510.355177 -161.549433 
L 509.224354 -160.960255 
L 508.085009 -160.371077 
L 506.944561 -159.781899 
L 505.81052 -159.192721 
L 504.690291 -158.603543 
L 503.590958 -158.014365 
L 502.519084 -157.425187 
L 501.480505 -156.836009 
L 500.480168 -156.246831 
L 499.521995 -155.657653 
L 498.608803 -155.068475 
L 497.742273 -154.479297 
L 496.922966 -153.890119 
L 496.150407 -153.300941 
L 495.423195 -152.711763 
L 494.739162 -152.122585 
L 494.095555 -151.533407 
L 493.489232 -150.94423 
L 492.916856 -150.355052 
L 492.375085 -149.765874 
L 491.860736 -149.176696 
L 491.370928 -148.587518 
L 490.90318 -147.99834 
L 490.455486 -147.409162 
L 490.026341 -146.819984 
L 489.614739 -146.230806 
L 489.220138 -145.641628 
L 488.8424 -145.05245 
L 488.481712 -144.463272 
L 488.138502 -143.874094 
z
" id="m3c87501605" style="stroke:#474747;stroke-width:2.0;"/>
    </defs>
    <g clip-path="url(#pfeea0f6862)">
     <use style="fill:#4eabb8;stroke:#474747;stroke-width:2.0;" x="0.0" xlink:href="#m3c87501605" y="403.3093125"/>
    </g>
   </g>
   <g id="PolyCollection_6">
    <defs>
     <path d="M 581.971726 -120.651753 
L 579.183045 -120.651753 
L 579.034465 -122.089303 
L 578.885018 -123.526853 
L 578.736697 -124.964402 
L 578.591304 -126.401952 
L 578.450277 -127.839502 
L 578.314517 -129.277052 
L 578.184221 -130.714601 
L 578.058725 -132.152151 
L 577.936382 -133.589701 
L 577.814467 -135.027251 
L 577.689145 -136.4648 
L 577.555478 -137.90235 
L 577.407508 -139.3399 
L 577.238387 -140.777449 
L 577.040587 -142.214999 
L 576.806146 -143.652549 
L 576.526982 -145.090099 
L 576.195231 -146.527648 
L 575.803623 -147.965198 
L 575.345856 -149.402748 
L 574.816972 -150.840298 
L 574.213704 -152.277847 
L 573.534785 -153.715397 
L 572.781188 -155.152947 
L 571.956302 -156.590496 
L 571.066016 -158.028046 
L 570.118699 -159.465596 
L 569.125079 -160.903146 
L 568.09802 -162.340695 
L 567.052192 -163.778245 
L 566.003645 -165.215795 
L 564.96932 -166.653345 
L 563.966487 -168.090894 
L 563.012164 -169.528444 
L 562.122529 -170.965994 
L 561.31236 -172.403543 
L 560.594526 -173.841093 
L 559.979571 -175.278643 
L 559.475396 -176.716193 
L 559.087072 -178.153742 
L 558.816776 -179.591292 
L 558.663872 -181.028842 
L 558.625114 -182.466392 
L 558.694966 -183.903941 
L 558.866003 -185.341491 
L 559.129389 -186.779041 
L 559.475378 -188.21659 
L 559.893816 -189.65414 
L 560.374615 -191.09169 
L 560.908166 -192.52924 
L 561.485669 -193.966789 
L 562.099366 -195.404339 
L 562.742669 -196.841889 
L 563.410181 -198.279439 
L 564.097613 -199.716988 
L 564.801625 -201.154538 
L 565.519596 -202.592088 
L 566.249356 -204.029637 
L 566.9889 -205.467187 
L 567.73612 -206.904737 
L 568.48856 -208.342287 
L 569.243236 -209.779836 
L 569.996514 -211.217386 
L 570.744069 -212.654936 
L 571.48092 -214.092486 
L 572.201538 -215.530035 
L 572.900015 -216.967585 
L 573.570286 -218.405135 
L 574.206375 -219.842684 
L 574.802666 -221.280234 
L 575.354154 -222.717784 
L 575.856686 -224.155334 
L 576.307157 -225.592883 
L 576.703661 -227.030433 
L 577.045587 -228.467983 
L 577.333652 -229.905533 
L 577.569875 -231.343082 
L 577.757494 -232.780632 
L 577.900834 -234.218182 
L 578.005125 -235.655731 
L 578.076294 -237.093281 
L 578.120732 -238.530831 
L 578.145044 -239.968381 
L 578.155808 -241.40593 
L 578.159335 -242.84348 
L 578.161458 -244.28103 
L 578.167346 -245.71858 
L 578.181355 -247.156129 
L 578.206927 -248.593679 
L 578.246525 -250.031229 
L 578.301625 -251.468778 
L 578.372743 -252.906328 
L 578.459508 -254.343878 
L 578.560771 -255.781428 
L 578.674736 -257.218977 
L 578.799113 -258.656527 
L 578.931277 -260.094077 
L 579.068431 -261.531627 
L 579.20775 -262.969176 
L 581.947021 -262.969176 
L 581.947021 -262.969176 
L 582.086341 -261.531627 
L 582.223494 -260.094077 
L 582.355659 -258.656527 
L 582.480036 -257.218977 
L 582.594001 -255.781428 
L 582.695264 -254.343878 
L 582.782029 -252.906328 
L 582.853146 -251.468778 
L 582.908246 -250.031229 
L 582.947845 -248.593679 
L 582.973416 -247.156129 
L 582.987426 -245.71858 
L 582.993313 -244.28103 
L 582.995436 -242.84348 
L 582.998963 -241.40593 
L 583.009727 -239.968381 
L 583.03404 -238.530831 
L 583.078477 -237.093281 
L 583.149647 -235.655731 
L 583.253938 -234.218182 
L 583.397277 -232.780632 
L 583.584896 -231.343082 
L 583.821119 -229.905533 
L 584.109184 -228.467983 
L 584.451111 -227.030433 
L 584.847615 -225.592883 
L 585.298085 -224.155334 
L 585.800617 -222.717784 
L 586.352105 -221.280234 
L 586.948396 -219.842684 
L 587.584486 -218.405135 
L 588.254756 -216.967585 
L 588.953233 -215.530035 
L 589.673851 -214.092486 
L 590.410702 -212.654936 
L 591.158257 -211.217386 
L 591.911535 -209.779836 
L 592.666211 -208.342287 
L 593.418652 -206.904737 
L 594.165871 -205.467187 
L 594.905416 -204.029637 
L 595.635175 -202.592088 
L 596.353147 -201.154538 
L 597.057159 -199.716988 
L 597.744591 -198.279439 
L 598.412102 -196.841889 
L 599.055405 -195.404339 
L 599.669103 -193.966789 
L 600.246605 -192.52924 
L 600.780157 -191.09169 
L 601.260956 -189.65414 
L 601.679394 -188.21659 
L 602.025383 -186.779041 
L 602.288769 -185.341491 
L 602.459806 -183.903941 
L 602.529657 -182.466392 
L 602.4909 -181.028842 
L 602.337996 -179.591292 
L 602.067699 -178.153742 
L 601.679375 -176.716193 
L 601.175201 -175.278643 
L 600.560246 -173.841093 
L 599.842412 -172.403543 
L 599.032242 -170.965994 
L 598.142608 -169.528444 
L 597.188285 -168.090894 
L 596.185451 -166.653345 
L 595.151126 -165.215795 
L 594.10258 -163.778245 
L 593.056751 -162.340695 
L 592.029693 -160.903146 
L 591.036073 -159.465596 
L 590.088755 -158.028046 
L 589.198469 -156.590496 
L 588.373584 -155.152947 
L 587.619987 -153.715397 
L 586.941067 -152.277847 
L 586.3378 -150.840298 
L 585.808916 -149.402748 
L 585.351149 -147.965198 
L 584.959541 -146.527648 
L 584.62779 -145.090099 
L 584.348625 -143.652549 
L 584.114184 -142.214999 
L 583.916384 -140.777449 
L 583.747264 -139.3399 
L 583.599293 -137.90235 
L 583.465627 -136.4648 
L 583.340304 -135.027251 
L 583.21839 -133.589701 
L 583.096046 -132.152151 
L 582.970551 -130.714601 
L 582.840255 -129.277052 
L 582.704495 -127.839502 
L 582.563467 -126.401952 
L 582.418074 -124.964402 
L 582.269754 -123.526853 
L 582.120307 -122.089303 
L 581.971726 -120.651753 
z
" id="m0e4a5024c6" style="stroke:#474747;stroke-width:2.0;"/>
    </defs>
    <g clip-path="url(#pfeea0f6862)">
     <use style="fill:#a0adea;stroke:#474747;stroke-width:2.0;" x="0.0" xlink:href="#m0e4a5024c6" y="403.3093125"/>
    </g>
   </g>
   <g id="PolyCollection_7">
    <defs>
     <path d="M 677.416638 -102.402899 
L 675.052419 -102.402899 
L 674.888174 -104.716527 
L 674.707829 -107.030154 
L 674.510551 -109.343782 
L 674.295515 -111.65741 
L 674.061917 -113.971037 
L 673.808988 -116.284665 
L 673.53602 -118.598292 
L 673.242393 -120.91192 
L 672.927615 -123.225547 
L 672.591373 -125.539175 
L 672.233577 -127.852802 
L 671.854428 -130.16643 
L 671.454471 -132.480058 
L 671.034659 -134.793685 
L 670.596406 -137.107313 
L 670.141641 -139.42094 
L 669.672836 -141.734568 
L 669.193034 -144.048195 
L 668.705845 -146.361823 
L 668.215428 -148.675451 
L 667.726449 -150.989078 
L 667.244009 -153.302706 
L 666.773558 -155.616333 
L 666.320783 -157.929961 
L 665.891475 -160.243588 
L 665.491391 -162.557216 
L 665.126103 -164.870843 
L 664.800846 -167.184471 
L 664.520367 -169.498099 
L 664.288794 -171.811726 
L 664.109508 -174.125354 
L 663.985046 -176.438981 
L 663.917026 -178.752609 
L 663.906099 -181.066236 
L 663.951927 -183.379864 
L 664.053198 -185.693492 
L 664.207664 -188.007119 
L 664.412204 -190.320747 
L 664.662911 -192.634374 
L 664.955204 -194.948002 
L 665.283942 -197.261629 
L 665.643566 -199.575257 
L 666.028232 -201.888884 
L 666.431952 -204.202512 
L 666.848741 -206.51614 
L 667.272744 -208.829767 
L 667.698369 -211.143395 
L 668.120398 -213.457022 
L 668.534093 -215.77065 
L 668.935282 -218.084277 
L 669.320423 -220.397905 
L 669.68666 -222.711533 
L 670.031846 -225.02516 
L 670.354551 -227.338788 
L 670.654048 -229.652415 
L 670.930274 -231.966043 
L 671.183777 -234.27967 
L 671.415635 -236.593298 
L 671.627367 -238.906926 
L 671.820834 -241.220553 
L 671.998125 -243.534181 
L 672.161443 -245.847808 
L 672.313 -248.161436 
L 672.454915 -250.475063 
L 672.58912 -252.788691 
L 672.717294 -255.102318 
L 672.840807 -257.415946 
L 672.960696 -259.729574 
L 673.07765 -262.043201 
L 673.192034 -264.356829 
L 673.303917 -266.670456 
L 673.413129 -268.984084 
L 673.519322 -271.297711 
L 673.622041 -273.611339 
L 673.720797 -275.924967 
L 673.815138 -278.238594 
L 673.904711 -280.552222 
L 673.989309 -282.865849 
L 674.068909 -285.179477 
L 674.143689 -287.493104 
L 674.214028 -289.806732 
L 674.280493 -292.120359 
L 674.343809 -294.433987 
L 674.404814 -296.747615 
L 674.464416 -299.061242 
L 674.523533 -301.37487 
L 674.583045 -303.688497 
L 674.643738 -306.002125 
L 674.706265 -308.315752 
L 674.77111 -310.62938 
L 674.838563 -312.943008 
L 674.908715 -315.256635 
L 674.981453 -317.570263 
L 675.056477 -319.88389 
L 675.133319 -322.197518 
L 675.211377 -324.511145 
L 675.289948 -326.824773 
L 675.368264 -329.1384 
L 675.445537 -331.452028 
L 677.023521 -331.452028 
L 677.023521 -331.452028 
L 677.100793 -329.1384 
L 677.179109 -326.824773 
L 677.25768 -324.511145 
L 677.335738 -322.197518 
L 677.41258 -319.88389 
L 677.487604 -317.570263 
L 677.560342 -315.256635 
L 677.630494 -312.943008 
L 677.697947 -310.62938 
L 677.762792 -308.315752 
L 677.825319 -306.002125 
L 677.886012 -303.688497 
L 677.945524 -301.37487 
L 678.004641 -299.061242 
L 678.064243 -296.747615 
L 678.125248 -294.433987 
L 678.188564 -292.120359 
L 678.255029 -289.806732 
L 678.325368 -287.493104 
L 678.400148 -285.179477 
L 678.479748 -282.865849 
L 678.564346 -280.552222 
L 678.653919 -278.238594 
L 678.748261 -275.924967 
L 678.847017 -273.611339 
L 678.949735 -271.297711 
L 679.055928 -268.984084 
L 679.16514 -266.670456 
L 679.277024 -264.356829 
L 679.391407 -262.043201 
L 679.508361 -259.729574 
L 679.62825 -257.415946 
L 679.751763 -255.102318 
L 679.879937 -252.788691 
L 680.014142 -250.475063 
L 680.156057 -248.161436 
L 680.307614 -245.847808 
L 680.470933 -243.534181 
L 680.648223 -241.220553 
L 680.84169 -238.906926 
L 681.053423 -236.593298 
L 681.28528 -234.27967 
L 681.538783 -231.966043 
L 681.81501 -229.652415 
L 682.114506 -227.338788 
L 682.437211 -225.02516 
L 682.782397 -222.711533 
L 683.148634 -220.397905 
L 683.533775 -218.084277 
L 683.934964 -215.77065 
L 684.348659 -213.457022 
L 684.770688 -211.143395 
L 685.196313 -208.829767 
L 685.620316 -206.51614 
L 686.037105 -204.202512 
L 686.440826 -201.888884 
L 686.825491 -199.575257 
L 687.185115 -197.261629 
L 687.513854 -194.948002 
L 687.806146 -192.634374 
L 688.056853 -190.320747 
L 688.261393 -188.007119 
L 688.415859 -185.693492 
L 688.517131 -183.379864 
L 688.562959 -181.066236 
L 688.552031 -178.752609 
L 688.484011 -176.438981 
L 688.359549 -174.125354 
L 688.180263 -171.811726 
L 687.94869 -169.498099 
L 687.668211 -167.184471 
L 687.342954 -164.870843 
L 686.977666 -162.557216 
L 686.577583 -160.243588 
L 686.148274 -157.929961 
L 685.695499 -155.616333 
L 685.225048 -153.302706 
L 684.742608 -150.989078 
L 684.253629 -148.675451 
L 683.763212 -146.361823 
L 683.276023 -144.048195 
L 682.796221 -141.734568 
L 682.327416 -139.42094 
L 681.872651 -137.107313 
L 681.434399 -134.793685 
L 681.014586 -132.480058 
L 680.614629 -130.16643 
L 680.23548 -127.852802 
L 679.877685 -125.539175 
L 679.541442 -123.225547 
L 679.226665 -120.91192 
L 678.933037 -118.598292 
L 678.660069 -116.284665 
L 678.40714 -113.971037 
L 678.173542 -111.65741 
L 677.958506 -109.343782 
L 677.761228 -107.030154 
L 677.580883 -104.716527 
L 677.416638 -102.402899 
z
" id="mac04e3a731" style="stroke:#474747;stroke-width:2.0;"/>
    </defs>
    <g clip-path="url(#pfeea0f6862)">
     <use style="fill:#e78ae0;stroke:#474747;stroke-width:2.0;" x="0.0" xlink:href="#mac04e3a731" y="403.3093125"/>
    </g>
   </g>
   <g id="line2d_31">
    <path clip-path="url(#pfeea0f6862)" d="M 54.4631 232.485473 
L 724.0631 232.485473 
" style="fill:none;stroke:#404040;stroke-dasharray:6.000000,6.000000;stroke-dashoffset:0.0;stroke-width:1.5;"/>
   </g>
   <g id="line2d_32">
    <path clip-path="url(#pfeea0f6862)" d="M 102.291671 308.515752 
L 102.291671 200.14587 
" style="fill:none;stroke:#474747;stroke-linecap:round;stroke-width:2.0;"/>
   </g>
   <g id="line2d_33">
    <path clip-path="url(#pfeea0f6862)" d="M 102.291671 260.33577 
L 102.291671 226.649128 
" style="fill:none;stroke:#474747;stroke-linecap:round;stroke-width:6.0;"/>
   </g>
   <g id="line2d_34">
    <path clip-path="url(#pfeea0f6862)" d="M 197.948814 288.059155 
L 197.948814 200.633825 
" style="fill:none;stroke:#474747;stroke-linecap:round;stroke-width:2.0;"/>
   </g>
   <g id="line2d_35">
    <path clip-path="url(#pfeea0f6862)" d="M 197.948814 251.052559 
L 197.948814 219.240557 
" style="fill:none;stroke:#474747;stroke-linecap:round;stroke-width:6.0;"/>
   </g>
   <g id="line2d_36">
    <path clip-path="url(#pfeea0f6862)" d="M 293.605957 249.822859 
L 293.605957 157.811488 
" style="fill:none;stroke:#474747;stroke-linecap:round;stroke-width:2.0;"/>
   </g>
   <g id="line2d_37">
    <path clip-path="url(#pfeea0f6862)" d="M 293.605957 240.753064 
L 293.605957 205.60272 
" style="fill:none;stroke:#474747;stroke-linecap:round;stroke-width:6.0;"/>
   </g>
   <g id="line2d_38">
    <path clip-path="url(#pfeea0f6862)" d="M 389.2631 259.09945 
L 389.2631 198.157168 
" style="fill:none;stroke:#474747;stroke-linecap:round;stroke-width:2.0;"/>
   </g>
   <g id="line2d_39">
    <path clip-path="url(#pfeea0f6862)" d="M 389.2631 236.0583 
L 389.2631 216.364652 
" style="fill:none;stroke:#474747;stroke-linecap:round;stroke-width:6.0;"/>
   </g>
   <g id="line2d_40">
    <path clip-path="url(#pfeea0f6862)" d="M 484.920243 252.661297 
L 484.920243 207.880522 
" style="fill:none;stroke:#474747;stroke-linecap:round;stroke-width:2.0;"/>
   </g>
   <g id="line2d_41">
    <path clip-path="url(#pfeea0f6862)" d="M 484.920243 238.288897 
L 484.920243 221.795017 
" style="fill:none;stroke:#474747;stroke-linecap:round;stroke-width:6.0;"/>
   </g>
   <g id="line2d_42">
    <path clip-path="url(#pfeea0f6862)" d="M 580.577386 238.875305 
L 580.577386 193.827671 
" style="fill:none;stroke:#474747;stroke-linecap:round;stroke-width:2.0;"/>
   </g>
   <g id="line2d_43">
    <path clip-path="url(#pfeea0f6862)" d="M 580.577386 228.531736 
L 580.577386 205.727998 
" style="fill:none;stroke:#474747;stroke-linecap:round;stroke-width:6.0;"/>
   </g>
   <g id="line2d_44">
    <path clip-path="url(#pfeea0f6862)" d="M 676.234529 275.347914 
L 676.234529 145.405092 
" style="fill:none;stroke:#474747;stroke-linecap:round;stroke-width:2.0;"/>
   </g>
   <g id="line2d_45">
    <path clip-path="url(#pfeea0f6862)" d="M 676.234529 230.599243 
L 676.234529 190.947738 
" style="fill:none;stroke:#474747;stroke-linecap:round;stroke-width:6.0;"/>
   </g>
   <g id="patch_3">
    <path d="M 54.4631 41.171187 
L 724.0631 41.171187 
" style="fill:none;stroke:#262626;stroke-linecap:square;stroke-linejoin:miter;stroke-width:1.25;"/>
   </g>
   <g id="patch_4">
    <path d="M 724.0631 375.971187 
L 724.0631 41.171187 
" style="fill:none;stroke:#262626;stroke-linecap:square;stroke-linejoin:miter;stroke-width:1.25;"/>
   </g>
   <g id="patch_5">
    <path d="M 54.4631 375.971187 
L 724.0631 375.971187 
" style="fill:none;stroke:#262626;stroke-linecap:square;stroke-linejoin:miter;stroke-width:1.25;"/>
   </g>
   <g id="patch_6">
    <path d="M 54.4631 375.971187 
L 54.4631 41.171187 
" style="fill:none;stroke:#262626;stroke-linecap:square;stroke-linejoin:miter;stroke-width:1.25;"/>
   </g>
   <g id="PathCollection_1">
    <defs>
     <path d="M 0 2 
C 0.530406 2 1.03916 1.789267 1.414214 1.414214 
C 1.789267 1.03916 2 0.530406 2 0 
C 2 -0.530406 1.789267 -1.03916 1.414214 -1.414214 
C 1.03916 -1.789267 0.530406 -2 0 -2 
C -0.530406 -2 -1.03916 -1.789267 -1.414214 -1.414214 
C -1.789267 -1.03916 -2 -0.530406 -2 0 
C -2 0.530406 -1.789267 1.03916 -1.414214 1.414214 
C -1.03916 1.789267 -0.530406 2 0 2 
z
" id="m20ae71378e" style="stroke:#474747;stroke-width:0.3;"/>
    </defs>
    <g clip-path="url(#pfeea0f6862)">
     <use style="fill:#ffffff;stroke:#474747;stroke-width:0.3;" x="102.291671429" xlink:href="#m20ae71378e" y="238.285747077"/>
    </g>
   </g>
   <g id="PathCollection_2">
    <g clip-path="url(#pfeea0f6862)">
     <use style="fill:#ffffff;stroke:#474747;stroke-width:0.3;" x="197.948814286" xlink:href="#m20ae71378e" y="224.538392961"/>
    </g>
   </g>
   <g id="PathCollection_3">
    <g clip-path="url(#pfeea0f6862)">
     <use style="fill:#ffffff;stroke:#474747;stroke-width:0.3;" x="293.605957143" xlink:href="#m20ae71378e" y="224.335215337"/>
    </g>
   </g>
   <g id="PathCollection_4">
    <g clip-path="url(#pfeea0f6862)">
     <use style="fill:#ffffff;stroke:#474747;stroke-width:0.3;" x="389.2631" xlink:href="#m20ae71378e" y="224.816379687"/>
    </g>
   </g>
   <g id="PathCollection_5">
    <g clip-path="url(#pfeea0f6862)">
     <use style="fill:#ffffff;stroke:#474747;stroke-width:0.3;" x="484.920242857" xlink:href="#m20ae71378e" y="230.245523921"/>
    </g>
   </g>
   <g id="PathCollection_6">
    <g clip-path="url(#pfeea0f6862)">
     <use style="fill:#ffffff;stroke:#474747;stroke-width:0.3;" x="580.577385714" xlink:href="#m20ae71378e" y="221.205338441"/>
    </g>
   </g>
   <g id="PathCollection_7">
    <g clip-path="url(#pfeea0f6862)">
     <use style="fill:#ffffff;stroke:#474747;stroke-width:0.3;" x="676.234528571" xlink:href="#m20ae71378e" y="219.862079691"/>
    </g>
   </g>
   <g id="text_17">
    <!-- Accidents after the start of DST in California (20012016) -->
    <defs>
     <path d="M 6.390625 0 
L 6.390625 71.578125 
L 15.1875 71.578125 
L 15.1875 0 
z
" id="ArialMT-6c"/>
     <path d="M 58.796875 25.09375 
L 68.265625 22.703125 
Q 65.28125 11.03125 57.546875 4.90625 
Q 49.8125 -1.21875 38.625 -1.21875 
Q 27.046875 -1.21875 19.796875 3.484375 
Q 12.546875 8.203125 8.765625 17.140625 
Q 4.984375 26.078125 4.984375 36.328125 
Q 4.984375 47.515625 9.25 55.828125 
Q 13.53125 64.15625 21.40625 68.46875 
Q 29.296875 72.796875 38.765625 72.796875 
Q 49.515625 72.796875 56.828125 67.328125 
Q 64.15625 61.859375 67.046875 51.953125 
L 57.71875 49.75 
Q 55.21875 57.5625 50.484375 61.125 
Q 45.75 64.703125 38.578125 64.703125 
Q 30.328125 64.703125 24.78125 60.734375 
Q 19.234375 56.78125 16.984375 50.109375 
Q 14.75 43.453125 14.75 36.375 
Q 14.75 27.25 17.40625 20.4375 
Q 20.0625 13.625 25.671875 10.25 
Q 31.296875 6.890625 37.84375 6.890625 
Q 45.796875 6.890625 51.3125 11.46875 
Q 56.84375 16.0625 58.796875 25.09375 
" id="ArialMT-43"/>
     <path d="M -0.203125 22.359375 
L -0.203125 29.4375 
L 55.421875 29.4375 
L 55.421875 22.359375 
z
" id="ArialMT-2013"/>
    </defs>
    <g style="fill:#262626;" transform="translate(59.0631 26.1271875)scale(0.26 -0.26)">
     <use xlink:href="#ArialMT-41"/>
     <use x="66.69921875" xlink:href="#ArialMT-63"/>
     <use x="116.69921875" xlink:href="#ArialMT-63"/>
     <use x="166.69921875" xlink:href="#ArialMT-69"/>
     <use x="188.916015625" xlink:href="#ArialMT-64"/>
     <use x="244.53125" xlink:href="#ArialMT-65"/>
     <use x="300.146484375" xlink:href="#ArialMT-6e"/>
     <use x="355.76171875" xlink:href="#ArialMT-74"/>
     <use x="383.544921875" xlink:href="#ArialMT-73"/>
     <use x="433.544921875" xlink:href="#ArialMT-20"/>
     <use x="461.328125" xlink:href="#ArialMT-61"/>
     <use x="516.943359375" xlink:href="#ArialMT-66"/>
     <use x="544.7265625" xlink:href="#ArialMT-74"/>
     <use x="572.509765625" xlink:href="#ArialMT-65"/>
     <use x="628.125" xlink:href="#ArialMT-72"/>
     <use x="661.42578125" xlink:href="#ArialMT-20"/>
     <use x="689.208984375" xlink:href="#ArialMT-74"/>
     <use x="716.9921875" xlink:href="#ArialMT-68"/>
     <use x="772.607421875" xlink:href="#ArialMT-65"/>
     <use x="828.22265625" xlink:href="#ArialMT-20"/>
     <use x="856.005859375" xlink:href="#ArialMT-73"/>
     <use x="906.005859375" xlink:href="#ArialMT-74"/>
     <use x="933.7890625" xlink:href="#ArialMT-61"/>
     <use x="989.404296875" xlink:href="#ArialMT-72"/>
     <use x="1022.70507812" xlink:href="#ArialMT-74"/>
     <use x="1050.48828125" xlink:href="#ArialMT-20"/>
     <use x="1078.27148438" xlink:href="#ArialMT-6f"/>
     <use x="1133.88671875" xlink:href="#ArialMT-66"/>
     <use x="1161.66992188" xlink:href="#ArialMT-20"/>
     <use x="1189.453125" xlink:href="#ArialMT-44"/>
     <use x="1261.66992188" xlink:href="#ArialMT-53"/>
     <use x="1328.36914062" xlink:href="#ArialMT-54"/>
     <use x="1389.4375" xlink:href="#ArialMT-20"/>
     <use x="1417.22070312" xlink:href="#ArialMT-69"/>
     <use x="1439.4375" xlink:href="#ArialMT-6e"/>
     <use x="1495.05273438" xlink:href="#ArialMT-20"/>
     <use x="1522.8359375" xlink:href="#ArialMT-43"/>
     <use x="1595.05273438" xlink:href="#ArialMT-61"/>
     <use x="1650.66796875" xlink:href="#ArialMT-6c"/>
     <use x="1672.88476562" xlink:href="#ArialMT-69"/>
     <use x="1695.1015625" xlink:href="#ArialMT-66"/>
     <use x="1722.88476562" xlink:href="#ArialMT-6f"/>
     <use x="1778.5" xlink:href="#ArialMT-72"/>
     <use x="1811.80078125" xlink:href="#ArialMT-6e"/>
     <use x="1867.41601562" xlink:href="#ArialMT-69"/>
     <use x="1889.6328125" xlink:href="#ArialMT-61"/>
     <use x="1945.24804688" xlink:href="#ArialMT-20"/>
     <use x="1973.03125" xlink:href="#ArialMT-28"/>
     <use x="2006.33203125" xlink:href="#ArialMT-32"/>
     <use x="2061.94726562" xlink:href="#ArialMT-30"/>
     <use x="2117.5625" xlink:href="#ArialMT-30"/>
     <use x="2173.17773438" xlink:href="#ArialMT-31"/>
     <use x="2228.79296875" xlink:href="#ArialMT-2013"/>
     <use x="2284.40820312" xlink:href="#ArialMT-32"/>
     <use x="2340.0234375" xlink:href="#ArialMT-30"/>
     <use x="2395.63867188" xlink:href="#ArialMT-31"/>
     <use x="2451.25390625" xlink:href="#ArialMT-36"/>
     <use x="2506.86914062" xlink:href="#ArialMT-29"/>
    </g>
   </g>
  </g>
 </g>
 <defs>
  <clipPath id="pfeea0f6862">
   <rect height="334.8" width="669.6" x="54.4631" y="41.1711875"/>
  </clipPath>
 </defs>
</svg>
