<?xml version="1.0" encoding="utf-8" standalone="no"?>
<!DOCTYPE svg PUBLIC "-//W3C//DTD SVG 1.1//EN"
  "http://www.w3.org/Graphics/SVG/1.1/DTD/svg11.dtd">
<!-- Created with matplotlib (https://matplotlib.org/) -->
<svg height="393.563137pt" version="1.1" viewBox="0 0 734.548412 393.563137" width="734.548412pt" xmlns="http://www.w3.org/2000/svg" xmlns:xlink="http://www.w3.org/1999/xlink">
 <defs>
  <style type="text/css">
*{stroke-linecap:butt;stroke-linejoin:round;}
  </style>
 </defs>
 <g id="figure_1">
  <g id="patch_1">
   <path d="M 0 393.563137 
L 734.548412 393.563137 
L 734.548412 0 
L 0 0 
z
" style="fill:#ffffff;"/>
  </g>
  <g id="axes_1">
   <g id="patch_2">
    <path d="M 57.748413 368.071987 
L 727.348412 368.071987 
L 727.348412 41.911987 
L 57.748413 41.911987 
z
" style="fill:#ffffff;"/>
   </g>
   <g id="matplotlib.axis_1">
    <g id="xtick_1">
     <g id="text_1">
      <!-- Sunday (DST Ends) -->
      <defs>
       <path d="M 4.5 23 
L 13.421875 23.78125 
Q 14.0625 18.40625 16.375 14.96875 
Q 18.703125 11.53125 23.578125 9.40625 
Q 28.46875 7.28125 34.578125 7.28125 
Q 39.984375 7.28125 44.140625 8.890625 
Q 48.296875 10.5 50.3125 13.296875 
Q 52.34375 16.109375 52.34375 19.4375 
Q 52.34375 22.796875 50.390625 25.3125 
Q 48.4375 27.828125 43.953125 29.546875 
Q 41.0625 30.671875 31.203125 33.03125 
Q 21.34375 35.40625 17.390625 37.5 
Q 12.25 40.1875 9.734375 44.15625 
Q 7.234375 48.140625 7.234375 53.078125 
Q 7.234375 58.5 10.296875 63.203125 
Q 13.375 67.921875 19.28125 70.359375 
Q 25.203125 72.796875 32.421875 72.796875 
Q 40.375 72.796875 46.453125 70.234375 
Q 52.546875 67.671875 55.8125 62.6875 
Q 59.078125 57.71875 59.328125 51.421875 
L 50.25 50.734375 
Q 49.515625 57.515625 45.28125 60.984375 
Q 41.0625 64.453125 32.8125 64.453125 
Q 24.21875 64.453125 20.28125 61.296875 
Q 16.359375 58.15625 16.359375 53.71875 
Q 16.359375 49.859375 19.140625 47.359375 
Q 21.875 44.875 33.421875 42.265625 
Q 44.96875 39.65625 49.265625 37.703125 
Q 55.515625 34.8125 58.484375 30.390625 
Q 61.46875 25.984375 61.46875 20.21875 
Q 61.46875 14.5 58.203125 9.4375 
Q 54.9375 4.390625 48.796875 1.578125 
Q 42.671875 -1.21875 35.015625 -1.21875 
Q 25.296875 -1.21875 18.71875 1.609375 
Q 12.15625 4.4375 8.421875 10.125 
Q 4.6875 15.828125 4.5 23 
z
" id="ArialMT-83"/>
       <path d="M 40.578125 0 
L 40.578125 7.625 
Q 34.515625 -1.171875 24.125 -1.171875 
Q 19.53125 -1.171875 15.546875 0.578125 
Q 11.578125 2.34375 9.640625 5 
Q 7.71875 7.671875 6.9375 11.53125 
Q 6.390625 14.109375 6.390625 19.734375 
L 6.390625 51.859375 
L 15.1875 51.859375 
L 15.1875 23.09375 
Q 15.1875 16.21875 15.71875 13.8125 
Q 16.546875 10.359375 19.234375 8.375 
Q 21.921875 6.390625 25.875 6.390625 
Q 29.828125 6.390625 33.296875 8.421875 
Q 36.765625 10.453125 38.203125 13.9375 
Q 39.65625 17.4375 39.65625 24.078125 
L 39.65625 51.859375 
L 48.4375 51.859375 
L 48.4375 0 
z
" id="ArialMT-117"/>
       <path d="M 6.59375 0 
L 6.59375 51.859375 
L 14.5 51.859375 
L 14.5 44.484375 
Q 20.21875 53.03125 31 53.03125 
Q 35.6875 53.03125 39.625 51.34375 
Q 43.5625 49.65625 45.515625 46.921875 
Q 47.46875 44.1875 48.25 40.4375 
Q 48.734375 37.984375 48.734375 31.890625 
L 48.734375 0 
L 39.9375 0 
L 39.9375 31.546875 
Q 39.9375 36.921875 38.90625 39.578125 
Q 37.890625 42.234375 35.28125 43.8125 
Q 32.671875 45.40625 29.15625 45.40625 
Q 23.53125 45.40625 19.453125 41.84375 
Q 15.375 38.28125 15.375 28.328125 
L 15.375 0 
z
" id="ArialMT-110"/>
       <path d="M 40.234375 0 
L 40.234375 6.546875 
Q 35.296875 -1.171875 25.734375 -1.171875 
Q 19.53125 -1.171875 14.328125 2.25 
Q 9.125 5.671875 6.265625 11.796875 
Q 3.421875 17.921875 3.421875 25.875 
Q 3.421875 33.640625 6 39.96875 
Q 8.59375 46.296875 13.765625 49.65625 
Q 18.953125 53.03125 25.34375 53.03125 
Q 30.03125 53.03125 33.6875 51.046875 
Q 37.359375 49.078125 39.65625 45.90625 
L 39.65625 71.578125 
L 48.390625 71.578125 
L 48.390625 0 
z
M 12.453125 25.875 
Q 12.453125 15.921875 16.640625 10.984375 
Q 20.84375 6.0625 26.5625 6.0625 
Q 32.328125 6.0625 36.34375 10.765625 
Q 40.375 15.484375 40.375 25.140625 
Q 40.375 35.796875 36.265625 40.765625 
Q 32.171875 45.75 26.171875 45.75 
Q 20.3125 45.75 16.375 40.96875 
Q 12.453125 36.1875 12.453125 25.875 
z
" id="ArialMT-100"/>
       <path d="M 40.4375 6.390625 
Q 35.546875 2.25 31.03125 0.53125 
Q 26.515625 -1.171875 21.34375 -1.171875 
Q 12.796875 -1.171875 8.203125 3 
Q 3.609375 7.171875 3.609375 13.671875 
Q 3.609375 17.484375 5.34375 20.625 
Q 7.078125 23.78125 9.890625 25.6875 
Q 12.703125 27.59375 16.21875 28.5625 
Q 18.796875 29.25 24.03125 29.890625 
Q 34.671875 31.15625 39.703125 32.90625 
Q 39.75 34.71875 39.75 35.203125 
Q 39.75 40.578125 37.25 42.78125 
Q 33.890625 45.75 27.25 45.75 
Q 21.046875 45.75 18.09375 43.578125 
Q 15.140625 41.40625 13.71875 35.890625 
L 5.125 37.0625 
Q 6.296875 42.578125 8.984375 45.96875 
Q 11.671875 49.359375 16.75 51.1875 
Q 21.828125 53.03125 28.515625 53.03125 
Q 35.15625 53.03125 39.296875 51.46875 
Q 43.453125 49.90625 45.40625 47.53125 
Q 47.359375 45.171875 48.140625 41.546875 
Q 48.578125 39.3125 48.578125 33.453125 
L 48.578125 21.734375 
Q 48.578125 9.46875 49.140625 6.21875 
Q 49.703125 2.984375 51.375 0 
L 42.1875 0 
Q 40.828125 2.734375 40.4375 6.390625 
z
M 39.703125 26.03125 
Q 34.90625 24.078125 25.34375 22.703125 
Q 19.921875 21.921875 17.671875 20.9375 
Q 15.4375 19.96875 14.203125 18.09375 
Q 12.984375 16.21875 12.984375 13.921875 
Q 12.984375 10.40625 15.640625 8.0625 
Q 18.3125 5.71875 23.4375 5.71875 
Q 28.515625 5.71875 32.46875 7.9375 
Q 36.421875 10.15625 38.28125 14.015625 
Q 39.703125 17 39.703125 22.796875 
z
" id="ArialMT-97"/>
       <path d="M 6.203125 -19.96875 
L 5.21875 -11.71875 
Q 8.109375 -12.5 10.25 -12.5 
Q 13.1875 -12.5 14.9375 -11.515625 
Q 16.703125 -10.546875 17.828125 -8.796875 
Q 18.65625 -7.46875 20.515625 -2.25 
Q 20.75 -1.515625 21.296875 -0.09375 
L 1.609375 51.859375 
L 11.078125 51.859375 
L 21.875 21.828125 
Q 23.96875 16.109375 25.640625 9.8125 
Q 27.15625 15.875 29.25 21.625 
L 40.328125 51.859375 
L 49.125 51.859375 
L 29.390625 -0.875 
Q 26.21875 -9.421875 24.46875 -12.640625 
Q 22.125 -17 19.09375 -19.015625 
Q 16.0625 -21.046875 11.859375 -21.046875 
Q 9.328125 -21.046875 6.203125 -19.96875 
z
" id="ArialMT-121"/>
       <path id="ArialMT-32"/>
       <path d="M 23.390625 -21.046875 
Q 16.109375 -11.859375 11.078125 0.4375 
Q 6.0625 12.75 6.0625 25.921875 
Q 6.0625 37.546875 9.8125 48.1875 
Q 14.203125 60.546875 23.390625 72.796875 
L 29.6875 72.796875 
Q 23.78125 62.640625 21.875 58.296875 
Q 18.890625 51.5625 17.1875 44.234375 
Q 15.09375 35.109375 15.09375 25.875 
Q 15.09375 2.390625 29.6875 -21.046875 
z
" id="ArialMT-40"/>
       <path d="M 7.71875 0 
L 7.71875 71.578125 
L 32.375 71.578125 
Q 40.71875 71.578125 45.125 70.5625 
Q 51.265625 69.140625 55.609375 65.4375 
Q 61.28125 60.640625 64.078125 53.1875 
Q 66.890625 45.75 66.890625 36.1875 
Q 66.890625 28.03125 64.984375 21.734375 
Q 63.09375 15.4375 60.109375 11.296875 
Q 57.125 7.171875 53.578125 4.796875 
Q 50.046875 2.4375 45.046875 1.21875 
Q 40.046875 0 33.546875 0 
z
M 17.1875 8.453125 
L 32.46875 8.453125 
Q 39.546875 8.453125 43.578125 9.765625 
Q 47.609375 11.078125 50 13.484375 
Q 53.375 16.84375 55.25 22.53125 
Q 57.125 28.21875 57.125 36.328125 
Q 57.125 47.5625 53.4375 53.59375 
Q 49.75 59.625 44.484375 61.671875 
Q 40.671875 63.140625 32.234375 63.140625 
L 17.1875 63.140625 
z
" id="ArialMT-68"/>
       <path d="M 25.921875 0 
L 25.921875 63.140625 
L 2.34375 63.140625 
L 2.34375 71.578125 
L 59.078125 71.578125 
L 59.078125 63.140625 
L 35.40625 63.140625 
L 35.40625 0 
z
" id="ArialMT-84"/>
       <path d="M 7.90625 0 
L 7.90625 71.578125 
L 59.671875 71.578125 
L 59.671875 63.140625 
L 17.390625 63.140625 
L 17.390625 41.21875 
L 56.984375 41.21875 
L 56.984375 32.8125 
L 17.390625 32.8125 
L 17.390625 8.453125 
L 61.328125 8.453125 
L 61.328125 0 
z
" id="ArialMT-69"/>
       <path d="M 3.078125 15.484375 
L 11.765625 16.84375 
Q 12.5 11.625 15.84375 8.84375 
Q 19.1875 6.0625 25.203125 6.0625 
Q 31.25 6.0625 34.171875 8.515625 
Q 37.109375 10.984375 37.109375 14.3125 
Q 37.109375 17.28125 34.515625 19 
Q 32.71875 20.171875 25.53125 21.96875 
Q 15.875 24.421875 12.140625 26.203125 
Q 8.40625 27.984375 6.46875 31.125 
Q 4.546875 34.28125 4.546875 38.09375 
Q 4.546875 41.546875 6.125 44.5 
Q 7.71875 47.46875 10.453125 49.421875 
Q 12.5 50.921875 16.03125 51.96875 
Q 19.578125 53.03125 23.640625 53.03125 
Q 29.734375 53.03125 34.34375 51.265625 
Q 38.96875 49.515625 41.15625 46.5 
Q 43.359375 43.5 44.1875 38.484375 
L 35.59375 37.3125 
Q 35.015625 41.3125 32.203125 43.546875 
Q 29.390625 45.796875 24.265625 45.796875 
Q 18.21875 45.796875 15.625 43.796875 
Q 13.03125 41.796875 13.03125 39.109375 
Q 13.03125 37.40625 14.109375 36.03125 
Q 15.1875 34.625 17.484375 33.6875 
Q 18.796875 33.203125 25.25 31.453125 
Q 34.578125 28.953125 38.25 27.359375 
Q 41.9375 25.78125 44.03125 22.75 
Q 46.140625 19.734375 46.140625 15.234375 
Q 46.140625 10.84375 43.578125 6.953125 
Q 41.015625 3.078125 36.171875 0.953125 
Q 31.34375 -1.171875 25.25 -1.171875 
Q 15.140625 -1.171875 9.84375 3.03125 
Q 4.546875 7.234375 3.078125 15.484375 
z
" id="ArialMT-115"/>
       <path d="M 12.359375 -21.046875 
L 6.0625 -21.046875 
Q 20.65625 2.390625 20.65625 25.875 
Q 20.65625 35.0625 18.5625 44.09375 
Q 16.890625 51.421875 13.921875 58.15625 
Q 12.015625 62.546875 6.0625 72.796875 
L 12.359375 72.796875 
Q 21.53125 60.546875 25.921875 48.1875 
Q 29.6875 37.546875 29.6875 25.921875 
Q 29.6875 12.75 24.625 0.4375 
Q 19.578125 -11.859375 12.359375 -21.046875 
z
" id="ArialMT-41"/>
      </defs>
      <g style="fill:#262626;" transform="translate(43.454171 381.76355)scale(0.14 -0.14)">
       <use xlink:href="#ArialMT-83"/>
       <use x="66.699219" xlink:href="#ArialMT-117"/>
       <use x="122.314453" xlink:href="#ArialMT-110"/>
       <use x="177.929688" xlink:href="#ArialMT-100"/>
       <use x="233.544922" xlink:href="#ArialMT-97"/>
       <use x="289.160156" xlink:href="#ArialMT-121"/>
       <use x="339.160156" xlink:href="#ArialMT-32"/>
       <use x="366.943359" xlink:href="#ArialMT-40"/>
       <use x="400.244141" xlink:href="#ArialMT-68"/>
       <use x="472.460938" xlink:href="#ArialMT-83"/>
       <use x="539.160156" xlink:href="#ArialMT-84"/>
       <use x="598.494141" xlink:href="#ArialMT-32"/>
       <use x="626.277344" xlink:href="#ArialMT-69"/>
       <use x="692.976562" xlink:href="#ArialMT-110"/>
       <use x="748.591797" xlink:href="#ArialMT-100"/>
       <use x="804.207031" xlink:href="#ArialMT-115"/>
       <use x="854.207031" xlink:href="#ArialMT-41"/>
      </g>
     </g>
    </g>
    <g id="xtick_2">
     <g id="text_2">
      <!-- Monday -->
      <defs>
       <path d="M 7.421875 0 
L 7.421875 71.578125 
L 21.6875 71.578125 
L 38.625 20.90625 
Q 40.96875 13.8125 42.046875 10.296875 
Q 43.265625 14.203125 45.84375 21.78125 
L 62.984375 71.578125 
L 75.734375 71.578125 
L 75.734375 0 
L 66.609375 0 
L 66.609375 59.90625 
L 45.796875 0 
L 37.25 0 
L 16.546875 60.9375 
L 16.546875 0 
z
" id="ArialMT-77"/>
       <path d="M 3.328125 25.921875 
Q 3.328125 40.328125 11.328125 47.265625 
Q 18.015625 53.03125 27.640625 53.03125 
Q 38.328125 53.03125 45.109375 46.015625 
Q 51.90625 39.015625 51.90625 26.65625 
Q 51.90625 16.65625 48.90625 10.90625 
Q 45.90625 5.171875 40.15625 2 
Q 34.421875 -1.171875 27.640625 -1.171875 
Q 16.75 -1.171875 10.03125 5.8125 
Q 3.328125 12.796875 3.328125 25.921875 
z
M 12.359375 25.921875 
Q 12.359375 15.96875 16.703125 11.015625 
Q 21.046875 6.0625 27.640625 6.0625 
Q 34.1875 6.0625 38.53125 11.03125 
Q 42.875 16.015625 42.875 26.21875 
Q 42.875 35.84375 38.5 40.796875 
Q 34.125 45.75 27.640625 45.75 
Q 21.046875 45.75 16.703125 40.8125 
Q 12.359375 35.890625 12.359375 25.921875 
z
" id="ArialMT-111"/>
      </defs>
      <g style="fill:#262626;" transform="translate(176.332721 381.592925)scale(0.14 -0.14)">
       <use xlink:href="#ArialMT-77"/>
       <use x="83.300781" xlink:href="#ArialMT-111"/>
       <use x="138.916016" xlink:href="#ArialMT-110"/>
       <use x="194.53125" xlink:href="#ArialMT-100"/>
       <use x="250.146484" xlink:href="#ArialMT-97"/>
       <use x="305.761719" xlink:href="#ArialMT-121"/>
      </g>
     </g>
    </g>
    <g id="xtick_3">
     <g id="text_3">
      <!-- Tuesday -->
      <defs>
       <path d="M 42.09375 16.703125 
L 51.171875 15.578125 
Q 49.03125 7.625 43.21875 3.21875 
Q 37.40625 -1.171875 28.375 -1.171875 
Q 17 -1.171875 10.328125 5.828125 
Q 3.65625 12.84375 3.65625 25.484375 
Q 3.65625 38.578125 10.390625 45.796875 
Q 17.140625 53.03125 27.875 53.03125 
Q 38.28125 53.03125 44.875 45.953125 
Q 51.46875 38.875 51.46875 26.03125 
Q 51.46875 25.25 51.421875 23.6875 
L 12.75 23.6875 
Q 13.234375 15.140625 17.578125 10.59375 
Q 21.921875 6.0625 28.421875 6.0625 
Q 33.25 6.0625 36.671875 8.59375 
Q 40.09375 11.140625 42.09375 16.703125 
z
M 13.234375 30.90625 
L 42.1875 30.90625 
Q 41.609375 37.453125 38.875 40.71875 
Q 34.671875 45.796875 27.984375 45.796875 
Q 21.921875 45.796875 17.796875 41.75 
Q 13.671875 37.703125 13.234375 30.90625 
z
" id="ArialMT-101"/>
      </defs>
      <g style="fill:#262626;" transform="translate(270.307676 381.592925)scale(0.14 -0.14)">
       <use xlink:href="#ArialMT-84"/>
       <use x="57.333984" xlink:href="#ArialMT-117"/>
       <use x="112.949219" xlink:href="#ArialMT-101"/>
       <use x="168.564453" xlink:href="#ArialMT-115"/>
       <use x="218.564453" xlink:href="#ArialMT-100"/>
       <use x="274.179688" xlink:href="#ArialMT-97"/>
       <use x="329.794922" xlink:href="#ArialMT-121"/>
      </g>
     </g>
    </g>
    <g id="xtick_4">
     <g id="text_4">
      <!-- Wednesday -->
      <defs>
       <path d="M 20.21875 0 
L 1.21875 71.578125 
L 10.9375 71.578125 
L 21.828125 24.65625 
Q 23.578125 17.28125 24.859375 10.015625 
Q 27.59375 21.484375 28.078125 23.25 
L 41.703125 71.578125 
L 53.125 71.578125 
L 63.375 35.359375 
Q 67.234375 21.875 68.953125 10.015625 
Q 70.3125 16.796875 72.515625 25.59375 
L 83.734375 71.578125 
L 93.265625 71.578125 
L 73.640625 0 
L 64.5 0 
L 49.421875 54.546875 
Q 47.515625 61.375 47.171875 62.9375 
Q 46.046875 58.015625 45.0625 54.546875 
L 29.890625 0 
z
" id="ArialMT-87"/>
      </defs>
      <g style="fill:#262626;" transform="translate(355.707631 381.592925)scale(0.14 -0.14)">
       <use xlink:href="#ArialMT-87"/>
       <use x="92.634766" xlink:href="#ArialMT-101"/>
       <use x="148.25" xlink:href="#ArialMT-100"/>
       <use x="203.865234" xlink:href="#ArialMT-110"/>
       <use x="259.480469" xlink:href="#ArialMT-101"/>
       <use x="315.095703" xlink:href="#ArialMT-115"/>
       <use x="365.095703" xlink:href="#ArialMT-100"/>
       <use x="420.710938" xlink:href="#ArialMT-97"/>
       <use x="476.326172" xlink:href="#ArialMT-121"/>
      </g>
     </g>
    </g>
    <g id="xtick_5">
     <g id="text_5">
      <!-- Thursday -->
      <defs>
       <path d="M 6.59375 0 
L 6.59375 71.578125 
L 15.375 71.578125 
L 15.375 45.90625 
Q 21.53125 53.03125 30.90625 53.03125 
Q 36.671875 53.03125 40.921875 50.75 
Q 45.171875 48.484375 47 44.484375 
Q 48.828125 40.484375 48.828125 32.859375 
L 48.828125 0 
L 40.046875 0 
L 40.046875 32.859375 
Q 40.046875 39.453125 37.1875 42.453125 
Q 34.328125 45.453125 29.109375 45.453125 
Q 25.203125 45.453125 21.75 43.421875 
Q 18.3125 41.40625 16.84375 37.9375 
Q 15.375 34.46875 15.375 28.375 
L 15.375 0 
z
" id="ArialMT-104"/>
       <path d="M 6.5 0 
L 6.5 51.859375 
L 14.40625 51.859375 
L 14.40625 44 
Q 17.4375 49.515625 20 51.265625 
Q 22.5625 53.03125 25.640625 53.03125 
Q 30.078125 53.03125 34.671875 50.203125 
L 31.640625 42.046875 
Q 28.421875 43.953125 25.203125 43.953125 
Q 22.3125 43.953125 20.015625 42.21875 
Q 17.71875 40.484375 16.75 37.40625 
Q 15.28125 32.71875 15.28125 27.15625 
L 15.28125 0 
z
" id="ArialMT-114"/>
      </defs>
      <g style="fill:#262626;" transform="translate(459.02868 381.592925)scale(0.14 -0.14)">
       <use xlink:href="#ArialMT-84"/>
       <use x="61.083984" xlink:href="#ArialMT-104"/>
       <use x="116.699219" xlink:href="#ArialMT-117"/>
       <use x="172.314453" xlink:href="#ArialMT-114"/>
       <use x="205.615234" xlink:href="#ArialMT-115"/>
       <use x="255.615234" xlink:href="#ArialMT-100"/>
       <use x="311.230469" xlink:href="#ArialMT-97"/>
       <use x="366.845703" xlink:href="#ArialMT-121"/>
      </g>
     </g>
    </g>
    <g id="xtick_6">
     <g id="text_6">
      <!-- Friday -->
      <defs>
       <path d="M 8.203125 0 
L 8.203125 71.578125 
L 56.5 71.578125 
L 56.5 63.140625 
L 17.671875 63.140625 
L 17.671875 40.96875 
L 51.265625 40.96875 
L 51.265625 32.515625 
L 17.671875 32.515625 
L 17.671875 0 
z
" id="ArialMT-70"/>
       <path d="M 6.640625 61.46875 
L 6.640625 71.578125 
L 15.4375 71.578125 
L 15.4375 61.46875 
z
M 6.640625 0 
L 6.640625 51.859375 
L 15.4375 51.859375 
L 15.4375 0 
z
" id="ArialMT-105"/>
      </defs>
      <g style="fill:#262626;" transform="translate(564.415823 381.592925)scale(0.14 -0.14)">
       <use xlink:href="#ArialMT-70"/>
       <use x="61.083984" xlink:href="#ArialMT-114"/>
       <use x="94.384766" xlink:href="#ArialMT-105"/>
       <use x="116.601562" xlink:href="#ArialMT-100"/>
       <use x="172.216797" xlink:href="#ArialMT-97"/>
       <use x="227.832031" xlink:href="#ArialMT-121"/>
      </g>
     </g>
    </g>
    <g id="xtick_7">
     <g id="text_7">
      <!-- Saturday -->
      <defs>
       <path d="M 25.78125 7.859375 
L 27.046875 0.09375 
Q 23.34375 -0.6875 20.40625 -0.6875 
Q 15.625 -0.6875 12.984375 0.828125 
Q 10.359375 2.34375 9.28125 4.8125 
Q 8.203125 7.28125 8.203125 15.1875 
L 8.203125 45.015625 
L 1.765625 45.015625 
L 1.765625 51.859375 
L 8.203125 51.859375 
L 8.203125 64.703125 
L 16.9375 69.96875 
L 16.9375 51.859375 
L 25.78125 51.859375 
L 25.78125 45.015625 
L 16.9375 45.015625 
L 16.9375 14.703125 
Q 16.9375 10.9375 17.40625 9.859375 
Q 17.875 8.796875 18.921875 8.15625 
Q 19.96875 7.515625 21.921875 7.515625 
Q 23.390625 7.515625 25.78125 7.859375 
z
" id="ArialMT-116"/>
      </defs>
      <g style="fill:#262626;" transform="translate(651.504529 381.76355)scale(0.14 -0.14)">
       <use xlink:href="#ArialMT-83"/>
       <use x="66.699219" xlink:href="#ArialMT-97"/>
       <use x="122.314453" xlink:href="#ArialMT-116"/>
       <use x="150.097656" xlink:href="#ArialMT-117"/>
       <use x="205.712891" xlink:href="#ArialMT-114"/>
       <use x="239.013672" xlink:href="#ArialMT-100"/>
       <use x="294.628906" xlink:href="#ArialMT-97"/>
       <use x="350.244141" xlink:href="#ArialMT-121"/>
      </g>
     </g>
    </g>
   </g>
   <g id="matplotlib.axis_2">
    <g id="ytick_1">
     <g id="text_8">
      <!-- 0.50 -->
      <defs>
       <path d="M 4.15625 35.296875 
Q 4.15625 48 6.765625 55.734375 
Q 9.375 63.484375 14.515625 67.671875 
Q 19.671875 71.875 27.484375 71.875 
Q 33.25 71.875 37.59375 69.546875 
Q 41.9375 67.234375 44.765625 62.859375 
Q 47.609375 58.5 49.21875 52.21875 
Q 50.828125 45.953125 50.828125 35.296875 
Q 50.828125 22.703125 48.234375 14.96875 
Q 45.65625 7.234375 40.5 3 
Q 35.359375 -1.21875 27.484375 -1.21875 
Q 17.140625 -1.21875 11.234375 6.203125 
Q 4.15625 15.140625 4.15625 35.296875 
z
M 13.1875 35.296875 
Q 13.1875 17.671875 17.3125 11.828125 
Q 21.4375 6 27.484375 6 
Q 33.546875 6 37.671875 11.859375 
Q 41.796875 17.71875 41.796875 35.296875 
Q 41.796875 52.984375 37.671875 58.78125 
Q 33.546875 64.59375 27.390625 64.59375 
Q 21.34375 64.59375 17.71875 59.46875 
Q 13.1875 52.9375 13.1875 35.296875 
z
" id="ArialMT-48"/>
       <path d="M 9.078125 0 
L 9.078125 10.015625 
L 19.09375 10.015625 
L 19.09375 0 
z
" id="ArialMT-46"/>
       <path d="M 4.15625 18.75 
L 13.375 19.53125 
Q 14.40625 12.796875 18.140625 9.390625 
Q 21.875 6 27.15625 6 
Q 33.5 6 37.890625 10.78125 
Q 42.28125 15.578125 42.28125 23.484375 
Q 42.28125 31 38.0625 35.34375 
Q 33.84375 39.703125 27 39.703125 
Q 22.75 39.703125 19.328125 37.765625 
Q 15.921875 35.84375 13.96875 32.765625 
L 5.71875 33.84375 
L 12.640625 70.609375 
L 48.25 70.609375 
L 48.25 62.203125 
L 19.671875 62.203125 
L 15.828125 42.96875 
Q 22.265625 47.46875 29.34375 47.46875 
Q 38.71875 47.46875 45.15625 40.96875 
Q 51.609375 34.46875 51.609375 24.265625 
Q 51.609375 14.546875 45.953125 7.46875 
Q 39.0625 -1.21875 27.15625 -1.21875 
Q 17.390625 -1.21875 11.203125 4.25 
Q 5.03125 9.71875 4.15625 18.75 
z
" id="ArialMT-53"/>
      </defs>
      <g style="fill:#262626;" transform="translate(27.0031 344.060248)scale(0.14 -0.14)">
       <use xlink:href="#ArialMT-48"/>
       <use x="55.615234" xlink:href="#ArialMT-46"/>
       <use x="83.398438" xlink:href="#ArialMT-53"/>
       <use x="139.013672" xlink:href="#ArialMT-48"/>
      </g>
     </g>
    </g>
    <g id="ytick_2">
     <g id="text_9">
      <!-- 0.75 -->
      <defs>
       <path d="M 4.734375 62.203125 
L 4.734375 70.65625 
L 51.078125 70.65625 
L 51.078125 63.8125 
Q 44.234375 56.546875 37.515625 44.484375 
Q 30.8125 32.421875 27.15625 19.671875 
Q 24.515625 10.6875 23.78125 0 
L 14.75 0 
Q 14.890625 8.453125 18.0625 20.40625 
Q 21.234375 32.375 27.171875 43.484375 
Q 33.109375 54.59375 39.796875 62.203125 
z
" id="ArialMT-55"/>
      </defs>
      <g style="fill:#262626;" transform="translate(27.0031 307.777164)scale(0.14 -0.14)">
       <use xlink:href="#ArialMT-48"/>
       <use x="55.615234" xlink:href="#ArialMT-46"/>
       <use x="83.398438" xlink:href="#ArialMT-55"/>
       <use x="139.013672" xlink:href="#ArialMT-53"/>
      </g>
     </g>
    </g>
    <g id="ytick_3">
     <g id="text_10">
      <!-- 1.00 -->
      <defs>
       <path d="M 37.25 0 
L 28.46875 0 
L 28.46875 56 
Q 25.296875 52.984375 20.140625 49.953125 
Q 14.984375 46.921875 10.890625 45.40625 
L 10.890625 53.90625 
Q 18.265625 57.375 23.78125 62.296875 
Q 29.296875 67.234375 31.59375 71.875 
L 37.25 71.875 
z
" id="ArialMT-49"/>
      </defs>
      <g style="fill:#262626;" transform="translate(27.0031 271.494079)scale(0.14 -0.14)">
       <use xlink:href="#ArialMT-49"/>
       <use x="55.615234" xlink:href="#ArialMT-46"/>
       <use x="83.398438" xlink:href="#ArialMT-48"/>
       <use x="139.013672" xlink:href="#ArialMT-48"/>
      </g>
     </g>
    </g>
    <g id="ytick_4">
     <g id="text_11">
      <!-- 1.25 -->
      <defs>
       <path d="M 50.34375 8.453125 
L 50.34375 0 
L 3.03125 0 
Q 2.9375 3.171875 4.046875 6.109375 
Q 5.859375 10.9375 9.828125 15.625 
Q 13.8125 20.3125 21.34375 26.46875 
Q 33.015625 36.03125 37.109375 41.625 
Q 41.21875 47.21875 41.21875 52.203125 
Q 41.21875 57.421875 37.46875 61 
Q 33.734375 64.59375 27.734375 64.59375 
Q 21.390625 64.59375 17.578125 60.78125 
Q 13.765625 56.984375 13.71875 50.25 
L 4.6875 51.171875 
Q 5.609375 61.28125 11.65625 66.578125 
Q 17.71875 71.875 27.9375 71.875 
Q 38.234375 71.875 44.234375 66.15625 
Q 50.25 60.453125 50.25 52 
Q 50.25 47.703125 48.484375 43.546875 
Q 46.734375 39.40625 42.65625 34.8125 
Q 38.578125 30.21875 29.109375 22.21875 
Q 21.1875 15.578125 18.9375 13.203125 
Q 16.703125 10.84375 15.234375 8.453125 
z
" id="ArialMT-50"/>
      </defs>
      <g style="fill:#262626;" transform="translate(27.0031 235.210995)scale(0.14 -0.14)">
       <use xlink:href="#ArialMT-49"/>
       <use x="55.615234" xlink:href="#ArialMT-46"/>
       <use x="83.398438" xlink:href="#ArialMT-50"/>
       <use x="139.013672" xlink:href="#ArialMT-53"/>
      </g>
     </g>
    </g>
    <g id="ytick_5">
     <g id="text_12">
      <!-- 1.50 -->
      <g style="fill:#262626;" transform="translate(27.0031 198.927911)scale(0.14 -0.14)">
       <use xlink:href="#ArialMT-49"/>
       <use x="55.615234" xlink:href="#ArialMT-46"/>
       <use x="83.398438" xlink:href="#ArialMT-53"/>
       <use x="139.013672" xlink:href="#ArialMT-48"/>
      </g>
     </g>
    </g>
    <g id="ytick_6">
     <g id="text_13">
      <!-- 1.75 -->
      <g style="fill:#262626;" transform="translate(27.0031 162.644827)scale(0.14 -0.14)">
       <use xlink:href="#ArialMT-49"/>
       <use x="55.615234" xlink:href="#ArialMT-46"/>
       <use x="83.398438" xlink:href="#ArialMT-55"/>
       <use x="139.013672" xlink:href="#ArialMT-53"/>
      </g>
     </g>
    </g>
    <g id="ytick_7">
     <g id="text_14">
      <!-- 2.00 -->
      <g style="fill:#262626;" transform="translate(27.0031 126.361743)scale(0.14 -0.14)">
       <use xlink:href="#ArialMT-50"/>
       <use x="55.615234" xlink:href="#ArialMT-46"/>
       <use x="83.398438" xlink:href="#ArialMT-48"/>
       <use x="139.013672" xlink:href="#ArialMT-48"/>
      </g>
     </g>
    </g>
    <g id="ytick_8">
     <g id="text_15">
      <!-- 2.25 -->
      <g style="fill:#262626;" transform="translate(27.0031 90.078658)scale(0.14 -0.14)">
       <use xlink:href="#ArialMT-50"/>
       <use x="55.615234" xlink:href="#ArialMT-46"/>
       <use x="83.398438" xlink:href="#ArialMT-50"/>
       <use x="139.013672" xlink:href="#ArialMT-53"/>
      </g>
     </g>
    </g>
    <g id="ytick_9">
     <g id="text_16">
      <!-- 2.50 -->
      <g style="fill:#262626;" transform="translate(27.0031 53.795574)scale(0.14 -0.14)">
       <use xlink:href="#ArialMT-50"/>
       <use x="55.615234" xlink:href="#ArialMT-46"/>
       <use x="83.398438" xlink:href="#ArialMT-53"/>
       <use x="139.013672" xlink:href="#ArialMT-48"/>
      </g>
     </g>
    </g>
    <g id="text_17">
     <!-- Crash Ratio: End DST Week / Two Weeks After -->
     <defs>
      <path d="M 58.796875 25.09375 
L 68.265625 22.703125 
Q 65.28125 11.03125 57.546875 4.90625 
Q 49.8125 -1.21875 38.625 -1.21875 
Q 27.046875 -1.21875 19.796875 3.484375 
Q 12.546875 8.203125 8.765625 17.140625 
Q 4.984375 26.078125 4.984375 36.328125 
Q 4.984375 47.515625 9.25 55.828125 
Q 13.53125 64.15625 21.40625 68.46875 
Q 29.296875 72.796875 38.765625 72.796875 
Q 49.515625 72.796875 56.828125 67.328125 
Q 64.15625 61.859375 67.046875 51.953125 
L 57.71875 49.75 
Q 55.21875 57.5625 50.484375 61.125 
Q 45.75 64.703125 38.578125 64.703125 
Q 30.328125 64.703125 24.78125 60.734375 
Q 19.234375 56.78125 16.984375 50.109375 
Q 14.75 43.453125 14.75 36.375 
Q 14.75 27.25 17.40625 20.4375 
Q 20.0625 13.625 25.671875 10.25 
Q 31.296875 6.890625 37.84375 6.890625 
Q 45.796875 6.890625 51.3125 11.46875 
Q 56.84375 16.0625 58.796875 25.09375 
z
" id="ArialMT-67"/>
      <path d="M 7.859375 0 
L 7.859375 71.578125 
L 39.59375 71.578125 
Q 49.171875 71.578125 54.140625 69.640625 
Q 59.125 67.71875 62.109375 62.828125 
Q 65.09375 57.953125 65.09375 52.046875 
Q 65.09375 44.4375 60.15625 39.203125 
Q 55.21875 33.984375 44.921875 32.5625 
Q 48.6875 30.765625 50.640625 29 
Q 54.78125 25.203125 58.5 19.484375 
L 70.953125 0 
L 59.03125 0 
L 49.5625 14.890625 
Q 45.40625 21.34375 42.71875 24.75 
Q 40.046875 28.171875 37.921875 29.53125 
Q 35.796875 30.90625 33.59375 31.453125 
Q 31.984375 31.78125 28.328125 31.78125 
L 17.328125 31.78125 
L 17.328125 0 
z
M 17.328125 39.984375 
L 37.703125 39.984375 
Q 44.1875 39.984375 47.84375 41.328125 
Q 51.515625 42.671875 53.421875 45.625 
Q 55.328125 48.578125 55.328125 52.046875 
Q 55.328125 57.125 51.640625 60.390625 
Q 47.953125 63.671875 39.984375 63.671875 
L 17.328125 63.671875 
z
" id="ArialMT-82"/>
      <path d="M 9.03125 41.84375 
L 9.03125 51.859375 
L 19.046875 51.859375 
L 19.046875 41.84375 
z
M 9.03125 0 
L 9.03125 10.015625 
L 19.046875 10.015625 
L 19.046875 0 
z
" id="ArialMT-58"/>
      <path d="M 6.640625 0 
L 6.640625 71.578125 
L 15.4375 71.578125 
L 15.4375 30.765625 
L 36.234375 51.859375 
L 47.609375 51.859375 
L 27.78125 32.625 
L 49.609375 0 
L 38.765625 0 
L 21.625 26.515625 
L 15.4375 20.5625 
L 15.4375 0 
z
" id="ArialMT-107"/>
      <path d="M 0 -1.21875 
L 20.75 72.796875 
L 27.78125 72.796875 
L 7.078125 -1.21875 
z
" id="ArialMT-47"/>
      <path d="M 16.15625 0 
L 0.296875 51.859375 
L 9.375 51.859375 
L 17.625 21.921875 
L 20.703125 10.796875 
Q 20.90625 11.625 23.390625 21.484375 
L 31.640625 51.859375 
L 40.671875 51.859375 
L 48.4375 21.78125 
L 51.03125 11.859375 
L 54 21.875 
L 62.890625 51.859375 
L 71.4375 51.859375 
L 55.21875 0 
L 46.09375 0 
L 37.84375 31.0625 
L 35.84375 39.890625 
L 25.34375 0 
z
" id="ArialMT-119"/>
      <path d="M -0.140625 0 
L 27.34375 71.578125 
L 37.546875 71.578125 
L 66.84375 0 
L 56.0625 0 
L 47.703125 21.6875 
L 17.78125 21.6875 
L 9.90625 0 
z
M 20.515625 29.390625 
L 44.78125 29.390625 
L 37.3125 49.21875 
Q 33.890625 58.25 32.234375 64.0625 
Q 30.859375 57.171875 28.375 50.390625 
z
" id="ArialMT-65"/>
      <path d="M 8.6875 0 
L 8.6875 45.015625 
L 0.921875 45.015625 
L 0.921875 51.859375 
L 8.6875 51.859375 
L 8.6875 57.375 
Q 8.6875 62.59375 9.625 65.140625 
Q 10.890625 68.5625 14.078125 70.671875 
Q 17.28125 72.796875 23.046875 72.796875 
Q 26.765625 72.796875 31.25 71.921875 
L 29.9375 64.265625 
Q 27.203125 64.75 24.75 64.75 
Q 20.75 64.75 19.09375 63.03125 
Q 17.4375 61.328125 17.4375 56.640625 
L 17.4375 51.859375 
L 27.546875 51.859375 
L 27.546875 45.015625 
L 17.4375 45.015625 
L 17.4375 0 
z
" id="ArialMT-102"/>
     </defs>
     <g style="fill:#262626;" transform="translate(19.5687 386.363137)rotate(-90)scale(0.1728 -0.1728)">
      <use xlink:href="#ArialMT-67"/>
      <use x="72.216797" xlink:href="#ArialMT-114"/>
      <use x="105.517578" xlink:href="#ArialMT-97"/>
      <use x="161.132812" xlink:href="#ArialMT-115"/>
      <use x="211.132812" xlink:href="#ArialMT-104"/>
      <use x="266.748047" xlink:href="#ArialMT-32"/>
      <use x="294.53125" xlink:href="#ArialMT-82"/>
      <use x="366.748047" xlink:href="#ArialMT-97"/>
      <use x="422.363281" xlink:href="#ArialMT-116"/>
      <use x="450.146484" xlink:href="#ArialMT-105"/>
      <use x="472.363281" xlink:href="#ArialMT-111"/>
      <use x="527.978516" xlink:href="#ArialMT-58"/>
      <use x="555.761719" xlink:href="#ArialMT-32"/>
      <use x="583.544922" xlink:href="#ArialMT-69"/>
      <use x="650.244141" xlink:href="#ArialMT-110"/>
      <use x="705.859375" xlink:href="#ArialMT-100"/>
      <use x="761.474609" xlink:href="#ArialMT-32"/>
      <use x="789.257812" xlink:href="#ArialMT-68"/>
      <use x="861.474609" xlink:href="#ArialMT-83"/>
      <use x="928.173828" xlink:href="#ArialMT-84"/>
      <use x="987.507812" xlink:href="#ArialMT-32"/>
      <use x="1015.291016" xlink:href="#ArialMT-87"/>
      <use x="1107.925781" xlink:href="#ArialMT-101"/>
      <use x="1163.541016" xlink:href="#ArialMT-101"/>
      <use x="1219.15625" xlink:href="#ArialMT-107"/>
      <use x="1269.15625" xlink:href="#ArialMT-32"/>
      <use x="1296.939453" xlink:href="#ArialMT-47"/>
      <use x="1324.722656" xlink:href="#ArialMT-32"/>
      <use x="1350.755859" xlink:href="#ArialMT-84"/>
      <use x="1406.339844" xlink:href="#ArialMT-119"/>
      <use x="1478.556641" xlink:href="#ArialMT-111"/>
      <use x="1534.171875" xlink:href="#ArialMT-32"/>
      <use x="1561.955078" xlink:href="#ArialMT-87"/>
      <use x="1654.589844" xlink:href="#ArialMT-101"/>
      <use x="1710.205078" xlink:href="#ArialMT-101"/>
      <use x="1765.820312" xlink:href="#ArialMT-107"/>
      <use x="1815.820312" xlink:href="#ArialMT-115"/>
      <use x="1865.820312" xlink:href="#ArialMT-32"/>
      <use x="1888.103516" xlink:href="#ArialMT-65"/>
      <use x="1954.802734" xlink:href="#ArialMT-102"/>
      <use x="1982.585938" xlink:href="#ArialMT-116"/>
      <use x="2010.369141" xlink:href="#ArialMT-101"/>
      <use x="2065.984375" xlink:href="#ArialMT-114"/>
     </g>
    </g>
   </g>
   <g id="PolyCollection_1">
    <defs>
     <path d="M 106.000597 -65.923816 
L 105.153371 -65.923816 
L 105.049739 -67.019911 
L 104.928741 -68.116006 
L 104.789622 -69.2121 
L 104.632141 -70.308195 
L 104.456669 -71.40429 
L 104.264261 -72.500384 
L 104.056684 -73.596479 
L 103.836396 -74.692574 
L 103.606466 -75.788668 
L 103.370433 -76.884763 
L 103.132106 -77.980857 
L 102.895323 -79.076952 
L 102.663666 -80.173047 
L 102.440179 -81.269141 
L 102.227092 -82.365236 
L 102.025591 -83.461331 
L 101.835656 -84.557425 
L 101.655984 -85.65352 
L 101.484015 -86.749615 
L 101.316061 -87.845709 
L 101.147526 -88.941804 
L 100.973212 -90.037899 
L 100.787667 -91.133993 
L 100.585545 -92.230088 
L 100.36195 -93.326183 
L 100.112707 -94.422277 
L 99.834554 -95.518372 
L 99.52521 -96.614467 
L 99.183332 -97.710561 
L 98.808356 -98.806656 
L 98.400244 -99.902751 
L 97.959176 -100.998845 
L 97.485226 -102.09494 
L 96.978064 -103.191035 
L 96.436733 -104.287129 
L 95.859533 -105.383224 
L 95.244029 -106.479318 
L 94.587209 -107.575413 
L 93.885755 -108.671508 
L 93.136426 -109.767602 
L 92.336504 -110.863697 
L 91.48426 -111.959792 
L 90.579391 -113.055886 
L 89.62339 -114.151981 
L 88.619816 -115.248076 
L 87.574435 -116.34417 
L 86.495233 -117.440265 
L 85.39231 -118.53636 
L 84.27767 -119.632454 
L 83.164929 -120.728549 
L 82.06898 -121.824644 
L 81.005627 -122.920738 
L 79.991212 -124.016833 
L 79.042257 -125.112928 
L 78.175092 -126.209022 
L 77.405504 -127.305117 
L 76.748365 -128.401212 
L 76.217258 -129.497306 
L 75.824079 -130.593401 
L 75.578641 -131.689495 
L 75.488284 -132.78559 
L 75.557515 -133.881685 
L 75.787722 -134.977779 
L 76.176983 -136.073874 
L 76.72001 -137.169969 
L 77.408242 -138.266063 
L 78.230101 -139.362158 
L 79.171411 -140.458253 
L 80.215946 -141.554347 
L 81.346081 -142.650442 
L 82.543493 -143.746537 
L 83.789868 -144.842631 
L 85.067549 -145.938726 
L 86.360091 -147.034821 
L 87.652685 -148.130915 
L 88.932428 -149.22701 
L 90.188442 -150.323105 
L 91.411844 -151.419199 
L 92.595602 -152.515294 
L 93.734308 -153.611389 
L 94.823892 -154.707483 
L 95.861345 -155.803578 
L 96.844443 -156.899672 
L 97.771538 -157.995767 
L 98.641392 -159.091862 
L 99.453094 -160.187956 
L 100.206029 -161.284051 
L 100.899893 -162.380146 
L 101.534756 -163.47624 
L 102.111118 -164.572335 
L 102.629983 -165.66843 
L 103.092896 -166.764524 
L 103.501964 -167.860619 
L 103.859838 -168.956714 
L 104.16966 -170.052808 
L 104.434985 -171.148903 
L 104.659675 -172.244998 
L 104.847783 -173.341092 
L 105.00343 -174.437187 
L 106.150538 -174.437187 
L 106.150538 -174.437187 
L 106.306185 -173.341092 
L 106.494293 -172.244998 
L 106.718983 -171.148903 
L 106.984308 -170.052808 
L 107.29413 -168.956714 
L 107.652004 -167.860619 
L 108.061072 -166.764524 
L 108.523985 -165.66843 
L 109.042849 -164.572335 
L 109.619212 -163.47624 
L 110.254075 -162.380146 
L 110.947939 -161.284051 
L 111.700874 -160.187956 
L 112.512576 -159.091862 
L 113.38243 -157.995767 
L 114.309525 -156.899672 
L 115.292623 -155.803578 
L 116.330076 -154.707483 
L 117.41966 -153.611389 
L 118.558365 -152.515294 
L 119.742124 -151.419199 
L 120.965526 -150.323105 
L 122.221539 -149.22701 
L 123.501283 -148.130915 
L 124.793877 -147.034821 
L 126.086419 -145.938726 
L 127.3641 -144.842631 
L 128.610475 -143.746537 
L 129.807887 -142.650442 
L 130.938021 -141.554347 
L 131.982556 -140.458253 
L 132.923867 -139.362158 
L 133.745726 -138.266063 
L 134.433957 -137.169969 
L 134.976985 -136.073874 
L 135.366246 -134.977779 
L 135.596453 -133.881685 
L 135.665684 -132.78559 
L 135.575326 -131.689495 
L 135.329889 -130.593401 
L 134.93671 -129.497306 
L 134.405603 -128.401212 
L 133.748464 -127.305117 
L 132.978876 -126.209022 
L 132.111711 -125.112928 
L 131.162755 -124.016833 
L 130.148341 -122.920738 
L 129.084987 -121.824644 
L 127.989038 -120.728549 
L 126.876298 -119.632454 
L 125.761658 -118.53636 
L 124.658735 -117.440265 
L 123.579533 -116.34417 
L 122.534151 -115.248076 
L 121.530578 -114.151981 
L 120.574577 -113.055886 
L 119.669708 -111.959792 
L 118.817463 -110.863697 
L 118.017542 -109.767602 
L 117.268213 -108.671508 
L 116.566759 -107.575413 
L 115.909939 -106.479318 
L 115.294435 -105.383224 
L 114.717234 -104.287129 
L 114.175904 -103.191035 
L 113.668742 -102.09494 
L 113.194792 -100.998845 
L 112.753724 -99.902751 
L 112.345612 -98.806656 
L 111.970636 -97.710561 
L 111.628758 -96.614467 
L 111.319414 -95.518372 
L 111.04126 -94.422277 
L 110.792018 -93.326183 
L 110.568422 -92.230088 
L 110.366301 -91.133993 
L 110.180756 -90.037899 
L 110.006442 -88.941804 
L 109.837907 -87.845709 
L 109.669952 -86.749615 
L 109.497984 -85.65352 
L 109.318312 -84.557425 
L 109.128377 -83.461331 
L 108.926876 -82.365236 
L 108.713788 -81.269141 
L 108.490301 -80.173047 
L 108.258645 -79.076952 
L 108.021861 -77.980857 
L 107.783535 -76.884763 
L 107.547501 -75.788668 
L 107.317571 -74.692574 
L 107.097284 -73.596479 
L 106.889707 -72.500384 
L 106.697299 -71.40429 
L 106.521827 -70.308195 
L 106.364346 -69.2121 
L 106.225227 -68.116006 
L 106.104229 -67.019911 
L 106.000597 -65.923816 
z
" id="mc70731b24f" style="stroke:#414141;stroke-width:2;"/>
    </defs>
    <g clip-path="url(#pb87ebdec98)">
     <use style="fill:#e68193;stroke:#414141;stroke-width:2;" x="0" xlink:href="#mc70731b24f" y="393.563137"/>
    </g>
   </g>
   <g id="PolyCollection_2">
    <defs>
     <path d="M 201.81046 -85.383945 
L 200.657793 -85.383945 
L 200.508301 -86.3274 
L 200.330349 -87.270855 
L 200.121365 -88.214311 
L 199.879254 -89.157766 
L 199.60258 -90.101221 
L 199.29074 -91.044676 
L 198.944114 -91.988132 
L 198.564179 -92.931587 
L 198.15357 -93.875042 
L 197.716079 -94.818498 
L 197.256573 -95.761953 
L 196.780846 -96.705408 
L 196.295384 -97.648863 
L 195.807077 -98.592319 
L 195.322868 -99.535774 
L 194.84938 -100.479229 
L 194.392534 -101.422685 
L 193.957191 -102.36614 
L 193.546836 -103.309595 
L 193.163341 -104.25305 
L 192.806804 -105.196506 
L 192.475499 -106.139961 
L 192.165915 -107.083416 
L 191.872898 -108.026872 
L 191.589866 -108.970327 
L 191.309089 -109.913782 
L 191.021997 -110.857237 
L 190.719499 -111.800693 
L 190.392287 -112.744148 
L 190.031104 -113.687603 
L 189.626962 -114.631059 
L 189.171317 -115.574514 
L 188.6562 -116.517969 
L 188.074321 -117.461424 
L 187.419169 -118.40488 
L 186.685135 -119.348335 
L 185.867677 -120.29179 
L 184.963556 -121.235245 
L 183.971133 -122.178701 
L 182.89075 -123.122156 
L 181.725146 -124.065611 
L 180.479904 -125.009067 
L 179.163857 -125.952522 
L 177.789424 -126.895977 
L 176.372797 -127.839432 
L 174.933945 -128.782888 
L 173.496385 -129.726343 
L 172.086708 -130.669798 
L 170.733845 -131.613254 
L 169.46812 -132.556709 
L 168.320113 -133.500164 
L 167.319426 -134.443619 
L 166.493404 -135.387075 
L 165.86593 -136.33053 
L 165.456342 -137.273985 
L 165.278569 -138.217441 
L 165.340522 -139.160896 
L 165.64378 -140.104351 
L 166.183579 -141.047806 
L 166.949081 -141.991262 
L 167.923906 -142.934717 
L 169.086867 -143.878172 
L 170.412875 -144.821628 
L 171.873938 -145.765083 
L 173.440225 -146.708538 
L 175.081125 -147.651993 
L 176.766283 -148.595449 
L 178.466558 -149.538904 
L 180.154887 -150.482359 
L 181.807018 -151.425815 
L 183.402101 -152.36927 
L 184.923115 -153.312725 
L 186.357109 -154.25618 
L 187.695265 -155.199636 
L 188.932778 -156.143091 
L 190.068555 -157.086546 
L 191.104768 -158.030002 
L 192.046283 -158.973457 
L 192.900004 -159.916912 
L 193.674184 -160.860367 
L 194.37774 -161.803823 
L 195.019622 -162.747278 
L 195.608279 -163.690733 
L 196.151237 -164.634189 
L 196.654823 -165.577644 
L 197.124021 -166.521099 
L 197.56247 -167.464554 
L 197.972564 -168.40801 
L 198.355648 -169.351465 
L 198.712266 -170.29492 
L 199.042429 -171.238376 
L 199.345889 -172.181831 
L 199.62237 -173.125286 
L 199.871764 -174.068741 
L 200.094272 -175.012197 
L 200.290475 -175.955652 
L 200.461367 -176.899107 
L 200.608327 -177.842563 
L 200.733069 -178.786018 
L 201.735185 -178.786018 
L 201.735185 -178.786018 
L 201.859926 -177.842563 
L 202.006887 -176.899107 
L 202.177779 -175.955652 
L 202.373982 -175.012197 
L 202.596489 -174.068741 
L 202.845884 -173.125286 
L 203.122365 -172.181831 
L 203.425824 -171.238376 
L 203.755988 -170.29492 
L 204.112606 -169.351465 
L 204.49569 -168.40801 
L 204.905784 -167.464554 
L 205.344232 -166.521099 
L 205.813431 -165.577644 
L 206.317017 -164.634189 
L 206.859975 -163.690733 
L 207.448631 -162.747278 
L 208.090514 -161.803823 
L 208.794069 -160.860367 
L 209.568249 -159.916912 
L 210.421971 -158.973457 
L 211.363486 -158.030002 
L 212.399699 -157.086546 
L 213.535476 -156.143091 
L 214.772989 -155.199636 
L 216.111145 -154.25618 
L 217.545139 -153.312725 
L 219.066152 -152.36927 
L 220.661236 -151.425815 
L 222.313367 -150.482359 
L 224.001695 -149.538904 
L 225.701971 -148.595449 
L 227.387129 -147.651993 
L 229.028029 -146.708538 
L 230.594315 -145.765083 
L 232.055379 -144.821628 
L 233.381387 -143.878172 
L 234.544348 -142.934717 
L 235.519172 -141.991262 
L 236.284674 -141.047806 
L 236.824474 -140.104351 
L 237.127732 -139.160896 
L 237.189685 -138.217441 
L 237.011912 -137.273985 
L 236.602324 -136.33053 
L 235.97485 -135.387075 
L 235.148828 -134.443619 
L 234.14814 -133.500164 
L 233.000134 -132.556709 
L 231.734409 -131.613254 
L 230.381546 -130.669798 
L 228.971869 -129.726343 
L 227.534309 -128.782888 
L 226.095456 -127.839432 
L 224.678829 -126.895977 
L 223.304396 -125.952522 
L 221.98835 -125.009067 
L 220.743107 -124.065611 
L 219.577503 -123.122156 
L 218.49712 -122.178701 
L 217.504698 -121.235245 
L 216.600576 -120.29179 
L 215.783119 -119.348335 
L 215.049085 -118.40488 
L 214.393932 -117.461424 
L 213.812053 -116.517969 
L 213.296937 -115.574514 
L 212.841292 -114.631059 
L 212.43715 -113.687603 
L 212.075966 -112.744148 
L 211.748755 -111.800693 
L 211.446257 -110.857237 
L 211.159164 -109.913782 
L 210.878387 -108.970327 
L 210.595355 -108.026872 
L 210.302338 -107.083416 
L 209.992754 -106.139961 
L 209.661449 -105.196506 
L 209.304913 -104.25305 
L 208.921418 -103.309595 
L 208.511063 -102.36614 
L 208.075719 -101.422685 
L 207.618873 -100.479229 
L 207.145385 -99.535774 
L 206.661176 -98.592319 
L 206.172869 -97.648863 
L 205.687408 -96.705408 
L 205.21168 -95.761953 
L 204.752174 -94.818498 
L 204.314683 -93.875042 
L 203.904075 -92.931587 
L 203.52414 -91.988132 
L 203.177514 -91.044676 
L 202.865674 -90.101221 
L 202.589 -89.157766 
L 202.346889 -88.214311 
L 202.137904 -87.270855 
L 201.959952 -86.3274 
L 201.81046 -85.383945 
z
" id="m7a6e7182ae" style="stroke:#414141;stroke-width:2;"/>
    </defs>
    <g clip-path="url(#pb87ebdec98)">
     <use style="fill:#b38e44;stroke:#414141;stroke-width:2;" x="0" xlink:href="#m7a6e7182ae" y="393.563137"/>
    </g>
   </g>
   <g id="PolyCollection_3">
    <defs>
     <path d="M 297.611303 -92.728046 
L 296.171237 -92.728046 
L 295.959164 -93.698585 
L 295.697206 -94.669125 
L 295.37736 -95.639664 
L 294.991325 -96.610203 
L 294.53075 -97.580742 
L 293.987543 -98.551281 
L 293.354241 -99.52182 
L 292.624415 -100.492359 
L 291.793114 -101.462899 
L 290.857314 -102.433438 
L 289.816345 -103.403977 
L 288.672279 -104.374516 
L 287.430225 -105.345055 
L 286.098515 -106.315594 
L 284.688731 -107.286133 
L 283.215568 -108.256673 
L 281.696495 -109.227212 
L 280.151219 -110.197751 
L 278.600981 -111.16829 
L 277.067684 -112.138829 
L 275.572928 -113.109368 
L 274.137015 -114.079907 
L 272.777979 -115.050447 
L 271.510748 -116.020986 
L 270.346498 -116.991525 
L 269.29227 -117.962064 
L 268.350898 -118.932603 
L 267.521262 -119.903142 
L 266.798853 -120.873681 
L 266.176621 -121.844221 
L 265.646013 -122.81476 
L 265.19812 -123.785299 
L 264.824832 -124.755838 
L 264.519871 -125.726377 
L 264.279622 -126.696916 
L 264.103665 -127.667455 
L 263.994974 -128.637995 
L 263.959745 -129.608534 
L 264.006888 -130.579073 
L 264.147222 -131.549612 
L 264.392463 -132.520151 
L 264.754092 -133.49069 
L 265.242212 -134.461229 
L 265.864499 -135.431769 
L 266.62533 -136.402308 
L 267.525159 -137.372847 
L 268.560185 -138.343386 
L 269.722308 -139.313925 
L 270.999385 -140.284464 
L 272.375715 -141.255003 
L 273.832722 -142.225543 
L 275.34975 -143.196082 
L 276.904925 -144.166621 
L 278.475985 -145.13716 
L 280.041067 -146.107699 
L 281.579369 -147.078238 
L 283.0717 -148.048777 
L 284.500879 -149.019317 
L 285.85201 -149.989856 
L 287.112634 -150.960395 
L 288.272787 -151.930934 
L 289.324977 -152.901473 
L 290.264124 -153.872012 
L 291.087462 -154.842551 
L 291.794431 -155.813091 
L 292.386568 -156.78363 
L 292.867397 -157.754169 
L 293.242319 -158.724708 
L 293.518487 -159.695247 
L 293.704675 -160.665786 
L 293.811103 -161.636325 
L 293.849231 -162.606864 
L 293.831499 -163.577404 
L 293.771015 -164.547943 
L 293.681192 -165.518482 
L 293.575345 -166.489021 
L 293.466256 -167.45956 
L 293.365744 -168.430099 
L 293.284243 -169.400638 
L 293.230442 -170.371178 
L 293.210996 -171.341717 
L 293.230332 -172.312256 
L 293.290581 -173.282795 
L 293.391622 -174.253334 
L 293.531256 -175.223873 
L 293.70548 -176.194412 
L 293.908852 -177.164952 
L 294.134911 -178.135491 
L 294.376624 -179.10603 
L 294.626823 -180.076569 
L 294.878611 -181.047108 
L 295.125694 -182.017647 
L 295.362648 -182.988186 
L 295.585089 -183.958726 
L 295.789752 -184.929265 
L 295.9745 -185.899804 
L 296.138248 -186.870343 
L 296.280847 -187.840882 
L 296.402923 -188.811421 
L 297.379617 -188.811421 
L 297.379617 -188.811421 
L 297.501692 -187.840882 
L 297.644291 -186.870343 
L 297.80804 -185.899804 
L 297.992787 -184.929265 
L 298.197451 -183.958726 
L 298.419891 -182.988186 
L 298.656845 -182.017647 
L 298.903928 -181.047108 
L 299.155716 -180.076569 
L 299.405916 -179.10603 
L 299.647629 -178.135491 
L 299.873688 -177.164952 
L 300.077059 -176.194412 
L 300.251283 -175.223873 
L 300.390917 -174.253334 
L 300.491959 -173.282795 
L 300.552207 -172.312256 
L 300.571544 -171.341717 
L 300.552097 -170.371178 
L 300.498296 -169.400638 
L 300.416795 -168.430099 
L 300.316283 -167.45956 
L 300.207195 -166.489021 
L 300.101347 -165.518482 
L 300.011524 -164.547943 
L 299.95104 -163.577404 
L 299.933308 -162.606864 
L 299.971436 -161.636325 
L 300.077864 -160.665786 
L 300.264052 -159.695247 
L 300.540221 -158.724708 
L 300.915142 -157.754169 
L 301.395972 -156.78363 
L 301.988109 -155.813091 
L 302.695077 -154.842551 
L 303.518415 -153.872012 
L 304.457562 -152.901473 
L 305.509752 -151.930934 
L 306.669905 -150.960395 
L 307.93053 -149.989856 
L 309.281661 -149.019317 
L 310.710839 -148.048777 
L 312.20317 -147.078238 
L 313.741472 -146.107699 
L 315.306554 -145.13716 
L 316.877615 -144.166621 
L 318.432789 -143.196082 
L 319.949818 -142.225543 
L 321.406824 -141.255003 
L 322.783154 -140.284464 
L 324.060231 -139.313925 
L 325.222355 -138.343386 
L 326.25738 -137.372847 
L 327.157209 -136.402308 
L 327.91804 -135.431769 
L 328.540327 -134.461229 
L 329.028447 -133.49069 
L 329.390076 -132.520151 
L 329.635317 -131.549612 
L 329.775651 -130.579073 
L 329.822794 -129.608534 
L 329.787565 -128.637995 
L 329.678874 -127.667455 
L 329.502918 -126.696916 
L 329.262668 -125.726377 
L 328.957707 -124.755838 
L 328.584419 -123.785299 
L 328.136527 -122.81476 
L 327.605918 -121.844221 
L 326.983686 -120.873681 
L 326.261278 -119.903142 
L 325.431641 -118.932603 
L 324.490269 -117.962064 
L 323.436041 -116.991525 
L 322.271791 -116.020986 
L 321.00456 -115.050447 
L 319.645524 -114.079907 
L 318.209611 -113.109368 
L 316.714856 -112.138829 
L 315.181558 -111.16829 
L 313.63132 -110.197751 
L 312.086045 -109.227212 
L 310.566971 -108.256673 
L 309.093808 -107.286133 
L 307.684025 -106.315594 
L 306.352314 -105.345055 
L 305.11026 -104.374516 
L 303.966194 -103.403977 
L 302.925226 -102.433438 
L 301.989425 -101.462899 
L 301.158125 -100.492359 
L 300.428299 -99.52182 
L 299.794996 -98.551281 
L 299.251789 -97.580742 
L 298.791214 -96.610203 
L 298.405179 -95.639664 
L 298.085334 -94.669125 
L 297.823375 -93.698585 
L 297.611303 -92.728046 
z
" id="m95c9b9cf20" style="stroke:#414141;stroke-width:2;"/>
    </defs>
    <g clip-path="url(#pb87ebdec98)">
     <use style="fill:#7d9a40;stroke:#414141;stroke-width:2;" x="0" xlink:href="#m95c9b9cf20" y="393.563137"/>
    </g>
   </g>
   <g id="PolyCollection_4">
    <defs>
     <path d="M 393.189095 -79.987293 
L 391.90773 -79.987293 
L 391.738304 -80.828981 
L 391.535614 -81.670669 
L 391.296256 -82.512357 
L 391.017195 -83.354045 
L 390.695924 -84.195733 
L 390.330603 -85.037421 
L 389.920159 -85.879109 
L 389.464351 -86.720797 
L 388.963759 -87.562485 
L 388.419721 -88.404172 
L 387.834189 -89.24586 
L 387.209526 -90.087548 
L 386.548252 -90.929236 
L 385.852761 -91.770924 
L 385.125026 -92.612612 
L 384.366332 -93.4543 
L 383.577062 -94.295988 
L 382.756563 -95.137676 
L 381.903105 -95.979364 
L 381.013966 -96.821052 
L 380.085622 -97.66274 
L 379.114047 -98.504427 
L 378.095101 -99.346115 
L 377.024976 -100.187803 
L 375.900674 -101.029491 
L 374.720472 -101.871179 
L 373.484353 -102.712867 
L 372.194366 -103.554555 
L 370.854899 -104.396243 
L 369.472853 -105.237931 
L 368.05771 -106.079619 
L 366.62149 -106.921307 
L 365.178623 -107.762994 
L 363.745722 -108.604682 
L 362.34127 -109.44637 
L 360.985238 -110.288058 
L 359.69862 -111.129746 
L 358.502898 -111.971434 
L 357.419441 -112.813122 
L 356.468838 -113.65481 
L 355.670196 -114.496498 
L 355.040411 -115.338186 
L 354.593459 -116.179874 
L 354.339745 -117.021562 
L 354.285555 -117.863249 
L 354.432674 -118.704937 
L 354.778185 -119.546625 
L 355.314509 -120.388313 
L 356.029684 -121.230001 
L 356.907871 -122.071689 
L 357.930073 -122.913377 
L 359.075009 -123.755065 
L 360.320076 -124.596753 
L 361.642332 -125.438441 
L 363.019424 -126.280129 
L 364.430384 -127.121817 
L 365.856259 -127.963504 
L 367.28051 -128.805192 
L 368.689201 -129.64688 
L 370.070969 -130.488568 
L 371.416811 -131.330256 
L 372.719752 -132.171944 
L 373.974428 -133.013632 
L 375.176669 -133.85532 
L 376.323123 -134.697008 
L 377.410977 -135.538696 
L 378.437788 -136.380384 
L 379.401455 -137.222072 
L 380.300295 -138.063759 
L 381.133228 -138.905447 
L 381.900002 -139.747135 
L 382.601433 -140.588823 
L 383.239605 -141.430511 
L 383.817985 -142.272199 
L 384.341431 -143.113887 
L 384.816076 -143.955575 
L 385.249078 -144.797263 
L 385.648271 -145.638951 
L 386.021728 -146.480639 
L 386.377295 -147.322327 
L 386.72213 -148.164014 
L 387.06229 -149.005702 
L 387.40241 -149.84739 
L 387.745508 -150.689078 
L 388.092907 -151.530766 
L 388.444302 -152.372454 
L 388.797944 -153.214142 
L 389.150919 -154.05583 
L 389.499493 -154.897518 
L 389.839484 -155.739206 
L 390.166632 -156.580894 
L 390.476935 -157.422581 
L 390.766919 -158.264269 
L 391.03384 -159.105957 
L 391.275803 -159.947645 
L 391.491804 -160.789333 
L 391.681695 -161.631021 
L 391.846105 -162.472709 
L 391.98631 -163.314397 
L 393.110515 -163.314397 
L 393.110515 -163.314397 
L 393.25072 -162.472709 
L 393.41513 -161.631021 
L 393.605021 -160.789333 
L 393.821022 -159.947645 
L 394.062985 -159.105957 
L 394.329906 -158.264269 
L 394.61989 -157.422581 
L 394.930193 -156.580894 
L 395.257341 -155.739206 
L 395.597332 -154.897518 
L 395.945906 -154.05583 
L 396.298881 -153.214142 
L 396.652523 -152.372454 
L 397.003918 -151.530766 
L 397.351317 -150.689078 
L 397.694415 -149.84739 
L 398.034535 -149.005702 
L 398.374695 -148.164014 
L 398.71953 -147.322327 
L 399.075097 -146.480639 
L 399.448554 -145.638951 
L 399.847747 -144.797263 
L 400.280749 -143.955575 
L 400.755394 -143.113887 
L 401.27884 -142.272199 
L 401.85722 -141.430511 
L 402.495392 -140.588823 
L 403.196823 -139.747135 
L 403.963597 -138.905447 
L 404.79653 -138.063759 
L 405.69537 -137.222072 
L 406.659037 -136.380384 
L 407.685848 -135.538696 
L 408.773702 -134.697008 
L 409.920156 -133.85532 
L 411.122397 -133.013632 
L 412.377073 -132.171944 
L 413.680014 -131.330256 
L 415.025856 -130.488568 
L 416.407624 -129.64688 
L 417.816315 -128.805192 
L 419.240566 -127.963504 
L 420.666441 -127.121817 
L 422.077401 -126.280129 
L 423.454493 -125.438441 
L 424.776749 -124.596753 
L 426.021816 -123.755065 
L 427.166752 -122.913377 
L 428.188954 -122.071689 
L 429.067141 -121.230001 
L 429.782316 -120.388313 
L 430.31864 -119.546625 
L 430.664151 -118.704937 
L 430.81127 -117.863249 
L 430.75708 -117.021562 
L 430.503366 -116.179874 
L 430.056414 -115.338186 
L 429.426629 -114.496498 
L 428.627987 -113.65481 
L 427.677384 -112.813122 
L 426.593927 -111.971434 
L 425.398205 -111.129746 
L 424.111587 -110.288058 
L 422.755555 -109.44637 
L 421.351103 -108.604682 
L 419.918202 -107.762994 
L 418.475335 -106.921307 
L 417.039115 -106.079619 
L 415.623972 -105.237931 
L 414.241926 -104.396243 
L 412.902459 -103.554555 
L 411.612472 -102.712867 
L 410.376353 -101.871179 
L 409.196151 -101.029491 
L 408.071849 -100.187803 
L 407.001724 -99.346115 
L 405.982778 -98.504427 
L 405.011203 -97.66274 
L 404.082859 -96.821052 
L 403.19372 -95.979364 
L 402.340262 -95.137676 
L 401.519763 -94.295988 
L 400.730493 -93.4543 
L 399.971799 -92.612612 
L 399.244064 -91.770924 
L 398.548573 -90.929236 
L 397.887299 -90.087548 
L 397.262636 -89.24586 
L 396.677104 -88.404172 
L 396.133066 -87.562485 
L 395.632474 -86.720797 
L 395.176666 -85.879109 
L 394.766222 -85.037421 
L 394.400901 -84.195733 
L 394.07963 -83.354045 
L 393.800569 -82.512357 
L 393.561211 -81.670669 
L 393.358521 -80.828981 
L 393.189095 -79.987293 
z
" id="ma9b100b487" style="stroke:#414141;stroke-width:2;"/>
    </defs>
    <g clip-path="url(#pb87ebdec98)">
     <use style="fill:#43a084;stroke:#414141;stroke-width:2;" x="0" xlink:href="#ma9b100b487" y="393.563137"/>
    </g>
   </g>
   <g id="PolyCollection_5">
    <defs>
     <path d="M 488.578156 -40.316605 
L 487.832954 -40.316605 
L 487.736703 -43.311646 
L 487.620519 -46.306687 
L 487.481626 -49.301729 
L 487.3172 -52.29677 
L 487.124455 -55.291811 
L 486.900753 -58.286852 
L 486.643728 -61.281894 
L 486.351422 -64.276935 
L 486.022437 -67.271976 
L 485.656078 -70.267018 
L 485.252503 -73.262059 
L 484.812851 -76.2571 
L 484.339357 -79.252142 
L 483.835427 -82.247183 
L 483.305676 -85.242224 
L 482.755921 -88.237266 
L 482.193114 -91.232307 
L 481.625222 -94.227348 
L 481.061047 -97.22239 
L 480.509994 -100.217431 
L 479.98179 -103.212472 
L 479.486165 -106.207514 
L 479.032511 -109.202555 
L 478.629535 -112.197596 
L 478.284924 -115.192638 
L 478.005034 -118.187679 
L 477.794636 -121.18272 
L 477.656715 -124.177762 
L 477.592356 -127.172803 
L 477.600704 -130.167844 
L 477.679018 -133.162886 
L 477.822809 -136.157927 
L 478.026056 -139.152968 
L 478.281482 -142.14801 
L 478.580891 -145.143051 
L 478.915517 -148.138092 
L 479.276394 -151.133133 
L 479.654709 -154.128175 
L 480.042117 -157.123216 
L 480.43101 -160.118257 
L 480.814728 -163.113299 
L 481.187689 -166.10834 
L 481.545462 -169.103381 
L 481.884756 -172.098423 
L 482.203359 -175.093464 
L 482.50002 -178.088505 
L 482.774301 -181.083547 
L 483.026402 -184.078588 
L 483.256989 -187.073629 
L 483.467025 -190.068671 
L 483.657628 -193.063712 
L 483.829955 -196.058753 
L 483.985127 -199.053795 
L 484.12418 -202.048836 
L 484.248067 -205.043877 
L 484.357668 -208.038919 
L 484.453844 -211.03396 
L 484.537484 -214.029001 
L 484.609566 -217.024043 
L 484.671208 -220.019084 
L 484.723711 -223.014125 
L 484.768575 -226.009167 
L 484.807499 -229.004208 
L 484.842359 -231.999249 
L 484.875164 -234.99429 
L 484.907994 -237.989332 
L 484.942925 -240.984373 
L 484.981954 -243.979414 
L 485.026916 -246.974456 
L 485.079412 -249.969497 
L 485.140747 -252.964538 
L 485.211881 -255.95958 
L 485.293398 -258.954621 
L 485.385497 -261.949662 
L 485.487993 -264.944704 
L 485.600339 -267.939745 
L 485.721665 -270.934786 
L 485.850821 -273.929828 
L 485.986435 -276.924869 
L 486.126967 -279.91991 
L 486.270774 -282.914952 
L 486.416169 -285.909993 
L 486.561475 -288.905034 
L 486.705075 -291.900076 
L 486.845462 -294.895117 
L 486.981266 -297.890158 
L 487.111292 -300.8852 
L 487.234534 -303.880241 
L 487.350189 -306.875282 
L 487.457663 -309.870324 
L 487.556566 -312.865365 
L 487.646704 -315.860406 
L 487.728066 -318.855448 
L 487.800802 -321.850489 
L 487.865204 -324.84553 
L 487.921681 -327.840571 
L 487.970731 -330.835613 
L 488.012922 -333.830654 
L 488.048862 -336.825695 
L 488.362249 -336.825695 
L 488.362249 -336.825695 
L 488.398189 -333.830654 
L 488.44038 -330.835613 
L 488.48943 -327.840571 
L 488.545906 -324.84553 
L 488.610308 -321.850489 
L 488.683045 -318.855448 
L 488.764406 -315.860406 
L 488.854545 -312.865365 
L 488.953447 -309.870324 
L 489.060921 -306.875282 
L 489.176576 -303.880241 
L 489.299818 -300.8852 
L 489.429844 -297.890158 
L 489.565649 -294.895117 
L 489.706035 -291.900076 
L 489.849636 -288.905034 
L 489.994942 -285.909993 
L 490.140337 -282.914952 
L 490.284144 -279.91991 
L 490.424676 -276.924869 
L 490.560289 -273.929828 
L 490.689446 -270.934786 
L 490.810772 -267.939745 
L 490.923118 -264.944704 
L 491.025613 -261.949662 
L 491.117712 -258.954621 
L 491.19923 -255.95958 
L 491.270363 -252.964538 
L 491.331698 -249.969497 
L 491.384194 -246.974456 
L 491.429156 -243.979414 
L 491.468186 -240.984373 
L 491.503117 -237.989332 
L 491.535947 -234.99429 
L 491.568752 -231.999249 
L 491.603612 -229.004208 
L 491.642536 -226.009167 
L 491.687399 -223.014125 
L 491.739902 -220.019084 
L 491.801545 -217.024043 
L 491.873627 -214.029001 
L 491.957266 -211.03396 
L 492.053442 -208.038919 
L 492.163044 -205.043877 
L 492.28693 -202.048836 
L 492.425984 -199.053795 
L 492.581156 -196.058753 
L 492.753483 -193.063712 
L 492.944086 -190.068671 
L 493.154122 -187.073629 
L 493.384709 -184.078588 
L 493.63681 -181.083547 
L 493.91109 -178.088505 
L 494.207752 -175.093464 
L 494.526355 -172.098423 
L 494.865649 -169.103381 
L 495.223422 -166.10834 
L 495.596383 -163.113299 
L 495.9801 -160.118257 
L 496.368994 -157.123216 
L 496.756401 -154.128175 
L 497.134716 -151.133133 
L 497.495594 -148.138092 
L 497.83022 -145.143051 
L 498.129628 -142.14801 
L 498.385055 -139.152968 
L 498.588301 -136.157927 
L 498.732093 -133.162886 
L 498.810407 -130.167844 
L 498.818755 -127.172803 
L 498.754396 -124.177762 
L 498.616475 -121.18272 
L 498.406077 -118.187679 
L 498.126187 -115.192638 
L 497.781576 -112.197596 
L 497.3786 -109.202555 
L 496.924946 -106.207514 
L 496.42932 -103.212472 
L 495.901116 -100.217431 
L 495.350064 -97.22239 
L 494.785889 -94.227348 
L 494.217996 -91.232307 
L 493.655189 -88.237266 
L 493.105434 -85.242224 
L 492.575684 -82.247183 
L 492.071754 -79.252142 
L 491.59826 -76.2571 
L 491.158608 -73.262059 
L 490.755032 -70.267018 
L 490.388673 -67.271976 
L 490.059688 -64.276935 
L 489.767383 -61.281894 
L 489.510358 -58.286852 
L 489.286655 -55.291811 
L 489.09391 -52.29677 
L 488.929484 -49.301729 
L 488.790592 -46.306687 
L 488.674408 -43.311646 
L 488.578156 -40.316605 
z
" id="m4f1d8a43d1" style="stroke:#414141;stroke-width:2;"/>
    </defs>
    <g clip-path="url(#pb87ebdec98)">
     <use style="fill:#489eaa;stroke:#414141;stroke-width:2;" x="0" xlink:href="#m4f1d8a43d1" y="393.563137"/>
    </g>
   </g>
   <g id="PolyCollection_6">
    <defs>
     <path d="M 584.310964 -66.746068 
L 583.414432 -66.746068 
L 583.306221 -68.673752 
L 583.177012 -70.601436 
L 583.024036 -72.52912 
L 582.844462 -74.456804 
L 582.635468 -76.384488 
L 582.394325 -78.312172 
L 582.118502 -80.239856 
L 581.805774 -82.167539 
L 581.454341 -84.095223 
L 581.062953 -86.022907 
L 580.631033 -87.950591 
L 580.158799 -89.878275 
L 579.647362 -91.805959 
L 579.098822 -93.733643 
L 578.516329 -95.661327 
L 577.904112 -97.58901 
L 577.267481 -99.516694 
L 576.612784 -101.444378 
L 575.947319 -103.372062 
L 575.279211 -105.299746 
L 574.617245 -107.22743 
L 573.970662 -109.155114 
L 573.348923 -111.082798 
L 572.761455 -113.010481 
L 572.217381 -114.938165 
L 571.725242 -116.865849 
L 571.292745 -118.793533 
L 570.926508 -120.721217 
L 570.631855 -122.648901 
L 570.41264 -124.576585 
L 570.271123 -126.504269 
L 570.207896 -128.431952 
L 570.221863 -130.359636 
L 570.310278 -132.28732 
L 570.468831 -134.215004 
L 570.691785 -136.142688 
L 570.972152 -138.070372 
L 571.301903 -139.998056 
L 571.672202 -141.92574 
L 572.073654 -143.853424 
L 572.496565 -145.781107 
L 572.931193 -147.708791 
L 573.367998 -149.636475 
L 573.797868 -151.564159 
L 574.212338 -153.491843 
L 574.60377 -155.419527 
L 574.965518 -157.347211 
L 575.292055 -159.274895 
L 575.579073 -161.202578 
L 575.823549 -163.130262 
L 576.02378 -165.057946 
L 576.179382 -166.98563 
L 576.291257 -168.913314 
L 576.361532 -170.840998 
L 576.393462 -172.768682 
L 576.391312 -174.696366 
L 576.360207 -176.624049 
L 576.30597 -178.551733 
L 576.234937 -180.479417 
L 576.153767 -182.407101 
L 576.069245 -184.334785 
L 575.988087 -186.262469 
L 575.916752 -188.190153 
L 575.861269 -190.117837 
L 575.827083 -192.04552 
L 575.81892 -193.973204 
L 575.840681 -195.900888 
L 575.895366 -197.828572 
L 575.985024 -199.756256 
L 576.110738 -201.68394 
L 576.272632 -203.611624 
L 576.469911 -205.539308 
L 576.700923 -207.466991 
L 576.963246 -209.394675 
L 577.253783 -211.322359 
L 577.568883 -213.250043 
L 577.904462 -215.177727 
L 578.256132 -217.105411 
L 578.619333 -219.033095 
L 578.98946 -220.960779 
L 579.361984 -222.888463 
L 579.732558 -224.816146 
L 580.09712 -226.74383 
L 580.451975 -228.671514 
L 580.793858 -230.599198 
L 581.119984 -232.526882 
L 581.428079 -234.454566 
L 581.716389 -236.38225 
L 581.983681 -238.309934 
L 582.229218 -240.237617 
L 582.452729 -242.165301 
L 582.654365 -244.092985 
L 582.834648 -246.020669 
L 582.994413 -247.948353 
L 583.134747 -249.876037 
L 583.256931 -251.803721 
L 583.362381 -253.731405 
L 583.452593 -255.659088 
L 583.529095 -257.586772 
L 584.196302 -257.586772 
L 584.196302 -257.586772 
L 584.272804 -255.659088 
L 584.363016 -253.731405 
L 584.468465 -251.803721 
L 584.59065 -249.876037 
L 584.730984 -247.948353 
L 584.890748 -246.020669 
L 585.071031 -244.092985 
L 585.272668 -242.165301 
L 585.496179 -240.237617 
L 585.741715 -238.309934 
L 586.009007 -236.38225 
L 586.297317 -234.454566 
L 586.605412 -232.526882 
L 586.931538 -230.599198 
L 587.273421 -228.671514 
L 587.628276 -226.74383 
L 587.992839 -224.816146 
L 588.363413 -222.888463 
L 588.735936 -220.960779 
L 589.106064 -219.033095 
L 589.469265 -217.105411 
L 589.820935 -215.177727 
L 590.156513 -213.250043 
L 590.471613 -211.322359 
L 590.76215 -209.394675 
L 591.024473 -207.466991 
L 591.255486 -205.539308 
L 591.452765 -203.611624 
L 591.614658 -201.68394 
L 591.740372 -199.756256 
L 591.830031 -197.828572 
L 591.884716 -195.900888 
L 591.906476 -193.973204 
L 591.898313 -192.04552 
L 591.864127 -190.117837 
L 591.808644 -188.190153 
L 591.737309 -186.262469 
L 591.656151 -184.334785 
L 591.571629 -182.407101 
L 591.49046 -180.479417 
L 591.419427 -178.551733 
L 591.365189 -176.624049 
L 591.334085 -174.696366 
L 591.331934 -172.768682 
L 591.363865 -170.840998 
L 591.434139 -168.913314 
L 591.546015 -166.98563 
L 591.701616 -165.057946 
L 591.901847 -163.130262 
L 592.146323 -161.202578 
L 592.433341 -159.274895 
L 592.759878 -157.347211 
L 593.121626 -155.419527 
L 593.513059 -153.491843 
L 593.927528 -151.564159 
L 594.357399 -149.636475 
L 594.794203 -147.708791 
L 595.228831 -145.781107 
L 595.651742 -143.853424 
L 596.053195 -141.92574 
L 596.423494 -139.998056 
L 596.753245 -138.070372 
L 597.033612 -136.142688 
L 597.256566 -134.215004 
L 597.415119 -132.28732 
L 597.503533 -130.359636 
L 597.517501 -128.431952 
L 597.454273 -126.504269 
L 597.312757 -124.576585 
L 597.093542 -122.648901 
L 596.798889 -120.721217 
L 596.432651 -118.793533 
L 596.000154 -116.865849 
L 595.508016 -114.938165 
L 594.963941 -113.010481 
L 594.376473 -111.082798 
L 593.754735 -109.155114 
L 593.108151 -107.22743 
L 592.446186 -105.299746 
L 591.778078 -103.372062 
L 591.112612 -101.444378 
L 590.457915 -99.516694 
L 589.821284 -97.58901 
L 589.209068 -95.661327 
L 588.626574 -93.733643 
L 588.078035 -91.805959 
L 587.566598 -89.878275 
L 587.094363 -87.950591 
L 586.662444 -86.022907 
L 586.271056 -84.095223 
L 585.919622 -82.167539 
L 585.606894 -80.239856 
L 585.331072 -78.312172 
L 585.089929 -76.384488 
L 584.880934 -74.456804 
L 584.70136 -72.52912 
L 584.548384 -70.601436 
L 584.419175 -68.673752 
L 584.310964 -66.746068 
z
" id="m0ecb0f41ca" style="stroke:#414141;stroke-width:2;"/>
    </defs>
    <g clip-path="url(#pb87ebdec98)">
     <use style="fill:#8fa0e6;stroke:#414141;stroke-width:2;" x="0" xlink:href="#m0ecb0f41ca" y="393.563137"/>
    </g>
   </g>
   <g id="PolyCollection_7">
    <defs>
     <path d="M 680.858995 -88.569653 
L 678.180688 -88.569653 
L 677.810383 -90.067266 
L 677.36047 -91.56488 
L 676.820562 -93.062494 
L 676.180727 -94.560107 
L 675.43204 -96.057721 
L 674.567209 -97.555334 
L 673.581244 -99.052948 
L 672.472138 -100.550562 
L 671.241516 -102.048175 
L 669.895199 -103.545789 
L 668.443639 -105.043403 
L 666.902169 -106.541016 
L 665.29104 -108.03863 
L 663.63519 -109.536244 
L 661.96375 -111.033857 
L 660.309282 -112.531471 
L 658.706756 -114.029085 
L 657.192334 -115.526698 
L 655.801994 -117.024312 
L 654.570077 -118.521925 
L 653.527842 -120.019539 
L 652.70211 -121.517153 
L 652.114078 -123.014766 
L 651.778374 -124.51238 
L 651.702416 -126.009994 
L 651.886099 -127.507607 
L 652.321839 -129.005221 
L 652.994951 -130.502835 
L 653.884343 -132.000448 
L 654.963472 -133.498062 
L 656.201505 -134.995675 
L 657.564607 -136.493289 
L 659.017297 -137.990903 
L 660.523786 -139.488516 
L 662.049248 -140.98613 
L 663.560954 -142.483744 
L 665.029246 -143.981357 
L 666.428307 -145.478971 
L 667.736722 -146.976585 
L 668.93782 -148.474198 
L 670.019812 -149.971812 
L 670.975733 -151.469426 
L 671.803221 -152.967039 
L 672.50414 -154.464653 
L 673.084095 -155.962266 
L 673.551857 -157.45988 
L 673.918724 -158.957494 
L 674.197851 -160.455107 
L 674.40357 -161.952721 
L 674.550725 -163.450335 
L 674.654042 -164.947948 
L 674.72756 -166.445562 
L 674.784126 -167.943176 
L 674.834985 -169.440789 
L 674.889469 -170.938403 
L 674.954786 -172.436016 
L 675.035927 -173.93363 
L 675.135678 -175.431244 
L 675.254739 -176.928857 
L 675.391932 -178.426471 
L 675.544494 -179.924085 
L 675.708426 -181.421698 
L 675.878889 -182.919312 
L 676.050606 -184.416926 
L 676.218273 -185.914539 
L 676.376931 -187.412153 
L 676.522295 -188.909767 
L 676.651022 -190.40738 
L 676.7609 -191.904994 
L 676.850949 -193.402607 
L 676.921451 -194.900221 
L 676.973877 -196.397835 
L 677.010759 -197.895448 
L 677.035485 -199.393062 
L 677.052058 -200.890676 
L 677.06482 -202.388289 
L 677.078171 -203.885903 
L 677.096293 -205.383517 
L 677.122911 -206.88113 
L 677.161086 -208.378744 
L 677.213064 -209.876357 
L 677.280191 -211.373971 
L 677.362886 -212.871585 
L 677.460669 -214.369198 
L 677.572251 -215.866812 
L 677.695663 -217.364426 
L 677.828417 -218.862039 
L 677.967681 -220.359653 
L 678.110463 -221.857267 
L 678.253781 -223.35488 
L 678.394818 -224.852494 
L 678.531049 -226.350108 
L 678.660329 -227.847721 
L 678.780957 -229.345335 
L 678.8917 -230.842948 
L 678.991786 -232.340562 
L 679.080876 -233.838176 
L 679.159012 -235.335789 
L 679.22656 -236.833403 
L 679.813122 -236.833403 
L 679.813122 -236.833403 
L 679.88067 -235.335789 
L 679.958807 -233.838176 
L 680.047896 -232.340562 
L 680.147982 -230.842948 
L 680.258725 -229.345335 
L 680.379353 -227.847721 
L 680.508633 -226.350108 
L 680.644864 -224.852494 
L 680.785901 -223.35488 
L 680.929219 -221.857267 
L 681.072001 -220.359653 
L 681.211265 -218.862039 
L 681.344019 -217.364426 
L 681.467431 -215.866812 
L 681.579014 -214.369198 
L 681.676796 -212.871585 
L 681.759491 -211.373971 
L 681.826618 -209.876357 
L 681.878596 -208.378744 
L 681.916771 -206.88113 
L 681.943389 -205.383517 
L 681.961511 -203.885903 
L 681.974862 -202.388289 
L 681.987624 -200.890676 
L 682.004197 -199.393062 
L 682.028923 -197.895448 
L 682.065805 -196.397835 
L 682.118231 -194.900221 
L 682.188733 -193.402607 
L 682.278783 -191.904994 
L 682.38866 -190.40738 
L 682.517387 -188.909767 
L 682.662751 -187.412153 
L 682.821409 -185.914539 
L 682.989076 -184.416926 
L 683.160794 -182.919312 
L 683.331256 -181.421698 
L 683.495189 -179.924085 
L 683.64775 -178.426471 
L 683.784943 -176.928857 
L 683.904004 -175.431244 
L 684.003755 -173.93363 
L 684.084896 -172.436016 
L 684.150213 -170.938403 
L 684.204697 -169.440789 
L 684.255556 -167.943176 
L 684.312122 -166.445562 
L 684.38564 -164.947948 
L 684.488957 -163.450335 
L 684.636112 -161.952721 
L 684.841831 -160.455107 
L 685.120958 -158.957494 
L 685.487825 -157.45988 
L 685.955587 -155.962266 
L 686.535542 -154.464653 
L 687.236461 -152.967039 
L 688.063949 -151.469426 
L 689.019871 -149.971812 
L 690.101862 -148.474198 
L 691.30296 -146.976585 
L 692.611375 -145.478971 
L 694.010437 -143.981357 
L 695.478729 -142.483744 
L 696.990434 -140.98613 
L 698.515896 -139.488516 
L 700.022385 -137.990903 
L 701.475075 -136.493289 
L 702.838177 -134.995675 
L 704.07621 -133.498062 
L 705.155339 -132.000448 
L 706.044731 -130.502835 
L 706.717843 -129.005221 
L 707.153583 -127.507607 
L 707.337266 -126.009994 
L 707.261308 -124.51238 
L 706.925604 -123.014766 
L 706.337572 -121.517153 
L 705.51184 -120.019539 
L 704.469605 -118.521925 
L 703.237688 -117.024312 
L 701.847348 -115.526698 
L 700.332926 -114.029085 
L 698.730401 -112.531471 
L 697.075932 -111.033857 
L 695.404493 -109.536244 
L 693.748642 -108.03863 
L 692.137513 -106.541016 
L 690.596044 -105.043403 
L 689.144483 -103.545789 
L 687.798166 -102.048175 
L 686.567544 -100.550562 
L 685.458438 -99.052948 
L 684.472473 -97.555334 
L 683.607642 -96.057721 
L 682.858955 -94.560107 
L 682.219121 -93.062494 
L 681.679213 -91.56488 
L 681.229299 -90.067266 
L 680.858995 -88.569653 
z
" id="md6e6093f7d" style="stroke:#414141;stroke-width:2;"/>
    </defs>
    <g clip-path="url(#pb87ebdec98)">
     <use style="fill:#e270db;stroke:#414141;stroke-width:2;" x="0" xlink:href="#md6e6093f7d" y="393.563137"/>
    </g>
   </g>
   <g id="line2d_1">
    <path clip-path="url(#pb87ebdec98)" d="M 57.748413 266.483611 
L 727.348412 266.483611 
" style="fill:none;stroke:#404040;stroke-dasharray:5.55,2.4;stroke-dashoffset:0;stroke-width:1.5;"/>
   </g>
   <g id="line2d_2">
    <path clip-path="url(#pb87ebdec98)" d="M 105.576984 289.871382 
L 105.576984 238.7063 
" style="fill:none;stroke:#414141;stroke-linecap:round;stroke-width:2;"/>
   </g>
   <g id="line2d_3">
    <path clip-path="url(#pb87ebdec98)" d="M 105.576984 272.294186 
L 105.576984 255.565932 
" style="fill:none;stroke:#414141;stroke-linecap:round;stroke-width:6;"/>
   </g>
   <g id="line2d_4">
    <path clip-path="url(#pb87ebdec98)" d="M 201.234127 291.272515 
L 201.234127 231.683797 
" style="fill:none;stroke:#414141;stroke-linecap:round;stroke-width:2;"/>
   </g>
   <g id="line2d_5">
    <path clip-path="url(#pb87ebdec98)" d="M 201.234127 266.830541 
L 201.234127 249.784797 
" style="fill:none;stroke:#414141;stroke-linecap:round;stroke-width:6;"/>
   </g>
   <g id="line2d_6">
    <path clip-path="url(#pb87ebdec98)" d="M 296.89127 283.934175 
L 296.89127 246.076072 
" style="fill:none;stroke:#414141;stroke-linecap:round;stroke-width:2;"/>
   </g>
   <g id="line2d_7">
    <path clip-path="url(#pb87ebdec98)" d="M 296.89127 273.825283 
L 296.89127 256.417981 
" style="fill:none;stroke:#414141;stroke-linecap:round;stroke-width:6;"/>
   </g>
   <g id="line2d_8">
    <path clip-path="url(#pb87ebdec98)" d="M 392.548412 298.726851 
L 392.548412 257.199688 
" style="fill:none;stroke:#414141;stroke-linecap:round;stroke-width:2;"/>
   </g>
   <g id="line2d_9">
    <path clip-path="url(#pb87ebdec98)" d="M 392.548412 284.096758 
L 392.548412 269.507201 
" style="fill:none;stroke:#414141;stroke-linecap:round;stroke-width:6;"/>
   </g>
   <g id="line2d_10">
    <path clip-path="url(#pb87ebdec98)" d="M 488.205555 292.533004 
L 488.205555 147.992428 
" style="fill:none;stroke:#414141;stroke-linecap:round;stroke-width:2;"/>
   </g>
   <g id="line2d_11">
    <path clip-path="url(#pb87ebdec98)" d="M 488.205555 269.85095 
L 488.205555 210.387068 
" style="fill:none;stroke:#414141;stroke-linecap:round;stroke-width:6;"/>
   </g>
   <g id="line2d_12">
    <path clip-path="url(#pb87ebdec98)" d="M 583.862698 285.690104 
L 583.862698 177.10333 
" style="fill:none;stroke:#414141;stroke-linecap:round;stroke-width:2;"/>
   </g>
   <g id="line2d_13">
    <path clip-path="url(#pb87ebdec98)" d="M 583.862698 267.395246 
L 583.862698 204.383717 
" style="fill:none;stroke:#414141;stroke-linecap:round;stroke-width:6;"/>
   </g>
   <g id="line2d_14">
    <path clip-path="url(#pb87ebdec98)" d="M 679.519841 276.832813 
L 679.519841 254.642604 
" style="fill:none;stroke:#414141;stroke-linecap:round;stroke-width:2;"/>
   </g>
   <g id="line2d_15">
    <path clip-path="url(#pb87ebdec98)" d="M 679.519841 270.584524 
L 679.519841 259.456957 
" style="fill:none;stroke:#414141;stroke-linecap:round;stroke-width:6;"/>
   </g>
   <g id="patch_3">
    <path d="M 57.748413 368.071987 
L 57.748413 41.911987 
" style="fill:none;stroke:#262626;stroke-linecap:square;stroke-linejoin:miter;stroke-width:1.25;"/>
   </g>
   <g id="patch_4">
    <path d="M 727.348412 368.071987 
L 727.348412 41.911987 
" style="fill:none;stroke:#262626;stroke-linecap:square;stroke-linejoin:miter;stroke-width:1.25;"/>
   </g>
   <g id="patch_5">
    <path d="M 57.748413 368.071987 
L 727.348412 368.071987 
" style="fill:none;stroke:#262626;stroke-linecap:square;stroke-linejoin:miter;stroke-width:1.25;"/>
   </g>
   <g id="patch_6">
    <path d="M 57.748413 41.911987 
L 727.348412 41.911987 
" style="fill:none;stroke:#262626;stroke-linecap:square;stroke-linejoin:miter;stroke-width:1.25;"/>
   </g>
   <g id="PathCollection_1">
    <defs>
     <path d="M 0 2 
C 0.530406 2 1.03916 1.789267 1.414214 1.414214 
C 1.789267 1.03916 2 0.530406 2 0 
C 2 -0.530406 1.789267 -1.03916 1.414214 -1.414214 
C 1.03916 -1.789267 0.530406 -2 0 -2 
C -0.530406 -2 -1.03916 -1.789267 -1.414214 -1.414214 
C -1.789267 -1.03916 -2 -0.530406 -2 0 
C -2 0.530406 -1.789267 1.03916 -1.414214 1.414214 
C -1.03916 1.789267 -0.530406 2 0 2 
z
" id="m98ff1f76c8" style="stroke:#414141;"/>
    </defs>
    <g clip-path="url(#pb87ebdec98)">
     <use style="fill:#ffffff;stroke:#414141;" x="105.576984" xlink:href="#m98ff1f76c8" y="261.905838"/>
    </g>
   </g>
   <g id="PathCollection_2">
    <g clip-path="url(#pb87ebdec98)">
     <use style="fill:#ffffff;stroke:#414141;" x="201.234127" xlink:href="#m98ff1f76c8" y="256.248446"/>
    </g>
   </g>
   <g id="PathCollection_3">
    <g clip-path="url(#pb87ebdec98)">
     <use style="fill:#ffffff;stroke:#414141;" x="296.89127" xlink:href="#m98ff1f76c8" y="261.990954"/>
    </g>
   </g>
   <g id="PathCollection_4">
    <g clip-path="url(#pb87ebdec98)">
     <use style="fill:#ffffff;stroke:#414141;" x="392.548412" xlink:href="#m98ff1f76c8" y="275.410584"/>
    </g>
   </g>
   <g id="PathCollection_5">
    <g clip-path="url(#pb87ebdec98)">
     <use style="fill:#ffffff;stroke:#414141;" x="488.205555" xlink:href="#m98ff1f76c8" y="259.816109"/>
    </g>
   </g>
   <g id="PathCollection_6">
    <g clip-path="url(#pb87ebdec98)">
     <use style="fill:#ffffff;stroke:#414141;" x="583.862698" xlink:href="#m98ff1f76c8" y="251.553972"/>
    </g>
   </g>
   <g id="PathCollection_7">
    <g clip-path="url(#pb87ebdec98)">
     <use style="fill:#ffffff;stroke:#414141;" x="679.519841" xlink:href="#m98ff1f76c8" y="269.661691"/>
    </g>
   </g>
   <g id="text_18">
    <!-- Crashes after the end of DST in California (20012017) -->
    <defs>
     <path d="M 6.390625 0 
L 6.390625 71.578125 
L 15.1875 71.578125 
L 15.1875 0 
z
" id="ArialMT-108"/>
     <path d="M -0.203125 22.359375 
L -0.203125 29.4375 
L 55.421875 29.4375 
L 55.421875 22.359375 
z
" id="ArialMT-8211"/>
    </defs>
    <g style="fill:#262626;" transform="translate(74.121537 26.127187)scale(0.26 -0.26)">
     <use xlink:href="#ArialMT-67"/>
     <use x="72.216797" xlink:href="#ArialMT-114"/>
     <use x="105.517578" xlink:href="#ArialMT-97"/>
     <use x="161.132812" xlink:href="#ArialMT-115"/>
     <use x="211.132812" xlink:href="#ArialMT-104"/>
     <use x="266.748047" xlink:href="#ArialMT-101"/>
     <use x="322.363281" xlink:href="#ArialMT-115"/>
     <use x="372.363281" xlink:href="#ArialMT-32"/>
     <use x="400.146484" xlink:href="#ArialMT-97"/>
     <use x="455.761719" xlink:href="#ArialMT-102"/>
     <use x="483.544922" xlink:href="#ArialMT-116"/>
     <use x="511.328125" xlink:href="#ArialMT-101"/>
     <use x="566.943359" xlink:href="#ArialMT-114"/>
     <use x="600.244141" xlink:href="#ArialMT-32"/>
     <use x="628.027344" xlink:href="#ArialMT-116"/>
     <use x="655.810547" xlink:href="#ArialMT-104"/>
     <use x="711.425781" xlink:href="#ArialMT-101"/>
     <use x="767.041016" xlink:href="#ArialMT-32"/>
     <use x="794.824219" xlink:href="#ArialMT-101"/>
     <use x="850.439453" xlink:href="#ArialMT-110"/>
     <use x="906.054688" xlink:href="#ArialMT-100"/>
     <use x="961.669922" xlink:href="#ArialMT-32"/>
     <use x="989.453125" xlink:href="#ArialMT-111"/>
     <use x="1045.068359" xlink:href="#ArialMT-102"/>
     <use x="1072.851562" xlink:href="#ArialMT-32"/>
     <use x="1100.634766" xlink:href="#ArialMT-68"/>
     <use x="1172.851562" xlink:href="#ArialMT-83"/>
     <use x="1239.550781" xlink:href="#ArialMT-84"/>
     <use x="1298.884766" xlink:href="#ArialMT-32"/>
     <use x="1326.667969" xlink:href="#ArialMT-105"/>
     <use x="1348.884766" xlink:href="#ArialMT-110"/>
     <use x="1404.5" xlink:href="#ArialMT-32"/>
     <use x="1432.283203" xlink:href="#ArialMT-67"/>
     <use x="1504.5" xlink:href="#ArialMT-97"/>
     <use x="1560.115234" xlink:href="#ArialMT-108"/>
     <use x="1582.332031" xlink:href="#ArialMT-105"/>
     <use x="1604.548828" xlink:href="#ArialMT-102"/>
     <use x="1632.332031" xlink:href="#ArialMT-111"/>
     <use x="1687.947266" xlink:href="#ArialMT-114"/>
     <use x="1721.248047" xlink:href="#ArialMT-110"/>
     <use x="1776.863281" xlink:href="#ArialMT-105"/>
     <use x="1799.080078" xlink:href="#ArialMT-97"/>
     <use x="1854.695312" xlink:href="#ArialMT-32"/>
     <use x="1882.478516" xlink:href="#ArialMT-40"/>
     <use x="1915.779297" xlink:href="#ArialMT-50"/>
     <use x="1971.394531" xlink:href="#ArialMT-48"/>
     <use x="2027.009766" xlink:href="#ArialMT-48"/>
     <use x="2082.625" xlink:href="#ArialMT-49"/>
     <use x="2138.240234" xlink:href="#ArialMT-8211"/>
     <use x="2193.855469" xlink:href="#ArialMT-50"/>
     <use x="2249.470703" xlink:href="#ArialMT-48"/>
     <use x="2305.085938" xlink:href="#ArialMT-49"/>
     <use x="2360.701172" xlink:href="#ArialMT-55"/>
     <use x="2416.316406" xlink:href="#ArialMT-41"/>
    </g>
   </g>
  </g>
 </g>
 <defs>
  <clipPath id="pb87ebdec98">
   <rect height="326.16" width="669.6" x="57.748413" y="41.911987"/>
  </clipPath>
 </defs>
</svg>
