<?xml version="1.0" encoding="utf-8" standalone="no"?>
<!DOCTYPE svg PUBLIC "-//W3C//DTD SVG 1.1//EN"
  "http://www.w3.org/Graphics/SVG/1.1/DTD/svg11.dtd">
<!-- Created with matplotlib (https://matplotlib.org/) -->
<svg height="393.186675pt" version="1.1" viewBox="0 0 718.730075 393.186675" width="718.730075pt" xmlns="http://www.w3.org/2000/svg" xmlns:xlink="http://www.w3.org/1999/xlink">
 <defs>
  <style type="text/css">
*{stroke-linecap:butt;stroke-linejoin:round;}
  </style>
 </defs>
 <g id="figure_1">
  <g id="patch_1">
   <path d="M 0 393.186675 
L 718.730075 393.186675 
L 718.730075 0 
L 0 0 
z
" style="fill:#ffffff;"/>
  </g>
  <g id="axes_1">
   <g id="patch_2">
    <path d="M 41.930075 369.43605 
L 711.530075 369.43605 
L 711.530075 43.27605 
L 41.930075 43.27605 
z
" style="fill:#ffffff;"/>
   </g>
   <g id="matplotlib.axis_1">
    <g id="xtick_1">
     <g id="line2d_1"/>
     <g id="text_1">
      <!-- Monday -->
      <defs>
       <path d="M 66.703125 0 
L 66.703125 45.90625 
Q 66.703125 53.515625 67.140625 60.546875 
Q 64.75 51.8125 62.84375 46.875 
L 45.0625 0 
L 38.53125 0 
L 20.515625 46.875 
L 17.78125 55.171875 
L 16.15625 60.546875 
L 16.3125 55.125 
L 16.5 45.90625 
L 16.5 0 
L 8.203125 0 
L 8.203125 68.796875 
L 20.453125 68.796875 
L 38.765625 21.09375 
Q 39.75 18.21875 40.640625 14.921875 
Q 41.546875 11.625 41.84375 10.15625 
Q 42.234375 12.109375 43.484375 16.078125 
Q 44.734375 20.0625 45.171875 21.09375 
L 63.140625 68.796875 
L 75.09375 68.796875 
L 75.09375 0 
z
" id="LiberationSans-77"/>
       <path d="M 51.421875 26.46875 
Q 51.421875 12.59375 45.3125 5.796875 
Q 39.203125 -0.984375 27.59375 -0.984375 
Q 16.015625 -0.984375 10.109375 6.078125 
Q 4.203125 13.140625 4.203125 26.46875 
Q 4.203125 53.8125 27.875 53.8125 
Q 39.984375 53.8125 45.703125 47.140625 
Q 51.421875 40.484375 51.421875 26.46875 
z
M 42.1875 26.46875 
Q 42.1875 37.40625 38.9375 42.359375 
Q 35.6875 47.3125 28.03125 47.3125 
Q 20.3125 47.3125 16.859375 42.25 
Q 13.421875 37.203125 13.421875 26.46875 
Q 13.421875 16.015625 16.8125 10.765625 
Q 20.21875 5.515625 27.484375 5.515625 
Q 35.40625 5.515625 38.796875 10.59375 
Q 42.1875 15.671875 42.1875 26.46875 
z
" id="LiberationSans-111"/>
       <path d="M 40.28125 0 
L 40.28125 33.5 
Q 40.28125 38.71875 39.25 41.59375 
Q 38.234375 44.484375 35.984375 45.75 
Q 33.734375 47.015625 29.390625 47.015625 
Q 23.046875 47.015625 19.375 42.671875 
Q 15.71875 38.328125 15.71875 30.609375 
L 15.71875 0 
L 6.9375 0 
L 6.9375 41.546875 
Q 6.9375 50.78125 6.640625 52.828125 
L 14.9375 52.828125 
Q 14.984375 52.59375 15.03125 51.515625 
Q 15.09375 50.4375 15.15625 49.046875 
Q 15.234375 47.65625 15.328125 43.796875 
L 15.484375 43.796875 
Q 18.5 49.265625 22.484375 51.53125 
Q 26.46875 53.8125 32.375 53.8125 
Q 41.0625 53.8125 45.09375 49.484375 
Q 49.125 45.171875 49.125 35.203125 
L 49.125 0 
z
" id="LiberationSans-110"/>
       <path d="M 40.09375 8.5 
Q 37.640625 3.421875 33.609375 1.21875 
Q 29.59375 -0.984375 23.640625 -0.984375 
Q 13.625 -0.984375 8.90625 5.75 
Q 4.203125 12.5 4.203125 26.171875 
Q 4.203125 53.8125 23.640625 53.8125 
Q 29.640625 53.8125 33.640625 51.609375 
Q 37.640625 49.421875 40.09375 44.625 
L 40.1875 44.625 
L 40.09375 50.53125 
L 40.09375 72.46875 
L 48.875 72.46875 
L 48.875 10.890625 
Q 48.875 2.640625 49.171875 0 
L 40.765625 0 
Q 40.625 0.78125 40.453125 3.609375 
Q 40.28125 6.453125 40.28125 8.5 
z
M 13.421875 26.46875 
Q 13.421875 15.375 16.34375 10.59375 
Q 19.28125 5.8125 25.875 5.8125 
Q 33.34375 5.8125 36.71875 10.984375 
Q 40.09375 16.15625 40.09375 27.046875 
Q 40.09375 37.546875 36.71875 42.421875 
Q 33.34375 47.3125 25.984375 47.3125 
Q 19.34375 47.3125 16.375 42.40625 
Q 13.421875 37.5 13.421875 26.46875 
z
" id="LiberationSans-100"/>
       <path d="M 20.21875 -0.984375 
Q 12.25 -0.984375 8.25 3.21875 
Q 4.25 7.421875 4.25 14.75 
Q 4.25 22.953125 9.640625 27.34375 
Q 15.046875 31.734375 27.046875 32.03125 
L 38.921875 32.234375 
L 38.921875 35.109375 
Q 38.921875 41.546875 36.1875 44.328125 
Q 33.453125 47.125 27.59375 47.125 
Q 21.6875 47.125 19 45.109375 
Q 16.3125 43.109375 15.765625 38.71875 
L 6.59375 39.546875 
Q 8.84375 53.8125 27.78125 53.8125 
Q 37.75 53.8125 42.765625 49.234375 
Q 47.796875 44.671875 47.796875 36.03125 
L 47.796875 13.28125 
Q 47.796875 9.375 48.828125 7.390625 
Q 49.859375 5.421875 52.734375 5.421875 
Q 54 5.421875 55.609375 5.765625 
L 55.609375 0.296875 
Q 52.296875 -0.484375 48.828125 -0.484375 
Q 43.953125 -0.484375 41.71875 2.078125 
Q 39.5 4.640625 39.203125 10.109375 
L 38.921875 10.109375 
Q 35.546875 4.046875 31.078125 1.53125 
Q 26.609375 -0.984375 20.21875 -0.984375 
z
M 22.21875 5.609375 
Q 27.046875 5.609375 30.8125 7.8125 
Q 34.578125 10.015625 36.75 13.84375 
Q 38.921875 17.671875 38.921875 21.734375 
L 38.921875 26.078125 
L 29.296875 25.875 
Q 23.09375 25.78125 19.890625 24.609375 
Q 16.703125 23.4375 14.984375 21 
Q 13.28125 18.5625 13.28125 14.59375 
Q 13.28125 10.296875 15.59375 7.953125 
Q 17.921875 5.609375 22.21875 5.609375 
z
" id="LiberationSans-97"/>
       <path d="M 9.328125 -20.75 
Q 5.71875 -20.75 3.265625 -20.21875 
L 3.265625 -13.625 
Q 5.125 -13.921875 7.375 -13.921875 
Q 15.578125 -13.921875 20.359375 -1.859375 
L 21.1875 0.25 
L 0.25 52.828125 
L 9.625 52.828125 
L 20.75 23.640625 
Q 21 22.953125 21.34375 22 
Q 21.6875 21.046875 23.53125 15.625 
Q 25.390625 10.203125 25.53125 9.578125 
L 28.953125 19.1875 
L 40.53125 52.828125 
L 49.8125 52.828125 
L 29.5 0 
Q 26.21875 -8.453125 23.390625 -12.578125 
Q 20.5625 -16.703125 17.109375 -18.71875 
Q 13.671875 -20.75 9.328125 -20.75 
z
" id="LiberationSans-121"/>
      </defs>
      <g style="fill:#262626;" transform="translate(64.85724 383.081675)scale(0.14 -0.14)">
       <use xlink:href="#LiberationSans-77"/>
       <use x="83.300781" xlink:href="#LiberationSans-111"/>
       <use x="138.916016" xlink:href="#LiberationSans-110"/>
       <use x="194.53125" xlink:href="#LiberationSans-100"/>
       <use x="250.146484" xlink:href="#LiberationSans-97"/>
       <use x="305.761719" xlink:href="#LiberationSans-121"/>
      </g>
     </g>
    </g>
    <g id="xtick_2">
     <g id="line2d_2"/>
     <g id="text_2">
      <!-- Tuesday -->
      <defs>
       <path d="M 35.15625 61.1875 
L 35.15625 0 
L 25.875 0 
L 25.875 61.1875 
L 2.25 61.1875 
L 2.25 68.796875 
L 58.796875 68.796875 
L 58.796875 61.1875 
z
" id="LiberationSans-84"/>
       <path d="M 15.328125 52.828125 
L 15.328125 19.34375 
Q 15.328125 14.109375 16.359375 11.21875 
Q 17.390625 8.34375 19.625 7.078125 
Q 21.875 5.8125 26.21875 5.8125 
Q 32.5625 5.8125 36.21875 10.15625 
Q 39.890625 14.5 39.890625 22.21875 
L 39.890625 52.828125 
L 48.6875 52.828125 
L 48.6875 11.28125 
Q 48.6875 2.046875 48.96875 0 
L 40.671875 0 
Q 40.625 0.25 40.578125 1.3125 
Q 40.53125 2.390625 40.453125 3.78125 
Q 40.375 5.171875 40.28125 9.03125 
L 40.140625 9.03125 
Q 37.109375 3.5625 33.125 1.28125 
Q 29.15625 -0.984375 23.25 -0.984375 
Q 14.546875 -0.984375 10.515625 3.34375 
Q 6.5 7.671875 6.5 17.625 
L 6.5 52.828125 
z
" id="LiberationSans-117"/>
       <path d="M 13.484375 24.5625 
Q 13.484375 15.484375 17.234375 10.546875 
Q 21 5.609375 28.21875 5.609375 
Q 33.9375 5.609375 37.375 7.90625 
Q 40.828125 10.203125 42.046875 13.71875 
L 49.75 11.53125 
Q 45.015625 -0.984375 28.21875 -0.984375 
Q 16.5 -0.984375 10.375 6 
Q 4.25 12.984375 4.25 26.765625 
Q 4.25 39.84375 10.375 46.828125 
Q 16.5 53.8125 27.875 53.8125 
Q 51.171875 53.8125 51.171875 25.734375 
L 51.171875 24.5625 
z
M 42.09375 31.296875 
Q 41.359375 39.65625 37.84375 43.484375 
Q 34.328125 47.3125 27.734375 47.3125 
Q 21.34375 47.3125 17.609375 43.03125 
Q 13.875 38.765625 13.578125 31.296875 
z
" id="LiberationSans-101"/>
       <path d="M 46.390625 14.59375 
Q 46.390625 7.125 40.75 3.0625 
Q 35.109375 -0.984375 24.953125 -0.984375 
Q 15.09375 -0.984375 9.734375 2.265625 
Q 4.390625 5.515625 2.78125 12.40625 
L 10.546875 13.921875 
Q 11.671875 9.671875 15.1875 7.6875 
Q 18.703125 5.71875 24.953125 5.71875 
Q 31.640625 5.71875 34.734375 7.765625 
Q 37.84375 9.8125 37.84375 13.921875 
Q 37.84375 17.046875 35.6875 19 
Q 33.546875 20.953125 28.765625 22.21875 
L 22.46875 23.875 
Q 14.890625 25.828125 11.6875 27.703125 
Q 8.5 29.59375 6.6875 32.28125 
Q 4.890625 34.96875 4.890625 38.875 
Q 4.890625 46.09375 10.03125 49.875 
Q 15.1875 53.65625 25.046875 53.65625 
Q 33.796875 53.65625 38.9375 50.578125 
Q 44.09375 47.515625 45.453125 40.71875 
L 37.546875 39.75 
Q 36.8125 43.265625 33.609375 45.140625 
Q 30.421875 47.015625 25.046875 47.015625 
Q 19.09375 47.015625 16.25 45.203125 
Q 13.421875 43.40625 13.421875 39.75 
Q 13.421875 37.5 14.59375 36.03125 
Q 15.765625 34.578125 18.0625 33.546875 
Q 20.359375 32.515625 27.734375 30.71875 
Q 34.71875 28.953125 37.796875 27.46875 
Q 40.875 25.984375 42.65625 24.171875 
Q 44.4375 22.359375 45.40625 19.984375 
Q 46.390625 17.625 46.390625 14.59375 
z
" id="LiberationSans-115"/>
      </defs>
      <g style="fill:#262626;" transform="translate(158.572977 383.081675)scale(0.14 -0.14)">
       <use xlink:href="#LiberationSans-84"/>
       <use x="61.037109" xlink:href="#LiberationSans-117"/>
       <use x="116.652344" xlink:href="#LiberationSans-101"/>
       <use x="172.267578" xlink:href="#LiberationSans-115"/>
       <use x="222.267578" xlink:href="#LiberationSans-100"/>
       <use x="277.882812" xlink:href="#LiberationSans-97"/>
       <use x="333.498047" xlink:href="#LiberationSans-121"/>
      </g>
     </g>
    </g>
    <g id="xtick_3">
     <g id="line2d_3"/>
     <g id="text_3">
      <!-- Wednesday -->
      <defs>
       <path d="M 73.78125 0 
L 62.640625 0 
L 50.734375 43.703125 
Q 49.5625 47.796875 47.3125 58.40625 
Q 46.046875 52.734375 45.15625 48.921875 
Q 44.28125 45.125 31.84375 0 
L 20.703125 0 
L 0.4375 68.796875 
L 10.15625 68.796875 
L 22.515625 25.09375 
Q 24.703125 16.890625 26.5625 8.203125 
Q 27.734375 13.578125 29.265625 19.921875 
Q 30.8125 26.265625 42.828125 68.796875 
L 51.765625 68.796875 
L 63.71875 25.984375 
Q 66.453125 15.484375 68.015625 8.203125 
L 68.453125 9.90625 
Q 69.78125 15.53125 70.609375 19.0625 
Q 71.4375 22.609375 84.328125 68.796875 
L 94.046875 68.796875 
z
" id="LiberationSans-87"/>
      </defs>
      <g style="fill:#262626;" transform="translate(244.110745 383.081675)scale(0.14 -0.14)">
       <use xlink:href="#LiberationSans-87"/>
       <use x="94.369141" xlink:href="#LiberationSans-101"/>
       <use x="149.984375" xlink:href="#LiberationSans-100"/>
       <use x="205.599609" xlink:href="#LiberationSans-110"/>
       <use x="261.214844" xlink:href="#LiberationSans-101"/>
       <use x="316.830078" xlink:href="#LiberationSans-115"/>
       <use x="366.830078" xlink:href="#LiberationSans-100"/>
       <use x="422.445312" xlink:href="#LiberationSans-97"/>
       <use x="478.060547" xlink:href="#LiberationSans-121"/>
      </g>
     </g>
    </g>
    <g id="xtick_4">
     <g id="line2d_4"/>
     <g id="text_4">
      <!-- Thursday -->
      <defs>
       <path d="M 15.484375 43.796875 
Q 18.3125 48.96875 22.28125 51.390625 
Q 26.265625 53.8125 32.375 53.8125 
Q 40.96875 53.8125 45.046875 49.53125 
Q 49.125 45.265625 49.125 35.203125 
L 49.125 0 
L 40.28125 0 
L 40.28125 33.5 
Q 40.28125 39.0625 39.25 41.765625 
Q 38.234375 44.484375 35.890625 45.75 
Q 33.546875 47.015625 29.390625 47.015625 
Q 23.1875 47.015625 19.453125 42.71875 
Q 15.71875 38.421875 15.71875 31.15625 
L 15.71875 0 
L 6.9375 0 
L 6.9375 72.46875 
L 15.71875 72.46875 
L 15.71875 53.609375 
Q 15.71875 50.640625 15.546875 47.453125 
Q 15.375 44.28125 15.328125 43.796875 
z
" id="LiberationSans-104"/>
       <path d="M 6.9375 0 
L 6.9375 40.53125 
Q 6.9375 46.09375 6.640625 52.828125 
L 14.9375 52.828125 
Q 15.328125 43.84375 15.328125 42.046875 
L 15.53125 42.046875 
Q 17.625 48.828125 20.359375 51.3125 
Q 23.09375 53.8125 28.078125 53.8125 
Q 29.828125 53.8125 31.640625 53.328125 
L 31.640625 45.265625 
Q 29.890625 45.75 26.953125 45.75 
Q 21.484375 45.75 18.59375 41.03125 
Q 15.71875 36.328125 15.71875 27.546875 
L 15.71875 0 
z
" id="LiberationSans-114"/>
      </defs>
      <g style="fill:#262626;" transform="translate(347.5532 383.081675)scale(0.14 -0.14)">
       <use xlink:href="#LiberationSans-84"/>
       <use x="61.083984" xlink:href="#LiberationSans-104"/>
       <use x="116.699219" xlink:href="#LiberationSans-117"/>
       <use x="172.314453" xlink:href="#LiberationSans-114"/>
       <use x="205.615234" xlink:href="#LiberationSans-115"/>
       <use x="255.615234" xlink:href="#LiberationSans-100"/>
       <use x="311.230469" xlink:href="#LiberationSans-97"/>
       <use x="366.845703" xlink:href="#LiberationSans-121"/>
      </g>
     </g>
    </g>
    <g id="xtick_5">
     <g id="line2d_5"/>
     <g id="text_5">
      <!-- Friday -->
      <defs>
       <path d="M 17.53125 61.1875 
L 17.53125 35.59375 
L 55.90625 35.59375 
L 55.90625 27.875 
L 17.53125 27.875 
L 17.53125 0 
L 8.203125 0 
L 8.203125 68.796875 
L 57.078125 68.796875 
L 57.078125 61.1875 
z
" id="LiberationSans-70"/>
       <path d="M 6.6875 64.0625 
L 6.6875 72.46875 
L 15.484375 72.46875 
L 15.484375 64.0625 
z
M 6.6875 0 
L 6.6875 52.828125 
L 15.484375 52.828125 
L 15.484375 0 
z
" id="LiberationSans-105"/>
      </defs>
      <g style="fill:#262626;" transform="translate(452.940343 383.081675)scale(0.14 -0.14)">
       <use xlink:href="#LiberationSans-70"/>
       <use x="61.083984" xlink:href="#LiberationSans-114"/>
       <use x="94.384766" xlink:href="#LiberationSans-105"/>
       <use x="116.601562" xlink:href="#LiberationSans-100"/>
       <use x="172.216797" xlink:href="#LiberationSans-97"/>
       <use x="227.832031" xlink:href="#LiberationSans-121"/>
      </g>
     </g>
    </g>
    <g id="xtick_6">
     <g id="line2d_6"/>
     <g id="text_6">
      <!-- Saturday -->
      <defs>
       <path d="M 62.109375 19 
Q 62.109375 9.46875 54.65625 4.234375 
Q 47.21875 -0.984375 33.6875 -0.984375 
Q 8.546875 -0.984375 4.546875 16.5 
L 13.578125 18.3125 
Q 15.140625 12.109375 20.21875 9.203125 
Q 25.296875 6.296875 34.03125 6.296875 
Q 43.0625 6.296875 47.96875 9.390625 
Q 52.875 12.5 52.875 18.5 
Q 52.875 21.875 51.34375 23.96875 
Q 49.8125 26.078125 47.015625 27.4375 
Q 44.234375 28.8125 40.375 29.734375 
Q 36.53125 30.671875 31.84375 31.734375 
Q 23.6875 33.546875 19.453125 35.34375 
Q 15.234375 37.15625 12.796875 39.375 
Q 10.359375 41.609375 9.0625 44.578125 
Q 7.765625 47.5625 7.765625 51.421875 
Q 7.765625 60.25 14.53125 65.03125 
Q 21.296875 69.828125 33.890625 69.828125 
Q 45.609375 69.828125 51.8125 66.234375 
Q 58.015625 62.640625 60.5 54 
L 51.3125 52.390625 
Q 49.8125 57.859375 45.5625 60.328125 
Q 41.3125 62.796875 33.796875 62.796875 
Q 25.53125 62.796875 21.1875 60.0625 
Q 16.84375 57.328125 16.84375 51.90625 
Q 16.84375 48.734375 18.53125 46.65625 
Q 20.21875 44.578125 23.390625 43.140625 
Q 26.5625 41.703125 36.03125 39.59375 
Q 39.203125 38.875 42.359375 38.109375 
Q 45.515625 37.359375 48.390625 36.296875 
Q 51.265625 35.25 53.78125 33.828125 
Q 56.296875 32.421875 58.15625 30.375 
Q 60.015625 28.328125 61.0625 25.53125 
Q 62.109375 22.75 62.109375 19 
z
" id="LiberationSans-83"/>
       <path d="M 27.046875 0.390625 
Q 22.703125 -0.78125 18.171875 -0.78125 
Q 7.625 -0.78125 7.625 11.1875 
L 7.625 46.4375 
L 1.515625 46.4375 
L 1.515625 52.828125 
L 7.953125 52.828125 
L 10.546875 64.65625 
L 16.40625 64.65625 
L 16.40625 52.828125 
L 26.171875 52.828125 
L 26.171875 46.4375 
L 16.40625 46.4375 
L 16.40625 13.09375 
Q 16.40625 9.28125 17.640625 7.734375 
Q 18.890625 6.203125 21.96875 6.203125 
Q 23.734375 6.203125 27.046875 6.890625 
z
" id="LiberationSans-116"/>
      </defs>
      <g style="fill:#262626;" transform="translate(540.029048 383.081675)scale(0.14 -0.14)">
       <use xlink:href="#LiberationSans-83"/>
       <use x="66.699219" xlink:href="#LiberationSans-97"/>
       <use x="122.314453" xlink:href="#LiberationSans-116"/>
       <use x="150.097656" xlink:href="#LiberationSans-117"/>
       <use x="205.712891" xlink:href="#LiberationSans-114"/>
       <use x="239.013672" xlink:href="#LiberationSans-100"/>
       <use x="294.628906" xlink:href="#LiberationSans-97"/>
       <use x="350.244141" xlink:href="#LiberationSans-121"/>
      </g>
     </g>
    </g>
    <g id="xtick_7">
     <g id="line2d_7"/>
     <g id="text_7">
      <!-- Sunday -->
      <g style="fill:#262626;" transform="translate(639.96166 383.081675)scale(0.14 -0.14)">
       <use xlink:href="#LiberationSans-83"/>
       <use x="66.699219" xlink:href="#LiberationSans-117"/>
       <use x="122.314453" xlink:href="#LiberationSans-110"/>
       <use x="177.929688" xlink:href="#LiberationSans-100"/>
       <use x="233.544922" xlink:href="#LiberationSans-97"/>
       <use x="289.160156" xlink:href="#LiberationSans-121"/>
      </g>
     </g>
    </g>
   </g>
   <g id="matplotlib.axis_2">
    <g id="ytick_1">
     <g id="line2d_8"/>
     <g id="text_8">
      <!-- 10 -->
      <defs>
       <path d="M 7.625 0 
L 7.625 7.46875 
L 25.140625 7.46875 
L 25.140625 60.40625 
L 9.625 49.3125 
L 9.625 57.625 
L 25.875 68.796875 
L 33.984375 68.796875 
L 33.984375 7.46875 
L 50.734375 7.46875 
L 50.734375 0 
z
" id="LiberationSans-49"/>
       <path d="M 51.703125 34.421875 
Q 51.703125 17.1875 45.625 8.09375 
Q 39.546875 -0.984375 27.6875 -0.984375 
Q 15.828125 -0.984375 9.859375 8.046875 
Q 3.90625 17.09375 3.90625 34.421875 
Q 3.90625 52.15625 9.6875 60.984375 
Q 15.484375 69.828125 27.984375 69.828125 
Q 40.140625 69.828125 45.921875 60.890625 
Q 51.703125 51.953125 51.703125 34.421875 
z
M 42.78125 34.421875 
Q 42.78125 49.3125 39.328125 56 
Q 35.890625 62.703125 27.984375 62.703125 
Q 19.875 62.703125 16.328125 56.109375 
Q 12.796875 49.515625 12.796875 34.421875 
Q 12.796875 19.78125 16.375 12.984375 
Q 19.96875 6.203125 27.78125 6.203125 
Q 35.546875 6.203125 39.15625 13.125 
Q 42.78125 20.0625 42.78125 34.421875 
z
" id="LiberationSans-48"/>
      </defs>
      <g style="fill:#262626;" transform="translate(27.3082 333.176927)scale(0.1 -0.1)">
       <use xlink:href="#LiberationSans-49"/>
       <use x="55.615234" xlink:href="#LiberationSans-48"/>
      </g>
     </g>
    </g>
    <g id="ytick_2">
     <g id="line2d_9"/>
     <g id="text_9">
      <!-- 20 -->
      <defs>
       <path d="M 5.03125 0 
L 5.03125 6.203125 
Q 7.515625 11.921875 11.109375 16.28125 
Q 14.703125 20.65625 18.65625 24.1875 
Q 22.609375 27.734375 26.484375 30.765625 
Q 30.375 33.796875 33.5 36.8125 
Q 36.625 39.84375 38.546875 43.15625 
Q 40.484375 46.484375 40.484375 50.6875 
Q 40.484375 56.34375 37.15625 59.46875 
Q 33.84375 62.59375 27.9375 62.59375 
Q 22.3125 62.59375 18.671875 59.546875 
Q 15.046875 56.5 14.40625 50.984375 
L 5.421875 51.8125 
Q 6.390625 60.0625 12.421875 64.9375 
Q 18.453125 69.828125 27.9375 69.828125 
Q 38.328125 69.828125 43.921875 64.921875 
Q 49.515625 60.015625 49.515625 50.984375 
Q 49.515625 46.96875 47.671875 43.015625 
Q 45.84375 39.0625 42.234375 35.109375 
Q 38.625 31.15625 28.421875 22.859375 
Q 22.796875 18.265625 19.46875 14.578125 
Q 16.15625 10.890625 14.703125 7.46875 
L 50.59375 7.46875 
L 50.59375 0 
z
" id="LiberationSans-50"/>
      </defs>
      <g style="fill:#262626;" transform="translate(27.3082 291.415083)scale(0.1 -0.1)">
       <use xlink:href="#LiberationSans-50"/>
       <use x="55.615234" xlink:href="#LiberationSans-48"/>
      </g>
     </g>
    </g>
    <g id="ytick_3">
     <g id="line2d_10"/>
     <g id="text_10">
      <!-- 30 -->
      <defs>
       <path d="M 51.21875 19 
Q 51.21875 9.46875 45.15625 4.234375 
Q 39.109375 -0.984375 27.875 -0.984375 
Q 17.4375 -0.984375 11.203125 3.734375 
Q 4.984375 8.453125 3.8125 17.671875 
L 12.890625 18.5 
Q 14.65625 6.296875 27.875 6.296875 
Q 34.515625 6.296875 38.296875 9.5625 
Q 42.09375 12.84375 42.09375 19.28125 
Q 42.09375 24.90625 37.765625 28.046875 
Q 33.453125 31.203125 25.296875 31.203125 
L 20.3125 31.203125 
L 20.3125 38.8125 
L 25.09375 38.8125 
Q 32.328125 38.8125 36.296875 41.96875 
Q 40.28125 45.125 40.28125 50.6875 
Q 40.28125 56.203125 37.03125 59.390625 
Q 33.796875 62.59375 27.390625 62.59375 
Q 21.578125 62.59375 17.984375 59.609375 
Q 14.40625 56.640625 13.8125 51.21875 
L 4.984375 51.90625 
Q 5.953125 60.359375 11.984375 65.09375 
Q 18.015625 69.828125 27.484375 69.828125 
Q 37.84375 69.828125 43.578125 65.015625 
Q 49.3125 60.203125 49.3125 51.609375 
Q 49.3125 45.015625 45.625 40.890625 
Q 41.9375 36.765625 34.90625 35.296875 
L 34.90625 35.109375 
Q 42.625 34.28125 46.921875 29.9375 
Q 51.21875 25.59375 51.21875 19 
z
" id="LiberationSans-51"/>
      </defs>
      <g style="fill:#262626;" transform="translate(27.3082 249.653239)scale(0.1 -0.1)">
       <use xlink:href="#LiberationSans-51"/>
       <use x="55.615234" xlink:href="#LiberationSans-48"/>
      </g>
     </g>
    </g>
    <g id="ytick_4">
     <g id="line2d_11"/>
     <g id="text_11">
      <!-- 40 -->
      <defs>
       <path d="M 43.015625 15.578125 
L 43.015625 0 
L 34.71875 0 
L 34.71875 15.578125 
L 2.296875 15.578125 
L 2.296875 22.40625 
L 33.796875 68.796875 
L 43.015625 68.796875 
L 43.015625 22.515625 
L 52.6875 22.515625 
L 52.6875 15.578125 
z
M 34.71875 58.890625 
Q 34.625 58.59375 33.34375 56.296875 
Q 32.078125 54 31.453125 53.078125 
L 13.8125 27.09375 
L 11.1875 23.484375 
L 10.40625 22.515625 
L 34.71875 22.515625 
z
" id="LiberationSans-52"/>
      </defs>
      <g style="fill:#262626;" transform="translate(27.3082 207.891395)scale(0.1 -0.1)">
       <use xlink:href="#LiberationSans-52"/>
       <use x="55.615234" xlink:href="#LiberationSans-48"/>
      </g>
     </g>
    </g>
    <g id="ytick_5">
     <g id="line2d_12"/>
     <g id="text_12">
      <!-- 50 -->
      <defs>
       <path d="M 51.421875 22.40625 
Q 51.421875 11.53125 44.953125 5.265625 
Q 38.484375 -0.984375 27 -0.984375 
Q 17.390625 -0.984375 11.46875 3.21875 
Q 5.5625 7.421875 4 15.375 
L 12.890625 16.40625 
Q 15.671875 6.203125 27.203125 6.203125 
Q 34.28125 6.203125 38.28125 10.46875 
Q 42.28125 14.75 42.28125 22.21875 
Q 42.28125 28.71875 38.25 32.71875 
Q 34.234375 36.71875 27.390625 36.71875 
Q 23.828125 36.71875 20.75 35.59375 
Q 17.671875 34.46875 14.59375 31.78125 
L 6 31.78125 
L 8.296875 68.796875 
L 47.40625 68.796875 
L 47.40625 61.328125 
L 16.3125 61.328125 
L 14.984375 39.5 
Q 20.703125 43.890625 29.203125 43.890625 
Q 39.359375 43.890625 45.390625 37.9375 
Q 51.421875 31.984375 51.421875 22.40625 
z
" id="LiberationSans-53"/>
      </defs>
      <g style="fill:#262626;" transform="translate(27.3082 166.129552)scale(0.1 -0.1)">
       <use xlink:href="#LiberationSans-53"/>
       <use x="55.615234" xlink:href="#LiberationSans-48"/>
      </g>
     </g>
    </g>
    <g id="ytick_6">
     <g id="line2d_13"/>
     <g id="text_13">
      <!-- 60 -->
      <defs>
       <path d="M 51.21875 22.515625 
Q 51.21875 11.625 45.3125 5.3125 
Q 39.40625 -0.984375 29 -0.984375 
Q 17.390625 -0.984375 11.234375 7.65625 
Q 5.078125 16.3125 5.078125 32.8125 
Q 5.078125 50.6875 11.46875 60.25 
Q 17.875 69.828125 29.6875 69.828125 
Q 45.265625 69.828125 49.3125 55.8125 
L 40.921875 54.296875 
Q 38.328125 62.703125 29.59375 62.703125 
Q 22.078125 62.703125 17.9375 55.6875 
Q 13.8125 48.6875 13.8125 35.40625 
Q 16.21875 39.84375 20.5625 42.15625 
Q 24.90625 44.484375 30.515625 44.484375 
Q 40.046875 44.484375 45.625 38.515625 
Q 51.21875 32.5625 51.21875 22.515625 
z
M 42.28125 22.125 
Q 42.28125 29.59375 38.625 33.640625 
Q 34.96875 37.703125 28.421875 37.703125 
Q 22.265625 37.703125 18.484375 34.109375 
Q 14.703125 30.515625 14.703125 24.21875 
Q 14.703125 16.265625 18.625 11.1875 
Q 22.5625 6.109375 28.71875 6.109375 
Q 35.0625 6.109375 38.671875 10.375 
Q 42.28125 14.65625 42.28125 22.125 
z
" id="LiberationSans-54"/>
      </defs>
      <g style="fill:#262626;" transform="translate(27.3082 124.367708)scale(0.1 -0.1)">
       <use xlink:href="#LiberationSans-54"/>
       <use x="55.615234" xlink:href="#LiberationSans-48"/>
      </g>
     </g>
    </g>
    <g id="ytick_7">
     <g id="line2d_14"/>
     <g id="text_14">
      <!-- 70 -->
      <defs>
       <path d="M 50.59375 61.671875 
Q 40.046875 45.5625 35.6875 36.421875 
Q 31.34375 27.296875 29.171875 18.40625 
Q 27 9.515625 27 0 
L 17.828125 0 
Q 17.828125 13.1875 23.40625 27.75 
Q 29 42.328125 42.09375 61.328125 
L 5.125 61.328125 
L 5.125 68.796875 
L 50.59375 68.796875 
z
" id="LiberationSans-55"/>
      </defs>
      <g style="fill:#262626;" transform="translate(27.3082 82.605864)scale(0.1 -0.1)">
       <use xlink:href="#LiberationSans-55"/>
       <use x="55.615234" xlink:href="#LiberationSans-48"/>
      </g>
     </g>
    </g>
    <g id="text_15">
     <!-- Accidents -->
     <defs>
      <path d="M 56.984375 0 
L 49.125 20.125 
L 17.78125 20.125 
L 9.859375 0 
L 0.203125 0 
L 28.265625 68.796875 
L 38.875 68.796875 
L 66.5 0 
z
M 33.453125 61.765625 
L 33.015625 60.40625 
Q 31.78125 56.34375 29.390625 50 
L 20.609375 27.390625 
L 46.34375 27.390625 
L 37.5 50.09375 
Q 36.140625 53.46875 34.765625 57.71875 
z
" id="LiberationSans-65"/>
      <path d="M 13.421875 26.65625 
Q 13.421875 16.109375 16.734375 11.03125 
Q 20.0625 5.953125 26.765625 5.953125 
Q 31.453125 5.953125 34.59375 8.484375 
Q 37.75 11.03125 38.484375 16.3125 
L 47.359375 15.71875 
Q 46.34375 8.109375 40.875 3.5625 
Q 35.40625 -0.984375 27 -0.984375 
Q 15.921875 -0.984375 10.078125 6.015625 
Q 4.25 13.03125 4.25 26.46875 
Q 4.25 39.796875 10.109375 46.796875 
Q 15.96875 53.8125 26.90625 53.8125 
Q 35.015625 53.8125 40.359375 49.609375 
Q 45.703125 45.40625 47.078125 38.03125 
L 38.03125 37.359375 
Q 37.359375 41.75 34.5625 44.328125 
Q 31.78125 46.921875 26.65625 46.921875 
Q 19.671875 46.921875 16.546875 42.28125 
Q 13.421875 37.640625 13.421875 26.65625 
z
" id="LiberationSans-99"/>
     </defs>
     <g style="fill:#262626;" transform="translate(19.7226 243.81315)rotate(-90)scale(0.1728 -0.1728)">
      <use xlink:href="#LiberationSans-65"/>
      <use x="66.699219" xlink:href="#LiberationSans-99"/>
      <use x="116.699219" xlink:href="#LiberationSans-99"/>
      <use x="166.699219" xlink:href="#LiberationSans-105"/>
      <use x="188.916016" xlink:href="#LiberationSans-100"/>
      <use x="244.53125" xlink:href="#LiberationSans-101"/>
      <use x="300.146484" xlink:href="#LiberationSans-110"/>
      <use x="355.761719" xlink:href="#LiberationSans-116"/>
      <use x="383.544922" xlink:href="#LiberationSans-115"/>
     </g>
    </g>
   </g>
   <g id="PolyCollection_1">
    <defs>
     <path d="M 90.43041 -46.928448 
L 89.086882 -46.928448 
L 88.988224 -49.375102 
L 88.896921 -51.821755 
L 88.812319 -54.268409 
L 88.729963 -56.715062 
L 88.641838 -59.161716 
L 88.537526 -61.608369 
L 88.406148 -64.055023 
L 88.238715 -66.501676 
L 88.03028 -68.94833 
L 87.781248 -71.394983 
L 87.497313 -73.841637 
L 87.187849 -76.28829 
L 86.863054 -78.734943 
L 86.5306 -81.181597 
L 86.192735 -83.62825 
L 85.844712 -86.074904 
L 85.475023 -88.521557 
L 85.067327 -90.968211 
L 84.603512 -93.414864 
L 84.067013 -95.861518 
L 83.445607 -98.308171 
L 82.733151 -100.754825 
L 81.930189 -103.201478 
L 81.043675 -105.648132 
L 80.086254 -108.094785 
L 79.07549 -110.541439 
L 78.03321 -112.988092 
L 76.984813 -115.434746 
L 75.95814 -117.881399 
L 74.981418 -120.328053 
L 74.080025 -122.774706 
L 73.272272 -125.221359 
L 72.564993 -127.668013 
L 71.950235 -130.114666 
L 71.404413 -132.56132 
L 70.890905 -135.007973 
L 70.366104 -137.454627 
L 69.78786 -139.90128 
L 69.124268 -142.347934 
L 68.360461 -144.794587 
L 67.501479 -147.241241 
L 66.570425 -149.687894 
L 65.602576 -152.134548 
L 64.63732 -154.581201 
L 63.710353 -157.027855 
L 62.848256 -159.474508 
L 62.066503 -161.921162 
L 61.370706 -164.367815 
L 60.759891 -166.814469 
L 60.230312 -169.261122 
L 59.778627 -171.707776 
L 59.403946 -174.154429 
L 59.108798 -176.601082 
L 58.899201 -179.047736 
L 58.783934 -181.494389 
L 58.77299 -183.941043 
L 58.875428 -186.387696 
L 59.097266 -188.83435 
L 59.44038 -191.281003 
L 59.903155 -193.727657 
L 60.482809 -196.17431 
L 61.178268 -198.620964 
L 61.991846 -201.067617 
L 62.928304 -203.514271 
L 63.991095 -205.960924 
L 65.177113 -208.407578 
L 66.472245 -210.854231 
L 67.849896 -213.300885 
L 69.273439 -215.747538 
L 70.701917 -218.194192 
L 72.097042 -220.640845 
L 73.429222 -223.087498 
L 74.680924 -225.534152 
L 75.846847 -227.980805 
L 76.931411 -230.427459 
L 77.944715 -232.874112 
L 78.89822 -235.320766 
L 79.801172 -237.767419 
L 80.658402 -240.214073 
L 81.469784 -242.660726 
L 82.231235 -245.10738 
L 82.936827 -247.554033 
L 83.581282 -250.000687 
L 84.162063 -252.44734 
L 84.680409 -254.893994 
L 85.141093 -257.340647 
L 85.551172 -259.787301 
L 85.918336 -262.233954 
L 86.249558 -264.680608 
L 86.550519 -267.127261 
L 86.825861 -269.573914 
L 87.079939 -272.020568 
L 87.317528 -274.467221 
L 87.544018 -276.913875 
L 87.764887 -279.360528 
L 87.984623 -281.807182 
L 88.205526 -284.253835 
L 88.426919 -286.700489 
L 88.645111 -289.147142 
L 90.872182 -289.147142 
L 90.872182 -289.147142 
L 91.090373 -286.700489 
L 91.311767 -284.253835 
L 91.53267 -281.807182 
L 91.752405 -279.360528 
L 91.973275 -276.913875 
L 92.199765 -274.467221 
L 92.437354 -272.020568 
L 92.691431 -269.573914 
L 92.966774 -267.127261 
L 93.267735 -264.680608 
L 93.598957 -262.233954 
L 93.966121 -259.787301 
L 94.3762 -257.340647 
L 94.836884 -254.893994 
L 95.35523 -252.44734 
L 95.936011 -250.000687 
L 96.580466 -247.554033 
L 97.286058 -245.10738 
L 98.047509 -242.660726 
L 98.858891 -240.214073 
L 99.716121 -237.767419 
L 100.619072 -235.320766 
L 101.572578 -232.874112 
L 102.585882 -230.427459 
L 103.670446 -227.980805 
L 104.836369 -225.534152 
L 106.088071 -223.087498 
L 107.420251 -220.640845 
L 108.815376 -218.194192 
L 110.243854 -215.747538 
L 111.667397 -213.300885 
L 113.045048 -210.854231 
L 114.34018 -208.407578 
L 115.526198 -205.960924 
L 116.588989 -203.514271 
L 117.525447 -201.067617 
L 118.339025 -198.620964 
L 119.034484 -196.17431 
L 119.614138 -193.727657 
L 120.076913 -191.281003 
L 120.420027 -188.83435 
L 120.641865 -186.387696 
L 120.744303 -183.941043 
L 120.733359 -181.494389 
L 120.618092 -179.047736 
L 120.408495 -176.601082 
L 120.113347 -174.154429 
L 119.738666 -171.707776 
L 119.28698 -169.261122 
L 118.757402 -166.814469 
L 118.146587 -164.367815 
L 117.45079 -161.921162 
L 116.669037 -159.474508 
L 115.80694 -157.027855 
L 114.879973 -154.581201 
L 113.914716 -152.134548 
L 112.946868 -149.687894 
L 112.015814 -147.241241 
L 111.156832 -144.794587 
L 110.393025 -142.347934 
L 109.729433 -139.90128 
L 109.151188 -137.454627 
L 108.626388 -135.007973 
L 108.11288 -132.56132 
L 107.567058 -130.114666 
L 106.9523 -127.668013 
L 106.245021 -125.221359 
L 105.437268 -122.774706 
L 104.535875 -120.328053 
L 103.559153 -117.881399 
L 102.53248 -115.434746 
L 101.484083 -112.988092 
L 100.441803 -110.541439 
L 99.431038 -108.094785 
L 98.473618 -105.648132 
L 97.587104 -103.201478 
L 96.784142 -100.754825 
L 96.071686 -98.308171 
L 95.450279 -95.861518 
L 94.913781 -93.414864 
L 94.449966 -90.968211 
L 94.04227 -88.521557 
L 93.672581 -86.074904 
L 93.324558 -83.62825 
L 92.986693 -81.181597 
L 92.654239 -78.734943 
L 92.329444 -76.28829 
L 92.01998 -73.841637 
L 91.736045 -71.394983 
L 91.487013 -68.94833 
L 91.278578 -66.501676 
L 91.111145 -64.055023 
L 90.979767 -61.608369 
L 90.875455 -59.161716 
L 90.78733 -56.715062 
L 90.704974 -54.268409 
L 90.620372 -51.821755 
L 90.529069 -49.375102 
L 90.43041 -46.928448 
z
" id="mf276e3c68a" style="stroke:#353535;stroke-width:2;"/>
    </defs>
    <g clip-path="url(#pf022e3a2cb)">
     <use style="fill:#367182;stroke:#353535;stroke-width:2;" x="0" xlink:href="#mf276e3c68a" y="393.186675"/>
    </g>
   </g>
   <g id="PolyCollection_2">
    <defs>
     <path d="M 186.368997 -55.280817 
L 184.462581 -55.280817 
L 184.28708 -58.06494 
L 184.118825 -60.849063 
L 183.962621 -63.633186 
L 183.819371 -66.417309 
L 183.685817 -69.201432 
L 183.555197 -71.985555 
L 183.418516 -74.769677 
L 183.265997 -77.5538 
L 183.088307 -80.337923 
L 182.877384 -83.122046 
L 182.626876 -85.906169 
L 182.332403 -88.690292 
L 181.991765 -91.474415 
L 181.6051 -94.258538 
L 181.174827 -97.042661 
L 180.705122 -99.826784 
L 180.200826 -102.610907 
L 179.66588 -105.39503 
L 179.101712 -108.179153 
L 178.506105 -110.963275 
L 177.873145 -113.747398 
L 177.194555 -116.531521 
L 176.462337 -119.315644 
L 175.672078 -122.099767 
L 174.825943 -124.88389 
L 173.934228 -127.668013 
L 173.014663 -130.452136 
L 172.08931 -133.236259 
L 171.179665 -136.020382 
L 170.301291 -138.804505 
L 169.45959 -141.588628 
L 168.648132 -144.37275 
L 167.850227 -147.156873 
L 167.043361 -149.940996 
L 166.205216 -152.725119 
L 165.31953 -155.509242 
L 164.380315 -158.293365 
L 163.39371 -161.077488 
L 162.37761 -163.861611 
L 161.35973 -166.645734 
L 160.374782 -169.429857 
L 159.461133 -172.21398 
L 158.656949 -174.998103 
L 157.995729 -177.782226 
L 157.501377 -180.566348 
L 157.183416 -183.350471 
L 157.033495 -186.134594 
L 157.024648 -188.918717 
L 157.114649 -191.70284 
L 157.253998 -194.486963 
L 157.397629 -197.271086 
L 157.51768 -200.055209 
L 157.613391 -202.839332 
L 157.714214 -205.623455 
L 157.873968 -208.407578 
L 158.156935 -211.191701 
L 158.620043 -213.975823 
L 159.297096 -216.759946 
L 160.190425 -219.544069 
L 161.272485 -222.328192 
L 162.495967 -225.112315 
L 163.807876 -227.896438 
L 165.16204 -230.680561 
L 166.525945 -233.464684 
L 167.880791 -236.248807 
L 169.216579 -239.03293 
L 170.525656 -241.817053 
L 171.797944 -244.601176 
L 173.019502 -247.385298 
L 174.174192 -250.169421 
L 175.24692 -252.953544 
L 176.226644 -255.737667 
L 177.107992 -258.52179 
L 177.891276 -261.305913 
L 178.581429 -264.090036 
L 179.18665 -266.874159 
L 179.717329 -269.658282 
L 180.185423 -272.442405 
L 180.604112 -275.226528 
L 180.987406 -278.010651 
L 181.349413 -280.794774 
L 181.703113 -283.578896 
L 182.058725 -286.363019 
L 182.421964 -289.147142 
L 182.7927 -291.931265 
L 183.164556 -294.715388 
L 183.525806 -297.499511 
L 183.861558 -300.283634 
L 184.156785 -303.067757 
L 184.399464 -305.85188 
L 184.583043 -308.636003 
L 184.707682 -311.420126 
L 184.780083 -314.204249 
L 184.8121 -316.988371 
L 184.818556 -319.772494 
L 184.814762 -322.556617 
L 184.814207 -325.34074 
L 184.826771 -328.124863 
L 184.857707 -330.908986 
L 185.973872 -330.908986 
L 185.973872 -330.908986 
L 186.004808 -328.124863 
L 186.017371 -325.34074 
L 186.016816 -322.556617 
L 186.013022 -319.772494 
L 186.019478 -316.988371 
L 186.051495 -314.204249 
L 186.123896 -311.420126 
L 186.248535 -308.636003 
L 186.432114 -305.85188 
L 186.674793 -303.067757 
L 186.97002 -300.283634 
L 187.305772 -297.499511 
L 187.667022 -294.715388 
L 188.038879 -291.931265 
L 188.409615 -289.147142 
L 188.772854 -286.363019 
L 189.128466 -283.578896 
L 189.482166 -280.794774 
L 189.844172 -278.010651 
L 190.227467 -275.226528 
L 190.646155 -272.442405 
L 191.114249 -269.658282 
L 191.644928 -266.874159 
L 192.250149 -264.090036 
L 192.940302 -261.305913 
L 193.723587 -258.52179 
L 194.604935 -255.737667 
L 195.584658 -252.953544 
L 196.657386 -250.169421 
L 197.812077 -247.385298 
L 199.033634 -244.601176 
L 200.305923 -241.817053 
L 201.615 -239.03293 
L 202.950788 -236.248807 
L 204.305634 -233.464684 
L 205.669539 -230.680561 
L 207.023703 -227.896438 
L 208.335612 -225.112315 
L 209.559093 -222.328192 
L 210.641153 -219.544069 
L 211.534483 -216.759946 
L 212.211535 -213.975823 
L 212.674644 -211.191701 
L 212.957611 -208.407578 
L 213.117364 -205.623455 
L 213.218188 -202.839332 
L 213.313898 -200.055209 
L 213.433949 -197.271086 
L 213.577581 -194.486963 
L 213.71693 -191.70284 
L 213.80693 -188.918717 
L 213.798083 -186.134594 
L 213.648162 -183.350471 
L 213.330201 -180.566348 
L 212.835849 -177.782226 
L 212.174629 -174.998103 
L 211.370445 -172.21398 
L 210.456796 -169.429857 
L 209.471848 -166.645734 
L 208.453968 -163.861611 
L 207.437869 -161.077488 
L 206.451264 -158.293365 
L 205.512048 -155.509242 
L 204.626362 -152.725119 
L 203.788218 -149.940996 
L 202.981352 -147.156873 
L 202.183447 -144.37275 
L 201.371989 -141.588628 
L 200.530287 -138.804505 
L 199.651913 -136.020382 
L 198.742269 -133.236259 
L 197.816915 -130.452136 
L 196.89735 -127.668013 
L 196.005635 -124.88389 
L 195.159501 -122.099767 
L 194.369241 -119.315644 
L 193.637023 -116.531521 
L 192.958434 -113.747398 
L 192.325473 -110.963275 
L 191.729866 -108.179153 
L 191.165698 -105.39503 
L 190.630753 -102.610907 
L 190.126456 -99.826784 
L 189.656752 -97.042661 
L 189.226479 -94.258538 
L 188.839814 -91.474415 
L 188.499175 -88.690292 
L 188.204703 -85.906169 
L 187.954195 -83.122046 
L 187.743271 -80.337923 
L 187.565582 -77.5538 
L 187.413062 -74.769677 
L 187.276381 -71.985555 
L 187.145761 -69.201432 
L 187.012207 -66.417309 
L 186.868957 -63.633186 
L 186.712754 -60.849063 
L 186.544498 -58.06494 
L 186.368997 -55.280817 
z
" id="m365818fee6" style="stroke:#353535;stroke-width:2;"/>
    </defs>
    <g clip-path="url(#pf022e3a2cb)">
     <use style="fill:#2f837f;stroke:#353535;stroke-width:2;" x="0" xlink:href="#m365818fee6" y="393.186675"/>
    </g>
   </g>
   <g id="PolyCollection_3">
    <defs>
     <path d="M 282.374326 -71.985555 
L 279.771539 -71.985555 
L 279.520372 -74.643126 
L 279.278067 -77.300698 
L 279.053693 -79.95827 
L 278.850552 -82.615842 
L 278.664588 -85.273414 
L 278.48435 -87.930986 
L 278.292625 -90.588558 
L 278.069365 -93.24613 
L 277.795143 -95.903701 
L 277.454218 -98.561273 
L 277.036479 -101.218845 
L 276.537908 -103.876417 
L 275.959743 -106.533989 
L 275.306826 -109.191561 
L 274.585868 -111.849133 
L 273.804164 -114.506705 
L 272.969079 -117.164276 
L 272.088205 -119.821848 
L 271.16983 -122.47942 
L 270.223263 -125.136992 
L 269.258705 -127.794564 
L 268.286651 -130.452136 
L 267.317091 -133.109708 
L 266.358873 -135.76728 
L 265.419472 -138.424852 
L 264.50508 -141.082423 
L 263.620666 -143.739995 
L 262.769615 -146.397567 
L 261.95286 -149.055139 
L 261.167893 -151.712711 
L 260.408392 -154.370283 
L 259.665157 -157.027855 
L 258.928496 -159.685427 
L 258.191451 -162.342998 
L 257.452708 -165.00057 
L 256.718011 -167.658142 
L 255.999472 -170.315714 
L 255.31303 -172.973286 
L 254.674992 -175.630858 
L 254.098839 -178.28843 
L 253.593209 -180.946002 
L 253.161404 -183.603573 
L 252.802282 -186.261145 
L 252.512072 -188.918717 
L 252.286593 -191.576289 
L 252.123392 -194.233861 
L 252.023322 -196.891433 
L 251.991225 -199.549005 
L 252.035584 -202.206577 
L 252.167437 -204.864148 
L 252.399142 -207.52172 
L 252.743597 -210.179292 
L 253.214094 -212.836864 
L 253.824255 -215.494436 
L 254.587083 -218.152008 
L 255.51233 -220.80958 
L 256.602312 -223.467152 
L 257.847448 -226.124723 
L 259.223496 -228.782295 
L 260.692185 -231.439867 
L 262.205661 -234.097439 
L 263.713633 -236.755011 
L 265.170987 -239.412583 
L 266.543561 -242.070155 
L 267.810701 -244.727727 
L 268.96455 -247.385298 
L 270.007103 -250.04287 
L 270.946504 -252.700442 
L 271.793766 -255.358014 
L 272.560533 -258.015586 
L 273.257901 -260.673158 
L 273.895997 -263.33073 
L 274.483969 -265.988302 
L 275.030096 -268.645874 
L 275.541858 -271.303445 
L 276.025861 -273.961017 
L 276.487612 -276.618589 
L 276.931206 -279.276161 
L 277.359035 -281.933733 
L 277.771679 -284.591305 
L 278.168008 -287.248877 
L 278.545476 -289.906449 
L 278.900478 -292.56402 
L 279.228671 -295.221592 
L 279.525261 -297.879164 
L 279.785348 -300.536736 
L 280.004479 -303.194308 
L 280.179454 -305.85188 
L 280.309276 -308.509452 
L 280.395979 -311.167024 
L 280.445022 -313.824595 
L 280.465004 -316.482167 
L 280.466691 -319.139739 
L 280.461525 -321.797311 
L 280.459964 -324.454883 
L 280.470031 -327.112455 
L 280.496358 -329.770027 
L 280.539911 -332.427599 
L 280.598371 -335.08517 
L 281.547493 -335.08517 
L 281.547493 -335.08517 
L 281.605953 -332.427599 
L 281.649506 -329.770027 
L 281.675833 -327.112455 
L 281.6859 -324.454883 
L 281.68434 -321.797311 
L 281.679174 -319.139739 
L 281.68086 -316.482167 
L 281.700842 -313.824595 
L 281.749885 -311.167024 
L 281.836589 -308.509452 
L 281.96641 -305.85188 
L 282.141385 -303.194308 
L 282.360516 -300.536736 
L 282.620603 -297.879164 
L 282.917193 -295.221592 
L 283.245387 -292.56402 
L 283.600388 -289.906449 
L 283.977856 -287.248877 
L 284.374185 -284.591305 
L 284.786829 -281.933733 
L 285.214659 -279.276161 
L 285.658252 -276.618589 
L 286.120004 -273.961017 
L 286.604006 -271.303445 
L 287.115768 -268.645874 
L 287.661895 -265.988302 
L 288.249867 -263.33073 
L 288.887964 -260.673158 
L 289.585331 -258.015586 
L 290.352098 -255.358014 
L 291.19936 -252.700442 
L 292.138761 -250.04287 
L 293.181314 -247.385298 
L 294.335163 -244.727727 
L 295.602303 -242.070155 
L 296.974877 -239.412583 
L 298.432231 -236.755011 
L 299.940203 -234.097439 
L 301.453679 -231.439867 
L 302.922368 -228.782295 
L 304.298417 -226.124723 
L 305.543552 -223.467152 
L 306.633535 -220.80958 
L 307.558782 -218.152008 
L 308.32161 -215.494436 
L 308.93177 -212.836864 
L 309.402267 -210.179292 
L 309.746722 -207.52172 
L 309.978427 -204.864148 
L 310.110281 -202.206577 
L 310.15464 -199.549005 
L 310.122542 -196.891433 
L 310.022472 -194.233861 
L 309.859271 -191.576289 
L 309.633793 -188.918717 
L 309.343582 -186.261145 
L 308.98446 -183.603573 
L 308.552655 -180.946002 
L 308.047025 -178.28843 
L 307.470873 -175.630858 
L 306.832835 -172.973286 
L 306.146393 -170.315714 
L 305.427854 -167.658142 
L 304.693156 -165.00057 
L 303.954413 -162.342998 
L 303.217369 -159.685427 
L 302.480708 -157.027855 
L 301.737472 -154.370283 
L 300.977971 -151.712711 
L 300.193004 -149.055139 
L 299.37625 -146.397567 
L 298.525199 -143.739995 
L 297.640784 -141.082423 
L 296.726392 -138.424852 
L 295.786991 -135.76728 
L 294.828773 -133.109708 
L 293.859213 -130.452136 
L 292.887159 -127.794564 
L 291.922601 -125.136992 
L 290.976034 -122.47942 
L 290.05766 -119.821848 
L 289.176786 -117.164276 
L 288.3417 -114.506705 
L 287.559996 -111.849133 
L 286.839038 -109.191561 
L 286.186122 -106.533989 
L 285.607956 -103.876417 
L 285.109386 -101.218845 
L 284.691646 -98.561273 
L 284.350721 -95.903701 
L 284.076499 -93.24613 
L 283.853239 -90.588558 
L 283.661514 -87.930986 
L 283.481276 -85.273414 
L 283.295312 -82.615842 
L 283.092171 -79.95827 
L 282.867797 -77.300698 
L 282.625492 -74.643126 
L 282.374326 -71.985555 
z
" id="m693bc70274" style="stroke:#353535;stroke-width:2;"/>
    </defs>
    <g clip-path="url(#pf022e3a2cb)">
     <use style="fill:#33977c;stroke:#353535;stroke-width:2;" x="0" xlink:href="#m693bc70274" y="393.186675"/>
    </g>
   </g>
   <g id="PolyCollection_4">
    <defs>
     <path d="M 377.048892 -38.57608 
L 376.411258 -38.57608 
L 376.320019 -41.44457 
L 376.207147 -44.31306 
L 376.070357 -47.18155 
L 375.909352 -50.050041 
L 375.726401 -52.918531 
L 375.526387 -55.787021 
L 375.316282 -58.655512 
L 375.104124 -61.524002 
L 374.897666 -64.392492 
L 374.702906 -67.260982 
L 374.522732 -70.129473 
L 374.355988 -72.997963 
L 374.197265 -75.866453 
L 374.037625 -78.734943 
L 373.866256 -81.603434 
L 373.672702 -84.471924 
L 373.449015 -87.340414 
L 373.191052 -90.208905 
L 372.898289 -93.077395 
L 372.571997 -95.945885 
L 372.212252 -98.814375 
L 371.814852 -101.682866 
L 371.369466 -104.551356 
L 370.860085 -107.419846 
L 370.268109 -110.288337 
L 369.577345 -113.156827 
L 368.779353 -116.025317 
L 367.877249 -118.893807 
L 366.886504 -121.762298 
L 365.832298 -124.630788 
L 364.744237 -127.499278 
L 363.650123 -130.367769 
L 362.570802 -133.236259 
L 361.517656 -136.104749 
L 360.493379 -138.973239 
L 359.495553 -141.84173 
L 358.521646 -144.71022 
L 357.573559 -147.57871 
L 356.660025 -150.4472 
L 355.795772 -153.315691 
L 354.997501 -156.184181 
L 354.277852 -159.052671 
L 353.639385 -161.921162 
L 353.070869 -164.789652 
L 352.54753 -167.658142 
L 352.035752 -170.526632 
L 351.501262 -173.395123 
L 350.918683 -176.263613 
L 350.279995 -179.132103 
L 349.599768 -182.000594 
L 348.915988 -184.869084 
L 348.286297 -187.737574 
L 347.780286 -190.606064 
L 347.468987 -193.474555 
L 347.413138 -196.343045 
L 347.652128 -199.211535 
L 348.19581 -202.080026 
L 349.021131 -204.948516 
L 350.074729 -207.817006 
L 351.281214 -210.685496 
L 352.555407 -213.553987 
L 353.815871 -216.422477 
L 354.996999 -219.290967 
L 356.057557 -222.159457 
L 356.984536 -225.027948 
L 357.79206 -227.896438 
L 358.515731 -230.764928 
L 359.20349 -233.633419 
L 359.904684 -236.501909 
L 360.659583 -239.370399 
L 361.491663 -242.238889 
L 362.404372 -245.10738 
L 363.38287 -247.97587 
L 364.39987 -250.84436 
L 365.423622 -253.712851 
L 366.425667 -256.581341 
L 367.386298 -259.449831 
L 368.296506 -262.318321 
L 369.156295 -265.186812 
L 369.970403 -268.055302 
L 370.74318 -270.923792 
L 371.47459 -273.792283 
L 372.158764 -276.660773 
L 372.785471 -279.529263 
L 373.343708 -282.397753 
L 373.82581 -285.266244 
L 374.230444 -288.134734 
L 374.563402 -291.003224 
L 374.836144 -293.871715 
L 375.062828 -296.740205 
L 375.257062 -299.608695 
L 375.429466 -302.477185 
L 375.586676 -305.345676 
L 375.731742 -308.214166 
L 375.865433 -311.082656 
L 375.987706 -313.951146 
L 376.098748 -316.819637 
L 376.199307 -319.688127 
L 376.290435 -322.556617 
L 377.169715 -322.556617 
L 377.169715 -322.556617 
L 377.260843 -319.688127 
L 377.361402 -316.819637 
L 377.472444 -313.951146 
L 377.594717 -311.082656 
L 377.728408 -308.214166 
L 377.873474 -305.345676 
L 378.030684 -302.477185 
L 378.203088 -299.608695 
L 378.397322 -296.740205 
L 378.624006 -293.871715 
L 378.896748 -291.003224 
L 379.229706 -288.134734 
L 379.63434 -285.266244 
L 380.116442 -282.397753 
L 380.674679 -279.529263 
L 381.301386 -276.660773 
L 381.98556 -273.792283 
L 382.71697 -270.923792 
L 383.489747 -268.055302 
L 384.303855 -265.186812 
L 385.163644 -262.318321 
L 386.073852 -259.449831 
L 387.034483 -256.581341 
L 388.036528 -253.712851 
L 389.06028 -250.84436 
L 390.07728 -247.97587 
L 391.055778 -245.10738 
L 391.968487 -242.238889 
L 392.800567 -239.370399 
L 393.555466 -236.501909 
L 394.25666 -233.633419 
L 394.944419 -230.764928 
L 395.66809 -227.896438 
L 396.475614 -225.027948 
L 397.402593 -222.159457 
L 398.463151 -219.290967 
L 399.644279 -216.422477 
L 400.904743 -213.553987 
L 402.178936 -210.685496 
L 403.385421 -207.817006 
L 404.439019 -204.948516 
L 405.26434 -202.080026 
L 405.808022 -199.211535 
L 406.047012 -196.343045 
L 405.991163 -193.474555 
L 405.679864 -190.606064 
L 405.173853 -187.737574 
L 404.544162 -184.869084 
L 403.860382 -182.000594 
L 403.180155 -179.132103 
L 402.541467 -176.263613 
L 401.958888 -173.395123 
L 401.424398 -170.526632 
L 400.91262 -167.658142 
L 400.389281 -164.789652 
L 399.820765 -161.921162 
L 399.182298 -159.052671 
L 398.462649 -156.184181 
L 397.664378 -153.315691 
L 396.800125 -150.4472 
L 395.886591 -147.57871 
L 394.938504 -144.71022 
L 393.964597 -141.84173 
L 392.966771 -138.973239 
L 391.942494 -136.104749 
L 390.889348 -133.236259 
L 389.810027 -130.367769 
L 388.715913 -127.499278 
L 387.627852 -124.630788 
L 386.573646 -121.762298 
L 385.582901 -118.893807 
L 384.680797 -116.025317 
L 383.882805 -113.156827 
L 383.192041 -110.288337 
L 382.600065 -107.419846 
L 382.090684 -104.551356 
L 381.645298 -101.682866 
L 381.247898 -98.814375 
L 380.888153 -95.945885 
L 380.561861 -93.077395 
L 380.269098 -90.208905 
L 380.011135 -87.340414 
L 379.787448 -84.471924 
L 379.593894 -81.603434 
L 379.422525 -78.734943 
L 379.262885 -75.866453 
L 379.104162 -72.997963 
L 378.937418 -70.129473 
L 378.757244 -67.260982 
L 378.562484 -64.392492 
L 378.356026 -61.524002 
L 378.143868 -58.655512 
L 377.933763 -55.787021 
L 377.733749 -52.918531 
L 377.550798 -50.050041 
L 377.389793 -47.18155 
L 377.253003 -44.31306 
L 377.140131 -41.44457 
L 377.048892 -38.57608 
z
" id="m8c79785675" style="stroke:#353535;stroke-width:2;"/>
    </defs>
    <g clip-path="url(#pf022e3a2cb)">
     <use style="fill:#53b075;stroke:#353535;stroke-width:2;" x="0" xlink:href="#m8c79785675" y="393.186675"/>
    </g>
   </g>
   <g id="PolyCollection_5">
    <defs>
     <path d="M 472.531919 -42.752264 
L 472.242516 -42.752264 
L 472.232262 -45.536387 
L 472.218984 -48.32051 
L 472.196172 -51.104633 
L 472.15558 -53.888756 
L 472.088156 -56.672879 
L 471.985191 -59.457001 
L 471.839459 -62.241124 
L 471.646169 -65.025247 
L 471.403545 -67.80937 
L 471.112929 -70.593493 
L 470.778323 -73.377616 
L 470.405407 -76.161739 
L 470.00017 -78.945862 
L 469.567429 -81.729985 
L 469.10964 -84.514108 
L 468.626472 -87.298231 
L 468.115473 -90.082354 
L 467.573898 -92.866476 
L 467.001237 -95.650599 
L 466.401526 -98.434722 
L 465.78427 -101.218845 
L 465.163073 -104.002968 
L 464.551856 -106.787091 
L 463.959646 -109.571214 
L 463.385794 -112.355337 
L 462.817615 -115.13946 
L 462.231707 -117.923583 
L 461.598828 -120.707706 
L 460.890878 -123.491829 
L 460.087929 -126.275952 
L 459.183454 -129.060074 
L 458.186816 -131.844197 
L 457.122901 -134.62832 
L 456.029187 -137.412443 
L 454.950534 -140.196566 
L 453.931919 -142.980689 
L 453.009752 -145.764812 
L 452.203322 -148.548935 
L 451.508792 -151.333058 
L 450.898341 -154.117181 
L 450.325864 -156.901304 
L 449.738477 -159.685427 
L 449.09064 -162.469549 
L 448.356394 -165.253672 
L 447.535709 -168.037795 
L 446.65311 -170.821918 
L 445.749783 -173.606041 
L 444.872787 -176.390164 
L 444.065789 -179.174287 
L 443.364601 -181.95841 
L 442.798297 -184.742533 
L 442.393869 -187.526656 
L 442.180685 -190.310779 
L 442.191055 -193.094902 
L 442.455195 -195.879024 
L 442.991805 -198.663147 
L 443.798012 -201.44727 
L 444.84326 -204.231393 
L 446.070392 -207.015516 
L 447.404331 -209.799639 
L 448.765753 -212.583762 
L 450.085382 -215.367885 
L 451.314705 -218.152008 
L 452.430596 -220.936131 
L 453.43369 -223.720254 
L 454.342238 -226.504377 
L 455.184042 -229.2885 
L 455.988914 -232.072622 
L 456.783166 -234.856745 
L 457.586484 -237.640868 
L 458.410636 -240.424991 
L 459.259116 -243.209114 
L 460.127222 -245.993237 
L 461.002695 -248.77736 
L 461.867566 -251.561483 
L 462.7016 -254.345606 
L 463.48694 -257.129729 
L 464.212619 -259.913852 
L 464.87724 -262.697975 
L 465.488725 -265.482097 
L 466.061218 -268.26622 
L 466.610358 -271.050343 
L 467.148697 -273.834466 
L 467.682675 -276.618589 
L 468.211779 -279.402712 
L 468.729627 -282.186835 
L 469.22627 -284.970958 
L 469.690861 -287.755081 
L 470.114045 -290.539204 
L 470.489628 -293.323327 
L 470.815303 -296.10745 
L 471.092429 -298.891573 
L 471.325089 -301.675695 
L 471.51881 -304.459818 
L 471.679417 -307.243941 
L 471.81229 -310.028064 
L 471.922107 -312.812187 
L 472.012883 -315.59631 
L 472.088085 -318.380433 
L 472.68635 -318.380433 
L 472.68635 -318.380433 
L 472.761553 -315.59631 
L 472.852329 -312.812187 
L 472.962146 -310.028064 
L 473.095019 -307.243941 
L 473.255625 -304.459818 
L 473.449347 -301.675695 
L 473.682006 -298.891573 
L 473.959133 -296.10745 
L 474.284808 -293.323327 
L 474.660391 -290.539204 
L 475.083575 -287.755081 
L 475.548166 -284.970958 
L 476.044809 -282.186835 
L 476.562657 -279.402712 
L 477.09176 -276.618589 
L 477.625739 -273.834466 
L 478.164077 -271.050343 
L 478.713218 -268.26622 
L 479.28571 -265.482097 
L 479.897196 -262.697975 
L 480.561816 -259.913852 
L 481.287496 -257.129729 
L 482.072836 -254.345606 
L 482.906869 -251.561483 
L 483.77174 -248.77736 
L 484.647214 -245.993237 
L 485.51532 -243.209114 
L 486.3638 -240.424991 
L 487.187951 -237.640868 
L 487.99127 -234.856745 
L 488.785521 -232.072622 
L 489.590394 -229.2885 
L 490.432198 -226.504377 
L 491.340746 -223.720254 
L 492.34384 -220.936131 
L 493.45973 -218.152008 
L 494.689053 -215.367885 
L 496.008683 -212.583762 
L 497.370104 -209.799639 
L 498.704044 -207.015516 
L 499.931175 -204.231393 
L 500.976424 -201.44727 
L 501.782631 -198.663147 
L 502.319241 -195.879024 
L 502.58338 -193.094902 
L 502.59375 -190.310779 
L 502.380566 -187.526656 
L 501.976139 -184.742533 
L 501.409834 -181.95841 
L 500.708647 -179.174287 
L 499.901648 -176.390164 
L 499.024653 -173.606041 
L 498.121326 -170.821918 
L 497.238727 -168.037795 
L 496.418042 -165.253672 
L 495.683796 -162.469549 
L 495.035958 -159.685427 
L 494.448572 -156.901304 
L 493.876095 -154.117181 
L 493.265643 -151.333058 
L 492.571114 -148.548935 
L 491.764684 -145.764812 
L 490.842517 -142.980689 
L 489.823901 -140.196566 
L 488.745248 -137.412443 
L 487.651535 -134.62832 
L 486.58762 -131.844197 
L 485.590982 -129.060074 
L 484.686507 -126.275952 
L 483.883557 -123.491829 
L 483.175608 -120.707706 
L 482.542728 -117.923583 
L 481.956821 -115.13946 
L 481.388641 -112.355337 
L 480.81479 -109.571214 
L 480.22258 -106.787091 
L 479.611363 -104.002968 
L 478.990166 -101.218845 
L 478.37291 -98.434722 
L 477.773199 -95.650599 
L 477.200538 -92.866476 
L 476.658963 -90.082354 
L 476.147964 -87.298231 
L 475.664795 -84.514108 
L 475.207007 -81.729985 
L 474.774266 -78.945862 
L 474.369029 -76.161739 
L 473.996113 -73.377616 
L 473.661506 -70.593493 
L 473.370891 -67.80937 
L 473.128267 -65.025247 
L 472.934976 -62.241124 
L 472.789244 -59.457001 
L 472.686279 -56.672879 
L 472.618856 -53.888756 
L 472.578263 -51.104633 
L 472.555452 -48.32051 
L 472.542174 -45.536387 
L 472.531919 -42.752264 
z
" id="md994e18f15" style="stroke:#353535;stroke-width:2;"/>
    </defs>
    <g clip-path="url(#pf022e3a2cb)">
     <use style="fill:#80c161;stroke:#353535;stroke-width:2;" x="0" xlink:href="#md994e18f15" y="393.186675"/>
    </g>
   </g>
   <g id="PolyCollection_6">
    <defs>
     <path d="M 568.567177 -51.104633 
L 567.521545 -51.104633 
L 567.360304 -53.340368 
L 567.153891 -55.576103 
L 566.89183 -57.811838 
L 566.564332 -60.047573 
L 566.163901 -62.283308 
L 565.686766 -64.519043 
L 565.133807 -66.754778 
L 564.51075 -68.990513 
L 563.827639 -71.226248 
L 563.097775 -73.461983 
L 562.336339 -75.697718 
L 561.558842 -77.933454 
L 560.779399 -80.169189 
L 560.008746 -82.404924 
L 559.252068 -84.640659 
L 558.507021 -86.876394 
L 557.762714 -89.112129 
L 557.000518 -91.347864 
L 556.197245 -93.583599 
L 555.330409 -95.819334 
L 554.384351 -98.055069 
L 553.355315 -100.290804 
L 552.253662 -102.526539 
L 551.102214 -104.762274 
L 549.931084 -106.998009 
L 548.770625 -109.233745 
L 547.64484 -111.46948 
L 546.567424 -113.705215 
L 545.541701 -115.94095 
L 544.564329 -118.176685 
L 543.631367 -120.41242 
L 542.74443 -122.648155 
L 541.914624 -124.88389 
L 541.162628 -127.119625 
L 540.514482 -129.35536 
L 539.994013 -131.591095 
L 539.613854 -133.82683 
L 539.36756 -136.062565 
L 539.225226 -138.2983 
L 539.134399 -140.534036 
L 539.026979 -142.769771 
L 538.831373 -145.005506 
L 538.487611 -147.241241 
L 537.961875 -149.476976 
L 537.25655 -151.712711 
L 536.412757 -153.948446 
L 535.504458 -156.184181 
L 534.625755 -158.419916 
L 533.87502 -160.655651 
L 533.340056 -162.891386 
L 533.087431 -165.127121 
L 533.157108 -167.362856 
L 533.561637 -169.598591 
L 534.288265 -171.834327 
L 535.302595 -174.070062 
L 536.553251 -176.305797 
L 537.977694 -178.541532 
L 539.509222 -180.777267 
L 541.084594 -183.013002 
L 542.650998 -185.248737 
L 544.170903 -187.484472 
L 545.623861 -189.720207 
L 547.005185 -191.955942 
L 548.322333 -194.191677 
L 549.590089 -196.427412 
L 550.825595 -198.663147 
L 552.043815 -200.898882 
L 553.253833 -203.134618 
L 554.456323 -205.370353 
L 555.642715 -207.606088 
L 556.796529 -209.841823 
L 557.896932 -212.077558 
L 558.923809 -214.313293 
L 559.862921 -216.549028 
L 560.709441 -218.784763 
L 561.468642 -221.020498 
L 562.153542 -223.256233 
L 562.780424 -225.491968 
L 563.363877 -227.727703 
L 563.912991 -229.963438 
L 564.429776 -232.199173 
L 564.90999 -234.434909 
L 565.345813 -236.670644 
L 565.729337 -238.906379 
L 566.05577 -241.142114 
L 566.325451 -243.377849 
L 566.544218 -245.613584 
L 566.722154 -247.849319 
L 566.871212 -250.085054 
L 567.002528 -252.320789 
L 567.124239 -254.556524 
L 567.240421 -256.792259 
L 567.351323 -259.027994 
L 567.454662 -261.263729 
L 567.547394 -263.499464 
L 567.627327 -265.7352 
L 567.694052 -267.970935 
L 567.749015 -270.20667 
L 567.794874 -272.442405 
L 568.293848 -272.442405 
L 568.293848 -272.442405 
L 568.339706 -270.20667 
L 568.39467 -267.970935 
L 568.461395 -265.7352 
L 568.541328 -263.499464 
L 568.63406 -261.263729 
L 568.737398 -259.027994 
L 568.848301 -256.792259 
L 568.964482 -254.556524 
L 569.086193 -252.320789 
L 569.217509 -250.085054 
L 569.366567 -247.849319 
L 569.544503 -245.613584 
L 569.763271 -243.377849 
L 570.032952 -241.142114 
L 570.359384 -238.906379 
L 570.742909 -236.670644 
L 571.178732 -234.434909 
L 571.658946 -232.199173 
L 572.17573 -229.963438 
L 572.724844 -227.727703 
L 573.308297 -225.491968 
L 573.935179 -223.256233 
L 574.620079 -221.020498 
L 575.37928 -218.784763 
L 576.2258 -216.549028 
L 577.164912 -214.313293 
L 578.191789 -212.077558 
L 579.292192 -209.841823 
L 580.446007 -207.606088 
L 581.632399 -205.370353 
L 582.834888 -203.134618 
L 584.044906 -200.898882 
L 585.263127 -198.663147 
L 586.498632 -196.427412 
L 587.766389 -194.191677 
L 589.083536 -191.955942 
L 590.464861 -189.720207 
L 591.917818 -187.484472 
L 593.437724 -185.248737 
L 595.004127 -183.013002 
L 596.579499 -180.777267 
L 598.111027 -178.541532 
L 599.53547 -176.305797 
L 600.786127 -174.070062 
L 601.800456 -171.834327 
L 602.527085 -169.598591 
L 602.931613 -167.362856 
L 603.00129 -165.127121 
L 602.748665 -162.891386 
L 602.213702 -160.655651 
L 601.462966 -158.419916 
L 600.584263 -156.184181 
L 599.675965 -153.948446 
L 598.832171 -151.712711 
L 598.126846 -149.476976 
L 597.601111 -147.241241 
L 597.257348 -145.005506 
L 597.061743 -142.769771 
L 596.954322 -140.534036 
L 596.863495 -138.2983 
L 596.721161 -136.062565 
L 596.474868 -133.82683 
L 596.094709 -131.591095 
L 595.574239 -129.35536 
L 594.926093 -127.119625 
L 594.174097 -124.88389 
L 593.344292 -122.648155 
L 592.457354 -120.41242 
L 591.524392 -118.176685 
L 590.547021 -115.94095 
L 589.521297 -113.705215 
L 588.443881 -111.46948 
L 587.318097 -109.233745 
L 586.157638 -106.998009 
L 584.986507 -104.762274 
L 583.835059 -102.526539 
L 582.733407 -100.290804 
L 581.704371 -98.055069 
L 580.758312 -95.819334 
L 579.891477 -93.583599 
L 579.088203 -91.347864 
L 578.326008 -89.112129 
L 577.5817 -86.876394 
L 576.836654 -84.640659 
L 576.079976 -82.404924 
L 575.309323 -80.169189 
L 574.529879 -77.933454 
L 573.752382 -75.697718 
L 572.990947 -73.461983 
L 572.261083 -71.226248 
L 571.577971 -68.990513 
L 570.954914 -66.754778 
L 570.401956 -64.519043 
L 569.924821 -62.283308 
L 569.524389 -60.047573 
L 569.196891 -57.811838 
L 568.934831 -55.576103 
L 568.728417 -53.340368 
L 568.567177 -51.104633 
z
" id="m0bcb8b9aba" style="stroke:#353535;stroke-width:2;"/>
    </defs>
    <g clip-path="url(#pf022e3a2cb)">
     <use style="fill:#aec83d;stroke:#353535;stroke-width:2;" x="0" xlink:href="#m0bcb8b9aba" y="393.186675"/>
    </g>
   </g>
   <g id="PolyCollection_7">
    <defs>
     <path d="M 664.070764 -38.57608 
L 663.332243 -38.57608 
L 663.218239 -40.558713 
L 663.057167 -42.541346 
L 662.830076 -44.523979 
L 662.516788 -46.506611 
L 662.098773 -48.489244 
L 661.562567 -50.471877 
L 660.903156 -52.45451 
L 660.126568 -54.437143 
L 659.250765 -56.419776 
L 658.304045 -58.402409 
L 657.320671 -60.385042 
L 656.33433 -62.367675 
L 655.371023 -64.350308 
L 654.44358 -66.332941 
L 653.549775 -68.315574 
L 652.67492 -70.298207 
L 651.798109 -72.28084 
L 650.899829 -74.263473 
L 649.968026 -76.246106 
L 649.000346 -78.228739 
L 648.001908 -80.211372 
L 646.979836 -82.194005 
L 645.937097 -84.176638 
L 644.8684 -86.159271 
L 643.759963 -88.141904 
L 642.593377 -90.124537 
L 641.352251 -92.10717 
L 640.02932 -94.089803 
L 638.631581 -96.072436 
L 637.181674 -98.055069 
L 635.714929 -100.037702 
L 634.272894 -102.020335 
L 632.895334 -104.002968 
L 631.613198 -105.985601 
L 630.444773 -107.968234 
L 629.396091 -109.950867 
L 628.465121 -111.9335 
L 627.647868 -113.916133 
L 626.943877 -115.898766 
L 626.359024 -117.881399 
L 625.904761 -119.864032 
L 625.594467 -121.846665 
L 625.438646 -123.829298 
L 625.440842 -125.811931 
L 625.595447 -127.794564 
L 625.887569 -129.777197 
L 626.294352 -131.75983 
L 626.787129 -133.742463 
L 627.334241 -135.725096 
L 627.90482 -137.707729 
L 628.473741 -139.690362 
L 629.027069 -141.672995 
L 629.566296 -143.655628 
L 630.109229 -145.638261 
L 630.686196 -147.620894 
L 631.332146 -149.603527 
L 632.077283 -151.58616 
L 632.939814 -153.568793 
L 633.923606 -155.551426 
L 635.021229 -157.534059 
L 636.220391 -159.516692 
L 637.510319 -161.499325 
L 638.885076 -163.481958 
L 640.342571 -165.464591 
L 641.880248 -167.447224 
L 643.489834 -169.429857 
L 645.153658 -171.41249 
L 646.844116 -173.395123 
L 648.526458 -175.377756 
L 650.163876 -177.360389 
L 651.723207 -179.343022 
L 653.179531 -181.325655 
L 654.518419 -183.308288 
L 655.735431 -185.290921 
L 656.833357 -187.273554 
L 657.818397 -189.256187 
L 658.696685 -191.23882 
L 659.472215 -193.221453 
L 660.146564 -195.204086 
L 660.720061 -197.186719 
L 661.193672 -199.169352 
L 661.570798 -201.151985 
L 661.85842 -203.134618 
L 662.06733 -205.117251 
L 662.211453 -207.099884 
L 662.306458 -209.082517 
L 662.367979 -211.06515 
L 662.40989 -213.047782 
L 662.443054 -215.030415 
L 662.474845 -217.013048 
L 662.509487 -218.995681 
L 662.548966 -220.978314 
L 662.594135 -222.960947 
L 662.645609 -224.94358 
L 662.704224 -226.926213 
L 662.771015 -228.908846 
L 662.846833 -230.891479 
L 662.931794 -232.874112 
L 663.024795 -234.856745 
L 664.378212 -234.856745 
L 664.378212 -234.856745 
L 664.471213 -232.874112 
L 664.556174 -230.891479 
L 664.631992 -228.908846 
L 664.698783 -226.926213 
L 664.757398 -224.94358 
L 664.808872 -222.960947 
L 664.854041 -220.978314 
L 664.89352 -218.995681 
L 664.928162 -217.013048 
L 664.959954 -215.030415 
L 664.993117 -213.047782 
L 665.035028 -211.06515 
L 665.096549 -209.082517 
L 665.191554 -207.099884 
L 665.335677 -205.117251 
L 665.544587 -203.134618 
L 665.832209 -201.151985 
L 666.209335 -199.169352 
L 666.682946 -197.186719 
L 667.256443 -195.204086 
L 667.930792 -193.221453 
L 668.706323 -191.23882 
L 669.58461 -189.256187 
L 670.56965 -187.273554 
L 671.667576 -185.290921 
L 672.884588 -183.308288 
L 674.223476 -181.325655 
L 675.6798 -179.343022 
L 677.239132 -177.360389 
L 678.87655 -175.377756 
L 680.558891 -173.395123 
L 682.249349 -171.41249 
L 683.913173 -169.429857 
L 685.522759 -167.447224 
L 687.060436 -165.464591 
L 688.517931 -163.481958 
L 689.892688 -161.499325 
L 691.182617 -159.516692 
L 692.381778 -157.534059 
L 693.479401 -155.551426 
L 694.463193 -153.568793 
L 695.325724 -151.58616 
L 696.070861 -149.603527 
L 696.716812 -147.620894 
L 697.293779 -145.638261 
L 697.836712 -143.655628 
L 698.375938 -141.672995 
L 698.929266 -139.690362 
L 699.498187 -137.707729 
L 700.068767 -135.725096 
L 700.615878 -133.742463 
L 701.108655 -131.75983 
L 701.515438 -129.777197 
L 701.80756 -127.794564 
L 701.962165 -125.811931 
L 701.964361 -123.829298 
L 701.80854 -121.846665 
L 701.498246 -119.864032 
L 701.043983 -117.881399 
L 700.45913 -115.898766 
L 699.755139 -113.916133 
L 698.937887 -111.9335 
L 698.006916 -109.950867 
L 696.958234 -107.968234 
L 695.789809 -105.985601 
L 694.507673 -104.002968 
L 693.130113 -102.020335 
L 691.688079 -100.037702 
L 690.221333 -98.055069 
L 688.771426 -96.072436 
L 687.373687 -94.089803 
L 686.050756 -92.10717 
L 684.80963 -90.124537 
L 683.643044 -88.141904 
L 682.534607 -86.159271 
L 681.46591 -84.176638 
L 680.423171 -82.194005 
L 679.401099 -80.211372 
L 678.402661 -78.228739 
L 677.434981 -76.246106 
L 676.503178 -74.263473 
L 675.604898 -72.28084 
L 674.728087 -70.298207 
L 673.853232 -68.315574 
L 672.959427 -66.332941 
L 672.031984 -64.350308 
L 671.068677 -62.367675 
L 670.082336 -60.385042 
L 669.098962 -58.402409 
L 668.152242 -56.419776 
L 667.276439 -54.437143 
L 666.499851 -52.45451 
L 665.84044 -50.471877 
L 665.304234 -48.489244 
L 664.886219 -46.506611 
L 664.572931 -44.523979 
L 664.34584 -42.541346 
L 664.184768 -40.558713 
L 664.070764 -38.57608 
z
" id="mca47bb4266" style="stroke:#353535;stroke-width:2;"/>
    </defs>
    <g clip-path="url(#pf022e3a2cb)">
     <use style="fill:#e2d240;stroke:#353535;stroke-width:2;" x="0" xlink:href="#mca47bb4266" y="393.186675"/>
    </g>
   </g>
   <g id="line2d_15">
    <path clip-path="url(#pf022e3a2cb)" d="M 67.724051 246.029802 
L 111.793242 246.029802 
" style="fill:none;stroke:#353535;stroke-dasharray:6,6;stroke-dashoffset:0;stroke-width:2;"/>
   </g>
   <g id="line2d_16">
    <path clip-path="url(#pf022e3a2cb)" d="M 59.415296 216.796511 
L 120.101997 216.796511 
" style="fill:none;stroke:#353535;stroke-dasharray:12,12;stroke-dashoffset:0;stroke-width:2;"/>
   </g>
   <g id="line2d_17">
    <path clip-path="url(#pf022e3a2cb)" d="M 64.248771 187.56322 
L 115.268522 187.56322 
" style="fill:none;stroke:#353535;stroke-dasharray:6,6;stroke-dashoffset:0;stroke-width:2;"/>
   </g>
   <g id="line2d_18">
    <path clip-path="url(#pf022e3a2cb)" d="M 163.613931 233.501248 
L 207.217648 233.501248 
" style="fill:none;stroke:#353535;stroke-dasharray:6,6;stroke-dashoffset:0;stroke-width:2;"/>
   </g>
   <g id="line2d_19">
    <path clip-path="url(#pf022e3a2cb)" d="M 157.30856 204.267958 
L 213.523019 204.267958 
" style="fill:none;stroke:#353535;stroke-dasharray:12,12;stroke-dashoffset:0;stroke-width:2;"/>
   </g>
   <g id="line2d_20">
    <path clip-path="url(#pf022e3a2cb)" d="M 160.442679 175.034667 
L 210.3889 175.034667 
" style="fill:none;stroke:#353535;stroke-dasharray:6,6;stroke-dashoffset:0;stroke-width:2;"/>
   </g>
   <g id="line2d_21">
    <path clip-path="url(#pf022e3a2cb)" d="M 259.14994 233.501248 
L 302.995924 233.501248 
" style="fill:none;stroke:#353535;stroke-dasharray:6,6;stroke-dashoffset:0;stroke-width:2;"/>
   </g>
   <g id="line2d_22">
    <path clip-path="url(#pf022e3a2cb)" d="M 252.412887 200.091773 
L 309.732977 200.091773 
" style="fill:none;stroke:#353535;stroke-dasharray:12,12;stroke-dashoffset:0;stroke-width:2;"/>
   </g>
   <g id="line2d_23">
    <path clip-path="url(#pf022e3a2cb)" d="M 255.767936 172.946575 
L 306.377929 172.946575 
" style="fill:none;stroke:#353535;stroke-dasharray:6,6;stroke-dashoffset:0;stroke-width:2;"/>
   </g>
   <g id="line2d_24">
    <path clip-path="url(#pf022e3a2cb)" d="M 355.214827 237.677433 
L 398.245323 237.677433 
" style="fill:none;stroke:#353535;stroke-dasharray:6,6;stroke-dashoffset:0;stroke-width:2;"/>
   </g>
   <g id="line2d_25">
    <path clip-path="url(#pf022e3a2cb)" d="M 348.570735 204.267958 
L 404.889415 204.267958 
" style="fill:none;stroke:#353535;stroke-dasharray:12,12;stroke-dashoffset:0;stroke-width:2;"/>
   </g>
   <g id="line2d_26">
    <path clip-path="url(#pf022e3a2cb)" d="M 355.21433 175.034667 
L 398.24582 175.034667 
" style="fill:none;stroke:#353535;stroke-dasharray:6,6;stroke-dashoffset:0;stroke-width:2;"/>
   </g>
   <g id="line2d_27">
    <path clip-path="url(#pf022e3a2cb)" d="M 450.546477 237.677433 
L 494.227959 237.677433 
" style="fill:none;stroke:#353535;stroke-dasharray:6,6;stroke-dashoffset:0;stroke-width:2;"/>
   </g>
   <g id="line2d_28">
    <path clip-path="url(#pf022e3a2cb)" d="M 443.094186 208.444142 
L 501.680249 208.444142 
" style="fill:none;stroke:#353535;stroke-dasharray:12,12;stroke-dashoffset:0;stroke-width:2;"/>
   </g>
   <g id="line2d_29">
    <path clip-path="url(#pf022e3a2cb)" d="M 450.308401 179.210852 
L 494.466035 179.210852 
" style="fill:none;stroke:#353535;stroke-dasharray:6,6;stroke-dashoffset:0;stroke-width:2;"/>
   </g>
   <g id="line2d_30">
    <path clip-path="url(#pf022e3a2cb)" d="M 541.431446 266.910723 
L 594.657276 266.910723 
" style="fill:none;stroke:#353535;stroke-dasharray:6,6;stroke-dashoffset:0;stroke-width:2;"/>
   </g>
   <g id="line2d_31">
    <path clip-path="url(#pf022e3a2cb)" d="M 535.829857 237.677433 
L 600.258864 237.677433 
" style="fill:none;stroke:#353535;stroke-dasharray:12,12;stroke-dashoffset:0;stroke-width:2;"/>
   </g>
   <g id="line2d_32">
    <path clip-path="url(#pf022e3a2cb)" d="M 536.868162 216.796511 
L 599.220559 216.796511 
" style="fill:none;stroke:#353535;stroke-dasharray:6,6;stroke-dashoffset:0;stroke-width:2;"/>
   </g>
   <g id="line2d_33">
    <path clip-path="url(#pf022e3a2cb)" d="M 631.934081 287.791645 
L 695.468926 287.791645 
" style="fill:none;stroke:#353535;stroke-dasharray:6,6;stroke-dashoffset:0;stroke-width:2;"/>
   </g>
   <g id="line2d_34">
    <path clip-path="url(#pf022e3a2cb)" d="M 625.823449 266.910723 
L 701.579559 266.910723 
" style="fill:none;stroke:#353535;stroke-dasharray:12,12;stroke-dashoffset:0;stroke-width:2;"/>
   </g>
   <g id="line2d_35">
    <path clip-path="url(#pf022e3a2cb)" d="M 632.393525 241.853617 
L 695.009482 241.853617 
" style="fill:none;stroke:#353535;stroke-dasharray:6,6;stroke-dashoffset:0;stroke-width:2;"/>
   </g>
   <g id="patch_3">
    <path d="M 41.930075 369.43605 
L 41.930075 43.27605 
" style="fill:none;stroke:#262626;stroke-linecap:square;stroke-linejoin:miter;stroke-width:1.25;"/>
   </g>
   <g id="patch_4">
    <path d="M 711.530075 369.43605 
L 711.530075 43.27605 
" style="fill:none;stroke:#262626;stroke-linecap:square;stroke-linejoin:miter;stroke-width:1.25;"/>
   </g>
   <g id="patch_5">
    <path d="M 41.930075 369.43605 
L 711.530075 369.43605 
" style="fill:none;stroke:#262626;stroke-linecap:square;stroke-linejoin:miter;stroke-width:1.25;"/>
   </g>
   <g id="patch_6">
    <path d="M 41.930075 43.27605 
L 711.530075 43.27605 
" style="fill:none;stroke:#262626;stroke-linecap:square;stroke-linejoin:miter;stroke-width:1.25;"/>
   </g>
   <g id="text_16">
    <!-- Bicycle Accidents -->
    <defs>
     <path d="M 61.421875 19.390625 
Q 61.421875 10.203125 54.734375 5.09375 
Q 48.046875 0 36.140625 0 
L 8.203125 0 
L 8.203125 68.796875 
L 33.203125 68.796875 
Q 57.421875 68.796875 57.421875 52.09375 
Q 57.421875 46 54 41.84375 
Q 50.59375 37.703125 44.34375 36.28125 
Q 52.546875 35.296875 56.984375 30.78125 
Q 61.421875 26.265625 61.421875 19.390625 
z
M 48.046875 50.984375 
Q 48.046875 56.546875 44.234375 58.9375 
Q 40.4375 61.328125 33.203125 61.328125 
L 17.53125 61.328125 
L 17.53125 39.546875 
L 33.203125 39.546875 
Q 40.671875 39.546875 44.359375 42.359375 
Q 48.046875 45.171875 48.046875 50.984375 
z
M 52 20.125 
Q 52 32.28125 34.90625 32.28125 
L 17.53125 32.28125 
L 17.53125 7.46875 
L 35.640625 7.46875 
Q 44.1875 7.46875 48.09375 10.640625 
Q 52 13.8125 52 20.125 
z
" id="LiberationSans-66"/>
     <path d="M 6.734375 0 
L 6.734375 72.46875 
L 15.53125 72.46875 
L 15.53125 0 
z
" id="LiberationSans-108"/>
     <path id="LiberationSans-32"/>
    </defs>
    <g style="fill:#262626;" transform="translate(267.812262 27.49125)scale(0.28 -0.28)">
     <use xlink:href="#LiberationSans-66"/>
     <use x="66.699219" xlink:href="#LiberationSans-105"/>
     <use x="88.916016" xlink:href="#LiberationSans-99"/>
     <use x="138.916016" xlink:href="#LiberationSans-121"/>
     <use x="188.916016" xlink:href="#LiberationSans-99"/>
     <use x="238.916016" xlink:href="#LiberationSans-108"/>
     <use x="261.132812" xlink:href="#LiberationSans-101"/>
     <use x="316.748047" xlink:href="#LiberationSans-32"/>
     <use x="344.453125" xlink:href="#LiberationSans-65"/>
     <use x="411.152344" xlink:href="#LiberationSans-99"/>
     <use x="461.152344" xlink:href="#LiberationSans-99"/>
     <use x="511.152344" xlink:href="#LiberationSans-105"/>
     <use x="533.369141" xlink:href="#LiberationSans-100"/>
     <use x="588.984375" xlink:href="#LiberationSans-101"/>
     <use x="644.599609" xlink:href="#LiberationSans-110"/>
     <use x="700.214844" xlink:href="#LiberationSans-116"/>
     <use x="727.998047" xlink:href="#LiberationSans-115"/>
    </g>
   </g>
  </g>
 </g>
 <defs>
  <clipPath id="pf022e3a2cb">
   <rect height="326.16" width="669.6" x="41.930075" y="43.27605"/>
  </clipPath>
 </defs>
</svg>
