<?xml version="1.0" encoding="utf-8" standalone="no"?>
<!DOCTYPE svg PUBLIC "-//W3C//DTD SVG 1.1//EN"
  "http://www.w3.org/Graphics/SVG/1.1/DTD/svg11.dtd">
<!-- Created with matplotlib (https://matplotlib.org/) -->
<svg height="392.931362pt" version="1.1" viewBox="0 0 723.985912 392.931362" width="723.985912pt" xmlns="http://www.w3.org/2000/svg" xmlns:xlink="http://www.w3.org/1999/xlink">
 <defs>
  <style type="text/css">
*{stroke-linecap:butt;stroke-linejoin:round;}
  </style>
 </defs>
 <g id="figure_1">
  <g id="patch_1">
   <path d="M 0 392.931362 
L 723.985912 392.931362 
L 723.985912 0 
L 0 0 
z
" style="fill:#ffffff;"/>
  </g>
  <g id="axes_1">
   <g id="patch_2">
    <path d="M 47.185913 369.527925 
L 716.785912 369.527925 
L 716.785912 43.367925 
L 47.185913 43.367925 
z
" style="fill:#ffffff;"/>
   </g>
   <g id="matplotlib.axis_1">
    <g id="xtick_1">
     <g id="line2d_1"/>
     <g id="text_1">
      <!-- 2001 -->
      <defs>
       <path d="M 50.34375 8.453125 
L 50.34375 0 
L 3.03125 0 
Q 2.9375 3.171875 4.046875 6.109375 
Q 5.859375 10.9375 9.828125 15.625 
Q 13.8125 20.3125 21.34375 26.46875 
Q 33.015625 36.03125 37.109375 41.625 
Q 41.21875 47.21875 41.21875 52.203125 
Q 41.21875 57.421875 37.46875 61 
Q 33.734375 64.59375 27.734375 64.59375 
Q 21.390625 64.59375 17.578125 60.78125 
Q 13.765625 56.984375 13.71875 50.25 
L 4.6875 51.171875 
Q 5.609375 61.28125 11.65625 66.578125 
Q 17.71875 71.875 27.9375 71.875 
Q 38.234375 71.875 44.234375 66.15625 
Q 50.25 60.453125 50.25 52 
Q 50.25 47.703125 48.484375 43.546875 
Q 46.734375 39.40625 42.65625 34.8125 
Q 38.578125 30.21875 29.109375 22.21875 
Q 21.1875 15.578125 18.9375 13.203125 
Q 16.703125 10.84375 15.234375 8.453125 
z
" id="ArialMT-50"/>
       <path d="M 4.15625 35.296875 
Q 4.15625 48 6.765625 55.734375 
Q 9.375 63.484375 14.515625 67.671875 
Q 19.671875 71.875 27.484375 71.875 
Q 33.25 71.875 37.59375 69.546875 
Q 41.9375 67.234375 44.765625 62.859375 
Q 47.609375 58.5 49.21875 52.21875 
Q 50.828125 45.953125 50.828125 35.296875 
Q 50.828125 22.703125 48.234375 14.96875 
Q 45.65625 7.234375 40.5 3 
Q 35.359375 -1.21875 27.484375 -1.21875 
Q 17.140625 -1.21875 11.234375 6.203125 
Q 4.15625 15.140625 4.15625 35.296875 
z
M 13.1875 35.296875 
Q 13.1875 17.671875 17.3125 11.828125 
Q 21.4375 6 27.484375 6 
Q 33.546875 6 37.671875 11.859375 
Q 41.796875 17.71875 41.796875 35.296875 
Q 41.796875 52.984375 37.671875 58.78125 
Q 33.546875 64.59375 27.390625 64.59375 
Q 21.34375 64.59375 17.71875 59.46875 
Q 13.1875 52.9375 13.1875 35.296875 
z
" id="ArialMT-48"/>
       <path d="M 37.25 0 
L 28.46875 0 
L 28.46875 56 
Q 25.296875 52.984375 20.140625 49.953125 
Q 14.984375 46.921875 10.890625 45.40625 
L 10.890625 53.90625 
Q 18.265625 57.375 23.78125 62.296875 
Q 29.296875 67.234375 31.59375 71.875 
L 37.25 71.875 
z
" id="ArialMT-49"/>
      </defs>
      <g style="fill:#262626;" transform="translate(51.309405 382.948862)scale(0.14 -0.14)">
       <use xlink:href="#ArialMT-50"/>
       <use x="55.615234" xlink:href="#ArialMT-48"/>
       <use x="111.230469" xlink:href="#ArialMT-48"/>
       <use x="166.845703" xlink:href="#ArialMT-49"/>
      </g>
     </g>
    </g>
    <g id="xtick_2">
     <g id="line2d_2"/>
     <g id="text_2">
      <!-- 2003 -->
      <defs>
       <path d="M 4.203125 18.890625 
L 12.984375 20.0625 
Q 14.5 12.59375 18.140625 9.296875 
Q 21.78125 6 27 6 
Q 33.203125 6 37.46875 10.296875 
Q 41.75 14.59375 41.75 20.953125 
Q 41.75 27 37.796875 30.921875 
Q 33.84375 34.859375 27.734375 34.859375 
Q 25.25 34.859375 21.53125 33.890625 
L 22.515625 41.609375 
Q 23.390625 41.5 23.921875 41.5 
Q 29.546875 41.5 34.03125 44.421875 
Q 38.53125 47.359375 38.53125 53.46875 
Q 38.53125 58.296875 35.25 61.46875 
Q 31.984375 64.65625 26.8125 64.65625 
Q 21.6875 64.65625 18.265625 61.421875 
Q 14.84375 58.203125 13.875 51.765625 
L 5.078125 53.328125 
Q 6.6875 62.15625 12.390625 67.015625 
Q 18.109375 71.875 26.609375 71.875 
Q 32.46875 71.875 37.390625 69.359375 
Q 42.328125 66.84375 44.9375 62.5 
Q 47.5625 58.15625 47.5625 53.265625 
Q 47.5625 48.640625 45.0625 44.828125 
Q 42.578125 41.015625 37.703125 38.765625 
Q 44.046875 37.3125 47.5625 32.6875 
Q 51.078125 28.078125 51.078125 21.140625 
Q 51.078125 11.765625 44.234375 5.25 
Q 37.40625 -1.265625 26.953125 -1.265625 
Q 17.53125 -1.265625 11.296875 4.34375 
Q 5.078125 9.96875 4.203125 18.890625 
z
" id="ArialMT-51"/>
      </defs>
      <g style="fill:#262626;" transform="translate(130.085876 382.948862)scale(0.14 -0.14)">
       <use xlink:href="#ArialMT-50"/>
       <use x="55.615234" xlink:href="#ArialMT-48"/>
       <use x="111.230469" xlink:href="#ArialMT-48"/>
       <use x="166.845703" xlink:href="#ArialMT-51"/>
      </g>
     </g>
    </g>
    <g id="xtick_3">
     <g id="line2d_3"/>
     <g id="text_3">
      <!-- 2005 -->
      <defs>
       <path d="M 4.15625 18.75 
L 13.375 19.53125 
Q 14.40625 12.796875 18.140625 9.390625 
Q 21.875 6 27.15625 6 
Q 33.5 6 37.890625 10.78125 
Q 42.28125 15.578125 42.28125 23.484375 
Q 42.28125 31 38.0625 35.34375 
Q 33.84375 39.703125 27 39.703125 
Q 22.75 39.703125 19.328125 37.765625 
Q 15.921875 35.84375 13.96875 32.765625 
L 5.71875 33.84375 
L 12.640625 70.609375 
L 48.25 70.609375 
L 48.25 62.203125 
L 19.671875 62.203125 
L 15.828125 42.96875 
Q 22.265625 47.46875 29.34375 47.46875 
Q 38.71875 47.46875 45.15625 40.96875 
Q 51.609375 34.46875 51.609375 24.265625 
Q 51.609375 14.546875 45.953125 7.46875 
Q 39.0625 -1.21875 27.15625 -1.21875 
Q 17.390625 -1.21875 11.203125 4.25 
Q 5.03125 9.71875 4.15625 18.75 
z
" id="ArialMT-53"/>
      </defs>
      <g style="fill:#262626;" transform="translate(208.862346 382.948862)scale(0.14 -0.14)">
       <use xlink:href="#ArialMT-50"/>
       <use x="55.615234" xlink:href="#ArialMT-48"/>
       <use x="111.230469" xlink:href="#ArialMT-48"/>
       <use x="166.845703" xlink:href="#ArialMT-53"/>
      </g>
     </g>
    </g>
    <g id="xtick_4">
     <g id="line2d_4"/>
     <g id="text_4">
      <!-- 2007 -->
      <defs>
       <path d="M 4.734375 62.203125 
L 4.734375 70.65625 
L 51.078125 70.65625 
L 51.078125 63.8125 
Q 44.234375 56.546875 37.515625 44.484375 
Q 30.8125 32.421875 27.15625 19.671875 
Q 24.515625 10.6875 23.78125 0 
L 14.75 0 
Q 14.890625 8.453125 18.0625 20.40625 
Q 21.234375 32.375 27.171875 43.484375 
Q 33.109375 54.59375 39.796875 62.203125 
z
" id="ArialMT-55"/>
      </defs>
      <g style="fill:#262626;" transform="translate(287.638817 382.948862)scale(0.14 -0.14)">
       <use xlink:href="#ArialMT-50"/>
       <use x="55.615234" xlink:href="#ArialMT-48"/>
       <use x="111.230469" xlink:href="#ArialMT-48"/>
       <use x="166.845703" xlink:href="#ArialMT-55"/>
      </g>
     </g>
    </g>
    <g id="xtick_5">
     <g id="line2d_5"/>
     <g id="text_5">
      <!-- 2009 -->
      <defs>
       <path d="M 5.46875 16.546875 
L 13.921875 17.328125 
Q 14.984375 11.375 18.015625 8.6875 
Q 21.046875 6 25.78125 6 
Q 29.828125 6 32.875 7.859375 
Q 35.9375 9.71875 37.890625 12.8125 
Q 39.84375 15.921875 41.15625 21.1875 
Q 42.484375 26.46875 42.484375 31.9375 
Q 42.484375 32.515625 42.4375 33.6875 
Q 39.796875 29.5 35.234375 26.875 
Q 30.671875 24.265625 25.34375 24.265625 
Q 16.453125 24.265625 10.296875 30.703125 
Q 4.15625 37.15625 4.15625 47.703125 
Q 4.15625 58.59375 10.578125 65.234375 
Q 17 71.875 26.65625 71.875 
Q 33.640625 71.875 39.421875 68.109375 
Q 45.21875 64.359375 48.21875 57.390625 
Q 51.21875 50.4375 51.21875 37.25 
Q 51.21875 23.53125 48.234375 15.40625 
Q 45.265625 7.28125 39.375 3.03125 
Q 33.5 -1.21875 25.59375 -1.21875 
Q 17.1875 -1.21875 11.859375 3.4375 
Q 6.546875 8.109375 5.46875 16.546875 
z
M 41.453125 48.140625 
Q 41.453125 55.71875 37.421875 60.15625 
Q 33.40625 64.59375 27.734375 64.59375 
Q 21.875 64.59375 17.53125 59.8125 
Q 13.1875 55.03125 13.1875 47.40625 
Q 13.1875 40.578125 17.3125 36.296875 
Q 21.4375 32.03125 27.484375 32.03125 
Q 33.59375 32.03125 37.515625 36.296875 
Q 41.453125 40.578125 41.453125 48.140625 
z
" id="ArialMT-57"/>
      </defs>
      <g style="fill:#262626;" transform="translate(366.415288 382.948862)scale(0.14 -0.14)">
       <use xlink:href="#ArialMT-50"/>
       <use x="55.615234" xlink:href="#ArialMT-48"/>
       <use x="111.230469" xlink:href="#ArialMT-48"/>
       <use x="166.845703" xlink:href="#ArialMT-57"/>
      </g>
     </g>
    </g>
    <g id="xtick_6">
     <g id="line2d_6"/>
     <g id="text_6">
      <!-- 2011 -->
      <g style="fill:#262626;" transform="translate(445.708008 382.948862)scale(0.14 -0.14)">
       <use xlink:href="#ArialMT-50"/>
       <use x="55.615234" xlink:href="#ArialMT-48"/>
       <use x="111.230469" xlink:href="#ArialMT-49"/>
       <use x="159.470703" xlink:href="#ArialMT-49"/>
      </g>
     </g>
    </g>
    <g id="xtick_7">
     <g id="line2d_7"/>
     <g id="text_7">
      <!-- 2013 -->
      <g style="fill:#262626;" transform="translate(523.968229 382.948862)scale(0.14 -0.14)">
       <use xlink:href="#ArialMT-50"/>
       <use x="55.615234" xlink:href="#ArialMT-48"/>
       <use x="111.230469" xlink:href="#ArialMT-49"/>
       <use x="166.845703" xlink:href="#ArialMT-51"/>
      </g>
     </g>
    </g>
    <g id="xtick_8">
     <g id="line2d_8"/>
     <g id="text_8">
      <!-- 2015 -->
      <g style="fill:#262626;" transform="translate(602.744699 382.948862)scale(0.14 -0.14)">
       <use xlink:href="#ArialMT-50"/>
       <use x="55.615234" xlink:href="#ArialMT-48"/>
       <use x="111.230469" xlink:href="#ArialMT-49"/>
       <use x="166.845703" xlink:href="#ArialMT-53"/>
      </g>
     </g>
    </g>
    <g id="xtick_9">
     <g id="line2d_9"/>
     <g id="text_9">
      <!-- 2017 -->
      <g style="fill:#262626;" transform="translate(681.52117 382.948862)scale(0.14 -0.14)">
       <use xlink:href="#ArialMT-50"/>
       <use x="55.615234" xlink:href="#ArialMT-48"/>
       <use x="111.230469" xlink:href="#ArialMT-49"/>
       <use x="166.845703" xlink:href="#ArialMT-55"/>
      </g>
     </g>
    </g>
   </g>
   <g id="matplotlib.axis_2">
    <g id="ytick_1">
     <g id="line2d_10">
      <path clip-path="url(#pce4a571d20)" d="M 47.185913 345.893142 
L 716.785912 345.893142 
" style="fill:none;stroke:#cccccc;stroke-linecap:round;stroke-width:0.8;"/>
     </g>
     <g id="line2d_11"/>
     <g id="text_10">
      <!-- 100 -->
      <g style="fill:#262626;" transform="translate(27.0031 349.472049)scale(0.1 -0.1)">
       <use xlink:href="#ArialMT-49"/>
       <use x="55.615234" xlink:href="#ArialMT-48"/>
       <use x="111.230469" xlink:href="#ArialMT-48"/>
      </g>
     </g>
    </g>
    <g id="ytick_2">
     <g id="line2d_12">
      <path clip-path="url(#pce4a571d20)" d="M 47.185913 298.623577 
L 716.785912 298.623577 
" style="fill:none;stroke:#cccccc;stroke-linecap:round;stroke-width:0.8;"/>
     </g>
     <g id="line2d_13"/>
     <g id="text_11">
      <!-- 150 -->
      <g style="fill:#262626;" transform="translate(27.0031 302.202483)scale(0.1 -0.1)">
       <use xlink:href="#ArialMT-49"/>
       <use x="55.615234" xlink:href="#ArialMT-53"/>
       <use x="111.230469" xlink:href="#ArialMT-48"/>
      </g>
     </g>
    </g>
    <g id="ytick_3">
     <g id="line2d_14">
      <path clip-path="url(#pce4a571d20)" d="M 47.185913 251.354012 
L 716.785912 251.354012 
" style="fill:none;stroke:#cccccc;stroke-linecap:round;stroke-width:0.8;"/>
     </g>
     <g id="line2d_15"/>
     <g id="text_12">
      <!-- 200 -->
      <g style="fill:#262626;" transform="translate(27.0031 254.932918)scale(0.1 -0.1)">
       <use xlink:href="#ArialMT-50"/>
       <use x="55.615234" xlink:href="#ArialMT-48"/>
       <use x="111.230469" xlink:href="#ArialMT-48"/>
      </g>
     </g>
    </g>
    <g id="ytick_4">
     <g id="line2d_16">
      <path clip-path="url(#pce4a571d20)" d="M 47.185913 204.084447 
L 716.785912 204.084447 
" style="fill:none;stroke:#cccccc;stroke-linecap:round;stroke-width:0.8;"/>
     </g>
     <g id="line2d_17"/>
     <g id="text_13">
      <!-- 250 -->
      <g style="fill:#262626;" transform="translate(27.0031 207.663353)scale(0.1 -0.1)">
       <use xlink:href="#ArialMT-50"/>
       <use x="55.615234" xlink:href="#ArialMT-53"/>
       <use x="111.230469" xlink:href="#ArialMT-48"/>
      </g>
     </g>
    </g>
    <g id="ytick_5">
     <g id="line2d_18">
      <path clip-path="url(#pce4a571d20)" d="M 47.185913 156.814882 
L 716.785912 156.814882 
" style="fill:none;stroke:#cccccc;stroke-linecap:round;stroke-width:0.8;"/>
     </g>
     <g id="line2d_19"/>
     <g id="text_14">
      <!-- 300 -->
      <g style="fill:#262626;" transform="translate(27.0031 160.393788)scale(0.1 -0.1)">
       <use xlink:href="#ArialMT-51"/>
       <use x="55.615234" xlink:href="#ArialMT-48"/>
       <use x="111.230469" xlink:href="#ArialMT-48"/>
      </g>
     </g>
    </g>
    <g id="ytick_6">
     <g id="line2d_20">
      <path clip-path="url(#pce4a571d20)" d="M 47.185913 109.545316 
L 716.785912 109.545316 
" style="fill:none;stroke:#cccccc;stroke-linecap:round;stroke-width:0.8;"/>
     </g>
     <g id="line2d_21"/>
     <g id="text_15">
      <!-- 350 -->
      <g style="fill:#262626;" transform="translate(27.0031 113.124223)scale(0.1 -0.1)">
       <use xlink:href="#ArialMT-51"/>
       <use x="55.615234" xlink:href="#ArialMT-53"/>
       <use x="111.230469" xlink:href="#ArialMT-48"/>
      </g>
     </g>
    </g>
    <g id="ytick_7">
     <g id="line2d_22">
      <path clip-path="url(#pce4a571d20)" d="M 47.185913 62.275751 
L 716.785912 62.275751 
" style="fill:none;stroke:#cccccc;stroke-linecap:round;stroke-width:0.8;"/>
     </g>
     <g id="line2d_23"/>
     <g id="text_16">
      <!-- 400 -->
      <defs>
       <path d="M 32.328125 0 
L 32.328125 17.140625 
L 1.265625 17.140625 
L 1.265625 25.203125 
L 33.9375 71.578125 
L 41.109375 71.578125 
L 41.109375 25.203125 
L 50.78125 25.203125 
L 50.78125 17.140625 
L 41.109375 17.140625 
L 41.109375 0 
z
M 32.328125 25.203125 
L 32.328125 57.46875 
L 9.90625 25.203125 
z
" id="ArialMT-52"/>
      </defs>
      <g style="fill:#262626;" transform="translate(27.0031 65.854657)scale(0.1 -0.1)">
       <use xlink:href="#ArialMT-52"/>
       <use x="55.615234" xlink:href="#ArialMT-48"/>
       <use x="111.230469" xlink:href="#ArialMT-48"/>
      </g>
     </g>
    </g>
    <g id="text_17">
     <!-- Crashes / Week -->
     <defs>
      <path d="M 58.796875 25.09375 
L 68.265625 22.703125 
Q 65.28125 11.03125 57.546875 4.90625 
Q 49.8125 -1.21875 38.625 -1.21875 
Q 27.046875 -1.21875 19.796875 3.484375 
Q 12.546875 8.203125 8.765625 17.140625 
Q 4.984375 26.078125 4.984375 36.328125 
Q 4.984375 47.515625 9.25 55.828125 
Q 13.53125 64.15625 21.40625 68.46875 
Q 29.296875 72.796875 38.765625 72.796875 
Q 49.515625 72.796875 56.828125 67.328125 
Q 64.15625 61.859375 67.046875 51.953125 
L 57.71875 49.75 
Q 55.21875 57.5625 50.484375 61.125 
Q 45.75 64.703125 38.578125 64.703125 
Q 30.328125 64.703125 24.78125 60.734375 
Q 19.234375 56.78125 16.984375 50.109375 
Q 14.75 43.453125 14.75 36.375 
Q 14.75 27.25 17.40625 20.4375 
Q 20.0625 13.625 25.671875 10.25 
Q 31.296875 6.890625 37.84375 6.890625 
Q 45.796875 6.890625 51.3125 11.46875 
Q 56.84375 16.0625 58.796875 25.09375 
z
" id="ArialMT-67"/>
      <path d="M 6.5 0 
L 6.5 51.859375 
L 14.40625 51.859375 
L 14.40625 44 
Q 17.4375 49.515625 20 51.265625 
Q 22.5625 53.03125 25.640625 53.03125 
Q 30.078125 53.03125 34.671875 50.203125 
L 31.640625 42.046875 
Q 28.421875 43.953125 25.203125 43.953125 
Q 22.3125 43.953125 20.015625 42.21875 
Q 17.71875 40.484375 16.75 37.40625 
Q 15.28125 32.71875 15.28125 27.15625 
L 15.28125 0 
z
" id="ArialMT-114"/>
      <path d="M 40.4375 6.390625 
Q 35.546875 2.25 31.03125 0.53125 
Q 26.515625 -1.171875 21.34375 -1.171875 
Q 12.796875 -1.171875 8.203125 3 
Q 3.609375 7.171875 3.609375 13.671875 
Q 3.609375 17.484375 5.34375 20.625 
Q 7.078125 23.78125 9.890625 25.6875 
Q 12.703125 27.59375 16.21875 28.5625 
Q 18.796875 29.25 24.03125 29.890625 
Q 34.671875 31.15625 39.703125 32.90625 
Q 39.75 34.71875 39.75 35.203125 
Q 39.75 40.578125 37.25 42.78125 
Q 33.890625 45.75 27.25 45.75 
Q 21.046875 45.75 18.09375 43.578125 
Q 15.140625 41.40625 13.71875 35.890625 
L 5.125 37.0625 
Q 6.296875 42.578125 8.984375 45.96875 
Q 11.671875 49.359375 16.75 51.1875 
Q 21.828125 53.03125 28.515625 53.03125 
Q 35.15625 53.03125 39.296875 51.46875 
Q 43.453125 49.90625 45.40625 47.53125 
Q 47.359375 45.171875 48.140625 41.546875 
Q 48.578125 39.3125 48.578125 33.453125 
L 48.578125 21.734375 
Q 48.578125 9.46875 49.140625 6.21875 
Q 49.703125 2.984375 51.375 0 
L 42.1875 0 
Q 40.828125 2.734375 40.4375 6.390625 
z
M 39.703125 26.03125 
Q 34.90625 24.078125 25.34375 22.703125 
Q 19.921875 21.921875 17.671875 20.9375 
Q 15.4375 19.96875 14.203125 18.09375 
Q 12.984375 16.21875 12.984375 13.921875 
Q 12.984375 10.40625 15.640625 8.0625 
Q 18.3125 5.71875 23.4375 5.71875 
Q 28.515625 5.71875 32.46875 7.9375 
Q 36.421875 10.15625 38.28125 14.015625 
Q 39.703125 17 39.703125 22.796875 
z
" id="ArialMT-97"/>
      <path d="M 3.078125 15.484375 
L 11.765625 16.84375 
Q 12.5 11.625 15.84375 8.84375 
Q 19.1875 6.0625 25.203125 6.0625 
Q 31.25 6.0625 34.171875 8.515625 
Q 37.109375 10.984375 37.109375 14.3125 
Q 37.109375 17.28125 34.515625 19 
Q 32.71875 20.171875 25.53125 21.96875 
Q 15.875 24.421875 12.140625 26.203125 
Q 8.40625 27.984375 6.46875 31.125 
Q 4.546875 34.28125 4.546875 38.09375 
Q 4.546875 41.546875 6.125 44.5 
Q 7.71875 47.46875 10.453125 49.421875 
Q 12.5 50.921875 16.03125 51.96875 
Q 19.578125 53.03125 23.640625 53.03125 
Q 29.734375 53.03125 34.34375 51.265625 
Q 38.96875 49.515625 41.15625 46.5 
Q 43.359375 43.5 44.1875 38.484375 
L 35.59375 37.3125 
Q 35.015625 41.3125 32.203125 43.546875 
Q 29.390625 45.796875 24.265625 45.796875 
Q 18.21875 45.796875 15.625 43.796875 
Q 13.03125 41.796875 13.03125 39.109375 
Q 13.03125 37.40625 14.109375 36.03125 
Q 15.1875 34.625 17.484375 33.6875 
Q 18.796875 33.203125 25.25 31.453125 
Q 34.578125 28.953125 38.25 27.359375 
Q 41.9375 25.78125 44.03125 22.75 
Q 46.140625 19.734375 46.140625 15.234375 
Q 46.140625 10.84375 43.578125 6.953125 
Q 41.015625 3.078125 36.171875 0.953125 
Q 31.34375 -1.171875 25.25 -1.171875 
Q 15.140625 -1.171875 9.84375 3.03125 
Q 4.546875 7.234375 3.078125 15.484375 
z
" id="ArialMT-115"/>
      <path d="M 6.59375 0 
L 6.59375 71.578125 
L 15.375 71.578125 
L 15.375 45.90625 
Q 21.53125 53.03125 30.90625 53.03125 
Q 36.671875 53.03125 40.921875 50.75 
Q 45.171875 48.484375 47 44.484375 
Q 48.828125 40.484375 48.828125 32.859375 
L 48.828125 0 
L 40.046875 0 
L 40.046875 32.859375 
Q 40.046875 39.453125 37.1875 42.453125 
Q 34.328125 45.453125 29.109375 45.453125 
Q 25.203125 45.453125 21.75 43.421875 
Q 18.3125 41.40625 16.84375 37.9375 
Q 15.375 34.46875 15.375 28.375 
L 15.375 0 
z
" id="ArialMT-104"/>
      <path d="M 42.09375 16.703125 
L 51.171875 15.578125 
Q 49.03125 7.625 43.21875 3.21875 
Q 37.40625 -1.171875 28.375 -1.171875 
Q 17 -1.171875 10.328125 5.828125 
Q 3.65625 12.84375 3.65625 25.484375 
Q 3.65625 38.578125 10.390625 45.796875 
Q 17.140625 53.03125 27.875 53.03125 
Q 38.28125 53.03125 44.875 45.953125 
Q 51.46875 38.875 51.46875 26.03125 
Q 51.46875 25.25 51.421875 23.6875 
L 12.75 23.6875 
Q 13.234375 15.140625 17.578125 10.59375 
Q 21.921875 6.0625 28.421875 6.0625 
Q 33.25 6.0625 36.671875 8.59375 
Q 40.09375 11.140625 42.09375 16.703125 
z
M 13.234375 30.90625 
L 42.1875 30.90625 
Q 41.609375 37.453125 38.875 40.71875 
Q 34.671875 45.796875 27.984375 45.796875 
Q 21.921875 45.796875 17.796875 41.75 
Q 13.671875 37.703125 13.234375 30.90625 
z
" id="ArialMT-101"/>
      <path id="ArialMT-32"/>
      <path d="M 0 -1.21875 
L 20.75 72.796875 
L 27.78125 72.796875 
L 7.078125 -1.21875 
z
" id="ArialMT-47"/>
      <path d="M 20.21875 0 
L 1.21875 71.578125 
L 10.9375 71.578125 
L 21.828125 24.65625 
Q 23.578125 17.28125 24.859375 10.015625 
Q 27.59375 21.484375 28.078125 23.25 
L 41.703125 71.578125 
L 53.125 71.578125 
L 63.375 35.359375 
Q 67.234375 21.875 68.953125 10.015625 
Q 70.3125 16.796875 72.515625 25.59375 
L 83.734375 71.578125 
L 93.265625 71.578125 
L 73.640625 0 
L 64.5 0 
L 49.421875 54.546875 
Q 47.515625 61.375 47.171875 62.9375 
Q 46.046875 58.015625 45.0625 54.546875 
L 29.890625 0 
z
" id="ArialMT-87"/>
      <path d="M 6.640625 0 
L 6.640625 71.578125 
L 15.4375 71.578125 
L 15.4375 30.765625 
L 36.234375 51.859375 
L 47.609375 51.859375 
L 27.78125 32.625 
L 49.609375 0 
L 38.765625 0 
L 21.625 26.515625 
L 15.4375 20.5625 
L 15.4375 0 
z
" id="ArialMT-107"/>
     </defs>
     <g style="fill:#262626;" transform="translate(19.5687 267.752775)rotate(-90)scale(0.1728 -0.1728)">
      <use xlink:href="#ArialMT-67"/>
      <use x="72.216797" xlink:href="#ArialMT-114"/>
      <use x="105.517578" xlink:href="#ArialMT-97"/>
      <use x="161.132812" xlink:href="#ArialMT-115"/>
      <use x="211.132812" xlink:href="#ArialMT-104"/>
      <use x="266.748047" xlink:href="#ArialMT-101"/>
      <use x="322.363281" xlink:href="#ArialMT-115"/>
      <use x="372.363281" xlink:href="#ArialMT-32"/>
      <use x="400.146484" xlink:href="#ArialMT-47"/>
      <use x="427.929688" xlink:href="#ArialMT-32"/>
      <use x="455.712891" xlink:href="#ArialMT-87"/>
      <use x="548.347656" xlink:href="#ArialMT-101"/>
      <use x="603.962891" xlink:href="#ArialMT-101"/>
      <use x="659.578125" xlink:href="#ArialMT-107"/>
     </g>
    </g>
   </g>
   <g id="patch_3">
    <path clip-path="url(#pce4a571d20)" d="M 87.195834 369.527925 
L 87.195834 43.367925 
L 126.45085 43.367925 
L 126.45085 369.527925 
z
" style="opacity:0.05;stroke:#000000;stroke-linejoin:miter;"/>
   </g>
   <g id="patch_4">
    <path clip-path="url(#pce4a571d20)" d="M 165.705867 369.527925 
L 165.705867 43.367925 
L 204.960884 43.367925 
L 204.960884 369.527925 
z
" style="opacity:0.05;stroke:#000000;stroke-linejoin:miter;"/>
   </g>
   <g id="patch_5">
    <path clip-path="url(#pce4a571d20)" d="M 244.215901 369.527925 
L 244.215901 43.367925 
L 283.470918 43.367925 
L 283.470918 369.527925 
z
" style="opacity:0.05;stroke:#000000;stroke-linejoin:miter;"/>
   </g>
   <g id="patch_6">
    <path clip-path="url(#pce4a571d20)" d="M 323.480839 369.527925 
L 323.480839 43.367925 
L 362.735856 43.367925 
L 362.735856 369.527925 
z
" style="opacity:0.05;stroke:#000000;stroke-linejoin:miter;"/>
   </g>
   <g id="patch_7">
    <path clip-path="url(#pce4a571d20)" d="M 401.990873 369.527925 
L 401.990873 43.367925 
L 441.24589 43.367925 
L 441.24589 369.527925 
z
" style="opacity:0.05;stroke:#000000;stroke-linejoin:miter;"/>
   </g>
   <g id="patch_8">
    <path clip-path="url(#pce4a571d20)" d="M 480.500907 369.527925 
L 480.500907 43.367925 
L 520.510828 43.367925 
L 520.510828 369.527925 
z
" style="opacity:0.05;stroke:#000000;stroke-linejoin:miter;"/>
   </g>
   <g id="patch_9">
    <path clip-path="url(#pce4a571d20)" d="M 559.765845 369.527925 
L 559.765845 43.367925 
L 599.020862 43.367925 
L 599.020862 369.527925 
z
" style="opacity:0.05;stroke:#000000;stroke-linejoin:miter;"/>
   </g>
   <g id="patch_10">
    <path clip-path="url(#pce4a571d20)" d="M 638.275879 369.527925 
L 638.275879 43.367925 
L 677.530896 43.367925 
L 677.530896 369.527925 
z
" style="opacity:0.05;stroke:#000000;stroke-linejoin:miter;"/>
   </g>
   <g id="patch_11">
    <path clip-path="url(#pce4a571d20)" d="M 716.785912 369.527925 
L 716.785912 43.367925 
L 756.795834 43.367925 
L 756.795834 369.527925 
z
" style="opacity:0.05;stroke:#000000;stroke-linejoin:miter;"/>
   </g>
   <g id="line2d_24">
    <path clip-path="url(#pce4a571d20)" d="M 47.313328 393.931362 
L 47.940817 262.698708 
L 48.695721 291.060447 
L 49.450625 260.807925 
L 50.205529 277.824968 
L 50.960433 192.739751 
L 51.715338 296.732795 
L 52.470242 261.753316 
L 53.225146 306.186708 
L 53.98005 282.551925 
L 54.734954 266.480273 
L 55.489858 182.340447 
L 56.244763 218.265316 
L 56.999667 180.449664 
L 57.754571 241.900099 
L 58.509475 203.139055 
L 59.264379 222.046882 
L 60.019283 173.831925 
L 60.774188 163.432621 
L 61.529092 199.35749 
L 62.283996 160.596447 
L 63.0389 184.231229 
L 63.793804 173.831925 
L 64.548708 160.596447 
L 65.303613 116.163055 
L 66.058517 167.214186 
L 66.813421 141.688621 
L 67.568325 171.941142 
L 68.323229 148.30636 
L 69.078133 178.558882 
L 69.833038 180.449664 
L 70.587942 148.30636 
L 71.342846 188.958186 
L 72.09775 168.159577 
L 72.852654 200.302882 
L 73.607558 202.193664 
L 75.117367 163.432621 
L 75.872271 206.920621 
L 76.627175 133.180099 
L 77.382079 191.79436 
L 78.136984 146.415577 
L 78.891888 130.343925 
L 79.646792 201.248273 
L 80.401696 211.647577 
L 81.1566 241.900099 
L 81.911504 219.210708 
L 82.666409 309.022882 
L 83.421313 267.425664 
L 84.176217 239.063925 
L 84.931121 258.917142 
L 85.686025 297.678186 
L 86.440929 321.312968 
L 87.195834 304.295925 
L 87.950738 216.374534 
L 88.705642 275.934186 
L 89.460546 263.644099 
L 90.21545 294.842012 
L 90.970354 226.773838 
L 91.725259 258.917142 
L 92.480163 232.446186 
L 93.235067 170.995751 
L 93.989971 228.664621 
L 94.744875 248.517838 
L 95.499779 243.790882 
L 96.254684 208.811403 
L 97.009588 245.681664 
L 97.764492 164.378012 
L 98.519396 211.647577 
L 99.2743 206.920621 
L 100.029204 169.104968 
L 100.784109 166.268795 
L 101.539013 191.79436 
L 102.293917 208.811403 
L 103.048821 188.012795 
L 103.803725 183.285838 
L 104.55863 172.886534 
L 105.313534 212.592968 
L 106.068438 189.903577 
L 106.823342 188.012795 
L 107.578246 195.575925 
L 108.33315 212.592968 
L 109.088055 179.504273 
L 110.597863 194.630534 
L 111.352767 208.811403 
L 112.107671 199.35749 
L 112.862575 184.231229 
L 113.61748 147.360968 
L 114.372384 172.886534 
L 115.127288 167.214186 
L 115.882192 170.995751 
L 116.637096 158.705664 
L 117.392 187.067403 
L 118.146905 241.900099 
L 118.901809 209.756795 
L 119.656713 231.500795 
L 120.411617 226.773838 
L 121.166521 208.811403 
L 121.921425 245.681664 
L 122.67633 263.644099 
L 123.431234 267.425664 
L 124.186138 284.442708 
L 124.941042 296.732795 
L 125.695946 319.422186 
L 126.45085 281.606534 
L 127.960659 240.009316 
L 128.715563 252.299403 
L 129.470467 245.681664 
L 130.225371 214.483751 
L 130.980276 264.58949 
L 131.73518 242.84549 
L 132.490084 254.190186 
L 133.244988 220.156099 
L 133.999892 251.354012 
L 134.754796 237.173142 
L 135.509701 173.831925 
L 136.264605 234.336968 
L 137.019509 251.354012 
L 137.774413 243.790882 
L 138.529317 245.681664 
L 139.284221 234.336968 
L 140.039126 244.736273 
L 140.79403 198.412099 
L 141.548934 197.466708 
L 142.303838 200.302882 
L 143.058742 207.866012 
L 143.813646 200.302882 
L 144.568551 212.592968 
L 145.323455 158.705664 
L 146.078359 177.61349 
L 146.833263 187.067403 
L 147.588167 181.395055 
L 148.343071 183.285838 
L 149.097976 205.029838 
L 149.85288 205.975229 
L 150.607784 196.521316 
L 151.362688 196.521316 
L 152.117592 197.466708 
L 152.872496 174.777316 
L 153.627401 172.886534 
L 154.382305 166.268795 
L 155.137209 186.122012 
L 155.892113 190.848968 
L 156.647017 155.86949 
L 157.401922 161.541838 
L 158.156826 161.541838 
L 158.91173 199.35749 
L 159.666634 242.84549 
L 160.421538 205.029838 
L 161.176442 238.118534 
L 161.931347 289.169664 
L 162.686251 269.316447 
L 163.441155 275.934186 
L 164.196059 271.207229 
L 164.950963 325.094534 
L 165.705867 327.930708 
L 166.460772 268.371055 
L 167.215676 258.917142 
L 167.97058 255.135577 
L 168.725484 256.080968 
L 169.480388 264.58949 
L 170.235292 248.517838 
L 170.990197 254.190186 
L 171.745101 263.644099 
L 172.500005 216.374534 
L 173.254909 140.743229 
L 174.009813 215.429142 
L 174.764717 216.374534 
L 175.519622 183.285838 
L 176.274526 235.28236 
L 177.784334 206.920621 
L 178.539238 172.886534 
L 179.294142 195.575925 
L 180.049047 170.05036 
L 180.803951 160.596447 
L 181.558855 205.975229 
L 182.313759 150.197142 
L 183.068663 161.541838 
L 183.823568 203.139055 
L 184.578472 201.248273 
L 185.333376 185.176621 
L 186.08828 201.248273 
L 186.843184 162.487229 
L 187.598088 182.340447 
L 188.352993 170.995751 
L 189.107897 198.412099 
L 189.862801 206.920621 
L 190.617705 204.084447 
L 191.372609 194.630534 
L 192.127513 178.558882 
L 192.882418 134.12549 
L 193.637322 144.524795 
L 194.392226 174.777316 
L 195.14713 197.466708 
L 195.902034 170.995751 
L 196.656938 219.210708 
L 197.411843 233.391577 
L 198.166747 250.408621 
L 198.921651 228.664621 
L 199.676555 251.354012 
L 200.431459 243.790882 
L 201.186363 294.842012 
L 201.941268 260.807925 
L 202.696172 258.917142 
L 203.451076 243.790882 
L 204.20598 309.968273 
L 204.960884 346.838534 
L 205.715788 334.548447 
L 206.470693 284.442708 
L 207.225597 257.02636 
L 207.980501 276.879577 
L 208.735405 225.828447 
L 209.490309 280.661142 
L 210.245214 286.33349 
L 211.000118 249.463229 
L 211.755022 218.265316 
L 212.509926 207.866012 
L 213.26483 265.534882 
L 214.019734 279.715751 
L 214.774639 222.046882 
L 215.529543 203.139055 
L 216.284447 190.848968 
L 217.039351 205.029838 
L 217.794255 225.828447 
L 218.549159 228.664621 
L 219.304064 183.285838 
L 220.058968 186.122012 
L 220.813872 208.811403 
L 221.568776 183.285838 
L 222.32368 185.176621 
L 223.078584 210.702186 
L 223.833489 211.647577 
L 224.588393 229.610012 
L 225.343297 219.210708 
L 226.098201 220.156099 
L 226.853105 172.886534 
L 227.608009 187.067403 
L 228.362914 242.84549 
L 229.117818 197.466708 
L 229.872722 188.012795 
L 230.627626 204.084447 
L 231.38253 202.193664 
L 232.137434 180.449664 
L 232.892339 190.848968 
L 233.647243 186.122012 
L 234.402147 142.634012 
L 235.157051 177.61349 
L 235.911955 188.012795 
L 236.66686 243.790882 
L 237.421764 192.739751 
L 238.931572 242.84549 
L 239.686476 205.975229 
L 240.44138 277.824968 
L 241.196285 269.316447 
L 241.951189 278.77036 
L 242.706093 291.060447 
L 243.460997 316.586012 
L 244.215901 351.56549 
L 244.970805 257.971751 
L 245.72571 280.661142 
L 246.480614 260.807925 
L 247.235518 255.135577 
L 247.990422 243.790882 
L 248.745326 187.067403 
L 249.50023 282.551925 
L 250.255135 233.391577 
L 251.010039 282.551925 
L 251.764943 309.022882 
L 252.519847 293.896621 
L 253.274751 273.098012 
L 254.029655 304.295925 
L 254.78456 257.02636 
L 255.539464 272.152621 
L 256.294368 260.807925 
L 257.049272 233.391577 
L 257.804176 188.958186 
L 258.55908 175.722708 
L 259.313985 233.391577 
L 260.068889 229.610012 
L 260.823793 157.760273 
L 261.578697 206.920621 
L 262.333601 175.722708 
L 263.088506 218.265316 
L 263.84341 202.193664 
L 264.598314 211.647577 
L 265.353218 192.739751 
L 266.108122 214.483751 
L 266.863026 222.992273 
L 267.617931 207.866012 
L 268.372835 205.975229 
L 269.882643 188.012795 
L 270.637547 183.285838 
L 271.392451 189.903577 
L 272.147356 174.777316 
L 272.90226 149.251751 
L 273.657164 169.104968 
L 274.412068 220.156099 
L 275.921876 197.466708 
L 276.676781 205.029838 
L 277.431685 219.210708 
L 278.186589 209.756795 
L 278.941493 205.975229 
L 279.696397 288.224273 
L 280.451301 250.408621 
L 281.206206 262.698708 
L 282.716014 323.203751 
L 283.470918 320.367577 
L 284.225822 318.476795 
L 284.980726 309.022882 
L 285.735631 253.244795 
L 286.490535 264.58949 
L 287.245439 283.497316 
L 288.000343 299.568968 
L 288.755247 274.043403 
L 289.510152 274.043403 
L 290.265056 262.698708 
L 291.01996 204.084447 
L 291.774864 208.811403 
L 292.529768 257.971751 
L 293.284672 227.719229 
L 294.039577 255.135577 
L 294.794481 240.009316 
L 295.549385 244.736273 
L 296.304289 174.777316 
L 297.059193 211.647577 
L 297.814097 186.122012 
L 298.569002 206.920621 
L 299.323906 195.575925 
L 300.07881 203.139055 
L 300.833714 174.777316 
L 301.588618 188.958186 
L 302.343522 172.886534 
L 303.098427 181.395055 
L 303.853331 201.248273 
L 304.608235 178.558882 
L 305.363139 171.941142 
L 306.118043 213.53836 
L 306.872947 208.811403 
L 307.627852 196.521316 
L 308.382756 205.029838 
L 309.13766 190.848968 
L 309.892564 216.374534 
L 310.647468 183.285838 
L 311.402372 184.231229 
L 312.157277 213.53836 
L 312.912181 188.958186 
L 313.667085 170.995751 
L 314.421989 226.773838 
L 315.176893 201.248273 
L 315.931798 236.227751 
L 317.441606 220.156099 
L 318.19651 218.265316 
L 318.951414 274.043403 
L 319.706318 219.210708 
L 320.461223 265.534882 
L 321.216127 266.480273 
L 321.971031 294.842012 
L 322.725935 327.930708 
L 323.480839 347.783925 
L 324.235743 263.644099 
L 324.990648 267.425664 
L 325.745552 314.695229 
L 326.500456 282.551925 
L 327.25536 230.555403 
L 328.010264 260.807925 
L 328.765168 321.312968 
L 329.520073 235.28236 
L 330.274977 220.156099 
L 331.029881 224.883055 
L 331.784785 211.647577 
L 332.539689 225.828447 
L 333.294593 222.046882 
L 334.049498 188.012795 
L 334.804402 173.831925 
L 335.559306 195.575925 
L 336.31421 194.630534 
L 337.069114 211.647577 
L 337.824018 157.760273 
L 338.578923 227.719229 
L 339.333827 171.941142 
L 340.088731 156.814882 
L 340.843635 195.575925 
L 341.598539 165.323403 
L 342.353444 179.504273 
L 343.108348 182.340447 
L 343.863252 209.756795 
L 344.618156 154.924099 
L 345.37306 161.541838 
L 346.127964 157.760273 
L 346.882869 177.61349 
L 347.637773 170.995751 
L 348.392677 155.86949 
L 349.147581 158.705664 
L 349.902485 127.507751 
L 350.657389 126.56236 
L 351.412294 113.326882 
L 352.167198 76.456621 
L 352.922102 140.743229 
L 353.677006 156.814882 
L 354.43191 138.852447 
L 355.186814 152.087925 
L 355.941719 209.756795 
L 356.696623 232.446186 
L 357.451527 191.79436 
L 358.206431 185.176621 
L 358.961335 280.661142 
L 359.716239 222.992273 
L 360.471144 237.173142 
L 361.226048 292.951229 
L 361.980952 326.985316 
L 362.735856 295.787403 
L 363.49076 243.790882 
L 364.245664 209.756795 
L 365.000569 257.02636 
L 365.755473 227.719229 
L 366.510377 247.572447 
L 367.265281 283.497316 
L 368.77509 226.773838 
L 369.529994 242.84549 
L 370.284898 232.446186 
L 371.039802 234.336968 
L 371.794706 183.285838 
L 372.54961 159.651055 
L 373.304515 227.719229 
L 374.059419 190.848968 
L 374.814323 131.289316 
L 375.569227 217.319925 
L 376.324131 174.777316 
L 377.079035 148.30636 
L 377.83394 195.575925 
L 378.588844 175.722708 
L 379.343748 190.848968 
L 380.098652 184.231229 
L 380.853556 221.10149 
L 381.60846 181.395055 
L 382.363365 162.487229 
L 383.118269 170.995751 
L 383.873173 136.961664 
L 384.628077 183.285838 
L 385.382981 192.739751 
L 386.137885 158.705664 
L 386.89279 188.958186 
L 387.647694 161.541838 
L 388.402598 138.852447 
L 389.157502 163.432621 
L 389.912406 126.56236 
L 390.66731 140.743229 
L 391.422215 132.234708 
L 392.177119 119.944621 
L 392.932023 159.651055 
L 393.686927 173.831925 
L 394.441831 147.360968 
L 395.196735 146.415577 
L 395.95164 193.685142 
L 396.706544 208.811403 
L 397.461448 199.35749 
L 398.216352 227.719229 
L 398.971256 218.265316 
L 399.726161 263.644099 
L 400.481065 259.862534 
L 401.235969 293.896621 
L 401.990873 291.060447 
L 402.745777 234.336968 
L 403.500681 248.517838 
L 404.255586 324.149142 
L 405.01049 225.828447 
L 405.765394 247.572447 
L 406.520298 216.374534 
L 407.275202 239.063925 
L 408.030106 240.009316 
L 408.785011 228.664621 
L 409.539915 232.446186 
L 410.294819 159.651055 
L 411.049723 169.104968 
L 411.804627 225.828447 
L 412.559531 205.975229 
L 413.314436 169.104968 
L 414.06934 205.975229 
L 414.824244 183.285838 
L 415.579148 164.378012 
L 416.334052 159.651055 
L 417.088956 179.504273 
L 417.843861 205.029838 
L 418.598765 132.234708 
L 419.353669 180.449664 
L 420.108573 163.432621 
L 420.863477 134.12549 
L 421.618381 129.398534 
L 422.373286 123.726186 
L 423.12819 119.944621 
L 423.883094 171.941142 
L 424.637998 136.016273 
L 425.392902 130.343925 
L 426.147807 157.760273 
L 426.902711 102.927577 
L 427.657615 153.033316 
L 428.412519 160.596447 
L 429.167423 114.272273 
L 429.922327 101.982186 
L 430.677232 117.108447 
L 431.432136 101.036795 
L 432.941944 143.579403 
L 433.696848 220.156099 
L 434.451752 174.777316 
L 435.206657 165.323403 
L 436.716465 197.466708 
L 437.471369 283.497316 
L 438.226273 233.391577 
L 438.981177 211.647577 
L 439.736082 282.551925 
L 440.490986 313.749838 
L 441.24589 308.07749 
L 442.000794 246.627055 
L 442.755698 239.063925 
L 443.510602 170.995751 
L 444.265507 193.685142 
L 445.020411 178.558882 
L 445.775315 155.86949 
L 446.530219 274.988795 
L 447.285123 259.862534 
L 448.040027 198.412099 
L 448.794932 167.214186 
L 449.549836 241.900099 
L 450.30474 267.425664 
L 451.059644 172.886534 
L 451.814548 170.05036 
L 452.569453 178.558882 
L 453.324357 171.941142 
L 454.079261 132.234708 
L 454.834165 136.961664 
L 455.589069 152.087925 
L 456.343973 198.412099 
L 457.098878 170.05036 
L 457.853782 179.504273 
L 458.608686 166.268795 
L 459.36359 122.780795 
L 460.118494 136.016273 
L 460.873398 104.81836 
L 461.628303 118.999229 
L 462.383207 119.944621 
L 463.138111 108.599925 
L 463.893015 109.545316 
L 464.647919 113.326882 
L 465.402823 122.780795 
L 466.157728 143.579403 
L 466.912632 124.671577 
L 467.667536 136.961664 
L 468.42244 101.982186 
L 469.177344 102.927577 
L 470.687153 70.784273 
L 471.442057 167.214186 
L 472.196961 132.234708 
L 472.951865 134.12549 
L 473.706769 114.272273 
L 474.461673 173.831925 
L 475.216578 191.79436 
L 475.971482 188.958186 
L 476.726386 236.227751 
L 477.48129 162.487229 
L 478.236194 176.668099 
L 478.991099 240.954708 
L 479.746003 250.408621 
L 480.500907 265.534882 
L 481.255811 183.285838 
L 482.010715 189.903577 
L 482.765619 205.975229 
L 483.520524 187.067403 
L 484.275428 162.487229 
L 485.785236 203.139055 
L 486.54014 187.067403 
L 487.295044 182.340447 
L 488.049949 156.814882 
L 488.804853 218.265316 
L 489.559757 220.156099 
L 490.314661 205.975229 
L 491.069565 195.575925 
L 491.824469 204.084447 
L 492.579374 138.852447 
L 494.089182 162.487229 
L 494.844086 103.872968 
L 495.59899 130.343925 
L 496.353894 170.05036 
L 497.108799 143.579403 
L 497.863703 136.961664 
L 498.618607 155.86949 
L 499.373511 141.688621 
L 500.128415 118.053838 
L 500.883319 150.197142 
L 501.638224 168.159577 
L 502.393128 126.56236 
L 503.148032 160.596447 
L 503.902936 147.360968 
L 504.65784 175.722708 
L 505.412745 141.688621 
L 506.167649 121.835403 
L 506.922553 131.289316 
L 507.677457 121.835403 
L 508.432361 83.07436 
L 509.187265 56.603403 
L 509.94217 84.965142 
L 510.697074 80.238186 
L 511.451978 117.108447 
L 512.206882 90.63749 
L 512.961786 121.835403 
L 513.71669 112.38149 
L 514.471595 175.722708 
L 515.226499 170.05036 
L 515.981403 248.517838 
L 516.736307 252.299403 
L 517.491211 229.610012 
L 518.246115 235.28236 
L 519.00102 259.862534 
L 519.755924 307.132099 
L 520.510828 279.715751 
L 521.265732 228.664621 
L 522.020636 223.937664 
L 522.77554 258.917142 
L 523.530445 166.268795 
L 524.285349 255.135577 
L 525.040253 170.05036 
L 525.795157 208.811403 
L 526.550061 166.268795 
L 527.304965 192.739751 
L 528.05987 153.978708 
L 528.814774 182.340447 
L 529.569678 186.122012 
L 530.324582 174.777316 
L 531.079486 158.705664 
L 531.834391 158.705664 
L 532.589295 138.852447 
L 533.344199 159.651055 
L 534.099103 111.436099 
L 534.854007 101.982186 
L 535.608911 161.541838 
L 536.363816 152.087925 
L 537.11872 154.924099 
L 537.873624 145.470186 
L 538.628528 168.159577 
L 539.383432 156.814882 
L 540.138336 149.251751 
L 540.893241 143.579403 
L 541.648145 182.340447 
L 542.403049 155.86949 
L 543.157953 152.087925 
L 543.912857 167.214186 
L 544.667761 170.05036 
L 545.422666 146.415577 
L 546.17757 148.30636 
L 546.932474 155.86949 
L 547.687378 103.872968 
L 548.442282 96.309838 
L 549.197186 152.087925 
L 549.952091 137.907055 
L 550.706995 167.214186 
L 551.461899 142.634012 
L 552.216803 169.104968 
L 552.971707 162.487229 
L 553.726611 179.504273 
L 554.481516 175.722708 
L 555.23642 201.248273 
L 555.991324 266.480273 
L 556.746228 250.408621 
L 557.501132 250.408621 
L 558.256037 257.971751 
L 559.010941 275.934186 
L 559.765845 264.58949 
L 560.520749 232.446186 
L 561.275653 176.668099 
L 562.030557 195.575925 
L 562.785462 192.739751 
L 563.540366 221.10149 
L 565.050174 156.814882 
L 565.805078 240.009316 
L 566.559982 208.811403 
L 567.314887 145.470186 
L 568.069791 150.197142 
L 568.824695 210.702186 
L 569.579599 161.541838 
L 570.334503 190.848968 
L 571.089407 169.104968 
L 571.844312 190.848968 
L 572.599216 154.924099 
L 573.35412 136.961664 
L 574.109024 155.86949 
L 574.863928 213.53836 
L 575.618832 137.907055 
L 577.128641 165.323403 
L 577.883545 167.214186 
L 578.638449 188.012795 
L 579.393353 189.903577 
L 580.148257 203.139055 
L 580.903162 183.285838 
L 581.658066 193.685142 
L 582.41297 175.722708 
L 583.167874 181.395055 
L 583.922778 177.61349 
L 584.677683 195.575925 
L 585.432587 183.285838 
L 586.187491 131.289316 
L 586.942395 122.780795 
L 587.697299 107.654534 
L 588.452203 137.907055 
L 589.207108 98.200621 
L 589.962012 117.108447 
L 590.716916 149.251751 
L 591.47182 118.053838 
L 592.226724 161.541838 
L 592.981628 145.470186 
L 593.736533 223.937664 
L 594.491437 190.848968 
L 595.246341 274.988795 
L 596.001245 259.862534 
L 596.756149 236.227751 
L 597.511053 240.954708 
L 598.265958 243.790882 
L 599.020862 306.186708 
L 599.775766 213.53836 
L 600.53067 170.05036 
L 601.285574 175.722708 
L 602.040478 205.029838 
L 602.795383 199.35749 
L 603.550287 183.285838 
L 604.305191 202.193664 
L 605.060095 217.319925 
L 605.814999 180.449664 
L 606.569903 169.104968 
L 607.324808 163.432621 
L 608.079712 151.142534 
L 608.834616 182.340447 
L 609.58952 196.521316 
L 610.344424 171.941142 
L 611.099329 196.521316 
L 611.854233 158.705664 
L 612.609137 190.848968 
L 613.364041 181.395055 
L 614.118945 208.811403 
L 614.873849 173.831925 
L 615.628754 175.722708 
L 616.383658 196.521316 
L 617.138562 204.084447 
L 617.893466 170.995751 
L 618.64837 186.122012 
L 619.403274 176.668099 
L 620.158179 205.029838 
L 620.913083 192.739751 
L 621.667987 183.285838 
L 622.422891 188.012795 
L 623.177795 175.722708 
L 623.932699 158.705664 
L 624.687604 122.780795 
L 625.442508 135.070882 
L 626.197412 136.016273 
L 626.952316 155.86949 
L 627.70722 170.05036 
L 628.462124 145.470186 
L 629.217029 128.453142 
L 629.971933 146.415577 
L 630.726837 153.033316 
L 631.481741 153.033316 
L 632.236645 200.302882 
L 632.991549 175.722708 
L 633.746454 188.958186 
L 634.501358 282.551925 
L 635.256262 219.210708 
L 636.011166 253.244795 
L 636.76607 260.807925 
L 637.520975 316.586012 
L 638.275879 290.115055 
L 639.030783 292.005838 
L 640.540591 233.391577 
L 641.295495 198.412099 
L 642.0504 218.265316 
L 642.805304 188.958186 
L 643.560208 222.992273 
L 644.315112 169.104968 
L 645.070016 196.521316 
L 645.82492 262.698708 
L 646.579825 194.630534 
L 647.334729 234.336968 
L 648.089633 208.811403 
L 648.844537 224.883055 
L 649.599441 190.848968 
L 650.354345 201.248273 
L 651.10925 192.739751 
L 651.864154 207.866012 
L 652.619058 154.924099 
L 653.373962 185.176621 
L 654.128866 170.05036 
L 654.88377 178.558882 
L 655.638675 214.483751 
L 656.393579 213.53836 
L 657.148483 185.176621 
L 657.903387 224.883055 
L 658.658291 207.866012 
L 659.413195 183.285838 
L 660.1681 221.10149 
L 660.923004 192.739751 
L 661.677908 207.866012 
L 662.432812 212.592968 
L 663.187716 171.941142 
L 663.942621 171.941142 
L 664.697525 177.61349 
L 665.452429 144.524795 
L 666.207333 173.831925 
L 666.962237 130.343925 
L 667.717141 139.797838 
L 668.472046 166.268795 
L 669.22695 204.084447 
L 669.981854 170.05036 
L 670.736758 222.992273 
L 671.491662 154.924099 
L 672.246566 152.087925 
L 673.756375 273.098012 
L 674.511279 192.739751 
L 675.266183 260.807925 
L 676.021087 252.299403 
L 676.775991 295.787403 
L 677.530896 297.678186 
L 678.2858 293.896621 
L 679.040704 279.715751 
L 679.795608 291.060447 
L 680.550512 250.408621 
L 681.305416 268.371055 
L 682.060321 251.354012 
L 682.815225 268.371055 
L 683.570129 293.896621 
L 684.325033 224.883055 
L 685.079937 188.012795 
L 685.834841 180.449664 
L 686.589746 237.173142 
L 687.34465 205.029838 
L 688.099554 201.248273 
L 688.854458 210.702186 
L 689.609362 207.866012 
L 690.364267 195.575925 
L 691.119171 198.412099 
L 691.874075 182.340447 
L 693.383883 194.630534 
L 694.138787 187.067403 
L 694.893692 221.10149 
L 695.648596 200.302882 
L 696.4035 205.975229 
L 697.158404 222.046882 
L 697.913308 221.10149 
L 698.668212 191.79436 
L 699.423117 189.903577 
L 700.178021 206.920621 
L 700.932925 201.248273 
L 701.687829 229.610012 
L 702.442733 183.285838 
L 703.197637 177.61349 
L 703.952542 199.35749 
L 704.707446 209.756795 
L 705.46235 186.122012 
L 706.217254 194.630534 
L 706.972158 156.814882 
L 707.727062 158.705664 
L 708.481967 188.958186 
L 709.236871 195.575925 
L 709.991775 178.558882 
L 710.746679 211.647577 
L 711.501583 199.35749 
L 712.256487 215.429142 
L 713.011392 257.971751 
L 713.766296 206.920621 
L 714.5212 205.975229 
L 715.276104 227.719229 
L 716.031008 297.678186 
L 716.785912 317.531403 
L 716.785912 317.531403 
" style="fill:none;stroke:#008000;stroke-linecap:round;"/>
   </g>
   <g id="patch_12">
    <path d="M 47.185913 369.527925 
L 47.185913 43.367925 
" style="fill:none;stroke:#262626;stroke-linecap:square;stroke-linejoin:miter;stroke-width:1.25;"/>
   </g>
   <g id="patch_13">
    <path d="M 716.785912 369.527925 
L 716.785912 43.367925 
" style="fill:none;stroke:#262626;stroke-linecap:square;stroke-linejoin:miter;stroke-width:1.25;"/>
   </g>
   <g id="patch_14">
    <path d="M 47.185913 369.527925 
L 716.785912 369.527925 
" style="fill:none;stroke:#262626;stroke-linecap:square;stroke-linejoin:miter;stroke-width:1.25;"/>
   </g>
   <g id="patch_15">
    <path d="M 47.185913 43.367925 
L 716.785912 43.367925 
" style="fill:none;stroke:#262626;stroke-linecap:square;stroke-linejoin:miter;stroke-width:1.25;"/>
   </g>
   <g id="text_18">
    <!-- Bicycle Crashes in California -->
    <defs>
     <path d="M 7.328125 0 
L 7.328125 71.578125 
L 34.1875 71.578125 
Q 42.390625 71.578125 47.34375 69.40625 
Q 52.296875 67.234375 55.09375 62.71875 
Q 57.90625 58.203125 57.90625 53.265625 
Q 57.90625 48.6875 55.421875 44.625 
Q 52.9375 40.578125 47.90625 38.09375 
Q 54.390625 36.1875 57.875 31.59375 
Q 61.375 27 61.375 20.75 
Q 61.375 15.71875 59.25 11.390625 
Q 57.125 7.078125 54 4.734375 
Q 50.875 2.390625 46.15625 1.1875 
Q 41.453125 0 34.625 0 
z
M 16.796875 41.5 
L 32.28125 41.5 
Q 38.578125 41.5 41.3125 42.328125 
Q 44.921875 43.40625 46.75 45.890625 
Q 48.578125 48.390625 48.578125 52.15625 
Q 48.578125 55.71875 46.875 58.421875 
Q 45.171875 61.140625 41.984375 62.140625 
Q 38.8125 63.140625 31.109375 63.140625 
L 16.796875 63.140625 
z
M 16.796875 8.453125 
L 34.625 8.453125 
Q 39.203125 8.453125 41.0625 8.796875 
Q 44.34375 9.375 46.53125 10.734375 
Q 48.734375 12.109375 50.140625 14.71875 
Q 51.5625 17.328125 51.5625 20.75 
Q 51.5625 24.75 49.515625 27.703125 
Q 47.46875 30.671875 43.828125 31.859375 
Q 40.1875 33.0625 33.34375 33.0625 
L 16.796875 33.0625 
z
" id="ArialMT-66"/>
     <path d="M 6.640625 61.46875 
L 6.640625 71.578125 
L 15.4375 71.578125 
L 15.4375 61.46875 
z
M 6.640625 0 
L 6.640625 51.859375 
L 15.4375 51.859375 
L 15.4375 0 
z
" id="ArialMT-105"/>
     <path d="M 40.4375 19 
L 49.078125 17.875 
Q 47.65625 8.9375 41.8125 3.875 
Q 35.984375 -1.171875 27.484375 -1.171875 
Q 16.84375 -1.171875 10.375 5.78125 
Q 3.90625 12.75 3.90625 25.734375 
Q 3.90625 34.125 6.6875 40.421875 
Q 9.46875 46.734375 15.15625 49.875 
Q 20.84375 53.03125 27.546875 53.03125 
Q 35.984375 53.03125 41.359375 48.75 
Q 46.734375 44.484375 48.25 36.625 
L 39.703125 35.296875 
Q 38.484375 40.53125 35.375 43.15625 
Q 32.28125 45.796875 27.875 45.796875 
Q 21.234375 45.796875 17.078125 41.03125 
Q 12.9375 36.28125 12.9375 25.984375 
Q 12.9375 15.53125 16.9375 10.796875 
Q 20.953125 6.0625 27.390625 6.0625 
Q 32.5625 6.0625 36.03125 9.234375 
Q 39.5 12.40625 40.4375 19 
z
" id="ArialMT-99"/>
     <path d="M 6.203125 -19.96875 
L 5.21875 -11.71875 
Q 8.109375 -12.5 10.25 -12.5 
Q 13.1875 -12.5 14.9375 -11.515625 
Q 16.703125 -10.546875 17.828125 -8.796875 
Q 18.65625 -7.46875 20.515625 -2.25 
Q 20.75 -1.515625 21.296875 -0.09375 
L 1.609375 51.859375 
L 11.078125 51.859375 
L 21.875 21.828125 
Q 23.96875 16.109375 25.640625 9.8125 
Q 27.15625 15.875 29.25 21.625 
L 40.328125 51.859375 
L 49.125 51.859375 
L 29.390625 -0.875 
Q 26.21875 -9.421875 24.46875 -12.640625 
Q 22.125 -17 19.09375 -19.015625 
Q 16.0625 -21.046875 11.859375 -21.046875 
Q 9.328125 -21.046875 6.203125 -19.96875 
z
" id="ArialMT-121"/>
     <path d="M 6.390625 0 
L 6.390625 71.578125 
L 15.1875 71.578125 
L 15.1875 0 
z
" id="ArialMT-108"/>
     <path d="M 6.59375 0 
L 6.59375 51.859375 
L 14.5 51.859375 
L 14.5 44.484375 
Q 20.21875 53.03125 31 53.03125 
Q 35.6875 53.03125 39.625 51.34375 
Q 43.5625 49.65625 45.515625 46.921875 
Q 47.46875 44.1875 48.25 40.4375 
Q 48.734375 37.984375 48.734375 31.890625 
L 48.734375 0 
L 39.9375 0 
L 39.9375 31.546875 
Q 39.9375 36.921875 38.90625 39.578125 
Q 37.890625 42.234375 35.28125 43.8125 
Q 32.671875 45.40625 29.15625 45.40625 
Q 23.53125 45.40625 19.453125 41.84375 
Q 15.375 38.28125 15.375 28.328125 
L 15.375 0 
z
" id="ArialMT-110"/>
     <path d="M 8.6875 0 
L 8.6875 45.015625 
L 0.921875 45.015625 
L 0.921875 51.859375 
L 8.6875 51.859375 
L 8.6875 57.375 
Q 8.6875 62.59375 9.625 65.140625 
Q 10.890625 68.5625 14.078125 70.671875 
Q 17.28125 72.796875 23.046875 72.796875 
Q 26.765625 72.796875 31.25 71.921875 
L 29.9375 64.265625 
Q 27.203125 64.75 24.75 64.75 
Q 20.75 64.75 19.09375 63.03125 
Q 17.4375 61.328125 17.4375 56.640625 
L 17.4375 51.859375 
L 27.546875 51.859375 
L 27.546875 45.015625 
L 17.4375 45.015625 
L 17.4375 0 
z
" id="ArialMT-102"/>
     <path d="M 3.328125 25.921875 
Q 3.328125 40.328125 11.328125 47.265625 
Q 18.015625 53.03125 27.640625 53.03125 
Q 38.328125 53.03125 45.109375 46.015625 
Q 51.90625 39.015625 51.90625 26.65625 
Q 51.90625 16.65625 48.90625 10.90625 
Q 45.90625 5.171875 40.15625 2 
Q 34.421875 -1.171875 27.640625 -1.171875 
Q 16.75 -1.171875 10.03125 5.8125 
Q 3.328125 12.796875 3.328125 25.921875 
z
M 12.359375 25.921875 
Q 12.359375 15.96875 16.703125 11.015625 
Q 21.046875 6.0625 27.640625 6.0625 
Q 34.1875 6.0625 38.53125 11.03125 
Q 42.875 16.015625 42.875 26.21875 
Q 42.875 35.84375 38.5 40.796875 
Q 34.125 45.75 27.640625 45.75 
Q 21.046875 45.75 16.703125 40.8125 
Q 12.359375 35.890625 12.359375 25.921875 
z
" id="ArialMT-111"/>
    </defs>
    <g style="fill:#262626;" transform="translate(203.814038 27.583125)scale(0.28 -0.28)">
     <use xlink:href="#ArialMT-66"/>
     <use x="66.699219" xlink:href="#ArialMT-105"/>
     <use x="88.916016" xlink:href="#ArialMT-99"/>
     <use x="138.916016" xlink:href="#ArialMT-121"/>
     <use x="188.916016" xlink:href="#ArialMT-99"/>
     <use x="238.916016" xlink:href="#ArialMT-108"/>
     <use x="261.132812" xlink:href="#ArialMT-101"/>
     <use x="316.748047" xlink:href="#ArialMT-32"/>
     <use x="344.53125" xlink:href="#ArialMT-67"/>
     <use x="416.748047" xlink:href="#ArialMT-114"/>
     <use x="450.048828" xlink:href="#ArialMT-97"/>
     <use x="505.664062" xlink:href="#ArialMT-115"/>
     <use x="555.664062" xlink:href="#ArialMT-104"/>
     <use x="611.279297" xlink:href="#ArialMT-101"/>
     <use x="666.894531" xlink:href="#ArialMT-115"/>
     <use x="716.894531" xlink:href="#ArialMT-32"/>
     <use x="744.677734" xlink:href="#ArialMT-105"/>
     <use x="766.894531" xlink:href="#ArialMT-110"/>
     <use x="822.509766" xlink:href="#ArialMT-32"/>
     <use x="850.292969" xlink:href="#ArialMT-67"/>
     <use x="922.509766" xlink:href="#ArialMT-97"/>
     <use x="978.125" xlink:href="#ArialMT-108"/>
     <use x="1000.341797" xlink:href="#ArialMT-105"/>
     <use x="1022.558594" xlink:href="#ArialMT-102"/>
     <use x="1050.341797" xlink:href="#ArialMT-111"/>
     <use x="1105.957031" xlink:href="#ArialMT-114"/>
     <use x="1139.257812" xlink:href="#ArialMT-110"/>
     <use x="1194.873047" xlink:href="#ArialMT-105"/>
     <use x="1217.089844" xlink:href="#ArialMT-97"/>
    </g>
   </g>
  </g>
 </g>
 <defs>
  <clipPath id="pce4a571d20">
   <rect height="326.16" width="669.6" x="47.185913" y="43.367925"/>
  </clipPath>
 </defs>
</svg>
