<?xml version="1.0" encoding="utf-8" standalone="no"?>
<!DOCTYPE svg PUBLIC "-//W3C//DTD SVG 1.1//EN"
  "http://www.w3.org/Graphics/SVG/1.1/DTD/svg11.dtd">
<!-- Created with matplotlib (https://matplotlib.org/) -->
<svg height="393.36605pt" version="1.1" viewBox="0 0 718.424975 393.36605" width="718.424975pt" xmlns="http://www.w3.org/2000/svg" xmlns:xlink="http://www.w3.org/1999/xlink">
 <defs>
  <style type="text/css">
*{stroke-linecap:butt;stroke-linejoin:round;}
  </style>
 </defs>
 <g id="figure_1">
  <g id="patch_1">
   <path d="M 0 393.36605 
L 718.424975 393.36605 
L 718.424975 0 
L 0 0 
z
" style="fill:#ffffff;"/>
  </g>
  <g id="axes_1">
   <g id="patch_2">
    <path d="M 41.624975 369.527925 
L 711.224975 369.527925 
L 711.224975 43.367925 
L 41.624975 43.367925 
z
" style="fill:#ffffff;"/>
   </g>
   <g id="matplotlib.axis_1">
    <g id="xtick_1">
     <g id="line2d_1"/>
     <g id="text_1">
      <!-- Monday -->
      <defs>
       <path d="M 7.421875 0 
L 7.421875 71.578125 
L 21.6875 71.578125 
L 38.625 20.90625 
Q 40.96875 13.8125 42.046875 10.296875 
Q 43.265625 14.203125 45.84375 21.78125 
L 62.984375 71.578125 
L 75.734375 71.578125 
L 75.734375 0 
L 66.609375 0 
L 66.609375 59.90625 
L 45.796875 0 
L 37.25 0 
L 16.546875 60.9375 
L 16.546875 0 
z
" id="ArialMT-77"/>
       <path d="M 3.328125 25.921875 
Q 3.328125 40.328125 11.328125 47.265625 
Q 18.015625 53.03125 27.640625 53.03125 
Q 38.328125 53.03125 45.109375 46.015625 
Q 51.90625 39.015625 51.90625 26.65625 
Q 51.90625 16.65625 48.90625 10.90625 
Q 45.90625 5.171875 40.15625 2 
Q 34.421875 -1.171875 27.640625 -1.171875 
Q 16.75 -1.171875 10.03125 5.8125 
Q 3.328125 12.796875 3.328125 25.921875 
z
M 12.359375 25.921875 
Q 12.359375 15.96875 16.703125 11.015625 
Q 21.046875 6.0625 27.640625 6.0625 
Q 34.1875 6.0625 38.53125 11.03125 
Q 42.875 16.015625 42.875 26.21875 
Q 42.875 35.84375 38.5 40.796875 
Q 34.125 45.75 27.640625 45.75 
Q 21.046875 45.75 16.703125 40.8125 
Q 12.359375 35.890625 12.359375 25.921875 
z
" id="ArialMT-111"/>
       <path d="M 6.59375 0 
L 6.59375 51.859375 
L 14.5 51.859375 
L 14.5 44.484375 
Q 20.21875 53.03125 31 53.03125 
Q 35.6875 53.03125 39.625 51.34375 
Q 43.5625 49.65625 45.515625 46.921875 
Q 47.46875 44.1875 48.25 40.4375 
Q 48.734375 37.984375 48.734375 31.890625 
L 48.734375 0 
L 39.9375 0 
L 39.9375 31.546875 
Q 39.9375 36.921875 38.90625 39.578125 
Q 37.890625 42.234375 35.28125 43.8125 
Q 32.671875 45.40625 29.15625 45.40625 
Q 23.53125 45.40625 19.453125 41.84375 
Q 15.375 38.28125 15.375 28.328125 
L 15.375 0 
z
" id="ArialMT-110"/>
       <path d="M 40.234375 0 
L 40.234375 6.546875 
Q 35.296875 -1.171875 25.734375 -1.171875 
Q 19.53125 -1.171875 14.328125 2.25 
Q 9.125 5.671875 6.265625 11.796875 
Q 3.421875 17.921875 3.421875 25.875 
Q 3.421875 33.640625 6 39.96875 
Q 8.59375 46.296875 13.765625 49.65625 
Q 18.953125 53.03125 25.34375 53.03125 
Q 30.03125 53.03125 33.6875 51.046875 
Q 37.359375 49.078125 39.65625 45.90625 
L 39.65625 71.578125 
L 48.390625 71.578125 
L 48.390625 0 
z
M 12.453125 25.875 
Q 12.453125 15.921875 16.640625 10.984375 
Q 20.84375 6.0625 26.5625 6.0625 
Q 32.328125 6.0625 36.34375 10.765625 
Q 40.375 15.484375 40.375 25.140625 
Q 40.375 35.796875 36.265625 40.765625 
Q 32.171875 45.75 26.171875 45.75 
Q 20.3125 45.75 16.375 40.96875 
Q 12.453125 36.1875 12.453125 25.875 
z
" id="ArialMT-100"/>
       <path d="M 40.4375 6.390625 
Q 35.546875 2.25 31.03125 0.53125 
Q 26.515625 -1.171875 21.34375 -1.171875 
Q 12.796875 -1.171875 8.203125 3 
Q 3.609375 7.171875 3.609375 13.671875 
Q 3.609375 17.484375 5.34375 20.625 
Q 7.078125 23.78125 9.890625 25.6875 
Q 12.703125 27.59375 16.21875 28.5625 
Q 18.796875 29.25 24.03125 29.890625 
Q 34.671875 31.15625 39.703125 32.90625 
Q 39.75 34.71875 39.75 35.203125 
Q 39.75 40.578125 37.25 42.78125 
Q 33.890625 45.75 27.25 45.75 
Q 21.046875 45.75 18.09375 43.578125 
Q 15.140625 41.40625 13.71875 35.890625 
L 5.125 37.0625 
Q 6.296875 42.578125 8.984375 45.96875 
Q 11.671875 49.359375 16.75 51.1875 
Q 21.828125 53.03125 28.515625 53.03125 
Q 35.15625 53.03125 39.296875 51.46875 
Q 43.453125 49.90625 45.40625 47.53125 
Q 47.359375 45.171875 48.140625 41.546875 
Q 48.578125 39.3125 48.578125 33.453125 
L 48.578125 21.734375 
Q 48.578125 9.46875 49.140625 6.21875 
Q 49.703125 2.984375 51.375 0 
L 42.1875 0 
Q 40.828125 2.734375 40.4375 6.390625 
z
M 39.703125 26.03125 
Q 34.90625 24.078125 25.34375 22.703125 
Q 19.921875 21.921875 17.671875 20.9375 
Q 15.4375 19.96875 14.203125 18.09375 
Q 12.984375 16.21875 12.984375 13.921875 
Q 12.984375 10.40625 15.640625 8.0625 
Q 18.3125 5.71875 23.4375 5.71875 
Q 28.515625 5.71875 32.46875 7.9375 
Q 36.421875 10.15625 38.28125 14.015625 
Q 39.703125 17 39.703125 22.796875 
z
" id="ArialMT-97"/>
       <path d="M 6.203125 -19.96875 
L 5.21875 -11.71875 
Q 8.109375 -12.5 10.25 -12.5 
Q 13.1875 -12.5 14.9375 -11.515625 
Q 16.703125 -10.546875 17.828125 -8.796875 
Q 18.65625 -7.46875 20.515625 -2.25 
Q 20.75 -1.515625 21.296875 -0.09375 
L 1.609375 51.859375 
L 11.078125 51.859375 
L 21.875 21.828125 
Q 23.96875 16.109375 25.640625 9.8125 
Q 27.15625 15.875 29.25 21.625 
L 40.328125 51.859375 
L 49.125 51.859375 
L 29.390625 -0.875 
Q 26.21875 -9.421875 24.46875 -12.640625 
Q 22.125 -17 19.09375 -19.015625 
Q 16.0625 -21.046875 11.859375 -21.046875 
Q 9.328125 -21.046875 6.203125 -19.96875 
z
" id="ArialMT-121"/>
      </defs>
      <g style="fill:#262626;" transform="translate(64.55214 383.048863)scale(0.14 -0.14)">
       <use xlink:href="#ArialMT-77"/>
       <use x="83.300781" xlink:href="#ArialMT-111"/>
       <use x="138.916016" xlink:href="#ArialMT-110"/>
       <use x="194.53125" xlink:href="#ArialMT-100"/>
       <use x="250.146484" xlink:href="#ArialMT-97"/>
       <use x="305.761719" xlink:href="#ArialMT-121"/>
      </g>
     </g>
    </g>
    <g id="xtick_2">
     <g id="line2d_2"/>
     <g id="text_2">
      <!-- Tuesday -->
      <defs>
       <path d="M 25.921875 0 
L 25.921875 63.140625 
L 2.34375 63.140625 
L 2.34375 71.578125 
L 59.078125 71.578125 
L 59.078125 63.140625 
L 35.40625 63.140625 
L 35.40625 0 
z
" id="ArialMT-84"/>
       <path d="M 40.578125 0 
L 40.578125 7.625 
Q 34.515625 -1.171875 24.125 -1.171875 
Q 19.53125 -1.171875 15.546875 0.578125 
Q 11.578125 2.34375 9.640625 5 
Q 7.71875 7.671875 6.9375 11.53125 
Q 6.390625 14.109375 6.390625 19.734375 
L 6.390625 51.859375 
L 15.1875 51.859375 
L 15.1875 23.09375 
Q 15.1875 16.21875 15.71875 13.8125 
Q 16.546875 10.359375 19.234375 8.375 
Q 21.921875 6.390625 25.875 6.390625 
Q 29.828125 6.390625 33.296875 8.421875 
Q 36.765625 10.453125 38.203125 13.9375 
Q 39.65625 17.4375 39.65625 24.078125 
L 39.65625 51.859375 
L 48.4375 51.859375 
L 48.4375 0 
z
" id="ArialMT-117"/>
       <path d="M 42.09375 16.703125 
L 51.171875 15.578125 
Q 49.03125 7.625 43.21875 3.21875 
Q 37.40625 -1.171875 28.375 -1.171875 
Q 17 -1.171875 10.328125 5.828125 
Q 3.65625 12.84375 3.65625 25.484375 
Q 3.65625 38.578125 10.390625 45.796875 
Q 17.140625 53.03125 27.875 53.03125 
Q 38.28125 53.03125 44.875 45.953125 
Q 51.46875 38.875 51.46875 26.03125 
Q 51.46875 25.25 51.421875 23.6875 
L 12.75 23.6875 
Q 13.234375 15.140625 17.578125 10.59375 
Q 21.921875 6.0625 28.421875 6.0625 
Q 33.25 6.0625 36.671875 8.59375 
Q 40.09375 11.140625 42.09375 16.703125 
z
M 13.234375 30.90625 
L 42.1875 30.90625 
Q 41.609375 37.453125 38.875 40.71875 
Q 34.671875 45.796875 27.984375 45.796875 
Q 21.921875 45.796875 17.796875 41.75 
Q 13.671875 37.703125 13.234375 30.90625 
z
" id="ArialMT-101"/>
       <path d="M 3.078125 15.484375 
L 11.765625 16.84375 
Q 12.5 11.625 15.84375 8.84375 
Q 19.1875 6.0625 25.203125 6.0625 
Q 31.25 6.0625 34.171875 8.515625 
Q 37.109375 10.984375 37.109375 14.3125 
Q 37.109375 17.28125 34.515625 19 
Q 32.71875 20.171875 25.53125 21.96875 
Q 15.875 24.421875 12.140625 26.203125 
Q 8.40625 27.984375 6.46875 31.125 
Q 4.546875 34.28125 4.546875 38.09375 
Q 4.546875 41.546875 6.125 44.5 
Q 7.71875 47.46875 10.453125 49.421875 
Q 12.5 50.921875 16.03125 51.96875 
Q 19.578125 53.03125 23.640625 53.03125 
Q 29.734375 53.03125 34.34375 51.265625 
Q 38.96875 49.515625 41.15625 46.5 
Q 43.359375 43.5 44.1875 38.484375 
L 35.59375 37.3125 
Q 35.015625 41.3125 32.203125 43.546875 
Q 29.390625 45.796875 24.265625 45.796875 
Q 18.21875 45.796875 15.625 43.796875 
Q 13.03125 41.796875 13.03125 39.109375 
Q 13.03125 37.40625 14.109375 36.03125 
Q 15.1875 34.625 17.484375 33.6875 
Q 18.796875 33.203125 25.25 31.453125 
Q 34.578125 28.953125 38.25 27.359375 
Q 41.9375 25.78125 44.03125 22.75 
Q 46.140625 19.734375 46.140625 15.234375 
Q 46.140625 10.84375 43.578125 6.953125 
Q 41.015625 3.078125 36.171875 0.953125 
Q 31.34375 -1.171875 25.25 -1.171875 
Q 15.140625 -1.171875 9.84375 3.03125 
Q 4.546875 7.234375 3.078125 15.484375 
z
" id="ArialMT-115"/>
      </defs>
      <g style="fill:#262626;" transform="translate(158.527096 383.048863)scale(0.14 -0.14)">
       <use xlink:href="#ArialMT-84"/>
       <use x="57.333984" xlink:href="#ArialMT-117"/>
       <use x="112.949219" xlink:href="#ArialMT-101"/>
       <use x="168.564453" xlink:href="#ArialMT-115"/>
       <use x="218.564453" xlink:href="#ArialMT-100"/>
       <use x="274.179688" xlink:href="#ArialMT-97"/>
       <use x="329.794922" xlink:href="#ArialMT-121"/>
      </g>
     </g>
    </g>
    <g id="xtick_3">
     <g id="line2d_3"/>
     <g id="text_3">
      <!-- Wednesday -->
      <defs>
       <path d="M 20.21875 0 
L 1.21875 71.578125 
L 10.9375 71.578125 
L 21.828125 24.65625 
Q 23.578125 17.28125 24.859375 10.015625 
Q 27.59375 21.484375 28.078125 23.25 
L 41.703125 71.578125 
L 53.125 71.578125 
L 63.375 35.359375 
Q 67.234375 21.875 68.953125 10.015625 
Q 70.3125 16.796875 72.515625 25.59375 
L 83.734375 71.578125 
L 93.265625 71.578125 
L 73.640625 0 
L 64.5 0 
L 49.421875 54.546875 
Q 47.515625 61.375 47.171875 62.9375 
Q 46.046875 58.015625 45.0625 54.546875 
L 29.890625 0 
z
" id="ArialMT-87"/>
      </defs>
      <g style="fill:#262626;" transform="translate(243.927051 383.048863)scale(0.14 -0.14)">
       <use xlink:href="#ArialMT-87"/>
       <use x="92.634766" xlink:href="#ArialMT-101"/>
       <use x="148.25" xlink:href="#ArialMT-100"/>
       <use x="203.865234" xlink:href="#ArialMT-110"/>
       <use x="259.480469" xlink:href="#ArialMT-101"/>
       <use x="315.095703" xlink:href="#ArialMT-115"/>
       <use x="365.095703" xlink:href="#ArialMT-100"/>
       <use x="420.710938" xlink:href="#ArialMT-97"/>
       <use x="476.326172" xlink:href="#ArialMT-121"/>
      </g>
     </g>
    </g>
    <g id="xtick_4">
     <g id="line2d_4"/>
     <g id="text_4">
      <!-- Thursday -->
      <defs>
       <path d="M 6.59375 0 
L 6.59375 71.578125 
L 15.375 71.578125 
L 15.375 45.90625 
Q 21.53125 53.03125 30.90625 53.03125 
Q 36.671875 53.03125 40.921875 50.75 
Q 45.171875 48.484375 47 44.484375 
Q 48.828125 40.484375 48.828125 32.859375 
L 48.828125 0 
L 40.046875 0 
L 40.046875 32.859375 
Q 40.046875 39.453125 37.1875 42.453125 
Q 34.328125 45.453125 29.109375 45.453125 
Q 25.203125 45.453125 21.75 43.421875 
Q 18.3125 41.40625 16.84375 37.9375 
Q 15.375 34.46875 15.375 28.375 
L 15.375 0 
z
" id="ArialMT-104"/>
       <path d="M 6.5 0 
L 6.5 51.859375 
L 14.40625 51.859375 
L 14.40625 44 
Q 17.4375 49.515625 20 51.265625 
Q 22.5625 53.03125 25.640625 53.03125 
Q 30.078125 53.03125 34.671875 50.203125 
L 31.640625 42.046875 
Q 28.421875 43.953125 25.203125 43.953125 
Q 22.3125 43.953125 20.015625 42.21875 
Q 17.71875 40.484375 16.75 37.40625 
Q 15.28125 32.71875 15.28125 27.15625 
L 15.28125 0 
z
" id="ArialMT-114"/>
      </defs>
      <g style="fill:#262626;" transform="translate(347.2481 383.048863)scale(0.14 -0.14)">
       <use xlink:href="#ArialMT-84"/>
       <use x="61.083984" xlink:href="#ArialMT-104"/>
       <use x="116.699219" xlink:href="#ArialMT-117"/>
       <use x="172.314453" xlink:href="#ArialMT-114"/>
       <use x="205.615234" xlink:href="#ArialMT-115"/>
       <use x="255.615234" xlink:href="#ArialMT-100"/>
       <use x="311.230469" xlink:href="#ArialMT-97"/>
       <use x="366.845703" xlink:href="#ArialMT-121"/>
      </g>
     </g>
    </g>
    <g id="xtick_5">
     <g id="line2d_5"/>
     <g id="text_5">
      <!-- Friday -->
      <defs>
       <path d="M 8.203125 0 
L 8.203125 71.578125 
L 56.5 71.578125 
L 56.5 63.140625 
L 17.671875 63.140625 
L 17.671875 40.96875 
L 51.265625 40.96875 
L 51.265625 32.515625 
L 17.671875 32.515625 
L 17.671875 0 
z
" id="ArialMT-70"/>
       <path d="M 6.640625 61.46875 
L 6.640625 71.578125 
L 15.4375 71.578125 
L 15.4375 61.46875 
z
M 6.640625 0 
L 6.640625 51.859375 
L 15.4375 51.859375 
L 15.4375 0 
z
" id="ArialMT-105"/>
      </defs>
      <g style="fill:#262626;" transform="translate(452.635243 383.048863)scale(0.14 -0.14)">
       <use xlink:href="#ArialMT-70"/>
       <use x="61.083984" xlink:href="#ArialMT-114"/>
       <use x="94.384766" xlink:href="#ArialMT-105"/>
       <use x="116.601562" xlink:href="#ArialMT-100"/>
       <use x="172.216797" xlink:href="#ArialMT-97"/>
       <use x="227.832031" xlink:href="#ArialMT-121"/>
      </g>
     </g>
    </g>
    <g id="xtick_6">
     <g id="line2d_6"/>
     <g id="text_6">
      <!-- Saturday -->
      <defs>
       <path d="M 4.5 23 
L 13.421875 23.78125 
Q 14.0625 18.40625 16.375 14.96875 
Q 18.703125 11.53125 23.578125 9.40625 
Q 28.46875 7.28125 34.578125 7.28125 
Q 39.984375 7.28125 44.140625 8.890625 
Q 48.296875 10.5 50.3125 13.296875 
Q 52.34375 16.109375 52.34375 19.4375 
Q 52.34375 22.796875 50.390625 25.3125 
Q 48.4375 27.828125 43.953125 29.546875 
Q 41.0625 30.671875 31.203125 33.03125 
Q 21.34375 35.40625 17.390625 37.5 
Q 12.25 40.1875 9.734375 44.15625 
Q 7.234375 48.140625 7.234375 53.078125 
Q 7.234375 58.5 10.296875 63.203125 
Q 13.375 67.921875 19.28125 70.359375 
Q 25.203125 72.796875 32.421875 72.796875 
Q 40.375 72.796875 46.453125 70.234375 
Q 52.546875 67.671875 55.8125 62.6875 
Q 59.078125 57.71875 59.328125 51.421875 
L 50.25 50.734375 
Q 49.515625 57.515625 45.28125 60.984375 
Q 41.0625 64.453125 32.8125 64.453125 
Q 24.21875 64.453125 20.28125 61.296875 
Q 16.359375 58.15625 16.359375 53.71875 
Q 16.359375 49.859375 19.140625 47.359375 
Q 21.875 44.875 33.421875 42.265625 
Q 44.96875 39.65625 49.265625 37.703125 
Q 55.515625 34.8125 58.484375 30.390625 
Q 61.46875 25.984375 61.46875 20.21875 
Q 61.46875 14.5 58.203125 9.4375 
Q 54.9375 4.390625 48.796875 1.578125 
Q 42.671875 -1.21875 35.015625 -1.21875 
Q 25.296875 -1.21875 18.71875 1.609375 
Q 12.15625 4.4375 8.421875 10.125 
Q 4.6875 15.828125 4.5 23 
z
" id="ArialMT-83"/>
       <path d="M 25.78125 7.859375 
L 27.046875 0.09375 
Q 23.34375 -0.6875 20.40625 -0.6875 
Q 15.625 -0.6875 12.984375 0.828125 
Q 10.359375 2.34375 9.28125 4.8125 
Q 8.203125 7.28125 8.203125 15.1875 
L 8.203125 45.015625 
L 1.765625 45.015625 
L 1.765625 51.859375 
L 8.203125 51.859375 
L 8.203125 64.703125 
L 16.9375 69.96875 
L 16.9375 51.859375 
L 25.78125 51.859375 
L 25.78125 45.015625 
L 16.9375 45.015625 
L 16.9375 14.703125 
Q 16.9375 10.9375 17.40625 9.859375 
Q 17.875 8.796875 18.921875 8.15625 
Q 19.96875 7.515625 21.921875 7.515625 
Q 23.390625 7.515625 25.78125 7.859375 
z
" id="ArialMT-116"/>
      </defs>
      <g style="fill:#262626;" transform="translate(539.723948 383.219488)scale(0.14 -0.14)">
       <use xlink:href="#ArialMT-83"/>
       <use x="66.699219" xlink:href="#ArialMT-97"/>
       <use x="122.314453" xlink:href="#ArialMT-116"/>
       <use x="150.097656" xlink:href="#ArialMT-117"/>
       <use x="205.712891" xlink:href="#ArialMT-114"/>
       <use x="239.013672" xlink:href="#ArialMT-100"/>
       <use x="294.628906" xlink:href="#ArialMT-97"/>
       <use x="350.244141" xlink:href="#ArialMT-121"/>
      </g>
     </g>
    </g>
    <g id="xtick_7">
     <g id="line2d_7"/>
     <g id="text_7">
      <!-- Sunday -->
      <g style="fill:#262626;" transform="translate(639.65656 383.219488)scale(0.14 -0.14)">
       <use xlink:href="#ArialMT-83"/>
       <use x="66.699219" xlink:href="#ArialMT-117"/>
       <use x="122.314453" xlink:href="#ArialMT-110"/>
       <use x="177.929688" xlink:href="#ArialMT-100"/>
       <use x="233.544922" xlink:href="#ArialMT-97"/>
       <use x="289.160156" xlink:href="#ArialMT-121"/>
      </g>
     </g>
    </g>
   </g>
   <g id="matplotlib.axis_2">
    <g id="ytick_1">
     <g id="line2d_8"/>
     <g id="text_8">
      <!-- 10 -->
      <defs>
       <path d="M 37.25 0 
L 28.46875 0 
L 28.46875 56 
Q 25.296875 52.984375 20.140625 49.953125 
Q 14.984375 46.921875 10.890625 45.40625 
L 10.890625 53.90625 
Q 18.265625 57.375 23.78125 62.296875 
Q 29.296875 67.234375 31.59375 71.875 
L 37.25 71.875 
z
" id="ArialMT-49"/>
       <path d="M 4.15625 35.296875 
Q 4.15625 48 6.765625 55.734375 
Q 9.375 63.484375 14.515625 67.671875 
Q 19.671875 71.875 27.484375 71.875 
Q 33.25 71.875 37.59375 69.546875 
Q 41.9375 67.234375 44.765625 62.859375 
Q 47.609375 58.5 49.21875 52.21875 
Q 50.828125 45.953125 50.828125 35.296875 
Q 50.828125 22.703125 48.234375 14.96875 
Q 45.65625 7.234375 40.5 3 
Q 35.359375 -1.21875 27.484375 -1.21875 
Q 17.140625 -1.21875 11.234375 6.203125 
Q 4.15625 15.140625 4.15625 35.296875 
z
M 13.1875 35.296875 
Q 13.1875 17.671875 17.3125 11.828125 
Q 21.4375 6 27.484375 6 
Q 33.546875 6 37.671875 11.859375 
Q 41.796875 17.71875 41.796875 35.296875 
Q 41.796875 52.984375 37.671875 58.78125 
Q 33.546875 64.59375 27.390625 64.59375 
Q 21.34375 64.59375 17.71875 59.46875 
Q 13.1875 52.9375 13.1875 35.296875 
z
" id="ArialMT-48"/>
      </defs>
      <g style="fill:#262626;" transform="translate(27.0031 333.22427)scale(0.1 -0.1)">
       <use xlink:href="#ArialMT-49"/>
       <use x="55.615234" xlink:href="#ArialMT-48"/>
      </g>
     </g>
    </g>
    <g id="ytick_2">
     <g id="line2d_9"/>
     <g id="text_9">
      <!-- 20 -->
      <defs>
       <path d="M 50.34375 8.453125 
L 50.34375 0 
L 3.03125 0 
Q 2.9375 3.171875 4.046875 6.109375 
Q 5.859375 10.9375 9.828125 15.625 
Q 13.8125 20.3125 21.34375 26.46875 
Q 33.015625 36.03125 37.109375 41.625 
Q 41.21875 47.21875 41.21875 52.203125 
Q 41.21875 57.421875 37.46875 61 
Q 33.734375 64.59375 27.734375 64.59375 
Q 21.390625 64.59375 17.578125 60.78125 
Q 13.765625 56.984375 13.71875 50.25 
L 4.6875 51.171875 
Q 5.609375 61.28125 11.65625 66.578125 
Q 17.71875 71.875 27.9375 71.875 
Q 38.234375 71.875 44.234375 66.15625 
Q 50.25 60.453125 50.25 52 
Q 50.25 47.703125 48.484375 43.546875 
Q 46.734375 39.40625 42.65625 34.8125 
Q 38.578125 30.21875 29.109375 22.21875 
Q 21.1875 15.578125 18.9375 13.203125 
Q 16.703125 10.84375 15.234375 8.453125 
z
" id="ArialMT-50"/>
      </defs>
      <g style="fill:#262626;" transform="translate(27.0031 291.462427)scale(0.1 -0.1)">
       <use xlink:href="#ArialMT-50"/>
       <use x="55.615234" xlink:href="#ArialMT-48"/>
      </g>
     </g>
    </g>
    <g id="ytick_3">
     <g id="line2d_10"/>
     <g id="text_10">
      <!-- 30 -->
      <defs>
       <path d="M 4.203125 18.890625 
L 12.984375 20.0625 
Q 14.5 12.59375 18.140625 9.296875 
Q 21.78125 6 27 6 
Q 33.203125 6 37.46875 10.296875 
Q 41.75 14.59375 41.75 20.953125 
Q 41.75 27 37.796875 30.921875 
Q 33.84375 34.859375 27.734375 34.859375 
Q 25.25 34.859375 21.53125 33.890625 
L 22.515625 41.609375 
Q 23.390625 41.5 23.921875 41.5 
Q 29.546875 41.5 34.03125 44.421875 
Q 38.53125 47.359375 38.53125 53.46875 
Q 38.53125 58.296875 35.25 61.46875 
Q 31.984375 64.65625 26.8125 64.65625 
Q 21.6875 64.65625 18.265625 61.421875 
Q 14.84375 58.203125 13.875 51.765625 
L 5.078125 53.328125 
Q 6.6875 62.15625 12.390625 67.015625 
Q 18.109375 71.875 26.609375 71.875 
Q 32.46875 71.875 37.390625 69.359375 
Q 42.328125 66.84375 44.9375 62.5 
Q 47.5625 58.15625 47.5625 53.265625 
Q 47.5625 48.640625 45.0625 44.828125 
Q 42.578125 41.015625 37.703125 38.765625 
Q 44.046875 37.3125 47.5625 32.6875 
Q 51.078125 28.078125 51.078125 21.140625 
Q 51.078125 11.765625 44.234375 5.25 
Q 37.40625 -1.265625 26.953125 -1.265625 
Q 17.53125 -1.265625 11.296875 4.34375 
Q 5.078125 9.96875 4.203125 18.890625 
z
" id="ArialMT-51"/>
      </defs>
      <g style="fill:#262626;" transform="translate(27.0031 249.700583)scale(0.1 -0.1)">
       <use xlink:href="#ArialMT-51"/>
       <use x="55.615234" xlink:href="#ArialMT-48"/>
      </g>
     </g>
    </g>
    <g id="ytick_4">
     <g id="line2d_11"/>
     <g id="text_11">
      <!-- 40 -->
      <defs>
       <path d="M 32.328125 0 
L 32.328125 17.140625 
L 1.265625 17.140625 
L 1.265625 25.203125 
L 33.9375 71.578125 
L 41.109375 71.578125 
L 41.109375 25.203125 
L 50.78125 25.203125 
L 50.78125 17.140625 
L 41.109375 17.140625 
L 41.109375 0 
z
M 32.328125 25.203125 
L 32.328125 57.46875 
L 9.90625 25.203125 
z
" id="ArialMT-52"/>
      </defs>
      <g style="fill:#262626;" transform="translate(27.0031 207.938739)scale(0.1 -0.1)">
       <use xlink:href="#ArialMT-52"/>
       <use x="55.615234" xlink:href="#ArialMT-48"/>
      </g>
     </g>
    </g>
    <g id="ytick_5">
     <g id="line2d_12"/>
     <g id="text_12">
      <!-- 50 -->
      <defs>
       <path d="M 4.15625 18.75 
L 13.375 19.53125 
Q 14.40625 12.796875 18.140625 9.390625 
Q 21.875 6 27.15625 6 
Q 33.5 6 37.890625 10.78125 
Q 42.28125 15.578125 42.28125 23.484375 
Q 42.28125 31 38.0625 35.34375 
Q 33.84375 39.703125 27 39.703125 
Q 22.75 39.703125 19.328125 37.765625 
Q 15.921875 35.84375 13.96875 32.765625 
L 5.71875 33.84375 
L 12.640625 70.609375 
L 48.25 70.609375 
L 48.25 62.203125 
L 19.671875 62.203125 
L 15.828125 42.96875 
Q 22.265625 47.46875 29.34375 47.46875 
Q 38.71875 47.46875 45.15625 40.96875 
Q 51.609375 34.46875 51.609375 24.265625 
Q 51.609375 14.546875 45.953125 7.46875 
Q 39.0625 -1.21875 27.15625 -1.21875 
Q 17.390625 -1.21875 11.203125 4.25 
Q 5.03125 9.71875 4.15625 18.75 
z
" id="ArialMT-53"/>
      </defs>
      <g style="fill:#262626;" transform="translate(27.0031 166.176895)scale(0.1 -0.1)">
       <use xlink:href="#ArialMT-53"/>
       <use x="55.615234" xlink:href="#ArialMT-48"/>
      </g>
     </g>
    </g>
    <g id="ytick_6">
     <g id="line2d_13"/>
     <g id="text_13">
      <!-- 60 -->
      <defs>
       <path d="M 49.75 54.046875 
L 41.015625 53.375 
Q 39.84375 58.546875 37.703125 60.890625 
Q 34.125 64.65625 28.90625 64.65625 
Q 24.703125 64.65625 21.53125 62.3125 
Q 17.390625 59.28125 14.984375 53.46875 
Q 12.59375 47.65625 12.5 36.921875 
Q 15.671875 41.75 20.265625 44.09375 
Q 24.859375 46.4375 29.890625 46.4375 
Q 38.671875 46.4375 44.84375 39.96875 
Q 51.03125 33.5 51.03125 23.25 
Q 51.03125 16.5 48.125 10.71875 
Q 45.21875 4.9375 40.140625 1.859375 
Q 35.0625 -1.21875 28.609375 -1.21875 
Q 17.625 -1.21875 10.6875 6.859375 
Q 3.765625 14.9375 3.765625 33.5 
Q 3.765625 54.25 11.421875 63.671875 
Q 18.109375 71.875 29.4375 71.875 
Q 37.890625 71.875 43.28125 67.140625 
Q 48.6875 62.40625 49.75 54.046875 
z
M 13.875 23.1875 
Q 13.875 18.65625 15.796875 14.5 
Q 17.71875 10.359375 21.1875 8.171875 
Q 24.65625 6 28.46875 6 
Q 34.03125 6 38.03125 10.484375 
Q 42.046875 14.984375 42.046875 22.703125 
Q 42.046875 30.125 38.078125 34.390625 
Q 34.125 38.671875 28.125 38.671875 
Q 22.171875 38.671875 18.015625 34.390625 
Q 13.875 30.125 13.875 23.1875 
z
" id="ArialMT-54"/>
      </defs>
      <g style="fill:#262626;" transform="translate(27.0031 124.415051)scale(0.1 -0.1)">
       <use xlink:href="#ArialMT-54"/>
       <use x="55.615234" xlink:href="#ArialMT-48"/>
      </g>
     </g>
    </g>
    <g id="ytick_7">
     <g id="line2d_14"/>
     <g id="text_14">
      <!-- 70 -->
      <defs>
       <path d="M 4.734375 62.203125 
L 4.734375 70.65625 
L 51.078125 70.65625 
L 51.078125 63.8125 
Q 44.234375 56.546875 37.515625 44.484375 
Q 30.8125 32.421875 27.15625 19.671875 
Q 24.515625 10.6875 23.78125 0 
L 14.75 0 
Q 14.890625 8.453125 18.0625 20.40625 
Q 21.234375 32.375 27.171875 43.484375 
Q 33.109375 54.59375 39.796875 62.203125 
z
" id="ArialMT-55"/>
      </defs>
      <g style="fill:#262626;" transform="translate(27.0031 82.653208)scale(0.1 -0.1)">
       <use xlink:href="#ArialMT-55"/>
       <use x="55.615234" xlink:href="#ArialMT-48"/>
      </g>
     </g>
    </g>
    <g id="text_15">
     <!-- Crashes -->
     <defs>
      <path d="M 58.796875 25.09375 
L 68.265625 22.703125 
Q 65.28125 11.03125 57.546875 4.90625 
Q 49.8125 -1.21875 38.625 -1.21875 
Q 27.046875 -1.21875 19.796875 3.484375 
Q 12.546875 8.203125 8.765625 17.140625 
Q 4.984375 26.078125 4.984375 36.328125 
Q 4.984375 47.515625 9.25 55.828125 
Q 13.53125 64.15625 21.40625 68.46875 
Q 29.296875 72.796875 38.765625 72.796875 
Q 49.515625 72.796875 56.828125 67.328125 
Q 64.15625 61.859375 67.046875 51.953125 
L 57.71875 49.75 
Q 55.21875 57.5625 50.484375 61.125 
Q 45.75 64.703125 38.578125 64.703125 
Q 30.328125 64.703125 24.78125 60.734375 
Q 19.234375 56.78125 16.984375 50.109375 
Q 14.75 43.453125 14.75 36.375 
Q 14.75 27.25 17.40625 20.4375 
Q 20.0625 13.625 25.671875 10.25 
Q 31.296875 6.890625 37.84375 6.890625 
Q 45.796875 6.890625 51.3125 11.46875 
Q 56.84375 16.0625 58.796875 25.09375 
z
" id="ArialMT-67"/>
     </defs>
     <g style="fill:#262626;" transform="translate(19.5687 238.618425)rotate(-90)scale(0.1728 -0.1728)">
      <use xlink:href="#ArialMT-67"/>
      <use x="72.216797" xlink:href="#ArialMT-114"/>
      <use x="105.517578" xlink:href="#ArialMT-97"/>
      <use x="161.132812" xlink:href="#ArialMT-115"/>
      <use x="211.132812" xlink:href="#ArialMT-104"/>
      <use x="266.748047" xlink:href="#ArialMT-101"/>
      <use x="322.363281" xlink:href="#ArialMT-115"/>
     </g>
    </g>
   </g>
   <g id="PolyCollection_1">
    <defs>
     <path d="M 90.12531 -47.015948 
L 88.781782 -47.015948 
L 88.683124 -49.462602 
L 88.591821 -51.909255 
L 88.507219 -54.355909 
L 88.424863 -56.802562 
L 88.336738 -59.249216 
L 88.232426 -61.695869 
L 88.101048 -64.142523 
L 87.933615 -66.589176 
L 87.72518 -69.03583 
L 87.476148 -71.482483 
L 87.192213 -73.929137 
L 86.882749 -76.37579 
L 86.557954 -78.822443 
L 86.2255 -81.269097 
L 85.887635 -83.71575 
L 85.539612 -86.162404 
L 85.169923 -88.609057 
L 84.762227 -91.055711 
L 84.298412 -93.502364 
L 83.761913 -95.949018 
L 83.140507 -98.395671 
L 82.428051 -100.842325 
L 81.625089 -103.288978 
L 80.738575 -105.735632 
L 79.781154 -108.182285 
L 78.77039 -110.628939 
L 77.72811 -113.075592 
L 76.679713 -115.522246 
L 75.65304 -117.968899 
L 74.676318 -120.415553 
L 73.774925 -122.862206 
L 72.967172 -125.308859 
L 72.259893 -127.755513 
L 71.645135 -130.202166 
L 71.099313 -132.64882 
L 70.585805 -135.095473 
L 70.061004 -137.542127 
L 69.48276 -139.98878 
L 68.819168 -142.435434 
L 68.055361 -144.882087 
L 67.196379 -147.328741 
L 66.265325 -149.775394 
L 65.297476 -152.222048 
L 64.33222 -154.668701 
L 63.405253 -157.115355 
L 62.543156 -159.562008 
L 61.761403 -162.008662 
L 61.065606 -164.455315 
L 60.454791 -166.901969 
L 59.925212 -169.348622 
L 59.473527 -171.795276 
L 59.098846 -174.241929 
L 58.803698 -176.688582 
L 58.594101 -179.135236 
L 58.478834 -181.581889 
L 58.46789 -184.028543 
L 58.570328 -186.475196 
L 58.792166 -188.92185 
L 59.13528 -191.368503 
L 59.598055 -193.815157 
L 60.177709 -196.26181 
L 60.873168 -198.708464 
L 61.686746 -201.155117 
L 62.623204 -203.601771 
L 63.685995 -206.048424 
L 64.872013 -208.495078 
L 66.167145 -210.941731 
L 67.544796 -213.388385 
L 68.968339 -215.835038 
L 70.396817 -218.281692 
L 71.791942 -220.728345 
L 73.124122 -223.174998 
L 74.375824 -225.621652 
L 75.541747 -228.068305 
L 76.626311 -230.514959 
L 77.639615 -232.961612 
L 78.59312 -235.408266 
L 79.496072 -237.854919 
L 80.353302 -240.301573 
L 81.164684 -242.748226 
L 81.926135 -245.19488 
L 82.631727 -247.641533 
L 83.276182 -250.088187 
L 83.856963 -252.53484 
L 84.375309 -254.981494 
L 84.835993 -257.428147 
L 85.246072 -259.874801 
L 85.613236 -262.321454 
L 85.944458 -264.768108 
L 86.245419 -267.214761 
L 86.520761 -269.661414 
L 86.774839 -272.108068 
L 87.012428 -274.554721 
L 87.238918 -277.001375 
L 87.459787 -279.448028 
L 87.679523 -281.894682 
L 87.900426 -284.341335 
L 88.121819 -286.787989 
L 88.340011 -289.234642 
L 90.567082 -289.234642 
L 90.567082 -289.234642 
L 90.785273 -286.787989 
L 91.006667 -284.341335 
L 91.22757 -281.894682 
L 91.447305 -279.448028 
L 91.668175 -277.001375 
L 91.894665 -274.554721 
L 92.132254 -272.108068 
L 92.386331 -269.661414 
L 92.661674 -267.214761 
L 92.962635 -264.768108 
L 93.293857 -262.321454 
L 93.661021 -259.874801 
L 94.0711 -257.428147 
L 94.531784 -254.981494 
L 95.05013 -252.53484 
L 95.630911 -250.088187 
L 96.275366 -247.641533 
L 96.980958 -245.19488 
L 97.742409 -242.748226 
L 98.553791 -240.301573 
L 99.411021 -237.854919 
L 100.313972 -235.408266 
L 101.267478 -232.961612 
L 102.280782 -230.514959 
L 103.365346 -228.068305 
L 104.531269 -225.621652 
L 105.782971 -223.174998 
L 107.115151 -220.728345 
L 108.510276 -218.281692 
L 109.938754 -215.835038 
L 111.362297 -213.388385 
L 112.739948 -210.941731 
L 114.03508 -208.495078 
L 115.221098 -206.048424 
L 116.283889 -203.601771 
L 117.220347 -201.155117 
L 118.033925 -198.708464 
L 118.729384 -196.26181 
L 119.309038 -193.815157 
L 119.771813 -191.368503 
L 120.114927 -188.92185 
L 120.336765 -186.475196 
L 120.439203 -184.028543 
L 120.428259 -181.581889 
L 120.312992 -179.135236 
L 120.103395 -176.688582 
L 119.808247 -174.241929 
L 119.433566 -171.795276 
L 118.98188 -169.348622 
L 118.452302 -166.901969 
L 117.841487 -164.455315 
L 117.14569 -162.008662 
L 116.363937 -159.562008 
L 115.50184 -157.115355 
L 114.574873 -154.668701 
L 113.609616 -152.222048 
L 112.641768 -149.775394 
L 111.710714 -147.328741 
L 110.851732 -144.882087 
L 110.087925 -142.435434 
L 109.424333 -139.98878 
L 108.846088 -137.542127 
L 108.321288 -135.095473 
L 107.80778 -132.64882 
L 107.261958 -130.202166 
L 106.6472 -127.755513 
L 105.939921 -125.308859 
L 105.132168 -122.862206 
L 104.230775 -120.415553 
L 103.254053 -117.968899 
L 102.22738 -115.522246 
L 101.178983 -113.075592 
L 100.136703 -110.628939 
L 99.125938 -108.182285 
L 98.168518 -105.735632 
L 97.282004 -103.288978 
L 96.479042 -100.842325 
L 95.766586 -98.395671 
L 95.145179 -95.949018 
L 94.608681 -93.502364 
L 94.144866 -91.055711 
L 93.73717 -88.609057 
L 93.367481 -86.162404 
L 93.019458 -83.71575 
L 92.681593 -81.269097 
L 92.349139 -78.822443 
L 92.024344 -76.37579 
L 91.71488 -73.929137 
L 91.430945 -71.482483 
L 91.181913 -69.03583 
L 90.973478 -66.589176 
L 90.806045 -64.142523 
L 90.674667 -61.695869 
L 90.570355 -59.249216 
L 90.48223 -56.802562 
L 90.399874 -54.355909 
L 90.315272 -51.909255 
L 90.223969 -49.462602 
L 90.12531 -47.015948 
z
" id="m8a3562af1c" style="stroke:#353535;stroke-width:2;"/>
    </defs>
    <g clip-path="url(#p21c09ecde8)">
     <use style="fill:#367182;stroke:#353535;stroke-width:2;" x="0" xlink:href="#m8a3562af1c" y="393.36605"/>
    </g>
   </g>
   <g id="PolyCollection_2">
    <defs>
     <path d="M 186.063897 -55.368317 
L 184.157481 -55.368317 
L 183.98198 -58.15244 
L 183.813725 -60.936563 
L 183.657521 -63.720686 
L 183.514271 -66.504809 
L 183.380717 -69.288932 
L 183.250097 -72.073055 
L 183.113416 -74.857177 
L 182.960897 -77.6413 
L 182.783207 -80.425423 
L 182.572284 -83.209546 
L 182.321776 -85.993669 
L 182.027303 -88.777792 
L 181.686665 -91.561915 
L 181.3 -94.346038 
L 180.869727 -97.130161 
L 180.400022 -99.914284 
L 179.895726 -102.698407 
L 179.36078 -105.48253 
L 178.796612 -108.266653 
L 178.201005 -111.050775 
L 177.568045 -113.834898 
L 176.889455 -116.619021 
L 176.157237 -119.403144 
L 175.366978 -122.187267 
L 174.520843 -124.97139 
L 173.629128 -127.755513 
L 172.709563 -130.539636 
L 171.78421 -133.323759 
L 170.874565 -136.107882 
L 169.996191 -138.892005 
L 169.15449 -141.676128 
L 168.343032 -144.46025 
L 167.545127 -147.244373 
L 166.738261 -150.028496 
L 165.900116 -152.812619 
L 165.01443 -155.596742 
L 164.075215 -158.380865 
L 163.08861 -161.164988 
L 162.07251 -163.949111 
L 161.05463 -166.733234 
L 160.069682 -169.517357 
L 159.156033 -172.30148 
L 158.351849 -175.085603 
L 157.690629 -177.869726 
L 157.196277 -180.653848 
L 156.878316 -183.437971 
L 156.728395 -186.222094 
L 156.719548 -189.006217 
L 156.809549 -191.79034 
L 156.948898 -194.574463 
L 157.092529 -197.358586 
L 157.21258 -200.142709 
L 157.308291 -202.926832 
L 157.409114 -205.710955 
L 157.568868 -208.495078 
L 157.851835 -211.279201 
L 158.314943 -214.063323 
L 158.991996 -216.847446 
L 159.885325 -219.631569 
L 160.967385 -222.415692 
L 162.190867 -225.199815 
L 163.502776 -227.983938 
L 164.85694 -230.768061 
L 166.220845 -233.552184 
L 167.575691 -236.336307 
L 168.911479 -239.12043 
L 170.220556 -241.904553 
L 171.492844 -244.688676 
L 172.714402 -247.472798 
L 173.869092 -250.256921 
L 174.94182 -253.041044 
L 175.921544 -255.825167 
L 176.802892 -258.60929 
L 177.586176 -261.393413 
L 178.276329 -264.177536 
L 178.88155 -266.961659 
L 179.412229 -269.745782 
L 179.880323 -272.529905 
L 180.299012 -275.314028 
L 180.682306 -278.098151 
L 181.044313 -280.882274 
L 181.398013 -283.666396 
L 181.753625 -286.450519 
L 182.116864 -289.234642 
L 182.4876 -292.018765 
L 182.859456 -294.802888 
L 183.220706 -297.587011 
L 183.556458 -300.371134 
L 183.851685 -303.155257 
L 184.094364 -305.93938 
L 184.277943 -308.723503 
L 184.402582 -311.507626 
L 184.474983 -314.291749 
L 184.507 -317.075871 
L 184.513456 -319.859994 
L 184.509662 -322.644117 
L 184.509107 -325.42824 
L 184.521671 -328.212363 
L 184.552607 -330.996486 
L 185.668772 -330.996486 
L 185.668772 -330.996486 
L 185.699708 -328.212363 
L 185.712271 -325.42824 
L 185.711716 -322.644117 
L 185.707922 -319.859994 
L 185.714378 -317.075871 
L 185.746395 -314.291749 
L 185.818796 -311.507626 
L 185.943435 -308.723503 
L 186.127014 -305.93938 
L 186.369693 -303.155257 
L 186.66492 -300.371134 
L 187.000672 -297.587011 
L 187.361922 -294.802888 
L 187.733779 -292.018765 
L 188.104515 -289.234642 
L 188.467754 -286.450519 
L 188.823366 -283.666396 
L 189.177066 -280.882274 
L 189.539072 -278.098151 
L 189.922367 -275.314028 
L 190.341055 -272.529905 
L 190.809149 -269.745782 
L 191.339828 -266.961659 
L 191.945049 -264.177536 
L 192.635202 -261.393413 
L 193.418487 -258.60929 
L 194.299835 -255.825167 
L 195.279558 -253.041044 
L 196.352286 -250.256921 
L 197.506977 -247.472798 
L 198.728534 -244.688676 
L 200.000823 -241.904553 
L 201.3099 -239.12043 
L 202.645688 -236.336307 
L 204.000534 -233.552184 
L 205.364439 -230.768061 
L 206.718603 -227.983938 
L 208.030512 -225.199815 
L 209.253993 -222.415692 
L 210.336053 -219.631569 
L 211.229383 -216.847446 
L 211.906435 -214.063323 
L 212.369544 -211.279201 
L 212.652511 -208.495078 
L 212.812264 -205.710955 
L 212.913088 -202.926832 
L 213.008798 -200.142709 
L 213.128849 -197.358586 
L 213.272481 -194.574463 
L 213.41183 -191.79034 
L 213.50183 -189.006217 
L 213.492983 -186.222094 
L 213.343062 -183.437971 
L 213.025101 -180.653848 
L 212.530749 -177.869726 
L 211.869529 -175.085603 
L 211.065345 -172.30148 
L 210.151696 -169.517357 
L 209.166748 -166.733234 
L 208.148868 -163.949111 
L 207.132769 -161.164988 
L 206.146164 -158.380865 
L 205.206948 -155.596742 
L 204.321262 -152.812619 
L 203.483118 -150.028496 
L 202.676252 -147.244373 
L 201.878347 -144.46025 
L 201.066889 -141.676128 
L 200.225187 -138.892005 
L 199.346813 -136.107882 
L 198.437169 -133.323759 
L 197.511815 -130.539636 
L 196.59225 -127.755513 
L 195.700535 -124.97139 
L 194.854401 -122.187267 
L 194.064141 -119.403144 
L 193.331923 -116.619021 
L 192.653334 -113.834898 
L 192.020373 -111.050775 
L 191.424766 -108.266653 
L 190.860598 -105.48253 
L 190.325653 -102.698407 
L 189.821356 -99.914284 
L 189.351652 -97.130161 
L 188.921379 -94.346038 
L 188.534714 -91.561915 
L 188.194075 -88.777792 
L 187.899603 -85.993669 
L 187.649095 -83.209546 
L 187.438171 -80.425423 
L 187.260482 -77.6413 
L 187.107962 -74.857177 
L 186.971281 -72.073055 
L 186.840661 -69.288932 
L 186.707107 -66.504809 
L 186.563857 -63.720686 
L 186.407654 -60.936563 
L 186.239398 -58.15244 
L 186.063897 -55.368317 
z
" id="m9bba5d32db" style="stroke:#353535;stroke-width:2;"/>
    </defs>
    <g clip-path="url(#p21c09ecde8)">
     <use style="fill:#2f837f;stroke:#353535;stroke-width:2;" x="0" xlink:href="#m9bba5d32db" y="393.36605"/>
    </g>
   </g>
   <g id="PolyCollection_3">
    <defs>
     <path d="M 282.069226 -72.073055 
L 279.466439 -72.073055 
L 279.215272 -74.730626 
L 278.972967 -77.388198 
L 278.748593 -80.04577 
L 278.545452 -82.703342 
L 278.359488 -85.360914 
L 278.17925 -88.018486 
L 277.987525 -90.676058 
L 277.764265 -93.33363 
L 277.490043 -95.991201 
L 277.149118 -98.648773 
L 276.731379 -101.306345 
L 276.232808 -103.963917 
L 275.654643 -106.621489 
L 275.001726 -109.279061 
L 274.280768 -111.936633 
L 273.499064 -114.594205 
L 272.663979 -117.251776 
L 271.783105 -119.909348 
L 270.86473 -122.56692 
L 269.918163 -125.224492 
L 268.953605 -127.882064 
L 267.981551 -130.539636 
L 267.011991 -133.197208 
L 266.053773 -135.85478 
L 265.114372 -138.512352 
L 264.19998 -141.169923 
L 263.315566 -143.827495 
L 262.464515 -146.485067 
L 261.64776 -149.142639 
L 260.862793 -151.800211 
L 260.103292 -154.457783 
L 259.360057 -157.115355 
L 258.623396 -159.772927 
L 257.886351 -162.430498 
L 257.147608 -165.08807 
L 256.412911 -167.745642 
L 255.694372 -170.403214 
L 255.00793 -173.060786 
L 254.369892 -175.718358 
L 253.793739 -178.37593 
L 253.288109 -181.033502 
L 252.856304 -183.691073 
L 252.497182 -186.348645 
L 252.206972 -189.006217 
L 251.981493 -191.663789 
L 251.818292 -194.321361 
L 251.718222 -196.978933 
L 251.686125 -199.636505 
L 251.730484 -202.294077 
L 251.862337 -204.951648 
L 252.094042 -207.60922 
L 252.438497 -210.266792 
L 252.908994 -212.924364 
L 253.519155 -215.581936 
L 254.281983 -218.239508 
L 255.20723 -220.89708 
L 256.297212 -223.554652 
L 257.542348 -226.212223 
L 258.918396 -228.869795 
L 260.387085 -231.527367 
L 261.900561 -234.184939 
L 263.408533 -236.842511 
L 264.865887 -239.500083 
L 266.238461 -242.157655 
L 267.505601 -244.815227 
L 268.65945 -247.472798 
L 269.702003 -250.13037 
L 270.641404 -252.787942 
L 271.488666 -255.445514 
L 272.255433 -258.103086 
L 272.952801 -260.760658 
L 273.590897 -263.41823 
L 274.178869 -266.075802 
L 274.724996 -268.733374 
L 275.236758 -271.390945 
L 275.720761 -274.048517 
L 276.182512 -276.706089 
L 276.626106 -279.363661 
L 277.053935 -282.021233 
L 277.466579 -284.678805 
L 277.862908 -287.336377 
L 278.240376 -289.993949 
L 278.595378 -292.65152 
L 278.923571 -295.309092 
L 279.220161 -297.966664 
L 279.480248 -300.624236 
L 279.699379 -303.281808 
L 279.874354 -305.93938 
L 280.004176 -308.596952 
L 280.090879 -311.254524 
L 280.139922 -313.912095 
L 280.159904 -316.569667 
L 280.161591 -319.227239 
L 280.156425 -321.884811 
L 280.154864 -324.542383 
L 280.164931 -327.199955 
L 280.191258 -329.857527 
L 280.234811 -332.515099 
L 280.293271 -335.17267 
L 281.242393 -335.17267 
L 281.242393 -335.17267 
L 281.300853 -332.515099 
L 281.344406 -329.857527 
L 281.370733 -327.199955 
L 281.3808 -324.542383 
L 281.37924 -321.884811 
L 281.374074 -319.227239 
L 281.37576 -316.569667 
L 281.395742 -313.912095 
L 281.444785 -311.254524 
L 281.531489 -308.596952 
L 281.66131 -305.93938 
L 281.836285 -303.281808 
L 282.055416 -300.624236 
L 282.315503 -297.966664 
L 282.612093 -295.309092 
L 282.940287 -292.65152 
L 283.295288 -289.993949 
L 283.672756 -287.336377 
L 284.069085 -284.678805 
L 284.481729 -282.021233 
L 284.909559 -279.363661 
L 285.353152 -276.706089 
L 285.814904 -274.048517 
L 286.298906 -271.390945 
L 286.810668 -268.733374 
L 287.356795 -266.075802 
L 287.944767 -263.41823 
L 288.582864 -260.760658 
L 289.280231 -258.103086 
L 290.046998 -255.445514 
L 290.89426 -252.787942 
L 291.833661 -250.13037 
L 292.876214 -247.472798 
L 294.030063 -244.815227 
L 295.297203 -242.157655 
L 296.669777 -239.500083 
L 298.127131 -236.842511 
L 299.635103 -234.184939 
L 301.148579 -231.527367 
L 302.617268 -228.869795 
L 303.993317 -226.212223 
L 305.238452 -223.554652 
L 306.328435 -220.89708 
L 307.253682 -218.239508 
L 308.01651 -215.581936 
L 308.62667 -212.924364 
L 309.097167 -210.266792 
L 309.441622 -207.60922 
L 309.673327 -204.951648 
L 309.805181 -202.294077 
L 309.84954 -199.636505 
L 309.817442 -196.978933 
L 309.717372 -194.321361 
L 309.554171 -191.663789 
L 309.328693 -189.006217 
L 309.038482 -186.348645 
L 308.67936 -183.691073 
L 308.247555 -181.033502 
L 307.741925 -178.37593 
L 307.165773 -175.718358 
L 306.527735 -173.060786 
L 305.841293 -170.403214 
L 305.122754 -167.745642 
L 304.388056 -165.08807 
L 303.649313 -162.430498 
L 302.912269 -159.772927 
L 302.175608 -157.115355 
L 301.432372 -154.457783 
L 300.672871 -151.800211 
L 299.887904 -149.142639 
L 299.07115 -146.485067 
L 298.220099 -143.827495 
L 297.335684 -141.169923 
L 296.421292 -138.512352 
L 295.481891 -135.85478 
L 294.523673 -133.197208 
L 293.554113 -130.539636 
L 292.582059 -127.882064 
L 291.617501 -125.224492 
L 290.670934 -122.56692 
L 289.75256 -119.909348 
L 288.871686 -117.251776 
L 288.0366 -114.594205 
L 287.254896 -111.936633 
L 286.533938 -109.279061 
L 285.881022 -106.621489 
L 285.302856 -103.963917 
L 284.804286 -101.306345 
L 284.386546 -98.648773 
L 284.045621 -95.991201 
L 283.771399 -93.33363 
L 283.548139 -90.676058 
L 283.356414 -88.018486 
L 283.176176 -85.360914 
L 282.990212 -82.703342 
L 282.787071 -80.04577 
L 282.562697 -77.388198 
L 282.320392 -74.730626 
L 282.069226 -72.073055 
z
" id="m0ef0f3759a" style="stroke:#353535;stroke-width:2;"/>
    </defs>
    <g clip-path="url(#p21c09ecde8)">
     <use style="fill:#33977c;stroke:#353535;stroke-width:2;" x="0" xlink:href="#m0ef0f3759a" y="393.36605"/>
    </g>
   </g>
   <g id="PolyCollection_4">
    <defs>
     <path d="M 376.743792 -38.66358 
L 376.106158 -38.66358 
L 376.014919 -41.53207 
L 375.902047 -44.40056 
L 375.765257 -47.26905 
L 375.604252 -50.137541 
L 375.421301 -53.006031 
L 375.221287 -55.874521 
L 375.011182 -58.743012 
L 374.799024 -61.611502 
L 374.592566 -64.479992 
L 374.397806 -67.348482 
L 374.217632 -70.216973 
L 374.050888 -73.085463 
L 373.892165 -75.953953 
L 373.732525 -78.822443 
L 373.561156 -81.690934 
L 373.367602 -84.559424 
L 373.143915 -87.427914 
L 372.885952 -90.296405 
L 372.593189 -93.164895 
L 372.266897 -96.033385 
L 371.907152 -98.901875 
L 371.509752 -101.770366 
L 371.064366 -104.638856 
L 370.554985 -107.507346 
L 369.963009 -110.375837 
L 369.272245 -113.244327 
L 368.474253 -116.112817 
L 367.572149 -118.981307 
L 366.581404 -121.849798 
L 365.527198 -124.718288 
L 364.439137 -127.586778 
L 363.345023 -130.455269 
L 362.265702 -133.323759 
L 361.212556 -136.192249 
L 360.188279 -139.060739 
L 359.190453 -141.92923 
L 358.216546 -144.79772 
L 357.268459 -147.66621 
L 356.354925 -150.5347 
L 355.490672 -153.403191 
L 354.692401 -156.271681 
L 353.972752 -159.140171 
L 353.334285 -162.008662 
L 352.765769 -164.877152 
L 352.24243 -167.745642 
L 351.730652 -170.614132 
L 351.196162 -173.482623 
L 350.613583 -176.351113 
L 349.974895 -179.219603 
L 349.294668 -182.088094 
L 348.610888 -184.956584 
L 347.981197 -187.825074 
L 347.475186 -190.693564 
L 347.163887 -193.562055 
L 347.108038 -196.430545 
L 347.347028 -199.299035 
L 347.89071 -202.167526 
L 348.716031 -205.036016 
L 349.769629 -207.904506 
L 350.976114 -210.772996 
L 352.250307 -213.641487 
L 353.510771 -216.509977 
L 354.691899 -219.378467 
L 355.752457 -222.246957 
L 356.679436 -225.115448 
L 357.48696 -227.983938 
L 358.210631 -230.852428 
L 358.89839 -233.720919 
L 359.599584 -236.589409 
L 360.354483 -239.457899 
L 361.186563 -242.326389 
L 362.099272 -245.19488 
L 363.07777 -248.06337 
L 364.09477 -250.93186 
L 365.118522 -253.800351 
L 366.120567 -256.668841 
L 367.081198 -259.537331 
L 367.991406 -262.405821 
L 368.851195 -265.274312 
L 369.665303 -268.142802 
L 370.43808 -271.011292 
L 371.16949 -273.879783 
L 371.853664 -276.748273 
L 372.480371 -279.616763 
L 373.038608 -282.485253 
L 373.52071 -285.353744 
L 373.925344 -288.222234 
L 374.258302 -291.090724 
L 374.531044 -293.959215 
L 374.757728 -296.827705 
L 374.951962 -299.696195 
L 375.124366 -302.564685 
L 375.281576 -305.433176 
L 375.426642 -308.301666 
L 375.560333 -311.170156 
L 375.682606 -314.038646 
L 375.793648 -316.907137 
L 375.894207 -319.775627 
L 375.985335 -322.644117 
L 376.864615 -322.644117 
L 376.864615 -322.644117 
L 376.955743 -319.775627 
L 377.056302 -316.907137 
L 377.167344 -314.038646 
L 377.289617 -311.170156 
L 377.423308 -308.301666 
L 377.568374 -305.433176 
L 377.725584 -302.564685 
L 377.897988 -299.696195 
L 378.092222 -296.827705 
L 378.318906 -293.959215 
L 378.591648 -291.090724 
L 378.924606 -288.222234 
L 379.32924 -285.353744 
L 379.811342 -282.485253 
L 380.369579 -279.616763 
L 380.996286 -276.748273 
L 381.68046 -273.879783 
L 382.41187 -271.011292 
L 383.184647 -268.142802 
L 383.998755 -265.274312 
L 384.858544 -262.405821 
L 385.768752 -259.537331 
L 386.729383 -256.668841 
L 387.731428 -253.800351 
L 388.75518 -250.93186 
L 389.77218 -248.06337 
L 390.750678 -245.19488 
L 391.663387 -242.326389 
L 392.495467 -239.457899 
L 393.250366 -236.589409 
L 393.95156 -233.720919 
L 394.639319 -230.852428 
L 395.36299 -227.983938 
L 396.170514 -225.115448 
L 397.097493 -222.246957 
L 398.158051 -219.378467 
L 399.339179 -216.509977 
L 400.599643 -213.641487 
L 401.873836 -210.772996 
L 403.080321 -207.904506 
L 404.133919 -205.036016 
L 404.95924 -202.167526 
L 405.502922 -199.299035 
L 405.741912 -196.430545 
L 405.686063 -193.562055 
L 405.374764 -190.693564 
L 404.868753 -187.825074 
L 404.239062 -184.956584 
L 403.555282 -182.088094 
L 402.875055 -179.219603 
L 402.236367 -176.351113 
L 401.653788 -173.482623 
L 401.119298 -170.614132 
L 400.60752 -167.745642 
L 400.084181 -164.877152 
L 399.515665 -162.008662 
L 398.877198 -159.140171 
L 398.157549 -156.271681 
L 397.359278 -153.403191 
L 396.495025 -150.5347 
L 395.581491 -147.66621 
L 394.633404 -144.79772 
L 393.659497 -141.92923 
L 392.661671 -139.060739 
L 391.637394 -136.192249 
L 390.584248 -133.323759 
L 389.504927 -130.455269 
L 388.410813 -127.586778 
L 387.322752 -124.718288 
L 386.268546 -121.849798 
L 385.277801 -118.981307 
L 384.375697 -116.112817 
L 383.577705 -113.244327 
L 382.886941 -110.375837 
L 382.294965 -107.507346 
L 381.785584 -104.638856 
L 381.340198 -101.770366 
L 380.942798 -98.901875 
L 380.583053 -96.033385 
L 380.256761 -93.164895 
L 379.963998 -90.296405 
L 379.706035 -87.427914 
L 379.482348 -84.559424 
L 379.288794 -81.690934 
L 379.117425 -78.822443 
L 378.957785 -75.953953 
L 378.799062 -73.085463 
L 378.632318 -70.216973 
L 378.452144 -67.348482 
L 378.257384 -64.479992 
L 378.050926 -61.611502 
L 377.838768 -58.743012 
L 377.628663 -55.874521 
L 377.428649 -53.006031 
L 377.245698 -50.137541 
L 377.084693 -47.26905 
L 376.947903 -44.40056 
L 376.835031 -41.53207 
L 376.743792 -38.66358 
z
" id="maf7ddebbc9" style="stroke:#353535;stroke-width:2;"/>
    </defs>
    <g clip-path="url(#p21c09ecde8)">
     <use style="fill:#53b075;stroke:#353535;stroke-width:2;" x="0" xlink:href="#maf7ddebbc9" y="393.36605"/>
    </g>
   </g>
   <g id="PolyCollection_5">
    <defs>
     <path d="M 472.226819 -42.839764 
L 471.937416 -42.839764 
L 471.927162 -45.623887 
L 471.913884 -48.40801 
L 471.891072 -51.192133 
L 471.85048 -53.976256 
L 471.783056 -56.760379 
L 471.680091 -59.544501 
L 471.534359 -62.328624 
L 471.341069 -65.112747 
L 471.098445 -67.89687 
L 470.807829 -70.680993 
L 470.473223 -73.465116 
L 470.100307 -76.249239 
L 469.69507 -79.033362 
L 469.262329 -81.817485 
L 468.80454 -84.601608 
L 468.321372 -87.385731 
L 467.810373 -90.169854 
L 467.268798 -92.953976 
L 466.696137 -95.738099 
L 466.096426 -98.522222 
L 465.47917 -101.306345 
L 464.857973 -104.090468 
L 464.246756 -106.874591 
L 463.654546 -109.658714 
L 463.080694 -112.442837 
L 462.512515 -115.22696 
L 461.926607 -118.011083 
L 461.293728 -120.795206 
L 460.585778 -123.579329 
L 459.782829 -126.363452 
L 458.878354 -129.147574 
L 457.881716 -131.931697 
L 456.817801 -134.71582 
L 455.724087 -137.499943 
L 454.645434 -140.284066 
L 453.626819 -143.068189 
L 452.704652 -145.852312 
L 451.898222 -148.636435 
L 451.203692 -151.420558 
L 450.593241 -154.204681 
L 450.020764 -156.988804 
L 449.433377 -159.772927 
L 448.78554 -162.557049 
L 448.051294 -165.341172 
L 447.230609 -168.125295 
L 446.34801 -170.909418 
L 445.444683 -173.693541 
L 444.567687 -176.477664 
L 443.760689 -179.261787 
L 443.059501 -182.04591 
L 442.493197 -184.830033 
L 442.088769 -187.614156 
L 441.875585 -190.398279 
L 441.885955 -193.182402 
L 442.150095 -195.966524 
L 442.686705 -198.750647 
L 443.492912 -201.53477 
L 444.53816 -204.318893 
L 445.765292 -207.103016 
L 447.099231 -209.887139 
L 448.460653 -212.671262 
L 449.780282 -215.455385 
L 451.009605 -218.239508 
L 452.125496 -221.023631 
L 453.12859 -223.807754 
L 454.037138 -226.591877 
L 454.878942 -229.376 
L 455.683814 -232.160122 
L 456.478066 -234.944245 
L 457.281384 -237.728368 
L 458.105536 -240.512491 
L 458.954016 -243.296614 
L 459.822122 -246.080737 
L 460.697595 -248.86486 
L 461.562466 -251.648983 
L 462.3965 -254.433106 
L 463.18184 -257.217229 
L 463.907519 -260.001352 
L 464.57214 -262.785475 
L 465.183625 -265.569597 
L 465.756118 -268.35372 
L 466.305258 -271.137843 
L 466.843597 -273.921966 
L 467.377575 -276.706089 
L 467.906679 -279.490212 
L 468.424527 -282.274335 
L 468.92117 -285.058458 
L 469.385761 -287.842581 
L 469.808945 -290.626704 
L 470.184528 -293.410827 
L 470.510203 -296.19495 
L 470.787329 -298.979073 
L 471.019989 -301.763195 
L 471.21371 -304.547318 
L 471.374317 -307.331441 
L 471.50719 -310.115564 
L 471.617007 -312.899687 
L 471.707783 -315.68381 
L 471.782985 -318.467933 
L 472.38125 -318.467933 
L 472.38125 -318.467933 
L 472.456453 -315.68381 
L 472.547229 -312.899687 
L 472.657046 -310.115564 
L 472.789919 -307.331441 
L 472.950525 -304.547318 
L 473.144247 -301.763195 
L 473.376906 -298.979073 
L 473.654033 -296.19495 
L 473.979708 -293.410827 
L 474.355291 -290.626704 
L 474.778475 -287.842581 
L 475.243066 -285.058458 
L 475.739709 -282.274335 
L 476.257557 -279.490212 
L 476.78666 -276.706089 
L 477.320639 -273.921966 
L 477.858977 -271.137843 
L 478.408118 -268.35372 
L 478.98061 -265.569597 
L 479.592096 -262.785475 
L 480.256716 -260.001352 
L 480.982396 -257.217229 
L 481.767736 -254.433106 
L 482.601769 -251.648983 
L 483.46664 -248.86486 
L 484.342114 -246.080737 
L 485.21022 -243.296614 
L 486.0587 -240.512491 
L 486.882851 -237.728368 
L 487.68617 -234.944245 
L 488.480421 -232.160122 
L 489.285294 -229.376 
L 490.127098 -226.591877 
L 491.035646 -223.807754 
L 492.03874 -221.023631 
L 493.15463 -218.239508 
L 494.383953 -215.455385 
L 495.703583 -212.671262 
L 497.065004 -209.887139 
L 498.398944 -207.103016 
L 499.626075 -204.318893 
L 500.671324 -201.53477 
L 501.477531 -198.750647 
L 502.014141 -195.966524 
L 502.27828 -193.182402 
L 502.28865 -190.398279 
L 502.075466 -187.614156 
L 501.671039 -184.830033 
L 501.104734 -182.04591 
L 500.403547 -179.261787 
L 499.596548 -176.477664 
L 498.719553 -173.693541 
L 497.816226 -170.909418 
L 496.933627 -168.125295 
L 496.112942 -165.341172 
L 495.378696 -162.557049 
L 494.730858 -159.772927 
L 494.143472 -156.988804 
L 493.570995 -154.204681 
L 492.960543 -151.420558 
L 492.266014 -148.636435 
L 491.459584 -145.852312 
L 490.537417 -143.068189 
L 489.518801 -140.284066 
L 488.440148 -137.499943 
L 487.346435 -134.71582 
L 486.28252 -131.931697 
L 485.285882 -129.147574 
L 484.381407 -126.363452 
L 483.578457 -123.579329 
L 482.870508 -120.795206 
L 482.237628 -118.011083 
L 481.651721 -115.22696 
L 481.083541 -112.442837 
L 480.50969 -109.658714 
L 479.91748 -106.874591 
L 479.306263 -104.090468 
L 478.685066 -101.306345 
L 478.06781 -98.522222 
L 477.468099 -95.738099 
L 476.895438 -92.953976 
L 476.353863 -90.169854 
L 475.842864 -87.385731 
L 475.359695 -84.601608 
L 474.901907 -81.817485 
L 474.469166 -79.033362 
L 474.063929 -76.249239 
L 473.691013 -73.465116 
L 473.356406 -70.680993 
L 473.065791 -67.89687 
L 472.823167 -65.112747 
L 472.629876 -62.328624 
L 472.484144 -59.544501 
L 472.381179 -56.760379 
L 472.313756 -53.976256 
L 472.273163 -51.192133 
L 472.250352 -48.40801 
L 472.237074 -45.623887 
L 472.226819 -42.839764 
z
" id="m0065d3bc81" style="stroke:#353535;stroke-width:2;"/>
    </defs>
    <g clip-path="url(#p21c09ecde8)">
     <use style="fill:#80c161;stroke:#353535;stroke-width:2;" x="0" xlink:href="#m0065d3bc81" y="393.36605"/>
    </g>
   </g>
   <g id="PolyCollection_6">
    <defs>
     <path d="M 568.262077 -51.192133 
L 567.216445 -51.192133 
L 567.055204 -53.427868 
L 566.848791 -55.663603 
L 566.58673 -57.899338 
L 566.259232 -60.135073 
L 565.858801 -62.370808 
L 565.381666 -64.606543 
L 564.828707 -66.842278 
L 564.20565 -69.078013 
L 563.522539 -71.313748 
L 562.792675 -73.549483 
L 562.031239 -75.785218 
L 561.253742 -78.020954 
L 560.474299 -80.256689 
L 559.703646 -82.492424 
L 558.946968 -84.728159 
L 558.201921 -86.963894 
L 557.457614 -89.199629 
L 556.695418 -91.435364 
L 555.892145 -93.671099 
L 555.025309 -95.906834 
L 554.079251 -98.142569 
L 553.050215 -100.378304 
L 551.948562 -102.614039 
L 550.797114 -104.849774 
L 549.625984 -107.085509 
L 548.465525 -109.321245 
L 547.33974 -111.55698 
L 546.262324 -113.792715 
L 545.236601 -116.02845 
L 544.259229 -118.264185 
L 543.326267 -120.49992 
L 542.43933 -122.735655 
L 541.609524 -124.97139 
L 540.857528 -127.207125 
L 540.209382 -129.44286 
L 539.688913 -131.678595 
L 539.308754 -133.91433 
L 539.06246 -136.150065 
L 538.920126 -138.3858 
L 538.829299 -140.621536 
L 538.721879 -142.857271 
L 538.526273 -145.093006 
L 538.182511 -147.328741 
L 537.656775 -149.564476 
L 536.95145 -151.800211 
L 536.107657 -154.035946 
L 535.199358 -156.271681 
L 534.320655 -158.507416 
L 533.56992 -160.743151 
L 533.034956 -162.978886 
L 532.782331 -165.214621 
L 532.852008 -167.450356 
L 533.256537 -169.686091 
L 533.983165 -171.921827 
L 534.997495 -174.157562 
L 536.248151 -176.393297 
L 537.672594 -178.629032 
L 539.204122 -180.864767 
L 540.779494 -183.100502 
L 542.345898 -185.336237 
L 543.865803 -187.571972 
L 545.318761 -189.807707 
L 546.700085 -192.043442 
L 548.017233 -194.279177 
L 549.284989 -196.514912 
L 550.520495 -198.750647 
L 551.738715 -200.986382 
L 552.948733 -203.222118 
L 554.151223 -205.457853 
L 555.337615 -207.693588 
L 556.491429 -209.929323 
L 557.591832 -212.165058 
L 558.618709 -214.400793 
L 559.557821 -216.636528 
L 560.404341 -218.872263 
L 561.163542 -221.107998 
L 561.848442 -223.343733 
L 562.475324 -225.579468 
L 563.058777 -227.815203 
L 563.607891 -230.050938 
L 564.124676 -232.286673 
L 564.60489 -234.522409 
L 565.040713 -236.758144 
L 565.424237 -238.993879 
L 565.75067 -241.229614 
L 566.020351 -243.465349 
L 566.239118 -245.701084 
L 566.417054 -247.936819 
L 566.566112 -250.172554 
L 566.697428 -252.408289 
L 566.819139 -254.644024 
L 566.935321 -256.879759 
L 567.046223 -259.115494 
L 567.149562 -261.351229 
L 567.242294 -263.586964 
L 567.322227 -265.8227 
L 567.388952 -268.058435 
L 567.443915 -270.29417 
L 567.489774 -272.529905 
L 567.988748 -272.529905 
L 567.988748 -272.529905 
L 568.034606 -270.29417 
L 568.08957 -268.058435 
L 568.156295 -265.8227 
L 568.236228 -263.586964 
L 568.32896 -261.351229 
L 568.432298 -259.115494 
L 568.543201 -256.879759 
L 568.659382 -254.644024 
L 568.781093 -252.408289 
L 568.912409 -250.172554 
L 569.061467 -247.936819 
L 569.239403 -245.701084 
L 569.458171 -243.465349 
L 569.727852 -241.229614 
L 570.054284 -238.993879 
L 570.437809 -236.758144 
L 570.873632 -234.522409 
L 571.353846 -232.286673 
L 571.87063 -230.050938 
L 572.419744 -227.815203 
L 573.003197 -225.579468 
L 573.630079 -223.343733 
L 574.314979 -221.107998 
L 575.07418 -218.872263 
L 575.9207 -216.636528 
L 576.859812 -214.400793 
L 577.886689 -212.165058 
L 578.987092 -209.929323 
L 580.140907 -207.693588 
L 581.327299 -205.457853 
L 582.529788 -203.222118 
L 583.739806 -200.986382 
L 584.958027 -198.750647 
L 586.193532 -196.514912 
L 587.461289 -194.279177 
L 588.778436 -192.043442 
L 590.159761 -189.807707 
L 591.612718 -187.571972 
L 593.132624 -185.336237 
L 594.699027 -183.100502 
L 596.274399 -180.864767 
L 597.805927 -178.629032 
L 599.23037 -176.393297 
L 600.481027 -174.157562 
L 601.495356 -171.921827 
L 602.221985 -169.686091 
L 602.626513 -167.450356 
L 602.69619 -165.214621 
L 602.443565 -162.978886 
L 601.908602 -160.743151 
L 601.157866 -158.507416 
L 600.279163 -156.271681 
L 599.370865 -154.035946 
L 598.527071 -151.800211 
L 597.821746 -149.564476 
L 597.296011 -147.328741 
L 596.952248 -145.093006 
L 596.756643 -142.857271 
L 596.649222 -140.621536 
L 596.558395 -138.3858 
L 596.416061 -136.150065 
L 596.169768 -133.91433 
L 595.789609 -131.678595 
L 595.269139 -129.44286 
L 594.620993 -127.207125 
L 593.868997 -124.97139 
L 593.039192 -122.735655 
L 592.152254 -120.49992 
L 591.219292 -118.264185 
L 590.241921 -116.02845 
L 589.216197 -113.792715 
L 588.138781 -111.55698 
L 587.012997 -109.321245 
L 585.852538 -107.085509 
L 584.681407 -104.849774 
L 583.529959 -102.614039 
L 582.428307 -100.378304 
L 581.399271 -98.142569 
L 580.453212 -95.906834 
L 579.586377 -93.671099 
L 578.783103 -91.435364 
L 578.020908 -89.199629 
L 577.2766 -86.963894 
L 576.531554 -84.728159 
L 575.774876 -82.492424 
L 575.004223 -80.256689 
L 574.224779 -78.020954 
L 573.447282 -75.785218 
L 572.685847 -73.549483 
L 571.955983 -71.313748 
L 571.272871 -69.078013 
L 570.649814 -66.842278 
L 570.096856 -64.606543 
L 569.619721 -62.370808 
L 569.219289 -60.135073 
L 568.891791 -57.899338 
L 568.629731 -55.663603 
L 568.423317 -53.427868 
L 568.262077 -51.192133 
z
" id="m862b9aaaf7" style="stroke:#353535;stroke-width:2;"/>
    </defs>
    <g clip-path="url(#p21c09ecde8)">
     <use style="fill:#aec83d;stroke:#353535;stroke-width:2;" x="0" xlink:href="#m862b9aaaf7" y="393.36605"/>
    </g>
   </g>
   <g id="PolyCollection_7">
    <defs>
     <path d="M 663.765664 -38.66358 
L 663.027143 -38.66358 
L 662.913139 -40.646213 
L 662.752067 -42.628846 
L 662.524976 -44.611479 
L 662.211688 -46.594111 
L 661.793673 -48.576744 
L 661.257467 -50.559377 
L 660.598056 -52.54201 
L 659.821468 -54.524643 
L 658.945665 -56.507276 
L 657.998945 -58.489909 
L 657.015571 -60.472542 
L 656.02923 -62.455175 
L 655.065923 -64.437808 
L 654.13848 -66.420441 
L 653.244675 -68.403074 
L 652.36982 -70.385707 
L 651.493009 -72.36834 
L 650.594729 -74.350973 
L 649.662926 -76.333606 
L 648.695246 -78.316239 
L 647.696808 -80.298872 
L 646.674736 -82.281505 
L 645.631997 -84.264138 
L 644.5633 -86.246771 
L 643.454863 -88.229404 
L 642.288277 -90.212037 
L 641.047151 -92.19467 
L 639.72422 -94.177303 
L 638.326481 -96.159936 
L 636.876574 -98.142569 
L 635.409829 -100.125202 
L 633.967794 -102.107835 
L 632.590234 -104.090468 
L 631.308098 -106.073101 
L 630.139673 -108.055734 
L 629.090991 -110.038367 
L 628.160021 -112.021 
L 627.342768 -114.003633 
L 626.638777 -115.986266 
L 626.053924 -117.968899 
L 625.599661 -119.951532 
L 625.289367 -121.934165 
L 625.133546 -123.916798 
L 625.135742 -125.899431 
L 625.290347 -127.882064 
L 625.582469 -129.864697 
L 625.989252 -131.84733 
L 626.482029 -133.829963 
L 627.029141 -135.812596 
L 627.59972 -137.795229 
L 628.168641 -139.777862 
L 628.721969 -141.760495 
L 629.261196 -143.743128 
L 629.804129 -145.725761 
L 630.381096 -147.708394 
L 631.027046 -149.691027 
L 631.772183 -151.67366 
L 632.634714 -153.656293 
L 633.618506 -155.638926 
L 634.716129 -157.621559 
L 635.915291 -159.604192 
L 637.205219 -161.586825 
L 638.579976 -163.569458 
L 640.037471 -165.552091 
L 641.575148 -167.534724 
L 643.184734 -169.517357 
L 644.848558 -171.49999 
L 646.539016 -173.482623 
L 648.221358 -175.465256 
L 649.858776 -177.447889 
L 651.418107 -179.430522 
L 652.874431 -181.413155 
L 654.213319 -183.395788 
L 655.430331 -185.378421 
L 656.528257 -187.361054 
L 657.513297 -189.343687 
L 658.391585 -191.32632 
L 659.167115 -193.308953 
L 659.841464 -195.291586 
L 660.414961 -197.274219 
L 660.888572 -199.256852 
L 661.265698 -201.239485 
L 661.55332 -203.222118 
L 661.76223 -205.204751 
L 661.906353 -207.187384 
L 662.001358 -209.170017 
L 662.062879 -211.15265 
L 662.10479 -213.135282 
L 662.137954 -215.117915 
L 662.169745 -217.100548 
L 662.204387 -219.083181 
L 662.243866 -221.065814 
L 662.289035 -223.048447 
L 662.340509 -225.03108 
L 662.399124 -227.013713 
L 662.465915 -228.996346 
L 662.541733 -230.978979 
L 662.626694 -232.961612 
L 662.719695 -234.944245 
L 664.073112 -234.944245 
L 664.073112 -234.944245 
L 664.166113 -232.961612 
L 664.251074 -230.978979 
L 664.326892 -228.996346 
L 664.393683 -227.013713 
L 664.452298 -225.03108 
L 664.503772 -223.048447 
L 664.548941 -221.065814 
L 664.58842 -219.083181 
L 664.623062 -217.100548 
L 664.654854 -215.117915 
L 664.688017 -213.135282 
L 664.729928 -211.15265 
L 664.791449 -209.170017 
L 664.886454 -207.187384 
L 665.030577 -205.204751 
L 665.239487 -203.222118 
L 665.527109 -201.239485 
L 665.904235 -199.256852 
L 666.377846 -197.274219 
L 666.951343 -195.291586 
L 667.625692 -193.308953 
L 668.401223 -191.32632 
L 669.27951 -189.343687 
L 670.26455 -187.361054 
L 671.362476 -185.378421 
L 672.579488 -183.395788 
L 673.918376 -181.413155 
L 675.3747 -179.430522 
L 676.934032 -177.447889 
L 678.57145 -175.465256 
L 680.253791 -173.482623 
L 681.944249 -171.49999 
L 683.608073 -169.517357 
L 685.217659 -167.534724 
L 686.755336 -165.552091 
L 688.212831 -163.569458 
L 689.587588 -161.586825 
L 690.877517 -159.604192 
L 692.076678 -157.621559 
L 693.174301 -155.638926 
L 694.158093 -153.656293 
L 695.020624 -151.67366 
L 695.765761 -149.691027 
L 696.411712 -147.708394 
L 696.988679 -145.725761 
L 697.531612 -143.743128 
L 698.070838 -141.760495 
L 698.624166 -139.777862 
L 699.193087 -137.795229 
L 699.763667 -135.812596 
L 700.310778 -133.829963 
L 700.803555 -131.84733 
L 701.210338 -129.864697 
L 701.50246 -127.882064 
L 701.657065 -125.899431 
L 701.659261 -123.916798 
L 701.50344 -121.934165 
L 701.193146 -119.951532 
L 700.738883 -117.968899 
L 700.15403 -115.986266 
L 699.450039 -114.003633 
L 698.632787 -112.021 
L 697.701816 -110.038367 
L 696.653134 -108.055734 
L 695.484709 -106.073101 
L 694.202573 -104.090468 
L 692.825013 -102.107835 
L 691.382979 -100.125202 
L 689.916233 -98.142569 
L 688.466326 -96.159936 
L 687.068587 -94.177303 
L 685.745656 -92.19467 
L 684.50453 -90.212037 
L 683.337944 -88.229404 
L 682.229507 -86.246771 
L 681.16081 -84.264138 
L 680.118071 -82.281505 
L 679.095999 -80.298872 
L 678.097561 -78.316239 
L 677.129881 -76.333606 
L 676.198078 -74.350973 
L 675.299798 -72.36834 
L 674.422987 -70.385707 
L 673.548132 -68.403074 
L 672.654327 -66.420441 
L 671.726884 -64.437808 
L 670.763577 -62.455175 
L 669.777236 -60.472542 
L 668.793862 -58.489909 
L 667.847142 -56.507276 
L 666.971339 -54.524643 
L 666.194751 -52.54201 
L 665.53534 -50.559377 
L 664.999134 -48.576744 
L 664.581119 -46.594111 
L 664.267831 -44.611479 
L 664.04074 -42.628846 
L 663.879668 -40.646213 
L 663.765664 -38.66358 
z
" id="m5d1719550e" style="stroke:#353535;stroke-width:2;"/>
    </defs>
    <g clip-path="url(#p21c09ecde8)">
     <use style="fill:#e2d240;stroke:#353535;stroke-width:2;" x="0" xlink:href="#m5d1719550e" y="393.36605"/>
    </g>
   </g>
   <g id="line2d_15">
    <path clip-path="url(#p21c09ecde8)" d="M 67.418951 246.121677 
L 111.488142 246.121677 
" style="fill:none;stroke:#353535;stroke-dasharray:6,6;stroke-dashoffset:0;stroke-width:2;"/>
   </g>
   <g id="line2d_16">
    <path clip-path="url(#p21c09ecde8)" d="M 59.110196 216.888386 
L 119.796897 216.888386 
" style="fill:none;stroke:#353535;stroke-dasharray:12,12;stroke-dashoffset:0;stroke-width:2;"/>
   </g>
   <g id="line2d_17">
    <path clip-path="url(#p21c09ecde8)" d="M 63.943671 187.655095 
L 114.963422 187.655095 
" style="fill:none;stroke:#353535;stroke-dasharray:6,6;stroke-dashoffset:0;stroke-width:2;"/>
   </g>
   <g id="line2d_18">
    <path clip-path="url(#p21c09ecde8)" d="M 163.308831 233.593123 
L 206.912548 233.593123 
" style="fill:none;stroke:#353535;stroke-dasharray:6,6;stroke-dashoffset:0;stroke-width:2;"/>
   </g>
   <g id="line2d_19">
    <path clip-path="url(#p21c09ecde8)" d="M 157.00346 204.359833 
L 213.217919 204.359833 
" style="fill:none;stroke:#353535;stroke-dasharray:12,12;stroke-dashoffset:0;stroke-width:2;"/>
   </g>
   <g id="line2d_20">
    <path clip-path="url(#p21c09ecde8)" d="M 160.137579 175.126542 
L 210.0838 175.126542 
" style="fill:none;stroke:#353535;stroke-dasharray:6,6;stroke-dashoffset:0;stroke-width:2;"/>
   </g>
   <g id="line2d_21">
    <path clip-path="url(#p21c09ecde8)" d="M 258.84484 233.593123 
L 302.690824 233.593123 
" style="fill:none;stroke:#353535;stroke-dasharray:6,6;stroke-dashoffset:0;stroke-width:2;"/>
   </g>
   <g id="line2d_22">
    <path clip-path="url(#p21c09ecde8)" d="M 252.107787 200.183648 
L 309.427877 200.183648 
" style="fill:none;stroke:#353535;stroke-dasharray:12,12;stroke-dashoffset:0;stroke-width:2;"/>
   </g>
   <g id="line2d_23">
    <path clip-path="url(#p21c09ecde8)" d="M 255.462836 173.03845 
L 306.072829 173.03845 
" style="fill:none;stroke:#353535;stroke-dasharray:6,6;stroke-dashoffset:0;stroke-width:2;"/>
   </g>
   <g id="line2d_24">
    <path clip-path="url(#p21c09ecde8)" d="M 354.909727 237.769308 
L 397.940223 237.769308 
" style="fill:none;stroke:#353535;stroke-dasharray:6,6;stroke-dashoffset:0;stroke-width:2;"/>
   </g>
   <g id="line2d_25">
    <path clip-path="url(#p21c09ecde8)" d="M 348.265635 204.359833 
L 404.584315 204.359833 
" style="fill:none;stroke:#353535;stroke-dasharray:12,12;stroke-dashoffset:0;stroke-width:2;"/>
   </g>
   <g id="line2d_26">
    <path clip-path="url(#p21c09ecde8)" d="M 354.90923 175.126542 
L 397.94072 175.126542 
" style="fill:none;stroke:#353535;stroke-dasharray:6,6;stroke-dashoffset:0;stroke-width:2;"/>
   </g>
   <g id="line2d_27">
    <path clip-path="url(#p21c09ecde8)" d="M 450.241377 237.769308 
L 493.922859 237.769308 
" style="fill:none;stroke:#353535;stroke-dasharray:6,6;stroke-dashoffset:0;stroke-width:2;"/>
   </g>
   <g id="line2d_28">
    <path clip-path="url(#p21c09ecde8)" d="M 442.789086 208.536017 
L 501.375149 208.536017 
" style="fill:none;stroke:#353535;stroke-dasharray:12,12;stroke-dashoffset:0;stroke-width:2;"/>
   </g>
   <g id="line2d_29">
    <path clip-path="url(#p21c09ecde8)" d="M 450.003301 179.302727 
L 494.160935 179.302727 
" style="fill:none;stroke:#353535;stroke-dasharray:6,6;stroke-dashoffset:0;stroke-width:2;"/>
   </g>
   <g id="line2d_30">
    <path clip-path="url(#p21c09ecde8)" d="M 541.126346 267.002598 
L 594.352176 267.002598 
" style="fill:none;stroke:#353535;stroke-dasharray:6,6;stroke-dashoffset:0;stroke-width:2;"/>
   </g>
   <g id="line2d_31">
    <path clip-path="url(#p21c09ecde8)" d="M 535.524757 237.769308 
L 599.953764 237.769308 
" style="fill:none;stroke:#353535;stroke-dasharray:12,12;stroke-dashoffset:0;stroke-width:2;"/>
   </g>
   <g id="line2d_32">
    <path clip-path="url(#p21c09ecde8)" d="M 536.563062 216.888386 
L 598.915459 216.888386 
" style="fill:none;stroke:#353535;stroke-dasharray:6,6;stroke-dashoffset:0;stroke-width:2;"/>
   </g>
   <g id="line2d_33">
    <path clip-path="url(#p21c09ecde8)" d="M 631.628981 287.88352 
L 695.163826 287.88352 
" style="fill:none;stroke:#353535;stroke-dasharray:6,6;stroke-dashoffset:0;stroke-width:2;"/>
   </g>
   <g id="line2d_34">
    <path clip-path="url(#p21c09ecde8)" d="M 625.518349 267.002598 
L 701.274459 267.002598 
" style="fill:none;stroke:#353535;stroke-dasharray:12,12;stroke-dashoffset:0;stroke-width:2;"/>
   </g>
   <g id="line2d_35">
    <path clip-path="url(#p21c09ecde8)" d="M 632.088425 241.945492 
L 694.704382 241.945492 
" style="fill:none;stroke:#353535;stroke-dasharray:6,6;stroke-dashoffset:0;stroke-width:2;"/>
   </g>
   <g id="patch_3">
    <path d="M 41.624975 369.527925 
L 41.624975 43.367925 
" style="fill:none;stroke:#262626;stroke-linecap:square;stroke-linejoin:miter;stroke-width:1.25;"/>
   </g>
   <g id="patch_4">
    <path d="M 711.224975 369.527925 
L 711.224975 43.367925 
" style="fill:none;stroke:#262626;stroke-linecap:square;stroke-linejoin:miter;stroke-width:1.25;"/>
   </g>
   <g id="patch_5">
    <path d="M 41.624975 369.527925 
L 711.224975 369.527925 
" style="fill:none;stroke:#262626;stroke-linecap:square;stroke-linejoin:miter;stroke-width:1.25;"/>
   </g>
   <g id="patch_6">
    <path d="M 41.624975 43.367925 
L 711.224975 43.367925 
" style="fill:none;stroke:#262626;stroke-linecap:square;stroke-linejoin:miter;stroke-width:1.25;"/>
   </g>
   <g id="text_16">
    <!-- Bicycle Crashes -->
    <defs>
     <path d="M 7.328125 0 
L 7.328125 71.578125 
L 34.1875 71.578125 
Q 42.390625 71.578125 47.34375 69.40625 
Q 52.296875 67.234375 55.09375 62.71875 
Q 57.90625 58.203125 57.90625 53.265625 
Q 57.90625 48.6875 55.421875 44.625 
Q 52.9375 40.578125 47.90625 38.09375 
Q 54.390625 36.1875 57.875 31.59375 
Q 61.375 27 61.375 20.75 
Q 61.375 15.71875 59.25 11.390625 
Q 57.125 7.078125 54 4.734375 
Q 50.875 2.390625 46.15625 1.1875 
Q 41.453125 0 34.625 0 
z
M 16.796875 41.5 
L 32.28125 41.5 
Q 38.578125 41.5 41.3125 42.328125 
Q 44.921875 43.40625 46.75 45.890625 
Q 48.578125 48.390625 48.578125 52.15625 
Q 48.578125 55.71875 46.875 58.421875 
Q 45.171875 61.140625 41.984375 62.140625 
Q 38.8125 63.140625 31.109375 63.140625 
L 16.796875 63.140625 
z
M 16.796875 8.453125 
L 34.625 8.453125 
Q 39.203125 8.453125 41.0625 8.796875 
Q 44.34375 9.375 46.53125 10.734375 
Q 48.734375 12.109375 50.140625 14.71875 
Q 51.5625 17.328125 51.5625 20.75 
Q 51.5625 24.75 49.515625 27.703125 
Q 47.46875 30.671875 43.828125 31.859375 
Q 40.1875 33.0625 33.34375 33.0625 
L 16.796875 33.0625 
z
" id="ArialMT-66"/>
     <path d="M 40.4375 19 
L 49.078125 17.875 
Q 47.65625 8.9375 41.8125 3.875 
Q 35.984375 -1.171875 27.484375 -1.171875 
Q 16.84375 -1.171875 10.375 5.78125 
Q 3.90625 12.75 3.90625 25.734375 
Q 3.90625 34.125 6.6875 40.421875 
Q 9.46875 46.734375 15.15625 49.875 
Q 20.84375 53.03125 27.546875 53.03125 
Q 35.984375 53.03125 41.359375 48.75 
Q 46.734375 44.484375 48.25 36.625 
L 39.703125 35.296875 
Q 38.484375 40.53125 35.375 43.15625 
Q 32.28125 45.796875 27.875 45.796875 
Q 21.234375 45.796875 17.078125 41.03125 
Q 12.9375 36.28125 12.9375 25.984375 
Q 12.9375 15.53125 16.9375 10.796875 
Q 20.953125 6.0625 27.390625 6.0625 
Q 32.5625 6.0625 36.03125 9.234375 
Q 39.5 12.40625 40.4375 19 
z
" id="ArialMT-99"/>
     <path d="M 6.390625 0 
L 6.390625 71.578125 
L 15.1875 71.578125 
L 15.1875 0 
z
" id="ArialMT-108"/>
     <path id="ArialMT-32"/>
    </defs>
    <g style="fill:#262626;" transform="translate(276.062475 27.583125)scale(0.28 -0.28)">
     <use xlink:href="#ArialMT-66"/>
     <use x="66.699219" xlink:href="#ArialMT-105"/>
     <use x="88.916016" xlink:href="#ArialMT-99"/>
     <use x="138.916016" xlink:href="#ArialMT-121"/>
     <use x="188.916016" xlink:href="#ArialMT-99"/>
     <use x="238.916016" xlink:href="#ArialMT-108"/>
     <use x="261.132812" xlink:href="#ArialMT-101"/>
     <use x="316.748047" xlink:href="#ArialMT-32"/>
     <use x="344.53125" xlink:href="#ArialMT-67"/>
     <use x="416.748047" xlink:href="#ArialMT-114"/>
     <use x="450.048828" xlink:href="#ArialMT-97"/>
     <use x="505.664062" xlink:href="#ArialMT-115"/>
     <use x="555.664062" xlink:href="#ArialMT-104"/>
     <use x="611.279297" xlink:href="#ArialMT-101"/>
     <use x="666.894531" xlink:href="#ArialMT-115"/>
    </g>
   </g>
  </g>
 </g>
 <defs>
  <clipPath id="p21c09ecde8">
   <rect height="326.16" width="669.6" x="41.624975" y="43.367925"/>
  </clipPath>
 </defs>
</svg>
