<?xml version="1.0" encoding="utf-8" standalone="no"?>
<!DOCTYPE svg PUBLIC "-//W3C//DTD SVG 1.1//EN"
  "http://www.w3.org/Graphics/SVG/1.1/DTD/svg11.dtd">
<!-- Created with matplotlib (https://matplotlib.org/) -->
<svg height="393.086675pt" version="1.1" viewBox="0 0 724.291012 393.086675" width="724.291012pt" xmlns="http://www.w3.org/2000/svg" xmlns:xlink="http://www.w3.org/1999/xlink">
 <defs>
  <style type="text/css">
*{stroke-linecap:butt;stroke-linejoin:round;}
  </style>
 </defs>
 <g id="figure_1">
  <g id="patch_1">
   <path d="M 0 393.086675 
L 724.291012 393.086675 
L 724.291012 0 
L 0 0 
z
" style="fill:#ffffff;"/>
  </g>
  <g id="axes_1">
   <g id="patch_2">
    <path d="M 47.491012 369.43605 
L 717.091013 369.43605 
L 717.091013 43.27605 
L 47.491012 43.27605 
z
" style="fill:#ffffff;"/>
   </g>
   <g id="matplotlib.axis_1">
    <g id="xtick_1">
     <g id="line2d_1"/>
     <g id="text_1">
      <!-- 2001 -->
      <defs>
       <path d="M 5.03125 0 
L 5.03125 6.203125 
Q 7.515625 11.921875 11.109375 16.28125 
Q 14.703125 20.65625 18.65625 24.1875 
Q 22.609375 27.734375 26.484375 30.765625 
Q 30.375 33.796875 33.5 36.8125 
Q 36.625 39.84375 38.546875 43.15625 
Q 40.484375 46.484375 40.484375 50.6875 
Q 40.484375 56.34375 37.15625 59.46875 
Q 33.84375 62.59375 27.9375 62.59375 
Q 22.3125 62.59375 18.671875 59.546875 
Q 15.046875 56.5 14.40625 50.984375 
L 5.421875 51.8125 
Q 6.390625 60.0625 12.421875 64.9375 
Q 18.453125 69.828125 27.9375 69.828125 
Q 38.328125 69.828125 43.921875 64.921875 
Q 49.515625 60.015625 49.515625 50.984375 
Q 49.515625 46.96875 47.671875 43.015625 
Q 45.84375 39.0625 42.234375 35.109375 
Q 38.625 31.15625 28.421875 22.859375 
Q 22.796875 18.265625 19.46875 14.578125 
Q 16.15625 10.890625 14.703125 7.46875 
L 50.59375 7.46875 
L 50.59375 0 
z
" id="LiberationSans-50"/>
       <path d="M 51.703125 34.421875 
Q 51.703125 17.1875 45.625 8.09375 
Q 39.546875 -0.984375 27.6875 -0.984375 
Q 15.828125 -0.984375 9.859375 8.046875 
Q 3.90625 17.09375 3.90625 34.421875 
Q 3.90625 52.15625 9.6875 60.984375 
Q 15.484375 69.828125 27.984375 69.828125 
Q 40.140625 69.828125 45.921875 60.890625 
Q 51.703125 51.953125 51.703125 34.421875 
z
M 42.78125 34.421875 
Q 42.78125 49.3125 39.328125 56 
Q 35.890625 62.703125 27.984375 62.703125 
Q 19.875 62.703125 16.328125 56.109375 
Q 12.796875 49.515625 12.796875 34.421875 
Q 12.796875 19.78125 16.375 12.984375 
Q 19.96875 6.203125 27.78125 6.203125 
Q 35.546875 6.203125 39.15625 13.125 
Q 42.78125 20.0625 42.78125 34.421875 
z
" id="LiberationSans-48"/>
       <path d="M 7.625 0 
L 7.625 7.46875 
L 25.140625 7.46875 
L 25.140625 60.40625 
L 9.625 49.3125 
L 9.625 57.625 
L 25.875 68.796875 
L 33.984375 68.796875 
L 33.984375 7.46875 
L 50.734375 7.46875 
L 50.734375 0 
z
" id="LiberationSans-49"/>
      </defs>
      <g style="fill:#262626;" transform="translate(51.614505 382.981675)scale(0.14 -0.14)">
       <use xlink:href="#LiberationSans-50"/>
       <use x="55.615234" xlink:href="#LiberationSans-48"/>
       <use x="111.230469" xlink:href="#LiberationSans-48"/>
       <use x="166.845703" xlink:href="#LiberationSans-49"/>
      </g>
     </g>
    </g>
    <g id="xtick_2">
     <g id="line2d_2"/>
     <g id="text_2">
      <!-- 2003 -->
      <defs>
       <path d="M 51.21875 19 
Q 51.21875 9.46875 45.15625 4.234375 
Q 39.109375 -0.984375 27.875 -0.984375 
Q 17.4375 -0.984375 11.203125 3.734375 
Q 4.984375 8.453125 3.8125 17.671875 
L 12.890625 18.5 
Q 14.65625 6.296875 27.875 6.296875 
Q 34.515625 6.296875 38.296875 9.5625 
Q 42.09375 12.84375 42.09375 19.28125 
Q 42.09375 24.90625 37.765625 28.046875 
Q 33.453125 31.203125 25.296875 31.203125 
L 20.3125 31.203125 
L 20.3125 38.8125 
L 25.09375 38.8125 
Q 32.328125 38.8125 36.296875 41.96875 
Q 40.28125 45.125 40.28125 50.6875 
Q 40.28125 56.203125 37.03125 59.390625 
Q 33.796875 62.59375 27.390625 62.59375 
Q 21.578125 62.59375 17.984375 59.609375 
Q 14.40625 56.640625 13.8125 51.21875 
L 4.984375 51.90625 
Q 5.953125 60.359375 11.984375 65.09375 
Q 18.015625 69.828125 27.484375 69.828125 
Q 37.84375 69.828125 43.578125 65.015625 
Q 49.3125 60.203125 49.3125 51.609375 
Q 49.3125 45.015625 45.625 40.890625 
Q 41.9375 36.765625 34.90625 35.296875 
L 34.90625 35.109375 
Q 42.625 34.28125 46.921875 29.9375 
Q 51.21875 25.59375 51.21875 19 
z
" id="LiberationSans-51"/>
      </defs>
      <g style="fill:#262626;" transform="translate(130.390976 382.981675)scale(0.14 -0.14)">
       <use xlink:href="#LiberationSans-50"/>
       <use x="55.615234" xlink:href="#LiberationSans-48"/>
       <use x="111.230469" xlink:href="#LiberationSans-48"/>
       <use x="166.845703" xlink:href="#LiberationSans-51"/>
      </g>
     </g>
    </g>
    <g id="xtick_3">
     <g id="line2d_3"/>
     <g id="text_3">
      <!-- 2005 -->
      <defs>
       <path d="M 51.421875 22.40625 
Q 51.421875 11.53125 44.953125 5.265625 
Q 38.484375 -0.984375 27 -0.984375 
Q 17.390625 -0.984375 11.46875 3.21875 
Q 5.5625 7.421875 4 15.375 
L 12.890625 16.40625 
Q 15.671875 6.203125 27.203125 6.203125 
Q 34.28125 6.203125 38.28125 10.46875 
Q 42.28125 14.75 42.28125 22.21875 
Q 42.28125 28.71875 38.25 32.71875 
Q 34.234375 36.71875 27.390625 36.71875 
Q 23.828125 36.71875 20.75 35.59375 
Q 17.671875 34.46875 14.59375 31.78125 
L 6 31.78125 
L 8.296875 68.796875 
L 47.40625 68.796875 
L 47.40625 61.328125 
L 16.3125 61.328125 
L 14.984375 39.5 
Q 20.703125 43.890625 29.203125 43.890625 
Q 39.359375 43.890625 45.390625 37.9375 
Q 51.421875 31.984375 51.421875 22.40625 
z
" id="LiberationSans-53"/>
      </defs>
      <g style="fill:#262626;" transform="translate(209.167446 382.981675)scale(0.14 -0.14)">
       <use xlink:href="#LiberationSans-50"/>
       <use x="55.615234" xlink:href="#LiberationSans-48"/>
       <use x="111.230469" xlink:href="#LiberationSans-48"/>
       <use x="166.845703" xlink:href="#LiberationSans-53"/>
      </g>
     </g>
    </g>
    <g id="xtick_4">
     <g id="line2d_4"/>
     <g id="text_4">
      <!-- 2007 -->
      <defs>
       <path d="M 50.59375 61.671875 
Q 40.046875 45.5625 35.6875 36.421875 
Q 31.34375 27.296875 29.171875 18.40625 
Q 27 9.515625 27 0 
L 17.828125 0 
Q 17.828125 13.1875 23.40625 27.75 
Q 29 42.328125 42.09375 61.328125 
L 5.125 61.328125 
L 5.125 68.796875 
L 50.59375 68.796875 
z
" id="LiberationSans-55"/>
      </defs>
      <g style="fill:#262626;" transform="translate(287.943917 382.981675)scale(0.14 -0.14)">
       <use xlink:href="#LiberationSans-50"/>
       <use x="55.615234" xlink:href="#LiberationSans-48"/>
       <use x="111.230469" xlink:href="#LiberationSans-48"/>
       <use x="166.845703" xlink:href="#LiberationSans-55"/>
      </g>
     </g>
    </g>
    <g id="xtick_5">
     <g id="line2d_5"/>
     <g id="text_5">
      <!-- 2009 -->
      <defs>
       <path d="M 50.875 35.796875 
Q 50.875 18.0625 44.40625 8.53125 
Q 37.9375 -0.984375 25.984375 -0.984375 
Q 17.921875 -0.984375 13.0625 2.40625 
Q 8.203125 5.8125 6.109375 13.375 
L 14.5 14.703125 
Q 17.140625 6.109375 26.125 6.109375 
Q 33.6875 6.109375 37.84375 13.140625 
Q 42 20.171875 42.1875 33.203125 
Q 40.234375 28.8125 35.5 26.140625 
Q 30.765625 23.484375 25.09375 23.484375 
Q 15.828125 23.484375 10.25 29.828125 
Q 4.6875 36.1875 4.6875 46.6875 
Q 4.6875 57.46875 10.734375 63.640625 
Q 16.796875 69.828125 27.59375 69.828125 
Q 39.0625 69.828125 44.96875 61.328125 
Q 50.875 52.828125 50.875 35.796875 
z
M 41.3125 44.28125 
Q 41.3125 52.59375 37.5 57.640625 
Q 33.6875 62.703125 27.296875 62.703125 
Q 20.953125 62.703125 17.28125 58.375 
Q 13.625 54.046875 13.625 46.6875 
Q 13.625 39.15625 17.28125 34.78125 
Q 20.953125 30.421875 27.203125 30.421875 
Q 31 30.421875 34.265625 32.15625 
Q 37.546875 33.890625 39.421875 37.0625 
Q 41.3125 40.234375 41.3125 44.28125 
z
" id="LiberationSans-57"/>
      </defs>
      <g style="fill:#262626;" transform="translate(366.720387 382.981675)scale(0.14 -0.14)">
       <use xlink:href="#LiberationSans-50"/>
       <use x="55.615234" xlink:href="#LiberationSans-48"/>
       <use x="111.230469" xlink:href="#LiberationSans-48"/>
       <use x="166.845703" xlink:href="#LiberationSans-57"/>
      </g>
     </g>
    </g>
    <g id="xtick_6">
     <g id="line2d_6"/>
     <g id="text_6">
      <!-- 2011 -->
      <g style="fill:#262626;" transform="translate(445.504514 382.981675)scale(0.14 -0.14)">
       <use xlink:href="#LiberationSans-50"/>
       <use x="55.615234" xlink:href="#LiberationSans-48"/>
       <use x="111.230469" xlink:href="#LiberationSans-49"/>
       <use x="166.736328" xlink:href="#LiberationSans-49"/>
      </g>
     </g>
    </g>
    <g id="xtick_7">
     <g id="line2d_7"/>
     <g id="text_7">
      <!-- 2013 -->
      <g style="fill:#262626;" transform="translate(524.273329 382.981675)scale(0.14 -0.14)">
       <use xlink:href="#LiberationSans-50"/>
       <use x="55.615234" xlink:href="#LiberationSans-48"/>
       <use x="111.230469" xlink:href="#LiberationSans-49"/>
       <use x="166.845703" xlink:href="#LiberationSans-51"/>
      </g>
     </g>
    </g>
    <g id="xtick_8">
     <g id="line2d_8"/>
     <g id="text_8">
      <!-- 2015 -->
      <g style="fill:#262626;" transform="translate(603.049799 382.981675)scale(0.14 -0.14)">
       <use xlink:href="#LiberationSans-50"/>
       <use x="55.615234" xlink:href="#LiberationSans-48"/>
       <use x="111.230469" xlink:href="#LiberationSans-49"/>
       <use x="166.845703" xlink:href="#LiberationSans-53"/>
      </g>
     </g>
    </g>
    <g id="xtick_9">
     <g id="line2d_9"/>
     <g id="text_9">
      <!-- 2017 -->
      <g style="fill:#262626;" transform="translate(681.82627 382.981675)scale(0.14 -0.14)">
       <use xlink:href="#LiberationSans-50"/>
       <use x="55.615234" xlink:href="#LiberationSans-48"/>
       <use x="111.230469" xlink:href="#LiberationSans-49"/>
       <use x="166.845703" xlink:href="#LiberationSans-55"/>
      </g>
     </g>
    </g>
   </g>
   <g id="matplotlib.axis_2">
    <g id="ytick_1">
     <g id="line2d_10">
      <path clip-path="url(#pb56633ddf6)" d="M 47.491012 345.801267 
L 717.091013 345.801267 
" style="fill:none;stroke:#cccccc;stroke-linecap:round;stroke-width:0.8;"/>
     </g>
     <g id="line2d_11"/>
     <g id="text_10">
      <!-- 100 -->
      <g style="fill:#262626;" transform="translate(27.3082 349.424705)scale(0.1 -0.1)">
       <use xlink:href="#LiberationSans-49"/>
       <use x="55.615234" xlink:href="#LiberationSans-48"/>
       <use x="111.230469" xlink:href="#LiberationSans-48"/>
      </g>
     </g>
    </g>
    <g id="ytick_2">
     <g id="line2d_12">
      <path clip-path="url(#pb56633ddf6)" d="M 47.491012 298.531702 
L 717.091013 298.531702 
" style="fill:none;stroke:#cccccc;stroke-linecap:round;stroke-width:0.8;"/>
     </g>
     <g id="line2d_13"/>
     <g id="text_11">
      <!-- 150 -->
      <g style="fill:#262626;" transform="translate(27.3082 302.15514)scale(0.1 -0.1)">
       <use xlink:href="#LiberationSans-49"/>
       <use x="55.615234" xlink:href="#LiberationSans-53"/>
       <use x="111.230469" xlink:href="#LiberationSans-48"/>
      </g>
     </g>
    </g>
    <g id="ytick_3">
     <g id="line2d_14">
      <path clip-path="url(#pb56633ddf6)" d="M 47.491012 251.262137 
L 717.091013 251.262137 
" style="fill:none;stroke:#cccccc;stroke-linecap:round;stroke-width:0.8;"/>
     </g>
     <g id="line2d_15"/>
     <g id="text_12">
      <!-- 200 -->
      <g style="fill:#262626;" transform="translate(27.3082 254.885574)scale(0.1 -0.1)">
       <use xlink:href="#LiberationSans-50"/>
       <use x="55.615234" xlink:href="#LiberationSans-48"/>
       <use x="111.230469" xlink:href="#LiberationSans-48"/>
      </g>
     </g>
    </g>
    <g id="ytick_4">
     <g id="line2d_16">
      <path clip-path="url(#pb56633ddf6)" d="M 47.491012 203.992572 
L 717.091013 203.992572 
" style="fill:none;stroke:#cccccc;stroke-linecap:round;stroke-width:0.8;"/>
     </g>
     <g id="line2d_17"/>
     <g id="text_13">
      <!-- 250 -->
      <g style="fill:#262626;" transform="translate(27.3082 207.616009)scale(0.1 -0.1)">
       <use xlink:href="#LiberationSans-50"/>
       <use x="55.615234" xlink:href="#LiberationSans-53"/>
       <use x="111.230469" xlink:href="#LiberationSans-48"/>
      </g>
     </g>
    </g>
    <g id="ytick_5">
     <g id="line2d_18">
      <path clip-path="url(#pb56633ddf6)" d="M 47.491012 156.723007 
L 717.091013 156.723007 
" style="fill:none;stroke:#cccccc;stroke-linecap:round;stroke-width:0.8;"/>
     </g>
     <g id="line2d_19"/>
     <g id="text_14">
      <!-- 300 -->
      <g style="fill:#262626;" transform="translate(27.3082 160.346444)scale(0.1 -0.1)">
       <use xlink:href="#LiberationSans-51"/>
       <use x="55.615234" xlink:href="#LiberationSans-48"/>
       <use x="111.230469" xlink:href="#LiberationSans-48"/>
      </g>
     </g>
    </g>
    <g id="ytick_6">
     <g id="line2d_20">
      <path clip-path="url(#pb56633ddf6)" d="M 47.491012 109.453441 
L 717.091013 109.453441 
" style="fill:none;stroke:#cccccc;stroke-linecap:round;stroke-width:0.8;"/>
     </g>
     <g id="line2d_21"/>
     <g id="text_15">
      <!-- 350 -->
      <g style="fill:#262626;" transform="translate(27.3082 113.076879)scale(0.1 -0.1)">
       <use xlink:href="#LiberationSans-51"/>
       <use x="55.615234" xlink:href="#LiberationSans-53"/>
       <use x="111.230469" xlink:href="#LiberationSans-48"/>
      </g>
     </g>
    </g>
    <g id="ytick_7">
     <g id="line2d_22">
      <path clip-path="url(#pb56633ddf6)" d="M 47.491012 62.183876 
L 717.091013 62.183876 
" style="fill:none;stroke:#cccccc;stroke-linecap:round;stroke-width:0.8;"/>
     </g>
     <g id="line2d_23"/>
     <g id="text_16">
      <!-- 400 -->
      <defs>
       <path d="M 43.015625 15.578125 
L 43.015625 0 
L 34.71875 0 
L 34.71875 15.578125 
L 2.296875 15.578125 
L 2.296875 22.40625 
L 33.796875 68.796875 
L 43.015625 68.796875 
L 43.015625 22.515625 
L 52.6875 22.515625 
L 52.6875 15.578125 
z
M 34.71875 58.890625 
Q 34.625 58.59375 33.34375 56.296875 
Q 32.078125 54 31.453125 53.078125 
L 13.8125 27.09375 
L 11.1875 23.484375 
L 10.40625 22.515625 
L 34.71875 22.515625 
z
" id="LiberationSans-52"/>
      </defs>
      <g style="fill:#262626;" transform="translate(27.3082 65.807314)scale(0.1 -0.1)">
       <use xlink:href="#LiberationSans-52"/>
       <use x="55.615234" xlink:href="#LiberationSans-48"/>
       <use x="111.230469" xlink:href="#LiberationSans-48"/>
      </g>
     </g>
    </g>
    <g id="text_17">
     <!-- Accidents / Week -->
     <defs>
      <path d="M 56.984375 0 
L 49.125 20.125 
L 17.78125 20.125 
L 9.859375 0 
L 0.203125 0 
L 28.265625 68.796875 
L 38.875 68.796875 
L 66.5 0 
z
M 33.453125 61.765625 
L 33.015625 60.40625 
Q 31.78125 56.34375 29.390625 50 
L 20.609375 27.390625 
L 46.34375 27.390625 
L 37.5 50.09375 
Q 36.140625 53.46875 34.765625 57.71875 
z
" id="LiberationSans-65"/>
      <path d="M 13.421875 26.65625 
Q 13.421875 16.109375 16.734375 11.03125 
Q 20.0625 5.953125 26.765625 5.953125 
Q 31.453125 5.953125 34.59375 8.484375 
Q 37.75 11.03125 38.484375 16.3125 
L 47.359375 15.71875 
Q 46.34375 8.109375 40.875 3.5625 
Q 35.40625 -0.984375 27 -0.984375 
Q 15.921875 -0.984375 10.078125 6.015625 
Q 4.25 13.03125 4.25 26.46875 
Q 4.25 39.796875 10.109375 46.796875 
Q 15.96875 53.8125 26.90625 53.8125 
Q 35.015625 53.8125 40.359375 49.609375 
Q 45.703125 45.40625 47.078125 38.03125 
L 38.03125 37.359375 
Q 37.359375 41.75 34.5625 44.328125 
Q 31.78125 46.921875 26.65625 46.921875 
Q 19.671875 46.921875 16.546875 42.28125 
Q 13.421875 37.640625 13.421875 26.65625 
z
" id="LiberationSans-99"/>
      <path d="M 6.6875 64.0625 
L 6.6875 72.46875 
L 15.484375 72.46875 
L 15.484375 64.0625 
z
M 6.6875 0 
L 6.6875 52.828125 
L 15.484375 52.828125 
L 15.484375 0 
z
" id="LiberationSans-105"/>
      <path d="M 40.09375 8.5 
Q 37.640625 3.421875 33.609375 1.21875 
Q 29.59375 -0.984375 23.640625 -0.984375 
Q 13.625 -0.984375 8.90625 5.75 
Q 4.203125 12.5 4.203125 26.171875 
Q 4.203125 53.8125 23.640625 53.8125 
Q 29.640625 53.8125 33.640625 51.609375 
Q 37.640625 49.421875 40.09375 44.625 
L 40.1875 44.625 
L 40.09375 50.53125 
L 40.09375 72.46875 
L 48.875 72.46875 
L 48.875 10.890625 
Q 48.875 2.640625 49.171875 0 
L 40.765625 0 
Q 40.625 0.78125 40.453125 3.609375 
Q 40.28125 6.453125 40.28125 8.5 
z
M 13.421875 26.46875 
Q 13.421875 15.375 16.34375 10.59375 
Q 19.28125 5.8125 25.875 5.8125 
Q 33.34375 5.8125 36.71875 10.984375 
Q 40.09375 16.15625 40.09375 27.046875 
Q 40.09375 37.546875 36.71875 42.421875 
Q 33.34375 47.3125 25.984375 47.3125 
Q 19.34375 47.3125 16.375 42.40625 
Q 13.421875 37.5 13.421875 26.46875 
z
" id="LiberationSans-100"/>
      <path d="M 13.484375 24.5625 
Q 13.484375 15.484375 17.234375 10.546875 
Q 21 5.609375 28.21875 5.609375 
Q 33.9375 5.609375 37.375 7.90625 
Q 40.828125 10.203125 42.046875 13.71875 
L 49.75 11.53125 
Q 45.015625 -0.984375 28.21875 -0.984375 
Q 16.5 -0.984375 10.375 6 
Q 4.25 12.984375 4.25 26.765625 
Q 4.25 39.84375 10.375 46.828125 
Q 16.5 53.8125 27.875 53.8125 
Q 51.171875 53.8125 51.171875 25.734375 
L 51.171875 24.5625 
z
M 42.09375 31.296875 
Q 41.359375 39.65625 37.84375 43.484375 
Q 34.328125 47.3125 27.734375 47.3125 
Q 21.34375 47.3125 17.609375 43.03125 
Q 13.875 38.765625 13.578125 31.296875 
z
" id="LiberationSans-101"/>
      <path d="M 40.28125 0 
L 40.28125 33.5 
Q 40.28125 38.71875 39.25 41.59375 
Q 38.234375 44.484375 35.984375 45.75 
Q 33.734375 47.015625 29.390625 47.015625 
Q 23.046875 47.015625 19.375 42.671875 
Q 15.71875 38.328125 15.71875 30.609375 
L 15.71875 0 
L 6.9375 0 
L 6.9375 41.546875 
Q 6.9375 50.78125 6.640625 52.828125 
L 14.9375 52.828125 
Q 14.984375 52.59375 15.03125 51.515625 
Q 15.09375 50.4375 15.15625 49.046875 
Q 15.234375 47.65625 15.328125 43.796875 
L 15.484375 43.796875 
Q 18.5 49.265625 22.484375 51.53125 
Q 26.46875 53.8125 32.375 53.8125 
Q 41.0625 53.8125 45.09375 49.484375 
Q 49.125 45.171875 49.125 35.203125 
L 49.125 0 
z
" id="LiberationSans-110"/>
      <path d="M 27.046875 0.390625 
Q 22.703125 -0.78125 18.171875 -0.78125 
Q 7.625 -0.78125 7.625 11.1875 
L 7.625 46.4375 
L 1.515625 46.4375 
L 1.515625 52.828125 
L 7.953125 52.828125 
L 10.546875 64.65625 
L 16.40625 64.65625 
L 16.40625 52.828125 
L 26.171875 52.828125 
L 26.171875 46.4375 
L 16.40625 46.4375 
L 16.40625 13.09375 
Q 16.40625 9.28125 17.640625 7.734375 
Q 18.890625 6.203125 21.96875 6.203125 
Q 23.734375 6.203125 27.046875 6.890625 
z
" id="LiberationSans-116"/>
      <path d="M 46.390625 14.59375 
Q 46.390625 7.125 40.75 3.0625 
Q 35.109375 -0.984375 24.953125 -0.984375 
Q 15.09375 -0.984375 9.734375 2.265625 
Q 4.390625 5.515625 2.78125 12.40625 
L 10.546875 13.921875 
Q 11.671875 9.671875 15.1875 7.6875 
Q 18.703125 5.71875 24.953125 5.71875 
Q 31.640625 5.71875 34.734375 7.765625 
Q 37.84375 9.8125 37.84375 13.921875 
Q 37.84375 17.046875 35.6875 19 
Q 33.546875 20.953125 28.765625 22.21875 
L 22.46875 23.875 
Q 14.890625 25.828125 11.6875 27.703125 
Q 8.5 29.59375 6.6875 32.28125 
Q 4.890625 34.96875 4.890625 38.875 
Q 4.890625 46.09375 10.03125 49.875 
Q 15.1875 53.65625 25.046875 53.65625 
Q 33.796875 53.65625 38.9375 50.578125 
Q 44.09375 47.515625 45.453125 40.71875 
L 37.546875 39.75 
Q 36.8125 43.265625 33.609375 45.140625 
Q 30.421875 47.015625 25.046875 47.015625 
Q 19.09375 47.015625 16.25 45.203125 
Q 13.421875 43.40625 13.421875 39.75 
Q 13.421875 37.5 14.59375 36.03125 
Q 15.765625 34.578125 18.0625 33.546875 
Q 20.359375 32.515625 27.734375 30.71875 
Q 34.71875 28.953125 37.796875 27.46875 
Q 40.875 25.984375 42.65625 24.171875 
Q 44.4375 22.359375 45.40625 19.984375 
Q 46.390625 17.625 46.390625 14.59375 
z
" id="LiberationSans-115"/>
      <path id="LiberationSans-32"/>
      <path d="M 0 -0.984375 
L 20.0625 72.46875 
L 27.78125 72.46875 
L 7.90625 -0.984375 
z
" id="LiberationSans-47"/>
      <path d="M 73.78125 0 
L 62.640625 0 
L 50.734375 43.703125 
Q 49.5625 47.796875 47.3125 58.40625 
Q 46.046875 52.734375 45.15625 48.921875 
Q 44.28125 45.125 31.84375 0 
L 20.703125 0 
L 0.4375 68.796875 
L 10.15625 68.796875 
L 22.515625 25.09375 
Q 24.703125 16.890625 26.5625 8.203125 
Q 27.734375 13.578125 29.265625 19.921875 
Q 30.8125 26.265625 42.828125 68.796875 
L 51.765625 68.796875 
L 63.71875 25.984375 
Q 66.453125 15.484375 68.015625 8.203125 
L 68.453125 9.90625 
Q 69.78125 15.53125 70.609375 19.0625 
Q 71.4375 22.609375 84.328125 68.796875 
L 94.046875 68.796875 
z
" id="LiberationSans-87"/>
      <path d="M 39.84375 0 
L 21.96875 24.125 
L 15.53125 18.796875 
L 15.53125 0 
L 6.734375 0 
L 6.734375 72.46875 
L 15.53125 72.46875 
L 15.53125 27.203125 
L 38.71875 52.828125 
L 49.03125 52.828125 
L 27.59375 30.125 
L 50.140625 0 
z
" id="LiberationSans-107"/>
     </defs>
     <g style="fill:#262626;" transform="translate(19.7226 273.09735)rotate(-90)scale(0.1728 -0.1728)">
      <use xlink:href="#LiberationSans-65"/>
      <use x="66.699219" xlink:href="#LiberationSans-99"/>
      <use x="116.699219" xlink:href="#LiberationSans-99"/>
      <use x="166.699219" xlink:href="#LiberationSans-105"/>
      <use x="188.916016" xlink:href="#LiberationSans-100"/>
      <use x="244.53125" xlink:href="#LiberationSans-101"/>
      <use x="300.146484" xlink:href="#LiberationSans-110"/>
      <use x="355.761719" xlink:href="#LiberationSans-116"/>
      <use x="383.544922" xlink:href="#LiberationSans-115"/>
      <use x="433.544922" xlink:href="#LiberationSans-32"/>
      <use x="461.328125" xlink:href="#LiberationSans-47"/>
      <use x="489.111328" xlink:href="#LiberationSans-32"/>
      <use x="516.894531" xlink:href="#LiberationSans-87"/>
      <use x="611.263672" xlink:href="#LiberationSans-101"/>
      <use x="666.878906" xlink:href="#LiberationSans-101"/>
      <use x="722.494141" xlink:href="#LiberationSans-107"/>
     </g>
    </g>
   </g>
   <g id="patch_3">
    <path clip-path="url(#pb56633ddf6)" d="M 87.500934 369.43605 
L 87.500934 43.27605 
L 126.75595 43.27605 
L 126.75595 369.43605 
z
" style="opacity:0.05;stroke:#000000;stroke-linejoin:miter;"/>
   </g>
   <g id="patch_4">
    <path clip-path="url(#pb56633ddf6)" d="M 166.010967 369.43605 
L 166.010967 43.27605 
L 205.265984 43.27605 
L 205.265984 369.43605 
z
" style="opacity:0.05;stroke:#000000;stroke-linejoin:miter;"/>
   </g>
   <g id="patch_5">
    <path clip-path="url(#pb56633ddf6)" d="M 244.521001 369.43605 
L 244.521001 43.27605 
L 283.776018 43.27605 
L 283.776018 369.43605 
z
" style="opacity:0.05;stroke:#000000;stroke-linejoin:miter;"/>
   </g>
   <g id="patch_6">
    <path clip-path="url(#pb56633ddf6)" d="M 323.785939 369.43605 
L 323.785939 43.27605 
L 363.040956 43.27605 
L 363.040956 369.43605 
z
" style="opacity:0.05;stroke:#000000;stroke-linejoin:miter;"/>
   </g>
   <g id="patch_7">
    <path clip-path="url(#pb56633ddf6)" d="M 402.295973 369.43605 
L 402.295973 43.27605 
L 441.55099 43.27605 
L 441.55099 369.43605 
z
" style="opacity:0.05;stroke:#000000;stroke-linejoin:miter;"/>
   </g>
   <g id="patch_8">
    <path clip-path="url(#pb56633ddf6)" d="M 480.806007 369.43605 
L 480.806007 43.27605 
L 520.815928 43.27605 
L 520.815928 369.43605 
z
" style="opacity:0.05;stroke:#000000;stroke-linejoin:miter;"/>
   </g>
   <g id="patch_9">
    <path clip-path="url(#pb56633ddf6)" d="M 560.070945 369.43605 
L 560.070945 43.27605 
L 599.325962 43.27605 
L 599.325962 369.43605 
z
" style="opacity:0.05;stroke:#000000;stroke-linejoin:miter;"/>
   </g>
   <g id="patch_10">
    <path clip-path="url(#pb56633ddf6)" d="M 638.580979 369.43605 
L 638.580979 43.27605 
L 677.835996 43.27605 
L 677.835996 369.43605 
z
" style="opacity:0.05;stroke:#000000;stroke-linejoin:miter;"/>
   </g>
   <g id="patch_11">
    <path clip-path="url(#pb56633ddf6)" d="M 717.091012 369.43605 
L 717.091012 43.27605 
L 757.100934 43.27605 
L 757.100934 369.43605 
z
" style="opacity:0.05;stroke:#000000;stroke-linejoin:miter;"/>
   </g>
   <g id="line2d_24">
    <path clip-path="url(#pb56633ddf6)" d="M 47.617246 394.086675 
L 48.245917 262.606833 
L 49.000821 290.968572 
L 49.755725 260.71605 
L 50.510629 277.733093 
L 51.265533 192.647876 
L 52.020438 296.64092 
L 52.775342 261.661441 
L 53.530246 306.094833 
L 54.28515 282.46005 
L 55.040054 266.388398 
L 55.794958 182.248572 
L 56.549863 218.173441 
L 57.304767 180.357789 
L 58.059671 241.808224 
L 58.814575 203.04718 
L 59.569479 221.955007 
L 60.324383 173.74005 
L 61.079288 163.340746 
L 61.834192 199.265615 
L 62.589096 160.504572 
L 63.344 184.139354 
L 64.098904 173.74005 
L 64.853808 160.504572 
L 65.608713 116.07118 
L 66.363617 167.122311 
L 67.118521 141.596746 
L 67.873425 171.849267 
L 68.628329 148.214485 
L 69.383233 178.467007 
L 70.138138 180.357789 
L 70.893042 148.214485 
L 71.647946 188.866311 
L 72.40285 168.067702 
L 73.157754 200.211007 
L 73.912658 202.101789 
L 75.422467 163.340746 
L 76.177371 206.828746 
L 76.932275 133.088224 
L 77.687179 191.702485 
L 78.442084 146.323702 
L 79.196988 130.25205 
L 79.951892 201.156398 
L 80.706796 211.555702 
L 81.4617 241.808224 
L 82.216604 219.118833 
L 82.971509 308.931007 
L 83.726413 267.333789 
L 84.481317 238.97205 
L 85.236221 258.825267 
L 85.991125 297.586311 
L 86.746029 321.221093 
L 87.500934 304.20405 
L 88.255838 216.282659 
L 89.010742 275.842311 
L 89.765646 263.552224 
L 90.52055 294.750137 
L 91.275454 226.681963 
L 92.030359 258.825267 
L 92.785263 232.354311 
L 93.540167 170.903876 
L 94.295071 228.572746 
L 95.049975 248.425963 
L 95.804879 243.699007 
L 96.559784 208.719528 
L 97.314688 245.589789 
L 98.069592 164.286137 
L 98.824496 211.555702 
L 99.5794 206.828746 
L 100.334304 169.013093 
L 101.089209 166.17692 
L 101.844113 191.702485 
L 102.599017 208.719528 
L 103.353921 187.92092 
L 104.108825 183.193963 
L 104.86373 172.794659 
L 105.618634 212.501093 
L 106.373538 189.811702 
L 107.128442 187.92092 
L 107.883346 195.48405 
L 108.63825 212.501093 
L 109.393155 179.412398 
L 110.902963 194.538659 
L 111.657867 208.719528 
L 112.412771 199.265615 
L 113.167675 184.139354 
L 113.92258 147.269093 
L 114.677484 172.794659 
L 115.432388 167.122311 
L 116.187292 170.903876 
L 116.942196 158.613789 
L 117.6971 186.975528 
L 118.452005 241.808224 
L 119.206909 209.66492 
L 119.961813 231.40892 
L 120.716717 226.681963 
L 121.471621 208.719528 
L 122.226525 245.589789 
L 122.98143 263.552224 
L 123.736334 267.333789 
L 124.491238 284.350833 
L 125.246142 296.64092 
L 126.001046 319.330311 
L 126.75595 281.514659 
L 128.265759 239.917441 
L 129.020663 252.207528 
L 129.775567 245.589789 
L 130.530471 214.391876 
L 131.285376 264.497615 
L 132.04028 242.753615 
L 132.795184 254.098311 
L 133.550088 220.064224 
L 134.304992 251.262137 
L 135.059896 237.081267 
L 135.814801 173.74005 
L 136.569705 234.245093 
L 137.324609 251.262137 
L 138.079513 243.699007 
L 138.834417 245.589789 
L 139.589321 234.245093 
L 140.344226 244.644398 
L 141.09913 198.320224 
L 141.854034 197.374833 
L 142.608938 200.211007 
L 143.363842 207.774137 
L 144.118746 200.211007 
L 144.873651 212.501093 
L 145.628555 158.613789 
L 146.383459 177.521615 
L 147.138363 186.975528 
L 147.893267 181.30318 
L 148.648171 183.193963 
L 149.403076 204.937963 
L 150.15798 205.883354 
L 150.912884 196.429441 
L 151.667788 196.429441 
L 152.422692 197.374833 
L 153.177596 174.685441 
L 153.932501 172.794659 
L 154.687405 166.17692 
L 155.442309 186.030137 
L 156.197213 190.757093 
L 156.952117 155.777615 
L 157.707022 161.449963 
L 158.461926 161.449963 
L 159.21683 199.265615 
L 159.971734 242.753615 
L 160.726638 204.937963 
L 161.481542 238.026659 
L 162.236447 289.077789 
L 162.991351 269.224572 
L 163.746255 275.842311 
L 164.501159 271.115354 
L 165.256063 325.002659 
L 166.010967 327.838833 
L 166.765872 268.27918 
L 167.520776 258.825267 
L 168.27568 255.043702 
L 169.030584 255.989093 
L 169.785488 264.497615 
L 170.540392 248.425963 
L 171.295297 254.098311 
L 172.050201 263.552224 
L 172.805105 216.282659 
L 173.560009 140.651354 
L 174.314913 215.337267 
L 175.069817 216.282659 
L 175.824722 183.193963 
L 176.579626 235.190485 
L 178.089434 206.828746 
L 178.844338 172.794659 
L 179.599242 195.48405 
L 180.354147 169.958485 
L 181.109051 160.504572 
L 181.863955 205.883354 
L 182.618859 150.105267 
L 183.373763 161.449963 
L 184.128668 203.04718 
L 184.883572 201.156398 
L 185.638476 185.084746 
L 186.39338 201.156398 
L 187.148284 162.395354 
L 187.903188 182.248572 
L 188.658093 170.903876 
L 189.412997 198.320224 
L 190.167901 206.828746 
L 190.922805 203.992572 
L 191.677709 194.538659 
L 192.432613 178.467007 
L 193.187518 134.033615 
L 193.942422 144.43292 
L 194.697326 174.685441 
L 195.45223 197.374833 
L 196.207134 170.903876 
L 196.962038 219.118833 
L 197.716943 233.299702 
L 198.471847 250.316746 
L 199.226751 228.572746 
L 199.981655 251.262137 
L 200.736559 243.699007 
L 201.491463 294.750137 
L 202.246368 260.71605 
L 203.001272 258.825267 
L 203.756176 243.699007 
L 204.51108 309.876398 
L 205.265984 346.746659 
L 206.020888 334.456572 
L 206.775793 284.350833 
L 207.530697 256.934485 
L 208.285601 276.787702 
L 209.040505 225.736572 
L 209.795409 280.569267 
L 210.550314 286.241615 
L 211.305218 249.371354 
L 212.060122 218.173441 
L 212.815026 207.774137 
L 213.56993 265.443007 
L 214.324834 279.623876 
L 215.079739 221.955007 
L 215.834643 203.04718 
L 216.589547 190.757093 
L 217.344451 204.937963 
L 218.099355 225.736572 
L 218.854259 228.572746 
L 219.609164 183.193963 
L 220.364068 186.030137 
L 221.118972 208.719528 
L 221.873876 183.193963 
L 222.62878 185.084746 
L 223.383684 210.610311 
L 224.138589 211.555702 
L 224.893493 229.518137 
L 225.648397 219.118833 
L 226.403301 220.064224 
L 227.158205 172.794659 
L 227.913109 186.975528 
L 228.668014 242.753615 
L 229.422918 197.374833 
L 230.177822 187.92092 
L 230.932726 203.992572 
L 231.68763 202.101789 
L 232.442534 180.357789 
L 233.197439 190.757093 
L 233.952343 186.030137 
L 234.707247 142.542137 
L 235.462151 177.521615 
L 236.217055 187.92092 
L 236.97196 243.699007 
L 237.726864 192.647876 
L 239.236672 242.753615 
L 239.991576 205.883354 
L 240.74648 277.733093 
L 241.501385 269.224572 
L 242.256289 278.678485 
L 243.011193 290.968572 
L 243.766097 316.494137 
L 244.521001 351.473615 
L 245.275905 257.879876 
L 246.03081 280.569267 
L 246.785714 260.71605 
L 247.540618 255.043702 
L 248.295522 243.699007 
L 249.050426 186.975528 
L 249.80533 282.46005 
L 250.560235 233.299702 
L 251.315139 282.46005 
L 252.070043 308.931007 
L 252.824947 293.804746 
L 253.579851 273.006137 
L 254.334755 304.20405 
L 255.08966 256.934485 
L 255.844564 272.060746 
L 256.599468 260.71605 
L 257.354372 233.299702 
L 258.109276 188.866311 
L 258.86418 175.630833 
L 259.619085 233.299702 
L 260.373989 229.518137 
L 261.128893 157.668398 
L 261.883797 206.828746 
L 262.638701 175.630833 
L 263.393606 218.173441 
L 264.14851 202.101789 
L 264.903414 211.555702 
L 265.658318 192.647876 
L 266.413222 214.391876 
L 267.168126 222.900398 
L 267.923031 207.774137 
L 268.677935 205.883354 
L 270.187743 187.92092 
L 270.942647 183.193963 
L 271.697551 189.811702 
L 272.452456 174.685441 
L 273.20736 149.159876 
L 273.962264 169.013093 
L 274.717168 220.064224 
L 276.226976 197.374833 
L 276.981881 204.937963 
L 277.736785 219.118833 
L 278.491689 209.66492 
L 279.246593 205.883354 
L 280.001497 288.132398 
L 280.756401 250.316746 
L 281.511306 262.606833 
L 283.021114 323.111876 
L 283.776018 320.275702 
L 284.530922 318.38492 
L 285.285826 308.931007 
L 286.040731 253.15292 
L 286.795635 264.497615 
L 287.550539 283.405441 
L 288.305443 299.477093 
L 289.060347 273.951528 
L 289.815252 273.951528 
L 290.570156 262.606833 
L 291.32506 203.992572 
L 292.079964 208.719528 
L 292.834868 257.879876 
L 293.589772 227.627354 
L 294.344677 255.043702 
L 295.099581 239.917441 
L 295.854485 244.644398 
L 296.609389 174.685441 
L 297.364293 211.555702 
L 298.119197 186.030137 
L 298.874102 206.828746 
L 299.629006 195.48405 
L 300.38391 203.04718 
L 301.138814 174.685441 
L 301.893718 188.866311 
L 302.648622 172.794659 
L 303.403527 181.30318 
L 304.158431 201.156398 
L 304.913335 178.467007 
L 305.668239 171.849267 
L 306.423143 213.446485 
L 307.178047 208.719528 
L 307.932952 196.429441 
L 308.687856 204.937963 
L 309.44276 190.757093 
L 310.197664 216.282659 
L 310.952568 183.193963 
L 311.707472 184.139354 
L 312.462377 213.446485 
L 313.217281 188.866311 
L 313.972185 170.903876 
L 314.727089 226.681963 
L 315.481993 201.156398 
L 316.236898 236.135876 
L 317.746706 220.064224 
L 318.50161 218.173441 
L 319.256514 273.951528 
L 320.011418 219.118833 
L 320.766323 265.443007 
L 321.521227 266.388398 
L 322.276131 294.750137 
L 323.031035 327.838833 
L 323.785939 347.69205 
L 324.540843 263.552224 
L 325.295748 267.333789 
L 326.050652 314.603354 
L 326.805556 282.46005 
L 327.56046 230.463528 
L 328.315364 260.71605 
L 329.070268 321.221093 
L 329.825173 235.190485 
L 330.580077 220.064224 
L 331.334981 224.79118 
L 332.089885 211.555702 
L 332.844789 225.736572 
L 333.599693 221.955007 
L 334.354598 187.92092 
L 335.109502 173.74005 
L 335.864406 195.48405 
L 336.61931 194.538659 
L 337.374214 211.555702 
L 338.129118 157.668398 
L 338.884023 227.627354 
L 339.638927 171.849267 
L 340.393831 156.723007 
L 341.148735 195.48405 
L 341.903639 165.231528 
L 342.658544 179.412398 
L 343.413448 182.248572 
L 344.168352 209.66492 
L 344.923256 154.832224 
L 345.67816 161.449963 
L 346.433064 157.668398 
L 347.187969 177.521615 
L 347.942873 170.903876 
L 348.697777 155.777615 
L 349.452681 158.613789 
L 350.207585 127.415876 
L 350.962489 126.470485 
L 351.717394 113.235007 
L 352.472298 76.364746 
L 353.227202 140.651354 
L 353.982106 156.723007 
L 354.73701 138.760572 
L 355.491914 151.99605 
L 356.246819 209.66492 
L 357.001723 232.354311 
L 357.756627 191.702485 
L 358.511531 185.084746 
L 359.266435 280.569267 
L 360.021339 222.900398 
L 360.776244 237.081267 
L 361.531148 292.859354 
L 362.286052 326.893441 
L 363.040956 295.695528 
L 363.79586 243.699007 
L 364.550764 209.66492 
L 365.305669 256.934485 
L 366.060573 227.627354 
L 366.815477 247.480572 
L 367.570381 283.405441 
L 369.08019 226.681963 
L 369.835094 242.753615 
L 370.589998 232.354311 
L 371.344902 234.245093 
L 372.099806 183.193963 
L 372.85471 159.55918 
L 373.609615 227.627354 
L 374.364519 190.757093 
L 375.119423 131.197441 
L 375.874327 217.22805 
L 376.629231 174.685441 
L 377.384135 148.214485 
L 378.13904 195.48405 
L 378.893944 175.630833 
L 379.648848 190.757093 
L 380.403752 184.139354 
L 381.158656 221.009615 
L 381.91356 181.30318 
L 382.668465 162.395354 
L 383.423369 170.903876 
L 384.178273 136.869789 
L 384.933177 183.193963 
L 385.688081 192.647876 
L 386.442985 158.613789 
L 387.19789 188.866311 
L 387.952794 161.449963 
L 388.707698 138.760572 
L 389.462602 163.340746 
L 390.217506 126.470485 
L 390.97241 140.651354 
L 391.727315 132.142833 
L 392.482219 119.852746 
L 393.237123 159.55918 
L 393.992027 173.74005 
L 394.746931 147.269093 
L 395.501835 146.323702 
L 396.25674 193.593267 
L 397.011644 208.719528 
L 397.766548 199.265615 
L 398.521452 227.627354 
L 399.276356 218.173441 
L 400.031261 263.552224 
L 400.786165 259.770659 
L 401.541069 293.804746 
L 402.295973 290.968572 
L 403.050877 234.245093 
L 403.805781 248.425963 
L 404.560686 324.057267 
L 405.31559 225.736572 
L 406.070494 247.480572 
L 406.825398 216.282659 
L 407.580302 238.97205 
L 408.335206 239.917441 
L 409.090111 228.572746 
L 409.845015 232.354311 
L 410.599919 159.55918 
L 411.354823 169.013093 
L 412.109727 225.736572 
L 412.864631 205.883354 
L 413.619536 169.013093 
L 414.37444 205.883354 
L 415.129344 183.193963 
L 415.884248 164.286137 
L 416.639152 159.55918 
L 417.394056 179.412398 
L 418.148961 204.937963 
L 418.903865 132.142833 
L 419.658769 180.357789 
L 420.413673 163.340746 
L 421.168577 134.033615 
L 421.923481 129.306659 
L 422.678386 123.634311 
L 423.43329 119.852746 
L 424.188194 171.849267 
L 424.943098 135.924398 
L 425.698002 130.25205 
L 426.452907 157.668398 
L 427.207811 102.835702 
L 427.962715 152.941441 
L 428.717619 160.504572 
L 429.472523 114.180398 
L 430.227427 101.890311 
L 430.982332 117.016572 
L 431.737236 100.94492 
L 433.247044 143.487528 
L 434.001948 220.064224 
L 434.756852 174.685441 
L 435.511757 165.231528 
L 437.021565 197.374833 
L 437.776469 283.405441 
L 438.531373 233.299702 
L 439.286277 211.555702 
L 440.041182 282.46005 
L 440.796086 313.657963 
L 441.55099 307.985615 
L 442.305894 246.53518 
L 443.060798 238.97205 
L 443.815702 170.903876 
L 444.570607 193.593267 
L 445.325511 178.467007 
L 446.080415 155.777615 
L 446.835319 274.89692 
L 447.590223 259.770659 
L 448.345127 198.320224 
L 449.100032 167.122311 
L 449.854936 241.808224 
L 450.60984 267.333789 
L 451.364744 172.794659 
L 452.119648 169.958485 
L 452.874553 178.467007 
L 453.629457 171.849267 
L 454.384361 132.142833 
L 455.139265 136.869789 
L 455.894169 151.99605 
L 456.649073 198.320224 
L 457.403978 169.958485 
L 458.158882 179.412398 
L 458.913786 166.17692 
L 459.66869 122.68892 
L 460.423594 135.924398 
L 461.178498 104.726485 
L 461.933403 118.907354 
L 462.688307 119.852746 
L 463.443211 108.50805 
L 464.198115 109.453441 
L 464.953019 113.235007 
L 465.707923 122.68892 
L 466.462828 143.487528 
L 467.217732 124.579702 
L 467.972636 136.869789 
L 468.72754 101.890311 
L 469.482444 102.835702 
L 470.992253 70.692398 
L 471.747157 167.122311 
L 472.502061 132.142833 
L 473.256965 134.033615 
L 474.011869 114.180398 
L 474.766773 173.74005 
L 475.521678 191.702485 
L 476.276582 188.866311 
L 477.031486 236.135876 
L 477.78639 162.395354 
L 478.541294 176.576224 
L 479.296199 240.862833 
L 480.051103 250.316746 
L 480.806007 265.443007 
L 481.560911 183.193963 
L 482.315815 189.811702 
L 483.070719 205.883354 
L 483.825624 186.975528 
L 484.580528 162.395354 
L 486.090336 203.04718 
L 486.84524 186.975528 
L 487.600144 182.248572 
L 488.355049 156.723007 
L 489.109953 218.173441 
L 489.864857 220.064224 
L 490.619761 205.883354 
L 491.374665 195.48405 
L 492.129569 203.992572 
L 492.884474 138.760572 
L 494.394282 162.395354 
L 495.149186 103.781093 
L 495.90409 130.25205 
L 496.658994 169.958485 
L 497.413899 143.487528 
L 498.168803 136.869789 
L 498.923707 155.777615 
L 499.678611 141.596746 
L 500.433515 117.961963 
L 501.188419 150.105267 
L 501.943324 168.067702 
L 502.698228 126.470485 
L 503.453132 160.504572 
L 504.208036 147.269093 
L 504.96294 175.630833 
L 505.717845 141.596746 
L 506.472749 121.743528 
L 507.227653 131.197441 
L 507.982557 121.743528 
L 508.737461 82.982485 
L 509.492365 56.511528 
L 510.24727 84.873267 
L 511.002174 80.146311 
L 511.757078 117.016572 
L 512.511982 90.545615 
L 513.266886 121.743528 
L 514.02179 112.289615 
L 514.776695 175.630833 
L 515.531599 169.958485 
L 516.286503 248.425963 
L 517.041407 252.207528 
L 517.796311 229.518137 
L 518.551215 235.190485 
L 519.30612 259.770659 
L 520.061024 307.040224 
L 520.815928 279.623876 
L 521.570832 228.572746 
L 522.325736 223.845789 
L 523.08064 258.825267 
L 523.835545 166.17692 
L 524.590449 255.043702 
L 525.345353 169.958485 
L 526.100257 208.719528 
L 526.855161 166.17692 
L 527.610065 192.647876 
L 528.36497 153.886833 
L 529.119874 182.248572 
L 529.874778 186.030137 
L 530.629682 174.685441 
L 531.384586 158.613789 
L 532.139491 158.613789 
L 532.894395 138.760572 
L 533.649299 159.55918 
L 534.404203 111.344224 
L 535.159107 101.890311 
L 535.914011 161.449963 
L 536.668916 151.99605 
L 537.42382 154.832224 
L 538.178724 145.378311 
L 538.933628 168.067702 
L 539.688532 156.723007 
L 540.443436 149.159876 
L 541.198341 143.487528 
L 541.953245 182.248572 
L 542.708149 155.777615 
L 543.463053 151.99605 
L 544.217957 167.122311 
L 544.972861 169.958485 
L 545.727766 146.323702 
L 546.48267 148.214485 
L 547.237574 155.777615 
L 547.992478 103.781093 
L 548.747382 96.217963 
L 549.502286 151.99605 
L 550.257191 137.81518 
L 551.012095 167.122311 
L 551.766999 142.542137 
L 552.521903 169.013093 
L 553.276807 162.395354 
L 554.031711 179.412398 
L 554.786616 175.630833 
L 555.54152 201.156398 
L 556.296424 266.388398 
L 557.051328 250.316746 
L 557.806232 250.316746 
L 558.561137 257.879876 
L 559.316041 275.842311 
L 560.070945 264.497615 
L 560.825849 232.354311 
L 561.580753 176.576224 
L 562.335657 195.48405 
L 563.090562 192.647876 
L 563.845466 221.009615 
L 565.355274 156.723007 
L 566.110178 239.917441 
L 566.865082 208.719528 
L 567.619987 145.378311 
L 568.374891 150.105267 
L 569.129795 210.610311 
L 569.884699 161.449963 
L 570.639603 190.757093 
L 571.394507 169.013093 
L 572.149412 190.757093 
L 572.904316 154.832224 
L 573.65922 136.869789 
L 574.414124 155.777615 
L 575.169028 213.446485 
L 575.923932 137.81518 
L 577.433741 165.231528 
L 578.188645 167.122311 
L 578.943549 187.92092 
L 579.698453 189.811702 
L 580.453357 203.04718 
L 581.208262 183.193963 
L 581.963166 193.593267 
L 582.71807 175.630833 
L 583.472974 181.30318 
L 584.227878 177.521615 
L 584.982783 195.48405 
L 585.737687 183.193963 
L 586.492591 131.197441 
L 587.247495 122.68892 
L 588.002399 107.562659 
L 588.757303 137.81518 
L 589.512208 98.108746 
L 590.267112 117.016572 
L 591.022016 149.159876 
L 591.77692 117.961963 
L 592.531824 161.449963 
L 593.286728 145.378311 
L 594.041633 223.845789 
L 594.796537 190.757093 
L 595.551441 274.89692 
L 596.306345 259.770659 
L 597.061249 236.135876 
L 597.816153 240.862833 
L 598.571058 243.699007 
L 599.325962 306.094833 
L 600.080866 213.446485 
L 600.83577 169.958485 
L 601.590674 175.630833 
L 602.345578 204.937963 
L 603.100483 199.265615 
L 603.855387 183.193963 
L 604.610291 202.101789 
L 605.365195 217.22805 
L 606.120099 180.357789 
L 606.875003 169.013093 
L 607.629908 163.340746 
L 608.384812 151.050659 
L 609.139716 182.248572 
L 609.89462 196.429441 
L 610.649524 171.849267 
L 611.404429 196.429441 
L 612.159333 158.613789 
L 612.914237 190.757093 
L 613.669141 181.30318 
L 614.424045 208.719528 
L 615.178949 173.74005 
L 615.933854 175.630833 
L 616.688758 196.429441 
L 617.443662 203.992572 
L 618.198566 170.903876 
L 618.95347 186.030137 
L 619.708374 176.576224 
L 620.463279 204.937963 
L 621.218183 192.647876 
L 621.973087 183.193963 
L 622.727991 187.92092 
L 623.482895 175.630833 
L 624.237799 158.613789 
L 624.992704 122.68892 
L 625.747608 134.979007 
L 626.502512 135.924398 
L 627.257416 155.777615 
L 628.01232 169.958485 
L 628.767224 145.378311 
L 629.522129 128.361267 
L 630.277033 146.323702 
L 631.031937 152.941441 
L 631.786841 152.941441 
L 632.541745 200.211007 
L 633.296649 175.630833 
L 634.051554 188.866311 
L 634.806458 282.46005 
L 635.561362 219.118833 
L 636.316266 253.15292 
L 637.07117 260.71605 
L 637.826075 316.494137 
L 638.580979 290.02318 
L 639.335883 291.913963 
L 640.845691 233.299702 
L 641.600595 198.320224 
L 642.3555 218.173441 
L 643.110404 188.866311 
L 643.865308 222.900398 
L 644.620212 169.013093 
L 645.375116 196.429441 
L 646.13002 262.606833 
L 646.884925 194.538659 
L 647.639829 234.245093 
L 648.394733 208.719528 
L 649.149637 224.79118 
L 649.904541 190.757093 
L 650.659445 201.156398 
L 651.41435 192.647876 
L 652.169254 207.774137 
L 652.924158 154.832224 
L 653.679062 185.084746 
L 654.433966 169.958485 
L 655.18887 178.467007 
L 655.943775 214.391876 
L 656.698679 213.446485 
L 657.453583 185.084746 
L 658.208487 224.79118 
L 658.963391 207.774137 
L 659.718295 183.193963 
L 660.4732 221.009615 
L 661.228104 192.647876 
L 661.983008 207.774137 
L 662.737912 212.501093 
L 663.492816 171.849267 
L 664.247721 171.849267 
L 665.002625 177.521615 
L 665.757529 144.43292 
L 666.512433 173.74005 
L 667.267337 130.25205 
L 668.022241 139.705963 
L 668.777146 166.17692 
L 669.53205 203.992572 
L 670.286954 169.958485 
L 671.041858 222.900398 
L 671.796762 154.832224 
L 672.551666 151.99605 
L 674.061475 273.006137 
L 674.816379 192.647876 
L 675.571283 260.71605 
L 676.326187 252.207528 
L 677.081091 295.695528 
L 677.835996 297.586311 
L 678.5909 293.804746 
L 679.345804 279.623876 
L 680.100708 290.968572 
L 680.855612 250.316746 
L 681.610516 268.27918 
L 682.365421 251.262137 
L 683.120325 268.27918 
L 683.875229 293.804746 
L 684.630133 224.79118 
L 685.385037 187.92092 
L 686.139941 180.357789 
L 686.894846 237.081267 
L 687.64975 204.937963 
L 688.404654 201.156398 
L 689.159558 210.610311 
L 689.914462 207.774137 
L 690.669367 195.48405 
L 691.424271 198.320224 
L 692.179175 182.248572 
L 693.688983 194.538659 
L 694.443887 186.975528 
L 695.198792 221.009615 
L 695.953696 200.211007 
L 696.7086 205.883354 
L 697.463504 221.955007 
L 698.218408 221.009615 
L 698.973312 191.702485 
L 699.728217 189.811702 
L 700.483121 206.828746 
L 701.238025 201.156398 
L 701.992929 229.518137 
L 702.747833 183.193963 
L 703.502737 177.521615 
L 704.257642 199.265615 
L 705.012546 209.66492 
L 705.76745 186.030137 
L 706.522354 194.538659 
L 707.277258 156.723007 
L 708.032162 158.613789 
L 708.787067 188.866311 
L 709.541971 195.48405 
L 710.296875 178.467007 
L 711.051779 211.555702 
L 711.806683 199.265615 
L 712.561587 215.337267 
L 713.316492 257.879876 
L 714.071396 206.828746 
L 714.8263 205.883354 
L 715.581204 227.627354 
L 716.336108 297.586311 
L 717.091012 317.439528 
L 717.091012 317.439528 
" style="fill:none;stroke:#008000;stroke-linecap:round;"/>
   </g>
   <g id="patch_12">
    <path d="M 47.491012 369.43605 
L 47.491012 43.27605 
" style="fill:none;stroke:#262626;stroke-linecap:square;stroke-linejoin:miter;stroke-width:1.25;"/>
   </g>
   <g id="patch_13">
    <path d="M 717.091013 369.43605 
L 717.091013 43.27605 
" style="fill:none;stroke:#262626;stroke-linecap:square;stroke-linejoin:miter;stroke-width:1.25;"/>
   </g>
   <g id="patch_14">
    <path d="M 47.491012 369.43605 
L 717.091012 369.43605 
" style="fill:none;stroke:#262626;stroke-linecap:square;stroke-linejoin:miter;stroke-width:1.25;"/>
   </g>
   <g id="patch_15">
    <path d="M 47.491012 43.27605 
L 717.091012 43.27605 
" style="fill:none;stroke:#262626;stroke-linecap:square;stroke-linejoin:miter;stroke-width:1.25;"/>
   </g>
   <g id="text_18">
    <!-- Bicycle Accidents in California -->
    <defs>
     <path d="M 61.421875 19.390625 
Q 61.421875 10.203125 54.734375 5.09375 
Q 48.046875 0 36.140625 0 
L 8.203125 0 
L 8.203125 68.796875 
L 33.203125 68.796875 
Q 57.421875 68.796875 57.421875 52.09375 
Q 57.421875 46 54 41.84375 
Q 50.59375 37.703125 44.34375 36.28125 
Q 52.546875 35.296875 56.984375 30.78125 
Q 61.421875 26.265625 61.421875 19.390625 
z
M 48.046875 50.984375 
Q 48.046875 56.546875 44.234375 58.9375 
Q 40.4375 61.328125 33.203125 61.328125 
L 17.53125 61.328125 
L 17.53125 39.546875 
L 33.203125 39.546875 
Q 40.671875 39.546875 44.359375 42.359375 
Q 48.046875 45.171875 48.046875 50.984375 
z
M 52 20.125 
Q 52 32.28125 34.90625 32.28125 
L 17.53125 32.28125 
L 17.53125 7.46875 
L 35.640625 7.46875 
Q 44.1875 7.46875 48.09375 10.640625 
Q 52 13.8125 52 20.125 
z
" id="LiberationSans-66"/>
     <path d="M 9.328125 -20.75 
Q 5.71875 -20.75 3.265625 -20.21875 
L 3.265625 -13.625 
Q 5.125 -13.921875 7.375 -13.921875 
Q 15.578125 -13.921875 20.359375 -1.859375 
L 21.1875 0.25 
L 0.25 52.828125 
L 9.625 52.828125 
L 20.75 23.640625 
Q 21 22.953125 21.34375 22 
Q 21.6875 21.046875 23.53125 15.625 
Q 25.390625 10.203125 25.53125 9.578125 
L 28.953125 19.1875 
L 40.53125 52.828125 
L 49.8125 52.828125 
L 29.5 0 
Q 26.21875 -8.453125 23.390625 -12.578125 
Q 20.5625 -16.703125 17.109375 -18.71875 
Q 13.671875 -20.75 9.328125 -20.75 
z
" id="LiberationSans-121"/>
     <path d="M 6.734375 0 
L 6.734375 72.46875 
L 15.53125 72.46875 
L 15.53125 0 
z
" id="LiberationSans-108"/>
     <path d="M 38.671875 62.203125 
Q 27.25 62.203125 20.890625 54.859375 
Q 14.546875 47.515625 14.546875 34.71875 
Q 14.546875 22.078125 21.15625 14.375 
Q 27.78125 6.6875 39.0625 6.6875 
Q 53.515625 6.6875 60.796875 21 
L 68.40625 17.1875 
Q 64.15625 8.296875 56.46875 3.65625 
Q 48.78125 -0.984375 38.625 -0.984375 
Q 28.21875 -0.984375 20.625 3.34375 
Q 13.03125 7.671875 9.046875 15.703125 
Q 5.078125 23.734375 5.078125 34.71875 
Q 5.078125 51.171875 13.96875 60.5 
Q 22.859375 69.828125 38.578125 69.828125 
Q 49.5625 69.828125 56.9375 65.53125 
Q 64.3125 61.234375 67.78125 52.78125 
L 58.9375 49.859375 
Q 56.546875 55.859375 51.25 59.03125 
Q 45.953125 62.203125 38.671875 62.203125 
z
" id="LiberationSans-67"/>
     <path d="M 20.21875 -0.984375 
Q 12.25 -0.984375 8.25 3.21875 
Q 4.25 7.421875 4.25 14.75 
Q 4.25 22.953125 9.640625 27.34375 
Q 15.046875 31.734375 27.046875 32.03125 
L 38.921875 32.234375 
L 38.921875 35.109375 
Q 38.921875 41.546875 36.1875 44.328125 
Q 33.453125 47.125 27.59375 47.125 
Q 21.6875 47.125 19 45.109375 
Q 16.3125 43.109375 15.765625 38.71875 
L 6.59375 39.546875 
Q 8.84375 53.8125 27.78125 53.8125 
Q 37.75 53.8125 42.765625 49.234375 
Q 47.796875 44.671875 47.796875 36.03125 
L 47.796875 13.28125 
Q 47.796875 9.375 48.828125 7.390625 
Q 49.859375 5.421875 52.734375 5.421875 
Q 54 5.421875 55.609375 5.765625 
L 55.609375 0.296875 
Q 52.296875 -0.484375 48.828125 -0.484375 
Q 43.953125 -0.484375 41.71875 2.078125 
Q 39.5 4.640625 39.203125 10.109375 
L 38.921875 10.109375 
Q 35.546875 4.046875 31.078125 1.53125 
Q 26.609375 -0.984375 20.21875 -0.984375 
z
M 22.21875 5.609375 
Q 27.046875 5.609375 30.8125 7.8125 
Q 34.578125 10.015625 36.75 13.84375 
Q 38.921875 17.671875 38.921875 21.734375 
L 38.921875 26.078125 
L 29.296875 25.875 
Q 23.09375 25.78125 19.890625 24.609375 
Q 16.703125 23.4375 14.984375 21 
Q 13.28125 18.5625 13.28125 14.59375 
Q 13.28125 10.296875 15.59375 7.953125 
Q 17.921875 5.609375 22.21875 5.609375 
z
" id="LiberationSans-97"/>
     <path d="M 17.625 46.4375 
L 17.625 0 
L 8.84375 0 
L 8.84375 46.4375 
L 1.421875 46.4375 
L 1.421875 52.828125 
L 8.84375 52.828125 
L 8.84375 58.796875 
Q 8.84375 66.015625 12.015625 69.1875 
Q 15.1875 72.359375 21.734375 72.359375 
Q 25.390625 72.359375 27.9375 71.78125 
L 27.9375 65.09375 
Q 25.734375 65.484375 24.03125 65.484375 
Q 20.65625 65.484375 19.140625 63.765625 
Q 17.625 62.0625 17.625 57.5625 
L 17.625 52.828125 
L 27.9375 52.828125 
L 27.9375 46.4375 
z
" id="LiberationSans-102"/>
     <path d="M 51.421875 26.46875 
Q 51.421875 12.59375 45.3125 5.796875 
Q 39.203125 -0.984375 27.59375 -0.984375 
Q 16.015625 -0.984375 10.109375 6.078125 
Q 4.203125 13.140625 4.203125 26.46875 
Q 4.203125 53.8125 27.875 53.8125 
Q 39.984375 53.8125 45.703125 47.140625 
Q 51.421875 40.484375 51.421875 26.46875 
z
M 42.1875 26.46875 
Q 42.1875 37.40625 38.9375 42.359375 
Q 35.6875 47.3125 28.03125 47.3125 
Q 20.3125 47.3125 16.859375 42.25 
Q 13.421875 37.203125 13.421875 26.46875 
Q 13.421875 16.015625 16.8125 10.765625 
Q 20.21875 5.515625 27.484375 5.515625 
Q 35.40625 5.515625 38.796875 10.59375 
Q 42.1875 15.671875 42.1875 26.46875 
z
" id="LiberationSans-111"/>
     <path d="M 6.9375 0 
L 6.9375 40.53125 
Q 6.9375 46.09375 6.640625 52.828125 
L 14.9375 52.828125 
Q 15.328125 43.84375 15.328125 42.046875 
L 15.53125 42.046875 
Q 17.625 48.828125 20.359375 51.3125 
Q 23.09375 53.8125 28.078125 53.8125 
Q 29.828125 53.8125 31.640625 53.328125 
L 31.640625 45.265625 
Q 29.890625 45.75 26.953125 45.75 
Q 21.484375 45.75 18.59375 41.03125 
Q 15.71875 36.328125 15.71875 27.546875 
L 15.71875 0 
z
" id="LiberationSans-114"/>
    </defs>
    <g style="fill:#262626;" transform="translate(195.563825 27.49125)scale(0.28 -0.28)">
     <use xlink:href="#LiberationSans-66"/>
     <use x="66.699219" xlink:href="#LiberationSans-105"/>
     <use x="88.916016" xlink:href="#LiberationSans-99"/>
     <use x="138.916016" xlink:href="#LiberationSans-121"/>
     <use x="188.916016" xlink:href="#LiberationSans-99"/>
     <use x="238.916016" xlink:href="#LiberationSans-108"/>
     <use x="261.132812" xlink:href="#LiberationSans-101"/>
     <use x="316.748047" xlink:href="#LiberationSans-32"/>
     <use x="344.453125" xlink:href="#LiberationSans-65"/>
     <use x="411.152344" xlink:href="#LiberationSans-99"/>
     <use x="461.152344" xlink:href="#LiberationSans-99"/>
     <use x="511.152344" xlink:href="#LiberationSans-105"/>
     <use x="533.369141" xlink:href="#LiberationSans-100"/>
     <use x="588.984375" xlink:href="#LiberationSans-101"/>
     <use x="644.599609" xlink:href="#LiberationSans-110"/>
     <use x="700.214844" xlink:href="#LiberationSans-116"/>
     <use x="727.998047" xlink:href="#LiberationSans-115"/>
     <use x="777.998047" xlink:href="#LiberationSans-32"/>
     <use x="805.78125" xlink:href="#LiberationSans-105"/>
     <use x="827.998047" xlink:href="#LiberationSans-110"/>
     <use x="883.613281" xlink:href="#LiberationSans-32"/>
     <use x="911.396484" xlink:href="#LiberationSans-67"/>
     <use x="983.613281" xlink:href="#LiberationSans-97"/>
     <use x="1039.228516" xlink:href="#LiberationSans-108"/>
     <use x="1061.445312" xlink:href="#LiberationSans-105"/>
     <use x="1083.662109" xlink:href="#LiberationSans-102"/>
     <use x="1111.445312" xlink:href="#LiberationSans-111"/>
     <use x="1167.060547" xlink:href="#LiberationSans-114"/>
     <use x="1200.361328" xlink:href="#LiberationSans-110"/>
     <use x="1255.976562" xlink:href="#LiberationSans-105"/>
     <use x="1278.193359" xlink:href="#LiberationSans-97"/>
    </g>
   </g>
  </g>
 </g>
 <defs>
  <clipPath id="pb56633ddf6">
   <rect height="326.16" width="669.6" x="47.491012" y="43.27605"/>
  </clipPath>
 </defs>
</svg>
