<?xml version="1.0" encoding="utf-8" standalone="no"?>
<!DOCTYPE svg PUBLIC "-//W3C//DTD SVG 1.1//EN"
  "http://www.w3.org/Graphics/SVG/1.1/DTD/svg11.dtd">
<!-- Created with matplotlib (https://matplotlib.org/) -->
<svg height="390.321831pt" version="1.1" viewBox="0 0 718.424975 390.321831" width="718.424975pt" xmlns="http://www.w3.org/2000/svg" xmlns:xlink="http://www.w3.org/1999/xlink">
 <defs>
  <style type="text/css">
*{stroke-linecap:butt;stroke-linejoin:round;}
  </style>
 </defs>
 <g id="figure_1">
  <g id="patch_1">
   <path d="M 0 390.321831 
L 718.424975 390.321831 
L 718.424975 0 
L 0 0 
z
" style="fill:#ffffff;"/>
  </g>
  <g id="axes_1">
   <g id="patch_2">
    <path d="M 41.624975 369.527925 
L 711.224975 369.527925 
L 711.224975 43.367925 
L 41.624975 43.367925 
z
" style="fill:#ffffff;"/>
   </g>
   <g id="matplotlib.axis_1">
    <g id="xtick_1">
     <g id="line2d_1">
      <path clip-path="url(#p79c2d61159)" d="M 45.254243 369.527925 
L 45.254243 43.367925 
" style="fill:none;stroke:#cccccc;stroke-linecap:round;stroke-width:0.8;"/>
     </g>
     <g id="line2d_2"/>
    </g>
    <g id="xtick_2">
     <g id="line2d_3">
      <path clip-path="url(#p79c2d61159)" d="M 101.507902 369.527925 
L 101.507902 43.367925 
" style="fill:none;stroke:#cccccc;stroke-linecap:round;stroke-width:0.8;"/>
     </g>
     <g id="line2d_4"/>
    </g>
    <g id="xtick_3">
     <g id="line2d_5">
      <path clip-path="url(#p79c2d61159)" d="M 154.132292 369.527925 
L 154.132292 43.367925 
" style="fill:none;stroke:#cccccc;stroke-linecap:round;stroke-width:0.8;"/>
     </g>
     <g id="line2d_6"/>
    </g>
    <g id="xtick_4">
     <g id="line2d_7">
      <path clip-path="url(#p79c2d61159)" d="M 210.385951 369.527925 
L 210.385951 43.367925 
" style="fill:none;stroke:#cccccc;stroke-linecap:round;stroke-width:0.8;"/>
     </g>
     <g id="line2d_8"/>
    </g>
    <g id="xtick_5">
     <g id="line2d_9">
      <path clip-path="url(#p79c2d61159)" d="M 264.824975 369.527925 
L 264.824975 43.367925 
" style="fill:none;stroke:#cccccc;stroke-linecap:round;stroke-width:0.8;"/>
     </g>
     <g id="line2d_10"/>
    </g>
    <g id="xtick_6">
     <g id="line2d_11">
      <path clip-path="url(#p79c2d61159)" d="M 321.078634 369.527925 
L 321.078634 43.367925 
" style="fill:none;stroke:#cccccc;stroke-linecap:round;stroke-width:0.8;"/>
     </g>
     <g id="line2d_12"/>
    </g>
    <g id="xtick_7">
     <g id="line2d_13">
      <path clip-path="url(#p79c2d61159)" d="M 375.517658 369.527925 
L 375.517658 43.367925 
" style="fill:none;stroke:#cccccc;stroke-linecap:round;stroke-width:0.8;"/>
     </g>
     <g id="line2d_14"/>
    </g>
    <g id="xtick_8">
     <g id="line2d_15">
      <path clip-path="url(#p79c2d61159)" d="M 431.771316 369.527925 
L 431.771316 43.367925 
" style="fill:none;stroke:#cccccc;stroke-linecap:round;stroke-width:0.8;"/>
     </g>
     <g id="line2d_16"/>
    </g>
    <g id="xtick_9">
     <g id="line2d_17">
      <path clip-path="url(#p79c2d61159)" d="M 488.024975 369.527925 
L 488.024975 43.367925 
" style="fill:none;stroke:#cccccc;stroke-linecap:round;stroke-width:0.8;"/>
     </g>
     <g id="line2d_18"/>
    </g>
    <g id="xtick_10">
     <g id="line2d_19">
      <path clip-path="url(#p79c2d61159)" d="M 542.463999 369.527925 
L 542.463999 43.367925 
" style="fill:none;stroke:#cccccc;stroke-linecap:round;stroke-width:0.8;"/>
     </g>
     <g id="line2d_20"/>
    </g>
    <g id="xtick_11">
     <g id="line2d_21">
      <path clip-path="url(#p79c2d61159)" d="M 598.717658 369.527925 
L 598.717658 43.367925 
" style="fill:none;stroke:#cccccc;stroke-linecap:round;stroke-width:0.8;"/>
     </g>
     <g id="line2d_22"/>
    </g>
    <g id="xtick_12">
     <g id="line2d_23">
      <path clip-path="url(#p79c2d61159)" d="M 653.156682 369.527925 
L 653.156682 43.367925 
" style="fill:none;stroke:#cccccc;stroke-linecap:round;stroke-width:0.8;"/>
     </g>
     <g id="line2d_24"/>
    </g>
    <g id="xtick_13">
     <g id="line2d_25"/>
     <g id="text_1">
      <!-- January -->
      <defs>
       <path d="M 2.875 20.3125 
L 11.421875 21.484375 
Q 11.765625 13.28125 14.5 10.25 
Q 17.234375 7.234375 22.078125 7.234375 
Q 25.640625 7.234375 28.21875 8.859375 
Q 30.8125 10.5 31.78125 13.296875 
Q 32.765625 16.109375 32.765625 22.265625 
L 32.765625 71.578125 
L 42.234375 71.578125 
L 42.234375 22.796875 
Q 42.234375 13.8125 40.0625 8.875 
Q 37.890625 3.953125 33.171875 1.359375 
Q 28.46875 -1.21875 22.125 -1.21875 
Q 12.703125 -1.21875 7.6875 4.203125 
Q 2.6875 9.625 2.875 20.3125 
z
" id="ArialMT-74"/>
       <path d="M 40.4375 6.390625 
Q 35.546875 2.25 31.03125 0.53125 
Q 26.515625 -1.171875 21.34375 -1.171875 
Q 12.796875 -1.171875 8.203125 3 
Q 3.609375 7.171875 3.609375 13.671875 
Q 3.609375 17.484375 5.34375 20.625 
Q 7.078125 23.78125 9.890625 25.6875 
Q 12.703125 27.59375 16.21875 28.5625 
Q 18.796875 29.25 24.03125 29.890625 
Q 34.671875 31.15625 39.703125 32.90625 
Q 39.75 34.71875 39.75 35.203125 
Q 39.75 40.578125 37.25 42.78125 
Q 33.890625 45.75 27.25 45.75 
Q 21.046875 45.75 18.09375 43.578125 
Q 15.140625 41.40625 13.71875 35.890625 
L 5.125 37.0625 
Q 6.296875 42.578125 8.984375 45.96875 
Q 11.671875 49.359375 16.75 51.1875 
Q 21.828125 53.03125 28.515625 53.03125 
Q 35.15625 53.03125 39.296875 51.46875 
Q 43.453125 49.90625 45.40625 47.53125 
Q 47.359375 45.171875 48.140625 41.546875 
Q 48.578125 39.3125 48.578125 33.453125 
L 48.578125 21.734375 
Q 48.578125 9.46875 49.140625 6.21875 
Q 49.703125 2.984375 51.375 0 
L 42.1875 0 
Q 40.828125 2.734375 40.4375 6.390625 
z
M 39.703125 26.03125 
Q 34.90625 24.078125 25.34375 22.703125 
Q 19.921875 21.921875 17.671875 20.9375 
Q 15.4375 19.96875 14.203125 18.09375 
Q 12.984375 16.21875 12.984375 13.921875 
Q 12.984375 10.40625 15.640625 8.0625 
Q 18.3125 5.71875 23.4375 5.71875 
Q 28.515625 5.71875 32.46875 7.9375 
Q 36.421875 10.15625 38.28125 14.015625 
Q 39.703125 17 39.703125 22.796875 
z
" id="ArialMT-97"/>
       <path d="M 6.59375 0 
L 6.59375 51.859375 
L 14.5 51.859375 
L 14.5 44.484375 
Q 20.21875 53.03125 31 53.03125 
Q 35.6875 53.03125 39.625 51.34375 
Q 43.5625 49.65625 45.515625 46.921875 
Q 47.46875 44.1875 48.25 40.4375 
Q 48.734375 37.984375 48.734375 31.890625 
L 48.734375 0 
L 39.9375 0 
L 39.9375 31.546875 
Q 39.9375 36.921875 38.90625 39.578125 
Q 37.890625 42.234375 35.28125 43.8125 
Q 32.671875 45.40625 29.15625 45.40625 
Q 23.53125 45.40625 19.453125 41.84375 
Q 15.375 38.28125 15.375 28.328125 
L 15.375 0 
z
" id="ArialMT-110"/>
       <path d="M 40.578125 0 
L 40.578125 7.625 
Q 34.515625 -1.171875 24.125 -1.171875 
Q 19.53125 -1.171875 15.546875 0.578125 
Q 11.578125 2.34375 9.640625 5 
Q 7.71875 7.671875 6.9375 11.53125 
Q 6.390625 14.109375 6.390625 19.734375 
L 6.390625 51.859375 
L 15.1875 51.859375 
L 15.1875 23.09375 
Q 15.1875 16.21875 15.71875 13.8125 
Q 16.546875 10.359375 19.234375 8.375 
Q 21.921875 6.390625 25.875 6.390625 
Q 29.828125 6.390625 33.296875 8.421875 
Q 36.765625 10.453125 38.203125 13.9375 
Q 39.65625 17.4375 39.65625 24.078125 
L 39.65625 51.859375 
L 48.4375 51.859375 
L 48.4375 0 
z
" id="ArialMT-117"/>
       <path d="M 6.5 0 
L 6.5 51.859375 
L 14.40625 51.859375 
L 14.40625 44 
Q 17.4375 49.515625 20 51.265625 
Q 22.5625 53.03125 25.640625 53.03125 
Q 30.078125 53.03125 34.671875 50.203125 
L 31.640625 42.046875 
Q 28.421875 43.953125 25.203125 43.953125 
Q 22.3125 43.953125 20.015625 42.21875 
Q 17.71875 40.484375 16.75 37.40625 
Q 15.28125 32.71875 15.28125 27.15625 
L 15.28125 0 
z
" id="ArialMT-114"/>
       <path d="M 6.203125 -19.96875 
L 5.21875 -11.71875 
Q 8.109375 -12.5 10.25 -12.5 
Q 13.1875 -12.5 14.9375 -11.515625 
Q 16.703125 -10.546875 17.828125 -8.796875 
Q 18.65625 -7.46875 20.515625 -2.25 
Q 20.75 -1.515625 21.296875 -0.09375 
L 1.609375 51.859375 
L 11.078125 51.859375 
L 21.875 21.828125 
Q 23.96875 16.109375 25.640625 9.8125 
Q 27.15625 15.875 29.25 21.625 
L 40.328125 51.859375 
L 49.125 51.859375 
L 29.390625 -0.875 
Q 26.21875 -9.421875 24.46875 -12.640625 
Q 22.125 -17 19.09375 -19.015625 
Q 16.0625 -21.046875 11.859375 -21.046875 
Q 9.328125 -21.046875 6.203125 -19.96875 
z
" id="ArialMT-121"/>
      </defs>
      <g style="fill:#262626;" transform="translate(53.815682 380.801519)scale(0.11 -0.11)">
       <use xlink:href="#ArialMT-74"/>
       <use x="50" xlink:href="#ArialMT-97"/>
       <use x="105.615234" xlink:href="#ArialMT-110"/>
       <use x="161.230469" xlink:href="#ArialMT-117"/>
       <use x="216.845703" xlink:href="#ArialMT-97"/>
       <use x="272.460938" xlink:href="#ArialMT-114"/>
       <use x="305.761719" xlink:href="#ArialMT-121"/>
      </g>
     </g>
    </g>
    <g id="xtick_14">
     <g id="line2d_26"/>
     <g id="text_2">
      <!-- February -->
      <defs>
       <path d="M 8.203125 0 
L 8.203125 71.578125 
L 56.5 71.578125 
L 56.5 63.140625 
L 17.671875 63.140625 
L 17.671875 40.96875 
L 51.265625 40.96875 
L 51.265625 32.515625 
L 17.671875 32.515625 
L 17.671875 0 
z
" id="ArialMT-70"/>
       <path d="M 42.09375 16.703125 
L 51.171875 15.578125 
Q 49.03125 7.625 43.21875 3.21875 
Q 37.40625 -1.171875 28.375 -1.171875 
Q 17 -1.171875 10.328125 5.828125 
Q 3.65625 12.84375 3.65625 25.484375 
Q 3.65625 38.578125 10.390625 45.796875 
Q 17.140625 53.03125 27.875 53.03125 
Q 38.28125 53.03125 44.875 45.953125 
Q 51.46875 38.875 51.46875 26.03125 
Q 51.46875 25.25 51.421875 23.6875 
L 12.75 23.6875 
Q 13.234375 15.140625 17.578125 10.59375 
Q 21.921875 6.0625 28.421875 6.0625 
Q 33.25 6.0625 36.671875 8.59375 
Q 40.09375 11.140625 42.09375 16.703125 
z
M 13.234375 30.90625 
L 42.1875 30.90625 
Q 41.609375 37.453125 38.875 40.71875 
Q 34.671875 45.796875 27.984375 45.796875 
Q 21.921875 45.796875 17.796875 41.75 
Q 13.671875 37.703125 13.234375 30.90625 
z
" id="ArialMT-101"/>
       <path d="M 14.703125 0 
L 6.546875 0 
L 6.546875 71.578125 
L 15.328125 71.578125 
L 15.328125 46.046875 
Q 20.90625 53.03125 29.546875 53.03125 
Q 34.328125 53.03125 38.59375 51.09375 
Q 42.875 49.171875 45.625 45.671875 
Q 48.390625 42.1875 49.953125 37.25 
Q 51.515625 32.328125 51.515625 26.703125 
Q 51.515625 13.375 44.921875 6.09375 
Q 38.328125 -1.171875 29.109375 -1.171875 
Q 19.921875 -1.171875 14.703125 6.5 
z
M 14.59375 26.3125 
Q 14.59375 17 17.140625 12.84375 
Q 21.296875 6.0625 28.375 6.0625 
Q 34.125 6.0625 38.328125 11.0625 
Q 42.53125 16.0625 42.53125 25.984375 
Q 42.53125 36.140625 38.5 40.96875 
Q 34.46875 45.796875 28.765625 45.796875 
Q 23 45.796875 18.796875 40.796875 
Q 14.59375 35.796875 14.59375 26.3125 
z
" id="ArialMT-98"/>
      </defs>
      <g style="fill:#262626;" transform="translate(105.814081 380.801519)scale(0.11 -0.11)">
       <use xlink:href="#ArialMT-70"/>
       <use x="61.083984" xlink:href="#ArialMT-101"/>
       <use x="116.699219" xlink:href="#ArialMT-98"/>
       <use x="172.314453" xlink:href="#ArialMT-114"/>
       <use x="205.615234" xlink:href="#ArialMT-117"/>
       <use x="261.230469" xlink:href="#ArialMT-97"/>
       <use x="316.845703" xlink:href="#ArialMT-114"/>
       <use x="350.146484" xlink:href="#ArialMT-121"/>
      </g>
     </g>
    </g>
    <g id="xtick_15">
     <g id="line2d_27"/>
     <g id="text_3">
      <!-- March -->
      <defs>
       <path d="M 7.421875 0 
L 7.421875 71.578125 
L 21.6875 71.578125 
L 38.625 20.90625 
Q 40.96875 13.8125 42.046875 10.296875 
Q 43.265625 14.203125 45.84375 21.78125 
L 62.984375 71.578125 
L 75.734375 71.578125 
L 75.734375 0 
L 66.609375 0 
L 66.609375 59.90625 
L 45.796875 0 
L 37.25 0 
L 16.546875 60.9375 
L 16.546875 0 
z
" id="ArialMT-77"/>
       <path d="M 40.4375 19 
L 49.078125 17.875 
Q 47.65625 8.9375 41.8125 3.875 
Q 35.984375 -1.171875 27.484375 -1.171875 
Q 16.84375 -1.171875 10.375 5.78125 
Q 3.90625 12.75 3.90625 25.734375 
Q 3.90625 34.125 6.6875 40.421875 
Q 9.46875 46.734375 15.15625 49.875 
Q 20.84375 53.03125 27.546875 53.03125 
Q 35.984375 53.03125 41.359375 48.75 
Q 46.734375 44.484375 48.25 36.625 
L 39.703125 35.296875 
Q 38.484375 40.53125 35.375 43.15625 
Q 32.28125 45.796875 27.875 45.796875 
Q 21.234375 45.796875 17.078125 41.03125 
Q 12.9375 36.28125 12.9375 25.984375 
Q 12.9375 15.53125 16.9375 10.796875 
Q 20.953125 6.0625 27.390625 6.0625 
Q 32.5625 6.0625 36.03125 9.234375 
Q 39.5 12.40625 40.4375 19 
z
" id="ArialMT-99"/>
       <path d="M 6.59375 0 
L 6.59375 71.578125 
L 15.375 71.578125 
L 15.375 45.90625 
Q 21.53125 53.03125 30.90625 53.03125 
Q 36.671875 53.03125 40.921875 50.75 
Q 45.171875 48.484375 47 44.484375 
Q 48.828125 40.484375 48.828125 32.859375 
L 48.828125 0 
L 40.046875 0 
L 40.046875 32.859375 
Q 40.046875 39.453125 37.1875 42.453125 
Q 34.328125 45.453125 29.109375 45.453125 
Q 25.203125 45.453125 21.75 43.421875 
Q 18.3125 41.40625 16.84375 37.9375 
Q 15.375 34.46875 15.375 28.375 
L 15.375 0 
z
" id="ArialMT-104"/>
      </defs>
      <g style="fill:#262626;" transform="translate(166.979434 380.801519)scale(0.11 -0.11)">
       <use xlink:href="#ArialMT-77"/>
       <use x="83.300781" xlink:href="#ArialMT-97"/>
       <use x="138.916016" xlink:href="#ArialMT-114"/>
       <use x="172.216797" xlink:href="#ArialMT-99"/>
       <use x="222.216797" xlink:href="#ArialMT-104"/>
      </g>
     </g>
    </g>
    <g id="xtick_16">
     <g id="line2d_28"/>
     <g id="text_4">
      <!-- April -->
      <defs>
       <path d="M -0.140625 0 
L 27.34375 71.578125 
L 37.546875 71.578125 
L 66.84375 0 
L 56.0625 0 
L 47.703125 21.6875 
L 17.78125 21.6875 
L 9.90625 0 
z
M 20.515625 29.390625 
L 44.78125 29.390625 
L 37.3125 49.21875 
Q 33.890625 58.25 32.234375 64.0625 
Q 30.859375 57.171875 28.375 50.390625 
z
" id="ArialMT-65"/>
       <path d="M 6.59375 -19.875 
L 6.59375 51.859375 
L 14.59375 51.859375 
L 14.59375 45.125 
Q 17.4375 49.078125 21 51.046875 
Q 24.5625 53.03125 29.640625 53.03125 
Q 36.28125 53.03125 41.359375 49.609375 
Q 46.4375 46.1875 49.015625 39.953125 
Q 51.609375 33.734375 51.609375 26.3125 
Q 51.609375 18.359375 48.75 11.984375 
Q 45.90625 5.609375 40.453125 2.21875 
Q 35.015625 -1.171875 29 -1.171875 
Q 24.609375 -1.171875 21.109375 0.6875 
Q 17.625 2.546875 15.375 5.375 
L 15.375 -19.875 
z
M 14.546875 25.640625 
Q 14.546875 15.625 18.59375 10.84375 
Q 22.65625 6.0625 28.421875 6.0625 
Q 34.28125 6.0625 38.453125 11.015625 
Q 42.625 15.96875 42.625 26.375 
Q 42.625 36.28125 38.546875 41.203125 
Q 34.46875 46.140625 28.8125 46.140625 
Q 23.1875 46.140625 18.859375 40.890625 
Q 14.546875 35.640625 14.546875 25.640625 
z
" id="ArialMT-112"/>
       <path d="M 6.640625 61.46875 
L 6.640625 71.578125 
L 15.4375 71.578125 
L 15.4375 61.46875 
z
M 6.640625 0 
L 6.640625 51.859375 
L 15.4375 51.859375 
L 15.4375 0 
z
" id="ArialMT-105"/>
       <path d="M 6.390625 0 
L 6.390625 71.578125 
L 15.1875 71.578125 
L 15.1875 0 
z
" id="ArialMT-108"/>
      </defs>
      <g style="fill:#262626;" transform="translate(226.602885 380.801519)scale(0.11 -0.11)">
       <use xlink:href="#ArialMT-65"/>
       <use x="66.699219" xlink:href="#ArialMT-112"/>
       <use x="122.314453" xlink:href="#ArialMT-114"/>
       <use x="155.615234" xlink:href="#ArialMT-105"/>
       <use x="177.832031" xlink:href="#ArialMT-108"/>
      </g>
     </g>
    </g>
    <g id="xtick_17">
     <g id="line2d_29"/>
     <g id="text_5">
      <!-- May -->
      <g style="fill:#262626;" transform="translate(282.561961 380.801519)scale(0.11 -0.11)">
       <use xlink:href="#ArialMT-77"/>
       <use x="83.300781" xlink:href="#ArialMT-97"/>
       <use x="138.916016" xlink:href="#ArialMT-121"/>
      </g>
     </g>
    </g>
    <g id="xtick_18">
     <g id="line2d_30"/>
     <g id="text_6">
      <!-- June -->
      <g style="fill:#262626;" transform="translate(336.372599 380.801519)scale(0.11 -0.11)">
       <use xlink:href="#ArialMT-74"/>
       <use x="50" xlink:href="#ArialMT-117"/>
       <use x="105.615234" xlink:href="#ArialMT-110"/>
       <use x="161.230469" xlink:href="#ArialMT-101"/>
      </g>
     </g>
    </g>
    <g id="xtick_19">
     <g id="line2d_31"/>
     <g id="text_7">
      <!-- July -->
      <g style="fill:#262626;" transform="translate(393.86394 380.801519)scale(0.11 -0.11)">
       <use xlink:href="#ArialMT-74"/>
       <use x="50" xlink:href="#ArialMT-117"/>
       <use x="105.615234" xlink:href="#ArialMT-108"/>
       <use x="127.832031" xlink:href="#ArialMT-121"/>
      </g>
     </g>
    </g>
    <g id="xtick_20">
     <g id="line2d_32"/>
     <g id="text_8">
      <!-- August -->
      <defs>
       <path d="M 4.984375 -4.296875 
L 13.53125 -5.5625 
Q 14.0625 -9.515625 16.5 -11.328125 
Q 19.78125 -13.765625 25.4375 -13.765625 
Q 31.546875 -13.765625 34.859375 -11.328125 
Q 38.1875 -8.890625 39.359375 -4.5 
Q 40.046875 -1.8125 39.984375 6.78125 
Q 34.234375 0 25.640625 0 
Q 14.9375 0 9.078125 7.71875 
Q 3.21875 15.4375 3.21875 26.21875 
Q 3.21875 33.640625 5.90625 39.90625 
Q 8.59375 46.1875 13.6875 49.609375 
Q 18.796875 53.03125 25.6875 53.03125 
Q 34.859375 53.03125 40.828125 45.609375 
L 40.828125 51.859375 
L 48.921875 51.859375 
L 48.921875 7.03125 
Q 48.921875 -5.078125 46.453125 -10.125 
Q 44 -15.1875 38.640625 -18.109375 
Q 33.296875 -21.046875 25.484375 -21.046875 
Q 16.21875 -21.046875 10.5 -16.875 
Q 4.78125 -12.703125 4.984375 -4.296875 
z
M 12.25 26.859375 
Q 12.25 16.65625 16.296875 11.96875 
Q 20.359375 7.28125 26.46875 7.28125 
Q 32.515625 7.28125 36.609375 11.9375 
Q 40.71875 16.609375 40.71875 26.5625 
Q 40.71875 36.078125 36.5 40.90625 
Q 32.28125 45.75 26.3125 45.75 
Q 20.453125 45.75 16.34375 40.984375 
Q 12.25 36.234375 12.25 26.859375 
z
" id="ArialMT-103"/>
       <path d="M 3.078125 15.484375 
L 11.765625 16.84375 
Q 12.5 11.625 15.84375 8.84375 
Q 19.1875 6.0625 25.203125 6.0625 
Q 31.25 6.0625 34.171875 8.515625 
Q 37.109375 10.984375 37.109375 14.3125 
Q 37.109375 17.28125 34.515625 19 
Q 32.71875 20.171875 25.53125 21.96875 
Q 15.875 24.421875 12.140625 26.203125 
Q 8.40625 27.984375 6.46875 31.125 
Q 4.546875 34.28125 4.546875 38.09375 
Q 4.546875 41.546875 6.125 44.5 
Q 7.71875 47.46875 10.453125 49.421875 
Q 12.5 50.921875 16.03125 51.96875 
Q 19.578125 53.03125 23.640625 53.03125 
Q 29.734375 53.03125 34.34375 51.265625 
Q 38.96875 49.515625 41.15625 46.5 
Q 43.359375 43.5 44.1875 38.484375 
L 35.59375 37.3125 
Q 35.015625 41.3125 32.203125 43.546875 
Q 29.390625 45.796875 24.265625 45.796875 
Q 18.21875 45.796875 15.625 43.796875 
Q 13.03125 41.796875 13.03125 39.109375 
Q 13.03125 37.40625 14.109375 36.03125 
Q 15.1875 34.625 17.484375 33.6875 
Q 18.796875 33.203125 25.25 31.453125 
Q 34.578125 28.953125 38.25 27.359375 
Q 41.9375 25.78125 44.03125 22.75 
Q 46.140625 19.734375 46.140625 15.234375 
Q 46.140625 10.84375 43.578125 6.953125 
Q 41.015625 3.078125 36.171875 0.953125 
Q 31.34375 -1.171875 25.25 -1.171875 
Q 15.140625 -1.171875 9.84375 3.03125 
Q 4.546875 7.234375 3.078125 15.484375 
z
" id="ArialMT-115"/>
       <path d="M 25.78125 7.859375 
L 27.046875 0.09375 
Q 23.34375 -0.6875 20.40625 -0.6875 
Q 15.625 -0.6875 12.984375 0.828125 
Q 10.359375 2.34375 9.28125 4.8125 
Q 8.203125 7.28125 8.203125 15.1875 
L 8.203125 45.015625 
L 1.765625 45.015625 
L 1.765625 51.859375 
L 8.203125 51.859375 
L 8.203125 64.703125 
L 16.9375 69.96875 
L 16.9375 51.859375 
L 25.78125 51.859375 
L 25.78125 45.015625 
L 16.9375 45.015625 
L 16.9375 14.703125 
Q 16.9375 10.9375 17.40625 9.859375 
Q 17.875 8.796875 18.921875 8.15625 
Q 19.96875 7.515625 21.921875 7.515625 
Q 23.390625 7.515625 25.78125 7.859375 
z
" id="ArialMT-116"/>
      </defs>
      <g style="fill:#262626;" transform="translate(442.775958 380.801519)scale(0.11 -0.11)">
       <use xlink:href="#ArialMT-65"/>
       <use x="66.699219" xlink:href="#ArialMT-117"/>
       <use x="122.314453" xlink:href="#ArialMT-103"/>
       <use x="177.929688" xlink:href="#ArialMT-117"/>
       <use x="233.544922" xlink:href="#ArialMT-115"/>
       <use x="283.544922" xlink:href="#ArialMT-116"/>
      </g>
     </g>
    </g>
    <g id="xtick_21">
     <g id="line2d_33"/>
     <g id="text_9">
      <!-- September -->
      <defs>
       <path d="M 4.5 23 
L 13.421875 23.78125 
Q 14.0625 18.40625 16.375 14.96875 
Q 18.703125 11.53125 23.578125 9.40625 
Q 28.46875 7.28125 34.578125 7.28125 
Q 39.984375 7.28125 44.140625 8.890625 
Q 48.296875 10.5 50.3125 13.296875 
Q 52.34375 16.109375 52.34375 19.4375 
Q 52.34375 22.796875 50.390625 25.3125 
Q 48.4375 27.828125 43.953125 29.546875 
Q 41.0625 30.671875 31.203125 33.03125 
Q 21.34375 35.40625 17.390625 37.5 
Q 12.25 40.1875 9.734375 44.15625 
Q 7.234375 48.140625 7.234375 53.078125 
Q 7.234375 58.5 10.296875 63.203125 
Q 13.375 67.921875 19.28125 70.359375 
Q 25.203125 72.796875 32.421875 72.796875 
Q 40.375 72.796875 46.453125 70.234375 
Q 52.546875 67.671875 55.8125 62.6875 
Q 59.078125 57.71875 59.328125 51.421875 
L 50.25 50.734375 
Q 49.515625 57.515625 45.28125 60.984375 
Q 41.0625 64.453125 32.8125 64.453125 
Q 24.21875 64.453125 20.28125 61.296875 
Q 16.359375 58.15625 16.359375 53.71875 
Q 16.359375 49.859375 19.140625 47.359375 
Q 21.875 44.875 33.421875 42.265625 
Q 44.96875 39.65625 49.265625 37.703125 
Q 55.515625 34.8125 58.484375 30.390625 
Q 61.46875 25.984375 61.46875 20.21875 
Q 61.46875 14.5 58.203125 9.4375 
Q 54.9375 4.390625 48.796875 1.578125 
Q 42.671875 -1.21875 35.015625 -1.21875 
Q 25.296875 -1.21875 18.71875 1.609375 
Q 12.15625 4.4375 8.421875 10.125 
Q 4.6875 15.828125 4.5 23 
z
" id="ArialMT-83"/>
       <path d="M 6.59375 0 
L 6.59375 51.859375 
L 14.453125 51.859375 
L 14.453125 44.578125 
Q 16.890625 48.390625 20.9375 50.703125 
Q 25 53.03125 30.171875 53.03125 
Q 35.9375 53.03125 39.625 50.640625 
Q 43.3125 48.25 44.828125 43.953125 
Q 50.984375 53.03125 60.84375 53.03125 
Q 68.5625 53.03125 72.703125 48.75 
Q 76.859375 44.484375 76.859375 35.59375 
L 76.859375 0 
L 68.109375 0 
L 68.109375 32.671875 
Q 68.109375 37.9375 67.25 40.25 
Q 66.40625 42.578125 64.15625 43.984375 
Q 61.921875 45.40625 58.890625 45.40625 
Q 53.421875 45.40625 49.796875 41.765625 
Q 46.1875 38.140625 46.1875 30.125 
L 46.1875 0 
L 37.40625 0 
L 37.40625 33.6875 
Q 37.40625 39.546875 35.25 42.46875 
Q 33.109375 45.40625 28.21875 45.40625 
Q 24.515625 45.40625 21.359375 43.453125 
Q 18.21875 41.5 16.796875 37.734375 
Q 15.375 33.984375 15.375 26.90625 
L 15.375 0 
z
" id="ArialMT-109"/>
      </defs>
      <g style="fill:#262626;" transform="translate(488.342612 380.935581)scale(0.11 -0.11)">
       <use xlink:href="#ArialMT-83"/>
       <use x="66.699219" xlink:href="#ArialMT-101"/>
       <use x="122.314453" xlink:href="#ArialMT-112"/>
       <use x="177.929688" xlink:href="#ArialMT-116"/>
       <use x="205.712891" xlink:href="#ArialMT-101"/>
       <use x="261.328125" xlink:href="#ArialMT-109"/>
       <use x="344.628906" xlink:href="#ArialMT-98"/>
       <use x="400.244141" xlink:href="#ArialMT-101"/>
       <use x="455.859375" xlink:href="#ArialMT-114"/>
      </g>
     </g>
    </g>
    <g id="xtick_22">
     <g id="line2d_34"/>
     <g id="text_10">
      <!-- October -->
      <defs>
       <path d="M 4.828125 34.859375 
Q 4.828125 52.6875 14.390625 62.765625 
Q 23.96875 72.859375 39.109375 72.859375 
Q 49.03125 72.859375 56.984375 68.109375 
Q 64.9375 63.375 69.109375 54.90625 
Q 73.296875 46.4375 73.296875 35.6875 
Q 73.296875 24.8125 68.890625 16.21875 
Q 64.5 7.625 56.4375 3.203125 
Q 48.390625 -1.21875 39.0625 -1.21875 
Q 28.953125 -1.21875 20.984375 3.65625 
Q 13.03125 8.546875 8.921875 16.984375 
Q 4.828125 25.4375 4.828125 34.859375 
z
M 14.59375 34.71875 
Q 14.59375 21.78125 21.546875 14.328125 
Q 28.515625 6.890625 39.015625 6.890625 
Q 49.703125 6.890625 56.609375 14.40625 
Q 63.53125 21.921875 63.53125 35.75 
Q 63.53125 44.484375 60.578125 51 
Q 57.625 57.515625 51.921875 61.109375 
Q 46.234375 64.703125 39.15625 64.703125 
Q 29.109375 64.703125 21.84375 57.78125 
Q 14.59375 50.875 14.59375 34.71875 
z
" id="ArialMT-79"/>
       <path d="M 3.328125 25.921875 
Q 3.328125 40.328125 11.328125 47.265625 
Q 18.015625 53.03125 27.640625 53.03125 
Q 38.328125 53.03125 45.109375 46.015625 
Q 51.90625 39.015625 51.90625 26.65625 
Q 51.90625 16.65625 48.90625 10.90625 
Q 45.90625 5.171875 40.15625 2 
Q 34.421875 -1.171875 27.640625 -1.171875 
Q 16.75 -1.171875 10.03125 5.8125 
Q 3.328125 12.796875 3.328125 25.921875 
z
M 12.359375 25.921875 
Q 12.359375 15.96875 16.703125 11.015625 
Q 21.046875 6.0625 27.640625 6.0625 
Q 34.1875 6.0625 38.53125 11.03125 
Q 42.875 16.015625 42.875 26.21875 
Q 42.875 35.84375 38.5 40.796875 
Q 34.125 45.75 27.640625 45.75 
Q 21.046875 45.75 16.703125 40.8125 
Q 12.359375 35.890625 12.359375 25.921875 
z
" id="ArialMT-111"/>
      </defs>
      <g style="fill:#262626;" transform="translate(551.028016 380.801519)scale(0.11 -0.11)">
       <use xlink:href="#ArialMT-79"/>
       <use x="77.783203" xlink:href="#ArialMT-99"/>
       <use x="127.783203" xlink:href="#ArialMT-116"/>
       <use x="155.566406" xlink:href="#ArialMT-111"/>
       <use x="211.181641" xlink:href="#ArialMT-98"/>
       <use x="266.796875" xlink:href="#ArialMT-101"/>
       <use x="322.412109" xlink:href="#ArialMT-114"/>
      </g>
     </g>
    </g>
    <g id="xtick_23">
     <g id="line2d_35"/>
     <g id="text_11">
      <!-- November -->
      <defs>
       <path d="M 7.625 0 
L 7.625 71.578125 
L 17.328125 71.578125 
L 54.9375 15.375 
L 54.9375 71.578125 
L 64.015625 71.578125 
L 64.015625 0 
L 54.296875 0 
L 16.703125 56.25 
L 16.703125 0 
z
" id="ArialMT-78"/>
       <path d="M 21 0 
L 1.265625 51.859375 
L 10.546875 51.859375 
L 21.6875 20.796875 
Q 23.484375 15.765625 25 10.359375 
Q 26.171875 14.453125 28.265625 20.21875 
L 39.796875 51.859375 
L 48.828125 51.859375 
L 29.203125 0 
z
" id="ArialMT-118"/>
      </defs>
      <g style="fill:#262626;" transform="translate(600.56842 380.801519)scale(0.11 -0.11)">
       <use xlink:href="#ArialMT-78"/>
       <use x="72.216797" xlink:href="#ArialMT-111"/>
       <use x="127.832031" xlink:href="#ArialMT-118"/>
       <use x="177.832031" xlink:href="#ArialMT-101"/>
       <use x="233.447266" xlink:href="#ArialMT-109"/>
       <use x="316.748047" xlink:href="#ArialMT-98"/>
       <use x="372.363281" xlink:href="#ArialMT-101"/>
       <use x="427.978516" xlink:href="#ArialMT-114"/>
      </g>
     </g>
    </g>
    <g id="xtick_24">
     <g id="line2d_36"/>
     <g id="text_12">
      <!-- December -->
      <defs>
       <path d="M 7.71875 0 
L 7.71875 71.578125 
L 32.375 71.578125 
Q 40.71875 71.578125 45.125 70.5625 
Q 51.265625 69.140625 55.609375 65.4375 
Q 61.28125 60.640625 64.078125 53.1875 
Q 66.890625 45.75 66.890625 36.1875 
Q 66.890625 28.03125 64.984375 21.734375 
Q 63.09375 15.4375 60.109375 11.296875 
Q 57.125 7.171875 53.578125 4.796875 
Q 50.046875 2.4375 45.046875 1.21875 
Q 40.046875 0 33.546875 0 
z
M 17.1875 8.453125 
L 32.46875 8.453125 
Q 39.546875 8.453125 43.578125 9.765625 
Q 47.609375 11.078125 50 13.484375 
Q 53.375 16.84375 55.25 22.53125 
Q 57.125 28.21875 57.125 36.328125 
Q 57.125 47.5625 53.4375 53.59375 
Q 49.75 59.625 44.484375 61.671875 
Q 40.671875 63.140625 32.234375 63.140625 
L 17.1875 63.140625 
z
" id="ArialMT-68"/>
      </defs>
      <g style="fill:#262626;" transform="translate(655.007445 380.801519)scale(0.11 -0.11)">
       <use xlink:href="#ArialMT-68"/>
       <use x="72.216797" xlink:href="#ArialMT-101"/>
       <use x="127.832031" xlink:href="#ArialMT-99"/>
       <use x="177.832031" xlink:href="#ArialMT-101"/>
       <use x="233.447266" xlink:href="#ArialMT-109"/>
       <use x="316.748047" xlink:href="#ArialMT-98"/>
       <use x="372.363281" xlink:href="#ArialMT-101"/>
       <use x="427.978516" xlink:href="#ArialMT-114"/>
      </g>
     </g>
    </g>
   </g>
   <g id="matplotlib.axis_2">
    <g id="ytick_1">
     <g id="line2d_37">
      <path clip-path="url(#p79c2d61159)" d="M 41.624975 336.911925 
L 711.224975 336.911925 
" style="fill:none;stroke:#cccccc;stroke-linecap:round;stroke-width:0.8;"/>
     </g>
     <g id="line2d_38"/>
     <g id="text_13">
      <!-- 10 -->
      <defs>
       <path d="M 37.25 0 
L 28.46875 0 
L 28.46875 56 
Q 25.296875 52.984375 20.140625 49.953125 
Q 14.984375 46.921875 10.890625 45.40625 
L 10.890625 53.90625 
Q 18.265625 57.375 23.78125 62.296875 
Q 29.296875 67.234375 31.59375 71.875 
L 37.25 71.875 
z
" id="ArialMT-49"/>
       <path d="M 4.15625 35.296875 
Q 4.15625 48 6.765625 55.734375 
Q 9.375 63.484375 14.515625 67.671875 
Q 19.671875 71.875 27.484375 71.875 
Q 33.25 71.875 37.59375 69.546875 
Q 41.9375 67.234375 44.765625 62.859375 
Q 47.609375 58.5 49.21875 52.21875 
Q 50.828125 45.953125 50.828125 35.296875 
Q 50.828125 22.703125 48.234375 14.96875 
Q 45.65625 7.234375 40.5 3 
Q 35.359375 -1.21875 27.484375 -1.21875 
Q 17.140625 -1.21875 11.234375 6.203125 
Q 4.15625 15.140625 4.15625 35.296875 
z
M 13.1875 35.296875 
Q 13.1875 17.671875 17.3125 11.828125 
Q 21.4375 6 27.484375 6 
Q 33.546875 6 37.671875 11.859375 
Q 41.796875 17.71875 41.796875 35.296875 
Q 41.796875 52.984375 37.671875 58.78125 
Q 33.546875 64.59375 27.390625 64.59375 
Q 21.34375 64.59375 17.71875 59.46875 
Q 13.1875 52.9375 13.1875 35.296875 
z
" id="ArialMT-48"/>
      </defs>
      <g style="fill:#262626;" transform="translate(27.0031 340.490831)scale(0.1 -0.1)">
       <use xlink:href="#ArialMT-49"/>
       <use x="55.615234" xlink:href="#ArialMT-48"/>
      </g>
     </g>
    </g>
    <g id="ytick_2">
     <g id="line2d_39">
      <path clip-path="url(#p79c2d61159)" d="M 41.624975 271.679925 
L 711.224975 271.679925 
" style="fill:none;stroke:#cccccc;stroke-linecap:round;stroke-width:0.8;"/>
     </g>
     <g id="line2d_40"/>
     <g id="text_14">
      <!-- 20 -->
      <defs>
       <path d="M 50.34375 8.453125 
L 50.34375 0 
L 3.03125 0 
Q 2.9375 3.171875 4.046875 6.109375 
Q 5.859375 10.9375 9.828125 15.625 
Q 13.8125 20.3125 21.34375 26.46875 
Q 33.015625 36.03125 37.109375 41.625 
Q 41.21875 47.21875 41.21875 52.203125 
Q 41.21875 57.421875 37.46875 61 
Q 33.734375 64.59375 27.734375 64.59375 
Q 21.390625 64.59375 17.578125 60.78125 
Q 13.765625 56.984375 13.71875 50.25 
L 4.6875 51.171875 
Q 5.609375 61.28125 11.65625 66.578125 
Q 17.71875 71.875 27.9375 71.875 
Q 38.234375 71.875 44.234375 66.15625 
Q 50.25 60.453125 50.25 52 
Q 50.25 47.703125 48.484375 43.546875 
Q 46.734375 39.40625 42.65625 34.8125 
Q 38.578125 30.21875 29.109375 22.21875 
Q 21.1875 15.578125 18.9375 13.203125 
Q 16.703125 10.84375 15.234375 8.453125 
z
" id="ArialMT-50"/>
      </defs>
      <g style="fill:#262626;" transform="translate(27.0031 275.258831)scale(0.1 -0.1)">
       <use xlink:href="#ArialMT-50"/>
       <use x="55.615234" xlink:href="#ArialMT-48"/>
      </g>
     </g>
    </g>
    <g id="ytick_3">
     <g id="line2d_41">
      <path clip-path="url(#p79c2d61159)" d="M 41.624975 206.447925 
L 711.224975 206.447925 
" style="fill:none;stroke:#cccccc;stroke-linecap:round;stroke-width:0.8;"/>
     </g>
     <g id="line2d_42"/>
     <g id="text_15">
      <!-- 30 -->
      <defs>
       <path d="M 4.203125 18.890625 
L 12.984375 20.0625 
Q 14.5 12.59375 18.140625 9.296875 
Q 21.78125 6 27 6 
Q 33.203125 6 37.46875 10.296875 
Q 41.75 14.59375 41.75 20.953125 
Q 41.75 27 37.796875 30.921875 
Q 33.84375 34.859375 27.734375 34.859375 
Q 25.25 34.859375 21.53125 33.890625 
L 22.515625 41.609375 
Q 23.390625 41.5 23.921875 41.5 
Q 29.546875 41.5 34.03125 44.421875 
Q 38.53125 47.359375 38.53125 53.46875 
Q 38.53125 58.296875 35.25 61.46875 
Q 31.984375 64.65625 26.8125 64.65625 
Q 21.6875 64.65625 18.265625 61.421875 
Q 14.84375 58.203125 13.875 51.765625 
L 5.078125 53.328125 
Q 6.6875 62.15625 12.390625 67.015625 
Q 18.109375 71.875 26.609375 71.875 
Q 32.46875 71.875 37.390625 69.359375 
Q 42.328125 66.84375 44.9375 62.5 
Q 47.5625 58.15625 47.5625 53.265625 
Q 47.5625 48.640625 45.0625 44.828125 
Q 42.578125 41.015625 37.703125 38.765625 
Q 44.046875 37.3125 47.5625 32.6875 
Q 51.078125 28.078125 51.078125 21.140625 
Q 51.078125 11.765625 44.234375 5.25 
Q 37.40625 -1.265625 26.953125 -1.265625 
Q 17.53125 -1.265625 11.296875 4.34375 
Q 5.078125 9.96875 4.203125 18.890625 
z
" id="ArialMT-51"/>
      </defs>
      <g style="fill:#262626;" transform="translate(27.0031 210.026831)scale(0.1 -0.1)">
       <use xlink:href="#ArialMT-51"/>
       <use x="55.615234" xlink:href="#ArialMT-48"/>
      </g>
     </g>
    </g>
    <g id="ytick_4">
     <g id="line2d_43">
      <path clip-path="url(#p79c2d61159)" d="M 41.624975 141.215925 
L 711.224975 141.215925 
" style="fill:none;stroke:#cccccc;stroke-linecap:round;stroke-width:0.8;"/>
     </g>
     <g id="line2d_44"/>
     <g id="text_16">
      <!-- 40 -->
      <defs>
       <path d="M 32.328125 0 
L 32.328125 17.140625 
L 1.265625 17.140625 
L 1.265625 25.203125 
L 33.9375 71.578125 
L 41.109375 71.578125 
L 41.109375 25.203125 
L 50.78125 25.203125 
L 50.78125 17.140625 
L 41.109375 17.140625 
L 41.109375 0 
z
M 32.328125 25.203125 
L 32.328125 57.46875 
L 9.90625 25.203125 
z
" id="ArialMT-52"/>
      </defs>
      <g style="fill:#262626;" transform="translate(27.0031 144.794831)scale(0.1 -0.1)">
       <use xlink:href="#ArialMT-52"/>
       <use x="55.615234" xlink:href="#ArialMT-48"/>
      </g>
     </g>
    </g>
    <g id="ytick_5">
     <g id="line2d_45">
      <path clip-path="url(#p79c2d61159)" d="M 41.624975 75.983925 
L 711.224975 75.983925 
" style="fill:none;stroke:#cccccc;stroke-linecap:round;stroke-width:0.8;"/>
     </g>
     <g id="line2d_46"/>
     <g id="text_17">
      <!-- 50 -->
      <defs>
       <path d="M 4.15625 18.75 
L 13.375 19.53125 
Q 14.40625 12.796875 18.140625 9.390625 
Q 21.875 6 27.15625 6 
Q 33.5 6 37.890625 10.78125 
Q 42.28125 15.578125 42.28125 23.484375 
Q 42.28125 31 38.0625 35.34375 
Q 33.84375 39.703125 27 39.703125 
Q 22.75 39.703125 19.328125 37.765625 
Q 15.921875 35.84375 13.96875 32.765625 
L 5.71875 33.84375 
L 12.640625 70.609375 
L 48.25 70.609375 
L 48.25 62.203125 
L 19.671875 62.203125 
L 15.828125 42.96875 
Q 22.265625 47.46875 29.34375 47.46875 
Q 38.71875 47.46875 45.15625 40.96875 
Q 51.609375 34.46875 51.609375 24.265625 
Q 51.609375 14.546875 45.953125 7.46875 
Q 39.0625 -1.21875 27.15625 -1.21875 
Q 17.390625 -1.21875 11.203125 4.25 
Q 5.03125 9.71875 4.15625 18.75 
z
" id="ArialMT-53"/>
      </defs>
      <g style="fill:#262626;" transform="translate(27.0031 79.562831)scale(0.1 -0.1)">
       <use xlink:href="#ArialMT-53"/>
       <use x="55.615234" xlink:href="#ArialMT-48"/>
      </g>
     </g>
    </g>
    <g id="text_18">
     <!-- Crashes -->
     <defs>
      <path d="M 58.796875 25.09375 
L 68.265625 22.703125 
Q 65.28125 11.03125 57.546875 4.90625 
Q 49.8125 -1.21875 38.625 -1.21875 
Q 27.046875 -1.21875 19.796875 3.484375 
Q 12.546875 8.203125 8.765625 17.140625 
Q 4.984375 26.078125 4.984375 36.328125 
Q 4.984375 47.515625 9.25 55.828125 
Q 13.53125 64.15625 21.40625 68.46875 
Q 29.296875 72.796875 38.765625 72.796875 
Q 49.515625 72.796875 56.828125 67.328125 
Q 64.15625 61.859375 67.046875 51.953125 
L 57.71875 49.75 
Q 55.21875 57.5625 50.484375 61.125 
Q 45.75 64.703125 38.578125 64.703125 
Q 30.328125 64.703125 24.78125 60.734375 
Q 19.234375 56.78125 16.984375 50.109375 
Q 14.75 43.453125 14.75 36.375 
Q 14.75 27.25 17.40625 20.4375 
Q 20.0625 13.625 25.671875 10.25 
Q 31.296875 6.890625 37.84375 6.890625 
Q 45.796875 6.890625 51.3125 11.46875 
Q 56.84375 16.0625 58.796875 25.09375 
z
" id="ArialMT-67"/>
     </defs>
     <g style="fill:#262626;" transform="translate(19.5687 238.618425)rotate(-90)scale(0.1728 -0.1728)">
      <use xlink:href="#ArialMT-67"/>
      <use x="72.216797" xlink:href="#ArialMT-114"/>
      <use x="105.517578" xlink:href="#ArialMT-97"/>
      <use x="161.132812" xlink:href="#ArialMT-115"/>
      <use x="211.132812" xlink:href="#ArialMT-104"/>
      <use x="266.748047" xlink:href="#ArialMT-101"/>
      <use x="322.363281" xlink:href="#ArialMT-115"/>
     </g>
    </g>
   </g>
   <g id="patch_3">
    <path clip-path="url(#p79c2d61159)" d="M 101.507902 369.527925 
L 101.507902 43.367925 
L 154.132292 43.367925 
L 154.132292 369.527925 
z
" style="opacity:0.03;stroke:#000000;stroke-linejoin:miter;"/>
   </g>
   <g id="patch_4">
    <path clip-path="url(#p79c2d61159)" d="M 210.385951 369.527925 
L 210.385951 43.367925 
L 264.824975 43.367925 
L 264.824975 369.527925 
z
" style="opacity:0.03;stroke:#000000;stroke-linejoin:miter;"/>
   </g>
   <g id="patch_5">
    <path clip-path="url(#p79c2d61159)" d="M 321.078634 369.527925 
L 321.078634 43.367925 
L 375.517658 43.367925 
L 375.517658 369.527925 
z
" style="opacity:0.03;stroke:#000000;stroke-linejoin:miter;"/>
   </g>
   <g id="patch_6">
    <path clip-path="url(#p79c2d61159)" d="M 431.771316 369.527925 
L 431.771316 43.367925 
L 488.024975 43.367925 
L 488.024975 369.527925 
z
" style="opacity:0.03;stroke:#000000;stroke-linejoin:miter;"/>
   </g>
   <g id="patch_7">
    <path clip-path="url(#p79c2d61159)" d="M 542.463999 369.527925 
L 542.463999 43.367925 
L 598.717658 43.367925 
L 598.717658 369.527925 
z
" style="opacity:0.03;stroke:#000000;stroke-linejoin:miter;"/>
   </g>
   <g id="patch_8">
    <path clip-path="url(#p79c2d61159)" d="M 653.156682 369.527925 
L 653.156682 43.367925 
L 707.595707 43.367925 
L 707.595707 369.527925 
z
" style="opacity:0.03;stroke:#000000;stroke-linejoin:miter;"/>
   </g>
   <g id="line2d_47">
    <path clip-path="url(#p79c2d61159)" d="M 45.254243 308.516819 
L 47.068877 278.586843 
L 48.883512 244.435972 
L 50.698146 244.81969 
L 52.51278 213.354843 
L 54.327414 233.30816 
L 56.142048 236.761619 
L 57.956682 237.529054 
L 59.771316 213.354843 
L 61.585951 214.505996 
L 63.400585 222.947784 
L 65.215219 218.72689 
L 67.029853 189.564349 
L 68.844487 191.866654 
L 70.659121 204.529337 
L 72.473755 216.040866 
L 74.28839 212.20369 
L 76.103024 206.831643 
L 77.917658 221.412913 
L 79.732292 214.505996 
L 81.546926 209.901384 
L 83.36156 215.273431 
L 85.176195 217.192019 
L 86.990829 215.273431 
L 88.805463 199.15729 
L 90.620097 203.378184 
L 92.434731 219.110607 
L 94.249365 192.250372 
L 96.063999 211.819972 
L 97.878634 200.69216 
L 99.693268 194.552678 
L 101.507902 199.541007 
L 103.322536 198.006137 
L 105.13717 186.878325 
L 106.951804 168.07616 
L 108.766438 187.262043 
L 110.581073 203.761901 
L 112.395707 214.122278 
L 114.210341 206.064207 
L 116.024975 183.041149 
L 117.839609 195.320113 
L 119.654243 179.58769 
L 121.468877 192.250372 
L 123.283512 186.11089 
L 125.098146 173.06449 
L 126.91278 201.075878 
L 128.727414 214.889713 
L 130.542048 213.354843 
L 132.356682 231.005854 
L 134.171316 221.029196 
L 135.985951 210.285101 
L 137.800585 207.21536 
L 139.615219 225.25009 
L 141.429853 209.901384 
L 143.244487 216.424584 
L 145.059121 199.924725 
L 146.873755 206.064207 
L 148.68839 209.133949 
L 150.503024 192.63409 
L 152.317658 186.878325 
L 154.132292 163.087831 
L 155.946926 191.866654 
L 157.76156 179.971407 
L 159.576195 177.669101 
L 161.390829 197.238701 
L 163.205463 208.366513 
L 165.020097 188.029478 
L 166.834731 159.634372 
L 168.649365 174.983078 
L 170.463999 175.750513 
L 172.278634 171.145901 
L 174.093268 172.680772 
L 175.907902 163.087831 
L 177.722536 160.401807 
L 179.53717 173.06449 
L 181.351804 191.099219 
L 183.166438 157.332066 
L 184.981073 179.58769 
L 186.795707 177.285384 
L 188.610341 198.773572 
L 190.424975 174.983078 
L 192.239609 190.715501 
L 194.054243 193.785243 
L 195.868877 193.785243 
L 197.683512 195.703831 
L 199.498146 171.913337 
L 201.31278 179.203972 
L 203.127414 172.297054 
L 204.942048 179.971407 
L 206.756682 171.529619 
L 208.571316 166.54129 
L 210.385951 175.366796 
L 212.200585 161.55296 
L 214.015219 170.762184 
L 217.644487 174.59936 
L 219.459121 161.55296 
L 221.273755 186.494607 
L 223.08839 186.494607 
L 224.903024 185.343454 
L 226.717658 160.401807 
L 228.532292 170.762184 
L 230.346926 174.983078 
L 232.16156 167.308725 
L 233.976195 182.273713 
L 235.790829 162.320396 
L 237.605463 156.180913 
L 239.420097 167.692443 
L 241.234731 163.087831 
L 243.049365 153.111172 
L 244.863999 161.169243 
L 246.678634 163.471549 
L 248.493268 186.878325 
L 250.307902 141.215925 
L 252.122536 143.134513 
L 253.93717 162.320396 
L 255.751804 168.07616 
L 257.566438 158.099501 
L 259.381073 152.727454 
L 261.195707 153.111172 
L 263.010341 130.471831 
L 264.824975 148.122843 
L 266.639609 136.995031 
L 268.454243 150.041431 
L 270.268877 149.273996 
L 272.083512 135.843878 
L 273.898146 155.02976 
L 275.71278 155.02976 
L 277.527414 143.518231 
L 279.342048 146.97169 
L 281.156682 134.309007 
L 282.971316 142.367078 
L 284.785951 120.87889 
L 286.600585 128.169525 
L 288.415219 145.436819 
L 290.229853 118.960301 
L 292.044487 134.309007 
L 293.859121 151.192584 
L 295.673755 129.704396 
L 297.48839 155.02976 
L 299.303024 155.02976 
L 301.117658 152.727454 
L 302.932292 161.55296 
L 304.746926 133.92529 
L 306.56156 145.820537 
L 308.376195 170.378466 
L 310.190829 153.49489 
L 312.005463 168.843596 
L 313.820097 166.157572 
L 315.634731 146.204254 
L 317.449365 157.715784 
L 319.263999 149.273996 
L 321.078634 113.971972 
L 322.893268 146.587972 
L 324.707902 132.774137 
L 326.522536 139.297337 
L 328.33717 132.774137 
L 330.151804 150.425149 
L 331.966438 135.843878 
L 333.781073 140.44849 
L 335.595707 147.355407 
L 337.410341 150.425149 
L 339.224975 154.646043 
L 341.039609 133.541572 
L 342.854243 125.483501 
L 344.668877 122.41376 
L 346.483512 144.285666 
L 348.298146 169.611031 
L 350.11278 127.018372 
L 351.927414 155.797196 
L 353.742048 163.087831 
L 355.556682 160.785525 
L 357.371316 135.843878 
L 359.185951 143.518231 
L 361.000585 164.238984 
L 362.815219 143.518231 
L 364.629853 134.309007 
L 366.444487 132.390419 
L 368.259121 152.343737 
L 370.073755 148.50656 
L 371.88839 151.576301 
L 373.703024 126.250937 
L 375.517658 133.541572 
L 377.332292 113.971972 
L 379.146926 138.146184 
L 380.96156 135.46016 
L 382.776195 184.959737 
L 384.590829 154.262325 
L 386.405463 163.471549 
L 388.220097 140.832207 
L 390.034731 139.297337 
L 391.849365 146.204254 
L 393.663999 128.553243 
L 395.478634 149.273996 
L 397.293268 136.611313 
L 399.107902 143.518231 
L 400.922536 130.855549 
L 402.73717 152.727454 
L 404.551804 131.622984 
L 406.366438 138.146184 
L 408.181073 140.064772 
L 409.995707 135.076443 
L 411.810341 138.913619 
L 413.624975 145.053101 
L 415.439609 146.587972 
L 417.254243 147.355407 
L 419.068877 145.436819 
L 420.883512 137.762466 
L 422.698146 146.587972 
L 424.51278 147.355407 
L 426.327414 148.50656 
L 428.142048 154.262325 
L 429.956682 137.378749 
L 431.771316 138.146184 
L 433.585951 138.146184 
L 435.400585 132.006701 
L 437.215219 141.98336 
L 439.029853 169.611031 
L 440.844487 155.413478 
L 442.659121 155.413478 
L 444.473755 153.111172 
L 446.28839 134.309007 
L 448.103024 152.343737 
L 449.917658 145.436819 
L 451.732292 149.657713 
L 453.546926 144.669384 
L 455.36156 160.785525 
L 457.176195 128.93696 
L 458.990829 143.134513 
L 460.805463 141.599643 
L 462.620097 158.099501 
L 464.434731 160.785525 
L 466.249365 126.634654 
L 468.063999 138.913619 
L 469.878634 135.843878 
L 471.693268 122.41376 
L 473.507902 146.587972 
L 475.322536 114.35569 
L 477.13717 133.541572 
L 478.951804 128.93696 
L 480.766438 139.681054 
L 482.581073 128.169525 
L 484.395707 140.832207 
L 488.024975 112.437101 
L 489.839609 126.634654 
L 491.654243 139.297337 
L 493.468877 140.44849 
L 495.283512 138.529901 
L 497.098146 138.529901 
L 498.91278 118.960301 
L 500.727414 118.576584 
L 502.542048 113.588254 
L 504.356682 101.30929 
L 506.171316 122.797478 
L 507.985951 90.565196 
L 509.800585 116.657996 
L 511.615219 117.425431 
L 513.429853 125.483501 
L 515.244487 102.076725 
L 517.059121 92.100066 
L 520.68839 126.250937 
L 522.503024 110.518513 
L 524.317658 122.797478 
L 526.132292 124.332349 
L 527.946926 113.971972 
L 529.76156 96.704678 
L 531.576195 112.053384 
L 533.390829 106.297619 
L 535.205463 90.948913 
L 537.020097 111.285949 
L 538.834731 115.123125 
L 540.649365 100.925572 
L 542.463999 116.274278 
L 544.278634 108.983643 
L 546.093268 96.704678 
L 547.907902 130.855549 
L 549.722536 123.948631 
L 551.53717 121.262607 
L 553.351804 128.169525 
L 555.166438 108.983643 
L 556.981073 137.762466 
L 558.795707 117.809149 
L 560.610341 132.774137 
L 562.424975 130.471831 
L 564.239609 131.622984 
L 566.054243 136.995031 
L 567.868877 137.762466 
L 569.683512 140.064772 
L 571.498146 147.355407 
L 573.31278 124.716066 
L 575.127414 152.727454 
L 576.942048 153.111172 
L 578.756682 122.41376 
L 580.571316 132.774137 
L 582.385951 146.97169 
L 584.200585 129.320678 
L 586.015219 152.727454 
L 587.829853 140.44849 
L 589.644487 140.064772 
L 591.459121 154.646043 
L 593.273755 161.936678 
L 596.903024 150.041431 
L 598.717658 169.611031 
L 600.532292 152.727454 
L 602.346926 148.890278 
L 604.16156 169.994749 
L 605.976195 151.192584 
L 607.790829 140.832207 
L 609.605463 153.878607 
L 611.420097 174.983078 
L 613.234731 178.052819 
L 615.049365 174.215643 
L 616.863999 202.610749 
L 618.678634 181.506278 
L 620.493268 161.936678 
L 622.307902 132.006701 
L 624.122536 156.180913 
L 625.93717 186.11089 
L 627.751804 151.192584 
L 629.566438 156.948349 
L 631.381073 184.959737 
L 633.195707 171.913337 
L 635.010341 206.831643 
L 636.824975 207.599078 
L 638.639609 229.854701 
L 640.454243 227.552396 
L 642.268877 228.703549 
L 644.083512 238.29649 
L 645.898146 255.563784 
L 647.71278 227.168678 
L 649.527414 220.26176 
L 651.342048 201.459596 
L 653.156682 189.564349 
L 654.971316 193.401525 
L 656.785951 197.622419 
L 658.600585 192.63409 
L 660.415219 201.459596 
L 662.229853 206.831643 
L 664.044487 206.447925 
L 665.859121 217.575737 
L 667.673755 197.238701 
L 669.48839 202.610749 
L 671.303024 214.505996 
L 673.117658 225.633807 
L 674.932292 217.192019 
L 676.746926 214.505996 
L 678.56156 226.78496 
L 680.376195 226.78496 
L 682.190829 239.83136 
L 684.005463 232.540725 
L 685.820097 241.749949 
L 687.634731 223.715219 
L 689.449365 245.203407 
L 691.263999 262.854419 
L 693.078634 257.482372 
L 694.893268 274.749666 
L 696.707902 327.702701 
L 698.522536 265.156725 
L 700.33717 265.156725 
L 702.151804 262.470701 
L 703.966438 255.947501 
L 705.781073 256.331219 
L 707.595707 283.95889 
L 707.595707 283.95889 
" style="fill:none;stroke:#008000;stroke-linecap:round;stroke-width:1.8;"/>
   </g>
   <g id="patch_9">
    <path d="M 41.624975 369.527925 
L 41.624975 43.367925 
" style="fill:none;stroke:#262626;stroke-linecap:square;stroke-linejoin:miter;stroke-width:1.25;"/>
   </g>
   <g id="patch_10">
    <path d="M 711.224975 369.527925 
L 711.224975 43.367925 
" style="fill:none;stroke:#262626;stroke-linecap:square;stroke-linejoin:miter;stroke-width:1.25;"/>
   </g>
   <g id="patch_11">
    <path d="M 41.624975 369.527925 
L 711.224975 369.527925 
" style="fill:none;stroke:#262626;stroke-linecap:square;stroke-linejoin:miter;stroke-width:1.25;"/>
   </g>
   <g id="patch_12">
    <path d="M 41.624975 43.367925 
L 711.224975 43.367925 
" style="fill:none;stroke:#262626;stroke-linecap:square;stroke-linejoin:miter;stroke-width:1.25;"/>
   </g>
   <g id="patch_13">
    <path d="M 73.917039 333.787112 
Q 59.446584 321.788967 45.836796 310.504442 
" style="fill:none;stroke:#000000;stroke-linecap:round;"/>
    <path d="M 48.72104 317.052811 
L 45.836796 310.504442 
L 52.806038 312.126068 
" style="fill:none;stroke:#000000;stroke-linecap:round;"/>
   </g>
   <g id="text_19">
    <!-- New Years -->
    <defs>
     <path d="M 16.15625 0 
L 0.296875 51.859375 
L 9.375 51.859375 
L 17.625 21.921875 
L 20.703125 10.796875 
Q 20.90625 11.625 23.390625 21.484375 
L 31.640625 51.859375 
L 40.671875 51.859375 
L 48.4375 21.78125 
L 51.03125 11.859375 
L 54 21.875 
L 62.890625 51.859375 
L 71.4375 51.859375 
L 55.21875 0 
L 46.09375 0 
L 37.84375 31.0625 
L 35.84375 39.890625 
L 25.34375 0 
z
" id="ArialMT-119"/>
     <path id="ArialMT-32"/>
     <path d="M 27.875 0 
L 27.875 30.328125 
L 0.296875 71.578125 
L 11.8125 71.578125 
L 25.921875 50 
Q 29.828125 43.953125 33.203125 37.890625 
Q 36.421875 43.5 41.015625 50.53125 
L 54.890625 71.578125 
L 65.921875 71.578125 
L 37.359375 30.328125 
L 37.359375 0 
z
" id="ArialMT-89"/>
    </defs>
    <g style="fill:#262626;" transform="translate(48.439609 348.516819)scale(0.16 -0.16)">
     <use xlink:href="#ArialMT-78"/>
     <use x="72.216797" xlink:href="#ArialMT-101"/>
     <use x="127.832031" xlink:href="#ArialMT-119"/>
     <use x="200.048828" xlink:href="#ArialMT-32"/>
     <use x="226.082031" xlink:href="#ArialMT-89"/>
     <use x="283.65625" xlink:href="#ArialMT-101"/>
     <use x="339.271484" xlink:href="#ArialMT-97"/>
     <use x="394.886719" xlink:href="#ArialMT-114"/>
     <use x="428.1875" xlink:href="#ArialMT-115"/>
    </g>
   </g>
   <g id="patch_14">
    <path d="M 77.580456 189.0089 
Q 77.730164 196.921658 77.858722 203.716582 
" style="fill:none;stroke:#000000;stroke-linecap:round;"/>
    <path d="M 80.937085 197.257195 
L 77.858722 203.716582 
L 74.53823 197.37826 
" style="fill:none;stroke:#000000;stroke-linecap:round;"/>
   </g>
   <g id="text_20">
    <!-- MLK -->
    <defs>
     <path d="M 7.328125 0 
L 7.328125 71.578125 
L 16.796875 71.578125 
L 16.796875 8.453125 
L 52.046875 8.453125 
L 52.046875 0 
z
" id="ArialMT-76"/>
     <path d="M 7.328125 0 
L 7.328125 71.578125 
L 16.796875 71.578125 
L 16.796875 36.078125 
L 52.34375 71.578125 
L 65.1875 71.578125 
L 35.15625 42.578125 
L 66.5 0 
L 54 0 
L 28.515625 36.234375 
L 16.796875 24.8125 
L 16.796875 0 
z
" id="ArialMT-75"/>
    </defs>
    <g style="fill:#262626;" transform="translate(60.917658 181.831643)scale(0.16 -0.16)">
     <use xlink:href="#ArialMT-77"/>
     <use x="83.300781" xlink:href="#ArialMT-76"/>
     <use x="138.916016" xlink:href="#ArialMT-75"/>
    </g>
   </g>
   <g id="patch_15">
    <path d="M 133.939921 252.339033 
Q 134.035592 247.564331 134.131263 242.789629 
M 150.192158 239.910799 
L 150.128052 243.110157 
L 118.134474 242.469101 
L 118.198579 239.269743 
" style="fill:none;stroke:#000000;stroke-linecap:round;"/>
   </g>
   <g id="text_21">
    <!-- Washington's Birthday -->
    <defs>
     <path d="M 20.21875 0 
L 1.21875 71.578125 
L 10.9375 71.578125 
L 21.828125 24.65625 
Q 23.578125 17.28125 24.859375 10.015625 
Q 27.59375 21.484375 28.078125 23.25 
L 41.703125 71.578125 
L 53.125 71.578125 
L 63.375 35.359375 
Q 67.234375 21.875 68.953125 10.015625 
Q 70.3125 16.796875 72.515625 25.59375 
L 83.734375 71.578125 
L 93.265625 71.578125 
L 73.640625 0 
L 64.5 0 
L 49.421875 54.546875 
Q 47.515625 61.375 47.171875 62.9375 
Q 46.046875 58.015625 45.0625 54.546875 
L 29.890625 0 
z
" id="ArialMT-87"/>
     <path d="M 6.640625 46.234375 
L 4.390625 59.625 
L 4.390625 71.578125 
L 14.40625 71.578125 
L 14.40625 59.625 
L 12.0625 46.234375 
z
" id="ArialMT-39"/>
     <path d="M 7.328125 0 
L 7.328125 71.578125 
L 34.1875 71.578125 
Q 42.390625 71.578125 47.34375 69.40625 
Q 52.296875 67.234375 55.09375 62.71875 
Q 57.90625 58.203125 57.90625 53.265625 
Q 57.90625 48.6875 55.421875 44.625 
Q 52.9375 40.578125 47.90625 38.09375 
Q 54.390625 36.1875 57.875 31.59375 
Q 61.375 27 61.375 20.75 
Q 61.375 15.71875 59.25 11.390625 
Q 57.125 7.078125 54 4.734375 
Q 50.875 2.390625 46.15625 1.1875 
Q 41.453125 0 34.625 0 
z
M 16.796875 41.5 
L 32.28125 41.5 
Q 38.578125 41.5 41.3125 42.328125 
Q 44.921875 43.40625 46.75 45.890625 
Q 48.578125 48.390625 48.578125 52.15625 
Q 48.578125 55.71875 46.875 58.421875 
Q 45.171875 61.140625 41.984375 62.140625 
Q 38.8125 63.140625 31.109375 63.140625 
L 16.796875 63.140625 
z
M 16.796875 8.453125 
L 34.625 8.453125 
Q 39.203125 8.453125 41.0625 8.796875 
Q 44.34375 9.375 46.53125 10.734375 
Q 48.734375 12.109375 50.140625 14.71875 
Q 51.5625 17.328125 51.5625 20.75 
Q 51.5625 24.75 49.515625 27.703125 
Q 47.46875 30.671875 43.828125 31.859375 
Q 40.1875 33.0625 33.34375 33.0625 
L 16.796875 33.0625 
z
" id="ArialMT-66"/>
     <path d="M 40.234375 0 
L 40.234375 6.546875 
Q 35.296875 -1.171875 25.734375 -1.171875 
Q 19.53125 -1.171875 14.328125 2.25 
Q 9.125 5.671875 6.265625 11.796875 
Q 3.421875 17.921875 3.421875 25.875 
Q 3.421875 33.640625 6 39.96875 
Q 8.59375 46.296875 13.765625 49.65625 
Q 18.953125 53.03125 25.34375 53.03125 
Q 30.03125 53.03125 33.6875 51.046875 
Q 37.359375 49.078125 39.65625 45.90625 
L 39.65625 71.578125 
L 48.390625 71.578125 
L 48.390625 0 
z
M 12.453125 25.875 
Q 12.453125 15.921875 16.640625 10.984375 
Q 20.84375 6.0625 26.5625 6.0625 
Q 32.328125 6.0625 36.34375 10.765625 
Q 40.375 15.484375 40.375 25.140625 
Q 40.375 35.796875 36.265625 40.765625 
Q 32.171875 45.75 26.171875 45.75 
Q 20.3125 45.75 16.375 40.96875 
Q 12.453125 36.1875 12.453125 25.875 
z
" id="ArialMT-100"/>
    </defs>
    <g style="fill:#262626;" transform="translate(54.671316 267.790654)scale(0.16 -0.16)">
     <use xlink:href="#ArialMT-87"/>
     <use x="90.634766" xlink:href="#ArialMT-97"/>
     <use x="146.25" xlink:href="#ArialMT-115"/>
     <use x="196.25" xlink:href="#ArialMT-104"/>
     <use x="251.865234" xlink:href="#ArialMT-105"/>
     <use x="274.082031" xlink:href="#ArialMT-110"/>
     <use x="329.697266" xlink:href="#ArialMT-103"/>
     <use x="385.3125" xlink:href="#ArialMT-116"/>
     <use x="413.095703" xlink:href="#ArialMT-111"/>
     <use x="468.710938" xlink:href="#ArialMT-110"/>
     <use x="524.326172" xlink:href="#ArialMT-39"/>
     <use x="543.417969" xlink:href="#ArialMT-115"/>
     <use x="593.417969" xlink:href="#ArialMT-32"/>
     <use x="621.201172" xlink:href="#ArialMT-66"/>
     <use x="687.900391" xlink:href="#ArialMT-105"/>
     <use x="710.117188" xlink:href="#ArialMT-114"/>
     <use x="743.417969" xlink:href="#ArialMT-116"/>
     <use x="771.201172" xlink:href="#ArialMT-104"/>
     <use x="826.816406" xlink:href="#ArialMT-100"/>
     <use x="882.431641" xlink:href="#ArialMT-97"/>
     <use x="938.046875" xlink:href="#ArialMT-121"/>
    </g>
   </g>
   <g id="patch_16">
    <path d="M 315.545748 187.230542 
Q 315.584124 180.955598 315.6225 174.680655 
M 331.641771 171.578565 
L 331.622201 174.778505 
L 299.622799 174.582805 
L 299.64237 171.382864 
" style="fill:none;stroke:#000000;stroke-linecap:round;"/>
   </g>
   <g id="text_22">
    <!-- Memorial Day -->
    <g style="fill:#262626;" transform="translate(266.134731 202.680772)scale(0.16 -0.16)">
     <use xlink:href="#ArialMT-77"/>
     <use x="83.300781" xlink:href="#ArialMT-101"/>
     <use x="138.916016" xlink:href="#ArialMT-109"/>
     <use x="222.216797" xlink:href="#ArialMT-111"/>
     <use x="277.832031" xlink:href="#ArialMT-114"/>
     <use x="311.132812" xlink:href="#ArialMT-105"/>
     <use x="333.349609" xlink:href="#ArialMT-97"/>
     <use x="388.964844" xlink:href="#ArialMT-108"/>
     <use x="411.181641" xlink:href="#ArialMT-32"/>
     <use x="438.964844" xlink:href="#ArialMT-68"/>
     <use x="511.181641" xlink:href="#ArialMT-97"/>
     <use x="566.796875" xlink:href="#ArialMT-121"/>
    </g>
   </g>
   <g id="patch_17">
    <path d="M 395.419933 97.719032 
Q 389.415238 115.642843 383.765697 132.506529 
" style="fill:none;stroke:#000000;stroke-linecap:round;"/>
    <path d="M 388.832977 127.454532 
L 383.765697 132.506529 
L 382.764467 125.421507 
" style="fill:none;stroke:#000000;stroke-linecap:round;"/>
   </g>
   <g id="text_23">
    <!-- 4th of July -->
    <defs>
     <path d="M 8.6875 0 
L 8.6875 45.015625 
L 0.921875 45.015625 
L 0.921875 51.859375 
L 8.6875 51.859375 
L 8.6875 57.375 
Q 8.6875 62.59375 9.625 65.140625 
Q 10.890625 68.5625 14.078125 70.671875 
Q 17.28125 72.796875 23.046875 72.796875 
Q 26.765625 72.796875 31.25 71.921875 
L 29.9375 64.265625 
Q 27.203125 64.75 24.75 64.75 
Q 20.75 64.75 19.09375 63.03125 
Q 17.4375 61.328125 17.4375 56.640625 
L 17.4375 51.859375 
L 27.546875 51.859375 
L 27.546875 45.015625 
L 17.4375 45.015625 
L 17.4375 0 
z
" id="ArialMT-102"/>
    </defs>
    <g style="fill:#262626;" transform="translate(362.776195 90.46016)scale(0.16 -0.16)">
     <use xlink:href="#ArialMT-52"/>
     <use x="55.615234" xlink:href="#ArialMT-116"/>
     <use x="83.398438" xlink:href="#ArialMT-104"/>
     <use x="139.013672" xlink:href="#ArialMT-32"/>
     <use x="166.796875" xlink:href="#ArialMT-111"/>
     <use x="222.412109" xlink:href="#ArialMT-102"/>
     <use x="250.195312" xlink:href="#ArialMT-32"/>
     <use x="277.978516" xlink:href="#ArialMT-74"/>
     <use x="327.978516" xlink:href="#ArialMT-117"/>
     <use x="383.59375" xlink:href="#ArialMT-108"/>
     <use x="405.810547" xlink:href="#ArialMT-121"/>
    </g>
   </g>
   <g id="patch_18">
    <path d="M 495.225119 173.037578 
Q 495.251328 164.265793 495.277538 155.494007 
M 511.287028 152.341829 
L 511.277467 155.541815 
L 479.27761 155.4462 
L 479.287171 152.246214 
" style="fill:none;stroke:#000000;stroke-linecap:round;"/>
   </g>
   <g id="text_24">
    <!-- Labor Day -->
    <g style="fill:#262626;" transform="translate(458.283512 188.49489)scale(0.16 -0.16)">
     <use xlink:href="#ArialMT-76"/>
     <use x="55.615234" xlink:href="#ArialMT-97"/>
     <use x="111.230469" xlink:href="#ArialMT-98"/>
     <use x="166.845703" xlink:href="#ArialMT-111"/>
     <use x="222.460938" xlink:href="#ArialMT-114"/>
     <use x="255.761719" xlink:href="#ArialMT-32"/>
     <use x="283.544922" xlink:href="#ArialMT-68"/>
     <use x="355.761719" xlink:href="#ArialMT-97"/>
     <use x="411.376953" xlink:href="#ArialMT-121"/>
    </g>
   </g>
   <g id="patch_19">
    <path d="M 562.731605 64.477466 
Q 562.591821 74.795787 562.452037 85.114108 
M 546.410158 88.097079 
L 546.453505 84.897373 
L 578.450569 85.330842 
L 578.407222 88.530549 
" style="fill:none;stroke:#000000;stroke-linecap:round;"/>
   </g>
   <g id="text_25">
    <!-- Columbus Day -->
    <g style="fill:#262626;" transform="translate(510.424975 57.111737)scale(0.16 -0.16)">
     <use xlink:href="#ArialMT-67"/>
     <use x="72.216797" xlink:href="#ArialMT-111"/>
     <use x="127.832031" xlink:href="#ArialMT-108"/>
     <use x="150.048828" xlink:href="#ArialMT-117"/>
     <use x="205.664062" xlink:href="#ArialMT-109"/>
     <use x="288.964844" xlink:href="#ArialMT-98"/>
     <use x="344.580078" xlink:href="#ArialMT-117"/>
     <use x="400.195312" xlink:href="#ArialMT-115"/>
     <use x="450.195312" xlink:href="#ArialMT-32"/>
     <use x="477.978516" xlink:href="#ArialMT-68"/>
     <use x="550.195312" xlink:href="#ArialMT-97"/>
     <use x="605.810547" xlink:href="#ArialMT-121"/>
    </g>
   </g>
   <g id="patch_20">
    <path d="M 602.734895 213.061225 
Q 609.87182 208.383259 616.073676 204.318193 
" style="fill:none;stroke:#000000;stroke-linecap:round;"/>
    <path d="M 608.966808 205.150313 
L 616.073676 204.318193 
L 612.475251 210.502959 
" style="fill:none;stroke:#000000;stroke-linecap:round;"/>
   </g>
   <g id="text_26">
    <!-- Veterans Day -->
    <defs>
     <path d="M 28.171875 0 
L 0.4375 71.578125 
L 10.6875 71.578125 
L 29.296875 19.578125 
Q 31.546875 13.328125 33.0625 7.859375 
Q 34.71875 13.71875 36.921875 19.578125 
L 56.25 71.578125 
L 65.921875 71.578125 
L 37.890625 0 
z
" id="ArialMT-86"/>
    </defs>
    <g style="fill:#262626;" transform="translate(538.678634 227.610749)scale(0.16 -0.16)">
     <use xlink:href="#ArialMT-86"/>
     <use x="61.199219" xlink:href="#ArialMT-101"/>
     <use x="116.814453" xlink:href="#ArialMT-116"/>
     <use x="144.597656" xlink:href="#ArialMT-101"/>
     <use x="200.212891" xlink:href="#ArialMT-114"/>
     <use x="233.513672" xlink:href="#ArialMT-97"/>
     <use x="289.128906" xlink:href="#ArialMT-110"/>
     <use x="344.744141" xlink:href="#ArialMT-115"/>
     <use x="394.744141" xlink:href="#ArialMT-32"/>
     <use x="422.527344" xlink:href="#ArialMT-68"/>
     <use x="494.744141" xlink:href="#ArialMT-97"/>
     <use x="550.359375" xlink:href="#ArialMT-121"/>
    </g>
   </g>
   <g id="patch_21">
    <path d="M 643.866684 277.870973 
Q 643.961996 270.595377 644.057308 263.319782 
M 660.097852 260.329642 
L 660.055935 263.529368 
L 628.058681 263.110196 
L 628.100598 259.91047 
" style="fill:none;stroke:#000000;stroke-linecap:round;"/>
   </g>
   <g id="text_27">
    <!-- Thanksgiving -->
    <defs>
     <path d="M 25.921875 0 
L 25.921875 63.140625 
L 2.34375 63.140625 
L 2.34375 71.578125 
L 59.078125 71.578125 
L 59.078125 63.140625 
L 35.40625 63.140625 
L 35.40625 0 
z
" id="ArialMT-84"/>
     <path d="M 6.640625 0 
L 6.640625 71.578125 
L 15.4375 71.578125 
L 15.4375 30.765625 
L 36.234375 51.859375 
L 47.609375 51.859375 
L 27.78125 32.625 
L 49.609375 0 
L 38.765625 0 
L 21.625 26.515625 
L 15.4375 20.5625 
L 15.4375 0 
z
" id="ArialMT-107"/>
    </defs>
    <g style="fill:#262626;" transform="translate(596.583512 293.319549)scale(0.16 -0.16)">
     <use xlink:href="#ArialMT-84"/>
     <use x="61.083984" xlink:href="#ArialMT-104"/>
     <use x="116.699219" xlink:href="#ArialMT-97"/>
     <use x="172.314453" xlink:href="#ArialMT-110"/>
     <use x="227.929688" xlink:href="#ArialMT-107"/>
     <use x="277.929688" xlink:href="#ArialMT-115"/>
     <use x="327.929688" xlink:href="#ArialMT-103"/>
     <use x="383.544922" xlink:href="#ArialMT-105"/>
     <use x="405.761719" xlink:href="#ArialMT-118"/>
     <use x="455.761719" xlink:href="#ArialMT-105"/>
     <use x="477.978516" xlink:href="#ArialMT-110"/>
     <use x="533.59375" xlink:href="#ArialMT-103"/>
    </g>
   </g>
   <g id="patch_22">
    <path d="M 684.523658 326.630377 
Q 690.526839 327.090225 695.415252 327.464681 
" style="fill:none;stroke:#000000;stroke-linecap:round;"/>
    <path d="M 689.278353 323.785215 
L 695.415252 327.464681 
L 688.78954 330.166521 
" style="fill:none;stroke:#000000;stroke-linecap:round;"/>
   </g>
   <g id="text_28">
    <!-- Christmas -->
    <g style="fill:#262626;" transform="translate(608.522536 327.702701)scale(0.16 -0.16)">
     <use xlink:href="#ArialMT-67"/>
     <use x="72.216797" xlink:href="#ArialMT-104"/>
     <use x="127.832031" xlink:href="#ArialMT-114"/>
     <use x="161.132812" xlink:href="#ArialMT-105"/>
     <use x="183.349609" xlink:href="#ArialMT-115"/>
     <use x="233.349609" xlink:href="#ArialMT-116"/>
     <use x="261.132812" xlink:href="#ArialMT-109"/>
     <use x="344.433594" xlink:href="#ArialMT-97"/>
     <use x="400.048828" xlink:href="#ArialMT-115"/>
    </g>
   </g>
   <g id="patch_23">
    <path d="M 629.519731 121.579309 
Q 614.852838 135.131997 601.007089 147.925922 
" style="fill:none;stroke:#000000;stroke-linecap:round;"/>
    <path d="M 607.8793 145.932755 
L 601.007089 147.925922 
L 603.535883 141.232253 
" style="fill:none;stroke:#000000;stroke-linecap:round;"/>
   </g>
   <g id="text_29">
    <!-- Halloween -->
    <defs>
     <path d="M 8.015625 0 
L 8.015625 71.578125 
L 17.484375 71.578125 
L 17.484375 42.1875 
L 54.6875 42.1875 
L 54.6875 71.578125 
L 64.15625 71.578125 
L 64.15625 0 
L 54.6875 0 
L 54.6875 33.734375 
L 17.484375 33.734375 
L 17.484375 0 
z
" id="ArialMT-72"/>
    </defs>
    <g style="fill:#262626;" transform="translate(603.717658 115.041431)scale(0.16 -0.16)">
     <use xlink:href="#ArialMT-72"/>
     <use x="72.216797" xlink:href="#ArialMT-97"/>
     <use x="127.832031" xlink:href="#ArialMT-108"/>
     <use x="150.048828" xlink:href="#ArialMT-108"/>
     <use x="172.265625" xlink:href="#ArialMT-111"/>
     <use x="227.880859" xlink:href="#ArialMT-119"/>
     <use x="300.097656" xlink:href="#ArialMT-101"/>
     <use x="355.712891" xlink:href="#ArialMT-101"/>
     <use x="411.328125" xlink:href="#ArialMT-110"/>
    </g>
   </g>
   <g id="patch_24">
    <path d="M 126.710645 130.434813 
Q 126.806969 150.749217 126.897991 169.9456 
" style="fill:none;stroke:#000000;stroke-linecap:round;"/>
    <path d="M 130.067609 163.530499 
L 126.897991 169.9456 
L 123.667681 163.560845 
" style="fill:none;stroke:#000000;stroke-linecap:round;"/>
   </g>
   <g id="text_30">
    <!-- Valentine's Day -->
    <g style="fill:#262626;" transform="translate(71.91278 123.06449)scale(0.16 -0.16)">
     <use xlink:href="#ArialMT-86"/>
     <use x="59.324219" xlink:href="#ArialMT-97"/>
     <use x="114.939453" xlink:href="#ArialMT-108"/>
     <use x="137.15625" xlink:href="#ArialMT-101"/>
     <use x="192.771484" xlink:href="#ArialMT-110"/>
     <use x="248.386719" xlink:href="#ArialMT-116"/>
     <use x="276.169922" xlink:href="#ArialMT-105"/>
     <use x="298.386719" xlink:href="#ArialMT-110"/>
     <use x="354.001953" xlink:href="#ArialMT-101"/>
     <use x="409.617188" xlink:href="#ArialMT-39"/>
     <use x="428.708984" xlink:href="#ArialMT-115"/>
     <use x="478.708984" xlink:href="#ArialMT-32"/>
     <use x="506.492188" xlink:href="#ArialMT-68"/>
     <use x="578.708984" xlink:href="#ArialMT-97"/>
     <use x="634.324219" xlink:href="#ArialMT-121"/>
    </g>
   </g>
   <g id="patch_25">
    <path d="M 200.124888 104.625057 
Q 192.828885 130.018293 185.841626 154.33697 
" style="fill:none;stroke:#000000;stroke-linecap:round;"/>
    <path d="M 190.684543 149.069508 
L 185.841626 154.33697 
L 184.533407 147.302159 
" style="fill:none;stroke:#000000;stroke-linecap:round;"/>
   </g>
   <g id="text_31">
    <!-- St. Patrick's Day -->
    <defs>
     <path d="M 9.078125 0 
L 9.078125 10.015625 
L 19.09375 10.015625 
L 19.09375 0 
z
" id="ArialMT-46"/>
     <path d="M 7.71875 0 
L 7.71875 71.578125 
L 34.71875 71.578125 
Q 41.84375 71.578125 45.609375 70.90625 
Q 50.875 70.015625 54.4375 67.546875 
Q 58.015625 65.09375 60.1875 60.640625 
Q 62.359375 56.203125 62.359375 50.875 
Q 62.359375 41.75 56.546875 35.421875 
Q 50.734375 29.109375 35.546875 29.109375 
L 17.1875 29.109375 
L 17.1875 0 
z
M 17.1875 37.546875 
L 35.6875 37.546875 
Q 44.875 37.546875 48.734375 40.96875 
Q 52.59375 44.390625 52.59375 50.59375 
Q 52.59375 55.078125 50.3125 58.265625 
Q 48.046875 61.46875 44.34375 62.5 
Q 41.9375 63.140625 35.5 63.140625 
L 17.1875 63.140625 
z
" id="ArialMT-80"/>
    </defs>
    <g style="fill:#262626;" transform="translate(144.981073 97.332066)scale(0.16 -0.16)">
     <use xlink:href="#ArialMT-83"/>
     <use x="66.699219" xlink:href="#ArialMT-116"/>
     <use x="94.482422" xlink:href="#ArialMT-46"/>
     <use x="122.265625" xlink:href="#ArialMT-32"/>
     <use x="150.048828" xlink:href="#ArialMT-80"/>
     <use x="216.748047" xlink:href="#ArialMT-97"/>
     <use x="272.363281" xlink:href="#ArialMT-116"/>
     <use x="300.146484" xlink:href="#ArialMT-114"/>
     <use x="333.447266" xlink:href="#ArialMT-105"/>
     <use x="355.664062" xlink:href="#ArialMT-99"/>
     <use x="405.664062" xlink:href="#ArialMT-107"/>
     <use x="455.664062" xlink:href="#ArialMT-39"/>
     <use x="474.755859" xlink:href="#ArialMT-115"/>
     <use x="524.755859" xlink:href="#ArialMT-32"/>
     <use x="552.539062" xlink:href="#ArialMT-68"/>
     <use x="624.755859" xlink:href="#ArialMT-97"/>
     <use x="680.371094" xlink:href="#ArialMT-121"/>
    </g>
   </g>
   <g id="text_32">
    <!-- Mean Bicycle Crashes by Date (20012017) -->
    <defs>
     <path d="M 23.390625 -21.046875 
Q 16.109375 -11.859375 11.078125 0.4375 
Q 6.0625 12.75 6.0625 25.921875 
Q 6.0625 37.546875 9.8125 48.1875 
Q 14.203125 60.546875 23.390625 72.796875 
L 29.6875 72.796875 
Q 23.78125 62.640625 21.875 58.296875 
Q 18.890625 51.5625 17.1875 44.234375 
Q 15.09375 35.109375 15.09375 25.875 
Q 15.09375 2.390625 29.6875 -21.046875 
z
" id="ArialMT-40"/>
     <path d="M -0.203125 22.359375 
L -0.203125 29.4375 
L 55.421875 29.4375 
L 55.421875 22.359375 
z
" id="ArialMT-8211"/>
     <path d="M 4.734375 62.203125 
L 4.734375 70.65625 
L 51.078125 70.65625 
L 51.078125 63.8125 
Q 44.234375 56.546875 37.515625 44.484375 
Q 30.8125 32.421875 27.15625 19.671875 
Q 24.515625 10.6875 23.78125 0 
L 14.75 0 
Q 14.890625 8.453125 18.0625 20.40625 
Q 21.234375 32.375 27.171875 43.484375 
Q 33.109375 54.59375 39.796875 62.203125 
z
" id="ArialMT-55"/>
     <path d="M 12.359375 -21.046875 
L 6.0625 -21.046875 
Q 20.65625 2.390625 20.65625 25.875 
Q 20.65625 35.0625 18.5625 44.09375 
Q 16.890625 51.421875 13.921875 58.15625 
Q 12.015625 62.546875 6.0625 72.796875 
L 12.359375 72.796875 
Q 21.53125 60.546875 25.921875 48.1875 
Q 29.6875 37.546875 29.6875 25.921875 
Q 29.6875 12.75 24.625 0.4375 
Q 19.578125 -11.859375 12.359375 -21.046875 
z
" id="ArialMT-41"/>
    </defs>
    <g style="fill:#262626;" transform="translate(101.7406 27.583125)scale(0.28 -0.28)">
     <use xlink:href="#ArialMT-77"/>
     <use x="83.300781" xlink:href="#ArialMT-101"/>
     <use x="138.916016" xlink:href="#ArialMT-97"/>
     <use x="194.53125" xlink:href="#ArialMT-110"/>
     <use x="250.146484" xlink:href="#ArialMT-32"/>
     <use x="277.929688" xlink:href="#ArialMT-66"/>
     <use x="344.628906" xlink:href="#ArialMT-105"/>
     <use x="366.845703" xlink:href="#ArialMT-99"/>
     <use x="416.845703" xlink:href="#ArialMT-121"/>
     <use x="466.845703" xlink:href="#ArialMT-99"/>
     <use x="516.845703" xlink:href="#ArialMT-108"/>
     <use x="539.0625" xlink:href="#ArialMT-101"/>
     <use x="594.677734" xlink:href="#ArialMT-32"/>
     <use x="622.460938" xlink:href="#ArialMT-67"/>
     <use x="694.677734" xlink:href="#ArialMT-114"/>
     <use x="727.978516" xlink:href="#ArialMT-97"/>
     <use x="783.59375" xlink:href="#ArialMT-115"/>
     <use x="833.59375" xlink:href="#ArialMT-104"/>
     <use x="889.208984" xlink:href="#ArialMT-101"/>
     <use x="944.824219" xlink:href="#ArialMT-115"/>
     <use x="994.824219" xlink:href="#ArialMT-32"/>
     <use x="1022.607422" xlink:href="#ArialMT-98"/>
     <use x="1078.222656" xlink:href="#ArialMT-121"/>
     <use x="1128.222656" xlink:href="#ArialMT-32"/>
     <use x="1156.005859" xlink:href="#ArialMT-68"/>
     <use x="1228.222656" xlink:href="#ArialMT-97"/>
     <use x="1283.837891" xlink:href="#ArialMT-116"/>
     <use x="1311.621094" xlink:href="#ArialMT-101"/>
     <use x="1367.236328" xlink:href="#ArialMT-32"/>
     <use x="1395.019531" xlink:href="#ArialMT-40"/>
     <use x="1428.320312" xlink:href="#ArialMT-50"/>
     <use x="1483.935547" xlink:href="#ArialMT-48"/>
     <use x="1539.550781" xlink:href="#ArialMT-48"/>
     <use x="1595.166016" xlink:href="#ArialMT-49"/>
     <use x="1650.78125" xlink:href="#ArialMT-8211"/>
     <use x="1706.396484" xlink:href="#ArialMT-50"/>
     <use x="1762.011719" xlink:href="#ArialMT-48"/>
     <use x="1817.626953" xlink:href="#ArialMT-49"/>
     <use x="1873.242188" xlink:href="#ArialMT-55"/>
     <use x="1928.857422" xlink:href="#ArialMT-41"/>
    </g>
   </g>
  </g>
 </g>
 <defs>
  <clipPath id="p79c2d61159">
   <rect height="326.16" width="669.6" x="41.624975" y="43.367925"/>
  </clipPath>
 </defs>
</svg>
