<?xml version="1.0" encoding="utf-8" standalone="no"?>
<!DOCTYPE svg PUBLIC "-//W3C//DTD SVG 1.1//EN"
  "http://www.w3.org/Graphics/SVG/1.1/DTD/svg11.dtd">
<!-- Created with matplotlib (http://matplotlib.org/) -->
<svg height="517.933906pt" version="1.1" viewBox="0 0 852.667928 517.933906" width="852.667928pt" xmlns="http://www.w3.org/2000/svg" xmlns:xlink="http://www.w3.org/1999/xlink">
 <defs>
  <style type="text/css">
*{stroke-linecap:butt;stroke-linejoin:round;}
  </style>
 </defs>
 <g id="figure_1">
  <g id="patch_1">
   <path d="M 0 517.933906 
L 852.667928 517.933906 
L 852.667928 0 
L 0 0 
z
" style="fill:#ffffff;"/>
  </g>
  <g id="axes_1">
   <g id="patch_2">
    <path d="M 61.758594 468.847187 
L 841.967928 468.847187 
L 841.967928 28.947187 
L 61.758594 28.947187 
z
" style="fill:#ffffff;"/>
   </g>
   <g id="patch_3">
    <path clip-path="url(#pa90bdee2e0)" d="M 97.222654 468.847187 
L 97.222654 28.947187 
L 152.747194 28.947187 
L 152.747194 468.847187 
z
" style="fill:#f7f7f7;stroke:#f7f7f7;stroke-linejoin:miter;"/>
   </g>
   <g id="patch_4">
    <path clip-path="url(#pa90bdee2e0)" d="M 206.480619 468.847187 
L 206.480619 28.947187 
L 262.005158 28.947187 
L 262.005158 468.847187 
z
" style="fill:#f7f7f7;stroke:#f7f7f7;stroke-linejoin:miter;"/>
   </g>
   <g id="patch_5">
    <path clip-path="url(#pa90bdee2e0)" d="M 315.738584 468.847187 
L 315.738584 28.947187 
L 371.263123 28.947187 
L 371.263123 468.847187 
z
" style="fill:#f7f7f7;stroke:#f7f7f7;stroke-linejoin:miter;"/>
   </g>
   <g id="patch_6">
    <path clip-path="url(#pa90bdee2e0)" d="M 426.787662 468.847187 
L 426.787662 28.947187 
L 476.938859 28.947187 
L 476.938859 468.847187 
z
" style="fill:#f7f7f7;stroke:#f7f7f7;stroke-linejoin:miter;"/>
   </g>
   <g id="patch_7">
    <path clip-path="url(#pa90bdee2e0)" d="M 532.463399 468.847187 
L 532.463399 28.947187 
L 586.196824 28.947187 
L 586.196824 468.847187 
z
" style="fill:#f7f7f7;stroke:#f7f7f7;stroke-linejoin:miter;"/>
   </g>
   <g id="patch_8">
    <path clip-path="url(#pa90bdee2e0)" d="M 641.721363 468.847187 
L 641.721363 28.947187 
L 695.454788 28.947187 
L 695.454788 468.847187 
z
" style="fill:#f7f7f7;stroke:#f7f7f7;stroke-linejoin:miter;"/>
   </g>
   <g id="patch_9">
    <path clip-path="url(#pa90bdee2e0)" d="M 750.979328 468.847187 
L 750.979328 28.947187 
L 806.503867 28.947187 
L 806.503867 468.847187 
z
" style="fill:#f7f7f7;stroke:#f7f7f7;stroke-linejoin:miter;"/>
   </g>
   <g id="matplotlib.axis_1">
    <g id="xtick_1">
     <g id="line2d_1">
      <path clip-path="url(#pa90bdee2e0)" d="M 97.222654 468.847187 
L 97.222654 28.947187 
" style="fill:none;stroke:#cccccc;stroke-linecap:round;stroke-width:0.8;"/>
     </g>
    </g>
    <g id="xtick_2">
     <g id="line2d_2">
      <path clip-path="url(#pa90bdee2e0)" d="M 152.747194 468.847187 
L 152.747194 28.947187 
" style="fill:none;stroke:#cccccc;stroke-linecap:round;stroke-width:0.8;"/>
     </g>
    </g>
    <g id="xtick_3">
     <g id="line2d_3">
      <path clip-path="url(#pa90bdee2e0)" d="M 206.480619 468.847187 
L 206.480619 28.947187 
" style="fill:none;stroke:#cccccc;stroke-linecap:round;stroke-width:0.8;"/>
     </g>
    </g>
    <g id="xtick_4">
     <g id="line2d_4">
      <path clip-path="url(#pa90bdee2e0)" d="M 262.005158 468.847187 
L 262.005158 28.947187 
" style="fill:none;stroke:#cccccc;stroke-linecap:round;stroke-width:0.8;"/>
     </g>
    </g>
    <g id="xtick_5">
     <g id="line2d_5">
      <path clip-path="url(#pa90bdee2e0)" d="M 315.738584 468.847187 
L 315.738584 28.947187 
" style="fill:none;stroke:#cccccc;stroke-linecap:round;stroke-width:0.8;"/>
     </g>
    </g>
    <g id="xtick_6">
     <g id="line2d_6">
      <path clip-path="url(#pa90bdee2e0)" d="M 371.263123 468.847187 
L 371.263123 28.947187 
" style="fill:none;stroke:#cccccc;stroke-linecap:round;stroke-width:0.8;"/>
     </g>
    </g>
    <g id="xtick_7">
     <g id="line2d_7">
      <path clip-path="url(#pa90bdee2e0)" d="M 426.787662 468.847187 
L 426.787662 28.947187 
" style="fill:none;stroke:#cccccc;stroke-linecap:round;stroke-width:0.8;"/>
     </g>
    </g>
    <g id="xtick_8">
     <g id="line2d_8">
      <path clip-path="url(#pa90bdee2e0)" d="M 476.938859 468.847187 
L 476.938859 28.947187 
" style="fill:none;stroke:#cccccc;stroke-linecap:round;stroke-width:0.8;"/>
     </g>
    </g>
    <g id="xtick_9">
     <g id="line2d_9">
      <path clip-path="url(#pa90bdee2e0)" d="M 532.463399 468.847187 
L 532.463399 28.947187 
" style="fill:none;stroke:#cccccc;stroke-linecap:round;stroke-width:0.8;"/>
     </g>
    </g>
    <g id="xtick_10">
     <g id="line2d_10">
      <path clip-path="url(#pa90bdee2e0)" d="M 586.196824 468.847187 
L 586.196824 28.947187 
" style="fill:none;stroke:#cccccc;stroke-linecap:round;stroke-width:0.8;"/>
     </g>
    </g>
    <g id="xtick_11">
     <g id="line2d_11">
      <path clip-path="url(#pa90bdee2e0)" d="M 641.721363 468.847187 
L 641.721363 28.947187 
" style="fill:none;stroke:#cccccc;stroke-linecap:round;stroke-width:0.8;"/>
     </g>
    </g>
    <g id="xtick_12">
     <g id="line2d_12">
      <path clip-path="url(#pa90bdee2e0)" d="M 695.454788 468.847187 
L 695.454788 28.947187 
" style="fill:none;stroke:#cccccc;stroke-linecap:round;stroke-width:0.8;"/>
     </g>
    </g>
    <g id="xtick_13">
     <g id="line2d_13">
      <path clip-path="url(#pa90bdee2e0)" d="M 750.979328 468.847187 
L 750.979328 28.947187 
" style="fill:none;stroke:#cccccc;stroke-linecap:round;stroke-width:0.8;"/>
     </g>
    </g>
    <g id="xtick_14">
     <g id="line2d_14">
      <path clip-path="url(#pa90bdee2e0)" d="M 806.503867 468.847187 
L 806.503867 28.947187 
" style="fill:none;stroke:#cccccc;stroke-linecap:round;stroke-width:0.8;"/>
     </g>
    </g>
    <g id="xtick_15">
     <g id="text_1">
      <!-- 14 -->
      <defs>
       <path d="M 37.25 0 
L 28.46875 0 
L 28.46875 56 
Q 25.296875 52.984375 20.140625 49.953125 
Q 14.984375 46.921875 10.890625 45.40625 
L 10.890625 53.90625 
Q 18.265625 57.375 23.78125 62.296875 
Q 29.296875 67.234375 31.59375 71.875 
L 37.25 71.875 
z
" id="ArialMT-31"/>
       <path d="M 32.328125 0 
L 32.328125 17.140625 
L 1.265625 17.140625 
L 1.265625 25.203125 
L 33.9375 71.578125 
L 41.109375 71.578125 
L 41.109375 25.203125 
L 50.78125 25.203125 
L 50.78125 17.140625 
L 41.109375 17.140625 
L 41.109375 0 
z
M 32.328125 25.203125 
L 32.328125 57.46875 
L 9.90625 25.203125 
z
" id="ArialMT-34"/>
      </defs>
      <g style="fill:#262626;" transform="translate(116.643518 484.983906)scale(0.15 -0.15)">
       <use xlink:href="#ArialMT-31"/>
       <use x="55.615234" xlink:href="#ArialMT-34"/>
      </g>
     </g>
    </g>
    <g id="xtick_16">
     <g id="text_2">
      <!-- 15 -->
      <defs>
       <path d="M 4.15625 18.75 
L 13.375 19.53125 
Q 14.40625 12.796875 18.140625 9.390625 
Q 21.875 6 27.15625 6 
Q 33.5 6 37.890625 10.78125 
Q 42.28125 15.578125 42.28125 23.484375 
Q 42.28125 31 38.0625 35.34375 
Q 33.84375 39.703125 27 39.703125 
Q 22.75 39.703125 19.328125 37.765625 
Q 15.921875 35.84375 13.96875 32.765625 
L 5.71875 33.84375 
L 12.640625 70.609375 
L 48.25 70.609375 
L 48.25 62.203125 
L 19.671875 62.203125 
L 15.828125 42.96875 
Q 22.265625 47.46875 29.34375 47.46875 
Q 38.71875 47.46875 45.15625 40.96875 
Q 51.609375 34.46875 51.609375 24.265625 
Q 51.609375 14.546875 45.953125 7.46875 
Q 39.0625 -1.21875 27.15625 -1.21875 
Q 17.390625 -1.21875 11.203125 4.25 
Q 5.03125 9.71875 4.15625 18.75 
z
" id="ArialMT-35"/>
      </defs>
      <g style="fill:#262626;" transform="translate(172.168057 484.983906)scale(0.15 -0.15)">
       <use xlink:href="#ArialMT-31"/>
       <use x="55.615234" xlink:href="#ArialMT-35"/>
      </g>
     </g>
    </g>
    <g id="xtick_17">
     <g id="text_3">
      <!-- 16 -->
      <defs>
       <path d="M 49.75 54.046875 
L 41.015625 53.375 
Q 39.84375 58.546875 37.703125 60.890625 
Q 34.125 64.65625 28.90625 64.65625 
Q 24.703125 64.65625 21.53125 62.3125 
Q 17.390625 59.28125 14.984375 53.46875 
Q 12.59375 47.65625 12.5 36.921875 
Q 15.671875 41.75 20.265625 44.09375 
Q 24.859375 46.4375 29.890625 46.4375 
Q 38.671875 46.4375 44.84375 39.96875 
Q 51.03125 33.5 51.03125 23.25 
Q 51.03125 16.5 48.125 10.71875 
Q 45.21875 4.9375 40.140625 1.859375 
Q 35.0625 -1.21875 28.609375 -1.21875 
Q 17.625 -1.21875 10.6875 6.859375 
Q 3.765625 14.9375 3.765625 33.5 
Q 3.765625 54.25 11.421875 63.671875 
Q 18.109375 71.875 29.4375 71.875 
Q 37.890625 71.875 43.28125 67.140625 
Q 48.6875 62.40625 49.75 54.046875 
z
M 13.875 23.1875 
Q 13.875 18.65625 15.796875 14.5 
Q 17.71875 10.359375 21.1875 8.171875 
Q 24.65625 6 28.46875 6 
Q 34.03125 6 38.03125 10.484375 
Q 42.046875 14.984375 42.046875 22.703125 
Q 42.046875 30.125 38.078125 34.390625 
Q 34.125 38.671875 28.125 38.671875 
Q 22.171875 38.671875 18.015625 34.390625 
Q 13.875 30.125 13.875 23.1875 
z
" id="ArialMT-36"/>
      </defs>
      <g style="fill:#262626;" transform="translate(225.901482 484.983906)scale(0.15 -0.15)">
       <use xlink:href="#ArialMT-31"/>
       <use x="55.615234" xlink:href="#ArialMT-36"/>
      </g>
     </g>
    </g>
    <g id="xtick_18">
     <g id="text_4">
      <!-- 17 -->
      <defs>
       <path d="M 4.734375 62.203125 
L 4.734375 70.65625 
L 51.078125 70.65625 
L 51.078125 63.8125 
Q 44.234375 56.546875 37.515625 44.484375 
Q 30.8125 32.421875 27.15625 19.671875 
Q 24.515625 10.6875 23.78125 0 
L 14.75 0 
Q 14.890625 8.453125 18.0625 20.40625 
Q 21.234375 32.375 27.171875 43.484375 
Q 33.109375 54.59375 39.796875 62.203125 
z
" id="ArialMT-37"/>
      </defs>
      <g style="fill:#262626;" transform="translate(281.426022 484.983906)scale(0.15 -0.15)">
       <use xlink:href="#ArialMT-31"/>
       <use x="55.615234" xlink:href="#ArialMT-37"/>
      </g>
     </g>
    </g>
    <g id="xtick_19">
     <g id="text_5">
      <!-- 18 -->
      <defs>
       <path d="M 17.671875 38.8125 
Q 12.203125 40.828125 9.5625 44.53125 
Q 6.9375 48.25 6.9375 53.421875 
Q 6.9375 61.234375 12.546875 66.546875 
Q 18.171875 71.875 27.484375 71.875 
Q 36.859375 71.875 42.578125 66.421875 
Q 48.296875 60.984375 48.296875 53.171875 
Q 48.296875 48.1875 45.671875 44.5 
Q 43.0625 40.828125 37.75 38.8125 
Q 44.34375 36.671875 47.78125 31.875 
Q 51.21875 27.09375 51.21875 20.453125 
Q 51.21875 11.28125 44.71875 5.03125 
Q 38.234375 -1.21875 27.640625 -1.21875 
Q 17.046875 -1.21875 10.546875 5.046875 
Q 4.046875 11.328125 4.046875 20.703125 
Q 4.046875 27.6875 7.59375 32.390625 
Q 11.140625 37.109375 17.671875 38.8125 
z
M 15.921875 53.71875 
Q 15.921875 48.640625 19.1875 45.40625 
Q 22.46875 42.1875 27.6875 42.1875 
Q 32.765625 42.1875 36.015625 45.375 
Q 39.265625 48.578125 39.265625 53.21875 
Q 39.265625 58.0625 35.90625 61.359375 
Q 32.5625 64.65625 27.59375 64.65625 
Q 22.5625 64.65625 19.234375 61.421875 
Q 15.921875 58.203125 15.921875 53.71875 
z
M 13.09375 20.65625 
Q 13.09375 16.890625 14.875 13.375 
Q 16.65625 9.859375 20.171875 7.921875 
Q 23.6875 6 27.734375 6 
Q 34.03125 6 38.125 10.046875 
Q 42.234375 14.109375 42.234375 20.359375 
Q 42.234375 26.703125 38.015625 30.859375 
Q 33.796875 35.015625 27.4375 35.015625 
Q 21.234375 35.015625 17.15625 30.90625 
Q 13.09375 26.8125 13.09375 20.65625 
z
" id="ArialMT-38"/>
      </defs>
      <g style="fill:#262626;" transform="translate(335.159447 484.983906)scale(0.15 -0.15)">
       <use xlink:href="#ArialMT-31"/>
       <use x="55.615234" xlink:href="#ArialMT-38"/>
      </g>
     </g>
    </g>
    <g id="xtick_20">
     <g id="text_6">
      <!-- 19 -->
      <defs>
       <path d="M 5.46875 16.546875 
L 13.921875 17.328125 
Q 14.984375 11.375 18.015625 8.6875 
Q 21.046875 6 25.78125 6 
Q 29.828125 6 32.875 7.859375 
Q 35.9375 9.71875 37.890625 12.8125 
Q 39.84375 15.921875 41.15625 21.1875 
Q 42.484375 26.46875 42.484375 31.9375 
Q 42.484375 32.515625 42.4375 33.6875 
Q 39.796875 29.5 35.234375 26.875 
Q 30.671875 24.265625 25.34375 24.265625 
Q 16.453125 24.265625 10.296875 30.703125 
Q 4.15625 37.15625 4.15625 47.703125 
Q 4.15625 58.59375 10.578125 65.234375 
Q 17 71.875 26.65625 71.875 
Q 33.640625 71.875 39.421875 68.109375 
Q 45.21875 64.359375 48.21875 57.390625 
Q 51.21875 50.4375 51.21875 37.25 
Q 51.21875 23.53125 48.234375 15.40625 
Q 45.265625 7.28125 39.375 3.03125 
Q 33.5 -1.21875 25.59375 -1.21875 
Q 17.1875 -1.21875 11.859375 3.4375 
Q 6.546875 8.109375 5.46875 16.546875 
z
M 41.453125 48.140625 
Q 41.453125 55.71875 37.421875 60.15625 
Q 33.40625 64.59375 27.734375 64.59375 
Q 21.875 64.59375 17.53125 59.8125 
Q 13.1875 55.03125 13.1875 47.40625 
Q 13.1875 40.578125 17.3125 36.296875 
Q 21.4375 32.03125 27.484375 32.03125 
Q 33.59375 32.03125 37.515625 36.296875 
Q 41.453125 40.578125 41.453125 48.140625 
z
" id="ArialMT-39"/>
      </defs>
      <g style="fill:#262626;" transform="translate(390.683986 484.983906)scale(0.15 -0.15)">
       <use xlink:href="#ArialMT-31"/>
       <use x="55.615234" xlink:href="#ArialMT-39"/>
      </g>
     </g>
    </g>
    <g id="xtick_21">
     <g id="text_7">
      <!-- 20 -->
      <defs>
       <path d="M 50.34375 8.453125 
L 50.34375 0 
L 3.03125 0 
Q 2.9375 3.171875 4.046875 6.109375 
Q 5.859375 10.9375 9.828125 15.625 
Q 13.8125 20.3125 21.34375 26.46875 
Q 33.015625 36.03125 37.109375 41.625 
Q 41.21875 47.21875 41.21875 52.203125 
Q 41.21875 57.421875 37.46875 61 
Q 33.734375 64.59375 27.734375 64.59375 
Q 21.390625 64.59375 17.578125 60.78125 
Q 13.765625 56.984375 13.71875 50.25 
L 4.6875 51.171875 
Q 5.609375 61.28125 11.65625 66.578125 
Q 17.71875 71.875 27.9375 71.875 
Q 38.234375 71.875 44.234375 66.15625 
Q 50.25 60.453125 50.25 52 
Q 50.25 47.703125 48.484375 43.546875 
Q 46.734375 39.40625 42.65625 34.8125 
Q 38.578125 30.21875 29.109375 22.21875 
Q 21.1875 15.578125 18.9375 13.203125 
Q 16.703125 10.84375 15.234375 8.453125 
z
" id="ArialMT-32"/>
       <path d="M 4.15625 35.296875 
Q 4.15625 48 6.765625 55.734375 
Q 9.375 63.484375 14.515625 67.671875 
Q 19.671875 71.875 27.484375 71.875 
Q 33.25 71.875 37.59375 69.546875 
Q 41.9375 67.234375 44.765625 62.859375 
Q 47.609375 58.5 49.21875 52.21875 
Q 50.828125 45.953125 50.828125 35.296875 
Q 50.828125 22.703125 48.234375 14.96875 
Q 45.65625 7.234375 40.5 3 
Q 35.359375 -1.21875 27.484375 -1.21875 
Q 17.140625 -1.21875 11.234375 6.203125 
Q 4.15625 15.140625 4.15625 35.296875 
z
M 13.1875 35.296875 
Q 13.1875 17.671875 17.3125 11.828125 
Q 21.4375 6 27.484375 6 
Q 33.546875 6 37.671875 11.859375 
Q 41.796875 17.71875 41.796875 35.296875 
Q 41.796875 52.984375 37.671875 58.78125 
Q 33.546875 64.59375 27.390625 64.59375 
Q 21.34375 64.59375 17.71875 59.46875 
Q 13.1875 52.9375 13.1875 35.296875 
z
" id="ArialMT-30"/>
      </defs>
      <g style="fill:#262626;" transform="translate(446.208526 484.983906)scale(0.15 -0.15)">
       <use xlink:href="#ArialMT-32"/>
       <use x="55.615234" xlink:href="#ArialMT-30"/>
      </g>
     </g>
    </g>
    <g id="xtick_22">
     <g id="text_8">
      <!-- 21 -->
      <g style="fill:#262626;" transform="translate(496.359723 484.983906)scale(0.15 -0.15)">
       <use xlink:href="#ArialMT-32"/>
       <use x="55.615234" xlink:href="#ArialMT-31"/>
      </g>
     </g>
    </g>
    <g id="xtick_23">
     <g id="text_9">
      <!-- 22 -->
      <g style="fill:#262626;" transform="translate(551.884262 484.983906)scale(0.15 -0.15)">
       <use xlink:href="#ArialMT-32"/>
       <use x="55.615234" xlink:href="#ArialMT-32"/>
      </g>
     </g>
    </g>
    <g id="xtick_24">
     <g id="text_10">
      <!-- 23 -->
      <defs>
       <path d="M 4.203125 18.890625 
L 12.984375 20.0625 
Q 14.5 12.59375 18.140625 9.296875 
Q 21.78125 6 27 6 
Q 33.203125 6 37.46875 10.296875 
Q 41.75 14.59375 41.75 20.953125 
Q 41.75 27 37.796875 30.921875 
Q 33.84375 34.859375 27.734375 34.859375 
Q 25.25 34.859375 21.53125 33.890625 
L 22.515625 41.609375 
Q 23.390625 41.5 23.921875 41.5 
Q 29.546875 41.5 34.03125 44.421875 
Q 38.53125 47.359375 38.53125 53.46875 
Q 38.53125 58.296875 35.25 61.46875 
Q 31.984375 64.65625 26.8125 64.65625 
Q 21.6875 64.65625 18.265625 61.421875 
Q 14.84375 58.203125 13.875 51.765625 
L 5.078125 53.328125 
Q 6.6875 62.15625 12.390625 67.015625 
Q 18.109375 71.875 26.609375 71.875 
Q 32.46875 71.875 37.390625 69.359375 
Q 42.328125 66.84375 44.9375 62.5 
Q 47.5625 58.15625 47.5625 53.265625 
Q 47.5625 48.640625 45.0625 44.828125 
Q 42.578125 41.015625 37.703125 38.765625 
Q 44.046875 37.3125 47.5625 32.6875 
Q 51.078125 28.078125 51.078125 21.140625 
Q 51.078125 11.765625 44.234375 5.25 
Q 37.40625 -1.265625 26.953125 -1.265625 
Q 17.53125 -1.265625 11.296875 4.34375 
Q 5.078125 9.96875 4.203125 18.890625 
z
" id="ArialMT-33"/>
      </defs>
      <g style="fill:#262626;" transform="translate(605.617687 484.983906)scale(0.15 -0.15)">
       <use xlink:href="#ArialMT-32"/>
       <use x="55.615234" xlink:href="#ArialMT-33"/>
      </g>
     </g>
    </g>
    <g id="xtick_25">
     <g id="text_11">
      <!-- 2 Years -->
      <defs>
       <path id="ArialMT-20"/>
       <path d="M 27.875 0 
L 27.875 30.328125 
L 0.296875 71.578125 
L 11.8125 71.578125 
L 25.921875 50 
Q 29.828125 43.953125 33.203125 37.890625 
Q 36.421875 43.5 41.015625 50.53125 
L 54.890625 71.578125 
L 65.921875 71.578125 
L 37.359375 30.328125 
L 37.359375 0 
z
" id="ArialMT-59"/>
       <path d="M 42.09375 16.703125 
L 51.171875 15.578125 
Q 49.03125 7.625 43.21875 3.21875 
Q 37.40625 -1.171875 28.375 -1.171875 
Q 17 -1.171875 10.328125 5.828125 
Q 3.65625 12.84375 3.65625 25.484375 
Q 3.65625 38.578125 10.390625 45.796875 
Q 17.140625 53.03125 27.875 53.03125 
Q 38.28125 53.03125 44.875 45.953125 
Q 51.46875 38.875 51.46875 26.03125 
Q 51.46875 25.25 51.421875 23.6875 
L 12.75 23.6875 
Q 13.234375 15.140625 17.578125 10.59375 
Q 21.921875 6.0625 28.421875 6.0625 
Q 33.25 6.0625 36.671875 8.59375 
Q 40.09375 11.140625 42.09375 16.703125 
z
M 13.234375 30.90625 
L 42.1875 30.90625 
Q 41.609375 37.453125 38.875 40.71875 
Q 34.671875 45.796875 27.984375 45.796875 
Q 21.921875 45.796875 17.796875 41.75 
Q 13.671875 37.703125 13.234375 30.90625 
z
" id="ArialMT-65"/>
       <path d="M 40.4375 6.390625 
Q 35.546875 2.25 31.03125 0.53125 
Q 26.515625 -1.171875 21.34375 -1.171875 
Q 12.796875 -1.171875 8.203125 3 
Q 3.609375 7.171875 3.609375 13.671875 
Q 3.609375 17.484375 5.34375 20.625 
Q 7.078125 23.78125 9.890625 25.6875 
Q 12.703125 27.59375 16.21875 28.5625 
Q 18.796875 29.25 24.03125 29.890625 
Q 34.671875 31.15625 39.703125 32.90625 
Q 39.75 34.71875 39.75 35.203125 
Q 39.75 40.578125 37.25 42.78125 
Q 33.890625 45.75 27.25 45.75 
Q 21.046875 45.75 18.09375 43.578125 
Q 15.140625 41.40625 13.71875 35.890625 
L 5.125 37.0625 
Q 6.296875 42.578125 8.984375 45.96875 
Q 11.671875 49.359375 16.75 51.1875 
Q 21.828125 53.03125 28.515625 53.03125 
Q 35.15625 53.03125 39.296875 51.46875 
Q 43.453125 49.90625 45.40625 47.53125 
Q 47.359375 45.171875 48.140625 41.546875 
Q 48.578125 39.3125 48.578125 33.453125 
L 48.578125 21.734375 
Q 48.578125 9.46875 49.140625 6.21875 
Q 49.703125 2.984375 51.375 0 
L 42.1875 0 
Q 40.828125 2.734375 40.4375 6.390625 
z
M 39.703125 26.03125 
Q 34.90625 24.078125 25.34375 22.703125 
Q 19.921875 21.921875 17.671875 20.9375 
Q 15.4375 19.96875 14.203125 18.09375 
Q 12.984375 16.21875 12.984375 13.921875 
Q 12.984375 10.40625 15.640625 8.0625 
Q 18.3125 5.71875 23.4375 5.71875 
Q 28.515625 5.71875 32.46875 7.9375 
Q 36.421875 10.15625 38.28125 14.015625 
Q 39.703125 17 39.703125 22.796875 
z
" id="ArialMT-61"/>
       <path d="M 6.5 0 
L 6.5 51.859375 
L 14.40625 51.859375 
L 14.40625 44 
Q 17.4375 49.515625 20 51.265625 
Q 22.5625 53.03125 25.640625 53.03125 
Q 30.078125 53.03125 34.671875 50.203125 
L 31.640625 42.046875 
Q 28.421875 43.953125 25.203125 43.953125 
Q 22.3125 43.953125 20.015625 42.21875 
Q 17.71875 40.484375 16.75 37.40625 
Q 15.28125 32.71875 15.28125 27.15625 
L 15.28125 0 
z
" id="ArialMT-72"/>
       <path d="M 3.078125 15.484375 
L 11.765625 16.84375 
Q 12.5 11.625 15.84375 8.84375 
Q 19.1875 6.0625 25.203125 6.0625 
Q 31.25 6.0625 34.171875 8.515625 
Q 37.109375 10.984375 37.109375 14.3125 
Q 37.109375 17.28125 34.515625 19 
Q 32.71875 20.171875 25.53125 21.96875 
Q 15.875 24.421875 12.140625 26.203125 
Q 8.40625 27.984375 6.46875 31.125 
Q 4.546875 34.28125 4.546875 38.09375 
Q 4.546875 41.546875 6.125 44.5 
Q 7.71875 47.46875 10.453125 49.421875 
Q 12.5 50.921875 16.03125 51.96875 
Q 19.578125 53.03125 23.640625 53.03125 
Q 29.734375 53.03125 34.34375 51.265625 
Q 38.96875 49.515625 41.15625 46.5 
Q 43.359375 43.5 44.1875 38.484375 
L 35.59375 37.3125 
Q 35.015625 41.3125 32.203125 43.546875 
Q 29.390625 45.796875 24.265625 45.796875 
Q 18.21875 45.796875 15.625 43.796875 
Q 13.03125 41.796875 13.03125 39.109375 
Q 13.03125 37.40625 14.109375 36.03125 
Q 15.1875 34.625 17.484375 33.6875 
Q 18.796875 33.203125 25.25 31.453125 
Q 34.578125 28.953125 38.25 27.359375 
Q 41.9375 25.78125 44.03125 22.75 
Q 46.140625 19.734375 46.140625 15.234375 
Q 46.140625 10.84375 43.578125 6.953125 
Q 41.015625 3.078125 36.171875 0.953125 
Q 31.34375 -1.171875 25.25 -1.171875 
Q 15.140625 -1.171875 9.84375 3.03125 
Q 4.546875 7.234375 3.078125 15.484375 
z
" id="ArialMT-73"/>
      </defs>
      <g style="fill:#262626;" transform="translate(643.649648 484.983906)scale(0.15 -0.15)">
       <use xlink:href="#ArialMT-32"/>
       <use x="55.615234" xlink:href="#ArialMT-20"/>
       <use x="83.382812" xlink:href="#ArialMT-59"/>
       <use x="149.941406" xlink:href="#ArialMT-65"/>
       <use x="205.556641" xlink:href="#ArialMT-61"/>
       <use x="261.171875" xlink:href="#ArialMT-72"/>
       <use x="294.472656" xlink:href="#ArialMT-73"/>
      </g>
     </g>
    </g>
    <g id="xtick_26">
     <g id="text_12">
      <!-- 25 -->
      <g style="fill:#262626;" transform="translate(714.875652 484.983906)scale(0.15 -0.15)">
       <use xlink:href="#ArialMT-32"/>
       <use x="55.615234" xlink:href="#ArialMT-35"/>
      </g>
     </g>
    </g>
    <g id="xtick_27">
     <g id="text_13">
      <!-- 26 -->
      <g style="fill:#262626;" transform="translate(770.400191 484.983906)scale(0.15 -0.15)">
       <use xlink:href="#ArialMT-32"/>
       <use x="55.615234" xlink:href="#ArialMT-36"/>
      </g>
     </g>
    </g>
    <g id="xtick_28">
     <g id="text_14">
      <!-- 27 -->
      <g style="fill:#262626;" transform="translate(825.924731 484.983906)scale(0.15 -0.15)">
       <use xlink:href="#ArialMT-32"/>
       <use x="55.615234" xlink:href="#ArialMT-37"/>
      </g>
     </g>
    </g>
    <g id="text_15">
     <!-- Age (Months) -->
     <defs>
      <path d="M -0.140625 0 
L 27.34375 71.578125 
L 37.546875 71.578125 
L 66.84375 0 
L 56.0625 0 
L 47.703125 21.6875 
L 17.78125 21.6875 
L 9.90625 0 
z
M 20.515625 29.390625 
L 44.78125 29.390625 
L 37.3125 49.21875 
Q 33.890625 58.25 32.234375 64.0625 
Q 30.859375 57.171875 28.375 50.390625 
z
" id="ArialMT-41"/>
      <path d="M 4.984375 -4.296875 
L 13.53125 -5.5625 
Q 14.0625 -9.515625 16.5 -11.328125 
Q 19.78125 -13.765625 25.4375 -13.765625 
Q 31.546875 -13.765625 34.859375 -11.328125 
Q 38.1875 -8.890625 39.359375 -4.5 
Q 40.046875 -1.8125 39.984375 6.78125 
Q 34.234375 0 25.640625 0 
Q 14.9375 0 9.078125 7.71875 
Q 3.21875 15.4375 3.21875 26.21875 
Q 3.21875 33.640625 5.90625 39.90625 
Q 8.59375 46.1875 13.6875 49.609375 
Q 18.796875 53.03125 25.6875 53.03125 
Q 34.859375 53.03125 40.828125 45.609375 
L 40.828125 51.859375 
L 48.921875 51.859375 
L 48.921875 7.03125 
Q 48.921875 -5.078125 46.453125 -10.125 
Q 44 -15.1875 38.640625 -18.109375 
Q 33.296875 -21.046875 25.484375 -21.046875 
Q 16.21875 -21.046875 10.5 -16.875 
Q 4.78125 -12.703125 4.984375 -4.296875 
z
M 12.25 26.859375 
Q 12.25 16.65625 16.296875 11.96875 
Q 20.359375 7.28125 26.46875 7.28125 
Q 32.515625 7.28125 36.609375 11.9375 
Q 40.71875 16.609375 40.71875 26.5625 
Q 40.71875 36.078125 36.5 40.90625 
Q 32.28125 45.75 26.3125 45.75 
Q 20.453125 45.75 16.34375 40.984375 
Q 12.25 36.234375 12.25 26.859375 
z
" id="ArialMT-67"/>
      <path d="M 23.390625 -21.046875 
Q 16.109375 -11.859375 11.078125 0.4375 
Q 6.0625 12.75 6.0625 25.921875 
Q 6.0625 37.546875 9.8125 48.1875 
Q 14.203125 60.546875 23.390625 72.796875 
L 29.6875 72.796875 
Q 23.78125 62.640625 21.875 58.296875 
Q 18.890625 51.5625 17.1875 44.234375 
Q 15.09375 35.109375 15.09375 25.875 
Q 15.09375 2.390625 29.6875 -21.046875 
z
" id="ArialMT-28"/>
      <path d="M 7.421875 0 
L 7.421875 71.578125 
L 21.6875 71.578125 
L 38.625 20.90625 
Q 40.96875 13.8125 42.046875 10.296875 
Q 43.265625 14.203125 45.84375 21.78125 
L 62.984375 71.578125 
L 75.734375 71.578125 
L 75.734375 0 
L 66.609375 0 
L 66.609375 59.90625 
L 45.796875 0 
L 37.25 0 
L 16.546875 60.9375 
L 16.546875 0 
z
" id="ArialMT-4d"/>
      <path d="M 3.328125 25.921875 
Q 3.328125 40.328125 11.328125 47.265625 
Q 18.015625 53.03125 27.640625 53.03125 
Q 38.328125 53.03125 45.109375 46.015625 
Q 51.90625 39.015625 51.90625 26.65625 
Q 51.90625 16.65625 48.90625 10.90625 
Q 45.90625 5.171875 40.15625 2 
Q 34.421875 -1.171875 27.640625 -1.171875 
Q 16.75 -1.171875 10.03125 5.8125 
Q 3.328125 12.796875 3.328125 25.921875 
z
M 12.359375 25.921875 
Q 12.359375 15.96875 16.703125 11.015625 
Q 21.046875 6.0625 27.640625 6.0625 
Q 34.1875 6.0625 38.53125 11.03125 
Q 42.875 16.015625 42.875 26.21875 
Q 42.875 35.84375 38.5 40.796875 
Q 34.125 45.75 27.640625 45.75 
Q 21.046875 45.75 16.703125 40.8125 
Q 12.359375 35.890625 12.359375 25.921875 
z
" id="ArialMT-6f"/>
      <path d="M 6.59375 0 
L 6.59375 51.859375 
L 14.5 51.859375 
L 14.5 44.484375 
Q 20.21875 53.03125 31 53.03125 
Q 35.6875 53.03125 39.625 51.34375 
Q 43.5625 49.65625 45.515625 46.921875 
Q 47.46875 44.1875 48.25 40.4375 
Q 48.734375 37.984375 48.734375 31.890625 
L 48.734375 0 
L 39.9375 0 
L 39.9375 31.546875 
Q 39.9375 36.921875 38.90625 39.578125 
Q 37.890625 42.234375 35.28125 43.8125 
Q 32.671875 45.40625 29.15625 45.40625 
Q 23.53125 45.40625 19.453125 41.84375 
Q 15.375 38.28125 15.375 28.328125 
L 15.375 0 
z
" id="ArialMT-6e"/>
      <path d="M 25.78125 7.859375 
L 27.046875 0.09375 
Q 23.34375 -0.6875 20.40625 -0.6875 
Q 15.625 -0.6875 12.984375 0.828125 
Q 10.359375 2.34375 9.28125 4.8125 
Q 8.203125 7.28125 8.203125 15.1875 
L 8.203125 45.015625 
L 1.765625 45.015625 
L 1.765625 51.859375 
L 8.203125 51.859375 
L 8.203125 64.703125 
L 16.9375 69.96875 
L 16.9375 51.859375 
L 25.78125 51.859375 
L 25.78125 45.015625 
L 16.9375 45.015625 
L 16.9375 14.703125 
Q 16.9375 10.9375 17.40625 9.859375 
Q 17.875 8.796875 18.921875 8.15625 
Q 19.96875 7.515625 21.921875 7.515625 
Q 23.390625 7.515625 25.78125 7.859375 
z
" id="ArialMT-74"/>
      <path d="M 6.59375 0 
L 6.59375 71.578125 
L 15.375 71.578125 
L 15.375 45.90625 
Q 21.53125 53.03125 30.90625 53.03125 
Q 36.671875 53.03125 40.921875 50.75 
Q 45.171875 48.484375 47 44.484375 
Q 48.828125 40.484375 48.828125 32.859375 
L 48.828125 0 
L 40.046875 0 
L 40.046875 32.859375 
Q 40.046875 39.453125 37.1875 42.453125 
Q 34.328125 45.453125 29.109375 45.453125 
Q 25.203125 45.453125 21.75 43.421875 
Q 18.3125 41.40625 16.84375 37.9375 
Q 15.375 34.46875 15.375 28.375 
L 15.375 0 
z
" id="ArialMT-68"/>
      <path d="M 12.359375 -21.046875 
L 6.0625 -21.046875 
Q 20.65625 2.390625 20.65625 25.875 
Q 20.65625 35.0625 18.5625 44.09375 
Q 16.890625 51.421875 13.921875 58.15625 
Q 12.015625 62.546875 6.0625 72.796875 
L 12.359375 72.796875 
Q 21.53125 60.546875 25.921875 48.1875 
Q 29.6875 37.546875 29.6875 25.921875 
Q 29.6875 12.75 24.625 0.4375 
Q 19.578125 -11.859375 12.359375 -21.046875 
z
" id="ArialMT-29"/>
     </defs>
     <g style="fill:#262626;" transform="translate(391.842948 506.524531)scale(0.2 -0.2)">
      <use xlink:href="#ArialMT-41"/>
      <use x="66.699219" xlink:href="#ArialMT-67"/>
      <use x="122.314453" xlink:href="#ArialMT-65"/>
      <use x="177.929688" xlink:href="#ArialMT-20"/>
      <use x="205.712891" xlink:href="#ArialMT-28"/>
      <use x="239.013672" xlink:href="#ArialMT-4d"/>
      <use x="322.314453" xlink:href="#ArialMT-6f"/>
      <use x="377.929688" xlink:href="#ArialMT-6e"/>
      <use x="433.544922" xlink:href="#ArialMT-74"/>
      <use x="461.328125" xlink:href="#ArialMT-68"/>
      <use x="516.943359" xlink:href="#ArialMT-73"/>
      <use x="566.943359" xlink:href="#ArialMT-29"/>
     </g>
    </g>
   </g>
   <g id="matplotlib.axis_2">
    <g id="ytick_1">
     <g id="line2d_15">
      <path clip-path="url(#pa90bdee2e0)" d="M 61.758594 448.851733 
L 841.967928 448.851733 
" style="fill:none;stroke:#cccccc;stroke-linecap:round;stroke-width:0.8;"/>
     </g>
     <g id="text_16">
      <!-- 0 -->
      <g style="fill:#262626;" transform="translate(46.417188 454.220092)scale(0.15 -0.15)">
       <use xlink:href="#ArialMT-30"/>
      </g>
     </g>
    </g>
    <g id="ytick_2">
     <g id="line2d_16">
      <path clip-path="url(#pa90bdee2e0)" d="M 61.758594 396.780237 
L 841.967928 396.780237 
" style="fill:none;stroke:#cccccc;stroke-linecap:round;stroke-width:0.8;"/>
     </g>
     <g id="text_17">
      <!-- 25 -->
      <g style="fill:#262626;" transform="translate(38.075781 402.148596)scale(0.15 -0.15)">
       <use xlink:href="#ArialMT-32"/>
       <use x="55.615234" xlink:href="#ArialMT-35"/>
      </g>
     </g>
    </g>
    <g id="ytick_3">
     <g id="line2d_17">
      <path clip-path="url(#pa90bdee2e0)" d="M 61.758594 344.708741 
L 841.967928 344.708741 
" style="fill:none;stroke:#cccccc;stroke-linecap:round;stroke-width:0.8;"/>
     </g>
     <g id="text_18">
      <!-- 50 -->
      <g style="fill:#262626;" transform="translate(38.075781 350.0771)scale(0.15 -0.15)">
       <use xlink:href="#ArialMT-35"/>
       <use x="55.615234" xlink:href="#ArialMT-30"/>
      </g>
     </g>
    </g>
    <g id="ytick_4">
     <g id="line2d_18">
      <path clip-path="url(#pa90bdee2e0)" d="M 61.758594 292.637244 
L 841.967928 292.637244 
" style="fill:none;stroke:#cccccc;stroke-linecap:round;stroke-width:0.8;"/>
     </g>
     <g id="text_19">
      <!-- 75 -->
      <g style="fill:#262626;" transform="translate(38.075781 298.005604)scale(0.15 -0.15)">
       <use xlink:href="#ArialMT-37"/>
       <use x="55.615234" xlink:href="#ArialMT-35"/>
      </g>
     </g>
    </g>
    <g id="ytick_5">
     <g id="line2d_19">
      <path clip-path="url(#pa90bdee2e0)" d="M 61.758594 240.565748 
L 841.967928 240.565748 
" style="fill:none;stroke:#cccccc;stroke-linecap:round;stroke-width:0.8;"/>
     </g>
     <g id="text_20">
      <!-- 100 -->
      <g style="fill:#262626;" transform="translate(29.734375 245.934107)scale(0.15 -0.15)">
       <use xlink:href="#ArialMT-31"/>
       <use x="55.615234" xlink:href="#ArialMT-30"/>
       <use x="111.230469" xlink:href="#ArialMT-30"/>
      </g>
     </g>
    </g>
    <g id="ytick_6">
     <g id="line2d_20">
      <path clip-path="url(#pa90bdee2e0)" d="M 61.758594 188.494252 
L 841.967928 188.494252 
" style="fill:none;stroke:#cccccc;stroke-linecap:round;stroke-width:0.8;"/>
     </g>
     <g id="text_21">
      <!-- 125 -->
      <g style="fill:#262626;" transform="translate(29.734375 193.862611)scale(0.15 -0.15)">
       <use xlink:href="#ArialMT-31"/>
       <use x="55.615234" xlink:href="#ArialMT-32"/>
       <use x="111.230469" xlink:href="#ArialMT-35"/>
      </g>
     </g>
    </g>
    <g id="ytick_7">
     <g id="line2d_21">
      <path clip-path="url(#pa90bdee2e0)" d="M 61.758594 136.422756 
L 841.967928 136.422756 
" style="fill:none;stroke:#cccccc;stroke-linecap:round;stroke-width:0.8;"/>
     </g>
     <g id="text_22">
      <!-- 150 -->
      <g style="fill:#262626;" transform="translate(29.734375 141.791115)scale(0.15 -0.15)">
       <use xlink:href="#ArialMT-31"/>
       <use x="55.615234" xlink:href="#ArialMT-35"/>
       <use x="111.230469" xlink:href="#ArialMT-30"/>
      </g>
     </g>
    </g>
    <g id="ytick_8">
     <g id="line2d_22">
      <path clip-path="url(#pa90bdee2e0)" d="M 61.758594 84.351259 
L 841.967928 84.351259 
" style="fill:none;stroke:#cccccc;stroke-linecap:round;stroke-width:0.8;"/>
     </g>
     <g id="text_23">
      <!-- 175 -->
      <g style="fill:#262626;" transform="translate(29.734375 89.719619)scale(0.15 -0.15)">
       <use xlink:href="#ArialMT-31"/>
       <use x="55.615234" xlink:href="#ArialMT-37"/>
       <use x="111.230469" xlink:href="#ArialMT-35"/>
      </g>
     </g>
    </g>
    <g id="ytick_9">
     <g id="line2d_23">
      <path clip-path="url(#pa90bdee2e0)" d="M 61.758594 32.279763 
L 841.967928 32.279763 
" style="fill:none;stroke:#cccccc;stroke-linecap:round;stroke-width:0.8;"/>
     </g>
     <g id="text_24">
      <!-- 200 -->
      <g style="fill:#262626;" transform="translate(29.734375 37.648123)scale(0.15 -0.15)">
       <use xlink:href="#ArialMT-32"/>
       <use x="55.615234" xlink:href="#ArialMT-30"/>
       <use x="111.230469" xlink:href="#ArialMT-30"/>
      </g>
     </g>
    </g>
    <g id="text_25">
     <!-- Words Spoken -->
     <defs>
      <path d="M 20.21875 0 
L 1.21875 71.578125 
L 10.9375 71.578125 
L 21.828125 24.65625 
Q 23.578125 17.28125 24.859375 10.015625 
Q 27.59375 21.484375 28.078125 23.25 
L 41.703125 71.578125 
L 53.125 71.578125 
L 63.375 35.359375 
Q 67.234375 21.875 68.953125 10.015625 
Q 70.3125 16.796875 72.515625 25.59375 
L 83.734375 71.578125 
L 93.265625 71.578125 
L 73.640625 0 
L 64.5 0 
L 49.421875 54.546875 
Q 47.515625 61.375 47.171875 62.9375 
Q 46.046875 58.015625 45.0625 54.546875 
L 29.890625 0 
z
" id="ArialMT-57"/>
      <path d="M 40.234375 0 
L 40.234375 6.546875 
Q 35.296875 -1.171875 25.734375 -1.171875 
Q 19.53125 -1.171875 14.328125 2.25 
Q 9.125 5.671875 6.265625 11.796875 
Q 3.421875 17.921875 3.421875 25.875 
Q 3.421875 33.640625 6 39.96875 
Q 8.59375 46.296875 13.765625 49.65625 
Q 18.953125 53.03125 25.34375 53.03125 
Q 30.03125 53.03125 33.6875 51.046875 
Q 37.359375 49.078125 39.65625 45.90625 
L 39.65625 71.578125 
L 48.390625 71.578125 
L 48.390625 0 
z
M 12.453125 25.875 
Q 12.453125 15.921875 16.640625 10.984375 
Q 20.84375 6.0625 26.5625 6.0625 
Q 32.328125 6.0625 36.34375 10.765625 
Q 40.375 15.484375 40.375 25.140625 
Q 40.375 35.796875 36.265625 40.765625 
Q 32.171875 45.75 26.171875 45.75 
Q 20.3125 45.75 16.375 40.96875 
Q 12.453125 36.1875 12.453125 25.875 
z
" id="ArialMT-64"/>
      <path d="M 4.5 23 
L 13.421875 23.78125 
Q 14.0625 18.40625 16.375 14.96875 
Q 18.703125 11.53125 23.578125 9.40625 
Q 28.46875 7.28125 34.578125 7.28125 
Q 39.984375 7.28125 44.140625 8.890625 
Q 48.296875 10.5 50.3125 13.296875 
Q 52.34375 16.109375 52.34375 19.4375 
Q 52.34375 22.796875 50.390625 25.3125 
Q 48.4375 27.828125 43.953125 29.546875 
Q 41.0625 30.671875 31.203125 33.03125 
Q 21.34375 35.40625 17.390625 37.5 
Q 12.25 40.1875 9.734375 44.15625 
Q 7.234375 48.140625 7.234375 53.078125 
Q 7.234375 58.5 10.296875 63.203125 
Q 13.375 67.921875 19.28125 70.359375 
Q 25.203125 72.796875 32.421875 72.796875 
Q 40.375 72.796875 46.453125 70.234375 
Q 52.546875 67.671875 55.8125 62.6875 
Q 59.078125 57.71875 59.328125 51.421875 
L 50.25 50.734375 
Q 49.515625 57.515625 45.28125 60.984375 
Q 41.0625 64.453125 32.8125 64.453125 
Q 24.21875 64.453125 20.28125 61.296875 
Q 16.359375 58.15625 16.359375 53.71875 
Q 16.359375 49.859375 19.140625 47.359375 
Q 21.875 44.875 33.421875 42.265625 
Q 44.96875 39.65625 49.265625 37.703125 
Q 55.515625 34.8125 58.484375 30.390625 
Q 61.46875 25.984375 61.46875 20.21875 
Q 61.46875 14.5 58.203125 9.4375 
Q 54.9375 4.390625 48.796875 1.578125 
Q 42.671875 -1.21875 35.015625 -1.21875 
Q 25.296875 -1.21875 18.71875 1.609375 
Q 12.15625 4.4375 8.421875 10.125 
Q 4.6875 15.828125 4.5 23 
z
" id="ArialMT-53"/>
      <path d="M 6.59375 -19.875 
L 6.59375 51.859375 
L 14.59375 51.859375 
L 14.59375 45.125 
Q 17.4375 49.078125 21 51.046875 
Q 24.5625 53.03125 29.640625 53.03125 
Q 36.28125 53.03125 41.359375 49.609375 
Q 46.4375 46.1875 49.015625 39.953125 
Q 51.609375 33.734375 51.609375 26.3125 
Q 51.609375 18.359375 48.75 11.984375 
Q 45.90625 5.609375 40.453125 2.21875 
Q 35.015625 -1.171875 29 -1.171875 
Q 24.609375 -1.171875 21.109375 0.6875 
Q 17.625 2.546875 15.375 5.375 
L 15.375 -19.875 
z
M 14.546875 25.640625 
Q 14.546875 15.625 18.59375 10.84375 
Q 22.65625 6.0625 28.421875 6.0625 
Q 34.28125 6.0625 38.453125 11.015625 
Q 42.625 15.96875 42.625 26.375 
Q 42.625 36.28125 38.546875 41.203125 
Q 34.46875 46.140625 28.8125 46.140625 
Q 23.1875 46.140625 18.859375 40.890625 
Q 14.546875 35.640625 14.546875 25.640625 
z
" id="ArialMT-70"/>
      <path d="M 6.640625 0 
L 6.640625 71.578125 
L 15.4375 71.578125 
L 15.4375 30.765625 
L 36.234375 51.859375 
L 47.609375 51.859375 
L 27.78125 32.625 
L 49.609375 0 
L 38.765625 0 
L 21.625 26.515625 
L 15.4375 20.5625 
L 15.4375 0 
z
" id="ArialMT-6b"/>
     </defs>
     <g style="fill:#262626;" transform="translate(21.759375 314.478437)rotate(-90)scale(0.2 -0.2)">
      <use xlink:href="#ArialMT-57"/>
      <use x="94.369141" xlink:href="#ArialMT-6f"/>
      <use x="149.984375" xlink:href="#ArialMT-72"/>
      <use x="183.285156" xlink:href="#ArialMT-64"/>
      <use x="238.900391" xlink:href="#ArialMT-73"/>
      <use x="288.900391" xlink:href="#ArialMT-20"/>
      <use x="316.683594" xlink:href="#ArialMT-53"/>
      <use x="383.382812" xlink:href="#ArialMT-70"/>
      <use x="438.998047" xlink:href="#ArialMT-6f"/>
      <use x="494.613281" xlink:href="#ArialMT-6b"/>
      <use x="544.613281" xlink:href="#ArialMT-65"/>
      <use x="600.228516" xlink:href="#ArialMT-6e"/>
     </g>
    </g>
   </g>
   <g id="line2d_24">
    <path clip-path="url(#pa90bdee2e0)" d="M 111.551568 448.851733 
L 111.551568 446.768873 
L 170.658336 446.768873 
L 170.658336 444.686013 
L 213.645076 444.686013 
L 213.645076 442.603153 
L 301.40967 442.603153 
L 301.40967 438.437434 
L 356.93421 438.437434 
L 356.93421 436.354574 
L 362.307552 436.354574 
L 362.307552 434.271714 
L 371.263123 434.271714 
L 371.263123 432.188854 
L 385.592036 432.188854 
L 385.592036 430.105994 
L 408.876521 430.105994 
L 408.876521 428.023134 
L 419.623206 428.023134 
L 419.623206 425.940275 
L 430.369891 425.940275 
L 430.369891 423.857415 
L 457.236603 423.857415 
L 457.236603 421.774555 
L 482.312202 421.774555 
L 482.312202 419.691695 
L 484.103316 419.691695 
L 484.103316 417.608835 
L 494.850001 417.608835 
L 494.850001 415.525975 
L 505.596686 415.525975 
L 505.596686 413.443116 
L 507.3878 413.443116 
L 507.3878 411.360256 
L 509.178914 411.360256 
L 509.178914 409.277396 
L 512.761143 409.277396 
L 512.761143 407.194536 
L 518.134485 407.194536 
L 518.134485 405.111676 
L 519.925599 405.111676 
L 519.925599 403.028816 
L 523.507828 403.028816 
L 523.507828 400.945956 
L 539.627855 400.945956 
L 539.627855 398.863097 
L 564.703454 398.863097 
L 564.703454 396.780237 
L 570.076796 396.780237 
L 570.076796 394.697377 
L 600.525737 394.697377 
L 600.525737 392.614517 
L 604.107966 392.614517 
L 604.107966 390.531657 
L 605.89908 390.531657 
L 605.89908 386.365937 
L 611.272422 386.365937 
L 611.272422 384.283078 
L 616.645765 384.283078 
L 616.645765 382.200218 
L 618.436879 382.200218 
L 618.436879 380.117358 
L 622.019107 380.117358 
L 622.019107 378.034498 
L 625.601336 378.034498 
L 625.601336 375.951638 
L 627.39245 375.951638 
L 627.39245 373.868778 
L 629.183564 373.868778 
L 629.183564 369.703059 
L 630.974678 369.703059 
L 630.974678 359.288759 
L 636.348021 359.288759 
L 636.348021 357.2059 
L 638.139135 357.2059 
L 638.139135 353.04018 
L 641.721363 353.04018 
L 641.721363 350.95732 
L 647.094706 350.95732 
L 647.094706 342.625881 
L 648.88582 342.625881 
L 648.88582 338.460161 
L 650.676934 338.460161 
L 650.676934 323.880142 
L 652.468048 323.880142 
L 652.468048 319.714422 
L 654.259162 319.714422 
L 654.259162 315.548703 
L 656.050277 315.548703 
L 656.050277 311.382983 
L 657.841391 311.382983 
L 657.841391 307.217263 
L 659.632505 307.217263 
L 659.632505 303.051544 
L 668.588076 303.051544 
L 668.588076 296.802964 
L 670.37919 296.802964 
L 670.37919 290.554384 
L 672.170304 290.554384 
L 672.170304 288.471525 
L 673.961418 288.471525 
L 673.961418 286.388665 
L 675.752532 286.388665 
L 675.752532 282.222945 
L 681.125875 282.222945 
L 681.125875 275.974366 
L 684.708103 275.974366 
L 684.708103 273.891506 
L 686.499217 273.891506 
L 686.499217 271.808646 
L 688.290332 271.808646 
L 688.290332 269.725786 
L 690.081446 269.725786 
L 690.081446 267.642926 
L 691.87256 267.642926 
L 691.87256 259.311487 
L 693.663674 259.311487 
L 693.663674 248.897187 
L 702.619245 248.897187 
L 702.619245 242.648608 
L 704.410359 242.648608 
L 704.410359 238.482888 
L 713.36593 238.482888 
L 713.36593 225.985729 
L 716.948158 225.985729 
L 716.948158 219.73715 
L 718.739273 219.73715 
L 718.739273 213.48857 
L 720.530387 213.48857 
L 720.530387 207.239991 
L 722.321501 207.239991 
L 722.321501 200.991411 
L 725.903729 200.991411 
L 725.903729 196.825691 
L 727.694843 196.825691 
L 727.694843 192.659972 
L 729.485958 192.659972 
L 729.485958 190.577112 
L 731.277072 190.577112 
L 731.277072 178.079953 
L 734.8593 178.079953 
L 734.8593 175.997093 
L 736.650414 175.997093 
L 736.650414 171.831373 
L 738.441529 171.831373 
L 738.441529 169.748513 
L 740.232643 169.748513 
L 740.232643 161.417074 
L 742.023757 161.417074 
L 742.023757 153.085634 
L 743.814871 153.085634 
L 743.814871 151.002775 
L 747.397099 151.002775 
L 747.397099 142.671335 
L 749.188214 142.671335 
L 749.188214 140.588475 
L 750.979328 140.588475 
L 750.979328 126.008456 
L 752.770442 126.008456 
L 752.770442 123.925597 
L 754.561556 123.925597 
L 754.561556 119.759877 
L 756.35267 119.759877 
L 756.35267 109.345578 
L 758.143784 109.345578 
L 758.143784 107.262718 
L 759.934899 107.262718 
L 759.934899 92.682699 
L 763.517127 92.682699 
L 763.517127 90.599839 
L 767.099355 90.599839 
L 767.099355 86.434119 
L 768.890469 86.434119 
L 768.890469 82.2684 
L 770.681584 82.2684 
L 770.681584 78.10268 
L 772.472698 78.10268 
L 772.472698 76.01982 
L 774.263812 76.01982 
L 774.263812 69.771241 
L 776.054926 69.771241 
L 776.054926 65.605521 
L 777.84604 65.605521 
L 777.84604 59.356941 
L 779.637155 59.356941 
L 779.637155 57.274081 
L 783.219383 57.274081 
L 783.219383 55.191222 
L 785.010497 55.191222 
L 785.010497 48.942642 
L 788.592725 48.942642 
L 788.592725 48.942642 
" style="fill:none;stroke:#1f77b4;stroke-linecap:round;stroke-width:2.5;"/>
   </g>
   <g id="line2d_25">
    <path clip-path="url(#pa90bdee2e0)" d="M 111.551568 448.851733 
L 301.40967 448.851733 
L 301.40967 446.768873 
L 346.187525 446.768873 
L 346.187525 444.686013 
L 349.769753 444.686013 
L 349.769753 442.603153 
L 382.009808 442.603153 
L 382.009808 440.520294 
L 390.965379 440.520294 
L 390.965379 438.437434 
L 419.623206 438.437434 
L 419.623206 436.354574 
L 423.205434 436.354574 
L 423.205434 434.271714 
L 430.369891 434.271714 
L 430.369891 432.188854 
L 441.116576 432.188854 
L 441.116576 430.105994 
L 444.698804 430.105994 
L 444.698804 428.023134 
L 446.489918 428.023134 
L 446.489918 425.940275 
L 460.818832 425.940275 
L 460.818832 423.857415 
L 541.418969 423.857415 
L 541.418969 421.774555 
L 550.37454 421.774555 
L 550.37454 417.608835 
L 553.956769 417.608835 
L 553.956769 415.525975 
L 555.747883 415.525975 
L 555.747883 413.443116 
L 557.538997 413.443116 
L 557.538997 411.360256 
L 562.91234 411.360256 
L 562.91234 409.277396 
L 595.152395 409.277396 
L 595.152395 405.111676 
L 596.943509 405.111676 
L 596.943509 403.028816 
L 600.525737 403.028816 
L 600.525737 400.945956 
L 602.316851 400.945956 
L 602.316851 398.863097 
L 611.272422 398.863097 
L 611.272422 394.697377 
L 613.063536 394.697377 
L 613.063536 388.448797 
L 618.436879 388.448797 
L 618.436879 386.365937 
L 630.974678 386.365937 
L 630.974678 384.283078 
L 632.765792 384.283078 
L 632.765792 378.034498 
L 652.468048 378.034498 
L 652.468048 375.951638 
L 657.841391 375.951638 
L 657.841391 373.868778 
L 659.632505 373.868778 
L 659.632505 371.785919 
L 670.37919 371.785919 
L 670.37919 367.620199 
L 673.961418 367.620199 
L 673.961418 365.537339 
L 675.752532 365.537339 
L 675.752532 363.454479 
L 682.916989 363.454479 
L 682.916989 361.371619 
L 688.290332 361.371619 
L 688.290332 359.288759 
L 702.619245 359.288759 
L 702.619245 355.12304 
L 706.201473 355.12304 
L 706.201473 353.04018 
L 707.992588 353.04018 
L 707.992588 348.87446 
L 709.783702 348.87446 
L 709.783702 346.7916 
L 711.574816 346.7916 
L 711.574816 344.708741 
L 713.36593 344.708741 
L 713.36593 342.625881 
L 718.739273 342.625881 
L 718.739273 336.377301 
L 720.530387 336.377301 
L 720.530387 334.294441 
L 724.112615 334.294441 
L 724.112615 332.211581 
L 725.903729 332.211581 
L 725.903729 330.128722 
L 731.277072 330.128722 
L 731.277072 323.880142 
L 733.068186 323.880142 
L 733.068186 319.714422 
L 736.650414 319.714422 
L 736.650414 315.548703 
L 738.441529 315.548703 
L 738.441529 309.300123 
L 740.232643 309.300123 
L 740.232643 300.968684 
L 742.023757 300.968684 
L 742.023757 296.802964 
L 743.814871 296.802964 
L 743.814871 294.720104 
L 745.605985 294.720104 
L 745.605985 292.637244 
L 747.397099 292.637244 
L 747.397099 284.305805 
L 749.188214 284.305805 
L 749.188214 282.222945 
L 750.979328 282.222945 
L 750.979328 273.891506 
L 752.770442 273.891506 
L 752.770442 269.725786 
L 754.561556 269.725786 
L 754.561556 267.642926 
L 758.143784 267.642926 
L 758.143784 263.477206 
L 759.934899 263.477206 
L 759.934899 257.228627 
L 761.726013 257.228627 
L 761.726013 250.980047 
L 763.517127 250.980047 
L 763.517127 246.814328 
L 765.308241 246.814328 
L 765.308241 244.731468 
L 767.099355 244.731468 
L 767.099355 240.565748 
L 774.263812 240.565748 
L 774.263812 238.482888 
L 777.84604 238.482888 
L 777.84604 236.400028 
L 779.637155 236.400028 
L 779.637155 234.317169 
L 781.428269 234.317169 
L 781.428269 230.151449 
L 783.219383 230.151449 
L 783.219383 225.985729 
L 785.010497 225.985729 
L 785.010497 219.73715 
L 786.801611 219.73715 
L 786.801611 215.57143 
L 788.592725 215.57143 
L 788.592725 215.57143 
" style="fill:none;stroke:#ff7f0e;stroke-linecap:round;stroke-width:2.5;"/>
   </g>
   <g id="line2d_26">
    <path clip-path="url(#pa90bdee2e0)" d="M 111.551568 448.851733 
L 362.307552 448.851733 
L 362.307552 446.768873 
L 453.654375 446.768873 
L 453.654375 444.686013 
L 650.676934 444.686013 
L 650.676934 442.603153 
L 652.468048 442.603153 
L 652.468048 440.520294 
L 659.632505 440.520294 
L 659.632505 436.354574 
L 663.214733 436.354574 
L 663.214733 434.271714 
L 665.005847 434.271714 
L 665.005847 432.188854 
L 668.588076 432.188854 
L 668.588076 430.105994 
L 684.708103 430.105994 
L 684.708103 428.023134 
L 686.499217 428.023134 
L 686.499217 425.940275 
L 722.321501 425.940275 
L 722.321501 423.857415 
L 731.277072 423.857415 
L 731.277072 421.774555 
L 788.592725 421.774555 
L 788.592725 421.774555 
" style="fill:none;stroke:#2ca02c;stroke-linecap:round;stroke-width:2.5;"/>
   </g>
   <g id="line2d_27">
    <path clip-path="url(#pa90bdee2e0)" d="M 111.551568 448.851733 
L 115.133796 448.851733 
L 115.133796 446.768873 
L 143.791623 446.768873 
L 143.791623 444.686013 
L 158.120536 444.686013 
L 158.120536 442.603153 
L 159.91165 442.603153 
L 159.91165 440.520294 
L 170.658336 440.520294 
L 170.658336 438.437434 
L 276.334072 438.437434 
L 276.334072 436.354574 
L 285.289643 436.354574 
L 285.289643 434.271714 
L 297.827442 434.271714 
L 297.827442 432.188854 
L 301.40967 432.188854 
L 301.40967 419.691695 
L 317.529698 419.691695 
L 317.529698 417.608835 
L 321.111926 417.608835 
L 321.111926 415.525975 
L 340.814182 415.525975 
L 340.814182 411.360256 
L 346.187525 411.360256 
L 346.187525 409.277396 
L 355.143095 409.277396 
L 355.143095 407.194536 
L 358.725324 407.194536 
L 358.725324 403.028816 
L 365.88978 403.028816 
L 365.88978 400.945956 
L 383.800922 400.945956 
L 383.800922 398.863097 
L 387.383151 398.863097 
L 387.383151 396.780237 
L 389.174265 396.780237 
L 389.174265 394.697377 
L 398.129836 394.697377 
L 398.129836 392.614517 
L 442.90769 392.614517 
L 442.90769 388.448797 
L 446.489918 388.448797 
L 446.489918 386.365937 
L 467.983288 386.365937 
L 467.983288 382.200218 
L 500.223343 382.200218 
L 500.223343 380.117358 
L 528.88117 380.117358 
L 528.88117 378.034498 
L 546.792312 378.034498 
L 546.792312 375.951638 
L 561.121225 375.951638 
L 561.121225 373.868778 
L 607.690194 373.868778 
L 607.690194 371.785919 
L 632.765792 371.785919 
L 632.765792 369.703059 
L 641.721363 369.703059 
L 641.721363 367.620199 
L 693.663674 367.620199 
L 693.663674 365.537339 
L 718.739273 365.537339 
L 718.739273 363.454479 
L 750.979328 363.454479 
L 750.979328 361.371619 
L 788.592725 361.371619 
L 788.592725 361.371619 
" style="fill:none;stroke:#d62728;stroke-linecap:round;stroke-width:2.5;"/>
   </g>
   <g id="line2d_28">
    <path clip-path="url(#pa90bdee2e0)" d="M 111.551568 448.851733 
L 301.40967 448.851733 
L 301.40967 446.768873 
L 385.592036 446.768873 
L 385.592036 444.686013 
L 407.085406 444.686013 
L 407.085406 442.603153 
L 412.458749 442.603153 
L 412.458749 440.520294 
L 414.249863 440.520294 
L 414.249863 438.437434 
L 419.623206 438.437434 
L 419.623206 436.354574 
L 475.147745 436.354574 
L 475.147745 434.271714 
L 496.641115 434.271714 
L 496.641115 432.188854 
L 570.076796 432.188854 
L 570.076796 430.105994 
L 586.196824 430.105994 
L 586.196824 428.023134 
L 627.39245 428.023134 
L 627.39245 425.940275 
L 788.592725 425.940275 
L 788.592725 425.940275 
" style="fill:none;stroke:#9467bd;stroke-linecap:round;stroke-width:2.5;"/>
   </g>
   <g id="patch_10">
    <path d="M 61.758594 468.847187 
L 61.758594 28.947187 
" style="fill:none;stroke:#262626;stroke-linecap:square;stroke-linejoin:miter;stroke-width:0.8;"/>
   </g>
   <g id="patch_11">
    <path d="M 841.967928 468.847187 
L 841.967928 28.947187 
" style="fill:none;stroke:#262626;stroke-linecap:square;stroke-linejoin:miter;stroke-width:0.8;"/>
   </g>
   <g id="patch_12">
    <path d="M 61.758594 468.847187 
L 841.967928 468.847187 
" style="fill:none;stroke:#262626;stroke-linecap:square;stroke-linejoin:miter;stroke-width:0.8;"/>
   </g>
   <g id="patch_13">
    <path d="M 61.758594 28.947187 
L 841.967928 28.947187 
" style="fill:none;stroke:#262626;stroke-linecap:square;stroke-linejoin:miter;stroke-width:0.8;"/>
   </g>
   <g id="text_26">
    <!-- Theodore's Words -->
    <defs>
     <path d="M 25.921875 0 
L 25.921875 63.140625 
L 2.34375 63.140625 
L 2.34375 71.578125 
L 59.078125 71.578125 
L 59.078125 63.140625 
L 35.40625 63.140625 
L 35.40625 0 
z
" id="ArialMT-54"/>
     <path d="M 6.640625 46.234375 
L 4.390625 59.625 
L 4.390625 71.578125 
L 14.40625 71.578125 
L 14.40625 59.625 
L 12.0625 46.234375 
z
" id="ArialMT-27"/>
    </defs>
    <g style="fill:#262626;" transform="translate(362.345605 22.947187)scale(0.22 -0.22)">
     <use xlink:href="#ArialMT-54"/>
     <use x="61.083984" xlink:href="#ArialMT-68"/>
     <use x="116.699219" xlink:href="#ArialMT-65"/>
     <use x="172.314453" xlink:href="#ArialMT-6f"/>
     <use x="227.929688" xlink:href="#ArialMT-64"/>
     <use x="283.544922" xlink:href="#ArialMT-6f"/>
     <use x="339.160156" xlink:href="#ArialMT-72"/>
     <use x="372.460938" xlink:href="#ArialMT-65"/>
     <use x="428.076172" xlink:href="#ArialMT-27"/>
     <use x="447.167969" xlink:href="#ArialMT-73"/>
     <use x="497.167969" xlink:href="#ArialMT-20"/>
     <use x="524.951172" xlink:href="#ArialMT-57"/>
     <use x="619.320312" xlink:href="#ArialMT-6f"/>
     <use x="674.935547" xlink:href="#ArialMT-72"/>
     <use x="708.236328" xlink:href="#ArialMT-64"/>
     <use x="763.851562" xlink:href="#ArialMT-73"/>
    </g>
   </g>
   <g id="legend_1">
    <g id="patch_14">
     <path d="M 74.358594 171.515625 
L 193.622656 171.515625 
Q 197.222656 171.515625 197.222656 167.915625 
L 197.222656 41.547187 
Q 197.222656 37.947187 193.622656 37.947187 
L 74.358594 37.947187 
Q 70.758594 37.947187 70.758594 41.547187 
L 70.758594 167.915625 
Q 70.758594 171.515625 74.358594 171.515625 
z
" style="fill:#ffffff;stroke:#000000;stroke-linejoin:miter;"/>
    </g>
    <g id="text_27">
     <!-- Chinese -->
     <defs>
      <path d="M 58.796875 25.09375 
L 68.265625 22.703125 
Q 65.28125 11.03125 57.546875 4.90625 
Q 49.8125 -1.21875 38.625 -1.21875 
Q 27.046875 -1.21875 19.796875 3.484375 
Q 12.546875 8.203125 8.765625 17.140625 
Q 4.984375 26.078125 4.984375 36.328125 
Q 4.984375 47.515625 9.25 55.828125 
Q 13.53125 64.15625 21.40625 68.46875 
Q 29.296875 72.796875 38.765625 72.796875 
Q 49.515625 72.796875 56.828125 67.328125 
Q 64.15625 61.859375 67.046875 51.953125 
L 57.71875 49.75 
Q 55.21875 57.5625 50.484375 61.125 
Q 45.75 64.703125 38.578125 64.703125 
Q 30.328125 64.703125 24.78125 60.734375 
Q 19.234375 56.78125 16.984375 50.109375 
Q 14.75 43.453125 14.75 36.375 
Q 14.75 27.25 17.40625 20.4375 
Q 20.0625 13.625 25.671875 10.25 
Q 31.296875 6.890625 37.84375 6.890625 
Q 45.796875 6.890625 51.3125 11.46875 
Q 56.84375 16.0625 58.796875 25.09375 
z
" id="ArialMT-43"/>
      <path d="M 6.640625 61.46875 
L 6.640625 71.578125 
L 15.4375 71.578125 
L 15.4375 61.46875 
z
M 6.640625 0 
L 6.640625 51.859375 
L 15.4375 51.859375 
L 15.4375 0 
z
" id="ArialMT-69"/>
     </defs>
     <g style="fill:#1f77b4;" transform="translate(77.958594 58.03125)scale(0.18 -0.18)">
      <use xlink:href="#ArialMT-43"/>
      <use x="72.216797" xlink:href="#ArialMT-68"/>
      <use x="127.832031" xlink:href="#ArialMT-69"/>
      <use x="150.048828" xlink:href="#ArialMT-6e"/>
      <use x="205.664062" xlink:href="#ArialMT-65"/>
      <use x="261.279297" xlink:href="#ArialMT-73"/>
      <use x="311.279297" xlink:href="#ArialMT-65"/>
     </g>
    </g>
    <g id="text_28">
     <!-- English -->
     <defs>
      <path d="M 7.90625 0 
L 7.90625 71.578125 
L 59.671875 71.578125 
L 59.671875 63.140625 
L 17.390625 63.140625 
L 17.390625 41.21875 
L 56.984375 41.21875 
L 56.984375 32.8125 
L 17.390625 32.8125 
L 17.390625 8.453125 
L 61.328125 8.453125 
L 61.328125 0 
z
" id="ArialMT-45"/>
      <path d="M 6.390625 0 
L 6.390625 71.578125 
L 15.1875 71.578125 
L 15.1875 0 
z
" id="ArialMT-6c"/>
     </defs>
     <g style="fill:#ff7f0e;" transform="translate(77.958594 83.492812)scale(0.18 -0.18)">
      <use xlink:href="#ArialMT-45"/>
      <use x="66.699219" xlink:href="#ArialMT-6e"/>
      <use x="122.314453" xlink:href="#ArialMT-67"/>
      <use x="177.929688" xlink:href="#ArialMT-6c"/>
      <use x="200.146484" xlink:href="#ArialMT-69"/>
      <use x="222.363281" xlink:href="#ArialMT-73"/>
      <use x="272.363281" xlink:href="#ArialMT-68"/>
     </g>
    </g>
    <g id="text_29">
     <!-- Spanish -->
     <g style="fill:#2ca02c;" transform="translate(77.958594 109.384687)scale(0.18 -0.18)">
      <use xlink:href="#ArialMT-53"/>
      <use x="66.699219" xlink:href="#ArialMT-70"/>
      <use x="122.314453" xlink:href="#ArialMT-61"/>
      <use x="177.929688" xlink:href="#ArialMT-6e"/>
      <use x="233.544922" xlink:href="#ArialMT-69"/>
      <use x="255.761719" xlink:href="#ArialMT-73"/>
      <use x="305.761719" xlink:href="#ArialMT-68"/>
     </g>
    </g>
    <g id="text_30">
     <!-- Sign -->
     <g style="fill:#d62728;" transform="translate(77.958594 135.065625)scale(0.18 -0.18)">
      <use xlink:href="#ArialMT-53"/>
      <use x="66.699219" xlink:href="#ArialMT-69"/>
      <use x="88.916016" xlink:href="#ArialMT-67"/>
      <use x="144.53125" xlink:href="#ArialMT-6e"/>
     </g>
    </g>
    <g id="text_31">
     <!-- Animal Sound -->
     <defs>
      <path d="M 6.59375 0 
L 6.59375 51.859375 
L 14.453125 51.859375 
L 14.453125 44.578125 
Q 16.890625 48.390625 20.9375 50.703125 
Q 25 53.03125 30.171875 53.03125 
Q 35.9375 53.03125 39.625 50.640625 
Q 43.3125 48.25 44.828125 43.953125 
Q 50.984375 53.03125 60.84375 53.03125 
Q 68.5625 53.03125 72.703125 48.75 
Q 76.859375 44.484375 76.859375 35.59375 
L 76.859375 0 
L 68.109375 0 
L 68.109375 32.671875 
Q 68.109375 37.9375 67.25 40.25 
Q 66.40625 42.578125 64.15625 43.984375 
Q 61.921875 45.40625 58.890625 45.40625 
Q 53.421875 45.40625 49.796875 41.765625 
Q 46.1875 38.140625 46.1875 30.125 
L 46.1875 0 
L 37.40625 0 
L 37.40625 33.6875 
Q 37.40625 39.546875 35.25 42.46875 
Q 33.109375 45.40625 28.21875 45.40625 
Q 24.515625 45.40625 21.359375 43.453125 
Q 18.21875 41.5 16.796875 37.734375 
Q 15.375 33.984375 15.375 26.90625 
L 15.375 0 
z
" id="ArialMT-6d"/>
      <path d="M 40.578125 0 
L 40.578125 7.625 
Q 34.515625 -1.171875 24.125 -1.171875 
Q 19.53125 -1.171875 15.546875 0.578125 
Q 11.578125 2.34375 9.640625 5 
Q 7.71875 7.671875 6.9375 11.53125 
Q 6.390625 14.109375 6.390625 19.734375 
L 6.390625 51.859375 
L 15.1875 51.859375 
L 15.1875 23.09375 
Q 15.1875 16.21875 15.71875 13.8125 
Q 16.546875 10.359375 19.234375 8.375 
Q 21.921875 6.390625 25.875 6.390625 
Q 29.828125 6.390625 33.296875 8.421875 
Q 36.765625 10.453125 38.203125 13.9375 
Q 39.65625 17.4375 39.65625 24.078125 
L 39.65625 51.859375 
L 48.4375 51.859375 
L 48.4375 0 
z
" id="ArialMT-75"/>
     </defs>
     <g style="fill:#9467bd;" transform="translate(77.958594 160.738125)scale(0.18 -0.18)">
      <use xlink:href="#ArialMT-41"/>
      <use x="66.699219" xlink:href="#ArialMT-6e"/>
      <use x="122.314453" xlink:href="#ArialMT-69"/>
      <use x="144.53125" xlink:href="#ArialMT-6d"/>
      <use x="227.832031" xlink:href="#ArialMT-61"/>
      <use x="283.447266" xlink:href="#ArialMT-6c"/>
      <use x="305.664062" xlink:href="#ArialMT-20"/>
      <use x="333.447266" xlink:href="#ArialMT-53"/>
      <use x="400.146484" xlink:href="#ArialMT-6f"/>
      <use x="455.761719" xlink:href="#ArialMT-75"/>
      <use x="511.376953" xlink:href="#ArialMT-6e"/>
      <use x="566.992188" xlink:href="#ArialMT-64"/>
     </g>
    </g>
   </g>
  </g>
 </g>
 <defs>
  <clipPath id="pa90bdee2e0">
   <rect height="439.9" width="780.209334" x="61.758594" y="28.947187"/>
  </clipPath>
 </defs>
</svg>
