<?xml version="1.0" encoding="utf-8" standalone="no"?>
<!DOCTYPE svg PUBLIC "-//W3C//DTD SVG 1.1//EN"
  "http://www.w3.org/Graphics/SVG/1.1/DTD/svg11.dtd">
<!-- Created with matplotlib (http://matplotlib.org/) -->
<svg height="517.933906pt" version="1.1" viewBox="0 0 864.545687 517.933906" width="864.545687pt" xmlns="http://www.w3.org/2000/svg" xmlns:xlink="http://www.w3.org/1999/xlink">
 <defs>
  <style type="text/css">
*{stroke-linecap:butt;stroke-linejoin:round;}
  </style>
 </defs>
 <g id="figure_1">
  <g id="patch_1">
   <path d="M 0 517.933906 
L 864.545688 517.933906 
L 864.545688 0 
L 0 0 
z
" style="fill:#ffffff;"/>
  </g>
  <g id="axes_1">
   <g id="patch_2">
    <path d="M 61.758594 468.847187 
L 853.845688 468.847187 
L 853.845688 28.947187 
L 61.758594 28.947187 
z
" style="fill:#ffffff;"/>
   </g>
   <g id="patch_3">
    <path clip-path="url(#p65ff9ee8d1)" d="M 97.762553 468.847187 
L 97.762553 28.947187 
L 153.291046 28.947187 
L 153.291046 468.847187 
z
" style="fill:#f7f7f7;stroke:#f7f7f7;stroke-linejoin:miter;"/>
   </g>
   <g id="patch_4">
    <path clip-path="url(#p65ff9ee8d1)" d="M 207.028298 468.847187 
L 207.028298 28.947187 
L 262.556792 28.947187 
L 262.556792 468.847187 
z
" style="fill:#f7f7f7;stroke:#f7f7f7;stroke-linejoin:miter;"/>
   </g>
   <g id="patch_5">
    <path clip-path="url(#p65ff9ee8d1)" d="M 316.294044 468.847187 
L 316.294044 28.947187 
L 371.822538 28.947187 
L 371.822538 468.847187 
z
" style="fill:#f7f7f7;stroke:#f7f7f7;stroke-linejoin:miter;"/>
   </g>
   <g id="patch_6">
    <path clip-path="url(#p65ff9ee8d1)" d="M 427.351031 468.847187 
L 427.351031 28.947187 
L 477.5058 28.947187 
L 477.5058 468.847187 
z
" style="fill:#f7f7f7;stroke:#f7f7f7;stroke-linejoin:miter;"/>
   </g>
   <g id="patch_7">
    <path clip-path="url(#p65ff9ee8d1)" d="M 533.034293 468.847187 
L 533.034293 28.947187 
L 586.771545 28.947187 
L 586.771545 468.847187 
z
" style="fill:#f7f7f7;stroke:#f7f7f7;stroke-linejoin:miter;"/>
   </g>
   <g id="patch_8">
    <path clip-path="url(#p65ff9ee8d1)" d="M 642.300039 468.847187 
L 642.300039 28.947187 
L 696.037291 28.947187 
L 696.037291 468.847187 
z
" style="fill:#f7f7f7;stroke:#f7f7f7;stroke-linejoin:miter;"/>
   </g>
   <g id="patch_9">
    <path clip-path="url(#p65ff9ee8d1)" d="M 751.565785 468.847187 
L 751.565785 28.947187 
L 807.094278 28.947187 
L 807.094278 468.847187 
z
" style="fill:#f7f7f7;stroke:#f7f7f7;stroke-linejoin:miter;"/>
   </g>
   <g id="matplotlib.axis_1">
    <g id="xtick_1">
     <g id="line2d_1">
      <path clip-path="url(#p65ff9ee8d1)" d="M 97.762553 468.847187 
L 97.762553 28.947187 
" style="fill:none;stroke:#cccccc;stroke-linecap:round;stroke-width:0.8;"/>
     </g>
    </g>
    <g id="xtick_2">
     <g id="line2d_2">
      <path clip-path="url(#p65ff9ee8d1)" d="M 153.291046 468.847187 
L 153.291046 28.947187 
" style="fill:none;stroke:#cccccc;stroke-linecap:round;stroke-width:0.8;"/>
     </g>
    </g>
    <g id="xtick_3">
     <g id="line2d_3">
      <path clip-path="url(#p65ff9ee8d1)" d="M 207.028298 468.847187 
L 207.028298 28.947187 
" style="fill:none;stroke:#cccccc;stroke-linecap:round;stroke-width:0.8;"/>
     </g>
    </g>
    <g id="xtick_4">
     <g id="line2d_4">
      <path clip-path="url(#p65ff9ee8d1)" d="M 262.556792 468.847187 
L 262.556792 28.947187 
" style="fill:none;stroke:#cccccc;stroke-linecap:round;stroke-width:0.8;"/>
     </g>
    </g>
    <g id="xtick_5">
     <g id="line2d_5">
      <path clip-path="url(#p65ff9ee8d1)" d="M 316.294044 468.847187 
L 316.294044 28.947187 
" style="fill:none;stroke:#cccccc;stroke-linecap:round;stroke-width:0.8;"/>
     </g>
    </g>
    <g id="xtick_6">
     <g id="line2d_6">
      <path clip-path="url(#p65ff9ee8d1)" d="M 371.822538 468.847187 
L 371.822538 28.947187 
" style="fill:none;stroke:#cccccc;stroke-linecap:round;stroke-width:0.8;"/>
     </g>
    </g>
    <g id="xtick_7">
     <g id="line2d_7">
      <path clip-path="url(#p65ff9ee8d1)" d="M 427.351031 468.847187 
L 427.351031 28.947187 
" style="fill:none;stroke:#cccccc;stroke-linecap:round;stroke-width:0.8;"/>
     </g>
    </g>
    <g id="xtick_8">
     <g id="line2d_8">
      <path clip-path="url(#p65ff9ee8d1)" d="M 477.5058 468.847187 
L 477.5058 28.947187 
" style="fill:none;stroke:#cccccc;stroke-linecap:round;stroke-width:0.8;"/>
     </g>
    </g>
    <g id="xtick_9">
     <g id="line2d_9">
      <path clip-path="url(#p65ff9ee8d1)" d="M 533.034293 468.847187 
L 533.034293 28.947187 
" style="fill:none;stroke:#cccccc;stroke-linecap:round;stroke-width:0.8;"/>
     </g>
    </g>
    <g id="xtick_10">
     <g id="line2d_10">
      <path clip-path="url(#p65ff9ee8d1)" d="M 586.771545 468.847187 
L 586.771545 28.947187 
" style="fill:none;stroke:#cccccc;stroke-linecap:round;stroke-width:0.8;"/>
     </g>
    </g>
    <g id="xtick_11">
     <g id="line2d_11">
      <path clip-path="url(#p65ff9ee8d1)" d="M 642.300039 468.847187 
L 642.300039 28.947187 
" style="fill:none;stroke:#cccccc;stroke-linecap:round;stroke-width:0.8;"/>
     </g>
    </g>
    <g id="xtick_12">
     <g id="line2d_12">
      <path clip-path="url(#p65ff9ee8d1)" d="M 696.037291 468.847187 
L 696.037291 28.947187 
" style="fill:none;stroke:#cccccc;stroke-linecap:round;stroke-width:0.8;"/>
     </g>
    </g>
    <g id="xtick_13">
     <g id="line2d_13">
      <path clip-path="url(#p65ff9ee8d1)" d="M 751.565785 468.847187 
L 751.565785 28.947187 
" style="fill:none;stroke:#cccccc;stroke-linecap:round;stroke-width:0.8;"/>
     </g>
    </g>
    <g id="xtick_14">
     <g id="line2d_14">
      <path clip-path="url(#p65ff9ee8d1)" d="M 807.094278 468.847187 
L 807.094278 28.947187 
" style="fill:none;stroke:#cccccc;stroke-linecap:round;stroke-width:0.8;"/>
     </g>
    </g>
    <g id="xtick_15">
     <g id="text_1">
      <!-- 14 -->
      <defs>
       <path d="M 37.25 0 
L 28.46875 0 
L 28.46875 56 
Q 25.296875 52.984375 20.140625 49.953125 
Q 14.984375 46.921875 10.890625 45.40625 
L 10.890625 53.90625 
Q 18.265625 57.375 23.78125 62.296875 
Q 29.296875 67.234375 31.59375 71.875 
L 37.25 71.875 
z
" id="ArialMT-31"/>
       <path d="M 32.328125 0 
L 32.328125 17.140625 
L 1.265625 17.140625 
L 1.265625 25.203125 
L 33.9375 71.578125 
L 41.109375 71.578125 
L 41.109375 25.203125 
L 50.78125 25.203125 
L 50.78125 17.140625 
L 41.109375 17.140625 
L 41.109375 0 
z
M 32.328125 25.203125 
L 32.328125 57.46875 
L 9.90625 25.203125 
z
" id="ArialMT-34"/>
      </defs>
      <g style="fill:#262626;" transform="translate(117.185393 484.983906)scale(0.15 -0.15)">
       <use xlink:href="#ArialMT-31"/>
       <use x="55.615234" xlink:href="#ArialMT-34"/>
      </g>
     </g>
    </g>
    <g id="xtick_16">
     <g id="text_2">
      <!-- 15 -->
      <defs>
       <path d="M 4.15625 18.75 
L 13.375 19.53125 
Q 14.40625 12.796875 18.140625 9.390625 
Q 21.875 6 27.15625 6 
Q 33.5 6 37.890625 10.78125 
Q 42.28125 15.578125 42.28125 23.484375 
Q 42.28125 31 38.0625 35.34375 
Q 33.84375 39.703125 27 39.703125 
Q 22.75 39.703125 19.328125 37.765625 
Q 15.921875 35.84375 13.96875 32.765625 
L 5.71875 33.84375 
L 12.640625 70.609375 
L 48.25 70.609375 
L 48.25 62.203125 
L 19.671875 62.203125 
L 15.828125 42.96875 
Q 22.265625 47.46875 29.34375 47.46875 
Q 38.71875 47.46875 45.15625 40.96875 
Q 51.609375 34.46875 51.609375 24.265625 
Q 51.609375 14.546875 45.953125 7.46875 
Q 39.0625 -1.21875 27.15625 -1.21875 
Q 17.390625 -1.21875 11.203125 4.25 
Q 5.03125 9.71875 4.15625 18.75 
z
" id="ArialMT-35"/>
      </defs>
      <g style="fill:#262626;" transform="translate(172.713887 484.983906)scale(0.15 -0.15)">
       <use xlink:href="#ArialMT-31"/>
       <use x="55.615234" xlink:href="#ArialMT-35"/>
      </g>
     </g>
    </g>
    <g id="xtick_17">
     <g id="text_3">
      <!-- 16 -->
      <defs>
       <path d="M 49.75 54.046875 
L 41.015625 53.375 
Q 39.84375 58.546875 37.703125 60.890625 
Q 34.125 64.65625 28.90625 64.65625 
Q 24.703125 64.65625 21.53125 62.3125 
Q 17.390625 59.28125 14.984375 53.46875 
Q 12.59375 47.65625 12.5 36.921875 
Q 15.671875 41.75 20.265625 44.09375 
Q 24.859375 46.4375 29.890625 46.4375 
Q 38.671875 46.4375 44.84375 39.96875 
Q 51.03125 33.5 51.03125 23.25 
Q 51.03125 16.5 48.125 10.71875 
Q 45.21875 4.9375 40.140625 1.859375 
Q 35.0625 -1.21875 28.609375 -1.21875 
Q 17.625 -1.21875 10.6875 6.859375 
Q 3.765625 14.9375 3.765625 33.5 
Q 3.765625 54.25 11.421875 63.671875 
Q 18.109375 71.875 29.4375 71.875 
Q 37.890625 71.875 43.28125 67.140625 
Q 48.6875 62.40625 49.75 54.046875 
z
M 13.875 23.1875 
Q 13.875 18.65625 15.796875 14.5 
Q 17.71875 10.359375 21.1875 8.171875 
Q 24.65625 6 28.46875 6 
Q 34.03125 6 38.03125 10.484375 
Q 42.046875 14.984375 42.046875 22.703125 
Q 42.046875 30.125 38.078125 34.390625 
Q 34.125 38.671875 28.125 38.671875 
Q 22.171875 38.671875 18.015625 34.390625 
Q 13.875 30.125 13.875 23.1875 
z
" id="ArialMT-36"/>
      </defs>
      <g style="fill:#262626;" transform="translate(226.451139 484.983906)scale(0.15 -0.15)">
       <use xlink:href="#ArialMT-31"/>
       <use x="55.615234" xlink:href="#ArialMT-36"/>
      </g>
     </g>
    </g>
    <g id="xtick_18">
     <g id="text_4">
      <!-- 17 -->
      <defs>
       <path d="M 4.734375 62.203125 
L 4.734375 70.65625 
L 51.078125 70.65625 
L 51.078125 63.8125 
Q 44.234375 56.546875 37.515625 44.484375 
Q 30.8125 32.421875 27.15625 19.671875 
Q 24.515625 10.6875 23.78125 0 
L 14.75 0 
Q 14.890625 8.453125 18.0625 20.40625 
Q 21.234375 32.375 27.171875 43.484375 
Q 33.109375 54.59375 39.796875 62.203125 
z
" id="ArialMT-37"/>
      </defs>
      <g style="fill:#262626;" transform="translate(281.979632 484.983906)scale(0.15 -0.15)">
       <use xlink:href="#ArialMT-31"/>
       <use x="55.615234" xlink:href="#ArialMT-37"/>
      </g>
     </g>
    </g>
    <g id="xtick_19">
     <g id="text_5">
      <!-- 18 -->
      <defs>
       <path d="M 17.671875 38.8125 
Q 12.203125 40.828125 9.5625 44.53125 
Q 6.9375 48.25 6.9375 53.421875 
Q 6.9375 61.234375 12.546875 66.546875 
Q 18.171875 71.875 27.484375 71.875 
Q 36.859375 71.875 42.578125 66.421875 
Q 48.296875 60.984375 48.296875 53.171875 
Q 48.296875 48.1875 45.671875 44.5 
Q 43.0625 40.828125 37.75 38.8125 
Q 44.34375 36.671875 47.78125 31.875 
Q 51.21875 27.09375 51.21875 20.453125 
Q 51.21875 11.28125 44.71875 5.03125 
Q 38.234375 -1.21875 27.640625 -1.21875 
Q 17.046875 -1.21875 10.546875 5.046875 
Q 4.046875 11.328125 4.046875 20.703125 
Q 4.046875 27.6875 7.59375 32.390625 
Q 11.140625 37.109375 17.671875 38.8125 
z
M 15.921875 53.71875 
Q 15.921875 48.640625 19.1875 45.40625 
Q 22.46875 42.1875 27.6875 42.1875 
Q 32.765625 42.1875 36.015625 45.375 
Q 39.265625 48.578125 39.265625 53.21875 
Q 39.265625 58.0625 35.90625 61.359375 
Q 32.5625 64.65625 27.59375 64.65625 
Q 22.5625 64.65625 19.234375 61.421875 
Q 15.921875 58.203125 15.921875 53.71875 
z
M 13.09375 20.65625 
Q 13.09375 16.890625 14.875 13.375 
Q 16.65625 9.859375 20.171875 7.921875 
Q 23.6875 6 27.734375 6 
Q 34.03125 6 38.125 10.046875 
Q 42.234375 14.109375 42.234375 20.359375 
Q 42.234375 26.703125 38.015625 30.859375 
Q 33.796875 35.015625 27.4375 35.015625 
Q 21.234375 35.015625 17.15625 30.90625 
Q 13.09375 26.8125 13.09375 20.65625 
z
" id="ArialMT-38"/>
      </defs>
      <g style="fill:#262626;" transform="translate(335.716884 484.983906)scale(0.15 -0.15)">
       <use xlink:href="#ArialMT-31"/>
       <use x="55.615234" xlink:href="#ArialMT-38"/>
      </g>
     </g>
    </g>
    <g id="xtick_20">
     <g id="text_6">
      <!-- 19 -->
      <defs>
       <path d="M 5.46875 16.546875 
L 13.921875 17.328125 
Q 14.984375 11.375 18.015625 8.6875 
Q 21.046875 6 25.78125 6 
Q 29.828125 6 32.875 7.859375 
Q 35.9375 9.71875 37.890625 12.8125 
Q 39.84375 15.921875 41.15625 21.1875 
Q 42.484375 26.46875 42.484375 31.9375 
Q 42.484375 32.515625 42.4375 33.6875 
Q 39.796875 29.5 35.234375 26.875 
Q 30.671875 24.265625 25.34375 24.265625 
Q 16.453125 24.265625 10.296875 30.703125 
Q 4.15625 37.15625 4.15625 47.703125 
Q 4.15625 58.59375 10.578125 65.234375 
Q 17 71.875 26.65625 71.875 
Q 33.640625 71.875 39.421875 68.109375 
Q 45.21875 64.359375 48.21875 57.390625 
Q 51.21875 50.4375 51.21875 37.25 
Q 51.21875 23.53125 48.234375 15.40625 
Q 45.265625 7.28125 39.375 3.03125 
Q 33.5 -1.21875 25.59375 -1.21875 
Q 17.1875 -1.21875 11.859375 3.4375 
Q 6.546875 8.109375 5.46875 16.546875 
z
M 41.453125 48.140625 
Q 41.453125 55.71875 37.421875 60.15625 
Q 33.40625 64.59375 27.734375 64.59375 
Q 21.875 64.59375 17.53125 59.8125 
Q 13.1875 55.03125 13.1875 47.40625 
Q 13.1875 40.578125 17.3125 36.296875 
Q 21.4375 32.03125 27.484375 32.03125 
Q 33.59375 32.03125 37.515625 36.296875 
Q 41.453125 40.578125 41.453125 48.140625 
z
" id="ArialMT-39"/>
      </defs>
      <g style="fill:#262626;" transform="translate(391.245378 484.983906)scale(0.15 -0.15)">
       <use xlink:href="#ArialMT-31"/>
       <use x="55.615234" xlink:href="#ArialMT-39"/>
      </g>
     </g>
    </g>
    <g id="xtick_21">
     <g id="text_7">
      <!-- 20 -->
      <defs>
       <path d="M 50.34375 8.453125 
L 50.34375 0 
L 3.03125 0 
Q 2.9375 3.171875 4.046875 6.109375 
Q 5.859375 10.9375 9.828125 15.625 
Q 13.8125 20.3125 21.34375 26.46875 
Q 33.015625 36.03125 37.109375 41.625 
Q 41.21875 47.21875 41.21875 52.203125 
Q 41.21875 57.421875 37.46875 61 
Q 33.734375 64.59375 27.734375 64.59375 
Q 21.390625 64.59375 17.578125 60.78125 
Q 13.765625 56.984375 13.71875 50.25 
L 4.6875 51.171875 
Q 5.609375 61.28125 11.65625 66.578125 
Q 17.71875 71.875 27.9375 71.875 
Q 38.234375 71.875 44.234375 66.15625 
Q 50.25 60.453125 50.25 52 
Q 50.25 47.703125 48.484375 43.546875 
Q 46.734375 39.40625 42.65625 34.8125 
Q 38.578125 30.21875 29.109375 22.21875 
Q 21.1875 15.578125 18.9375 13.203125 
Q 16.703125 10.84375 15.234375 8.453125 
z
" id="ArialMT-32"/>
       <path d="M 4.15625 35.296875 
Q 4.15625 48 6.765625 55.734375 
Q 9.375 63.484375 14.515625 67.671875 
Q 19.671875 71.875 27.484375 71.875 
Q 33.25 71.875 37.59375 69.546875 
Q 41.9375 67.234375 44.765625 62.859375 
Q 47.609375 58.5 49.21875 52.21875 
Q 50.828125 45.953125 50.828125 35.296875 
Q 50.828125 22.703125 48.234375 14.96875 
Q 45.65625 7.234375 40.5 3 
Q 35.359375 -1.21875 27.484375 -1.21875 
Q 17.140625 -1.21875 11.234375 6.203125 
Q 4.15625 15.140625 4.15625 35.296875 
z
M 13.1875 35.296875 
Q 13.1875 17.671875 17.3125 11.828125 
Q 21.4375 6 27.484375 6 
Q 33.546875 6 37.671875 11.859375 
Q 41.796875 17.71875 41.796875 35.296875 
Q 41.796875 52.984375 37.671875 58.78125 
Q 33.546875 64.59375 27.390625 64.59375 
Q 21.34375 64.59375 17.71875 59.46875 
Q 13.1875 52.9375 13.1875 35.296875 
z
" id="ArialMT-30"/>
      </defs>
      <g style="fill:#262626;" transform="translate(446.773872 484.983906)scale(0.15 -0.15)">
       <use xlink:href="#ArialMT-32"/>
       <use x="55.615234" xlink:href="#ArialMT-30"/>
      </g>
     </g>
    </g>
    <g id="xtick_22">
     <g id="text_8">
      <!-- 21 -->
      <g style="fill:#262626;" transform="translate(496.92864 484.983906)scale(0.15 -0.15)">
       <use xlink:href="#ArialMT-32"/>
       <use x="55.615234" xlink:href="#ArialMT-31"/>
      </g>
     </g>
    </g>
    <g id="xtick_23">
     <g id="text_9">
      <!-- 22 -->
      <g style="fill:#262626;" transform="translate(552.457134 484.983906)scale(0.15 -0.15)">
       <use xlink:href="#ArialMT-32"/>
       <use x="55.615234" xlink:href="#ArialMT-32"/>
      </g>
     </g>
    </g>
    <g id="xtick_24">
     <g id="text_10">
      <!-- 23 -->
      <defs>
       <path d="M 4.203125 18.890625 
L 12.984375 20.0625 
Q 14.5 12.59375 18.140625 9.296875 
Q 21.78125 6 27 6 
Q 33.203125 6 37.46875 10.296875 
Q 41.75 14.59375 41.75 20.953125 
Q 41.75 27 37.796875 30.921875 
Q 33.84375 34.859375 27.734375 34.859375 
Q 25.25 34.859375 21.53125 33.890625 
L 22.515625 41.609375 
Q 23.390625 41.5 23.921875 41.5 
Q 29.546875 41.5 34.03125 44.421875 
Q 38.53125 47.359375 38.53125 53.46875 
Q 38.53125 58.296875 35.25 61.46875 
Q 31.984375 64.65625 26.8125 64.65625 
Q 21.6875 64.65625 18.265625 61.421875 
Q 14.84375 58.203125 13.875 51.765625 
L 5.078125 53.328125 
Q 6.6875 62.15625 12.390625 67.015625 
Q 18.109375 71.875 26.609375 71.875 
Q 32.46875 71.875 37.390625 69.359375 
Q 42.328125 66.84375 44.9375 62.5 
Q 47.5625 58.15625 47.5625 53.265625 
Q 47.5625 48.640625 45.0625 44.828125 
Q 42.578125 41.015625 37.703125 38.765625 
Q 44.046875 37.3125 47.5625 32.6875 
Q 51.078125 28.078125 51.078125 21.140625 
Q 51.078125 11.765625 44.234375 5.25 
Q 37.40625 -1.265625 26.953125 -1.265625 
Q 17.53125 -1.265625 11.296875 4.34375 
Q 5.078125 9.96875 4.203125 18.890625 
z
" id="ArialMT-33"/>
      </defs>
      <g style="fill:#262626;" transform="translate(606.194386 484.983906)scale(0.15 -0.15)">
       <use xlink:href="#ArialMT-32"/>
       <use x="55.615234" xlink:href="#ArialMT-33"/>
      </g>
     </g>
    </g>
    <g id="xtick_25">
     <g id="text_11">
      <!-- 2 Years -->
      <defs>
       <path id="ArialMT-20"/>
       <path d="M 27.875 0 
L 27.875 30.328125 
L 0.296875 71.578125 
L 11.8125 71.578125 
L 25.921875 50 
Q 29.828125 43.953125 33.203125 37.890625 
Q 36.421875 43.5 41.015625 50.53125 
L 54.890625 71.578125 
L 65.921875 71.578125 
L 37.359375 30.328125 
L 37.359375 0 
z
" id="ArialMT-59"/>
       <path d="M 42.09375 16.703125 
L 51.171875 15.578125 
Q 49.03125 7.625 43.21875 3.21875 
Q 37.40625 -1.171875 28.375 -1.171875 
Q 17 -1.171875 10.328125 5.828125 
Q 3.65625 12.84375 3.65625 25.484375 
Q 3.65625 38.578125 10.390625 45.796875 
Q 17.140625 53.03125 27.875 53.03125 
Q 38.28125 53.03125 44.875 45.953125 
Q 51.46875 38.875 51.46875 26.03125 
Q 51.46875 25.25 51.421875 23.6875 
L 12.75 23.6875 
Q 13.234375 15.140625 17.578125 10.59375 
Q 21.921875 6.0625 28.421875 6.0625 
Q 33.25 6.0625 36.671875 8.59375 
Q 40.09375 11.140625 42.09375 16.703125 
z
M 13.234375 30.90625 
L 42.1875 30.90625 
Q 41.609375 37.453125 38.875 40.71875 
Q 34.671875 45.796875 27.984375 45.796875 
Q 21.921875 45.796875 17.796875 41.75 
Q 13.671875 37.703125 13.234375 30.90625 
z
" id="ArialMT-65"/>
       <path d="M 40.4375 6.390625 
Q 35.546875 2.25 31.03125 0.53125 
Q 26.515625 -1.171875 21.34375 -1.171875 
Q 12.796875 -1.171875 8.203125 3 
Q 3.609375 7.171875 3.609375 13.671875 
Q 3.609375 17.484375 5.34375 20.625 
Q 7.078125 23.78125 9.890625 25.6875 
Q 12.703125 27.59375 16.21875 28.5625 
Q 18.796875 29.25 24.03125 29.890625 
Q 34.671875 31.15625 39.703125 32.90625 
Q 39.75 34.71875 39.75 35.203125 
Q 39.75 40.578125 37.25 42.78125 
Q 33.890625 45.75 27.25 45.75 
Q 21.046875 45.75 18.09375 43.578125 
Q 15.140625 41.40625 13.71875 35.890625 
L 5.125 37.0625 
Q 6.296875 42.578125 8.984375 45.96875 
Q 11.671875 49.359375 16.75 51.1875 
Q 21.828125 53.03125 28.515625 53.03125 
Q 35.15625 53.03125 39.296875 51.46875 
Q 43.453125 49.90625 45.40625 47.53125 
Q 47.359375 45.171875 48.140625 41.546875 
Q 48.578125 39.3125 48.578125 33.453125 
L 48.578125 21.734375 
Q 48.578125 9.46875 49.140625 6.21875 
Q 49.703125 2.984375 51.375 0 
L 42.1875 0 
Q 40.828125 2.734375 40.4375 6.390625 
z
M 39.703125 26.03125 
Q 34.90625 24.078125 25.34375 22.703125 
Q 19.921875 21.921875 17.671875 20.9375 
Q 15.4375 19.96875 14.203125 18.09375 
Q 12.984375 16.21875 12.984375 13.921875 
Q 12.984375 10.40625 15.640625 8.0625 
Q 18.3125 5.71875 23.4375 5.71875 
Q 28.515625 5.71875 32.46875 7.9375 
Q 36.421875 10.15625 38.28125 14.015625 
Q 39.703125 17 39.703125 22.796875 
z
" id="ArialMT-61"/>
       <path d="M 6.5 0 
L 6.5 51.859375 
L 14.40625 51.859375 
L 14.40625 44 
Q 17.4375 49.515625 20 51.265625 
Q 22.5625 53.03125 25.640625 53.03125 
Q 30.078125 53.03125 34.671875 50.203125 
L 31.640625 42.046875 
Q 28.421875 43.953125 25.203125 43.953125 
Q 22.3125 43.953125 20.015625 42.21875 
Q 17.71875 40.484375 16.75 37.40625 
Q 15.28125 32.71875 15.28125 27.15625 
L 15.28125 0 
z
" id="ArialMT-72"/>
       <path d="M 3.078125 15.484375 
L 11.765625 16.84375 
Q 12.5 11.625 15.84375 8.84375 
Q 19.1875 6.0625 25.203125 6.0625 
Q 31.25 6.0625 34.171875 8.515625 
Q 37.109375 10.984375 37.109375 14.3125 
Q 37.109375 17.28125 34.515625 19 
Q 32.71875 20.171875 25.53125 21.96875 
Q 15.875 24.421875 12.140625 26.203125 
Q 8.40625 27.984375 6.46875 31.125 
Q 4.546875 34.28125 4.546875 38.09375 
Q 4.546875 41.546875 6.125 44.5 
Q 7.71875 47.46875 10.453125 49.421875 
Q 12.5 50.921875 16.03125 51.96875 
Q 19.578125 53.03125 23.640625 53.03125 
Q 29.734375 53.03125 34.34375 51.265625 
Q 38.96875 49.515625 41.15625 46.5 
Q 43.359375 43.5 44.1875 38.484375 
L 35.59375 37.3125 
Q 35.015625 41.3125 32.203125 43.546875 
Q 29.390625 45.796875 24.265625 45.796875 
Q 18.21875 45.796875 15.625 43.796875 
Q 13.03125 41.796875 13.03125 39.109375 
Q 13.03125 37.40625 14.109375 36.03125 
Q 15.1875 34.625 17.484375 33.6875 
Q 18.796875 33.203125 25.25 31.453125 
Q 34.578125 28.953125 38.25 27.359375 
Q 41.9375 25.78125 44.03125 22.75 
Q 46.140625 19.734375 46.140625 15.234375 
Q 46.140625 10.84375 43.578125 6.953125 
Q 41.015625 3.078125 36.171875 0.953125 
Q 31.34375 -1.171875 25.25 -1.171875 
Q 15.140625 -1.171875 9.84375 3.03125 
Q 4.546875 7.234375 3.078125 15.484375 
z
" id="ArialMT-73"/>
      </defs>
      <g style="fill:#262626;" transform="translate(644.230301 484.983906)scale(0.15 -0.15)">
       <use xlink:href="#ArialMT-32"/>
       <use x="55.615234" xlink:href="#ArialMT-20"/>
       <use x="83.382812" xlink:href="#ArialMT-59"/>
       <use x="149.941406" xlink:href="#ArialMT-65"/>
       <use x="205.556641" xlink:href="#ArialMT-61"/>
       <use x="261.171875" xlink:href="#ArialMT-72"/>
       <use x="294.472656" xlink:href="#ArialMT-73"/>
      </g>
     </g>
    </g>
    <g id="xtick_26">
     <g id="text_12">
      <!-- 25 -->
      <g style="fill:#262626;" transform="translate(715.460132 484.983906)scale(0.15 -0.15)">
       <use xlink:href="#ArialMT-32"/>
       <use x="55.615234" xlink:href="#ArialMT-35"/>
      </g>
     </g>
    </g>
    <g id="xtick_27">
     <g id="text_13">
      <!-- 26 -->
      <g style="fill:#262626;" transform="translate(770.988625 484.983906)scale(0.15 -0.15)">
       <use xlink:href="#ArialMT-32"/>
       <use x="55.615234" xlink:href="#ArialMT-36"/>
      </g>
     </g>
    </g>
    <g id="xtick_28">
     <g id="text_14">
      <!-- 27 -->
      <g style="fill:#262626;" transform="translate(826.517119 484.983906)scale(0.15 -0.15)">
       <use xlink:href="#ArialMT-32"/>
       <use x="55.615234" xlink:href="#ArialMT-37"/>
      </g>
     </g>
    </g>
    <g id="text_15">
     <!-- Age (Months) -->
     <defs>
      <path d="M -0.140625 0 
L 27.34375 71.578125 
L 37.546875 71.578125 
L 66.84375 0 
L 56.0625 0 
L 47.703125 21.6875 
L 17.78125 21.6875 
L 9.90625 0 
z
M 20.515625 29.390625 
L 44.78125 29.390625 
L 37.3125 49.21875 
Q 33.890625 58.25 32.234375 64.0625 
Q 30.859375 57.171875 28.375 50.390625 
z
" id="ArialMT-41"/>
      <path d="M 4.984375 -4.296875 
L 13.53125 -5.5625 
Q 14.0625 -9.515625 16.5 -11.328125 
Q 19.78125 -13.765625 25.4375 -13.765625 
Q 31.546875 -13.765625 34.859375 -11.328125 
Q 38.1875 -8.890625 39.359375 -4.5 
Q 40.046875 -1.8125 39.984375 6.78125 
Q 34.234375 0 25.640625 0 
Q 14.9375 0 9.078125 7.71875 
Q 3.21875 15.4375 3.21875 26.21875 
Q 3.21875 33.640625 5.90625 39.90625 
Q 8.59375 46.1875 13.6875 49.609375 
Q 18.796875 53.03125 25.6875 53.03125 
Q 34.859375 53.03125 40.828125 45.609375 
L 40.828125 51.859375 
L 48.921875 51.859375 
L 48.921875 7.03125 
Q 48.921875 -5.078125 46.453125 -10.125 
Q 44 -15.1875 38.640625 -18.109375 
Q 33.296875 -21.046875 25.484375 -21.046875 
Q 16.21875 -21.046875 10.5 -16.875 
Q 4.78125 -12.703125 4.984375 -4.296875 
z
M 12.25 26.859375 
Q 12.25 16.65625 16.296875 11.96875 
Q 20.359375 7.28125 26.46875 7.28125 
Q 32.515625 7.28125 36.609375 11.9375 
Q 40.71875 16.609375 40.71875 26.5625 
Q 40.71875 36.078125 36.5 40.90625 
Q 32.28125 45.75 26.3125 45.75 
Q 20.453125 45.75 16.34375 40.984375 
Q 12.25 36.234375 12.25 26.859375 
z
" id="ArialMT-67"/>
      <path d="M 23.390625 -21.046875 
Q 16.109375 -11.859375 11.078125 0.4375 
Q 6.0625 12.75 6.0625 25.921875 
Q 6.0625 37.546875 9.8125 48.1875 
Q 14.203125 60.546875 23.390625 72.796875 
L 29.6875 72.796875 
Q 23.78125 62.640625 21.875 58.296875 
Q 18.890625 51.5625 17.1875 44.234375 
Q 15.09375 35.109375 15.09375 25.875 
Q 15.09375 2.390625 29.6875 -21.046875 
z
" id="ArialMT-28"/>
      <path d="M 7.421875 0 
L 7.421875 71.578125 
L 21.6875 71.578125 
L 38.625 20.90625 
Q 40.96875 13.8125 42.046875 10.296875 
Q 43.265625 14.203125 45.84375 21.78125 
L 62.984375 71.578125 
L 75.734375 71.578125 
L 75.734375 0 
L 66.609375 0 
L 66.609375 59.90625 
L 45.796875 0 
L 37.25 0 
L 16.546875 60.9375 
L 16.546875 0 
z
" id="ArialMT-4d"/>
      <path d="M 3.328125 25.921875 
Q 3.328125 40.328125 11.328125 47.265625 
Q 18.015625 53.03125 27.640625 53.03125 
Q 38.328125 53.03125 45.109375 46.015625 
Q 51.90625 39.015625 51.90625 26.65625 
Q 51.90625 16.65625 48.90625 10.90625 
Q 45.90625 5.171875 40.15625 2 
Q 34.421875 -1.171875 27.640625 -1.171875 
Q 16.75 -1.171875 10.03125 5.8125 
Q 3.328125 12.796875 3.328125 25.921875 
z
M 12.359375 25.921875 
Q 12.359375 15.96875 16.703125 11.015625 
Q 21.046875 6.0625 27.640625 6.0625 
Q 34.1875 6.0625 38.53125 11.03125 
Q 42.875 16.015625 42.875 26.21875 
Q 42.875 35.84375 38.5 40.796875 
Q 34.125 45.75 27.640625 45.75 
Q 21.046875 45.75 16.703125 40.8125 
Q 12.359375 35.890625 12.359375 25.921875 
z
" id="ArialMT-6f"/>
      <path d="M 6.59375 0 
L 6.59375 51.859375 
L 14.5 51.859375 
L 14.5 44.484375 
Q 20.21875 53.03125 31 53.03125 
Q 35.6875 53.03125 39.625 51.34375 
Q 43.5625 49.65625 45.515625 46.921875 
Q 47.46875 44.1875 48.25 40.4375 
Q 48.734375 37.984375 48.734375 31.890625 
L 48.734375 0 
L 39.9375 0 
L 39.9375 31.546875 
Q 39.9375 36.921875 38.90625 39.578125 
Q 37.890625 42.234375 35.28125 43.8125 
Q 32.671875 45.40625 29.15625 45.40625 
Q 23.53125 45.40625 19.453125 41.84375 
Q 15.375 38.28125 15.375 28.328125 
L 15.375 0 
z
" id="ArialMT-6e"/>
      <path d="M 25.78125 7.859375 
L 27.046875 0.09375 
Q 23.34375 -0.6875 20.40625 -0.6875 
Q 15.625 -0.6875 12.984375 0.828125 
Q 10.359375 2.34375 9.28125 4.8125 
Q 8.203125 7.28125 8.203125 15.1875 
L 8.203125 45.015625 
L 1.765625 45.015625 
L 1.765625 51.859375 
L 8.203125 51.859375 
L 8.203125 64.703125 
L 16.9375 69.96875 
L 16.9375 51.859375 
L 25.78125 51.859375 
L 25.78125 45.015625 
L 16.9375 45.015625 
L 16.9375 14.703125 
Q 16.9375 10.9375 17.40625 9.859375 
Q 17.875 8.796875 18.921875 8.15625 
Q 19.96875 7.515625 21.921875 7.515625 
Q 23.390625 7.515625 25.78125 7.859375 
z
" id="ArialMT-74"/>
      <path d="M 6.59375 0 
L 6.59375 71.578125 
L 15.375 71.578125 
L 15.375 45.90625 
Q 21.53125 53.03125 30.90625 53.03125 
Q 36.671875 53.03125 40.921875 50.75 
Q 45.171875 48.484375 47 44.484375 
Q 48.828125 40.484375 48.828125 32.859375 
L 48.828125 0 
L 40.046875 0 
L 40.046875 32.859375 
Q 40.046875 39.453125 37.1875 42.453125 
Q 34.328125 45.453125 29.109375 45.453125 
Q 25.203125 45.453125 21.75 43.421875 
Q 18.3125 41.40625 16.84375 37.9375 
Q 15.375 34.46875 15.375 28.375 
L 15.375 0 
z
" id="ArialMT-68"/>
      <path d="M 12.359375 -21.046875 
L 6.0625 -21.046875 
Q 20.65625 2.390625 20.65625 25.875 
Q 20.65625 35.0625 18.5625 44.09375 
Q 16.890625 51.421875 13.921875 58.15625 
Q 12.015625 62.546875 6.0625 72.796875 
L 12.359375 72.796875 
Q 21.53125 60.546875 25.921875 48.1875 
Q 29.6875 37.546875 29.6875 25.921875 
Q 29.6875 12.75 24.625 0.4375 
Q 19.578125 -11.859375 12.359375 -21.046875 
z
" id="ArialMT-29"/>
     </defs>
     <g style="fill:#262626;" transform="translate(397.781828 506.524531)scale(0.2 -0.2)">
      <use xlink:href="#ArialMT-41"/>
      <use x="66.699219" xlink:href="#ArialMT-67"/>
      <use x="122.314453" xlink:href="#ArialMT-65"/>
      <use x="177.929688" xlink:href="#ArialMT-20"/>
      <use x="205.712891" xlink:href="#ArialMT-28"/>
      <use x="239.013672" xlink:href="#ArialMT-4d"/>
      <use x="322.314453" xlink:href="#ArialMT-6f"/>
      <use x="377.929688" xlink:href="#ArialMT-6e"/>
      <use x="433.544922" xlink:href="#ArialMT-74"/>
      <use x="461.328125" xlink:href="#ArialMT-68"/>
      <use x="516.943359" xlink:href="#ArialMT-73"/>
      <use x="566.943359" xlink:href="#ArialMT-29"/>
     </g>
    </g>
   </g>
   <g id="matplotlib.axis_2">
    <g id="ytick_1">
     <g id="line2d_15">
      <path clip-path="url(#p65ff9ee8d1)" d="M 61.758594 448.851733 
L 853.845688 448.851733 
" style="fill:none;stroke:#cccccc;stroke-linecap:round;stroke-width:0.8;"/>
     </g>
     <g id="text_16">
      <!-- 0 -->
      <g style="fill:#262626;" transform="translate(46.417188 454.220092)scale(0.15 -0.15)">
       <use xlink:href="#ArialMT-30"/>
      </g>
     </g>
    </g>
    <g id="ytick_2">
     <g id="line2d_16">
      <path clip-path="url(#p65ff9ee8d1)" d="M 61.758594 355.415029 
L 853.845688 355.415029 
" style="fill:none;stroke:#cccccc;stroke-linecap:round;stroke-width:0.8;"/>
     </g>
     <g id="text_17">
      <!-- 50 -->
      <g style="fill:#262626;" transform="translate(38.075781 360.783389)scale(0.15 -0.15)">
       <use xlink:href="#ArialMT-35"/>
       <use x="55.615234" xlink:href="#ArialMT-30"/>
      </g>
     </g>
    </g>
    <g id="ytick_3">
     <g id="line2d_17">
      <path clip-path="url(#p65ff9ee8d1)" d="M 61.758594 261.978326 
L 853.845688 261.978326 
" style="fill:none;stroke:#cccccc;stroke-linecap:round;stroke-width:0.8;"/>
     </g>
     <g id="text_18">
      <!-- 100 -->
      <g style="fill:#262626;" transform="translate(29.734375 267.346685)scale(0.15 -0.15)">
       <use xlink:href="#ArialMT-31"/>
       <use x="55.615234" xlink:href="#ArialMT-30"/>
       <use x="111.230469" xlink:href="#ArialMT-30"/>
      </g>
     </g>
    </g>
    <g id="ytick_4">
     <g id="line2d_18">
      <path clip-path="url(#p65ff9ee8d1)" d="M 61.758594 168.541623 
L 853.845688 168.541623 
" style="fill:none;stroke:#cccccc;stroke-linecap:round;stroke-width:0.8;"/>
     </g>
     <g id="text_19">
      <!-- 150 -->
      <g style="fill:#262626;" transform="translate(29.734375 173.909982)scale(0.15 -0.15)">
       <use xlink:href="#ArialMT-31"/>
       <use x="55.615234" xlink:href="#ArialMT-35"/>
       <use x="111.230469" xlink:href="#ArialMT-30"/>
      </g>
     </g>
    </g>
    <g id="ytick_5">
     <g id="line2d_19">
      <path clip-path="url(#p65ff9ee8d1)" d="M 61.758594 75.104919 
L 853.845688 75.104919 
" style="fill:none;stroke:#cccccc;stroke-linecap:round;stroke-width:0.8;"/>
     </g>
     <g id="text_20">
      <!-- 200 -->
      <g style="fill:#262626;" transform="translate(29.734375 80.473278)scale(0.15 -0.15)">
       <use xlink:href="#ArialMT-32"/>
       <use x="55.615234" xlink:href="#ArialMT-30"/>
       <use x="111.230469" xlink:href="#ArialMT-30"/>
      </g>
     </g>
    </g>
    <g id="text_21">
     <!-- Words Spoken -->
     <defs>
      <path d="M 20.21875 0 
L 1.21875 71.578125 
L 10.9375 71.578125 
L 21.828125 24.65625 
Q 23.578125 17.28125 24.859375 10.015625 
Q 27.59375 21.484375 28.078125 23.25 
L 41.703125 71.578125 
L 53.125 71.578125 
L 63.375 35.359375 
Q 67.234375 21.875 68.953125 10.015625 
Q 70.3125 16.796875 72.515625 25.59375 
L 83.734375 71.578125 
L 93.265625 71.578125 
L 73.640625 0 
L 64.5 0 
L 49.421875 54.546875 
Q 47.515625 61.375 47.171875 62.9375 
Q 46.046875 58.015625 45.0625 54.546875 
L 29.890625 0 
z
" id="ArialMT-57"/>
      <path d="M 40.234375 0 
L 40.234375 6.546875 
Q 35.296875 -1.171875 25.734375 -1.171875 
Q 19.53125 -1.171875 14.328125 2.25 
Q 9.125 5.671875 6.265625 11.796875 
Q 3.421875 17.921875 3.421875 25.875 
Q 3.421875 33.640625 6 39.96875 
Q 8.59375 46.296875 13.765625 49.65625 
Q 18.953125 53.03125 25.34375 53.03125 
Q 30.03125 53.03125 33.6875 51.046875 
Q 37.359375 49.078125 39.65625 45.90625 
L 39.65625 71.578125 
L 48.390625 71.578125 
L 48.390625 0 
z
M 12.453125 25.875 
Q 12.453125 15.921875 16.640625 10.984375 
Q 20.84375 6.0625 26.5625 6.0625 
Q 32.328125 6.0625 36.34375 10.765625 
Q 40.375 15.484375 40.375 25.140625 
Q 40.375 35.796875 36.265625 40.765625 
Q 32.171875 45.75 26.171875 45.75 
Q 20.3125 45.75 16.375 40.96875 
Q 12.453125 36.1875 12.453125 25.875 
z
" id="ArialMT-64"/>
      <path d="M 4.5 23 
L 13.421875 23.78125 
Q 14.0625 18.40625 16.375 14.96875 
Q 18.703125 11.53125 23.578125 9.40625 
Q 28.46875 7.28125 34.578125 7.28125 
Q 39.984375 7.28125 44.140625 8.890625 
Q 48.296875 10.5 50.3125 13.296875 
Q 52.34375 16.109375 52.34375 19.4375 
Q 52.34375 22.796875 50.390625 25.3125 
Q 48.4375 27.828125 43.953125 29.546875 
Q 41.0625 30.671875 31.203125 33.03125 
Q 21.34375 35.40625 17.390625 37.5 
Q 12.25 40.1875 9.734375 44.15625 
Q 7.234375 48.140625 7.234375 53.078125 
Q 7.234375 58.5 10.296875 63.203125 
Q 13.375 67.921875 19.28125 70.359375 
Q 25.203125 72.796875 32.421875 72.796875 
Q 40.375 72.796875 46.453125 70.234375 
Q 52.546875 67.671875 55.8125 62.6875 
Q 59.078125 57.71875 59.328125 51.421875 
L 50.25 50.734375 
Q 49.515625 57.515625 45.28125 60.984375 
Q 41.0625 64.453125 32.8125 64.453125 
Q 24.21875 64.453125 20.28125 61.296875 
Q 16.359375 58.15625 16.359375 53.71875 
Q 16.359375 49.859375 19.140625 47.359375 
Q 21.875 44.875 33.421875 42.265625 
Q 44.96875 39.65625 49.265625 37.703125 
Q 55.515625 34.8125 58.484375 30.390625 
Q 61.46875 25.984375 61.46875 20.21875 
Q 61.46875 14.5 58.203125 9.4375 
Q 54.9375 4.390625 48.796875 1.578125 
Q 42.671875 -1.21875 35.015625 -1.21875 
Q 25.296875 -1.21875 18.71875 1.609375 
Q 12.15625 4.4375 8.421875 10.125 
Q 4.6875 15.828125 4.5 23 
z
" id="ArialMT-53"/>
      <path d="M 6.59375 -19.875 
L 6.59375 51.859375 
L 14.59375 51.859375 
L 14.59375 45.125 
Q 17.4375 49.078125 21 51.046875 
Q 24.5625 53.03125 29.640625 53.03125 
Q 36.28125 53.03125 41.359375 49.609375 
Q 46.4375 46.1875 49.015625 39.953125 
Q 51.609375 33.734375 51.609375 26.3125 
Q 51.609375 18.359375 48.75 11.984375 
Q 45.90625 5.609375 40.453125 2.21875 
Q 35.015625 -1.171875 29 -1.171875 
Q 24.609375 -1.171875 21.109375 0.6875 
Q 17.625 2.546875 15.375 5.375 
L 15.375 -19.875 
z
M 14.546875 25.640625 
Q 14.546875 15.625 18.59375 10.84375 
Q 22.65625 6.0625 28.421875 6.0625 
Q 34.28125 6.0625 38.453125 11.015625 
Q 42.625 15.96875 42.625 26.375 
Q 42.625 36.28125 38.546875 41.203125 
Q 34.46875 46.140625 28.8125 46.140625 
Q 23.1875 46.140625 18.859375 40.890625 
Q 14.546875 35.640625 14.546875 25.640625 
z
" id="ArialMT-70"/>
      <path d="M 6.640625 0 
L 6.640625 71.578125 
L 15.4375 71.578125 
L 15.4375 30.765625 
L 36.234375 51.859375 
L 47.609375 51.859375 
L 27.78125 32.625 
L 49.609375 0 
L 38.765625 0 
L 21.625 26.515625 
L 15.4375 20.5625 
L 15.4375 0 
z
" id="ArialMT-6b"/>
     </defs>
     <g style="fill:#262626;" transform="translate(21.759375 314.478437)rotate(-90)scale(0.2 -0.2)">
      <use xlink:href="#ArialMT-57"/>
      <use x="94.369141" xlink:href="#ArialMT-6f"/>
      <use x="149.984375" xlink:href="#ArialMT-72"/>
      <use x="183.285156" xlink:href="#ArialMT-64"/>
      <use x="238.900391" xlink:href="#ArialMT-73"/>
      <use x="288.900391" xlink:href="#ArialMT-20"/>
      <use x="316.683594" xlink:href="#ArialMT-53"/>
      <use x="383.382812" xlink:href="#ArialMT-70"/>
      <use x="438.998047" xlink:href="#ArialMT-6f"/>
      <use x="494.613281" xlink:href="#ArialMT-6b"/>
      <use x="544.613281" xlink:href="#ArialMT-65"/>
      <use x="600.228516" xlink:href="#ArialMT-6e"/>
     </g>
    </g>
   </g>
   <g id="line2d_20">
    <path clip-path="url(#p65ff9ee8d1)" d="M 112.092486 448.851733 
L 112.092486 446.982999 
L 171.203464 446.982999 
L 171.203464 445.114265 
L 214.193265 445.114265 
L 214.193265 443.245531 
L 301.96411 443.245531 
L 301.96411 439.508063 
L 357.492604 439.508063 
L 357.492604 437.639329 
L 371.822538 437.639329 
L 371.822538 435.770594 
L 386.152471 435.770594 
L 386.152471 433.90186 
L 409.438614 433.90186 
L 409.438614 432.033126 
L 420.186064 432.033126 
L 420.186064 430.164392 
L 430.933515 430.164392 
L 430.933515 428.295658 
L 457.802141 428.295658 
L 457.802141 426.426924 
L 482.879525 426.426924 
L 482.879525 424.55819 
L 484.670767 424.55819 
L 484.670767 422.689456 
L 495.418217 422.689456 
L 495.418217 420.820722 
L 506.165667 420.820722 
L 506.165667 418.951988 
L 507.956909 418.951988 
L 507.956909 417.083254 
L 509.748151 417.083254 
L 509.748151 415.21452 
L 513.330634 415.21452 
L 513.330634 413.345786 
L 518.70436 413.345786 
L 518.70436 411.477052 
L 520.495601 411.477052 
L 520.495601 409.608317 
L 524.078085 409.608317 
L 524.078085 407.739583 
L 540.19926 407.739583 
L 540.19926 405.870849 
L 565.276645 405.870849 
L 565.276645 404.002115 
L 570.65037 404.002115 
L 570.65037 402.133381 
L 601.101479 402.133381 
L 601.101479 400.264647 
L 604.683963 400.264647 
L 604.683963 398.395913 
L 606.475204 398.395913 
L 606.475204 394.658445 
L 611.84893 394.658445 
L 611.84893 392.789711 
L 617.222655 392.789711 
L 617.222655 390.920977 
L 619.013896 390.920977 
L 619.013896 389.052243 
L 622.59638 389.052243 
L 622.59638 387.183509 
L 626.178863 387.183509 
L 626.178863 385.314775 
L 627.970105 385.314775 
L 627.970105 383.446041 
L 629.761347 383.446041 
L 629.761347 379.708572 
L 631.552589 379.708572 
L 631.552589 370.364902 
L 636.926314 370.364902 
L 636.926314 368.496168 
L 638.717556 368.496168 
L 638.717556 364.7587 
L 642.300039 364.7587 
L 642.300039 362.889966 
L 647.673764 362.889966 
L 647.673764 355.415029 
L 649.465006 355.415029 
L 649.465006 351.677561 
L 651.256248 351.677561 
L 651.256248 338.596423 
L 653.047489 338.596423 
L 653.047489 334.858955 
L 654.838731 334.858955 
L 654.838731 331.121487 
L 656.629973 331.121487 
L 656.629973 327.384018 
L 658.421215 327.384018 
L 658.421215 323.64655 
L 660.212456 323.64655 
L 660.212456 319.909082 
L 669.168665 319.909082 
L 669.168665 314.30288 
L 670.959907 314.30288 
L 670.959907 308.696678 
L 672.751148 308.696678 
L 672.751148 306.827944 
L 674.54239 306.827944 
L 674.54239 304.95921 
L 676.333632 304.95921 
L 676.333632 301.221741 
L 681.707357 301.221741 
L 681.707357 295.615539 
L 685.289841 295.615539 
L 685.289841 293.746805 
L 687.081082 293.746805 
L 687.081082 291.878071 
L 688.872324 291.878071 
L 688.872324 290.009337 
L 690.663566 290.009337 
L 690.663566 288.140603 
L 692.454807 288.140603 
L 692.454807 280.665667 
L 694.246049 280.665667 
L 694.246049 271.321996 
L 703.202258 271.321996 
L 703.202258 265.715794 
L 704.9935 265.715794 
L 704.9935 261.978326 
L 713.949708 261.978326 
L 713.949708 250.765922 
L 717.532192 250.765922 
L 717.532192 245.159719 
L 719.323433 245.159719 
L 719.323433 239.553517 
L 721.114675 239.553517 
L 721.114675 233.947315 
L 722.905917 233.947315 
L 722.905917 228.341113 
L 726.4884 228.341113 
L 726.4884 224.603645 
L 728.279642 224.603645 
L 728.279642 220.866176 
L 730.070884 220.866176 
L 730.070884 218.997442 
L 731.862126 218.997442 
L 731.862126 207.785038 
L 735.444609 207.785038 
L 735.444609 205.916304 
L 737.235851 205.916304 
L 737.235851 202.178836 
L 739.027092 202.178836 
L 739.027092 200.310102 
L 740.818334 200.310102 
L 740.818334 192.835165 
L 742.609576 192.835165 
L 742.609576 185.360229 
L 744.400818 185.360229 
L 744.400818 183.491495 
L 747.983301 183.491495 
L 747.983301 176.016559 
L 749.774543 176.016559 
L 749.774543 174.147825 
L 751.565785 174.147825 
L 751.565785 161.066686 
L 753.357026 161.066686 
L 753.357026 159.197952 
L 755.148268 159.197952 
L 755.148268 155.460484 
L 756.93951 155.460484 
L 756.93951 146.116814 
L 758.730752 146.116814 
L 758.730752 144.24808 
L 760.521993 144.24808 
L 760.521993 131.166941 
L 764.104477 131.166941 
L 764.104477 129.298207 
L 767.68696 129.298207 
L 767.68696 125.560739 
L 769.478202 125.560739 
L 769.478202 121.823271 
L 771.269444 121.823271 
L 771.269444 118.085803 
L 773.060685 118.085803 
L 773.060685 116.217069 
L 774.851927 116.217069 
L 774.851927 110.610866 
L 776.643169 110.610866 
L 776.643169 106.873398 
L 778.434411 106.873398 
L 778.434411 101.267196 
L 780.225652 101.267196 
L 780.225652 99.398462 
L 783.808136 99.398462 
L 783.808136 97.529728 
L 785.599378 97.529728 
L 785.599378 91.923526 
L 794.555586 91.923526 
L 794.555586 90.054792 
L 796.346828 90.054792 
L 796.346828 88.186058 
L 798.13807 88.186058 
L 798.13807 86.317323 
L 799.929311 86.317323 
L 799.929311 84.448589 
L 801.720553 84.448589 
L 801.720553 78.842387 
L 803.511795 78.842387 
L 803.511795 75.104919 
L 805.303037 75.104919 
L 805.303037 73.236185 
L 807.094278 73.236185 
L 807.094278 71.367451 
L 810.676762 71.367451 
L 810.676762 58.286312 
L 812.468003 58.286312 
L 812.468003 56.417578 
L 814.259245 56.417578 
L 814.259245 54.548844 
L 816.050487 54.548844 
L 816.050487 48.942642 
L 817.841729 48.942642 
L 817.841729 48.942642 
" style="fill:none;stroke:#1f77b4;stroke-linecap:round;stroke-width:2.5;"/>
   </g>
   <g id="line2d_21">
    <path clip-path="url(#p65ff9ee8d1)" d="M 112.092486 448.851733 
L 301.96411 448.851733 
L 301.96411 446.982999 
L 346.745153 446.982999 
L 346.745153 445.114265 
L 350.327637 445.114265 
L 350.327637 443.245531 
L 382.569988 443.245531 
L 382.569988 441.376797 
L 391.526197 441.376797 
L 391.526197 439.508063 
L 420.186064 439.508063 
L 420.186064 437.639329 
L 423.768548 437.639329 
L 423.768548 435.770594 
L 430.933515 435.770594 
L 430.933515 433.90186 
L 441.680965 433.90186 
L 441.680965 432.033126 
L 445.263449 432.033126 
L 445.263449 430.164392 
L 447.05469 430.164392 
L 447.05469 428.295658 
L 461.384624 428.295658 
L 461.384624 426.426924 
L 541.990502 426.426924 
L 541.990502 424.55819 
L 550.946711 424.55819 
L 550.946711 420.820722 
L 554.529194 420.820722 
L 554.529194 418.951988 
L 556.320436 418.951988 
L 556.320436 417.083254 
L 558.111678 417.083254 
L 558.111678 415.21452 
L 563.485403 415.21452 
L 563.485403 413.345786 
L 595.727754 413.345786 
L 595.727754 409.608317 
L 597.518996 409.608317 
L 597.518996 407.739583 
L 601.101479 407.739583 
L 601.101479 405.870849 
L 602.892721 405.870849 
L 602.892721 404.002115 
L 611.84893 404.002115 
L 611.84893 400.264647 
L 613.640171 400.264647 
L 613.640171 394.658445 
L 619.013896 394.658445 
L 619.013896 392.789711 
L 631.552589 392.789711 
L 631.552589 390.920977 
L 633.34383 390.920977 
L 633.34383 385.314775 
L 653.047489 385.314775 
L 653.047489 383.446041 
L 658.421215 383.446041 
L 658.421215 381.577306 
L 660.212456 381.577306 
L 660.212456 379.708572 
L 670.959907 379.708572 
L 670.959907 375.971104 
L 674.54239 375.971104 
L 674.54239 374.10237 
L 676.333632 374.10237 
L 676.333632 372.233636 
L 683.498599 372.233636 
L 683.498599 370.364902 
L 688.872324 370.364902 
L 688.872324 368.496168 
L 703.202258 368.496168 
L 703.202258 364.7587 
L 706.784741 364.7587 
L 706.784741 362.889966 
L 708.575983 362.889966 
L 708.575983 359.152498 
L 710.367225 359.152498 
L 710.367225 357.283764 
L 712.158467 357.283764 
L 712.158467 355.415029 
L 713.949708 355.415029 
L 713.949708 353.546295 
L 719.323433 353.546295 
L 719.323433 347.940093 
L 721.114675 347.940093 
L 721.114675 346.071359 
L 724.697159 346.071359 
L 724.697159 344.202625 
L 726.4884 344.202625 
L 726.4884 342.333891 
L 731.862126 342.333891 
L 731.862126 336.727689 
L 733.653367 336.727689 
L 733.653367 332.990221 
L 737.235851 332.990221 
L 737.235851 329.252752 
L 739.027092 329.252752 
L 739.027092 321.777816 
L 740.818334 321.777816 
L 740.818334 314.30288 
L 742.609576 314.30288 
L 742.609576 310.565412 
L 744.400818 310.565412 
L 744.400818 308.696678 
L 746.192059 308.696678 
L 746.192059 306.827944 
L 747.983301 306.827944 
L 747.983301 299.353007 
L 749.774543 299.353007 
L 749.774543 297.484273 
L 751.565785 297.484273 
L 751.565785 290.009337 
L 753.357026 290.009337 
L 753.357026 286.271869 
L 755.148268 286.271869 
L 755.148268 284.403135 
L 758.730752 284.403135 
L 758.730752 280.665667 
L 760.521993 280.665667 
L 760.521993 275.059464 
L 762.313235 275.059464 
L 762.313235 269.453262 
L 764.104477 269.453262 
L 764.104477 265.715794 
L 765.895718 265.715794 
L 765.895718 263.84706 
L 767.68696 263.84706 
L 767.68696 260.109592 
L 774.851927 260.109592 
L 774.851927 258.240858 
L 778.434411 258.240858 
L 778.434411 256.372124 
L 780.225652 256.372124 
L 780.225652 254.50339 
L 782.016894 254.50339 
L 782.016894 250.765922 
L 783.808136 250.765922 
L 783.808136 247.028453 
L 785.599378 247.028453 
L 785.599378 241.422251 
L 787.390619 241.422251 
L 787.390619 237.684783 
L 789.181861 237.684783 
L 789.181861 235.816049 
L 790.973103 235.816049 
L 790.973103 233.947315 
L 792.764344 233.947315 
L 792.764344 232.078581 
L 796.346828 232.078581 
L 796.346828 228.341113 
L 798.13807 228.341113 
L 798.13807 226.472379 
L 799.929311 226.472379 
L 799.929311 224.603645 
L 801.720553 224.603645 
L 801.720553 222.734911 
L 803.511795 222.734911 
L 803.511795 220.866176 
L 805.303037 220.866176 
L 805.303037 217.128708 
L 807.094278 217.128708 
L 807.094278 209.653772 
L 810.676762 209.653772 
L 810.676762 200.310102 
L 814.259245 200.310102 
L 814.259245 196.572634 
L 816.050487 196.572634 
L 816.050487 183.491495 
L 817.841729 183.491495 
L 817.841729 183.491495 
" style="fill:none;stroke:#ff7f0e;stroke-linecap:round;stroke-width:2.5;"/>
   </g>
   <g id="line2d_22">
    <path clip-path="url(#p65ff9ee8d1)" d="M 112.092486 448.851733 
L 362.866329 448.851733 
L 362.866329 446.982999 
L 454.219657 446.982999 
L 454.219657 445.114265 
L 651.256248 445.114265 
L 651.256248 443.245531 
L 653.047489 443.245531 
L 653.047489 441.376797 
L 660.212456 441.376797 
L 660.212456 437.639329 
L 663.79494 437.639329 
L 663.79494 435.770594 
L 665.586182 435.770594 
L 665.586182 433.90186 
L 669.168665 433.90186 
L 669.168665 432.033126 
L 685.289841 432.033126 
L 685.289841 430.164392 
L 687.081082 430.164392 
L 687.081082 428.295658 
L 722.905917 428.295658 
L 722.905917 426.426924 
L 731.862126 426.426924 
L 731.862126 424.55819 
L 798.13807 424.55819 
L 798.13807 422.689456 
L 799.929311 422.689456 
L 799.929311 420.820722 
L 810.676762 420.820722 
L 810.676762 418.951988 
L 812.468003 418.951988 
L 812.468003 407.739583 
L 816.050487 407.739583 
L 816.050487 405.870849 
L 817.841729 405.870849 
L 817.841729 405.870849 
" style="fill:none;stroke:#2ca02c;stroke-linecap:round;stroke-width:2.5;"/>
   </g>
   <g id="line2d_23">
    <path clip-path="url(#p65ff9ee8d1)" d="M 112.092486 448.851733 
L 115.67497 448.851733 
L 115.67497 446.982999 
L 144.334838 446.982999 
L 144.334838 445.114265 
L 158.664771 445.114265 
L 158.664771 443.245531 
L 160.456013 443.245531 
L 160.456013 441.376797 
L 171.203464 441.376797 
L 171.203464 439.508063 
L 276.886726 439.508063 
L 276.886726 437.639329 
L 285.842934 437.639329 
L 285.842934 435.770594 
L 298.381627 435.770594 
L 298.381627 433.90186 
L 301.96411 433.90186 
L 301.96411 422.689456 
L 318.085286 422.689456 
L 318.085286 420.820722 
L 321.667769 420.820722 
L 321.667769 418.951988 
L 341.371428 418.951988 
L 341.371428 415.21452 
L 346.745153 415.21452 
L 346.745153 413.345786 
L 355.701362 413.345786 
L 355.701362 411.477052 
L 359.283845 411.477052 
L 359.283845 407.739583 
L 366.448812 407.739583 
L 366.448812 405.870849 
L 384.36123 405.870849 
L 384.36123 404.002115 
L 387.943713 404.002115 
L 387.943713 402.133381 
L 389.734955 402.133381 
L 389.734955 400.264647 
L 398.691163 400.264647 
L 398.691163 398.395913 
L 443.472207 398.395913 
L 443.472207 394.658445 
L 447.05469 394.658445 
L 447.05469 392.789711 
L 468.549591 392.789711 
L 468.549591 389.052243 
L 500.791942 389.052243 
L 500.791942 387.183509 
L 529.45181 387.183509 
L 529.45181 385.314775 
L 547.364227 385.314775 
L 547.364227 383.446041 
L 561.694161 383.446041 
L 561.694161 381.577306 
L 608.266446 381.577306 
L 608.266446 379.708572 
L 633.34383 379.708572 
L 633.34383 377.839838 
L 642.300039 377.839838 
L 642.300039 375.971104 
L 694.246049 375.971104 
L 694.246049 374.10237 
L 719.323433 374.10237 
L 719.323433 372.233636 
L 751.565785 372.233636 
L 751.565785 370.364902 
L 799.929311 370.364902 
L 799.929311 368.496168 
L 817.841729 368.496168 
L 817.841729 368.496168 
" style="fill:none;stroke:#d62728;stroke-linecap:round;stroke-width:2.5;"/>
   </g>
   <g id="line2d_24">
    <path clip-path="url(#p65ff9ee8d1)" d="M 112.092486 448.851733 
L 301.96411 448.851733 
L 301.96411 446.982999 
L 386.152471 446.982999 
L 386.152471 445.114265 
L 407.647372 445.114265 
L 407.647372 443.245531 
L 413.021097 443.245531 
L 413.021097 441.376797 
L 414.812339 441.376797 
L 414.812339 439.508063 
L 420.186064 439.508063 
L 420.186064 437.639329 
L 475.714558 437.639329 
L 475.714558 435.770594 
L 497.209459 435.770594 
L 497.209459 433.90186 
L 558.111678 433.90186 
L 558.111678 432.033126 
L 586.771545 432.033126 
L 586.771545 430.164392 
L 627.970105 430.164392 
L 627.970105 428.295658 
L 817.841729 428.295658 
L 817.841729 428.295658 
" style="fill:none;stroke:#9467bd;stroke-linecap:round;stroke-width:2.5;"/>
   </g>
   <g id="patch_10">
    <path d="M 61.758594 468.847187 
L 61.758594 28.947187 
" style="fill:none;stroke:#262626;stroke-linecap:square;stroke-linejoin:miter;stroke-width:0.8;"/>
   </g>
   <g id="patch_11">
    <path d="M 853.845688 468.847187 
L 853.845688 28.947187 
" style="fill:none;stroke:#262626;stroke-linecap:square;stroke-linejoin:miter;stroke-width:0.8;"/>
   </g>
   <g id="patch_12">
    <path d="M 61.758594 468.847187 
L 853.845687 468.847187 
" style="fill:none;stroke:#262626;stroke-linecap:square;stroke-linejoin:miter;stroke-width:0.8;"/>
   </g>
   <g id="patch_13">
    <path d="M 61.758594 28.947187 
L 853.845687 28.947187 
" style="fill:none;stroke:#262626;stroke-linecap:square;stroke-linejoin:miter;stroke-width:0.8;"/>
   </g>
   <g id="text_22">
    <!-- Theodore's Words -->
    <defs>
     <path d="M 25.921875 0 
L 25.921875 63.140625 
L 2.34375 63.140625 
L 2.34375 71.578125 
L 59.078125 71.578125 
L 59.078125 63.140625 
L 35.40625 63.140625 
L 35.40625 0 
z
" id="ArialMT-54"/>
     <path d="M 6.640625 46.234375 
L 4.390625 59.625 
L 4.390625 71.578125 
L 14.40625 71.578125 
L 14.40625 59.625 
L 12.0625 46.234375 
z
" id="ArialMT-27"/>
    </defs>
    <g style="fill:#262626;" transform="translate(368.284484 22.947187)scale(0.22 -0.22)">
     <use xlink:href="#ArialMT-54"/>
     <use x="61.083984" xlink:href="#ArialMT-68"/>
     <use x="116.699219" xlink:href="#ArialMT-65"/>
     <use x="172.314453" xlink:href="#ArialMT-6f"/>
     <use x="227.929688" xlink:href="#ArialMT-64"/>
     <use x="283.544922" xlink:href="#ArialMT-6f"/>
     <use x="339.160156" xlink:href="#ArialMT-72"/>
     <use x="372.460938" xlink:href="#ArialMT-65"/>
     <use x="428.076172" xlink:href="#ArialMT-27"/>
     <use x="447.167969" xlink:href="#ArialMT-73"/>
     <use x="497.167969" xlink:href="#ArialMT-20"/>
     <use x="524.951172" xlink:href="#ArialMT-57"/>
     <use x="619.320312" xlink:href="#ArialMT-6f"/>
     <use x="674.935547" xlink:href="#ArialMT-72"/>
     <use x="708.236328" xlink:href="#ArialMT-64"/>
     <use x="763.851562" xlink:href="#ArialMT-73"/>
    </g>
   </g>
   <g id="legend_1">
    <g id="patch_14">
     <path d="M 74.358594 171.515625 
L 193.622656 171.515625 
Q 197.222656 171.515625 197.222656 167.915625 
L 197.222656 41.547187 
Q 197.222656 37.947187 193.622656 37.947187 
L 74.358594 37.947187 
Q 70.758594 37.947187 70.758594 41.547187 
L 70.758594 167.915625 
Q 70.758594 171.515625 74.358594 171.515625 
z
" style="fill:#ffffff;stroke:#000000;stroke-linejoin:miter;"/>
    </g>
    <g id="text_23">
     <!-- Chinese -->
     <defs>
      <path d="M 58.796875 25.09375 
L 68.265625 22.703125 
Q 65.28125 11.03125 57.546875 4.90625 
Q 49.8125 -1.21875 38.625 -1.21875 
Q 27.046875 -1.21875 19.796875 3.484375 
Q 12.546875 8.203125 8.765625 17.140625 
Q 4.984375 26.078125 4.984375 36.328125 
Q 4.984375 47.515625 9.25 55.828125 
Q 13.53125 64.15625 21.40625 68.46875 
Q 29.296875 72.796875 38.765625 72.796875 
Q 49.515625 72.796875 56.828125 67.328125 
Q 64.15625 61.859375 67.046875 51.953125 
L 57.71875 49.75 
Q 55.21875 57.5625 50.484375 61.125 
Q 45.75 64.703125 38.578125 64.703125 
Q 30.328125 64.703125 24.78125 60.734375 
Q 19.234375 56.78125 16.984375 50.109375 
Q 14.75 43.453125 14.75 36.375 
Q 14.75 27.25 17.40625 20.4375 
Q 20.0625 13.625 25.671875 10.25 
Q 31.296875 6.890625 37.84375 6.890625 
Q 45.796875 6.890625 51.3125 11.46875 
Q 56.84375 16.0625 58.796875 25.09375 
z
" id="ArialMT-43"/>
      <path d="M 6.640625 61.46875 
L 6.640625 71.578125 
L 15.4375 71.578125 
L 15.4375 61.46875 
z
M 6.640625 0 
L 6.640625 51.859375 
L 15.4375 51.859375 
L 15.4375 0 
z
" id="ArialMT-69"/>
     </defs>
     <g style="fill:#1f77b4;" transform="translate(77.958594 58.03125)scale(0.18 -0.18)">
      <use xlink:href="#ArialMT-43"/>
      <use x="72.216797" xlink:href="#ArialMT-68"/>
      <use x="127.832031" xlink:href="#ArialMT-69"/>
      <use x="150.048828" xlink:href="#ArialMT-6e"/>
      <use x="205.664062" xlink:href="#ArialMT-65"/>
      <use x="261.279297" xlink:href="#ArialMT-73"/>
      <use x="311.279297" xlink:href="#ArialMT-65"/>
     </g>
    </g>
    <g id="text_24">
     <!-- English -->
     <defs>
      <path d="M 7.90625 0 
L 7.90625 71.578125 
L 59.671875 71.578125 
L 59.671875 63.140625 
L 17.390625 63.140625 
L 17.390625 41.21875 
L 56.984375 41.21875 
L 56.984375 32.8125 
L 17.390625 32.8125 
L 17.390625 8.453125 
L 61.328125 8.453125 
L 61.328125 0 
z
" id="ArialMT-45"/>
      <path d="M 6.390625 0 
L 6.390625 71.578125 
L 15.1875 71.578125 
L 15.1875 0 
z
" id="ArialMT-6c"/>
     </defs>
     <g style="fill:#ff7f0e;" transform="translate(77.958594 83.492812)scale(0.18 -0.18)">
      <use xlink:href="#ArialMT-45"/>
      <use x="66.699219" xlink:href="#ArialMT-6e"/>
      <use x="122.314453" xlink:href="#ArialMT-67"/>
      <use x="177.929688" xlink:href="#ArialMT-6c"/>
      <use x="200.146484" xlink:href="#ArialMT-69"/>
      <use x="222.363281" xlink:href="#ArialMT-73"/>
      <use x="272.363281" xlink:href="#ArialMT-68"/>
     </g>
    </g>
    <g id="text_25">
     <!-- Spanish -->
     <g style="fill:#2ca02c;" transform="translate(77.958594 109.384687)scale(0.18 -0.18)">
      <use xlink:href="#ArialMT-53"/>
      <use x="66.699219" xlink:href="#ArialMT-70"/>
      <use x="122.314453" xlink:href="#ArialMT-61"/>
      <use x="177.929688" xlink:href="#ArialMT-6e"/>
      <use x="233.544922" xlink:href="#ArialMT-69"/>
      <use x="255.761719" xlink:href="#ArialMT-73"/>
      <use x="305.761719" xlink:href="#ArialMT-68"/>
     </g>
    </g>
    <g id="text_26">
     <!-- Sign -->
     <g style="fill:#d62728;" transform="translate(77.958594 135.065625)scale(0.18 -0.18)">
      <use xlink:href="#ArialMT-53"/>
      <use x="66.699219" xlink:href="#ArialMT-69"/>
      <use x="88.916016" xlink:href="#ArialMT-67"/>
      <use x="144.53125" xlink:href="#ArialMT-6e"/>
     </g>
    </g>
    <g id="text_27">
     <!-- Animal Sound -->
     <defs>
      <path d="M 6.59375 0 
L 6.59375 51.859375 
L 14.453125 51.859375 
L 14.453125 44.578125 
Q 16.890625 48.390625 20.9375 50.703125 
Q 25 53.03125 30.171875 53.03125 
Q 35.9375 53.03125 39.625 50.640625 
Q 43.3125 48.25 44.828125 43.953125 
Q 50.984375 53.03125 60.84375 53.03125 
Q 68.5625 53.03125 72.703125 48.75 
Q 76.859375 44.484375 76.859375 35.59375 
L 76.859375 0 
L 68.109375 0 
L 68.109375 32.671875 
Q 68.109375 37.9375 67.25 40.25 
Q 66.40625 42.578125 64.15625 43.984375 
Q 61.921875 45.40625 58.890625 45.40625 
Q 53.421875 45.40625 49.796875 41.765625 
Q 46.1875 38.140625 46.1875 30.125 
L 46.1875 0 
L 37.40625 0 
L 37.40625 33.6875 
Q 37.40625 39.546875 35.25 42.46875 
Q 33.109375 45.40625 28.21875 45.40625 
Q 24.515625 45.40625 21.359375 43.453125 
Q 18.21875 41.5 16.796875 37.734375 
Q 15.375 33.984375 15.375 26.90625 
L 15.375 0 
z
" id="ArialMT-6d"/>
      <path d="M 40.578125 0 
L 40.578125 7.625 
Q 34.515625 -1.171875 24.125 -1.171875 
Q 19.53125 -1.171875 15.546875 0.578125 
Q 11.578125 2.34375 9.640625 5 
Q 7.71875 7.671875 6.9375 11.53125 
Q 6.390625 14.109375 6.390625 19.734375 
L 6.390625 51.859375 
L 15.1875 51.859375 
L 15.1875 23.09375 
Q 15.1875 16.21875 15.71875 13.8125 
Q 16.546875 10.359375 19.234375 8.375 
Q 21.921875 6.390625 25.875 6.390625 
Q 29.828125 6.390625 33.296875 8.421875 
Q 36.765625 10.453125 38.203125 13.9375 
Q 39.65625 17.4375 39.65625 24.078125 
L 39.65625 51.859375 
L 48.4375 51.859375 
L 48.4375 0 
z
" id="ArialMT-75"/>
     </defs>
     <g style="fill:#9467bd;" transform="translate(77.958594 160.738125)scale(0.18 -0.18)">
      <use xlink:href="#ArialMT-41"/>
      <use x="66.699219" xlink:href="#ArialMT-6e"/>
      <use x="122.314453" xlink:href="#ArialMT-69"/>
      <use x="144.53125" xlink:href="#ArialMT-6d"/>
      <use x="227.832031" xlink:href="#ArialMT-61"/>
      <use x="283.447266" xlink:href="#ArialMT-6c"/>
      <use x="305.664062" xlink:href="#ArialMT-20"/>
      <use x="333.447266" xlink:href="#ArialMT-53"/>
      <use x="400.146484" xlink:href="#ArialMT-6f"/>
      <use x="455.761719" xlink:href="#ArialMT-75"/>
      <use x="511.376953" xlink:href="#ArialMT-6e"/>
      <use x="566.992188" xlink:href="#ArialMT-64"/>
     </g>
    </g>
   </g>
  </g>
 </g>
 <defs>
  <clipPath id="p65ff9ee8d1">
   <rect height="439.9" width="792.087094" x="61.758594" y="28.947187"/>
  </clipPath>
 </defs>
</svg>
