<?xml version="1.0" encoding="utf-8" standalone="no"?>
<!DOCTYPE svg PUBLIC "-//W3C//DTD SVG 1.1//EN"
  "http://www.w3.org/Graphics/SVG/1.1/DTD/svg11.dtd">
<!-- Created with matplotlib (http://matplotlib.org/) -->
<svg height="519.29pt" version="1.1" viewBox="0 0 866.957891 519.29" width="866.957891pt" xmlns="http://www.w3.org/2000/svg" xmlns:xlink="http://www.w3.org/1999/xlink">
 <defs>
  <style type="text/css">
*{stroke-linecap:butt;stroke-linejoin:round;}
  </style>
 </defs>
 <g id="figure_1">
  <g id="patch_1">
   <path d="M 0 519.29
L 866.957891 519.29
L 866.957891 0
L 0 0
z
" style="fill:#ffffff;"/>
  </g>
  <g id="axes_1">
   <g id="patch_2">
    <path d="M 66.1875 468.816562
L 856.257891 468.816562
L 856.257891 29.916562
L 66.1875 29.916562
z
" style="fill:#ffffff;"/>
   </g>
   <g id="patch_3">
    <path clip-path="url(#p6b46f71daf)" d="M 102.09979 468.816562
L 102.09979 29.916562
L 157.763841 29.916562
L 157.763841 468.816562
z
" style="fill:#f7f7f7;stroke:#f7f7f7;stroke-linejoin:miter;"/>
   </g>
   <g id="patch_4">
    <path clip-path="url(#p6b46f71daf)" d="M 211.632276 468.816562
L 211.632276 29.916562
L 267.296327 29.916562
L 267.296327 468.816562
z
" style="fill:#f7f7f7;stroke:#f7f7f7;stroke-linejoin:miter;"/>
   </g>
   <g id="patch_5">
    <path clip-path="url(#p6b46f71daf)" d="M 321.164762 468.816562
L 321.164762 29.916562
L 376.828813 29.916562
L 376.828813 468.816562
z
" style="fill:#f7f7f7;stroke:#f7f7f7;stroke-linejoin:miter;"/>
   </g>
   <g id="patch_6">
    <path clip-path="url(#p6b46f71daf)" d="M 432.492863 468.816562
L 432.492863 29.916562
L 482.77007 29.916562
L 482.77007 468.816562
z
" style="fill:#f7f7f7;stroke:#f7f7f7;stroke-linejoin:miter;"/>
   </g>
   <g id="patch_7">
    <path clip-path="url(#p6b46f71daf)" d="M 538.43412 468.816562
L 538.43412 29.916562
L 592.302556 29.916562
L 592.302556 468.816562
z
" style="fill:#f7f7f7;stroke:#f7f7f7;stroke-linejoin:miter;"/>
   </g>
   <g id="patch_8">
    <path clip-path="url(#p6b46f71daf)" d="M 647.966606 468.816562
L 647.966606 29.916562
L 701.835042 29.916562
L 701.835042 468.816562
z
" style="fill:#f7f7f7;stroke:#f7f7f7;stroke-linejoin:miter;"/>
   </g>
   <g id="patch_9">
    <path clip-path="url(#p6b46f71daf)" d="M 757.499092 468.816562
L 757.499092 29.916562
L 813.163142 29.916562
L 813.163142 468.816562
z
" style="fill:#f7f7f7;stroke:#f7f7f7;stroke-linejoin:miter;"/>
   </g>
   <g id="matplotlib.axis_1">
    <g id="xtick_1">
     <g id="line2d_1">
      <path clip-path="url(#p6b46f71daf)" d="M 102.09979 468.816562
L 102.09979 29.916562
" style="fill:none;stroke:#cccccc;stroke-linecap:round;stroke-width:0.8;"/>
     </g>
    </g>
    <g id="xtick_2">
     <g id="line2d_2">
      <path clip-path="url(#p6b46f71daf)" d="M 157.763841 468.816562
L 157.763841 29.916562
" style="fill:none;stroke:#cccccc;stroke-linecap:round;stroke-width:0.8;"/>
     </g>
    </g>
    <g id="xtick_3">
     <g id="line2d_3">
      <path clip-path="url(#p6b46f71daf)" d="M 211.632276 468.816562
L 211.632276 29.916562
" style="fill:none;stroke:#cccccc;stroke-linecap:round;stroke-width:0.8;"/>
     </g>
    </g>
    <g id="xtick_4">
     <g id="line2d_4">
      <path clip-path="url(#p6b46f71daf)" d="M 267.296327 468.816562
L 267.296327 29.916562
" style="fill:none;stroke:#cccccc;stroke-linecap:round;stroke-width:0.8;"/>
     </g>
    </g>
    <g id="xtick_5">
     <g id="line2d_5">
      <path clip-path="url(#p6b46f71daf)" d="M 321.164762 468.816562
L 321.164762 29.916562
" style="fill:none;stroke:#cccccc;stroke-linecap:round;stroke-width:0.8;"/>
     </g>
    </g>
    <g id="xtick_6">
     <g id="line2d_6">
      <path clip-path="url(#p6b46f71daf)" d="M 376.828813 468.816562
L 376.828813 29.916562
" style="fill:none;stroke:#cccccc;stroke-linecap:round;stroke-width:0.8;"/>
     </g>
    </g>
    <g id="xtick_7">
     <g id="line2d_7">
      <path clip-path="url(#p6b46f71daf)" d="M 432.492863 468.816562
L 432.492863 29.916562
" style="fill:none;stroke:#cccccc;stroke-linecap:round;stroke-width:0.8;"/>
     </g>
    </g>
    <g id="xtick_8">
     <g id="line2d_8">
      <path clip-path="url(#p6b46f71daf)" d="M 482.77007 468.816562
L 482.77007 29.916562
" style="fill:none;stroke:#cccccc;stroke-linecap:round;stroke-width:0.8;"/>
     </g>
    </g>
    <g id="xtick_9">
     <g id="line2d_9">
      <path clip-path="url(#p6b46f71daf)" d="M 538.43412 468.816562
L 538.43412 29.916562
" style="fill:none;stroke:#cccccc;stroke-linecap:round;stroke-width:0.8;"/>
     </g>
    </g>
    <g id="xtick_10">
     <g id="line2d_10">
      <path clip-path="url(#p6b46f71daf)" d="M 592.302556 468.816562
L 592.302556 29.916562
" style="fill:none;stroke:#cccccc;stroke-linecap:round;stroke-width:0.8;"/>
     </g>
    </g>
    <g id="xtick_11">
     <g id="line2d_11">
      <path clip-path="url(#p6b46f71daf)" d="M 647.966606 468.816562
L 647.966606 29.916562
" style="fill:none;stroke:#cccccc;stroke-linecap:round;stroke-width:0.8;"/>
     </g>
    </g>
    <g id="xtick_12">
     <g id="line2d_12">
      <path clip-path="url(#p6b46f71daf)" d="M 701.835042 468.816562
L 701.835042 29.916562
" style="fill:none;stroke:#cccccc;stroke-linecap:round;stroke-width:0.8;"/>
     </g>
    </g>
    <g id="xtick_13">
     <g id="line2d_13">
      <path clip-path="url(#p6b46f71daf)" d="M 757.499092 468.816562
L 757.499092 29.916562
" style="fill:none;stroke:#cccccc;stroke-linecap:round;stroke-width:0.8;"/>
     </g>
    </g>
    <g id="xtick_14">
     <g id="line2d_14">
      <path clip-path="url(#p6b46f71daf)" d="M 813.163142 468.816562
L 813.163142 29.916562
" style="fill:none;stroke:#cccccc;stroke-linecap:round;stroke-width:0.8;"/>
     </g>
    </g>
    <g id="xtick_15">
     <g id="text_1">
      <!-- 14 -->
      <defs>
       <path d="M 12.40625 8.296875
L 28.515625 8.296875
L 28.515625 63.921875
L 10.984375 60.40625
L 10.984375 69.390625
L 28.421875 72.90625
L 38.28125 72.90625
L 38.28125 8.296875
L 54.390625 8.296875
L 54.390625 0
L 12.40625 0
z
" id="DejaVuSans-31"/>
       <path d="M 37.796875 64.3125
L 12.890625 25.390625
L 37.796875 25.390625
z
M 35.203125 72.90625
L 47.609375 72.90625
L 47.609375 25.390625
L 58.015625 25.390625
L 58.015625 17.1875
L 47.609375 17.1875
L 47.609375 0
L 37.796875 0
L 37.796875 17.1875
L 4.890625 17.1875
L 4.890625 26.703125
z
" id="DejaVuSans-34"/>
      </defs>
      <g style="fill:#262626;" transform="translate(120.388066 485.614219)scale(0.15 -0.15)">
       <use xlink:href="#DejaVuSans-31"/>
       <use x="63.623047" xlink:href="#DejaVuSans-34"/>
      </g>
     </g>
    </g>
    <g id="xtick_16">
     <g id="text_2">
      <!-- 15 -->
      <defs>
       <path d="M 10.796875 72.90625
L 49.515625 72.90625
L 49.515625 64.59375
L 19.828125 64.59375
L 19.828125 46.734375
Q 21.96875 47.46875 24.109375 47.828125
Q 26.265625 48.1875 28.421875 48.1875
Q 40.625 48.1875 47.75 41.5
Q 54.890625 34.8125 54.890625 23.390625
Q 54.890625 11.625 47.5625 5.09375
Q 40.234375 -1.421875 26.90625 -1.421875
Q 22.3125 -1.421875 17.546875 -0.640625
Q 12.796875 0.140625 7.71875 1.703125
L 7.71875 11.625
Q 12.109375 9.234375 16.796875 8.0625
Q 21.484375 6.890625 26.703125 6.890625
Q 35.15625 6.890625 40.078125 11.328125
Q 45.015625 15.765625 45.015625 23.390625
Q 45.015625 31 40.078125 35.4375
Q 35.15625 39.890625 26.703125 39.890625
Q 22.75 39.890625 18.8125 39.015625
Q 14.890625 38.140625 10.796875 36.28125
z
" id="DejaVuSans-35"/>
      </defs>
      <g style="fill:#262626;" transform="translate(176.052116 485.614219)scale(0.15 -0.15)">
       <use xlink:href="#DejaVuSans-31"/>
       <use x="63.623047" xlink:href="#DejaVuSans-35"/>
      </g>
     </g>
    </g>
    <g id="xtick_17">
     <g id="text_3">
      <!-- 16 -->
      <defs>
       <path d="M 33.015625 40.375
Q 26.375 40.375 22.484375 35.828125
Q 18.609375 31.296875 18.609375 23.390625
Q 18.609375 15.53125 22.484375 10.953125
Q 26.375 6.390625 33.015625 6.390625
Q 39.65625 6.390625 43.53125 10.953125
Q 47.40625 15.53125 47.40625 23.390625
Q 47.40625 31.296875 43.53125 35.828125
Q 39.65625 40.375 33.015625 40.375
z
M 52.59375 71.296875
L 52.59375 62.3125
Q 48.875 64.0625 45.09375 64.984375
Q 41.3125 65.921875 37.59375 65.921875
Q 27.828125 65.921875 22.671875 59.328125
Q 17.53125 52.734375 16.796875 39.40625
Q 19.671875 43.65625 24.015625 45.921875
Q 28.375 48.1875 33.59375 48.1875
Q 44.578125 48.1875 50.953125 41.515625
Q 57.328125 34.859375 57.328125 23.390625
Q 57.328125 12.15625 50.6875 5.359375
Q 44.046875 -1.421875 33.015625 -1.421875
Q 20.359375 -1.421875 13.671875 8.265625
Q 6.984375 17.96875 6.984375 36.375
Q 6.984375 53.65625 15.1875 63.9375
Q 23.390625 74.21875 37.203125 74.21875
Q 40.921875 74.21875 44.703125 73.484375
Q 48.484375 72.75 52.59375 71.296875
z
" id="DejaVuSans-36"/>
      </defs>
      <g style="fill:#262626;" transform="translate(229.920552 485.614219)scale(0.15 -0.15)">
       <use xlink:href="#DejaVuSans-31"/>
       <use x="63.623047" xlink:href="#DejaVuSans-36"/>
      </g>
     </g>
    </g>
    <g id="xtick_18">
     <g id="text_4">
      <!-- 17 -->
      <defs>
       <path d="M 8.203125 72.90625
L 55.078125 72.90625
L 55.078125 68.703125
L 28.609375 0
L 18.3125 0
L 43.21875 64.59375
L 8.203125 64.59375
z
" id="DejaVuSans-37"/>
      </defs>
      <g style="fill:#262626;" transform="translate(285.584602 485.614219)scale(0.15 -0.15)">
       <use xlink:href="#DejaVuSans-31"/>
       <use x="63.623047" xlink:href="#DejaVuSans-37"/>
      </g>
     </g>
    </g>
    <g id="xtick_19">
     <g id="text_5">
      <!-- 18 -->
      <defs>
       <path d="M 31.78125 34.625
Q 24.75 34.625 20.71875 30.859375
Q 16.703125 27.09375 16.703125 20.515625
Q 16.703125 13.921875 20.71875 10.15625
Q 24.75 6.390625 31.78125 6.390625
Q 38.8125 6.390625 42.859375 10.171875
Q 46.921875 13.96875 46.921875 20.515625
Q 46.921875 27.09375 42.890625 30.859375
Q 38.875 34.625 31.78125 34.625
z
M 21.921875 38.8125
Q 15.578125 40.375 12.03125 44.71875
Q 8.5 49.078125 8.5 55.328125
Q 8.5 64.0625 14.71875 69.140625
Q 20.953125 74.21875 31.78125 74.21875
Q 42.671875 74.21875 48.875 69.140625
Q 55.078125 64.0625 55.078125 55.328125
Q 55.078125 49.078125 51.53125 44.71875
Q 48 40.375 41.703125 38.8125
Q 48.828125 37.15625 52.796875 32.3125
Q 56.78125 27.484375 56.78125 20.515625
Q 56.78125 9.90625 50.3125 4.234375
Q 43.84375 -1.421875 31.78125 -1.421875
Q 19.734375 -1.421875 13.25 4.234375
Q 6.78125 9.90625 6.78125 20.515625
Q 6.78125 27.484375 10.78125 32.3125
Q 14.796875 37.15625 21.921875 38.8125
z
M 18.3125 54.390625
Q 18.3125 48.734375 21.84375 45.5625
Q 25.390625 42.390625 31.78125 42.390625
Q 38.140625 42.390625 41.71875 45.5625
Q 45.3125 48.734375 45.3125 54.390625
Q 45.3125 60.0625 41.71875 63.234375
Q 38.140625 66.40625 31.78125 66.40625
Q 25.390625 66.40625 21.84375 63.234375
Q 18.3125 60.0625 18.3125 54.390625
z
" id="DejaVuSans-38"/>
      </defs>
      <g style="fill:#262626;" transform="translate(339.453038 485.614219)scale(0.15 -0.15)">
       <use xlink:href="#DejaVuSans-31"/>
       <use x="63.623047" xlink:href="#DejaVuSans-38"/>
      </g>
     </g>
    </g>
    <g id="xtick_20">
     <g id="text_6">
      <!-- 19 -->
      <defs>
       <path d="M 10.984375 1.515625
L 10.984375 10.5
Q 14.703125 8.734375 18.5 7.8125
Q 22.3125 6.890625 25.984375 6.890625
Q 35.75 6.890625 40.890625 13.453125
Q 46.046875 20.015625 46.78125 33.40625
Q 43.953125 29.203125 39.59375 26.953125
Q 35.25 24.703125 29.984375 24.703125
Q 19.046875 24.703125 12.671875 31.3125
Q 6.296875 37.9375 6.296875 49.421875
Q 6.296875 60.640625 12.9375 67.421875
Q 19.578125 74.21875 30.609375 74.21875
Q 43.265625 74.21875 49.921875 64.515625
Q 56.59375 54.828125 56.59375 36.375
Q 56.59375 19.140625 48.40625 8.859375
Q 40.234375 -1.421875 26.421875 -1.421875
Q 22.703125 -1.421875 18.890625 -0.6875
Q 15.09375 0.046875 10.984375 1.515625
z
M 30.609375 32.421875
Q 37.25 32.421875 41.125 36.953125
Q 45.015625 41.5 45.015625 49.421875
Q 45.015625 57.28125 41.125 61.84375
Q 37.25 66.40625 30.609375 66.40625
Q 23.96875 66.40625 20.09375 61.84375
Q 16.21875 57.28125 16.21875 49.421875
Q 16.21875 41.5 20.09375 36.953125
Q 23.96875 32.421875 30.609375 32.421875
z
" id="DejaVuSans-39"/>
      </defs>
      <g style="fill:#262626;" transform="translate(395.117088 485.614219)scale(0.15 -0.15)">
       <use xlink:href="#DejaVuSans-31"/>
       <use x="63.623047" xlink:href="#DejaVuSans-39"/>
      </g>
     </g>
    </g>
    <g id="xtick_21">
     <g id="text_7">
      <!-- 20 -->
      <defs>
       <path d="M 19.1875 8.296875
L 53.609375 8.296875
L 53.609375 0
L 7.328125 0
L 7.328125 8.296875
Q 12.9375 14.109375 22.625 23.890625
Q 32.328125 33.6875 34.8125 36.53125
Q 39.546875 41.84375 41.421875 45.53125
Q 43.3125 49.21875 43.3125 52.78125
Q 43.3125 58.59375 39.234375 62.25
Q 35.15625 65.921875 28.609375 65.921875
Q 23.96875 65.921875 18.8125 64.3125
Q 13.671875 62.703125 7.8125 59.421875
L 7.8125 69.390625
Q 13.765625 71.78125 18.9375 73
Q 24.125 74.21875 28.421875 74.21875
Q 39.75 74.21875 46.484375 68.546875
Q 53.21875 62.890625 53.21875 53.421875
Q 53.21875 48.921875 51.53125 44.890625
Q 49.859375 40.875 45.40625 35.40625
Q 44.1875 33.984375 37.640625 27.21875
Q 31.109375 20.453125 19.1875 8.296875
z
" id="DejaVuSans-32"/>
       <path d="M 31.78125 66.40625
Q 24.171875 66.40625 20.328125 58.90625
Q 16.5 51.421875 16.5 36.375
Q 16.5 21.390625 20.328125 13.890625
Q 24.171875 6.390625 31.78125 6.390625
Q 39.453125 6.390625 43.28125 13.890625
Q 47.125 21.390625 47.125 36.375
Q 47.125 51.421875 43.28125 58.90625
Q 39.453125 66.40625 31.78125 66.40625
z
M 31.78125 74.21875
Q 44.046875 74.21875 50.515625 64.515625
Q 56.984375 54.828125 56.984375 36.375
Q 56.984375 17.96875 50.515625 8.265625
Q 44.046875 -1.421875 31.78125 -1.421875
Q 19.53125 -1.421875 13.0625 8.265625
Q 6.59375 17.96875 6.59375 36.375
Q 6.59375 54.828125 13.0625 64.515625
Q 19.53125 74.21875 31.78125 74.21875
z
" id="DejaVuSans-30"/>
      </defs>
      <g style="fill:#262626;" transform="translate(450.781138 485.614219)scale(0.15 -0.15)">
       <use xlink:href="#DejaVuSans-32"/>
       <use x="63.623047" xlink:href="#DejaVuSans-30"/>
      </g>
     </g>
    </g>
    <g id="xtick_22">
     <g id="text_8">
      <!-- 21 -->
      <g style="fill:#262626;" transform="translate(501.058345 485.614219)scale(0.15 -0.15)">
       <use xlink:href="#DejaVuSans-32"/>
       <use x="63.623047" xlink:href="#DejaVuSans-31"/>
      </g>
     </g>
    </g>
    <g id="xtick_23">
     <g id="text_9">
      <!-- 22 -->
      <g style="fill:#262626;" transform="translate(556.722395 485.614219)scale(0.15 -0.15)">
       <use xlink:href="#DejaVuSans-32"/>
       <use x="63.623047" xlink:href="#DejaVuSans-32"/>
      </g>
     </g>
    </g>
    <g id="xtick_24">
     <g id="text_10">
      <!-- 23 -->
      <defs>
       <path d="M 40.578125 39.3125
Q 47.65625 37.796875 51.625 33
Q 55.609375 28.21875 55.609375 21.1875
Q 55.609375 10.40625 48.1875 4.484375
Q 40.765625 -1.421875 27.09375 -1.421875
Q 22.515625 -1.421875 17.65625 -0.515625
Q 12.796875 0.390625 7.625 2.203125
L 7.625 11.71875
Q 11.71875 9.328125 16.59375 8.109375
Q 21.484375 6.890625 26.8125 6.890625
Q 36.078125 6.890625 40.9375 10.546875
Q 45.796875 14.203125 45.796875 21.1875
Q 45.796875 27.640625 41.28125 31.265625
Q 36.765625 34.90625 28.71875 34.90625
L 20.21875 34.90625
L 20.21875 43.015625
L 29.109375 43.015625
Q 36.375 43.015625 40.234375 45.921875
Q 44.09375 48.828125 44.09375 54.296875
Q 44.09375 59.90625 40.109375 62.90625
Q 36.140625 65.921875 28.71875 65.921875
Q 24.65625 65.921875 20.015625 65.03125
Q 15.375 64.15625 9.8125 62.3125
L 9.8125 71.09375
Q 15.4375 72.65625 20.34375 73.4375
Q 25.25 74.21875 29.59375 74.21875
Q 40.828125 74.21875 47.359375 69.109375
Q 53.90625 64.015625 53.90625 55.328125
Q 53.90625 49.265625 50.4375 45.09375
Q 46.96875 40.921875 40.578125 39.3125
z
" id="DejaVuSans-33"/>
      </defs>
      <g style="fill:#262626;" transform="translate(610.590831 485.614219)scale(0.15 -0.15)">
       <use xlink:href="#DejaVuSans-32"/>
       <use x="63.623047" xlink:href="#DejaVuSans-33"/>
      </g>
     </g>
    </g>
    <g id="xtick_25">
     <g id="text_11">
      <!-- 2 Years -->
      <defs>
       <path id="DejaVuSans-20"/>
       <path d="M -0.203125 72.90625
L 10.40625 72.90625
L 30.609375 42.921875
L 50.6875 72.90625
L 61.28125 72.90625
L 35.5 34.71875
L 35.5 0
L 25.59375 0
L 25.59375 34.71875
z
" id="DejaVuSans-59"/>
       <path d="M 56.203125 29.59375
L 56.203125 25.203125
L 14.890625 25.203125
Q 15.484375 15.921875 20.484375 11.0625
Q 25.484375 6.203125 34.421875 6.203125
Q 39.59375 6.203125 44.453125 7.46875
Q 49.3125 8.734375 54.109375 11.28125
L 54.109375 2.78125
Q 49.265625 0.734375 44.1875 -0.34375
Q 39.109375 -1.421875 33.890625 -1.421875
Q 20.796875 -1.421875 13.15625 6.1875
Q 5.515625 13.8125 5.515625 26.8125
Q 5.515625 40.234375 12.765625 48.109375
Q 20.015625 56 32.328125 56
Q 43.359375 56 49.78125 48.890625
Q 56.203125 41.796875 56.203125 29.59375
z
M 47.21875 32.234375
Q 47.125 39.59375 43.09375 43.984375
Q 39.0625 48.390625 32.421875 48.390625
Q 24.90625 48.390625 20.390625 44.140625
Q 15.875 39.890625 15.1875 32.171875
z
" id="DejaVuSans-65"/>
       <path d="M 34.28125 27.484375
Q 23.390625 27.484375 19.1875 25
Q 14.984375 22.515625 14.984375 16.5
Q 14.984375 11.71875 18.140625 8.90625
Q 21.296875 6.109375 26.703125 6.109375
Q 34.1875 6.109375 38.703125 11.40625
Q 43.21875 16.703125 43.21875 25.484375
L 43.21875 27.484375
z
M 52.203125 31.203125
L 52.203125 0
L 43.21875 0
L 43.21875 8.296875
Q 40.140625 3.328125 35.546875 0.953125
Q 30.953125 -1.421875 24.3125 -1.421875
Q 15.921875 -1.421875 10.953125 3.296875
Q 6 8.015625 6 15.921875
Q 6 25.140625 12.171875 29.828125
Q 18.359375 34.515625 30.609375 34.515625
L 43.21875 34.515625
L 43.21875 35.40625
Q 43.21875 41.609375 39.140625 45
Q 35.0625 48.390625 27.6875 48.390625
Q 23 48.390625 18.546875 47.265625
Q 14.109375 46.140625 10.015625 43.890625
L 10.015625 52.203125
Q 14.9375 54.109375 19.578125 55.046875
Q 24.21875 56 28.609375 56
Q 40.484375 56 46.34375 49.84375
Q 52.203125 43.703125 52.203125 31.203125
z
" id="DejaVuSans-61"/>
       <path d="M 41.109375 46.296875
Q 39.59375 47.171875 37.8125 47.578125
Q 36.03125 48 33.890625 48
Q 26.265625 48 22.1875 43.046875
Q 18.109375 38.09375 18.109375 28.8125
L 18.109375 0
L 9.078125 0
L 9.078125 54.6875
L 18.109375 54.6875
L 18.109375 46.1875
Q 20.953125 51.171875 25.484375 53.578125
Q 30.03125 56 36.53125 56
Q 37.453125 56 38.578125 55.875
Q 39.703125 55.765625 41.0625 55.515625
z
" id="DejaVuSans-72"/>
       <path d="M 44.28125 53.078125
L 44.28125 44.578125
Q 40.484375 46.53125 36.375 47.5
Q 32.28125 48.484375 27.875 48.484375
Q 21.1875 48.484375 17.84375 46.4375
Q 14.5 44.390625 14.5 40.28125
Q 14.5 37.15625 16.890625 35.375
Q 19.28125 33.59375 26.515625 31.984375
L 29.59375 31.296875
Q 39.15625 29.25 43.1875 25.515625
Q 47.21875 21.78125 47.21875 15.09375
Q 47.21875 7.46875 41.1875 3.015625
Q 35.15625 -1.421875 24.609375 -1.421875
Q 20.21875 -1.421875 15.453125 -0.5625
Q 10.6875 0.296875 5.421875 2
L 5.421875 11.28125
Q 10.40625 8.6875 15.234375 7.390625
Q 20.0625 6.109375 24.8125 6.109375
Q 31.15625 6.109375 34.5625 8.28125
Q 37.984375 10.453125 37.984375 14.40625
Q 37.984375 18.0625 35.515625 20.015625
Q 33.0625 21.96875 24.703125 23.78125
L 21.578125 24.515625
Q 13.234375 26.265625 9.515625 29.90625
Q 5.8125 33.546875 5.8125 39.890625
Q 5.8125 47.609375 11.28125 51.796875
Q 16.75 56 26.8125 56
Q 31.78125 56 36.171875 55.265625
Q 40.578125 54.546875 44.28125 53.078125
z
" id="DejaVuSans-73"/>
      </defs>
      <g style="fill:#262626;" transform="translate(647.876365 485.614219)scale(0.15 -0.15)">
       <use xlink:href="#DejaVuSans-32"/>
       <use x="63.623047" xlink:href="#DejaVuSans-20"/>
       <use x="95.410156" xlink:href="#DejaVuSans-59"/>
       <use x="156.291016" xlink:href="#DejaVuSans-65"/>
       <use x="217.814453" xlink:href="#DejaVuSans-61"/>
       <use x="279.09375" xlink:href="#DejaVuSans-72"/>
       <use x="320.207031" xlink:href="#DejaVuSans-73"/>
      </g>
     </g>
    </g>
    <g id="xtick_26">
     <g id="text_12">
      <!-- 25 -->
      <g style="fill:#262626;" transform="translate(720.123317 485.614219)scale(0.15 -0.15)">
       <use xlink:href="#DejaVuSans-32"/>
       <use x="63.623047" xlink:href="#DejaVuSans-35"/>
      </g>
     </g>
    </g>
    <g id="xtick_27">
     <g id="text_13">
      <!-- 26 -->
      <g style="fill:#262626;" transform="translate(775.787367 485.614219)scale(0.15 -0.15)">
       <use xlink:href="#DejaVuSans-32"/>
       <use x="63.623047" xlink:href="#DejaVuSans-36"/>
      </g>
     </g>
    </g>
    <g id="xtick_28">
     <g id="text_14">
      <!-- 27 -->
      <g style="fill:#262626;" transform="translate(831.451417 485.614219)scale(0.15 -0.15)">
       <use xlink:href="#DejaVuSans-32"/>
       <use x="63.623047" xlink:href="#DejaVuSans-37"/>
      </g>
     </g>
    </g>
    <g id="text_15">
     <!-- Age (Months) -->
     <defs>
      <path d="M 34.1875 63.1875
L 20.796875 26.90625
L 47.609375 26.90625
z
M 28.609375 72.90625
L 39.796875 72.90625
L 67.578125 0
L 57.328125 0
L 50.6875 18.703125
L 17.828125 18.703125
L 11.1875 0
L 0.78125 0
z
" id="DejaVuSans-41"/>
      <path d="M 45.40625 27.984375
Q 45.40625 37.75 41.375 43.109375
Q 37.359375 48.484375 30.078125 48.484375
Q 22.859375 48.484375 18.828125 43.109375
Q 14.796875 37.75 14.796875 27.984375
Q 14.796875 18.265625 18.828125 12.890625
Q 22.859375 7.515625 30.078125 7.515625
Q 37.359375 7.515625 41.375 12.890625
Q 45.40625 18.265625 45.40625 27.984375
z
M 54.390625 6.78125
Q 54.390625 -7.171875 48.1875 -13.984375
Q 42 -20.796875 29.203125 -20.796875
Q 24.46875 -20.796875 20.265625 -20.09375
Q 16.0625 -19.390625 12.109375 -17.921875
L 12.109375 -9.1875
Q 16.0625 -11.328125 19.921875 -12.34375
Q 23.78125 -13.375 27.78125 -13.375
Q 36.625 -13.375 41.015625 -8.765625
Q 45.40625 -4.15625 45.40625 5.171875
L 45.40625 9.625
Q 42.625 4.78125 38.28125 2.390625
Q 33.9375 0 27.875 0
Q 17.828125 0 11.671875 7.65625
Q 5.515625 15.328125 5.515625 27.984375
Q 5.515625 40.671875 11.671875 48.328125
Q 17.828125 56 27.875 56
Q 33.9375 56 38.28125 53.609375
Q 42.625 51.21875 45.40625 46.390625
L 45.40625 54.6875
L 54.390625 54.6875
z
" id="DejaVuSans-67"/>
      <path d="M 31 75.875
Q 24.46875 64.65625 21.28125 53.65625
Q 18.109375 42.671875 18.109375 31.390625
Q 18.109375 20.125 21.3125 9.0625
Q 24.515625 -2 31 -13.1875
L 23.1875 -13.1875
Q 15.875 -1.703125 12.234375 9.375
Q 8.59375 20.453125 8.59375 31.390625
Q 8.59375 42.28125 12.203125 53.3125
Q 15.828125 64.359375 23.1875 75.875
z
" id="DejaVuSans-28"/>
      <path d="M 9.8125 72.90625
L 24.515625 72.90625
L 43.109375 23.296875
L 61.8125 72.90625
L 76.515625 72.90625
L 76.515625 0
L 66.890625 0
L 66.890625 64.015625
L 48.09375 14.015625
L 38.1875 14.015625
L 19.390625 64.015625
L 19.390625 0
L 9.8125 0
z
" id="DejaVuSans-4d"/>
      <path d="M 30.609375 48.390625
Q 23.390625 48.390625 19.1875 42.75
Q 14.984375 37.109375 14.984375 27.296875
Q 14.984375 17.484375 19.15625 11.84375
Q 23.34375 6.203125 30.609375 6.203125
Q 37.796875 6.203125 41.984375 11.859375
Q 46.1875 17.53125 46.1875 27.296875
Q 46.1875 37.015625 41.984375 42.703125
Q 37.796875 48.390625 30.609375 48.390625
z
M 30.609375 56
Q 42.328125 56 49.015625 48.375
Q 55.71875 40.765625 55.71875 27.296875
Q 55.71875 13.875 49.015625 6.21875
Q 42.328125 -1.421875 30.609375 -1.421875
Q 18.84375 -1.421875 12.171875 6.21875
Q 5.515625 13.875 5.515625 27.296875
Q 5.515625 40.765625 12.171875 48.375
Q 18.84375 56 30.609375 56
z
" id="DejaVuSans-6f"/>
      <path d="M 54.890625 33.015625
L 54.890625 0
L 45.90625 0
L 45.90625 32.71875
Q 45.90625 40.484375 42.875 44.328125
Q 39.84375 48.1875 33.796875 48.1875
Q 26.515625 48.1875 22.3125 43.546875
Q 18.109375 38.921875 18.109375 30.90625
L 18.109375 0
L 9.078125 0
L 9.078125 54.6875
L 18.109375 54.6875
L 18.109375 46.1875
Q 21.34375 51.125 25.703125 53.5625
Q 30.078125 56 35.796875 56
Q 45.21875 56 50.046875 50.171875
Q 54.890625 44.34375 54.890625 33.015625
z
" id="DejaVuSans-6e"/>
      <path d="M 18.3125 70.21875
L 18.3125 54.6875
L 36.8125 54.6875
L 36.8125 47.703125
L 18.3125 47.703125
L 18.3125 18.015625
Q 18.3125 11.328125 20.140625 9.421875
Q 21.96875 7.515625 27.59375 7.515625
L 36.8125 7.515625
L 36.8125 0
L 27.59375 0
Q 17.1875 0 13.234375 3.875
Q 9.28125 7.765625 9.28125 18.015625
L 9.28125 47.703125
L 2.6875 47.703125
L 2.6875 54.6875
L 9.28125 54.6875
L 9.28125 70.21875
z
" id="DejaVuSans-74"/>
      <path d="M 54.890625 33.015625
L 54.890625 0
L 45.90625 0
L 45.90625 32.71875
Q 45.90625 40.484375 42.875 44.328125
Q 39.84375 48.1875 33.796875 48.1875
Q 26.515625 48.1875 22.3125 43.546875
Q 18.109375 38.921875 18.109375 30.90625
L 18.109375 0
L 9.078125 0
L 9.078125 75.984375
L 18.109375 75.984375
L 18.109375 46.1875
Q 21.34375 51.125 25.703125 53.5625
Q 30.078125 56 35.796875 56
Q 45.21875 56 50.046875 50.171875
Q 54.890625 44.34375 54.890625 33.015625
z
" id="DejaVuSans-68"/>
      <path d="M 8.015625 75.875
L 15.828125 75.875
Q 23.140625 64.359375 26.78125 53.3125
Q 30.421875 42.28125 30.421875 31.390625
Q 30.421875 20.453125 26.78125 9.375
Q 23.140625 -1.703125 15.828125 -13.1875
L 8.015625 -13.1875
Q 14.5 -2 17.703125 9.0625
Q 20.90625 20.125 20.90625 31.390625
Q 20.90625 42.671875 17.703125 53.65625
Q 14.5 64.65625 8.015625 75.875
z
" id="DejaVuSans-29"/>
     </defs>
     <g style="fill:#262626;" transform="translate(394.347695 507.930625)scale(0.2 -0.2)">
      <use xlink:href="#DejaVuSans-41"/>
      <use x="68.408203" xlink:href="#DejaVuSans-67"/>
      <use x="131.884766" xlink:href="#DejaVuSans-65"/>
      <use x="193.408203" xlink:href="#DejaVuSans-20"/>
      <use x="225.195312" xlink:href="#DejaVuSans-28"/>
      <use x="264.208984" xlink:href="#DejaVuSans-4d"/>
      <use x="350.488281" xlink:href="#DejaVuSans-6f"/>
      <use x="411.669922" xlink:href="#DejaVuSans-6e"/>
      <use x="475.048828" xlink:href="#DejaVuSans-74"/>
      <use x="514.257812" xlink:href="#DejaVuSans-68"/>
      <use x="577.636719" xlink:href="#DejaVuSans-73"/>
      <use x="629.736328" xlink:href="#DejaVuSans-29"/>
     </g>
    </g>
   </g>
   <g id="matplotlib.axis_2">
    <g id="ytick_1">
     <g id="line2d_15">
      <path clip-path="url(#p6b46f71daf)" d="M 66.1875 448.866562
L 856.257891 448.866562
" style="fill:none;stroke:#cccccc;stroke-linecap:round;stroke-width:0.8;"/>
     </g>
     <g id="text_16">
      <!-- 0 -->
      <g style="fill:#262626;" transform="translate(49.64375 454.565391)scale(0.15 -0.15)">
       <use xlink:href="#DejaVuSans-30"/>
      </g>
     </g>
    </g>
    <g id="ytick_2">
     <g id="line2d_16">
      <path clip-path="url(#p6b46f71daf)" d="M 66.1875 353.866562
L 856.257891 353.866562
" style="fill:none;stroke:#cccccc;stroke-linecap:round;stroke-width:0.8;"/>
     </g>
     <g id="text_17">
      <!-- 50 -->
      <g style="fill:#262626;" transform="translate(40.1 359.565391)scale(0.15 -0.15)">
       <use xlink:href="#DejaVuSans-35"/>
       <use x="63.623047" xlink:href="#DejaVuSans-30"/>
      </g>
     </g>
    </g>
    <g id="ytick_3">
     <g id="line2d_17">
      <path clip-path="url(#p6b46f71daf)" d="M 66.1875 258.866562
L 856.257891 258.866562
" style="fill:none;stroke:#cccccc;stroke-linecap:round;stroke-width:0.8;"/>
     </g>
     <g id="text_18">
      <!-- 100 -->
      <g style="fill:#262626;" transform="translate(30.55625 264.565391)scale(0.15 -0.15)">
       <use xlink:href="#DejaVuSans-31"/>
       <use x="63.623047" xlink:href="#DejaVuSans-30"/>
       <use x="127.246094" xlink:href="#DejaVuSans-30"/>
      </g>
     </g>
    </g>
    <g id="ytick_4">
     <g id="line2d_18">
      <path clip-path="url(#p6b46f71daf)" d="M 66.1875 163.866562
L 856.257891 163.866562
" style="fill:none;stroke:#cccccc;stroke-linecap:round;stroke-width:0.8;"/>
     </g>
     <g id="text_19">
      <!-- 150 -->
      <g style="fill:#262626;" transform="translate(30.55625 169.565391)scale(0.15 -0.15)">
       <use xlink:href="#DejaVuSans-31"/>
       <use x="63.623047" xlink:href="#DejaVuSans-35"/>
       <use x="127.246094" xlink:href="#DejaVuSans-30"/>
      </g>
     </g>
    </g>
    <g id="ytick_5">
     <g id="line2d_19">
      <path clip-path="url(#p6b46f71daf)" d="M 66.1875 68.866562
L 856.257891 68.866562
" style="fill:none;stroke:#cccccc;stroke-linecap:round;stroke-width:0.8;"/>
     </g>
     <g id="text_20">
      <!-- 200 -->
      <g style="fill:#262626;" transform="translate(30.55625 74.565391)scale(0.15 -0.15)">
       <use xlink:href="#DejaVuSans-32"/>
       <use x="63.623047" xlink:href="#DejaVuSans-30"/>
       <use x="127.246094" xlink:href="#DejaVuSans-30"/>
      </g>
     </g>
    </g>
    <g id="text_21">
     <!-- Words Spoken -->
     <defs>
      <path d="M 3.328125 72.90625
L 13.28125 72.90625
L 28.609375 11.28125
L 43.890625 72.90625
L 54.984375 72.90625
L 70.3125 11.28125
L 85.59375 72.90625
L 95.609375 72.90625
L 77.296875 0
L 64.890625 0
L 49.515625 63.28125
L 33.984375 0
L 21.578125 0
z
" id="DejaVuSans-57"/>
      <path d="M 45.40625 46.390625
L 45.40625 75.984375
L 54.390625 75.984375
L 54.390625 0
L 45.40625 0
L 45.40625 8.203125
Q 42.578125 3.328125 38.25 0.953125
Q 33.9375 -1.421875 27.875 -1.421875
Q 17.96875 -1.421875 11.734375 6.484375
Q 5.515625 14.40625 5.515625 27.296875
Q 5.515625 40.1875 11.734375 48.09375
Q 17.96875 56 27.875 56
Q 33.9375 56 38.25 53.625
Q 42.578125 51.265625 45.40625 46.390625
z
M 14.796875 27.296875
Q 14.796875 17.390625 18.875 11.75
Q 22.953125 6.109375 30.078125 6.109375
Q 37.203125 6.109375 41.296875 11.75
Q 45.40625 17.390625 45.40625 27.296875
Q 45.40625 37.203125 41.296875 42.84375
Q 37.203125 48.484375 30.078125 48.484375
Q 22.953125 48.484375 18.875 42.84375
Q 14.796875 37.203125 14.796875 27.296875
z
" id="DejaVuSans-64"/>
      <path d="M 53.515625 70.515625
L 53.515625 60.890625
Q 47.90625 63.578125 42.921875 64.890625
Q 37.9375 66.21875 33.296875 66.21875
Q 25.25 66.21875 20.875 63.09375
Q 16.5 59.96875 16.5 54.203125
Q 16.5 49.359375 19.40625 46.890625
Q 22.3125 44.4375 30.421875 42.921875
L 36.375 41.703125
Q 47.40625 39.59375 52.65625 34.296875
Q 57.90625 29 57.90625 20.125
Q 57.90625 9.515625 50.796875 4.046875
Q 43.703125 -1.421875 29.984375 -1.421875
Q 24.8125 -1.421875 18.96875 -0.25
Q 13.140625 0.921875 6.890625 3.21875
L 6.890625 13.375
Q 12.890625 10.015625 18.65625 8.296875
Q 24.421875 6.59375 29.984375 6.59375
Q 38.421875 6.59375 43.015625 9.90625
Q 47.609375 13.234375 47.609375 19.390625
Q 47.609375 24.75 44.3125 27.78125
Q 41.015625 30.8125 33.5 32.328125
L 27.484375 33.5
Q 16.453125 35.6875 11.515625 40.375
Q 6.59375 45.0625 6.59375 53.421875
Q 6.59375 63.09375 13.40625 68.65625
Q 20.21875 74.21875 32.171875 74.21875
Q 37.3125 74.21875 42.625 73.28125
Q 47.953125 72.359375 53.515625 70.515625
z
" id="DejaVuSans-53"/>
      <path d="M 18.109375 8.203125
L 18.109375 -20.796875
L 9.078125 -20.796875
L 9.078125 54.6875
L 18.109375 54.6875
L 18.109375 46.390625
Q 20.953125 51.265625 25.265625 53.625
Q 29.59375 56 35.59375 56
Q 45.5625 56 51.78125 48.09375
Q 58.015625 40.1875 58.015625 27.296875
Q 58.015625 14.40625 51.78125 6.484375
Q 45.5625 -1.421875 35.59375 -1.421875
Q 29.59375 -1.421875 25.265625 0.953125
Q 20.953125 3.328125 18.109375 8.203125
z
M 48.6875 27.296875
Q 48.6875 37.203125 44.609375 42.84375
Q 40.53125 48.484375 33.40625 48.484375
Q 26.265625 48.484375 22.1875 42.84375
Q 18.109375 37.203125 18.109375 27.296875
Q 18.109375 17.390625 22.1875 11.75
Q 26.265625 6.109375 33.40625 6.109375
Q 40.53125 6.109375 44.609375 11.75
Q 48.6875 17.390625 48.6875 27.296875
z
" id="DejaVuSans-70"/>
      <path d="M 9.078125 75.984375
L 18.109375 75.984375
L 18.109375 31.109375
L 44.921875 54.6875
L 56.390625 54.6875
L 27.390625 29.109375
L 57.625 0
L 45.90625 0
L 18.109375 26.703125
L 18.109375 0
L 9.078125 0
z
" id="DejaVuSans-6b"/>
     </defs>
     <g style="fill:#262626;" transform="translate(22.396875 321.3025)rotate(-90)scale(0.2 -0.2)">
      <use xlink:href="#DejaVuSans-57"/>
      <use x="98.798828" xlink:href="#DejaVuSans-6f"/>
      <use x="159.980469" xlink:href="#DejaVuSans-72"/>
      <use x="201.078125" xlink:href="#DejaVuSans-64"/>
      <use x="264.554688" xlink:href="#DejaVuSans-73"/>
      <use x="316.654297" xlink:href="#DejaVuSans-20"/>
      <use x="348.441406" xlink:href="#DejaVuSans-53"/>
      <use x="411.917969" xlink:href="#DejaVuSans-70"/>
      <use x="475.394531" xlink:href="#DejaVuSans-6f"/>
      <use x="536.576172" xlink:href="#DejaVuSans-6b"/>
      <use x="594.439453" xlink:href="#DejaVuSans-65"/>
      <use x="655.962891" xlink:href="#DejaVuSans-6e"/>
     </g>
    </g>
   </g>
   <g id="line2d_20">
    <path clip-path="url(#p6b46f71daf)" d="M 116.464707 448.866562
L 116.464707 446.966563
L 175.719986 446.966563
L 175.719986 445.066562
L 218.814735 445.066562
L 218.814735 443.166562
L 306.799846 443.166562
L 306.799846 439.366562
L 362.463896 439.366562
L 362.463896 437.466563
L 376.828813 437.466563
L 376.828813 435.566562
L 391.193729 435.566562
L 391.193729 433.666562
L 414.536718 433.666562
L 414.536718 431.766562
L 425.310405 431.766562
L 425.310405 429.866562
L 436.084092 429.866562
L 436.084092 427.966563
L 463.01831 427.966563
L 463.01831 426.066562
L 488.156913 426.066562
L 488.156913 424.166562
L 489.952528 424.166562
L 489.952528 422.266562
L 500.726215 422.266562
L 500.726215 420.366562
L 511.499902 420.366562
L 511.499902 418.466563
L 513.295517 418.466563
L 513.295517 416.566562
L 515.091131 416.566562
L 515.091131 414.666562
L 518.68236 414.666562
L 518.68236 412.766562
L 524.069204 412.766562
L 524.069204 410.866562
L 525.864818 410.866562
L 525.864818 408.966563
L 529.456047 408.966563
L 529.456047 407.066562
L 545.616578 407.066562
L 545.616578 405.166562
L 570.755181 405.166562
L 570.755181 403.266562
L 576.142025 403.266562
L 576.142025 401.366562
L 606.667472 401.366562
L 606.667472 399.466563
L 610.258701 399.466563
L 610.258701 397.566562
L 612.054315 397.566562
L 612.054315 393.766562
L 617.441159 393.766562
L 617.441159 391.866562
L 622.828002 391.866562
L 622.828002 389.966562
L 624.623617 389.966562
L 624.623617 388.066562
L 628.214846 388.066562
L 628.214846 386.166562
L 631.806075 386.166562
L 631.806075 384.266562
L 633.60169 384.266562
L 633.60169 382.366562
L 635.397304 382.366562
L 635.397304 378.566562
L 637.192919 378.566562
L 637.192919 369.066562
L 642.579762 369.066562
L 642.579762 367.166562
L 644.375377 367.166562
L 644.375377 363.366562
L 647.966606 363.366562
L 647.966606 361.466562
L 653.353449 361.466562
L 653.353449 353.866562
L 655.149064 353.866562
L 655.149064 350.066562
L 656.944678 350.066562
L 656.944678 336.766562
L 658.740293 336.766562
L 658.740293 332.966562
L 660.535907 332.966562
L 660.535907 329.166562
L 662.331522 329.166562
L 662.331522 325.366562
L 664.127137 325.366562
L 664.127137 321.566562
L 665.922751 321.566562
L 665.922751 317.766562
L 674.900824 317.766562
L 674.900824 312.066562
L 676.696438 312.066562
L 676.696438 306.366562
L 678.492053 306.366562
L 678.492053 304.466562
L 680.287667 304.466562
L 680.287667 302.566562
L 682.083282 302.566562
L 682.083282 298.766562
L 687.470125 298.766562
L 687.470125 293.066562
L 691.061354 293.066562
L 691.061354 291.166562
L 692.856969 291.166562
L 692.856969 289.266562
L 694.652583 289.266562
L 694.652583 287.366562
L 696.448198 287.366562
L 696.448198 285.466562
L 698.243812 285.466562
L 698.243812 277.866562
L 700.039427 277.866562
L 700.039427 268.366562
L 709.0175 268.366562
L 709.0175 262.666562
L 710.813114 262.666562
L 710.813114 258.866562
L 719.791187 258.866562
L 719.791187 247.466562
L 723.382416 247.466562
L 723.382416 241.766562
L 725.17803 241.766562
L 725.17803 236.066562
L 726.973645 236.066562
L 726.973645 230.366562
L 728.769259 230.366562
L 728.769259 224.666562
L 732.360488 224.666562
L 732.360488 220.866562
L 734.156103 220.866562
L 734.156103 217.066562
L 735.951718 217.066562
L 735.951718 215.166562
L 737.747332 215.166562
L 737.747332 203.766562
L 741.338561 203.766562
L 741.338561 201.866562
L 743.134176 201.866562
L 743.134176 198.066562
L 744.92979 198.066562
L 744.92979 196.166562
L 746.725405 196.166562
L 746.725405 188.566562
L 748.521019 188.566562
L 748.521019 180.966562
L 750.316634 180.966562
L 750.316634 179.066562
L 753.907863 179.066562
L 753.907863 171.466562
L 755.703477 171.466562
L 755.703477 169.566562
L 757.499092 169.566562
L 757.499092 156.266562
L 759.294706 156.266562
L 759.294706 154.366562
L 761.090321 154.366562
L 761.090321 150.566562
L 762.885935 150.566562
L 762.885935 141.066562
L 764.68155 141.066562
L 764.68155 139.166562
L 766.477164 139.166562
L 766.477164 125.866562
L 770.068393 125.866562
L 770.068393 123.966562
L 773.659623 123.966562
L 773.659623 120.166562
L 775.455237 120.166562
L 775.455237 116.366562
L 777.250852 116.366562
L 777.250852 112.566562
L 779.046466 112.566562
L 779.046466 110.666562
L 780.842081 110.666562
L 780.842081 104.966562
L 782.637695 104.966562
L 782.637695 101.166562
L 784.43331 101.166562
L 784.43331 95.466562
L 786.228924 95.466562
L 786.228924 93.566562
L 789.820153 93.566562
L 789.820153 91.666562
L 791.615768 91.666562
L 791.615768 85.966562
L 800.59384 85.966562
L 800.59384 84.066562
L 802.389455 84.066562
L 802.389455 82.166562
L 804.185069 82.166562
L 804.185069 80.266562
L 805.980684 80.266562
L 805.980684 78.366562
L 807.776298 78.366562
L 807.776298 72.666562
L 809.571913 72.666562
L 809.571913 68.866562
L 811.367528 68.866562
L 811.367528 66.966562
L 813.163142 66.966562
L 813.163142 65.066562
L 816.754371 65.066562
L 816.754371 51.766562
L 818.549986 51.766562
L 818.549986 49.866562
L 820.3456 49.866562
L 820.3456 49.866562
" style="fill:none;stroke:#1f77b4;stroke-linecap:round;stroke-width:2.5;"/>
   </g>
   <g id="line2d_21">
    <path clip-path="url(#p6b46f71daf)" d="M 116.464707 448.866562
L 306.799846 448.866562
L 306.799846 446.966563
L 351.690209 446.966563
L 351.690209 445.066562
L 355.281438 445.066562
L 355.281438 443.166562
L 387.6025 443.166562
L 387.6025 441.266562
L 396.580572 441.266562
L 396.580572 439.366562
L 425.310405 439.366562
L 425.310405 437.466563
L 428.901634 437.466563
L 428.901634 435.566562
L 436.084092 435.566562
L 436.084092 433.666562
L 446.857779 433.666562
L 446.857779 431.766562
L 450.449008 431.766562
L 450.449008 429.866562
L 452.244623 429.866562
L 452.244623 427.966563
L 466.609539 427.966563
L 466.609539 426.066562
L 547.412192 426.066562
L 547.412192 424.166562
L 556.390265 424.166562
L 556.390265 420.366562
L 559.981494 420.366562
L 559.981494 418.466563
L 561.777109 418.466563
L 561.777109 416.566562
L 563.572723 416.566562
L 563.572723 414.666562
L 568.959567 414.666562
L 568.959567 412.766562
L 601.280628 412.766562
L 601.280628 408.966563
L 603.076243 408.966563
L 603.076243 407.066562
L 606.667472 407.066562
L 606.667472 405.166562
L 608.463086 405.166562
L 608.463086 403.266562
L 617.441159 403.266562
L 617.441159 399.466563
L 619.236773 399.466563
L 619.236773 393.766562
L 624.623617 393.766562
L 624.623617 391.866562
L 637.192919 391.866562
L 637.192919 389.966562
L 638.988533 389.966562
L 638.988533 384.266562
L 658.740293 384.266562
L 658.740293 382.366562
L 664.127137 382.366562
L 664.127137 380.466563
L 665.922751 380.466563
L 665.922751 378.566562
L 676.696438 378.566562
L 676.696438 374.766562
L 680.287667 374.766562
L 680.287667 372.866562
L 682.083282 372.866562
L 682.083282 370.966562
L 689.26574 370.966562
L 689.26574 369.066562
L 694.652583 369.066562
L 694.652583 367.166562
L 709.0175 367.166562
L 709.0175 363.366562
L 712.608729 363.366562
L 712.608729 361.466562
L 714.404343 361.466562
L 714.404343 357.666562
L 716.199958 357.666562
L 716.199958 355.766562
L 717.995572 355.766562
L 717.995572 353.866562
L 719.791187 353.866562
L 719.791187 351.966562
L 725.17803 351.966562
L 725.17803 346.266562
L 726.973645 346.266562
L 726.973645 344.366562
L 730.564874 344.366562
L 730.564874 342.466562
L 732.360488 342.466562
L 732.360488 340.566562
L 737.747332 340.566562
L 737.747332 334.866562
L 739.542947 334.866562
L 739.542947 331.066562
L 743.134176 331.066562
L 743.134176 327.266562
L 744.92979 327.266562
L 744.92979 319.666562
L 746.725405 319.666562
L 746.725405 312.066562
L 748.521019 312.066562
L 748.521019 308.266562
L 750.316634 308.266562
L 750.316634 306.366562
L 752.112248 306.366562
L 752.112248 304.466562
L 753.907863 304.466562
L 753.907863 296.866562
L 755.703477 296.866562
L 755.703477 294.966562
L 757.499092 294.966562
L 757.499092 287.366562
L 759.294706 287.366562
L 759.294706 283.566562
L 761.090321 283.566562
L 761.090321 281.666562
L 764.68155 281.666562
L 764.68155 277.866562
L 766.477164 277.866562
L 766.477164 272.166562
L 768.272779 272.166562
L 768.272779 266.466562
L 770.068393 266.466562
L 770.068393 262.666562
L 771.864008 262.666562
L 771.864008 260.766562
L 773.659623 260.766562
L 773.659623 256.966562
L 780.842081 256.966562
L 780.842081 255.066562
L 784.43331 255.066562
L 784.43331 253.166562
L 786.228924 253.166562
L 786.228924 251.266562
L 788.024539 251.266562
L 788.024539 247.466562
L 789.820153 247.466562
L 789.820153 243.666562
L 791.615768 243.666562
L 791.615768 237.966562
L 793.411382 237.966562
L 793.411382 234.166562
L 795.206997 234.166562
L 795.206997 232.266562
L 797.002611 232.266562
L 797.002611 230.366562
L 798.798226 230.366562
L 798.798226 228.466562
L 802.389455 228.466562
L 802.389455 224.666562
L 804.185069 224.666562
L 804.185069 222.766562
L 805.980684 222.766562
L 805.980684 220.866562
L 807.776298 220.866562
L 807.776298 218.966562
L 809.571913 218.966562
L 809.571913 217.066562
L 811.367528 217.066562
L 811.367528 213.266562
L 813.163142 213.266562
L 813.163142 205.666562
L 816.754371 205.666562
L 816.754371 196.166562
L 820.3456 196.166562
L 820.3456 196.166562
" style="fill:none;stroke:#ff7f0e;stroke-linecap:round;stroke-width:2.5;"/>
   </g>
   <g id="line2d_22">
    <path clip-path="url(#p6b46f71daf)" d="M 116.464707 448.866562
L 367.85074 448.866562
L 367.85074 446.966563
L 459.427081 446.966563
L 459.427081 445.066562
L 656.944678 445.066562
L 656.944678 443.166562
L 658.740293 443.166562
L 658.740293 441.266562
L 665.922751 441.266562
L 665.922751 437.466563
L 669.51398 437.466563
L 669.51398 435.566562
L 671.309595 435.566562
L 671.309595 433.666562
L 674.900824 433.666562
L 674.900824 431.766562
L 691.061354 431.766562
L 691.061354 429.866562
L 692.856969 429.866562
L 692.856969 427.966563
L 728.769259 427.966563
L 728.769259 426.066562
L 737.747332 426.066562
L 737.747332 424.166562
L 804.185069 424.166562
L 804.185069 422.266562
L 805.980684 422.266562
L 805.980684 420.366562
L 816.754371 420.366562
L 816.754371 418.466563
L 818.549986 418.466563
L 818.549986 407.066562
L 820.3456 407.066562
L 820.3456 407.066562
" style="fill:none;stroke:#2ca02c;stroke-linecap:round;stroke-width:2.5;"/>
   </g>
   <g id="line2d_23">
    <path clip-path="url(#p6b46f71daf)" d="M 116.464707 448.866562
L 120.055936 448.866562
L 120.055936 446.966563
L 148.785768 446.966563
L 148.785768 445.066562
L 163.150684 445.066562
L 163.150684 443.166562
L 164.946299 443.166562
L 164.946299 441.266562
L 175.719986 441.266562
L 175.719986 439.366562
L 281.661243 439.366562
L 281.661243 437.466563
L 290.639316 437.466563
L 290.639316 435.566562
L 303.208617 435.566562
L 303.208617 433.666562
L 306.799846 433.666562
L 306.799846 422.266562
L 322.960377 422.266562
L 322.960377 420.366562
L 326.551606 420.366562
L 326.551606 418.466563
L 346.303366 418.466563
L 346.303366 414.666562
L 351.690209 414.666562
L 351.690209 412.766562
L 360.668282 412.766562
L 360.668282 410.866562
L 364.259511 410.866562
L 364.259511 407.066562
L 371.441969 407.066562
L 371.441969 405.166562
L 389.398114 405.166562
L 389.398114 403.266562
L 392.989343 403.266562
L 392.989343 401.366562
L 394.784958 401.366562
L 394.784958 399.466563
L 403.763031 399.466563
L 403.763031 397.566562
L 448.653394 397.566562
L 448.653394 393.766562
L 452.244623 393.766562
L 452.244623 391.866562
L 473.791997 391.866562
L 473.791997 388.066562
L 506.113058 388.066562
L 506.113058 386.166562
L 534.842891 386.166562
L 534.842891 384.266562
L 552.799036 384.266562
L 552.799036 382.366562
L 567.163952 382.366562
L 567.163952 380.466563
L 613.84993 380.466563
L 613.84993 378.566562
L 638.988533 378.566562
L 638.988533 376.666562
L 647.966606 376.666562
L 647.966606 374.766562
L 700.039427 374.766562
L 700.039427 372.866562
L 725.17803 372.866562
L 725.17803 370.966562
L 757.499092 370.966562
L 757.499092 369.066562
L 805.980684 369.066562
L 805.980684 367.166562
L 820.3456 367.166562
L 820.3456 367.166562
" style="fill:none;stroke:#d62728;stroke-linecap:round;stroke-width:2.5;"/>
   </g>
   <g id="line2d_24">
    <path clip-path="url(#p6b46f71daf)" d="M 116.464707 448.866562
L 306.799846 448.866562
L 306.799846 446.966563
L 391.193729 446.966563
L 391.193729 445.066562
L 412.741103 445.066562
L 412.741103 443.166562
L 418.127947 443.166562
L 418.127947 441.266562
L 419.923561 441.266562
L 419.923561 439.366562
L 425.310405 439.366562
L 425.310405 437.466563
L 480.974455 437.466563
L 480.974455 435.566562
L 502.521829 435.566562
L 502.521829 433.666562
L 563.572723 433.666562
L 563.572723 431.766562
L 592.302556 431.766562
L 592.302556 429.866562
L 633.60169 429.866562
L 633.60169 427.966563
L 820.3456 427.966563
L 820.3456 427.966563
" style="fill:none;stroke:#9467bd;stroke-linecap:round;stroke-width:2.5;"/>
   </g>
   <g id="patch_10">
    <path d="M 66.1875 468.816562
L 66.1875 29.916562
" style="fill:none;stroke:#262626;stroke-linecap:square;stroke-linejoin:miter;stroke-width:0.8;"/>
   </g>
   <g id="patch_11">
    <path d="M 856.257891 468.816562
L 856.257891 29.916562
" style="fill:none;stroke:#262626;stroke-linecap:square;stroke-linejoin:miter;stroke-width:0.8;"/>
   </g>
   <g id="patch_12">
    <path d="M 66.1875 468.816562
L 856.257891 468.816562
" style="fill:none;stroke:#262626;stroke-linecap:square;stroke-linejoin:miter;stroke-width:0.8;"/>
   </g>
   <g id="patch_13">
    <path d="M 66.1875 29.916562
L 856.257891 29.916562
" style="fill:none;stroke:#262626;stroke-linecap:square;stroke-linejoin:miter;stroke-width:0.8;"/>
   </g>
   <g id="text_22">
    <!-- Theodore's Words -->
    <defs>
     <path d="M -0.296875 72.90625
L 61.375 72.90625
L 61.375 64.59375
L 35.5 64.59375
L 35.5 0
L 25.59375 0
L 25.59375 64.59375
L -0.296875 64.59375
z
" id="DejaVuSans-54"/>
     <path d="M 17.921875 72.90625
L 17.921875 45.796875
L 9.625 45.796875
L 9.625 72.90625
z
" id="DejaVuSans-27"/>
    </defs>
    <g style="fill:#262626;" transform="translate(361.951133 23.916562)scale(0.22 -0.22)">
     <use xlink:href="#DejaVuSans-54"/>
     <use x="61.083984" xlink:href="#DejaVuSans-68"/>
     <use x="124.462891" xlink:href="#DejaVuSans-65"/>
     <use x="185.986328" xlink:href="#DejaVuSans-6f"/>
     <use x="247.167969" xlink:href="#DejaVuSans-64"/>
     <use x="310.644531" xlink:href="#DejaVuSans-6f"/>
     <use x="371.826172" xlink:href="#DejaVuSans-72"/>
     <use x="412.908203" xlink:href="#DejaVuSans-65"/>
     <use x="474.431641" xlink:href="#DejaVuSans-27"/>
     <use x="501.921875" xlink:href="#DejaVuSans-73"/>
     <use x="554.021484" xlink:href="#DejaVuSans-20"/>
     <use x="585.808594" xlink:href="#DejaVuSans-57"/>
     <use x="684.607422" xlink:href="#DejaVuSans-6f"/>
     <use x="745.789062" xlink:href="#DejaVuSans-72"/>
     <use x="786.886719" xlink:href="#DejaVuSans-64"/>
     <use x="850.363281" xlink:href="#DejaVuSans-73"/>
    </g>
   </g>
   <g id="legend_1">
    <g id="patch_14">
     <path d="M 78.7875 176.419687
L 210.676875 176.419687
Q 214.276875 176.419687 214.276875 172.819687
L 214.276875 42.516562
Q 214.276875 38.916562 210.676875 38.916562
L 78.7875 38.916562
Q 75.1875 38.916562 75.1875 42.516562
L 75.1875 172.819687
Q 75.1875 176.419687 78.7875 176.419687
z
" style="fill:#ffffff;stroke:#000000;stroke-linejoin:miter;"/>
    </g>
    <g id="text_23">
     <!-- Chinese -->
     <defs>
      <path d="M 64.40625 67.28125
L 64.40625 56.890625
Q 59.421875 61.53125 53.78125 63.8125
Q 48.140625 66.109375 41.796875 66.109375
Q 29.296875 66.109375 22.65625 58.46875
Q 16.015625 50.828125 16.015625 36.375
Q 16.015625 21.96875 22.65625 14.328125
Q 29.296875 6.6875 41.796875 6.6875
Q 48.140625 6.6875 53.78125 8.984375
Q 59.421875 11.28125 64.40625 15.921875
L 64.40625 5.609375
Q 59.234375 2.09375 53.4375 0.328125
Q 47.65625 -1.421875 41.21875 -1.421875
Q 24.65625 -1.421875 15.125 8.703125
Q 5.609375 18.84375 5.609375 36.375
Q 5.609375 53.953125 15.125 64.078125
Q 24.65625 74.21875 41.21875 74.21875
Q 47.75 74.21875 53.53125 72.484375
Q 59.328125 70.75 64.40625 67.28125
z
" id="DejaVuSans-43"/>
      <path d="M 9.421875 54.6875
L 18.40625 54.6875
L 18.40625 0
L 9.421875 0
z
M 9.421875 75.984375
L 18.40625 75.984375
L 18.40625 64.59375
L 9.421875 64.59375
z
" id="DejaVuSans-69"/>
     </defs>
     <g style="fill:#1f77b4;" transform="translate(82.3875 59.79375)scale(0.18 -0.18)">
      <use xlink:href="#DejaVuSans-43"/>
      <use x="69.824219" xlink:href="#DejaVuSans-68"/>
      <use x="133.203125" xlink:href="#DejaVuSans-69"/>
      <use x="160.986328" xlink:href="#DejaVuSans-6e"/>
      <use x="224.365234" xlink:href="#DejaVuSans-65"/>
      <use x="285.888672" xlink:href="#DejaVuSans-73"/>
      <use x="337.988281" xlink:href="#DejaVuSans-65"/>
     </g>
    </g>
    <g id="text_24">
     <!-- English -->
     <defs>
      <path d="M 9.8125 72.90625
L 55.90625 72.90625
L 55.90625 64.59375
L 19.671875 64.59375
L 19.671875 43.015625
L 54.390625 43.015625
L 54.390625 34.71875
L 19.671875 34.71875
L 19.671875 8.296875
L 56.78125 8.296875
L 56.78125 0
L 9.8125 0
z
" id="DejaVuSans-45"/>
      <path d="M 9.421875 75.984375
L 18.40625 75.984375
L 18.40625 0
L 9.421875 0
z
" id="DejaVuSans-6c"/>
     </defs>
     <g style="fill:#ff7f0e;" transform="translate(82.3875 86.214375)scale(0.18 -0.18)">
      <use xlink:href="#DejaVuSans-45"/>
      <use x="63.183594" xlink:href="#DejaVuSans-6e"/>
      <use x="126.5625" xlink:href="#DejaVuSans-67"/>
      <use x="190.039062" xlink:href="#DejaVuSans-6c"/>
      <use x="217.822266" xlink:href="#DejaVuSans-69"/>
      <use x="245.605469" xlink:href="#DejaVuSans-73"/>
      <use x="297.705078" xlink:href="#DejaVuSans-68"/>
     </g>
    </g>
    <g id="text_25">
     <!-- Spanish -->
     <g style="fill:#2ca02c;" transform="translate(82.3875 112.635)scale(0.18 -0.18)">
      <use xlink:href="#DejaVuSans-53"/>
      <use x="63.476562" xlink:href="#DejaVuSans-70"/>
      <use x="126.953125" xlink:href="#DejaVuSans-61"/>
      <use x="188.232422" xlink:href="#DejaVuSans-6e"/>
      <use x="251.611328" xlink:href="#DejaVuSans-69"/>
      <use x="279.394531" xlink:href="#DejaVuSans-73"/>
      <use x="331.494141" xlink:href="#DejaVuSans-68"/>
     </g>
    </g>
    <g id="text_26">
     <!-- Sign -->
     <g style="fill:#d62728;" transform="translate(82.3875 139.055625)scale(0.18 -0.18)">
      <use xlink:href="#DejaVuSans-53"/>
      <use x="63.476562" xlink:href="#DejaVuSans-69"/>
      <use x="91.259766" xlink:href="#DejaVuSans-67"/>
      <use x="154.736328" xlink:href="#DejaVuSans-6e"/>
     </g>
    </g>
    <g id="text_27">
     <!-- Animal Sound -->
     <defs>
      <path d="M 52 44.1875
Q 55.375 50.25 60.0625 53.125
Q 64.75 56 71.09375 56
Q 79.640625 56 84.28125 50.015625
Q 88.921875 44.046875 88.921875 33.015625
L 88.921875 0
L 79.890625 0
L 79.890625 32.71875
Q 79.890625 40.578125 77.09375 44.375
Q 74.3125 48.1875 68.609375 48.1875
Q 61.625 48.1875 57.5625 43.546875
Q 53.515625 38.921875 53.515625 30.90625
L 53.515625 0
L 44.484375 0
L 44.484375 32.71875
Q 44.484375 40.625 41.703125 44.40625
Q 38.921875 48.1875 33.109375 48.1875
Q 26.21875 48.1875 22.15625 43.53125
Q 18.109375 38.875 18.109375 30.90625
L 18.109375 0
L 9.078125 0
L 9.078125 54.6875
L 18.109375 54.6875
L 18.109375 46.1875
Q 21.1875 51.21875 25.484375 53.609375
Q 29.78125 56 35.6875 56
Q 41.65625 56 45.828125 52.96875
Q 50 49.953125 52 44.1875
z
" id="DejaVuSans-6d"/>
      <path d="M 8.5 21.578125
L 8.5 54.6875
L 17.484375 54.6875
L 17.484375 21.921875
Q 17.484375 14.15625 20.5 10.265625
Q 23.53125 6.390625 29.59375 6.390625
Q 36.859375 6.390625 41.078125 11.03125
Q 45.3125 15.671875 45.3125 23.6875
L 45.3125 54.6875
L 54.296875 54.6875
L 54.296875 0
L 45.3125 0
L 45.3125 8.40625
Q 42.046875 3.421875 37.71875 1
Q 33.40625 -1.421875 27.6875 -1.421875
Q 18.265625 -1.421875 13.375 4.4375
Q 8.5 10.296875 8.5 21.578125
z
M 31.109375 56
z
" id="DejaVuSans-75"/>
     </defs>
     <g style="fill:#9467bd;" transform="translate(82.3875 165.47625)scale(0.18 -0.18)">
      <use xlink:href="#DejaVuSans-41"/>
      <use x="68.408203" xlink:href="#DejaVuSans-6e"/>
      <use x="131.787109" xlink:href="#DejaVuSans-69"/>
      <use x="159.570312" xlink:href="#DejaVuSans-6d"/>
      <use x="256.982422" xlink:href="#DejaVuSans-61"/>
      <use x="318.261719" xlink:href="#DejaVuSans-6c"/>
      <use x="346.044922" xlink:href="#DejaVuSans-20"/>
      <use x="377.832031" xlink:href="#DejaVuSans-53"/>
      <use x="441.308594" xlink:href="#DejaVuSans-6f"/>
      <use x="502.490234" xlink:href="#DejaVuSans-75"/>
      <use x="565.869141" xlink:href="#DejaVuSans-6e"/>
      <use x="629.248047" xlink:href="#DejaVuSans-64"/>
     </g>
    </g>
   </g>
  </g>
 </g>
 <defs>
  <clipPath id="p6b46f71daf">
   <rect height="438.9" width="790.070391" x="66.1875" y="29.916562"/>
  </clipPath>
 </defs>
</svg>
