<svg xmlns="http://www.w3.org/2000/svg" xml:space="preserve" width="64" height="64" viewBox="5.5 -3.5 64 64"><path d="M37.443-3.5q13.483 0 22.742 9.257Q69.499 15.072 69.5 28.5q0 13.486-9.145 22.456Q50.641 60.5 37.443 60.5q-12.973 0-22.514-9.43Q5.501 41.642 5.5 28.5t9.429-22.742Q24.186-3.501 37.443-3.5m.114 5.772q-10.914 0-18.457 7.657-7.83 8.001-7.829 18.572 0 10.63 7.77 18.398 7.771 7.772 18.514 7.771 10.685.002 18.629-7.828 7.543-7.257 7.543-18.343 0-10.913-7.656-18.571-7.656-7.656-18.514-7.656m8.572 18.285v13.085h-3.656v15.542h-9.944V33.643h-3.656V20.557q0-.857.599-1.457.602-.6 1.457-.6h13.144q.8 0 1.428.6t.628 1.457m-13.087-8.228q0-4.513 4.458-4.514c4.458-.001 4.457 1.504 4.457 4.514q0 4.457-4.457 4.457c-4.457 0-4.458-1.486-4.458-4.457"/></svg>