<svg xmlns="http://www.w3.org/2000/svg" class="rss" viewBox="0 0 22 22"><path d="M4.532 2.975q1.995 0 3.841.517 1.847.516 3.457 1.461t2.932 2.267a14.5 14.5 0 0 1 2.267 2.931 14.5 14.5 0 0 1 1.461 3.457q.516 1.847.516 3.842 0 .63-.446 1.077a1.47 1.47 0 0 1-1.076.446q-.63 0-1.077-.446a1.47 1.47 0 0 1-.446-1.077q0-1.575-.412-3.037a11.416 11.416 0 0 0-2.94-5.04 11.4 11.4 0 0 0-5.04-2.941 11.2 11.2 0 0 0-3.037-.411q-.63 0-1.077-.447a1.47 1.47 0 0 1-.446-1.076q0-.63.446-1.077a1.47 1.47 0 0 1 1.077-.446m0 5.759q1.802 0 3.386.691a8.9 8.9 0 0 1 2.766 1.873 8.9 8.9 0 0 1 1.873 2.765 8.4 8.4 0 0 1 .691 3.387q0 .63-.446 1.077a1.47 1.47 0 0 1-1.077.446q-.63 0-1.076-.446a1.47 1.47 0 0 1-.447-1.077q0-1.173-.446-2.205a5.8 5.8 0 0 0-1.216-1.803 5.8 5.8 0 0 0-1.803-1.217 5.5 5.5 0 0 0-2.206-.446q-.63 0-1.076-.446a1.47 1.47 0 0 1-.446-1.077q0-.63.446-1.076a1.47 1.47 0 0 1 1.076-.446m2.8 7.998a2.1 2.1 0 0 1-.62 1.514q-.289.29-.683.456t-.832.166a2.1 2.1 0 0 1-1.514-.622 2.097 2.097 0 0 1-.621-1.514q0-.437.166-.831a2.12 2.12 0 0 1 1.13-1.138q.384-.165.84-.166.437 0 .83.166.395.167.683.455.29.289.456.683.165.394.166.831"/></svg>