<svg xmlns="http://www.w3.org/2000/svg" xml:space="preserve" width="64" height="64" viewBox="5.5 -3.5 64 64"><path d="M37.443-3.5q13.426 0 22.742 9.315Q69.499 15.073 69.5 28.5q0 13.43-9.145 22.514Q50.698 60.5 37.443 60.5q-12.973 0-22.514-9.429-9.428-9.426-9.429-22.57 0-13.085 9.429-22.685Q24.243-3.5 37.443-3.5m.114 5.772q-10.914 0-18.457 7.715-7.83 7.944-7.829 18.513 0 10.686 7.77 18.4 7.771 7.772 18.514 7.771 10.685 0 18.629-7.828 7.543-7.314 7.543-18.343 0-10.97-7.656-18.513-7.601-7.716-18.514-7.715M23.271 23.985q.913-5.886 4.742-9.114t9.314-3.228q7.542.001 12 4.856 4.457 4.858 4.457 12.457 0 7.372-4.627 12.256-4.63 4.885-12.002 4.886-5.429 0-9.371-3.257t-4.743-9.257H31.1q.285 5.829 7.029 5.829 3.37 0 5.428-2.914 2.06-2.914 2.059-7.771 0-5.086-1.885-7.743t-5.43-2.657q-6.401 0-7.2 5.656h2.343l-6.342 6.343-6.343-6.343z"/></svg>