<?xml version="1.0" encoding="utf-8" standalone="no"?>
<!DOCTYPE svg PUBLIC "-//W3C//DTD SVG 1.1//EN"
  "http://www.w3.org/Graphics/SVG/1.1/DTD/svg11.dtd">
<!-- Created with matplotlib (http://matplotlib.org/) -->
<svg height="402pt" version="1.1" viewBox="0 0 629 402" width="629pt" xmlns="http://www.w3.org/2000/svg" xmlns:xlink="http://www.w3.org/1999/xlink">
 <defs>
  <style type="text/css">
*{stroke-linecap:butt;stroke-linejoin:round;stroke-miterlimit:100000;}
  </style>
 </defs>
 <g id="figure_1">
  <g id="patch_1">
   <path d="M 0 402.732025 
L 629.933175 402.732025 
L 629.933175 0 
L 0 0 
z
" style="fill:#ffffff;"/>
  </g>
  <g id="axes_1">
   <g id="patch_2">
    <path d="M 48.826925 360.1301 
L 606.826925 360.1301 
L 606.826925 25.3301 
L 48.826925 25.3301 
z
" style="fill:#ffffff;"/>
   </g>
   <g id="PolyCollection_1">
    <defs>
     <path d="M 48.826925 -371.505093 
L 48.826925 -42.601925 
L 51.630945 -42.601925 
L 54.434965 -42.601925 
L 57.238985 -42.601925 
L 60.043005 -42.601925 
L 62.847026 -42.601925 
L 65.651046 -42.601925 
L 68.455066 -42.601925 
L 71.259086 -42.601925 
L 74.063106 -42.601925 
L 76.867126 -42.601925 
L 79.671146 -42.601925 
L 82.475166 -42.601925 
L 85.279186 -42.601925 
L 88.083206 -42.601925 
L 90.887227 -42.601925 
L 93.691247 -42.601925 
L 96.495267 -42.601925 
L 99.299287 -42.601925 
L 102.103307 -42.601925 
L 104.907327 -42.601925 
L 107.711347 -42.601925 
L 110.515367 -42.601925 
L 113.319387 -42.601925 
L 116.123407 -42.601925 
L 118.927428 -42.601925 
L 121.731448 -42.601925 
L 124.535468 -42.601925 
L 127.339488 -42.601925 
L 130.143508 -42.601925 
L 132.947528 -42.601925 
L 135.751548 -42.601925 
L 138.555568 -42.601925 
L 141.359588 -42.601925 
L 144.163608 -42.601925 
L 146.967629 -42.601925 
L 149.771649 -42.601925 
L 152.575669 -42.601925 
L 155.379689 -42.601925 
L 158.183709 -42.601925 
L 160.987729 -42.601925 
L 163.791749 -42.601925 
L 166.595769 -42.601925 
L 169.399789 -42.601925 
L 172.203809 -42.601925 
L 175.00783 -42.601925 
L 177.81185 -42.601925 
L 180.61587 -42.601925 
L 183.41989 -42.601925 
L 186.22391 -42.601925 
L 189.02793 -42.601925 
L 191.83195 -42.601925 
L 194.63597 -42.601925 
L 197.43999 -42.601925 
L 200.24401 -42.601925 
L 203.048031 -42.601925 
L 205.852051 -42.601925 
L 208.656071 -42.601925 
L 211.460091 -42.601925 
L 214.264111 -42.601925 
L 217.068131 -42.601925 
L 219.872151 -42.601925 
L 222.676171 -42.601925 
L 225.480191 -42.601925 
L 228.284211 -42.601925 
L 231.088232 -42.601925 
L 233.892252 -42.601925 
L 236.696272 -42.601925 
L 239.500292 -42.601925 
L 242.304312 -42.601925 
L 245.108332 -42.601925 
L 247.912352 -42.601925 
L 250.716372 -42.601925 
L 253.520392 -42.601925 
L 256.324412 -42.601925 
L 259.128433 -42.601925 
L 261.932453 -42.601925 
L 264.736473 -42.601925 
L 267.540493 -42.601925 
L 270.344513 -42.601925 
L 273.148533 -42.601925 
L 275.952553 -42.601925 
L 278.756573 -42.601925 
L 281.560593 -42.601925 
L 284.364613 -42.601925 
L 287.168634 -42.601925 
L 289.972654 -42.601925 
L 292.776674 -42.601925 
L 295.580694 -42.601925 
L 298.384714 -42.601925 
L 301.188734 -42.601925 
L 303.992754 -42.601925 
L 306.796774 -42.601925 
L 309.600794 -42.601925 
L 312.404814 -42.601925 
L 315.208835 -42.601925 
L 318.012855 -42.601925 
L 320.816875 -42.601925 
L 323.620895 -42.601925 
L 326.424915 -42.601925 
L 329.228935 -42.601925 
L 332.032955 -42.601925 
L 334.836975 -42.601925 
L 337.640995 -42.601925 
L 340.445015 -42.601925 
L 343.249036 -42.601925 
L 346.053056 -42.601925 
L 348.857076 -42.601925 
L 351.661096 -42.601925 
L 354.465116 -42.601925 
L 357.269136 -42.601925 
L 360.073156 -42.601925 
L 362.877176 -42.601925 
L 365.681196 -42.601925 
L 368.485216 -42.601925 
L 371.289237 -42.601925 
L 374.093257 -42.601925 
L 376.897277 -42.601925 
L 379.701297 -42.601925 
L 382.505317 -42.601925 
L 385.309337 -42.601925 
L 388.113357 -42.601925 
L 390.917377 -42.601925 
L 393.721397 -42.601925 
L 396.525417 -42.601925 
L 399.329438 -42.601925 
L 402.133458 -42.601925 
L 404.937478 -42.601925 
L 407.741498 -42.601925 
L 410.545518 -42.601925 
L 413.349538 -42.601925 
L 416.153558 -42.601925 
L 418.957578 -42.601925 
L 421.761598 -42.601925 
L 424.565618 -42.601925 
L 427.369639 -42.601925 
L 430.173659 -42.601925 
L 432.977679 -42.601925 
L 435.781699 -42.601925 
L 438.585719 -42.601925 
L 441.389739 -42.601925 
L 444.193759 -42.601925 
L 446.997779 -42.601925 
L 449.801799 -42.601925 
L 452.605819 -42.601925 
L 455.40984 -42.601925 
L 458.21386 -42.601925 
L 461.01788 -42.601925 
L 463.8219 -42.601925 
L 466.62592 -42.601925 
L 469.42994 -42.601925 
L 472.23396 -42.601925 
L 475.03798 -42.601925 
L 477.842 -42.601925 
L 480.64602 -42.601925 
L 483.450041 -42.601925 
L 486.254061 -42.601925 
L 489.058081 -42.601925 
L 491.862101 -42.601925 
L 494.666121 -42.601925 
L 497.470141 -42.601925 
L 500.274161 -42.601925 
L 503.078181 -42.601925 
L 505.882201 -42.601925 
L 508.686221 -42.601925 
L 511.490242 -42.601925 
L 514.294262 -42.601925 
L 517.098282 -42.601925 
L 519.902302 -42.601925 
L 522.706322 -42.601925 
L 525.510342 -42.601925 
L 528.314362 -42.601925 
L 531.118382 -42.601925 
L 533.922402 -42.601925 
L 536.726422 -42.601925 
L 539.530443 -42.601925 
L 542.334463 -42.601925 
L 545.138483 -42.601925 
L 547.942503 -42.601925 
L 550.746523 -42.601925 
L 553.550543 -42.601925 
L 556.354563 -42.601925 
L 559.158583 -42.601925 
L 561.962603 -42.601925 
L 564.766623 -42.601925 
L 567.570644 -42.601925 
L 570.374664 -42.601925 
L 573.178684 -42.601925 
L 575.982704 -42.601925 
L 578.786724 -42.601925 
L 581.590744 -42.601925 
L 584.394764 -42.601925 
L 587.198784 -42.601925 
L 590.002804 -42.601925 
L 592.806824 -42.601925 
L 595.610845 -42.601925 
L 598.414865 -42.601925 
L 601.218885 -42.601925 
L 604.022905 -42.601925 
L 606.826925 -42.601925 
L 606.826925 -42.606947 
L 606.826925 -42.606947 
L 604.022905 -42.606947 
L 601.218885 -42.607617 
L 598.414865 -42.609291 
L 595.610845 -42.608621 
L 592.806824 -42.608956 
L 590.002804 -42.610295 
L 587.198784 -42.608621 
L 584.394764 -42.61063 
L 581.590744 -42.609291 
L 578.786724 -42.612973 
L 575.982704 -42.613308 
L 573.178684 -42.612973 
L 570.374664 -42.60996 
L 567.570644 -42.613643 
L 564.766623 -42.61833 
L 561.962603 -42.615652 
L 559.158583 -42.619 
L 556.354563 -42.616656 
L 553.550543 -42.615987 
L 550.746523 -42.617661 
L 547.942503 -42.614982 
L 545.138483 -42.624691 
L 542.334463 -42.624022 
L 539.530443 -42.621343 
L 536.726422 -42.621678 
L 533.922402 -42.625696 
L 531.118382 -42.630718 
L 528.314362 -42.632727 
L 525.510342 -42.6267 
L 522.706322 -42.630383 
L 519.902302 -42.63574 
L 517.098282 -42.639423 
L 514.294262 -42.642101 
L 511.490242 -42.642101 
L 508.686221 -42.644445 
L 505.882201 -42.641097 
L 503.078181 -42.648462 
L 500.274161 -42.655158 
L 497.470141 -42.655828 
L 494.666121 -42.659176 
L 491.862101 -42.66018 
L 489.058081 -42.657837 
L 486.254061 -42.66085 
L 483.450041 -42.66085 
L 480.64602 -42.676585 
L 477.842 -42.68529 
L 475.03798 -42.671898 
L 472.23396 -42.687969 
L 469.42994 -42.681273 
L 466.62592 -42.687969 
L 463.8219 -42.694999 
L 461.01788 -42.689308 
L 458.21386 -42.708057 
L 455.40984 -42.7104 
L 452.605819 -42.729484 
L 449.801799 -42.719105 
L 446.997779 -42.735175 
L 444.193759 -42.751915 
L 441.389739 -42.756937 
L 438.585719 -42.77736 
L 435.781699 -42.776691 
L 432.977679 -42.767986 
L 430.173659 -42.790083 
L 427.369639 -42.79477 
L 424.565618 -42.818875 
L 421.761598 -42.804144 
L 418.957578 -42.837624 
L 416.153558 -42.840303 
L 413.349538 -42.868761 
L 410.545518 -42.876461 
L 407.741498 -42.893536 
L 404.937478 -42.906593 
L 402.133458 -42.900232 
L 399.329438 -42.935721 
L 396.525417 -42.951121 
L 393.721397 -42.977571 
L 390.917377 -43.013394 
L 388.113357 -43.030804 
L 385.309337 -43.062945 
L 382.505317 -43.089729 
L 379.701297 -43.111156 
L 376.897277 -43.132248 
L 374.093257 -43.147984 
L 371.289237 -43.161376 
L 368.485216 -43.194856 
L 365.681196 -43.224318 
L 362.877176 -43.274203 
L 360.073156 -43.335137 
L 357.269136 -43.344511 
L 354.465116 -43.400088 
L 351.661096 -43.420511 
L 348.857076 -43.48881 
L 346.053056 -43.561127 
L 343.249036 -43.655206 
L 340.445015 -43.66458 
L 337.640995 -43.798835 
L 334.836975 -43.844368 
L 332.032955 -43.877178 
L 329.228935 -43.919698 
L 326.424915 -44.085089 
L 323.620895 -44.070023 
L 320.816875 -44.194569 
L 318.012855 -44.233405 
L 315.208835 -44.297687 
L 312.404814 -44.318779 
L 309.600794 -44.455043 
L 306.796774 -44.576575 
L 303.992754 -44.687394 
L 301.188734 -44.77846 
L 298.384714 -44.915728 
L 295.580694 -45.026212 
L 292.776674 -45.163145 
L 289.972654 -45.315144 
L 287.168634 -45.514015 
L 284.364613 -45.559548 
L 281.560593 -45.736992 
L 278.756573 -45.926824 
L 275.952553 -46.143105 
L 273.148533 -46.366081 
L 270.344513 -46.637939 
L 267.540493 -46.812035 
L 264.736473 -47.02999 
L 261.932453 -47.198394 
L 259.128433 -47.428737 
L 256.324412 -47.647696 
L 253.520392 -47.971447 
L 250.716372 -48.253014 
L 247.912352 -48.741153 
L 245.108332 -49.255071 
L 242.304312 -49.722786 
L 239.500292 -50.044529 
L 236.696272 -50.583557 
L 233.892252 -51.094462 
L 231.088232 -51.672996 
L 228.284211 -52.276975 
L 225.480191 -53.09824 
L 222.676171 -53.551224 
L 219.872151 -54.23656 
L 217.068131 -54.695571 
L 214.264111 -55.568059 
L 211.460091 -55.958771 
L 208.656071 -56.073273 
L 205.852051 -56.6046 
L 203.048031 -57.189831 
L 200.24401 -58.042901 
L 197.43999 -58.790844 
L 194.63597 -59.338912 
L 191.83195 -60.038644 
L 189.02793 -60.680121 
L 186.22391 -61.532521 
L 183.41989 -62.361486 
L 180.61587 -64.07131 
L 177.81185 -65.799882 
L 175.00783 -67.549547 
L 172.203809 -69.284146 
L 169.399789 -70.45762 
L 166.595769 -71.668926 
L 163.791749 -72.726225 
L 160.987729 -73.743347 
L 158.183709 -76.694609 
L 155.379689 -77.628031 
L 152.575669 -78.379323 
L 149.771649 -79.387071 
L 146.967629 -79.948195 
L 144.163608 -80.658306 
L 141.359588 -81.679111 
L 138.555568 -82.972444 
L 135.751548 -87.725934 
L 132.947528 -92.528305 
L 130.143508 -96.632284 
L 127.339488 -97.813793 
L 124.535468 -98.728467 
L 121.731448 -99.859421 
L 118.927428 -101.250515 
L 116.123407 -102.811687 
L 113.319387 -105.6528 
L 110.515367 -111.103679 
L 107.711347 -117.192352 
L 104.907327 -123.902748 
L 102.103307 -129.205311 
L 99.299287 -131.614866 
L 96.495267 -134.494146 
L 93.691247 -138.420011 
L 90.887227 -144.035277 
L 88.083206 -152.101278 
L 85.279186 -162.82827 
L 82.475166 -170.971276 
L 79.671146 -181.477969 
L 76.867126 -188.871023 
L 74.063106 -200.959647 
L 71.259086 -215.57601 
L 68.455066 -240.690363 
L 65.651046 -271.106943 
L 62.847026 -302.238655 
L 60.043005 -327.437377 
L 57.238985 -348.180916 
L 54.434965 -359.620027 
L 51.630945 -367.899966 
L 48.826925 -371.505093 
z
" id="m970e3c871e" style="stroke:#000000;"/>
    </defs>
    <g clip-path="url(#peabce5bea4)">
     <use style="fill:#0000ff;stroke:#000000;" x="0.0" xlink:href="#m970e3c871e" y="402.732025"/>
    </g>
   </g>
   <g id="PolyCollection_2">
    <defs>
     <path d="M 48.826925 -372.155274 
L 48.826925 -371.505093 
L 51.630945 -367.899966 
L 54.434965 -359.620027 
L 57.238985 -348.180916 
L 60.043005 -327.437377 
L 62.847026 -302.238655 
L 65.651046 -271.106943 
L 68.455066 -240.690363 
L 71.259086 -215.57601 
L 74.063106 -200.959647 
L 76.867126 -188.871023 
L 79.671146 -181.477969 
L 82.475166 -170.971276 
L 85.279186 -162.82827 
L 88.083206 -152.101278 
L 90.887227 -144.035277 
L 93.691247 -138.420011 
L 96.495267 -134.494146 
L 99.299287 -131.614866 
L 102.103307 -129.205311 
L 104.907327 -123.902748 
L 107.711347 -117.192352 
L 110.515367 -111.103679 
L 113.319387 -105.6528 
L 116.123407 -102.811687 
L 118.927428 -101.250515 
L 121.731448 -99.859421 
L 124.535468 -98.728467 
L 127.339488 -97.813793 
L 130.143508 -96.632284 
L 132.947528 -92.528305 
L 135.751548 -87.725934 
L 138.555568 -82.972444 
L 141.359588 -81.679111 
L 144.163608 -80.658306 
L 146.967629 -79.948195 
L 149.771649 -79.387071 
L 152.575669 -78.379323 
L 155.379689 -77.628031 
L 158.183709 -76.694609 
L 160.987729 -73.743347 
L 163.791749 -72.726225 
L 166.595769 -71.668926 
L 169.399789 -70.45762 
L 172.203809 -69.284146 
L 175.00783 -67.549547 
L 177.81185 -65.799882 
L 180.61587 -64.07131 
L 183.41989 -62.361486 
L 186.22391 -61.532521 
L 189.02793 -60.680121 
L 191.83195 -60.038644 
L 194.63597 -59.338912 
L 197.43999 -58.790844 
L 200.24401 -58.042901 
L 203.048031 -57.189831 
L 205.852051 -56.6046 
L 208.656071 -56.073273 
L 211.460091 -55.958771 
L 214.264111 -55.568059 
L 217.068131 -54.695571 
L 219.872151 -54.23656 
L 222.676171 -53.551224 
L 225.480191 -53.09824 
L 228.284211 -52.276975 
L 231.088232 -51.672996 
L 233.892252 -51.094462 
L 236.696272 -50.583557 
L 239.500292 -50.044529 
L 242.304312 -49.722786 
L 245.108332 -49.255071 
L 247.912352 -48.741153 
L 250.716372 -48.253014 
L 253.520392 -47.971447 
L 256.324412 -47.647696 
L 259.128433 -47.428737 
L 261.932453 -47.198394 
L 264.736473 -47.02999 
L 267.540493 -46.812035 
L 270.344513 -46.637939 
L 273.148533 -46.366081 
L 275.952553 -46.143105 
L 278.756573 -45.926824 
L 281.560593 -45.736992 
L 284.364613 -45.559548 
L 287.168634 -45.514015 
L 289.972654 -45.315144 
L 292.776674 -45.163145 
L 295.580694 -45.026212 
L 298.384714 -44.915728 
L 301.188734 -44.77846 
L 303.992754 -44.687394 
L 306.796774 -44.576575 
L 309.600794 -44.455043 
L 312.404814 -44.318779 
L 315.208835 -44.297687 
L 318.012855 -44.233405 
L 320.816875 -44.194569 
L 323.620895 -44.070023 
L 326.424915 -44.085089 
L 329.228935 -43.919698 
L 332.032955 -43.877178 
L 334.836975 -43.844368 
L 337.640995 -43.798835 
L 340.445015 -43.66458 
L 343.249036 -43.655206 
L 346.053056 -43.561127 
L 348.857076 -43.48881 
L 351.661096 -43.420511 
L 354.465116 -43.400088 
L 357.269136 -43.344511 
L 360.073156 -43.335137 
L 362.877176 -43.274203 
L 365.681196 -43.224318 
L 368.485216 -43.194856 
L 371.289237 -43.161376 
L 374.093257 -43.147984 
L 376.897277 -43.132248 
L 379.701297 -43.111156 
L 382.505317 -43.089729 
L 385.309337 -43.062945 
L 388.113357 -43.030804 
L 390.917377 -43.013394 
L 393.721397 -42.977571 
L 396.525417 -42.951121 
L 399.329438 -42.935721 
L 402.133458 -42.900232 
L 404.937478 -42.906593 
L 407.741498 -42.893536 
L 410.545518 -42.876461 
L 413.349538 -42.868761 
L 416.153558 -42.840303 
L 418.957578 -42.837624 
L 421.761598 -42.804144 
L 424.565618 -42.818875 
L 427.369639 -42.79477 
L 430.173659 -42.790083 
L 432.977679 -42.767986 
L 435.781699 -42.776691 
L 438.585719 -42.77736 
L 441.389739 -42.756937 
L 444.193759 -42.751915 
L 446.997779 -42.735175 
L 449.801799 -42.719105 
L 452.605819 -42.729484 
L 455.40984 -42.7104 
L 458.21386 -42.708057 
L 461.01788 -42.689308 
L 463.8219 -42.694999 
L 466.62592 -42.687969 
L 469.42994 -42.681273 
L 472.23396 -42.687969 
L 475.03798 -42.671898 
L 477.842 -42.68529 
L 480.64602 -42.676585 
L 483.450041 -42.66085 
L 486.254061 -42.66085 
L 489.058081 -42.657837 
L 491.862101 -42.66018 
L 494.666121 -42.659176 
L 497.470141 -42.655828 
L 500.274161 -42.655158 
L 503.078181 -42.648462 
L 505.882201 -42.641097 
L 508.686221 -42.644445 
L 511.490242 -42.642101 
L 514.294262 -42.642101 
L 517.098282 -42.639423 
L 519.902302 -42.63574 
L 522.706322 -42.630383 
L 525.510342 -42.6267 
L 528.314362 -42.632727 
L 531.118382 -42.630718 
L 533.922402 -42.625696 
L 536.726422 -42.621678 
L 539.530443 -42.621343 
L 542.334463 -42.624022 
L 545.138483 -42.624691 
L 547.942503 -42.614982 
L 550.746523 -42.617661 
L 553.550543 -42.615987 
L 556.354563 -42.616656 
L 559.158583 -42.619 
L 561.962603 -42.615652 
L 564.766623 -42.61833 
L 567.570644 -42.613643 
L 570.374664 -42.60996 
L 573.178684 -42.612973 
L 575.982704 -42.613308 
L 578.786724 -42.612973 
L 581.590744 -42.609291 
L 584.394764 -42.61063 
L 587.198784 -42.608621 
L 590.002804 -42.610295 
L 592.806824 -42.608956 
L 595.610845 -42.608621 
L 598.414865 -42.609291 
L 601.218885 -42.607617 
L 604.022905 -42.606947 
L 606.826925 -42.606947 
L 606.826925 -172.051341 
L 606.826925 -172.051341 
L 604.022905 -172.04431 
L 601.218885 -172.193296 
L 598.414865 -171.887289 
L 595.610845 -172.268961 
L 592.806824 -172.212379 
L 590.002804 -171.732276 
L 587.198784 -171.994425 
L 584.394764 -172.062724 
L 581.590744 -172.201666 
L 578.786724 -172.093191 
L 575.982704 -171.819324 
L 573.178684 -172.158811 
L 570.374664 -172.141067 
L 567.570644 -172.037279 
L 564.766623 -171.862513 
L 561.962603 -171.727924 
L 559.158583 -171.892311 
L 556.354563 -172.400202 
L 553.550543 -171.963958 
L 550.746523 -171.760734 
L 547.942503 -172.088503 
L 545.138483 -172.020204 
L 542.334463 -172.005808 
L 539.530443 -172.235815 
L 536.726422 -172.164503 
L 533.922402 -171.784505 
L 531.118382 -172.14408 
L 528.314362 -171.881932 
L 525.510342 -172.06942 
L 522.706322 -172.01853 
L 519.902302 -172.001121 
L 517.098282 -172.200327 
L 514.294262 -171.882267 
L 511.490242 -171.906372 
L 508.686221 -172.151781 
L 505.882201 -171.7681 
L 503.078181 -172.259921 
L 500.274161 -171.928469 
L 497.470141 -172.070759 
L 494.666121 -172.073772 
L 491.862101 -172.188609 
L 489.058081 -172.148433 
L 486.254061 -172.11897 
L 483.450041 -171.943535 
L 480.64602 -172.392167 
L 477.842 -172.13638 
L 475.03798 -171.940187 
L 472.23396 -172.01016 
L 469.42994 -172.104239 
L 466.62592 -171.869879 
L 463.8219 -171.73395 
L 461.01788 -172.294405 
L 458.21386 -171.962284 
L 455.40984 -171.884945 
L 452.605819 -172.366387 
L 449.801799 -172.225437 
L 446.997779 -172.383462 
L 444.193759 -172.011499 
L 441.389739 -172.607778 
L 438.585719 -172.146424 
L 435.781699 -171.952575 
L 432.977679 -172.138723 
L 430.173659 -172.200661 
L 427.369639 -171.864522 
L 424.565618 -172.062054 
L 421.761598 -172.257577 
L 418.957578 -172.240503 
L 416.153558 -172.418616 
L 413.349538 -172.159146 
L 410.545518 -172.1106 
L 407.741498 -172.124662 
L 404.937478 -172.130353 
L 402.133458 -172.08549 
L 399.329438 -172.102565 
L 396.525417 -171.991077 
L 393.721397 -172.574633 
L 390.917377 -172.211375 
L 388.113357 -171.972328 
L 385.309337 -172.103569 
L 382.505317 -172.549523 
L 379.701297 -172.31985 
L 376.897277 -172.564254 
L 374.093257 -172.116961 
L 371.289237 -172.330899 
L 368.485216 -172.159816 
L 365.681196 -172.316167 
L 362.877176 -172.483567 
L 360.073156 -172.409911 
L 357.269136 -172.218071 
L 354.465116 -172.124327 
L 351.661096 -172.26963 
L 348.857076 -172.711566 
L 346.053056 -172.380114 
L 343.249036 -171.997773 
L 340.445015 -172.498299 
L 337.640995 -172.577646 
L 334.836975 -172.758103 
L 332.032955 -172.393506 
L 329.228935 -172.718262 
L 326.424915 -172.463814 
L 323.620895 -172.479215 
L 320.816875 -172.925838 
L 318.012855 -172.555215 
L 315.208835 -172.835107 
L 312.404814 -172.87227 
L 309.600794 -172.796605 
L 306.796774 -172.940235 
L 303.992754 -172.887671 
L 301.188734 -173.086877 
L 298.384714 -172.854861 
L 295.580694 -173.298471 
L 292.776674 -173.392549 
L 289.972654 -173.313537 
L 287.168634 -173.705253 
L 284.364613 -173.623561 
L 281.560593 -173.373466 
L 278.756573 -173.55861 
L 275.952553 -173.551914 
L 273.148533 -174.267382 
L 270.344513 -174.058801 
L 267.540493 -174.163929 
L 264.736473 -174.264034 
L 261.932453 -174.232228 
L 259.128433 -174.74782 
L 256.324412 -174.621265 
L 253.520392 -174.664789 
L 250.716372 -174.67182 
L 247.912352 -175.320328 
L 245.108332 -175.343764 
L 242.304312 -175.458265 
L 239.500292 -175.669189 
L 236.696272 -176.122843 
L 233.892252 -176.475053 
L 231.088232 -176.658858 
L 228.284211 -176.980601 
L 225.480191 -177.419189 
L 222.676171 -177.732562 
L 219.872151 -178.102516 
L 217.068131 -178.264894 
L 214.264111 -178.439659 
L 211.460091 -178.916415 
L 208.656071 -178.826019 
L 205.852051 -178.935498 
L 203.048031 -179.210369 
L 200.24401 -179.940233 
L 197.43999 -180.533164 
L 194.63597 -180.545217 
L 191.83195 -181.280437 
L 189.02793 -181.10065 
L 186.22391 -181.657757 
L 183.41989 -182.286177 
L 180.61587 -182.870737 
L 177.81185 -184.218642 
L 175.00783 -185.540433 
L 172.203809 -186.29775 
L 169.399789 -186.540145 
L 166.595769 -187.438414 
L 163.791749 -187.815064 
L 160.987729 -188.356101 
L 158.183709 -189.615953 
L 155.379689 -189.975863 
L 152.575669 -190.426504 
L 149.771649 -190.939417 
L 146.967629 -191.366622 
L 144.163608 -191.632453 
L 141.359588 -191.975623 
L 138.555568 -192.547797 
L 135.751548 -195.752502 
L 132.947528 -199.809943 
L 130.143508 -202.063817 
L 127.339488 -202.68621 
L 124.535468 -202.875707 
L 121.731448 -203.730786 
L 118.927428 -204.484421 
L 116.123407 -205.098444 
L 113.319387 -206.479159 
L 110.515367 -209.936304 
L 107.711347 -213.987719 
L 104.907327 -218.422145 
L 102.103307 -221.858197 
L 99.299287 -223.282437 
L 96.495267 -224.79138 
L 93.691247 -226.669608 
L 90.887227 -229.837821 
L 88.083206 -234.922763 
L 85.279186 -241.997422 
L 82.475166 -246.62101 
L 79.671146 -253.125169 
L 76.867126 -257.612494 
L 74.063106 -264.609814 
L 71.259086 -273.625308 
L 68.455066 -290.311405 
L 65.651046 -311.181498 
L 62.847026 -332.5635 
L 60.043005 -348.641935 
L 57.238985 -361.200618 
L 54.434965 -367.127917 
L 51.630945 -370.821431 
L 48.826925 -372.155274 
z
" id="m5839a46e51" style="stroke:#000000;"/>
    </defs>
    <g clip-path="url(#peabce5bea4)">
     <use style="fill:#008000;stroke:#000000;" x="0.0" xlink:href="#m5839a46e51" y="402.732025"/>
    </g>
   </g>
   <g id="PolyCollection_3">
    <defs>
     <path d="M 48.826925 -377.401925 
L 48.826925 -372.155274 
L 51.630945 -370.821431 
L 54.434965 -367.127917 
L 57.238985 -361.200618 
L 60.043005 -348.641935 
L 62.847026 -332.5635 
L 65.651046 -311.181498 
L 68.455066 -290.311405 
L 71.259086 -273.625308 
L 74.063106 -264.609814 
L 76.867126 -257.612494 
L 79.671146 -253.125169 
L 82.475166 -246.62101 
L 85.279186 -241.997422 
L 88.083206 -234.922763 
L 90.887227 -229.837821 
L 93.691247 -226.669608 
L 96.495267 -224.79138 
L 99.299287 -223.282437 
L 102.103307 -221.858197 
L 104.907327 -218.422145 
L 107.711347 -213.987719 
L 110.515367 -209.936304 
L 113.319387 -206.479159 
L 116.123407 -205.098444 
L 118.927428 -204.484421 
L 121.731448 -203.730786 
L 124.535468 -202.875707 
L 127.339488 -202.68621 
L 130.143508 -202.063817 
L 132.947528 -199.809943 
L 135.751548 -195.752502 
L 138.555568 -192.547797 
L 141.359588 -191.975623 
L 144.163608 -191.632453 
L 146.967629 -191.366622 
L 149.771649 -190.939417 
L 152.575669 -190.426504 
L 155.379689 -189.975863 
L 158.183709 -189.615953 
L 160.987729 -188.356101 
L 163.791749 -187.815064 
L 166.595769 -187.438414 
L 169.399789 -186.540145 
L 172.203809 -186.29775 
L 175.00783 -185.540433 
L 177.81185 -184.218642 
L 180.61587 -182.870737 
L 183.41989 -182.286177 
L 186.22391 -181.657757 
L 189.02793 -181.10065 
L 191.83195 -181.280437 
L 194.63597 -180.545217 
L 197.43999 -180.533164 
L 200.24401 -179.940233 
L 203.048031 -179.210369 
L 205.852051 -178.935498 
L 208.656071 -178.826019 
L 211.460091 -178.916415 
L 214.264111 -178.439659 
L 217.068131 -178.264894 
L 219.872151 -178.102516 
L 222.676171 -177.732562 
L 225.480191 -177.419189 
L 228.284211 -176.980601 
L 231.088232 -176.658858 
L 233.892252 -176.475053 
L 236.696272 -176.122843 
L 239.500292 -175.669189 
L 242.304312 -175.458265 
L 245.108332 -175.343764 
L 247.912352 -175.320328 
L 250.716372 -174.67182 
L 253.520392 -174.664789 
L 256.324412 -174.621265 
L 259.128433 -174.74782 
L 261.932453 -174.232228 
L 264.736473 -174.264034 
L 267.540493 -174.163929 
L 270.344513 -174.058801 
L 273.148533 -174.267382 
L 275.952553 -173.551914 
L 278.756573 -173.55861 
L 281.560593 -173.373466 
L 284.364613 -173.623561 
L 287.168634 -173.705253 
L 289.972654 -173.313537 
L 292.776674 -173.392549 
L 295.580694 -173.298471 
L 298.384714 -172.854861 
L 301.188734 -173.086877 
L 303.992754 -172.887671 
L 306.796774 -172.940235 
L 309.600794 -172.796605 
L 312.404814 -172.87227 
L 315.208835 -172.835107 
L 318.012855 -172.555215 
L 320.816875 -172.925838 
L 323.620895 -172.479215 
L 326.424915 -172.463814 
L 329.228935 -172.718262 
L 332.032955 -172.393506 
L 334.836975 -172.758103 
L 337.640995 -172.577646 
L 340.445015 -172.498299 
L 343.249036 -171.997773 
L 346.053056 -172.380114 
L 348.857076 -172.711566 
L 351.661096 -172.26963 
L 354.465116 -172.124327 
L 357.269136 -172.218071 
L 360.073156 -172.409911 
L 362.877176 -172.483567 
L 365.681196 -172.316167 
L 368.485216 -172.159816 
L 371.289237 -172.330899 
L 374.093257 -172.116961 
L 376.897277 -172.564254 
L 379.701297 -172.31985 
L 382.505317 -172.549523 
L 385.309337 -172.103569 
L 388.113357 -171.972328 
L 390.917377 -172.211375 
L 393.721397 -172.574633 
L 396.525417 -171.991077 
L 399.329438 -172.102565 
L 402.133458 -172.08549 
L 404.937478 -172.130353 
L 407.741498 -172.124662 
L 410.545518 -172.1106 
L 413.349538 -172.159146 
L 416.153558 -172.418616 
L 418.957578 -172.240503 
L 421.761598 -172.257577 
L 424.565618 -172.062054 
L 427.369639 -171.864522 
L 430.173659 -172.200661 
L 432.977679 -172.138723 
L 435.781699 -171.952575 
L 438.585719 -172.146424 
L 441.389739 -172.607778 
L 444.193759 -172.011499 
L 446.997779 -172.383462 
L 449.801799 -172.225437 
L 452.605819 -172.366387 
L 455.40984 -171.884945 
L 458.21386 -171.962284 
L 461.01788 -172.294405 
L 463.8219 -171.73395 
L 466.62592 -171.869879 
L 469.42994 -172.104239 
L 472.23396 -172.01016 
L 475.03798 -171.940187 
L 477.842 -172.13638 
L 480.64602 -172.392167 
L 483.450041 -171.943535 
L 486.254061 -172.11897 
L 489.058081 -172.148433 
L 491.862101 -172.188609 
L 494.666121 -172.073772 
L 497.470141 -172.070759 
L 500.274161 -171.928469 
L 503.078181 -172.259921 
L 505.882201 -171.7681 
L 508.686221 -172.151781 
L 511.490242 -171.906372 
L 514.294262 -171.882267 
L 517.098282 -172.200327 
L 519.902302 -172.001121 
L 522.706322 -172.01853 
L 525.510342 -172.06942 
L 528.314362 -171.881932 
L 531.118382 -172.14408 
L 533.922402 -171.784505 
L 536.726422 -172.164503 
L 539.530443 -172.235815 
L 542.334463 -172.005808 
L 545.138483 -172.020204 
L 547.942503 -172.088503 
L 550.746523 -171.760734 
L 553.550543 -171.963958 
L 556.354563 -172.400202 
L 559.158583 -171.892311 
L 561.962603 -171.727924 
L 564.766623 -171.862513 
L 567.570644 -172.037279 
L 570.374664 -172.141067 
L 573.178684 -172.158811 
L 575.982704 -171.819324 
L 578.786724 -172.093191 
L 581.590744 -172.201666 
L 584.394764 -172.062724 
L 587.198784 -171.994425 
L 590.002804 -171.732276 
L 592.806824 -172.212379 
L 595.610845 -172.268961 
L 598.414865 -171.887289 
L 601.218885 -172.193296 
L 604.022905 -172.04431 
L 606.826925 -172.051341 
L 606.826925 -377.401925 
L 606.826925 -377.401925 
L 604.022905 -377.401925 
L 601.218885 -377.401925 
L 598.414865 -377.401925 
L 595.610845 -377.401925 
L 592.806824 -377.401925 
L 590.002804 -377.401925 
L 587.198784 -377.401925 
L 584.394764 -377.401925 
L 581.590744 -377.401925 
L 578.786724 -377.401925 
L 575.982704 -377.401925 
L 573.178684 -377.401925 
L 570.374664 -377.401925 
L 567.570644 -377.401925 
L 564.766623 -377.401925 
L 561.962603 -377.401925 
L 559.158583 -377.401925 
L 556.354563 -377.401925 
L 553.550543 -377.401925 
L 550.746523 -377.401925 
L 547.942503 -377.401925 
L 545.138483 -377.401925 
L 542.334463 -377.401925 
L 539.530443 -377.401925 
L 536.726422 -377.401925 
L 533.922402 -377.401925 
L 531.118382 -377.401925 
L 528.314362 -377.401925 
L 525.510342 -377.401925 
L 522.706322 -377.401925 
L 519.902302 -377.401925 
L 517.098282 -377.401925 
L 514.294262 -377.401925 
L 511.490242 -377.401925 
L 508.686221 -377.401925 
L 505.882201 -377.401925 
L 503.078181 -377.401925 
L 500.274161 -377.401925 
L 497.470141 -377.401925 
L 494.666121 -377.401925 
L 491.862101 -377.401925 
L 489.058081 -377.401925 
L 486.254061 -377.401925 
L 483.450041 -377.401925 
L 480.64602 -377.401925 
L 477.842 -377.401925 
L 475.03798 -377.401925 
L 472.23396 -377.401925 
L 469.42994 -377.401925 
L 466.62592 -377.401925 
L 463.8219 -377.401925 
L 461.01788 -377.401925 
L 458.21386 -377.401925 
L 455.40984 -377.401925 
L 452.605819 -377.401925 
L 449.801799 -377.401925 
L 446.997779 -377.401925 
L 444.193759 -377.401925 
L 441.389739 -377.401925 
L 438.585719 -377.401925 
L 435.781699 -377.401925 
L 432.977679 -377.401925 
L 430.173659 -377.401925 
L 427.369639 -377.401925 
L 424.565618 -377.401925 
L 421.761598 -377.401925 
L 418.957578 -377.401925 
L 416.153558 -377.401925 
L 413.349538 -377.401925 
L 410.545518 -377.401925 
L 407.741498 -377.401925 
L 404.937478 -377.401925 
L 402.133458 -377.401925 
L 399.329438 -377.401925 
L 396.525417 -377.401925 
L 393.721397 -377.401925 
L 390.917377 -377.401925 
L 388.113357 -377.401925 
L 385.309337 -377.401925 
L 382.505317 -377.401925 
L 379.701297 -377.401925 
L 376.897277 -377.401925 
L 374.093257 -377.401925 
L 371.289237 -377.401925 
L 368.485216 -377.401925 
L 365.681196 -377.401925 
L 362.877176 -377.401925 
L 360.073156 -377.401925 
L 357.269136 -377.401925 
L 354.465116 -377.401925 
L 351.661096 -377.401925 
L 348.857076 -377.401925 
L 346.053056 -377.401925 
L 343.249036 -377.401925 
L 340.445015 -377.401925 
L 337.640995 -377.401925 
L 334.836975 -377.401925 
L 332.032955 -377.401925 
L 329.228935 -377.401925 
L 326.424915 -377.401925 
L 323.620895 -377.401925 
L 320.816875 -377.401925 
L 318.012855 -377.401925 
L 315.208835 -377.401925 
L 312.404814 -377.401925 
L 309.600794 -377.401925 
L 306.796774 -377.401925 
L 303.992754 -377.401925 
L 301.188734 -377.401925 
L 298.384714 -377.401925 
L 295.580694 -377.401925 
L 292.776674 -377.401925 
L 289.972654 -377.401925 
L 287.168634 -377.401925 
L 284.364613 -377.401925 
L 281.560593 -377.401925 
L 278.756573 -377.401925 
L 275.952553 -377.401925 
L 273.148533 -377.401925 
L 270.344513 -377.401925 
L 267.540493 -377.401925 
L 264.736473 -377.401925 
L 261.932453 -377.401925 
L 259.128433 -377.401925 
L 256.324412 -377.401925 
L 253.520392 -377.401925 
L 250.716372 -377.401925 
L 247.912352 -377.401925 
L 245.108332 -377.401925 
L 242.304312 -377.401925 
L 239.500292 -377.401925 
L 236.696272 -377.401925 
L 233.892252 -377.401925 
L 231.088232 -377.401925 
L 228.284211 -377.401925 
L 225.480191 -377.401925 
L 222.676171 -377.401925 
L 219.872151 -377.401925 
L 217.068131 -377.401925 
L 214.264111 -377.401925 
L 211.460091 -377.401925 
L 208.656071 -377.401925 
L 205.852051 -377.401925 
L 203.048031 -377.401925 
L 200.24401 -377.401925 
L 197.43999 -377.401925 
L 194.63597 -377.401925 
L 191.83195 -377.401925 
L 189.02793 -377.401925 
L 186.22391 -377.401925 
L 183.41989 -377.401925 
L 180.61587 -377.401925 
L 177.81185 -377.401925 
L 175.00783 -377.401925 
L 172.203809 -377.401925 
L 169.399789 -377.401925 
L 166.595769 -377.401925 
L 163.791749 -377.401925 
L 160.987729 -377.401925 
L 158.183709 -377.401925 
L 155.379689 -377.401925 
L 152.575669 -377.401925 
L 149.771649 -377.401925 
L 146.967629 -377.401925 
L 144.163608 -377.401925 
L 141.359588 -377.401925 
L 138.555568 -377.401925 
L 135.751548 -377.401925 
L 132.947528 -377.401925 
L 130.143508 -377.401925 
L 127.339488 -377.401925 
L 124.535468 -377.401925 
L 121.731448 -377.401925 
L 118.927428 -377.401925 
L 116.123407 -377.401925 
L 113.319387 -377.401925 
L 110.515367 -377.401925 
L 107.711347 -377.401925 
L 104.907327 -377.401925 
L 102.103307 -377.401925 
L 99.299287 -377.401925 
L 96.495267 -377.401925 
L 93.691247 -377.401925 
L 90.887227 -377.401925 
L 88.083206 -377.401925 
L 85.279186 -377.401925 
L 82.475166 -377.401925 
L 79.671146 -377.401925 
L 76.867126 -377.401925 
L 74.063106 -377.401925 
L 71.259086 -377.401925 
L 68.455066 -377.401925 
L 65.651046 -377.401925 
L 62.847026 -377.401925 
L 60.043005 -377.401925 
L 57.238985 -377.401925 
L 54.434965 -377.401925 
L 51.630945 -377.401925 
L 48.826925 -377.401925 
z
" id="m23fe4ea6c0" style="stroke:#000000;"/>
    </defs>
    <g clip-path="url(#peabce5bea4)">
     <use style="fill:#ff0000;stroke:#000000;" x="0.0" xlink:href="#m23fe4ea6c0" y="402.732025"/>
    </g>
   </g>
   <g id="line2d_1">
    <path clip-path="url(#peabce5bea4)" d="M 326.424915 360.1301 
L 326.424915 25.3301 
" style="fill:none;stroke:#000000;stroke-dasharray:6.000000,6.000000;stroke-dashoffset:0.0;stroke-width:2.0;"/>
   </g>
   <g id="patch_3">
    <path d="M 48.826925 25.3301 
L 606.826925 25.3301 
" style="fill:none;stroke:#000000;stroke-linecap:square;stroke-linejoin:miter;"/>
   </g>
   <g id="patch_4">
    <path d="M 606.826925 360.1301 
L 606.826925 25.3301 
" style="fill:none;stroke:#000000;stroke-linecap:square;stroke-linejoin:miter;"/>
   </g>
   <g id="patch_5">
    <path d="M 48.826925 360.1301 
L 606.826925 360.1301 
" style="fill:none;stroke:#000000;stroke-linecap:square;stroke-linejoin:miter;"/>
   </g>
   <g id="patch_6">
    <path d="M 48.826925 360.1301 
L 48.826925 25.3301 
" style="fill:none;stroke:#000000;stroke-linecap:square;stroke-linejoin:miter;"/>
   </g>
   <g id="matplotlib.axis_1">
    <g id="xtick_1">
     <g id="line2d_2">
      <defs>
       <path d="M 0 0 
L 0 -4 
" id="m1a0e46cde5" style="stroke:#000000;stroke-width:0.5;"/>
      </defs>
      <g>
       <use style="stroke:#000000;stroke-width:0.5;" x="158.18370892" xlink:href="#m1a0e46cde5" y="360.1301"/>
      </g>
     </g>
     <g id="line2d_3">
      <defs>
       <path d="M 0 0 
L 0 4 
" id="m185d510525" style="stroke:#000000;stroke-width:0.5;"/>
      </defs>
      <g>
       <use style="stroke:#000000;stroke-width:0.5;" x="158.18370892" xlink:href="#m185d510525" y="25.3301"/>
      </g>
     </g>
     <g id="text_1">
      <!-- 2000 -->
      <defs>
       <path d="M 19.1875 8.296875 
L 53.609375 8.296875 
L 53.609375 0 
L 7.328125 0 
L 7.328125 8.296875 
Q 12.9375 14.109375 22.625 23.890625 
Q 32.328125 33.6875 34.8125 36.53125 
Q 39.546875 41.84375 41.421875 45.53125 
Q 43.3125 49.21875 43.3125 52.78125 
Q 43.3125 58.59375 39.234375 62.25 
Q 35.15625 65.921875 28.609375 65.921875 
Q 23.96875 65.921875 18.8125 64.3125 
Q 13.671875 62.703125 7.8125 59.421875 
L 7.8125 69.390625 
Q 13.765625 71.78125 18.9375 73 
Q 24.125 74.21875 28.421875 74.21875 
Q 39.75 74.21875 46.484375 68.546875 
Q 53.21875 62.890625 53.21875 53.421875 
Q 53.21875 48.921875 51.53125 44.890625 
Q 49.859375 40.875 45.40625 35.40625 
Q 44.1875 33.984375 37.640625 27.21875 
Q 31.109375 20.453125 19.1875 8.296875 
" id="BitstreamVeraSans-Roman-32"/>
       <path d="M 31.78125 66.40625 
Q 24.171875 66.40625 20.328125 58.90625 
Q 16.5 51.421875 16.5 36.375 
Q 16.5 21.390625 20.328125 13.890625 
Q 24.171875 6.390625 31.78125 6.390625 
Q 39.453125 6.390625 43.28125 13.890625 
Q 47.125 21.390625 47.125 36.375 
Q 47.125 51.421875 43.28125 58.90625 
Q 39.453125 66.40625 31.78125 66.40625 
M 31.78125 74.21875 
Q 44.046875 74.21875 50.515625 64.515625 
Q 56.984375 54.828125 56.984375 36.375 
Q 56.984375 17.96875 50.515625 8.265625 
Q 44.046875 -1.421875 31.78125 -1.421875 
Q 19.53125 -1.421875 13.0625 8.265625 
Q 6.59375 17.96875 6.59375 36.375 
Q 6.59375 54.828125 13.0625 64.515625 
Q 19.53125 74.21875 31.78125 74.21875 
" id="BitstreamVeraSans-Roman-30"/>
      </defs>
      <g transform="translate(145.45870892 371.7285375)scale(0.1 -0.1)">
       <use xlink:href="#BitstreamVeraSans-Roman-32"/>
       <use x="63.623046875" xlink:href="#BitstreamVeraSans-Roman-30"/>
       <use x="127.24609375" xlink:href="#BitstreamVeraSans-Roman-30"/>
       <use x="190.869140625" xlink:href="#BitstreamVeraSans-Roman-30"/>
      </g>
     </g>
    </g>
    <g id="xtick_2">
     <g id="line2d_4">
      <g>
       <use style="stroke:#000000;stroke-width:0.5;" x="270.34451294" xlink:href="#m1a0e46cde5" y="360.1301"/>
      </g>
     </g>
     <g id="line2d_5">
      <g>
       <use style="stroke:#000000;stroke-width:0.5;" x="270.34451294" xlink:href="#m185d510525" y="25.3301"/>
      </g>
     </g>
     <g id="text_2">
      <!-- 4000 -->
      <defs>
       <path d="M 37.796875 64.3125 
L 12.890625 25.390625 
L 37.796875 25.390625 
z
M 35.203125 72.90625 
L 47.609375 72.90625 
L 47.609375 25.390625 
L 58.015625 25.390625 
L 58.015625 17.1875 
L 47.609375 17.1875 
L 47.609375 0 
L 37.796875 0 
L 37.796875 17.1875 
L 4.890625 17.1875 
L 4.890625 26.703125 
z
" id="BitstreamVeraSans-Roman-34"/>
      </defs>
      <g transform="translate(257.61951294 371.7285375)scale(0.1 -0.1)">
       <use xlink:href="#BitstreamVeraSans-Roman-34"/>
       <use x="63.623046875" xlink:href="#BitstreamVeraSans-Roman-30"/>
       <use x="127.24609375" xlink:href="#BitstreamVeraSans-Roman-30"/>
       <use x="190.869140625" xlink:href="#BitstreamVeraSans-Roman-30"/>
      </g>
     </g>
    </g>
    <g id="xtick_3">
     <g id="line2d_6">
      <g>
       <use style="stroke:#000000;stroke-width:0.5;" x="382.50531696" xlink:href="#m1a0e46cde5" y="360.1301"/>
      </g>
     </g>
     <g id="line2d_7">
      <g>
       <use style="stroke:#000000;stroke-width:0.5;" x="382.50531696" xlink:href="#m185d510525" y="25.3301"/>
      </g>
     </g>
     <g id="text_3">
      <!-- 6000 -->
      <defs>
       <path d="M 33.015625 40.375 
Q 26.375 40.375 22.484375 35.828125 
Q 18.609375 31.296875 18.609375 23.390625 
Q 18.609375 15.53125 22.484375 10.953125 
Q 26.375 6.390625 33.015625 6.390625 
Q 39.65625 6.390625 43.53125 10.953125 
Q 47.40625 15.53125 47.40625 23.390625 
Q 47.40625 31.296875 43.53125 35.828125 
Q 39.65625 40.375 33.015625 40.375 
M 52.59375 71.296875 
L 52.59375 62.3125 
Q 48.875 64.0625 45.09375 64.984375 
Q 41.3125 65.921875 37.59375 65.921875 
Q 27.828125 65.921875 22.671875 59.328125 
Q 17.53125 52.734375 16.796875 39.40625 
Q 19.671875 43.65625 24.015625 45.921875 
Q 28.375 48.1875 33.59375 48.1875 
Q 44.578125 48.1875 50.953125 41.515625 
Q 57.328125 34.859375 57.328125 23.390625 
Q 57.328125 12.15625 50.6875 5.359375 
Q 44.046875 -1.421875 33.015625 -1.421875 
Q 20.359375 -1.421875 13.671875 8.265625 
Q 6.984375 17.96875 6.984375 36.375 
Q 6.984375 53.65625 15.1875 63.9375 
Q 23.390625 74.21875 37.203125 74.21875 
Q 40.921875 74.21875 44.703125 73.484375 
Q 48.484375 72.75 52.59375 71.296875 
" id="BitstreamVeraSans-Roman-36"/>
      </defs>
      <g transform="translate(369.78031696 371.7285375)scale(0.1 -0.1)">
       <use xlink:href="#BitstreamVeraSans-Roman-36"/>
       <use x="63.623046875" xlink:href="#BitstreamVeraSans-Roman-30"/>
       <use x="127.24609375" xlink:href="#BitstreamVeraSans-Roman-30"/>
       <use x="190.869140625" xlink:href="#BitstreamVeraSans-Roman-30"/>
      </g>
     </g>
    </g>
    <g id="xtick_4">
     <g id="line2d_8">
      <g>
       <use style="stroke:#000000;stroke-width:0.5;" x="494.66612098" xlink:href="#m1a0e46cde5" y="360.1301"/>
      </g>
     </g>
     <g id="line2d_9">
      <g>
       <use style="stroke:#000000;stroke-width:0.5;" x="494.66612098" xlink:href="#m185d510525" y="25.3301"/>
      </g>
     </g>
     <g id="text_4">
      <!-- 8000 -->
      <defs>
       <path d="M 31.78125 34.625 
Q 24.75 34.625 20.71875 30.859375 
Q 16.703125 27.09375 16.703125 20.515625 
Q 16.703125 13.921875 20.71875 10.15625 
Q 24.75 6.390625 31.78125 6.390625 
Q 38.8125 6.390625 42.859375 10.171875 
Q 46.921875 13.96875 46.921875 20.515625 
Q 46.921875 27.09375 42.890625 30.859375 
Q 38.875 34.625 31.78125 34.625 
M 21.921875 38.8125 
Q 15.578125 40.375 12.03125 44.71875 
Q 8.5 49.078125 8.5 55.328125 
Q 8.5 64.0625 14.71875 69.140625 
Q 20.953125 74.21875 31.78125 74.21875 
Q 42.671875 74.21875 48.875 69.140625 
Q 55.078125 64.0625 55.078125 55.328125 
Q 55.078125 49.078125 51.53125 44.71875 
Q 48 40.375 41.703125 38.8125 
Q 48.828125 37.15625 52.796875 32.3125 
Q 56.78125 27.484375 56.78125 20.515625 
Q 56.78125 9.90625 50.3125 4.234375 
Q 43.84375 -1.421875 31.78125 -1.421875 
Q 19.734375 -1.421875 13.25 4.234375 
Q 6.78125 9.90625 6.78125 20.515625 
Q 6.78125 27.484375 10.78125 32.3125 
Q 14.796875 37.15625 21.921875 38.8125 
M 18.3125 54.390625 
Q 18.3125 48.734375 21.84375 45.5625 
Q 25.390625 42.390625 31.78125 42.390625 
Q 38.140625 42.390625 41.71875 45.5625 
Q 45.3125 48.734375 45.3125 54.390625 
Q 45.3125 60.0625 41.71875 63.234375 
Q 38.140625 66.40625 31.78125 66.40625 
Q 25.390625 66.40625 21.84375 63.234375 
Q 18.3125 60.0625 18.3125 54.390625 
" id="BitstreamVeraSans-Roman-38"/>
      </defs>
      <g transform="translate(481.94112098 371.7285375)scale(0.1 -0.1)">
       <use xlink:href="#BitstreamVeraSans-Roman-38"/>
       <use x="63.623046875" xlink:href="#BitstreamVeraSans-Roman-30"/>
       <use x="127.24609375" xlink:href="#BitstreamVeraSans-Roman-30"/>
       <use x="190.869140625" xlink:href="#BitstreamVeraSans-Roman-30"/>
      </g>
     </g>
    </g>
    <g id="xtick_5">
     <g id="line2d_10">
      <g>
       <use style="stroke:#000000;stroke-width:0.5;" x="606.826925" xlink:href="#m1a0e46cde5" y="360.1301"/>
      </g>
     </g>
     <g id="line2d_11">
      <g>
       <use style="stroke:#000000;stroke-width:0.5;" x="606.826925" xlink:href="#m185d510525" y="25.3301"/>
      </g>
     </g>
     <g id="text_5">
      <!-- 10000 -->
      <defs>
       <path d="M 12.40625 8.296875 
L 28.515625 8.296875 
L 28.515625 63.921875 
L 10.984375 60.40625 
L 10.984375 69.390625 
L 28.421875 72.90625 
L 38.28125 72.90625 
L 38.28125 8.296875 
L 54.390625 8.296875 
L 54.390625 0 
L 12.40625 0 
z
" id="BitstreamVeraSans-Roman-31"/>
      </defs>
      <g transform="translate(590.920675 371.7285375)scale(0.1 -0.1)">
       <use xlink:href="#BitstreamVeraSans-Roman-31"/>
       <use x="63.623046875" xlink:href="#BitstreamVeraSans-Roman-30"/>
       <use x="127.24609375" xlink:href="#BitstreamVeraSans-Roman-30"/>
       <use x="190.869140625" xlink:href="#BitstreamVeraSans-Roman-30"/>
       <use x="254.4921875" xlink:href="#BitstreamVeraSans-Roman-30"/>
      </g>
     </g>
    </g>
    <g id="text_6">
     <!-- Soldiers at Start -->
     <defs>
      <path id="BitstreamVeraSans-Roman-20"/>
      <path d="M 34.28125 27.484375 
Q 23.390625 27.484375 19.1875 25 
Q 14.984375 22.515625 14.984375 16.5 
Q 14.984375 11.71875 18.140625 8.90625 
Q 21.296875 6.109375 26.703125 6.109375 
Q 34.1875 6.109375 38.703125 11.40625 
Q 43.21875 16.703125 43.21875 25.484375 
L 43.21875 27.484375 
z
M 52.203125 31.203125 
L 52.203125 0 
L 43.21875 0 
L 43.21875 8.296875 
Q 40.140625 3.328125 35.546875 0.953125 
Q 30.953125 -1.421875 24.3125 -1.421875 
Q 15.921875 -1.421875 10.953125 3.296875 
Q 6 8.015625 6 15.921875 
Q 6 25.140625 12.171875 29.828125 
Q 18.359375 34.515625 30.609375 34.515625 
L 43.21875 34.515625 
L 43.21875 35.40625 
Q 43.21875 41.609375 39.140625 45 
Q 35.0625 48.390625 27.6875 48.390625 
Q 23 48.390625 18.546875 47.265625 
Q 14.109375 46.140625 10.015625 43.890625 
L 10.015625 52.203125 
Q 14.9375 54.109375 19.578125 55.046875 
Q 24.21875 56 28.609375 56 
Q 40.484375 56 46.34375 49.84375 
Q 52.203125 43.703125 52.203125 31.203125 
" id="BitstreamVeraSans-Roman-61"/>
      <path d="M 30.609375 48.390625 
Q 23.390625 48.390625 19.1875 42.75 
Q 14.984375 37.109375 14.984375 27.296875 
Q 14.984375 17.484375 19.15625 11.84375 
Q 23.34375 6.203125 30.609375 6.203125 
Q 37.796875 6.203125 41.984375 11.859375 
Q 46.1875 17.53125 46.1875 27.296875 
Q 46.1875 37.015625 41.984375 42.703125 
Q 37.796875 48.390625 30.609375 48.390625 
M 30.609375 56 
Q 42.328125 56 49.015625 48.375 
Q 55.71875 40.765625 55.71875 27.296875 
Q 55.71875 13.875 49.015625 6.21875 
Q 42.328125 -1.421875 30.609375 -1.421875 
Q 18.84375 -1.421875 12.171875 6.21875 
Q 5.515625 13.875 5.515625 27.296875 
Q 5.515625 40.765625 12.171875 48.375 
Q 18.84375 56 30.609375 56 
" id="BitstreamVeraSans-Roman-6f"/>
      <path d="M 9.421875 75.984375 
L 18.40625 75.984375 
L 18.40625 0 
L 9.421875 0 
z
" id="BitstreamVeraSans-Roman-6c"/>
      <path d="M 53.515625 70.515625 
L 53.515625 60.890625 
Q 47.90625 63.578125 42.921875 64.890625 
Q 37.9375 66.21875 33.296875 66.21875 
Q 25.25 66.21875 20.875 63.09375 
Q 16.5 59.96875 16.5 54.203125 
Q 16.5 49.359375 19.40625 46.890625 
Q 22.3125 44.4375 30.421875 42.921875 
L 36.375 41.703125 
Q 47.40625 39.59375 52.65625 34.296875 
Q 57.90625 29 57.90625 20.125 
Q 57.90625 9.515625 50.796875 4.046875 
Q 43.703125 -1.421875 29.984375 -1.421875 
Q 24.8125 -1.421875 18.96875 -0.25 
Q 13.140625 0.921875 6.890625 3.21875 
L 6.890625 13.375 
Q 12.890625 10.015625 18.65625 8.296875 
Q 24.421875 6.59375 29.984375 6.59375 
Q 38.421875 6.59375 43.015625 9.90625 
Q 47.609375 13.234375 47.609375 19.390625 
Q 47.609375 24.75 44.3125 27.78125 
Q 41.015625 30.8125 33.5 32.328125 
L 27.484375 33.5 
Q 16.453125 35.6875 11.515625 40.375 
Q 6.59375 45.0625 6.59375 53.421875 
Q 6.59375 63.09375 13.40625 68.65625 
Q 20.21875 74.21875 32.171875 74.21875 
Q 37.3125 74.21875 42.625 73.28125 
Q 47.953125 72.359375 53.515625 70.515625 
" id="BitstreamVeraSans-Roman-53"/>
      <path d="M 9.421875 54.6875 
L 18.40625 54.6875 
L 18.40625 0 
L 9.421875 0 
z
M 9.421875 75.984375 
L 18.40625 75.984375 
L 18.40625 64.59375 
L 9.421875 64.59375 
z
" id="BitstreamVeraSans-Roman-69"/>
      <path d="M 56.203125 29.59375 
L 56.203125 25.203125 
L 14.890625 25.203125 
Q 15.484375 15.921875 20.484375 11.0625 
Q 25.484375 6.203125 34.421875 6.203125 
Q 39.59375 6.203125 44.453125 7.46875 
Q 49.3125 8.734375 54.109375 11.28125 
L 54.109375 2.78125 
Q 49.265625 0.734375 44.1875 -0.34375 
Q 39.109375 -1.421875 33.890625 -1.421875 
Q 20.796875 -1.421875 13.15625 6.1875 
Q 5.515625 13.8125 5.515625 26.8125 
Q 5.515625 40.234375 12.765625 48.109375 
Q 20.015625 56 32.328125 56 
Q 43.359375 56 49.78125 48.890625 
Q 56.203125 41.796875 56.203125 29.59375 
M 47.21875 32.234375 
Q 47.125 39.59375 43.09375 43.984375 
Q 39.0625 48.390625 32.421875 48.390625 
Q 24.90625 48.390625 20.390625 44.140625 
Q 15.875 39.890625 15.1875 32.171875 
z
" id="BitstreamVeraSans-Roman-65"/>
      <path d="M 45.40625 46.390625 
L 45.40625 75.984375 
L 54.390625 75.984375 
L 54.390625 0 
L 45.40625 0 
L 45.40625 8.203125 
Q 42.578125 3.328125 38.25 0.953125 
Q 33.9375 -1.421875 27.875 -1.421875 
Q 17.96875 -1.421875 11.734375 6.484375 
Q 5.515625 14.40625 5.515625 27.296875 
Q 5.515625 40.1875 11.734375 48.09375 
Q 17.96875 56 27.875 56 
Q 33.9375 56 38.25 53.625 
Q 42.578125 51.265625 45.40625 46.390625 
M 14.796875 27.296875 
Q 14.796875 17.390625 18.875 11.75 
Q 22.953125 6.109375 30.078125 6.109375 
Q 37.203125 6.109375 41.296875 11.75 
Q 45.40625 17.390625 45.40625 27.296875 
Q 45.40625 37.203125 41.296875 42.84375 
Q 37.203125 48.484375 30.078125 48.484375 
Q 22.953125 48.484375 18.875 42.84375 
Q 14.796875 37.203125 14.796875 27.296875 
" id="BitstreamVeraSans-Roman-64"/>
      <path d="M 18.3125 70.21875 
L 18.3125 54.6875 
L 36.8125 54.6875 
L 36.8125 47.703125 
L 18.3125 47.703125 
L 18.3125 18.015625 
Q 18.3125 11.328125 20.140625 9.421875 
Q 21.96875 7.515625 27.59375 7.515625 
L 36.8125 7.515625 
L 36.8125 0 
L 27.59375 0 
Q 17.1875 0 13.234375 3.875 
Q 9.28125 7.765625 9.28125 18.015625 
L 9.28125 47.703125 
L 2.6875 47.703125 
L 2.6875 54.6875 
L 9.28125 54.6875 
L 9.28125 70.21875 
z
" id="BitstreamVeraSans-Roman-74"/>
      <path d="M 41.109375 46.296875 
Q 39.59375 47.171875 37.8125 47.578125 
Q 36.03125 48 33.890625 48 
Q 26.265625 48 22.1875 43.046875 
Q 18.109375 38.09375 18.109375 28.8125 
L 18.109375 0 
L 9.078125 0 
L 9.078125 54.6875 
L 18.109375 54.6875 
L 18.109375 46.1875 
Q 20.953125 51.171875 25.484375 53.578125 
Q 30.03125 56 36.53125 56 
Q 37.453125 56 38.578125 55.875 
Q 39.703125 55.765625 41.0625 55.515625 
z
" id="BitstreamVeraSans-Roman-72"/>
      <path d="M 44.28125 53.078125 
L 44.28125 44.578125 
Q 40.484375 46.53125 36.375 47.5 
Q 32.28125 48.484375 27.875 48.484375 
Q 21.1875 48.484375 17.84375 46.4375 
Q 14.5 44.390625 14.5 40.28125 
Q 14.5 37.15625 16.890625 35.375 
Q 19.28125 33.59375 26.515625 31.984375 
L 29.59375 31.296875 
Q 39.15625 29.25 43.1875 25.515625 
Q 47.21875 21.78125 47.21875 15.09375 
Q 47.21875 7.46875 41.1875 3.015625 
Q 35.15625 -1.421875 24.609375 -1.421875 
Q 20.21875 -1.421875 15.453125 -0.5625 
Q 10.6875 0.296875 5.421875 2 
L 5.421875 11.28125 
Q 10.40625 8.6875 15.234375 7.390625 
Q 20.0625 6.109375 24.8125 6.109375 
Q 31.15625 6.109375 34.5625 8.28125 
Q 37.984375 10.453125 37.984375 14.40625 
Q 37.984375 18.0625 35.515625 20.015625 
Q 33.0625 21.96875 24.703125 23.78125 
L 21.578125 24.515625 
Q 13.234375 26.265625 9.515625 29.90625 
Q 5.8125 33.546875 5.8125 39.890625 
Q 5.8125 47.609375 11.28125 51.796875 
Q 16.75 56 26.8125 56 
Q 31.78125 56 36.171875 55.265625 
Q 40.578125 54.546875 44.28125 53.078125 
" id="BitstreamVeraSans-Roman-73"/>
     </defs>
     <g transform="translate(258.121025 391.938325)scale(0.1728 -0.1728)">
      <use xlink:href="#BitstreamVeraSans-Roman-53"/>
      <use x="63.4765625" xlink:href="#BitstreamVeraSans-Roman-6f"/>
      <use x="124.658203125" xlink:href="#BitstreamVeraSans-Roman-6c"/>
      <use x="152.44140625" xlink:href="#BitstreamVeraSans-Roman-64"/>
      <use x="215.91796875" xlink:href="#BitstreamVeraSans-Roman-69"/>
      <use x="243.701171875" xlink:href="#BitstreamVeraSans-Roman-65"/>
      <use x="305.224609375" xlink:href="#BitstreamVeraSans-Roman-72"/>
      <use x="346.337890625" xlink:href="#BitstreamVeraSans-Roman-73"/>
      <use x="398.4375" xlink:href="#BitstreamVeraSans-Roman-20"/>
      <use x="430.224609375" xlink:href="#BitstreamVeraSans-Roman-61"/>
      <use x="491.50390625" xlink:href="#BitstreamVeraSans-Roman-74"/>
      <use x="530.712890625" xlink:href="#BitstreamVeraSans-Roman-20"/>
      <use x="562.5" xlink:href="#BitstreamVeraSans-Roman-53"/>
      <use x="625.9765625" xlink:href="#BitstreamVeraSans-Roman-74"/>
      <use x="665.185546875" xlink:href="#BitstreamVeraSans-Roman-61"/>
      <use x="726.46484375" xlink:href="#BitstreamVeraSans-Roman-72"/>
      <use x="767.578125" xlink:href="#BitstreamVeraSans-Roman-74"/>
     </g>
    </g>
   </g>
   <g id="matplotlib.axis_2">
    <g id="ytick_1">
     <g id="line2d_12">
      <defs>
       <path d="M 0 0 
L 4 0 
" id="m2f51c1fdac" style="stroke:#000000;stroke-width:0.5;"/>
      </defs>
      <g>
       <use style="stroke:#000000;stroke-width:0.5;" x="48.826925" xlink:href="#m2f51c1fdac" y="360.1301"/>
      </g>
     </g>
     <g id="line2d_13">
      <defs>
       <path d="M 0 0 
L -4 0 
" id="m764b14376e" style="stroke:#000000;stroke-width:0.5;"/>
      </defs>
      <g>
       <use style="stroke:#000000;stroke-width:0.5;" x="606.826925" xlink:href="#m764b14376e" y="360.1301"/>
      </g>
     </g>
     <g id="text_7">
      <!-- 0.0 -->
      <defs>
       <path d="M 10.6875 12.40625 
L 21 12.40625 
L 21 0 
L 10.6875 0 
z
" id="BitstreamVeraSans-Roman-2e"/>
      </defs>
      <g transform="translate(28.9238 362.889475)scale(0.1 -0.1)">
       <use xlink:href="#BitstreamVeraSans-Roman-30"/>
       <use x="63.623046875" xlink:href="#BitstreamVeraSans-Roman-2e"/>
       <use x="95.41015625" xlink:href="#BitstreamVeraSans-Roman-30"/>
      </g>
     </g>
    </g>
    <g id="ytick_2">
     <g id="line2d_14">
      <g>
       <use style="stroke:#000000;stroke-width:0.5;" x="48.826925" xlink:href="#m2f51c1fdac" y="293.1701"/>
      </g>
     </g>
     <g id="line2d_15">
      <g>
       <use style="stroke:#000000;stroke-width:0.5;" x="606.826925" xlink:href="#m764b14376e" y="293.1701"/>
      </g>
     </g>
     <g id="text_8">
      <!-- 0.2 -->
      <g transform="translate(28.9238 295.929475)scale(0.1 -0.1)">
       <use xlink:href="#BitstreamVeraSans-Roman-30"/>
       <use x="63.623046875" xlink:href="#BitstreamVeraSans-Roman-2e"/>
       <use x="95.41015625" xlink:href="#BitstreamVeraSans-Roman-32"/>
      </g>
     </g>
    </g>
    <g id="ytick_3">
     <g id="line2d_16">
      <g>
       <use style="stroke:#000000;stroke-width:0.5;" x="48.826925" xlink:href="#m2f51c1fdac" y="226.2101"/>
      </g>
     </g>
     <g id="line2d_17">
      <g>
       <use style="stroke:#000000;stroke-width:0.5;" x="606.826925" xlink:href="#m764b14376e" y="226.2101"/>
      </g>
     </g>
     <g id="text_9">
      <!-- 0.4 -->
      <g transform="translate(28.9238 228.969475)scale(0.1 -0.1)">
       <use xlink:href="#BitstreamVeraSans-Roman-30"/>
       <use x="63.623046875" xlink:href="#BitstreamVeraSans-Roman-2e"/>
       <use x="95.41015625" xlink:href="#BitstreamVeraSans-Roman-34"/>
      </g>
     </g>
    </g>
    <g id="ytick_4">
     <g id="line2d_18">
      <g>
       <use style="stroke:#000000;stroke-width:0.5;" x="48.826925" xlink:href="#m2f51c1fdac" y="159.2501"/>
      </g>
     </g>
     <g id="line2d_19">
      <g>
       <use style="stroke:#000000;stroke-width:0.5;" x="606.826925" xlink:href="#m764b14376e" y="159.2501"/>
      </g>
     </g>
     <g id="text_10">
      <!-- 0.6 -->
      <g transform="translate(28.9238 162.009475)scale(0.1 -0.1)">
       <use xlink:href="#BitstreamVeraSans-Roman-30"/>
       <use x="63.623046875" xlink:href="#BitstreamVeraSans-Roman-2e"/>
       <use x="95.41015625" xlink:href="#BitstreamVeraSans-Roman-36"/>
      </g>
     </g>
    </g>
    <g id="ytick_5">
     <g id="line2d_20">
      <g>
       <use style="stroke:#000000;stroke-width:0.5;" x="48.826925" xlink:href="#m2f51c1fdac" y="92.2901"/>
      </g>
     </g>
     <g id="line2d_21">
      <g>
       <use style="stroke:#000000;stroke-width:0.5;" x="606.826925" xlink:href="#m764b14376e" y="92.2901"/>
      </g>
     </g>
     <g id="text_11">
      <!-- 0.8 -->
      <g transform="translate(28.9238 95.049475)scale(0.1 -0.1)">
       <use xlink:href="#BitstreamVeraSans-Roman-30"/>
       <use x="63.623046875" xlink:href="#BitstreamVeraSans-Roman-2e"/>
       <use x="95.41015625" xlink:href="#BitstreamVeraSans-Roman-38"/>
      </g>
     </g>
    </g>
    <g id="ytick_6">
     <g id="line2d_22">
      <g>
       <use style="stroke:#000000;stroke-width:0.5;" x="48.826925" xlink:href="#m2f51c1fdac" y="25.3301"/>
      </g>
     </g>
     <g id="line2d_23">
      <g>
       <use style="stroke:#000000;stroke-width:0.5;" x="606.826925" xlink:href="#m764b14376e" y="25.3301"/>
      </g>
     </g>
     <g id="text_12">
      <!-- 1.0 -->
      <g transform="translate(28.9238 28.089475)scale(0.1 -0.1)">
       <use xlink:href="#BitstreamVeraSans-Roman-31"/>
       <use x="63.623046875" xlink:href="#BitstreamVeraSans-Roman-2e"/>
       <use x="95.41015625" xlink:href="#BitstreamVeraSans-Roman-30"/>
      </g>
     </g>
    </g>
    <g id="text_13">
     <!-- Combined Probability -->
     <defs>
      <path d="M 54.890625 33.015625 
L 54.890625 0 
L 45.90625 0 
L 45.90625 32.71875 
Q 45.90625 40.484375 42.875 44.328125 
Q 39.84375 48.1875 33.796875 48.1875 
Q 26.515625 48.1875 22.3125 43.546875 
Q 18.109375 38.921875 18.109375 30.90625 
L 18.109375 0 
L 9.078125 0 
L 9.078125 54.6875 
L 18.109375 54.6875 
L 18.109375 46.1875 
Q 21.34375 51.125 25.703125 53.5625 
Q 30.078125 56 35.796875 56 
Q 45.21875 56 50.046875 50.171875 
Q 54.890625 44.34375 54.890625 33.015625 
" id="BitstreamVeraSans-Roman-6e"/>
      <path d="M 52 44.1875 
Q 55.375 50.25 60.0625 53.125 
Q 64.75 56 71.09375 56 
Q 79.640625 56 84.28125 50.015625 
Q 88.921875 44.046875 88.921875 33.015625 
L 88.921875 0 
L 79.890625 0 
L 79.890625 32.71875 
Q 79.890625 40.578125 77.09375 44.375 
Q 74.3125 48.1875 68.609375 48.1875 
Q 61.625 48.1875 57.5625 43.546875 
Q 53.515625 38.921875 53.515625 30.90625 
L 53.515625 0 
L 44.484375 0 
L 44.484375 32.71875 
Q 44.484375 40.625 41.703125 44.40625 
Q 38.921875 48.1875 33.109375 48.1875 
Q 26.21875 48.1875 22.15625 43.53125 
Q 18.109375 38.875 18.109375 30.90625 
L 18.109375 0 
L 9.078125 0 
L 9.078125 54.6875 
L 18.109375 54.6875 
L 18.109375 46.1875 
Q 21.1875 51.21875 25.484375 53.609375 
Q 29.78125 56 35.6875 56 
Q 41.65625 56 45.828125 52.96875 
Q 50 49.953125 52 44.1875 
" id="BitstreamVeraSans-Roman-6d"/>
      <path d="M 19.671875 64.796875 
L 19.671875 37.40625 
L 32.078125 37.40625 
Q 38.96875 37.40625 42.71875 40.96875 
Q 46.484375 44.53125 46.484375 51.125 
Q 46.484375 57.671875 42.71875 61.234375 
Q 38.96875 64.796875 32.078125 64.796875 
z
M 9.8125 72.90625 
L 32.078125 72.90625 
Q 44.34375 72.90625 50.609375 67.359375 
Q 56.890625 61.8125 56.890625 51.125 
Q 56.890625 40.328125 50.609375 34.8125 
Q 44.34375 29.296875 32.078125 29.296875 
L 19.671875 29.296875 
L 19.671875 0 
L 9.8125 0 
z
" id="BitstreamVeraSans-Roman-50"/>
      <path d="M 64.40625 67.28125 
L 64.40625 56.890625 
Q 59.421875 61.53125 53.78125 63.8125 
Q 48.140625 66.109375 41.796875 66.109375 
Q 29.296875 66.109375 22.65625 58.46875 
Q 16.015625 50.828125 16.015625 36.375 
Q 16.015625 21.96875 22.65625 14.328125 
Q 29.296875 6.6875 41.796875 6.6875 
Q 48.140625 6.6875 53.78125 8.984375 
Q 59.421875 11.28125 64.40625 15.921875 
L 64.40625 5.609375 
Q 59.234375 2.09375 53.4375 0.328125 
Q 47.65625 -1.421875 41.21875 -1.421875 
Q 24.65625 -1.421875 15.125 8.703125 
Q 5.609375 18.84375 5.609375 36.375 
Q 5.609375 53.953125 15.125 64.078125 
Q 24.65625 74.21875 41.21875 74.21875 
Q 47.75 74.21875 53.53125 72.484375 
Q 59.328125 70.75 64.40625 67.28125 
" id="BitstreamVeraSans-Roman-43"/>
      <path d="M 32.171875 -5.078125 
Q 28.375 -14.84375 24.75 -17.8125 
Q 21.140625 -20.796875 15.09375 -20.796875 
L 7.90625 -20.796875 
L 7.90625 -13.28125 
L 13.1875 -13.28125 
Q 16.890625 -13.28125 18.9375 -11.515625 
Q 21 -9.765625 23.484375 -3.21875 
L 25.09375 0.875 
L 2.984375 54.6875 
L 12.5 54.6875 
L 29.59375 11.921875 
L 46.6875 54.6875 
L 56.203125 54.6875 
z
" id="BitstreamVeraSans-Roman-79"/>
      <path d="M 48.6875 27.296875 
Q 48.6875 37.203125 44.609375 42.84375 
Q 40.53125 48.484375 33.40625 48.484375 
Q 26.265625 48.484375 22.1875 42.84375 
Q 18.109375 37.203125 18.109375 27.296875 
Q 18.109375 17.390625 22.1875 11.75 
Q 26.265625 6.109375 33.40625 6.109375 
Q 40.53125 6.109375 44.609375 11.75 
Q 48.6875 17.390625 48.6875 27.296875 
M 18.109375 46.390625 
Q 20.953125 51.265625 25.265625 53.625 
Q 29.59375 56 35.59375 56 
Q 45.5625 56 51.78125 48.09375 
Q 58.015625 40.1875 58.015625 27.296875 
Q 58.015625 14.40625 51.78125 6.484375 
Q 45.5625 -1.421875 35.59375 -1.421875 
Q 29.59375 -1.421875 25.265625 0.953125 
Q 20.953125 3.328125 18.109375 8.203125 
L 18.109375 0 
L 9.078125 0 
L 9.078125 75.984375 
L 18.109375 75.984375 
z
" id="BitstreamVeraSans-Roman-62"/>
     </defs>
     <g transform="translate(20.3301 285.38465)rotate(-90.0)scale(0.1728 -0.1728)">
      <use xlink:href="#BitstreamVeraSans-Roman-43"/>
      <use x="69.82421875" xlink:href="#BitstreamVeraSans-Roman-6f"/>
      <use x="131.005859375" xlink:href="#BitstreamVeraSans-Roman-6d"/>
      <use x="228.41796875" xlink:href="#BitstreamVeraSans-Roman-62"/>
      <use x="291.89453125" xlink:href="#BitstreamVeraSans-Roman-69"/>
      <use x="319.677734375" xlink:href="#BitstreamVeraSans-Roman-6e"/>
      <use x="383.056640625" xlink:href="#BitstreamVeraSans-Roman-65"/>
      <use x="444.580078125" xlink:href="#BitstreamVeraSans-Roman-64"/>
      <use x="508.056640625" xlink:href="#BitstreamVeraSans-Roman-20"/>
      <use x="539.84375" xlink:href="#BitstreamVeraSans-Roman-50"/>
      <use x="600.130859375" xlink:href="#BitstreamVeraSans-Roman-72"/>
      <use x="641.212890625" xlink:href="#BitstreamVeraSans-Roman-6f"/>
      <use x="702.39453125" xlink:href="#BitstreamVeraSans-Roman-62"/>
      <use x="765.87109375" xlink:href="#BitstreamVeraSans-Roman-61"/>
      <use x="827.150390625" xlink:href="#BitstreamVeraSans-Roman-62"/>
      <use x="890.626953125" xlink:href="#BitstreamVeraSans-Roman-69"/>
      <use x="918.41015625" xlink:href="#BitstreamVeraSans-Roman-6c"/>
      <use x="946.193359375" xlink:href="#BitstreamVeraSans-Roman-69"/>
      <use x="973.9765625" xlink:href="#BitstreamVeraSans-Roman-74"/>
      <use x="1013.18554688" xlink:href="#BitstreamVeraSans-Roman-79"/>
     </g>
    </g>
   </g>
   <g id="text_14">
    <!-- Dragon Farkle: Outcomes -->
    <defs>
     <path d="M 39.40625 66.21875 
Q 28.65625 66.21875 22.328125 58.203125 
Q 16.015625 50.203125 16.015625 36.375 
Q 16.015625 22.609375 22.328125 14.59375 
Q 28.65625 6.59375 39.40625 6.59375 
Q 50.140625 6.59375 56.421875 14.59375 
Q 62.703125 22.609375 62.703125 36.375 
Q 62.703125 50.203125 56.421875 58.203125 
Q 50.140625 66.21875 39.40625 66.21875 
M 39.40625 74.21875 
Q 54.734375 74.21875 63.90625 63.9375 
Q 73.09375 53.65625 73.09375 36.375 
Q 73.09375 19.140625 63.90625 8.859375 
Q 54.734375 -1.421875 39.40625 -1.421875 
Q 24.03125 -1.421875 14.8125 8.828125 
Q 5.609375 19.09375 5.609375 36.375 
Q 5.609375 53.65625 14.8125 63.9375 
Q 24.03125 74.21875 39.40625 74.21875 
" id="BitstreamVeraSans-Roman-4f"/>
     <path d="M 9.078125 75.984375 
L 18.109375 75.984375 
L 18.109375 31.109375 
L 44.921875 54.6875 
L 56.390625 54.6875 
L 27.390625 29.109375 
L 57.625 0 
L 45.90625 0 
L 18.109375 26.703125 
L 18.109375 0 
L 9.078125 0 
z
" id="BitstreamVeraSans-Roman-6b"/>
     <path d="M 19.671875 64.796875 
L 19.671875 8.109375 
L 31.59375 8.109375 
Q 46.6875 8.109375 53.6875 14.9375 
Q 60.6875 21.78125 60.6875 36.53125 
Q 60.6875 51.171875 53.6875 57.984375 
Q 46.6875 64.796875 31.59375 64.796875 
z
M 9.8125 72.90625 
L 30.078125 72.90625 
Q 51.265625 72.90625 61.171875 64.09375 
Q 71.09375 55.28125 71.09375 36.53125 
Q 71.09375 17.671875 61.125 8.828125 
Q 51.171875 0 30.078125 0 
L 9.8125 0 
z
" id="BitstreamVeraSans-Roman-44"/>
     <path d="M 9.8125 72.90625 
L 51.703125 72.90625 
L 51.703125 64.59375 
L 19.671875 64.59375 
L 19.671875 43.109375 
L 48.578125 43.109375 
L 48.578125 34.8125 
L 19.671875 34.8125 
L 19.671875 0 
L 9.8125 0 
z
" id="BitstreamVeraSans-Roman-46"/>
     <path d="M 11.71875 12.40625 
L 22.015625 12.40625 
L 22.015625 0 
L 11.71875 0 
z
M 11.71875 51.703125 
L 22.015625 51.703125 
L 22.015625 39.3125 
L 11.71875 39.3125 
z
" id="BitstreamVeraSans-Roman-3a"/>
     <path d="M 45.40625 27.984375 
Q 45.40625 37.75 41.375 43.109375 
Q 37.359375 48.484375 30.078125 48.484375 
Q 22.859375 48.484375 18.828125 43.109375 
Q 14.796875 37.75 14.796875 27.984375 
Q 14.796875 18.265625 18.828125 12.890625 
Q 22.859375 7.515625 30.078125 7.515625 
Q 37.359375 7.515625 41.375 12.890625 
Q 45.40625 18.265625 45.40625 27.984375 
M 54.390625 6.78125 
Q 54.390625 -7.171875 48.1875 -13.984375 
Q 42 -20.796875 29.203125 -20.796875 
Q 24.46875 -20.796875 20.265625 -20.09375 
Q 16.0625 -19.390625 12.109375 -17.921875 
L 12.109375 -9.1875 
Q 16.0625 -11.328125 19.921875 -12.34375 
Q 23.78125 -13.375 27.78125 -13.375 
Q 36.625 -13.375 41.015625 -8.765625 
Q 45.40625 -4.15625 45.40625 5.171875 
L 45.40625 9.625 
Q 42.625 4.78125 38.28125 2.390625 
Q 33.9375 0 27.875 0 
Q 17.828125 0 11.671875 7.65625 
Q 5.515625 15.328125 5.515625 27.984375 
Q 5.515625 40.671875 11.671875 48.328125 
Q 17.828125 56 27.875 56 
Q 33.9375 56 38.28125 53.609375 
Q 42.625 51.21875 45.40625 46.390625 
L 45.40625 54.6875 
L 54.390625 54.6875 
z
" id="BitstreamVeraSans-Roman-67"/>
     <path d="M 8.5 21.578125 
L 8.5 54.6875 
L 17.484375 54.6875 
L 17.484375 21.921875 
Q 17.484375 14.15625 20.5 10.265625 
Q 23.53125 6.390625 29.59375 6.390625 
Q 36.859375 6.390625 41.078125 11.03125 
Q 45.3125 15.671875 45.3125 23.6875 
L 45.3125 54.6875 
L 54.296875 54.6875 
L 54.296875 0 
L 45.3125 0 
L 45.3125 8.40625 
Q 42.046875 3.421875 37.71875 1 
Q 33.40625 -1.421875 27.6875 -1.421875 
Q 18.265625 -1.421875 13.375 4.4375 
Q 8.5 10.296875 8.5 21.578125 
" id="BitstreamVeraSans-Roman-75"/>
     <path d="M 48.78125 52.59375 
L 48.78125 44.1875 
Q 44.96875 46.296875 41.140625 47.34375 
Q 37.3125 48.390625 33.40625 48.390625 
Q 24.65625 48.390625 19.8125 42.84375 
Q 14.984375 37.3125 14.984375 27.296875 
Q 14.984375 17.28125 19.8125 11.734375 
Q 24.65625 6.203125 33.40625 6.203125 
Q 37.3125 6.203125 41.140625 7.25 
Q 44.96875 8.296875 48.78125 10.40625 
L 48.78125 2.09375 
Q 45.015625 0.34375 40.984375 -0.53125 
Q 36.96875 -1.421875 32.421875 -1.421875 
Q 20.0625 -1.421875 12.78125 6.34375 
Q 5.515625 14.109375 5.515625 27.296875 
Q 5.515625 40.671875 12.859375 48.328125 
Q 20.21875 56 33.015625 56 
Q 37.15625 56 41.109375 55.140625 
Q 45.0625 54.296875 48.78125 52.59375 
" id="BitstreamVeraSans-Roman-63"/>
    </defs>
    <g transform="translate(217.220075 20.3301)scale(0.1728 -0.1728)">
     <use xlink:href="#BitstreamVeraSans-Roman-44"/>
     <use x="77.001953125" xlink:href="#BitstreamVeraSans-Roman-72"/>
     <use x="118.115234375" xlink:href="#BitstreamVeraSans-Roman-61"/>
     <use x="179.39453125" xlink:href="#BitstreamVeraSans-Roman-67"/>
     <use x="242.87109375" xlink:href="#BitstreamVeraSans-Roman-6f"/>
     <use x="304.052734375" xlink:href="#BitstreamVeraSans-Roman-6e"/>
     <use x="367.431640625" xlink:href="#BitstreamVeraSans-Roman-20"/>
     <use x="399.21875" xlink:href="#BitstreamVeraSans-Roman-46"/>
     <use x="456.59765625" xlink:href="#BitstreamVeraSans-Roman-61"/>
     <use x="517.876953125" xlink:href="#BitstreamVeraSans-Roman-72"/>
     <use x="558.990234375" xlink:href="#BitstreamVeraSans-Roman-6b"/>
     <use x="616.900390625" xlink:href="#BitstreamVeraSans-Roman-6c"/>
     <use x="644.68359375" xlink:href="#BitstreamVeraSans-Roman-65"/>
     <use x="706.20703125" xlink:href="#BitstreamVeraSans-Roman-3a"/>
     <use x="739.8984375" xlink:href="#BitstreamVeraSans-Roman-20"/>
     <use x="771.685546875" xlink:href="#BitstreamVeraSans-Roman-4f"/>
     <use x="850.396484375" xlink:href="#BitstreamVeraSans-Roman-75"/>
     <use x="913.775390625" xlink:href="#BitstreamVeraSans-Roman-74"/>
     <use x="952.984375" xlink:href="#BitstreamVeraSans-Roman-63"/>
     <use x="1007.96484375" xlink:href="#BitstreamVeraSans-Roman-6f"/>
     <use x="1069.14648438" xlink:href="#BitstreamVeraSans-Roman-6d"/>
     <use x="1166.55859375" xlink:href="#BitstreamVeraSans-Roman-65"/>
     <use x="1228.08203125" xlink:href="#BitstreamVeraSans-Roman-73"/>
    </g>
   </g>
   <g id="legend_1">
    <g id="patch_7">
     <path d="M 382.989425 105.3851 
L 600.826925 105.3851 
L 600.826925 31.3301 
L 382.989425 31.3301 
z
" style="fill:#ffffff;stroke:#000000;stroke-linejoin:miter;"/>
    </g>
    <g id="line2d_24">
     <path d="M 391.389425 41.048225 
L 408.189425 41.048225 
" style="fill:none;stroke:#000000;stroke-dasharray:6.000000,6.000000;stroke-dashoffset:0.0;stroke-width:2.0;"/>
    </g>
    <g id="line2d_25"/>
    <g id="text_15">
     <!-- Minimum Number of Soldiers -->
     <defs>
      <path d="M 9.8125 72.90625 
L 23.09375 72.90625 
L 55.421875 11.921875 
L 55.421875 72.90625 
L 64.984375 72.90625 
L 64.984375 0 
L 51.703125 0 
L 19.390625 60.984375 
L 19.390625 0 
L 9.8125 0 
z
" id="BitstreamVeraSans-Roman-4e"/>
      <path d="M 9.8125 72.90625 
L 24.515625 72.90625 
L 43.109375 23.296875 
L 61.8125 72.90625 
L 76.515625 72.90625 
L 76.515625 0 
L 66.890625 0 
L 66.890625 64.015625 
L 48.09375 14.015625 
L 38.1875 14.015625 
L 19.390625 64.015625 
L 19.390625 0 
L 9.8125 0 
z
" id="BitstreamVeraSans-Roman-4d"/>
      <path d="M 37.109375 75.984375 
L 37.109375 68.5 
L 28.515625 68.5 
Q 23.6875 68.5 21.796875 66.546875 
Q 19.921875 64.59375 19.921875 59.515625 
L 19.921875 54.6875 
L 34.71875 54.6875 
L 34.71875 47.703125 
L 19.921875 47.703125 
L 19.921875 0 
L 10.890625 0 
L 10.890625 47.703125 
L 2.296875 47.703125 
L 2.296875 54.6875 
L 10.890625 54.6875 
L 10.890625 58.5 
Q 10.890625 67.625 15.140625 71.796875 
Q 19.390625 75.984375 28.609375 75.984375 
z
" id="BitstreamVeraSans-Roman-66"/>
     </defs>
     <g transform="translate(421.389425 45.248225)scale(0.12 -0.12)">
      <use xlink:href="#BitstreamVeraSans-Roman-4d"/>
      <use x="86.279296875" xlink:href="#BitstreamVeraSans-Roman-69"/>
      <use x="114.0625" xlink:href="#BitstreamVeraSans-Roman-6e"/>
      <use x="177.44140625" xlink:href="#BitstreamVeraSans-Roman-69"/>
      <use x="205.224609375" xlink:href="#BitstreamVeraSans-Roman-6d"/>
      <use x="302.63671875" xlink:href="#BitstreamVeraSans-Roman-75"/>
      <use x="366.015625" xlink:href="#BitstreamVeraSans-Roman-6d"/>
      <use x="463.427734375" xlink:href="#BitstreamVeraSans-Roman-20"/>
      <use x="495.21484375" xlink:href="#BitstreamVeraSans-Roman-4e"/>
      <use x="570.01953125" xlink:href="#BitstreamVeraSans-Roman-75"/>
      <use x="633.3984375" xlink:href="#BitstreamVeraSans-Roman-6d"/>
      <use x="730.810546875" xlink:href="#BitstreamVeraSans-Roman-62"/>
      <use x="794.287109375" xlink:href="#BitstreamVeraSans-Roman-65"/>
      <use x="855.810546875" xlink:href="#BitstreamVeraSans-Roman-72"/>
      <use x="896.923828125" xlink:href="#BitstreamVeraSans-Roman-20"/>
      <use x="928.7109375" xlink:href="#BitstreamVeraSans-Roman-6f"/>
      <use x="989.892578125" xlink:href="#BitstreamVeraSans-Roman-66"/>
      <use x="1025.09765625" xlink:href="#BitstreamVeraSans-Roman-20"/>
      <use x="1056.88476562" xlink:href="#BitstreamVeraSans-Roman-53"/>
      <use x="1120.36132812" xlink:href="#BitstreamVeraSans-Roman-6f"/>
      <use x="1181.54296875" xlink:href="#BitstreamVeraSans-Roman-6c"/>
      <use x="1209.32617188" xlink:href="#BitstreamVeraSans-Roman-64"/>
      <use x="1272.80273438" xlink:href="#BitstreamVeraSans-Roman-69"/>
      <use x="1300.5859375" xlink:href="#BitstreamVeraSans-Roman-65"/>
      <use x="1362.109375" xlink:href="#BitstreamVeraSans-Roman-72"/>
      <use x="1403.22265625" xlink:href="#BitstreamVeraSans-Roman-73"/>
     </g>
    </g>
    <g id="patch_8">
     <path d="M 387.789425 62.861975 
L 411.789425 62.861975 
L 411.789425 54.461975 
L 387.789425 54.461975 
z
" style="fill:#0000ff;stroke:#000000;stroke-linejoin:miter;"/>
    </g>
    <g id="text_16">
     <!-- Loss: Out of Soldiers -->
     <defs>
      <path d="M 9.8125 72.90625 
L 19.671875 72.90625 
L 19.671875 8.296875 
L 55.171875 8.296875 
L 55.171875 0 
L 9.8125 0 
z
" id="BitstreamVeraSans-Roman-4c"/>
     </defs>
     <g transform="translate(421.389425 62.861975)scale(0.12 -0.12)">
      <use xlink:href="#BitstreamVeraSans-Roman-4c"/>
      <use x="55.697265625" xlink:href="#BitstreamVeraSans-Roman-6f"/>
      <use x="116.87890625" xlink:href="#BitstreamVeraSans-Roman-73"/>
      <use x="168.978515625" xlink:href="#BitstreamVeraSans-Roman-73"/>
      <use x="221.078125" xlink:href="#BitstreamVeraSans-Roman-3a"/>
      <use x="254.76953125" xlink:href="#BitstreamVeraSans-Roman-20"/>
      <use x="286.556640625" xlink:href="#BitstreamVeraSans-Roman-4f"/>
      <use x="365.267578125" xlink:href="#BitstreamVeraSans-Roman-75"/>
      <use x="428.646484375" xlink:href="#BitstreamVeraSans-Roman-74"/>
      <use x="467.85546875" xlink:href="#BitstreamVeraSans-Roman-20"/>
      <use x="499.642578125" xlink:href="#BitstreamVeraSans-Roman-6f"/>
      <use x="560.82421875" xlink:href="#BitstreamVeraSans-Roman-66"/>
      <use x="596.029296875" xlink:href="#BitstreamVeraSans-Roman-20"/>
      <use x="627.81640625" xlink:href="#BitstreamVeraSans-Roman-53"/>
      <use x="691.29296875" xlink:href="#BitstreamVeraSans-Roman-6f"/>
      <use x="752.474609375" xlink:href="#BitstreamVeraSans-Roman-6c"/>
      <use x="780.2578125" xlink:href="#BitstreamVeraSans-Roman-64"/>
      <use x="843.734375" xlink:href="#BitstreamVeraSans-Roman-69"/>
      <use x="871.517578125" xlink:href="#BitstreamVeraSans-Roman-65"/>
      <use x="933.041015625" xlink:href="#BitstreamVeraSans-Roman-72"/>
      <use x="974.154296875" xlink:href="#BitstreamVeraSans-Roman-73"/>
     </g>
    </g>
    <g id="patch_9">
     <path d="M 387.789425 80.475725 
L 411.789425 80.475725 
L 411.789425 72.075725 
L 387.789425 72.075725 
z
" style="fill:#008000;stroke:#000000;stroke-linejoin:miter;"/>
    </g>
    <g id="text_17">
     <!-- Win -->
     <defs>
      <path d="M 3.328125 72.90625 
L 13.28125 72.90625 
L 28.609375 11.28125 
L 43.890625 72.90625 
L 54.984375 72.90625 
L 70.3125 11.28125 
L 85.59375 72.90625 
L 95.609375 72.90625 
L 77.296875 0 
L 64.890625 0 
L 49.515625 63.28125 
L 33.984375 0 
L 21.578125 0 
z
" id="BitstreamVeraSans-Roman-57"/>
     </defs>
     <g transform="translate(421.389425 80.475725)scale(0.12 -0.12)">
      <use xlink:href="#BitstreamVeraSans-Roman-57"/>
      <use x="98.845703125" xlink:href="#BitstreamVeraSans-Roman-69"/>
      <use x="126.62890625" xlink:href="#BitstreamVeraSans-Roman-6e"/>
     </g>
    </g>
    <g id="patch_10">
     <path d="M 387.789425 98.089475 
L 411.789425 98.089475 
L 411.789425 89.689475 
L 387.789425 89.689475 
z
" style="fill:#ff0000;stroke:#000000;stroke-linejoin:miter;"/>
    </g>
    <g id="text_18">
     <!-- Loss: Farkle -->
     <g transform="translate(421.389425 98.089475)scale(0.12 -0.12)">
      <use xlink:href="#BitstreamVeraSans-Roman-4c"/>
      <use x="55.697265625" xlink:href="#BitstreamVeraSans-Roman-6f"/>
      <use x="116.87890625" xlink:href="#BitstreamVeraSans-Roman-73"/>
      <use x="168.978515625" xlink:href="#BitstreamVeraSans-Roman-73"/>
      <use x="221.078125" xlink:href="#BitstreamVeraSans-Roman-3a"/>
      <use x="254.76953125" xlink:href="#BitstreamVeraSans-Roman-20"/>
      <use x="286.556640625" xlink:href="#BitstreamVeraSans-Roman-46"/>
      <use x="343.935546875" xlink:href="#BitstreamVeraSans-Roman-61"/>
      <use x="405.21484375" xlink:href="#BitstreamVeraSans-Roman-72"/>
      <use x="446.328125" xlink:href="#BitstreamVeraSans-Roman-6b"/>
      <use x="504.23828125" xlink:href="#BitstreamVeraSans-Roman-6c"/>
      <use x="532.021484375" xlink:href="#BitstreamVeraSans-Roman-65"/>
     </g>
    </g>
   </g>
  </g>
 </g>
 <defs>
  <clipPath id="peabce5bea4">
   <rect height="334.8" width="558.0" x="48.826925" y="25.3301"/>
  </clipPath>
 </defs>
</svg>
