<?xml version="1.0" encoding="utf-8" standalone="no"?>
<!DOCTYPE svg PUBLIC "-//W3C//DTD SVG 1.1//EN"
  "http://www.w3.org/Graphics/SVG/1.1/DTD/svg11.dtd">
<!-- Created with matplotlib (http://matplotlib.org/) -->
<svg height="496pt" version="1.1" viewBox="0 0 856 496" width="856pt" xmlns="http://www.w3.org/2000/svg" xmlns:xlink="http://www.w3.org/1999/xlink">
 <defs>
  <style type="text/css">
*{stroke-linecap:butt;stroke-linejoin:round;}
  </style>
 </defs>
 <g id="figure_1">
  <g id="patch_1">
   <path d="M -0 496.8 
L 856.8 496.8 
L 856.8 0 
L -0 0 
z
" style="fill:#ffffff;"/>
  </g>
  <g id="axes_1">
   <g id="patch_2">
    <path d="M 60.48 443.000625 
L 832.917187 443.000625 
L 832.917187 29.215312 
L 60.48 29.215312 
z
" style="fill:#ffffff;"/>
   </g>
   <g id="matplotlib.axis_1">
    <g id="xtick_1">
     <g id="line2d_1"/>
     <g id="text_1">
      <!-- 3000 -->
      <defs>
       <path d="M 4.203125 18.890625 
L 12.984375 20.0625 
Q 14.5 12.59375 18.140625 9.296875 
Q 21.78125 6 27 6 
Q 33.203125 6 37.46875 10.296875 
Q 41.75 14.59375 41.75 20.953125 
Q 41.75 27 37.796875 30.921875 
Q 33.84375 34.859375 27.734375 34.859375 
Q 25.25 34.859375 21.53125 33.890625 
L 22.515625 41.609375 
Q 23.390625 41.5 23.921875 41.5 
Q 29.546875 41.5 34.03125 44.421875 
Q 38.53125 47.359375 38.53125 53.46875 
Q 38.53125 58.296875 35.25 61.46875 
Q 31.984375 64.65625 26.8125 64.65625 
Q 21.6875 64.65625 18.265625 61.421875 
Q 14.84375 58.203125 13.875 51.765625 
L 5.078125 53.328125 
Q 6.6875 62.15625 12.390625 67.015625 
Q 18.109375 71.875 26.609375 71.875 
Q 32.46875 71.875 37.390625 69.359375 
Q 42.328125 66.84375 44.9375 62.5 
Q 47.5625 58.15625 47.5625 53.265625 
Q 47.5625 48.640625 45.0625 44.828125 
Q 42.578125 41.015625 37.703125 38.765625 
Q 44.046875 37.3125 47.5625 32.6875 
Q 51.078125 28.078125 51.078125 21.140625 
Q 51.078125 11.765625 44.234375 5.25 
Q 37.40625 -1.265625 26.953125 -1.265625 
Q 17.53125 -1.265625 11.296875 4.34375 
Q 5.078125 9.96875 4.203125 18.890625 
z
" id="ArialMT-33"/>
       <path d="M 4.15625 35.296875 
Q 4.15625 48 6.765625 55.734375 
Q 9.375 63.484375 14.515625 67.671875 
Q 19.671875 71.875 27.484375 71.875 
Q 33.25 71.875 37.59375 69.546875 
Q 41.9375 67.234375 44.765625 62.859375 
Q 47.609375 58.5 49.21875 52.21875 
Q 50.828125 45.953125 50.828125 35.296875 
Q 50.828125 22.703125 48.234375 14.96875 
Q 45.65625 7.234375 40.5 3 
Q 35.359375 -1.21875 27.484375 -1.21875 
Q 17.140625 -1.21875 11.234375 6.203125 
Q 4.15625 15.140625 4.15625 35.296875 
z
M 13.1875 35.296875 
Q 13.1875 17.671875 17.3125 11.828125 
Q 21.4375 6 27.484375 6 
Q 33.546875 6 37.671875 11.859375 
Q 41.796875 17.71875 41.796875 35.296875 
Q 41.796875 52.984375 37.671875 58.78125 
Q 33.546875 64.59375 27.390625 64.59375 
Q 21.34375 64.59375 17.71875 59.46875 
Q 13.1875 52.9375 13.1875 35.296875 
z
" id="ArialMT-30"/>
      </defs>
      <g style="fill:#262626;" transform="translate(47.13375 461.59)scale(0.12 -0.12)">
       <use xlink:href="#ArialMT-33"/>
       <use x="55.615234" xlink:href="#ArialMT-30"/>
       <use x="111.230469" xlink:href="#ArialMT-30"/>
       <use x="166.845703" xlink:href="#ArialMT-30"/>
      </g>
     </g>
    </g>
    <g id="xtick_2">
     <g id="line2d_2"/>
     <g id="text_2">
      <!-- 4000 -->
      <defs>
       <path d="M 32.328125 0 
L 32.328125 17.140625 
L 1.265625 17.140625 
L 1.265625 25.203125 
L 33.9375 71.578125 
L 41.109375 71.578125 
L 41.109375 25.203125 
L 50.78125 25.203125 
L 50.78125 17.140625 
L 41.109375 17.140625 
L 41.109375 0 
z
M 32.328125 25.203125 
L 32.328125 57.46875 
L 9.90625 25.203125 
z
" id="ArialMT-34"/>
      </defs>
      <g style="fill:#262626;" transform="translate(157.48192 461.59)scale(0.12 -0.12)">
       <use xlink:href="#ArialMT-34"/>
       <use x="55.615234" xlink:href="#ArialMT-30"/>
       <use x="111.230469" xlink:href="#ArialMT-30"/>
       <use x="166.845703" xlink:href="#ArialMT-30"/>
      </g>
     </g>
    </g>
    <g id="xtick_3">
     <g id="line2d_3"/>
     <g id="text_3">
      <!-- 5000 -->
      <defs>
       <path d="M 4.15625 18.75 
L 13.375 19.53125 
Q 14.40625 12.796875 18.140625 9.390625 
Q 21.875 6 27.15625 6 
Q 33.5 6 37.890625 10.78125 
Q 42.28125 15.578125 42.28125 23.484375 
Q 42.28125 31 38.0625 35.34375 
Q 33.84375 39.703125 27 39.703125 
Q 22.75 39.703125 19.328125 37.765625 
Q 15.921875 35.84375 13.96875 32.765625 
L 5.71875 33.84375 
L 12.640625 70.609375 
L 48.25 70.609375 
L 48.25 62.203125 
L 19.671875 62.203125 
L 15.828125 42.96875 
Q 22.265625 47.46875 29.34375 47.46875 
Q 38.71875 47.46875 45.15625 40.96875 
Q 51.609375 34.46875 51.609375 24.265625 
Q 51.609375 14.546875 45.953125 7.46875 
Q 39.0625 -1.21875 27.15625 -1.21875 
Q 17.390625 -1.21875 11.203125 4.25 
Q 5.03125 9.71875 4.15625 18.75 
z
" id="ArialMT-35"/>
      </defs>
      <g style="fill:#262626;" transform="translate(267.830089 461.59)scale(0.12 -0.12)">
       <use xlink:href="#ArialMT-35"/>
       <use x="55.615234" xlink:href="#ArialMT-30"/>
       <use x="111.230469" xlink:href="#ArialMT-30"/>
       <use x="166.845703" xlink:href="#ArialMT-30"/>
      </g>
     </g>
    </g>
    <g id="xtick_4">
     <g id="line2d_4"/>
     <g id="text_4">
      <!-- 6000 -->
      <defs>
       <path d="M 49.75 54.046875 
L 41.015625 53.375 
Q 39.84375 58.546875 37.703125 60.890625 
Q 34.125 64.65625 28.90625 64.65625 
Q 24.703125 64.65625 21.53125 62.3125 
Q 17.390625 59.28125 14.984375 53.46875 
Q 12.59375 47.65625 12.5 36.921875 
Q 15.671875 41.75 20.265625 44.09375 
Q 24.859375 46.4375 29.890625 46.4375 
Q 38.671875 46.4375 44.84375 39.96875 
Q 51.03125 33.5 51.03125 23.25 
Q 51.03125 16.5 48.125 10.71875 
Q 45.21875 4.9375 40.140625 1.859375 
Q 35.0625 -1.21875 28.609375 -1.21875 
Q 17.625 -1.21875 10.6875 6.859375 
Q 3.765625 14.9375 3.765625 33.5 
Q 3.765625 54.25 11.421875 63.671875 
Q 18.109375 71.875 29.4375 71.875 
Q 37.890625 71.875 43.28125 67.140625 
Q 48.6875 62.40625 49.75 54.046875 
z
M 13.875 23.1875 
Q 13.875 18.65625 15.796875 14.5 
Q 17.71875 10.359375 21.1875 8.171875 
Q 24.65625 6 28.46875 6 
Q 34.03125 6 38.03125 10.484375 
Q 42.046875 14.984375 42.046875 22.703125 
Q 42.046875 30.125 38.078125 34.390625 
Q 34.125 38.671875 28.125 38.671875 
Q 22.171875 38.671875 18.015625 34.390625 
Q 13.875 30.125 13.875 23.1875 
z
" id="ArialMT-36"/>
      </defs>
      <g style="fill:#262626;" transform="translate(378.178259 461.59)scale(0.12 -0.12)">
       <use xlink:href="#ArialMT-36"/>
       <use x="55.615234" xlink:href="#ArialMT-30"/>
       <use x="111.230469" xlink:href="#ArialMT-30"/>
       <use x="166.845703" xlink:href="#ArialMT-30"/>
      </g>
     </g>
    </g>
    <g id="xtick_5">
     <g id="line2d_5"/>
     <g id="text_5">
      <!-- 7000 -->
      <defs>
       <path d="M 4.734375 62.203125 
L 4.734375 70.65625 
L 51.078125 70.65625 
L 51.078125 63.8125 
Q 44.234375 56.546875 37.515625 44.484375 
Q 30.8125 32.421875 27.15625 19.671875 
Q 24.515625 10.6875 23.78125 0 
L 14.75 0 
Q 14.890625 8.453125 18.0625 20.40625 
Q 21.234375 32.375 27.171875 43.484375 
Q 33.109375 54.59375 39.796875 62.203125 
z
" id="ArialMT-37"/>
      </defs>
      <g style="fill:#262626;" transform="translate(488.526429 461.59)scale(0.12 -0.12)">
       <use xlink:href="#ArialMT-37"/>
       <use x="55.615234" xlink:href="#ArialMT-30"/>
       <use x="111.230469" xlink:href="#ArialMT-30"/>
       <use x="166.845703" xlink:href="#ArialMT-30"/>
      </g>
     </g>
    </g>
    <g id="xtick_6">
     <g id="line2d_6"/>
     <g id="text_6">
      <!-- 8000 -->
      <defs>
       <path d="M 17.671875 38.8125 
Q 12.203125 40.828125 9.5625 44.53125 
Q 6.9375 48.25 6.9375 53.421875 
Q 6.9375 61.234375 12.546875 66.546875 
Q 18.171875 71.875 27.484375 71.875 
Q 36.859375 71.875 42.578125 66.421875 
Q 48.296875 60.984375 48.296875 53.171875 
Q 48.296875 48.1875 45.671875 44.5 
Q 43.0625 40.828125 37.75 38.8125 
Q 44.34375 36.671875 47.78125 31.875 
Q 51.21875 27.09375 51.21875 20.453125 
Q 51.21875 11.28125 44.71875 5.03125 
Q 38.234375 -1.21875 27.640625 -1.21875 
Q 17.046875 -1.21875 10.546875 5.046875 
Q 4.046875 11.328125 4.046875 20.703125 
Q 4.046875 27.6875 7.59375 32.390625 
Q 11.140625 37.109375 17.671875 38.8125 
z
M 15.921875 53.71875 
Q 15.921875 48.640625 19.1875 45.40625 
Q 22.46875 42.1875 27.6875 42.1875 
Q 32.765625 42.1875 36.015625 45.375 
Q 39.265625 48.578125 39.265625 53.21875 
Q 39.265625 58.0625 35.90625 61.359375 
Q 32.5625 64.65625 27.59375 64.65625 
Q 22.5625 64.65625 19.234375 61.421875 
Q 15.921875 58.203125 15.921875 53.71875 
z
M 13.09375 20.65625 
Q 13.09375 16.890625 14.875 13.375 
Q 16.65625 9.859375 20.171875 7.921875 
Q 23.6875 6 27.734375 6 
Q 34.03125 6 38.125 10.046875 
Q 42.234375 14.109375 42.234375 20.359375 
Q 42.234375 26.703125 38.015625 30.859375 
Q 33.796875 35.015625 27.4375 35.015625 
Q 21.234375 35.015625 17.15625 30.90625 
Q 13.09375 26.8125 13.09375 20.65625 
z
" id="ArialMT-38"/>
      </defs>
      <g style="fill:#262626;" transform="translate(598.874598 461.59)scale(0.12 -0.12)">
       <use xlink:href="#ArialMT-38"/>
       <use x="55.615234" xlink:href="#ArialMT-30"/>
       <use x="111.230469" xlink:href="#ArialMT-30"/>
       <use x="166.845703" xlink:href="#ArialMT-30"/>
      </g>
     </g>
    </g>
    <g id="xtick_7">
     <g id="line2d_7"/>
     <g id="text_7">
      <!-- 9000 -->
      <defs>
       <path d="M 5.46875 16.546875 
L 13.921875 17.328125 
Q 14.984375 11.375 18.015625 8.6875 
Q 21.046875 6 25.78125 6 
Q 29.828125 6 32.875 7.859375 
Q 35.9375 9.71875 37.890625 12.8125 
Q 39.84375 15.921875 41.15625 21.1875 
Q 42.484375 26.46875 42.484375 31.9375 
Q 42.484375 32.515625 42.4375 33.6875 
Q 39.796875 29.5 35.234375 26.875 
Q 30.671875 24.265625 25.34375 24.265625 
Q 16.453125 24.265625 10.296875 30.703125 
Q 4.15625 37.15625 4.15625 47.703125 
Q 4.15625 58.59375 10.578125 65.234375 
Q 17 71.875 26.65625 71.875 
Q 33.640625 71.875 39.421875 68.109375 
Q 45.21875 64.359375 48.21875 57.390625 
Q 51.21875 50.4375 51.21875 37.25 
Q 51.21875 23.53125 48.234375 15.40625 
Q 45.265625 7.28125 39.375 3.03125 
Q 33.5 -1.21875 25.59375 -1.21875 
Q 17.1875 -1.21875 11.859375 3.4375 
Q 6.546875 8.109375 5.46875 16.546875 
z
M 41.453125 48.140625 
Q 41.453125 55.71875 37.421875 60.15625 
Q 33.40625 64.59375 27.734375 64.59375 
Q 21.875 64.59375 17.53125 59.8125 
Q 13.1875 55.03125 13.1875 47.40625 
Q 13.1875 40.578125 17.3125 36.296875 
Q 21.4375 32.03125 27.484375 32.03125 
Q 33.59375 32.03125 37.515625 36.296875 
Q 41.453125 40.578125 41.453125 48.140625 
z
" id="ArialMT-39"/>
      </defs>
      <g style="fill:#262626;" transform="translate(709.222768 461.59)scale(0.12 -0.12)">
       <use xlink:href="#ArialMT-39"/>
       <use x="55.615234" xlink:href="#ArialMT-30"/>
       <use x="111.230469" xlink:href="#ArialMT-30"/>
       <use x="166.845703" xlink:href="#ArialMT-30"/>
      </g>
     </g>
    </g>
    <g id="xtick_8">
     <g id="line2d_8"/>
     <g id="text_8">
      <!-- 10000 -->
      <defs>
       <path d="M 37.25 0 
L 28.46875 0 
L 28.46875 56 
Q 25.296875 52.984375 20.140625 49.953125 
Q 14.984375 46.921875 10.890625 45.40625 
L 10.890625 53.90625 
Q 18.265625 57.375 23.78125 62.296875 
Q 29.296875 67.234375 31.59375 71.875 
L 37.25 71.875 
z
" id="ArialMT-31"/>
      </defs>
      <g style="fill:#262626;" transform="translate(816.234375 461.59)scale(0.12 -0.12)">
       <use xlink:href="#ArialMT-31"/>
       <use x="55.615234" xlink:href="#ArialMT-30"/>
       <use x="111.230469" xlink:href="#ArialMT-30"/>
       <use x="166.845703" xlink:href="#ArialMT-30"/>
       <use x="222.460938" xlink:href="#ArialMT-30"/>
      </g>
     </g>
    </g>
    <g id="text_9">
     <!-- Wavelength [Å] -->
     <defs>
      <path d="M 20.21875 0 
L 1.21875 71.578125 
L 10.9375 71.578125 
L 21.828125 24.65625 
Q 23.578125 17.28125 24.859375 10.015625 
Q 27.59375 21.484375 28.078125 23.25 
L 41.703125 71.578125 
L 53.125 71.578125 
L 63.375 35.359375 
Q 67.234375 21.875 68.953125 10.015625 
Q 70.3125 16.796875 72.515625 25.59375 
L 83.734375 71.578125 
L 93.265625 71.578125 
L 73.640625 0 
L 64.5 0 
L 49.421875 54.546875 
Q 47.515625 61.375 47.171875 62.9375 
Q 46.046875 58.015625 45.0625 54.546875 
L 29.890625 0 
z
" id="ArialMT-57"/>
      <path d="M 40.4375 6.390625 
Q 35.546875 2.25 31.03125 0.53125 
Q 26.515625 -1.171875 21.34375 -1.171875 
Q 12.796875 -1.171875 8.203125 3 
Q 3.609375 7.171875 3.609375 13.671875 
Q 3.609375 17.484375 5.34375 20.625 
Q 7.078125 23.78125 9.890625 25.6875 
Q 12.703125 27.59375 16.21875 28.5625 
Q 18.796875 29.25 24.03125 29.890625 
Q 34.671875 31.15625 39.703125 32.90625 
Q 39.75 34.71875 39.75 35.203125 
Q 39.75 40.578125 37.25 42.78125 
Q 33.890625 45.75 27.25 45.75 
Q 21.046875 45.75 18.09375 43.578125 
Q 15.140625 41.40625 13.71875 35.890625 
L 5.125 37.0625 
Q 6.296875 42.578125 8.984375 45.96875 
Q 11.671875 49.359375 16.75 51.1875 
Q 21.828125 53.03125 28.515625 53.03125 
Q 35.15625 53.03125 39.296875 51.46875 
Q 43.453125 49.90625 45.40625 47.53125 
Q 47.359375 45.171875 48.140625 41.546875 
Q 48.578125 39.3125 48.578125 33.453125 
L 48.578125 21.734375 
Q 48.578125 9.46875 49.140625 6.21875 
Q 49.703125 2.984375 51.375 0 
L 42.1875 0 
Q 40.828125 2.734375 40.4375 6.390625 
z
M 39.703125 26.03125 
Q 34.90625 24.078125 25.34375 22.703125 
Q 19.921875 21.921875 17.671875 20.9375 
Q 15.4375 19.96875 14.203125 18.09375 
Q 12.984375 16.21875 12.984375 13.921875 
Q 12.984375 10.40625 15.640625 8.0625 
Q 18.3125 5.71875 23.4375 5.71875 
Q 28.515625 5.71875 32.46875 7.9375 
Q 36.421875 10.15625 38.28125 14.015625 
Q 39.703125 17 39.703125 22.796875 
z
" id="ArialMT-61"/>
      <path d="M 21 0 
L 1.265625 51.859375 
L 10.546875 51.859375 
L 21.6875 20.796875 
Q 23.484375 15.765625 25 10.359375 
Q 26.171875 14.453125 28.265625 20.21875 
L 39.796875 51.859375 
L 48.828125 51.859375 
L 29.203125 0 
z
" id="ArialMT-76"/>
      <path d="M 42.09375 16.703125 
L 51.171875 15.578125 
Q 49.03125 7.625 43.21875 3.21875 
Q 37.40625 -1.171875 28.375 -1.171875 
Q 17 -1.171875 10.328125 5.828125 
Q 3.65625 12.84375 3.65625 25.484375 
Q 3.65625 38.578125 10.390625 45.796875 
Q 17.140625 53.03125 27.875 53.03125 
Q 38.28125 53.03125 44.875 45.953125 
Q 51.46875 38.875 51.46875 26.03125 
Q 51.46875 25.25 51.421875 23.6875 
L 12.75 23.6875 
Q 13.234375 15.140625 17.578125 10.59375 
Q 21.921875 6.0625 28.421875 6.0625 
Q 33.25 6.0625 36.671875 8.59375 
Q 40.09375 11.140625 42.09375 16.703125 
z
M 13.234375 30.90625 
L 42.1875 30.90625 
Q 41.609375 37.453125 38.875 40.71875 
Q 34.671875 45.796875 27.984375 45.796875 
Q 21.921875 45.796875 17.796875 41.75 
Q 13.671875 37.703125 13.234375 30.90625 
z
" id="ArialMT-65"/>
      <path d="M 6.390625 0 
L 6.390625 71.578125 
L 15.1875 71.578125 
L 15.1875 0 
z
" id="ArialMT-6c"/>
      <path d="M 6.59375 0 
L 6.59375 51.859375 
L 14.5 51.859375 
L 14.5 44.484375 
Q 20.21875 53.03125 31 53.03125 
Q 35.6875 53.03125 39.625 51.34375 
Q 43.5625 49.65625 45.515625 46.921875 
Q 47.46875 44.1875 48.25 40.4375 
Q 48.734375 37.984375 48.734375 31.890625 
L 48.734375 0 
L 39.9375 0 
L 39.9375 31.546875 
Q 39.9375 36.921875 38.90625 39.578125 
Q 37.890625 42.234375 35.28125 43.8125 
Q 32.671875 45.40625 29.15625 45.40625 
Q 23.53125 45.40625 19.453125 41.84375 
Q 15.375 38.28125 15.375 28.328125 
L 15.375 0 
z
" id="ArialMT-6e"/>
      <path d="M 4.984375 -4.296875 
L 13.53125 -5.5625 
Q 14.0625 -9.515625 16.5 -11.328125 
Q 19.78125 -13.765625 25.4375 -13.765625 
Q 31.546875 -13.765625 34.859375 -11.328125 
Q 38.1875 -8.890625 39.359375 -4.5 
Q 40.046875 -1.8125 39.984375 6.78125 
Q 34.234375 0 25.640625 0 
Q 14.9375 0 9.078125 7.71875 
Q 3.21875 15.4375 3.21875 26.21875 
Q 3.21875 33.640625 5.90625 39.90625 
Q 8.59375 46.1875 13.6875 49.609375 
Q 18.796875 53.03125 25.6875 53.03125 
Q 34.859375 53.03125 40.828125 45.609375 
L 40.828125 51.859375 
L 48.921875 51.859375 
L 48.921875 7.03125 
Q 48.921875 -5.078125 46.453125 -10.125 
Q 44 -15.1875 38.640625 -18.109375 
Q 33.296875 -21.046875 25.484375 -21.046875 
Q 16.21875 -21.046875 10.5 -16.875 
Q 4.78125 -12.703125 4.984375 -4.296875 
z
M 12.25 26.859375 
Q 12.25 16.65625 16.296875 11.96875 
Q 20.359375 7.28125 26.46875 7.28125 
Q 32.515625 7.28125 36.609375 11.9375 
Q 40.71875 16.609375 40.71875 26.5625 
Q 40.71875 36.078125 36.5 40.90625 
Q 32.28125 45.75 26.3125 45.75 
Q 20.453125 45.75 16.34375 40.984375 
Q 12.25 36.234375 12.25 26.859375 
z
" id="ArialMT-67"/>
      <path d="M 25.78125 7.859375 
L 27.046875 0.09375 
Q 23.34375 -0.6875 20.40625 -0.6875 
Q 15.625 -0.6875 12.984375 0.828125 
Q 10.359375 2.34375 9.28125 4.8125 
Q 8.203125 7.28125 8.203125 15.1875 
L 8.203125 45.015625 
L 1.765625 45.015625 
L 1.765625 51.859375 
L 8.203125 51.859375 
L 8.203125 64.703125 
L 16.9375 69.96875 
L 16.9375 51.859375 
L 25.78125 51.859375 
L 25.78125 45.015625 
L 16.9375 45.015625 
L 16.9375 14.703125 
Q 16.9375 10.9375 17.40625 9.859375 
Q 17.875 8.796875 18.921875 8.15625 
Q 19.96875 7.515625 21.921875 7.515625 
Q 23.390625 7.515625 25.78125 7.859375 
z
" id="ArialMT-74"/>
      <path d="M 6.59375 0 
L 6.59375 71.578125 
L 15.375 71.578125 
L 15.375 45.90625 
Q 21.53125 53.03125 30.90625 53.03125 
Q 36.671875 53.03125 40.921875 50.75 
Q 45.171875 48.484375 47 44.484375 
Q 48.828125 40.484375 48.828125 32.859375 
L 48.828125 0 
L 40.046875 0 
L 40.046875 32.859375 
Q 40.046875 39.453125 37.1875 42.453125 
Q 34.328125 45.453125 29.109375 45.453125 
Q 25.203125 45.453125 21.75 43.421875 
Q 18.3125 41.40625 16.84375 37.9375 
Q 15.375 34.46875 15.375 28.375 
L 15.375 0 
z
" id="ArialMT-68"/>
      <path id="ArialMT-20"/>
      <path d="M 6.78125 -19.875 
L 6.78125 71.578125 
L 26.171875 71.578125 
L 26.171875 64.3125 
L 15.578125 64.3125 
L 15.578125 -12.59375 
L 26.171875 -12.59375 
L 26.171875 -19.875 
z
" id="ArialMT-5b"/>
      <path d="M -0.140625 0 
L 27.34375 71.578125 
L 37.546875 71.578125 
L 66.84375 0 
L 56.0625 0 
L 47.703125 21.6875 
L 17.78125 21.6875 
L 9.90625 0 
z
M 20.515625 29.390625 
L 44.78125 29.390625 
L 37.3125 49.21875 
Q 33.890625 58.25 32.234375 64.0625 
Q 30.859375 57.171875 28.375 50.390625 
z
M 23.53125 78.328125 
Q 23.53125 81.890625 26.140625 84.484375 
Q 28.765625 87.078125 32.328125 87.078125 
Q 35.9375 87.078125 38.515625 84.453125 
Q 41.109375 81.84375 41.109375 78.140625 
Q 41.109375 74.375 38.515625 71.78125 
Q 35.9375 69.203125 32.375 69.203125 
Q 28.71875 69.203125 26.125 71.8125 
Q 23.53125 74.421875 23.53125 78.328125 
z
M 27.25 78.28125 
Q 27.25 75.984375 28.78125 74.421875 
Q 30.328125 72.859375 32.421875 72.859375 
Q 34.515625 72.859375 36.046875 74.421875 
Q 37.59375 75.984375 37.59375 78.1875 
Q 37.59375 80.390625 36.078125 81.953125 
Q 34.578125 83.515625 32.421875 83.515625 
Q 30.328125 83.515625 28.78125 81.96875 
Q 27.25 80.4375 27.25 78.28125 
z
" id="ArialMT-c5"/>
      <path d="M 21.296875 -19.875 
L 1.90625 -19.875 
L 1.90625 -12.59375 
L 12.5 -12.59375 
L 12.5 64.3125 
L 1.90625 64.3125 
L 1.90625 71.578125 
L 21.296875 71.578125 
z
" id="ArialMT-5d"/>
     </defs>
     <g style="fill:#262626;" transform="translate(378.893906 485.390625)scale(0.2 -0.2)">
      <use xlink:href="#ArialMT-57"/>
      <use x="94.337891" xlink:href="#ArialMT-61"/>
      <use x="149.953125" xlink:href="#ArialMT-76"/>
      <use x="199.953125" xlink:href="#ArialMT-65"/>
      <use x="255.568359" xlink:href="#ArialMT-6c"/>
      <use x="277.785156" xlink:href="#ArialMT-65"/>
      <use x="333.400391" xlink:href="#ArialMT-6e"/>
      <use x="389.015625" xlink:href="#ArialMT-67"/>
      <use x="444.630859" xlink:href="#ArialMT-74"/>
      <use x="472.414062" xlink:href="#ArialMT-68"/>
      <use x="528.029297" xlink:href="#ArialMT-20"/>
      <use x="555.8125" xlink:href="#ArialMT-5b"/>
      <use x="583.595703" xlink:href="#ArialMT-c5"/>
      <use x="650.294922" xlink:href="#ArialMT-5d"/>
     </g>
    </g>
   </g>
   <g id="matplotlib.axis_2">
    <g id="ytick_1">
     <g id="line2d_9"/>
     <g id="text_10">
      <!-- 0.0 -->
      <defs>
       <path d="M 9.078125 0 
L 9.078125 10.015625 
L 19.09375 10.015625 
L 19.09375 0 
z
" id="ArialMT-2e"/>
      </defs>
      <g style="fill:#262626;" transform="translate(33.8 447.295312)scale(0.12 -0.12)">
       <use xlink:href="#ArialMT-30"/>
       <use x="55.615234" xlink:href="#ArialMT-2e"/>
       <use x="83.398438" xlink:href="#ArialMT-30"/>
      </g>
     </g>
    </g>
    <g id="ytick_2">
     <g id="line2d_10"/>
     <g id="text_11">
      <!-- 0.2 -->
      <defs>
       <path d="M 50.34375 8.453125 
L 50.34375 0 
L 3.03125 0 
Q 2.9375 3.171875 4.046875 6.109375 
Q 5.859375 10.9375 9.828125 15.625 
Q 13.8125 20.3125 21.34375 26.46875 
Q 33.015625 36.03125 37.109375 41.625 
Q 41.21875 47.21875 41.21875 52.203125 
Q 41.21875 57.421875 37.46875 61 
Q 33.734375 64.59375 27.734375 64.59375 
Q 21.390625 64.59375 17.578125 60.78125 
Q 13.765625 56.984375 13.71875 50.25 
L 4.6875 51.171875 
Q 5.609375 61.28125 11.65625 66.578125 
Q 17.71875 71.875 27.9375 71.875 
Q 38.234375 71.875 44.234375 66.15625 
Q 50.25 60.453125 50.25 52 
Q 50.25 47.703125 48.484375 43.546875 
Q 46.734375 39.40625 42.65625 34.8125 
Q 38.578125 30.21875 29.109375 22.21875 
Q 21.1875 15.578125 18.9375 13.203125 
Q 16.703125 10.84375 15.234375 8.453125 
z
" id="ArialMT-32"/>
      </defs>
      <g style="fill:#262626;" transform="translate(33.8 381.089662)scale(0.12 -0.12)">
       <use xlink:href="#ArialMT-30"/>
       <use x="55.615234" xlink:href="#ArialMT-2e"/>
       <use x="83.398438" xlink:href="#ArialMT-32"/>
      </g>
     </g>
    </g>
    <g id="ytick_3">
     <g id="line2d_11"/>
     <g id="text_12">
      <!-- 0.4 -->
      <g style="fill:#262626;" transform="translate(33.8 314.884012)scale(0.12 -0.12)">
       <use xlink:href="#ArialMT-30"/>
       <use x="55.615234" xlink:href="#ArialMT-2e"/>
       <use x="83.398438" xlink:href="#ArialMT-34"/>
      </g>
     </g>
    </g>
    <g id="ytick_4">
     <g id="line2d_12"/>
     <g id="text_13">
      <!-- 0.6 -->
      <g style="fill:#262626;" transform="translate(33.8 248.678362)scale(0.12 -0.12)">
       <use xlink:href="#ArialMT-30"/>
       <use x="55.615234" xlink:href="#ArialMT-2e"/>
       <use x="83.398438" xlink:href="#ArialMT-36"/>
      </g>
     </g>
    </g>
    <g id="ytick_5">
     <g id="line2d_13"/>
     <g id="text_14">
      <!-- 0.8 -->
      <g style="fill:#262626;" transform="translate(33.8 182.472712)scale(0.12 -0.12)">
       <use xlink:href="#ArialMT-30"/>
       <use x="55.615234" xlink:href="#ArialMT-2e"/>
       <use x="83.398438" xlink:href="#ArialMT-38"/>
      </g>
     </g>
    </g>
    <g id="ytick_6">
     <g id="line2d_14"/>
     <g id="text_15">
      <!-- 1.0 -->
      <g style="fill:#262626;" transform="translate(33.8 116.267062)scale(0.12 -0.12)">
       <use xlink:href="#ArialMT-31"/>
       <use x="55.615234" xlink:href="#ArialMT-2e"/>
       <use x="83.398438" xlink:href="#ArialMT-30"/>
      </g>
     </g>
    </g>
    <g id="ytick_7">
     <g id="line2d_15"/>
     <g id="text_16">
      <!-- 1.2 -->
      <g style="fill:#262626;" transform="translate(33.8 50.061412)scale(0.12 -0.12)">
       <use xlink:href="#ArialMT-31"/>
       <use x="55.615234" xlink:href="#ArialMT-2e"/>
       <use x="83.398438" xlink:href="#ArialMT-32"/>
      </g>
     </g>
    </g>
    <g id="text_17">
     <!-- Flux [erg s$​^{-1}$ cm$​^{-2}$ Å$​^{-1}$] -->
     <defs>
      <path d="M 8.203125 0 
L 8.203125 71.578125 
L 56.5 71.578125 
L 56.5 63.140625 
L 17.671875 63.140625 
L 17.671875 40.96875 
L 51.265625 40.96875 
L 51.265625 32.515625 
L 17.671875 32.515625 
L 17.671875 0 
z
" id="ArialMT-46"/>
      <path d="M 40.578125 0 
L 40.578125 7.625 
Q 34.515625 -1.171875 24.125 -1.171875 
Q 19.53125 -1.171875 15.546875 0.578125 
Q 11.578125 2.34375 9.640625 5 
Q 7.71875 7.671875 6.9375 11.53125 
Q 6.390625 14.109375 6.390625 19.734375 
L 6.390625 51.859375 
L 15.1875 51.859375 
L 15.1875 23.09375 
Q 15.1875 16.21875 15.71875 13.8125 
Q 16.546875 10.359375 19.234375 8.375 
Q 21.921875 6.390625 25.875 6.390625 
Q 29.828125 6.390625 33.296875 8.421875 
Q 36.765625 10.453125 38.203125 13.9375 
Q 39.65625 17.4375 39.65625 24.078125 
L 39.65625 51.859375 
L 48.4375 51.859375 
L 48.4375 0 
z
" id="ArialMT-75"/>
      <path d="M 0.734375 0 
L 19.671875 26.953125 
L 2.15625 51.859375 
L 13.140625 51.859375 
L 21.09375 39.703125 
Q 23.34375 36.234375 24.703125 33.890625 
Q 26.859375 37.109375 28.65625 39.59375 
L 37.40625 51.859375 
L 47.90625 51.859375 
L 29.984375 27.4375 
L 49.265625 0 
L 38.484375 0 
L 27.828125 16.109375 
L 25 20.453125 
L 11.375 0 
z
" id="ArialMT-78"/>
      <path d="M 6.5 0 
L 6.5 51.859375 
L 14.40625 51.859375 
L 14.40625 44 
Q 17.4375 49.515625 20 51.265625 
Q 22.5625 53.03125 25.640625 53.03125 
Q 30.078125 53.03125 34.671875 50.203125 
L 31.640625 42.046875 
Q 28.421875 43.953125 25.203125 43.953125 
Q 22.3125 43.953125 20.015625 42.21875 
Q 17.71875 40.484375 16.75 37.40625 
Q 15.28125 32.71875 15.28125 27.15625 
L 15.28125 0 
z
" id="ArialMT-72"/>
      <path d="M 3.078125 15.484375 
L 11.765625 16.84375 
Q 12.5 11.625 15.84375 8.84375 
Q 19.1875 6.0625 25.203125 6.0625 
Q 31.25 6.0625 34.171875 8.515625 
Q 37.109375 10.984375 37.109375 14.3125 
Q 37.109375 17.28125 34.515625 19 
Q 32.71875 20.171875 25.53125 21.96875 
Q 15.875 24.421875 12.140625 26.203125 
Q 8.40625 27.984375 6.46875 31.125 
Q 4.546875 34.28125 4.546875 38.09375 
Q 4.546875 41.546875 6.125 44.5 
Q 7.71875 47.46875 10.453125 49.421875 
Q 12.5 50.921875 16.03125 51.96875 
Q 19.578125 53.03125 23.640625 53.03125 
Q 29.734375 53.03125 34.34375 51.265625 
Q 38.96875 49.515625 41.15625 46.5 
Q 43.359375 43.5 44.1875 38.484375 
L 35.59375 37.3125 
Q 35.015625 41.3125 32.203125 43.546875 
Q 29.390625 45.796875 24.265625 45.796875 
Q 18.21875 45.796875 15.625 43.796875 
Q 13.03125 41.796875 13.03125 39.109375 
Q 13.03125 37.40625 14.109375 36.03125 
Q 15.1875 34.625 17.484375 33.6875 
Q 18.796875 33.203125 25.25 31.453125 
Q 34.578125 28.953125 38.25 27.359375 
Q 41.9375 25.78125 44.03125 22.75 
Q 46.140625 19.734375 46.140625 15.234375 
Q 46.140625 10.84375 43.578125 6.953125 
Q 41.015625 3.078125 36.171875 0.953125 
Q 31.34375 -1.171875 25.25 -1.171875 
Q 15.140625 -1.171875 9.84375 3.03125 
Q 4.546875 7.234375 3.078125 15.484375 
z
" id="ArialMT-73"/>
      <path id="DejaVuSans-200b"/>
      <path d="M 10.59375 35.5 
L 73.1875 35.5 
L 73.1875 27.203125 
L 10.59375 27.203125 
z
" id="DejaVuSans-2212"/>
      <path d="M 12.40625 8.296875 
L 28.515625 8.296875 
L 28.515625 63.921875 
L 10.984375 60.40625 
L 10.984375 69.390625 
L 28.421875 72.90625 
L 38.28125 72.90625 
L 38.28125 8.296875 
L 54.390625 8.296875 
L 54.390625 0 
L 12.40625 0 
z
" id="DejaVuSans-31"/>
      <path d="M 40.4375 19 
L 49.078125 17.875 
Q 47.65625 8.9375 41.8125 3.875 
Q 35.984375 -1.171875 27.484375 -1.171875 
Q 16.84375 -1.171875 10.375 5.78125 
Q 3.90625 12.75 3.90625 25.734375 
Q 3.90625 34.125 6.6875 40.421875 
Q 9.46875 46.734375 15.15625 49.875 
Q 20.84375 53.03125 27.546875 53.03125 
Q 35.984375 53.03125 41.359375 48.75 
Q 46.734375 44.484375 48.25 36.625 
L 39.703125 35.296875 
Q 38.484375 40.53125 35.375 43.15625 
Q 32.28125 45.796875 27.875 45.796875 
Q 21.234375 45.796875 17.078125 41.03125 
Q 12.9375 36.28125 12.9375 25.984375 
Q 12.9375 15.53125 16.9375 10.796875 
Q 20.953125 6.0625 27.390625 6.0625 
Q 32.5625 6.0625 36.03125 9.234375 
Q 39.5 12.40625 40.4375 19 
z
" id="ArialMT-63"/>
      <path d="M 6.59375 0 
L 6.59375 51.859375 
L 14.453125 51.859375 
L 14.453125 44.578125 
Q 16.890625 48.390625 20.9375 50.703125 
Q 25 53.03125 30.171875 53.03125 
Q 35.9375 53.03125 39.625 50.640625 
Q 43.3125 48.25 44.828125 43.953125 
Q 50.984375 53.03125 60.84375 53.03125 
Q 68.5625 53.03125 72.703125 48.75 
Q 76.859375 44.484375 76.859375 35.59375 
L 76.859375 0 
L 68.109375 0 
L 68.109375 32.671875 
Q 68.109375 37.9375 67.25 40.25 
Q 66.40625 42.578125 64.15625 43.984375 
Q 61.921875 45.40625 58.890625 45.40625 
Q 53.421875 45.40625 49.796875 41.765625 
Q 46.1875 38.140625 46.1875 30.125 
L 46.1875 0 
L 37.40625 0 
L 37.40625 33.6875 
Q 37.40625 39.546875 35.25 42.46875 
Q 33.109375 45.40625 28.21875 45.40625 
Q 24.515625 45.40625 21.359375 43.453125 
Q 18.21875 41.5 16.796875 37.734375 
Q 15.375 33.984375 15.375 26.90625 
L 15.375 0 
z
" id="ArialMT-6d"/>
      <path d="M 19.1875 8.296875 
L 53.609375 8.296875 
L 53.609375 0 
L 7.328125 0 
L 7.328125 8.296875 
Q 12.9375 14.109375 22.625 23.890625 
Q 32.328125 33.6875 34.8125 36.53125 
Q 39.546875 41.84375 41.421875 45.53125 
Q 43.3125 49.21875 43.3125 52.78125 
Q 43.3125 58.59375 39.234375 62.25 
Q 35.15625 65.921875 28.609375 65.921875 
Q 23.96875 65.921875 18.8125 64.3125 
Q 13.671875 62.703125 7.8125 59.421875 
L 7.8125 69.390625 
Q 13.765625 71.78125 18.9375 73 
Q 24.125 74.21875 28.421875 74.21875 
Q 39.75 74.21875 46.484375 68.546875 
Q 53.21875 62.890625 53.21875 53.421875 
Q 53.21875 48.921875 51.53125 44.890625 
Q 49.859375 40.875 45.40625 35.40625 
Q 44.1875 33.984375 37.640625 27.21875 
Q 31.109375 20.453125 19.1875 8.296875 
z
" id="DejaVuSans-32"/>
     </defs>
     <g style="fill:#262626;" transform="translate(25.4 343.207969)rotate(-90)scale(0.2 -0.2)">
      <use transform="translate(0 0.765625)" xlink:href="#ArialMT-46"/>
      <use transform="translate(61.083984 0.765625)" xlink:href="#ArialMT-6c"/>
      <use transform="translate(83.300781 0.765625)" xlink:href="#ArialMT-75"/>
      <use transform="translate(138.916016 0.765625)" xlink:href="#ArialMT-78"/>
      <use transform="translate(188.916016 0.765625)" xlink:href="#ArialMT-20"/>
      <use transform="translate(216.699219 0.765625)" xlink:href="#ArialMT-5b"/>
      <use transform="translate(244.482422 0.765625)" xlink:href="#ArialMT-65"/>
      <use transform="translate(300.097656 0.765625)" xlink:href="#ArialMT-72"/>
      <use transform="translate(333.398438 0.765625)" xlink:href="#ArialMT-67"/>
      <use transform="translate(389.013672 0.765625)" xlink:href="#ArialMT-20"/>
      <use transform="translate(416.796875 0.765625)" xlink:href="#ArialMT-73"/>
      <use transform="translate(466.796875 0.765625)" xlink:href="#DejaVuSans-200b"/>
      <use transform="translate(467.753906 39.046875)scale(0.7)" xlink:href="#DejaVuSans-2212"/>
      <use transform="translate(526.40625 39.046875)scale(0.7)" xlink:href="#DejaVuSans-31"/>
      <use transform="translate(573.676758 0.765625)" xlink:href="#ArialMT-20"/>
      <use transform="translate(601.459961 0.765625)" xlink:href="#ArialMT-63"/>
      <use transform="translate(651.459961 0.765625)" xlink:href="#ArialMT-6d"/>
      <use transform="translate(734.760742 0.765625)" xlink:href="#DejaVuSans-200b"/>
      <use transform="translate(735.717773 39.046875)scale(0.7)" xlink:href="#DejaVuSans-2212"/>
      <use transform="translate(794.370117 39.046875)scale(0.7)" xlink:href="#DejaVuSans-32"/>
      <use transform="translate(841.640625 0.765625)" xlink:href="#ArialMT-20"/>
      <use transform="translate(869.423828 0.765625)" xlink:href="#ArialMT-c5"/>
      <use transform="translate(936.123047 0.765625)" xlink:href="#DejaVuSans-200b"/>
      <use transform="translate(937.080078 39.046875)scale(0.7)" xlink:href="#DejaVuSans-2212"/>
      <use transform="translate(995.732422 39.046875)scale(0.7)" xlink:href="#DejaVuSans-31"/>
      <use transform="translate(1043.00293 0.765625)" xlink:href="#ArialMT-5d"/>
     </g>
    </g>
    <g id="text_18">
     <!-- 1e−12 -->
     <defs>
      <path d="M 52.828125 31.203125 
L 5.5625 31.203125 
L 5.5625 39.40625 
L 52.828125 39.40625 
z
" id="ArialMT-2212"/>
     </defs>
     <g style="fill:#262626;" transform="translate(60.48 26.215312)scale(0.1 -0.1)">
      <use xlink:href="#ArialMT-31"/>
      <use x="55.615234" xlink:href="#ArialMT-65"/>
      <use x="111.230469" xlink:href="#ArialMT-2212"/>
      <use x="169.628906" xlink:href="#ArialMT-31"/>
      <use x="225.244141" xlink:href="#ArialMT-32"/>
     </g>
    </g>
   </g>
   <g id="line2d_16">
    <path clip-path="url(#p72081c823c)" d="M 93.438791 289.067629 
L 93.70142 292.802085 
L 93.964049 293.364058 
L 94.489306 290.325305 
L 94.751935 292.069546 
L 95.014563 291.392427 
L 95.277192 288.614948 
L 95.53982 287.190732 
L 95.802449 286.765546 
L 96.065078 284.244448 
L 96.852964 272.460154 
L 97.378221 264.05387 
L 97.64085 262.05291 
L 98.166107 255.199705 
L 98.428736 253.355779 
L 98.691364 253.204466 
L 98.953993 253.478967 
L 99.216621 254.157416 
L 99.741879 256.542667 
L 100.004507 257.091876 
L 100.267136 259.26029 
L 100.529765 260.166778 
L 100.792393 262.537264 
L 101.055022 263.607525 
L 101.842908 268.437287 
L 102.105537 267.1448 
L 102.368165 268.263649 
L 102.630794 268.733001 
L 102.893422 269.640667 
L 103.156051 268.478665 
L 103.681308 263.832326 
L 104.206566 257.433908 
L 104.731823 256.790131 
L 105.782338 251.388398 
L 106.044966 251.184094 
L 106.307595 252.046721 
L 106.832852 252.683407 
L 107.095481 252.422332 
L 107.358109 252.427734 
L 107.620738 251.75825 
L 107.883367 252.022642 
L 108.671253 245.615014 
L 109.459139 237.892105 
L 110.772282 228.338934 
L 111.03491 228.4425 
L 111.297539 229.035246 
L 111.560168 229.226693 
L 111.822796 228.786425 
L 112.085425 229.459054 
L 112.348054 229.543526 
L 112.610682 230.058931 
L 112.873311 230.199055 
L 113.13594 229.87615 
L 113.398568 229.803767 
L 113.661197 229.184142 
L 114.711711 222.112141 
L 115.236969 217.123413 
L 115.499597 213.560469 
L 115.762226 211.614096 
L 116.287483 204.687376 
L 116.812741 198.559706 
L 117.075369 196.211636 
L 117.337998 195.285598 
L 117.863255 191.859588 
L 118.125884 189.069119 
L 118.91377 186.824774 
L 119.176398 186.547518 
L 119.439027 185.51477 
L 122.065313 168.555279 
L 122.590571 167.725927 
L 123.115828 164.186884 
L 123.641085 162.325572 
L 123.903714 161.100331 
L 124.6916 153.756542 
L 124.954229 152.40925 
L 125.216857 152.118707 
L 125.479486 152.514404 
L 126.004743 154.325831 
L 126.53 158.757366 
L 127.055258 164.957783 
L 127.580515 169.044128 
L 128.368401 172.664193 
L 128.63103 172.782112 
L 128.893658 171.904371 
L 129.156287 170.171617 
L 129.681544 164.915994 
L 130.206801 161.312467 
L 130.46943 159.958482 
L 130.732059 159.575098 
L 130.994687 160.173968 
L 131.782573 163.719651 
L 132.307831 166.669331 
L 132.833088 169.040275 
L 133.358345 170.054009 
L 133.620974 170.21671 
L 134.146231 172.980789 
L 134.671488 177.878716 
L 135.196746 186.396086 
L 136.509889 218.783585 
L 138.085661 259.046379 
L 139.661433 283.064809 
L 140.449319 293.832483 
L 141.237204 301.484658 
L 141.499833 302.388663 
L 141.762462 302.325648 
L 142.287719 299.497767 
L 143.075605 292.874726 
L 143.338234 292.026254 
L 143.600862 292.086561 
L 143.863491 292.644111 
L 144.12612 292.506331 
L 144.388748 291.545482 
L 144.651377 291.362238 
L 145.439263 292.460841 
L 145.96452 293.568395 
L 146.489777 295.552188 
L 147.540292 299.655958 
L 147.802921 301.157827 
L 148.328178 302.345318 
L 149.116064 302.765307 
L 149.378692 303.084094 
L 149.641321 303.106915 
L 149.90395 302.238469 
L 150.166578 300.867601 
L 151.74235 287.549679 
L 152.530236 277.442765 
L 153.055493 269.819786 
L 153.843379 254.59342 
L 154.631265 237.471712 
L 156.994923 173.177175 
L 158.045438 152.063471 
L 159.883838 126.519742 
L 161.984867 112.083071 
L 162.772753 104.868575 
L 163.035382 104.028293 
L 163.560639 110.217528 
L 163.823268 105.629079 
L 164.348525 89.029006 
L 164.611154 86.253466 
L 164.873782 85.79049 
L 165.136411 85.823394 
L 165.661668 87.782419 
L 165.924297 89.671267 
L 166.449554 97.05611 
L 166.974812 108.268169 
L 167.500069 121.545242 
L 168.025326 123.923157 
L 168.287955 126.931449 
L 170.388984 162.186408 
L 171.439499 174.25152 
L 171.702127 175.32427 
L 171.964756 175.018043 
L 172.227384 172.708498 
L 173.540528 156.013261 
L 175.641557 137.330913 
L 175.904185 135.757351 
L 176.429443 131.376615 
L 178.793101 111.758597 
L 179.318358 107.59638 
L 179.843615 104.297353 
L 180.106244 103.815905 
L 180.368872 103.896213 
L 180.631501 103.741887 
L 181.156758 106.522922 
L 181.682016 110.226148 
L 182.207273 112.309249 
L 182.73253 113.239094 
L 182.995159 112.735249 
L 183.257787 112.859398 
L 183.520416 112.542505 
L 183.783045 112.75964 
L 184.308302 116.805142 
L 185.621445 135.844007 
L 186.146703 139.678188 
L 186.934588 143.396946 
L 187.459846 144.24747 
L 187.722474 145.087759 
L 189.035618 154.381007 
L 189.298246 155.405539 
L 189.560875 157.192913 
L 189.823504 157.475915 
L 190.086132 158.309829 
L 190.611389 158.630946 
L 190.874018 158.57967 
L 191.661904 161.856485 
L 191.924533 163.896433 
L 192.44979 168.876058 
L 192.975047 173.995377 
L 196.126591 208.526761 
L 197.964992 224.015686 
L 198.22762 225.470707 
L 198.490249 227.606117 
L 198.752877 228.392879 
L 199.540763 234.589761 
L 200.853907 244.589548 
L 202.16705 257.205339 
L 204.00545 271.317199 
L 204.268079 272.423734 
L 204.793336 273.629769 
L 205.318594 273.003418 
L 205.581222 273.254516 
L 206.106479 271.930681 
L 206.369108 271.51044 
L 207.419623 266.924017 
L 208.207509 261.334347 
L 209.258023 255.017686 
L 210.571166 243.057728 
L 211.621681 236.790099 
L 211.88431 236.13892 
L 212.409567 234.372619 
L 212.672196 233.998743 
L 212.934824 233.086634 
L 213.197453 232.913023 
L 213.985339 231.394987 
L 214.247967 231.205659 
L 214.510596 230.794985 
L 214.773225 231.246455 
L 215.298482 234.151195 
L 218.450026 256.894815 
L 218.712654 257.708343 
L 218.975283 258.021324 
L 219.237912 257.554885 
L 220.025798 255.637033 
L 220.551055 252.015207 
L 221.601569 240.075634 
L 222.389455 230.373679 
L 223.43997 220.126607 
L 225.015742 210.100066 
L 226.854142 205.458129 
L 227.3794 203.336675 
L 227.904657 201.839136 
L 228.429914 201.391633 
L 228.692543 201.446047 
L 228.955171 201.229561 
L 229.2178 201.373777 
L 229.480429 201.891836 
L 230.005686 203.733015 
L 231.318829 208.899062 
L 232.631972 212.162809 
L 232.894601 212.053152 
L 233.15723 211.588302 
L 233.945116 212.510514 
L 234.470373 212.690554 
L 234.99563 213.32485 
L 235.258259 213.825722 
L 235.783516 213.774075 
L 236.046145 213.516959 
L 236.308774 213.703076 
L 236.834031 213.291608 
L 237.359288 212.535752 
L 237.621917 212.57809 
L 237.884545 213.061994 
L 238.147174 213.281538 
L 239.197689 216.692977 
L 239.722946 219.666948 
L 240.248203 223.381157 
L 241.298718 233.305179 
L 242.086604 241.178448 
L 242.87449 250.208892 
L 244.71289 265.930178 
L 244.975519 266.305412 
L 245.238147 267.81982 
L 245.500776 268.165949 
L 245.763405 268.763879 
L 246.026033 268.024011 
L 246.288662 267.919122 
L 246.813919 267.087711 
L 247.076548 267.03611 
L 247.339177 266.15337 
L 247.601805 266.117653 
L 247.864434 265.054569 
L 248.389691 265.362504 
L 248.65232 265.172759 
L 248.914948 266.133899 
L 249.177577 266.297811 
L 249.702834 267.251967 
L 249.965463 268.084589 
L 253.379635 287.591435 
L 254.43015 292.57733 
L 254.692779 293.457315 
L 255.218036 293.989629 
L 255.480665 293.960862 
L 255.743293 293.583854 
L 256.005922 293.62563 
L 256.793808 291.158457 
L 257.319065 288.83052 
L 258.36958 286.36242 
L 258.632208 286.565162 
L 259.157466 287.141694 
L 259.420094 287.344422 
L 259.682723 287.787814 
L 260.20798 289.9795 
L 260.733237 293.128637 
L 261.783752 300.893282 
L 263.359524 311.123591 
L 265.197924 325.644172 
L 265.723182 328.285625 
L 266.248439 329.902063 
L 267.036325 330.833159 
L 267.298953 330.64017 
L 267.824211 329.900765 
L 268.086839 329.371239 
L 268.874725 326.512976 
L 269.662611 322.330804 
L 270.450497 318.36355 
L 271.238383 314.801395 
L 272.026269 313.178078 
L 272.288898 312.981865 
L 272.551526 312.137352 
L 274.127298 309.518243 
L 274.652555 310.254682 
L 274.915184 309.992746 
L 275.177813 310.0682 
L 275.440441 310.652677 
L 275.70307 310.889938 
L 276.490956 312.551932 
L 277.278842 315.894437 
L 277.541471 316.269578 
L 277.804099 316.303296 
L 278.066728 316.473524 
L 278.329357 316.433417 
L 278.591985 315.824888 
L 278.854614 316.178631 
L 279.117242 315.970176 
L 279.379871 316.414654 
L 279.6425 316.076251 
L 279.905128 316.295954 
L 280.167757 316.966816 
L 280.430386 316.510407 
L 280.693014 316.361842 
L 280.955643 315.903626 
L 281.218272 315.86757 
L 281.743529 314.878471 
L 282.531415 312.705099 
L 282.794043 312.421878 
L 283.056672 311.69053 
L 283.581929 311.119109 
L 283.844558 310.586008 
L 284.107187 310.529071 
L 284.369815 310.139093 
L 285.157701 308.443686 
L 285.682959 307.404933 
L 285.945587 307.078717 
L 288.309245 296.563426 
L 288.571874 295.82003 
L 289.097131 293.700264 
L 289.622388 292.368669 
L 289.885017 291.365528 
L 290.672903 287.130379 
L 291.19816 285.586549 
L 291.986046 281.433588 
L 292.248675 280.73545 
L 293.299189 276.086098 
L 293.561818 275.073721 
L 294.349704 273.562425 
L 294.612332 273.76894 
L 294.874961 273.564788 
L 295.13759 273.721755 
L 295.925476 275.167806 
L 296.713362 277.847089 
L 296.97599 278.332218 
L 297.501248 279.700126 
L 297.763876 275.830955 
L 298.551762 278.055346 
L 298.814391 278.109482 
L 299.077019 278.48988 
L 299.339648 279.268048 
L 299.602277 279.678549 
L 300.127534 279.531414 
L 300.652791 279.862733 
L 301.178049 278.892675 
L 301.440677 279.065538 
L 301.965934 278.271322 
L 302.228563 278.426508 
L 302.75382 277.680072 
L 303.016449 277.928522 
L 303.279078 277.904589 
L 303.541706 278.484795 
L 304.066964 278.166472 
L 304.329592 279.095013 
L 304.85485 279.842157 
L 305.642735 282.782052 
L 306.955879 291.914419 
L 310.63268 325.7292 
L 311.683194 331.987349 
L 312.996337 336.292331 
L 313.521595 336.968523 
L 313.784223 336.90043 
L 314.046852 336.473894 
L 314.309481 336.503593 
L 314.572109 336.901205 
L 314.834738 336.967252 
L 315.622624 336.030428 
L 315.885253 335.765487 
L 316.41051 334.99956 
L 316.673138 334.951568 
L 316.935767 334.684653 
L 317.986282 332.401253 
L 318.511539 330.557823 
L 319.036796 328.319582 
L 319.824682 326.051443 
L 321.400454 320.711626 
L 321.663083 320.848235 
L 321.925711 320.703913 
L 322.18834 319.988422 
L 322.450969 319.610189 
L 322.713597 319.936537 
L 323.238855 319.742124 
L 323.764112 320.056852 
L 324.289369 320.550336 
L 325.339884 321.960927 
L 325.865141 323.366108 
L 326.653027 325.460379 
L 327.440913 328.27106 
L 327.96617 330.372626 
L 329.541942 338.92909 
L 331.380343 347.349615 
L 332.168228 349.832208 
L 332.693486 350.265279 
L 333.481372 350.240107 
L 334.006629 349.181817 
L 335.057144 345.570034 
L 335.319772 344.246503 
L 335.845029 340.515007 
L 336.632915 335.87364 
L 339.259202 319.695349 
L 341.885488 308.237078 
L 342.410746 307.886208 
L 342.673374 307.683804 
L 342.936003 307.926746 
L 343.46126 308.963586 
L 343.723889 309.735941 
L 344.249146 310.78483 
L 344.511775 311.495032 
L 344.774403 311.832012 
L 345.037032 311.936974 
L 345.299661 312.278085 
L 345.562289 312.425817 
L 346.087547 311.698501 
L 346.350175 311.763052 
L 346.612804 311.663181 
L 347.138061 310.59433 
L 347.663318 309.53306 
L 347.925947 309.49962 
L 348.188576 309.124995 
L 348.713833 308.759778 
L 348.976462 308.483568 
L 349.23909 308.711865 
L 349.764348 308.811842 
L 350.026976 308.712011 
L 350.289605 308.971749 
L 350.552234 309.711908 
L 350.814862 309.698919 
L 351.077491 309.835699 
L 352.128005 311.235638 
L 352.390634 311.621663 
L 353.17852 311.562402 
L 353.441149 311.597001 
L 353.703777 311.853581 
L 353.966406 311.813607 
L 354.229035 311.980822 
L 355.01692 313.151556 
L 355.279549 313.262133 
L 355.804806 313.632461 
L 356.067435 313.312297 
L 356.592692 313.233592 
L 356.855321 313.201919 
L 357.380578 313.467152 
L 357.905836 313.200396 
L 358.168464 313.522633 
L 358.693721 314.390747 
L 359.218979 315.227269 
L 359.744236 316.690963 
L 360.006865 317.415571 
L 360.269493 318.480833 
L 360.794751 319.704115 
L 363.946294 330.254992 
L 365.522066 334.02686 
L 366.047324 334.82101 
L 366.572581 335.893078 
L 366.835209 336.206171 
L 367.623095 336.531817 
L 367.885724 336.757141 
L 368.148353 336.7975 
L 368.936239 336.166792 
L 370.249382 334.190123 
L 370.774639 332.963697 
L 371.037268 332.625022 
L 371.299896 332.084929 
L 371.562525 331.258411 
L 371.825154 330.93783 
L 372.087782 330.877265 
L 372.350411 330.521999 
L 372.875668 329.523956 
L 373.400926 329.374258 
L 373.926183 328.794045 
L 374.188811 328.867341 
L 374.976697 328.422386 
L 375.501955 328.005291 
L 376.289841 328.052648 
L 376.552469 328.145177 
L 376.815098 328.029356 
L 377.077727 327.643358 
L 377.602984 327.369908 
L 378.39087 326.699556 
L 378.653498 326.60618 
L 379.441384 327.052313 
L 379.966642 326.839085 
L 380.491899 325.96956 
L 381.017156 324.934163 
L 381.805042 324.47077 
L 382.330299 324.524952 
L 382.592928 324.747734 
L 382.855557 325.154581 
L 384.1687 325.568208 
L 384.956586 326.361471 
L 385.481843 326.58892 
L 385.744472 326.58986 
L 386.0071 326.869215 
L 386.532358 326.599261 
L 386.794986 326.896406 
L 387.057615 326.978606 
L 387.320244 326.893956 
L 387.582872 326.926516 
L 388.633387 327.399635 
L 389.158644 327.505597 
L 389.421273 327.741891 
L 389.94653 328.357988 
L 390.209159 328.49506 
L 391.259673 329.857255 
L 391.522302 329.887895 
L 391.784931 330.26479 
L 392.310188 331.305808 
L 392.572817 331.650613 
L 393.098074 332.760154 
L 393.88596 333.859956 
L 394.673846 335.624455 
L 395.72436 338.326765 
L 396.249618 340.540139 
L 396.512246 341.45326 
L 397.300132 346.279275 
L 398.350647 355.381592 
L 402.552705 389.614726 
L 403.340591 394.406704 
L 404.391106 398.97408 
L 405.178991 401.95348 
L 405.704249 403.249799 
L 406.229506 404.085507 
L 407.017392 404.471883 
L 407.280021 404.477603 
L 407.805278 404.129805 
L 408.067907 403.877707 
L 409.643678 400.923306 
L 410.694193 397.26898 
L 411.482079 394.047333 
L 412.795222 387.248841 
L 416.209394 367.473246 
L 417.259909 362.750923 
L 420.93671 349.512454 
L 421.199339 349.076179 
L 421.461967 348.924098 
L 421.724596 348.558027 
L 423.037739 345.184677 
L 423.300368 345.16988 
L 424.088254 344.043715 
L 424.350882 343.467104 
L 424.613511 343.205313 
L 424.87614 343.138757 
L 425.664026 342.173174 
L 426.189283 341.762057 
L 426.451912 341.160446 
L 426.71454 341.512243 
L 426.977169 341.641874 
L 427.239798 341.362751 
L 427.502426 341.56199 
L 428.552941 341.440986 
L 429.603455 342.505189 
L 430.128713 343.173753 
L 430.916599 344.484559 
L 431.441856 344.78026 
L 431.967113 345.445487 
L 432.49237 345.93717 
L 432.754999 346.230587 
L 433.280256 346.415672 
L 433.805514 346.880568 
L 435.906543 346.912068 
L 436.169171 347.231299 
L 436.694429 347.40585 
L 437.219686 347.77921 
L 437.482315 347.862298 
L 438.007572 348.463134 
L 439.583344 350.929056 
L 440.633858 352.537145 
L 442.997516 355.344523 
L 443.522773 356.081101 
L 444.048031 356.816242 
L 444.835917 357.975119 
L 445.623803 358.846279 
L 445.886431 359.264593 
L 446.936946 360.042271 
L 447.462203 360.559066 
L 447.98746 361.114849 
L 448.512718 361.862344 
L 450.08849 362.910214 
L 450.876375 363.950397 
L 451.401633 364.351299 
L 451.92689 365.069008 
L 452.977405 365.923193 
L 454.027919 367.330089 
L 454.815805 367.916943 
L 456.654206 369.78048 
L 457.179463 370.50755 
L 457.967349 371.252172 
L 459.805749 373.43531 
L 460.856264 374.471713 
L 461.381521 374.865325 
L 463.745179 376.883783 
L 464.007808 377.198743 
L 464.533065 377.46491 
L 465.058322 378.030452 
L 465.320951 378.111428 
L 468.735123 381.266783 
L 469.260381 381.866798 
L 470.573524 382.980066 
L 471.098781 383.713161 
L 472.937182 385.434693 
L 473.462439 386.206936 
L 473.725067 386.403004 
L 473.987696 386.418218 
L 474.250325 386.568286 
L 475.038211 387.496662 
L 475.826097 387.954652 
L 476.613983 388.694229 
L 477.664497 389.464525 
L 478.189754 389.804716 
L 478.452383 390.013648 
L 479.240269 390.254954 
L 480.290784 390.817007 
L 482.91707 391.996679 
L 483.442327 392.024823 
L 483.967585 392.256378 
L 484.492842 392.35995 
L 485.018099 392.574185 
L 485.543356 392.638457 
L 486.331242 393.269 
L 486.593871 393.136185 
L 487.119128 393.761153 
L 487.381757 393.76633 
L 487.907014 393.456223 
L 488.432272 393.766065 
L 489.482786 394.684331 
L 489.745415 394.70116 
L 490.533301 395.081538 
L 491.321187 395.363886 
L 492.109073 395.849875 
L 494.997988 396.678167 
L 495.523245 396.365875 
L 497.624274 396.233973 
L 498.149531 396.223665 
L 498.674789 396.38046 
L 498.937417 396.340452 
L 499.987932 396.776092 
L 500.513189 397.190638 
L 501.038446 397.562337 
L 501.563704 397.66099 
L 503.139476 398.067234 
L 503.402104 398.015296 
L 503.927361 398.25126 
L 506.028391 398.300914 
L 506.553648 398.408068 
L 507.341534 398.376097 
L 507.866791 398.55466 
L 509.179934 398.508912 
L 511.806221 398.81318 
L 512.331478 398.869865 
L 512.856735 398.878068 
L 513.90725 398.92373 
L 514.432507 399.132907 
L 515.483022 399.405251 
L 518.634566 400.218514 
L 518.897194 400.125879 
L 519.68508 400.306515 
L 519.947709 400.526735 
L 520.735595 400.244963 
L 522.311367 400.467077 
L 522.836624 400.755985 
L 523.887138 401.006103 
L 524.412396 401.176252 
L 525.200282 401.364077 
L 525.46291 401.754214 
L 525.988168 401.880488 
L 526.513425 401.913074 
L 527.038682 402.05053 
L 527.826568 402.056409 
L 528.614454 402.446665 
L 529.139711 402.714666 
L 529.664969 403.014087 
L 529.927597 402.928358 
L 530.978112 403.309331 
L 531.503369 403.404661 
L 531.765998 403.5398 
L 532.028626 403.548023 
L 532.553884 403.425476 
L 533.079141 403.722574 
L 533.867027 404.024644 
L 535.705427 405.106676 
L 536.230685 405.339422 
L 537.543828 406.487176 
L 537.806457 406.484482 
L 538.331714 406.937692 
L 538.856971 407.12085 
L 539.1196 407.155112 
L 540.170114 407.769441 
L 542.533772 408.916593 
L 543.321658 409.023068 
L 544.109544 409.288875 
L 545.947944 409.689252 
L 546.473202 409.685809 
L 547.523716 409.917595 
L 548.574231 410.388063 
L 549.624746 410.951229 
L 551.463146 412.420868 
L 552.776289 413.871809 
L 554.089432 414.916311 
L 555.139947 415.50987 
L 555.927833 415.855684 
L 557.503605 416.785928 
L 557.766233 416.847071 
L 558.291491 416.801999 
L 558.816748 416.91536 
L 559.342005 416.766819 
L 559.867263 416.47537 
L 560.39252 416.326625 
L 560.917777 415.955402 
L 561.705663 415.643635 
L 564.594578 414.084617 
L 565.119835 413.932078 
L 565.645093 413.731657 
L 566.17035 413.573069 
L 566.432979 413.333596 
L 566.958236 413.171087 
L 567.220865 413.028829 
L 567.483493 413.061309 
L 568.008751 412.852909 
L 568.796636 413.783518 
L 569.059265 413.550185 
L 569.847151 412.194854 
L 570.372408 412.354167 
L 571.160294 412.511413 
L 572.473438 412.125004 
L 572.736066 412.237796 
L 572.998695 412.150364 
L 573.261323 411.827407 
L 574.049209 411.969963 
L 575.624981 411.866873 
L 575.88761 412.001932 
L 576.412867 411.897265 
L 576.938124 411.965121 
L 577.200753 411.881329 
L 577.463382 412.165982 
L 578.251268 412.406133 
L 578.513896 412.428214 
L 579.039154 412.180957 
L 579.82704 411.87158 
L 580.614925 411.499555 
L 580.877554 411.382644 
L 581.402811 411.366462 
L 582.190697 410.910627 
L 583.241212 410.538628 
L 584.291726 410.045809 
L 584.816984 409.922505 
L 585.342241 409.56802 
L 585.867498 409.400026 
L 587.180642 408.925007 
L 587.44327 408.697557 
L 587.705899 408.632026 
L 587.968527 408.691246 
L 588.231156 408.607114 
L 588.756413 408.312665 
L 591.3827 407.871391 
L 591.645329 407.632885 
L 592.433214 407.539012 
L 593.2211 407.433844 
L 593.746358 407.452448 
L 594.008986 407.385196 
L 594.534244 407.540442 
L 595.32213 407.412347 
L 595.584758 407.451567 
L 595.847387 407.663591 
L 596.110015 407.66179 
L 596.635273 407.474031 
L 597.16053 407.505326 
L 598.211045 407.945481 
L 600.837331 408.52398 
L 601.362588 408.403002 
L 602.413103 408.591913 
L 602.93836 408.411894 
L 603.463617 408.567278 
L 603.726246 408.489195 
L 604.776761 408.731131 
L 605.302018 408.711713 
L 606.089904 408.726033 
L 606.615161 408.999237 
L 607.403047 409.086079 
L 608.190933 409.439551 
L 609.241448 409.507028 
L 610.029334 409.685973 
L 610.291962 409.758333 
L 610.817219 410.123309 
L 611.342477 410.162186 
L 612.130363 410.706925 
L 612.65562 411.117219 
L 613.180877 411.445125 
L 613.706135 411.844896 
L 614.231392 412.180327 
L 615.544535 413.18119 
L 617.120307 413.791688 
L 618.696079 413.782941 
L 619.221336 413.719604 
L 620.009222 413.70344 
L 620.534479 413.65687 
L 621.322365 413.45366 
L 622.635508 413.084451 
L 623.423394 413.182107 
L 623.686023 412.988386 
L 624.473909 412.965119 
L 624.736538 413.014571 
L 625.261795 412.971893 
L 625.787052 413.186764 
L 626.049681 413.32896 
L 626.574938 413.281963 
L 627.362824 413.490005 
L 627.625453 413.521037 
L 628.938596 414.486841 
L 629.463853 415.019841 
L 630.251739 415.833698 
L 631.039625 417.017158 
L 631.827511 417.504799 
L 632.878026 418.749413 
L 634.979055 421.61541 
L 635.766941 422.090299 
L 636.817455 422.514558 
L 639.443742 423.413781 
L 640.494256 423.3967 
L 641.282142 423.186064 
L 642.070028 423.273494 
L 643.6458 422.75176 
L 645.221572 422.857831 
L 645.4842 422.697653 
L 647.059972 422.741093 
L 647.322601 422.782781 
L 648.373116 422.470268 
L 648.635744 422.306039 
L 649.161001 422.345715 
L 650.474145 421.892483 
L 650.999402 421.541496 
L 651.787288 421.296825 
L 652.312545 420.968082 
L 653.100431 420.389036 
L 654.676203 419.252369 
L 655.464089 418.592832 
L 655.989346 418.340205 
L 656.514604 417.971068 
L 656.777232 417.831083 
L 657.565118 417.053056 
L 658.090375 416.601276 
L 658.878261 416.054825 
L 660.191405 414.91805 
L 662.029805 413.317669 
L 662.555062 412.771826 
L 663.08032 412.672395 
L 664.393463 411.870005 
L 665.181349 411.671545 
L 665.706606 411.277685 
L 666.231863 411.311469 
L 667.019749 410.879528 
L 667.545007 410.758729 
L 667.807635 410.643937 
L 668.332892 410.612434 
L 668.85815 410.420659 
L 669.383407 410.436684 
L 669.908664 410.313288 
L 670.433922 410.484703 
L 671.484436 410.089448 
L 672.797579 410.316304 
L 673.322837 410.133587 
L 674.63598 410.363483 
L 675.161237 410.099925 
L 675.423866 409.969421 
L 675.949123 410.06665 
L 676.737009 410.612902 
L 678.312781 410.482538 
L 678.838038 410.729103 
L 679.888553 410.717727 
L 680.41381 410.690305 
L 681.201696 410.990294 
L 681.464325 411.100612 
L 683.040097 410.771511 
L 684.878497 411.215776 
L 686.19164 410.935405 
L 686.454269 410.970258 
L 686.979526 411.139466 
L 688.030041 411.080914 
L 688.817927 410.929154 
L 689.343184 411.138366 
L 689.868441 411.608672 
L 690.13107 411.663559 
L 690.918956 411.182235 
L 691.444213 411.134211 
L 691.96947 411.349807 
L 693.019985 411.841575 
L 693.545242 411.670444 
L 694.0705 411.40301 
L 694.333128 411.450019 
L 694.858385 411.999781 
L 695.383643 412.515463 
L 695.646271 412.493994 
L 696.434157 412.146531 
L 697.747301 412.728213 
L 698.272558 413.144005 
L 698.797815 413.254938 
L 699.323072 413.185644 
L 699.585701 413.265629 
L 701.161473 414.406699 
L 701.424102 414.385759 
L 702.211988 414.685251 
L 702.474616 414.71014 
L 704.050388 416.163687 
L 705.100903 416.422648 
L 705.62616 416.897614 
L 706.414046 417.904827 
L 706.676674 418.007267 
L 707.201932 417.966806 
L 707.727189 418.220459 
L 708.515075 419.059621 
L 709.040332 419.495442 
L 709.56559 419.572916 
L 710.090847 419.632665 
L 711.666619 420.832228 
L 712.191876 420.903283 
L 712.979762 421.227527 
L 713.767648 421.339834 
L 714.818162 421.694379 
L 715.868677 421.471118 
L 716.656563 421.739733 
L 717.444449 421.64218 
L 717.969706 421.49739 
L 718.494963 421.32341 
L 718.757592 421.31972 
L 719.282849 421.634877 
L 720.333364 421.351054 
L 721.12125 420.808875 
L 721.646507 420.687965 
L 722.434393 420.901689 
L 722.697022 420.831519 
L 723.222279 420.289667 
L 723.747536 419.82492 
L 724.272794 419.351308 
L 724.535422 419.315499 
L 725.323308 420.220266 
L 725.848565 420.098005 
L 726.373823 420.449921 
L 727.161709 421.103494 
L 727.686966 421.302007 
L 728.212223 421.335924 
L 728.737481 421.58037 
L 729.525366 421.336025 
L 730.050624 421.562879 
L 730.313252 421.477477 
L 732.151653 421.646434 
L 732.939539 421.645912 
L 733.464796 421.673013 
L 733.727425 421.607147 
L 734.252682 421.909813 
L 734.515311 422.00889 
L 736.091083 421.80258 
L 736.61634 421.984245 
L 736.878968 421.893959 
L 737.666854 422.183629 
L 738.192112 422.208538 
L 738.717369 421.966454 
L 738.979998 421.873182 
L 740.293141 422.02607 
L 740.818398 421.998618 
L 741.081027 421.940152 
L 741.606284 422.21154 
L 742.131541 421.993367 
L 742.919427 422.033465 
L 743.444685 421.747538 
L 744.232571 422.177005 
L 745.020456 421.914594 
L 746.070971 421.197685 
L 746.596228 421.202005 
L 747.121486 421.391137 
L 747.909372 420.709014 
L 748.172 420.668385 
L 748.434629 420.430779 
L 748.697257 420.41638 
L 748.959886 420.696802 
L 749.222515 420.750241 
L 749.485143 420.380914 
L 749.747772 420.473299 
L 750.273029 421.105325 
L 750.798287 421.481713 
L 751.323544 421.018265 
L 751.848801 420.303357 
L 752.11143 420.441988 
L 752.636687 420.92768 
L 753.161944 421.243095 
L 753.94983 421.20044 
L 754.212459 421.12329 
L 755.000345 420.60525 
L 755.525602 420.697711 
L 756.313488 421.043393 
L 757.101374 420.782148 
L 757.88926 420.735535 
L 758.151889 420.829484 
L 758.414517 420.774869 
L 758.677146 420.897748 
L 758.939775 421.214792 
L 759.465032 421.359363 
L 759.990289 420.968874 
L 760.778175 420.192855 
L 761.040804 420.530766 
L 761.303432 421.166918 
L 761.566061 421.400092 
L 761.82869 421.075433 
L 762.091318 420.956124 
L 762.879204 421.439779 
L 763.404462 421.146838 
L 763.929719 421.422486 
L 764.192347 421.695818 
L 764.454976 421.767222 
L 764.717605 421.592307 
L 765.242862 422.096811 
L 765.768119 422.356595 
L 766.293377 422.382444 
L 767.343891 422.089583 
L 767.869148 422.396819 
L 768.394406 422.605802 
L 768.919663 422.852595 
L 769.182292 422.901058 
L 769.44492 422.734148 
L 769.970178 422.118127 
L 771.020692 422.898293 
L 771.545949 422.99258 
L 771.808578 423.338988 
L 772.071207 423.490031 
L 773.121721 423.359658 
L 773.909607 423.743148 
L 774.172236 423.823731 
L 774.434865 423.732229 
L 774.960122 423.90127 
L 776.010636 424.045861 
L 776.273265 424.368564 
L 776.535894 424.39982 
L 777.061151 424.13282 
L 777.32378 424.088257 
L 778.111666 424.564547 
L 778.899551 425.310269 
L 779.16218 425.232921 
L 779.687437 424.706048 
L 779.950066 424.46747 
L 780.737952 424.753718 
L 782.051095 425.081528 
L 782.313724 424.955692 
L 782.838981 424.183423 
L 783.10161 424.252784 
L 783.626867 425.291249 
L 784.677382 426.203837 
L 784.94001 426.18551 
L 785.465268 425.997791 
L 785.990525 426.304858 
L 786.515782 426.197776 
L 787.566297 426.696005 
L 788.87944 427.046106 
L 789.404697 427.490551 
L 789.929955 427.483654 
L 790.980469 427.531972 
L 791.505726 427.537195 
L 791.768355 427.376164 
L 792.030984 427.35872 
L 793.081498 428.342037 
L 793.344127 428.386563 
L 794.394641 428.074091 
L 795.182527 428.304627 
L 795.970413 428.888806 
L 796.495671 428.992872 
L 797.020928 429.004708 
L 797.546185 429.146695 
L 798.071442 428.977714 
L 798.334071 429.073117 
L 798.859328 429.502722 
L 799.384586 429.69906 
L 799.647214 429.667753 
L 799.909843 429.510368 
L 799.909843 429.510368 
" style="fill:none;stroke:#1f77b4;stroke-linecap:round;stroke-width:1.5;"/>
   </g>
   <g id="patch_3">
    <path d="M 60.48 443.000625 
L 60.48 29.215312 
" style="fill:none;stroke:#262626;stroke-linecap:square;stroke-linejoin:miter;stroke-width:1.25;"/>
   </g>
   <g id="patch_4">
    <path d="M 832.917187 443.000625 
L 832.917187 29.215312 
" style="fill:none;stroke:#262626;stroke-linecap:square;stroke-linejoin:miter;stroke-width:1.25;"/>
   </g>
   <g id="patch_5">
    <path d="M 60.48 443.000625 
L 832.917188 443.000625 
" style="fill:none;stroke:#262626;stroke-linecap:square;stroke-linejoin:miter;stroke-width:1.25;"/>
   </g>
   <g id="patch_6">
    <path d="M 60.48 29.215312 
L 832.917188 29.215312 
" style="fill:none;stroke:#262626;stroke-linecap:square;stroke-linejoin:miter;stroke-width:1.25;"/>
   </g>
   <g id="text_19">
    <!-- 2011-09-10 -->
    <defs>
     <path d="M 3.171875 21.484375 
L 3.171875 30.328125 
L 30.171875 30.328125 
L 30.171875 21.484375 
z
" id="ArialMT-2d"/>
    </defs>
    <g style="fill:#262626;" transform="translate(720.603629 53.005964)scale(0.2 -0.2)">
     <use xlink:href="#ArialMT-32"/>
     <use x="55.615234" xlink:href="#ArialMT-30"/>
     <use x="111.230469" xlink:href="#ArialMT-31"/>
     <use x="166.736328" xlink:href="#ArialMT-31"/>
     <use x="222.351562" xlink:href="#ArialMT-2d"/>
     <use x="255.652344" xlink:href="#ArialMT-30"/>
     <use x="311.267578" xlink:href="#ArialMT-39"/>
     <use x="366.882812" xlink:href="#ArialMT-2d"/>
     <use x="400.183594" xlink:href="#ArialMT-31"/>
     <use x="455.798828" xlink:href="#ArialMT-30"/>
    </g>
   </g>
   <g id="text_20">
    <!-- Supernova 2011fe Spectrum -->
    <defs>
     <path d="M 4.5 23 
L 13.421875 23.78125 
Q 14.0625 18.40625 16.375 14.96875 
Q 18.703125 11.53125 23.578125 9.40625 
Q 28.46875 7.28125 34.578125 7.28125 
Q 39.984375 7.28125 44.140625 8.890625 
Q 48.296875 10.5 50.3125 13.296875 
Q 52.34375 16.109375 52.34375 19.4375 
Q 52.34375 22.796875 50.390625 25.3125 
Q 48.4375 27.828125 43.953125 29.546875 
Q 41.0625 30.671875 31.203125 33.03125 
Q 21.34375 35.40625 17.390625 37.5 
Q 12.25 40.1875 9.734375 44.15625 
Q 7.234375 48.140625 7.234375 53.078125 
Q 7.234375 58.5 10.296875 63.203125 
Q 13.375 67.921875 19.28125 70.359375 
Q 25.203125 72.796875 32.421875 72.796875 
Q 40.375 72.796875 46.453125 70.234375 
Q 52.546875 67.671875 55.8125 62.6875 
Q 59.078125 57.71875 59.328125 51.421875 
L 50.25 50.734375 
Q 49.515625 57.515625 45.28125 60.984375 
Q 41.0625 64.453125 32.8125 64.453125 
Q 24.21875 64.453125 20.28125 61.296875 
Q 16.359375 58.15625 16.359375 53.71875 
Q 16.359375 49.859375 19.140625 47.359375 
Q 21.875 44.875 33.421875 42.265625 
Q 44.96875 39.65625 49.265625 37.703125 
Q 55.515625 34.8125 58.484375 30.390625 
Q 61.46875 25.984375 61.46875 20.21875 
Q 61.46875 14.5 58.203125 9.4375 
Q 54.9375 4.390625 48.796875 1.578125 
Q 42.671875 -1.21875 35.015625 -1.21875 
Q 25.296875 -1.21875 18.71875 1.609375 
Q 12.15625 4.4375 8.421875 10.125 
Q 4.6875 15.828125 4.5 23 
z
" id="ArialMT-53"/>
     <path d="M 6.59375 -19.875 
L 6.59375 51.859375 
L 14.59375 51.859375 
L 14.59375 45.125 
Q 17.4375 49.078125 21 51.046875 
Q 24.5625 53.03125 29.640625 53.03125 
Q 36.28125 53.03125 41.359375 49.609375 
Q 46.4375 46.1875 49.015625 39.953125 
Q 51.609375 33.734375 51.609375 26.3125 
Q 51.609375 18.359375 48.75 11.984375 
Q 45.90625 5.609375 40.453125 2.21875 
Q 35.015625 -1.171875 29 -1.171875 
Q 24.609375 -1.171875 21.109375 0.6875 
Q 17.625 2.546875 15.375 5.375 
L 15.375 -19.875 
z
M 14.546875 25.640625 
Q 14.546875 15.625 18.59375 10.84375 
Q 22.65625 6.0625 28.421875 6.0625 
Q 34.28125 6.0625 38.453125 11.015625 
Q 42.625 15.96875 42.625 26.375 
Q 42.625 36.28125 38.546875 41.203125 
Q 34.46875 46.140625 28.8125 46.140625 
Q 23.1875 46.140625 18.859375 40.890625 
Q 14.546875 35.640625 14.546875 25.640625 
z
" id="ArialMT-70"/>
     <path d="M 3.328125 25.921875 
Q 3.328125 40.328125 11.328125 47.265625 
Q 18.015625 53.03125 27.640625 53.03125 
Q 38.328125 53.03125 45.109375 46.015625 
Q 51.90625 39.015625 51.90625 26.65625 
Q 51.90625 16.65625 48.90625 10.90625 
Q 45.90625 5.171875 40.15625 2 
Q 34.421875 -1.171875 27.640625 -1.171875 
Q 16.75 -1.171875 10.03125 5.8125 
Q 3.328125 12.796875 3.328125 25.921875 
z
M 12.359375 25.921875 
Q 12.359375 15.96875 16.703125 11.015625 
Q 21.046875 6.0625 27.640625 6.0625 
Q 34.1875 6.0625 38.53125 11.03125 
Q 42.875 16.015625 42.875 26.21875 
Q 42.875 35.84375 38.5 40.796875 
Q 34.125 45.75 27.640625 45.75 
Q 21.046875 45.75 16.703125 40.8125 
Q 12.359375 35.890625 12.359375 25.921875 
z
" id="ArialMT-6f"/>
     <path d="M 8.6875 0 
L 8.6875 45.015625 
L 0.921875 45.015625 
L 0.921875 51.859375 
L 8.6875 51.859375 
L 8.6875 57.375 
Q 8.6875 62.59375 9.625 65.140625 
Q 10.890625 68.5625 14.078125 70.671875 
Q 17.28125 72.796875 23.046875 72.796875 
Q 26.765625 72.796875 31.25 71.921875 
L 29.9375 64.265625 
Q 27.203125 64.75 24.75 64.75 
Q 20.75 64.75 19.09375 63.03125 
Q 17.4375 61.328125 17.4375 56.640625 
L 17.4375 51.859375 
L 27.546875 51.859375 
L 27.546875 45.015625 
L 17.4375 45.015625 
L 17.4375 0 
z
" id="ArialMT-66"/>
    </defs>
    <g style="fill:#262626;" transform="translate(306.685781 23.215312)scale(0.22 -0.22)">
     <use xlink:href="#ArialMT-53"/>
     <use x="66.699219" xlink:href="#ArialMT-75"/>
     <use x="122.314453" xlink:href="#ArialMT-70"/>
     <use x="177.929688" xlink:href="#ArialMT-65"/>
     <use x="233.544922" xlink:href="#ArialMT-72"/>
     <use x="266.845703" xlink:href="#ArialMT-6e"/>
     <use x="322.460938" xlink:href="#ArialMT-6f"/>
     <use x="378.076172" xlink:href="#ArialMT-76"/>
     <use x="428.076172" xlink:href="#ArialMT-61"/>
     <use x="483.691406" xlink:href="#ArialMT-20"/>
     <use x="511.474609" xlink:href="#ArialMT-32"/>
     <use x="567.089844" xlink:href="#ArialMT-30"/>
     <use x="622.705078" xlink:href="#ArialMT-31"/>
     <use x="678.210938" xlink:href="#ArialMT-31"/>
     <use x="733.826172" xlink:href="#ArialMT-66"/>
     <use x="761.609375" xlink:href="#ArialMT-65"/>
     <use x="817.224609" xlink:href="#ArialMT-20"/>
     <use x="845.007812" xlink:href="#ArialMT-53"/>
     <use x="911.707031" xlink:href="#ArialMT-70"/>
     <use x="967.322266" xlink:href="#ArialMT-65"/>
     <use x="1022.9375" xlink:href="#ArialMT-63"/>
     <use x="1072.9375" xlink:href="#ArialMT-74"/>
     <use x="1100.720703" xlink:href="#ArialMT-72"/>
     <use x="1134.021484" xlink:href="#ArialMT-75"/>
     <use x="1189.636719" xlink:href="#ArialMT-6d"/>
    </g>
   </g>
  </g>
 </g>
 <defs>
  <clipPath id="p72081c823c">
   <rect height="413.785312" width="772.437187" x="60.48" y="29.215312"/>
  </clipPath>
 </defs>
</svg>
