<?xml version="1.0" encoding="utf-8" standalone="no"?>
<!DOCTYPE svg PUBLIC "-//W3C//DTD SVG 1.1//EN"
  "http://www.w3.org/Graphics/SVG/1.1/DTD/svg11.dtd">
<!-- Created with matplotlib (https://matplotlib.org/) -->
<svg height="392.931362pt" version="1.1" viewBox="0 0 723.985913 392.931362" width="723.985913pt" xmlns="http://www.w3.org/2000/svg" xmlns:xlink="http://www.w3.org/1999/xlink">
 <defs>
  <style type="text/css">
*{stroke-linecap:butt;stroke-linejoin:round;}
  </style>
 </defs>
 <g id="figure_1">
  <g id="patch_1">
   <path d="M 0 392.931362 
L 723.985913 392.931362 
L 723.985913 0 
L 0 0 
z
" style="fill:#ffffff;"/>
  </g>
  <g id="axes_1">
   <g id="patch_2">
    <path d="M 47.185913 369.527925 
L 716.785912 369.527925 
L 716.785912 43.367925 
L 47.185913 43.367925 
z
" style="fill:#ffffff;"/>
   </g>
   <g id="matplotlib.axis_1">
    <g id="xtick_1">
     <g id="line2d_1"/>
     <g id="text_1">
      <!-- 2001 -->
      <defs>
       <path d="M 50.34375 8.453125 
L 50.34375 0 
L 3.03125 0 
Q 2.9375 3.171875 4.046875 6.109375 
Q 5.859375 10.9375 9.828125 15.625 
Q 13.8125 20.3125 21.34375 26.46875 
Q 33.015625 36.03125 37.109375 41.625 
Q 41.21875 47.21875 41.21875 52.203125 
Q 41.21875 57.421875 37.46875 61 
Q 33.734375 64.59375 27.734375 64.59375 
Q 21.390625 64.59375 17.578125 60.78125 
Q 13.765625 56.984375 13.71875 50.25 
L 4.6875 51.171875 
Q 5.609375 61.28125 11.65625 66.578125 
Q 17.71875 71.875 27.9375 71.875 
Q 38.234375 71.875 44.234375 66.15625 
Q 50.25 60.453125 50.25 52 
Q 50.25 47.703125 48.484375 43.546875 
Q 46.734375 39.40625 42.65625 34.8125 
Q 38.578125 30.21875 29.109375 22.21875 
Q 21.1875 15.578125 18.9375 13.203125 
Q 16.703125 10.84375 15.234375 8.453125 
z
" id="ArialMT-50"/>
       <path d="M 4.15625 35.296875 
Q 4.15625 48 6.765625 55.734375 
Q 9.375 63.484375 14.515625 67.671875 
Q 19.671875 71.875 27.484375 71.875 
Q 33.25 71.875 37.59375 69.546875 
Q 41.9375 67.234375 44.765625 62.859375 
Q 47.609375 58.5 49.21875 52.21875 
Q 50.828125 45.953125 50.828125 35.296875 
Q 50.828125 22.703125 48.234375 14.96875 
Q 45.65625 7.234375 40.5 3 
Q 35.359375 -1.21875 27.484375 -1.21875 
Q 17.140625 -1.21875 11.234375 6.203125 
Q 4.15625 15.140625 4.15625 35.296875 
z
M 13.1875 35.296875 
Q 13.1875 17.671875 17.3125 11.828125 
Q 21.4375 6 27.484375 6 
Q 33.546875 6 37.671875 11.859375 
Q 41.796875 17.71875 41.796875 35.296875 
Q 41.796875 52.984375 37.671875 58.78125 
Q 33.546875 64.59375 27.390625 64.59375 
Q 21.34375 64.59375 17.71875 59.46875 
Q 13.1875 52.9375 13.1875 35.296875 
z
" id="ArialMT-48"/>
       <path d="M 37.25 0 
L 28.46875 0 
L 28.46875 56 
Q 25.296875 52.984375 20.140625 49.953125 
Q 14.984375 46.921875 10.890625 45.40625 
L 10.890625 53.90625 
Q 18.265625 57.375 23.78125 62.296875 
Q 29.296875 67.234375 31.59375 71.875 
L 37.25 71.875 
z
" id="ArialMT-49"/>
      </defs>
      <g style="fill:#262626;" transform="translate(54.277356 382.948862)scale(0.14 -0.14)">
       <use xlink:href="#ArialMT-50"/>
       <use x="55.615234" xlink:href="#ArialMT-48"/>
       <use x="111.230469" xlink:href="#ArialMT-48"/>
       <use x="166.845703" xlink:href="#ArialMT-49"/>
      </g>
     </g>
    </g>
    <g id="xtick_2">
     <g id="line2d_2"/>
     <g id="text_2">
      <!-- 2003 -->
      <defs>
       <path d="M 4.203125 18.890625 
L 12.984375 20.0625 
Q 14.5 12.59375 18.140625 9.296875 
Q 21.78125 6 27 6 
Q 33.203125 6 37.46875 10.296875 
Q 41.75 14.59375 41.75 20.953125 
Q 41.75 27 37.796875 30.921875 
Q 33.84375 34.859375 27.734375 34.859375 
Q 25.25 34.859375 21.53125 33.890625 
L 22.515625 41.609375 
Q 23.390625 41.5 23.921875 41.5 
Q 29.546875 41.5 34.03125 44.421875 
Q 38.53125 47.359375 38.53125 53.46875 
Q 38.53125 58.296875 35.25 61.46875 
Q 31.984375 64.65625 26.8125 64.65625 
Q 21.6875 64.65625 18.265625 61.421875 
Q 14.84375 58.203125 13.875 51.765625 
L 5.078125 53.328125 
Q 6.6875 62.15625 12.390625 67.015625 
Q 18.109375 71.875 26.609375 71.875 
Q 32.46875 71.875 37.390625 69.359375 
Q 42.328125 66.84375 44.9375 62.5 
Q 47.5625 58.15625 47.5625 53.265625 
Q 47.5625 48.640625 45.0625 44.828125 
Q 42.578125 41.015625 37.703125 38.765625 
Q 44.046875 37.3125 47.5625 32.6875 
Q 51.078125 28.078125 51.078125 21.140625 
Q 51.078125 11.765625 44.234375 5.25 
Q 37.40625 -1.265625 26.953125 -1.265625 
Q 17.53125 -1.265625 11.296875 4.34375 
Q 5.078125 9.96875 4.203125 18.890625 
z
" id="ArialMT-51"/>
      </defs>
      <g style="fill:#262626;" transform="translate(143.642874 382.948862)scale(0.14 -0.14)">
       <use xlink:href="#ArialMT-50"/>
       <use x="55.615234" xlink:href="#ArialMT-48"/>
       <use x="111.230469" xlink:href="#ArialMT-48"/>
       <use x="166.845703" xlink:href="#ArialMT-51"/>
      </g>
     </g>
    </g>
    <g id="xtick_3">
     <g id="line2d_3"/>
     <g id="text_3">
      <!-- 2005 -->
      <defs>
       <path d="M 4.15625 18.75 
L 13.375 19.53125 
Q 14.40625 12.796875 18.140625 9.390625 
Q 21.875 6 27.15625 6 
Q 33.5 6 37.890625 10.78125 
Q 42.28125 15.578125 42.28125 23.484375 
Q 42.28125 31 38.0625 35.34375 
Q 33.84375 39.703125 27 39.703125 
Q 22.75 39.703125 19.328125 37.765625 
Q 15.921875 35.84375 13.96875 32.765625 
L 5.71875 33.84375 
L 12.640625 70.609375 
L 48.25 70.609375 
L 48.25 62.203125 
L 19.671875 62.203125 
L 15.828125 42.96875 
Q 22.265625 47.46875 29.34375 47.46875 
Q 38.71875 47.46875 45.15625 40.96875 
Q 51.609375 34.46875 51.609375 24.265625 
Q 51.609375 14.546875 45.953125 7.46875 
Q 39.0625 -1.21875 27.15625 -1.21875 
Q 17.390625 -1.21875 11.203125 4.25 
Q 5.03125 9.71875 4.15625 18.75 
z
" id="ArialMT-53"/>
      </defs>
      <g style="fill:#262626;" transform="translate(232.580805 382.948862)scale(0.14 -0.14)">
       <use xlink:href="#ArialMT-50"/>
       <use x="55.615234" xlink:href="#ArialMT-48"/>
       <use x="111.230469" xlink:href="#ArialMT-48"/>
       <use x="166.845703" xlink:href="#ArialMT-53"/>
      </g>
     </g>
    </g>
    <g id="xtick_4">
     <g id="line2d_4"/>
     <g id="text_4">
      <!-- 2007 -->
      <defs>
       <path d="M 4.734375 62.203125 
L 4.734375 70.65625 
L 51.078125 70.65625 
L 51.078125 63.8125 
Q 44.234375 56.546875 37.515625 44.484375 
Q 30.8125 32.421875 27.15625 19.671875 
Q 24.515625 10.6875 23.78125 0 
L 14.75 0 
Q 14.890625 8.453125 18.0625 20.40625 
Q 21.234375 32.375 27.171875 43.484375 
Q 33.109375 54.59375 39.796875 62.203125 
z
" id="ArialMT-55"/>
      </defs>
      <g style="fill:#262626;" transform="translate(322.160115 382.948862)scale(0.14 -0.14)">
       <use xlink:href="#ArialMT-50"/>
       <use x="55.615234" xlink:href="#ArialMT-48"/>
       <use x="111.230469" xlink:href="#ArialMT-48"/>
       <use x="166.845703" xlink:href="#ArialMT-55"/>
      </g>
     </g>
    </g>
    <g id="xtick_5">
     <g id="line2d_5"/>
     <g id="text_5">
      <!-- 2009 -->
      <defs>
       <path d="M 5.46875 16.546875 
L 13.921875 17.328125 
Q 14.984375 11.375 18.015625 8.6875 
Q 21.046875 6 25.78125 6 
Q 29.828125 6 32.875 7.859375 
Q 35.9375 9.71875 37.890625 12.8125 
Q 39.84375 15.921875 41.15625 21.1875 
Q 42.484375 26.46875 42.484375 31.9375 
Q 42.484375 32.515625 42.4375 33.6875 
Q 39.796875 29.5 35.234375 26.875 
Q 30.671875 24.265625 25.34375 24.265625 
Q 16.453125 24.265625 10.296875 30.703125 
Q 4.15625 37.15625 4.15625 47.703125 
Q 4.15625 58.59375 10.578125 65.234375 
Q 17 71.875 26.65625 71.875 
Q 33.640625 71.875 39.421875 68.109375 
Q 45.21875 64.359375 48.21875 57.390625 
Q 51.21875 50.4375 51.21875 37.25 
Q 51.21875 23.53125 48.234375 15.40625 
Q 45.265625 7.28125 39.375 3.03125 
Q 33.5 -1.21875 25.59375 -1.21875 
Q 17.1875 -1.21875 11.859375 3.4375 
Q 6.546875 8.109375 5.46875 16.546875 
z
M 41.453125 48.140625 
Q 41.453125 55.71875 37.421875 60.15625 
Q 33.40625 64.59375 27.734375 64.59375 
Q 21.875 64.59375 17.53125 59.8125 
Q 13.1875 55.03125 13.1875 47.40625 
Q 13.1875 40.578125 17.3125 36.296875 
Q 21.4375 32.03125 27.484375 32.03125 
Q 33.59375 32.03125 37.515625 36.296875 
Q 41.453125 40.578125 41.453125 48.140625 
z
" id="ArialMT-57"/>
      </defs>
      <g style="fill:#262626;" transform="translate(411.311839 382.948862)scale(0.14 -0.14)">
       <use xlink:href="#ArialMT-50"/>
       <use x="55.615234" xlink:href="#ArialMT-48"/>
       <use x="111.230469" xlink:href="#ArialMT-48"/>
       <use x="166.845703" xlink:href="#ArialMT-57"/>
      </g>
     </g>
    </g>
    <g id="xtick_6">
     <g id="line2d_6"/>
     <g id="text_6">
      <!-- 2011 -->
      <g style="fill:#262626;" transform="translate(500.76602 382.948862)scale(0.14 -0.14)">
       <use xlink:href="#ArialMT-50"/>
       <use x="55.615234" xlink:href="#ArialMT-48"/>
       <use x="111.230469" xlink:href="#ArialMT-49"/>
       <use x="159.470703" xlink:href="#ArialMT-49"/>
      </g>
     </g>
    </g>
    <g id="xtick_7">
     <g id="line2d_7"/>
     <g id="text_7">
      <!-- 2013 -->
      <g style="fill:#262626;" transform="translate(589.829081 382.948862)scale(0.14 -0.14)">
       <use xlink:href="#ArialMT-50"/>
       <use x="55.615234" xlink:href="#ArialMT-48"/>
       <use x="111.230469" xlink:href="#ArialMT-49"/>
       <use x="166.845703" xlink:href="#ArialMT-51"/>
      </g>
     </g>
    </g>
    <g id="xtick_8">
     <g id="line2d_8"/>
     <g id="text_8">
      <!-- 2015 -->
      <g style="fill:#262626;" transform="translate(678.980805 382.948862)scale(0.14 -0.14)">
       <use xlink:href="#ArialMT-50"/>
       <use x="55.615234" xlink:href="#ArialMT-48"/>
       <use x="111.230469" xlink:href="#ArialMT-49"/>
       <use x="166.845703" xlink:href="#ArialMT-53"/>
      </g>
     </g>
    </g>
   </g>
   <g id="matplotlib.axis_2">
    <g id="ytick_1">
     <g id="line2d_9">
      <path clip-path="url(#p3a5058131b)" d="M 47.185913 333.998594 
L 716.785912 333.998594 
" style="fill:none;stroke:#cccccc;stroke-linecap:round;stroke-width:0.8;"/>
     </g>
     <g id="line2d_10"/>
     <g id="text_9">
      <!-- 50 -->
      <g style="fill:#262626;" transform="translate(32.564037 337.5775)scale(0.1 -0.1)">
       <use xlink:href="#ArialMT-53"/>
       <use x="55.615234" xlink:href="#ArialMT-48"/>
      </g>
     </g>
    </g>
    <g id="ytick_2">
     <g id="line2d_11">
      <path clip-path="url(#p3a5058131b)" d="M 47.185913 297.027385 
L 716.785912 297.027385 
" style="fill:none;stroke:#cccccc;stroke-linecap:round;stroke-width:0.8;"/>
     </g>
     <g id="line2d_12"/>
     <g id="text_10">
      <!-- 100 -->
      <g style="fill:#262626;" transform="translate(27.0031 300.606292)scale(0.1 -0.1)">
       <use xlink:href="#ArialMT-49"/>
       <use x="55.615234" xlink:href="#ArialMT-48"/>
       <use x="111.230469" xlink:href="#ArialMT-48"/>
      </g>
     </g>
    </g>
    <g id="ytick_3">
     <g id="line2d_13">
      <path clip-path="url(#p3a5058131b)" d="M 47.185913 260.056177 
L 716.785912 260.056177 
" style="fill:none;stroke:#cccccc;stroke-linecap:round;stroke-width:0.8;"/>
     </g>
     <g id="line2d_14"/>
     <g id="text_11">
      <!-- 150 -->
      <g style="fill:#262626;" transform="translate(27.0031 263.635083)scale(0.1 -0.1)">
       <use xlink:href="#ArialMT-49"/>
       <use x="55.615234" xlink:href="#ArialMT-53"/>
       <use x="111.230469" xlink:href="#ArialMT-48"/>
      </g>
     </g>
    </g>
    <g id="ytick_4">
     <g id="line2d_15">
      <path clip-path="url(#p3a5058131b)" d="M 47.185913 223.084969 
L 716.785912 223.084969 
" style="fill:none;stroke:#cccccc;stroke-linecap:round;stroke-width:0.8;"/>
     </g>
     <g id="line2d_16"/>
     <g id="text_12">
      <!-- 200 -->
      <g style="fill:#262626;" transform="translate(27.0031 226.663875)scale(0.1 -0.1)">
       <use xlink:href="#ArialMT-50"/>
       <use x="55.615234" xlink:href="#ArialMT-48"/>
       <use x="111.230469" xlink:href="#ArialMT-48"/>
      </g>
     </g>
    </g>
    <g id="ytick_5">
     <g id="line2d_17">
      <path clip-path="url(#p3a5058131b)" d="M 47.185913 186.11376 
L 716.785912 186.11376 
" style="fill:none;stroke:#cccccc;stroke-linecap:round;stroke-width:0.8;"/>
     </g>
     <g id="line2d_18"/>
     <g id="text_13">
      <!-- 250 -->
      <g style="fill:#262626;" transform="translate(27.0031 189.692667)scale(0.1 -0.1)">
       <use xlink:href="#ArialMT-50"/>
       <use x="55.615234" xlink:href="#ArialMT-53"/>
       <use x="111.230469" xlink:href="#ArialMT-48"/>
      </g>
     </g>
    </g>
    <g id="ytick_6">
     <g id="line2d_19">
      <path clip-path="url(#p3a5058131b)" d="M 47.185913 149.142552 
L 716.785912 149.142552 
" style="fill:none;stroke:#cccccc;stroke-linecap:round;stroke-width:0.8;"/>
     </g>
     <g id="line2d_20"/>
     <g id="text_14">
      <!-- 300 -->
      <g style="fill:#262626;" transform="translate(27.0031 152.721458)scale(0.1 -0.1)">
       <use xlink:href="#ArialMT-51"/>
       <use x="55.615234" xlink:href="#ArialMT-48"/>
       <use x="111.230469" xlink:href="#ArialMT-48"/>
      </g>
     </g>
    </g>
    <g id="ytick_7">
     <g id="line2d_21">
      <path clip-path="url(#p3a5058131b)" d="M 47.185913 112.171344 
L 716.785912 112.171344 
" style="fill:none;stroke:#cccccc;stroke-linecap:round;stroke-width:0.8;"/>
     </g>
     <g id="line2d_22"/>
     <g id="text_15">
      <!-- 350 -->
      <g style="fill:#262626;" transform="translate(27.0031 115.75025)scale(0.1 -0.1)">
       <use xlink:href="#ArialMT-51"/>
       <use x="55.615234" xlink:href="#ArialMT-53"/>
       <use x="111.230469" xlink:href="#ArialMT-48"/>
      </g>
     </g>
    </g>
    <g id="ytick_8">
     <g id="line2d_23">
      <path clip-path="url(#p3a5058131b)" d="M 47.185913 75.200135 
L 716.785912 75.200135 
" style="fill:none;stroke:#cccccc;stroke-linecap:round;stroke-width:0.8;"/>
     </g>
     <g id="line2d_24"/>
     <g id="text_16">
      <!-- 400 -->
      <defs>
       <path d="M 32.328125 0 
L 32.328125 17.140625 
L 1.265625 17.140625 
L 1.265625 25.203125 
L 33.9375 71.578125 
L 41.109375 71.578125 
L 41.109375 25.203125 
L 50.78125 25.203125 
L 50.78125 17.140625 
L 41.109375 17.140625 
L 41.109375 0 
z
M 32.328125 25.203125 
L 32.328125 57.46875 
L 9.90625 25.203125 
z
" id="ArialMT-52"/>
      </defs>
      <g style="fill:#262626;" transform="translate(27.0031 78.779042)scale(0.1 -0.1)">
       <use xlink:href="#ArialMT-52"/>
       <use x="55.615234" xlink:href="#ArialMT-48"/>
       <use x="111.230469" xlink:href="#ArialMT-48"/>
      </g>
     </g>
    </g>
    <g id="text_17">
     <!-- Crashes / Week -->
     <defs>
      <path d="M 58.796875 25.09375 
L 68.265625 22.703125 
Q 65.28125 11.03125 57.546875 4.90625 
Q 49.8125 -1.21875 38.625 -1.21875 
Q 27.046875 -1.21875 19.796875 3.484375 
Q 12.546875 8.203125 8.765625 17.140625 
Q 4.984375 26.078125 4.984375 36.328125 
Q 4.984375 47.515625 9.25 55.828125 
Q 13.53125 64.15625 21.40625 68.46875 
Q 29.296875 72.796875 38.765625 72.796875 
Q 49.515625 72.796875 56.828125 67.328125 
Q 64.15625 61.859375 67.046875 51.953125 
L 57.71875 49.75 
Q 55.21875 57.5625 50.484375 61.125 
Q 45.75 64.703125 38.578125 64.703125 
Q 30.328125 64.703125 24.78125 60.734375 
Q 19.234375 56.78125 16.984375 50.109375 
Q 14.75 43.453125 14.75 36.375 
Q 14.75 27.25 17.40625 20.4375 
Q 20.0625 13.625 25.671875 10.25 
Q 31.296875 6.890625 37.84375 6.890625 
Q 45.796875 6.890625 51.3125 11.46875 
Q 56.84375 16.0625 58.796875 25.09375 
z
" id="ArialMT-67"/>
      <path d="M 6.5 0 
L 6.5 51.859375 
L 14.40625 51.859375 
L 14.40625 44 
Q 17.4375 49.515625 20 51.265625 
Q 22.5625 53.03125 25.640625 53.03125 
Q 30.078125 53.03125 34.671875 50.203125 
L 31.640625 42.046875 
Q 28.421875 43.953125 25.203125 43.953125 
Q 22.3125 43.953125 20.015625 42.21875 
Q 17.71875 40.484375 16.75 37.40625 
Q 15.28125 32.71875 15.28125 27.15625 
L 15.28125 0 
z
" id="ArialMT-114"/>
      <path d="M 40.4375 6.390625 
Q 35.546875 2.25 31.03125 0.53125 
Q 26.515625 -1.171875 21.34375 -1.171875 
Q 12.796875 -1.171875 8.203125 3 
Q 3.609375 7.171875 3.609375 13.671875 
Q 3.609375 17.484375 5.34375 20.625 
Q 7.078125 23.78125 9.890625 25.6875 
Q 12.703125 27.59375 16.21875 28.5625 
Q 18.796875 29.25 24.03125 29.890625 
Q 34.671875 31.15625 39.703125 32.90625 
Q 39.75 34.71875 39.75 35.203125 
Q 39.75 40.578125 37.25 42.78125 
Q 33.890625 45.75 27.25 45.75 
Q 21.046875 45.75 18.09375 43.578125 
Q 15.140625 41.40625 13.71875 35.890625 
L 5.125 37.0625 
Q 6.296875 42.578125 8.984375 45.96875 
Q 11.671875 49.359375 16.75 51.1875 
Q 21.828125 53.03125 28.515625 53.03125 
Q 35.15625 53.03125 39.296875 51.46875 
Q 43.453125 49.90625 45.40625 47.53125 
Q 47.359375 45.171875 48.140625 41.546875 
Q 48.578125 39.3125 48.578125 33.453125 
L 48.578125 21.734375 
Q 48.578125 9.46875 49.140625 6.21875 
Q 49.703125 2.984375 51.375 0 
L 42.1875 0 
Q 40.828125 2.734375 40.4375 6.390625 
z
M 39.703125 26.03125 
Q 34.90625 24.078125 25.34375 22.703125 
Q 19.921875 21.921875 17.671875 20.9375 
Q 15.4375 19.96875 14.203125 18.09375 
Q 12.984375 16.21875 12.984375 13.921875 
Q 12.984375 10.40625 15.640625 8.0625 
Q 18.3125 5.71875 23.4375 5.71875 
Q 28.515625 5.71875 32.46875 7.9375 
Q 36.421875 10.15625 38.28125 14.015625 
Q 39.703125 17 39.703125 22.796875 
z
" id="ArialMT-97"/>
      <path d="M 3.078125 15.484375 
L 11.765625 16.84375 
Q 12.5 11.625 15.84375 8.84375 
Q 19.1875 6.0625 25.203125 6.0625 
Q 31.25 6.0625 34.171875 8.515625 
Q 37.109375 10.984375 37.109375 14.3125 
Q 37.109375 17.28125 34.515625 19 
Q 32.71875 20.171875 25.53125 21.96875 
Q 15.875 24.421875 12.140625 26.203125 
Q 8.40625 27.984375 6.46875 31.125 
Q 4.546875 34.28125 4.546875 38.09375 
Q 4.546875 41.546875 6.125 44.5 
Q 7.71875 47.46875 10.453125 49.421875 
Q 12.5 50.921875 16.03125 51.96875 
Q 19.578125 53.03125 23.640625 53.03125 
Q 29.734375 53.03125 34.34375 51.265625 
Q 38.96875 49.515625 41.15625 46.5 
Q 43.359375 43.5 44.1875 38.484375 
L 35.59375 37.3125 
Q 35.015625 41.3125 32.203125 43.546875 
Q 29.390625 45.796875 24.265625 45.796875 
Q 18.21875 45.796875 15.625 43.796875 
Q 13.03125 41.796875 13.03125 39.109375 
Q 13.03125 37.40625 14.109375 36.03125 
Q 15.1875 34.625 17.484375 33.6875 
Q 18.796875 33.203125 25.25 31.453125 
Q 34.578125 28.953125 38.25 27.359375 
Q 41.9375 25.78125 44.03125 22.75 
Q 46.140625 19.734375 46.140625 15.234375 
Q 46.140625 10.84375 43.578125 6.953125 
Q 41.015625 3.078125 36.171875 0.953125 
Q 31.34375 -1.171875 25.25 -1.171875 
Q 15.140625 -1.171875 9.84375 3.03125 
Q 4.546875 7.234375 3.078125 15.484375 
z
" id="ArialMT-115"/>
      <path d="M 6.59375 0 
L 6.59375 71.578125 
L 15.375 71.578125 
L 15.375 45.90625 
Q 21.53125 53.03125 30.90625 53.03125 
Q 36.671875 53.03125 40.921875 50.75 
Q 45.171875 48.484375 47 44.484375 
Q 48.828125 40.484375 48.828125 32.859375 
L 48.828125 0 
L 40.046875 0 
L 40.046875 32.859375 
Q 40.046875 39.453125 37.1875 42.453125 
Q 34.328125 45.453125 29.109375 45.453125 
Q 25.203125 45.453125 21.75 43.421875 
Q 18.3125 41.40625 16.84375 37.9375 
Q 15.375 34.46875 15.375 28.375 
L 15.375 0 
z
" id="ArialMT-104"/>
      <path d="M 42.09375 16.703125 
L 51.171875 15.578125 
Q 49.03125 7.625 43.21875 3.21875 
Q 37.40625 -1.171875 28.375 -1.171875 
Q 17 -1.171875 10.328125 5.828125 
Q 3.65625 12.84375 3.65625 25.484375 
Q 3.65625 38.578125 10.390625 45.796875 
Q 17.140625 53.03125 27.875 53.03125 
Q 38.28125 53.03125 44.875 45.953125 
Q 51.46875 38.875 51.46875 26.03125 
Q 51.46875 25.25 51.421875 23.6875 
L 12.75 23.6875 
Q 13.234375 15.140625 17.578125 10.59375 
Q 21.921875 6.0625 28.421875 6.0625 
Q 33.25 6.0625 36.671875 8.59375 
Q 40.09375 11.140625 42.09375 16.703125 
z
M 13.234375 30.90625 
L 42.1875 30.90625 
Q 41.609375 37.453125 38.875 40.71875 
Q 34.671875 45.796875 27.984375 45.796875 
Q 21.921875 45.796875 17.796875 41.75 
Q 13.671875 37.703125 13.234375 30.90625 
z
" id="ArialMT-101"/>
      <path id="ArialMT-32"/>
      <path d="M 0 -1.21875 
L 20.75 72.796875 
L 27.78125 72.796875 
L 7.078125 -1.21875 
z
" id="ArialMT-47"/>
      <path d="M 20.21875 0 
L 1.21875 71.578125 
L 10.9375 71.578125 
L 21.828125 24.65625 
Q 23.578125 17.28125 24.859375 10.015625 
Q 27.59375 21.484375 28.078125 23.25 
L 41.703125 71.578125 
L 53.125 71.578125 
L 63.375 35.359375 
Q 67.234375 21.875 68.953125 10.015625 
Q 70.3125 16.796875 72.515625 25.59375 
L 83.734375 71.578125 
L 93.265625 71.578125 
L 73.640625 0 
L 64.5 0 
L 49.421875 54.546875 
Q 47.515625 61.375 47.171875 62.9375 
Q 46.046875 58.015625 45.0625 54.546875 
L 29.890625 0 
z
" id="ArialMT-87"/>
      <path d="M 6.640625 0 
L 6.640625 71.578125 
L 15.4375 71.578125 
L 15.4375 30.765625 
L 36.234375 51.859375 
L 47.609375 51.859375 
L 27.78125 32.625 
L 49.609375 0 
L 38.765625 0 
L 21.625 26.515625 
L 15.4375 20.5625 
L 15.4375 0 
z
" id="ArialMT-107"/>
     </defs>
     <g style="fill:#262626;" transform="translate(19.5687 267.752775)rotate(-90)scale(0.1728 -0.1728)">
      <use xlink:href="#ArialMT-67"/>
      <use x="72.216797" xlink:href="#ArialMT-114"/>
      <use x="105.517578" xlink:href="#ArialMT-97"/>
      <use x="161.132812" xlink:href="#ArialMT-115"/>
      <use x="211.132812" xlink:href="#ArialMT-104"/>
      <use x="266.748047" xlink:href="#ArialMT-101"/>
      <use x="322.363281" xlink:href="#ArialMT-115"/>
      <use x="372.363281" xlink:href="#ArialMT-32"/>
      <use x="400.146484" xlink:href="#ArialMT-47"/>
      <use x="427.929688" xlink:href="#ArialMT-32"/>
      <use x="455.712891" xlink:href="#ArialMT-87"/>
      <use x="548.347656" xlink:href="#ArialMT-101"/>
      <use x="603.962891" xlink:href="#ArialMT-101"/>
      <use x="659.578125" xlink:href="#ArialMT-107"/>
     </g>
    </g>
   </g>
   <g id="patch_3">
    <path clip-path="url(#p3a5058131b)" d="M 92.51005 369.527925 
L 92.51005 43.367925 
L 136.979016 43.367925 
L 136.979016 369.527925 
z
" style="opacity:0.05;stroke:#000000;stroke-linejoin:miter;"/>
   </g>
   <g id="patch_4">
    <path clip-path="url(#p3a5058131b)" d="M 181.447981 369.527925 
L 181.447981 43.367925 
L 225.916947 43.367925 
L 225.916947 369.527925 
z
" style="opacity:0.05;stroke:#000000;stroke-linejoin:miter;"/>
   </g>
   <g id="patch_5">
    <path clip-path="url(#p3a5058131b)" d="M 270.385912 369.527925 
L 270.385912 43.367925 
L 314.854878 43.367925 
L 314.854878 369.527925 
z
" style="opacity:0.05;stroke:#000000;stroke-linejoin:miter;"/>
   </g>
   <g id="patch_6">
    <path clip-path="url(#p3a5058131b)" d="M 360.179016 369.527925 
L 360.179016 43.367925 
L 404.647981 43.367925 
L 404.647981 369.527925 
z
" style="opacity:0.05;stroke:#000000;stroke-linejoin:miter;"/>
   </g>
   <g id="patch_7">
    <path clip-path="url(#p3a5058131b)" d="M 449.116947 369.527925 
L 449.116947 43.367925 
L 493.585912 43.367925 
L 493.585912 369.527925 
z
" style="opacity:0.05;stroke:#000000;stroke-linejoin:miter;"/>
   </g>
   <g id="patch_8">
    <path clip-path="url(#p3a5058131b)" d="M 538.054878 369.527925 
L 538.054878 43.367925 
L 583.379016 43.367925 
L 583.379016 369.527925 
z
" style="opacity:0.05;stroke:#000000;stroke-linejoin:miter;"/>
   </g>
   <g id="patch_9">
    <path clip-path="url(#p3a5058131b)" d="M 627.847981 369.527925 
L 627.847981 43.367925 
L 672.316947 43.367925 
L 672.316947 369.527925 
z
" style="opacity:0.05;stroke:#000000;stroke-linejoin:miter;"/>
   </g>
   <g id="patch_10">
    <path clip-path="url(#p3a5058131b)" d="M 716.785913 369.527925 
L 716.785913 43.367925 
L 761.254878 43.367925 
L 761.254878 369.527925 
z
" style="opacity:0.05;stroke:#000000;stroke-linejoin:miter;"/>
   </g>
   <g id="line2d_25">
    <path clip-path="url(#p3a5058131b)" d="M 47.185913 354.70247 
L 48.041085 282.978326 
L 48.896257 315.51299 
L 49.75143 278.541781 
L 50.606602 295.548537 
L 51.461775 259.316753 
L 52.316947 304.421627 
L 53.172119 291.111992 
L 54.027292 316.991838 
L 54.882464 298.506234 
L 55.737637 234.915755 
L 56.592809 216.430151 
L 57.447981 229.739786 
L 58.303154 216.430151 
L 59.158326 277.802357 
L 60.013499 235.65518 
L 60.868671 240.831149 
L 61.723844 202.381092 
L 62.579016 189.810881 
L 63.434188 224.563817 
L 64.289361 200.16282 
L 65.144533 211.993606 
L 65.999706 191.28973 
L 66.854878 187.592609 
L 67.71005 181.677215 
L 68.565223 179.458943 
L 69.420395 196.465699 
L 70.275568 195.726275 
L 71.13074 189.810881 
L 71.985913 179.458943 
L 72.841085 212.73303 
L 73.696257 189.810881 
L 74.55143 190.550305 
L 75.406602 193.508002 
L 76.261775 158.015642 
L 77.116947 170.585853 
L 78.827292 208.296485 
L 79.682464 197.205123 
L 80.537637 194.247426 
L 81.392809 189.810881 
L 82.247981 210.514758 
L 83.103154 213.472455 
L 83.958326 217.169575 
L 84.813499 243.049421 
L 85.668671 237.873452 
L 86.523844 257.837905 
L 87.379016 270.408115 
L 88.234188 291.851416 
L 89.089361 254.880208 
L 89.944533 283.71775 
L 90.799706 283.71775 
L 91.654878 322.167807 
L 92.51005 289.633144 
L 93.365223 236.394604 
L 94.220395 258.577329 
L 95.075568 285.196599 
L 95.93074 269.668691 
L 96.785912 270.408115 
L 97.641085 259.316753 
L 98.496257 226.78209 
L 99.35143 222.345545 
L 100.206602 251.922511 
L 101.061775 257.09848 
L 101.916947 248.22539 
L 102.772119 197.205123 
L 103.627292 234.915755 
L 104.482464 209.03591 
L 105.337637 215.690727 
L 106.192809 226.042665 
L 107.047981 217.169575 
L 107.903154 186.11376 
L 108.758326 210.514758 
L 109.613499 178.719519 
L 110.468671 187.592609 
L 111.323844 186.853185 
L 112.179016 175.761822 
L 113.034188 203.120516 
L 113.889361 166.888732 
L 114.744533 168.36758 
L 115.599706 174.282974 
L 116.454878 182.41664 
L 117.31005 193.508002 
L 118.165223 183.895488 
L 119.020395 177.24067 
L 119.875568 223.084969 
L 120.73074 186.11376 
L 121.585912 175.022398 
L 122.441085 187.592609 
L 123.296257 189.071457 
L 124.15143 158.755066 
L 125.006602 166.888732 
L 125.861775 183.895488 
L 126.716947 205.338789 
L 127.572119 209.03591 
L 128.427292 240.831149 
L 129.282464 186.853185 
L 130.137637 262.27445 
L 131.847981 202.381092 
L 132.703154 263.753298 
L 133.558326 251.922511 
L 135.268671 297.76681 
L 136.123844 282.978326 
L 136.979016 259.316753 
L 137.834188 279.281205 
L 138.689361 227.521514 
L 139.544533 246.746542 
L 140.399706 208.296485 
L 141.254878 237.873452 
L 142.11005 300.724506 
L 142.965223 237.134028 
L 143.820395 261.535025 
L 144.675568 195.726275 
L 145.53074 247.485966 
L 146.385912 203.85994 
L 147.241085 187.592609 
L 148.096257 228.260938 
L 148.95143 239.3523 
L 149.806602 245.267694 
L 150.661775 224.563817 
L 151.516947 240.831149 
L 152.372119 212.73303 
L 153.227292 175.761822 
L 154.082464 161.712763 
L 154.937637 192.768578 
L 155.792809 182.41664 
L 156.647981 161.712763 
L 157.503154 182.41664 
L 158.358326 152.839673 
L 159.213499 138.05119 
L 160.068671 151.360825 
L 160.923844 170.585853 
L 161.779016 153.579097 
L 162.634188 162.452187 
L 163.489361 166.149308 
L 164.344533 124.741555 
L 165.199706 180.198367 
L 166.054878 127.699251 
L 166.91005 144.706007 
L 167.765223 159.49449 
L 168.620395 161.712763 
L 169.475568 149.142552 
L 170.33074 166.149308 
L 171.185913 160.973339 
L 172.041085 141.74831 
L 172.896257 160.973339 
L 173.75143 219.387848 
L 174.606602 244.52827 
L 175.461775 246.746542 
L 176.316947 218.648424 
L 177.172119 255.619632 
L 178.027292 279.281205 
L 178.882464 260.056177 
L 179.737637 268.929267 
L 180.592809 301.46393 
L 181.447981 291.111992 
L 182.303154 259.316753 
L 183.158326 246.746542 
L 184.013499 260.056177 
L 184.868671 266.710995 
L 185.723844 237.873452 
L 186.579016 217.909 
L 187.434188 315.51299 
L 188.289361 280.02063 
L 189.144533 206.078213 
L 189.999706 181.677215 
L 190.854878 182.41664 
L 191.71005 206.817637 
L 192.565223 211.993606 
L 193.420395 174.282974 
L 194.275568 234.176331 
L 195.13074 169.846429 
L 195.985913 166.149308 
L 196.841085 198.683971 
L 197.696257 183.156064 
L 198.55143 180.198367 
L 199.406602 156.536794 
L 200.261775 177.980095 
L 201.116947 163.191611 
L 201.972119 186.853185 
L 202.827292 194.98685 
L 203.682464 134.354069 
L 204.537637 176.501246 
L 205.392809 162.452187 
L 206.247981 167.628156 
L 207.103154 158.755066 
L 207.958326 187.592609 
L 208.813499 183.895488 
L 209.668671 184.634912 
L 210.523844 168.36758 
L 211.379016 158.015642 
L 212.234188 189.810881 
L 213.089361 192.029154 
L 213.944533 163.191611 
L 214.799706 194.98685 
L 215.654878 173.54355 
L 216.51005 212.73303 
L 217.365223 258.577329 
L 218.220395 246.007118 
L 219.075568 248.964815 
L 219.93074 240.831149 
L 220.785912 240.831149 
L 222.496257 276.323509 
L 224.206602 231.958059 
L 225.061775 273.365812 
L 225.916947 328.822625 
L 226.772119 324.38608 
L 227.627292 257.09848 
L 228.482464 243.788845 
L 229.337637 278.541781 
L 230.192809 237.134028 
L 231.047981 281.499478 
L 231.903154 305.900475 
L 232.758326 255.619632 
L 233.613499 236.394604 
L 234.468671 204.599365 
L 235.323844 283.71775 
L 236.179016 256.359056 
L 237.034188 220.866696 
L 237.889361 226.78209 
L 238.744533 189.810881 
L 239.599706 222.345545 
L 240.454878 231.218635 
L 241.31005 231.958059 
L 242.165223 160.233915 
L 243.020395 160.973339 
L 243.875568 173.54355 
L 244.73074 175.022398 
L 245.585912 202.381092 
L 246.441085 190.550305 
L 247.296257 156.536794 
L 248.15143 133.614645 
L 249.861775 178.719519 
L 250.716947 156.536794 
L 251.572119 158.755066 
L 252.427292 173.54355 
L 253.282464 170.585853 
L 254.137637 153.579097 
L 254.992809 129.917524 
L 255.847981 164.67046 
L 256.703154 136.572341 
L 257.558326 159.49449 
L 258.413499 152.100249 
L 259.268671 153.579097 
L 260.123844 150.6214 
L 260.979016 187.592609 
L 261.834188 215.690727 
L 262.689361 202.381092 
L 264.399706 209.775334 
L 265.254878 182.41664 
L 266.11005 234.176331 
L 266.965223 245.267694 
L 267.820395 229.739786 
L 268.675568 276.323509 
L 269.53074 271.14754 
L 270.385912 302.942779 
L 271.241085 245.267694 
L 272.096257 254.880208 
L 272.95143 248.964815 
L 273.806602 235.65518 
L 274.661775 246.007118 
L 275.516947 180.937791 
L 276.372119 241.570573 
L 277.227292 219.387848 
L 278.082464 281.499478 
L 278.937637 297.76681 
L 279.792809 256.359056 
L 280.647981 239.3523 
L 281.503154 285.196599 
L 282.358326 242.309997 
L 283.213499 247.485966 
L 284.068671 183.895488 
L 284.923844 188.332033 
L 285.779016 158.015642 
L 286.634188 133.614645 
L 287.489361 178.719519 
L 288.344533 153.579097 
L 289.199706 138.05119 
L 290.054878 150.6214 
L 290.91005 133.614645 
L 291.765223 155.79737 
L 292.620395 149.142552 
L 293.475568 172.804125 
L 294.33074 155.79737 
L 295.185913 167.628156 
L 296.041085 169.846429 
L 296.896257 159.49449 
L 297.75143 116.607889 
L 298.606602 137.311765 
L 299.461775 152.100249 
L 300.316947 160.973339 
L 301.172119 148.403128 
L 302.027292 149.142552 
L 302.882464 106.25595 
L 303.737637 143.966583 
L 305.447981 193.508002 
L 306.303154 138.05119 
L 307.158326 186.853185 
L 308.013499 194.247426 
L 308.868671 196.465699 
L 309.723844 187.592609 
L 310.579016 229.000362 
L 311.434188 231.218635 
L 312.289361 245.267694 
L 313.144533 274.105236 
L 313.999706 261.535025 
L 314.854878 260.795601 
L 315.71005 251.183087 
L 316.565223 273.365812 
L 317.420395 257.837905 
L 318.275568 268.189843 
L 319.13074 229.739786 
L 319.985913 263.013874 
L 320.841085 199.423395 
L 321.696257 274.84466 
L 322.55143 197.944547 
L 323.406602 156.536794 
L 324.261775 160.233915 
L 325.116947 208.296485 
L 325.972119 186.11376 
L 326.827292 194.98685 
L 327.682464 206.078213 
L 328.537637 234.915755 
L 329.392809 137.311765 
L 330.247981 147.663704 
L 331.103154 139.530038 
L 331.958326 138.790614 
L 332.813499 128.438675 
L 333.668671 153.579097 
L 334.523844 132.135796 
L 335.379016 113.650192 
L 336.234188 130.656948 
L 337.089361 132.87522 
L 337.944533 141.008886 
L 338.799706 122.523282 
L 339.654878 121.044434 
L 340.51005 128.438675 
L 341.365223 138.05119 
L 342.220395 118.826161 
L 343.075568 154.318521 
L 343.93074 110.692495 
L 344.785912 125.480979 
L 345.641085 114.389616 
L 346.496257 120.30501 
L 347.35143 189.071457 
L 348.206602 159.49449 
L 349.061775 121.044434 
L 349.916947 155.79737 
L 350.772119 184.634912 
L 351.627292 167.628156 
L 352.482464 167.628156 
L 353.337637 177.24067 
L 354.192809 177.980095 
L 355.047981 195.726275 
L 356.758326 243.049421 
L 357.613499 219.387848 
L 358.468671 248.964815 
L 359.323844 268.189843 
L 360.179016 311.076445 
L 361.034188 220.866696 
L 361.889361 224.563817 
L 362.744533 309.597596 
L 363.599706 276.323509 
L 364.454878 179.458943 
L 365.31005 198.683971 
L 366.165223 291.111992 
L 367.020395 164.67046 
L 367.875568 162.452187 
L 368.73074 208.296485 
L 369.585912 171.325277 
L 370.441085 193.508002 
L 371.296257 200.16282 
L 372.15143 118.086737 
L 373.006602 162.452187 
L 373.861775 145.445431 
L 374.716947 141.74831 
L 375.572119 136.572341 
L 376.427292 108.474223 
L 377.282464 203.120516 
L 378.137637 126.220403 
L 378.992809 106.995375 
L 379.847981 98.122285 
L 380.703154 105.516526 
L 381.558326 116.607889 
L 382.413499 115.12904 
L 383.268671 119.565585 
L 384.123844 110.692495 
L 384.979016 115.868465 
L 385.834188 110.692495 
L 386.689361 135.093493 
L 387.544533 115.12904 
L 388.399706 126.959827 
L 389.254878 118.826161 
L 390.11005 118.086737 
L 390.965223 114.389616 
L 391.820395 129.1781 
L 392.675568 94.425164 
L 393.53074 146.184855 
L 394.385913 159.49449 
L 395.241085 115.12904 
L 396.096257 96.643436 
L 396.95143 177.980095 
L 397.806602 174.282974 
L 398.661775 124.741555 
L 399.516947 175.022398 
L 400.372119 237.873452 
L 401.227292 220.866696 
L 402.082464 228.260938 
L 402.937637 261.535025 
L 403.792809 283.71775 
L 405.503154 222.345545 
L 406.358326 175.761822 
L 407.213499 274.105236 
L 408.068671 189.810881 
L 408.923844 274.105236 
L 409.779016 298.506234 
L 410.634188 239.3523 
L 411.489361 203.120516 
L 412.344533 224.563817 
L 413.199706 191.28973 
L 414.054878 203.120516 
L 414.91005 158.015642 
L 415.765223 185.374336 
L 416.620395 232.697483 
L 417.475568 154.318521 
L 418.33074 172.064701 
L 419.185913 220.127272 
L 420.041085 140.269462 
L 420.896257 126.220403 
L 421.75143 132.135796 
L 422.606602 186.11376 
L 423.461775 208.296485 
L 424.316947 209.775334 
L 425.172119 158.015642 
L 426.027292 145.445431 
L 426.882464 149.142552 
L 427.737637 138.790614 
L 428.592809 153.579097 
L 429.447981 146.92428 
L 430.303154 158.015642 
L 431.158326 129.1781 
L 432.013499 141.008886 
L 432.868671 161.712763 
L 433.723844 173.54355 
L 434.579016 126.220403 
L 435.434188 150.6214 
L 436.289361 138.790614 
L 437.144533 160.973339 
L 437.999706 146.92428 
L 438.854878 160.233915 
L 439.71005 185.374336 
L 441.420395 176.501246 
L 442.275568 202.381092 
L 443.13074 187.592609 
L 443.985913 216.430151 
L 444.841085 230.47921 
L 445.696257 238.612876 
L 446.55143 288.154295 
L 447.406602 247.485966 
L 448.261775 286.675447 
L 449.116947 282.978326 
L 449.972119 240.831149 
L 450.827292 280.02063 
L 451.682464 308.858172 
L 452.537637 247.485966 
L 453.392809 277.062933 
L 454.247981 231.218635 
L 455.103154 229.000362 
L 455.958326 254.140784 
L 456.813499 243.049421 
L 458.523844 132.87522 
L 459.379016 164.67046 
L 460.234188 258.577329 
L 461.089361 217.169575 
L 461.944533 187.592609 
L 462.799706 192.029154 
L 463.654878 194.98685 
L 464.51005 153.579097 
L 465.365223 165.409884 
L 466.220395 192.768578 
L 467.075568 173.54355 
L 467.93074 149.881976 
L 468.785912 156.536794 
L 469.641085 146.184855 
L 470.496257 154.318521 
L 471.35143 169.846429 
L 472.206602 166.888732 
L 473.061775 150.6214 
L 473.916947 177.980095 
L 474.772119 157.276218 
L 475.627292 158.755066 
L 476.482464 179.458943 
L 477.337637 134.354069 
L 478.192809 143.227159 
L 479.047981 155.79737 
L 479.903154 172.804125 
L 480.758326 153.579097 
L 481.613499 128.438675 
L 482.468671 155.79737 
L 484.179016 198.683971 
L 485.034188 247.485966 
L 485.889361 186.11376 
L 486.744533 180.198367 
L 487.599706 184.634912 
L 488.454878 234.915755 
L 489.31005 273.365812 
L 490.165223 251.183087 
L 491.020395 243.049421 
L 491.875568 292.59084 
L 492.73074 280.02063 
L 493.585912 303.682203 
L 494.441085 254.880208 
L 495.296257 214.951303 
L 496.15143 186.11376 
L 497.006602 246.007118 
L 497.861775 200.16282 
L 498.716947 204.599365 
L 499.572119 299.985082 
L 501.282464 227.521514 
L 502.137637 215.690727 
L 502.992809 257.09848 
L 503.847981 271.14754 
L 504.703154 138.05119 
L 505.558326 210.514758 
L 506.413499 167.628156 
L 507.268671 237.134028 
L 508.123844 132.87522 
L 508.979016 163.931035 
L 509.834188 180.937791 
L 510.689361 180.937791 
L 511.544533 165.409884 
L 512.399706 192.768578 
L 513.254878 153.579097 
L 514.11005 157.276218 
L 514.965223 141.74831 
L 515.820395 122.523282 
L 516.675568 121.044434 
L 517.53074 143.966583 
L 518.385913 118.826161 
L 519.241085 143.966583 
L 520.096257 122.523282 
L 520.95143 138.790614 
L 521.806602 127.699251 
L 522.661775 140.269462 
L 523.516947 118.086737 
L 524.372119 134.354069 
L 525.227292 120.30501 
L 526.082464 134.354069 
L 526.937637 126.220403 
L 527.792809 203.120516 
L 528.647981 124.00213 
L 529.503154 115.12904 
L 531.213499 196.465699 
L 532.068671 214.951303 
L 532.923844 213.472455 
L 533.779016 228.260938 
L 534.634188 190.550305 
L 535.489361 223.824393 
L 536.344533 231.958059 
L 537.199706 246.746542 
L 538.054878 245.267694 
L 538.91005 208.296485 
L 539.765223 212.73303 
L 540.620395 260.795601 
L 541.475568 209.03591 
L 542.33074 194.247426 
L 543.185913 237.134028 
L 544.041085 212.73303 
L 544.896257 178.719519 
L 545.75143 185.374336 
L 546.606602 182.41664 
L 547.461775 234.915755 
L 548.316947 218.648424 
L 549.172119 190.550305 
L 550.027292 170.585853 
L 550.882464 211.993606 
L 551.737637 123.262706 
L 552.592809 179.458943 
L 553.447981 163.191611 
L 554.303154 150.6214 
L 555.158326 105.516526 
L 556.013499 180.937791 
L 556.868671 143.227159 
L 557.723844 147.663704 
L 558.579016 129.917524 
L 559.434188 143.966583 
L 560.289361 139.530038 
L 561.144533 154.318521 
L 561.999706 141.008886 
L 562.854878 145.445431 
L 563.71005 133.614645 
L 564.565223 130.656948 
L 565.420395 131.396372 
L 567.13074 150.6214 
L 567.985913 126.959827 
L 568.841085 151.360825 
L 569.696257 124.741555 
L 570.55143 131.396372 
L 571.406602 106.995375 
L 572.261775 95.904012 
L 573.116947 169.846429 
L 573.972119 150.6214 
L 574.827292 155.057945 
L 575.682464 160.233915 
L 576.537637 188.332033 
L 577.392809 211.254182 
L 578.247981 211.993606 
L 579.103154 269.668691 
L 579.958326 206.817637 
L 580.813499 227.521514 
L 581.668671 264.492722 
L 582.523844 286.675447 
L 583.379016 254.880208 
L 584.234188 234.915755 
L 585.089361 183.895488 
L 585.944533 267.450419 
L 586.799706 206.078213 
L 587.654878 217.169575 
L 588.51005 153.579097 
L 589.365223 227.521514 
L 590.220395 164.67046 
L 591.075568 218.648424 
L 591.93074 162.452187 
L 592.785912 167.628156 
L 593.641085 166.888732 
L 594.496257 197.205123 
L 595.35143 141.74831 
L 596.206602 153.579097 
L 597.061775 146.184855 
L 597.916947 177.24067 
L 598.772119 146.184855 
L 599.627292 149.142552 
L 600.482464 157.276218 
L 601.337637 155.79737 
L 602.192809 115.12904 
L 603.047981 124.741555 
L 603.903154 141.74831 
L 604.758326 148.403128 
L 605.613499 140.269462 
L 606.468671 158.015642 
L 607.323844 128.438675 
L 608.179016 124.00213 
L 609.034188 142.487735 
L 609.889361 109.213647 
L 610.744533 134.354069 
L 611.599706 124.00213 
L 612.454878 149.142552 
L 613.31005 132.87522 
L 614.165223 121.044434 
L 615.020395 127.699251 
L 615.875568 112.171344 
L 616.73074 114.389616 
L 617.585912 161.712763 
L 618.441085 142.487735 
L 619.296257 163.191611 
L 621.006602 136.572341 
L 622.716947 204.599365 
L 623.572119 223.824393 
L 624.427292 248.964815 
L 625.282464 197.944547 
L 626.137637 200.902244 
L 626.992809 233.436907 
L 627.847981 241.570573 
L 629.558326 196.465699 
L 630.413499 194.247426 
L 631.268671 223.824393 
L 632.123844 235.65518 
L 632.979016 186.853185 
L 633.834188 166.888732 
L 634.689361 276.323509 
L 635.544533 183.895488 
L 636.399706 109.213647 
L 637.254878 130.656948 
L 638.11005 218.648424 
L 638.965223 172.064701 
L 639.820395 141.74831 
L 640.675568 146.184855 
L 641.53074 186.11376 
L 642.385913 121.783858 
L 643.241085 153.579097 
L 644.096257 124.00213 
L 644.95143 138.790614 
L 645.806602 132.87522 
L 646.661775 121.044434 
L 647.516947 125.480979 
L 648.372119 119.565585 
L 649.227292 124.00213 
L 650.082464 160.973339 
L 650.937637 141.008886 
L 651.792809 115.868465 
L 653.503154 155.79737 
L 654.358326 141.74831 
L 655.213499 99.601133 
L 656.068671 145.445431 
L 656.923844 118.086737 
L 657.779016 112.171344 
L 658.634188 87.770346 
L 659.489361 104.037678 
L 660.344533 117.347313 
L 661.199706 92.946315 
L 662.054878 98.861709 
L 662.91005 136.572341 
L 663.765223 101.819405 
L 664.620395 144.706007 
L 665.475568 101.819405 
L 666.33074 166.149308 
L 667.185913 188.332033 
L 668.041085 194.247426 
L 668.896257 236.394604 
L 669.75143 215.690727 
L 670.606602 235.65518 
L 671.461775 234.915755 
L 672.316947 238.612876 
L 673.172119 206.817637 
L 674.027292 191.28973 
L 674.882464 156.536794 
L 675.737637 202.381092 
L 676.592809 196.465699 
L 677.447981 102.55883 
L 679.158326 201.641668 
L 680.013499 131.396372 
L 680.868671 138.790614 
L 682.579016 116.607889 
L 683.434188 113.650192 
L 684.289361 149.142552 
L 685.144533 107.734799 
L 685.999706 144.706007 
L 686.854878 119.565585 
L 687.71005 143.966583 
L 688.565223 176.501246 
L 689.420395 156.536794 
L 690.275568 131.396372 
L 691.13074 147.663704 
L 691.985913 138.05119 
L 692.841085 102.55883 
L 693.696257 136.572341 
L 694.55143 127.699251 
L 695.406602 137.311765 
L 696.261775 109.213647 
L 697.116947 106.25595 
L 697.972119 94.425164 
L 698.827292 106.995375 
L 699.682464 105.516526 
L 700.537637 86.291498 
L 701.392809 98.861709 
L 702.247981 75.93956 
L 703.103154 88.50977 
L 703.958326 121.783858 
L 704.813499 67.805894 
L 705.668671 95.904012 
L 706.523844 58.19338 
L 707.379016 95.164588 
L 708.234188 70.76359 
L 709.089361 95.904012 
L 709.944533 126.959827 
L 710.799706 127.699251 
L 711.654878 105.516526 
L 712.51005 197.944547 
L 713.365223 138.05119 
L 714.220395 180.198367 
L 715.075568 171.325277 
L 715.93074 254.140784 
L 716.785913 314.034141 
L 716.785913 314.034141 
" style="fill:none;stroke:#ff0000;stroke-linecap:round;"/>
   </g>
   <g id="patch_11">
    <path d="M 47.185913 369.527925 
L 47.185913 43.367925 
" style="fill:none;stroke:#262626;stroke-linecap:square;stroke-linejoin:miter;stroke-width:1.25;"/>
   </g>
   <g id="patch_12">
    <path d="M 716.785912 369.527925 
L 716.785912 43.367925 
" style="fill:none;stroke:#262626;stroke-linecap:square;stroke-linejoin:miter;stroke-width:1.25;"/>
   </g>
   <g id="patch_13">
    <path d="M 47.185913 369.527925 
L 716.785913 369.527925 
" style="fill:none;stroke:#262626;stroke-linecap:square;stroke-linejoin:miter;stroke-width:1.25;"/>
   </g>
   <g id="patch_14">
    <path d="M 47.185913 43.367925 
L 716.785913 43.367925 
" style="fill:none;stroke:#262626;stroke-linecap:square;stroke-linejoin:miter;stroke-width:1.25;"/>
   </g>
   <g id="text_18">
    <!-- Motorcycle Crashes per Week in California -->
    <defs>
     <path d="M 7.421875 0 
L 7.421875 71.578125 
L 21.6875 71.578125 
L 38.625 20.90625 
Q 40.96875 13.8125 42.046875 10.296875 
Q 43.265625 14.203125 45.84375 21.78125 
L 62.984375 71.578125 
L 75.734375 71.578125 
L 75.734375 0 
L 66.609375 0 
L 66.609375 59.90625 
L 45.796875 0 
L 37.25 0 
L 16.546875 60.9375 
L 16.546875 0 
z
" id="ArialMT-77"/>
     <path d="M 3.328125 25.921875 
Q 3.328125 40.328125 11.328125 47.265625 
Q 18.015625 53.03125 27.640625 53.03125 
Q 38.328125 53.03125 45.109375 46.015625 
Q 51.90625 39.015625 51.90625 26.65625 
Q 51.90625 16.65625 48.90625 10.90625 
Q 45.90625 5.171875 40.15625 2 
Q 34.421875 -1.171875 27.640625 -1.171875 
Q 16.75 -1.171875 10.03125 5.8125 
Q 3.328125 12.796875 3.328125 25.921875 
z
M 12.359375 25.921875 
Q 12.359375 15.96875 16.703125 11.015625 
Q 21.046875 6.0625 27.640625 6.0625 
Q 34.1875 6.0625 38.53125 11.03125 
Q 42.875 16.015625 42.875 26.21875 
Q 42.875 35.84375 38.5 40.796875 
Q 34.125 45.75 27.640625 45.75 
Q 21.046875 45.75 16.703125 40.8125 
Q 12.359375 35.890625 12.359375 25.921875 
z
" id="ArialMT-111"/>
     <path d="M 25.78125 7.859375 
L 27.046875 0.09375 
Q 23.34375 -0.6875 20.40625 -0.6875 
Q 15.625 -0.6875 12.984375 0.828125 
Q 10.359375 2.34375 9.28125 4.8125 
Q 8.203125 7.28125 8.203125 15.1875 
L 8.203125 45.015625 
L 1.765625 45.015625 
L 1.765625 51.859375 
L 8.203125 51.859375 
L 8.203125 64.703125 
L 16.9375 69.96875 
L 16.9375 51.859375 
L 25.78125 51.859375 
L 25.78125 45.015625 
L 16.9375 45.015625 
L 16.9375 14.703125 
Q 16.9375 10.9375 17.40625 9.859375 
Q 17.875 8.796875 18.921875 8.15625 
Q 19.96875 7.515625 21.921875 7.515625 
Q 23.390625 7.515625 25.78125 7.859375 
z
" id="ArialMT-116"/>
     <path d="M 40.4375 19 
L 49.078125 17.875 
Q 47.65625 8.9375 41.8125 3.875 
Q 35.984375 -1.171875 27.484375 -1.171875 
Q 16.84375 -1.171875 10.375 5.78125 
Q 3.90625 12.75 3.90625 25.734375 
Q 3.90625 34.125 6.6875 40.421875 
Q 9.46875 46.734375 15.15625 49.875 
Q 20.84375 53.03125 27.546875 53.03125 
Q 35.984375 53.03125 41.359375 48.75 
Q 46.734375 44.484375 48.25 36.625 
L 39.703125 35.296875 
Q 38.484375 40.53125 35.375 43.15625 
Q 32.28125 45.796875 27.875 45.796875 
Q 21.234375 45.796875 17.078125 41.03125 
Q 12.9375 36.28125 12.9375 25.984375 
Q 12.9375 15.53125 16.9375 10.796875 
Q 20.953125 6.0625 27.390625 6.0625 
Q 32.5625 6.0625 36.03125 9.234375 
Q 39.5 12.40625 40.4375 19 
z
" id="ArialMT-99"/>
     <path d="M 6.203125 -19.96875 
L 5.21875 -11.71875 
Q 8.109375 -12.5 10.25 -12.5 
Q 13.1875 -12.5 14.9375 -11.515625 
Q 16.703125 -10.546875 17.828125 -8.796875 
Q 18.65625 -7.46875 20.515625 -2.25 
Q 20.75 -1.515625 21.296875 -0.09375 
L 1.609375 51.859375 
L 11.078125 51.859375 
L 21.875 21.828125 
Q 23.96875 16.109375 25.640625 9.8125 
Q 27.15625 15.875 29.25 21.625 
L 40.328125 51.859375 
L 49.125 51.859375 
L 29.390625 -0.875 
Q 26.21875 -9.421875 24.46875 -12.640625 
Q 22.125 -17 19.09375 -19.015625 
Q 16.0625 -21.046875 11.859375 -21.046875 
Q 9.328125 -21.046875 6.203125 -19.96875 
z
" id="ArialMT-121"/>
     <path d="M 6.390625 0 
L 6.390625 71.578125 
L 15.1875 71.578125 
L 15.1875 0 
z
" id="ArialMT-108"/>
     <path d="M 6.59375 -19.875 
L 6.59375 51.859375 
L 14.59375 51.859375 
L 14.59375 45.125 
Q 17.4375 49.078125 21 51.046875 
Q 24.5625 53.03125 29.640625 53.03125 
Q 36.28125 53.03125 41.359375 49.609375 
Q 46.4375 46.1875 49.015625 39.953125 
Q 51.609375 33.734375 51.609375 26.3125 
Q 51.609375 18.359375 48.75 11.984375 
Q 45.90625 5.609375 40.453125 2.21875 
Q 35.015625 -1.171875 29 -1.171875 
Q 24.609375 -1.171875 21.109375 0.6875 
Q 17.625 2.546875 15.375 5.375 
L 15.375 -19.875 
z
M 14.546875 25.640625 
Q 14.546875 15.625 18.59375 10.84375 
Q 22.65625 6.0625 28.421875 6.0625 
Q 34.28125 6.0625 38.453125 11.015625 
Q 42.625 15.96875 42.625 26.375 
Q 42.625 36.28125 38.546875 41.203125 
Q 34.46875 46.140625 28.8125 46.140625 
Q 23.1875 46.140625 18.859375 40.890625 
Q 14.546875 35.640625 14.546875 25.640625 
z
" id="ArialMT-112"/>
     <path d="M 6.640625 61.46875 
L 6.640625 71.578125 
L 15.4375 71.578125 
L 15.4375 61.46875 
z
M 6.640625 0 
L 6.640625 51.859375 
L 15.4375 51.859375 
L 15.4375 0 
z
" id="ArialMT-105"/>
     <path d="M 6.59375 0 
L 6.59375 51.859375 
L 14.5 51.859375 
L 14.5 44.484375 
Q 20.21875 53.03125 31 53.03125 
Q 35.6875 53.03125 39.625 51.34375 
Q 43.5625 49.65625 45.515625 46.921875 
Q 47.46875 44.1875 48.25 40.4375 
Q 48.734375 37.984375 48.734375 31.890625 
L 48.734375 0 
L 39.9375 0 
L 39.9375 31.546875 
Q 39.9375 36.921875 38.90625 39.578125 
Q 37.890625 42.234375 35.28125 43.8125 
Q 32.671875 45.40625 29.15625 45.40625 
Q 23.53125 45.40625 19.453125 41.84375 
Q 15.375 38.28125 15.375 28.328125 
L 15.375 0 
z
" id="ArialMT-110"/>
     <path d="M 8.6875 0 
L 8.6875 45.015625 
L 0.921875 45.015625 
L 0.921875 51.859375 
L 8.6875 51.859375 
L 8.6875 57.375 
Q 8.6875 62.59375 9.625 65.140625 
Q 10.890625 68.5625 14.078125 70.671875 
Q 17.28125 72.796875 23.046875 72.796875 
Q 26.765625 72.796875 31.25 71.921875 
L 29.9375 64.265625 
Q 27.203125 64.75 24.75 64.75 
Q 20.75 64.75 19.09375 63.03125 
Q 17.4375 61.328125 17.4375 56.640625 
L 17.4375 51.859375 
L 27.546875 51.859375 
L 27.546875 45.015625 
L 17.4375 45.015625 
L 17.4375 0 
z
" id="ArialMT-102"/>
    </defs>
    <g style="fill:#262626;" transform="translate(116.928725 27.583125)scale(0.28 -0.28)">
     <use xlink:href="#ArialMT-77"/>
     <use x="83.300781" xlink:href="#ArialMT-111"/>
     <use x="138.916016" xlink:href="#ArialMT-116"/>
     <use x="166.699219" xlink:href="#ArialMT-111"/>
     <use x="222.314453" xlink:href="#ArialMT-114"/>
     <use x="255.615234" xlink:href="#ArialMT-99"/>
     <use x="305.615234" xlink:href="#ArialMT-121"/>
     <use x="355.615234" xlink:href="#ArialMT-99"/>
     <use x="405.615234" xlink:href="#ArialMT-108"/>
     <use x="427.832031" xlink:href="#ArialMT-101"/>
     <use x="483.447266" xlink:href="#ArialMT-32"/>
     <use x="511.230469" xlink:href="#ArialMT-67"/>
     <use x="583.447266" xlink:href="#ArialMT-114"/>
     <use x="616.748047" xlink:href="#ArialMT-97"/>
     <use x="672.363281" xlink:href="#ArialMT-115"/>
     <use x="722.363281" xlink:href="#ArialMT-104"/>
     <use x="777.978516" xlink:href="#ArialMT-101"/>
     <use x="833.59375" xlink:href="#ArialMT-115"/>
     <use x="883.59375" xlink:href="#ArialMT-32"/>
     <use x="911.376953" xlink:href="#ArialMT-112"/>
     <use x="966.992188" xlink:href="#ArialMT-101"/>
     <use x="1022.607422" xlink:href="#ArialMT-114"/>
     <use x="1055.908203" xlink:href="#ArialMT-32"/>
     <use x="1083.691406" xlink:href="#ArialMT-87"/>
     <use x="1176.326172" xlink:href="#ArialMT-101"/>
     <use x="1231.941406" xlink:href="#ArialMT-101"/>
     <use x="1287.556641" xlink:href="#ArialMT-107"/>
     <use x="1337.556641" xlink:href="#ArialMT-32"/>
     <use x="1365.339844" xlink:href="#ArialMT-105"/>
     <use x="1387.556641" xlink:href="#ArialMT-110"/>
     <use x="1443.171875" xlink:href="#ArialMT-32"/>
     <use x="1470.955078" xlink:href="#ArialMT-67"/>
     <use x="1543.171875" xlink:href="#ArialMT-97"/>
     <use x="1598.787109" xlink:href="#ArialMT-108"/>
     <use x="1621.003906" xlink:href="#ArialMT-105"/>
     <use x="1643.220703" xlink:href="#ArialMT-102"/>
     <use x="1671.003906" xlink:href="#ArialMT-111"/>
     <use x="1726.619141" xlink:href="#ArialMT-114"/>
     <use x="1759.919922" xlink:href="#ArialMT-110"/>
     <use x="1815.535156" xlink:href="#ArialMT-105"/>
     <use x="1837.751953" xlink:href="#ArialMT-97"/>
    </g>
   </g>
  </g>
 </g>
 <defs>
  <clipPath id="p3a5058131b">
   <rect height="326.16" width="669.6" x="47.185913" y="43.367925"/>
  </clipPath>
 </defs>
</svg>
