<?xml version="1.0" encoding="utf-8" standalone="no"?>
<!DOCTYPE svg PUBLIC "-//W3C//DTD SVG 1.1//EN"
  "http://www.w3.org/Graphics/SVG/1.1/DTD/svg11.dtd">
<!-- Created with matplotlib (http://matplotlib.org/) -->
<svg height="401pt" version="1.1" viewBox="0 0 728 401" width="728pt" xmlns="http://www.w3.org/2000/svg" xmlns:xlink="http://www.w3.org/1999/xlink">
 <defs>
  <style type="text/css">
*{stroke-linecap:butt;stroke-linejoin:round;stroke-miterlimit:100000;}
  </style>
 </defs>
 <g id="figure_1">
  <g id="patch_1">
   <path d="M 0 401.430562 
L 728.485913 401.430562 
L 728.485913 0 
L 0 0 
z
" style="fill:#ffffff;"/>
  </g>
  <g id="axes_1">
   <g id="patch_2">
    <path d="M 51.685913 377.427125 
L 721.285912 377.427125 
L 721.285912 42.627125 
L 51.685913 42.627125 
z
" style="fill:#ffffff;"/>
   </g>
   <g id="matplotlib.axis_1">
    <g id="xtick_1">
     <g id="line2d_1"/>
     <g id="line2d_2"/>
     <g id="text_1">
      <!-- 2001 -->
      <defs>
       <path d="M 4.15625 35.296875 
Q 4.15625 48 6.765625 55.734375 
Q 9.375 63.484375 14.515625 67.671875 
Q 19.671875 71.875 27.484375 71.875 
Q 33.25 71.875 37.59375 69.546875 
Q 41.9375 67.234375 44.765625 62.859375 
Q 47.609375 58.5 49.21875 52.21875 
Q 50.828125 45.953125 50.828125 35.296875 
Q 50.828125 22.703125 48.234375 14.96875 
Q 45.65625 7.234375 40.5 3 
Q 35.359375 -1.21875 27.484375 -1.21875 
Q 17.140625 -1.21875 11.234375 6.203125 
Q 4.15625 15.140625 4.15625 35.296875 
M 13.1875 35.296875 
Q 13.1875 17.671875 17.3125 11.828125 
Q 21.4375 6 27.484375 6 
Q 33.546875 6 37.671875 11.859375 
Q 41.796875 17.71875 41.796875 35.296875 
Q 41.796875 52.984375 37.671875 58.78125 
Q 33.546875 64.59375 27.390625 64.59375 
Q 21.34375 64.59375 17.71875 59.46875 
Q 13.1875 52.9375 13.1875 35.296875 
" id="ArialMT-30"/>
       <path d="M 37.25 0 
L 28.46875 0 
L 28.46875 56 
Q 25.296875 52.984375 20.140625 49.953125 
Q 14.984375 46.921875 10.890625 45.40625 
L 10.890625 53.90625 
Q 18.265625 57.375 23.78125 62.296875 
Q 29.296875 67.234375 31.59375 71.875 
L 37.25 71.875 
z
" id="ArialMT-31"/>
       <path d="M 50.34375 8.453125 
L 50.34375 0 
L 3.03125 0 
Q 2.9375 3.171875 4.046875 6.109375 
Q 5.859375 10.9375 9.828125 15.625 
Q 13.8125 20.3125 21.34375 26.46875 
Q 33.015625 36.03125 37.109375 41.625 
Q 41.21875 47.21875 41.21875 52.203125 
Q 41.21875 57.421875 37.46875 61 
Q 33.734375 64.59375 27.734375 64.59375 
Q 21.390625 64.59375 17.578125 60.78125 
Q 13.765625 56.984375 13.71875 50.25 
L 4.6875 51.171875 
Q 5.609375 61.28125 11.65625 66.578125 
Q 17.71875 71.875 27.9375 71.875 
Q 38.234375 71.875 44.234375 66.15625 
Q 50.25 60.453125 50.25 52 
Q 50.25 47.703125 48.484375 43.546875 
Q 46.734375 39.40625 42.65625 34.8125 
Q 38.578125 30.21875 29.109375 22.21875 
Q 21.1875 15.578125 18.9375 13.203125 
Q 16.703125 10.84375 15.234375 8.453125 
z
" id="ArialMT-32"/>
      </defs>
      <g style="fill:#262626;" transform="translate(58.7773564655 391.4480625)scale(0.14 -0.14)">
       <use xlink:href="#ArialMT-32"/>
       <use x="55.615234375" xlink:href="#ArialMT-30"/>
       <use x="111.23046875" xlink:href="#ArialMT-30"/>
       <use x="166.845703125" xlink:href="#ArialMT-31"/>
      </g>
     </g>
    </g>
    <g id="xtick_2">
     <g id="line2d_3"/>
     <g id="line2d_4"/>
     <g id="text_2">
      <!-- 2003 -->
      <defs>
       <path d="M 4.203125 18.890625 
L 12.984375 20.0625 
Q 14.5 12.59375 18.140625 9.296875 
Q 21.78125 6 27 6 
Q 33.203125 6 37.46875 10.296875 
Q 41.75 14.59375 41.75 20.953125 
Q 41.75 27 37.796875 30.921875 
Q 33.84375 34.859375 27.734375 34.859375 
Q 25.25 34.859375 21.53125 33.890625 
L 22.515625 41.609375 
Q 23.390625 41.5 23.921875 41.5 
Q 29.546875 41.5 34.03125 44.421875 
Q 38.53125 47.359375 38.53125 53.46875 
Q 38.53125 58.296875 35.25 61.46875 
Q 31.984375 64.65625 26.8125 64.65625 
Q 21.6875 64.65625 18.265625 61.421875 
Q 14.84375 58.203125 13.875 51.765625 
L 5.078125 53.328125 
Q 6.6875 62.15625 12.390625 67.015625 
Q 18.109375 71.875 26.609375 71.875 
Q 32.46875 71.875 37.390625 69.359375 
Q 42.328125 66.84375 44.9375 62.5 
Q 47.5625 58.15625 47.5625 53.265625 
Q 47.5625 48.640625 45.0625 44.828125 
Q 42.578125 41.015625 37.703125 38.765625 
Q 44.046875 37.3125 47.5625 32.6875 
Q 51.078125 28.078125 51.078125 21.140625 
Q 51.078125 11.765625 44.234375 5.25 
Q 37.40625 -1.265625 26.953125 -1.265625 
Q 17.53125 -1.265625 11.296875 4.34375 
Q 5.078125 9.96875 4.203125 18.890625 
" id="ArialMT-33"/>
      </defs>
      <g style="fill:#262626;" transform="translate(148.142873707 391.4480625)scale(0.14 -0.14)">
       <use xlink:href="#ArialMT-32"/>
       <use x="55.615234375" xlink:href="#ArialMT-30"/>
       <use x="111.23046875" xlink:href="#ArialMT-30"/>
       <use x="166.845703125" xlink:href="#ArialMT-33"/>
      </g>
     </g>
    </g>
    <g id="xtick_3">
     <g id="line2d_5"/>
     <g id="line2d_6"/>
     <g id="text_3">
      <!-- 2005 -->
      <defs>
       <path d="M 4.15625 18.75 
L 13.375 19.53125 
Q 14.40625 12.796875 18.140625 9.390625 
Q 21.875 6 27.15625 6 
Q 33.5 6 37.890625 10.78125 
Q 42.28125 15.578125 42.28125 23.484375 
Q 42.28125 31 38.0625 35.34375 
Q 33.84375 39.703125 27 39.703125 
Q 22.75 39.703125 19.328125 37.765625 
Q 15.921875 35.84375 13.96875 32.765625 
L 5.71875 33.84375 
L 12.640625 70.609375 
L 48.25 70.609375 
L 48.25 62.203125 
L 19.671875 62.203125 
L 15.828125 42.96875 
Q 22.265625 47.46875 29.34375 47.46875 
Q 38.71875 47.46875 45.15625 40.96875 
Q 51.609375 34.46875 51.609375 24.265625 
Q 51.609375 14.546875 45.953125 7.46875 
Q 39.0625 -1.21875 27.15625 -1.21875 
Q 17.390625 -1.21875 11.203125 4.25 
Q 5.03125 9.71875 4.15625 18.75 
" id="ArialMT-35"/>
      </defs>
      <g style="fill:#262626;" transform="translate(237.080804741 391.4480625)scale(0.14 -0.14)">
       <use xlink:href="#ArialMT-32"/>
       <use x="55.615234375" xlink:href="#ArialMT-30"/>
       <use x="111.23046875" xlink:href="#ArialMT-30"/>
       <use x="166.845703125" xlink:href="#ArialMT-35"/>
      </g>
     </g>
    </g>
    <g id="xtick_4">
     <g id="line2d_7"/>
     <g id="line2d_8"/>
     <g id="text_4">
      <!-- 2007 -->
      <defs>
       <path d="M 4.734375 62.203125 
L 4.734375 70.65625 
L 51.078125 70.65625 
L 51.078125 63.8125 
Q 44.234375 56.546875 37.515625 44.484375 
Q 30.8125 32.421875 27.15625 19.671875 
Q 24.515625 10.6875 23.78125 0 
L 14.75 0 
Q 14.890625 8.453125 18.0625 20.40625 
Q 21.234375 32.375 27.171875 43.484375 
Q 33.109375 54.59375 39.796875 62.203125 
z
" id="ArialMT-37"/>
      </defs>
      <g style="fill:#262626;" transform="translate(326.660115086 391.4480625)scale(0.14 -0.14)">
       <use xlink:href="#ArialMT-32"/>
       <use x="55.615234375" xlink:href="#ArialMT-30"/>
       <use x="111.23046875" xlink:href="#ArialMT-30"/>
       <use x="166.845703125" xlink:href="#ArialMT-37"/>
      </g>
     </g>
    </g>
    <g id="xtick_5">
     <g id="line2d_9"/>
     <g id="line2d_10"/>
     <g id="text_5">
      <!-- 2009 -->
      <defs>
       <path d="M 5.46875 16.546875 
L 13.921875 17.328125 
Q 14.984375 11.375 18.015625 8.6875 
Q 21.046875 6 25.78125 6 
Q 29.828125 6 32.875 7.859375 
Q 35.9375 9.71875 37.890625 12.8125 
Q 39.84375 15.921875 41.15625 21.1875 
Q 42.484375 26.46875 42.484375 31.9375 
Q 42.484375 32.515625 42.4375 33.6875 
Q 39.796875 29.5 35.234375 26.875 
Q 30.671875 24.265625 25.34375 24.265625 
Q 16.453125 24.265625 10.296875 30.703125 
Q 4.15625 37.15625 4.15625 47.703125 
Q 4.15625 58.59375 10.578125 65.234375 
Q 17 71.875 26.65625 71.875 
Q 33.640625 71.875 39.421875 68.109375 
Q 45.21875 64.359375 48.21875 57.390625 
Q 51.21875 50.4375 51.21875 37.25 
Q 51.21875 23.53125 48.234375 15.40625 
Q 45.265625 7.28125 39.375 3.03125 
Q 33.5 -1.21875 25.59375 -1.21875 
Q 17.1875 -1.21875 11.859375 3.4375 
Q 6.546875 8.109375 5.46875 16.546875 
M 41.453125 48.140625 
Q 41.453125 55.71875 37.421875 60.15625 
Q 33.40625 64.59375 27.734375 64.59375 
Q 21.875 64.59375 17.53125 59.8125 
Q 13.1875 55.03125 13.1875 47.40625 
Q 13.1875 40.578125 17.3125 36.296875 
Q 21.4375 32.03125 27.484375 32.03125 
Q 33.59375 32.03125 37.515625 36.296875 
Q 41.453125 40.578125 41.453125 48.140625 
" id="ArialMT-39"/>
      </defs>
      <g style="fill:#262626;" transform="translate(415.811839224 391.4480625)scale(0.14 -0.14)">
       <use xlink:href="#ArialMT-32"/>
       <use x="55.615234375" xlink:href="#ArialMT-30"/>
       <use x="111.23046875" xlink:href="#ArialMT-30"/>
       <use x="166.845703125" xlink:href="#ArialMT-39"/>
      </g>
     </g>
    </g>
    <g id="xtick_6">
     <g id="line2d_11"/>
     <g id="line2d_12"/>
     <g id="text_6">
      <!-- 2011 -->
      <g style="fill:#262626;" transform="translate(504.757426509 391.4480625)scale(0.14 -0.14)">
       <use xlink:href="#ArialMT-32"/>
       <use x="55.615234375" xlink:href="#ArialMT-30"/>
       <use x="111.23046875" xlink:href="#ArialMT-31"/>
       <use x="166.736328125" xlink:href="#ArialMT-31"/>
      </g>
     </g>
    </g>
    <g id="xtick_7">
     <g id="line2d_13"/>
     <g id="line2d_14"/>
     <g id="text_7">
      <!-- 2013 -->
      <g style="fill:#262626;" transform="translate(594.329080603 391.4480625)scale(0.14 -0.14)">
       <use xlink:href="#ArialMT-32"/>
       <use x="55.615234375" xlink:href="#ArialMT-30"/>
       <use x="111.23046875" xlink:href="#ArialMT-31"/>
       <use x="166.845703125" xlink:href="#ArialMT-33"/>
      </g>
     </g>
    </g>
    <g id="xtick_8">
     <g id="line2d_15"/>
     <g id="line2d_16"/>
     <g id="text_8">
      <!-- 2015 -->
      <g style="fill:#262626;" transform="translate(683.480804741 391.4480625)scale(0.14 -0.14)">
       <use xlink:href="#ArialMT-32"/>
       <use x="55.615234375" xlink:href="#ArialMT-30"/>
       <use x="111.23046875" xlink:href="#ArialMT-31"/>
       <use x="166.845703125" xlink:href="#ArialMT-35"/>
      </g>
     </g>
    </g>
   </g>
   <g id="matplotlib.axis_2">
    <g id="ytick_1">
     <g id="line2d_17">
      <path clip-path="url(#p137b6ab9c6)" d="M 51.685913 377.427125 
L 721.285912 377.427125 
" style="fill:none;stroke:#cccccc;stroke-linecap:round;"/>
     </g>
     <g id="line2d_18"/>
     <g id="line2d_19"/>
     <g id="text_9">
      <!-- 0 -->
      <g style="fill:#262626;" transform="translate(39.124975 380.01228125)scale(0.1 -0.1)">
       <use xlink:href="#ArialMT-30"/>
      </g>
     </g>
    </g>
    <g id="ytick_2">
     <g id="line2d_20">
      <path clip-path="url(#p137b6ab9c6)" d="M 51.685913 340.227125 
L 721.285912 340.227125 
" style="fill:none;stroke:#cccccc;stroke-linecap:round;"/>
     </g>
     <g id="line2d_21"/>
     <g id="line2d_22"/>
     <g id="text_10">
      <!-- 50 -->
      <g style="fill:#262626;" transform="translate(33.5640375 342.81228125)scale(0.1 -0.1)">
       <use xlink:href="#ArialMT-35"/>
       <use x="55.615234375" xlink:href="#ArialMT-30"/>
      </g>
     </g>
    </g>
    <g id="ytick_3">
     <g id="line2d_23">
      <path clip-path="url(#p137b6ab9c6)" d="M 51.685913 303.027125 
L 721.285912 303.027125 
" style="fill:none;stroke:#cccccc;stroke-linecap:round;"/>
     </g>
     <g id="line2d_24"/>
     <g id="line2d_25"/>
     <g id="text_11">
      <!-- 100 -->
      <g style="fill:#262626;" transform="translate(28.0031 305.61228125)scale(0.1 -0.1)">
       <use xlink:href="#ArialMT-31"/>
       <use x="55.615234375" xlink:href="#ArialMT-30"/>
       <use x="111.23046875" xlink:href="#ArialMT-30"/>
      </g>
     </g>
    </g>
    <g id="ytick_4">
     <g id="line2d_26">
      <path clip-path="url(#p137b6ab9c6)" d="M 51.685913 265.827125 
L 721.285912 265.827125 
" style="fill:none;stroke:#cccccc;stroke-linecap:round;"/>
     </g>
     <g id="line2d_27"/>
     <g id="line2d_28"/>
     <g id="text_12">
      <!-- 150 -->
      <g style="fill:#262626;" transform="translate(28.0031 268.41228125)scale(0.1 -0.1)">
       <use xlink:href="#ArialMT-31"/>
       <use x="55.615234375" xlink:href="#ArialMT-35"/>
       <use x="111.23046875" xlink:href="#ArialMT-30"/>
      </g>
     </g>
    </g>
    <g id="ytick_5">
     <g id="line2d_29">
      <path clip-path="url(#p137b6ab9c6)" d="M 51.685913 228.627125 
L 721.285912 228.627125 
" style="fill:none;stroke:#cccccc;stroke-linecap:round;"/>
     </g>
     <g id="line2d_30"/>
     <g id="line2d_31"/>
     <g id="text_13">
      <!-- 200 -->
      <g style="fill:#262626;" transform="translate(28.0031 231.21228125)scale(0.1 -0.1)">
       <use xlink:href="#ArialMT-32"/>
       <use x="55.615234375" xlink:href="#ArialMT-30"/>
       <use x="111.23046875" xlink:href="#ArialMT-30"/>
      </g>
     </g>
    </g>
    <g id="ytick_6">
     <g id="line2d_32">
      <path clip-path="url(#p137b6ab9c6)" d="M 51.685913 191.427125 
L 721.285912 191.427125 
" style="fill:none;stroke:#cccccc;stroke-linecap:round;"/>
     </g>
     <g id="line2d_33"/>
     <g id="line2d_34"/>
     <g id="text_14">
      <!-- 250 -->
      <g style="fill:#262626;" transform="translate(28.0031 194.01228125)scale(0.1 -0.1)">
       <use xlink:href="#ArialMT-32"/>
       <use x="55.615234375" xlink:href="#ArialMT-35"/>
       <use x="111.23046875" xlink:href="#ArialMT-30"/>
      </g>
     </g>
    </g>
    <g id="ytick_7">
     <g id="line2d_35">
      <path clip-path="url(#p137b6ab9c6)" d="M 51.685913 154.227125 
L 721.285912 154.227125 
" style="fill:none;stroke:#cccccc;stroke-linecap:round;"/>
     </g>
     <g id="line2d_36"/>
     <g id="line2d_37"/>
     <g id="text_15">
      <!-- 300 -->
      <g style="fill:#262626;" transform="translate(28.0031 156.81228125)scale(0.1 -0.1)">
       <use xlink:href="#ArialMT-33"/>
       <use x="55.615234375" xlink:href="#ArialMT-30"/>
       <use x="111.23046875" xlink:href="#ArialMT-30"/>
      </g>
     </g>
    </g>
    <g id="ytick_8">
     <g id="line2d_38">
      <path clip-path="url(#p137b6ab9c6)" d="M 51.685913 117.027125 
L 721.285912 117.027125 
" style="fill:none;stroke:#cccccc;stroke-linecap:round;"/>
     </g>
     <g id="line2d_39"/>
     <g id="line2d_40"/>
     <g id="text_16">
      <!-- 350 -->
      <g style="fill:#262626;" transform="translate(28.0031 119.61228125)scale(0.1 -0.1)">
       <use xlink:href="#ArialMT-33"/>
       <use x="55.615234375" xlink:href="#ArialMT-35"/>
       <use x="111.23046875" xlink:href="#ArialMT-30"/>
      </g>
     </g>
    </g>
    <g id="ytick_9">
     <g id="line2d_41">
      <path clip-path="url(#p137b6ab9c6)" d="M 51.685913 79.827125 
L 721.285912 79.827125 
" style="fill:none;stroke:#cccccc;stroke-linecap:round;"/>
     </g>
     <g id="line2d_42"/>
     <g id="line2d_43"/>
     <g id="text_17">
      <!-- 400 -->
      <defs>
       <path d="M 32.328125 0 
L 32.328125 17.140625 
L 1.265625 17.140625 
L 1.265625 25.203125 
L 33.9375 71.578125 
L 41.109375 71.578125 
L 41.109375 25.203125 
L 50.78125 25.203125 
L 50.78125 17.140625 
L 41.109375 17.140625 
L 41.109375 0 
z
M 32.328125 25.203125 
L 32.328125 57.46875 
L 9.90625 25.203125 
z
" id="ArialMT-34"/>
      </defs>
      <g style="fill:#262626;" transform="translate(28.0031 82.41228125)scale(0.1 -0.1)">
       <use xlink:href="#ArialMT-34"/>
       <use x="55.615234375" xlink:href="#ArialMT-30"/>
       <use x="111.23046875" xlink:href="#ArialMT-30"/>
      </g>
     </g>
    </g>
    <g id="ytick_10">
     <g id="line2d_44">
      <path clip-path="url(#p137b6ab9c6)" d="M 51.685913 42.627125 
L 721.285912 42.627125 
" style="fill:none;stroke:#cccccc;stroke-linecap:round;"/>
     </g>
     <g id="line2d_45"/>
     <g id="line2d_46"/>
     <g id="text_18">
      <!-- 450 -->
      <g style="fill:#262626;" transform="translate(28.0031 45.21228125)scale(0.1 -0.1)">
       <use xlink:href="#ArialMT-34"/>
       <use x="55.615234375" xlink:href="#ArialMT-35"/>
       <use x="111.23046875" xlink:href="#ArialMT-30"/>
      </g>
     </g>
    </g>
    <g id="text_19">
     <!-- Accidents / Week -->
     <defs>
      <path d="M 40.4375 19 
L 49.078125 17.875 
Q 47.65625 8.9375 41.8125 3.875 
Q 35.984375 -1.171875 27.484375 -1.171875 
Q 16.84375 -1.171875 10.375 5.78125 
Q 3.90625 12.75 3.90625 25.734375 
Q 3.90625 34.125 6.6875 40.421875 
Q 9.46875 46.734375 15.15625 49.875 
Q 20.84375 53.03125 27.546875 53.03125 
Q 35.984375 53.03125 41.359375 48.75 
Q 46.734375 44.484375 48.25 36.625 
L 39.703125 35.296875 
Q 38.484375 40.53125 35.375 43.15625 
Q 32.28125 45.796875 27.875 45.796875 
Q 21.234375 45.796875 17.078125 41.03125 
Q 12.9375 36.28125 12.9375 25.984375 
Q 12.9375 15.53125 16.9375 10.796875 
Q 20.953125 6.0625 27.390625 6.0625 
Q 32.5625 6.0625 36.03125 9.234375 
Q 39.5 12.40625 40.4375 19 
" id="ArialMT-63"/>
      <path d="M 42.09375 16.703125 
L 51.171875 15.578125 
Q 49.03125 7.625 43.21875 3.21875 
Q 37.40625 -1.171875 28.375 -1.171875 
Q 17 -1.171875 10.328125 5.828125 
Q 3.65625 12.84375 3.65625 25.484375 
Q 3.65625 38.578125 10.390625 45.796875 
Q 17.140625 53.03125 27.875 53.03125 
Q 38.28125 53.03125 44.875 45.953125 
Q 51.46875 38.875 51.46875 26.03125 
Q 51.46875 25.25 51.421875 23.6875 
L 12.75 23.6875 
Q 13.234375 15.140625 17.578125 10.59375 
Q 21.921875 6.0625 28.421875 6.0625 
Q 33.25 6.0625 36.671875 8.59375 
Q 40.09375 11.140625 42.09375 16.703125 
M 13.234375 30.90625 
L 42.1875 30.90625 
Q 41.609375 37.453125 38.875 40.71875 
Q 34.671875 45.796875 27.984375 45.796875 
Q 21.921875 45.796875 17.796875 41.75 
Q 13.671875 37.703125 13.234375 30.90625 
" id="ArialMT-65"/>
      <path d="M 40.234375 0 
L 40.234375 6.546875 
Q 35.296875 -1.171875 25.734375 -1.171875 
Q 19.53125 -1.171875 14.328125 2.25 
Q 9.125 5.671875 6.265625 11.796875 
Q 3.421875 17.921875 3.421875 25.875 
Q 3.421875 33.640625 6 39.96875 
Q 8.59375 46.296875 13.765625 49.65625 
Q 18.953125 53.03125 25.34375 53.03125 
Q 30.03125 53.03125 33.6875 51.046875 
Q 37.359375 49.078125 39.65625 45.90625 
L 39.65625 71.578125 
L 48.390625 71.578125 
L 48.390625 0 
z
M 12.453125 25.875 
Q 12.453125 15.921875 16.640625 10.984375 
Q 20.84375 6.0625 26.5625 6.0625 
Q 32.328125 6.0625 36.34375 10.765625 
Q 40.375 15.484375 40.375 25.140625 
Q 40.375 35.796875 36.265625 40.765625 
Q 32.171875 45.75 26.171875 45.75 
Q 20.3125 45.75 16.375 40.96875 
Q 12.453125 36.1875 12.453125 25.875 
" id="ArialMT-64"/>
      <path d="M -0.140625 0 
L 27.34375 71.578125 
L 37.546875 71.578125 
L 66.84375 0 
L 56.0625 0 
L 47.703125 21.6875 
L 17.78125 21.6875 
L 9.90625 0 
z
M 20.515625 29.390625 
L 44.78125 29.390625 
L 37.3125 49.21875 
Q 33.890625 58.25 32.234375 64.0625 
Q 30.859375 57.171875 28.375 50.390625 
z
" id="ArialMT-41"/>
      <path d="M 0 -1.21875 
L 20.75 72.796875 
L 27.78125 72.796875 
L 7.078125 -1.21875 
z
" id="ArialMT-2f"/>
      <path d="M 6.640625 61.46875 
L 6.640625 71.578125 
L 15.4375 71.578125 
L 15.4375 61.46875 
z
M 6.640625 0 
L 6.640625 51.859375 
L 15.4375 51.859375 
L 15.4375 0 
z
" id="ArialMT-69"/>
      <path d="M 6.640625 0 
L 6.640625 71.578125 
L 15.4375 71.578125 
L 15.4375 30.765625 
L 36.234375 51.859375 
L 47.609375 51.859375 
L 27.78125 32.625 
L 49.609375 0 
L 38.765625 0 
L 21.625 26.515625 
L 15.4375 20.5625 
L 15.4375 0 
z
" id="ArialMT-6b"/>
      <path d="M 20.21875 0 
L 1.21875 71.578125 
L 10.9375 71.578125 
L 21.828125 24.65625 
Q 23.578125 17.28125 24.859375 10.015625 
Q 27.59375 21.484375 28.078125 23.25 
L 41.703125 71.578125 
L 53.125 71.578125 
L 63.375 35.359375 
Q 67.234375 21.875 68.953125 10.015625 
Q 70.3125 16.796875 72.515625 25.59375 
L 83.734375 71.578125 
L 93.265625 71.578125 
L 73.640625 0 
L 64.5 0 
L 49.421875 54.546875 
Q 47.515625 61.375 47.171875 62.9375 
Q 46.046875 58.015625 45.0625 54.546875 
L 29.890625 0 
z
" id="ArialMT-57"/>
      <path d="M 3.078125 15.484375 
L 11.765625 16.84375 
Q 12.5 11.625 15.84375 8.84375 
Q 19.1875 6.0625 25.203125 6.0625 
Q 31.25 6.0625 34.171875 8.515625 
Q 37.109375 10.984375 37.109375 14.3125 
Q 37.109375 17.28125 34.515625 19 
Q 32.71875 20.171875 25.53125 21.96875 
Q 15.875 24.421875 12.140625 26.203125 
Q 8.40625 27.984375 6.46875 31.125 
Q 4.546875 34.28125 4.546875 38.09375 
Q 4.546875 41.546875 6.125 44.5 
Q 7.71875 47.46875 10.453125 49.421875 
Q 12.5 50.921875 16.03125 51.96875 
Q 19.578125 53.03125 23.640625 53.03125 
Q 29.734375 53.03125 34.34375 51.265625 
Q 38.96875 49.515625 41.15625 46.5 
Q 43.359375 43.5 44.1875 38.484375 
L 35.59375 37.3125 
Q 35.015625 41.3125 32.203125 43.546875 
Q 29.390625 45.796875 24.265625 45.796875 
Q 18.21875 45.796875 15.625 43.796875 
Q 13.03125 41.796875 13.03125 39.109375 
Q 13.03125 37.40625 14.109375 36.03125 
Q 15.1875 34.625 17.484375 33.6875 
Q 18.796875 33.203125 25.25 31.453125 
Q 34.578125 28.953125 38.25 27.359375 
Q 41.9375 25.78125 44.03125 22.75 
Q 46.140625 19.734375 46.140625 15.234375 
Q 46.140625 10.84375 43.578125 6.953125 
Q 41.015625 3.078125 36.171875 0.953125 
Q 31.34375 -1.171875 25.25 -1.171875 
Q 15.140625 -1.171875 9.84375 3.03125 
Q 4.546875 7.234375 3.078125 15.484375 
" id="ArialMT-73"/>
      <path d="M 25.78125 7.859375 
L 27.046875 0.09375 
Q 23.34375 -0.6875 20.40625 -0.6875 
Q 15.625 -0.6875 12.984375 0.828125 
Q 10.359375 2.34375 9.28125 4.8125 
Q 8.203125 7.28125 8.203125 15.1875 
L 8.203125 45.015625 
L 1.765625 45.015625 
L 1.765625 51.859375 
L 8.203125 51.859375 
L 8.203125 64.703125 
L 16.9375 69.96875 
L 16.9375 51.859375 
L 25.78125 51.859375 
L 25.78125 45.015625 
L 16.9375 45.015625 
L 16.9375 14.703125 
Q 16.9375 10.9375 17.40625 9.859375 
Q 17.875 8.796875 18.921875 8.15625 
Q 19.96875 7.515625 21.921875 7.515625 
Q 23.390625 7.515625 25.78125 7.859375 
" id="ArialMT-74"/>
      <path d="M 6.59375 0 
L 6.59375 51.859375 
L 14.5 51.859375 
L 14.5 44.484375 
Q 20.21875 53.03125 31 53.03125 
Q 35.6875 53.03125 39.625 51.34375 
Q 43.5625 49.65625 45.515625 46.921875 
Q 47.46875 44.1875 48.25 40.4375 
Q 48.734375 37.984375 48.734375 31.890625 
L 48.734375 0 
L 39.9375 0 
L 39.9375 31.546875 
Q 39.9375 36.921875 38.90625 39.578125 
Q 37.890625 42.234375 35.28125 43.8125 
Q 32.671875 45.40625 29.15625 45.40625 
Q 23.53125 45.40625 19.453125 41.84375 
Q 15.375 38.28125 15.375 28.328125 
L 15.375 0 
z
" id="ArialMT-6e"/>
      <path id="ArialMT-20"/>
     </defs>
     <g style="fill:#262626;" transform="translate(19.5687 276.768425)rotate(-90.0)scale(0.1728 -0.1728)">
      <use xlink:href="#ArialMT-41"/>
      <use x="66.69921875" xlink:href="#ArialMT-63"/>
      <use x="116.69921875" xlink:href="#ArialMT-63"/>
      <use x="166.69921875" xlink:href="#ArialMT-69"/>
      <use x="188.916015625" xlink:href="#ArialMT-64"/>
      <use x="244.53125" xlink:href="#ArialMT-65"/>
      <use x="300.146484375" xlink:href="#ArialMT-6e"/>
      <use x="355.76171875" xlink:href="#ArialMT-74"/>
      <use x="383.544921875" xlink:href="#ArialMT-73"/>
      <use x="433.544921875" xlink:href="#ArialMT-20"/>
      <use x="461.328125" xlink:href="#ArialMT-2f"/>
      <use x="489.111328125" xlink:href="#ArialMT-20"/>
      <use x="516.89453125" xlink:href="#ArialMT-57"/>
      <use x="611.263671875" xlink:href="#ArialMT-65"/>
      <use x="666.87890625" xlink:href="#ArialMT-65"/>
      <use x="722.494140625" xlink:href="#ArialMT-6b"/>
     </g>
    </g>
   </g>
   <g id="patch_3">
    <path clip-path="url(#p137b6ab9c6)" d="M 97.01005 377.427125 
L 97.01005 42.627125 
L 141.479016 42.627125 
L 141.479016 377.427125 
z
" style="opacity:0.05;stroke:#000000;stroke-linejoin:miter;stroke-width:0.3;"/>
   </g>
   <g id="patch_4">
    <path clip-path="url(#p137b6ab9c6)" d="M 185.947981 377.427125 
L 185.947981 42.627125 
L 230.416947 42.627125 
L 230.416947 377.427125 
z
" style="opacity:0.05;stroke:#000000;stroke-linejoin:miter;stroke-width:0.3;"/>
   </g>
   <g id="patch_5">
    <path clip-path="url(#p137b6ab9c6)" d="M 274.885912 377.427125 
L 274.885912 42.627125 
L 319.354878 42.627125 
L 319.354878 377.427125 
z
" style="opacity:0.05;stroke:#000000;stroke-linejoin:miter;stroke-width:0.3;"/>
   </g>
   <g id="patch_6">
    <path clip-path="url(#p137b6ab9c6)" d="M 364.679016 377.427125 
L 364.679016 42.627125 
L 409.147981 42.627125 
L 409.147981 377.427125 
z
" style="opacity:0.05;stroke:#000000;stroke-linejoin:miter;stroke-width:0.3;"/>
   </g>
   <g id="patch_7">
    <path clip-path="url(#p137b6ab9c6)" d="M 453.616947 377.427125 
L 453.616947 42.627125 
L 498.085912 42.627125 
L 498.085912 377.427125 
z
" style="opacity:0.05;stroke:#000000;stroke-linejoin:miter;stroke-width:0.3;"/>
   </g>
   <g id="patch_8">
    <path clip-path="url(#p137b6ab9c6)" d="M 542.554878 377.427125 
L 542.554878 42.627125 
L 587.879016 42.627125 
L 587.879016 377.427125 
z
" style="opacity:0.05;stroke:#000000;stroke-linejoin:miter;stroke-width:0.3;"/>
   </g>
   <g id="patch_9">
    <path clip-path="url(#p137b6ab9c6)" d="M 632.347981 377.427125 
L 632.347981 42.627125 
L 676.816947 42.627125 
L 676.816947 377.427125 
z
" style="opacity:0.05;stroke:#000000;stroke-linejoin:miter;stroke-width:0.3;"/>
   </g>
   <g id="patch_10">
    <path clip-path="url(#p137b6ab9c6)" d="M 721.285913 377.427125 
L 721.285913 42.627125 
L 765.754878 42.627125 
L 765.754878 377.427125 
z
" style="opacity:0.05;stroke:#000000;stroke-linejoin:miter;stroke-width:0.3;"/>
   </g>
   <g id="line2d_47">
    <path clip-path="url(#p137b6ab9c6)" d="M 51.685913 361.059125 
L 52.541085 288.891125 
L 53.396257 321.627125 
L 54.25143 284.427125 
L 55.106602 301.539125 
L 55.961775 265.083125 
L 56.816947 310.467125 
L 57.672119 297.075125 
L 58.527292 323.115125 
L 59.382464 304.515125 
L 60.237637 240.531125 
L 61.092809 221.931125 
L 61.947981 235.323125 
L 62.803154 221.931125 
L 63.658326 283.683125 
L 64.513499 241.275125 
L 65.368671 246.483125 
L 66.223844 207.795125 
L 67.079016 195.147125 
L 67.934188 230.115125 
L 68.789361 205.563125 
L 69.644533 217.467125 
L 70.499706 196.635125 
L 71.354878 192.915125 
L 72.21005 186.963125 
L 73.065223 184.731125 
L 73.920395 201.843125 
L 74.775568 201.099125 
L 75.63074 195.147125 
L 76.485913 184.731125 
L 77.341085 218.211125 
L 78.196257 195.147125 
L 79.05143 195.891125 
L 79.906602 198.867125 
L 80.761775 163.155125 
L 81.616947 175.803125 
L 83.327292 213.747125 
L 84.182464 202.587125 
L 85.037637 199.611125 
L 85.892809 195.147125 
L 86.747981 215.979125 
L 87.603154 218.955125 
L 88.458326 222.675125 
L 89.313499 248.715125 
L 90.168671 243.507125 
L 91.023844 263.595125 
L 91.879016 276.243125 
L 92.734188 297.819125 
L 93.589361 260.619125 
L 94.444533 289.635125 
L 95.299706 289.635125 
L 96.154878 328.323125 
L 97.01005 295.587125 
L 97.865223 242.019125 
L 98.720395 264.339125 
L 99.575568 291.123125 
L 100.43074 275.499125 
L 101.285912 276.243125 
L 102.141085 265.083125 
L 102.996257 232.347125 
L 103.85143 227.883125 
L 104.706602 257.643125 
L 105.561775 262.851125 
L 106.416947 253.923125 
L 107.272119 202.587125 
L 108.127292 240.531125 
L 108.982464 214.491125 
L 109.837637 221.187125 
L 110.692809 231.603125 
L 111.547981 222.675125 
L 112.403154 191.427125 
L 113.258326 215.979125 
L 114.113499 183.987125 
L 114.968671 192.915125 
L 115.823844 192.171125 
L 116.679016 181.011125 
L 117.534188 208.539125 
L 118.389361 172.083125 
L 119.244533 173.571125 
L 120.099706 179.523125 
L 120.954878 187.707125 
L 121.81005 198.867125 
L 122.665223 189.195125 
L 123.520395 182.499125 
L 124.375568 228.627125 
L 125.23074 191.427125 
L 126.085912 180.267125 
L 126.941085 192.915125 
L 127.796257 194.403125 
L 128.65143 163.899125 
L 129.506602 172.083125 
L 130.361775 189.195125 
L 131.216947 210.771125 
L 132.072119 214.491125 
L 132.927292 246.483125 
L 133.782464 192.171125 
L 134.637637 268.059125 
L 136.347981 207.795125 
L 137.203154 269.547125 
L 138.058326 257.643125 
L 139.768671 303.771125 
L 140.623844 288.891125 
L 141.479016 265.083125 
L 142.334188 285.171125 
L 143.189361 233.091125 
L 144.044533 252.435125 
L 144.899706 213.747125 
L 145.754878 243.507125 
L 146.61005 306.747125 
L 147.465223 242.763125 
L 148.320395 267.315125 
L 149.175568 201.099125 
L 150.03074 253.179125 
L 150.885912 209.283125 
L 151.741085 192.915125 
L 152.596257 233.835125 
L 153.45143 244.995125 
L 154.306602 250.947125 
L 155.161775 230.115125 
L 156.016947 246.483125 
L 156.872119 218.211125 
L 157.727292 181.011125 
L 158.582464 166.875125 
L 159.437637 198.123125 
L 160.292809 187.707125 
L 161.147981 166.875125 
L 162.003154 187.707125 
L 162.858326 157.947125 
L 163.713499 143.067125 
L 164.568671 156.459125 
L 165.423844 175.803125 
L 166.279016 158.691125 
L 167.134188 167.619125 
L 167.989361 171.339125 
L 168.844533 129.675125 
L 169.699706 185.475125 
L 170.554878 132.651125 
L 171.41005 149.763125 
L 172.265223 164.643125 
L 173.120395 166.875125 
L 173.975568 154.227125 
L 174.83074 171.339125 
L 175.685913 166.131125 
L 176.541085 146.787125 
L 177.396257 166.131125 
L 178.25143 224.907125 
L 179.106602 250.203125 
L 179.961775 252.435125 
L 180.816947 224.163125 
L 181.672119 261.363125 
L 182.527292 285.171125 
L 183.382464 265.827125 
L 184.237637 274.755125 
L 185.092809 307.491125 
L 185.947981 297.075125 
L 186.803154 265.083125 
L 187.658326 252.435125 
L 188.513499 265.827125 
L 189.368671 272.523125 
L 190.223844 243.507125 
L 191.079016 223.419125 
L 191.934188 321.627125 
L 192.789361 285.915125 
L 193.644533 211.515125 
L 194.499706 186.963125 
L 195.354878 187.707125 
L 196.21005 212.259125 
L 197.065223 217.467125 
L 197.920395 179.523125 
L 198.775568 239.787125 
L 199.63074 175.059125 
L 200.485913 171.339125 
L 201.341085 204.075125 
L 202.196257 188.451125 
L 203.05143 185.475125 
L 203.906602 161.667125 
L 204.761775 183.243125 
L 205.616947 168.363125 
L 206.472119 192.171125 
L 207.327292 200.355125 
L 208.182464 139.347125 
L 209.037637 181.755125 
L 209.892809 167.619125 
L 210.747981 172.827125 
L 211.603154 163.899125 
L 212.458326 192.915125 
L 213.313499 189.195125 
L 214.168671 189.939125 
L 215.023844 173.571125 
L 215.879016 163.155125 
L 216.734188 195.147125 
L 217.589361 197.379125 
L 218.444533 168.363125 
L 219.299706 200.355125 
L 220.154878 178.779125 
L 221.01005 218.211125 
L 221.865223 264.339125 
L 222.720395 251.691125 
L 223.575568 254.667125 
L 224.43074 246.483125 
L 225.285912 246.483125 
L 226.996257 282.195125 
L 228.706602 237.555125 
L 229.561775 279.219125 
L 230.416947 335.019125 
L 231.272119 330.555125 
L 232.127292 262.851125 
L 232.982464 249.459125 
L 233.837637 284.427125 
L 234.692809 242.763125 
L 235.547981 287.403125 
L 236.403154 311.955125 
L 237.258326 261.363125 
L 238.113499 242.019125 
L 238.968671 210.027125 
L 239.823844 289.635125 
L 240.679016 262.107125 
L 241.534188 226.395125 
L 242.389361 232.347125 
L 243.244533 195.147125 
L 244.099706 227.883125 
L 244.954878 236.811125 
L 245.81005 237.555125 
L 246.665223 165.387125 
L 247.520395 166.131125 
L 248.375568 178.779125 
L 249.23074 180.267125 
L 250.085912 207.795125 
L 250.941085 195.891125 
L 251.796257 161.667125 
L 252.65143 138.603125 
L 254.361775 183.987125 
L 255.216947 161.667125 
L 256.072119 163.899125 
L 256.927292 178.779125 
L 257.782464 175.803125 
L 258.637637 158.691125 
L 259.492809 134.883125 
L 260.347981 169.851125 
L 261.203154 141.579125 
L 262.058326 164.643125 
L 262.913499 157.203125 
L 263.768671 158.691125 
L 264.623844 155.715125 
L 265.479016 192.915125 
L 266.334188 221.187125 
L 267.189361 207.795125 
L 268.899706 215.235125 
L 269.754878 187.707125 
L 270.61005 239.787125 
L 271.465223 250.947125 
L 272.320395 235.323125 
L 273.175568 282.195125 
L 274.03074 276.987125 
L 274.885912 308.979125 
L 275.741085 250.947125 
L 276.596257 260.619125 
L 277.45143 254.667125 
L 278.306602 241.275125 
L 279.161775 251.691125 
L 280.016947 186.219125 
L 280.872119 247.227125 
L 281.727292 224.907125 
L 282.582464 287.403125 
L 283.437637 303.771125 
L 284.292809 262.107125 
L 285.147981 244.995125 
L 286.003154 291.123125 
L 286.858326 247.971125 
L 287.713499 253.179125 
L 288.568671 189.195125 
L 289.423844 193.659125 
L 290.279016 163.155125 
L 291.134188 138.603125 
L 291.989361 183.987125 
L 292.844533 158.691125 
L 293.699706 143.067125 
L 294.554878 155.715125 
L 295.41005 138.603125 
L 296.265223 160.923125 
L 297.120395 154.227125 
L 297.975568 178.035125 
L 298.83074 160.923125 
L 299.685913 172.827125 
L 300.541085 175.059125 
L 301.396257 164.643125 
L 302.25143 121.491125 
L 303.106602 142.323125 
L 303.961775 157.203125 
L 304.816947 166.131125 
L 305.672119 153.483125 
L 306.527292 154.227125 
L 307.382464 111.075125 
L 308.237637 149.019125 
L 309.947981 198.867125 
L 310.803154 143.067125 
L 311.658326 192.171125 
L 312.513499 199.611125 
L 313.368671 201.843125 
L 314.223844 192.915125 
L 315.079016 234.579125 
L 315.934188 236.811125 
L 316.789361 250.947125 
L 317.644533 279.963125 
L 318.499706 267.315125 
L 319.354878 266.571125 
L 320.21005 256.899125 
L 321.065223 279.219125 
L 321.920395 263.595125 
L 322.775568 274.011125 
L 323.63074 235.323125 
L 324.485913 268.803125 
L 325.341085 204.819125 
L 326.196257 280.707125 
L 327.05143 203.331125 
L 327.906602 161.667125 
L 328.761775 165.387125 
L 329.616947 213.747125 
L 330.472119 191.427125 
L 331.327292 200.355125 
L 332.182464 211.515125 
L 333.037637 240.531125 
L 333.892809 142.323125 
L 334.747981 152.739125 
L 335.603154 144.555125 
L 336.458326 143.811125 
L 337.313499 133.395125 
L 338.168671 158.691125 
L 339.023844 137.115125 
L 339.879016 118.515125 
L 340.734188 135.627125 
L 341.589361 137.859125 
L 342.444533 146.043125 
L 343.299706 127.443125 
L 344.154878 125.955125 
L 345.01005 133.395125 
L 345.865223 143.067125 
L 346.720395 123.723125 
L 347.575568 159.435125 
L 348.43074 115.539125 
L 349.285912 130.419125 
L 350.141085 119.259125 
L 350.996257 125.211125 
L 351.85143 194.403125 
L 352.706602 164.643125 
L 353.561775 125.955125 
L 354.416947 160.923125 
L 355.272119 189.939125 
L 356.127292 172.827125 
L 356.982464 172.827125 
L 357.837637 182.499125 
L 358.692809 183.243125 
L 359.547981 201.099125 
L 361.258326 248.715125 
L 362.113499 224.907125 
L 362.968671 254.667125 
L 363.823844 274.011125 
L 364.679016 317.163125 
L 365.534188 226.395125 
L 366.389361 230.115125 
L 367.244533 315.675125 
L 368.099706 282.195125 
L 368.954878 184.731125 
L 369.81005 204.075125 
L 370.665223 297.075125 
L 371.520395 169.851125 
L 372.375568 167.619125 
L 373.23074 213.747125 
L 374.085912 176.547125 
L 374.941085 198.867125 
L 375.796257 205.563125 
L 376.65143 122.979125 
L 377.506602 167.619125 
L 378.361775 150.507125 
L 379.216947 146.787125 
L 380.072119 141.579125 
L 380.927292 113.307125 
L 381.782464 208.539125 
L 382.637637 131.163125 
L 383.492809 111.819125 
L 384.347981 102.891125 
L 385.203154 110.331125 
L 386.058326 121.491125 
L 386.913499 120.003125 
L 387.768671 124.467125 
L 388.623844 115.539125 
L 389.479016 120.747125 
L 390.334188 115.539125 
L 391.189361 140.091125 
L 392.044533 120.003125 
L 392.899706 131.907125 
L 393.754878 123.723125 
L 394.61005 122.979125 
L 395.465223 119.259125 
L 396.320395 134.139125 
L 397.175568 99.171125 
L 398.03074 151.251125 
L 398.885913 164.643125 
L 399.741085 120.003125 
L 400.596257 101.403125 
L 401.45143 183.243125 
L 402.306602 179.523125 
L 403.161775 129.675125 
L 404.016947 180.267125 
L 404.872119 243.507125 
L 405.727292 226.395125 
L 406.582464 233.835125 
L 407.437637 267.315125 
L 408.292809 289.635125 
L 410.003154 227.883125 
L 410.858326 181.011125 
L 411.713499 279.963125 
L 412.568671 195.147125 
L 413.423844 279.963125 
L 414.279016 304.515125 
L 415.134188 244.995125 
L 415.989361 208.539125 
L 416.844533 230.115125 
L 417.699706 196.635125 
L 418.554878 208.539125 
L 419.41005 163.155125 
L 420.265223 190.683125 
L 421.120395 238.299125 
L 421.975568 159.435125 
L 422.83074 177.291125 
L 423.685913 225.651125 
L 424.541085 145.299125 
L 425.396257 131.163125 
L 426.25143 137.115125 
L 427.106602 191.427125 
L 427.961775 213.747125 
L 428.816947 215.235125 
L 429.672119 163.155125 
L 430.527292 150.507125 
L 431.382464 154.227125 
L 432.237637 143.811125 
L 433.092809 158.691125 
L 433.947981 151.995125 
L 434.803154 163.155125 
L 435.658326 134.139125 
L 436.513499 146.043125 
L 437.368671 166.875125 
L 438.223844 178.779125 
L 439.079016 131.163125 
L 439.934188 155.715125 
L 440.789361 143.811125 
L 441.644533 166.131125 
L 442.499706 151.995125 
L 443.354878 165.387125 
L 444.21005 190.683125 
L 445.920395 181.755125 
L 446.775568 207.795125 
L 447.63074 192.915125 
L 448.485913 221.931125 
L 449.341085 236.067125 
L 450.196257 244.251125 
L 451.05143 294.099125 
L 451.906602 253.179125 
L 452.761775 292.611125 
L 453.616947 288.891125 
L 454.472119 246.483125 
L 455.327292 285.915125 
L 456.182464 314.931125 
L 457.037637 253.179125 
L 457.892809 282.939125 
L 458.747981 236.811125 
L 459.603154 234.579125 
L 460.458326 259.875125 
L 461.313499 248.715125 
L 463.023844 137.859125 
L 463.879016 169.851125 
L 464.734188 264.339125 
L 465.589361 222.675125 
L 466.444533 192.915125 
L 467.299706 197.379125 
L 468.154878 200.355125 
L 469.01005 158.691125 
L 469.865223 170.595125 
L 470.720395 198.123125 
L 471.575568 178.779125 
L 472.43074 154.971125 
L 473.285912 161.667125 
L 474.141085 151.251125 
L 474.996257 159.435125 
L 475.85143 175.059125 
L 476.706602 172.083125 
L 477.561775 155.715125 
L 478.416947 183.243125 
L 479.272119 162.411125 
L 480.127292 163.899125 
L 480.982464 184.731125 
L 481.837637 139.347125 
L 482.692809 148.275125 
L 483.547981 160.923125 
L 484.403154 178.035125 
L 485.258326 158.691125 
L 486.113499 133.395125 
L 486.968671 160.923125 
L 488.679016 204.075125 
L 489.534188 253.179125 
L 490.389361 191.427125 
L 491.244533 185.475125 
L 492.099706 189.939125 
L 492.954878 240.531125 
L 493.81005 279.219125 
L 494.665223 256.899125 
L 495.520395 248.715125 
L 496.375568 298.563125 
L 497.23074 285.915125 
L 498.085912 309.723125 
L 498.941085 260.619125 
L 499.796257 220.443125 
L 500.65143 191.427125 
L 501.506602 251.691125 
L 502.361775 205.563125 
L 503.216947 210.027125 
L 504.072119 306.003125 
L 505.782464 233.091125 
L 506.637637 221.187125 
L 507.492809 262.851125 
L 508.347981 276.987125 
L 509.203154 143.067125 
L 510.058326 215.979125 
L 510.913499 172.827125 
L 511.768671 242.763125 
L 512.623844 137.859125 
L 513.479016 169.107125 
L 514.334188 186.219125 
L 515.189361 186.219125 
L 516.044533 170.595125 
L 516.899706 198.123125 
L 517.754878 158.691125 
L 518.61005 162.411125 
L 519.465223 146.787125 
L 520.320395 127.443125 
L 521.175568 125.955125 
L 522.03074 149.019125 
L 522.885913 123.723125 
L 523.741085 149.019125 
L 524.596257 127.443125 
L 525.45143 143.811125 
L 526.306602 132.651125 
L 527.161775 145.299125 
L 528.016947 122.979125 
L 528.872119 139.347125 
L 529.727292 125.211125 
L 530.582464 139.347125 
L 531.437637 131.163125 
L 532.292809 208.539125 
L 533.147981 128.931125 
L 534.003154 120.003125 
L 535.713499 201.843125 
L 536.568671 220.443125 
L 537.423844 218.955125 
L 538.279016 233.835125 
L 539.134188 195.891125 
L 539.989361 229.371125 
L 540.844533 237.555125 
L 541.699706 252.435125 
L 542.554878 250.947125 
L 543.41005 213.747125 
L 544.265223 218.211125 
L 545.120395 266.571125 
L 545.975568 214.491125 
L 546.83074 199.611125 
L 547.685913 242.763125 
L 548.541085 218.211125 
L 549.396257 183.987125 
L 550.25143 190.683125 
L 551.106602 187.707125 
L 551.961775 240.531125 
L 552.816947 224.163125 
L 553.672119 195.891125 
L 554.527292 175.803125 
L 555.382464 217.467125 
L 556.237637 128.187125 
L 557.092809 184.731125 
L 557.947981 168.363125 
L 558.803154 155.715125 
L 559.658326 110.331125 
L 560.513499 186.219125 
L 561.368671 148.275125 
L 562.223844 152.739125 
L 563.079016 134.883125 
L 563.934188 149.019125 
L 564.789361 144.555125 
L 565.644533 159.435125 
L 566.499706 146.043125 
L 567.354878 150.507125 
L 568.21005 138.603125 
L 569.065223 135.627125 
L 569.920395 136.371125 
L 571.63074 155.715125 
L 572.485913 131.907125 
L 573.341085 156.459125 
L 574.196257 129.675125 
L 575.05143 136.371125 
L 575.906602 111.819125 
L 576.761775 100.659125 
L 577.616947 175.059125 
L 578.472119 155.715125 
L 579.327292 160.179125 
L 580.182464 165.387125 
L 581.037637 193.659125 
L 581.892809 216.723125 
L 582.747981 217.467125 
L 583.603154 275.499125 
L 584.458326 212.259125 
L 585.313499 233.091125 
L 586.168671 270.291125 
L 587.023844 292.611125 
L 587.879016 260.619125 
L 588.734188 240.531125 
L 589.589361 189.195125 
L 590.444533 273.267125 
L 591.299706 211.515125 
L 592.154878 222.675125 
L 593.01005 158.691125 
L 593.865223 233.091125 
L 594.720395 169.851125 
L 595.575568 224.163125 
L 596.43074 167.619125 
L 597.285912 172.827125 
L 598.141085 172.083125 
L 598.996257 202.587125 
L 599.85143 146.787125 
L 600.706602 158.691125 
L 601.561775 151.251125 
L 602.416947 182.499125 
L 603.272119 151.251125 
L 604.127292 154.227125 
L 604.982464 162.411125 
L 605.837637 160.923125 
L 606.692809 120.003125 
L 607.547981 129.675125 
L 608.403154 146.787125 
L 609.258326 153.483125 
L 610.113499 145.299125 
L 610.968671 163.155125 
L 611.823844 133.395125 
L 612.679016 128.931125 
L 613.534188 147.531125 
L 614.389361 114.051125 
L 615.244533 139.347125 
L 616.099706 128.931125 
L 616.954878 154.227125 
L 617.81005 137.859125 
L 618.665223 125.955125 
L 619.520395 132.651125 
L 620.375568 117.027125 
L 621.23074 119.259125 
L 622.085912 166.875125 
L 622.941085 147.531125 
L 623.796257 168.363125 
L 625.506602 141.579125 
L 627.216947 210.027125 
L 628.072119 229.371125 
L 628.927292 254.667125 
L 629.782464 203.331125 
L 630.637637 206.307125 
L 631.492809 239.043125 
L 632.347981 247.227125 
L 634.058326 201.843125 
L 634.913499 199.611125 
L 635.768671 229.371125 
L 636.623844 241.275125 
L 637.479016 192.171125 
L 638.334188 172.083125 
L 639.189361 282.195125 
L 640.044533 189.195125 
L 640.899706 114.051125 
L 641.754878 135.627125 
L 642.61005 224.163125 
L 643.465223 177.291125 
L 644.320395 146.787125 
L 645.175568 151.251125 
L 646.03074 191.427125 
L 646.885913 126.699125 
L 647.741085 158.691125 
L 648.596257 128.931125 
L 649.45143 143.811125 
L 650.306602 137.859125 
L 651.161775 125.955125 
L 652.016947 130.419125 
L 652.872119 124.467125 
L 653.727292 128.931125 
L 654.582464 166.131125 
L 655.437637 146.043125 
L 656.292809 120.747125 
L 658.003154 160.923125 
L 658.858326 146.787125 
L 659.713499 104.379125 
L 660.568671 150.507125 
L 661.423844 122.979125 
L 662.279016 117.027125 
L 663.134188 92.475125 
L 663.989361 108.843125 
L 664.844533 122.235125 
L 665.699706 97.683125 
L 666.554878 103.635125 
L 667.41005 141.579125 
L 668.265223 106.611125 
L 669.120395 149.763125 
L 669.975568 106.611125 
L 670.83074 171.339125 
L 671.685913 193.659125 
L 672.541085 199.611125 
L 673.396257 242.019125 
L 674.25143 221.187125 
L 675.106602 241.275125 
L 675.961775 240.531125 
L 676.816947 255.411125 
L 677.672119 233.835125 
L 678.527292 223.419125 
L 679.382464 192.915125 
L 680.237637 232.347125 
L 681.092809 223.419125 
L 681.947981 154.971125 
L 682.803154 184.731125 
L 683.658326 224.163125 
L 684.513499 163.899125 
L 685.368671 174.315125 
L 686.223844 163.899125 
L 687.079016 157.947125 
L 687.934188 127.443125 
L 688.789361 157.203125 
L 689.644533 113.307125 
L 690.499706 149.763125 
L 691.354878 126.699125 
L 692.21005 150.507125 
L 693.065223 183.987125 
L 693.920395 163.155125 
L 694.775568 138.603125 
L 695.63074 154.971125 
L 696.485913 146.787125 
L 697.341085 114.051125 
L 698.196257 143.811125 
L 699.05143 135.627125 
L 699.906602 143.067125 
L 700.761775 117.027125 
L 701.616947 114.051125 
L 702.472119 101.403125 
L 703.327292 115.539125 
L 704.182464 111.075125 
L 705.037637 96.195125 
L 705.892809 105.867125 
L 706.747981 82.803125 
L 707.603154 95.451125 
L 708.458326 127.443125 
L 709.313499 73.875125 
L 710.168671 102.891125 
L 711.023844 61.227125 
L 711.879016 99.915125 
L 712.734188 72.387125 
L 714.444533 131.163125 
L 715.299706 133.395125 
L 716.154878 110.331125 
L 717.01005 204.075125 
L 717.865223 143.811125 
L 718.720395 185.475125 
L 719.575568 176.547125 
L 720.43074 259.875125 
L 721.285913 320.139125 
L 721.285913 320.139125 
" style="fill:none;stroke:#ff0000;stroke-linecap:round;"/>
   </g>
   <g id="patch_11">
    <path d="M 51.685913 42.627125 
L 721.285913 42.627125 
" style="fill:none;stroke:#262626;stroke-linecap:square;stroke-linejoin:miter;stroke-width:1.25;"/>
   </g>
   <g id="patch_12">
    <path d="M 721.285912 377.427125 
L 721.285912 42.627125 
" style="fill:none;stroke:#262626;stroke-linecap:square;stroke-linejoin:miter;stroke-width:1.25;"/>
   </g>
   <g id="patch_13">
    <path d="M 51.685913 377.427125 
L 721.285913 377.427125 
" style="fill:none;stroke:#262626;stroke-linecap:square;stroke-linejoin:miter;stroke-width:1.25;"/>
   </g>
   <g id="patch_14">
    <path d="M 51.685913 377.427125 
L 51.685913 42.627125 
" style="fill:none;stroke:#262626;stroke-linecap:square;stroke-linejoin:miter;stroke-width:1.25;"/>
   </g>
   <g id="text_20">
    <!-- Motorcycle Accidents per Week in California -->
    <defs>
     <path d="M 40.4375 6.390625 
Q 35.546875 2.25 31.03125 0.53125 
Q 26.515625 -1.171875 21.34375 -1.171875 
Q 12.796875 -1.171875 8.203125 3 
Q 3.609375 7.171875 3.609375 13.671875 
Q 3.609375 17.484375 5.34375 20.625 
Q 7.078125 23.78125 9.890625 25.6875 
Q 12.703125 27.59375 16.21875 28.5625 
Q 18.796875 29.25 24.03125 29.890625 
Q 34.671875 31.15625 39.703125 32.90625 
Q 39.75 34.71875 39.75 35.203125 
Q 39.75 40.578125 37.25 42.78125 
Q 33.890625 45.75 27.25 45.75 
Q 21.046875 45.75 18.09375 43.578125 
Q 15.140625 41.40625 13.71875 35.890625 
L 5.125 37.0625 
Q 6.296875 42.578125 8.984375 45.96875 
Q 11.671875 49.359375 16.75 51.1875 
Q 21.828125 53.03125 28.515625 53.03125 
Q 35.15625 53.03125 39.296875 51.46875 
Q 43.453125 49.90625 45.40625 47.53125 
Q 47.359375 45.171875 48.140625 41.546875 
Q 48.578125 39.3125 48.578125 33.453125 
L 48.578125 21.734375 
Q 48.578125 9.46875 49.140625 6.21875 
Q 49.703125 2.984375 51.375 0 
L 42.1875 0 
Q 40.828125 2.734375 40.4375 6.390625 
M 39.703125 26.03125 
Q 34.90625 24.078125 25.34375 22.703125 
Q 19.921875 21.921875 17.671875 20.9375 
Q 15.4375 19.96875 14.203125 18.09375 
Q 12.984375 16.21875 12.984375 13.921875 
Q 12.984375 10.40625 15.640625 8.0625 
Q 18.3125 5.71875 23.4375 5.71875 
Q 28.515625 5.71875 32.46875 7.9375 
Q 36.421875 10.15625 38.28125 14.015625 
Q 39.703125 17 39.703125 22.796875 
z
" id="ArialMT-61"/>
     <path d="M 6.203125 -19.96875 
L 5.21875 -11.71875 
Q 8.109375 -12.5 10.25 -12.5 
Q 13.1875 -12.5 14.9375 -11.515625 
Q 16.703125 -10.546875 17.828125 -8.796875 
Q 18.65625 -7.46875 20.515625 -2.25 
Q 20.75 -1.515625 21.296875 -0.09375 
L 1.609375 51.859375 
L 11.078125 51.859375 
L 21.875 21.828125 
Q 23.96875 16.109375 25.640625 9.8125 
Q 27.15625 15.875 29.25 21.625 
L 40.328125 51.859375 
L 49.125 51.859375 
L 29.390625 -0.875 
Q 26.21875 -9.421875 24.46875 -12.640625 
Q 22.125 -17 19.09375 -19.015625 
Q 16.0625 -21.046875 11.859375 -21.046875 
Q 9.328125 -21.046875 6.203125 -19.96875 
" id="ArialMT-79"/>
     <path d="M 58.796875 25.09375 
L 68.265625 22.703125 
Q 65.28125 11.03125 57.546875 4.90625 
Q 49.8125 -1.21875 38.625 -1.21875 
Q 27.046875 -1.21875 19.796875 3.484375 
Q 12.546875 8.203125 8.765625 17.140625 
Q 4.984375 26.078125 4.984375 36.328125 
Q 4.984375 47.515625 9.25 55.828125 
Q 13.53125 64.15625 21.40625 68.46875 
Q 29.296875 72.796875 38.765625 72.796875 
Q 49.515625 72.796875 56.828125 67.328125 
Q 64.15625 61.859375 67.046875 51.953125 
L 57.71875 49.75 
Q 55.21875 57.5625 50.484375 61.125 
Q 45.75 64.703125 38.578125 64.703125 
Q 30.328125 64.703125 24.78125 60.734375 
Q 19.234375 56.78125 16.984375 50.109375 
Q 14.75 43.453125 14.75 36.375 
Q 14.75 27.25 17.40625 20.4375 
Q 20.0625 13.625 25.671875 10.25 
Q 31.296875 6.890625 37.84375 6.890625 
Q 45.796875 6.890625 51.3125 11.46875 
Q 56.84375 16.0625 58.796875 25.09375 
" id="ArialMT-43"/>
     <path d="M 6.59375 -19.875 
L 6.59375 51.859375 
L 14.59375 51.859375 
L 14.59375 45.125 
Q 17.4375 49.078125 21 51.046875 
Q 24.5625 53.03125 29.640625 53.03125 
Q 36.28125 53.03125 41.359375 49.609375 
Q 46.4375 46.1875 49.015625 39.953125 
Q 51.609375 33.734375 51.609375 26.3125 
Q 51.609375 18.359375 48.75 11.984375 
Q 45.90625 5.609375 40.453125 2.21875 
Q 35.015625 -1.171875 29 -1.171875 
Q 24.609375 -1.171875 21.109375 0.6875 
Q 17.625 2.546875 15.375 5.375 
L 15.375 -19.875 
z
M 14.546875 25.640625 
Q 14.546875 15.625 18.59375 10.84375 
Q 22.65625 6.0625 28.421875 6.0625 
Q 34.28125 6.0625 38.453125 11.015625 
Q 42.625 15.96875 42.625 26.375 
Q 42.625 36.28125 38.546875 41.203125 
Q 34.46875 46.140625 28.8125 46.140625 
Q 23.1875 46.140625 18.859375 40.890625 
Q 14.546875 35.640625 14.546875 25.640625 
" id="ArialMT-70"/>
     <path d="M 6.5 0 
L 6.5 51.859375 
L 14.40625 51.859375 
L 14.40625 44 
Q 17.4375 49.515625 20 51.265625 
Q 22.5625 53.03125 25.640625 53.03125 
Q 30.078125 53.03125 34.671875 50.203125 
L 31.640625 42.046875 
Q 28.421875 43.953125 25.203125 43.953125 
Q 22.3125 43.953125 20.015625 42.21875 
Q 17.71875 40.484375 16.75 37.40625 
Q 15.28125 32.71875 15.28125 27.15625 
L 15.28125 0 
z
" id="ArialMT-72"/>
     <path d="M 6.390625 0 
L 6.390625 71.578125 
L 15.1875 71.578125 
L 15.1875 0 
z
" id="ArialMT-6c"/>
     <path d="M 3.328125 25.921875 
Q 3.328125 40.328125 11.328125 47.265625 
Q 18.015625 53.03125 27.640625 53.03125 
Q 38.328125 53.03125 45.109375 46.015625 
Q 51.90625 39.015625 51.90625 26.65625 
Q 51.90625 16.65625 48.90625 10.90625 
Q 45.90625 5.171875 40.15625 2 
Q 34.421875 -1.171875 27.640625 -1.171875 
Q 16.75 -1.171875 10.03125 5.8125 
Q 3.328125 12.796875 3.328125 25.921875 
M 12.359375 25.921875 
Q 12.359375 15.96875 16.703125 11.015625 
Q 21.046875 6.0625 27.640625 6.0625 
Q 34.1875 6.0625 38.53125 11.03125 
Q 42.875 16.015625 42.875 26.21875 
Q 42.875 35.84375 38.5 40.796875 
Q 34.125 45.75 27.640625 45.75 
Q 21.046875 45.75 16.703125 40.8125 
Q 12.359375 35.890625 12.359375 25.921875 
" id="ArialMT-6f"/>
     <path d="M 7.421875 0 
L 7.421875 71.578125 
L 21.6875 71.578125 
L 38.625 20.90625 
Q 40.96875 13.8125 42.046875 10.296875 
Q 43.265625 14.203125 45.84375 21.78125 
L 62.984375 71.578125 
L 75.734375 71.578125 
L 75.734375 0 
L 66.609375 0 
L 66.609375 59.90625 
L 45.796875 0 
L 37.25 0 
L 16.546875 60.9375 
L 16.546875 0 
z
" id="ArialMT-4d"/>
     <path d="M 8.6875 0 
L 8.6875 45.015625 
L 0.921875 45.015625 
L 0.921875 51.859375 
L 8.6875 51.859375 
L 8.6875 57.375 
Q 8.6875 62.59375 9.625 65.140625 
Q 10.890625 68.5625 14.078125 70.671875 
Q 17.28125 72.796875 23.046875 72.796875 
Q 26.765625 72.796875 31.25 71.921875 
L 29.9375 64.265625 
Q 27.203125 64.75 24.75 64.75 
Q 20.75 64.75 19.09375 63.03125 
Q 17.4375 61.328125 17.4375 56.640625 
L 17.4375 51.859375 
L 27.546875 51.859375 
L 27.546875 45.015625 
L 17.4375 45.015625 
L 17.4375 0 
z
" id="ArialMT-66"/>
    </defs>
    <g style="fill:#262626;" transform="translate(112.6306 27.583125)scale(0.28 -0.28)">
     <use xlink:href="#ArialMT-4d"/>
     <use x="83.30078125" xlink:href="#ArialMT-6f"/>
     <use x="138.916015625" xlink:href="#ArialMT-74"/>
     <use x="166.69921875" xlink:href="#ArialMT-6f"/>
     <use x="222.314453125" xlink:href="#ArialMT-72"/>
     <use x="255.615234375" xlink:href="#ArialMT-63"/>
     <use x="305.615234375" xlink:href="#ArialMT-79"/>
     <use x="355.615234375" xlink:href="#ArialMT-63"/>
     <use x="405.615234375" xlink:href="#ArialMT-6c"/>
     <use x="427.83203125" xlink:href="#ArialMT-65"/>
     <use x="483.447265625" xlink:href="#ArialMT-20"/>
     <use x="511.15234375" xlink:href="#ArialMT-41"/>
     <use x="577.8515625" xlink:href="#ArialMT-63"/>
     <use x="627.8515625" xlink:href="#ArialMT-63"/>
     <use x="677.8515625" xlink:href="#ArialMT-69"/>
     <use x="700.068359375" xlink:href="#ArialMT-64"/>
     <use x="755.68359375" xlink:href="#ArialMT-65"/>
     <use x="811.298828125" xlink:href="#ArialMT-6e"/>
     <use x="866.9140625" xlink:href="#ArialMT-74"/>
     <use x="894.697265625" xlink:href="#ArialMT-73"/>
     <use x="944.697265625" xlink:href="#ArialMT-20"/>
     <use x="972.48046875" xlink:href="#ArialMT-70"/>
     <use x="1028.09570312" xlink:href="#ArialMT-65"/>
     <use x="1083.7109375" xlink:href="#ArialMT-72"/>
     <use x="1117.01171875" xlink:href="#ArialMT-20"/>
     <use x="1144.79492188" xlink:href="#ArialMT-57"/>
     <use x="1239.1640625" xlink:href="#ArialMT-65"/>
     <use x="1294.77929688" xlink:href="#ArialMT-65"/>
     <use x="1350.39453125" xlink:href="#ArialMT-6b"/>
     <use x="1400.39453125" xlink:href="#ArialMT-20"/>
     <use x="1428.17773438" xlink:href="#ArialMT-69"/>
     <use x="1450.39453125" xlink:href="#ArialMT-6e"/>
     <use x="1506.00976562" xlink:href="#ArialMT-20"/>
     <use x="1533.79296875" xlink:href="#ArialMT-43"/>
     <use x="1606.00976562" xlink:href="#ArialMT-61"/>
     <use x="1661.625" xlink:href="#ArialMT-6c"/>
     <use x="1683.84179688" xlink:href="#ArialMT-69"/>
     <use x="1706.05859375" xlink:href="#ArialMT-66"/>
     <use x="1733.84179688" xlink:href="#ArialMT-6f"/>
     <use x="1789.45703125" xlink:href="#ArialMT-72"/>
     <use x="1822.7578125" xlink:href="#ArialMT-6e"/>
     <use x="1878.37304688" xlink:href="#ArialMT-69"/>
     <use x="1900.58984375" xlink:href="#ArialMT-61"/>
    </g>
   </g>
  </g>
 </g>
 <defs>
  <clipPath id="p137b6ab9c6">
   <rect height="334.8" width="669.6" x="51.6859125" y="42.627125"/>
  </clipPath>
 </defs>
</svg>
