<?xml version="1.0" encoding="utf-8" standalone="no"?>
<!DOCTYPE svg PUBLIC "-//W3C//DTD SVG 1.1//EN"
  "http://www.w3.org/Graphics/SVG/1.1/DTD/svg11.dtd">
<!-- Created with matplotlib (http://matplotlib.org/) -->
<svg height="495pt" version="1.1" viewBox="0 0 856 495" width="856pt" xmlns="http://www.w3.org/2000/svg" xmlns:xlink="http://www.w3.org/1999/xlink">
 <defs>
  <style type="text/css">
*{stroke-linecap:butt;stroke-linejoin:round;}
  </style>
 </defs>
 <g id="figure_1">
  <g id="patch_1">
   <path d="M 0 495.525 
L 856.521875 495.525 
L 856.521875 0 
L 0 0 
z
" style="fill:#ffffff;"/>
  </g>
  <g id="axes_1">
   <g id="patch_2">
    <path d="M 47.921875 472.021562 
L 849.321875 472.021562 
L 849.321875 29.215312 
L 47.921875 29.215312 
z
" style="fill:#ffffff;"/>
   </g>
   <g id="patch_3">
    <path clip-path="url(#p1f919ddc6e)" d="M 77.38511 472.021562 
L 77.38511 29.215312 
L 106.848346 29.215312 
L 106.848346 472.021562 
z
" style="fill:#f2f2f2;stroke:#f2f2f2;stroke-linejoin:miter;"/>
   </g>
   <g id="patch_4">
    <path clip-path="url(#p1f919ddc6e)" d="M 136.311581 472.021562 
L 136.311581 29.215312 
L 165.774816 29.215312 
L 165.774816 472.021562 
z
" style="fill:#f2f2f2;stroke:#f2f2f2;stroke-linejoin:miter;"/>
   </g>
   <g id="patch_5">
    <path clip-path="url(#p1f919ddc6e)" d="M 195.238051 472.021562 
L 195.238051 29.215312 
L 224.701287 29.215312 
L 224.701287 472.021562 
z
" style="fill:#f2f2f2;stroke:#f2f2f2;stroke-linejoin:miter;"/>
   </g>
   <g id="patch_6">
    <path clip-path="url(#p1f919ddc6e)" d="M 254.164522 472.021562 
L 254.164522 29.215312 
L 283.627757 29.215312 
L 283.627757 472.021562 
z
" style="fill:#f2f2f2;stroke:#f2f2f2;stroke-linejoin:miter;"/>
   </g>
   <g id="patch_7">
    <path clip-path="url(#p1f919ddc6e)" d="M 313.090993 472.021562 
L 313.090993 29.215312 
L 342.554228 29.215312 
L 342.554228 472.021562 
z
" style="fill:#f2f2f2;stroke:#f2f2f2;stroke-linejoin:miter;"/>
   </g>
   <g id="patch_8">
    <path clip-path="url(#p1f919ddc6e)" d="M 372.017463 472.021562 
L 372.017463 29.215312 
L 401.480699 29.215312 
L 401.480699 472.021562 
z
" style="fill:#f2f2f2;stroke:#f2f2f2;stroke-linejoin:miter;"/>
   </g>
   <g id="patch_9">
    <path clip-path="url(#p1f919ddc6e)" d="M 430.943934 472.021562 
L 430.943934 29.215312 
L 460.407169 29.215312 
L 460.407169 472.021562 
z
" style="fill:#f2f2f2;stroke:#f2f2f2;stroke-linejoin:miter;"/>
   </g>
   <g id="patch_10">
    <path clip-path="url(#p1f919ddc6e)" d="M 489.870404 472.021562 
L 489.870404 29.215312 
L 519.33364 29.215312 
L 519.33364 472.021562 
z
" style="fill:#f2f2f2;stroke:#f2f2f2;stroke-linejoin:miter;"/>
   </g>
   <g id="patch_11">
    <path clip-path="url(#p1f919ddc6e)" d="M 548.796875 472.021562 
L 548.796875 29.215312 
L 578.26011 29.215312 
L 578.26011 472.021562 
z
" style="fill:#f2f2f2;stroke:#f2f2f2;stroke-linejoin:miter;"/>
   </g>
   <g id="patch_12">
    <path clip-path="url(#p1f919ddc6e)" d="M 607.723346 472.021562 
L 607.723346 29.215312 
L 637.186581 29.215312 
L 637.186581 472.021562 
z
" style="fill:#f2f2f2;stroke:#f2f2f2;stroke-linejoin:miter;"/>
   </g>
   <g id="patch_13">
    <path clip-path="url(#p1f919ddc6e)" d="M 666.649816 472.021562 
L 666.649816 29.215312 
L 696.113051 29.215312 
L 696.113051 472.021562 
z
" style="fill:#f2f2f2;stroke:#f2f2f2;stroke-linejoin:miter;"/>
   </g>
   <g id="patch_14">
    <path clip-path="url(#p1f919ddc6e)" d="M 725.576287 472.021562 
L 725.576287 29.215312 
L 755.039522 29.215312 
L 755.039522 472.021562 
z
" style="fill:#f2f2f2;stroke:#f2f2f2;stroke-linejoin:miter;"/>
   </g>
   <g id="patch_15">
    <path clip-path="url(#p1f919ddc6e)" d="M 784.502757 472.021562 
L 784.502757 29.215312 
L 813.965993 29.215312 
L 813.965993 472.021562 
z
" style="fill:#f2f2f2;stroke:#f2f2f2;stroke-linejoin:miter;"/>
   </g>
   <g id="patch_16">
    <path clip-path="url(#p1f919ddc6e)" d="M 843.429228 472.021562 
L 843.429228 29.215312 
L 872.892463 29.215312 
L 872.892463 472.021562 
z
" style="fill:#f2f2f2;stroke:#f2f2f2;stroke-linejoin:miter;"/>
   </g>
   <g id="patch_17">
    <path clip-path="url(#p1f919ddc6e)" d="M 77.38511 472.021562 
L 77.38511 29.215312 
L 106.848346 29.215312 
L 106.848346 472.021562 
z
" style="fill:#f2f2f2;stroke:#f2f2f2;stroke-linejoin:miter;"/>
   </g>
   <g id="patch_18">
    <path clip-path="url(#p1f919ddc6e)" d="M 136.311581 472.021562 
L 136.311581 29.215312 
L 165.774816 29.215312 
L 165.774816 472.021562 
z
" style="fill:#f2f2f2;stroke:#f2f2f2;stroke-linejoin:miter;"/>
   </g>
   <g id="patch_19">
    <path clip-path="url(#p1f919ddc6e)" d="M 195.238051 472.021562 
L 195.238051 29.215312 
L 224.701287 29.215312 
L 224.701287 472.021562 
z
" style="fill:#f2f2f2;stroke:#f2f2f2;stroke-linejoin:miter;"/>
   </g>
   <g id="patch_20">
    <path clip-path="url(#p1f919ddc6e)" d="M 254.164522 472.021562 
L 254.164522 29.215312 
L 283.627757 29.215312 
L 283.627757 472.021562 
z
" style="fill:#f2f2f2;stroke:#f2f2f2;stroke-linejoin:miter;"/>
   </g>
   <g id="patch_21">
    <path clip-path="url(#p1f919ddc6e)" d="M 313.090993 472.021562 
L 313.090993 29.215312 
L 342.554228 29.215312 
L 342.554228 472.021562 
z
" style="fill:#f2f2f2;stroke:#f2f2f2;stroke-linejoin:miter;"/>
   </g>
   <g id="patch_22">
    <path clip-path="url(#p1f919ddc6e)" d="M 372.017463 472.021562 
L 372.017463 29.215312 
L 401.480699 29.215312 
L 401.480699 472.021562 
z
" style="fill:#f2f2f2;stroke:#f2f2f2;stroke-linejoin:miter;"/>
   </g>
   <g id="patch_23">
    <path clip-path="url(#p1f919ddc6e)" d="M 430.943934 472.021562 
L 430.943934 29.215312 
L 460.407169 29.215312 
L 460.407169 472.021562 
z
" style="fill:#f2f2f2;stroke:#f2f2f2;stroke-linejoin:miter;"/>
   </g>
   <g id="patch_24">
    <path clip-path="url(#p1f919ddc6e)" d="M 489.870404 472.021562 
L 489.870404 29.215312 
L 519.33364 29.215312 
L 519.33364 472.021562 
z
" style="fill:#f2f2f2;stroke:#f2f2f2;stroke-linejoin:miter;"/>
   </g>
   <g id="patch_25">
    <path clip-path="url(#p1f919ddc6e)" d="M 548.796875 472.021562 
L 548.796875 29.215312 
L 578.26011 29.215312 
L 578.26011 472.021562 
z
" style="fill:#f2f2f2;stroke:#f2f2f2;stroke-linejoin:miter;"/>
   </g>
   <g id="patch_26">
    <path clip-path="url(#p1f919ddc6e)" d="M 607.723346 472.021562 
L 607.723346 29.215312 
L 637.186581 29.215312 
L 637.186581 472.021562 
z
" style="fill:#f2f2f2;stroke:#f2f2f2;stroke-linejoin:miter;"/>
   </g>
   <g id="patch_27">
    <path clip-path="url(#p1f919ddc6e)" d="M 666.649816 472.021562 
L 666.649816 29.215312 
L 696.113051 29.215312 
L 696.113051 472.021562 
z
" style="fill:#f2f2f2;stroke:#f2f2f2;stroke-linejoin:miter;"/>
   </g>
   <g id="patch_28">
    <path clip-path="url(#p1f919ddc6e)" d="M 725.576287 472.021562 
L 725.576287 29.215312 
L 755.039522 29.215312 
L 755.039522 472.021562 
z
" style="fill:#f2f2f2;stroke:#f2f2f2;stroke-linejoin:miter;"/>
   </g>
   <g id="patch_29">
    <path clip-path="url(#p1f919ddc6e)" d="M 784.502757 472.021562 
L 784.502757 29.215312 
L 813.965993 29.215312 
L 813.965993 472.021562 
z
" style="fill:#f2f2f2;stroke:#f2f2f2;stroke-linejoin:miter;"/>
   </g>
   <g id="patch_30">
    <path clip-path="url(#p1f919ddc6e)" d="M 843.429228 472.021562 
L 843.429228 29.215312 
L 872.892463 29.215312 
L 872.892463 472.021562 
z
" style="fill:#f2f2f2;stroke:#f2f2f2;stroke-linejoin:miter;"/>
   </g>
   <g id="matplotlib.axis_1">
    <g id="xtick_1">
     <g id="line2d_1"/>
     <g id="text_1">
      <!-- 1880 -->
      <defs>
       <path d="M 37.25 0 
L 28.46875 0 
L 28.46875 56 
Q 25.296875 52.984375 20.140625 49.953125 
Q 14.984375 46.921875 10.890625 45.40625 
L 10.890625 53.90625 
Q 18.265625 57.375 23.78125 62.296875 
Q 29.296875 67.234375 31.59375 71.875 
L 37.25 71.875 
z
" id="ArialMT-31"/>
       <path d="M 17.671875 38.8125 
Q 12.203125 40.828125 9.5625 44.53125 
Q 6.9375 48.25 6.9375 53.421875 
Q 6.9375 61.234375 12.546875 66.546875 
Q 18.171875 71.875 27.484375 71.875 
Q 36.859375 71.875 42.578125 66.421875 
Q 48.296875 60.984375 48.296875 53.171875 
Q 48.296875 48.1875 45.671875 44.5 
Q 43.0625 40.828125 37.75 38.8125 
Q 44.34375 36.671875 47.78125 31.875 
Q 51.21875 27.09375 51.21875 20.453125 
Q 51.21875 11.28125 44.71875 5.03125 
Q 38.234375 -1.21875 27.640625 -1.21875 
Q 17.046875 -1.21875 10.546875 5.046875 
Q 4.046875 11.328125 4.046875 20.703125 
Q 4.046875 27.6875 7.59375 32.390625 
Q 11.140625 37.109375 17.671875 38.8125 
z
M 15.921875 53.71875 
Q 15.921875 48.640625 19.1875 45.40625 
Q 22.46875 42.1875 27.6875 42.1875 
Q 32.765625 42.1875 36.015625 45.375 
Q 39.265625 48.578125 39.265625 53.21875 
Q 39.265625 58.0625 35.90625 61.359375 
Q 32.5625 64.65625 27.59375 64.65625 
Q 22.5625 64.65625 19.234375 61.421875 
Q 15.921875 58.203125 15.921875 53.71875 
z
M 13.09375 20.65625 
Q 13.09375 16.890625 14.875 13.375 
Q 16.65625 9.859375 20.171875 7.921875 
Q 23.6875 6 27.734375 6 
Q 34.03125 6 38.125 10.046875 
Q 42.234375 14.109375 42.234375 20.359375 
Q 42.234375 26.703125 38.015625 30.859375 
Q 33.796875 35.015625 27.4375 35.015625 
Q 21.234375 35.015625 17.15625 30.90625 
Q 13.09375 26.8125 13.09375 20.65625 
z
" id="ArialMT-38"/>
       <path d="M 4.15625 35.296875 
Q 4.15625 48 6.765625 55.734375 
Q 9.375 63.484375 14.515625 67.671875 
Q 19.671875 71.875 27.484375 71.875 
Q 33.25 71.875 37.59375 69.546875 
Q 41.9375 67.234375 44.765625 62.859375 
Q 47.609375 58.5 49.21875 52.21875 
Q 50.828125 45.953125 50.828125 35.296875 
Q 50.828125 22.703125 48.234375 14.96875 
Q 45.65625 7.234375 40.5 3 
Q 35.359375 -1.21875 27.484375 -1.21875 
Q 17.140625 -1.21875 11.234375 6.203125 
Q 4.15625 15.140625 4.15625 35.296875 
z
M 13.1875 35.296875 
Q 13.1875 17.671875 17.3125 11.828125 
Q 21.4375 6 27.484375 6 
Q 33.546875 6 37.671875 11.859375 
Q 41.796875 17.71875 41.796875 35.296875 
Q 41.796875 52.984375 37.671875 58.78125 
Q 33.546875 64.59375 27.390625 64.59375 
Q 21.34375 64.59375 17.71875 59.46875 
Q 13.1875 52.9375 13.1875 35.296875 
z
" id="ArialMT-30"/>
      </defs>
      <g style="fill:#262626;" transform="translate(32.35125 485.5425)scale(0.14 -0.14)">
       <use xlink:href="#ArialMT-31"/>
       <use x="55.615234" xlink:href="#ArialMT-38"/>
       <use x="111.230469" xlink:href="#ArialMT-38"/>
       <use x="166.845703" xlink:href="#ArialMT-30"/>
      </g>
     </g>
    </g>
    <g id="xtick_2">
     <g id="line2d_2"/>
     <g id="text_2">
      <!-- 1900 -->
      <defs>
       <path d="M 5.46875 16.546875 
L 13.921875 17.328125 
Q 14.984375 11.375 18.015625 8.6875 
Q 21.046875 6 25.78125 6 
Q 29.828125 6 32.875 7.859375 
Q 35.9375 9.71875 37.890625 12.8125 
Q 39.84375 15.921875 41.15625 21.1875 
Q 42.484375 26.46875 42.484375 31.9375 
Q 42.484375 32.515625 42.4375 33.6875 
Q 39.796875 29.5 35.234375 26.875 
Q 30.671875 24.265625 25.34375 24.265625 
Q 16.453125 24.265625 10.296875 30.703125 
Q 4.15625 37.15625 4.15625 47.703125 
Q 4.15625 58.59375 10.578125 65.234375 
Q 17 71.875 26.65625 71.875 
Q 33.640625 71.875 39.421875 68.109375 
Q 45.21875 64.359375 48.21875 57.390625 
Q 51.21875 50.4375 51.21875 37.25 
Q 51.21875 23.53125 48.234375 15.40625 
Q 45.265625 7.28125 39.375 3.03125 
Q 33.5 -1.21875 25.59375 -1.21875 
Q 17.1875 -1.21875 11.859375 3.4375 
Q 6.546875 8.109375 5.46875 16.546875 
z
M 41.453125 48.140625 
Q 41.453125 55.71875 37.421875 60.15625 
Q 33.40625 64.59375 27.734375 64.59375 
Q 21.875 64.59375 17.53125 59.8125 
Q 13.1875 55.03125 13.1875 47.40625 
Q 13.1875 40.578125 17.3125 36.296875 
Q 21.4375 32.03125 27.484375 32.03125 
Q 33.59375 32.03125 37.515625 36.296875 
Q 41.453125 40.578125 41.453125 48.140625 
z
" id="ArialMT-39"/>
      </defs>
      <g style="fill:#262626;" transform="translate(150.204191 485.5425)scale(0.14 -0.14)">
       <use xlink:href="#ArialMT-31"/>
       <use x="55.615234" xlink:href="#ArialMT-39"/>
       <use x="111.230469" xlink:href="#ArialMT-30"/>
       <use x="166.845703" xlink:href="#ArialMT-30"/>
      </g>
     </g>
    </g>
    <g id="xtick_3">
     <g id="line2d_3"/>
     <g id="text_3">
      <!-- 1920 -->
      <defs>
       <path d="M 50.34375 8.453125 
L 50.34375 0 
L 3.03125 0 
Q 2.9375 3.171875 4.046875 6.109375 
Q 5.859375 10.9375 9.828125 15.625 
Q 13.8125 20.3125 21.34375 26.46875 
Q 33.015625 36.03125 37.109375 41.625 
Q 41.21875 47.21875 41.21875 52.203125 
Q 41.21875 57.421875 37.46875 61 
Q 33.734375 64.59375 27.734375 64.59375 
Q 21.390625 64.59375 17.578125 60.78125 
Q 13.765625 56.984375 13.71875 50.25 
L 4.6875 51.171875 
Q 5.609375 61.28125 11.65625 66.578125 
Q 17.71875 71.875 27.9375 71.875 
Q 38.234375 71.875 44.234375 66.15625 
Q 50.25 60.453125 50.25 52 
Q 50.25 47.703125 48.484375 43.546875 
Q 46.734375 39.40625 42.65625 34.8125 
Q 38.578125 30.21875 29.109375 22.21875 
Q 21.1875 15.578125 18.9375 13.203125 
Q 16.703125 10.84375 15.234375 8.453125 
z
" id="ArialMT-32"/>
      </defs>
      <g style="fill:#262626;" transform="translate(268.057132 485.5425)scale(0.14 -0.14)">
       <use xlink:href="#ArialMT-31"/>
       <use x="55.615234" xlink:href="#ArialMT-39"/>
       <use x="111.230469" xlink:href="#ArialMT-32"/>
       <use x="166.845703" xlink:href="#ArialMT-30"/>
      </g>
     </g>
    </g>
    <g id="xtick_4">
     <g id="line2d_4"/>
     <g id="text_4">
      <!-- 1940 -->
      <defs>
       <path d="M 32.328125 0 
L 32.328125 17.140625 
L 1.265625 17.140625 
L 1.265625 25.203125 
L 33.9375 71.578125 
L 41.109375 71.578125 
L 41.109375 25.203125 
L 50.78125 25.203125 
L 50.78125 17.140625 
L 41.109375 17.140625 
L 41.109375 0 
z
M 32.328125 25.203125 
L 32.328125 57.46875 
L 9.90625 25.203125 
z
" id="ArialMT-34"/>
      </defs>
      <g style="fill:#262626;" transform="translate(385.910074 485.5425)scale(0.14 -0.14)">
       <use xlink:href="#ArialMT-31"/>
       <use x="55.615234" xlink:href="#ArialMT-39"/>
       <use x="111.230469" xlink:href="#ArialMT-34"/>
       <use x="166.845703" xlink:href="#ArialMT-30"/>
      </g>
     </g>
    </g>
    <g id="xtick_5">
     <g id="line2d_5"/>
     <g id="text_5">
      <!-- 1960 -->
      <defs>
       <path d="M 49.75 54.046875 
L 41.015625 53.375 
Q 39.84375 58.546875 37.703125 60.890625 
Q 34.125 64.65625 28.90625 64.65625 
Q 24.703125 64.65625 21.53125 62.3125 
Q 17.390625 59.28125 14.984375 53.46875 
Q 12.59375 47.65625 12.5 36.921875 
Q 15.671875 41.75 20.265625 44.09375 
Q 24.859375 46.4375 29.890625 46.4375 
Q 38.671875 46.4375 44.84375 39.96875 
Q 51.03125 33.5 51.03125 23.25 
Q 51.03125 16.5 48.125 10.71875 
Q 45.21875 4.9375 40.140625 1.859375 
Q 35.0625 -1.21875 28.609375 -1.21875 
Q 17.625 -1.21875 10.6875 6.859375 
Q 3.765625 14.9375 3.765625 33.5 
Q 3.765625 54.25 11.421875 63.671875 
Q 18.109375 71.875 29.4375 71.875 
Q 37.890625 71.875 43.28125 67.140625 
Q 48.6875 62.40625 49.75 54.046875 
z
M 13.875 23.1875 
Q 13.875 18.65625 15.796875 14.5 
Q 17.71875 10.359375 21.1875 8.171875 
Q 24.65625 6 28.46875 6 
Q 34.03125 6 38.03125 10.484375 
Q 42.046875 14.984375 42.046875 22.703125 
Q 42.046875 30.125 38.078125 34.390625 
Q 34.125 38.671875 28.125 38.671875 
Q 22.171875 38.671875 18.015625 34.390625 
Q 13.875 30.125 13.875 23.1875 
z
" id="ArialMT-36"/>
      </defs>
      <g style="fill:#262626;" transform="translate(503.763015 485.5425)scale(0.14 -0.14)">
       <use xlink:href="#ArialMT-31"/>
       <use x="55.615234" xlink:href="#ArialMT-39"/>
       <use x="111.230469" xlink:href="#ArialMT-36"/>
       <use x="166.845703" xlink:href="#ArialMT-30"/>
      </g>
     </g>
    </g>
    <g id="xtick_6">
     <g id="line2d_6"/>
     <g id="text_6">
      <!-- 1980 -->
      <g style="fill:#262626;" transform="translate(621.615956 485.5425)scale(0.14 -0.14)">
       <use xlink:href="#ArialMT-31"/>
       <use x="55.615234" xlink:href="#ArialMT-39"/>
       <use x="111.230469" xlink:href="#ArialMT-38"/>
       <use x="166.845703" xlink:href="#ArialMT-30"/>
      </g>
     </g>
    </g>
    <g id="xtick_7">
     <g id="line2d_7"/>
     <g id="text_7">
      <!-- 2000 -->
      <g style="fill:#262626;" transform="translate(739.468897 485.5425)scale(0.14 -0.14)">
       <use xlink:href="#ArialMT-32"/>
       <use x="55.615234" xlink:href="#ArialMT-30"/>
       <use x="111.230469" xlink:href="#ArialMT-30"/>
       <use x="166.845703" xlink:href="#ArialMT-30"/>
      </g>
     </g>
    </g>
   </g>
   <g id="matplotlib.axis_2">
    <g id="ytick_1">
     <g id="line2d_8"/>
     <g id="text_8">
      <!-- 0% -->
      <defs>
       <path d="M 5.8125 54.390625 
Q 5.8125 62.0625 9.671875 67.421875 
Q 13.53125 72.796875 20.84375 72.796875 
Q 27.59375 72.796875 32 67.984375 
Q 36.421875 63.1875 36.421875 53.859375 
Q 36.421875 44.78125 31.953125 39.875 
Q 27.484375 34.96875 20.953125 34.96875 
Q 14.453125 34.96875 10.125 39.796875 
Q 5.8125 44.625 5.8125 54.390625 
z
M 21.09375 66.75 
Q 17.828125 66.75 15.65625 63.90625 
Q 13.484375 61.078125 13.484375 53.515625 
Q 13.484375 46.625 15.671875 43.8125 
Q 17.875 41.015625 21.09375 41.015625 
Q 24.421875 41.015625 26.59375 43.84375 
Q 28.765625 46.6875 28.765625 54.203125 
Q 28.765625 61.140625 26.5625 63.9375 
Q 24.359375 66.75 21.09375 66.75 
z
M 21.140625 -2.640625 
L 60.296875 72.796875 
L 67.4375 72.796875 
L 28.421875 -2.640625 
z
M 52.09375 16.796875 
Q 52.09375 24.515625 55.953125 29.859375 
Q 59.8125 35.203125 67.1875 35.203125 
Q 73.921875 35.203125 78.34375 30.390625 
Q 82.765625 25.59375 82.765625 16.265625 
Q 82.765625 7.171875 78.296875 2.265625 
Q 73.828125 -2.640625 67.234375 -2.640625 
Q 60.75 -2.640625 56.421875 2.21875 
Q 52.09375 7.078125 52.09375 16.796875 
z
M 67.4375 29.15625 
Q 64.109375 29.15625 61.9375 26.3125 
Q 59.765625 23.484375 59.765625 15.921875 
Q 59.765625 9.078125 61.953125 6.25 
Q 64.15625 3.421875 67.390625 3.421875 
Q 70.75 3.421875 72.921875 6.25 
Q 75.09375 9.078125 75.09375 16.609375 
Q 75.09375 23.53125 72.890625 26.34375 
Q 70.703125 29.15625 67.4375 29.15625 
z
" id="ArialMT-25"/>
      </defs>
      <g style="fill:#262626;" transform="translate(29.96875 475.600469)scale(0.1 -0.1)">
       <use xlink:href="#ArialMT-30"/>
       <use x="55.615234" xlink:href="#ArialMT-25"/>
      </g>
     </g>
    </g>
    <g id="ytick_2">
     <g id="line2d_9"/>
     <g id="text_9">
      <!-- 1% -->
      <g style="fill:#262626;" transform="translate(29.96875 426.399774)scale(0.1 -0.1)">
       <use xlink:href="#ArialMT-31"/>
       <use x="55.615234" xlink:href="#ArialMT-25"/>
      </g>
     </g>
    </g>
    <g id="ytick_3">
     <g id="line2d_10"/>
     <g id="text_10">
      <!-- 2% -->
      <g style="fill:#262626;" transform="translate(29.96875 377.19908)scale(0.1 -0.1)">
       <use xlink:href="#ArialMT-32"/>
       <use x="55.615234" xlink:href="#ArialMT-25"/>
      </g>
     </g>
    </g>
    <g id="ytick_4">
     <g id="line2d_11"/>
     <g id="text_11">
      <!-- 3% -->
      <defs>
       <path d="M 4.203125 18.890625 
L 12.984375 20.0625 
Q 14.5 12.59375 18.140625 9.296875 
Q 21.78125 6 27 6 
Q 33.203125 6 37.46875 10.296875 
Q 41.75 14.59375 41.75 20.953125 
Q 41.75 27 37.796875 30.921875 
Q 33.84375 34.859375 27.734375 34.859375 
Q 25.25 34.859375 21.53125 33.890625 
L 22.515625 41.609375 
Q 23.390625 41.5 23.921875 41.5 
Q 29.546875 41.5 34.03125 44.421875 
Q 38.53125 47.359375 38.53125 53.46875 
Q 38.53125 58.296875 35.25 61.46875 
Q 31.984375 64.65625 26.8125 64.65625 
Q 21.6875 64.65625 18.265625 61.421875 
Q 14.84375 58.203125 13.875 51.765625 
L 5.078125 53.328125 
Q 6.6875 62.15625 12.390625 67.015625 
Q 18.109375 71.875 26.609375 71.875 
Q 32.46875 71.875 37.390625 69.359375 
Q 42.328125 66.84375 44.9375 62.5 
Q 47.5625 58.15625 47.5625 53.265625 
Q 47.5625 48.640625 45.0625 44.828125 
Q 42.578125 41.015625 37.703125 38.765625 
Q 44.046875 37.3125 47.5625 32.6875 
Q 51.078125 28.078125 51.078125 21.140625 
Q 51.078125 11.765625 44.234375 5.25 
Q 37.40625 -1.265625 26.953125 -1.265625 
Q 17.53125 -1.265625 11.296875 4.34375 
Q 5.078125 9.96875 4.203125 18.890625 
z
" id="ArialMT-33"/>
      </defs>
      <g style="fill:#262626;" transform="translate(29.96875 327.998385)scale(0.1 -0.1)">
       <use xlink:href="#ArialMT-33"/>
       <use x="55.615234" xlink:href="#ArialMT-25"/>
      </g>
     </g>
    </g>
    <g id="ytick_5">
     <g id="line2d_12"/>
     <g id="text_12">
      <!-- 4% -->
      <g style="fill:#262626;" transform="translate(29.96875 278.797691)scale(0.1 -0.1)">
       <use xlink:href="#ArialMT-34"/>
       <use x="55.615234" xlink:href="#ArialMT-25"/>
      </g>
     </g>
    </g>
    <g id="ytick_6">
     <g id="line2d_13"/>
     <g id="text_13">
      <!-- 5% -->
      <defs>
       <path d="M 4.15625 18.75 
L 13.375 19.53125 
Q 14.40625 12.796875 18.140625 9.390625 
Q 21.875 6 27.15625 6 
Q 33.5 6 37.890625 10.78125 
Q 42.28125 15.578125 42.28125 23.484375 
Q 42.28125 31 38.0625 35.34375 
Q 33.84375 39.703125 27 39.703125 
Q 22.75 39.703125 19.328125 37.765625 
Q 15.921875 35.84375 13.96875 32.765625 
L 5.71875 33.84375 
L 12.640625 70.609375 
L 48.25 70.609375 
L 48.25 62.203125 
L 19.671875 62.203125 
L 15.828125 42.96875 
Q 22.265625 47.46875 29.34375 47.46875 
Q 38.71875 47.46875 45.15625 40.96875 
Q 51.609375 34.46875 51.609375 24.265625 
Q 51.609375 14.546875 45.953125 7.46875 
Q 39.0625 -1.21875 27.15625 -1.21875 
Q 17.390625 -1.21875 11.203125 4.25 
Q 5.03125 9.71875 4.15625 18.75 
z
" id="ArialMT-35"/>
      </defs>
      <g style="fill:#262626;" transform="translate(29.96875 229.596997)scale(0.1 -0.1)">
       <use xlink:href="#ArialMT-35"/>
       <use x="55.615234" xlink:href="#ArialMT-25"/>
      </g>
     </g>
    </g>
    <g id="ytick_7">
     <g id="line2d_14"/>
     <g id="text_14">
      <!-- 6% -->
      <g style="fill:#262626;" transform="translate(29.96875 180.396302)scale(0.1 -0.1)">
       <use xlink:href="#ArialMT-36"/>
       <use x="55.615234" xlink:href="#ArialMT-25"/>
      </g>
     </g>
    </g>
    <g id="ytick_8">
     <g id="line2d_15"/>
     <g id="text_15">
      <!-- 7% -->
      <defs>
       <path d="M 4.734375 62.203125 
L 4.734375 70.65625 
L 51.078125 70.65625 
L 51.078125 63.8125 
Q 44.234375 56.546875 37.515625 44.484375 
Q 30.8125 32.421875 27.15625 19.671875 
Q 24.515625 10.6875 23.78125 0 
L 14.75 0 
Q 14.890625 8.453125 18.0625 20.40625 
Q 21.234375 32.375 27.171875 43.484375 
Q 33.109375 54.59375 39.796875 62.203125 
z
" id="ArialMT-37"/>
      </defs>
      <g style="fill:#262626;" transform="translate(29.96875 131.195608)scale(0.1 -0.1)">
       <use xlink:href="#ArialMT-37"/>
       <use x="55.615234" xlink:href="#ArialMT-25"/>
      </g>
     </g>
    </g>
    <g id="ytick_9">
     <g id="line2d_16"/>
     <g id="text_16">
      <!-- 8% -->
      <g style="fill:#262626;" transform="translate(29.96875 81.994913)scale(0.1 -0.1)">
       <use xlink:href="#ArialMT-38"/>
       <use x="55.615234" xlink:href="#ArialMT-25"/>
      </g>
     </g>
    </g>
    <g id="ytick_10">
     <g id="line2d_17"/>
     <g id="text_17">
      <!-- 9% -->
      <g style="fill:#262626;" transform="translate(29.96875 32.794219)scale(0.1 -0.1)">
       <use xlink:href="#ArialMT-39"/>
       <use x="55.615234" xlink:href="#ArialMT-25"/>
      </g>
     </g>
    </g>
    <g id="text_18">
     <!-- Fraction of girls given the name -->
     <defs>
      <path d="M 8.203125 0 
L 8.203125 71.578125 
L 56.5 71.578125 
L 56.5 63.140625 
L 17.671875 63.140625 
L 17.671875 40.96875 
L 51.265625 40.96875 
L 51.265625 32.515625 
L 17.671875 32.515625 
L 17.671875 0 
z
" id="ArialMT-46"/>
      <path d="M 6.5 0 
L 6.5 51.859375 
L 14.40625 51.859375 
L 14.40625 44 
Q 17.4375 49.515625 20 51.265625 
Q 22.5625 53.03125 25.640625 53.03125 
Q 30.078125 53.03125 34.671875 50.203125 
L 31.640625 42.046875 
Q 28.421875 43.953125 25.203125 43.953125 
Q 22.3125 43.953125 20.015625 42.21875 
Q 17.71875 40.484375 16.75 37.40625 
Q 15.28125 32.71875 15.28125 27.15625 
L 15.28125 0 
z
" id="ArialMT-72"/>
      <path d="M 40.4375 6.390625 
Q 35.546875 2.25 31.03125 0.53125 
Q 26.515625 -1.171875 21.34375 -1.171875 
Q 12.796875 -1.171875 8.203125 3 
Q 3.609375 7.171875 3.609375 13.671875 
Q 3.609375 17.484375 5.34375 20.625 
Q 7.078125 23.78125 9.890625 25.6875 
Q 12.703125 27.59375 16.21875 28.5625 
Q 18.796875 29.25 24.03125 29.890625 
Q 34.671875 31.15625 39.703125 32.90625 
Q 39.75 34.71875 39.75 35.203125 
Q 39.75 40.578125 37.25 42.78125 
Q 33.890625 45.75 27.25 45.75 
Q 21.046875 45.75 18.09375 43.578125 
Q 15.140625 41.40625 13.71875 35.890625 
L 5.125 37.0625 
Q 6.296875 42.578125 8.984375 45.96875 
Q 11.671875 49.359375 16.75 51.1875 
Q 21.828125 53.03125 28.515625 53.03125 
Q 35.15625 53.03125 39.296875 51.46875 
Q 43.453125 49.90625 45.40625 47.53125 
Q 47.359375 45.171875 48.140625 41.546875 
Q 48.578125 39.3125 48.578125 33.453125 
L 48.578125 21.734375 
Q 48.578125 9.46875 49.140625 6.21875 
Q 49.703125 2.984375 51.375 0 
L 42.1875 0 
Q 40.828125 2.734375 40.4375 6.390625 
z
M 39.703125 26.03125 
Q 34.90625 24.078125 25.34375 22.703125 
Q 19.921875 21.921875 17.671875 20.9375 
Q 15.4375 19.96875 14.203125 18.09375 
Q 12.984375 16.21875 12.984375 13.921875 
Q 12.984375 10.40625 15.640625 8.0625 
Q 18.3125 5.71875 23.4375 5.71875 
Q 28.515625 5.71875 32.46875 7.9375 
Q 36.421875 10.15625 38.28125 14.015625 
Q 39.703125 17 39.703125 22.796875 
z
" id="ArialMT-61"/>
      <path d="M 40.4375 19 
L 49.078125 17.875 
Q 47.65625 8.9375 41.8125 3.875 
Q 35.984375 -1.171875 27.484375 -1.171875 
Q 16.84375 -1.171875 10.375 5.78125 
Q 3.90625 12.75 3.90625 25.734375 
Q 3.90625 34.125 6.6875 40.421875 
Q 9.46875 46.734375 15.15625 49.875 
Q 20.84375 53.03125 27.546875 53.03125 
Q 35.984375 53.03125 41.359375 48.75 
Q 46.734375 44.484375 48.25 36.625 
L 39.703125 35.296875 
Q 38.484375 40.53125 35.375 43.15625 
Q 32.28125 45.796875 27.875 45.796875 
Q 21.234375 45.796875 17.078125 41.03125 
Q 12.9375 36.28125 12.9375 25.984375 
Q 12.9375 15.53125 16.9375 10.796875 
Q 20.953125 6.0625 27.390625 6.0625 
Q 32.5625 6.0625 36.03125 9.234375 
Q 39.5 12.40625 40.4375 19 
z
" id="ArialMT-63"/>
      <path d="M 25.78125 7.859375 
L 27.046875 0.09375 
Q 23.34375 -0.6875 20.40625 -0.6875 
Q 15.625 -0.6875 12.984375 0.828125 
Q 10.359375 2.34375 9.28125 4.8125 
Q 8.203125 7.28125 8.203125 15.1875 
L 8.203125 45.015625 
L 1.765625 45.015625 
L 1.765625 51.859375 
L 8.203125 51.859375 
L 8.203125 64.703125 
L 16.9375 69.96875 
L 16.9375 51.859375 
L 25.78125 51.859375 
L 25.78125 45.015625 
L 16.9375 45.015625 
L 16.9375 14.703125 
Q 16.9375 10.9375 17.40625 9.859375 
Q 17.875 8.796875 18.921875 8.15625 
Q 19.96875 7.515625 21.921875 7.515625 
Q 23.390625 7.515625 25.78125 7.859375 
z
" id="ArialMT-74"/>
      <path d="M 6.640625 61.46875 
L 6.640625 71.578125 
L 15.4375 71.578125 
L 15.4375 61.46875 
z
M 6.640625 0 
L 6.640625 51.859375 
L 15.4375 51.859375 
L 15.4375 0 
z
" id="ArialMT-69"/>
      <path d="M 3.328125 25.921875 
Q 3.328125 40.328125 11.328125 47.265625 
Q 18.015625 53.03125 27.640625 53.03125 
Q 38.328125 53.03125 45.109375 46.015625 
Q 51.90625 39.015625 51.90625 26.65625 
Q 51.90625 16.65625 48.90625 10.90625 
Q 45.90625 5.171875 40.15625 2 
Q 34.421875 -1.171875 27.640625 -1.171875 
Q 16.75 -1.171875 10.03125 5.8125 
Q 3.328125 12.796875 3.328125 25.921875 
z
M 12.359375 25.921875 
Q 12.359375 15.96875 16.703125 11.015625 
Q 21.046875 6.0625 27.640625 6.0625 
Q 34.1875 6.0625 38.53125 11.03125 
Q 42.875 16.015625 42.875 26.21875 
Q 42.875 35.84375 38.5 40.796875 
Q 34.125 45.75 27.640625 45.75 
Q 21.046875 45.75 16.703125 40.8125 
Q 12.359375 35.890625 12.359375 25.921875 
z
" id="ArialMT-6f"/>
      <path d="M 6.59375 0 
L 6.59375 51.859375 
L 14.5 51.859375 
L 14.5 44.484375 
Q 20.21875 53.03125 31 53.03125 
Q 35.6875 53.03125 39.625 51.34375 
Q 43.5625 49.65625 45.515625 46.921875 
Q 47.46875 44.1875 48.25 40.4375 
Q 48.734375 37.984375 48.734375 31.890625 
L 48.734375 0 
L 39.9375 0 
L 39.9375 31.546875 
Q 39.9375 36.921875 38.90625 39.578125 
Q 37.890625 42.234375 35.28125 43.8125 
Q 32.671875 45.40625 29.15625 45.40625 
Q 23.53125 45.40625 19.453125 41.84375 
Q 15.375 38.28125 15.375 28.328125 
L 15.375 0 
z
" id="ArialMT-6e"/>
      <path id="ArialMT-20"/>
      <path d="M 8.6875 0 
L 8.6875 45.015625 
L 0.921875 45.015625 
L 0.921875 51.859375 
L 8.6875 51.859375 
L 8.6875 57.375 
Q 8.6875 62.59375 9.625 65.140625 
Q 10.890625 68.5625 14.078125 70.671875 
Q 17.28125 72.796875 23.046875 72.796875 
Q 26.765625 72.796875 31.25 71.921875 
L 29.9375 64.265625 
Q 27.203125 64.75 24.75 64.75 
Q 20.75 64.75 19.09375 63.03125 
Q 17.4375 61.328125 17.4375 56.640625 
L 17.4375 51.859375 
L 27.546875 51.859375 
L 27.546875 45.015625 
L 17.4375 45.015625 
L 17.4375 0 
z
" id="ArialMT-66"/>
      <path d="M 4.984375 -4.296875 
L 13.53125 -5.5625 
Q 14.0625 -9.515625 16.5 -11.328125 
Q 19.78125 -13.765625 25.4375 -13.765625 
Q 31.546875 -13.765625 34.859375 -11.328125 
Q 38.1875 -8.890625 39.359375 -4.5 
Q 40.046875 -1.8125 39.984375 6.78125 
Q 34.234375 0 25.640625 0 
Q 14.9375 0 9.078125 7.71875 
Q 3.21875 15.4375 3.21875 26.21875 
Q 3.21875 33.640625 5.90625 39.90625 
Q 8.59375 46.1875 13.6875 49.609375 
Q 18.796875 53.03125 25.6875 53.03125 
Q 34.859375 53.03125 40.828125 45.609375 
L 40.828125 51.859375 
L 48.921875 51.859375 
L 48.921875 7.03125 
Q 48.921875 -5.078125 46.453125 -10.125 
Q 44 -15.1875 38.640625 -18.109375 
Q 33.296875 -21.046875 25.484375 -21.046875 
Q 16.21875 -21.046875 10.5 -16.875 
Q 4.78125 -12.703125 4.984375 -4.296875 
z
M 12.25 26.859375 
Q 12.25 16.65625 16.296875 11.96875 
Q 20.359375 7.28125 26.46875 7.28125 
Q 32.515625 7.28125 36.609375 11.9375 
Q 40.71875 16.609375 40.71875 26.5625 
Q 40.71875 36.078125 36.5 40.90625 
Q 32.28125 45.75 26.3125 45.75 
Q 20.453125 45.75 16.34375 40.984375 
Q 12.25 36.234375 12.25 26.859375 
z
" id="ArialMT-67"/>
      <path d="M 6.390625 0 
L 6.390625 71.578125 
L 15.1875 71.578125 
L 15.1875 0 
z
" id="ArialMT-6c"/>
      <path d="M 3.078125 15.484375 
L 11.765625 16.84375 
Q 12.5 11.625 15.84375 8.84375 
Q 19.1875 6.0625 25.203125 6.0625 
Q 31.25 6.0625 34.171875 8.515625 
Q 37.109375 10.984375 37.109375 14.3125 
Q 37.109375 17.28125 34.515625 19 
Q 32.71875 20.171875 25.53125 21.96875 
Q 15.875 24.421875 12.140625 26.203125 
Q 8.40625 27.984375 6.46875 31.125 
Q 4.546875 34.28125 4.546875 38.09375 
Q 4.546875 41.546875 6.125 44.5 
Q 7.71875 47.46875 10.453125 49.421875 
Q 12.5 50.921875 16.03125 51.96875 
Q 19.578125 53.03125 23.640625 53.03125 
Q 29.734375 53.03125 34.34375 51.265625 
Q 38.96875 49.515625 41.15625 46.5 
Q 43.359375 43.5 44.1875 38.484375 
L 35.59375 37.3125 
Q 35.015625 41.3125 32.203125 43.546875 
Q 29.390625 45.796875 24.265625 45.796875 
Q 18.21875 45.796875 15.625 43.796875 
Q 13.03125 41.796875 13.03125 39.109375 
Q 13.03125 37.40625 14.109375 36.03125 
Q 15.1875 34.625 17.484375 33.6875 
Q 18.796875 33.203125 25.25 31.453125 
Q 34.578125 28.953125 38.25 27.359375 
Q 41.9375 25.78125 44.03125 22.75 
Q 46.140625 19.734375 46.140625 15.234375 
Q 46.140625 10.84375 43.578125 6.953125 
Q 41.015625 3.078125 36.171875 0.953125 
Q 31.34375 -1.171875 25.25 -1.171875 
Q 15.140625 -1.171875 9.84375 3.03125 
Q 4.546875 7.234375 3.078125 15.484375 
z
" id="ArialMT-73"/>
      <path d="M 21 0 
L 1.265625 51.859375 
L 10.546875 51.859375 
L 21.6875 20.796875 
Q 23.484375 15.765625 25 10.359375 
Q 26.171875 14.453125 28.265625 20.21875 
L 39.796875 51.859375 
L 48.828125 51.859375 
L 29.203125 0 
z
" id="ArialMT-76"/>
      <path d="M 42.09375 16.703125 
L 51.171875 15.578125 
Q 49.03125 7.625 43.21875 3.21875 
Q 37.40625 -1.171875 28.375 -1.171875 
Q 17 -1.171875 10.328125 5.828125 
Q 3.65625 12.84375 3.65625 25.484375 
Q 3.65625 38.578125 10.390625 45.796875 
Q 17.140625 53.03125 27.875 53.03125 
Q 38.28125 53.03125 44.875 45.953125 
Q 51.46875 38.875 51.46875 26.03125 
Q 51.46875 25.25 51.421875 23.6875 
L 12.75 23.6875 
Q 13.234375 15.140625 17.578125 10.59375 
Q 21.921875 6.0625 28.421875 6.0625 
Q 33.25 6.0625 36.671875 8.59375 
Q 40.09375 11.140625 42.09375 16.703125 
z
M 13.234375 30.90625 
L 42.1875 30.90625 
Q 41.609375 37.453125 38.875 40.71875 
Q 34.671875 45.796875 27.984375 45.796875 
Q 21.921875 45.796875 17.796875 41.75 
Q 13.671875 37.703125 13.234375 30.90625 
z
" id="ArialMT-65"/>
      <path d="M 6.59375 0 
L 6.59375 71.578125 
L 15.375 71.578125 
L 15.375 45.90625 
Q 21.53125 53.03125 30.90625 53.03125 
Q 36.671875 53.03125 40.921875 50.75 
Q 45.171875 48.484375 47 44.484375 
Q 48.828125 40.484375 48.828125 32.859375 
L 48.828125 0 
L 40.046875 0 
L 40.046875 32.859375 
Q 40.046875 39.453125 37.1875 42.453125 
Q 34.328125 45.453125 29.109375 45.453125 
Q 25.203125 45.453125 21.75 43.421875 
Q 18.3125 41.40625 16.84375 37.9375 
Q 15.375 34.46875 15.375 28.375 
L 15.375 0 
z
" id="ArialMT-68"/>
      <path d="M 6.59375 0 
L 6.59375 51.859375 
L 14.453125 51.859375 
L 14.453125 44.578125 
Q 16.890625 48.390625 20.9375 50.703125 
Q 25 53.03125 30.171875 53.03125 
Q 35.9375 53.03125 39.625 50.640625 
Q 43.3125 48.25 44.828125 43.953125 
Q 50.984375 53.03125 60.84375 53.03125 
Q 68.5625 53.03125 72.703125 48.75 
Q 76.859375 44.484375 76.859375 35.59375 
L 76.859375 0 
L 68.109375 0 
L 68.109375 32.671875 
Q 68.109375 37.9375 67.25 40.25 
Q 66.40625 42.578125 64.15625 43.984375 
Q 61.921875 45.40625 58.890625 45.40625 
Q 53.421875 45.40625 49.796875 41.765625 
Q 46.1875 38.140625 46.1875 30.125 
L 46.1875 0 
L 37.40625 0 
L 37.40625 33.6875 
Q 37.40625 39.546875 35.25 42.46875 
Q 33.109375 45.40625 28.21875 45.40625 
Q 24.515625 45.40625 21.359375 43.453125 
Q 18.21875 41.5 16.796875 37.734375 
Q 15.375 33.984375 15.375 26.90625 
L 15.375 0 
z
" id="ArialMT-6d"/>
     </defs>
     <g style="fill:#262626;" transform="translate(21.759375 390.12)rotate(-90)scale(0.2 -0.2)">
      <use xlink:href="#ArialMT-46"/>
      <use x="61.083984" xlink:href="#ArialMT-72"/>
      <use x="94.384766" xlink:href="#ArialMT-61"/>
      <use x="150" xlink:href="#ArialMT-63"/>
      <use x="200" xlink:href="#ArialMT-74"/>
      <use x="227.783203" xlink:href="#ArialMT-69"/>
      <use x="250" xlink:href="#ArialMT-6f"/>
      <use x="305.615234" xlink:href="#ArialMT-6e"/>
      <use x="361.230469" xlink:href="#ArialMT-20"/>
      <use x="389.013672" xlink:href="#ArialMT-6f"/>
      <use x="444.628906" xlink:href="#ArialMT-66"/>
      <use x="472.412109" xlink:href="#ArialMT-20"/>
      <use x="500.195312" xlink:href="#ArialMT-67"/>
      <use x="555.810547" xlink:href="#ArialMT-69"/>
      <use x="578.027344" xlink:href="#ArialMT-72"/>
      <use x="611.328125" xlink:href="#ArialMT-6c"/>
      <use x="633.544922" xlink:href="#ArialMT-73"/>
      <use x="683.544922" xlink:href="#ArialMT-20"/>
      <use x="711.328125" xlink:href="#ArialMT-67"/>
      <use x="766.943359" xlink:href="#ArialMT-69"/>
      <use x="789.160156" xlink:href="#ArialMT-76"/>
      <use x="839.160156" xlink:href="#ArialMT-65"/>
      <use x="894.775391" xlink:href="#ArialMT-6e"/>
      <use x="950.390625" xlink:href="#ArialMT-20"/>
      <use x="978.173828" xlink:href="#ArialMT-74"/>
      <use x="1005.957031" xlink:href="#ArialMT-68"/>
      <use x="1061.572266" xlink:href="#ArialMT-65"/>
      <use x="1117.1875" xlink:href="#ArialMT-20"/>
      <use x="1144.970703" xlink:href="#ArialMT-6e"/>
      <use x="1200.585938" xlink:href="#ArialMT-61"/>
      <use x="1256.201172" xlink:href="#ArialMT-6d"/>
      <use x="1339.501953" xlink:href="#ArialMT-65"/>
     </g>
    </g>
   </g>
   <g id="line2d_18">
    <path clip-path="url(#p1f919ddc6e)" d="M 47.921875 90.006763 
L 53.814522 101.811124 
L 59.707169 100.303055 
L 65.599816 121.057368 
L 71.492463 120.539001 
L 77.38511 134.489009 
L 83.277757 135.388636 
L 89.170404 138.761435 
L 95.063051 148.266097 
L 100.955699 150.721713 
L 106.848346 159.878232 
L 112.740993 161.58943 
L 118.63364 166.815478 
L 124.526287 176.593236 
L 130.418934 181.76832 
L 136.311581 188.855431 
L 142.204228 186.414424 
L 148.096875 190.221692 
L 153.989522 198.115026 
L 159.882169 193.906721 
L 165.774816 197.865663 
L 171.667463 201.995064 
L 177.56011 202.129085 
L 183.452757 203.923218 
L 189.345404 204.705723 
L 195.238051 200.948887 
L 201.130699 199.279542 
L 207.023346 200.507677 
L 212.915993 197.314877 
L 218.80864 199.132283 
L 224.701287 188.507869 
L 230.593934 185.151106 
L 236.486581 187.245775 
L 242.379228 183.368476 
L 248.271875 179.072609 
L 254.164522 181.045197 
L 260.057169 182.574951 
L 265.949816 179.530856 
L 271.842463 185.704496 
L 277.73511 185.376605 
L 283.627757 180.6042 
L 289.520404 176.813805 
L 295.413051 176.342658 
L 301.305699 179.861111 
L 307.198346 182.337362 
L 313.090993 186.707132 
L 318.98364 190.480428 
L 324.876287 180.550591 
L 330.768934 186.750988 
L 336.661581 192.138204 
L 342.554228 191.715791 
L 348.446875 193.378565 
L 354.339522 195.960288 
L 360.232169 201.076584 
L 366.124816 203.772889 
L 372.017463 213.618576 
L 377.91011 214.881239 
L 383.802757 214.697651 
L 389.695404 221.350988 
L 395.588051 225.683382 
L 401.480699 230.197662 
L 407.373346 235.627957 
L 413.265993 241.633397 
L 419.15864 238.66607 
L 425.051287 240.453293 
L 430.943934 248.842999 
L 436.836581 260.764163 
L 442.729228 273.057339 
L 448.621875 273.241035 
L 454.514522 279.73465 
L 460.407169 283.964329 
L 466.299816 292.457642 
L 472.192463 297.850773 
L 478.08511 303.64812 
L 483.977757 299.728635 
L 489.870404 313.05015 
L 495.763051 320.680887 
L 501.655699 324.97733 
L 507.548346 335.366763 
L 513.440993 339.547033 
L 519.33364 346.770628 
L 525.226287 355.776695 
L 531.118934 363.218512 
L 537.011581 365.951582 
L 542.904228 365.590492 
L 548.796875 376.489183 
L 554.689522 388.032562 
L 560.582169 396.570093 
L 566.474816 406.86686 
L 572.367463 414.128099 
L 578.26011 417.965442 
L 584.152757 422.641293 
L 590.045404 427.517882 
L 595.938051 430.456674 
L 601.830699 432.656447 
L 613.615993 437.36368 
L 619.50864 437.815124 
L 625.401287 439.764383 
L 631.293934 439.657262 
L 637.186581 438.010992 
L 643.079228 439.450904 
L 648.971875 440.477589 
L 654.864522 442.871042 
L 660.757169 444.867039 
L 666.649816 445.592195 
L 672.542463 447.620683 
L 678.43511 448.260509 
L 684.327757 448.503597 
L 690.220404 448.948298 
L 696.113051 449.559102 
L 702.005699 449.031847 
L 713.790993 449.942722 
L 719.68364 450.657348 
L 725.576287 451.183902 
L 731.468934 452.503616 
L 743.254228 454.087725 
L 749.146875 454.355713 
L 755.039522 455.249233 
L 760.932169 456.362461 
L 766.824816 457.063155 
L 772.717463 458.512218 
L 778.61011 459.130272 
L 784.502757 460.150354 
L 796.288051 462.600251 
L 802.180699 462.91716 
L 813.965993 464.082057 
L 825.751287 464.825001 
L 831.643934 464.58405 
L 837.536581 464.752728 
L 843.429228 464.76555 
L 849.321875 465.055899 
L 849.321875 465.055899 
" style="fill:none;stroke:#1f77b4;stroke-linecap:round;stroke-width:1.5;"/>
   </g>
   <g id="line2d_19">
    <path clip-path="url(#p1f919ddc6e)" d="M 47.921875 470.561633 
L 53.814522 469.988321 
L 59.707169 470.379213 
L 65.599816 469.875126 
L 71.492463 470.763135 
L 77.38511 469.8029 
L 83.277757 470.353546 
L 89.170404 470.336388 
L 95.063051 469.900653 
L 100.955699 469.980337 
L 106.848346 470.625989 
L 112.740993 469.952545 
L 118.63364 470.098384 
L 124.526287 470.126606 
L 130.418934 469.946906 
L 136.311581 469.99985 
L 142.204228 469.870875 
L 148.096875 470.319923 
L 159.882169 469.952381 
L 165.774816 469.953824 
L 171.667463 470.253728 
L 183.452757 470.331275 
L 189.345404 470.216944 
L 195.238051 470.233195 
L 212.915993 470.652886 
L 224.701287 470.321572 
L 230.593934 470.492528 
L 242.379228 470.146629 
L 248.271875 470.606725 
L 260.057169 470.622337 
L 265.949816 470.697457 
L 271.842463 470.653048 
L 277.73511 470.793868 
L 283.627757 470.588598 
L 295.413051 470.526228 
L 301.305699 470.29635 
L 318.98364 470.033412 
L 330.768934 469.657925 
L 342.554228 469.871482 
L 348.446875 469.55365 
L 354.339522 468.452639 
L 360.232169 468.184257 
L 372.017463 466.404616 
L 377.91011 460.486004 
L 383.802757 451.766028 
L 389.695404 440.601342 
L 395.588051 423.95098 
L 401.480699 392.982782 
L 407.373346 375.425985 
L 413.265993 356.86573 
L 419.15864 336.467945 
L 425.051287 329.619533 
L 430.943934 315.941871 
L 436.836581 306.970554 
L 442.729228 195.34622 
L 448.621875 193.215898 
L 454.514522 210.28325 
L 460.407169 241.020023 
L 466.299816 269.934973 
L 472.192463 294.038092 
L 478.08511 311.778261 
L 483.977757 331.711489 
L 495.763051 354.206216 
L 501.655699 364.928017 
L 507.548346 369.511502 
L 513.440993 373.73997 
L 519.33364 381.233675 
L 525.226287 385.26773 
L 537.011581 401.262291 
L 542.904228 410.645888 
L 548.796875 418.121711 
L 554.689522 426.774571 
L 560.582169 432.687972 
L 566.474816 437.921905 
L 572.367463 442.134292 
L 578.26011 447.444714 
L 584.152757 450.204574 
L 590.045404 453.443863 
L 595.938051 456.055571 
L 601.830699 458.335471 
L 607.723346 460.134965 
L 613.615993 461.474095 
L 619.50864 462.686115 
L 625.401287 462.591404 
L 631.293934 463.626277 
L 637.186581 463.711556 
L 643.079228 463.967405 
L 648.971875 463.921963 
L 654.864522 464.736878 
L 660.757169 465.199317 
L 666.649816 465.978358 
L 672.542463 466.424136 
L 678.43511 466.561106 
L 684.327757 466.924944 
L 690.220404 467.102078 
L 696.113051 467.723495 
L 713.790993 467.973594 
L 719.68364 468.485664 
L 725.576287 468.571007 
L 731.468934 469.250531 
L 737.361581 468.919842 
L 743.254228 469.319509 
L 755.039522 469.717299 
L 760.932169 469.732988 
L 772.717463 470.02467 
L 790.395404 470.213291 
L 813.965993 470.698774 
L 819.85864 470.650888 
L 831.643934 470.778226 
L 837.536581 470.722075 
L 843.429228 470.844538 
L 849.321875 470.806002 
L 849.321875 470.806002 
" style="fill:none;stroke:#ff7f0e;stroke-linecap:round;stroke-width:1.5;"/>
   </g>
   <g id="line2d_20">
    <path clip-path="url(#p1f919ddc6e)" d="M 47.921875 472.021562 
L 77.38511 472.021562 
L 83.277757 471.817316 
L 89.170404 472.021562 
L 153.989522 472.021562 
L 159.882169 471.873764 
L 165.774816 472.021562 
L 183.452757 472.021562 
L 189.345404 471.860755 
L 201.130699 472.021562 
L 207.023346 471.913451 
L 218.80864 472.021562 
L 224.701287 471.909884 
L 336.661581 471.924615 
L 354.339522 471.832511 
L 360.232169 471.919039 
L 401.480699 471.638589 
L 413.265993 471.5662 
L 425.051287 471.306068 
L 430.943934 471.080484 
L 442.729228 470.850303 
L 448.621875 470.665352 
L 454.514522 470.301814 
L 460.407169 468.647244 
L 466.299816 467.37715 
L 472.192463 464.473145 
L 478.08511 462.591331 
L 483.977757 457.058735 
L 489.870404 450.528871 
L 495.763051 445.020425 
L 501.655699 435.60167 
L 513.440993 409.537982 
L 519.33364 390.019756 
L 525.226287 367.892089 
L 531.118934 356.736362 
L 537.011581 328.968771 
L 542.904228 331.080308 
L 548.796875 304.033645 
L 554.689522 306.521095 
L 560.582169 315.751158 
L 566.474816 323.432485 
L 572.367463 340.704804 
L 578.26011 362.364298 
L 584.152757 374.70425 
L 590.045404 382.923642 
L 595.938051 395.542033 
L 601.830699 405.713421 
L 607.723346 410.82347 
L 613.615993 413.76368 
L 619.50864 417.417701 
L 625.401287 417.306731 
L 631.293934 419.038392 
L 637.186581 425.611181 
L 643.079228 429.85377 
L 648.971875 435.284196 
L 654.864522 438.243367 
L 660.757169 442.101895 
L 666.649816 446.238558 
L 672.542463 449.353561 
L 684.327757 451.944644 
L 690.220404 454.476379 
L 696.113051 458.1682 
L 702.005699 460.483397 
L 707.898346 461.930254 
L 713.790993 463.250963 
L 719.68364 464.952521 
L 725.576287 465.761309 
L 731.468934 466.78552 
L 737.361581 467.653141 
L 743.254228 468.224759 
L 749.146875 468.935728 
L 755.039522 469.074816 
L 760.932169 469.538855 
L 766.824816 469.747249 
L 772.717463 469.836029 
L 784.502757 470.374412 
L 790.395404 470.446449 
L 796.288051 470.678955 
L 802.180699 470.70046 
L 808.073346 470.894859 
L 849.321875 471.063679 
L 849.321875 471.063679 
" style="fill:none;stroke:#2ca02c;stroke-linecap:round;stroke-width:1.5;"/>
   </g>
   <g id="line2d_21">
    <path clip-path="url(#p1f919ddc6e)" d="M 47.921875 472.021562 
L 342.554228 471.947271 
L 366.124816 471.828357 
L 383.802757 471.84583 
L 401.480699 471.582649 
L 413.265993 471.300268 
L 419.15864 470.833114 
L 425.051287 469.478404 
L 430.943934 468.30995 
L 436.836581 466.594911 
L 442.729228 466.434489 
L 448.621875 466.573536 
L 454.514522 464.475373 
L 460.407169 463.977761 
L 466.299816 463.899304 
L 472.192463 462.655687 
L 478.08511 463.192983 
L 483.977757 461.981318 
L 489.870404 461.638924 
L 495.763051 460.478006 
L 501.655699 458.827414 
L 507.548346 457.635559 
L 513.440993 456.865774 
L 519.33364 454.393437 
L 531.118934 444.551857 
L 537.011581 442.005417 
L 542.904228 438.365694 
L 548.796875 429.622501 
L 554.689522 419.048269 
L 560.582169 417.667417 
L 566.474816 391.481819 
L 572.367463 373.733038 
L 578.26011 342.118581 
L 590.045404 266.292304 
L 595.938051 261.298815 
L 601.830699 260.403473 
L 607.723346 275.646324 
L 613.615993 272.301357 
L 619.50864 282.796639 
L 625.401287 291.133397 
L 631.293934 298.169576 
L 637.186581 299.008047 
L 643.079228 303.722124 
L 648.971875 306.039346 
L 654.864522 311.955864 
L 660.757169 324.229631 
L 666.649816 350.044926 
L 672.542463 368.218126 
L 678.43511 379.468382 
L 684.327757 394.947643 
L 690.220404 407.974834 
L 696.113051 414.407231 
L 702.005699 417.766464 
L 707.898346 424.460832 
L 713.790993 429.180559 
L 719.68364 433.440856 
L 725.576287 436.522539 
L 731.468934 439.094854 
L 737.361581 438.550125 
L 743.254228 442.243258 
L 749.146875 442.570155 
L 755.039522 446.58249 
L 766.824816 448.629013 
L 772.717463 451.637624 
L 778.61011 454.480075 
L 790.395404 458.376623 
L 796.288051 460.112327 
L 802.180699 462.14326 
L 808.073346 464.011234 
L 813.965993 464.758704 
L 819.85864 465.639099 
L 825.751287 466.634647 
L 843.429228 468.473871 
L 849.321875 468.792206 
L 849.321875 468.792206 
" style="fill:none;stroke:#d62728;stroke-linecap:round;stroke-width:1.5;"/>
   </g>
   <g id="line2d_22">
    <path clip-path="url(#p1f919ddc6e)" d="M 47.921875 471.643062 
L 65.599816 471.758734 
L 71.492463 471.487684 
L 77.38511 471.799696 
L 83.277757 471.64711 
L 89.170404 471.751935 
L 95.063051 471.525765 
L 100.955699 471.773305 
L 106.848346 471.556371 
L 118.63364 471.697171 
L 124.526287 471.674924 
L 130.418934 471.800854 
L 136.311581 471.621432 
L 142.204228 471.835445 
L 159.882169 471.725965 
L 165.774816 471.644118 
L 171.667463 471.857113 
L 177.56011 471.853881 
L 183.452757 471.721067 
L 218.80864 471.766513 
L 224.701287 471.674119 
L 230.593934 471.774565 
L 236.486581 471.704205 
L 242.379228 471.824616 
L 254.164522 471.746523 
L 295.413051 471.85769 
L 307.198346 471.860042 
L 330.768934 471.867969 
L 360.232169 471.811634 
L 407.373346 471.691648 
L 413.265993 471.558914 
L 425.051287 471.561866 
L 430.943934 471.524673 
L 436.836581 471.270035 
L 442.729228 470.828099 
L 448.621875 470.624781 
L 454.514522 470.853974 
L 460.407169 470.867115 
L 466.299816 470.748447 
L 472.192463 470.822306 
L 478.08511 470.726704 
L 483.977757 470.94736 
L 489.870404 471.049999 
L 495.763051 471.026513 
L 507.548346 470.727312 
L 513.440993 470.749663 
L 519.33364 470.659002 
L 525.226287 470.390081 
L 531.118934 469.852507 
L 537.011581 469.159843 
L 542.904228 468.980823 
L 548.796875 467.759636 
L 554.689522 467.174086 
L 560.582169 466.773309 
L 566.474816 466.496266 
L 572.367463 464.753893 
L 578.26011 460.699833 
L 584.152757 456.172676 
L 595.938051 447.640697 
L 601.830699 436.304283 
L 607.723346 428.383371 
L 619.50864 392.289977 
L 625.401287 388.184372 
L 631.293934 386.885583 
L 637.186581 371.486482 
L 643.079228 346.54782 
L 648.971875 339.951878 
L 654.864522 338.637899 
L 660.757169 337.991041 
L 666.649816 333.7543 
L 672.542463 320.916856 
L 678.43511 313.535281 
L 684.327757 329.578811 
L 690.220404 344.21105 
L 696.113051 351.548635 
L 702.005699 358.120239 
L 707.898346 369.656566 
L 713.790993 376.842607 
L 719.68364 383.505587 
L 731.468934 404.096189 
L 737.361581 412.52621 
L 743.254228 421.225737 
L 749.146875 426.660901 
L 755.039522 429.44419 
L 760.932169 433.963411 
L 766.824816 439.37283 
L 772.717463 443.871031 
L 778.61011 446.627839 
L 784.502757 450.408714 
L 790.395404 454.379254 
L 796.288051 457.40149 
L 802.180699 459.686062 
L 808.073346 461.846353 
L 813.965993 463.155828 
L 819.85864 464.677665 
L 825.751287 465.494514 
L 831.643934 466.547508 
L 849.321875 468.170421 
L 849.321875 468.170421 
" style="fill:none;stroke:#9467bd;stroke-linecap:round;stroke-width:1.5;"/>
   </g>
   <g id="line2d_23">
    <path clip-path="url(#p1f919ddc6e)" d="M 47.921875 472.021562 
L 513.440993 471.931581 
L 537.011581 471.745857 
L 560.582169 470.871179 
L 566.474816 470.38977 
L 572.367463 470.146317 
L 584.152757 468.57911 
L 595.938051 467.793881 
L 607.723346 465.312148 
L 619.50864 463.337575 
L 631.293934 458.381906 
L 637.186581 450.398948 
L 643.079228 445.829324 
L 648.971875 428.861478 
L 654.864522 373.959635 
L 660.757169 358.709154 
L 666.649816 337.580995 
L 672.542463 329.503785 
L 678.43511 316.7623 
L 684.327757 333.929178 
L 690.220404 345.001157 
L 696.113051 353.920609 
L 702.005699 357.902389 
L 707.898346 369.39234 
L 713.790993 377.220744 
L 719.68364 388.573801 
L 725.576287 397.572961 
L 731.468934 405.547682 
L 737.361581 412.941846 
L 743.254228 416.662887 
L 749.146875 421.70192 
L 755.039522 423.236232 
L 760.932169 426.835198 
L 766.824816 429.987861 
L 772.717463 432.91372 
L 778.61011 433.48178 
L 784.502757 436.645149 
L 790.395404 440.052974 
L 796.288051 442.750671 
L 802.180699 447.519933 
L 813.965993 454.525811 
L 819.85864 456.890891 
L 831.643934 460.94687 
L 837.536581 462.20352 
L 843.429228 462.552743 
L 849.321875 463.551853 
L 849.321875 463.551853 
" style="fill:none;stroke:#8c564b;stroke-linecap:round;stroke-width:1.5;"/>
   </g>
   <g id="line2d_24">
    <path clip-path="url(#p1f919ddc6e)" d="M 47.921875 460.666558 
L 53.814522 458.966013 
L 59.707169 459.612697 
L 65.599816 457.040315 
L 77.38511 459.227274 
L 83.277757 459.460378 
L 89.170404 460.730893 
L 95.063051 459.433827 
L 100.955699 460.187974 
L 106.848346 458.866988 
L 112.740993 460.244081 
L 118.63364 460.019076 
L 124.526287 460.328295 
L 130.418934 459.860545 
L 136.311581 459.280561 
L 142.204228 461.123368 
L 148.096875 459.017677 
L 153.989522 460.081169 
L 159.882169 460.007643 
L 165.774816 461.748511 
L 171.667463 460.982873 
L 177.56011 460.731017 
L 183.452757 461.541781 
L 189.345404 461.318923 
L 195.238051 460.498401 
L 201.130699 461.708349 
L 207.023346 460.994207 
L 218.80864 461.408651 
L 224.701287 462.280743 
L 230.593934 461.330081 
L 236.486581 461.910188 
L 242.379228 461.094955 
L 254.164522 461.565076 
L 260.057169 461.59568 
L 265.949816 461.920143 
L 277.73511 461.977975 
L 283.627757 463.119937 
L 289.520404 463.306942 
L 295.413051 463.229813 
L 307.198346 463.969198 
L 313.090993 464.884256 
L 318.98364 464.84513 
L 324.876287 465.188471 
L 336.661581 465.653867 
L 348.446875 466.531151 
L 360.232169 466.836807 
L 366.124816 466.988807 
L 377.91011 466.710192 
L 383.802757 466.042018 
L 401.480699 466.560967 
L 407.373346 466.449681 
L 419.15864 467.313615 
L 425.051287 467.383821 
L 430.943934 467.752832 
L 436.836581 467.703413 
L 442.729228 467.94991 
L 454.514522 468.015525 
L 466.299816 468.502737 
L 472.192463 468.328277 
L 478.08511 468.558143 
L 489.870404 468.734356 
L 507.548346 469.149255 
L 519.33364 469.045828 
L 531.118934 469.32713 
L 542.904228 469.087288 
L 548.796875 468.428611 
L 560.582169 468.427358 
L 566.474816 468.044069 
L 572.367463 467.422399 
L 578.26011 466.584431 
L 584.152757 466.494119 
L 590.045404 464.472755 
L 595.938051 461.798199 
L 601.830699 457.500626 
L 607.723346 453.516674 
L 613.615993 453.391397 
L 619.50864 449.94254 
L 625.401287 447.9965 
L 631.293934 447.577458 
L 637.186581 445.322257 
L 643.079228 440.156011 
L 648.971875 435.64166 
L 654.864522 435.562792 
L 660.757169 434.6629 
L 666.649816 434.46103 
L 672.542463 434.056031 
L 678.43511 430.376028 
L 684.327757 428.164109 
L 690.220404 425.784277 
L 696.113051 421.831638 
L 702.005699 418.719229 
L 707.898346 413.752996 
L 713.790993 407.838949 
L 719.68364 405.467846 
L 725.576287 403.796834 
L 731.468934 401.409383 
L 737.361581 399.268263 
L 743.254228 399.093967 
L 749.146875 398.377782 
L 755.039522 401.665612 
L 760.932169 403.517437 
L 766.824816 404.997811 
L 772.717463 402.795939 
L 778.61011 404.891381 
L 784.502757 408.230476 
L 790.395404 416.58689 
L 796.288051 422.434766 
L 808.073346 430.864676 
L 813.965993 432.459921 
L 819.85864 432.087017 
L 825.751287 433.808916 
L 831.643934 435.120922 
L 837.536581 437.104059 
L 843.429228 439.435974 
L 849.321875 441.419695 
L 849.321875 441.419695 
" style="fill:none;stroke:#e377c2;stroke-linecap:round;stroke-width:1.5;"/>
   </g>
   <g id="line2d_25">
    <path clip-path="url(#p1f919ddc6e)" d="M 47.921875 363.716447 
L 53.814522 363.189646 
L 59.707169 366.956795 
L 65.599816 368.33556 
L 71.492463 373.368488 
L 77.38511 371.146365 
L 83.277757 377.931826 
L 89.170404 382.80842 
L 95.063051 386.992371 
L 100.955699 392.468956 
L 106.848346 395.006566 
L 112.740993 395.520984 
L 124.526287 403.433384 
L 130.418934 407.199589 
L 142.204228 412.629505 
L 148.096875 415.342268 
L 153.989522 419.012301 
L 159.882169 420.397604 
L 165.774816 421.230679 
L 177.56011 425.182567 
L 183.452757 428.675084 
L 189.345404 430.711876 
L 195.238051 433.251101 
L 201.130699 434.967301 
L 207.023346 435.634377 
L 212.915993 437.333699 
L 218.80864 438.893408 
L 224.701287 439.672114 
L 230.593934 441.252677 
L 236.486581 442.427942 
L 242.379228 444.653837 
L 248.271875 446.360668 
L 254.164522 446.797977 
L 260.057169 447.44324 
L 265.949816 448.720044 
L 271.842463 449.39857 
L 277.73511 449.870815 
L 283.627757 450.518882 
L 289.520404 451.779224 
L 295.413051 451.484265 
L 301.305699 451.726864 
L 307.198346 452.721889 
L 313.090993 452.977968 
L 318.98364 453.426757 
L 330.768934 454.870257 
L 336.661581 455.267252 
L 342.554228 456.485923 
L 348.446875 456.742691 
L 360.232169 456.64305 
L 366.124816 458.167349 
L 372.017463 458.86843 
L 377.91011 458.622531 
L 389.695404 460.124153 
L 395.588051 459.970267 
L 413.265993 462.531798 
L 419.15864 463.483779 
L 425.051287 463.691422 
L 430.943934 464.297193 
L 436.836581 465.53651 
L 442.729228 466.07645 
L 448.621875 465.944694 
L 460.407169 466.570961 
L 466.299816 467.300654 
L 472.192463 467.479246 
L 483.977757 468.152914 
L 489.870404 468.354289 
L 507.548346 469.364556 
L 519.33364 469.634649 
L 531.118934 470.027632 
L 537.011581 470.175868 
L 542.904228 470.022101 
L 548.796875 470.240417 
L 554.689522 470.218662 
L 572.367463 470.5167 
L 595.938051 470.607837 
L 601.830699 470.361931 
L 607.723346 470.408333 
L 613.615993 470.621278 
L 619.50864 470.487584 
L 625.401287 470.6019 
L 648.971875 470.388274 
L 654.864522 470.398489 
L 660.757169 470.051471 
L 666.649816 469.330292 
L 678.43511 467.526381 
L 684.327757 467.082486 
L 690.220404 466.856504 
L 696.113051 465.758515 
L 702.005699 465.220974 
L 707.898346 463.459564 
L 713.790993 460.857003 
L 719.68364 458.900429 
L 725.576287 457.905908 
L 731.468934 454.791753 
L 737.361581 450.148354 
L 743.254228 442.956378 
L 749.146875 439.492646 
L 755.039522 438.01334 
L 760.932169 435.639512 
L 766.824816 426.716137 
L 772.717463 410.842798 
L 778.61011 414.084505 
L 784.502757 417.820195 
L 790.395404 422.519472 
L 796.288051 424.966247 
L 802.180699 423.018304 
L 808.073346 424.032021 
L 813.965993 423.954695 
L 819.85864 419.35012 
L 825.751287 413.41259 
L 831.643934 413.171258 
L 837.536581 414.202668 
L 843.429228 415.482824 
L 849.321875 417.646251 
L 849.321875 417.646251 
" style="fill:none;stroke:#7f7f7f;stroke-linecap:round;stroke-width:1.5;"/>
   </g>
   <g id="line2d_26">
    <path clip-path="url(#p1f919ddc6e)" d="M 47.921875 469.31799 
L 53.814522 469.346245 
L 59.707169 470.014246 
L 65.599816 469.656102 
L 71.492463 469.123366 
L 77.38511 470.246632 
L 83.277757 469.298271 
L 89.170404 470.06676 
L 95.063051 470.286273 
L 100.955699 469.814833 
L 106.848346 469.669762 
L 112.740993 469.92602 
L 118.63364 469.98253 
L 124.526287 469.502657 
L 130.418934 469.991048 
L 142.204228 470.20175 
L 148.096875 470.214884 
L 153.989522 470.386413 
L 159.882169 470.036838 
L 165.774816 469.921003 
L 171.667463 470.13039 
L 177.56011 470.456536 
L 183.452757 470.218589 
L 189.345404 470.449221 
L 195.238051 470.250066 
L 207.023346 470.075559 
L 218.80864 470.647127 
L 224.701287 470.147851 
L 230.593934 470.504289 
L 254.164522 470.81139 
L 271.842463 470.942051 
L 277.73511 470.828696 
L 289.520404 471.079873 
L 301.305699 471.091661 
L 330.768934 471.262127 
L 342.554228 471.401011 
L 354.339522 471.431353 
L 360.232169 471.455243 
L 366.124816 471.597454 
L 395.588051 471.635706 
L 401.480699 471.690226 
L 407.373346 471.630553 
L 413.265993 471.762916 
L 425.051287 471.739813 
L 448.621875 471.798425 
L 489.870404 471.868025 
L 560.582169 471.890431 
L 572.367463 471.93407 
L 607.723346 471.910189 
L 631.293934 471.95413 
L 648.971875 471.925658 
L 672.542463 471.849422 
L 690.220404 471.645194 
L 702.005699 471.22103 
L 707.898346 470.665735 
L 713.790993 469.769064 
L 725.576287 467.157763 
L 731.468934 466.100482 
L 737.361581 463.932208 
L 743.254228 461.299702 
L 749.146875 457.982679 
L 755.039522 455.100134 
L 760.932169 447.869852 
L 766.824816 438.685056 
L 772.717463 434.902529 
L 778.61011 431.757399 
L 784.502757 431.562438 
L 790.395404 424.819967 
L 796.288051 422.995894 
L 802.180699 423.531632 
L 808.073346 412.228456 
L 813.965993 408.52216 
L 819.85864 416.266804 
L 825.751287 418.547388 
L 831.643934 422.465336 
L 837.536581 424.869524 
L 843.429228 428.88983 
L 849.321875 430.787745 
L 849.321875 430.787745 
" style="fill:none;stroke:#bcbd22;stroke-linecap:round;stroke-width:1.5;"/>
   </g>
   <g id="line2d_27">
    <path clip-path="url(#p1f919ddc6e)" d="M 47.921875 464.559702 
L 53.814522 465.493788 
L 59.707169 463.855434 
L 65.599816 465.056597 
L 71.492463 465.538755 
L 77.38511 465.180686 
L 83.277757 464.600592 
L 89.170404 465.550492 
L 95.063051 465.107948 
L 100.955699 465.097948 
L 112.740993 466.185873 
L 118.63364 466.437394 
L 124.526287 466.313584 
L 130.418934 465.930019 
L 136.311581 466.56715 
L 142.204228 466.27261 
L 148.096875 466.181368 
L 153.989522 467.458355 
L 159.882169 466.996408 
L 165.774816 467.771211 
L 177.56011 467.251959 
L 183.452757 468.021216 
L 189.345404 467.912035 
L 195.238051 468.023042 
L 201.130699 467.906274 
L 212.915993 467.959683 
L 218.80864 468.394185 
L 230.593934 468.822351 
L 236.486581 468.521811 
L 242.379228 468.641956 
L 248.271875 468.481238 
L 260.057169 468.737857 
L 265.949816 468.84553 
L 271.842463 469.348284 
L 277.73511 469.392032 
L 289.520404 470.070349 
L 295.413051 470.419711 
L 307.198346 470.615156 
L 318.98364 471.050316 
L 324.876287 471.031259 
L 336.661581 471.276829 
L 360.232169 471.51871 
L 383.802757 471.540609 
L 389.695404 471.629144 
L 401.480699 471.56974 
L 407.373346 471.58575 
L 413.265993 471.726487 
L 425.051287 471.636011 
L 478.08511 471.681499 
L 483.977757 471.737811 
L 489.870404 471.638978 
L 495.763051 471.725008 
L 513.440993 471.347918 
L 519.33364 471.384079 
L 525.226287 471.231428 
L 531.118934 470.80569 
L 537.011581 470.686434 
L 542.904228 470.801112 
L 560.582169 470.230421 
L 566.474816 470.380771 
L 572.367463 470.289221 
L 578.26011 470.386483 
L 584.152757 470.267804 
L 590.045404 470.456171 
L 595.938051 470.486371 
L 601.830699 470.724033 
L 613.615993 470.789178 
L 619.50864 470.628787 
L 625.401287 470.701469 
L 631.293934 470.519668 
L 637.186581 470.118915 
L 643.079228 468.383916 
L 648.971875 468.647456 
L 654.864522 468.504412 
L 660.757169 468.855971 
L 678.43511 468.845496 
L 684.327757 468.804391 
L 690.220404 469.197463 
L 696.113051 469.107794 
L 725.576287 467.0878 
L 731.468934 464.96624 
L 737.361581 461.732446 
L 743.254228 460.026672 
L 749.146875 456.975343 
L 755.039522 454.229935 
L 760.932169 452.447002 
L 766.824816 448.283756 
L 772.717463 445.927211 
L 778.61011 442.749993 
L 784.502757 438.252319 
L 790.395404 437.055595 
L 796.288051 428.412444 
L 802.180699 430.126721 
L 808.073346 426.593931 
L 813.965993 414.800554 
L 819.85864 410.82335 
L 825.751287 409.574798 
L 831.643934 412.406128 
L 837.536581 420.642042 
L 849.321875 427.012226 
L 849.321875 427.012226 
" style="fill:none;stroke:#17becf;stroke-linecap:round;stroke-width:1.5;"/>
   </g>
   <g id="patch_31">
    <path d="M 47.921875 472.021562 
L 47.921875 29.215312 
" style="fill:none;stroke:#262626;stroke-linecap:square;stroke-linejoin:miter;stroke-width:1.25;"/>
   </g>
   <g id="patch_32">
    <path d="M 849.321875 472.021562 
L 849.321875 29.215312 
" style="fill:none;stroke:#262626;stroke-linecap:square;stroke-linejoin:miter;stroke-width:1.25;"/>
   </g>
   <g id="patch_33">
    <path d="M 47.921875 472.021562 
L 849.321875 472.021562 
" style="fill:none;stroke:#262626;stroke-linecap:square;stroke-linejoin:miter;stroke-width:1.25;"/>
   </g>
   <g id="patch_34">
    <path d="M 47.921875 29.215312 
L 849.321875 29.215312 
" style="fill:none;stroke:#262626;stroke-linecap:square;stroke-linejoin:miter;stroke-width:1.25;"/>
   </g>
   <g id="text_19">
    <!-- The most popular girls names in the US -->
    <defs>
     <path d="M 25.921875 0 
L 25.921875 63.140625 
L 2.34375 63.140625 
L 2.34375 71.578125 
L 59.078125 71.578125 
L 59.078125 63.140625 
L 35.40625 63.140625 
L 35.40625 0 
z
" id="ArialMT-54"/>
     <path d="M 6.59375 -19.875 
L 6.59375 51.859375 
L 14.59375 51.859375 
L 14.59375 45.125 
Q 17.4375 49.078125 21 51.046875 
Q 24.5625 53.03125 29.640625 53.03125 
Q 36.28125 53.03125 41.359375 49.609375 
Q 46.4375 46.1875 49.015625 39.953125 
Q 51.609375 33.734375 51.609375 26.3125 
Q 51.609375 18.359375 48.75 11.984375 
Q 45.90625 5.609375 40.453125 2.21875 
Q 35.015625 -1.171875 29 -1.171875 
Q 24.609375 -1.171875 21.109375 0.6875 
Q 17.625 2.546875 15.375 5.375 
L 15.375 -19.875 
z
M 14.546875 25.640625 
Q 14.546875 15.625 18.59375 10.84375 
Q 22.65625 6.0625 28.421875 6.0625 
Q 34.28125 6.0625 38.453125 11.015625 
Q 42.625 15.96875 42.625 26.375 
Q 42.625 36.28125 38.546875 41.203125 
Q 34.46875 46.140625 28.8125 46.140625 
Q 23.1875 46.140625 18.859375 40.890625 
Q 14.546875 35.640625 14.546875 25.640625 
z
" id="ArialMT-70"/>
     <path d="M 40.578125 0 
L 40.578125 7.625 
Q 34.515625 -1.171875 24.125 -1.171875 
Q 19.53125 -1.171875 15.546875 0.578125 
Q 11.578125 2.34375 9.640625 5 
Q 7.71875 7.671875 6.9375 11.53125 
Q 6.390625 14.109375 6.390625 19.734375 
L 6.390625 51.859375 
L 15.1875 51.859375 
L 15.1875 23.09375 
Q 15.1875 16.21875 15.71875 13.8125 
Q 16.546875 10.359375 19.234375 8.375 
Q 21.921875 6.390625 25.875 6.390625 
Q 29.828125 6.390625 33.296875 8.421875 
Q 36.765625 10.453125 38.203125 13.9375 
Q 39.65625 17.4375 39.65625 24.078125 
L 39.65625 51.859375 
L 48.4375 51.859375 
L 48.4375 0 
z
" id="ArialMT-75"/>
     <path d="M 54.6875 71.578125 
L 64.15625 71.578125 
L 64.15625 30.21875 
Q 64.15625 19.4375 61.71875 13.078125 
Q 59.28125 6.734375 52.90625 2.75 
Q 46.53125 -1.21875 36.1875 -1.21875 
Q 26.125 -1.21875 19.71875 2.25 
Q 13.328125 5.71875 10.59375 12.28125 
Q 7.859375 18.84375 7.859375 30.21875 
L 7.859375 71.578125 
L 17.328125 71.578125 
L 17.328125 30.28125 
Q 17.328125 20.953125 19.0625 16.53125 
Q 20.796875 12.109375 25.015625 9.71875 
Q 29.25 7.328125 35.359375 7.328125 
Q 45.796875 7.328125 50.234375 12.0625 
Q 54.6875 16.796875 54.6875 30.28125 
z
" id="ArialMT-55"/>
     <path d="M 4.5 23 
L 13.421875 23.78125 
Q 14.0625 18.40625 16.375 14.96875 
Q 18.703125 11.53125 23.578125 9.40625 
Q 28.46875 7.28125 34.578125 7.28125 
Q 39.984375 7.28125 44.140625 8.890625 
Q 48.296875 10.5 50.3125 13.296875 
Q 52.34375 16.109375 52.34375 19.4375 
Q 52.34375 22.796875 50.390625 25.3125 
Q 48.4375 27.828125 43.953125 29.546875 
Q 41.0625 30.671875 31.203125 33.03125 
Q 21.34375 35.40625 17.390625 37.5 
Q 12.25 40.1875 9.734375 44.15625 
Q 7.234375 48.140625 7.234375 53.078125 
Q 7.234375 58.5 10.296875 63.203125 
Q 13.375 67.921875 19.28125 70.359375 
Q 25.203125 72.796875 32.421875 72.796875 
Q 40.375 72.796875 46.453125 70.234375 
Q 52.546875 67.671875 55.8125 62.6875 
Q 59.078125 57.71875 59.328125 51.421875 
L 50.25 50.734375 
Q 49.515625 57.515625 45.28125 60.984375 
Q 41.0625 64.453125 32.8125 64.453125 
Q 24.21875 64.453125 20.28125 61.296875 
Q 16.359375 58.15625 16.359375 53.71875 
Q 16.359375 49.859375 19.140625 47.359375 
Q 21.875 44.875 33.421875 42.265625 
Q 44.96875 39.65625 49.265625 37.703125 
Q 55.515625 34.8125 58.484375 30.390625 
Q 61.46875 25.984375 61.46875 20.21875 
Q 61.46875 14.5 58.203125 9.4375 
Q 54.9375 4.390625 48.796875 1.578125 
Q 42.671875 -1.21875 35.015625 -1.21875 
Q 25.296875 -1.21875 18.71875 1.609375 
Q 12.15625 4.4375 8.421875 10.125 
Q 4.6875 15.828125 4.5 23 
z
" id="ArialMT-53"/>
    </defs>
    <g style="fill:#262626;" transform="translate(255.436094 23.215312)scale(0.22 -0.22)">
     <use xlink:href="#ArialMT-54"/>
     <use x="61.083984" xlink:href="#ArialMT-68"/>
     <use x="116.699219" xlink:href="#ArialMT-65"/>
     <use x="172.314453" xlink:href="#ArialMT-20"/>
     <use x="200.097656" xlink:href="#ArialMT-6d"/>
     <use x="283.398438" xlink:href="#ArialMT-6f"/>
     <use x="339.013672" xlink:href="#ArialMT-73"/>
     <use x="389.013672" xlink:href="#ArialMT-74"/>
     <use x="416.796875" xlink:href="#ArialMT-20"/>
     <use x="444.580078" xlink:href="#ArialMT-70"/>
     <use x="500.195312" xlink:href="#ArialMT-6f"/>
     <use x="555.810547" xlink:href="#ArialMT-70"/>
     <use x="611.425781" xlink:href="#ArialMT-75"/>
     <use x="667.041016" xlink:href="#ArialMT-6c"/>
     <use x="689.257812" xlink:href="#ArialMT-61"/>
     <use x="744.873047" xlink:href="#ArialMT-72"/>
     <use x="778.173828" xlink:href="#ArialMT-20"/>
     <use x="805.957031" xlink:href="#ArialMT-67"/>
     <use x="861.572266" xlink:href="#ArialMT-69"/>
     <use x="883.789062" xlink:href="#ArialMT-72"/>
     <use x="917.089844" xlink:href="#ArialMT-6c"/>
     <use x="939.306641" xlink:href="#ArialMT-73"/>
     <use x="989.306641" xlink:href="#ArialMT-20"/>
     <use x="1017.089844" xlink:href="#ArialMT-6e"/>
     <use x="1072.705078" xlink:href="#ArialMT-61"/>
     <use x="1128.320312" xlink:href="#ArialMT-6d"/>
     <use x="1211.621094" xlink:href="#ArialMT-65"/>
     <use x="1267.236328" xlink:href="#ArialMT-73"/>
     <use x="1317.236328" xlink:href="#ArialMT-20"/>
     <use x="1345.019531" xlink:href="#ArialMT-69"/>
     <use x="1367.236328" xlink:href="#ArialMT-6e"/>
     <use x="1422.851562" xlink:href="#ArialMT-20"/>
     <use x="1450.634766" xlink:href="#ArialMT-74"/>
     <use x="1478.417969" xlink:href="#ArialMT-68"/>
     <use x="1534.033203" xlink:href="#ArialMT-65"/>
     <use x="1589.648438" xlink:href="#ArialMT-20"/>
     <use x="1617.431641" xlink:href="#ArialMT-55"/>
     <use x="1689.648438" xlink:href="#ArialMT-53"/>
    </g>
   </g>
   <g id="legend_1">
    <g id="patch_35">
     <path d="M 667.451563 171.564375 
L 836.721875 171.564375 
Q 840.321875 171.564375 840.321875 167.964375 
L 840.321875 41.815312 
Q 840.321875 38.215312 836.721875 38.215312 
L 667.451563 38.215312 
Q 663.851563 38.215312 663.851563 41.815312 
L 663.851563 167.964375 
Q 663.851563 171.564375 667.451563 171.564375 
z
" style="fill:#ffffff;stroke:#000000;stroke-linejoin:miter;"/>
    </g>
    <g id="line2d_29"/>
    <g id="text_20">
     <!-- Mary -->
     <defs>
      <path d="M 7.421875 0 
L 7.421875 71.578125 
L 21.6875 71.578125 
L 38.625 20.90625 
Q 40.96875 13.8125 42.046875 10.296875 
Q 43.265625 14.203125 45.84375 21.78125 
L 62.984375 71.578125 
L 75.734375 71.578125 
L 75.734375 0 
L 66.609375 0 
L 66.609375 59.90625 
L 45.796875 0 
L 37.25 0 
L 16.546875 60.9375 
L 16.546875 0 
z
" id="ArialMT-4d"/>
      <path d="M 6.203125 -19.96875 
L 5.21875 -11.71875 
Q 8.109375 -12.5 10.25 -12.5 
Q 13.1875 -12.5 14.9375 -11.515625 
Q 16.703125 -10.546875 17.828125 -8.796875 
Q 18.65625 -7.46875 20.515625 -2.25 
Q 20.75 -1.515625 21.296875 -0.09375 
L 1.609375 51.859375 
L 11.078125 51.859375 
L 21.875 21.828125 
Q 23.96875 16.109375 25.640625 9.8125 
Q 27.15625 15.875 29.25 21.625 
L 40.328125 51.859375 
L 49.125 51.859375 
L 29.390625 -0.875 
Q 26.21875 -9.421875 24.46875 -12.640625 
Q 22.125 -17 19.09375 -19.015625 
Q 16.0625 -21.046875 11.859375 -21.046875 
Q 9.328125 -21.046875 6.203125 -19.96875 
z
" id="ArialMT-79"/>
     </defs>
     <g style="fill:#1f77b4;" transform="translate(671.051563 58.299375)scale(0.18 -0.18)">
      <use xlink:href="#ArialMT-4d"/>
      <use x="83.300781" xlink:href="#ArialMT-61"/>
      <use x="138.916016" xlink:href="#ArialMT-72"/>
      <use x="172.216797" xlink:href="#ArialMT-79"/>
     </g>
    </g>
    <g id="line2d_31"/>
    <g id="text_21">
     <!-- Linda -->
     <defs>
      <path d="M 7.328125 0 
L 7.328125 71.578125 
L 16.796875 71.578125 
L 16.796875 8.453125 
L 52.046875 8.453125 
L 52.046875 0 
z
" id="ArialMT-4c"/>
      <path d="M 40.234375 0 
L 40.234375 6.546875 
Q 35.296875 -1.171875 25.734375 -1.171875 
Q 19.53125 -1.171875 14.328125 2.25 
Q 9.125 5.671875 6.265625 11.796875 
Q 3.421875 17.921875 3.421875 25.875 
Q 3.421875 33.640625 6 39.96875 
Q 8.59375 46.296875 13.765625 49.65625 
Q 18.953125 53.03125 25.34375 53.03125 
Q 30.03125 53.03125 33.6875 51.046875 
Q 37.359375 49.078125 39.65625 45.90625 
L 39.65625 71.578125 
L 48.390625 71.578125 
L 48.390625 0 
z
M 12.453125 25.875 
Q 12.453125 15.921875 16.640625 10.984375 
Q 20.84375 6.0625 26.5625 6.0625 
Q 32.328125 6.0625 36.34375 10.765625 
Q 40.375 15.484375 40.375 25.140625 
Q 40.375 35.796875 36.265625 40.765625 
Q 32.171875 45.75 26.171875 45.75 
Q 20.3125 45.75 16.375 40.96875 
Q 12.453125 36.1875 12.453125 25.875 
z
" id="ArialMT-64"/>
     </defs>
     <g style="fill:#ff7f0e;" transform="translate(671.051563 83.971875)scale(0.18 -0.18)">
      <use xlink:href="#ArialMT-4c"/>
      <use x="55.615234" xlink:href="#ArialMT-69"/>
      <use x="77.832031" xlink:href="#ArialMT-6e"/>
      <use x="133.447266" xlink:href="#ArialMT-64"/>
      <use x="189.0625" xlink:href="#ArialMT-61"/>
     </g>
    </g>
    <g id="line2d_33"/>
    <g id="text_22">
     <!-- Lisa -->
     <g style="fill:#2ca02c;" transform="translate(671.051563 109.433437)scale(0.18 -0.18)">
      <use xlink:href="#ArialMT-4c"/>
      <use x="55.615234" xlink:href="#ArialMT-69"/>
      <use x="77.832031" xlink:href="#ArialMT-73"/>
      <use x="127.832031" xlink:href="#ArialMT-61"/>
     </g>
    </g>
    <g id="line2d_35"/>
    <g id="text_23">
     <!-- Jennifer -->
     <defs>
      <path d="M 2.875 20.3125 
L 11.421875 21.484375 
Q 11.765625 13.28125 14.5 10.25 
Q 17.234375 7.234375 22.078125 7.234375 
Q 25.640625 7.234375 28.21875 8.859375 
Q 30.8125 10.5 31.78125 13.296875 
Q 32.765625 16.109375 32.765625 22.265625 
L 32.765625 71.578125 
L 42.234375 71.578125 
L 42.234375 22.796875 
Q 42.234375 13.8125 40.0625 8.875 
Q 37.890625 3.953125 33.171875 1.359375 
Q 28.46875 -1.21875 22.125 -1.21875 
Q 12.703125 -1.21875 7.6875 4.203125 
Q 2.6875 9.625 2.875 20.3125 
z
" id="ArialMT-4a"/>
     </defs>
     <g style="fill:#d62728;" transform="translate(671.051563 134.895)scale(0.18 -0.18)">
      <use xlink:href="#ArialMT-4a"/>
      <use x="50" xlink:href="#ArialMT-65"/>
      <use x="105.615234" xlink:href="#ArialMT-6e"/>
      <use x="161.230469" xlink:href="#ArialMT-6e"/>
      <use x="216.845703" xlink:href="#ArialMT-69"/>
      <use x="239.0625" xlink:href="#ArialMT-66"/>
      <use x="266.845703" xlink:href="#ArialMT-65"/>
      <use x="322.460938" xlink:href="#ArialMT-72"/>
     </g>
    </g>
    <g id="line2d_37"/>
    <g id="text_24">
     <!-- Jessica -->
     <g style="fill:#9467bd;" transform="translate(671.051563 160.356562)scale(0.18 -0.18)">
      <use xlink:href="#ArialMT-4a"/>
      <use x="50" xlink:href="#ArialMT-65"/>
      <use x="105.615234" xlink:href="#ArialMT-73"/>
      <use x="155.615234" xlink:href="#ArialMT-73"/>
      <use x="205.615234" xlink:href="#ArialMT-69"/>
      <use x="227.832031" xlink:href="#ArialMT-63"/>
      <use x="277.832031" xlink:href="#ArialMT-61"/>
     </g>
    </g>
    <g id="line2d_39"/>
    <g id="text_25">
     <!-- Ashley -->
     <defs>
      <path d="M -0.140625 0 
L 27.34375 71.578125 
L 37.546875 71.578125 
L 66.84375 0 
L 56.0625 0 
L 47.703125 21.6875 
L 17.78125 21.6875 
L 9.90625 0 
z
M 20.515625 29.390625 
L 44.78125 29.390625 
L 37.3125 49.21875 
Q 33.890625 58.25 32.234375 64.0625 
Q 30.859375 57.171875 28.375 50.390625 
z
" id="ArialMT-41"/>
     </defs>
     <g style="fill:#8c564b;" transform="translate(771.08375 58.299375)scale(0.18 -0.18)">
      <use xlink:href="#ArialMT-41"/>
      <use x="66.699219" xlink:href="#ArialMT-73"/>
      <use x="116.699219" xlink:href="#ArialMT-68"/>
      <use x="172.314453" xlink:href="#ArialMT-6c"/>
      <use x="194.53125" xlink:href="#ArialMT-65"/>
      <use x="250.146484" xlink:href="#ArialMT-79"/>
     </g>
    </g>
    <g id="line2d_41"/>
    <g id="text_26">
     <!-- Emily -->
     <defs>
      <path d="M 7.90625 0 
L 7.90625 71.578125 
L 59.671875 71.578125 
L 59.671875 63.140625 
L 17.390625 63.140625 
L 17.390625 41.21875 
L 56.984375 41.21875 
L 56.984375 32.8125 
L 17.390625 32.8125 
L 17.390625 8.453125 
L 61.328125 8.453125 
L 61.328125 0 
z
" id="ArialMT-45"/>
     </defs>
     <g style="fill:#e377c2;" transform="translate(771.08375 83.971875)scale(0.18 -0.18)">
      <use xlink:href="#ArialMT-45"/>
      <use x="66.699219" xlink:href="#ArialMT-6d"/>
      <use x="150" xlink:href="#ArialMT-69"/>
      <use x="172.216797" xlink:href="#ArialMT-6c"/>
      <use x="194.433594" xlink:href="#ArialMT-79"/>
     </g>
    </g>
    <g id="line2d_43"/>
    <g id="text_27">
     <!-- Emma -->
     <g style="fill:#7f7f7f;" transform="translate(771.08375 109.644375)scale(0.18 -0.18)">
      <use xlink:href="#ArialMT-45"/>
      <use x="66.699219" xlink:href="#ArialMT-6d"/>
      <use x="150" xlink:href="#ArialMT-6d"/>
      <use x="233.300781" xlink:href="#ArialMT-61"/>
     </g>
    </g>
    <g id="line2d_45"/>
    <g id="text_28">
     <!-- Isabella -->
     <defs>
      <path d="M 9.328125 0 
L 9.328125 71.578125 
L 18.796875 71.578125 
L 18.796875 0 
z
" id="ArialMT-49"/>
      <path d="M 14.703125 0 
L 6.546875 0 
L 6.546875 71.578125 
L 15.328125 71.578125 
L 15.328125 46.046875 
Q 20.90625 53.03125 29.546875 53.03125 
Q 34.328125 53.03125 38.59375 51.09375 
Q 42.875 49.171875 45.625 45.671875 
Q 48.390625 42.1875 49.953125 37.25 
Q 51.515625 32.328125 51.515625 26.703125 
Q 51.515625 13.375 44.921875 6.09375 
Q 38.328125 -1.171875 29.109375 -1.171875 
Q 19.921875 -1.171875 14.703125 6.5 
z
M 14.59375 26.3125 
Q 14.59375 17 17.140625 12.84375 
Q 21.296875 6.0625 28.375 6.0625 
Q 34.125 6.0625 38.328125 11.0625 
Q 42.53125 16.0625 42.53125 25.984375 
Q 42.53125 36.140625 38.5 40.96875 
Q 34.46875 45.796875 28.765625 45.796875 
Q 23 45.796875 18.796875 40.796875 
Q 14.59375 35.796875 14.59375 26.3125 
z
" id="ArialMT-62"/>
     </defs>
     <g style="fill:#bcbd22;" transform="translate(771.08375 135.105937)scale(0.18 -0.18)">
      <use xlink:href="#ArialMT-49"/>
      <use x="27.783203" xlink:href="#ArialMT-73"/>
      <use x="77.783203" xlink:href="#ArialMT-61"/>
      <use x="133.398438" xlink:href="#ArialMT-62"/>
      <use x="189.013672" xlink:href="#ArialMT-65"/>
      <use x="244.628906" xlink:href="#ArialMT-6c"/>
      <use x="266.845703" xlink:href="#ArialMT-6c"/>
      <use x="289.0625" xlink:href="#ArialMT-61"/>
     </g>
    </g>
    <g id="line2d_47"/>
    <g id="text_29">
     <!-- Sophia -->
     <g style="fill:#17becf;" transform="translate(771.08375 160.786875)scale(0.18 -0.18)">
      <use xlink:href="#ArialMT-53"/>
      <use x="66.699219" xlink:href="#ArialMT-6f"/>
      <use x="122.314453" xlink:href="#ArialMT-70"/>
      <use x="177.929688" xlink:href="#ArialMT-68"/>
      <use x="233.544922" xlink:href="#ArialMT-69"/>
      <use x="255.761719" xlink:href="#ArialMT-61"/>
     </g>
    </g>
   </g>
  </g>
 </g>
 <defs>
  <clipPath id="p1f919ddc6e">
   <rect height="442.80625" width="801.4" x="47.921875" y="29.215312"/>
  </clipPath>
 </defs>
</svg>
