<?xml version="1.0" encoding="utf-8" standalone="no"?>
<!DOCTYPE svg PUBLIC "-//W3C//DTD SVG 1.1//EN"
  "http://www.w3.org/Graphics/SVG/1.1/DTD/svg11.dtd">
<!-- Created with matplotlib (http://matplotlib.org/) -->
<svg height="495pt" version="1.1" viewBox="0 0 856 495" width="856pt" xmlns="http://www.w3.org/2000/svg" xmlns:xlink="http://www.w3.org/1999/xlink">
 <defs>
  <style type="text/css">
*{stroke-linecap:butt;stroke-linejoin:round;}
  </style>
 </defs>
 <g id="figure_1">
  <g id="patch_1">
   <path d="M 0 495.525 
L 856.521875 495.525 
L 856.521875 0 
L 0 0 
z
" style="fill:#ffffff;"/>
  </g>
  <g id="axes_1">
   <g id="patch_2">
    <path d="M 47.921875 472.021562 
L 849.321875 472.021562 
L 849.321875 29.215312 
L 47.921875 29.215312 
z
" style="fill:#ffffff;"/>
   </g>
   <g id="patch_3">
    <path clip-path="url(#pdd2a06f0c0)" d="M 77.38511 472.021562 
L 77.38511 29.215312 
L 106.848346 29.215312 
L 106.848346 472.021562 
z
" style="fill:#f2f2f2;stroke:#f2f2f2;stroke-linejoin:miter;"/>
   </g>
   <g id="patch_4">
    <path clip-path="url(#pdd2a06f0c0)" d="M 136.311581 472.021562 
L 136.311581 29.215312 
L 165.774816 29.215312 
L 165.774816 472.021562 
z
" style="fill:#f2f2f2;stroke:#f2f2f2;stroke-linejoin:miter;"/>
   </g>
   <g id="patch_5">
    <path clip-path="url(#pdd2a06f0c0)" d="M 195.238051 472.021562 
L 195.238051 29.215312 
L 224.701287 29.215312 
L 224.701287 472.021562 
z
" style="fill:#f2f2f2;stroke:#f2f2f2;stroke-linejoin:miter;"/>
   </g>
   <g id="patch_6">
    <path clip-path="url(#pdd2a06f0c0)" d="M 254.164522 472.021562 
L 254.164522 29.215312 
L 283.627757 29.215312 
L 283.627757 472.021562 
z
" style="fill:#f2f2f2;stroke:#f2f2f2;stroke-linejoin:miter;"/>
   </g>
   <g id="patch_7">
    <path clip-path="url(#pdd2a06f0c0)" d="M 313.090993 472.021562 
L 313.090993 29.215312 
L 342.554228 29.215312 
L 342.554228 472.021562 
z
" style="fill:#f2f2f2;stroke:#f2f2f2;stroke-linejoin:miter;"/>
   </g>
   <g id="patch_8">
    <path clip-path="url(#pdd2a06f0c0)" d="M 372.017463 472.021562 
L 372.017463 29.215312 
L 401.480699 29.215312 
L 401.480699 472.021562 
z
" style="fill:#f2f2f2;stroke:#f2f2f2;stroke-linejoin:miter;"/>
   </g>
   <g id="patch_9">
    <path clip-path="url(#pdd2a06f0c0)" d="M 430.943934 472.021562 
L 430.943934 29.215312 
L 460.407169 29.215312 
L 460.407169 472.021562 
z
" style="fill:#f2f2f2;stroke:#f2f2f2;stroke-linejoin:miter;"/>
   </g>
   <g id="patch_10">
    <path clip-path="url(#pdd2a06f0c0)" d="M 489.870404 472.021562 
L 489.870404 29.215312 
L 519.33364 29.215312 
L 519.33364 472.021562 
z
" style="fill:#f2f2f2;stroke:#f2f2f2;stroke-linejoin:miter;"/>
   </g>
   <g id="patch_11">
    <path clip-path="url(#pdd2a06f0c0)" d="M 548.796875 472.021562 
L 548.796875 29.215312 
L 578.26011 29.215312 
L 578.26011 472.021562 
z
" style="fill:#f2f2f2;stroke:#f2f2f2;stroke-linejoin:miter;"/>
   </g>
   <g id="patch_12">
    <path clip-path="url(#pdd2a06f0c0)" d="M 607.723346 472.021562 
L 607.723346 29.215312 
L 637.186581 29.215312 
L 637.186581 472.021562 
z
" style="fill:#f2f2f2;stroke:#f2f2f2;stroke-linejoin:miter;"/>
   </g>
   <g id="patch_13">
    <path clip-path="url(#pdd2a06f0c0)" d="M 666.649816 472.021562 
L 666.649816 29.215312 
L 696.113051 29.215312 
L 696.113051 472.021562 
z
" style="fill:#f2f2f2;stroke:#f2f2f2;stroke-linejoin:miter;"/>
   </g>
   <g id="patch_14">
    <path clip-path="url(#pdd2a06f0c0)" d="M 725.576287 472.021562 
L 725.576287 29.215312 
L 755.039522 29.215312 
L 755.039522 472.021562 
z
" style="fill:#f2f2f2;stroke:#f2f2f2;stroke-linejoin:miter;"/>
   </g>
   <g id="patch_15">
    <path clip-path="url(#pdd2a06f0c0)" d="M 784.502757 472.021562 
L 784.502757 29.215312 
L 813.965993 29.215312 
L 813.965993 472.021562 
z
" style="fill:#f2f2f2;stroke:#f2f2f2;stroke-linejoin:miter;"/>
   </g>
   <g id="patch_16">
    <path clip-path="url(#pdd2a06f0c0)" d="M 843.429228 472.021562 
L 843.429228 29.215312 
L 872.892463 29.215312 
L 872.892463 472.021562 
z
" style="fill:#f2f2f2;stroke:#f2f2f2;stroke-linejoin:miter;"/>
   </g>
   <g id="patch_17">
    <path clip-path="url(#pdd2a06f0c0)" d="M 77.38511 472.021562 
L 77.38511 29.215312 
L 106.848346 29.215312 
L 106.848346 472.021562 
z
" style="fill:#f2f2f2;stroke:#f2f2f2;stroke-linejoin:miter;"/>
   </g>
   <g id="patch_18">
    <path clip-path="url(#pdd2a06f0c0)" d="M 136.311581 472.021562 
L 136.311581 29.215312 
L 165.774816 29.215312 
L 165.774816 472.021562 
z
" style="fill:#f2f2f2;stroke:#f2f2f2;stroke-linejoin:miter;"/>
   </g>
   <g id="patch_19">
    <path clip-path="url(#pdd2a06f0c0)" d="M 195.238051 472.021562 
L 195.238051 29.215312 
L 224.701287 29.215312 
L 224.701287 472.021562 
z
" style="fill:#f2f2f2;stroke:#f2f2f2;stroke-linejoin:miter;"/>
   </g>
   <g id="patch_20">
    <path clip-path="url(#pdd2a06f0c0)" d="M 254.164522 472.021562 
L 254.164522 29.215312 
L 283.627757 29.215312 
L 283.627757 472.021562 
z
" style="fill:#f2f2f2;stroke:#f2f2f2;stroke-linejoin:miter;"/>
   </g>
   <g id="patch_21">
    <path clip-path="url(#pdd2a06f0c0)" d="M 313.090993 472.021562 
L 313.090993 29.215312 
L 342.554228 29.215312 
L 342.554228 472.021562 
z
" style="fill:#f2f2f2;stroke:#f2f2f2;stroke-linejoin:miter;"/>
   </g>
   <g id="patch_22">
    <path clip-path="url(#pdd2a06f0c0)" d="M 372.017463 472.021562 
L 372.017463 29.215312 
L 401.480699 29.215312 
L 401.480699 472.021562 
z
" style="fill:#f2f2f2;stroke:#f2f2f2;stroke-linejoin:miter;"/>
   </g>
   <g id="patch_23">
    <path clip-path="url(#pdd2a06f0c0)" d="M 430.943934 472.021562 
L 430.943934 29.215312 
L 460.407169 29.215312 
L 460.407169 472.021562 
z
" style="fill:#f2f2f2;stroke:#f2f2f2;stroke-linejoin:miter;"/>
   </g>
   <g id="patch_24">
    <path clip-path="url(#pdd2a06f0c0)" d="M 489.870404 472.021562 
L 489.870404 29.215312 
L 519.33364 29.215312 
L 519.33364 472.021562 
z
" style="fill:#f2f2f2;stroke:#f2f2f2;stroke-linejoin:miter;"/>
   </g>
   <g id="patch_25">
    <path clip-path="url(#pdd2a06f0c0)" d="M 548.796875 472.021562 
L 548.796875 29.215312 
L 578.26011 29.215312 
L 578.26011 472.021562 
z
" style="fill:#f2f2f2;stroke:#f2f2f2;stroke-linejoin:miter;"/>
   </g>
   <g id="patch_26">
    <path clip-path="url(#pdd2a06f0c0)" d="M 607.723346 472.021562 
L 607.723346 29.215312 
L 637.186581 29.215312 
L 637.186581 472.021562 
z
" style="fill:#f2f2f2;stroke:#f2f2f2;stroke-linejoin:miter;"/>
   </g>
   <g id="patch_27">
    <path clip-path="url(#pdd2a06f0c0)" d="M 666.649816 472.021562 
L 666.649816 29.215312 
L 696.113051 29.215312 
L 696.113051 472.021562 
z
" style="fill:#f2f2f2;stroke:#f2f2f2;stroke-linejoin:miter;"/>
   </g>
   <g id="patch_28">
    <path clip-path="url(#pdd2a06f0c0)" d="M 725.576287 472.021562 
L 725.576287 29.215312 
L 755.039522 29.215312 
L 755.039522 472.021562 
z
" style="fill:#f2f2f2;stroke:#f2f2f2;stroke-linejoin:miter;"/>
   </g>
   <g id="patch_29">
    <path clip-path="url(#pdd2a06f0c0)" d="M 784.502757 472.021562 
L 784.502757 29.215312 
L 813.965993 29.215312 
L 813.965993 472.021562 
z
" style="fill:#f2f2f2;stroke:#f2f2f2;stroke-linejoin:miter;"/>
   </g>
   <g id="patch_30">
    <path clip-path="url(#pdd2a06f0c0)" d="M 843.429228 472.021562 
L 843.429228 29.215312 
L 872.892463 29.215312 
L 872.892463 472.021562 
z
" style="fill:#f2f2f2;stroke:#f2f2f2;stroke-linejoin:miter;"/>
   </g>
   <g id="matplotlib.axis_1">
    <g id="xtick_1">
     <g id="line2d_1"/>
     <g id="text_1">
      <!-- 1880 -->
      <defs>
       <path d="M 37.25 0 
L 28.46875 0 
L 28.46875 56 
Q 25.296875 52.984375 20.140625 49.953125 
Q 14.984375 46.921875 10.890625 45.40625 
L 10.890625 53.90625 
Q 18.265625 57.375 23.78125 62.296875 
Q 29.296875 67.234375 31.59375 71.875 
L 37.25 71.875 
z
" id="ArialMT-31"/>
       <path d="M 17.671875 38.8125 
Q 12.203125 40.828125 9.5625 44.53125 
Q 6.9375 48.25 6.9375 53.421875 
Q 6.9375 61.234375 12.546875 66.546875 
Q 18.171875 71.875 27.484375 71.875 
Q 36.859375 71.875 42.578125 66.421875 
Q 48.296875 60.984375 48.296875 53.171875 
Q 48.296875 48.1875 45.671875 44.5 
Q 43.0625 40.828125 37.75 38.8125 
Q 44.34375 36.671875 47.78125 31.875 
Q 51.21875 27.09375 51.21875 20.453125 
Q 51.21875 11.28125 44.71875 5.03125 
Q 38.234375 -1.21875 27.640625 -1.21875 
Q 17.046875 -1.21875 10.546875 5.046875 
Q 4.046875 11.328125 4.046875 20.703125 
Q 4.046875 27.6875 7.59375 32.390625 
Q 11.140625 37.109375 17.671875 38.8125 
z
M 15.921875 53.71875 
Q 15.921875 48.640625 19.1875 45.40625 
Q 22.46875 42.1875 27.6875 42.1875 
Q 32.765625 42.1875 36.015625 45.375 
Q 39.265625 48.578125 39.265625 53.21875 
Q 39.265625 58.0625 35.90625 61.359375 
Q 32.5625 64.65625 27.59375 64.65625 
Q 22.5625 64.65625 19.234375 61.421875 
Q 15.921875 58.203125 15.921875 53.71875 
z
M 13.09375 20.65625 
Q 13.09375 16.890625 14.875 13.375 
Q 16.65625 9.859375 20.171875 7.921875 
Q 23.6875 6 27.734375 6 
Q 34.03125 6 38.125 10.046875 
Q 42.234375 14.109375 42.234375 20.359375 
Q 42.234375 26.703125 38.015625 30.859375 
Q 33.796875 35.015625 27.4375 35.015625 
Q 21.234375 35.015625 17.15625 30.90625 
Q 13.09375 26.8125 13.09375 20.65625 
z
" id="ArialMT-38"/>
       <path d="M 4.15625 35.296875 
Q 4.15625 48 6.765625 55.734375 
Q 9.375 63.484375 14.515625 67.671875 
Q 19.671875 71.875 27.484375 71.875 
Q 33.25 71.875 37.59375 69.546875 
Q 41.9375 67.234375 44.765625 62.859375 
Q 47.609375 58.5 49.21875 52.21875 
Q 50.828125 45.953125 50.828125 35.296875 
Q 50.828125 22.703125 48.234375 14.96875 
Q 45.65625 7.234375 40.5 3 
Q 35.359375 -1.21875 27.484375 -1.21875 
Q 17.140625 -1.21875 11.234375 6.203125 
Q 4.15625 15.140625 4.15625 35.296875 
z
M 13.1875 35.296875 
Q 13.1875 17.671875 17.3125 11.828125 
Q 21.4375 6 27.484375 6 
Q 33.546875 6 37.671875 11.859375 
Q 41.796875 17.71875 41.796875 35.296875 
Q 41.796875 52.984375 37.671875 58.78125 
Q 33.546875 64.59375 27.390625 64.59375 
Q 21.34375 64.59375 17.71875 59.46875 
Q 13.1875 52.9375 13.1875 35.296875 
z
" id="ArialMT-30"/>
      </defs>
      <g style="fill:#262626;" transform="translate(32.35125 485.5425)scale(0.14 -0.14)">
       <use xlink:href="#ArialMT-31"/>
       <use x="55.615234" xlink:href="#ArialMT-38"/>
       <use x="111.230469" xlink:href="#ArialMT-38"/>
       <use x="166.845703" xlink:href="#ArialMT-30"/>
      </g>
     </g>
    </g>
    <g id="xtick_2">
     <g id="line2d_2"/>
     <g id="text_2">
      <!-- 1900 -->
      <defs>
       <path d="M 5.46875 16.546875 
L 13.921875 17.328125 
Q 14.984375 11.375 18.015625 8.6875 
Q 21.046875 6 25.78125 6 
Q 29.828125 6 32.875 7.859375 
Q 35.9375 9.71875 37.890625 12.8125 
Q 39.84375 15.921875 41.15625 21.1875 
Q 42.484375 26.46875 42.484375 31.9375 
Q 42.484375 32.515625 42.4375 33.6875 
Q 39.796875 29.5 35.234375 26.875 
Q 30.671875 24.265625 25.34375 24.265625 
Q 16.453125 24.265625 10.296875 30.703125 
Q 4.15625 37.15625 4.15625 47.703125 
Q 4.15625 58.59375 10.578125 65.234375 
Q 17 71.875 26.65625 71.875 
Q 33.640625 71.875 39.421875 68.109375 
Q 45.21875 64.359375 48.21875 57.390625 
Q 51.21875 50.4375 51.21875 37.25 
Q 51.21875 23.53125 48.234375 15.40625 
Q 45.265625 7.28125 39.375 3.03125 
Q 33.5 -1.21875 25.59375 -1.21875 
Q 17.1875 -1.21875 11.859375 3.4375 
Q 6.546875 8.109375 5.46875 16.546875 
z
M 41.453125 48.140625 
Q 41.453125 55.71875 37.421875 60.15625 
Q 33.40625 64.59375 27.734375 64.59375 
Q 21.875 64.59375 17.53125 59.8125 
Q 13.1875 55.03125 13.1875 47.40625 
Q 13.1875 40.578125 17.3125 36.296875 
Q 21.4375 32.03125 27.484375 32.03125 
Q 33.59375 32.03125 37.515625 36.296875 
Q 41.453125 40.578125 41.453125 48.140625 
z
" id="ArialMT-39"/>
      </defs>
      <g style="fill:#262626;" transform="translate(150.204191 485.5425)scale(0.14 -0.14)">
       <use xlink:href="#ArialMT-31"/>
       <use x="55.615234" xlink:href="#ArialMT-39"/>
       <use x="111.230469" xlink:href="#ArialMT-30"/>
       <use x="166.845703" xlink:href="#ArialMT-30"/>
      </g>
     </g>
    </g>
    <g id="xtick_3">
     <g id="line2d_3"/>
     <g id="text_3">
      <!-- 1920 -->
      <defs>
       <path d="M 50.34375 8.453125 
L 50.34375 0 
L 3.03125 0 
Q 2.9375 3.171875 4.046875 6.109375 
Q 5.859375 10.9375 9.828125 15.625 
Q 13.8125 20.3125 21.34375 26.46875 
Q 33.015625 36.03125 37.109375 41.625 
Q 41.21875 47.21875 41.21875 52.203125 
Q 41.21875 57.421875 37.46875 61 
Q 33.734375 64.59375 27.734375 64.59375 
Q 21.390625 64.59375 17.578125 60.78125 
Q 13.765625 56.984375 13.71875 50.25 
L 4.6875 51.171875 
Q 5.609375 61.28125 11.65625 66.578125 
Q 17.71875 71.875 27.9375 71.875 
Q 38.234375 71.875 44.234375 66.15625 
Q 50.25 60.453125 50.25 52 
Q 50.25 47.703125 48.484375 43.546875 
Q 46.734375 39.40625 42.65625 34.8125 
Q 38.578125 30.21875 29.109375 22.21875 
Q 21.1875 15.578125 18.9375 13.203125 
Q 16.703125 10.84375 15.234375 8.453125 
z
" id="ArialMT-32"/>
      </defs>
      <g style="fill:#262626;" transform="translate(268.057132 485.5425)scale(0.14 -0.14)">
       <use xlink:href="#ArialMT-31"/>
       <use x="55.615234" xlink:href="#ArialMT-39"/>
       <use x="111.230469" xlink:href="#ArialMT-32"/>
       <use x="166.845703" xlink:href="#ArialMT-30"/>
      </g>
     </g>
    </g>
    <g id="xtick_4">
     <g id="line2d_4"/>
     <g id="text_4">
      <!-- 1940 -->
      <defs>
       <path d="M 32.328125 0 
L 32.328125 17.140625 
L 1.265625 17.140625 
L 1.265625 25.203125 
L 33.9375 71.578125 
L 41.109375 71.578125 
L 41.109375 25.203125 
L 50.78125 25.203125 
L 50.78125 17.140625 
L 41.109375 17.140625 
L 41.109375 0 
z
M 32.328125 25.203125 
L 32.328125 57.46875 
L 9.90625 25.203125 
z
" id="ArialMT-34"/>
      </defs>
      <g style="fill:#262626;" transform="translate(385.910074 485.5425)scale(0.14 -0.14)">
       <use xlink:href="#ArialMT-31"/>
       <use x="55.615234" xlink:href="#ArialMT-39"/>
       <use x="111.230469" xlink:href="#ArialMT-34"/>
       <use x="166.845703" xlink:href="#ArialMT-30"/>
      </g>
     </g>
    </g>
    <g id="xtick_5">
     <g id="line2d_5"/>
     <g id="text_5">
      <!-- 1960 -->
      <defs>
       <path d="M 49.75 54.046875 
L 41.015625 53.375 
Q 39.84375 58.546875 37.703125 60.890625 
Q 34.125 64.65625 28.90625 64.65625 
Q 24.703125 64.65625 21.53125 62.3125 
Q 17.390625 59.28125 14.984375 53.46875 
Q 12.59375 47.65625 12.5 36.921875 
Q 15.671875 41.75 20.265625 44.09375 
Q 24.859375 46.4375 29.890625 46.4375 
Q 38.671875 46.4375 44.84375 39.96875 
Q 51.03125 33.5 51.03125 23.25 
Q 51.03125 16.5 48.125 10.71875 
Q 45.21875 4.9375 40.140625 1.859375 
Q 35.0625 -1.21875 28.609375 -1.21875 
Q 17.625 -1.21875 10.6875 6.859375 
Q 3.765625 14.9375 3.765625 33.5 
Q 3.765625 54.25 11.421875 63.671875 
Q 18.109375 71.875 29.4375 71.875 
Q 37.890625 71.875 43.28125 67.140625 
Q 48.6875 62.40625 49.75 54.046875 
z
M 13.875 23.1875 
Q 13.875 18.65625 15.796875 14.5 
Q 17.71875 10.359375 21.1875 8.171875 
Q 24.65625 6 28.46875 6 
Q 34.03125 6 38.03125 10.484375 
Q 42.046875 14.984375 42.046875 22.703125 
Q 42.046875 30.125 38.078125 34.390625 
Q 34.125 38.671875 28.125 38.671875 
Q 22.171875 38.671875 18.015625 34.390625 
Q 13.875 30.125 13.875 23.1875 
z
" id="ArialMT-36"/>
      </defs>
      <g style="fill:#262626;" transform="translate(503.763015 485.5425)scale(0.14 -0.14)">
       <use xlink:href="#ArialMT-31"/>
       <use x="55.615234" xlink:href="#ArialMT-39"/>
       <use x="111.230469" xlink:href="#ArialMT-36"/>
       <use x="166.845703" xlink:href="#ArialMT-30"/>
      </g>
     </g>
    </g>
    <g id="xtick_6">
     <g id="line2d_6"/>
     <g id="text_6">
      <!-- 1980 -->
      <g style="fill:#262626;" transform="translate(621.615956 485.5425)scale(0.14 -0.14)">
       <use xlink:href="#ArialMT-31"/>
       <use x="55.615234" xlink:href="#ArialMT-39"/>
       <use x="111.230469" xlink:href="#ArialMT-38"/>
       <use x="166.845703" xlink:href="#ArialMT-30"/>
      </g>
     </g>
    </g>
    <g id="xtick_7">
     <g id="line2d_7"/>
     <g id="text_7">
      <!-- 2000 -->
      <g style="fill:#262626;" transform="translate(739.468897 485.5425)scale(0.14 -0.14)">
       <use xlink:href="#ArialMT-32"/>
       <use x="55.615234" xlink:href="#ArialMT-30"/>
       <use x="111.230469" xlink:href="#ArialMT-30"/>
       <use x="166.845703" xlink:href="#ArialMT-30"/>
      </g>
     </g>
    </g>
   </g>
   <g id="matplotlib.axis_2">
    <g id="ytick_1">
     <g id="line2d_8"/>
     <g id="text_8">
      <!-- 0% -->
      <defs>
       <path d="M 5.8125 54.390625 
Q 5.8125 62.0625 9.671875 67.421875 
Q 13.53125 72.796875 20.84375 72.796875 
Q 27.59375 72.796875 32 67.984375 
Q 36.421875 63.1875 36.421875 53.859375 
Q 36.421875 44.78125 31.953125 39.875 
Q 27.484375 34.96875 20.953125 34.96875 
Q 14.453125 34.96875 10.125 39.796875 
Q 5.8125 44.625 5.8125 54.390625 
z
M 21.09375 66.75 
Q 17.828125 66.75 15.65625 63.90625 
Q 13.484375 61.078125 13.484375 53.515625 
Q 13.484375 46.625 15.671875 43.8125 
Q 17.875 41.015625 21.09375 41.015625 
Q 24.421875 41.015625 26.59375 43.84375 
Q 28.765625 46.6875 28.765625 54.203125 
Q 28.765625 61.140625 26.5625 63.9375 
Q 24.359375 66.75 21.09375 66.75 
z
M 21.140625 -2.640625 
L 60.296875 72.796875 
L 67.4375 72.796875 
L 28.421875 -2.640625 
z
M 52.09375 16.796875 
Q 52.09375 24.515625 55.953125 29.859375 
Q 59.8125 35.203125 67.1875 35.203125 
Q 73.921875 35.203125 78.34375 30.390625 
Q 82.765625 25.59375 82.765625 16.265625 
Q 82.765625 7.171875 78.296875 2.265625 
Q 73.828125 -2.640625 67.234375 -2.640625 
Q 60.75 -2.640625 56.421875 2.21875 
Q 52.09375 7.078125 52.09375 16.796875 
z
M 67.4375 29.15625 
Q 64.109375 29.15625 61.9375 26.3125 
Q 59.765625 23.484375 59.765625 15.921875 
Q 59.765625 9.078125 61.953125 6.25 
Q 64.15625 3.421875 67.390625 3.421875 
Q 70.75 3.421875 72.921875 6.25 
Q 75.09375 9.078125 75.09375 16.609375 
Q 75.09375 23.53125 72.890625 26.34375 
Q 70.703125 29.15625 67.4375 29.15625 
z
" id="ArialMT-25"/>
      </defs>
      <g style="fill:#262626;" transform="translate(29.96875 475.600469)scale(0.1 -0.1)">
       <use xlink:href="#ArialMT-30"/>
       <use x="55.615234" xlink:href="#ArialMT-25"/>
      </g>
     </g>
    </g>
    <g id="ytick_2">
     <g id="line2d_9"/>
     <g id="text_9">
      <!-- 1% -->
      <g style="fill:#262626;" transform="translate(29.96875 426.399774)scale(0.1 -0.1)">
       <use xlink:href="#ArialMT-31"/>
       <use x="55.615234" xlink:href="#ArialMT-25"/>
      </g>
     </g>
    </g>
    <g id="ytick_3">
     <g id="line2d_10"/>
     <g id="text_10">
      <!-- 2% -->
      <g style="fill:#262626;" transform="translate(29.96875 377.19908)scale(0.1 -0.1)">
       <use xlink:href="#ArialMT-32"/>
       <use x="55.615234" xlink:href="#ArialMT-25"/>
      </g>
     </g>
    </g>
    <g id="ytick_4">
     <g id="line2d_11"/>
     <g id="text_11">
      <!-- 3% -->
      <defs>
       <path d="M 4.203125 18.890625 
L 12.984375 20.0625 
Q 14.5 12.59375 18.140625 9.296875 
Q 21.78125 6 27 6 
Q 33.203125 6 37.46875 10.296875 
Q 41.75 14.59375 41.75 20.953125 
Q 41.75 27 37.796875 30.921875 
Q 33.84375 34.859375 27.734375 34.859375 
Q 25.25 34.859375 21.53125 33.890625 
L 22.515625 41.609375 
Q 23.390625 41.5 23.921875 41.5 
Q 29.546875 41.5 34.03125 44.421875 
Q 38.53125 47.359375 38.53125 53.46875 
Q 38.53125 58.296875 35.25 61.46875 
Q 31.984375 64.65625 26.8125 64.65625 
Q 21.6875 64.65625 18.265625 61.421875 
Q 14.84375 58.203125 13.875 51.765625 
L 5.078125 53.328125 
Q 6.6875 62.15625 12.390625 67.015625 
Q 18.109375 71.875 26.609375 71.875 
Q 32.46875 71.875 37.390625 69.359375 
Q 42.328125 66.84375 44.9375 62.5 
Q 47.5625 58.15625 47.5625 53.265625 
Q 47.5625 48.640625 45.0625 44.828125 
Q 42.578125 41.015625 37.703125 38.765625 
Q 44.046875 37.3125 47.5625 32.6875 
Q 51.078125 28.078125 51.078125 21.140625 
Q 51.078125 11.765625 44.234375 5.25 
Q 37.40625 -1.265625 26.953125 -1.265625 
Q 17.53125 -1.265625 11.296875 4.34375 
Q 5.078125 9.96875 4.203125 18.890625 
z
" id="ArialMT-33"/>
      </defs>
      <g style="fill:#262626;" transform="translate(29.96875 327.998385)scale(0.1 -0.1)">
       <use xlink:href="#ArialMT-33"/>
       <use x="55.615234" xlink:href="#ArialMT-25"/>
      </g>
     </g>
    </g>
    <g id="ytick_5">
     <g id="line2d_12"/>
     <g id="text_12">
      <!-- 4% -->
      <g style="fill:#262626;" transform="translate(29.96875 278.797691)scale(0.1 -0.1)">
       <use xlink:href="#ArialMT-34"/>
       <use x="55.615234" xlink:href="#ArialMT-25"/>
      </g>
     </g>
    </g>
    <g id="ytick_6">
     <g id="line2d_13"/>
     <g id="text_13">
      <!-- 5% -->
      <defs>
       <path d="M 4.15625 18.75 
L 13.375 19.53125 
Q 14.40625 12.796875 18.140625 9.390625 
Q 21.875 6 27.15625 6 
Q 33.5 6 37.890625 10.78125 
Q 42.28125 15.578125 42.28125 23.484375 
Q 42.28125 31 38.0625 35.34375 
Q 33.84375 39.703125 27 39.703125 
Q 22.75 39.703125 19.328125 37.765625 
Q 15.921875 35.84375 13.96875 32.765625 
L 5.71875 33.84375 
L 12.640625 70.609375 
L 48.25 70.609375 
L 48.25 62.203125 
L 19.671875 62.203125 
L 15.828125 42.96875 
Q 22.265625 47.46875 29.34375 47.46875 
Q 38.71875 47.46875 45.15625 40.96875 
Q 51.609375 34.46875 51.609375 24.265625 
Q 51.609375 14.546875 45.953125 7.46875 
Q 39.0625 -1.21875 27.15625 -1.21875 
Q 17.390625 -1.21875 11.203125 4.25 
Q 5.03125 9.71875 4.15625 18.75 
z
" id="ArialMT-35"/>
      </defs>
      <g style="fill:#262626;" transform="translate(29.96875 229.596997)scale(0.1 -0.1)">
       <use xlink:href="#ArialMT-35"/>
       <use x="55.615234" xlink:href="#ArialMT-25"/>
      </g>
     </g>
    </g>
    <g id="ytick_7">
     <g id="line2d_14"/>
     <g id="text_14">
      <!-- 6% -->
      <g style="fill:#262626;" transform="translate(29.96875 180.396302)scale(0.1 -0.1)">
       <use xlink:href="#ArialMT-36"/>
       <use x="55.615234" xlink:href="#ArialMT-25"/>
      </g>
     </g>
    </g>
    <g id="ytick_8">
     <g id="line2d_15"/>
     <g id="text_15">
      <!-- 7% -->
      <defs>
       <path d="M 4.734375 62.203125 
L 4.734375 70.65625 
L 51.078125 70.65625 
L 51.078125 63.8125 
Q 44.234375 56.546875 37.515625 44.484375 
Q 30.8125 32.421875 27.15625 19.671875 
Q 24.515625 10.6875 23.78125 0 
L 14.75 0 
Q 14.890625 8.453125 18.0625 20.40625 
Q 21.234375 32.375 27.171875 43.484375 
Q 33.109375 54.59375 39.796875 62.203125 
z
" id="ArialMT-37"/>
      </defs>
      <g style="fill:#262626;" transform="translate(29.96875 131.195608)scale(0.1 -0.1)">
       <use xlink:href="#ArialMT-37"/>
       <use x="55.615234" xlink:href="#ArialMT-25"/>
      </g>
     </g>
    </g>
    <g id="ytick_9">
     <g id="line2d_16"/>
     <g id="text_16">
      <!-- 8% -->
      <g style="fill:#262626;" transform="translate(29.96875 81.994913)scale(0.1 -0.1)">
       <use xlink:href="#ArialMT-38"/>
       <use x="55.615234" xlink:href="#ArialMT-25"/>
      </g>
     </g>
    </g>
    <g id="ytick_10">
     <g id="line2d_17"/>
     <g id="text_17">
      <!-- 9% -->
      <g style="fill:#262626;" transform="translate(29.96875 32.794219)scale(0.1 -0.1)">
       <use xlink:href="#ArialMT-39"/>
       <use x="55.615234" xlink:href="#ArialMT-25"/>
      </g>
     </g>
    </g>
    <g id="text_18">
     <!-- Fraction of boys given the name -->
     <defs>
      <path d="M 8.203125 0 
L 8.203125 71.578125 
L 56.5 71.578125 
L 56.5 63.140625 
L 17.671875 63.140625 
L 17.671875 40.96875 
L 51.265625 40.96875 
L 51.265625 32.515625 
L 17.671875 32.515625 
L 17.671875 0 
z
" id="ArialMT-46"/>
      <path d="M 6.5 0 
L 6.5 51.859375 
L 14.40625 51.859375 
L 14.40625 44 
Q 17.4375 49.515625 20 51.265625 
Q 22.5625 53.03125 25.640625 53.03125 
Q 30.078125 53.03125 34.671875 50.203125 
L 31.640625 42.046875 
Q 28.421875 43.953125 25.203125 43.953125 
Q 22.3125 43.953125 20.015625 42.21875 
Q 17.71875 40.484375 16.75 37.40625 
Q 15.28125 32.71875 15.28125 27.15625 
L 15.28125 0 
z
" id="ArialMT-72"/>
      <path d="M 40.4375 6.390625 
Q 35.546875 2.25 31.03125 0.53125 
Q 26.515625 -1.171875 21.34375 -1.171875 
Q 12.796875 -1.171875 8.203125 3 
Q 3.609375 7.171875 3.609375 13.671875 
Q 3.609375 17.484375 5.34375 20.625 
Q 7.078125 23.78125 9.890625 25.6875 
Q 12.703125 27.59375 16.21875 28.5625 
Q 18.796875 29.25 24.03125 29.890625 
Q 34.671875 31.15625 39.703125 32.90625 
Q 39.75 34.71875 39.75 35.203125 
Q 39.75 40.578125 37.25 42.78125 
Q 33.890625 45.75 27.25 45.75 
Q 21.046875 45.75 18.09375 43.578125 
Q 15.140625 41.40625 13.71875 35.890625 
L 5.125 37.0625 
Q 6.296875 42.578125 8.984375 45.96875 
Q 11.671875 49.359375 16.75 51.1875 
Q 21.828125 53.03125 28.515625 53.03125 
Q 35.15625 53.03125 39.296875 51.46875 
Q 43.453125 49.90625 45.40625 47.53125 
Q 47.359375 45.171875 48.140625 41.546875 
Q 48.578125 39.3125 48.578125 33.453125 
L 48.578125 21.734375 
Q 48.578125 9.46875 49.140625 6.21875 
Q 49.703125 2.984375 51.375 0 
L 42.1875 0 
Q 40.828125 2.734375 40.4375 6.390625 
z
M 39.703125 26.03125 
Q 34.90625 24.078125 25.34375 22.703125 
Q 19.921875 21.921875 17.671875 20.9375 
Q 15.4375 19.96875 14.203125 18.09375 
Q 12.984375 16.21875 12.984375 13.921875 
Q 12.984375 10.40625 15.640625 8.0625 
Q 18.3125 5.71875 23.4375 5.71875 
Q 28.515625 5.71875 32.46875 7.9375 
Q 36.421875 10.15625 38.28125 14.015625 
Q 39.703125 17 39.703125 22.796875 
z
" id="ArialMT-61"/>
      <path d="M 40.4375 19 
L 49.078125 17.875 
Q 47.65625 8.9375 41.8125 3.875 
Q 35.984375 -1.171875 27.484375 -1.171875 
Q 16.84375 -1.171875 10.375 5.78125 
Q 3.90625 12.75 3.90625 25.734375 
Q 3.90625 34.125 6.6875 40.421875 
Q 9.46875 46.734375 15.15625 49.875 
Q 20.84375 53.03125 27.546875 53.03125 
Q 35.984375 53.03125 41.359375 48.75 
Q 46.734375 44.484375 48.25 36.625 
L 39.703125 35.296875 
Q 38.484375 40.53125 35.375 43.15625 
Q 32.28125 45.796875 27.875 45.796875 
Q 21.234375 45.796875 17.078125 41.03125 
Q 12.9375 36.28125 12.9375 25.984375 
Q 12.9375 15.53125 16.9375 10.796875 
Q 20.953125 6.0625 27.390625 6.0625 
Q 32.5625 6.0625 36.03125 9.234375 
Q 39.5 12.40625 40.4375 19 
z
" id="ArialMT-63"/>
      <path d="M 25.78125 7.859375 
L 27.046875 0.09375 
Q 23.34375 -0.6875 20.40625 -0.6875 
Q 15.625 -0.6875 12.984375 0.828125 
Q 10.359375 2.34375 9.28125 4.8125 
Q 8.203125 7.28125 8.203125 15.1875 
L 8.203125 45.015625 
L 1.765625 45.015625 
L 1.765625 51.859375 
L 8.203125 51.859375 
L 8.203125 64.703125 
L 16.9375 69.96875 
L 16.9375 51.859375 
L 25.78125 51.859375 
L 25.78125 45.015625 
L 16.9375 45.015625 
L 16.9375 14.703125 
Q 16.9375 10.9375 17.40625 9.859375 
Q 17.875 8.796875 18.921875 8.15625 
Q 19.96875 7.515625 21.921875 7.515625 
Q 23.390625 7.515625 25.78125 7.859375 
z
" id="ArialMT-74"/>
      <path d="M 6.640625 61.46875 
L 6.640625 71.578125 
L 15.4375 71.578125 
L 15.4375 61.46875 
z
M 6.640625 0 
L 6.640625 51.859375 
L 15.4375 51.859375 
L 15.4375 0 
z
" id="ArialMT-69"/>
      <path d="M 3.328125 25.921875 
Q 3.328125 40.328125 11.328125 47.265625 
Q 18.015625 53.03125 27.640625 53.03125 
Q 38.328125 53.03125 45.109375 46.015625 
Q 51.90625 39.015625 51.90625 26.65625 
Q 51.90625 16.65625 48.90625 10.90625 
Q 45.90625 5.171875 40.15625 2 
Q 34.421875 -1.171875 27.640625 -1.171875 
Q 16.75 -1.171875 10.03125 5.8125 
Q 3.328125 12.796875 3.328125 25.921875 
z
M 12.359375 25.921875 
Q 12.359375 15.96875 16.703125 11.015625 
Q 21.046875 6.0625 27.640625 6.0625 
Q 34.1875 6.0625 38.53125 11.03125 
Q 42.875 16.015625 42.875 26.21875 
Q 42.875 35.84375 38.5 40.796875 
Q 34.125 45.75 27.640625 45.75 
Q 21.046875 45.75 16.703125 40.8125 
Q 12.359375 35.890625 12.359375 25.921875 
z
" id="ArialMT-6f"/>
      <path d="M 6.59375 0 
L 6.59375 51.859375 
L 14.5 51.859375 
L 14.5 44.484375 
Q 20.21875 53.03125 31 53.03125 
Q 35.6875 53.03125 39.625 51.34375 
Q 43.5625 49.65625 45.515625 46.921875 
Q 47.46875 44.1875 48.25 40.4375 
Q 48.734375 37.984375 48.734375 31.890625 
L 48.734375 0 
L 39.9375 0 
L 39.9375 31.546875 
Q 39.9375 36.921875 38.90625 39.578125 
Q 37.890625 42.234375 35.28125 43.8125 
Q 32.671875 45.40625 29.15625 45.40625 
Q 23.53125 45.40625 19.453125 41.84375 
Q 15.375 38.28125 15.375 28.328125 
L 15.375 0 
z
" id="ArialMT-6e"/>
      <path id="ArialMT-20"/>
      <path d="M 8.6875 0 
L 8.6875 45.015625 
L 0.921875 45.015625 
L 0.921875 51.859375 
L 8.6875 51.859375 
L 8.6875 57.375 
Q 8.6875 62.59375 9.625 65.140625 
Q 10.890625 68.5625 14.078125 70.671875 
Q 17.28125 72.796875 23.046875 72.796875 
Q 26.765625 72.796875 31.25 71.921875 
L 29.9375 64.265625 
Q 27.203125 64.75 24.75 64.75 
Q 20.75 64.75 19.09375 63.03125 
Q 17.4375 61.328125 17.4375 56.640625 
L 17.4375 51.859375 
L 27.546875 51.859375 
L 27.546875 45.015625 
L 17.4375 45.015625 
L 17.4375 0 
z
" id="ArialMT-66"/>
      <path d="M 14.703125 0 
L 6.546875 0 
L 6.546875 71.578125 
L 15.328125 71.578125 
L 15.328125 46.046875 
Q 20.90625 53.03125 29.546875 53.03125 
Q 34.328125 53.03125 38.59375 51.09375 
Q 42.875 49.171875 45.625 45.671875 
Q 48.390625 42.1875 49.953125 37.25 
Q 51.515625 32.328125 51.515625 26.703125 
Q 51.515625 13.375 44.921875 6.09375 
Q 38.328125 -1.171875 29.109375 -1.171875 
Q 19.921875 -1.171875 14.703125 6.5 
z
M 14.59375 26.3125 
Q 14.59375 17 17.140625 12.84375 
Q 21.296875 6.0625 28.375 6.0625 
Q 34.125 6.0625 38.328125 11.0625 
Q 42.53125 16.0625 42.53125 25.984375 
Q 42.53125 36.140625 38.5 40.96875 
Q 34.46875 45.796875 28.765625 45.796875 
Q 23 45.796875 18.796875 40.796875 
Q 14.59375 35.796875 14.59375 26.3125 
z
" id="ArialMT-62"/>
      <path d="M 6.203125 -19.96875 
L 5.21875 -11.71875 
Q 8.109375 -12.5 10.25 -12.5 
Q 13.1875 -12.5 14.9375 -11.515625 
Q 16.703125 -10.546875 17.828125 -8.796875 
Q 18.65625 -7.46875 20.515625 -2.25 
Q 20.75 -1.515625 21.296875 -0.09375 
L 1.609375 51.859375 
L 11.078125 51.859375 
L 21.875 21.828125 
Q 23.96875 16.109375 25.640625 9.8125 
Q 27.15625 15.875 29.25 21.625 
L 40.328125 51.859375 
L 49.125 51.859375 
L 29.390625 -0.875 
Q 26.21875 -9.421875 24.46875 -12.640625 
Q 22.125 -17 19.09375 -19.015625 
Q 16.0625 -21.046875 11.859375 -21.046875 
Q 9.328125 -21.046875 6.203125 -19.96875 
z
" id="ArialMT-79"/>
      <path d="M 3.078125 15.484375 
L 11.765625 16.84375 
Q 12.5 11.625 15.84375 8.84375 
Q 19.1875 6.0625 25.203125 6.0625 
Q 31.25 6.0625 34.171875 8.515625 
Q 37.109375 10.984375 37.109375 14.3125 
Q 37.109375 17.28125 34.515625 19 
Q 32.71875 20.171875 25.53125 21.96875 
Q 15.875 24.421875 12.140625 26.203125 
Q 8.40625 27.984375 6.46875 31.125 
Q 4.546875 34.28125 4.546875 38.09375 
Q 4.546875 41.546875 6.125 44.5 
Q 7.71875 47.46875 10.453125 49.421875 
Q 12.5 50.921875 16.03125 51.96875 
Q 19.578125 53.03125 23.640625 53.03125 
Q 29.734375 53.03125 34.34375 51.265625 
Q 38.96875 49.515625 41.15625 46.5 
Q 43.359375 43.5 44.1875 38.484375 
L 35.59375 37.3125 
Q 35.015625 41.3125 32.203125 43.546875 
Q 29.390625 45.796875 24.265625 45.796875 
Q 18.21875 45.796875 15.625 43.796875 
Q 13.03125 41.796875 13.03125 39.109375 
Q 13.03125 37.40625 14.109375 36.03125 
Q 15.1875 34.625 17.484375 33.6875 
Q 18.796875 33.203125 25.25 31.453125 
Q 34.578125 28.953125 38.25 27.359375 
Q 41.9375 25.78125 44.03125 22.75 
Q 46.140625 19.734375 46.140625 15.234375 
Q 46.140625 10.84375 43.578125 6.953125 
Q 41.015625 3.078125 36.171875 0.953125 
Q 31.34375 -1.171875 25.25 -1.171875 
Q 15.140625 -1.171875 9.84375 3.03125 
Q 4.546875 7.234375 3.078125 15.484375 
z
" id="ArialMT-73"/>
      <path d="M 4.984375 -4.296875 
L 13.53125 -5.5625 
Q 14.0625 -9.515625 16.5 -11.328125 
Q 19.78125 -13.765625 25.4375 -13.765625 
Q 31.546875 -13.765625 34.859375 -11.328125 
Q 38.1875 -8.890625 39.359375 -4.5 
Q 40.046875 -1.8125 39.984375 6.78125 
Q 34.234375 0 25.640625 0 
Q 14.9375 0 9.078125 7.71875 
Q 3.21875 15.4375 3.21875 26.21875 
Q 3.21875 33.640625 5.90625 39.90625 
Q 8.59375 46.1875 13.6875 49.609375 
Q 18.796875 53.03125 25.6875 53.03125 
Q 34.859375 53.03125 40.828125 45.609375 
L 40.828125 51.859375 
L 48.921875 51.859375 
L 48.921875 7.03125 
Q 48.921875 -5.078125 46.453125 -10.125 
Q 44 -15.1875 38.640625 -18.109375 
Q 33.296875 -21.046875 25.484375 -21.046875 
Q 16.21875 -21.046875 10.5 -16.875 
Q 4.78125 -12.703125 4.984375 -4.296875 
z
M 12.25 26.859375 
Q 12.25 16.65625 16.296875 11.96875 
Q 20.359375 7.28125 26.46875 7.28125 
Q 32.515625 7.28125 36.609375 11.9375 
Q 40.71875 16.609375 40.71875 26.5625 
Q 40.71875 36.078125 36.5 40.90625 
Q 32.28125 45.75 26.3125 45.75 
Q 20.453125 45.75 16.34375 40.984375 
Q 12.25 36.234375 12.25 26.859375 
z
" id="ArialMT-67"/>
      <path d="M 21 0 
L 1.265625 51.859375 
L 10.546875 51.859375 
L 21.6875 20.796875 
Q 23.484375 15.765625 25 10.359375 
Q 26.171875 14.453125 28.265625 20.21875 
L 39.796875 51.859375 
L 48.828125 51.859375 
L 29.203125 0 
z
" id="ArialMT-76"/>
      <path d="M 42.09375 16.703125 
L 51.171875 15.578125 
Q 49.03125 7.625 43.21875 3.21875 
Q 37.40625 -1.171875 28.375 -1.171875 
Q 17 -1.171875 10.328125 5.828125 
Q 3.65625 12.84375 3.65625 25.484375 
Q 3.65625 38.578125 10.390625 45.796875 
Q 17.140625 53.03125 27.875 53.03125 
Q 38.28125 53.03125 44.875 45.953125 
Q 51.46875 38.875 51.46875 26.03125 
Q 51.46875 25.25 51.421875 23.6875 
L 12.75 23.6875 
Q 13.234375 15.140625 17.578125 10.59375 
Q 21.921875 6.0625 28.421875 6.0625 
Q 33.25 6.0625 36.671875 8.59375 
Q 40.09375 11.140625 42.09375 16.703125 
z
M 13.234375 30.90625 
L 42.1875 30.90625 
Q 41.609375 37.453125 38.875 40.71875 
Q 34.671875 45.796875 27.984375 45.796875 
Q 21.921875 45.796875 17.796875 41.75 
Q 13.671875 37.703125 13.234375 30.90625 
z
" id="ArialMT-65"/>
      <path d="M 6.59375 0 
L 6.59375 71.578125 
L 15.375 71.578125 
L 15.375 45.90625 
Q 21.53125 53.03125 30.90625 53.03125 
Q 36.671875 53.03125 40.921875 50.75 
Q 45.171875 48.484375 47 44.484375 
Q 48.828125 40.484375 48.828125 32.859375 
L 48.828125 0 
L 40.046875 0 
L 40.046875 32.859375 
Q 40.046875 39.453125 37.1875 42.453125 
Q 34.328125 45.453125 29.109375 45.453125 
Q 25.203125 45.453125 21.75 43.421875 
Q 18.3125 41.40625 16.84375 37.9375 
Q 15.375 34.46875 15.375 28.375 
L 15.375 0 
z
" id="ArialMT-68"/>
      <path d="M 6.59375 0 
L 6.59375 51.859375 
L 14.453125 51.859375 
L 14.453125 44.578125 
Q 16.890625 48.390625 20.9375 50.703125 
Q 25 53.03125 30.171875 53.03125 
Q 35.9375 53.03125 39.625 50.640625 
Q 43.3125 48.25 44.828125 43.953125 
Q 50.984375 53.03125 60.84375 53.03125 
Q 68.5625 53.03125 72.703125 48.75 
Q 76.859375 44.484375 76.859375 35.59375 
L 76.859375 0 
L 68.109375 0 
L 68.109375 32.671875 
Q 68.109375 37.9375 67.25 40.25 
Q 66.40625 42.578125 64.15625 43.984375 
Q 61.921875 45.40625 58.890625 45.40625 
Q 53.421875 45.40625 49.796875 41.765625 
Q 46.1875 38.140625 46.1875 30.125 
L 46.1875 0 
L 37.40625 0 
L 37.40625 33.6875 
Q 37.40625 39.546875 35.25 42.46875 
Q 33.109375 45.40625 28.21875 45.40625 
Q 24.515625 45.40625 21.359375 43.453125 
Q 18.21875 41.5 16.796875 37.734375 
Q 15.375 33.984375 15.375 26.90625 
L 15.375 0 
z
" id="ArialMT-6d"/>
     </defs>
     <g style="fill:#262626;" transform="translate(21.759375 392.9075)rotate(-90)scale(0.2 -0.2)">
      <use xlink:href="#ArialMT-46"/>
      <use x="61.083984" xlink:href="#ArialMT-72"/>
      <use x="94.384766" xlink:href="#ArialMT-61"/>
      <use x="150" xlink:href="#ArialMT-63"/>
      <use x="200" xlink:href="#ArialMT-74"/>
      <use x="227.783203" xlink:href="#ArialMT-69"/>
      <use x="250" xlink:href="#ArialMT-6f"/>
      <use x="305.615234" xlink:href="#ArialMT-6e"/>
      <use x="361.230469" xlink:href="#ArialMT-20"/>
      <use x="389.013672" xlink:href="#ArialMT-6f"/>
      <use x="444.628906" xlink:href="#ArialMT-66"/>
      <use x="472.412109" xlink:href="#ArialMT-20"/>
      <use x="500.195312" xlink:href="#ArialMT-62"/>
      <use x="555.810547" xlink:href="#ArialMT-6f"/>
      <use x="611.425781" xlink:href="#ArialMT-79"/>
      <use x="661.425781" xlink:href="#ArialMT-73"/>
      <use x="711.425781" xlink:href="#ArialMT-20"/>
      <use x="739.208984" xlink:href="#ArialMT-67"/>
      <use x="794.824219" xlink:href="#ArialMT-69"/>
      <use x="817.041016" xlink:href="#ArialMT-76"/>
      <use x="867.041016" xlink:href="#ArialMT-65"/>
      <use x="922.65625" xlink:href="#ArialMT-6e"/>
      <use x="978.271484" xlink:href="#ArialMT-20"/>
      <use x="1006.054688" xlink:href="#ArialMT-74"/>
      <use x="1033.837891" xlink:href="#ArialMT-68"/>
      <use x="1089.453125" xlink:href="#ArialMT-65"/>
      <use x="1145.068359" xlink:href="#ArialMT-20"/>
      <use x="1172.851562" xlink:href="#ArialMT-6e"/>
      <use x="1228.466797" xlink:href="#ArialMT-61"/>
      <use x="1284.082031" xlink:href="#ArialMT-6d"/>
      <use x="1367.382812" xlink:href="#ArialMT-65"/>
     </g>
    </g>
   </g>
   <g id="line2d_18">
    <path clip-path="url(#pdd2a06f0c0)" d="M 47.921875 42.092695 
L 53.814522 43.762637 
L 59.707169 58.416513 
L 65.599816 53.782507 
L 71.492463 68.417918 
L 77.38511 72.387725 
L 83.277757 71.164518 
L 89.170404 78.571252 
L 95.063051 95.558959 
L 100.955699 91.696248 
L 106.848346 95.255695 
L 112.740993 98.60759 
L 118.63364 107.600345 
L 124.526287 119.433451 
L 130.418934 121.914607 
L 136.311581 123.330144 
L 142.204228 137.150527 
L 148.096875 142.58282 
L 153.989522 144.832333 
L 159.882169 148.220022 
L 171.667463 153.166682 
L 177.56011 154.857807 
L 183.452757 158.085199 
L 189.345404 160.669968 
L 195.238051 172.277166 
L 201.130699 166.639471 
L 207.023346 171.013704 
L 212.915993 174.214211 
L 218.80864 184.285747 
L 224.701287 181.957483 
L 230.593934 179.260339 
L 236.486581 190.662544 
L 242.379228 190.494894 
L 248.271875 186.869843 
L 254.164522 196.175822 
L 260.057169 195.389953 
L 271.842463 197.459435 
L 277.73511 203.321005 
L 283.627757 208.937947 
L 289.520404 211.95029 
L 295.413051 213.089575 
L 301.305699 214.077595 
L 307.198346 215.517929 
L 313.090993 219.834661 
L 318.98364 223.409068 
L 324.876287 227.732046 
L 330.768934 233.242152 
L 336.661581 233.616696 
L 342.554228 236.931619 
L 348.446875 242.87178 
L 354.339522 242.913584 
L 360.232169 242.605477 
L 366.124816 249.275638 
L 377.91011 245.87424 
L 383.802757 247.139508 
L 389.695404 247.911745 
L 395.588051 245.209488 
L 401.480699 239.482773 
L 407.373346 241.605959 
L 413.265993 236.756589 
L 419.15864 234.383738 
L 425.051287 231.50775 
L 430.943934 230.25263 
L 436.836581 231.871186 
L 442.729228 234.482272 
L 448.621875 239.7363 
L 454.514522 246.904192 
L 460.407169 253.811342 
L 466.299816 258.852908 
L 472.192463 261.648253 
L 478.08511 272.044087 
L 483.977757 276.111755 
L 489.870404 280.71687 
L 495.763051 284.033477 
L 501.655699 291.750477 
L 507.548346 295.735346 
L 513.440993 295.776937 
L 519.33364 296.420227 
L 525.226287 286.780595 
L 531.118934 285.478792 
L 537.011581 281.574948 
L 542.904228 268.313642 
L 548.796875 282.858785 
L 554.689522 292.619567 
L 560.582169 298.209994 
L 566.474816 299.627002 
L 572.367463 310.41277 
L 578.26011 317.145559 
L 584.152757 328.763415 
L 590.045404 341.088478 
L 595.938051 348.414586 
L 601.830699 354.289212 
L 607.723346 361.489025 
L 619.50864 369.552104 
L 625.401287 370.082082 
L 631.293934 370.788799 
L 637.186581 374.754378 
L 643.079228 376.2149 
L 648.971875 377.932935 
L 654.864522 381.013333 
L 660.757169 383.112579 
L 666.649816 388.139538 
L 672.542463 391.298516 
L 678.43511 394.138377 
L 690.220404 398.620182 
L 696.113051 402.347063 
L 702.005699 404.304083 
L 707.898346 407.35446 
L 713.790993 409.313678 
L 719.68364 410.432267 
L 725.576287 411.955169 
L 731.468934 414.414838 
L 737.361581 416.214367 
L 743.254228 418.929854 
L 749.146875 419.86948 
L 755.039522 421.668875 
L 760.932169 424.168848 
L 766.824816 427.786218 
L 772.717463 429.085539 
L 778.61011 431.225049 
L 784.502757 433.16078 
L 790.395404 435.698556 
L 808.073346 441.939567 
L 813.965993 442.35212 
L 825.751287 444.429457 
L 831.643934 444.116478 
L 837.536581 444.572619 
L 849.321875 445.985933 
L 849.321875 445.985933 
" style="fill:none;stroke:#1f77b4;stroke-linecap:round;stroke-width:1.5;"/>
   </g>
   <g id="line2d_19">
    <path clip-path="url(#pdd2a06f0c0)" d="M 47.921875 364.483684 
L 53.814522 367.508608 
L 59.707169 363.827294 
L 65.599816 362.265552 
L 71.492463 365.918687 
L 77.38511 366.042831 
L 83.277757 363.524581 
L 89.170404 368.928849 
L 95.063051 357.458378 
L 100.955699 360.210903 
L 106.848346 359.417226 
L 112.740993 363.109154 
L 118.63364 362.763735 
L 124.526287 359.748817 
L 130.418934 365.901501 
L 136.311581 361.588643 
L 142.204228 360.137273 
L 148.096875 354.165398 
L 153.989522 354.443572 
L 159.882169 351.163448 
L 165.774816 347.095753 
L 171.667463 354.507365 
L 177.56011 344.466138 
L 183.452757 346.414006 
L 189.345404 340.922112 
L 195.238051 345.222358 
L 201.130699 337.71256 
L 207.023346 337.316944 
L 212.915993 337.526892 
L 218.80864 335.128796 
L 224.701287 329.928163 
L 230.593934 329.930253 
L 236.486581 325.122562 
L 242.379228 321.48173 
L 248.271875 312.809097 
L 254.164522 305.402085 
L 260.057169 296.577226 
L 265.949816 284.787397 
L 271.842463 274.834313 
L 277.73511 266.073689 
L 283.627757 247.002702 
L 289.520404 236.259106 
L 295.413051 228.804891 
L 301.305699 220.141426 
L 307.198346 207.938702 
L 313.090993 203.548326 
L 318.98364 201.204245 
L 324.876287 202.766051 
L 330.768934 202.422449 
L 336.661581 198.454358 
L 342.554228 193.338485 
L 348.446875 185.622204 
L 354.339522 192.740101 
L 360.232169 202.957359 
L 366.124816 205.949368 
L 372.017463 204.916564 
L 377.91011 194.531249 
L 383.802757 186.788645 
L 389.695404 195.753149 
L 395.588051 206.84581 
L 401.480699 212.237141 
L 407.373346 214.683006 
L 413.265993 216.051361 
L 419.15864 213.902771 
L 425.051287 216.227403 
L 430.943934 216.33311 
L 436.836581 217.091116 
L 442.729228 225.547552 
L 448.621875 232.33568 
L 454.514522 239.389739 
L 460.407169 242.41552 
L 466.299816 246.349382 
L 472.192463 252.86962 
L 478.08511 256.874536 
L 483.977757 263.727096 
L 489.870404 271.979695 
L 495.763051 276.710324 
L 501.655699 285.554379 
L 507.548346 292.703248 
L 513.440993 300.216261 
L 519.33364 305.048265 
L 525.226287 303.035943 
L 531.118934 305.062679 
L 537.011581 302.45961 
L 542.904228 299.235027 
L 548.796875 305.119605 
L 554.689522 308.359681 
L 560.582169 313.008769 
L 566.474816 307.30313 
L 572.367463 311.627998 
L 578.26011 320.664566 
L 590.045404 341.540264 
L 595.938051 349.891206 
L 601.830699 356.175156 
L 607.723346 360.736332 
L 613.615993 366.064673 
L 619.50864 369.594006 
L 625.401287 371.996199 
L 631.293934 374.822682 
L 637.186581 377.506339 
L 643.079228 377.547036 
L 648.971875 378.697619 
L 654.864522 382.12791 
L 660.757169 385.397751 
L 666.649816 386.568264 
L 672.542463 388.248479 
L 678.43511 392.319046 
L 684.327757 394.066026 
L 690.220404 398.06918 
L 696.113051 402.83361 
L 702.005699 406.664706 
L 707.898346 412.662475 
L 713.790993 415.697897 
L 719.68364 419.661618 
L 725.576287 423.987062 
L 731.468934 426.106623 
L 737.361581 429.456663 
L 749.146875 434.748834 
L 755.039522 437.591625 
L 760.932169 439.935613 
L 766.824816 441.52877 
L 772.717463 443.627702 
L 778.61011 445.53918 
L 796.288051 449.780112 
L 802.180699 450.71657 
L 808.073346 452.599559 
L 813.965993 452.634958 
L 819.85864 453.94212 
L 825.751287 453.97267 
L 831.643934 454.545335 
L 837.536581 454.991647 
L 843.429228 456.285273 
L 849.321875 456.447798 
L 849.321875 456.447798 
" style="fill:none;stroke:#ff7f0e;stroke-linecap:round;stroke-width:1.5;"/>
   </g>
   <g id="line2d_20">
    <path clip-path="url(#pdd2a06f0c0)" d="M 47.921875 208.097337 
L 53.814522 206.294933 
L 59.707169 217.02931 
L 65.599816 226.410748 
L 71.492463 227.271291 
L 77.38511 235.828654 
L 83.277757 234.198665 
L 89.170404 240.70577 
L 95.063051 245.582176 
L 100.955699 248.667201 
L 106.848346 246.148165 
L 112.740993 252.446367 
L 118.63364 254.392872 
L 124.526287 251.725176 
L 130.418934 254.851553 
L 136.311581 248.431572 
L 142.204228 257.758416 
L 148.096875 248.919537 
L 153.989522 258.640769 
L 159.882169 259.072252 
L 165.774816 235.149673 
L 171.667463 253.213177 
L 177.56011 247.716552 
L 183.452757 245.89495 
L 189.345404 247.186389 
L 195.238051 247.352707 
L 201.130699 253.727866 
L 207.023346 247.279304 
L 212.915993 248.490718 
L 218.80864 244.196958 
L 224.701287 239.08364 
L 230.593934 255.357355 
L 236.486581 270.11411 
L 242.379228 272.0665 
L 248.271875 274.67415 
L 254.164522 276.186567 
L 260.057169 275.412249 
L 265.949816 273.517197 
L 271.842463 267.552657 
L 277.73511 259.236704 
L 283.627757 250.552639 
L 289.520404 249.793783 
L 295.413051 246.844049 
L 301.305699 245.505385 
L 307.198346 242.073456 
L 313.090993 239.762717 
L 318.98364 236.283612 
L 324.876287 237.691374 
L 330.768934 237.719849 
L 336.661581 233.570948 
L 342.554228 230.142892 
L 348.446875 229.612638 
L 354.339522 227.32804 
L 360.232169 218.358975 
L 366.124816 213.522291 
L 372.017463 212.104708 
L 377.91011 212.607094 
L 383.802757 211.11169 
L 389.695404 209.826564 
L 395.588051 206.92139 
L 401.480699 206.807543 
L 407.373346 204.679046 
L 413.265993 197.024358 
L 419.15864 195.300951 
L 425.051287 194.187886 
L 430.943934 199.810307 
L 436.836581 207.128658 
L 442.729228 217.153433 
L 448.621875 223.603003 
L 454.514522 231.093051 
L 460.407169 235.099445 
L 466.299816 243.992888 
L 472.192463 251.641928 
L 478.08511 257.356307 
L 483.977757 263.700545 
L 489.870404 270.880078 
L 495.763051 274.529207 
L 501.655699 279.709735 
L 507.548346 289.409003 
L 513.440993 290.763384 
L 519.33364 294.733838 
L 525.226287 296.052147 
L 531.118934 299.452674 
L 537.011581 299.272665 
L 542.904228 291.726218 
L 548.796875 293.025643 
L 554.689522 292.227926 
L 560.582169 298.021026 
L 566.474816 300.224003 
L 572.367463 307.272973 
L 578.26011 308.575586 
L 584.152757 320.13411 
L 590.045404 329.257139 
L 595.938051 336.702591 
L 601.830699 342.663912 
L 613.615993 351.968427 
L 619.50864 352.14762 
L 625.401287 352.456626 
L 631.293934 359.535635 
L 637.186581 363.605906 
L 643.079228 366.804802 
L 648.971875 366.619956 
L 654.864522 372.236726 
L 660.757169 374.26913 
L 666.649816 376.557389 
L 672.542463 381.047079 
L 678.43511 385.980392 
L 684.327757 388.44119 
L 690.220404 391.597362 
L 696.113051 394.497597 
L 702.005699 397.711878 
L 707.898346 401.785233 
L 713.790993 406.149173 
L 719.68364 408.931828 
L 725.576287 413.25815 
L 731.468934 417.054584 
L 737.361581 418.759958 
L 743.254228 421.329886 
L 749.146875 424.463519 
L 755.039522 426.953062 
L 760.932169 428.773189 
L 766.824816 429.026319 
L 772.717463 429.918087 
L 778.61011 431.190318 
L 784.502757 432.25836 
L 790.395404 433.127165 
L 796.288051 434.162916 
L 802.180699 435.398324 
L 808.073346 436.759869 
L 813.965993 436.392544 
L 819.85864 437.651411 
L 831.643934 436.693387 
L 837.536581 434.986703 
L 843.429228 433.911366 
L 849.321875 433.365769 
L 849.321875 433.365769 
" style="fill:none;stroke:#2ca02c;stroke-linecap:round;stroke-width:1.5;"/>
   </g>
   <g id="line2d_21">
    <path clip-path="url(#pdd2a06f0c0)" d="M 47.921875 456.258246 
L 53.814522 457.467889 
L 59.707169 458.129418 
L 65.599816 457.584932 
L 71.492463 455.985755 
L 77.38511 455.13434 
L 83.277757 456.566405 
L 89.170404 455.284157 
L 95.063051 453.049834 
L 100.955699 455.247739 
L 106.848346 454.561465 
L 112.740993 455.830566 
L 118.63364 456.701277 
L 124.526287 454.192843 
L 130.418934 454.044476 
L 136.311581 454.712722 
L 142.204228 455.603088 
L 148.096875 455.964151 
L 153.989522 454.617453 
L 159.882169 454.650235 
L 165.774816 455.837769 
L 171.667463 454.276595 
L 183.452757 452.792548 
L 189.345404 454.280512 
L 195.238051 452.90872 
L 201.130699 452.401733 
L 207.023346 452.385516 
L 212.915993 450.057394 
L 218.80864 452.971177 
L 224.701287 450.64042 
L 230.593934 446.786529 
L 236.486581 447.944637 
L 242.379228 446.997183 
L 248.271875 446.758569 
L 254.164522 448.354616 
L 265.949816 449.215357 
L 271.842463 451.166899 
L 283.627757 453.51844 
L 289.520404 453.269558 
L 295.413051 453.973363 
L 301.305699 454.453958 
L 307.198346 455.199587 
L 313.090993 455.439833 
L 318.98364 456.572996 
L 330.768934 456.03423 
L 336.661581 456.178838 
L 342.554228 456.130381 
L 348.446875 455.510357 
L 360.232169 454.426097 
L 366.124816 452.457781 
L 372.017463 448.826684 
L 377.91011 444.504528 
L 383.802757 439.28326 
L 389.695404 431.74462 
L 395.588051 423.894686 
L 401.480699 415.849204 
L 407.373346 408.195735 
L 413.265993 394.609452 
L 419.15864 386.704891 
L 425.051287 375.519241 
L 430.943934 362.672711 
L 436.836581 347.242385 
L 442.729228 336.201448 
L 448.621875 324.620493 
L 454.514522 305.460894 
L 460.407169 292.990663 
L 466.299816 281.785618 
L 472.192463 272.003901 
L 478.08511 261.886953 
L 483.977757 258.349388 
L 489.870404 260.940496 
L 495.763051 261.079373 
L 501.655699 260.42766 
L 507.548346 262.043566 
L 513.440993 275.395251 
L 519.33364 277.756904 
L 525.226287 270.546108 
L 537.011581 269.112927 
L 542.904228 267.977943 
L 548.796875 257.787936 
L 554.689522 251.408987 
L 560.582169 239.483086 
L 566.474816 239.963715 
L 572.367463 237.708059 
L 578.26011 246.289159 
L 584.152757 256.224969 
L 590.045404 255.485615 
L 595.938051 257.908507 
L 601.830699 260.642529 
L 607.723346 256.436347 
L 613.615993 262.15735 
L 619.50864 269.647674 
L 625.401287 270.847528 
L 631.293934 278.512285 
L 637.186581 282.638158 
L 643.079228 283.146669 
L 648.971875 287.011508 
L 654.864522 285.362863 
L 660.757169 287.320812 
L 666.649816 299.184164 
L 672.542463 300.401553 
L 678.43511 304.215967 
L 684.327757 307.100979 
L 690.220404 311.1953 
L 696.113051 315.569116 
L 702.005699 323.945454 
L 707.898346 337.99787 
L 713.790993 347.66983 
L 719.68364 358.744844 
L 725.576287 364.983219 
L 731.468934 372.345197 
L 737.361581 373.98888 
L 743.254228 377.735303 
L 749.146875 385.093734 
L 755.039522 391.723478 
L 760.932169 396.813941 
L 766.824816 400.39241 
L 772.717463 404.43565 
L 790.395404 417.789879 
L 796.288051 419.855856 
L 802.180699 422.251149 
L 808.073346 425.001831 
L 813.965993 427.489143 
L 819.85864 428.471499 
L 831.643934 431.662905 
L 837.536581 432.356232 
L 843.429228 434.88392 
L 849.321875 435.40111 
L 849.321875 435.40111 
" style="fill:none;stroke:#d62728;stroke-linecap:round;stroke-width:1.5;"/>
   </g>
   <g id="line2d_22">
    <path clip-path="url(#pdd2a06f0c0)" d="M 47.921875 433.325738 
L 53.814522 435.39319 
L 59.707169 435.754844 
L 71.492463 439.305076 
L 77.38511 439.52507 
L 83.277757 442.088298 
L 89.170404 439.371494 
L 95.063051 439.41136 
L 100.955699 438.340437 
L 106.848346 439.62732 
L 112.740993 439.299218 
L 118.63364 439.244214 
L 124.526287 440.306593 
L 130.418934 441.039774 
L 136.311581 442.391174 
L 142.204228 440.542533 
L 148.096875 440.168545 
L 153.989522 439.338731 
L 159.882169 442.050233 
L 165.774816 443.086901 
L 171.667463 440.96787 
L 177.56011 441.496506 
L 183.452757 442.476553 
L 189.345404 440.64832 
L 195.238051 440.860937 
L 201.130699 439.580489 
L 207.023346 440.355925 
L 212.915993 439.63318 
L 218.80864 439.200899 
L 224.701287 440.152513 
L 230.593934 438.142605 
L 242.379228 440.517913 
L 248.271875 440.078378 
L 254.164522 440.741999 
L 260.057169 439.889933 
L 265.949816 439.593158 
L 271.842463 439.851206 
L 277.73511 438.298458 
L 283.627757 437.608436 
L 289.520404 437.327227 
L 295.413051 436.463173 
L 301.305699 435.055085 
L 307.198346 433.990781 
L 313.090993 432.698923 
L 318.98364 431.984655 
L 324.876287 430.865656 
L 330.768934 427.591081 
L 336.661581 420.334846 
L 342.554228 416.985343 
L 348.446875 416.277309 
L 354.339522 414.81644 
L 360.232169 412.360773 
L 366.124816 405.299774 
L 372.017463 397.999276 
L 377.91011 389.114636 
L 383.802757 375.246108 
L 389.695404 370.011487 
L 395.588051 359.286856 
L 407.373346 349.626294 
L 413.265993 344.123758 
L 419.15864 343.62935 
L 425.051287 337.058406 
L 430.943934 336.39491 
L 436.836581 331.326086 
L 442.729228 316.562278 
L 448.621875 313.274184 
L 454.514522 306.675855 
L 460.407169 305.158479 
L 466.299816 302.677948 
L 472.192463 290.393973 
L 478.08511 282.131327 
L 483.977757 280.012283 
L 489.870404 265.936582 
L 495.763051 282.073498 
L 501.655699 284.082377 
L 507.548346 280.414784 
L 513.440993 278.483175 
L 519.33364 273.761246 
L 525.226287 275.552746 
L 531.118934 278.613135 
L 537.011581 281.976949 
L 542.904228 286.722814 
L 548.796875 292.610615 
L 554.689522 288.794171 
L 560.582169 283.583265 
L 566.474816 291.69623 
L 572.367463 296.833562 
L 578.26011 308.612628 
L 584.152757 324.283296 
L 590.045404 331.400849 
L 595.938051 342.31564 
L 601.830699 341.272129 
L 607.723346 348.636551 
L 613.615993 348.869008 
L 619.50864 350.660083 
L 625.401287 350.09618 
L 631.293934 351.807834 
L 637.186581 356.422682 
L 643.079228 360.377589 
L 654.864522 364.409979 
L 660.757169 367.097291 
L 666.649816 369.462691 
L 672.542463 372.749697 
L 678.43511 375.043312 
L 684.327757 381.21918 
L 690.220404 385.401046 
L 696.113051 391.14929 
L 702.005699 397.923823 
L 707.898346 402.016873 
L 713.790993 404.204295 
L 719.68364 408.679633 
L 725.576287 412.474811 
L 731.468934 412.240166 
L 737.361581 414.903713 
L 743.254228 418.262892 
L 749.146875 419.910498 
L 755.039522 422.486069 
L 760.932169 423.018396 
L 766.824816 424.682161 
L 772.717463 425.630716 
L 778.61011 426.42473 
L 784.502757 427.37888 
L 790.395404 429.786512 
L 796.288051 430.410517 
L 802.180699 432.621092 
L 808.073346 433.694283 
L 813.965993 435.593653 
L 819.85864 437.713718 
L 825.751287 439.473228 
L 831.643934 439.827001 
L 843.429228 441.668583 
L 849.321875 443.170988 
L 849.321875 443.170988 
" style="fill:none;stroke:#9467bd;stroke-linecap:round;stroke-width:1.5;"/>
   </g>
   <g id="line2d_23">
    <path clip-path="url(#pdd2a06f0c0)" d="M 47.921875 454.031789 
L 53.814522 453.41435 
L 59.707169 455.143257 
L 65.599816 455.280714 
L 71.492463 455.641824 
L 77.38511 456.366651 
L 83.277757 456.655228 
L 89.170404 456.642555 
L 95.063051 457.650275 
L 100.955699 458.896157 
L 106.848346 459.170221 
L 112.740993 460.449619 
L 118.63364 460.611981 
L 124.526287 459.230442 
L 130.418934 459.611848 
L 142.204228 462.104639 
L 148.096875 463.120171 
L 153.989522 461.755544 
L 159.882169 463.266414 
L 165.774816 464.403736 
L 177.56011 463.718426 
L 183.452757 464.22267 
L 189.345404 462.690231 
L 195.238051 463.840969 
L 201.130699 465.112131 
L 207.023346 463.87897 
L 212.915993 464.530155 
L 218.80864 464.161404 
L 224.701287 465.105624 
L 230.593934 464.988848 
L 236.486581 464.114169 
L 242.379228 464.879967 
L 248.271875 464.52983 
L 254.164522 465.516341 
L 277.73511 466.590125 
L 283.627757 467.168133 
L 289.520404 467.134785 
L 318.98364 468.432994 
L 324.876287 468.288452 
L 330.768934 468.836534 
L 342.554228 469.232535 
L 354.339522 469.39648 
L 360.232169 469.351221 
L 366.124816 469.419413 
L 372.017463 469.772018 
L 383.802757 469.548658 
L 395.588051 470.123163 
L 401.480699 469.839535 
L 407.373346 470.154584 
L 413.265993 470.154493 
L 419.15864 470.380327 
L 442.729228 470.617612 
L 448.621875 470.479182 
L 460.407169 470.744066 
L 472.192463 470.60149 
L 478.08511 470.538806 
L 483.977757 470.667481 
L 489.870404 470.644651 
L 495.763051 470.77388 
L 537.011581 470.834934 
L 542.904228 470.723195 
L 560.582169 470.74673 
L 572.367463 470.217967 
L 578.26011 469.592654 
L 584.152757 469.087654 
L 590.045404 466.912437 
L 595.938051 465.297893 
L 601.830699 462.770114 
L 607.723346 460.60204 
L 613.615993 457.87204 
L 619.50864 454.673946 
L 625.401287 453.566356 
L 631.293934 450.457998 
L 637.186581 448.508571 
L 643.079228 446.34842 
L 648.971875 444.755981 
L 654.864522 441.823664 
L 660.757169 441.076306 
L 666.649816 439.347068 
L 672.542463 435.544091 
L 678.43511 434.269127 
L 690.220404 428.162762 
L 696.113051 419.273149 
L 702.005699 410.657545 
L 707.898346 408.791123 
L 713.790993 403.059954 
L 719.68364 397.096453 
L 725.576287 391.55214 
L 731.468934 389.085235 
L 737.361581 382.868425 
L 743.254228 379.290688 
L 749.146875 381.391841 
L 755.039522 385.614576 
L 760.932169 389.574204 
L 766.824816 394.513975 
L 772.717463 398.174095 
L 778.61011 402.867193 
L 784.502757 408.344222 
L 790.395404 412.505705 
L 796.288051 414.430185 
L 802.180699 417.47431 
L 808.073346 419.449493 
L 813.965993 415.225773 
L 819.85864 419.174761 
L 825.751287 422.456666 
L 831.643934 424.709464 
L 837.536581 428.71523 
L 843.429228 430.967906 
L 849.321875 434.307572 
L 849.321875 434.307572 
" style="fill:none;stroke:#8c564b;stroke-linecap:round;stroke-width:1.5;"/>
   </g>
   <g id="line2d_24">
    <path clip-path="url(#pdd2a06f0c0)" d="M 47.921875 467.435061 
L 53.814522 468.065698 
L 59.707169 467.34757 
L 65.599816 468.212549 
L 71.492463 467.980367 
L 77.38511 468.552836 
L 89.170404 467.461226 
L 95.063051 468.642478 
L 100.955699 468.239666 
L 106.848346 468.742255 
L 112.740993 468.32632 
L 118.63364 468.836556 
L 124.526287 468.999003 
L 130.418934 468.876635 
L 142.204228 469.182277 
L 148.096875 469.490775 
L 153.989522 469.294651 
L 159.882169 469.844356 
L 165.774816 469.013665 
L 171.667463 469.433755 
L 177.56011 469.25385 
L 183.452757 470.040891 
L 189.345404 470.255138 
L 195.238051 469.790491 
L 201.130699 469.804633 
L 207.023346 469.977537 
L 212.915993 469.853836 
L 218.80864 470.161525 
L 224.701287 469.817582 
L 236.486581 470.694127 
L 248.271875 470.736621 
L 254.164522 470.925763 
L 260.057169 470.755754 
L 265.949816 470.85733 
L 277.73511 470.75155 
L 283.627757 470.902963 
L 324.876287 470.991137 
L 330.768934 471.248627 
L 336.661581 471.120316 
L 354.339522 471.168528 
L 360.232169 471.162884 
L 366.124816 471.316218 
L 372.017463 471.194524 
L 383.802757 471.361814 
L 430.943934 471.535275 
L 436.836581 471.62767 
L 460.407169 471.601225 
L 525.226287 471.729509 
L 542.904228 471.680926 
L 548.796875 471.699057 
L 560.582169 471.581576 
L 566.474816 471.52359 
L 578.26011 471.121967 
L 584.152757 470.692266 
L 590.045404 470.745039 
L 595.938051 470.466063 
L 607.723346 470.188644 
L 613.615993 470.307324 
L 619.50864 469.974328 
L 625.401287 469.960666 
L 631.293934 469.410394 
L 637.186581 469.45711 
L 643.079228 468.176222 
L 648.971875 467.099928 
L 654.864522 467.802093 
L 660.757169 468.626529 
L 666.649816 469.070765 
L 678.43511 469.400671 
L 684.327757 469.287589 
L 690.220404 468.966451 
L 702.005699 468.822906 
L 713.790993 468.252264 
L 719.68364 466.738186 
L 725.576287 462.143208 
L 731.468934 453.358875 
L 737.361581 447.816252 
L 743.254228 437.494055 
L 749.146875 433.782342 
L 755.039522 436.258044 
L 760.932169 437.860238 
L 766.824816 441.422258 
L 772.717463 442.523455 
L 778.61011 442.497737 
L 784.502757 437.769041 
L 790.395404 432.894709 
L 796.288051 432.651039 
L 802.180699 433.910694 
L 808.073346 429.202728 
L 813.965993 429.785635 
L 819.85864 428.281981 
L 825.751287 426.942236 
L 831.643934 424.47203 
L 837.536581 422.490041 
L 843.429228 421.474538 
L 849.321875 422.276035 
L 849.321875 422.276035 
" style="fill:none;stroke:#e377c2;stroke-linecap:round;stroke-width:1.5;"/>
   </g>
   <g id="patch_31">
    <path d="M 47.921875 472.021562 
L 47.921875 29.215312 
" style="fill:none;stroke:#262626;stroke-linecap:square;stroke-linejoin:miter;stroke-width:1.25;"/>
   </g>
   <g id="patch_32">
    <path d="M 849.321875 472.021562 
L 849.321875 29.215312 
" style="fill:none;stroke:#262626;stroke-linecap:square;stroke-linejoin:miter;stroke-width:1.25;"/>
   </g>
   <g id="patch_33">
    <path d="M 47.921875 472.021562 
L 849.321875 472.021562 
" style="fill:none;stroke:#262626;stroke-linecap:square;stroke-linejoin:miter;stroke-width:1.25;"/>
   </g>
   <g id="patch_34">
    <path d="M 47.921875 29.215312 
L 849.321875 29.215312 
" style="fill:none;stroke:#262626;stroke-linecap:square;stroke-linejoin:miter;stroke-width:1.25;"/>
   </g>
   <g id="text_19">
    <!-- The most popular boy's names in the US -->
    <defs>
     <path d="M 25.921875 0 
L 25.921875 63.140625 
L 2.34375 63.140625 
L 2.34375 71.578125 
L 59.078125 71.578125 
L 59.078125 63.140625 
L 35.40625 63.140625 
L 35.40625 0 
z
" id="ArialMT-54"/>
     <path d="M 6.59375 -19.875 
L 6.59375 51.859375 
L 14.59375 51.859375 
L 14.59375 45.125 
Q 17.4375 49.078125 21 51.046875 
Q 24.5625 53.03125 29.640625 53.03125 
Q 36.28125 53.03125 41.359375 49.609375 
Q 46.4375 46.1875 49.015625 39.953125 
Q 51.609375 33.734375 51.609375 26.3125 
Q 51.609375 18.359375 48.75 11.984375 
Q 45.90625 5.609375 40.453125 2.21875 
Q 35.015625 -1.171875 29 -1.171875 
Q 24.609375 -1.171875 21.109375 0.6875 
Q 17.625 2.546875 15.375 5.375 
L 15.375 -19.875 
z
M 14.546875 25.640625 
Q 14.546875 15.625 18.59375 10.84375 
Q 22.65625 6.0625 28.421875 6.0625 
Q 34.28125 6.0625 38.453125 11.015625 
Q 42.625 15.96875 42.625 26.375 
Q 42.625 36.28125 38.546875 41.203125 
Q 34.46875 46.140625 28.8125 46.140625 
Q 23.1875 46.140625 18.859375 40.890625 
Q 14.546875 35.640625 14.546875 25.640625 
z
" id="ArialMT-70"/>
     <path d="M 40.578125 0 
L 40.578125 7.625 
Q 34.515625 -1.171875 24.125 -1.171875 
Q 19.53125 -1.171875 15.546875 0.578125 
Q 11.578125 2.34375 9.640625 5 
Q 7.71875 7.671875 6.9375 11.53125 
Q 6.390625 14.109375 6.390625 19.734375 
L 6.390625 51.859375 
L 15.1875 51.859375 
L 15.1875 23.09375 
Q 15.1875 16.21875 15.71875 13.8125 
Q 16.546875 10.359375 19.234375 8.375 
Q 21.921875 6.390625 25.875 6.390625 
Q 29.828125 6.390625 33.296875 8.421875 
Q 36.765625 10.453125 38.203125 13.9375 
Q 39.65625 17.4375 39.65625 24.078125 
L 39.65625 51.859375 
L 48.4375 51.859375 
L 48.4375 0 
z
" id="ArialMT-75"/>
     <path d="M 6.390625 0 
L 6.390625 71.578125 
L 15.1875 71.578125 
L 15.1875 0 
z
" id="ArialMT-6c"/>
     <path d="M 6.640625 46.234375 
L 4.390625 59.625 
L 4.390625 71.578125 
L 14.40625 71.578125 
L 14.40625 59.625 
L 12.0625 46.234375 
z
" id="ArialMT-27"/>
     <path d="M 54.6875 71.578125 
L 64.15625 71.578125 
L 64.15625 30.21875 
Q 64.15625 19.4375 61.71875 13.078125 
Q 59.28125 6.734375 52.90625 2.75 
Q 46.53125 -1.21875 36.1875 -1.21875 
Q 26.125 -1.21875 19.71875 2.25 
Q 13.328125 5.71875 10.59375 12.28125 
Q 7.859375 18.84375 7.859375 30.21875 
L 7.859375 71.578125 
L 17.328125 71.578125 
L 17.328125 30.28125 
Q 17.328125 20.953125 19.0625 16.53125 
Q 20.796875 12.109375 25.015625 9.71875 
Q 29.25 7.328125 35.359375 7.328125 
Q 45.796875 7.328125 50.234375 12.0625 
Q 54.6875 16.796875 54.6875 30.28125 
z
" id="ArialMT-55"/>
     <path d="M 4.5 23 
L 13.421875 23.78125 
Q 14.0625 18.40625 16.375 14.96875 
Q 18.703125 11.53125 23.578125 9.40625 
Q 28.46875 7.28125 34.578125 7.28125 
Q 39.984375 7.28125 44.140625 8.890625 
Q 48.296875 10.5 50.3125 13.296875 
Q 52.34375 16.109375 52.34375 19.4375 
Q 52.34375 22.796875 50.390625 25.3125 
Q 48.4375 27.828125 43.953125 29.546875 
Q 41.0625 30.671875 31.203125 33.03125 
Q 21.34375 35.40625 17.390625 37.5 
Q 12.25 40.1875 9.734375 44.15625 
Q 7.234375 48.140625 7.234375 53.078125 
Q 7.234375 58.5 10.296875 63.203125 
Q 13.375 67.921875 19.28125 70.359375 
Q 25.203125 72.796875 32.421875 72.796875 
Q 40.375 72.796875 46.453125 70.234375 
Q 52.546875 67.671875 55.8125 62.6875 
Q 59.078125 57.71875 59.328125 51.421875 
L 50.25 50.734375 
Q 49.515625 57.515625 45.28125 60.984375 
Q 41.0625 64.453125 32.8125 64.453125 
Q 24.21875 64.453125 20.28125 61.296875 
Q 16.359375 58.15625 16.359375 53.71875 
Q 16.359375 49.859375 19.140625 47.359375 
Q 21.875 44.875 33.421875 42.265625 
Q 44.96875 39.65625 49.265625 37.703125 
Q 55.515625 34.8125 58.484375 30.390625 
Q 61.46875 25.984375 61.46875 20.21875 
Q 61.46875 14.5 58.203125 9.4375 
Q 54.9375 4.390625 48.796875 1.578125 
Q 42.671875 -1.21875 35.015625 -1.21875 
Q 25.296875 -1.21875 18.71875 1.609375 
Q 12.15625 4.4375 8.421875 10.125 
Q 4.6875 15.828125 4.5 23 
z
" id="ArialMT-53"/>
    </defs>
    <g style="fill:#262626;" transform="translate(250.269531 23.215312)scale(0.22 -0.22)">
     <use xlink:href="#ArialMT-54"/>
     <use x="61.083984" xlink:href="#ArialMT-68"/>
     <use x="116.699219" xlink:href="#ArialMT-65"/>
     <use x="172.314453" xlink:href="#ArialMT-20"/>
     <use x="200.097656" xlink:href="#ArialMT-6d"/>
     <use x="283.398438" xlink:href="#ArialMT-6f"/>
     <use x="339.013672" xlink:href="#ArialMT-73"/>
     <use x="389.013672" xlink:href="#ArialMT-74"/>
     <use x="416.796875" xlink:href="#ArialMT-20"/>
     <use x="444.580078" xlink:href="#ArialMT-70"/>
     <use x="500.195312" xlink:href="#ArialMT-6f"/>
     <use x="555.810547" xlink:href="#ArialMT-70"/>
     <use x="611.425781" xlink:href="#ArialMT-75"/>
     <use x="667.041016" xlink:href="#ArialMT-6c"/>
     <use x="689.257812" xlink:href="#ArialMT-61"/>
     <use x="744.873047" xlink:href="#ArialMT-72"/>
     <use x="778.173828" xlink:href="#ArialMT-20"/>
     <use x="805.957031" xlink:href="#ArialMT-62"/>
     <use x="861.572266" xlink:href="#ArialMT-6f"/>
     <use x="917.1875" xlink:href="#ArialMT-79"/>
     <use x="967.1875" xlink:href="#ArialMT-27"/>
     <use x="986.279297" xlink:href="#ArialMT-73"/>
     <use x="1036.279297" xlink:href="#ArialMT-20"/>
     <use x="1064.0625" xlink:href="#ArialMT-6e"/>
     <use x="1119.677734" xlink:href="#ArialMT-61"/>
     <use x="1175.292969" xlink:href="#ArialMT-6d"/>
     <use x="1258.59375" xlink:href="#ArialMT-65"/>
     <use x="1314.208984" xlink:href="#ArialMT-73"/>
     <use x="1364.208984" xlink:href="#ArialMT-20"/>
     <use x="1391.992188" xlink:href="#ArialMT-69"/>
     <use x="1414.208984" xlink:href="#ArialMT-6e"/>
     <use x="1469.824219" xlink:href="#ArialMT-20"/>
     <use x="1497.607422" xlink:href="#ArialMT-74"/>
     <use x="1525.390625" xlink:href="#ArialMT-68"/>
     <use x="1581.005859" xlink:href="#ArialMT-65"/>
     <use x="1636.621094" xlink:href="#ArialMT-20"/>
     <use x="1664.404297" xlink:href="#ArialMT-55"/>
     <use x="1736.621094" xlink:href="#ArialMT-53"/>
    </g>
   </g>
   <g id="legend_1">
    <g id="patch_35">
     <path d="M 683.471563 145.461562 
L 836.721875 145.461562 
Q 840.321875 145.461562 840.321875 141.861562 
L 840.321875 41.815312 
Q 840.321875 38.215312 836.721875 38.215312 
L 683.471563 38.215312 
Q 679.871563 38.215312 679.871563 41.815312 
L 679.871563 141.861562 
Q 679.871563 145.461562 683.471563 145.461562 
z
" style="fill:#ffffff;stroke:#000000;stroke-linejoin:miter;"/>
    </g>
    <g id="line2d_26"/>
    <g id="text_20">
     <!-- John -->
     <defs>
      <path d="M 2.875 20.3125 
L 11.421875 21.484375 
Q 11.765625 13.28125 14.5 10.25 
Q 17.234375 7.234375 22.078125 7.234375 
Q 25.640625 7.234375 28.21875 8.859375 
Q 30.8125 10.5 31.78125 13.296875 
Q 32.765625 16.109375 32.765625 22.265625 
L 32.765625 71.578125 
L 42.234375 71.578125 
L 42.234375 22.796875 
Q 42.234375 13.8125 40.0625 8.875 
Q 37.890625 3.953125 33.171875 1.359375 
Q 28.46875 -1.21875 22.125 -1.21875 
Q 12.703125 -1.21875 7.6875 4.203125 
Q 2.6875 9.625 2.875 20.3125 
z
" id="ArialMT-4a"/>
     </defs>
     <g style="fill:#1f77b4;" transform="translate(687.071563 58.299375)scale(0.18 -0.18)">
      <use xlink:href="#ArialMT-4a"/>
      <use x="50" xlink:href="#ArialMT-6f"/>
      <use x="105.615234" xlink:href="#ArialMT-68"/>
      <use x="161.230469" xlink:href="#ArialMT-6e"/>
     </g>
    </g>
    <g id="line2d_28"/>
    <g id="text_21">
     <!-- Robert -->
     <defs>
      <path d="M 7.859375 0 
L 7.859375 71.578125 
L 39.59375 71.578125 
Q 49.171875 71.578125 54.140625 69.640625 
Q 59.125 67.71875 62.109375 62.828125 
Q 65.09375 57.953125 65.09375 52.046875 
Q 65.09375 44.4375 60.15625 39.203125 
Q 55.21875 33.984375 44.921875 32.5625 
Q 48.6875 30.765625 50.640625 29 
Q 54.78125 25.203125 58.5 19.484375 
L 70.953125 0 
L 59.03125 0 
L 49.5625 14.890625 
Q 45.40625 21.34375 42.71875 24.75 
Q 40.046875 28.171875 37.921875 29.53125 
Q 35.796875 30.90625 33.59375 31.453125 
Q 31.984375 31.78125 28.328125 31.78125 
L 17.328125 31.78125 
L 17.328125 0 
z
M 17.328125 39.984375 
L 37.703125 39.984375 
Q 44.1875 39.984375 47.84375 41.328125 
Q 51.515625 42.671875 53.421875 45.625 
Q 55.328125 48.578125 55.328125 52.046875 
Q 55.328125 57.125 51.640625 60.390625 
Q 47.953125 63.671875 39.984375 63.671875 
L 17.328125 63.671875 
z
" id="ArialMT-52"/>
     </defs>
     <g style="fill:#ff7f0e;" transform="translate(687.071563 83.760937)scale(0.18 -0.18)">
      <use xlink:href="#ArialMT-52"/>
      <use x="72.216797" xlink:href="#ArialMT-6f"/>
      <use x="127.832031" xlink:href="#ArialMT-62"/>
      <use x="183.447266" xlink:href="#ArialMT-65"/>
      <use x="239.0625" xlink:href="#ArialMT-72"/>
      <use x="272.363281" xlink:href="#ArialMT-74"/>
     </g>
    </g>
    <g id="line2d_30"/>
    <g id="text_22">
     <!-- James -->
     <g style="fill:#2ca02c;" transform="translate(687.071563 109.2225)scale(0.18 -0.18)">
      <use xlink:href="#ArialMT-4a"/>
      <use x="50" xlink:href="#ArialMT-61"/>
      <use x="105.615234" xlink:href="#ArialMT-6d"/>
      <use x="188.916016" xlink:href="#ArialMT-65"/>
      <use x="244.53125" xlink:href="#ArialMT-73"/>
     </g>
    </g>
    <g id="line2d_32"/>
    <g id="text_23">
     <!-- Michael -->
     <defs>
      <path d="M 7.421875 0 
L 7.421875 71.578125 
L 21.6875 71.578125 
L 38.625 20.90625 
Q 40.96875 13.8125 42.046875 10.296875 
Q 43.265625 14.203125 45.84375 21.78125 
L 62.984375 71.578125 
L 75.734375 71.578125 
L 75.734375 0 
L 66.609375 0 
L 66.609375 59.90625 
L 45.796875 0 
L 37.25 0 
L 16.546875 60.9375 
L 16.546875 0 
z
" id="ArialMT-4d"/>
     </defs>
     <g style="fill:#d62728;" transform="translate(687.071563 134.684062)scale(0.18 -0.18)">
      <use xlink:href="#ArialMT-4d"/>
      <use x="83.300781" xlink:href="#ArialMT-69"/>
      <use x="105.517578" xlink:href="#ArialMT-63"/>
      <use x="155.517578" xlink:href="#ArialMT-68"/>
      <use x="211.132812" xlink:href="#ArialMT-61"/>
      <use x="266.748047" xlink:href="#ArialMT-65"/>
      <use x="322.363281" xlink:href="#ArialMT-6c"/>
     </g>
    </g>
    <g id="line2d_34"/>
    <g id="text_24">
     <!-- David -->
     <defs>
      <path d="M 7.71875 0 
L 7.71875 71.578125 
L 32.375 71.578125 
Q 40.71875 71.578125 45.125 70.5625 
Q 51.265625 69.140625 55.609375 65.4375 
Q 61.28125 60.640625 64.078125 53.1875 
Q 66.890625 45.75 66.890625 36.1875 
Q 66.890625 28.03125 64.984375 21.734375 
Q 63.09375 15.4375 60.109375 11.296875 
Q 57.125 7.171875 53.578125 4.796875 
Q 50.046875 2.4375 45.046875 1.21875 
Q 40.046875 0 33.546875 0 
z
M 17.1875 8.453125 
L 32.46875 8.453125 
Q 39.546875 8.453125 43.578125 9.765625 
Q 47.609375 11.078125 50 13.484375 
Q 53.375 16.84375 55.25 22.53125 
Q 57.125 28.21875 57.125 36.328125 
Q 57.125 47.5625 53.4375 53.59375 
Q 49.75 59.625 44.484375 61.671875 
Q 40.671875 63.140625 32.234375 63.140625 
L 17.1875 63.140625 
z
" id="ArialMT-44"/>
      <path d="M 40.234375 0 
L 40.234375 6.546875 
Q 35.296875 -1.171875 25.734375 -1.171875 
Q 19.53125 -1.171875 14.328125 2.25 
Q 9.125 5.671875 6.265625 11.796875 
Q 3.421875 17.921875 3.421875 25.875 
Q 3.421875 33.640625 6 39.96875 
Q 8.59375 46.296875 13.765625 49.65625 
Q 18.953125 53.03125 25.34375 53.03125 
Q 30.03125 53.03125 33.6875 51.046875 
Q 37.359375 49.078125 39.65625 45.90625 
L 39.65625 71.578125 
L 48.390625 71.578125 
L 48.390625 0 
z
M 12.453125 25.875 
Q 12.453125 15.921875 16.640625 10.984375 
Q 20.84375 6.0625 26.5625 6.0625 
Q 32.328125 6.0625 36.34375 10.765625 
Q 40.375 15.484375 40.375 25.140625 
Q 40.375 35.796875 36.265625 40.765625 
Q 32.171875 45.75 26.171875 45.75 
Q 20.3125 45.75 16.375 40.96875 
Q 12.453125 36.1875 12.453125 25.875 
z
" id="ArialMT-64"/>
     </defs>
     <g style="fill:#9467bd;" transform="translate(785.092813 58.299375)scale(0.18 -0.18)">
      <use xlink:href="#ArialMT-44"/>
      <use x="72.216797" xlink:href="#ArialMT-61"/>
      <use x="127.832031" xlink:href="#ArialMT-76"/>
      <use x="177.832031" xlink:href="#ArialMT-69"/>
      <use x="200.048828" xlink:href="#ArialMT-64"/>
     </g>
    </g>
    <g id="line2d_36"/>
    <g id="text_25">
     <!-- Jacob -->
     <g style="fill:#8c564b;" transform="translate(785.092813 83.760937)scale(0.18 -0.18)">
      <use xlink:href="#ArialMT-4a"/>
      <use x="50" xlink:href="#ArialMT-61"/>
      <use x="105.615234" xlink:href="#ArialMT-63"/>
      <use x="155.615234" xlink:href="#ArialMT-6f"/>
      <use x="211.230469" xlink:href="#ArialMT-62"/>
     </g>
    </g>
    <g id="line2d_38"/>
    <g id="text_26">
     <!-- Noah -->
     <defs>
      <path d="M 7.625 0 
L 7.625 71.578125 
L 17.328125 71.578125 
L 54.9375 15.375 
L 54.9375 71.578125 
L 64.015625 71.578125 
L 64.015625 0 
L 54.296875 0 
L 16.703125 56.25 
L 16.703125 0 
z
" id="ArialMT-4e"/>
     </defs>
     <g style="fill:#e377c2;" transform="translate(785.092813 109.2225)scale(0.18 -0.18)">
      <use xlink:href="#ArialMT-4e"/>
      <use x="72.216797" xlink:href="#ArialMT-6f"/>
      <use x="127.832031" xlink:href="#ArialMT-61"/>
      <use x="183.447266" xlink:href="#ArialMT-68"/>
     </g>
    </g>
   </g>
  </g>
 </g>
 <defs>
  <clipPath id="pdd2a06f0c0">
   <rect height="442.80625" width="801.4" x="47.921875" y="29.215312"/>
  </clipPath>
 </defs>
</svg>
