<?xml version="1.0" encoding="utf-8" standalone="no"?>
<!DOCTYPE svg PUBLIC "-//W3C//DTD SVG 1.1//EN"
  "http://www.w3.org/Graphics/SVG/1.1/DTD/svg11.dtd">
<svg xmlns:xlink="http://www.w3.org/1999/xlink" width="864.545687pt" height="524.297031pt" viewBox="0 0 864.545687 524.297031" xmlns="http://www.w3.org/2000/svg" version="1.1">
 <metadata>
  <rdf:RDF xmlns:dc="http://purl.org/dc/elements/1.1/" xmlns:cc="http://creativecommons.org/ns#" xmlns:rdf="http://www.w3.org/1999/02/22-rdf-syntax-ns#">
   <cc:Work>
    <dc:type rdf:resource="http://purl.org/dc/dcmitype/StillImage"/>
    <dc:date>2021-12-19T14:34:40.445482</dc:date>
    <dc:format>image/svg+xml</dc:format>
    <dc:creator>
     <cc:Agent>
      <dc:title>Matplotlib v3.5.0, https://matplotlib.org/</dc:title>
     </cc:Agent>
    </dc:creator>
   </cc:Work>
  </rdf:RDF>
 </metadata>
 <defs>
  <style type="text/css">*{stroke-linejoin: round; stroke-linecap: butt}</style>
 </defs>
 <g id="figure_1">
  <g id="patch_1">
   <path d="M 0 524.297031 
L 864.545688 524.297031 
L 864.545688 0 
L 0 0 
z
" style="fill: #ffffff"/>
  </g>
  <g id="axes_1">
   <g id="patch_2">
    <path d="M 61.758594 475.210312 
L 857.345688 475.210312 
L 857.345688 31.810312 
L 61.758594 31.810312 
z
" style="fill: #ffffff"/>
   </g>
   <g id="patch_3">
    <path d="M 43.677069 475.210312 
L 43.677069 31.810312 
L 97.921643 31.810312 
L 97.921643 475.210312 
z
" clip-path="url(#pc79292329e)" style="fill: #f7f7f7; stroke: #f7f7f7; stroke-linejoin: miter"/>
   </g>
   <g id="patch_4">
    <path d="M 153.974371 475.210312 
L 153.974371 31.810312 
L 208.218945 31.810312 
L 208.218945 475.210312 
z
" clip-path="url(#pc79292329e)" style="fill: #f7f7f7; stroke: #f7f7f7; stroke-linejoin: miter"/>
   </g>
   <g id="patch_5">
    <path d="M 264.271672 475.210312 
L 264.271672 31.810312 
L 320.324399 31.810312 
L 320.324399 475.210312 
z
" clip-path="url(#pc79292329e)" style="fill: #f7f7f7; stroke: #f7f7f7; stroke-linejoin: miter"/>
   </g>
   <g id="patch_6">
    <path d="M 370.952669 475.210312 
L 370.952669 31.810312 
L 427.005396 31.810312 
L 427.005396 475.210312 
z
" clip-path="url(#pc79292329e)" style="fill: #f7f7f7; stroke: #f7f7f7; stroke-linejoin: miter"/>
   </g>
   <g id="patch_7">
    <path d="M 481.24997 475.210312 
L 481.24997 31.810312 
L 537.302698 31.810312 
L 537.302698 475.210312 
z
" clip-path="url(#pc79292329e)" style="fill: #f7f7f7; stroke: #f7f7f7; stroke-linejoin: miter"/>
   </g>
   <g id="patch_8">
    <path d="M 591.547272 475.210312 
L 591.547272 31.810312 
L 647.599999 31.810312 
L 647.599999 475.210312 
z
" clip-path="url(#pc79292329e)" style="fill: #f7f7f7; stroke: #f7f7f7; stroke-linejoin: miter"/>
   </g>
   <g id="patch_9">
    <path d="M 703.652726 475.210312 
L 703.652726 31.810312 
L 757.897301 31.810312 
L 757.897301 475.210312 
z
" clip-path="url(#pc79292329e)" style="fill: #f7f7f7; stroke: #f7f7f7; stroke-linejoin: miter"/>
   </g>
   <g id="patch_10">
    <path d="M 813.950028 475.210312 
L 813.950028 31.810312 
L 868.194602 31.810312 
L 868.194602 475.210312 
z
" clip-path="url(#pc79292329e)" style="fill: #f7f7f7; stroke: #f7f7f7; stroke-linejoin: miter"/>
   </g>
   <g id="matplotlib.axis_1">
    <g id="xtick_1">
     <g id="line2d_1">
      <path d="M 97.921643 475.210312 
L 97.921643 31.810312 
" clip-path="url(#pc79292329e)" style="fill: none; stroke: #cccccc; stroke-width: 0.8; stroke-linecap: round"/>
     </g>
    </g>
    <g id="xtick_2">
     <g id="line2d_2">
      <path d="M 153.974371 475.210312 
L 153.974371 31.810312 
" clip-path="url(#pc79292329e)" style="fill: none; stroke: #cccccc; stroke-width: 0.8; stroke-linecap: round"/>
     </g>
    </g>
    <g id="xtick_3">
     <g id="line2d_3">
      <path d="M 208.218945 475.210312 
L 208.218945 31.810312 
" clip-path="url(#pc79292329e)" style="fill: none; stroke: #cccccc; stroke-width: 0.8; stroke-linecap: round"/>
     </g>
    </g>
    <g id="xtick_4">
     <g id="line2d_4">
      <path d="M 264.271672 475.210312 
L 264.271672 31.810312 
" clip-path="url(#pc79292329e)" style="fill: none; stroke: #cccccc; stroke-width: 0.8; stroke-linecap: round"/>
     </g>
    </g>
    <g id="xtick_5">
     <g id="line2d_5">
      <path d="M 320.324399 475.210312 
L 320.324399 31.810312 
" clip-path="url(#pc79292329e)" style="fill: none; stroke: #cccccc; stroke-width: 0.8; stroke-linecap: round"/>
     </g>
    </g>
    <g id="xtick_6">
     <g id="line2d_6">
      <path d="M 370.952669 475.210312 
L 370.952669 31.810312 
" clip-path="url(#pc79292329e)" style="fill: none; stroke: #cccccc; stroke-width: 0.8; stroke-linecap: round"/>
     </g>
    </g>
    <g id="xtick_7">
     <g id="line2d_7">
      <path d="M 427.005396 475.210312 
L 427.005396 31.810312 
" clip-path="url(#pc79292329e)" style="fill: none; stroke: #cccccc; stroke-width: 0.8; stroke-linecap: round"/>
     </g>
    </g>
    <g id="xtick_8">
     <g id="line2d_8">
      <path d="M 481.24997 475.210312 
L 481.24997 31.810312 
" clip-path="url(#pc79292329e)" style="fill: none; stroke: #cccccc; stroke-width: 0.8; stroke-linecap: round"/>
     </g>
    </g>
    <g id="xtick_9">
     <g id="line2d_9">
      <path d="M 537.302698 475.210312 
L 537.302698 31.810312 
" clip-path="url(#pc79292329e)" style="fill: none; stroke: #cccccc; stroke-width: 0.8; stroke-linecap: round"/>
     </g>
    </g>
    <g id="xtick_10">
     <g id="line2d_10">
      <path d="M 591.547272 475.210312 
L 591.547272 31.810312 
" clip-path="url(#pc79292329e)" style="fill: none; stroke: #cccccc; stroke-width: 0.8; stroke-linecap: round"/>
     </g>
    </g>
    <g id="xtick_11">
     <g id="line2d_11">
      <path d="M 647.599999 475.210312 
L 647.599999 31.810312 
" clip-path="url(#pc79292329e)" style="fill: none; stroke: #cccccc; stroke-width: 0.8; stroke-linecap: round"/>
     </g>
    </g>
    <g id="xtick_12">
     <g id="line2d_12">
      <path d="M 703.652726 475.210312 
L 703.652726 31.810312 
" clip-path="url(#pc79292329e)" style="fill: none; stroke: #cccccc; stroke-width: 0.8; stroke-linecap: round"/>
     </g>
    </g>
    <g id="xtick_13">
     <g id="line2d_13">
      <path d="M 757.897301 475.210312 
L 757.897301 31.810312 
" clip-path="url(#pc79292329e)" style="fill: none; stroke: #cccccc; stroke-width: 0.8; stroke-linecap: round"/>
     </g>
    </g>
    <g id="xtick_14">
     <g id="line2d_14">
      <path d="M 813.950028 475.210312 
L 813.950028 31.810312 
" clip-path="url(#pc79292329e)" style="fill: none; stroke: #cccccc; stroke-width: 0.8; stroke-linecap: round"/>
     </g>
    </g>
    <g id="xtick_15">
     <g id="text_1">
      <!-- 11 -->
      <g style="fill: #262626" transform="translate(63.011075 491.347031)scale(0.15 -0.15)">
       <defs>
        <path id="ArialMT-31" d="M 2384 0 
L 1822 0 
L 1822 3584 
Q 1619 3391 1289 3197 
Q 959 3003 697 2906 
L 697 3450 
Q 1169 3672 1522 3987 
Q 1875 4303 2022 4600 
L 2384 4600 
L 2384 0 
z
" transform="scale(0.015625)"/>
       </defs>
       <use xlink:href="#ArialMT-31"/>
       <use xlink:href="#ArialMT-31" x="48.240234"/>
      </g>
     </g>
    </g>
    <g id="xtick_16">
     <g id="text_2">
      <!-- 1 Year -->
      <g style="fill: #262626" transform="translate(103.763853 491.347031)scale(0.15 -0.15)">
       <defs>
        <path id="ArialMT-20" transform="scale(0.015625)"/>
        <path id="ArialMT-59" d="M 1784 0 
L 1784 1941 
L 19 4581 
L 756 4581 
L 1659 3200 
Q 1909 2813 2125 2425 
Q 2331 2784 2625 3234 
L 3513 4581 
L 4219 4581 
L 2391 1941 
L 2391 0 
L 1784 0 
z
" transform="scale(0.015625)"/>
        <path id="ArialMT-65" d="M 2694 1069 
L 3275 997 
Q 3138 488 2766 206 
Q 2394 -75 1816 -75 
Q 1088 -75 661 373 
Q 234 822 234 1631 
Q 234 2469 665 2931 
Q 1097 3394 1784 3394 
Q 2450 3394 2872 2941 
Q 3294 2488 3294 1666 
Q 3294 1616 3291 1516 
L 816 1516 
Q 847 969 1125 678 
Q 1403 388 1819 388 
Q 2128 388 2347 550 
Q 2566 713 2694 1069 
z
M 847 1978 
L 2700 1978 
Q 2663 2397 2488 2606 
Q 2219 2931 1791 2931 
Q 1403 2931 1139 2672 
Q 875 2413 847 1978 
z
" transform="scale(0.015625)"/>
        <path id="ArialMT-61" d="M 2588 409 
Q 2275 144 1986 34 
Q 1697 -75 1366 -75 
Q 819 -75 525 192 
Q 231 459 231 875 
Q 231 1119 342 1320 
Q 453 1522 633 1644 
Q 813 1766 1038 1828 
Q 1203 1872 1538 1913 
Q 2219 1994 2541 2106 
Q 2544 2222 2544 2253 
Q 2544 2597 2384 2738 
Q 2169 2928 1744 2928 
Q 1347 2928 1158 2789 
Q 969 2650 878 2297 
L 328 2372 
Q 403 2725 575 2942 
Q 747 3159 1072 3276 
Q 1397 3394 1825 3394 
Q 2250 3394 2515 3294 
Q 2781 3194 2906 3042 
Q 3031 2891 3081 2659 
Q 3109 2516 3109 2141 
L 3109 1391 
Q 3109 606 3145 398 
Q 3181 191 3288 0 
L 2700 0 
Q 2613 175 2588 409 
z
M 2541 1666 
Q 2234 1541 1622 1453 
Q 1275 1403 1131 1340 
Q 988 1278 909 1158 
Q 831 1038 831 891 
Q 831 666 1001 516 
Q 1172 366 1500 366 
Q 1825 366 2078 508 
Q 2331 650 2450 897 
Q 2541 1088 2541 1459 
L 2541 1666 
z
" transform="scale(0.015625)"/>
        <path id="ArialMT-72" d="M 416 0 
L 416 3319 
L 922 3319 
L 922 2816 
Q 1116 3169 1280 3281 
Q 1444 3394 1641 3394 
Q 1925 3394 2219 3213 
L 2025 2691 
Q 1819 2813 1613 2813 
Q 1428 2813 1281 2702 
Q 1134 2591 1072 2394 
Q 978 2094 978 1738 
L 978 0 
L 416 0 
z
" transform="scale(0.015625)"/>
       </defs>
       <use xlink:href="#ArialMT-31"/>
       <use xlink:href="#ArialMT-20" x="55.615234"/>
       <use xlink:href="#ArialMT-59" x="81.648438"/>
       <use xlink:href="#ArialMT-65" x="139.222656"/>
       <use xlink:href="#ArialMT-61" x="194.837891"/>
       <use xlink:href="#ArialMT-72" x="250.453125"/>
      </g>
     </g>
    </g>
    <g id="xtick_17">
     <g id="text_3">
      <!-- 13 -->
      <g style="fill: #262626" transform="translate(172.755252 491.347031)scale(0.15 -0.15)">
       <defs>
        <path id="ArialMT-33" d="M 269 1209 
L 831 1284 
Q 928 806 1161 595 
Q 1394 384 1728 384 
Q 2125 384 2398 659 
Q 2672 934 2672 1341 
Q 2672 1728 2419 1979 
Q 2166 2231 1775 2231 
Q 1616 2231 1378 2169 
L 1441 2663 
Q 1497 2656 1531 2656 
Q 1891 2656 2178 2843 
Q 2466 3031 2466 3422 
Q 2466 3731 2256 3934 
Q 2047 4138 1716 4138 
Q 1388 4138 1169 3931 
Q 950 3725 888 3313 
L 325 3413 
Q 428 3978 793 4289 
Q 1159 4600 1703 4600 
Q 2078 4600 2393 4439 
Q 2709 4278 2876 4000 
Q 3044 3722 3044 3409 
Q 3044 3113 2884 2869 
Q 2725 2625 2413 2481 
Q 2819 2388 3044 2092 
Q 3269 1797 3269 1353 
Q 3269 753 2831 336 
Q 2394 -81 1725 -81 
Q 1122 -81 723 278 
Q 325 638 269 1209 
z
" transform="scale(0.015625)"/>
       </defs>
       <use xlink:href="#ArialMT-31"/>
       <use xlink:href="#ArialMT-33" x="55.615234"/>
      </g>
     </g>
    </g>
    <g id="xtick_18">
     <g id="text_4">
      <!-- 14 -->
      <g style="fill: #262626" transform="translate(226.999826 491.347031)scale(0.15 -0.15)">
       <defs>
        <path id="ArialMT-34" d="M 2069 0 
L 2069 1097 
L 81 1097 
L 81 1613 
L 2172 4581 
L 2631 4581 
L 2631 1613 
L 3250 1613 
L 3250 1097 
L 2631 1097 
L 2631 0 
L 2069 0 
z
M 2069 1613 
L 2069 3678 
L 634 1613 
L 2069 1613 
z
" transform="scale(0.015625)"/>
       </defs>
       <use xlink:href="#ArialMT-31"/>
       <use xlink:href="#ArialMT-34" x="55.615234"/>
      </g>
     </g>
    </g>
    <g id="xtick_19">
     <g id="text_5">
      <!-- 15 -->
      <g style="fill: #262626" transform="translate(283.052553 491.347031)scale(0.15 -0.15)">
       <defs>
        <path id="ArialMT-35" d="M 266 1200 
L 856 1250 
Q 922 819 1161 601 
Q 1400 384 1738 384 
Q 2144 384 2425 690 
Q 2706 997 2706 1503 
Q 2706 1984 2436 2262 
Q 2166 2541 1728 2541 
Q 1456 2541 1237 2417 
Q 1019 2294 894 2097 
L 366 2166 
L 809 4519 
L 3088 4519 
L 3088 3981 
L 1259 3981 
L 1013 2750 
Q 1425 3038 1878 3038 
Q 2478 3038 2890 2622 
Q 3303 2206 3303 1553 
Q 3303 931 2941 478 
Q 2500 -78 1738 -78 
Q 1113 -78 717 272 
Q 322 622 266 1200 
z
" transform="scale(0.015625)"/>
       </defs>
       <use xlink:href="#ArialMT-31"/>
       <use xlink:href="#ArialMT-35" x="55.615234"/>
      </g>
     </g>
    </g>
    <g id="xtick_20">
     <g id="text_6">
      <!-- 16 -->
      <g style="fill: #262626" transform="translate(339.10528 491.347031)scale(0.15 -0.15)">
       <defs>
        <path id="ArialMT-36" d="M 3184 3459 
L 2625 3416 
Q 2550 3747 2413 3897 
Q 2184 4138 1850 4138 
Q 1581 4138 1378 3988 
Q 1113 3794 959 3422 
Q 806 3050 800 2363 
Q 1003 2672 1297 2822 
Q 1591 2972 1913 2972 
Q 2475 2972 2870 2558 
Q 3266 2144 3266 1488 
Q 3266 1056 3080 686 
Q 2894 316 2569 119 
Q 2244 -78 1831 -78 
Q 1128 -78 684 439 
Q 241 956 241 2144 
Q 241 3472 731 4075 
Q 1159 4600 1884 4600 
Q 2425 4600 2770 4297 
Q 3116 3994 3184 3459 
z
M 888 1484 
Q 888 1194 1011 928 
Q 1134 663 1356 523 
Q 1578 384 1822 384 
Q 2178 384 2434 671 
Q 2691 959 2691 1453 
Q 2691 1928 2437 2201 
Q 2184 2475 1800 2475 
Q 1419 2475 1153 2201 
Q 888 1928 888 1484 
z
" transform="scale(0.015625)"/>
       </defs>
       <use xlink:href="#ArialMT-31"/>
       <use xlink:href="#ArialMT-36" x="55.615234"/>
      </g>
     </g>
    </g>
    <g id="xtick_21">
     <g id="text_7">
      <!-- 17 -->
      <g style="fill: #262626" transform="translate(389.73355 491.347031)scale(0.15 -0.15)">
       <defs>
        <path id="ArialMT-37" d="M 303 3981 
L 303 4522 
L 3269 4522 
L 3269 4084 
Q 2831 3619 2401 2847 
Q 1972 2075 1738 1259 
Q 1569 684 1522 0 
L 944 0 
Q 953 541 1156 1306 
Q 1359 2072 1739 2783 
Q 2119 3494 2547 3981 
L 303 3981 
z
" transform="scale(0.015625)"/>
       </defs>
       <use xlink:href="#ArialMT-31"/>
       <use xlink:href="#ArialMT-37" x="55.615234"/>
      </g>
     </g>
    </g>
    <g id="xtick_22">
     <g id="text_8">
      <!-- 18 -->
      <g style="fill: #262626" transform="translate(445.786277 491.347031)scale(0.15 -0.15)">
       <defs>
        <path id="ArialMT-38" d="M 1131 2484 
Q 781 2613 612 2850 
Q 444 3088 444 3419 
Q 444 3919 803 4259 
Q 1163 4600 1759 4600 
Q 2359 4600 2725 4251 
Q 3091 3903 3091 3403 
Q 3091 3084 2923 2848 
Q 2756 2613 2416 2484 
Q 2838 2347 3058 2040 
Q 3278 1734 3278 1309 
Q 3278 722 2862 322 
Q 2447 -78 1769 -78 
Q 1091 -78 675 323 
Q 259 725 259 1325 
Q 259 1772 486 2073 
Q 713 2375 1131 2484 
z
M 1019 3438 
Q 1019 3113 1228 2906 
Q 1438 2700 1772 2700 
Q 2097 2700 2305 2904 
Q 2513 3109 2513 3406 
Q 2513 3716 2298 3927 
Q 2084 4138 1766 4138 
Q 1444 4138 1231 3931 
Q 1019 3725 1019 3438 
z
M 838 1322 
Q 838 1081 952 856 
Q 1066 631 1291 507 
Q 1516 384 1775 384 
Q 2178 384 2440 643 
Q 2703 903 2703 1303 
Q 2703 1709 2433 1975 
Q 2163 2241 1756 2241 
Q 1359 2241 1098 1978 
Q 838 1716 838 1322 
z
" transform="scale(0.015625)"/>
       </defs>
       <use xlink:href="#ArialMT-31"/>
       <use xlink:href="#ArialMT-38" x="55.615234"/>
      </g>
     </g>
    </g>
    <g id="xtick_23">
     <g id="text_9">
      <!-- 19 -->
      <g style="fill: #262626" transform="translate(500.030851 491.347031)scale(0.15 -0.15)">
       <defs>
        <path id="ArialMT-39" d="M 350 1059 
L 891 1109 
Q 959 728 1153 556 
Q 1347 384 1650 384 
Q 1909 384 2104 503 
Q 2300 622 2425 820 
Q 2550 1019 2634 1356 
Q 2719 1694 2719 2044 
Q 2719 2081 2716 2156 
Q 2547 1888 2255 1720 
Q 1963 1553 1622 1553 
Q 1053 1553 659 1965 
Q 266 2378 266 3053 
Q 266 3750 677 4175 
Q 1088 4600 1706 4600 
Q 2153 4600 2523 4359 
Q 2894 4119 3086 3673 
Q 3278 3228 3278 2384 
Q 3278 1506 3087 986 
Q 2897 466 2520 194 
Q 2144 -78 1638 -78 
Q 1100 -78 759 220 
Q 419 519 350 1059 
z
M 2653 3081 
Q 2653 3566 2395 3850 
Q 2138 4134 1775 4134 
Q 1400 4134 1122 3828 
Q 844 3522 844 3034 
Q 844 2597 1108 2323 
Q 1372 2050 1759 2050 
Q 2150 2050 2401 2323 
Q 2653 2597 2653 3081 
z
" transform="scale(0.015625)"/>
       </defs>
       <use xlink:href="#ArialMT-31"/>
       <use xlink:href="#ArialMT-39" x="55.615234"/>
      </g>
     </g>
    </g>
    <g id="xtick_24">
     <g id="text_10">
      <!-- 20 -->
      <g style="fill: #262626" transform="translate(556.083579 491.347031)scale(0.15 -0.15)">
       <defs>
        <path id="ArialMT-32" d="M 3222 541 
L 3222 0 
L 194 0 
Q 188 203 259 391 
Q 375 700 629 1000 
Q 884 1300 1366 1694 
Q 2113 2306 2375 2664 
Q 2638 3022 2638 3341 
Q 2638 3675 2398 3904 
Q 2159 4134 1775 4134 
Q 1369 4134 1125 3890 
Q 881 3647 878 3216 
L 300 3275 
Q 359 3922 746 4261 
Q 1134 4600 1788 4600 
Q 2447 4600 2831 4234 
Q 3216 3869 3216 3328 
Q 3216 3053 3103 2787 
Q 2991 2522 2730 2228 
Q 2469 1934 1863 1422 
Q 1356 997 1212 845 
Q 1069 694 975 541 
L 3222 541 
z
" transform="scale(0.015625)"/>
        <path id="ArialMT-30" d="M 266 2259 
Q 266 3072 433 3567 
Q 600 4063 929 4331 
Q 1259 4600 1759 4600 
Q 2128 4600 2406 4451 
Q 2684 4303 2865 4023 
Q 3047 3744 3150 3342 
Q 3253 2941 3253 2259 
Q 3253 1453 3087 958 
Q 2922 463 2592 192 
Q 2263 -78 1759 -78 
Q 1097 -78 719 397 
Q 266 969 266 2259 
z
M 844 2259 
Q 844 1131 1108 757 
Q 1372 384 1759 384 
Q 2147 384 2411 759 
Q 2675 1134 2675 2259 
Q 2675 3391 2411 3762 
Q 2147 4134 1753 4134 
Q 1366 4134 1134 3806 
Q 844 3388 844 2259 
z
" transform="scale(0.015625)"/>
       </defs>
       <use xlink:href="#ArialMT-32"/>
       <use xlink:href="#ArialMT-30" x="55.615234"/>
      </g>
     </g>
    </g>
    <g id="xtick_25">
     <g id="text_11">
      <!-- 21 -->
      <g style="fill: #262626" transform="translate(610.328153 491.347031)scale(0.15 -0.15)">
       <use xlink:href="#ArialMT-32"/>
       <use xlink:href="#ArialMT-31" x="55.615234"/>
      </g>
     </g>
    </g>
    <g id="xtick_26">
     <g id="text_12">
      <!-- 22 -->
      <g style="fill: #262626" transform="translate(666.38088 491.347031)scale(0.15 -0.15)">
       <use xlink:href="#ArialMT-32"/>
       <use xlink:href="#ArialMT-32" x="55.615234"/>
      </g>
     </g>
    </g>
    <g id="xtick_27">
     <g id="text_13">
      <!-- 23 -->
      <g style="fill: #262626" transform="translate(722.433607 491.347031)scale(0.15 -0.15)">
       <use xlink:href="#ArialMT-32"/>
       <use xlink:href="#ArialMT-33" x="55.615234"/>
      </g>
     </g>
    </g>
    <g id="xtick_28">
     <g id="text_14">
      <!-- 2 Years -->
      <g style="fill: #262626" transform="translate(759.98951 491.347031)scale(0.15 -0.15)">
       <defs>
        <path id="ArialMT-73" d="M 197 991 
L 753 1078 
Q 800 744 1014 566 
Q 1228 388 1613 388 
Q 2000 388 2187 545 
Q 2375 703 2375 916 
Q 2375 1106 2209 1216 
Q 2094 1291 1634 1406 
Q 1016 1563 777 1677 
Q 538 1791 414 1992 
Q 291 2194 291 2438 
Q 291 2659 392 2848 
Q 494 3038 669 3163 
Q 800 3259 1026 3326 
Q 1253 3394 1513 3394 
Q 1903 3394 2198 3281 
Q 2494 3169 2634 2976 
Q 2775 2784 2828 2463 
L 2278 2388 
Q 2241 2644 2061 2787 
Q 1881 2931 1553 2931 
Q 1166 2931 1000 2803 
Q 834 2675 834 2503 
Q 834 2394 903 2306 
Q 972 2216 1119 2156 
Q 1203 2125 1616 2013 
Q 2213 1853 2448 1751 
Q 2684 1650 2818 1456 
Q 2953 1263 2953 975 
Q 2953 694 2789 445 
Q 2625 197 2315 61 
Q 2006 -75 1616 -75 
Q 969 -75 630 194 
Q 291 463 197 991 
z
" transform="scale(0.015625)"/>
       </defs>
       <use xlink:href="#ArialMT-32"/>
       <use xlink:href="#ArialMT-20" x="55.615234"/>
       <use xlink:href="#ArialMT-59" x="81.648438"/>
       <use xlink:href="#ArialMT-65" x="139.222656"/>
       <use xlink:href="#ArialMT-61" x="194.837891"/>
       <use xlink:href="#ArialMT-72" x="250.453125"/>
       <use xlink:href="#ArialMT-73" x="283.753906"/>
      </g>
     </g>
    </g>
    <g id="xtick_29">
     <g id="text_15">
      <!-- 25 -->
      <g style="fill: #262626" transform="translate(832.730909 491.347031)scale(0.15 -0.15)">
       <use xlink:href="#ArialMT-32"/>
       <use xlink:href="#ArialMT-35" x="55.615234"/>
      </g>
     </g>
    </g>
    <g id="text_16">
     <!-- Age (Months) -->
     <g style="fill: #262626" transform="translate(399.531828 512.887656)scale(0.2 -0.2)">
      <defs>
       <path id="ArialMT-41" d="M -9 0 
L 1750 4581 
L 2403 4581 
L 4278 0 
L 3588 0 
L 3053 1388 
L 1138 1388 
L 634 0 
L -9 0 
z
M 1313 1881 
L 2866 1881 
L 2388 3150 
Q 2169 3728 2063 4100 
Q 1975 3659 1816 3225 
L 1313 1881 
z
" transform="scale(0.015625)"/>
       <path id="ArialMT-67" d="M 319 -275 
L 866 -356 
Q 900 -609 1056 -725 
Q 1266 -881 1628 -881 
Q 2019 -881 2231 -725 
Q 2444 -569 2519 -288 
Q 2563 -116 2559 434 
Q 2191 0 1641 0 
Q 956 0 581 494 
Q 206 988 206 1678 
Q 206 2153 378 2554 
Q 550 2956 876 3175 
Q 1203 3394 1644 3394 
Q 2231 3394 2613 2919 
L 2613 3319 
L 3131 3319 
L 3131 450 
Q 3131 -325 2973 -648 
Q 2816 -972 2473 -1159 
Q 2131 -1347 1631 -1347 
Q 1038 -1347 672 -1080 
Q 306 -813 319 -275 
z
M 784 1719 
Q 784 1066 1043 766 
Q 1303 466 1694 466 
Q 2081 466 2343 764 
Q 2606 1063 2606 1700 
Q 2606 2309 2336 2618 
Q 2066 2928 1684 2928 
Q 1309 2928 1046 2623 
Q 784 2319 784 1719 
z
" transform="scale(0.015625)"/>
       <path id="ArialMT-28" d="M 1497 -1347 
Q 1031 -759 709 28 
Q 388 816 388 1659 
Q 388 2403 628 3084 
Q 909 3875 1497 4659 
L 1900 4659 
Q 1522 4009 1400 3731 
Q 1209 3300 1100 2831 
Q 966 2247 966 1656 
Q 966 153 1900 -1347 
L 1497 -1347 
z
" transform="scale(0.015625)"/>
       <path id="ArialMT-4d" d="M 475 0 
L 475 4581 
L 1388 4581 
L 2472 1338 
Q 2622 884 2691 659 
Q 2769 909 2934 1394 
L 4031 4581 
L 4847 4581 
L 4847 0 
L 4263 0 
L 4263 3834 
L 2931 0 
L 2384 0 
L 1059 3900 
L 1059 0 
L 475 0 
z
" transform="scale(0.015625)"/>
       <path id="ArialMT-6f" d="M 213 1659 
Q 213 2581 725 3025 
Q 1153 3394 1769 3394 
Q 2453 3394 2887 2945 
Q 3322 2497 3322 1706 
Q 3322 1066 3130 698 
Q 2938 331 2570 128 
Q 2203 -75 1769 -75 
Q 1072 -75 642 372 
Q 213 819 213 1659 
z
M 791 1659 
Q 791 1022 1069 705 
Q 1347 388 1769 388 
Q 2188 388 2466 706 
Q 2744 1025 2744 1678 
Q 2744 2294 2464 2611 
Q 2184 2928 1769 2928 
Q 1347 2928 1069 2612 
Q 791 2297 791 1659 
z
" transform="scale(0.015625)"/>
       <path id="ArialMT-6e" d="M 422 0 
L 422 3319 
L 928 3319 
L 928 2847 
Q 1294 3394 1984 3394 
Q 2284 3394 2536 3286 
Q 2788 3178 2913 3003 
Q 3038 2828 3088 2588 
Q 3119 2431 3119 2041 
L 3119 0 
L 2556 0 
L 2556 2019 
Q 2556 2363 2490 2533 
Q 2425 2703 2258 2804 
Q 2091 2906 1866 2906 
Q 1506 2906 1245 2678 
Q 984 2450 984 1813 
L 984 0 
L 422 0 
z
" transform="scale(0.015625)"/>
       <path id="ArialMT-74" d="M 1650 503 
L 1731 6 
Q 1494 -44 1306 -44 
Q 1000 -44 831 53 
Q 663 150 594 308 
Q 525 466 525 972 
L 525 2881 
L 113 2881 
L 113 3319 
L 525 3319 
L 525 4141 
L 1084 4478 
L 1084 3319 
L 1650 3319 
L 1650 2881 
L 1084 2881 
L 1084 941 
Q 1084 700 1114 631 
Q 1144 563 1211 522 
Q 1278 481 1403 481 
Q 1497 481 1650 503 
z
" transform="scale(0.015625)"/>
       <path id="ArialMT-68" d="M 422 0 
L 422 4581 
L 984 4581 
L 984 2938 
Q 1378 3394 1978 3394 
Q 2347 3394 2619 3248 
Q 2891 3103 3008 2847 
Q 3125 2591 3125 2103 
L 3125 0 
L 2563 0 
L 2563 2103 
Q 2563 2525 2380 2717 
Q 2197 2909 1863 2909 
Q 1613 2909 1392 2779 
Q 1172 2650 1078 2428 
Q 984 2206 984 1816 
L 984 0 
L 422 0 
z
" transform="scale(0.015625)"/>
       <path id="ArialMT-29" d="M 791 -1347 
L 388 -1347 
Q 1322 153 1322 1656 
Q 1322 2244 1188 2822 
Q 1081 3291 891 3722 
Q 769 4003 388 4659 
L 791 4659 
Q 1378 3875 1659 3084 
Q 1900 2403 1900 1659 
Q 1900 816 1576 28 
Q 1253 -759 791 -1347 
z
" transform="scale(0.015625)"/>
      </defs>
      <use xlink:href="#ArialMT-41"/>
      <use xlink:href="#ArialMT-67" x="66.699219"/>
      <use xlink:href="#ArialMT-65" x="122.314453"/>
      <use xlink:href="#ArialMT-20" x="177.929688"/>
      <use xlink:href="#ArialMT-28" x="205.712891"/>
      <use xlink:href="#ArialMT-4d" x="239.013672"/>
      <use xlink:href="#ArialMT-6f" x="322.314453"/>
      <use xlink:href="#ArialMT-6e" x="377.929688"/>
      <use xlink:href="#ArialMT-74" x="433.544922"/>
      <use xlink:href="#ArialMT-68" x="461.328125"/>
      <use xlink:href="#ArialMT-73" x="516.943359"/>
      <use xlink:href="#ArialMT-29" x="566.943359"/>
     </g>
    </g>
   </g>
   <g id="matplotlib.axis_2">
    <g id="ytick_1">
     <g id="line2d_15">
      <path d="M 61.758594 455.055767 
L 857.345688 455.055767 
" clip-path="url(#pc79292329e)" style="fill: none; stroke: #cccccc; stroke-width: 0.8; stroke-linecap: round"/>
     </g>
     <g id="text_17">
      <!-- 0 -->
      <g style="fill: #262626" transform="translate(46.417188 460.424126)scale(0.15 -0.15)">
       <use xlink:href="#ArialMT-30"/>
      </g>
     </g>
    </g>
    <g id="ytick_2">
     <g id="line2d_16">
      <path d="M 61.758594 403.706607 
L 857.345688 403.706607 
" clip-path="url(#pc79292329e)" style="fill: none; stroke: #cccccc; stroke-width: 0.8; stroke-linecap: round"/>
     </g>
     <g id="text_18">
      <!-- 20 -->
      <g style="fill: #262626" transform="translate(38.075781 409.074966)scale(0.15 -0.15)">
       <use xlink:href="#ArialMT-32"/>
       <use xlink:href="#ArialMT-30" x="55.615234"/>
      </g>
     </g>
    </g>
    <g id="ytick_3">
     <g id="line2d_17">
      <path d="M 61.758594 352.357446 
L 857.345688 352.357446 
" clip-path="url(#pc79292329e)" style="fill: none; stroke: #cccccc; stroke-width: 0.8; stroke-linecap: round"/>
     </g>
     <g id="text_19">
      <!-- 40 -->
      <g style="fill: #262626" transform="translate(38.075781 357.725806)scale(0.15 -0.15)">
       <use xlink:href="#ArialMT-34"/>
       <use xlink:href="#ArialMT-30" x="55.615234"/>
      </g>
     </g>
    </g>
    <g id="ytick_4">
     <g id="line2d_18">
      <path d="M 61.758594 301.008286 
L 857.345688 301.008286 
" clip-path="url(#pc79292329e)" style="fill: none; stroke: #cccccc; stroke-width: 0.8; stroke-linecap: round"/>
     </g>
     <g id="text_20">
      <!-- 60 -->
      <g style="fill: #262626" transform="translate(38.075781 306.376645)scale(0.15 -0.15)">
       <use xlink:href="#ArialMT-36"/>
       <use xlink:href="#ArialMT-30" x="55.615234"/>
      </g>
     </g>
    </g>
    <g id="ytick_5">
     <g id="line2d_19">
      <path d="M 61.758594 249.659125 
L 857.345688 249.659125 
" clip-path="url(#pc79292329e)" style="fill: none; stroke: #cccccc; stroke-width: 0.8; stroke-linecap: round"/>
     </g>
     <g id="text_21">
      <!-- 80 -->
      <g style="fill: #262626" transform="translate(38.075781 255.027485)scale(0.15 -0.15)">
       <use xlink:href="#ArialMT-38"/>
       <use xlink:href="#ArialMT-30" x="55.615234"/>
      </g>
     </g>
    </g>
    <g id="ytick_6">
     <g id="line2d_20">
      <path d="M 61.758594 198.309965 
L 857.345688 198.309965 
" clip-path="url(#pc79292329e)" style="fill: none; stroke: #cccccc; stroke-width: 0.8; stroke-linecap: round"/>
     </g>
     <g id="text_22">
      <!-- 100 -->
      <g style="fill: #262626" transform="translate(29.734375 203.678324)scale(0.15 -0.15)">
       <use xlink:href="#ArialMT-31"/>
       <use xlink:href="#ArialMT-30" x="55.615234"/>
       <use xlink:href="#ArialMT-30" x="111.230469"/>
      </g>
     </g>
    </g>
    <g id="ytick_7">
     <g id="line2d_21">
      <path d="M 61.758594 146.960805 
L 857.345688 146.960805 
" clip-path="url(#pc79292329e)" style="fill: none; stroke: #cccccc; stroke-width: 0.8; stroke-linecap: round"/>
     </g>
     <g id="text_23">
      <!-- 120 -->
      <g style="fill: #262626" transform="translate(29.734375 152.329164)scale(0.15 -0.15)">
       <use xlink:href="#ArialMT-31"/>
       <use xlink:href="#ArialMT-32" x="55.615234"/>
       <use xlink:href="#ArialMT-30" x="111.230469"/>
      </g>
     </g>
    </g>
    <g id="ytick_8">
     <g id="line2d_22">
      <path d="M 61.758594 95.611644 
L 857.345688 95.611644 
" clip-path="url(#pc79292329e)" style="fill: none; stroke: #cccccc; stroke-width: 0.8; stroke-linecap: round"/>
     </g>
     <g id="text_24">
      <!-- 140 -->
      <g style="fill: #262626" transform="translate(29.734375 100.980004)scale(0.15 -0.15)">
       <use xlink:href="#ArialMT-31"/>
       <use xlink:href="#ArialMT-34" x="55.615234"/>
       <use xlink:href="#ArialMT-30" x="111.230469"/>
      </g>
     </g>
    </g>
    <g id="ytick_9">
     <g id="line2d_23">
      <path d="M 61.758594 44.262484 
L 857.345688 44.262484 
" clip-path="url(#pc79292329e)" style="fill: none; stroke: #cccccc; stroke-width: 0.8; stroke-linecap: round"/>
     </g>
     <g id="text_25">
      <!-- 160 -->
      <g style="fill: #262626" transform="translate(29.734375 49.630843)scale(0.15 -0.15)">
       <use xlink:href="#ArialMT-31"/>
       <use xlink:href="#ArialMT-36" x="55.615234"/>
       <use xlink:href="#ArialMT-30" x="111.230469"/>
      </g>
     </g>
    </g>
    <g id="text_26">
     <!-- Words Spoken -->
     <g style="fill: #262626" transform="translate(21.759375 318.918125)rotate(-90)scale(0.2 -0.2)">
      <defs>
       <path id="ArialMT-57" d="M 1294 0 
L 78 4581 
L 700 4581 
L 1397 1578 
Q 1509 1106 1591 641 
Q 1766 1375 1797 1488 
L 2669 4581 
L 3400 4581 
L 4056 2263 
Q 4303 1400 4413 641 
Q 4500 1075 4641 1638 
L 5359 4581 
L 5969 4581 
L 4713 0 
L 4128 0 
L 3163 3491 
Q 3041 3928 3019 4028 
Q 2947 3713 2884 3491 
L 1913 0 
L 1294 0 
z
" transform="scale(0.015625)"/>
       <path id="ArialMT-64" d="M 2575 0 
L 2575 419 
Q 2259 -75 1647 -75 
Q 1250 -75 917 144 
Q 584 363 401 755 
Q 219 1147 219 1656 
Q 219 2153 384 2558 
Q 550 2963 881 3178 
Q 1213 3394 1622 3394 
Q 1922 3394 2156 3267 
Q 2391 3141 2538 2938 
L 2538 4581 
L 3097 4581 
L 3097 0 
L 2575 0 
z
M 797 1656 
Q 797 1019 1065 703 
Q 1334 388 1700 388 
Q 2069 388 2326 689 
Q 2584 991 2584 1609 
Q 2584 2291 2321 2609 
Q 2059 2928 1675 2928 
Q 1300 2928 1048 2622 
Q 797 2316 797 1656 
z
" transform="scale(0.015625)"/>
       <path id="ArialMT-53" d="M 288 1472 
L 859 1522 
Q 900 1178 1048 958 
Q 1197 738 1509 602 
Q 1822 466 2213 466 
Q 2559 466 2825 569 
Q 3091 672 3220 851 
Q 3350 1031 3350 1244 
Q 3350 1459 3225 1620 
Q 3100 1781 2813 1891 
Q 2628 1963 1997 2114 
Q 1366 2266 1113 2400 
Q 784 2572 623 2826 
Q 463 3081 463 3397 
Q 463 3744 659 4045 
Q 856 4347 1234 4503 
Q 1613 4659 2075 4659 
Q 2584 4659 2973 4495 
Q 3363 4331 3572 4012 
Q 3781 3694 3797 3291 
L 3216 3247 
Q 3169 3681 2898 3903 
Q 2628 4125 2100 4125 
Q 1550 4125 1298 3923 
Q 1047 3722 1047 3438 
Q 1047 3191 1225 3031 
Q 1400 2872 2139 2705 
Q 2878 2538 3153 2413 
Q 3553 2228 3743 1945 
Q 3934 1663 3934 1294 
Q 3934 928 3725 604 
Q 3516 281 3123 101 
Q 2731 -78 2241 -78 
Q 1619 -78 1198 103 
Q 778 284 539 648 
Q 300 1013 288 1472 
z
" transform="scale(0.015625)"/>
       <path id="ArialMT-70" d="M 422 -1272 
L 422 3319 
L 934 3319 
L 934 2888 
Q 1116 3141 1344 3267 
Q 1572 3394 1897 3394 
Q 2322 3394 2647 3175 
Q 2972 2956 3137 2557 
Q 3303 2159 3303 1684 
Q 3303 1175 3120 767 
Q 2938 359 2589 142 
Q 2241 -75 1856 -75 
Q 1575 -75 1351 44 
Q 1128 163 984 344 
L 984 -1272 
L 422 -1272 
z
M 931 1641 
Q 931 1000 1190 694 
Q 1450 388 1819 388 
Q 2194 388 2461 705 
Q 2728 1022 2728 1688 
Q 2728 2322 2467 2637 
Q 2206 2953 1844 2953 
Q 1484 2953 1207 2617 
Q 931 2281 931 1641 
z
" transform="scale(0.015625)"/>
       <path id="ArialMT-6b" d="M 425 0 
L 425 4581 
L 988 4581 
L 988 1969 
L 2319 3319 
L 3047 3319 
L 1778 2088 
L 3175 0 
L 2481 0 
L 1384 1697 
L 988 1316 
L 988 0 
L 425 0 
z
" transform="scale(0.015625)"/>
      </defs>
      <use xlink:href="#ArialMT-57"/>
      <use xlink:href="#ArialMT-6f" x="92.634766"/>
      <use xlink:href="#ArialMT-72" x="148.25"/>
      <use xlink:href="#ArialMT-64" x="181.550781"/>
      <use xlink:href="#ArialMT-73" x="237.166016"/>
      <use xlink:href="#ArialMT-20" x="287.166016"/>
      <use xlink:href="#ArialMT-53" x="314.949219"/>
      <use xlink:href="#ArialMT-70" x="381.648438"/>
      <use xlink:href="#ArialMT-6f" x="437.263672"/>
      <use xlink:href="#ArialMT-6b" x="492.878906"/>
      <use xlink:href="#ArialMT-65" x="542.878906"/>
      <use xlink:href="#ArialMT-6e" x="598.494141"/>
     </g>
    </g>
   </g>
   <g id="line2d_24">
    <path d="M 79.840119 455.055767 
L 175.6722 455.055767 
L 175.6722 452.488309 
L 190.13742 452.488309 
L 190.13742 449.920851 
L 342.022229 449.920851 
L 342.022229 447.353393 
L 345.638534 447.353393 
L 345.638534 444.785935 
L 383.609736 444.785935 
L 383.609736 442.218477 
L 408.923871 442.218477 
L 408.923871 439.651019 
L 432.429853 439.651019 
L 432.429853 437.083561 
L 439.662463 437.083561 
L 439.662463 434.516103 
L 446.895073 434.516103 
L 446.895073 431.948645 
L 457.743988 431.948645 
L 457.743988 429.381187 
L 464.976598 429.381187 
L 464.976598 426.813729 
L 483.058123 426.813729 
L 483.058123 424.246271 
L 484.866275 424.246271 
L 484.866275 421.678813 
L 497.523343 421.678813 
L 497.523343 419.111355 
L 501.139648 419.111355 
L 501.139648 416.543897 
L 502.9478 416.543897 
L 502.9478 413.976439 
L 511.988563 413.976439 
L 511.988563 411.408981 
L 526.453783 411.408981 
L 526.453783 408.841523 
L 530.070088 408.841523 
L 530.070088 406.274065 
L 531.87824 406.274065 
L 531.87824 403.706607 
L 537.302698 403.706607 
L 537.302698 401.139149 
L 548.151612 401.139149 
L 548.151612 398.571691 
L 557.192375 398.571691 
L 557.192375 393.436775 
L 564.424985 393.436775 
L 564.424985 390.869317 
L 571.657595 390.869317 
L 571.657595 385.734401 
L 578.890205 385.734401 
L 578.890205 378.032026 
L 580.698357 378.032026 
L 580.698357 372.89711 
L 582.50651 372.89711 
L 582.50651 365.194736 
L 584.314662 365.194736 
L 584.314662 357.492362 
L 589.73912 357.492362 
L 589.73912 354.924904 
L 602.396187 354.924904 
L 602.396187 352.357446 
L 604.204339 352.357446 
L 604.204339 347.22253 
L 609.628797 347.22253 
L 609.628797 339.520156 
L 611.436949 339.520156 
L 611.436949 331.817782 
L 615.053254 331.817782 
L 615.053254 329.250324 
L 616.861407 329.250324 
L 616.861407 326.682866 
L 618.669559 326.682866 
L 618.669559 324.115408 
L 620.477712 324.115408 
L 620.477712 316.413034 
L 622.285864 316.413034 
L 622.285864 313.845576 
L 627.710322 313.845576 
L 627.710322 311.278118 
L 636.751084 311.278118 
L 636.751084 308.71066 
L 642.175542 308.71066 
L 642.175542 306.143202 
L 660.257067 306.143202 
L 660.257067 301.008286 
L 680.146744 301.008286 
L 680.146744 293.305912 
L 681.954896 293.305912 
L 681.954896 283.03608 
L 683.763049 283.03608 
L 683.763049 280.468622 
L 685.571201 280.468622 
L 685.571201 275.333706 
L 687.379354 275.333706 
L 687.379354 272.766248 
L 689.187506 272.766248 
L 689.187506 270.19879 
L 690.995659 270.19879 
L 690.995659 267.631332 
L 694.611964 267.631332 
L 694.611964 265.063874 
L 707.269031 265.063874 
L 707.269031 262.496416 
L 721.734251 262.496416 
L 721.734251 259.928958 
L 725.350556 259.928958 
L 725.350556 257.3615 
L 734.391318 257.3615 
L 734.391318 254.794042 
L 745.240233 254.794042 
L 745.240233 252.226583 
L 747.048386 252.226583 
L 747.048386 249.659125 
L 765.129911 249.659125 
L 765.129911 247.091667 
L 766.938063 247.091667 
L 766.938063 239.389293 
L 768.746216 239.389293 
L 768.746216 234.254377 
L 772.362521 234.254377 
L 772.362521 229.119461 
L 777.786978 229.119461 
L 777.786978 226.552003 
L 788.635893 226.552003 
L 788.635893 218.849629 
L 803.101113 218.849629 
L 803.101113 216.282171 
L 804.909265 216.282171 
L 804.909265 213.714713 
L 808.52557 213.714713 
L 808.52557 211.147255 
L 812.141875 211.147255 
L 812.141875 208.579797 
L 813.950028 208.579797 
L 813.950028 206.012339 
L 815.75818 206.012339 
L 815.75818 203.444881 
L 819.374485 203.444881 
L 819.374485 195.742507 
L 821.182638 195.742507 
L 821.182638 175.202843 
L 830.2234 175.202843 
L 830.2234 172.635385 
L 835.647858 172.635385 
L 835.647858 170.067927 
L 835.647858 170.067927 
" clip-path="url(#pc79292329e)" style="fill: none; stroke: #1f77b4; stroke-width: 2.5; stroke-linecap: round"/>
   </g>
   <g id="line2d_25">
    <path d="M 79.840119 455.055767 
L 338.405924 455.055767 
L 338.405924 452.488309 
L 376.377126 452.488309 
L 376.377126 449.920851 
L 399.883109 449.920851 
L 399.883109 447.353393 
L 439.662463 447.353393 
L 439.662463 444.785935 
L 448.703226 444.785935 
L 448.703226 442.218477 
L 452.319531 442.218477 
L 452.319531 439.651019 
L 468.592903 439.651019 
L 468.592903 437.083561 
L 495.71519 437.083561 
L 495.71519 434.516103 
L 502.9478 434.516103 
L 502.9478 431.948645 
L 510.18041 431.948645 
L 510.18041 429.381187 
L 519.221173 429.381187 
L 519.221173 421.678813 
L 521.029325 421.678813 
L 521.029325 419.111355 
L 528.261935 419.111355 
L 528.261935 416.543897 
L 535.494545 416.543897 
L 535.494545 413.976439 
L 540.919002 413.976439 
L 540.919002 411.408981 
L 542.727155 411.408981 
L 542.727155 408.841523 
L 546.34346 408.841523 
L 546.34346 406.274065 
L 548.151612 406.274065 
L 548.151612 403.706607 
L 555.384222 403.706607 
L 555.384222 401.139149 
L 557.192375 401.139149 
L 557.192375 398.571691 
L 564.424985 398.571691 
L 564.424985 396.004233 
L 571.657595 396.004233 
L 571.657595 390.869317 
L 582.50651 390.869317 
L 582.50651 388.301859 
L 584.314662 388.301859 
L 584.314662 385.734401 
L 591.547272 385.734401 
L 591.547272 383.166942 
L 593.355425 383.166942 
L 593.355425 380.599484 
L 598.779882 380.599484 
L 598.779882 378.032026 
L 602.396187 378.032026 
L 602.396187 375.464568 
L 611.436949 375.464568 
L 611.436949 372.89711 
L 622.285864 372.89711 
L 622.285864 370.329652 
L 627.710322 370.329652 
L 627.710322 367.762194 
L 631.326627 367.762194 
L 631.326627 362.627278 
L 636.751084 362.627278 
L 636.751084 360.05982 
L 638.559237 360.05982 
L 638.559237 357.492362 
L 645.791847 357.492362 
L 645.791847 349.789988 
L 651.216304 349.789988 
L 651.216304 347.22253 
L 656.640762 347.22253 
L 656.640762 344.655072 
L 660.257067 344.655072 
L 660.257067 342.087614 
L 678.338591 342.087614 
L 678.338591 339.520156 
L 683.763049 339.520156 
L 683.763049 336.952698 
L 689.187506 336.952698 
L 689.187506 334.38524 
L 690.995659 334.38524 
L 690.995659 331.817782 
L 698.228269 331.817782 
L 698.228269 321.54795 
L 700.036421 321.54795 
L 700.036421 313.845576 
L 703.652726 313.845576 
L 703.652726 311.278118 
L 707.269031 311.278118 
L 707.269031 308.71066 
L 710.885336 308.71066 
L 710.885336 298.440828 
L 712.693489 298.440828 
L 712.693489 295.87337 
L 714.501641 295.87337 
L 714.501641 293.305912 
L 719.926099 293.305912 
L 719.926099 285.603538 
L 721.734251 285.603538 
L 721.734251 277.901164 
L 723.542404 277.901164 
L 723.542404 272.766248 
L 725.350556 272.766248 
L 725.350556 267.631332 
L 727.158709 267.631332 
L 727.158709 265.063874 
L 728.966861 265.063874 
L 728.966861 259.928958 
L 738.007623 259.928958 
L 738.007623 257.3615 
L 739.815776 257.3615 
L 739.815776 254.794042 
L 741.623928 254.794042 
L 741.623928 252.226583 
L 743.432081 252.226583 
L 743.432081 249.659125 
L 745.240233 249.659125 
L 745.240233 244.524209 
L 748.856538 244.524209 
L 748.856538 241.956751 
L 750.664691 241.956751 
L 750.664691 239.389293 
L 752.472843 239.389293 
L 752.472843 231.686919 
L 754.280996 231.686919 
L 754.280996 223.984545 
L 756.089148 223.984545 
L 756.089148 218.849629 
L 759.705453 218.849629 
L 759.705453 213.714713 
L 761.513606 213.714713 
L 761.513606 198.309965 
L 763.321758 198.309965 
L 763.321758 193.175049 
L 765.129911 193.175049 
L 765.129911 188.040133 
L 766.938063 188.040133 
L 766.938063 175.202843 
L 770.554368 175.202843 
L 770.554368 167.500469 
L 772.362521 167.500469 
L 772.362521 164.933011 
L 774.170673 164.933011 
L 774.170673 159.798095 
L 775.978826 159.798095 
L 775.978826 152.095721 
L 779.595131 152.095721 
L 779.595131 149.528263 
L 781.403283 149.528263 
L 781.403283 128.988599 
L 783.211436 128.988599 
L 783.211436 126.421141 
L 785.019588 126.421141 
L 785.019588 123.853683 
L 786.827741 123.853683 
L 786.827741 121.286224 
L 803.101113 121.286224 
L 803.101113 116.151308 
L 806.717418 116.151308 
L 806.717418 98.179102 
L 813.950028 98.179102 
L 813.950028 95.611644 
L 815.75818 95.611644 
L 815.75818 93.044186 
L 819.374485 93.044186 
L 819.374485 90.476728 
L 822.99079 90.476728 
L 822.99079 87.90927 
L 824.798943 87.90927 
L 824.798943 80.206896 
L 826.607095 80.206896 
L 826.607095 72.504522 
L 830.2234 72.504522 
L 830.2234 67.369606 
L 832.031553 67.369606 
L 832.031553 64.802148 
L 835.647858 64.802148 
L 835.647858 51.964858 
L 835.647858 51.964858 
" clip-path="url(#pc79292329e)" style="fill: none; stroke: #ff7f0e; stroke-width: 2.5; stroke-linecap: round"/>
   </g>
   <g id="line2d_26">
    <path d="M 79.840119 455.055767 
L 535.494545 455.055767 
L 535.494545 452.488309 
L 578.890205 452.488309 
L 578.890205 449.920851 
L 833.839705 449.920851 
L 833.839705 447.353393 
L 833.839705 447.353393 
L 833.839705 444.785935 
L 833.839705 444.785935 
L 833.839705 442.218477 
L 835.647858 442.218477 
L 835.647858 442.218477 
" clip-path="url(#pc79292329e)" style="fill: none; stroke: #2ca02c; stroke-width: 2.5; stroke-linecap: round"/>
   </g>
   <g id="line2d_27">
    <path d="M 79.840119 455.055767 
L 79.840119 455.055767 
L 79.840119 452.488309 
L 85.264576 452.488309 
L 85.264576 449.920851 
L 175.6722 449.920851 
L 175.6722 447.353393 
L 231.724927 447.353393 
L 231.724927 444.785935 
L 257.039062 444.785935 
L 257.039062 442.218477 
L 267.887977 442.218477 
L 267.887977 439.651019 
L 454.127683 439.651019 
L 454.127683 437.083561 
L 602.396187 437.083561 
L 602.396187 434.516103 
L 835.647858 434.516103 
L 835.647858 434.516103 
" clip-path="url(#pc79292329e)" style="fill: none; stroke: #d62728; stroke-width: 2.5; stroke-linecap: round"/>
   </g>
   <g id="line2d_28">
    <path d="M 79.840119 455.055767 
L 360.103754 455.055767 
L 360.103754 452.488309 
L 379.993431 452.488309 
L 379.993431 449.920851 
L 379.993431 449.920851 
L 379.993431 447.353393 
L 457.743988 447.353393 
L 457.743988 444.785935 
L 484.866275 444.785935 
L 484.866275 442.218477 
L 535.494545 442.218477 
L 535.494545 439.651019 
L 571.657595 439.651019 
L 571.657595 437.083561 
L 571.657595 437.083561 
L 571.657595 434.516103 
L 596.97173 434.516103 
L 596.97173 431.948645 
L 620.477712 431.948645 
L 620.477712 429.381187 
L 636.751084 429.381187 
L 636.751084 426.813729 
L 636.751084 426.813729 
L 636.751084 424.246271 
L 645.791847 424.246271 
L 645.791847 421.678813 
L 835.647858 421.678813 
L 835.647858 421.678813 
" clip-path="url(#pc79292329e)" style="fill: none; stroke: #9467bd; stroke-width: 2.5; stroke-linecap: round"/>
   </g>
   <g id="patch_11">
    <path d="M 61.758594 475.210312 
L 61.758594 31.810312 
" style="fill: none; stroke: #262626; stroke-width: 0.8; stroke-linejoin: miter; stroke-linecap: square"/>
   </g>
   <g id="patch_12">
    <path d="M 857.345688 475.210312 
L 857.345688 31.810312 
" style="fill: none; stroke: #262626; stroke-width: 0.8; stroke-linejoin: miter; stroke-linecap: square"/>
   </g>
   <g id="patch_13">
    <path d="M 61.758594 475.210312 
L 857.345687 475.210312 
" style="fill: none; stroke: #262626; stroke-width: 0.8; stroke-linejoin: miter; stroke-linecap: square"/>
   </g>
   <g id="patch_14">
    <path d="M 61.758594 31.810312 
L 857.345687 31.810312 
" style="fill: none; stroke: #262626; stroke-width: 0.8; stroke-linejoin: miter; stroke-linecap: square"/>
   </g>
   <g id="text_27">
    <!-- Sebastian's Words -->
    <g style="fill: #262626" transform="translate(351.810578 25.810312)scale(0.26 -0.26)">
     <defs>
      <path id="ArialMT-62" d="M 941 0 
L 419 0 
L 419 4581 
L 981 4581 
L 981 2947 
Q 1338 3394 1891 3394 
Q 2197 3394 2470 3270 
Q 2744 3147 2920 2923 
Q 3097 2700 3197 2384 
Q 3297 2069 3297 1709 
Q 3297 856 2875 390 
Q 2453 -75 1863 -75 
Q 1275 -75 941 416 
L 941 0 
z
M 934 1684 
Q 934 1088 1097 822 
Q 1363 388 1816 388 
Q 2184 388 2453 708 
Q 2722 1028 2722 1663 
Q 2722 2313 2464 2622 
Q 2206 2931 1841 2931 
Q 1472 2931 1203 2611 
Q 934 2291 934 1684 
z
" transform="scale(0.015625)"/>
      <path id="ArialMT-69" d="M 425 3934 
L 425 4581 
L 988 4581 
L 988 3934 
L 425 3934 
z
M 425 0 
L 425 3319 
L 988 3319 
L 988 0 
L 425 0 
z
" transform="scale(0.015625)"/>
      <path id="ArialMT-27" d="M 425 2959 
L 281 3816 
L 281 4581 
L 922 4581 
L 922 3816 
L 772 2959 
L 425 2959 
z
" transform="scale(0.015625)"/>
     </defs>
     <use xlink:href="#ArialMT-53"/>
     <use xlink:href="#ArialMT-65" x="66.699219"/>
     <use xlink:href="#ArialMT-62" x="122.314453"/>
     <use xlink:href="#ArialMT-61" x="177.929688"/>
     <use xlink:href="#ArialMT-73" x="233.544922"/>
     <use xlink:href="#ArialMT-74" x="283.544922"/>
     <use xlink:href="#ArialMT-69" x="311.328125"/>
     <use xlink:href="#ArialMT-61" x="333.544922"/>
     <use xlink:href="#ArialMT-6e" x="389.160156"/>
     <use xlink:href="#ArialMT-27" x="444.775391"/>
     <use xlink:href="#ArialMT-73" x="463.867188"/>
     <use xlink:href="#ArialMT-20" x="513.867188"/>
     <use xlink:href="#ArialMT-57" x="541.650391"/>
     <use xlink:href="#ArialMT-6f" x="634.285156"/>
     <use xlink:href="#ArialMT-72" x="689.900391"/>
     <use xlink:href="#ArialMT-64" x="723.201172"/>
     <use xlink:href="#ArialMT-73" x="778.816406"/>
    </g>
   </g>
   <g id="legend_1">
    <g id="patch_15">
     <path d="M 74.358594 174.37875 
L 193.622656 174.37875 
Q 197.222656 174.37875 197.222656 170.77875 
L 197.222656 44.410312 
Q 197.222656 40.810312 193.622656 40.810312 
L 74.358594 40.810312 
Q 70.758594 40.810312 70.758594 44.410312 
L 70.758594 170.77875 
Q 70.758594 174.37875 74.358594 174.37875 
z
" style="fill: #ffffff; stroke: #000000; stroke-linejoin: miter"/>
    </g>
    <g id="text_28">
     <!-- Chinese -->
     <g style="fill: #1f77b4" transform="translate(77.958594 60.894375)scale(0.18 -0.18)">
      <defs>
       <path id="ArialMT-43" d="M 3763 1606 
L 4369 1453 
Q 4178 706 3683 314 
Q 3188 -78 2472 -78 
Q 1731 -78 1267 223 
Q 803 525 561 1097 
Q 319 1669 319 2325 
Q 319 3041 592 3573 
Q 866 4106 1370 4382 
Q 1875 4659 2481 4659 
Q 3169 4659 3637 4309 
Q 4106 3959 4291 3325 
L 3694 3184 
Q 3534 3684 3231 3912 
Q 2928 4141 2469 4141 
Q 1941 4141 1586 3887 
Q 1231 3634 1087 3207 
Q 944 2781 944 2328 
Q 944 1744 1114 1308 
Q 1284 872 1643 656 
Q 2003 441 2422 441 
Q 2931 441 3284 734 
Q 3638 1028 3763 1606 
z
" transform="scale(0.015625)"/>
      </defs>
      <use xlink:href="#ArialMT-43"/>
      <use xlink:href="#ArialMT-68" x="72.216797"/>
      <use xlink:href="#ArialMT-69" x="127.832031"/>
      <use xlink:href="#ArialMT-6e" x="150.048828"/>
      <use xlink:href="#ArialMT-65" x="205.664062"/>
      <use xlink:href="#ArialMT-73" x="261.279297"/>
      <use xlink:href="#ArialMT-65" x="311.279297"/>
     </g>
    </g>
    <g id="text_29">
     <!-- English -->
     <g style="fill: #ff7f0e" transform="translate(77.958594 86.355937)scale(0.18 -0.18)">
      <defs>
       <path id="ArialMT-45" d="M 506 0 
L 506 4581 
L 3819 4581 
L 3819 4041 
L 1113 4041 
L 1113 2638 
L 3647 2638 
L 3647 2100 
L 1113 2100 
L 1113 541 
L 3925 541 
L 3925 0 
L 506 0 
z
" transform="scale(0.015625)"/>
       <path id="ArialMT-6c" d="M 409 0 
L 409 4581 
L 972 4581 
L 972 0 
L 409 0 
z
" transform="scale(0.015625)"/>
      </defs>
      <use xlink:href="#ArialMT-45"/>
      <use xlink:href="#ArialMT-6e" x="66.699219"/>
      <use xlink:href="#ArialMT-67" x="122.314453"/>
      <use xlink:href="#ArialMT-6c" x="177.929688"/>
      <use xlink:href="#ArialMT-69" x="200.146484"/>
      <use xlink:href="#ArialMT-73" x="222.363281"/>
      <use xlink:href="#ArialMT-68" x="272.363281"/>
     </g>
    </g>
    <g id="text_30">
     <!-- Spanish -->
     <g style="fill: #2ca02c" transform="translate(77.958594 112.247812)scale(0.18 -0.18)">
      <use xlink:href="#ArialMT-53"/>
      <use xlink:href="#ArialMT-70" x="66.699219"/>
      <use xlink:href="#ArialMT-61" x="122.314453"/>
      <use xlink:href="#ArialMT-6e" x="177.929688"/>
      <use xlink:href="#ArialMT-69" x="233.544922"/>
      <use xlink:href="#ArialMT-73" x="255.761719"/>
      <use xlink:href="#ArialMT-68" x="305.761719"/>
     </g>
    </g>
    <g id="text_31">
     <!-- Sign -->
     <g style="fill: #d62728" transform="translate(77.958594 137.92875)scale(0.18 -0.18)">
      <use xlink:href="#ArialMT-53"/>
      <use xlink:href="#ArialMT-69" x="66.699219"/>
      <use xlink:href="#ArialMT-67" x="88.916016"/>
      <use xlink:href="#ArialMT-6e" x="144.53125"/>
     </g>
    </g>
    <g id="text_32">
     <!-- Animal Sound -->
     <g style="fill: #9467bd" transform="translate(77.958594 163.60125)scale(0.18 -0.18)">
      <defs>
       <path id="ArialMT-6d" d="M 422 0 
L 422 3319 
L 925 3319 
L 925 2853 
Q 1081 3097 1340 3245 
Q 1600 3394 1931 3394 
Q 2300 3394 2536 3241 
Q 2772 3088 2869 2813 
Q 3263 3394 3894 3394 
Q 4388 3394 4653 3120 
Q 4919 2847 4919 2278 
L 4919 0 
L 4359 0 
L 4359 2091 
Q 4359 2428 4304 2576 
Q 4250 2725 4106 2815 
Q 3963 2906 3769 2906 
Q 3419 2906 3187 2673 
Q 2956 2441 2956 1928 
L 2956 0 
L 2394 0 
L 2394 2156 
Q 2394 2531 2256 2718 
Q 2119 2906 1806 2906 
Q 1569 2906 1367 2781 
Q 1166 2656 1075 2415 
Q 984 2175 984 1722 
L 984 0 
L 422 0 
z
" transform="scale(0.015625)"/>
       <path id="ArialMT-75" d="M 2597 0 
L 2597 488 
Q 2209 -75 1544 -75 
Q 1250 -75 995 37 
Q 741 150 617 320 
Q 494 491 444 738 
Q 409 903 409 1263 
L 409 3319 
L 972 3319 
L 972 1478 
Q 972 1038 1006 884 
Q 1059 663 1231 536 
Q 1403 409 1656 409 
Q 1909 409 2131 539 
Q 2353 669 2445 892 
Q 2538 1116 2538 1541 
L 2538 3319 
L 3100 3319 
L 3100 0 
L 2597 0 
z
" transform="scale(0.015625)"/>
      </defs>
      <use xlink:href="#ArialMT-41"/>
      <use xlink:href="#ArialMT-6e" x="66.699219"/>
      <use xlink:href="#ArialMT-69" x="122.314453"/>
      <use xlink:href="#ArialMT-6d" x="144.53125"/>
      <use xlink:href="#ArialMT-61" x="227.832031"/>
      <use xlink:href="#ArialMT-6c" x="283.447266"/>
      <use xlink:href="#ArialMT-20" x="305.664062"/>
      <use xlink:href="#ArialMT-53" x="333.447266"/>
      <use xlink:href="#ArialMT-6f" x="400.146484"/>
      <use xlink:href="#ArialMT-75" x="455.761719"/>
      <use xlink:href="#ArialMT-6e" x="511.376953"/>
      <use xlink:href="#ArialMT-64" x="566.992188"/>
     </g>
    </g>
   </g>
  </g>
 </g>
 <defs>
  <clipPath id="pc79292329e">
   <rect x="61.758594" y="31.810312" width="795.587094" height="443.4"/>
  </clipPath>
 </defs>
</svg>
