<?xml version="1.0" encoding="utf-8" standalone="no"?>
<!DOCTYPE svg PUBLIC "-//W3C//DTD SVG 1.1//EN"
  "http://www.w3.org/Graphics/SVG/1.1/DTD/svg11.dtd">
<!-- Created with matplotlib (http://matplotlib.org/) -->
<svg height="517pt" version="1.1" viewBox="0 0 496 517" width="496pt" xmlns="http://www.w3.org/2000/svg" xmlns:xlink="http://www.w3.org/1999/xlink">
 <defs>
  <style type="text/css">
*{stroke-linecap:butt;stroke-linejoin:round;}
  </style>
 </defs>
 <g id="figure_1">
  <g id="patch_1">
   <path d="M 0 517.457812
L 496.365313 517.457812
L 496.365313 0
L 0 0
z
" style="fill:#ffffff;"/>
  </g>
  <g id="axes_1">
   <g id="patch_2">
    <path d="M 46.015313 478.98
L 489.165312 478.98
L 489.165312 28.08
L 46.015313 28.08
z
" style="fill:#ffffff;"/>
   </g>
   <g id="patch_3">
    <path clip-path="url(#pf7e842fe0c)" d="M 66.158494 478.98
L 110.921121 478.98
L 110.921121 439.666117
L 66.158494 439.666117
z
" style="fill:#d3d3d3;"/>
   </g>
   <g id="patch_4">
    <path clip-path="url(#pf7e842fe0c)" d="M 110.921121 478.98
L 155.683747 478.98
L 155.683747 364.062495
L 110.921121 364.062495
z
" style="fill:#d3d3d3;"/>
   </g>
   <g id="patch_5">
    <path clip-path="url(#pf7e842fe0c)" d="M 155.683747 478.98
L 200.446373 478.98
L 200.446373 234.024266
L 155.683747 234.024266
z
" style="fill:#d3d3d3;"/>
   </g>
   <g id="patch_6">
    <path clip-path="url(#pf7e842fe0c)" d="M 200.446373 478.98
L 245.208999 478.98
L 245.208999 110.034326
L 200.446373 110.034326
z
" style="fill:#d3d3d3;"/>
   </g>
   <g id="patch_7">
    <path clip-path="url(#pf7e842fe0c)" d="M 245.208999 478.98
L 289.971626 478.98
L 289.971626 49.551429
L 245.208999 49.551429
z
" style="fill:#d3d3d3;"/>
   </g>
   <g id="patch_8">
    <path clip-path="url(#pf7e842fe0c)" d="M 289.971626 478.98
L 334.734252 478.98
L 334.734252 110.034326
L 289.971626 110.034326
z
" style="fill:#d3d3d3;"/>
   </g>
   <g id="patch_9">
    <path clip-path="url(#pf7e842fe0c)" d="M 334.734252 478.98
L 379.496878 478.98
L 379.496878 234.024266
L 334.734252 234.024266
z
" style="fill:#d3d3d3;"/>
   </g>
   <g id="patch_10">
    <path clip-path="url(#pf7e842fe0c)" d="M 379.496878 478.98
L 424.259504 478.98
L 424.259504 364.062495
L 379.496878 364.062495
z
" style="fill:#d3d3d3;"/>
   </g>
   <g id="patch_11">
    <path clip-path="url(#pf7e842fe0c)" d="M 424.259504 478.98
L 469.022131 478.98
L 469.022131 439.666117
L 424.259504 439.666117
z
" style="fill:#d3d3d3;"/>
   </g>
   <g id="matplotlib.axis_1">
    <g id="xtick_1">
     <g id="line2d_1"/>
     <g id="text_1">
      <!-- −4 -->
      <defs>
       <path d="M 52.828125 31.203125
L 5.5625 31.203125
L 5.5625 39.40625
L 52.828125 39.40625
z
" id="ArialMT-2212"/>
       <path d="M 32.328125 0
L 32.328125 17.140625
L 1.265625 17.140625
L 1.265625 25.203125
L 33.9375 71.578125
L 41.109375 71.578125
L 41.109375 25.203125
L 50.78125 25.203125
L 50.78125 17.140625
L 41.109375 17.140625
L 41.109375 0
z
M 32.328125 25.203125
L 32.328125 57.46875
L 9.90625 25.203125
z
" id="ArialMT-34"/>
      </defs>
      <g style="fill:#262626;" transform="translate(82.839026 489.637812)scale(0.1 -0.1)">
       <use xlink:href="#ArialMT-2212"/>
       <use x="58.398438" xlink:href="#ArialMT-34"/>
      </g>
     </g>
    </g>
    <g id="xtick_2">
     <g id="line2d_2"/>
     <g id="text_2">
      <!-- −2 -->
      <defs>
       <path d="M 50.34375 8.453125
L 50.34375 0
L 3.03125 0
Q 2.9375 3.171875 4.046875 6.109375
Q 5.859375 10.9375 9.828125 15.625
Q 13.8125 20.3125 21.34375 26.46875
Q 33.015625 36.03125 37.109375 41.625
Q 41.21875 47.21875 41.21875 52.203125
Q 41.21875 57.421875 37.46875 61
Q 33.734375 64.59375 27.734375 64.59375
Q 21.390625 64.59375 17.578125 60.78125
Q 13.765625 56.984375 13.71875 50.25
L 4.6875 51.171875
Q 5.609375 61.28125 11.65625 66.578125
Q 17.71875 71.875 27.9375 71.875
Q 38.234375 71.875 44.234375 66.15625
Q 50.25 60.453125 50.25 52
Q 50.25 47.703125 48.484375 43.546875
Q 46.734375 39.40625 42.65625 34.8125
Q 38.578125 30.21875 29.109375 22.21875
Q 21.1875 15.578125 18.9375 13.203125
Q 16.703125 10.84375 15.234375 8.453125
z
" id="ArialMT-32"/>
      </defs>
      <g style="fill:#262626;" transform="translate(172.364279 489.637812)scale(0.1 -0.1)">
       <use xlink:href="#ArialMT-2212"/>
       <use x="58.398438" xlink:href="#ArialMT-32"/>
      </g>
     </g>
    </g>
    <g id="xtick_3">
     <g id="line2d_3"/>
     <g id="text_3">
      <!-- 0 -->
      <defs>
       <path d="M 4.15625 35.296875
Q 4.15625 48 6.765625 55.734375
Q 9.375 63.484375 14.515625 67.671875
Q 19.671875 71.875 27.484375 71.875
Q 33.25 71.875 37.59375 69.546875
Q 41.9375 67.234375 44.765625 62.859375
Q 47.609375 58.5 49.21875 52.21875
Q 50.828125 45.953125 50.828125 35.296875
Q 50.828125 22.703125 48.234375 14.96875
Q 45.65625 7.234375 40.5 3
Q 35.359375 -1.21875 27.484375 -1.21875
Q 17.140625 -1.21875 11.234375 6.203125
Q 4.15625 15.140625 4.15625 35.296875
z
M 13.1875 35.296875
Q 13.1875 17.671875 17.3125 11.828125
Q 21.4375 6 27.484375 6
Q 33.546875 6 37.671875 11.859375
Q 41.796875 17.71875 41.796875 35.296875
Q 41.796875 52.984375 37.671875 58.78125
Q 33.546875 64.59375 27.390625 64.59375
Q 21.34375 64.59375 17.71875 59.46875
Q 13.1875 52.9375 13.1875 35.296875
z
" id="ArialMT-30"/>
      </defs>
      <g style="fill:#262626;" transform="translate(264.809844 489.637812)scale(0.1 -0.1)">
       <use xlink:href="#ArialMT-30"/>
      </g>
     </g>
    </g>
    <g id="xtick_4">
     <g id="line2d_4"/>
     <g id="text_4">
      <!-- 2 -->
      <g style="fill:#262626;" transform="translate(354.335096 489.637812)scale(0.1 -0.1)">
       <use xlink:href="#ArialMT-32"/>
      </g>
     </g>
    </g>
    <g id="xtick_5">
     <g id="line2d_5"/>
     <g id="text_5">
      <!-- 4 -->
      <g style="fill:#262626;" transform="translate(443.860349 489.637812)scale(0.1 -0.1)">
       <use xlink:href="#ArialMT-34"/>
      </g>
     </g>
    </g>
    <g id="text_6">
     <!-- 4dF Result -->
     <defs>
      <path d="M 40.234375 0
L 40.234375 6.546875
Q 35.296875 -1.171875 25.734375 -1.171875
Q 19.53125 -1.171875 14.328125 2.25
Q 9.125 5.671875 6.265625 11.796875
Q 3.421875 17.921875 3.421875 25.875
Q 3.421875 33.640625 6 39.96875
Q 8.59375 46.296875 13.765625 49.65625
Q 18.953125 53.03125 25.34375 53.03125
Q 30.03125 53.03125 33.6875 51.046875
Q 37.359375 49.078125 39.65625 45.90625
L 39.65625 71.578125
L 48.390625 71.578125
L 48.390625 0
z
M 12.453125 25.875
Q 12.453125 15.921875 16.640625 10.984375
Q 20.84375 6.0625 26.5625 6.0625
Q 32.328125 6.0625 36.34375 10.765625
Q 40.375 15.484375 40.375 25.140625
Q 40.375 35.796875 36.265625 40.765625
Q 32.171875 45.75 26.171875 45.75
Q 20.3125 45.75 16.375 40.96875
Q 12.453125 36.1875 12.453125 25.875
z
" id="ArialMT-64"/>
      <path d="M 8.203125 0
L 8.203125 71.578125
L 56.5 71.578125
L 56.5 63.140625
L 17.671875 63.140625
L 17.671875 40.96875
L 51.265625 40.96875
L 51.265625 32.515625
L 17.671875 32.515625
L 17.671875 0
z
" id="ArialMT-46"/>
      <path id="ArialMT-20"/>
      <path d="M 7.859375 0
L 7.859375 71.578125
L 39.59375 71.578125
Q 49.171875 71.578125 54.140625 69.640625
Q 59.125 67.71875 62.109375 62.828125
Q 65.09375 57.953125 65.09375 52.046875
Q 65.09375 44.4375 60.15625 39.203125
Q 55.21875 33.984375 44.921875 32.5625
Q 48.6875 30.765625 50.640625 29
Q 54.78125 25.203125 58.5 19.484375
L 70.953125 0
L 59.03125 0
L 49.5625 14.890625
Q 45.40625 21.34375 42.71875 24.75
Q 40.046875 28.171875 37.921875 29.53125
Q 35.796875 30.90625 33.59375 31.453125
Q 31.984375 31.78125 28.328125 31.78125
L 17.328125 31.78125
L 17.328125 0
z
M 17.328125 39.984375
L 37.703125 39.984375
Q 44.1875 39.984375 47.84375 41.328125
Q 51.515625 42.671875 53.421875 45.625
Q 55.328125 48.578125 55.328125 52.046875
Q 55.328125 57.125 51.640625 60.390625
Q 47.953125 63.671875 39.984375 63.671875
L 17.328125 63.671875
z
" id="ArialMT-52"/>
      <path d="M 42.09375 16.703125
L 51.171875 15.578125
Q 49.03125 7.625 43.21875 3.21875
Q 37.40625 -1.171875 28.375 -1.171875
Q 17 -1.171875 10.328125 5.828125
Q 3.65625 12.84375 3.65625 25.484375
Q 3.65625 38.578125 10.390625 45.796875
Q 17.140625 53.03125 27.875 53.03125
Q 38.28125 53.03125 44.875 45.953125
Q 51.46875 38.875 51.46875 26.03125
Q 51.46875 25.25 51.421875 23.6875
L 12.75 23.6875
Q 13.234375 15.140625 17.578125 10.59375
Q 21.921875 6.0625 28.421875 6.0625
Q 33.25 6.0625 36.671875 8.59375
Q 40.09375 11.140625 42.09375 16.703125
z
M 13.234375 30.90625
L 42.1875 30.90625
Q 41.609375 37.453125 38.875 40.71875
Q 34.671875 45.796875 27.984375 45.796875
Q 21.921875 45.796875 17.796875 41.75
Q 13.671875 37.703125 13.234375 30.90625
z
" id="ArialMT-65"/>
      <path d="M 3.078125 15.484375
L 11.765625 16.84375
Q 12.5 11.625 15.84375 8.84375
Q 19.1875 6.0625 25.203125 6.0625
Q 31.25 6.0625 34.171875 8.515625
Q 37.109375 10.984375 37.109375 14.3125
Q 37.109375 17.28125 34.515625 19
Q 32.71875 20.171875 25.53125 21.96875
Q 15.875 24.421875 12.140625 26.203125
Q 8.40625 27.984375 6.46875 31.125
Q 4.546875 34.28125 4.546875 38.09375
Q 4.546875 41.546875 6.125 44.5
Q 7.71875 47.46875 10.453125 49.421875
Q 12.5 50.921875 16.03125 51.96875
Q 19.578125 53.03125 23.640625 53.03125
Q 29.734375 53.03125 34.34375 51.265625
Q 38.96875 49.515625 41.15625 46.5
Q 43.359375 43.5 44.1875 38.484375
L 35.59375 37.3125
Q 35.015625 41.3125 32.203125 43.546875
Q 29.390625 45.796875 24.265625 45.796875
Q 18.21875 45.796875 15.625 43.796875
Q 13.03125 41.796875 13.03125 39.109375
Q 13.03125 37.40625 14.109375 36.03125
Q 15.1875 34.625 17.484375 33.6875
Q 18.796875 33.203125 25.25 31.453125
Q 34.578125 28.953125 38.25 27.359375
Q 41.9375 25.78125 44.03125 22.75
Q 46.140625 19.734375 46.140625 15.234375
Q 46.140625 10.84375 43.578125 6.953125
Q 41.015625 3.078125 36.171875 0.953125
Q 31.34375 -1.171875 25.25 -1.171875
Q 15.140625 -1.171875 9.84375 3.03125
Q 4.546875 7.234375 3.078125 15.484375
z
" id="ArialMT-73"/>
      <path d="M 40.578125 0
L 40.578125 7.625
Q 34.515625 -1.171875 24.125 -1.171875
Q 19.53125 -1.171875 15.546875 0.578125
Q 11.578125 2.34375 9.640625 5
Q 7.71875 7.671875 6.9375 11.53125
Q 6.390625 14.109375 6.390625 19.734375
L 6.390625 51.859375
L 15.1875 51.859375
L 15.1875 23.09375
Q 15.1875 16.21875 15.71875 13.8125
Q 16.546875 10.359375 19.234375 8.375
Q 21.921875 6.390625 25.875 6.390625
Q 29.828125 6.390625 33.296875 8.421875
Q 36.765625 10.453125 38.203125 13.9375
Q 39.65625 17.4375 39.65625 24.078125
L 39.65625 51.859375
L 48.4375 51.859375
L 48.4375 0
z
" id="ArialMT-75"/>
      <path d="M 6.390625 0
L 6.390625 71.578125
L 15.1875 71.578125
L 15.1875 0
z
" id="ArialMT-6c"/>
      <path d="M 25.78125 7.859375
L 27.046875 0.09375
Q 23.34375 -0.6875 20.40625 -0.6875
Q 15.625 -0.6875 12.984375 0.828125
Q 10.359375 2.34375 9.28125 4.8125
Q 8.203125 7.28125 8.203125 15.1875
L 8.203125 45.015625
L 1.765625 45.015625
L 1.765625 51.859375
L 8.203125 51.859375
L 8.203125 64.703125
L 16.9375 69.96875
L 16.9375 51.859375
L 25.78125 51.859375
L 25.78125 45.015625
L 16.9375 45.015625
L 16.9375 14.703125
Q 16.9375 10.9375 17.40625 9.859375
Q 17.875 8.796875 18.921875 8.15625
Q 19.96875 7.515625 21.921875 7.515625
Q 23.390625 7.515625 25.78125 7.859375
z
" id="ArialMT-74"/>
     </defs>
     <g style="fill:#262626;" transform="translate(228.909062 507.077812)scale(0.16 -0.16)">
      <use xlink:href="#ArialMT-34"/>
      <use x="55.615234" xlink:href="#ArialMT-64"/>
      <use x="111.230469" xlink:href="#ArialMT-46"/>
      <use x="172.314453" xlink:href="#ArialMT-20"/>
      <use x="200.097656" xlink:href="#ArialMT-52"/>
      <use x="272.314453" xlink:href="#ArialMT-65"/>
      <use x="327.929688" xlink:href="#ArialMT-73"/>
      <use x="377.929688" xlink:href="#ArialMT-75"/>
      <use x="433.544922" xlink:href="#ArialMT-6c"/>
      <use x="455.761719" xlink:href="#ArialMT-74"/>
     </g>
    </g>
   </g>
   <g id="matplotlib.axis_2">
    <g id="ytick_1">
     <g id="line2d_6"/>
     <g id="text_7">
      <!-- 0 -->
      <g style="fill:#262626;" transform="translate(36.954375 482.558906)scale(0.1 -0.1)">
       <use xlink:href="#ArialMT-30"/>
      </g>
     </g>
    </g>
    <g id="ytick_2">
     <g id="line2d_7"/>
     <g id="text_8">
      <!-- 20 -->
      <g style="fill:#262626;" transform="translate(31.393438 422.076009)scale(0.1 -0.1)">
       <use xlink:href="#ArialMT-32"/>
       <use x="55.615234" xlink:href="#ArialMT-30"/>
      </g>
     </g>
    </g>
    <g id="ytick_3">
     <g id="line2d_8"/>
     <g id="text_9">
      <!-- 40 -->
      <g style="fill:#262626;" transform="translate(31.393438 361.593111)scale(0.1 -0.1)">
       <use xlink:href="#ArialMT-34"/>
       <use x="55.615234" xlink:href="#ArialMT-30"/>
      </g>
     </g>
    </g>
    <g id="ytick_4">
     <g id="line2d_9"/>
     <g id="text_10">
      <!-- 60 -->
      <defs>
       <path d="M 49.75 54.046875
L 41.015625 53.375
Q 39.84375 58.546875 37.703125 60.890625
Q 34.125 64.65625 28.90625 64.65625
Q 24.703125 64.65625 21.53125 62.3125
Q 17.390625 59.28125 14.984375 53.46875
Q 12.59375 47.65625 12.5 36.921875
Q 15.671875 41.75 20.265625 44.09375
Q 24.859375 46.4375 29.890625 46.4375
Q 38.671875 46.4375 44.84375 39.96875
Q 51.03125 33.5 51.03125 23.25
Q 51.03125 16.5 48.125 10.71875
Q 45.21875 4.9375 40.140625 1.859375
Q 35.0625 -1.21875 28.609375 -1.21875
Q 17.625 -1.21875 10.6875 6.859375
Q 3.765625 14.9375 3.765625 33.5
Q 3.765625 54.25 11.421875 63.671875
Q 18.109375 71.875 29.4375 71.875
Q 37.890625 71.875 43.28125 67.140625
Q 48.6875 62.40625 49.75 54.046875
z
M 13.875 23.1875
Q 13.875 18.65625 15.796875 14.5
Q 17.71875 10.359375 21.1875 8.171875
Q 24.65625 6 28.46875 6
Q 34.03125 6 38.03125 10.484375
Q 42.046875 14.984375 42.046875 22.703125
Q 42.046875 30.125 38.078125 34.390625
Q 34.125 38.671875 28.125 38.671875
Q 22.171875 38.671875 18.015625 34.390625
Q 13.875 30.125 13.875 23.1875
z
" id="ArialMT-36"/>
      </defs>
      <g style="fill:#262626;" transform="translate(31.393438 301.110214)scale(0.1 -0.1)">
       <use xlink:href="#ArialMT-36"/>
       <use x="55.615234" xlink:href="#ArialMT-30"/>
      </g>
     </g>
    </g>
    <g id="ytick_5">
     <g id="line2d_10"/>
     <g id="text_11">
      <!-- 80 -->
      <defs>
       <path d="M 17.671875 38.8125
Q 12.203125 40.828125 9.5625 44.53125
Q 6.9375 48.25 6.9375 53.421875
Q 6.9375 61.234375 12.546875 66.546875
Q 18.171875 71.875 27.484375 71.875
Q 36.859375 71.875 42.578125 66.421875
Q 48.296875 60.984375 48.296875 53.171875
Q 48.296875 48.1875 45.671875 44.5
Q 43.0625 40.828125 37.75 38.8125
Q 44.34375 36.671875 47.78125 31.875
Q 51.21875 27.09375 51.21875 20.453125
Q 51.21875 11.28125 44.71875 5.03125
Q 38.234375 -1.21875 27.640625 -1.21875
Q 17.046875 -1.21875 10.546875 5.046875
Q 4.046875 11.328125 4.046875 20.703125
Q 4.046875 27.6875 7.59375 32.390625
Q 11.140625 37.109375 17.671875 38.8125
z
M 15.921875 53.71875
Q 15.921875 48.640625 19.1875 45.40625
Q 22.46875 42.1875 27.6875 42.1875
Q 32.765625 42.1875 36.015625 45.375
Q 39.265625 48.578125 39.265625 53.21875
Q 39.265625 58.0625 35.90625 61.359375
Q 32.5625 64.65625 27.59375 64.65625
Q 22.5625 64.65625 19.234375 61.421875
Q 15.921875 58.203125 15.921875 53.71875
z
M 13.09375 20.65625
Q 13.09375 16.890625 14.875 13.375
Q 16.65625 9.859375 20.171875 7.921875
Q 23.6875 6 27.734375 6
Q 34.03125 6 38.125 10.046875
Q 42.234375 14.109375 42.234375 20.359375
Q 42.234375 26.703125 38.015625 30.859375
Q 33.796875 35.015625 27.4375 35.015625
Q 21.234375 35.015625 17.15625 30.90625
Q 13.09375 26.8125 13.09375 20.65625
z
" id="ArialMT-38"/>
      </defs>
      <g style="fill:#262626;" transform="translate(31.393438 240.627317)scale(0.1 -0.1)">
       <use xlink:href="#ArialMT-38"/>
       <use x="55.615234" xlink:href="#ArialMT-30"/>
      </g>
     </g>
    </g>
    <g id="ytick_6">
     <g id="line2d_11"/>
     <g id="text_12">
      <!-- 100 -->
      <defs>
       <path d="M 37.25 0
L 28.46875 0
L 28.46875 56
Q 25.296875 52.984375 20.140625 49.953125
Q 14.984375 46.921875 10.890625 45.40625
L 10.890625 53.90625
Q 18.265625 57.375 23.78125 62.296875
Q 29.296875 67.234375 31.59375 71.875
L 37.25 71.875
z
" id="ArialMT-31"/>
      </defs>
      <g style="fill:#262626;" transform="translate(25.8325 180.144419)scale(0.1 -0.1)">
       <use xlink:href="#ArialMT-31"/>
       <use x="55.615234" xlink:href="#ArialMT-30"/>
       <use x="111.230469" xlink:href="#ArialMT-30"/>
      </g>
     </g>
    </g>
    <g id="ytick_7">
     <g id="line2d_12"/>
     <g id="text_13">
      <!-- 120 -->
      <g style="fill:#262626;" transform="translate(25.8325 119.661522)scale(0.1 -0.1)">
       <use xlink:href="#ArialMT-31"/>
       <use x="55.615234" xlink:href="#ArialMT-32"/>
       <use x="111.230469" xlink:href="#ArialMT-30"/>
      </g>
     </g>
    </g>
    <g id="ytick_8">
     <g id="line2d_13"/>
     <g id="text_14">
      <!-- 140 -->
      <g style="fill:#262626;" transform="translate(25.8325 59.178625)scale(0.1 -0.1)">
       <use xlink:href="#ArialMT-31"/>
       <use x="55.615234" xlink:href="#ArialMT-34"/>
       <use x="111.230469" xlink:href="#ArialMT-30"/>
      </g>
     </g>
    </g>
    <g id="text_15">
     <!-- Count -->
     <defs>
      <path d="M 58.796875 25.09375
L 68.265625 22.703125
Q 65.28125 11.03125 57.546875 4.90625
Q 49.8125 -1.21875 38.625 -1.21875
Q 27.046875 -1.21875 19.796875 3.484375
Q 12.546875 8.203125 8.765625 17.140625
Q 4.984375 26.078125 4.984375 36.328125
Q 4.984375 47.515625 9.25 55.828125
Q 13.53125 64.15625 21.40625 68.46875
Q 29.296875 72.796875 38.765625 72.796875
Q 49.515625 72.796875 56.828125 67.328125
Q 64.15625 61.859375 67.046875 51.953125
L 57.71875 49.75
Q 55.21875 57.5625 50.484375 61.125
Q 45.75 64.703125 38.578125 64.703125
Q 30.328125 64.703125 24.78125 60.734375
Q 19.234375 56.78125 16.984375 50.109375
Q 14.75 43.453125 14.75 36.375
Q 14.75 27.25 17.40625 20.4375
Q 20.0625 13.625 25.671875 10.25
Q 31.296875 6.890625 37.84375 6.890625
Q 45.796875 6.890625 51.3125 11.46875
Q 56.84375 16.0625 58.796875 25.09375
z
" id="ArialMT-43"/>
      <path d="M 3.328125 25.921875
Q 3.328125 40.328125 11.328125 47.265625
Q 18.015625 53.03125 27.640625 53.03125
Q 38.328125 53.03125 45.109375 46.015625
Q 51.90625 39.015625 51.90625 26.65625
Q 51.90625 16.65625 48.90625 10.90625
Q 45.90625 5.171875 40.15625 2
Q 34.421875 -1.171875 27.640625 -1.171875
Q 16.75 -1.171875 10.03125 5.8125
Q 3.328125 12.796875 3.328125 25.921875
z
M 12.359375 25.921875
Q 12.359375 15.96875 16.703125 11.015625
Q 21.046875 6.0625 27.640625 6.0625
Q 34.1875 6.0625 38.53125 11.03125
Q 42.875 16.015625 42.875 26.21875
Q 42.875 35.84375 38.5 40.796875
Q 34.125 45.75 27.640625 45.75
Q 21.046875 45.75 16.703125 40.8125
Q 12.359375 35.890625 12.359375 25.921875
z
" id="ArialMT-6f"/>
      <path d="M 6.59375 0
L 6.59375 51.859375
L 14.5 51.859375
L 14.5 44.484375
Q 20.21875 53.03125 31 53.03125
Q 35.6875 53.03125 39.625 51.34375
Q 43.5625 49.65625 45.515625 46.921875
Q 47.46875 44.1875 48.25 40.4375
Q 48.734375 37.984375 48.734375 31.890625
L 48.734375 0
L 39.9375 0
L 39.9375 31.546875
Q 39.9375 36.921875 38.90625 39.578125
Q 37.890625 42.234375 35.28125 43.8125
Q 32.671875 45.40625 29.15625 45.40625
Q 23.53125 45.40625 19.453125 41.84375
Q 15.375 38.28125 15.375 28.328125
L 15.375 0
z
" id="ArialMT-6e"/>
     </defs>
     <g style="fill:#262626;" transform="translate(18.6525 274.87625)rotate(-90)scale(0.16 -0.16)">
      <use xlink:href="#ArialMT-43"/>
      <use x="72.216797" xlink:href="#ArialMT-6f"/>
      <use x="127.832031" xlink:href="#ArialMT-75"/>
      <use x="183.447266" xlink:href="#ArialMT-6e"/>
      <use x="239.0625" xlink:href="#ArialMT-74"/>
     </g>
    </g>
   </g>
   <g id="patch_12">
    <path clip-path="url(#pf7e842fe0c)" d="M 66.158494 478.98
L 110.921121 478.98
L 110.921121 475.955855
L 66.158494 475.955855
z
" style="fill:#ffffff;"/>
   </g>
   <g id="patch_13">
    <path clip-path="url(#pf7e842fe0c)" d="M 110.921121 478.98
L 155.683747 478.98
L 155.683747 439.666117
L 110.921121 439.666117
z
" style="fill:#ffffff;"/>
   </g>
   <g id="patch_14">
    <path clip-path="url(#pf7e842fe0c)" d="M 155.683747 478.98
L 200.446373 478.98
L 200.446373 345.917626
L 155.683747 345.917626
z
" style="fill:#ffffff;"/>
   </g>
   <g id="patch_15">
    <path clip-path="url(#pf7e842fe0c)" d="M 200.446373 478.98
L 245.208999 478.98
L 245.208999 249.14499
L 200.446373 249.14499
z
" style="fill:#ffffff;"/>
   </g>
   <g id="patch_16">
    <path clip-path="url(#pf7e842fe0c)" d="M 245.208999 478.98
L 289.971626 478.98
L 289.971626 197.734527
L 245.208999 197.734527
z
" style="fill:#ffffff;"/>
   </g>
   <g id="patch_17">
    <path clip-path="url(#pf7e842fe0c)" d="M 289.971626 478.98
L 334.734252 478.98
L 334.734252 249.14499
L 289.971626 249.14499
z
" style="fill:#ffffff;"/>
   </g>
   <g id="patch_18">
    <path clip-path="url(#pf7e842fe0c)" d="M 334.734252 478.98
L 379.496878 478.98
L 379.496878 345.917626
L 334.734252 345.917626
z
" style="fill:#ffffff;"/>
   </g>
   <g id="patch_19">
    <path clip-path="url(#pf7e842fe0c)" d="M 379.496878 478.98
L 424.259504 478.98
L 424.259504 439.666117
L 379.496878 439.666117
z
" style="fill:#ffffff;"/>
   </g>
   <g id="patch_20">
    <path clip-path="url(#pf7e842fe0c)" d="M 424.259504 478.98
L 469.022131 478.98
L 469.022131 475.955855
L 424.259504 475.955855
z
" style="fill:#ffffff;"/>
   </g>
   <g id="PathCollection_1">
    <defs>
     <path d="M 0 5
C 1.326016 5 2.597899 4.473168 3.535534 3.535534
C 4.473168 2.597899 5 1.326016 5 0
C 5 -1.326016 4.473168 -2.597899 3.535534 -3.535534
C 2.597899 -4.473168 1.326016 -5 0 -5
C -1.326016 -5 -2.597899 -4.473168 -3.535534 -3.535534
C -4.473168 -2.597899 -5 -1.326016 -5 0
C -5 1.326016 -4.473168 2.597899 -3.535534 3.535534
C -2.597899 4.473168 -1.326016 5 0 5
z
" id="mff9e0e4f8d" style="stroke:#377eb8;"/>
    </defs>
    <g clip-path="url(#pf7e842fe0c)">
     <use style="fill:#377eb8;stroke:#377eb8;" x="88.539807" xlink:href="#mff9e0e4f8d" y="466.883421"/>
     <use style="fill:#377eb8;stroke:#377eb8;" x="133.302434" xlink:href="#mff9e0e4f8d" y="403.376378"/>
     <use style="fill:#377eb8;stroke:#377eb8;" x="178.06506" xlink:href="#mff9e0e4f8d" y="279.386439"/>
     <use style="fill:#377eb8;stroke:#377eb8;" x="222.827686" xlink:href="#mff9e0e4f8d" y="140.275775"/>
     <use style="fill:#377eb8;stroke:#377eb8;" x="267.590312" xlink:href="#mff9e0e4f8d" y="152.372354"/>
     <use style="fill:#377eb8;stroke:#377eb8;" x="312.352939" xlink:href="#mff9e0e4f8d" y="185.637948"/>
     <use style="fill:#377eb8;stroke:#377eb8;" x="357.115565" xlink:href="#mff9e0e4f8d" y="315.676177"/>
     <use style="fill:#377eb8;stroke:#377eb8;" x="401.878191" xlink:href="#mff9e0e4f8d" y="403.376378"/>
     <use style="fill:#377eb8;stroke:#377eb8;" x="446.640818" xlink:href="#mff9e0e4f8d" y="451.762696"/>
    </g>
   </g>
   <g id="patch_21">
    <path d="M 46.015313 478.98
L 46.015313 28.08
" style="fill:none;stroke:#262626;stroke-linecap:square;stroke-linejoin:miter;stroke-width:1.25;"/>
   </g>
   <g id="patch_22">
    <path d="M 489.165312 478.98
L 489.165312 28.08
" style="fill:none;stroke:#262626;stroke-linecap:square;stroke-linejoin:miter;stroke-width:1.25;"/>
   </g>
   <g id="patch_23">
    <path d="M 46.015312 478.98
L 489.165313 478.98
" style="fill:none;stroke:#262626;stroke-linecap:square;stroke-linejoin:miter;stroke-width:1.25;"/>
   </g>
   <g id="patch_24">
    <path d="M 46.015312 28.08
L 489.165313 28.08
" style="fill:none;stroke:#262626;stroke-linecap:square;stroke-linejoin:miter;stroke-width:1.25;"/>
   </g>
   <g id="patch_25">
    <path d="M 208.054837 281.267307
Q 202.055717 281.211137 196.056597 281.154966
L 196.034126 283.554861
Q 192.050996 281.517479 188.067867 279.480096
Q 192.088447 277.517654 196.109028 275.555212
L 196.086557 277.955106
Q 202.085678 278.011277 208.084798 278.067448
L 208.054837 281.267307
z
" style="fill:#377eb8;stroke:#377eb8;stroke-linecap:round;"/>
   </g>
   <g id="text_16">
    <!-- Observed Count -->
    <defs>
     <path d="M 4.828125 34.859375
Q 4.828125 52.6875 14.390625 62.765625
Q 23.96875 72.859375 39.109375 72.859375
Q 49.03125 72.859375 56.984375 68.109375
Q 64.9375 63.375 69.109375 54.90625
Q 73.296875 46.4375 73.296875 35.6875
Q 73.296875 24.8125 68.890625 16.21875
Q 64.5 7.625 56.4375 3.203125
Q 48.390625 -1.21875 39.0625 -1.21875
Q 28.953125 -1.21875 20.984375 3.65625
Q 13.03125 8.546875 8.921875 16.984375
Q 4.828125 25.4375 4.828125 34.859375
z
M 14.59375 34.71875
Q 14.59375 21.78125 21.546875 14.328125
Q 28.515625 6.890625 39.015625 6.890625
Q 49.703125 6.890625 56.609375 14.40625
Q 63.53125 21.921875 63.53125 35.75
Q 63.53125 44.484375 60.578125 51
Q 57.625 57.515625 51.921875 61.109375
Q 46.234375 64.703125 39.15625 64.703125
Q 29.109375 64.703125 21.84375 57.78125
Q 14.59375 50.875 14.59375 34.71875
z
" id="ArialMT-4f"/>
     <path d="M 14.703125 0
L 6.546875 0
L 6.546875 71.578125
L 15.328125 71.578125
L 15.328125 46.046875
Q 20.90625 53.03125 29.546875 53.03125
Q 34.328125 53.03125 38.59375 51.09375
Q 42.875 49.171875 45.625 45.671875
Q 48.390625 42.1875 49.953125 37.25
Q 51.515625 32.328125 51.515625 26.703125
Q 51.515625 13.375 44.921875 6.09375
Q 38.328125 -1.171875 29.109375 -1.171875
Q 19.921875 -1.171875 14.703125 6.5
z
M 14.59375 26.3125
Q 14.59375 17 17.140625 12.84375
Q 21.296875 6.0625 28.375 6.0625
Q 34.125 6.0625 38.328125 11.0625
Q 42.53125 16.0625 42.53125 25.984375
Q 42.53125 36.140625 38.5 40.96875
Q 34.46875 45.796875 28.765625 45.796875
Q 23 45.796875 18.796875 40.796875
Q 14.59375 35.796875 14.59375 26.3125
z
" id="ArialMT-62"/>
     <path d="M 6.5 0
L 6.5 51.859375
L 14.40625 51.859375
L 14.40625 44
Q 17.4375 49.515625 20 51.265625
Q 22.5625 53.03125 25.640625 53.03125
Q 30.078125 53.03125 34.671875 50.203125
L 31.640625 42.046875
Q 28.421875 43.953125 25.203125 43.953125
Q 22.3125 43.953125 20.015625 42.21875
Q 17.71875 40.484375 16.75 37.40625
Q 15.28125 32.71875 15.28125 27.15625
L 15.28125 0
z
" id="ArialMT-72"/>
     <path d="M 21 0
L 1.265625 51.859375
L 10.546875 51.859375
L 21.6875 20.796875
Q 23.484375 15.765625 25 10.359375
Q 26.171875 14.453125 28.265625 20.21875
L 39.796875 51.859375
L 48.828125 51.859375
L 29.203125 0
z
" id="ArialMT-76"/>
    </defs>
    <g style="fill:#262626;" transform="translate(212.06506 284.386439)scale(0.16 -0.16)">
     <use xlink:href="#ArialMT-4f"/>
     <use x="77.783203" xlink:href="#ArialMT-62"/>
     <use x="133.398438" xlink:href="#ArialMT-73"/>
     <use x="183.398438" xlink:href="#ArialMT-65"/>
     <use x="239.013672" xlink:href="#ArialMT-72"/>
     <use x="272.314453" xlink:href="#ArialMT-76"/>
     <use x="322.314453" xlink:href="#ArialMT-65"/>
     <use x="377.929688" xlink:href="#ArialMT-64"/>
     <use x="433.544922" xlink:href="#ArialMT-20"/>
     <use x="461.328125" xlink:href="#ArialMT-43"/>
     <use x="533.544922" xlink:href="#ArialMT-6f"/>
     <use x="589.160156" xlink:href="#ArialMT-75"/>
     <use x="644.775391" xlink:href="#ArialMT-6e"/>
     <use x="700.390625" xlink:href="#ArialMT-74"/>
    </g>
   </g>
   <g id="text_17">
    <!-- $99\%$ Interval -->
    <defs>
     <path d="M 10.984375 1.515625
L 10.984375 10.5
Q 14.703125 8.734375 18.5 7.8125
Q 22.3125 6.890625 25.984375 6.890625
Q 35.75 6.890625 40.890625 13.453125
Q 46.046875 20.015625 46.78125 33.40625
Q 43.953125 29.203125 39.59375 26.953125
Q 35.25 24.703125 29.984375 24.703125
Q 19.046875 24.703125 12.671875 31.3125
Q 6.296875 37.9375 6.296875 49.421875
Q 6.296875 60.640625 12.9375 67.421875
Q 19.578125 74.21875 30.609375 74.21875
Q 43.265625 74.21875 49.921875 64.515625
Q 56.59375 54.828125 56.59375 36.375
Q 56.59375 19.140625 48.40625 8.859375
Q 40.234375 -1.421875 26.421875 -1.421875
Q 22.703125 -1.421875 18.890625 -0.6875
Q 15.09375 0.046875 10.984375 1.515625
z
M 30.609375 32.421875
Q 37.25 32.421875 41.125 36.953125
Q 45.015625 41.5 45.015625 49.421875
Q 45.015625 57.28125 41.125 61.84375
Q 37.25 66.40625 30.609375 66.40625
Q 23.96875 66.40625 20.09375 61.84375
Q 16.21875 57.28125 16.21875 49.421875
Q 16.21875 41.5 20.09375 36.953125
Q 23.96875 32.421875 30.609375 32.421875
z
" id="DejaVuSans-39"/>
     <path d="M 72.703125 32.078125
Q 68.453125 32.078125 66.03125 28.46875
Q 63.625 24.859375 63.625 18.40625
Q 63.625 12.0625 66.03125 8.421875
Q 68.453125 4.78125 72.703125 4.78125
Q 76.859375 4.78125 79.265625 8.421875
Q 81.6875 12.0625 81.6875 18.40625
Q 81.6875 24.8125 79.265625 28.4375
Q 76.859375 32.078125 72.703125 32.078125
z
M 72.703125 38.28125
Q 80.421875 38.28125 84.953125 32.90625
Q 89.5 27.546875 89.5 18.40625
Q 89.5 9.28125 84.9375 3.921875
Q 80.375 -1.421875 72.703125 -1.421875
Q 64.890625 -1.421875 60.34375 3.921875
Q 55.8125 9.28125 55.8125 18.40625
Q 55.8125 27.59375 60.375 32.9375
Q 64.9375 38.28125 72.703125 38.28125
z
M 22.3125 68.015625
Q 18.109375 68.015625 15.6875 64.375
Q 13.28125 60.75 13.28125 54.390625
Q 13.28125 47.953125 15.671875 44.328125
Q 18.0625 40.71875 22.3125 40.71875
Q 26.5625 40.71875 28.96875 44.328125
Q 31.390625 47.953125 31.390625 54.390625
Q 31.390625 60.6875 28.953125 64.34375
Q 26.515625 68.015625 22.3125 68.015625
z
M 66.40625 74.21875
L 74.21875 74.21875
L 28.609375 -1.421875
L 20.796875 -1.421875
z
M 22.3125 74.21875
Q 30.03125 74.21875 34.609375 68.875
Q 39.203125 63.53125 39.203125 54.390625
Q 39.203125 45.171875 34.640625 39.84375
Q 30.078125 34.515625 22.3125 34.515625
Q 14.546875 34.515625 10.03125 39.859375
Q 5.515625 45.21875 5.515625 54.390625
Q 5.515625 63.484375 10.046875 68.84375
Q 14.59375 74.21875 22.3125 74.21875
z
" id="DejaVuSans-25"/>
     <path d="M 9.328125 0
L 9.328125 71.578125
L 18.796875 71.578125
L 18.796875 0
z
" id="ArialMT-49"/>
     <path d="M 40.4375 6.390625
Q 35.546875 2.25 31.03125 0.53125
Q 26.515625 -1.171875 21.34375 -1.171875
Q 12.796875 -1.171875 8.203125 3
Q 3.609375 7.171875 3.609375 13.671875
Q 3.609375 17.484375 5.34375 20.625
Q 7.078125 23.78125 9.890625 25.6875
Q 12.703125 27.59375 16.21875 28.5625
Q 18.796875 29.25 24.03125 29.890625
Q 34.671875 31.15625 39.703125 32.90625
Q 39.75 34.71875 39.75 35.203125
Q 39.75 40.578125 37.25 42.78125
Q 33.890625 45.75 27.25 45.75
Q 21.046875 45.75 18.09375 43.578125
Q 15.140625 41.40625 13.71875 35.890625
L 5.125 37.0625
Q 6.296875 42.578125 8.984375 45.96875
Q 11.671875 49.359375 16.75 51.1875
Q 21.828125 53.03125 28.515625 53.03125
Q 35.15625 53.03125 39.296875 51.46875
Q 43.453125 49.90625 45.40625 47.53125
Q 47.359375 45.171875 48.140625 41.546875
Q 48.578125 39.3125 48.578125 33.453125
L 48.578125 21.734375
Q 48.578125 9.46875 49.140625 6.21875
Q 49.703125 2.984375 51.375 0
L 42.1875 0
Q 40.828125 2.734375 40.4375 6.390625
z
M 39.703125 26.03125
Q 34.90625 24.078125 25.34375 22.703125
Q 19.921875 21.921875 17.671875 20.9375
Q 15.4375 19.96875 14.203125 18.09375
Q 12.984375 16.21875 12.984375 13.921875
Q 12.984375 10.40625 15.640625 8.0625
Q 18.3125 5.71875 23.4375 5.71875
Q 28.515625 5.71875 32.46875 7.9375
Q 36.421875 10.15625 38.28125 14.015625
Q 39.703125 17 39.703125 22.796875
z
" id="ArialMT-61"/>
    </defs>
    <g style="fill:#262626;" transform="translate(182.541323 404.488483)scale(0.16 -0.16)">
     <use transform="translate(0 0.78125)" xlink:href="#DejaVuSans-39"/>
     <use transform="translate(63.623047 0.78125)" xlink:href="#DejaVuSans-39"/>
     <use transform="translate(127.246094 0.78125)" xlink:href="#DejaVuSans-25"/>
     <use transform="translate(222.265625 0.78125)" xlink:href="#ArialMT-20"/>
     <use transform="translate(250.048828 0.78125)" xlink:href="#ArialMT-49"/>
     <use transform="translate(277.832031 0.78125)" xlink:href="#ArialMT-6e"/>
     <use transform="translate(333.447266 0.78125)" xlink:href="#ArialMT-74"/>
     <use transform="translate(361.230469 0.78125)" xlink:href="#ArialMT-65"/>
     <use transform="translate(416.845703 0.78125)" xlink:href="#ArialMT-72"/>
     <use transform="translate(450.146484 0.78125)" xlink:href="#ArialMT-76"/>
     <use transform="translate(500.146484 0.78125)" xlink:href="#ArialMT-61"/>
     <use transform="translate(555.761719 0.78125)" xlink:href="#ArialMT-6c"/>
    </g>
   </g>
   <g id="patch_26">
    <path d="M 160.683885 436.641972
L 176.550346 436.641972
L 176.550346 367.08664
L 160.683885 367.08664
" style="fill:none;stroke:#377eb8;stroke-linecap:round;stroke-width:2.5;"/>
   </g>
   <g id="text_18">
    <!-- $n=500$ -->
    <defs>
     <path d="M 55.71875 33.015625
L 49.3125 0
L 40.28125 0
L 46.6875 32.671875
Q 47.125 34.96875 47.359375 36.71875
Q 47.609375 38.484375 47.609375 39.5
Q 47.609375 43.609375 45.015625 45.890625
Q 42.4375 48.1875 37.796875 48.1875
Q 30.5625 48.1875 25.34375 43.375
Q 20.125 38.578125 18.5 30.328125
L 12.5 0
L 3.515625 0
L 14.109375 54.6875
L 23.09375 54.6875
L 21.296875 46.09375
Q 25.046875 50.828125 30.3125 53.40625
Q 35.59375 56 41.40625 56
Q 48.640625 56 52.609375 52.09375
Q 56.59375 48.1875 56.59375 41.109375
Q 56.59375 39.359375 56.375 37.359375
Q 56.15625 35.359375 55.71875 33.015625
z
" id="DejaVuSans-Oblique-6e"/>
     <path d="M 10.59375 45.40625
L 73.1875 45.40625
L 73.1875 37.203125
L 10.59375 37.203125
z
M 10.59375 25.484375
L 73.1875 25.484375
L 73.1875 17.1875
L 10.59375 17.1875
z
" id="DejaVuSans-3d"/>
     <path d="M 10.796875 72.90625
L 49.515625 72.90625
L 49.515625 64.59375
L 19.828125 64.59375
L 19.828125 46.734375
Q 21.96875 47.46875 24.109375 47.828125
Q 26.265625 48.1875 28.421875 48.1875
Q 40.625 48.1875 47.75 41.5
Q 54.890625 34.8125 54.890625 23.390625
Q 54.890625 11.625 47.5625 5.09375
Q 40.234375 -1.421875 26.90625 -1.421875
Q 22.3125 -1.421875 17.546875 -0.640625
Q 12.796875 0.140625 7.71875 1.703125
L 7.71875 11.625
Q 12.109375 9.234375 16.796875 8.0625
Q 21.484375 6.890625 26.703125 6.890625
Q 35.15625 6.890625 40.078125 11.328125
Q 45.015625 15.765625 45.015625 23.390625
Q 45.015625 31 40.078125 35.4375
Q 35.15625 39.890625 26.703125 39.890625
Q 22.75 39.890625 18.8125 39.015625
Q 14.890625 38.140625 10.796875 36.28125
z
" id="DejaVuSans-35"/>
     <path d="M 31.78125 66.40625
Q 24.171875 66.40625 20.328125 58.90625
Q 16.5 51.421875 16.5 36.375
Q 16.5 21.390625 20.328125 13.890625
Q 24.171875 6.390625 31.78125 6.390625
Q 39.453125 6.390625 43.28125 13.890625
Q 47.125 21.390625 47.125 36.375
Q 47.125 51.421875 43.28125 58.90625
Q 39.453125 66.40625 31.78125 66.40625
z
M 31.78125 74.21875
Q 44.046875 74.21875 50.515625 64.515625
Q 56.984375 54.828125 56.984375 36.375
Q 56.984375 17.96875 50.515625 8.265625
Q 44.046875 -1.421875 31.78125 -1.421875
Q 19.53125 -1.421875 13.0625 8.265625
Q 6.59375 17.96875 6.59375 36.375
Q 6.59375 54.828125 13.0625 64.515625
Q 19.53125 74.21875 31.78125 74.21875
z
" id="DejaVuSans-30"/>
    </defs>
    <g style="fill:#262626;" transform="translate(410.830717 52.273159)scale(0.18 -0.18)">
     <use transform="translate(0 0.78125)" xlink:href="#DejaVuSans-Oblique-6e"/>
     <use transform="translate(82.861328 0.78125)" xlink:href="#DejaVuSans-3d"/>
     <use transform="translate(186.132812 0.78125)" xlink:href="#DejaVuSans-35"/>
     <use transform="translate(249.755859 0.78125)" xlink:href="#DejaVuSans-30"/>
     <use transform="translate(313.378906 0.78125)" xlink:href="#DejaVuSans-30"/>
    </g>
   </g>
  </g>
  <g id="text_19">
   <!-- Blue Fate Dice Rolls -->
   <defs>
    <path d="M 7.328125 0
L 7.328125 71.578125
L 34.1875 71.578125
Q 42.390625 71.578125 47.34375 69.40625
Q 52.296875 67.234375 55.09375 62.71875
Q 57.90625 58.203125 57.90625 53.265625
Q 57.90625 48.6875 55.421875 44.625
Q 52.9375 40.578125 47.90625 38.09375
Q 54.390625 36.1875 57.875 31.59375
Q 61.375 27 61.375 20.75
Q 61.375 15.71875 59.25 11.390625
Q 57.125 7.078125 54 4.734375
Q 50.875 2.390625 46.15625 1.1875
Q 41.453125 0 34.625 0
z
M 16.796875 41.5
L 32.28125 41.5
Q 38.578125 41.5 41.3125 42.328125
Q 44.921875 43.40625 46.75 45.890625
Q 48.578125 48.390625 48.578125 52.15625
Q 48.578125 55.71875 46.875 58.421875
Q 45.171875 61.140625 41.984375 62.140625
Q 38.8125 63.140625 31.109375 63.140625
L 16.796875 63.140625
z
M 16.796875 8.453125
L 34.625 8.453125
Q 39.203125 8.453125 41.0625 8.796875
Q 44.34375 9.375 46.53125 10.734375
Q 48.734375 12.109375 50.140625 14.71875
Q 51.5625 17.328125 51.5625 20.75
Q 51.5625 24.75 49.515625 27.703125
Q 47.46875 30.671875 43.828125 31.859375
Q 40.1875 33.0625 33.34375 33.0625
L 16.796875 33.0625
z
" id="ArialMT-42"/>
    <path d="M 7.71875 0
L 7.71875 71.578125
L 32.375 71.578125
Q 40.71875 71.578125 45.125 70.5625
Q 51.265625 69.140625 55.609375 65.4375
Q 61.28125 60.640625 64.078125 53.1875
Q 66.890625 45.75 66.890625 36.1875
Q 66.890625 28.03125 64.984375 21.734375
Q 63.09375 15.4375 60.109375 11.296875
Q 57.125 7.171875 53.578125 4.796875
Q 50.046875 2.4375 45.046875 1.21875
Q 40.046875 0 33.546875 0
z
M 17.1875 8.453125
L 32.46875 8.453125
Q 39.546875 8.453125 43.578125 9.765625
Q 47.609375 11.078125 50 13.484375
Q 53.375 16.84375 55.25 22.53125
Q 57.125 28.21875 57.125 36.328125
Q 57.125 47.5625 53.4375 53.59375
Q 49.75 59.625 44.484375 61.671875
Q 40.671875 63.140625 32.234375 63.140625
L 17.1875 63.140625
z
" id="ArialMT-44"/>
    <path d="M 6.640625 61.46875
L 6.640625 71.578125
L 15.4375 71.578125
L 15.4375 61.46875
z
M 6.640625 0
L 6.640625 51.859375
L 15.4375 51.859375
L 15.4375 0
z
" id="ArialMT-69"/>
    <path d="M 40.4375 19
L 49.078125 17.875
Q 47.65625 8.9375 41.8125 3.875
Q 35.984375 -1.171875 27.484375 -1.171875
Q 16.84375 -1.171875 10.375 5.78125
Q 3.90625 12.75 3.90625 25.734375
Q 3.90625 34.125 6.6875 40.421875
Q 9.46875 46.734375 15.15625 49.875
Q 20.84375 53.03125 27.546875 53.03125
Q 35.984375 53.03125 41.359375 48.75
Q 46.734375 44.484375 48.25 36.625
L 39.703125 35.296875
Q 38.484375 40.53125 35.375 43.15625
Q 32.28125 45.796875 27.875 45.796875
Q 21.234375 45.796875 17.078125 41.03125
Q 12.9375 36.28125 12.9375 25.984375
Q 12.9375 15.53125 16.9375 10.796875
Q 20.953125 6.0625 27.390625 6.0625
Q 32.5625 6.0625 36.03125 9.234375
Q 39.5 12.40625 40.4375 19
z
" id="ArialMT-63"/>
   </defs>
   <g style="fill:#262626;" transform="translate(148.319063 22.947187)scale(0.22 -0.22)">
    <use xlink:href="#ArialMT-42"/>
    <use x="66.699219" xlink:href="#ArialMT-6c"/>
    <use x="88.916016" xlink:href="#ArialMT-75"/>
    <use x="144.53125" xlink:href="#ArialMT-65"/>
    <use x="200.146484" xlink:href="#ArialMT-20"/>
    <use x="227.929688" xlink:href="#ArialMT-46"/>
    <use x="289.013672" xlink:href="#ArialMT-61"/>
    <use x="344.628906" xlink:href="#ArialMT-74"/>
    <use x="372.412109" xlink:href="#ArialMT-65"/>
    <use x="428.027344" xlink:href="#ArialMT-20"/>
    <use x="455.810547" xlink:href="#ArialMT-44"/>
    <use x="528.027344" xlink:href="#ArialMT-69"/>
    <use x="550.244141" xlink:href="#ArialMT-63"/>
    <use x="600.244141" xlink:href="#ArialMT-65"/>
    <use x="655.859375" xlink:href="#ArialMT-20"/>
    <use x="683.642578" xlink:href="#ArialMT-52"/>
    <use x="755.859375" xlink:href="#ArialMT-6f"/>
    <use x="811.474609" xlink:href="#ArialMT-6c"/>
    <use x="833.691406" xlink:href="#ArialMT-6c"/>
    <use x="855.908203" xlink:href="#ArialMT-73"/>
   </g>
  </g>
 </g>
 <defs>
  <clipPath id="pf7e842fe0c">
   <rect height="450.9" width="443.15" x="46.015313" y="28.08"/>
  </clipPath>
 </defs>
</svg>
