<?xml version="1.0" encoding="utf-8" standalone="no"?>
<!DOCTYPE svg PUBLIC "-//W3C//DTD SVG 1.1//EN"
  "http://www.w3.org/Graphics/SVG/1.1/DTD/svg11.dtd">
<!-- Created with matplotlib (http://matplotlib.org/) -->
<svg height="737pt" version="1.1" viewBox="0 0 712 737" width="712pt" xmlns="http://www.w3.org/2000/svg" xmlns:xlink="http://www.w3.org/1999/xlink">
 <defs>
  <style type="text/css">
*{stroke-linecap:butt;stroke-linejoin:round;}
  </style>
 </defs>
 <g id="figure_1">
  <g id="patch_1">
   <path d="M 0 737.777812 
L 712.240312 737.777812 
L 712.240312 0 
L 0 0 
z
" style="fill:#ffffff;"/>
  </g>
  <g id="axes_1">
   <g id="patch_2">
    <path d="M 49.515313 358.7 
L 371.877812 358.7 
L 371.877812 32.4 
L 49.515313 32.4 
z
" style="fill:#ffffff;"/>
   </g>
   <g id="patch_3">
    <path clip-path="url(#p8746292ee9)" d="M 64.168153 337.387704 
L 96.730022 337.387704 
L 96.730022 310.831064 
L 64.168153 310.831064 
z
" style="fill:#d3d3d3;"/>
   </g>
   <g id="patch_4">
    <path clip-path="url(#p8746292ee9)" d="M 96.730022 337.387704 
L 129.291891 337.387704 
L 129.291891 261.6521 
L 96.730022 261.6521 
z
" style="fill:#d3d3d3;"/>
   </g>
   <g id="patch_5">
    <path clip-path="url(#p8746292ee9)" d="M 129.291891 337.387704 
L 161.853759 337.387704 
L 161.853759 173.129965 
L 129.291891 173.129965 
z
" style="fill:#d3d3d3;"/>
   </g>
   <g id="patch_6">
    <path clip-path="url(#p8746292ee9)" d="M 161.853759 337.387704 
L 194.415628 337.387704 
L 194.415628 88.542148 
L 161.853759 88.542148 
z
" style="fill:#d3d3d3;"/>
   </g>
   <g id="patch_7">
    <path clip-path="url(#p8746292ee9)" d="M 194.415628 337.387704 
L 226.977497 337.387704 
L 226.977497 47.231818 
L 194.415628 47.231818 
z
" style="fill:#d3d3d3;"/>
   </g>
   <g id="patch_8">
    <path clip-path="url(#p8746292ee9)" d="M 226.977497 337.387704 
L 259.539366 337.387704 
L 259.539366 88.542148 
L 226.977497 88.542148 
z
" style="fill:#d3d3d3;"/>
   </g>
   <g id="patch_9">
    <path clip-path="url(#p8746292ee9)" d="M 259.539366 337.387704 
L 292.101234 337.387704 
L 292.101234 173.129965 
L 259.539366 173.129965 
z
" style="fill:#d3d3d3;"/>
   </g>
   <g id="patch_10">
    <path clip-path="url(#p8746292ee9)" d="M 292.101234 337.387704 
L 324.663103 337.387704 
L 324.663103 261.6521 
L 292.101234 261.6521 
z
" style="fill:#d3d3d3;"/>
   </g>
   <g id="patch_11">
    <path clip-path="url(#p8746292ee9)" d="M 324.663103 337.387704 
L 357.224972 337.387704 
L 357.224972 310.831064 
L 324.663103 310.831064 
z
" style="fill:#d3d3d3;"/>
   </g>
   <g id="matplotlib.axis_1">
    <g id="xtick_1">
     <g id="line2d_1"/>
    </g>
    <g id="xtick_2">
     <g id="line2d_2"/>
    </g>
    <g id="xtick_3">
     <g id="line2d_3"/>
    </g>
    <g id="xtick_4">
     <g id="line2d_4"/>
    </g>
    <g id="xtick_5">
     <g id="line2d_5"/>
    </g>
   </g>
   <g id="matplotlib.axis_2">
    <g id="ytick_1">
     <g id="line2d_6"/>
     <g id="text_1">
      <!-- 0 -->
      <defs>
       <path d="M 4.15625 35.296875 
Q 4.15625 48 6.765625 55.734375 
Q 9.375 63.484375 14.515625 67.671875 
Q 19.671875 71.875 27.484375 71.875 
Q 33.25 71.875 37.59375 69.546875 
Q 41.9375 67.234375 44.765625 62.859375 
Q 47.609375 58.5 49.21875 52.21875 
Q 50.828125 45.953125 50.828125 35.296875 
Q 50.828125 22.703125 48.234375 14.96875 
Q 45.65625 7.234375 40.5 3 
Q 35.359375 -1.21875 27.484375 -1.21875 
Q 17.140625 -1.21875 11.234375 6.203125 
Q 4.15625 15.140625 4.15625 35.296875 
z
M 13.1875 35.296875 
Q 13.1875 17.671875 17.3125 11.828125 
Q 21.4375 6 27.484375 6 
Q 33.546875 6 37.671875 11.859375 
Q 41.796875 17.71875 41.796875 35.296875 
Q 41.796875 52.984375 37.671875 58.78125 
Q 33.546875 64.59375 27.390625 64.59375 
Q 21.34375 64.59375 17.71875 59.46875 
Q 13.1875 52.9375 13.1875 35.296875 
z
" id="ArialMT-30"/>
      </defs>
      <g style="fill:#262626;" transform="translate(36.954375 340.966611)scale(0.1 -0.1)">
       <use xlink:href="#ArialMT-30"/>
      </g>
     </g>
    </g>
    <g id="ytick_2">
     <g id="line2d_7"/>
     <g id="text_2">
      <!-- 20 -->
      <defs>
       <path d="M 50.34375 8.453125 
L 50.34375 0 
L 3.03125 0 
Q 2.9375 3.171875 4.046875 6.109375 
Q 5.859375 10.9375 9.828125 15.625 
Q 13.8125 20.3125 21.34375 26.46875 
Q 33.015625 36.03125 37.109375 41.625 
Q 41.21875 47.21875 41.21875 52.203125 
Q 41.21875 57.421875 37.46875 61 
Q 33.734375 64.59375 27.734375 64.59375 
Q 21.390625 64.59375 17.578125 60.78125 
Q 13.765625 56.984375 13.71875 50.25 
L 4.6875 51.171875 
Q 5.609375 61.28125 11.65625 66.578125 
Q 17.71875 71.875 27.9375 71.875 
Q 38.234375 71.875 44.234375 66.15625 
Q 50.25 60.453125 50.25 52 
Q 50.25 47.703125 48.484375 43.546875 
Q 46.734375 39.40625 42.65625 34.8125 
Q 38.578125 30.21875 29.109375 22.21875 
Q 21.1875 15.578125 18.9375 13.203125 
Q 16.703125 10.84375 15.234375 8.453125 
z
" id="ArialMT-32"/>
      </defs>
      <g style="fill:#262626;" transform="translate(31.393438 301.62344)scale(0.1 -0.1)">
       <use xlink:href="#ArialMT-32"/>
       <use x="55.615234" xlink:href="#ArialMT-30"/>
      </g>
     </g>
    </g>
    <g id="ytick_3">
     <g id="line2d_8"/>
     <g id="text_3">
      <!-- 40 -->
      <defs>
       <path d="M 32.328125 0 
L 32.328125 17.140625 
L 1.265625 17.140625 
L 1.265625 25.203125 
L 33.9375 71.578125 
L 41.109375 71.578125 
L 41.109375 25.203125 
L 50.78125 25.203125 
L 50.78125 17.140625 
L 41.109375 17.140625 
L 41.109375 0 
z
M 32.328125 25.203125 
L 32.328125 57.46875 
L 9.90625 25.203125 
z
" id="ArialMT-34"/>
      </defs>
      <g style="fill:#262626;" transform="translate(31.393438 262.280269)scale(0.1 -0.1)">
       <use xlink:href="#ArialMT-34"/>
       <use x="55.615234" xlink:href="#ArialMT-30"/>
      </g>
     </g>
    </g>
    <g id="ytick_4">
     <g id="line2d_9"/>
     <g id="text_4">
      <!-- 60 -->
      <defs>
       <path d="M 49.75 54.046875 
L 41.015625 53.375 
Q 39.84375 58.546875 37.703125 60.890625 
Q 34.125 64.65625 28.90625 64.65625 
Q 24.703125 64.65625 21.53125 62.3125 
Q 17.390625 59.28125 14.984375 53.46875 
Q 12.59375 47.65625 12.5 36.921875 
Q 15.671875 41.75 20.265625 44.09375 
Q 24.859375 46.4375 29.890625 46.4375 
Q 38.671875 46.4375 44.84375 39.96875 
Q 51.03125 33.5 51.03125 23.25 
Q 51.03125 16.5 48.125 10.71875 
Q 45.21875 4.9375 40.140625 1.859375 
Q 35.0625 -1.21875 28.609375 -1.21875 
Q 17.625 -1.21875 10.6875 6.859375 
Q 3.765625 14.9375 3.765625 33.5 
Q 3.765625 54.25 11.421875 63.671875 
Q 18.109375 71.875 29.4375 71.875 
Q 37.890625 71.875 43.28125 67.140625 
Q 48.6875 62.40625 49.75 54.046875 
z
M 13.875 23.1875 
Q 13.875 18.65625 15.796875 14.5 
Q 17.71875 10.359375 21.1875 8.171875 
Q 24.65625 6 28.46875 6 
Q 34.03125 6 38.03125 10.484375 
Q 42.046875 14.984375 42.046875 22.703125 
Q 42.046875 30.125 38.078125 34.390625 
Q 34.125 38.671875 28.125 38.671875 
Q 22.171875 38.671875 18.015625 34.390625 
Q 13.875 30.125 13.875 23.1875 
z
" id="ArialMT-36"/>
      </defs>
      <g style="fill:#262626;" transform="translate(31.393438 222.937098)scale(0.1 -0.1)">
       <use xlink:href="#ArialMT-36"/>
       <use x="55.615234" xlink:href="#ArialMT-30"/>
      </g>
     </g>
    </g>
    <g id="ytick_5">
     <g id="line2d_10"/>
     <g id="text_5">
      <!-- 80 -->
      <defs>
       <path d="M 17.671875 38.8125 
Q 12.203125 40.828125 9.5625 44.53125 
Q 6.9375 48.25 6.9375 53.421875 
Q 6.9375 61.234375 12.546875 66.546875 
Q 18.171875 71.875 27.484375 71.875 
Q 36.859375 71.875 42.578125 66.421875 
Q 48.296875 60.984375 48.296875 53.171875 
Q 48.296875 48.1875 45.671875 44.5 
Q 43.0625 40.828125 37.75 38.8125 
Q 44.34375 36.671875 47.78125 31.875 
Q 51.21875 27.09375 51.21875 20.453125 
Q 51.21875 11.28125 44.71875 5.03125 
Q 38.234375 -1.21875 27.640625 -1.21875 
Q 17.046875 -1.21875 10.546875 5.046875 
Q 4.046875 11.328125 4.046875 20.703125 
Q 4.046875 27.6875 7.59375 32.390625 
Q 11.140625 37.109375 17.671875 38.8125 
z
M 15.921875 53.71875 
Q 15.921875 48.640625 19.1875 45.40625 
Q 22.46875 42.1875 27.6875 42.1875 
Q 32.765625 42.1875 36.015625 45.375 
Q 39.265625 48.578125 39.265625 53.21875 
Q 39.265625 58.0625 35.90625 61.359375 
Q 32.5625 64.65625 27.59375 64.65625 
Q 22.5625 64.65625 19.234375 61.421875 
Q 15.921875 58.203125 15.921875 53.71875 
z
M 13.09375 20.65625 
Q 13.09375 16.890625 14.875 13.375 
Q 16.65625 9.859375 20.171875 7.921875 
Q 23.6875 6 27.734375 6 
Q 34.03125 6 38.125 10.046875 
Q 42.234375 14.109375 42.234375 20.359375 
Q 42.234375 26.703125 38.015625 30.859375 
Q 33.796875 35.015625 27.4375 35.015625 
Q 21.234375 35.015625 17.15625 30.90625 
Q 13.09375 26.8125 13.09375 20.65625 
z
" id="ArialMT-38"/>
      </defs>
      <g style="fill:#262626;" transform="translate(31.393438 183.593927)scale(0.1 -0.1)">
       <use xlink:href="#ArialMT-38"/>
       <use x="55.615234" xlink:href="#ArialMT-30"/>
      </g>
     </g>
    </g>
    <g id="ytick_6">
     <g id="line2d_11"/>
     <g id="text_6">
      <!-- 100 -->
      <defs>
       <path d="M 37.25 0 
L 28.46875 0 
L 28.46875 56 
Q 25.296875 52.984375 20.140625 49.953125 
Q 14.984375 46.921875 10.890625 45.40625 
L 10.890625 53.90625 
Q 18.265625 57.375 23.78125 62.296875 
Q 29.296875 67.234375 31.59375 71.875 
L 37.25 71.875 
z
" id="ArialMT-31"/>
      </defs>
      <g style="fill:#262626;" transform="translate(25.8325 144.250756)scale(0.1 -0.1)">
       <use xlink:href="#ArialMT-31"/>
       <use x="55.615234" xlink:href="#ArialMT-30"/>
       <use x="111.230469" xlink:href="#ArialMT-30"/>
      </g>
     </g>
    </g>
    <g id="ytick_7">
     <g id="line2d_12"/>
     <g id="text_7">
      <!-- 120 -->
      <g style="fill:#262626;" transform="translate(25.8325 104.907585)scale(0.1 -0.1)">
       <use xlink:href="#ArialMT-31"/>
       <use x="55.615234" xlink:href="#ArialMT-32"/>
       <use x="111.230469" xlink:href="#ArialMT-30"/>
      </g>
     </g>
    </g>
    <g id="ytick_8">
     <g id="line2d_13"/>
     <g id="text_8">
      <!-- 140 -->
      <g style="fill:#262626;" transform="translate(25.8325 65.564414)scale(0.1 -0.1)">
       <use xlink:href="#ArialMT-31"/>
       <use x="55.615234" xlink:href="#ArialMT-34"/>
       <use x="111.230469" xlink:href="#ArialMT-30"/>
      </g>
     </g>
    </g>
    <g id="text_9">
     <!-- Count -->
     <defs>
      <path d="M 58.796875 25.09375 
L 68.265625 22.703125 
Q 65.28125 11.03125 57.546875 4.90625 
Q 49.8125 -1.21875 38.625 -1.21875 
Q 27.046875 -1.21875 19.796875 3.484375 
Q 12.546875 8.203125 8.765625 17.140625 
Q 4.984375 26.078125 4.984375 36.328125 
Q 4.984375 47.515625 9.25 55.828125 
Q 13.53125 64.15625 21.40625 68.46875 
Q 29.296875 72.796875 38.765625 72.796875 
Q 49.515625 72.796875 56.828125 67.328125 
Q 64.15625 61.859375 67.046875 51.953125 
L 57.71875 49.75 
Q 55.21875 57.5625 50.484375 61.125 
Q 45.75 64.703125 38.578125 64.703125 
Q 30.328125 64.703125 24.78125 60.734375 
Q 19.234375 56.78125 16.984375 50.109375 
Q 14.75 43.453125 14.75 36.375 
Q 14.75 27.25 17.40625 20.4375 
Q 20.0625 13.625 25.671875 10.25 
Q 31.296875 6.890625 37.84375 6.890625 
Q 45.796875 6.890625 51.3125 11.46875 
Q 56.84375 16.0625 58.796875 25.09375 
z
" id="ArialMT-43"/>
      <path d="M 3.328125 25.921875 
Q 3.328125 40.328125 11.328125 47.265625 
Q 18.015625 53.03125 27.640625 53.03125 
Q 38.328125 53.03125 45.109375 46.015625 
Q 51.90625 39.015625 51.90625 26.65625 
Q 51.90625 16.65625 48.90625 10.90625 
Q 45.90625 5.171875 40.15625 2 
Q 34.421875 -1.171875 27.640625 -1.171875 
Q 16.75 -1.171875 10.03125 5.8125 
Q 3.328125 12.796875 3.328125 25.921875 
z
M 12.359375 25.921875 
Q 12.359375 15.96875 16.703125 11.015625 
Q 21.046875 6.0625 27.640625 6.0625 
Q 34.1875 6.0625 38.53125 11.03125 
Q 42.875 16.015625 42.875 26.21875 
Q 42.875 35.84375 38.5 40.796875 
Q 34.125 45.75 27.640625 45.75 
Q 21.046875 45.75 16.703125 40.8125 
Q 12.359375 35.890625 12.359375 25.921875 
z
" id="ArialMT-6f"/>
      <path d="M 40.578125 0 
L 40.578125 7.625 
Q 34.515625 -1.171875 24.125 -1.171875 
Q 19.53125 -1.171875 15.546875 0.578125 
Q 11.578125 2.34375 9.640625 5 
Q 7.71875 7.671875 6.9375 11.53125 
Q 6.390625 14.109375 6.390625 19.734375 
L 6.390625 51.859375 
L 15.1875 51.859375 
L 15.1875 23.09375 
Q 15.1875 16.21875 15.71875 13.8125 
Q 16.546875 10.359375 19.234375 8.375 
Q 21.921875 6.390625 25.875 6.390625 
Q 29.828125 6.390625 33.296875 8.421875 
Q 36.765625 10.453125 38.203125 13.9375 
Q 39.65625 17.4375 39.65625 24.078125 
L 39.65625 51.859375 
L 48.4375 51.859375 
L 48.4375 0 
z
" id="ArialMT-75"/>
      <path d="M 6.59375 0 
L 6.59375 51.859375 
L 14.5 51.859375 
L 14.5 44.484375 
Q 20.21875 53.03125 31 53.03125 
Q 35.6875 53.03125 39.625 51.34375 
Q 43.5625 49.65625 45.515625 46.921875 
Q 47.46875 44.1875 48.25 40.4375 
Q 48.734375 37.984375 48.734375 31.890625 
L 48.734375 0 
L 39.9375 0 
L 39.9375 31.546875 
Q 39.9375 36.921875 38.90625 39.578125 
Q 37.890625 42.234375 35.28125 43.8125 
Q 32.671875 45.40625 29.15625 45.40625 
Q 23.53125 45.40625 19.453125 41.84375 
Q 15.375 38.28125 15.375 28.328125 
L 15.375 0 
z
" id="ArialMT-6e"/>
      <path d="M 25.78125 7.859375 
L 27.046875 0.09375 
Q 23.34375 -0.6875 20.40625 -0.6875 
Q 15.625 -0.6875 12.984375 0.828125 
Q 10.359375 2.34375 9.28125 4.8125 
Q 8.203125 7.28125 8.203125 15.1875 
L 8.203125 45.015625 
L 1.765625 45.015625 
L 1.765625 51.859375 
L 8.203125 51.859375 
L 8.203125 64.703125 
L 16.9375 69.96875 
L 16.9375 51.859375 
L 25.78125 51.859375 
L 25.78125 45.015625 
L 16.9375 45.015625 
L 16.9375 14.703125 
Q 16.9375 10.9375 17.40625 9.859375 
Q 17.875 8.796875 18.921875 8.15625 
Q 19.96875 7.515625 21.921875 7.515625 
Q 23.390625 7.515625 25.78125 7.859375 
z
" id="ArialMT-74"/>
     </defs>
     <g style="fill:#262626;" transform="translate(18.6525 216.89625)rotate(-90)scale(0.16 -0.16)">
      <use xlink:href="#ArialMT-43"/>
      <use x="72.216797" xlink:href="#ArialMT-6f"/>
      <use x="127.832031" xlink:href="#ArialMT-75"/>
      <use x="183.447266" xlink:href="#ArialMT-6e"/>
      <use x="239.0625" xlink:href="#ArialMT-74"/>
     </g>
    </g>
   </g>
   <g id="patch_12">
    <path clip-path="url(#p8746292ee9)" d="M 64.168153 337.387704 
L 96.730022 337.387704 
L 96.730022 336.404125 
L 64.168153 336.404125 
z
" style="fill:#ffffff;"/>
   </g>
   <g id="patch_13">
    <path clip-path="url(#p8746292ee9)" d="M 96.730022 337.387704 
L 129.291891 337.387704 
L 129.291891 310.831064 
L 96.730022 310.831064 
z
" style="fill:#ffffff;"/>
   </g>
   <g id="patch_14">
    <path clip-path="url(#p8746292ee9)" d="M 129.291891 337.387704 
L 161.853759 337.387704 
L 161.853759 247.88199 
L 129.291891 247.88199 
z
" style="fill:#ffffff;"/>
   </g>
   <g id="patch_15">
    <path clip-path="url(#p8746292ee9)" d="M 161.853759 337.387704 
L 194.415628 337.387704 
L 194.415628 180.9986 
L 161.853759 180.9986 
z
" style="fill:#ffffff;"/>
   </g>
   <g id="patch_16">
    <path clip-path="url(#p8746292ee9)" d="M 194.415628 337.387704 
L 226.977497 337.387704 
L 226.977497 145.589746 
L 194.415628 145.589746 
z
" style="fill:#ffffff;"/>
   </g>
   <g id="patch_17">
    <path clip-path="url(#p8746292ee9)" d="M 226.977497 337.387704 
L 259.539366 337.387704 
L 259.539366 180.9986 
L 226.977497 180.9986 
z
" style="fill:#ffffff;"/>
   </g>
   <g id="patch_18">
    <path clip-path="url(#p8746292ee9)" d="M 259.539366 337.387704 
L 292.101234 337.387704 
L 292.101234 247.88199 
L 259.539366 247.88199 
z
" style="fill:#ffffff;"/>
   </g>
   <g id="patch_19">
    <path clip-path="url(#p8746292ee9)" d="M 292.101234 337.387704 
L 324.663103 337.387704 
L 324.663103 310.831064 
L 292.101234 310.831064 
z
" style="fill:#ffffff;"/>
   </g>
   <g id="patch_20">
    <path clip-path="url(#p8746292ee9)" d="M 324.663103 337.387704 
L 357.224972 337.387704 
L 357.224972 336.404125 
L 324.663103 336.404125 
z
" style="fill:#ffffff;"/>
   </g>
   <g id="PathCollection_1">
    <defs>
     <path d="M 0 5 
C 1.326016 5 2.597899 4.473168 3.535534 3.535534 
C 4.473168 2.597899 5 1.326016 5 0 
C 5 -1.326016 4.473168 -2.597899 3.535534 -3.535534 
C 2.597899 -4.473168 1.326016 -5 0 -5 
C -1.326016 -5 -2.597899 -4.473168 -3.535534 -3.535534 
C -4.473168 -2.597899 -5 -1.326016 -5 0 
C -5 1.326016 -4.473168 2.597899 -3.535534 3.535534 
C -2.597899 4.473168 -1.326016 5 0 5 
z
" id="mb8e26738c5" style="stroke:#377eb8;stroke-width:0.3;"/>
    </defs>
    <g clip-path="url(#p8746292ee9)">
     <use style="fill:#377eb8;stroke:#377eb8;stroke-width:0.3;" x="80.449088" xlink:href="#mb8e26738c5" y="311.814643"/>
     <use style="fill:#377eb8;stroke:#377eb8;stroke-width:0.3;" x="113.010956" xlink:href="#mb8e26738c5" y="258.701362"/>
     <use style="fill:#377eb8;stroke:#377eb8;stroke-width:0.3;" x="145.572825" xlink:href="#mb8e26738c5" y="203.620923"/>
     <use style="fill:#377eb8;stroke:#377eb8;stroke-width:0.3;" x="178.134694" xlink:href="#mb8e26738c5" y="156.409118"/>
     <use style="fill:#377eb8;stroke:#377eb8;stroke-width:0.3;" x="210.696562" xlink:href="#mb8e26738c5" y="67.886983"/>
     <use style="fill:#377eb8;stroke:#377eb8;stroke-width:0.3;" x="243.258431" xlink:href="#mb8e26738c5" y="172.146386"/>
     <use style="fill:#377eb8;stroke:#377eb8;stroke-width:0.3;" x="275.8203" xlink:href="#mb8e26738c5" y="217.391033"/>
     <use style="fill:#377eb8;stroke:#377eb8;stroke-width:0.3;" x="308.382169" xlink:href="#mb8e26738c5" y="303.946009"/>
     <use style="fill:#377eb8;stroke:#377eb8;stroke-width:0.3;" x="340.944037" xlink:href="#mb8e26738c5" y="317.716119"/>
    </g>
   </g>
   <g id="patch_21">
    <path d="M 49.515313 358.7 
L 49.515313 32.4 
" style="fill:none;stroke:#262626;stroke-linecap:square;stroke-linejoin:miter;stroke-width:1.25;"/>
   </g>
   <g id="patch_22">
    <path d="M 371.877812 358.7 
L 371.877812 32.4 
" style="fill:none;stroke:#262626;stroke-linecap:square;stroke-linejoin:miter;stroke-width:1.25;"/>
   </g>
   <g id="patch_23">
    <path d="M 49.515312 358.7 
L 371.877813 358.7 
" style="fill:none;stroke:#262626;stroke-linecap:square;stroke-linejoin:miter;stroke-width:1.25;"/>
   </g>
   <g id="patch_24">
    <path d="M 49.515312 32.4 
L 371.877813 32.4 
" style="fill:none;stroke:#262626;stroke-linecap:square;stroke-linejoin:miter;stroke-width:1.25;"/>
   </g>
   <g id="patch_25">
    <path d="M 148.995838 260.61778 
Q 139.995866 260.538658 130.995895 260.459536 
L 130.974797 262.859443 
Q 126.99151 260.824348 123.008223 258.789252 
Q 127.026674 256.824502 131.045125 254.859752 
L 131.024026 257.25966 
Q 140.023998 257.338782 149.023969 257.417903 
L 148.995838 260.61778 
z
" style="fill:#377eb8;stroke:#377eb8;stroke-linecap:round;stroke-width:0.3;"/>
   </g>
   <g id="text_10">
    <!-- Observed Count -->
    <defs>
     <path d="M 4.828125 34.859375 
Q 4.828125 52.6875 14.390625 62.765625 
Q 23.96875 72.859375 39.109375 72.859375 
Q 49.03125 72.859375 56.984375 68.109375 
Q 64.9375 63.375 69.109375 54.90625 
Q 73.296875 46.4375 73.296875 35.6875 
Q 73.296875 24.8125 68.890625 16.21875 
Q 64.5 7.625 56.4375 3.203125 
Q 48.390625 -1.21875 39.0625 -1.21875 
Q 28.953125 -1.21875 20.984375 3.65625 
Q 13.03125 8.546875 8.921875 16.984375 
Q 4.828125 25.4375 4.828125 34.859375 
z
M 14.59375 34.71875 
Q 14.59375 21.78125 21.546875 14.328125 
Q 28.515625 6.890625 39.015625 6.890625 
Q 49.703125 6.890625 56.609375 14.40625 
Q 63.53125 21.921875 63.53125 35.75 
Q 63.53125 44.484375 60.578125 51 
Q 57.625 57.515625 51.921875 61.109375 
Q 46.234375 64.703125 39.15625 64.703125 
Q 29.109375 64.703125 21.84375 57.78125 
Q 14.59375 50.875 14.59375 34.71875 
z
" id="ArialMT-4f"/>
     <path d="M 14.703125 0 
L 6.546875 0 
L 6.546875 71.578125 
L 15.328125 71.578125 
L 15.328125 46.046875 
Q 20.90625 53.03125 29.546875 53.03125 
Q 34.328125 53.03125 38.59375 51.09375 
Q 42.875 49.171875 45.625 45.671875 
Q 48.390625 42.1875 49.953125 37.25 
Q 51.515625 32.328125 51.515625 26.703125 
Q 51.515625 13.375 44.921875 6.09375 
Q 38.328125 -1.171875 29.109375 -1.171875 
Q 19.921875 -1.171875 14.703125 6.5 
z
M 14.59375 26.3125 
Q 14.59375 17 17.140625 12.84375 
Q 21.296875 6.0625 28.375 6.0625 
Q 34.125 6.0625 38.328125 11.0625 
Q 42.53125 16.0625 42.53125 25.984375 
Q 42.53125 36.140625 38.5 40.96875 
Q 34.46875 45.796875 28.765625 45.796875 
Q 23 45.796875 18.796875 40.796875 
Q 14.59375 35.796875 14.59375 26.3125 
z
" id="ArialMT-62"/>
     <path d="M 3.078125 15.484375 
L 11.765625 16.84375 
Q 12.5 11.625 15.84375 8.84375 
Q 19.1875 6.0625 25.203125 6.0625 
Q 31.25 6.0625 34.171875 8.515625 
Q 37.109375 10.984375 37.109375 14.3125 
Q 37.109375 17.28125 34.515625 19 
Q 32.71875 20.171875 25.53125 21.96875 
Q 15.875 24.421875 12.140625 26.203125 
Q 8.40625 27.984375 6.46875 31.125 
Q 4.546875 34.28125 4.546875 38.09375 
Q 4.546875 41.546875 6.125 44.5 
Q 7.71875 47.46875 10.453125 49.421875 
Q 12.5 50.921875 16.03125 51.96875 
Q 19.578125 53.03125 23.640625 53.03125 
Q 29.734375 53.03125 34.34375 51.265625 
Q 38.96875 49.515625 41.15625 46.5 
Q 43.359375 43.5 44.1875 38.484375 
L 35.59375 37.3125 
Q 35.015625 41.3125 32.203125 43.546875 
Q 29.390625 45.796875 24.265625 45.796875 
Q 18.21875 45.796875 15.625 43.796875 
Q 13.03125 41.796875 13.03125 39.109375 
Q 13.03125 37.40625 14.109375 36.03125 
Q 15.1875 34.625 17.484375 33.6875 
Q 18.796875 33.203125 25.25 31.453125 
Q 34.578125 28.953125 38.25 27.359375 
Q 41.9375 25.78125 44.03125 22.75 
Q 46.140625 19.734375 46.140625 15.234375 
Q 46.140625 10.84375 43.578125 6.953125 
Q 41.015625 3.078125 36.171875 0.953125 
Q 31.34375 -1.171875 25.25 -1.171875 
Q 15.140625 -1.171875 9.84375 3.03125 
Q 4.546875 7.234375 3.078125 15.484375 
z
" id="ArialMT-73"/>
     <path d="M 42.09375 16.703125 
L 51.171875 15.578125 
Q 49.03125 7.625 43.21875 3.21875 
Q 37.40625 -1.171875 28.375 -1.171875 
Q 17 -1.171875 10.328125 5.828125 
Q 3.65625 12.84375 3.65625 25.484375 
Q 3.65625 38.578125 10.390625 45.796875 
Q 17.140625 53.03125 27.875 53.03125 
Q 38.28125 53.03125 44.875 45.953125 
Q 51.46875 38.875 51.46875 26.03125 
Q 51.46875 25.25 51.421875 23.6875 
L 12.75 23.6875 
Q 13.234375 15.140625 17.578125 10.59375 
Q 21.921875 6.0625 28.421875 6.0625 
Q 33.25 6.0625 36.671875 8.59375 
Q 40.09375 11.140625 42.09375 16.703125 
z
M 13.234375 30.90625 
L 42.1875 30.90625 
Q 41.609375 37.453125 38.875 40.71875 
Q 34.671875 45.796875 27.984375 45.796875 
Q 21.921875 45.796875 17.796875 41.75 
Q 13.671875 37.703125 13.234375 30.90625 
z
" id="ArialMT-65"/>
     <path d="M 6.5 0 
L 6.5 51.859375 
L 14.40625 51.859375 
L 14.40625 44 
Q 17.4375 49.515625 20 51.265625 
Q 22.5625 53.03125 25.640625 53.03125 
Q 30.078125 53.03125 34.671875 50.203125 
L 31.640625 42.046875 
Q 28.421875 43.953125 25.203125 43.953125 
Q 22.3125 43.953125 20.015625 42.21875 
Q 17.71875 40.484375 16.75 37.40625 
Q 15.28125 32.71875 15.28125 27.15625 
L 15.28125 0 
z
" id="ArialMT-72"/>
     <path d="M 21 0 
L 1.265625 51.859375 
L 10.546875 51.859375 
L 21.6875 20.796875 
Q 23.484375 15.765625 25 10.359375 
Q 26.171875 14.453125 28.265625 20.21875 
L 39.796875 51.859375 
L 48.828125 51.859375 
L 29.203125 0 
z
" id="ArialMT-76"/>
     <path d="M 40.234375 0 
L 40.234375 6.546875 
Q 35.296875 -1.171875 25.734375 -1.171875 
Q 19.53125 -1.171875 14.328125 2.25 
Q 9.125 5.671875 6.265625 11.796875 
Q 3.421875 17.921875 3.421875 25.875 
Q 3.421875 33.640625 6 39.96875 
Q 8.59375 46.296875 13.765625 49.65625 
Q 18.953125 53.03125 25.34375 53.03125 
Q 30.03125 53.03125 33.6875 51.046875 
Q 37.359375 49.078125 39.65625 45.90625 
L 39.65625 71.578125 
L 48.390625 71.578125 
L 48.390625 0 
z
M 12.453125 25.875 
Q 12.453125 15.921875 16.640625 10.984375 
Q 20.84375 6.0625 26.5625 6.0625 
Q 32.328125 6.0625 36.34375 10.765625 
Q 40.375 15.484375 40.375 25.140625 
Q 40.375 35.796875 36.265625 40.765625 
Q 32.171875 45.75 26.171875 45.75 
Q 20.3125 45.75 16.375 40.96875 
Q 12.453125 36.1875 12.453125 25.875 
z
" id="ArialMT-64"/>
     <path id="ArialMT-20"/>
    </defs>
    <g style="fill:#262626;" transform="translate(153.010956 263.701362)scale(0.16 -0.16)">
     <use xlink:href="#ArialMT-4f"/>
     <use x="77.783203" xlink:href="#ArialMT-62"/>
     <use x="133.398438" xlink:href="#ArialMT-73"/>
     <use x="183.398438" xlink:href="#ArialMT-65"/>
     <use x="239.013672" xlink:href="#ArialMT-72"/>
     <use x="272.314453" xlink:href="#ArialMT-76"/>
     <use x="322.314453" xlink:href="#ArialMT-65"/>
     <use x="377.929688" xlink:href="#ArialMT-64"/>
     <use x="433.544922" xlink:href="#ArialMT-20"/>
     <use x="461.328125" xlink:href="#ArialMT-43"/>
     <use x="533.544922" xlink:href="#ArialMT-6f"/>
     <use x="589.160156" xlink:href="#ArialMT-75"/>
     <use x="644.775391" xlink:href="#ArialMT-6e"/>
     <use x="700.390625" xlink:href="#ArialMT-74"/>
    </g>
   </g>
   <g id="patch_26">
    <path d="M 165.293646 286.602163 
Q 152.291791 286.471941 139.289937 286.341719 
M 136.25034 270.310473 
L 139.450179 270.342521 
L 139.129694 302.340917 
L 135.929855 302.308868 
" style="fill:none;stroke:#377eb8;stroke-linecap:round;stroke-width:2.5;"/>
   </g>
   <g id="text_11">
    <!-- $99\%$ Interval -->
    <defs>
     <path d="M 10.984375 1.515625 
L 10.984375 10.5 
Q 14.703125 8.734375 18.5 7.8125 
Q 22.3125 6.890625 25.984375 6.890625 
Q 35.75 6.890625 40.890625 13.453125 
Q 46.046875 20.015625 46.78125 33.40625 
Q 43.953125 29.203125 39.59375 26.953125 
Q 35.25 24.703125 29.984375 24.703125 
Q 19.046875 24.703125 12.671875 31.3125 
Q 6.296875 37.9375 6.296875 49.421875 
Q 6.296875 60.640625 12.9375 67.421875 
Q 19.578125 74.21875 30.609375 74.21875 
Q 43.265625 74.21875 49.921875 64.515625 
Q 56.59375 54.828125 56.59375 36.375 
Q 56.59375 19.140625 48.40625 8.859375 
Q 40.234375 -1.421875 26.421875 -1.421875 
Q 22.703125 -1.421875 18.890625 -0.6875 
Q 15.09375 0.046875 10.984375 1.515625 
z
M 30.609375 32.421875 
Q 37.25 32.421875 41.125 36.953125 
Q 45.015625 41.5 45.015625 49.421875 
Q 45.015625 57.28125 41.125 61.84375 
Q 37.25 66.40625 30.609375 66.40625 
Q 23.96875 66.40625 20.09375 61.84375 
Q 16.21875 57.28125 16.21875 49.421875 
Q 16.21875 41.5 20.09375 36.953125 
Q 23.96875 32.421875 30.609375 32.421875 
z
" id="DejaVuSans-39"/>
     <path d="M 72.703125 32.078125 
Q 68.453125 32.078125 66.03125 28.46875 
Q 63.625 24.859375 63.625 18.40625 
Q 63.625 12.0625 66.03125 8.421875 
Q 68.453125 4.78125 72.703125 4.78125 
Q 76.859375 4.78125 79.265625 8.421875 
Q 81.6875 12.0625 81.6875 18.40625 
Q 81.6875 24.8125 79.265625 28.4375 
Q 76.859375 32.078125 72.703125 32.078125 
z
M 72.703125 38.28125 
Q 80.421875 38.28125 84.953125 32.90625 
Q 89.5 27.546875 89.5 18.40625 
Q 89.5 9.28125 84.9375 3.921875 
Q 80.375 -1.421875 72.703125 -1.421875 
Q 64.890625 -1.421875 60.34375 3.921875 
Q 55.8125 9.28125 55.8125 18.40625 
Q 55.8125 27.59375 60.375 32.9375 
Q 64.9375 38.28125 72.703125 38.28125 
z
M 22.3125 68.015625 
Q 18.109375 68.015625 15.6875 64.375 
Q 13.28125 60.75 13.28125 54.390625 
Q 13.28125 47.953125 15.671875 44.328125 
Q 18.0625 40.71875 22.3125 40.71875 
Q 26.5625 40.71875 28.96875 44.328125 
Q 31.390625 47.953125 31.390625 54.390625 
Q 31.390625 60.6875 28.953125 64.34375 
Q 26.515625 68.015625 22.3125 68.015625 
z
M 66.40625 74.21875 
L 74.21875 74.21875 
L 28.609375 -1.421875 
L 20.796875 -1.421875 
z
M 22.3125 74.21875 
Q 30.03125 74.21875 34.609375 68.875 
Q 39.203125 63.53125 39.203125 54.390625 
Q 39.203125 45.171875 34.640625 39.84375 
Q 30.078125 34.515625 22.3125 34.515625 
Q 14.546875 34.515625 10.03125 39.859375 
Q 5.515625 45.21875 5.515625 54.390625 
Q 5.515625 63.484375 10.046875 68.84375 
Q 14.59375 74.21875 22.3125 74.21875 
z
" id="DejaVuSans-25"/>
     <path d="M 9.328125 0 
L 9.328125 71.578125 
L 18.796875 71.578125 
L 18.796875 0 
z
" id="ArialMT-49"/>
     <path d="M 40.4375 6.390625 
Q 35.546875 2.25 31.03125 0.53125 
Q 26.515625 -1.171875 21.34375 -1.171875 
Q 12.796875 -1.171875 8.203125 3 
Q 3.609375 7.171875 3.609375 13.671875 
Q 3.609375 17.484375 5.34375 20.625 
Q 7.078125 23.78125 9.890625 25.6875 
Q 12.703125 27.59375 16.21875 28.5625 
Q 18.796875 29.25 24.03125 29.890625 
Q 34.671875 31.15625 39.703125 32.90625 
Q 39.75 34.71875 39.75 35.203125 
Q 39.75 40.578125 37.25 42.78125 
Q 33.890625 45.75 27.25 45.75 
Q 21.046875 45.75 18.09375 43.578125 
Q 15.140625 41.40625 13.71875 35.890625 
L 5.125 37.0625 
Q 6.296875 42.578125 8.984375 45.96875 
Q 11.671875 49.359375 16.75 51.1875 
Q 21.828125 53.03125 28.515625 53.03125 
Q 35.15625 53.03125 39.296875 51.46875 
Q 43.453125 49.90625 45.40625 47.53125 
Q 47.359375 45.171875 48.140625 41.546875 
Q 48.578125 39.3125 48.578125 33.453125 
L 48.578125 21.734375 
Q 48.578125 9.46875 49.140625 6.21875 
Q 49.703125 2.984375 51.375 0 
L 42.1875 0 
Q 40.828125 2.734375 40.4375 6.390625 
z
M 39.703125 26.03125 
Q 34.90625 24.078125 25.34375 22.703125 
Q 19.921875 21.921875 17.671875 20.9375 
Q 15.4375 19.96875 14.203125 18.09375 
Q 12.984375 16.21875 12.984375 13.921875 
Q 12.984375 10.40625 15.640625 8.0625 
Q 18.3125 5.71875 23.4375 5.71875 
Q 28.515625 5.71875 32.46875 7.9375 
Q 36.421875 10.15625 38.28125 14.015625 
Q 39.703125 17 39.703125 22.796875 
z
" id="ArialMT-61"/>
     <path d="M 6.390625 0 
L 6.390625 71.578125 
L 15.1875 71.578125 
L 15.1875 0 
z
" id="ArialMT-6c"/>
    </defs>
    <g style="fill:#262626;" transform="translate(169.291891 291.241582)scale(0.16 -0.16)">
     <use transform="translate(0 0.78125)" xlink:href="#DejaVuSans-39"/>
     <use transform="translate(63.623047 0.78125)" xlink:href="#DejaVuSans-39"/>
     <use transform="translate(127.246094 0.78125)" xlink:href="#DejaVuSans-25"/>
     <use transform="translate(222.265625 0.78125)" xlink:href="#ArialMT-20"/>
     <use transform="translate(250.048828 0.78125)" xlink:href="#ArialMT-49"/>
     <use transform="translate(277.832031 0.78125)" xlink:href="#ArialMT-6e"/>
     <use transform="translate(333.447266 0.78125)" xlink:href="#ArialMT-74"/>
     <use transform="translate(361.230469 0.78125)" xlink:href="#ArialMT-65"/>
     <use transform="translate(416.845703 0.78125)" xlink:href="#ArialMT-72"/>
     <use transform="translate(450.146484 0.78125)" xlink:href="#ArialMT-76"/>
     <use transform="translate(500.146484 0.78125)" xlink:href="#ArialMT-61"/>
     <use transform="translate(555.761719 0.78125)" xlink:href="#ArialMT-6c"/>
    </g>
   </g>
   <g id="text_12">
    <!-- Blue Dice -->
    <defs>
     <path d="M 7.328125 0 
L 7.328125 71.578125 
L 34.1875 71.578125 
Q 42.390625 71.578125 47.34375 69.40625 
Q 52.296875 67.234375 55.09375 62.71875 
Q 57.90625 58.203125 57.90625 53.265625 
Q 57.90625 48.6875 55.421875 44.625 
Q 52.9375 40.578125 47.90625 38.09375 
Q 54.390625 36.1875 57.875 31.59375 
Q 61.375 27 61.375 20.75 
Q 61.375 15.71875 59.25 11.390625 
Q 57.125 7.078125 54 4.734375 
Q 50.875 2.390625 46.15625 1.1875 
Q 41.453125 0 34.625 0 
z
M 16.796875 41.5 
L 32.28125 41.5 
Q 38.578125 41.5 41.3125 42.328125 
Q 44.921875 43.40625 46.75 45.890625 
Q 48.578125 48.390625 48.578125 52.15625 
Q 48.578125 55.71875 46.875 58.421875 
Q 45.171875 61.140625 41.984375 62.140625 
Q 38.8125 63.140625 31.109375 63.140625 
L 16.796875 63.140625 
z
M 16.796875 8.453125 
L 34.625 8.453125 
Q 39.203125 8.453125 41.0625 8.796875 
Q 44.34375 9.375 46.53125 10.734375 
Q 48.734375 12.109375 50.140625 14.71875 
Q 51.5625 17.328125 51.5625 20.75 
Q 51.5625 24.75 49.515625 27.703125 
Q 47.46875 30.671875 43.828125 31.859375 
Q 40.1875 33.0625 33.34375 33.0625 
L 16.796875 33.0625 
z
" id="ArialMT-42"/>
     <path d="M 7.71875 0 
L 7.71875 71.578125 
L 32.375 71.578125 
Q 40.71875 71.578125 45.125 70.5625 
Q 51.265625 69.140625 55.609375 65.4375 
Q 61.28125 60.640625 64.078125 53.1875 
Q 66.890625 45.75 66.890625 36.1875 
Q 66.890625 28.03125 64.984375 21.734375 
Q 63.09375 15.4375 60.109375 11.296875 
Q 57.125 7.171875 53.578125 4.796875 
Q 50.046875 2.4375 45.046875 1.21875 
Q 40.046875 0 33.546875 0 
z
M 17.1875 8.453125 
L 32.46875 8.453125 
Q 39.546875 8.453125 43.578125 9.765625 
Q 47.609375 11.078125 50 13.484375 
Q 53.375 16.84375 55.25 22.53125 
Q 57.125 28.21875 57.125 36.328125 
Q 57.125 47.5625 53.4375 53.59375 
Q 49.75 59.625 44.484375 61.671875 
Q 40.671875 63.140625 32.234375 63.140625 
L 17.1875 63.140625 
z
" id="ArialMT-44"/>
     <path d="M 6.640625 61.46875 
L 6.640625 71.578125 
L 15.4375 71.578125 
L 15.4375 61.46875 
z
M 6.640625 0 
L 6.640625 51.859375 
L 15.4375 51.859375 
L 15.4375 0 
z
" id="ArialMT-69"/>
     <path d="M 40.4375 19 
L 49.078125 17.875 
Q 47.65625 8.9375 41.8125 3.875 
Q 35.984375 -1.171875 27.484375 -1.171875 
Q 16.84375 -1.171875 10.375 5.78125 
Q 3.90625 12.75 3.90625 25.734375 
Q 3.90625 34.125 6.6875 40.421875 
Q 9.46875 46.734375 15.15625 49.875 
Q 20.84375 53.03125 27.546875 53.03125 
Q 35.984375 53.03125 41.359375 48.75 
Q 46.734375 44.484375 48.25 36.625 
L 39.703125 35.296875 
Q 38.484375 40.53125 35.375 43.15625 
Q 32.28125 45.796875 27.875 45.796875 
Q 21.234375 45.796875 17.078125 41.03125 
Q 12.9375 36.28125 12.9375 25.984375 
Q 12.9375 15.53125 16.9375 10.796875 
Q 20.953125 6.0625 27.390625 6.0625 
Q 32.5625 6.0625 36.03125 9.234375 
Q 39.5 12.40625 40.4375 19 
z
" id="ArialMT-63"/>
    </defs>
    <g style="fill:#262626;" transform="translate(57.65578 54.116873)scale(0.18 -0.18)">
     <use xlink:href="#ArialMT-42"/>
     <use x="66.699219" xlink:href="#ArialMT-6c"/>
     <use x="88.916016" xlink:href="#ArialMT-75"/>
     <use x="144.53125" xlink:href="#ArialMT-65"/>
     <use x="200.146484" xlink:href="#ArialMT-20"/>
     <use x="227.929688" xlink:href="#ArialMT-44"/>
     <use x="300.146484" xlink:href="#ArialMT-69"/>
     <use x="322.363281" xlink:href="#ArialMT-63"/>
     <use x="372.363281" xlink:href="#ArialMT-65"/>
    </g>
   </g>
   <g id="text_13">
    <!-- $n=522$ -->
    <defs>
     <path d="M 55.71875 33.015625 
L 49.3125 0 
L 40.28125 0 
L 46.6875 32.671875 
Q 47.125 34.96875 47.359375 36.71875 
Q 47.609375 38.484375 47.609375 39.5 
Q 47.609375 43.609375 45.015625 45.890625 
Q 42.4375 48.1875 37.796875 48.1875 
Q 30.5625 48.1875 25.34375 43.375 
Q 20.125 38.578125 18.5 30.328125 
L 12.5 0 
L 3.515625 0 
L 14.109375 54.6875 
L 23.09375 54.6875 
L 21.296875 46.09375 
Q 25.046875 50.828125 30.3125 53.40625 
Q 35.59375 56 41.40625 56 
Q 48.640625 56 52.609375 52.09375 
Q 56.59375 48.1875 56.59375 41.109375 
Q 56.59375 39.359375 56.375 37.359375 
Q 56.15625 35.359375 55.71875 33.015625 
z
" id="DejaVuSans-Oblique-6e"/>
     <path d="M 10.59375 45.40625 
L 73.1875 45.40625 
L 73.1875 37.203125 
L 10.59375 37.203125 
z
M 10.59375 25.484375 
L 73.1875 25.484375 
L 73.1875 17.1875 
L 10.59375 17.1875 
z
" id="DejaVuSans-3d"/>
     <path d="M 10.796875 72.90625 
L 49.515625 72.90625 
L 49.515625 64.59375 
L 19.828125 64.59375 
L 19.828125 46.734375 
Q 21.96875 47.46875 24.109375 47.828125 
Q 26.265625 48.1875 28.421875 48.1875 
Q 40.625 48.1875 47.75 41.5 
Q 54.890625 34.8125 54.890625 23.390625 
Q 54.890625 11.625 47.5625 5.09375 
Q 40.234375 -1.421875 26.90625 -1.421875 
Q 22.3125 -1.421875 17.546875 -0.640625 
Q 12.796875 0.140625 7.71875 1.703125 
L 7.71875 11.625 
Q 12.109375 9.234375 16.796875 8.0625 
Q 21.484375 6.890625 26.703125 6.890625 
Q 35.15625 6.890625 40.078125 11.328125 
Q 45.015625 15.765625 45.015625 23.390625 
Q 45.015625 31 40.078125 35.4375 
Q 35.15625 39.890625 26.703125 39.890625 
Q 22.75 39.890625 18.8125 39.015625 
Q 14.890625 38.140625 10.796875 36.28125 
z
" id="DejaVuSans-35"/>
     <path d="M 19.1875 8.296875 
L 53.609375 8.296875 
L 53.609375 0 
L 7.328125 0 
L 7.328125 8.296875 
Q 12.9375 14.109375 22.625 23.890625 
Q 32.328125 33.6875 34.8125 36.53125 
Q 39.546875 41.84375 41.421875 45.53125 
Q 43.3125 49.21875 43.3125 52.78125 
Q 43.3125 58.59375 39.234375 62.25 
Q 35.15625 65.921875 28.609375 65.921875 
Q 23.96875 65.921875 18.8125 64.3125 
Q 13.671875 62.703125 7.8125 59.421875 
L 7.8125 69.390625 
Q 13.765625 71.78125 18.9375 73 
Q 24.125 74.21875 28.421875 74.21875 
Q 39.75 74.21875 46.484375 68.546875 
Q 53.21875 62.890625 53.21875 53.421875 
Q 53.21875 48.921875 51.53125 44.890625 
Q 49.859375 40.875 45.40625 35.40625 
Q 44.1875 33.984375 37.640625 27.21875 
Q 31.109375 20.453125 19.1875 8.296875 
z
" id="DejaVuSans-32"/>
    </defs>
    <g style="fill:#262626;" transform="translate(295.357421 54.116873)scale(0.18 -0.18)">
     <use transform="translate(0 0.78125)" xlink:href="#DejaVuSans-Oblique-6e"/>
     <use transform="translate(82.861328 0.78125)" xlink:href="#DejaVuSans-3d"/>
     <use transform="translate(186.132812 0.78125)" xlink:href="#DejaVuSans-35"/>
     <use transform="translate(249.755859 0.78125)" xlink:href="#DejaVuSans-32"/>
     <use transform="translate(313.378906 0.78125)" xlink:href="#DejaVuSans-32"/>
    </g>
   </g>
  </g>
  <g id="axes_2">
   <g id="patch_27">
    <path d="M 382.677812 358.7 
L 705.040313 358.7 
L 705.040313 32.4 
L 382.677812 32.4 
z
" style="fill:#ffffff;"/>
   </g>
   <g id="patch_28">
    <path clip-path="url(#p8222924bea)" d="M 397.330653 337.387704 
L 429.892522 337.387704 
L 429.892522 318.699698 
L 397.330653 318.699698 
z
" style="fill:#d3d3d3;"/>
   </g>
   <g id="patch_29">
    <path clip-path="url(#p8222924bea)" d="M 429.892522 337.387704 
L 462.454391 337.387704 
L 462.454391 285.258003 
L 429.892522 285.258003 
z
" style="fill:#d3d3d3;"/>
   </g>
   <g id="patch_30">
    <path clip-path="url(#p8222924bea)" d="M 462.454391 337.387704 
L 495.016259 337.387704 
L 495.016259 226.243246 
L 462.454391 226.243246 
z
" style="fill:#d3d3d3;"/>
   </g>
   <g id="patch_31">
    <path clip-path="url(#p8222924bea)" d="M 495.016259 337.387704 
L 527.578128 337.387704 
L 527.578128 171.162807 
L 495.016259 171.162807 
z
" style="fill:#d3d3d3;"/>
   </g>
   <g id="patch_32">
    <path clip-path="url(#p8222924bea)" d="M 527.578128 337.387704 
L 560.139997 337.387704 
L 560.139997 145.589746 
L 527.578128 145.589746 
z
" style="fill:#d3d3d3;"/>
   </g>
   <g id="patch_33">
    <path clip-path="url(#p8222924bea)" d="M 560.139997 337.387704 
L 592.701866 337.387704 
L 592.701866 171.162807 
L 560.139997 171.162807 
z
" style="fill:#d3d3d3;"/>
   </g>
   <g id="patch_34">
    <path clip-path="url(#p8222924bea)" d="M 592.701866 337.387704 
L 625.263734 337.387704 
L 625.263734 226.243246 
L 592.701866 226.243246 
z
" style="fill:#d3d3d3;"/>
   </g>
   <g id="patch_35">
    <path clip-path="url(#p8222924bea)" d="M 625.263734 337.387704 
L 657.825603 337.387704 
L 657.825603 285.258003 
L 625.263734 285.258003 
z
" style="fill:#d3d3d3;"/>
   </g>
   <g id="patch_36">
    <path clip-path="url(#p8222924bea)" d="M 657.825603 337.387704 
L 690.387472 337.387704 
L 690.387472 318.699698 
L 657.825603 318.699698 
z
" style="fill:#d3d3d3;"/>
   </g>
   <g id="matplotlib.axis_3">
    <g id="xtick_6">
     <g id="line2d_14"/>
    </g>
    <g id="xtick_7">
     <g id="line2d_15"/>
    </g>
    <g id="xtick_8">
     <g id="line2d_16"/>
    </g>
    <g id="xtick_9">
     <g id="line2d_17"/>
    </g>
    <g id="xtick_10">
     <g id="line2d_18"/>
    </g>
   </g>
   <g id="matplotlib.axis_4">
    <g id="ytick_9">
     <g id="line2d_19"/>
    </g>
    <g id="ytick_10">
     <g id="line2d_20"/>
    </g>
    <g id="ytick_11">
     <g id="line2d_21"/>
    </g>
    <g id="ytick_12">
     <g id="line2d_22"/>
    </g>
    <g id="ytick_13">
     <g id="line2d_23"/>
    </g>
    <g id="ytick_14">
     <g id="line2d_24"/>
    </g>
    <g id="ytick_15">
     <g id="line2d_25"/>
    </g>
    <g id="ytick_16">
     <g id="line2d_26"/>
    </g>
   </g>
   <g id="patch_37">
    <path clip-path="url(#p8222924bea)" d="M 397.330653 337.387704 
L 429.892522 337.387704 
L 429.892522 338.371284 
L 397.330653 338.371284 
z
" style="fill:#ffffff;"/>
   </g>
   <g id="patch_38">
    <path clip-path="url(#p8222924bea)" d="M 429.892522 337.387704 
L 462.454391 337.387704 
L 462.454391 324.601174 
L 429.892522 324.601174 
z
" style="fill:#ffffff;"/>
   </g>
   <g id="patch_39">
    <path clip-path="url(#p8222924bea)" d="M 462.454391 337.387704 
L 495.016259 337.387704 
L 495.016259 287.225161 
L 462.454391 287.225161 
z
" style="fill:#ffffff;"/>
   </g>
   <g id="patch_40">
    <path clip-path="url(#p8222924bea)" d="M 495.016259 337.387704 
L 527.578128 337.387704 
L 527.578128 245.914832 
L 495.016259 245.914832 
z
" style="fill:#ffffff;"/>
   </g>
   <g id="patch_41">
    <path clip-path="url(#p8222924bea)" d="M 527.578128 337.387704 
L 560.139997 337.387704 
L 560.139997 224.276088 
L 527.578128 224.276088 
z
" style="fill:#ffffff;"/>
   </g>
   <g id="patch_42">
    <path clip-path="url(#p8222924bea)" d="M 560.139997 337.387704 
L 592.701866 337.387704 
L 592.701866 245.914832 
L 560.139997 245.914832 
z
" style="fill:#ffffff;"/>
   </g>
   <g id="patch_43">
    <path clip-path="url(#p8222924bea)" d="M 592.701866 337.387704 
L 625.263734 337.387704 
L 625.263734 287.225161 
L 592.701866 287.225161 
z
" style="fill:#ffffff;"/>
   </g>
   <g id="patch_44">
    <path clip-path="url(#p8222924bea)" d="M 625.263734 337.387704 
L 657.825603 337.387704 
L 657.825603 324.601174 
L 625.263734 324.601174 
z
" style="fill:#ffffff;"/>
   </g>
   <g id="patch_45">
    <path clip-path="url(#p8222924bea)" d="M 657.825603 337.387704 
L 690.387472 337.387704 
L 690.387472 338.371284 
L 657.825603 338.371284 
z
" style="fill:#ffffff;"/>
   </g>
   <g id="PathCollection_2">
    <defs>
     <path d="M 0 5 
C 1.326016 5 2.597899 4.473168 3.535534 3.535534 
C 4.473168 2.597899 5 1.326016 5 0 
C 5 -1.326016 4.473168 -2.597899 3.535534 -3.535534 
C 2.597899 -4.473168 1.326016 -5 0 -5 
C -1.326016 -5 -2.597899 -4.473168 -3.535534 -3.535534 
C -4.473168 -2.597899 -5 -1.326016 -5 0 
C -5 1.326016 -4.473168 2.597899 -3.535534 3.535534 
C -2.597899 4.473168 -1.326016 5 0 5 
z
" id="m4724d942d5" style="stroke:#984ea3;stroke-width:0.3;"/>
    </defs>
    <g clip-path="url(#p8222924bea)">
     <use style="fill:#984ea3;stroke:#984ea3;stroke-width:0.3;" x="413.611588" xlink:href="#m4724d942d5" y="327.551912"/>
     <use style="fill:#984ea3;stroke:#984ea3;stroke-width:0.3;" x="446.173456" xlink:href="#m4724d942d5" y="296.077375"/>
     <use style="fill:#984ea3;stroke:#984ea3;stroke-width:0.3;" x="478.735325" xlink:href="#m4724d942d5" y="246.898411"/>
     <use style="fill:#984ea3;stroke:#984ea3;stroke-width:0.3;" x="511.297194" xlink:href="#m4724d942d5" y="205.588081"/>
     <use style="fill:#984ea3;stroke:#984ea3;stroke-width:0.3;" x="543.859062" xlink:href="#m4724d942d5" y="213.456716"/>
     <use style="fill:#984ea3;stroke:#984ea3;stroke-width:0.3;" x="576.420931" xlink:href="#m4724d942d5" y="213.456716"/>
     <use style="fill:#984ea3;stroke:#984ea3;stroke-width:0.3;" x="608.9828" xlink:href="#m4724d942d5" y="260.668521"/>
     <use style="fill:#984ea3;stroke:#984ea3;stroke-width:0.3;" x="641.544669" xlink:href="#m4724d942d5" y="300.011692"/>
     <use style="fill:#984ea3;stroke:#984ea3;stroke-width:0.3;" x="674.106537" xlink:href="#m4724d942d5" y="321.650436"/>
    </g>
   </g>
   <g id="patch_46">
    <path d="M 382.677812 358.7 
L 382.677812 32.4 
" style="fill:none;stroke:#262626;stroke-linecap:square;stroke-linejoin:miter;stroke-width:1.25;"/>
   </g>
   <g id="patch_47">
    <path d="M 705.040313 358.7 
L 705.040313 32.4 
" style="fill:none;stroke:#262626;stroke-linecap:square;stroke-linejoin:miter;stroke-width:1.25;"/>
   </g>
   <g id="patch_48">
    <path d="M 382.677812 358.7 
L 705.040313 358.7 
" style="fill:none;stroke:#262626;stroke-linecap:square;stroke-linejoin:miter;stroke-width:1.25;"/>
   </g>
   <g id="patch_49">
    <path d="M 382.677812 32.4 
L 705.040313 32.4 
" style="fill:none;stroke:#262626;stroke-linecap:square;stroke-linejoin:miter;stroke-width:1.25;"/>
   </g>
   <g id="text_14">
    <!-- Black Dice -->
    <defs>
     <path d="M 6.640625 0 
L 6.640625 71.578125 
L 15.4375 71.578125 
L 15.4375 30.765625 
L 36.234375 51.859375 
L 47.609375 51.859375 
L 27.78125 32.625 
L 49.609375 0 
L 38.765625 0 
L 21.625 26.515625 
L 15.4375 20.5625 
L 15.4375 0 
z
" id="ArialMT-6b"/>
    </defs>
    <g style="fill:#262626;" transform="translate(390.81828 54.116873)scale(0.18 -0.18)">
     <use xlink:href="#ArialMT-42"/>
     <use x="66.699219" xlink:href="#ArialMT-6c"/>
     <use x="88.916016" xlink:href="#ArialMT-61"/>
     <use x="144.53125" xlink:href="#ArialMT-63"/>
     <use x="194.53125" xlink:href="#ArialMT-6b"/>
     <use x="244.53125" xlink:href="#ArialMT-20"/>
     <use x="272.314453" xlink:href="#ArialMT-44"/>
     <use x="344.53125" xlink:href="#ArialMT-69"/>
     <use x="366.748047" xlink:href="#ArialMT-63"/>
     <use x="416.748047" xlink:href="#ArialMT-65"/>
    </g>
   </g>
   <g id="text_15">
    <!-- $n=331$ -->
    <defs>
     <path d="M 40.578125 39.3125 
Q 47.65625 37.796875 51.625 33 
Q 55.609375 28.21875 55.609375 21.1875 
Q 55.609375 10.40625 48.1875 4.484375 
Q 40.765625 -1.421875 27.09375 -1.421875 
Q 22.515625 -1.421875 17.65625 -0.515625 
Q 12.796875 0.390625 7.625 2.203125 
L 7.625 11.71875 
Q 11.71875 9.328125 16.59375 8.109375 
Q 21.484375 6.890625 26.8125 6.890625 
Q 36.078125 6.890625 40.9375 10.546875 
Q 45.796875 14.203125 45.796875 21.1875 
Q 45.796875 27.640625 41.28125 31.265625 
Q 36.765625 34.90625 28.71875 34.90625 
L 20.21875 34.90625 
L 20.21875 43.015625 
L 29.109375 43.015625 
Q 36.375 43.015625 40.234375 45.921875 
Q 44.09375 48.828125 44.09375 54.296875 
Q 44.09375 59.90625 40.109375 62.90625 
Q 36.140625 65.921875 28.71875 65.921875 
Q 24.65625 65.921875 20.015625 65.03125 
Q 15.375 64.15625 9.8125 62.3125 
L 9.8125 71.09375 
Q 15.4375 72.65625 20.34375 73.4375 
Q 25.25 74.21875 29.59375 74.21875 
Q 40.828125 74.21875 47.359375 69.109375 
Q 53.90625 64.015625 53.90625 55.328125 
Q 53.90625 49.265625 50.4375 45.09375 
Q 46.96875 40.921875 40.578125 39.3125 
z
" id="DejaVuSans-33"/>
     <path d="M 12.40625 8.296875 
L 28.515625 8.296875 
L 28.515625 63.921875 
L 10.984375 60.40625 
L 10.984375 69.390625 
L 28.421875 72.90625 
L 38.28125 72.90625 
L 38.28125 8.296875 
L 54.390625 8.296875 
L 54.390625 0 
L 12.40625 0 
z
" id="DejaVuSans-31"/>
    </defs>
    <g style="fill:#262626;" transform="translate(628.519921 54.116873)scale(0.18 -0.18)">
     <use transform="translate(0 0.78125)" xlink:href="#DejaVuSans-Oblique-6e"/>
     <use transform="translate(82.861328 0.78125)" xlink:href="#DejaVuSans-3d"/>
     <use transform="translate(186.132812 0.78125)" xlink:href="#DejaVuSans-33"/>
     <use transform="translate(249.755859 0.78125)" xlink:href="#DejaVuSans-33"/>
     <use transform="translate(313.378906 0.78125)" xlink:href="#DejaVuSans-31"/>
    </g>
   </g>
  </g>
  <g id="axes_3">
   <g id="patch_50">
    <path d="M 49.515313 695.8 
L 371.877812 695.8 
L 371.877812 369.5 
L 49.515313 369.5 
z
" style="fill:#ffffff;"/>
   </g>
   <g id="patch_51">
    <path clip-path="url(#p5a55e17e2e)" d="M 64.168153 674.487704 
L 96.730022 674.487704 
L 96.730022 657.766857 
L 64.168153 657.766857 
z
" style="fill:#d3d3d3;"/>
   </g>
   <g id="patch_52">
    <path clip-path="url(#p5a55e17e2e)" d="M 96.730022 674.487704 
L 129.291891 674.487704 
L 129.291891 628.259478 
L 96.730022 628.259478 
z
" style="fill:#d3d3d3;"/>
   </g>
   <g id="patch_53">
    <path clip-path="url(#p5a55e17e2e)" d="M 129.291891 674.487704 
L 161.853759 674.487704 
L 161.853759 577.113356 
L 129.291891 577.113356 
z
" style="fill:#d3d3d3;"/>
   </g>
   <g id="patch_54">
    <path clip-path="url(#p5a55e17e2e)" d="M 161.853759 674.487704 
L 194.415628 674.487704 
L 194.415628 531.868709 
L 161.853759 531.868709 
z
" style="fill:#d3d3d3;"/>
   </g>
   <g id="patch_55">
    <path clip-path="url(#p5a55e17e2e)" d="M 194.415628 674.487704 
L 226.977497 674.487704 
L 226.977497 508.262807 
L 194.415628 508.262807 
z
" style="fill:#d3d3d3;"/>
   </g>
   <g id="patch_56">
    <path clip-path="url(#p5a55e17e2e)" d="M 226.977497 674.487704 
L 259.539366 674.487704 
L 259.539366 531.868709 
L 226.977497 531.868709 
z
" style="fill:#d3d3d3;"/>
   </g>
   <g id="patch_57">
    <path clip-path="url(#p5a55e17e2e)" d="M 259.539366 674.487704 
L 292.101234 674.487704 
L 292.101234 577.113356 
L 259.539366 577.113356 
z
" style="fill:#d3d3d3;"/>
   </g>
   <g id="patch_58">
    <path clip-path="url(#p5a55e17e2e)" d="M 292.101234 674.487704 
L 324.663103 674.487704 
L 324.663103 628.259478 
L 292.101234 628.259478 
z
" style="fill:#d3d3d3;"/>
   </g>
   <g id="patch_59">
    <path clip-path="url(#p5a55e17e2e)" d="M 324.663103 674.487704 
L 357.224972 674.487704 
L 357.224972 657.766857 
L 324.663103 657.766857 
z
" style="fill:#d3d3d3;"/>
   </g>
   <g id="matplotlib.axis_5">
    <g id="xtick_11">
     <g id="line2d_27"/>
     <g id="text_16">
      <!-- −4 -->
      <defs>
       <path d="M 52.828125 31.203125 
L 5.5625 31.203125 
L 5.5625 39.40625 
L 52.828125 39.40625 
z
" id="ArialMT-2212"/>
      </defs>
      <g style="fill:#262626;" transform="translate(74.748307 709.957812)scale(0.1 -0.1)">
       <use xlink:href="#ArialMT-2212"/>
       <use x="58.398438" xlink:href="#ArialMT-34"/>
      </g>
     </g>
    </g>
    <g id="xtick_12">
     <g id="line2d_28"/>
     <g id="text_17">
      <!-- −2 -->
      <g style="fill:#262626;" transform="translate(139.872044 709.957812)scale(0.1 -0.1)">
       <use xlink:href="#ArialMT-2212"/>
       <use x="58.398438" xlink:href="#ArialMT-32"/>
      </g>
     </g>
    </g>
    <g id="xtick_13">
     <g id="line2d_29"/>
     <g id="text_18">
      <!-- 0 -->
      <g style="fill:#262626;" transform="translate(207.916094 709.957812)scale(0.1 -0.1)">
       <use xlink:href="#ArialMT-30"/>
      </g>
     </g>
    </g>
    <g id="xtick_14">
     <g id="line2d_30"/>
     <g id="text_19">
      <!-- 2 -->
      <g style="fill:#262626;" transform="translate(273.039831 709.957812)scale(0.1 -0.1)">
       <use xlink:href="#ArialMT-32"/>
      </g>
     </g>
    </g>
    <g id="xtick_15">
     <g id="line2d_31"/>
     <g id="text_20">
      <!-- 4 -->
      <g style="fill:#262626;" transform="translate(338.163568 709.957812)scale(0.1 -0.1)">
       <use xlink:href="#ArialMT-34"/>
      </g>
     </g>
    </g>
    <g id="text_21">
     <!-- 4dF Result -->
     <defs>
      <path d="M 8.203125 0 
L 8.203125 71.578125 
L 56.5 71.578125 
L 56.5 63.140625 
L 17.671875 63.140625 
L 17.671875 40.96875 
L 51.265625 40.96875 
L 51.265625 32.515625 
L 17.671875 32.515625 
L 17.671875 0 
z
" id="ArialMT-46"/>
      <path d="M 7.859375 0 
L 7.859375 71.578125 
L 39.59375 71.578125 
Q 49.171875 71.578125 54.140625 69.640625 
Q 59.125 67.71875 62.109375 62.828125 
Q 65.09375 57.953125 65.09375 52.046875 
Q 65.09375 44.4375 60.15625 39.203125 
Q 55.21875 33.984375 44.921875 32.5625 
Q 48.6875 30.765625 50.640625 29 
Q 54.78125 25.203125 58.5 19.484375 
L 70.953125 0 
L 59.03125 0 
L 49.5625 14.890625 
Q 45.40625 21.34375 42.71875 24.75 
Q 40.046875 28.171875 37.921875 29.53125 
Q 35.796875 30.90625 33.59375 31.453125 
Q 31.984375 31.78125 28.328125 31.78125 
L 17.328125 31.78125 
L 17.328125 0 
z
M 17.328125 39.984375 
L 37.703125 39.984375 
Q 44.1875 39.984375 47.84375 41.328125 
Q 51.515625 42.671875 53.421875 45.625 
Q 55.328125 48.578125 55.328125 52.046875 
Q 55.328125 57.125 51.640625 60.390625 
Q 47.953125 63.671875 39.984375 63.671875 
L 17.328125 63.671875 
z
" id="ArialMT-52"/>
     </defs>
     <g style="fill:#262626;" transform="translate(172.015312 727.397812)scale(0.16 -0.16)">
      <use xlink:href="#ArialMT-34"/>
      <use x="55.615234" xlink:href="#ArialMT-64"/>
      <use x="111.230469" xlink:href="#ArialMT-46"/>
      <use x="172.314453" xlink:href="#ArialMT-20"/>
      <use x="200.097656" xlink:href="#ArialMT-52"/>
      <use x="272.314453" xlink:href="#ArialMT-65"/>
      <use x="327.929688" xlink:href="#ArialMT-73"/>
      <use x="377.929688" xlink:href="#ArialMT-75"/>
      <use x="433.544922" xlink:href="#ArialMT-6c"/>
      <use x="455.761719" xlink:href="#ArialMT-74"/>
     </g>
    </g>
   </g>
   <g id="matplotlib.axis_6">
    <g id="ytick_17">
     <g id="line2d_32"/>
     <g id="text_22">
      <!-- 0 -->
      <g style="fill:#262626;" transform="translate(36.954375 678.066611)scale(0.1 -0.1)">
       <use xlink:href="#ArialMT-30"/>
      </g>
     </g>
    </g>
    <g id="ytick_18">
     <g id="line2d_33"/>
     <g id="text_23">
      <!-- 20 -->
      <g style="fill:#262626;" transform="translate(31.393438 638.72344)scale(0.1 -0.1)">
       <use xlink:href="#ArialMT-32"/>
       <use x="55.615234" xlink:href="#ArialMT-30"/>
      </g>
     </g>
    </g>
    <g id="ytick_19">
     <g id="line2d_34"/>
     <g id="text_24">
      <!-- 40 -->
      <g style="fill:#262626;" transform="translate(31.393438 599.380269)scale(0.1 -0.1)">
       <use xlink:href="#ArialMT-34"/>
       <use x="55.615234" xlink:href="#ArialMT-30"/>
      </g>
     </g>
    </g>
    <g id="ytick_20">
     <g id="line2d_35"/>
     <g id="text_25">
      <!-- 60 -->
      <g style="fill:#262626;" transform="translate(31.393438 560.037098)scale(0.1 -0.1)">
       <use xlink:href="#ArialMT-36"/>
       <use x="55.615234" xlink:href="#ArialMT-30"/>
      </g>
     </g>
    </g>
    <g id="ytick_21">
     <g id="line2d_36"/>
     <g id="text_26">
      <!-- 80 -->
      <g style="fill:#262626;" transform="translate(31.393438 520.693927)scale(0.1 -0.1)">
       <use xlink:href="#ArialMT-38"/>
       <use x="55.615234" xlink:href="#ArialMT-30"/>
      </g>
     </g>
    </g>
    <g id="ytick_22">
     <g id="line2d_37"/>
     <g id="text_27">
      <!-- 100 -->
      <g style="fill:#262626;" transform="translate(25.8325 481.350756)scale(0.1 -0.1)">
       <use xlink:href="#ArialMT-31"/>
       <use x="55.615234" xlink:href="#ArialMT-30"/>
       <use x="111.230469" xlink:href="#ArialMT-30"/>
      </g>
     </g>
    </g>
    <g id="ytick_23">
     <g id="line2d_38"/>
     <g id="text_28">
      <!-- 120 -->
      <g style="fill:#262626;" transform="translate(25.8325 442.007585)scale(0.1 -0.1)">
       <use xlink:href="#ArialMT-31"/>
       <use x="55.615234" xlink:href="#ArialMT-32"/>
       <use x="111.230469" xlink:href="#ArialMT-30"/>
      </g>
     </g>
    </g>
    <g id="ytick_24">
     <g id="line2d_39"/>
     <g id="text_29">
      <!-- 140 -->
      <g style="fill:#262626;" transform="translate(25.8325 402.664414)scale(0.1 -0.1)">
       <use xlink:href="#ArialMT-31"/>
       <use x="55.615234" xlink:href="#ArialMT-34"/>
       <use x="111.230469" xlink:href="#ArialMT-30"/>
      </g>
     </g>
    </g>
    <g id="text_30">
     <!-- Count -->
     <g style="fill:#262626;" transform="translate(18.6525 553.99625)rotate(-90)scale(0.16 -0.16)">
      <use xlink:href="#ArialMT-43"/>
      <use x="72.216797" xlink:href="#ArialMT-6f"/>
      <use x="127.832031" xlink:href="#ArialMT-75"/>
      <use x="183.447266" xlink:href="#ArialMT-6e"/>
      <use x="239.0625" xlink:href="#ArialMT-74"/>
     </g>
    </g>
   </g>
   <g id="patch_60">
    <path clip-path="url(#p5a55e17e2e)" d="M 64.168153 674.487704 
L 96.730022 674.487704 
L 96.730022 675.471284 
L 64.168153 675.471284 
z
" style="fill:#ffffff;"/>
   </g>
   <g id="patch_61">
    <path clip-path="url(#p5a55e17e2e)" d="M 96.730022 674.487704 
L 129.291891 674.487704 
L 129.291891 663.668332 
L 96.730022 663.668332 
z
" style="fill:#ffffff;"/>
   </g>
   <g id="patch_62">
    <path clip-path="url(#p5a55e17e2e)" d="M 129.291891 674.487704 
L 161.853759 674.487704 
L 161.853759 634.160954 
L 129.291891 634.160954 
z
" style="fill:#ffffff;"/>
   </g>
   <g id="patch_63">
    <path clip-path="url(#p5a55e17e2e)" d="M 161.853759 674.487704 
L 194.415628 674.487704 
L 194.415628 598.7521 
L 161.853759 598.7521 
z
" style="fill:#ffffff;"/>
   </g>
   <g id="patch_64">
    <path clip-path="url(#p5a55e17e2e)" d="M 194.415628 674.487704 
L 226.977497 674.487704 
L 226.977497 581.047673 
L 194.415628 581.047673 
z
" style="fill:#ffffff;"/>
   </g>
   <g id="patch_65">
    <path clip-path="url(#p5a55e17e2e)" d="M 226.977497 674.487704 
L 259.539366 674.487704 
L 259.539366 598.7521 
L 226.977497 598.7521 
z
" style="fill:#ffffff;"/>
   </g>
   <g id="patch_66">
    <path clip-path="url(#p5a55e17e2e)" d="M 259.539366 674.487704 
L 292.101234 674.487704 
L 292.101234 634.160954 
L 259.539366 634.160954 
z
" style="fill:#ffffff;"/>
   </g>
   <g id="patch_67">
    <path clip-path="url(#p5a55e17e2e)" d="M 292.101234 674.487704 
L 324.663103 674.487704 
L 324.663103 663.668332 
L 292.101234 663.668332 
z
" style="fill:#ffffff;"/>
   </g>
   <g id="patch_68">
    <path clip-path="url(#p5a55e17e2e)" d="M 324.663103 674.487704 
L 357.224972 674.487704 
L 357.224972 675.471284 
L 324.663103 675.471284 
z
" style="fill:#ffffff;"/>
   </g>
   <g id="PathCollection_3">
    <defs>
     <path d="M 0 5 
C 1.326016 5 2.597899 4.473168 3.535534 3.535534 
C 4.473168 2.597899 5 1.326016 5 0 
C 5 -1.326016 4.473168 -2.597899 3.535534 -3.535534 
C 2.597899 -4.473168 1.326016 -5 0 -5 
C -1.326016 -5 -2.597899 -4.473168 -3.535534 -3.535534 
C -4.473168 -2.597899 -5 -1.326016 -5 0 
C -5 1.326016 -4.473168 2.597899 -3.535534 3.535534 
C -2.597899 4.473168 -1.326016 5 0 5 
z
" id="mfee2c5a138" style="stroke:#e41a1c;stroke-width:0.3;"/>
    </defs>
    <g clip-path="url(#p5a55e17e2e)">
     <use style="fill:#e41a1c;stroke:#e41a1c;stroke-width:0.3;" x="80.449088" xlink:href="#mfee2c5a138" y="658.750436"/>
     <use style="fill:#e41a1c;stroke:#e41a1c;stroke-width:0.3;" x="113.010956" xlink:href="#mfee2c5a138" y="660.717595"/>
     <use style="fill:#e41a1c;stroke:#e41a1c;stroke-width:0.3;" x="145.572825" xlink:href="#mfee2c5a138" y="605.637155"/>
     <use style="fill:#e41a1c;stroke:#e41a1c;stroke-width:0.3;" x="178.134694" xlink:href="#mfee2c5a138" y="568.261143"/>
     <use style="fill:#e41a1c;stroke:#e41a1c;stroke-width:0.3;" x="210.696562" xlink:href="#mfee2c5a138" y="540.720923"/>
     <use style="fill:#e41a1c;stroke:#e41a1c;stroke-width:0.3;" x="243.258431" xlink:href="#mfee2c5a138" y="570.228301"/>
     <use style="fill:#e41a1c;stroke:#e41a1c;stroke-width:0.3;" x="275.8203" xlink:href="#mfee2c5a138" y="597.768521"/>
     <use style="fill:#e41a1c;stroke:#e41a1c;stroke-width:0.3;" x="308.382169" xlink:href="#mfee2c5a138" y="648.914643"/>
     <use style="fill:#e41a1c;stroke:#e41a1c;stroke-width:0.3;" x="340.944037" xlink:href="#mfee2c5a138" y="664.651912"/>
    </g>
   </g>
   <g id="patch_69">
    <path d="M 49.515313 695.8 
L 49.515313 369.5 
" style="fill:none;stroke:#262626;stroke-linecap:square;stroke-linejoin:miter;stroke-width:1.25;"/>
   </g>
   <g id="patch_70">
    <path d="M 371.877812 695.8 
L 371.877812 369.5 
" style="fill:none;stroke:#262626;stroke-linecap:square;stroke-linejoin:miter;stroke-width:1.25;"/>
   </g>
   <g id="patch_71">
    <path d="M 49.515312 695.8 
L 371.877813 695.8 
" style="fill:none;stroke:#262626;stroke-linecap:square;stroke-linejoin:miter;stroke-width:1.25;"/>
   </g>
   <g id="patch_72">
    <path d="M 49.515312 369.5 
L 371.877813 369.5 
" style="fill:none;stroke:#262626;stroke-linecap:square;stroke-linejoin:miter;stroke-width:1.25;"/>
   </g>
   <g id="text_31">
    <!-- Red Dice -->
    <g style="fill:#262626;" transform="translate(57.65578 391.216873)scale(0.18 -0.18)">
     <use xlink:href="#ArialMT-52"/>
     <use x="72.216797" xlink:href="#ArialMT-65"/>
     <use x="127.832031" xlink:href="#ArialMT-64"/>
     <use x="183.447266" xlink:href="#ArialMT-20"/>
     <use x="211.230469" xlink:href="#ArialMT-44"/>
     <use x="283.447266" xlink:href="#ArialMT-69"/>
     <use x="305.664062" xlink:href="#ArialMT-63"/>
     <use x="355.664062" xlink:href="#ArialMT-65"/>
    </g>
   </g>
   <g id="text_32">
    <!-- $n=282$ -->
    <defs>
     <path d="M 31.78125 34.625 
Q 24.75 34.625 20.71875 30.859375 
Q 16.703125 27.09375 16.703125 20.515625 
Q 16.703125 13.921875 20.71875 10.15625 
Q 24.75 6.390625 31.78125 6.390625 
Q 38.8125 6.390625 42.859375 10.171875 
Q 46.921875 13.96875 46.921875 20.515625 
Q 46.921875 27.09375 42.890625 30.859375 
Q 38.875 34.625 31.78125 34.625 
z
M 21.921875 38.8125 
Q 15.578125 40.375 12.03125 44.71875 
Q 8.5 49.078125 8.5 55.328125 
Q 8.5 64.0625 14.71875 69.140625 
Q 20.953125 74.21875 31.78125 74.21875 
Q 42.671875 74.21875 48.875 69.140625 
Q 55.078125 64.0625 55.078125 55.328125 
Q 55.078125 49.078125 51.53125 44.71875 
Q 48 40.375 41.703125 38.8125 
Q 48.828125 37.15625 52.796875 32.3125 
Q 56.78125 27.484375 56.78125 20.515625 
Q 56.78125 9.90625 50.3125 4.234375 
Q 43.84375 -1.421875 31.78125 -1.421875 
Q 19.734375 -1.421875 13.25 4.234375 
Q 6.78125 9.90625 6.78125 20.515625 
Q 6.78125 27.484375 10.78125 32.3125 
Q 14.796875 37.15625 21.921875 38.8125 
z
M 18.3125 54.390625 
Q 18.3125 48.734375 21.84375 45.5625 
Q 25.390625 42.390625 31.78125 42.390625 
Q 38.140625 42.390625 41.71875 45.5625 
Q 45.3125 48.734375 45.3125 54.390625 
Q 45.3125 60.0625 41.71875 63.234375 
Q 38.140625 66.40625 31.78125 66.40625 
Q 25.390625 66.40625 21.84375 63.234375 
Q 18.3125 60.0625 18.3125 54.390625 
z
" id="DejaVuSans-38"/>
    </defs>
    <g style="fill:#262626;" transform="translate(295.357421 391.216873)scale(0.18 -0.18)">
     <use transform="translate(0 0.78125)" xlink:href="#DejaVuSans-Oblique-6e"/>
     <use transform="translate(82.861328 0.78125)" xlink:href="#DejaVuSans-3d"/>
     <use transform="translate(186.132812 0.78125)" xlink:href="#DejaVuSans-32"/>
     <use transform="translate(249.755859 0.78125)" xlink:href="#DejaVuSans-38"/>
     <use transform="translate(313.378906 0.78125)" xlink:href="#DejaVuSans-32"/>
    </g>
   </g>
  </g>
  <g id="axes_4">
   <g id="patch_73">
    <path d="M 382.677812 695.8 
L 705.040313 695.8 
L 705.040313 369.5 
L 382.677812 369.5 
z
" style="fill:#ffffff;"/>
   </g>
   <g id="patch_74">
    <path clip-path="url(#pa6cd29e796)" d="M 397.330653 674.487704 
L 429.892522 674.487704 
L 429.892522 663.668332 
L 397.330653 663.668332 
z
" style="fill:#d3d3d3;"/>
   </g>
   <g id="patch_75">
    <path clip-path="url(#pa6cd29e796)" d="M 429.892522 674.487704 
L 462.454391 674.487704 
L 462.454391 647.931064 
L 429.892522 647.931064 
z
" style="fill:#d3d3d3;"/>
   </g>
   <g id="patch_76">
    <path clip-path="url(#pa6cd29e796)" d="M 462.454391 674.487704 
L 495.016259 674.487704 
L 495.016259 620.390844 
L 462.454391 620.390844 
z
" style="fill:#d3d3d3;"/>
   </g>
   <g id="patch_77">
    <path clip-path="url(#pa6cd29e796)" d="M 495.016259 674.487704 
L 527.578128 674.487704 
L 527.578128 596.784942 
L 495.016259 596.784942 
z
" style="fill:#d3d3d3;"/>
   </g>
   <g id="patch_78">
    <path clip-path="url(#pa6cd29e796)" d="M 527.578128 674.487704 
L 560.139997 674.487704 
L 560.139997 584.98199 
L 527.578128 584.98199 
z
" style="fill:#d3d3d3;"/>
   </g>
   <g id="patch_79">
    <path clip-path="url(#pa6cd29e796)" d="M 560.139997 674.487704 
L 592.701866 674.487704 
L 592.701866 596.784942 
L 560.139997 596.784942 
z
" style="fill:#d3d3d3;"/>
   </g>
   <g id="patch_80">
    <path clip-path="url(#pa6cd29e796)" d="M 592.701866 674.487704 
L 625.263734 674.487704 
L 625.263734 620.390844 
L 592.701866 620.390844 
z
" style="fill:#d3d3d3;"/>
   </g>
   <g id="patch_81">
    <path clip-path="url(#pa6cd29e796)" d="M 625.263734 674.487704 
L 657.825603 674.487704 
L 657.825603 647.931064 
L 625.263734 647.931064 
z
" style="fill:#d3d3d3;"/>
   </g>
   <g id="patch_82">
    <path clip-path="url(#pa6cd29e796)" d="M 657.825603 674.487704 
L 690.387472 674.487704 
L 690.387472 663.668332 
L 657.825603 663.668332 
z
" style="fill:#d3d3d3;"/>
   </g>
   <g id="matplotlib.axis_7">
    <g id="xtick_16">
     <g id="line2d_40"/>
     <g id="text_33">
      <!-- −4 -->
      <g style="fill:#262626;" transform="translate(407.910807 709.957812)scale(0.1 -0.1)">
       <use xlink:href="#ArialMT-2212"/>
       <use x="58.398438" xlink:href="#ArialMT-34"/>
      </g>
     </g>
    </g>
    <g id="xtick_17">
     <g id="line2d_41"/>
     <g id="text_34">
      <!-- −2 -->
      <g style="fill:#262626;" transform="translate(473.034544 709.957812)scale(0.1 -0.1)">
       <use xlink:href="#ArialMT-2212"/>
       <use x="58.398438" xlink:href="#ArialMT-32"/>
      </g>
     </g>
    </g>
    <g id="xtick_18">
     <g id="line2d_42"/>
     <g id="text_35">
      <!-- 0 -->
      <g style="fill:#262626;" transform="translate(541.078594 709.957812)scale(0.1 -0.1)">
       <use xlink:href="#ArialMT-30"/>
      </g>
     </g>
    </g>
    <g id="xtick_19">
     <g id="line2d_43"/>
     <g id="text_36">
      <!-- 2 -->
      <g style="fill:#262626;" transform="translate(606.202331 709.957812)scale(0.1 -0.1)">
       <use xlink:href="#ArialMT-32"/>
      </g>
     </g>
    </g>
    <g id="xtick_20">
     <g id="line2d_44"/>
     <g id="text_37">
      <!-- 4 -->
      <g style="fill:#262626;" transform="translate(671.326068 709.957812)scale(0.1 -0.1)">
       <use xlink:href="#ArialMT-34"/>
      </g>
     </g>
    </g>
    <g id="text_38">
     <!-- 4dF Result -->
     <g style="fill:#262626;" transform="translate(505.177812 727.397812)scale(0.16 -0.16)">
      <use xlink:href="#ArialMT-34"/>
      <use x="55.615234" xlink:href="#ArialMT-64"/>
      <use x="111.230469" xlink:href="#ArialMT-46"/>
      <use x="172.314453" xlink:href="#ArialMT-20"/>
      <use x="200.097656" xlink:href="#ArialMT-52"/>
      <use x="272.314453" xlink:href="#ArialMT-65"/>
      <use x="327.929688" xlink:href="#ArialMT-73"/>
      <use x="377.929688" xlink:href="#ArialMT-75"/>
      <use x="433.544922" xlink:href="#ArialMT-6c"/>
      <use x="455.761719" xlink:href="#ArialMT-74"/>
     </g>
    </g>
   </g>
   <g id="matplotlib.axis_8">
    <g id="ytick_25">
     <g id="line2d_45"/>
    </g>
    <g id="ytick_26">
     <g id="line2d_46"/>
    </g>
    <g id="ytick_27">
     <g id="line2d_47"/>
    </g>
    <g id="ytick_28">
     <g id="line2d_48"/>
    </g>
    <g id="ytick_29">
     <g id="line2d_49"/>
    </g>
    <g id="ytick_30">
     <g id="line2d_50"/>
    </g>
    <g id="ytick_31">
     <g id="line2d_51"/>
    </g>
    <g id="ytick_32">
     <g id="line2d_52"/>
    </g>
   </g>
   <g id="patch_83">
    <path clip-path="url(#pa6cd29e796)" d="M 397.330653 674.487704 
L 429.892522 674.487704 
L 429.892522 675.471284 
L 397.330653 675.471284 
z
" style="fill:#ffffff;"/>
   </g>
   <g id="patch_84">
    <path clip-path="url(#pa6cd29e796)" d="M 429.892522 674.487704 
L 462.454391 674.487704 
L 462.454391 673.504125 
L 429.892522 673.504125 
z
" style="fill:#ffffff;"/>
   </g>
   <g id="patch_85">
    <path clip-path="url(#pa6cd29e796)" d="M 462.454391 674.487704 
L 495.016259 674.487704 
L 495.016259 659.734015 
L 462.454391 659.734015 
z
" style="fill:#ffffff;"/>
   </g>
   <g id="patch_86">
    <path clip-path="url(#pa6cd29e796)" d="M 495.016259 674.487704 
L 527.578128 674.487704 
L 527.578128 643.996747 
L 495.016259 643.996747 
z
" style="fill:#ffffff;"/>
   </g>
   <g id="patch_87">
    <path clip-path="url(#pa6cd29e796)" d="M 527.578128 674.487704 
L 560.139997 674.487704 
L 560.139997 636.128113 
L 527.578128 636.128113 
z
" style="fill:#ffffff;"/>
   </g>
   <g id="patch_88">
    <path clip-path="url(#pa6cd29e796)" d="M 560.139997 674.487704 
L 592.701866 674.487704 
L 592.701866 643.996747 
L 560.139997 643.996747 
z
" style="fill:#ffffff;"/>
   </g>
   <g id="patch_89">
    <path clip-path="url(#pa6cd29e796)" d="M 592.701866 674.487704 
L 625.263734 674.487704 
L 625.263734 659.734015 
L 592.701866 659.734015 
z
" style="fill:#ffffff;"/>
   </g>
   <g id="patch_90">
    <path clip-path="url(#pa6cd29e796)" d="M 625.263734 674.487704 
L 657.825603 674.487704 
L 657.825603 673.504125 
L 625.263734 673.504125 
z
" style="fill:#ffffff;"/>
   </g>
   <g id="patch_91">
    <path clip-path="url(#pa6cd29e796)" d="M 657.825603 674.487704 
L 690.387472 674.487704 
L 690.387472 675.471284 
L 657.825603 675.471284 
z
" style="fill:#ffffff;"/>
   </g>
   <g id="PathCollection_4">
    <defs>
     <path d="M 0 5 
C 1.326016 5 2.597899 4.473168 3.535534 3.535534 
C 4.473168 2.597899 5 1.326016 5 0 
C 5 -1.326016 4.473168 -2.597899 3.535534 -3.535534 
C 2.597899 -4.473168 1.326016 -5 0 -5 
C -1.326016 -5 -2.597899 -4.473168 -3.535534 -3.535534 
C -4.473168 -2.597899 -5 -1.326016 -5 0 
C -5 1.326016 -4.473168 2.597899 -3.535534 3.535534 
C -2.597899 4.473168 -1.326016 5 0 5 
z
" id="m592fb22103" style="stroke:#4daf4a;stroke-width:0.3;"/>
    </defs>
    <g clip-path="url(#pa6cd29e796)">
     <use style="fill:#4daf4a;stroke:#4daf4a;stroke-width:0.3;" x="413.611588" xlink:href="#m592fb22103" y="672.520546"/>
     <use style="fill:#4daf4a;stroke:#4daf4a;stroke-width:0.3;" x="446.173456" xlink:href="#m592fb22103" y="666.61907"/>
     <use style="fill:#4daf4a;stroke:#4daf4a;stroke-width:0.3;" x="478.735325" xlink:href="#m592fb22103" y="648.914643"/>
     <use style="fill:#4daf4a;stroke:#4daf4a;stroke-width:0.3;" x="511.297194" xlink:href="#m592fb22103" y="621.374424"/>
     <use style="fill:#4daf4a;stroke:#4daf4a;stroke-width:0.3;" x="543.859062" xlink:href="#m592fb22103" y="595.801362"/>
     <use style="fill:#4daf4a;stroke:#4daf4a;stroke-width:0.3;" x="576.420931" xlink:href="#m592fb22103" y="627.275899"/>
     <use style="fill:#4daf4a;stroke:#4daf4a;stroke-width:0.3;" x="608.9828" xlink:href="#m592fb22103" y="646.947485"/>
     <use style="fill:#4daf4a;stroke:#4daf4a;stroke-width:0.3;" x="641.544669" xlink:href="#m592fb22103" y="643.013168"/>
     <use style="fill:#4daf4a;stroke:#4daf4a;stroke-width:0.3;" x="674.106537" xlink:href="#m592fb22103" y="674.487704"/>
    </g>
   </g>
   <g id="patch_92">
    <path d="M 382.677812 695.8 
L 382.677812 369.5 
" style="fill:none;stroke:#262626;stroke-linecap:square;stroke-linejoin:miter;stroke-width:1.25;"/>
   </g>
   <g id="patch_93">
    <path d="M 705.040313 695.8 
L 705.040313 369.5 
" style="fill:none;stroke:#262626;stroke-linecap:square;stroke-linejoin:miter;stroke-width:1.25;"/>
   </g>
   <g id="patch_94">
    <path d="M 382.677812 695.8 
L 705.040313 695.8 
" style="fill:none;stroke:#262626;stroke-linecap:square;stroke-linejoin:miter;stroke-width:1.25;"/>
   </g>
   <g id="patch_95">
    <path d="M 382.677812 369.5 
L 705.040313 369.5 
" style="fill:none;stroke:#262626;stroke-linecap:square;stroke-linejoin:miter;stroke-width:1.25;"/>
   </g>
   <g id="text_39">
    <!-- White Dice -->
    <defs>
     <path d="M 20.21875 0 
L 1.21875 71.578125 
L 10.9375 71.578125 
L 21.828125 24.65625 
Q 23.578125 17.28125 24.859375 10.015625 
Q 27.59375 21.484375 28.078125 23.25 
L 41.703125 71.578125 
L 53.125 71.578125 
L 63.375 35.359375 
Q 67.234375 21.875 68.953125 10.015625 
Q 70.3125 16.796875 72.515625 25.59375 
L 83.734375 71.578125 
L 93.265625 71.578125 
L 73.640625 0 
L 64.5 0 
L 49.421875 54.546875 
Q 47.515625 61.375 47.171875 62.9375 
Q 46.046875 58.015625 45.0625 54.546875 
L 29.890625 0 
z
" id="ArialMT-57"/>
     <path d="M 6.59375 0 
L 6.59375 71.578125 
L 15.375 71.578125 
L 15.375 45.90625 
Q 21.53125 53.03125 30.90625 53.03125 
Q 36.671875 53.03125 40.921875 50.75 
Q 45.171875 48.484375 47 44.484375 
Q 48.828125 40.484375 48.828125 32.859375 
L 48.828125 0 
L 40.046875 0 
L 40.046875 32.859375 
Q 40.046875 39.453125 37.1875 42.453125 
Q 34.328125 45.453125 29.109375 45.453125 
Q 25.203125 45.453125 21.75 43.421875 
Q 18.3125 41.40625 16.84375 37.9375 
Q 15.375 34.46875 15.375 28.375 
L 15.375 0 
z
" id="ArialMT-68"/>
    </defs>
    <g style="fill:#262626;" transform="translate(390.81828 391.216873)scale(0.18 -0.18)">
     <use xlink:href="#ArialMT-57"/>
     <use x="94.384766" xlink:href="#ArialMT-68"/>
     <use x="150" xlink:href="#ArialMT-69"/>
     <use x="172.216797" xlink:href="#ArialMT-74"/>
     <use x="200" xlink:href="#ArialMT-65"/>
     <use x="255.615234" xlink:href="#ArialMT-20"/>
     <use x="283.398438" xlink:href="#ArialMT-44"/>
     <use x="355.615234" xlink:href="#ArialMT-69"/>
     <use x="377.832031" xlink:href="#ArialMT-63"/>
     <use x="427.832031" xlink:href="#ArialMT-65"/>
    </g>
   </g>
   <g id="text_40">
    <!-- $n=139$ -->
    <g style="fill:#262626;" transform="translate(628.519921 391.216873)scale(0.18 -0.18)">
     <use transform="translate(0 0.78125)" xlink:href="#DejaVuSans-Oblique-6e"/>
     <use transform="translate(82.861328 0.78125)" xlink:href="#DejaVuSans-3d"/>
     <use transform="translate(186.132812 0.78125)" xlink:href="#DejaVuSans-31"/>
     <use transform="translate(249.755859 0.78125)" xlink:href="#DejaVuSans-33"/>
     <use transform="translate(313.378906 0.78125)" xlink:href="#DejaVuSans-39"/>
    </g>
   </g>
  </g>
  <g id="text_41">
   <!-- Fate Campaign Dice Rolls -->
   <defs>
    <path d="M 6.59375 0 
L 6.59375 51.859375 
L 14.453125 51.859375 
L 14.453125 44.578125 
Q 16.890625 48.390625 20.9375 50.703125 
Q 25 53.03125 30.171875 53.03125 
Q 35.9375 53.03125 39.625 50.640625 
Q 43.3125 48.25 44.828125 43.953125 
Q 50.984375 53.03125 60.84375 53.03125 
Q 68.5625 53.03125 72.703125 48.75 
Q 76.859375 44.484375 76.859375 35.59375 
L 76.859375 0 
L 68.109375 0 
L 68.109375 32.671875 
Q 68.109375 37.9375 67.25 40.25 
Q 66.40625 42.578125 64.15625 43.984375 
Q 61.921875 45.40625 58.890625 45.40625 
Q 53.421875 45.40625 49.796875 41.765625 
Q 46.1875 38.140625 46.1875 30.125 
L 46.1875 0 
L 37.40625 0 
L 37.40625 33.6875 
Q 37.40625 39.546875 35.25 42.46875 
Q 33.109375 45.40625 28.21875 45.40625 
Q 24.515625 45.40625 21.359375 43.453125 
Q 18.21875 41.5 16.796875 37.734375 
Q 15.375 33.984375 15.375 26.90625 
L 15.375 0 
z
" id="ArialMT-6d"/>
    <path d="M 6.59375 -19.875 
L 6.59375 51.859375 
L 14.59375 51.859375 
L 14.59375 45.125 
Q 17.4375 49.078125 21 51.046875 
Q 24.5625 53.03125 29.640625 53.03125 
Q 36.28125 53.03125 41.359375 49.609375 
Q 46.4375 46.1875 49.015625 39.953125 
Q 51.609375 33.734375 51.609375 26.3125 
Q 51.609375 18.359375 48.75 11.984375 
Q 45.90625 5.609375 40.453125 2.21875 
Q 35.015625 -1.171875 29 -1.171875 
Q 24.609375 -1.171875 21.109375 0.6875 
Q 17.625 2.546875 15.375 5.375 
L 15.375 -19.875 
z
M 14.546875 25.640625 
Q 14.546875 15.625 18.59375 10.84375 
Q 22.65625 6.0625 28.421875 6.0625 
Q 34.28125 6.0625 38.453125 11.015625 
Q 42.625 15.96875 42.625 26.375 
Q 42.625 36.28125 38.546875 41.203125 
Q 34.46875 46.140625 28.8125 46.140625 
Q 23.1875 46.140625 18.859375 40.890625 
Q 14.546875 35.640625 14.546875 25.640625 
z
" id="ArialMT-70"/>
    <path d="M 4.984375 -4.296875 
L 13.53125 -5.5625 
Q 14.0625 -9.515625 16.5 -11.328125 
Q 19.78125 -13.765625 25.4375 -13.765625 
Q 31.546875 -13.765625 34.859375 -11.328125 
Q 38.1875 -8.890625 39.359375 -4.5 
Q 40.046875 -1.8125 39.984375 6.78125 
Q 34.234375 0 25.640625 0 
Q 14.9375 0 9.078125 7.71875 
Q 3.21875 15.4375 3.21875 26.21875 
Q 3.21875 33.640625 5.90625 39.90625 
Q 8.59375 46.1875 13.6875 49.609375 
Q 18.796875 53.03125 25.6875 53.03125 
Q 34.859375 53.03125 40.828125 45.609375 
L 40.828125 51.859375 
L 48.921875 51.859375 
L 48.921875 7.03125 
Q 48.921875 -5.078125 46.453125 -10.125 
Q 44 -15.1875 38.640625 -18.109375 
Q 33.296875 -21.046875 25.484375 -21.046875 
Q 16.21875 -21.046875 10.5 -16.875 
Q 4.78125 -12.703125 4.984375 -4.296875 
z
M 12.25 26.859375 
Q 12.25 16.65625 16.296875 11.96875 
Q 20.359375 7.28125 26.46875 7.28125 
Q 32.515625 7.28125 36.609375 11.9375 
Q 40.71875 16.609375 40.71875 26.5625 
Q 40.71875 36.078125 36.5 40.90625 
Q 32.28125 45.75 26.3125 45.75 
Q 20.453125 45.75 16.34375 40.984375 
Q 12.25 36.234375 12.25 26.859375 
z
" id="ArialMT-67"/>
   </defs>
   <g style="fill:#262626;" transform="translate(228.073594 23.215312)scale(0.22 -0.22)">
    <use xlink:href="#ArialMT-46"/>
    <use x="61.083984" xlink:href="#ArialMT-61"/>
    <use x="116.699219" xlink:href="#ArialMT-74"/>
    <use x="144.482422" xlink:href="#ArialMT-65"/>
    <use x="200.097656" xlink:href="#ArialMT-20"/>
    <use x="227.880859" xlink:href="#ArialMT-43"/>
    <use x="300.097656" xlink:href="#ArialMT-61"/>
    <use x="355.712891" xlink:href="#ArialMT-6d"/>
    <use x="439.013672" xlink:href="#ArialMT-70"/>
    <use x="494.628906" xlink:href="#ArialMT-61"/>
    <use x="550.244141" xlink:href="#ArialMT-69"/>
    <use x="572.460938" xlink:href="#ArialMT-67"/>
    <use x="628.076172" xlink:href="#ArialMT-6e"/>
    <use x="683.691406" xlink:href="#ArialMT-20"/>
    <use x="711.474609" xlink:href="#ArialMT-44"/>
    <use x="783.691406" xlink:href="#ArialMT-69"/>
    <use x="805.908203" xlink:href="#ArialMT-63"/>
    <use x="855.908203" xlink:href="#ArialMT-65"/>
    <use x="911.523438" xlink:href="#ArialMT-20"/>
    <use x="939.306641" xlink:href="#ArialMT-52"/>
    <use x="1011.523438" xlink:href="#ArialMT-6f"/>
    <use x="1067.138672" xlink:href="#ArialMT-6c"/>
    <use x="1089.355469" xlink:href="#ArialMT-6c"/>
    <use x="1111.572266" xlink:href="#ArialMT-73"/>
   </g>
  </g>
 </g>
 <defs>
  <clipPath id="p8746292ee9">
   <rect height="326.3" width="322.3625" x="49.515313" y="32.4"/>
  </clipPath>
  <clipPath id="p8222924bea">
   <rect height="326.3" width="322.3625" x="382.677812" y="32.4"/>
  </clipPath>
  <clipPath id="p5a55e17e2e">
   <rect height="326.3" width="322.3625" x="49.515313" y="369.5"/>
  </clipPath>
  <clipPath id="pa6cd29e796">
   <rect height="326.3" width="322.3625" x="382.677812" y="369.5"/>
  </clipPath>
 </defs>
</svg>
