<?xml version="1.0" encoding="utf-8" standalone="no"?>
<!DOCTYPE svg PUBLIC "-//W3C//DTD SVG 1.1//EN"
  "http://www.w3.org/Graphics/SVG/1.1/DTD/svg11.dtd">
<!-- Created with matplotlib (https://matplotlib.org/) -->
<svg height="478.15625pt" version="1.1" viewBox="0 0 776.238125 478.15625" width="776.238125pt" xmlns="http://www.w3.org/2000/svg" xmlns:xlink="http://www.w3.org/1999/xlink">
 <defs>
  <style type="text/css">
*{stroke-linecap:butt;stroke-linejoin:round;}
  </style>
 </defs>
 <g id="figure_1">
  <g id="patch_1">
   <path d="M 0 478.15625 
L 776.238125 478.15625 
L 776.238125 0 
L 0 0 
z
" style="fill:#ffffff;"/>
  </g>
  <g id="axes_1">
   <g id="patch_2">
    <path d="M 99.438125 447.336562 
L 769.038125 447.336562 
L 769.038125 66.816562 
L 99.438125 66.816562 
z
" style="fill:#ffffff;"/>
   </g>
   <g id="patch_3">
    <path clip-path="url(#pacf63f2445)" d="M 93.568391 447.336562 
L 93.568391 66.816562 
L 152.297897 66.816562 
L 152.297897 447.336562 
z
" style="fill:#f7f7f7;stroke:#f7f7f7;stroke-linejoin:miter;"/>
   </g>
   <g id="patch_4">
    <path clip-path="url(#pacf63f2445)" d="M 211.027404 447.336562 
L 211.027404 66.816562 
L 269.772992 66.816562 
L 269.772992 447.336562 
z
" style="fill:#f7f7f7;stroke:#f7f7f7;stroke-linejoin:miter;"/>
   </g>
   <g id="patch_5">
    <path clip-path="url(#pacf63f2445)" d="M 328.502499 447.336562 
L 328.502499 66.816562 
L 387.248087 66.816562 
L 387.248087 447.336562 
z
" style="fill:#f7f7f7;stroke:#f7f7f7;stroke-linejoin:miter;"/>
   </g>
   <g id="patch_6">
    <path clip-path="url(#pacf63f2445)" d="M 445.977594 447.336562 
L 445.977594 66.816562 
L 504.723182 66.816562 
L 504.723182 447.336562 
z
" style="fill:#f7f7f7;stroke:#f7f7f7;stroke-linejoin:miter;"/>
   </g>
   <g id="patch_7">
    <path clip-path="url(#pacf63f2445)" d="M 563.452689 447.336562 
L 563.452689 66.816562 
L 622.198277 66.816562 
L 622.198277 447.336562 
z
" style="fill:#f7f7f7;stroke:#f7f7f7;stroke-linejoin:miter;"/>
   </g>
   <g id="patch_8">
    <path clip-path="url(#pacf63f2445)" d="M 680.927783 447.336562 
L 680.927783 66.816562 
L 739.673372 66.816562 
L 739.673372 447.336562 
z
" style="fill:#f7f7f7;stroke:#f7f7f7;stroke-linejoin:miter;"/>
   </g>
   <g id="matplotlib.axis_1">
    <g id="xtick_1">
     <g id="line2d_1"/>
     <g id="text_1">
      <!-- 1910 -->
      <defs>
       <path d="M 37.25 0 
L 28.46875 0 
L 28.46875 56 
Q 25.296875 52.984375 20.140625 49.953125 
Q 14.984375 46.921875 10.890625 45.40625 
L 10.890625 53.90625 
Q 18.265625 57.375 23.78125 62.296875 
Q 29.296875 67.234375 31.59375 71.875 
L 37.25 71.875 
z
" id="ArialMT-49"/>
       <path d="M 5.46875 16.546875 
L 13.921875 17.328125 
Q 14.984375 11.375 18.015625 8.6875 
Q 21.046875 6 25.78125 6 
Q 29.828125 6 32.875 7.859375 
Q 35.9375 9.71875 37.890625 12.8125 
Q 39.84375 15.921875 41.15625 21.1875 
Q 42.484375 26.46875 42.484375 31.9375 
Q 42.484375 32.515625 42.4375 33.6875 
Q 39.796875 29.5 35.234375 26.875 
Q 30.671875 24.265625 25.34375 24.265625 
Q 16.453125 24.265625 10.296875 30.703125 
Q 4.15625 37.15625 4.15625 47.703125 
Q 4.15625 58.59375 10.578125 65.234375 
Q 17 71.875 26.65625 71.875 
Q 33.640625 71.875 39.421875 68.109375 
Q 45.21875 64.359375 48.21875 57.390625 
Q 51.21875 50.4375 51.21875 37.25 
Q 51.21875 23.53125 48.234375 15.40625 
Q 45.265625 7.28125 39.375 3.03125 
Q 33.5 -1.21875 25.59375 -1.21875 
Q 17.1875 -1.21875 11.859375 3.4375 
Q 6.546875 8.109375 5.46875 16.546875 
z
M 41.453125 48.140625 
Q 41.453125 55.71875 37.421875 60.15625 
Q 33.40625 64.59375 27.734375 64.59375 
Q 21.875 64.59375 17.53125 59.8125 
Q 13.1875 55.03125 13.1875 47.40625 
Q 13.1875 40.578125 17.3125 36.296875 
Q 21.4375 32.03125 27.484375 32.03125 
Q 33.59375 32.03125 37.515625 36.296875 
Q 41.453125 40.578125 41.453125 48.140625 
z
" id="ArialMT-57"/>
       <path d="M 4.15625 35.296875 
Q 4.15625 48 6.765625 55.734375 
Q 9.375 63.484375 14.515625 67.671875 
Q 19.671875 71.875 27.484375 71.875 
Q 33.25 71.875 37.59375 69.546875 
Q 41.9375 67.234375 44.765625 62.859375 
Q 47.609375 58.5 49.21875 52.21875 
Q 50.828125 45.953125 50.828125 35.296875 
Q 50.828125 22.703125 48.234375 14.96875 
Q 45.65625 7.234375 40.5 3 
Q 35.359375 -1.21875 27.484375 -1.21875 
Q 17.140625 -1.21875 11.234375 6.203125 
Q 4.15625 15.140625 4.15625 35.296875 
z
M 13.1875 35.296875 
Q 13.1875 17.671875 17.3125 11.828125 
Q 21.4375 6 27.484375 6 
Q 33.546875 6 37.671875 11.859375 
Q 41.796875 17.71875 41.796875 35.296875 
Q 41.796875 52.984375 37.671875 58.78125 
Q 33.546875 64.59375 27.390625 64.59375 
Q 21.34375 64.59375 17.71875 59.46875 
Q 13.1875 52.9375 13.1875 35.296875 
z
" id="ArialMT-48"/>
      </defs>
      <g style="fill:#262626;" transform="translate(127.829772 466.58375)scale(0.22 -0.22)">
       <use xlink:href="#ArialMT-49"/>
       <use x="55.615234" xlink:href="#ArialMT-57"/>
       <use x="111.230469" xlink:href="#ArialMT-49"/>
       <use x="166.845703" xlink:href="#ArialMT-48"/>
      </g>
     </g>
    </g>
    <g id="xtick_2">
     <g id="line2d_2"/>
     <g id="text_2">
      <!-- 1930 -->
      <defs>
       <path d="M 4.203125 18.890625 
L 12.984375 20.0625 
Q 14.5 12.59375 18.140625 9.296875 
Q 21.78125 6 27 6 
Q 33.203125 6 37.46875 10.296875 
Q 41.75 14.59375 41.75 20.953125 
Q 41.75 27 37.796875 30.921875 
Q 33.84375 34.859375 27.734375 34.859375 
Q 25.25 34.859375 21.53125 33.890625 
L 22.515625 41.609375 
Q 23.390625 41.5 23.921875 41.5 
Q 29.546875 41.5 34.03125 44.421875 
Q 38.53125 47.359375 38.53125 53.46875 
Q 38.53125 58.296875 35.25 61.46875 
Q 31.984375 64.65625 26.8125 64.65625 
Q 21.6875 64.65625 18.265625 61.421875 
Q 14.84375 58.203125 13.875 51.765625 
L 5.078125 53.328125 
Q 6.6875 62.15625 12.390625 67.015625 
Q 18.109375 71.875 26.609375 71.875 
Q 32.46875 71.875 37.390625 69.359375 
Q 42.328125 66.84375 44.9375 62.5 
Q 47.5625 58.15625 47.5625 53.265625 
Q 47.5625 48.640625 45.0625 44.828125 
Q 42.578125 41.015625 37.703125 38.765625 
Q 44.046875 37.3125 47.5625 32.6875 
Q 51.078125 28.078125 51.078125 21.140625 
Q 51.078125 11.765625 44.234375 5.25 
Q 37.40625 -1.265625 26.953125 -1.265625 
Q 17.53125 -1.265625 11.296875 4.34375 
Q 5.078125 9.96875 4.203125 18.890625 
z
" id="ArialMT-51"/>
      </defs>
      <g style="fill:#262626;" transform="translate(245.304867 466.58375)scale(0.22 -0.22)">
       <use xlink:href="#ArialMT-49"/>
       <use x="55.615234" xlink:href="#ArialMT-57"/>
       <use x="111.230469" xlink:href="#ArialMT-51"/>
       <use x="166.845703" xlink:href="#ArialMT-48"/>
      </g>
     </g>
    </g>
    <g id="xtick_3">
     <g id="line2d_3"/>
     <g id="text_3">
      <!-- 1950 -->
      <defs>
       <path d="M 4.15625 18.75 
L 13.375 19.53125 
Q 14.40625 12.796875 18.140625 9.390625 
Q 21.875 6 27.15625 6 
Q 33.5 6 37.890625 10.78125 
Q 42.28125 15.578125 42.28125 23.484375 
Q 42.28125 31 38.0625 35.34375 
Q 33.84375 39.703125 27 39.703125 
Q 22.75 39.703125 19.328125 37.765625 
Q 15.921875 35.84375 13.96875 32.765625 
L 5.71875 33.84375 
L 12.640625 70.609375 
L 48.25 70.609375 
L 48.25 62.203125 
L 19.671875 62.203125 
L 15.828125 42.96875 
Q 22.265625 47.46875 29.34375 47.46875 
Q 38.71875 47.46875 45.15625 40.96875 
Q 51.609375 34.46875 51.609375 24.265625 
Q 51.609375 14.546875 45.953125 7.46875 
Q 39.0625 -1.21875 27.15625 -1.21875 
Q 17.390625 -1.21875 11.203125 4.25 
Q 5.03125 9.71875 4.15625 18.75 
z
" id="ArialMT-53"/>
      </defs>
      <g style="fill:#262626;" transform="translate(362.779962 466.58375)scale(0.22 -0.22)">
       <use xlink:href="#ArialMT-49"/>
       <use x="55.615234" xlink:href="#ArialMT-57"/>
       <use x="111.230469" xlink:href="#ArialMT-53"/>
       <use x="166.845703" xlink:href="#ArialMT-48"/>
      </g>
     </g>
    </g>
    <g id="xtick_4">
     <g id="line2d_4"/>
     <g id="text_4">
      <!-- 1970 -->
      <defs>
       <path d="M 4.734375 62.203125 
L 4.734375 70.65625 
L 51.078125 70.65625 
L 51.078125 63.8125 
Q 44.234375 56.546875 37.515625 44.484375 
Q 30.8125 32.421875 27.15625 19.671875 
Q 24.515625 10.6875 23.78125 0 
L 14.75 0 
Q 14.890625 8.453125 18.0625 20.40625 
Q 21.234375 32.375 27.171875 43.484375 
Q 33.109375 54.59375 39.796875 62.203125 
z
" id="ArialMT-55"/>
      </defs>
      <g style="fill:#262626;" transform="translate(480.255057 466.58375)scale(0.22 -0.22)">
       <use xlink:href="#ArialMT-49"/>
       <use x="55.615234" xlink:href="#ArialMT-57"/>
       <use x="111.230469" xlink:href="#ArialMT-55"/>
       <use x="166.845703" xlink:href="#ArialMT-48"/>
      </g>
     </g>
    </g>
    <g id="xtick_5">
     <g id="line2d_5"/>
     <g id="text_5">
      <!-- 1990 -->
      <g style="fill:#262626;" transform="translate(597.730152 466.58375)scale(0.22 -0.22)">
       <use xlink:href="#ArialMT-49"/>
       <use x="55.615234" xlink:href="#ArialMT-57"/>
       <use x="111.230469" xlink:href="#ArialMT-57"/>
       <use x="166.845703" xlink:href="#ArialMT-48"/>
      </g>
     </g>
    </g>
    <g id="xtick_6">
     <g id="line2d_6"/>
     <g id="text_6">
      <!-- 2010 -->
      <defs>
       <path d="M 50.34375 8.453125 
L 50.34375 0 
L 3.03125 0 
Q 2.9375 3.171875 4.046875 6.109375 
Q 5.859375 10.9375 9.828125 15.625 
Q 13.8125 20.3125 21.34375 26.46875 
Q 33.015625 36.03125 37.109375 41.625 
Q 41.21875 47.21875 41.21875 52.203125 
Q 41.21875 57.421875 37.46875 61 
Q 33.734375 64.59375 27.734375 64.59375 
Q 21.390625 64.59375 17.578125 60.78125 
Q 13.765625 56.984375 13.71875 50.25 
L 4.6875 51.171875 
Q 5.609375 61.28125 11.65625 66.578125 
Q 17.71875 71.875 27.9375 71.875 
Q 38.234375 71.875 44.234375 66.15625 
Q 50.25 60.453125 50.25 52 
Q 50.25 47.703125 48.484375 43.546875 
Q 46.734375 39.40625 42.65625 34.8125 
Q 38.578125 30.21875 29.109375 22.21875 
Q 21.1875 15.578125 18.9375 13.203125 
Q 16.703125 10.84375 15.234375 8.453125 
z
" id="ArialMT-50"/>
      </defs>
      <g style="fill:#262626;" transform="translate(715.205247 466.58375)scale(0.22 -0.22)">
       <use xlink:href="#ArialMT-50"/>
       <use x="55.615234" xlink:href="#ArialMT-48"/>
       <use x="111.230469" xlink:href="#ArialMT-49"/>
       <use x="166.845703" xlink:href="#ArialMT-48"/>
      </g>
     </g>
    </g>
   </g>
   <g id="matplotlib.axis_2">
    <g id="ytick_1">
     <g id="line2d_7">
      <path clip-path="url(#pacf63f2445)" d="M 99.438125 399.376907 
L 769.038125 399.376907 
" style="fill:none;stroke:#cccccc;stroke-linecap:round;stroke-width:0.8;"/>
     </g>
     <g id="line2d_8"/>
     <g id="text_7">
      <!-- €10 K -->
      <defs>
       <path d="M 38.578125 64.703125 
Q 30.375 64.703125 24.8125 60.75 
Q 21.484375 58.40625 18.796875 54.109375 
Q 16.0625 49.65625 15.578125 45.65625 
L 48.875 45.65625 
L 47.5625 39.109375 
L 14.796875 39.109375 
Q 14.75 38.09375 14.75 37.15625 
Q 14.75 33.40625 14.796875 32.671875 
L 46.234375 32.671875 
L 44.875 26.125 
L 15.828125 26.125 
Q 17.875 14.9375 25.6875 10.25 
Q 31.296875 6.890625 37.84375 6.890625 
Q 46.96875 6.890625 52.09375 11.671875 
L 52.09375 1.609375 
Q 46 -1.21875 38.625 -1.21875 
Q 16.546875 -1.21875 8.796875 17.140625 
Q 7.234375 20.84375 6.109375 26.125 
L -1.375 26.125 
L 0 32.671875 
L 5.125 32.671875 
Q 4.984375 34.71875 4.984375 37.109375 
Q 4.984375 38.09375 5.03125 39.109375 
L -1.375 39.109375 
L 0 45.65625 
L 5.671875 45.65625 
Q 8.6875 61.578125 21.4375 68.5 
Q 29.296875 72.796875 38.765625 72.796875 
Q 47.859375 72.796875 54.046875 68.84375 
L 52.09375 59.765625 
Q 46.140625 64.703125 38.578125 64.703125 
z
" id="ArialMT-8364"/>
       <path id="ArialMT-32"/>
       <path d="M 7.328125 0 
L 7.328125 71.578125 
L 16.796875 71.578125 
L 16.796875 36.078125 
L 52.34375 71.578125 
L 65.1875 71.578125 
L 35.15625 42.578125 
L 66.5 0 
L 54 0 
L 28.515625 36.234375 
L 16.796875 24.8125 
L 16.796875 0 
z
" id="ArialMT-75"/>
      </defs>
      <g style="fill:#262626;" transform="translate(22.770625 409.397845)scale(0.28 -0.28)">
       <use xlink:href="#ArialMT-8364"/>
       <use x="55.615234" xlink:href="#ArialMT-49"/>
       <use x="111.230469" xlink:href="#ArialMT-48"/>
       <use x="166.845703" xlink:href="#ArialMT-32"/>
       <use x="194.628906" xlink:href="#ArialMT-75"/>
      </g>
     </g>
    </g>
    <g id="ytick_2">
     <g id="line2d_9">
      <path clip-path="url(#pacf63f2445)" d="M 99.438125 275.825379 
L 769.038125 275.825379 
" style="fill:none;stroke:#cccccc;stroke-linecap:round;stroke-width:0.8;"/>
     </g>
     <g id="line2d_10"/>
     <g id="text_8">
      <!-- €100 K -->
      <g style="fill:#262626;" transform="translate(7.2 285.846316)scale(0.28 -0.28)">
       <use xlink:href="#ArialMT-8364"/>
       <use x="55.615234" xlink:href="#ArialMT-49"/>
       <use x="111.230469" xlink:href="#ArialMT-48"/>
       <use x="166.845703" xlink:href="#ArialMT-48"/>
       <use x="222.460938" xlink:href="#ArialMT-32"/>
       <use x="250.244141" xlink:href="#ArialMT-75"/>
      </g>
     </g>
    </g>
    <g id="ytick_3">
     <g id="line2d_11">
      <path clip-path="url(#pacf63f2445)" d="M 99.438125 152.27385 
L 769.038125 152.27385 
" style="fill:none;stroke:#cccccc;stroke-linecap:round;stroke-width:0.8;"/>
     </g>
     <g id="line2d_12"/>
     <g id="text_9">
      <!-- €1 M -->
      <defs>
       <path d="M 7.421875 0 
L 7.421875 71.578125 
L 21.6875 71.578125 
L 38.625 20.90625 
Q 40.96875 13.8125 42.046875 10.296875 
Q 43.265625 14.203125 45.84375 21.78125 
L 62.984375 71.578125 
L 75.734375 71.578125 
L 75.734375 0 
L 66.609375 0 
L 66.609375 59.90625 
L 45.796875 0 
L 37.25 0 
L 16.546875 60.9375 
L 16.546875 0 
z
" id="ArialMT-77"/>
      </defs>
      <g style="fill:#262626;" transform="translate(33.695 162.294788)scale(0.28 -0.28)">
       <use xlink:href="#ArialMT-8364"/>
       <use x="55.615234" xlink:href="#ArialMT-49"/>
       <use x="111.230469" xlink:href="#ArialMT-32"/>
       <use x="139.013672" xlink:href="#ArialMT-77"/>
      </g>
     </g>
    </g>
    <g id="ytick_4">
     <g id="line2d_13"/>
    </g>
    <g id="ytick_5">
     <g id="line2d_14"/>
    </g>
    <g id="ytick_6">
     <g id="line2d_15"/>
    </g>
    <g id="ytick_7">
     <g id="line2d_16"/>
    </g>
    <g id="ytick_8">
     <g id="line2d_17"/>
    </g>
    <g id="ytick_9">
     <g id="line2d_18"/>
    </g>
    <g id="ytick_10">
     <g id="line2d_19"/>
    </g>
    <g id="ytick_11">
     <g id="line2d_20"/>
    </g>
    <g id="ytick_12">
     <g id="line2d_21"/>
    </g>
    <g id="ytick_13">
     <g id="line2d_22"/>
    </g>
    <g id="ytick_14">
     <g id="line2d_23"/>
    </g>
    <g id="ytick_15">
     <g id="line2d_24"/>
    </g>
    <g id="ytick_16">
     <g id="line2d_25"/>
    </g>
    <g id="ytick_17">
     <g id="line2d_26"/>
    </g>
    <g id="ytick_18">
     <g id="line2d_27"/>
    </g>
    <g id="ytick_19">
     <g id="line2d_28"/>
    </g>
    <g id="ytick_20">
     <g id="line2d_29"/>
    </g>
    <g id="ytick_21">
     <g id="line2d_30"/>
    </g>
    <g id="ytick_22">
     <g id="line2d_31"/>
    </g>
    <g id="ytick_23">
     <g id="line2d_32"/>
    </g>
    <g id="ytick_24">
     <g id="line2d_33"/>
    </g>
    <g id="ytick_25">
     <g id="line2d_34"/>
    </g>
    <g id="ytick_26">
     <g id="line2d_35"/>
    </g>
    <g id="ytick_27">
     <g id="line2d_36"/>
    </g>
   </g>
   <g id="line2d_37">
    <path clip-path="url(#pacf63f2445)" d="M 117.031247 288.575006 
L 122.917063 288.575006 
L 122.917063 285.200595 
L 128.786797 285.200595 
L 128.786797 275.791585 
L 134.656531 275.791585 
L 134.656531 276.484572 
L 140.526266 276.484572 
L 140.526266 277.230674 
L 146.412081 277.230674 
L 146.412081 268.667764 
L 152.281816 268.667764 
L 152.281816 278.34321 
L 158.15155 278.34321 
L 158.15155 279.981362 
L 164.021285 279.981362 
L 164.021285 275.263848 
L 169.9071 275.263848 
L 169.9071 270.375235 
L 175.776835 270.375235 
L 175.776835 261.162124 
L 181.646569 261.162124 
L 181.646569 254.708133 
L 187.516304 254.708133 
M 211.011323 299.954382 
L 216.897138 299.954382 
L 216.897138 291.273199 
L 222.766873 291.273199 
L 222.766873 284.680407 
L 228.636607 284.680407 
L 228.636607 282.545787 
L 234.506342 282.545787 
L 234.506342 276.172052 
L 240.392157 276.172052 
L 240.392157 283.155586 
L 246.261892 283.155586 
L 246.261892 287.475774 
L 252.131626 287.475774 
L 252.131626 296.431642 
L 258.001361 296.431642 
L 258.001361 303.365857 
L 269.756911 303.258388 
L 269.756911 284.729792 
L 275.626645 284.729792 
L 275.626645 210.238048 
L 281.496379 210.238048 
L 281.496379 204.342398 
L 287.382195 204.342398 
L 287.382195 195.364375 
L 293.25193 195.364375 
L 293.25193 189.988829 
L 299.121664 189.988829 
L 299.121664 188.508789 
L 304.991398 188.508789 
L 304.991398 162.804363 
L 310.877214 162.804363 
L 310.877214 171.309912 
L 316.746949 171.309912 
L 316.746949 195.598944 
L 322.616683 195.598944 
L 322.616683 196.121089 
L 328.486417 196.121089 
L 328.486417 199.550513 
L 334.372233 199.550513 
M 375.476455 227.547875 
L 381.362271 227.547875 
L 381.362271 229.499523 
L 387.232006 229.499523 
L 387.232006 207.230954 
L 393.10174 207.230954 
L 393.10174 204.073748 
L 398.971474 204.073748 
L 398.971474 197.868868 
L 404.85729 197.868868 
L 404.85729 181.016514 
L 410.727025 181.016514 
L 410.727025 168.123111 
L 416.596759 168.123111 
L 416.596759 163.29993 
L 422.466493 163.29993 
L 422.466493 166.295098 
L 428.352309 166.295098 
L 428.352309 166.612949 
L 434.222044 166.612949 
L 434.222044 165.446778 
L 440.091778 165.446778 
L 440.091778 172.992729 
L 445.961512 172.992729 
L 445.961512 173.923709 
L 451.847328 173.923709 
L 451.847328 178.119341 
L 457.717063 178.119341 
L 457.717063 167.888088 
L 463.586797 167.888088 
L 463.586797 162.072742 
L 469.456531 162.072742 
L 469.456531 167.754096 
L 475.342347 167.754096 
L 475.342347 170.215683 
L 481.212081 170.215683 
L 481.212081 186.079017 
L 492.95155 186.175017 
L 492.95155 174.535419 
L 498.837366 174.535419 
L 498.837366 173.721906 
L 504.7071 173.721906 
L 504.7071 174.803312 
L 510.576835 174.803312 
L 510.576835 177.031575 
L 516.446569 177.031575 
L 516.446569 193.430867 
L 522.332385 193.430867 
L 522.332385 188.09808 
L 528.202119 188.09808 
L 528.202119 182.290547 
L 534.071854 182.290547 
L 534.071854 178.680077 
L 539.941588 178.680077 
L 539.941588 182.052803 
L 545.827404 182.052803 
L 545.827404 177.546957 
L 551.697138 177.546957 
L 551.697138 174.253338 
L 557.566873 174.253338 
L 557.566873 176.281094 
L 563.436607 176.281094 
L 563.436607 177.15616 
L 569.322423 177.15616 
L 569.322423 178.304063 
L 575.192157 178.304063 
L 575.192157 161.125335 
L 581.061892 161.125335 
L 581.061892 169.876796 
L 586.931626 169.876796 
L 586.931626 172.486792 
L 592.817442 172.486792 
L 592.817442 170.639698 
L 598.687176 170.639698 
L 598.687176 165.130422 
L 604.556911 165.130422 
L 604.556911 144.849993 
L 610.426645 144.849993 
L 610.426645 128.572363 
L 616.312461 128.572363 
L 616.312461 120.037043 
L 622.182195 120.037043 
L 622.182195 118.308065 
L 628.05193 118.308065 
L 628.05193 108.43053 
L 633.921664 108.43053 
L 633.921664 116.060444 
L 639.80748 116.060444 
L 639.80748 110.918624 
L 645.677214 110.918624 
L 645.677214 107.734358 
L 651.546949 107.734358 
L 651.546949 105.800921 
L 657.416683 105.800921 
L 657.416683 104.468078 
L 663.302499 104.468078 
L 663.302499 105.927043 
L 669.172233 105.927043 
L 669.172233 106.701859 
L 675.041968 106.701859 
L 675.041968 106.863671 
L 680.911702 106.863671 
L 680.911702 95.370024 
L 686.797518 95.370024 
L 686.797518 94.384061 
L 692.667252 94.384061 
L 692.667252 92.011707 
L 698.536987 92.011707 
L 698.536987 89.840289 
L 704.406721 89.840289 
L 704.406721 86.807894 
L 710.292537 86.807894 
L 710.292537 85.70542 
L 716.162271 85.70542 
L 716.162271 86.708398 
L 722.032006 86.708398 
L 722.032006 84.112926 
L 727.90174 84.112926 
L 727.90174 84.890219 
L 733.787556 84.890219 
L 733.787556 86.371985 
L 745.527025 86.425669 
L 745.527025 87.237457 
L 751.396759 87.237457 
L 751.396759 84.888675 
L 763.152309 84.90974 
L 763.152309 114.459529 
L 763.152309 114.459529 
" style="fill:none;stroke:#1f77b4;stroke-linecap:round;stroke-width:3;"/>
   </g>
   <g id="line2d_38">
    <path clip-path="url(#pacf63f2445)" d="M 117.031247 390.368603 
L 122.917063 390.368603 
L 122.917063 362.202975 
L 128.786797 362.202975 
L 128.786797 374.124046 
L 134.656531 374.124046 
L 134.656531 362.842842 
L 140.526266 362.842842 
L 140.526266 375.564244 
L 146.412081 375.564244 
L 146.412081 376.78292 
L 152.281816 376.78292 
L 152.281816 364.702585 
L 158.15155 364.702585 
L 158.15155 366.341334 
L 164.021285 366.341334 
L 164.021285 371.405624 
L 169.9071 371.405624 
L 169.9071 370.813135 
L 175.776835 370.813135 
L 175.776835 372.60734 
L 187.516304 372.60734 
M 211.011323 423.508434 
L 216.897138 423.508434 
L 216.897138 381.606937 
L 222.766873 381.606937 
L 222.766873 374.500735 
L 228.636607 374.500735 
L 228.636607 394.121503 
L 234.506342 394.121503 
L 234.506342 399.72142 
L 240.392157 399.72142 
L 240.392157 406.707729 
L 246.261892 406.707729 
L 246.261892 388.733414 
L 252.131626 388.733414 
L 252.131626 402.851347 
L 258.001361 402.851347 
L 258.001361 417.138008 
L 263.887176 417.138008 
L 263.887176 417.026057 
L 269.756911 417.026057 
L 269.756911 430.040199 
L 275.626645 430.040199 
L 275.626645 324.539972 
L 281.496379 324.539972 
L 281.496379 379.162819 
L 287.382195 379.162819 
L 287.382195 364.380197 
L 293.25193 364.380197 
L 293.25193 362.634114 
L 299.121664 362.634114 
L 299.121664 360.333104 
L 304.991398 360.333104 
M 310.877214 294.861135 
L 316.746949 294.861135 
L 316.746949 269.984497 
L 322.616683 269.984497 
L 322.616683 314.018967 
L 328.486417 314.018967 
L 328.486417 317.449022 
L 334.372233 317.449022 
M 375.476455 346.392176 
L 381.362271 346.392176 
L 381.362271 361.321901 
L 387.232006 361.321901 
L 387.232006 340.565746 
L 393.10174 340.565746 
L 393.10174 345.679337 
L 398.971474 345.679337 
L 398.971474 353.782659 
L 404.85729 353.782659 
L 404.85729 359.814643 
L 410.727025 359.814643 
L 410.727025 321.701893 
L 416.596759 321.701893 
L 416.596759 321.916808 
L 422.466493 321.916808 
L 422.466493 322.397784 
L 428.352309 322.397784 
L 428.352309 324.605192 
L 434.222044 324.605192 
L 434.222044 326.190611 
L 440.091778 326.190611 
L 440.091778 333.737131 
L 445.961512 333.737131 
L 445.961512 336.914575 
L 451.847328 336.914575 
L 451.847328 338.864367 
L 457.717063 338.864367 
L 457.717063 340.60521 
L 463.586797 340.60521 
L 463.586797 343.071042 
L 469.456531 343.071042 
L 469.456531 345.58671 
L 475.342347 345.58671 
L 475.342347 347.380674 
L 481.212081 347.380674 
L 481.212081 348.703995 
L 487.081816 348.703995 
L 487.081816 350.133599 
L 492.95155 350.133599 
L 492.95155 351.512103 
L 498.837366 351.512103 
L 498.837366 353.925079 
L 504.7071 353.925079 
L 504.7071 357.304717 
L 510.576835 357.304717 
L 510.576835 360.022973 
L 516.446569 360.022973 
L 516.446569 362.89719 
L 522.332385 362.89719 
L 522.332385 366.124348 
L 528.202119 366.124348 
L 528.202119 369.903951 
L 534.071854 369.903951 
L 534.071854 355.038316 
L 539.941588 355.038316 
L 539.941588 361.024394 
L 545.827404 361.024394 
L 545.827404 301.339136 
L 551.697138 301.339136 
L 551.697138 306.15996 
L 557.566873 306.15996 
L 557.566873 310.833173 
L 563.436607 310.833173 
L 563.436607 316.335906 
L 569.322423 316.335906 
L 569.322423 323.177984 
L 575.192157 323.177984 
L 575.192157 315.848379 
L 581.061892 315.848379 
L 581.061892 314.154715 
L 586.931626 314.154715 
L 586.931626 315.610208 
L 592.817442 315.610208 
L 592.817442 319.441323 
L 598.687176 319.441323 
L 598.687176 337.90194 
L 604.556911 337.90194 
L 604.556911 290.16623 
L 610.426645 290.16623 
L 610.426645 291.80392 
L 616.312461 291.80392 
L 616.312461 240.070742 
L 622.182195 240.070742 
L 622.182195 208.824312 
L 628.05193 208.824312 
L 628.05193 195.182015 
L 633.921664 195.182015 
L 633.921664 196.872117 
L 639.80748 196.872117 
L 639.80748 198.144688 
L 645.677214 198.144688 
L 645.677214 199.207265 
L 651.546949 199.207265 
L 651.546949 194.997655 
L 657.416683 194.997655 
L 657.416683 195.902256 
L 663.302499 195.902256 
L 663.302499 196.964718 
L 669.172233 196.964718 
L 669.172233 197.604824 
L 675.041968 197.604824 
L 675.041968 197.979177 
L 680.911702 197.979177 
L 680.911702 198.24558 
L 686.797518 198.24558 
L 686.797518 199.146306 
L 692.667252 199.146306 
L 692.667252 200.031696 
L 698.536987 200.031696 
L 698.536987 201.03542 
L 704.406721 201.03542 
L 704.406721 192.689822 
L 710.292537 192.689822 
L 710.292537 193.820623 
L 716.162271 193.820623 
L 716.162271 194.823531 
L 722.032006 194.823531 
L 722.032006 189.371141 
L 727.90174 189.371141 
L 727.90174 190.148362 
L 733.787556 190.148362 
L 733.787556 191.63016 
L 745.527025 191.683818 
L 745.527025 192.495645 
L 751.396759 192.495645 
L 751.396759 193.597509 
L 757.282575 193.597509 
L 757.282575 194.658126 
L 763.152309 194.658126 
L 763.152309 195.119855 
L 763.152309 195.119855 
" style="fill:none;stroke:#ff7f0e;stroke-linecap:round;stroke-width:3;"/>
   </g>
   <g id="patch_9">
    <path d="M 99.438125 447.336563 
L 99.438125 66.816563 
" style="fill:none;stroke:#262626;stroke-linecap:square;stroke-linejoin:miter;stroke-width:1.25;"/>
   </g>
   <g id="patch_10">
    <path d="M 769.038125 447.336563 
L 769.038125 66.816563 
" style="fill:none;stroke:#262626;stroke-linecap:square;stroke-linejoin:miter;stroke-width:1.25;"/>
   </g>
   <g id="patch_11">
    <path d="M 99.438125 447.336562 
L 769.038125 447.336562 
" style="fill:none;stroke:#262626;stroke-linecap:square;stroke-linejoin:miter;stroke-width:1.25;"/>
   </g>
   <g id="patch_12">
    <path d="M 99.438125 66.816562 
L 769.038125 66.816562 
" style="fill:none;stroke:#262626;stroke-linecap:square;stroke-linejoin:miter;stroke-width:1.25;"/>
   </g>
   <g id="legend_1">
    <g id="patch_13">
     <path d="M 116.238125 154.476562 
L 355.818125 154.476562 
Q 360.618125 154.476562 360.618125 149.676562 
L 360.618125 83.616562 
Q 360.618125 78.816562 355.818125 78.816562 
L 116.238125 78.816562 
Q 111.438125 78.816562 111.438125 83.616562 
L 111.438125 149.676562 
Q 111.438125 154.476562 116.238125 154.476562 
z
" style="fill:#ffffff;stroke:#000000;stroke-linejoin:miter;stroke-width:1.2;"/>
    </g>
    <g id="line2d_40"/>
    <g id="text_10">
     <!-- Total prize money -->
     <defs>
      <path d="M 25.921875 0 
L 25.921875 63.140625 
L 2.34375 63.140625 
L 2.34375 71.578125 
L 59.078125 71.578125 
L 59.078125 63.140625 
L 35.40625 63.140625 
L 35.40625 0 
z
" id="ArialMT-84"/>
      <path d="M 3.328125 25.921875 
Q 3.328125 40.328125 11.328125 47.265625 
Q 18.015625 53.03125 27.640625 53.03125 
Q 38.328125 53.03125 45.109375 46.015625 
Q 51.90625 39.015625 51.90625 26.65625 
Q 51.90625 16.65625 48.90625 10.90625 
Q 45.90625 5.171875 40.15625 2 
Q 34.421875 -1.171875 27.640625 -1.171875 
Q 16.75 -1.171875 10.03125 5.8125 
Q 3.328125 12.796875 3.328125 25.921875 
z
M 12.359375 25.921875 
Q 12.359375 15.96875 16.703125 11.015625 
Q 21.046875 6.0625 27.640625 6.0625 
Q 34.1875 6.0625 38.53125 11.03125 
Q 42.875 16.015625 42.875 26.21875 
Q 42.875 35.84375 38.5 40.796875 
Q 34.125 45.75 27.640625 45.75 
Q 21.046875 45.75 16.703125 40.8125 
Q 12.359375 35.890625 12.359375 25.921875 
z
" id="ArialMT-111"/>
      <path d="M 25.78125 7.859375 
L 27.046875 0.09375 
Q 23.34375 -0.6875 20.40625 -0.6875 
Q 15.625 -0.6875 12.984375 0.828125 
Q 10.359375 2.34375 9.28125 4.8125 
Q 8.203125 7.28125 8.203125 15.1875 
L 8.203125 45.015625 
L 1.765625 45.015625 
L 1.765625 51.859375 
L 8.203125 51.859375 
L 8.203125 64.703125 
L 16.9375 69.96875 
L 16.9375 51.859375 
L 25.78125 51.859375 
L 25.78125 45.015625 
L 16.9375 45.015625 
L 16.9375 14.703125 
Q 16.9375 10.9375 17.40625 9.859375 
Q 17.875 8.796875 18.921875 8.15625 
Q 19.96875 7.515625 21.921875 7.515625 
Q 23.390625 7.515625 25.78125 7.859375 
z
" id="ArialMT-116"/>
      <path d="M 40.4375 6.390625 
Q 35.546875 2.25 31.03125 0.53125 
Q 26.515625 -1.171875 21.34375 -1.171875 
Q 12.796875 -1.171875 8.203125 3 
Q 3.609375 7.171875 3.609375 13.671875 
Q 3.609375 17.484375 5.34375 20.625 
Q 7.078125 23.78125 9.890625 25.6875 
Q 12.703125 27.59375 16.21875 28.5625 
Q 18.796875 29.25 24.03125 29.890625 
Q 34.671875 31.15625 39.703125 32.90625 
Q 39.75 34.71875 39.75 35.203125 
Q 39.75 40.578125 37.25 42.78125 
Q 33.890625 45.75 27.25 45.75 
Q 21.046875 45.75 18.09375 43.578125 
Q 15.140625 41.40625 13.71875 35.890625 
L 5.125 37.0625 
Q 6.296875 42.578125 8.984375 45.96875 
Q 11.671875 49.359375 16.75 51.1875 
Q 21.828125 53.03125 28.515625 53.03125 
Q 35.15625 53.03125 39.296875 51.46875 
Q 43.453125 49.90625 45.40625 47.53125 
Q 47.359375 45.171875 48.140625 41.546875 
Q 48.578125 39.3125 48.578125 33.453125 
L 48.578125 21.734375 
Q 48.578125 9.46875 49.140625 6.21875 
Q 49.703125 2.984375 51.375 0 
L 42.1875 0 
Q 40.828125 2.734375 40.4375 6.390625 
z
M 39.703125 26.03125 
Q 34.90625 24.078125 25.34375 22.703125 
Q 19.921875 21.921875 17.671875 20.9375 
Q 15.4375 19.96875 14.203125 18.09375 
Q 12.984375 16.21875 12.984375 13.921875 
Q 12.984375 10.40625 15.640625 8.0625 
Q 18.3125 5.71875 23.4375 5.71875 
Q 28.515625 5.71875 32.46875 7.9375 
Q 36.421875 10.15625 38.28125 14.015625 
Q 39.703125 17 39.703125 22.796875 
z
" id="ArialMT-97"/>
      <path d="M 6.390625 0 
L 6.390625 71.578125 
L 15.1875 71.578125 
L 15.1875 0 
z
" id="ArialMT-108"/>
      <path d="M 6.59375 -19.875 
L 6.59375 51.859375 
L 14.59375 51.859375 
L 14.59375 45.125 
Q 17.4375 49.078125 21 51.046875 
Q 24.5625 53.03125 29.640625 53.03125 
Q 36.28125 53.03125 41.359375 49.609375 
Q 46.4375 46.1875 49.015625 39.953125 
Q 51.609375 33.734375 51.609375 26.3125 
Q 51.609375 18.359375 48.75 11.984375 
Q 45.90625 5.609375 40.453125 2.21875 
Q 35.015625 -1.171875 29 -1.171875 
Q 24.609375 -1.171875 21.109375 0.6875 
Q 17.625 2.546875 15.375 5.375 
L 15.375 -19.875 
z
M 14.546875 25.640625 
Q 14.546875 15.625 18.59375 10.84375 
Q 22.65625 6.0625 28.421875 6.0625 
Q 34.28125 6.0625 38.453125 11.015625 
Q 42.625 15.96875 42.625 26.375 
Q 42.625 36.28125 38.546875 41.203125 
Q 34.46875 46.140625 28.8125 46.140625 
Q 23.1875 46.140625 18.859375 40.890625 
Q 14.546875 35.640625 14.546875 25.640625 
z
" id="ArialMT-112"/>
      <path d="M 6.5 0 
L 6.5 51.859375 
L 14.40625 51.859375 
L 14.40625 44 
Q 17.4375 49.515625 20 51.265625 
Q 22.5625 53.03125 25.640625 53.03125 
Q 30.078125 53.03125 34.671875 50.203125 
L 31.640625 42.046875 
Q 28.421875 43.953125 25.203125 43.953125 
Q 22.3125 43.953125 20.015625 42.21875 
Q 17.71875 40.484375 16.75 37.40625 
Q 15.28125 32.71875 15.28125 27.15625 
L 15.28125 0 
z
" id="ArialMT-114"/>
      <path d="M 6.640625 61.46875 
L 6.640625 71.578125 
L 15.4375 71.578125 
L 15.4375 61.46875 
z
M 6.640625 0 
L 6.640625 51.859375 
L 15.4375 51.859375 
L 15.4375 0 
z
" id="ArialMT-105"/>
      <path d="M 1.953125 0 
L 1.953125 7.125 
L 34.96875 45.015625 
Q 29.34375 44.734375 25.046875 44.734375 
L 3.90625 44.734375 
L 3.90625 51.859375 
L 46.296875 51.859375 
L 46.296875 46.046875 
L 18.21875 13.140625 
L 12.796875 7.125 
Q 18.703125 7.5625 23.875 7.5625 
L 47.859375 7.5625 
L 47.859375 0 
z
" id="ArialMT-122"/>
      <path d="M 42.09375 16.703125 
L 51.171875 15.578125 
Q 49.03125 7.625 43.21875 3.21875 
Q 37.40625 -1.171875 28.375 -1.171875 
Q 17 -1.171875 10.328125 5.828125 
Q 3.65625 12.84375 3.65625 25.484375 
Q 3.65625 38.578125 10.390625 45.796875 
Q 17.140625 53.03125 27.875 53.03125 
Q 38.28125 53.03125 44.875 45.953125 
Q 51.46875 38.875 51.46875 26.03125 
Q 51.46875 25.25 51.421875 23.6875 
L 12.75 23.6875 
Q 13.234375 15.140625 17.578125 10.59375 
Q 21.921875 6.0625 28.421875 6.0625 
Q 33.25 6.0625 36.671875 8.59375 
Q 40.09375 11.140625 42.09375 16.703125 
z
M 13.234375 30.90625 
L 42.1875 30.90625 
Q 41.609375 37.453125 38.875 40.71875 
Q 34.671875 45.796875 27.984375 45.796875 
Q 21.921875 45.796875 17.796875 41.75 
Q 13.671875 37.703125 13.234375 30.90625 
z
" id="ArialMT-101"/>
      <path d="M 6.59375 0 
L 6.59375 51.859375 
L 14.453125 51.859375 
L 14.453125 44.578125 
Q 16.890625 48.390625 20.9375 50.703125 
Q 25 53.03125 30.171875 53.03125 
Q 35.9375 53.03125 39.625 50.640625 
Q 43.3125 48.25 44.828125 43.953125 
Q 50.984375 53.03125 60.84375 53.03125 
Q 68.5625 53.03125 72.703125 48.75 
Q 76.859375 44.484375 76.859375 35.59375 
L 76.859375 0 
L 68.109375 0 
L 68.109375 32.671875 
Q 68.109375 37.9375 67.25 40.25 
Q 66.40625 42.578125 64.15625 43.984375 
Q 61.921875 45.40625 58.890625 45.40625 
Q 53.421875 45.40625 49.796875 41.765625 
Q 46.1875 38.140625 46.1875 30.125 
L 46.1875 0 
L 37.40625 0 
L 37.40625 33.6875 
Q 37.40625 39.546875 35.25 42.46875 
Q 33.109375 45.40625 28.21875 45.40625 
Q 24.515625 45.40625 21.359375 43.453125 
Q 18.21875 41.5 16.796875 37.734375 
Q 15.375 33.984375 15.375 26.90625 
L 15.375 0 
z
" id="ArialMT-109"/>
      <path d="M 6.59375 0 
L 6.59375 51.859375 
L 14.5 51.859375 
L 14.5 44.484375 
Q 20.21875 53.03125 31 53.03125 
Q 35.6875 53.03125 39.625 51.34375 
Q 43.5625 49.65625 45.515625 46.921875 
Q 47.46875 44.1875 48.25 40.4375 
Q 48.734375 37.984375 48.734375 31.890625 
L 48.734375 0 
L 39.9375 0 
L 39.9375 31.546875 
Q 39.9375 36.921875 38.90625 39.578125 
Q 37.890625 42.234375 35.28125 43.8125 
Q 32.671875 45.40625 29.15625 45.40625 
Q 23.53125 45.40625 19.453125 41.84375 
Q 15.375 38.28125 15.375 28.328125 
L 15.375 0 
z
" id="ArialMT-110"/>
      <path d="M 6.203125 -19.96875 
L 5.21875 -11.71875 
Q 8.109375 -12.5 10.25 -12.5 
Q 13.1875 -12.5 14.9375 -11.515625 
Q 16.703125 -10.546875 17.828125 -8.796875 
Q 18.65625 -7.46875 20.515625 -2.25 
Q 20.75 -1.515625 21.296875 -0.09375 
L 1.609375 51.859375 
L 11.078125 51.859375 
L 21.875 21.828125 
Q 23.96875 16.109375 25.640625 9.8125 
Q 27.15625 15.875 29.25 21.625 
L 40.328125 51.859375 
L 49.125 51.859375 
L 29.390625 -0.875 
Q 26.21875 -9.421875 24.46875 -12.640625 
Q 22.125 -17 19.09375 -19.015625 
Q 16.0625 -21.046875 11.859375 -21.046875 
Q 9.328125 -21.046875 6.203125 -19.96875 
z
" id="ArialMT-121"/>
     </defs>
     <g style="fill:#1f77b4;" transform="translate(121.038125 105.595312)scale(0.24 -0.24)">
      <use xlink:href="#ArialMT-84"/>
      <use x="60.912109" xlink:href="#ArialMT-111"/>
      <use x="116.527344" xlink:href="#ArialMT-116"/>
      <use x="144.310547" xlink:href="#ArialMT-97"/>
      <use x="199.925781" xlink:href="#ArialMT-108"/>
      <use x="222.142578" xlink:href="#ArialMT-32"/>
      <use x="249.925781" xlink:href="#ArialMT-112"/>
      <use x="305.541016" xlink:href="#ArialMT-114"/>
      <use x="338.841797" xlink:href="#ArialMT-105"/>
      <use x="361.058594" xlink:href="#ArialMT-122"/>
      <use x="411.058594" xlink:href="#ArialMT-101"/>
      <use x="466.673828" xlink:href="#ArialMT-32"/>
      <use x="494.457031" xlink:href="#ArialMT-109"/>
      <use x="577.757812" xlink:href="#ArialMT-111"/>
      <use x="633.373047" xlink:href="#ArialMT-110"/>
      <use x="688.988281" xlink:href="#ArialMT-101"/>
      <use x="744.603516" xlink:href="#ArialMT-121"/>
     </g>
    </g>
    <g id="line2d_42"/>
    <g id="text_11">
     <!-- Winner's prize money -->
     <defs>
      <path d="M 20.21875 0 
L 1.21875 71.578125 
L 10.9375 71.578125 
L 21.828125 24.65625 
Q 23.578125 17.28125 24.859375 10.015625 
Q 27.59375 21.484375 28.078125 23.25 
L 41.703125 71.578125 
L 53.125 71.578125 
L 63.375 35.359375 
Q 67.234375 21.875 68.953125 10.015625 
Q 70.3125 16.796875 72.515625 25.59375 
L 83.734375 71.578125 
L 93.265625 71.578125 
L 73.640625 0 
L 64.5 0 
L 49.421875 54.546875 
Q 47.515625 61.375 47.171875 62.9375 
Q 46.046875 58.015625 45.0625 54.546875 
L 29.890625 0 
z
" id="ArialMT-87"/>
      <path d="M 6.640625 46.234375 
L 4.390625 59.625 
L 4.390625 71.578125 
L 14.40625 71.578125 
L 14.40625 59.625 
L 12.0625 46.234375 
z
" id="ArialMT-39"/>
      <path d="M 3.078125 15.484375 
L 11.765625 16.84375 
Q 12.5 11.625 15.84375 8.84375 
Q 19.1875 6.0625 25.203125 6.0625 
Q 31.25 6.0625 34.171875 8.515625 
Q 37.109375 10.984375 37.109375 14.3125 
Q 37.109375 17.28125 34.515625 19 
Q 32.71875 20.171875 25.53125 21.96875 
Q 15.875 24.421875 12.140625 26.203125 
Q 8.40625 27.984375 6.46875 31.125 
Q 4.546875 34.28125 4.546875 38.09375 
Q 4.546875 41.546875 6.125 44.5 
Q 7.71875 47.46875 10.453125 49.421875 
Q 12.5 50.921875 16.03125 51.96875 
Q 19.578125 53.03125 23.640625 53.03125 
Q 29.734375 53.03125 34.34375 51.265625 
Q 38.96875 49.515625 41.15625 46.5 
Q 43.359375 43.5 44.1875 38.484375 
L 35.59375 37.3125 
Q 35.015625 41.3125 32.203125 43.546875 
Q 29.390625 45.796875 24.265625 45.796875 
Q 18.21875 45.796875 15.625 43.796875 
Q 13.03125 41.796875 13.03125 39.109375 
Q 13.03125 37.40625 14.109375 36.03125 
Q 15.1875 34.625 17.484375 33.6875 
Q 18.796875 33.203125 25.25 31.453125 
Q 34.578125 28.953125 38.25 27.359375 
Q 41.9375 25.78125 44.03125 22.75 
Q 46.140625 19.734375 46.140625 15.234375 
Q 46.140625 10.84375 43.578125 6.953125 
Q 41.015625 3.078125 36.171875 0.953125 
Q 31.34375 -1.171875 25.25 -1.171875 
Q 15.140625 -1.171875 9.84375 3.03125 
Q 4.546875 7.234375 3.078125 15.484375 
z
" id="ArialMT-115"/>
     </defs>
     <g style="fill:#ff7f0e;" transform="translate(121.038125 139.825312)scale(0.24 -0.24)">
      <use xlink:href="#ArialMT-87"/>
      <use x="94.384766" xlink:href="#ArialMT-105"/>
      <use x="116.601562" xlink:href="#ArialMT-110"/>
      <use x="172.216797" xlink:href="#ArialMT-110"/>
      <use x="227.832031" xlink:href="#ArialMT-101"/>
      <use x="283.447266" xlink:href="#ArialMT-114"/>
      <use x="316.748047" xlink:href="#ArialMT-39"/>
      <use x="335.839844" xlink:href="#ArialMT-115"/>
      <use x="385.839844" xlink:href="#ArialMT-32"/>
      <use x="413.623047" xlink:href="#ArialMT-112"/>
      <use x="469.238281" xlink:href="#ArialMT-114"/>
      <use x="502.539062" xlink:href="#ArialMT-105"/>
      <use x="524.755859" xlink:href="#ArialMT-122"/>
      <use x="574.755859" xlink:href="#ArialMT-101"/>
      <use x="630.371094" xlink:href="#ArialMT-32"/>
      <use x="658.154297" xlink:href="#ArialMT-109"/>
      <use x="741.455078" xlink:href="#ArialMT-111"/>
      <use x="797.070312" xlink:href="#ArialMT-110"/>
      <use x="852.685547" xlink:href="#ArialMT-101"/>
      <use x="908.300781" xlink:href="#ArialMT-121"/>
     </g>
    </g>
   </g>
  </g>
  <g id="text_12">
   <!-- Tour de France Prize Money -->
   <defs>
    <path d="M 40.578125 0 
L 40.578125 7.625 
Q 34.515625 -1.171875 24.125 -1.171875 
Q 19.53125 -1.171875 15.546875 0.578125 
Q 11.578125 2.34375 9.640625 5 
Q 7.71875 7.671875 6.9375 11.53125 
Q 6.390625 14.109375 6.390625 19.734375 
L 6.390625 51.859375 
L 15.1875 51.859375 
L 15.1875 23.09375 
Q 15.1875 16.21875 15.71875 13.8125 
Q 16.546875 10.359375 19.234375 8.375 
Q 21.921875 6.390625 25.875 6.390625 
Q 29.828125 6.390625 33.296875 8.421875 
Q 36.765625 10.453125 38.203125 13.9375 
Q 39.65625 17.4375 39.65625 24.078125 
L 39.65625 51.859375 
L 48.4375 51.859375 
L 48.4375 0 
z
" id="ArialMT-117"/>
    <path d="M 40.234375 0 
L 40.234375 6.546875 
Q 35.296875 -1.171875 25.734375 -1.171875 
Q 19.53125 -1.171875 14.328125 2.25 
Q 9.125 5.671875 6.265625 11.796875 
Q 3.421875 17.921875 3.421875 25.875 
Q 3.421875 33.640625 6 39.96875 
Q 8.59375 46.296875 13.765625 49.65625 
Q 18.953125 53.03125 25.34375 53.03125 
Q 30.03125 53.03125 33.6875 51.046875 
Q 37.359375 49.078125 39.65625 45.90625 
L 39.65625 71.578125 
L 48.390625 71.578125 
L 48.390625 0 
z
M 12.453125 25.875 
Q 12.453125 15.921875 16.640625 10.984375 
Q 20.84375 6.0625 26.5625 6.0625 
Q 32.328125 6.0625 36.34375 10.765625 
Q 40.375 15.484375 40.375 25.140625 
Q 40.375 35.796875 36.265625 40.765625 
Q 32.171875 45.75 26.171875 45.75 
Q 20.3125 45.75 16.375 40.96875 
Q 12.453125 36.1875 12.453125 25.875 
z
" id="ArialMT-100"/>
    <path d="M 8.203125 0 
L 8.203125 71.578125 
L 56.5 71.578125 
L 56.5 63.140625 
L 17.671875 63.140625 
L 17.671875 40.96875 
L 51.265625 40.96875 
L 51.265625 32.515625 
L 17.671875 32.515625 
L 17.671875 0 
z
" id="ArialMT-70"/>
    <path d="M 40.4375 19 
L 49.078125 17.875 
Q 47.65625 8.9375 41.8125 3.875 
Q 35.984375 -1.171875 27.484375 -1.171875 
Q 16.84375 -1.171875 10.375 5.78125 
Q 3.90625 12.75 3.90625 25.734375 
Q 3.90625 34.125 6.6875 40.421875 
Q 9.46875 46.734375 15.15625 49.875 
Q 20.84375 53.03125 27.546875 53.03125 
Q 35.984375 53.03125 41.359375 48.75 
Q 46.734375 44.484375 48.25 36.625 
L 39.703125 35.296875 
Q 38.484375 40.53125 35.375 43.15625 
Q 32.28125 45.796875 27.875 45.796875 
Q 21.234375 45.796875 17.078125 41.03125 
Q 12.9375 36.28125 12.9375 25.984375 
Q 12.9375 15.53125 16.9375 10.796875 
Q 20.953125 6.0625 27.390625 6.0625 
Q 32.5625 6.0625 36.03125 9.234375 
Q 39.5 12.40625 40.4375 19 
z
" id="ArialMT-99"/>
    <path d="M 7.71875 0 
L 7.71875 71.578125 
L 34.71875 71.578125 
Q 41.84375 71.578125 45.609375 70.90625 
Q 50.875 70.015625 54.4375 67.546875 
Q 58.015625 65.09375 60.1875 60.640625 
Q 62.359375 56.203125 62.359375 50.875 
Q 62.359375 41.75 56.546875 35.421875 
Q 50.734375 29.109375 35.546875 29.109375 
L 17.1875 29.109375 
L 17.1875 0 
z
M 17.1875 37.546875 
L 35.6875 37.546875 
Q 44.875 37.546875 48.734375 40.96875 
Q 52.59375 44.390625 52.59375 50.59375 
Q 52.59375 55.078125 50.3125 58.265625 
Q 48.046875 61.46875 44.34375 62.5 
Q 41.9375 63.140625 35.5 63.140625 
L 17.1875 63.140625 
z
" id="ArialMT-80"/>
   </defs>
   <g style="fill:#262626;" transform="translate(208.061406 31.536563)scale(0.34 -0.34)">
    <use xlink:href="#ArialMT-84"/>
    <use x="60.912109" xlink:href="#ArialMT-111"/>
    <use x="116.527344" xlink:href="#ArialMT-117"/>
    <use x="172.142578" xlink:href="#ArialMT-114"/>
    <use x="205.443359" xlink:href="#ArialMT-32"/>
    <use x="233.226562" xlink:href="#ArialMT-100"/>
    <use x="288.841797" xlink:href="#ArialMT-101"/>
    <use x="344.457031" xlink:href="#ArialMT-32"/>
    <use x="372.240234" xlink:href="#ArialMT-70"/>
    <use x="433.324219" xlink:href="#ArialMT-114"/>
    <use x="466.625" xlink:href="#ArialMT-97"/>
    <use x="522.240234" xlink:href="#ArialMT-110"/>
    <use x="577.855469" xlink:href="#ArialMT-99"/>
    <use x="627.855469" xlink:href="#ArialMT-101"/>
    <use x="683.470703" xlink:href="#ArialMT-32"/>
    <use x="711.253906" xlink:href="#ArialMT-80"/>
    <use x="777.953125" xlink:href="#ArialMT-114"/>
    <use x="811.253906" xlink:href="#ArialMT-105"/>
    <use x="833.470703" xlink:href="#ArialMT-122"/>
    <use x="883.470703" xlink:href="#ArialMT-101"/>
    <use x="939.085938" xlink:href="#ArialMT-32"/>
    <use x="966.869141" xlink:href="#ArialMT-77"/>
    <use x="1050.169922" xlink:href="#ArialMT-111"/>
    <use x="1105.785156" xlink:href="#ArialMT-110"/>
    <use x="1161.400391" xlink:href="#ArialMT-101"/>
    <use x="1217.015625" xlink:href="#ArialMT-121"/>
   </g>
  </g>
  <g id="text_13">
   <!-- In 2013 Euro -->
   <defs>
    <path d="M 9.328125 0 
L 9.328125 71.578125 
L 18.796875 71.578125 
L 18.796875 0 
z
" id="ArialMT-73"/>
    <path d="M 7.90625 0 
L 7.90625 71.578125 
L 59.671875 71.578125 
L 59.671875 63.140625 
L 17.390625 63.140625 
L 17.390625 41.21875 
L 56.984375 41.21875 
L 56.984375 32.8125 
L 17.390625 32.8125 
L 17.390625 8.453125 
L 61.328125 8.453125 
L 61.328125 0 
z
" id="ArialMT-69"/>
   </defs>
   <g style="fill:#262626;" transform="translate(354.725 56.736562)scale(0.24 -0.24)">
    <use xlink:href="#ArialMT-73"/>
    <use x="27.783203" xlink:href="#ArialMT-110"/>
    <use x="83.398438" xlink:href="#ArialMT-32"/>
    <use x="111.181641" xlink:href="#ArialMT-50"/>
    <use x="166.796875" xlink:href="#ArialMT-48"/>
    <use x="222.412109" xlink:href="#ArialMT-49"/>
    <use x="278.027344" xlink:href="#ArialMT-51"/>
    <use x="333.642578" xlink:href="#ArialMT-32"/>
    <use x="361.425781" xlink:href="#ArialMT-69"/>
    <use x="428.125" xlink:href="#ArialMT-117"/>
    <use x="483.740234" xlink:href="#ArialMT-114"/>
    <use x="517.041016" xlink:href="#ArialMT-111"/>
   </g>
  </g>
 </g>
 <defs>
  <clipPath id="pacf63f2445">
   <rect height="380.52" width="669.6" x="99.438125" y="66.816562"/>
  </clipPath>
 </defs>
</svg>
