<?xml version="1.0" encoding="utf-8" standalone="no"?>
<!DOCTYPE svg PUBLIC "-//W3C//DTD SVG 1.1//EN"
  "http://www.w3.org/Graphics/SVG/1.1/DTD/svg11.dtd">
<!-- Created with matplotlib (https://matplotlib.org/) -->
<svg height="596.95625pt" version="1.1" viewBox="0 0 776.238125 596.95625" width="776.238125pt" xmlns="http://www.w3.org/2000/svg" xmlns:xlink="http://www.w3.org/1999/xlink">
 <defs>
  <style type="text/css">
*{stroke-linecap:butt;stroke-linejoin:round;}
  </style>
 </defs>
 <g id="figure_1">
  <g id="patch_1">
   <path d="M 0 596.95625 
L 776.238125 596.95625 
L 776.238125 0 
L 0 0 
z
" style="fill:#ffffff;"/>
  </g>
  <g id="axes_1">
   <g id="patch_2">
    <path d="M 99.438125 566.136562 
L 769.038125 566.136562 
L 769.038125 76.896562 
L 99.438125 76.896562 
z
" style="fill:#ffffff;"/>
   </g>
   <g id="patch_3">
    <path clip-path="url(#p691eb3287b)" d="M 93.568391 566.136562 
L 93.568391 76.896562 
L 152.297897 76.896562 
L 152.297897 566.136562 
z
" style="fill:#f7f7f7;stroke:#f7f7f7;stroke-linejoin:miter;"/>
   </g>
   <g id="patch_4">
    <path clip-path="url(#p691eb3287b)" d="M 211.027404 566.136562 
L 211.027404 76.896562 
L 269.772992 76.896562 
L 269.772992 566.136562 
z
" style="fill:#f7f7f7;stroke:#f7f7f7;stroke-linejoin:miter;"/>
   </g>
   <g id="patch_5">
    <path clip-path="url(#p691eb3287b)" d="M 328.502499 566.136562 
L 328.502499 76.896562 
L 387.248087 76.896562 
L 387.248087 566.136562 
z
" style="fill:#f7f7f7;stroke:#f7f7f7;stroke-linejoin:miter;"/>
   </g>
   <g id="patch_6">
    <path clip-path="url(#p691eb3287b)" d="M 445.977594 566.136562 
L 445.977594 76.896562 
L 504.723182 76.896562 
L 504.723182 566.136562 
z
" style="fill:#f7f7f7;stroke:#f7f7f7;stroke-linejoin:miter;"/>
   </g>
   <g id="patch_7">
    <path clip-path="url(#p691eb3287b)" d="M 563.452689 566.136562 
L 563.452689 76.896562 
L 622.198277 76.896562 
L 622.198277 566.136562 
z
" style="fill:#f7f7f7;stroke:#f7f7f7;stroke-linejoin:miter;"/>
   </g>
   <g id="patch_8">
    <path clip-path="url(#p691eb3287b)" d="M 680.927783 566.136562 
L 680.927783 76.896562 
L 739.673372 76.896562 
L 739.673372 566.136562 
z
" style="fill:#f7f7f7;stroke:#f7f7f7;stroke-linejoin:miter;"/>
   </g>
   <g id="matplotlib.axis_1">
    <g id="xtick_1">
     <g id="line2d_1"/>
     <g id="text_1">
      <!-- 1910 -->
      <defs>
       <path d="M 37.25 0 
L 28.46875 0 
L 28.46875 56 
Q 25.296875 52.984375 20.140625 49.953125 
Q 14.984375 46.921875 10.890625 45.40625 
L 10.890625 53.90625 
Q 18.265625 57.375 23.78125 62.296875 
Q 29.296875 67.234375 31.59375 71.875 
L 37.25 71.875 
z
" id="ArialMT-49"/>
       <path d="M 5.46875 16.546875 
L 13.921875 17.328125 
Q 14.984375 11.375 18.015625 8.6875 
Q 21.046875 6 25.78125 6 
Q 29.828125 6 32.875 7.859375 
Q 35.9375 9.71875 37.890625 12.8125 
Q 39.84375 15.921875 41.15625 21.1875 
Q 42.484375 26.46875 42.484375 31.9375 
Q 42.484375 32.515625 42.4375 33.6875 
Q 39.796875 29.5 35.234375 26.875 
Q 30.671875 24.265625 25.34375 24.265625 
Q 16.453125 24.265625 10.296875 30.703125 
Q 4.15625 37.15625 4.15625 47.703125 
Q 4.15625 58.59375 10.578125 65.234375 
Q 17 71.875 26.65625 71.875 
Q 33.640625 71.875 39.421875 68.109375 
Q 45.21875 64.359375 48.21875 57.390625 
Q 51.21875 50.4375 51.21875 37.25 
Q 51.21875 23.53125 48.234375 15.40625 
Q 45.265625 7.28125 39.375 3.03125 
Q 33.5 -1.21875 25.59375 -1.21875 
Q 17.1875 -1.21875 11.859375 3.4375 
Q 6.546875 8.109375 5.46875 16.546875 
z
M 41.453125 48.140625 
Q 41.453125 55.71875 37.421875 60.15625 
Q 33.40625 64.59375 27.734375 64.59375 
Q 21.875 64.59375 17.53125 59.8125 
Q 13.1875 55.03125 13.1875 47.40625 
Q 13.1875 40.578125 17.3125 36.296875 
Q 21.4375 32.03125 27.484375 32.03125 
Q 33.59375 32.03125 37.515625 36.296875 
Q 41.453125 40.578125 41.453125 48.140625 
z
" id="ArialMT-57"/>
       <path d="M 4.15625 35.296875 
Q 4.15625 48 6.765625 55.734375 
Q 9.375 63.484375 14.515625 67.671875 
Q 19.671875 71.875 27.484375 71.875 
Q 33.25 71.875 37.59375 69.546875 
Q 41.9375 67.234375 44.765625 62.859375 
Q 47.609375 58.5 49.21875 52.21875 
Q 50.828125 45.953125 50.828125 35.296875 
Q 50.828125 22.703125 48.234375 14.96875 
Q 45.65625 7.234375 40.5 3 
Q 35.359375 -1.21875 27.484375 -1.21875 
Q 17.140625 -1.21875 11.234375 6.203125 
Q 4.15625 15.140625 4.15625 35.296875 
z
M 13.1875 35.296875 
Q 13.1875 17.671875 17.3125 11.828125 
Q 21.4375 6 27.484375 6 
Q 33.546875 6 37.671875 11.859375 
Q 41.796875 17.71875 41.796875 35.296875 
Q 41.796875 52.984375 37.671875 58.78125 
Q 33.546875 64.59375 27.390625 64.59375 
Q 21.34375 64.59375 17.71875 59.46875 
Q 13.1875 52.9375 13.1875 35.296875 
z
" id="ArialMT-48"/>
      </defs>
      <g style="fill:#262626;" transform="translate(127.829772 585.38375)scale(0.22 -0.22)">
       <use xlink:href="#ArialMT-49"/>
       <use x="55.615234" xlink:href="#ArialMT-57"/>
       <use x="111.230469" xlink:href="#ArialMT-49"/>
       <use x="166.845703" xlink:href="#ArialMT-48"/>
      </g>
     </g>
    </g>
    <g id="xtick_2">
     <g id="line2d_2"/>
     <g id="text_2">
      <!-- 1930 -->
      <defs>
       <path d="M 4.203125 18.890625 
L 12.984375 20.0625 
Q 14.5 12.59375 18.140625 9.296875 
Q 21.78125 6 27 6 
Q 33.203125 6 37.46875 10.296875 
Q 41.75 14.59375 41.75 20.953125 
Q 41.75 27 37.796875 30.921875 
Q 33.84375 34.859375 27.734375 34.859375 
Q 25.25 34.859375 21.53125 33.890625 
L 22.515625 41.609375 
Q 23.390625 41.5 23.921875 41.5 
Q 29.546875 41.5 34.03125 44.421875 
Q 38.53125 47.359375 38.53125 53.46875 
Q 38.53125 58.296875 35.25 61.46875 
Q 31.984375 64.65625 26.8125 64.65625 
Q 21.6875 64.65625 18.265625 61.421875 
Q 14.84375 58.203125 13.875 51.765625 
L 5.078125 53.328125 
Q 6.6875 62.15625 12.390625 67.015625 
Q 18.109375 71.875 26.609375 71.875 
Q 32.46875 71.875 37.390625 69.359375 
Q 42.328125 66.84375 44.9375 62.5 
Q 47.5625 58.15625 47.5625 53.265625 
Q 47.5625 48.640625 45.0625 44.828125 
Q 42.578125 41.015625 37.703125 38.765625 
Q 44.046875 37.3125 47.5625 32.6875 
Q 51.078125 28.078125 51.078125 21.140625 
Q 51.078125 11.765625 44.234375 5.25 
Q 37.40625 -1.265625 26.953125 -1.265625 
Q 17.53125 -1.265625 11.296875 4.34375 
Q 5.078125 9.96875 4.203125 18.890625 
z
" id="ArialMT-51"/>
      </defs>
      <g style="fill:#262626;" transform="translate(245.304867 585.38375)scale(0.22 -0.22)">
       <use xlink:href="#ArialMT-49"/>
       <use x="55.615234" xlink:href="#ArialMT-57"/>
       <use x="111.230469" xlink:href="#ArialMT-51"/>
       <use x="166.845703" xlink:href="#ArialMT-48"/>
      </g>
     </g>
    </g>
    <g id="xtick_3">
     <g id="line2d_3"/>
     <g id="text_3">
      <!-- 1950 -->
      <defs>
       <path d="M 4.15625 18.75 
L 13.375 19.53125 
Q 14.40625 12.796875 18.140625 9.390625 
Q 21.875 6 27.15625 6 
Q 33.5 6 37.890625 10.78125 
Q 42.28125 15.578125 42.28125 23.484375 
Q 42.28125 31 38.0625 35.34375 
Q 33.84375 39.703125 27 39.703125 
Q 22.75 39.703125 19.328125 37.765625 
Q 15.921875 35.84375 13.96875 32.765625 
L 5.71875 33.84375 
L 12.640625 70.609375 
L 48.25 70.609375 
L 48.25 62.203125 
L 19.671875 62.203125 
L 15.828125 42.96875 
Q 22.265625 47.46875 29.34375 47.46875 
Q 38.71875 47.46875 45.15625 40.96875 
Q 51.609375 34.46875 51.609375 24.265625 
Q 51.609375 14.546875 45.953125 7.46875 
Q 39.0625 -1.21875 27.15625 -1.21875 
Q 17.390625 -1.21875 11.203125 4.25 
Q 5.03125 9.71875 4.15625 18.75 
z
" id="ArialMT-53"/>
      </defs>
      <g style="fill:#262626;" transform="translate(362.779962 585.38375)scale(0.22 -0.22)">
       <use xlink:href="#ArialMT-49"/>
       <use x="55.615234" xlink:href="#ArialMT-57"/>
       <use x="111.230469" xlink:href="#ArialMT-53"/>
       <use x="166.845703" xlink:href="#ArialMT-48"/>
      </g>
     </g>
    </g>
    <g id="xtick_4">
     <g id="line2d_4"/>
     <g id="text_4">
      <!-- 1970 -->
      <defs>
       <path d="M 4.734375 62.203125 
L 4.734375 70.65625 
L 51.078125 70.65625 
L 51.078125 63.8125 
Q 44.234375 56.546875 37.515625 44.484375 
Q 30.8125 32.421875 27.15625 19.671875 
Q 24.515625 10.6875 23.78125 0 
L 14.75 0 
Q 14.890625 8.453125 18.0625 20.40625 
Q 21.234375 32.375 27.171875 43.484375 
Q 33.109375 54.59375 39.796875 62.203125 
z
" id="ArialMT-55"/>
      </defs>
      <g style="fill:#262626;" transform="translate(480.255057 585.38375)scale(0.22 -0.22)">
       <use xlink:href="#ArialMT-49"/>
       <use x="55.615234" xlink:href="#ArialMT-57"/>
       <use x="111.230469" xlink:href="#ArialMT-55"/>
       <use x="166.845703" xlink:href="#ArialMT-48"/>
      </g>
     </g>
    </g>
    <g id="xtick_5">
     <g id="line2d_5"/>
     <g id="text_5">
      <!-- 1990 -->
      <g style="fill:#262626;" transform="translate(597.730152 585.38375)scale(0.22 -0.22)">
       <use xlink:href="#ArialMT-49"/>
       <use x="55.615234" xlink:href="#ArialMT-57"/>
       <use x="111.230469" xlink:href="#ArialMT-57"/>
       <use x="166.845703" xlink:href="#ArialMT-48"/>
      </g>
     </g>
    </g>
    <g id="xtick_6">
     <g id="line2d_6"/>
     <g id="text_6">
      <!-- 2010 -->
      <defs>
       <path d="M 50.34375 8.453125 
L 50.34375 0 
L 3.03125 0 
Q 2.9375 3.171875 4.046875 6.109375 
Q 5.859375 10.9375 9.828125 15.625 
Q 13.8125 20.3125 21.34375 26.46875 
Q 33.015625 36.03125 37.109375 41.625 
Q 41.21875 47.21875 41.21875 52.203125 
Q 41.21875 57.421875 37.46875 61 
Q 33.734375 64.59375 27.734375 64.59375 
Q 21.390625 64.59375 17.578125 60.78125 
Q 13.765625 56.984375 13.71875 50.25 
L 4.6875 51.171875 
Q 5.609375 61.28125 11.65625 66.578125 
Q 17.71875 71.875 27.9375 71.875 
Q 38.234375 71.875 44.234375 66.15625 
Q 50.25 60.453125 50.25 52 
Q 50.25 47.703125 48.484375 43.546875 
Q 46.734375 39.40625 42.65625 34.8125 
Q 38.578125 30.21875 29.109375 22.21875 
Q 21.1875 15.578125 18.9375 13.203125 
Q 16.703125 10.84375 15.234375 8.453125 
z
" id="ArialMT-50"/>
      </defs>
      <g style="fill:#262626;" transform="translate(715.205247 585.38375)scale(0.22 -0.22)">
       <use xlink:href="#ArialMT-50"/>
       <use x="55.615234" xlink:href="#ArialMT-48"/>
       <use x="111.230469" xlink:href="#ArialMT-49"/>
       <use x="166.845703" xlink:href="#ArialMT-48"/>
      </g>
     </g>
    </g>
   </g>
   <g id="matplotlib.axis_2">
    <g id="ytick_1">
     <g id="line2d_7">
      <path clip-path="url(#p691eb3287b)" d="M 99.438125 504.474149 
L 769.038125 504.474149 
" style="fill:none;stroke:#cccccc;stroke-linecap:round;stroke-width:0.8;"/>
     </g>
     <g id="line2d_8"/>
     <g id="text_7">
      <!-- €10 K -->
      <defs>
       <path d="M 38.578125 64.703125 
Q 30.375 64.703125 24.8125 60.75 
Q 21.484375 58.40625 18.796875 54.109375 
Q 16.0625 49.65625 15.578125 45.65625 
L 48.875 45.65625 
L 47.5625 39.109375 
L 14.796875 39.109375 
Q 14.75 38.09375 14.75 37.15625 
Q 14.75 33.40625 14.796875 32.671875 
L 46.234375 32.671875 
L 44.875 26.125 
L 15.828125 26.125 
Q 17.875 14.9375 25.6875 10.25 
Q 31.296875 6.890625 37.84375 6.890625 
Q 46.96875 6.890625 52.09375 11.671875 
L 52.09375 1.609375 
Q 46 -1.21875 38.625 -1.21875 
Q 16.546875 -1.21875 8.796875 17.140625 
Q 7.234375 20.84375 6.109375 26.125 
L -1.375 26.125 
L 0 32.671875 
L 5.125 32.671875 
Q 4.984375 34.71875 4.984375 37.109375 
Q 4.984375 38.09375 5.03125 39.109375 
L -1.375 39.109375 
L 0 45.65625 
L 5.671875 45.65625 
Q 8.6875 61.578125 21.4375 68.5 
Q 29.296875 72.796875 38.765625 72.796875 
Q 47.859375 72.796875 54.046875 68.84375 
L 52.09375 59.765625 
Q 46.140625 64.703125 38.578125 64.703125 
z
" id="ArialMT-8364"/>
       <path id="ArialMT-32"/>
       <path d="M 7.328125 0 
L 7.328125 71.578125 
L 16.796875 71.578125 
L 16.796875 36.078125 
L 52.34375 71.578125 
L 65.1875 71.578125 
L 35.15625 42.578125 
L 66.5 0 
L 54 0 
L 28.515625 36.234375 
L 16.796875 24.8125 
L 16.796875 0 
z
" id="ArialMT-75"/>
      </defs>
      <g style="fill:#262626;" transform="translate(22.770625 514.495086)scale(0.28 -0.28)">
       <use xlink:href="#ArialMT-8364"/>
       <use x="55.615234" xlink:href="#ArialMT-49"/>
       <use x="111.230469" xlink:href="#ArialMT-48"/>
       <use x="166.845703" xlink:href="#ArialMT-32"/>
       <use x="194.628906" xlink:href="#ArialMT-75"/>
      </g>
     </g>
    </g>
    <g id="ytick_2">
     <g id="line2d_9">
      <path clip-path="url(#p691eb3287b)" d="M 99.438125 345.622183 
L 769.038125 345.622183 
" style="fill:none;stroke:#cccccc;stroke-linecap:round;stroke-width:0.8;"/>
     </g>
     <g id="line2d_10"/>
     <g id="text_8">
      <!-- €100 K -->
      <g style="fill:#262626;" transform="translate(7.2 355.643121)scale(0.28 -0.28)">
       <use xlink:href="#ArialMT-8364"/>
       <use x="55.615234" xlink:href="#ArialMT-49"/>
       <use x="111.230469" xlink:href="#ArialMT-48"/>
       <use x="166.845703" xlink:href="#ArialMT-48"/>
       <use x="222.460938" xlink:href="#ArialMT-32"/>
       <use x="250.244141" xlink:href="#ArialMT-75"/>
      </g>
     </g>
    </g>
    <g id="ytick_3">
     <g id="line2d_11">
      <path clip-path="url(#p691eb3287b)" d="M 99.438125 186.770218 
L 769.038125 186.770218 
" style="fill:none;stroke:#cccccc;stroke-linecap:round;stroke-width:0.8;"/>
     </g>
     <g id="line2d_12"/>
     <g id="text_9">
      <!-- €1 M -->
      <defs>
       <path d="M 7.421875 0 
L 7.421875 71.578125 
L 21.6875 71.578125 
L 38.625 20.90625 
Q 40.96875 13.8125 42.046875 10.296875 
Q 43.265625 14.203125 45.84375 21.78125 
L 62.984375 71.578125 
L 75.734375 71.578125 
L 75.734375 0 
L 66.609375 0 
L 66.609375 59.90625 
L 45.796875 0 
L 37.25 0 
L 16.546875 60.9375 
L 16.546875 0 
z
" id="ArialMT-77"/>
      </defs>
      <g style="fill:#262626;" transform="translate(33.695 196.791156)scale(0.28 -0.28)">
       <use xlink:href="#ArialMT-8364"/>
       <use x="55.615234" xlink:href="#ArialMT-49"/>
       <use x="111.230469" xlink:href="#ArialMT-32"/>
       <use x="139.013672" xlink:href="#ArialMT-77"/>
      </g>
     </g>
    </g>
    <g id="ytick_4">
     <g id="line2d_13"/>
    </g>
    <g id="ytick_5">
     <g id="line2d_14"/>
    </g>
    <g id="ytick_6">
     <g id="line2d_15"/>
    </g>
    <g id="ytick_7">
     <g id="line2d_16"/>
    </g>
    <g id="ytick_8">
     <g id="line2d_17"/>
    </g>
    <g id="ytick_9">
     <g id="line2d_18"/>
    </g>
    <g id="ytick_10">
     <g id="line2d_19"/>
    </g>
    <g id="ytick_11">
     <g id="line2d_20"/>
    </g>
    <g id="ytick_12">
     <g id="line2d_21"/>
    </g>
    <g id="ytick_13">
     <g id="line2d_22"/>
    </g>
    <g id="ytick_14">
     <g id="line2d_23"/>
    </g>
    <g id="ytick_15">
     <g id="line2d_24"/>
    </g>
    <g id="ytick_16">
     <g id="line2d_25"/>
    </g>
    <g id="ytick_17">
     <g id="line2d_26"/>
    </g>
    <g id="ytick_18">
     <g id="line2d_27"/>
    </g>
    <g id="ytick_19">
     <g id="line2d_28"/>
    </g>
    <g id="ytick_20">
     <g id="line2d_29"/>
    </g>
    <g id="ytick_21">
     <g id="line2d_30"/>
    </g>
    <g id="ytick_22">
     <g id="line2d_31"/>
    </g>
    <g id="ytick_23">
     <g id="line2d_32"/>
    </g>
    <g id="ytick_24">
     <g id="line2d_33"/>
    </g>
    <g id="ytick_25">
     <g id="line2d_34"/>
    </g>
    <g id="ytick_26">
     <g id="line2d_35"/>
    </g>
    <g id="ytick_27">
     <g id="line2d_36"/>
    </g>
   </g>
   <g id="line2d_37">
    <path clip-path="url(#p691eb3287b)" d="M 117.031247 362.014562 
L 122.917063 362.014562 
L 122.917063 357.676032 
L 128.786797 357.676032 
L 128.786797 345.578734 
L 134.656531 345.578734 
L 134.656531 346.469718 
L 140.526266 346.469718 
L 140.526266 347.428992 
L 146.412081 347.428992 
L 146.412081 336.419535 
L 152.281816 336.419535 
L 152.281816 348.859395 
L 158.15155 348.859395 
L 158.15155 350.965591 
L 164.021285 350.965591 
L 164.021285 344.900215 
L 169.9071 344.900215 
L 169.9071 338.614856 
L 175.776835 338.614856 
L 175.776835 326.769427 
L 181.646569 326.769427 
L 181.646569 318.471439 
L 187.516304 318.471439 
M 211.011323 376.645187 
L 216.897138 376.645187 
L 216.897138 365.483666 
L 222.766873 365.483666 
L 222.766873 357.00722 
L 228.636607 357.00722 
L 228.636607 354.262708 
L 234.506342 354.262708 
L 234.506342 346.067906 
L 240.392157 346.067906 
L 240.392157 355.046735 
L 246.261892 355.046735 
L 246.261892 360.601263 
L 252.131626 360.601263 
L 252.131626 372.11595 
L 258.001361 372.11595 
L 258.001361 381.03137 
L 263.887176 381.03137 
L 263.887176 380.893195 
L 269.756911 380.893195 
L 269.756911 357.070715 
L 275.626645 357.070715 
L 275.626645 261.295616 
L 281.496379 261.295616 
L 281.496379 253.715494 
L 287.382195 253.715494 
L 287.382195 242.172321 
L 293.25193 242.172321 
L 293.25193 235.260905 
L 299.121664 235.260905 
L 299.121664 233.357997 
L 304.991398 233.357997 
L 304.991398 200.309449 
L 310.877214 200.309449 
L 310.877214 211.245155 
L 316.746949 211.245155 
L 316.746949 242.47391 
L 322.616683 242.47391 
L 322.616683 243.14524 
L 328.486417 243.14524 
L 328.486417 247.554499 
L 334.372233 247.554499 
M 375.476455 283.551107 
L 381.362271 283.551107 
L 381.362271 286.060369 
L 387.232006 286.060369 
L 387.232006 257.429352 
L 393.10174 257.429352 
L 393.10174 253.370087 
L 398.971474 253.370087 
L 398.971474 245.392384 
L 404.85729 245.392384 
L 404.85729 223.725072 
L 410.727025 223.725072 
L 410.727025 207.147839 
L 416.596759 207.147839 
L 416.596759 200.946607 
L 422.466493 200.946607 
L 422.466493 204.797537 
L 428.352309 204.797537 
L 428.352309 205.206203 
L 434.222044 205.206203 
L 434.222044 203.70684 
L 440.091778 203.70684 
L 440.091778 213.408776 
L 445.961512 213.408776 
L 445.961512 214.605751 
L 451.847328 214.605751 
L 451.847328 220.000135 
L 457.717063 220.000135 
L 457.717063 206.845667 
L 463.586797 206.845667 
L 463.586797 199.368794 
L 469.456531 199.368794 
L 469.456531 206.673392 
L 475.342347 206.673392 
L 475.342347 209.838289 
L 481.212081 209.838289 
L 481.212081 230.234004 
L 487.081816 230.234004 
L 487.081816 230.357432 
L 492.95155 230.357432 
L 492.95155 215.392235 
L 498.837366 215.392235 
L 498.837366 214.34629 
L 504.7071 214.34629 
L 504.7071 215.736668 
L 510.576835 215.736668 
L 510.576835 218.601578 
L 516.446569 218.601578 
L 516.446569 239.686382 
L 522.332385 239.686382 
L 522.332385 232.829942 
L 528.202119 232.829942 
L 528.202119 225.363114 
L 534.071854 225.363114 
L 534.071854 220.721081 
L 539.941588 220.721081 
L 539.941588 225.057443 
L 545.827404 225.057443 
L 545.827404 219.264212 
L 551.697138 219.264212 
L 551.697138 215.029559 
L 557.566873 215.029559 
L 557.566873 217.636674 
L 563.436607 217.636674 
L 563.436607 218.761759 
L 569.322423 218.761759 
L 569.322423 220.237634 
L 575.192157 220.237634 
L 575.192157 198.150698 
L 581.061892 198.150698 
L 581.061892 209.402577 
L 586.931626 209.402577 
L 586.931626 212.758287 
L 592.817442 212.758287 
L 592.817442 210.383451 
L 598.687176 210.383451 
L 598.687176 203.300096 
L 604.556911 203.300096 
L 604.556911 177.225259 
L 610.426645 177.225259 
L 610.426645 156.296878 
L 616.312461 156.296878 
L 616.312461 145.322895 
L 622.182195 145.322895 
L 622.182195 143.099923 
L 628.05193 143.099923 
L 628.05193 130.400235 
L 633.921664 130.400235 
L 633.921664 140.210124 
L 639.80748 140.210124 
L 639.80748 133.599212 
L 645.677214 133.599212 
L 645.677214 129.505157 
L 651.546949 129.505157 
L 651.546949 127.01931 
L 657.416683 127.01931 
L 657.416683 125.305653 
L 663.302499 125.305653 
L 663.302499 127.181466 
L 669.172233 127.181466 
L 669.172233 128.177658 
L 675.041968 128.177658 
L 675.041968 128.385702 
L 680.911702 128.385702 
L 680.911702 113.608156 
L 686.797518 113.608156 
L 686.797518 112.340489 
L 692.667252 112.340489 
L 692.667252 109.29032 
L 698.536987 109.29032 
L 698.536987 106.498497 
L 704.406721 106.498497 
L 704.406721 102.599703 
L 710.292537 102.599703 
L 710.292537 101.182237 
L 716.162271 101.182237 
L 716.162271 102.471779 
L 722.032006 102.471779 
L 722.032006 99.134744 
L 727.90174 99.134744 
L 727.90174 100.134121 
L 733.787556 100.134121 
L 733.787556 102.039248 
L 745.527025 102.10827 
L 745.527025 103.151998 
L 751.396759 103.151998 
L 751.396759 100.132136 
L 763.152309 100.15922 
L 763.152309 138.151805 
L 763.152309 138.151805 
" style="fill:none;stroke:#1f77b4;stroke-linecap:round;stroke-width:3;"/>
   </g>
   <g id="line2d_38">
    <path clip-path="url(#p691eb3287b)" d="M 117.031247 492.892043 
L 122.917063 492.892043 
L 122.917063 456.679092 
L 128.786797 456.679092 
L 128.786797 472.006184 
L 134.656531 472.006184 
L 134.656531 457.501779 
L 140.526266 457.501779 
L 140.526266 473.857867 
L 146.412081 473.857867 
L 146.412081 475.424737 
L 152.281816 475.424737 
L 152.281816 459.892877 
L 158.15155 459.892877 
L 158.15155 461.999841 
L 164.021285 461.999841 
L 164.021285 468.51107 
L 169.9071 468.51107 
L 169.9071 467.749298 
L 175.776835 467.749298 
L 175.776835 470.056133 
L 187.516304 470.056133 
M 211.011323 535.500397 
L 216.897138 535.500397 
L 216.897138 481.627044 
L 222.766873 481.627044 
L 222.766873 472.490498 
L 228.636607 472.490498 
L 228.636607 497.7172 
L 234.506342 497.7172 
L 234.506342 504.917094 
L 240.392157 504.917094 
L 240.392157 513.899491 
L 246.261892 513.899491 
L 246.261892 490.789657 
L 252.131626 490.789657 
L 252.131626 508.941285 
L 258.001361 508.941285 
L 258.001361 527.309849 
L 263.887176 527.309849 
L 263.887176 527.165913 
L 269.756911 527.165913 
L 269.756911 543.898381 
L 275.626645 543.898381 
L 275.626645 408.255232 
L 281.496379 408.255232 
L 281.496379 478.484607 
L 287.382195 478.484607 
L 287.382195 459.478378 
L 293.25193 459.478378 
L 293.25193 457.233415 
L 299.121664 457.233415 
L 299.121664 454.274973 
L 304.991398 454.274973 
M 310.877214 370.096727 
L 316.746949 370.096727 
L 316.746949 338.112478 
L 322.616683 338.112478 
L 322.616683 394.728225 
L 328.486417 394.728225 
L 328.486417 399.138296 
L 334.372233 399.138296 
M 375.476455 436.350923 
L 381.362271 436.350923 
L 381.362271 455.546284 
L 387.232006 455.546284 
L 387.232006 428.859798 
L 393.10174 428.859798 
L 393.10174 435.434416 
L 398.971474 435.434416 
L 398.971474 445.852973 
L 404.85729 445.852973 
L 404.85729 453.60838 
L 410.727025 453.60838 
L 410.727025 404.606274 
L 416.596759 404.606274 
L 416.596759 404.882592 
L 422.466493 404.882592 
L 422.466493 405.50099 
L 428.352309 405.50099 
L 428.352309 408.339086 
L 434.222044 408.339086 
L 434.222044 410.377482 
L 440.091778 410.377482 
L 440.091778 420.080151 
L 445.961512 420.080151 
L 445.961512 424.165435 
L 451.847328 424.165435 
L 451.847328 426.672312 
L 457.717063 426.672312 
L 457.717063 428.910538 
L 463.586797 428.910538 
L 463.586797 432.080894 
L 469.456531 432.080894 
L 469.456531 435.315323 
L 475.342347 435.315323 
L 475.342347 437.621848 
L 481.212081 437.621848 
L 481.212081 439.323261 
L 487.081816 439.323261 
L 487.081816 441.161324 
L 492.95155 441.161324 
L 492.95155 442.933686 
L 498.837366 442.933686 
L 498.837366 446.036084 
L 504.7071 446.036084 
L 504.7071 450.381332 
L 510.576835 450.381332 
L 510.576835 453.876233 
L 516.446569 453.876233 
L 516.446569 457.571654 
L 522.332385 457.571654 
L 522.332385 461.720858 
L 528.202119 461.720858 
L 528.202119 466.580348 
L 534.071854 466.580348 
L 534.071854 447.467389 
L 539.941588 447.467389 
L 539.941588 455.163775 
L 545.827404 455.163775 
L 545.827404 378.425586 
L 551.697138 378.425586 
L 551.697138 384.623788 
L 557.566873 384.623788 
L 557.566873 390.632205 
L 563.436607 390.632205 
L 563.436607 397.707147 
L 569.322423 397.707147 
L 569.322423 406.504104 
L 575.192157 406.504104 
L 575.192157 397.080327 
L 581.061892 397.080327 
L 581.061892 394.902759 
L 586.931626 394.902759 
L 586.931626 396.774107 
L 592.817442 396.774107 
L 592.817442 401.699827 
L 598.687176 401.699827 
L 598.687176 425.434905 
L 604.556911 425.434905 
L 604.556911 364.060421 
L 610.426645 364.060421 
L 610.426645 366.166022 
L 616.312461 366.166022 
L 616.312461 299.651936 
L 622.182195 299.651936 
L 622.182195 259.477954 
L 628.05193 259.477954 
L 628.05193 241.937858 
L 633.921664 241.937858 
L 633.921664 244.110847 
L 639.80748 244.110847 
L 639.80748 245.747009 
L 645.677214 245.747009 
L 645.677214 247.11318 
L 651.546949 247.11318 
L 651.546949 241.700824 
L 657.416683 241.700824 
L 657.416683 242.863882 
L 663.302499 242.863882 
L 663.302499 244.229906 
L 669.172233 244.229906 
L 669.172233 245.052899 
L 675.041968 245.052899 
L 675.041968 245.534209 
L 680.911702 245.534209 
L 680.911702 245.876727 
L 686.797518 245.876727 
L 686.797518 247.034805 
L 692.667252 247.034805 
L 692.667252 248.173162 
L 698.536987 248.173162 
L 698.536987 249.463665 
L 704.406721 249.463665 
L 704.406721 238.733611 
L 710.292537 238.733611 
L 710.292537 240.187498 
L 716.162271 240.187498 
L 716.162271 241.47695 
L 722.032006 241.47695 
L 722.032006 234.466734 
L 727.90174 234.466734 
L 727.90174 235.46602 
L 733.787556 235.46602 
L 733.787556 237.371188 
L 745.527025 237.440177 
L 745.527025 238.483954 
L 751.396759 238.483954 
L 751.396759 239.900637 
L 757.282575 239.900637 
L 757.282575 241.264287 
L 763.152309 241.264287 
L 763.152309 241.857939 
L 763.152309 241.857939 
" style="fill:none;stroke:#ff7f0e;stroke-linecap:round;stroke-width:3;"/>
   </g>
   <g id="patch_9">
    <path d="M 99.438125 566.136562 
L 99.438125 76.896563 
" style="fill:none;stroke:#262626;stroke-linecap:square;stroke-linejoin:miter;stroke-width:1.25;"/>
   </g>
   <g id="patch_10">
    <path d="M 769.038125 566.136562 
L 769.038125 76.896563 
" style="fill:none;stroke:#262626;stroke-linecap:square;stroke-linejoin:miter;stroke-width:1.25;"/>
   </g>
   <g id="patch_11">
    <path d="M 99.438125 566.136562 
L 769.038125 566.136562 
" style="fill:none;stroke:#262626;stroke-linecap:square;stroke-linejoin:miter;stroke-width:1.25;"/>
   </g>
   <g id="patch_12">
    <path d="M 99.438125 76.896562 
L 769.038125 76.896562 
" style="fill:none;stroke:#262626;stroke-linecap:square;stroke-linejoin:miter;stroke-width:1.25;"/>
   </g>
   <g id="legend_1">
    <g id="patch_13">
     <path d="M 116.238125 164.556562 
L 355.818125 164.556562 
Q 360.618125 164.556562 360.618125 159.756562 
L 360.618125 93.696562 
Q 360.618125 88.896562 355.818125 88.896562 
L 116.238125 88.896562 
Q 111.438125 88.896562 111.438125 93.696562 
L 111.438125 159.756562 
Q 111.438125 164.556562 116.238125 164.556562 
z
" style="fill:#ffffff;stroke:#000000;stroke-linejoin:miter;stroke-width:1.2;"/>
    </g>
    <g id="line2d_40"/>
    <g id="text_10">
     <!-- Total prize money -->
     <defs>
      <path d="M 25.921875 0 
L 25.921875 63.140625 
L 2.34375 63.140625 
L 2.34375 71.578125 
L 59.078125 71.578125 
L 59.078125 63.140625 
L 35.40625 63.140625 
L 35.40625 0 
z
" id="ArialMT-84"/>
      <path d="M 3.328125 25.921875 
Q 3.328125 40.328125 11.328125 47.265625 
Q 18.015625 53.03125 27.640625 53.03125 
Q 38.328125 53.03125 45.109375 46.015625 
Q 51.90625 39.015625 51.90625 26.65625 
Q 51.90625 16.65625 48.90625 10.90625 
Q 45.90625 5.171875 40.15625 2 
Q 34.421875 -1.171875 27.640625 -1.171875 
Q 16.75 -1.171875 10.03125 5.8125 
Q 3.328125 12.796875 3.328125 25.921875 
z
M 12.359375 25.921875 
Q 12.359375 15.96875 16.703125 11.015625 
Q 21.046875 6.0625 27.640625 6.0625 
Q 34.1875 6.0625 38.53125 11.03125 
Q 42.875 16.015625 42.875 26.21875 
Q 42.875 35.84375 38.5 40.796875 
Q 34.125 45.75 27.640625 45.75 
Q 21.046875 45.75 16.703125 40.8125 
Q 12.359375 35.890625 12.359375 25.921875 
z
" id="ArialMT-111"/>
      <path d="M 25.78125 7.859375 
L 27.046875 0.09375 
Q 23.34375 -0.6875 20.40625 -0.6875 
Q 15.625 -0.6875 12.984375 0.828125 
Q 10.359375 2.34375 9.28125 4.8125 
Q 8.203125 7.28125 8.203125 15.1875 
L 8.203125 45.015625 
L 1.765625 45.015625 
L 1.765625 51.859375 
L 8.203125 51.859375 
L 8.203125 64.703125 
L 16.9375 69.96875 
L 16.9375 51.859375 
L 25.78125 51.859375 
L 25.78125 45.015625 
L 16.9375 45.015625 
L 16.9375 14.703125 
Q 16.9375 10.9375 17.40625 9.859375 
Q 17.875 8.796875 18.921875 8.15625 
Q 19.96875 7.515625 21.921875 7.515625 
Q 23.390625 7.515625 25.78125 7.859375 
z
" id="ArialMT-116"/>
      <path d="M 40.4375 6.390625 
Q 35.546875 2.25 31.03125 0.53125 
Q 26.515625 -1.171875 21.34375 -1.171875 
Q 12.796875 -1.171875 8.203125 3 
Q 3.609375 7.171875 3.609375 13.671875 
Q 3.609375 17.484375 5.34375 20.625 
Q 7.078125 23.78125 9.890625 25.6875 
Q 12.703125 27.59375 16.21875 28.5625 
Q 18.796875 29.25 24.03125 29.890625 
Q 34.671875 31.15625 39.703125 32.90625 
Q 39.75 34.71875 39.75 35.203125 
Q 39.75 40.578125 37.25 42.78125 
Q 33.890625 45.75 27.25 45.75 
Q 21.046875 45.75 18.09375 43.578125 
Q 15.140625 41.40625 13.71875 35.890625 
L 5.125 37.0625 
Q 6.296875 42.578125 8.984375 45.96875 
Q 11.671875 49.359375 16.75 51.1875 
Q 21.828125 53.03125 28.515625 53.03125 
Q 35.15625 53.03125 39.296875 51.46875 
Q 43.453125 49.90625 45.40625 47.53125 
Q 47.359375 45.171875 48.140625 41.546875 
Q 48.578125 39.3125 48.578125 33.453125 
L 48.578125 21.734375 
Q 48.578125 9.46875 49.140625 6.21875 
Q 49.703125 2.984375 51.375 0 
L 42.1875 0 
Q 40.828125 2.734375 40.4375 6.390625 
z
M 39.703125 26.03125 
Q 34.90625 24.078125 25.34375 22.703125 
Q 19.921875 21.921875 17.671875 20.9375 
Q 15.4375 19.96875 14.203125 18.09375 
Q 12.984375 16.21875 12.984375 13.921875 
Q 12.984375 10.40625 15.640625 8.0625 
Q 18.3125 5.71875 23.4375 5.71875 
Q 28.515625 5.71875 32.46875 7.9375 
Q 36.421875 10.15625 38.28125 14.015625 
Q 39.703125 17 39.703125 22.796875 
z
" id="ArialMT-97"/>
      <path d="M 6.390625 0 
L 6.390625 71.578125 
L 15.1875 71.578125 
L 15.1875 0 
z
" id="ArialMT-108"/>
      <path d="M 6.59375 -19.875 
L 6.59375 51.859375 
L 14.59375 51.859375 
L 14.59375 45.125 
Q 17.4375 49.078125 21 51.046875 
Q 24.5625 53.03125 29.640625 53.03125 
Q 36.28125 53.03125 41.359375 49.609375 
Q 46.4375 46.1875 49.015625 39.953125 
Q 51.609375 33.734375 51.609375 26.3125 
Q 51.609375 18.359375 48.75 11.984375 
Q 45.90625 5.609375 40.453125 2.21875 
Q 35.015625 -1.171875 29 -1.171875 
Q 24.609375 -1.171875 21.109375 0.6875 
Q 17.625 2.546875 15.375 5.375 
L 15.375 -19.875 
z
M 14.546875 25.640625 
Q 14.546875 15.625 18.59375 10.84375 
Q 22.65625 6.0625 28.421875 6.0625 
Q 34.28125 6.0625 38.453125 11.015625 
Q 42.625 15.96875 42.625 26.375 
Q 42.625 36.28125 38.546875 41.203125 
Q 34.46875 46.140625 28.8125 46.140625 
Q 23.1875 46.140625 18.859375 40.890625 
Q 14.546875 35.640625 14.546875 25.640625 
z
" id="ArialMT-112"/>
      <path d="M 6.5 0 
L 6.5 51.859375 
L 14.40625 51.859375 
L 14.40625 44 
Q 17.4375 49.515625 20 51.265625 
Q 22.5625 53.03125 25.640625 53.03125 
Q 30.078125 53.03125 34.671875 50.203125 
L 31.640625 42.046875 
Q 28.421875 43.953125 25.203125 43.953125 
Q 22.3125 43.953125 20.015625 42.21875 
Q 17.71875 40.484375 16.75 37.40625 
Q 15.28125 32.71875 15.28125 27.15625 
L 15.28125 0 
z
" id="ArialMT-114"/>
      <path d="M 6.640625 61.46875 
L 6.640625 71.578125 
L 15.4375 71.578125 
L 15.4375 61.46875 
z
M 6.640625 0 
L 6.640625 51.859375 
L 15.4375 51.859375 
L 15.4375 0 
z
" id="ArialMT-105"/>
      <path d="M 1.953125 0 
L 1.953125 7.125 
L 34.96875 45.015625 
Q 29.34375 44.734375 25.046875 44.734375 
L 3.90625 44.734375 
L 3.90625 51.859375 
L 46.296875 51.859375 
L 46.296875 46.046875 
L 18.21875 13.140625 
L 12.796875 7.125 
Q 18.703125 7.5625 23.875 7.5625 
L 47.859375 7.5625 
L 47.859375 0 
z
" id="ArialMT-122"/>
      <path d="M 42.09375 16.703125 
L 51.171875 15.578125 
Q 49.03125 7.625 43.21875 3.21875 
Q 37.40625 -1.171875 28.375 -1.171875 
Q 17 -1.171875 10.328125 5.828125 
Q 3.65625 12.84375 3.65625 25.484375 
Q 3.65625 38.578125 10.390625 45.796875 
Q 17.140625 53.03125 27.875 53.03125 
Q 38.28125 53.03125 44.875 45.953125 
Q 51.46875 38.875 51.46875 26.03125 
Q 51.46875 25.25 51.421875 23.6875 
L 12.75 23.6875 
Q 13.234375 15.140625 17.578125 10.59375 
Q 21.921875 6.0625 28.421875 6.0625 
Q 33.25 6.0625 36.671875 8.59375 
Q 40.09375 11.140625 42.09375 16.703125 
z
M 13.234375 30.90625 
L 42.1875 30.90625 
Q 41.609375 37.453125 38.875 40.71875 
Q 34.671875 45.796875 27.984375 45.796875 
Q 21.921875 45.796875 17.796875 41.75 
Q 13.671875 37.703125 13.234375 30.90625 
z
" id="ArialMT-101"/>
      <path d="M 6.59375 0 
L 6.59375 51.859375 
L 14.453125 51.859375 
L 14.453125 44.578125 
Q 16.890625 48.390625 20.9375 50.703125 
Q 25 53.03125 30.171875 53.03125 
Q 35.9375 53.03125 39.625 50.640625 
Q 43.3125 48.25 44.828125 43.953125 
Q 50.984375 53.03125 60.84375 53.03125 
Q 68.5625 53.03125 72.703125 48.75 
Q 76.859375 44.484375 76.859375 35.59375 
L 76.859375 0 
L 68.109375 0 
L 68.109375 32.671875 
Q 68.109375 37.9375 67.25 40.25 
Q 66.40625 42.578125 64.15625 43.984375 
Q 61.921875 45.40625 58.890625 45.40625 
Q 53.421875 45.40625 49.796875 41.765625 
Q 46.1875 38.140625 46.1875 30.125 
L 46.1875 0 
L 37.40625 0 
L 37.40625 33.6875 
Q 37.40625 39.546875 35.25 42.46875 
Q 33.109375 45.40625 28.21875 45.40625 
Q 24.515625 45.40625 21.359375 43.453125 
Q 18.21875 41.5 16.796875 37.734375 
Q 15.375 33.984375 15.375 26.90625 
L 15.375 0 
z
" id="ArialMT-109"/>
      <path d="M 6.59375 0 
L 6.59375 51.859375 
L 14.5 51.859375 
L 14.5 44.484375 
Q 20.21875 53.03125 31 53.03125 
Q 35.6875 53.03125 39.625 51.34375 
Q 43.5625 49.65625 45.515625 46.921875 
Q 47.46875 44.1875 48.25 40.4375 
Q 48.734375 37.984375 48.734375 31.890625 
L 48.734375 0 
L 39.9375 0 
L 39.9375 31.546875 
Q 39.9375 36.921875 38.90625 39.578125 
Q 37.890625 42.234375 35.28125 43.8125 
Q 32.671875 45.40625 29.15625 45.40625 
Q 23.53125 45.40625 19.453125 41.84375 
Q 15.375 38.28125 15.375 28.328125 
L 15.375 0 
z
" id="ArialMT-110"/>
      <path d="M 6.203125 -19.96875 
L 5.21875 -11.71875 
Q 8.109375 -12.5 10.25 -12.5 
Q 13.1875 -12.5 14.9375 -11.515625 
Q 16.703125 -10.546875 17.828125 -8.796875 
Q 18.65625 -7.46875 20.515625 -2.25 
Q 20.75 -1.515625 21.296875 -0.09375 
L 1.609375 51.859375 
L 11.078125 51.859375 
L 21.875 21.828125 
Q 23.96875 16.109375 25.640625 9.8125 
Q 27.15625 15.875 29.25 21.625 
L 40.328125 51.859375 
L 49.125 51.859375 
L 29.390625 -0.875 
Q 26.21875 -9.421875 24.46875 -12.640625 
Q 22.125 -17 19.09375 -19.015625 
Q 16.0625 -21.046875 11.859375 -21.046875 
Q 9.328125 -21.046875 6.203125 -19.96875 
z
" id="ArialMT-121"/>
     </defs>
     <g style="fill:#1f77b4;" transform="translate(121.038125 115.675312)scale(0.24 -0.24)">
      <use xlink:href="#ArialMT-84"/>
      <use x="60.912109" xlink:href="#ArialMT-111"/>
      <use x="116.527344" xlink:href="#ArialMT-116"/>
      <use x="144.310547" xlink:href="#ArialMT-97"/>
      <use x="199.925781" xlink:href="#ArialMT-108"/>
      <use x="222.142578" xlink:href="#ArialMT-32"/>
      <use x="249.925781" xlink:href="#ArialMT-112"/>
      <use x="305.541016" xlink:href="#ArialMT-114"/>
      <use x="338.841797" xlink:href="#ArialMT-105"/>
      <use x="361.058594" xlink:href="#ArialMT-122"/>
      <use x="411.058594" xlink:href="#ArialMT-101"/>
      <use x="466.673828" xlink:href="#ArialMT-32"/>
      <use x="494.457031" xlink:href="#ArialMT-109"/>
      <use x="577.757812" xlink:href="#ArialMT-111"/>
      <use x="633.373047" xlink:href="#ArialMT-110"/>
      <use x="688.988281" xlink:href="#ArialMT-101"/>
      <use x="744.603516" xlink:href="#ArialMT-121"/>
     </g>
    </g>
    <g id="line2d_42"/>
    <g id="text_11">
     <!-- Winner's prize money -->
     <defs>
      <path d="M 20.21875 0 
L 1.21875 71.578125 
L 10.9375 71.578125 
L 21.828125 24.65625 
Q 23.578125 17.28125 24.859375 10.015625 
Q 27.59375 21.484375 28.078125 23.25 
L 41.703125 71.578125 
L 53.125 71.578125 
L 63.375 35.359375 
Q 67.234375 21.875 68.953125 10.015625 
Q 70.3125 16.796875 72.515625 25.59375 
L 83.734375 71.578125 
L 93.265625 71.578125 
L 73.640625 0 
L 64.5 0 
L 49.421875 54.546875 
Q 47.515625 61.375 47.171875 62.9375 
Q 46.046875 58.015625 45.0625 54.546875 
L 29.890625 0 
z
" id="ArialMT-87"/>
      <path d="M 6.640625 46.234375 
L 4.390625 59.625 
L 4.390625 71.578125 
L 14.40625 71.578125 
L 14.40625 59.625 
L 12.0625 46.234375 
z
" id="ArialMT-39"/>
      <path d="M 3.078125 15.484375 
L 11.765625 16.84375 
Q 12.5 11.625 15.84375 8.84375 
Q 19.1875 6.0625 25.203125 6.0625 
Q 31.25 6.0625 34.171875 8.515625 
Q 37.109375 10.984375 37.109375 14.3125 
Q 37.109375 17.28125 34.515625 19 
Q 32.71875 20.171875 25.53125 21.96875 
Q 15.875 24.421875 12.140625 26.203125 
Q 8.40625 27.984375 6.46875 31.125 
Q 4.546875 34.28125 4.546875 38.09375 
Q 4.546875 41.546875 6.125 44.5 
Q 7.71875 47.46875 10.453125 49.421875 
Q 12.5 50.921875 16.03125 51.96875 
Q 19.578125 53.03125 23.640625 53.03125 
Q 29.734375 53.03125 34.34375 51.265625 
Q 38.96875 49.515625 41.15625 46.5 
Q 43.359375 43.5 44.1875 38.484375 
L 35.59375 37.3125 
Q 35.015625 41.3125 32.203125 43.546875 
Q 29.390625 45.796875 24.265625 45.796875 
Q 18.21875 45.796875 15.625 43.796875 
Q 13.03125 41.796875 13.03125 39.109375 
Q 13.03125 37.40625 14.109375 36.03125 
Q 15.1875 34.625 17.484375 33.6875 
Q 18.796875 33.203125 25.25 31.453125 
Q 34.578125 28.953125 38.25 27.359375 
Q 41.9375 25.78125 44.03125 22.75 
Q 46.140625 19.734375 46.140625 15.234375 
Q 46.140625 10.84375 43.578125 6.953125 
Q 41.015625 3.078125 36.171875 0.953125 
Q 31.34375 -1.171875 25.25 -1.171875 
Q 15.140625 -1.171875 9.84375 3.03125 
Q 4.546875 7.234375 3.078125 15.484375 
z
" id="ArialMT-115"/>
     </defs>
     <g style="fill:#ff7f0e;" transform="translate(121.038125 149.905312)scale(0.24 -0.24)">
      <use xlink:href="#ArialMT-87"/>
      <use x="94.384766" xlink:href="#ArialMT-105"/>
      <use x="116.601562" xlink:href="#ArialMT-110"/>
      <use x="172.216797" xlink:href="#ArialMT-110"/>
      <use x="227.832031" xlink:href="#ArialMT-101"/>
      <use x="283.447266" xlink:href="#ArialMT-114"/>
      <use x="316.748047" xlink:href="#ArialMT-39"/>
      <use x="335.839844" xlink:href="#ArialMT-115"/>
      <use x="385.839844" xlink:href="#ArialMT-32"/>
      <use x="413.623047" xlink:href="#ArialMT-112"/>
      <use x="469.238281" xlink:href="#ArialMT-114"/>
      <use x="502.539062" xlink:href="#ArialMT-105"/>
      <use x="524.755859" xlink:href="#ArialMT-122"/>
      <use x="574.755859" xlink:href="#ArialMT-101"/>
      <use x="630.371094" xlink:href="#ArialMT-32"/>
      <use x="658.154297" xlink:href="#ArialMT-109"/>
      <use x="741.455078" xlink:href="#ArialMT-111"/>
      <use x="797.070312" xlink:href="#ArialMT-110"/>
      <use x="852.685547" xlink:href="#ArialMT-101"/>
      <use x="908.300781" xlink:href="#ArialMT-121"/>
     </g>
    </g>
   </g>
  </g>
  <g id="text_12">
   <!-- Tour de France Prize Money -->
   <defs>
    <path d="M 40.578125 0 
L 40.578125 7.625 
Q 34.515625 -1.171875 24.125 -1.171875 
Q 19.53125 -1.171875 15.546875 0.578125 
Q 11.578125 2.34375 9.640625 5 
Q 7.71875 7.671875 6.9375 11.53125 
Q 6.390625 14.109375 6.390625 19.734375 
L 6.390625 51.859375 
L 15.1875 51.859375 
L 15.1875 23.09375 
Q 15.1875 16.21875 15.71875 13.8125 
Q 16.546875 10.359375 19.234375 8.375 
Q 21.921875 6.390625 25.875 6.390625 
Q 29.828125 6.390625 33.296875 8.421875 
Q 36.765625 10.453125 38.203125 13.9375 
Q 39.65625 17.4375 39.65625 24.078125 
L 39.65625 51.859375 
L 48.4375 51.859375 
L 48.4375 0 
z
" id="ArialMT-117"/>
    <path d="M 40.234375 0 
L 40.234375 6.546875 
Q 35.296875 -1.171875 25.734375 -1.171875 
Q 19.53125 -1.171875 14.328125 2.25 
Q 9.125 5.671875 6.265625 11.796875 
Q 3.421875 17.921875 3.421875 25.875 
Q 3.421875 33.640625 6 39.96875 
Q 8.59375 46.296875 13.765625 49.65625 
Q 18.953125 53.03125 25.34375 53.03125 
Q 30.03125 53.03125 33.6875 51.046875 
Q 37.359375 49.078125 39.65625 45.90625 
L 39.65625 71.578125 
L 48.390625 71.578125 
L 48.390625 0 
z
M 12.453125 25.875 
Q 12.453125 15.921875 16.640625 10.984375 
Q 20.84375 6.0625 26.5625 6.0625 
Q 32.328125 6.0625 36.34375 10.765625 
Q 40.375 15.484375 40.375 25.140625 
Q 40.375 35.796875 36.265625 40.765625 
Q 32.171875 45.75 26.171875 45.75 
Q 20.3125 45.75 16.375 40.96875 
Q 12.453125 36.1875 12.453125 25.875 
z
" id="ArialMT-100"/>
    <path d="M 8.203125 0 
L 8.203125 71.578125 
L 56.5 71.578125 
L 56.5 63.140625 
L 17.671875 63.140625 
L 17.671875 40.96875 
L 51.265625 40.96875 
L 51.265625 32.515625 
L 17.671875 32.515625 
L 17.671875 0 
z
" id="ArialMT-70"/>
    <path d="M 40.4375 19 
L 49.078125 17.875 
Q 47.65625 8.9375 41.8125 3.875 
Q 35.984375 -1.171875 27.484375 -1.171875 
Q 16.84375 -1.171875 10.375 5.78125 
Q 3.90625 12.75 3.90625 25.734375 
Q 3.90625 34.125 6.6875 40.421875 
Q 9.46875 46.734375 15.15625 49.875 
Q 20.84375 53.03125 27.546875 53.03125 
Q 35.984375 53.03125 41.359375 48.75 
Q 46.734375 44.484375 48.25 36.625 
L 39.703125 35.296875 
Q 38.484375 40.53125 35.375 43.15625 
Q 32.28125 45.796875 27.875 45.796875 
Q 21.234375 45.796875 17.078125 41.03125 
Q 12.9375 36.28125 12.9375 25.984375 
Q 12.9375 15.53125 16.9375 10.796875 
Q 20.953125 6.0625 27.390625 6.0625 
Q 32.5625 6.0625 36.03125 9.234375 
Q 39.5 12.40625 40.4375 19 
z
" id="ArialMT-99"/>
    <path d="M 7.71875 0 
L 7.71875 71.578125 
L 34.71875 71.578125 
Q 41.84375 71.578125 45.609375 70.90625 
Q 50.875 70.015625 54.4375 67.546875 
Q 58.015625 65.09375 60.1875 60.640625 
Q 62.359375 56.203125 62.359375 50.875 
Q 62.359375 41.75 56.546875 35.421875 
Q 50.734375 29.109375 35.546875 29.109375 
L 17.1875 29.109375 
L 17.1875 0 
z
M 17.1875 37.546875 
L 35.6875 37.546875 
Q 44.875 37.546875 48.734375 40.96875 
Q 52.59375 44.390625 52.59375 50.59375 
Q 52.59375 55.078125 50.3125 58.265625 
Q 48.046875 61.46875 44.34375 62.5 
Q 41.9375 63.140625 35.5 63.140625 
L 17.1875 63.140625 
z
" id="ArialMT-80"/>
   </defs>
   <g style="fill:#262626;" transform="translate(208.061406 31.536562)scale(0.34 -0.34)">
    <use xlink:href="#ArialMT-84"/>
    <use x="60.912109" xlink:href="#ArialMT-111"/>
    <use x="116.527344" xlink:href="#ArialMT-117"/>
    <use x="172.142578" xlink:href="#ArialMT-114"/>
    <use x="205.443359" xlink:href="#ArialMT-32"/>
    <use x="233.226562" xlink:href="#ArialMT-100"/>
    <use x="288.841797" xlink:href="#ArialMT-101"/>
    <use x="344.457031" xlink:href="#ArialMT-32"/>
    <use x="372.240234" xlink:href="#ArialMT-70"/>
    <use x="433.324219" xlink:href="#ArialMT-114"/>
    <use x="466.625" xlink:href="#ArialMT-97"/>
    <use x="522.240234" xlink:href="#ArialMT-110"/>
    <use x="577.855469" xlink:href="#ArialMT-99"/>
    <use x="627.855469" xlink:href="#ArialMT-101"/>
    <use x="683.470703" xlink:href="#ArialMT-32"/>
    <use x="711.253906" xlink:href="#ArialMT-80"/>
    <use x="777.953125" xlink:href="#ArialMT-114"/>
    <use x="811.253906" xlink:href="#ArialMT-105"/>
    <use x="833.470703" xlink:href="#ArialMT-122"/>
    <use x="883.470703" xlink:href="#ArialMT-101"/>
    <use x="939.085938" xlink:href="#ArialMT-32"/>
    <use x="966.869141" xlink:href="#ArialMT-77"/>
    <use x="1050.169922" xlink:href="#ArialMT-111"/>
    <use x="1105.785156" xlink:href="#ArialMT-110"/>
    <use x="1161.400391" xlink:href="#ArialMT-101"/>
    <use x="1217.015625" xlink:href="#ArialMT-121"/>
   </g>
  </g>
  <g id="text_13">
   <!-- In 2013 Euro -->
   <defs>
    <path d="M 9.328125 0 
L 9.328125 71.578125 
L 18.796875 71.578125 
L 18.796875 0 
z
" id="ArialMT-73"/>
    <path d="M 7.90625 0 
L 7.90625 71.578125 
L 59.671875 71.578125 
L 59.671875 63.140625 
L 17.390625 63.140625 
L 17.390625 41.21875 
L 56.984375 41.21875 
L 56.984375 32.8125 
L 17.390625 32.8125 
L 17.390625 8.453125 
L 61.328125 8.453125 
L 61.328125 0 
z
" id="ArialMT-69"/>
   </defs>
   <g style="fill:#262626;" transform="translate(354.725 63.936562)scale(0.24 -0.24)">
    <use xlink:href="#ArialMT-73"/>
    <use x="27.783203" xlink:href="#ArialMT-110"/>
    <use x="83.398438" xlink:href="#ArialMT-32"/>
    <use x="111.181641" xlink:href="#ArialMT-50"/>
    <use x="166.796875" xlink:href="#ArialMT-48"/>
    <use x="222.412109" xlink:href="#ArialMT-49"/>
    <use x="278.027344" xlink:href="#ArialMT-51"/>
    <use x="333.642578" xlink:href="#ArialMT-32"/>
    <use x="361.425781" xlink:href="#ArialMT-69"/>
    <use x="428.125" xlink:href="#ArialMT-117"/>
    <use x="483.740234" xlink:href="#ArialMT-114"/>
    <use x="517.041016" xlink:href="#ArialMT-111"/>
   </g>
  </g>
 </g>
 <defs>
  <clipPath id="p691eb3287b">
   <rect height="489.24" width="669.6" x="99.438125" y="76.896562"/>
  </clipPath>
 </defs>
</svg>
