<?xml version="1.0" encoding="UTF-8" standalone="no"?>
<!-- Created with Inkscape (http://www.inkscape.org/) -->
<svg xmlns:svg="http://www.w3.org/2000/svg" xmlns="http://www.w3.org/2000/svg" version="1.0" width="499" height="306" id="svg2218">
  <defs id="defs2220"/>
  <g id="layer1">
    <g id="g2151">
      <rect width="499" height="306" x="0" y="0" style="fill:white;stroke:none" id="rect6"/>
      <g id="g8">
        <rect width="364.595" height="245" x="87" y="23" style="fill:white;fill-opacity:1;stroke:white;stroke-width:0pt;stroke-opacity:0" id="rect13"/>
        <g id="g15">
          <text x="269.298" y="16.1" style="font-size:12.5px;text-anchor:middle;fill:black;font-family:Helvetica" id="text21">Prize money in the Tour de France</text>
          <g id="g23">
            <polyline id="polyline25" points="87.000,268.000 90.506,258.701 94.011,262.763 97.517,258.701 101.023,262.763 104.529,262.763 108.034,258.701 111.540,258.701 115.046,258.701 118.551,258.701 122.057,258.701 125.563,258.701 " style="fill:none;stroke:blue;stroke-width:0.5pt;stroke-dasharray:none"/>
            <polyline id="polyline27" points="143.092,258.701 146.597,238.701 150.103,238.701 153.609,246.083 157.114,246.083 160.620,246.083 164.126,238.701 167.632,238.701 171.137,242.764 174.643,242.764 178.149,246.083 181.654,210.146 185.160,229.402 188.666,226.083 192.172,226.083 195.677,226.083 199.183,204.166 202.689,204.166 206.195,191.547 209.700,204.166 213.206,204.166 " style="fill:none;stroke:blue;stroke-width:0.5pt;stroke-dasharray:none"/>
            <polyline id="polyline29" points="241.252,174.867 244.757,171.548 248.263,162.249 251.769,162.249 255.275,162.249 258.780,162.249 262.286,149.631 265.792,149.631 269.298,149.631 272.803,149.631 276.309,149.631 279.815,149.631 283.320,149.631 286.826,149.631 290.332,149.631 293.838,149.631 297.343,149.631 300.849,149.631 304.355,149.631 307.860,149.631 311.366,149.631 314.872,149.631 318.378,149.631 321.883,149.631 325.389,149.631 328.895,149.631 332.400,149.631 335.906,142.249 339.412,142.249 342.918,120.332 346.423,120.332 349.929,120.332 353.435,120.332 356.941,120.332 360.446,115.556 363.952,112.951 367.458,111.776 370.963,111.776 374.469,117.013 377.975,100.333 381.481,100.333 384.986,73.639 388.492,71.034 391.998,65.797 395.503,65.797 399.009,65.797 402.515,65.797 406.021,64.062 409.526,64.062 413.032,64.062 416.538,64.062 420.044,64.062 423.549,64.062 427.055,64.062 430.561,64.062 434.066,64.062 437.572,60.855 441.078,60.855 444.584,60.855 448.089,58.711 451.595,58.711 " style="fill:none;stroke:blue;stroke-width:0.5pt;stroke-dasharray:none"/>
          </g>
          <g id="g33">
            <polyline id="polyline35" points="87.000,233.464 90.506,232.576 94.011,229.402 97.517,229.402 101.023,229.402 104.529,226.083 108.034,229.402 111.540,229.402 115.046,226.083 118.551,224.626 122.057,220.892 125.563,218.702 " style="fill:none;stroke:#007f00;stroke-width:0.5pt;stroke-dasharray:none"/>
            <polyline id="polyline37" points="143.092,216.784 146.597,208.055 150.103,208.228 153.609,208.228 157.114,204.166 160.620,204.166 164.126,204.349 167.632,202.597 171.137,204.166 174.643,204.166 178.149,196.785 181.654,171.367 185.160,170.091 188.666,168.742 192.172,167.510 195.677,167.789 199.183,160.646 202.689,162.249 206.195,166.311 209.700,164.167 213.206,164.167 " style="fill:none;stroke:#007f00;stroke-width:0.5pt;stroke-dasharray:none"/>
            <polyline id="polyline39" points="241.252,134.547 244.757,126.825 248.263,117.013 251.769,114.207 255.275,109.353 258.780,101.589 262.286,97.526 265.792,95.817 269.298,96.670 272.803,96.029 276.309,95.096 279.815,95.096 283.320,95.096 286.826,95.096 290.332,91.033 293.838,88.224 297.343,89.298 300.849,89.525 304.355,94.457 307.860,94.005 311.366,90.520 314.872,88.494 318.378,87.714 321.883,87.547 325.389,92.137 328.895,89.232 332.400,85.979 335.906,82.417 339.412,81.531 342.918,78.333 346.423,75.581 349.929,74.683 353.435,73.113 356.941,71.181 360.446,63.064 363.952,64.002 367.458,63.219 370.963,61.293 374.469,58.397 377.975,51.032 381.481,44.954 384.986,41.573 388.492,40.325 391.998,36.365 395.503,38.380 399.009,36.204 402.515,34.763 406.021,33.800 409.526,33.041 413.032,33.176 416.538,33.179 420.044,33.179 423.549,29.160 427.055,28.520 430.561,27.942 434.066,26.337 437.572,31.396 441.078,25.158 444.584,24.504 448.089,31.293 451.595,23.000 " style="fill:none;stroke:#007f00;stroke-width:0.5pt;stroke-dasharray:none"/>
          </g>
          <text x="268.29901" y="298.5" style="font-size:12.5px;text-anchor:middle;fill:black;font-family:Helvetica" id="text47">Year</text>
          <text x="-146.10001" y="19.575001" transform="matrix(0,-1,1,0,0,0)" style="font-size:12.5px;text-anchor:middle;fill:black;font-family:Helvetica" id="text53">Prize Money (Euro)</text>
        </g>
        <g id="g55">
          <polyline id="polyline57" points="87.000,23.000 451.595,23.000 " style="fill:none;stroke:black;stroke-width:0.5pt;stroke-dasharray:none"/>
          <polyline id="polyline59" points="87.000,268.000 451.595,268.000 " style="fill:none;stroke:black;stroke-width:0.5pt;stroke-dasharray:none"/>
          <polyline id="polyline61" points="146.597,268.000 146.597,263.010 " style="fill:none;stroke:black;stroke-width:0.5pt;stroke-dasharray:none"/>
          <polyline id="polyline63" points="146.597,23.000 146.597,27.990 " style="fill:none;stroke:black;stroke-width:0.5pt;stroke-dasharray:none"/>
          <polyline id="polyline65" points="216.712,268.000 216.712,263.010 " style="fill:none;stroke:black;stroke-width:0.5pt;stroke-dasharray:none"/>
          <polyline id="polyline67" points="216.712,23.000 216.712,27.990 " style="fill:none;stroke:black;stroke-width:0.5pt;stroke-dasharray:none"/>
          <polyline id="polyline69" points="286.826,268.000 286.826,263.010 " style="fill:none;stroke:black;stroke-width:0.5pt;stroke-dasharray:none"/>
          <polyline id="polyline71" points="286.826,23.000 286.826,27.990 " style="fill:none;stroke:black;stroke-width:0.5pt;stroke-dasharray:none"/>
          <polyline id="polyline73" points="356.941,268.000 356.941,263.010 " style="fill:none;stroke:black;stroke-width:0.5pt;stroke-dasharray:none"/>
          <polyline id="polyline75" points="356.941,23.000 356.941,27.990 " style="fill:none;stroke:black;stroke-width:0.5pt;stroke-dasharray:none"/>
          <polyline id="polyline77" points="427.055,268.000 427.055,263.010 " style="fill:none;stroke:black;stroke-width:0.5pt;stroke-dasharray:none"/>
          <polyline id="polyline79" points="427.055,23.000 427.055,27.990 " style="fill:none;stroke:black;stroke-width:0.5pt;stroke-dasharray:none"/>
          <text x="146.597" y="281" style="font-size:12.5px;text-anchor:middle;fill:black;font-family:Helvetica" id="text85">1900</text>
          <text x="216.71201" y="281" style="font-size:12.5px;text-anchor:middle;fill:black;font-family:Helvetica" id="text91">1920</text>
          <text x="286.82599" y="281" style="font-size:12.5px;text-anchor:middle;fill:black;font-family:Helvetica" id="text97">1940</text>
          <text x="356.94101" y="281" style="font-size:12.5px;text-anchor:middle;fill:black;font-family:Helvetica" id="text103">1960</text>
          <text x="427.05499" y="281" style="font-size:12.5px;text-anchor:middle;fill:black;font-family:Helvetica" id="text109">1980</text>
          <polyline id="polyline111" points="87.000,268.000 87.000,23.000 " style="fill:none;stroke:black;stroke-width:0.5pt;stroke-dasharray:none"/>
          <polyline id="polyline113" points="451.595,268.000 451.595,23.000 " style="fill:none;stroke:black;stroke-width:0.5pt;stroke-dasharray:none"/>
          <polyline id="polyline115" points="87.000,253.759 91.990,253.759 " style="fill:none;stroke:black;stroke-width:0.5pt;stroke-dasharray:none"/>
          <polyline id="polyline117" points="451.595,253.759 446.605,253.759 " style="fill:none;stroke:black;stroke-width:0.5pt;stroke-dasharray:none"/>
          <polyline id="polyline119" points="87.000,211.842 91.990,211.842 " style="fill:none;stroke:black;stroke-width:0.5pt;stroke-dasharray:none"/>
          <polyline id="polyline121" points="451.595,211.842 446.605,211.842 " style="fill:none;stroke:black;stroke-width:0.5pt;stroke-dasharray:none"/>
          <polyline id="polyline123" points="87.000,169.925 91.990,169.925 " style="fill:none;stroke:black;stroke-width:0.5pt;stroke-dasharray:none"/>
          <polyline id="polyline125" points="451.595,169.925 446.605,169.925 " style="fill:none;stroke:black;stroke-width:0.5pt;stroke-dasharray:none"/>
          <polyline id="polyline127" points="87.000,128.008 91.990,128.008 " style="fill:none;stroke:black;stroke-width:0.5pt;stroke-dasharray:none"/>
          <polyline id="polyline129" points="451.595,128.008 446.605,128.008 " style="fill:none;stroke:black;stroke-width:0.5pt;stroke-dasharray:none"/>
          <polyline id="polyline131" points="87.000,86.091 91.990,86.091 " style="fill:none;stroke:black;stroke-width:0.5pt;stroke-dasharray:none"/>
          <polyline id="polyline133" points="451.595,86.091 446.605,86.091 " style="fill:none;stroke:black;stroke-width:0.5pt;stroke-dasharray:none"/>
          <polyline id="polyline135" points="87.000,44.174 91.990,44.174 " style="fill:none;stroke:black;stroke-width:0.5pt;stroke-dasharray:none"/>
          <polyline id="polyline137" points="451.595,44.174 446.605,44.174 " style="fill:none;stroke:black;stroke-width:0.5pt;stroke-dasharray:none"/>
          <text x="82" y="256.759" style="font-size:12.5px;text-anchor:end;fill:black;font-family:Helvetica" id="text143">10</text>
          <text x="82" y="214.842" style="font-size:12.5px;text-anchor:end;fill:black;font-family:Helvetica" id="text149">100</text>
          <text x="82" y="172.925" style="font-size:12.5px;text-anchor:end;fill:black;font-family:Helvetica" id="text155">1.000</text>
          <text x="82" y="131.008" style="font-size:12.5px;text-anchor:end;fill:black;font-family:Helvetica" id="text161">10.000</text>
          <text x="82" y="89.091003" style="font-size:12.5px;text-anchor:end;fill:black;font-family:Helvetica" id="text167">100.000</text>
          <text x="82" y="47.174" style="font-size:12.5px;text-anchor:end;fill:black;font-family:Helvetica" id="text173">1.000.000</text>
        </g>
      </g>
      <g id="g175">
        <rect width="161" height="42" x="87.338997" y="21.554001" style="fill:white;fill-opacity:1;stroke:white;stroke-width:0pt;stroke-opacity:0" id="rect180"/>
        <g id="g182">
          <text x="137.839" y="39.054001" style="font-size:12.5px;text-anchor:start;fill:black;font-family:Helvetica" id="text188">Winner</text>
          <polyline points="95.339,33.221 135.339,33.221 " id="polyline192" style="fill:none;stroke:blue;stroke-width:0.5pt;stroke-dasharray:none"/>
          <text x="137.839" y="58.054001" style="font-size:12.5px;text-anchor:start;fill:black;font-family:Helvetica" id="text204">Total prize money</text>
          <polyline points="95.339,51.887 135.339,51.887 " id="polyline208" style="fill:none;stroke:#007f00;stroke-width:0.5pt;stroke-dasharray:none"/>
        </g>
        <g id="g216">
          <polyline id="polyline218" points="87.339,21.554 248.339,21.554 " style="fill:none;stroke:black;stroke-width:0.5pt;stroke-dasharray:none"/>
          <polyline id="polyline220" points="87.339,63.554 248.339,63.554 " style="fill:none;stroke:black;stroke-width:0.5pt;stroke-dasharray:none"/>
          <polyline id="polyline222" points="87.339,63.554 87.339,21.554 " style="fill:none;stroke:black;stroke-width:0.5pt;stroke-dasharray:none"/>
          <polyline id="polyline224" points="248.339,63.554 248.339,21.554 " style="fill:none;stroke:black;stroke-width:0.5pt;stroke-dasharray:none"/>
        </g>
      </g>
    </g>
  </g>
</svg>