<?xml version="1.0" encoding="utf-8" standalone="no"?>
<!DOCTYPE svg PUBLIC "-//W3C//DTD SVG 1.1//EN"
  "http://www.w3.org/Graphics/SVG/1.1/DTD/svg11.dtd">
<!-- Created with matplotlib (https://matplotlib.org/) -->
<svg height="474.668906pt" version="1.1" viewBox="0 0 749.312919 474.668906" width="749.312919pt" xmlns="http://www.w3.org/2000/svg" xmlns:xlink="http://www.w3.org/1999/xlink">
 <defs>
  <style type="text/css">
*{stroke-linecap:butt;stroke-linejoin:round;}
  </style>
 </defs>
 <g id="figure_1">
  <g id="patch_1">
   <path d="M 0 474.668906 
L 749.312919 474.668906 
L 749.312919 0 
L 0 0 
z
" style="fill:#ffffff;"/>
  </g>
  <g id="axes_1">
   <g id="patch_2">
    <path d="M 72.512919 442.08 
L 742.112919 442.08 
L 742.112919 7.2 
L 72.512919 7.2 
z
" style="fill:#ffffff;"/>
   </g>
   <g id="matplotlib.axis_1">
    <g id="xtick_1">
     <g id="line2d_1"/>
     <g id="text_1">
      <!-- Male -->
      <defs>
       <path d="M 7.421875 0 
L 7.421875 71.578125 
L 21.6875 71.578125 
L 38.625 20.90625 
Q 40.96875 13.8125 42.046875 10.296875 
Q 43.265625 14.203125 45.84375 21.78125 
L 62.984375 71.578125 
L 75.734375 71.578125 
L 75.734375 0 
L 66.609375 0 
L 66.609375 59.90625 
L 45.796875 0 
L 37.25 0 
L 16.546875 60.9375 
L 16.546875 0 
z
" id="ArialMT-77"/>
       <path d="M 40.4375 6.390625 
Q 35.546875 2.25 31.03125 0.53125 
Q 26.515625 -1.171875 21.34375 -1.171875 
Q 12.796875 -1.171875 8.203125 3 
Q 3.609375 7.171875 3.609375 13.671875 
Q 3.609375 17.484375 5.34375 20.625 
Q 7.078125 23.78125 9.890625 25.6875 
Q 12.703125 27.59375 16.21875 28.5625 
Q 18.796875 29.25 24.03125 29.890625 
Q 34.671875 31.15625 39.703125 32.90625 
Q 39.75 34.71875 39.75 35.203125 
Q 39.75 40.578125 37.25 42.78125 
Q 33.890625 45.75 27.25 45.75 
Q 21.046875 45.75 18.09375 43.578125 
Q 15.140625 41.40625 13.71875 35.890625 
L 5.125 37.0625 
Q 6.296875 42.578125 8.984375 45.96875 
Q 11.671875 49.359375 16.75 51.1875 
Q 21.828125 53.03125 28.515625 53.03125 
Q 35.15625 53.03125 39.296875 51.46875 
Q 43.453125 49.90625 45.40625 47.53125 
Q 47.359375 45.171875 48.140625 41.546875 
Q 48.578125 39.3125 48.578125 33.453125 
L 48.578125 21.734375 
Q 48.578125 9.46875 49.140625 6.21875 
Q 49.703125 2.984375 51.375 0 
L 42.1875 0 
Q 40.828125 2.734375 40.4375 6.390625 
z
M 39.703125 26.03125 
Q 34.90625 24.078125 25.34375 22.703125 
Q 19.921875 21.921875 17.671875 20.9375 
Q 15.4375 19.96875 14.203125 18.09375 
Q 12.984375 16.21875 12.984375 13.921875 
Q 12.984375 10.40625 15.640625 8.0625 
Q 18.3125 5.71875 23.4375 5.71875 
Q 28.515625 5.71875 32.46875 7.9375 
Q 36.421875 10.15625 38.28125 14.015625 
Q 39.703125 17 39.703125 22.796875 
z
" id="ArialMT-97"/>
       <path d="M 6.390625 0 
L 6.390625 71.578125 
L 15.1875 71.578125 
L 15.1875 0 
z
" id="ArialMT-108"/>
       <path d="M 42.09375 16.703125 
L 51.171875 15.578125 
Q 49.03125 7.625 43.21875 3.21875 
Q 37.40625 -1.171875 28.375 -1.171875 
Q 17 -1.171875 10.328125 5.828125 
Q 3.65625 12.84375 3.65625 25.484375 
Q 3.65625 38.578125 10.390625 45.796875 
Q 17.140625 53.03125 27.875 53.03125 
Q 38.28125 53.03125 44.875 45.953125 
Q 51.46875 38.875 51.46875 26.03125 
Q 51.46875 25.25 51.421875 23.6875 
L 12.75 23.6875 
Q 13.234375 15.140625 17.578125 10.59375 
Q 21.921875 6.0625 28.421875 6.0625 
Q 33.25 6.0625 36.671875 8.59375 
Q 40.09375 11.140625 42.09375 16.703125 
z
M 13.234375 30.90625 
L 42.1875 30.90625 
Q 41.609375 37.453125 38.875 40.71875 
Q 34.671875 45.796875 27.984375 45.796875 
Q 21.921875 45.796875 17.796875 41.75 
Q 13.671875 37.703125 13.234375 30.90625 
z
" id="ArialMT-101"/>
      </defs>
      <g style="fill:#262626;" transform="translate(225.825184 464.885156)scale(0.13 -0.13)">
       <use xlink:href="#ArialMT-77"/>
       <use x="83.300781" xlink:href="#ArialMT-97"/>
       <use x="138.916016" xlink:href="#ArialMT-108"/>
       <use x="161.132812" xlink:href="#ArialMT-101"/>
      </g>
     </g>
    </g>
    <g id="xtick_2">
     <g id="line2d_2"/>
     <g id="text_2">
      <!-- Female -->
      <defs>
       <path d="M 8.203125 0 
L 8.203125 71.578125 
L 56.5 71.578125 
L 56.5 63.140625 
L 17.671875 63.140625 
L 17.671875 40.96875 
L 51.265625 40.96875 
L 51.265625 32.515625 
L 17.671875 32.515625 
L 17.671875 0 
z
" id="ArialMT-70"/>
       <path d="M 6.59375 0 
L 6.59375 51.859375 
L 14.453125 51.859375 
L 14.453125 44.578125 
Q 16.890625 48.390625 20.9375 50.703125 
Q 25 53.03125 30.171875 53.03125 
Q 35.9375 53.03125 39.625 50.640625 
Q 43.3125 48.25 44.828125 43.953125 
Q 50.984375 53.03125 60.84375 53.03125 
Q 68.5625 53.03125 72.703125 48.75 
Q 76.859375 44.484375 76.859375 35.59375 
L 76.859375 0 
L 68.109375 0 
L 68.109375 32.671875 
Q 68.109375 37.9375 67.25 40.25 
Q 66.40625 42.578125 64.15625 43.984375 
Q 61.921875 45.40625 58.890625 45.40625 
Q 53.421875 45.40625 49.796875 41.765625 
Q 46.1875 38.140625 46.1875 30.125 
L 46.1875 0 
L 37.40625 0 
L 37.40625 33.6875 
Q 37.40625 39.546875 35.25 42.46875 
Q 33.109375 45.40625 28.21875 45.40625 
Q 24.515625 45.40625 21.359375 43.453125 
Q 18.21875 41.5 16.796875 37.734375 
Q 15.375 33.984375 15.375 26.90625 
L 15.375 0 
z
" id="ArialMT-109"/>
      </defs>
      <g style="fill:#262626;" transform="translate(553.040497 464.885156)scale(0.13 -0.13)">
       <use xlink:href="#ArialMT-70"/>
       <use x="61.083984" xlink:href="#ArialMT-101"/>
       <use x="116.699219" xlink:href="#ArialMT-109"/>
       <use x="200" xlink:href="#ArialMT-97"/>
       <use x="255.615234" xlink:href="#ArialMT-108"/>
       <use x="277.832031" xlink:href="#ArialMT-101"/>
      </g>
     </g>
    </g>
   </g>
   <g id="matplotlib.axis_2">
    <g id="ytick_1">
     <g id="line2d_3"/>
     <g id="text_3">
      <!-- 100 k -->
      <defs>
       <path d="M 37.25 0 
L 28.46875 0 
L 28.46875 56 
Q 25.296875 52.984375 20.140625 49.953125 
Q 14.984375 46.921875 10.890625 45.40625 
L 10.890625 53.90625 
Q 18.265625 57.375 23.78125 62.296875 
Q 29.296875 67.234375 31.59375 71.875 
L 37.25 71.875 
z
" id="ArialMT-49"/>
       <path d="M 4.15625 35.296875 
Q 4.15625 48 6.765625 55.734375 
Q 9.375 63.484375 14.515625 67.671875 
Q 19.671875 71.875 27.484375 71.875 
Q 33.25 71.875 37.59375 69.546875 
Q 41.9375 67.234375 44.765625 62.859375 
Q 47.609375 58.5 49.21875 52.21875 
Q 50.828125 45.953125 50.828125 35.296875 
Q 50.828125 22.703125 48.234375 14.96875 
Q 45.65625 7.234375 40.5 3 
Q 35.359375 -1.21875 27.484375 -1.21875 
Q 17.140625 -1.21875 11.234375 6.203125 
Q 4.15625 15.140625 4.15625 35.296875 
z
M 13.1875 35.296875 
Q 13.1875 17.671875 17.3125 11.828125 
Q 21.4375 6 27.484375 6 
Q 33.546875 6 37.671875 11.859375 
Q 41.796875 17.71875 41.796875 35.296875 
Q 41.796875 52.984375 37.671875 58.78125 
Q 33.546875 64.59375 27.390625 64.59375 
Q 21.34375 64.59375 17.71875 59.46875 
Q 13.1875 52.9375 13.1875 35.296875 
z
" id="ArialMT-48"/>
       <path id="ArialMT-32"/>
       <path d="M 6.640625 0 
L 6.640625 71.578125 
L 15.4375 71.578125 
L 15.4375 30.765625 
L 36.234375 51.859375 
L 47.609375 51.859375 
L 27.78125 32.625 
L 49.609375 0 
L 38.765625 0 
L 21.625 26.515625 
L 15.4375 20.5625 
L 15.4375 0 
z
" id="ArialMT-107"/>
      </defs>
      <g style="fill:#262626;" transform="translate(27.2137 419.74436)scale(0.13 -0.13)">
       <use xlink:href="#ArialMT-49"/>
       <use x="55.615234" xlink:href="#ArialMT-48"/>
       <use x="111.230469" xlink:href="#ArialMT-48"/>
       <use x="166.845703" xlink:href="#ArialMT-32"/>
       <use x="194.628906" xlink:href="#ArialMT-107"/>
      </g>
     </g>
    </g>
    <g id="ytick_2">
     <g id="line2d_4"/>
     <g id="text_4">
      <!-- 150 k -->
      <defs>
       <path d="M 4.15625 18.75 
L 13.375 19.53125 
Q 14.40625 12.796875 18.140625 9.390625 
Q 21.875 6 27.15625 6 
Q 33.5 6 37.890625 10.78125 
Q 42.28125 15.578125 42.28125 23.484375 
Q 42.28125 31 38.0625 35.34375 
Q 33.84375 39.703125 27 39.703125 
Q 22.75 39.703125 19.328125 37.765625 
Q 15.921875 35.84375 13.96875 32.765625 
L 5.71875 33.84375 
L 12.640625 70.609375 
L 48.25 70.609375 
L 48.25 62.203125 
L 19.671875 62.203125 
L 15.828125 42.96875 
Q 22.265625 47.46875 29.34375 47.46875 
Q 38.71875 47.46875 45.15625 40.96875 
Q 51.609375 34.46875 51.609375 24.265625 
Q 51.609375 14.546875 45.953125 7.46875 
Q 39.0625 -1.21875 27.15625 -1.21875 
Q 17.390625 -1.21875 11.203125 4.25 
Q 5.03125 9.71875 4.15625 18.75 
z
" id="ArialMT-53"/>
      </defs>
      <g style="fill:#262626;" transform="translate(27.2137 329.482852)scale(0.13 -0.13)">
       <use xlink:href="#ArialMT-49"/>
       <use x="55.615234" xlink:href="#ArialMT-53"/>
       <use x="111.230469" xlink:href="#ArialMT-48"/>
       <use x="166.845703" xlink:href="#ArialMT-32"/>
       <use x="194.628906" xlink:href="#ArialMT-107"/>
      </g>
     </g>
    </g>
    <g id="ytick_3">
     <g id="line2d_5"/>
     <g id="text_5">
      <!-- 200 k -->
      <defs>
       <path d="M 50.34375 8.453125 
L 50.34375 0 
L 3.03125 0 
Q 2.9375 3.171875 4.046875 6.109375 
Q 5.859375 10.9375 9.828125 15.625 
Q 13.8125 20.3125 21.34375 26.46875 
Q 33.015625 36.03125 37.109375 41.625 
Q 41.21875 47.21875 41.21875 52.203125 
Q 41.21875 57.421875 37.46875 61 
Q 33.734375 64.59375 27.734375 64.59375 
Q 21.390625 64.59375 17.578125 60.78125 
Q 13.765625 56.984375 13.71875 50.25 
L 4.6875 51.171875 
Q 5.609375 61.28125 11.65625 66.578125 
Q 17.71875 71.875 27.9375 71.875 
Q 38.234375 71.875 44.234375 66.15625 
Q 50.25 60.453125 50.25 52 
Q 50.25 47.703125 48.484375 43.546875 
Q 46.734375 39.40625 42.65625 34.8125 
Q 38.578125 30.21875 29.109375 22.21875 
Q 21.1875 15.578125 18.9375 13.203125 
Q 16.703125 10.84375 15.234375 8.453125 
z
" id="ArialMT-50"/>
      </defs>
      <g style="fill:#262626;" transform="translate(27.2137 239.221344)scale(0.13 -0.13)">
       <use xlink:href="#ArialMT-50"/>
       <use x="55.615234" xlink:href="#ArialMT-48"/>
       <use x="111.230469" xlink:href="#ArialMT-48"/>
       <use x="166.845703" xlink:href="#ArialMT-32"/>
       <use x="194.628906" xlink:href="#ArialMT-107"/>
      </g>
     </g>
    </g>
    <g id="ytick_4">
     <g id="line2d_6"/>
     <g id="text_6">
      <!-- 250 k -->
      <g style="fill:#262626;" transform="translate(27.2137 148.959836)scale(0.13 -0.13)">
       <use xlink:href="#ArialMT-50"/>
       <use x="55.615234" xlink:href="#ArialMT-53"/>
       <use x="111.230469" xlink:href="#ArialMT-48"/>
       <use x="166.845703" xlink:href="#ArialMT-32"/>
       <use x="194.628906" xlink:href="#ArialMT-107"/>
      </g>
     </g>
    </g>
    <g id="ytick_5">
     <g id="line2d_7"/>
     <g id="text_7">
      <!-- 300 k -->
      <defs>
       <path d="M 4.203125 18.890625 
L 12.984375 20.0625 
Q 14.5 12.59375 18.140625 9.296875 
Q 21.78125 6 27 6 
Q 33.203125 6 37.46875 10.296875 
Q 41.75 14.59375 41.75 20.953125 
Q 41.75 27 37.796875 30.921875 
Q 33.84375 34.859375 27.734375 34.859375 
Q 25.25 34.859375 21.53125 33.890625 
L 22.515625 41.609375 
Q 23.390625 41.5 23.921875 41.5 
Q 29.546875 41.5 34.03125 44.421875 
Q 38.53125 47.359375 38.53125 53.46875 
Q 38.53125 58.296875 35.25 61.46875 
Q 31.984375 64.65625 26.8125 64.65625 
Q 21.6875 64.65625 18.265625 61.421875 
Q 14.84375 58.203125 13.875 51.765625 
L 5.078125 53.328125 
Q 6.6875 62.15625 12.390625 67.015625 
Q 18.109375 71.875 26.609375 71.875 
Q 32.46875 71.875 37.390625 69.359375 
Q 42.328125 66.84375 44.9375 62.5 
Q 47.5625 58.15625 47.5625 53.265625 
Q 47.5625 48.640625 45.0625 44.828125 
Q 42.578125 41.015625 37.703125 38.765625 
Q 44.046875 37.3125 47.5625 32.6875 
Q 51.078125 28.078125 51.078125 21.140625 
Q 51.078125 11.765625 44.234375 5.25 
Q 37.40625 -1.265625 26.953125 -1.265625 
Q 17.53125 -1.265625 11.296875 4.34375 
Q 5.078125 9.96875 4.203125 18.890625 
z
" id="ArialMT-51"/>
      </defs>
      <g style="fill:#262626;" transform="translate(27.2137 58.698328)scale(0.13 -0.13)">
       <use xlink:href="#ArialMT-51"/>
       <use x="55.615234" xlink:href="#ArialMT-48"/>
       <use x="111.230469" xlink:href="#ArialMT-48"/>
       <use x="166.845703" xlink:href="#ArialMT-32"/>
       <use x="194.628906" xlink:href="#ArialMT-107"/>
      </g>
     </g>
    </g>
    <g id="text_8">
     <!-- Total Compensation -->
     <defs>
      <path d="M 25.921875 0 
L 25.921875 63.140625 
L 2.34375 63.140625 
L 2.34375 71.578125 
L 59.078125 71.578125 
L 59.078125 63.140625 
L 35.40625 63.140625 
L 35.40625 0 
z
" id="ArialMT-84"/>
      <path d="M 3.328125 25.921875 
Q 3.328125 40.328125 11.328125 47.265625 
Q 18.015625 53.03125 27.640625 53.03125 
Q 38.328125 53.03125 45.109375 46.015625 
Q 51.90625 39.015625 51.90625 26.65625 
Q 51.90625 16.65625 48.90625 10.90625 
Q 45.90625 5.171875 40.15625 2 
Q 34.421875 -1.171875 27.640625 -1.171875 
Q 16.75 -1.171875 10.03125 5.8125 
Q 3.328125 12.796875 3.328125 25.921875 
z
M 12.359375 25.921875 
Q 12.359375 15.96875 16.703125 11.015625 
Q 21.046875 6.0625 27.640625 6.0625 
Q 34.1875 6.0625 38.53125 11.03125 
Q 42.875 16.015625 42.875 26.21875 
Q 42.875 35.84375 38.5 40.796875 
Q 34.125 45.75 27.640625 45.75 
Q 21.046875 45.75 16.703125 40.8125 
Q 12.359375 35.890625 12.359375 25.921875 
z
" id="ArialMT-111"/>
      <path d="M 25.78125 7.859375 
L 27.046875 0.09375 
Q 23.34375 -0.6875 20.40625 -0.6875 
Q 15.625 -0.6875 12.984375 0.828125 
Q 10.359375 2.34375 9.28125 4.8125 
Q 8.203125 7.28125 8.203125 15.1875 
L 8.203125 45.015625 
L 1.765625 45.015625 
L 1.765625 51.859375 
L 8.203125 51.859375 
L 8.203125 64.703125 
L 16.9375 69.96875 
L 16.9375 51.859375 
L 25.78125 51.859375 
L 25.78125 45.015625 
L 16.9375 45.015625 
L 16.9375 14.703125 
Q 16.9375 10.9375 17.40625 9.859375 
Q 17.875 8.796875 18.921875 8.15625 
Q 19.96875 7.515625 21.921875 7.515625 
Q 23.390625 7.515625 25.78125 7.859375 
z
" id="ArialMT-116"/>
      <path d="M 58.796875 25.09375 
L 68.265625 22.703125 
Q 65.28125 11.03125 57.546875 4.90625 
Q 49.8125 -1.21875 38.625 -1.21875 
Q 27.046875 -1.21875 19.796875 3.484375 
Q 12.546875 8.203125 8.765625 17.140625 
Q 4.984375 26.078125 4.984375 36.328125 
Q 4.984375 47.515625 9.25 55.828125 
Q 13.53125 64.15625 21.40625 68.46875 
Q 29.296875 72.796875 38.765625 72.796875 
Q 49.515625 72.796875 56.828125 67.328125 
Q 64.15625 61.859375 67.046875 51.953125 
L 57.71875 49.75 
Q 55.21875 57.5625 50.484375 61.125 
Q 45.75 64.703125 38.578125 64.703125 
Q 30.328125 64.703125 24.78125 60.734375 
Q 19.234375 56.78125 16.984375 50.109375 
Q 14.75 43.453125 14.75 36.375 
Q 14.75 27.25 17.40625 20.4375 
Q 20.0625 13.625 25.671875 10.25 
Q 31.296875 6.890625 37.84375 6.890625 
Q 45.796875 6.890625 51.3125 11.46875 
Q 56.84375 16.0625 58.796875 25.09375 
z
" id="ArialMT-67"/>
      <path d="M 6.59375 -19.875 
L 6.59375 51.859375 
L 14.59375 51.859375 
L 14.59375 45.125 
Q 17.4375 49.078125 21 51.046875 
Q 24.5625 53.03125 29.640625 53.03125 
Q 36.28125 53.03125 41.359375 49.609375 
Q 46.4375 46.1875 49.015625 39.953125 
Q 51.609375 33.734375 51.609375 26.3125 
Q 51.609375 18.359375 48.75 11.984375 
Q 45.90625 5.609375 40.453125 2.21875 
Q 35.015625 -1.171875 29 -1.171875 
Q 24.609375 -1.171875 21.109375 0.6875 
Q 17.625 2.546875 15.375 5.375 
L 15.375 -19.875 
z
M 14.546875 25.640625 
Q 14.546875 15.625 18.59375 10.84375 
Q 22.65625 6.0625 28.421875 6.0625 
Q 34.28125 6.0625 38.453125 11.015625 
Q 42.625 15.96875 42.625 26.375 
Q 42.625 36.28125 38.546875 41.203125 
Q 34.46875 46.140625 28.8125 46.140625 
Q 23.1875 46.140625 18.859375 40.890625 
Q 14.546875 35.640625 14.546875 25.640625 
z
" id="ArialMT-112"/>
      <path d="M 6.59375 0 
L 6.59375 51.859375 
L 14.5 51.859375 
L 14.5 44.484375 
Q 20.21875 53.03125 31 53.03125 
Q 35.6875 53.03125 39.625 51.34375 
Q 43.5625 49.65625 45.515625 46.921875 
Q 47.46875 44.1875 48.25 40.4375 
Q 48.734375 37.984375 48.734375 31.890625 
L 48.734375 0 
L 39.9375 0 
L 39.9375 31.546875 
Q 39.9375 36.921875 38.90625 39.578125 
Q 37.890625 42.234375 35.28125 43.8125 
Q 32.671875 45.40625 29.15625 45.40625 
Q 23.53125 45.40625 19.453125 41.84375 
Q 15.375 38.28125 15.375 28.328125 
L 15.375 0 
z
" id="ArialMT-110"/>
      <path d="M 3.078125 15.484375 
L 11.765625 16.84375 
Q 12.5 11.625 15.84375 8.84375 
Q 19.1875 6.0625 25.203125 6.0625 
Q 31.25 6.0625 34.171875 8.515625 
Q 37.109375 10.984375 37.109375 14.3125 
Q 37.109375 17.28125 34.515625 19 
Q 32.71875 20.171875 25.53125 21.96875 
Q 15.875 24.421875 12.140625 26.203125 
Q 8.40625 27.984375 6.46875 31.125 
Q 4.546875 34.28125 4.546875 38.09375 
Q 4.546875 41.546875 6.125 44.5 
Q 7.71875 47.46875 10.453125 49.421875 
Q 12.5 50.921875 16.03125 51.96875 
Q 19.578125 53.03125 23.640625 53.03125 
Q 29.734375 53.03125 34.34375 51.265625 
Q 38.96875 49.515625 41.15625 46.5 
Q 43.359375 43.5 44.1875 38.484375 
L 35.59375 37.3125 
Q 35.015625 41.3125 32.203125 43.546875 
Q 29.390625 45.796875 24.265625 45.796875 
Q 18.21875 45.796875 15.625 43.796875 
Q 13.03125 41.796875 13.03125 39.109375 
Q 13.03125 37.40625 14.109375 36.03125 
Q 15.1875 34.625 17.484375 33.6875 
Q 18.796875 33.203125 25.25 31.453125 
Q 34.578125 28.953125 38.25 27.359375 
Q 41.9375 25.78125 44.03125 22.75 
Q 46.140625 19.734375 46.140625 15.234375 
Q 46.140625 10.84375 43.578125 6.953125 
Q 41.015625 3.078125 36.171875 0.953125 
Q 31.34375 -1.171875 25.25 -1.171875 
Q 15.140625 -1.171875 9.84375 3.03125 
Q 4.546875 7.234375 3.078125 15.484375 
z
" id="ArialMT-115"/>
      <path d="M 6.640625 61.46875 
L 6.640625 71.578125 
L 15.4375 71.578125 
L 15.4375 61.46875 
z
M 6.640625 0 
L 6.640625 51.859375 
L 15.4375 51.859375 
L 15.4375 0 
z
" id="ArialMT-105"/>
     </defs>
     <g style="fill:#262626;" transform="translate(19.7793 301.941)rotate(-90)scale(0.1728 -0.1728)">
      <use xlink:href="#ArialMT-84"/>
      <use x="60.912109" xlink:href="#ArialMT-111"/>
      <use x="116.527344" xlink:href="#ArialMT-116"/>
      <use x="144.310547" xlink:href="#ArialMT-97"/>
      <use x="199.925781" xlink:href="#ArialMT-108"/>
      <use x="222.142578" xlink:href="#ArialMT-32"/>
      <use x="249.925781" xlink:href="#ArialMT-67"/>
      <use x="322.142578" xlink:href="#ArialMT-111"/>
      <use x="377.757812" xlink:href="#ArialMT-109"/>
      <use x="461.058594" xlink:href="#ArialMT-112"/>
      <use x="516.673828" xlink:href="#ArialMT-101"/>
      <use x="572.289062" xlink:href="#ArialMT-110"/>
      <use x="627.904297" xlink:href="#ArialMT-115"/>
      <use x="677.904297" xlink:href="#ArialMT-97"/>
      <use x="733.519531" xlink:href="#ArialMT-116"/>
      <use x="761.302734" xlink:href="#ArialMT-105"/>
      <use x="783.519531" xlink:href="#ArialMT-111"/>
      <use x="839.134766" xlink:href="#ArialMT-110"/>
     </g>
    </g>
   </g>
   <g id="patch_3">
    <path d="M 62.512919 415.091782 
L 62.512919 54.04575 
" style="fill:none;stroke:#262626;stroke-linecap:square;stroke-linejoin:miter;stroke-width:1.25;"/>
   </g>
   <g id="patch_4">
    <path d="M 239.912919 452.08 
L 574.712919 452.08 
" style="fill:none;stroke:#262626;stroke-linecap:square;stroke-linejoin:miter;stroke-width:1.25;"/>
   </g>
   <g id="PathCollection_1">
    <defs>
     <path d="M 0 6 
C 1.591219 6 3.117479 5.367802 4.242641 4.242641 
C 5.367802 3.117479 6 1.591219 6 0 
C 6 -1.591219 5.367802 -3.117479 4.242641 -4.242641 
C 3.117479 -5.367802 1.591219 -6 0 -6 
C -1.591219 -6 -3.117479 -5.367802 -4.242641 -4.242641 
C -5.367802 -3.117479 -6 -1.591219 -6 0 
C -6 1.591219 -5.367802 3.117479 -4.242641 4.242641 
C -3.117479 5.367802 -1.591219 6 0 6 
z
" id="C0_0_89859f37d9"/>
    </defs>
    <g clip-path="url(#p1bf91f5814)">
     <use style="fill:#1f77b4;stroke:#3f3f3f;stroke-width:2;" x="239.912919" xlink:href="#C0_0_89859f37d9" y="422.312702"/>
    </g>
    <g clip-path="url(#p1bf91f5814)">
     <use style="fill:#1f77b4;stroke:#3f3f3f;stroke-width:2;" x="227.319119" xlink:href="#C0_0_89859f37d9" y="415.091782"/>
    </g>
    <g clip-path="url(#p1bf91f5814)">
     <use style="fill:#1f77b4;stroke:#3f3f3f;stroke-width:2;" x="252.506718" xlink:href="#C0_0_89859f37d9" y="415.091782"/>
    </g>
    <g clip-path="url(#p1bf91f5814)">
     <use style="fill:#1f77b4;stroke:#3f3f3f;stroke-width:2;" x="239.912919" xlink:href="#C0_0_89859f37d9" y="397.03948"/>
    </g>
    <g clip-path="url(#p1bf91f5814)">
     <use style="fill:#1f77b4;stroke:#3f3f3f;stroke-width:2;" x="225.335638" xlink:href="#C0_0_89859f37d9" y="395.23425"/>
    </g>
    <g clip-path="url(#p1bf91f5814)">
     <use style="fill:#1f77b4;stroke:#3f3f3f;stroke-width:2;" x="254.115681" xlink:href="#C0_0_89859f37d9" y="393.42902"/>
    </g>
    <g clip-path="url(#p1bf91f5814)">
     <use style="fill:#1f77b4;stroke:#3f3f3f;stroke-width:2;" x="216.021884" xlink:href="#C0_0_89859f37d9" y="384.402869"/>
    </g>
    <g clip-path="url(#p1bf91f5814)">
     <use style="fill:#1f77b4;stroke:#3f3f3f;stroke-width:2;" x="239.912919" xlink:href="#C0_0_89859f37d9" y="378.987179"/>
    </g>
    <g clip-path="url(#p1bf91f5814)">
     <use style="fill:#1f77b4;stroke:#3f3f3f;stroke-width:2;" x="254.612919" xlink:href="#C0_0_89859f37d9" y="378.987179"/>
    </g>
    <g clip-path="url(#p1bf91f5814)">
     <use style="fill:#1f77b4;stroke:#3f3f3f;stroke-width:2;" x="269.312919" xlink:href="#C0_0_89859f37d9" y="378.987179"/>
    </g>
    <g clip-path="url(#p1bf91f5814)">
     <use style="fill:#1f77b4;stroke:#3f3f3f;stroke-width:2;" x="203.428085" xlink:href="#C0_0_89859f37d9" y="377.181948"/>
    </g>
    <g clip-path="url(#p1bf91f5814)">
     <use style="fill:#1f77b4;stroke:#3f3f3f;stroke-width:2;" x="283.735332" xlink:href="#C0_0_89859f37d9" y="376.279333"/>
    </g>
    <g clip-path="url(#p1bf91f5814)">
     <use style="fill:#1f77b4;stroke:#3f3f3f;stroke-width:2;" x="188.758669" xlink:href="#C0_0_89859f37d9" y="376.279333"/>
    </g>
    <g clip-path="url(#p1bf91f5814)">
     <use style="fill:#1f77b4;stroke:#3f3f3f;stroke-width:2;" x="227.319119" xlink:href="#C0_0_89859f37d9" y="371.766258"/>
    </g>
    <g clip-path="url(#p1bf91f5814)">
     <use style="fill:#1f77b4;stroke:#3f3f3f;stroke-width:2;" x="297.650591" xlink:href="#C0_0_89859f37d9" y="371.766258"/>
    </g>
    <g clip-path="url(#p1bf91f5814)">
     <use style="fill:#1f77b4;stroke:#3f3f3f;stroke-width:2;" x="174.843409" xlink:href="#C0_0_89859f37d9" y="371.766258"/>
    </g>
    <g clip-path="url(#p1bf91f5814)">
     <use style="fill:#1f77b4;stroke:#3f3f3f;stroke-width:2;" x="312.342951" xlink:href="#C0_0_89859f37d9" y="371.31495"/>
    </g>
    <g clip-path="url(#p1bf91f5814)">
     <use style="fill:#1f77b4;stroke:#3f3f3f;stroke-width:2;" x="160.266129" xlink:href="#C0_0_89859f37d9" y="369.961028"/>
    </g>
    <g clip-path="url(#p1bf91f5814)">
     <use style="fill:#1f77b4;stroke:#3f3f3f;stroke-width:2;" x="326.974048" xlink:href="#C0_0_89859f37d9" y="369.961028"/>
    </g>
    <g clip-path="url(#p1bf91f5814)">
     <use style="fill:#1f77b4;stroke:#3f3f3f;stroke-width:2;" x="145.566129" xlink:href="#C0_0_89859f37d9" y="369.961028"/>
    </g>
    <g clip-path="url(#p1bf91f5814)">
     <use style="fill:#1f77b4;stroke:#3f3f3f;stroke-width:2;" x="246.037823" xlink:href="#C0_0_89859f37d9" y="366.260306"/>
    </g>
    <g clip-path="url(#p1bf91f5814)">
     <use style="fill:#1f77b4;stroke:#3f3f3f;stroke-width:2;" x="260.627114" xlink:href="#C0_0_89859f37d9" y="364.545337"/>
    </g>
    <g clip-path="url(#p1bf91f5814)">
     <use style="fill:#1f77b4;stroke:#3f3f3f;stroke-width:2;" x="218.005366" xlink:href="#C0_0_89859f37d9" y="360.934877"/>
    </g>
    <g clip-path="url(#p1bf91f5814)">
     <use style="fill:#1f77b4;stroke:#3f3f3f;stroke-width:2;" x="274.829876" xlink:href="#C0_0_89859f37d9" y="360.934877"/>
    </g>
    <g clip-path="url(#p1bf91f5814)">
     <use style="fill:#1f77b4;stroke:#3f3f3f;stroke-width:2;" x="203.305366" xlink:href="#C0_0_89859f37d9" y="360.934877"/>
    </g>
    <g clip-path="url(#p1bf91f5814)">
     <use style="fill:#1f77b4;stroke:#3f3f3f;stroke-width:2;" x="188.605366" xlink:href="#C0_0_89859f37d9" y="360.934877"/>
    </g>
    <g clip-path="url(#p1bf91f5814)">
     <use style="fill:#1f77b4;stroke:#3f3f3f;stroke-width:2;" x="239.912919" xlink:href="#C0_0_89859f37d9" y="351.908726"/>
    </g>
    <g clip-path="url(#p1bf91f5814)">
     <use style="fill:#1f77b4;stroke:#3f3f3f;stroke-width:2;" x="254.552915" xlink:href="#C0_0_89859f37d9" y="350.645065"/>
    </g>
    <g clip-path="url(#p1bf91f5814)">
     <use style="fill:#1f77b4;stroke:#3f3f3f;stroke-width:2;" x="284.797677" xlink:href="#C0_0_89859f37d9" y="350.645065"/>
    </g>
    <g clip-path="url(#p1bf91f5814)">
     <use style="fill:#1f77b4;stroke:#3f3f3f;stroke-width:2;" x="225.710157" xlink:href="#C0_0_89859f37d9" y="348.298266"/>
    </g>
    <g clip-path="url(#p1bf91f5814)">
     <use style="fill:#1f77b4;stroke:#3f3f3f;stroke-width:2;" x="267.855676" xlink:href="#C0_0_89859f37d9" y="344.687806"/>
    </g>
    <g clip-path="url(#p1bf91f5814)">
     <use style="fill:#1f77b4;stroke:#3f3f3f;stroke-width:2;" x="211.642428" xlink:href="#C0_0_89859f37d9" y="344.236498"/>
    </g>
    <g clip-path="url(#p1bf91f5814)">
     <use style="fill:#1f77b4;stroke:#3f3f3f;stroke-width:2;" x="197.011331" xlink:href="#C0_0_89859f37d9" y="342.882575"/>
    </g>
    <g clip-path="url(#p1bf91f5814)">
     <use style="fill:#1f77b4;stroke:#3f3f3f;stroke-width:2;" x="297.031134" xlink:href="#C0_0_89859f37d9" y="342.882575"/>
    </g>
    <g clip-path="url(#p1bf91f5814)">
     <use style="fill:#1f77b4;stroke:#3f3f3f;stroke-width:2;" x="239.912919" xlink:href="#C0_0_89859f37d9" y="333.856425"/>
    </g>
    <g clip-path="url(#p1bf91f5814)">
     <use style="fill:#1f77b4;stroke:#3f3f3f;stroke-width:2;" x="225.212919" xlink:href="#C0_0_89859f37d9" y="333.856425"/>
    </g>
    <g clip-path="url(#p1bf91f5814)">
     <use style="fill:#1f77b4;stroke:#3f3f3f;stroke-width:2;" x="254.490199" xlink:href="#C0_0_89859f37d9" y="332.051194"/>
    </g>
    <g clip-path="url(#p1bf91f5814)">
     <use style="fill:#1f77b4;stroke:#3f3f3f;stroke-width:2;" x="211.657329" xlink:href="#C0_0_89859f37d9" y="328.440734"/>
    </g>
    <g clip-path="url(#p1bf91f5814)">
     <use style="fill:#1f77b4;stroke:#3f3f3f;stroke-width:2;" x="268.692961" xlink:href="#C0_0_89859f37d9" y="328.440734"/>
    </g>
    <g clip-path="url(#p1bf91f5814)">
     <use style="fill:#1f77b4;stroke:#3f3f3f;stroke-width:2;" x="232.674893" xlink:href="#C0_0_89859f37d9" y="321.671121"/>
    </g>
    <g clip-path="url(#p1bf91f5814)">
     <use style="fill:#1f77b4;stroke:#3f3f3f;stroke-width:2;" x="246.622068" xlink:href="#C0_0_89859f37d9" y="317.248307"/>
    </g>
    <g clip-path="url(#p1bf91f5814)">
     <use style="fill:#1f77b4;stroke:#3f3f3f;stroke-width:2;" x="219.327979" xlink:href="#C0_0_89859f37d9" y="315.804123"/>
    </g>
    <g clip-path="url(#p1bf91f5814)">
     <use style="fill:#1f77b4;stroke:#3f3f3f;stroke-width:2;" x="259.436462" xlink:href="#C0_0_89859f37d9" y="310.388433"/>
    </g>
    <g clip-path="url(#p1bf91f5814)">
     <use style="fill:#1f77b4;stroke:#3f3f3f;stroke-width:2;" x="206.73418" xlink:href="#C0_0_89859f37d9" y="308.583202"/>
    </g>
    <g clip-path="url(#p1bf91f5814)">
     <use style="fill:#1f77b4;stroke:#3f3f3f;stroke-width:2;" x="239.912919" xlink:href="#C0_0_89859f37d9" y="297.210252"/>
    </g>
    <g clip-path="url(#p1bf91f5814)">
     <use style="fill:#1f77b4;stroke:#3f3f3f;stroke-width:2;" x="228.220054" xlink:href="#C0_0_89859f37d9" y="288.725671"/>
    </g>
    <g clip-path="url(#p1bf91f5814)">
     <use style="fill:#1f77b4;stroke:#3f3f3f;stroke-width:2;" x="251.605784" xlink:href="#C0_0_89859f37d9" y="288.725671"/>
    </g>
    <g clip-path="url(#p1bf91f5814)">
     <use style="fill:#1f77b4;stroke:#3f3f3f;stroke-width:2;" x="213.520054" xlink:href="#C0_0_89859f37d9" y="288.725671"/>
    </g>
    <g clip-path="url(#p1bf91f5814)">
     <use style="fill:#1f77b4;stroke:#3f3f3f;stroke-width:2;" x="239.912919" xlink:href="#C0_0_89859f37d9" y="267.062909"/>
    </g>
    <g clip-path="url(#p1bf91f5814)">
     <use style="fill:#1f77b4;stroke:#3f3f3f;stroke-width:2;" x="225.710157" xlink:href="#C0_0_89859f37d9" y="263.452448"/>
    </g>
    <g clip-path="url(#p1bf91f5814)">
     <use style="fill:#1f77b4;stroke:#3f3f3f;stroke-width:2;" x="253.468508" xlink:href="#C0_0_89859f37d9" y="261.647218"/>
    </g>
    <g clip-path="url(#p1bf91f5814)">
     <use style="fill:#1f77b4;stroke:#3f3f3f;stroke-width:2;" x="239.912919" xlink:href="#C0_0_89859f37d9" y="252.621067"/>
    </g>
    <g clip-path="url(#p1bf91f5814)">
     <use style="fill:#1f77b4;stroke:#3f3f3f;stroke-width:2;" x="239.912919" xlink:href="#C0_0_89859f37d9" y="221.932155"/>
    </g>
    <g clip-path="url(#p1bf91f5814)">
     <use style="fill:#1f77b4;stroke:#3f3f3f;stroke-width:2;" x="239.912919" xlink:href="#C0_0_89859f37d9" y="204.331161"/>
    </g>
    <g clip-path="url(#p1bf91f5814)">
     <use style="fill:#1f77b4;stroke:#3f3f3f;stroke-width:2;" x="225.212919" xlink:href="#C0_0_89859f37d9" y="204.331161"/>
    </g>
    <g clip-path="url(#p1bf91f5814)">
     <use style="fill:#1f77b4;stroke:#3f3f3f;stroke-width:2;" x="239.912919" xlink:href="#C0_0_89859f37d9" y="171.38571"/>
    </g>
    <g clip-path="url(#p1bf91f5814)">
     <use style="fill:#1f77b4;stroke:#3f3f3f;stroke-width:2;" x="225.212919" xlink:href="#C0_0_89859f37d9" y="171.38571"/>
    </g>
    <g clip-path="url(#p1bf91f5814)">
     <use style="fill:#1f77b4;stroke:#3f3f3f;stroke-width:2;" x="239.912919" xlink:href="#C0_0_89859f37d9" y="126.254956"/>
    </g>
    <g clip-path="url(#p1bf91f5814)">
     <use style="fill:#1f77b4;stroke:#3f3f3f;stroke-width:2;" x="227.319119" xlink:href="#C0_0_89859f37d9" y="119.034036"/>
    </g>
    <g clip-path="url(#p1bf91f5814)">
     <use style="fill:#1f77b4;stroke:#3f3f3f;stroke-width:2;" x="239.912919" xlink:href="#C0_0_89859f37d9" y="93.760814"/>
    </g>
    <g clip-path="url(#p1bf91f5814)">
     <use style="fill:#1f77b4;stroke:#3f3f3f;stroke-width:2;" x="228.292874" xlink:href="#C0_0_89859f37d9" y="85.18597"/>
    </g>
    <g clip-path="url(#p1bf91f5814)">
     <use style="fill:#1f77b4;stroke:#3f3f3f;stroke-width:2;" x="239.912919" xlink:href="#C0_0_89859f37d9" y="26.967298"/>
    </g>
   </g>
   <g id="PathCollection_2">
    <defs>
     <path d="M 0 6 
C 1.591219 6 3.117479 5.367802 4.242641 4.242641 
C 5.367802 3.117479 6 1.591219 6 0 
C 6 -1.591219 5.367802 -3.117479 4.242641 -4.242641 
C 3.117479 -5.367802 1.591219 -6 0 -6 
C -1.591219 -6 -3.117479 -5.367802 -4.242641 -4.242641 
C -5.367802 -3.117479 -6 -1.591219 -6 0 
C -6 1.591219 -5.367802 3.117479 -4.242641 4.242641 
C -3.117479 5.367802 -1.591219 6 0 6 
z
" id="C1_0_9ebd003e90"/>
    </defs>
    <g clip-path="url(#p1bf91f5814)">
     <use style="fill:#ff7f0e;stroke:#3f3f3f;stroke-width:2;" x="574.712919" xlink:href="#C1_0_9ebd003e90" y="378.987179"/>
    </g>
    <g clip-path="url(#p1bf91f5814)">
     <use style="fill:#ff7f0e;stroke:#3f3f3f;stroke-width:2;" x="560.135638" xlink:href="#C1_0_9ebd003e90" y="377.181948"/>
    </g>
    <g clip-path="url(#p1bf91f5814)">
     <use style="fill:#ff7f0e;stroke:#3f3f3f;stroke-width:2;" x="588.915681" xlink:href="#C1_0_9ebd003e90" y="375.376718"/>
    </g>
    <g clip-path="url(#p1bf91f5814)">
     <use style="fill:#ff7f0e;stroke:#3f3f3f;stroke-width:2;" x="547.541839" xlink:href="#C1_0_9ebd003e90" y="369.961028"/>
    </g>
    <g clip-path="url(#p1bf91f5814)">
     <use style="fill:#ff7f0e;stroke:#3f3f3f;stroke-width:2;" x="602.47127" xlink:href="#C1_0_9ebd003e90" y="369.961028"/>
    </g>
    <g clip-path="url(#p1bf91f5814)">
     <use style="fill:#ff7f0e;stroke:#3f3f3f;stroke-width:2;" x="532.964558" xlink:href="#C1_0_9ebd003e90" y="368.155798"/>
    </g>
    <g clip-path="url(#p1bf91f5814)">
     <use style="fill:#ff7f0e;stroke:#3f3f3f;stroke-width:2;" x="574.712919" xlink:href="#C1_0_9ebd003e90" y="358.678339"/>
    </g>
    <g clip-path="url(#p1bf91f5814)">
     <use style="fill:#ff7f0e;stroke:#3f3f3f;stroke-width:2;" x="561.366005" xlink:href="#C1_0_9ebd003e90" y="352.811341"/>
    </g>
    <g clip-path="url(#p1bf91f5814)">
     <use style="fill:#ff7f0e;stroke:#3f3f3f;stroke-width:2;" x="574.172433" xlink:href="#C1_0_9ebd003e90" y="344.687806"/>
    </g>
    <g clip-path="url(#p1bf91f5814)">
     <use style="fill:#ff7f0e;stroke:#3f3f3f;stroke-width:2;" x="588.749714" xlink:href="#C1_0_9ebd003e90" y="342.882575"/>
    </g>
    <g clip-path="url(#p1bf91f5814)">
     <use style="fill:#ff7f0e;stroke:#3f3f3f;stroke-width:2;" x="556.146925" xlink:href="#C1_0_9ebd003e90" y="339.723423"/>
    </g>
    <g clip-path="url(#p1bf91f5814)">
     <use style="fill:#ff7f0e;stroke:#3f3f3f;stroke-width:2;" x="574.712919" xlink:href="#C1_0_9ebd003e90" y="326.635504"/>
    </g>
    <g clip-path="url(#p1bf91f5814)">
     <use style="fill:#ff7f0e;stroke:#3f3f3f;stroke-width:2;" x="565.399165" xlink:href="#C1_0_9ebd003e90" y="315.804123"/>
    </g>
    <g clip-path="url(#p1bf91f5814)">
     <use style="fill:#ff7f0e;stroke:#3f3f3f;stroke-width:2;" x="584.026672" xlink:href="#C1_0_9ebd003e90" y="315.804123"/>
    </g>
    <g clip-path="url(#p1bf91f5814)">
     <use style="fill:#ff7f0e;stroke:#3f3f3f;stroke-width:2;" x="574.712919" xlink:href="#C1_0_9ebd003e90" y="297.751821"/>
    </g>
    <g clip-path="url(#p1bf91f5814)">
     <use style="fill:#ff7f0e;stroke:#3f3f3f;stroke-width:2;" x="560.616805" xlink:href="#C1_0_9ebd003e90" y="293.780315"/>
    </g>
    <g clip-path="url(#p1bf91f5814)">
     <use style="fill:#ff7f0e;stroke:#3f3f3f;stroke-width:2;" x="574.712919" xlink:href="#C1_0_9ebd003e90" y="270.673369"/>
    </g>
    <g clip-path="url(#p1bf91f5814)">
     <use style="fill:#ff7f0e;stroke:#3f3f3f;stroke-width:2;" x="561.595102" xlink:href="#C1_0_9ebd003e90" y="264.355063"/>
    </g>
    <g clip-path="url(#p1bf91f5814)">
     <use style="fill:#ff7f0e;stroke:#3f3f3f;stroke-width:2;" x="578.453241" xlink:href="#C1_0_9ebd003e90" y="257.134143"/>
    </g>
    <g clip-path="url(#p1bf91f5814)">
     <use style="fill:#ff7f0e;stroke:#3f3f3f;stroke-width:2;" x="593.153241" xlink:href="#C1_0_9ebd003e90" y="257.134143"/>
    </g>
    <g clip-path="url(#p1bf91f5814)">
     <use style="fill:#ff7f0e;stroke:#3f3f3f;stroke-width:2;" x="574.712919" xlink:href="#C1_0_9ebd003e90" y="239.984456"/>
    </g>
    <g clip-path="url(#p1bf91f5814)">
     <use style="fill:#ff7f0e;stroke:#3f3f3f;stroke-width:2;" x="565.399165" xlink:href="#C1_0_9ebd003e90" y="229.153075"/>
    </g>
    <g clip-path="url(#p1bf91f5814)">
     <use style="fill:#ff7f0e;stroke:#3f3f3f;stroke-width:2;" x="574.712919" xlink:href="#C1_0_9ebd003e90" y="54.04575"/>
    </g>
   </g>
  </g>
 </g>
 <defs>
  <clipPath id="p1bf91f5814">
   <rect height="434.88" width="669.6" x="72.512919" y="7.2"/>
  </clipPath>
 </defs>
</svg>
