<?xml version="1.0" encoding="utf-8" standalone="no"?>
<!DOCTYPE svg PUBLIC "-//W3C//DTD SVG 1.1//EN"
  "http://www.w3.org/Graphics/SVG/1.1/DTD/svg11.dtd">
<!-- Created with matplotlib (https://matplotlib.org/) -->
<svg height="495.195887pt" version="1.1" viewBox="0 0 749.312919 495.195887" width="749.312919pt" xmlns="http://www.w3.org/2000/svg" xmlns:xlink="http://www.w3.org/1999/xlink">
 <defs>
  <style type="text/css">
*{stroke-linecap:butt;stroke-linejoin:round;}
  </style>
 </defs>
 <g id="figure_1">
  <g id="patch_1">
   <path d="M 0 495.195887 
L 749.312919 495.195887 
L 749.312919 0 
L 0 0 
z
" style="fill:#ffffff;"/>
  </g>
  <g id="axes_1">
   <g id="patch_2">
    <path d="M 72.512919 442.08 
L 742.112919 442.08 
L 742.112919 7.2 
L 72.512919 7.2 
z
" style="fill:#ffffff;"/>
   </g>
   <g id="matplotlib.axis_1">
    <g id="xtick_1">
     <g id="line2d_1"/>
     <g id="text_1">
      <!-- (0, 30] -->
      <defs>
       <path d="M 23.390625 -21.046875 
Q 16.109375 -11.859375 11.078125 0.4375 
Q 6.0625 12.75 6.0625 25.921875 
Q 6.0625 37.546875 9.8125 48.1875 
Q 14.203125 60.546875 23.390625 72.796875 
L 29.6875 72.796875 
Q 23.78125 62.640625 21.875 58.296875 
Q 18.890625 51.5625 17.1875 44.234375 
Q 15.09375 35.109375 15.09375 25.875 
Q 15.09375 2.390625 29.6875 -21.046875 
z
" id="ArialMT-40"/>
       <path d="M 4.15625 35.296875 
Q 4.15625 48 6.765625 55.734375 
Q 9.375 63.484375 14.515625 67.671875 
Q 19.671875 71.875 27.484375 71.875 
Q 33.25 71.875 37.59375 69.546875 
Q 41.9375 67.234375 44.765625 62.859375 
Q 47.609375 58.5 49.21875 52.21875 
Q 50.828125 45.953125 50.828125 35.296875 
Q 50.828125 22.703125 48.234375 14.96875 
Q 45.65625 7.234375 40.5 3 
Q 35.359375 -1.21875 27.484375 -1.21875 
Q 17.140625 -1.21875 11.234375 6.203125 
Q 4.15625 15.140625 4.15625 35.296875 
z
M 13.1875 35.296875 
Q 13.1875 17.671875 17.3125 11.828125 
Q 21.4375 6 27.484375 6 
Q 33.546875 6 37.671875 11.859375 
Q 41.796875 17.71875 41.796875 35.296875 
Q 41.796875 52.984375 37.671875 58.78125 
Q 33.546875 64.59375 27.390625 64.59375 
Q 21.34375 64.59375 17.71875 59.46875 
Q 13.1875 52.9375 13.1875 35.296875 
z
" id="ArialMT-48"/>
       <path d="M 8.890625 0 
L 8.890625 10.015625 
L 18.890625 10.015625 
L 18.890625 0 
Q 18.890625 -5.515625 16.9375 -8.90625 
Q 14.984375 -12.3125 10.75 -14.15625 
L 8.296875 -10.40625 
Q 11.078125 -9.1875 12.390625 -6.8125 
Q 13.71875 -4.4375 13.875 0 
z
" id="ArialMT-44"/>
       <path id="ArialMT-32"/>
       <path d="M 4.203125 18.890625 
L 12.984375 20.0625 
Q 14.5 12.59375 18.140625 9.296875 
Q 21.78125 6 27 6 
Q 33.203125 6 37.46875 10.296875 
Q 41.75 14.59375 41.75 20.953125 
Q 41.75 27 37.796875 30.921875 
Q 33.84375 34.859375 27.734375 34.859375 
Q 25.25 34.859375 21.53125 33.890625 
L 22.515625 41.609375 
Q 23.390625 41.5 23.921875 41.5 
Q 29.546875 41.5 34.03125 44.421875 
Q 38.53125 47.359375 38.53125 53.46875 
Q 38.53125 58.296875 35.25 61.46875 
Q 31.984375 64.65625 26.8125 64.65625 
Q 21.6875 64.65625 18.265625 61.421875 
Q 14.84375 58.203125 13.875 51.765625 
L 5.078125 53.328125 
Q 6.6875 62.15625 12.390625 67.015625 
Q 18.109375 71.875 26.609375 71.875 
Q 32.46875 71.875 37.390625 69.359375 
Q 42.328125 66.84375 44.9375 62.5 
Q 47.5625 58.15625 47.5625 53.265625 
Q 47.5625 48.640625 45.0625 44.828125 
Q 42.578125 41.015625 37.703125 38.765625 
Q 44.046875 37.3125 47.5625 32.6875 
Q 51.078125 28.078125 51.078125 21.140625 
Q 51.078125 11.765625 44.234375 5.25 
Q 37.40625 -1.265625 26.953125 -1.265625 
Q 17.53125 -1.265625 11.296875 4.34375 
Q 5.078125 9.96875 4.203125 18.890625 
z
" id="ArialMT-51"/>
       <path d="M 21.296875 -19.875 
L 1.90625 -19.875 
L 1.90625 -12.59375 
L 12.5 -12.59375 
L 12.5 64.3125 
L 1.90625 64.3125 
L 1.90625 71.578125 
L 21.296875 71.578125 
z
" id="ArialMT-93"/>
      </defs>
      <g style="fill:#262626;" transform="translate(165.68745 465.043594)scale(0.13 -0.13)">
       <use xlink:href="#ArialMT-40"/>
       <use x="33.300781" xlink:href="#ArialMT-48"/>
       <use x="88.916016" xlink:href="#ArialMT-44"/>
       <use x="116.699219" xlink:href="#ArialMT-32"/>
       <use x="144.482422" xlink:href="#ArialMT-51"/>
       <use x="200.097656" xlink:href="#ArialMT-48"/>
       <use x="255.712891" xlink:href="#ArialMT-93"/>
      </g>
     </g>
    </g>
    <g id="xtick_2">
     <g id="line2d_2"/>
     <g id="text_2">
      <!-- (30, 35] -->
      <defs>
       <path d="M 4.15625 18.75 
L 13.375 19.53125 
Q 14.40625 12.796875 18.140625 9.390625 
Q 21.875 6 27.15625 6 
Q 33.5 6 37.890625 10.78125 
Q 42.28125 15.578125 42.28125 23.484375 
Q 42.28125 31 38.0625 35.34375 
Q 33.84375 39.703125 27 39.703125 
Q 22.75 39.703125 19.328125 37.765625 
Q 15.921875 35.84375 13.96875 32.765625 
L 5.71875 33.84375 
L 12.640625 70.609375 
L 48.25 70.609375 
L 48.25 62.203125 
L 19.671875 62.203125 
L 15.828125 42.96875 
Q 22.265625 47.46875 29.34375 47.46875 
Q 38.71875 47.46875 45.15625 40.96875 
Q 51.609375 34.46875 51.609375 24.265625 
Q 51.609375 14.546875 45.953125 7.46875 
Q 39.0625 -1.21875 27.15625 -1.21875 
Q 17.390625 -1.21875 11.203125 4.25 
Q 5.03125 9.71875 4.15625 18.75 
z
" id="ArialMT-53"/>
      </defs>
      <g style="fill:#262626;" transform="translate(385.272841 465.043594)scale(0.13 -0.13)">
       <use xlink:href="#ArialMT-40"/>
       <use x="33.300781" xlink:href="#ArialMT-51"/>
       <use x="88.916016" xlink:href="#ArialMT-48"/>
       <use x="144.53125" xlink:href="#ArialMT-44"/>
       <use x="172.314453" xlink:href="#ArialMT-32"/>
       <use x="200.097656" xlink:href="#ArialMT-51"/>
       <use x="255.712891" xlink:href="#ArialMT-53"/>
       <use x="311.328125" xlink:href="#ArialMT-93"/>
      </g>
     </g>
    </g>
    <g id="xtick_3">
     <g id="line2d_3"/>
     <g id="text_3">
      <!-- (35, 100] -->
      <defs>
       <path d="M 37.25 0 
L 28.46875 0 
L 28.46875 56 
Q 25.296875 52.984375 20.140625 49.953125 
Q 14.984375 46.921875 10.890625 45.40625 
L 10.890625 53.90625 
Q 18.265625 57.375 23.78125 62.296875 
Q 29.296875 67.234375 31.59375 71.875 
L 37.25 71.875 
z
" id="ArialMT-49"/>
      </defs>
      <g style="fill:#262626;" transform="translate(604.858231 465.043594)scale(0.13 -0.13)">
       <use xlink:href="#ArialMT-40"/>
       <use x="33.300781" xlink:href="#ArialMT-51"/>
       <use x="88.916016" xlink:href="#ArialMT-53"/>
       <use x="144.53125" xlink:href="#ArialMT-44"/>
       <use x="172.314453" xlink:href="#ArialMT-32"/>
       <use x="200.097656" xlink:href="#ArialMT-49"/>
       <use x="255.712891" xlink:href="#ArialMT-48"/>
       <use x="311.328125" xlink:href="#ArialMT-48"/>
       <use x="366.943359" xlink:href="#ArialMT-93"/>
      </g>
     </g>
    </g>
    <g id="text_4">
     <!-- Age Group -->
     <defs>
      <path d="M -0.140625 0 
L 27.34375 71.578125 
L 37.546875 71.578125 
L 66.84375 0 
L 56.0625 0 
L 47.703125 21.6875 
L 17.78125 21.6875 
L 9.90625 0 
z
M 20.515625 29.390625 
L 44.78125 29.390625 
L 37.3125 49.21875 
Q 33.890625 58.25 32.234375 64.0625 
Q 30.859375 57.171875 28.375 50.390625 
z
" id="ArialMT-65"/>
      <path d="M 4.984375 -4.296875 
L 13.53125 -5.5625 
Q 14.0625 -9.515625 16.5 -11.328125 
Q 19.78125 -13.765625 25.4375 -13.765625 
Q 31.546875 -13.765625 34.859375 -11.328125 
Q 38.1875 -8.890625 39.359375 -4.5 
Q 40.046875 -1.8125 39.984375 6.78125 
Q 34.234375 0 25.640625 0 
Q 14.9375 0 9.078125 7.71875 
Q 3.21875 15.4375 3.21875 26.21875 
Q 3.21875 33.640625 5.90625 39.90625 
Q 8.59375 46.1875 13.6875 49.609375 
Q 18.796875 53.03125 25.6875 53.03125 
Q 34.859375 53.03125 40.828125 45.609375 
L 40.828125 51.859375 
L 48.921875 51.859375 
L 48.921875 7.03125 
Q 48.921875 -5.078125 46.453125 -10.125 
Q 44 -15.1875 38.640625 -18.109375 
Q 33.296875 -21.046875 25.484375 -21.046875 
Q 16.21875 -21.046875 10.5 -16.875 
Q 4.78125 -12.703125 4.984375 -4.296875 
z
M 12.25 26.859375 
Q 12.25 16.65625 16.296875 11.96875 
Q 20.359375 7.28125 26.46875 7.28125 
Q 32.515625 7.28125 36.609375 11.9375 
Q 40.71875 16.609375 40.71875 26.5625 
Q 40.71875 36.078125 36.5 40.90625 
Q 32.28125 45.75 26.3125 45.75 
Q 20.453125 45.75 16.34375 40.984375 
Q 12.25 36.234375 12.25 26.859375 
z
" id="ArialMT-103"/>
      <path d="M 42.09375 16.703125 
L 51.171875 15.578125 
Q 49.03125 7.625 43.21875 3.21875 
Q 37.40625 -1.171875 28.375 -1.171875 
Q 17 -1.171875 10.328125 5.828125 
Q 3.65625 12.84375 3.65625 25.484375 
Q 3.65625 38.578125 10.390625 45.796875 
Q 17.140625 53.03125 27.875 53.03125 
Q 38.28125 53.03125 44.875 45.953125 
Q 51.46875 38.875 51.46875 26.03125 
Q 51.46875 25.25 51.421875 23.6875 
L 12.75 23.6875 
Q 13.234375 15.140625 17.578125 10.59375 
Q 21.921875 6.0625 28.421875 6.0625 
Q 33.25 6.0625 36.671875 8.59375 
Q 40.09375 11.140625 42.09375 16.703125 
z
M 13.234375 30.90625 
L 42.1875 30.90625 
Q 41.609375 37.453125 38.875 40.71875 
Q 34.671875 45.796875 27.984375 45.796875 
Q 21.921875 45.796875 17.796875 41.75 
Q 13.671875 37.703125 13.234375 30.90625 
z
" id="ArialMT-101"/>
      <path d="M 41.21875 28.078125 
L 41.21875 36.46875 
L 71.53125 36.53125 
L 71.53125 9.96875 
Q 64.546875 4.390625 57.125 1.578125 
Q 49.703125 -1.21875 41.890625 -1.21875 
Q 31.34375 -1.21875 22.71875 3.296875 
Q 14.109375 7.8125 9.71875 16.359375 
Q 5.328125 24.90625 5.328125 35.453125 
Q 5.328125 45.90625 9.6875 54.953125 
Q 14.0625 64.015625 22.265625 68.40625 
Q 30.46875 72.796875 41.15625 72.796875 
Q 48.921875 72.796875 55.1875 70.28125 
Q 61.46875 67.78125 65.03125 63.28125 
Q 68.609375 58.796875 70.453125 51.5625 
L 61.921875 49.21875 
Q 60.296875 54.6875 57.90625 57.8125 
Q 55.515625 60.9375 51.0625 62.8125 
Q 46.625 64.703125 41.21875 64.703125 
Q 34.71875 64.703125 29.984375 62.71875 
Q 25.25 60.75 22.34375 57.515625 
Q 19.4375 54.296875 17.828125 50.4375 
Q 15.09375 43.796875 15.09375 36.03125 
Q 15.09375 26.46875 18.390625 20.015625 
Q 21.6875 13.578125 27.984375 10.453125 
Q 34.28125 7.328125 41.359375 7.328125 
Q 47.515625 7.328125 53.375 9.6875 
Q 59.234375 12.0625 62.25 14.75 
L 62.25 28.078125 
z
" id="ArialMT-71"/>
      <path d="M 6.5 0 
L 6.5 51.859375 
L 14.40625 51.859375 
L 14.40625 44 
Q 17.4375 49.515625 20 51.265625 
Q 22.5625 53.03125 25.640625 53.03125 
Q 30.078125 53.03125 34.671875 50.203125 
L 31.640625 42.046875 
Q 28.421875 43.953125 25.203125 43.953125 
Q 22.3125 43.953125 20.015625 42.21875 
Q 17.71875 40.484375 16.75 37.40625 
Q 15.28125 32.71875 15.28125 27.15625 
L 15.28125 0 
z
" id="ArialMT-114"/>
      <path d="M 3.328125 25.921875 
Q 3.328125 40.328125 11.328125 47.265625 
Q 18.015625 53.03125 27.640625 53.03125 
Q 38.328125 53.03125 45.109375 46.015625 
Q 51.90625 39.015625 51.90625 26.65625 
Q 51.90625 16.65625 48.90625 10.90625 
Q 45.90625 5.171875 40.15625 2 
Q 34.421875 -1.171875 27.640625 -1.171875 
Q 16.75 -1.171875 10.03125 5.8125 
Q 3.328125 12.796875 3.328125 25.921875 
z
M 12.359375 25.921875 
Q 12.359375 15.96875 16.703125 11.015625 
Q 21.046875 6.0625 27.640625 6.0625 
Q 34.1875 6.0625 38.53125 11.03125 
Q 42.875 16.015625 42.875 26.21875 
Q 42.875 35.84375 38.5 40.796875 
Q 34.125 45.75 27.640625 45.75 
Q 21.046875 45.75 16.703125 40.8125 
Q 12.359375 35.890625 12.359375 25.921875 
z
" id="ArialMT-111"/>
      <path d="M 40.578125 0 
L 40.578125 7.625 
Q 34.515625 -1.171875 24.125 -1.171875 
Q 19.53125 -1.171875 15.546875 0.578125 
Q 11.578125 2.34375 9.640625 5 
Q 7.71875 7.671875 6.9375 11.53125 
Q 6.390625 14.109375 6.390625 19.734375 
L 6.390625 51.859375 
L 15.1875 51.859375 
L 15.1875 23.09375 
Q 15.1875 16.21875 15.71875 13.8125 
Q 16.546875 10.359375 19.234375 8.375 
Q 21.921875 6.390625 25.875 6.390625 
Q 29.828125 6.390625 33.296875 8.421875 
Q 36.765625 10.453125 38.203125 13.9375 
Q 39.65625 17.4375 39.65625 24.078125 
L 39.65625 51.859375 
L 48.4375 51.859375 
L 48.4375 0 
z
" id="ArialMT-117"/>
      <path d="M 6.59375 -19.875 
L 6.59375 51.859375 
L 14.59375 51.859375 
L 14.59375 45.125 
Q 17.4375 49.078125 21 51.046875 
Q 24.5625 53.03125 29.640625 53.03125 
Q 36.28125 53.03125 41.359375 49.609375 
Q 46.4375 46.1875 49.015625 39.953125 
Q 51.609375 33.734375 51.609375 26.3125 
Q 51.609375 18.359375 48.75 11.984375 
Q 45.90625 5.609375 40.453125 2.21875 
Q 35.015625 -1.171875 29 -1.171875 
Q 24.609375 -1.171875 21.109375 0.6875 
Q 17.625 2.546875 15.375 5.375 
L 15.375 -19.875 
z
M 14.546875 25.640625 
Q 14.546875 15.625 18.59375 10.84375 
Q 22.65625 6.0625 28.421875 6.0625 
Q 34.28125 6.0625 38.453125 11.015625 
Q 42.625 15.96875 42.625 26.375 
Q 42.625 36.28125 38.546875 41.203125 
Q 34.46875 46.140625 28.8125 46.140625 
Q 23.1875 46.140625 18.859375 40.890625 
Q 14.546875 35.640625 14.546875 25.640625 
z
" id="ArialMT-112"/>
     </defs>
     <g style="fill:#262626;" transform="translate(365.529069 484.358987)scale(0.1728 -0.1728)">
      <use xlink:href="#ArialMT-65"/>
      <use x="66.699219" xlink:href="#ArialMT-103"/>
      <use x="122.314453" xlink:href="#ArialMT-101"/>
      <use x="177.929688" xlink:href="#ArialMT-32"/>
      <use x="205.712891" xlink:href="#ArialMT-71"/>
      <use x="283.496094" xlink:href="#ArialMT-114"/>
      <use x="316.796875" xlink:href="#ArialMT-111"/>
      <use x="372.412109" xlink:href="#ArialMT-117"/>
      <use x="428.027344" xlink:href="#ArialMT-112"/>
     </g>
    </g>
   </g>
   <g id="matplotlib.axis_2">
    <g id="ytick_1">
     <g id="line2d_4"/>
     <g id="text_5">
      <!-- 100 k -->
      <defs>
       <path d="M 6.640625 0 
L 6.640625 71.578125 
L 15.4375 71.578125 
L 15.4375 30.765625 
L 36.234375 51.859375 
L 47.609375 51.859375 
L 27.78125 32.625 
L 49.609375 0 
L 38.765625 0 
L 21.625 26.515625 
L 15.4375 20.5625 
L 15.4375 0 
z
" id="ArialMT-107"/>
      </defs>
      <g style="fill:#262626;" transform="translate(27.2137 426.96528)scale(0.13 -0.13)">
       <use xlink:href="#ArialMT-49"/>
       <use x="55.615234" xlink:href="#ArialMT-48"/>
       <use x="111.230469" xlink:href="#ArialMT-48"/>
       <use x="166.845703" xlink:href="#ArialMT-32"/>
       <use x="194.628906" xlink:href="#ArialMT-107"/>
      </g>
     </g>
    </g>
    <g id="ytick_2">
     <g id="line2d_5"/>
     <g id="text_6">
      <!-- 150 k -->
      <g style="fill:#262626;" transform="translate(27.2137 336.195424)scale(0.13 -0.13)">
       <use xlink:href="#ArialMT-49"/>
       <use x="55.615234" xlink:href="#ArialMT-53"/>
       <use x="111.230469" xlink:href="#ArialMT-48"/>
       <use x="166.845703" xlink:href="#ArialMT-32"/>
       <use x="194.628906" xlink:href="#ArialMT-107"/>
      </g>
     </g>
    </g>
    <g id="ytick_3">
     <g id="line2d_6"/>
     <g id="text_7">
      <!-- 200 k -->
      <defs>
       <path d="M 50.34375 8.453125 
L 50.34375 0 
L 3.03125 0 
Q 2.9375 3.171875 4.046875 6.109375 
Q 5.859375 10.9375 9.828125 15.625 
Q 13.8125 20.3125 21.34375 26.46875 
Q 33.015625 36.03125 37.109375 41.625 
Q 41.21875 47.21875 41.21875 52.203125 
Q 41.21875 57.421875 37.46875 61 
Q 33.734375 64.59375 27.734375 64.59375 
Q 21.390625 64.59375 17.578125 60.78125 
Q 13.765625 56.984375 13.71875 50.25 
L 4.6875 51.171875 
Q 5.609375 61.28125 11.65625 66.578125 
Q 17.71875 71.875 27.9375 71.875 
Q 38.234375 71.875 44.234375 66.15625 
Q 50.25 60.453125 50.25 52 
Q 50.25 47.703125 48.484375 43.546875 
Q 46.734375 39.40625 42.65625 34.8125 
Q 38.578125 30.21875 29.109375 22.21875 
Q 21.1875 15.578125 18.9375 13.203125 
Q 16.703125 10.84375 15.234375 8.453125 
z
" id="ArialMT-50"/>
      </defs>
      <g style="fill:#262626;" transform="translate(27.2137 245.425568)scale(0.13 -0.13)">
       <use xlink:href="#ArialMT-50"/>
       <use x="55.615234" xlink:href="#ArialMT-48"/>
       <use x="111.230469" xlink:href="#ArialMT-48"/>
       <use x="166.845703" xlink:href="#ArialMT-32"/>
       <use x="194.628906" xlink:href="#ArialMT-107"/>
      </g>
     </g>
    </g>
    <g id="ytick_4">
     <g id="line2d_7"/>
     <g id="text_8">
      <!-- 250 k -->
      <g style="fill:#262626;" transform="translate(27.2137 154.655712)scale(0.13 -0.13)">
       <use xlink:href="#ArialMT-50"/>
       <use x="55.615234" xlink:href="#ArialMT-53"/>
       <use x="111.230469" xlink:href="#ArialMT-48"/>
       <use x="166.845703" xlink:href="#ArialMT-32"/>
       <use x="194.628906" xlink:href="#ArialMT-107"/>
      </g>
     </g>
    </g>
    <g id="ytick_5">
     <g id="line2d_8"/>
     <g id="text_9">
      <!-- 300 k -->
      <g style="fill:#262626;" transform="translate(27.2137 63.885855)scale(0.13 -0.13)">
       <use xlink:href="#ArialMT-51"/>
       <use x="55.615234" xlink:href="#ArialMT-48"/>
       <use x="111.230469" xlink:href="#ArialMT-48"/>
       <use x="166.845703" xlink:href="#ArialMT-32"/>
       <use x="194.628906" xlink:href="#ArialMT-107"/>
      </g>
     </g>
    </g>
    <g id="text_10">
     <!-- Total Compensation -->
     <defs>
      <path d="M 25.921875 0 
L 25.921875 63.140625 
L 2.34375 63.140625 
L 2.34375 71.578125 
L 59.078125 71.578125 
L 59.078125 63.140625 
L 35.40625 63.140625 
L 35.40625 0 
z
" id="ArialMT-84"/>
      <path d="M 25.78125 7.859375 
L 27.046875 0.09375 
Q 23.34375 -0.6875 20.40625 -0.6875 
Q 15.625 -0.6875 12.984375 0.828125 
Q 10.359375 2.34375 9.28125 4.8125 
Q 8.203125 7.28125 8.203125 15.1875 
L 8.203125 45.015625 
L 1.765625 45.015625 
L 1.765625 51.859375 
L 8.203125 51.859375 
L 8.203125 64.703125 
L 16.9375 69.96875 
L 16.9375 51.859375 
L 25.78125 51.859375 
L 25.78125 45.015625 
L 16.9375 45.015625 
L 16.9375 14.703125 
Q 16.9375 10.9375 17.40625 9.859375 
Q 17.875 8.796875 18.921875 8.15625 
Q 19.96875 7.515625 21.921875 7.515625 
Q 23.390625 7.515625 25.78125 7.859375 
z
" id="ArialMT-116"/>
      <path d="M 40.4375 6.390625 
Q 35.546875 2.25 31.03125 0.53125 
Q 26.515625 -1.171875 21.34375 -1.171875 
Q 12.796875 -1.171875 8.203125 3 
Q 3.609375 7.171875 3.609375 13.671875 
Q 3.609375 17.484375 5.34375 20.625 
Q 7.078125 23.78125 9.890625 25.6875 
Q 12.703125 27.59375 16.21875 28.5625 
Q 18.796875 29.25 24.03125 29.890625 
Q 34.671875 31.15625 39.703125 32.90625 
Q 39.75 34.71875 39.75 35.203125 
Q 39.75 40.578125 37.25 42.78125 
Q 33.890625 45.75 27.25 45.75 
Q 21.046875 45.75 18.09375 43.578125 
Q 15.140625 41.40625 13.71875 35.890625 
L 5.125 37.0625 
Q 6.296875 42.578125 8.984375 45.96875 
Q 11.671875 49.359375 16.75 51.1875 
Q 21.828125 53.03125 28.515625 53.03125 
Q 35.15625 53.03125 39.296875 51.46875 
Q 43.453125 49.90625 45.40625 47.53125 
Q 47.359375 45.171875 48.140625 41.546875 
Q 48.578125 39.3125 48.578125 33.453125 
L 48.578125 21.734375 
Q 48.578125 9.46875 49.140625 6.21875 
Q 49.703125 2.984375 51.375 0 
L 42.1875 0 
Q 40.828125 2.734375 40.4375 6.390625 
z
M 39.703125 26.03125 
Q 34.90625 24.078125 25.34375 22.703125 
Q 19.921875 21.921875 17.671875 20.9375 
Q 15.4375 19.96875 14.203125 18.09375 
Q 12.984375 16.21875 12.984375 13.921875 
Q 12.984375 10.40625 15.640625 8.0625 
Q 18.3125 5.71875 23.4375 5.71875 
Q 28.515625 5.71875 32.46875 7.9375 
Q 36.421875 10.15625 38.28125 14.015625 
Q 39.703125 17 39.703125 22.796875 
z
" id="ArialMT-97"/>
      <path d="M 6.390625 0 
L 6.390625 71.578125 
L 15.1875 71.578125 
L 15.1875 0 
z
" id="ArialMT-108"/>
      <path d="M 58.796875 25.09375 
L 68.265625 22.703125 
Q 65.28125 11.03125 57.546875 4.90625 
Q 49.8125 -1.21875 38.625 -1.21875 
Q 27.046875 -1.21875 19.796875 3.484375 
Q 12.546875 8.203125 8.765625 17.140625 
Q 4.984375 26.078125 4.984375 36.328125 
Q 4.984375 47.515625 9.25 55.828125 
Q 13.53125 64.15625 21.40625 68.46875 
Q 29.296875 72.796875 38.765625 72.796875 
Q 49.515625 72.796875 56.828125 67.328125 
Q 64.15625 61.859375 67.046875 51.953125 
L 57.71875 49.75 
Q 55.21875 57.5625 50.484375 61.125 
Q 45.75 64.703125 38.578125 64.703125 
Q 30.328125 64.703125 24.78125 60.734375 
Q 19.234375 56.78125 16.984375 50.109375 
Q 14.75 43.453125 14.75 36.375 
Q 14.75 27.25 17.40625 20.4375 
Q 20.0625 13.625 25.671875 10.25 
Q 31.296875 6.890625 37.84375 6.890625 
Q 45.796875 6.890625 51.3125 11.46875 
Q 56.84375 16.0625 58.796875 25.09375 
z
" id="ArialMT-67"/>
      <path d="M 6.59375 0 
L 6.59375 51.859375 
L 14.453125 51.859375 
L 14.453125 44.578125 
Q 16.890625 48.390625 20.9375 50.703125 
Q 25 53.03125 30.171875 53.03125 
Q 35.9375 53.03125 39.625 50.640625 
Q 43.3125 48.25 44.828125 43.953125 
Q 50.984375 53.03125 60.84375 53.03125 
Q 68.5625 53.03125 72.703125 48.75 
Q 76.859375 44.484375 76.859375 35.59375 
L 76.859375 0 
L 68.109375 0 
L 68.109375 32.671875 
Q 68.109375 37.9375 67.25 40.25 
Q 66.40625 42.578125 64.15625 43.984375 
Q 61.921875 45.40625 58.890625 45.40625 
Q 53.421875 45.40625 49.796875 41.765625 
Q 46.1875 38.140625 46.1875 30.125 
L 46.1875 0 
L 37.40625 0 
L 37.40625 33.6875 
Q 37.40625 39.546875 35.25 42.46875 
Q 33.109375 45.40625 28.21875 45.40625 
Q 24.515625 45.40625 21.359375 43.453125 
Q 18.21875 41.5 16.796875 37.734375 
Q 15.375 33.984375 15.375 26.90625 
L 15.375 0 
z
" id="ArialMT-109"/>
      <path d="M 6.59375 0 
L 6.59375 51.859375 
L 14.5 51.859375 
L 14.5 44.484375 
Q 20.21875 53.03125 31 53.03125 
Q 35.6875 53.03125 39.625 51.34375 
Q 43.5625 49.65625 45.515625 46.921875 
Q 47.46875 44.1875 48.25 40.4375 
Q 48.734375 37.984375 48.734375 31.890625 
L 48.734375 0 
L 39.9375 0 
L 39.9375 31.546875 
Q 39.9375 36.921875 38.90625 39.578125 
Q 37.890625 42.234375 35.28125 43.8125 
Q 32.671875 45.40625 29.15625 45.40625 
Q 23.53125 45.40625 19.453125 41.84375 
Q 15.375 38.28125 15.375 28.328125 
L 15.375 0 
z
" id="ArialMT-110"/>
      <path d="M 3.078125 15.484375 
L 11.765625 16.84375 
Q 12.5 11.625 15.84375 8.84375 
Q 19.1875 6.0625 25.203125 6.0625 
Q 31.25 6.0625 34.171875 8.515625 
Q 37.109375 10.984375 37.109375 14.3125 
Q 37.109375 17.28125 34.515625 19 
Q 32.71875 20.171875 25.53125 21.96875 
Q 15.875 24.421875 12.140625 26.203125 
Q 8.40625 27.984375 6.46875 31.125 
Q 4.546875 34.28125 4.546875 38.09375 
Q 4.546875 41.546875 6.125 44.5 
Q 7.71875 47.46875 10.453125 49.421875 
Q 12.5 50.921875 16.03125 51.96875 
Q 19.578125 53.03125 23.640625 53.03125 
Q 29.734375 53.03125 34.34375 51.265625 
Q 38.96875 49.515625 41.15625 46.5 
Q 43.359375 43.5 44.1875 38.484375 
L 35.59375 37.3125 
Q 35.015625 41.3125 32.203125 43.546875 
Q 29.390625 45.796875 24.265625 45.796875 
Q 18.21875 45.796875 15.625 43.796875 
Q 13.03125 41.796875 13.03125 39.109375 
Q 13.03125 37.40625 14.109375 36.03125 
Q 15.1875 34.625 17.484375 33.6875 
Q 18.796875 33.203125 25.25 31.453125 
Q 34.578125 28.953125 38.25 27.359375 
Q 41.9375 25.78125 44.03125 22.75 
Q 46.140625 19.734375 46.140625 15.234375 
Q 46.140625 10.84375 43.578125 6.953125 
Q 41.015625 3.078125 36.171875 0.953125 
Q 31.34375 -1.171875 25.25 -1.171875 
Q 15.140625 -1.171875 9.84375 3.03125 
Q 4.546875 7.234375 3.078125 15.484375 
z
" id="ArialMT-115"/>
      <path d="M 6.640625 61.46875 
L 6.640625 71.578125 
L 15.4375 71.578125 
L 15.4375 61.46875 
z
M 6.640625 0 
L 6.640625 51.859375 
L 15.4375 51.859375 
L 15.4375 0 
z
" id="ArialMT-105"/>
     </defs>
     <g style="fill:#262626;" transform="translate(19.7793 301.941)rotate(-90)scale(0.1728 -0.1728)">
      <use xlink:href="#ArialMT-84"/>
      <use x="60.912109" xlink:href="#ArialMT-111"/>
      <use x="116.527344" xlink:href="#ArialMT-116"/>
      <use x="144.310547" xlink:href="#ArialMT-97"/>
      <use x="199.925781" xlink:href="#ArialMT-108"/>
      <use x="222.142578" xlink:href="#ArialMT-32"/>
      <use x="249.925781" xlink:href="#ArialMT-67"/>
      <use x="322.142578" xlink:href="#ArialMT-111"/>
      <use x="377.757812" xlink:href="#ArialMT-109"/>
      <use x="461.058594" xlink:href="#ArialMT-112"/>
      <use x="516.673828" xlink:href="#ArialMT-101"/>
      <use x="572.289062" xlink:href="#ArialMT-110"/>
      <use x="627.904297" xlink:href="#ArialMT-115"/>
      <use x="677.904297" xlink:href="#ArialMT-97"/>
      <use x="733.519531" xlink:href="#ArialMT-116"/>
      <use x="761.302734" xlink:href="#ArialMT-105"/>
      <use x="783.519531" xlink:href="#ArialMT-111"/>
      <use x="839.134766" xlink:href="#ArialMT-110"/>
     </g>
    </g>
   </g>
   <g id="PathCollection_1"/>
   <g id="PathCollection_2"/>
   <g id="patch_3">
    <path d="M 62.512919 422.312702 
L 62.512919 59.233277 
" style="fill:none;stroke:#262626;stroke-linecap:square;stroke-linejoin:miter;stroke-width:1.25;"/>
   </g>
   <g id="patch_4">
    <path d="M 184.112919 452.08 
L 630.512919 452.08 
" style="fill:none;stroke:#262626;stroke-linecap:square;stroke-linejoin:miter;stroke-width:1.25;"/>
   </g>
   <g id="PathCollection_3">
    <defs>
     <path d="M 0 6 
C 1.591219 6 3.117479 5.367802 4.242641 4.242641 
C 5.367802 3.117479 6 1.591219 6 0 
C 6 -1.591219 5.367802 -3.117479 4.242641 -4.242641 
C 3.117479 -5.367802 1.591219 -6 0 -6 
C -1.591219 -6 -3.117479 -5.367802 -4.242641 -4.242641 
C -5.367802 -3.117479 -6 -1.591219 -6 0 
C -6 1.591219 -5.367802 3.117479 -4.242641 4.242641 
C -3.117479 5.367802 -1.591219 6 0 6 
z
" id="C0_0_fa44bdffd3"/>
    </defs>
    <g clip-path="url(#pcee24f2c18)">
     <use style="fill:#1f77b4;stroke:#3f3f3f;stroke-width:2;" x="139.472919" xlink:href="#C0_0_fa44bdffd3" y="422.312702"/>
    </g>
    <g clip-path="url(#pcee24f2c18)">
     <use style="fill:#1f77b4;stroke:#3f3f3f;stroke-width:2;" x="139.472919" xlink:href="#C0_0_fa44bdffd3" y="386.00476"/>
    </g>
    <g clip-path="url(#pcee24f2c18)">
     <use style="fill:#1f77b4;stroke:#3f3f3f;stroke-width:2;" x="126.904926" xlink:href="#C0_0_fa44bdffd3" y="378.743171"/>
    </g>
    <g clip-path="url(#pcee24f2c18)">
     <use style="fill:#1f77b4;stroke:#3f3f3f;stroke-width:2;" x="150.664576" xlink:href="#C0_0_fa44bdffd3" y="376.927774"/>
    </g>
    <g clip-path="url(#pcee24f2c18)">
     <use style="fill:#1f77b4;stroke:#3f3f3f;stroke-width:2;" x="165.364576" xlink:href="#C0_0_fa44bdffd3" y="376.927774"/>
    </g>
    <g clip-path="url(#pcee24f2c18)">
     <use style="fill:#1f77b4;stroke:#3f3f3f;stroke-width:2;" x="139.472919" xlink:href="#C0_0_fa44bdffd3" y="367.850788"/>
    </g>
    <g clip-path="url(#pcee24f2c18)">
     <use style="fill:#1f77b4;stroke:#3f3f3f;stroke-width:2;" x="117.669939" xlink:href="#C0_0_fa44bdffd3" y="367.850788"/>
    </g>
    <g clip-path="url(#pcee24f2c18)">
     <use style="fill:#1f77b4;stroke:#3f3f3f;stroke-width:2;" x="139.472919" xlink:href="#C0_0_fa44bdffd3" y="351.512214"/>
    </g>
    <g clip-path="url(#pcee24f2c18)">
     <use style="fill:#1f77b4;stroke:#3f3f3f;stroke-width:2;" x="124.780645" xlink:href="#C0_0_fa44bdffd3" y="351.058365"/>
    </g>
    <g clip-path="url(#pcee24f2c18)">
     <use style="fill:#1f77b4;stroke:#3f3f3f;stroke-width:2;" x="154.048807" xlink:href="#C0_0_fa44bdffd3" y="349.696817"/>
    </g>
    <g clip-path="url(#pcee24f2c18)">
     <use style="fill:#1f77b4;stroke:#3f3f3f;stroke-width:2;" x="114.984814" xlink:href="#C0_0_fa44bdffd3" y="340.619832"/>
    </g>
    <g clip-path="url(#pcee24f2c18)">
     <use style="fill:#1f77b4;stroke:#3f3f3f;stroke-width:2;" x="133.304463" xlink:href="#C0_0_fa44bdffd3" y="338.804435"/>
    </g>
    <g clip-path="url(#pcee24f2c18)">
     <use style="fill:#1f77b4;stroke:#3f3f3f;stroke-width:2;" x="139.472919" xlink:href="#C0_0_fa44bdffd3" y="317.019669"/>
    </g>
    <g clip-path="url(#pcee24f2c18)">
     <use style="fill:#1f77b4;stroke:#3f3f3f;stroke-width:2;" x="134.733483" xlink:href="#C0_0_fa44bdffd3" y="303.76727"/>
    </g>
    <g clip-path="url(#pcee24f2c18)">
     <use style="fill:#1f77b4;stroke:#3f3f3f;stroke-width:2;" x="146.38795" xlink:href="#C0_0_fa44bdffd3" y="295.234904"/>
    </g>
    <g clip-path="url(#pcee24f2c18)">
     <use style="fill:#1f77b4;stroke:#3f3f3f;stroke-width:2;" x="139.472919" xlink:href="#C0_0_fa44bdffd3" y="258.926961"/>
    </g>
    <g clip-path="url(#pcee24f2c18)">
     <use style="fill:#1f77b4;stroke:#3f3f3f;stroke-width:2;" x="139.472919" xlink:href="#C0_0_fa44bdffd3" y="131.849162"/>
    </g>
    <g clip-path="url(#pcee24f2c18)">
     <use style="fill:#1f77b4;stroke:#3f3f3f;stroke-width:2;" x="139.472919" xlink:href="#C0_0_fa44bdffd3" y="90.548878"/>
    </g>
   </g>
   <g id="PathCollection_4">
    <defs>
     <path d="M 0 6 
C 1.591219 6 3.117479 5.367802 4.242641 4.242641 
C 5.367802 3.117479 6 1.591219 6 0 
C 6 -1.591219 5.367802 -3.117479 4.242641 -4.242641 
C 3.117479 -5.367802 1.591219 -6 0 -6 
C -1.591219 -6 -3.117479 -5.367802 -4.242641 -4.242641 
C -5.367802 -3.117479 -6 -1.591219 -6 0 
C -6 1.591219 -5.367802 3.117479 -4.242641 4.242641 
C -3.117479 5.367802 -1.591219 6 0 6 
z
" id="C1_0_bb68dce466"/>
    </defs>
    <g clip-path="url(#pcee24f2c18)">
     <use style="fill:#ff7f0e;stroke:#3f3f3f;stroke-width:2;" x="228.752919" xlink:href="#C1_0_bb68dce466" y="365.581542"/>
    </g>
    <g clip-path="url(#pcee24f2c18)">
     <use style="fill:#ff7f0e;stroke:#3f3f3f;stroke-width:2;" x="228.752919" xlink:href="#C1_0_bb68dce466" y="351.512214"/>
    </g>
    <g clip-path="url(#pcee24f2c18)">
     <use style="fill:#ff7f0e;stroke:#3f3f3f;stroke-width:2;" x="228.752919" xlink:href="#C1_0_bb68dce466" y="322.46586"/>
    </g>
    <g clip-path="url(#pcee24f2c18)">
     <use style="fill:#ff7f0e;stroke:#3f3f3f;stroke-width:2;" x="214.052919" xlink:href="#C1_0_bb68dce466" y="322.46586"/>
    </g>
    <g clip-path="url(#pcee24f2c18)">
     <use style="fill:#ff7f0e;stroke:#3f3f3f;stroke-width:2;" x="228.752919" xlink:href="#C1_0_bb68dce466" y="304.311889"/>
    </g>
   </g>
   <g id="PathCollection_5">
    <defs>
     <path d="M 0 6 
C 1.591219 6 3.117479 5.367802 4.242641 4.242641 
C 5.367802 3.117479 6 1.591219 6 0 
C 6 -1.591219 5.367802 -3.117479 4.242641 -4.242641 
C 3.117479 -5.367802 1.591219 -6 0 -6 
C -1.591219 -6 -3.117479 -5.367802 -4.242641 -4.242641 
C -5.367802 -3.117479 -6 -1.591219 -6 0 
C -6 1.591219 -5.367802 3.117479 -4.242641 4.242641 
C -3.117479 5.367802 -1.591219 6 0 6 
z
" id="C2_0_62e1d56509"/>
    </defs>
    <g clip-path="url(#pcee24f2c18)">
     <use style="fill:#1f77b4;stroke:#3f3f3f;stroke-width:2;" x="362.672919" xlink:href="#C2_0_62e1d56509" y="400.527937"/>
    </g>
    <g clip-path="url(#pcee24f2c18)">
     <use style="fill:#1f77b4;stroke:#3f3f3f;stroke-width:2;" x="351.481262" xlink:href="#C2_0_62e1d56509" y="391.450951"/>
    </g>
    <g clip-path="url(#pcee24f2c18)">
     <use style="fill:#1f77b4;stroke:#3f3f3f;stroke-width:2;" x="364.049254" xlink:href="#C2_0_62e1d56509" y="384.189363"/>
    </g>
    <g clip-path="url(#pcee24f2c18)">
     <use style="fill:#1f77b4;stroke:#3f3f3f;stroke-width:2;" x="378.718325" xlink:href="#C2_0_62e1d56509" y="383.281664"/>
    </g>
    <g clip-path="url(#pcee24f2c18)">
     <use style="fill:#1f77b4;stroke:#3f3f3f;stroke-width:2;" x="345.312806" xlink:href="#C2_0_62e1d56509" y="378.743171"/>
    </g>
    <g clip-path="url(#pcee24f2c18)">
     <use style="fill:#1f77b4;stroke:#3f3f3f;stroke-width:2;" x="357.880799" xlink:href="#C2_0_62e1d56509" y="371.481583"/>
    </g>
    <g clip-path="url(#pcee24f2c18)">
     <use style="fill:#1f77b4;stroke:#3f3f3f;stroke-width:2;" x="372.077845" xlink:href="#C2_0_62e1d56509" y="367.850788"/>
    </g>
    <g clip-path="url(#pcee24f2c18)">
     <use style="fill:#1f77b4;stroke:#3f3f3f;stroke-width:2;" x="362.176406" xlink:href="#C2_0_62e1d56509" y="357.503025"/>
    </g>
    <g clip-path="url(#pcee24f2c18)">
     <use style="fill:#1f77b4;stroke:#3f3f3f;stroke-width:2;" x="347.476406" xlink:href="#C2_0_62e1d56509" y="357.503025"/>
    </g>
    <g clip-path="url(#pcee24f2c18)">
     <use style="fill:#1f77b4;stroke:#3f3f3f;stroke-width:2;" x="374.379156" xlink:href="#C2_0_62e1d56509" y="349.696817"/>
    </g>
    <g clip-path="url(#pcee24f2c18)">
     <use style="fill:#1f77b4;stroke:#3f3f3f;stroke-width:2;" x="362.672919" xlink:href="#C2_0_62e1d56509" y="335.17364"/>
    </g>
    <g clip-path="url(#pcee24f2c18)">
     <use style="fill:#1f77b4;stroke:#3f3f3f;stroke-width:2;" x="347.972919" xlink:href="#C2_0_62e1d56509" y="335.17364"/>
    </g>
    <g clip-path="url(#pcee24f2c18)">
     <use style="fill:#1f77b4;stroke:#3f3f3f;stroke-width:2;" x="362.672919" xlink:href="#C2_0_62e1d56509" y="273.450138"/>
    </g>
    <g clip-path="url(#pcee24f2c18)">
     <use style="fill:#1f77b4;stroke:#3f3f3f;stroke-width:2;" x="348.475873" xlink:href="#C2_0_62e1d56509" y="269.819344"/>
    </g>
    <g clip-path="url(#pcee24f2c18)">
     <use style="fill:#1f77b4;stroke:#3f3f3f;stroke-width:2;" x="362.672919" xlink:href="#C2_0_62e1d56509" y="210.365088"/>
    </g>
    <g clip-path="url(#pcee24f2c18)">
     <use style="fill:#1f77b4;stroke:#3f3f3f;stroke-width:2;" x="347.972919" xlink:href="#C2_0_62e1d56509" y="210.365088"/>
    </g>
    <g clip-path="url(#pcee24f2c18)">
     <use style="fill:#1f77b4;stroke:#3f3f3f;stroke-width:2;" x="362.672919" xlink:href="#C2_0_62e1d56509" y="177.23409"/>
    </g>
    <g clip-path="url(#pcee24f2c18)">
     <use style="fill:#1f77b4;stroke:#3f3f3f;stroke-width:2;" x="347.972919" xlink:href="#C2_0_62e1d56509" y="177.23409"/>
    </g>
    <g clip-path="url(#pcee24f2c18)">
     <use style="fill:#1f77b4;stroke:#3f3f3f;stroke-width:2;" x="362.672919" xlink:href="#C2_0_62e1d56509" y="124.587574"/>
    </g>
    <g clip-path="url(#pcee24f2c18)">
     <use style="fill:#1f77b4;stroke:#3f3f3f;stroke-width:2;" x="362.672919" xlink:href="#C2_0_62e1d56509" y="99.172014"/>
    </g>
    <g clip-path="url(#pcee24f2c18)">
     <use style="fill:#1f77b4;stroke:#3f3f3f;stroke-width:2;" x="362.672919" xlink:href="#C2_0_62e1d56509" y="32.00232"/>
    </g>
   </g>
   <g id="PathCollection_6">
    <defs>
     <path d="M 0 6 
C 1.591219 6 3.117479 5.367802 4.242641 4.242641 
C 5.367802 3.117479 6 1.591219 6 0 
C 6 -1.591219 5.367802 -3.117479 4.242641 -4.242641 
C 3.117479 -5.367802 1.591219 -6 0 -6 
C -1.591219 -6 -3.117479 -5.367802 -4.242641 -4.242641 
C -5.367802 -3.117479 -6 -1.591219 -6 0 
C -6 1.591219 -5.367802 3.117479 -4.242641 4.242641 
C -3.117479 5.367802 -1.591219 6 0 6 
z
" id="C3_0_1e6a9848bb"/>
    </defs>
    <g clip-path="url(#pcee24f2c18)">
     <use style="fill:#ff7f0e;stroke:#3f3f3f;stroke-width:2;" x="451.952919" xlink:href="#C3_0_1e6a9848bb" y="386.00476"/>
    </g>
    <g clip-path="url(#pcee24f2c18)">
     <use style="fill:#ff7f0e;stroke:#3f3f3f;stroke-width:2;" x="440.761262" xlink:href="#C3_0_1e6a9848bb" y="376.927774"/>
    </g>
    <g clip-path="url(#pcee24f2c18)">
     <use style="fill:#ff7f0e;stroke:#3f3f3f;stroke-width:2;" x="461.187906" xlink:href="#C3_0_1e6a9848bb" y="375.112377"/>
    </g>
    <g clip-path="url(#pcee24f2c18)">
     <use style="fill:#ff7f0e;stroke:#3f3f3f;stroke-width:2;" x="451.952919" xlink:href="#C3_0_1e6a9848bb" y="349.696817"/>
    </g>
    <g clip-path="url(#pcee24f2c18)">
     <use style="fill:#ff7f0e;stroke:#3f3f3f;stroke-width:2;" x="451.952919" xlink:href="#C3_0_1e6a9848bb" y="263.465454"/>
    </g>
    <g clip-path="url(#pcee24f2c18)">
     <use style="fill:#ff7f0e;stroke:#3f3f3f;stroke-width:2;" x="451.952919" xlink:href="#C3_0_1e6a9848bb" y="246.219181"/>
    </g>
    <g clip-path="url(#pcee24f2c18)">
     <use style="fill:#ff7f0e;stroke:#3f3f3f;stroke-width:2;" x="442.717932" xlink:href="#C3_0_1e6a9848bb" y="235.326798"/>
    </g>
    <g clip-path="url(#pcee24f2c18)">
     <use style="fill:#ff7f0e;stroke:#3f3f3f;stroke-width:2;" x="451.952919" xlink:href="#C3_0_1e6a9848bb" y="59.233277"/>
    </g>
   </g>
   <g id="PathCollection_7">
    <defs>
     <path d="M 0 6 
C 1.591219 6 3.117479 5.367802 4.242641 4.242641 
C 5.367802 3.117479 6 1.591219 6 0 
C 6 -1.591219 5.367802 -3.117479 4.242641 -4.242641 
C 3.117479 -5.367802 1.591219 -6 0 -6 
C -1.591219 -6 -3.117479 -5.367802 -4.242641 -4.242641 
C -5.367802 -3.117479 -6 -1.591219 -6 0 
C -6 1.591219 -5.367802 3.117479 -4.242641 4.242641 
C -3.117479 5.367802 -1.591219 6 0 6 
z
" id="C4_0_3e30229a5b"/>
    </defs>
    <g clip-path="url(#pcee24f2c18)">
     <use style="fill:#1f77b4;stroke:#3f3f3f;stroke-width:2;" x="585.872919" xlink:href="#C4_0_3e30229a5b" y="404.158731"/>
    </g>
    <g clip-path="url(#pcee24f2c18)">
     <use style="fill:#1f77b4;stroke:#3f3f3f;stroke-width:2;" x="585.872919" xlink:href="#C4_0_3e30229a5b" y="386.00476"/>
    </g>
    <g clip-path="url(#pcee24f2c18)">
     <use style="fill:#1f77b4;stroke:#3f3f3f;stroke-width:2;" x="571.172919" xlink:href="#C4_0_3e30229a5b" y="386.00476"/>
    </g>
    <g clip-path="url(#pcee24f2c18)">
     <use style="fill:#1f77b4;stroke:#3f3f3f;stroke-width:2;" x="600.292166" xlink:href="#C4_0_3e30229a5b" y="383.281664"/>
    </g>
    <g clip-path="url(#pcee24f2c18)">
     <use style="fill:#1f77b4;stroke:#3f3f3f;stroke-width:2;" x="585.872919" xlink:href="#C4_0_3e30229a5b" y="323.918178"/>
    </g>
    <g clip-path="url(#pcee24f2c18)">
     <use style="fill:#1f77b4;stroke:#3f3f3f;stroke-width:2;" x="571.252229" xlink:href="#C4_0_3e30229a5b" y="322.46586"/>
    </g>
    <g clip-path="url(#pcee24f2c18)">
     <use style="fill:#1f77b4;stroke:#3f3f3f;stroke-width:2;" x="597.378343" xlink:href="#C4_0_3e30229a5b" y="315.204272"/>
    </g>
    <g clip-path="url(#pcee24f2c18)">
     <use style="fill:#1f77b4;stroke:#3f3f3f;stroke-width:2;" x="585.872919" xlink:href="#C4_0_3e30229a5b" y="295.234904"/>
    </g>
   </g>
   <g id="PathCollection_8">
    <defs>
     <path d="M 0 6 
C 1.591219 6 3.117479 5.367802 4.242641 4.242641 
C 5.367802 3.117479 6 1.591219 6 0 
C 6 -1.591219 5.367802 -3.117479 4.242641 -4.242641 
C 3.117479 -5.367802 1.591219 -6 0 -6 
C -1.591219 -6 -3.117479 -5.367802 -4.242641 -4.242641 
C -5.367802 -3.117479 -6 -1.591219 -6 0 
C -6 1.591219 -5.367802 3.117479 -4.242641 4.242641 
C -3.117479 5.367802 -1.591219 6 0 6 
z
" id="C5_0_a11048d2e9"/>
    </defs>
    <g clip-path="url(#pcee24f2c18)">
     <use style="fill:#ff7f0e;stroke:#3f3f3f;stroke-width:2;" x="675.152919" xlink:href="#C5_0_a11048d2e9" y="346.519872"/>
    </g>
    <g clip-path="url(#pcee24f2c18)">
     <use style="fill:#ff7f0e;stroke:#3f3f3f;stroke-width:2;" x="675.152919" xlink:href="#C5_0_a11048d2e9" y="300.318015"/>
    </g>
    <g clip-path="url(#pcee24f2c18)">
     <use style="fill:#ff7f0e;stroke:#3f3f3f;stroke-width:2;" x="675.152919" xlink:href="#C5_0_a11048d2e9" y="277.080932"/>
    </g>
    <g clip-path="url(#pcee24f2c18)">
     <use style="fill:#ff7f0e;stroke:#3f3f3f;stroke-width:2;" x="662.054065" xlink:href="#C5_0_a11048d2e9" y="270.727042"/>
    </g>
    <g clip-path="url(#pcee24f2c18)">
     <use style="fill:#ff7f0e;stroke:#3f3f3f;stroke-width:2;" x="678.574493" xlink:href="#C5_0_a11048d2e9" y="263.465454"/>
    </g>
   </g>
   <g id="legend_1">
    <g id="patch_5">
     <path d="M 600.217919 123.33 
L 719.712919 123.33 
Q 726.112919 123.33 726.112919 116.93 
L 726.112919 29.6 
Q 726.112919 23.2 719.712919 23.2 
L 600.217919 23.2 
Q 593.817919 23.2 593.817919 29.6 
L 593.817919 116.93 
Q 593.817919 123.33 600.217919 123.33 
z
" style="fill:none;opacity:0;"/>
    </g>
    <g id="PathCollection_9">
     <defs>
      <path d="M 0 0 
C 0 0 0 0 0 0 
C 0 0 0 0 0 0 
C 0 0 0 0 0 0 
C 0 0 0 0 0 0 
C 0 0 0 0 0 0 
C 0 0 0 0 0 0 
C 0 0 0 0 0 0 
C 0 0 0 0 0 0 
z
" id="m84990704c2" style="stroke:#1f77b4;"/>
     </defs>
     <g>
      <use style="fill:#1f77b4;stroke:#1f77b4;" x="606.617919" xlink:href="#m84990704c2" y="50.505"/>
     </g>
    </g>
    <g id="text_11">
     <path d="M 608.992919 58.905 
L 608.992919 36 
L 613.557919 36 
L 618.977919 52.215 
Q 619.727919 54.485 620.072919 55.61 
Q 620.462919 54.36 621.287919 51.935 
L 626.772919 36 
L 630.852919 36 
L 630.852919 58.905 
L 627.932919 58.905 
L 627.932919 39.735 
L 621.272919 58.905 
L 618.537919 58.905 
L 611.912919 39.405 
L 611.912919 58.905 
z
M 646.214169 56.86 
Q 644.649169 58.185 643.204169 58.735 
Q 641.759169 59.28 640.104169 59.28 
Q 637.369169 59.28 635.899169 57.945 
Q 634.429169 56.61 634.429169 54.53 
Q 634.429169 53.31 634.984169 52.305 
Q 635.539169 51.295 636.439169 50.685 
Q 637.339169 50.075 638.464169 49.765 
Q 639.289169 49.545 640.964169 49.34 
Q 644.369169 48.935 645.979169 48.375 
Q 645.994169 47.795 645.994169 47.64 
Q 645.994169 45.92 645.194169 45.215 
Q 644.119169 44.265 641.994169 44.265 
Q 640.009169 44.265 639.064169 44.96 
Q 638.119169 45.655 637.664169 47.42 
L 634.914169 47.045 
Q 635.289169 45.28 636.149169 44.195 
Q 637.009169 43.11 638.634169 42.525 
Q 640.259169 41.935 642.399169 41.935 
Q 644.524169 41.935 645.849169 42.435 
Q 647.179169 42.935 647.804169 43.695 
Q 648.429169 44.45 648.679169 45.61 
Q 648.819169 46.325 648.819169 48.2 
L 648.819169 51.95 
Q 648.819169 55.875 648.999169 56.915 
Q 649.179169 57.95 649.714169 58.905 
L 646.774169 58.905 
Q 646.339169 58.03 646.214169 56.86 
z
M 645.979169 50.575 
Q 644.444169 51.2 641.384169 51.64 
Q 639.649169 51.89 638.929169 52.205 
Q 638.214169 52.515 637.819169 53.115 
Q 637.429169 53.715 637.429169 54.45 
Q 637.429169 55.575 638.279169 56.325 
Q 639.134169 57.075 640.774169 57.075 
Q 642.399169 57.075 643.664169 56.365 
Q 644.929169 55.655 645.524169 54.42 
Q 645.979169 53.465 645.979169 51.61 
z
M 653.116044 58.905 
L 653.116044 36 
L 655.931044 36 
L 655.931044 58.905 
z
M 671.650419 53.56 
L 674.555419 53.92 
Q 673.870419 56.465 672.010419 57.875 
Q 670.150419 59.28 667.260419 59.28 
Q 663.620419 59.28 661.485419 57.04 
Q 659.350419 54.795 659.350419 50.75 
Q 659.350419 46.56 661.505419 44.25 
Q 663.665419 41.935 667.100419 41.935 
Q 670.430419 41.935 672.540419 44.2 
Q 674.650419 46.465 674.650419 50.575 
Q 674.650419 50.825 674.635419 51.325 
L 662.260419 51.325 
Q 662.415419 54.06 663.805419 55.515 
Q 665.195419 56.965 667.275419 56.965 
Q 668.820419 56.965 669.915419 56.155 
Q 671.010419 55.34 671.650419 53.56 
z
M 662.415419 49.015 
L 671.680419 49.015 
Q 671.495419 46.92 670.620419 45.875 
Q 669.275419 44.25 667.135419 44.25 
Q 665.195419 44.25 663.875419 45.545 
Q 662.555419 46.84 662.415419 49.015 
z
" style="fill:#1f77b4;stroke:#000000;"/>
     <path d="M 608.992919 58.905 
L 608.992919 36 
L 613.557919 36 
L 618.977919 52.215 
Q 619.727919 54.485 620.072919 55.61 
Q 620.462919 54.36 621.287919 51.935 
L 626.772919 36 
L 630.852919 36 
L 630.852919 58.905 
L 627.932919 58.905 
L 627.932919 39.735 
L 621.272919 58.905 
L 618.537919 58.905 
L 611.912919 39.405 
L 611.912919 58.905 
z
M 646.214169 56.86 
Q 644.649169 58.185 643.204169 58.735 
Q 641.759169 59.28 640.104169 59.28 
Q 637.369169 59.28 635.899169 57.945 
Q 634.429169 56.61 634.429169 54.53 
Q 634.429169 53.31 634.984169 52.305 
Q 635.539169 51.295 636.439169 50.685 
Q 637.339169 50.075 638.464169 49.765 
Q 639.289169 49.545 640.964169 49.34 
Q 644.369169 48.935 645.979169 48.375 
Q 645.994169 47.795 645.994169 47.64 
Q 645.994169 45.92 645.194169 45.215 
Q 644.119169 44.265 641.994169 44.265 
Q 640.009169 44.265 639.064169 44.96 
Q 638.119169 45.655 637.664169 47.42 
L 634.914169 47.045 
Q 635.289169 45.28 636.149169 44.195 
Q 637.009169 43.11 638.634169 42.525 
Q 640.259169 41.935 642.399169 41.935 
Q 644.524169 41.935 645.849169 42.435 
Q 647.179169 42.935 647.804169 43.695 
Q 648.429169 44.45 648.679169 45.61 
Q 648.819169 46.325 648.819169 48.2 
L 648.819169 51.95 
Q 648.819169 55.875 648.999169 56.915 
Q 649.179169 57.95 649.714169 58.905 
L 646.774169 58.905 
Q 646.339169 58.03 646.214169 56.86 
z
M 645.979169 50.575 
Q 644.444169 51.2 641.384169 51.64 
Q 639.649169 51.89 638.929169 52.205 
Q 638.214169 52.515 637.819169 53.115 
Q 637.429169 53.715 637.429169 54.45 
Q 637.429169 55.575 638.279169 56.325 
Q 639.134169 57.075 640.774169 57.075 
Q 642.399169 57.075 643.664169 56.365 
Q 644.929169 55.655 645.524169 54.42 
Q 645.979169 53.465 645.979169 51.61 
z
M 653.116044 58.905 
L 653.116044 36 
L 655.931044 36 
L 655.931044 58.905 
z
M 671.650419 53.56 
L 674.555419 53.92 
Q 673.870419 56.465 672.010419 57.875 
Q 670.150419 59.28 667.260419 59.28 
Q 663.620419 59.28 661.485419 57.04 
Q 659.350419 54.795 659.350419 50.75 
Q 659.350419 46.56 661.505419 44.25 
Q 663.665419 41.935 667.100419 41.935 
Q 670.430419 41.935 672.540419 44.2 
Q 674.650419 46.465 674.650419 50.575 
Q 674.650419 50.825 674.635419 51.325 
L 662.260419 51.325 
Q 662.415419 54.06 663.805419 55.515 
Q 665.195419 56.965 667.275419 56.965 
Q 668.820419 56.965 669.915419 56.155 
Q 671.010419 55.34 671.650419 53.56 
z
M 662.415419 49.015 
L 671.680419 49.015 
Q 671.495419 46.92 670.620419 45.875 
Q 669.275419 44.25 667.135419 44.25 
Q 665.195419 44.25 663.875419 45.545 
Q 662.555419 46.84 662.415419 49.015 
z
" style="fill:#1f77b4;"/>
    </g>
    <g id="PathCollection_10">
     <defs>
      <path d="M 0 0 
C 0 0 0 0 0 0 
C 0 0 0 0 0 0 
C 0 0 0 0 0 0 
C 0 0 0 0 0 0 
C 0 0 0 0 0 0 
C 0 0 0 0 0 0 
C 0 0 0 0 0 0 
C 0 0 0 0 0 0 
z
" id="ma21a497dd7" style="stroke:#ff7f0e;"/>
     </defs>
     <g>
      <use style="fill:#ff7f0e;stroke:#ff7f0e;" x="606.617919" xlink:href="#ma21a497dd7" y="95.77"/>
     </g>
    </g>
    <g id="text_12">
     <path d="M 609.242919 104.17 
L 609.242919 81.265 
L 624.697919 81.265 
L 624.697919 83.965 
L 612.272919 83.965 
L 612.272919 91.06 
L 623.022919 91.06 
L 623.022919 93.765 
L 612.272919 93.765 
L 612.272919 104.17 
z
M 639.634794 98.825 
L 642.539794 99.185 
Q 641.854794 101.73 639.994794 103.14 
Q 638.134794 104.545 635.244794 104.545 
Q 631.604794 104.545 629.469794 102.305 
Q 627.334794 100.06 627.334794 96.015 
Q 627.334794 91.825 629.489794 89.515 
Q 631.649794 87.2 635.084794 87.2 
Q 638.414794 87.2 640.524794 89.465 
Q 642.634794 91.73 642.634794 95.84 
Q 642.634794 96.09 642.619794 96.59 
L 630.244794 96.59 
Q 630.399794 99.325 631.789794 100.78 
Q 633.179794 102.23 635.259794 102.23 
Q 636.804794 102.23 637.899794 101.42 
Q 638.994794 100.605 639.634794 98.825 
z
M 630.399794 94.28 
L 639.664794 94.28 
Q 639.479794 92.185 638.604794 91.14 
Q 637.259794 89.515 635.119794 89.515 
Q 633.179794 89.515 631.859794 90.81 
Q 630.539794 92.105 630.399794 94.28 
z
M 646.071669 104.17 
L 646.071669 87.575 
L 648.586669 87.575 
L 648.586669 89.905 
Q 649.366669 88.685 650.661669 87.945 
Q 651.961669 87.2 653.616669 87.2 
Q 655.461669 87.2 656.641669 87.965 
Q 657.821669 88.73 658.306669 90.105 
Q 660.276669 87.2 663.431669 87.2 
Q 665.901669 87.2 667.226669 88.57 
Q 668.556669 89.935 668.556669 92.78 
L 668.556669 104.17 
L 665.756669 104.17 
L 665.756669 93.715 
Q 665.756669 92.03 665.481669 91.29 
Q 665.211669 90.545 664.491669 90.095 
Q 663.776669 89.64 662.806669 89.64 
Q 661.056669 89.64 659.896669 90.805 
Q 658.741669 91.965 658.741669 94.53 
L 658.741669 104.17 
L 655.931669 104.17 
L 655.931669 93.39 
Q 655.931669 91.515 655.241669 90.58 
Q 654.556669 89.64 652.991669 89.64 
Q 651.806669 89.64 650.796669 90.265 
Q 649.791669 90.89 649.336669 92.095 
Q 648.881669 93.295 648.881669 95.56 
L 648.881669 104.17 
z
M 683.557919 102.125 
Q 681.992919 103.45 680.547919 104 
Q 679.102919 104.545 677.447919 104.545 
Q 674.712919 104.545 673.242919 103.21 
Q 671.772919 101.875 671.772919 99.795 
Q 671.772919 98.575 672.327919 97.57 
Q 672.882919 96.56 673.782919 95.95 
Q 674.682919 95.34 675.807919 95.03 
Q 676.632919 94.81 678.307919 94.605 
Q 681.712919 94.2 683.322919 93.64 
Q 683.337919 93.06 683.337919 92.905 
Q 683.337919 91.185 682.537919 90.48 
Q 681.462919 89.53 679.337919 89.53 
Q 677.352919 89.53 676.407919 90.225 
Q 675.462919 90.92 675.007919 92.685 
L 672.257919 92.31 
Q 672.632919 90.545 673.492919 89.46 
Q 674.352919 88.375 675.977919 87.79 
Q 677.602919 87.2 679.742919 87.2 
Q 681.867919 87.2 683.192919 87.7 
Q 684.522919 88.2 685.147919 88.96 
Q 685.772919 89.715 686.022919 90.875 
Q 686.162919 91.59 686.162919 93.465 
L 686.162919 97.215 
Q 686.162919 101.14 686.342919 102.18 
Q 686.522919 103.215 687.057919 104.17 
L 684.117919 104.17 
Q 683.682919 103.295 683.557919 102.125 
z
M 683.322919 95.84 
Q 681.787919 96.465 678.727919 96.905 
Q 676.992919 97.155 676.272919 97.47 
Q 675.557919 97.78 675.162919 98.38 
Q 674.772919 98.98 674.772919 99.715 
Q 674.772919 100.84 675.622919 101.59 
Q 676.477919 102.34 678.117919 102.34 
Q 679.742919 102.34 681.007919 101.63 
Q 682.272919 100.92 682.867919 99.685 
Q 683.322919 98.73 683.322919 96.875 
z
M 690.459794 104.17 
L 690.459794 81.265 
L 693.274794 81.265 
L 693.274794 104.17 
z
M 708.994169 98.825 
L 711.899169 99.185 
Q 711.214169 101.73 709.354169 103.14 
Q 707.494169 104.545 704.604169 104.545 
Q 700.964169 104.545 698.829169 102.305 
Q 696.694169 100.06 696.694169 96.015 
Q 696.694169 91.825 698.849169 89.515 
Q 701.009169 87.2 704.444169 87.2 
Q 707.774169 87.2 709.884169 89.465 
Q 711.994169 91.73 711.994169 95.84 
Q 711.994169 96.09 711.979169 96.59 
L 699.604169 96.59 
Q 699.759169 99.325 701.149169 100.78 
Q 702.539169 102.23 704.619169 102.23 
Q 706.164169 102.23 707.259169 101.42 
Q 708.354169 100.605 708.994169 98.825 
z
M 699.759169 94.28 
L 709.024169 94.28 
Q 708.839169 92.185 707.964169 91.14 
Q 706.619169 89.515 704.479169 89.515 
Q 702.539169 89.515 701.219169 90.81 
Q 699.899169 92.105 699.759169 94.28 
z
" style="fill:#ff7f0e;stroke:#000000;"/>
     <path d="M 609.242919 104.17 
L 609.242919 81.265 
L 624.697919 81.265 
L 624.697919 83.965 
L 612.272919 83.965 
L 612.272919 91.06 
L 623.022919 91.06 
L 623.022919 93.765 
L 612.272919 93.765 
L 612.272919 104.17 
z
M 639.634794 98.825 
L 642.539794 99.185 
Q 641.854794 101.73 639.994794 103.14 
Q 638.134794 104.545 635.244794 104.545 
Q 631.604794 104.545 629.469794 102.305 
Q 627.334794 100.06 627.334794 96.015 
Q 627.334794 91.825 629.489794 89.515 
Q 631.649794 87.2 635.084794 87.2 
Q 638.414794 87.2 640.524794 89.465 
Q 642.634794 91.73 642.634794 95.84 
Q 642.634794 96.09 642.619794 96.59 
L 630.244794 96.59 
Q 630.399794 99.325 631.789794 100.78 
Q 633.179794 102.23 635.259794 102.23 
Q 636.804794 102.23 637.899794 101.42 
Q 638.994794 100.605 639.634794 98.825 
z
M 630.399794 94.28 
L 639.664794 94.28 
Q 639.479794 92.185 638.604794 91.14 
Q 637.259794 89.515 635.119794 89.515 
Q 633.179794 89.515 631.859794 90.81 
Q 630.539794 92.105 630.399794 94.28 
z
M 646.071669 104.17 
L 646.071669 87.575 
L 648.586669 87.575 
L 648.586669 89.905 
Q 649.366669 88.685 650.661669 87.945 
Q 651.961669 87.2 653.616669 87.2 
Q 655.461669 87.2 656.641669 87.965 
Q 657.821669 88.73 658.306669 90.105 
Q 660.276669 87.2 663.431669 87.2 
Q 665.901669 87.2 667.226669 88.57 
Q 668.556669 89.935 668.556669 92.78 
L 668.556669 104.17 
L 665.756669 104.17 
L 665.756669 93.715 
Q 665.756669 92.03 665.481669 91.29 
Q 665.211669 90.545 664.491669 90.095 
Q 663.776669 89.64 662.806669 89.64 
Q 661.056669 89.64 659.896669 90.805 
Q 658.741669 91.965 658.741669 94.53 
L 658.741669 104.17 
L 655.931669 104.17 
L 655.931669 93.39 
Q 655.931669 91.515 655.241669 90.58 
Q 654.556669 89.64 652.991669 89.64 
Q 651.806669 89.64 650.796669 90.265 
Q 649.791669 90.89 649.336669 92.095 
Q 648.881669 93.295 648.881669 95.56 
L 648.881669 104.17 
z
M 683.557919 102.125 
Q 681.992919 103.45 680.547919 104 
Q 679.102919 104.545 677.447919 104.545 
Q 674.712919 104.545 673.242919 103.21 
Q 671.772919 101.875 671.772919 99.795 
Q 671.772919 98.575 672.327919 97.57 
Q 672.882919 96.56 673.782919 95.95 
Q 674.682919 95.34 675.807919 95.03 
Q 676.632919 94.81 678.307919 94.605 
Q 681.712919 94.2 683.322919 93.64 
Q 683.337919 93.06 683.337919 92.905 
Q 683.337919 91.185 682.537919 90.48 
Q 681.462919 89.53 679.337919 89.53 
Q 677.352919 89.53 676.407919 90.225 
Q 675.462919 90.92 675.007919 92.685 
L 672.257919 92.31 
Q 672.632919 90.545 673.492919 89.46 
Q 674.352919 88.375 675.977919 87.79 
Q 677.602919 87.2 679.742919 87.2 
Q 681.867919 87.2 683.192919 87.7 
Q 684.522919 88.2 685.147919 88.96 
Q 685.772919 89.715 686.022919 90.875 
Q 686.162919 91.59 686.162919 93.465 
L 686.162919 97.215 
Q 686.162919 101.14 686.342919 102.18 
Q 686.522919 103.215 687.057919 104.17 
L 684.117919 104.17 
Q 683.682919 103.295 683.557919 102.125 
z
M 683.322919 95.84 
Q 681.787919 96.465 678.727919 96.905 
Q 676.992919 97.155 676.272919 97.47 
Q 675.557919 97.78 675.162919 98.38 
Q 674.772919 98.98 674.772919 99.715 
Q 674.772919 100.84 675.622919 101.59 
Q 676.477919 102.34 678.117919 102.34 
Q 679.742919 102.34 681.007919 101.63 
Q 682.272919 100.92 682.867919 99.685 
Q 683.322919 98.73 683.322919 96.875 
z
M 690.459794 104.17 
L 690.459794 81.265 
L 693.274794 81.265 
L 693.274794 104.17 
z
M 708.994169 98.825 
L 711.899169 99.185 
Q 711.214169 101.73 709.354169 103.14 
Q 707.494169 104.545 704.604169 104.545 
Q 700.964169 104.545 698.829169 102.305 
Q 696.694169 100.06 696.694169 96.015 
Q 696.694169 91.825 698.849169 89.515 
Q 701.009169 87.2 704.444169 87.2 
Q 707.774169 87.2 709.884169 89.465 
Q 711.994169 91.73 711.994169 95.84 
Q 711.994169 96.09 711.979169 96.59 
L 699.604169 96.59 
Q 699.759169 99.325 701.149169 100.78 
Q 702.539169 102.23 704.619169 102.23 
Q 706.164169 102.23 707.259169 101.42 
Q 708.354169 100.605 708.994169 98.825 
z
M 699.759169 94.28 
L 709.024169 94.28 
Q 708.839169 92.185 707.964169 91.14 
Q 706.619169 89.515 704.479169 89.515 
Q 702.539169 89.515 701.219169 90.81 
Q 699.899169 92.105 699.759169 94.28 
z
" style="fill:#ff7f0e;"/>
    </g>
   </g>
  </g>
 </g>
 <defs>
  <clipPath id="pcee24f2c18">
   <rect height="434.88" width="669.6" x="72.512919" y="7.2"/>
  </clipPath>
 </defs>
</svg>
