<?xml version="1.0" encoding="UTF-8" standalone="no"?>
<!-- Created with Inkscape (http://www.inkscape.org/) -->

<svg
   xmlns:dc="http://purl.org/dc/elements/1.1/"
   xmlns:cc="http://creativecommons.org/ns#"
   xmlns:rdf="http://www.w3.org/1999/02/22-rdf-syntax-ns#"
   xmlns:svg="http://www.w3.org/2000/svg"
   xmlns="http://www.w3.org/2000/svg"
   xmlns:sodipodi="http://sodipodi.sourceforge.net/DTD/sodipodi-0.dtd"
   xmlns:inkscape="http://www.inkscape.org/namespaces/inkscape"
   width="89.503426mm"
   height="89.503426mm"
   viewBox="0 0 317.13812 317.1381"
   id="svg3434"
   version="1.1"
   inkscape:version="0.91 r13725"
   sodipodi:docname="03_word_space.svg"
   inkscape:export-filename="/home/agude/Documents/blog/20160303_py2vec/03_word_space.png"
   inkscape:export-xdpi="100"
   inkscape:export-ydpi="100">
  <defs
     id="defs3436">
    <marker
       inkscape:isstock="true"
       style="overflow:visible"
       id="marker5356"
       refX="0"
       refY="0"
       orient="auto"
       inkscape:stockid="Arrow1Mend">
      <path
         transform="matrix(-0.4,0,0,-0.4,-4,0)"
         style="fill:#3366aa;fill-opacity:1;fill-rule:evenodd;stroke:#3366aa;stroke-width:1pt;stroke-opacity:1"
         d="M 0,0 5,-5 -12.5,0 5,5 0,0 Z"
         id="path5358"
         inkscape:connector-curvature="0" />
    </marker>
    <marker
       inkscape:isstock="true"
       style="overflow:visible"
       id="marker5292"
       refX="0"
       refY="0"
       orient="auto"
       inkscape:stockid="Arrow1Mend">
      <path
         transform="matrix(-0.4,0,0,-0.4,-4,0)"
         style="fill:#ee3333;fill-opacity:1;fill-rule:evenodd;stroke:#ee3333;stroke-width:1pt;stroke-opacity:1"
         d="M 0,0 5,-5 -12.5,0 5,5 0,0 Z"
         id="path5294"
         inkscape:connector-curvature="0" />
    </marker>
    <marker
       inkscape:isstock="true"
       style="overflow:visible"
       id="marker5154"
       refX="0"
       refY="0"
       orient="auto"
       inkscape:stockid="Arrow1Mend">
      <path
         transform="matrix(-0.4,0,0,-0.4,-4,0)"
         style="fill:#3366aa;fill-opacity:1;fill-rule:evenodd;stroke:#3366aa;stroke-width:1pt;stroke-opacity:1"
         d="M 0,0 5,-5 -12.5,0 5,5 0,0 Z"
         id="path5156"
         inkscape:connector-curvature="0" />
    </marker>
    <marker
       inkscape:stockid="Arrow1Mstart"
       orient="auto"
       refY="0"
       refX="0"
       id="marker5090"
       style="overflow:visible"
       inkscape:isstock="true">
      <path
         id="path5092"
         d="M 0,0 5,-5 -12.5,0 5,5 0,0 Z"
         style="fill:#3366aa;fill-opacity:1;fill-rule:evenodd;stroke:#3366aa;stroke-width:1pt;stroke-opacity:1"
         transform="matrix(0.4,0,0,0.4,4,0)"
         inkscape:connector-curvature="0" />
    </marker>
    <marker
       inkscape:stockid="Arrow1Mstart"
       orient="auto"
       refY="0"
       refX="0"
       id="Arrow1Mstart"
       style="overflow:visible"
       inkscape:isstock="true">
      <path
         id="path4284"
         d="M 0,0 5,-5 -12.5,0 5,5 0,0 Z"
         style="fill:#000000;fill-opacity:1;fill-rule:evenodd;stroke:#000000;stroke-width:1pt;stroke-opacity:1"
         transform="matrix(0.4,0,0,0.4,4,0)"
         inkscape:connector-curvature="0" />
    </marker>
    <marker
       inkscape:stockid="Arrow2Lend"
       orient="auto"
       refY="0"
       refX="0"
       id="Arrow2Lend"
       style="overflow:visible"
       inkscape:isstock="true">
      <path
         id="path4299"
         style="fill:#000000;fill-opacity:1;fill-rule:evenodd;stroke:#000000;stroke-width:0.625;stroke-linejoin:round;stroke-opacity:1"
         d="M 8.7185878,4.0337352 -2.2072895,0.01601326 8.7185884,-4.0017078 c -1.7454984,2.3720609 -1.7354408,5.6174519 -6e-7,8.035443 z"
         transform="matrix(-1.1,0,0,-1.1,-1.1,0)"
         inkscape:connector-curvature="0" />
    </marker>
    <marker
       inkscape:stockid="Arrow1Lstart"
       orient="auto"
       refY="0"
       refX="0"
       id="Arrow1Lstart"
       style="overflow:visible"
       inkscape:isstock="true">
      <path
         id="path4278"
         d="M 0,0 5,-5 -12.5,0 5,5 0,0 Z"
         style="fill:#000000;fill-opacity:1;fill-rule:evenodd;stroke:#000000;stroke-width:1pt;stroke-opacity:1"
         transform="matrix(0.8,0,0,0.8,10,0)"
         inkscape:connector-curvature="0" />
    </marker>
    <marker
       inkscape:stockid="Arrow1Mstart"
       orient="auto"
       refY="0"
       refX="0"
       id="Arrow1Mstart-4"
       style="overflow:visible"
       inkscape:isstock="true">
      <path
         inkscape:connector-curvature="0"
         id="path4284-2"
         d="M 0,0 5,-5 -12.5,0 5,5 0,0 Z"
         style="fill:#000000;fill-opacity:1;fill-rule:evenodd;stroke:#000000;stroke-width:1pt;stroke-opacity:1"
         transform="matrix(0.4,0,0,0.4,4,0)" />
    </marker>
    <marker
       inkscape:stockid="Arrow1Mend"
       orient="auto"
       refY="0"
       refX="0"
       id="Arrow1Mend-6"
       style="overflow:visible"
       inkscape:isstock="true"
       inkscape:collect="always">
      <path
         inkscape:connector-curvature="0"
         id="path4287-7"
         d="M 0,0 5,-5 -12.5,0 5,5 0,0 Z"
         style="fill:#000000;fill-opacity:1;fill-rule:evenodd;stroke:#000000;stroke-width:1pt;stroke-opacity:1"
         transform="matrix(-0.4,0,0,-0.4,-4,0)" />
    </marker>
    <marker
       inkscape:stockid="Arrow1Mstart"
       orient="auto"
       refY="0"
       refX="0"
       id="marker5090-1"
       style="overflow:visible"
       inkscape:isstock="true">
      <path
         inkscape:connector-curvature="0"
         id="path5092-5"
         d="M 0,0 5,-5 -12.5,0 5,5 0,0 Z"
         style="fill:#3366aa;fill-opacity:1;fill-rule:evenodd;stroke:#3366aa;stroke-width:1pt;stroke-opacity:1"
         transform="matrix(0.4,0,0,0.4,4,0)" />
    </marker>
    <marker
       inkscape:isstock="true"
       style="overflow:visible"
       id="marker5154-2"
       refX="0"
       refY="0"
       orient="auto"
       inkscape:stockid="Arrow1Mend">
      <path
         inkscape:connector-curvature="0"
         transform="matrix(-0.4,0,0,-0.4,-4,0)"
         style="fill:#3366aa;fill-opacity:1;fill-rule:evenodd;stroke:#3366aa;stroke-width:1pt;stroke-opacity:1"
         d="M 0,0 5,-5 -12.5,0 5,5 0,0 Z"
         id="path5156-5" />
    </marker>
    <marker
       inkscape:isstock="true"
       style="overflow:visible"
       id="marker5356-1"
       refX="0"
       refY="0"
       orient="auto"
       inkscape:stockid="Arrow1Mend">
      <path
         inkscape:connector-curvature="0"
         transform="matrix(-0.4,0,0,-0.4,-4,0)"
         style="fill:#3366aa;fill-opacity:1;fill-rule:evenodd;stroke:#3366aa;stroke-width:1pt;stroke-opacity:1"
         d="M 0,0 5,-5 -12.5,0 5,5 0,0 Z"
         id="path5358-5" />
    </marker>
    <marker
       inkscape:isstock="true"
       style="overflow:visible"
       id="marker5292-7"
       refX="0"
       refY="0"
       orient="auto"
       inkscape:stockid="Arrow1Mend">
      <path
         inkscape:connector-curvature="0"
         transform="matrix(-0.4,0,0,-0.4,-4,0)"
         style="fill:#ee3333;fill-opacity:1;fill-rule:evenodd;stroke:#ee3333;stroke-width:1pt;stroke-opacity:1"
         d="M 0,0 5,-5 -12.5,0 5,5 0,0 Z"
         id="path5294-1" />
    </marker>
  </defs>
  <sodipodi:namedview
     id="base"
     pagecolor="#ffffff"
     bordercolor="#666666"
     borderopacity="1.0"
     inkscape:pageopacity="0.0"
     inkscape:pageshadow="2"
     inkscape:zoom="1.8812907"
     inkscape:cx="-228.10629"
     inkscape:cy="184.44503"
     inkscape:document-units="px"
     inkscape:current-layer="layer1"
     showgrid="false"
     inkscape:window-width="3742"
     inkscape:window-height="2124"
     inkscape:window-x="3938"
     inkscape:window-y="36"
     inkscape:window-maximized="1"
     fit-margin-top="0"
     fit-margin-left="0"
     fit-margin-right="0"
     fit-margin-bottom="0" />
  <metadata
     id="metadata3439">
    <rdf:RDF>
      <cc:Work
         rdf:about="">
        <dc:format>image/svg+xml</dc:format>
        <dc:type
           rdf:resource="http://purl.org/dc/dcmitype/StillImage" />
        <dc:title />
      </cc:Work>
    </rdf:RDF>
  </metadata>
  <g
     inkscape:label="Layer 1"
     inkscape:groupmode="layer"
     id="layer1"
     transform="translate(-396.00468,-277.52153)">
    <g
       style="font-style:normal;font-weight:normal;font-size:31.25px;line-height:125%;font-family:sans-serif;letter-spacing:0px;word-spacing:0px;fill:#000000;fill-opacity:1;stroke:none;stroke-width:1px;stroke-linecap:butt;stroke-linejoin:miter;stroke-opacity:1"
       id="flowRoot6883" />
    <g
       id="g3574">
      <g
         style="font-style:normal;font-weight:normal;font-size:31.25px;line-height:125%;font-family:sans-serif;letter-spacing:0px;word-spacing:0px;fill:#000000;fill-opacity:1;stroke:none;stroke-width:1px;stroke-linecap:butt;stroke-linejoin:miter;stroke-opacity:1"
         id="text5252-2">
        <path
           d="m 509.81448,355.9104 q 1.875,-0.71875 3.53125,-0.71875 0.90625,0 1.6875,0.28125 0.8125,0.25 1.375,0.8125 1.34375,-1.09375 2.875,-1.09375 0.75,0 1.40625,0.28125 0.6875,0.28125 1.1875,0.84375 0.53125,0.5625 0.84375,1.40625 0.3125,0.84375 0.3125,1.96875 l 0,10.3125 -2.34375,0 0,-10.375 q 0,-1.125 -0.5,-1.71875 -0.5,-0.59375 -1.25,-0.59375 -0.375,0 -0.78125,0.1875 -0.40625,0.1875 -0.75,0.59375 0.1875,0.71875 0.1875,1.59375 l 0,4.71875 -2.34375,0 0,-4.75 q 0,-1.09375 -0.34375,-1.71875 -0.34375,-0.625 -1.34375,-0.625 -0.625,0 -1.40625,0.28125 l 0,12.40625 -2.34375,0 0,-14.09375 z"
           style="font-style:normal;font-variant:normal;font-weight:normal;font-stretch:normal;font-family:'Ubuntu Mono';-inkscape-font-specification:'Ubuntu Mono';fill:#ee3333;stroke:#ee3333"
           id="path6573" />
        <path
           d="m 532.12698,368.1604 q 0.96875,0 1.71875,-0.0625 0.78125,-0.0625 1.28125,-0.15625 l 0,-4.3125 q -0.5,-0.15625 -1.21875,-0.25 -0.6875,-0.0937 -1.46875,-0.0937 -0.71875,0 -1.40625,0.125 -0.6875,0.0937 -1.21875,0.375 -0.53125,0.28125 -0.875,0.75 -0.34375,0.4375 -0.34375,1.125 0,1.40625 0.9375,1.96875 0.96875,0.53125 2.59375,0.53125 z m -0.25,-13 q 1.625,0 2.71875,0.40625 1.125,0.40625 1.8125,1.125 0.6875,0.71875 0.96875,1.75 0.28125,1.03125 0.28125,2.25 l 0,9.0625 q -0.90625,0.15625 -2.40625,0.375 -1.46875,0.21875 -3.03125,0.21875 -1.1875,0 -2.3125,-0.21875 -1.125,-0.1875 -2,-0.6875 -0.875,-0.53125 -1.40625,-1.4375 -0.53125,-0.90625 -0.53125,-2.3125 0,-1.25 0.53125,-2.09375 0.5625,-0.875 1.40625,-1.40625 0.875,-0.53125 1.96875,-0.75 1.125,-0.25 2.25,-0.25 1.53125,0 3,0.34375 l 0,-0.71875 q 0,-0.65625 -0.15625,-1.25 -0.125,-0.625 -0.53125,-1.125 -0.375,-0.5 -1.0625,-0.78125 -0.65625,-0.3125 -1.71875,-0.3125 -1.34375,0 -2.34375,0.1875 -1,0.1875 -1.53125,0.375 l -0.3125,-2.125 q 0.53125,-0.25 1.75,-0.4375 1.25,-0.1875 2.65625,-0.1875 z"
           style="font-style:normal;font-variant:normal;font-weight:normal;font-stretch:normal;font-family:'Ubuntu Mono';-inkscape-font-specification:'Ubuntu Mono';fill:#ee3333;stroke:#ee3333"
           id="path6575" />
        <path
           d="m 547.37698,355.50415 6.125,0 0,2.15625 -6.125,0 0,6.75 q 0,1.09375 0.15625,1.78125 0.15625,0.6875 0.5,1.125 0.375,0.40625 0.9375,0.5625 0.5625,0.15625 1.375,0.15625 1.125,0 1.8125,-0.1875 0.6875,-0.1875 1.3125,-0.5 l 0.375,2.1875 q -0.4375,0.1875 -1.40625,0.5 -0.9375,0.3125 -2.34375,0.3125 -1.625,0 -2.65625,-0.375 -1.03125,-0.375 -1.625,-1.125 -0.5625,-0.75 -0.78125,-1.84375 -0.21875,-1.125 -0.21875,-2.59375 l 0,-6.75 -3.0625,0 0,-2.15625 3.0625,0 0,-4.0625 2.5625,-0.4375 0,4.5 z"
           style="font-style:normal;font-variant:normal;font-weight:normal;font-stretch:normal;font-family:'Ubuntu Mono';-inkscape-font-specification:'Ubuntu Mono';fill:#ee3333;stroke:#ee3333"
           id="path6577" />
        <path
           d="m 557.62698,370.00415 0,-21.21875 2.59375,-0.4375 0,7.375 q 0.625,-0.25 1.40625,-0.375 0.78125,-0.15625 1.53125,-0.15625 1.65625,0 2.75,0.5 1.125,0.46875 1.78125,1.34375 0.65625,0.875 0.9375,2.09375 0.28125,1.21875 0.28125,2.6875 l 0,8.1875 -2.5625,0 0,-7.625 q 0,-2.6875 -0.75,-3.78125 -0.75,-1.125 -2.6875,-1.125 -0.8125,0 -1.59375,0.1875 -0.75,0.15625 -1.09375,0.3125 l 0,12.03125 -2.59375,0 z"
           style="font-style:normal;font-variant:normal;font-weight:normal;font-stretch:normal;font-family:'Ubuntu Mono';-inkscape-font-specification:'Ubuntu Mono';fill:#ee3333;stroke:#ee3333"
           id="path6579" />
      </g>
      <path
         sodipodi:nodetypes="cc"
         inkscape:connector-curvature="0"
         id="path5284-6"
         d="M 405.49766,585.67173 534.29211,379.60061"
         style="fill:#ee3333;fill-rule:evenodd;stroke:#ee3333;stroke-width:3;stroke-linecap:butt;stroke-linejoin:miter;stroke-miterlimit:4;stroke-dasharray:none;stroke-opacity:1;marker-end:url(#marker5292-7)" />
      <g
         style="font-style:normal;font-weight:normal;font-size:31.25px;line-height:125%;font-family:sans-serif;letter-spacing:0px;word-spacing:0px;fill:#000000;fill-opacity:1;stroke:none;stroke-width:1px;stroke-linecap:butt;stroke-linejoin:miter;stroke-opacity:1"
         id="text5252">
        <path
           d="m 584.4931,363.99164 q 1.40625,-0.34375 2.78125,-0.53125 1.40625,-0.1875 2.625,-0.1875 2.90625,0 4.375,1.5 1.5,1.5 1.5,4.8125 l 0,8.5 -2.5625,0 0,-8.03125 q 0,-1.40625 -0.25,-2.28125 -0.25,-0.875 -0.71875,-1.34375 -0.4375,-0.5 -1.09375,-0.6875 -0.625,-0.1875 -1.375,-0.1875 -0.625,0 -1.34375,0.0937 -0.6875,0.0625 -1.34375,0.1875 l 0,12.25 -2.59375,0 0,-14.09375 z"
           style="font-style:normal;font-variant:normal;font-weight:normal;font-stretch:normal;font-family:'Ubuntu Mono';-inkscape-font-specification:'Ubuntu Mono';fill:#ee3333;stroke:#ee3333"
           id="path6582" />
        <path
           d="m 611.3056,377.67914 q -0.84375,0.21875 -2.25,0.46875 -1.375,0.25 -3.25,0.25 -1.65625,0 -2.75,-0.46875 -1.09375,-0.5 -1.78125,-1.375 -0.6875,-0.90625 -0.96875,-2.125 -0.28125,-1.21875 -0.28125,-2.6875 l 0,-8.15625 2.5625,0 0,7.59375 q 0,2.6875 0.78125,3.8125 0.8125,1.125 2.6875,1.125 0.40625,0 0.8125,-0.0312 0.4375,-0.0312 0.8125,-0.0625 0.375,-0.0625 0.65625,-0.0937 0.28125,-0.0625 0.375,-0.0937 l 0,-12.25 2.59375,0 0,14.09375 z"
           style="font-style:normal;font-variant:normal;font-weight:normal;font-stretch:normal;font-family:'Ubuntu Mono';-inkscape-font-specification:'Ubuntu Mono';fill:#ee3333;stroke:#ee3333"
           id="path6584" />
        <path
           d="m 614.8056,363.99164 q 1.875,-0.71875 3.53125,-0.71875 0.90625,0 1.6875,0.28125 0.8125,0.25 1.375,0.8125 1.34375,-1.09375 2.875,-1.09375 0.75,0 1.40625,0.28125 0.6875,0.28125 1.1875,0.84375 0.53125,0.5625 0.84375,1.40625 0.3125,0.84375 0.3125,1.96875 l 0,10.3125 -2.34375,0 0,-10.375 q 0,-1.125 -0.5,-1.71875 -0.5,-0.59375 -1.25,-0.59375 -0.375,0 -0.78125,0.1875 -0.40625,0.1875 -0.75,0.59375 0.1875,0.71875 0.1875,1.59375 l 0,4.71875 -2.34375,0 0,-4.75 q 0,-1.09375 -0.34375,-1.71875 -0.34375,-0.625 -1.34375,-0.625 -0.625,0 -1.40625,0.28125 l 0,12.40625 -2.34375,0 0,-14.09375 z"
           style="font-style:normal;font-variant:normal;font-weight:normal;font-stretch:normal;font-family:'Ubuntu Mono';-inkscape-font-specification:'Ubuntu Mono';fill:#ee3333;stroke:#ee3333"
           id="path6586" />
        <path
           d="m 640.8681,370.86664 q 0,-2.53125 -1.1875,-3.90625 -1.1875,-1.40625 -3.09375,-1.40625 -1.0625,0 -1.6875,0.0937 -0.59375,0.0937 -0.9375,0.21875 l 0,9.15625 q 0.4375,0.40625 1.28125,0.75 0.84375,0.34375 1.75,0.34375 1.03125,0 1.75,-0.40625 0.75,-0.40625 1.21875,-1.09375 0.46875,-0.71875 0.6875,-1.65625 0.21875,-0.96875 0.21875,-2.09375 z m 2.65625,0 q 0,1.65625 -0.4375,3.0625 -0.40625,1.375 -1.21875,2.375 -0.78125,1 -1.9375,1.5625 -1.15625,0.5625 -2.625,0.5625 -1.15625,0 -2.03125,-0.28125 -0.875,-0.28125 -1.3125,-0.625 l 0,5.71875 -2.59375,0 0,-19.21875 q 0.84375,-0.25 2.15625,-0.5 1.34375,-0.25 3.0625,-0.25 1.5625,0 2.84375,0.53125 1.28125,0.53125 2.1875,1.53125 0.90625,0.96875 1.40625,2.375 0.5,1.40625 0.5,3.15625 z"
           style="font-style:normal;font-variant:normal;font-weight:normal;font-stretch:normal;font-family:'Ubuntu Mono';-inkscape-font-specification:'Ubuntu Mono';fill:#ee3333;stroke:#ee3333"
           id="path6588" />
        <path
           d="m 646.3681,380.80414 q 0.28125,0.15625 0.78125,0.25 0.53125,0.0937 0.96875,0.0937 1.53125,0 2.375,-0.6875 0.875,-0.65625 1.59375,-2.1875 -1.75,-3.3125 -3.28125,-7.09375 -1.53125,-3.8125 -2.53125,-7.59375 l 2.8125,0 q 0.3125,1.25 0.71875,2.71875 0.4375,1.4375 0.96875,2.96875 0.53125,1.53125 1.125,3.09375 0.625,1.53125 1.3125,2.9375 0.5,-1.4375 0.9375,-2.84375 0.4375,-1.40625 0.8125,-2.8125 0.375,-1.4375 0.75,-2.90625 0.375,-1.5 0.78125,-3.15625 l 2.6875,0 q -1,4.0625 -2.25,7.875 -1.21875,3.8125 -2.625,7.0625 -0.53125,1.25 -1.15625,2.15625 -0.59375,0.90625 -1.3125,1.5 -0.71875,0.59375 -1.625,0.875 -0.90625,0.28125 -2.0625,0.28125 -0.59375,0 -1.3125,-0.15625 -0.6875,-0.15625 -0.9375,-0.28125 l 0.46875,-2.09375 z"
           style="font-style:normal;font-variant:normal;font-weight:normal;font-stretch:normal;font-family:'Ubuntu Mono';-inkscape-font-specification:'Ubuntu Mono';fill:#ee3333;stroke:#ee3333"
           id="path6590" />
      </g>
      <path
         inkscape:connector-curvature="0"
         id="path5284"
         d="M 405.49766,585.67173 582.77943,387.68183"
         style="fill:#ee3333;fill-rule:evenodd;stroke:#ee3333;stroke-width:3;stroke-linecap:butt;stroke-linejoin:miter;stroke-miterlimit:4;stroke-dasharray:none;stroke-opacity:1;marker-end:url(#marker5292)" />
      <path
         inkscape:connector-curvature="0"
         id="path3472-3"
         d="m 406.02639,285.16157 0,299.47635 299.47636,0"
         style="fill:none;fill-rule:evenodd;stroke:#000000;stroke-width:4;stroke-linecap:butt;stroke-linejoin:miter;stroke-miterlimit:4;stroke-dasharray:none;stroke-opacity:1;marker-start:url(#Arrow1Mstart-4);marker-end:url(#Arrow1Mend-6)" />
    </g>
  </g>
</svg>
