<?xml version="1.0" encoding="utf-8" standalone="no"?>
<!DOCTYPE svg PUBLIC "-//W3C//DTD SVG 1.1//EN"
  "http://www.w3.org/Graphics/SVG/1.1/DTD/svg11.dtd">
<svg height="469.49625pt" version="1.1" viewBox="0 0 775.364063 469.49625" width="775.364063pt" xmlns="http://www.w3.org/2000/svg" xmlns:xlink="http://www.w3.org/1999/xlink">
 <metadata>
  <rdf:RDF xmlns:cc="http://creativecommons.org/ns#" xmlns:dc="http://purl.org/dc/elements/1.1/" xmlns:rdf="http://www.w3.org/1999/02/22-rdf-syntax-ns#">
   <cc:Work>
    <dc:type rdf:resource="http://purl.org/dc/dcmitype/StillImage"/>
    <dc:date>2021-09-26T10:37:20.803000</dc:date>
    <dc:format>image/svg+xml</dc:format>
    <dc:creator>
     <cc:Agent>
      <dc:title>Matplotlib v3.4.2, https://matplotlib.org/</dc:title>
     </cc:Agent>
    </dc:creator>
    <dc:contributor>
     <cc:Agent>
      <dc:title>Alexander Gude</dc:title>
     </cc:Agent>
    </dc:contributor>
    <dc:rights>
     <cc:Agent>
      <dc:title>CC-BY-SA 4.0</dc:title>
     </cc:Agent>
    </dc:rights>
   </cc:Work>
  </rdf:RDF>
 </metadata>
 <defs>
  <style type="text/css">*{stroke-linecap:butt;stroke-linejoin:round;}</style>
 </defs>
 <g id="figure_1">
  <g id="patch_1">
   <path d="M 0 469.49625 
L 775.364063 469.49625 
L 775.364063 0 
L 0 0 
z
" style="fill:#ffffff;"/>
  </g>
  <g id="axes_1">
   <g id="patch_2">
    <path d="M 55.230625 444.16375 
L 724.830625 444.16375 
L 724.830625 63.64375 
L 55.230625 63.64375 
z
" style="fill:#ffffff;"/>
   </g>
   <g id="matplotlib.axis_1">
    <g id="xtick_1">
     <g id="line2d_1"/>
     <g id="text_1">
      <!-- 2019-01 -->
      <g style="fill:#262626;" transform="translate(56.310739 459.11625)scale(0.16 -0.16)">
       <defs>
        <path d="M 3222 541 
L 3222 0 
L 194 0 
Q 188 203 259 391 
Q 375 700 629 1000 
Q 884 1300 1366 1694 
Q 2113 2306 2375 2664 
Q 2638 3022 2638 3341 
Q 2638 3675 2398 3904 
Q 2159 4134 1775 4134 
Q 1369 4134 1125 3890 
Q 881 3647 878 3216 
L 300 3275 
Q 359 3922 746 4261 
Q 1134 4600 1788 4600 
Q 2447 4600 2831 4234 
Q 3216 3869 3216 3328 
Q 3216 3053 3103 2787 
Q 2991 2522 2730 2228 
Q 2469 1934 1863 1422 
Q 1356 997 1212 845 
Q 1069 694 975 541 
L 3222 541 
z
" id="ArialMT-32" transform="scale(0.015625)"/>
        <path d="M 266 2259 
Q 266 3072 433 3567 
Q 600 4063 929 4331 
Q 1259 4600 1759 4600 
Q 2128 4600 2406 4451 
Q 2684 4303 2865 4023 
Q 3047 3744 3150 3342 
Q 3253 2941 3253 2259 
Q 3253 1453 3087 958 
Q 2922 463 2592 192 
Q 2263 -78 1759 -78 
Q 1097 -78 719 397 
Q 266 969 266 2259 
z
M 844 2259 
Q 844 1131 1108 757 
Q 1372 384 1759 384 
Q 2147 384 2411 759 
Q 2675 1134 2675 2259 
Q 2675 3391 2411 3762 
Q 2147 4134 1753 4134 
Q 1366 4134 1134 3806 
Q 844 3388 844 2259 
z
" id="ArialMT-30" transform="scale(0.015625)"/>
        <path d="M 2384 0 
L 1822 0 
L 1822 3584 
Q 1619 3391 1289 3197 
Q 959 3003 697 2906 
L 697 3450 
Q 1169 3672 1522 3987 
Q 1875 4303 2022 4600 
L 2384 4600 
L 2384 0 
z
" id="ArialMT-31" transform="scale(0.015625)"/>
        <path d="M 350 1059 
L 891 1109 
Q 959 728 1153 556 
Q 1347 384 1650 384 
Q 1909 384 2104 503 
Q 2300 622 2425 820 
Q 2550 1019 2634 1356 
Q 2719 1694 2719 2044 
Q 2719 2081 2716 2156 
Q 2547 1888 2255 1720 
Q 1963 1553 1622 1553 
Q 1053 1553 659 1965 
Q 266 2378 266 3053 
Q 266 3750 677 4175 
Q 1088 4600 1706 4600 
Q 2153 4600 2523 4359 
Q 2894 4119 3086 3673 
Q 3278 3228 3278 2384 
Q 3278 1506 3087 986 
Q 2897 466 2520 194 
Q 2144 -78 1638 -78 
Q 1100 -78 759 220 
Q 419 519 350 1059 
z
M 2653 3081 
Q 2653 3566 2395 3850 
Q 2138 4134 1775 4134 
Q 1400 4134 1122 3828 
Q 844 3522 844 3034 
Q 844 2597 1108 2323 
Q 1372 2050 1759 2050 
Q 2150 2050 2401 2323 
Q 2653 2597 2653 3081 
z
" id="ArialMT-39" transform="scale(0.015625)"/>
        <path d="M 203 1375 
L 203 1941 
L 1931 1941 
L 1931 1375 
L 203 1375 
z
" id="ArialMT-2d" transform="scale(0.015625)"/>
       </defs>
       <use xlink:href="#ArialMT-32"/>
       <use x="55.615234" xlink:href="#ArialMT-30"/>
       <use x="111.230469" xlink:href="#ArialMT-31"/>
       <use x="166.845703" xlink:href="#ArialMT-39"/>
       <use x="222.460938" xlink:href="#ArialMT-2d"/>
       <use x="255.761719" xlink:href="#ArialMT-30"/>
       <use x="311.376953" xlink:href="#ArialMT-31"/>
      </g>
     </g>
    </g>
    <g id="xtick_2">
     <g id="line2d_2"/>
     <g id="text_2">
      <!-- 2019-04 -->
      <g style="fill:#262626;" transform="translate(134.687641 459.11625)scale(0.16 -0.16)">
       <defs>
        <path d="M 2069 0 
L 2069 1097 
L 81 1097 
L 81 1613 
L 2172 4581 
L 2631 4581 
L 2631 1613 
L 3250 1613 
L 3250 1097 
L 2631 1097 
L 2631 0 
L 2069 0 
z
M 2069 1613 
L 2069 3678 
L 634 1613 
L 2069 1613 
z
" id="ArialMT-34" transform="scale(0.015625)"/>
       </defs>
       <use xlink:href="#ArialMT-32"/>
       <use x="55.615234" xlink:href="#ArialMT-30"/>
       <use x="111.230469" xlink:href="#ArialMT-31"/>
       <use x="166.845703" xlink:href="#ArialMT-39"/>
       <use x="222.460938" xlink:href="#ArialMT-2d"/>
       <use x="255.761719" xlink:href="#ArialMT-30"/>
       <use x="311.376953" xlink:href="#ArialMT-34"/>
      </g>
     </g>
    </g>
    <g id="xtick_3">
     <g id="line2d_3"/>
     <g id="text_3">
      <!-- 2019-07 -->
      <g style="fill:#262626;" transform="translate(213.935397 459.11625)scale(0.16 -0.16)">
       <defs>
        <path d="M 303 3981 
L 303 4522 
L 3269 4522 
L 3269 4084 
Q 2831 3619 2401 2847 
Q 1972 2075 1738 1259 
Q 1569 684 1522 0 
L 944 0 
Q 953 541 1156 1306 
Q 1359 2072 1739 2783 
Q 2119 3494 2547 3981 
L 303 3981 
z
" id="ArialMT-37" transform="scale(0.015625)"/>
       </defs>
       <use xlink:href="#ArialMT-32"/>
       <use x="55.615234" xlink:href="#ArialMT-30"/>
       <use x="111.230469" xlink:href="#ArialMT-31"/>
       <use x="166.845703" xlink:href="#ArialMT-39"/>
       <use x="222.460938" xlink:href="#ArialMT-2d"/>
       <use x="255.761719" xlink:href="#ArialMT-30"/>
       <use x="311.376953" xlink:href="#ArialMT-37"/>
      </g>
     </g>
    </g>
    <g id="xtick_4">
     <g id="line2d_4"/>
     <g id="text_4">
      <!-- 2019-10 -->
      <g style="fill:#262626;" transform="translate(294.054008 459.11625)scale(0.16 -0.16)">
       <use xlink:href="#ArialMT-32"/>
       <use x="55.615234" xlink:href="#ArialMT-30"/>
       <use x="111.230469" xlink:href="#ArialMT-31"/>
       <use x="166.845703" xlink:href="#ArialMT-39"/>
       <use x="222.460938" xlink:href="#ArialMT-2d"/>
       <use x="255.761719" xlink:href="#ArialMT-31"/>
       <use x="311.376953" xlink:href="#ArialMT-30"/>
      </g>
     </g>
    </g>
    <g id="xtick_5">
     <g id="line2d_5"/>
     <g id="text_5">
      <!-- 2020-01 -->
      <g style="fill:#262626;" transform="translate(374.172619 459.11625)scale(0.16 -0.16)">
       <use xlink:href="#ArialMT-32"/>
       <use x="55.615234" xlink:href="#ArialMT-30"/>
       <use x="111.230469" xlink:href="#ArialMT-32"/>
       <use x="166.845703" xlink:href="#ArialMT-30"/>
       <use x="222.460938" xlink:href="#ArialMT-2d"/>
       <use x="255.761719" xlink:href="#ArialMT-30"/>
       <use x="311.376953" xlink:href="#ArialMT-31"/>
      </g>
     </g>
    </g>
    <g id="xtick_6">
     <g id="line2d_6"/>
     <g id="text_6">
      <!-- 2020-04 -->
      <g style="fill:#262626;" transform="translate(453.420376 459.11625)scale(0.16 -0.16)">
       <use xlink:href="#ArialMT-32"/>
       <use x="55.615234" xlink:href="#ArialMT-30"/>
       <use x="111.230469" xlink:href="#ArialMT-32"/>
       <use x="166.845703" xlink:href="#ArialMT-30"/>
       <use x="222.460938" xlink:href="#ArialMT-2d"/>
       <use x="255.761719" xlink:href="#ArialMT-30"/>
       <use x="311.376953" xlink:href="#ArialMT-34"/>
      </g>
     </g>
    </g>
    <g id="xtick_7">
     <g id="line2d_7"/>
     <g id="text_7">
      <!-- 2020-07 -->
      <g style="fill:#262626;" transform="translate(532.668132 459.11625)scale(0.16 -0.16)">
       <use xlink:href="#ArialMT-32"/>
       <use x="55.615234" xlink:href="#ArialMT-30"/>
       <use x="111.230469" xlink:href="#ArialMT-32"/>
       <use x="166.845703" xlink:href="#ArialMT-30"/>
       <use x="222.460938" xlink:href="#ArialMT-2d"/>
       <use x="255.761719" xlink:href="#ArialMT-30"/>
       <use x="311.376953" xlink:href="#ArialMT-37"/>
      </g>
     </g>
    </g>
    <g id="xtick_8">
     <g id="line2d_8"/>
     <g id="text_8">
      <!-- 2020-10 -->
      <g style="fill:#262626;" transform="translate(612.786743 459.11625)scale(0.16 -0.16)">
       <use xlink:href="#ArialMT-32"/>
       <use x="55.615234" xlink:href="#ArialMT-30"/>
       <use x="111.230469" xlink:href="#ArialMT-32"/>
       <use x="166.845703" xlink:href="#ArialMT-30"/>
       <use x="222.460938" xlink:href="#ArialMT-2d"/>
       <use x="255.761719" xlink:href="#ArialMT-31"/>
       <use x="311.376953" xlink:href="#ArialMT-30"/>
      </g>
     </g>
    </g>
    <g id="xtick_9">
     <g id="line2d_9"/>
     <g id="text_9">
      <!-- 2021-01 -->
      <g style="fill:#262626;" transform="translate(692.905354 459.11625)scale(0.16 -0.16)">
       <use xlink:href="#ArialMT-32"/>
       <use x="55.615234" xlink:href="#ArialMT-30"/>
       <use x="111.230469" xlink:href="#ArialMT-32"/>
       <use x="166.845703" xlink:href="#ArialMT-31"/>
       <use x="222.460938" xlink:href="#ArialMT-2d"/>
       <use x="255.761719" xlink:href="#ArialMT-30"/>
       <use x="311.376953" xlink:href="#ArialMT-31"/>
      </g>
     </g>
    </g>
   </g>
   <g id="matplotlib.axis_2">
    <g id="ytick_1">
     <g id="line2d_10"/>
     <g id="text_10">
      <!-- 0.0 -->
      <g style="fill:#262626;" transform="translate(29.490625 449.89)scale(0.16 -0.16)">
       <defs>
        <path d="M 581 0 
L 581 641 
L 1222 641 
L 1222 0 
L 581 0 
z
" id="ArialMT-2e" transform="scale(0.015625)"/>
       </defs>
       <use xlink:href="#ArialMT-30"/>
       <use x="55.615234" xlink:href="#ArialMT-2e"/>
       <use x="83.398438" xlink:href="#ArialMT-30"/>
      </g>
     </g>
    </g>
    <g id="ytick_2">
     <g id="line2d_11"/>
     <g id="text_11">
      <!-- 0.2 -->
      <g style="fill:#262626;" transform="translate(29.490625 399.154)scale(0.16 -0.16)">
       <use xlink:href="#ArialMT-30"/>
       <use x="55.615234" xlink:href="#ArialMT-2e"/>
       <use x="83.398438" xlink:href="#ArialMT-32"/>
      </g>
     </g>
    </g>
    <g id="ytick_3">
     <g id="line2d_12"/>
     <g id="text_12">
      <!-- 0.4 -->
      <g style="fill:#262626;" transform="translate(29.490625 348.418)scale(0.16 -0.16)">
       <use xlink:href="#ArialMT-30"/>
       <use x="55.615234" xlink:href="#ArialMT-2e"/>
       <use x="83.398438" xlink:href="#ArialMT-34"/>
      </g>
     </g>
    </g>
    <g id="ytick_4">
     <g id="line2d_13"/>
     <g id="text_13">
      <!-- 0.6 -->
      <g style="fill:#262626;" transform="translate(29.490625 297.682)scale(0.16 -0.16)">
       <defs>
        <path d="M 3184 3459 
L 2625 3416 
Q 2550 3747 2413 3897 
Q 2184 4138 1850 4138 
Q 1581 4138 1378 3988 
Q 1113 3794 959 3422 
Q 806 3050 800 2363 
Q 1003 2672 1297 2822 
Q 1591 2972 1913 2972 
Q 2475 2972 2870 2558 
Q 3266 2144 3266 1488 
Q 3266 1056 3080 686 
Q 2894 316 2569 119 
Q 2244 -78 1831 -78 
Q 1128 -78 684 439 
Q 241 956 241 2144 
Q 241 3472 731 4075 
Q 1159 4600 1884 4600 
Q 2425 4600 2770 4297 
Q 3116 3994 3184 3459 
z
M 888 1484 
Q 888 1194 1011 928 
Q 1134 663 1356 523 
Q 1578 384 1822 384 
Q 2178 384 2434 671 
Q 2691 959 2691 1453 
Q 2691 1928 2437 2201 
Q 2184 2475 1800 2475 
Q 1419 2475 1153 2201 
Q 888 1928 888 1484 
z
" id="ArialMT-36" transform="scale(0.015625)"/>
       </defs>
       <use xlink:href="#ArialMT-30"/>
       <use x="55.615234" xlink:href="#ArialMT-2e"/>
       <use x="83.398438" xlink:href="#ArialMT-36"/>
      </g>
     </g>
    </g>
    <g id="ytick_5">
     <g id="line2d_14"/>
     <g id="text_14">
      <!-- 0.8 -->
      <g style="fill:#262626;" transform="translate(29.490625 246.946)scale(0.16 -0.16)">
       <defs>
        <path d="M 1131 2484 
Q 781 2613 612 2850 
Q 444 3088 444 3419 
Q 444 3919 803 4259 
Q 1163 4600 1759 4600 
Q 2359 4600 2725 4251 
Q 3091 3903 3091 3403 
Q 3091 3084 2923 2848 
Q 2756 2613 2416 2484 
Q 2838 2347 3058 2040 
Q 3278 1734 3278 1309 
Q 3278 722 2862 322 
Q 2447 -78 1769 -78 
Q 1091 -78 675 323 
Q 259 725 259 1325 
Q 259 1772 486 2073 
Q 713 2375 1131 2484 
z
M 1019 3438 
Q 1019 3113 1228 2906 
Q 1438 2700 1772 2700 
Q 2097 2700 2305 2904 
Q 2513 3109 2513 3406 
Q 2513 3716 2298 3927 
Q 2084 4138 1766 4138 
Q 1444 4138 1231 3931 
Q 1019 3725 1019 3438 
z
M 838 1322 
Q 838 1081 952 856 
Q 1066 631 1291 507 
Q 1516 384 1775 384 
Q 2178 384 2440 643 
Q 2703 903 2703 1303 
Q 2703 1709 2433 1975 
Q 2163 2241 1756 2241 
Q 1359 2241 1098 1978 
Q 838 1716 838 1322 
z
" id="ArialMT-38" transform="scale(0.015625)"/>
       </defs>
       <use xlink:href="#ArialMT-30"/>
       <use x="55.615234" xlink:href="#ArialMT-2e"/>
       <use x="83.398438" xlink:href="#ArialMT-38"/>
      </g>
     </g>
    </g>
    <g id="ytick_6">
     <g id="line2d_15"/>
     <g id="text_15">
      <!-- 1.0 -->
      <g style="fill:#262626;" transform="translate(29.490625 196.21)scale(0.16 -0.16)">
       <use xlink:href="#ArialMT-31"/>
       <use x="55.615234" xlink:href="#ArialMT-2e"/>
       <use x="83.398438" xlink:href="#ArialMT-30"/>
      </g>
     </g>
    </g>
    <g id="ytick_7">
     <g id="line2d_16"/>
     <g id="text_16">
      <!-- 1.2 -->
      <g style="fill:#262626;" transform="translate(29.490625 145.474)scale(0.16 -0.16)">
       <use xlink:href="#ArialMT-31"/>
       <use x="55.615234" xlink:href="#ArialMT-2e"/>
       <use x="83.398438" xlink:href="#ArialMT-32"/>
      </g>
     </g>
    </g>
    <g id="ytick_8">
     <g id="line2d_17"/>
     <g id="text_17">
      <!-- 1.4 -->
      <g style="fill:#262626;" transform="translate(29.490625 94.738)scale(0.16 -0.16)">
       <use xlink:href="#ArialMT-31"/>
       <use x="55.615234" xlink:href="#ArialMT-2e"/>
       <use x="83.398438" xlink:href="#ArialMT-34"/>
      </g>
     </g>
    </g>
    <g id="text_18">
     <!-- Normalized Collision Rate -->
     <g style="fill:#262626;" transform="translate(21.515625 368.942812)rotate(-90)scale(0.2 -0.2)">
      <defs>
       <path d="M 488 0 
L 488 4581 
L 1109 4581 
L 3516 984 
L 3516 4581 
L 4097 4581 
L 4097 0 
L 3475 0 
L 1069 3600 
L 1069 0 
L 488 0 
z
" id="ArialMT-4e" transform="scale(0.015625)"/>
       <path d="M 213 1659 
Q 213 2581 725 3025 
Q 1153 3394 1769 3394 
Q 2453 3394 2887 2945 
Q 3322 2497 3322 1706 
Q 3322 1066 3130 698 
Q 2938 331 2570 128 
Q 2203 -75 1769 -75 
Q 1072 -75 642 372 
Q 213 819 213 1659 
z
M 791 1659 
Q 791 1022 1069 705 
Q 1347 388 1769 388 
Q 2188 388 2466 706 
Q 2744 1025 2744 1678 
Q 2744 2294 2464 2611 
Q 2184 2928 1769 2928 
Q 1347 2928 1069 2612 
Q 791 2297 791 1659 
z
" id="ArialMT-6f" transform="scale(0.015625)"/>
       <path d="M 416 0 
L 416 3319 
L 922 3319 
L 922 2816 
Q 1116 3169 1280 3281 
Q 1444 3394 1641 3394 
Q 1925 3394 2219 3213 
L 2025 2691 
Q 1819 2813 1613 2813 
Q 1428 2813 1281 2702 
Q 1134 2591 1072 2394 
Q 978 2094 978 1738 
L 978 0 
L 416 0 
z
" id="ArialMT-72" transform="scale(0.015625)"/>
       <path d="M 422 0 
L 422 3319 
L 925 3319 
L 925 2853 
Q 1081 3097 1340 3245 
Q 1600 3394 1931 3394 
Q 2300 3394 2536 3241 
Q 2772 3088 2869 2813 
Q 3263 3394 3894 3394 
Q 4388 3394 4653 3120 
Q 4919 2847 4919 2278 
L 4919 0 
L 4359 0 
L 4359 2091 
Q 4359 2428 4304 2576 
Q 4250 2725 4106 2815 
Q 3963 2906 3769 2906 
Q 3419 2906 3187 2673 
Q 2956 2441 2956 1928 
L 2956 0 
L 2394 0 
L 2394 2156 
Q 2394 2531 2256 2718 
Q 2119 2906 1806 2906 
Q 1569 2906 1367 2781 
Q 1166 2656 1075 2415 
Q 984 2175 984 1722 
L 984 0 
L 422 0 
z
" id="ArialMT-6d" transform="scale(0.015625)"/>
       <path d="M 2588 409 
Q 2275 144 1986 34 
Q 1697 -75 1366 -75 
Q 819 -75 525 192 
Q 231 459 231 875 
Q 231 1119 342 1320 
Q 453 1522 633 1644 
Q 813 1766 1038 1828 
Q 1203 1872 1538 1913 
Q 2219 1994 2541 2106 
Q 2544 2222 2544 2253 
Q 2544 2597 2384 2738 
Q 2169 2928 1744 2928 
Q 1347 2928 1158 2789 
Q 969 2650 878 2297 
L 328 2372 
Q 403 2725 575 2942 
Q 747 3159 1072 3276 
Q 1397 3394 1825 3394 
Q 2250 3394 2515 3294 
Q 2781 3194 2906 3042 
Q 3031 2891 3081 2659 
Q 3109 2516 3109 2141 
L 3109 1391 
Q 3109 606 3145 398 
Q 3181 191 3288 0 
L 2700 0 
Q 2613 175 2588 409 
z
M 2541 1666 
Q 2234 1541 1622 1453 
Q 1275 1403 1131 1340 
Q 988 1278 909 1158 
Q 831 1038 831 891 
Q 831 666 1001 516 
Q 1172 366 1500 366 
Q 1825 366 2078 508 
Q 2331 650 2450 897 
Q 2541 1088 2541 1459 
L 2541 1666 
z
" id="ArialMT-61" transform="scale(0.015625)"/>
       <path d="M 409 0 
L 409 4581 
L 972 4581 
L 972 0 
L 409 0 
z
" id="ArialMT-6c" transform="scale(0.015625)"/>
       <path d="M 425 3934 
L 425 4581 
L 988 4581 
L 988 3934 
L 425 3934 
z
M 425 0 
L 425 3319 
L 988 3319 
L 988 0 
L 425 0 
z
" id="ArialMT-69" transform="scale(0.015625)"/>
       <path d="M 125 0 
L 125 456 
L 2238 2881 
Q 1878 2863 1603 2863 
L 250 2863 
L 250 3319 
L 2963 3319 
L 2963 2947 
L 1166 841 
L 819 456 
Q 1197 484 1528 484 
L 3063 484 
L 3063 0 
L 125 0 
z
" id="ArialMT-7a" transform="scale(0.015625)"/>
       <path d="M 2694 1069 
L 3275 997 
Q 3138 488 2766 206 
Q 2394 -75 1816 -75 
Q 1088 -75 661 373 
Q 234 822 234 1631 
Q 234 2469 665 2931 
Q 1097 3394 1784 3394 
Q 2450 3394 2872 2941 
Q 3294 2488 3294 1666 
Q 3294 1616 3291 1516 
L 816 1516 
Q 847 969 1125 678 
Q 1403 388 1819 388 
Q 2128 388 2347 550 
Q 2566 713 2694 1069 
z
M 847 1978 
L 2700 1978 
Q 2663 2397 2488 2606 
Q 2219 2931 1791 2931 
Q 1403 2931 1139 2672 
Q 875 2413 847 1978 
z
" id="ArialMT-65" transform="scale(0.015625)"/>
       <path d="M 2575 0 
L 2575 419 
Q 2259 -75 1647 -75 
Q 1250 -75 917 144 
Q 584 363 401 755 
Q 219 1147 219 1656 
Q 219 2153 384 2558 
Q 550 2963 881 3178 
Q 1213 3394 1622 3394 
Q 1922 3394 2156 3267 
Q 2391 3141 2538 2938 
L 2538 4581 
L 3097 4581 
L 3097 0 
L 2575 0 
z
M 797 1656 
Q 797 1019 1065 703 
Q 1334 388 1700 388 
Q 2069 388 2326 689 
Q 2584 991 2584 1609 
Q 2584 2291 2321 2609 
Q 2059 2928 1675 2928 
Q 1300 2928 1048 2622 
Q 797 2316 797 1656 
z
" id="ArialMT-64" transform="scale(0.015625)"/>
       <path id="ArialMT-20" transform="scale(0.015625)"/>
       <path d="M 3763 1606 
L 4369 1453 
Q 4178 706 3683 314 
Q 3188 -78 2472 -78 
Q 1731 -78 1267 223 
Q 803 525 561 1097 
Q 319 1669 319 2325 
Q 319 3041 592 3573 
Q 866 4106 1370 4382 
Q 1875 4659 2481 4659 
Q 3169 4659 3637 4309 
Q 4106 3959 4291 3325 
L 3694 3184 
Q 3534 3684 3231 3912 
Q 2928 4141 2469 4141 
Q 1941 4141 1586 3887 
Q 1231 3634 1087 3207 
Q 944 2781 944 2328 
Q 944 1744 1114 1308 
Q 1284 872 1643 656 
Q 2003 441 2422 441 
Q 2931 441 3284 734 
Q 3638 1028 3763 1606 
z
" id="ArialMT-43" transform="scale(0.015625)"/>
       <path d="M 197 991 
L 753 1078 
Q 800 744 1014 566 
Q 1228 388 1613 388 
Q 2000 388 2187 545 
Q 2375 703 2375 916 
Q 2375 1106 2209 1216 
Q 2094 1291 1634 1406 
Q 1016 1563 777 1677 
Q 538 1791 414 1992 
Q 291 2194 291 2438 
Q 291 2659 392 2848 
Q 494 3038 669 3163 
Q 800 3259 1026 3326 
Q 1253 3394 1513 3394 
Q 1903 3394 2198 3281 
Q 2494 3169 2634 2976 
Q 2775 2784 2828 2463 
L 2278 2388 
Q 2241 2644 2061 2787 
Q 1881 2931 1553 2931 
Q 1166 2931 1000 2803 
Q 834 2675 834 2503 
Q 834 2394 903 2306 
Q 972 2216 1119 2156 
Q 1203 2125 1616 2013 
Q 2213 1853 2448 1751 
Q 2684 1650 2818 1456 
Q 2953 1263 2953 975 
Q 2953 694 2789 445 
Q 2625 197 2315 61 
Q 2006 -75 1616 -75 
Q 969 -75 630 194 
Q 291 463 197 991 
z
" id="ArialMT-73" transform="scale(0.015625)"/>
       <path d="M 422 0 
L 422 3319 
L 928 3319 
L 928 2847 
Q 1294 3394 1984 3394 
Q 2284 3394 2536 3286 
Q 2788 3178 2913 3003 
Q 3038 2828 3088 2588 
Q 3119 2431 3119 2041 
L 3119 0 
L 2556 0 
L 2556 2019 
Q 2556 2363 2490 2533 
Q 2425 2703 2258 2804 
Q 2091 2906 1866 2906 
Q 1506 2906 1245 2678 
Q 984 2450 984 1813 
L 984 0 
L 422 0 
z
" id="ArialMT-6e" transform="scale(0.015625)"/>
       <path d="M 503 0 
L 503 4581 
L 2534 4581 
Q 3147 4581 3465 4457 
Q 3784 4334 3975 4021 
Q 4166 3709 4166 3331 
Q 4166 2844 3850 2509 
Q 3534 2175 2875 2084 
Q 3116 1969 3241 1856 
Q 3506 1613 3744 1247 
L 4541 0 
L 3778 0 
L 3172 953 
Q 2906 1366 2734 1584 
Q 2563 1803 2427 1890 
Q 2291 1978 2150 2013 
Q 2047 2034 1813 2034 
L 1109 2034 
L 1109 0 
L 503 0 
z
M 1109 2559 
L 2413 2559 
Q 2828 2559 3062 2645 
Q 3297 2731 3419 2920 
Q 3541 3109 3541 3331 
Q 3541 3656 3305 3865 
Q 3069 4075 2559 4075 
L 1109 4075 
L 1109 2559 
z
" id="ArialMT-52" transform="scale(0.015625)"/>
       <path d="M 1650 503 
L 1731 6 
Q 1494 -44 1306 -44 
Q 1000 -44 831 53 
Q 663 150 594 308 
Q 525 466 525 972 
L 525 2881 
L 113 2881 
L 113 3319 
L 525 3319 
L 525 4141 
L 1084 4478 
L 1084 3319 
L 1650 3319 
L 1650 2881 
L 1084 2881 
L 1084 941 
Q 1084 700 1114 631 
Q 1144 563 1211 522 
Q 1278 481 1403 481 
Q 1497 481 1650 503 
z
" id="ArialMT-74" transform="scale(0.015625)"/>
      </defs>
      <use xlink:href="#ArialMT-4e"/>
      <use x="72.216797" xlink:href="#ArialMT-6f"/>
      <use x="127.832031" xlink:href="#ArialMT-72"/>
      <use x="161.132812" xlink:href="#ArialMT-6d"/>
      <use x="244.433594" xlink:href="#ArialMT-61"/>
      <use x="300.048828" xlink:href="#ArialMT-6c"/>
      <use x="322.265625" xlink:href="#ArialMT-69"/>
      <use x="344.482422" xlink:href="#ArialMT-7a"/>
      <use x="394.482422" xlink:href="#ArialMT-65"/>
      <use x="450.097656" xlink:href="#ArialMT-64"/>
      <use x="505.712891" xlink:href="#ArialMT-20"/>
      <use x="533.496094" xlink:href="#ArialMT-43"/>
      <use x="605.712891" xlink:href="#ArialMT-6f"/>
      <use x="661.328125" xlink:href="#ArialMT-6c"/>
      <use x="683.544922" xlink:href="#ArialMT-6c"/>
      <use x="705.761719" xlink:href="#ArialMT-69"/>
      <use x="727.978516" xlink:href="#ArialMT-73"/>
      <use x="777.978516" xlink:href="#ArialMT-69"/>
      <use x="800.195312" xlink:href="#ArialMT-6f"/>
      <use x="855.810547" xlink:href="#ArialMT-6e"/>
      <use x="911.425781" xlink:href="#ArialMT-20"/>
      <use x="939.208984" xlink:href="#ArialMT-52"/>
      <use x="1011.425781" xlink:href="#ArialMT-61"/>
      <use x="1067.041016" xlink:href="#ArialMT-74"/>
      <use x="1094.824219" xlink:href="#ArialMT-65"/>
     </g>
    </g>
   </g>
   <g id="line2d_18">
    <path clip-path="url(#p7451be01ff)" d="M 90.892115 214.096935 
L 96.988097 214.096935 
L 96.988097 195.497508 
L 103.084078 195.497508 
L 103.084078 210.457916 
L 109.180059 210.457916 
L 109.180059 163.959351 
L 115.276041 163.959351 
L 115.276041 174.47207 
L 121.372022 174.47207 
L 121.372022 181.750106 
L 127.468003 181.750106 
L 127.468003 193.880167 
L 133.563984 193.880167 
L 133.563984 210.053581 
L 139.659966 210.053581 
L 139.659966 174.067735 
L 145.755947 174.067735 
L 145.755947 201.966874 
L 151.851928 201.966874 
L 151.851928 184.984789 
L 157.947909 184.984789 
L 157.947909 191.454155 
L 164.043891 191.454155 
L 164.043891 186.602131 
L 170.139872 186.602131 
L 170.139872 197.11485 
L 176.235853 197.11485 
L 176.235853 175.280741 
L 182.331835 175.280741 
L 182.331835 207.627569 
L 188.427816 207.627569 
L 188.427816 185.389125 
L 194.523797 185.389125 
L 194.523797 182.963112 
L 200.619778 182.963112 
L 200.619778 186.602131 
L 206.71576 186.602131 
L 206.71576 174.876405 
L 212.811741 174.876405 
L 212.811741 227.440001 
L 218.907722 227.440001 
L 218.907722 181.750106 
L 225.003703 181.750106 
L 225.003703 166.385363 
L 231.099685 166.385363 
L 231.099685 189.836813 
L 237.195666 189.836813 
L 237.195666 203.584215 
L 243.291647 203.584215 
L 243.291647 187.815137 
L 249.387629 187.815137 
L 249.387629 235.931044 
L 255.48361 235.931044 
L 255.48361 198.327856 
L 261.579591 198.327856 
L 261.579591 193.475832 
L 267.675572 193.475832 
L 267.675572 195.093173 
L 279.867535 195.093173 
L 279.867535 180.941436 
L 285.963516 180.941436 
L 285.963516 178.919759 
L 292.059497 178.919759 
L 292.059497 143.338248 
L 298.155479 143.338248 
L 298.155479 199.136527 
L 304.25146 199.136527 
L 304.25146 173.663399 
L 310.347441 173.663399 
L 310.347441 150.616284 
L 316.443423 150.616284 
L 316.443423 170.428717 
L 322.539404 170.428717 
L 322.539404 166.789698 
L 328.635385 166.789698 
L 328.635385 158.702991 
L 334.731366 158.702991 
L 334.731366 182.154442 
L 340.827348 182.154442 
L 340.827348 172.046058 
L 346.923329 172.046058 
L 346.923329 161.533339 
L 353.01931 161.533339 
L 353.01931 168.40704 
L 359.115291 168.40704 
L 359.115291 171.641723 
L 365.211273 171.641723 
L 365.211273 159.107327 
L 371.307254 159.107327 
L 371.307254 148.594608 
L 377.403235 148.594608 
L 377.403235 202.371209 
L 383.499216 202.371209 
L 383.499216 178.515424 
L 389.595198 178.515424 
L 389.595198 174.067735 
L 395.691179 174.067735 
L 395.691179 168.40704 
L 401.78716 168.40704 
L 401.78716 287.685969 
L 407.883142 287.685969 
L 407.883142 272.725561 
L 413.979123 272.725561 
L 413.979123 216.118611 
L 420.075104 216.118611 
L 420.075104 234.718038 
L 426.171085 234.718038 
L 426.171085 210.862252 
L 432.267067 210.862252 
L 432.267067 208.840575 
L 438.363048 208.840575 
L 438.363048 218.948959 
L 444.459029 218.948959 
L 444.459029 212.883929 
L 450.55501 212.883929 
L 450.55501 211.670922 
L 456.650992 211.670922 
L 456.650992 200.753868 
L 462.746973 200.753868 
L 462.746973 204.797221 
L 468.842954 204.797221 
L 468.842954 208.840575 
L 474.938936 208.840575 
L 474.938936 310.733084 
L 481.034917 310.733084 
L 481.034917 347.527601 
L 487.130898 347.527601 
L 487.130898 320.437132 
L 493.226879 320.437132 
L 493.226879 327.310833 
L 499.322861 327.310833 
L 499.322861 326.097827 
L 505.418842 326.097827 
L 505.418842 304.668053 
L 511.514823 304.668053 
L 511.514823 298.198688 
L 517.610804 298.198688 
L 517.610804 296.581346 
L 523.706786 296.581346 
L 523.706786 277.98192 
L 529.802767 277.98192 
L 529.802767 294.964005 
L 535.898748 294.964005 
L 535.898748 266.66053 
L 541.99473 266.66053 
L 541.99473 281.216603 
L 548.090711 281.216603 
L 548.090711 255.743476 
L 554.186692 255.743476 
L 554.186692 257.360817 
L 560.282673 257.360817 
L 560.282673 270.703884 
L 566.378655 270.703884 
L 566.378655 269.086542 
L 572.474636 269.086542 
L 572.474636 272.321225 
L 578.570617 272.321225 
L 578.570617 266.256195 
L 584.666598 266.256195 
L 584.666598 273.129896 
L 590.76258 273.129896 
L 590.76258 261.404171 
L 596.858561 261.404171 
L 596.858561 270.299549 
L 602.954542 270.299549 
L 602.954542 244.422086 
L 609.050524 244.422086 
L 609.050524 263.830183 
L 615.146505 263.830183 
L 615.146505 256.956482 
L 621.242486 256.956482 
L 621.242486 264.234518 
L 627.338467 264.234518 
L 627.338467 264.638854 
L 633.434449 264.638854 
L 633.434449 246.443763 
L 639.53043 246.443763 
L 639.53043 235.931044 
L 645.626411 235.931044 
L 645.626411 212.075258 
L 651.722392 212.075258 
L 651.722392 256.956482 
L 657.818374 256.956482 
L 657.818374 244.422086 
L 663.914355 244.422086 
L 663.914355 237.548385 
L 670.010336 237.548385 
L 670.010336 230.674684 
L 676.106318 230.674684 
L 676.106318 238.761391 
L 682.202299 238.761391 
L 682.202299 237.95272 
L 688.29828 237.95272 
L 688.29828 207.627569 
L 694.394261 207.627569 
L 694.394261 275.960243 
L 694.394261 275.960243 
" style="fill:none;stroke:#1f77b4;stroke-linecap:round;stroke-width:2;"/>
   </g>
   <g id="line2d_19">
    <path clip-path="url(#p7451be01ff)" d="M 90.892115 228.263726 
L 96.988097 228.263726 
L 96.988097 179.724142 
L 103.084078 179.724142 
L 103.084078 186.550021 
L 109.180059 186.550021 
L 109.180059 175.931987 
L 115.276041 175.931987 
L 115.276041 154.190299 
L 121.372022 154.190299 
L 121.372022 181.746625 
L 127.468003 181.746625 
L 127.468003 187.055642 
L 133.563984 187.055642 
L 133.563984 196.409624 
L 139.659966 196.409624 
L 139.659966 188.572504 
L 145.755947 188.572504 
L 145.755947 198.432107 
L 151.851928 198.432107 
L 151.851928 180.735384 
L 157.947909 180.735384 
L 157.947909 193.881521 
L 164.043891 193.881521 
L 164.043891 179.724142 
L 170.139872 179.724142 
L 170.139872 181.241004 
L 176.235853 181.241004 
L 176.235853 189.836556 
L 182.331835 189.836556 
L 182.331835 195.398383 
L 188.427816 195.398383 
L 188.427816 183.263487 
L 194.523797 183.263487 
L 194.523797 189.583745 
L 200.619778 189.583745 
L 200.619778 214.611968 
L 206.71576 214.611968 
L 206.71576 188.825314 
L 212.811741 188.825314 
L 212.811741 208.29171 
L 218.907722 208.29171 
L 218.907722 191.353418 
L 225.003703 191.353418 
L 225.003703 199.948969 
L 231.099685 199.948969 
L 231.099685 184.780349 
L 237.195666 184.780349 
L 237.195666 203.741124 
L 243.291647 203.741124 
L 243.291647 197.168055 
L 249.387629 197.168055 
L 249.387629 240.904243 
L 255.48361 240.904243 
L 255.48361 212.083865 
L 261.579591 212.083865 
L 261.579591 193.628711 
L 267.675572 193.628711 
L 267.675572 187.055642 
L 273.771554 187.055642 
L 273.771554 205.005175 
L 279.867535 205.005175 
L 279.867535 201.465831 
L 285.963516 201.465831 
L 285.963516 164.808333 
L 292.059497 164.808333 
L 292.059497 174.415125 
L 298.155479 174.415125 
L 298.155479 202.729883 
L 304.25146 202.729883 
L 304.25146 161.016178 
L 310.347441 161.016178 
L 310.347441 155.959971 
L 316.443423 155.959971 
L 316.443423 161.016178 
L 322.539404 161.016178 
L 322.539404 169.358919 
L 328.635385 169.358919 
L 328.635385 158.993695 
L 334.731366 158.993695 
L 334.731366 175.426367 
L 340.827348 175.426367 
L 340.827348 162.027419 
L 346.923329 162.027419 
L 346.923329 150.650954 
L 353.01931 150.650954 
L 353.01931 152.420626 
L 359.115291 152.420626 
L 359.115291 169.358919 
L 365.211273 169.358919 
L 365.211273 167.336436 
L 371.307254 167.336436 
L 371.307254 158.993695 
L 377.403235 158.993695 
L 377.403235 193.12309 
L 383.499216 193.12309 
L 383.499216 157.224023 
L 389.595198 157.224023 
L 389.595198 164.555522 
L 395.691179 164.555522 
L 395.691179 163.291471 
L 401.78716 163.291471 
L 401.78716 253.544759 
L 407.883142 253.544759 
L 407.883142 263.909983 
L 413.979123 263.909983 
L 413.979123 204.246744 
L 420.075104 204.246744 
L 420.075104 215.623209 
L 426.171085 215.623209 
L 426.171085 202.224262 
L 432.267067 202.224262 
L 432.267067 227.758105 
L 438.363048 227.758105 
L 438.363048 209.050141 
L 444.459029 209.050141 
L 444.459029 222.449088 
L 450.55501 222.449088 
L 450.55501 218.404123 
L 456.650992 218.404123 
L 456.650992 229.527778 
L 462.746973 229.527778 
L 462.746973 278.572982 
L 468.842954 278.572982 
L 468.842954 296.522516 
L 474.938936 296.522516 
L 474.938936 377.674633 
L 481.034917 377.674633 
L 481.034917 398.65789 
L 487.130898 398.65789 
L 487.130898 385.258943 
L 493.226879 385.258943 
L 493.226879 389.556718 
L 499.322861 389.556718 
L 499.322861 397.646649 
L 505.418842 397.646649 
L 505.418842 384.753322 
L 511.514823 384.753322 
L 511.514823 381.466788 
L 517.610804 381.466788 
L 517.610804 373.376857 
L 523.706786 373.376857 
L 523.706786 362.758823 
L 529.802767 362.758823 
L 529.802767 371.101564 
L 535.898748 371.101564 
L 535.898748 371.607185 
L 541.99473 371.607185 
L 541.99473 376.410581 
L 548.090711 376.410581 
L 548.090711 349.612686 
L 554.186692 349.612686 
L 554.186692 351.635168 
L 560.282673 351.635168 
L 560.282673 356.691375 
L 566.378655 356.691375 
L 566.378655 358.461047 
L 572.474636 358.461047 
L 572.474636 354.921703 
L 578.570617 354.921703 
L 578.570617 353.404841 
L 584.666598 353.404841 
L 584.666598 351.887979 
L 590.76258 351.887979 
L 590.76258 344.050858 
L 596.858561 344.050858 
L 596.858561 353.15203 
L 602.954542 353.15203 
L 602.954542 339.247462 
L 609.050524 339.247462 
L 609.050524 347.084582 
L 615.146505 347.084582 
L 615.146505 331.915962 
L 621.242486 331.915962 
L 621.242486 338.994652 
L 627.338467 338.994652 
L 627.338467 342.533996 
L 633.434449 342.533996 
L 633.434449 323.067601 
L 639.53043 323.067601 
L 639.53043 333.432824 
L 651.722392 333.432824 
L 651.722392 333.180014 
L 657.818374 333.180014 
L 657.818374 304.865257 
L 663.914355 304.865257 
L 663.914355 313.966429 
L 670.010336 313.966429 
L 670.010336 316.494532 
L 676.106318 316.494532 
L 676.106318 332.674393 
L 682.202299 332.674393 
L 682.202299 321.297928 
L 688.29828 321.297928 
L 688.29828 309.415843 
L 694.394261 309.415843 
L 694.394261 342.786807 
L 694.394261 342.786807 
" style="fill:none;stroke:#ff7f0e;stroke-linecap:round;stroke-width:2;"/>
   </g>
   <g id="line2d_20">
    <path clip-path="url(#p7451be01ff)" d="M 471.455518 444.16375 
L 471.455518 63.64375 
" style="fill:none;stroke:#ff0000;stroke-linecap:round;stroke-width:2;"/>
   </g>
   <g id="LineCollection_1">
    <path clip-path="url(#p7451be01ff)" d="M 85.666989 190.48375 
L 242.420793 190.48375 
" style="fill:none;stroke:#2ca02c;stroke-width:3;"/>
   </g>
   <g id="line2d_21"/>
   <g id="line2d_22"/>
   <g id="patch_3">
    <path d="M 55.230625 444.16375 
L 55.230625 63.64375 
" style="fill:none;stroke:#262626;stroke-linecap:square;stroke-linejoin:miter;stroke-width:1.25;"/>
   </g>
   <g id="patch_4">
    <path d="M 724.830625 444.16375 
L 724.830625 63.64375 
" style="fill:none;stroke:#262626;stroke-linecap:square;stroke-linejoin:miter;stroke-width:1.25;"/>
   </g>
   <g id="patch_5">
    <path d="M 55.230625 444.16375 
L 724.830625 444.16375 
" style="fill:none;stroke:#262626;stroke-linecap:square;stroke-linejoin:miter;stroke-width:1.25;"/>
   </g>
   <g id="patch_6">
    <path d="M 55.230625 63.64375 
L 724.830625 63.64375 
" style="fill:none;stroke:#262626;stroke-linecap:square;stroke-linejoin:miter;stroke-width:1.25;"/>
   </g>
   <g id="text_19">
    <!-- Toyota -->
    <g style="fill:#ff7f0e;" transform="translate(589.020871 413.72215)scale(0.3 -0.3)">
     <defs>
      <path d="M 1659 0 
L 1659 4041 
L 150 4041 
L 150 4581 
L 3781 4581 
L 3781 4041 
L 2266 4041 
L 2266 0 
L 1659 0 
z
" id="ArialMT-54" transform="scale(0.015625)"/>
      <path d="M 397 -1278 
L 334 -750 
Q 519 -800 656 -800 
Q 844 -800 956 -737 
Q 1069 -675 1141 -563 
Q 1194 -478 1313 -144 
Q 1328 -97 1363 -6 
L 103 3319 
L 709 3319 
L 1400 1397 
Q 1534 1031 1641 628 
Q 1738 1016 1872 1384 
L 2581 3319 
L 3144 3319 
L 1881 -56 
Q 1678 -603 1566 -809 
Q 1416 -1088 1222 -1217 
Q 1028 -1347 759 -1347 
Q 597 -1347 397 -1278 
z
" id="ArialMT-79" transform="scale(0.015625)"/>
     </defs>
     <use xlink:href="#ArialMT-54"/>
     <use x="49.958984" xlink:href="#ArialMT-6f"/>
     <use x="105.574219" xlink:href="#ArialMT-79"/>
     <use x="155.574219" xlink:href="#ArialMT-6f"/>
     <use x="211.189453" xlink:href="#ArialMT-74"/>
     <use x="238.972656" xlink:href="#ArialMT-61"/>
    </g>
   </g>
   <g id="text_20">
    <!-- Ford -->
    <g style="fill:#1f77b4;" transform="translate(589.020871 190.48375)scale(0.3 -0.3)">
     <defs>
      <path d="M 525 0 
L 525 4581 
L 3616 4581 
L 3616 4041 
L 1131 4041 
L 1131 2622 
L 3281 2622 
L 3281 2081 
L 1131 2081 
L 1131 0 
L 525 0 
z
" id="ArialMT-46" transform="scale(0.015625)"/>
     </defs>
     <use xlink:href="#ArialMT-46"/>
     <use x="61.083984" xlink:href="#ArialMT-6f"/>
     <use x="116.699219" xlink:href="#ArialMT-72"/>
     <use x="150" xlink:href="#ArialMT-64"/>
    </g>
   </g>
   <g id="text_21">
    <!-- Stay-at-home Order -->
    <g style="fill:#ff0000;" transform="translate(478.422353 114.37975)scale(0.24 -0.24)">
     <defs>
      <path d="M 288 1472 
L 859 1522 
Q 900 1178 1048 958 
Q 1197 738 1509 602 
Q 1822 466 2213 466 
Q 2559 466 2825 569 
Q 3091 672 3220 851 
Q 3350 1031 3350 1244 
Q 3350 1459 3225 1620 
Q 3100 1781 2813 1891 
Q 2628 1963 1997 2114 
Q 1366 2266 1113 2400 
Q 784 2572 623 2826 
Q 463 3081 463 3397 
Q 463 3744 659 4045 
Q 856 4347 1234 4503 
Q 1613 4659 2075 4659 
Q 2584 4659 2973 4495 
Q 3363 4331 3572 4012 
Q 3781 3694 3797 3291 
L 3216 3247 
Q 3169 3681 2898 3903 
Q 2628 4125 2100 4125 
Q 1550 4125 1298 3923 
Q 1047 3722 1047 3438 
Q 1047 3191 1225 3031 
Q 1400 2872 2139 2705 
Q 2878 2538 3153 2413 
Q 3553 2228 3743 1945 
Q 3934 1663 3934 1294 
Q 3934 928 3725 604 
Q 3516 281 3123 101 
Q 2731 -78 2241 -78 
Q 1619 -78 1198 103 
Q 778 284 539 648 
Q 300 1013 288 1472 
z
" id="ArialMT-53" transform="scale(0.015625)"/>
      <path d="M 422 0 
L 422 4581 
L 984 4581 
L 984 2938 
Q 1378 3394 1978 3394 
Q 2347 3394 2619 3248 
Q 2891 3103 3008 2847 
Q 3125 2591 3125 2103 
L 3125 0 
L 2563 0 
L 2563 2103 
Q 2563 2525 2380 2717 
Q 2197 2909 1863 2909 
Q 1613 2909 1392 2779 
Q 1172 2650 1078 2428 
Q 984 2206 984 1816 
L 984 0 
L 422 0 
z
" id="ArialMT-68" transform="scale(0.015625)"/>
      <path d="M 309 2231 
Q 309 3372 921 4017 
Q 1534 4663 2503 4663 
Q 3138 4663 3647 4359 
Q 4156 4056 4423 3514 
Q 4691 2972 4691 2284 
Q 4691 1588 4409 1038 
Q 4128 488 3612 205 
Q 3097 -78 2500 -78 
Q 1853 -78 1343 234 
Q 834 547 571 1087 
Q 309 1628 309 2231 
z
M 934 2222 
Q 934 1394 1379 917 
Q 1825 441 2497 441 
Q 3181 441 3623 922 
Q 4066 1403 4066 2288 
Q 4066 2847 3877 3264 
Q 3688 3681 3323 3911 
Q 2959 4141 2506 4141 
Q 1863 4141 1398 3698 
Q 934 3256 934 2222 
z
" id="ArialMT-4f" transform="scale(0.015625)"/>
     </defs>
     <use xlink:href="#ArialMT-53"/>
     <use x="66.699219" xlink:href="#ArialMT-74"/>
     <use x="94.482422" xlink:href="#ArialMT-61"/>
     <use x="150.097656" xlink:href="#ArialMT-79"/>
     <use x="200.097656" xlink:href="#ArialMT-2d"/>
     <use x="233.398438" xlink:href="#ArialMT-61"/>
     <use x="289.013672" xlink:href="#ArialMT-74"/>
     <use x="316.796875" xlink:href="#ArialMT-2d"/>
     <use x="350.097656" xlink:href="#ArialMT-68"/>
     <use x="405.712891" xlink:href="#ArialMT-6f"/>
     <use x="461.328125" xlink:href="#ArialMT-6d"/>
     <use x="544.628906" xlink:href="#ArialMT-65"/>
     <use x="600.244141" xlink:href="#ArialMT-20"/>
     <use x="628.027344" xlink:href="#ArialMT-4f"/>
     <use x="705.810547" xlink:href="#ArialMT-72"/>
     <use x="739.111328" xlink:href="#ArialMT-64"/>
     <use x="794.726562" xlink:href="#ArialMT-65"/>
     <use x="850.341797" xlink:href="#ArialMT-72"/>
    </g>
   </g>
   <g id="text_22">
    <!-- Mean normalized from -->
    <g style="fill:#2ca02c;" transform="translate(69.991608 291.93925)scale(0.24 -0.24)">
     <defs>
      <path d="M 475 0 
L 475 4581 
L 1388 4581 
L 2472 1338 
Q 2622 884 2691 659 
Q 2769 909 2934 1394 
L 4031 4581 
L 4847 4581 
L 4847 0 
L 4263 0 
L 4263 3834 
L 2931 0 
L 2384 0 
L 1059 3900 
L 1059 0 
L 475 0 
z
" id="ArialMT-4d" transform="scale(0.015625)"/>
      <path d="M 556 0 
L 556 2881 
L 59 2881 
L 59 3319 
L 556 3319 
L 556 3672 
Q 556 4006 616 4169 
Q 697 4388 901 4523 
Q 1106 4659 1475 4659 
Q 1713 4659 2000 4603 
L 1916 4113 
Q 1741 4144 1584 4144 
Q 1328 4144 1222 4034 
Q 1116 3925 1116 3625 
L 1116 3319 
L 1763 3319 
L 1763 2881 
L 1116 2881 
L 1116 0 
L 556 0 
z
" id="ArialMT-66" transform="scale(0.015625)"/>
     </defs>
     <use xlink:href="#ArialMT-4d"/>
     <use x="83.300781" xlink:href="#ArialMT-65"/>
     <use x="138.916016" xlink:href="#ArialMT-61"/>
     <use x="194.53125" xlink:href="#ArialMT-6e"/>
     <use x="250.146484" xlink:href="#ArialMT-20"/>
     <use x="277.929688" xlink:href="#ArialMT-6e"/>
     <use x="333.544922" xlink:href="#ArialMT-6f"/>
     <use x="389.160156" xlink:href="#ArialMT-72"/>
     <use x="422.460938" xlink:href="#ArialMT-6d"/>
     <use x="505.761719" xlink:href="#ArialMT-61"/>
     <use x="561.376953" xlink:href="#ArialMT-6c"/>
     <use x="583.59375" xlink:href="#ArialMT-69"/>
     <use x="605.810547" xlink:href="#ArialMT-7a"/>
     <use x="655.810547" xlink:href="#ArialMT-65"/>
     <use x="711.425781" xlink:href="#ArialMT-64"/>
     <use x="767.041016" xlink:href="#ArialMT-20"/>
     <use x="794.824219" xlink:href="#ArialMT-66"/>
     <use x="822.607422" xlink:href="#ArialMT-72"/>
     <use x="855.908203" xlink:href="#ArialMT-6f"/>
     <use x="911.523438" xlink:href="#ArialMT-6d"/>
    </g>
    <!-- January through June -->
    <g style="fill:#2ca02c;" transform="translate(69.991608 317.32375)scale(0.24 -0.24)">
     <defs>
      <path d="M 184 1300 
L 731 1375 
Q 753 850 928 656 
Q 1103 463 1413 463 
Q 1641 463 1806 567 
Q 1972 672 2034 851 
Q 2097 1031 2097 1425 
L 2097 4581 
L 2703 4581 
L 2703 1459 
Q 2703 884 2564 568 
Q 2425 253 2123 87 
Q 1822 -78 1416 -78 
Q 813 -78 492 269 
Q 172 616 184 1300 
z
" id="ArialMT-4a" transform="scale(0.015625)"/>
      <path d="M 2597 0 
L 2597 488 
Q 2209 -75 1544 -75 
Q 1250 -75 995 37 
Q 741 150 617 320 
Q 494 491 444 738 
Q 409 903 409 1263 
L 409 3319 
L 972 3319 
L 972 1478 
Q 972 1038 1006 884 
Q 1059 663 1231 536 
Q 1403 409 1656 409 
Q 1909 409 2131 539 
Q 2353 669 2445 892 
Q 2538 1116 2538 1541 
L 2538 3319 
L 3100 3319 
L 3100 0 
L 2597 0 
z
" id="ArialMT-75" transform="scale(0.015625)"/>
      <path d="M 319 -275 
L 866 -356 
Q 900 -609 1056 -725 
Q 1266 -881 1628 -881 
Q 2019 -881 2231 -725 
Q 2444 -569 2519 -288 
Q 2563 -116 2559 434 
Q 2191 0 1641 0 
Q 956 0 581 494 
Q 206 988 206 1678 
Q 206 2153 378 2554 
Q 550 2956 876 3175 
Q 1203 3394 1644 3394 
Q 2231 3394 2613 2919 
L 2613 3319 
L 3131 3319 
L 3131 450 
Q 3131 -325 2973 -648 
Q 2816 -972 2473 -1159 
Q 2131 -1347 1631 -1347 
Q 1038 -1347 672 -1080 
Q 306 -813 319 -275 
z
M 784 1719 
Q 784 1066 1043 766 
Q 1303 466 1694 466 
Q 2081 466 2343 764 
Q 2606 1063 2606 1700 
Q 2606 2309 2336 2618 
Q 2066 2928 1684 2928 
Q 1309 2928 1046 2623 
Q 784 2319 784 1719 
z
" id="ArialMT-67" transform="scale(0.015625)"/>
     </defs>
     <use xlink:href="#ArialMT-4a"/>
     <use x="50" xlink:href="#ArialMT-61"/>
     <use x="105.615234" xlink:href="#ArialMT-6e"/>
     <use x="161.230469" xlink:href="#ArialMT-75"/>
     <use x="216.845703" xlink:href="#ArialMT-61"/>
     <use x="272.460938" xlink:href="#ArialMT-72"/>
     <use x="305.761719" xlink:href="#ArialMT-79"/>
     <use x="355.761719" xlink:href="#ArialMT-20"/>
     <use x="383.544922" xlink:href="#ArialMT-74"/>
     <use x="411.328125" xlink:href="#ArialMT-68"/>
     <use x="466.943359" xlink:href="#ArialMT-72"/>
     <use x="500.244141" xlink:href="#ArialMT-6f"/>
     <use x="555.859375" xlink:href="#ArialMT-75"/>
     <use x="611.474609" xlink:href="#ArialMT-67"/>
     <use x="667.089844" xlink:href="#ArialMT-68"/>
     <use x="722.705078" xlink:href="#ArialMT-20"/>
     <use x="750.488281" xlink:href="#ArialMT-4a"/>
     <use x="800.488281" xlink:href="#ArialMT-75"/>
     <use x="856.103516" xlink:href="#ArialMT-6e"/>
     <use x="911.71875" xlink:href="#ArialMT-65"/>
    </g>
   </g>
   <g id="text_23">
    <!-- Normalized Collisions Rates During the COVID-19 Pandemic -->
    <g style="fill:#262626;" transform="translate(11.897188 27.600625)scale(0.28 -0.28)">
     <defs>
      <path d="M 494 0 
L 494 4581 
L 2072 4581 
Q 2606 4581 2888 4516 
Q 3281 4425 3559 4188 
Q 3922 3881 4101 3404 
Q 4281 2928 4281 2316 
Q 4281 1794 4159 1391 
Q 4038 988 3847 723 
Q 3656 459 3429 307 
Q 3203 156 2883 78 
Q 2563 0 2147 0 
L 494 0 
z
M 1100 541 
L 2078 541 
Q 2531 541 2789 625 
Q 3047 709 3200 863 
Q 3416 1078 3536 1442 
Q 3656 1806 3656 2325 
Q 3656 3044 3420 3430 
Q 3184 3816 2847 3947 
Q 2603 4041 2063 4041 
L 1100 4041 
L 1100 541 
z
" id="ArialMT-44" transform="scale(0.015625)"/>
      <path d="M 1803 0 
L 28 4581 
L 684 4581 
L 1875 1253 
Q 2019 853 2116 503 
Q 2222 878 2363 1253 
L 3600 4581 
L 4219 4581 
L 2425 0 
L 1803 0 
z
" id="ArialMT-56" transform="scale(0.015625)"/>
      <path d="M 597 0 
L 597 4581 
L 1203 4581 
L 1203 0 
L 597 0 
z
" id="ArialMT-49" transform="scale(0.015625)"/>
      <path d="M 494 0 
L 494 4581 
L 2222 4581 
Q 2678 4581 2919 4538 
Q 3256 4481 3484 4323 
Q 3713 4166 3852 3881 
Q 3991 3597 3991 3256 
Q 3991 2672 3619 2267 
Q 3247 1863 2275 1863 
L 1100 1863 
L 1100 0 
L 494 0 
z
M 1100 2403 
L 2284 2403 
Q 2872 2403 3119 2622 
Q 3366 2841 3366 3238 
Q 3366 3525 3220 3729 
Q 3075 3934 2838 4000 
Q 2684 4041 2272 4041 
L 1100 4041 
L 1100 2403 
z
" id="ArialMT-50" transform="scale(0.015625)"/>
      <path d="M 2588 1216 
L 3141 1144 
Q 3050 572 2676 248 
Q 2303 -75 1759 -75 
Q 1078 -75 664 370 
Q 250 816 250 1647 
Q 250 2184 428 2587 
Q 606 2991 970 3192 
Q 1334 3394 1763 3394 
Q 2303 3394 2647 3120 
Q 2991 2847 3088 2344 
L 2541 2259 
Q 2463 2594 2264 2762 
Q 2066 2931 1784 2931 
Q 1359 2931 1093 2626 
Q 828 2322 828 1663 
Q 828 994 1084 691 
Q 1341 388 1753 388 
Q 2084 388 2306 591 
Q 2528 794 2588 1216 
z
" id="ArialMT-63" transform="scale(0.015625)"/>
     </defs>
     <use xlink:href="#ArialMT-4e"/>
     <use x="72.216797" xlink:href="#ArialMT-6f"/>
     <use x="127.832031" xlink:href="#ArialMT-72"/>
     <use x="161.132812" xlink:href="#ArialMT-6d"/>
     <use x="244.433594" xlink:href="#ArialMT-61"/>
     <use x="300.048828" xlink:href="#ArialMT-6c"/>
     <use x="322.265625" xlink:href="#ArialMT-69"/>
     <use x="344.482422" xlink:href="#ArialMT-7a"/>
     <use x="394.482422" xlink:href="#ArialMT-65"/>
     <use x="450.097656" xlink:href="#ArialMT-64"/>
     <use x="505.712891" xlink:href="#ArialMT-20"/>
     <use x="533.496094" xlink:href="#ArialMT-43"/>
     <use x="605.712891" xlink:href="#ArialMT-6f"/>
     <use x="661.328125" xlink:href="#ArialMT-6c"/>
     <use x="683.544922" xlink:href="#ArialMT-6c"/>
     <use x="705.761719" xlink:href="#ArialMT-69"/>
     <use x="727.978516" xlink:href="#ArialMT-73"/>
     <use x="777.978516" xlink:href="#ArialMT-69"/>
     <use x="800.195312" xlink:href="#ArialMT-6f"/>
     <use x="855.810547" xlink:href="#ArialMT-6e"/>
     <use x="911.425781" xlink:href="#ArialMT-73"/>
     <use x="961.425781" xlink:href="#ArialMT-20"/>
     <use x="989.208984" xlink:href="#ArialMT-52"/>
     <use x="1061.425781" xlink:href="#ArialMT-61"/>
     <use x="1117.041016" xlink:href="#ArialMT-74"/>
     <use x="1144.824219" xlink:href="#ArialMT-65"/>
     <use x="1200.439453" xlink:href="#ArialMT-73"/>
     <use x="1250.439453" xlink:href="#ArialMT-20"/>
     <use x="1278.222656" xlink:href="#ArialMT-44"/>
     <use x="1350.439453" xlink:href="#ArialMT-75"/>
     <use x="1406.054688" xlink:href="#ArialMT-72"/>
     <use x="1439.355469" xlink:href="#ArialMT-69"/>
     <use x="1461.572266" xlink:href="#ArialMT-6e"/>
     <use x="1517.1875" xlink:href="#ArialMT-67"/>
     <use x="1572.802734" xlink:href="#ArialMT-20"/>
     <use x="1600.585938" xlink:href="#ArialMT-74"/>
     <use x="1628.369141" xlink:href="#ArialMT-68"/>
     <use x="1683.984375" xlink:href="#ArialMT-65"/>
     <use x="1739.599609" xlink:href="#ArialMT-20"/>
     <use x="1767.382812" xlink:href="#ArialMT-43"/>
     <use x="1839.599609" xlink:href="#ArialMT-4f"/>
     <use x="1917.382812" xlink:href="#ArialMT-56"/>
     <use x="1984.082031" xlink:href="#ArialMT-49"/>
     <use x="2011.865234" xlink:href="#ArialMT-44"/>
     <use x="2084.082031" xlink:href="#ArialMT-2d"/>
     <use x="2117.382812" xlink:href="#ArialMT-31"/>
     <use x="2172.998047" xlink:href="#ArialMT-39"/>
     <use x="2228.613281" xlink:href="#ArialMT-20"/>
     <use x="2256.396484" xlink:href="#ArialMT-50"/>
     <use x="2323.095703" xlink:href="#ArialMT-61"/>
     <use x="2378.710938" xlink:href="#ArialMT-6e"/>
     <use x="2434.326172" xlink:href="#ArialMT-64"/>
     <use x="2489.941406" xlink:href="#ArialMT-65"/>
     <use x="2545.556641" xlink:href="#ArialMT-6d"/>
     <use x="2628.857422" xlink:href="#ArialMT-69"/>
     <use x="2651.074219" xlink:href="#ArialMT-63"/>
    </g>
    <!-- Drivers Aged 30 to 50 -->
    <g style="fill:#262626;" transform="translate(255.403125 57.64375)scale(0.28 -0.28)">
     <defs>
      <path d="M 1344 0 
L 81 3319 
L 675 3319 
L 1388 1331 
Q 1503 1009 1600 663 
Q 1675 925 1809 1294 
L 2547 3319 
L 3125 3319 
L 1869 0 
L 1344 0 
z
" id="ArialMT-76" transform="scale(0.015625)"/>
      <path d="M -9 0 
L 1750 4581 
L 2403 4581 
L 4278 0 
L 3588 0 
L 3053 1388 
L 1138 1388 
L 634 0 
L -9 0 
z
M 1313 1881 
L 2866 1881 
L 2388 3150 
Q 2169 3728 2063 4100 
Q 1975 3659 1816 3225 
L 1313 1881 
z
" id="ArialMT-41" transform="scale(0.015625)"/>
      <path d="M 269 1209 
L 831 1284 
Q 928 806 1161 595 
Q 1394 384 1728 384 
Q 2125 384 2398 659 
Q 2672 934 2672 1341 
Q 2672 1728 2419 1979 
Q 2166 2231 1775 2231 
Q 1616 2231 1378 2169 
L 1441 2663 
Q 1497 2656 1531 2656 
Q 1891 2656 2178 2843 
Q 2466 3031 2466 3422 
Q 2466 3731 2256 3934 
Q 2047 4138 1716 4138 
Q 1388 4138 1169 3931 
Q 950 3725 888 3313 
L 325 3413 
Q 428 3978 793 4289 
Q 1159 4600 1703 4600 
Q 2078 4600 2393 4439 
Q 2709 4278 2876 4000 
Q 3044 3722 3044 3409 
Q 3044 3113 2884 2869 
Q 2725 2625 2413 2481 
Q 2819 2388 3044 2092 
Q 3269 1797 3269 1353 
Q 3269 753 2831 336 
Q 2394 -81 1725 -81 
Q 1122 -81 723 278 
Q 325 638 269 1209 
z
" id="ArialMT-33" transform="scale(0.015625)"/>
      <path d="M 266 1200 
L 856 1250 
Q 922 819 1161 601 
Q 1400 384 1738 384 
Q 2144 384 2425 690 
Q 2706 997 2706 1503 
Q 2706 1984 2436 2262 
Q 2166 2541 1728 2541 
Q 1456 2541 1237 2417 
Q 1019 2294 894 2097 
L 366 2166 
L 809 4519 
L 3088 4519 
L 3088 3981 
L 1259 3981 
L 1013 2750 
Q 1425 3038 1878 3038 
Q 2478 3038 2890 2622 
Q 3303 2206 3303 1553 
Q 3303 931 2941 478 
Q 2500 -78 1738 -78 
Q 1113 -78 717 272 
Q 322 622 266 1200 
z
" id="ArialMT-35" transform="scale(0.015625)"/>
     </defs>
     <use xlink:href="#ArialMT-44"/>
     <use x="72.216797" xlink:href="#ArialMT-72"/>
     <use x="105.517578" xlink:href="#ArialMT-69"/>
     <use x="127.734375" xlink:href="#ArialMT-76"/>
     <use x="177.734375" xlink:href="#ArialMT-65"/>
     <use x="233.349609" xlink:href="#ArialMT-72"/>
     <use x="266.650391" xlink:href="#ArialMT-73"/>
     <use x="316.650391" xlink:href="#ArialMT-20"/>
     <use x="338.933594" xlink:href="#ArialMT-41"/>
     <use x="405.632812" xlink:href="#ArialMT-67"/>
     <use x="461.248047" xlink:href="#ArialMT-65"/>
     <use x="516.863281" xlink:href="#ArialMT-64"/>
     <use x="572.478516" xlink:href="#ArialMT-20"/>
     <use x="600.261719" xlink:href="#ArialMT-33"/>
     <use x="655.876953" xlink:href="#ArialMT-30"/>
     <use x="711.492188" xlink:href="#ArialMT-20"/>
     <use x="739.275391" xlink:href="#ArialMT-74"/>
     <use x="767.058594" xlink:href="#ArialMT-6f"/>
     <use x="822.673828" xlink:href="#ArialMT-20"/>
     <use x="850.457031" xlink:href="#ArialMT-35"/>
     <use x="906.072266" xlink:href="#ArialMT-30"/>
    </g>
   </g>
  </g>
 </g>
 <defs>
  <clipPath id="p7451be01ff">
   <rect height="380.52" width="669.6" x="55.230625" y="63.64375"/>
  </clipPath>
 </defs>
</svg>
