<?xml version="1.0" encoding="utf-8" standalone="no"?>
<!DOCTYPE svg PUBLIC "-//W3C//DTD SVG 1.1//EN"
  "http://www.w3.org/Graphics/SVG/1.1/DTD/svg11.dtd">
<svg height="439.435625pt" version="1.1" viewBox="0 0 706.525 439.435625" width="706.525pt" xmlns="http://www.w3.org/2000/svg" xmlns:xlink="http://www.w3.org/1999/xlink">
 <metadata>
  <rdf:RDF xmlns:cc="http://creativecommons.org/ns#" xmlns:dc="http://purl.org/dc/elements/1.1/" xmlns:rdf="http://www.w3.org/1999/02/22-rdf-syntax-ns#">
   <cc:Work>
    <dc:type rdf:resource="http://purl.org/dc/dcmitype/StillImage"/>
    <dc:date>2021-09-26T10:36:36.220573</dc:date>
    <dc:format>image/svg+xml</dc:format>
    <dc:creator>
     <cc:Agent>
      <dc:title>Matplotlib v3.4.2, https://matplotlib.org/</dc:title>
     </cc:Agent>
    </dc:creator>
    <dc:contributor>
     <cc:Agent>
      <dc:title>Alexander Gude</dc:title>
     </cc:Agent>
    </dc:contributor>
    <dc:rights>
     <cc:Agent>
      <dc:title>CC-BY-SA 4.0</dc:title>
     </cc:Agent>
    </dc:rights>
   </cc:Work>
  </rdf:RDF>
 </metadata>
 <defs>
  <style type="text/css">*{stroke-linecap:butt;stroke-linejoin:round;}</style>
 </defs>
 <g id="figure_1">
  <g id="patch_1">
   <path d="M 0 439.435625 
L 706.525 439.435625 
L 706.525 0 
L 0 0 
z
" style="fill:#ffffff;"/>
  </g>
  <g id="axes_1">
   <g id="patch_2">
    <path d="M 29.725 414.103125 
L 699.325 414.103125 
L 699.325 33.583125 
L 29.725 33.583125 
z
" style="fill:#ffffff;"/>
   </g>
   <g id="matplotlib.axis_1">
    <g id="xtick_1">
     <g id="line2d_1"/>
     <g id="text_1">
      <!-- 20 -->
      <g style="fill:#262626;" transform="translate(79.909853 429.055625)scale(0.16 -0.16)">
       <defs>
        <path d="M 3222 541 
L 3222 0 
L 194 0 
Q 188 203 259 391 
Q 375 700 629 1000 
Q 884 1300 1366 1694 
Q 2113 2306 2375 2664 
Q 2638 3022 2638 3341 
Q 2638 3675 2398 3904 
Q 2159 4134 1775 4134 
Q 1369 4134 1125 3890 
Q 881 3647 878 3216 
L 300 3275 
Q 359 3922 746 4261 
Q 1134 4600 1788 4600 
Q 2447 4600 2831 4234 
Q 3216 3869 3216 3328 
Q 3216 3053 3103 2787 
Q 2991 2522 2730 2228 
Q 2469 1934 1863 1422 
Q 1356 997 1212 845 
Q 1069 694 975 541 
L 3222 541 
z
" id="ArialMT-32" transform="scale(0.015625)"/>
        <path d="M 266 2259 
Q 266 3072 433 3567 
Q 600 4063 929 4331 
Q 1259 4600 1759 4600 
Q 2128 4600 2406 4451 
Q 2684 4303 2865 4023 
Q 3047 3744 3150 3342 
Q 3253 2941 3253 2259 
Q 3253 1453 3087 958 
Q 2922 463 2592 192 
Q 2263 -78 1759 -78 
Q 1097 -78 719 397 
Q 266 969 266 2259 
z
M 844 2259 
Q 844 1131 1108 757 
Q 1372 384 1759 384 
Q 2147 384 2411 759 
Q 2675 1134 2675 2259 
Q 2675 3391 2411 3762 
Q 2147 4134 1753 4134 
Q 1366 4134 1134 3806 
Q 844 3388 844 2259 
z
" id="ArialMT-30" transform="scale(0.015625)"/>
       </defs>
       <use xlink:href="#ArialMT-32"/>
       <use x="55.615234" xlink:href="#ArialMT-30"/>
      </g>
     </g>
    </g>
    <g id="xtick_2">
     <g id="line2d_2"/>
     <g id="text_2">
      <!-- 40 -->
      <g style="fill:#262626;" transform="translate(223.139799 429.055625)scale(0.16 -0.16)">
       <defs>
        <path d="M 2069 0 
L 2069 1097 
L 81 1097 
L 81 1613 
L 2172 4581 
L 2631 4581 
L 2631 1613 
L 3250 1613 
L 3250 1097 
L 2631 1097 
L 2631 0 
L 2069 0 
z
M 2069 1613 
L 2069 3678 
L 634 1613 
L 2069 1613 
z
" id="ArialMT-34" transform="scale(0.015625)"/>
       </defs>
       <use xlink:href="#ArialMT-34"/>
       <use x="55.615234" xlink:href="#ArialMT-30"/>
      </g>
     </g>
    </g>
    <g id="xtick_3">
     <g id="line2d_3"/>
     <g id="text_3">
      <!-- 60 -->
      <g style="fill:#262626;" transform="translate(366.369746 429.055625)scale(0.16 -0.16)">
       <defs>
        <path d="M 3184 3459 
L 2625 3416 
Q 2550 3747 2413 3897 
Q 2184 4138 1850 4138 
Q 1581 4138 1378 3988 
Q 1113 3794 959 3422 
Q 806 3050 800 2363 
Q 1003 2672 1297 2822 
Q 1591 2972 1913 2972 
Q 2475 2972 2870 2558 
Q 3266 2144 3266 1488 
Q 3266 1056 3080 686 
Q 2894 316 2569 119 
Q 2244 -78 1831 -78 
Q 1128 -78 684 439 
Q 241 956 241 2144 
Q 241 3472 731 4075 
Q 1159 4600 1884 4600 
Q 2425 4600 2770 4297 
Q 3116 3994 3184 3459 
z
M 888 1484 
Q 888 1194 1011 928 
Q 1134 663 1356 523 
Q 1578 384 1822 384 
Q 2178 384 2434 671 
Q 2691 959 2691 1453 
Q 2691 1928 2437 2201 
Q 2184 2475 1800 2475 
Q 1419 2475 1153 2201 
Q 888 1928 888 1484 
z
" id="ArialMT-36" transform="scale(0.015625)"/>
       </defs>
       <use xlink:href="#ArialMT-36"/>
       <use x="55.615234" xlink:href="#ArialMT-30"/>
      </g>
     </g>
    </g>
    <g id="xtick_4">
     <g id="line2d_4"/>
     <g id="text_4">
      <!-- 80 -->
      <g style="fill:#262626;" transform="translate(509.599693 429.055625)scale(0.16 -0.16)">
       <defs>
        <path d="M 1131 2484 
Q 781 2613 612 2850 
Q 444 3088 444 3419 
Q 444 3919 803 4259 
Q 1163 4600 1759 4600 
Q 2359 4600 2725 4251 
Q 3091 3903 3091 3403 
Q 3091 3084 2923 2848 
Q 2756 2613 2416 2484 
Q 2838 2347 3058 2040 
Q 3278 1734 3278 1309 
Q 3278 722 2862 322 
Q 2447 -78 1769 -78 
Q 1091 -78 675 323 
Q 259 725 259 1325 
Q 259 1772 486 2073 
Q 713 2375 1131 2484 
z
M 1019 3438 
Q 1019 3113 1228 2906 
Q 1438 2700 1772 2700 
Q 2097 2700 2305 2904 
Q 2513 3109 2513 3406 
Q 2513 3716 2298 3927 
Q 2084 4138 1766 4138 
Q 1444 4138 1231 3931 
Q 1019 3725 1019 3438 
z
M 838 1322 
Q 838 1081 952 856 
Q 1066 631 1291 507 
Q 1516 384 1775 384 
Q 2178 384 2440 643 
Q 2703 903 2703 1303 
Q 2703 1709 2433 1975 
Q 2163 2241 1756 2241 
Q 1359 2241 1098 1978 
Q 838 1716 838 1322 
z
" id="ArialMT-38" transform="scale(0.015625)"/>
       </defs>
       <use xlink:href="#ArialMT-38"/>
       <use x="55.615234" xlink:href="#ArialMT-30"/>
      </g>
     </g>
    </g>
    <g id="xtick_5">
     <g id="line2d_5"/>
     <g id="text_5">
      <!-- 100 -->
      <g style="fill:#262626;" transform="translate(648.380889 429.055625)scale(0.16 -0.16)">
       <defs>
        <path d="M 2384 0 
L 1822 0 
L 1822 3584 
Q 1619 3391 1289 3197 
Q 959 3003 697 2906 
L 697 3450 
Q 1169 3672 1522 3987 
Q 1875 4303 2022 4600 
L 2384 4600 
L 2384 0 
z
" id="ArialMT-31" transform="scale(0.015625)"/>
       </defs>
       <use xlink:href="#ArialMT-31"/>
       <use x="55.615234" xlink:href="#ArialMT-30"/>
       <use x="111.230469" xlink:href="#ArialMT-30"/>
      </g>
     </g>
    </g>
   </g>
   <g id="matplotlib.axis_2">
    <g id="ytick_1">
     <g id="line2d_6"/>
    </g>
    <g id="ytick_2">
     <g id="line2d_7"/>
    </g>
    <g id="ytick_3">
     <g id="line2d_8"/>
    </g>
    <g id="ytick_4">
     <g id="line2d_9"/>
    </g>
    <g id="ytick_5">
     <g id="line2d_10"/>
    </g>
    <g id="ytick_6">
     <g id="line2d_11"/>
    </g>
    <g id="ytick_7">
     <g id="line2d_12"/>
    </g>
    <g id="ytick_8">
     <g id="line2d_13"/>
    </g>
    <g id="text_6">
     <!-- Probability -->
     <g style="fill:#262626;" transform="translate(21.515625 270.530625)rotate(-90)scale(0.2 -0.2)">
      <defs>
       <path d="M 494 0 
L 494 4581 
L 2222 4581 
Q 2678 4581 2919 4538 
Q 3256 4481 3484 4323 
Q 3713 4166 3852 3881 
Q 3991 3597 3991 3256 
Q 3991 2672 3619 2267 
Q 3247 1863 2275 1863 
L 1100 1863 
L 1100 0 
L 494 0 
z
M 1100 2403 
L 2284 2403 
Q 2872 2403 3119 2622 
Q 3366 2841 3366 3238 
Q 3366 3525 3220 3729 
Q 3075 3934 2838 4000 
Q 2684 4041 2272 4041 
L 1100 4041 
L 1100 2403 
z
" id="ArialMT-50" transform="scale(0.015625)"/>
       <path d="M 416 0 
L 416 3319 
L 922 3319 
L 922 2816 
Q 1116 3169 1280 3281 
Q 1444 3394 1641 3394 
Q 1925 3394 2219 3213 
L 2025 2691 
Q 1819 2813 1613 2813 
Q 1428 2813 1281 2702 
Q 1134 2591 1072 2394 
Q 978 2094 978 1738 
L 978 0 
L 416 0 
z
" id="ArialMT-72" transform="scale(0.015625)"/>
       <path d="M 213 1659 
Q 213 2581 725 3025 
Q 1153 3394 1769 3394 
Q 2453 3394 2887 2945 
Q 3322 2497 3322 1706 
Q 3322 1066 3130 698 
Q 2938 331 2570 128 
Q 2203 -75 1769 -75 
Q 1072 -75 642 372 
Q 213 819 213 1659 
z
M 791 1659 
Q 791 1022 1069 705 
Q 1347 388 1769 388 
Q 2188 388 2466 706 
Q 2744 1025 2744 1678 
Q 2744 2294 2464 2611 
Q 2184 2928 1769 2928 
Q 1347 2928 1069 2612 
Q 791 2297 791 1659 
z
" id="ArialMT-6f" transform="scale(0.015625)"/>
       <path d="M 941 0 
L 419 0 
L 419 4581 
L 981 4581 
L 981 2947 
Q 1338 3394 1891 3394 
Q 2197 3394 2470 3270 
Q 2744 3147 2920 2923 
Q 3097 2700 3197 2384 
Q 3297 2069 3297 1709 
Q 3297 856 2875 390 
Q 2453 -75 1863 -75 
Q 1275 -75 941 416 
L 941 0 
z
M 934 1684 
Q 934 1088 1097 822 
Q 1363 388 1816 388 
Q 2184 388 2453 708 
Q 2722 1028 2722 1663 
Q 2722 2313 2464 2622 
Q 2206 2931 1841 2931 
Q 1472 2931 1203 2611 
Q 934 2291 934 1684 
z
" id="ArialMT-62" transform="scale(0.015625)"/>
       <path d="M 2588 409 
Q 2275 144 1986 34 
Q 1697 -75 1366 -75 
Q 819 -75 525 192 
Q 231 459 231 875 
Q 231 1119 342 1320 
Q 453 1522 633 1644 
Q 813 1766 1038 1828 
Q 1203 1872 1538 1913 
Q 2219 1994 2541 2106 
Q 2544 2222 2544 2253 
Q 2544 2597 2384 2738 
Q 2169 2928 1744 2928 
Q 1347 2928 1158 2789 
Q 969 2650 878 2297 
L 328 2372 
Q 403 2725 575 2942 
Q 747 3159 1072 3276 
Q 1397 3394 1825 3394 
Q 2250 3394 2515 3294 
Q 2781 3194 2906 3042 
Q 3031 2891 3081 2659 
Q 3109 2516 3109 2141 
L 3109 1391 
Q 3109 606 3145 398 
Q 3181 191 3288 0 
L 2700 0 
Q 2613 175 2588 409 
z
M 2541 1666 
Q 2234 1541 1622 1453 
Q 1275 1403 1131 1340 
Q 988 1278 909 1158 
Q 831 1038 831 891 
Q 831 666 1001 516 
Q 1172 366 1500 366 
Q 1825 366 2078 508 
Q 2331 650 2450 897 
Q 2541 1088 2541 1459 
L 2541 1666 
z
" id="ArialMT-61" transform="scale(0.015625)"/>
       <path d="M 425 3934 
L 425 4581 
L 988 4581 
L 988 3934 
L 425 3934 
z
M 425 0 
L 425 3319 
L 988 3319 
L 988 0 
L 425 0 
z
" id="ArialMT-69" transform="scale(0.015625)"/>
       <path d="M 409 0 
L 409 4581 
L 972 4581 
L 972 0 
L 409 0 
z
" id="ArialMT-6c" transform="scale(0.015625)"/>
       <path d="M 1650 503 
L 1731 6 
Q 1494 -44 1306 -44 
Q 1000 -44 831 53 
Q 663 150 594 308 
Q 525 466 525 972 
L 525 2881 
L 113 2881 
L 113 3319 
L 525 3319 
L 525 4141 
L 1084 4478 
L 1084 3319 
L 1650 3319 
L 1650 2881 
L 1084 2881 
L 1084 941 
Q 1084 700 1114 631 
Q 1144 563 1211 522 
Q 1278 481 1403 481 
Q 1497 481 1650 503 
z
" id="ArialMT-74" transform="scale(0.015625)"/>
       <path d="M 397 -1278 
L 334 -750 
Q 519 -800 656 -800 
Q 844 -800 956 -737 
Q 1069 -675 1141 -563 
Q 1194 -478 1313 -144 
Q 1328 -97 1363 -6 
L 103 3319 
L 709 3319 
L 1400 1397 
Q 1534 1031 1641 628 
Q 1738 1016 1872 1384 
L 2581 3319 
L 3144 3319 
L 1881 -56 
Q 1678 -603 1566 -809 
Q 1416 -1088 1222 -1217 
Q 1028 -1347 759 -1347 
Q 597 -1347 397 -1278 
z
" id="ArialMT-79" transform="scale(0.015625)"/>
      </defs>
      <use xlink:href="#ArialMT-50"/>
      <use x="66.699219" xlink:href="#ArialMT-72"/>
      <use x="100" xlink:href="#ArialMT-6f"/>
      <use x="155.615234" xlink:href="#ArialMT-62"/>
      <use x="211.230469" xlink:href="#ArialMT-61"/>
      <use x="266.845703" xlink:href="#ArialMT-62"/>
      <use x="322.460938" xlink:href="#ArialMT-69"/>
      <use x="344.677734" xlink:href="#ArialMT-6c"/>
      <use x="366.894531" xlink:href="#ArialMT-69"/>
      <use x="389.111328" xlink:href="#ArialMT-74"/>
      <use x="416.894531" xlink:href="#ArialMT-79"/>
     </g>
    </g>
   </g>
   <g id="patch_3">
    <path clip-path="url(#pedf940b7d2)" d="M 60.161364 414.103125 
L 95.96885 414.103125 
L 95.96885 189.342845 
L 60.161364 189.342845 
z
" style="fill:#ff7f0e;fill-opacity:0.5;stroke:#000000;stroke-linejoin:miter;stroke-width:2;"/>
   </g>
   <g id="patch_4">
    <path clip-path="url(#pedf940b7d2)" d="M 95.96885 414.103125 
L 131.776337 414.103125 
L 131.776337 51.703125 
L 95.96885 51.703125 
z
" style="fill:#ff7f0e;fill-opacity:0.5;stroke:#000000;stroke-linejoin:miter;stroke-width:2;"/>
   </g>
   <g id="patch_5">
    <path clip-path="url(#pedf940b7d2)" d="M 131.776337 414.103125 
L 167.583824 414.103125 
L 167.583824 71.003443 
L 131.776337 71.003443 
z
" style="fill:#ff7f0e;fill-opacity:0.5;stroke:#000000;stroke-linejoin:miter;stroke-width:2;"/>
   </g>
   <g id="patch_6">
    <path clip-path="url(#pedf940b7d2)" d="M 167.583824 414.103125 
L 203.39131 414.103125 
L 203.39131 127.674099 
L 167.583824 127.674099 
z
" style="fill:#ff7f0e;fill-opacity:0.5;stroke:#000000;stroke-linejoin:miter;stroke-width:2;"/>
   </g>
   <g id="patch_7">
    <path clip-path="url(#pedf940b7d2)" d="M 203.39131 414.103125 
L 239.198797 414.103125 
L 239.198797 165.967161 
L 203.39131 165.967161 
z
" style="fill:#ff7f0e;fill-opacity:0.5;stroke:#000000;stroke-linejoin:miter;stroke-width:2;"/>
   </g>
   <g id="patch_8">
    <path clip-path="url(#pedf940b7d2)" d="M 239.198797 414.103125 
L 275.006283 414.103125 
L 275.006283 205.567415 
L 239.198797 205.567415 
z
" style="fill:#ff7f0e;fill-opacity:0.5;stroke:#000000;stroke-linejoin:miter;stroke-width:2;"/>
   </g>
   <g id="patch_9">
    <path clip-path="url(#pedf940b7d2)" d="M 275.006283 414.103125 
L 310.81377 414.103125 
L 310.81377 214.717765 
L 275.006283 214.717765 
z
" style="fill:#ff7f0e;fill-opacity:0.5;stroke:#000000;stroke-linejoin:miter;stroke-width:2;"/>
   </g>
   <g id="patch_10">
    <path clip-path="url(#pedf940b7d2)" d="M 310.81377 414.103125 
L 346.621257 414.103125 
L 346.621257 221.561305 
L 310.81377 221.561305 
z
" style="fill:#ff7f0e;fill-opacity:0.5;stroke:#000000;stroke-linejoin:miter;stroke-width:2;"/>
   </g>
   <g id="patch_11">
    <path clip-path="url(#pedf940b7d2)" d="M 346.621257 414.103125 
L 382.428743 414.103125 
L 382.428743 239.169961 
L 346.621257 239.169961 
z
" style="fill:#ff7f0e;fill-opacity:0.5;stroke:#000000;stroke-linejoin:miter;stroke-width:2;"/>
   </g>
   <g id="patch_12">
    <path clip-path="url(#pedf940b7d2)" d="M 382.428743 414.103125 
L 418.23623 414.103125 
L 418.23623 275.540681 
L 382.428743 275.540681 
z
" style="fill:#ff7f0e;fill-opacity:0.5;stroke:#000000;stroke-linejoin:miter;stroke-width:2;"/>
   </g>
   <g id="patch_13">
    <path clip-path="url(#pedf940b7d2)" d="M 418.23623 414.103125 
L 454.043717 414.103125 
L 454.043717 325.367797 
L 418.23623 325.367797 
z
" style="fill:#ff7f0e;fill-opacity:0.5;stroke:#000000;stroke-linejoin:miter;stroke-width:2;"/>
   </g>
   <g id="patch_14">
    <path clip-path="url(#pedf940b7d2)" d="M 454.043717 414.103125 
L 489.851203 414.103125 
L 489.851203 359.662387 
L 454.043717 359.662387 
z
" style="fill:#ff7f0e;fill-opacity:0.5;stroke:#000000;stroke-linejoin:miter;stroke-width:2;"/>
   </g>
   <g id="patch_15">
    <path clip-path="url(#pedf940b7d2)" d="M 489.851203 414.103125 
L 525.65869 414.103125 
L 525.65869 384.960413 
L 489.851203 384.960413 
z
" style="fill:#ff7f0e;fill-opacity:0.5;stroke:#000000;stroke-linejoin:miter;stroke-width:2;"/>
   </g>
   <g id="patch_16">
    <path clip-path="url(#pedf940b7d2)" d="M 525.65869 414.103125 
L 561.466176 414.103125 
L 561.466176 398.955066 
L 525.65869 398.955066 
z
" style="fill:#ff7f0e;fill-opacity:0.5;stroke:#000000;stroke-linejoin:miter;stroke-width:2;"/>
   </g>
   <g id="patch_17">
    <path clip-path="url(#pedf940b7d2)" d="M 561.466176 414.103125 
L 597.273663 414.103125 
L 597.273663 408.489885 
L 561.466176 408.489885 
z
" style="fill:#ff7f0e;fill-opacity:0.5;stroke:#000000;stroke-linejoin:miter;stroke-width:2;"/>
   </g>
   <g id="patch_18">
    <path clip-path="url(#pedf940b7d2)" d="M 597.273663 414.103125 
L 633.08115 414.103125 
L 633.08115 412.411464 
L 597.273663 412.411464 
z
" style="fill:#ff7f0e;fill-opacity:0.5;stroke:#000000;stroke-linejoin:miter;stroke-width:2;"/>
   </g>
   <g id="patch_19">
    <path clip-path="url(#pedf940b7d2)" d="M 633.08115 414.103125 
L 668.888636 414.103125 
L 668.888636 413.872444 
L 633.08115 413.872444 
z
" style="fill:#ff7f0e;fill-opacity:0.5;stroke:#000000;stroke-linejoin:miter;stroke-width:2;"/>
   </g>
   <g id="patch_20">
    <path clip-path="url(#pedf940b7d2)" d="M 60.161364 414.103125 
L 95.96885 414.103125 
L 95.96885 206.112146 
L 60.161364 206.112146 
z
" style="fill:#1f77b4;fill-opacity:0.5;stroke:#000000;stroke-linejoin:miter;stroke-width:2;"/>
   </g>
   <g id="patch_21">
    <path clip-path="url(#pedf940b7d2)" d="M 95.96885 414.103125 
L 131.776337 414.103125 
L 131.776337 80.729937 
L 95.96885 80.729937 
z
" style="fill:#1f77b4;fill-opacity:0.5;stroke:#000000;stroke-linejoin:miter;stroke-width:2;"/>
   </g>
   <g id="patch_22">
    <path clip-path="url(#pedf940b7d2)" d="M 131.776337 414.103125 
L 167.583824 414.103125 
L 167.583824 66.381019 
L 131.776337 66.381019 
z
" style="fill:#1f77b4;fill-opacity:0.5;stroke:#000000;stroke-linejoin:miter;stroke-width:2;"/>
   </g>
   <g id="patch_23">
    <path clip-path="url(#pedf940b7d2)" d="M 167.583824 414.103125 
L 203.39131 414.103125 
L 203.39131 119.881984 
L 167.583824 119.881984 
z
" style="fill:#1f77b4;fill-opacity:0.5;stroke:#000000;stroke-linejoin:miter;stroke-width:2;"/>
   </g>
   <g id="patch_24">
    <path clip-path="url(#pedf940b7d2)" d="M 203.39131 414.103125 
L 239.198797 414.103125 
L 239.198797 160.605579 
L 203.39131 160.605579 
z
" style="fill:#1f77b4;fill-opacity:0.5;stroke:#000000;stroke-linejoin:miter;stroke-width:2;"/>
   </g>
   <g id="patch_25">
    <path clip-path="url(#pedf940b7d2)" d="M 239.198797 414.103125 
L 275.006283 414.103125 
L 275.006283 187.253569 
L 239.198797 187.253569 
z
" style="fill:#1f77b4;fill-opacity:0.5;stroke:#000000;stroke-linejoin:miter;stroke-width:2;"/>
   </g>
   <g id="patch_26">
    <path clip-path="url(#pedf940b7d2)" d="M 275.006283 414.103125 
L 310.81377 414.103125 
L 310.81377 203.993973 
L 275.006283 203.993973 
z
" style="fill:#1f77b4;fill-opacity:0.5;stroke:#000000;stroke-linejoin:miter;stroke-width:2;"/>
   </g>
   <g id="patch_27">
    <path clip-path="url(#pedf940b7d2)" d="M 310.81377 414.103125 
L 346.621257 414.103125 
L 346.621257 213.696574 
L 310.81377 213.696574 
z
" style="fill:#1f77b4;fill-opacity:0.5;stroke:#000000;stroke-linejoin:miter;stroke-width:2;"/>
   </g>
   <g id="patch_28">
    <path clip-path="url(#pedf940b7d2)" d="M 346.621257 414.103125 
L 382.428743 414.103125 
L 382.428743 231.12026 
L 346.621257 231.12026 
z
" style="fill:#1f77b4;fill-opacity:0.5;stroke:#000000;stroke-linejoin:miter;stroke-width:2;"/>
   </g>
   <g id="patch_29">
    <path clip-path="url(#pedf940b7d2)" d="M 382.428743 414.103125 
L 418.23623 414.103125 
L 418.23623 280.521534 
L 382.428743 280.521534 
z
" style="fill:#1f77b4;fill-opacity:0.5;stroke:#000000;stroke-linejoin:miter;stroke-width:2;"/>
   </g>
   <g id="patch_30">
    <path clip-path="url(#pedf940b7d2)" d="M 418.23623 414.103125 
L 454.043717 414.103125 
L 454.043717 333.749186 
L 418.23623 333.749186 
z
" style="fill:#1f77b4;fill-opacity:0.5;stroke:#000000;stroke-linejoin:miter;stroke-width:2;"/>
   </g>
   <g id="patch_31">
    <path clip-path="url(#pedf940b7d2)" d="M 454.043717 414.103125 
L 489.851203 414.103125 
L 489.851203 365.180148 
L 454.043717 365.180148 
z
" style="fill:#1f77b4;fill-opacity:0.5;stroke:#000000;stroke-linejoin:miter;stroke-width:2;"/>
   </g>
   <g id="patch_32">
    <path clip-path="url(#pedf940b7d2)" d="M 489.851203 414.103125 
L 525.65869 414.103125 
L 525.65869 384.312039 
L 489.851203 384.312039 
z
" style="fill:#1f77b4;fill-opacity:0.5;stroke:#000000;stroke-linejoin:miter;stroke-width:2;"/>
   </g>
   <g id="patch_33">
    <path clip-path="url(#pedf940b7d2)" d="M 525.65869 414.103125 
L 561.466176 414.103125 
L 561.466176 400.095848 
L 525.65869 400.095848 
z
" style="fill:#1f77b4;fill-opacity:0.5;stroke:#000000;stroke-linejoin:miter;stroke-width:2;"/>
   </g>
   <g id="patch_34">
    <path clip-path="url(#pedf940b7d2)" d="M 561.466176 414.103125 
L 597.273663 414.103125 
L 597.273663 406.860338 
L 561.466176 406.860338 
z
" style="fill:#1f77b4;fill-opacity:0.5;stroke:#000000;stroke-linejoin:miter;stroke-width:2;"/>
   </g>
   <g id="patch_35">
    <path clip-path="url(#pedf940b7d2)" d="M 597.273663 414.103125 
L 633.08115 414.103125 
L 633.08115 412.258264 
L 597.273663 412.258264 
z
" style="fill:#1f77b4;fill-opacity:0.5;stroke:#000000;stroke-linejoin:miter;stroke-width:2;"/>
   </g>
   <g id="patch_36">
    <path clip-path="url(#pedf940b7d2)" d="M 633.08115 414.103125 
L 668.888636 414.103125 
L 668.888636 413.214859 
L 633.08115 413.214859 
z
" style="fill:#1f77b4;fill-opacity:0.5;stroke:#000000;stroke-linejoin:miter;stroke-width:2;"/>
   </g>
   <g id="patch_37">
    <path d="M 29.725 414.103125 
L 29.725 33.583125 
" style="fill:none;stroke:#262626;stroke-linecap:square;stroke-linejoin:miter;stroke-width:1.25;"/>
   </g>
   <g id="patch_38">
    <path d="M 699.325 414.103125 
L 699.325 33.583125 
" style="fill:none;stroke:#262626;stroke-linecap:square;stroke-linejoin:miter;stroke-width:1.25;"/>
   </g>
   <g id="patch_39">
    <path d="M 29.725 414.103125 
L 699.325 414.103125 
" style="fill:none;stroke:#262626;stroke-linecap:square;stroke-linejoin:miter;stroke-width:1.25;"/>
   </g>
   <g id="patch_40">
    <path d="M 29.725 33.583125 
L 699.325 33.583125 
" style="fill:none;stroke:#262626;stroke-linecap:square;stroke-linejoin:miter;stroke-width:1.25;"/>
   </g>
   <g id="text_7">
    <!-- Toyota -->
    <g style="fill:#ff7f0e;" transform="translate(461.205214 324.02062)scale(0.3 -0.3)">
     <defs>
      <path d="M 1659 0 
L 1659 4041 
L 150 4041 
L 150 4581 
L 3781 4581 
L 3781 4041 
L 2266 4041 
L 2266 0 
L 1659 0 
z
" id="ArialMT-54" transform="scale(0.015625)"/>
     </defs>
     <use xlink:href="#ArialMT-54"/>
     <use x="49.958984" xlink:href="#ArialMT-6f"/>
     <use x="105.574219" xlink:href="#ArialMT-79"/>
     <use x="155.574219" xlink:href="#ArialMT-6f"/>
     <use x="211.189453" xlink:href="#ArialMT-74"/>
     <use x="238.972656" xlink:href="#ArialMT-61"/>
    </g>
   </g>
   <g id="text_8">
    <!-- Ford -->
    <g style="fill:#1f77b4;" transform="translate(267.844786 169.593467)scale(0.3 -0.3)">
     <defs>
      <path d="M 525 0 
L 525 4581 
L 3616 4581 
L 3616 4041 
L 1131 4041 
L 1131 2622 
L 3281 2622 
L 3281 2081 
L 1131 2081 
L 1131 0 
L 525 0 
z
" id="ArialMT-46" transform="scale(0.015625)"/>
      <path d="M 2575 0 
L 2575 419 
Q 2259 -75 1647 -75 
Q 1250 -75 917 144 
Q 584 363 401 755 
Q 219 1147 219 1656 
Q 219 2153 384 2558 
Q 550 2963 881 3178 
Q 1213 3394 1622 3394 
Q 1922 3394 2156 3267 
Q 2391 3141 2538 2938 
L 2538 4581 
L 3097 4581 
L 3097 0 
L 2575 0 
z
M 797 1656 
Q 797 1019 1065 703 
Q 1334 388 1700 388 
Q 2069 388 2326 689 
Q 2584 991 2584 1609 
Q 2584 2291 2321 2609 
Q 2059 2928 1675 2928 
Q 1300 2928 1048 2622 
Q 797 2316 797 1656 
z
" id="ArialMT-64" transform="scale(0.015625)"/>
     </defs>
     <use xlink:href="#ArialMT-46"/>
     <use x="61.083984" xlink:href="#ArialMT-6f"/>
     <use x="116.699219" xlink:href="#ArialMT-72"/>
     <use x="150" xlink:href="#ArialMT-64"/>
    </g>
   </g>
   <g id="text_9">
    <!-- Age Distribution of Drivers Involved in Collisions -->
    <g style="fill:#262626;" transform="translate(67.305 27.583125)scale(0.28 -0.28)">
     <defs>
      <path d="M -9 0 
L 1750 4581 
L 2403 4581 
L 4278 0 
L 3588 0 
L 3053 1388 
L 1138 1388 
L 634 0 
L -9 0 
z
M 1313 1881 
L 2866 1881 
L 2388 3150 
Q 2169 3728 2063 4100 
Q 1975 3659 1816 3225 
L 1313 1881 
z
" id="ArialMT-41" transform="scale(0.015625)"/>
      <path d="M 319 -275 
L 866 -356 
Q 900 -609 1056 -725 
Q 1266 -881 1628 -881 
Q 2019 -881 2231 -725 
Q 2444 -569 2519 -288 
Q 2563 -116 2559 434 
Q 2191 0 1641 0 
Q 956 0 581 494 
Q 206 988 206 1678 
Q 206 2153 378 2554 
Q 550 2956 876 3175 
Q 1203 3394 1644 3394 
Q 2231 3394 2613 2919 
L 2613 3319 
L 3131 3319 
L 3131 450 
Q 3131 -325 2973 -648 
Q 2816 -972 2473 -1159 
Q 2131 -1347 1631 -1347 
Q 1038 -1347 672 -1080 
Q 306 -813 319 -275 
z
M 784 1719 
Q 784 1066 1043 766 
Q 1303 466 1694 466 
Q 2081 466 2343 764 
Q 2606 1063 2606 1700 
Q 2606 2309 2336 2618 
Q 2066 2928 1684 2928 
Q 1309 2928 1046 2623 
Q 784 2319 784 1719 
z
" id="ArialMT-67" transform="scale(0.015625)"/>
      <path d="M 2694 1069 
L 3275 997 
Q 3138 488 2766 206 
Q 2394 -75 1816 -75 
Q 1088 -75 661 373 
Q 234 822 234 1631 
Q 234 2469 665 2931 
Q 1097 3394 1784 3394 
Q 2450 3394 2872 2941 
Q 3294 2488 3294 1666 
Q 3294 1616 3291 1516 
L 816 1516 
Q 847 969 1125 678 
Q 1403 388 1819 388 
Q 2128 388 2347 550 
Q 2566 713 2694 1069 
z
M 847 1978 
L 2700 1978 
Q 2663 2397 2488 2606 
Q 2219 2931 1791 2931 
Q 1403 2931 1139 2672 
Q 875 2413 847 1978 
z
" id="ArialMT-65" transform="scale(0.015625)"/>
      <path id="ArialMT-20" transform="scale(0.015625)"/>
      <path d="M 494 0 
L 494 4581 
L 2072 4581 
Q 2606 4581 2888 4516 
Q 3281 4425 3559 4188 
Q 3922 3881 4101 3404 
Q 4281 2928 4281 2316 
Q 4281 1794 4159 1391 
Q 4038 988 3847 723 
Q 3656 459 3429 307 
Q 3203 156 2883 78 
Q 2563 0 2147 0 
L 494 0 
z
M 1100 541 
L 2078 541 
Q 2531 541 2789 625 
Q 3047 709 3200 863 
Q 3416 1078 3536 1442 
Q 3656 1806 3656 2325 
Q 3656 3044 3420 3430 
Q 3184 3816 2847 3947 
Q 2603 4041 2063 4041 
L 1100 4041 
L 1100 541 
z
" id="ArialMT-44" transform="scale(0.015625)"/>
      <path d="M 197 991 
L 753 1078 
Q 800 744 1014 566 
Q 1228 388 1613 388 
Q 2000 388 2187 545 
Q 2375 703 2375 916 
Q 2375 1106 2209 1216 
Q 2094 1291 1634 1406 
Q 1016 1563 777 1677 
Q 538 1791 414 1992 
Q 291 2194 291 2438 
Q 291 2659 392 2848 
Q 494 3038 669 3163 
Q 800 3259 1026 3326 
Q 1253 3394 1513 3394 
Q 1903 3394 2198 3281 
Q 2494 3169 2634 2976 
Q 2775 2784 2828 2463 
L 2278 2388 
Q 2241 2644 2061 2787 
Q 1881 2931 1553 2931 
Q 1166 2931 1000 2803 
Q 834 2675 834 2503 
Q 834 2394 903 2306 
Q 972 2216 1119 2156 
Q 1203 2125 1616 2013 
Q 2213 1853 2448 1751 
Q 2684 1650 2818 1456 
Q 2953 1263 2953 975 
Q 2953 694 2789 445 
Q 2625 197 2315 61 
Q 2006 -75 1616 -75 
Q 969 -75 630 194 
Q 291 463 197 991 
z
" id="ArialMT-73" transform="scale(0.015625)"/>
      <path d="M 2597 0 
L 2597 488 
Q 2209 -75 1544 -75 
Q 1250 -75 995 37 
Q 741 150 617 320 
Q 494 491 444 738 
Q 409 903 409 1263 
L 409 3319 
L 972 3319 
L 972 1478 
Q 972 1038 1006 884 
Q 1059 663 1231 536 
Q 1403 409 1656 409 
Q 1909 409 2131 539 
Q 2353 669 2445 892 
Q 2538 1116 2538 1541 
L 2538 3319 
L 3100 3319 
L 3100 0 
L 2597 0 
z
" id="ArialMT-75" transform="scale(0.015625)"/>
      <path d="M 422 0 
L 422 3319 
L 928 3319 
L 928 2847 
Q 1294 3394 1984 3394 
Q 2284 3394 2536 3286 
Q 2788 3178 2913 3003 
Q 3038 2828 3088 2588 
Q 3119 2431 3119 2041 
L 3119 0 
L 2556 0 
L 2556 2019 
Q 2556 2363 2490 2533 
Q 2425 2703 2258 2804 
Q 2091 2906 1866 2906 
Q 1506 2906 1245 2678 
Q 984 2450 984 1813 
L 984 0 
L 422 0 
z
" id="ArialMT-6e" transform="scale(0.015625)"/>
      <path d="M 556 0 
L 556 2881 
L 59 2881 
L 59 3319 
L 556 3319 
L 556 3672 
Q 556 4006 616 4169 
Q 697 4388 901 4523 
Q 1106 4659 1475 4659 
Q 1713 4659 2000 4603 
L 1916 4113 
Q 1741 4144 1584 4144 
Q 1328 4144 1222 4034 
Q 1116 3925 1116 3625 
L 1116 3319 
L 1763 3319 
L 1763 2881 
L 1116 2881 
L 1116 0 
L 556 0 
z
" id="ArialMT-66" transform="scale(0.015625)"/>
      <path d="M 1344 0 
L 81 3319 
L 675 3319 
L 1388 1331 
Q 1503 1009 1600 663 
Q 1675 925 1809 1294 
L 2547 3319 
L 3125 3319 
L 1869 0 
L 1344 0 
z
" id="ArialMT-76" transform="scale(0.015625)"/>
      <path d="M 597 0 
L 597 4581 
L 1203 4581 
L 1203 0 
L 597 0 
z
" id="ArialMT-49" transform="scale(0.015625)"/>
      <path d="M 3763 1606 
L 4369 1453 
Q 4178 706 3683 314 
Q 3188 -78 2472 -78 
Q 1731 -78 1267 223 
Q 803 525 561 1097 
Q 319 1669 319 2325 
Q 319 3041 592 3573 
Q 866 4106 1370 4382 
Q 1875 4659 2481 4659 
Q 3169 4659 3637 4309 
Q 4106 3959 4291 3325 
L 3694 3184 
Q 3534 3684 3231 3912 
Q 2928 4141 2469 4141 
Q 1941 4141 1586 3887 
Q 1231 3634 1087 3207 
Q 944 2781 944 2328 
Q 944 1744 1114 1308 
Q 1284 872 1643 656 
Q 2003 441 2422 441 
Q 2931 441 3284 734 
Q 3638 1028 3763 1606 
z
" id="ArialMT-43" transform="scale(0.015625)"/>
     </defs>
     <use xlink:href="#ArialMT-41"/>
     <use x="66.699219" xlink:href="#ArialMT-67"/>
     <use x="122.314453" xlink:href="#ArialMT-65"/>
     <use x="177.929688" xlink:href="#ArialMT-20"/>
     <use x="205.712891" xlink:href="#ArialMT-44"/>
     <use x="277.929688" xlink:href="#ArialMT-69"/>
     <use x="300.146484" xlink:href="#ArialMT-73"/>
     <use x="350.146484" xlink:href="#ArialMT-74"/>
     <use x="377.929688" xlink:href="#ArialMT-72"/>
     <use x="411.230469" xlink:href="#ArialMT-69"/>
     <use x="433.447266" xlink:href="#ArialMT-62"/>
     <use x="489.0625" xlink:href="#ArialMT-75"/>
     <use x="544.677734" xlink:href="#ArialMT-74"/>
     <use x="572.460938" xlink:href="#ArialMT-69"/>
     <use x="594.677734" xlink:href="#ArialMT-6f"/>
     <use x="650.292969" xlink:href="#ArialMT-6e"/>
     <use x="705.908203" xlink:href="#ArialMT-20"/>
     <use x="733.691406" xlink:href="#ArialMT-6f"/>
     <use x="789.306641" xlink:href="#ArialMT-66"/>
     <use x="817.089844" xlink:href="#ArialMT-20"/>
     <use x="844.873047" xlink:href="#ArialMT-44"/>
     <use x="917.089844" xlink:href="#ArialMT-72"/>
     <use x="950.390625" xlink:href="#ArialMT-69"/>
     <use x="972.607422" xlink:href="#ArialMT-76"/>
     <use x="1022.607422" xlink:href="#ArialMT-65"/>
     <use x="1078.222656" xlink:href="#ArialMT-72"/>
     <use x="1111.523438" xlink:href="#ArialMT-73"/>
     <use x="1161.523438" xlink:href="#ArialMT-20"/>
     <use x="1189.306641" xlink:href="#ArialMT-49"/>
     <use x="1217.089844" xlink:href="#ArialMT-6e"/>
     <use x="1272.705078" xlink:href="#ArialMT-76"/>
     <use x="1322.705078" xlink:href="#ArialMT-6f"/>
     <use x="1378.320312" xlink:href="#ArialMT-6c"/>
     <use x="1400.537109" xlink:href="#ArialMT-76"/>
     <use x="1450.537109" xlink:href="#ArialMT-65"/>
     <use x="1506.152344" xlink:href="#ArialMT-64"/>
     <use x="1561.767578" xlink:href="#ArialMT-20"/>
     <use x="1589.550781" xlink:href="#ArialMT-69"/>
     <use x="1611.767578" xlink:href="#ArialMT-6e"/>
     <use x="1667.382812" xlink:href="#ArialMT-20"/>
     <use x="1695.166016" xlink:href="#ArialMT-43"/>
     <use x="1767.382812" xlink:href="#ArialMT-6f"/>
     <use x="1822.998047" xlink:href="#ArialMT-6c"/>
     <use x="1845.214844" xlink:href="#ArialMT-6c"/>
     <use x="1867.431641" xlink:href="#ArialMT-69"/>
     <use x="1889.648438" xlink:href="#ArialMT-73"/>
     <use x="1939.648438" xlink:href="#ArialMT-69"/>
     <use x="1961.865234" xlink:href="#ArialMT-6f"/>
     <use x="2017.480469" xlink:href="#ArialMT-6e"/>
     <use x="2073.095703" xlink:href="#ArialMT-73"/>
    </g>
   </g>
  </g>
 </g>
 <defs>
  <clipPath id="pedf940b7d2">
   <rect height="380.52" width="669.6" x="29.725" y="33.583125"/>
  </clipPath>
 </defs>
</svg>
