<?xml version="1.0" encoding="utf-8" standalone="no"?>
<!DOCTYPE svg PUBLIC "-//W3C//DTD SVG 1.1//EN"
  "http://www.w3.org/Graphics/SVG/1.1/DTD/svg11.dtd">
<svg height="439.453125pt" version="1.1" viewBox="0 0 775.364063 439.453125" width="775.364063pt" xmlns="http://www.w3.org/2000/svg" xmlns:xlink="http://www.w3.org/1999/xlink">
 <metadata>
  <rdf:RDF xmlns:cc="http://creativecommons.org/ns#" xmlns:dc="http://purl.org/dc/elements/1.1/" xmlns:rdf="http://www.w3.org/1999/02/22-rdf-syntax-ns#">
   <cc:Work>
    <dc:type rdf:resource="http://purl.org/dc/dcmitype/StillImage"/>
    <dc:date>2021-09-26T22:31:32.880999</dc:date>
    <dc:format>image/svg+xml</dc:format>
    <dc:creator>
     <cc:Agent>
      <dc:title>Matplotlib v3.4.2, https://matplotlib.org/</dc:title>
     </cc:Agent>
    </dc:creator>
    <dc:contributor>
     <cc:Agent>
      <dc:title>Alexander Gude</dc:title>
     </cc:Agent>
    </dc:contributor>
    <dc:rights>
     <cc:Agent>
      <dc:title>CC-BY-SA 4.0</dc:title>
     </cc:Agent>
    </dc:rights>
   </cc:Work>
  </rdf:RDF>
 </metadata>
 <defs>
  <style type="text/css">*{stroke-linecap:butt;stroke-linejoin:round;}</style>
 </defs>
 <g id="figure_1">
  <g id="patch_1">
   <path d="M 0 439.453125 
L 775.364063 439.453125 
L 775.364063 0 
L 0 0 
z
" style="fill:#ffffff;"/>
  </g>
  <g id="axes_1">
   <g id="patch_2">
    <path d="M 55.230625 414.120625 
L 724.830625 414.120625 
L 724.830625 33.600625 
L 55.230625 33.600625 
z
" style="fill:#ffffff;"/>
   </g>
   <g id="matplotlib.axis_1">
    <g id="xtick_1">
     <g id="line2d_1"/>
     <g id="text_1">
      <!-- 2019-01 -->
      <g style="fill:#262626;" transform="translate(56.310739 429.073125)scale(0.16 -0.16)">
       <defs>
        <path d="M 3222 541 
L 3222 0 
L 194 0 
Q 188 203 259 391 
Q 375 700 629 1000 
Q 884 1300 1366 1694 
Q 2113 2306 2375 2664 
Q 2638 3022 2638 3341 
Q 2638 3675 2398 3904 
Q 2159 4134 1775 4134 
Q 1369 4134 1125 3890 
Q 881 3647 878 3216 
L 300 3275 
Q 359 3922 746 4261 
Q 1134 4600 1788 4600 
Q 2447 4600 2831 4234 
Q 3216 3869 3216 3328 
Q 3216 3053 3103 2787 
Q 2991 2522 2730 2228 
Q 2469 1934 1863 1422 
Q 1356 997 1212 845 
Q 1069 694 975 541 
L 3222 541 
z
" id="ArialMT-32" transform="scale(0.015625)"/>
        <path d="M 266 2259 
Q 266 3072 433 3567 
Q 600 4063 929 4331 
Q 1259 4600 1759 4600 
Q 2128 4600 2406 4451 
Q 2684 4303 2865 4023 
Q 3047 3744 3150 3342 
Q 3253 2941 3253 2259 
Q 3253 1453 3087 958 
Q 2922 463 2592 192 
Q 2263 -78 1759 -78 
Q 1097 -78 719 397 
Q 266 969 266 2259 
z
M 844 2259 
Q 844 1131 1108 757 
Q 1372 384 1759 384 
Q 2147 384 2411 759 
Q 2675 1134 2675 2259 
Q 2675 3391 2411 3762 
Q 2147 4134 1753 4134 
Q 1366 4134 1134 3806 
Q 844 3388 844 2259 
z
" id="ArialMT-30" transform="scale(0.015625)"/>
        <path d="M 2384 0 
L 1822 0 
L 1822 3584 
Q 1619 3391 1289 3197 
Q 959 3003 697 2906 
L 697 3450 
Q 1169 3672 1522 3987 
Q 1875 4303 2022 4600 
L 2384 4600 
L 2384 0 
z
" id="ArialMT-31" transform="scale(0.015625)"/>
        <path d="M 350 1059 
L 891 1109 
Q 959 728 1153 556 
Q 1347 384 1650 384 
Q 1909 384 2104 503 
Q 2300 622 2425 820 
Q 2550 1019 2634 1356 
Q 2719 1694 2719 2044 
Q 2719 2081 2716 2156 
Q 2547 1888 2255 1720 
Q 1963 1553 1622 1553 
Q 1053 1553 659 1965 
Q 266 2378 266 3053 
Q 266 3750 677 4175 
Q 1088 4600 1706 4600 
Q 2153 4600 2523 4359 
Q 2894 4119 3086 3673 
Q 3278 3228 3278 2384 
Q 3278 1506 3087 986 
Q 2897 466 2520 194 
Q 2144 -78 1638 -78 
Q 1100 -78 759 220 
Q 419 519 350 1059 
z
M 2653 3081 
Q 2653 3566 2395 3850 
Q 2138 4134 1775 4134 
Q 1400 4134 1122 3828 
Q 844 3522 844 3034 
Q 844 2597 1108 2323 
Q 1372 2050 1759 2050 
Q 2150 2050 2401 2323 
Q 2653 2597 2653 3081 
z
" id="ArialMT-39" transform="scale(0.015625)"/>
        <path d="M 203 1375 
L 203 1941 
L 1931 1941 
L 1931 1375 
L 203 1375 
z
" id="ArialMT-2d" transform="scale(0.015625)"/>
       </defs>
       <use xlink:href="#ArialMT-32"/>
       <use x="55.615234" xlink:href="#ArialMT-30"/>
       <use x="111.230469" xlink:href="#ArialMT-31"/>
       <use x="166.845703" xlink:href="#ArialMT-39"/>
       <use x="222.460938" xlink:href="#ArialMT-2d"/>
       <use x="255.761719" xlink:href="#ArialMT-30"/>
       <use x="311.376953" xlink:href="#ArialMT-31"/>
      </g>
     </g>
    </g>
    <g id="xtick_2">
     <g id="line2d_2"/>
     <g id="text_2">
      <!-- 2019-04 -->
      <g style="fill:#262626;" transform="translate(134.687641 429.073125)scale(0.16 -0.16)">
       <defs>
        <path d="M 2069 0 
L 2069 1097 
L 81 1097 
L 81 1613 
L 2172 4581 
L 2631 4581 
L 2631 1613 
L 3250 1613 
L 3250 1097 
L 2631 1097 
L 2631 0 
L 2069 0 
z
M 2069 1613 
L 2069 3678 
L 634 1613 
L 2069 1613 
z
" id="ArialMT-34" transform="scale(0.015625)"/>
       </defs>
       <use xlink:href="#ArialMT-32"/>
       <use x="55.615234" xlink:href="#ArialMT-30"/>
       <use x="111.230469" xlink:href="#ArialMT-31"/>
       <use x="166.845703" xlink:href="#ArialMT-39"/>
       <use x="222.460938" xlink:href="#ArialMT-2d"/>
       <use x="255.761719" xlink:href="#ArialMT-30"/>
       <use x="311.376953" xlink:href="#ArialMT-34"/>
      </g>
     </g>
    </g>
    <g id="xtick_3">
     <g id="line2d_3"/>
     <g id="text_3">
      <!-- 2019-07 -->
      <g style="fill:#262626;" transform="translate(213.935397 429.073125)scale(0.16 -0.16)">
       <defs>
        <path d="M 303 3981 
L 303 4522 
L 3269 4522 
L 3269 4084 
Q 2831 3619 2401 2847 
Q 1972 2075 1738 1259 
Q 1569 684 1522 0 
L 944 0 
Q 953 541 1156 1306 
Q 1359 2072 1739 2783 
Q 2119 3494 2547 3981 
L 303 3981 
z
" id="ArialMT-37" transform="scale(0.015625)"/>
       </defs>
       <use xlink:href="#ArialMT-32"/>
       <use x="55.615234" xlink:href="#ArialMT-30"/>
       <use x="111.230469" xlink:href="#ArialMT-31"/>
       <use x="166.845703" xlink:href="#ArialMT-39"/>
       <use x="222.460938" xlink:href="#ArialMT-2d"/>
       <use x="255.761719" xlink:href="#ArialMT-30"/>
       <use x="311.376953" xlink:href="#ArialMT-37"/>
      </g>
     </g>
    </g>
    <g id="xtick_4">
     <g id="line2d_4"/>
     <g id="text_4">
      <!-- 2019-10 -->
      <g style="fill:#262626;" transform="translate(294.054008 429.073125)scale(0.16 -0.16)">
       <use xlink:href="#ArialMT-32"/>
       <use x="55.615234" xlink:href="#ArialMT-30"/>
       <use x="111.230469" xlink:href="#ArialMT-31"/>
       <use x="166.845703" xlink:href="#ArialMT-39"/>
       <use x="222.460938" xlink:href="#ArialMT-2d"/>
       <use x="255.761719" xlink:href="#ArialMT-31"/>
       <use x="311.376953" xlink:href="#ArialMT-30"/>
      </g>
     </g>
    </g>
    <g id="xtick_5">
     <g id="line2d_5"/>
     <g id="text_5">
      <!-- 2020-01 -->
      <g style="fill:#262626;" transform="translate(374.172619 429.073125)scale(0.16 -0.16)">
       <use xlink:href="#ArialMT-32"/>
       <use x="55.615234" xlink:href="#ArialMT-30"/>
       <use x="111.230469" xlink:href="#ArialMT-32"/>
       <use x="166.845703" xlink:href="#ArialMT-30"/>
       <use x="222.460938" xlink:href="#ArialMT-2d"/>
       <use x="255.761719" xlink:href="#ArialMT-30"/>
       <use x="311.376953" xlink:href="#ArialMT-31"/>
      </g>
     </g>
    </g>
    <g id="xtick_6">
     <g id="line2d_6"/>
     <g id="text_6">
      <!-- 2020-04 -->
      <g style="fill:#262626;" transform="translate(453.420376 429.073125)scale(0.16 -0.16)">
       <use xlink:href="#ArialMT-32"/>
       <use x="55.615234" xlink:href="#ArialMT-30"/>
       <use x="111.230469" xlink:href="#ArialMT-32"/>
       <use x="166.845703" xlink:href="#ArialMT-30"/>
       <use x="222.460938" xlink:href="#ArialMT-2d"/>
       <use x="255.761719" xlink:href="#ArialMT-30"/>
       <use x="311.376953" xlink:href="#ArialMT-34"/>
      </g>
     </g>
    </g>
    <g id="xtick_7">
     <g id="line2d_7"/>
     <g id="text_7">
      <!-- 2020-07 -->
      <g style="fill:#262626;" transform="translate(532.668132 429.073125)scale(0.16 -0.16)">
       <use xlink:href="#ArialMT-32"/>
       <use x="55.615234" xlink:href="#ArialMT-30"/>
       <use x="111.230469" xlink:href="#ArialMT-32"/>
       <use x="166.845703" xlink:href="#ArialMT-30"/>
       <use x="222.460938" xlink:href="#ArialMT-2d"/>
       <use x="255.761719" xlink:href="#ArialMT-30"/>
       <use x="311.376953" xlink:href="#ArialMT-37"/>
      </g>
     </g>
    </g>
    <g id="xtick_8">
     <g id="line2d_8"/>
     <g id="text_8">
      <!-- 2020-10 -->
      <g style="fill:#262626;" transform="translate(612.786743 429.073125)scale(0.16 -0.16)">
       <use xlink:href="#ArialMT-32"/>
       <use x="55.615234" xlink:href="#ArialMT-30"/>
       <use x="111.230469" xlink:href="#ArialMT-32"/>
       <use x="166.845703" xlink:href="#ArialMT-30"/>
       <use x="222.460938" xlink:href="#ArialMT-2d"/>
       <use x="255.761719" xlink:href="#ArialMT-31"/>
       <use x="311.376953" xlink:href="#ArialMT-30"/>
      </g>
     </g>
    </g>
    <g id="xtick_9">
     <g id="line2d_9"/>
     <g id="text_9">
      <!-- 2021-01 -->
      <g style="fill:#262626;" transform="translate(692.905354 429.073125)scale(0.16 -0.16)">
       <use xlink:href="#ArialMT-32"/>
       <use x="55.615234" xlink:href="#ArialMT-30"/>
       <use x="111.230469" xlink:href="#ArialMT-32"/>
       <use x="166.845703" xlink:href="#ArialMT-31"/>
       <use x="222.460938" xlink:href="#ArialMT-2d"/>
       <use x="255.761719" xlink:href="#ArialMT-30"/>
       <use x="311.376953" xlink:href="#ArialMT-31"/>
      </g>
     </g>
    </g>
   </g>
   <g id="matplotlib.axis_2">
    <g id="ytick_1">
     <g id="line2d_10"/>
     <g id="text_10">
      <!-- 0.0 -->
      <g style="fill:#262626;" transform="translate(29.490625 419.846875)scale(0.16 -0.16)">
       <defs>
        <path d="M 581 0 
L 581 641 
L 1222 641 
L 1222 0 
L 581 0 
z
" id="ArialMT-2e" transform="scale(0.015625)"/>
       </defs>
       <use xlink:href="#ArialMT-30"/>
       <use x="55.615234" xlink:href="#ArialMT-2e"/>
       <use x="83.398438" xlink:href="#ArialMT-30"/>
      </g>
     </g>
    </g>
    <g id="ytick_2">
     <g id="line2d_11"/>
     <g id="text_11">
      <!-- 0.2 -->
      <g style="fill:#262626;" transform="translate(29.490625 358.963675)scale(0.16 -0.16)">
       <use xlink:href="#ArialMT-30"/>
       <use x="55.615234" xlink:href="#ArialMT-2e"/>
       <use x="83.398438" xlink:href="#ArialMT-32"/>
      </g>
     </g>
    </g>
    <g id="ytick_3">
     <g id="line2d_12"/>
     <g id="text_12">
      <!-- 0.4 -->
      <g style="fill:#262626;" transform="translate(29.490625 298.080475)scale(0.16 -0.16)">
       <use xlink:href="#ArialMT-30"/>
       <use x="55.615234" xlink:href="#ArialMT-2e"/>
       <use x="83.398438" xlink:href="#ArialMT-34"/>
      </g>
     </g>
    </g>
    <g id="ytick_4">
     <g id="line2d_13"/>
     <g id="text_13">
      <!-- 0.6 -->
      <g style="fill:#262626;" transform="translate(29.490625 237.197275)scale(0.16 -0.16)">
       <defs>
        <path d="M 3184 3459 
L 2625 3416 
Q 2550 3747 2413 3897 
Q 2184 4138 1850 4138 
Q 1581 4138 1378 3988 
Q 1113 3794 959 3422 
Q 806 3050 800 2363 
Q 1003 2672 1297 2822 
Q 1591 2972 1913 2972 
Q 2475 2972 2870 2558 
Q 3266 2144 3266 1488 
Q 3266 1056 3080 686 
Q 2894 316 2569 119 
Q 2244 -78 1831 -78 
Q 1128 -78 684 439 
Q 241 956 241 2144 
Q 241 3472 731 4075 
Q 1159 4600 1884 4600 
Q 2425 4600 2770 4297 
Q 3116 3994 3184 3459 
z
M 888 1484 
Q 888 1194 1011 928 
Q 1134 663 1356 523 
Q 1578 384 1822 384 
Q 2178 384 2434 671 
Q 2691 959 2691 1453 
Q 2691 1928 2437 2201 
Q 2184 2475 1800 2475 
Q 1419 2475 1153 2201 
Q 888 1928 888 1484 
z
" id="ArialMT-36" transform="scale(0.015625)"/>
       </defs>
       <use xlink:href="#ArialMT-30"/>
       <use x="55.615234" xlink:href="#ArialMT-2e"/>
       <use x="83.398438" xlink:href="#ArialMT-36"/>
      </g>
     </g>
    </g>
    <g id="ytick_5">
     <g id="line2d_14"/>
     <g id="text_14">
      <!-- 0.8 -->
      <g style="fill:#262626;" transform="translate(29.490625 176.314075)scale(0.16 -0.16)">
       <defs>
        <path d="M 1131 2484 
Q 781 2613 612 2850 
Q 444 3088 444 3419 
Q 444 3919 803 4259 
Q 1163 4600 1759 4600 
Q 2359 4600 2725 4251 
Q 3091 3903 3091 3403 
Q 3091 3084 2923 2848 
Q 2756 2613 2416 2484 
Q 2838 2347 3058 2040 
Q 3278 1734 3278 1309 
Q 3278 722 2862 322 
Q 2447 -78 1769 -78 
Q 1091 -78 675 323 
Q 259 725 259 1325 
Q 259 1772 486 2073 
Q 713 2375 1131 2484 
z
M 1019 3438 
Q 1019 3113 1228 2906 
Q 1438 2700 1772 2700 
Q 2097 2700 2305 2904 
Q 2513 3109 2513 3406 
Q 2513 3716 2298 3927 
Q 2084 4138 1766 4138 
Q 1444 4138 1231 3931 
Q 1019 3725 1019 3438 
z
M 838 1322 
Q 838 1081 952 856 
Q 1066 631 1291 507 
Q 1516 384 1775 384 
Q 2178 384 2440 643 
Q 2703 903 2703 1303 
Q 2703 1709 2433 1975 
Q 2163 2241 1756 2241 
Q 1359 2241 1098 1978 
Q 838 1716 838 1322 
z
" id="ArialMT-38" transform="scale(0.015625)"/>
       </defs>
       <use xlink:href="#ArialMT-30"/>
       <use x="55.615234" xlink:href="#ArialMT-2e"/>
       <use x="83.398438" xlink:href="#ArialMT-38"/>
      </g>
     </g>
    </g>
    <g id="ytick_6">
     <g id="line2d_15"/>
     <g id="text_15">
      <!-- 1.0 -->
      <g style="fill:#262626;" transform="translate(29.490625 115.430875)scale(0.16 -0.16)">
       <use xlink:href="#ArialMT-31"/>
       <use x="55.615234" xlink:href="#ArialMT-2e"/>
       <use x="83.398438" xlink:href="#ArialMT-30"/>
      </g>
     </g>
    </g>
    <g id="ytick_7">
     <g id="line2d_16"/>
     <g id="text_16">
      <!-- 1.2 -->
      <g style="fill:#262626;" transform="translate(29.490625 54.547675)scale(0.16 -0.16)">
       <use xlink:href="#ArialMT-31"/>
       <use x="55.615234" xlink:href="#ArialMT-2e"/>
       <use x="83.398438" xlink:href="#ArialMT-32"/>
      </g>
     </g>
    </g>
    <g id="text_17">
     <!-- Normalized Collision Rate -->
     <g style="fill:#262626;" transform="translate(21.515625 338.899687)rotate(-90)scale(0.2 -0.2)">
      <defs>
       <path d="M 488 0 
L 488 4581 
L 1109 4581 
L 3516 984 
L 3516 4581 
L 4097 4581 
L 4097 0 
L 3475 0 
L 1069 3600 
L 1069 0 
L 488 0 
z
" id="ArialMT-4e" transform="scale(0.015625)"/>
       <path d="M 213 1659 
Q 213 2581 725 3025 
Q 1153 3394 1769 3394 
Q 2453 3394 2887 2945 
Q 3322 2497 3322 1706 
Q 3322 1066 3130 698 
Q 2938 331 2570 128 
Q 2203 -75 1769 -75 
Q 1072 -75 642 372 
Q 213 819 213 1659 
z
M 791 1659 
Q 791 1022 1069 705 
Q 1347 388 1769 388 
Q 2188 388 2466 706 
Q 2744 1025 2744 1678 
Q 2744 2294 2464 2611 
Q 2184 2928 1769 2928 
Q 1347 2928 1069 2612 
Q 791 2297 791 1659 
z
" id="ArialMT-6f" transform="scale(0.015625)"/>
       <path d="M 416 0 
L 416 3319 
L 922 3319 
L 922 2816 
Q 1116 3169 1280 3281 
Q 1444 3394 1641 3394 
Q 1925 3394 2219 3213 
L 2025 2691 
Q 1819 2813 1613 2813 
Q 1428 2813 1281 2702 
Q 1134 2591 1072 2394 
Q 978 2094 978 1738 
L 978 0 
L 416 0 
z
" id="ArialMT-72" transform="scale(0.015625)"/>
       <path d="M 422 0 
L 422 3319 
L 925 3319 
L 925 2853 
Q 1081 3097 1340 3245 
Q 1600 3394 1931 3394 
Q 2300 3394 2536 3241 
Q 2772 3088 2869 2813 
Q 3263 3394 3894 3394 
Q 4388 3394 4653 3120 
Q 4919 2847 4919 2278 
L 4919 0 
L 4359 0 
L 4359 2091 
Q 4359 2428 4304 2576 
Q 4250 2725 4106 2815 
Q 3963 2906 3769 2906 
Q 3419 2906 3187 2673 
Q 2956 2441 2956 1928 
L 2956 0 
L 2394 0 
L 2394 2156 
Q 2394 2531 2256 2718 
Q 2119 2906 1806 2906 
Q 1569 2906 1367 2781 
Q 1166 2656 1075 2415 
Q 984 2175 984 1722 
L 984 0 
L 422 0 
z
" id="ArialMT-6d" transform="scale(0.015625)"/>
       <path d="M 2588 409 
Q 2275 144 1986 34 
Q 1697 -75 1366 -75 
Q 819 -75 525 192 
Q 231 459 231 875 
Q 231 1119 342 1320 
Q 453 1522 633 1644 
Q 813 1766 1038 1828 
Q 1203 1872 1538 1913 
Q 2219 1994 2541 2106 
Q 2544 2222 2544 2253 
Q 2544 2597 2384 2738 
Q 2169 2928 1744 2928 
Q 1347 2928 1158 2789 
Q 969 2650 878 2297 
L 328 2372 
Q 403 2725 575 2942 
Q 747 3159 1072 3276 
Q 1397 3394 1825 3394 
Q 2250 3394 2515 3294 
Q 2781 3194 2906 3042 
Q 3031 2891 3081 2659 
Q 3109 2516 3109 2141 
L 3109 1391 
Q 3109 606 3145 398 
Q 3181 191 3288 0 
L 2700 0 
Q 2613 175 2588 409 
z
M 2541 1666 
Q 2234 1541 1622 1453 
Q 1275 1403 1131 1340 
Q 988 1278 909 1158 
Q 831 1038 831 891 
Q 831 666 1001 516 
Q 1172 366 1500 366 
Q 1825 366 2078 508 
Q 2331 650 2450 897 
Q 2541 1088 2541 1459 
L 2541 1666 
z
" id="ArialMT-61" transform="scale(0.015625)"/>
       <path d="M 409 0 
L 409 4581 
L 972 4581 
L 972 0 
L 409 0 
z
" id="ArialMT-6c" transform="scale(0.015625)"/>
       <path d="M 425 3934 
L 425 4581 
L 988 4581 
L 988 3934 
L 425 3934 
z
M 425 0 
L 425 3319 
L 988 3319 
L 988 0 
L 425 0 
z
" id="ArialMT-69" transform="scale(0.015625)"/>
       <path d="M 125 0 
L 125 456 
L 2238 2881 
Q 1878 2863 1603 2863 
L 250 2863 
L 250 3319 
L 2963 3319 
L 2963 2947 
L 1166 841 
L 819 456 
Q 1197 484 1528 484 
L 3063 484 
L 3063 0 
L 125 0 
z
" id="ArialMT-7a" transform="scale(0.015625)"/>
       <path d="M 2694 1069 
L 3275 997 
Q 3138 488 2766 206 
Q 2394 -75 1816 -75 
Q 1088 -75 661 373 
Q 234 822 234 1631 
Q 234 2469 665 2931 
Q 1097 3394 1784 3394 
Q 2450 3394 2872 2941 
Q 3294 2488 3294 1666 
Q 3294 1616 3291 1516 
L 816 1516 
Q 847 969 1125 678 
Q 1403 388 1819 388 
Q 2128 388 2347 550 
Q 2566 713 2694 1069 
z
M 847 1978 
L 2700 1978 
Q 2663 2397 2488 2606 
Q 2219 2931 1791 2931 
Q 1403 2931 1139 2672 
Q 875 2413 847 1978 
z
" id="ArialMT-65" transform="scale(0.015625)"/>
       <path d="M 2575 0 
L 2575 419 
Q 2259 -75 1647 -75 
Q 1250 -75 917 144 
Q 584 363 401 755 
Q 219 1147 219 1656 
Q 219 2153 384 2558 
Q 550 2963 881 3178 
Q 1213 3394 1622 3394 
Q 1922 3394 2156 3267 
Q 2391 3141 2538 2938 
L 2538 4581 
L 3097 4581 
L 3097 0 
L 2575 0 
z
M 797 1656 
Q 797 1019 1065 703 
Q 1334 388 1700 388 
Q 2069 388 2326 689 
Q 2584 991 2584 1609 
Q 2584 2291 2321 2609 
Q 2059 2928 1675 2928 
Q 1300 2928 1048 2622 
Q 797 2316 797 1656 
z
" id="ArialMT-64" transform="scale(0.015625)"/>
       <path id="ArialMT-20" transform="scale(0.015625)"/>
       <path d="M 3763 1606 
L 4369 1453 
Q 4178 706 3683 314 
Q 3188 -78 2472 -78 
Q 1731 -78 1267 223 
Q 803 525 561 1097 
Q 319 1669 319 2325 
Q 319 3041 592 3573 
Q 866 4106 1370 4382 
Q 1875 4659 2481 4659 
Q 3169 4659 3637 4309 
Q 4106 3959 4291 3325 
L 3694 3184 
Q 3534 3684 3231 3912 
Q 2928 4141 2469 4141 
Q 1941 4141 1586 3887 
Q 1231 3634 1087 3207 
Q 944 2781 944 2328 
Q 944 1744 1114 1308 
Q 1284 872 1643 656 
Q 2003 441 2422 441 
Q 2931 441 3284 734 
Q 3638 1028 3763 1606 
z
" id="ArialMT-43" transform="scale(0.015625)"/>
       <path d="M 197 991 
L 753 1078 
Q 800 744 1014 566 
Q 1228 388 1613 388 
Q 2000 388 2187 545 
Q 2375 703 2375 916 
Q 2375 1106 2209 1216 
Q 2094 1291 1634 1406 
Q 1016 1563 777 1677 
Q 538 1791 414 1992 
Q 291 2194 291 2438 
Q 291 2659 392 2848 
Q 494 3038 669 3163 
Q 800 3259 1026 3326 
Q 1253 3394 1513 3394 
Q 1903 3394 2198 3281 
Q 2494 3169 2634 2976 
Q 2775 2784 2828 2463 
L 2278 2388 
Q 2241 2644 2061 2787 
Q 1881 2931 1553 2931 
Q 1166 2931 1000 2803 
Q 834 2675 834 2503 
Q 834 2394 903 2306 
Q 972 2216 1119 2156 
Q 1203 2125 1616 2013 
Q 2213 1853 2448 1751 
Q 2684 1650 2818 1456 
Q 2953 1263 2953 975 
Q 2953 694 2789 445 
Q 2625 197 2315 61 
Q 2006 -75 1616 -75 
Q 969 -75 630 194 
Q 291 463 197 991 
z
" id="ArialMT-73" transform="scale(0.015625)"/>
       <path d="M 422 0 
L 422 3319 
L 928 3319 
L 928 2847 
Q 1294 3394 1984 3394 
Q 2284 3394 2536 3286 
Q 2788 3178 2913 3003 
Q 3038 2828 3088 2588 
Q 3119 2431 3119 2041 
L 3119 0 
L 2556 0 
L 2556 2019 
Q 2556 2363 2490 2533 
Q 2425 2703 2258 2804 
Q 2091 2906 1866 2906 
Q 1506 2906 1245 2678 
Q 984 2450 984 1813 
L 984 0 
L 422 0 
z
" id="ArialMT-6e" transform="scale(0.015625)"/>
       <path d="M 503 0 
L 503 4581 
L 2534 4581 
Q 3147 4581 3465 4457 
Q 3784 4334 3975 4021 
Q 4166 3709 4166 3331 
Q 4166 2844 3850 2509 
Q 3534 2175 2875 2084 
Q 3116 1969 3241 1856 
Q 3506 1613 3744 1247 
L 4541 0 
L 3778 0 
L 3172 953 
Q 2906 1366 2734 1584 
Q 2563 1803 2427 1890 
Q 2291 1978 2150 2013 
Q 2047 2034 1813 2034 
L 1109 2034 
L 1109 0 
L 503 0 
z
M 1109 2559 
L 2413 2559 
Q 2828 2559 3062 2645 
Q 3297 2731 3419 2920 
Q 3541 3109 3541 3331 
Q 3541 3656 3305 3865 
Q 3069 4075 2559 4075 
L 1109 4075 
L 1109 2559 
z
" id="ArialMT-52" transform="scale(0.015625)"/>
       <path d="M 1650 503 
L 1731 6 
Q 1494 -44 1306 -44 
Q 1000 -44 831 53 
Q 663 150 594 308 
Q 525 466 525 972 
L 525 2881 
L 113 2881 
L 113 3319 
L 525 3319 
L 525 4141 
L 1084 4478 
L 1084 3319 
L 1650 3319 
L 1650 2881 
L 1084 2881 
L 1084 941 
Q 1084 700 1114 631 
Q 1144 563 1211 522 
Q 1278 481 1403 481 
Q 1497 481 1650 503 
z
" id="ArialMT-74" transform="scale(0.015625)"/>
      </defs>
      <use xlink:href="#ArialMT-4e"/>
      <use x="72.216797" xlink:href="#ArialMT-6f"/>
      <use x="127.832031" xlink:href="#ArialMT-72"/>
      <use x="161.132812" xlink:href="#ArialMT-6d"/>
      <use x="244.433594" xlink:href="#ArialMT-61"/>
      <use x="300.048828" xlink:href="#ArialMT-6c"/>
      <use x="322.265625" xlink:href="#ArialMT-69"/>
      <use x="344.482422" xlink:href="#ArialMT-7a"/>
      <use x="394.482422" xlink:href="#ArialMT-65"/>
      <use x="450.097656" xlink:href="#ArialMT-64"/>
      <use x="505.712891" xlink:href="#ArialMT-20"/>
      <use x="533.496094" xlink:href="#ArialMT-43"/>
      <use x="605.712891" xlink:href="#ArialMT-6f"/>
      <use x="661.328125" xlink:href="#ArialMT-6c"/>
      <use x="683.544922" xlink:href="#ArialMT-6c"/>
      <use x="705.761719" xlink:href="#ArialMT-69"/>
      <use x="727.978516" xlink:href="#ArialMT-73"/>
      <use x="777.978516" xlink:href="#ArialMT-69"/>
      <use x="800.195312" xlink:href="#ArialMT-6f"/>
      <use x="855.810547" xlink:href="#ArialMT-6e"/>
      <use x="911.425781" xlink:href="#ArialMT-20"/>
      <use x="939.208984" xlink:href="#ArialMT-52"/>
      <use x="1011.425781" xlink:href="#ArialMT-61"/>
      <use x="1067.041016" xlink:href="#ArialMT-74"/>
      <use x="1094.824219" xlink:href="#ArialMT-65"/>
     </g>
    </g>
   </g>
   <g id="line2d_17">
    <path clip-path="url(#p0c49645a88)" d="M 471.455518 414.120625 
L 471.455518 33.600625 
" style="fill:none;stroke:#ff0000;stroke-linecap:round;stroke-width:2;"/>
   </g>
   <g id="LineCollection_1">
    <path clip-path="url(#p0c49645a88)" d="M 85.666989 109.704625 
L 242.420793 109.704625 
" style="fill:none;stroke:#2ca02c;stroke-width:3;"/>
   </g>
   <g id="line2d_18">
    <path clip-path="url(#p0c49645a88)" d="M 90.892115 130.431379 
L 96.988097 130.431379 
L 96.988097 95.552969 
L 103.084078 95.552969 
L 103.084078 134.920679 
L 109.180059 134.920679 
L 109.180059 85.538376 
L 115.276041 85.538376 
L 115.276041 87.092365 
L 121.372022 87.092365 
L 121.372022 121.970775 
L 127.468003 121.970775 
L 127.468003 106.258224 
L 133.563984 106.258224 
L 133.563984 117.481474 
L 139.659966 117.481474 
L 139.659966 96.934292 
L 145.755947 96.934292 
L 145.755947 117.999471 
L 151.851928 117.999471 
L 151.851928 88.301022 
L 157.947909 88.301022 
L 157.947909 113.337505 
L 164.043891 113.337505 
L 164.043891 102.114254 
L 170.139872 102.114254 
L 170.139872 124.38809 
L 176.235853 124.38809 
L 176.235853 97.106958 
L 182.331835 97.106958 
L 182.331835 122.14344 
L 188.427816 122.14344 
L 188.427816 94.516977 
L 194.523797 94.516977 
L 194.523797 105.222231 
L 200.619778 105.222231 
L 200.619778 114.718828 
L 206.71576 114.718828 
L 206.71576 101.078262 
L 212.811741 101.078262 
L 212.811741 145.453269 
L 218.907722 145.453269 
L 218.907722 106.948885 
L 225.003703 106.948885 
L 225.003703 96.588962 
L 231.099685 96.588962 
L 231.099685 116.618147 
L 237.195666 116.618147 
L 237.195666 119.89879 
L 243.291647 119.89879 
L 243.291647 108.330208 
L 249.387629 108.330208 
L 249.387629 144.071945 
L 255.48361 144.071945 
L 255.48361 103.495577 
L 261.579591 103.495577 
L 261.579591 101.423593 
L 267.675572 101.423593 
L 267.675572 93.308319 
L 273.771554 93.308319 
L 273.771554 110.056862 
L 279.867535 110.056862 
L 279.867535 92.962988 
L 285.963516 92.962988 
L 285.963516 93.826315 
L 292.059497 93.826315 
L 292.059497 76.38711 
L 298.155479 76.38711 
L 298.155479 113.16484 
L 304.25146 113.16484 
L 304.25146 86.056372 
L 310.347441 86.056372 
L 310.347441 72.415806 
L 316.443423 72.415806 
L 316.443423 86.401703 
L 322.539404 86.401703 
L 322.539404 97.797619 
L 328.635385 97.797619 
L 328.635385 75.351118 
L 334.731366 75.351118 
L 334.731366 102.459585 
L 340.827348 102.459585 
L 340.827348 85.365711 
L 346.923329 85.365711 
L 346.923329 73.797129 
L 353.01931 73.797129 
L 353.01931 69.480494 
L 359.115291 69.480494 
L 359.115291 95.8983 
L 365.211273 95.8983 
L 365.211273 85.02038 
L 371.307254 85.02038 
L 371.307254 76.732441 
L 377.403235 76.732441 
L 377.403235 113.16484 
L 383.499216 113.16484 
L 383.499216 86.747034 
L 389.595198 86.747034 
L 389.595198 91.75433 
L 395.691179 91.75433 
L 395.691179 90.891003 
L 401.78716 90.891003 
L 401.78716 204.504834 
L 407.883142 204.504834 
L 407.883142 196.562226 
L 413.979123 196.562226 
L 413.979123 122.14344 
L 420.075104 122.14344 
L 420.075104 151.323892 
L 426.171085 151.323892 
L 426.171085 133.366691 
L 432.267067 133.366691 
L 432.267067 127.668733 
L 438.363048 127.668733 
L 438.363048 127.150737 
L 444.459029 127.150737 
L 444.459029 132.330699 
L 450.55501 132.330699 
L 450.55501 136.647333 
L 456.650992 136.647333 
L 456.650992 110.574859 
L 462.746973 110.574859 
L 462.746973 121.452779 
L 468.842954 121.452779 
L 468.842954 128.704725 
L 474.938936 128.704725 
L 474.938936 243.181883 
L 481.034917 243.181883 
L 481.034917 283.41292 
L 487.130898 283.41292 
L 487.130898 255.095795 
L 493.226879 255.095795 
L 493.226879 265.110388 
L 499.322861 265.110388 
L 499.322861 263.383734 
L 505.418842 263.383734 
L 505.418842 248.361845 
L 511.514823 248.361845 
L 511.514823 236.447932 
L 517.610804 236.447932 
L 517.610804 221.080712 
L 523.706786 221.080712 
L 523.706786 218.1454 
L 529.802767 218.1454 
L 529.802767 216.764077 
L 535.898748 216.764077 
L 535.898748 214.864758 
L 541.99473 214.864758 
L 541.99473 219.354058 
L 548.090711 219.354058 
L 548.090711 181.885667 
L 554.186692 181.885667 
L 554.186692 180.849675 
L 560.282673 180.849675 
L 560.282673 187.756291 
L 566.378655 187.756291 
L 566.378655 183.094325 
L 572.474636 183.094325 
L 572.474636 199.497538 
L 578.570617 199.497538 
L 578.570617 192.072926 
L 584.666598 192.072926 
L 584.666598 196.907557 
L 590.76258 196.907557 
L 590.76258 173.770394 
L 596.858561 173.770394 
L 596.858561 176.015044 
L 602.954542 176.015044 
L 602.954542 158.230508 
L 609.050524 158.230508 
L 609.050524 172.216405 
L 615.146505 172.216405 
L 615.146505 166.518447 
L 621.242486 166.518447 
L 621.242486 176.705705 
L 627.338467 176.705705 
L 627.338467 182.748994 
L 633.434449 182.748994 
L 633.434449 164.619128 
L 639.53043 164.619128 
L 639.53043 147.179923 
L 645.626411 147.179923 
L 645.626411 135.956672 
L 651.722392 135.956672 
L 651.722392 173.252397 
L 657.818374 173.252397 
L 657.818374 143.381284 
L 663.914355 143.381284 
L 663.914355 151.841888 
L 670.010336 151.841888 
L 670.010336 140.618638 
L 676.106318 140.618638 
L 676.106318 157.367181 
L 682.202299 157.367181 
L 682.202299 154.949865 
L 688.29828 154.949865 
L 688.29828 133.02136 
L 694.394261 133.02136 
L 694.394261 195.008237 
L 694.394261 195.008237 
" style="fill:none;stroke:#1f77b4;stroke-linecap:round;stroke-width:2;"/>
   </g>
   <g id="line2d_19">
    <path clip-path="url(#p0c49645a88)" d="M 90.892115 132.157155 
L 96.988097 132.157155 
L 96.988097 110.411363 
L 103.084078 110.411363 
L 103.084078 102.883974 
L 109.180059 102.883974 
L 109.180059 97.342978 
L 115.276041 97.342978 
L 115.276041 74.865357 
L 121.372022 74.865357 
L 121.372022 98.702091 
L 127.468003 98.702091 
L 127.468003 100.061203 
L 133.563984 100.061203 
L 133.563984 118.879677 
L 139.659966 118.879677 
L 139.659966 97.029337 
L 145.755947 97.029337 
L 145.755947 116.475094 
L 151.851928 116.475094 
L 151.851928 86.783724 
L 157.947909 86.783724 
L 157.947909 106.334027 
L 164.043891 106.334027 
L 164.043891 107.379498 
L 170.139872 107.379498 
L 170.139872 114.802341 
L 176.235853 114.802341 
L 176.235853 113.02504 
L 182.331835 113.02504 
L 182.331835 120.238789 
L 188.427816 120.238789 
L 188.427816 114.279605 
L 194.523797 114.279605 
L 194.523797 105.915839 
L 200.619778 105.915839 
L 200.619778 130.588949 
L 206.71576 130.588949 
L 206.71576 100.793032 
L 212.811741 100.793032 
L 212.811741 132.261703 
L 218.907722 132.261703 
L 218.907722 116.370547 
L 225.003703 116.370547 
L 225.003703 113.234134 
L 231.099685 113.234134 
L 231.099685 107.693139 
L 237.195666 107.693139 
L 237.195666 124.10703 
L 243.291647 124.10703 
L 243.291647 124.316125 
L 249.387629 124.316125 
L 249.387629 150.452894 
L 255.48361 150.452894 
L 255.48361 121.388806 
L 261.579591 121.388806 
L 261.579591 119.506959 
L 267.675572 119.506959 
L 267.675572 112.188664 
L 273.771554 112.188664 
L 273.771554 115.429623 
L 279.867535 115.429623 
L 279.867535 111.456834 
L 285.963516 111.456834 
L 285.963516 93.788378 
L 292.059497 93.788378 
L 292.059497 101.106673 
L 298.155479 101.106673 
L 298.155479 100.061203 
L 304.25146 100.061203 
L 304.25146 87.411006 
L 310.347441 87.411006 
L 310.347441 77.060845 
L 316.443423 77.060845 
L 316.443423 84.692782 
L 322.539404 84.692782 
L 322.539404 91.90653 
L 328.635385 91.90653 
L 328.635385 71.728944 
L 334.731366 71.728944 
L 334.731366 97.447526 
L 340.827348 97.447526 
L 340.827348 85.320065 
L 346.923329 85.320065 
L 346.923329 68.697079 
L 353.01931 68.697079 
L 353.01931 81.660917 
L 359.115291 81.660917 
L 359.115291 81.242728 
L 365.211273 81.242728 
L 365.211273 87.829194 
L 371.307254 87.829194 
L 371.307254 79.465428 
L 377.403235 79.465428 
L 377.403235 101.21122 
L 383.499216 101.21122 
L 383.499216 83.960952 
L 389.595198 83.960952 
L 389.595198 70.474379 
L 395.691179 70.474379 
L 395.691179 77.688128 
L 401.78716 77.688128 
L 401.78716 180.248811 
L 407.883142 180.248811 
L 407.883142 177.321493 
L 413.979123 177.321493 
L 413.979123 124.629766 
L 420.075104 124.629766 
L 420.075104 134.666285 
L 426.171085 134.666285 
L 426.171085 126.61616 
L 432.267067 126.61616 
L 432.267067 138.116339 
L 438.363048 138.116339 
L 438.363048 141.67094 
L 444.459029 141.67094 
L 444.459029 136.548133 
L 450.55501 136.548133 
L 450.55501 150.557441 
L 456.650992 150.557441 
L 456.650992 158.084831 
L 462.746973 158.084831 
L 462.746973 215.481177 
L 468.842954 215.481177 
L 468.842954 237.958798 
L 474.938936 237.958798 
L 474.938936 334.14211 
L 481.034917 334.14211 
L 481.034917 360.27888 
L 487.130898 360.27888 
L 487.130898 347.837778 
L 493.226879 347.837778 
L 493.226879 348.046872 
L 499.322861 348.046872 
L 499.322861 359.860691 
L 505.418842 359.860691 
L 505.418842 343.028612 
L 511.514823 343.028612 
L 511.514823 344.283177 
L 517.610804 344.283177 
L 517.610804 328.287474 
L 523.706786 328.287474 
L 523.706786 326.301079 
L 529.802767 326.301079 
L 529.802767 329.646586 
L 535.898748 329.646586 
L 535.898748 330.378415 
L 541.99473 330.378415 
L 541.99473 331.737527 
L 548.090711 331.737527 
L 548.090711 309.678094 
L 554.186692 309.678094 
L 554.186692 307.796247 
L 560.282673 307.796247 
L 560.282673 306.437135 
L 566.378655 306.437135 
L 566.378655 313.023601 
L 572.474636 313.023601 
L 572.474636 310.409924 
L 578.570617 310.409924 
L 578.570617 307.900794 
L 584.666598 307.900794 
L 584.666598 303.196175 
L 590.76258 303.196175 
L 590.76258 296.609709 
L 596.858561 296.609709 
L 596.858561 302.987081 
L 602.954542 302.987081 
L 602.954542 292.009638 
L 609.050524 292.009638 
L 609.050524 300.373404 
L 615.146505 300.373404 
L 615.146505 288.664131 
L 621.242486 288.664131 
L 621.242486 296.191521 
L 627.338467 296.191521 
L 627.338467 299.641575 
L 633.434449 299.641575 
L 633.434449 277.686688 
L 639.53043 277.686688 
L 639.53043 279.568536 
L 645.626411 279.568536 
L 645.626411 286.155001 
L 651.722392 286.155001 
L 651.722392 287.200472 
L 657.818374 287.200472 
L 657.818374 265.350133 
L 663.914355 265.350133 
L 663.914355 275.804841 
L 670.010336 275.804841 
L 670.010336 259.913685 
L 676.106318 259.913685 
L 676.106318 279.0458 
L 682.202299 279.0458 
L 682.202299 269.218375 
L 688.29828 269.218375 
L 688.29828 257.195461 
L 694.394261 257.195461 
L 694.394261 295.87788 
L 694.394261 295.87788 
" style="fill:none;stroke:#ff7f0e;stroke-linecap:round;stroke-width:2;"/>
   </g>
   <g id="line2d_20"/>
   <g id="line2d_21"/>
   <g id="patch_3">
    <path d="M 55.230625 414.120625 
L 55.230625 33.600625 
" style="fill:none;stroke:#262626;stroke-linecap:square;stroke-linejoin:miter;stroke-width:1.25;"/>
   </g>
   <g id="patch_4">
    <path d="M 724.830625 414.120625 
L 724.830625 33.600625 
" style="fill:none;stroke:#262626;stroke-linecap:square;stroke-linejoin:miter;stroke-width:1.25;"/>
   </g>
   <g id="patch_5">
    <path d="M 55.230625 414.120625 
L 724.830625 414.120625 
" style="fill:none;stroke:#262626;stroke-linecap:square;stroke-linejoin:miter;stroke-width:1.25;"/>
   </g>
   <g id="patch_6">
    <path d="M 55.230625 33.600625 
L 724.830625 33.600625 
" style="fill:none;stroke:#262626;stroke-linecap:square;stroke-linejoin:miter;stroke-width:1.25;"/>
   </g>
   <g id="text_18">
    <!-- Toyota -->
    <g style="fill:#ff7f0e;" transform="translate(589.020871 331.928305)scale(0.3 -0.3)">
     <defs>
      <path d="M 1659 0 
L 1659 4041 
L 150 4041 
L 150 4581 
L 3781 4581 
L 3781 4041 
L 2266 4041 
L 2266 0 
L 1659 0 
z
" id="ArialMT-54" transform="scale(0.015625)"/>
      <path d="M 397 -1278 
L 334 -750 
Q 519 -800 656 -800 
Q 844 -800 956 -737 
Q 1069 -675 1141 -563 
Q 1194 -478 1313 -144 
Q 1328 -97 1363 -6 
L 103 3319 
L 709 3319 
L 1400 1397 
Q 1534 1031 1641 628 
Q 1738 1016 1872 1384 
L 2581 3319 
L 3144 3319 
L 1881 -56 
Q 1678 -603 1566 -809 
Q 1416 -1088 1222 -1217 
Q 1028 -1347 759 -1347 
Q 597 -1347 397 -1278 
z
" id="ArialMT-79" transform="scale(0.015625)"/>
     </defs>
     <use xlink:href="#ArialMT-54"/>
     <use x="49.958984" xlink:href="#ArialMT-6f"/>
     <use x="105.574219" xlink:href="#ArialMT-79"/>
     <use x="155.574219" xlink:href="#ArialMT-6f"/>
     <use x="211.189453" xlink:href="#ArialMT-74"/>
     <use x="238.972656" xlink:href="#ArialMT-61"/>
    </g>
   </g>
   <g id="text_19">
    <!-- Ford -->
    <g style="fill:#1f77b4;" transform="translate(589.020871 222.338545)scale(0.3 -0.3)">
     <defs>
      <path d="M 525 0 
L 525 4581 
L 3616 4581 
L 3616 4041 
L 1131 4041 
L 1131 2622 
L 3281 2622 
L 3281 2081 
L 1131 2081 
L 1131 0 
L 525 0 
z
" id="ArialMT-46" transform="scale(0.015625)"/>
     </defs>
     <use xlink:href="#ArialMT-46"/>
     <use x="61.083984" xlink:href="#ArialMT-6f"/>
     <use x="116.699219" xlink:href="#ArialMT-72"/>
     <use x="150" xlink:href="#ArialMT-64"/>
    </g>
   </g>
   <g id="text_20">
    <!-- Stay-at-home Order -->
    <g style="fill:#ff0000;" transform="translate(478.422353 109.704625)scale(0.24 -0.24)">
     <defs>
      <path d="M 288 1472 
L 859 1522 
Q 900 1178 1048 958 
Q 1197 738 1509 602 
Q 1822 466 2213 466 
Q 2559 466 2825 569 
Q 3091 672 3220 851 
Q 3350 1031 3350 1244 
Q 3350 1459 3225 1620 
Q 3100 1781 2813 1891 
Q 2628 1963 1997 2114 
Q 1366 2266 1113 2400 
Q 784 2572 623 2826 
Q 463 3081 463 3397 
Q 463 3744 659 4045 
Q 856 4347 1234 4503 
Q 1613 4659 2075 4659 
Q 2584 4659 2973 4495 
Q 3363 4331 3572 4012 
Q 3781 3694 3797 3291 
L 3216 3247 
Q 3169 3681 2898 3903 
Q 2628 4125 2100 4125 
Q 1550 4125 1298 3923 
Q 1047 3722 1047 3438 
Q 1047 3191 1225 3031 
Q 1400 2872 2139 2705 
Q 2878 2538 3153 2413 
Q 3553 2228 3743 1945 
Q 3934 1663 3934 1294 
Q 3934 928 3725 604 
Q 3516 281 3123 101 
Q 2731 -78 2241 -78 
Q 1619 -78 1198 103 
Q 778 284 539 648 
Q 300 1013 288 1472 
z
" id="ArialMT-53" transform="scale(0.015625)"/>
      <path d="M 422 0 
L 422 4581 
L 984 4581 
L 984 2938 
Q 1378 3394 1978 3394 
Q 2347 3394 2619 3248 
Q 2891 3103 3008 2847 
Q 3125 2591 3125 2103 
L 3125 0 
L 2563 0 
L 2563 2103 
Q 2563 2525 2380 2717 
Q 2197 2909 1863 2909 
Q 1613 2909 1392 2779 
Q 1172 2650 1078 2428 
Q 984 2206 984 1816 
L 984 0 
L 422 0 
z
" id="ArialMT-68" transform="scale(0.015625)"/>
      <path d="M 309 2231 
Q 309 3372 921 4017 
Q 1534 4663 2503 4663 
Q 3138 4663 3647 4359 
Q 4156 4056 4423 3514 
Q 4691 2972 4691 2284 
Q 4691 1588 4409 1038 
Q 4128 488 3612 205 
Q 3097 -78 2500 -78 
Q 1853 -78 1343 234 
Q 834 547 571 1087 
Q 309 1628 309 2231 
z
M 934 2222 
Q 934 1394 1379 917 
Q 1825 441 2497 441 
Q 3181 441 3623 922 
Q 4066 1403 4066 2288 
Q 4066 2847 3877 3264 
Q 3688 3681 3323 3911 
Q 2959 4141 2506 4141 
Q 1863 4141 1398 3698 
Q 934 3256 934 2222 
z
" id="ArialMT-4f" transform="scale(0.015625)"/>
     </defs>
     <use xlink:href="#ArialMT-53"/>
     <use x="66.699219" xlink:href="#ArialMT-74"/>
     <use x="94.482422" xlink:href="#ArialMT-61"/>
     <use x="150.097656" xlink:href="#ArialMT-79"/>
     <use x="200.097656" xlink:href="#ArialMT-2d"/>
     <use x="233.398438" xlink:href="#ArialMT-61"/>
     <use x="289.013672" xlink:href="#ArialMT-74"/>
     <use x="316.796875" xlink:href="#ArialMT-2d"/>
     <use x="350.097656" xlink:href="#ArialMT-68"/>
     <use x="405.712891" xlink:href="#ArialMT-6f"/>
     <use x="461.328125" xlink:href="#ArialMT-6d"/>
     <use x="544.628906" xlink:href="#ArialMT-65"/>
     <use x="600.244141" xlink:href="#ArialMT-20"/>
     <use x="628.027344" xlink:href="#ArialMT-4f"/>
     <use x="705.810547" xlink:href="#ArialMT-72"/>
     <use x="739.111328" xlink:href="#ArialMT-64"/>
     <use x="794.726562" xlink:href="#ArialMT-65"/>
     <use x="850.341797" xlink:href="#ArialMT-72"/>
    </g>
   </g>
   <g id="text_21">
    <!-- Mean normalized from -->
    <g style="fill:#2ca02c;" transform="translate(69.991608 175.644925)scale(0.24 -0.24)">
     <defs>
      <path d="M 475 0 
L 475 4581 
L 1388 4581 
L 2472 1338 
Q 2622 884 2691 659 
Q 2769 909 2934 1394 
L 4031 4581 
L 4847 4581 
L 4847 0 
L 4263 0 
L 4263 3834 
L 2931 0 
L 2384 0 
L 1059 3900 
L 1059 0 
L 475 0 
z
" id="ArialMT-4d" transform="scale(0.015625)"/>
      <path d="M 556 0 
L 556 2881 
L 59 2881 
L 59 3319 
L 556 3319 
L 556 3672 
Q 556 4006 616 4169 
Q 697 4388 901 4523 
Q 1106 4659 1475 4659 
Q 1713 4659 2000 4603 
L 1916 4113 
Q 1741 4144 1584 4144 
Q 1328 4144 1222 4034 
Q 1116 3925 1116 3625 
L 1116 3319 
L 1763 3319 
L 1763 2881 
L 1116 2881 
L 1116 0 
L 556 0 
z
" id="ArialMT-66" transform="scale(0.015625)"/>
     </defs>
     <use xlink:href="#ArialMT-4d"/>
     <use x="83.300781" xlink:href="#ArialMT-65"/>
     <use x="138.916016" xlink:href="#ArialMT-61"/>
     <use x="194.53125" xlink:href="#ArialMT-6e"/>
     <use x="250.146484" xlink:href="#ArialMT-20"/>
     <use x="277.929688" xlink:href="#ArialMT-6e"/>
     <use x="333.544922" xlink:href="#ArialMT-6f"/>
     <use x="389.160156" xlink:href="#ArialMT-72"/>
     <use x="422.460938" xlink:href="#ArialMT-6d"/>
     <use x="505.761719" xlink:href="#ArialMT-61"/>
     <use x="561.376953" xlink:href="#ArialMT-6c"/>
     <use x="583.59375" xlink:href="#ArialMT-69"/>
     <use x="605.810547" xlink:href="#ArialMT-7a"/>
     <use x="655.810547" xlink:href="#ArialMT-65"/>
     <use x="711.425781" xlink:href="#ArialMT-64"/>
     <use x="767.041016" xlink:href="#ArialMT-20"/>
     <use x="794.824219" xlink:href="#ArialMT-66"/>
     <use x="822.607422" xlink:href="#ArialMT-72"/>
     <use x="855.908203" xlink:href="#ArialMT-6f"/>
     <use x="911.523438" xlink:href="#ArialMT-6d"/>
    </g>
    <!-- January through June -->
    <g style="fill:#2ca02c;" transform="translate(69.991608 201.029425)scale(0.24 -0.24)">
     <defs>
      <path d="M 184 1300 
L 731 1375 
Q 753 850 928 656 
Q 1103 463 1413 463 
Q 1641 463 1806 567 
Q 1972 672 2034 851 
Q 2097 1031 2097 1425 
L 2097 4581 
L 2703 4581 
L 2703 1459 
Q 2703 884 2564 568 
Q 2425 253 2123 87 
Q 1822 -78 1416 -78 
Q 813 -78 492 269 
Q 172 616 184 1300 
z
" id="ArialMT-4a" transform="scale(0.015625)"/>
      <path d="M 2597 0 
L 2597 488 
Q 2209 -75 1544 -75 
Q 1250 -75 995 37 
Q 741 150 617 320 
Q 494 491 444 738 
Q 409 903 409 1263 
L 409 3319 
L 972 3319 
L 972 1478 
Q 972 1038 1006 884 
Q 1059 663 1231 536 
Q 1403 409 1656 409 
Q 1909 409 2131 539 
Q 2353 669 2445 892 
Q 2538 1116 2538 1541 
L 2538 3319 
L 3100 3319 
L 3100 0 
L 2597 0 
z
" id="ArialMT-75" transform="scale(0.015625)"/>
      <path d="M 319 -275 
L 866 -356 
Q 900 -609 1056 -725 
Q 1266 -881 1628 -881 
Q 2019 -881 2231 -725 
Q 2444 -569 2519 -288 
Q 2563 -116 2559 434 
Q 2191 0 1641 0 
Q 956 0 581 494 
Q 206 988 206 1678 
Q 206 2153 378 2554 
Q 550 2956 876 3175 
Q 1203 3394 1644 3394 
Q 2231 3394 2613 2919 
L 2613 3319 
L 3131 3319 
L 3131 450 
Q 3131 -325 2973 -648 
Q 2816 -972 2473 -1159 
Q 2131 -1347 1631 -1347 
Q 1038 -1347 672 -1080 
Q 306 -813 319 -275 
z
M 784 1719 
Q 784 1066 1043 766 
Q 1303 466 1694 466 
Q 2081 466 2343 764 
Q 2606 1063 2606 1700 
Q 2606 2309 2336 2618 
Q 2066 2928 1684 2928 
Q 1309 2928 1046 2623 
Q 784 2319 784 1719 
z
" id="ArialMT-67" transform="scale(0.015625)"/>
     </defs>
     <use xlink:href="#ArialMT-4a"/>
     <use x="50" xlink:href="#ArialMT-61"/>
     <use x="105.615234" xlink:href="#ArialMT-6e"/>
     <use x="161.230469" xlink:href="#ArialMT-75"/>
     <use x="216.845703" xlink:href="#ArialMT-61"/>
     <use x="272.460938" xlink:href="#ArialMT-72"/>
     <use x="305.761719" xlink:href="#ArialMT-79"/>
     <use x="355.761719" xlink:href="#ArialMT-20"/>
     <use x="383.544922" xlink:href="#ArialMT-74"/>
     <use x="411.328125" xlink:href="#ArialMT-68"/>
     <use x="466.943359" xlink:href="#ArialMT-72"/>
     <use x="500.244141" xlink:href="#ArialMT-6f"/>
     <use x="555.859375" xlink:href="#ArialMT-75"/>
     <use x="611.474609" xlink:href="#ArialMT-67"/>
     <use x="667.089844" xlink:href="#ArialMT-68"/>
     <use x="722.705078" xlink:href="#ArialMT-20"/>
     <use x="750.488281" xlink:href="#ArialMT-4a"/>
     <use x="800.488281" xlink:href="#ArialMT-75"/>
     <use x="856.103516" xlink:href="#ArialMT-6e"/>
     <use x="911.71875" xlink:href="#ArialMT-65"/>
    </g>
   </g>
   <g id="text_22">
    <!-- Normalized Collisions Rates During the COVID-19 Pandemic -->
    <g style="fill:#262626;" transform="translate(11.897188 27.600625)scale(0.28 -0.28)">
     <defs>
      <path d="M 494 0 
L 494 4581 
L 2072 4581 
Q 2606 4581 2888 4516 
Q 3281 4425 3559 4188 
Q 3922 3881 4101 3404 
Q 4281 2928 4281 2316 
Q 4281 1794 4159 1391 
Q 4038 988 3847 723 
Q 3656 459 3429 307 
Q 3203 156 2883 78 
Q 2563 0 2147 0 
L 494 0 
z
M 1100 541 
L 2078 541 
Q 2531 541 2789 625 
Q 3047 709 3200 863 
Q 3416 1078 3536 1442 
Q 3656 1806 3656 2325 
Q 3656 3044 3420 3430 
Q 3184 3816 2847 3947 
Q 2603 4041 2063 4041 
L 1100 4041 
L 1100 541 
z
" id="ArialMT-44" transform="scale(0.015625)"/>
      <path d="M 1803 0 
L 28 4581 
L 684 4581 
L 1875 1253 
Q 2019 853 2116 503 
Q 2222 878 2363 1253 
L 3600 4581 
L 4219 4581 
L 2425 0 
L 1803 0 
z
" id="ArialMT-56" transform="scale(0.015625)"/>
      <path d="M 597 0 
L 597 4581 
L 1203 4581 
L 1203 0 
L 597 0 
z
" id="ArialMT-49" transform="scale(0.015625)"/>
      <path d="M 494 0 
L 494 4581 
L 2222 4581 
Q 2678 4581 2919 4538 
Q 3256 4481 3484 4323 
Q 3713 4166 3852 3881 
Q 3991 3597 3991 3256 
Q 3991 2672 3619 2267 
Q 3247 1863 2275 1863 
L 1100 1863 
L 1100 0 
L 494 0 
z
M 1100 2403 
L 2284 2403 
Q 2872 2403 3119 2622 
Q 3366 2841 3366 3238 
Q 3366 3525 3220 3729 
Q 3075 3934 2838 4000 
Q 2684 4041 2272 4041 
L 1100 4041 
L 1100 2403 
z
" id="ArialMT-50" transform="scale(0.015625)"/>
      <path d="M 2588 1216 
L 3141 1144 
Q 3050 572 2676 248 
Q 2303 -75 1759 -75 
Q 1078 -75 664 370 
Q 250 816 250 1647 
Q 250 2184 428 2587 
Q 606 2991 970 3192 
Q 1334 3394 1763 3394 
Q 2303 3394 2647 3120 
Q 2991 2847 3088 2344 
L 2541 2259 
Q 2463 2594 2264 2762 
Q 2066 2931 1784 2931 
Q 1359 2931 1093 2626 
Q 828 2322 828 1663 
Q 828 994 1084 691 
Q 1341 388 1753 388 
Q 2084 388 2306 591 
Q 2528 794 2588 1216 
z
" id="ArialMT-63" transform="scale(0.015625)"/>
     </defs>
     <use xlink:href="#ArialMT-4e"/>
     <use x="72.216797" xlink:href="#ArialMT-6f"/>
     <use x="127.832031" xlink:href="#ArialMT-72"/>
     <use x="161.132812" xlink:href="#ArialMT-6d"/>
     <use x="244.433594" xlink:href="#ArialMT-61"/>
     <use x="300.048828" xlink:href="#ArialMT-6c"/>
     <use x="322.265625" xlink:href="#ArialMT-69"/>
     <use x="344.482422" xlink:href="#ArialMT-7a"/>
     <use x="394.482422" xlink:href="#ArialMT-65"/>
     <use x="450.097656" xlink:href="#ArialMT-64"/>
     <use x="505.712891" xlink:href="#ArialMT-20"/>
     <use x="533.496094" xlink:href="#ArialMT-43"/>
     <use x="605.712891" xlink:href="#ArialMT-6f"/>
     <use x="661.328125" xlink:href="#ArialMT-6c"/>
     <use x="683.544922" xlink:href="#ArialMT-6c"/>
     <use x="705.761719" xlink:href="#ArialMT-69"/>
     <use x="727.978516" xlink:href="#ArialMT-73"/>
     <use x="777.978516" xlink:href="#ArialMT-69"/>
     <use x="800.195312" xlink:href="#ArialMT-6f"/>
     <use x="855.810547" xlink:href="#ArialMT-6e"/>
     <use x="911.425781" xlink:href="#ArialMT-73"/>
     <use x="961.425781" xlink:href="#ArialMT-20"/>
     <use x="989.208984" xlink:href="#ArialMT-52"/>
     <use x="1061.425781" xlink:href="#ArialMT-61"/>
     <use x="1117.041016" xlink:href="#ArialMT-74"/>
     <use x="1144.824219" xlink:href="#ArialMT-65"/>
     <use x="1200.439453" xlink:href="#ArialMT-73"/>
     <use x="1250.439453" xlink:href="#ArialMT-20"/>
     <use x="1278.222656" xlink:href="#ArialMT-44"/>
     <use x="1350.439453" xlink:href="#ArialMT-75"/>
     <use x="1406.054688" xlink:href="#ArialMT-72"/>
     <use x="1439.355469" xlink:href="#ArialMT-69"/>
     <use x="1461.572266" xlink:href="#ArialMT-6e"/>
     <use x="1517.1875" xlink:href="#ArialMT-67"/>
     <use x="1572.802734" xlink:href="#ArialMT-20"/>
     <use x="1600.585938" xlink:href="#ArialMT-74"/>
     <use x="1628.369141" xlink:href="#ArialMT-68"/>
     <use x="1683.984375" xlink:href="#ArialMT-65"/>
     <use x="1739.599609" xlink:href="#ArialMT-20"/>
     <use x="1767.382812" xlink:href="#ArialMT-43"/>
     <use x="1839.599609" xlink:href="#ArialMT-4f"/>
     <use x="1917.382812" xlink:href="#ArialMT-56"/>
     <use x="1984.082031" xlink:href="#ArialMT-49"/>
     <use x="2011.865234" xlink:href="#ArialMT-44"/>
     <use x="2084.082031" xlink:href="#ArialMT-2d"/>
     <use x="2117.382812" xlink:href="#ArialMT-31"/>
     <use x="2172.998047" xlink:href="#ArialMT-39"/>
     <use x="2228.613281" xlink:href="#ArialMT-20"/>
     <use x="2256.396484" xlink:href="#ArialMT-50"/>
     <use x="2323.095703" xlink:href="#ArialMT-61"/>
     <use x="2378.710938" xlink:href="#ArialMT-6e"/>
     <use x="2434.326172" xlink:href="#ArialMT-64"/>
     <use x="2489.941406" xlink:href="#ArialMT-65"/>
     <use x="2545.556641" xlink:href="#ArialMT-6d"/>
     <use x="2628.857422" xlink:href="#ArialMT-69"/>
     <use x="2651.074219" xlink:href="#ArialMT-63"/>
    </g>
   </g>
  </g>
 </g>
 <defs>
  <clipPath id="p0c49645a88">
   <rect height="380.52" width="669.6" x="55.230625" y="33.600625"/>
  </clipPath>
 </defs>
</svg>
