<?xml version="1.0" encoding="utf-8" standalone="no"?>
<!DOCTYPE svg PUBLIC "-//W3C//DTD SVG 1.1//EN"
  "http://www.w3.org/Graphics/SVG/1.1/DTD/svg11.dtd">
<!-- Created with matplotlib (http://matplotlib.org/) -->
<svg height="453pt" version="1.1" viewBox="0 0 618 453" width="618pt" xmlns="http://www.w3.org/2000/svg" xmlns:xlink="http://www.w3.org/1999/xlink">
 <defs>
  <style type="text/css">
*{stroke-linecap:butt;stroke-linejoin:round;}
  </style>
 </defs>
 <g id="figure_1">
  <g id="patch_1">
   <path d="M 0 453.74125 
L 618.21 453.74125 
L 618.21 0 
L 0 0 
z
" style="fill:#ffffff;"/>
  </g>
  <g id="axes_1">
   <g id="patch_2">
    <path d="M 46.336875 409.5325 
L 604.336875 409.5325 
L 604.336875 29.0125 
L 46.336875 29.0125 
z
" style="fill:#ffffff;"/>
   </g>
   <g id="matplotlib.axis_1">
    <g id="xtick_1">
     <g id="line2d_1"/>
     <g id="text_1">
      <!-- 10 -->
      <defs>
       <path d="M 37.25 0 
L 28.46875 0 
L 28.46875 56 
Q 25.296875 52.984375 20.140625 49.953125 
Q 14.984375 46.921875 10.890625 45.40625 
L 10.890625 53.90625 
Q 18.265625 57.375 23.78125 62.296875 
Q 29.296875 67.234375 31.59375 71.875 
L 37.25 71.875 
z
" id="ArialMT-31"/>
       <path d="M 4.15625 35.296875 
Q 4.15625 48 6.765625 55.734375 
Q 9.375 63.484375 14.515625 67.671875 
Q 19.671875 71.875 27.484375 71.875 
Q 33.25 71.875 37.59375 69.546875 
Q 41.9375 67.234375 44.765625 62.859375 
Q 47.609375 58.5 49.21875 52.21875 
Q 50.828125 45.953125 50.828125 35.296875 
Q 50.828125 22.703125 48.234375 14.96875 
Q 45.65625 7.234375 40.5 3 
Q 35.359375 -1.21875 27.484375 -1.21875 
Q 17.140625 -1.21875 11.234375 6.203125 
Q 4.15625 15.140625 4.15625 35.296875 
z
M 13.1875 35.296875 
Q 13.1875 17.671875 17.3125 11.828125 
Q 21.4375 6 27.484375 6 
Q 33.546875 6 37.671875 11.859375 
Q 41.796875 17.71875 41.796875 35.296875 
Q 41.796875 52.984375 37.671875 58.78125 
Q 33.546875 64.59375 27.390625 64.59375 
Q 21.34375 64.59375 17.71875 59.46875 
Q 13.1875 52.9375 13.1875 35.296875 
z
" id="ArialMT-30"/>
      </defs>
      <g style="fill:#262626;" transform="translate(39.66375 421.621875)scale(0.12 -0.12)">
       <use xlink:href="#ArialMT-31"/>
       <use x="55.615234" xlink:href="#ArialMT-30"/>
      </g>
     </g>
    </g>
    <g id="xtick_2">
     <g id="line2d_2"/>
     <g id="text_2">
      <!-- 15 -->
      <defs>
       <path d="M 4.15625 18.75 
L 13.375 19.53125 
Q 14.40625 12.796875 18.140625 9.390625 
Q 21.875 6 27.15625 6 
Q 33.5 6 37.890625 10.78125 
Q 42.28125 15.578125 42.28125 23.484375 
Q 42.28125 31 38.0625 35.34375 
Q 33.84375 39.703125 27 39.703125 
Q 22.75 39.703125 19.328125 37.765625 
Q 15.921875 35.84375 13.96875 32.765625 
L 5.71875 33.84375 
L 12.640625 70.609375 
L 48.25 70.609375 
L 48.25 62.203125 
L 19.671875 62.203125 
L 15.828125 42.96875 
Q 22.265625 47.46875 29.34375 47.46875 
Q 38.71875 47.46875 45.15625 40.96875 
Q 51.609375 34.46875 51.609375 24.265625 
Q 51.609375 14.546875 45.953125 7.46875 
Q 39.0625 -1.21875 27.15625 -1.21875 
Q 17.390625 -1.21875 11.203125 4.25 
Q 5.03125 9.71875 4.15625 18.75 
z
" id="ArialMT-35"/>
      </defs>
      <g style="fill:#262626;" transform="translate(109.41375 421.621875)scale(0.12 -0.12)">
       <use xlink:href="#ArialMT-31"/>
       <use x="55.615234" xlink:href="#ArialMT-35"/>
      </g>
     </g>
    </g>
    <g id="xtick_3">
     <g id="line2d_3"/>
     <g id="text_3">
      <!-- 20 -->
      <defs>
       <path d="M 50.34375 8.453125 
L 50.34375 0 
L 3.03125 0 
Q 2.9375 3.171875 4.046875 6.109375 
Q 5.859375 10.9375 9.828125 15.625 
Q 13.8125 20.3125 21.34375 26.46875 
Q 33.015625 36.03125 37.109375 41.625 
Q 41.21875 47.21875 41.21875 52.203125 
Q 41.21875 57.421875 37.46875 61 
Q 33.734375 64.59375 27.734375 64.59375 
Q 21.390625 64.59375 17.578125 60.78125 
Q 13.765625 56.984375 13.71875 50.25 
L 4.6875 51.171875 
Q 5.609375 61.28125 11.65625 66.578125 
Q 17.71875 71.875 27.9375 71.875 
Q 38.234375 71.875 44.234375 66.15625 
Q 50.25 60.453125 50.25 52 
Q 50.25 47.703125 48.484375 43.546875 
Q 46.734375 39.40625 42.65625 34.8125 
Q 38.578125 30.21875 29.109375 22.21875 
Q 21.1875 15.578125 18.9375 13.203125 
Q 16.703125 10.84375 15.234375 8.453125 
z
" id="ArialMT-32"/>
      </defs>
      <g style="fill:#262626;" transform="translate(179.16375 421.621875)scale(0.12 -0.12)">
       <use xlink:href="#ArialMT-32"/>
       <use x="55.615234" xlink:href="#ArialMT-30"/>
      </g>
     </g>
    </g>
    <g id="xtick_4">
     <g id="line2d_4"/>
     <g id="text_4">
      <!-- 25 -->
      <g style="fill:#262626;" transform="translate(248.91375 421.621875)scale(0.12 -0.12)">
       <use xlink:href="#ArialMT-32"/>
       <use x="55.615234" xlink:href="#ArialMT-35"/>
      </g>
     </g>
    </g>
    <g id="xtick_5">
     <g id="line2d_5"/>
     <g id="text_5">
      <!-- 30 -->
      <defs>
       <path d="M 4.203125 18.890625 
L 12.984375 20.0625 
Q 14.5 12.59375 18.140625 9.296875 
Q 21.78125 6 27 6 
Q 33.203125 6 37.46875 10.296875 
Q 41.75 14.59375 41.75 20.953125 
Q 41.75 27 37.796875 30.921875 
Q 33.84375 34.859375 27.734375 34.859375 
Q 25.25 34.859375 21.53125 33.890625 
L 22.515625 41.609375 
Q 23.390625 41.5 23.921875 41.5 
Q 29.546875 41.5 34.03125 44.421875 
Q 38.53125 47.359375 38.53125 53.46875 
Q 38.53125 58.296875 35.25 61.46875 
Q 31.984375 64.65625 26.8125 64.65625 
Q 21.6875 64.65625 18.265625 61.421875 
Q 14.84375 58.203125 13.875 51.765625 
L 5.078125 53.328125 
Q 6.6875 62.15625 12.390625 67.015625 
Q 18.109375 71.875 26.609375 71.875 
Q 32.46875 71.875 37.390625 69.359375 
Q 42.328125 66.84375 44.9375 62.5 
Q 47.5625 58.15625 47.5625 53.265625 
Q 47.5625 48.640625 45.0625 44.828125 
Q 42.578125 41.015625 37.703125 38.765625 
Q 44.046875 37.3125 47.5625 32.6875 
Q 51.078125 28.078125 51.078125 21.140625 
Q 51.078125 11.765625 44.234375 5.25 
Q 37.40625 -1.265625 26.953125 -1.265625 
Q 17.53125 -1.265625 11.296875 4.34375 
Q 5.078125 9.96875 4.203125 18.890625 
z
" id="ArialMT-33"/>
      </defs>
      <g style="fill:#262626;" transform="translate(318.66375 421.621875)scale(0.12 -0.12)">
       <use xlink:href="#ArialMT-33"/>
       <use x="55.615234" xlink:href="#ArialMT-30"/>
      </g>
     </g>
    </g>
    <g id="xtick_6">
     <g id="line2d_6"/>
     <g id="text_6">
      <!-- 35 -->
      <g style="fill:#262626;" transform="translate(388.41375 421.621875)scale(0.12 -0.12)">
       <use xlink:href="#ArialMT-33"/>
       <use x="55.615234" xlink:href="#ArialMT-35"/>
      </g>
     </g>
    </g>
    <g id="xtick_7">
     <g id="line2d_7"/>
     <g id="text_7">
      <!-- 40 -->
      <defs>
       <path d="M 32.328125 0 
L 32.328125 17.140625 
L 1.265625 17.140625 
L 1.265625 25.203125 
L 33.9375 71.578125 
L 41.109375 71.578125 
L 41.109375 25.203125 
L 50.78125 25.203125 
L 50.78125 17.140625 
L 41.109375 17.140625 
L 41.109375 0 
z
M 32.328125 25.203125 
L 32.328125 57.46875 
L 9.90625 25.203125 
z
" id="ArialMT-34"/>
      </defs>
      <g style="fill:#262626;" transform="translate(458.16375 421.621875)scale(0.12 -0.12)">
       <use xlink:href="#ArialMT-34"/>
       <use x="55.615234" xlink:href="#ArialMT-30"/>
      </g>
     </g>
    </g>
    <g id="xtick_8">
     <g id="line2d_8"/>
     <g id="text_8">
      <!-- 45 -->
      <g style="fill:#262626;" transform="translate(527.91375 421.621875)scale(0.12 -0.12)">
       <use xlink:href="#ArialMT-34"/>
       <use x="55.615234" xlink:href="#ArialMT-35"/>
      </g>
     </g>
    </g>
    <g id="xtick_9">
     <g id="line2d_9"/>
     <g id="text_9">
      <!-- 50 -->
      <g style="fill:#262626;" transform="translate(597.66375 421.621875)scale(0.12 -0.12)">
       <use xlink:href="#ArialMT-35"/>
       <use x="55.615234" xlink:href="#ArialMT-30"/>
      </g>
     </g>
    </g>
    <g id="text_10">
     <!-- Reboot Time [Seconds] -->
     <defs>
      <path d="M 7.859375 0 
L 7.859375 71.578125 
L 39.59375 71.578125 
Q 49.171875 71.578125 54.140625 69.640625 
Q 59.125 67.71875 62.109375 62.828125 
Q 65.09375 57.953125 65.09375 52.046875 
Q 65.09375 44.4375 60.15625 39.203125 
Q 55.21875 33.984375 44.921875 32.5625 
Q 48.6875 30.765625 50.640625 29 
Q 54.78125 25.203125 58.5 19.484375 
L 70.953125 0 
L 59.03125 0 
L 49.5625 14.890625 
Q 45.40625 21.34375 42.71875 24.75 
Q 40.046875 28.171875 37.921875 29.53125 
Q 35.796875 30.90625 33.59375 31.453125 
Q 31.984375 31.78125 28.328125 31.78125 
L 17.328125 31.78125 
L 17.328125 0 
z
M 17.328125 39.984375 
L 37.703125 39.984375 
Q 44.1875 39.984375 47.84375 41.328125 
Q 51.515625 42.671875 53.421875 45.625 
Q 55.328125 48.578125 55.328125 52.046875 
Q 55.328125 57.125 51.640625 60.390625 
Q 47.953125 63.671875 39.984375 63.671875 
L 17.328125 63.671875 
z
" id="ArialMT-52"/>
      <path d="M 42.09375 16.703125 
L 51.171875 15.578125 
Q 49.03125 7.625 43.21875 3.21875 
Q 37.40625 -1.171875 28.375 -1.171875 
Q 17 -1.171875 10.328125 5.828125 
Q 3.65625 12.84375 3.65625 25.484375 
Q 3.65625 38.578125 10.390625 45.796875 
Q 17.140625 53.03125 27.875 53.03125 
Q 38.28125 53.03125 44.875 45.953125 
Q 51.46875 38.875 51.46875 26.03125 
Q 51.46875 25.25 51.421875 23.6875 
L 12.75 23.6875 
Q 13.234375 15.140625 17.578125 10.59375 
Q 21.921875 6.0625 28.421875 6.0625 
Q 33.25 6.0625 36.671875 8.59375 
Q 40.09375 11.140625 42.09375 16.703125 
z
M 13.234375 30.90625 
L 42.1875 30.90625 
Q 41.609375 37.453125 38.875 40.71875 
Q 34.671875 45.796875 27.984375 45.796875 
Q 21.921875 45.796875 17.796875 41.75 
Q 13.671875 37.703125 13.234375 30.90625 
z
" id="ArialMT-65"/>
      <path d="M 14.703125 0 
L 6.546875 0 
L 6.546875 71.578125 
L 15.328125 71.578125 
L 15.328125 46.046875 
Q 20.90625 53.03125 29.546875 53.03125 
Q 34.328125 53.03125 38.59375 51.09375 
Q 42.875 49.171875 45.625 45.671875 
Q 48.390625 42.1875 49.953125 37.25 
Q 51.515625 32.328125 51.515625 26.703125 
Q 51.515625 13.375 44.921875 6.09375 
Q 38.328125 -1.171875 29.109375 -1.171875 
Q 19.921875 -1.171875 14.703125 6.5 
z
M 14.59375 26.3125 
Q 14.59375 17 17.140625 12.84375 
Q 21.296875 6.0625 28.375 6.0625 
Q 34.125 6.0625 38.328125 11.0625 
Q 42.53125 16.0625 42.53125 25.984375 
Q 42.53125 36.140625 38.5 40.96875 
Q 34.46875 45.796875 28.765625 45.796875 
Q 23 45.796875 18.796875 40.796875 
Q 14.59375 35.796875 14.59375 26.3125 
z
" id="ArialMT-62"/>
      <path d="M 3.328125 25.921875 
Q 3.328125 40.328125 11.328125 47.265625 
Q 18.015625 53.03125 27.640625 53.03125 
Q 38.328125 53.03125 45.109375 46.015625 
Q 51.90625 39.015625 51.90625 26.65625 
Q 51.90625 16.65625 48.90625 10.90625 
Q 45.90625 5.171875 40.15625 2 
Q 34.421875 -1.171875 27.640625 -1.171875 
Q 16.75 -1.171875 10.03125 5.8125 
Q 3.328125 12.796875 3.328125 25.921875 
z
M 12.359375 25.921875 
Q 12.359375 15.96875 16.703125 11.015625 
Q 21.046875 6.0625 27.640625 6.0625 
Q 34.1875 6.0625 38.53125 11.03125 
Q 42.875 16.015625 42.875 26.21875 
Q 42.875 35.84375 38.5 40.796875 
Q 34.125 45.75 27.640625 45.75 
Q 21.046875 45.75 16.703125 40.8125 
Q 12.359375 35.890625 12.359375 25.921875 
z
" id="ArialMT-6f"/>
      <path d="M 25.78125 7.859375 
L 27.046875 0.09375 
Q 23.34375 -0.6875 20.40625 -0.6875 
Q 15.625 -0.6875 12.984375 0.828125 
Q 10.359375 2.34375 9.28125 4.8125 
Q 8.203125 7.28125 8.203125 15.1875 
L 8.203125 45.015625 
L 1.765625 45.015625 
L 1.765625 51.859375 
L 8.203125 51.859375 
L 8.203125 64.703125 
L 16.9375 69.96875 
L 16.9375 51.859375 
L 25.78125 51.859375 
L 25.78125 45.015625 
L 16.9375 45.015625 
L 16.9375 14.703125 
Q 16.9375 10.9375 17.40625 9.859375 
Q 17.875 8.796875 18.921875 8.15625 
Q 19.96875 7.515625 21.921875 7.515625 
Q 23.390625 7.515625 25.78125 7.859375 
z
" id="ArialMT-74"/>
      <path id="ArialMT-20"/>
      <path d="M 25.921875 0 
L 25.921875 63.140625 
L 2.34375 63.140625 
L 2.34375 71.578125 
L 59.078125 71.578125 
L 59.078125 63.140625 
L 35.40625 63.140625 
L 35.40625 0 
z
" id="ArialMT-54"/>
      <path d="M 6.640625 61.46875 
L 6.640625 71.578125 
L 15.4375 71.578125 
L 15.4375 61.46875 
z
M 6.640625 0 
L 6.640625 51.859375 
L 15.4375 51.859375 
L 15.4375 0 
z
" id="ArialMT-69"/>
      <path d="M 6.59375 0 
L 6.59375 51.859375 
L 14.453125 51.859375 
L 14.453125 44.578125 
Q 16.890625 48.390625 20.9375 50.703125 
Q 25 53.03125 30.171875 53.03125 
Q 35.9375 53.03125 39.625 50.640625 
Q 43.3125 48.25 44.828125 43.953125 
Q 50.984375 53.03125 60.84375 53.03125 
Q 68.5625 53.03125 72.703125 48.75 
Q 76.859375 44.484375 76.859375 35.59375 
L 76.859375 0 
L 68.109375 0 
L 68.109375 32.671875 
Q 68.109375 37.9375 67.25 40.25 
Q 66.40625 42.578125 64.15625 43.984375 
Q 61.921875 45.40625 58.890625 45.40625 
Q 53.421875 45.40625 49.796875 41.765625 
Q 46.1875 38.140625 46.1875 30.125 
L 46.1875 0 
L 37.40625 0 
L 37.40625 33.6875 
Q 37.40625 39.546875 35.25 42.46875 
Q 33.109375 45.40625 28.21875 45.40625 
Q 24.515625 45.40625 21.359375 43.453125 
Q 18.21875 41.5 16.796875 37.734375 
Q 15.375 33.984375 15.375 26.90625 
L 15.375 0 
z
" id="ArialMT-6d"/>
      <path d="M 6.78125 -19.875 
L 6.78125 71.578125 
L 26.171875 71.578125 
L 26.171875 64.3125 
L 15.578125 64.3125 
L 15.578125 -12.59375 
L 26.171875 -12.59375 
L 26.171875 -19.875 
z
" id="ArialMT-5b"/>
      <path d="M 4.5 23 
L 13.421875 23.78125 
Q 14.0625 18.40625 16.375 14.96875 
Q 18.703125 11.53125 23.578125 9.40625 
Q 28.46875 7.28125 34.578125 7.28125 
Q 39.984375 7.28125 44.140625 8.890625 
Q 48.296875 10.5 50.3125 13.296875 
Q 52.34375 16.109375 52.34375 19.4375 
Q 52.34375 22.796875 50.390625 25.3125 
Q 48.4375 27.828125 43.953125 29.546875 
Q 41.0625 30.671875 31.203125 33.03125 
Q 21.34375 35.40625 17.390625 37.5 
Q 12.25 40.1875 9.734375 44.15625 
Q 7.234375 48.140625 7.234375 53.078125 
Q 7.234375 58.5 10.296875 63.203125 
Q 13.375 67.921875 19.28125 70.359375 
Q 25.203125 72.796875 32.421875 72.796875 
Q 40.375 72.796875 46.453125 70.234375 
Q 52.546875 67.671875 55.8125 62.6875 
Q 59.078125 57.71875 59.328125 51.421875 
L 50.25 50.734375 
Q 49.515625 57.515625 45.28125 60.984375 
Q 41.0625 64.453125 32.8125 64.453125 
Q 24.21875 64.453125 20.28125 61.296875 
Q 16.359375 58.15625 16.359375 53.71875 
Q 16.359375 49.859375 19.140625 47.359375 
Q 21.875 44.875 33.421875 42.265625 
Q 44.96875 39.65625 49.265625 37.703125 
Q 55.515625 34.8125 58.484375 30.390625 
Q 61.46875 25.984375 61.46875 20.21875 
Q 61.46875 14.5 58.203125 9.4375 
Q 54.9375 4.390625 48.796875 1.578125 
Q 42.671875 -1.21875 35.015625 -1.21875 
Q 25.296875 -1.21875 18.71875 1.609375 
Q 12.15625 4.4375 8.421875 10.125 
Q 4.6875 15.828125 4.5 23 
z
" id="ArialMT-53"/>
      <path d="M 40.4375 19 
L 49.078125 17.875 
Q 47.65625 8.9375 41.8125 3.875 
Q 35.984375 -1.171875 27.484375 -1.171875 
Q 16.84375 -1.171875 10.375 5.78125 
Q 3.90625 12.75 3.90625 25.734375 
Q 3.90625 34.125 6.6875 40.421875 
Q 9.46875 46.734375 15.15625 49.875 
Q 20.84375 53.03125 27.546875 53.03125 
Q 35.984375 53.03125 41.359375 48.75 
Q 46.734375 44.484375 48.25 36.625 
L 39.703125 35.296875 
Q 38.484375 40.53125 35.375 43.15625 
Q 32.28125 45.796875 27.875 45.796875 
Q 21.234375 45.796875 17.078125 41.03125 
Q 12.9375 36.28125 12.9375 25.984375 
Q 12.9375 15.53125 16.9375 10.796875 
Q 20.953125 6.0625 27.390625 6.0625 
Q 32.5625 6.0625 36.03125 9.234375 
Q 39.5 12.40625 40.4375 19 
z
" id="ArialMT-63"/>
      <path d="M 6.59375 0 
L 6.59375 51.859375 
L 14.5 51.859375 
L 14.5 44.484375 
Q 20.21875 53.03125 31 53.03125 
Q 35.6875 53.03125 39.625 51.34375 
Q 43.5625 49.65625 45.515625 46.921875 
Q 47.46875 44.1875 48.25 40.4375 
Q 48.734375 37.984375 48.734375 31.890625 
L 48.734375 0 
L 39.9375 0 
L 39.9375 31.546875 
Q 39.9375 36.921875 38.90625 39.578125 
Q 37.890625 42.234375 35.28125 43.8125 
Q 32.671875 45.40625 29.15625 45.40625 
Q 23.53125 45.40625 19.453125 41.84375 
Q 15.375 38.28125 15.375 28.328125 
L 15.375 0 
z
" id="ArialMT-6e"/>
      <path d="M 40.234375 0 
L 40.234375 6.546875 
Q 35.296875 -1.171875 25.734375 -1.171875 
Q 19.53125 -1.171875 14.328125 2.25 
Q 9.125 5.671875 6.265625 11.796875 
Q 3.421875 17.921875 3.421875 25.875 
Q 3.421875 33.640625 6 39.96875 
Q 8.59375 46.296875 13.765625 49.65625 
Q 18.953125 53.03125 25.34375 53.03125 
Q 30.03125 53.03125 33.6875 51.046875 
Q 37.359375 49.078125 39.65625 45.90625 
L 39.65625 71.578125 
L 48.390625 71.578125 
L 48.390625 0 
z
M 12.453125 25.875 
Q 12.453125 15.921875 16.640625 10.984375 
Q 20.84375 6.0625 26.5625 6.0625 
Q 32.328125 6.0625 36.34375 10.765625 
Q 40.375 15.484375 40.375 25.140625 
Q 40.375 35.796875 36.265625 40.765625 
Q 32.171875 45.75 26.171875 45.75 
Q 20.3125 45.75 16.375 40.96875 
Q 12.453125 36.1875 12.453125 25.875 
z
" id="ArialMT-64"/>
      <path d="M 3.078125 15.484375 
L 11.765625 16.84375 
Q 12.5 11.625 15.84375 8.84375 
Q 19.1875 6.0625 25.203125 6.0625 
Q 31.25 6.0625 34.171875 8.515625 
Q 37.109375 10.984375 37.109375 14.3125 
Q 37.109375 17.28125 34.515625 19 
Q 32.71875 20.171875 25.53125 21.96875 
Q 15.875 24.421875 12.140625 26.203125 
Q 8.40625 27.984375 6.46875 31.125 
Q 4.546875 34.28125 4.546875 38.09375 
Q 4.546875 41.546875 6.125 44.5 
Q 7.71875 47.46875 10.453125 49.421875 
Q 12.5 50.921875 16.03125 51.96875 
Q 19.578125 53.03125 23.640625 53.03125 
Q 29.734375 53.03125 34.34375 51.265625 
Q 38.96875 49.515625 41.15625 46.5 
Q 43.359375 43.5 44.1875 38.484375 
L 35.59375 37.3125 
Q 35.015625 41.3125 32.203125 43.546875 
Q 29.390625 45.796875 24.265625 45.796875 
Q 18.21875 45.796875 15.625 43.796875 
Q 13.03125 41.796875 13.03125 39.109375 
Q 13.03125 37.40625 14.109375 36.03125 
Q 15.1875 34.625 17.484375 33.6875 
Q 18.796875 33.203125 25.25 31.453125 
Q 34.578125 28.953125 38.25 27.359375 
Q 41.9375 25.78125 44.03125 22.75 
Q 46.140625 19.734375 46.140625 15.234375 
Q 46.140625 10.84375 43.578125 6.953125 
Q 41.015625 3.078125 36.171875 0.953125 
Q 31.34375 -1.171875 25.25 -1.171875 
Q 15.140625 -1.171875 9.84375 3.03125 
Q 4.546875 7.234375 3.078125 15.484375 
z
" id="ArialMT-73"/>
      <path d="M 21.296875 -19.875 
L 1.90625 -19.875 
L 1.90625 -12.59375 
L 12.5 -12.59375 
L 12.5 64.3125 
L 1.90625 64.3125 
L 1.90625 71.578125 
L 21.296875 71.578125 
z
" id="ArialMT-5d"/>
     </defs>
     <g style="fill:#262626;" transform="translate(220.8525 442.56625)scale(0.2 -0.2)">
      <use xlink:href="#ArialMT-52"/>
      <use x="72.216797" xlink:href="#ArialMT-65"/>
      <use x="127.832031" xlink:href="#ArialMT-62"/>
      <use x="183.447266" xlink:href="#ArialMT-6f"/>
      <use x="239.0625" xlink:href="#ArialMT-6f"/>
      <use x="294.677734" xlink:href="#ArialMT-74"/>
      <use x="322.460938" xlink:href="#ArialMT-20"/>
      <use x="350.228516" xlink:href="#ArialMT-54"/>
      <use x="411.265625" xlink:href="#ArialMT-69"/>
      <use x="433.482422" xlink:href="#ArialMT-6d"/>
      <use x="516.783203" xlink:href="#ArialMT-65"/>
      <use x="572.398438" xlink:href="#ArialMT-20"/>
      <use x="600.181641" xlink:href="#ArialMT-5b"/>
      <use x="627.964844" xlink:href="#ArialMT-53"/>
      <use x="694.664062" xlink:href="#ArialMT-65"/>
      <use x="750.279297" xlink:href="#ArialMT-63"/>
      <use x="800.279297" xlink:href="#ArialMT-6f"/>
      <use x="855.894531" xlink:href="#ArialMT-6e"/>
      <use x="911.509766" xlink:href="#ArialMT-64"/>
      <use x="967.125" xlink:href="#ArialMT-73"/>
      <use x="1017.125" xlink:href="#ArialMT-5d"/>
     </g>
    </g>
   </g>
   <g id="matplotlib.axis_2">
    <g id="ytick_1">
     <g id="line2d_10"/>
     <g id="text_11">
      <!-- 0 -->
      <g style="fill:#262626;" transform="translate(36.16375 413.827187)scale(0.12 -0.12)">
       <use xlink:href="#ArialMT-30"/>
      </g>
     </g>
    </g>
    <g id="ytick_2">
     <g id="line2d_11"/>
     <g id="text_12">
      <!-- 20 -->
      <g style="fill:#262626;" transform="translate(29.490625 336.720805)scale(0.12 -0.12)">
       <use xlink:href="#ArialMT-32"/>
       <use x="55.615234" xlink:href="#ArialMT-30"/>
      </g>
     </g>
    </g>
    <g id="ytick_3">
     <g id="line2d_12"/>
     <g id="text_13">
      <!-- 40 -->
      <g style="fill:#262626;" transform="translate(29.490625 259.614422)scale(0.12 -0.12)">
       <use xlink:href="#ArialMT-34"/>
       <use x="55.615234" xlink:href="#ArialMT-30"/>
      </g>
     </g>
    </g>
    <g id="ytick_4">
     <g id="line2d_13"/>
     <g id="text_14">
      <!-- 60 -->
      <defs>
       <path d="M 49.75 54.046875 
L 41.015625 53.375 
Q 39.84375 58.546875 37.703125 60.890625 
Q 34.125 64.65625 28.90625 64.65625 
Q 24.703125 64.65625 21.53125 62.3125 
Q 17.390625 59.28125 14.984375 53.46875 
Q 12.59375 47.65625 12.5 36.921875 
Q 15.671875 41.75 20.265625 44.09375 
Q 24.859375 46.4375 29.890625 46.4375 
Q 38.671875 46.4375 44.84375 39.96875 
Q 51.03125 33.5 51.03125 23.25 
Q 51.03125 16.5 48.125 10.71875 
Q 45.21875 4.9375 40.140625 1.859375 
Q 35.0625 -1.21875 28.609375 -1.21875 
Q 17.625 -1.21875 10.6875 6.859375 
Q 3.765625 14.9375 3.765625 33.5 
Q 3.765625 54.25 11.421875 63.671875 
Q 18.109375 71.875 29.4375 71.875 
Q 37.890625 71.875 43.28125 67.140625 
Q 48.6875 62.40625 49.75 54.046875 
z
M 13.875 23.1875 
Q 13.875 18.65625 15.796875 14.5 
Q 17.71875 10.359375 21.1875 8.171875 
Q 24.65625 6 28.46875 6 
Q 34.03125 6 38.03125 10.484375 
Q 42.046875 14.984375 42.046875 22.703125 
Q 42.046875 30.125 38.078125 34.390625 
Q 34.125 38.671875 28.125 38.671875 
Q 22.171875 38.671875 18.015625 34.390625 
Q 13.875 30.125 13.875 23.1875 
z
" id="ArialMT-36"/>
      </defs>
      <g style="fill:#262626;" transform="translate(29.490625 182.508039)scale(0.12 -0.12)">
       <use xlink:href="#ArialMT-36"/>
       <use x="55.615234" xlink:href="#ArialMT-30"/>
      </g>
     </g>
    </g>
    <g id="ytick_5">
     <g id="line2d_14"/>
     <g id="text_15">
      <!-- 80 -->
      <defs>
       <path d="M 17.671875 38.8125 
Q 12.203125 40.828125 9.5625 44.53125 
Q 6.9375 48.25 6.9375 53.421875 
Q 6.9375 61.234375 12.546875 66.546875 
Q 18.171875 71.875 27.484375 71.875 
Q 36.859375 71.875 42.578125 66.421875 
Q 48.296875 60.984375 48.296875 53.171875 
Q 48.296875 48.1875 45.671875 44.5 
Q 43.0625 40.828125 37.75 38.8125 
Q 44.34375 36.671875 47.78125 31.875 
Q 51.21875 27.09375 51.21875 20.453125 
Q 51.21875 11.28125 44.71875 5.03125 
Q 38.234375 -1.21875 27.640625 -1.21875 
Q 17.046875 -1.21875 10.546875 5.046875 
Q 4.046875 11.328125 4.046875 20.703125 
Q 4.046875 27.6875 7.59375 32.390625 
Q 11.140625 37.109375 17.671875 38.8125 
z
M 15.921875 53.71875 
Q 15.921875 48.640625 19.1875 45.40625 
Q 22.46875 42.1875 27.6875 42.1875 
Q 32.765625 42.1875 36.015625 45.375 
Q 39.265625 48.578125 39.265625 53.21875 
Q 39.265625 58.0625 35.90625 61.359375 
Q 32.5625 64.65625 27.59375 64.65625 
Q 22.5625 64.65625 19.234375 61.421875 
Q 15.921875 58.203125 15.921875 53.71875 
z
M 13.09375 20.65625 
Q 13.09375 16.890625 14.875 13.375 
Q 16.65625 9.859375 20.171875 7.921875 
Q 23.6875 6 27.734375 6 
Q 34.03125 6 38.125 10.046875 
Q 42.234375 14.109375 42.234375 20.359375 
Q 42.234375 26.703125 38.015625 30.859375 
Q 33.796875 35.015625 27.4375 35.015625 
Q 21.234375 35.015625 17.15625 30.90625 
Q 13.09375 26.8125 13.09375 20.65625 
z
" id="ArialMT-38"/>
      </defs>
      <g style="fill:#262626;" transform="translate(29.490625 105.401656)scale(0.12 -0.12)">
       <use xlink:href="#ArialMT-38"/>
       <use x="55.615234" xlink:href="#ArialMT-30"/>
      </g>
     </g>
    </g>
    <g id="text_16">
     <!-- Count -->
     <defs>
      <path d="M 58.796875 25.09375 
L 68.265625 22.703125 
Q 65.28125 11.03125 57.546875 4.90625 
Q 49.8125 -1.21875 38.625 -1.21875 
Q 27.046875 -1.21875 19.796875 3.484375 
Q 12.546875 8.203125 8.765625 17.140625 
Q 4.984375 26.078125 4.984375 36.328125 
Q 4.984375 47.515625 9.25 55.828125 
Q 13.53125 64.15625 21.40625 68.46875 
Q 29.296875 72.796875 38.765625 72.796875 
Q 49.515625 72.796875 56.828125 67.328125 
Q 64.15625 61.859375 67.046875 51.953125 
L 57.71875 49.75 
Q 55.21875 57.5625 50.484375 61.125 
Q 45.75 64.703125 38.578125 64.703125 
Q 30.328125 64.703125 24.78125 60.734375 
Q 19.234375 56.78125 16.984375 50.109375 
Q 14.75 43.453125 14.75 36.375 
Q 14.75 27.25 17.40625 20.4375 
Q 20.0625 13.625 25.671875 10.25 
Q 31.296875 6.890625 37.84375 6.890625 
Q 45.796875 6.890625 51.3125 11.46875 
Q 56.84375 16.0625 58.796875 25.09375 
z
" id="ArialMT-43"/>
      <path d="M 40.578125 0 
L 40.578125 7.625 
Q 34.515625 -1.171875 24.125 -1.171875 
Q 19.53125 -1.171875 15.546875 0.578125 
Q 11.578125 2.34375 9.640625 5 
Q 7.71875 7.671875 6.9375 11.53125 
Q 6.390625 14.109375 6.390625 19.734375 
L 6.390625 51.859375 
L 15.1875 51.859375 
L 15.1875 23.09375 
Q 15.1875 16.21875 15.71875 13.8125 
Q 16.546875 10.359375 19.234375 8.375 
Q 21.921875 6.390625 25.875 6.390625 
Q 29.828125 6.390625 33.296875 8.421875 
Q 36.765625 10.453125 38.203125 13.9375 
Q 39.65625 17.4375 39.65625 24.078125 
L 39.65625 51.859375 
L 48.4375 51.859375 
L 48.4375 0 
z
" id="ArialMT-75"/>
     </defs>
     <g style="fill:#262626;" transform="translate(21.515625 245.955312)rotate(-90)scale(0.2 -0.2)">
      <use xlink:href="#ArialMT-43"/>
      <use x="72.216797" xlink:href="#ArialMT-6f"/>
      <use x="127.832031" xlink:href="#ArialMT-75"/>
      <use x="183.447266" xlink:href="#ArialMT-6e"/>
      <use x="239.0625" xlink:href="#ArialMT-74"/>
     </g>
    </g>
   </g>
   <g id="patch_3">
    <path clip-path="url(#pff28a4cafe)" d="M -100.138125 409.5325 
L -100.138125 409.5325 
L -86.188125 409.5325 
L -86.188125 409.5325 
L -72.238125 409.5325 
L -72.238125 409.5325 
L -58.288125 409.5325 
L -58.288125 409.5325 
L -44.338125 409.5325 
L -44.338125 409.5325 
L -30.388125 409.5325 
L -30.388125 409.5325 
L -16.438125 409.5325 
L -16.438125 409.5325 
L -2.488125 409.5325 
L -2.488125 409.5325 
L 11.461875 409.5325 
L 11.461875 409.5325 
L 25.411875 409.5325 
L 25.411875 409.5325 
L 39.361875 409.5325 
L 39.361875 409.5325 
L 53.311875 409.5325 
L 53.311875 409.5325 
L 67.261875 409.5325 
L 67.261875 409.5325 
L 81.211875 409.5325 
L 81.211875 409.5325 
L 95.161875 409.5325 
L 95.161875 409.5325 
L 109.111875 409.5325 
L 109.111875 409.5325 
L 123.061875 409.5325 
L 123.061875 409.5325 
L 137.011875 409.5325 
L 137.011875 409.5325 
L 150.961875 409.5325 
L 150.961875 409.5325 
L 164.911875 409.5325 
L 164.911875 409.5325 
L 178.861875 409.5325 
L 178.861875 409.5325 
L 192.811875 409.5325 
L 192.811875 409.5325 
L 206.761875 409.5325 
L 206.761875 405.677181 
L 220.711875 405.677181 
L 220.711875 409.5325 
L 234.661875 409.5325 
L 234.661875 394.111223 
L 248.611875 394.111223 
L 248.611875 382.545266 
L 262.561875 382.545266 
L 262.561875 378.689947 
L 276.511875 378.689947 
L 276.511875 405.677181 
L 290.461875 405.677181 
L 290.461875 397.966543 
L 304.411875 397.966543 
L 304.411875 409.5325 
L 318.361875 409.5325 
L 318.361875 374.834628 
L 332.311875 374.834628 
L 332.311875 170.502713 
L 346.261875 170.502713 
L 346.261875 77.975053 
L 360.211875 77.975053 
L 360.211875 155.081436 
L 374.161875 155.081436 
L 374.161875 363.26867 
L 388.111875 363.26867 
L 388.111875 386.400585 
L 402.061875 386.400585 
L 402.061875 390.255904 
L 416.011875 390.255904 
L 416.011875 397.966543 
L 429.961875 397.966543 
L 429.961875 405.677181 
L 443.911875 405.677181 
L 443.911875 409.5325 
L 457.861875 409.5325 
L 457.861875 401.821862 
L 471.811875 401.821862 
L 471.811875 409.5325 
L 485.761875 409.5325 
L 485.761875 409.5325 
L 499.711875 409.5325 
L 499.711875 409.5325 
L 513.661875 409.5325 
L 513.661875 409.5325 
L 527.611875 409.5325 
L 527.611875 409.5325 
L 541.561875 409.5325 
L 541.561875 409.5325 
L 555.511875 409.5325 
L 555.511875 394.111223 
L 569.461875 394.111223 
L 569.461875 409.5325 
L 583.411875 409.5325 
L 583.411875 409.5325 
L 597.361875 409.5325 
L 597.361875 409.5325 
L 611.311875 409.5325 
L 611.311875 409.5325 
L 625.261875 409.5325 
L 625.261875 409.5325 
L 639.211875 409.5325 
L 639.211875 409.5325 
L 653.161875 409.5325 
L 653.161875 409.5325 
L 667.111875 409.5325 
L 667.111875 409.5325 
L 681.061875 409.5325 
L 681.061875 409.5325 
L 695.011875 409.5325 
L 695.011875 409.5325 
L 708.961875 409.5325 
L 708.961875 409.5325 
L 722.911875 409.5325 
L 722.911875 409.5325 
L 736.861875 409.5325 
L 736.861875 409.5325 
L 750.811875 409.5325 
L 750.811875 409.5325 
L 764.761875 409.5325 
L 764.761875 409.5325 
L 778.711875 409.5325 
L 778.711875 409.5325 
L 792.661875 409.5325 
L 792.661875 409.5325 
L 806.611875 409.5325 
L 806.611875 409.5325 
L 820.561875 409.5325 
L 820.561875 409.5325 
L 834.511875 409.5325 
L 834.511875 409.5325 
L 848.461875 409.5325 
L 848.461875 409.5325 
L 862.411875 409.5325 
L 862.411875 409.5325 
L 876.361875 409.5325 
L 876.361875 409.5325 
L 890.311875 409.5325 
L 890.311875 409.5325 
L 904.261875 409.5325 
L 904.261875 409.5325 
L 918.211875 409.5325 
L 918.211875 409.5325 
L 932.161875 409.5325 
L 932.161875 409.5325 
L 946.111875 409.5325 
L 946.111875 409.5325 
L 960.061875 409.5325 
L 960.061875 409.5325 
L 974.011875 409.5325 
L 974.011875 409.5325 
L 987.961875 409.5325 
L 987.961875 409.5325 
L 1001.911875 409.5325 
L 1001.911875 409.5325 
L 1015.861875 409.5325 
L 1015.861875 409.5325 
L 1029.811875 409.5325 
L 1029.811875 409.5325 
L 1043.761875 409.5325 
L 1043.761875 409.5325 
L 1057.711875 409.5325 
L 1057.711875 409.5325 
L 1071.661875 409.5325 
L 1071.661875 409.5325 
L 1085.611875 409.5325 
L 1085.611875 409.5325 
L 1099.561875 409.5325 
L 1099.561875 409.5325 
L 1113.511875 409.5325 
L 1113.511875 409.5325 
L 1127.461875 409.5325 
L 1127.461875 409.5325 
L 1141.411875 409.5325 
L 1141.411875 409.5325 
L 1155.361875 409.5325 
L 1155.361875 409.5325 
L 1169.311875 409.5325 
L 1169.311875 409.5325 
L 1183.261875 409.5325 
L 1183.261875 409.5325 
L 1197.211875 409.5325 
L 1197.211875 409.5325 
L 1211.161875 409.5325 
L 1211.161875 409.5325 
L 1225.111875 409.5325 
L 1225.111875 409.5325 
L 1239.061875 409.5325 
L 1239.061875 409.5325 
L 1253.011875 409.5325 
L 1253.011875 409.5325 
L 1266.961875 409.5325 
L 1266.961875 409.5325 
L 1280.911875 409.5325 
L 1280.911875 409.5325 
L 1294.861875 409.5325 
L 1294.861875 409.5325 
L 1308.811875 409.5325 
L 1308.811875 409.5325 
L 1322.761875 409.5325 
L 1322.761875 409.5325 
L 1336.711875 409.5325 
L 1336.711875 409.5325 
L 1350.661875 409.5325 
L 1350.661875 409.5325 
L 1364.611875 409.5325 
L 1364.611875 409.5325 
L 1378.561875 409.5325 
L 1378.561875 409.5325 
L 1392.511875 409.5325 
L 1392.511875 409.5325 
L 1406.461875 409.5325 
L 1406.461875 409.5325 
L 1420.411875 409.5325 
L 1420.411875 409.5325 
L 1434.361875 409.5325 
L 1434.361875 409.5325 
L 1448.311875 409.5325 
L 1448.311875 409.5325 
L 1462.261875 409.5325 
L 1462.261875 409.5325 
L 1476.211875 409.5325 
L 1476.211875 405.677181 
L 1490.161875 405.677181 
L 1490.161875 409.5325 
L 1504.111875 409.5325 
L 1504.111875 409.5325 
L 1518.061875 409.5325 
L 1518.061875 409.5325 
L 1532.011875 409.5325 
L 1532.011875 409.5325 
L 1545.961875 409.5325 
L 1545.961875 409.5325 
L 1559.911875 409.5325 
L 1559.911875 409.5325 
L 1545.961875 409.5325 
L 1545.961875 409.5325 
L 1532.011875 409.5325 
L 1532.011875 409.5325 
L 1518.061875 409.5325 
L 1518.061875 409.5325 
L 1504.111875 409.5325 
L 1504.111875 409.5325 
L 1490.161875 409.5325 
L 1490.161875 409.5325 
L 1476.211875 409.5325 
L 1476.211875 409.5325 
L 1462.261875 409.5325 
L 1462.261875 409.5325 
L 1448.311875 409.5325 
L 1448.311875 409.5325 
L 1434.361875 409.5325 
L 1434.361875 409.5325 
L 1420.411875 409.5325 
L 1420.411875 409.5325 
L 1406.461875 409.5325 
L 1406.461875 409.5325 
L 1392.511875 409.5325 
L 1392.511875 409.5325 
L 1378.561875 409.5325 
L 1378.561875 409.5325 
L 1364.611875 409.5325 
L 1364.611875 409.5325 
L 1350.661875 409.5325 
L 1350.661875 409.5325 
L 1336.711875 409.5325 
L 1336.711875 409.5325 
L 1322.761875 409.5325 
L 1322.761875 409.5325 
L 1308.811875 409.5325 
L 1308.811875 409.5325 
L 1294.861875 409.5325 
L 1294.861875 409.5325 
L 1280.911875 409.5325 
L 1280.911875 409.5325 
L 1266.961875 409.5325 
L 1266.961875 409.5325 
L 1253.011875 409.5325 
L 1253.011875 409.5325 
L 1239.061875 409.5325 
L 1239.061875 409.5325 
L 1225.111875 409.5325 
L 1225.111875 409.5325 
L 1211.161875 409.5325 
L 1211.161875 409.5325 
L 1197.211875 409.5325 
L 1197.211875 409.5325 
L 1183.261875 409.5325 
L 1183.261875 409.5325 
L 1169.311875 409.5325 
L 1169.311875 409.5325 
L 1155.361875 409.5325 
L 1155.361875 409.5325 
L 1141.411875 409.5325 
L 1141.411875 409.5325 
L 1127.461875 409.5325 
L 1127.461875 409.5325 
L 1113.511875 409.5325 
L 1113.511875 409.5325 
L 1099.561875 409.5325 
L 1099.561875 409.5325 
L 1085.611875 409.5325 
L 1085.611875 409.5325 
L 1071.661875 409.5325 
L 1071.661875 409.5325 
L 1057.711875 409.5325 
L 1057.711875 409.5325 
L 1043.761875 409.5325 
L 1043.761875 409.5325 
L 1029.811875 409.5325 
L 1029.811875 409.5325 
L 1015.861875 409.5325 
L 1015.861875 409.5325 
L 1001.911875 409.5325 
L 1001.911875 409.5325 
L 987.961875 409.5325 
L 987.961875 409.5325 
L 974.011875 409.5325 
L 974.011875 409.5325 
L 960.061875 409.5325 
L 960.061875 409.5325 
L 946.111875 409.5325 
L 946.111875 409.5325 
L 932.161875 409.5325 
L 932.161875 409.5325 
L 918.211875 409.5325 
L 918.211875 409.5325 
L 904.261875 409.5325 
L 904.261875 409.5325 
L 890.311875 409.5325 
L 890.311875 409.5325 
L 876.361875 409.5325 
L 876.361875 409.5325 
L 862.411875 409.5325 
L 862.411875 409.5325 
L 848.461875 409.5325 
L 848.461875 409.5325 
L 834.511875 409.5325 
L 834.511875 409.5325 
L 820.561875 409.5325 
L 820.561875 409.5325 
L 806.611875 409.5325 
L 806.611875 409.5325 
L 792.661875 409.5325 
L 792.661875 409.5325 
L 778.711875 409.5325 
L 778.711875 409.5325 
L 764.761875 409.5325 
L 764.761875 409.5325 
L 750.811875 409.5325 
L 750.811875 409.5325 
L 736.861875 409.5325 
L 736.861875 409.5325 
L 722.911875 409.5325 
L 722.911875 409.5325 
L 708.961875 409.5325 
L 708.961875 409.5325 
L 695.011875 409.5325 
L 695.011875 409.5325 
L 681.061875 409.5325 
L 681.061875 409.5325 
L 667.111875 409.5325 
L 667.111875 409.5325 
L 653.161875 409.5325 
L 653.161875 409.5325 
L 639.211875 409.5325 
L 639.211875 409.5325 
L 625.261875 409.5325 
L 625.261875 409.5325 
L 611.311875 409.5325 
L 611.311875 409.5325 
L 597.361875 409.5325 
L 597.361875 409.5325 
L 583.411875 409.5325 
L 583.411875 409.5325 
L 569.461875 409.5325 
L 569.461875 409.5325 
L 555.511875 409.5325 
L 555.511875 409.5325 
L 541.561875 409.5325 
L 541.561875 409.5325 
L 527.611875 409.5325 
L 527.611875 409.5325 
L 513.661875 409.5325 
L 513.661875 409.5325 
L 499.711875 409.5325 
L 499.711875 409.5325 
L 485.761875 409.5325 
L 485.761875 409.5325 
L 471.811875 409.5325 
L 471.811875 409.5325 
L 457.861875 409.5325 
L 457.861875 409.5325 
L 443.911875 409.5325 
L 443.911875 409.5325 
L 429.961875 409.5325 
L 429.961875 409.5325 
L 416.011875 409.5325 
L 416.011875 409.5325 
L 402.061875 409.5325 
L 402.061875 409.5325 
L 388.111875 409.5325 
L 388.111875 409.5325 
L 374.161875 409.5325 
L 374.161875 409.5325 
L 360.211875 409.5325 
L 360.211875 409.5325 
L 346.261875 409.5325 
L 346.261875 409.5325 
L 332.311875 409.5325 
L 332.311875 409.5325 
L 318.361875 409.5325 
L 318.361875 409.5325 
L 304.411875 409.5325 
L 304.411875 409.5325 
L 290.461875 409.5325 
L 290.461875 409.5325 
L 276.511875 409.5325 
L 276.511875 409.5325 
L 262.561875 409.5325 
L 262.561875 409.5325 
L 248.611875 409.5325 
L 248.611875 409.5325 
L 234.661875 409.5325 
L 234.661875 409.5325 
L 220.711875 409.5325 
L 220.711875 409.5325 
L 206.761875 409.5325 
L 206.761875 409.5325 
L 192.811875 409.5325 
L 192.811875 409.5325 
L 178.861875 409.5325 
L 178.861875 409.5325 
L 164.911875 409.5325 
L 164.911875 409.5325 
L 150.961875 409.5325 
L 150.961875 409.5325 
L 137.011875 409.5325 
L 137.011875 409.5325 
L 123.061875 409.5325 
L 123.061875 409.5325 
L 109.111875 409.5325 
L 109.111875 409.5325 
L 95.161875 409.5325 
L 95.161875 409.5325 
L 81.211875 409.5325 
L 81.211875 409.5325 
L 67.261875 409.5325 
L 67.261875 409.5325 
L 53.311875 409.5325 
L 53.311875 409.5325 
L 39.361875 409.5325 
L 39.361875 409.5325 
L 25.411875 409.5325 
L 25.411875 409.5325 
L 11.461875 409.5325 
L 11.461875 409.5325 
L -2.488125 409.5325 
L -2.488125 409.5325 
L -16.438125 409.5325 
L -16.438125 409.5325 
L -30.388125 409.5325 
L -30.388125 409.5325 
L -44.338125 409.5325 
L -44.338125 409.5325 
L -58.288125 409.5325 
L -58.288125 409.5325 
L -72.238125 409.5325 
L -72.238125 409.5325 
L -86.188125 409.5325 
L -86.188125 409.5325 
z
" style="fill:#1f77b4;opacity:0.7;"/>
   </g>
   <g id="patch_4">
    <path clip-path="url(#pff28a4cafe)" d="M -100.138125 409.5325 
L -100.138125 409.5325 
L -86.188125 409.5325 
L -86.188125 409.5325 
L -72.238125 409.5325 
L -72.238125 409.5325 
L -58.288125 409.5325 
L -58.288125 409.5325 
L -44.338125 409.5325 
L -44.338125 409.5325 
L -30.388125 409.5325 
L -30.388125 409.5325 
L -16.438125 409.5325 
L -16.438125 409.5325 
L -2.488125 409.5325 
L -2.488125 409.5325 
L 11.461875 409.5325 
L 11.461875 409.5325 
L 25.411875 409.5325 
L 25.411875 409.5325 
L 39.361875 409.5325 
L 39.361875 409.5325 
L 53.311875 409.5325 
L 53.311875 409.5325 
L 67.261875 409.5325 
L 67.261875 409.5325 
L 81.211875 409.5325 
L 81.211875 409.5325 
L 95.161875 409.5325 
L 95.161875 409.5325 
L 109.111875 409.5325 
L 109.111875 409.5325 
L 123.061875 409.5325 
L 123.061875 409.5325 
L 137.011875 409.5325 
L 137.011875 409.5325 
L 150.961875 409.5325 
L 150.961875 401.821862 
L 164.911875 401.821862 
L 164.911875 405.677181 
L 178.861875 405.677181 
L 178.861875 394.111223 
L 192.811875 394.111223 
L 192.811875 409.5325 
L 206.761875 409.5325 
L 206.761875 409.5325 
L 220.711875 409.5325 
L 220.711875 409.5325 
L 234.661875 409.5325 
L 234.661875 409.5325 
L 248.611875 409.5325 
L 248.611875 409.5325 
L 262.561875 409.5325 
L 262.561875 409.5325 
L 276.511875 409.5325 
L 276.511875 317.00484 
L 290.461875 317.00484 
L 290.461875 139.66016 
L 304.411875 139.66016 
L 304.411875 47.1325 
L 318.361875 47.1325 
L 318.361875 216.766543 
L 332.311875 216.766543 
L 332.311875 351.702713 
L 346.261875 351.702713 
L 346.261875 394.111223 
L 360.211875 394.111223 
L 360.211875 397.966543 
L 374.161875 397.966543 
L 374.161875 397.966543 
L 388.111875 397.966543 
L 388.111875 405.677181 
L 402.061875 405.677181 
L 402.061875 405.677181 
L 416.011875 405.677181 
L 416.011875 409.5325 
L 429.961875 409.5325 
L 429.961875 409.5325 
L 443.911875 409.5325 
L 443.911875 405.677181 
L 457.861875 405.677181 
L 457.861875 409.5325 
L 471.811875 409.5325 
L 471.811875 405.677181 
L 485.761875 405.677181 
L 485.761875 409.5325 
L 499.711875 409.5325 
L 499.711875 405.677181 
L 513.661875 405.677181 
L 513.661875 409.5325 
L 527.611875 409.5325 
L 527.611875 409.5325 
L 541.561875 409.5325 
L 541.561875 409.5325 
L 555.511875 409.5325 
L 555.511875 409.5325 
L 569.461875 409.5325 
L 569.461875 409.5325 
L 583.411875 409.5325 
L 583.411875 409.5325 
L 597.361875 409.5325 
L 597.361875 409.5325 
L 611.311875 409.5325 
L 611.311875 409.5325 
L 625.261875 409.5325 
L 625.261875 409.5325 
L 639.211875 409.5325 
L 639.211875 409.5325 
L 653.161875 409.5325 
L 653.161875 409.5325 
L 667.111875 409.5325 
L 667.111875 409.5325 
L 681.061875 409.5325 
L 681.061875 409.5325 
L 695.011875 409.5325 
L 695.011875 409.5325 
L 708.961875 409.5325 
L 708.961875 409.5325 
L 722.911875 409.5325 
L 722.911875 409.5325 
L 736.861875 409.5325 
L 736.861875 409.5325 
L 750.811875 409.5325 
L 750.811875 409.5325 
L 764.761875 409.5325 
L 764.761875 409.5325 
L 778.711875 409.5325 
L 778.711875 409.5325 
L 792.661875 409.5325 
L 792.661875 409.5325 
L 806.611875 409.5325 
L 806.611875 409.5325 
L 820.561875 409.5325 
L 820.561875 409.5325 
L 834.511875 409.5325 
L 834.511875 409.5325 
L 848.461875 409.5325 
L 848.461875 409.5325 
L 862.411875 409.5325 
L 862.411875 409.5325 
L 876.361875 409.5325 
L 876.361875 409.5325 
L 890.311875 409.5325 
L 890.311875 409.5325 
L 904.261875 409.5325 
L 904.261875 409.5325 
L 918.211875 409.5325 
L 918.211875 409.5325 
L 932.161875 409.5325 
L 932.161875 409.5325 
L 946.111875 409.5325 
L 946.111875 409.5325 
L 960.061875 409.5325 
L 960.061875 409.5325 
L 974.011875 409.5325 
L 974.011875 409.5325 
L 987.961875 409.5325 
L 987.961875 409.5325 
L 1001.911875 409.5325 
L 1001.911875 409.5325 
L 1015.861875 409.5325 
L 1015.861875 409.5325 
L 1029.811875 409.5325 
L 1029.811875 409.5325 
L 1043.761875 409.5325 
L 1043.761875 409.5325 
L 1057.711875 409.5325 
L 1057.711875 409.5325 
L 1071.661875 409.5325 
L 1071.661875 409.5325 
L 1085.611875 409.5325 
L 1085.611875 409.5325 
L 1099.561875 409.5325 
L 1099.561875 409.5325 
L 1113.511875 409.5325 
L 1113.511875 409.5325 
L 1127.461875 409.5325 
L 1127.461875 409.5325 
L 1141.411875 409.5325 
L 1141.411875 409.5325 
L 1155.361875 409.5325 
L 1155.361875 409.5325 
L 1169.311875 409.5325 
L 1169.311875 409.5325 
L 1183.261875 409.5325 
L 1183.261875 409.5325 
L 1197.211875 409.5325 
L 1197.211875 409.5325 
L 1211.161875 409.5325 
L 1211.161875 409.5325 
L 1225.111875 409.5325 
L 1225.111875 409.5325 
L 1239.061875 409.5325 
L 1239.061875 409.5325 
L 1253.011875 409.5325 
L 1253.011875 409.5325 
L 1266.961875 409.5325 
L 1266.961875 409.5325 
L 1280.911875 409.5325 
L 1280.911875 409.5325 
L 1294.861875 409.5325 
L 1294.861875 409.5325 
L 1308.811875 409.5325 
L 1308.811875 409.5325 
L 1322.761875 409.5325 
L 1322.761875 409.5325 
L 1336.711875 409.5325 
L 1336.711875 409.5325 
L 1350.661875 409.5325 
L 1350.661875 409.5325 
L 1364.611875 409.5325 
L 1364.611875 409.5325 
L 1378.561875 409.5325 
L 1378.561875 409.5325 
L 1392.511875 409.5325 
L 1392.511875 409.5325 
L 1406.461875 409.5325 
L 1406.461875 409.5325 
L 1420.411875 409.5325 
L 1420.411875 405.677181 
L 1434.361875 405.677181 
L 1434.361875 409.5325 
L 1448.311875 409.5325 
L 1448.311875 409.5325 
L 1462.261875 409.5325 
L 1462.261875 409.5325 
L 1476.211875 409.5325 
L 1476.211875 409.5325 
L 1490.161875 409.5325 
L 1490.161875 409.5325 
L 1504.111875 409.5325 
L 1504.111875 409.5325 
L 1518.061875 409.5325 
L 1518.061875 409.5325 
L 1532.011875 409.5325 
L 1532.011875 409.5325 
L 1545.961875 409.5325 
L 1545.961875 409.5325 
L 1559.911875 409.5325 
L 1559.911875 409.5325 
L 1545.961875 409.5325 
L 1545.961875 409.5325 
L 1532.011875 409.5325 
L 1532.011875 409.5325 
L 1518.061875 409.5325 
L 1518.061875 409.5325 
L 1504.111875 409.5325 
L 1504.111875 409.5325 
L 1490.161875 409.5325 
L 1490.161875 409.5325 
L 1476.211875 409.5325 
L 1476.211875 409.5325 
L 1462.261875 409.5325 
L 1462.261875 409.5325 
L 1448.311875 409.5325 
L 1448.311875 409.5325 
L 1434.361875 409.5325 
L 1434.361875 409.5325 
L 1420.411875 409.5325 
L 1420.411875 409.5325 
L 1406.461875 409.5325 
L 1406.461875 409.5325 
L 1392.511875 409.5325 
L 1392.511875 409.5325 
L 1378.561875 409.5325 
L 1378.561875 409.5325 
L 1364.611875 409.5325 
L 1364.611875 409.5325 
L 1350.661875 409.5325 
L 1350.661875 409.5325 
L 1336.711875 409.5325 
L 1336.711875 409.5325 
L 1322.761875 409.5325 
L 1322.761875 409.5325 
L 1308.811875 409.5325 
L 1308.811875 409.5325 
L 1294.861875 409.5325 
L 1294.861875 409.5325 
L 1280.911875 409.5325 
L 1280.911875 409.5325 
L 1266.961875 409.5325 
L 1266.961875 409.5325 
L 1253.011875 409.5325 
L 1253.011875 409.5325 
L 1239.061875 409.5325 
L 1239.061875 409.5325 
L 1225.111875 409.5325 
L 1225.111875 409.5325 
L 1211.161875 409.5325 
L 1211.161875 409.5325 
L 1197.211875 409.5325 
L 1197.211875 409.5325 
L 1183.261875 409.5325 
L 1183.261875 409.5325 
L 1169.311875 409.5325 
L 1169.311875 409.5325 
L 1155.361875 409.5325 
L 1155.361875 409.5325 
L 1141.411875 409.5325 
L 1141.411875 409.5325 
L 1127.461875 409.5325 
L 1127.461875 409.5325 
L 1113.511875 409.5325 
L 1113.511875 409.5325 
L 1099.561875 409.5325 
L 1099.561875 409.5325 
L 1085.611875 409.5325 
L 1085.611875 409.5325 
L 1071.661875 409.5325 
L 1071.661875 409.5325 
L 1057.711875 409.5325 
L 1057.711875 409.5325 
L 1043.761875 409.5325 
L 1043.761875 409.5325 
L 1029.811875 409.5325 
L 1029.811875 409.5325 
L 1015.861875 409.5325 
L 1015.861875 409.5325 
L 1001.911875 409.5325 
L 1001.911875 409.5325 
L 987.961875 409.5325 
L 987.961875 409.5325 
L 974.011875 409.5325 
L 974.011875 409.5325 
L 960.061875 409.5325 
L 960.061875 409.5325 
L 946.111875 409.5325 
L 946.111875 409.5325 
L 932.161875 409.5325 
L 932.161875 409.5325 
L 918.211875 409.5325 
L 918.211875 409.5325 
L 904.261875 409.5325 
L 904.261875 409.5325 
L 890.311875 409.5325 
L 890.311875 409.5325 
L 876.361875 409.5325 
L 876.361875 409.5325 
L 862.411875 409.5325 
L 862.411875 409.5325 
L 848.461875 409.5325 
L 848.461875 409.5325 
L 834.511875 409.5325 
L 834.511875 409.5325 
L 820.561875 409.5325 
L 820.561875 409.5325 
L 806.611875 409.5325 
L 806.611875 409.5325 
L 792.661875 409.5325 
L 792.661875 409.5325 
L 778.711875 409.5325 
L 778.711875 409.5325 
L 764.761875 409.5325 
L 764.761875 409.5325 
L 750.811875 409.5325 
L 750.811875 409.5325 
L 736.861875 409.5325 
L 736.861875 409.5325 
L 722.911875 409.5325 
L 722.911875 409.5325 
L 708.961875 409.5325 
L 708.961875 409.5325 
L 695.011875 409.5325 
L 695.011875 409.5325 
L 681.061875 409.5325 
L 681.061875 409.5325 
L 667.111875 409.5325 
L 667.111875 409.5325 
L 653.161875 409.5325 
L 653.161875 409.5325 
L 639.211875 409.5325 
L 639.211875 409.5325 
L 625.261875 409.5325 
L 625.261875 409.5325 
L 611.311875 409.5325 
L 611.311875 409.5325 
L 597.361875 409.5325 
L 597.361875 409.5325 
L 583.411875 409.5325 
L 583.411875 409.5325 
L 569.461875 409.5325 
L 569.461875 409.5325 
L 555.511875 409.5325 
L 555.511875 409.5325 
L 541.561875 409.5325 
L 541.561875 409.5325 
L 527.611875 409.5325 
L 527.611875 409.5325 
L 513.661875 409.5325 
L 513.661875 409.5325 
L 499.711875 409.5325 
L 499.711875 409.5325 
L 485.761875 409.5325 
L 485.761875 409.5325 
L 471.811875 409.5325 
L 471.811875 409.5325 
L 457.861875 409.5325 
L 457.861875 409.5325 
L 443.911875 409.5325 
L 443.911875 409.5325 
L 429.961875 409.5325 
L 429.961875 409.5325 
L 416.011875 409.5325 
L 416.011875 409.5325 
L 402.061875 409.5325 
L 402.061875 409.5325 
L 388.111875 409.5325 
L 388.111875 409.5325 
L 374.161875 409.5325 
L 374.161875 409.5325 
L 360.211875 409.5325 
L 360.211875 409.5325 
L 346.261875 409.5325 
L 346.261875 409.5325 
L 332.311875 409.5325 
L 332.311875 409.5325 
L 318.361875 409.5325 
L 318.361875 409.5325 
L 304.411875 409.5325 
L 304.411875 409.5325 
L 290.461875 409.5325 
L 290.461875 409.5325 
L 276.511875 409.5325 
L 276.511875 409.5325 
L 262.561875 409.5325 
L 262.561875 409.5325 
L 248.611875 409.5325 
L 248.611875 409.5325 
L 234.661875 409.5325 
L 234.661875 409.5325 
L 220.711875 409.5325 
L 220.711875 409.5325 
L 206.761875 409.5325 
L 206.761875 409.5325 
L 192.811875 409.5325 
L 192.811875 409.5325 
L 178.861875 409.5325 
L 178.861875 409.5325 
L 164.911875 409.5325 
L 164.911875 409.5325 
L 150.961875 409.5325 
L 150.961875 409.5325 
L 137.011875 409.5325 
L 137.011875 409.5325 
L 123.061875 409.5325 
L 123.061875 409.5325 
L 109.111875 409.5325 
L 109.111875 409.5325 
L 95.161875 409.5325 
L 95.161875 409.5325 
L 81.211875 409.5325 
L 81.211875 409.5325 
L 67.261875 409.5325 
L 67.261875 409.5325 
L 53.311875 409.5325 
L 53.311875 409.5325 
L 39.361875 409.5325 
L 39.361875 409.5325 
L 25.411875 409.5325 
L 25.411875 409.5325 
L 11.461875 409.5325 
L 11.461875 409.5325 
L -2.488125 409.5325 
L -2.488125 409.5325 
L -16.438125 409.5325 
L -16.438125 409.5325 
L -30.388125 409.5325 
L -30.388125 409.5325 
L -44.338125 409.5325 
L -44.338125 409.5325 
L -58.288125 409.5325 
L -58.288125 409.5325 
L -72.238125 409.5325 
L -72.238125 409.5325 
L -86.188125 409.5325 
L -86.188125 409.5325 
z
" style="fill:#ff7f0e;opacity:0.7;"/>
   </g>
   <g id="patch_5">
    <path d="M 46.336875 409.5325 
L 46.336875 29.0125 
" style="fill:none;stroke:#262626;stroke-linecap:square;stroke-linejoin:miter;stroke-width:1.25;"/>
   </g>
   <g id="patch_6">
    <path d="M 604.336875 409.5325 
L 604.336875 29.0125 
" style="fill:none;stroke:#262626;stroke-linecap:square;stroke-linejoin:miter;stroke-width:1.25;"/>
   </g>
   <g id="patch_7">
    <path d="M 46.336875 409.5325 
L 604.336875 409.5325 
" style="fill:none;stroke:#262626;stroke-linecap:square;stroke-linejoin:miter;stroke-width:1.25;"/>
   </g>
   <g id="patch_8">
    <path d="M 46.336875 29.0125 
L 604.336875 29.0125 
" style="fill:none;stroke:#262626;stroke-linecap:square;stroke-linejoin:miter;stroke-width:1.25;"/>
   </g>
   <g id="text_17">
    <!-- Raspberry Pi Reboot Times: Pi 2 vs Pi 3 -->
    <defs>
     <path d="M 40.4375 6.390625 
Q 35.546875 2.25 31.03125 0.53125 
Q 26.515625 -1.171875 21.34375 -1.171875 
Q 12.796875 -1.171875 8.203125 3 
Q 3.609375 7.171875 3.609375 13.671875 
Q 3.609375 17.484375 5.34375 20.625 
Q 7.078125 23.78125 9.890625 25.6875 
Q 12.703125 27.59375 16.21875 28.5625 
Q 18.796875 29.25 24.03125 29.890625 
Q 34.671875 31.15625 39.703125 32.90625 
Q 39.75 34.71875 39.75 35.203125 
Q 39.75 40.578125 37.25 42.78125 
Q 33.890625 45.75 27.25 45.75 
Q 21.046875 45.75 18.09375 43.578125 
Q 15.140625 41.40625 13.71875 35.890625 
L 5.125 37.0625 
Q 6.296875 42.578125 8.984375 45.96875 
Q 11.671875 49.359375 16.75 51.1875 
Q 21.828125 53.03125 28.515625 53.03125 
Q 35.15625 53.03125 39.296875 51.46875 
Q 43.453125 49.90625 45.40625 47.53125 
Q 47.359375 45.171875 48.140625 41.546875 
Q 48.578125 39.3125 48.578125 33.453125 
L 48.578125 21.734375 
Q 48.578125 9.46875 49.140625 6.21875 
Q 49.703125 2.984375 51.375 0 
L 42.1875 0 
Q 40.828125 2.734375 40.4375 6.390625 
z
M 39.703125 26.03125 
Q 34.90625 24.078125 25.34375 22.703125 
Q 19.921875 21.921875 17.671875 20.9375 
Q 15.4375 19.96875 14.203125 18.09375 
Q 12.984375 16.21875 12.984375 13.921875 
Q 12.984375 10.40625 15.640625 8.0625 
Q 18.3125 5.71875 23.4375 5.71875 
Q 28.515625 5.71875 32.46875 7.9375 
Q 36.421875 10.15625 38.28125 14.015625 
Q 39.703125 17 39.703125 22.796875 
z
" id="ArialMT-61"/>
     <path d="M 6.59375 -19.875 
L 6.59375 51.859375 
L 14.59375 51.859375 
L 14.59375 45.125 
Q 17.4375 49.078125 21 51.046875 
Q 24.5625 53.03125 29.640625 53.03125 
Q 36.28125 53.03125 41.359375 49.609375 
Q 46.4375 46.1875 49.015625 39.953125 
Q 51.609375 33.734375 51.609375 26.3125 
Q 51.609375 18.359375 48.75 11.984375 
Q 45.90625 5.609375 40.453125 2.21875 
Q 35.015625 -1.171875 29 -1.171875 
Q 24.609375 -1.171875 21.109375 0.6875 
Q 17.625 2.546875 15.375 5.375 
L 15.375 -19.875 
z
M 14.546875 25.640625 
Q 14.546875 15.625 18.59375 10.84375 
Q 22.65625 6.0625 28.421875 6.0625 
Q 34.28125 6.0625 38.453125 11.015625 
Q 42.625 15.96875 42.625 26.375 
Q 42.625 36.28125 38.546875 41.203125 
Q 34.46875 46.140625 28.8125 46.140625 
Q 23.1875 46.140625 18.859375 40.890625 
Q 14.546875 35.640625 14.546875 25.640625 
z
" id="ArialMT-70"/>
     <path d="M 6.5 0 
L 6.5 51.859375 
L 14.40625 51.859375 
L 14.40625 44 
Q 17.4375 49.515625 20 51.265625 
Q 22.5625 53.03125 25.640625 53.03125 
Q 30.078125 53.03125 34.671875 50.203125 
L 31.640625 42.046875 
Q 28.421875 43.953125 25.203125 43.953125 
Q 22.3125 43.953125 20.015625 42.21875 
Q 17.71875 40.484375 16.75 37.40625 
Q 15.28125 32.71875 15.28125 27.15625 
L 15.28125 0 
z
" id="ArialMT-72"/>
     <path d="M 6.203125 -19.96875 
L 5.21875 -11.71875 
Q 8.109375 -12.5 10.25 -12.5 
Q 13.1875 -12.5 14.9375 -11.515625 
Q 16.703125 -10.546875 17.828125 -8.796875 
Q 18.65625 -7.46875 20.515625 -2.25 
Q 20.75 -1.515625 21.296875 -0.09375 
L 1.609375 51.859375 
L 11.078125 51.859375 
L 21.875 21.828125 
Q 23.96875 16.109375 25.640625 9.8125 
Q 27.15625 15.875 29.25 21.625 
L 40.328125 51.859375 
L 49.125 51.859375 
L 29.390625 -0.875 
Q 26.21875 -9.421875 24.46875 -12.640625 
Q 22.125 -17 19.09375 -19.015625 
Q 16.0625 -21.046875 11.859375 -21.046875 
Q 9.328125 -21.046875 6.203125 -19.96875 
z
" id="ArialMT-79"/>
     <path d="M 7.71875 0 
L 7.71875 71.578125 
L 34.71875 71.578125 
Q 41.84375 71.578125 45.609375 70.90625 
Q 50.875 70.015625 54.4375 67.546875 
Q 58.015625 65.09375 60.1875 60.640625 
Q 62.359375 56.203125 62.359375 50.875 
Q 62.359375 41.75 56.546875 35.421875 
Q 50.734375 29.109375 35.546875 29.109375 
L 17.1875 29.109375 
L 17.1875 0 
z
M 17.1875 37.546875 
L 35.6875 37.546875 
Q 44.875 37.546875 48.734375 40.96875 
Q 52.59375 44.390625 52.59375 50.59375 
Q 52.59375 55.078125 50.3125 58.265625 
Q 48.046875 61.46875 44.34375 62.5 
Q 41.9375 63.140625 35.5 63.140625 
L 17.1875 63.140625 
z
" id="ArialMT-50"/>
     <path d="M 9.03125 41.84375 
L 9.03125 51.859375 
L 19.046875 51.859375 
L 19.046875 41.84375 
z
M 9.03125 0 
L 9.03125 10.015625 
L 19.046875 10.015625 
L 19.046875 0 
z
" id="ArialMT-3a"/>
     <path d="M 21 0 
L 1.265625 51.859375 
L 10.546875 51.859375 
L 21.6875 20.796875 
Q 23.484375 15.765625 25 10.359375 
Q 26.171875 14.453125 28.265625 20.21875 
L 39.796875 51.859375 
L 48.828125 51.859375 
L 29.203125 0 
z
" id="ArialMT-76"/>
    </defs>
    <g style="fill:#262626;" transform="translate(129.114063 23.0125)scale(0.22 -0.22)">
     <use xlink:href="#ArialMT-52"/>
     <use x="72.216797" xlink:href="#ArialMT-61"/>
     <use x="127.832031" xlink:href="#ArialMT-73"/>
     <use x="177.832031" xlink:href="#ArialMT-70"/>
     <use x="233.447266" xlink:href="#ArialMT-62"/>
     <use x="289.0625" xlink:href="#ArialMT-65"/>
     <use x="344.677734" xlink:href="#ArialMT-72"/>
     <use x="377.978516" xlink:href="#ArialMT-72"/>
     <use x="411.279297" xlink:href="#ArialMT-79"/>
     <use x="461.279297" xlink:href="#ArialMT-20"/>
     <use x="489.0625" xlink:href="#ArialMT-50"/>
     <use x="555.761719" xlink:href="#ArialMT-69"/>
     <use x="577.978516" xlink:href="#ArialMT-20"/>
     <use x="605.761719" xlink:href="#ArialMT-52"/>
     <use x="677.978516" xlink:href="#ArialMT-65"/>
     <use x="733.59375" xlink:href="#ArialMT-62"/>
     <use x="789.208984" xlink:href="#ArialMT-6f"/>
     <use x="844.824219" xlink:href="#ArialMT-6f"/>
     <use x="900.439453" xlink:href="#ArialMT-74"/>
     <use x="928.222656" xlink:href="#ArialMT-20"/>
     <use x="955.990234" xlink:href="#ArialMT-54"/>
     <use x="1017.027344" xlink:href="#ArialMT-69"/>
     <use x="1039.244141" xlink:href="#ArialMT-6d"/>
     <use x="1122.544922" xlink:href="#ArialMT-65"/>
     <use x="1178.160156" xlink:href="#ArialMT-73"/>
     <use x="1228.160156" xlink:href="#ArialMT-3a"/>
     <use x="1255.943359" xlink:href="#ArialMT-20"/>
     <use x="1283.726562" xlink:href="#ArialMT-50"/>
     <use x="1350.425781" xlink:href="#ArialMT-69"/>
     <use x="1372.642578" xlink:href="#ArialMT-20"/>
     <use x="1400.425781" xlink:href="#ArialMT-32"/>
     <use x="1456.041016" xlink:href="#ArialMT-20"/>
     <use x="1483.824219" xlink:href="#ArialMT-76"/>
     <use x="1533.824219" xlink:href="#ArialMT-73"/>
     <use x="1583.824219" xlink:href="#ArialMT-20"/>
     <use x="1611.607422" xlink:href="#ArialMT-50"/>
     <use x="1678.306641" xlink:href="#ArialMT-69"/>
     <use x="1700.523438" xlink:href="#ArialMT-20"/>
     <use x="1728.306641" xlink:href="#ArialMT-33"/>
    </g>
   </g>
   <g id="legend_1">
    <g id="patch_9">
     <path d="M 517.566875 54.865 
L 549.566875 54.865 
L 549.566875 43.665 
L 517.566875 43.665 
z
" style="fill:#1f77b4;opacity:0.7;"/>
    </g>
    <g id="text_18">
     <!-- Pi 2 -->
     <g style="fill:#262626;" transform="translate(562.366875 54.865)scale(0.16 -0.16)">
      <use xlink:href="#ArialMT-50"/>
      <use x="66.699219" xlink:href="#ArialMT-69"/>
      <use x="88.916016" xlink:href="#ArialMT-20"/>
      <use x="116.699219" xlink:href="#ArialMT-32"/>
     </g>
    </g>
    <g id="patch_10">
     <path d="M 517.566875 77.4975 
L 549.566875 77.4975 
L 549.566875 66.2975 
L 517.566875 66.2975 
z
" style="fill:#ff7f0e;opacity:0.7;"/>
    </g>
    <g id="text_19">
     <!-- Pi 3 -->
     <g style="fill:#262626;" transform="translate(562.366875 77.4975)scale(0.16 -0.16)">
      <use xlink:href="#ArialMT-50"/>
      <use x="66.699219" xlink:href="#ArialMT-69"/>
      <use x="88.916016" xlink:href="#ArialMT-20"/>
      <use x="116.699219" xlink:href="#ArialMT-33"/>
     </g>
    </g>
   </g>
  </g>
 </g>
 <defs>
  <clipPath id="pff28a4cafe">
   <rect height="380.52" width="558" x="46.336875" y="29.0125"/>
  </clipPath>
 </defs>
</svg>
