<?xml version="1.0" encoding="utf-8" standalone="no"?>
<!DOCTYPE svg PUBLIC "-//W3C//DTD SVG 1.1//EN"
  "http://www.w3.org/Graphics/SVG/1.1/DTD/svg11.dtd">
<!-- Created with matplotlib (http://matplotlib.org/) -->
<svg height="453pt" version="1.1" viewBox="0 0 900 453" width="900pt" xmlns="http://www.w3.org/2000/svg" xmlns:xlink="http://www.w3.org/1999/xlink">
 <defs>
  <style type="text/css">
*{stroke-linecap:butt;stroke-linejoin:round;}
  </style>
 </defs>
 <g id="figure_1">
  <g id="patch_1">
   <path d="M 0 453.74125 
L 900.546563 453.74125 
L 900.546563 0 
L 0 0 
z
" style="fill:#ffffff;"/>
  </g>
  <g id="axes_1">
   <g id="patch_2">
    <path d="M 46.336875 409.5325 
L 883.336875 409.5325 
L 883.336875 29.0125 
L 46.336875 29.0125 
z
" style="fill:#ffffff;"/>
   </g>
   <g id="matplotlib.axis_1">
    <g id="xtick_1">
     <g id="line2d_1"/>
     <g id="text_1">
      <!-- 0 -->
      <defs>
       <path d="M 4.15625 35.296875 
Q 4.15625 48 6.765625 55.734375 
Q 9.375 63.484375 14.515625 67.671875 
Q 19.671875 71.875 27.484375 71.875 
Q 33.25 71.875 37.59375 69.546875 
Q 41.9375 67.234375 44.765625 62.859375 
Q 47.609375 58.5 49.21875 52.21875 
Q 50.828125 45.953125 50.828125 35.296875 
Q 50.828125 22.703125 48.234375 14.96875 
Q 45.65625 7.234375 40.5 3 
Q 35.359375 -1.21875 27.484375 -1.21875 
Q 17.140625 -1.21875 11.234375 6.203125 
Q 4.15625 15.140625 4.15625 35.296875 
z
M 13.1875 35.296875 
Q 13.1875 17.671875 17.3125 11.828125 
Q 21.4375 6 27.484375 6 
Q 33.546875 6 37.671875 11.859375 
Q 41.796875 17.71875 41.796875 35.296875 
Q 41.796875 52.984375 37.671875 58.78125 
Q 33.546875 64.59375 27.390625 64.59375 
Q 21.34375 64.59375 17.71875 59.46875 
Q 13.1875 52.9375 13.1875 35.296875 
z
" id="ArialMT-30"/>
      </defs>
      <g style="fill:#262626;" transform="translate(43.000313 421.621875)scale(0.12 -0.12)">
       <use xlink:href="#ArialMT-30"/>
      </g>
     </g>
    </g>
    <g id="xtick_2">
     <g id="line2d_2"/>
     <g id="text_2">
      <!-- 20 -->
      <defs>
       <path d="M 50.34375 8.453125 
L 50.34375 0 
L 3.03125 0 
Q 2.9375 3.171875 4.046875 6.109375 
Q 5.859375 10.9375 9.828125 15.625 
Q 13.8125 20.3125 21.34375 26.46875 
Q 33.015625 36.03125 37.109375 41.625 
Q 41.21875 47.21875 41.21875 52.203125 
Q 41.21875 57.421875 37.46875 61 
Q 33.734375 64.59375 27.734375 64.59375 
Q 21.390625 64.59375 17.578125 60.78125 
Q 13.765625 56.984375 13.71875 50.25 
L 4.6875 51.171875 
Q 5.609375 61.28125 11.65625 66.578125 
Q 17.71875 71.875 27.9375 71.875 
Q 38.234375 71.875 44.234375 66.15625 
Q 50.25 60.453125 50.25 52 
Q 50.25 47.703125 48.484375 43.546875 
Q 46.734375 39.40625 42.65625 34.8125 
Q 38.578125 30.21875 29.109375 22.21875 
Q 21.1875 15.578125 18.9375 13.203125 
Q 16.703125 10.84375 15.234375 8.453125 
z
" id="ArialMT-32"/>
      </defs>
      <g style="fill:#262626;" transform="translate(179.16375 421.621875)scale(0.12 -0.12)">
       <use xlink:href="#ArialMT-32"/>
       <use x="55.615234" xlink:href="#ArialMT-30"/>
      </g>
     </g>
    </g>
    <g id="xtick_3">
     <g id="line2d_3"/>
     <g id="text_3">
      <!-- 40 -->
      <defs>
       <path d="M 32.328125 0 
L 32.328125 17.140625 
L 1.265625 17.140625 
L 1.265625 25.203125 
L 33.9375 71.578125 
L 41.109375 71.578125 
L 41.109375 25.203125 
L 50.78125 25.203125 
L 50.78125 17.140625 
L 41.109375 17.140625 
L 41.109375 0 
z
M 32.328125 25.203125 
L 32.328125 57.46875 
L 9.90625 25.203125 
z
" id="ArialMT-34"/>
      </defs>
      <g style="fill:#262626;" transform="translate(318.66375 421.621875)scale(0.12 -0.12)">
       <use xlink:href="#ArialMT-34"/>
       <use x="55.615234" xlink:href="#ArialMT-30"/>
      </g>
     </g>
    </g>
    <g id="xtick_4">
     <g id="line2d_4"/>
     <g id="text_4">
      <!-- 60 -->
      <defs>
       <path d="M 49.75 54.046875 
L 41.015625 53.375 
Q 39.84375 58.546875 37.703125 60.890625 
Q 34.125 64.65625 28.90625 64.65625 
Q 24.703125 64.65625 21.53125 62.3125 
Q 17.390625 59.28125 14.984375 53.46875 
Q 12.59375 47.65625 12.5 36.921875 
Q 15.671875 41.75 20.265625 44.09375 
Q 24.859375 46.4375 29.890625 46.4375 
Q 38.671875 46.4375 44.84375 39.96875 
Q 51.03125 33.5 51.03125 23.25 
Q 51.03125 16.5 48.125 10.71875 
Q 45.21875 4.9375 40.140625 1.859375 
Q 35.0625 -1.21875 28.609375 -1.21875 
Q 17.625 -1.21875 10.6875 6.859375 
Q 3.765625 14.9375 3.765625 33.5 
Q 3.765625 54.25 11.421875 63.671875 
Q 18.109375 71.875 29.4375 71.875 
Q 37.890625 71.875 43.28125 67.140625 
Q 48.6875 62.40625 49.75 54.046875 
z
M 13.875 23.1875 
Q 13.875 18.65625 15.796875 14.5 
Q 17.71875 10.359375 21.1875 8.171875 
Q 24.65625 6 28.46875 6 
Q 34.03125 6 38.03125 10.484375 
Q 42.046875 14.984375 42.046875 22.703125 
Q 42.046875 30.125 38.078125 34.390625 
Q 34.125 38.671875 28.125 38.671875 
Q 22.171875 38.671875 18.015625 34.390625 
Q 13.875 30.125 13.875 23.1875 
z
" id="ArialMT-36"/>
      </defs>
      <g style="fill:#262626;" transform="translate(458.16375 421.621875)scale(0.12 -0.12)">
       <use xlink:href="#ArialMT-36"/>
       <use x="55.615234" xlink:href="#ArialMT-30"/>
      </g>
     </g>
    </g>
    <g id="xtick_5">
     <g id="line2d_5"/>
     <g id="text_5">
      <!-- 80 -->
      <defs>
       <path d="M 17.671875 38.8125 
Q 12.203125 40.828125 9.5625 44.53125 
Q 6.9375 48.25 6.9375 53.421875 
Q 6.9375 61.234375 12.546875 66.546875 
Q 18.171875 71.875 27.484375 71.875 
Q 36.859375 71.875 42.578125 66.421875 
Q 48.296875 60.984375 48.296875 53.171875 
Q 48.296875 48.1875 45.671875 44.5 
Q 43.0625 40.828125 37.75 38.8125 
Q 44.34375 36.671875 47.78125 31.875 
Q 51.21875 27.09375 51.21875 20.453125 
Q 51.21875 11.28125 44.71875 5.03125 
Q 38.234375 -1.21875 27.640625 -1.21875 
Q 17.046875 -1.21875 10.546875 5.046875 
Q 4.046875 11.328125 4.046875 20.703125 
Q 4.046875 27.6875 7.59375 32.390625 
Q 11.140625 37.109375 17.671875 38.8125 
z
M 15.921875 53.71875 
Q 15.921875 48.640625 19.1875 45.40625 
Q 22.46875 42.1875 27.6875 42.1875 
Q 32.765625 42.1875 36.015625 45.375 
Q 39.265625 48.578125 39.265625 53.21875 
Q 39.265625 58.0625 35.90625 61.359375 
Q 32.5625 64.65625 27.59375 64.65625 
Q 22.5625 64.65625 19.234375 61.421875 
Q 15.921875 58.203125 15.921875 53.71875 
z
M 13.09375 20.65625 
Q 13.09375 16.890625 14.875 13.375 
Q 16.65625 9.859375 20.171875 7.921875 
Q 23.6875 6 27.734375 6 
Q 34.03125 6 38.125 10.046875 
Q 42.234375 14.109375 42.234375 20.359375 
Q 42.234375 26.703125 38.015625 30.859375 
Q 33.796875 35.015625 27.4375 35.015625 
Q 21.234375 35.015625 17.15625 30.90625 
Q 13.09375 26.8125 13.09375 20.65625 
z
" id="ArialMT-38"/>
      </defs>
      <g style="fill:#262626;" transform="translate(597.66375 421.621875)scale(0.12 -0.12)">
       <use xlink:href="#ArialMT-38"/>
       <use x="55.615234" xlink:href="#ArialMT-30"/>
      </g>
     </g>
    </g>
    <g id="xtick_6">
     <g id="line2d_6"/>
     <g id="text_6">
      <!-- 100 -->
      <defs>
       <path d="M 37.25 0 
L 28.46875 0 
L 28.46875 56 
Q 25.296875 52.984375 20.140625 49.953125 
Q 14.984375 46.921875 10.890625 45.40625 
L 10.890625 53.90625 
Q 18.265625 57.375 23.78125 62.296875 
Q 29.296875 67.234375 31.59375 71.875 
L 37.25 71.875 
z
" id="ArialMT-31"/>
      </defs>
      <g style="fill:#262626;" transform="translate(733.827187 421.621875)scale(0.12 -0.12)">
       <use xlink:href="#ArialMT-31"/>
       <use x="55.615234" xlink:href="#ArialMT-30"/>
       <use x="111.230469" xlink:href="#ArialMT-30"/>
      </g>
     </g>
    </g>
    <g id="xtick_7">
     <g id="line2d_7"/>
     <g id="text_7">
      <!-- 120 -->
      <g style="fill:#262626;" transform="translate(873.327187 421.621875)scale(0.12 -0.12)">
       <use xlink:href="#ArialMT-31"/>
       <use x="55.615234" xlink:href="#ArialMT-32"/>
       <use x="111.230469" xlink:href="#ArialMT-30"/>
      </g>
     </g>
    </g>
    <g id="text_8">
     <!-- Reboot Time [Seconds] -->
     <defs>
      <path d="M 7.859375 0 
L 7.859375 71.578125 
L 39.59375 71.578125 
Q 49.171875 71.578125 54.140625 69.640625 
Q 59.125 67.71875 62.109375 62.828125 
Q 65.09375 57.953125 65.09375 52.046875 
Q 65.09375 44.4375 60.15625 39.203125 
Q 55.21875 33.984375 44.921875 32.5625 
Q 48.6875 30.765625 50.640625 29 
Q 54.78125 25.203125 58.5 19.484375 
L 70.953125 0 
L 59.03125 0 
L 49.5625 14.890625 
Q 45.40625 21.34375 42.71875 24.75 
Q 40.046875 28.171875 37.921875 29.53125 
Q 35.796875 30.90625 33.59375 31.453125 
Q 31.984375 31.78125 28.328125 31.78125 
L 17.328125 31.78125 
L 17.328125 0 
z
M 17.328125 39.984375 
L 37.703125 39.984375 
Q 44.1875 39.984375 47.84375 41.328125 
Q 51.515625 42.671875 53.421875 45.625 
Q 55.328125 48.578125 55.328125 52.046875 
Q 55.328125 57.125 51.640625 60.390625 
Q 47.953125 63.671875 39.984375 63.671875 
L 17.328125 63.671875 
z
" id="ArialMT-52"/>
      <path d="M 42.09375 16.703125 
L 51.171875 15.578125 
Q 49.03125 7.625 43.21875 3.21875 
Q 37.40625 -1.171875 28.375 -1.171875 
Q 17 -1.171875 10.328125 5.828125 
Q 3.65625 12.84375 3.65625 25.484375 
Q 3.65625 38.578125 10.390625 45.796875 
Q 17.140625 53.03125 27.875 53.03125 
Q 38.28125 53.03125 44.875 45.953125 
Q 51.46875 38.875 51.46875 26.03125 
Q 51.46875 25.25 51.421875 23.6875 
L 12.75 23.6875 
Q 13.234375 15.140625 17.578125 10.59375 
Q 21.921875 6.0625 28.421875 6.0625 
Q 33.25 6.0625 36.671875 8.59375 
Q 40.09375 11.140625 42.09375 16.703125 
z
M 13.234375 30.90625 
L 42.1875 30.90625 
Q 41.609375 37.453125 38.875 40.71875 
Q 34.671875 45.796875 27.984375 45.796875 
Q 21.921875 45.796875 17.796875 41.75 
Q 13.671875 37.703125 13.234375 30.90625 
z
" id="ArialMT-65"/>
      <path d="M 14.703125 0 
L 6.546875 0 
L 6.546875 71.578125 
L 15.328125 71.578125 
L 15.328125 46.046875 
Q 20.90625 53.03125 29.546875 53.03125 
Q 34.328125 53.03125 38.59375 51.09375 
Q 42.875 49.171875 45.625 45.671875 
Q 48.390625 42.1875 49.953125 37.25 
Q 51.515625 32.328125 51.515625 26.703125 
Q 51.515625 13.375 44.921875 6.09375 
Q 38.328125 -1.171875 29.109375 -1.171875 
Q 19.921875 -1.171875 14.703125 6.5 
z
M 14.59375 26.3125 
Q 14.59375 17 17.140625 12.84375 
Q 21.296875 6.0625 28.375 6.0625 
Q 34.125 6.0625 38.328125 11.0625 
Q 42.53125 16.0625 42.53125 25.984375 
Q 42.53125 36.140625 38.5 40.96875 
Q 34.46875 45.796875 28.765625 45.796875 
Q 23 45.796875 18.796875 40.796875 
Q 14.59375 35.796875 14.59375 26.3125 
z
" id="ArialMT-62"/>
      <path d="M 3.328125 25.921875 
Q 3.328125 40.328125 11.328125 47.265625 
Q 18.015625 53.03125 27.640625 53.03125 
Q 38.328125 53.03125 45.109375 46.015625 
Q 51.90625 39.015625 51.90625 26.65625 
Q 51.90625 16.65625 48.90625 10.90625 
Q 45.90625 5.171875 40.15625 2 
Q 34.421875 -1.171875 27.640625 -1.171875 
Q 16.75 -1.171875 10.03125 5.8125 
Q 3.328125 12.796875 3.328125 25.921875 
z
M 12.359375 25.921875 
Q 12.359375 15.96875 16.703125 11.015625 
Q 21.046875 6.0625 27.640625 6.0625 
Q 34.1875 6.0625 38.53125 11.03125 
Q 42.875 16.015625 42.875 26.21875 
Q 42.875 35.84375 38.5 40.796875 
Q 34.125 45.75 27.640625 45.75 
Q 21.046875 45.75 16.703125 40.8125 
Q 12.359375 35.890625 12.359375 25.921875 
z
" id="ArialMT-6f"/>
      <path d="M 25.78125 7.859375 
L 27.046875 0.09375 
Q 23.34375 -0.6875 20.40625 -0.6875 
Q 15.625 -0.6875 12.984375 0.828125 
Q 10.359375 2.34375 9.28125 4.8125 
Q 8.203125 7.28125 8.203125 15.1875 
L 8.203125 45.015625 
L 1.765625 45.015625 
L 1.765625 51.859375 
L 8.203125 51.859375 
L 8.203125 64.703125 
L 16.9375 69.96875 
L 16.9375 51.859375 
L 25.78125 51.859375 
L 25.78125 45.015625 
L 16.9375 45.015625 
L 16.9375 14.703125 
Q 16.9375 10.9375 17.40625 9.859375 
Q 17.875 8.796875 18.921875 8.15625 
Q 19.96875 7.515625 21.921875 7.515625 
Q 23.390625 7.515625 25.78125 7.859375 
z
" id="ArialMT-74"/>
      <path id="ArialMT-20"/>
      <path d="M 25.921875 0 
L 25.921875 63.140625 
L 2.34375 63.140625 
L 2.34375 71.578125 
L 59.078125 71.578125 
L 59.078125 63.140625 
L 35.40625 63.140625 
L 35.40625 0 
z
" id="ArialMT-54"/>
      <path d="M 6.640625 61.46875 
L 6.640625 71.578125 
L 15.4375 71.578125 
L 15.4375 61.46875 
z
M 6.640625 0 
L 6.640625 51.859375 
L 15.4375 51.859375 
L 15.4375 0 
z
" id="ArialMT-69"/>
      <path d="M 6.59375 0 
L 6.59375 51.859375 
L 14.453125 51.859375 
L 14.453125 44.578125 
Q 16.890625 48.390625 20.9375 50.703125 
Q 25 53.03125 30.171875 53.03125 
Q 35.9375 53.03125 39.625 50.640625 
Q 43.3125 48.25 44.828125 43.953125 
Q 50.984375 53.03125 60.84375 53.03125 
Q 68.5625 53.03125 72.703125 48.75 
Q 76.859375 44.484375 76.859375 35.59375 
L 76.859375 0 
L 68.109375 0 
L 68.109375 32.671875 
Q 68.109375 37.9375 67.25 40.25 
Q 66.40625 42.578125 64.15625 43.984375 
Q 61.921875 45.40625 58.890625 45.40625 
Q 53.421875 45.40625 49.796875 41.765625 
Q 46.1875 38.140625 46.1875 30.125 
L 46.1875 0 
L 37.40625 0 
L 37.40625 33.6875 
Q 37.40625 39.546875 35.25 42.46875 
Q 33.109375 45.40625 28.21875 45.40625 
Q 24.515625 45.40625 21.359375 43.453125 
Q 18.21875 41.5 16.796875 37.734375 
Q 15.375 33.984375 15.375 26.90625 
L 15.375 0 
z
" id="ArialMT-6d"/>
      <path d="M 6.78125 -19.875 
L 6.78125 71.578125 
L 26.171875 71.578125 
L 26.171875 64.3125 
L 15.578125 64.3125 
L 15.578125 -12.59375 
L 26.171875 -12.59375 
L 26.171875 -19.875 
z
" id="ArialMT-5b"/>
      <path d="M 4.5 23 
L 13.421875 23.78125 
Q 14.0625 18.40625 16.375 14.96875 
Q 18.703125 11.53125 23.578125 9.40625 
Q 28.46875 7.28125 34.578125 7.28125 
Q 39.984375 7.28125 44.140625 8.890625 
Q 48.296875 10.5 50.3125 13.296875 
Q 52.34375 16.109375 52.34375 19.4375 
Q 52.34375 22.796875 50.390625 25.3125 
Q 48.4375 27.828125 43.953125 29.546875 
Q 41.0625 30.671875 31.203125 33.03125 
Q 21.34375 35.40625 17.390625 37.5 
Q 12.25 40.1875 9.734375 44.15625 
Q 7.234375 48.140625 7.234375 53.078125 
Q 7.234375 58.5 10.296875 63.203125 
Q 13.375 67.921875 19.28125 70.359375 
Q 25.203125 72.796875 32.421875 72.796875 
Q 40.375 72.796875 46.453125 70.234375 
Q 52.546875 67.671875 55.8125 62.6875 
Q 59.078125 57.71875 59.328125 51.421875 
L 50.25 50.734375 
Q 49.515625 57.515625 45.28125 60.984375 
Q 41.0625 64.453125 32.8125 64.453125 
Q 24.21875 64.453125 20.28125 61.296875 
Q 16.359375 58.15625 16.359375 53.71875 
Q 16.359375 49.859375 19.140625 47.359375 
Q 21.875 44.875 33.421875 42.265625 
Q 44.96875 39.65625 49.265625 37.703125 
Q 55.515625 34.8125 58.484375 30.390625 
Q 61.46875 25.984375 61.46875 20.21875 
Q 61.46875 14.5 58.203125 9.4375 
Q 54.9375 4.390625 48.796875 1.578125 
Q 42.671875 -1.21875 35.015625 -1.21875 
Q 25.296875 -1.21875 18.71875 1.609375 
Q 12.15625 4.4375 8.421875 10.125 
Q 4.6875 15.828125 4.5 23 
z
" id="ArialMT-53"/>
      <path d="M 40.4375 19 
L 49.078125 17.875 
Q 47.65625 8.9375 41.8125 3.875 
Q 35.984375 -1.171875 27.484375 -1.171875 
Q 16.84375 -1.171875 10.375 5.78125 
Q 3.90625 12.75 3.90625 25.734375 
Q 3.90625 34.125 6.6875 40.421875 
Q 9.46875 46.734375 15.15625 49.875 
Q 20.84375 53.03125 27.546875 53.03125 
Q 35.984375 53.03125 41.359375 48.75 
Q 46.734375 44.484375 48.25 36.625 
L 39.703125 35.296875 
Q 38.484375 40.53125 35.375 43.15625 
Q 32.28125 45.796875 27.875 45.796875 
Q 21.234375 45.796875 17.078125 41.03125 
Q 12.9375 36.28125 12.9375 25.984375 
Q 12.9375 15.53125 16.9375 10.796875 
Q 20.953125 6.0625 27.390625 6.0625 
Q 32.5625 6.0625 36.03125 9.234375 
Q 39.5 12.40625 40.4375 19 
z
" id="ArialMT-63"/>
      <path d="M 6.59375 0 
L 6.59375 51.859375 
L 14.5 51.859375 
L 14.5 44.484375 
Q 20.21875 53.03125 31 53.03125 
Q 35.6875 53.03125 39.625 51.34375 
Q 43.5625 49.65625 45.515625 46.921875 
Q 47.46875 44.1875 48.25 40.4375 
Q 48.734375 37.984375 48.734375 31.890625 
L 48.734375 0 
L 39.9375 0 
L 39.9375 31.546875 
Q 39.9375 36.921875 38.90625 39.578125 
Q 37.890625 42.234375 35.28125 43.8125 
Q 32.671875 45.40625 29.15625 45.40625 
Q 23.53125 45.40625 19.453125 41.84375 
Q 15.375 38.28125 15.375 28.328125 
L 15.375 0 
z
" id="ArialMT-6e"/>
      <path d="M 40.234375 0 
L 40.234375 6.546875 
Q 35.296875 -1.171875 25.734375 -1.171875 
Q 19.53125 -1.171875 14.328125 2.25 
Q 9.125 5.671875 6.265625 11.796875 
Q 3.421875 17.921875 3.421875 25.875 
Q 3.421875 33.640625 6 39.96875 
Q 8.59375 46.296875 13.765625 49.65625 
Q 18.953125 53.03125 25.34375 53.03125 
Q 30.03125 53.03125 33.6875 51.046875 
Q 37.359375 49.078125 39.65625 45.90625 
L 39.65625 71.578125 
L 48.390625 71.578125 
L 48.390625 0 
z
M 12.453125 25.875 
Q 12.453125 15.921875 16.640625 10.984375 
Q 20.84375 6.0625 26.5625 6.0625 
Q 32.328125 6.0625 36.34375 10.765625 
Q 40.375 15.484375 40.375 25.140625 
Q 40.375 35.796875 36.265625 40.765625 
Q 32.171875 45.75 26.171875 45.75 
Q 20.3125 45.75 16.375 40.96875 
Q 12.453125 36.1875 12.453125 25.875 
z
" id="ArialMT-64"/>
      <path d="M 3.078125 15.484375 
L 11.765625 16.84375 
Q 12.5 11.625 15.84375 8.84375 
Q 19.1875 6.0625 25.203125 6.0625 
Q 31.25 6.0625 34.171875 8.515625 
Q 37.109375 10.984375 37.109375 14.3125 
Q 37.109375 17.28125 34.515625 19 
Q 32.71875 20.171875 25.53125 21.96875 
Q 15.875 24.421875 12.140625 26.203125 
Q 8.40625 27.984375 6.46875 31.125 
Q 4.546875 34.28125 4.546875 38.09375 
Q 4.546875 41.546875 6.125 44.5 
Q 7.71875 47.46875 10.453125 49.421875 
Q 12.5 50.921875 16.03125 51.96875 
Q 19.578125 53.03125 23.640625 53.03125 
Q 29.734375 53.03125 34.34375 51.265625 
Q 38.96875 49.515625 41.15625 46.5 
Q 43.359375 43.5 44.1875 38.484375 
L 35.59375 37.3125 
Q 35.015625 41.3125 32.203125 43.546875 
Q 29.390625 45.796875 24.265625 45.796875 
Q 18.21875 45.796875 15.625 43.796875 
Q 13.03125 41.796875 13.03125 39.109375 
Q 13.03125 37.40625 14.109375 36.03125 
Q 15.1875 34.625 17.484375 33.6875 
Q 18.796875 33.203125 25.25 31.453125 
Q 34.578125 28.953125 38.25 27.359375 
Q 41.9375 25.78125 44.03125 22.75 
Q 46.140625 19.734375 46.140625 15.234375 
Q 46.140625 10.84375 43.578125 6.953125 
Q 41.015625 3.078125 36.171875 0.953125 
Q 31.34375 -1.171875 25.25 -1.171875 
Q 15.140625 -1.171875 9.84375 3.03125 
Q 4.546875 7.234375 3.078125 15.484375 
z
" id="ArialMT-73"/>
      <path d="M 21.296875 -19.875 
L 1.90625 -19.875 
L 1.90625 -12.59375 
L 12.5 -12.59375 
L 12.5 64.3125 
L 1.90625 64.3125 
L 1.90625 71.578125 
L 21.296875 71.578125 
z
" id="ArialMT-5d"/>
     </defs>
     <g style="fill:#262626;" transform="translate(360.3525 442.56625)scale(0.2 -0.2)">
      <use xlink:href="#ArialMT-52"/>
      <use x="72.216797" xlink:href="#ArialMT-65"/>
      <use x="127.832031" xlink:href="#ArialMT-62"/>
      <use x="183.447266" xlink:href="#ArialMT-6f"/>
      <use x="239.0625" xlink:href="#ArialMT-6f"/>
      <use x="294.677734" xlink:href="#ArialMT-74"/>
      <use x="322.460938" xlink:href="#ArialMT-20"/>
      <use x="350.228516" xlink:href="#ArialMT-54"/>
      <use x="411.265625" xlink:href="#ArialMT-69"/>
      <use x="433.482422" xlink:href="#ArialMT-6d"/>
      <use x="516.783203" xlink:href="#ArialMT-65"/>
      <use x="572.398438" xlink:href="#ArialMT-20"/>
      <use x="600.181641" xlink:href="#ArialMT-5b"/>
      <use x="627.964844" xlink:href="#ArialMT-53"/>
      <use x="694.664062" xlink:href="#ArialMT-65"/>
      <use x="750.279297" xlink:href="#ArialMT-63"/>
      <use x="800.279297" xlink:href="#ArialMT-6f"/>
      <use x="855.894531" xlink:href="#ArialMT-6e"/>
      <use x="911.509766" xlink:href="#ArialMT-64"/>
      <use x="967.125" xlink:href="#ArialMT-73"/>
      <use x="1017.125" xlink:href="#ArialMT-5d"/>
     </g>
    </g>
   </g>
   <g id="matplotlib.axis_2">
    <g id="ytick_1">
     <g id="line2d_8"/>
     <g id="text_9">
      <!-- 0 -->
      <g style="fill:#262626;" transform="translate(36.16375 413.827187)scale(0.12 -0.12)">
       <use xlink:href="#ArialMT-30"/>
      </g>
     </g>
    </g>
    <g id="ytick_2">
     <g id="line2d_9"/>
     <g id="text_10">
      <!-- 10 -->
      <g style="fill:#262626;" transform="translate(29.490625 370.164537)scale(0.12 -0.12)">
       <use xlink:href="#ArialMT-31"/>
       <use x="55.615234" xlink:href="#ArialMT-30"/>
      </g>
     </g>
    </g>
    <g id="ytick_3">
     <g id="line2d_10"/>
     <g id="text_11">
      <!-- 20 -->
      <g style="fill:#262626;" transform="translate(29.490625 326.501886)scale(0.12 -0.12)">
       <use xlink:href="#ArialMT-32"/>
       <use x="55.615234" xlink:href="#ArialMT-30"/>
      </g>
     </g>
    </g>
    <g id="ytick_4">
     <g id="line2d_11"/>
     <g id="text_12">
      <!-- 30 -->
      <defs>
       <path d="M 4.203125 18.890625 
L 12.984375 20.0625 
Q 14.5 12.59375 18.140625 9.296875 
Q 21.78125 6 27 6 
Q 33.203125 6 37.46875 10.296875 
Q 41.75 14.59375 41.75 20.953125 
Q 41.75 27 37.796875 30.921875 
Q 33.84375 34.859375 27.734375 34.859375 
Q 25.25 34.859375 21.53125 33.890625 
L 22.515625 41.609375 
Q 23.390625 41.5 23.921875 41.5 
Q 29.546875 41.5 34.03125 44.421875 
Q 38.53125 47.359375 38.53125 53.46875 
Q 38.53125 58.296875 35.25 61.46875 
Q 31.984375 64.65625 26.8125 64.65625 
Q 21.6875 64.65625 18.265625 61.421875 
Q 14.84375 58.203125 13.875 51.765625 
L 5.078125 53.328125 
Q 6.6875 62.15625 12.390625 67.015625 
Q 18.109375 71.875 26.609375 71.875 
Q 32.46875 71.875 37.390625 69.359375 
Q 42.328125 66.84375 44.9375 62.5 
Q 47.5625 58.15625 47.5625 53.265625 
Q 47.5625 48.640625 45.0625 44.828125 
Q 42.578125 41.015625 37.703125 38.765625 
Q 44.046875 37.3125 47.5625 32.6875 
Q 51.078125 28.078125 51.078125 21.140625 
Q 51.078125 11.765625 44.234375 5.25 
Q 37.40625 -1.265625 26.953125 -1.265625 
Q 17.53125 -1.265625 11.296875 4.34375 
Q 5.078125 9.96875 4.203125 18.890625 
z
" id="ArialMT-33"/>
      </defs>
      <g style="fill:#262626;" transform="translate(29.490625 282.839236)scale(0.12 -0.12)">
       <use xlink:href="#ArialMT-33"/>
       <use x="55.615234" xlink:href="#ArialMT-30"/>
      </g>
     </g>
    </g>
    <g id="ytick_5">
     <g id="line2d_12"/>
     <g id="text_13">
      <!-- 40 -->
      <g style="fill:#262626;" transform="translate(29.490625 239.176585)scale(0.12 -0.12)">
       <use xlink:href="#ArialMT-34"/>
       <use x="55.615234" xlink:href="#ArialMT-30"/>
      </g>
     </g>
    </g>
    <g id="ytick_6">
     <g id="line2d_13"/>
     <g id="text_14">
      <!-- 50 -->
      <defs>
       <path d="M 4.15625 18.75 
L 13.375 19.53125 
Q 14.40625 12.796875 18.140625 9.390625 
Q 21.875 6 27.15625 6 
Q 33.5 6 37.890625 10.78125 
Q 42.28125 15.578125 42.28125 23.484375 
Q 42.28125 31 38.0625 35.34375 
Q 33.84375 39.703125 27 39.703125 
Q 22.75 39.703125 19.328125 37.765625 
Q 15.921875 35.84375 13.96875 32.765625 
L 5.71875 33.84375 
L 12.640625 70.609375 
L 48.25 70.609375 
L 48.25 62.203125 
L 19.671875 62.203125 
L 15.828125 42.96875 
Q 22.265625 47.46875 29.34375 47.46875 
Q 38.71875 47.46875 45.15625 40.96875 
Q 51.609375 34.46875 51.609375 24.265625 
Q 51.609375 14.546875 45.953125 7.46875 
Q 39.0625 -1.21875 27.15625 -1.21875 
Q 17.390625 -1.21875 11.203125 4.25 
Q 5.03125 9.71875 4.15625 18.75 
z
" id="ArialMT-35"/>
      </defs>
      <g style="fill:#262626;" transform="translate(29.490625 195.513934)scale(0.12 -0.12)">
       <use xlink:href="#ArialMT-35"/>
       <use x="55.615234" xlink:href="#ArialMT-30"/>
      </g>
     </g>
    </g>
    <g id="ytick_7">
     <g id="line2d_14"/>
     <g id="text_15">
      <!-- 60 -->
      <g style="fill:#262626;" transform="translate(29.490625 151.851284)scale(0.12 -0.12)">
       <use xlink:href="#ArialMT-36"/>
       <use x="55.615234" xlink:href="#ArialMT-30"/>
      </g>
     </g>
    </g>
    <g id="ytick_8">
     <g id="line2d_15"/>
     <g id="text_16">
      <!-- 70 -->
      <defs>
       <path d="M 4.734375 62.203125 
L 4.734375 70.65625 
L 51.078125 70.65625 
L 51.078125 63.8125 
Q 44.234375 56.546875 37.515625 44.484375 
Q 30.8125 32.421875 27.15625 19.671875 
Q 24.515625 10.6875 23.78125 0 
L 14.75 0 
Q 14.890625 8.453125 18.0625 20.40625 
Q 21.234375 32.375 27.171875 43.484375 
Q 33.109375 54.59375 39.796875 62.203125 
z
" id="ArialMT-37"/>
      </defs>
      <g style="fill:#262626;" transform="translate(29.490625 108.188633)scale(0.12 -0.12)">
       <use xlink:href="#ArialMT-37"/>
       <use x="55.615234" xlink:href="#ArialMT-30"/>
      </g>
     </g>
    </g>
    <g id="ytick_9">
     <g id="line2d_16"/>
     <g id="text_17">
      <!-- 80 -->
      <g style="fill:#262626;" transform="translate(29.490625 64.525983)scale(0.12 -0.12)">
       <use xlink:href="#ArialMT-38"/>
       <use x="55.615234" xlink:href="#ArialMT-30"/>
      </g>
     </g>
    </g>
    <g id="text_18">
     <!-- Count -->
     <defs>
      <path d="M 58.796875 25.09375 
L 68.265625 22.703125 
Q 65.28125 11.03125 57.546875 4.90625 
Q 49.8125 -1.21875 38.625 -1.21875 
Q 27.046875 -1.21875 19.796875 3.484375 
Q 12.546875 8.203125 8.765625 17.140625 
Q 4.984375 26.078125 4.984375 36.328125 
Q 4.984375 47.515625 9.25 55.828125 
Q 13.53125 64.15625 21.40625 68.46875 
Q 29.296875 72.796875 38.765625 72.796875 
Q 49.515625 72.796875 56.828125 67.328125 
Q 64.15625 61.859375 67.046875 51.953125 
L 57.71875 49.75 
Q 55.21875 57.5625 50.484375 61.125 
Q 45.75 64.703125 38.578125 64.703125 
Q 30.328125 64.703125 24.78125 60.734375 
Q 19.234375 56.78125 16.984375 50.109375 
Q 14.75 43.453125 14.75 36.375 
Q 14.75 27.25 17.40625 20.4375 
Q 20.0625 13.625 25.671875 10.25 
Q 31.296875 6.890625 37.84375 6.890625 
Q 45.796875 6.890625 51.3125 11.46875 
Q 56.84375 16.0625 58.796875 25.09375 
z
" id="ArialMT-43"/>
      <path d="M 40.578125 0 
L 40.578125 7.625 
Q 34.515625 -1.171875 24.125 -1.171875 
Q 19.53125 -1.171875 15.546875 0.578125 
Q 11.578125 2.34375 9.640625 5 
Q 7.71875 7.671875 6.9375 11.53125 
Q 6.390625 14.109375 6.390625 19.734375 
L 6.390625 51.859375 
L 15.1875 51.859375 
L 15.1875 23.09375 
Q 15.1875 16.21875 15.71875 13.8125 
Q 16.546875 10.359375 19.234375 8.375 
Q 21.921875 6.390625 25.875 6.390625 
Q 29.828125 6.390625 33.296875 8.421875 
Q 36.765625 10.453125 38.203125 13.9375 
Q 39.65625 17.4375 39.65625 24.078125 
L 39.65625 51.859375 
L 48.4375 51.859375 
L 48.4375 0 
z
" id="ArialMT-75"/>
     </defs>
     <g style="fill:#262626;" transform="translate(21.515625 245.955312)rotate(-90)scale(0.2 -0.2)">
      <use xlink:href="#ArialMT-43"/>
      <use x="72.216797" xlink:href="#ArialMT-6f"/>
      <use x="127.832031" xlink:href="#ArialMT-75"/>
      <use x="183.447266" xlink:href="#ArialMT-6e"/>
      <use x="239.0625" xlink:href="#ArialMT-74"/>
     </g>
    </g>
   </g>
   <g id="patch_3">
    <path clip-path="url(#p62eca0325e)" d="M 42.849375 409.5325 
L 42.849375 409.5325 
L 49.824375 409.5325 
L 49.824375 409.5325 
L 56.799375 409.5325 
L 56.799375 409.5325 
L 63.774375 409.5325 
L 63.774375 409.5325 
L 70.749375 409.5325 
L 70.749375 409.5325 
L 77.724375 409.5325 
L 77.724375 409.5325 
L 84.699375 409.5325 
L 84.699375 409.5325 
L 91.674375 409.5325 
L 91.674375 409.5325 
L 98.649375 409.5325 
L 98.649375 409.5325 
L 105.624375 409.5325 
L 105.624375 409.5325 
L 112.599375 409.5325 
L 112.599375 409.5325 
L 119.574375 409.5325 
L 119.574375 409.5325 
L 126.549375 409.5325 
L 126.549375 409.5325 
L 133.524375 409.5325 
L 133.524375 409.5325 
L 140.499375 409.5325 
L 140.499375 409.5325 
L 147.474375 409.5325 
L 147.474375 409.5325 
L 154.449375 409.5325 
L 154.449375 409.5325 
L 161.424375 409.5325 
L 161.424375 409.5325 
L 168.399375 409.5325 
L 168.399375 409.5325 
L 175.374375 409.5325 
L 175.374375 409.5325 
L 182.349375 409.5325 
L 182.349375 409.5325 
L 189.324375 409.5325 
L 189.324375 409.5325 
L 196.299375 409.5325 
L 196.299375 405.166235 
L 203.274375 405.166235 
L 203.274375 409.5325 
L 210.249375 409.5325 
L 210.249375 392.06744 
L 217.224375 392.06744 
L 217.224375 383.33491 
L 224.199375 383.33491 
L 224.199375 383.33491 
L 231.174375 383.33491 
L 231.174375 409.5325 
L 238.149375 409.5325 
L 238.149375 396.433705 
L 245.124375 396.433705 
L 245.124375 409.5325 
L 252.099375 409.5325 
L 252.099375 374.60238 
L 259.074375 374.60238 
L 259.074375 165.021657 
L 266.049375 165.021657 
L 266.049375 68.963825 
L 273.024375 68.963825 
L 273.024375 151.922861 
L 279.999375 151.922861 
L 279.999375 357.137319 
L 286.974375 357.137319 
L 286.974375 392.06744 
L 293.949375 392.06744 
L 293.949375 387.701175 
L 300.924375 387.701175 
L 300.924375 396.433705 
L 307.899375 396.433705 
L 307.899375 405.166235 
L 314.874375 405.166235 
L 314.874375 409.5325 
L 321.849375 409.5325 
L 321.849375 400.79997 
L 328.824375 400.79997 
L 328.824375 409.5325 
L 335.799375 409.5325 
L 335.799375 409.5325 
L 342.774375 409.5325 
L 342.774375 409.5325 
L 349.749375 409.5325 
L 349.749375 409.5325 
L 356.724375 409.5325 
L 356.724375 409.5325 
L 363.699375 409.5325 
L 363.699375 409.5325 
L 370.674375 409.5325 
L 370.674375 392.06744 
L 377.649375 392.06744 
L 377.649375 409.5325 
L 384.624375 409.5325 
L 384.624375 409.5325 
L 391.599375 409.5325 
L 391.599375 409.5325 
L 398.574375 409.5325 
L 398.574375 409.5325 
L 405.549375 409.5325 
L 405.549375 409.5325 
L 412.524375 409.5325 
L 412.524375 409.5325 
L 419.499375 409.5325 
L 419.499375 409.5325 
L 426.474375 409.5325 
L 426.474375 409.5325 
L 433.449375 409.5325 
L 433.449375 409.5325 
L 440.424375 409.5325 
L 440.424375 409.5325 
L 447.399375 409.5325 
L 447.399375 409.5325 
L 454.374375 409.5325 
L 454.374375 409.5325 
L 461.349375 409.5325 
L 461.349375 409.5325 
L 468.324375 409.5325 
L 468.324375 409.5325 
L 475.299375 409.5325 
L 475.299375 409.5325 
L 482.274375 409.5325 
L 482.274375 409.5325 
L 489.249375 409.5325 
L 489.249375 409.5325 
L 496.224375 409.5325 
L 496.224375 409.5325 
L 503.199375 409.5325 
L 503.199375 409.5325 
L 510.174375 409.5325 
L 510.174375 409.5325 
L 517.149375 409.5325 
L 517.149375 409.5325 
L 524.124375 409.5325 
L 524.124375 409.5325 
L 531.099375 409.5325 
L 531.099375 409.5325 
L 538.074375 409.5325 
L 538.074375 409.5325 
L 545.049375 409.5325 
L 545.049375 409.5325 
L 552.024375 409.5325 
L 552.024375 409.5325 
L 558.999375 409.5325 
L 558.999375 409.5325 
L 565.974375 409.5325 
L 565.974375 409.5325 
L 572.949375 409.5325 
L 572.949375 409.5325 
L 579.924375 409.5325 
L 579.924375 409.5325 
L 586.899375 409.5325 
L 586.899375 409.5325 
L 593.874375 409.5325 
L 593.874375 409.5325 
L 600.849375 409.5325 
L 600.849375 409.5325 
L 607.824375 409.5325 
L 607.824375 409.5325 
L 614.799375 409.5325 
L 614.799375 409.5325 
L 621.774375 409.5325 
L 621.774375 409.5325 
L 628.749375 409.5325 
L 628.749375 409.5325 
L 635.724375 409.5325 
L 635.724375 409.5325 
L 642.699375 409.5325 
L 642.699375 409.5325 
L 649.674375 409.5325 
L 649.674375 409.5325 
L 656.649375 409.5325 
L 656.649375 409.5325 
L 663.624375 409.5325 
L 663.624375 409.5325 
L 670.599375 409.5325 
L 670.599375 409.5325 
L 677.574375 409.5325 
L 677.574375 409.5325 
L 684.549375 409.5325 
L 684.549375 409.5325 
L 691.524375 409.5325 
L 691.524375 409.5325 
L 698.499375 409.5325 
L 698.499375 409.5325 
L 705.474375 409.5325 
L 705.474375 409.5325 
L 712.449375 409.5325 
L 712.449375 409.5325 
L 719.424375 409.5325 
L 719.424375 409.5325 
L 726.399375 409.5325 
L 726.399375 409.5325 
L 733.374375 409.5325 
L 733.374375 409.5325 
L 740.349375 409.5325 
L 740.349375 409.5325 
L 747.324375 409.5325 
L 747.324375 409.5325 
L 754.299375 409.5325 
L 754.299375 409.5325 
L 761.274375 409.5325 
L 761.274375 409.5325 
L 768.249375 409.5325 
L 768.249375 409.5325 
L 775.224375 409.5325 
L 775.224375 409.5325 
L 782.199375 409.5325 
L 782.199375 409.5325 
L 789.174375 409.5325 
L 789.174375 409.5325 
L 796.149375 409.5325 
L 796.149375 409.5325 
L 803.124375 409.5325 
L 803.124375 409.5325 
L 810.099375 409.5325 
L 810.099375 409.5325 
L 817.074375 409.5325 
L 817.074375 409.5325 
L 824.049375 409.5325 
L 824.049375 409.5325 
L 831.024375 409.5325 
L 831.024375 405.166235 
L 837.999375 405.166235 
L 837.999375 409.5325 
L 844.974375 409.5325 
L 844.974375 409.5325 
L 851.949375 409.5325 
L 851.949375 409.5325 
L 858.924375 409.5325 
L 858.924375 409.5325 
L 865.899375 409.5325 
L 865.899375 409.5325 
L 872.874375 409.5325 
L 872.874375 409.5325 
L 865.899375 409.5325 
L 865.899375 409.5325 
L 858.924375 409.5325 
L 858.924375 409.5325 
L 851.949375 409.5325 
L 851.949375 409.5325 
L 844.974375 409.5325 
L 844.974375 409.5325 
L 837.999375 409.5325 
L 837.999375 409.5325 
L 831.024375 409.5325 
L 831.024375 409.5325 
L 824.049375 409.5325 
L 824.049375 409.5325 
L 817.074375 409.5325 
L 817.074375 409.5325 
L 810.099375 409.5325 
L 810.099375 409.5325 
L 803.124375 409.5325 
L 803.124375 409.5325 
L 796.149375 409.5325 
L 796.149375 409.5325 
L 789.174375 409.5325 
L 789.174375 409.5325 
L 782.199375 409.5325 
L 782.199375 409.5325 
L 775.224375 409.5325 
L 775.224375 409.5325 
L 768.249375 409.5325 
L 768.249375 409.5325 
L 761.274375 409.5325 
L 761.274375 409.5325 
L 754.299375 409.5325 
L 754.299375 409.5325 
L 747.324375 409.5325 
L 747.324375 409.5325 
L 740.349375 409.5325 
L 740.349375 409.5325 
L 733.374375 409.5325 
L 733.374375 409.5325 
L 726.399375 409.5325 
L 726.399375 409.5325 
L 719.424375 409.5325 
L 719.424375 409.5325 
L 712.449375 409.5325 
L 712.449375 409.5325 
L 705.474375 409.5325 
L 705.474375 409.5325 
L 698.499375 409.5325 
L 698.499375 409.5325 
L 691.524375 409.5325 
L 691.524375 409.5325 
L 684.549375 409.5325 
L 684.549375 409.5325 
L 677.574375 409.5325 
L 677.574375 409.5325 
L 670.599375 409.5325 
L 670.599375 409.5325 
L 663.624375 409.5325 
L 663.624375 409.5325 
L 656.649375 409.5325 
L 656.649375 409.5325 
L 649.674375 409.5325 
L 649.674375 409.5325 
L 642.699375 409.5325 
L 642.699375 409.5325 
L 635.724375 409.5325 
L 635.724375 409.5325 
L 628.749375 409.5325 
L 628.749375 409.5325 
L 621.774375 409.5325 
L 621.774375 409.5325 
L 614.799375 409.5325 
L 614.799375 409.5325 
L 607.824375 409.5325 
L 607.824375 409.5325 
L 600.849375 409.5325 
L 600.849375 409.5325 
L 593.874375 409.5325 
L 593.874375 409.5325 
L 586.899375 409.5325 
L 586.899375 409.5325 
L 579.924375 409.5325 
L 579.924375 409.5325 
L 572.949375 409.5325 
L 572.949375 409.5325 
L 565.974375 409.5325 
L 565.974375 409.5325 
L 558.999375 409.5325 
L 558.999375 409.5325 
L 552.024375 409.5325 
L 552.024375 409.5325 
L 545.049375 409.5325 
L 545.049375 409.5325 
L 538.074375 409.5325 
L 538.074375 409.5325 
L 531.099375 409.5325 
L 531.099375 409.5325 
L 524.124375 409.5325 
L 524.124375 409.5325 
L 517.149375 409.5325 
L 517.149375 409.5325 
L 510.174375 409.5325 
L 510.174375 409.5325 
L 503.199375 409.5325 
L 503.199375 409.5325 
L 496.224375 409.5325 
L 496.224375 409.5325 
L 489.249375 409.5325 
L 489.249375 409.5325 
L 482.274375 409.5325 
L 482.274375 409.5325 
L 475.299375 409.5325 
L 475.299375 409.5325 
L 468.324375 409.5325 
L 468.324375 409.5325 
L 461.349375 409.5325 
L 461.349375 409.5325 
L 454.374375 409.5325 
L 454.374375 409.5325 
L 447.399375 409.5325 
L 447.399375 409.5325 
L 440.424375 409.5325 
L 440.424375 409.5325 
L 433.449375 409.5325 
L 433.449375 409.5325 
L 426.474375 409.5325 
L 426.474375 409.5325 
L 419.499375 409.5325 
L 419.499375 409.5325 
L 412.524375 409.5325 
L 412.524375 409.5325 
L 405.549375 409.5325 
L 405.549375 409.5325 
L 398.574375 409.5325 
L 398.574375 409.5325 
L 391.599375 409.5325 
L 391.599375 409.5325 
L 384.624375 409.5325 
L 384.624375 409.5325 
L 377.649375 409.5325 
L 377.649375 409.5325 
L 370.674375 409.5325 
L 370.674375 409.5325 
L 363.699375 409.5325 
L 363.699375 409.5325 
L 356.724375 409.5325 
L 356.724375 409.5325 
L 349.749375 409.5325 
L 349.749375 409.5325 
L 342.774375 409.5325 
L 342.774375 409.5325 
L 335.799375 409.5325 
L 335.799375 409.5325 
L 328.824375 409.5325 
L 328.824375 409.5325 
L 321.849375 409.5325 
L 321.849375 409.5325 
L 314.874375 409.5325 
L 314.874375 409.5325 
L 307.899375 409.5325 
L 307.899375 409.5325 
L 300.924375 409.5325 
L 300.924375 409.5325 
L 293.949375 409.5325 
L 293.949375 409.5325 
L 286.974375 409.5325 
L 286.974375 409.5325 
L 279.999375 409.5325 
L 279.999375 409.5325 
L 273.024375 409.5325 
L 273.024375 409.5325 
L 266.049375 409.5325 
L 266.049375 409.5325 
L 259.074375 409.5325 
L 259.074375 409.5325 
L 252.099375 409.5325 
L 252.099375 409.5325 
L 245.124375 409.5325 
L 245.124375 409.5325 
L 238.149375 409.5325 
L 238.149375 409.5325 
L 231.174375 409.5325 
L 231.174375 409.5325 
L 224.199375 409.5325 
L 224.199375 409.5325 
L 217.224375 409.5325 
L 217.224375 409.5325 
L 210.249375 409.5325 
L 210.249375 409.5325 
L 203.274375 409.5325 
L 203.274375 409.5325 
L 196.299375 409.5325 
L 196.299375 409.5325 
L 189.324375 409.5325 
L 189.324375 409.5325 
L 182.349375 409.5325 
L 182.349375 409.5325 
L 175.374375 409.5325 
L 175.374375 409.5325 
L 168.399375 409.5325 
L 168.399375 409.5325 
L 161.424375 409.5325 
L 161.424375 409.5325 
L 154.449375 409.5325 
L 154.449375 409.5325 
L 147.474375 409.5325 
L 147.474375 409.5325 
L 140.499375 409.5325 
L 140.499375 409.5325 
L 133.524375 409.5325 
L 133.524375 409.5325 
L 126.549375 409.5325 
L 126.549375 409.5325 
L 119.574375 409.5325 
L 119.574375 409.5325 
L 112.599375 409.5325 
L 112.599375 409.5325 
L 105.624375 409.5325 
L 105.624375 409.5325 
L 98.649375 409.5325 
L 98.649375 409.5325 
L 91.674375 409.5325 
L 91.674375 409.5325 
L 84.699375 409.5325 
L 84.699375 409.5325 
L 77.724375 409.5325 
L 77.724375 409.5325 
L 70.749375 409.5325 
L 70.749375 409.5325 
L 63.774375 409.5325 
L 63.774375 409.5325 
L 56.799375 409.5325 
L 56.799375 409.5325 
L 49.824375 409.5325 
L 49.824375 409.5325 
z
" style="fill:#1f77b4;opacity:0.7;"/>
   </g>
   <g id="patch_4">
    <path clip-path="url(#p62eca0325e)" d="M 42.849375 409.5325 
L 42.849375 409.5325 
L 49.824375 409.5325 
L 49.824375 409.5325 
L 56.799375 409.5325 
L 56.799375 409.5325 
L 63.774375 409.5325 
L 63.774375 409.5325 
L 70.749375 409.5325 
L 70.749375 409.5325 
L 77.724375 409.5325 
L 77.724375 409.5325 
L 84.699375 409.5325 
L 84.699375 409.5325 
L 91.674375 409.5325 
L 91.674375 409.5325 
L 98.649375 409.5325 
L 98.649375 409.5325 
L 105.624375 409.5325 
L 105.624375 409.5325 
L 112.599375 409.5325 
L 112.599375 409.5325 
L 119.574375 409.5325 
L 119.574375 409.5325 
L 126.549375 409.5325 
L 126.549375 409.5325 
L 133.524375 409.5325 
L 133.524375 409.5325 
L 140.499375 409.5325 
L 140.499375 409.5325 
L 147.474375 409.5325 
L 147.474375 409.5325 
L 154.449375 409.5325 
L 154.449375 409.5325 
L 161.424375 409.5325 
L 161.424375 409.5325 
L 168.399375 409.5325 
L 168.399375 405.166235 
L 175.374375 405.166235 
L 175.374375 405.166235 
L 182.349375 405.166235 
L 182.349375 396.433705 
L 189.324375 396.433705 
L 189.324375 409.5325 
L 196.299375 409.5325 
L 196.299375 409.5325 
L 203.274375 409.5325 
L 203.274375 409.5325 
L 210.249375 409.5325 
L 210.249375 409.5325 
L 217.224375 409.5325 
L 217.224375 409.5325 
L 224.199375 409.5325 
L 224.199375 409.5325 
L 231.174375 409.5325 
L 231.174375 317.840934 
L 238.149375 317.840934 
L 238.149375 138.824066 
L 245.124375 138.824066 
L 245.124375 47.1325 
L 252.099375 47.1325 
L 252.099375 208.684307 
L 259.074375 208.684307 
L 259.074375 344.038524 
L 266.049375 344.038524 
L 266.049375 392.06744 
L 273.024375 392.06744 
L 273.024375 396.433705 
L 279.999375 396.433705 
L 279.999375 396.433705 
L 286.974375 396.433705 
L 286.974375 405.166235 
L 293.949375 405.166235 
L 293.949375 405.166235 
L 300.924375 405.166235 
L 300.924375 409.5325 
L 307.899375 409.5325 
L 307.899375 409.5325 
L 314.874375 409.5325 
L 314.874375 405.166235 
L 321.849375 405.166235 
L 321.849375 409.5325 
L 328.824375 409.5325 
L 328.824375 405.166235 
L 335.799375 405.166235 
L 335.799375 409.5325 
L 342.774375 409.5325 
L 342.774375 405.166235 
L 349.749375 405.166235 
L 349.749375 409.5325 
L 356.724375 409.5325 
L 356.724375 409.5325 
L 363.699375 409.5325 
L 363.699375 409.5325 
L 370.674375 409.5325 
L 370.674375 409.5325 
L 377.649375 409.5325 
L 377.649375 409.5325 
L 384.624375 409.5325 
L 384.624375 409.5325 
L 391.599375 409.5325 
L 391.599375 409.5325 
L 398.574375 409.5325 
L 398.574375 409.5325 
L 405.549375 409.5325 
L 405.549375 409.5325 
L 412.524375 409.5325 
L 412.524375 409.5325 
L 419.499375 409.5325 
L 419.499375 409.5325 
L 426.474375 409.5325 
L 426.474375 409.5325 
L 433.449375 409.5325 
L 433.449375 409.5325 
L 440.424375 409.5325 
L 440.424375 409.5325 
L 447.399375 409.5325 
L 447.399375 409.5325 
L 454.374375 409.5325 
L 454.374375 409.5325 
L 461.349375 409.5325 
L 461.349375 409.5325 
L 468.324375 409.5325 
L 468.324375 409.5325 
L 475.299375 409.5325 
L 475.299375 409.5325 
L 482.274375 409.5325 
L 482.274375 409.5325 
L 489.249375 409.5325 
L 489.249375 409.5325 
L 496.224375 409.5325 
L 496.224375 409.5325 
L 503.199375 409.5325 
L 503.199375 409.5325 
L 510.174375 409.5325 
L 510.174375 409.5325 
L 517.149375 409.5325 
L 517.149375 409.5325 
L 524.124375 409.5325 
L 524.124375 409.5325 
L 531.099375 409.5325 
L 531.099375 409.5325 
L 538.074375 409.5325 
L 538.074375 409.5325 
L 545.049375 409.5325 
L 545.049375 409.5325 
L 552.024375 409.5325 
L 552.024375 409.5325 
L 558.999375 409.5325 
L 558.999375 409.5325 
L 565.974375 409.5325 
L 565.974375 409.5325 
L 572.949375 409.5325 
L 572.949375 409.5325 
L 579.924375 409.5325 
L 579.924375 409.5325 
L 586.899375 409.5325 
L 586.899375 409.5325 
L 593.874375 409.5325 
L 593.874375 409.5325 
L 600.849375 409.5325 
L 600.849375 409.5325 
L 607.824375 409.5325 
L 607.824375 409.5325 
L 614.799375 409.5325 
L 614.799375 409.5325 
L 621.774375 409.5325 
L 621.774375 409.5325 
L 628.749375 409.5325 
L 628.749375 409.5325 
L 635.724375 409.5325 
L 635.724375 409.5325 
L 642.699375 409.5325 
L 642.699375 409.5325 
L 649.674375 409.5325 
L 649.674375 409.5325 
L 656.649375 409.5325 
L 656.649375 409.5325 
L 663.624375 409.5325 
L 663.624375 409.5325 
L 670.599375 409.5325 
L 670.599375 409.5325 
L 677.574375 409.5325 
L 677.574375 409.5325 
L 684.549375 409.5325 
L 684.549375 409.5325 
L 691.524375 409.5325 
L 691.524375 409.5325 
L 698.499375 409.5325 
L 698.499375 409.5325 
L 705.474375 409.5325 
L 705.474375 409.5325 
L 712.449375 409.5325 
L 712.449375 409.5325 
L 719.424375 409.5325 
L 719.424375 409.5325 
L 726.399375 409.5325 
L 726.399375 409.5325 
L 733.374375 409.5325 
L 733.374375 409.5325 
L 740.349375 409.5325 
L 740.349375 409.5325 
L 747.324375 409.5325 
L 747.324375 409.5325 
L 754.299375 409.5325 
L 754.299375 409.5325 
L 761.274375 409.5325 
L 761.274375 409.5325 
L 768.249375 409.5325 
L 768.249375 409.5325 
L 775.224375 409.5325 
L 775.224375 409.5325 
L 782.199375 409.5325 
L 782.199375 409.5325 
L 789.174375 409.5325 
L 789.174375 409.5325 
L 796.149375 409.5325 
L 796.149375 409.5325 
L 803.124375 409.5325 
L 803.124375 405.166235 
L 810.099375 405.166235 
L 810.099375 409.5325 
L 817.074375 409.5325 
L 817.074375 409.5325 
L 824.049375 409.5325 
L 824.049375 409.5325 
L 831.024375 409.5325 
L 831.024375 409.5325 
L 837.999375 409.5325 
L 837.999375 409.5325 
L 844.974375 409.5325 
L 844.974375 409.5325 
L 851.949375 409.5325 
L 851.949375 409.5325 
L 858.924375 409.5325 
L 858.924375 409.5325 
L 865.899375 409.5325 
L 865.899375 409.5325 
L 872.874375 409.5325 
L 872.874375 409.5325 
L 865.899375 409.5325 
L 865.899375 409.5325 
L 858.924375 409.5325 
L 858.924375 409.5325 
L 851.949375 409.5325 
L 851.949375 409.5325 
L 844.974375 409.5325 
L 844.974375 409.5325 
L 837.999375 409.5325 
L 837.999375 409.5325 
L 831.024375 409.5325 
L 831.024375 409.5325 
L 824.049375 409.5325 
L 824.049375 409.5325 
L 817.074375 409.5325 
L 817.074375 409.5325 
L 810.099375 409.5325 
L 810.099375 409.5325 
L 803.124375 409.5325 
L 803.124375 409.5325 
L 796.149375 409.5325 
L 796.149375 409.5325 
L 789.174375 409.5325 
L 789.174375 409.5325 
L 782.199375 409.5325 
L 782.199375 409.5325 
L 775.224375 409.5325 
L 775.224375 409.5325 
L 768.249375 409.5325 
L 768.249375 409.5325 
L 761.274375 409.5325 
L 761.274375 409.5325 
L 754.299375 409.5325 
L 754.299375 409.5325 
L 747.324375 409.5325 
L 747.324375 409.5325 
L 740.349375 409.5325 
L 740.349375 409.5325 
L 733.374375 409.5325 
L 733.374375 409.5325 
L 726.399375 409.5325 
L 726.399375 409.5325 
L 719.424375 409.5325 
L 719.424375 409.5325 
L 712.449375 409.5325 
L 712.449375 409.5325 
L 705.474375 409.5325 
L 705.474375 409.5325 
L 698.499375 409.5325 
L 698.499375 409.5325 
L 691.524375 409.5325 
L 691.524375 409.5325 
L 684.549375 409.5325 
L 684.549375 409.5325 
L 677.574375 409.5325 
L 677.574375 409.5325 
L 670.599375 409.5325 
L 670.599375 409.5325 
L 663.624375 409.5325 
L 663.624375 409.5325 
L 656.649375 409.5325 
L 656.649375 409.5325 
L 649.674375 409.5325 
L 649.674375 409.5325 
L 642.699375 409.5325 
L 642.699375 409.5325 
L 635.724375 409.5325 
L 635.724375 409.5325 
L 628.749375 409.5325 
L 628.749375 409.5325 
L 621.774375 409.5325 
L 621.774375 409.5325 
L 614.799375 409.5325 
L 614.799375 409.5325 
L 607.824375 409.5325 
L 607.824375 409.5325 
L 600.849375 409.5325 
L 600.849375 409.5325 
L 593.874375 409.5325 
L 593.874375 409.5325 
L 586.899375 409.5325 
L 586.899375 409.5325 
L 579.924375 409.5325 
L 579.924375 409.5325 
L 572.949375 409.5325 
L 572.949375 409.5325 
L 565.974375 409.5325 
L 565.974375 409.5325 
L 558.999375 409.5325 
L 558.999375 409.5325 
L 552.024375 409.5325 
L 552.024375 409.5325 
L 545.049375 409.5325 
L 545.049375 409.5325 
L 538.074375 409.5325 
L 538.074375 409.5325 
L 531.099375 409.5325 
L 531.099375 409.5325 
L 524.124375 409.5325 
L 524.124375 409.5325 
L 517.149375 409.5325 
L 517.149375 409.5325 
L 510.174375 409.5325 
L 510.174375 409.5325 
L 503.199375 409.5325 
L 503.199375 409.5325 
L 496.224375 409.5325 
L 496.224375 409.5325 
L 489.249375 409.5325 
L 489.249375 409.5325 
L 482.274375 409.5325 
L 482.274375 409.5325 
L 475.299375 409.5325 
L 475.299375 409.5325 
L 468.324375 409.5325 
L 468.324375 409.5325 
L 461.349375 409.5325 
L 461.349375 409.5325 
L 454.374375 409.5325 
L 454.374375 409.5325 
L 447.399375 409.5325 
L 447.399375 409.5325 
L 440.424375 409.5325 
L 440.424375 409.5325 
L 433.449375 409.5325 
L 433.449375 409.5325 
L 426.474375 409.5325 
L 426.474375 409.5325 
L 419.499375 409.5325 
L 419.499375 409.5325 
L 412.524375 409.5325 
L 412.524375 409.5325 
L 405.549375 409.5325 
L 405.549375 409.5325 
L 398.574375 409.5325 
L 398.574375 409.5325 
L 391.599375 409.5325 
L 391.599375 409.5325 
L 384.624375 409.5325 
L 384.624375 409.5325 
L 377.649375 409.5325 
L 377.649375 409.5325 
L 370.674375 409.5325 
L 370.674375 409.5325 
L 363.699375 409.5325 
L 363.699375 409.5325 
L 356.724375 409.5325 
L 356.724375 409.5325 
L 349.749375 409.5325 
L 349.749375 409.5325 
L 342.774375 409.5325 
L 342.774375 409.5325 
L 335.799375 409.5325 
L 335.799375 409.5325 
L 328.824375 409.5325 
L 328.824375 409.5325 
L 321.849375 409.5325 
L 321.849375 409.5325 
L 314.874375 409.5325 
L 314.874375 409.5325 
L 307.899375 409.5325 
L 307.899375 409.5325 
L 300.924375 409.5325 
L 300.924375 409.5325 
L 293.949375 409.5325 
L 293.949375 409.5325 
L 286.974375 409.5325 
L 286.974375 409.5325 
L 279.999375 409.5325 
L 279.999375 409.5325 
L 273.024375 409.5325 
L 273.024375 409.5325 
L 266.049375 409.5325 
L 266.049375 409.5325 
L 259.074375 409.5325 
L 259.074375 409.5325 
L 252.099375 409.5325 
L 252.099375 409.5325 
L 245.124375 409.5325 
L 245.124375 409.5325 
L 238.149375 409.5325 
L 238.149375 409.5325 
L 231.174375 409.5325 
L 231.174375 409.5325 
L 224.199375 409.5325 
L 224.199375 409.5325 
L 217.224375 409.5325 
L 217.224375 409.5325 
L 210.249375 409.5325 
L 210.249375 409.5325 
L 203.274375 409.5325 
L 203.274375 409.5325 
L 196.299375 409.5325 
L 196.299375 409.5325 
L 189.324375 409.5325 
L 189.324375 409.5325 
L 182.349375 409.5325 
L 182.349375 409.5325 
L 175.374375 409.5325 
L 175.374375 409.5325 
L 168.399375 409.5325 
L 168.399375 409.5325 
L 161.424375 409.5325 
L 161.424375 409.5325 
L 154.449375 409.5325 
L 154.449375 409.5325 
L 147.474375 409.5325 
L 147.474375 409.5325 
L 140.499375 409.5325 
L 140.499375 409.5325 
L 133.524375 409.5325 
L 133.524375 409.5325 
L 126.549375 409.5325 
L 126.549375 409.5325 
L 119.574375 409.5325 
L 119.574375 409.5325 
L 112.599375 409.5325 
L 112.599375 409.5325 
L 105.624375 409.5325 
L 105.624375 409.5325 
L 98.649375 409.5325 
L 98.649375 409.5325 
L 91.674375 409.5325 
L 91.674375 409.5325 
L 84.699375 409.5325 
L 84.699375 409.5325 
L 77.724375 409.5325 
L 77.724375 409.5325 
L 70.749375 409.5325 
L 70.749375 409.5325 
L 63.774375 409.5325 
L 63.774375 409.5325 
L 56.799375 409.5325 
L 56.799375 409.5325 
L 49.824375 409.5325 
L 49.824375 409.5325 
z
" style="fill:#ff7f0e;opacity:0.7;"/>
   </g>
   <g id="patch_5">
    <path d="M 46.336875 409.5325 
L 46.336875 29.0125 
" style="fill:none;stroke:#262626;stroke-linecap:square;stroke-linejoin:miter;stroke-width:1.25;"/>
   </g>
   <g id="patch_6">
    <path d="M 883.336875 409.5325 
L 883.336875 29.0125 
" style="fill:none;stroke:#262626;stroke-linecap:square;stroke-linejoin:miter;stroke-width:1.25;"/>
   </g>
   <g id="patch_7">
    <path d="M 46.336875 409.5325 
L 883.336875 409.5325 
" style="fill:none;stroke:#262626;stroke-linecap:square;stroke-linejoin:miter;stroke-width:1.25;"/>
   </g>
   <g id="patch_8">
    <path d="M 46.336875 29.0125 
L 883.336875 29.0125 
" style="fill:none;stroke:#262626;stroke-linecap:square;stroke-linejoin:miter;stroke-width:1.25;"/>
   </g>
   <g id="text_19">
    <!-- Raspberry Pi Reboot Times: Pi 2 vs Pi 3 -->
    <defs>
     <path d="M 40.4375 6.390625 
Q 35.546875 2.25 31.03125 0.53125 
Q 26.515625 -1.171875 21.34375 -1.171875 
Q 12.796875 -1.171875 8.203125 3 
Q 3.609375 7.171875 3.609375 13.671875 
Q 3.609375 17.484375 5.34375 20.625 
Q 7.078125 23.78125 9.890625 25.6875 
Q 12.703125 27.59375 16.21875 28.5625 
Q 18.796875 29.25 24.03125 29.890625 
Q 34.671875 31.15625 39.703125 32.90625 
Q 39.75 34.71875 39.75 35.203125 
Q 39.75 40.578125 37.25 42.78125 
Q 33.890625 45.75 27.25 45.75 
Q 21.046875 45.75 18.09375 43.578125 
Q 15.140625 41.40625 13.71875 35.890625 
L 5.125 37.0625 
Q 6.296875 42.578125 8.984375 45.96875 
Q 11.671875 49.359375 16.75 51.1875 
Q 21.828125 53.03125 28.515625 53.03125 
Q 35.15625 53.03125 39.296875 51.46875 
Q 43.453125 49.90625 45.40625 47.53125 
Q 47.359375 45.171875 48.140625 41.546875 
Q 48.578125 39.3125 48.578125 33.453125 
L 48.578125 21.734375 
Q 48.578125 9.46875 49.140625 6.21875 
Q 49.703125 2.984375 51.375 0 
L 42.1875 0 
Q 40.828125 2.734375 40.4375 6.390625 
z
M 39.703125 26.03125 
Q 34.90625 24.078125 25.34375 22.703125 
Q 19.921875 21.921875 17.671875 20.9375 
Q 15.4375 19.96875 14.203125 18.09375 
Q 12.984375 16.21875 12.984375 13.921875 
Q 12.984375 10.40625 15.640625 8.0625 
Q 18.3125 5.71875 23.4375 5.71875 
Q 28.515625 5.71875 32.46875 7.9375 
Q 36.421875 10.15625 38.28125 14.015625 
Q 39.703125 17 39.703125 22.796875 
z
" id="ArialMT-61"/>
     <path d="M 6.59375 -19.875 
L 6.59375 51.859375 
L 14.59375 51.859375 
L 14.59375 45.125 
Q 17.4375 49.078125 21 51.046875 
Q 24.5625 53.03125 29.640625 53.03125 
Q 36.28125 53.03125 41.359375 49.609375 
Q 46.4375 46.1875 49.015625 39.953125 
Q 51.609375 33.734375 51.609375 26.3125 
Q 51.609375 18.359375 48.75 11.984375 
Q 45.90625 5.609375 40.453125 2.21875 
Q 35.015625 -1.171875 29 -1.171875 
Q 24.609375 -1.171875 21.109375 0.6875 
Q 17.625 2.546875 15.375 5.375 
L 15.375 -19.875 
z
M 14.546875 25.640625 
Q 14.546875 15.625 18.59375 10.84375 
Q 22.65625 6.0625 28.421875 6.0625 
Q 34.28125 6.0625 38.453125 11.015625 
Q 42.625 15.96875 42.625 26.375 
Q 42.625 36.28125 38.546875 41.203125 
Q 34.46875 46.140625 28.8125 46.140625 
Q 23.1875 46.140625 18.859375 40.890625 
Q 14.546875 35.640625 14.546875 25.640625 
z
" id="ArialMT-70"/>
     <path d="M 6.5 0 
L 6.5 51.859375 
L 14.40625 51.859375 
L 14.40625 44 
Q 17.4375 49.515625 20 51.265625 
Q 22.5625 53.03125 25.640625 53.03125 
Q 30.078125 53.03125 34.671875 50.203125 
L 31.640625 42.046875 
Q 28.421875 43.953125 25.203125 43.953125 
Q 22.3125 43.953125 20.015625 42.21875 
Q 17.71875 40.484375 16.75 37.40625 
Q 15.28125 32.71875 15.28125 27.15625 
L 15.28125 0 
z
" id="ArialMT-72"/>
     <path d="M 6.203125 -19.96875 
L 5.21875 -11.71875 
Q 8.109375 -12.5 10.25 -12.5 
Q 13.1875 -12.5 14.9375 -11.515625 
Q 16.703125 -10.546875 17.828125 -8.796875 
Q 18.65625 -7.46875 20.515625 -2.25 
Q 20.75 -1.515625 21.296875 -0.09375 
L 1.609375 51.859375 
L 11.078125 51.859375 
L 21.875 21.828125 
Q 23.96875 16.109375 25.640625 9.8125 
Q 27.15625 15.875 29.25 21.625 
L 40.328125 51.859375 
L 49.125 51.859375 
L 29.390625 -0.875 
Q 26.21875 -9.421875 24.46875 -12.640625 
Q 22.125 -17 19.09375 -19.015625 
Q 16.0625 -21.046875 11.859375 -21.046875 
Q 9.328125 -21.046875 6.203125 -19.96875 
z
" id="ArialMT-79"/>
     <path d="M 7.71875 0 
L 7.71875 71.578125 
L 34.71875 71.578125 
Q 41.84375 71.578125 45.609375 70.90625 
Q 50.875 70.015625 54.4375 67.546875 
Q 58.015625 65.09375 60.1875 60.640625 
Q 62.359375 56.203125 62.359375 50.875 
Q 62.359375 41.75 56.546875 35.421875 
Q 50.734375 29.109375 35.546875 29.109375 
L 17.1875 29.109375 
L 17.1875 0 
z
M 17.1875 37.546875 
L 35.6875 37.546875 
Q 44.875 37.546875 48.734375 40.96875 
Q 52.59375 44.390625 52.59375 50.59375 
Q 52.59375 55.078125 50.3125 58.265625 
Q 48.046875 61.46875 44.34375 62.5 
Q 41.9375 63.140625 35.5 63.140625 
L 17.1875 63.140625 
z
" id="ArialMT-50"/>
     <path d="M 9.03125 41.84375 
L 9.03125 51.859375 
L 19.046875 51.859375 
L 19.046875 41.84375 
z
M 9.03125 0 
L 9.03125 10.015625 
L 19.046875 10.015625 
L 19.046875 0 
z
" id="ArialMT-3a"/>
     <path d="M 21 0 
L 1.265625 51.859375 
L 10.546875 51.859375 
L 21.6875 20.796875 
Q 23.484375 15.765625 25 10.359375 
Q 26.171875 14.453125 28.265625 20.21875 
L 39.796875 51.859375 
L 48.828125 51.859375 
L 29.203125 0 
z
" id="ArialMT-76"/>
    </defs>
    <g style="fill:#262626;" transform="translate(268.614063 23.0125)scale(0.22 -0.22)">
     <use xlink:href="#ArialMT-52"/>
     <use x="72.216797" xlink:href="#ArialMT-61"/>
     <use x="127.832031" xlink:href="#ArialMT-73"/>
     <use x="177.832031" xlink:href="#ArialMT-70"/>
     <use x="233.447266" xlink:href="#ArialMT-62"/>
     <use x="289.0625" xlink:href="#ArialMT-65"/>
     <use x="344.677734" xlink:href="#ArialMT-72"/>
     <use x="377.978516" xlink:href="#ArialMT-72"/>
     <use x="411.279297" xlink:href="#ArialMT-79"/>
     <use x="461.279297" xlink:href="#ArialMT-20"/>
     <use x="489.0625" xlink:href="#ArialMT-50"/>
     <use x="555.761719" xlink:href="#ArialMT-69"/>
     <use x="577.978516" xlink:href="#ArialMT-20"/>
     <use x="605.761719" xlink:href="#ArialMT-52"/>
     <use x="677.978516" xlink:href="#ArialMT-65"/>
     <use x="733.59375" xlink:href="#ArialMT-62"/>
     <use x="789.208984" xlink:href="#ArialMT-6f"/>
     <use x="844.824219" xlink:href="#ArialMT-6f"/>
     <use x="900.439453" xlink:href="#ArialMT-74"/>
     <use x="928.222656" xlink:href="#ArialMT-20"/>
     <use x="955.990234" xlink:href="#ArialMT-54"/>
     <use x="1017.027344" xlink:href="#ArialMT-69"/>
     <use x="1039.244141" xlink:href="#ArialMT-6d"/>
     <use x="1122.544922" xlink:href="#ArialMT-65"/>
     <use x="1178.160156" xlink:href="#ArialMT-73"/>
     <use x="1228.160156" xlink:href="#ArialMT-3a"/>
     <use x="1255.943359" xlink:href="#ArialMT-20"/>
     <use x="1283.726562" xlink:href="#ArialMT-50"/>
     <use x="1350.425781" xlink:href="#ArialMT-69"/>
     <use x="1372.642578" xlink:href="#ArialMT-20"/>
     <use x="1400.425781" xlink:href="#ArialMT-32"/>
     <use x="1456.041016" xlink:href="#ArialMT-20"/>
     <use x="1483.824219" xlink:href="#ArialMT-76"/>
     <use x="1533.824219" xlink:href="#ArialMT-73"/>
     <use x="1583.824219" xlink:href="#ArialMT-20"/>
     <use x="1611.607422" xlink:href="#ArialMT-50"/>
     <use x="1678.306641" xlink:href="#ArialMT-69"/>
     <use x="1700.523438" xlink:href="#ArialMT-20"/>
     <use x="1728.306641" xlink:href="#ArialMT-33"/>
    </g>
   </g>
   <g id="legend_1">
    <g id="patch_9">
     <path d="M 60.736875 54.865 
L 92.736875 54.865 
L 92.736875 43.665 
L 60.736875 43.665 
z
" style="fill:#1f77b4;opacity:0.7;"/>
    </g>
    <g id="text_20">
     <!-- Pi 2 -->
     <g style="fill:#262626;" transform="translate(105.536875 54.865)scale(0.16 -0.16)">
      <use xlink:href="#ArialMT-50"/>
      <use x="66.699219" xlink:href="#ArialMT-69"/>
      <use x="88.916016" xlink:href="#ArialMT-20"/>
      <use x="116.699219" xlink:href="#ArialMT-32"/>
     </g>
    </g>
    <g id="patch_10">
     <path d="M 60.736875 77.4975 
L 92.736875 77.4975 
L 92.736875 66.2975 
L 60.736875 66.2975 
z
" style="fill:#ff7f0e;opacity:0.7;"/>
    </g>
    <g id="text_21">
     <!-- Pi 3 -->
     <g style="fill:#262626;" transform="translate(105.536875 77.4975)scale(0.16 -0.16)">
      <use xlink:href="#ArialMT-50"/>
      <use x="66.699219" xlink:href="#ArialMT-69"/>
      <use x="88.916016" xlink:href="#ArialMT-20"/>
      <use x="116.699219" xlink:href="#ArialMT-33"/>
     </g>
    </g>
   </g>
  </g>
  <g id="axes_2">
   <g id="patch_11">
    <path d="M 439.726875 333.4285 
L 850.936875 333.4285 
L 850.936875 80.1685 
L 439.726875 80.1685 
z
" style="fill:none;opacity:0;"/>
   </g>
   <g id="matplotlib.axis_3">
    <g id="xtick_8">
     <g id="line2d_17"/>
     <g id="text_22">
      <!-- 26 -->
      <g style="fill:#262626;" transform="translate(474.17475 345.517875)scale(0.12 -0.12)">
       <use xlink:href="#ArialMT-32"/>
       <use x="55.615234" xlink:href="#ArialMT-36"/>
      </g>
     </g>
    </g>
    <g id="xtick_9">
     <g id="line2d_18"/>
     <g id="text_23">
      <!-- 28 -->
      <g style="fill:#262626;" transform="translate(556.41675 345.517875)scale(0.12 -0.12)">
       <use xlink:href="#ArialMT-32"/>
       <use x="55.615234" xlink:href="#ArialMT-38"/>
      </g>
     </g>
    </g>
    <g id="xtick_10">
     <g id="line2d_19"/>
     <g id="text_24">
      <!-- 30 -->
      <g style="fill:#262626;" transform="translate(638.65875 345.517875)scale(0.12 -0.12)">
       <use xlink:href="#ArialMT-33"/>
       <use x="55.615234" xlink:href="#ArialMT-30"/>
      </g>
     </g>
    </g>
    <g id="xtick_11">
     <g id="line2d_20"/>
     <g id="text_25">
      <!-- 32 -->
      <g style="fill:#262626;" transform="translate(720.90075 345.517875)scale(0.12 -0.12)">
       <use xlink:href="#ArialMT-33"/>
       <use x="55.615234" xlink:href="#ArialMT-32"/>
      </g>
     </g>
    </g>
    <g id="xtick_12">
     <g id="line2d_21"/>
     <g id="text_26">
      <!-- 34 -->
      <g style="fill:#262626;" transform="translate(803.14275 345.517875)scale(0.12 -0.12)">
       <use xlink:href="#ArialMT-33"/>
       <use x="55.615234" xlink:href="#ArialMT-34"/>
      </g>
     </g>
    </g>
   </g>
   <g id="matplotlib.axis_4">
    <g id="ytick_10">
     <g id="line2d_22"/>
     <g id="text_27">
      <!-- 0.00 -->
      <defs>
       <path d="M 9.078125 0 
L 9.078125 10.015625 
L 19.09375 10.015625 
L 19.09375 0 
z
" id="ArialMT-2e"/>
      </defs>
      <g style="fill:#262626;" transform="translate(412.87375 337.723187)scale(0.12 -0.12)">
       <use xlink:href="#ArialMT-30"/>
       <use x="55.615234" xlink:href="#ArialMT-2e"/>
       <use x="83.398438" xlink:href="#ArialMT-30"/>
       <use x="139.013672" xlink:href="#ArialMT-30"/>
      </g>
     </g>
    </g>
    <g id="ytick_11">
     <g id="line2d_23"/>
     <g id="text_28">
      <!-- 0.05 -->
      <g style="fill:#262626;" transform="translate(412.87375 303.498863)scale(0.12 -0.12)">
       <use xlink:href="#ArialMT-30"/>
       <use x="55.615234" xlink:href="#ArialMT-2e"/>
       <use x="83.398438" xlink:href="#ArialMT-30"/>
       <use x="139.013672" xlink:href="#ArialMT-35"/>
      </g>
     </g>
    </g>
    <g id="ytick_12">
     <g id="line2d_24"/>
     <g id="text_29">
      <!-- 0.10 -->
      <g style="fill:#262626;" transform="translate(412.87375 269.274539)scale(0.12 -0.12)">
       <use xlink:href="#ArialMT-30"/>
       <use x="55.615234" xlink:href="#ArialMT-2e"/>
       <use x="83.398438" xlink:href="#ArialMT-31"/>
       <use x="139.013672" xlink:href="#ArialMT-30"/>
      </g>
     </g>
    </g>
    <g id="ytick_13">
     <g id="line2d_25"/>
     <g id="text_30">
      <!-- 0.15 -->
      <g style="fill:#262626;" transform="translate(412.87375 235.050215)scale(0.12 -0.12)">
       <use xlink:href="#ArialMT-30"/>
       <use x="55.615234" xlink:href="#ArialMT-2e"/>
       <use x="83.398438" xlink:href="#ArialMT-31"/>
       <use x="139.013672" xlink:href="#ArialMT-35"/>
      </g>
     </g>
    </g>
    <g id="ytick_14">
     <g id="line2d_26"/>
     <g id="text_31">
      <!-- 0.20 -->
      <g style="fill:#262626;" transform="translate(412.87375 200.82589)scale(0.12 -0.12)">
       <use xlink:href="#ArialMT-30"/>
       <use x="55.615234" xlink:href="#ArialMT-2e"/>
       <use x="83.398438" xlink:href="#ArialMT-32"/>
       <use x="139.013672" xlink:href="#ArialMT-30"/>
      </g>
     </g>
    </g>
    <g id="ytick_15">
     <g id="line2d_27"/>
     <g id="text_32">
      <!-- 0.25 -->
      <g style="fill:#262626;" transform="translate(412.87375 166.601566)scale(0.12 -0.12)">
       <use xlink:href="#ArialMT-30"/>
       <use x="55.615234" xlink:href="#ArialMT-2e"/>
       <use x="83.398438" xlink:href="#ArialMT-32"/>
       <use x="139.013672" xlink:href="#ArialMT-35"/>
      </g>
     </g>
    </g>
    <g id="ytick_16">
     <g id="line2d_28"/>
     <g id="text_33">
      <!-- 0.30 -->
      <g style="fill:#262626;" transform="translate(412.87375 132.377242)scale(0.12 -0.12)">
       <use xlink:href="#ArialMT-30"/>
       <use x="55.615234" xlink:href="#ArialMT-2e"/>
       <use x="83.398438" xlink:href="#ArialMT-33"/>
       <use x="139.013672" xlink:href="#ArialMT-30"/>
      </g>
     </g>
    </g>
    <g id="ytick_17">
     <g id="line2d_29"/>
     <g id="text_34">
      <!-- 0.35 -->
      <g style="fill:#262626;" transform="translate(412.87375 98.152917)scale(0.12 -0.12)">
       <use xlink:href="#ArialMT-30"/>
       <use x="55.615234" xlink:href="#ArialMT-2e"/>
       <use x="83.398438" xlink:href="#ArialMT-33"/>
       <use x="139.013672" xlink:href="#ArialMT-35"/>
      </g>
     </g>
    </g>
   </g>
   <g id="PolyCollection_1">
    <path clip-path="url(#p744985300d)" d="M 252.064227 333.383862 
L 252.064227 333.4285 
L 258.904994 333.4285 
L 265.74576 333.4285 
L 272.586526 333.4285 
L 279.427292 333.4285 
L 286.268058 333.4285 
L 293.108824 333.4285 
L 299.94959 333.4285 
L 306.790356 333.4285 
L 313.631122 333.4285 
L 320.471889 333.4285 
L 327.312655 333.4285 
L 334.153421 333.4285 
L 340.994187 333.4285 
L 347.834953 333.4285 
L 354.675719 333.4285 
L 361.516485 333.4285 
L 368.357251 333.4285 
L 375.198017 333.4285 
L 382.038783 333.4285 
L 388.87955 333.4285 
L 395.720316 333.4285 
L 402.561082 333.4285 
L 409.401848 333.4285 
L 416.242614 333.4285 
L 423.08338 333.4285 
L 429.924146 333.4285 
L 436.764912 333.4285 
L 443.605678 333.4285 
L 450.446444 333.4285 
L 457.287211 333.4285 
L 464.127977 333.4285 
L 470.968743 333.4285 
L 477.809509 333.4285 
L 484.650275 333.4285 
L 491.491041 333.4285 
L 498.331807 333.4285 
L 505.172573 333.4285 
L 512.013339 333.4285 
L 518.854105 333.4285 
L 525.694872 333.4285 
L 532.535638 333.4285 
L 539.376404 333.4285 
L 546.21717 333.4285 
L 553.057936 333.4285 
L 559.898702 333.4285 
L 566.739468 333.4285 
L 573.580234 333.4285 
L 580.421 333.4285 
L 587.261767 333.4285 
L 594.102533 333.4285 
L 600.943299 333.4285 
L 607.784065 333.4285 
L 614.624831 333.4285 
L 621.465597 333.4285 
L 628.306363 333.4285 
L 635.147129 333.4285 
L 641.987895 333.4285 
L 648.828661 333.4285 
L 655.669428 333.4285 
L 662.510194 333.4285 
L 669.35096 333.4285 
L 676.191726 333.4285 
L 683.032492 333.4285 
L 689.873258 333.4285 
L 696.714024 333.4285 
L 703.55479 333.4285 
L 710.395556 333.4285 
L 717.236322 333.4285 
L 724.077089 333.4285 
L 730.917855 333.4285 
L 737.758621 333.4285 
L 744.599387 333.4285 
L 751.440153 333.4285 
L 758.280919 333.4285 
L 765.121685 333.4285 
L 771.962451 333.4285 
L 778.803217 333.4285 
L 785.643983 333.4285 
L 792.48475 333.4285 
L 799.325516 333.4285 
L 806.166282 333.4285 
L 813.007048 333.4285 
L 819.847814 333.4285 
L 826.68858 333.4285 
L 833.529346 333.4285 
L 840.370112 333.4285 
L 847.210878 333.4285 
L 854.051645 333.4285 
L 860.892411 333.4285 
L 867.733177 333.4285 
L 874.573943 333.4285 
L 881.414709 333.4285 
L 888.255475 333.4285 
L 895.096241 333.4285 
L 901.937007 333.4285 
L 908.777773 333.4285 
L 915.618539 333.4285 
L 922.459306 333.4285 
L 929.300072 333.4285 
L 936.140838 333.4285 
L 942.981604 333.4285 
L 949.82237 333.4285 
L 956.663136 333.4285 
L 963.503902 333.4285 
L 970.344668 333.4285 
L 977.185434 333.4285 
L 984.0262 333.4285 
L 990.866967 333.4285 
L 997.707733 333.4285 
L 1004.548499 333.4285 
L 1011.389265 333.4285 
L 1018.230031 333.4285 
L 1025.070797 333.4285 
L 1031.911563 333.4285 
L 1038.752329 333.4285 
L 1045.593095 333.4285 
L 1052.433861 333.4285 
L 1059.274628 333.4285 
L 1066.115394 333.4285 
L 1072.95616 333.4285 
L 1079.796926 333.4285 
L 1086.637692 333.4285 
L 1093.478458 333.4285 
L 1100.319224 333.4285 
L 1107.15999 333.4285 
L 1114.000756 333.4285 
L 1120.841523 333.4285 
L 1120.841523 333.367808 
L 1120.841523 333.367808 
L 1114.000756 333.300985 
L 1107.15999 333.154252 
L 1100.319224 332.884605 
L 1093.478458 332.449774 
L 1086.637692 331.834046 
L 1079.796926 331.077496 
L 1072.95616 330.290937 
L 1066.115394 329.63831 
L 1059.274628 329.283578 
L 1052.433861 329.323667 
L 1045.593095 329.743847 
L 1038.752329 330.421881 
L 1031.911563 331.17747 
L 1025.070797 331.83705 
L 1018.230031 332.280792 
L 1011.389265 332.457556 
L 1004.548499 332.375287 
L 997.707733 332.081807 
L 990.866967 331.64367 
L 984.0262 331.122404 
L 977.185434 330.549982 
L 970.344668 329.915876 
L 963.503902 329.181229 
L 956.663136 328.319573 
L 949.82237 327.356871 
L 942.981604 326.373074 
L 936.140838 325.452831 
L 929.300072 324.620602 
L 922.459306 323.821354 
L 915.618539 322.977855 
L 908.777773 322.085832 
L 901.937007 321.261799 
L 895.096241 320.687142 
L 888.255475 320.479867 
L 881.414709 320.593404 
L 874.573943 320.821972 
L 867.733177 320.898354 
L 860.892411 320.59133 
L 854.051645 319.723954 
L 847.210878 318.124427 
L 840.370112 315.589795 
L 833.529346 311.908072 
L 826.68858 306.879555 
L 819.847814 300.235905 
L 813.007048 291.472567 
L 806.166282 279.807366 
L 799.325516 264.52058 
L 792.48475 245.652688 
L 785.643983 224.586764 
L 778.803217 203.870242 
L 771.962451 186.079038 
L 765.121685 172.378194 
L 758.280919 161.929706 
L 751.440153 152.807256 
L 744.599387 143.833401 
L 737.758621 135.834546 
L 730.917855 131.171571 
L 724.077089 131.868642 
L 717.236322 137.937386 
L 710.395556 147.363052 
L 703.55479 157.756505 
L 696.714024 168.218576 
L 689.873258 179.834811 
L 683.032492 194.472231 
L 676.191726 212.982445 
L 669.35096 234.274403 
L 662.510194 255.842612 
L 655.669428 275.145799 
L 648.828661 290.745134 
L 641.987895 302.549582 
L 635.147129 311.299969 
L 628.306363 317.866336 
L 621.465597 322.828706 
L 614.624831 326.438104 
L 607.784065 328.782732 
L 600.943299 329.955458 
L 594.102533 330.134948 
L 587.261767 329.596135 
L 580.421 328.687619 
L 573.580234 327.786571 
L 566.739468 327.226355 
L 559.898702 327.210164 
L 553.057936 327.749745 
L 546.21717 328.666005 
L 539.376404 329.653269 
L 532.535638 330.371962 
L 525.694872 330.528968 
L 518.854105 329.93162 
L 512.013339 328.528072 
L 505.172573 326.442431 
L 498.331807 323.981561 
L 491.491041 321.571943 
L 484.650275 319.616331 
L 477.809509 318.3303 
L 470.968743 317.664848 
L 464.127977 317.382772 
L 457.287211 317.245488 
L 450.446444 317.174008 
L 443.605678 317.263789 
L 436.764912 317.654582 
L 429.924146 318.378154 
L 423.08338 319.318369 
L 416.242614 320.310676 
L 409.401848 321.28317 
L 402.561082 322.311505 
L 395.720316 323.543723 
L 388.87955 325.063613 
L 382.038783 326.802962 
L 375.198017 328.560294 
L 368.357251 330.096923 
L 361.516485 331.236212 
L 354.675719 331.911816 
L 347.834953 332.160641 
L 340.994187 332.088825 
L 334.153421 331.837236 
L 327.312655 331.553476 
L 320.471889 331.365083 
L 313.631122 331.35269 
L 306.790356 331.532482 
L 299.94959 331.859487 
L 293.108824 332.252942 
L 286.268058 332.63124 
L 279.427292 332.939034 
L 272.586526 333.156147 
L 265.74576 333.289907 
L 258.904994 333.359927 
L 252.064227 333.383862 
z
" style="fill:#1f77b4;fill-opacity:0.25;"/>
   </g>
   <g id="PolyCollection_2">
    <path clip-path="url(#p744985300d)" d="M 87.528247 333.399548 
L 87.528247 333.4285 
L 96.636344 333.4285 
L 105.74444 333.4285 
L 114.852537 333.4285 
L 123.960633 333.4285 
L 133.06873 333.4285 
L 142.176826 333.4285 
L 151.284923 333.4285 
L 160.393019 333.4285 
L 169.501116 333.4285 
L 178.609212 333.4285 
L 187.717309 333.4285 
L 196.825405 333.4285 
L 205.933502 333.4285 
L 215.041598 333.4285 
L 224.149695 333.4285 
L 233.257791 333.4285 
L 242.365888 333.4285 
L 251.473984 333.4285 
L 260.582081 333.4285 
L 269.690177 333.4285 
L 278.798274 333.4285 
L 287.90637 333.4285 
L 297.014467 333.4285 
L 306.122563 333.4285 
L 315.23066 333.4285 
L 324.338756 333.4285 
L 333.446853 333.4285 
L 342.554949 333.4285 
L 351.663046 333.4285 
L 360.771142 333.4285 
L 369.879239 333.4285 
L 378.987335 333.4285 
L 388.095432 333.4285 
L 397.203528 333.4285 
L 406.311625 333.4285 
L 415.419721 333.4285 
L 424.527818 333.4285 
L 433.635914 333.4285 
L 442.744011 333.4285 
L 451.852107 333.4285 
L 460.960204 333.4285 
L 470.0683 333.4285 
L 479.176397 333.4285 
L 488.284493 333.4285 
L 497.39259 333.4285 
L 506.500686 333.4285 
L 515.608783 333.4285 
L 524.716879 333.4285 
L 533.824976 333.4285 
L 542.933072 333.4285 
L 552.041169 333.4285 
L 561.149265 333.4285 
L 570.257362 333.4285 
L 579.365458 333.4285 
L 588.473555 333.4285 
L 597.581651 333.4285 
L 606.689748 333.4285 
L 615.797844 333.4285 
L 624.905941 333.4285 
L 634.014037 333.4285 
L 643.122134 333.4285 
L 652.23023 333.4285 
L 661.338327 333.4285 
L 670.446423 333.4285 
L 679.55452 333.4285 
L 688.662616 333.4285 
L 697.770713 333.4285 
L 706.878809 333.4285 
L 715.986906 333.4285 
L 725.095002 333.4285 
L 734.203099 333.4285 
L 743.311195 333.4285 
L 752.419292 333.4285 
L 761.527388 333.4285 
L 770.635485 333.4285 
L 779.743581 333.4285 
L 788.851678 333.4285 
L 797.959774 333.4285 
L 807.067871 333.4285 
L 816.175967 333.4285 
L 825.284064 333.4285 
L 834.39216 333.4285 
L 843.500257 333.4285 
L 852.608353 333.4285 
L 861.71645 333.4285 
L 870.824546 333.4285 
L 879.932643 333.4285 
L 889.040739 333.4285 
L 898.148836 333.4285 
L 907.256932 333.4285 
L 916.365029 333.4285 
L 925.473125 333.4285 
L 934.581222 333.4285 
L 943.689318 333.4285 
L 952.797415 333.4285 
L 961.905511 333.4285 
L 971.013608 333.4285 
L 980.121704 333.4285 
L 989.229801 333.4285 
L 998.337897 333.4285 
L 1007.445994 333.4285 
L 1016.55409 333.4285 
L 1025.662187 333.4285 
L 1034.770283 333.4285 
L 1043.87838 333.4285 
L 1052.986476 333.4285 
L 1062.094573 333.4285 
L 1071.202669 333.4285 
L 1080.310766 333.4285 
L 1089.418862 333.4285 
L 1098.526959 333.4285 
L 1107.635055 333.4285 
L 1116.743152 333.4285 
L 1125.851248 333.4285 
L 1134.959345 333.4285 
L 1144.067441 333.4285 
L 1153.175538 333.4285 
L 1162.283634 333.4285 
L 1171.391731 333.4285 
L 1180.499827 333.4285 
L 1189.607924 333.4285 
L 1198.71602 333.4285 
L 1207.824117 333.4285 
L 1216.932213 333.4285 
L 1226.04031 333.4285 
L 1235.148406 333.4285 
L 1244.256503 333.4285 
L 1244.256503 333.399563 
L 1244.256503 333.399563 
L 1235.148406 333.351437 
L 1226.04031 333.220356 
L 1216.932213 332.952746 
L 1207.824117 332.520615 
L 1198.71602 331.983491 
L 1189.607924 331.510343 
L 1180.499827 331.304103 
L 1171.391731 331.46206 
L 1162.283634 331.894898 
L 1153.175538 332.381983 
L 1144.067441 332.701893 
L 1134.959345 332.725969 
L 1125.851248 332.445306 
L 1116.743152 331.971699 
L 1107.635055 331.516818 
L 1098.526959 331.308025 
L 1089.418862 331.456378 
L 1080.310766 331.881555 
L 1071.202669 332.367542 
L 1062.094573 332.692864 
L 1052.986476 332.72597 
L 1043.87838 332.454338 
L 1034.770283 331.986165 
L 1025.662187 331.530322 
L 1016.55409 331.314583 
L 1007.445994 331.456397 
L 998.337897 331.889711 
L 989.229801 332.423934 
L 980.121704 332.878981 
L 971.013608 333.174218 
L 961.905511 333.319801 
L 952.797415 333.354824 
L 943.689318 333.29491 
L 934.581222 333.116833 
L 925.473125 332.782282 
L 916.365029 332.290551 
L 907.256932 331.723382 
L 898.148836 331.224728 
L 889.040739 330.903672 
L 879.932643 330.744597 
L 870.824546 330.624608 
L 861.71645 330.41253 
L 852.608353 330.020723 
L 843.500257 329.376489 
L 834.39216 328.437171 
L 825.284064 327.305191 
L 816.175967 326.269188 
L 807.067871 325.607806 
L 797.959774 325.330035 
L 788.851678 325.19328 
L 779.743581 324.99301 
L 770.635485 324.723922 
L 761.527388 324.404235 
L 752.419292 323.861766 
L 743.311195 322.788269 
L 734.203099 320.876231 
L 725.095002 317.745495 
L 715.986906 312.890999 
L 706.878809 306.027918 
L 697.770713 297.406278 
L 688.662616 287.244307 
L 679.55452 274.739026 
L 670.446423 258.49358 
L 661.338327 238.643919 
L 652.23023 217.746368 
L 643.122134 198.143931 
L 634.014037 178.957331 
L 624.905941 157.996303 
L 615.797844 137.222269 
L 606.689748 123.623424 
L 597.581651 122.462466 
L 588.473555 131.277123 
L 579.365458 143.18608 
L 570.257362 155.244679 
L 561.149265 170.580797 
L 552.041169 192.230704 
L 542.933072 217.913842 
L 533.824976 242.323276 
L 524.716879 262.592054 
L 515.608783 279.649966 
L 506.500686 295.170032 
L 497.39259 309.044677 
L 488.284493 319.932667 
L 479.176397 327.051855 
L 470.0683 330.877705 
L 460.960204 332.567873 
L 451.852107 333.183992 
L 442.744011 333.370049 
L 433.635914 333.416747 
L 424.527818 333.426513 
L 415.419721 333.428218 
L 406.311625 333.428466 
L 397.203528 333.428497 
L 388.095432 333.4285 
L 378.987335 333.4285 
L 369.879239 333.4285 
L 360.771142 333.4285 
L 351.663046 333.428498 
L 342.554949 333.428478 
L 333.446853 333.428339 
L 324.338756 333.427492 
L 315.23066 333.423172 
L 306.122563 333.404814 
L 297.014467 333.340014 
L 287.90637 333.150953 
L 278.798274 332.698119 
L 269.690177 331.816852 
L 260.582081 330.44665 
L 251.473984 328.797519 
L 242.365888 327.370291 
L 233.257791 326.696344 
L 224.149695 326.958006 
L 215.041598 327.861707 
L 205.933502 328.903747 
L 196.825405 329.73397 
L 187.717309 330.267186 
L 178.609212 330.556589 
L 169.501116 330.684713 
L 160.393019 330.770795 
L 151.284923 330.968502 
L 142.176826 331.372762 
L 133.06873 331.936008 
L 123.960633 332.506838 
L 114.852537 332.949388 
L 105.74444 333.219669 
L 96.636344 333.351319 
L 87.528247 333.399548 
z
" style="fill:#ff7f0e;fill-opacity:0.25;"/>
   </g>
   <g id="line2d_30">
    <path clip-path="url(#p744985300d)" d="M 252.064227 333.383862 
L 265.74576 333.289907 
L 279.427292 332.939034 
L 293.108824 332.252942 
L 306.790356 331.532482 
L 313.631122 331.35269 
L 320.471889 331.365083 
L 334.153421 331.837236 
L 340.994187 332.088825 
L 347.834953 332.160641 
L 354.675719 331.911816 
L 361.516485 331.236212 
L 368.357251 330.096923 
L 375.198017 328.560294 
L 388.87955 325.063613 
L 395.720316 323.543723 
L 402.561082 322.311505 
L 423.08338 319.318369 
L 429.924146 318.378154 
L 436.764912 317.654582 
L 443.605678 317.263789 
L 450.446444 317.174008 
L 464.127977 317.382772 
L 470.968743 317.664848 
L 477.809509 318.3303 
L 484.650275 319.616331 
L 491.491041 321.571943 
L 505.172573 326.442431 
L 512.013339 328.528072 
L 518.854105 329.93162 
L 525.694872 330.528968 
L 532.535638 330.371962 
L 539.376404 329.653269 
L 553.057936 327.749745 
L 559.898702 327.210164 
L 566.739468 327.226355 
L 573.580234 327.786571 
L 587.261767 329.596135 
L 594.102533 330.134948 
L 600.943299 329.955458 
L 607.784065 328.782732 
L 614.624831 326.438104 
L 621.465597 322.828706 
L 628.306363 317.866336 
L 635.147129 311.299969 
L 641.987895 302.549582 
L 648.828661 290.745134 
L 655.669428 275.145799 
L 662.510194 255.842612 
L 676.191726 212.982445 
L 683.032492 194.472231 
L 689.873258 179.834811 
L 696.714024 168.218576 
L 710.395556 147.363052 
L 717.236322 137.937386 
L 724.077089 131.868642 
L 730.917855 131.171571 
L 737.758621 135.834546 
L 744.599387 143.833401 
L 758.280919 161.929706 
L 765.121685 172.378194 
L 771.962451 186.079038 
L 778.803217 203.870242 
L 792.48475 245.652688 
L 799.325516 264.52058 
L 806.166282 279.807366 
L 813.007048 291.472567 
L 819.847814 300.235905 
L 826.68858 306.879555 
L 833.529346 311.908072 
L 840.370112 315.589795 
L 847.210878 318.124427 
L 854.051645 319.723954 
L 860.892411 320.59133 
L 867.733177 320.898354 
L 874.573943 320.821972 
L 881.414709 320.593404 
L 888.255475 320.479867 
L 895.096241 320.687142 
L 901.546563 321.229 
L 901.546563 321.229 
" style="fill:none;stroke:#1f77b4;stroke-linecap:round;stroke-width:1.5;"/>
   </g>
   <g id="line2d_31">
    <path clip-path="url(#p744985300d)" d="M 87.528247 333.399548 
L 105.74444 333.219669 
L 114.852537 332.949388 
L 123.960633 332.506838 
L 142.176826 331.372762 
L 151.284923 330.968502 
L 160.393019 330.770795 
L 178.609212 330.556589 
L 187.717309 330.267186 
L 196.825405 329.73397 
L 205.933502 328.903747 
L 215.041598 327.861707 
L 224.149695 326.958006 
L 233.257791 326.696344 
L 242.365888 327.370291 
L 251.473984 328.797519 
L 260.582081 330.44665 
L 269.690177 331.816852 
L 278.798274 332.698119 
L 287.90637 333.150953 
L 297.014467 333.340014 
L 324.338756 333.427492 
L 442.744011 333.370049 
L 451.852107 333.183992 
L 460.960204 332.567873 
L 470.0683 330.877705 
L 479.176397 327.051855 
L 488.284493 319.932667 
L 497.39259 309.044677 
L 506.500686 295.170032 
L 515.608783 279.649966 
L 524.716879 262.592054 
L 533.824976 242.323276 
L 542.933072 217.913842 
L 552.041169 192.230704 
L 561.149265 170.580797 
L 570.257362 155.244679 
L 588.473555 131.277123 
L 597.581651 122.462466 
L 606.689748 123.623424 
L 615.797844 137.222269 
L 634.014037 178.957331 
L 643.122134 198.143931 
L 652.23023 217.746368 
L 661.338327 238.643919 
L 670.446423 258.49358 
L 679.55452 274.739026 
L 688.662616 287.244307 
L 697.770713 297.406278 
L 706.878809 306.027918 
L 715.986906 312.890999 
L 725.095002 317.745495 
L 734.203099 320.876231 
L 743.311195 322.788269 
L 752.419292 323.861766 
L 761.527388 324.404235 
L 779.743581 324.99301 
L 807.067871 325.607806 
L 816.175967 326.269188 
L 843.500257 329.376489 
L 852.608353 330.020723 
L 861.71645 330.41253 
L 879.932643 330.744597 
L 889.040739 330.903672 
L 901.546563 331.410748 
L 901.546563 331.410748 
" style="fill:none;stroke:#ff7f0e;stroke-linecap:round;stroke-width:1.5;"/>
   </g>
   <g id="patch_12">
    <path d="M 439.726875 333.4285 
L 439.726875 80.1685 
" style="fill:none;stroke:#262626;stroke-linecap:square;stroke-linejoin:miter;stroke-width:1.25;"/>
   </g>
   <g id="patch_13">
    <path d="M 439.726875 333.4285 
L 850.936875 333.4285 
" style="fill:none;stroke:#262626;stroke-linecap:square;stroke-linejoin:miter;stroke-width:1.25;"/>
   </g>
   <g id="text_35">
    <!-- Kernel Density Estimate -->
    <defs>
     <path d="M 7.328125 0 
L 7.328125 71.578125 
L 16.796875 71.578125 
L 16.796875 36.078125 
L 52.34375 71.578125 
L 65.1875 71.578125 
L 35.15625 42.578125 
L 66.5 0 
L 54 0 
L 28.515625 36.234375 
L 16.796875 24.8125 
L 16.796875 0 
z
" id="ArialMT-4b"/>
     <path d="M 6.390625 0 
L 6.390625 71.578125 
L 15.1875 71.578125 
L 15.1875 0 
z
" id="ArialMT-6c"/>
     <path d="M 7.71875 0 
L 7.71875 71.578125 
L 32.375 71.578125 
Q 40.71875 71.578125 45.125 70.5625 
Q 51.265625 69.140625 55.609375 65.4375 
Q 61.28125 60.640625 64.078125 53.1875 
Q 66.890625 45.75 66.890625 36.1875 
Q 66.890625 28.03125 64.984375 21.734375 
Q 63.09375 15.4375 60.109375 11.296875 
Q 57.125 7.171875 53.578125 4.796875 
Q 50.046875 2.4375 45.046875 1.21875 
Q 40.046875 0 33.546875 0 
z
M 17.1875 8.453125 
L 32.46875 8.453125 
Q 39.546875 8.453125 43.578125 9.765625 
Q 47.609375 11.078125 50 13.484375 
Q 53.375 16.84375 55.25 22.53125 
Q 57.125 28.21875 57.125 36.328125 
Q 57.125 47.5625 53.4375 53.59375 
Q 49.75 59.625 44.484375 61.671875 
Q 40.671875 63.140625 32.234375 63.140625 
L 17.1875 63.140625 
z
" id="ArialMT-44"/>
     <path d="M 7.90625 0 
L 7.90625 71.578125 
L 59.671875 71.578125 
L 59.671875 63.140625 
L 17.390625 63.140625 
L 17.390625 41.21875 
L 56.984375 41.21875 
L 56.984375 32.8125 
L 17.390625 32.8125 
L 17.390625 8.453125 
L 61.328125 8.453125 
L 61.328125 0 
z
" id="ArialMT-45"/>
    </defs>
    <g style="fill:#262626;" transform="translate(549.297656 99.4945)scale(0.18 -0.18)">
     <use xlink:href="#ArialMT-4b"/>
     <use x="66.699219" xlink:href="#ArialMT-65"/>
     <use x="122.314453" xlink:href="#ArialMT-72"/>
     <use x="155.615234" xlink:href="#ArialMT-6e"/>
     <use x="211.230469" xlink:href="#ArialMT-65"/>
     <use x="266.845703" xlink:href="#ArialMT-6c"/>
     <use x="289.0625" xlink:href="#ArialMT-20"/>
     <use x="316.845703" xlink:href="#ArialMT-44"/>
     <use x="389.0625" xlink:href="#ArialMT-65"/>
     <use x="444.677734" xlink:href="#ArialMT-6e"/>
     <use x="500.292969" xlink:href="#ArialMT-73"/>
     <use x="550.292969" xlink:href="#ArialMT-69"/>
     <use x="572.509766" xlink:href="#ArialMT-74"/>
     <use x="600.292969" xlink:href="#ArialMT-79"/>
     <use x="650.292969" xlink:href="#ArialMT-20"/>
     <use x="678.076172" xlink:href="#ArialMT-45"/>
     <use x="744.775391" xlink:href="#ArialMT-73"/>
     <use x="794.775391" xlink:href="#ArialMT-74"/>
     <use x="822.558594" xlink:href="#ArialMT-69"/>
     <use x="844.775391" xlink:href="#ArialMT-6d"/>
     <use x="928.076172" xlink:href="#ArialMT-61"/>
     <use x="983.691406" xlink:href="#ArialMT-74"/>
     <use x="1011.474609" xlink:href="#ArialMT-65"/>
    </g>
   </g>
  </g>
 </g>
 <defs>
  <clipPath id="p62eca0325e">
   <rect height="380.52" width="837" x="46.336875" y="29.0125"/>
  </clipPath>
  <clipPath id="p744985300d">
   <rect height="253.26" width="411.21" x="439.726875" y="80.1685"/>
  </clipPath>
 </defs>
</svg>
